<svg version="1.1" xmlns="http://www.w3.org/2000/svg" xmlns:xlink="http://www.w3.org/1999/xlink" width="162.14253" height="117.97599" viewBox="0,0,162.14253,117.97599"><defs><linearGradient x1="265.14504" y1="185.7834" x2="251.52915" y2="173.93788" gradientUnits="userSpaceOnUse" id="color-1"><stop offset="0" stop-color="#bebebe"/><stop offset="1" stop-color="#737373"/></linearGradient><linearGradient x1="235.4634" y1="162.68358" x2="210.01606" y2="182.76769" gradientUnits="userSpaceOnUse" id="color-2"><stop offset="0" stop-color="#bebebe"/><stop offset="1" stop-color="#737373"/></linearGradient><linearGradient x1="235.4634" y1="162.68358" x2="210.01606" y2="182.76769" gradientUnits="userSpaceOnUse" id="color-3"><stop offset="0" stop-color="#bebebe"/><stop offset="1" stop-color="#737373"/></linearGradient><linearGradient x1="235.30752" y1="163.20518" x2="212.78513" y2="180.98079" gradientUnits="userSpaceOnUse" id="color-4"><stop offset="0" stop-color="#ffd166"/><stop offset="1" stop-color="#ac880b"/></linearGradient><linearGradient x1="251.42759" y1="162.27148" x2="229.39672" y2="179.65915" gradientUnits="userSpaceOnUse" id="color-5"><stop offset="0" stop-color="#ffd166"/><stop offset="1" stop-color="#ac880b"/></linearGradient><linearGradient x1="251.454" y1="162.18076" x2="228.96276" y2="179.93177" gradientUnits="userSpaceOnUse" id="color-6"><stop offset="0" stop-color="#ffd166"/><stop offset="1" stop-color="#ac880b"/></linearGradient><linearGradient x1="255.7197" y1="145.13927" x2="233.78971" y2="162.44731" gradientUnits="userSpaceOnUse" id="color-7"><stop offset="0" stop-color="#ffd166"/><stop offset="1" stop-color="#ac880b"/></linearGradient><linearGradient x1="249.6654" y1="139.46775" x2="232.47127" y2="153.03809" gradientUnits="userSpaceOnUse" id="color-8"><stop offset="0" stop-color="#bebebe"/><stop offset="1" stop-color="#737373"/></linearGradient><linearGradient x1="249.6654" y1="139.46775" x2="232.47127" y2="153.03809" gradientUnits="userSpaceOnUse" id="color-9"><stop offset="0" stop-color="#bebebe"/><stop offset="1" stop-color="#737373"/></linearGradient><linearGradient x1="258.96473" y1="165.4468" x2="236.11382" y2="187.23534" gradientUnits="userSpaceOnUse" id="color-10"><stop offset="0" stop-color="#bebebe"/><stop offset="1" stop-color="#737373"/></linearGradient><linearGradient x1="347.90327" y1="183.5214" x2="353.33753" y2="196.14407" gradientUnits="userSpaceOnUse" id="color-11"><stop offset="0" stop-color="#bb951b"/><stop offset="1" stop-color="#d6ad39"/></linearGradient><linearGradient x1="357.27409" y1="179.21861" x2="362.37502" y2="191.06704" gradientUnits="userSpaceOnUse" id="color-12"><stop offset="0" stop-color="#bebebe"/><stop offset="1" stop-color="#737373"/></linearGradient><linearGradient x1="353.25858" y1="184.53622" x2="355.69331" y2="190.19151" gradientUnits="userSpaceOnUse" id="color-13"><stop offset="0" stop-color="#bb951b"/><stop offset="1" stop-color="#d6ad39"/></linearGradient><linearGradient x1="352.3607" y1="185.43862" x2="354.44308" y2="190.27553" gradientUnits="userSpaceOnUse" id="color-14"><stop offset="0" stop-color="#bb951b"/><stop offset="1" stop-color="#d6ad39"/></linearGradient><linearGradient x1="353.45433" y1="183.69553" x2="353.8767" y2="184.67657" gradientUnits="userSpaceOnUse" id="color-15"><stop offset="0" stop-color="#bb951b"/><stop offset="1" stop-color="#d6ad39"/></linearGradient><linearGradient x1="353.53104" y1="183.12014" x2="353.94385" y2="184.07899" gradientUnits="userSpaceOnUse" id="color-16"><stop offset="0" stop-color="#bb951b"/><stop offset="1" stop-color="#d6ad39"/></linearGradient></defs><g transform="translate(-203.50171,-137.79589)"><g data-paper-data="{&quot;isPaintingLayer&quot;:true}" stroke-miterlimit="10" stroke-dasharray="" stroke-dashoffset="0" style="mix-blend-mode: normal"><path d="M256.20101,180.95799c0,0 -7.69001,-9.10366 -10.42086,-12.84044c-2.12604,-2.90917 -8.56734,-11.95797 -8.56734,-11.95797" fill="none" fill-rule="nonzero" stroke="#000000" stroke-width="6" stroke-linecap="round" stroke-linejoin="miter"/><path d="M250.97969,174.56947c1.61732,-1.85905 5.36062,-1.25015 8.36091,1.36003c1.59836,1.39054 5.56033,2.60625 6.52329,5.04765c0.84459,2.14134 2.86718,9.3052 2.26431,9.66001c-1.88054,1.10674 -11.81839,-6.52871 -13.59783,-8.07678c-1.69309,-1.47294 -3.12105,-3.23617 -3.75332,-4.82707c-0.48817,-1.22829 -0.50201,-2.35388 0.20264,-3.16384z" fill="url(#color-1)" fill-rule="nonzero" stroke="#737373" stroke-width="1" stroke-linecap="butt" stroke-linejoin="miter"/><g><g><g stroke-width="1.2"><path d="M231.57428,180.40236c0,0 -12.19651,-0.41481 -15.13973,-1.91393c-2.00828,-1.0229 -0.95045,-6.09455 -0.95045,-6.09455c0,0 -7.81972,6.32722 -11.11727,3.20145c-0.188,-0.17821 -1.0526,-1.10294 1.86574,-4.0796c2.79518,-2.85102 9.31991,-7.72216 11.7099,-9.49695c1.11004,-0.82431 3.00544,-1.90565 4.55387,-2.30931c1.55903,-0.4064 2.2368,0.35887 2.67921,0.7372c0.05872,0.05019 0.81366,7.83758 1.58691,8.31598c0.38896,0.24063 15.06728,1.98736 15.06728,1.98736" fill="url(#color-2)" fill-rule="evenodd" stroke="url(#color-3)" stroke-linecap="round" stroke-linejoin="round"/><path d="M239.14758,168.13661c3.37943,3.20339 -2.42894,8.26481 -5.51971,10.84692c-1.34399,1.12279 -12.3293,3.03152 -18.11685,1.93458c-1.51652,-0.28742 -3.11953,-2.80592 -3.92772,-3.97023c-0.28397,-0.40911 0.91738,-0.54322 0.91738,-0.54322c0,0 -1.20484,0.2917 -1.8829,0.22528c-0.69988,-0.06856 -1.56049,-0.37247 -1.56049,-0.37247l2.71861,-1.41563c0,0 8.04676,-6.48122 9.97998,-10.02928c1.9332,-3.54807 -1.67118,-4.04604 -1.67118,-4.04604c0,0 6.19239,-4.60538 8.08449,-3.78448c0.46645,0.20237 0.6151,1.86219 0.6151,1.86219c0,0 0.60333,-0.61586 0.86852,-0.42643c0.08601,0.06144 -0.71823,5.03193 -1.20616,7.71055c-0.27894,1.53142 -0.35406,1.4538 -0.35406,1.4538c0,0 10.56809,0.09288 11.05501,0.55443z" fill="url(#color-4)" fill-rule="nonzero" stroke="#caa551" stroke-linecap="butt" stroke-linejoin="miter"/></g><path d="M252.07321,163.08966c0.09514,0.09754 -1.52587,0.86795 -4.66676,3.28805c-4.14364,3.19272 -10.26286,8.36945 -11.94462,9.87441c-4.36113,3.90261 -4.54077,5.27049 -4.79301,5.01197c-0.93336,-0.95674 0.13469,-4.93644 5.29639,-9.18231c2.26831,-1.86584 6.7073,-5.93635 9.6671,-7.67616c3.77538,-2.21921 5.91771,-1.85224 6.4409,-1.31595z" fill="url(#color-5)" fill-rule="nonzero" stroke="#caa551" stroke-width="1.2" stroke-linecap="butt" stroke-linejoin="miter"/><g fill-rule="nonzero" stroke-linecap="butt" stroke-linejoin="miter"><g fill="none" stroke="none" stroke-width="1" font-family="sans-serif" font-weight="normal" font-size="12" text-anchor="start"/><path d="M253.08409,164.43811c0,0 -10.53959,6.2154 -15.24641,9.46293c-4.70681,3.24753 -8.28774,6.77472 -8.28774,6.77472c0,0 -0.48512,-1.25981 1.17973,-3.95387c1.28868,-2.08537 4.0644,-5.23531 8.0966,-8.03154c3.67343,-2.54742 7.92206,-4.95811 10.24747,-5.51352c3.52461,-0.8418 4.01034,1.26123 4.01034,1.26123z" fill="url(#color-6)" stroke="#caa551" stroke-width="1.2"/></g><g stroke-width="1.2"><path d="M241.6135,168.24496c0,0 -8.28449,-17.89241 -7.6674,-18.46009c1.77089,-1.62908 13.09999,-8.4983 13.09999,-8.4983l5.31081,20.37149" data-paper-data="{&quot;index&quot;:null}" fill="#ffab19" fill-rule="evenodd" stroke="#001026" stroke-linecap="round" stroke-linejoin="round"/><path d="M240.21546,169.74221c0,0 -3.85886,-3.65596 -4.94283,-5.53968c-0.66492,-1.15548 -1.26492,-6.40131 -1.26492,-6.40131c0,0 -2.83013,-1.73461 -2.64986,-2.23737c0.23161,-0.64598 2.8186,-0.29416 2.8186,-0.29416c0,0 -2.79935,-0.53479 -2.97192,-0.6721c-1.20421,-0.95805 -1.16297,-3.49677 2.0231,-6.24945c3.49811,-3.02226 9.36461,-7.94761 13.19714,-9.46252c3.46967,-1.37149 5.07744,0.46115 5.32021,1.54313c0.17049,0.75981 -1.46207,2.53013 -1.30535,3.50598c0.1042,0.64887 1.53273,-3.80164 1.45646,-2.76678c-0.02216,0.30085 -0.09817,4.82358 -0.09817,4.82358c0,0 1.68259,2.81741 1.80049,4.25942c0.47353,5.79054 -0.07674,11.37817 -0.07674,11.37817" data-paper-data="{&quot;index&quot;:null}" fill="url(#color-7)" fill-rule="evenodd" stroke="#caa551" stroke-linecap="round" stroke-linejoin="round"/><path d="M232.20241,152.68421c-0.57624,-0.917 -0.61005,-2.4841 0.59641,-4.26391c1.21096,-1.78641 11.07681,-9.24377 13.07097,-9.80245c1.89379,-0.53055 3.34083,0.10934 3.90324,1.00431c1.15462,1.83736 -1.84266,6.25089 -6.69467,9.85788c-4.85199,3.60697 -9.72134,5.04153 -10.87594,3.20415z" fill="url(#color-8)" fill-rule="nonzero" stroke="url(#color-9)" stroke-linecap="butt" stroke-linejoin="miter"/></g></g><g fill="none" fill-rule="nonzero" stroke="none" stroke-width="1" stroke-linecap="butt" stroke-linejoin="miter" font-family="sans-serif" font-weight="normal" font-size="12" text-anchor="start"/></g><path d="M251.67386,167.27597c0,0 6.4336,-9.64572 11.32033,-11.72574" fill="none" fill-rule="nonzero" stroke="#000000" stroke-width="6" stroke-linecap="round" stroke-linejoin="miter"/><path d="M248.11248,166.59612c0,0 1.4239,6.80049 3.00724,7.79301c0.38727,0.24276 -2.49936,-7.22094 -1.84659,-7.25887c3.11285,-0.18084 10.9415,-5.35852 10.9415,-5.35852c0,0 -1.62763,9.60977 -2.52345,14.30942c-0.24735,1.29762 -6.89745,7.97949 -6.9524,8.35606c-0.07097,0.48634 -10.43927,7.64811 -10.43927,7.64811c0,0 -4.29412,0.49998 -6.43253,-1.80556c-0.01519,-0.01637 6.88924,-5.46291 6.65101,-5.71974c-1.42712,-1.53865 -4.05827,-6.63571 -4.05827,-6.63571c0,0 1.3555,-3.13652 3.35742,-5.11043c2.20694,-2.17603 8.29532,-6.2178 8.29532,-6.2178z" fill="url(#color-10)" fill-rule="nonzero" stroke="#737373" stroke-width="2.5" stroke-linecap="butt" stroke-linejoin="miter"/><g data-paper-data="{&quot;index&quot;:null}" fill-rule="nonzero" stroke="none" stroke-width="1" stroke-linecap="butt" stroke-linejoin="miter"><path d="M352.99477,183.32766c-0.00471,-0.22458 0.11383,-0.3172 0.27068,-0.39942c0.25699,-0.10845 0.52892,-0.15928 0.79089,-0.24843c0.0351,-0.07079 0.07024,-0.14157 0.08867,-0.20796c0.45875,-1.39297 1.35722,-2.3265 2.42228,-3.09843c0.22535,-0.16172 0.44578,-0.3427 0.71269,-0.41269c0.05006,-0.0131 0.11182,-0.04984 0.1352,-0.09706c0.12875,-0.25956 0.34565,-0.31647 0.57427,-0.39693c0.19521,-0.07173 0.40041,-0.10502 0.60062,-0.15751c0.11678,-0.03062 0.24353,-0.02283 0.35685,0.07062c0.11328,0.09346 0.2617,0.11612 0.39341,0.14311c0.76545,0.06612 1.5157,0.27986 2.2458,0.62207c0.40836,0.20082 0.76494,0.47677 1.12646,0.77194c1.06299,0.87072 1.83713,2.00189 2.39088,3.31405c0.24275,0.59318 0.40707,1.22746 0.50467,1.87923c0.07442,0.49362 0.02211,0.97948 -0.05186,1.45047c-0.23538,1.49863 -0.89905,2.71951 -1.871,3.71333c-0.18203,0.19141 -0.41234,0.33394 -0.64271,0.47647c-0.15187,0.10142 -0.28213,0.21771 -0.33246,0.43614c-0.03864,0.19484 -0.16885,0.31111 -0.3257,0.39329c-0.25699,0.10845 -0.52393,0.17844 -0.7909,0.24844c-0.08343,0.02186 -0.16015,0.00094 -0.23684,-0.02002c-0.27837,-0.11171 -0.54358,-0.10376 -0.81551,-0.05295c-0.57226,0.12956 -1.1609,0.05812 -1.74458,0.00591c-0.22015,-0.02439 -0.44522,-0.06795 -0.66361,-0.15434c-0.71016,-0.26532 -1.39196,-0.55864 -2.01846,-1.05117c-0.25025,0.06561 -0.52219,0.11641 -0.78912,0.18645c-0.10013,0.02625 -0.2169,0.05687 -0.31349,-0.04096c-0.09163,-0.0786 -0.18677,-0.03315 -0.28685,-0.00687c-0.67232,0.15582 -1.33969,0.3308 -2.01202,0.48662c-1.48988,0.37016 -2.99639,0.74478 -4.49619,1.07653c-1.46645,0.323 -2.91795,0.70371 -4.37444,1.06512c-0.23359,0.06126 -0.46042,0.07968 -0.69398,0.14096c-1.13451,0.29755 -2.26903,0.59505 -3.40853,0.87338c-0.20019,0.05251 -0.39046,0.14344 -0.60384,0.07622c-0.07671,-0.02093 -0.15512,0.02014 -0.23856,0.04201c-0.83421,0.21881 -1.69009,0.42272 -2.52428,0.6415c-0.03337,0.00875 -0.08341,0.02185 -0.11678,0.03064c-0.26197,0.08925 -0.43028,-0.01031 -0.61679,-0.24877c-0.61777,-0.80273 -0.96185,-1.71827 -1.03232,-2.74667c-0.01468,-0.26299 0.00401,-0.53472 0.06105,-0.79602c0.03864,-0.19484 0.15217,-0.30674 0.31401,-0.36971c0.48559,-0.18892 0.9662,-0.39707 1.46846,-0.59037c0.35711,-0.1347 0.74085,-0.23536 1.08298,-0.42771c0.74607,-0.42145 1.56856,-0.61662 2.32952,-0.98044c0.43053,-0.19503 0.83447,-0.42411 1.27001,-0.59993c0.46889,-0.18455 0.91116,-0.40317 1.35836,-0.60259c0.81603,-0.35769 1.65872,-0.68131 2.46975,-1.05826c1.05805,-0.52378 2.13609,-0.97074 3.21407,-1.41765c0.36882,-0.15829 0.73754,-0.31662 1.10638,-0.47491c0.58072,-0.23443 1.17809,-0.47317 1.75878,-0.70756c0.32372,-0.12597 0.62082,-0.28597 0.94449,-0.41196c0.33547,-0.14957 0.6524,-0.23268 1.00952,-0.36739zM353.35283,183.74688c-0.04035,0.25689 -0.04736,0.50504 0.00068,0.75928c-0.02067,0.53911 0.08037,1.06682 0.18147,1.59453c0.11925,0.66663 0.31022,1.33496 0.49621,1.98411c0.21089,0.74523 0.57367,1.38903 0.95811,2.04772c0.05329,0.06812 0.10657,0.13626 0.1865,0.23844c0.13347,-0.03498 0.26692,-0.07004 0.40039,-0.10503c0.03337,-0.00875 0.06176,-0.03671 0.10681,-0.06907c-0.03484,-0.13454 -0.08639,-0.26472 -0.1546,-0.39052c-0.10982,-0.21752 -0.18123,-0.42456 -0.29103,-0.64207c-0.24948,-0.55037 -0.35385,-1.15936 -0.55328,-1.72284c-0.09638,-0.30315 -0.22606,-0.59754 -0.28906,-0.90944c-0.12425,-0.68585 -0.33187,-1.34983 -0.38935,-2.05312c-0.01144,-0.18176 -0.02791,-0.38268 -0.03931,-0.56445c0.08022,-0.10314 0.00696,-0.24815 0.01547,-0.35303c0.02017,-0.12845 0.04035,-0.25692 -0.03111,-0.46392c-0.18203,0.19141 -0.41387,0.19063 -0.59417,0.32002c0.00819,0.10048 -0.07196,0.20361 -0.00373,0.32942zM352.98474,184.66439c0.03566,-0.48146 0.02243,-0.60112 -0.07567,-0.84227c-0.19521,0.07173 -0.3738,0.1391 -0.56902,0.21081c-0.11678,0.03062 -0.18032,0.12936 -0.20048,0.25787c-0.01346,0.08568 0.01145,0.18172 -0.00198,0.26736c-0.04212,0.31894 -0.00749,0.65884 0.08885,0.96196c-0.04854,0.15642 -0.00876,0.31016 0.0311,0.46396c0.2074,0.86928 0.39315,1.72377 0.68394,2.5712c0.13296,0.37567 0.28258,0.74696 0.44394,1.09463c0.14144,0.27084 0.28783,0.56085 0.5478,0.73899c0.2169,-0.05691 0.43376,-0.1138 0.65069,-0.17067c-0.07319,-0.14501 -0.14143,-0.27083 -0.20465,-0.37738c-0.27287,-0.50319 -0.51242,-1.01509 -0.68521,-1.54452c-0.2293,-0.6788 -0.37517,-1.37952 -0.53777,-2.07583c-0.08466,-0.32678 -0.06425,-0.66055 -0.16556,-0.98291c0.07197,-0.2036 0.03888,-0.40019 -0.00592,-0.57316zM335.03293,191.91775c-0.03039,0.29533 0.02261,0.5688 0.109,0.83349c-0.0117,0.02356 -0.01843,0.06642 -0.01342,0.08566c0.13618,0.45693 0.30573,0.9051 0.56545,1.28857c0.14816,0.22802 0.27962,0.46036 0.51293,0.6044c0.93433,-0.24503 1.86857,-0.4901 2.85298,-0.74821c-0.30299,-0.41318 -0.506,-0.8526 -0.6922,-1.29636c-0.17131,-0.38616 -0.22084,-0.78367 -0.35877,-1.17856c-0.03984,-0.15375 -0.05804,-0.29268 -0.09786,-0.44646c0.02368,-0.2525 0.00899,-0.51551 -0.049,-0.80817c-0.50054,0.13128 -0.92784,0.40756 -1.38504,0.56852c-0.4689,0.18456 -0.93283,0.38833 -1.38501,0.56852c-0.07197,0.2036 -0.06552,0.36613 -0.05903,0.52865zM338.2619,190.55776c-0.04852,0.15643 -0.02539,0.31458 0.01445,0.46829c-0.02692,0.17128 0.03458,0.33992 0.06271,0.51725c0.12276,0.54255 0.32891,1.06325 0.56346,1.55592c0.1464,0.29 0.3262,0.5713 0.56273,0.79661c0.06674,-0.0175 0.13845,-0.0158 0.20518,-0.03332c0.81757,-0.21437 1.61834,-0.42441 2.44083,-0.61961c0.87254,-0.20832 1.72839,-0.41224 2.60095,-0.62055c1.27297,-0.31335 2.53422,-0.603 3.80719,-0.91636c1.4281,-0.33347 2.82456,-0.72027 4.26261,-1.01528c0.23855,-0.04201 0.48383,-0.12695 0.7341,-0.19253c-0.1215,-0.19389 -0.2714,-0.35984 -0.35955,-0.56252c-0.32444,-0.63333 -0.55374,-1.31217 -0.7497,-1.99972c-0.15934,-0.61503 -0.30198,-1.23449 -0.44463,-1.85394c-0.03135,-0.25864 -0.07443,-0.49363 -0.10579,-0.75226c0.06027,-0.17999 -0.01791,-0.34425 -0.0244,-0.50676c-0.01144,-0.18176 0.01546,-0.353 -0.05103,-0.54083c-0.1768,0.00532 -0.30033,0.07876 -0.41211,0.12861c-0.9296,0.46962 -1.91571,0.78976 -2.86021,1.2017c-0.6091,0.26238 -1.21821,0.52474 -1.82229,0.80637c-0.81603,0.35769 -1.61037,0.73022 -2.40971,1.08354c-0.65415,0.29475 -1.30835,0.58946 -1.96749,0.86494c-0.70424,0.30783 -1.39674,0.59207 -2.10594,0.88071c-0.64245,0.27113 -1.3016,0.54664 -1.95578,0.84135c0.02814,0.17734 -0.04209,0.31894 0.01442,0.46832zM362.28155,191.11414c-0.25967,-0.38345 -0.431,-0.76964 -0.61899,-1.15136c-0.19297,-0.40098 -0.39767,-0.77834 -0.57391,-1.18368c-0.17131,-0.38616 -0.31424,-0.80028 -0.46881,-1.19078c-0.1596,-0.40976 -0.3192,-0.81947 -0.4671,-1.25275c-0.13791,-0.39486 -0.26413,-0.81337 -0.40208,-1.20826c-0.12621,-0.41846 -0.18573,-0.85447 -0.37869,-1.25545c-0.00447,-0.42985 -0.18075,-0.83523 -0.26866,-1.24324c-0.07615,-0.43157 -0.19071,-0.8737 -0.26688,-1.30529c-0.07118,-0.41236 -0.13066,-0.84837 -0.1852,-1.26513c-0.05948,-0.43599 -0.04724,-0.87025 -0.15681,-1.29304c-0.41037,0.06658 -0.52716,0.09719 -0.78764,0.32971c-0.02368,0.2525 -0.04735,0.50507 -0.02767,0.78725c0.0346,0.33988 0.06918,0.67973 0.09207,1.04324c0.05249,0.68414 0.11675,1.34469 0.29101,2.0174c0.11949,0.4613 0.25572,0.91822 0.30845,1.39703c0.00819,0.10048 0.03808,0.2158 0.10133,0.32234c0.10982,0.21749 0.15784,0.47179 0.21762,0.7024c0.21908,0.8457 0.53829,1.66517 0.86923,2.46104c0.41731,1.06059 0.94143,2.05209 1.51564,3.03043c0.10483,0.19828 0.20964,0.39658 0.39964,0.51092c0.26023,-0.02717 0.50553,-0.11204 0.80755,-0.25281zM362.25524,182.82837c-0.25672,-0.09686 -0.49356,-0.1169 -0.73533,-0.1561c-0.20841,-0.04801 -0.41361,-0.01469 -0.5939,0.1147c-0.35385,0.21596 -0.73932,0.37866 -1.14473,0.4644c-0.03337,0.00875 -0.07846,0.04106 -0.09513,0.04545c-0.02514,0.10921 -0.0052,0.18609 0.06974,0.2691c0.02163,0.01484 0.06,0.02532 0.07669,0.02094c0.49878,-0.06923 1.00749,-0.09999 1.5262,-0.09235c0.07173,0.00174 0.17679,-0.00532 0.23359,-0.06128c0.24704,-0.14688 0.49403,-0.29378 0.6629,-0.60492zM359.43723,182.33582c0.46539,-0.06049 0.92407,-0.07812 1.37105,-0.07218c0.1434,0.00339 0.25524,-0.04641 0.37376,-0.13909c0.17527,-0.14861 0.30731,-0.32691 0.45599,-0.50959c0.05679,-0.05594 0.13022,-0.11623 0.06698,-0.22284c-0.30853,-0.02171 -0.60538,-0.06703 -0.90391,-0.05033c-0.61608,0.51054 -0.61608,0.51052 -1.41189,0.73977c-0.03513,0.07079 -0.03187,0.15206 0.04806,0.25425zM359.01044,187.49722c-0.32023,0.00187 -0.63552,0.02296 -0.95076,0.04406c-0.07174,-0.00174 -0.14342,-0.00341 -0.20518,0.03329c-0.23208,0.20453 -0.46914,0.38991 -0.6263,0.67742c0.25995,0.17814 0.52516,0.17017 0.78863,0.22423c0.13169,0.02704 0.22685,-0.01847 0.32871,-0.10675c0.22711,-0.22376 0.4642,-0.40912 0.7229,-0.57955c0.01668,-0.00438 0.02342,-0.04716 0.04681,-0.09435c-0.03161,-0.05328 -0.06824,-0.12584 -0.10484,-0.1983zM363.30118,186.65924c-0.33169,-0.17986 -0.61182,-0.22956 -0.89693,-0.29845c-0.11006,-0.0122 -0.18848,0.0289 -0.26694,0.07001c-0.37054,0.22036 -0.75605,0.383 -1.17813,0.47318c-0.05005,0.01312 -0.09513,0.04544 -0.14515,0.05859c0.03808,0.2158 0.06472,0.24988 0.19819,0.21486c0.43382,-0.11378 0.87579,-0.12704 1.30931,-0.03548c0.26345,0.05407 0.45868,-0.01766 0.65069,-0.17064c0.0969,-0.10753 0.18208,-0.19142 0.32898,-0.31205zM360.00811,184.60821c0.02492,0.09609 0.09665,0.09778 0.16337,0.0803c0.46714,-0.12249 0.95744,-0.08691 1.44779,-0.05126c0.39692,0.01906 0.76073,-0.15847 1.05308,-0.54302c-0.18501,-0.09515 -0.35684,-0.07063 -0.53189,-0.12736c-0.36679,-0.10907 -0.68376,-0.02592 -0.99755,0.13846c-0.34711,0.17314 -0.6893,0.36551 -1.06629,0.42334c-0.04506,0.03237 -0.05682,0.05595 -0.06849,0.07955zM362.93597,185.3183c-0.23007,-0.06282 -0.38845,-0.12396 -0.54184,-0.16581c-0.25176,-0.07763 -0.45693,-0.04437 -0.6706,0.09374c-0.28713,0.19845 -0.61085,0.32441 -0.93951,0.43117c-0.11184,0.04986 -0.24529,0.08485 -0.36204,0.11548c0.00819,0.10048 0.0632,0.10655 0.09659,0.09781c0.50874,-0.03082 1.02243,-0.04235 1.53941,0.02736c0.08839,-0.00266 0.16013,-0.00095 0.23855,-0.04204c0.20868,-0.15735 0.42235,-0.29549 0.63947,-0.55768zM359.49095,188.66434c-0.29708,0.16002 -0.61232,0.18108 -0.92261,0.22142c-0.08342,0.02188 -0.16511,-0.01829 -0.23854,0.04203c-0.11855,0.0927 -0.32573,0.39334 -0.42113,0.64414c0.20172,0.09081 0.41185,0.07672 0.61531,0.1055c0.16511,0.01828 0.29359,-0.03593 0.40216,-0.16705c0.19375,-0.21499 0.39745,-0.39158 0.64944,-0.51926c0.01671,-0.00436 0.04008,-0.0516 0.05179,-0.07515c-0.00324,-0.08128 -0.02315,-0.15813 -0.13647,-0.25157zM356.68692,182.37977c-0.20367,0.17659 -0.49233,0.23173 -0.6644,0.4616c0.05155,0.13017 0.14991,0.16598 0.23655,0.22535c0.16835,0.09953 0.30825,0.22703 0.51667,0.27502c0.27045,-0.19406 0.6141,-0.24315 0.90617,-0.42239c0.02514,-0.10921 0.00028,-0.20533 -0.05801,-0.29267c-0.31352,-0.04091 -0.62031,-0.12469 -0.93703,-0.24689zM358.26771,185.24938c-0.1768,0.00532 -0.3536,0.01061 -0.49526,-0.05485c-0.34336,-0.15627 -0.62203,-0.06263 -0.8658,0.16551c-0.08515,0.08389 -0.18528,0.11015 -0.25553,0.25175c0.21666,0.14845 0.43503,0.23487 0.65341,0.32124c0.06002,0.02533 0.12674,0.00778 0.20518,-0.03329c0.23035,-0.14255 0.44896,-0.26146 0.6793,-0.40393c0.05006,-0.0131 0.10684,-0.06909 0.0787,-0.24646zM357.95402,184.03853c-0.38697,0.01939 -0.75052,-0.00847 -1.0822,-0.18831c-0.06497,-0.04452 -0.12674,-0.00779 -0.19346,0.00973c-0.14518,0.0586 -0.28539,0.13642 -0.40564,0.29111c0.3033,0.20784 0.5817,0.31955 0.87676,0.42689c0.09836,0.03578 0.18673,0.03315 0.28188,-0.01235c0.17358,-0.08651 0.35213,-0.15394 0.52569,-0.2405c0.01671,-0.00436 0.04011,-0.05159 0.0518,-0.07516c-0.01494,-0.05765 -0.02987,-0.11533 -0.05478,-0.21141zM362.86208,188.33445c0.1469,-0.12063 0.31056,-0.24563 0.45749,-0.36628c0.0117,-0.02356 0.02343,-0.04721 0.0468,-0.09438c-0.20493,-0.17207 -0.43504,-0.23488 -0.63845,-0.26366c-0.48235,0.2702 -0.93131,0.53162 -1.4986,0.68039c0.33665,0.19908 0.56872,-0.00549 0.80055,-0.00471c0.28189,-0.01236 0.55703,0.01811 0.83218,0.04857zM362.58595,182.45419c0.15041,-0.2447 0.31077,-0.45103 0.35785,-0.7507c-0.1367,-0.04626 -0.24503,-0.12048 -0.36008,-0.15187c-0.11504,-0.03138 -0.23505,-0.08201 -0.35185,-0.05136c-0.13519,0.09705 -0.20046,0.25786 -0.29234,0.38456c-0.09186,0.12676 -0.21044,0.21939 -0.25403,0.39502c0.30182,0.06451 0.58192,0.11424 0.90043,0.17441zM359.08519,181.11447c0.52041,-0.05438 0.95249,-0.10615 1.38449,-0.15785c0.03337,-0.00875 0.08842,-0.00263 0.11182,-0.04984c0.14866,-0.18268 0.34067,-0.33568 0.39271,-0.61613c-0.25349,-0.01564 -0.49032,-0.03563 -0.72217,-0.03641c-0.31901,0.3505 -0.70122,0.59443 -1.16691,0.86026zM356.96306,186.88472c0.16161,0.14236 0.33839,0.13703 0.49177,0.17892c0.17505,0.05673 0.33514,0.0558 0.49876,-0.06923c0.22535,-0.16172 0.45074,-0.32347 0.72768,-0.35505c-0.00149,-0.14332 -0.03809,-0.21581 -0.13819,-0.18955c-0.25522,0.04643 -0.52716,0.09719 -0.77393,0.03876c-0.35683,-0.07062 -0.56733,0.14876 -0.80611,0.39617zM356.8372,184.88567c-0.34837,-0.17549 -0.62003,-0.33 -0.8867,-0.46534c-0.11678,0.03062 -0.16861,0.10577 -0.22534,0.16172c-0.0518,0.07516 -0.14192,0.13985 -0.14046,0.28313c0.18828,0.17645 0.40487,0.32487 0.63319,0.44976c0.20194,-0.11453 0.38224,-0.24395 0.61931,-0.42925zM356.80142,188.11761c0.20545,-0.23859 0.3825,-0.44927 0.57623,-0.66426c-0.25174,-0.07765 -0.48684,-0.1597 -0.72187,-0.24175c-0.18203,0.19141 -0.35738,0.34003 -0.44773,0.61003c0.19495,0.1336 0.39169,0.20517 0.59338,0.29597zM363.35888,183.23679c-0.15985,-0.2044 -0.39169,-0.20517 -0.5884,-0.27677c-0.06002,-0.02533 -0.13843,0.01576 -0.17854,0.06737c-0.13698,0.15907 -0.26224,0.29455 -0.38256,0.44923c-0.01668,0.00438 -0.0067,0.04284 0.00323,0.08129c0.26842,0.07332 0.54855,0.12292 0.81698,0.19626c0.14193,-0.13983 0.23557,-0.32862 0.32919,-0.5174zM363.60352,186.31327c0.16361,-0.12502 0.31052,-0.24563 0.37257,-0.48768c-0.19,-0.11438 -0.38995,-0.26723 -0.61506,-0.31082c-0.10185,0.08827 -0.21366,0.13813 -0.29385,0.24126c-0.08514,0.08387 -0.22364,0.09966 -0.22885,0.28581c0.25673,0.09689 0.51343,0.19374 0.76522,0.27145zM357.02423,188.6338c-0.13024,0.11625 -0.16883,0.31113 -0.22413,0.51035c0.24002,0.1013 0.44001,0.25405 0.69348,0.26973c0.09365,-0.18878 0.25225,-0.33299 0.33096,-0.57944c-0.26842,-0.07332 -0.53189,-0.12738 -0.80032,-0.20065zM360.06659,189.78599c-0.30529,0.05954 -0.60734,0.20037 -0.92261,0.22143c-0.26022,0.02719 -0.3588,0.19676 -0.43254,0.4624c0.21835,0.08639 0.41186,0.07672 0.627,0.08186c0.20219,-0.31987 0.49431,-0.49915 0.72815,-0.76571zM359.03994,179.9769c0.03658,0.07251 0.08663,0.05935 0.1367,0.04626c0.22186,-0.03766 0.45546,-0.09892 0.68231,-0.11735c0.33691,-0.00627 0.45394,-0.24223 0.57275,-0.54023c-0.12678,-0.00782 -0.22013,-0.02435 -0.30851,-0.02172c-0.21515,-0.00512 -0.40362,0.02375 -0.54237,0.24488c-0.09186,0.12676 -0.23211,0.20454 -0.35562,0.27804c-0.07174,-0.00174 -0.16508,-0.01828 -0.18527,0.11014zM356.05743,181.60069c0.09163,0.0786 0.17332,0.11878 0.23829,0.1633c0.18324,0.15719 0.34838,0.17549 0.53864,0.08451c0.15688,-0.08216 0.34539,-0.11109 0.50725,-0.17408c0.05007,-0.0131 0.10509,-0.00703 0.08692,-0.14596c-0.25848,-0.03488 -0.52693,-0.10813 -0.78863,-0.22425c-0.06002,-0.02533 -0.14339,-0.00342 -0.21013,0.01405c-0.12349,0.07344 -0.23037,0.14252 -0.37228,0.28239zM356.538,186.68824c0.1469,-0.12062 0.3155,-0.22641 0.43079,-0.40039c-0.23333,-0.14406 -0.43824,-0.31609 -0.68999,-0.3938c-0.13696,0.15908 -0.28886,0.26048 -0.3342,0.49818c0.19001,0.1144 0.36829,0.25241 0.59339,0.29595zM362.57638,184.75565c0.23331,0.14404 0.46341,0.20687 0.68352,0.23123c0.13698,-0.15907 0.2622,-0.29456 0.36755,-0.50694c-0.13994,-0.12752 -0.29833,-0.1886 -0.46838,-0.22612c-0.18699,0.17221 -0.37901,0.32522 -0.58271,0.50177zM355.32741,185.17889c-0.08693,0.14599 -0.15539,0.22547 -0.19721,0.33909c-0.0351,0.07079 -0.05355,0.13718 -0.07197,0.20362c0.13321,0.17031 0.29481,0.31268 0.49153,0.38427c0.14193,-0.13983 0.28385,-0.27971 0.35086,-0.50258c-0.19495,-0.1336 -0.35658,-0.27595 -0.57319,-0.4244zM357.3379,180.62854c-0.25501,-0.15888 -0.42827,-0.27767 -0.63993,-0.40693c-0.07173,-0.00174 -0.18351,0.0481 -0.26869,0.13203c-0.09014,0.06469 -0.21688,0.05688 -0.27045,0.19409c0.09487,0.15986 0.20817,0.25329 0.34985,0.31878c0.26196,-0.08925 0.51225,-0.15483 0.82922,-0.23796zM363.30893,181.87469c-0.05851,0.11801 -0.11706,0.236 -0.1756,0.35395c-0.05851,0.11803 -0.10036,0.23161 -0.15888,0.34957c0.21835,0.08642 0.38671,0.18598 0.58018,0.17629c0.08515,-0.08389 0.08864,-0.20799 0.11383,-0.31719c0.02514,-0.10921 0.10034,-0.23159 0.04881,-0.36173c-0.1467,-0.0847 -0.25995,-0.17813 -0.40839,-0.2008zM355.83974,187.5693c0.12698,-0.19751 0.30234,-0.34613 0.37602,-0.61182c-0.16835,-0.09951 -0.33167,-0.17984 -0.50002,-0.2794c-0.12698,0.19751 -0.24731,0.35222 -0.27094,0.60476c0.11828,0.11265 0.20319,0.2341 0.39494,0.28644zM361.13353,180.90568c0.33019,0.03659 0.62202,0.06267 0.91382,0.08875c0.08022,-0.10314 0.16539,-0.18705 0.16387,-0.33034c-0.23831,-0.16331 -0.49676,-0.19813 -0.76022,-0.25219c-0.08022,0.10314 -0.16039,0.20626 -0.21892,0.32423c-0.06178,0.03672 -0.06846,0.07952 -0.09862,0.16953zM355.82104,183.92062c0.15364,-0.16349 0.35387,-0.21596 0.4475,-0.40474c-0.22162,-0.16765 -0.42157,-0.32048 -0.66165,-0.42177c-0.08194,0.16521 -0.24877,0.20891 -0.29908,0.42739c0.13321,0.1703 0.31327,0.24629 0.5132,0.39912zM364.14455,187.0949c-0.13497,-0.1083 -0.28163,-0.19297 -0.43505,-0.23486c-0.17032,0.16785 -0.34563,0.31643 -0.54932,0.49303c0.21338,0.06717 0.37673,0.14751 0.58343,0.25754c0.17033,-0.16785 0.32898,-0.31206 0.40096,-0.5157zM355.71529,181.79307c-0.19699,0.13374 -0.36555,0.23956 -0.44926,0.46676c0.12326,0.13188 0.22482,0.24893 0.37823,0.29082c0.18031,-0.12937 0.36552,-0.23956 0.57422,-0.39692c-0.16161,-0.14236 -0.31825,-0.2655 -0.50323,-0.36065zM363.65658,185.21133c0.23506,0.08204 0.38998,0.26722 0.58346,0.25751c0.13698,-0.15907 0.19723,-0.3391 0.23585,-0.53398c-0.15663,-0.12312 -0.29655,-0.25065 -0.49502,-0.26022c-0.09863,0.16954 -0.20218,0.31989 -0.32424,0.53662zM356.4251,188.93471c0.08194,-0.16519 0.17381,-0.2919 0.19573,-0.48241c-0.21835,-0.08639 -0.38995,-0.26722 -0.62677,-0.28723c-0.08692,0.14597 -0.12378,0.2788 -0.09565,0.45616c0.1733,0.11875 0.35829,0.21393 0.52663,0.31344zM361.20483,179.94285c0.10362,-0.15033 0.1454,-0.26391 0.16067,-0.41162c-0.16835,-0.09953 -0.36506,-0.17114 -0.56524,-0.11858c-0.07023,0.14158 -0.14045,0.28312 -0.22739,0.42909c0.22337,0.10566 0.42853,0.07237 0.632,0.10109zM359.05738,191.32348c0.05355,-0.13716 0.09538,-0.25082 0.08221,-0.37048c-0.19668,-0.07158 -0.38346,-0.10465 -0.57695,-0.09499c-0.07522,0.1223 -0.11705,0.23595 -0.11556,0.37924c0.20172,0.09081 0.40688,0.05749 0.61032,0.08622zM354.93594,186.14373c-0.17032,0.16781 -0.14717,0.32597 -0.08569,0.49458c0.03484,0.13454 0.10308,0.26035 0.25149,0.283c0.10362,-0.15033 0.19052,-0.29626 0.22913,-0.49114c-0.13497,-0.1083 -0.26496,-0.19736 -0.39492,-0.28643zM363.07944,189.24213c0.13521,-0.09704 0.26867,-0.13204 0.31724,-0.28844c-0.38323,-0.31002 -0.67534,-0.13083 -0.97587,0.1533c0.22509,0.04361 0.43356,0.09158 0.65863,0.13516zM354.85654,184.25559c0.11153,0.15551 0.22483,0.24891 0.40487,0.32487c0.04854,-0.15642 0.21041,-0.21944 0.2373,-0.39068c-0.04655,-0.11099 -0.12324,-0.13188 -0.19321,-0.19566c-0.08663,-0.05935 -0.14492,-0.14674 -0.2617,-0.11613c-0.08022,0.10314 -0.1604,0.20629 -0.18729,0.37756zM360.18935,185.03275c-0.04534,0.23766 0.01791,0.34426 0.17303,0.32408c0.22187,-0.03765 0.43378,-0.11375 0.62903,-0.18549c0.06672,-0.01747 0.14517,-0.05864 0.14865,-0.18269c-0.32522,-0.01734 -0.64043,0.00376 -0.95072,0.04406zM356.67556,190.03902c-0.09014,0.06467 -0.12028,0.15471 -0.1071,0.27442c0.19996,0.15284 0.39319,0.3485 0.65663,0.40257c0.04034,-0.2569 -0.03781,-0.42117 -0.23951,-0.51194c-0.08665,-0.05936 -0.16661,-0.16161 -0.31003,-0.16503zM361.02346,187.56454c0.06969,0.26906 0.11806,0.31797 0.26817,0.27863c0.2286,-0.08049 0.47388,-0.16532 0.68255,-0.3227c-0.34016,-0.07501 -0.65864,-0.13516 -0.95073,0.04406zM360.08032,190.87043c-0.13842,0.01578 -0.25526,0.04645 -0.377,0.05782c-0.23858,0.042 -0.23856,0.04203 -0.23239,0.40991c0.12678,0.00782 0.27518,0.03048 0.34686,0.03218c0.09367,-0.18878 0.18056,-0.33472 0.26248,-0.4999zM364.7172,184.00959c-0.11331,-0.09348 -0.1915,-0.25767 -0.37502,-0.20956c-0.05355,0.13718 -0.08544,0.28925 -0.15067,0.45003c0.13498,0.10832 0.25819,0.24021 0.40662,0.26284c0.04852,-0.15646 0.11881,-0.29802 0.11907,-0.50334zM358.45846,190.04352c-0.24176,-0.03917 -0.48855,-0.09768 -0.73034,-0.13687c-0.07343,0.06033 -0.12525,0.13545 -0.06202,0.242c0.19495,0.1336 0.41337,0.22004 0.64519,0.22081c0.08022,-0.10314 0.12698,-0.19753 0.14715,-0.326zM364.08699,187.76692c0.05155,0.13017 0.14316,0.20882 0.26321,0.25941c0.05679,-0.05594 0.11354,-0.11189 0.17031,-0.16786c0.06848,-0.0795 0.14192,-0.13987 0.1454,-0.26394c-0.02987,-0.11531 -0.08809,-0.20269 -0.19147,-0.25768c-0.12526,0.13551 -0.26221,0.29461 -0.38748,0.43002zM363.43976,183.89299c0.13498,0.10832 0.2717,0.15456 0.42008,0.17721c0.06027,-0.17999 0.1255,-0.34082 0.17407,-0.4972c-0.08993,-0.14064 -0.20991,-0.19127 -0.31501,-0.18425c-0.09862,0.16951 -0.19723,0.33909 -0.27922,0.50424zM363.76895,188.67128c0.08515,-0.08389 0.17032,-0.1678 0.25054,-0.27094c0.01169,-0.02356 0.00174,-0.06206 0.00846,-0.1049c-0.06996,-0.06377 -0.13322,-0.17033 -0.28163,-0.19299c-0.11855,0.09271 -0.27538,0.17491 -0.37402,0.34443c0.12326,0.13185 0.24329,0.18246 0.39666,0.22438zM362.59811,190.0664c0.18849,-0.02893 0.27667,0.17377 0.44348,0.13001c0.11353,-0.11188 0.25873,-0.17046 0.35236,-0.35925c-0.11828,-0.11265 -0.2316,-0.20612 -0.36678,-0.10905c-0.13521,0.09704 -0.29032,0.11719 -0.42905,0.3383zM357.66511,190.97007c0.13671,0.04624 0.2784,0.1117 0.39838,0.16235c0.02167,0.01485 0.05007,-0.01311 0.08342,-0.02189c0.00846,-0.10487 0.06701,-0.22284 -0.02791,-0.38267c-0.15837,-0.06106 -0.3334,-0.11785 -0.51348,-0.19378c-0.03189,0.15204 -0.01868,0.27176 0.05948,0.43599zM364.15795,183.08887c0.07024,-0.14156 0.15715,-0.28754 0.21565,-0.40549c-0.09485,-0.15986 -0.20816,-0.25333 -0.31649,-0.32752c-0.11183,0.04987 -0.0936,0.18876 -0.12377,0.27879c-0.03012,0.09005 -0.07694,0.18439 -0.0254,0.31459c0.05329,0.06812 0.12327,0.1319 0.25002,0.13972zM354.99387,182.51593c-0.09186,0.12676 -0.15542,0.2255 -0.21891,0.32425c-0.02842,0.02796 -0.03016,0.09002 -0.04185,0.11362c0.03484,0.13454 0.12649,0.21318 0.24652,0.26377c0.10856,-0.13113 0.22212,-0.24302 0.30409,-0.40811c-0.07994,-0.10218 -0.17157,-0.1808 -0.28983,-0.29347zM360.2314,191.38489c0.23682,0.02002 0.4736,0.03999 0.69226,-0.0789c-0.09486,-0.15986 -0.1514,-0.30928 -0.30974,-0.37036c-0.25873,0.17046 -0.25874,0.17048 -0.38251,0.44924zM354.7076,184.64352c-0.23239,0.40991 -0.22736,0.42908 0.02915,0.73132c0.08693,-0.14599 0.15214,-0.30673 0.2391,-0.45269c-0.05155,-0.13017 -0.14317,-0.20875 -0.26816,-0.27864zM364.40853,186.73839c0.10855,-0.1311 0.18378,-0.25347 0.21069,-0.42475c-0.02665,-0.03407 -0.07496,-0.083 -0.12327,-0.13191c-0.04333,-0.0297 -0.10336,-0.05501 -0.14663,-0.08469c-0.10855,0.13112 -0.2388,0.24741 -0.28239,0.42304c0.07992,0.10217 0.20493,0.17207 0.34164,0.21827zM355.47924,181.15703c0.04831,0.04889 0.11829,0.11264 0.17332,0.11878c0.19847,0.00955 0.3553,-0.07268 0.50401,-0.25536c-0.0966,-0.09783 -0.16981,-0.24282 -0.28489,-0.27424c-0.1469,0.12062 -0.32546,0.18799 -0.39245,0.41083zM362.36018,180.27607c0.0117,-0.02356 0.0234,-0.04719 0.0468,-0.09438c-0.19824,-0.21488 -0.43154,-0.35895 -0.66484,-0.50299c-0.10184,0.08828 -0.13196,0.1783 -0.10883,0.33641c0.23506,0.08204 0.47509,0.18325 0.72686,0.26096zM361.40694,186.29391c-0.28015,-0.0497 -0.54854,-0.12296 -0.82721,-0.02936c-0.01671,0.00436 -0.03011,0.09002 -0.02016,0.12844c0.02493,0.09609 0.11157,0.15548 0.19497,0.13357c0.23183,0.00079 0.43878,-0.09455 0.65239,-0.23266zM364.82816,185.95094c0.07525,-0.12233 0.15043,-0.24471 0.18231,-0.39676c-0.03484,-0.13454 -0.09311,-0.22191 -0.23477,-0.28738c-0.06524,0.16081 -0.14721,0.32597 -0.19577,0.48239c0.06322,0.10654 0.13321,0.1703 0.24824,0.20173zM355.19756,187.63513c0.05303,0.27346 0.09606,0.50849 0.27261,0.7085c0.1352,-0.09704 0.16711,-0.24908 0.17733,-0.41598c-0.13995,-0.1275 -0.25821,-0.24017 -0.44998,-0.29251zM356.70197,179.68693c0.14492,0.14675 0.16653,0.1616 0.21663,0.14849c0.17179,-0.02451 0.2971,-0.16001 0.40566,-0.29111c0.04007,-0.05154 0.03185,-0.15206 -0.08318,-0.18346c-0.12029,0.1547 -0.35712,0.1347 -0.53912,0.32615zM362.44256,181.0755c0.24002,0.1013 0.4684,0.22611 0.75698,0.17092c-0.1865,-0.23841 -0.42158,-0.32051 -0.62326,-0.41126c-0.07846,0.04106 -0.09684,0.1075 -0.13371,0.24034zM354.75574,183.52251c-0.07495,-0.08297 -0.13323,-0.17031 -0.20816,-0.25329c-0.12528,0.13549 -0.21218,0.28144 -0.10734,0.47973c0.03161,0.05331 0.06323,0.10653 0.13497,0.1083c0.09014,-0.06469 0.132,-0.17831 0.18054,-0.33472zM361.52388,188.80861c0.04485,0.17298 0.09807,0.2411 0.22656,0.18688c0.11184,-0.04986 0.22362,-0.0997 0.33045,-0.16878c0.04504,-0.03238 0.08519,-0.08392 0.04857,-0.15643c-0.21515,-0.00515 -0.39866,0.04298 -0.60559,0.13831zM359.9654,181.41728c-0.23684,-0.02002 -0.46366,-0.00154 -0.66561,0.11298c-0.01671,0.00438 -0.03011,0.09001 -0.02514,0.1092c0.00996,0.03842 0.06997,0.06375 0.10336,0.055c0.21191,-0.07609 0.42209,-0.09017 0.58747,-0.27725zM359.15917,180.64355c0.1519,-0.10142 0.33546,-0.14955 0.48911,-0.31297c-0.24177,-0.0392 -0.43527,-0.02953 -0.52043,0.0544c-0.09014,0.06469 -0.07025,0.14157 0.03134,0.2586zM355.88077,189.44696c0.10982,0.21752 0.17956,0.48663 0.4146,0.56865c0.04381,-0.38095 -0.19123,-0.46298 -0.4146,-0.56865zM358.84749,188.38149c0.00996,0.03841 0.03164,0.05334 0.04158,0.09175c0.16183,-0.06297 0.33192,-0.02549 0.45717,-0.16098c-0.01317,-0.11969 -0.04481,-0.17298 -0.14317,-0.20876c-0.10184,0.08828 -0.22038,0.18094 -0.3556,0.27804zM360.53108,183.87578c-0.24851,0.0036 -0.442,0.01331 -0.63724,0.08502c-0.03337,0.00875 -0.05678,0.05594 -0.04184,0.1136c0.00499,0.01924 0.03162,0.05328 0.05329,0.06812c0.23682,0.02002 0.437,-0.0325 0.62576,-0.26675zM355.36368,181.5363c-0.06324,-0.10655 -0.11152,-0.15547 -0.15164,-0.1039c-0.10184,0.08828 -0.19872,0.19582 -0.29559,0.30332c-0.0518,0.07515 -0.03686,0.1328 0.04481,0.17297c0.1686,-0.10576 0.30382,-0.20284 0.40243,-0.37238zM364.91463,184.84041c0.06996,0.06377 0.12328,0.1319 0.19323,0.19566c0.02164,0.01486 0.05503,0.00607 0.11006,0.0122c-0.05972,-0.23062 -0.06447,-0.45517 -0.19592,-0.68755c-0.06524,0.16081 -0.10709,0.27441 -0.10733,0.47974zM357.77477,183.34652c-0.16188,0.06297 -0.30706,0.12159 -0.50229,0.1933c0.21666,0.14845 0.38172,0.16675 0.54358,0.10375c0.02515,-0.10922 0.02691,-0.17126 -0.0413,-0.29708zM359.75537,189.27233c-0.0969,0.10753 -0.29033,0.11719 -0.33569,0.35486c0.41534,-0.04738 0.49875,-0.06924 0.50726,-0.17412c-0.02493,-0.09609 -0.07321,-0.14503 -0.17157,-0.18081zM360.19891,182.73129c-0.31,-0.16504 -0.51019,-0.11248 -0.74057,0.03001c0.26993,0.21658 0.46365,0.00154 0.74057,-0.03001zM362.60037,189.59363c-0.28836,-0.15019 -0.4719,-0.10204 -0.66213,-0.01109c-0.01668,0.00438 -0.02341,0.04719 -0.01345,0.08562c0.01492,0.05767 0.05827,0.08735 0.09162,0.07858c0.17181,-0.0245 0.33365,-0.08749 0.58391,-0.15313zM360.24465,190.12939c-0.13521,0.09704 -0.29708,0.16003 -0.36404,0.38281c0.18179,0.0139 0.32696,-0.04471 0.45545,-0.09891c0.02017,-0.12845 -0.01641,-0.20092 -0.09139,-0.28393zM363.62107,189.61336c0.11531,-0.17393 0.29884,-0.22207 0.31577,-0.43178c-0.24851,0.0036 -0.24851,0.0036 -0.42732,0.27626c0.02665,0.03407 0.05329,0.06812 0.11155,0.15549zM356.74637,189.48684c0.11978,0.25596 0.30478,0.35113 0.50149,0.42269c0.08515,-0.08389 0.06524,-0.16081 0.00027,-0.20533c-0.15838,-0.06106 -0.32173,-0.14141 -0.50175,-0.21733zM364.70015,186.96983c0.04656,0.11099 0.08814,0.20268 0.20316,0.23406c0.0635,-0.09876 0.12705,-0.19751 0.11382,-0.31717c-0.04157,-0.09174 -0.08991,-0.14064 -0.16662,-0.16159c-0.07345,0.06033 -0.10858,0.13112 -0.15039,0.24473zM358.11154,186.09092c0.14839,0.02266 0.25852,0.03487 0.34864,-0.02985c0.02842,-0.02796 0.03512,-0.07079 0.04183,-0.11362c-0.01492,-0.05767 -0.06822,-0.12582 -0.11327,-0.09347c-0.10014,0.02626 -0.21691,0.05687 -0.27719,0.23693zM364.77625,183.48093c0.00523,-0.18613 -0.11803,-0.318 -0.19126,-0.46301c-0.15716,0.28753 -0.14714,0.32598 0.19126,0.46301zM358.89704,179.56283c0.27017,0.01125 0.27017,0.01126 0.32548,-0.188c-0.11006,-0.0122 -0.23683,-0.01999 -0.32548,0.188zM358.86576,187.14512c0.03012,-0.09005 0.0152,-0.14769 -0.02315,-0.15815c-0.15838,-0.06106 -0.20345,-0.02875 -0.30879,0.18364c0.13169,0.02706 0.23185,0.00081 0.33195,-0.02547zM362.676,190.43591c-0.10833,-0.07421 -0.21168,-0.12921 -0.31846,-0.06017c0.12974,0.29437 0.16802,0.30487 0.31846,0.06017zM359.37637,179.00606c-0.1467,-0.0847 -0.28511,-0.06895 -0.40685,-0.05752c-0.06673,0.01748 -0.10187,0.08831 -0.00524,0.18614c0.12175,-0.01143 0.26024,-0.02719 0.41211,-0.1286zM364.35944,188.68073c-0.1768,0.00532 -0.24531,0.08482 -0.23883,0.24738c0,0 0.02665,0.03407 0.04333,0.02968c0.10509,-0.00707 0.14195,-0.13983 0.19552,-0.27707zM357.91139,184.76808c0.06324,0.10655 0.13996,0.12753 0.2017,0.09079c0.03337,-0.00875 0.05678,-0.05596 0.06351,-0.09876c0.00671,-0.04283 -0.04156,-0.09171 -0.07494,-0.08293c-0.05504,-0.00609 -0.12175,0.01141 -0.19025,0.09094zM365.12151,186.12044c-0.09689,0.10752 -0.12703,0.19751 -0.02042,0.33378c0.10855,-0.13112 0.12203,-0.21673 0.02042,-0.33378z" fill="url(#color-11)"/><path d="M351.97896,186.07763c0.14265,0.61943 0.28528,1.23891 0.44465,1.85396c0.17926,0.69196 0.42525,1.36638 0.74969,1.99973c0.10483,0.19829 0.23302,0.34938 0.35951,0.56253c-0.26697,0.07002 -0.49552,0.15051 -0.73407,0.19252c-1.42137,0.29065 -2.83453,0.68177 -4.26263,1.01526c-1.27796,0.29407 -2.53422,0.60306 -3.8072,0.91637c-0.87255,0.20832 -1.72841,0.41222 -2.60096,0.62052c-0.82252,0.19517 -1.61832,0.42443 -2.44083,0.61963c-0.06674,0.0175 -0.13348,0.03501 -0.2052,0.03328c-0.25326,-0.22094 -0.41133,-0.48741 -0.56273,-0.79662c-0.23456,-0.49273 -0.44071,-1.01339 -0.56344,-1.55591c-0.04485,-0.17298 -0.10633,-0.34159 -0.0627,-0.51722c0.07819,0.16425 0.07794,0.36955 0.21611,0.55909c0.23208,-0.2045 0.53066,-0.22127 0.79264,-0.3105c0.01668,-0.00438 0.03335,-0.00874 0.02839,-0.02794c0.41063,-0.27189 0.89449,-0.39876 1.33675,-0.6174c0.15687,-0.08218 0.29882,-0.22208 0.4756,-0.22739c0.34365,-0.04904 0.61582,-0.3052 0.95949,-0.35428c0.01668,-0.00438 0.04508,-0.03236 0.07845,-0.04109c0.30201,-0.14079 0.58246,-0.29641 0.89445,-0.39879c0.36705,-0.09625 0.66092,-0.33755 1.03789,-0.39537c0.18699,-0.17221 0.41388,-0.1906 0.64247,-0.27109c0.03337,-0.00875 0.05006,-0.01315 0.08341,-0.02186c0.29385,-0.24128 0.66412,-0.25629 0.97792,-0.42068c0.31376,-0.16439 0.67407,-0.21784 0.99281,-0.36302c0.36881,-0.15829 0.70593,-0.36991 1.12132,-0.41723c0.03337,-0.00875 0.08344,-0.02186 0.11182,-0.04985c0.15364,-0.16349 0.36879,-0.1583 0.56403,-0.23c0.10014,-0.02626 0.22184,-0.03765 0.312,-0.10235c0.13025,-0.11623 0.26869,-0.13203 0.41885,-0.17142c0.08342,-0.02188 0.17186,-0.02453 0.22858,-0.08048c0.18699,-0.17221 0.43052,-0.19503 0.64741,-0.25191c0.08342,-0.02188 0.1718,-0.02455 0.2286,-0.08047c0.15863,-0.14419 0.34713,-0.17316 0.53067,-0.22125c0.30033,-0.07879 0.56577,-0.29206 0.87104,-0.35159c0.05503,0.00608 0.09015,-0.06465 0.13521,-0.09704z" fill="#87d7dc"/><path d="M351.97892,186.07764c-0.04508,0.03235 -0.08018,0.10315 -0.13024,0.11627c-0.30529,0.05957 -0.57572,0.2536 -0.87106,0.35161c-0.18352,0.04811 -0.37204,0.07705 -0.53066,0.22125c-0.05679,0.05594 -0.14518,0.0586 -0.22856,0.0805c-0.21687,0.0569 -0.45545,0.09887 -0.64746,0.25186c-0.05679,0.05594 -0.15017,0.03939 -0.22858,0.08051c-0.15015,0.03939 -0.28365,0.07438 -0.41885,0.17142c-0.09014,0.06469 -0.21194,0.0761 -0.31204,0.10236c-0.19521,0.07173 -0.41037,0.06659 -0.56401,0.23002c-0.02842,0.02796 -0.07844,0.04109 -0.1118,0.04984c-0.39868,0.04297 -0.75256,0.25896 -1.12133,0.41725c-0.33547,0.14956 -0.69574,0.20298 -0.99284,0.36298c-0.31373,0.1644 -0.68403,0.17941 -0.97787,0.42068c-0.01172,0.02357 -0.05007,0.01311 -0.08345,0.02187c-0.21687,0.0569 -0.45544,0.09893 -0.64246,0.27113c-0.38199,0.03858 -0.67584,0.2799 -1.03791,0.39534c-0.317,0.08312 -0.5924,0.258 -0.89448,0.39876c-0.03337,0.00875 -0.04508,0.03239 -0.07844,0.04112c-0.34365,0.04904 -0.61581,0.30519 -0.95949,0.35428c-0.18848,0.02892 -0.31379,0.16439 -0.4756,0.22738c-0.44723,0.19938 -0.92609,0.34552 -1.33673,0.6174c-0.01668,0.00438 -0.02839,0.02801 -0.02839,0.02801c-0.26197,0.08925 -0.56056,0.10596 -0.79264,0.3105c-0.13321,-0.17031 -0.11626,-0.38004 -0.21611,-0.55912c-0.03984,-0.15375 -0.07963,-0.30753 -0.01437,-0.46836c0.10014,-0.02626 0.22186,-0.03766 0.31199,-0.10235c0.3155,-0.22641 0.67087,-0.29905 1.01128,-0.42941c0.34038,-0.13032 0.65589,-0.35678 1.03786,-0.39537c0.18699,-0.17221 0.41387,-0.19066 0.64247,-0.27113c0.03337,-0.00875 0.08342,-0.02188 0.11181,-0.04985c0.12526,-0.1355 0.30202,-0.14077 0.44726,-0.19939c0.08342,-0.02188 0.16684,-0.04378 0.2286,-0.08048c0.34215,-0.19237 0.70593,-0.36991 1.08971,-0.47054c0.05007,-0.0131 0.12178,-0.01138 0.14516,-0.05861c0.14192,-0.13982 0.31374,-0.16441 0.48059,-0.20817c0.18848,-0.02892 0.32049,-0.20723 0.52568,-0.24048c0.27194,-0.05079 0.49729,-0.21253 0.75427,-0.32099c0.35709,-0.13473 0.67758,-0.3419 1.06131,-0.44252c0.06674,-0.0175 0.15516,-0.02015 0.19525,-0.07174c0.11358,-0.11186 0.26867,-0.13206 0.41385,-0.19065c0.13347,-0.03499 0.26195,-0.08922 0.36883,-0.15827c0.19699,-0.13374 0.40389,-0.22909 0.63748,-0.29038c0.34537,-0.1111 0.66089,-0.33754 1.04284,-0.37615c0.03337,-0.00875 0.07845,-0.04107 0.11184,-0.04983c0.33547,-0.14956 0.66586,-0.31834 1.01124,-0.42938c0.36705,-0.09625 0.69427,-0.34631 1.07128,-0.40411c0.05007,-0.0131 0.09011,-0.06469 0.13521,-0.09704c0.20692,-0.09531 0.43553,-0.17579 0.66735,-0.17501c0.04156,0.09174 0.06151,0.16859 0.09809,0.24113c0.01965,0.28223 0.04603,0.5216 0.09409,0.77587z" fill="#b0eef2"/><path d="M362.28153,191.11412c-0.30201,0.14077 -0.54734,0.22563 -0.81752,0.21439c-0.17332,-0.11878 -0.27817,-0.31704 -0.39964,-0.51095c-0.5575,-0.98273 -1.0983,-1.96986 -1.51561,-3.03045c-0.31422,-0.80024 -0.63343,-1.6197 -0.86921,-2.46103c-0.05974,-0.23063 -0.10781,-0.4849 -0.21759,-0.70243c-0.04156,-0.09174 -0.07146,-0.20707 -0.10133,-0.32236c-0.05277,-0.47881 -0.20563,-0.93134 -0.30846,-1.39703c-0.15264,-0.65789 -0.23852,-1.3333 -0.29103,-2.0174c-0.01791,-0.34424 -0.0525,-0.68415 -0.0921,-1.04323c-0.0363,-0.27782 0.004,-0.53474 0.02768,-0.78727c0.26547,-0.2133 0.37726,-0.26315 0.78763,-0.32971c0.09288,0.42719 0.09734,0.85711 0.15681,1.29306c0.0545,0.41676 0.114,0.85271 0.1852,1.26513c0.07617,0.43158 0.17402,0.87809 0.26688,1.30528c0.07118,0.41236 0.24752,0.8177 0.26865,1.24326c0.19298,0.40099 0.25244,0.83695 0.37868,1.25545c0.12125,0.39925 0.26419,0.81335 0.40211,1.20825c0.14293,0.41411 0.30251,0.8238 0.46708,1.2528c0.15462,0.39052 0.29751,0.80462 0.46885,1.19076c0.17629,0.40533 0.38095,0.78273 0.57391,1.18373c0.19795,0.4202 0.36924,0.80632 0.62896,1.18981z" fill="url(#color-12)"/><path d="M351.87309,185.32536c-0.03658,-0.07251 -0.05654,-0.14941 -0.09811,-0.24111c-0.23184,-0.00076 -0.44869,0.05609 -0.66735,0.17501c-0.04509,0.03234 -0.08517,0.0839 -0.13521,0.09704c-0.377,0.0578 -0.70921,0.28865 -1.07128,0.40411c-0.35036,0.09188 -0.67582,0.27987 -1.01126,0.42936c-0.03337,0.00875 -0.07846,0.0411 -0.11181,0.04985c-0.382,0.03857 -0.67584,0.27983 -1.04288,0.37612c-0.21687,0.0569 -0.44051,0.15658 -0.63746,0.29038c-0.12349,0.07341 -0.252,0.12767 -0.36881,0.15829c-0.15015,0.03939 -0.2886,0.05517 -0.41386,0.19066c-0.04008,0.05155 -0.12851,0.05421 -0.19524,0.07172c-0.36705,0.09625 -0.7042,0.30785 -1.06129,0.44255c-0.257,0.10843 -0.48234,0.2702 -0.75427,0.32097c-0.18848,0.02892 -0.32048,0.20721 -0.52568,0.24049c-0.17181,0.02452 -0.36031,0.05345 -0.48063,0.20814c-0.04509,0.03234 -0.09512,0.04547 -0.14515,0.05861c-0.38371,0.10062 -0.73085,0.27373 -1.08969,0.47054c-0.07846,0.04106 -0.16681,0.04378 -0.22857,0.08047c-0.15015,0.03939 -0.32196,0.06397 -0.44722,0.19943c-0.02842,0.02796 -0.07844,0.0411 -0.11179,0.04985c-0.21687,0.0569 -0.45545,0.09891 -0.64245,0.27112c-0.38199,0.03859 -0.69751,0.26504 -1.03788,0.39537c-0.34038,0.13032 -0.7124,0.20735 -1.01124,0.42938c-0.09014,0.06467 -0.21193,0.07608 -0.31203,0.10236c-0.0615,-0.16863 0.00873,-0.31016 -0.00947,-0.44911c0.67582,-0.27988 1.31333,-0.57022 1.95577,-0.84135c0.70422,-0.30783 1.39673,-0.59209 2.10591,-0.88073c0.65917,-0.27551 1.31331,-0.57025 1.9675,-0.86494c0.81603,-0.35769 1.6104,-0.73024 2.40972,-1.08358c0.60911,-0.26239 1.2182,-0.5247 1.82231,-0.80634c0.94453,-0.41193 1.92566,-0.75135 2.86019,-1.20172c0.12847,-0.05423 0.24703,-0.1469 0.4121,-0.1286c0.04485,0.17298 0.03957,0.35909 0.05102,0.54084c-0.00846,0.10486 0.06972,0.26908 0.02614,0.44475z" fill="#87d7dc"/><path d="M337.97551,191.51552c0.13793,0.39488 0.20416,0.78806 0.35878,1.17854c0.18624,0.44382 0.38919,0.88319 0.69218,1.29636c-0.96768,0.25379 -1.91865,0.5032 -2.85296,0.74824c-0.23832,-0.16328 -0.36976,-0.39567 -0.51294,-0.60444c-0.26469,-0.40267 -0.41256,-0.83602 -0.56545,-1.28857c-0.00499,-0.01924 0.00175,-0.06203 0.01342,-0.08566c0.14491,0.14674 0.26342,0.05407 0.38696,-0.01939c0.30877,-0.18362 0.62253,-0.34801 0.96121,-0.41629c0.06674,-0.0175 0.13347,-0.03502 0.19521,-0.07174c0.28714,-0.19847 0.62576,-0.26675 0.92784,-0.40756c0.17358,-0.08651 0.29701,-0.16004 0.39567,-0.32957z" fill="#61afb4"/><path d="M354.01736,184.45511c0.07416,0.69897 0.26513,1.3673 0.38938,2.05314c0.06299,0.3119 0.17603,0.61069 0.28907,0.9095c0.18274,0.56788 0.30374,1.17243 0.55325,1.7228c0.09313,0.2219 0.18622,0.44379 0.29105,0.64212c0.06822,0.12583 0.11976,0.25593 0.15462,0.39052c-0.04504,0.03238 -0.07346,0.0603 -0.10686,0.06905c-0.13347,0.03498 -0.26692,0.07003 -0.40039,0.10505c-0.07496,-0.08295 -0.12822,-0.15111 -0.18651,-0.23844c-0.37945,-0.63941 -0.76391,-1.29809 -0.95813,-2.04774c-0.18601,-0.64914 -0.37694,-1.31744 -0.49623,-1.9841c-0.1011,-0.52775 -0.21884,-1.05106 -0.18148,-1.59455c0.05827,0.08732 0.0381,0.2158 0.15812,0.26641c0.19347,-0.0097 0.4253,-0.00891 0.49404,-0.29378z" fill="url(#color-13)"/><path d="M353.01906,185.20951c0.11802,0.31802 0.09757,0.65178 0.16554,0.98289c0.16257,0.69634 0.32513,1.39267 0.53778,2.07584c0.17776,0.54863 0.41732,1.06057 0.68522,1.54453c0.06822,0.12583 0.13643,0.25156 0.20466,0.37737c-0.23359,0.06126 -0.43378,0.11382 -0.65069,0.17066c-0.25995,-0.17814 -0.41805,-0.44463 -0.5478,-0.73898c-0.16137,-0.34767 -0.32765,-0.71459 -0.44393,-1.09463c-0.29078,-0.84743 -0.47653,-1.70189 -0.68394,-2.57121c-0.03984,-0.15375 -0.07968,-0.30754 -0.03112,-0.46396c0.08342,-0.02188 0.17181,-0.02457 0.22857,-0.0805c0.14693,-0.12064 0.35215,-0.15395 0.53562,-0.20206z" fill="url(#color-14)"/><path d="M337.97551,191.51553c-0.08693,0.14599 -0.20545,0.23859 -0.36731,0.30159c-0.30203,0.14079 -0.64075,0.20909 -0.92783,0.40755c-0.06177,0.03671 -0.1285,0.05425 -0.19525,0.07174c-0.35037,0.09191 -0.64743,0.2519 -0.9612,0.41628c-0.10685,0.06907 -0.24205,0.16613 -0.38697,0.01938c-0.09137,-0.28394 -0.12774,-0.56178 -0.10905,-0.83352c0.21866,-0.11895 0.43231,-0.25705 0.67584,-0.27988c0.03337,-0.00875 0.07844,-0.04109 0.11181,-0.04985c0.31872,-0.14516 0.65416,-0.29472 0.9779,-0.42068c0.14517,-0.0586 0.27865,-0.09357 0.41888,-0.17141c0.16859,-0.10576 0.36383,-0.17754 0.57225,-0.12957c0.04157,0.09174 0.06148,0.16861 0.09808,0.24111c0.03484,0.13454 0.05801,0.2927 0.09288,0.4272z" fill="#87d7dc"/><path d="M362.25524,182.82837c-0.17381,0.29193 -0.41581,0.45801 -0.66291,0.60493c-0.06176,0.03671 -0.16189,0.06296 -0.23358,0.06126c-0.52366,-0.02686 -1.02744,0.02313 -1.52618,0.09235c-0.01668,0.00438 -0.05501,-0.0061 -0.0767,-0.02092c-0.06996,-0.06377 -0.0949,-0.15985 -0.06974,-0.26908c0.03337,-0.00875 0.06175,-0.03676 0.09513,-0.04548c0.40538,-0.08575 0.79586,-0.22923 1.14474,-0.46441c0.18528,-0.11015 0.36881,-0.15829 0.59391,-0.11472c0.24677,0.05846 0.47859,0.05921 0.73535,0.15612z" fill="#cce5e6"/><path d="M359.43723,182.33582c-0.07994,-0.10218 -0.08317,-0.18344 -0.04808,-0.25425c0.79088,-0.24846 0.79086,-0.24847 1.41191,-0.73977c0.29362,-0.03595 0.61208,0.02421 0.90392,0.05035c0.06822,0.12583 -0.0269,0.17123 -0.067,0.22282c-0.14866,0.18268 -0.28067,0.36097 -0.45599,0.50958c-0.11855,0.0927 -0.23037,0.14248 -0.37375,0.13907c-0.44701,-0.00595 -0.90564,0.01173 -1.37105,0.07218z" fill="#cce5e6"/><path d="M337.87767,191.06909c-0.03658,-0.07251 -0.05651,-0.14943 -0.09808,-0.24111c-0.20843,-0.04798 -0.40364,0.02374 -0.57226,0.12956c-0.14021,0.07784 -0.27365,0.11283 -0.41888,0.17139c-0.32372,0.12597 -0.65914,0.2755 -0.97789,0.42066c-0.03337,0.00875 -0.07846,0.04111 -0.11182,0.04985c-0.25523,0.04641 -0.45221,0.18015 -0.67583,0.27983c-0.00649,-0.16249 -0.00793,-0.30583 0.05233,-0.48586c0.4522,-0.18017 0.91119,-0.40319 1.38506,-0.56852c0.4522,-0.18017 0.8845,-0.43723 1.38502,-0.56852c0.06297,0.31188 0.05602,0.56004 0.03238,0.81258z" fill="#60adb2"/><path d="M359.01044,187.49722c0.03658,0.07251 0.06821,0.12584 0.10482,0.1983c-0.02341,0.04721 -0.03514,0.07077 -0.04682,0.09436c-0.26371,0.15128 -0.49579,0.35585 -0.72289,0.57956c-0.10185,0.0883 -0.197,0.13378 -0.32871,0.10673c-0.25846,-0.03485 -0.52367,-0.02685 -0.78861,-0.22424c0.15716,-0.28751 0.38922,-0.49209 0.62631,-0.67738c0.04504,-0.03238 0.13347,-0.03497 0.20517,-0.03328c0.31521,-0.02112 0.63055,-0.0422 0.95076,-0.04406z" fill="#cce5e6"/><path d="M363.3012,186.65932c-0.14689,0.12064 -0.23211,0.20454 -0.33396,0.29282c-0.19201,0.15299 -0.38723,0.22472 -0.65069,0.17066c-0.44521,-0.06799 -0.89224,-0.07387 -1.30932,0.03549c-0.13347,0.03499 -0.15511,0.02015 -0.19822,-0.21488c0.05006,-0.01312 0.09511,-0.04549 0.1452,-0.05859c0.42208,-0.09017 0.80754,-0.25284 1.17809,-0.47317c0.09513,-0.04545 0.17357,-0.08654 0.26696,-0.07004c0.29011,0.08812 0.57022,0.13783 0.90189,0.31773z" fill="#cae2e3"/><path d="M360.0081,184.60819c0.0117,-0.02356 0.04012,-0.05162 0.05678,-0.05594c0.39366,-0.06219 0.74082,-0.23534 1.06631,-0.42333c0.31373,-0.1644 0.63078,-0.24755 0.99754,-0.13843c0.17505,0.05673 0.36354,0.02778 0.53187,0.12738c-0.27068,0.39942 -0.65119,0.5813 -1.05308,0.54301c-0.49032,-0.03562 -0.96889,-0.09485 -1.44778,0.05127c-0.05503,-0.00608 -0.12177,0.01138 -0.15166,-0.10392z" fill="#c9e1e2"/><path d="M362.93597,185.3183c-0.21715,0.2622 -0.43078,0.40034 -0.66114,0.54285c-0.07846,0.04106 -0.16186,0.06295 -0.23857,0.04204c-0.51198,-0.05047 -1.03065,-0.05812 -1.53937,-0.02735c-0.03337,0.00875 -0.08839,0.00268 -0.0966,-0.09782c0.11678,-0.03062 0.25024,-0.06561 0.36206,-0.11545c0.32869,-0.10671 0.65241,-0.23268 0.93952,-0.43117c0.21365,-0.13818 0.43552,-0.17579 0.67059,-0.09375c0.17505,0.05673 0.33344,0.11779 0.56354,0.18062z" fill="#c9e1e2"/><path d="M359.49095,188.66434c0.11331,0.09348 0.1382,0.18959 0.16309,0.28565c-0.01169,0.02356 -0.04009,0.0516 -0.05181,0.07514c-0.25699,0.10845 -0.47738,0.28941 -0.64942,0.51928c-0.10857,0.13109 -0.23706,0.18533 -0.40217,0.16704c-0.20342,-0.02873 -0.41859,-0.03388 -0.61531,-0.10545c0.09538,-0.25079 0.2976,-0.57073 0.42113,-0.64415c0.07345,-0.06033 0.15014,-0.0394 0.23857,-0.04202c0.27863,-0.09359 0.59889,-0.09551 0.89594,-0.25547z" fill="#cae3e4"/><path d="M356.68687,182.37978c0.31672,0.12217 0.61853,0.18678 0.93205,0.22769c0.06322,0.10654 0.08319,0.18348 0.05802,0.2927c-0.27538,0.17484 -0.63573,0.22827 -0.90617,0.42237c-0.20841,-0.04801 -0.34837,-0.17549 -0.51671,-0.27499c-0.08663,-0.05935 -0.18498,-0.09515 -0.23652,-0.22533c0.17707,-0.21065 0.44897,-0.26142 0.66936,-0.44238z" fill="#c8e0e1"/><path d="M358.26771,185.24938c0.02814,0.17734 -0.03364,0.21408 -0.09537,0.25082c-0.23036,0.14255 -0.44398,0.28063 -0.6793,0.40395c-0.06177,0.03674 -0.12849,0.05423 -0.20519,0.03331c-0.21835,-0.08642 -0.44171,-0.19206 -0.65338,-0.32127c0.07522,-0.1223 0.17035,-0.16785 0.25551,-0.25174c0.25549,-0.25171 0.53414,-0.34535 0.86582,-0.16551c0.16336,0.08033 0.34015,0.07502 0.51198,0.05047z" fill="#cbe4e5"/><path d="M357.95402,184.03853c0.02493,0.09609 0.03987,0.15375 0.0548,0.21141c-0.02842,0.02796 -0.03514,0.07078 -0.05179,0.07516c-0.17358,0.08651 -0.35213,0.15395 -0.52568,0.24051c-0.09515,0.04545 -0.18355,0.04811 -0.2819,0.01232c-0.29507,-0.10735 -0.57844,-0.23834 -0.87676,-0.42691c0.11529,-0.17395 0.26046,-0.2325 0.40564,-0.2911c0.06672,-0.01747 0.1335,-0.03499 0.19345,-0.00972c0.33169,0.17986 0.69524,0.20769 1.08222,0.18832z" fill="#c8e0e1"/><path d="M353.01908,185.20951c-0.18352,0.04811 -0.38874,0.0814 -0.54735,0.22568c-0.05679,0.05594 -0.14515,0.05855 -0.22857,0.08045c-0.10132,-0.32236 -0.13097,-0.64302 -0.08884,-0.96197c0.24355,-0.02281 0.45718,-0.16094 0.64742,-0.25189c0.11828,0.11265 0.10307,0.26033 0.16632,0.36689c0.0615,0.16863 0.09461,0.36521 0.05105,0.54084z" fill="#85d5d9"/><path d="M362.86208,188.33445c-0.27517,-0.03048 -0.55031,-0.06091 -0.83719,-0.06783c-0.24852,0.00359 -0.47561,0.22736 -0.80056,0.00466c0.56723,-0.14877 1.03293,-0.41461 1.4986,-0.68039c0.20841,0.04801 0.4385,0.11078 0.63844,0.26364c-0.02341,0.04721 -0.03512,0.07079 -0.0468,0.09436c-0.14191,0.13983 -0.28888,0.26053 -0.45244,0.3855z" fill="#c6dede"/><path d="M362.58595,182.45419c-0.31851,-0.06017 -0.59858,-0.10983 -0.91712,-0.16999c0.06027,-0.17999 0.17881,-0.27269 0.254,-0.39503c0.09186,-0.12676 0.15718,-0.28755 0.29237,-0.38457c0.11678,-0.03062 0.2368,0.01998 0.35183,0.05138c0.11503,0.0314 0.23504,0.08207 0.36007,0.15189c-0.03039,0.29533 -0.19079,0.5016 -0.3412,0.74633z" fill="#cae3e3"/><path d="M359.08519,181.11447c0.46566,-0.26583 0.84791,-0.50976 1.18356,-0.86464c0.23684,0.02002 0.46863,0.02078 0.72213,0.03642c-0.06874,0.28489 -0.24404,0.43349 -0.39269,0.61613c-0.02842,0.02796 -0.07846,0.04109 -0.1118,0.04983c-0.43202,0.05173 -0.86409,0.10347 -1.40116,0.16224z" fill="#cae3e4"/><path d="M356.96309,186.88471c0.21715,-0.2622 0.42758,-0.48162 0.80605,-0.39612c0.26348,0.05409 0.51872,0.00766 0.77395,-0.03875c0.10013,-0.02625 0.1417,0.06545 0.1382,0.18956c-0.27688,0.0316 -0.50229,0.19332 -0.72765,0.35505c-0.16361,0.12502 -0.3237,0.12597 -0.49879,0.06924c-0.15338,-0.04187 -0.31351,-0.04097 -0.49182,-0.17895z" fill="#c8e0e1"/><path d="M354.01738,184.4551c-0.08541,0.28924 -0.30055,0.28407 -0.50577,0.31735c-0.11999,-0.05063 -0.11652,-0.17468 -0.1581,-0.26639c-0.04806,-0.25422 -0.04105,-0.50239 -0.00071,-0.75933c0.18848,-0.02892 0.35211,-0.15391 0.54384,-0.10157c0.04156,0.09174 0.05652,0.14942 0.07643,0.22627c0.01643,0.20096 0.0329,0.40191 0.04431,0.58366z" fill="url(#color-15)"/><path d="M356.83721,184.88567c-0.22039,0.18096 -0.41735,0.31472 -0.60935,0.46773c-0.22835,-0.12488 -0.44497,-0.27326 -0.63322,-0.44975c-0.0015,-0.14334 0.08866,-0.20798 0.14045,-0.28315c0.0518,-0.07516 0.10356,-0.1503 0.22535,-0.1617c0.24002,0.1013 0.52837,0.25143 0.87676,0.42689z" fill="#c7dfe0"/><path d="M356.80142,188.11761c-0.20172,-0.09081 -0.39839,-0.16238 -0.59837,-0.31517c0.09039,-0.27005 0.2657,-0.41862 0.44774,-0.61005c0.23506,0.08204 0.47012,0.16406 0.72189,0.24174c-0.18379,0.25344 -0.36586,0.44491 -0.57128,0.6835z" fill="#c8e0e1"/><path d="M363.35889,183.2368c-0.09367,0.18878 -0.18731,0.37751 -0.34593,0.52176c-0.26348,-0.05409 -0.53187,-0.12735 -0.81698,-0.19625c-0.00996,-0.03842 -0.01991,-0.07686 -0.00321,-0.08125c0.12029,-0.1547 0.25723,-0.31376 0.38249,-0.44925c0.05679,-0.05594 0.11855,-0.0927 0.17853,-0.06739c0.23007,0.06282 0.44521,0.06799 0.60512,0.27237z" fill="#c4dcdd"/><path d="M363.60352,186.31327c-0.25673,-0.09689 -0.50846,-0.17457 -0.76521,-0.27145c0.01025,-0.16686 0.1437,-0.20186 0.22888,-0.2858c0.08515,-0.08389 0.19201,-0.15299 0.29384,-0.24128c0.2251,0.0436 0.40832,0.20086 0.61504,0.31083c-0.06199,0.24202 -0.20894,0.36268 -0.37256,0.48766z" fill="#c8e0e1"/><path d="M357.02423,188.6338c0.26842,0.07332 0.51524,0.13175 0.80033,0.20066c-0.08365,0.22721 -0.24233,0.37143 -0.33097,0.57945c-0.2535,-0.01565 -0.45346,-0.16848 -0.69348,-0.26974c0.05031,-0.21846 0.0939,-0.39409 0.22414,-0.51033z" fill="#c6ddde"/><path d="M360.06662,189.786c-0.23384,0.2666 -0.52591,0.44584 -0.71146,0.76133c-0.21516,-0.00513 -0.40867,0.00453 -0.62703,-0.08188c0.05705,-0.26127 0.17232,-0.43523 0.43254,-0.46238c0.31522,-0.02109 0.60559,-0.1383 0.90593,-0.21707z" fill="#b9cfd0"/><path d="M359.03994,179.9769c0.02017,-0.12845 0.11854,-0.09271 0.18026,-0.12939c0.1402,-0.07782 0.28534,-0.13643 0.35561,-0.27803c0.1437,-0.20189 0.33218,-0.23083 0.54236,-0.24487c0.08843,-0.00264 0.18179,0.0139 0.30853,0.02171c-0.11877,0.29803 -0.23586,0.53397 -0.57274,0.54024c-0.23182,-0.00077 -0.46045,0.07969 -0.68231,0.11734c-0.05006,0.0131 -0.10011,0.02625 -0.13173,-0.02703z" fill="#c0d8d8"/><path d="M356.05744,181.60074c0.12526,-0.1355 0.24876,-0.20891 0.38223,-0.24394c0.06672,-0.01747 0.15016,-0.03941 0.21017,-0.01409c0.2617,0.11613 0.52516,0.17018 0.78861,0.22425c0.03483,0.13455 -0.03685,0.13281 -0.08693,0.14598c-0.16685,0.04375 -0.35038,0.09191 -0.50725,0.1741c-0.20692,0.09531 -0.37203,0.07704 -0.53863,-0.08453c-0.07495,-0.08297 -0.13995,-0.12752 -0.24822,-0.20173z" fill="#c1d9d9"/><path d="M356.538,186.68824c-0.21338,-0.06717 -0.38671,-0.18599 -0.59336,-0.29597c0.04531,-0.23766 0.21391,-0.34344 0.33419,-0.49818c0.25174,0.07765 0.45667,0.24968 0.69,0.39379c-0.132,0.17829 -0.28391,0.27973 -0.43082,0.4004z" fill="#c3dbdc"/><path d="M362.57637,184.75566c0.20371,-0.1766 0.39573,-0.32958 0.58273,-0.50177c0.17008,0.03747 0.32344,0.07939 0.4684,0.2261c-0.08868,0.20801 -0.2306,0.34783 -0.36756,0.50696c-0.23682,-0.02002 -0.45018,-0.08716 -0.68351,-0.23125z" fill="#c3dadb"/><path d="M355.32741,185.17889c0.19996,0.15284 0.37822,0.2908 0.5565,0.42878c-0.06698,0.22284 -0.20894,0.36271 -0.35086,0.50254c-0.18501,-0.09516 -0.34163,-0.21826 -0.49147,-0.38424c0.01844,-0.06641 0.04859,-0.15644 0.07195,-0.20361c0.07521,-0.12235 0.14368,-0.20189 0.21393,-0.34348z" fill="#c4dbdc"/><path d="M357.33791,180.62859c-0.31702,0.08314 -0.56731,0.14876 -0.8342,0.21883c-0.14169,-0.06546 -0.255,-0.15895 -0.34983,-0.31879c0.05357,-0.13716 0.18028,-0.12939 0.27045,-0.19406c0.09014,-0.06469 0.18528,-0.11017 0.2687,-0.13208c0.21668,0.14845 0.38998,0.26722 0.64494,0.42613z" fill="#c2d9da"/><path d="M363.30889,181.8747c0.15338,0.04187 0.2784,0.11169 0.37501,0.20954c0.05649,0.14939 -0.02371,0.25256 -0.04883,0.36176c-0.02512,0.10922 -0.01196,0.2289 -0.11381,0.31718c-0.1768,0.00532 -0.3618,-0.08985 -0.58022,-0.17623c0.05851,-0.11801 0.11705,-0.23601 0.1589,-0.34958c0.07522,-0.1223 0.1504,-0.24472 0.20894,-0.36272z" fill="#c5ddde"/><path d="M355.83974,187.5693c-0.19177,-0.05235 -0.28164,-0.193 -0.41162,-0.28205c0.02867,-0.23328 0.14396,-0.40724 0.27094,-0.60477c0.16833,0.09952 0.33667,0.1991 0.50003,0.27943c-0.05705,0.26125 -0.23237,0.40992 -0.35934,0.60741z" fill="#c3dbdc"/><path d="M361.13353,180.90568c0.03012,-0.09005 0.05351,-0.1372 0.0769,-0.18441c0.0635,-0.09876 0.14369,-0.20191 0.21891,-0.32425c0.26842,0.07332 0.52194,0.0889 0.76025,0.2522c0.0015,0.14334 -0.06698,0.22286 -0.16387,0.33036c-0.27017,-0.01126 -0.5787,-0.033 -0.89221,-0.07389z" fill="#c7dfe0"/><path d="M355.82099,183.92053c-0.18324,-0.1572 -0.37995,-0.22876 -0.51816,-0.41832c0.05532,-0.19923 0.23382,-0.2666 0.29908,-0.42738c0.2617,0.11613 0.44497,0.27328 0.66162,0.42176c-0.10037,0.23161 -0.28387,0.27971 -0.44249,0.42398z" fill="#c7dee0"/><path d="M352.98475,184.66439c-0.06324,-0.10655 -0.04803,-0.25422 -0.16634,-0.3669c-0.20692,0.09531 -0.42556,0.2142 -0.64742,0.25189c-0.00324,-0.08128 -0.01144,-0.18175 0.00196,-0.26736c0.02017,-0.12845 0.08367,-0.22719 0.20048,-0.25785c0.19519,-0.07173 0.37374,-0.13909 0.56901,-0.2108c0.06475,0.24987 0.07793,0.36959 0.04228,0.85105z" fill="#61acb1"/><path d="M363.74364,187.61067c-0.20172,-0.09081 -0.36498,-0.17111 -0.57171,-0.28115c0.187,-0.17221 0.35731,-0.34001 0.54932,-0.49301c0.15837,0.06106 0.30005,0.12658 0.43501,0.23486c-0.10036,0.23159 -0.2423,0.37143 -0.41262,0.53927z" fill="#c2dada"/><path d="M355.71529,181.79307c0.20172,0.09081 0.34163,0.21831 0.51993,0.35633c-0.21365,0.13818 -0.39395,0.26754 -0.57427,0.39693c-0.17008,-0.03747 -0.25499,-0.15892 -0.37822,-0.29082c0.07197,-0.2036 0.24058,-0.30943 0.43254,-0.46239z" fill="#c1d9d9"/><path d="M363.65658,185.21133c0.12204,-0.21675 0.22563,-0.36705 0.32425,-0.53661c0.18179,0.0139 0.3384,0.13705 0.49504,0.2602c-0.03862,0.19484 -0.09888,0.37487 -0.23585,0.53396c-0.21515,-0.00515 -0.34839,-0.17553 -0.58344,-0.25752z" fill="#c6dedf"/><path d="M356.4251,188.93471c-0.18501,-0.09515 -0.35832,-0.21395 -0.52666,-0.31347c-0.02814,-0.17734 0.00872,-0.31017 0.09565,-0.45616c0.23682,0.02002 0.40833,0.20084 0.62677,0.28723c-0.0219,0.1905 -0.11381,0.31718 -0.19572,0.48239z" fill="#c0d7d7"/><path d="M361.20486,179.94288c-0.20342,-0.02873 -0.40864,0.00451 -0.6203,-0.12466c0.08693,-0.14599 0.15719,-0.28755 0.22738,-0.42912c0.20019,-0.05247 0.39193,-0.00014 0.56523,0.11862c-0.01024,0.16688 -0.06874,0.28484 -0.1723,0.43518z" fill="#c3dadb"/><path d="M353.97804,183.89064c-0.01991,-0.07689 -0.05653,-0.14941 -0.07648,-0.2263c-0.19177,-0.05235 -0.35533,0.07263 -0.54384,0.10157c-0.05155,-0.13017 0.02866,-0.2333 0.01049,-0.3722c0.19697,-0.13376 0.41211,-0.12863 0.59414,-0.32006c0.06646,0.18783 0.04633,0.31624 0.03112,0.46398c-0.00845,0.10486 0.05973,0.23067 -0.01548,0.35298z" fill="url(#color-16)"/><path d="M359.05738,191.32348c-0.20342,-0.02873 -0.40867,0.00453 -0.59864,-0.10984c-0.0015,-0.14334 0.04536,-0.23771 0.11554,-0.37927c0.19349,-0.0097 0.39694,0.01907 0.57697,0.09498c0.00149,0.14332 -0.02865,0.23332 -0.0939,0.39409z" fill="#bdd3d4"/><path d="M354.93594,186.14373c0.13498,0.10832 0.26494,0.19738 0.3949,0.28642c-0.03862,0.19486 -0.12553,0.34084 -0.22909,0.49115c-0.14839,-0.02266 -0.21669,-0.14847 -0.25151,-0.28299c-0.04485,-0.17298 -0.08965,-0.34593 0.08569,-0.49458z" fill="#bdd4d5"/><path d="M363.07946,189.24224c-0.22508,-0.04361 -0.43353,-0.09157 -0.65861,-0.13517c0.30053,-0.28411 0.59266,-0.46331 0.97588,-0.15329c-0.05357,0.13716 -0.18203,0.19141 -0.31724,0.28844z" fill="#bbd2d3"/><path d="M354.85655,184.25557c0.02692,-0.17125 0.1071,-0.27441 0.18732,-0.37753c0.11678,-0.03062 0.17506,0.05676 0.2617,0.11614c0.06499,0.04453 0.14663,0.08467 0.19321,0.19566c-0.02692,0.17125 -0.19372,0.21502 -0.23729,0.39066c-0.18006,-0.07593 -0.29831,-0.18857 -0.40489,-0.32481z" fill="#c3dadb"/><path d="M360.18935,185.03275c0.31028,-0.0403 0.62052,-0.08063 0.95072,-0.04405c0.01317,0.11967 -0.06525,0.16083 -0.14866,0.18265c-0.21191,0.07609 -0.42876,0.13299 -0.62899,0.18549c-0.15015,0.03939 -0.21342,-0.0672 -0.17305,-0.32409z" fill="#b1c6c7"/><path d="M356.67556,190.03902c0.1434,0.00339 0.22338,0.10563 0.32668,0.16063c0.20172,0.09081 0.26319,0.2594 0.23952,0.51197c-0.26345,-0.05407 -0.47338,-0.24537 -0.65662,-0.40253c-0.01819,-0.13893 0.00026,-0.20537 0.0904,-0.27005z" fill="#bbd2d3"/><path d="M361.02346,187.56454c0.29708,-0.16002 0.61556,-0.09986 0.94575,-0.06331c-0.20371,0.1766 -0.45397,0.2422 -0.68257,0.32269c-0.14518,0.0586 -0.19352,0.00971 -0.26319,-0.2594z" fill="#bad1d2"/><path d="M360.08029,190.87044c-0.09864,0.16954 -0.16389,0.33033 -0.26247,0.49987c-0.08842,0.00264 -0.22013,-0.02437 -0.34688,-0.03219c-0.00621,-0.36785 0.01047,-0.37221 0.23237,-0.40992c0.1168,-0.0306 0.23858,-0.04201 0.37701,-0.05781z" fill="#b5cbcc"/><path d="M364.7172,184.00959c-0.00027,0.20533 -0.05377,0.34256 -0.10733,0.47973c-0.16511,-0.01828 -0.27166,-0.15456 -0.40663,-0.26284c0.04854,-0.15642 0.10212,-0.29358 0.15068,-0.45001c0.15514,-0.02016 0.23331,0.14404 0.36331,0.23315z" fill="#c0d7d8"/><path d="M358.45846,190.04352c-0.00351,0.12405 -0.06697,0.22285 -0.14715,0.32601c-0.23183,-0.00079 -0.45023,-0.08717 -0.64519,-0.22081c-0.05155,-0.13017 -0.01144,-0.18173 0.06201,-0.24202c0.24176,0.03917 0.48357,0.07842 0.73034,0.13689z" fill="#bdd4d4"/><path d="M364.08701,187.76695c0.12029,-0.1547 0.26219,-0.29455 0.3825,-0.44925c0.10333,0.05502 0.16161,0.14236 0.19152,0.25767c-0.00351,0.12405 -0.07693,0.1844 -0.14541,0.26391c-0.05679,0.05594 -0.11354,0.11188 -0.17034,0.16784c-0.11506,-0.03141 -0.20172,-0.0908 -0.25823,-0.2402z" fill="#b6cccc"/><path d="M363.43976,183.89299c0.09864,-0.16954 0.18554,-0.31549 0.27917,-0.50428c0.10509,-0.00703 0.22014,0.02435 0.31502,0.18423c-0.04851,0.15644 -0.11381,0.31721 -0.17406,0.49721c-0.15338,-0.04187 -0.28513,-0.0689 -0.42008,-0.17721z" fill="#c1d9d9"/><path d="M363.76897,188.67129c-0.15338,-0.04187 -0.27344,-0.0925 -0.39167,-0.20518c0.09864,-0.16954 0.25553,-0.25173 0.37406,-0.3444c0.1434,0.00339 0.20665,0.11 0.28162,0.19297c-0.00177,0.06203 0.00822,0.10049 -0.00844,0.10488c-0.08516,0.08387 -0.17032,0.1678 -0.25553,0.25173z" fill="#b7cdce"/><path d="M362.59809,190.06644c0.14371,-0.2019 0.29384,-0.24128 0.43403,-0.31912c0.1519,-0.10143 0.24852,-0.0036 0.3668,0.10905c-0.09864,0.16954 -0.23882,0.24735 -0.35239,0.35925c-0.17679,0.0053 -0.27666,-0.17377 -0.44847,-0.14924z" fill="#b6cccc"/><path d="M358.08018,191.128c-0.15837,-0.06108 -0.27838,-0.11171 -0.4151,-0.15796c-0.0615,-0.16863 -0.09136,-0.28394 -0.0428,-0.44036c0.18004,0.07594 0.35509,0.13266 0.51344,0.19374c0.09488,0.15982 0.01466,0.26297 0.0279,0.38266c-0.03337,0.00875 -0.06177,0.03673 -0.08344,0.0219z" fill="#c2dada"/><path d="M364.15798,183.08887c-0.13169,-0.02706 -0.19672,-0.07155 -0.255,-0.1589c-0.04656,-0.11099 0.00027,-0.20532 0.02541,-0.31457c0.03013,-0.09003 0.01195,-0.22892 0.12377,-0.27878c0.12499,0.06986 0.23829,0.16329 0.31649,0.32755c-0.06524,0.1608 -0.14046,0.28316 -0.21069,0.42474z" fill="#bbd2d3"/><path d="M354.99387,182.51593c0.11827,0.11266 0.20991,0.19127 0.30653,0.28908c-0.08193,0.16519 -0.19551,0.27705 -0.30407,0.4082c-0.12001,-0.05063 -0.21168,-0.12922 -0.24648,-0.26378c0.00671,-0.04283 0.01346,-0.08562 0.04184,-0.11362c0.0468,-0.09436 0.11035,-0.19315 0.20223,-0.31988z" fill="#bbd2d3"/><path d="M360.2314,191.38489c0.12377,-0.27879 0.12378,-0.27881 0.38249,-0.44923c0.15838,0.0611 0.21488,0.2105 0.30972,0.37034c-0.21866,0.11893 -0.46043,0.0797 -0.69226,0.07892z" fill="#adc2c3"/><path d="M354.70762,184.6436c0.12001,0.05063 0.21664,0.14849 0.26816,0.27862c-0.08193,0.16519 -0.1521,0.30674 -0.23905,0.45265c-0.2515,-0.28299 -0.2565,-0.30219 -0.02914,-0.73132z" fill="#b5cbcc"/><path d="M364.40852,186.73839c-0.14171,-0.06545 -0.24502,-0.12051 -0.36331,-0.23317c0.04356,-0.17559 0.17882,-0.27267 0.28241,-0.423c0.06002,0.02533 0.10331,0.05501 0.14666,0.08467c0.04333,0.0297 0.07496,0.08295 0.12328,0.13188c-0.00523,0.1861 -0.08044,0.30845 -0.18903,0.43959z" fill="#bbd1d2"/><path d="M355.47925,181.15705c0.067,-0.22284 0.26221,-0.29457 0.37078,-0.42567c0.1367,0.04626 0.18827,0.17642 0.28488,0.27428c-0.14864,0.18269 -0.30556,0.26487 -0.50401,0.25533c-0.05007,0.01311 -0.10334,-0.055 -0.15164,-0.1039z" fill="#b6cccd"/><path d="M362.36021,180.27605c-0.25174,-0.07765 -0.49179,-0.17894 -0.72684,-0.26096c-0.01816,-0.13894 0.01194,-0.22891 0.10881,-0.33642c0.23331,0.14404 0.46663,0.28813 0.66485,0.50299c-0.02342,0.04722 -0.03513,0.07079 -0.0468,0.09438z" fill="#acc1c2"/><path d="M361.40694,186.29391c-0.20196,0.11454 -0.4089,0.20986 -0.63573,0.2283c-0.08843,0.00264 -0.17007,-0.0375 -0.19497,-0.13357c-0.00995,-0.03841 0.00351,-0.12405 0.02019,-0.12846c0.24527,-0.08485 0.53037,-0.01596 0.81052,0.03373z" fill="#a7bbbb"/><path d="M364.82816,185.95094c-0.11008,-0.01219 -0.18501,-0.09516 -0.26494,-0.19735c0.06524,-0.1608 0.13051,-0.3216 0.19576,-0.48239c0.15338,0.04187 0.19994,0.15283 0.23481,0.28736c-0.02017,0.12845 -0.09038,0.27003 -0.16564,0.39239z" fill="#b7cdcd"/><path d="M355.19758,187.63514c0.19177,0.05235 0.31,0.16504 0.43328,0.2969c-0.01024,0.16688 -0.04708,0.29972 -0.17733,0.41596c-0.15985,-0.2044 -0.20292,-0.43943 -0.25596,-0.71286z" fill="#b7cece"/><path d="M356.70197,179.68693c0.16535,-0.18705 0.40215,-0.16705 0.54408,-0.30692c0.11999,0.05063 0.12325,0.13188 0.08315,0.18347c-0.10856,0.13113 -0.23883,0.24739 -0.40566,0.2911c-0.05504,-0.00609 -0.07173,-0.00173 -0.22163,-0.16767z" fill="#b4cacb"/><path d="M362.44256,181.07548c0.02018,-0.12843 0.0553,-0.19923 0.12872,-0.25958c0.20172,0.09081 0.42007,0.17723 0.62327,0.4113c-0.27863,0.09359 -0.49028,-0.03565 -0.75201,-0.15172z" fill="#b2c8c9"/><path d="M354.75574,183.52251c-0.04854,0.15642 -0.09041,0.27005 -0.18056,0.33472c-0.07172,-0.00172 -0.10338,-0.05501 -0.135,-0.10831c-0.12648,-0.21312 -0.03458,-0.33989 0.10734,-0.47973c0.05827,0.08732 0.13323,0.17035 0.20816,0.2533z" fill="#b5cbcb"/><path d="M361.52388,188.80861c0.2119,-0.07611 0.3954,-0.12426 0.61054,-0.11907c0.04156,0.09173 0.00149,0.14328 -0.04856,0.15643c-0.11184,0.04986 -0.21868,0.11893 -0.33046,0.16877c-0.13347,0.03499 -0.18673,-0.03314 -0.23151,-0.20613z" fill="#91a3a3"/><path d="M359.96538,181.41728c-0.16535,0.18705 -0.38723,0.22472 -0.58744,0.27719c-0.03337,0.00875 -0.07669,-0.02094 -0.10333,-0.05502c-0.00996,-0.03842 0.00845,-0.10487 0.02515,-0.10926c0.21866,-0.11893 0.44549,-0.13735 0.6656,-0.11299z" fill="#99abac"/><path d="M359.15916,180.64354c-0.10161,-0.11702 -0.12647,-0.21315 -0.053,-0.27347c0.10685,-0.06907 0.28363,-0.07436 0.52043,-0.05438c-0.13198,0.17835 -0.31549,0.22643 -0.4674,0.32784z" fill="#93a5a6"/><path d="M355.88077,189.44696c0.22337,0.10566 0.45843,0.18766 0.4146,0.56865c-0.24002,-0.10133 -0.30477,-0.35112 -0.4146,-0.56865z" fill="#9aadad"/><path d="M358.84753,188.38146c0.11854,-0.09268 0.25373,-0.1897 0.35562,-0.278c0.09836,0.03579 0.12998,0.08907 0.14316,0.20879c-0.12527,0.13552 -0.31203,0.10239 -0.45719,0.16099c-0.00996,-0.03842 -0.01492,-0.05767 -0.04159,-0.09176z" fill="#c5dddd"/><path d="M360.53107,183.87578c-0.17207,0.22986 -0.38899,0.28673 -0.62578,0.26674c-0.01668,0.00438 -0.04337,-0.02969 -0.0533,-0.06813c-0.03161,-0.05331 0.00845,-0.10487 0.04183,-0.1136c0.17853,-0.06739 0.39371,-0.0622 0.63724,-0.08502z" fill="#aec2c3"/><path d="M355.3637,181.5363c-0.09864,0.16954 -0.25051,0.27097 -0.38577,0.36801c-0.09836,-0.03578 -0.10159,-0.11707 -0.04483,-0.17301c0.09689,-0.10752 0.17708,-0.21064 0.29562,-0.30329c0.02342,-0.04722 0.08838,-0.00267 0.13496,0.1083z" fill="#9caeaf"/><path d="M364.91463,184.84041c0.00525,-0.18613 0.0421,-0.31892 0.10735,-0.47972c0.13146,0.23235 0.13619,0.45691 0.19593,0.68755c-0.05505,-0.00611 -0.08843,0.00264 -0.11006,-0.0122c-0.06996,-0.06377 -0.12324,-0.13188 -0.19323,-0.19562z" fill="#a9bebf"/><path d="M357.77477,183.34652c0.06822,0.12583 0.07146,0.20702 0.0413,0.2971c-0.16187,0.06295 -0.32695,0.04467 -0.54362,-0.10377c0.19027,-0.09097 0.34041,-0.13031 0.50227,-0.19332z" fill="#b9cfd0"/><path d="M359.75539,189.2723c0.09835,0.03578 0.13493,0.10833 0.17157,0.18081c-0.00846,0.10487 -0.09186,0.12674 -0.50725,0.17409c0.04034,-0.2569 0.23883,-0.24738 0.3357,-0.35488z" fill="#869797"/><path d="M360.19891,182.73129c-0.28189,0.01236 -0.47066,0.2466 -0.74057,0.03001c0.23035,-0.14255 0.4355,-0.17582 0.74057,-0.03001z" fill="#93a4a5"/><path d="M362.60037,189.59363c-0.25025,0.06561 -0.4171,0.10938 -0.58393,0.15314c-0.03337,0.00875 -0.0767,-0.02093 -0.09161,-0.0786c-0.00499,-0.01924 0.00176,-0.06204 0.01345,-0.08566c0.19023,-0.09098 0.37381,-0.1391 0.6621,0.01106z" fill="#94a5a6"/><path d="M360.24465,190.12939c0.09659,0.09784 0.12825,0.15108 0.08641,0.2647c-0.12847,0.05423 -0.27367,0.11283 -0.45546,0.09892c0.06703,-0.22283 0.23382,-0.26656 0.36901,-0.36362z" fill="#abbfc0"/><path d="M363.62107,189.61336c-0.05828,-0.08734 -0.0849,-0.12142 -0.09487,-0.15989c0.17881,-0.27269 0.1788,-0.27265 0.4273,-0.27624c-0.05031,0.21846 -0.21712,0.26223 -0.33243,0.43611z" fill="#acc0c1"/><path d="M356.74637,189.48684c0.16336,0.08033 0.3384,0.13704 0.50673,0.23658c0.06499,0.04453 0.08488,0.12142 -0.00027,0.20531c-0.20172,-0.09081 -0.3867,-0.18596 -0.50645,-0.44191z" fill="#9fb2b2"/><path d="M364.70015,186.96983c0.04186,-0.11364 0.07699,-0.18439 0.15041,-0.24472c0.07671,0.02093 0.12502,0.06984 0.16659,0.16157c0.01317,0.11969 -0.05033,0.21845 -0.11382,0.3172c-0.11008,-0.01219 -0.15662,-0.12314 -0.20315,-0.23406z" fill="#aec2c3"/><path d="M358.11157,186.09088c0.04355,-0.1756 0.1604,-0.20628 0.27219,-0.25612c0.05006,-0.0131 0.09831,0.03578 0.11327,0.09347c0.00996,0.03842 -0.00845,0.10487 -0.04182,0.11361c-0.08515,0.08389 -0.19525,0.07174 -0.34364,0.04905z" fill="#91a2a3"/><path d="M364.77625,183.48093c-0.33841,-0.13705 -0.3601,-0.15184 -0.19126,-0.46301c0.07319,0.14503 0.1915,0.25767 0.19126,0.46301z" fill="#869696"/><path d="M358.89704,179.56283c0.08868,-0.208 0.20367,-0.17659 0.32548,-0.188c-0.03864,0.19484 -0.03862,0.19484 -0.32548,0.188z" fill="#555f5f"/><path d="M358.86576,187.14513c-0.08343,0.02189 -0.20019,0.0525 -0.33194,0.02547c0.10534,-0.21237 0.17207,-0.22984 0.30876,-0.18363c0.03834,0.01049 0.05329,0.06814 0.02315,0.15813z" fill="#93a5a6"/><path d="M362.676,190.43591c-0.15042,0.24472 -0.18876,0.23427 -0.31846,-0.06017c0.10686,-0.06908 0.21015,-0.0141 0.31846,0.06017z" fill="#8b9b9c"/><path d="M359.37637,179.00606c-0.15191,0.10141 -0.29031,0.11718 -0.42882,0.13297c-0.07994,-0.10218 -0.06148,-0.16863 0.00526,-0.18612c0.13347,-0.03502 0.27193,-0.05078 0.42353,0.05312z" fill="#9aacad"/><path d="M364.35944,188.68073c-0.05357,0.13716 -0.07375,0.26565 -0.21218,0.28145c-0.01671,0.00436 -0.03836,-0.01046 -0.04334,-0.02969c-0.01144,-0.18176 0.07871,-0.24646 0.25551,-0.25174z" fill="#5f6a6b"/><path d="M357.91137,184.76808c0.0518,-0.07516 0.11856,-0.09269 0.19027,-0.09094c0.03834,0.01049 0.08167,0.04018 0.07493,0.08298c-0.00671,0.04283 -0.03013,0.09004 -0.06352,0.09875c-0.06672,0.01747 -0.13844,0.01578 -0.20169,-0.09081z" fill="#636e6f"/><path d="M365.12151,186.12044c0.08488,0.12144 0.09313,0.22189 -0.02042,0.33378c-0.10656,-0.13626 -0.07646,-0.22627 0.02042,-0.33378z" fill="#4a5354"/></g><g data-paper-data="{&quot;index&quot;:null}" fill="#000000" fill-rule="nonzero" stroke="#000000" stroke-width="1.2" stroke-linecap="butt" stroke-linejoin="miter"><path d="M245.15615,179.07463c0.05286,1.87441 -2.32391,4.17864 -3.1493,6.28683c-0.88867,2.26975 -0.22721,4.17027 -1.58262,5.08714c-0.94674,0.6404 -2.55833,0.18785 -3.36743,-0.15046c-1.96747,-0.82262 -2.33883,-4.61473 -0.82945,-8.46989c1.50938,-3.85516 4.32791,-6.31353 6.29536,-5.4909c0.89155,0.37277 2.58961,1.18402 2.63344,2.73726z"/><path d="M242.41962,175.90288c0.04911,2.61262 -3.04391,7.64736 -3.04391,7.64736c0,0 -0.26745,3.91497 -0.30008,3.99388c-2.07773,5.0286 -5.50677,3.66013 -9.3809,2.04029c-1.84382,-0.77092 -4.40365,-2.65996 -4.79026,-4.66782c-0.43847,-2.27715 1.10725,-4.55728 2.21545,-7.38774c2.08533,-5.3262 6.19149,-8.87762 10.12644,-7.23237c1.73214,0.72425 5.10764,2.11696 5.17324,5.60641z"/></g><g stroke-linejoin="miter"><g data-paper-data="{&quot;index&quot;:null}" stroke-linecap="butt"><path d="M229.74195,177.6339c12.47083,-4.71348 27.28162,2.51407 33.08087,16.14318c5.79924,13.62911 0.39085,28.49873 -12.08001,33.2122c-12.47083,4.71348 -27.28162,-2.51407 -33.08087,-16.14318c-5.79924,-13.62911 -0.39085,-28.49873 12.08001,-33.2122z" fill="none" fill-rule="nonzero" stroke="#000000" stroke-width="4.5"/><g><g fill-rule="nonzero"><path d="M231.87734,222.45285l0.00278,-0.01393" data-paper-data="{&quot;index&quot;:null}" fill="#ffab19" stroke="#000000" stroke-width="5"/><g data-paper-data="{&quot;index&quot;:null}" fill="none" stroke="none" stroke-width="1" font-family="sans-serif" font-weight="normal" font-size="12" text-anchor="start"/></g><path d="M231.87734,222.45285l0.00278,-0.01393" data-paper-data="{&quot;index&quot;:null}" fill="#ffab19" fill-rule="nonzero" stroke="#000000" stroke-width="5"/><path d="M241.49633,202.1653" fill="#001026" fill-rule="evenodd" stroke="#000000" stroke-width="5"/><g data-paper-data="{&quot;index&quot;:null}" fill="none" fill-rule="nonzero" stroke="none" stroke-width="1" font-family="sans-serif" font-weight="normal" font-size="12" text-anchor="start"/><g data-paper-data="{&quot;index&quot;:null}" fill="none" fill-rule="nonzero" stroke="none" stroke-width="1" font-family="sans-serif" font-weight="normal" font-size="12" text-anchor="start"/></g></g><path d="M217.97379,199.10553l31.41768,25.39234l13.13302,-4.63461l-15.98525,33.41305l-33.80438,-31.68866l2.57617,-29.71867z" fill="#000000" fill-rule="nonzero" stroke="#191919" stroke-width="3" stroke-linecap="round"/></g><path d="M246.749,191.72676c2.60785,-2.99761 8.15569,-2.44037 12.39145,1.24465c4.23575,3.68501 5.55543,9.10234 2.94758,12.09995c-2.60785,2.99761 -8.15569,2.44037 -12.39145,-1.24465c-4.23575,-3.68501 -5.55543,-9.10234 -2.94758,-12.09995z" fill="#ff0000" fill-rule="nonzero" stroke="#000000" stroke-width="3" stroke-linecap="butt" stroke-linejoin="miter"/><path d="M235.90874,205.61683c2.40943,-2.76953 7.26815,-2.48697 10.85225,0.63111c3.5841,3.11808 4.53636,7.89094 2.12694,10.66047c-2.40943,2.76953 -7.26815,2.48697 -10.85225,-0.63111c-3.5841,-3.11808 -4.53636,-7.89094 -2.12694,-10.66047z" fill="#ffffff" fill-rule="nonzero" stroke="#000000" stroke-width="3" stroke-linecap="butt" stroke-linejoin="miter"/><path d="M223.9,191.54182c3.34486,-3.84476 8.32796,-4.98536 11.13008,-2.54757c2.80212,2.43778 2.36214,7.53079 -0.98271,11.37554c-3.34486,3.84476 -8.32796,4.98536 -11.13008,2.54757c-2.80212,-2.43778 -2.36214,-7.53079 0.98271,-11.37554z" fill="#ffffff" fill-rule="nonzero" stroke="#000000" stroke-width="3" stroke-linecap="butt" stroke-linejoin="miter"/></g></g></svg>