<svg version="1.1" xmlns="http://www.w3.org/2000/svg" xmlns:xlink="http://www.w3.org/1999/xlink" width="476" height="237" viewBox="0,0,476,237"><defs><linearGradient x1="87" y1="36" x2="87" y2="154" gradientUnits="userSpaceOnUse" id="color-1"><stop offset="0" stop-color="#f5ff00"/><stop offset="1" stop-color="#f5ff00" stop-opacity="0"/></linearGradient><linearGradient x1="94.5" y1="143" x2="94.5" y2="216" gradientUnits="userSpaceOnUse" id="color-2"><stop offset="0" stop-color="#bebebe"/><stop offset="1" stop-color="#bebebe" stop-opacity="0"/></linearGradient><linearGradient x1="166.5" y1="122" x2="166.5" y2="198" gradientUnits="userSpaceOnUse" id="color-3"><stop offset="0" stop-color="#bebebe"/><stop offset="1" stop-color="#bebebe" stop-opacity="0"/></linearGradient><linearGradient x1="231" y1="156" x2="231" y2="210" gradientUnits="userSpaceOnUse" id="color-4"><stop offset="0" stop-color="#bebebe"/><stop offset="1" stop-color="#bebebe" stop-opacity="0"/></linearGradient><linearGradient x1="385.5" y1="27" x2="385.5" y2="103" gradientUnits="userSpaceOnUse" id="color-5"><stop offset="0" stop-color="#bebebe"/><stop offset="1" stop-color="#bebebe" stop-opacity="0"/></linearGradient><linearGradient x1="450" y1="61" x2="450" y2="115" gradientUnits="userSpaceOnUse" id="color-6"><stop offset="0" stop-color="#bebebe"/><stop offset="1" stop-color="#bebebe" stop-opacity="0"/></linearGradient><linearGradient x1="208.5" y1="16" x2="208.5" y2="89" gradientUnits="userSpaceOnUse" id="color-7"><stop offset="0" stop-color="#bebebe"/><stop offset="1" stop-color="#bebebe" stop-opacity="0"/></linearGradient><linearGradient x1="335" y1="199" x2="335" y2="253" gradientUnits="userSpaceOnUse" id="color-8"><stop offset="0" stop-color="#bebebe"/><stop offset="1" stop-color="#bebebe" stop-opacity="0"/></linearGradient></defs><g transform="translate(-28.5,-16)"><g stroke-width="0" stroke-miterlimit="10"><path d="M145.5,95c0,32.5848 -26.19134,59 -58.5,59c-32.30866,0 -58.5,-26.4152 -58.5,-59c0,-32.5848 26.19134,-59 58.5,-59c32.30866,0 58.5,26.4152 58.5,59z" fill="url(#color-1)" stroke="#000000"/><path d="M158.5,179.5c0,20.15839 -28.65378,36.5 -64,36.5c-35.34622,0 -64,-16.34161 -64,-36.5c0,-20.15839 28.65378,-36.5 64,-36.5c35.34622,0 64,16.34161 64,36.5z" fill="url(#color-2)" stroke="none"/><path d="M222.5,160c0,20.98682 -25.07205,38 -56,38c-30.92795,0 -56,-17.01318 -56,-38c0,-20.98682 25.07205,-38 56,-38c30.92795,0 56,17.01318 56,38z" fill="url(#color-3)" stroke="none"/><path d="M285.5,183c0,14.91169 -24.40048,27 -54.5,27c-30.09952,0 -54.5,-12.08831 -54.5,-27c0,-14.91169 24.40048,-27 54.5,-27c30.09952,0 54.5,12.08831 54.5,27z" fill="url(#color-4)" stroke="none"/><path d="M441.5,65c0,20.98682 -25.07205,38 -56,38c-30.92795,0 -56,-17.01318 -56,-38c0,-20.98682 25.07205,-38 56,-38c30.92795,0 56,17.01318 56,38z" fill="url(#color-5)" stroke="none"/><path d="M504.5,88c0,14.91169 -24.40048,27 -54.5,27c-30.09952,0 -54.5,-12.08831 -54.5,-27c0,-14.91169 24.40048,-27 54.5,-27c30.09952,0 54.5,12.08831 54.5,27z" fill="url(#color-6)" stroke="none"/><path d="M272.5,52.5c0,20.15839 -28.65377,36.5 -64,36.5c-35.34623,0 -64,-16.34161 -64,-36.5c0,-20.15839 28.65377,-36.5 64,-36.5c35.34623,0 64,16.34161 64,36.5z" fill="url(#color-7)" stroke="none"/><path d="M389.5,226c0,14.91169 -24.40048,27 -54.5,27c-30.09952,0 -54.5,-12.08831 -54.5,-27c0,-14.91169 24.40048,-27 54.5,-27c30.09952,0 54.5,12.08831 54.5,27z" fill="url(#color-8)" stroke="none"/></g></g></svg>