<svg version="1.1" xmlns="http://www.w3.org/2000/svg" xmlns:xlink="http://www.w3.org/1999/xlink" width="76.98177" height="101.16858" viewBox="0,0,76.98177,101.16858"><defs><linearGradient x1="219.0535" y1="209.08984" x2="237.10089" y2="209.08984" gradientUnits="userSpaceOnUse" id="color-1"><stop offset="0" stop-color="#bebebe"/><stop offset="1" stop-color="#737373"/></linearGradient><linearGradient x1="239.67767" y1="230.21775" x2="272.09583" y2="230.21775" gradientUnits="userSpaceOnUse" id="color-2"><stop offset="0" stop-color="#bebebe"/><stop offset="1" stop-color="#737373"/></linearGradient><linearGradient x1="239.67767" y1="230.21775" x2="272.09583" y2="230.21775" gradientUnits="userSpaceOnUse" id="color-3"><stop offset="0" stop-color="#bebebe"/><stop offset="1" stop-color="#737373"/></linearGradient><linearGradient x1="240.12318" y1="229.90489" x2="268.81516" y2="229.90489" gradientUnits="userSpaceOnUse" id="color-4"><stop offset="0" stop-color="#ffd166"/><stop offset="1" stop-color="#ac880b"/></linearGradient><linearGradient x1="226.89092" y1="220.65092" x2="254.95674" y2="220.65092" gradientUnits="userSpaceOnUse" id="color-5"><stop offset="0" stop-color="#ffd166"/><stop offset="1" stop-color="#ac880b"/></linearGradient><linearGradient x1="226.81399" y1="220.70577" x2="255.4663" y2="220.70577" gradientUnits="userSpaceOnUse" id="color-6"><stop offset="0" stop-color="#ffd166"/><stop offset="1" stop-color="#ac880b"/></linearGradient><linearGradient x1="212.90779" y1="231.44012" x2="240.84507" y2="231.44012" gradientUnits="userSpaceOnUse" id="color-7"><stop offset="0" stop-color="#ffd166"/><stop offset="1" stop-color="#ac880b"/></linearGradient><linearGradient x1="214.14655" y1="239.64292" x2="236.05072" y2="239.64292" gradientUnits="userSpaceOnUse" id="color-8"><stop offset="0" stop-color="#bebebe"/><stop offset="1" stop-color="#737373"/></linearGradient><linearGradient x1="214.14655" y1="239.64292" x2="236.05072" y2="239.64292" gradientUnits="userSpaceOnUse" id="color-9"><stop offset="0" stop-color="#bebebe"/><stop offset="1" stop-color="#737373"/></linearGradient><linearGradient x1="223.19209" y1="211.89566" x2="254.76588" y2="211.89566" gradientUnits="userSpaceOnUse" id="color-10"><stop offset="0" stop-color="#bebebe"/><stop offset="1" stop-color="#737373"/></linearGradient><linearGradient x1="265.61366" y1="211.204" x2="276.61643" y2="202.9698" gradientUnits="userSpaceOnUse" id="color-11"><stop offset="0" stop-color="#bb951b"/><stop offset="1" stop-color="#d6ad39"/></linearGradient><linearGradient x1="259.23968" y1="203.09851" x2="269.56759" y2="195.3694" gradientUnits="userSpaceOnUse" id="color-12"><stop offset="0" stop-color="#bebebe"/><stop offset="1" stop-color="#737373"/></linearGradient><linearGradient x1="265.34856" y1="205.75983" x2="270.27814" y2="202.07066" gradientUnits="userSpaceOnUse" id="color-13"><stop offset="0" stop-color="#bb951b"/><stop offset="1" stop-color="#d6ad39"/></linearGradient><linearGradient x1="266.43585" y1="206.42191" x2="270.65202" y2="203.26662" gradientUnits="userSpaceOnUse" id="color-14"><stop offset="0" stop-color="#bb951b"/><stop offset="1" stop-color="#d6ad39"/></linearGradient><linearGradient x1="264.48543" y1="205.76601" x2="265.34058" y2="205.12603" gradientUnits="userSpaceOnUse" id="color-15"><stop offset="0" stop-color="#bb951b"/><stop offset="1" stop-color="#d6ad39"/></linearGradient><linearGradient x1="263.90806" y1="205.82591" x2="264.74385" y2="205.20041" gradientUnits="userSpaceOnUse" id="color-16"><stop offset="0" stop-color="#bb951b"/><stop offset="1" stop-color="#d6ad39"/></linearGradient></defs><g transform="translate(-204.12758,-143.0975)"><g data-paper-data="{&quot;isPaintingLayer&quot;:true}" stroke-miterlimit="10" stroke-dasharray="" stroke-dashoffset="0" style="mix-blend-mode: normal"><path d="M240.34749,206.17717c0,0 11.77698,1.82089 16.28993,2.8477c3.51344,0.79939 14.31233,3.39849 14.31233,3.39849" fill="none" fill-rule="nonzero" stroke="#000000" stroke-width="6" stroke-linecap="round" stroke-linejoin="miter"/><path d="M237.10089,208.2527c0,2.4641 -3.22379,4.46165 -7.20056,4.46165c-2.11857,0 -5.90563,1.68326 -8.23456,0.47339c-2.04269,-1.06118 -8.27066,-3.57448 -8.04871,-4.23786c0.69236,-2.06928 13.20156,-4.39543 15.56014,-4.39543c3.97676,0 7.92369,1.23416 7.92369,3.69825z" fill="url(#color-1)" fill-rule="nonzero" stroke="#737373" stroke-width="1" stroke-linecap="butt" stroke-linejoin="miter"/><g><g><g stroke-width="1.2"><path d="M253.70787,218.71846c0,0 9.31693,7.88174 10.69852,10.88193c0.94272,2.04713 -3.0297,5.37288 -3.0297,5.37288c0,0 10.05817,-0.12212 10.71013,4.37445c0.03717,0.25635 0.14297,1.5179 -3.99199,2.04648c-3.96044,0.50627 -12.09998,0.2877 -15.0756,0.20018c-1.38203,-0.04065 -3.53979,-0.36608 -5.00535,-1.00853c-1.47557,-0.64685 -1.5335,-1.66747 -1.64639,-2.23854c-0.01498,-0.07577 4.21694,-6.65635 3.90634,-7.51095c-0.15624,-0.42986 -10.59616,-10.89469 -10.59616,-10.89469" fill="url(#color-2)" fill-rule="evenodd" stroke="url(#color-3)" stroke-linecap="round" stroke-linejoin="round"/><path d="M240.16401,223.65482c-0.66816,-4.60824 7.02696,-4.98283 11.05283,-5.09488c1.7506,-0.04872 7.3336,3.85119 11.19707,8.29782c1.01235,1.16515 4.93305,5.54278 4.84614,6.95743c-0.03055,0.49706 -1.05666,-0.14195 -1.05666,-0.14195c0,0 -0.12468,2.3942 0.36644,2.86642c0.50691,0.48742 -1.82092,0.00799 -1.82092,0.00799l-5.0442,-1.19861c0,0 -4.23239,0.10235 -7.94805,1.68979c-3.71565,1.58745 -1.19482,4.21136 -1.19482,4.21136c0,0 -7.71403,-0.22128 -8.6907,-2.03789c-0.24078,-0.44784 0.67084,-1.84284 0.67084,-1.84284c0,0 -0.85514,0.10965 -0.94593,-0.20335c-0.02945,-0.10152 3.68123,-3.50495 5.72372,-5.3053c1.16773,-1.02931 1.1786,-0.92184 1.1786,-0.92184c0,0 -8.2381,-6.62017 -8.33438,-7.28414z" fill="url(#color-4)" fill-rule="nonzero" stroke="#caa551" stroke-linecap="butt" stroke-linejoin="miter"/></g><path d="M226.89101,219.60869c-0.01426,-0.13551 1.73548,0.264 5.70032,0.31018c5.23064,0.06092 13.24119,-0.21161 15.4937,-0.35105c5.84115,-0.36158 6.82962,-1.32403 6.86744,-0.96483c0.13994,1.32926 -3.16401,3.79152 -9.84624,3.92657c-2.93652,0.05935 -8.94279,0.50447 -12.34402,0.03648c-4.33845,-0.59695 -5.79275,-2.21226 -5.8712,-2.95736z" fill="url(#color-5)" fill-rule="nonzero" stroke="#caa551" stroke-width="1.2" stroke-linecap="butt" stroke-linejoin="miter"/><g fill-rule="nonzero" stroke-linecap="butt" stroke-linejoin="miter"><g fill="none" stroke="none" stroke-width="1" font-family="sans-serif" font-weight="normal" font-size="12" text-anchor="start"/><path d="M226.93291,217.92392c0,0 12.12392,1.6507 17.83059,2.01751c5.70666,0.36681 10.70279,-0.18344 10.70279,-0.18344c0,0 -0.39969,1.28946 -3.3756,2.37279c-2.30353,0.83856 -6.43389,1.59154 -11.33139,1.28841c-4.46175,-0.27616 -9.2903,-1.01599 -11.45976,-2.02067c-3.28825,-1.52282 -2.36664,-3.47458 -2.36664,-3.47458z" fill="url(#color-6)" stroke="#caa551" stroke-width="1.2"/></g><g stroke-width="1.2"><path d="M238.29547,222.04206c0,0 -4.58184,19.17755 -5.41792,19.24085c-2.39937,0.18165 -15.54809,-1.44493 -15.54809,-1.44493l8.45195,-19.28125" data-paper-data="{&quot;index&quot;:null}" fill="#ffab19" fill-rule="evenodd" stroke="#001026" stroke-linecap="round" stroke-linejoin="round"/><path d="M240.32048,221.73289c0,0 0.76411,5.26051 0.44797,7.41074c-0.04254,0.28934 -3.80657,0.57486 -4.04128,1.08849c-0.83524,1.82776 1.06838,4.72001 1.06838,4.72001c0,0 1.14692,3.11497 0.69394,3.39794c-0.58201,0.36359 -2.39475,-1.5153 -2.39475,-1.5153c0,0 1.86608,2.15407 1.91649,2.36878c0.35173,1.49809 -1.25347,3.46536 -5.45981,3.65227c-4.61829,0.2052 -12.27475,0.43697 -16.22171,-0.74825c-3.57326,-1.07299 -3.69995,-3.50763 -3.22019,-4.50735c0.3369,-0.70205 2.71519,-1.08028 3.19674,-1.94338c0.3202,-0.5739 -3.55839,2.0346 -2.8574,1.26952c0.2038,-0.22243 3.06543,-3.72556 3.06543,-3.72556c0,0 0.4247,-3.254 1.2255,-4.45899c3.21572,-4.83877 7.10939,-8.884 7.10939,-8.884" data-paper-data="{&quot;index&quot;:null}" fill="url(#color-7)" fill-rule="evenodd" stroke="#caa551" stroke-linecap="round" stroke-linejoin="round"/><path d="M236.04252,240.08726c-0.11577,1.07681 -1.06011,2.3279 -3.1098,2.97756c-2.05731,0.65205 -14.42179,0.39365 -16.33327,-0.40326c-1.81527,-0.7568 -2.55471,-2.15558 -2.44173,-3.20653c0.23196,-2.1576 5.31907,-3.76518 11.3624,-3.59059c6.0433,0.17459 10.75436,2.06522 10.52237,4.22283z" fill="url(#color-8)" fill-rule="nonzero" stroke="url(#color-9)" stroke-linecap="butt" stroke-linejoin="miter"/></g></g><g fill="none" fill-rule="nonzero" stroke="none" stroke-width="1" stroke-linecap="butt" stroke-linejoin="miter" font-family="sans-serif" font-weight="normal" font-size="12" text-anchor="start"/></g><path d="M230.89563,211.93511l-23.76805,29.33097" fill="none" fill-rule="nonzero" stroke="#000000" stroke-width="6" stroke-linecap="round" stroke-linejoin="miter"/><path d="M231.83931,218.55281c0,0 3.66238,-5.90432 3.2014,-7.71528c-0.11275,-0.44294 -3.17419,6.95078 -3.67279,6.52776c-2.37766,-2.01725 -8.17583,-3.67243 -8.17583,-3.67243c0,0 0.45895,-5.36249 4.35043,-8.14557c1.07448,-0.76844 4.24259,-2.57913 4.54223,-2.81374c0.38698,-0.30301 27.69057,1.19963 27.69057,1.19963c0,0 -1.23904,4.16541 -1.28242,7.30967c-0.00031,0.02234 -8.75581,-0.80047 -8.76064,-0.45021c-0.02895,2.09839 0.86022,7.7594 0.86022,7.7594c0,0 -5.64779,1.17819 -8.45881,1.22526c-3.09887,0.05189 -10.29437,-1.22445 -10.29437,-1.22445z" fill="url(#color-10)" fill-rule="nonzero" stroke="#737373" stroke-width="2.5" stroke-linecap="butt" stroke-linejoin="miter"/><g stroke-linejoin="miter"><g data-paper-data="{&quot;index&quot;:null}" stroke-linecap="butt"><path d="M272.46523,186.37225c-4.13875,12.67317 -19.05078,19.68947 -33.30698,15.67137c-14.25618,-4.01811 -22.45798,-17.54905 -18.31921,-30.22223c4.13875,-12.67317 19.05078,-19.68947 33.30698,-15.67137c14.25618,4.01811 22.45798,17.54905 18.31921,30.22223z" fill="none" fill-rule="nonzero" stroke="#000000" stroke-width="4.5"/><g><g fill-rule="nonzero"><path d="M236.19367,159.95877l0.00911,0.0109" data-paper-data="{&quot;index&quot;:null}" fill="#ffab19" stroke="#000000" stroke-width="5"/><g data-paper-data="{&quot;index&quot;:null}" fill="none" stroke="none" stroke-width="1" font-family="sans-serif" font-weight="normal" font-size="12" text-anchor="start"/></g><path d="M236.19367,159.95877l0.00911,0.0109" data-paper-data="{&quot;index&quot;:null}" fill="#ffab19" fill-rule="nonzero" stroke="#000000" stroke-width="5"/><path d="M245.98063,180.16585" fill="#001026" fill-rule="evenodd" stroke="#000000" stroke-width="5"/><g data-paper-data="{&quot;index&quot;:null}" fill="none" fill-rule="nonzero" stroke="none" stroke-width="1" font-family="sans-serif" font-weight="normal" font-size="12" text-anchor="start"/><g data-paper-data="{&quot;index&quot;:null}" fill="none" fill-rule="nonzero" stroke="none" stroke-width="1" font-family="sans-serif" font-weight="normal" font-size="12" text-anchor="start"/></g></g><path d="M243.23469,190.16243c-0.52354,1.91021 -14.08847,2.92959 -18.27178,1.94008c-4.18329,-0.9895 -0.8394,-8.25604 -0.31586,-10.16625c0.06771,-0.24709 18.6508,7.9957 18.58763,8.22616z" fill="#ffffff" fill-rule="nonzero" stroke="#000000" stroke-width="3" stroke-linecap="butt"/><path d="M262.94538,163.90462l-39.47422,8.58067l-4.61507,13.1399l-10.11216,-33.39197l50.99707,-7.492l10.51299,21.62146z" fill="#000000" fill-rule="nonzero" stroke="#191919" stroke-width="3" stroke-linecap="round"/><path d="M225.0186,169.70057l25.50404,8.27139l-0.85242,4.71219" fill="none" fill-rule="nonzero" stroke="#000000" stroke-width="5" stroke-linecap="round"/><path d="M257.92404,184.62211l-0.11397,-5.3074l16.79739,-16.67994" fill="none" fill-rule="nonzero" stroke="#000000" stroke-width="5" stroke-linecap="round"/></g><g fill-rule="nonzero" stroke-linecap="butt" stroke-linejoin="miter"><g data-paper-data="{&quot;index&quot;:null}" stroke="none" stroke-width="1"><path d="M264.23517,206.29882c-0.21725,0.05707 -0.33503,-0.03652 -0.45163,-0.16981c-0.16551,-0.22452 -0.2785,-0.47704 -0.42641,-0.71092c-0.07703,-0.01758 -0.15406,-0.0352 -0.22293,-0.0376c-1.46162,-0.12045 -2.5793,-0.77581 -3.57878,-1.63093c-0.20992,-0.18131 -0.43741,-0.35333 -0.56786,-0.59649c-0.02444,-0.04561 -0.07459,-0.09706 -0.12597,-0.10878c-0.28247,-0.06451 -0.3885,-0.2621 -0.52017,-0.46558c-0.11537,-0.17304 -0.19571,-0.36477 -0.29354,-0.54717c-0.05707,-0.10638 -0.07911,-0.23145 -0.01475,-0.36348c0.06439,-0.13199 0.05173,-0.28159 0.04719,-0.41596c-0.11463,-0.75969 -0.08217,-1.53913 0.0799,-2.32899c0.09981,-0.44399 0.28475,-0.85519 0.48725,-1.27569c0.59812,-1.23706 1.51703,-2.25417 2.66339,-3.0993c0.52001,-0.37467 1.09831,-0.6827 1.70921,-0.92995c0.46255,-0.18773 0.94717,-0.25043 1.42241,-0.28861c1.51214,-0.12143 2.85432,0.23847 4.04781,0.9512c0.22866,0.13226 0.42108,0.32288 0.61349,0.51354c0.13412,0.12396 0.27762,0.22343 0.50177,0.22131c0.19848,-0.00798 0.34196,0.09145 0.45854,0.22475c0.16551,0.22452 0.29597,0.46771 0.42642,0.71092c0.04077,0.07601 0.03835,0.15549 0.03589,0.23496c-0.04355,0.29678 0.02618,0.55278 0.13914,0.8053c0.25973,0.52613 0.32786,1.11516 0.41353,1.69486c0.02774,0.21975 0.038,0.44876 0.00504,0.68131c-0.09198,0.7525 -0.2178,1.48399 -0.55026,2.20825c0.12229,0.22797 0.23524,0.48051 0.36573,0.72368c0.04893,0.09121 0.10599,0.1976 0.03346,0.31438c-0.05501,0.10745 0.01144,0.18935 0.06038,0.28051c0.30865,0.61728 0.63479,1.22526 0.94343,1.84255c0.70815,1.36207 1.42454,2.73929 2.09767,4.12002c0.65682,1.35033 1.36627,2.67263 2.05812,4.0043c0.11417,0.21279 0.1851,0.42904 0.29926,0.6418c0.55449,1.03354 1.10894,2.06709 1.64591,3.10995c0.09785,0.18238 0.23073,0.34612 0.21525,0.5693c-0.00241,0.07948 0.05585,0.14612 0.09661,0.22212c0.40775,0.75995 0.80605,1.54445 1.21376,2.30441c0.0163,0.0304 0.04074,0.07599 0.05707,0.10638c0.14801,0.23385 0.09055,0.42079 -0.09771,0.65787c-0.63609,0.78829 -1.44584,1.33684 -2.42927,1.64574c-0.25228,0.07574 -0.52084,0.12109 -0.78822,0.12672c-0.19848,0.00798 -0.33381,-0.07625 -0.43287,-0.21889c-0.29718,-0.42798 -0.61191,-0.84661 -0.91726,-1.28979c-0.21444,-0.31572 -0.402,-0.66531 -0.66899,-0.953c-0.58416,-0.62689 -0.96619,-1.38098 -1.49779,-2.03582c-0.29026,-0.37302 -0.60743,-0.71222 -0.88018,-1.09459c-0.28904,-0.41276 -0.60497,-0.79167 -0.9034,-1.17988c-0.53853,-0.70982 -1.05016,-1.45352 -1.60621,-2.15398c-0.75658,-0.9063 -1.44315,-1.85002 -2.12965,-2.79366c-0.24012,-0.3216 -0.48024,-0.6431 -0.72036,-0.96472c-0.36368,-0.50983 -0.73543,-1.03485 -1.09906,-1.54467c-0.19815,-0.28531 -0.42316,-0.53677 -0.62131,-0.82205c-0.22384,-0.29122 -0.37873,-0.57995 -0.59317,-0.89568zM264.55909,205.8527c0.25921,-0.02081 0.50213,-0.072 0.73809,-0.17813c0.52902,-0.10592 1.01848,-0.32752 1.50794,-0.54916c0.62029,-0.27177 1.22547,-0.61366 1.81315,-0.94624c0.67529,-0.37924 1.21647,-0.88245 1.76704,-1.41021c0.05378,-0.06774 0.10758,-0.13547 0.18825,-0.23706c-0.0652,-0.1216 -0.13049,-0.24317 -0.19571,-0.36475c-0.0163,-0.0304 -0.05013,-0.05147 -0.09212,-0.08771c-0.12267,0.06532 -0.23719,0.14587 -0.34356,0.24161c-0.18582,0.15761 -0.37044,0.27546 -0.55626,0.43305c-0.4768,0.37122 -1.04453,0.61504 -1.54578,0.94065c-0.27223,0.16457 -0.52815,0.35946 -0.81668,0.49362c-0.63782,0.28113 -1.23486,0.63818 -1.90525,0.85847c-0.17405,0.0536 -0.36556,0.11658 -0.53963,0.17016c-0.11903,-0.05388 -0.24291,0.05123 -0.34686,0.06748c-0.12961,0.0104 -0.25924,0.02082 -0.4438,0.13869c0.22866,0.13226 0.2821,0.35785 0.45004,0.5029c0.09579,-0.03146 0.21479,0.02237 0.32116,-0.07337zM265.53722,205.99613c-0.47646,0.07787 -0.58971,0.11869 -0.80126,0.27044c0.11537,0.17304 0.22262,0.33092 0.33797,0.50398c0.05707,0.10638 0.16792,0.14509 0.29758,0.13466c0.08645,-0.00694 0.17401,-0.05361 0.26042,-0.06056c0.31996,-0.0336 0.64233,-0.14672 0.91455,-0.31124c0.16344,0.01062 0.30363,-0.06398 0.44384,-0.13868c0.79673,-0.40483 1.58412,-0.78518 2.34011,-1.26599c0.33419,-0.21708 0.66022,-0.44936 0.96055,-0.6875c0.23027,-0.20082 0.47804,-0.41095 0.59048,-0.70536c-0.10603,-0.1976 -0.21204,-0.39515 -0.31803,-0.59278c-0.12389,0.10505 -0.23028,0.2008 -0.31909,0.28718c-0.42546,0.38293 -0.8672,0.7355 -1.34158,1.02725c-0.6064,0.38161 -1.2536,0.68723 -1.89262,1.00808c-0.29793,0.15869 -0.62724,0.21687 -0.91698,0.39073c-0.21479,-0.02238 -0.39819,0.05575 -0.5559,0.13974zM276.78577,221.75521c0.29425,-0.03948 0.54775,-0.15493 0.78492,-0.30081c0.02565,0.00586 0.06889,0.00239 0.08643,-0.00697c0.41243,-0.23921 0.80856,-0.50883 1.1207,-0.85098c0.18708,-0.19735 0.38225,-0.37948 0.46776,-0.63999c-0.45664,-0.85116 -0.91329,-1.70226 -1.39434,-2.59906c-0.3309,0.39119 -0.71071,0.69127 -1.09865,0.97603c-0.33541,0.25683 -0.71036,0.3979 -1.06206,0.62431c-0.14017,0.07468 -0.27101,0.12484 -0.41121,0.19951c-0.25103,0.036 -0.50333,0.11176 -0.77434,0.23655c0.24464,0.45599 0.61315,0.80688 0.87652,1.21379c0.28904,0.41277 0.59562,0.81622 0.87651,1.21376c0.21479,0.02238 0.37129,-0.02187 0.5278,-0.06618zM274.70871,218.93358c0.16343,0.01061 0.31181,-0.04883 0.45195,-0.1235c0.17283,-0.01386 0.32241,-0.11308 0.48826,-0.18187c0.49884,-0.24618 0.95691,-0.56832 1.38111,-0.91153c0.24775,-0.21013 0.47922,-0.4507 0.643,-0.73335c-0.03261,-0.06081 -0.04772,-0.13092 -0.08035,-0.19171c-0.39954,-0.74481 -0.79092,-1.47431 -1.17296,-2.22839c-0.40649,-0.79968 -0.80483,-1.58416 -1.21131,-2.38385c-0.60221,-1.16446 -1.17865,-2.32308 -1.78089,-3.48753c-0.65804,-1.31059 -1.36053,-2.57797 -1.9835,-3.90723c-0.09662,-0.22212 -0.23651,-0.44075 -0.35879,-0.66877c-0.16013,0.16347 -0.28644,0.34799 -0.4629,0.48107c-0.53996,0.46349 -1.14638,0.8451 -1.76909,1.19635c-0.56075,0.29868 -1.12971,0.58217 -1.69866,0.86566c-0.24415,0.09095 -0.46256,0.18776 -0.7067,0.2787c-0.1891,-0.01654 -0.33052,0.09788 -0.48703,0.14216c-0.17405,0.0536 -0.34684,0.06748 -0.51393,0.17603c0.04649,0.17066 0.14679,0.2736 0.22138,0.37062c0.67389,0.79408 1.21568,1.67803 1.83697,2.50009c0.39749,0.5309 0.79495,1.06181 1.20998,1.58333c0.53853,0.70982 1.0864,1.39508 1.61679,2.08968c0.43948,0.56713 0.87894,1.13432 1.30086,1.71082c0.46391,0.61278 0.90214,1.21966 1.34857,1.84174c0.41378,0.56127 0.83575,1.13777 1.2752,1.70493c0.16584,-0.06881 0.31994,-0.03363 0.45198,-0.12349zM269.63523,195.44927c-0.31213,0.34211 -0.64757,0.59897 -0.97477,0.87097c-0.34477,0.28136 -0.66383,0.56858 -1.01675,0.83469c-0.33541,0.25682 -0.70466,0.49259 -1.04821,0.73416c-0.3611,0.25096 -0.72216,0.5019 -1.10887,0.74698c-0.3517,0.22639 -0.7291,0.44694 -1.08081,0.67336c-0.37738,0.22053 -0.78739,0.38032 -1.13216,0.66166c-0.41689,0.10482 -0.76983,0.37097 -1.146,0.55181c-0.40182,0.17493 -0.80492,0.38965 -1.20675,0.56459c-0.3843,0.1656 -0.79432,0.32534 -1.18678,0.47577c-0.41002,0.15975 -0.83511,0.24935 -1.22058,0.45471c0.16065,0.38345 0.21772,0.48982 0.50468,0.68875c0.25103,-0.036 0.50215,-0.07201 0.77191,-0.1571c0.32238,-0.11308 0.64474,-0.22614 0.99281,-0.33337c0.65292,-0.21095 1.28014,-0.42782 1.89349,-0.7545c0.42059,-0.22402 0.83302,-0.46326 1.28624,-0.62645c0.09579,-0.03146 0.20092,-0.08748 0.28973,-0.17387c0.1858,-0.15762 0.42182,-0.26374 0.63207,-0.37577c0.77108,-0.4107 1.49321,-0.9126 2.18968,-1.4204c0.93367,-0.65366 1.77519,-1.39501 2.59221,-2.182c0.16828,-0.14828 0.3366,-0.29653 0.40336,-0.50798c-0.08725,-0.24667 -0.2271,-0.46534 -0.43457,-0.7261zM261.58513,197.41159c-0.03417,0.27225 0.00172,0.5072 0.02011,0.75145c0.00205,0.21386 0.0824,0.40559 0.25035,0.55065c0.29268,0.29357 0.54098,0.63034 0.71912,1.00447c0.0163,0.0304 0.05826,0.06668 0.06643,0.08188c0.11206,-0.00108 0.18215,-0.03844 0.24535,-0.1307c0.00938,-0.0245 0.01059,-0.06426 0.00244,-0.07947c-0.1839,-0.46878 -0.33272,-0.95621 -0.44653,-1.46234c-0.01507,-0.07014 -0.04649,-0.17065 -0.11418,-0.21279c-0.20056,-0.20586 -0.40111,-0.41168 -0.74312,-0.50314zM261.76492,200.26667c-0.16759,-0.43837 -0.29195,-0.88021 -0.39066,-1.3162c-0.03021,-0.14023 -0.10478,-0.23732 -0.22261,-0.33089c-0.18547,-0.13569 -0.38968,-0.22238 -0.60206,-0.32424c-0.06767,-0.04213 -0.14345,-0.09945 -0.23232,-0.01305c0.051,0.30507 0.07634,0.60427 0.16235,0.89063c0.6404,0.47968 0.64038,0.47968 1.04929,1.19988c0.07704,0.0176 0.15529,-0.00456 0.23597,-0.10616zM266.8831,199.4752c0.07667,0.31093 0.17088,0.61254 0.26508,0.91412c0.01507,0.07015 0.0302,0.14025 0.08033,0.19171c0.2531,0.17784 0.48877,0.365 0.80506,0.45062c0.11244,-0.2944 0.04271,-0.55039 0.03369,-0.8192c-0.0045,-0.13437 -0.07098,-0.21625 -0.18063,-0.29464c-0.27064,-0.16852 -0.50629,-0.35572 -0.73246,-0.56741c-0.00815,-0.0152 -0.05133,-0.01175 -0.10268,-0.02346c-0.04441,0.04319 -0.10641,0.09577 -0.1683,0.14828zM265.06541,195.4992c-0.09735,0.36453 -0.08019,0.64853 -0.08054,0.94184c0.01386,0.10987 0.07217,0.1765 0.13047,0.24317c0.30087,0.30876 0.54909,0.6456 0.73545,1.0349c0.02445,0.0456 0.06643,0.08187 0.09091,0.12743c0.20093,-0.08748 0.22783,-0.12133 0.16258,-0.24292c-0.21203,-0.39521 -0.32823,-0.82184 -0.34054,-1.26475c-0.009,-0.2688 -0.12438,-0.44185 -0.31801,-0.59278c-0.1272,-0.06908 -0.22868,-0.13229 -0.3803,-0.24692zM263.84092,199.18045c0.0876,-0.04669 0.07249,-0.11683 0.03989,-0.17763c-0.22829,-0.42557 -0.3083,-0.9106 -0.38825,-1.39568c-0.07425,-0.39036 -0.33188,-0.70263 -0.77413,-0.89699c-0.04928,0.20212 0.01473,0.36346 0.0005,0.54692c-0.02031,0.38213 0.13462,0.67088 0.36779,0.93756c0.24948,0.29703 0.5165,0.58477 0.66085,0.9378c0.04201,0.03624 0.06767,0.04216 0.09335,0.04801zM263.84699,196.16772c-0.00731,0.23839 -0.02972,0.40666 -0.03456,0.56559c-0.01663,0.26293 0.06367,0.45465 0.2479,0.63011c0.26007,0.23278 0.45821,0.51809 0.63883,0.8127c0.07462,0.09709 0.13984,0.21866 0.19691,0.32503c0.09579,-0.03146 0.08884,-0.08637 0.07252,-0.11678c-0.14888,-0.48744 -0.28017,-0.98421 -0.33322,-1.50315c-0.02325,-0.08532 -0.03835,-0.15546 -0.09664,-0.22212c-0.20178,-0.16612 -0.38602,-0.34157 -0.69171,-0.49141zM267.90558,198.73518c0.22503,0.25145 0.3192,0.55304 0.43093,0.8453c0.04077,0.076 0.02081,0.1648 0.09662,0.22211c0.11784,0.0936 0.45857,0.22476 0.72474,0.25891c0.04114,-0.21735 -0.02168,-0.41838 -0.04125,-0.62294c-0.02082,-0.16481 -0.10356,-0.27705 -0.25642,-0.35197c-0.25432,-0.13812 -0.47364,-0.2949 -0.65668,-0.51009c-0.00815,-0.01522 -0.05952,-0.0269 -0.08517,-0.03278c-0.07827,0.02215 -0.14836,0.05946 -0.21272,0.19148zM262.45053,202.93053c0.21931,0.15676 0.34039,0.42451 0.60411,0.5381c0.11452,-0.08054 0.12634,-0.18454 0.16381,-0.28267c0.05742,-0.18695 0.1487,-0.35278 0.14663,-0.56664c-0.25191,-0.2176 -0.37996,-0.54023 -0.62251,-0.78233c-0.11206,0.00108 -0.19971,0.04773 -0.271,0.12482c0.03349,0.3144 0.02377,0.63226 -0.02102,0.96877zM264.87114,200.72276c0.04649,0.17066 0.09297,0.34133 0.06243,0.49437c-0.07169,0.37037 0.0845,0.61943 0.3633,0.80313c0.10147,0.06319 0.1504,0.1544 0.30449,0.18961c0.09369,-0.24536 0.12669,-0.47788 0.15961,-0.71039c0.0106,-0.06427 -0.02206,-0.12505 -0.08033,-0.19171c-0.19243,-0.19064 -0.35915,-0.37542 -0.55153,-0.56608c-0.02444,-0.04561 -0.09215,-0.08773 -0.25803,-0.01891zM263.76717,201.3108c0.1093,0.37172 0.16719,0.7317 0.06987,1.09624c-0.0281,0.07359 0.02205,0.12505 0.05467,0.18584c0.09091,0.12746 0.19936,0.2456 0.37786,0.32635c0.1312,-0.34348 0.17473,-0.64029 0.21013,-0.95226c0.0118,-0.10399 -0.01141,-0.18931 -0.0779,-0.27119c-0.1247,-0.14855 -0.23199,-0.30639 -0.35672,-0.45491c-0.00815,-0.01522 -0.05953,-0.02694 -0.08519,-0.0328c-0.05257,0.02799 -0.10516,0.05601 -0.19274,0.10269zM266.79687,195.53456c-0.15163,-0.11464 -0.31142,-0.24454 -0.46306,-0.3592c-0.02565,-0.00586 -0.05138,-0.01174 -0.1027,-0.02345c-0.1194,0.23946 -0.12668,0.47789 -0.10712,0.6824c0.37547,0.40583 0.73458,0.78125 1.01183,1.29805c0.11488,-0.37387 -0.13828,-0.55169 -0.19171,-0.77728c-0.0779,-0.27119 -0.1126,-0.54583 -0.1473,-0.82048zM261.14404,197.17751c-0.27308,-0.08905 -0.51117,-0.19675 -0.81354,-0.17248c-0.01303,0.14372 -0.05987,0.2664 -0.0635,0.38561c-0.00362,0.11919 -0.02481,0.24771 0.0323,0.35411c0.12596,0.10876 0.29756,0.13463 0.44226,0.19436c0.14471,0.05968 0.26251,0.15333 0.44346,0.15465c-0.00782,-0.30854 -0.02494,-0.5925 -0.0409,-0.91624zM260.65969,200.89445c-0.17453,-0.49329 -0.32585,-0.90129 -0.47709,-1.30924c-0.0163,-0.0304 -0.02322,-0.08536 -0.0746,-0.09707c-0.21236,-0.10184 -0.406,-0.25277 -0.69086,-0.23781c0.04405,0.25013 0.07997,0.48507 0.13341,0.71067c0.41536,0.22825 0.74186,0.54285 1.10917,0.9335zM266.76614,201.60902c0.10064,-0.19042 0.05414,-0.36106 0.05902,-0.51998c0.01425,-0.18346 -0.02409,-0.33891 -0.1839,-0.46876c-0.20992,-0.18131 -0.41986,-0.36264 -0.51531,-0.62452c-0.139,0.03495 -0.20093,0.08748 -0.152,0.17867c0.10478,0.2373 0.21771,0.48984 0.21858,0.74342c0.01474,0.36346 0.27725,0.51682 0.57362,0.69117zM264.85189,202.19866c-0.0892,0.37973 -0.17594,0.67999 -0.24519,0.9709c0.05707,0.10638 0.14226,0.13921 0.20992,0.1813c0.08519,0.0328 0.16914,0.1053 0.30811,0.07038c0.12756,-0.22431 0.22123,-0.46959 0.28929,-0.72077c-0.15857,-0.16956 -0.32652,-0.31464 -0.56212,-0.50182zM268.00268,201.47802c-0.28001,-0.14399 -0.52624,-0.26688 -0.78055,-0.40501c-0.01666,0.26293 -0.04147,0.51068 -0.06632,0.75839c0.22866,0.13226 0.41415,0.268 0.6978,0.29273c0.08433,-0.22077 0.10793,-0.4288 0.14906,-0.64612zM261.7243,196.24306c-0.16137,0.20319 -0.10793,0.4288 -0.13156,0.63679c-0.0106,0.06427 0.04768,0.13092 0.10723,0.15784c0.18668,0.096 0.34768,0.18613 0.5262,0.26695c0.00815,0.0152 0.04322,-0.00349 0.07828,-0.02214c0.00854,-0.27813 -0.00871,-0.56209 -0.00015,-0.84023c-0.16913,-0.10532 -0.37457,-0.15224 -0.58001,-0.19913zM264.65835,195.28609c-0.1598,-0.12984 -0.31141,-0.24451 -0.56126,-0.24825c-0.06679,0.21148 -0.16867,0.44162 -0.15845,0.67068c0.10964,0.0784 0.18425,0.17544 0.30327,0.2293c0.10145,0.06319 0.14918,0.19415 0.33137,0.15571c0.03419,-0.27226 0.06837,-0.5445 0.08506,-0.80748zM268.45248,201.14073c0.14348,0.09945 0.34198,0.09143 0.5486,0.09863c0.04239,-0.25706 0.14417,-0.4872 0.10016,-0.73732c-0.20544,-0.04693 -0.38274,-0.16742 -0.64075,-0.18636c-0.00854,0.27813 0.00048,0.54693 -0.00802,0.82505zM268.86162,197.91331c0.12925,0.28291 0.33678,0.54368 0.43095,0.84531c0.08726,0.24666 0.27518,0.30286 0.55069,0.31247c0.03297,-0.2325 -0.02168,-0.41838 -0.06697,-0.62877c-0.35827,-0.12182 -0.60086,-0.36394 -0.9147,-0.52899zM259.56422,201.20435c0.06195,-0.05253 0.03746,-0.09812 0.01303,-0.14372c-0.08847,-0.20691 -0.20263,-0.41972 -0.27358,-0.63598c-0.08484,-0.32611 -0.34163,-0.38475 -0.65915,-0.43061c0.02204,0.1251 0.02777,0.21972 0.05101,0.30504c0.04531,0.21038 0.11744,0.38689 0.36487,0.47011c0.14471,0.05969 0.25313,0.17787 0.35345,0.28077c0.01507,0.07015 0.02081,0.16479 0.1504,0.15439zM261.84016,203.72467c0.05501,-0.10745 0.07497,-0.19628 0.10308,-0.26987c0.11001,-0.21491 0.08919,-0.37975 -0.04372,-0.54346c-0.11656,-0.13332 -0.18875,-0.30986 -0.28782,-0.45251c-0.02444,-0.04562 -0.0314,-0.10052 -0.16223,-0.05039c0.0265,0.25947 0.01803,0.53761 -0.0337,0.8192c-0.0106,0.06427 0.03019,0.14021 0.06278,0.20103c0.10026,0.1029 0.19242,0.19068 0.36157,0.29596zM266.67445,202.06822c-0.15161,-0.11465 -0.29389,-0.25383 -0.48999,-0.32526c-0.08553,0.26054 -0.20491,0.49999 -0.2216,0.76292c0.18669,0.09598 0.32078,0.21997 0.56249,0.20851c0.06681,-0.21148 0.15932,-0.41709 0.14905,-0.64612zM263.38396,196.64886c0.08551,-0.26052 0.09283,-0.49894 0.06506,-0.71864c-0.18668,-0.09599 -0.34769,-0.18608 -0.57881,-0.23887c-0.09128,0.16588 -0.11365,0.33415 -0.11036,0.50826c0.21114,0.14157 0.40479,0.29249 0.62407,0.44929zM265.4899,203.5981c0.16226,0.0504 0.25555,0.09838 0.3758,0.11249c0.07703,0.01758 0.1459,0.02001 0.21481,0.02238c0.13446,-0.16933 0.23511,-0.35973 0.25873,-0.56774c-0.16913,-0.10532 -0.33831,-0.21061 -0.57066,-0.22366c-0.08433,0.22077 -0.18496,0.4112 -0.27866,0.65651zM260.59564,202.70691c-0.09489,0.28508 -0.16987,0.48131 -0.24606,0.71731c0.01507,0.07014 0.08966,0.16718 0.19118,0.23038c0.08395,0.07252 0.106,0.19758 0.25192,0.21758c0.13325,-0.12961 0.19762,-0.2616 0.22819,-0.41467c-0.148,-0.23385 -0.27028,-0.46186 -0.42519,-0.75063zM260.41158,196.61002c0.12842,0.02931 0.25682,0.05866 0.38518,0.088c0.12844,0.02931 0.24865,0.04343 0.37702,0.07276c0.03299,-0.2325 0.09042,-0.41947 0.03579,-0.60532c-0.10148,-0.06318 -0.22294,-0.03758 -0.33501,-0.03654c-0.11206,0.00108 -0.24864,-0.04342 -0.36313,0.03709c-0.04806,0.16243 -0.11243,0.29438 -0.09978,0.44401zM267.69431,202.54121c-0.22173,-0.0773 -0.40721,-0.21306 -0.68277,-0.2226c-0.05741,0.18694 -0.09733,0.36452 -0.15479,0.55148c0.22173,0.0773 0.40025,0.15814 0.65133,0.12208c0.08189,-0.14133 0.18012,-0.25228 0.1862,-0.45094zM259.97792,198.95166c-0.04161,-0.32959 -0.08445,-0.61944 -0.12731,-0.90925c-0.11903,-0.05388 -0.22052,-0.11708 -0.35949,-0.08212c-0.10307,0.26989 -0.07654,0.52931 -0.06751,0.7981c0.11903,0.05388 0.23804,0.10774 0.36642,0.13707c0.05014,0.05149 0.09333,0.04798 0.18788,0.05626zM264.15108,203.41226c-0.19488,-0.11116 -0.29269,-0.29359 -0.49813,-0.34051c-0.11121,0.25467 -0.21306,0.4848 -0.25543,0.7419c0.17979,0.04105 0.26128,0.19306 0.48546,0.1909c0.13444,-0.16932 0.16624,-0.36216 0.2681,-0.59228zM265.29188,194.57735c-0.07374,0.15654 -0.12179,0.31893 -0.12665,0.47789c0.20302,0.12637 0.38845,0.26209 0.60776,0.41886c0.01545,-0.22317 0.05536,-0.40078 0.11404,-0.62745c-0.20302,-0.12638 -0.38031,-0.24692 -0.59513,-0.26931zM262.10719,204.01236c0.17608,0.16027 0.31838,0.29943 0.55885,0.32771c0.09941,-0.15067 0.18948,-0.27678 0.19435,-0.43573c-0.16794,-0.14506 -0.31835,-0.2994 -0.52014,-0.46554c-0.10064,0.19042 -0.18375,0.37148 -0.23304,0.5736zM263.57454,195.49208c0.02482,-0.24772 0.16866,-0.44164 0.114,-0.6275c-0.18668,-0.09599 -0.37581,-0.1125 -0.57431,-0.1045c-0.0831,0.18107 -0.1744,0.34693 -0.1373,0.54212c0.18789,0.05626 0.35829,0.12181 0.59754,0.18982zM268.88507,201.6529c-0.17977,-0.04106 -0.32444,-0.10076 -0.51479,-0.07754c-0.03297,0.2325 -0.16867,0.4416 -0.13277,0.67654c0.16225,0.0504 0.30001,0.05519 0.46588,-0.01363c0.07496,-0.19626 0.12426,-0.39837 0.18166,-0.58531zM259.02509,199.10737c-0.17039,-0.0656 -0.29058,-0.07969 -0.43778,-0.06c-0.05742,0.18695 -0.08107,0.39494 0.01682,0.5773c0.15408,0.03519 0.3081,0.07038 0.47036,0.12079c0.05052,-0.24188 -0.02981,-0.43357 -0.04943,-0.63811zM270.5924,198.53519c-0.14588,-0.02 -0.26618,-0.03411 -0.37943,0.00668c-0.02362,0.20796 -0.01212,0.39732 0.0425,0.58317c0.13651,0.04455 0.25678,0.05866 0.39575,0.02371c0.04114,-0.21735 -0.0392,-0.40905 -0.05882,-0.61357zM266.5195,203.75319c0.20297,0.12639 0.35134,0.06691 0.50091,-0.03229c0.12267,-0.06532 0.22904,-0.16108 0.21637,-0.31069c-0.17039,-0.0656 -0.33259,-0.11598 -0.5311,-0.10798c-0.07374,0.15654 -0.12996,0.30375 -0.18619,0.45093zM267.62857,195.11106c-0.12595,-0.10878 -0.19117,-0.23036 -0.3546,-0.24102c-0.21185,0.44507 0.03066,0.68721 0.37715,0.913c-0.01022,-0.22906 -0.01229,-0.44297 -0.02253,-0.67198zM264.70222,204.27174c0.12513,-0.14478 0.18947,-0.27678 0.22123,-0.46959c-0.16344,-0.01062 -0.26255,-0.15329 -0.43533,-0.13942c-0.09703,0.0712 -0.09942,0.15066 -0.14507,0.23359c-0.03747,0.09811 -0.10879,0.17521 -0.05173,0.2816c0.11903,0.05388 0.23807,0.10773 0.41088,0.09385zM264.21134,198.905c0.24167,-0.01148 0.33054,-0.09788 0.27466,-0.24399c-0.08845,-0.20691 -0.21201,-0.39518 -0.32738,-0.56824c-0.03258,-0.06078 -0.09094,-0.12743 -0.21237,-0.10184c0.05916,0.32026 0.15335,0.62182 0.26507,0.91408zM269.90025,201.15126c0.08395,0.07253 0.17854,0.08079 0.29185,0.04c0.10187,-0.23015 0.24694,-0.46375 0.23793,-0.73254c-0.25921,0.02082 -0.40067,0.13521 -0.44177,0.35254c-0.03746,0.09813 -0.11819,0.19977 -0.088,0.34001zM266.47803,197.50222c0.24532,-0.13065 0.28156,-0.18911 0.20823,-0.32587c-0.13169,-0.20344 -0.27151,-0.4221 -0.4733,-0.58822c0.00658,0.34827 0.02253,0.67199 0.26507,0.91409zM269.91279,197.6465c0.04769,0.13091 0.10483,0.23733 0.14434,0.35304c0.0966,0.22215 0.09664,0.22212 0.45287,0.13013c-0.02204,-0.1251 -0.03468,-0.27469 -0.04978,-0.34478c-0.20544,-0.04695 -0.36764,-0.09732 -0.5474,-0.13836zM262.15818,194.74173c-0.0644,0.13201 -0.20578,0.24642 -0.1161,0.41362c0.1459,0.02 0.3012,0.01545 0.47278,0.0413c0.07376,-0.15656 0.17321,-0.30718 0.16052,-0.45679c-0.16347,-0.01061 -0.31753,-0.04587 -0.51723,0.00188zM269.48789,199.4167c0.01842,0.24423 0.01923,0.49784 0.03764,0.7421c0.07582,0.05729 0.16097,0.09012 0.2498,0.00373c0.08433,-0.22077 0.11733,-0.45335 0.06388,-0.67893c-0.11903,-0.05388 -0.22173,-0.0773 -0.35136,-0.06687zM265.95875,194.47623c0.11452,-0.08054 0.16955,-0.18801 0.1907,-0.31654c-0.06767,-0.04213 -0.13533,-0.08425 -0.20302,-0.12636c-0.09331,-0.04801 -0.16918,-0.10531 -0.29062,-0.07969c-0.10514,0.056 -0.17646,0.13303 -0.20577,0.2464c0.16104,0.09012 0.34772,0.18609 0.50868,0.27624zM262.3434,196.01104c0.07376,-0.15656 0.08677,-0.30028 0.07412,-0.44987c-0.1891,-0.01654 -0.36071,-0.04236 -0.52412,-0.05303c-0.11572,0.12031 -0.1369,0.24881 -0.10552,0.34935c0.18787,0.05627 0.3758,0.1125 0.55554,0.15361zM266.91237,194.57407c-0.10148,-0.06318 -0.20297,-0.12639 -0.32201,-0.18027c-0.02565,-0.00586 -0.06074,0.01281 -0.10397,0.01629c-0.04564,0.08292 -0.13447,0.16933 -0.1218,0.31893c0.11784,0.09359 0.23443,0.22687 0.42231,0.28315c0.09939,-0.15066 0.12054,-0.2792 0.12543,-0.43813zM268.54254,195.38639c-0.07218,-0.17652 0.10428,-0.30961 0.02275,-0.46159c-0.13531,-0.08423 -0.2262,-0.21172 -0.43166,-0.25863c-0.08189,0.14133 -0.14627,0.27336 -0.0203,0.38211c0.12596,0.10879 0.18181,0.25488 0.42921,0.3381zM270.57422,199.97151c0.01302,-0.14373 0.04354,-0.29679 0.06473,-0.4253c0.00938,-0.02453 -0.02446,-0.04562 -0.04079,-0.07599c-0.10394,0.01628 -0.23233,-0.01308 -0.36556,0.11658c-0.02235,0.16825 -0.03665,0.35172 -0.06838,0.54454c0.15528,-0.00453 0.26859,-0.04537 0.41002,-0.15975zM261.39368,195.5007c-0.15406,-0.03521 -0.3163,-0.08559 -0.44466,-0.11489c-0.13326,0.1296 -0.19766,0.26161 -0.24448,0.38428c0.07464,0.09708 0.20541,0.0469 0.3,0.05518c0.0946,0.00824 0.19726,0.03171 0.31181,-0.04883c0.05378,-0.06774 0.09943,-0.15068 0.0774,-0.27575zM262.97866,204.54484c0.14471,0.05968 0.25559,0.0984 0.36644,0.13704c0.03383,0.02109 0.09458,0.00828 0.12025,0.01413c0.12267,-0.06532 0.1777,-0.17281 0.19884,-0.30134c-0.15286,-0.0749 -0.28821,-0.15917 -0.46789,-0.20028c-0.08067,0.1016 -0.13569,0.20908 -0.21759,0.3504zM270.3777,197.37933c-0.03588,-0.23495 -0.07182,-0.46983 -0.23853,-0.65464c-0.13325,0.1296 -0.26533,0.2195 -0.2877,0.38773c0.22621,0.21172 0.22623,0.21172 0.52621,0.2669zM265.11421,204.32588c0.45287,0.13013 0.47034,0.12078 0.70425,-0.19928c-0.16226,-0.0504 -0.33381,-0.07623 -0.49604,-0.12666c-0.11452,0.08054 -0.16951,0.18799 -0.20824,0.32586zM264.88353,194.40402c-0.15284,-0.07491 -0.28941,-0.11944 -0.46224,-0.10558c-0.0269,0.03387 -0.06318,0.09228 -0.09945,0.15068c-0.01875,0.04908 -0.02933,0.11335 -0.04806,0.16237c0.15286,0.07489 0.29637,0.17436 0.47732,0.17569c0.08066,-0.10159 0.1194,-0.23946 0.13237,-0.38319zM261.54394,204.39055c0.03624,-0.0584 0.08188,-0.14134 0.07497,-0.19628c-0.03711,-0.19521 -0.1537,-0.32847 -0.36609,-0.43036c-0.07256,0.11679 -0.1964,0.22186 -0.20005,0.34109c0.15161,0.11465 0.25886,0.2725 0.49118,0.28555zM259.07901,197.90614c-0.02565,-0.00586 -0.05135,-0.01173 -0.1027,-0.02345c-0.16259,0.24296 -0.24813,0.50348 -0.33365,0.764c0.10964,0.07839 0.2042,0.08663 0.35253,0.02718c0.02482,-0.24772 0.06714,-0.50476 0.08383,-0.76774zM265.15297,197.42635c0.01717,0.284 0.00868,0.56208 0.1648,0.81115c0.00815,0.01522 0.09456,0.00823 0.1296,-0.01042c0.0876,-0.0467 0.12508,-0.14481 0.08429,-0.22078c-0.05341,-0.2256 -0.19448,-0.40453 -0.3787,-0.57994zM264.01982,194.18006c-0.13653,-0.04456 -0.2731,-0.08905 -0.42839,-0.08452c-0.12267,0.06532 -0.19399,0.1424 -0.22454,0.29544c0.17162,0.02585 0.35135,0.06693 0.51478,0.07758c0.08881,-0.08638 0.13445,-0.16932 0.13812,-0.28853zM267.90843,203.1502c0.25349,-0.11548 0.47196,-0.21225 0.62516,-0.43067c-0.12595,-0.10877 -0.28123,-0.10426 -0.4459,-0.07518c-0.09126,0.16587 -0.17317,0.30719 -0.17923,0.50589zM259.82876,203.54532c0.10881,-0.17521 0.11819,-0.1997 0.09374,-0.24534c-0.06399,-0.16131 -0.22502,-0.25147 -0.37787,-0.32636c-0.05948,-0.02691 -0.15529,0.00458 -0.15893,0.12376c0.17853,0.0808 0.21444,0.31575 0.44313,0.44796zM259.83703,197.63919c0.04239,-0.25706 0.11037,-0.50827 -0.01076,-0.77597c-0.18823,0.23705 -0.21308,0.48482 -0.25418,0.70212c0.05827,0.06668 0.12715,0.06903 0.26493,0.07382zM264.01303,204.54109c-0.06315,0.09227 -0.13446,0.16934 -0.19762,0.2616c0.16102,0.09014 0.32324,0.14052 0.49154,-0.00777c0.04443,-0.0432 0.08881,-0.08639 0.07374,-0.15654c-0.08395,-0.07252 -0.20422,-0.08665 -0.36764,-0.09731zM267.57067,196.72485c0.15771,-0.08404 0.2115,-0.15171 0.12875,-0.26397c-0.07462,-0.09709 -0.14922,-0.19413 -0.24136,-0.28185c-0.042,-0.03623 -0.1015,-0.06321 -0.16345,-0.01066c0.04528,0.21039 0.13499,0.37757 0.27603,0.55648zM260.74837,199.96784c0.03589,0.23496 0.10689,0.45119 0.26544,0.62077c0.00816,0.01522 0.09456,0.00823 0.11206,-0.00108c0.03503,-0.01866 0.04564,-0.08292 0.02932,-0.11334c-0.12352,-0.18826 -0.18633,-0.38933 -0.40688,-0.50639zM260.18452,200.93259c-0.13411,-0.12399 -0.22383,-0.29121 -0.41863,-0.40241c0.01839,0.24424 0.07304,0.43011 0.17453,0.4933c0.08395,0.07252 0.15408,0.03521 0.24411,-0.09092zM269.51037,202.06243c0.18582,-0.15761 0.43118,-0.28832 0.45599,-0.53602c-0.38065,0.04644 -0.40545,0.29414 -0.45599,0.53602zM267.78097,199.42693c0.03502,-0.01865 0.04447,-0.04324 0.07949,-0.06188c-0.09906,-0.14263 -0.10237,-0.31677 -0.26339,-0.40688c-0.1133,0.04078 -0.15772,0.084 -0.16951,0.18801c0.10964,0.07839 0.22744,0.17198 0.35345,0.28076zM263.00654,198.84317c0.06159,0.24078 0.11626,0.42665 0.23161,0.59971c0.0163,0.0304 0.06765,0.04213 0.12022,0.01412c0.01754,-0.00935 0.04442,-0.04319 0.05378,-0.06774c-0.03588,-0.23495 -0.13374,-0.4173 -0.40563,-0.54608zM261.93971,204.41425c-0.08881,0.0864 -0.12509,0.14478 -0.06558,0.17172c0.10964,0.07839 0.23684,0.14743 0.36401,0.21651c0.08518,0.0328 0.13775,0.0048 0.1577,-0.084c-0.14224,-0.13921 -0.26824,-0.24799 -0.45612,-0.30424zM262.91984,194.35557c0.04564,-0.08292 0.09943,-0.15069 0.14507,-0.2336c0.0094,-0.02453 -0.00695,-0.05493 -0.01386,-0.10987c-0.21028,0.11196 -0.42749,0.16908 -0.62272,0.35121c0.17162,0.02585 0.29184,0.03997 0.49153,-0.00777zM263.13622,201.64683c0.09906,0.14266 0.18999,0.27013 0.30536,0.44319c0.09369,-0.24536 0.0729,-0.41013 -0.02619,-0.55277c-0.11208,0.00108 -0.17281,0.01387 -0.27921,0.1096zM268.43491,198.33597c0.1272,0.06908 0.1818,0.25489 0.4235,0.24344c-0.14315,-0.39276 -0.1839,-0.46874 -0.28786,-0.4525c-0.0876,0.0467 -0.1239,0.10507 -0.13569,0.20907zM261.9714,199.43366c-0.08801,0.34 0.00989,0.52235 0.20229,0.71303c0.14748,-0.31308 -0.10688,-0.45116 -0.20229,-0.71303zM268.08234,195.49469c-0.07862,0.31546 0.0111,0.48268 0.14399,0.64639c0.00815,0.0152 0.05135,0.01173 0.08639,-0.00694c0.05258,-0.02799 0.07131,-0.07706 0.05499,-0.10745c-0.06398,-0.16132 -0.16305,-0.30397 -0.28538,-0.53195zM269.15386,197.65992c0.12595,0.10878 0.22504,0.25144 0.4573,0.26447c-0.02897,-0.18 -0.11989,-0.30745 -0.20263,-0.41971c-0.12961,0.0104 -0.19151,0.06293 -0.2547,0.15522zM267.86292,194.49765c-0.19607,-0.07146 -0.28576,-0.23865 -0.49363,-0.2061c0.06159,0.24078 0.06159,0.24078 0.36849,0.3509c0.0269,-0.03387 0.05378,-0.06774 0.1251,-0.14481zM269.34683,201.21148c0.22087,-0.17629 0.27016,-0.37841 0.29376,-0.58641c-0.10148,-0.06318 -0.17162,-0.02585 -0.1997,0.04774c-0.02235,0.16826 -0.06229,0.34588 -0.09403,0.53865zM265.04039,194.06637c0.09702,-0.07121 0.17647,-0.13307 0.1801,-0.25224c-0.11085,-0.03865 -0.22174,-0.07735 -0.33499,-0.03653c-0.07948,0.06186 -0.11572,0.12029 -0.11818,0.19977c0.07583,0.0573 0.15287,0.07491 0.2731,0.08902zM265.72586,200.6779c-0.01265,-0.14959 -0.02652,-0.2595 -0.11051,-0.33201c-0.03383,-0.02109 -0.07704,-0.0176 -0.12025,-0.01412c-0.05258,0.02799 -0.1064,0.09574 -0.06441,0.13199c0.04894,0.09122 0.106,0.1976 0.29516,0.21412zM261.63035,194.80789c-0.18218,0.03842 -0.28161,0.18909 -0.40547,0.29418c0.3163,0.0856 0.35134,0.06688 0.40547,-0.29418zM259.19501,201.44007c-0.05222,-0.26532 -0.05221,-0.26532 -0.25888,-0.27253c0.01386,0.10987 0.03592,0.23495 0.25888,0.27253zM266.57458,199.69816c-0.0946,-0.00824 -0.14714,0.01975 -0.14835,0.05946c-0.02235,0.16826 0.0196,0.20453 0.25073,0.25731c-0.00448,-0.13437 -0.05341,-0.22562 -0.10235,-0.31681zM268.88359,195.22429c-0.04683,0.12269 -0.07615,0.23601 0.01593,0.32371c0.2559,-0.19495 0.25715,-0.23463 -0.01593,-0.32371zM258.54164,201.10415c-0.04806,0.16243 -0.00039,0.29333 0.03918,0.40902c0.03259,0.06079 0.10968,0.0784 0.18221,-0.03841c-0.03957,-0.1157 -0.08727,-0.24667 -0.22137,-0.37065zM266.78354,193.99775c0.04649,0.17066 0.13982,0.21868 0.29635,0.17439c0,0 0.0269,-0.03387 0.01873,-0.04907c-0.03142,-0.10053 -0.16914,-0.10534 -0.3151,-0.12535zM264.48646,201.18171c0.08881,-0.0864 0.09128,-0.16589 0.04113,-0.21733c-0.0163,-0.0304 -0.06767,-0.04212 -0.11087,-0.03867c-0.04321,0.00349 -0.07945,0.06184 -0.06312,0.09225c0.00694,0.05494 0.03954,0.11572 0.13288,0.16373zM264.11606,193.85523c0.12718,0.06908 0.22174,0.07734 0.3293,-0.05818c-0.15286,-0.07489 -0.23926,-0.06799 -0.3293,0.05818z" fill="url(#color-11)"/><path d="M267.14642,206.64372c0.56892,-0.28347 1.13791,-0.56698 1.69867,-0.86569c0.63089,-0.33604 1.22912,-0.73285 1.76909,-1.19634c0.1683,-0.14827 0.28524,-0.30824 0.46291,-0.48104c0.13047,0.24321 0.26216,0.4466 0.35878,0.66874c0.61484,1.31406 1.32543,2.59666 1.98349,3.90723c0.58464,1.17381 1.17871,2.32305 1.7809,3.48753c0.4065,0.79969 0.80481,1.58419 1.21128,2.38387c0.38202,0.75411 0.79094,1.47429 1.17299,2.22837c0.03261,0.06081 0.06524,0.1216 0.08032,0.19172c-0.15561,0.29788 -0.37776,0.51387 -0.64302,0.73335c-0.42425,0.34323 -0.88229,0.66537 -1.38111,0.91152c-0.15771,0.08404 -0.30728,0.18322 -0.48824,0.18187c0.14142,-0.11442 0.34109,-0.16216 0.4931,-0.34082c-0.25308,-0.17785 -0.33917,-0.46423 -0.48716,-0.69811c-0.00815,-0.0152 -0.01629,-0.03039 -0.03381,-0.02108c-0.36033,-0.33571 -0.5968,-0.7765 -0.91275,-1.1554c-0.11658,-0.13331 -0.28576,-0.23864 -0.33226,-0.40927c-0.12801,-0.32267 -0.44069,-0.52742 -0.56873,-0.8501c-0.00815,-0.0152 -0.04199,-0.03626 -0.05829,-0.06668c-0.20749,-0.26074 -0.42433,-0.49703 -0.59681,-0.77647c-0.17939,-0.33438 -0.48268,-0.5637 -0.62702,-0.91673c-0.21114,-0.14157 -0.28208,-0.35786 -0.41375,-0.5613c-0.0163,-0.0304 -0.02449,-0.04561 -0.04076,-0.07599c-0.30328,-0.22932 -0.40442,-0.58581 -0.6376,-0.85249c-0.23317,-0.26665 -0.36936,-0.60449 -0.58503,-0.88046c-0.24011,-0.32159 -0.52466,-0.59992 -0.66777,-0.99274c-0.0163,-0.0304 -0.04076,-0.07602 -0.0746,-0.09707c-0.19488,-0.11116 -0.24011,-0.32157 -0.35547,-0.49464c-0.04894,-0.09122 -0.08847,-0.2069 -0.17245,-0.27945c-0.14346,-0.09947 -0.19118,-0.23038 -0.26458,-0.36718c-0.04077,-0.076 -0.06402,-0.16136 -0.13169,-0.20343c-0.21114,-0.14157 -0.29026,-0.37302 -0.39626,-0.5706c-0.04077,-0.076 -0.06402,-0.16131 -0.13167,-0.20346c-0.17727,-0.12053 -0.24949,-0.29704 -0.33917,-0.46426c-0.1468,-0.2736 -0.41621,-0.48183 -0.54544,-0.76473c-0.00695,-0.05493 -0.08394,-0.07254 -0.12596,-0.10878z" fill="#87d7dc"/><path d="M267.14643,206.64375c0.04198,0.03627 0.11904,0.05385 0.14349,0.09946c0.12927,0.28291 0.38115,0.50049 0.54546,0.76474c0.08968,0.1672 0.16188,0.34374 0.33916,0.46425c0.06767,0.04213 0.09092,0.12747 0.13169,0.20342c0.10602,0.19757 0.2026,0.41972 0.39622,0.57065c0.06767,0.04213 0.0734,0.13681 0.1317,0.20344c0.07338,0.13677 0.13862,0.2584 0.26458,0.36718c0.08395,0.07252 0.12354,0.18828 0.17245,0.27947c0.11537,0.17304 0.16067,0.38344 0.35549,0.49462c0.03383,0.02109 0.05829,0.06667 0.07461,0.09705c0.13497,0.37759 0.42769,0.67118 0.6678,0.99273c0.22383,0.29121 0.35999,0.62902 0.58499,0.88049c0.23317,0.26661 0.33432,0.62315 0.6376,0.85246c0.02565,0.00588 0.02445,0.04562 0.04076,0.07602c0.10602,0.19757 0.20265,0.4197 0.4138,0.5613c0.12681,0.36239 0.43012,0.59169 0.627,0.91674c0.15491,0.28878 0.38932,0.51569 0.59679,0.77649c0.0163,0.0304 0.04203,0.03625 0.05831,0.06666c0.12801,0.32267 0.44068,0.52741 0.56873,0.8501c0.07218,0.17651 0.23318,0.26667 0.33225,0.40928c0.29841,0.38824 0.55241,0.81968 0.91274,1.15539c0.00815,0.0152 0.03386,0.02105 0.03386,0.02105c0.14802,0.23386 0.23405,0.52028 0.48718,0.6981c-0.13446,0.16933 -0.34235,0.20186 -0.49312,0.34081c-0.14017,0.07468 -0.2804,0.14931 -0.45202,0.12346c-0.04894,-0.09122 -0.08847,-0.2069 -0.17244,-0.27942c-0.29389,-0.25383 -0.44759,-0.58239 -0.6539,-0.88291c-0.20627,-0.30049 -0.5002,-0.55433 -0.627,-0.9167c-0.21114,-0.14157 -0.28212,-0.35784 -0.41379,-0.56129c-0.0163,-0.0304 -0.04077,-0.076 -0.07461,-0.09706c-0.16102,-0.09013 -0.20747,-0.26076 -0.29841,-0.38826c-0.04077,-0.076 -0.08157,-0.15198 -0.13168,-0.20345c-0.26703,-0.28771 -0.52466,-0.59992 -0.71222,-0.94952c-0.02444,-0.04562 -0.03953,-0.11574 -0.09091,-0.12744c-0.16913,-0.10531 -0.2332,-0.26662 -0.31474,-0.41862c-0.07218,-0.17651 -0.27641,-0.26317 -0.3567,-0.45491c-0.11294,-0.25253 -0.32288,-0.43383 -0.48839,-0.65834c-0.21446,-0.31572 -0.49081,-0.57888 -0.67833,-0.92847c-0.03261,-0.06081 -0.05586,-0.14614 -0.11539,-0.17306c-0.13531,-0.08428 -0.1912,-0.23035 -0.2821,-0.35782c-0.06522,-0.12159 -0.14797,-0.23384 -0.2401,-0.32161c-0.17608,-0.16027 -0.31715,-0.33916 -0.43134,-0.55195c-0.18875,-0.30984 -0.48268,-0.56368 -0.6095,-0.92604c-0.0163,-0.0304 -0.05826,-0.06667 -0.0746,-0.09708c-0.22383,-0.29121 -0.46517,-0.573 -0.65386,-0.88287c-0.17939,-0.33438 -0.49899,-0.59409 -0.64332,-0.94715c-0.02444,-0.04562 -0.08397,-0.0725 -0.12596,-0.10878c-0.14104,-0.17892 -0.27273,-0.38238 -0.32616,-0.60795c0.07948,-0.06186 0.14955,-0.09922 0.21152,-0.15174c0.26982,-0.08508 0.49639,-0.16668 0.73238,-0.27284z" fill="#b0eef2"/><path d="M269.63523,195.44929c0.20746,0.26074 0.34732,0.47945 0.39954,0.74477c-0.07498,0.19628 -0.24324,0.34456 -0.40338,0.508c-0.82519,0.77176 -1.65857,1.52831 -2.59223,2.18198c-0.70463,0.49257 -1.42678,0.99448 -2.18968,1.42039c-0.21027,0.11199 -0.44627,0.21818 -0.63212,0.37576c-0.07948,0.06186 -0.18463,0.11787 -0.28974,0.17387c-0.45321,0.16323 -0.85748,0.41763 -1.28623,0.62647c-0.60399,0.30218 -1.2406,0.54357 -1.89349,0.75451c-0.33052,0.09789 -0.65291,0.21096 -0.9928,0.33341c-0.26164,0.10024 -0.52085,0.1211 -0.77192,0.15711c-0.26944,-0.20826 -0.34404,-0.3053 -0.50467,-0.68875c0.39365,-0.19016 0.81061,-0.29498 1.22058,-0.4547c0.39247,-0.15041 0.80244,-0.31016 1.18679,-0.47579c0.40183,-0.17493 0.81308,-0.37444 1.20674,-0.56458c0.3843,-0.1656 0.7372,-0.43179 1.14603,-0.55182c0.34478,-0.28136 0.75477,-0.44108 1.13216,-0.66165c0.35986,-0.21121 0.72906,-0.44698 1.08079,-0.67339c0.36923,-0.23576 0.73028,-0.48669 1.10892,-0.74698c0.34356,-0.24162 0.71278,-0.47735 1.04817,-0.7342c0.3529,-0.26614 0.67201,-0.55334 1.01678,-0.8347c0.3623,-0.29068 0.69767,-0.54748 1.00983,-0.88965z" fill="url(#color-12)"/><path d="M266.43971,206.92249c-0.06195,0.05253 -0.13205,0.08988 -0.21149,0.15174c0.05345,0.2256 0.15943,0.42315 0.32616,0.60796c0.04199,0.03628 0.10148,0.0632 0.12595,0.10878c0.14432,0.35305 0.44642,0.6221 0.64332,0.94715c0.17124,0.31918 0.43009,0.59169 0.65385,0.88289c0.0163,0.0304 0.0583,0.06667 0.07461,0.09705c0.12679,0.3624 0.43006,0.5917 0.60947,0.92608c0.10602,0.19757 0.25522,0.39171 0.43134,0.55194c0.10024,0.1029 0.18304,0.21517 0.24011,0.32159c0.07338,0.13677 0.1211,0.26771 0.28211,0.35784c0.05949,0.02692 0.08275,0.11228 0.11536,0.17308c0.17939,0.33438 0.46394,0.61272 0.67836,0.92844c0.16549,0.22453 0.37546,0.40583 0.48838,0.65835c0.07218,0.17651 0.27638,0.26316 0.3567,0.4549c0.06401,0.16132 0.13618,0.33784 0.31471,0.41866c0.04199,0.03628 0.06645,0.08185 0.09092,0.12743c0.18753,0.34956 0.43697,0.64662 0.71221,0.94952c0.05827,0.06668 0.08156,0.15196 0.13167,0.20344c0.07338,0.13677 0.13744,0.29809 0.29843,0.38822c0.03383,0.02109 0.05829,0.06665 0.07459,0.09704c0.10602,0.19757 0.20263,0.41972 0.41378,0.56129c0.12681,0.36238 0.42074,0.61624 0.62701,0.91671c0.20627,0.30049 0.36813,0.6442 0.65386,0.88287c0.08395,0.07253 0.1235,0.18827 0.17246,0.27946c-0.14958,0.09921 -0.30362,0.06402 -0.43445,0.11418c-0.43009,-0.59167 -0.86141,-1.14366 -1.27518,-1.70494c-0.46392,-0.61277 -0.90217,-1.21965 -1.34858,-1.84171c-0.42195,-0.57651 -0.86142,-1.14364 -1.30087,-1.71081c-0.53853,-0.70982 -1.08643,-1.3951 -1.61682,-2.0897c-0.39749,-0.53091 -0.79491,-1.06181 -1.20995,-1.58334c-0.6213,-0.82207 -1.18065,-1.69669 -1.83698,-2.50007c-0.08275,-0.11224 -0.20056,-0.20584 -0.22137,-0.37063c0.15771,-0.08404 0.33989,-0.12241 0.51393,-0.17603c0.10393,-0.01629 0.24532,-0.13069 0.42632,-0.12937z" fill="#87d7dc"/><path d="M275.70688,218.98816c0.3517,-0.22641 0.7185,-0.38271 1.06203,-0.62432c0.38799,-0.28482 0.76776,-0.58485 1.09867,-0.97602c0.47295,0.88155 0.93772,1.74788 1.39436,2.59902c-0.10305,0.26988 -0.29829,0.452 -0.4678,0.64001c-0.32966,0.35148 -0.71642,0.59656 -1.1207,0.85098c-0.01754,0.00935 -0.06071,0.0128 -0.08643,0.00696c0.1088,-0.17519 -0.00901,-0.26877 -0.10931,-0.37171c-0.25072,-0.25731 -0.48389,-0.52394 -0.62943,-0.83727c-0.03261,-0.06081 -0.06524,-0.12159 -0.11539,-0.17302c-0.26009,-0.23279 -0.40563,-0.54608 -0.61314,-0.80687c-0.1247,-0.14855 -0.22503,-0.25138 -0.41293,-0.30768z" fill="#61afb4"/><path d="M265.09237,205.04103c0.66227,-0.23549 1.26744,-0.57738 1.90524,-0.85849c0.28853,-0.13413 0.55262,-0.31391 0.81674,-0.49365c0.50945,-0.31042 1.06896,-0.56937 1.54576,-0.94062c0.194,-0.14241 0.38797,-0.2848 0.5563,-0.43307c0.10639,-0.09575 0.22084,-0.17627 0.34356,-0.24162c0.042,0.03623 0.0758,0.05734 0.09212,0.08775c0.0652,0.1216 0.13048,0.24316 0.19573,0.36475c-0.06314,0.09227 -0.11697,0.15999 -0.18824,0.23707c-0.533,0.5184 -1.08357,1.04618 -1.76705,1.41024c-0.58768,0.33259 -1.19284,0.67444 -1.81315,0.94625c-0.4895,0.22166 -0.97079,0.45845 -1.50795,0.54917c0.07128,-0.07708 0.20091,-0.08749 0.22206,-0.216c-0.05465,-0.18585 -0.10808,-0.41144 -0.40112,-0.41169z" fill="url(#color-13)"/><path d="M266.05923,205.83534c0.28162,-0.18908 0.61091,-0.24722 0.91697,-0.3907c0.63905,-0.32085 1.2781,-0.64164 1.89264,-1.0081c0.49189,-0.30108 0.93365,-0.65366 1.34158,-1.02727c0.10639,-0.09575 0.2127,-0.19146 0.31908,-0.28721c0.11417,0.21279 0.21205,0.39516 0.31803,0.59277c-0.11244,0.2944 -0.33459,0.51039 -0.59047,0.70537c-0.30033,0.23817 -0.6182,0.48561 -0.96054,0.68749c-0.75598,0.4808 -1.54337,0.86113 -2.34012,1.266c-0.14018,0.07467 -0.28041,0.14936 -0.44383,0.1387c-0.04077,-0.076 -0.06404,-0.16131 -0.13168,-0.20342c-0.15163,-0.11466 -0.232,-0.30641 -0.32166,-0.47355z" fill="url(#color-14)"/><path d="M275.70685,218.98817c0.16226,0.0504 0.28001,0.14399 0.37909,0.28664c0.20748,0.26075 0.35306,0.57412 0.61313,0.80686c0.05014,0.05148 0.08278,0.11226 0.11539,0.17307c0.17127,0.31918 0.39624,0.57061 0.62942,0.83726c0.09213,0.08774 0.21811,0.19651 0.1093,0.37172c-0.25472,0.1552 -0.51634,0.25551 -0.78494,0.30086c-0.16676,-0.1848 -0.35098,-0.36025 -0.43011,-0.5917c-0.0163,-0.0304 -0.05827,-0.06666 -0.07461,-0.09706c-0.21564,-0.27597 -0.43946,-0.56716 -0.6376,-0.85248c-0.09091,-0.12745 -0.15612,-0.24906 -0.26457,-0.3672c-0.14223,-0.13919 -0.25765,-0.31226 -0.25973,-0.52612c0.07948,-0.06186 0.14957,-0.0992 0.21151,-0.15172c0.12267,-0.06532 0.27103,-0.12483 0.39366,-0.19017z" fill="#87d7dc"/><path d="M261.58513,197.41159c0.32446,0.10076 0.54252,0.29724 0.74312,0.50315c0.05013,0.05147 0.09906,0.14268 0.11417,0.21279c0.09629,0.51544 0.26263,0.99356 0.44653,1.46232c0.00815,0.0152 0.00694,0.05492 -0.00241,0.07947c-0.04564,0.08292 -0.13325,0.12963 -0.24533,0.1307c-0.0163,-0.0304 -0.05018,-0.05145 -0.06647,-0.08187c-0.17812,-0.37411 -0.4089,-0.72024 -0.71911,-1.00447c-0.15041,-0.1544 -0.24012,-0.3216 -0.25035,-0.55066c-0.00084,-0.25359 -0.05429,-0.47917 -0.0201,-0.75147z" fill="#cce5e6"/><path d="M261.76492,200.26667c-0.08067,0.1016 -0.15891,0.12374 -0.23597,0.10616c-0.42644,-0.7109 -0.42644,-0.71088 -1.0493,-1.19989c-0.10358,-0.27707 -0.11953,-0.60078 -0.16233,-0.89064c0.10639,-0.09575 0.17277,-0.01387 0.2323,0.01306c0.21236,0.10184 0.41658,0.18852 0.60205,0.32424c0.11784,0.0936 0.19239,0.19068 0.22258,0.3309c0.09871,0.43601 0.2231,0.87781 0.39066,1.3162z" fill="#cce5e6"/><path d="M275.29568,219.18764c-0.06195,0.05253 -0.13208,0.08988 -0.21151,0.15172c0.00207,0.21387 0.11744,0.3869 0.25974,0.52612c0.10846,0.11813 0.17368,0.2397 0.26456,0.36721c0.19815,0.28531 0.42193,0.57648 0.63759,0.85247c0.0163,0.0304 0.05831,0.06667 0.0746,0.09707c0.10479,0.23731 0.28086,0.39757 0.43006,0.59169c-0.15648,0.0443 -0.29551,0.07921 -0.48464,0.06268c-0.28088,-0.39757 -0.605,-0.7917 -0.87652,-1.2138c-0.28088,-0.39757 -0.63185,-0.7578 -0.8765,-1.21377c0.28852,-0.13413 0.53143,-0.18537 0.7825,-0.22142z" fill="#60adb2"/><path d="M266.8831,199.4752c0.06195,-0.05253 0.1064,-0.09575 0.16831,-0.14827c0.05138,0.01172 0.07702,0.01761 0.10268,0.02347c0.20872,0.22104 0.46188,0.39888 0.73248,0.5674c0.10965,0.07839 0.17612,0.16027 0.18062,0.29465c0.02653,0.25945 0.09629,0.51543 -0.03369,0.81918c-0.31628,-0.0856 -0.56944,-0.26341 -0.80502,-0.45062c-0.042,-0.03623 -0.0652,-0.12161 -0.08032,-0.19171c-0.09422,-0.30154 -0.18842,-0.60321 -0.26508,-0.91412z" fill="#cce5e6"/><path d="M265.06548,195.49914c0.15163,0.11463 0.25313,0.17787 0.36278,0.25626c0.19363,0.15094 0.30899,0.32397 0.31802,0.59277c0.03796,0.44876 0.13673,0.88478 0.34056,1.26474c0.06522,0.12159 0.05584,0.14611 -0.16259,0.24296c-0.02446,-0.04561 -0.06646,-0.08185 -0.09092,-0.12748c-0.18633,-0.38931 -0.43458,-0.72607 -0.73544,-1.03486c-0.06643,-0.08188 -0.12472,-0.14853 -0.1305,-0.2432c0.01786,-0.30267 0.00073,-0.58664 0.09812,-0.95117z" fill="#cae2e3"/><path d="M263.84093,199.18047c-0.02565,-0.00586 -0.05955,-0.02694 -0.06766,-0.04213c-0.15249,-0.36822 -0.40199,-0.66527 -0.66085,-0.93781c-0.23317,-0.26661 -0.38813,-0.55544 -0.36777,-0.93754c0.01425,-0.18346 -0.05797,-0.35996 -0.00048,-0.54692c0.45163,0.16981 0.7174,0.49728 0.77412,0.89699c0.07996,0.48506 0.13425,0.96421 0.38826,1.39569c0.00695,0.05493 0.03953,0.11573 -0.06559,0.17174z" fill="#c9e1e2"/><path d="M263.84699,196.16772c0.3057,0.14984 0.48995,0.32527 0.68235,0.51594c0.05827,0.06668 0.09905,0.14266 0.09663,0.22214c0.0706,0.50959 0.1844,1.01568 0.33322,1.50312c0.0163,0.0304 0.02326,0.08531 -0.07254,0.11679c-0.05707,-0.10638 -0.12229,-0.22797 -0.19689,-0.32504c-0.18058,-0.29464 -0.37874,-0.57995 -0.63884,-0.81271c-0.18428,-0.17543 -0.27272,-0.38237 -0.2479,-0.6301c0.01425,-0.18346 0.03659,-0.35173 0.0439,-0.59014z" fill="#c9e1e2"/><path d="M267.90558,198.73518c0.06441,-0.13201 0.15202,-0.17868 0.23962,-0.22534c0.02565,0.00586 0.05955,0.02693 0.08517,0.03281c0.16551,0.22452 0.39298,0.39651 0.6567,0.51006c0.15284,0.07493 0.2356,0.18718 0.25642,0.35198c0.01961,0.2045 0.0649,0.41491 0.0413,0.62292c-0.26613,-0.03412 -0.62448,-0.15596 -0.72474,-0.2589c-0.07583,-0.0573 -0.0734,-0.13677 -0.09662,-0.22213c-0.15613,-0.24903 -0.23284,-0.55998 -0.45782,-0.81141z" fill="#cae3e4"/><path d="M262.45054,202.93056c0.04476,-0.33649 0.03702,-0.64505 0.00353,-0.95946c0.08881,-0.08638 0.15896,-0.12377 0.27103,-0.12484c0.23438,0.22688 0.37055,0.56477 0.62248,0.78235c0.00205,0.21386 -0.0892,0.37973 -0.1466,0.56667c-0.03747,0.09811 -0.04926,0.20208 -0.1638,0.28265c-0.2462,-0.12293 -0.35912,-0.37543 -0.58658,-0.54741z" fill="#c8e0e1"/><path d="M264.87115,200.72277c0.16585,-0.06881 0.21601,-0.01734 0.26615,0.03411c0.19243,0.19065 0.37665,0.36609 0.55155,0.56607c0.05016,0.05147 0.08277,0.11226 0.08035,0.19172c-0.03299,0.2325 -0.08349,0.47437 -0.15964,0.71038c-0.13651,-0.04455 -0.20301,-0.1264 -0.3045,-0.18959c-0.30446,-0.18958 -0.46063,-0.43862 -0.36331,-0.80315c0.03992,-0.17761 -0.00657,-0.34827 -0.07061,-0.50958z" fill="#cbe4e5"/><path d="M263.76717,201.3108c0.0876,-0.0467 0.14018,-0.0747 0.19275,-0.1027c0.03383,0.02109 0.07703,0.01762 0.08518,0.03279c0.1247,0.14855 0.23199,0.30639 0.35672,0.45491c0.06643,0.08189 0.08967,0.16721 0.07787,0.27121c-0.0354,0.31199 -0.09652,0.61813 -0.21015,0.95226c-0.19607,-0.07144 -0.28694,-0.1989 -0.37785,-0.32636c-0.03258,-0.06078 -0.06522,-0.12162 -0.05467,-0.18583c0.09735,-0.36453 0.03942,-0.72453 -0.06986,-1.09626z" fill="#c8e0e1"/><path d="M266.05923,205.83533c0.08968,0.1672 0.17002,0.35894 0.34737,0.47944c0.06767,0.04213 0.09087,0.12744 0.13166,0.20343c-0.28975,0.17387 -0.5946,0.27763 -0.91455,0.31123c-0.0791,-0.23146 -0.26334,-0.40689 -0.39624,-0.5706c0.08189,-0.14133 0.22904,-0.16107 0.31785,-0.24747c0.14958,-0.09921 0.33298,-0.17735 0.51393,-0.17604z" fill="#85d5d9"/><path d="M266.79687,195.53456c0.03469,0.27467 0.06941,0.54931 0.12975,0.82985c0.06158,0.24079 0.33224,0.40929 0.19166,0.7773c-0.27724,-0.51674 -0.64455,-0.9074 -1.01183,-1.29805c-0.00205,-0.21386 0.00522,-0.45225 0.1071,-0.68237c0.05138,0.01172 0.07704,0.01759 0.10269,0.02345c0.16914,0.10531 0.32083,0.21997 0.48057,0.34979z" fill="#c6dede"/><path d="M261.14404,197.17751c0.01595,0.32374 0.03312,0.60768 0.04908,0.93144c-0.1891,-0.01654 -0.30693,-0.11012 -0.44346,-0.15463c-0.14471,-0.05968 -0.31631,-0.08561 -0.44224,-0.19438c-0.05707,-0.10638 -0.03592,-0.23492 -0.03228,-0.35411c0.00364,-0.11919 0.02485,-0.24771 0.06352,-0.3856c0.29425,-0.03948 0.53229,0.06825 0.80541,0.1573z" fill="#cae3e3"/><path d="M260.65969,200.89445c-0.36731,-0.39064 -0.69384,-0.70526 -1.11733,-0.94867c-0.03589,-0.23496 -0.08933,-0.46051 -0.13338,-0.71064c0.29306,0.00024 0.47853,0.13595 0.69085,0.2378c0.03383,0.02109 0.05829,0.06669 0.07458,0.09707c0.15128,0.40796 0.30259,0.81596 0.48525,1.32443z" fill="#cae3e4"/><path d="M266.76612,201.609c-0.3057,-0.14984 -0.56822,-0.30315 -0.57357,-0.69113c-0.00901,-0.26882 -0.1138,-0.50614 -0.21858,-0.74344c-0.04893,-0.09121 0.03052,-0.15307 0.152,-0.17868c0.09544,0.26183 0.30536,0.44319 0.5153,0.6245c0.15979,0.12984 0.19815,0.28528 0.18391,0.46877c-0.00488,0.15892 0.03345,0.3144 -0.05904,0.52002z" fill="#c8e0e1"/><path d="M265.09233,205.04102c0.3012,0.01544 0.34645,0.22583 0.42678,0.41757c-0.02117,0.1285 -0.1426,0.15413 -0.22205,0.216c-0.23595,0.10614 -0.47887,0.15734 -0.73812,0.17817c-0.07218,-0.17651 -0.23194,-0.30638 -0.22588,-0.50503c0.07948,-0.06186 0.13206,-0.08988 0.20213,-0.1272c0.19156,-0.06296 0.38308,-0.12593 0.55713,-0.17951z" fill="url(#color-15)"/><path d="M264.85189,202.19865c0.22746,0.17199 0.40355,0.33222 0.5972,0.48314c-0.06804,0.2512 -0.16169,0.49652 -0.28928,0.7208c-0.139,0.03497 -0.22295,-0.03759 -0.30813,-0.07037c-0.08519,-0.0328 -0.17035,-0.06557 -0.2099,-0.18132c0.04239,-0.25706 0.12096,-0.5725 0.21013,-0.95226z" fill="#c7dfe0"/><path d="M268.00268,201.47802c-0.04114,0.21735 -0.06476,0.4253 -0.16658,0.65546c-0.28369,-0.02477 -0.46914,-0.16049 -0.69781,-0.29274c0.02482,-0.24772 0.04962,-0.49545 0.06631,-0.75841c0.28939,0.11945 0.5181,0.25172 0.7981,0.39569z" fill="#c8e0e1"/><path d="M261.7243,196.24305c0.20544,0.04695 0.41083,0.09388 0.58817,0.21439c0.00901,0.26882 0.0005,0.54691 0.00015,0.84022c-0.03503,0.01866 -0.07008,0.03732 -0.07824,0.02211c-0.17854,-0.0808 -0.36519,-0.17677 -0.52621,-0.26689c-0.06767,-0.04213 -0.11784,-0.0936 -0.10725,-0.15784c0.00731,-0.23839 -0.03797,-0.44877 0.12338,-0.65202z" fill="#c4dcdd"/><path d="M264.65835,195.28609c-0.03419,0.27226 -0.05087,0.53518 -0.08506,0.80747c-0.16464,0.02904 -0.22986,-0.09254 -0.33138,-0.15574c-0.10148,-0.06318 -0.19365,-0.15092 -0.30329,-0.2293c-0.01023,-0.22906 0.09985,-0.44397 0.15847,-0.67067c0.24979,0.00371 0.40147,0.11838 0.56123,0.24826z" fill="#c8e0e1"/><path d="M268.45248,201.14073c0.00854,-0.27813 0.00767,-0.53176 0.00804,-0.82505c0.24048,0.02823 0.41779,0.14879 0.64076,0.18635c0.04403,0.25013 -0.05781,0.48027 -0.10018,0.73732c-0.22416,0.00215 -0.40512,0.00082 -0.54859,-0.09865z" fill="#c6ddde"/><path d="M268.86162,197.91329c0.31388,0.16505 0.55642,0.40713 0.90654,0.51379c0.0453,0.21039 0.09993,0.39628 0.06695,0.62879c-0.26737,0.0056 -0.46344,-0.06582 -0.55068,-0.31248c-0.09418,-0.30156 -0.27602,-0.5565 -0.42281,-0.8301z" fill="#b9cfd0"/><path d="M259.56422,201.20435c-0.12961,0.0104 -0.11784,-0.09358 -0.16794,-0.14503c-0.10843,-0.11814 -0.19934,-0.24555 -0.35345,-0.28076c-0.2299,-0.09253 -0.30208,-0.26901 -0.36486,-0.4701c-0.02323,-0.08536 -0.02898,-0.18 -0.05101,-0.30506c0.31754,0.04582 0.57431,0.10451 0.65913,0.4306c0.05345,0.22559 0.18511,0.42907 0.27358,0.63597c0.02444,0.04561 0.04892,0.0912 0.00451,0.1344z" fill="#c0d8d8"/><path d="M261.84021,203.72464c-0.16102,-0.09013 -0.26127,-0.19304 -0.32653,-0.31461c-0.03258,-0.06078 -0.07343,-0.13679 -0.06283,-0.20104c0.05173,-0.2816 0.04271,-0.55039 0.0337,-0.81918c0.12267,-0.06531 0.13774,0.00478 0.16225,0.0504c0.08154,0.152 0.17126,0.31918 0.28784,0.45251c0.14104,0.17892 0.16187,0.34372 0.04371,0.54348c-0.06315,0.09227 -0.09127,0.16587 -0.13811,0.28849z" fill="#c1d9d9"/><path d="M266.67445,202.06822c-0.01545,0.22317 -0.09045,0.41947 -0.14908,0.64612c-0.24167,0.01149 -0.38391,-0.12771 -0.56249,-0.2085c0.01666,-0.26293 0.13602,-0.50239 0.2216,-0.76293c0.20421,0.08667 0.33835,0.21066 0.49,0.3253z" fill="#c3dbdc"/><path d="M263.38397,196.64888c-0.21934,-0.15678 -0.41295,-0.30773 -0.62409,-0.4493c-0.00332,-0.17414 0.00159,-0.33305 0.11035,-0.50827c0.22297,0.03761 0.3921,0.14292 0.57883,0.23888c0.03588,0.23495 0.02048,0.45808 -0.06508,0.71863z" fill="#c3dadb"/><path d="M265.4899,203.5981c0.10187,-0.23015 0.19434,-0.43572 0.28681,-0.64131c0.23232,0.01305 0.40149,0.11837 0.57063,0.22368c-0.04927,0.20213 -0.13237,0.38319 -0.25871,0.56768c-0.06888,-0.00241 -0.16345,-0.01068 -0.21479,-0.02237c-0.13654,-0.04453 -0.22989,-0.09251 -0.38397,-0.12771z" fill="#c4dbdc"/><path d="M260.59569,202.70689c0.15493,0.28881 0.27725,0.51682 0.40775,0.75994c-0.03054,0.15307 -0.09494,0.28508 -0.22818,0.41465c-0.14588,-0.02001 -0.16795,-0.14505 -0.25191,-0.2176c-0.08395,-0.07252 -0.15042,-0.15439 -0.19123,-0.23038c0.09369,-0.24538 0.16866,-0.44164 0.26358,-0.72668z" fill="#c2d9da"/><path d="M260.41158,196.61004c0.00488,-0.15892 0.04353,-0.29679 0.11608,-0.41359c0.13205,-0.08986 0.2511,-0.03598 0.36314,-0.03708c0.11205,-0.0011 0.22536,-0.04188 0.335,0.03652c0.04649,0.17066 -0.0028,0.37279 -0.03573,0.60535c-0.12842,-0.02931 -0.25683,-0.05865 -0.37704,-0.07278c-0.13651,-0.04455 -0.27309,-0.08902 -0.4015,-0.11837z" fill="#c5ddde"/><path d="M267.69431,202.54121c-0.00608,0.19869 -0.12182,0.31896 -0.17802,0.46615c-0.23353,0.02666 -0.42961,-0.04479 -0.65135,-0.12207c0.05741,-0.18693 0.11489,-0.37388 0.15481,-0.5515c0.26735,-0.00559 0.45287,0.13012 0.67457,0.20742z" fill="#c3dbdc"/><path d="M259.97792,198.95166c-0.0946,-0.00824 -0.14591,-0.01996 -0.19726,-0.03167c-0.11085,-0.03865 -0.2299,-0.09251 -0.36643,-0.13705c0.00854,-0.27813 -0.03556,-0.52826 0.06752,-0.79813c0.139,-0.03497 0.23234,0.01303 0.35951,0.0821c0.05221,0.26531 0.10318,0.57038 0.13671,0.88477z" fill="#c7dfe0"/><path d="M264.151,203.41232c-0.11001,0.21492 -0.13362,0.42291 -0.28562,0.60158c-0.20665,-0.00722 -0.31385,-0.16502 -0.48544,-0.1909c0.05174,-0.28161 0.1617,-0.49653 0.25543,-0.74187c0.24866,0.04346 0.33832,0.21063 0.51567,0.33114z" fill="#c7dee0"/><path d="M265.53722,205.99611c-0.08881,0.0864 -0.23597,0.10612 -0.31785,0.24748c0.14104,0.17892 0.30775,0.3637 0.39624,0.57061c-0.07827,0.02215 -0.17404,0.05361 -0.26041,0.06058c-0.12961,0.0104 -0.24045,-0.02826 -0.29758,-0.13467c-0.11537,-0.17303 -0.2226,-0.33088 -0.33796,-0.50398c0.22781,-0.12136 0.34113,-0.16215 0.81758,-0.24004z" fill="#61acb1"/><path d="M265.88704,194.8466c-0.04114,0.21735 -0.08105,0.39488 -0.13971,0.62159c-0.21115,-0.14157 -0.41412,-0.26794 -0.60777,-0.41887c0.02235,-0.16825 0.05295,-0.32133 0.12667,-0.47786c0.24863,0.04346 0.41777,0.14876 0.62078,0.27514z" fill="#c2dada"/><path d="M262.10719,204.01236c0.04114,-0.21735 0.1324,-0.3832 0.22493,-0.58881c0.18428,0.17543 0.35222,0.3205 0.52017,0.46558c0.00332,0.17414 -0.09491,0.28507 -0.19435,0.43572c-0.21479,-0.02238 -0.3571,-0.16159 -0.55068,-0.31248z" fill="#c1d9d9"/><path d="M263.57453,195.49208c-0.23926,-0.068 -0.40962,-0.13357 -0.59754,-0.18984c-0.02897,-0.18 0.05415,-0.36106 0.13728,-0.54214c0.19847,-0.00799 0.38759,0.00852 0.57429,0.10451c0.04528,0.21039 -0.08922,0.37976 -0.114,0.62748z" fill="#c6dedf"/><path d="M268.88507,201.6529c-0.04927,0.20212 -0.12426,0.3984 -0.18167,0.58534c-0.16585,0.06881 -0.30362,0.06402 -0.46588,0.01363c-0.03588,-0.23495 0.09984,-0.44398 0.13278,-0.67654c0.19034,-0.02323 0.335,0.03652 0.51477,0.07755z" fill="#c0d7d7"/><path d="M259.0251,199.10734c0.01961,0.2045 0.09991,0.39626 0.02379,0.63226c-0.16226,-0.0504 -0.31633,-0.08562 -0.47037,-0.12078c-0.09782,-0.18239 -0.09175,-0.38104 -0.01679,-0.57729c0.16464,-0.02905 0.29302,0.00025 0.46341,0.0658z" fill="#c3dadb"/><path d="M264.55272,205.2112c-0.07011,0.03733 -0.13205,0.08988 -0.20215,0.12725c-0.00608,0.1987 0.15368,0.32851 0.22588,0.50502c-0.11452,0.08054 -0.23355,0.02666 -0.36434,0.07681c-0.1761,-0.16025 -0.2214,-0.37064 -0.45007,-0.50288c0.16709,-0.10851 0.29666,-0.11895 0.44385,-0.1387c0.10393,-0.0163 0.21032,-0.11199 0.34682,-0.06747z" fill="url(#color-16)"/><path d="M270.5924,198.53519c0.01961,0.2045 0.09992,0.39629 0.03312,0.60773c-0.139,0.03497 -0.24173,0.01147 -0.39578,-0.02368c-0.05466,-0.18587 -0.07425,-0.3904 -0.04252,-0.58319c0.139,-0.03495 0.23355,-0.02667 0.40513,-0.00082z" fill="#bdd3d4"/><path d="M266.51949,203.75318c0.07376,-0.15656 0.12999,-0.30373 0.18618,-0.45091c0.19848,-0.008 0.36073,0.04238 0.53109,0.10795c0.01265,0.14959 -0.0937,0.24539 -0.21636,0.31069c-0.1577,0.08404 -0.31539,0.16802 -0.50091,0.03229z" fill="#bdd4d5"/><path d="M267.62868,195.111c0.01021,0.22905 0.0123,0.44293 0.02253,0.67196c-0.34648,-0.2258 -0.589,-0.46796 -0.37714,-0.91302c0.14588,0.02001 0.22866,0.13226 0.3546,0.24103z" fill="#bbd2d3"/><path d="M264.7022,204.27172c-0.1728,0.01385 -0.29184,-0.03999 -0.41086,-0.09388c-0.05707,-0.10638 0.01425,-0.18348 0.05175,-0.2816c0.02811,-0.07359 0.04806,-0.16237 0.14507,-0.23358c0.1728,-0.01385 0.25435,0.13808 0.4353,0.13941c-0.03173,0.19281 -0.11363,0.33412 -0.22118,0.4696z" fill="#c3dadb"/><path d="M264.21134,198.905c-0.11169,-0.29227 -0.22344,-0.58449 -0.26505,-0.91409c0.11328,-0.04077 0.17164,0.02584 0.21235,0.10185c0.12352,0.18826 0.22952,0.38579 0.32738,0.5682c0.07338,0.13677 -0.01546,0.22322 -0.27466,0.24401z" fill="#b1c6c7"/><path d="M269.90025,201.15126c-0.03021,-0.14023 0.05048,-0.24188 0.07981,-0.35519c0.04114,-0.21735 0.1907,-0.31654 0.4418,-0.35255c0.009,0.2688 -0.12792,0.51761 -0.2379,0.73252c-0.13083,0.05015 -0.19973,0.04775 -0.28369,-0.02477z" fill="#bbd2d3"/><path d="M266.47803,197.50222c-0.22503,-0.25145 -0.24097,-0.57516 -0.28261,-0.90476c0.21933,0.15678 0.34159,0.38479 0.47329,0.58822c0.09091,0.12746 0.05468,0.18588 -0.19069,0.31653z" fill="#bad1d2"/><path d="M269.9128,197.64651c0.1879,0.05627 0.3595,0.08214 0.54737,0.13837c0.02324,0.08534 0.02776,0.21973 0.04978,0.34479c-0.35621,0.09202 -0.36436,0.07681 -0.45287,-0.13012c-0.05705,-0.1064 -0.09661,-0.22214 -0.14433,-0.35306z" fill="#b5cbcc"/><path d="M262.15818,194.74173c0.1997,-0.04774 0.34564,-0.02778 0.49153,-0.00777c0.02082,0.16481 -0.08678,0.30026 -0.16051,0.4568c-0.16344,-0.01062 -0.30932,-0.03067 -0.47276,-0.04131c-0.05587,-0.14612 0.08551,-0.26052 0.14176,-0.40776z" fill="#c0d7d8"/><path d="M269.48789,199.4167c0.12144,-0.02558 0.23233,0.01303 0.35137,0.06688c0.05341,0.2256 0.02048,0.45813 -0.06389,0.67892c-0.11452,0.08054 -0.17402,0.0536 -0.24981,-0.00372c-0.01842,-0.24423 -0.03678,-0.4885 -0.03762,-0.74211z" fill="#bdd4d4"/><path d="M265.95874,194.47621c-0.17854,-0.0808 -0.34768,-0.18608 -0.52622,-0.26689c0.02934,-0.11333 0.10064,-0.19042 0.20576,-0.24644c0.12143,-0.02558 0.19727,0.03169 0.2906,0.07969c0.06767,0.04213 0.13532,0.08426 0.203,0.12639c-0.00364,0.11922 -0.04113,0.21735 -0.17319,0.30723z" fill="#b6cccc"/><path d="M262.3434,196.01104c-0.1879,-0.05627 -0.35012,-0.10665 -0.55557,-0.15356c-0.0314,-0.10052 -0.02778,-0.21974 0.1055,-0.34935c0.16346,0.01061 0.33503,0.03651 0.52413,0.05302c-0.00488,0.15892 -0.00035,0.29333 -0.07411,0.44986z" fill="#c1d9d9"/><path d="M266.91237,194.57406c-0.00488,0.15892 -0.02602,0.28749 -0.10794,0.42879c-0.1879,-0.05627 -0.30449,-0.18961 -0.42229,-0.28318c-0.03021,-0.14023 0.05865,-0.22664 0.1218,-0.31892c0.06072,-0.01279 0.09577,-0.03148 0.10394,-0.0163c0.10145,0.0632 0.20297,0.12639 0.30449,0.18961z" fill="#b7cdce"/><path d="M268.54257,195.38638c-0.2299,-0.09254 -0.30329,-0.22931 -0.41173,-0.34742c-0.13413,-0.12398 -0.06158,-0.24079 0.02029,-0.38212c0.1879,0.05627 0.29633,0.17438 0.43168,0.25866c0.04648,0.17066 -0.10429,0.3096 -0.04027,0.47093z" fill="#b6cccc"/><path d="M270.63076,199.531c-0.02237,0.16826 -0.04354,0.29677 -0.05656,0.44052c-0.14958,0.09921 -0.25472,0.1552 -0.41815,0.14455c0.03175,-0.19281 0.04599,-0.37626 0.06836,-0.54451c0.13322,-0.12961 0.25226,-0.07572 0.36554,-0.11656c0.0163,0.0304 0.05016,0.05147 0.0408,0.076z" fill="#c2dada"/><path d="M261.39368,195.50068c0.00448,0.13437 -0.02359,0.208 -0.0949,0.28508c-0.09702,0.07121 -0.19969,0.04773 -0.31179,0.04883c-0.09458,-0.00825 -0.22538,0.04189 -0.29999,-0.05518c0.03872,-0.13786 0.10306,-0.26985 0.24449,-0.38428c0.17159,0.02584 0.30814,0.07038 0.46222,0.10557z" fill="#bbd2d3"/><path d="M262.97866,204.54484c0.08189,-0.14132 0.1369,-0.24881 0.20942,-0.36561c0.17977,0.04105 0.31507,0.12533 0.46796,0.20024c-0.02117,0.12851 -0.07617,0.23602 -0.19887,0.30131c-0.04321,0.00349 -0.08639,0.00692 -0.12026,-0.01412c-0.10269,-0.02345 -0.2136,-0.06215 -0.3583,-0.12185z" fill="#bbd2d3"/><path d="M270.3777,197.37933c-0.3,-0.05518 -0.30002,-0.05517 -0.5262,-0.26689c0.02239,-0.16828 0.15444,-0.25813 0.28769,-0.38771c0.16675,0.1848 0.18512,0.42904 0.23854,0.65464z" fill="#adc2c3"/><path d="M265.11429,204.32583c0.02117,-0.12851 0.09374,-0.24535 0.20823,-0.32585c0.17977,0.04105 0.3338,0.07618 0.49599,0.12663c-0.21636,0.31068 -0.23387,0.32003 -0.70425,0.19928z" fill="#b5cbcc"/><path d="M264.88353,194.40403c-0.03052,0.15308 -0.0599,0.26641 -0.1418,0.40774c-0.18092,-0.00131 -0.30692,-0.11013 -0.47731,-0.17571c0.0106,-0.06427 0.02934,-0.1133 0.04805,-0.16239c0.01875,-0.04908 0.06314,-0.09227 0.09942,-0.15069c0.18217,-0.03841 0.3187,0.00611 0.4716,0.08103z" fill="#bbd1d2"/><path d="M261.54397,204.39054c-0.23232,-0.01306 -0.34769,-0.1861 -0.50055,-0.261c0.01303,-0.14372 0.12754,-0.22429 0.2001,-0.3411c0.21237,0.10182 0.32895,0.23518 0.36606,0.43036c0.02445,0.04561 -0.02932,0.11334 -0.06558,0.17173z" fill="#b6cccd"/><path d="M259.07899,197.90612c-0.01666,0.26293 -0.05903,0.52 -0.08385,0.7677c-0.13084,0.05013 -0.22536,0.04189 -0.35254,-0.02715c0.08551,-0.26052 0.17108,-0.52105 0.33365,-0.764c0.05139,0.01174 0.07704,0.0176 0.1027,0.02345z" fill="#acc1c2"/><path d="M265.15297,197.42635c0.15857,0.16959 0.29963,0.34852 0.37056,0.56475c0.02323,0.08536 0.0033,0.17412 -0.0843,0.22079c-0.03502,0.01865 -0.12144,0.02559 -0.12962,0.01039c-0.13982,-0.21866 -0.13949,-0.51196 -0.15665,-0.79595z" fill="#a7bbbb"/><path d="M264.01982,194.18006c0.01388,0.10988 -0.04927,0.20213 -0.12996,0.30373c-0.17159,-0.02584 -0.3432,-0.05172 -0.51478,-0.07757c0.00488,-0.15892 0.10186,-0.23013 0.22451,-0.29546c0.12961,-0.0104 0.28367,0.02476 0.42024,0.06933z" fill="#b7cdcd"/><path d="M267.90843,203.15019c0.00608,-0.1987 0.08801,-0.34 0.18741,-0.49068c0.16464,-0.02905 0.30243,-0.02429 0.4459,0.07518c-0.16137,0.20319 -0.37983,0.3 -0.63329,0.41551z" fill="#b7cece"/><path d="M259.82876,203.54532c-0.22052,-0.11705 -0.25642,-0.35196 -0.4256,-0.45726c0.02117,-0.1285 0.09943,-0.15066 0.15897,-0.12374c0.15286,0.0749 0.29635,0.17439 0.37786,0.32638c0.00695,0.05494 0.01508,0.07014 -0.11122,0.25469z" fill="#b4cacb"/><path d="M259.83702,197.63918c-0.12959,0.01041 -0.20663,-0.00719 -0.28248,-0.06448c0.04114,-0.21735 0.07412,-0.44986 0.25423,-0.70215c0.15613,0.24903 0.07994,0.48504 0.02825,0.76664z" fill="#b2c8c9"/><path d="M264.01303,204.54109c0.16344,0.01062 0.28369,0.02478 0.36764,0.09732c0.01509,0.07014 -0.02932,0.11337 -0.07375,0.15657c-0.17766,0.17279 -0.32239,0.11306 -0.49152,0.00776c0.07128,-0.07708 0.13447,-0.16936 0.19763,-0.26161z" fill="#b5cbcb"/><path d="M267.57067,196.72485c-0.12353,-0.18825 -0.21323,-0.35541 -0.25849,-0.56579c0.07948,-0.06185 0.13897,-0.03494 0.16344,0.01064c0.07462,0.09709 0.16675,0.18482 0.24134,0.28185c0.06522,0.12159 0.01143,0.1893 -0.14629,0.27328z" fill="#91a3a3"/><path d="M260.74838,199.96786c0.22052,0.11705 0.309,0.32397 0.40683,0.50637c0.0163,0.0304 -0.00244,0.07947 -0.02934,0.11332c-0.03503,0.01866 -0.10393,0.0163 -0.11211,0.00109c-0.16675,-0.1848 -0.23768,-0.40103 -0.26543,-0.62076z" fill="#99abac"/><path d="M260.18452,200.9326c-0.09004,0.12614 -0.17768,0.17279 -0.2535,0.11546c-0.09213,-0.08774 -0.1386,-0.25839 -0.17452,-0.4933c0.20425,0.08664 0.2939,0.25382 0.42801,0.37781z" fill="#93a5a6"/><path d="M269.51037,202.06243c0.05052,-0.24187 0.07531,-0.4896 0.45599,-0.53602c-0.04241,0.25705 -0.27016,0.3784 -0.45599,0.53602z" fill="#9aadad"/><path d="M267.78093,199.4269c-0.11782,-0.0936 -0.24377,-0.20236 -0.35343,-0.28079c0.01182,-0.10399 0.05622,-0.1472 0.16954,-0.188c0.16104,0.09013 0.17248,0.27945 0.26339,0.4069c-0.03503,0.01866 -0.05258,0.02799 -0.07949,0.06188z" fill="#c5dddd"/><path d="M263.00656,198.84318c0.26371,0.11358 0.36971,0.3112 0.40563,0.54609c0.00815,0.0152 -0.01874,0.0491 -0.0538,0.06776c-0.04443,0.0432 -0.10393,0.0163 -0.12023,-0.01412c-0.10725,-0.15783 -0.15249,-0.36827 -0.23162,-0.59972z" fill="#aec2c3"/><path d="M261.93971,204.41424c0.1879,0.05627 0.32201,0.18023 0.44797,0.28906c-0.01179,0.104 -0.09008,0.12614 -0.15774,0.08403c-0.12719,-0.06907 -0.24619,-0.12294 -0.36398,-0.21653c-0.05139,-0.01174 -0.02325,-0.08531 0.07375,-0.15653z" fill="#9caeaf"/><path d="M262.91984,194.35557c-0.18221,0.03841 -0.31991,0.03362 -0.49153,0.00775c0.19519,-0.18214 0.41242,-0.23922 0.62271,-0.35121c0.00694,0.05495 0.02323,0.08536 0.01385,0.10985c-0.04564,0.08292 -0.09942,0.15066 -0.14503,0.2336z" fill="#a9bebf"/><path d="M263.13622,201.64683c0.10639,-0.09575 0.18458,-0.11787 0.27921,-0.1096c0.09904,0.14268 0.11985,0.30745 0.02616,0.5528c-0.13291,-0.16373 -0.20627,-0.30052 -0.30537,-0.44316z" fill="#b9cfd0"/><path d="M268.43489,198.33596c0.01181,-0.10399 0.07378,-0.15652 0.13569,-0.20907c0.10394,-0.01627 0.14471,0.05969 0.28783,0.45252c-0.25921,0.02082 -0.29636,-0.17437 -0.42352,-0.24346z" fill="#869797"/><path d="M261.9714,199.43366c0.0779,0.27119 0.34978,0.39998 0.20229,0.71303c-0.19243,-0.19064 -0.27275,-0.38233 -0.20229,-0.71303z" fill="#93a4a5"/><path d="M268.08234,195.49469c0.12229,0.22797 0.20383,0.37998 0.28539,0.53197c0.0163,0.0304 -0.00243,0.07947 -0.055,0.10744c-0.01754,0.00935 -0.06073,0.0128 -0.08643,0.00695c-0.13292,-0.1637 -0.22262,-0.33094 -0.144,-0.64635z" fill="#94a5a6"/><path d="M269.15386,197.65992c0.07256,-0.11678 0.11692,-0.16 0.23717,-0.14589c0.08275,0.11224 0.17368,0.23972 0.20264,0.41972c-0.23233,-0.01309 -0.31383,-0.16504 -0.4398,-0.2738z" fill="#abbfc0"/><path d="M267.86292,194.49765c-0.0713,0.07707 -0.0982,0.11094 -0.13328,0.12962c-0.30694,-0.11011 -0.3069,-0.11011 -0.36848,-0.35088c0.22416,-0.00215 0.30571,0.1498 0.50173,0.22128z" fill="#acc0c1"/><path d="M269.34683,201.21148c0.03992,-0.17761 0.05415,-0.36106 0.11159,-0.54799c0.02811,-0.07359 0.09822,-0.11091 0.19969,-0.04773c-0.04114,0.21735 -0.09041,0.41945 -0.31129,0.59572z" fill="#9fb2b2"/><path d="M265.04039,194.06637c-0.12028,-0.01414 -0.19727,-0.03175 -0.27309,-0.08904c0.00241,-0.07948 0.03868,-0.13788 0.11815,-0.19975c0.1133,-0.04078 0.22415,-0.00213 0.33501,0.03653c0.01388,0.10988 -0.08311,0.18106 -0.18009,0.25224z" fill="#aec2c3"/><path d="M265.72583,200.67788c-0.18092,-0.0013 -0.23805,-0.10774 -0.31264,-0.20478c-0.02444,-0.04561 0.01181,-0.10396 0.06439,-0.13199c0.03503,-0.01866 0.10395,-0.0163 0.12024,0.01411c0.10148,0.06318 0.11538,0.17308 0.12801,0.32265z" fill="#91a2a3"/><path d="M261.63035,194.80789c-0.05415,0.36107 -0.06347,0.38561 -0.40547,0.29418c0.12391,-0.10505 0.20578,-0.24641 0.40547,-0.29418z" fill="#869696"/><path d="M259.19501,201.44007c-0.22296,-0.0376 -0.21931,-0.15676 -0.25888,-0.27253c0.19848,-0.00798 0.19848,-0.00798 0.25888,0.27253z" fill="#555f5f"/><path d="M266.57458,199.69817c0.04078,0.076 0.09784,0.18237 0.10236,0.3168c-0.23111,-0.05279 -0.26369,-0.11358 -0.25071,-0.25729c0.00122,-0.03973 0.0538,-0.06775 0.14834,-0.05946z" fill="#93a5a6"/><path d="M268.88359,195.22429c0.2731,0.08904 0.2719,0.12877 0.01593,0.32371c-0.09214,-0.08775 -0.06283,-0.20103 -0.01593,-0.32371z" fill="#8b9b9c"/><path d="M258.54164,201.10415c0.13411,0.124 0.1818,0.25488 0.22951,0.38586c-0.08067,0.1016 -0.14958,0.0992 -0.18218,0.03839c-0.06524,-0.12159 -0.11294,-0.25252 -0.04736,-0.42422z" fill="#9aacad"/><path d="M266.78354,193.99775c0.14588,0.02001 0.27553,0.0096 0.32325,0.14051c0.00815,0.01522 -0.0012,0.03974 -0.01873,0.04908c-0.17405,0.0536 -0.25803,-0.01893 -0.3045,-0.18959z" fill="#5f6a6b"/><path d="M264.48646,201.18172c-0.08519,-0.0328 -0.11784,-0.0936 -0.1329,-0.16375c0.00122,-0.03973 0.01997,-0.08879 0.06316,-0.09225c0.04321,-0.00349 0.09459,0.00824 0.11086,0.03867c0.03258,0.06078 0.0477,0.13093 -0.04114,0.21733z" fill="#636e6f"/><path d="M264.11606,193.85523c0.09823,-0.11092 0.19398,-0.14241 0.3293,-0.05818c-0.10758,0.13546 -0.20213,0.12724 -0.3293,0.05818z" fill="#4a5354"/></g><g data-paper-data="{&quot;index&quot;:null}" fill="#000000" stroke="#000000" stroke-width="1.2"><path d="M264.95706,222.41548c-1.28955,-1.36135 -1.05549,-4.66342 -1.84658,-6.78472c-0.85171,-2.28388 -2.61213,-3.25877 -2.21376,-4.84592c0.27829,-1.10859 1.7809,-1.84628 2.60939,-2.13385c2.0146,-0.69931 4.8205,1.87847 6.26713,5.75761c1.44663,3.87914 0.98622,7.5907 -1.02836,8.28999c-0.91291,0.31689 -2.71919,0.84498 -3.78781,-0.2831z"/><path d="M269.11147,222.95355c-1.77911,-1.91388 -2.83254,-7.72815 -2.83254,-7.72815c0,0 -2.41187,-3.09538 -2.44019,-3.17594c-1.80581,-5.13253 1.66187,-6.39994 5.62881,-7.77692c1.88799,-0.65536 5.05521,-0.95517 6.68243,0.28301c1.84547,1.40424 2.21454,4.13408 3.27665,6.98216c1.99863,5.35933 1.30785,10.74413 -2.72136,12.14274c-1.77365,0.61565 -5.21759,1.82929 -7.5938,-0.72691z"/></g></g></g></g></svg>