<svg version="1.1" xmlns="http://www.w3.org/2000/svg" xmlns:xlink="http://www.w3.org/1999/xlink" width="78.65312" height="104.76563" viewBox="0,0,78.65312,104.76563"><defs><linearGradient x1="225.16212" y1="169.98481" x2="202.78145" y2="168.40443" gradientUnits="userSpaceOnUse" id="color-1"><stop offset="0" stop-color="#000000"/><stop offset="1" stop-color="#000000" stop-opacity="0"/></linearGradient></defs><g transform="translate(-205.33911,-139.0372)"><g stroke-miterlimit="10"><g><g><g stroke="#001026" stroke-width="1.2"><path d="M249.66213,203.03876l-1.45655,26.69063c0,0 6.92354,0.28267 5.56854,7.59484c-0.07726,0.41687 -0.50916,2.46467 -3.49529,3.12203c-2.8601,0.62961 -8.23625,-0.1151 -10.19861,-0.39969c-0.91142,-0.13218 -2.22998,-0.7627 -2.95756,-1.87333c-0.73254,-1.11825 -0.36454,-2.77362 -0.21264,-3.70372c0.06186,-0.37883 2.84734,-30.12376 2.84734,-30.12376" fill="#bf0000" fill-rule="evenodd" stroke-linecap="round" stroke-linejoin="round"/><path d="M238.60348,210.38152c1.38865,-7.49378 6.70299,-7.73086 9.44984,-7.71902c1.19443,0.00515 1.35796,-1.99347 1.46641,3.84346c0.02388,1.28552 -0.37831,6.57318 -0.12938,11.06183c0.17046,3.07365 0.98865,5.77413 1.09698,6.55254c0.25591,1.8392 -0.24753,3.53076 -0.24753,3.53076l-0.81032,-1.20549c0,0 0.5264,0.84089 0.70993,1.34527c0.5718,1.57128 1.01182,2.75703 1.01182,2.75703c0,0 -6.97555,-0.33032 -10.10237,2.06168c-3.12681,2.39201 -2.48087,6.7617 -2.48087,6.7617c0,0 -5.08948,-0.72867 -5.02081,-3.71704c0.01692,-0.73671 1.18492,-2.95173 1.18492,-2.95173c0,0 -0.61769,0.1365 -0.55384,-0.37467c0.03254,-0.26057 1.46229,-4.1453 2.34794,-8.50072c1.16589,-5.73359 1.87718,-12.36589 2.07726,-13.44561z" fill="#000000" fill-rule="nonzero" stroke-linecap="butt" stroke-linejoin="miter"/></g><path d="M230.50284,205.24594c0.02601,-0.21968 1.11714,0.40429 3.81632,0.42417c3.56091,0.02624 9.1109,-0.52716 10.68809,-0.78469c4.08992,-0.66779 5.01988,-2.24317 4.95094,-1.66085c-0.25509,2.15491 -3.1643,6.19603 -7.76961,6.50792c-2.02382,0.13706 -6.2487,0.9427 -8.45115,0.23055c-2.80933,-0.90838 -3.37757,-3.50921 -3.23459,-4.71713z" fill="#004fd9" fill-rule="nonzero" stroke="#001026" stroke-width="1.2" stroke-linecap="butt" stroke-linejoin="miter"/><g fill-rule="nonzero" stroke-linecap="butt" stroke-linejoin="miter"><g fill="none" stroke="none" stroke-width="1" font-family="sans-serif" font-weight="normal" font-size="12" text-anchor="start"/><path d="M230.24899,203.85295c0,0 8.36244,1.18355 12.30977,1.08456c3.94733,-0.09899 7.42694,-1.57951 7.42694,-1.57951c0,0 -0.31232,2.1106 -2.40551,4.20106c-1.62025,1.61815 -4.50501,3.31891 -7.89296,3.42252c-3.08651,0.09439 -6.41474,-0.50879 -7.89178,-1.85517c-2.23876,-2.04072 -1.54645,-5.27347 -1.54645,-5.27347z" fill="#000000" stroke="#001026" stroke-width="1.2"/></g><g stroke="#001026" stroke-width="1.2"><path d="M238.86082,209.01163c0,0 -8.41104,31.18554 -9.03907,31.30066c-1.80228,0.33035 -10.98691,-2.11379 -10.98691,-2.11379l11.26811,-31.41124" fill="#ffab19" fill-rule="evenodd" stroke-linecap="round" stroke-linejoin="round"/><path d="M240.42296,208.47991c0,0 -1.85279,6.59609 -2.65139,10.08975c-0.76596,3.35095 -2.04639,10.46197 -2.04639,10.46197c0,0 0.0997,5.14615 -1.02625,6.43854c-0.52149,0.59859 -1.35107,-2.42319 -1.35107,-2.42319c0,0 0.79595,3.4675 0.77615,3.81514c-0.13817,2.42558 -1.83101,5.64152 -4.95585,6.00721c-3.43089,0.4015 -9.09018,0.8912 -11.66328,-0.97337c-2.32949,-1.68802 -1.77961,-5.63658 -1.165,-7.26585c0.4316,-1.14414 2.27034,-1.79317 2.8502,-3.20078c0.38557,-0.93597 -3.13869,3.35416 -2.42425,2.10233c0.81731,-1.43209 4.2499,-7.82771 4.2499,-7.82771l8.58999,-20.03695" fill="#000000" fill-rule="evenodd" stroke-linecap="round" stroke-linejoin="round"/><path d="M232.45135,238.32527c-0.36882,1.74896 -1.38944,3.793 -3.05956,4.87755c-1.67631,1.08857 -10.64859,0.85279 -11.83589,-0.41192c-1.12754,-1.20104 -1.29906,-3.45973 -0.9391,-5.16669c0.73899,-3.50439 4.88275,-6.18832 9.25535,-5.99473c4.37258,0.19358 7.3182,3.1914 6.57918,6.6958z" fill="#ff0000" fill-rule="nonzero" stroke-linecap="butt" stroke-linejoin="miter"/></g></g><g fill="#000000" fill-rule="nonzero" stroke="#001026" stroke-width="1.2" stroke-linecap="butt" stroke-linejoin="miter"><path d="M229.61825,215.67538c0,0 -2.96251,0.53073 -3.80121,0.27805c-0.25817,-0.07779 -0.82714,-1.02497 -1.01177,-2.16349c-0.23045,-1.42097 -0.00483,-3.18297 0.52253,-4.42125c1.35682,-3.18588 6.26299,-6.7302 8.19832,-6.14713c0.83876,0.25269 2.72938,2.78118 2.73006,2.7876"/></g></g><g fill="#ff0000" fill-rule="nonzero" stroke="none" stroke-linecap="butt" stroke-linejoin="miter"><path d="M241.70573,222.23637c0.25589,1.13765 -0.40352,2.27504 -1.47282,2.54042c-1.0693,0.26538 -2.14356,-0.44173 -2.39944,-1.57938c-0.25589,-1.13765 0.40351,-2.27504 1.47281,-2.54042c1.0693,-0.26538 2.14357,0.44173 2.39945,1.57938z" stroke-width="NaN"/><path d="M245.28799,226.04506c0.23541,1.04664 -0.34426,2.08635 -1.29474,2.32224c-0.95049,0.23589 -1.91185,-0.42134 -2.14726,-1.46798c-0.23541,-1.04664 0.34426,-2.08635 1.29475,-2.32224c0.95049,-0.23589 1.91185,0.42134 2.14726,1.46798z" stroke-width="0"/><path d="M242.96679,230.53596c0.24565,1.09214 -0.32572,2.16874 -1.27621,2.40463c-0.95049,0.23589 -1.92014,-0.45823 -2.16579,-1.55038c-0.24565,-1.09214 0.32572,-2.16874 1.27621,-2.40463c0.95049,-0.23589 1.92014,0.45823 2.16579,1.55038z" stroke-width="0"/><path d="M244.98063,214.90589c-0.82617,-0.07529 -1.46703,-0.95757 -1.43141,-1.97065c0.03562,-1.01308 0.73424,-1.77331 1.56041,-1.69802c0.82617,0.07529 1.46703,0.95758 1.43141,1.97066c-0.03562,1.01308 -0.73425,1.7733 -1.56041,1.69801z" stroke-width="NaN"/><path d="M241.66347,217.05721c-0.76007,-0.06927 -1.35057,-0.85541 -1.3189,-1.75593c0.03166,-0.90051 0.67351,-1.57438 1.43358,-1.50511c0.76007,0.06927 1.35056,0.85542 1.3189,1.75594c-0.03166,0.90051 -0.6735,1.57437 -1.43357,1.5051z" stroke-width="0"/><path d="M244.28921,219.20486c-0.85921,-0.07829 -1.53114,-0.84137 -1.5008,-1.70435c0.03035,-0.86298 0.75148,-1.4991 1.61069,-1.42081c0.85921,0.07829 1.53114,0.84138 1.5008,1.70436c-0.03035,0.86298 -0.75148,1.4991 -1.61069,1.4208z" stroke-width="0"/><path d="M230.59377,220.01616c-0.06689,1.1574 -1.01451,1.98821 -2.11657,1.85567c-1.10206,-0.13254 -1.94124,-1.17825 -1.87435,-2.33565c0.06689,-1.1574 1.0145,-1.9882 2.11656,-1.85566c1.10206,0.13254 1.94125,1.17824 1.87436,2.33564z" stroke-width="NaN"/><path d="M232.99279,224.86276c-0.06153,1.0648 -0.90554,1.83249 -1.88516,1.71468c-0.97961,-0.11781 -1.72386,-1.07652 -1.66232,-2.14132c0.06153,-1.0648 0.90554,-1.8325 1.88516,-1.71468c0.97961,0.11781 1.72386,1.07652 1.66232,2.14132z" stroke-width="0"/><path d="M235.01011,213.93375c-0.77433,-0.36512 -1.14821,-1.42046 -0.83508,-2.35718c0.31313,-0.93671 1.19468,-1.40007 1.96901,-1.03495c0.77433,0.36512 1.1482,1.42046 0.83508,2.35718c-0.31313,0.93671 -1.19467,1.40007 -1.969,1.03495z" stroke-width="NaN"/><path d="M229.62601,210.81322c-0.74335,-0.35051 -1.12032,-1.30965 -0.84199,-2.14229c0.27833,-0.83264 1.10657,-1.22347 1.84992,-0.87296c0.74335,0.35051 1.12033,1.30965 0.842,2.14229c-0.27833,0.83264 -1.10657,1.22347 -1.84993,0.87295z" stroke-width="0"/><path d="M233.16147,217.71607c-0.8053,-0.37973 -1.24189,-1.33442 -0.97515,-2.13235c0.26673,-0.79794 1.13579,-1.13698 1.94109,-0.75725c0.8053,0.37973 1.24189,1.33442 0.97516,2.13236c-0.26673,0.79794 -1.13579,1.13697 -1.94109,0.75725z" stroke-width="0"/></g><g stroke-linejoin="miter"><path d="M274.09296,169.46908c-0.94747,13.4176 -13.0826,23.49206 -27.10461,22.50192c-14.022,-0.99015 -24.62101,-12.66991 -23.67355,-26.08753c0.94747,-13.4176 13.08259,-23.49206 27.1046,-22.50192c14.022,0.99015 24.62102,12.66991 23.67356,26.08753z" fill="none" fill-rule="nonzero" stroke="#000000" stroke-width="4.5" stroke-linecap="butt"/><g><g fill-rule="nonzero" stroke-linecap="butt"><path d="M234.76335,150.91705l0.01084,0.00889" fill="#ffab19" stroke="#000000" stroke-width="5"/><g fill="none" stroke="none" stroke-width="1" font-family="sans-serif" font-weight="normal" font-size="12" text-anchor="start"/></g><path d="M234.76335,150.91705l0.01084,0.00889" fill="#ffab19" fill-rule="nonzero" stroke="#000000" stroke-width="5" stroke-linecap="butt"/><path d="M248.32732,168.87568" fill="#001026" fill-rule="evenodd" stroke="#000000" stroke-width="5" stroke-linecap="butt"/><g fill="none" fill-rule="nonzero" stroke="none" stroke-width="1" stroke-linecap="butt" font-family="sans-serif" font-weight="normal" font-size="12" text-anchor="start"/><g fill="none" fill-rule="nonzero" stroke="none" stroke-width="1" stroke-linecap="butt" font-family="sans-serif" font-weight="normal" font-size="12" text-anchor="start"/><path d="M281.49223,168.52346c-1.7144,2.01013 -17.89011,-7.15612 -17.89011,-7.15612" fill="none" fill-rule="nonzero" stroke="#000000" stroke-width="5" stroke-linecap="round"/><path d="M255.52837,162.24478c0,0 -21.85594,11.70296 -24.73411,10.84666" fill="none" fill-rule="nonzero" stroke="#000000" stroke-width="5" stroke-linecap="round"/></g><path d="M255.15727,164.00986l-1.13854,12.80576" fill="none" fill-rule="nonzero" stroke="#000000" stroke-width="4.5" stroke-linecap="round"/><path d="M263.66522,162.9706l-1.18792,13.50515" fill="none" fill-rule="nonzero" stroke="#000000" stroke-width="4.5" stroke-linecap="round"/><path d="M241.1489,192.43442l-29.3581,-2.30736c0,0 -1.05255,-2.40994 -0.64319,-3.28477c0.93872,-2.00605 6.16184,-8.50882 6.16184,-8.50882l-7.77747,-6.64434c0,0 -2.48536,-1.73155 -2.72653,-2.85057c-0.22434,-1.04098 8.62562,-7.03827 8.62562,-7.03827c0,0 -3.27376,-9.14736 -5.36805,-11.28117c-0.82237,-0.83789 7.52157,-2.62058 16.43102,-5.72931c4.35965,-1.5212 10.32264,-3.85453 15.05301,-4.25261c7.84326,-0.66004 13.66501,2.04854 13.66501,2.04854" fill="none" fill-rule="nonzero" stroke="#000000" stroke-width="3" stroke-linecap="round"/><path d="M209.92575,189.99537c0,0 -0.42996,-1.43774 0.93261,-3.2792c1.70666,-2.30648 7.26276,-5.17305 5.77936,-7.64514c-1.92159,-3.20233 -10.47855,-6.33046 -8.65864,-10.05854c0.39217,-0.80334 0.16071,-2.42094 1.35523,-3.38269c3.35728,-2.70307 5.75604,-2.32198 5.86364,-3.84601c0.14559,-2.0617 1.89299,-3.02779 -0.52629,-5.95655c-3.44072,-4.1653 -1.31311,-6.34892 -1.31311,-6.34892c0,0 5.49187,-2.42505 11.34598,-4.46461c5.49245,-1.91354 16.03692,-3.21555 16.03692,-3.21555c0,0 -15.8659,12.66087 -18.55916,20.53944c-2.98552,8.73353 13.22061,28.5196 13.22061,28.5196z" fill="url(#color-1)" fill-rule="nonzero" stroke="none" stroke-width="0" stroke-linecap="butt"/></g><path d="M238.09001,187.21716c-5.3619,-1.71626 -8.97616,-7.02437 -8.97616,-7.02437c0,0 8.83342,-6.13966 11.07346,-5.80411c2.02762,0.30372 1.91356,12.15798 4.18824,11.56194c1.08464,-0.28421 1.30761,2.51268 1.91412,2.82165c0.36431,0.18561 -3.01925,0.10307 -8.19966,-1.55511z" fill="#ff0000" fill-rule="nonzero" stroke="#000000" stroke-width="2" stroke-linecap="butt" stroke-linejoin="miter"/><path d="M238.01858,206.79312l5.17191,-9.23235" fill="none" fill-rule="nonzero" stroke="#000000" stroke-width="6" stroke-linecap="round" stroke-linejoin="miter"/><path d="M221.65245,202.53481c0,0 13.88312,-1.49968 14.56311,-2.39071c1.23125,-1.61337 9.05364,-5.80431 9.05364,-5.80431l35.60069,-1.878" fill="none" fill-rule="nonzero" stroke="#000000" stroke-width="6" stroke-linecap="round" stroke-linejoin="miter"/><g fill-rule="nonzero" stroke-linecap="butt" stroke-linejoin="miter"><path d="M218.35306,196.04787c0,0 2.73666,-2.62868 5.25797,-3.01158c2.08387,-0.31647 3.97785,1.50696 4.43739,2.24034c0.81322,1.29791 0.57757,2.54041 -0.35492,3.76154c-0.94431,1.23658 -5.06715,2.95171 -5.06715,2.95171c0,0 -4.16393,3.28326 -5.98888,3.45358c-1.29736,0.12105 -2.36105,-0.24237 -3.04118,-1.3278c-1.05138,-1.67799 -1.74518,-3.85547 -0.2587,-5.92604c0.82769,-1.15286 5.01547,-2.14174 5.01547,-2.14174z" fill="#000000" stroke="#000000" stroke-width="1.2"/><g stroke="none" stroke-width="1"><path d="M228.98289,196.78448c-0.04989,-0.23093 0.05929,-0.34652 0.21186,-0.45777c0.25519,-0.15519 0.53796,-0.25347 0.80239,-0.3896c0.02369,-0.07898 0.04743,-0.15793 0.05399,-0.22952c0.21621,-1.51462 0.99779,-2.62931 1.99105,-3.60526c0.21046,-0.20487 0.41181,-0.42872 0.68537,-0.54592c0.05131,-0.02195 0.1105,-0.07028 0.12628,-0.12294c0.08692,-0.28955 0.30918,-0.38478 0.5394,-0.50633c0.19599,-0.10692 0.41036,-0.17584 0.61556,-0.26372c0.11967,-0.05127 0.25779,-0.06457 0.39851,0.01275c0.14067,0.07734 0.30508,0.07572 0.45233,0.0814c0.83774,-0.06076 1.68858,0.03339 2.5433,0.26349c0.47995,0.13836 0.91914,0.36302 1.3675,0.60671c1.31882,0.71934 2.37842,1.7561 3.23677,3.01675c0.37986,0.57118 0.6834,1.19798 0.91859,1.85405c0.17867,0.49679 0.21926,1.00695 0.23356,1.50539c0.04547,1.58603 -0.4258,2.95763 -1.27451,4.14689c-0.15789,0.2282 -0.37757,0.41406 -0.59726,0.59992c-0.14336,0.13024 -0.26049,0.27217 -0.2711,0.50606c-0.00272,0.20756 -0.11977,0.34948 -0.27235,0.46072c-0.25519,0.15519 -0.52878,0.2724 -0.80239,0.38961c-0.08552,0.03663 -0.1723,0.02796 -0.25912,0.01924c-0.32218,-0.06837 -0.60626,-0.01546 -0.88906,0.08276c-0.59058,0.2301 -1.23894,0.25558 -1.87809,0.30007c-0.24202,0.01192 -0.49317,0.00488 -0.74566,-0.04745c-0.81793,-0.1541 -1.61093,-0.34188 -2.38405,-0.74454c-0.25645,0.10989 -0.53927,0.2081 -0.81284,0.32536c-0.10261,0.04396 -0.2223,0.09523 -0.34586,0.01058c-0.11436,-0.06567 -0.20781,-0.00273 -0.31037,0.04126c-0.69314,0.27407 -1.37711,0.56709 -2.07029,0.84115c-1.53103,0.63302 -3.0791,1.27337 -4.62853,1.8684c-1.51521,0.58038 -3.00281,1.21779 -4.49965,1.83614c-0.2394,0.10258 -0.48007,0.1598 -0.71943,0.26238c-1.16273,0.49818 -2.32549,0.99634 -3.49742,1.47553c-0.20518,0.08793 -0.39199,0.2138 -0.63524,0.1804c-0.08682,-0.00866 -0.16308,0.04694 -0.24859,0.08356c-0.85494,0.36634 -1.7362,0.72095 -2.59116,1.08725c-0.0342,0.01465 -0.08552,0.03662 -0.11967,0.05127c-0.26437,0.13624 -0.46557,0.06187 -0.71406,-0.15277c-0.82564,-0.7242 -1.37898,-1.61091 -1.6601,-2.66017c-0.0683,-0.26889 -0.10238,-0.55245 -0.09309,-0.83165c0.00275,-0.20757 0.1027,-0.34216 0.26445,-0.4344c0.4854,-0.27677 0.96157,-0.57252 1.46407,-0.85661c0.35779,-0.19917 0.75107,-0.36769 1.08125,-0.6238c0.71955,-0.56056 1.56665,-0.90058 2.31373,-1.4042c0.42487,-0.2738 0.81426,-0.57825 1.24836,-0.83303c0.46824,-0.26944 0.90106,-0.56952 1.34301,-0.85066c0.80768,-0.50659 1.65084,-0.98253 2.44927,-1.50812c1.03522,-0.71875 2.10729,-1.36157 3.17932,-2.00436c0.36572,-0.22549 0.7313,-0.45097 1.09703,-0.67646c0.57877,-0.33976 1.17464,-0.68675 1.75338,-1.02642c0.3236,-0.18453 0.61168,-0.39969 0.93523,-0.58421c0.33152,-0.21086 0.65636,-0.35004 1.01419,-0.54921zM229.45222,197.15675c0.00779,0.2719 0.04973,0.52911 0.15225,0.78337c0.08529,0.55978 0.29947,1.08726 0.51368,1.61474c0.26148,0.66778 0.60056,1.32523 0.93044,1.96366c0.37586,0.73343 0.89512,1.33662 1.44069,1.95151c0.07102,0.06133 0.142,0.12265 0.24847,0.2146c0.1368,-0.05861 0.27357,-0.11723 0.41035,-0.17582c0.0342,-0.01464 0.05919,-0.04832 0.10126,-0.08927c-0.06438,-0.13295 -0.1459,-0.25858 -0.24446,-0.37689c-0.16171,-0.20595 -0.27996,-0.40757 -0.44162,-0.61351c-0.37855,-0.52584 -0.61248,-1.13666 -0.93975,-1.68446c-0.16435,-0.29658 -0.36274,-0.57849 -0.49284,-0.88972c-0.27069,-0.68675 -0.62683,-1.33689 -0.8291,-2.05292c-0.04858,-0.18562 -0.10643,-0.39016 -0.15498,-0.57583c0.06582,-0.11993 -0.04202,-0.25721 -0.05378,-0.36688c-0.00387,-0.13592 -0.0078,-0.27191 -0.12607,-0.47346c-0.1579,0.22818 -0.4078,0.26647 -0.5762,0.43031c0.0289,0.10232 -0.03688,0.22221 0.0617,0.34052zM229.23882,198.16559c-0.05769,-0.5028 -0.09578,-0.62406 -0.24957,-0.85636c-0.19599,0.10692 -0.37487,0.20653 -0.57088,0.31338c-0.11967,0.05127 -0.16841,0.16385 -0.16451,0.29986c0.00258,0.09063 0.04859,0.18562 0.05119,0.27622c0.01826,0.33621 0.12342,0.68108 0.28767,0.97766c-0.02105,0.16959 0.05245,0.32151 0.12607,0.47348c0.39686,0.86203 0.76745,1.71245 1.24979,2.53783c0.21818,0.36525 0.45345,0.72314 0.69663,1.05468c0.20639,0.25564 0.42198,0.53019 0.73755,0.67022c0.22233,-0.09524 0.44454,-0.1905 0.66686,-0.28573c-0.10777,-0.13728 -0.20639,-0.25564 -0.29575,-0.35488c-0.39435,-0.47324 -0.7545,-0.96108 -1.0463,-1.47828c-0.38243,-0.66179 -0.67942,-1.36024 -0.9935,-2.05132c-0.15641,-0.32292 -0.20102,-0.67076 -0.37448,-0.98633c0.03687,-0.2222 -0.03799,-0.41949 -0.12076,-0.5904zM211.34831,208.67471c0.0262,0.30987 0.13787,0.58311 0.28376,0.84167c-0.00791,0.02629 -0.00661,0.07162 0.00261,0.09062c0.23786,0.44853 0.50995,0.88241 0.86622,1.23433c0.20512,0.21033 0.39306,0.42791 0.67312,0.53724c0.95758,-0.41025 1.91507,-0.82055 2.92396,-1.25276c-0.40883,-0.37528 -0.7152,-0.7945 -1.0043,-1.22103c-0.26161,-0.36958 -0.39426,-0.77141 -0.62165,-1.15563c-0.07361,-0.15193 -0.12092,-0.29226 -0.19451,-0.44419c-0.02489,-0.26451 -0.09318,-0.53344 -0.21404,-0.82566c-0.51298,0.2198 -0.91814,0.5769 -1.37856,0.81998c-0.46829,0.26944 -0.92735,0.55788 -1.37852,0.81999c-0.03688,0.22221 0.00245,0.38882 0.04189,0.55542zM214.55523,206.72732c-0.02105,0.16959 0.03542,0.32889 0.10898,0.48078c0.00518,0.18126 0.10508,0.34492 0.17076,0.52316c0.24051,0.53916 0.56644,1.04169 0.91744,1.51056c0.21556,0.2746 0.4654,0.53451 0.76515,0.72716c0.0684,-0.0293 0.14599,-0.03961 0.21438,-0.06896c0.8379,-0.35897 1.65858,-0.71059 2.50565,-1.05062c0.89834,-0.36196 1.77959,-0.71661 2.67794,-1.07859c1.30873,-0.53782 2.60958,-1.04923 3.91831,-1.58704c1.47182,-0.58471 2.89894,-1.21912 4.38916,-1.76584c0.24858,-0.08355 0.49584,-0.21248 0.75235,-0.32236c-0.16959,-0.17962 -0.36416,-0.32557 -0.49955,-0.51985c-0.47584,-0.59883 -0.85832,-1.26064 -1.20659,-1.93709c-0.29435,-0.60777 -0.57165,-1.22291 -0.84891,-1.83805c-0.08541,-0.26158 -0.17866,-0.49683 -0.26407,-0.7584c0.02901,-0.19589 -0.08799,-0.35219 -0.1274,-0.51878c-0.04858,-0.18562 -0.0538,-0.36683 -0.16287,-0.54944c-0.18938,0.03528 -0.30781,0.13189 -0.41829,0.20215c-0.90768,0.64121 -1.90602,1.13771 -2.84127,1.7219c-0.60378,0.37339 -1.20755,0.7467 -1.80208,1.13909c-0.80768,0.50655 -1.58902,1.02483 -2.37957,1.52409c-0.64581,0.41437 -1.29172,0.82869 -1.94679,1.22399c-0.69718,0.4363 -1.38643,0.84626 -2.09278,1.26361c-0.63797,0.38801 -1.29302,0.78338 -1.93889,1.19768c0.06569,0.17822 0.0183,0.33621 0.10899,0.48079zM240.54041,203.25425c-0.35624,-0.35191 -0.61785,-0.72151 -0.89651,-1.08372c-0.28787,-0.38123 -0.58365,-0.73615 -0.85443,-1.12467c-0.26161,-0.36958 -0.49818,-0.77285 -0.74261,-1.14972c-0.25367,-0.39592 -0.50737,-0.79177 -0.75315,-1.21397c-0.22734,-0.38422 -0.44683,-0.79477 -0.67423,-1.17899c-0.21945,-0.41053 -0.37056,-0.85039 -0.65844,-1.23164c-0.0906,-0.44279 -0.36136,-0.83135 -0.53749,-1.23756c-0.16816,-0.43251 -0.37975,-0.86939 -0.54796,-1.3019c-0.15897,-0.4135 -0.31007,-0.85339 -0.45195,-1.27423c-0.15108,-0.43986 -0.22454,-0.89001 -0.42693,-1.30781c-0.42878,0.13782 -0.54846,0.18912 -0.78265,0.47293c0.02489,0.26451 0.04978,0.52912 0.12727,0.81699c0.1051,0.34489 0.21013,0.68973 0.30734,1.06094c0.19308,0.6971 0.39407,1.36785 0.71603,2.03262c0.2208,0.45587 0.45867,0.9044 0.61104,1.38957c0.0289,0.10232 0.0841,0.21625 0.17347,0.31556c0.16169,0.20595 0.26416,0.46023 0.37459,0.68812c0.40475,0.83574 0.9121,1.6275 1.42738,2.39293c0.66116,1.02408 1.42359,1.95882 2.23738,2.87158c0.1525,0.18692 0.30497,0.37394 0.53242,0.45986c0.27491,-0.07189 0.52222,-0.20079 0.81945,-0.39694zM238.85878,194.70899c-0.29588,-0.05668 -0.55499,-0.03744 -0.82326,-0.03717c-0.23409,-0.01441 -0.44848,0.05452 -0.61687,0.21841c-0.33809,0.28247 -0.72084,0.51529 -1.14046,0.6721c-0.03419,0.01464 -0.07629,0.05561 -0.09338,0.06294c-0.00528,0.11693 0.03152,0.19289 0.12879,0.26591c0.02629,0.01167 0.06971,0.01601 0.08682,0.00867c0.52349,-0.15549 1.06534,-0.27294 1.62561,-0.35246c0.07761,-0.0103 0.18937,-0.03528 0.2394,-0.10258c0.2368,-0.1932 0.47358,-0.38636 0.59337,-0.73588zM235.72487,194.67559c0.48926,-0.14085 0.97984,-0.23631 1.46253,-0.30548c0.15516,-0.02066 0.26568,-0.09089 0.37485,-0.20652c0.1592,-0.18287 0.2658,-0.38913 0.38953,-0.60265c0.05,-0.06727 0.11709,-0.14188 0.02771,-0.2412c-0.33669,0.02957 -0.66549,0.03287 -0.98374,0.10039c-0.56176,0.63059 -0.56176,0.63059 -1.37329,1.00123c-0.02372,0.07895 -0.00401,0.16229 0.10246,0.25426zM236.29506,200.07336c-0.34458,0.05589 -0.67997,0.13081 -1.01534,0.20567c-0.07761,0.0103 -0.15519,0.02062 -0.21438,0.0689c-0.2092,0.25016 -0.42758,0.48136 -0.53948,0.80454c0.31556,0.14003 0.59964,0.08711 0.89426,0.09851c0.14726,0.00572 0.24067,-0.05726 0.33278,-0.16554c0.19998,-0.26915 0.4184,-0.50038 0.66308,-0.71982c0.01711,-0.00733 0.01583,-0.05261 0.0316,-0.10524c-0.04471,-0.04964 -0.09862,-0.11835 -0.1525,-0.18694zM240.74988,198.48571c-0.39318,-0.12972 -0.70487,-0.1338 -1.02575,-0.15684c-0.12099,0.00595 -0.19726,0.0616 -0.27355,0.11722c-0.35518,0.28982 -0.738,0.52258 -1.17466,0.68675c-0.05129,0.02196 -0.0934,0.06293 -0.14468,0.08493c0.08408,0.21627 0.11957,0.24693 0.25637,0.1883c0.4446,-0.1905 0.91807,-0.27864 1.40332,-0.25724c0.29458,0.01138 0.4906,-0.09549 0.66687,-0.28569c0.08294,-0.12726 0.15795,-0.22819 0.2921,-0.37744zM236.79326,196.92426c0.046,0.09496 0.12363,0.0846 0.19204,0.05534c0.47879,-0.2051 1.01404,-0.251 1.54932,-0.29682c0.43136,-0.04722 0.78785,-0.29167 1.02603,-0.73777c-0.21828,-0.06704 -0.39848,-0.01274 -0.59834,-0.04178c-0.4169,-0.05075 -0.74176,0.08843 -1.04697,0.31094c-0.33936,0.23714 -0.66957,0.4933 -1.06413,0.61652c-0.04207,0.04099 -0.05004,0.0673 -0.0579,0.09361zM239.51131,197.84679c0.1934,-0.19754 0.39595,-0.37607 0.57755,-0.68318c-0.26039,-0.02606 -0.44316,-0.06243 -0.61677,-0.07977c-0.2867,-0.03768 -0.50105,0.03122 -0.70367,0.20973c-0.2697,0.25316 -0.59327,0.43768 -0.92604,0.60319c-0.1105,0.07026 -0.24728,0.12887 -0.36695,0.18015c0.0289,0.10232 0.08932,0.0993 0.12358,0.08464c0.54188,-0.11752 1.09292,-0.21597 1.6637,-0.23116c0.09471,-0.01764 0.17227,-0.02794 0.24856,-0.08357zM237.04556,201.19667c-0.28808,0.2152 -0.62349,0.29004 -0.94968,0.38392c-0.08548,0.03662 -0.1815,0.00895 -0.24857,0.08358c-0.10922,0.11563 -0.27239,0.46073 -0.32514,0.73561c0.2354,0.05972 0.45897,0.00978 0.68389,0.0052c0.1815,-0.00896 0.30905,-0.08655 0.39988,-0.24013c0.16578,-0.25448 0.34998,-0.47104 0.59599,-0.64526c0.01711,-0.00733 0.03288,-0.05998 0.04077,-0.08626c-0.01969,-0.08332 -0.05648,-0.15926 -0.19722,-0.23659zM232.77096,195.18436c-0.18417,0.21652 -0.4841,0.32206 -0.62359,0.58827c0.08149,0.12563 0.19457,0.14599 0.29979,0.19267c0.2012,0.07435 0.37736,0.18234 0.61146,0.19672c0.25261,-0.2458 0.61297,-0.35439 0.89184,-0.58853c0.00528,-0.11693 -0.04067,-0.21192 -0.1209,-0.29222c-0.34588,0.01057 -0.69307,-0.02413 -1.05864,-0.09686zM235.04647,197.87903c-0.18938,0.03528 -0.37877,0.07057 -0.54444,0.02685c-0.40103,-0.10339 -0.68256,0.04017 -0.89963,0.31665c-0.07498,0.1009 -0.17759,0.14488 -0.22502,0.30281c0.26304,0.11668 0.51548,0.16908 0.76799,0.22136c0.0697,0.01602 0.13807,-0.01331 0.21436,-0.06894c0.2197,-0.18589 0.43148,-0.34543 0.65118,-0.53125c0.05129,-0.02195 0.10129,-0.08928 0.03557,-0.26757zM234.4669,196.68243c-0.41298,0.0852 -0.81016,0.11774 -1.20333,-0.01197c-0.07887,-0.035 -0.13808,0.01332 -0.20645,0.04263c-0.1447,0.08493 -0.2802,0.18886 -0.37888,0.36875c0.3682,0.16338 0.69041,0.23173 1.02963,0.29276c0.11309,0.02034 0.20778,0.00273 0.30119,-0.06026c0.16972,-0.11855 0.3486,-0.21816 0.51827,-0.33674c0.01709,-0.00732 0.03289,-0.05998 0.04079,-0.08628c-0.02758,-0.057 -0.05518,-0.11399 -0.10121,-0.20891zM240.61118,200.28824c0.13416,-0.14924 0.28551,-0.30579 0.41972,-0.45504c0.00791,-0.02627 0.0158,-0.05264 0.03159,-0.10525c-0.25507,-0.14302 -0.51546,-0.16907 -0.74036,-0.16447c-0.46567,0.36008 -0.89713,0.70548 -1.47853,0.95457c0.40238,0.1487 0.61152,-0.1015 0.86141,-0.13976c0.30119,-0.06025 0.60365,-0.07516 0.90612,-0.09009zM239.14032,194.26723c0.1132,-0.27782 0.24478,-0.51775 0.23569,-0.83489c-0.15648,-0.02472 -0.28797,-0.08302 -0.41819,-0.09604c-0.13019,-0.01299 -0.26959,-0.04504 -0.38927,0.00627c-0.12627,0.12293 -0.16449,0.29986 -0.2382,0.44606c-0.07364,0.14626 -0.18291,0.26186 -0.19481,0.45042c0.33797,0.01572 0.64966,0.01979 1.00475,0.02822zM235.10193,193.47468c0.54977,-0.14383 1.00484,-0.27002 1.45988,-0.39616c0.03421,-0.01466 0.09472,-0.01761 0.1105,-0.07026c0.12367,-0.21355 0.29999,-0.40377 0.30009,-0.70195c-0.27619,0.02658 -0.53528,0.04584 -0.78517,0.08414c-0.27373,0.41542 -0.63676,0.73149 -1.08536,1.08427zM233.96742,199.78631c0.20251,0.11966 0.39186,0.08436 0.56545,0.10175c0.19986,0.02903 0.37216,0.00108 0.52346,-0.15548c0.21046,-0.20485 0.42098,-0.40972 0.71298,-0.48898c-0.03023,-0.14762 -0.08411,-0.21627 -0.18667,-0.17232c-0.26567,0.09091 -0.54848,0.18909 -0.82595,0.17038c-0.3985,-0.01277 -0.58143,0.24909 -0.7893,0.54461zM233.4329,197.74469c-0.41027,-0.12239 -0.73376,-0.23605 -1.04802,-0.33076c-0.11967,0.05127 -0.16052,0.13755 -0.21046,0.20484c-0.04079,0.08626 -0.12495,0.16822 -0.09478,0.3158c0.23801,0.15036 0.50094,0.267 0.77181,0.3574c0.19468,-0.15222 0.36308,-0.3161 0.58152,-0.54727zM234.03922,201.08567c0.17371,-0.2808 0.32238,-0.52803 0.48818,-0.78251c-0.28671,-0.03771 -0.55631,-0.08277 -0.82588,-0.1278c-0.15789,0.2282 -0.31712,0.41108 -0.36058,0.70494c0.23667,0.105 0.46286,0.14571 0.69824,0.20541zM240.12907,194.94454c-0.21298,-0.18399 -0.46288,-0.14569 -0.68905,-0.18642c-0.0697,-0.01602 -0.14599,0.03957 -0.17888,0.09958c-0.11579,0.18722 -0.2237,0.34814 -0.32242,0.528c-0.01711,0.00733 0.0013,0.04535 0.01968,0.08335c0.30379,0.03042 0.61544,0.03444 0.91926,0.06485c0.125,-0.1682 0.18819,-0.37875 0.2514,-0.58934zM241.00645,198.07761c0.15129,-0.15658 0.2855,-0.3058 0.30402,-0.56601c-0.2275,-0.08602 -0.47337,-0.21 -0.72456,-0.21707c-0.09212,0.10825 -0.20258,0.17854 -0.26838,0.29845c-0.07497,0.10089 -0.22101,0.14051 -0.18947,0.33344c0.29588,0.05671 0.59175,0.11342 0.87848,0.15113zM234.38229,201.58086c-0.11708,0.14192 -0.11979,0.34949 -0.1396,0.56437c0.27878,0.06409 0.52468,0.18802 0.80084,0.16148c0.06321,-0.21057 0.2053,-0.3861 0.24089,-0.65366c-0.30378,-0.03042 -0.59836,-0.04182 -0.90215,-0.07219zM237.88946,202.25705c-0.31699,0.11288 -0.61424,0.3091 -0.94968,0.38393c-0.27487,0.07192 -0.34725,0.26347 -0.37367,0.55c0.25245,0.05234 0.45897,0.00977 0.69174,-0.02119c0.15397,-0.36413 0.43286,-0.59834 0.63155,-0.91279zM234.82614,192.30844c0.0539,0.06867 0.10517,0.04666 0.15649,0.02473c0.23147,-0.07625 0.47087,-0.17884 0.71157,-0.23607c0.36166,-0.06324 0.44067,-0.32644 0.50916,-0.65393c-0.13811,0.01329 -0.24198,0.01197 -0.33666,0.02958c-0.23279,0.03095 -0.43005,0.0925 -0.53535,0.34405c-0.07366,0.14624 -0.20921,0.25018 -0.32757,0.34681c-0.0776,0.0103 -0.18149,0.00896 -0.17762,0.14488zM231.9374,194.48647c0.11435,0.06565 0.2104,0.09335 0.28927,0.12834c0.22876,0.13134 0.4103,0.12237 0.59708,-0.00356c0.15258,-0.11121 0.34989,-0.17281 0.51168,-0.2651c0.05131,-0.02195 0.11178,-0.02497 0.0645,-0.16525c-0.28543,0.00756 -0.58919,-0.02277 -0.89426,-0.09851c-0.06969,-0.01603 -0.15517,0.02062 -0.22358,0.0499c-0.11837,0.09656 -0.21972,0.18586 -0.34468,0.35408zM233.47035,199.65521c0.13421,-0.14922 0.29469,-0.28679 0.38416,-0.48571c-0.28008,-0.10933 -0.53516,-0.25235 -0.82184,-0.29008c-0.1158,0.18724 -0.25919,0.31745 -0.2606,0.57037c0.2275,0.08604 0.4471,0.19839 0.69826,0.20542zM239.58931,196.64361c0.2801,0.10931 0.54049,0.13536 0.78242,0.12341c0.11579,-0.18722 0.22367,-0.34811 0.29478,-0.58501c-0.17622,-0.108 -0.35899,-0.14435 -0.54967,-0.15439c-0.16707,0.20922 -0.34338,0.39941 -0.52759,0.61595zM231.86512,198.30176c-0.06452,0.16528 -0.12239,0.25884 -0.14479,0.38314c-0.02369,0.07898 -0.03031,0.1506 -0.03691,0.22227c0.17749,0.15332 0.37996,0.27295 0.60617,0.31367c0.125,-0.1682 0.24996,-0.33646 0.27766,-0.57769c-0.23667,-0.10498 -0.43918,-0.22467 -0.70215,-0.34133zM233.12279,193.2676c-0.30639,-0.12099 -0.51673,-0.21434 -0.77053,-0.31204c-0.0776,0.0103 -0.18808,0.08056 -0.26307,0.18153c-0.08419,0.08192 -0.22226,0.09524 -0.25257,0.24583c0.13413,0.14897 0.27479,0.22627 0.44048,0.26997c0.26437,-0.13624 0.52089,-0.24609 0.84575,-0.38526zM239.80345,193.54742c-0.03951,0.13164 -0.07901,0.26325 -0.11852,0.39481c-0.0395,0.13163 -0.06187,0.25588 -0.10139,0.38748c0.25245,0.05239 0.45366,0.12673 0.66012,0.08416c0.07498,-0.10093 0.054,-0.22956 0.05934,-0.3465c0.00528,-0.11693 0.06188,-0.2559 -0.01959,-0.38148c-0.17495,-0.06269 -0.31556,-0.14003 -0.48,-0.13838zM232.894,200.68196c0.09738,-0.2252 0.25662,-0.40812 0.28298,-0.69468c-0.20118,-0.07433 -0.39318,-0.12968 -0.59436,-0.20405c-0.0974,0.22521 -0.19613,0.40512 -0.17121,0.66966c0.1499,0.09628 0.26559,0.20733 0.48259,0.22901zM237.26677,192.91408c0.36299,-0.01787 0.68257,-0.04013 1.00209,-0.06241c0.06582,-0.11993 0.14082,-0.22088 0.1106,-0.36848c-0.2893,-0.12832 -0.57466,-0.12075 -0.86925,-0.13216c-0.06582,0.11997 -0.13161,0.23987 -0.17111,0.37147c-0.05924,0.04828 -0.0579,0.0936 -0.07243,0.19154zM232.14569,196.9201c0.1329,-0.19458 0.3381,-0.28249 0.40128,-0.49303c-0.2722,-0.13565 -0.51806,-0.25965 -0.7969,-0.32372c-0.05529,0.18428 -0.2263,0.25749 -0.23692,0.4914c0.17747,0.15328 0.3866,0.20137 0.63246,0.32536zM241.41627,199.39277c0.14999,-0.2019 0.29208,-0.37741 0.32899,-0.59967c-0.16699,-0.08901 -0.34187,-0.15167 -0.5155,-0.16903c-0.14997,0.2019 -0.30916,0.38475 -0.49336,0.60128c0.24322,0.03338 0.43526,0.08872 0.67983,0.16744zM231.6072,194.74263c-0.1855,0.17121 -0.34598,0.30879 -0.39079,0.55731c0.15911,0.1153 0.29188,0.21898 0.46547,0.23637c0.16836,-0.16387 0.34595,-0.30879 0.53937,-0.50629c-0.20249,-0.11965 -0.39578,-0.22032 -0.61407,-0.28736zM240.84377,196.93182c0.26957,0.04504 0.47339,0.21002 0.67988,0.16742c0.11579,-0.18722 0.14481,-0.38314 0.1475,-0.59071c-0.19329,-0.10065 -0.36948,-0.20869 -0.58517,-0.18507c-0.0724,0.19154 -0.15398,0.36413 -0.24219,0.60835zM233.79697,201.99227c0.0553,-0.18425 0.129,-0.3305 0.11458,-0.53076c-0.25245,-0.05234 -0.47337,-0.21005 -0.73248,-0.19074c-0.06452,0.16526 -0.07772,0.30854 -0.012,0.48679c0.21038,0.09335 0.42868,0.16038 0.62986,0.23468zM237.15142,191.90847c0.08161,-0.17257 0.10395,-0.29682 0.09091,-0.4518c-0.2012,-0.07436 -0.42738,-0.11508 -0.63254,-0.02715c-0.04739,0.15793 -0.09479,0.3158 -0.15932,0.48109c0.26167,0.07136 0.47604,0.00244 0.70096,-0.00217zM237.10908,204.01346c0.03032,-0.15055 0.05273,-0.27488 0.01463,-0.39613c-0.22615,-0.04073 -0.43399,-0.0434 -0.64046,-0.00078c-0.05662,0.13889 -0.079,0.26318 -0.04881,0.4108c0.2354,0.0597 0.44976,-0.00923 0.67463,-0.01387zM231.63586,199.3632c-0.14998,0.20185 -0.09351,0.36114 0.00637,0.52478c0.06436,0.13295 0.16298,0.25127 0.32738,0.24965c0.08161,-0.17257 0.14611,-0.3378 0.14881,-0.54538c-0.167,-0.08899 -0.32478,-0.15901 -0.48256,-0.22903zM241.02639,201.18826c0.12628,-0.12289 0.26305,-0.1815 0.28416,-0.35111c-0.47467,-0.25532 -0.75359,-0.02118 -1.02063,0.32261c0.25117,0.00709 0.4853,0.02146 0.73646,0.0285zM231.17359,197.42831c0.15116,0.14167 0.29188,0.21896 0.50095,0.26701c0.02105,-0.16959 0.1829,-0.26187 0.17768,-0.44309c-0.07228,-0.10666 -0.15909,-0.11533 -0.24715,-0.16932c-0.10516,-0.04665 -0.18536,-0.12701 -0.30506,-0.07573c-0.06581,0.11994 -0.13162,0.2399 -0.1264,0.42113zM237.07325,197.33174c-0.00142,0.25287 0.08799,0.3522 0.25105,0.30524c0.23148,-0.07623 0.4446,-0.19047 0.64056,-0.29742c0.06838,-0.02927 0.14468,-0.08496 0.12369,-0.21353c-0.35376,0.03691 -0.68913,0.11182 -1.01533,0.20564zM234.28713,203.08951c-0.08418,0.08191 -0.09869,0.17991 -0.06062,0.30123c0.24588,0.12403 0.49307,0.29336 0.78765,0.30474c-0.00781,-0.27188 -0.12477,-0.42822 -0.36016,-0.48788c-0.10518,-0.04666 -0.21172,-0.13868 -0.36691,-0.11804zM238.47692,199.80363c0.12876,0.26591 0.19062,0.30822 0.34446,0.24231c0.23019,-0.12159 0.47749,-0.25043 0.67087,-0.44799c-0.38139,-0.02008 -0.73646,-0.02846 -1.01532,0.20566zM238.12058,203.37362c-0.14597,0.03958 -0.26569,0.09093 -0.39456,0.1232c-0.24861,0.08354 -0.24858,0.0836 -0.16852,0.4621c0.13811,-0.01333 0.30249,-0.0149 0.38003,-0.02524c0.06323,-0.21057 0.12768,-0.3758 0.18296,-0.56006zM241.7465,195.51298c-0.14068,-0.07736 -0.25769,-0.23361 -0.4458,-0.15303c-0.0303,0.15058 -0.0343,0.31285 -0.07249,0.48976c0.167,0.08903 0.32604,0.20435 0.49046,0.2027c0.02104,-0.16963 0.06851,-0.32755 0.02783,-0.53947zM236.20856,202.79377c-0.26827,0.00031 -0.54576,-0.01849 -0.81403,-0.01817c-0.06707,0.07464 -0.10789,0.16087 -0.01851,0.26018c0.23668,0.10501 0.4892,0.15741 0.73907,0.11913c0.06582,-0.11993 0.09739,-0.22521 0.09349,-0.36119zM241.81737,199.49625c0.08149,0.12563 0.19588,0.19132 0.33527,0.22333c0.05002,-0.0673 0.09998,-0.13457 0.14998,-0.20189c0.0579,-0.0936 0.12498,-0.16826 0.10398,-0.29685c-0.05519,-0.11397 -0.13537,-0.19429 -0.2577,-0.23361c-0.1079,0.16093 -0.22367,0.34813 -0.33159,0.50901zM240.34718,195.60797c0.167,0.08903 0.32351,0.11369 0.48789,0.11208c0.02901,-0.19589 0.06717,-0.3728 0.0883,-0.54236c-0.12492,-0.12998 -0.26429,-0.16198 -0.37608,-0.13704c-0.07241,0.19154 -0.14479,0.38313 -0.20015,0.56737zM241.65529,200.48302c0.07501,-0.10091 0.14999,-0.20185 0.21582,-0.32181c0.00791,-0.02627 -0.0105,-0.06432 -0.01179,-0.10967c-0.08806,-0.05401 -0.17749,-0.15332 -0.34187,-0.15167c-0.10923,0.11563 -0.26176,0.22686 -0.33417,0.41841c0.15908,0.1153 0.29847,0.1473 0.47205,0.16467zM240.67234,202.11976c0.19727,-0.06158 0.3327,0.1327 0.50368,0.05943c0.09995,-0.13456 0.2447,-0.21946 0.30788,-0.43005c-0.1499,-0.09628 -0.29061,-0.17366 -0.41685,-0.05071c-0.12629,0.12292 -0.28934,0.16985 -0.39468,0.42136zM235.53881,203.88349c0.15646,0.02471 0.32217,0.06837 0.46154,0.10039c0.02628,0.01166 0.05132,-0.02196 0.0855,-0.03665c-0.01181,-0.10961 0.02774,-0.2412 -0.10641,-0.39017c-0.18278,-0.03633 -0.38267,-0.0654 -0.59178,-0.11339c-0.00399,0.16225 0.03409,0.28356 0.15109,0.43986zM240.96035,194.65712c0.04744,-0.15793 0.11191,-0.32315 0.15138,-0.45475c-0.13413,-0.14897 -0.27478,-0.22634 -0.40626,-0.28464c-0.1105,0.07031 -0.06317,0.21054 -0.0777,0.30854c-0.01448,0.09798 -0.0461,0.20323 0.03542,0.32887c0.07101,0.06133 0.15909,0.11534 0.29721,0.10204zM230.97434,195.61005c-0.07365,0.14624 -0.12241,0.25888 -0.17109,0.37147c-0.02503,0.03364 -0.01452,0.09795 -0.02239,0.12428c0.06436,0.13295 0.17877,0.19866 0.31817,0.23063c0.0908,-0.15359 0.19079,-0.28819 0.24612,-0.47236c-0.10649,-0.09198 -0.22089,-0.15766 -0.37079,-0.25398zM238.38606,203.87915c0.2591,-0.01924 0.51815,-0.03851 0.72997,-0.19805c-0.13409,-0.14895 -0.22479,-0.29361 -0.40757,-0.32996c-0.24472,0.21948 -0.24471,0.2195 -0.32241,0.52801zM231.09062,197.85379c-0.16853,0.46209 -0.15931,0.48105 0.17733,0.74973c0.06452,-0.1653 0.10267,-0.34215 0.16722,-0.50737c-0.08148,-0.12563 -0.19587,-0.19128 -0.34444,-0.24232zM241.95855,198.38075c0.0908,-0.15358 0.14737,-0.29256 0.14221,-0.4738c-0.03549,-0.03065 -0.09732,-0.073 -0.1591,-0.11534c-0.0526,-0.02332 -0.1223,-0.03937 -0.17486,-0.06266c-0.09077,0.1536 -0.20787,0.29553 -0.21978,0.48411c0.10648,0.09197 0.25508,0.14301 0.41157,0.16765zM231.2261,194.1261c0.06178,0.04232 0.14992,0.09629 0.21041,0.09335c0.21571,-0.02361 0.36821,-0.13484 0.49195,-0.3484c-0.12359,-0.08469 -0.23136,-0.22197 -0.36158,-0.23499c-0.1342,0.14923 -0.31306,0.24882 -0.34078,0.49004zM238.46252,192.05775c0.0079,-0.02627 0.01579,-0.05262 0.0316,-0.10526c-0.25641,-0.18831 -0.53647,-0.29766 -0.81656,-0.40697c-0.09211,0.10824 -0.10658,0.20622 -0.0501,0.36548c0.26957,0.04504 0.54834,0.10904 0.83506,0.14681zM238.63654,198.42791c-0.31166,-0.00407 -0.61543,-0.03444 -0.89694,0.10908c-0.01711,0.00733 -0.01449,0.09796 0.00389,0.13593c0.046,0.09495 0.15119,0.14161 0.23666,0.10494c0.24987,-0.03824 0.45378,-0.17148 0.65635,-0.35zM242.25336,197.49752c0.05662,-0.13889 0.11323,-0.27785 0.11722,-0.44012c-0.06438,-0.13295 -0.14457,-0.21328 -0.31025,-0.25696c-0.03819,0.17695 -0.09352,0.36115 -0.11462,0.53071c0.08936,0.09927 0.17746,0.15327 0.30769,0.1663zM232.21532,200.85805c0.11169,0.27324 0.20496,0.50851 0.43503,0.68514c0.12627,-0.12293 0.1303,-0.28514 0.10801,-0.4591c-0.17619,-0.10799 -0.32605,-0.20433 -0.54308,-0.22603zM232.24985,192.40313c0.18538,0.127 0.21167,0.13869 0.26298,0.11671c0.18017,-0.05423 0.28812,-0.21518 0.37888,-0.36875c0.03287,-0.05994 0.00396,-0.16228 -0.12621,-0.1753c-0.09874,0.1799 -0.35783,0.19917 -0.51566,0.42738zM238.71076,192.86879c0.27879,0.06407 0.54967,0.15439 0.84954,0.04883c-0.24847,-0.21461 -0.51809,-0.25964 -0.75344,-0.31936c-0.07629,0.05563 -0.08289,0.12725 -0.09605,0.27051zM230.91871,196.68893c-0.09728,-0.07297 -0.17749,-0.15327 -0.27479,-0.22626c-0.10793,0.16091 -0.17238,0.32615 -0.01988,0.5131c0.0447,0.04967 0.08936,0.09928 0.16698,0.08901c0.08418,-0.08191 0.10661,-0.20624 0.12769,-0.37579zM239.26419,201.00297c0.08282,0.17093 0.15373,0.23227 0.28133,0.15466c0.11051,-0.07029 0.22099,-0.14054 0.32229,-0.22984c0.04206,-0.04096 0.07502,-0.10097 0.02111,-0.16959c-0.23278,0.03093 -0.42084,0.11153 -0.62475,0.24475zM236.1106,193.63883c-0.25913,0.01924 -0.49981,0.07654 -0.69447,0.22875c-0.01711,0.00733 -0.01446,0.09796 -0.00526,0.11693c0.01838,0.03797 0.08809,0.05401 0.12228,0.03934c0.2131,-0.1142 0.43669,-0.16416 0.57749,-0.38506zM235.08764,192.97623c0.1434,-0.13024 0.33151,-0.21084 0.46442,-0.40534c-0.26827,0.00028 -0.47476,0.04291 -0.54977,0.14383c-0.0842,0.08194 -0.04743,0.15794 0.08539,0.26156zM233.31283,202.61249c0.16171,0.20595 0.29051,0.4719 0.56011,0.51692c-0.0288,-0.40048 -0.29837,-0.44551 -0.56011,-0.51692zM236.29601,201.01317c0.01839,0.03797 0.04475,0.04971 0.06309,0.08767c0.16177,-0.09224 0.35247,-0.08225 0.46036,-0.24314c-0.03811,-0.12129 -0.08282,-0.17095 -0.19591,-0.19128c-0.09211,0.10825 -0.20129,0.22386 -0.32757,0.3468zM237.2105,196.0803c-0.26697,0.04559 -0.47347,0.0882 -0.66945,0.1951c-0.03421,0.01466 -0.05003,0.06725 -0.0224,0.12426c0.0092,0.01903 0.04467,0.04967 0.07102,0.06133c0.2591,-0.01924 0.46425,-0.10719 0.62086,-0.38069zM231.17724,194.53691c-0.08937,-0.0993 -0.15117,-0.14163 -0.18409,-0.08165c-0.09211,0.10825 -0.17496,0.23555 -0.25788,0.36281c-0.04079,0.08626 -0.01323,0.14325 0.08281,0.17094c0.16053,-0.13754 0.28682,-0.26049 0.3592,-0.45204zM242.12488,196.33703c0.08809,0.05401 0.15911,0.11531 0.24718,0.16932c0.02629,0.01167 0.0605,-0.00295 0.12098,-0.00595c-0.11034,-0.22791 -0.16026,-0.45879 -0.34825,-0.67644c-0.03819,0.17695 -0.06062,0.30121 -0.01989,0.51311zM234.13577,195.99862c-0.16182,0.09225 -0.3065,0.17718 -0.50248,0.28409c0.26302,0.11667 0.44447,0.10773 0.60625,0.01548c0.0053,-0.11695 -0.0052,-0.18125 -0.10377,-0.29958zM237.45175,201.77944c-0.08295,0.12726 -0.28937,0.16984 -0.29078,0.42274c0.43797,-0.11886 0.52346,-0.15548 0.51168,-0.26512c-0.046,-0.09495 -0.1078,-0.13731 -0.22089,-0.15767zM236.62434,194.95532c-0.36687,-0.11807 -0.57206,-0.0301 -0.79175,0.15575c0.33399,0.17801 0.49973,-0.07656 0.79175,-0.15575zM240.58047,201.63166c-0.34055,-0.10637 -0.52871,-0.02578 -0.71549,0.10012c-0.01708,0.00733 -0.01577,0.05265 0.0026,0.09061c0.02758,0.05701 0.08019,0.0803 0.11437,0.06568c0.18018,-0.05423 0.34197,-0.1465 0.59846,-0.2564zM238.14979,202.58134c-0.12628,0.12289 -0.28808,0.2152 -0.31576,0.45633c0.1986,-0.01628 0.34326,-0.10122 0.47086,-0.17881c-0.00388,-0.13592 -0.05778,-0.20455 -0.15507,-0.27757zM241.68391,201.47998c0.08951,-0.19891 0.27758,-0.27948 0.254,-0.49873c-0.26699,0.0456 -0.26697,0.04559 -0.40518,0.35708c0.03549,0.03065 0.07101,0.06132 0.15118,0.14165zM234.25316,202.50781c0.1801,0.24391 0.39837,0.31095 0.62456,0.35164c0.075,-0.10092 0.0382,-0.17692 -0.04066,-0.21191c-0.18277,-0.03635 -0.37482,-0.09174 -0.58385,-0.13971zM242.31883,198.5704c0.07229,0.10666 0.13536,0.1943 0.26552,0.20729c0.04869,-0.11262 0.09745,-0.22522 0.05931,-0.34647c-0.06309,-0.08764 -0.12489,-0.12996 -0.2117,-0.13864c-0.06707,0.07465 -0.09081,0.15357 -0.11318,0.27786zM235.04609,198.77364c0.16436,-0.00162 0.28542,-0.00758 0.3696,-0.08954c0.02503,-0.03364 0.02371,-0.07895 0.0224,-0.12427c-0.02758,-0.057 -0.09857,-0.11833 -0.14068,-0.07734c-0.10261,0.04398 -0.22231,0.09527 -0.25132,0.2912zM241.70462,194.95751c-0.0315,-0.19293 -0.1906,-0.30825 -0.29837,-0.44553c-0.1119,0.32318 -0.09347,0.36117 0.29837,0.44553zM234.58961,191.90522c0.29329,-0.03392 0.29328,-0.03393 0.31309,-0.24883c-0.12099,0.00597 -0.25914,0.01927 -0.31309,0.24883zM236.06897,199.73442c0.01446,-0.09798 -0.01309,-0.15493 -0.05647,-0.15927c-0.18278,-0.03632 -0.22489,0.0046 -0.29599,0.24151c0.14727,0.00573 0.24993,-0.03823 0.3525,-0.0822zM240.82998,202.48793c-0.13154,-0.05832 -0.25379,-0.09767 -0.35506,-0.00846c0.19851,0.28188 0.24183,0.28626 0.35506,0.00846zM234.99483,191.24999c-0.17492,-0.06269 -0.32088,-0.02308 -0.44973,0.0092c-0.0684,0.02928 -0.09212,0.10826 0.03147,0.19295c0.12886,-0.03232 0.2749,-0.07189 0.41828,-0.20215zM242.29319,200.39322c-0.18938,0.03528 -0.24732,0.12887 -0.20792,0.29551c0,0 0.03548,0.03067 0.0526,0.02332c0.11178,-0.02497 0.12501,-0.16821 0.15534,-0.31884zM234.56663,197.44244c0.08937,0.09928 0.17623,0.10798 0.23537,0.05969c0.0342,-0.01466 0.05,-0.0673 0.04871,-0.11259c-0.00132,-0.04531 -0.06308,-0.08762 -0.09728,-0.07295c-0.06052,0.00296 -0.12886,0.03227 -0.18678,0.12589zM242.60319,197.6229c-0.08294,0.12726 -0.09743,0.2252 0.04457,0.34785c0.0908,-0.15361 0.08821,-0.2442 -0.04457,-0.34785z" fill="#000000"/><path d="M228.43742,199.79322c0.27725,0.61512 0.55453,1.2303 0.84894,1.83808c0.33118,0.6838 0.73076,1.33821 1.20659,1.93708c0.1525,0.18694 0.32075,0.32124 0.49951,0.51988c-0.27363,0.11722 -0.50375,0.23883 -0.75234,0.32235c-1.47314,0.5394 -2.91734,1.1811 -4.38916,1.76584c-1.31794,0.51878 -2.60955,1.04923 -3.9183,1.58705c-0.89835,0.36198 -1.77962,0.7166 -2.67795,1.07852c-0.84707,0.34 -1.65859,0.71062 -2.50563,1.05063c-0.0684,0.0293 -0.13681,0.05859 -0.2144,0.06892c-0.31688,-0.1853 -0.54035,-0.43362 -0.76513,-0.72717c-0.35099,-0.46889 -0.67694,-0.9714 -0.91741,-1.51054c-0.08282,-0.17093 -0.1827,-0.33455 -0.17078,-0.52311c0.11699,0.1563 0.15768,0.36819 0.34437,0.54051c0.20918,-0.25014 0.52747,-0.3177 0.79185,-0.45394c0.01711,-0.00733 0.03419,-0.01462 0.025,-0.03363c0.38811,-0.34974 0.88397,-0.56217 1.31676,-0.86229c0.15259,-0.11122 0.27756,-0.27951 0.46695,-0.31478c0.3604,-0.10852 0.60245,-0.41867 0.96287,-0.52722c0.01708,-0.00733 0.04208,-0.04097 0.07629,-0.05563c0.29726,-0.19618 0.56826,-0.40399 0.88393,-0.5622c0.3762,-0.1612 0.6446,-0.45968 1.03915,-0.58284c0.16708,-0.20919 0.40781,-0.26643 0.63798,-0.38799c0.03421,-0.01466 0.05133,-0.02199 0.0855,-0.03663c0.26839,-0.29848 0.66427,-0.37636 0.96948,-0.59887c0.30516,-0.22246 0.68264,-0.33834 0.99703,-0.54187c0.36572,-0.22549 0.68664,-0.50065 1.12465,-0.61946c0.03421,-0.01466 0.08553,-0.03662 0.11051,-0.07027c0.13288,-0.19458 0.36569,-0.22549 0.56169,-0.33237c0.10261,-0.04396 0.23147,-0.07623 0.31568,-0.15819c0.11711,-0.14187 0.26306,-0.18151 0.41697,-0.24747c0.08549,-0.03662 0.18021,-0.05426 0.23017,-0.12153c0.16707,-0.20922 0.42487,-0.27379 0.64715,-0.36901c0.08552,-0.03663 0.18017,-0.05426 0.23021,-0.12157c0.14211,-0.17553 0.33936,-0.23714 0.52749,-0.31771c0.3078,-0.13189 0.55118,-0.39669 0.86813,-0.50955c0.06048,-0.00298 0.08422,-0.08193 0.12629,-0.12291z" fill="#87d7dc"/><path d="M228.43736,199.79329c-0.04211,0.04096 -0.06581,0.11994 -0.1171,0.14192c-0.31698,0.11289 -0.56955,0.3587 -0.86813,0.50957c-0.1881,0.08057 -0.38542,0.14219 -0.5275,0.31773c-0.04999,0.0673 -0.1447,0.08492 -0.23014,0.12158c-0.22228,0.09527 -0.47088,0.1788 -0.64718,0.36898c-0.05002,0.06728 -0.15391,0.06594 -0.23016,0.12156c-0.15387,0.06594 -0.29069,0.12456 -0.417,0.24746c-0.08418,0.08191 -0.21312,0.11421 -0.3157,0.15819c-0.19599,0.10692 -0.42879,0.13785 -0.56167,0.3324c-0.02504,0.03365 -0.07632,0.05562 -0.11051,0.07027c-0.42087,0.11153 -0.75901,0.394 -1.12465,0.61947c-0.3315,0.21083 -0.70896,0.32668 -0.99705,0.54185c-0.30515,0.22249 -0.70108,0.30039 -0.96946,0.59884c-0.0079,0.02627 -0.05132,0.02197 -0.08551,0.03663c-0.22228,0.09527 -0.47084,0.17883 -0.63799,0.38804c-0.40377,0.10417 -0.67215,0.40268 -1.03914,0.58281c-0.32486,0.1392 -0.58667,0.36606 -0.88395,0.5622c-0.03421,0.01466 -0.04211,0.04102 -0.07631,0.05564c-0.3604,0.10852 -0.60245,0.41867 -0.96287,0.52722c-0.19726,0.0616 -0.3052,0.22249 -0.46696,0.31475c-0.44198,0.28108 -0.92866,0.51257 -1.31676,0.86229c-0.01711,0.00733 -0.025,0.03366 -0.025,0.03366c-0.26439,0.13623 -0.5827,0.20375 -0.79188,0.45395c-0.17748,-0.15328 -0.20106,-0.37258 -0.34438,-0.54054c-0.07361,-0.15193 -0.14713,-0.30389 -0.10895,-0.48083c0.10261,-0.04398 0.23145,-0.07622 0.31564,-0.15817c0.29467,-0.2868 0.66298,-0.42166 1.00369,-0.61348c0.34063,-0.1918 0.63535,-0.47866 1.03911,-0.58283c0.16707,-0.20922 0.40777,-0.26649 0.63797,-0.38801c0.0342,-0.01466 0.08548,-0.03662 0.11051,-0.0703c0.10792,-0.16091 0.29726,-0.19615 0.44201,-0.28112c0.08551,-0.03663 0.17095,-0.0733 0.23016,-0.12153c0.33019,-0.25615 0.68664,-0.50064 1.07993,-0.66914c0.05131,-0.02195 0.12894,-0.03227 0.14469,-0.08494c0.12499,-0.1682 0.30517,-0.2225 0.47618,-0.29576c0.19726,-0.0616 0.30388,-0.26782 0.51828,-0.33671c0.28278,-0.09821 0.49326,-0.30309 0.74845,-0.45827c0.35778,-0.19917 0.66165,-0.46697 1.05494,-0.63545c0.06841,-0.0293 0.16309,-0.04695 0.19599,-0.10691c0.10001,-0.13454 0.26304,-0.18153 0.40778,-0.26642c0.13679,-0.05862 0.26437,-0.1362 0.36571,-0.22545c0.18551,-0.1712 0.38939,-0.30442 0.62874,-0.40704c0.34989,-0.17282 0.64458,-0.45967 1.04834,-0.56385c0.03421,-0.01466 0.07631,-0.0556 0.11051,-0.07027c0.33152,-0.21085 0.65375,-0.44067 1.00365,-0.61346c0.37615,-0.1612 0.67878,-0.47434 1.07335,-0.59749c0.05132,-0.02196 0.08418,-0.08193 0.12628,-0.12289c0.20388,-0.13321 0.43407,-0.25481 0.68396,-0.29304c0.06308,0.08766 0.09991,0.1636 0.15377,0.23229c0.07749,0.28792 0.1537,0.53047 0.25617,0.78473z" fill="#b0eef2"/><path d="M240.54043,203.25426c-0.29724,0.19616 -0.54459,0.32504 -0.83787,0.35896c-0.2104,-0.09335 -0.3629,-0.28028 -0.53245,-0.45989c-0.79661,-0.92011 -1.57616,-1.84754 -2.23734,-2.87158c-0.49815,-0.77281 -1.00556,-1.56457 -1.42739,-2.39294c-0.11036,-0.22792 -0.21287,-0.48217 -0.37454,-0.68815c-0.06311,-0.08763 -0.11828,-0.2016 -0.17347,-0.31556c-0.15239,-0.48517 -0.40735,-0.92634 -0.61105,-1.38956c-0.2957,-0.65315 -0.52297,-1.33555 -0.71602,-2.03259c-0.088,-0.3522 -0.19309,-0.69709 -0.30739,-1.06095c-0.09454,-0.28054 -0.10237,-0.55242 -0.12729,-0.81701c0.2434,-0.26483 0.35385,-0.33508 0.78265,-0.47293c0.1853,0.42513 0.27588,0.86801 0.42694,1.30783c0.14188,0.42085 0.29297,0.86066 0.45194,1.27422c0.16815,0.43252 0.36266,0.87672 0.54793,1.30192c0.15897,0.4135 0.42978,0.80203 0.53746,1.23761c0.28788,0.38126 0.43895,0.82108 0.65843,1.23162c0.21028,0.39156 0.44685,0.79475 0.67425,1.17898c0.23657,0.40323 0.49027,0.7991 0.75313,1.21402c0.24447,0.37688 0.48103,0.78012 0.74266,1.1497c0.27078,0.38854 0.56652,0.74347 0.85442,1.12475c0.29708,0.40021 0.55864,0.76978 0.91494,1.12172z" fill="#d1eaeb"/><path d="M228.17327,199.03499c-0.0539,-0.06866 -0.0907,-0.1446 -0.15378,-0.23224c-0.24989,0.03826 -0.47217,0.1335 -0.68395,0.29306c-0.04212,0.04096 -0.075,0.10093 -0.12628,0.12289c-0.39456,0.12318 -0.70639,0.41735 -1.07337,0.59748c-0.35908,0.15384 -0.67215,0.40265 -1.00368,0.61345c-0.0342,0.01466 -0.07631,0.05564 -0.1105,0.07029c-0.40377,0.10416 -0.67215,0.40263 -1.04836,0.56382c-0.22226,0.09528 -0.44328,0.2358 -0.62877,0.40705c-0.11836,0.09655 -0.24597,0.17421 -0.36569,0.22549c-0.15387,0.06594 -0.29987,0.10555 -0.40779,0.26645c-0.03288,0.05992 -0.12761,0.07761 -0.19602,0.10689c-0.3762,0.1612 -0.69713,0.43634 -1.05493,0.63547c-0.25521,0.15518 -0.46567,0.36008 -0.74845,0.45826c-0.19726,0.0616 -0.3039,0.26782 -0.51828,0.3367c-0.18021,0.05426 -0.37747,0.11585 -0.47618,0.29574c-0.04212,0.04096 -0.09337,0.06293 -0.14468,0.08493c-0.39328,0.1685 -0.73266,0.4056 -1.07993,0.66914c-0.07629,0.05561 -0.17095,0.07327 -0.23014,0.12154c-0.15385,0.06593 -0.33406,0.12023 -0.44194,0.28112c-0.02501,0.03364 -0.0763,0.05563 -0.11051,0.07027c-0.22228,0.09527 -0.47087,0.17883 -0.63797,0.38801c-0.40377,0.10416 -0.69846,0.391 -1.03912,0.58284c-0.34064,0.19181 -0.72603,0.334 -1.00365,0.61345c-0.08418,0.08191 -0.21311,0.11422 -0.31569,0.15821c-0.0999,-0.16363 -0.05249,-0.32153 -0.09981,-0.4618c0.67215,-0.40267 1.30096,-0.80967 1.93891,-1.19765c0.69718,-0.4363 1.38643,-0.84631 2.09277,-1.26363c0.65505,-0.39533 1.30094,-0.80971 1.94679,-1.22399c0.80767,-0.50657 1.58899,-1.02485 2.37955,-1.52412c0.60378,-0.37339 1.20758,-0.7467 1.80214,-1.13909c0.93525,-0.5842 1.9244,-1.09976 2.84125,-1.72192c0.12758,-0.0776 0.2368,-0.1932 0.41828,-0.20215c0.08282,0.17093 0.1143,0.36385 0.16289,0.54947c0.01181,0.10961 0.12878,0.2659 0.11691,0.4545z" fill="#87d7dc"/><path d="M214.43782,207.76388c0.22739,0.38422 0.37719,0.77876 0.62166,1.15561c0.28918,0.42655 0.59546,0.84575 1.00431,1.22104c-0.99174,0.42493 -1.96637,0.84253 -2.92393,1.25276c-0.28931,-0.12833 -0.47724,-0.34597 -0.67313,-0.53727c-0.36549,-0.37093 -0.61127,-0.79314 -0.86622,-1.23434c-0.0092,-0.01901 -0.01048,-0.06428 -0.0026,-0.09062c0.18539,0.12701 0.29457,0.0114 0.41298,-0.08523c0.29597,-0.24151 0.60115,-0.46401 0.95234,-0.5915c0.06841,-0.02929 0.1368,-0.0586 0.19599,-0.10692c0.2697,-0.25319 0.62086,-0.38069 0.91812,-0.5769c0.16974,-0.11855 0.28804,-0.21519 0.36047,-0.40672z" fill="#61afb4"/><path d="M230.30945,197.77561c0.21937,0.70874 0.55844,1.36619 0.82913,2.05292c0.13009,0.31119 0.3115,0.60047 0.49288,0.88975c0.31017,0.55517 0.56114,1.15859 0.93975,1.68446c0.14457,0.21329 0.28916,0.42657 0.44163,0.61353c0.0986,0.11831 0.18011,0.24391 0.24448,0.3769c-0.04206,0.04096 -0.0671,0.07461 -0.10134,0.08925c-0.13679,0.05859 -0.27357,0.11723 -0.41035,0.17587c-0.09728,-0.07297 -0.16827,-0.13434 -0.24847,-0.21463c-0.53634,-0.59582 -1.08193,-1.21073 -1.4407,-1.9515c-0.32987,-0.63849 -0.66894,-1.29587 -0.93045,-1.96367c-0.2142,-0.5275 -0.44546,-1.04766 -0.51368,-1.61475c0.08021,0.0803 0.08409,0.21625 0.22348,0.24828c0.20647,-0.04262 0.45635,-0.08087 0.47358,-0.38638z" fill="#61aeb3"/><path d="M229.38466,198.7223c0.19058,0.30824 0.23514,0.65611 0.37447,0.98633c0.31409,0.69114 0.62812,1.38224 0.99351,2.05133c0.30095,0.53616 0.66117,1.02404 1.04632,1.47829c0.09859,0.11832 0.19715,0.23659 0.29579,0.3549c-0.2394,0.10258 -0.44455,0.19052 -0.66687,0.28575c-0.31555,-0.14002 -0.53905,-0.38832 -0.73756,-0.67022c-0.24319,-0.33156 -0.49555,-0.68213 -0.69664,-1.05469c-0.48234,-0.82545 -0.85291,-1.67583 -1.24977,-2.53785c-0.07361,-0.15193 -0.14721,-0.30389 -0.12612,-0.4735c0.08552,-0.03663 0.18019,-0.05431 0.23017,-0.12156c0.13419,-0.14924 0.34861,-0.21818 0.53665,-0.29875z" fill="#61aeb3"/><path d="M214.43782,207.76388c-0.06452,0.16528 -0.17371,0.2808 -0.33551,0.3731c-0.29726,0.19616 -0.64846,0.32369 -0.91813,0.57689c-0.05922,0.04828 -0.1276,0.07765 -0.19599,0.10691c-0.35907,0.15385 -0.64719,0.36901 -0.95234,0.5915c-0.1013,0.08927 -0.22758,0.21221 -0.41298,0.0852c-0.15509,-0.2776 -0.2497,-0.55813 -0.28379,-0.84167c0.2118,-0.15958 0.41439,-0.33811 0.67216,-0.40268c0.0342,-0.01466 0.07631,-0.05563 0.11049,-0.0703c0.31436,-0.20349 0.64588,-0.41433 0.96946,-0.59884c0.14468,-0.08493 0.2815,-0.14354 0.41699,-0.24747c0.16052,-0.13754 0.3565,-0.24447 0.59058,-0.2301c0.06309,0.08765 0.0999,0.16359 0.15376,0.23226c0.06437,0.13295 0.12089,0.29227 0.18531,0.42517z" fill="#87d7dc"/><path d="M238.8588,194.70897c-0.129,0.33051 -0.35652,0.54267 -0.59338,0.73586c-0.0592,0.04832 -0.16182,0.09225 -0.2394,0.10258c-0.56948,0.06051 -1.10216,0.19697 -1.62561,0.35246c-0.01711,0.00733 -0.06049,0.00299 -0.08681,-0.00865c-0.08809,-0.054 -0.13414,-0.14896 -0.12882,-0.2659c0.03421,-0.01466 0.0592,-0.04834 0.0934,-0.06297c0.41957,-0.15678 0.81158,-0.37061 1.14044,-0.67208c0.1776,-0.1449 0.36572,-0.22549 0.61688,-0.21845c0.27745,0.01876 0.52734,-0.01953 0.82326,0.03717z" fill="#cce5e6"/><path d="M235.72486,194.6756c-0.10648,-0.09197 -0.12618,-0.17529 -0.10247,-0.25423c0.80236,-0.38963 0.80235,-0.38965 1.37331,-1.00122c0.30911,-0.08658 0.66415,-0.07816 0.98373,-0.10036c0.0986,0.11831 0.00518,0.18122 -0.02771,0.24121c-0.12367,0.21353 -0.2303,0.41975 -0.38951,0.60264c-0.10922,0.11563 -0.21974,0.18586 -0.37487,0.20647c-0.48271,0.0692 -0.97324,0.16469 -1.46251,0.3055z" fill="#cce5e6"/><path d="M214.24331,207.3197c-0.0539,-0.06867 -0.09072,-0.14466 -0.15376,-0.23228c-0.23408,-0.01439 -0.43006,0.09249 -0.59056,0.23011c-0.13549,0.10394 -0.27227,0.16253 -0.41699,0.24747c-0.32359,0.18452 -0.65506,0.39532 -0.96946,0.59884c-0.03421,0.01466 -0.07631,0.05564 -0.1105,0.07028c-0.26566,0.09092 -0.45117,0.26209 -0.67215,0.40263c-0.03941,-0.1666 -0.06961,-0.31424 -0.04059,-0.51015c0.45117,-0.26214 0.90109,-0.56958 1.37853,-0.82c0.4512,-0.2621 0.86556,-0.60018 1.37854,-0.81998c0.13009,0.31119 0.17208,0.56845 0.19703,0.83298z" fill="#60adb2"/><path d="M236.29506,200.07336c0.05387,0.06864 0.09858,0.11834 0.15247,0.18698c-0.01579,0.05266 -0.02371,0.07897 -0.0316,0.10524c-0.25388,0.20051 -0.46308,0.45072 -0.66308,0.71983c-0.09211,0.10825 -0.18552,0.17122 -0.33278,0.16552c-0.28542,0.00757 -0.56945,0.06052 -0.89424,-0.0985c0.11191,-0.32313 0.32111,-0.57333 0.53948,-0.8045c0.04206,-0.04096 0.13681,-0.05858 0.21437,-0.06893c0.33534,-0.07492 0.6708,-0.14981 1.01535,-0.20567z" fill="#cce5e6"/><path d="M240.74989,198.48573c-0.13416,0.14923 -0.2092,0.25017 -0.30132,0.35843c-0.17632,0.19021 -0.37229,0.29711 -0.66687,0.28572c-0.49314,0.00487 -0.97583,0.0741 -1.40332,0.25725c-0.1368,0.05861 -0.16308,0.04692 -0.25641,-0.18832c0.05131,-0.02196 0.09337,-0.06296 0.14471,-0.08493c0.43666,-0.16418 0.81949,-0.39697 1.17462,-0.68677c0.09341,-0.06295 0.16968,-0.11858 0.27357,-0.11727c0.3301,0.04203 0.64176,0.04615 1.03495,0.17589z" fill="#cae2e3"/><path d="M236.79332,196.92419c0.0079,-0.02627 0.03292,-0.06001 0.05002,-0.06728c0.41166,-0.13048 0.75103,-0.36765 1.06418,-0.61648c0.30515,-0.22249 0.63005,-0.36172 1.04691,-0.31093c0.19986,0.02903 0.39715,-0.03259 0.59837,0.04182c-0.21187,0.45774 -0.58549,0.70954 -1.02603,0.73775c-0.53528,0.04585 -1.0626,0.06539 -1.54932,0.29683c-0.06051,0.00298 -0.12892,0.03226 -0.18412,-0.08167z" fill="#c9e1e2"/><path d="M240.08885,197.16358c-0.1816,0.30716 -0.38416,0.48568 -0.60385,0.67155c-0.07629,0.05563 -0.16182,0.09225 -0.24862,0.08354c-0.56159,0.0342 -1.12183,0.1137 -1.66369,0.23117c-0.03421,0.01466 -0.09466,0.01766 -0.12358,-0.08464c0.11967,-0.05127 0.25646,-0.10989 0.36698,-0.18015c0.33278,-0.1655 0.65634,-0.35003 0.92604,-0.6032c0.20259,-0.17858 0.43408,-0.25479 0.70368,-0.20972c0.19988,0.02905 0.38268,0.06537 0.64307,0.09143z" fill="#c9e1e2"/><path d="M237.04556,201.19667c0.14067,0.07738 0.1867,0.17234 0.23268,0.26728c-0.00791,0.02627 -0.03292,0.05999 -0.04081,0.08625c-0.25519,0.15519 -0.45649,0.37907 -0.59596,0.64525c-0.0908,0.15357 -0.21839,0.23117 -0.3999,0.24012c-0.22485,0.00463 -0.45766,0.03559 -0.68387,-0.00513c0.05269,-0.27484 0.20668,-0.63906 0.3251,-0.73563c0.06707,-0.07465 0.15387,-0.06594 0.24859,-0.08355c0.28148,-0.14354 0.62607,-0.19948 0.91411,-0.41459z" fill="#cae3e4"/><path d="M232.77094,195.18434c0.36557,0.07271 0.70355,0.08845 1.04943,0.07789c0.08936,0.09927 0.12623,0.17531 0.12091,0.29226c-0.26177,0.22683 -0.63929,0.34267 -0.89188,0.58853c-0.23408,-0.01441 -0.41026,-0.12239 -0.61144,-0.19671c-0.10516,-0.04665 -0.21825,-0.067 -0.29977,-0.19264c0.1487,-0.24719 0.43149,-0.34538 0.63276,-0.56927z" fill="#c8e0e1"/><path d="M235.04649,197.87905c0.06569,0.17826 0.00649,0.22657 -0.05269,0.27484c-0.2197,0.18589 -0.42226,0.36437 -0.65114,0.53128c-0.05921,0.04829 -0.12759,0.07761 -0.21442,0.06896c-0.25247,-0.05238 -0.51416,-0.12375 -0.76794,-0.2214c0.05662,-0.13889 0.15,-0.20186 0.225,-0.3028c0.225,-0.30278 0.50646,-0.44636 0.89964,-0.31667c0.19201,0.05535 0.38139,0.02008 0.56157,-0.03419z" fill="#cbe4e5"/><path d="M234.46691,196.68245c0.046,0.09497 0.07361,0.15193 0.10119,0.20891c-0.02502,0.03365 -0.02372,0.07895 -0.04079,0.08628c-0.16972,0.11855 -0.3486,0.21818 -0.51829,0.33675c-0.09343,0.06294 -0.1881,0.08059 -0.30118,0.06024c-0.33929,-0.06105 -0.67066,-0.14845 -1.02965,-0.29281c0.08946,-0.1989 0.23417,-0.28381 0.37887,-0.36873c0.06837,-0.02929 0.1368,-0.05859 0.20646,-0.04262c0.39318,0.12967 0.79037,0.09716 1.20333,0.01197z" fill="#c8e0e1"/><path d="M229.38466,198.7223c-0.18808,0.08057 -0.4025,0.14948 -0.54459,0.32508c-0.05002,0.06728 -0.14468,0.0849 -0.23016,0.12154c-0.17347,-0.31557 -0.2694,-0.64145 -0.28765,-0.97763c0.25777,-0.06456 0.46035,-0.2431 0.64715,-0.36901c0.1499,0.09628 0.16298,0.25127 0.25239,0.35055c0.0999,0.16363 0.17478,0.36094 0.1629,0.54947z" fill="#85d5d9"/><path d="M240.61118,200.28824c-0.30249,0.01492 -0.60495,0.02987 -0.91535,0.07109c-0.26701,0.04558 -0.46697,0.31475 -0.86145,0.1397c0.58134,-0.24912 1.02994,-0.60182 1.47851,-0.95455c0.23408,0.01441 0.49446,0.04044 0.74036,0.16446c-0.01579,0.05266 -0.02373,0.07895 -0.03161,0.10526c-0.12499,0.16821 -0.2592,0.31746 -0.41044,0.474z" fill="#c6dede"/><path d="M239.14034,194.26724c-0.3551,-0.00843 -0.66674,-0.01247 -1.02185,-0.02088c0.02901,-0.19589 0.1382,-0.31153 0.1948,-0.45042c0.07366,-0.14624 0.11191,-0.32317 0.2382,-0.44608c0.11967,-0.05127 0.2591,-0.01927 0.38927,-0.00625c0.13018,0.013 0.26958,0.04506 0.41817,0.09606c0.02618,0.30987 -0.10544,0.54972 -0.21861,0.82759z" fill="#cae3e3"/><path d="M235.10193,193.47468c0.4486,-0.35278 0.81167,-0.66887 1.10242,-1.0916c0.25913,-0.01925 0.50898,-0.05751 0.78515,-0.08409c-0.01719,0.30554 -0.17638,0.48843 -0.30007,0.70194c-0.025,0.03363 -0.07632,0.05561 -0.11049,0.07026c-0.45508,0.12615 -0.91016,0.25235 -1.477,0.4035z" fill="#cae3e4"/><path d="M233.96741,199.7863c0.18158,-0.30717 0.36445,-0.56901 0.78924,-0.54457c0.29458,0.01138 0.56027,-0.07951 0.82594,-0.17042c0.10261,-0.04396 0.16568,0.04367 0.18668,0.17231c-0.29195,0.07926 -0.50246,0.2841 -0.71297,0.48898c-0.15126,0.15653 -0.32355,0.18453 -0.52348,0.15549c-0.17359,-0.01737 -0.34588,0.01057 -0.56549,-0.10179z" fill="#c8e0e1"/><path d="M230.30945,197.77561c-0.0343,0.31288 -0.26709,0.34375 -0.48145,0.41269c-0.13934,-0.03203 -0.1604,-0.1606 -0.22347,-0.2482c-0.10247,-0.25422 -0.14447,-0.51148 -0.15228,-0.78338c0.19726,-0.0616 0.34859,-0.21813 0.56557,-0.19646c0.06308,0.08766 0.0907,0.14466 0.1275,0.22062c0.05782,0.20459 0.11562,0.40916 0.1642,0.5948z" fill="#85d4d9"/><path d="M233.4329,197.74469c-0.20129,0.22385 -0.38676,0.39507 -0.56308,0.58527c-0.27089,-0.09035 -0.53386,-0.20701 -0.77184,-0.3574c-0.03022,-0.14763 0.054,-0.22955 0.09481,-0.31583c0.04079,-0.08626 0.08161,-0.17254 0.21048,-0.20482c0.27878,0.06409 0.61932,0.1704 1.02963,0.29276z" fill="#c7dfe0"/><path d="M234.03925,201.08571c-0.2354,-0.0597 -0.46155,-0.10043 -0.70745,-0.22439c0.04348,-0.29388 0.20269,-0.47671 0.36057,-0.70494c0.26957,0.04504 0.53916,0.09007 0.82587,0.1278c-0.1474,0.29248 -0.30532,0.52073 -0.47899,0.80151z" fill="#c8e0e1"/><path d="M240.12912,194.94449c-0.06323,0.21059 -0.12643,0.4211 -0.2685,0.59668c-0.29458,-0.01138 -0.59838,-0.0418 -0.91923,-0.06486c-0.01838,-0.03797 -0.03677,-0.07595 -0.01967,-0.0833c0.0987,-0.17989 0.21448,-0.36709 0.32236,-0.52801c0.05002,-0.06728 0.10922,-0.11562 0.17888,-0.09961c0.26039,0.02607 0.49317,-0.00485 0.7062,0.1791z" fill="#c4dcdd"/><path d="M241.00645,198.07761c-0.29588,-0.05671 -0.58256,-0.09444 -0.87846,-0.15115c-0.02226,-0.1739 0.11451,-0.23248 0.18949,-0.33346c0.075,-0.10092 0.17629,-0.19022 0.26839,-0.29846c0.25118,0.00706 0.47993,0.13845 0.72456,0.21713c-0.0185,0.26015 -0.15271,0.40944 -0.304,0.56596z" fill="#c8e0e1"/><path d="M234.38229,201.58086c0.30378,0.03042 0.58127,0.04916 0.90215,0.0722c-0.04479,0.24855 -0.18692,0.4241 -0.2409,0.65369c-0.27618,0.02656 -0.52208,-0.09743 -0.80083,-0.16148c0.01058,-0.23387 0.0225,-0.42246 0.13961,-0.56435z" fill="#c6ddde"/><path d="M237.88947,202.25706c-0.1987,0.31449 -0.47758,0.54865 -0.61447,0.90546c-0.23278,0.03093 -0.4393,0.07351 -0.69177,0.02116c0.00931,-0.27918 0.09882,-0.47814 0.37367,-0.55002c0.33536,-0.07486 0.62475,-0.24474 0.93254,-0.37663z" fill="#b9cfd0"/><path d="M234.82616,192.30845c-0.00387,-0.13592 0.10919,-0.11563 0.16836,-0.16389c0.13551,-0.10391 0.28015,-0.18884 0.32757,-0.34681c0.1145,-0.23254 0.31176,-0.29417 0.53537,-0.34404c0.09473,-0.01763 0.19861,-0.01628 0.33668,-0.02956c-0.06849,0.32755 -0.14752,0.59072 -0.50916,0.65393c-0.24988,0.03827 -0.48009,0.1598 -0.71157,0.23606c-0.05131,0.02195 -0.10261,0.04395 -0.14727,-0.00567z" fill="#c0d8d8"/><path d="M231.93744,194.48651c0.1079,-0.16092 0.22625,-0.25747 0.36305,-0.3161c0.06837,-0.02929 0.1539,-0.06598 0.22357,-0.04993c0.30507,0.07574 0.59964,0.08707 0.89426,0.0985c0.06435,0.13296 -0.01321,0.14327 -0.06453,0.16526c-0.17099,0.07326 -0.35908,0.15385 -0.51168,0.26512c-0.20388,0.13321 -0.38536,0.14219 -0.59706,0.00352c-0.09728,-0.07297 -0.17619,-0.10798 -0.30765,-0.1663z" fill="#c1d9d9"/><path d="M233.47036,199.65523c-0.24322,-0.03338 -0.45367,-0.12673 -0.69823,-0.20542c0.0014,-0.25287 0.16191,-0.39041 0.2606,-0.57037c0.28671,0.03771 0.54175,0.18069 0.82184,0.29006c-0.10662,0.20621 -0.25001,0.33648 -0.38418,0.48571z" fill="#c3dbdc"/><path d="M239.58927,196.6436c0.18417,-0.21655 0.36051,-0.40676 0.5276,-0.61595c0.19071,0.01 0.36428,0.02742 0.54967,0.15439c-0.05401,0.22957 -0.17897,0.39776 -0.29479,0.58504c-0.2591,0.01924 -0.50232,-0.01408 -0.78241,-0.12345z" fill="#c3dadb"/><path d="M231.86506,198.30183c0.24588,0.12402 0.46544,0.23633 0.68503,0.34866c-0.02769,0.24123 -0.15269,0.40945 -0.27766,0.57766c-0.21829,-0.06701 -0.41156,-0.16768 -0.60612,-0.31366c0.00662,-0.07162 0.02113,-0.16959 0.03687,-0.2222c0.0566,-0.13892 0.11448,-0.23254 0.1619,-0.39048z" fill="#c4dbdc"/><path d="M233.12276,193.26758c-0.32494,0.1392 -0.5814,0.24908 -0.85492,0.36633c-0.16572,-0.04367 -0.3064,-0.12106 -0.44044,-0.27001c0.0303,-0.15057 0.16839,-0.16388 0.2526,-0.2458c0.08418,-0.08191 0.17759,-0.14489 0.26307,-0.18155c0.26304,0.11666 0.47339,0.21001 0.77975,0.33102z" fill="#c2d9da"/><path d="M239.80341,193.54739c0.17358,0.01737 0.32216,0.06833 0.44578,0.15302c0.09067,0.14463 0.02487,0.2646 0.01958,0.38148c-0.00526,0.11692 0.03281,0.2382 -0.05929,0.34646c-0.18938,0.03528 -0.40765,-0.03175 -0.66017,-0.08409c0.03951,-0.13164 0.07901,-0.26326 0.10139,-0.3875c0.05661,-0.13893 0.11317,-0.27785 0.15268,-0.40946z" fill="#c5ddde"/><path d="M233.15988,199.99465c-0.00933,0.27919 -0.16853,0.4621 -0.26592,0.68731c-0.21702,-0.02168 -0.34188,-0.15168 -0.49966,-0.22165c-0.01565,-0.24555 0.07381,-0.44446 0.17117,-0.66969c0.20115,0.07432 0.40241,0.14871 0.59438,0.20407z" fill="#c3dbdc"/><path d="M237.26677,192.91408c0.01446,-0.09799 0.03027,-0.15059 0.04606,-0.20326c0.04869,-0.11262 0.1145,-0.23255 0.1711,-0.37147c0.30379,0.03042 0.57996,0.0038 0.86926,0.13217c0.03022,0.14763 -0.02767,0.24124 -0.1106,0.36849c-0.29327,0.03392 -0.62994,0.06349 -0.97583,0.0741z" fill="#c7dfe0"/><path d="M232.14567,196.92009c-0.22878,-0.13134 -0.45491,-0.17205 -0.64163,-0.34434c0.01984,-0.21491 0.19866,-0.31449 0.2369,-0.49138c0.30512,0.07574 0.53387,0.20702 0.79684,0.3237c-0.06189,0.2559 -0.24999,0.33644 -0.39208,0.51205z" fill="#c7dee0"/><path d="M229.23882,198.16559c-0.08937,-0.0993 -0.10246,-0.25423 -0.25238,-0.35056c-0.20389,0.13323 -0.41568,0.29274 -0.64714,0.36898c-0.01969,-0.08333 -0.04858,-0.1856 -0.0512,-0.2762c-0.00387,-0.13592 0.04484,-0.24854 0.16452,-0.29986c0.19595,-0.10691 0.37483,-0.20649 0.57086,-0.31339c0.11961,0.24692 0.15768,0.36819 0.21538,0.871z" fill="#61acb1"/><path d="M241.41631,199.39281c-0.2354,-0.05972 -0.42735,-0.11505 -0.67194,-0.19374c0.16708,-0.20921 0.31707,-0.41106 0.49337,-0.60128c0.18277,0.03635 0.34847,0.08006 0.51546,0.16907c-0.06189,0.25591 -0.18691,0.42408 -0.33689,0.62598z" fill="#c2dada"/><path d="M231.6072,194.74263c0.2354,0.05972 0.41156,0.1677 0.63118,0.28006c-0.20257,0.17857 -0.37098,0.34244 -0.53939,0.50633c-0.1907,-0.01002 -0.30638,-0.12101 -0.46544,-0.23634c0.03687,-0.2222 0.19741,-0.35984 0.37369,-0.55002z" fill="#c1d9d9"/><path d="M240.84383,196.93176c0.0882,-0.24419 0.16982,-0.41676 0.24222,-0.60834c0.1986,-0.01629 0.39191,0.08441 0.58518,0.18506c-0.00271,0.20753 -0.03172,0.40346 -0.1475,0.59069c-0.23278,0.03093 -0.4103,-0.12243 -0.67987,-0.16741z" fill="#c6dedf"/><path d="M233.79697,201.99227c-0.21827,-0.06703 -0.42869,-0.16038 -0.62985,-0.23471c-0.06568,-0.17823 -0.05249,-0.32153 0.01201,-0.48679c0.2591,-0.01924 0.47993,0.13843 0.73245,0.19077c0.01442,0.2003 -0.0593,0.34648 -0.11456,0.53074z" fill="#c0d7d7"/><path d="M236.45837,191.88438c0.06452,-0.16528 0.11193,-0.32318 0.15929,-0.48109c0.2052,-0.08787 0.42217,-0.06618 0.63254,0.02717c0.02228,0.17392 -0.01722,0.30551 -0.09877,0.47807c-0.22486,0.00462 -0.43926,0.07352 -0.69306,-0.02415z" fill="#c3dadb"/><path d="M230.15453,197.19985c-0.0368,-0.07596 -0.0907,-0.14466 -0.12753,-0.22062c-0.21702,-0.02168 -0.36828,0.13481 -0.56557,0.19646c-0.08148,-0.12563 -0.01569,-0.2456 -0.06298,-0.38583c0.18551,-0.1712 0.41825,-0.20219 0.57616,-0.43034c0.10905,0.1826 0.11299,0.31854 0.12609,0.47351c0.01182,0.10963 0.11035,0.22796 0.05379,0.36685z" fill="#5aa0a4"/><path d="M237.10908,204.01346c-0.22486,0.00462 -0.43931,0.07351 -0.66679,-0.01247c-0.03022,-0.14762 0.0014,-0.2529 0.04877,-0.41082c0.20648,-0.0426 0.43139,-0.04721 0.64048,0.00081c0.0302,0.14764 0.01568,0.2456 -0.02253,0.42245z" fill="#bdd3d4"/><path d="M231.63586,199.3632c0.167,0.08903 0.32475,0.15902 0.48257,0.22902c-0.00275,0.20757 -0.06722,0.37284 -0.14877,0.54538c-0.16436,0.00162 -0.26302,-0.11666 -0.32738,-0.2496c-0.08283,-0.17093 -0.1656,-0.34187 -0.00642,-0.52478z" fill="#bdd4d5"/><path d="M241.02643,201.18829c-0.25116,-0.00707 -0.48529,-0.02144 -0.73644,-0.0285c0.26705,-0.34378 0.54595,-0.57795 1.02063,-0.32262c-0.0303,0.15057 -0.1579,0.22818 -0.28419,0.35108z" fill="#bbd2d3"/><path d="M231.17361,197.42833c-0.00519,-0.18123 0.06062,-0.30119 0.12644,-0.42111c0.11967,-0.05127 0.19992,0.02907 0.30507,0.07575c0.07887,0.035 0.17485,0.06267 0.24714,0.16932c0.00519,0.18123 -0.16574,0.25451 -0.17766,0.44309c-0.2091,-0.04802 -0.35898,-0.14431 -0.50099,-0.26694z" fill="#c3dadb"/><path d="M237.07325,197.33174c0.3262,-0.09385 0.65236,-0.18778 1.01532,-0.20565c0.03808,0.12129 -0.03821,0.17693 -0.12371,0.21353c-0.2131,0.1142 -0.43531,0.20947 -0.64052,0.29737c-0.15385,0.06593 -0.24334,-0.03338 -0.25109,-0.30524z" fill="#b1c6c7"/><path d="M234.28713,203.08951c0.15516,-0.02066 0.26166,0.07136 0.38397,0.11071c0.2354,0.0597 0.33528,0.22331 0.36018,0.48791c-0.29458,-0.0114 -0.55887,-0.17341 -0.78763,-0.30472c-0.0473,-0.14029 -0.04069,-0.21195 0.04348,-0.29388z" fill="#bbd2d3"/><path d="M238.47691,199.80363c0.28808,-0.21519 0.64316,-0.20675 1.00615,-0.22468c-0.18419,0.21655 -0.4407,0.32641 -0.67087,0.448c-0.14469,0.08495 -0.2065,0.04261 -0.33527,-0.22333z" fill="#bad1d2"/><path d="M238.12059,203.37364c-0.07241,0.19156 -0.1106,0.36848 -0.183,0.56002c-0.09467,0.01761 -0.242,0.01195 -0.38008,0.02524c-0.0801,-0.37855 -0.06299,-0.38586 0.16851,-0.46211c0.11969,-0.05125 0.24861,-0.08354 0.39456,-0.12319z" fill="#b5cbcc"/><path d="M241.74647,195.51294c0.04067,0.21191 0.01041,0.36252 -0.01989,0.51312c-0.1815,0.00896 -0.32346,-0.11373 -0.49046,-0.20267c0.02105,-0.16959 0.05143,-0.32013 0.0725,-0.48973c0.16309,-0.04695 0.28008,0.10934 0.43788,0.17937z" fill="#c0d7d8"/><path d="M236.20857,202.79378c0.02098,0.1286 -0.02768,0.24123 -0.09349,0.36119c-0.24987,0.03824 -0.50237,-0.01409 -0.73906,-0.11913c-0.08148,-0.12563 -0.0486,-0.18561 0.0185,-0.26015c0.26827,-0.00031 0.53659,-0.00056 0.81404,0.01818z" fill="#bdd4d4"/><path d="M241.81742,199.49619c0.0987,-0.17989 0.22367,-0.34811 0.32238,-0.52803c0.12231,0.03937 0.20249,0.11966 0.25769,0.23361c0.02095,0.12858 -0.04608,0.20322 -0.10398,0.29681c-0.05002,0.06728 -0.09996,0.13457 -0.14997,0.20189c-0.1302,-0.01302 -0.2354,-0.05967 -0.3261,-0.20435z" fill="#b6cccc"/><path d="M240.34714,195.60794c0.07241,-0.19154 0.13689,-0.35681 0.20012,-0.56738c0.11176,-0.02499 0.242,-0.01197 0.37609,0.13703c-0.02105,0.16961 -0.05929,0.3465 -0.08827,0.54238c-0.17357,-0.01739 -0.32088,-0.02303 -0.48787,-0.11208z" fill="#c1d9d9"/><path d="M241.6553,200.48302c-0.17358,-0.01737 -0.31301,-0.04936 -0.46287,-0.1457c0.07241,-0.19156 0.22506,-0.30282 0.33419,-0.41839c0.15517,-0.02063 0.24457,0.07868 0.34187,0.15167c0.01048,0.06429 0.02889,0.10231 0.01182,0.10964c-0.07503,0.1009 -0.14999,0.20184 -0.22502,0.30281z" fill="#b7cdce"/><path d="M240.67229,202.11982c0.11451,-0.23253 0.26837,-0.29851 0.40387,-0.40243c0.14339,-0.13026 0.26701,-0.04559 0.41688,0.05072c-0.07241,0.19156 -0.20791,0.29551 -0.3079,0.43008c-0.18937,0.03528 -0.33269,-0.1327 -0.51287,-0.07844z" fill="#b6cccc"/><path d="M236.01748,203.97649c-0.18277,-0.03635 -0.32216,-0.06837 -0.47865,-0.09305c-0.0999,-0.16362 -0.15507,-0.2776 -0.134,-0.44715c0.20912,0.04803 0.40897,0.07708 0.59175,0.11342c0.1341,0.14895 0.06825,0.26888 0.10639,0.39016c-0.0342,0.01464 -0.05921,0.04833 -0.0855,0.03666z" fill="#c2dada"/><path d="M240.96034,194.65721c-0.14729,-0.00572 -0.22619,-0.04071 -0.30639,-0.12099c-0.07231,-0.10668 -0.04069,-0.21192 -0.03541,-0.32887c0.01449,-0.09797 -0.0328,-0.2382 0.07769,-0.30851c0.14858,0.05102 0.28926,0.12833 0.40627,0.28465c-0.0382,0.17695 -0.09481,0.31584 -0.14219,0.47378z" fill="#bbd2d3"/><path d="M230.97435,195.61007c0.14989,0.09633 0.26429,0.16198 0.38788,0.24661c-0.05528,0.18427 -0.15533,0.3188 -0.2461,0.47242c-0.13935,-0.03202 -0.25382,-0.09768 -0.31813,-0.23065c-0.00132,-0.04531 -0.00258,-0.09061 0.0224,-0.12429c0.0316,-0.10526 0.08033,-0.2179 0.15399,-0.36416z" fill="#bbd2d3"/><path d="M238.38606,203.87915c0.07771,-0.30854 0.07769,-0.30854 0.32236,-0.52801c0.18278,0.03635 0.27349,0.18101 0.40756,0.32995c-0.2118,0.15958 -0.48007,0.15983 -0.72994,0.19808z" fill="#adc2c3"/><path d="M231.09063,197.85381c0.13935,0.03202 0.26299,0.11669 0.34446,0.24231c-0.05528,0.18427 -0.10263,0.34215 -0.16719,0.50737c-0.32737,-0.24961 -0.3366,-0.2686 -0.17734,-0.74971z" fill="#b5cbcc"/><path d="M241.9585,198.38081c-0.16569,-0.04365 -0.28797,-0.08303 -0.43786,-0.17936c0.01191,-0.18854 0.13822,-0.31148 0.2198,-0.48407c0.06969,0.01603 0.12225,0.03933 0.17487,0.06266c0.05262,0.02333 0.0973,0.07298 0.15912,0.1153c0.03151,0.19291 -0.02509,0.33183 -0.1159,0.48543z" fill="#bbd1d2"/><path d="M231.22606,194.12615c0.02774,-0.2412 0.22368,-0.34812 0.31447,-0.50171c0.15648,0.02472 0.238,0.15032 0.36163,0.23504c-0.12366,0.21355 -0.27628,0.32477 -0.49197,0.34838c-0.05131,0.02194 -0.12229,-0.03933 -0.18409,-0.08167z" fill="#b6cccd"/><path d="M238.46254,192.05776c-0.28671,-0.03771 -0.56546,-0.10176 -0.83502,-0.14678c-0.04729,-0.1403 -0.03281,-0.23821 0.05007,-0.36549c0.28008,0.10933 0.56018,0.2187 0.81655,0.40698c-0.0158,0.05265 -0.0237,0.07897 -0.0316,0.10525z" fill="#acc1c2"/><path d="M238.63652,198.42789c-0.1947,0.15222 -0.39857,0.28547 -0.63925,0.34269c-0.09473,0.01763 -0.19071,-0.01003 -0.2367,-0.10498c-0.01836,-0.03795 -0.02098,-0.1286 -0.00386,-0.13593c0.24728,-0.12889 0.56814,-0.10585 0.87984,-0.10178z" fill="#a7bbbb"/><path d="M242.25341,197.49747c-0.121,0.00596 -0.21828,-0.06702 -0.32476,-0.15901c0.0382,-0.17695 0.07642,-0.35383 0.11459,-0.53073c0.17358,0.01739 0.24588,0.12401 0.31026,0.25695c0.00387,0.13592 -0.0435,0.29384 -0.10011,0.4328z" fill="#b7cdcd"/><path d="M232.21532,200.85805c0.21702,0.02173 0.36686,0.11806 0.52596,0.23335c0.02228,0.17392 0.0091,0.3172 -0.10801,0.4591c-0.213,-0.18398 -0.30626,-0.41924 -0.41798,-0.69246z" fill="#b7cece"/><path d="M232.24985,192.40313c0.14079,-0.22087 0.39989,-0.24012 0.52483,-0.40837c0.13933,0.03203 0.15908,0.11533 0.12618,0.17532c-0.0908,0.15359 -0.20791,0.29552 -0.37888,0.36875c-0.06052,0.00296 -0.0776,0.0103 -0.2722,-0.13567z" fill="#b4cacb"/><path d="M238.71083,192.86875c-0.00388,-0.13592 0.0198,-0.21489 0.08687,-0.28952c0.2354,0.0597 0.48788,0.11207 0.75344,0.31937c-0.28148,0.14354 -0.53527,0.04583 -0.84035,-0.02983z" fill="#b2c8c9"/><path d="M230.91874,196.68896c-0.02105,0.16961 -0.04349,0.29384 -0.12769,0.37579c-0.07757,0.01032 -0.1223,-0.03933 -0.16699,-0.08902c-0.17877,-0.19864 -0.10507,-0.34492 0.01991,-0.51308c0.08021,0.08028 0.17751,0.15331 0.27481,0.22628z" fill="#b5cbcb"/><path d="M239.26425,201.00293c0.21309,-0.11423 0.40115,-0.1948 0.63391,-0.22573c0.06307,0.08765 0.03019,0.1476 -0.02107,0.16957c-0.1105,0.07028 -0.21182,0.15956 -0.32229,0.22983c-0.1368,0.05861 -0.20778,-0.00274 -0.29054,-0.17364z" fill="#91a3a3"/><path d="M236.11056,193.6388c-0.14079,0.22087 -0.37228,0.29712 -0.57749,0.38501c-0.03421,0.01466 -0.08682,-0.00866 -0.12229,-0.03936c-0.01836,-0.03797 -0.01181,-0.10962 0.0053,-0.11696c0.21178,-0.15957 0.45245,-0.21681 0.69447,-0.22877z" fill="#99abac"/><path d="M235.08764,192.97623c-0.13279,-0.10366 -0.17876,-0.19865 -0.11169,-0.27325c0.1013,-0.08927 0.29068,-0.12453 0.54975,-0.14381c-0.10661,0.20623 -0.29466,0.28679 -0.43806,0.41701z" fill="#93a5a6"/><path d="M233.31283,202.61249c0.26166,0.07138 0.53127,0.11639 0.56011,0.51692c-0.27877,-0.06408 -0.39835,-0.31096 -0.56011,-0.51692z" fill="#9aadad"/><path d="M236.29604,201.01318c0.10922,-0.11562 0.23548,-0.2385 0.32758,-0.34679c0.11309,0.02037 0.15779,0.07002 0.19585,0.19132c-0.10791,0.16093 -0.31567,0.15822 -0.46035,0.24315c-0.01838,-0.03797 -0.02757,-0.057 -0.0631,-0.08766z" fill="#c5dddd"/><path d="M237.21043,196.08036c-0.1395,0.26615 -0.36182,0.36141 -0.62088,0.38068c-0.01708,0.00733 -0.05263,-0.02334 -0.07102,-0.06133c-0.04467,-0.04965 -0.01181,-0.1096 0.02241,-0.12427c0.17885,-0.09961 0.41169,-0.1305 0.66948,-0.19509z" fill="#aec2c3"/><path d="M231.17731,194.53688c-0.07241,0.19156 -0.21578,0.3218 -0.3421,0.44476c-0.11309,-0.02034 -0.13282,-0.10368 -0.08282,-0.17096c0.08294,-0.12726 0.14872,-0.24719 0.25792,-0.36276c0.0158,-0.05265 0.09467,-0.01765 0.16697,0.08899z" fill="#9caeaf"/><path d="M242.1249,196.33704c-0.03148,-0.19294 -0.01827,-0.33617 0.01991,-0.51309c0.18801,0.21762 0.23789,0.44851 0.34826,0.67643c-0.06052,0.00296 -0.09473,0.01762 -0.12098,0.00598c-0.08809,-0.054 -0.15905,-0.11529 -0.24717,-0.16928z" fill="#a9bebf"/><path d="M234.13577,195.9986c0.09859,0.11832 0.11827,0.20155 0.10377,0.29959c-0.1618,0.09223 -0.34328,0.10118 -0.60628,-0.01547c0.18683,-0.12591 0.34071,-0.19185 0.50248,-0.28412z" fill="#b9cfd0"/><path d="M237.67266,201.93712c0.01179,0.10962 -0.07368,0.14625 -0.51168,0.2651c-0.00781,-0.27187 0.20786,-0.29552 0.2908,-0.42275c0.11308,0.02036 0.16696,0.08904 0.22087,0.15767z" fill="#869797"/><path d="M236.62434,194.95532c-0.30116,0.06022 -0.45781,0.33374 -0.79175,0.15575c0.21969,-0.1859 0.43407,-0.2548 0.79175,-0.15575z" fill="#93a4a5"/><path d="M240.58047,201.63166c-0.25645,0.10989 -0.42749,0.18317 -0.59844,0.25641c-0.03421,0.01466 -0.08682,-0.00867 -0.11437,-0.06567c-0.0092,-0.01903 -0.01049,-0.06431 -0.00261,-0.09064c0.18676,-0.12594 0.3749,-0.20655 0.71541,-0.10014z" fill="#94a5a6"/><path d="M238.14979,202.58134c0.12357,0.08472 0.16829,0.13431 0.1459,0.25857c-0.12758,0.0776 -0.27231,0.16254 -0.47091,0.17882c0.02773,-0.24124 0.19869,-0.31445 0.32496,-0.43737z" fill="#abbfc0"/><path d="M241.68392,201.47998c-0.08021,-0.08031 -0.1157,-0.11098 -0.13411,-0.14901c0.13819,-0.31151 0.13818,-0.31146 0.40517,-0.35704c-0.01061,0.23388 -0.18154,0.30716 -0.27108,0.50601z" fill="#acc0c1"/><path d="M234.25316,202.50781c0.19202,0.05536 0.39189,0.08438 0.59306,0.15873c0.07887,0.035 0.11566,0.11101 0.04067,0.2119c-0.2354,-0.05972 -0.45365,-0.12673 -0.63375,-0.37065z" fill="#9fb2b2"/><path d="M242.31885,198.57038c0.0224,-0.1243 0.04613,-0.20324 0.11319,-0.27783c0.08681,0.00864 0.1486,0.05097 0.2117,0.13863c0.03808,0.12129 -0.01063,0.23389 -0.05932,0.34649c-0.121,0.00596 -0.19328,-0.10066 -0.26552,-0.20729z" fill="#aec2c3"/><path d="M235.04611,198.77365c0.0119,-0.18852 0.13163,-0.23989 0.24208,-0.31015c0.05131,-0.02194 0.11308,0.02036 0.14067,0.07735c0.01836,0.03797 0.01181,0.10965 -0.02239,0.12426c-0.075,0.10092 -0.19602,0.10691 -0.36039,0.10854z" fill="#91a2a3"/><path d="M241.70462,194.95751c-0.3919,-0.08438 -0.41819,-0.09602 -0.29837,-0.44553c0.10777,0.1373 0.25769,0.23363 0.29837,0.44553z" fill="#869696"/><path d="M234.58961,191.90522c0.05402,-0.22956 0.18417,-0.21652 0.31309,-0.24883c-0.00274,0.20755 -0.00275,0.20757 -0.31309,0.24883z" fill="#555f5f"/><path d="M236.06898,199.73442c-0.08549,0.03664 -0.20515,0.08788 -0.35247,0.08225c0.07111,-0.23687 0.1395,-0.26615 0.29596,-0.2415c0.04338,0.00435 0.07103,0.06133 0.05648,0.15928z" fill="#93a5a6"/><path d="M240.82998,202.48793c-0.11318,0.27784 -0.15659,0.27354 -0.35506,-0.00846c0.1013,-0.08927 0.22356,-0.04997 0.35506,0.00846z" fill="#8b9b9c"/><path d="M234.99483,191.24999c-0.1434,0.13025 -0.28934,0.16984 -0.43539,0.20945c-0.10648,-0.09197 -0.09987,-0.16364 -0.03149,-0.19291c0.13679,-0.05862 0.28275,-0.09822 0.46681,-0.01657z" fill="#9aacad"/><path d="M242.2932,200.39323c-0.03032,0.15055 -0.02645,0.28655 -0.17244,0.32618c-0.01711,0.00733 -0.04338,-0.00433 -0.0526,-0.02334c-0.04858,-0.18562 0.03562,-0.26755 0.22501,-0.30283z" fill="#5f6a6b"/><path d="M234.5666,197.4424c0.04079,-0.08626 0.10922,-0.11561 0.1868,-0.12588c0.04339,0.00433 0.09599,0.02767 0.09728,0.07299c0.00132,0.04531 -0.01448,0.09798 -0.04873,0.11258c-0.06837,0.02928 -0.14597,0.03961 -0.23538,-0.0597z" fill="#636e6f"/><path d="M242.60319,197.6229c0.11567,0.11098 0.14455,0.21327 0.04457,0.34785c-0.14196,-0.12264 -0.1275,-0.22058 -0.04457,-0.34785z" fill="#4a5354"/></g><path d="M219.11909,199.06089c0,0 2.89853,-3.26989 5.64261,-3.20504c2.35289,0.0556 4.55271,3.31944 5.16154,4.63915c1.15693,2.50783 2.15842,5.04274 1.20748,7.45801c-0.32887,0.83522 -1.63546,2.26503 -3.01712,2.90779c-0.96177,0.44743 -4.56012,1.53458 -5.61894,2.0022c-3.98662,1.76068 -7.35486,3.08112 -8.87673,0.33735c-0.93644,-1.68827 -3.71404,-6.37618 -2.66342,-8.43591c1.11029,-2.17676 8.16459,-5.70361 8.16459,-5.70361z" fill="#000000" stroke="#000000" stroke-width="1.2"/></g><path d="M237.24946,158.03072c0.74227,0.10741 0.63485,0.84968 0.63485,0.84968l-0.1516,0.8631c-0.61368,1.41212 -1.29176,3.35348 -2.61641,4.23353c-1.82877,1.21498 -4.44935,0.51937 -5.0772,-1.68318c-0.58921,-2.06697 0.26362,-4.69048 0.84181,-6.65958c0,0 0.21131,-0.71962 0.93093,-0.50831c0.71962,0.21131 0.50831,0.93092 0.50831,0.93092c-0.51951,1.76924 -1.25256,3.9847 -0.83147,5.85133c0.28268,1.25304 1.85194,1.43496 2.78744,0.82619c1.02393,-0.66629 1.60389,-2.49118 2.08089,-3.58877l0.04277,-0.48006c0,0 0.10741,-0.74227 0.84967,-0.63486z" fill="#000000" fill-rule="nonzero" stroke="none" stroke-width="0.5" stroke-linecap="butt" stroke-linejoin="miter"/></g></g></svg>