<svg version="1.1" xmlns="http://www.w3.org/2000/svg" xmlns:xlink="http://www.w3.org/1999/xlink" width="51.37957" height="55.35715" viewBox="0,0,51.37957,55.35715"><g transform="translate(-214.32024,-152.34354)"><g data-paper-data="{&quot;isPaintingLayer&quot;:true}" fill="#fffb00" fill-rule="nonzero" stroke="#979400" stroke-width="4" stroke-linecap="butt" stroke-linejoin="miter" stroke-miterlimit="10" stroke-dasharray="" stroke-dashoffset="0" style="mix-blend-mode: normal"><path d="M216.32024,180.30055c0.00164,-0.0781 2.84124,-1.42574 5.77426,-1.44907c3.18542,-0.02534 6.486,1.27491 6.51222,1.21442c0.00032,-0.00072 -2.15254,-16.24432 -2.15248,-16.24438c0.06419,-0.08078 7.8188,-9.76094 13.51685,-9.47162c5.14133,0.26105 14.84224,9.68075 14.93155,9.68262c0.02991,0.00063 -4.63404,15.085 -4.63383,15.08615c0.02024,0.10683 3.38201,-1.97713 6.6178,-2.07126c3.27645,-0.09531 6.42965,1.79781 6.8132,1.6836c0.03632,-0.01082 -3.60893,8.63997 -9.04662,15.5106c-5.23553,6.61518 -12.26952,11.45969 -12.31931,11.45908c-0.04973,-0.00062 -9.29781,-4.26463 -15.89326,-10.71383c-6.38277,-6.24125 -10.12065,-14.67432 -10.12039,-14.68631z" data-paper-data="{&quot;index&quot;:null}"/></g></g></svg>