<svg version="1.1" xmlns="http://www.w3.org/2000/svg" xmlns:xlink="http://www.w3.org/1999/xlink" width="83.10304" height="123.44466" viewBox="0,0,83.10304,123.44466"><defs><linearGradient x1="219.28023" y1="189.40236" x2="219.28023" y2="192.31392" gradientUnits="userSpaceOnUse" id="color-1"><stop offset="0" stop-color="#737373"/><stop offset="1" stop-color="#000000"/></linearGradient></defs><g transform="translate(-193.84688,-119.87442)"><g data-paper-data="{&quot;isPaintingLayer&quot;:true}" stroke-miterlimit="10" stroke-dasharray="" stroke-dashoffset="0" style="mix-blend-mode: normal"><g fill="none" fill-rule="nonzero" stroke="none" stroke-width="1" stroke-linecap="butt" stroke-linejoin="miter" font-family="sans-serif" font-weight="normal" font-size="12" text-anchor="start"><g><g data-paper-data="{&quot;index&quot;:null}"/></g><g data-paper-data="{&quot;index&quot;:null}"/><g data-paper-data="{&quot;index&quot;:null}"/></g><g fill="none" fill-rule="nonzero" stroke="none" stroke-width="1" stroke-linecap="butt" stroke-linejoin="miter" font-family="sans-serif" font-weight="normal" font-size="12" text-anchor="start"><g><g/><g><g/></g><g/></g><g/></g><path d="" fill="#2b1900" fill-rule="nonzero" stroke="#150c00" stroke-width="3" stroke-linecap="butt" stroke-linejoin="miter"/><path d="M230.29656,192.67727c0,2.5027 -3.04182,4.53153 -6.79411,4.53153c-1.99898,0 -5.57228,1.70962 -7.76975,0.4808c-1.92739,-1.0778 -2.63896,-5.06007 -2.42954,-5.73384c0.65328,-2.10169 7.29153,-3.03467 9.51697,-3.03467c3.75229,0 7.47643,1.25349 7.47643,3.75618z" fill="#ffffff" fill-rule="nonzero" stroke="#737373" stroke-width="1" stroke-linecap="butt" stroke-linejoin="miter"/><path d="M234.36889,204.85271l0.97525,-16.04212" fill="none" fill-rule="nonzero" stroke="#000000" stroke-width="6" stroke-linecap="round" stroke-linejoin="miter"/><path d="M216.79076,206.65322c0,0 3.89878,-6.30437 4.58055,-7.1978c1.23447,-1.61773 14.31859,-10.03321 14.31859,-10.03321c0,0 5.68584,7.08019 7.64725,9.13523c1.8512,1.93956 6.66911,2.86863 6.66911,2.86863" fill="none" fill-rule="nonzero" stroke="#000000" stroke-width="6" stroke-linecap="round" stroke-linejoin="miter"/><g><g><g stroke="#262626" stroke-width="1.2"><path d="M243.39642,203.54009l2.88983,26.27636c0,0 6.98259,0.4171 6.81653,7.59665c-0.00947,0.40931 -0.10852,2.41892 -2.99313,3.00706c-2.76287,0.56331 -8.27047,-0.27821 -10.28288,-0.59795c-0.93467,-0.14851 -2.35845,-0.79631 -3.26837,-1.90547c-0.91612,-1.11677 -0.81717,-2.74089 -0.81655,-3.65454c0.00025,-0.37213 -2.05584,-29.63214 -2.05584,-29.63214" fill="#ffffff" fill-rule="evenodd" stroke-linecap="round" stroke-linejoin="round"/><path d="M233.51348,210.55566c0.17018,-7.35787 5.45586,-7.48521 8.20979,-7.41859c1.19752,0.02897 1.03568,-1.93754 2.09544,3.81734c0.23339,1.26745 0.69205,6.47077 1.67285,10.89963c0.67162,3.03271 1.93138,5.71059 2.16674,6.47993c0.55608,1.81777 0.32733,3.47486 0.32733,3.47486l-1.00827,-1.20431c0,0 0.6644,0.83929 0.93047,1.34007c0.8289,1.56004 1.46296,2.73749 1.46296,2.73749c0,0 -7.04247,-0.46511 -9.78538,1.82984c-2.74291,2.29495 -1.38374,6.6145 -1.38374,6.6145c0,0 -5.21776,-0.81997 -5.6359,-3.76384c-0.10309,-0.72574 0.70618,-2.88543 0.70618,-2.88543c0,0 -0.59661,0.12216 -0.61594,-0.38035c-0.00986,-0.25616 0.78957,-4.05623 0.96719,-8.33109c0.23382,-5.62754 -0.13426,-12.1499 -0.10974,-13.21005z" fill="#000000" fill-rule="nonzero" stroke-linecap="butt" stroke-linejoin="miter"/></g><path d="M224.5609,205.33215c-0.00974,-0.21598 1.18512,0.4208 3.89261,0.49439c3.57187,0.0971 9.04209,-0.33729 10.58028,-0.55955c3.98878,-0.57634 4.66378,-2.11038 4.68961,-1.53784c0.09556,2.11872 -2.16062,6.04332 -6.72376,6.25859c-2.00528,0.0946 -6.10681,0.80409 -8.42943,0.05816c-2.96262,-0.95148 -3.95572,-3.52614 -4.0093,-4.71377z" fill="#004fd9" fill-rule="nonzero" stroke="#001026" stroke-width="1.2" stroke-linecap="butt" stroke-linejoin="miter"/><g fill-rule="nonzero" stroke-linecap="butt" stroke-linejoin="miter"><g fill="none" stroke="none" stroke-width="1" font-family="sans-serif" font-weight="normal" font-size="12" text-anchor="start"/><path d="M224.07958,203.95418c0,0 8.57098,1.33376 12.5096,1.31516c3.93861,-0.01859 7.1835,-1.40815 7.1835,-1.40815c0,0 0.031,2.07391 -1.72548,4.09233c-1.35963,1.56238 -3.97267,3.1809 -7.35009,3.21523c-3.07692,0.03128 -6.50968,-0.62978 -8.20888,-1.98628c-2.57548,-2.05606 -2.40864,-5.22831 -2.40864,-5.22831z" fill="#000000" stroke="#262626" stroke-width="1.2"/></g><g stroke-width="1.2"><path d="M233.54811,209.2107c0,0 -3.34528,30.56729 -3.95573,30.66819c-1.75183,0.28953 -11.35196,-2.30308 -11.35196,-2.30308l6.17094,-30.73259" data-paper-data="{&quot;index&quot;:null}" fill="#ffab19" fill-rule="evenodd" stroke="#001026" stroke-linecap="round" stroke-linejoin="round"/><path d="M235.02656,208.71787c0,0 -0.78147,6.46384 -1.01229,9.89111c-0.22138,3.28727 -0.3455,10.27008 -0.3455,10.27008c0,0 0.93843,5.07389 0.02095,6.32511c-0.42494,0.57952 -0.75979,-2.86462 -0.75979,-2.86462c0,0 0.3738,3.88276 0.41061,4.22499c0.2568,2.38782 -0.91518,5.52348 -3.98631,5.82139c-3.37191,0.32707 -8.96203,0.69649 -11.84378,-1.19265c-1.22614,-0.8038 -2.88701,-3.16992 -2.44,-5.69046c0.50411,-2.84252 3.21129,-5.82039 3.21129,-5.82039l-2.48757,3.24602c0,0 -0.02593,-1.62079 0.37883,-2.80973c0.45455,-1.33517 2.21648,-4.8136 2.21648,-4.8136l5.34118,-19.57598" data-paper-data="{&quot;index&quot;:null}" fill="#000000" fill-rule="evenodd" stroke="#262626" stroke-linecap="round" stroke-linejoin="round"/><path d="M231.90314,237.97312c-0.08452,1.71634 -0.774,3.71047 -2.27053,4.74596c-1.50208,1.03932 -10.52962,0.62745 -11.92522,-0.64275c-1.32536,-1.20627 -1.86525,-3.4358 -1.78275,-5.11092c0.16936,-3.43903 3.88355,-6.00135 8.29591,-5.72308c4.41233,0.27827 7.85196,3.29175 7.68258,6.7308z" fill="#ffffff" fill-rule="nonzero" stroke="#262626" stroke-linecap="butt" stroke-linejoin="miter"/></g></g><g fill="none" fill-rule="nonzero" stroke="none" stroke-width="1" stroke-linecap="butt" stroke-linejoin="miter" font-family="sans-serif" font-weight="normal" font-size="12" text-anchor="start"/></g><path d="M225.11723,203.83214c0,0 3.45565,-5.9968 3.02069,-7.83613c-0.10639,-0.44988 -2.99502,7.05965 -3.46547,6.63c-2.24345,-2.04885 -7.71433,-3.72995 -7.71433,-3.72995c0,0 5.25961,-6.51569 8.93143,-9.34236c1.01383,-0.78048 3.54388,-0.16344 3.82661,-0.40173c0.36514,-0.30776 9.21566,0.27728 9.55399,0.46133c4.04714,2.20166 7.47953,7.27282 7.47953,7.27282c0,0 -2.33083,2.74275 -2.37176,5.93626c-0.00029,0.02269 -2.17849,-5.08627 -2.18304,-4.73052c-0.02732,2.13126 0.61698,5.73948 0.61698,5.73948c0,0 -5.32899,1.19664 -7.98134,1.24445c-2.92395,0.0527 -9.71329,-1.24363 -9.71329,-1.24363z" fill="#ffffff" fill-rule="nonzero" stroke="#737373" stroke-width="2.5" stroke-linecap="butt" stroke-linejoin="miter"/><path d="M222.10681,192.22964c0,0 -5.79461,0.54134 -7.13395,0.52177c-0.58498,-0.00854 -1.00847,-0.42849 -0.97273,-0.90567c0.03807,-0.50818 0.55576,-1.07527 0.55576,-1.07527" fill="none" fill-rule="nonzero" stroke="#737373" stroke-width="1" stroke-linecap="round" stroke-linejoin="miter"/><path d="M216.55534,190.96393l0.12917,-0.08885c0.08689,-0.03636 0.1738,-0.07272 0.26069,-0.10908c1.14358,-0.18658 6.4952,-1.88845 4.75168,0.49611c-0.97944,0.21025 -5.60648,0.89376 -5.44409,-0.12899c0,0 0.07138,-0.23725 0.30256,-0.1692z" fill="#000000" fill-rule="nonzero" stroke="none" stroke-width="0.5" stroke-linecap="butt" stroke-linejoin="miter"/><path d="M224.08106,189.43994c0,0 -2.07289,2.01048 -2.52231,2.38243c-0.24358,0.20158 -3.30698,0.30715 -3.73031,0.33547c-1.86939,0.12505 -3.34897,0.31757 -3.34897,-0.09273c0,-0.13931 -0.01491,-0.77876 0.44885,-1.0356c1.21138,-0.67089 4.05477,-1.31674 5.8118,-1.48806c2.40541,-0.23455 3.34093,-0.10149 3.34093,-0.10149z" fill="url(#color-1)" fill-rule="nonzero" stroke="#737373" stroke-width="0" stroke-linecap="butt" stroke-linejoin="miter"/><g stroke-linejoin="miter"><g stroke-linecap="butt"><path d="M262.17086,166.55726c-1.24713,13.53598 -13.47557,23.39823 -27.31298,22.02796c-13.83741,-1.37027 -24.04385,-13.45417 -22.79671,-26.99015c1.24713,-13.53598 13.47557,-23.39824 27.31298,-22.02797c13.83741,1.37027 24.04385,13.45417 22.79672,26.99016z" fill="none" fill-rule="nonzero" stroke="#000000" stroke-width="4.5"/><g><g fill-rule="nonzero"><path d="M223.72416,146.77047l0.01052,0.00926" data-paper-data="{&quot;index&quot;:null}" fill="#ffab19" stroke="#000000" stroke-width="5"/><g data-paper-data="{&quot;index&quot;:null}" fill="none" stroke="none" stroke-width="1" font-family="sans-serif" font-weight="normal" font-size="12" text-anchor="start"/></g><path d="M223.72416,146.77047l0.01052,0.00926" data-paper-data="{&quot;index&quot;:null}" fill="#ffab19" fill-rule="nonzero" stroke="#000000" stroke-width="5"/><path d="M236.716,165.27847" fill="#001026" fill-rule="evenodd" stroke="#000000" stroke-width="5"/><g data-paper-data="{&quot;index&quot;:null}" fill="none" fill-rule="nonzero" stroke="none" stroke-width="1" font-family="sans-serif" font-weight="normal" font-size="12" text-anchor="start"/><g data-paper-data="{&quot;index&quot;:null}" fill="none" fill-rule="nonzero" stroke="none" stroke-width="1" font-family="sans-serif" font-weight="normal" font-size="12" text-anchor="start"/></g></g><path d="M236.02414,182.08978c0,0 -11.53429,-2.12681 -14.05054,-3.64894c-2.09901,-1.26974 -2.61077,-5.07874 -2.61077,-5.07874" fill="none" fill-rule="nonzero" stroke="#000000" stroke-width="3" stroke-linecap="round"/><path d="M218.00402,162.80986l23.02237,3.06112l-0.4186,3.58907" fill="none" fill-rule="nonzero" stroke="#000000" stroke-width="4.5" stroke-linecap="round"/><path d="M247.88796,170.1299l-0.76091,-2.6193l20.81803,-8.11631" fill="none" fill-rule="nonzero" stroke="#000000" stroke-width="4.5" stroke-linecap="round"/><path d="M209.19342,149.38129l-3.68716,-5.04204l-1.9306,-6.06685l9.61288,4.21956l1.814,-0.25178l-0.6917,-3.46192l-2.46805,-2.52112l6.97821,3.11002l-2.96357,-4.62181l-1.07073,-7.18673l5.27709,5.42882l3.74087,1.56345l-1.90222,-5.14428l5.61151,4.4559l-0.48344,-5.22638l0.92208,-4.03301l5.31875,5.07592l2.53357,1.21036l1.56207,2.38653l1.47936,-7.4947l2.2101,6.72227l2.36755,-7.9651l3.11407,7.37782l2.7361,-4.28479l0.32937,7.71141l4.06232,-3.42752l1.16597,-4.58752l2.20808,7.24324l-1.18378,3.98254l6.27876,-3.5616l3.22557,-0.62125l-5.35297,3.78021l1.79418,-0.33579l-2.17308,4.55374l6.09636,-3.27595l-5.09931,5.91447l9.69849,-2.30067l-6.40975,6.18312l4.881,-1.54524l-5.37679,4.73808l2.57521,0.85747l-9.97181,-0.41167l-38.12764,5.94195l-10.30401,4.32047l3.89231,-4.23391l-7.53348,-0.16928l5.06742,-2.87279l-9.39486,-3.29526l6.93484,-1.30964l2.64473,-1.4952l2.24614,0.52135" fill="#ffffff" fill-rule="nonzero" stroke="#e2e2e2" stroke-width="3" stroke-linecap="round"/></g><g data-paper-data="{&quot;index&quot;:null}" fill-rule="nonzero" stroke="none" stroke-width="1" stroke-linecap="butt" stroke-linejoin="miter"><path d="M263.9746,180.9714c-0.00914,-0.21019 0.11023,-0.30069 0.26896,-0.3826c0.2606,-0.10963 0.53756,-0.16578 0.80365,-0.25751c0.03452,-0.06741 0.06905,-0.1348 0.0866,-0.19755c0.44197,-1.31905 1.34235,-2.22161 2.41612,-2.97803c0.22722,-0.15856 0.44903,-0.33498 0.72054,-0.4089c0.05092,-0.01382 0.11333,-0.05018 0.13633,-0.09516c0.12658,-0.24716 0.3472,-0.30725 0.57933,-0.38979c0.19816,-0.07332 0.40728,-0.11094 0.6109,-0.16638c0.11877,-0.03235 0.2485,-0.02901 0.36614,0.05494c0.11761,0.08397 0.26976,0.10054 0.40492,0.12168c0.78374,0.03788 1.55479,0.21451 2.30771,0.51209c0.42132,0.17525 0.79114,0.4225 1.16641,0.68762c1.10344,0.7821 1.91665,1.81725 2.5081,3.0288c0.2596,0.54796 0.43986,1.13684 0.55224,1.74421c0.08563,0.45999 0.04154,0.91669 -0.02496,1.36012c-0.21164,1.41099 -0.86639,2.5753 -1.8407,3.53661c-0.18241,0.185 -0.41506,0.32573 -0.64775,0.46643c-0.1533,0.09977 -0.28418,0.21275 -0.3314,0.41892c-0.03572,0.18369 -0.16658,0.29668 -0.32534,0.3786c-0.2606,0.10963 -0.5321,0.18358 -0.80364,0.25752c-0.08486,0.02312 -0.16367,0.00593 -0.24248,-0.01131c-0.28672,-0.09588 -0.55766,-0.0801 -0.83465,-0.02396c-0.58245,0.13933 -1.18556,0.09089 -1.7832,0.06033c-0.2255,-0.01594 -0.45642,-0.04968 -0.68134,-0.12374c-0.73106,-0.2262 -1.43368,-0.4795 -2.08361,-0.92111c-0.25454,0.06933 -0.53153,0.12543 -0.80303,0.19942c-0.10184,0.02774 -0.2206,0.06008 -0.32125,-0.02852c-0.09516,-0.07074 -0.19157,-0.02517 -0.29337,0.00257c-0.68425,0.16705 -1.36303,0.35191 -2.04729,0.51896c-1.5158,0.3935 -3.04851,0.79166 -4.57521,1.14948c-1.49277,0.34856 -2.96911,0.75072 -4.45096,1.13497c-0.23759,0.06471 -0.46911,0.08909 -0.70666,0.15381c-1.15393,0.31432 -2.30791,0.62858 -3.46728,0.92506c-0.20362,0.05546 -0.39634,0.1466 -0.61577,0.09036c-0.07884,-0.01719 -0.15818,0.02373 -0.24305,0.04683c-0.8485,0.23113 -1.71942,0.449 -2.56793,0.6801c-0.03393,0.00924 -0.08485,0.02308 -0.11877,0.03235c-0.26606,0.09183 -0.44005,0.00386 -0.63531,-0.21363c-0.64701,-0.73241 -1.01645,-1.57907 -1.10838,-2.54005c-0.02008,-0.24586 -0.00626,-0.50093 0.04698,-0.74745c0.03572,-0.18371 0.1496,-0.29207 0.3138,-0.35614c0.49273,-0.19219 0.97996,-0.40223 1.48965,-0.59905c0.36243,-0.13738 0.75273,-0.24369 1.09874,-0.4346c0.75447,-0.41814 1.59146,-0.62679 2.36227,-0.99143c0.43631,-0.1962 0.84479,-0.42344 1.2866,-0.60179c0.47573,-0.18756 0.92359,-0.40619 1.37685,-0.60702c0.82724,-0.36063 1.68236,-0.69019 2.50412,-1.06869c1.07141,-0.52379 2.16473,-0.97629 3.258,-1.42871c0.37395,-0.15985 0.7478,-0.31969 1.12174,-0.47953c0.58908,-0.23782 1.19508,-0.48017 1.78413,-0.71793c0.32848,-0.12815 0.62907,-0.28734 0.95752,-0.41548c0.34002,-0.15062 0.66241,-0.23842 1.02484,-0.3758zM264.34871,181.3528c-0.03628,0.24188 -0.03863,0.47451 0.01537,0.71109c-0.01071,0.50558 0.10281,0.99664 0.21636,1.48771c0.13481,0.62061 0.34291,1.24056 0.54561,1.84269c0.22999,0.69135 0.61328,1.28292 1.019,1.88779c0.0558,0.06215 0.11158,0.12427 0.19526,0.21746c0.13575,-0.03695 0.27149,-0.07398 0.40724,-0.11093c0.03393,-0.00924 0.06242,-0.03633 0.10785,-0.06802c-0.03822,-0.12492 -0.09343,-0.24521 -0.1656,-0.36091c-0.11647,-0.20027 -0.19348,-0.39196 -0.3099,-0.59223c-0.26566,-0.50762 -0.38413,-1.07471 -0.59889,-1.5962c-0.10438,-0.2809 -0.24262,-0.55256 -0.31306,-0.84269c-0.14027,-0.63847 -0.36536,-1.2538 -0.43773,-1.91071c-0.01521,-0.16986 -0.03592,-0.35754 -0.05111,-0.5274c0.08,-0.09911 0.00231,-0.23263 0.00898,-0.33112c0.01815,-0.12093 0.03627,-0.2419 -0.04078,-0.43353c-0.18241,0.185 -0.41938,0.19156 -0.60116,0.31836c0.01032,0.09387 -0.06962,0.19296 0.00254,0.30865zM263.99021,182.22373c0.02713,-0.45203 0.0113,-0.56371 -0.09363,-0.78649c-0.19816,0.07332 -0.37939,0.14204 -0.57757,0.21532c-0.11877,0.03235 -0.1818,0.12681 -0.19993,0.2478c-0.0121,0.08066 0.01524,0.16985 0.00312,0.25048c-0.03689,0.30004 0.00508,0.61729 0.10944,0.89818c-0.04658,0.14804 -0.00295,0.29078 0.04078,0.43356c0.22881,0.80765 0.43523,1.60211 0.74887,2.38667c0.14318,0.34767 0.3033,0.69075 0.47497,1.01128c0.14982,0.24923 0.30508,0.51624 0.57427,0.67492c0.22062,-0.0601 0.44119,-0.1202 0.66182,-0.18028c-0.0776,-0.1335 -0.14981,-0.24923 -0.21649,-0.34701c-0.28866,-0.4627 -0.54342,-0.93462 -0.73031,-1.42507c-0.24752,-0.62855 -0.4102,-1.28026 -0.58988,-1.92729c-0.09286,-0.30339 -0.07845,-0.61663 -0.18824,-0.91538c0.06962,-0.19296 0.03198,-0.37603 -0.01715,-0.53662zM245.78015,189.58087c-0.02536,0.27757 0.0341,0.53201 0.12756,0.7772c-0.0115,0.02245 -0.01755,0.0628 -0.01208,0.08066c0.14805,0.42367 0.33004,0.8381 0.60294,1.18909c0.15586,0.20893 0.29472,0.42241 0.53601,0.54998c0.95033,-0.25885 1.90058,-0.51771 2.90186,-0.79036c-0.31772,-0.37744 -0.53374,-0.78265 -0.73264,-1.19241c-0.18259,-0.35628 -0.2409,-0.72705 -0.38955,-1.09255c-0.04369,-0.14275 -0.06499,-0.2723 -0.10869,-0.41507c0.01933,-0.23723 -0.00079,-0.48312 -0.06572,-0.75539c-0.50911,0.13866 -0.94056,0.41086 -1.40479,0.57597c-0.47575,0.18758 -0.94603,0.39301 -1.40476,0.57596c-0.06962,0.19293 -0.05991,0.34498 -0.05012,0.49699zM249.05449,188.20572c-0.04656,0.14806 -0.01989,0.29543 0.02381,0.43816c-0.0242,0.16126 0.04192,0.31728 0.07412,0.48248c0.13598,0.50432 0.35681,0.98548 0.60606,1.43956c0.15527,0.26702 0.34451,0.52482 0.59065,0.72842c0.0679,-0.01848 0.14121,-0.01913 0.20909,-0.03766c0.83157,-0.22646 1.64607,-0.44832 2.48305,-0.65698c0.88787,-0.2225 1.75881,-0.44039 2.6467,-0.66289c1.29518,-0.33346 2.57883,-0.64437 3.87399,-0.97783c1.45336,-0.35718 2.87335,-0.76331 4.33763,-1.08476c0.24303,-0.04684 0.49209,-0.13406 0.74668,-0.20338c-0.12796,-0.17778 -0.2844,-0.32849 -0.37842,-0.51556c-0.3439,-0.58298 -0.59143,-1.21155 -0.80503,-1.84936c-0.17476,-0.57103 -0.33258,-1.1467 -0.49037,-1.72242c-0.03707,-0.24125 -0.08562,-0.46 -0.12269,-0.70124c0.05813,-0.17048 -0.02497,-0.32185 -0.03473,-0.47387c-0.01521,-0.16986 0.00897,-0.33109 -0.06262,-0.50494c-0.18062,0.01053 -0.30546,0.0832 -0.41877,0.13339c-0.94116,0.469 -1.94296,0.79986 -2.90046,1.21533c-0.61754,0.26488 -1.23511,0.52971 -1.84717,0.81247c-0.82724,0.36063 -1.63202,0.7345 -2.44227,1.09053c-0.66296,0.29659 -1.32597,0.59316 -1.99443,0.87187c-0.71392,0.31044 -1.41629,0.59839 -2.13567,0.891c-0.65149,0.27411 -1.31991,0.55287 -1.9829,0.84944c0.0322,0.16519 -0.03685,0.30003 0.0238,0.43817zM273.61822,187.97247c-0.27288,-0.35098 -0.45546,-0.70729 -0.65502,-1.05889c-0.20502,-0.36949 -0.42155,-0.71648 -0.60956,-1.0906c-0.18258,-0.35629 -0.33668,-0.73967 -0.50226,-1.10054c-0.17107,-0.37876 -0.34215,-0.75747 -0.50171,-1.15864c-0.14862,-0.36549 -0.28576,-0.75349 -0.43438,-1.11902c-0.13711,-0.38797 -0.20638,-0.79445 -0.4114,-1.16395c-0.01289,-0.40245 -0.20093,-0.77657 -0.29869,-1.15596c-0.08619,-0.40181 -0.21185,-0.81231 -0.29808,-1.21414c-0.08074,-0.38397 -0.14998,-0.79045 -0.2138,-1.17906c-0.06923,-0.40648 -0.06513,-0.81357 -0.18531,-1.20613c-0.41821,0.07523 -0.53697,0.10757 -0.79874,0.33354c-0.01933,0.23723 -0.03862,0.47452 -0.01306,0.73819c0.04194,0.31724 0.08385,0.63445 0.11429,0.97417c0.06691,0.63911 0.14535,1.25573 0.33651,1.88032c0.13107,0.4283 0.27918,0.85198 0.34234,1.29877c0.01032,0.09387 0.04311,0.20092 0.1098,0.29871c0.11648,0.20027 0.17048,0.4369 0.23605,0.65104c0.24031,0.78521 0.58245,1.54266 0.93614,2.27767c0.44709,0.98024 1.00203,1.89238 1.60792,2.79065c0.111,0.18242 0.22198,0.36488 0.41839,0.46598c0.26549,-0.03362 0.51457,-0.12082 0.82057,-0.26214zM273.43103,180.21298c-0.2643,-0.08266 -0.50676,-0.09398 -0.75467,-0.12309c-0.21397,-0.03841 -0.42307,-0.00076 -0.60487,0.12609c-0.35754,0.21337 -0.74843,0.37785 -1.16117,0.47092c-0.03393,0.00924 -0.07939,0.04094 -0.09635,0.04555c-0.02358,0.10308 -0.00172,0.17444 0.07648,0.24984c0.02241,0.01323 0.06183,0.02181 0.07882,0.01719c0.50852,-0.0805 1.02793,-0.1253 1.55831,-0.13443c0.07334,-0.00061 0.18062,-0.01052 0.23758,-0.06472c0.24969,-0.14532 0.49931,-0.29068 0.66591,-0.58738zM270.54092,179.84016c0.47454,-0.07127 0.94307,-0.10218 1.4001,-0.11066c0.14666,-0.00131 0.26001,-0.05149 0.37938,-0.14203c0.17631,-0.14469 0.30778,-0.31584 0.45624,-0.49158c0.05695,-0.05417 0.13087,-0.11295 0.06417,-0.2108c-0.31581,-0.01065 -0.62012,-0.04376 -0.92496,-0.01874c-0.61988,0.49751 -0.61986,0.49748 -1.42895,0.73718c-0.03454,0.06739 -0.02963,0.14342 0.05404,0.23661zM270.20451,184.68764c-0.32732,0.01181 -0.64919,0.04149 -0.97102,0.07113c-0.07334,0.00063 -0.14669,0.0013 -0.20908,0.03763c-0.23329,0.19884 -0.47202,0.37992 -0.62711,0.65413c0.26918,0.15868 0.5401,0.14287 0.81046,0.18525c0.13515,0.0212 0.23154,-0.02441 0.33392,-0.1103c0.22782,-0.2167 0.4666,-0.39775 0.72774,-0.5655c0.01697,-0.00462 0.02304,-0.04491 0.04602,-0.08983c-0.03335,-0.04891 -0.07219,-0.11573 -0.111,-0.18243zM274.5743,183.76807c-0.34253,-0.15804 -0.62985,-0.1958 -0.92262,-0.25136c-0.11274,-0.00797 -0.19211,0.03299 -0.2715,0.07396c-0.3745,0.21803 -0.76545,0.38243 -1.19514,0.48017c-0.0509,0.01385 -0.09635,0.04554 -0.14724,0.05943c0.04311,0.20093 0.071,0.232 0.20675,0.19501c0.44124,-0.1202 0.89279,-0.1465 1.33769,-0.07435c0.27036,0.04237 0.46854,-0.03093 0.66185,-0.18026c0.09697,-0.10374 0.18241,-0.185 0.33025,-0.30261zM271.16843,181.95051c0.02732,0.08922 0.1007,0.08855 0.16857,0.07008c0.47515,-0.1294 0.97701,-0.11145 1.47893,-0.09348c0.40608,0.00539 0.77455,-0.17231 1.06596,-0.54165c-0.19096,-0.0833 -0.36612,-0.05493 -0.54617,-0.10257c-0.37705,-0.09064 -0.69947,-0.00281 -1.01704,0.161c-0.35148,0.17307 -0.69753,0.36397 -1.08177,0.42999c-0.04541,0.03174 -0.05699,0.0542 -0.06847,0.07666zM274.17504,182.5236c-0.2364,-0.05162 -0.39948,-0.10387 -0.55708,-0.13825c-0.25885,-0.0648 -0.46795,-0.02721 -0.68367,0.10887c-0.28965,0.19489 -0.61813,0.32303 -0.95203,0.43332c-0.11335,0.05019 -0.24908,0.08718 -0.36785,0.11951c0.01032,0.09387 0.06668,0.09782 0.10065,0.08857c0.51945,-0.04485 1.04431,-0.07179 1.5741,-0.02272c0.09031,-0.00528 0.16364,-0.00592 0.24303,-0.04686c0.21028,-0.15392 0.42599,-0.29003 0.6429,-0.54243zM270.71829,185.76567c-0.30058,0.15921 -0.62241,0.18883 -0.93882,0.23635c-0.08485,0.02311 -0.16911,-0.01193 -0.24303,0.04686c-0.11941,0.09054 -0.32535,0.37861 -0.41802,0.61652c0.20795,0.07871 0.4225,0.05891 0.63104,0.07948c0.16911,0.01193 0.2994,-0.04288 0.40785,-0.16907c0.19389,-0.20744 0.39871,-0.37925 0.65385,-0.50674c0.01699,-0.00462 0.03998,-0.04957 0.05148,-0.07202c-0.00488,-0.07603 -0.02672,-0.14738 -0.14437,-0.23135zM267.73037,179.96767c-0.20478,0.17178 -0.49878,0.23251 -0.67023,0.45319c0.05519,0.12029 0.15643,0.15074 0.24617,0.20362c0.17401,0.08794 0.31948,0.20296 0.53346,0.24135c0.2727,-0.19025 0.62299,-0.24703 0.91812,-0.42408c0.02358,-0.10308 -0.00371,-0.19231 -0.06499,-0.2723c-0.32127,-0.02849 -0.63648,-0.09731 -0.96263,-0.20181zM269.40183,182.6057c-0.18062,0.01053 -0.36122,0.02105 -0.50733,-0.03583c-0.354,-0.13556 -0.63706,-0.03912 -0.88183,0.1822c-0.08544,0.08124 -0.18726,0.10897 -0.25633,0.24379c0.22435,0.13224 0.44922,0.20633 0.67415,0.28034c0.06182,0.02183 0.12971,0.00332 0.20908,-0.03763c0.23271,-0.14073 0.45389,-0.25898 0.68658,-0.39967c0.05092,-0.01382 0.10788,-0.06806 0.07568,-0.23329zM269.0577,181.48144c-0.39518,0.03032 -0.76734,0.01564 -1.10988,-0.14238c-0.06729,-0.03967 -0.1297,-0.00332 -0.19758,0.01517c-0.14727,0.05945 -0.2891,0.13675 -0.40903,0.28541c0.31406,0.18513 0.60083,0.28102 0.9045,0.3723c0.10124,0.03043 0.19153,0.02519 0.2879,-0.02042c0.17576,-0.0865 0.35695,-0.15524 0.53269,-0.24176c0.01699,-0.00462 0.04001,-0.04958 0.0515,-0.07201c-0.01638,-0.05355 -0.03277,-0.10709 -0.0601,-0.19628zM274.15787,185.35083c0.14783,-0.11762 0.3127,-0.23983 0.46057,-0.35741c0.0115,-0.02245 0.02303,-0.04495 0.04602,-0.08986c-0.21281,-0.15472 -0.44923,-0.20632 -0.65774,-0.22687c-0.48783,0.2682 -0.94172,0.52715 -1.51871,0.6843c0.34798,0.17591 0.58125,-0.02301 0.81823,-0.02954c0.2879,-0.0204 0.56973,-0.00054 0.8516,0.01935zM273.76185,179.85216c0.14902,-0.23392 0.30894,-0.43217 0.35128,-0.71434c-0.14061,-0.03905 -0.2528,-0.10515 -0.37101,-0.13091c-0.1182,-0.02578 -0.24185,-0.06947 -0.36065,-0.03708c-0.13631,0.09515 -0.19992,0.2478 -0.29138,0.36936c-0.09144,0.1216 -0.21087,0.21211 -0.25201,0.37796c0.30977,0.05094 0.59707,0.08871 0.9238,0.13506zM270.15741,178.70729c0.53093,-0.06729 0.97156,-0.12933 1.41218,-0.19131c0.03393,-0.00924 0.09033,-0.00523 0.11333,-0.05018c0.14842,-0.17576 0.34173,-0.32508 0.38951,-0.58941c-0.25942,-0.00669 -0.5019,-0.01796 -0.73891,-0.01141c-0.31933,0.33831 -0.70527,0.57875 -1.17617,0.84235zM268.09983,184.1783c0.16795,0.12826 0.34856,0.11771 0.50616,0.15213c0.18004,0.04764 0.34369,0.04172 0.50848,-0.08051c0.22723,-0.15854 0.45449,-0.31712 0.73695,-0.3554c-0.0043,-0.13418 -0.0431,-0.20092 -0.14494,-0.17319c-0.25999,0.05151 -0.53699,0.10758 -0.79036,0.06061c-0.36613,-0.05494 -0.57703,0.15715 -0.81633,0.39635zM267.93247,182.30995c-0.35948,-0.15342 -0.64018,-0.28961 -0.91537,-0.40799c-0.11877,0.03235 -0.17029,0.10436 -0.22722,0.15854c-0.05149,0.07202 -0.14235,0.13542 -0.13809,0.26958c0.19587,0.15936 0.42013,0.29155 0.65595,0.40134c0.2042,-0.11362 0.386,-0.24047 0.62476,-0.4215zM267.95845,185.33811c0.20538,-0.22993 0.38229,-0.43279 0.57618,-0.64024c-0.25885,-0.06481 -0.50074,-0.13428 -0.74259,-0.20374c-0.18241,0.185 -0.3587,0.32969 -0.44586,0.58542c0.20186,0.11901 0.40436,0.17986 0.61229,0.25858zM274.56708,180.56084c-0.16734,-0.18642 -0.40436,-0.17986 -0.60683,-0.24072c-0.06182,-0.02183 -0.14121,0.01911 -0.1812,0.06869c-0.13694,0.15329 -0.26235,0.2841 -0.38234,0.43275c-0.01697,0.00462 -0.00603,0.04034 0.00487,0.07602c0.27581,0.06025 0.56312,0.0979 0.83894,0.15815c0.14237,-0.13543 0.23445,-0.31516 0.3265,-0.49492zM274.87665,183.43448c0.1648,-0.12224 0.31266,-0.23981 0.37139,-0.46846c-0.19644,-0.10114 -0.40378,-0.23801 -0.63473,-0.27179c-0.10241,0.08588 -0.21572,0.1361 -0.29568,0.23519c-0.08543,0.08123 -0.22666,0.10037 -0.2284,0.27486c0.2643,0.08269 0.52858,0.16534 0.78746,0.23019zM268.19618,185.81458c-0.13087,0.11298 -0.16658,0.29669 -0.21923,0.48502c0.24732,0.08733 0.4547,0.22414 0.71411,0.23086c0.09208,-0.17976 0.25141,-0.3198 0.32709,-0.55308c-0.27581,-0.06025 -0.54618,-0.10262 -0.82198,-0.16279zM271.32841,186.79813c-0.31092,0.06535 -0.61696,0.20673 -0.93883,0.23637c-0.26548,0.03364 -0.36295,0.19555 -0.43319,0.44666c0.22489,0.07406 0.42249,0.05892 0.6425,0.05697c0.20049,-0.30593 0.49562,-0.48302 0.72949,-0.74003zM270.08915,177.64327c0.03881,0.06677 0.08971,0.05288 0.14062,0.03904c0.22605,-0.04224 0.46365,-0.10694 0.69519,-0.13134c0.34428,-0.01647 0.45936,-0.24112 0.57502,-0.52396c-0.12976,-0.00334 -0.22547,-0.01589 -0.3158,-0.01063c-0.22002,0.00195 -0.41213,0.03493 -0.54967,0.24636c-0.09145,0.12159 -0.23332,0.19887 -0.35813,0.27158c-0.07334,0.00063 -0.1691,-0.01193 -0.18725,0.10898zM267.07186,179.25776c0.09516,0.07074 0.17945,0.10579 0.24673,0.14545c0.19037,0.14148 0.35951,0.15343 0.55221,0.06227c0.15877,-0.08188 0.35093,-0.11489 0.51515,-0.17896c0.05092,-0.01385 0.10727,-0.00988 0.08603,-0.13945c-0.26489,-0.02455 -0.54073,-0.08473 -0.81048,-0.18527c-0.06182,-0.02183 -0.14665,0.0013 -0.21454,0.01977c-0.12481,0.07266 -0.23273,0.1407 -0.37508,0.27616zM267.66154,184.00763c0.14785,-0.11759 0.3181,-0.22196 0.43263,-0.38852c-0.2413,-0.12758 -0.4541,-0.2823 -0.71293,-0.34714c-0.13693,0.15331 -0.29024,0.25303 -0.332,0.47708c0.19645,0.10117 0.38135,0.22483 0.61231,0.25855zM273.79659,182.00796c0.2413,0.12758 0.47771,0.17918 0.70317,0.19508c0.13694,-0.1533 0.26232,-0.28413 0.36592,-0.48634c-0.14554,-0.11504 -0.30861,-0.16728 -0.48316,-0.19706c-0.18783,0.16715 -0.38114,0.31649 -0.58596,0.48823zM266.39484,182.63203c-0.08604,0.13944 -0.15449,0.21607 -0.19502,0.32379c-0.03452,0.06741 -0.05209,0.13017 -0.06964,0.19298c0.13944,0.15534 0.30742,0.2836 0.5099,0.34446c0.14237,-0.13543 0.28474,-0.27088 0.34892,-0.48173c-0.20186,-0.11901 -0.36984,-0.24726 -0.59413,-0.37949zM268.36192,178.30704c-0.26373,-0.14083 -0.44314,-0.24661 -0.66201,-0.36101c-0.07334,0.00061 -0.18664,0.0508 -0.2721,0.13209c-0.09087,0.06342 -0.2206,0.06008 -0.27269,0.19028c0.10009,0.14674 0.21768,0.2307 0.36379,0.28759c0.26607,-0.09181 0.52064,-0.16111 0.84304,-0.24892zM274.48964,179.28663c-0.05755,0.11238 -0.1151,0.22471 -0.17266,0.337c-0.05754,0.11238 -0.09807,0.22005 -0.15564,0.33238c0.22487,0.0741 0.39889,0.16203 0.59646,0.14689c0.08543,-0.08125 0.0866,-0.19757 0.11023,-0.30064c0.02358,-0.10308 0.09808,-0.22008 0.04291,-0.34035c-0.15159,-0.07472 -0.26918,-0.15868 -0.42135,-0.17524zM266.96481,184.85476c0.12598,-0.18899 0.30238,-0.33369 0.37255,-0.58485c-0.17399,-0.08791 -0.34253,-0.15802 -0.51652,-0.24595c-0.126,0.18898 -0.24597,0.33763 -0.26526,0.57489c0.12308,0.1018 0.21222,0.21289 0.40923,0.25587zM272.24722,178.44745c0.33822,0.02391 0.63703,0.03916 0.93583,0.05443c0.08,-0.09911 0.16544,-0.18035 0.16113,-0.31453c-0.24676,-0.14546 -0.51161,-0.16999 -0.78196,-0.21232c-0.07999,0.09913 -0.15996,0.19822 -0.2175,0.31054c-0.06244,0.03632 -0.06846,0.07663 -0.09753,0.16186zM266.8751,181.43799c0.15388,-0.15794 0.35755,-0.2134 0.44959,-0.39314c-0.22977,-0.15007 -0.43711,-0.28692 -0.68449,-0.37425c-0.08055,0.15731 -0.25025,0.20348 -0.29745,0.40967c0.13946,0.15532 0.32498,0.22083 0.5323,0.35771zM275.44483,184.1496c-0.14006,-0.09719 -0.29161,-0.17187 -0.44924,-0.20629c-0.17086,0.16256 -0.3472,0.30721 -0.55199,0.479c0.2194,0.05622 0.38796,0.12633 0.60134,0.22289c0.17088,-0.16255 0.33025,-0.30262 0.39988,-0.49559zM266.72582,179.44868c-0.19875,0.13146 -0.36904,0.23586 -0.45019,0.45129c0.12855,0.11964 0.23462,0.22609 0.39226,0.2605c0.18179,-0.12684 0.36899,-0.23583 0.57929,-0.38978c-0.16795,-0.12826 -0.33044,-0.23866 -0.52139,-0.32198zM274.90958,182.40083c0.24186,0.06945 0.4038,0.23802 0.60139,0.22287c0.13694,-0.1533 0.19504,-0.32379 0.23073,-0.50752c-0.16249,-0.11039 -0.30801,-0.22544 -0.51105,-0.22816c-0.09753,0.16189 -0.20049,0.30596 -0.32105,0.51278zM267.58959,186.11517c0.08056,-0.15729 0.17202,-0.27884 0.19075,-0.45797c-0.22489,-0.07406 -0.40376,-0.23803 -0.64624,-0.24932c-0.08604,0.13944 -0.12114,0.26501 -0.08893,0.43024c0.17945,0.10579 0.3704,0.18912 0.5444,0.27701zM272.30145,177.54336c0.103,-0.14405 0.14353,-0.25172 0.15626,-0.39056c-0.17401,-0.08794 -0.37646,-0.14882 -0.58007,-0.09332c-0.06905,0.13481 -0.13809,0.26958 -0.22412,0.40902c0.23037,0.09193 0.43946,0.05431 0.64797,0.07485zM270.32652,188.26976c0.05209,-0.13016 0.09266,-0.23791 0.07685,-0.34958c-0.20243,-0.06087 -0.39402,-0.086 -0.59161,-0.07083c-0.07451,0.11694 -0.11508,0.22466 -0.1108,0.35882c0.20795,0.07871 0.41704,0.04108 0.62554,0.06161zM266.01334,183.54794c-0.17086,0.16252 -0.14413,0.30991 -0.07801,0.46592c0.03821,0.12491 0.11041,0.24061 0.26256,0.25715c0.103,-0.14405 0.18902,-0.28347 0.2247,-0.46718c-0.14006,-0.09719 -0.27465,-0.17654 -0.40923,-0.25587zM274.39762,186.19413c0.13633,-0.09514 0.27208,-0.13211 0.31868,-0.28014c-0.39773,-0.27833 -0.69287,-0.1013 -0.99457,0.17422c0.23093,0.03378 0.44496,0.07217 0.67587,0.10592zM265.89567,181.78205c0.11701,0.14214 0.23465,0.22608 0.42015,0.29156c0.04658,-0.14804 0.21082,-0.21213 0.23501,-0.37337c-0.04973,-0.10247 -0.12852,-0.11964 -0.20127,-0.17717c-0.08969,-0.05287 -0.15098,-0.13287 -0.26977,-0.10054c-0.07999,0.09913 -0.15996,0.19827 -0.18413,0.3595zM271.36191,182.34243c-0.04174,0.224 0.02495,0.32187 0.18312,0.29809c0.22605,-0.04221 0.44123,-0.12016 0.6394,-0.19349c0.06788,-0.01846 0.14726,-0.05947 0.14844,-0.17575c-0.33276,-0.00603 -0.65459,0.02362 -0.97099,0.07113zM267.86698,187.1416c-0.09089,0.06341 -0.11997,0.14866 -0.10419,0.26038c0.20736,0.13687 0.40866,0.31406 0.67901,0.35643c0.03628,-0.24188 -0.0468,-0.39329 -0.25473,-0.47196c-0.08971,-0.05289 -0.17345,-0.14612 -0.32009,-0.14484zM272.26352,184.68748c0.07644,0.24981 0.12684,0.29411 0.27951,0.25253c0.23211,-0.08256 0.4812,-0.16972 0.69146,-0.32367c-0.34916,-0.05957 -0.67589,-0.1059 -0.97099,0.07112zM271.36339,187.81332c-0.14118,0.01912 -0.26003,0.05151 -0.38424,0.06599c-0.24306,0.04683 -0.24303,0.04686 -0.2296,0.3912c0.12976,0.00334 0.28187,0.01991 0.35519,0.01924c0.0921,-0.17976 0.17808,-0.31915 0.25863,-0.47642zM275.9705,181.24195c-0.11762,-0.084 -0.20074,-0.23535 -0.38742,-0.18451c-0.05209,0.13016 -0.08172,0.27359 -0.14531,0.42623c0.14007,0.0972 0.26857,0.21687 0.42072,0.23341c0.04657,-0.14806 0.11568,-0.28286 0.11197,-0.47517zM269.68956,187.08984c-0.24791,-0.02909 -0.5013,-0.07615 -0.7492,-0.10526c-0.07388,0.05879 -0.12541,0.13079 -0.05873,0.22861c0.20186,0.11901 0.42681,0.19312 0.66379,0.18654c0.08,-0.09911 0.12597,-0.18897 0.14412,-0.30994zM275.39897,184.7808c0.05519,0.12029 0.15038,0.19105 0.27406,0.23468c0.05697,-0.05419 0.1139,-0.10837 0.17086,-0.16255c0.06848,-0.0766 0.14239,-0.13545 0.14353,-0.25176c-0.03276,-0.10708 -0.09396,-0.18706 -0.20071,-0.23532c-0.12543,0.13086 -0.26234,0.28413 -0.38777,0.41491zM274.66245,181.17286c0.14007,0.0972 0.2807,0.13622 0.43283,0.15279c0.05813,-0.17048 0.1217,-0.32313 0.16832,-0.47114c-0.09465,-0.12889 -0.2183,-0.17255 -0.32559,-0.16266c-0.09751,0.16187 -0.19504,0.32379 -0.27564,0.48105zM275.09141,185.63783c0.08543,-0.08125 0.17086,-0.16252 0.25087,-0.26165c0.01149,-0.02244 0.00057,-0.05818 0.00662,-0.09852c-0.07276,-0.05753 -0.13943,-0.15533 -0.29161,-0.17189c-0.11939,0.09055 -0.27813,0.17246 -0.37567,0.33434c0.12855,0.11962 0.25221,0.16326 0.40982,0.19769zM273.92153,186.98123c0.19212,-0.033 0.28617,0.15405 0.45585,0.10782c0.11387,-0.10834 0.26118,-0.16775 0.35322,-0.34752c-0.12308,-0.1018 -0.24074,-0.18579 -0.37702,-0.09061c-0.13633,0.09514 -0.2945,0.11888 -0.43203,0.33032zM268.89651,187.98252c0.14062,0.03903 0.28673,0.09588 0.41036,0.13953c0.02242,0.01324 0.05093,-0.01388 0.08485,-0.02313c0.00663,-0.09847 0.06419,-0.21078 -0.03592,-0.35753c-0.16306,-0.05222 -0.3431,-0.09989 -0.52863,-0.16535c-0.02964,0.14339 -0.01383,0.2551 0.06925,0.40648zM275.38102,180.39717c0.06906,-0.13481 0.15507,-0.27423 0.2126,-0.38655c-0.10007,-0.14674 -0.21769,-0.23073 -0.32985,-0.29681c-0.11335,0.05021 -0.09204,0.17973 -0.12113,0.26499c-0.02905,0.08527 -0.07509,0.1751 -0.01986,0.29542c0.0558,0.06215 0.12855,0.11965 0.25827,0.123zM266.00237,180.14836c-0.09144,0.1216 -0.15449,0.21609 -0.21749,0.31056c-0.02849,0.02708 -0.02908,0.08526 -0.04058,0.10774c0.03821,0.12491 0.13341,0.19568 0.2571,0.23929c0.10843,-0.1262 0.22235,-0.23458 0.30295,-0.39179c-0.08369,-0.0932 -0.17889,-0.16396 -0.30195,-0.26574zM271.52782,188.29045c0.24246,0.01132 0.4849,0.02259 0.7061,-0.09565c-0.10007,-0.14673 -0.16075,-0.28491 -0.32379,-0.33715c-0.26119,0.16776 -0.26119,0.16779 -0.38231,0.43276zM265.75092,182.15006c-0.22959,0.39121 -0.22412,0.40902 0.04395,0.68403c0.08604,-0.13944 0.14959,-0.29207 0.23566,-0.43149c-0.05519,-0.12029 -0.15039,-0.191 -0.27951,-0.25254zM275.70777,183.8074c0.10845,-0.1262 0.18295,-0.24319 0.20717,-0.40444c-0.0279,-0.03108 -0.07822,-0.07538 -0.12856,-0.11967c-0.04487,-0.02644 -0.10671,-0.04828 -0.15154,-0.0747c-0.10842,0.12622 -0.23932,0.23922 -0.28049,0.40508c0.08369,0.09319 0.21281,0.15471 0.35345,0.19371zM266.47222,178.86039c0.05033,0.04427 0.12312,0.10179 0.17947,0.1058c0.20306,0.0027 0.36176,-0.07921 0.51025,-0.255c-0.10064,-0.08861 -0.17827,-0.22209 -0.2965,-0.24791c-0.14785,0.11759 -0.32906,0.18629 -0.39322,0.3971zM273.48894,177.81922c0.01151,-0.02246 0.02301,-0.04494 0.04602,-0.08986c-0.20679,-0.19501 -0.44807,-0.32264 -0.68933,-0.45022c-0.1024,0.08588 -0.13144,0.17114 -0.10474,0.31851c0.24186,0.06945 0.48916,0.15671 0.74804,0.22157zM272.63095,183.48539c-0.28731,-0.03773 -0.5631,-0.09793 -0.84611,-0.00149c-0.01699,0.00462 -0.02903,0.08524 -0.01813,0.12093c0.02733,0.08921 0.11704,0.14211 0.20187,0.11897c0.23698,-0.00653 0.44668,-0.10233 0.66239,-0.23839zM276.12148,183.05668c0.07455,-0.11694 0.14902,-0.23391 0.17868,-0.37731c-0.03822,-0.12492 -0.09947,-0.2049 -0.24553,-0.26178c-0.06359,0.15268 -0.14416,0.30991 -0.19076,0.45793c0.06669,0.0978 0.13947,0.15531 0.25766,0.18113zM266.30964,184.93654c0.0595,0.25445 0.10804,0.47322 0.29237,0.65502c0.13631,-0.09514 0.166,-0.23853 0.17322,-0.39517c-0.14553,-0.11502 -0.2686,-0.21684 -0.46563,-0.25983zM267.69366,177.44511c0.15097,0.13289 0.17336,0.1461 0.22432,0.13226c0.17514,-0.02835 0.3006,-0.15919 0.40902,-0.28538c0.03998,-0.04954 0.02961,-0.14343 -0.08858,-0.16921c-0.11995,0.14867 -0.36244,0.13737 -0.54477,0.3224zM273.58859,178.56537c0.24732,0.08733 0.48316,0.19707 0.77709,0.13632c-0.19524,-0.21745 -0.43715,-0.28693 -0.64505,-0.36561c-0.07939,0.04094 -0.09692,0.10372 -0.13202,0.22931zM265.77844,181.09866c-0.07823,-0.07535 -0.13948,-0.15533 -0.21768,-0.23069c-0.12544,0.13084 -0.21145,0.27026 -0.10045,0.45268c0.03336,0.04891 0.0667,0.0978 0.14006,0.0972c0.09088,-0.06341 0.13147,-0.17115 0.17807,-0.31916zM272.79913,185.83693c0.04919,0.16061 0.10493,0.22274 0.23521,0.16791c0.11336,-0.0502 0.22666,-0.10042 0.33453,-0.16848c0.0454,-0.03172 0.08545,-0.08127 0.04662,-0.14804c-0.22001,0.00194 -0.40669,0.0528 -0.61637,0.14857zM271.06304,178.96327c-0.24248,-0.01131 -0.47401,0.01312 -0.67824,0.12671c-0.017,0.00463 -0.02903,0.08525 -0.02359,0.10308c0.0109,0.03566 0.07276,0.05755 0.10671,0.04827c0.21515,-0.07791 0.42975,-0.09771 0.59515,-0.27812zM270.2239,178.26389c0.15333,-0.09976 0.34002,-0.15062 0.49392,-0.30849c-0.24789,-0.02912 -0.44551,-0.01396 -0.53094,0.0673c-0.09088,0.06341 -0.06906,0.13481 0.03706,0.2412zM267.04308,186.61205c0.11647,0.20027 0.19293,0.45012 0.43479,0.51957c0.03743,-0.35816 -0.20442,-0.42761 -0.43479,-0.51957zM270.05506,185.52096c0.01091,0.03566 0.03339,0.04898 0.04428,0.08461c0.1642,-0.06408 0.33881,-0.03432 0.46423,-0.16512c-0.01577,-0.1117 -0.04916,-0.16061 -0.1504,-0.19103c-0.1024,0.08588 -0.22177,0.17639 -0.35812,0.27156zM271.68885,181.24811c-0.25396,0.01118 -0.45155,0.02634 -0.64974,0.09963c-0.03393,0.00924 -0.05695,0.05417 -0.04056,0.10771c0.00547,0.01787 0.03336,0.04891 0.05579,0.06213c0.24246,0.01132 0.44608,-0.04419 0.63449,-0.2695zM266.36145,179.21921c-0.0667,-0.0978 -0.11702,-0.14211 -0.15703,-0.09256c-0.1024,0.08588 -0.19933,0.18963 -0.29629,0.29335c-0.0515,0.07201 -0.03514,0.12555 0.04915,0.16059c0.17031,-0.10435 0.30665,-0.19952 0.40415,-0.3614zM276.18838,182.01387c0.07276,0.05753 0.12857,0.11966 0.20129,0.17719c0.02242,0.01324 0.05637,0.00397 0.11275,0.00798c-0.06552,-0.21413 -0.0747,-0.42427 -0.21359,-0.63781c-0.06359,0.15268 -0.10416,0.26038 -0.10045,0.45268zM268.86111,180.83897c-0.16423,0.06406 -0.31153,0.12353 -0.5097,0.19684c0.22435,0.13223 0.39342,0.14419 0.55766,0.08011c0.02359,-0.10308 0.0242,-0.16126 -0.04799,-0.27694zM271.00034,186.32679c-0.09697,0.10374 -0.2945,0.11887 -0.33626,0.34291c0.42365,-0.05742 0.50846,-0.08048 0.51513,-0.17898c-0.02733,-0.08921 -0.07763,-0.13354 -0.17887,-0.16395zM271.32716,180.18662c-0.32006,-0.14483 -0.52369,-0.08932 -0.75642,0.05136c0.28013,0.19436 0.47395,-0.01312 0.75642,-0.05136zM273.91471,186.53841c-0.29765,-0.13161 -0.48437,-0.08076 -0.67706,0.01041c-0.01697,0.00462 -0.02301,0.04494 -0.01209,0.08062c0.01636,0.05354 0.06126,0.07999 0.09518,0.07074c0.17515,-0.02833 0.33935,-0.09243 0.59392,-0.16176zM271.51708,187.11414c-0.13633,0.09514 -0.3006,0.15921 -0.36473,0.36997c0.18608,0.0073 0.33335,-0.05215 0.46364,-0.10694c0.01815,-0.12093 -0.02066,-0.18767 -0.0989,-0.26304zM274.95845,186.52477c0.1145,-0.16653 0.30118,-0.21737 0.31443,-0.41431c-0.25396,0.01118 -0.25396,0.01118 -0.43146,0.27216c0.0279,0.03108 0.05579,0.06213 0.11704,0.14212zM267.92866,186.6222c0.12738,0.23595 0.31835,0.31929 0.52081,0.38014c0.08543,-0.08125 0.06359,-0.15268 -0.00369,-0.1923c-0.16306,-0.0522 -0.33161,-0.12234 -0.51711,-0.18779zM276.01033,184.015c0.04973,0.10246 0.09402,0.18704 0.21221,0.21284c0.06301,-0.09448 0.12602,-0.18898 0.1102,-0.30063c-0.04427,-0.0846 -0.09462,-0.12889 -0.17343,-0.14611c-0.0739,0.05881 -0.10843,0.12622 -0.14901,0.23393zM269.25846,183.39875c0.15212,0.01658 0.26492,0.02454 0.3558,-0.0389c0.02849,-0.02708 0.03454,-0.06739 0.04058,-0.10772c-0.01636,-0.05354 -0.07215,-0.11569 -0.1176,-0.08399c-0.10184,0.02774 -0.22061,0.06008 -0.27875,0.23061zM276.02062,180.74493c0.00174,-0.17448 -0.12682,-0.29412 -0.20444,-0.42763c-0.15508,0.27424 -0.14411,0.30992 0.20444,0.42763zM269.93506,177.25993c0.27641,0.00204 0.27641,0.00205 0.32908,-0.1863c-0.11274,-0.00797 -0.24249,-0.01128 -0.32908,0.1863zM270.04982,184.36244c0.02905,-0.08527 0.01267,-0.13878 -0.02671,-0.14736c-0.16306,-0.0522 -0.20852,-0.02054 -0.31208,0.18168c0.13516,0.02119 0.23703,-0.00652 0.33885,-0.03428zM274.00831,187.32487c-0.11218,-0.06611 -0.21886,-0.11436 -0.3267,-0.04637c0.13832,0.27163 0.17766,0.28025 0.3267,0.04637zM270.41428,176.72345c-0.15159,-0.07472 -0.29277,-0.05562 -0.417,-0.04109c-0.06788,0.01847 -0.10242,0.08589 -0.00175,0.17449c0.12423,-0.01453 0.26547,-0.03363 0.41877,-0.13339zM275.69517,185.62815c-0.18062,0.01053 -0.24911,0.08716 -0.23934,0.2392c0,0 0.0279,0.03107 0.04487,0.02644c0.10728,-0.00992 0.14239,-0.1354 0.1945,-0.26563zM269.02827,182.1661c0.0667,0.0978 0.14554,0.11504 0.20792,0.0787c0.03393,-0.00924 0.05695,-0.05417 0.06301,-0.09448c0.00604,-0.04034 -0.04426,-0.08459 -0.07821,-0.07533c-0.05638,-0.00398 -0.12424,0.01449 -0.19273,0.09114zM276.4246,183.20623c-0.09697,0.10374 -0.12601,0.18897 -0.0144,0.31325c0.10842,-0.12622 0.12055,-0.20683 0.0144,-0.31325z" fill="#000000"/><path d="M262.98941,183.57892c0.15779,0.57566 0.31559,1.15139 0.49039,1.72243c0.19664,0.64245 0.46113,1.26638 0.80503,1.84936c0.11099,0.18244 0.24495,0.31993 0.37836,0.51556c-0.27154,0.07396 -0.50359,0.15654 -0.74663,0.20337c-1.44732,0.31687 -2.88428,0.72756 -4.33763,1.08476c-1.30063,0.31557 -2.57882,0.6444 -3.87399,0.97783c-0.88789,0.22252 -1.75884,0.44036 -2.6467,0.66286c-0.837,0.20864 -1.64605,0.44833 -2.48303,0.657c-0.0679,0.01848 -0.13578,0.03697 -0.20911,0.03763c-0.26314,-0.19898 -0.4299,-0.44358 -0.59064,-0.72842c-0.24929,-0.45411 -0.47009,-0.93527 -0.60604,-1.43955c-0.04919,-0.16061 -0.1153,-0.31658 -0.07411,-0.48246c0.08311,0.15137 0.08683,0.34366 0.23173,0.51687c0.23328,-0.19883 0.53814,-0.22391 0.80423,-0.31572c0.01697,-0.00462 0.03393,-0.00923 0.02848,-0.02708c0.41448,-0.26753 0.90663,-0.40156 1.35449,-0.62023c0.15876,-0.08189 0.30116,-0.21737 0.48176,-0.2279c0.35031,-0.05672 0.62357,-0.30519 0.97394,-0.36196c0.01697,-0.00462 0.04545,-0.03172 0.07942,-0.04095c0.30601,-0.14134 0.58964,-0.2959 0.90659,-0.40157c0.37332,-0.10169 0.66906,-0.3369 1.05329,-0.40291c0.18783,-0.16715 0.41937,-0.19152 0.65147,-0.27408c0.03393,-0.00924 0.05092,-0.0139 0.08484,-0.02311c0.29571,-0.2352 0.67391,-0.2609 0.99149,-0.42472c0.31753,-0.16381 0.68483,-0.22519 1.00784,-0.37119c0.37395,-0.15984 0.71446,-0.36862 1.13815,-0.42598c0.03393,-0.00924 0.08487,-0.02311 0.11334,-0.0502c0.15388,-0.15794 0.37393,-0.15983 0.57211,-0.23313c0.10184,-0.02774 0.22603,-0.04221 0.31695,-0.10566c0.13088,-0.11295 0.2721,-0.13211 0.42485,-0.1737c0.08487,-0.02311 0.17519,-0.02837 0.23211,-0.08257c0.18783,-0.16715 0.43632,-0.19618 0.65691,-0.25626c0.08487,-0.02311 0.17514,-0.02839 0.23212,-0.08257c0.15937,-0.14003 0.35149,-0.17307 0.53817,-0.2239c0.30548,-0.08322 0.57268,-0.29132 0.88357,-0.35665c0.05637,0.00397 0.09089,-0.06338 0.13633,-0.09514z" fill="#87d7dc"/><path d="M262.98939,183.57893c-0.04545,0.0317 -0.07996,0.09913 -0.13089,0.11298c-0.31092,0.06538 -0.58361,0.25561 -0.88359,0.35665c-0.18667,0.05081 -0.37882,0.08384 -0.53817,0.22389c-0.05697,0.05419 -0.14728,0.05945 -0.23209,0.08258c-0.2206,0.06011 -0.46365,0.10692 -0.65696,0.25621c-0.05695,0.05417 -0.15275,0.04162 -0.2321,0.08259c-0.15272,0.0416 -0.2885,0.07859 -0.42485,0.1737c-0.09088,0.06341 -0.21519,0.07792 -0.31698,0.10565c-0.19816,0.07332 -0.4182,0.07526 -0.57209,0.23315c-0.02849,0.02708 -0.07939,0.04096 -0.11332,0.05019c-0.40671,0.05279 -0.76426,0.26615 -1.13815,0.42601c-0.34001,0.15062 -0.70726,0.21195 -1.00788,0.37114c-0.31751,0.16383 -0.69577,0.18951 -0.99146,0.42473c-0.01152,0.02244 -0.05093,0.01386 -0.08487,0.02311c-0.2206,0.06011 -0.46365,0.10696 -0.6515,0.27411c-0.38974,0.04814 -0.68543,0.28336 -1.05329,0.40286c-0.32242,0.08783 -0.60058,0.26024 -0.90662,0.40157c-0.03393,0.00924 -0.04545,0.03176 -0.07939,0.04098c-0.35031,0.05672 -0.62357,0.30518 -0.97393,0.36194c-0.19212,0.033 -0.31756,0.16381 -0.48178,0.22789c-0.45332,0.2008 -0.93999,0.35269 -1.35446,0.62022c-0.01697,0.00462 -0.02848,0.02711 -0.02848,0.02711c-0.26607,0.09182 -0.57097,0.11685 -0.80422,0.31573c-0.13946,-0.15534 -0.1262,-0.3523 -0.23171,-0.51687c-0.04369,-0.14275 -0.08736,-0.28551 -0.02376,-0.4382c0.10184,-0.02774 0.22605,-0.04224 0.31693,-0.10566c0.31811,-0.22198 0.67999,-0.30116 1.02545,-0.43395c0.34542,-0.13275 0.66355,-0.35474 1.05327,-0.40288c0.18783,-0.16715 0.41936,-0.19158 0.65149,-0.27412c0.03393,-0.00924 0.08484,-0.02313 0.11333,-0.05021c0.12543,-0.13084 0.30602,-0.14133 0.45333,-0.2008c0.08487,-0.02311 0.16969,-0.04625 0.23211,-0.08256c0.34604,-0.19093 0.71446,-0.36863 1.10479,-0.47493c0.05092,-0.01385 0.12426,-0.01449 0.14726,-0.05944c0.14237,-0.13541 0.31751,-0.16383 0.48723,-0.21005c0.19212,-0.033 0.3236,-0.20417 0.5327,-0.24175c0.27699,-0.05612 0.50422,-0.21467 0.76481,-0.32432c0.36244,-0.13738 0.68599,-0.3415 1.0763,-0.44779c0.0679,-0.01848 0.1582,-0.02375 0.19819,-0.07333c0.11394,-0.10833 0.27205,-0.13212 0.41934,-0.19155c0.13576,-0.03696 0.26604,-0.09178 0.37395,-0.15982c0.19875,-0.13146 0.40845,-0.22725 0.64602,-0.292c0.3509,-0.11491 0.66904,-0.33691 1.05872,-0.38505c0.03393,-0.00924 0.0794,-0.04092 0.11335,-0.05018c0.34001,-0.15062 0.67448,-0.31907 1.0254,-0.43392c0.37332,-0.10169 0.703,-0.34613 1.08726,-0.41211c0.05092,-0.01385 0.09087,-0.06342 0.13633,-0.09514c0.20967,-0.09577 0.4418,-0.17833 0.67878,-0.18487c0.04427,0.08462 0.06615,0.15596 0.10493,0.22274c0.02556,0.26372 0.05716,0.48709 0.11119,0.72372z" fill="#b0eef2"/><path d="M273.61822,187.97248c-0.30599,0.14133 -0.55514,0.2285 -0.83154,0.22644c-0.17947,-0.10581 -0.29045,-0.28821 -0.4184,-0.466c-0.58889,-0.90292 -1.16078,-1.81044 -1.60789,-2.79065c-0.33668,-0.73964 -0.67886,-1.49711 -0.93614,-2.27767c-0.06554,-0.21414 -0.11959,-0.45077 -0.236,-0.65106c-0.04427,-0.08462 -0.07704,-0.1917 -0.1098,-0.29873c-0.0632,-0.44679 -0.22823,-0.86581 -0.34237,-1.29875c-0.16875,-0.61137 -0.26963,-1.24125 -0.33651,-1.88032c-0.02498,-0.32184 -0.06691,-0.63911 -0.11433,-0.97419c-0.04249,-0.25906 -0.00624,-0.50093 0.01306,-0.7382c0.26726,-0.2081 0.38054,-0.2583 0.79873,-0.33355c0.10321,0.39718 0.11607,0.79969 0.18531,1.20613c0.06378,0.3886 0.13303,0.79507 0.21379,1.17908c0.0862,0.40182 0.19487,0.81693 0.29806,1.21412c0.08074,0.38397 0.26882,0.75808 0.29867,1.15599c0.20501,0.36952 0.27424,0.77595 0.41138,1.16394c0.13167,0.37014 0.28579,0.75347 0.43443,1.11901c0.15411,0.38337 0.32517,0.76207 0.50168,1.15868c0.1656,0.3609 0.31968,0.74424 0.50231,1.10051c0.18805,0.3741 0.40454,0.72111 0.60957,1.09064c0.21049,0.38733 0.39304,0.74359 0.66593,1.09461z" fill="#d1eaeb"/><path d="M262.86665,182.87767c-0.0388,-0.06677 -0.06068,-0.13815 -0.10495,-0.22273c-0.237,0.00656 -0.45758,0.06664 -0.67879,0.18487c-0.04545,0.03169 -0.08545,0.08127 -0.13633,0.09514c-0.38424,0.06599 -0.71939,0.29262 -1.08725,0.41212c-0.35636,0.09706 -0.68543,0.28334 -1.02541,0.43391c-0.03393,0.00924 -0.0794,0.04095 -0.11332,0.05019c-0.38974,0.04813 -0.68543,0.28333 -1.05876,0.38503c-0.2206,0.06011 -0.44724,0.16051 -0.646,0.29199c-0.12479,0.07264 -0.25511,0.12748 -0.37393,0.15983c-0.15272,0.0416 -0.29394,0.06073 -0.41936,0.19156c-0.03996,0.04954 -0.13032,0.0548 -0.19819,0.07329c-0.37332,0.10169 -0.71387,0.31047 -1.0763,0.44782c-0.2606,0.10963 -0.48782,0.26823 -0.76481,0.3243c-0.19212,0.033 -0.32358,0.20415 -0.5327,0.24175c-0.17517,0.02837 -0.36728,0.06136 -0.48726,0.21001c-0.04545,0.03169 -0.09635,0.04558 -0.14725,0.05945c-0.3903,0.10628 -0.74178,0.27933 -1.10479,0.47493c-0.07939,0.04094 -0.16968,0.04623 -0.23209,0.08252c-0.15272,0.0416 -0.32789,0.07002 -0.4533,0.20081c-0.02849,0.02708 -0.07937,0.04096 -0.11332,0.05019c-0.2206,0.06011 -0.46365,0.10695 -0.6515,0.27411c-0.38972,0.04815 -0.70786,0.27013 -1.05328,0.4029c-0.34542,0.13275 -0.72421,0.21658 -1.0254,0.43392c-0.09089,0.06341 -0.21517,0.07791 -0.31697,0.10565c-0.06613,-0.156 0.00292,-0.29077 -0.01836,-0.42032c0.68541,-0.28335 1.33146,-0.57533 1.98292,-0.8494c0.71391,-0.31042 1.4163,-0.59839 2.13562,-0.89102c0.66847,-0.27873 1.33143,-0.57534 1.99443,-0.8719c0.82724,-0.36063 1.63203,-0.73452 2.44226,-1.09054c0.61756,-0.26487 1.23511,-0.52969 1.84717,-0.81244c0.95751,-0.41548 1.95389,-0.76418 2.90045,-1.21534c0.13029,-0.05481 0.24966,-0.14534 0.41877,-0.13339c0.04919,0.16061 0.0474,0.33508 0.06262,0.50497c-0.00662,0.09848 0.07647,0.24981 0.03532,0.41573z" fill="#87d7dc"/><path d="M248.78028,189.11174c0.14864,0.36551 0.22395,0.73167 0.38956,1.09254c0.19897,0.40982 0.41492,0.81496 0.73263,1.19243c-0.98425,0.2681 -1.95152,0.53155 -2.90183,0.79039c-0.24676,-0.14544 -0.38562,-0.35897 -0.53602,-0.55001c-0.27835,-0.36886 -0.43789,-0.77003 -0.60291,-1.18909c-0.00547,-0.01787 0.00058,-0.05815 0.01208,-0.08064c0.15095,0.13287 0.27031,0.04235 0.39516,-0.03031c0.31209,-0.18169 0.62962,-0.3455 0.97449,-0.42009c0.0679,-0.01848 0.13575,-0.03698 0.19816,-0.07332c0.28967,-0.19491 0.63449,-0.26949 0.94056,-0.41086c0.17576,-0.0865 0.30053,-0.1592 0.39808,-0.32112z" fill="#61afb4"/><path d="M265.04173,181.99525c0.08935,0.65232 0.29747,1.27227 0.43774,1.91073c0.07041,0.29013 0.19176,0.56642 0.3131,0.84274c0.19779,0.52614 0.33316,1.08855 0.59886,1.59618c0.09947,0.2049 0.19894,0.40982 0.30992,0.59225c0.07216,0.11569 0.1274,0.23595 0.16563,0.3609c-0.0454,0.03172 -0.07393,0.0588 -0.1079,0.06804c-0.13575,0.03695 -0.27149,0.07396 -0.40724,0.11095c-0.07823,-0.07534 -0.13399,-0.13753 -0.19526,-0.21748c-0.40024,-0.58694 -0.806,-1.19178 -1.01902,-1.88779c-0.2027,-0.60213 -0.4108,-1.22204 -0.54561,-1.84269c-0.11354,-0.4911 -0.24404,-0.97754 -0.21637,-1.48772c0.06127,0.07996 0.04311,0.20092 0.16679,0.24455c0.19758,-0.01515 0.43459,-0.02171 0.49933,-0.29067z" fill="#61aeb3"/><path d="M264.03584,182.73322c0.12678,0.29413 0.11233,0.60736 0.18824,0.91536c0.17968,0.64707 0.3593,1.29414 0.58988,1.92731c0.19232,0.50826 0.44712,0.98022 0.73032,1.42508c0.07216,0.11569 0.14435,0.23132 0.21652,0.347c-0.23759,0.06471 -0.44122,0.12023 -0.66182,0.18028c-0.26918,-0.15868 -0.43594,-0.40328 -0.57427,-0.67492c-0.17168,-0.32055 -0.34874,-0.65899 -0.47496,-1.01127c-0.31362,-0.78456 -0.52004,-1.57902 -0.74887,-2.38668c-0.0437,-0.14274 -0.0874,-0.28554 -0.04077,-0.43356c0.08487,-0.02311 0.17516,-0.0284 0.23211,-0.08257c0.14786,-0.11761 0.35697,-0.15525 0.54359,-0.20607z" fill="#61aeb3"/><path d="M248.78028,189.11172c-0.08604,0.13944 -0.20541,0.22992 -0.36963,0.29399c-0.30602,0.14133 -0.65091,0.21594 -0.94055,0.41085c-0.06242,0.03633 -0.1303,0.05484 -0.1982,0.07334c-0.35637,0.0971 -0.65692,0.25625 -0.97447,0.42007c-0.10788,0.06805 -0.2442,0.1632 -0.39518,0.03032c-0.09889,-0.26306 -0.14145,-0.52213 -0.1276,-0.77724c0.2212,-0.11828 0.43693,-0.25433 0.68543,-0.28336c0.03393,-0.00924 0.0794,-0.04095 0.11334,-0.05019c0.32299,-0.14597 0.663,-0.29658 0.99146,-0.42473c0.14727,-0.05945 0.28302,-0.0964 0.42485,-0.1737c0.17028,-0.10434 0.36847,-0.17768 0.58244,-0.13931c0.04427,0.0846 0.06614,0.15597 0.10493,0.22274c0.03821,0.12491 0.06497,0.27232 0.10319,0.3972z" fill="#87d7dc"/><path d="M273.43102,180.21293c-0.17203,0.27887 -0.4162,0.44203 -0.66592,0.58739c-0.06242,0.03634 -0.16425,0.06406 -0.23759,0.06471c-0.5358,-0.00871 -1.04981,0.05392 -1.5583,0.13443c-0.01697,0.00462 -0.05636,-0.00397 -0.07882,-0.01719c-0.07276,-0.05753 -0.10009,-0.14674 -0.07649,-0.24983c0.03393,-0.00924 0.06242,-0.03637 0.09636,-0.04559c0.41272,-0.09304 0.8091,-0.23968 1.16115,-0.47092c0.18726,-0.109 0.37395,-0.15985 0.60488,-0.12608c0.25337,0.047 0.49035,0.04042 0.7547,0.12312z" fill="#cce5e6"/><path d="M270.54092,179.84016c-0.08369,-0.0932 -0.08854,-0.16919 -0.05403,-0.23659c0.80363,-0.25753 0.80361,-0.25756 1.42896,-0.73719c0.29943,-0.04288 0.6261,0.00345 0.92492,0.01876c0.07216,0.11569 -0.02419,0.16125 -0.06416,0.21079c-0.14842,0.17576 -0.2799,0.3469 -0.45626,0.49157c-0.11941,0.09054 -0.23274,0.1407 -0.37935,0.14199c-0.45706,0.00848 -0.92552,0.03943 -1.4001,0.11066z" fill="#cce5e6"/><path d="M248.67163,188.69667c-0.03881,-0.06677 -0.06068,-0.13818 -0.10494,-0.22274c-0.21398,-0.03839 -0.41213,0.03493 -0.58244,0.13932c-0.1418,0.07731 -0.27757,0.11428 -0.42486,0.1737c-0.32847,0.12813 -0.66846,0.27873 -0.99146,0.42471c-0.03393,0.00924 -0.0794,0.04097 -0.11334,0.05019c-0.26001,0.05149 -0.45876,0.18293 -0.68541,0.28332c-0.00977,-0.152 -0.01404,-0.28619 0.04409,-0.45668c0.45876,-0.18295 0.92362,-0.40627 1.40479,-0.57599c0.45876,-0.18295 0.89569,-0.43727 1.40478,-0.57594c0.07039,0.29014 0.06809,0.52277 0.0488,0.76003z" fill="#60adb2"/><path d="M270.20451,184.68764c0.03882,0.06675 0.07216,0.11571 0.11099,0.18244c-0.02301,0.04494 -0.03454,0.06737 -0.04603,0.08983c-0.26663,0.14995 -0.49991,0.34884 -0.72773,0.56552c-0.1024,0.08589 -0.19879,0.13148 -0.33393,0.1103c-0.26487,-0.02452 -0.53581,-0.0087 -0.81046,-0.18525c0.15508,-0.27421 0.38834,-0.47309 0.62711,-0.65413c0.0454,-0.03172 0.13577,-0.03694 0.20908,-0.03761c0.3218,-0.02969 0.64374,-0.05933 0.97105,-0.07114z" fill="#cce5e6"/><path d="M274.57431,183.76811c-0.14783,0.1176 -0.23332,0.19885 -0.3357,0.28476c-0.19331,0.14931 -0.39147,0.22262 -0.66182,0.18028c-0.4564,-0.04971 -0.91346,-0.04116 -1.33769,0.07436c-0.13576,0.03695 -0.15818,0.02373 -0.20679,-0.19502c0.05092,-0.01387 0.09635,-0.04558 0.1473,-0.05945c0.42971,-0.0977 0.82057,-0.26216 1.19508,-0.48017c0.09637,-0.04557 0.17575,-0.08654 0.27152,-0.07398c0.29826,0.0734 0.58555,0.1112 0.92807,0.26925z" fill="#cae2e3"/><path d="M271.16841,181.95051c0.01151,-0.02246 0.04002,-0.04961 0.05697,-0.05419c0.40119,-0.07062 0.75269,-0.24367 1.0818,-0.42997c0.31751,-0.16383 0.63997,-0.25164 1.017,-0.16097c0.18004,0.04764 0.37216,0.01461 0.54615,0.10259c-0.26895,0.3826 -0.65442,0.56489 -1.06597,0.54165c-0.5019,-0.01797 -0.99223,-0.0584 -1.47892,0.09348c-0.05637,-0.00397 -0.12424,0.01449 -0.15703,-0.09255z" fill="#c9e1e2"/><path d="M274.17504,182.5236c-0.2169,0.25241 -0.43261,0.3885 -0.66531,0.5292c-0.07939,0.04094 -0.16425,0.06404 -0.24305,0.04686c-0.52432,-0.0312 -1.05467,-0.02207 -1.57409,0.02274c-0.03393,0.00924 -0.09029,0.00527 -0.10064,-0.08858c0.11877,-0.03235 0.25453,-0.06933 0.36788,-0.11951c0.33393,-0.11027 0.66241,-0.23842 0.95205,-0.43334c0.21573,-0.13612 0.44179,-0.17833 0.68365,-0.10887c0.18004,0.04764 0.3431,0.09984 0.57952,0.15147z" fill="#c9e1e2"/><path d="M270.71829,185.76567c0.11762,0.084 0.14494,0.17321 0.17224,0.26241c-0.01149,0.02244 -0.03998,0.04959 -0.0515,0.072c-0.2606,0.10963 -0.48238,0.28607 -0.65379,0.50675c-0.10844,0.12618 -0.23876,0.18101 -0.40787,0.16907c-0.2085,-0.02052 -0.42851,-0.01857 -0.63103,-0.07943c0.09266,-0.23788 0.29316,-0.54387 0.41801,-0.61653c0.0739,-0.05881 0.15274,-0.04162 0.24305,-0.04683c0.28302,-0.0964 0.61035,-0.10826 0.91088,-0.2674z" fill="#cae3e4"/><path d="M267.73034,179.96768c0.32612,0.10448 0.63588,0.15549 0.95714,0.18398c0.06669,0.0978 0.08858,0.16924 0.06499,0.27231c-0.27812,0.17241 -0.64543,0.23375 -0.91812,0.42403c-0.21397,-0.03841 -0.35948,-0.15342 -0.53349,-0.24133c-0.08969,-0.05287 -0.19093,-0.0833 -0.24615,-0.2036c0.17693,-0.20284 0.4539,-0.25893 0.67567,-0.43536z" fill="#c8e0e1"/><path d="M269.4018,182.60571c0.03219,0.16523 -0.03023,0.20156 -0.09264,0.2379c-0.23273,0.14073 -0.44841,0.27678 -0.68658,0.39967c-0.06242,0.03633 -0.13031,0.05483 -0.20911,0.03764c-0.22487,-0.0741 -0.45524,-0.16603 -0.67411,-0.28037c0.07451,-0.11692 0.17089,-0.16255 0.25632,-0.24381c0.25629,-0.24378 0.5393,-0.34023 0.88183,-0.18223c0.16854,0.07012 0.34916,0.05957 0.52431,0.03118z" fill="#cbe4e5"/><path d="M269.0577,181.48144c0.02733,0.08921 0.04372,0.14275 0.06011,0.19628c-0.02849,0.02708 -0.03455,0.0674 -0.0515,0.07201c-0.17576,0.0865 -0.35697,0.15525 -0.53269,0.24176c-0.09638,0.04557 -0.18668,0.05083 -0.28792,0.02039c-0.30369,-0.09125 -0.59591,-0.20502 -0.90451,-0.37231c0.11447,-0.16652 0.26174,-0.22595 0.40901,-0.28538c0.06788,-0.01846 0.13578,-0.03697 0.19757,-0.01517c0.34253,0.15804 0.7147,0.17268 1.1099,0.14239z" fill="#c8e0e1"/><path d="M264.03585,182.73321c-0.18667,0.05081 -0.3958,0.08847 -0.55514,0.22856c-0.05695,0.05417 -0.14725,0.05941 -0.2321,0.08254c-0.10982,-0.29873 -0.14629,-0.59813 -0.10942,-0.89818c0.24851,-0.029 0.4642,-0.16509 0.65691,-0.25625c0.12308,0.1018 0.11041,0.24059 0.17711,0.33838c0.06613,0.156 0.10376,0.33909 0.06263,0.50495z" fill="#85d5d9"/><path d="M274.15787,185.35083c-0.28187,-0.0199 -0.56372,-0.03977 -0.85707,-0.03723c-0.25397,0.01116 -0.4818,0.22788 -0.81825,0.0295c0.57695,-0.15715 1.04785,-0.42072 1.5187,-0.68428c0.21397,0.03841 0.45038,0.08998 0.65774,0.22687c-0.02301,0.04494 -0.03454,0.06739 -0.04601,0.08984c-0.14237,0.13543 -0.29023,0.25306 -0.45503,0.37526z" fill="#c6dede"/><path d="M273.76185,179.85216c-0.32674,-0.04633 -0.61401,-0.08406 -0.94076,-0.13041c0.05813,-0.17048 0.17749,-0.26102 0.25199,-0.37796c0.09144,-0.1216 0.15509,-0.27424 0.29142,-0.36936c0.11877,-0.03235 0.24245,0.01128 0.36064,0.03707c0.1182,0.02578 0.24186,0.06947 0.37101,0.13094c-0.02536,0.27757 -0.18532,0.47578 -0.33434,0.70972z" fill="#cae3e3"/><path d="M270.15741,178.70729c0.47086,-0.26361 0.85688,-0.50408 1.1931,-0.84698c0.24248,0.01131 0.47944,0.00476 0.73888,0.01143c-0.06475,0.26897 -0.24106,0.41368 -0.38949,0.5894c-0.02849,0.02708 -0.07942,0.04096 -0.11334,0.05018c-0.44062,0.06201 -0.88126,0.12404 -1.42915,0.19594z" fill="#cae3e4"/><path d="M268.09986,184.17829c0.21689,-0.25241 0.42774,-0.46452 0.81628,-0.39633c0.27036,0.04236 0.53038,-0.00912 0.79038,-0.06061c0.10184,-0.02774 0.14609,0.05685 0.14494,0.1732c-0.28242,0.03828 -0.50969,0.19682 -0.73692,0.35539c-0.16481,0.12222 -0.32847,0.12815 -0.50851,0.08052c-0.15759,-0.03441 -0.32126,-0.02854 -0.50619,-0.15217z" fill="#c8e0e1"/><path d="M265.04173,181.99526c-0.08172,0.27359 -0.30174,0.27548 -0.51084,0.31311c-0.12363,-0.04363 -0.12249,-0.15994 -0.16677,-0.24452c-0.05402,-0.23659 -0.05166,-0.46926 -0.0154,-0.71116c0.19212,-0.033 0.35695,-0.1552 0.55395,-0.11222c0.04427,0.08462 0.06066,0.13817 0.08252,0.20952c0.02069,0.18772 0.0414,0.37537 0.0566,0.54523z" fill="#85d4d9"/><path d="M267.93248,182.30996c-0.22177,0.17639 -0.42053,0.30788 -0.61383,0.45719c-0.23583,-0.10977 -0.46015,-0.24197 -0.65597,-0.40135c-0.0043,-0.13418 0.0866,-0.19758 0.13808,-0.2696c0.05149,-0.07202 0.10298,-0.14402 0.22724,-0.15853c0.24732,0.08733 0.54497,0.21888 0.9045,0.3723z" fill="#c7dfe0"/><path d="M267.95845,185.33811c-0.20795,-0.07871 -0.41037,-0.13956 -0.61776,-0.2764c0.08716,-0.25576 0.26348,-0.40042 0.44586,-0.58544c0.24186,0.06945 0.48374,0.13888 0.74259,0.20373c-0.18296,0.24315 -0.36538,0.42819 -0.57074,0.65811z" fill="#c8e0e1"/><path d="M274.56708,180.56084c-0.0921,0.17976 -0.18415,0.35945 -0.3435,0.49953c-0.27036,-0.04236 -0.54617,-0.10257 -0.83892,-0.15816c-0.0109,-0.03566 -0.02184,-0.07138 -0.00485,-0.07599c0.11995,-0.14867 0.25687,-0.30194 0.3823,-0.43278c0.05697,-0.05419 0.11936,-0.09055 0.18119,-0.06872c0.2364,0.05162 0.45643,0.04969 0.62383,0.23611z" fill="#c4dcdd"/><path d="M274.87665,183.43448c-0.2643,-0.08269 -0.52313,-0.14752 -0.78747,-0.23021c0.00724,-0.15662 0.14297,-0.19358 0.22841,-0.27486c0.08543,-0.08125 0.1933,-0.14932 0.29569,-0.23521c0.23094,0.03378 0.42129,0.17529 0.63474,0.27182c-0.0587,0.22862 -0.20657,0.34624 -0.37139,0.46844z" fill="#c8e0e1"/><path d="M268.19618,185.81458c0.27581,0.06025 0.52922,0.10721 0.82198,0.1628c-0.08112,0.21544 -0.24051,0.35548 -0.32712,0.5531c-0.25942,-0.00672 -0.4668,-0.14353 -0.71408,-0.23085c0.0472,-0.20618 0.08836,-0.37205 0.21924,-0.48501z" fill="#c6ddde"/><path d="M271.32843,186.79812c-0.23388,0.25704 -0.52896,0.43411 -0.71251,0.73539c-0.22003,0.00194 -0.41764,0.01708 -0.64252,-0.057c0.05325,-0.24648 0.16775,-0.41304 0.43319,-0.44666c0.32181,-0.02967 0.61638,-0.14856 0.92185,-0.23176z" fill="#b9cfd0"/><path d="M270.08915,177.64327c0.01815,-0.12093 0.11937,-0.09057 0.18178,-0.12686c0.14182,-0.07728 0.28903,-0.13674 0.35812,-0.27156c0.14299,-0.19361 0.33507,-0.22662 0.54966,-0.24637c0.09033,-0.00525 0.18608,0.0073 0.3158,0.01065c-0.11563,0.28285 -0.23077,0.50753 -0.575,0.52396c-0.237,0.00658 -0.46912,0.0891 -0.69518,0.13133c-0.05092,0.01382 -0.10182,0.02773 -0.13518,-0.02117z" fill="#c0d8d8"/><path d="M267.07188,179.25781c0.12543,-0.13084 0.25026,-0.20349 0.38599,-0.24047c0.06788,-0.01846 0.15274,-0.04165 0.21456,-0.01979c0.26978,0.10053 0.54011,0.14288 0.81048,0.18526c0.03821,0.12491 -0.0351,0.12555 -0.08604,0.13944c-0.16971,0.04622 -0.35638,0.09708 -0.51515,0.17898c-0.20968,0.09578 -0.3788,0.08383 -0.55223,-0.06226c-0.07823,-0.07535 -0.14551,-0.11502 -0.25764,-0.18111z" fill="#c1d9d9"/><path d="M267.66154,184.00763c-0.2194,-0.05622 -0.3989,-0.16204 -0.61227,-0.25858c0.04173,-0.22402 0.21201,-0.32836 0.33197,-0.47707c0.25885,0.06481 0.47164,0.21949 0.71293,0.34714c-0.13148,0.17114 -0.2848,0.27091 -0.43263,0.38854z" fill="#c3dbdc"/><path d="M273.79657,182.00794c0.2048,-0.17181 0.39816,-0.32111 0.58597,-0.48827c0.17459,0.02976 0.33217,0.0642 0.48316,0.19705c-0.08663,0.1976 -0.22898,0.33303 -0.36591,0.48637c-0.24246,-0.01132 -0.46186,-0.06752 -0.70316,-0.19512z" fill="#c3dadb"/><path d="M266.39484,182.63203c0.20736,0.13687 0.39225,0.26049 0.57717,0.38411c-0.06417,0.2108 -0.20656,0.34626 -0.34894,0.48169c-0.19096,-0.0833 -0.35345,-0.1937 -0.50983,-0.34444c0.01756,-0.06278 0.04664,-0.14802 0.06962,-0.19293c0.07451,-0.11694 0.14297,-0.19358 0.21203,-0.32842z" fill="#c4dbdc"/><path d="M268.36195,178.30707c-0.32246,0.08782 -0.57702,0.15715 -0.84848,0.23113c-0.14612,-0.05688 -0.26373,-0.14088 -0.36374,-0.28759c0.05208,-0.13016 0.1818,-0.12683 0.2727,-0.19023c0.09087,-0.06342 0.18726,-0.109 0.27211,-0.13214c0.22437,0.13225 0.40379,0.23803 0.6675,0.37886z" fill="#c2d9da"/><path d="M274.48963,179.28665c0.15759,0.03441 0.28674,0.09586 0.38739,0.18449c0.06066,0.13815 -0.01935,0.23727 -0.04292,0.34033c-0.02356,0.10306 -0.00779,0.21477 -0.11018,0.30065c-0.18064,0.01054 -0.37158,-0.07279 -0.59652,-0.14683c0.05755,-0.11238 0.11507,-0.22471 0.15567,-0.3324c0.07451,-0.11692 0.149,-0.23391 0.20656,-0.34627z" fill="#c5ddde"/><path d="M266.96481,184.85476c-0.19704,-0.04301 -0.29163,-0.1719 -0.42622,-0.25124c0.02479,-0.2194 0.13927,-0.38594 0.26525,-0.57494c0.174,0.08792 0.34798,0.17588 0.51654,0.246c-0.05325,0.24646 -0.22959,0.39121 -0.35558,0.58017z" fill="#c3dbdc"/><path d="M272.24722,178.44745c0.02905,-0.08527 0.05203,-0.13018 0.07503,-0.17511c0.06301,-0.09448 0.14299,-0.19361 0.21749,-0.31056c0.27581,0.06025 0.53524,0.06689 0.78198,0.21234c0.0043,0.13418 -0.06415,0.21081 -0.1611,0.31455c-0.27639,-0.00204 -0.59219,-0.01273 -0.91346,-0.04119z" fill="#c7dfe0"/><path d="M266.87502,181.43792c-0.19036,-0.14147 -0.39281,-0.20234 -0.53775,-0.37553c0.05269,-0.18835 0.23384,-0.25702 0.29743,-0.40967c0.26978,0.10055 0.46016,0.24198 0.68447,0.37423c-0.09813,0.22007 -0.28479,0.27089 -0.44414,0.411z" fill="#c7dee0"/><path d="M263.99024,182.22373c-0.0667,-0.0978 -0.05401,-0.2366 -0.17713,-0.33839c-0.20968,0.09578 -0.43087,0.214 -0.65693,0.25627c-0.00488,-0.07603 -0.01522,-0.16987 -0.00316,-0.25047c0.01815,-0.12093 0.08115,-0.2154 0.19995,-0.24779c0.19815,-0.07332 0.37934,-0.14202 0.57756,-0.2153c0.071,0.232 0.0868,0.34369 0.05969,0.79572z" fill="#61acb1"/><path d="M275.04501,184.64521c-0.20795,-0.07871 -0.37643,-0.14879 -0.58985,-0.24534c0.18783,-0.16715 0.35868,-0.32968 0.55197,-0.47902c0.16306,0.05222 0.30917,0.10914 0.44924,0.20631c-0.09812,0.22006 -0.24049,0.35549 -0.41135,0.51803z" fill="#c2dada"/><path d="M266.72582,179.44868c0.20795,0.07871 0.35346,0.19373 0.53837,0.31739c-0.21572,0.13611 -0.39753,0.26294 -0.57933,0.38979c-0.17458,-0.02976 -0.26372,-0.14083 -0.39226,-0.26048c0.06962,-0.19296 0.23994,-0.29737 0.43319,-0.44668z" fill="#c1d9d9"/><path d="M274.90958,182.40079c0.12055,-0.20683 0.22353,-0.35086 0.32109,-0.51277c0.18608,0.0073 0.34856,0.11774 0.51105,0.22815c-0.03572,0.18369 -0.09383,0.3542 -0.23075,0.5075c-0.22001,0.00194 -0.35951,-0.15345 -0.60139,-0.22287z" fill="#c6dedf"/><path d="M267.58959,186.11517c-0.19095,-0.08331 -0.37042,-0.18912 -0.5444,-0.27704c-0.03219,-0.16523 0.00291,-0.29078 0.08894,-0.43024c0.24246,0.01132 0.42128,0.17528 0.64622,0.24933c-0.0187,0.17912 -0.11019,0.30066 -0.19076,0.45794z" fill="#c0d7d7"/><path d="M272.30148,177.5434c-0.2085,-0.02053 -0.41762,0.01707 -0.6365,-0.09729c0.08604,-0.13944 0.15511,-0.27426 0.22412,-0.40904c0.20363,-0.05543 0.40063,-0.01245 0.58006,0.09334c-0.00724,0.15662 -0.06475,0.26893 -0.1677,0.413z" fill="#c3dadb"/><path d="M264.99062,181.46784c-0.02185,-0.0714 -0.0607,-0.13815 -0.08255,-0.20954c-0.19704,-0.04299 -0.36182,0.07918 -0.55395,0.11222c-0.05519,-0.12029 0.02479,-0.21943 0.0035,-0.34895c0.19875,-0.13147 0.41878,-0.13342 0.60114,-0.31841c0.07155,0.17382 0.05345,0.29474 0.04079,0.43358c-0.00661,0.09847 0.06552,0.21416 -0.00897,0.33109z" fill="#5aa0a4"/><path d="M270.32652,188.26976c-0.20848,-0.02053 -0.41765,0.01709 -0.61405,-0.08409c-0.0043,-0.13418 0.04178,-0.22406 0.11077,-0.35884c0.19761,-0.01515 0.40612,0.00538 0.59163,0.07084c0.0043,0.13418 -0.02479,0.21943 -0.08837,0.37205z" fill="#bdd3d4"/><path d="M266.01336,183.54793c0.14007,0.0972 0.27462,0.17655 0.4092,0.25585c-0.03572,0.18372 -0.12172,0.32317 -0.2247,0.46721c-0.15212,-0.01658 -0.22436,-0.13223 -0.26256,-0.25715c-0.04919,-0.1606 -0.09833,-0.32118 0.07802,-0.46593z" fill="#bdd4d5"/><path d="M274.39762,186.19417c-0.23094,-0.03378 -0.44494,-0.07215 -0.67585,-0.1059c0.30173,-0.2755 0.59687,-0.45252 0.99458,-0.17421c-0.05208,0.13016 -0.18239,0.18497 -0.31869,0.2801z" fill="#bbd2d3"/><path d="M265.89568,181.78204c0.02421,-0.16124 0.10417,-0.26037 0.18417,-0.35947c0.11877,-0.03235 0.18005,0.04764 0.26976,0.10055c0.06729,0.03966 0.15152,0.07471 0.20127,0.17717c-0.02421,0.16124 -0.19386,0.20748 -0.23501,0.37334c-0.18551,-0.06546 -0.30861,-0.16724 -0.42017,-0.29152z" fill="#c3dadb"/><path d="M271.36191,182.34243c0.31638,-0.04746 0.63275,-0.09501 0.97099,-0.07112c0.01578,0.11168 -0.06358,0.15268 -0.14844,0.17574c-0.21515,0.07791 -0.4357,0.13802 -0.63936,0.19348c-0.15272,0.0416 -0.21946,-0.05623 -0.18316,-0.2981z" fill="#b1c6c7"/><path d="M267.86698,187.1416c0.14666,-0.00131 0.23037,0.09191 0.33706,0.14018c0.20795,0.0787 0.27406,0.23468 0.25475,0.47198c-0.27036,-0.04237 -0.48861,-0.21494 -0.67899,-0.35639c-0.02127,-0.12954 -0.00372,-0.19235 0.08718,-0.25575z" fill="#bbd2d3"/><path d="M272.26352,184.68748c0.30058,-0.15921 0.62728,-0.11285 0.96553,-0.08899c-0.20481,0.1718 -0.45937,0.24108 -0.69146,0.32366c-0.14727,0.05945 -0.19761,0.01516 -0.27404,-0.23468z" fill="#bad1d2"/><path d="M271.36337,187.81334c-0.09753,0.16189 -0.16113,0.31453 -0.25864,0.47642c-0.09031,0.00526 -0.2255,-0.01591 -0.35519,-0.01925c-0.01348,-0.34434 0.0035,-0.34895 0.22959,-0.39121c0.11878,-0.03232 0.24305,-0.04686 0.38425,-0.06597z" fill="#b5cbcc"/><path d="M275.9705,181.24195c0.00369,0.1923 -0.04836,0.32251 -0.10044,0.45268c-0.16911,-0.01193 -0.28068,-0.13623 -0.42073,-0.23339c0.04658,-0.14804 0.0987,-0.27817 0.1453,-0.42621c0.15818,-0.02376 0.2413,0.12758 0.37591,0.20695z" fill="#c0d7d8"/><path d="M269.68956,187.08984c-0.0012,0.1163 -0.06415,0.21081 -0.14413,0.30995c-0.23698,0.00653 -0.4619,-0.06751 -0.66378,-0.18653c-0.05519,-0.12029 -0.01521,-0.16985 0.0587,-0.22861c0.24791,0.02909 0.49583,0.05826 0.7492,0.10527z" fill="#bdd4d4"/><path d="M275.39901,184.78083c0.11995,-0.14867 0.26233,-0.2841 0.38229,-0.43279c0.10668,0.04828 0.16795,0.12826 0.20073,0.23532c-0.0012,0.1163 -0.07506,0.17512 -0.14353,0.25174c-0.05697,0.05419 -0.1139,0.10837 -0.17088,0.16255c-0.11823,-0.0258 -0.20796,-0.07869 -0.26862,-0.21685z" fill="#b6cccc"/><path d="M274.66245,181.17286c0.09754,-0.16189 0.18354,-0.30131 0.27561,-0.48108c0.10726,-0.0099 0.2255,0.01589 0.32558,0.16267c-0.04658,0.14805 -0.11019,0.30066 -0.16832,0.47115c-0.15759,-0.03441 -0.29279,-0.05558 -0.43283,-0.15278z" fill="#c1d9d9"/><path d="M275.09142,185.63782c-0.15759,-0.03441 -0.2813,-0.07803 -0.40435,-0.17986c0.09753,-0.16189 0.25634,-0.24379 0.37569,-0.3343c0.14666,-0.00131 0.21339,0.09653 0.2916,0.17189c-0.00059,0.05815 0.01032,0.09384 -0.00661,0.09847c-0.08545,0.08123 -0.17086,0.16253 -0.25633,0.24381z" fill="#b7cdce"/><path d="M273.92152,186.98124c0.143,-0.19361 0.2957,-0.23521 0.4375,-0.31251c0.15331,-0.09978 0.25397,-0.01118 0.37704,0.09059c-0.09753,0.16189 -0.23933,0.23918 -0.35325,0.34754c-0.18062,0.01052 -0.28617,-0.15406 -0.46131,-0.12567z" fill="#b6cccc"/><path d="M269.32387,188.11742c-0.16307,-0.05224 -0.28672,-0.09588 -0.42737,-0.13492c-0.06613,-0.156 -0.09889,-0.26306 -0.05228,-0.41107c0.1855,0.06547 0.36555,0.11308 0.5286,0.16533c0.10009,0.14671 0.02007,0.24584 0.03591,0.35753c-0.03393,0.00924 -0.06242,0.03635 -0.08485,0.02313z" fill="#c2dada"/><path d="M275.38104,180.39718c-0.13516,-0.02119 -0.20246,-0.06083 -0.26373,-0.14083c-0.04973,-0.10246 -0.0037,-0.19231 0.01988,-0.29542c0.02906,-0.08527 0.00779,-0.21479 0.12113,-0.26499c0.1291,0.06151 0.24673,0.14544 0.32985,0.29683c-0.06359,0.15268 -0.13811,0.26961 -0.20715,0.40444z" fill="#bbd2d3"/><path d="M266.00237,180.14836c0.12307,0.10179 0.21827,0.17255 0.31892,0.26112c-0.08055,0.15729 -0.19447,0.26563 -0.30295,0.39184c-0.12364,-0.04363 -0.21889,-0.11438 -0.25706,-0.23932c0.00604,-0.04034 0.01211,-0.08061 0.04058,-0.10774c0.04601,-0.08984 0.10907,-0.18437 0.20052,-0.30594z" fill="#bbd2d3"/><path d="M271.52782,188.29045c0.12112,-0.26502 0.12112,-0.26502 0.38228,-0.43276c0.16307,0.05226 0.22371,0.1904 0.32377,0.33713c-0.22121,0.11827 -0.46911,0.08911 -0.7061,0.09566z" fill="#adc2c3"/><path d="M265.75096,182.15015c0.12364,0.04363 0.22434,0.13226 0.27951,0.25252c-0.08055,0.15729 -0.14955,0.29208 -0.23561,0.43148c-0.26256,-0.25715 -0.26804,-0.27498 -0.04393,-0.68403z" fill="#b5cbcc"/><path d="M275.70776,183.80741c-0.14612,-0.05686 -0.25281,-0.10517 -0.37587,-0.20697c0.04115,-0.16584 0.17752,-0.26099 0.2805,-0.40506c0.06182,0.02183 0.10666,0.04829 0.15154,0.07471c0.04487,0.02644 0.07822,0.07535 0.12855,0.11965c-0.00175,0.17447 -0.07625,0.2914 -0.18472,0.41766z" fill="#bbd1d2"/><path d="M266.47223,178.86041c0.06417,-0.21081 0.26234,-0.28413 0.37076,-0.41034c0.14061,0.03905 0.19587,0.15933 0.29654,0.24794c-0.14842,0.17577 -0.30723,0.25766 -0.51025,0.25497c-0.05092,0.01385 -0.10669,-0.04826 -0.15703,-0.09256z" fill="#b6cccd"/><path d="M273.48895,177.81921c-0.25885,-0.06481 -0.50616,-0.15214 -0.74802,-0.22158c-0.02125,-0.12955 0.00779,-0.21477 0.10472,-0.31851c0.2413,0.12758 0.48256,0.25521 0.68933,0.45021c-0.02303,0.04495 -0.03454,0.06739 -0.04602,0.08986z" fill="#acc1c2"/><path d="M272.63095,183.48539c-0.20421,0.11363 -0.41391,0.20942 -0.64542,0.23378c-0.09033,0.00525 -0.17458,-0.02976 -0.20189,-0.11899c-0.0109,-0.03566 0.0012,-0.11631 0.01815,-0.12095c0.24908,-0.08718 0.54185,-0.03158 0.82916,0.00614z" fill="#a7bbbb"/><path d="M276.12148,183.05668c-0.11276,-0.00795 -0.19095,-0.0833 -0.27464,-0.1765c0.06359,-0.15268 0.12719,-0.3053 0.19077,-0.45795c0.15759,0.03441 0.20734,0.13686 0.24555,0.26176c-0.01815,0.12093 -0.08716,0.25575 -0.16171,0.3727z" fill="#b7cdcd"/><path d="M266.30965,184.93653c0.19704,0.04299 0.32006,0.14482 0.44865,0.26446c-0.00724,0.15662 -0.04233,0.2822 -0.17321,0.39517c-0.16735,-0.1864 -0.21592,-0.40519 -0.27545,-0.65962z" fill="#b7cece"/><path d="M267.69366,177.44511c0.16541,-0.18038 0.40786,-0.16909 0.55022,-0.30456c0.12363,0.04363 0.12854,0.11967 0.08855,0.16924c-0.10843,0.1262 -0.23934,0.2392 -0.40902,0.28538c-0.05639,-0.00397 -0.07334,0.0006 -0.22979,-0.15008z" fill="#b4cacb"/><path d="M273.58858,178.56535c0.01812,-0.1209 0.05266,-0.18833 0.12656,-0.24715c0.20795,0.0787 0.43283,0.1528 0.64506,0.36564c-0.28302,0.0964 -0.50187,-0.018 -0.77164,-0.11849z" fill="#b2c8c9"/><path d="M265.77844,181.09866c-0.04658,0.14804 -0.08717,0.25575 -0.17807,0.31916c-0.07334,0.00064 -0.10673,-0.04827 -0.14008,-0.0972c-0.1334,-0.19564 -0.04192,-0.31724 0.10044,-0.45268c0.06127,0.07996 0.1395,0.15535 0.2177,0.2307z" fill="#b5cbcb"/><path d="M272.79913,185.83693c0.21516,-0.07794 0.40178,-0.12878 0.62179,-0.1307c0.04426,0.08462 0.00429,0.13417 -0.04659,0.14804c-0.11335,0.05019 -0.22122,0.11826 -0.33451,0.16845c-0.13576,0.03695 -0.19151,-0.02517 -0.24066,-0.18577z" fill="#91a3a3"/><path d="M271.06302,178.96327c-0.16541,0.18038 -0.39148,0.22263 -0.5951,0.27807c-0.03393,0.00924 -0.07882,-0.01719 -0.1067,-0.04827c-0.0109,-0.03566 0.00661,-0.09847 0.02359,-0.10311c0.22121,-0.11827 0.45273,-0.14264 0.67822,-0.12671z" fill="#99abac"/><path d="M270.2239,178.2639c-0.10612,-0.10643 -0.13341,-0.19566 -0.05948,-0.25445c0.10788,-0.06805 0.28846,-0.07857 0.53093,-0.06727c-0.13146,0.17118 -0.31811,0.22198 -0.47141,0.32172z" fill="#93a5a6"/><path d="M267.04308,186.61205c0.23036,0.09195 0.47223,0.16138 0.43479,0.51957c-0.24732,-0.08734 -0.31832,-0.31929 -0.43479,-0.51957z" fill="#9aadad"/><path d="M270.05509,185.52095c0.11938,-0.09052 0.2557,-0.18565 0.35813,-0.27154c0.10123,0.03044 0.13461,0.07934 0.15038,0.19105c-0.12544,0.13086 -0.31698,0.10569 -0.46423,0.16514c-0.0109,-0.03566 -0.01637,-0.05354 -0.04428,-0.08461z" fill="#c5dddd"/><path d="M271.68882,181.24812c-0.17146,0.22069 -0.3921,0.28076 -0.63452,0.26948c-0.01697,0.00462 -0.04488,-0.02646 -0.05581,-0.06213c-0.03336,-0.04891 0.0066,-0.09846 0.04056,-0.10771c0.18119,-0.06873 0.40124,-0.07062 0.64976,-0.09964z" fill="#aec2c3"/><path d="M266.36144,179.21923c-0.09753,0.16189 -0.25083,0.26166 -0.3872,0.35678c-0.10124,-0.0304 -0.10611,-0.10645 -0.04917,-0.16062c0.09695,-0.10375 0.17693,-0.20284 0.29631,-0.29333c0.02303,-0.04495 0.09029,-0.00527 0.14004,0.09718z" fill="#9caeaf"/><path d="M276.18838,182.01387c0.00175,-0.17449 0.03686,-0.30001 0.10045,-0.45267c0.13888,0.2135 0.14806,0.42365 0.21359,0.6378c-0.0564,-0.00397 -0.09033,0.00525 -0.11273,-0.008c-0.07276,-0.05753 -0.12854,-0.11962 -0.20131,-0.17714z" fill="#a9bebf"/><path d="M268.86111,180.83897c0.07216,0.11569 0.07704,0.19165 0.04796,0.27695c-0.16425,0.06404 -0.33333,0.0521 -0.55768,-0.08011c0.19273,-0.09116 0.34546,-0.13273 0.50968,-0.19682z" fill="#b9cfd0"/><path d="M271.00036,186.32679c0.10121,0.03043 0.14004,0.0972 0.17887,0.16395c-0.00664,0.09846 -0.09144,0.12159 -0.51514,0.17897c0.03628,-0.24188 0.23934,-0.2392 0.33628,-0.34292z" fill="#869797"/><path d="M271.32716,180.18662c-0.2879,0.0204 -0.47633,0.24573 -0.75642,0.05136c0.23271,-0.14073 0.44176,-0.17836 0.75642,-0.05136z" fill="#93a4a5"/><path d="M273.91471,186.53841c-0.25453,0.06933 -0.42426,0.11553 -0.59395,0.16175c-0.03393,0.00924 -0.07882,-0.01719 -0.09516,-0.07074c-0.00547,-0.01787 0.00061,-0.05818 0.01209,-0.08064c0.19269,-0.09118 0.37942,-0.14202 0.67703,-0.01042z" fill="#94a5a6"/><path d="M271.51708,187.11414c0.10063,0.0886 0.13401,0.13747 0.09344,0.2452c-0.13029,0.05481 -0.27757,0.11428 -0.46366,0.10695c0.06421,-0.2108 0.23385,-0.257 0.37016,-0.35214z" fill="#abbfc0"/><path d="M274.95845,186.52477c-0.06127,-0.07996 -0.08915,-0.11104 -0.10009,-0.14676c0.17748,-0.26101 0.17748,-0.26097 0.43143,-0.27215c-0.0472,0.20618 -0.21687,0.25241 -0.33139,0.41889z" fill="#acc0c1"/><path d="M267.92866,186.6222c0.16854,0.07012 0.34857,0.11771 0.52257,0.20565c0.06729,0.03966 0.08911,0.11108 0.00371,0.19231c-0.20795,-0.07871 -0.39889,-0.16203 -0.52625,-0.39799z" fill="#9fb2b2"/><path d="M276.01033,184.015c0.0406,-0.10775 0.07513,-0.17513 0.14902,-0.23389c0.07882,0.01719 0.12914,0.06148 0.17342,0.14609c0.01577,0.1117 -0.04722,0.20617 -0.11021,0.30067c-0.11276,-0.00795 -0.16247,-0.11042 -0.21218,-0.21285z" fill="#aec2c3"/><path d="M269.25849,183.39874c0.04114,-0.16583 0.15999,-0.19822 0.27327,-0.24842c0.05092,-0.01382 0.1012,0.03042 0.1176,0.08396c0.0109,0.03566 -0.00662,0.09851 -0.04056,0.10772c-0.08543,0.08125 -0.19821,0.07332 -0.35031,0.05672z" fill="#91a2a3"/><path d="M276.02062,180.74493c-0.34857,-0.11774 -0.37104,-0.13091 -0.20444,-0.42763c0.07762,0.13353 0.20072,0.23532 0.20444,0.42763z" fill="#869696"/><path d="M269.93506,177.25993c0.08662,-0.19759 0.20478,-0.17176 0.32908,-0.1863c-0.03572,0.18371 -0.03572,0.18369 -0.32908,0.1863z" fill="#555f5f"/><path d="M270.04981,184.36244c-0.08485,0.02312 -0.20361,0.05545 -0.33882,0.03428c0.10358,-0.2022 0.17145,-0.22068 0.31205,-0.1817c0.03942,0.0086 0.0558,0.06215 0.02672,0.14738z" fill="#93a5a6"/><path d="M274.00831,187.32487c-0.14901,0.23393 -0.18841,0.22536 -0.3267,-0.04637c0.10789,-0.06804 0.21455,-0.01981 0.3267,0.04637z" fill="#8b9b9c"/><path d="M270.41428,176.72345c-0.15333,0.09976 -0.2945,0.11887 -0.43577,0.13801c-0.08369,-0.0932 -0.06612,-0.15601 0.00178,-0.17447c0.13576,-0.03696 0.27698,-0.0561 0.43397,0.03644z" fill="#9aacad"/><path d="M275.69517,185.62815c-0.05208,0.13016 -0.07023,0.25112 -0.21145,0.27028c-0.01699,0.00462 -0.03942,-0.00859 -0.04488,-0.02643c-0.01521,-0.16986 0.0757,-0.23331 0.25631,-0.24381z" fill="#5f6a6b"/><path d="M269.02827,182.16611c0.05149,-0.07202 0.11941,-0.09054 0.19274,-0.09115c0.03942,0.0086 0.08426,0.03503 0.0782,0.07536c-0.00604,0.04034 -0.02904,0.08527 -0.06301,0.09448c-0.06788,0.01846 -0.14122,0.01912 -0.20793,-0.07871z" fill="#636e6f"/><path d="M276.4246,183.20623c0.08912,0.11107 0.09951,0.20487 -0.0144,0.31325c-0.11157,-0.12428 -0.08255,-0.20951 0.0144,-0.31325z" fill="#4a5354"/></g><g data-paper-data="{&quot;index&quot;:null}" fill="#000000" fill-rule="nonzero" stroke="#000000" stroke-width="1.2" stroke-linecap="butt" stroke-linejoin="miter"><path d="M242.85655,202.71348c-0.09809,-1.88411 2.09719,-4.41655 2.8261,-6.61401c0.78479,-2.36588 0.10881,-4.2224 1.37087,-5.26635c0.88154,-0.72918 2.42163,-0.41587 3.19767,-0.14663c1.88708,0.65468 2.3363,4.44301 1.00336,8.46144c-1.33292,4.01843 -3.94326,6.7453 -5.83031,6.09061c-0.85512,-0.29667 -2.48638,-0.96375 -2.56768,-2.52504z"/><path d="M245.47453,205.92829c-0.11341,-2.62833 2.69133,-7.97566 2.69133,-7.97566c0,0 0.15351,-3.96872 0.18243,-4.05111c1.84194,-5.25121 5.12922,-4.17593 8.84505,-2.88678c1.76849,0.61354 4.24465,2.29034 4.66269,4.27938c0.47411,2.2558 -0.93358,4.69032 -1.91223,7.64067c-1.84156,5.55178 -5.64518,9.49414 -9.41931,8.18476c-1.66136,-0.57638 -4.89846,-1.68084 -5.04994,-5.19127z"/></g></g></g></svg>