<svg version="1.1" xmlns="http://www.w3.org/2000/svg" xmlns:xlink="http://www.w3.org/1999/xlink" width="146.72015" height="83.16538" viewBox="0,0,146.72015,83.16538"><defs><linearGradient x1="259.7243" y1="207.02085" x2="261.35293" y2="189.04709" gradientUnits="userSpaceOnUse" id="color-1"><stop offset="0" stop-color="#bebebe"/><stop offset="1" stop-color="#737373"/></linearGradient><linearGradient x1="261.06769" y1="169.43367" x2="229.8856" y2="160.5671" gradientUnits="userSpaceOnUse" id="color-2"><stop offset="0" stop-color="#bebebe"/><stop offset="1" stop-color="#737373"/></linearGradient><linearGradient x1="261.06769" y1="169.43367" x2="229.8856" y2="160.5671" gradientUnits="userSpaceOnUse" id="color-3"><stop offset="0" stop-color="#bebebe"/><stop offset="1" stop-color="#737373"/></linearGradient><linearGradient x1="260.5536" y1="169.61275" x2="232.95563" y2="161.76532" gradientUnits="userSpaceOnUse" id="color-4"><stop offset="0" stop-color="#ffd166"/><stop offset="1" stop-color="#ac880b"/></linearGradient><linearGradient x1="270.75029" y1="182.13298" x2="243.75461" y2="174.4568" gradientUnits="userSpaceOnUse" id="color-5"><stop offset="0" stop-color="#ffd166"/><stop offset="1" stop-color="#ac880b"/></linearGradient><linearGradient x1="270.83929" y1="182.10126" x2="243.2795" y2="174.26467" gradientUnits="userSpaceOnUse" id="color-6"><stop offset="0" stop-color="#ffd166"/><stop offset="1" stop-color="#ac880b"/></linearGradient><linearGradient x1="287.15116" y1="175.57965" x2="260.27911" y2="167.93861" gradientUnits="userSpaceOnUse" id="color-7"><stop offset="0" stop-color="#ffd166"/><stop offset="1" stop-color="#ac880b"/></linearGradient><linearGradient x1="288.20315" y1="167.3508" x2="267.13419" y2="161.35988" gradientUnits="userSpaceOnUse" id="color-8"><stop offset="0" stop-color="#bebebe"/><stop offset="1" stop-color="#737373"/></linearGradient><linearGradient x1="288.20315" y1="167.3508" x2="267.13419" y2="161.35988" gradientUnits="userSpaceOnUse" id="color-9"><stop offset="0" stop-color="#bebebe"/><stop offset="1" stop-color="#737373"/></linearGradient><linearGradient x1="272.59007" y1="190.10206" x2="241.54682" y2="184.33828" gradientUnits="userSpaceOnUse" id="color-10"><stop offset="0" stop-color="#bebebe"/><stop offset="1" stop-color="#737373"/></linearGradient><linearGradient x1="321.25361" y1="170.83055" x2="330.17355" y2="181.2851" gradientUnits="userSpaceOnUse" id="color-11"><stop offset="0" stop-color="#bb951b"/><stop offset="1" stop-color="#d6ad39"/></linearGradient><linearGradient x1="328.93556" y1="163.95203" x2="337.30837" y2="173.76534" gradientUnits="userSpaceOnUse" id="color-12"><stop offset="0" stop-color="#bebebe"/><stop offset="1" stop-color="#737373"/></linearGradient><linearGradient x1="326.66975" y1="170.2184" x2="330.66614" y2="174.90231" gradientUnits="userSpaceOnUse" id="color-13"><stop offset="0" stop-color="#bb951b"/><stop offset="1" stop-color="#d6ad39"/></linearGradient><linearGradient x1="326.07845" y1="171.34574" x2="329.4965" y2="175.35183" gradientUnits="userSpaceOnUse" id="color-14"><stop offset="0" stop-color="#bb951b"/><stop offset="1" stop-color="#d6ad39"/></linearGradient><linearGradient x1="326.60846" y1="169.3574" x2="327.30174" y2="170.16993" gradientUnits="userSpaceOnUse" id="color-15"><stop offset="0" stop-color="#bb951b"/><stop offset="1" stop-color="#d6ad39"/></linearGradient><linearGradient x1="326.51181" y1="168.78503" x2="327.1894" y2="169.57917" gradientUnits="userSpaceOnUse" id="color-16"><stop offset="0" stop-color="#bb951b"/><stop offset="1" stop-color="#d6ad39"/></linearGradient></defs><g transform="translate(-192.37049,-150.13851)"><g data-paper-data="{&quot;isPaintingLayer&quot;:true}" stroke-miterlimit="10" stroke-dasharray="" stroke-dashoffset="0" style="mix-blend-mode: normal"><path d="M258.39822,196.94505c0,0 2.87623,-11.56461 4.30611,-15.96649c1.11319,-3.42697 4.67619,-13.94725 4.67619,-13.94725" fill="none" fill-rule="nonzero" stroke="#000000" stroke-width="6" stroke-linecap="round" stroke-linejoin="miter"/><path d="M260.5192,188.97154c2.45405,0.22236 4.15253,3.61326 3.79366,7.57381c-0.19118,2.10993 1.14346,6.03343 -0.27164,8.24368c-1.24119,1.93859 -5.86383,7.77322 -6.50447,7.49231c-1.99836,-0.87627 -1.62859,-13.40321 -1.41575,-15.75217c0.20251,-2.23497 0.79558,-4.42502 1.71492,-5.86916c0.70979,-1.11499 1.61409,-1.78535 2.68329,-1.68847z" fill="url(#color-1)" fill-rule="nonzero" stroke="#737373" stroke-width="1" stroke-linecap="butt" stroke-linejoin="miter"/><g><g><g stroke-width="1.2"><path d="M244.42733,176.65715c0,0 -6.80596,-10.12945 -7.31431,-13.39311c-0.34687,-2.22692 4.38369,-4.33938 4.38369,-4.33938c0,0 -9.70806,-2.63351 -9.10532,-7.13695c0.03437,-0.25675 0.27765,-1.49912 4.39951,-0.87662c3.94789,0.59624 11.7173,3.0327 14.55552,3.93073c1.31822,0.41709 3.3047,1.32028 4.53866,2.33907c1.24239,1.02577 1.01896,2.02331 0.97136,2.60348c-0.0063,0.07699 -5.8767,5.2492 -5.81168,6.15615c0.03272,0.4562 7.21236,13.37738 7.21236,13.37738" fill="url(#color-2)" fill-rule="evenodd" stroke="url(#color-3)" stroke-linecap="round" stroke-linejoin="round"/><path d="M258.80488,175.61334c-0.6177,4.61527 -8.12186,2.87092 -12.02487,1.8776c-1.69717,-0.43194 -9.67734,-8.21894 -12.17731,-13.55271c-0.65508,-1.39761 0.44771,-4.17184 0.91823,-5.50877c0.16534,-0.46976 0.97755,0.42553 0.97755,0.42553c0,0 -0.942,-0.80583 -1.28523,-1.39436c-0.35427,-0.60748 -0.61189,-1.48306 -0.61189,-1.48306l2.73952,1.37473c0,0 9.96584,2.72737 13.974,2.21672c4.00815,-0.51067 2.3011,-3.724 2.3011,-3.724c0,0 7.35937,2.32269 7.80195,4.33715c0.10911,0.49661 -1.1493,1.58909 -1.1493,1.58909c0,0 0.85253,0.12842 0.85426,0.45431c0.00056,0.1057 -4.49949,2.36447 -6.95652,3.53754c-1.40472,0.67068 -1.38579,0.56434 -1.38579,0.56434c0,0 6.11333,8.62092 6.02433,9.28591z" fill="url(#color-4)" fill-rule="nonzero" stroke="#caa551" stroke-linecap="butt" stroke-linejoin="miter"/></g><path d="M270.46514,183.13544c-0.02335,0.13424 -1.5971,-0.72861 -5.39814,-1.85743c-5.01453,-1.48921 -12.79419,-3.41801 -14.99894,-3.89995c-5.71732,-1.2498 -6.93133,-0.5944 -6.86948,-0.95025c0.22897,-1.31685 4.08037,-2.78157 10.54475,-1.08384c2.84077,0.74607 8.73979,1.96067 11.88333,3.34107c4.00974,1.76078 4.96681,3.71226 4.83847,4.45041z" fill="url(#color-5)" fill-rule="nonzero" stroke="#caa551" stroke-width="1.2" stroke-linecap="butt" stroke-linejoin="miter"/><g fill-rule="nonzero" stroke-linecap="butt" stroke-linejoin="miter"><g fill="none" stroke="none" stroke-width="1" font-family="sans-serif" font-weight="normal" font-size="12" text-anchor="start"/><path d="M269.96405,184.74451c0,0 -11.21016,-4.90373 -16.59891,-6.81736c-5.38874,-1.91362 -10.34487,-2.75083 -10.34487,-2.75083c0,0 0.73712,-1.13098 3.89587,-1.35907c2.44505,-0.17657 6.62386,0.22885 11.25172,1.85991c4.21609,1.48594 8.65818,3.51821 10.47014,5.07795c2.74636,2.36411 1.32608,3.98937 1.32608,3.98937z" fill="url(#color-6)" stroke="#caa551" stroke-width="1.2"/></g><g stroke-width="1.2"><path d="M260.16108,177.67567c0,0 9.65231,-17.19314 10.47383,-17.02536c2.35756,0.48151 14.56004,5.64234 14.56004,5.64234l-13.40323,16.2344" data-paper-data="{&quot;index&quot;:null}" fill="#ffab19" fill-rule="evenodd" stroke="#001026" stroke-linecap="round" stroke-linejoin="round"/><path d="M258.12872,177.4192c0,0 0.70381,-5.26892 1.59599,-7.25069c0.54726,-1.21563 4.4482,-4.77392 4.4482,-4.77392c0,0 -0.25123,-3.30989 0.26188,-3.45818c0.65926,-0.19054 1.889,2.11251 1.889,2.11251c0,0 -1.20578,-2.58233 -1.19553,-2.80263c0.07142,-1.53717 2.15347,-2.9904 6.25055,-2.01971c4.49833,1.06576 11.92623,2.93691 15.39853,5.15645c3.14355,2.00939 2.59951,4.38584 1.86462,5.21623c-0.51607,0.58314 -2.90712,0.29647 -3.60637,0.99496c-0.46496,0.46444 3.97918,-0.98378 3.09566,-0.4396c-0.25685,0.15821 -3.9675,2.74509 -3.9675,2.74509c0,0 -1.29849,3.01377 -2.39834,3.95378c-4.41654,3.77476 -9.26813,6.60079 -9.26813,6.60079" data-paper-data="{&quot;index&quot;:null}" fill="url(#color-7)" fill-rule="evenodd" stroke="#caa551" stroke-linecap="round" stroke-linejoin="round"/><path d="M267.2636,160.93472c0.40588,-1.00409 1.65638,-1.94919 3.8056,-2.01347c2.1572,-0.0645 13.97956,3.5658 15.6002,4.85512c1.53906,1.22443 1.86774,2.77212 1.47162,3.7521c-0.81323,2.01189 -6.14605,2.16682 -11.9112,0.346c-5.76512,-1.82082 -9.77945,-4.92786 -8.96619,-6.93975z" fill="url(#color-8)" fill-rule="nonzero" stroke="url(#color-9)" stroke-linecap="butt" stroke-linejoin="miter"/></g></g><g fill="none" fill-rule="nonzero" stroke="none" stroke-width="1" stroke-linecap="butt" stroke-linejoin="miter" font-family="sans-serif" font-weight="normal" font-size="12" text-anchor="start"/></g><path d="M266.83784,185.26321c0,0 11.58634,-0.43338 16.13406,2.30977" fill="none" fill-rule="nonzero" stroke="#000000" stroke-width="6" stroke-linecap="round" stroke-linejoin="miter"/><path d="M265.30341,181.97822c0,0 -4.67867,5.13655 -4.55602,7.00122c0.03,0.45608 4.38971,-6.25454 4.80271,-5.74761c1.96946,2.41739 10.75092,5.7313 10.75092,5.7313c0,0 -8.74285,4.30807 -13.07699,6.334c-1.1967,0.55938 -10.50732,-0.91835 -10.84474,-0.74238c-0.43579,0.22727 -12.31277,-3.98342 -12.31277,-3.98342c0,0 -2.9199,-3.18805 -2.30326,-6.27156c0.00438,-0.0219 8.46256,2.38539 8.53124,2.04189c0.41152,-2.05785 3.00243,-7.17548 3.00243,-7.17548c0,0 3.33625,-0.73796 6.10862,-0.2711c3.05627,0.51468 9.89787,3.08311 9.89787,3.08311z" fill="url(#color-10)" fill-rule="nonzero" stroke="#737373" stroke-width="2.5" stroke-linecap="butt" stroke-linejoin="miter"/><g data-paper-data="{&quot;index&quot;:null}" fill-rule="nonzero" stroke="none" stroke-width="1" stroke-linecap="butt" stroke-linejoin="miter"><path d="M326.06075,169.14168c-0.07083,-0.21317 0.01507,-0.33667 0.14064,-0.46154c0.2135,-0.17951 0.45828,-0.30839 0.68224,-0.47094c0.01263,-0.078 0.02529,-0.156 0.02329,-0.22487c0.02687,-1.46632 0.60954,-2.62357 1.3991,-3.67562c0.16753,-0.22107 0.32468,-0.45907 0.55901,-0.60478c0.04396,-0.0273 0.09211,-0.08064 0.10051,-0.13266c0.04634,-0.28601 0.23676,-0.40444 0.43142,-0.54884c0.16531,-0.12618 0.35153,-0.2186 0.5273,-0.32788c0.10252,-0.06375 0.22592,-0.09374 0.36179,-0.03793c0.13583,0.05583 0.28432,0.03365 0.41813,0.02053c0.75083,-0.16291 1.53074,-0.18029 2.32934,-0.06898c0.44946,0.07125 0.87163,0.22958 1.3042,0.4048c1.27274,0.51792 2.34643,1.36999 3.26303,2.46006c0.40712,0.49503 0.75144,1.05247 1.03718,1.64634c0.21689,0.44962 0.31041,0.92925 0.37885,1.40108c0.21774,1.5013 -0.05573,2.86372 -0.6908,4.10028c-0.11738,0.23664 -0.29532,0.44083 -0.47331,0.64504c-0.11514,0.14175 -0.20524,0.29132 -0.18882,0.51488c0.02063,0.19756 -0.06943,0.3471 -0.19502,0.47194c-0.2135,0.17951 -0.44785,0.32522 -0.68224,0.47095c-0.07325,0.04553 -0.15272,0.0482 -0.23219,0.05082c-0.29895,-0.02451 -0.54998,0.06142 -0.79477,0.19028c-0.50847,0.2928 -1.09195,0.3984 -1.66501,0.52091c-0.21753,0.04172 -0.44543,0.06657 -0.67959,0.04854c-0.75684,-0.04374 -1.49485,-0.1226 -2.23888,-0.40813c-0.2197,0.13659 -0.46451,0.26544 -0.69885,0.4112c-0.08791,0.05465 -0.19043,0.11839 -0.3116,0.05346c-0.11075,-0.04803 -0.18823,0.0235 -0.27608,0.07816c-0.5963,0.34743 -1.18222,0.71172 -1.77854,1.05916c-1.31409,0.79368 -2.64274,1.59654 -3.97766,2.35645c-1.30564,0.74171 -2.57994,1.53413 -3.86471,2.3096c-0.20508,0.12752 -0.41634,0.21211 -0.62139,0.33963c-0.99602,0.61936 -1.99206,1.23866 -2.99852,1.84113c-0.17575,0.10929 -0.33068,0.25236 -0.55439,0.25116c-0.07947,0.00266 -0.14225,0.06505 -0.21551,0.11059c-0.73237,0.45543 -1.48984,0.90303 -2.2222,1.35843c-0.0293,0.01821 -0.07324,0.04551 -0.10252,0.06376c-0.22393,0.16264 -0.41413,0.11723 -0.66275,-0.05551c-0.82729,-0.58446 -1.42643,-1.35753 -1.7975,-2.31924c-0.0917,-0.24693 -0.1541,-0.51205 -0.17678,-0.77854c-0.02063,-0.19756 0.05478,-0.338 0.19081,-0.44596c0.40813,-0.32391 0.80582,-0.66472 1.22859,-0.99774c0.30139,-0.23417 0.63829,-0.44367 0.90835,-0.72849c0.58831,-0.623 1.31647,-1.05239 1.93603,-1.62473c0.35372,-0.31349 0.67198,-0.65165 1.03617,-0.94826c0.39347,-0.3148 0.75143,-0.65429 1.11979,-0.9769c0.67398,-0.58275 1.3835,-1.14082 2.04702,-1.74049c0.85615,-0.81291 1.75409,-1.55833 2.65199,-2.30368c0.30562,-0.26016 0.61113,-0.52032 0.91676,-0.78049c0.48557,-0.39549 0.98578,-0.80001 1.47134,-1.19545c0.27208,-0.21596 0.50867,-0.45657 0.78069,-0.67253c0.27633,-0.24198 0.55458,-0.41498 0.85597,-0.64916zM326.52666,169.43644c0.03732,0.25735 0.10392,0.49649 0.2249,0.72521c0.13948,0.52117 0.39187,0.99549 0.64432,1.4698c0.31083,0.60167 0.69066,1.18378 1.06008,1.74904c0.42158,0.6497 0.95833,1.15763 1.52016,1.67339c0.07103,0.04934 0.14206,0.09871 0.2486,0.17272c0.11718,-0.07283 0.23433,-0.14575 0.35151,-0.2186c0.0293,-0.01821 0.04816,-0.05332 0.08165,-0.09753c-0.07302,-0.11825 -0.16072,-0.22739 -0.26304,-0.32743c-0.16916,-0.17538 -0.29854,-0.3521 -0.46768,-0.52747c-0.4009,-0.45213 -0.68048,-1.00313 -1.03744,-1.48257c-0.18162,-0.26116 -0.39246,-0.50411 -0.54477,-0.7835c-0.32127,-0.61856 -0.71573,-1.19159 -0.97837,-1.84654c-0.06461,-0.17028 -0.13969,-0.35737 -0.20427,-0.52766c0.04618,-0.12223 -0.06664,-0.23914 -0.08949,-0.34185c-0.01867,-0.12868 -0.03733,-0.25738 -0.16674,-0.43404c-0.11738,0.23664 -0.3391,0.30436 -0.47314,0.48123c0.03751,0.09357 -0.00862,0.21578 0.09373,0.31582zM326.44597,170.42174c-0.10813,-0.47051 -0.15611,-0.58093 -0.32106,-0.78235c-0.16531,0.12618 -0.31604,0.24329 -0.48137,0.36946c-0.10252,0.06375 -0.13407,0.17685 -0.11538,0.30558c0.01244,0.08583 0.06461,0.17023 0.07707,0.25602c0.05396,0.31715 0.18743,0.63166 0.369,0.89281c-0.00017,0.16378 0.08324,0.29891 0.16675,0.43407c0.45489,0.76925 0.88472,1.53075 1.41283,2.2545c0.23798,0.31964 0.49059,0.63018 0.74744,0.91468c0.21512,0.21698 0.44064,0.45082 0.74162,0.54423c0.19042,-0.11843 0.3808,-0.23683 0.57126,-0.35524c-0.11275,-0.11692 -0.21511,-0.21698 -0.30698,-0.30011c-0.40932,-0.40014 -0.78937,-0.81846 -1.11082,-1.27324c-0.41955,-0.5808 -0.76588,-1.20717 -1.12687,-1.8244c-0.1774,-0.2872 -0.25647,-0.6121 -0.44848,-0.89017c0.00863,-0.21578 -0.08105,-0.39382 -0.17494,-0.54584zM311.43729,182.65358c0.05819,0.29113 0.1896,0.53674 0.35031,0.76411c-0.00422,0.02597 0.00201,0.0689 0.01247,0.08581c0.26506,0.39632 0.55941,0.77442 0.92081,1.06408c0.2089,0.17409 0.40311,0.35724 0.66856,0.42594c0.82028,-0.51006 1.64046,-1.02012 2.50472,-1.55746c-0.41151,-0.30526 -0.73524,-0.66512 -1.0442,-1.03408c-0.27772,-0.31833 -0.44244,-0.68349 -0.69085,-1.02002c-0.08347,-0.13513 -0.14189,-0.26248 -0.22536,-0.39763c-0.05195,-0.24823 -0.14367,-0.49517 -0.28551,-0.75765c-0.43944,0.27325 -0.76608,0.66341 -1.15534,0.95223c-0.39348,0.31481 -0.77652,0.64652 -1.15531,0.95222c-0.00863,0.21578 0.04554,0.36915 0.09974,0.5225zM314.12054,180.40059c-0.00016,0.16378 0.06865,0.30805 0.15212,0.44313c0.02487,0.17159 0.13343,0.31454 0.21268,0.47565c0.27753,0.48209 0.62827,0.91867 0.99787,1.32009c0.22552,0.23383 0.48038,0.44947 0.77291,0.59487c0.05859,-0.03643 0.1276,-0.05598 0.18619,-0.09243c0.71778,-0.44628 1.4208,-0.88345 2.14895,-1.31286c0.77209,-0.45673 1.52953,-0.90433 2.30164,-1.36105c1.12363,-0.67534 2.24307,-1.32458 3.3667,-1.99994c1.2659,-0.74039 2.48582,-1.52237 3.77259,-2.22895c0.2155,-0.1106 0.42475,-0.26418 0.64449,-0.40076c-0.17335,-0.14935 -0.36557,-0.26363 -0.50965,-0.43123c-0.49702,-0.50925 -0.91659,-1.09008 -1.30687,-1.68909c-0.33388,-0.54053 -0.65312,-1.09023 -0.97235,-1.63992c-0.10634,-0.23784 -0.2169,-0.44963 -0.32325,-0.68746c0.00442,-0.18976 -0.11879,-0.3236 -0.17298,-0.47695c-0.06461,-0.17028 -0.08949,-0.34182 -0.20849,-0.50164c-0.16734,0.0573 -0.26367,0.16395 -0.35574,0.24459c-0.74943,0.72323 -1.59699,1.32033 -2.37769,1.99285c-0.50443,0.43058 -1.00889,0.86113 -1.50284,1.30861c-0.67398,0.58275 -1.32286,1.17327 -1.98218,1.74691c-0.53791,0.47481 -1.07588,0.94959 -1.62426,1.40745c-0.5819,0.5021 -1.15956,0.97818 -1.75188,1.46341c-0.53371,0.44878 -1.08209,0.90668 -1.62004,1.38146c0.07926,0.16112 0.05399,0.31715 0.15209,0.44317zM337.23298,173.83794c-0.36133,-0.28966 -0.63908,-0.60801 -0.93143,-0.91718c-0.30279,-0.32609 -0.60981,-0.62616 -0.89791,-0.96137c-0.27772,-0.31833 -0.53658,-0.67177 -0.7996,-0.99919c-0.2735,-0.34434 -0.54699,-0.68864 -0.81627,-1.05891c-0.24838,-0.33652 -0.49258,-0.69907 -0.741,-1.03561c-0.24417,-0.36251 -0.42981,-0.7615 -0.7326,-1.0876c-0.13123,-0.40935 -0.41937,-0.74458 -0.62387,-1.10843c-0.20022,-0.38983 -0.44025,-0.7784 -0.6405,-1.16824c-0.1898,-0.37294 -0.37539,-0.77193 -0.55059,-1.15399c-0.1856,-0.39897 -0.30216,-0.81747 -0.53172,-1.18904c-0.3724,0.18481 -0.47493,0.24855 -0.65512,0.54763c0.05195,0.24823 0.10393,0.49653 0.20608,0.7603c0.13344,0.31449 0.26686,0.62898 0.39609,0.96951c0.25221,0.63812 0.50869,1.25022 0.87387,1.84145c0.25041,0.40543 0.51551,0.80173 0.7073,1.24361c0.03751,0.09357 0.10012,0.19492 0.19201,0.27803c0.16916,0.17535 0.29014,0.40412 0.41536,0.60679c0.45909,0.74327 1.00609,1.4319 1.55732,2.09452c0.71194,0.89002 1.50552,1.68249 2.34307,2.44759c0.15872,0.15847 0.31742,0.31697 0.53271,0.3701c0.2406,-0.10282 0.44989,-0.25636 0.69686,-0.48004zM334.76064,165.92958c-0.27387,-0.01672 -0.50606,0.03409 -0.74863,0.06805c-0.21329,0.01569 -0.3995,0.10813 -0.53353,0.28499c-0.27428,0.31083 -0.5945,0.58013 -0.9565,0.78178c-0.0293,0.01821 -0.06283,0.06241 -0.07746,0.07152c0.00824,0.11176 0.05,0.17932 0.14611,0.2365c0.02505,0.00779 0.0648,0.00647 0.07946,-0.00265c0.45609,-0.21346 0.93301,-0.39309 1.43084,-0.539c0.06904,-0.01952 0.16733,-0.0573 0.20507,-0.12754c0.19264,-0.21329 0.38522,-0.42658 0.45466,-0.77373zM331.92287,166.2913c0.42677,-0.19524 0.85977,-0.34756 1.28857,-0.47391c0.13801,-0.03912 0.23015,-0.11972 0.316,-0.24327c0.12356,-0.19375 0.19705,-0.40309 0.28514,-0.62153c0.03773,-0.07022 0.09009,-0.1495 -0.00182,-0.23268c-0.30118,0.07038 -0.59817,0.11476 -0.87845,0.21889c-0.43781,0.66973 -0.43782,0.6697 -1.13041,1.12377c-0.01266,0.07801 0.01446,0.15469 0.12101,0.22871zM333.03954,171.3485c-0.3054,0.09636 -0.60039,0.20964 -0.89533,0.3229c-0.06905,0.01952 -0.13803,0.0391 -0.1862,0.09241c-0.16132,0.26395 -0.33305,0.51108 -0.39829,0.83218c0.30097,0.09342 0.55199,0.00747 0.81968,-0.01869c0.1338,-0.01307 0.21128,-0.08464 0.28251,-0.19908c0.1509,-0.28085 0.32266,-0.52797 0.51948,-0.7672c0.01464,-0.00911 0.00845,-0.05197 0.01686,-0.10396c-0.04593,-0.04156 -0.10236,-0.10007 -0.15873,-0.15849zM336.89136,169.28063c-0.37001,-0.07388 -0.65233,-0.03862 -0.94506,-0.02023c-0.10876,0.02085 -0.17153,0.08328 -0.23435,0.14572c-0.28892,0.31997 -0.60921,0.58921 -0.98582,0.80003c-0.04394,0.02731 -0.07747,0.07151 -0.12137,0.09884c0.10012,0.19492 0.13563,0.21962 0.25281,0.14674c0.38086,-0.23684 0.7992,-0.38003 1.24042,-0.4206c0.26767,-0.02615 0.433,-0.15234 0.57127,-0.35521c0.06082,-0.13135 0.11742,-0.23666 0.22214,-0.39529zM333.13943,168.29371c0.05219,0.08445 0.12121,0.06488 0.1798,0.02846c0.41012,-0.25499 0.88906,-0.36582 1.36806,-0.47658c0.38484,-0.09902 0.67999,-0.37608 0.84572,-0.82982c-0.20485,-0.03626 -0.36178,0.03791 -0.54577,0.03542c-0.38264,0.00412 -0.66091,0.17719 -0.91216,0.42691c-0.28049,0.26793 -0.5506,0.55279 -0.89369,0.71939c-0.03349,0.04423 -0.03776,0.07024 -0.04194,0.09623zM336.1464,168.10739c-0.23836,0.00794 -0.40773,-0.0037 -0.56664,0.00162c-0.26346,0.0002 -0.44965,0.09257 -0.61299,0.28762c-0.21571,0.2744 -0.48778,0.49035 -0.77025,0.68942c-0.09212,0.08067 -0.20928,0.15351 -0.31179,0.21726c0.03751,0.09357 0.09185,0.08313 0.12116,0.06492c0.47695,-0.1797 0.96431,-0.34244 1.47882,-0.42852c0.08366,-0.02865 0.1527,-0.0482 0.21549,-0.11062c0.1529,-0.21197 0.31624,-0.40705 0.44623,-0.72167zM333.84333,172.32163c-0.23657,0.24062 -0.53153,0.35385 -0.81606,0.48403c-0.07323,0.04554 -0.16314,0.03129 -0.21548,0.11061c-0.08588,0.12358 -0.19503,0.47199 -0.2121,0.73978c0.21954,0.02718 0.41613,-0.04834 0.61903,-0.08094c0.16314,-0.0313 0.26988,-0.12104 0.33488,-0.27838c0.12161,-0.26262 0.26406,-0.49149 0.46711,-0.68791c0.01468,-0.0091 0.02305,-0.06113 0.02728,-0.08709c-0.0271,-0.0767 -0.06882,-0.14424 -0.20468,-0.20005zM329.30823,167.1456c-0.14243,0.22886 -0.40192,0.3668 -0.49843,0.63724c0.08769,0.10914 0.19224,0.1143 0.29255,0.14543c0.19023,0.04537 0.36155,0.12586 0.57485,0.11015c0.20107,-0.26528 0.51489,-0.41368 0.74099,-0.67118c-0.00824,-0.11176 -0.06038,-0.19625 -0.14187,-0.26248c-0.31161,0.05351 -0.62946,0.06408 -0.96815,0.04088zM331.66605,169.4203c-0.16734,0.0573 -0.33469,0.11458 -0.48937,0.09387c-0.3742,-0.04789 -0.61277,0.12388 -0.7783,0.41384c-0.05658,0.10529 -0.14448,0.15995 -0.16978,0.31599c0.25084,0.07784 0.48499,0.09591 0.71914,0.11392c0.06483,0.00647 0.12339,-0.03 0.1862,-0.09241c0.17797,-0.20422 0.35171,-0.3824 0.5297,-0.58654c0.04396,-0.0273 0.08167,-0.09756 0.0024,-0.25871zM331.00872,168.35611c-0.36398,0.13281 -0.71954,0.21357 -1.08954,0.13972c-0.07522,-0.02335 -0.12338,0.02999 -0.18196,0.06643c-0.1214,0.09886 -0.23236,0.21462 -0.30157,0.39793c0.35116,0.10898 0.65013,0.13349 0.96373,0.1489c0.10454,0.00513 0.18819,-0.02348 0.26565,-0.09506c0.14029,-0.13392 0.29096,-0.25107 0.4312,-0.38504c0.01468,-0.0091 0.02309,-0.06113 0.02729,-0.08711c-0.0313,-0.05067 -0.06261,-0.10137 -0.11478,-0.1858zM336.96662,171.0108c0.10472,-0.15863 0.22416,-0.3264 0.3289,-0.48506c0.00422,-0.02597 0.00844,-0.05203 0.01684,-0.104c-0.24661,-0.10387 -0.485,-0.09591 -0.68784,-0.06333c-0.38103,0.40061 -0.73275,0.78297 -1.23079,1.09264c0.38043,0.09077 0.54173,-0.17322 0.76344,-0.24094c0.26566,-0.09506 0.53753,-0.14722 0.8094,-0.19938zM334.96608,165.47442c0.07143,-0.27821 0.1637,-0.52269 0.12017,-0.8229c-0.14426,-0.00382 -0.26968,-0.04274 -0.38887,-0.03874c-0.11918,0.00399 -0.24878,-0.00893 -0.35132,0.05485c-0.1005,0.13265 -0.11535,0.30556 -0.16572,0.45375c-0.05032,0.14823 -0.13626,0.27176 -0.12603,0.45242c0.30741,-0.02751 0.58971,-0.06272 0.91177,-0.09931zM331.22581,165.22841c0.48114,-0.20566 0.87864,-0.38273 1.27611,-0.55971c0.0293,-0.01821 0.0837,-0.02862 0.09211,-0.08064c0.08807,-0.21844 0.22633,-0.42132 0.19322,-0.70463c-0.2468,0.05993 -0.47897,0.11078 -0.70071,0.17851c-0.20126,0.42908 -0.49437,0.77502 -0.86077,1.16653zM330.90259,171.36802c0.19645,0.08828 0.36377,0.03097 0.52267,0.0257c0.184,0.0025 0.33667,-0.04567 0.45606,-0.21345c0.16753,-0.22107 0.33509,-0.44217 0.59035,-0.55413c-0.04376,-0.13649 -0.10013,-0.19493 -0.18801,-0.14028c-0.23012,0.11973 -0.47493,0.24855 -0.72795,0.26561c-0.36177,0.03792 -0.49808,0.30969 -0.65314,0.61659zM330.19193,169.49532c-0.38466,-0.06477 -0.68983,-0.13216 -0.98458,-0.1827c-0.10252,0.06375 -0.12984,0.15085 -0.16752,0.22106c-0.02729,0.08711 -0.09428,0.17552 -0.05057,0.31198c0.23199,0.11297 0.48276,0.1908 0.73778,0.24268c0.1591,-0.16906 0.29314,-0.34596 0.46491,-0.59301zM331.11229,172.59366c0.12582,-0.28863 0.23274,-0.5422 0.35434,-0.80482c-0.26345,0.00016 -0.51229,-0.00878 -0.76107,-0.01776c-0.11738,0.23664 -0.24101,0.43041 -0.24758,0.71505c0.22571,0.07006 0.43481,0.08033 0.65433,0.10751zM335.93568,165.99382c-0.21309,-0.14807 -0.43481,-0.08033 -0.64389,-0.09064c-0.06483,-0.00647 -0.1276,0.05594 -0.15068,0.1171c-0.08388,0.19243 -0.16355,0.35886 -0.23281,0.54218c-0.01464,0.00911 0.00625,0.04291 0.0271,0.0767c0.2781,-0.00923 0.56038,-0.04458 0.8385,-0.05379c0.0943,-0.17551 0.128,-0.38353 0.16169,-0.59155zM337.07804,168.8608c0.11938,-0.16777 0.22412,-0.32638 0.21191,-0.57596c-0.21531,-0.05316 -0.45148,-0.14013 -0.67942,-0.11529c-0.07124,0.11442 -0.16333,0.19507 -0.20948,0.31729c-0.05658,0.10527 -0.18423,0.16127 -0.13422,0.34065c0.27389,0.01674 0.54775,0.03346 0.81126,0.03334zM331.47762,173.02101c-0.0901,0.14953 -0.06941,0.34712 -0.0634,0.55378c0.25923,0.02589 0.49541,0.11276 0.74221,0.05287c0.03371,-0.20802 0.14265,-0.39264 0.14506,-0.65134c-0.2781,0.00923 -0.54578,0.0354 -0.82388,0.04467zM334.72457,173.22323c-0.27409,0.14705 -0.52107,0.37081 -0.81606,0.48405c-0.24058,0.10283 -0.28468,0.29396 -0.27668,0.56953c0.23413,0.01805 0.41615,-0.04835 0.62321,-0.10697c0.09869,-0.36532 0.32483,-0.62288 0.46951,-0.94661zM330.84659,164.15495c0.05637,0.05847 0.1003,0.03112 0.14426,0.00382c0.20084,-0.10151 0.40593,-0.22902 0.61721,-0.31364c0.32003,-0.1055 0.36215,-0.3655 0.38764,-0.68529c-0.12343,0.02997 -0.2175,0.04175 -0.30116,0.07037c-0.20706,0.05865 -0.3786,0.1419 -0.44585,0.39414c-0.05032,0.14823 -0.16134,0.26397 -0.25764,0.37067c-0.06905,0.01952 -0.16312,0.03129 -0.14447,0.15995zM328.47673,166.58719c0.11075,0.04803 0.20067,0.06229 0.27589,0.08563c0.2215,0.09606 0.38467,0.06477 0.53957,-0.07835c0.12561,-0.12483 0.29717,-0.20815 0.4332,-0.31613c0.04397,-0.0273 0.09832,-0.03776 0.03993,-0.16511c-0.25725,0.04301 -0.53536,0.05232 -0.81968,0.01868c-0.06483,-0.00647 -0.13801,0.03908 -0.19661,0.07549c-0.09629,0.10663 -0.178,0.2042 -0.27227,0.37974zM330.43846,171.30584c0.10472,-0.15863 0.23456,-0.3095 0.29331,-0.50976c-0.26546,-0.06872 -0.51205,-0.17256 -0.77552,-0.17244c-0.08386,0.19243 -0.19904,0.33417 -0.17216,0.57466c0.21532,0.05318 0.42641,0.13237 0.65432,0.10749zM335.63668,167.67603c0.26545,0.0687 0.50384,0.06078 0.72132,0.01904c0.08388,-0.19243 0.1635,-0.35886 0.20142,-0.59288c-0.17136,-0.08051 -0.34073,-0.09207 -0.51426,-0.07769c-0.12779,0.21976 -0.26604,0.42265 -0.40852,0.65149zM328.83609,170.22138c-0.03993,0.16515 -0.08187,0.26131 -0.08826,0.38221c-0.01263,0.078 -0.01065,0.14688 -0.00862,0.21579c0.17757,0.12337 0.37401,0.21166 0.58309,0.22195c0.0943,-0.17551 0.18858,-0.35107 0.18677,-0.58378c-0.22571,-0.07006 -0.42218,-0.15833 -0.67297,-0.23617zM329.41295,165.28022c-0.29056,-0.07648 -0.49118,-0.13879 -0.73157,-0.19977c-0.06904,0.01952 -0.16111,0.10015 -0.2177,0.2055c-0.06701,0.08842 -0.1904,0.11839 -0.20106,0.26531c0.13786,0.1247 0.2737,0.18051 0.4284,0.20123c0.22391,-0.16264 0.44366,-0.29921 0.72194,-0.47225zM335.48565,164.70724c-0.02105,0.13003 -0.04214,0.26004 -0.06322,0.39002c-0.02104,0.13004 -0.02748,0.25092 -0.04854,0.3809c0.23413,0.01807 0.42439,0.06346 0.60636,-0.00293c0.05657,-0.1053 0.02326,-0.22489 0.01507,-0.33666c-0.00824,-0.11176 0.02746,-0.25089 -0.06021,-0.36001c-0.16517,-0.0376 -0.30097,-0.09341 -0.44948,-0.07123zM330.03158,172.35383c0.06298,-0.2262 0.18662,-0.41998 0.17855,-0.69559c-0.19023,-0.04535 -0.36999,-0.07386 -0.56023,-0.11926c-0.06298,0.2262 -0.13225,0.40955 -0.08024,0.6578c0.14628,0.07269 0.26327,0.16365 0.46192,0.15702zM333.1211,164.42397c0.32626,-0.06257 0.61278,-0.12384 0.89926,-0.18511c0.04618,-0.12223 0.10276,-0.22756 0.05899,-0.364c-0.27591,-0.08564 -0.53311,-0.04257 -0.80079,-0.01641c-0.04618,0.12223 -0.09232,0.24443 -0.11339,0.37443c-0.04818,0.05333 -0.04192,0.09619 -0.04415,0.1911zM328.93607,168.87345c0.0985,-0.20157 0.2743,-0.31084 0.308,-0.51886c-0.26125,-0.09472 -0.49741,-0.18167 -0.7567,-0.20754c-0.02949,0.18204 -0.17597,0.27306 -0.15951,0.49666c0.17756,0.12336 0.37204,0.14278 0.60819,0.22974zM337.82579,169.44777c-0.16094,-0.0636 -0.32606,-0.10118 -0.48501,-0.09589c-0.11315,0.21067 -0.23676,0.40439 -0.3792,0.63328c0.2237,0.00115 0.40349,0.02966 0.63346,0.07374c0.11316,-0.21067 0.22213,-0.39531 0.23076,-0.61112zM328.20667,166.87203c-0.1487,0.18596 -0.27849,0.33684 -0.29136,0.57863c0.15671,0.08959 0.28831,0.17143 0.44725,0.16614c0.13405,-0.17686 0.27846,-0.33682 0.43138,-0.54881c-0.19645,-0.08828 -0.38247,-0.15966 -0.5873,-0.19593zM336.80327,167.79234c0.2488,0.00896 0.45151,0.14011 0.63349,0.0737c0.08388,-0.19243 0.08828,-0.38222 0.06762,-0.57982c-0.18601,-0.07136 -0.35736,-0.15188 -0.54979,-0.1024c-0.04415,0.1911 -0.09868,0.36534 -0.15129,0.60845zM330.9941,173.48544c0.0295,-0.18202 0.07984,-0.33021 0.04452,-0.51869c-0.23413,-0.01805 -0.45148,-0.14013 -0.68364,-0.0893c-0.03993,0.16513 -0.03592,0.30292 0.04335,0.46406c0.20064,0.06227 0.40549,0.09857 0.59571,0.14391zM332.90485,163.48302c0.0546,-0.17423 0.06097,-0.29508 0.03193,-0.44071c-0.19023,-0.04537 -0.39932,-0.05568 -0.57504,0.05365c-0.02528,0.15601 -0.05056,0.31197 -0.09051,0.47711c0.24461,0.03498 0.43079,-0.05742 0.63366,-0.09008zM334.21447,174.9902c0.01065,-0.14685 0.01704,-0.2678 -0.03088,-0.37823c-0.20905,-0.01029 -0.39727,0.01327 -0.57927,0.07965c-0.03574,0.13906 -0.04214,0.25999 0.00161,0.39645c0.21954,0.02718 0.40571,-0.06525 0.60856,-0.09788zM328.74706,171.25879c-0.11316,0.21063 -0.04433,0.35489 0.06421,0.49782c0.07302,0.11825 0.17538,0.21829 0.32385,0.1961c0.0546,-0.17423 0.09452,-0.33931 0.07385,-0.53691c-0.16094,-0.0636 -0.31143,-0.1103 -0.4619,-0.15702zM337.44238,171.81379c0.10052,-0.13264 0.21769,-0.2055 0.21789,-0.36927c-0.4577,-0.18301 -0.68386,0.07447 -0.88706,0.43469c0.22793,-0.02482 0.44127,-0.04055 0.66917,-0.06539zM328.11352,169.47834c0.15248,0.11563 0.28832,0.17141 0.48276,0.1908c0.00017,-0.16378 0.13621,-0.27179 0.11133,-0.44333c-0.07725,-0.09229 -0.15669,-0.0896 -0.24238,-0.12986c-0.1003,-0.03112 -0.18179,-0.09739 -0.28433,-0.03365c-0.04618,0.12223 -0.09232,0.24446 -0.06743,0.41604zM333.43798,168.64578c0.02688,0.24044 0.11878,0.32361 0.26103,0.25852c0.20086,-0.1015 0.38084,-0.23679 0.54619,-0.363c0.05858,-0.0364 0.12137,-0.0989 0.08806,-0.21845c-0.31583,0.07949 -0.61075,0.19275 -0.89529,0.32289zM331.55955,174.46651c-0.06701,0.08841 -0.06922,0.18333 -0.02128,0.29381c0.23618,0.08696 0.47858,0.21682 0.74624,0.19068c-0.03734,-0.25735 -0.16052,-0.39122 -0.38003,-0.41836c-0.10032,-0.03112 -0.20691,-0.10519 -0.34494,-0.0661zM334.98263,170.81827c0.14605,0.23647 0.2067,0.26892 0.3385,0.187c0.19463,-0.14441 0.40391,-0.2979 0.55679,-0.5099c-0.34714,0.0288 -0.66918,0.06539 -0.89531,0.3229zM335.05797,174.25524c-0.12759,0.05596 -0.23015,0.11977 -0.3431,0.16659c-0.21553,0.11059 -0.2155,0.11062 -0.10095,0.46026c0.12343,-0.02997 0.27191,-0.05215 0.34089,-0.0717c0.03374,-0.20802 0.07364,-0.37311 0.10312,-0.55512zM337.46164,166.33097c-0.13586,-0.05584 -0.25906,-0.18962 -0.42018,-0.08945c-0.01064,0.14687 0.0038,0.30158 -0.01103,0.47445c0.16095,0.06362 0.31762,0.15324 0.46611,0.13102c0.00014,-0.16381 0.0255,-0.31981 -0.0349,-0.51605zM333.26423,173.94423c-0.24255,0.03398 -0.4956,0.05097 -0.73819,0.08494c-0.05233,0.07932 -0.07966,0.1664 0.01222,0.24952c0.22571,0.07006 0.45992,0.08814 0.68162,0.0204c0.04618,-0.12223 0.06298,-0.22622 0.0443,-0.35492zM337.96927,170.10682c0.08769,0.10914 0.19845,0.15722 0.32808,0.1701c0.03773,-0.07022 0.07543,-0.14044 0.11314,-0.21067c0.04195,-0.09618 0.09428,-0.17554 0.06096,-0.29511c-0.06259,-0.10135 -0.14403,-0.16762 -0.25904,-0.18963c-0.07965,0.16646 -0.1635,0.35891 -0.24319,0.52528zM336.20675,166.59685c0.16095,0.06362 0.30522,0.06742 0.45368,0.04524c0.00442,-0.18976 0.01924,-0.36268 0.01945,-0.52643c-0.12745,-0.1078 -0.25704,-0.12074 -0.35537,-0.08299c-0.04416,0.19108 -0.08828,0.38221 -0.11783,0.56421zM337.93253,171.06476c0.05657,-0.1053 0.11316,-0.21062 0.15934,-0.33285c0.0042,-0.02596 -0.01667,-0.05981 -0.0229,-0.10272c-0.08568,-0.04026 -0.17758,-0.12339 -0.32607,-0.1012c-0.08588,0.12359 -0.21143,0.24844 -0.2556,0.43953c0.15671,0.08956 0.28632,0.10247 0.44524,0.09721zM337.22597,172.74346c0.17154,-0.08331 0.31565,0.0843 0.4621,-0.00677c0.07542,-0.14042 0.19684,-0.23927 0.23054,-0.4473c-0.14628,-0.07269 -0.28214,-0.12852 -0.38263,0.00414c-0.10052,0.13264 -0.24275,0.19771 -0.31,0.44993zM332.77993,175.06377c0.14426,0.0038 0.29897,0.02449 0.42856,0.03744c0.02509,0.00779 0.04397,-0.02732 0.07323,-0.04555c-0.02289,-0.10269 -0.00179,-0.23269 -0.13968,-0.35736c-0.16934,-0.01156 -0.35333,-0.01412 -0.5478,-0.03348c0.01444,0.15468 0.06242,0.26515 0.1856,0.39897zM336.65541,165.61649c0.0253,-0.15599 0.06522,-0.32112 0.08627,-0.45109c-0.13784,-0.12472 -0.2737,-0.18054 -0.3991,-0.21944c-0.09212,0.08068 -0.03368,0.20798 -0.03591,0.30291c-0.00218,0.09493 -0.01905,0.19889 0.06865,0.30806c0.07103,0.04934 0.15672,0.08961 0.28013,0.05964zM327.73093,167.77572c-0.05032,0.14823 -0.08189,0.26134 -0.11337,0.37444c-0.01889,0.03511 -0.00223,0.09491 -0.00642,0.12091c0.07302,0.11825 0.18381,0.16631 0.31343,0.17919c0.06498,-0.15734 0.14044,-0.29778 0.16999,-0.47972c-0.10655,-0.07401 -0.21732,-0.12206 -0.36358,-0.19478zM335.35426,174.70213c0.23217,-0.05082 0.46429,-0.10167 0.63808,-0.27984c-0.13784,-0.12471 -0.23599,-0.25077 -0.40531,-0.26236c-0.19684,0.23927 -0.19684,0.23929 -0.23276,0.54218zM328.08581,169.89295c-0.10095,0.46026 -0.09049,0.47709 0.24384,0.69009c0.03993,-0.16515 0.05476,-0.33798 0.09473,-0.50311c-0.08769,-0.10914 -0.19843,-0.15715 -0.33849,-0.18701zM337.97269,169.0292c0.06499,-0.15732 0.10071,-0.29645 0.07584,-0.46803c-0.03552,-0.02468 -0.09613,-0.05715 -0.15673,-0.08962c-0.05017,-0.01557 -0.115,-0.02202 -0.1651,-0.0376c-0.06498,0.15734 -0.15508,0.3069 -0.14485,0.48757c0.10654,0.07401 0.24661,0.10387 0.39086,0.10763zM327.7933,166.33409c0.06059,0.03244 0.14628,0.07268 0.20067,0.06229c0.19243,-0.0495 0.31798,-0.17437 0.4061,-0.39283c-0.12118,-0.06494 -0.23395,-0.18184 -0.35318,-0.17786c-0.10472,0.15863 -0.25542,0.27573 -0.2536,0.50841zM334.10708,163.46015c0.00422,-0.02597 0.00842,-0.05199 0.01684,-0.104c-0.25286,-0.14674 -0.5183,-0.21548 -0.78374,-0.28419c-0.07122,0.11442 -0.07341,0.20932 -0.00461,0.35355c0.2488,0.00896 0.50802,0.03476 0.77151,0.03464zM334.97373,169.49107c-0.28233,0.03526 -0.56038,0.04454 -0.79898,0.21626c-0.01468,0.0091 -0.00218,0.0949 0.01867,0.12867c0.0522,0.08444 0.15251,0.11559 0.22572,0.07002c0.22172,-0.06771 0.39128,-0.21992 0.55458,-0.41496zM338.14103,168.15293c0.03577,-0.1391 0.07145,-0.27822 0.05699,-0.43291c-0.07302,-0.11825 -0.1545,-0.18451 -0.30917,-0.20522c-0.01483,0.17291 -0.04436,0.35491 -0.04456,0.51869c0.09187,0.08312 0.17756,0.12336 0.29675,0.11941zM329.43749,172.60639c0.13143,0.2456 0.24196,0.45744 0.4697,0.59638c0.1005,-0.13264 0.08609,-0.28732 0.04656,-0.4498c-0.17136,-0.08048 -0.31762,-0.1532 -0.5163,-0.14656zM328.52728,164.56844c0.1818,0.09741 0.20683,0.1052 0.25082,0.07789c0.15689,-0.07416 0.23659,-0.24062 0.30158,-0.39794c0.02306,-0.06108 -0.01448,-0.15469 -0.13366,-0.15071c-0.06924,0.18332 -0.3014,0.23417 -0.41874,0.47083zM334.42189,164.19957c0.25923,0.02589 0.51428,0.07768 0.7737,-0.06028c-0.2486,-0.17269 -0.49743,-0.18169 -0.71692,-0.20883c-0.06283,0.06241 -0.06077,0.13131 -0.05676,0.26911zM327.80072,168.80773c-0.09612,-0.05714 -0.17758,-0.12336 -0.27368,-0.18051c-0.07967,0.16645 -0.11959,0.33155 0.03914,0.49003c0.04594,0.04159 0.09187,0.08311 0.16094,0.0636c0.06701,-0.08842 0.07344,-0.20935 0.07363,-0.37311zM335.82817,171.85904c0.09394,0.15202 0.16491,0.20138 0.27165,0.11163c0.09212,-0.08067 0.1842,-0.1613 0.26586,-0.25885c0.03347,-0.04424 0.05661,-0.10534 0.00021,-0.1638c-0.20707,0.05862 -0.36818,0.15881 -0.53772,0.311zM332.15619,165.25774c-0.23219,0.05082 -0.44343,0.13547 -0.60255,0.30453c-0.01467,0.00912 -0.00218,0.09489 0.00823,0.11176c0.02086,0.03377 0.08567,0.04024 0.11499,0.02202c0.17998,-0.13528 0.37663,-0.21081 0.47937,-0.43839zM331.1574,164.75665c0.11517,-0.14176 0.27633,-0.24196 0.37486,-0.44347c-0.24257,0.03396 -0.42457,0.10035 -0.48115,0.20568c-0.06701,0.08842 -0.02531,0.15601 0.10632,0.2378zM330.62534,174.1356c0.16916,0.17538 0.31528,0.41189 0.56405,0.42083c-0.07066,-0.3769 -0.31944,-0.38584 -0.56405,-0.42083zM333.14503,172.24144c0.02086,0.03375 0.04598,0.04162 0.06683,0.07538c0.13601,-0.10796 0.30958,-0.12239 0.38923,-0.28882c-0.04793,-0.11046 -0.0939,-0.15203 -0.19844,-0.15716c-0.07122,0.11442 -0.15711,0.23795 -0.25762,0.37066zM333.42275,167.43949c-0.23636,0.07684 -0.41836,0.14326 -0.5837,0.26943c-0.0293,0.01821 -0.03773,0.07021 -0.00642,0.12088c0.01045,0.01691 0.04594,0.04157 0.07103,0.04934c0.23217,-0.05082 0.4079,-0.16012 0.51906,-0.43967zM327.79491,166.73057c-0.09189,-0.08312 -0.15247,-0.1156 -0.17556,-0.05448c-0.07122,0.11442 -0.13201,0.24578 -0.19282,0.37709c-0.02729,0.0871 0.00401,0.13777 0.0939,0.15202c0.12984,-0.15084 0.23036,-0.28352 0.2745,-0.47462zM337.89564,167.06641c0.08568,0.04026 0.15674,0.08961 0.24239,0.12986c0.02507,0.0078 0.05437,-0.01045 0.10876,-0.02085c-0.12517,-0.2027 -0.19603,-0.41583 -0.39024,-0.59901c-0.01483,0.17291 -0.02127,0.29379 0.03915,0.49004zM330.63309,167.74792c-0.13606,0.10797 -0.25745,0.20685 -0.42279,0.33303c0.25084,0.07784 0.41394,0.04657 0.54997,-0.06142c-0.00823,-0.11178 -0.02487,-0.17157 -0.1272,-0.27163zM334.27552,172.8244c-0.06082,0.13135 -0.24277,0.19771 -0.21591,0.43818c0.38282,-0.16794 0.45605,-0.21346 0.4332,-0.31617c-0.0522,-0.08444 -0.11277,-0.11694 -0.21732,-0.12207zM332.76737,166.44417c-0.34492,-0.06611 -0.52065,0.04323 -0.69867,0.2474c0.32185,0.12719 0.44342,-0.13547 0.69867,-0.2474zM337.08849,172.29111c-0.31985,-0.05832 -0.48098,0.04189 -0.63587,0.18497c-0.01464,0.00911 -0.00843,0.052 0.01244,0.08577c0.03129,0.05069 0.08147,0.06624 0.11074,0.04801c0.15691,-0.07415 0.29293,-0.18213 0.51263,-0.31876zM334.9961,173.49872c-0.10052,0.13264 -0.23656,0.24064 -0.23474,0.47325c0.17779,-0.04041 0.29917,-0.13929 0.40592,-0.22902c-0.01867,-0.12868 -0.07502,-0.18711 -0.17118,-0.24427zM338.06949,172.00848c0.05879,-0.20023 0.21992,-0.30042 0.17415,-0.50578c-0.23636,0.07684 -0.23636,0.07684 -0.32667,0.39014c0.03552,0.02468 0.07103,0.04934 0.1525,0.11561zM331.46411,173.91805c0.19003,0.20916 0.39489,0.24545 0.60396,0.25571c0.05657,-0.1053 0.01483,-0.17291 -0.06039,-0.19625c-0.16935,-0.01156 -0.34914,-0.04008 -0.54356,-0.05944zM338.31966,169.16418c0.07726,0.09229 0.14407,0.1676 0.26322,0.16362c0.03149,-0.11311 0.06305,-0.22622 0.01507,-0.33664c-0.06681,-0.07537 -0.12743,-0.10782 -0.20691,-0.10517c-0.05235,0.07933 -0.06501,0.15734 -0.0714,0.27823zM331.76538,170.27042c0.14847,-0.02218 0.25728,-0.04304 0.32427,-0.13149c0.01889,-0.03511 0.01264,-0.078 0.00641,-0.1209c-0.03129,-0.05069 -0.10233,-0.10006 -0.13583,-0.05584c-0.08791,0.05466 -0.19043,0.1184 -0.19484,0.30823zM337.36192,165.80844c-0.04998,-0.17937 -0.20669,-0.26896 -0.31947,-0.38586c-0.06523,0.32113 -0.0443,0.35489 0.31947,0.38586zM330.58778,163.80156c0.26144,-0.06905 0.26144,-0.06904 0.25544,-0.27574c-0.10876,0.02085 -0.23217,0.05084 -0.25544,0.27574zM332.79733,171.05484c0.00218,-0.09493 -0.0291,-0.14559 -0.06882,-0.14425c-0.16935,-0.01156 -0.20287,0.03262 -0.24077,0.26664c0.13381,-0.01304 0.22175,-0.0677 0.30962,-0.12237zM337.40952,173.07346c-0.12542,-0.0389 -0.2404,-0.06092 -0.32202,0.03657c0.2109,0.24292 0.25057,0.24164 0.32202,-0.03657zM330.88128,163.12806c-0.16517,-0.0376 -0.29276,0.01833 -0.40569,0.06521c-0.05859,0.03641 -0.07124,0.11446 0.04997,0.17938c0.11295,-0.04688 0.2406,-0.10284 0.35574,-0.24458zM338.49946,170.89939c-0.16734,0.0573 -0.20931,0.15349 -0.15511,0.30688c0,0 0.03552,0.02468 0.05017,0.01556c0.09831,-0.03779 0.09432,-0.17552 0.10497,-0.32246zM331.18346,169.06571c0.09189,0.08312 0.17138,0.08051 0.21952,0.02717c0.0293,-0.01821 0.03772,-0.07024 0.03151,-0.11311c-0.00624,-0.04291 -0.06679,-0.07534 -0.0961,-0.0571c-0.05438,0.01043 -0.11294,0.04686 -0.15491,0.14307zM338.47135,168.22824c-0.06081,0.13134 -0.06303,0.22622 0.07908,0.32492c0.06498,-0.15734 0.05258,-0.24311 -0.07908,-0.32492z" fill="url(#color-11)"/><path d="M325.90246,172.069c0.31923,0.54966 0.63847,1.09939 0.97238,1.63993c0.37564,0.60815 0.80984,1.17982 1.30687,1.68909c0.15872,0.15849 0.32581,0.26497 0.50962,0.43126c-0.23438,0.14574 -0.42896,0.29015 -0.64447,0.40074c-1.27212,0.69748 -2.50672,1.48853 -3.77261,2.22894c-1.1341,0.6584 -2.24305,1.32464 -3.36671,1.99995c-0.7721,0.45673 -1.52956,0.90432 -2.30166,1.36103c-0.72818,0.42939 -1.42077,0.88347 -2.14894,1.31288c-0.05859,0.03643 -0.11718,0.07287 -0.18621,0.0924c-0.30722,-0.13628 -0.53694,-0.34417 -0.7729,-0.59488c-0.36962,-0.40147 -0.72035,-0.83801 -0.99785,-1.32009c-0.09394,-0.15202 -0.20248,-0.29495 -0.21266,-0.47563c0.12322,0.13383 0.18361,0.33005 0.3716,0.47032c0.16133,-0.26392 0.44163,-0.36813 0.66557,-0.53075c0.01464,-0.00911 0.02929,-0.0182 0.01887,-0.03508c0.31201,-0.38104 0.73681,-0.64515 1.09476,-0.98466c0.1256,-0.12484 0.2199,-0.30042 0.38722,-0.35772c0.31384,-0.14835 0.49821,-0.47347 0.81205,-0.62186c0.01464,-0.00911 0.03351,-0.04423 0.06282,-0.06243c0.24696,-0.22371 0.46893,-0.45521 0.73676,-0.64517c0.32224,-0.20037 0.53174,-0.51769 0.87482,-0.68427c0.12779,-0.21976 0.33912,-0.30434 0.53374,-0.44875c0.0293,-0.01821 0.04394,-0.02735 0.07323,-0.04552c0.20948,-0.31731 0.5588,-0.44101 0.81004,-0.69075c0.25121,-0.24972 0.57966,-0.40721 0.8413,-0.64005c0.30561,-0.26015 0.56519,-0.5619 0.94807,-0.7298c0.0293,-0.01821 0.07326,-0.04553 0.09211,-0.08065c0.0985,-0.20157 0.30558,-0.26016 0.47093,-0.38633c0.08791,-0.05466 0.20083,-0.10149 0.26786,-0.18994c0.09011,-0.14951 0.2177,-0.2055 0.34954,-0.28749c0.07323,-0.04554 0.15694,-0.07419 0.19461,-0.1444c0.12779,-0.21976 0.35372,-0.31348 0.54413,-0.43188c0.07323,-0.04554 0.15689,-0.07419 0.19464,-0.1444c0.10896,-0.18461 0.2805,-0.26796 0.44165,-0.36812c0.26366,-0.16398 0.45428,-0.44613 0.72834,-0.59316c0.05437,-0.01044 0.06704,-0.08839 0.10052,-0.13264z" fill="#87d7dc"/><path d="M325.90243,172.06901c-0.03351,0.04422 -0.04614,0.12223 -0.09009,0.14955c-0.27408,0.14708 -0.47514,0.41233 -0.72835,0.59319c-0.16112,0.10017 -0.33269,0.1835 -0.44164,0.36811c-0.03773,0.07022 -0.1214,0.09886 -0.19458,0.14441c-0.19039,0.11841 -0.40593,0.22898 -0.54419,0.43185c-0.03773,0.07022 -0.13184,0.08199 -0.19461,0.14443c-0.13182,0.08197 -0.24903,0.15484 -0.34954,0.28749c-0.06701,0.08842 -0.18001,0.1353 -0.26789,0.18995c-0.16531,0.12618 -0.37239,0.18482 -0.47092,0.38634c-0.01889,0.03511 -0.06281,0.06242 -0.09209,0.08064c-0.36821,0.15881 -0.6425,0.46968 -0.94807,0.72982c-0.27633,0.24196 -0.60475,0.39941 -0.84134,0.64002c-0.25118,0.24973 -0.60053,0.37343 -0.80999,0.69073c-0.00424,0.02598 -0.04397,0.02732 -0.07327,0.04554c-0.19039,0.11841 -0.4059,0.22903 -0.53372,0.44878c-0.35355,0.14968 -0.56302,0.46702 -0.87484,0.68425c-0.27831,0.17304 -0.48977,0.42145 -0.7368,0.64516c-0.0293,0.01821 -0.03351,0.04426 -0.0628,0.06245c-0.31384,0.14835 -0.4982,0.47346 -0.81205,0.62186c-0.17153,0.0833 -0.25124,0.24974 -0.38723,0.35771c-0.3684,0.32258 -0.78273,0.60362 -1.09475,0.98466c-0.01464,0.00911 -0.01885,0.03514 -0.01885,0.03514c-0.22393,0.16264 -0.50426,0.2668 -0.66558,0.53076c-0.17757,-0.12337 -0.22332,-0.32875 -0.37161,-0.47034c-0.08347,-0.13513 -0.16691,-0.27029 -0.15206,-0.44322c0.08791,-0.05466 0.20084,-0.10151 0.26784,-0.18993c0.23456,-0.3095 0.55261,-0.48385 0.83934,-0.70893c0.2867,-0.22504 0.52125,-0.53458 0.87479,-0.68426c0.12779,-0.21976 0.33909,-0.30439 0.53373,-0.44879c0.0293,-0.01821 0.07323,-0.04554 0.0921,-0.08065c0.07966,-0.16645 0.24697,-0.22369 0.36841,-0.32259c0.07323,-0.04554 0.14647,-0.0911 0.19463,-0.14441c0.27007,-0.28485 0.56519,-0.5619 0.90212,-0.7714c0.04397,-0.0273 0.11298,-0.04684 0.12137,-0.09887c0.09429,-0.1755 0.25118,-0.24974 0.39766,-0.34082c0.17153,-0.0833 0.24499,-0.29264 0.43121,-0.38501c0.2448,-0.12884 0.41233,-0.34993 0.62582,-0.52944c0.30137,-0.23419 0.54637,-0.52677 0.88326,-0.73623c0.05859,-0.03643 0.14228,-0.06508 0.16535,-0.1262c0.07548,-0.14042 0.21768,-0.20552 0.33908,-0.30438c0.11718,-0.07285 0.22391,-0.1626 0.30563,-0.26014c0.1487,-0.18596 0.31821,-0.33816 0.52328,-0.4657c0.29715,-0.20815 0.53171,-0.51767 0.88523,-0.66738c0.0293,-0.01821 0.06282,-0.0624 0.09213,-0.08064c0.27633,-0.24196 0.54214,-0.5008 0.83931,-0.7089c0.32224,-0.20037 0.56102,-0.53592 0.90414,-0.70248c0.04397,-0.0273 0.06698,-0.08842 0.10052,-0.13264c0.16954,-0.15218 0.36418,-0.29658 0.58589,-0.36431c0.0668,0.07537 0.10856,0.1429 0.16493,0.2014c0.10213,0.26383 0.19804,0.48474 0.31904,0.71347z" fill="#b0eef2"/><path d="M337.23295,173.83793c-0.24696,0.22369 -0.45628,0.37722 -0.71773,0.44628c-0.20067,-0.06229 -0.3594,-0.22074 -0.53272,-0.37012c-0.82288,-0.77423 -1.6311,-1.5576 -2.34305,-2.44763c-0.53656,-0.67174 -1.08355,-1.36036 -1.5573,-2.09453c-0.1252,-0.2027 -0.24622,-0.43143 -0.41535,-0.60683c-0.0668,-0.07537 -0.12943,-0.17673 -0.19202,-0.27805c-0.19183,-0.44187 -0.47153,-0.82905 -0.70731,-1.24361c-0.34014,-0.58346 -0.62167,-1.20337 -0.87388,-1.84145c-0.11879,-0.32359 -0.25222,-0.63812 -0.39611,-0.96949c-0.11674,-0.2547 -0.15411,-0.51206 -0.20608,-0.76032c0.19062,-0.28219 0.2827,-0.36283 0.65512,-0.54763c0.21491,0.3807 0.34615,0.79012 0.53172,1.18906c0.17516,0.38207 0.36076,0.781 0.55059,1.15399c0.20024,0.38983 0.4256,0.78752 0.64049,1.16823c0.1898,0.37294 0.47798,0.70812 0.62386,1.10845c0.3028,0.3261 0.48837,0.72506 0.73258,1.0876c0.23376,0.34563 0.49263,0.69903 0.74103,1.03559c0.25886,0.35342 0.53232,0.69771 0.81625,1.05896c0.26306,0.32743 0.52188,0.68085 0.79963,0.99917c0.28814,0.33518 0.59513,0.6353 0.89792,0.96142c0.31322,0.34299 0.59092,0.66129 0.95231,0.95097z" fill="url(#color-12)"/><path d="M325.57913,171.38154c-0.05637,-0.05847 -0.09814,-0.12604 -0.16494,-0.20138c-0.22172,0.06775 -0.4121,0.18611 -0.58589,0.36431c-0.03353,0.04422 -0.05659,0.10531 -0.10052,0.13264c-0.34311,0.16657 -0.59232,0.48523 -0.90414,0.70248c-0.3076,0.19126 -0.56302,0.46699 -0.83934,0.70889c-0.0293,0.01821 -0.06282,0.06244 -0.0921,0.08065c-0.35356,0.14967 -0.56304,0.46696 -0.88527,0.66736c-0.19039,0.11841 -0.37461,0.2797 -0.52326,0.4657c-0.0963,0.10661 -0.20305,0.19641 -0.30561,0.26015c-0.13182,0.08197 -0.25943,0.13795 -0.33909,0.30438c-0.02307,0.06109 -0.10676,0.08975 -0.16535,0.12618c-0.32224,0.20037 -0.58186,0.5021 -0.88324,0.73626c-0.21351,0.1795 -0.38102,0.40061 -0.62582,0.52943c-0.17153,0.0833 -0.24498,0.29262 -0.4312,0.38502c-0.1569,0.07417 -0.32845,0.15748 -0.39772,0.34081c-0.03353,0.04422 -0.07745,0.07153 -0.12136,0.09886c-0.33687,0.20946 -0.6174,0.47737 -0.9021,0.77139c-0.06283,0.06241 -0.14643,0.09109 -0.19461,0.14439c-0.13182,0.08197 -0.2887,0.1562 -0.36837,0.32262c-0.01889,0.03511 -0.0628,0.06244 -0.09208,0.08064c-0.19039,0.11841 -0.40592,0.22902 -0.53372,0.44878c-0.35355,0.14969 -0.58811,0.45923 -0.87481,0.68428c-0.2867,0.22504 -0.61938,0.40851 -0.83931,0.7089c-0.06701,0.08841 -0.18001,0.13528 -0.26788,0.18996c-0.10856,-0.14294 -0.08326,-0.29891 -0.14169,-0.42627c0.56301,-0.46699 1.08633,-0.93268 1.62003,-1.38145c0.58189,-0.50209 1.15955,-0.9782 1.75184,-1.46342c0.54839,-0.4579 1.0863,-0.9327 1.62427,-1.40746c0.67398,-0.58275 1.32288,-1.1733 1.98218,-1.74695c0.50444,-0.43059 1.00888,-0.86109 1.50286,-1.30858c0.78073,-0.67252 1.61784,-1.28658 2.37767,-1.99287c0.10672,-0.08975 0.19262,-0.2133 0.35573,-0.24458c0.09394,0.15202 0.14386,0.33138 0.20848,0.50164c0.02289,0.10268 0.14608,0.23648 0.15633,0.41719z" fill="#87d7dc"/><path d="M314.12981,181.4002c0.24841,0.33652 0.42781,0.6926 0.69085,1.02c0.30902,0.36901 0.63268,0.72884 1.04418,1.03409c-0.84955,0.52827 -1.68443,1.04742 -2.50469,1.55748c-0.27591,-0.08561 -0.47013,-0.26881 -0.66857,-0.42598c-0.37181,-0.30653 -0.64107,-0.67687 -0.92081,-1.06408c-0.01045,-0.01691 -0.01665,-0.05978 -0.01247,-0.08581c0.18178,0.09739 0.26764,-0.02615 0.36397,-0.13282c0.24076,-0.26663 0.49197,-0.51635 0.79538,-0.68161c0.05859,-0.03643 0.11717,-0.07288 0.16531,-0.12619c0.21571,-0.27442 0.51906,-0.43967 0.76607,-0.66342c0.14029,-0.13392 0.23649,-0.24062 0.28068,-0.43173z" fill="#61afb4"/><path d="M327.37071,169.91681c0.27729,0.64589 0.65714,1.22799 0.9784,1.84654c0.15229,0.27938 0.34855,0.53146 0.5448,0.78355c0.34231,0.48858 0.63646,1.03042 1.0374,1.48254c0.15451,0.18449 0.30898,0.36899 0.46772,0.52751c0.10234,0.10007 0.19001,0.20914 0.26306,0.32743c-0.03347,0.04424 -0.05238,0.0793 -0.08169,0.09753c-0.11718,0.07283 -0.23433,0.14574 -0.3515,0.21862c-0.09612,-0.05711 -0.16713,-0.1065 -0.24861,-0.17271c-0.55138,-0.49881 -1.11322,-1.01456 -1.52018,-1.67341c-0.36943,-0.56524 -0.74923,-1.14734 -1.06009,-1.74902c-0.25246,-0.47434 -0.5195,-0.93954 -0.64434,-1.46981c0.08146,0.06621 0.10014,0.19492 0.22975,0.20783c0.18198,-0.06641 0.4037,-0.13412 0.38523,-0.42659z" fill="url(#color-13)"/><path d="M326.63976,170.93241c0.20668,0.26897 0.28572,0.59389 0.44846,0.89015c0.36098,0.61726 0.72195,1.23452 1.12689,1.82441c0.33187,0.47166 0.71194,0.89 1.11083,1.27325c0.10234,0.10007 0.20465,0.20005 0.30699,0.30009c-0.20508,0.12752 -0.38082,0.23686 -0.57125,0.35523c-0.30097,-0.09342 -0.53072,-0.30132 -0.74162,-0.54422c-0.25685,-0.2845 -0.52409,-0.58594 -0.74742,-0.91469c-0.5281,-0.72374 -0.95792,-1.48523 -1.41284,-2.2545c-0.08347,-0.13513 -0.16695,-0.27029 -0.16676,-0.43407c0.07323,-0.04554 0.15689,-0.07421 0.1946,-0.14441c0.10474,-0.15865 0.29097,-0.25109 0.45205,-0.35124z" fill="url(#color-14)"/><path d="M314.1298,181.40021c-0.03993,0.16515 -0.12582,0.28863 -0.26185,0.39662c-0.24697,0.22371 -0.55041,0.38901 -0.76607,0.6634c-0.04817,0.05332 -0.10674,0.08978 -0.16535,0.1262c-0.3076,0.1913 -0.54415,0.43188 -0.79537,0.68161c-0.08168,0.09755 -0.18219,0.23021 -0.36399,0.13281c-0.17115,-0.24429 -0.28796,-0.49899 -0.35036,-0.76413c0.17378,-0.17823 0.33711,-0.37326 0.56303,-0.46701c0.0293,-0.01821 0.06281,-0.06242 0.0921,-0.08065c0.26163,-0.23282 0.53794,-0.47478 0.81002,-0.69073c0.12138,-0.09886 0.23858,-0.1717 0.34957,-0.28748c0.12983,-0.15083 0.29516,-0.27707 0.50846,-0.2928c0.06681,0.07537 0.10854,0.14293 0.16492,0.20139c0.07302,0.11825 0.14187,0.26251 0.21491,0.38071z" fill="#87d7dc"/><path d="M334.76064,165.92958c-0.07983,0.33024 -0.26198,0.56039 -0.45467,0.77373c-0.04816,0.05332 -0.13607,0.10796 -0.20507,0.12751c-0.50824,0.129 -0.97477,0.32555 -1.43082,0.53899c-0.01464,0.00911 -0.05436,0.01042 -0.07946,0.00267c-0.08568,-0.04026 -0.13787,-0.12469 -0.1461,-0.23648c0.0293,-0.01821 0.04814,-0.05336 0.07746,-0.07155c0.36197,-0.20165 0.69266,-0.45407 0.95651,-0.78179c0.14448,-0.15995 0.30561,-0.26015 0.53353,-0.28501c0.25302,-0.01703 0.47473,-0.08478 0.74865,-0.06803z" fill="#cce5e6"/><path d="M331.92287,166.2913c-0.10655,-0.07401 -0.13363,-0.15069 -0.12102,-0.22871c0.68222,-0.47097 0.6822,-0.47097 1.13043,-1.12378c0.2699,-0.12106 0.59193,-0.15765 0.87847,-0.21887c0.10234,0.10007 0.02487,0.17153 0.00179,0.23267c-0.08807,0.21844 -0.16154,0.42776 -0.28514,0.62153c-0.08588,0.12358 -0.17801,0.20416 -0.316,0.24326c-0.42883,0.12634 -0.86177,0.27869 -1.28857,0.47391z" fill="#cce5e6"/><path d="M313.90447,181.00258c-0.05637,-0.05847 -0.09812,-0.12607 -0.16492,-0.20139c-0.2133,0.01572 -0.37862,0.1419 -0.50847,0.2928c-0.11097,0.11578 -0.22812,0.18862 -0.34957,0.28746c-0.27208,0.21596 -0.54837,0.45788 -0.81002,0.69071c-0.0293,0.01821 -0.06281,0.06245 -0.09211,0.08065c-0.23014,0.11972 -0.37883,0.30567 -0.56303,0.46696c-0.0542,-0.15333 -0.09791,-0.28984 -0.0935,-0.47965c0.37882,-0.30569 0.75145,-0.65433 1.15535,-0.95223c0.37882,-0.30569 0.71591,-0.67896 1.15532,-0.95222c0.15228,0.27937 0.21893,0.51851 0.27093,0.76677z" fill="#60adb2"/><path d="M333.03954,171.3485c0.05637,0.05847 0.10234,0.10007 0.15871,0.1585c-0.00842,0.05202 -0.01267,0.07799 -0.01687,0.10398c-0.20726,0.22241 -0.36857,0.48641 -0.51946,0.76721c-0.07123,0.11444 -0.1487,0.18599 -0.28252,0.19906c-0.25723,0.04305 -0.50823,0.12902 -0.81966,0.01868c0.06523,-0.3211 0.22652,-0.5851 0.39831,-0.83214c0.03347,-0.04424 0.11719,-0.07283 0.18619,-0.09239c0.29491,-0.11327 0.58996,-0.22655 0.89533,-0.3229z" fill="#cce5e6"/><path d="M336.89141,169.28071c-0.10471,0.15864 -0.16134,0.26397 -0.23257,0.37839c-0.13826,0.20287 -0.30358,0.32907 -0.57125,0.35523c-0.44543,0.06654 -0.87426,0.19295 -1.24043,0.42062c-0.11718,0.07285 -0.14224,0.06506 -0.25284,-0.14674c0.04395,-0.02732 0.07743,-0.07155 0.12142,-0.09886c0.37661,-0.21081 0.69684,-0.48007 0.98578,-0.80001c0.07746,-0.07152 0.14027,-0.13395 0.23437,-0.14576c0.30319,-0.00149 0.58549,-0.03673 0.9555,0.03718z" fill="#cae2e3"/><path d="M333.13941,168.2937c0.00422,-0.02597 0.02308,-0.06116 0.03773,-0.07021c0.35773,-0.17569 0.63826,-0.44364 0.89371,-0.71938c0.25118,-0.24973 0.52952,-0.42281 0.91215,-0.42688c0.184,0.0025 0.35552,-0.08083 0.54576,-0.03539c-0.14064,0.46154 -0.45045,0.7477 -0.84572,0.82981c-0.47896,0.11079 -0.95368,0.19555 -1.36805,0.47658c-0.05437,0.01044 -0.11298,0.04683 -0.17558,-0.05449z" fill="#c9e1e2"/><path d="M336.1464,168.10739c-0.13002,0.31464 -0.29332,0.50971 -0.47132,0.7139c-0.06283,0.06241 -0.13604,0.10795 -0.21551,0.11063c-0.50405,0.10299 -1.00184,0.24888 -1.47878,0.42852c-0.0293,0.01821 -0.08365,0.02867 -0.12118,-0.06493c0.10252,-0.06375 0.2197,-0.13659 0.31181,-0.21724c0.28251,-0.19903 0.55458,-0.41499 0.77027,-0.68942c0.16331,-0.19511 0.36418,-0.29658 0.61298,-0.28763c0.184,0.0025 0.35336,0.01405 0.59175,0.00612z" fill="#c9e1e2"/><path d="M333.84333,172.32163c0.13586,0.05584 0.18802,0.14031 0.24018,0.22474c-0.0042,0.02596 -0.02307,0.06114 -0.0273,0.08709c-0.2135,0.17951 -0.3706,0.41749 -0.46708,0.68792c-0.06501,0.15731 -0.17175,0.24708 -0.33489,0.27837c-0.20283,0.03263 -0.40992,0.09126 -0.619,0.08099c0.01706,-0.26777 0.11576,-0.63316 0.21209,-0.7398c0.05235,-0.07933 0.1318,-0.08199 0.21552,-0.11061c0.23856,-0.17171 0.54396,-0.26813 0.78052,-0.50869z" fill="#cae3e4"/><path d="M329.30819,167.14562c0.33868,0.02317 0.6461,-0.00423 0.95772,-0.05775c0.09187,0.08312 0.13367,0.15073 0.14188,0.26251c-0.21145,0.24838 -0.53995,0.40585 -0.741,0.67117c-0.21329,0.01569 -0.38466,-0.06477 -0.57487,-0.11011c-0.1003,-0.03112 -0.20483,-0.03627 -0.29252,-0.14542c0.10695,-0.25355 0.35174,-0.38236 0.50884,-0.62034z" fill="#c8e0e1"/><path d="M331.66605,169.4203c0.07926,0.16112 0.03109,0.21446 -0.01704,0.2678c-0.17798,0.20423 -0.34129,0.39924 -0.52969,0.58657c-0.04817,0.05335 -0.10674,0.08976 -0.1862,0.09243c-0.23413,-0.01807 -0.47873,-0.05303 -0.71912,-0.11396c0.03574,-0.13906 0.11318,-0.21067 0.16976,-0.31598c0.16975,-0.31594 0.40831,-0.4877 0.77831,-0.41385c0.1798,0.0285 0.34713,-0.02879 0.50404,-0.103z" fill="#cbe4e5"/><path d="M331.00872,168.35611c0.0522,0.08444 0.0835,0.13512 0.11479,0.1858c-0.01889,0.03511 -0.01266,0.078 -0.02728,0.0871c-0.14029,0.13392 -0.29095,0.25108 -0.43119,0.38504c-0.07748,0.07153 -0.16115,0.10018 -0.26569,0.09503c-0.31361,-0.01542 -0.62302,-0.05686 -0.96374,-0.14892c0.05877,-0.20024 0.18017,-0.29906 0.30157,-0.39792c0.05858,-0.0364 0.11721,-0.07285 0.18195,-0.06642c0.37001,0.07388 0.72557,-0.00692 1.08956,-0.13972z" fill="#c8e0e1"/><path d="M326.63978,170.93241c-0.16112,0.10017 -0.34736,0.19258 -0.45628,0.37727c-0.03773,0.07022 -0.12138,0.0988 -0.19461,0.14437c-0.19201,-0.27806 -0.31504,-0.57566 -0.36899,-0.89282c0.22594,-0.09373 0.38925,-0.28879 0.54414,-0.43187c0.14628,0.07269 0.17536,0.21828 0.26726,0.30139c0.10856,0.14294 0.19826,0.32097 0.20851,0.50164z" fill="#85d5d9"/><path d="M336.96662,171.0108c-0.2719,0.05215 -0.54375,0.10434 -0.81988,0.18246c-0.23637,0.07683 -0.38724,0.35769 -0.76347,0.2409c0.49798,-0.30967 0.86439,-0.70119 1.23079,-1.09264c0.21329,-0.01569 0.45166,-0.02367 0.68782,0.06332c-0.00842,0.05202 -0.01264,0.078 -0.01684,0.10397c-0.09428,0.17551 -0.19904,0.33422 -0.3184,0.50193z" fill="#c6dede"/><path d="M334.96608,165.47442c-0.32207,0.03658 -0.60431,0.07186 -0.92641,0.10846c0.00442,-0.18976 0.09029,-0.31333 0.126,-0.45243c0.05032,-0.14823 0.06524,-0.32114 0.16574,-0.45376c0.10252,-0.06375 0.23214,-0.05085 0.35131,-0.05482c0.11918,-0.00397 0.24879,0.00899 0.38886,0.03877c0.05819,0.29113 -0.03413,0.53557 -0.10555,0.81381z" fill="#cae3e3"/><path d="M331.22581,165.22841c0.36637,-0.39151 0.65952,-0.73745 0.87539,-1.17563c0.23219,-0.05082 0.45386,-0.11855 0.70067,-0.17848c0.01847,0.29248 -0.10512,0.48623 -0.1932,0.70462c-0.01889,0.03511 -0.06283,0.06243 -0.0921,0.08063c-0.39747,0.17702 -0.79498,0.35407 -1.29074,0.56883z" fill="#cae3e4"/><path d="M330.90261,171.36801c0.13002,-0.31464 0.26626,-0.58642 0.6531,-0.61652c0.2677,-0.02614 0.49785,-0.14588 0.72797,-0.26561c0.08791,-0.05465 0.1547,0.02068 0.18802,0.14029c-0.2552,0.11197 -0.42279,0.33305 -0.59032,0.55413c-0.11938,0.16777 -0.27205,0.21596 -0.45608,0.21347c-0.15891,0.0053 -0.31162,0.05345 -0.52273,-0.02571z" fill="#c8e0e1"/><path d="M327.37073,169.9168c0.00382,0.30156 -0.20324,0.36016 -0.38948,0.45257c-0.12959,-0.01293 -0.16291,-0.13247 -0.22973,-0.20781c-0.121,-0.22869 -0.1876,-0.46785 -0.22495,-0.72524c0.17153,-0.0833 0.29094,-0.25104 0.48958,-0.25766c0.0668,0.07537 0.09813,0.12606 0.13985,0.1936c0.07505,0.18714 0.15014,0.37427 0.21472,0.54454z" fill="url(#color-15)"/><path d="M330.19194,169.49531c-0.15711,0.23798 -0.30578,0.42394 -0.44402,0.62683c-0.25504,-0.05186 -0.50582,-0.12965 -0.7378,-0.24266c-0.04377,-0.1365 0.02328,-0.22489 0.05056,-0.312c0.02729,-0.08711 0.05455,-0.17418 0.16754,-0.22105c0.25923,0.02589 0.57906,0.08416 0.96373,0.1489z" fill="#c7dfe0"/><path d="M331.11229,172.59366c-0.21954,-0.02718 -0.42857,-0.03748 -0.66476,-0.12438c0.0066,-0.2847 0.13021,-0.47842 0.24759,-0.71507c0.2488,0.00896 0.49761,0.01789 0.76109,0.01775c-0.10073,0.29642 -0.21813,0.53312 -0.34392,0.82174z" fill="#c8e0e1"/><path d="M335.93568,165.99383c-0.03374,0.20802 -0.06746,0.41599 -0.17639,0.60065c-0.2677,0.02614 -0.54576,0.03542 -0.83849,0.0538c-0.02086,-0.03377 -0.04173,-0.06755 -0.02707,-0.07667c0.06924,-0.18332 0.15309,-0.37574 0.23275,-0.54217c0.03773,-0.07022 0.08588,-0.12358 0.15066,-0.11711c0.23836,-0.00794 0.44543,-0.06654 0.65857,0.0815z" fill="#c4dcdd"/><path d="M337.07804,168.8608c-0.27389,-0.01674 -0.53733,-0.01661 -0.81125,-0.03334c-0.03949,-0.16245 0.07767,-0.2353 0.13425,-0.34065c0.05657,-0.1053 0.13826,-0.20288 0.20947,-0.31731c0.22794,-0.02483 0.44943,0.0713 0.67941,0.11531c0.01225,0.24953 -0.0925,0.40821 -0.21191,0.57594z" fill="#c8e0e1"/><path d="M331.47762,173.02101c0.2781,-0.00923 0.53116,-0.0263 0.82389,-0.04467c-0.01281,0.24179 -0.12181,0.42643 -0.14507,0.65135c-0.24682,0.05992 -0.48299,-0.02703 -0.74221,-0.05289c-0.01646,-0.22357 -0.02669,-0.40424 0.06342,-0.55377z" fill="#c6ddde"/><path d="M334.72459,173.22323c-0.14466,0.32377 -0.37077,0.58128 -0.45486,0.93749c-0.20707,0.05864 -0.3891,0.12503 -0.62324,0.10697c-0.02266,-0.26646 0.03609,-0.4667 0.27667,-0.56951c0.29493,-0.11325 0.53773,-0.311 0.8014,-0.47495z" fill="#b9cfd0"/><path d="M330.84659,164.15495c-0.01867,-0.12868 0.08587,-0.12359 0.134,-0.17685c0.11096,-0.11575 0.23232,-0.21462 0.25763,-0.37066c0.07766,-0.23533 0.24918,-0.31864 0.44584,-0.39414c0.08371,-0.02864 0.17779,-0.04041 0.30118,-0.07038c-0.02545,0.31982 -0.06763,0.57981 -0.38763,0.6853c-0.22171,0.06773 -0.41637,0.21213 -0.61721,0.31363c-0.04396,0.0273 -0.08789,0.05464 -0.13384,0.01308z" fill="#c0d8d8"/><path d="M328.47675,166.58723c0.07966,-0.16645 0.17596,-0.27306 0.29313,-0.34595c0.05858,-0.0364 0.13183,-0.08201 0.19663,-0.07554c0.28433,0.03365 0.55199,0.00748 0.81966,-0.01867c0.07301,0.11826 0.00402,0.13777 -0.03993,0.16514c-0.14649,0.09108 -0.3076,0.19129 -0.4332,0.31615c-0.16954,0.15218 -0.33268,0.18348 -0.53957,0.07832c-0.09612,-0.05714 -0.17136,-0.0805 -0.29673,-0.11942z" fill="#c1d9d9"/><path d="M330.43846,171.30584c-0.2237,-0.00115 -0.42439,-0.06348 -0.65431,-0.10752c-0.02691,-0.24044 0.10293,-0.39129 0.17214,-0.57466c0.26345,-0.00016 0.51004,0.10367 0.77552,0.17243c-0.07346,0.20933 -0.18863,0.35111 -0.29335,0.50978z" fill="#c3dbdc"/><path d="M335.63667,167.67604c0.14246,-0.22889 0.28074,-0.43175 0.40854,-0.6515c0.17356,-0.01444 0.33246,-0.01968 0.51428,0.07767c-0.02329,0.22492 -0.11758,0.40042 -0.20143,0.5929c-0.23217,0.05082 -0.45584,0.04969 -0.72132,-0.01906z" fill="#c3dadb"/><path d="M328.83609,170.22138c0.23618,0.08696 0.44724,0.16612 0.65831,0.24529c0.00182,0.23268 -0.0925,0.40824 -0.18678,0.58375c-0.20486,-0.03627 -0.39085,-0.10762 -0.58303,-0.22194c-0.002,-0.06889 0.00022,-0.16381 0.0086,-0.21578c0.03572,-0.13911 0.07765,-0.23532 0.10294,-0.39134z" fill="#c4dbdc"/><path d="M329.41297,165.28026c-0.27832,0.17306 -0.49807,0.30968 -0.73235,0.45545c-0.15471,-0.02069 -0.29056,-0.07654 -0.42838,-0.20124c0.01067,-0.14686 0.13402,-0.17687 0.20107,-0.26528c0.06701,-0.08842 0.14448,-0.15998 0.2177,-0.20555c0.25086,0.07783 0.4515,0.14012 0.74203,0.21664z" fill="#c2d9da"/><path d="M335.48562,164.70726c0.15891,-0.0053 0.29897,0.02448 0.42017,0.08943c0.0981,0.12604 0.05194,0.24829 0.0602,0.36004c0.00826,0.11176 0.05618,0.22222 -0.01506,0.33664c-0.16734,0.0573 -0.3722,0.02102 -0.60639,0.003c0.02105,-0.13003 0.04212,-0.26005 0.04856,-0.38091c0.03574,-0.13906 0.07141,-0.27822 0.09249,-0.40824z" fill="#c5ddde"/><path d="M330.03158,172.35383c-0.19867,0.00663 -0.32608,-0.10121 -0.47656,-0.1479c-0.04151,-0.23134 0.01726,-0.4316 0.08023,-0.65781c0.19021,0.04536 0.38046,0.09078 0.56025,0.11928c0.02265,0.26644 -0.10093,0.46026 -0.16391,0.68644z" fill="#c3dbdc"/><path d="M333.1211,164.42397c0.00218,-0.09493 0.0106,-0.14689 0.019,-0.19889c0.03149,-0.11311 0.07764,-0.23534 0.11337,-0.37444c0.2781,-0.00923 0.52491,-0.06922 0.80082,0.01641c0.04377,0.1365 0.00183,0.2327 -0.05898,0.36402c-0.26144,0.06904 -0.56263,0.13939 -0.87423,0.19292z" fill="#c7dfe0"/><path d="M328.936,168.87337c-0.2215,-0.09607 -0.43057,-0.10634 -0.61859,-0.24662c-0.00599,-0.20668 0.14465,-0.32376 0.15951,-0.49665c0.28433,0.03365 0.50584,0.12967 0.75667,0.20754c-0.02748,0.25093 -0.18859,0.35107 -0.29753,0.53576z" fill="#c7dee0"/><path d="M326.44599,170.42173c-0.09189,-0.08312 -0.12097,-0.22869 -0.26728,-0.30141c-0.16954,0.15218 -0.34331,0.33034 -0.54414,0.43187c-0.0271,-0.0767 -0.06461,-0.17026 -0.07709,-0.25601c-0.01867,-0.12868 0.01284,-0.24177 0.11538,-0.30556c0.1653,-0.12618 0.31599,-0.24327 0.48136,-0.36946c0.13566,0.2196 0.18361,0.33008 0.29176,0.80059z" fill="#61acb1"/><path d="M337.59509,170.05893c-0.21954,-0.02718 -0.39924,-0.05568 -0.62924,-0.09975c0.1278,-0.21976 0.24095,-0.43038 0.3792,-0.63326c0.16934,0.01156 0.32405,0.03232 0.48497,0.0959c-0.02748,0.2509 -0.12179,0.42642 -0.23494,0.63708z" fill="#c2dada"/><path d="M328.20667,166.87203c0.21954,0.02718 0.39087,0.10767 0.60198,0.18688c-0.16331,0.19511 -0.29736,0.37196 -0.43142,0.54884c-0.17356,0.01444 -0.29055,-0.07652 -0.44724,-0.16614c0.00863,-0.21578 0.13846,-0.36668 0.27668,-0.56951z" fill="#c1d9d9"/><path d="M336.80328,167.79235c0.05258,-0.24313 0.10715,-0.41732 0.1513,-0.60844c0.17779,-0.04041 0.36378,0.03099 0.5498,0.10239c0.02065,0.19756 0.01625,0.38735 -0.06762,0.5798c-0.20707,0.05862 -0.38469,-0.0648 -0.63347,-0.07371z" fill="#c6dedf"/><path d="M330.9941,173.48544c-0.20485,-0.03626 -0.40552,-0.09857 -0.59575,-0.14393c-0.07926,-0.16112 -0.08328,-0.2989 -0.04335,-0.46406c0.23217,-0.05082 0.44944,0.07128 0.68364,0.08931c0.03534,0.18847 -0.01505,0.33665 -0.04452,0.51868z" fill="#c0d7d7"/><path d="M332.90489,163.48304c-0.20283,0.03263 -0.38908,0.125 -0.62944,0.06411c0.03993,-0.16515 0.06525,-0.32115 0.0905,-0.47713c0.17576,-0.10926 0.37441,-0.11589 0.57504,-0.05361c0.03951,0.16246 0.01846,0.29244 -0.03608,0.46666z" fill="#c3dadb"/><path d="M327.16644,169.38913c-0.04173,-0.06758 -0.09814,-0.12605 -0.1399,-0.19362c-0.19867,0.00663 -0.31803,0.17434 -0.48958,0.25766c-0.08769,-0.10914 -0.04152,-0.23136 -0.0999,-0.3587c0.14868,-0.18597 0.35574,-0.24461 0.47311,-0.48126c0.11897,0.15983 0.13766,0.28845 0.16677,0.43409c0.0229,0.10267 0.1252,0.20273 0.08946,0.34181z" fill="url(#color-16)"/><path d="M334.21447,174.9902c-0.20283,0.03263 -0.3891,0.12503 -0.60438,0.07186c-0.04377,-0.1365 -0.02688,-0.2405 -0.00163,-0.39647c0.18199,-0.06641 0.38486,-0.09902 0.57928,-0.07966c0.04376,0.13649 0.04154,0.23137 0.02668,0.40425z" fill="#bdd3d4"/><path d="M328.74706,171.25879c0.16095,0.06362 0.31142,0.11033 0.46187,0.15701c0.02065,0.19757 -0.01926,0.36271 -0.07381,0.5369c-0.14847,0.02218 -0.25087,-0.07785 -0.32387,-0.19609c-0.09394,-0.15202 -0.18782,-0.30402 -0.06421,-0.49782z" fill="#bdd4d5"/><path d="M337.44243,171.8139c-0.22792,0.02481 -0.44123,0.04055 -0.66915,0.06538c0.20322,-0.36019 0.42938,-0.61768 0.88707,-0.43468c-0.01067,0.14686 -0.11738,0.23664 -0.21789,0.36927z" fill="#bbd2d3"/><path d="M328.11354,169.47831c-0.02486,-0.17156 0.02127,-0.2938 0.06746,-0.41601c0.10252,-0.06375 0.18401,0.00252 0.28433,0.03366c0.07524,0.02335 0.1651,0.03759 0.24238,0.12986c0.02486,0.17156 -0.12157,0.26265 -0.11133,0.44331c-0.19445,-0.01936 -0.34069,-0.09205 -0.48276,-0.19074z" fill="#c3dadb"/><path d="M333.43798,168.64578c0.28454,-0.13014 0.56903,-0.2603 0.8953,-0.32288c0.04793,0.11044 -0.01483,0.17293 -0.08809,0.21841c-0.17998,0.13528 -0.37035,0.25369 -0.54615,0.36299c-0.13182,0.08197 -0.22375,-0.00117 -0.26105,-0.25852z" fill="#b1c6c7"/><path d="M331.55955,174.46651c0.13801,-0.03912 0.24461,0.03494 0.35955,0.05697c0.21954,0.02718 0.32806,0.1701 0.38005,0.41839c-0.26767,0.02615 -0.52473,-0.09461 -0.74622,-0.19064c-0.05841,-0.12736 -0.0604,-0.19628 0.00661,-0.28471z" fill="#bbd2d3"/><path d="M334.98263,170.81827c0.23657,-0.24062 0.5586,-0.27721 0.88487,-0.33981c-0.14246,0.22889 -0.36218,0.36548 -0.55681,0.5099c-0.1214,0.09886 -0.18202,0.06644 -0.32806,-0.1701z" fill="#bad1d2"/><path d="M335.05795,174.25525c-0.04417,0.19111 -0.05902,0.364 -0.10313,0.5551c-0.08369,0.02864 -0.21751,0.04173 -0.34092,0.0717c-0.11458,-0.34961 -0.09993,-0.3587 0.10093,-0.46026c0.10255,-0.06373 0.21553,-0.1106 0.34312,-0.16658z" fill="#b5cbcc"/><path d="M337.46164,166.33097c0.06039,0.19625 0.0498,0.34316 0.03915,0.49002c-0.16314,0.0313 -0.30519,-0.06743 -0.46611,-0.13101c0.00017,-0.16378 0.01085,-0.31064 0.01105,-0.47443c0.14226,-0.06508 0.26545,0.0687 0.41597,0.11544z" fill="#c0d7d8"/><path d="M333.26423,173.94423c0.03329,0.11955 0.00184,0.23269 -0.0443,0.35493c-0.22172,0.06771 -0.45589,0.04969 -0.68162,-0.0204c-0.08769,-0.10914 -0.0646,-0.17024 -0.01224,-0.24954c0.24255,-0.03398 0.48516,-0.0679 0.73819,-0.08493z" fill="#bdd4d4"/><path d="M337.9693,170.10683c0.06924,-0.18332 0.1635,-0.35885 0.23275,-0.54218c0.11497,0.02204 0.19645,0.08828 0.25908,0.18961c0.03328,0.11955 -0.01904,0.19889 -0.06098,0.29509c-0.03773,0.07022 -0.07543,0.14042 -0.11317,0.21066c-0.1192,0.00398 -0.21954,-0.02717 -0.31765,-0.15322z" fill="#b6cccc"/><path d="M336.20675,166.59685c0.04417,-0.19111 0.08408,-0.35621 0.11778,-0.56424c0.09832,-0.03776 0.21752,-0.04175 0.35538,0.08297c-0.00014,0.16379 -0.01504,0.33667 -0.01945,0.52644c-0.15891,0.0053 -0.29276,0.01838 -0.45367,-0.04523z" fill="#c1d9d9"/><path d="M337.93254,171.06476c-0.15891,0.0053 -0.28857,-0.00762 -0.4348,-0.08035c0.04417,-0.19111 0.16978,-0.31597 0.25565,-0.43951c0.13801,-0.03912 0.22992,0.04405 0.32605,0.10119c0.01663,0.05979 0.03753,0.09358 0.02291,0.10269c-0.05659,0.10528 -0.11316,0.21062 -0.16978,0.31597z" fill="#b7cdce"/><path d="M337.22596,172.74349c0.07767,-0.23534 0.20947,-0.31731 0.32042,-0.43308c0.11517,-0.14177 0.23637,-0.07684 0.38264,-0.00415c-0.04417,0.19111 -0.15511,0.30685 -0.23056,0.4473c-0.16734,0.05728 -0.31564,-0.0843 -0.47254,-0.01012z" fill="#b6cccc"/><path d="M333.22313,175.09206c-0.16935,-0.01158 -0.29895,-0.0245 -0.44323,-0.02832c-0.10856,-0.14294 -0.17114,-0.2443 -0.17095,-0.40807c0.19444,0.01938 0.37843,0.02187 0.54776,0.03345c0.13786,0.12467 0.09167,0.24691 0.13967,0.35735c-0.0293,0.01821 -0.04817,0.05333 -0.07325,0.04557z" fill="#c2dada"/><path d="M336.65543,165.61648c-0.13381,0.01304 -0.20907,-0.01026 -0.29056,-0.0765c-0.07726,-0.09229 -0.06038,-0.19625 -0.06864,-0.30804c0.0022,-0.09491 -0.05619,-0.22224 0.03591,-0.3029c0.14004,0.02983 0.27588,0.08563 0.39911,0.21946c-0.01483,0.17289 -0.05056,0.31201 -0.07585,0.46802z" fill="#bbd2d3"/><path d="M327.73093,167.77572c0.14627,0.0727 0.25704,0.12074 0.37823,0.18565c-0.02949,0.18202 -0.10496,0.32243 -0.16995,0.4798c-0.1296,-0.01292 -0.2404,-0.06094 -0.31339,-0.17922c-0.00624,-0.04291 -0.01242,-0.08577 0.00641,-0.12091c0.01684,-0.10397 0.04837,-0.21713 0.09873,-0.36534z" fill="#bbd2d3"/><path d="M335.35426,174.70213c0.03591,-0.30291 0.03591,-0.30293 0.23275,-0.54216c0.16936,0.01159 0.26746,0.13764 0.40528,0.26235c-0.17377,0.1782 -0.41635,0.21213 -0.63807,0.27986z" fill="#adc2c3"/><path d="M328.08586,169.89302c0.1296,0.01292 0.25084,0.07788 0.33849,0.18699c-0.02949,0.18202 -0.05471,0.33798 -0.0947,0.50306c-0.32386,-0.19609 -0.33431,-0.21295 -0.24383,-0.69008z" fill="#b5cbcc"/><path d="M337.97268,169.02919c-0.15472,-0.02068 -0.26968,-0.04277 -0.41597,-0.11547c-0.01025,-0.18062 0.09031,-0.31332 0.14488,-0.48754c0.06483,0.00647 0.11495,0.02205 0.16512,0.03758c0.05017,0.01557 0.09612,0.05711 0.15673,0.08959c0.04997,0.17935 0.01425,0.31845 -0.05076,0.47581z" fill="#bbd1d2"/><path d="M327.7933,166.33412c-0.00181,-0.23268 0.16351,-0.35887 0.22852,-0.51619c0.14426,0.00382 0.23197,0.11295 0.35318,0.17791c-0.08805,0.21844 -0.2137,0.3433 -0.40611,0.39279c-0.04396,0.02731 -0.11498,-0.02202 -0.17556,-0.05448z" fill="#b6cccd"/><path d="M334.1071,163.46011c-0.26345,0.00016 -0.5227,-0.0257 -0.77149,-0.03465c-0.05839,-0.12738 -0.0562,-0.22223 0.00459,-0.35355c0.26545,0.0687 0.53091,0.13746 0.78375,0.28419c-0.00843,0.05203 -0.01266,0.07801 -0.01684,0.104z" fill="#acc1c2"/><path d="M334.97373,169.49107c-0.15912,0.16908 -0.32867,0.32127 -0.53994,0.40587c-0.08371,0.02864 -0.17355,0.01441 -0.22572,-0.07002c-0.02085,-0.03376 -0.03329,-0.11955 -0.01865,-0.12869c0.20927,-0.1535 0.502,-0.17189 0.78432,-0.20716z" fill="#a7bbbb"/><path d="M338.14103,168.15293c-0.10877,0.02086 -0.20486,-0.03627 -0.31141,-0.1103c0.01483,-0.17289 0.0297,-0.3458 0.04455,-0.51869c0.15891,-0.0053 0.23616,0.08696 0.3092,0.20519c0.01867,0.12868 -0.0066,0.28468 -0.04236,0.4238z" fill="#b7cdcd"/><path d="M329.43751,172.60639c0.19867,-0.00663 0.34492,0.06611 0.50164,0.15569c0.03951,0.16246 0.04354,0.30025 -0.04656,0.44978c-0.21309,-0.14807 -0.32365,-0.35989 -0.45509,-0.60546z" fill="#b7cece"/><path d="M328.52728,164.56844c0.10273,-0.22754 0.33487,-0.27837 0.42916,-0.45392c0.12959,0.01293 0.15671,0.0896 0.13363,0.15073c-0.06498,0.15734 -0.15511,0.3069 -0.30159,0.39793c-0.05439,0.01044 -0.06904,0.01954 -0.26126,-0.09473z" fill="#b4cacb"/><path d="M334.42189,164.19956c-0.01866,-0.12866 -0.00601,-0.20667 0.04631,-0.28601c0.21954,0.02718 0.45367,0.04525 0.71694,0.20887c-0.23856,0.17171 -0.47894,0.11074 -0.76328,0.07715z" fill="#b2c8c9"/><path d="M327.80072,168.80773c-0.00017,0.16378 -0.00661,0.2847 -0.07364,0.37311c-0.06903,0.01954 -0.11501,-0.02202 -0.16097,-0.06361c-0.18379,-0.16626 -0.13343,-0.31451 -0.03914,-0.49003c0.08146,0.06621 0.1776,0.1234 0.27368,0.18052z" fill="#b5cbcb"/><path d="M335.82817,171.85904c0.17997,-0.1353 0.34106,-0.2355 0.54813,-0.29408c0.0668,0.07537 0.04374,0.13645 -0.00019,0.16379c-0.09212,0.08067 -0.17379,0.17822 -0.26588,0.25884c-0.11718,0.07285 -0.18819,0.02349 -0.28206,-0.12855z" fill="#91a3a3"/><path d="M332.15617,165.25775c-0.10273,0.22754 -0.30358,0.32907 -0.47936,0.43832c-0.0293,0.01821 -0.07946,0.00265 -0.11497,-0.02204c-0.02086,-0.03377 -0.0229,-0.10269 -0.00824,-0.11181c0.17377,-0.1782 0.38505,-0.2628 0.60254,-0.30453z" fill="#99abac"/><path d="M331.15739,164.75664c-0.13164,-0.08179 -0.18378,-0.16629 -0.13141,-0.24562c0.08168,-0.09755 0.24901,-0.15481 0.48115,-0.20566c-0.07342,0.20938 -0.23454,0.30951 -0.34972,0.45126z" fill="#93a5a6"/><path d="M330.62534,174.1356c0.24461,0.03498 0.4934,0.04389 0.56405,0.42083c-0.25924,-0.02592 -0.39487,-0.24544 -0.56405,-0.42083z" fill="#9aadad"/><path d="M333.14505,172.24141c0.08588,-0.12355 0.18639,-0.25618 0.25765,-0.37063c0.10454,0.00515 0.15048,0.0467 0.19844,0.1572c-0.07966,0.16647 -0.26787,0.18998 -0.38925,0.28884c-0.02086,-0.03377 -0.03128,-0.05069 -0.06684,-0.07538z" fill="#c5dddd"/><path d="M333.42274,167.4395c-0.09651,0.27042 -0.28695,0.38883 -0.51908,0.43966c-0.01464,0.00911 -0.0502,-0.01556 -0.07105,-0.04935c-0.04594,-0.04159 -0.0229,-0.10269 0.00641,-0.12089c0.15066,-0.11711 0.35778,-0.1757 0.5837,-0.26943z" fill="#aec2c3"/><path d="M327.79492,166.73056c-0.04417,0.19111 -0.1593,0.33287 -0.25987,0.46553c-0.10454,-0.00513 -0.13163,-0.08185 -0.09393,-0.15205c0.06081,-0.13134 0.10697,-0.25354 0.19286,-0.37707c0.00843,-0.05203 0.08365,-0.02865 0.16092,0.0636z" fill="#9caeaf"/><path d="M337.89564,167.06641c-0.04996,-0.17938 -0.05398,-0.31713 -0.03912,-0.49003c0.19422,0.18316 0.26507,0.3963 0.39026,0.59901c-0.0544,0.01042 -0.08371,0.02864 -0.10875,0.02085c-0.08568,-0.04026 -0.15669,-0.0896 -0.24238,-0.12982z" fill="#a9bebf"/><path d="M330.63309,167.74792c0.10234,0.10007 0.12942,0.17667 0.12721,0.27164c-0.13606,0.10795 -0.29917,0.13924 -0.55001,0.06142c0.15491,-0.1431 0.28674,-0.22504 0.42277,-0.33304z" fill="#b9cfd0"/><path d="M334.27552,172.82437c0.10453,0.00514 0.16091,0.06364 0.21732,0.12207c0.02289,0.10269 -0.05033,0.14822 -0.43321,0.31614c-0.03734,-0.25735 0.15511,-0.30688 0.21591,-0.4382z" fill="#869797"/><path d="M332.76737,166.44417c-0.26566,0.09506 -0.37683,0.37461 -0.69867,0.2474c0.17797,-0.20422 0.36414,-0.2966 0.69867,-0.2474z" fill="#93a4a5"/><path d="M337.08849,172.29111c-0.2197,0.13659 -0.36619,0.22769 -0.51265,0.31877c-0.0293,0.01821 -0.07946,0.00265 -0.11074,-0.04803c-0.01045,-0.01691 -0.01664,-0.05979 -0.01245,-0.08581c0.15488,-0.1431 0.31605,-0.2433 0.63583,-0.18499z" fill="#94a5a6"/><path d="M334.9961,173.49872c0.12118,0.06495 0.16715,0.10646 0.16074,0.22737c-0.10672,0.08975 -0.22814,0.18863 -0.40593,0.22902c-0.00177,-0.23268 0.14466,-0.32373 0.24515,-0.45639z" fill="#abbfc0"/><path d="M338.06949,172.00848c-0.08147,-0.06623 -0.11698,-0.09093 -0.13786,-0.12473c0.09029,-0.31333 0.09029,-0.3133 0.32665,-0.39012c0.01646,0.22357 -0.12998,0.31465 -0.18879,0.51484z" fill="#acc0c1"/><path d="M331.46411,173.91805c0.1798,0.0285 0.36378,0.03098 0.554,0.07636c0.07524,0.02335 0.11696,0.09094 0.06038,0.19623c-0.21954,-0.02718 -0.42437,-0.06345 -0.61438,-0.27261z" fill="#9fb2b2"/><path d="M338.31966,169.16418c0.00643,-0.12094 0.01909,-0.1989 0.07143,-0.27823c0.07947,-0.00266 0.14007,0.02981 0.20688,0.10516c0.04793,0.11046 0.01644,0.22357 -0.01505,0.33667c-0.10877,0.02086 -0.186,-0.07139 -0.26322,-0.16361z" fill="#aec2c3"/><path d="M331.76541,170.27038c-0.01025,-0.18063 0.09232,-0.24445 0.1844,-0.32509c0.04396,-0.0273 0.10449,0.00515 0.13583,0.05584c0.02086,0.03377 0.0229,0.10269 -0.0064,0.1209c-0.05657,0.1053 -0.16535,0.1262 -0.31382,0.14835z" fill="#91a2a3"/><path d="M337.36192,165.80844c-0.36379,-0.03099 -0.38888,-0.03871 -0.31947,-0.38586c0.11276,0.11694 0.25906,0.18962 0.31947,0.38586z" fill="#869696"/><path d="M330.58778,163.80156c0.02329,-0.22491 0.14242,-0.22887 0.25544,-0.27574c0.02063,0.19756 0.02065,0.19756 -0.25544,0.27574z" fill="#555f5f"/><path d="M332.79732,171.05484c-0.07324,0.04556 -0.17575,0.10928 -0.30961,0.12237c0.03791,-0.23401 0.09651,-0.27041 0.24075,-0.26663c0.03973,-0.00131 0.07104,0.04936 0.06882,0.14424z" fill="#93a5a6"/><path d="M337.40952,173.07346c-0.07143,0.27823 -0.11115,0.27957 -0.32202,0.03657c0.08169,-0.09756 0.19661,-0.07554 0.32202,-0.03657z" fill="#8b9b9c"/><path d="M330.88128,163.12806c-0.11518,0.14175 -0.24276,0.19769 -0.37042,0.25368c-0.10655,-0.07401 -0.10854,-0.14294 -0.04994,-0.17937c0.11717,-0.07288 0.2448,-0.12883 0.42032,-0.07434z" fill="#9aacad"/><path d="M338.49946,170.89939c-0.01067,0.14686 0.008,0.27558 -0.11959,0.33156c-0.01468,0.0091 -0.03974,0.00134 -0.05017,-0.01557c-0.06461,-0.17028 0.00241,-0.25871 0.16976,-0.31598z" fill="#5f6a6b"/><path d="M331.18345,169.06571c0.02729,-0.08711 0.08589,-0.12357 0.15492,-0.14308c0.03973,-0.00131 0.08989,0.01426 0.0961,0.05715c0.00624,0.04291 -0.00219,0.09492 -0.03153,0.1131c-0.05858,0.0364 -0.12761,0.05597 -0.21952,-0.02719z" fill="#636e6f"/><path d="M338.47135,168.22824c0.11696,0.09095 0.15452,0.18449 0.07908,0.32492c-0.14205,-0.09871 -0.13988,-0.19359 -0.07908,-0.32492z" fill="#4a5354"/></g><g data-paper-data="{&quot;index&quot;:null}" fill="#000000" fill-rule="nonzero" stroke="#000000" stroke-width="1.2" stroke-linecap="butt" stroke-linejoin="miter"><path d="M253.45706,186.88916c-1.48845,1.14049 -4.74809,0.56322 -6.94034,1.1287c-2.36027,0.60879 -3.51349,2.25791 -5.05043,1.69613c-1.07352,-0.39242 -1.65042,-1.96379 -1.84998,-2.81776c-0.48532,-2.07656 2.37111,-4.59823 6.38001,-5.63228c4.00889,-1.03405 7.65217,-0.18895 8.13747,1.8876c0.21992,0.94099 0.55669,2.79251 -0.67671,3.7376z"/><path d="M254.4256,182.81356c-2.08904,1.56975 -7.98148,2.01085 -7.98148,2.01085c0,0 -3.33011,2.07579 -3.41318,2.09555c-5.29291,1.26051 -6.19165,-2.32046 -7.14727,-6.40941c-0.45482,-1.94606 -0.42258,-5.12727 0.9786,-6.61645c1.5891,-1.68891 4.34255,-1.77118 7.28589,-2.53037c5.5386,-1.42862 10.82194,-0.17984 11.79258,3.97329c0.42725,1.8282 1.27499,5.37996 -1.51516,7.47653z"/></g><g stroke-linejoin="miter"><g data-paper-data="{&quot;index&quot;:null}" stroke-linecap="butt"><path d="M245.59845,173.55066c11.12362,7.34871 13.93806,23.58682 6.28626,36.26885c-7.65181,12.68202 -22.8723,17.00553 -33.99593,9.65679c-11.12362,-7.34871 -13.93806,-23.58682 -6.28626,-36.26885c7.65181,-12.68202 22.8723,-17.00553 33.99593,-9.65679z" fill="none" fill-rule="nonzero" stroke="#000000" stroke-width="4.5"/><g><g fill-rule="nonzero"><path d="M210.5185,201.52736l0.01292,-0.0059" data-paper-data="{&quot;index&quot;:null}" fill="#ffab19" stroke="#000000" stroke-width="5"/><g data-paper-data="{&quot;index&quot;:null}" fill="none" stroke="none" stroke-width="1" font-family="sans-serif" font-weight="normal" font-size="12" text-anchor="start"/></g><path d="M210.5185,201.52736l0.01292,-0.0059" data-paper-data="{&quot;index&quot;:null}" fill="#ffab19" fill-rule="nonzero" stroke="#000000" stroke-width="5"/><path d="M232.59651,197.44427" fill="#001026" fill-rule="evenodd" stroke="#000000" stroke-width="5"/><g data-paper-data="{&quot;index&quot;:null}" fill="none" fill-rule="nonzero" stroke="none" stroke-width="1" font-family="sans-serif" font-weight="normal" font-size="12" text-anchor="start"/><g data-paper-data="{&quot;index&quot;:null}" fill="none" fill-rule="nonzero" stroke="none" stroke-width="1" font-family="sans-serif" font-weight="normal" font-size="12" text-anchor="start"/></g></g><path d="M221.30209,176.58502l-2.1851,40.33692l11.44746,7.93167l-36.44563,6.6088l5.89129,-45.95868l25.59866,-15.31484z" fill="#000000" fill-rule="nonzero" stroke="#191919" stroke-width="3" stroke-linecap="round"/></g><path d="M244.13396,195.58935c3.95702,0.35855 6.7541,5.18197 6.24745,10.77342c-0.50665,5.59144 -4.12516,9.83354 -8.08218,9.47499c-3.95702,-0.35855 -6.7541,-5.18197 -6.24745,-10.77342c0.50665,-5.59144 4.12516,-9.83354 8.08218,-9.47499z" fill="#ff0000" fill-rule="nonzero" stroke="#000000" stroke-width="3" stroke-linecap="butt" stroke-linejoin="miter"/><path d="M226.52662,194.93614c3.65594,0.33127 6.27214,4.43523 5.84344,9.16645c-0.4287,4.73122 -3.73996,8.29809 -7.3959,7.96682c-3.65594,-0.33127 -6.27214,-4.43523 -5.84344,-9.16645c0.4287,-4.73122 3.73996,-8.29809 7.3959,-7.96682z" fill="#ffffff" fill-rule="nonzero" stroke="#000000" stroke-width="3" stroke-linecap="butt" stroke-linejoin="miter"/><path d="M230.90362,176.95956c5.07531,0.45988 8.91796,3.83128 8.58279,7.53024c-0.33517,3.69896 -4.72123,6.32475 -9.79653,5.86487c-5.07531,-0.45988 -8.91796,-3.83128 -8.58279,-7.53024c0.33517,-3.69896 4.72123,-6.32475 9.79653,-5.86487z" fill="#ffffff" fill-rule="nonzero" stroke="#000000" stroke-width="3" stroke-linecap="butt" stroke-linejoin="miter"/></g></g></svg>