<svg version="1.1" xmlns="http://www.w3.org/2000/svg" xmlns:xlink="http://www.w3.org/1999/xlink" width="81.06909" height="111.89492" viewBox="0,0,81.06909,111.89492"><defs><linearGradient x1="209.30103" y1="175.15903" x2="188.37723" y2="183.25746" gradientUnits="userSpaceOnUse" id="color-1"><stop offset="0" stop-color="#000000"/><stop offset="1" stop-color="#000000" stop-opacity="0"/></linearGradient></defs><g transform="translate(-184.67409,-131.55686)"><g stroke-miterlimit="10"><g stroke-linejoin="miter"><path d="M253.35626,153.86035c4.85516,12.54421 -1.83611,26.82648 -14.94537,31.90034c-13.10926,5.07386 -27.67232,-0.98205 -32.52747,-13.52627c-4.85516,-12.54421 1.83611,-26.82648 14.94537,-31.90034c13.10926,-5.07386 27.67232,0.98206 32.52747,13.52627z" fill="none" fill-rule="nonzero" stroke="#000000" stroke-width="4.5" stroke-linecap="butt"/><g><g fill-rule="nonzero" stroke-linecap="butt"><path d="M209.87068,153.81801l0.01361,0.00342" fill="#ffab19" stroke="#000000" stroke-width="5"/><g fill="none" stroke="none" stroke-width="1" font-family="sans-serif" font-weight="normal" font-size="12" text-anchor="start"/></g><path d="M209.87068,153.81801l0.01361,0.00342" fill="#ffab19" fill-rule="nonzero" stroke="#000000" stroke-width="5" stroke-linecap="butt"/><path d="M229.78973,164.29301" fill="#001026" fill-rule="evenodd" stroke="#000000" stroke-width="5" stroke-linecap="butt"/><g fill="none" fill-rule="nonzero" stroke="none" stroke-width="1" stroke-linecap="butt" font-family="sans-serif" font-weight="normal" font-size="12" text-anchor="start"/><g fill="none" fill-rule="nonzero" stroke="none" stroke-width="1" stroke-linecap="butt" font-family="sans-serif" font-weight="normal" font-size="12" text-anchor="start"/><path d="M246.31656,134.05686c-0.69546,2.54876 -6.086,20.75527 -6.086,20.75527" fill="none" fill-rule="nonzero" stroke="#000000" stroke-width="5" stroke-linecap="round"/><path d="M207.76022,161.25723c0,0 -1.26041,0.01273 -0.68637,-0.0744c2.96886,-0.45054 29.19836,-4.25254 29.19836,-4.25254" fill="none" fill-rule="nonzero" stroke="#000000" stroke-width="5" stroke-linecap="round"/></g><path d="M238.31993,169.05433l-4.42177,-12.07194" fill="none" fill-rule="nonzero" stroke="#000000" stroke-width="4.5" stroke-linecap="round"/><path d="M245.82891,165.14562l-4.67484,-12.72581" fill="none" fill-rule="nonzero" stroke="#000000" stroke-width="4.5" stroke-linecap="round"/><path d="M233.32437,188.66614l-27.54683,10.41123c0,0 -2.36475,0.55139 -2.3668,-0.41447c-0.00467,-2.21482 2.33928,-12.60641 2.33928,-12.60641l-12.33191,0.51269c0,0 -2.31205,-0.0743 -3.00668,-0.98415c-0.64619,-0.8464 6.60005,-13.68879 6.60005,-13.68879c0,0 -9.01259,-0.38233 -11.81604,-1.42148c-1.10085,-0.40805 7.84606,-12.07428 14.58419,-18.68035c3.29717,-3.23254 7.69934,-7.88256 11.8101,-10.25668c6.81591,-3.93645 13.23685,-3.96419 13.23685,-3.96419" fill="none" fill-rule="nonzero" stroke="#000000" stroke-width="3" stroke-linecap="round"/><path d="M204.0339,199.75223c0,0 -1.00116,-1.11787 -0.55223,-3.3642c0.56229,-2.8136 4.36928,-7.77288 1.97456,-9.37818c-3.10213,-2.07951 -14.69656,2.89855 -14.63702,-1.2496c0.04889,-3.40612 6.72202,-11.8479 5.97432,-13.77968c-0.74603,-1.9275 -4.5521,0.89381 -7.98805,-0.72626c-4.88666,-2.30408 -3.21171,-2.95834 -3.21171,-2.95834c0,0 8.23329,-11.19924 12.66201,-15.53707c4.15513,-4.06983 13.14189,-9.73719 13.14189,-9.73719c0,0 -8.96586,18.21092 -8.04861,26.48643c1.01681,9.17355 24.10462,20.17719 24.10462,20.17719z" fill="url(#color-1)" fill-rule="nonzero" stroke="none" stroke-width="0" stroke-linecap="butt"/></g><path d="M235.17335,205.41608l-0.18415,-15.8955" fill="none" fill-rule="nonzero" stroke="#000000" stroke-width="6" stroke-linecap="round" stroke-linejoin="miter"/><path d="M223.98067,209.60024c0,0 -3.23167,-7.1724 -2.61998,-8.11163c1.10759,-1.70065 13.58349,-11.12236 13.58349,-11.12236c0,0 6.32746,6.48628 8.47752,8.3421c2.02925,1.75153 6.96304,2.25131 6.96304,2.25131" fill="none" fill-rule="nonzero" stroke="#000000" stroke-width="6" stroke-linecap="round" stroke-linejoin="miter"/><g><g><g stroke="#001026" stroke-width="1.2"><path d="M243.71912,204.10309l2.92297,25.98777c0,0 7.06267,0.41252 6.89471,7.51322c-0.00958,0.40481 -0.10976,2.39235 -3.02746,2.97403c-2.79456,0.55712 -8.36532,-0.27515 -10.40081,-0.59138c-0.94539,-0.14688 -2.3855,-0.78756 -3.30585,-1.88454c-0.92663,-1.1045 -0.82654,-2.71079 -0.82591,-3.6144c0.00025,-0.36804 -2.07942,-29.30669 -2.07942,-29.30669" fill="#bf0000" fill-rule="evenodd" stroke-linecap="round" stroke-linejoin="round"/><path d="M233.72284,211.04161c0.17213,-7.27706 5.51843,-7.403 8.30395,-7.33711c1.21125,0.02865 1.04756,-1.91626 2.11947,3.77541c0.23607,1.25353 0.69999,6.3997 1.69204,10.77992c0.67932,2.9994 1.95353,5.64787 2.19159,6.40876c0.56246,1.79781 0.33108,3.4367 0.33108,3.4367l-1.01983,-1.19108c0,0 0.67202,0.83007 0.94114,1.32535c0.83841,1.54291 1.47974,2.70742 1.47974,2.70742c0,0 -7.12324,-0.46 -9.89761,1.80974c-2.77437,2.26974 -1.39961,6.54185 -1.39961,6.54185c0,0 -5.2776,-0.81096 -5.70054,-3.7225c-0.10427,-0.71777 0.71428,-2.85374 0.71428,-2.85374c0,0 -0.60345,0.12082 -0.623,-0.37617c-0.00997,-0.25335 0.79863,-4.01168 0.97828,-8.23959c0.2365,-5.56573 -0.1358,-12.01646 -0.111,-13.06496z" fill="#000000" fill-rule="nonzero" stroke-linecap="butt" stroke-linejoin="miter"/></g><path d="M224.66758,205.87547c-0.00985,-0.21361 1.19871,0.41618 3.93725,0.48896c3.61284,0.09603 9.14579,-0.33359 10.70162,-0.5534c4.03453,-0.57001 4.71727,-2.0872 4.74339,-1.52095c0.09666,2.09545 -2.1854,5.97695 -6.80087,6.18985c-2.02828,0.09356 -6.17685,0.79526 -8.52611,0.05752c-2.9966,-0.94103 -4.00109,-3.48741 -4.05528,-4.662z" fill="#004fd9" fill-rule="nonzero" stroke="#001026" stroke-width="1.2" stroke-linecap="butt" stroke-linejoin="miter"/><g fill-rule="nonzero" stroke-linecap="butt" stroke-linejoin="miter"><g fill="none" stroke="none" stroke-width="1" font-family="sans-serif" font-weight="normal" font-size="12" text-anchor="start"/><path d="M224.18074,204.51264c0,0 8.66928,1.31911 12.65307,1.30072c3.98378,-0.01839 7.26589,-1.39268 7.26589,-1.39268c0,0 0.03136,2.05113 -1.74527,4.04738c-1.37522,1.54522 -4.01823,3.14596 -7.43439,3.17992c-3.11221,0.03094 -6.58434,-0.62286 -8.30303,-1.96446c-2.60502,-2.03348 -2.43626,-5.17089 -2.43626,-5.17089z" fill="#000000" stroke="#001026" stroke-width="1.2"/></g><g stroke="#001026" stroke-width="1.2"><path d="M233.75786,209.71142c0,0 -3.38365,30.23157 -4.0011,30.33136c-1.77192,0.28635 -11.48215,-2.27779 -11.48215,-2.27779l6.24171,-30.39505" fill="#ffab19" fill-rule="evenodd" stroke-linecap="round" stroke-linejoin="round"/><path d="M235.25327,209.22401c0,0 -0.79043,6.39285 -1.0239,9.78248c-0.22392,3.25117 -0.34946,10.15728 -0.34946,10.15728c0,0 0.94919,5.01816 0.02119,6.25564c-0.42981,0.57316 -0.7685,-2.83316 -0.7685,-2.83316c0,0 0.37809,3.84012 0.41532,4.17859c0.25975,2.36159 -0.92568,5.46282 -4.03203,5.75745c-3.41058,0.32348 -9.06481,0.68884 -11.97961,-1.17955c-1.2402,-0.79497 -2.92012,-3.1351 -2.46798,-5.62796c0.50989,-2.8113 3.24812,-5.75646 3.24812,-5.75646l-2.5161,3.21037c0,0 -0.02623,-1.60299 0.38317,-2.77887c0.45976,-1.32051 2.2419,-4.76073 2.2419,-4.76073l5.40244,-19.36098" fill="#000000" fill-rule="evenodd" stroke-linecap="round" stroke-linejoin="round"/><path d="M232.09403,238.15795c-0.08549,1.69749 -0.78288,3.66972 -2.29657,4.69384c-1.51931,1.02791 -10.65038,0.62056 -12.06199,-0.63569c-1.34056,-1.19302 -1.88664,-3.39806 -1.8032,-5.05479c0.1713,-3.40126 3.92809,-5.93544 8.39105,-5.66022c4.46293,0.27521 7.94201,3.2556 7.77069,6.65688z" fill="#ff0000" fill-rule="nonzero" stroke-linecap="butt" stroke-linejoin="miter"/></g></g><g fill="#000000" fill-rule="nonzero" stroke="#001026" stroke-width="1.2" stroke-linecap="butt" stroke-linejoin="miter"><path d="M225.49006,216.02401c0,0 -2.91464,0.45871 -3.8062,0.19582c-0.27445,-0.08094 -1.00713,-1.01546 -1.38187,-2.12887c-0.46772,-1.38965 -0.52949,-3.10267 -0.19917,-4.29925c0.84987,-3.07858 5.23747,-6.43633 7.29477,-5.8297c0.89162,0.2629 3.22424,2.76495 3.22599,2.77122"/></g></g><g fill-rule="nonzero" stroke-linecap="butt" stroke-linejoin="miter"><g stroke="none" stroke-width="1"><path d="M254.95529,190.20064c-0.19917,-0.07271 -0.23598,-0.21633 -0.2492,-0.39251c0.00141,-0.27964 0.05908,-0.55357 0.07933,-0.8313c-0.04901,-0.05744 -0.098,-0.11488 -0.14942,-0.15506c-1.05172,-0.91122 -1.53409,-2.07933 -1.81171,-3.34905c-0.05734,-0.26811 -0.13345,-0.53818 -0.09449,-0.81397c0.00733,-0.05171 -0.00172,-0.12258 -0.03442,-0.16088c-0.1797,-0.21061 -0.14806,-0.43472 -0.13274,-0.67798c0.01043,-0.20876 0.05841,-0.41373 0.08762,-0.6206c0.01704,-0.12066 0.07161,-0.23753 0.1964,-0.31231c0.12479,-0.07473 0.20057,-0.20694 0.27388,-0.32188c0.34622,-0.69924 0.81652,-1.33343 1.39211,-1.90445c0.33021,-0.31617 0.70698,-0.55769 1.10252,-0.79725c1.16544,-0.70346 2.45113,-1.04498 3.81293,-1.11649c0.61277,-0.02516 1.23215,0.03775 1.84177,0.16961c0.4619,0.09938 0.86925,0.31565 1.2554,0.54721c1.22866,0.73685 2.052,1.78222 2.55971,3.04035c0.09972,0.23746 0.13831,0.50365 0.17688,0.76986c0.03198,0.17809 0.08515,0.34089 0.25822,0.46341c0.15672,0.10337 0.20991,0.26613 0.22311,0.44231c-0.00141,0.27964 -0.04036,0.55546 -0.07933,0.83129c-0.01217,0.08621 -0.05944,0.15136 -0.10675,0.2165c-0.20298,0.22418 -0.29581,0.47705 -0.35349,0.75099c-0.10152,0.58423 -0.38587,1.11489 -0.65146,1.64746c-0.10431,0.19925 -0.22732,0.39658 -0.38546,0.57287c-0.50052,0.57865 -1.01497,1.12094 -1.68371,1.54263c-0.03651,0.25857 -0.09423,0.5325 -0.13314,0.80832c-0.01461,0.10345 -0.03164,0.22411 -0.154,0.28161c-0.10357,0.0594 -0.09943,0.16478 -0.11401,0.26819c-0.1161,0.68764 -0.21348,1.3772 -0.3296,2.06485c-0.23542,1.53236 -0.47319,3.08196 -0.74613,4.61051c-0.26807,1.49407 -0.47977,2.99386 -0.71032,4.49174c-0.03407,0.24136 -0.10327,0.46163 -0.13731,0.70296c-0.1655,1.17225 -0.33103,2.3445 -0.51528,3.51484c-0.0292,0.20685 -0.02089,0.41754 -0.16028,0.59571c-0.04728,0.06517 -0.04068,0.15322 -0.05286,0.23943c-0.12167,0.86197 -0.26458,1.73924 -0.38628,2.6012c-0.00487,0.03447 -0.0122,0.08619 -0.01704,0.12066c-0.02016,0.27774 -0.17103,0.4023 -0.45084,0.49628c-0.9381,0.30689 -1.87236,0.3169 -2.80281,0.03006c-0.23669,-0.07651 -0.4685,-0.18749 -0.6767,-0.33103c-0.15673,-0.10337 -0.21235,-0.24889 -0.20679,-0.42317c0.01673,-0.52289 0.01466,-1.04768 0.03381,-1.58782c0.01601,-0.38309 0.07198,-0.77959 0.03168,-1.16837c-0.08962,-0.84843 0.0484,-1.69125 0.01504,-2.53395c-0.00938,-0.47307 -0.05871,-0.93275 -0.0493,-1.40393c0.01428,-0.50563 -0.01141,-0.99788 -0.01837,-1.48816c-0.00724,-0.89254 0.02548,-1.7985 -0.00055,-2.69294c-0.06214,-1.17786 -0.04924,-2.34818 -0.03631,-3.51842c-0.00032,-0.40224 -0.00068,-0.8044 -0.00099,-1.20664c0.01252,-0.62825 0.02753,-1.27368 0.04008,-1.90189c0.01113,-0.3486 -0.01768,-0.68378 -0.00658,-1.03235c-0.00519,-0.36778 0.04104,-0.69526 0.05706,-1.07837zM255.45856,190.00695c0.21062,0.12632 0.4261,0.21817 0.66765,0.26021c0.4661,0.20471 0.96797,0.29068 1.46987,0.37662c0.63085,0.11654 1.29017,0.16603 1.93075,0.2136c0.73441,0.05712 1.43686,-0.06387 2.16055,-0.20018c0.07994,-0.02686 0.15988,-0.0537 0.27978,-0.09398c0.01949,-0.1379 0.03891,-0.27582 0.05839,-0.41371c0.00487,-0.03447 -0.00902,-0.07087 -0.0205,-0.12448c-0.13138,-0.01336 -0.26519,-0.00946 -0.40145,0.01166c-0.23253,0.02885 -0.44141,0.02508 -0.67392,0.05391c-0.57766,0.04623 -1.15223,-0.06456 -1.72257,-0.07004c-0.30274,-0.01324 -0.61031,0.00791 -0.90818,-0.03981c-0.64962,-0.11844 -1.31138,-0.1507 -1.95121,-0.3381c-0.16406,-0.05165 -0.34687,-0.10515 -0.51094,-0.15683c-0.06047,-0.11109 -0.2155,-0.09182 -0.30448,-0.13586c-0.10529,-0.06316 -0.21064,-0.12632 -0.4195,-0.13003c0.09972,0.23746 0.01179,0.45585 0.05764,0.67033c0.09142,0.02679 0.15188,0.13781 0.28814,0.11669zM256.12653,190.66934c-0.40978,-0.19903 -0.51994,-0.22768 -0.76882,-0.218c-0.01043,0.20876 -0.01842,0.40032 -0.02888,0.6091c-0.01704,0.12066 0.04583,0.2145 0.15118,0.27767c0.07024,0.04213 0.16405,0.05163 0.23426,0.09374c0.26449,0.14931 0.57627,0.2334 0.87899,0.24667c0.11924,0.09951 0.26934,0.11481 0.41952,0.13006c0.84214,0.10304 1.66314,0.22139 2.51746,0.23825c0.38025,0.00367 0.76295,-0.00991 1.12926,-0.04266c0.2913,-0.04036 0.60132,-0.0788 0.85575,-0.2628c0.03163,-0.22413 0.06324,-0.44821 0.0949,-0.67234c-0.155,0.0192 -0.2913,0.04034 -0.40873,0.06337c-0.545,0.0845 -1.08512,0.13457 -1.61552,0.11565c-0.68296,-0.01694 -1.35379,-0.12006 -2.02703,-0.20592c-0.3191,-0.03241 -0.60479,-0.16633 -0.92627,-0.18152c-0.15188,-0.13781 -0.33713,-0.17414 -0.50604,-0.1913zM255.74494,210.0927c0.24816,0.13013 0.50847,0.17408 0.77365,0.18352c0.01632,0.01914 0.05145,0.0402 0.07024,0.04211c0.45288,0.02853 0.91064,0.02257 1.34546,-0.09063c0.25621,-0.06141 0.5099,-0.10557 0.72433,-0.27614c0.1363,-0.96539 0.27256,-1.93075 0.41622,-2.94788c-0.47721,0.14384 -0.93988,0.18433 -1.40001,0.20749c-0.4039,0.02892 -0.77196,-0.06094 -1.17097,-0.0665c-0.15014,-0.01524 -0.27911,-0.04581 -0.42926,-0.06106c-0.21303,-0.10908 -0.44974,-0.18558 -0.72882,-0.23142c-0.07301,0.51719 0.009,1.01513 -0.02162,1.50164c-0.01428,0.50564 -0.00978,1.01323 -0.02161,1.50161c0.15187,0.13782 0.29716,0.18759 0.44246,0.23729zM255.76492,206.58003c0.11925,0.0995 0.26694,0.13204 0.41707,0.14727c0.14041,0.08424 0.31179,0.08415 0.47825,0.11855c0.52311,0.07061 1.05837,0.05506 1.57971,0.00311c0.31001,-0.03845 0.62494,-0.11141 0.91202,-0.25709c0.00975,-0.06896 0.03824,-0.136 0.04794,-0.20496c0.11929,-0.84475 0.23611,-1.67216 0.37412,-2.51497c0.14532,-0.89451 0.28821,-1.7718 0.43355,-2.66632c0.20372,-1.30827 0.42385,-2.59735 0.62756,-3.90562c0.24442,-1.4615 0.43008,-2.91148 0.71206,-4.36916c0.05285,-0.23943 0.07054,-0.49993 0.10709,-0.75852c-0.21617,0.04799 -0.41845,0.13236 -0.62978,0.14585c-0.67881,0.08842 -1.36178,0.07149 -2.03989,0.02011c-0.60058,-0.06101 -1.19875,-0.13927 -1.79694,-0.21754c-0.23914,-0.05926 -0.46191,-0.09938 -0.70105,-0.15865c-0.13553,-0.11869 -0.30933,-0.10137 -0.45462,-0.15109c-0.16406,-0.05165 -0.30446,-0.13585 -0.49459,-0.13767c-0.06188,0.16858 -0.04381,0.31032 -0.04208,0.43287c0.06286,1.0381 -0.02687,2.07815 -0.02032,3.11049c0.00137,0.66463 0.00269,1.32925 0.02287,1.99576c0.00724,0.89254 0.0357,1.76972 0.0454,2.64501c0.01285,0.71822 0.02565,1.43647 0.01969,2.1528c0.0055,0.76996 -0.00532,1.52075 -0.01855,2.28883c-0.00351,0.69909 -0.00943,1.41542 0.00339,2.13365c0.16646,0.03438 0.26449,0.14927 0.41707,0.14729zM265.29504,184.11664c-0.43479,0.11319 -0.83872,0.14211 -1.245,0.18828c-0.42509,0.04425 -0.83382,0.10767 -1.25646,0.13466c-0.4039,0.02891 -0.8217,0.02144 -1.22314,0.03309c-0.42024,0.00976 -0.84044,0.01955 -1.27697,0.01018c-0.39899,-0.00558 -0.81436,-0.0303 -1.21338,-0.03586c-0.41533,-0.02472 -0.82096,-0.11837 -1.24605,-0.07412c-0.37951,-0.14345 -0.80217,-0.11646 -1.19391,-0.17372c-0.40802,-0.07644 -0.83975,-0.12028 -1.24778,-0.1967c-0.38926,-0.07452 -0.79488,-0.16821 -1.18171,-0.25995c-0.40562,-0.09369 -0.78272,-0.25442 -1.1956,-0.29632c-0.09595,0.40993 -0.11299,0.53058 -0.00665,0.85614c0.21303,0.10908 0.42611,0.21817 0.68155,0.29655c0.31177,0.08414 0.62352,0.16827 0.95164,0.27156c0.6211,0.18552 1.22588,0.35184 1.88278,0.41859c0.45046,0.04576 0.90336,0.07427 1.34407,0.18901c0.09142,0.02679 0.20403,0.0382 0.32147,0.01517c0.23252,-0.02886 0.47409,0.01321 0.69931,0.03605c0.82583,0.0839 1.66625,0.06437 2.49036,0.02566c1.08932,-0.02923 2.15809,-0.18294 3.23417,-0.38842c0.21374,-0.03076 0.4275,-0.06148 0.59952,-0.20139c0.07406,-0.25478 0.0918,-0.51529 0.08175,-0.84851zM258.00213,181.29495c-0.18177,0.20886 -0.28851,0.42535 -0.41398,0.63991c-0.12063,0.18008 -0.16859,0.38506 -0.12273,0.59955c0.05663,0.40793 0.05455,0.8274 -0.02267,1.23923c-0.00487,0.03447 0.00656,0.08811 0.00414,0.10533c0.08654,0.06122 0.16161,0.06884 0.26278,0.02669c0.0212,-0.01531 0.04484,-0.0479 0.04728,-0.06516c0.1269,-0.49422 0.29132,-0.98459 0.49329,-1.47119c0.02852,-0.06704 0.06187,-0.16857 0.03406,-0.24136c-0.03612,-0.28345 -0.07227,-0.56689 -0.2822,-0.83304zM256.50847,183.7836c0.12201,-0.45973 0.27916,-0.8984 0.45263,-1.31793c0.05698,-0.13409 0.05528,-0.25667 0.01842,-0.4003c-0.06464,-0.21637 -0.17169,-0.40214 -0.27629,-0.60513c-0.0278,-0.07277 -0.05315,-0.16276 -0.17065,-0.13973c-0.13523,0.28353 -0.28677,0.54794 -0.38447,0.83525c0.21686,0.75645 0.21684,0.75643 0.11879,1.5858c0.04899,0.05745 0.12166,0.0823 0.24156,0.04203zM260.88458,185.95929c-0.11889,0.30268 -0.21901,0.60729 -0.31913,0.91187c-0.02852,0.06705 -0.05701,0.1341 -0.04797,0.20494c0.09242,0.28915 0.16614,0.57643 0.3597,0.82343c0.25443,-0.18398 0.34723,-0.43685 0.49393,-0.66677c0.07334,-0.11492 0.06916,-0.22029 0.0299,-0.34669c-0.1112,-0.29107 -0.18488,-0.57837 -0.2373,-0.88091c0.00244,-0.01725 -0.03263,-0.0383 -0.06532,-0.07656c-0.05874,0.01151 -0.1363,0.02114 -0.21376,0.03075zM261.76306,181.62453c-0.28294,0.25104 -0.43207,0.49819 -0.59994,0.74342c-0.05215,0.09962 -0.04553,0.18771 -0.03893,0.27581c0.05422,0.42517 0.05206,0.84466 -0.02754,1.27372c-0.00731,0.05171 0.00414,0.10533 -0.00313,0.15704c0.20403,0.03822 0.244,0.0248 0.26345,-0.11311c0.06328,-0.44825 0.21799,-0.86967 0.46164,-1.24709c0.14669,-0.22991 0.15714,-0.43869 0.09493,-0.67234c-0.05804,-0.12832 -0.09972,-0.23748 -0.15046,-0.41748zM258.72073,184.02582c0.09384,0.00951 0.12233,-0.05757 0.13208,-0.12651c0.06816,-0.48267 0.284,-0.93288 0.49989,-1.3831c0.16614,-0.36781 0.14706,-0.77194 -0.08093,-1.17979c-0.15328,0.1418 -0.1964,0.3123 -0.31214,0.45791c-0.23393,0.30848 -0.28016,0.63601 -0.25378,0.98843c0.02154,0.38687 0.06181,0.7757 -0.02924,1.15113c0.01149,0.05361 0.02779,0.0728 0.04414,0.09193zM260.44691,181.50832c-0.14183,0.19542 -0.25516,0.3238 -0.34968,0.45408c-0.163,0.21078 -0.21099,0.41573 -0.17001,0.66469c0.06637,0.33898 0.05524,0.68758 0.02534,1.03424c0.00172,0.1226 -0.01775,0.26049 -0.03478,0.38115c0.09142,0.02679 0.11746,-0.02301 0.12233,-0.05751c0.1644,-0.49042 0.34761,-0.97887 0.60348,-1.44251c0.03093,-0.08429 0.05943,-0.15133 0.05283,-0.23943c-0.05976,-0.25089 -0.10076,-0.49985 -0.2495,-0.79472zM262.09134,185.90703c0.02884,0.33518 -0.0713,0.63974 -0.15265,0.94625c-0.01217,0.08619 -0.07821,0.14944 -0.05284,0.23943c0.03685,0.14366 0.22312,0.44234 0.40767,0.61849c0.15575,-0.15905 0.22246,-0.36209 0.32434,-0.54412c0.07821,-0.14945 0.07892,-0.28925 0.00455,-0.43669c-0.11605,-0.25659 -0.19461,-0.50939 -0.21197,-0.79095c0.00245,-0.01725 -0.03025,-0.05552 -0.04657,-0.07465c-0.07266,-0.02487 -0.14772,-0.03251 -0.2725,0.04228zM255.51186,186.3927c0.07855,0.25277 0.01838,0.54396 0.15566,0.78522c0.13381,-0.00389 0.20231,-0.08436 0.28711,-0.1457c0.15085,-0.12459 0.31559,-0.21273 0.43621,-0.39283c-0.06878,-0.32175 0.0174,-0.66271 -0.0302,-0.99978c-0.08654,-0.06122 -0.18037,-0.0708 -0.2791,-0.04582c-0.15399,0.28165 -0.34308,0.54222 -0.56971,0.79896zM258.62924,185.88756c-0.06188,0.16858 -0.12376,0.33714 -0.23463,0.44827c-0.2666,0.27015 -0.28919,0.56517 -0.18041,0.87346c0.04168,0.10914 0.02707,0.21259 0.12508,0.32749c0.21204,-0.15335 0.3702,-0.32961 0.52831,-0.50592c0.04485,-0.0479 0.05455,-0.11686 0.04796,-0.20494c-0.03859,-0.26623 -0.06081,-0.51328 -0.09936,-0.77948c0.00733,-0.05171 -0.02051,-0.12449 -0.18701,-0.15889zM257.44679,185.76746c-0.12862,0.37164 -0.28993,0.70495 -0.57285,0.956c-0.0636,0.04599 -0.05456,0.11686 -0.06429,0.18581c-0.00313,0.15706 0.01249,0.31605 0.1032,0.4826c0.29686,-0.21466 0.49984,-0.43888 0.70525,-0.68028c0.06847,-0.08047 0.09943,-0.16475 0.09525,-0.2701c-0.01071,-0.19345 -0.00277,-0.385 -0.01353,-0.57843c0.00245,-0.01725 -0.03024,-0.05555 -0.04657,-0.07467c-0.0563,-0.00573 -0.11263,-0.01145 -0.20644,-0.02094zM263.07027,182.61417c-0.05075,-0.18 -0.09901,-0.37728 -0.14975,-0.55732c-0.01632,-0.01914 -0.03267,-0.03831 -0.06533,-0.07657c-0.22838,0.13416 -0.3702,0.32961 -0.47206,0.51159c0.05594,0.54777 0.11673,1.06102 0.03397,1.64716c0.30171,-0.24913 0.20923,-0.5383 0.29719,-0.75667c0.09525,-0.2701 0.22558,-0.51914 0.35593,-0.76819zM257.79772,180.85451c-0.15848,-0.22593 -0.27946,-0.44806 -0.52515,-0.59542c-0.09212,0.11302 -0.19813,0.18971 -0.26902,0.28745c-0.07089,0.09772 -0.16057,0.1935 -0.17759,0.3142c0.03442,0.16085 0.15118,0.27765 0.22799,0.40785c0.07683,0.13018 0.11364,0.27385 0.25161,0.37528c0.17031,-0.2625 0.31945,-0.5096 0.49222,-0.78934zM255.3024,183.69605c0.14808,-0.50953 0.26521,-0.93482 0.38238,-1.36003c0.00487,-0.03447 0.03097,-0.0843 -0.00172,-0.12258c-0.10461,-0.20296 -0.16682,-0.43661 -0.39375,-0.58207c-0.10916,0.23371 -0.21587,0.45022 -0.30381,0.66862c0.18801,0.4213 0.25855,0.86558 0.31692,1.39611zM259.57559,187.67988c0.18597,-0.10352 0.24783,-0.27209 0.34239,-0.40236c0.11576,-0.14561 0.1752,-0.29694 0.12688,-0.49419c-0.05733,-0.26811 -0.11467,-0.53624 -0.03819,-0.80827c-0.12653,-0.04783 -0.20403,-0.03822 -0.21863,0.06522c-0.05526,0.25666 -0.113,0.53059 -0.25725,0.74325c-0.1964,0.3123 -0.08278,0.58618 0.04481,0.89638zM257.77106,187.11184c-0.28536,0.26828 -0.52346,0.47142 -0.74278,0.67643c-0.01704,0.12066 0.02952,0.19536 0.05734,0.2681c0.04657,0.07467 0.0695,0.18188 0.19599,0.22973c0.22597,-0.11694 0.43794,-0.27025 0.63366,-0.44269c-0.02467,-0.2298 -0.07054,-0.44431 -0.1442,-0.73158zM260.59844,188.25591c-0.13239,-0.27574 -0.25093,-0.5151 -0.36697,-0.77168c-0.16302,0.21077 -0.32362,0.40431 -0.4842,0.59782c0.09972,0.23746 0.16436,0.45387 0.36769,0.63185c0.19081,-0.13797 0.32776,-0.29894 0.48349,-0.45798zM258.77654,180.39436c-0.23982,0.08054 -0.32777,0.29894 -0.46473,0.45988c-0.04485,0.0479 -0.03826,0.13599 -0.00799,0.19153c0.08827,0.18385 0.1602,0.34853 0.25087,0.51512c-0.00244,0.01725 0.03513,0.02104 0.07266,0.02488c0.16548,-0.22799 0.31453,-0.47515 0.48002,-0.70314c-0.06949,-0.1819 -0.20017,-0.33507 -0.33087,-0.48824zM261.57272,181.22051c-0.04832,-0.19724 -0.09902,-0.37726 -0.28843,-0.51894c-0.17205,0.13992 -0.38165,0.27599 -0.50472,0.47333c0.03926,0.12639 0.04101,0.24897 0.10147,0.36002c0.04167,0.10914 0.00343,0.24517 0.16507,0.31403c0.18179,-0.20885 0.36356,-0.4177 0.52663,-0.62848zM261.13603,188.2231c0.05317,0.16277 0.20993,0.26613 0.36422,0.38672c0.17939,-0.1916 0.38894,-0.32772 0.49812,-0.5614c-0.13069,-0.15318 -0.19775,-0.35231 -0.38474,-0.51121c-0.16548,0.22799 -0.31217,0.4579 -0.4776,0.6859zM263.29393,185.74945c-0.06258,0.3084 -0.05249,0.64166 -0.15265,0.94626c-0.07404,0.25478 0.0379,0.406 0.24363,0.56681c0.15813,-0.17626 0.22246,-0.36209 0.30796,-0.56324c-0.20505,-0.30058 -0.25268,-0.63768 -0.39897,-0.9498zM254.28544,183.34792c0.07751,-0.0096 0.08479,-0.06132 0.09212,-0.11302c0.05041,-0.22218 0.08449,-0.46355 0.15367,-0.68385c0.1213,-0.31992 -0.04204,-0.51137 -0.25928,-0.72579c-0.05458,0.11689 -0.10426,0.19924 -0.1352,0.28352c-0.08549,0.20116 -0.13105,0.38885 0.01108,0.59567c0.07682,0.13018 0.09242,0.28918 0.11054,0.43091c-0.02852,0.06705 -0.0782,0.14943 0.02708,0.21258zM254.59011,186.71875c0.10357,-0.0594 0.16963,-0.12266 0.23322,-0.16865c0.20715,-0.11883 0.28538,-0.26829 0.27704,-0.47897c-0.01317,-0.17619 0.03237,-0.36393 0.03792,-0.53822c0.00733,-0.05172 0.03337,-0.10153 -0.09558,-0.13213c-0.12796,0.23181 -0.29338,0.45984 -0.49394,0.66677c-0.04485,0.0479 -0.05699,0.13407 -0.06675,0.20303c0.01806,0.1417 0.03856,0.26624 0.10807,0.44813zM259.24289,188.01328c-0.05073,-0.18 -0.08026,-0.37534 -0.18978,-0.54386c-0.21445,0.17058 -0.44281,0.30474 -0.60584,0.51549c0.08829,0.18383 0.12023,0.36192 0.31209,0.48636c0.17207,-0.13991 0.36048,-0.26064 0.48349,-0.45799zM259.81704,181.65416c0.21443,-0.17058 0.35626,-0.36601 0.46052,-0.56524c-0.08827,-0.18383 -0.16023,-0.34849 -0.30724,-0.52082c-0.16477,0.08819 -0.27807,0.21658 -0.37504,0.36409c0.08097,0.23553 0.14319,0.46918 0.2217,0.72198zM257.46054,188.63657c0.09559,0.13214 0.1397,0.22402 0.22383,0.3025c0.04901,0.05744 0.10043,0.09764 0.1519,0.13783c0.19985,-0.06712 0.38582,-0.17064 0.52278,-0.33159c-0.06949,-0.1819 -0.13902,-0.36381 -0.30969,-0.50357c-0.19081,0.13797 -0.37678,0.24151 -0.58879,0.39482zM254.21758,185.17708c-0.23566,0.18592 -0.40527,0.30853 -0.59854,0.46377c-0.02852,0.06704 -0.02679,0.1896 0.01492,0.29877c0.02294,0.10723 -0.03164,0.2241 0.06881,0.32174c0.17623,-0.03456 0.301,-0.10932 0.4119,-0.22045c0.02017,-0.27774 0.05672,-0.53632 0.10295,-0.86384zM257.56042,179.97353c0.08171,0.09575 0.16337,0.19148 0.245,0.28721c0.08172,0.09574 0.16581,0.1742 0.24746,0.26993c0.15815,-0.17626 0.30901,-0.30084 0.37333,-0.48664c-0.0417,-0.10914 -0.14944,-0.15506 -0.23596,-0.21633c-0.08654,-0.06122 -0.16581,-0.1742 -0.29959,-0.17032c-0.12967,0.10927 -0.25442,0.18398 -0.33021,0.31619zM259.75451,188.97454c-0.12582,-0.18764 -0.19044,-0.40407 -0.39625,-0.56485c-0.15083,0.12458 -0.28293,0.25104 -0.4338,0.37561c0.12581,0.18764 0.2165,0.35425 0.42958,0.46331c0.14354,-0.07285 0.28225,-0.11122 0.40043,-0.27407zM255.8899,181.69239c0.15644,-0.29884 0.28922,-0.56513 0.42198,-0.8314c-0.06047,-0.11109 -0.10215,-0.22024 -0.22868,-0.26805c-0.23324,0.16867 -0.36115,0.40045 -0.50782,0.63036c0.06048,0.11109 0.12093,0.22213 0.2026,0.31786c0.00901,0.07088 0.04413,0.0919 0.11189,0.15125zM256.5403,187.73871c-0.08588,-0.20107 -0.05664,-0.40796 -0.18733,-0.56112c-0.23078,0.15142 -0.44037,0.28751 -0.61977,0.47915c0.11437,0.13404 0.08999,0.3064 0.26309,0.42891c0.19983,-0.06713 0.33439,-0.21086 0.544,-0.34692zM262.46346,180.97875c-0.14598,0.09009 -0.27562,0.19933 -0.37018,0.32963c0.08343,0.21831 0.14804,0.4347 0.22659,0.68748c0.13936,-0.17816 0.27147,-0.30466 0.44597,-0.46178c-0.08342,-0.21832 -0.15047,-0.41748 -0.30238,-0.55533zM254.63042,187.10755c0.04342,0.23174 0.07298,0.42708 0.24118,0.58407c0.16231,-0.07096 0.30343,-0.12652 0.398,-0.25683c-0.04586,-0.21449 -0.07298,-0.42704 -0.13274,-0.67794c-0.18597,0.10352 -0.35314,0.20895 -0.50643,0.35074zM260.62416,180.79192c0.16058,-0.19351 0.38166,-0.27601 0.44597,-0.46183c-0.08827,-0.18383 -0.22382,-0.30252 -0.38058,-0.40588c-0.16718,0.10543 -0.33195,0.19359 -0.41504,0.37748c0.1119,0.15126 0.20507,0.30059 0.34964,0.49016zM261.17499,188.89152c-0.11436,-0.13403 -0.19115,-0.26421 -0.35035,-0.35033c-0.15813,0.17626 -0.38166,0.27597 -0.48838,0.49247c0.09558,0.13214 0.19846,0.21253 0.36496,0.24692c0.16962,-0.12266 0.32291,-0.26444 0.47373,-0.38903zM255.07037,181.29437c-0.09314,-0.14937 -0.17723,-0.2278 -0.30133,-0.29294c-0.15085,0.12459 -0.28783,0.2855 -0.31699,0.49236c0.09802,0.11488 0.19599,0.22972 0.29158,0.36186c0.17694,-0.17437 0.2249,-0.37932 0.32674,-0.56133zM264.26543,187.22948c-0.10041,-0.09763 -0.18457,-0.17613 -0.29471,-0.2048c-0.13694,0.16092 -0.23634,0.32573 -0.30065,0.51154c0.0792,0.11297 0.16334,0.19145 0.28985,0.23928c0.15575,-0.15905 0.20369,-0.36401 0.30552,-0.546zM258.16122,189.33724c0.08339,0.21829 0.23112,0.2508 0.40247,0.25073c0.13137,0.01336 0.26763,-0.00778 0.34342,-0.13998c-0.09314,-0.14937 -0.1887,-0.28147 -0.34546,-0.38483c-0.14598,0.09009 -0.2732,0.18208 -0.40042,0.27407zM263.94992,182.72099c-0.0344,-0.16086 -0.01493,-0.29875 -0.13413,-0.3983c-0.41675,0.25494 -0.36918,0.59201 -0.23258,0.97307c0.12306,-0.19732 0.2437,-0.37745 0.36672,-0.57476zM256.47172,188.76346c0.17867,-0.05177 0.30343,-0.12654 0.43795,-0.27025c-0.11924,-0.09951 -0.11368,-0.27384 -0.25408,-0.35804c-0.11507,0.00578 -0.16231,0.07093 -0.2447,0.115c-0.08478,0.06131 -0.18352,0.08627 -0.20057,0.20694c0.06048,0.11109 0.12096,0.22215 0.26137,0.30635zM259.1621,184.00072c0.19183,0.1244 0.30933,0.10138 0.34998,-0.05186c0.05042,-0.22218 0.0633,-0.44822 0.07372,-0.65699c0.00976,-0.06893 0.0031,-0.15706 -0.10461,-0.20297c-0.13765,0.30077 -0.23776,0.60533 -0.31912,0.91183zM262.23993,189.03466c0.02293,0.10724 0.09071,0.16659 0.2009,0.1953c0.20961,-0.13609 0.45433,-0.25111 0.60101,-0.48102c-0.21063,-0.12631 -0.38445,-0.10903 -0.54014,0.05002c-0.0848,0.06132 -0.20476,0.10162 -0.26175,0.2357zM261.70146,184.08382c0.26273,0.0267 0.32394,-0.00212 0.34584,-0.15721c0.0153,-0.24325 0.03306,-0.50374 -0.02673,-0.75461c-0.19396,0.29506 -0.36672,0.57477 -0.31912,0.91184zM264.25224,186.10906c-0.03825,0.13598 -0.05525,0.2567 -0.09108,0.37542c-0.05288,0.23944 -0.05283,0.23944 0.27283,0.35999c0.05458,-0.11689 0.13037,-0.24907 0.15884,-0.3161c-0.13068,-0.15319 -0.22625,-0.28527 -0.3406,-0.41929zM259.96705,179.37871c-0.1248,0.07474 -0.29858,0.09209 -0.32536,0.28172c0.10043,0.09764 0.22209,0.17994 0.33886,0.29671c0.146,-0.09009 0.30832,-0.16099 0.38408,-0.29321c-0.11926,-0.09951 -0.21723,-0.21444 -0.39762,-0.28522zM262.91499,187.35465c-0.12544,0.21457 -0.26975,0.42723 -0.3952,0.64181c0.02539,0.08998 0.07191,0.16467 0.18938,0.14163c0.19081,-0.13797 0.34901,-0.31427 0.43693,-0.53267c-0.06047,-0.11109 -0.12581,-0.18763 -0.23116,-0.25079zM263.03246,181.26391c0.13381,-0.00389 0.23742,-0.0633 0.32707,-0.15912c-0.0278,-0.07278 -0.0556,-0.14553 -0.08342,-0.2183c-0.04411,-0.09191 -0.06953,-0.18192 -0.17726,-0.22782c-0.11261,-0.01145 -0.2113,0.01347 -0.29856,0.09208c0.07196,0.1647 0.16024,0.34851 0.23213,0.51319zM259.38374,180.5435c0.146,-0.09009 0.23811,-0.20315 0.3139,-0.33533c-0.13553,-0.11869 -0.25233,-0.23545 -0.37152,-0.33499c-0.15747,0.03649 -0.24714,0.13229 -0.28052,0.23381c0.11189,0.15126 0.22382,0.30251 0.33814,0.43657zM263.70769,181.87456c-0.0417,-0.10914 -0.08339,-0.21829 -0.14386,-0.32939c-0.01632,-0.01913 -0.05389,-0.02295 -0.08902,-0.04401c-0.08239,0.04408 -0.19985,0.06711 -0.27563,0.19933c0.03687,0.14366 0.05008,0.31982 0.16197,0.47109c0.16229,-0.07095 0.25196,-0.16677 0.34652,-0.29705zM264.49324,183.45816c0.04554,-0.18772 0.25687,-0.20125 0.2812,-0.37362c-0.0556,-0.1455 -0.05243,-0.30258 -0.18313,-0.45574c-0.14354,0.07285 -0.26835,0.14763 -0.23391,0.30847c0.0344,0.16087 -0.00627,0.31408 0.13585,0.52089zM263.43076,188.42123c0.09211,-0.11303 0.20298,-0.2242 0.29266,-0.31998c0.02121,-0.01532 0.00731,-0.05173 0.01216,-0.0862c-0.08898,-0.04401 -0.17063,-0.13975 -0.34687,-0.10515c-0.11328,0.12838 -0.22908,0.27399 -0.36359,0.41772c0.12163,0.0823 0.23184,0.11097 0.40562,0.09369zM258.94725,179.58987c-0.098,-0.11488 -0.19358,-0.24699 -0.27525,-0.3427c-0.17623,0.03455 -0.30103,0.1093 -0.40702,0.18598c0.00174,0.12261 0.13067,0.15314 0.19846,0.21251c0.06781,0.05934 0.13312,0.13592 0.26694,0.13203c0.07994,-0.02686 0.16233,-0.07096 0.21691,-0.18782zM254.99425,188.03629c0.07683,0.13018 0.13972,0.22405 0.20261,0.31785c0.01389,0.03639 0.06778,0.05936 0.08413,0.0785c0.13137,0.01336 0.23497,-0.04606 0.32463,-0.14189c-0.07438,-0.14744 -0.12999,-0.29299 -0.24426,-0.42702c-0.1199,0.04029 -0.22351,0.09971 -0.36705,0.17255zM264.76137,186.14329c0.10675,-0.21649 0.21342,-0.43295 0.19122,-0.68002c-0.17622,0.03456 -0.32884,0.03654 -0.44213,0.16491c0.05243,0.30259 0.05245,0.3026 0.2509,0.5151zM256.75665,189.03722c0.27284,0.35998 0.29157,0.36186 0.65379,0.22375c-0.09559,-0.13214 -0.21235,-0.24887 -0.3079,-0.38102c-0.13381,0.00389 -0.23737,0.06331 -0.34585,0.15719zM262.24944,180.6073c-0.07437,-0.14744 -0.15363,-0.26041 -0.29405,-0.34465c-0.03998,0.01343 -0.10116,0.04218 -0.16234,0.07094c-0.04241,0.03068 -0.08727,0.07858 -0.12964,0.10922c0.07439,0.14744 0.12757,0.31023 0.26554,0.41168c0.11989,-0.04028 0.22838,-0.13416 0.32046,-0.24723zM253.98251,187.11168c0.06116,-0.02877 0.14354,-0.07287 0.16963,-0.12267c0.0831,-0.18392 0.06987,-0.36006 -0.03475,-0.56309c-0.12236,0.0575 -0.27735,0.07673 -0.34828,0.17447c0.05073,0.18 0.04274,0.37155 0.21339,0.51128zM255.7982,180.31914c-0.01631,-0.01914 -0.03266,-0.03829 -0.06533,-0.07657c-0.26348,0.11315 -0.47794,0.2837 -0.69237,0.45426c0.03927,0.12638 0.10704,0.18572 0.25474,0.21822c0.16058,-0.19351 0.3399,-0.38512 0.50297,-0.59591zM260.72896,183.2856c-0.14911,0.24715 -0.31454,0.47514 -0.33716,0.7701c-0.00245,0.01725 0.06779,0.05931 0.1053,0.06314c0.09384,0.0095 0.17865,-0.05181 0.19077,-0.138c0.08796,-0.21838 0.08205,-0.44632 0.04106,-0.69525zM261.71521,179.94099c-0.07921,-0.11299 -0.15848,-0.22595 -0.28012,-0.30826c-0.13138,-0.01336 -0.23009,0.01159 -0.34097,0.12271c0.11679,0.11679 0.23112,0.25082 0.35032,0.35034c0.11744,-0.02303 0.19983,-0.06714 0.27076,-0.16484zM259.57061,189.60283c0.26033,0.04393 0.48311,0.08409 0.72537,-0.01371c-0.03441,-0.16085 -0.15603,-0.24318 -0.29889,-0.31015c-0.16475,0.08819 -0.3083,0.16102 -0.42649,0.3239zM253.15054,185.45339c0.18354,-0.08628 0.20472,-0.10156 0.21205,-0.15332c0.04312,-0.17046 -0.02882,-0.33519 -0.1032,-0.4826c-0.03022,-0.05551 -0.12167,-0.08228 -0.19257,0.01543c0.0907,0.16659 -0.01603,0.3831 0.08375,0.62053zM256.53187,180.51609c0.17939,-0.1916 0.37506,-0.36409 0.43517,-0.65525c-0.27977,0.09398 -0.4404,0.28752 -0.59609,0.44655c0.00657,0.0881 0.05803,0.12827 0.16093,0.20867zM255.78945,188.60671c-0.10114,0.04219 -0.19985,0.06714 -0.30099,0.10932c0.07194,0.16471 0.16752,0.29681 0.38127,0.26606c0.05875,-0.01151 0.11745,-0.02304 0.14598,-0.09009c-0.02293,-0.10723 -0.10706,-0.18575 -0.22625,-0.28527zM262.98333,184.0392c0.16893,0.01714 0.24885,-0.00967 0.24955,-0.14949c-0.00172,-0.12261 -0.00347,-0.24517 -0.02398,-0.36967c-0.01149,-0.0536 -0.0417,-0.10918 -0.11921,-0.09955c-0.08551,0.20115 -0.11227,0.39077 -0.10637,0.6187zM255.89989,182.96988c-0.10675,0.2165 -0.17589,0.4368 -0.15123,0.66661c-0.00244,0.01726 0.0678,0.05931 0.08654,0.06122c0.03751,0.00382 0.08239,-0.04408 0.08724,-0.07858c0.01289,-0.22601 0.07963,-0.42909 -0.02256,-0.64933zM254.91628,183.46449c-0.03196,-0.1781 -0.00519,-0.36777 -0.091,-0.56883c-0.12547,0.21457 -0.18978,0.40039 -0.14808,0.50954c0.02293,0.10723 0.098,0.11489 0.2391,0.05927zM261.42037,189.5809c0.23253,-0.02885 0.49532,-0.00216 0.65589,-0.19568c-0.31835,-0.17221 -0.47892,0.0213 -0.65589,0.19568zM261.60051,186.41675c0.03751,0.00381 0.0588,-0.01153 0.0963,-0.00771c0.00555,-0.17428 0.10253,-0.32182 0.03059,-0.4865c-0.11017,-0.0287 -0.16892,-0.01716 -0.23739,0.06332c0.03927,0.12638 0.0761,0.27001 0.11053,0.43091zM258.2738,183.28095c-0.09037,0.23563 -0.15468,0.42145 -0.16513,0.63022c-0.00487,0.03447 0.02778,0.07277 0.08409,0.07848c0.0188,0.00191 0.05874,-0.01152 0.07994,-0.02687c0.10675,-0.21649 0.13592,-0.42334 0.00108,-0.68184zM254.27236,187.35094c-0.11746,0.02304 -0.17863,0.05178 -0.1484,0.10733c0.03927,0.12638 0.09732,0.25468 0.15534,0.383c0.04656,0.07467 0.10285,0.0804 0.1689,0.01716c-0.0295,-0.19535 -0.06394,-0.35624 -0.17584,-0.50747zM260.77163,179.47794c0.08239,-0.04408 0.16233,-0.07096 0.24471,-0.11502c0.02121,-0.01531 0.02606,-0.04982 0.05215,-0.09962c-0.22519,-0.0229 -0.42434,-0.09556 -0.6781,-0.0514c0.11679,0.11679 0.20089,0.19527 0.38127,0.26605zM256.77111,185.69878c-0.00557,0.17429 -0.0087,0.33138 -0.01914,0.54015c0.21203,-0.15335 0.29025,-0.30275 0.2958,-0.47704c-0.08654,-0.06123 -0.14041,-0.08422 -0.27668,-0.0631zM262.72527,185.86651c0.05804,0.12832 -0.00628,0.31408 0.18558,0.43852c0.1147,-0.40802 0.12688,-0.49418 0.03789,-0.53823c-0.09384,-0.0095 -0.15504,0.01923 -0.22351,0.09971zM257.14279,183.20106c-0.26174,0.23568 -0.29091,0.44256 -0.25237,0.70878c0.29196,-0.18019 0.17586,-0.43676 0.25237,-0.70878zM264.07858,183.2936c-0.24053,0.22036 -0.26732,0.41003 -0.25897,0.6207c-0.00244,0.01725 0.03267,0.03828 0.0702,0.0421c0.0563,0.00574 0.09871,-0.02495 0.10357,-0.05941c0.04313,-0.17046 0.04868,-0.34475 0.08519,-0.60334zM263.66277,185.69946c0.0344,0.16086 0.02884,0.33518 0.19945,0.47487c0.08064,-0.16668 0.08377,-0.32373 0.08449,-0.46354c-0.10529,-0.06316 -0.18279,-0.05354 -0.28396,-0.01135zM264.48005,182.33768c-0.10949,-0.16851 -0.0827,-0.35814 -0.26066,-0.44616c-0.09037,0.23563 -0.09037,0.23562 0.08199,0.49794c0.03998,-0.01343 0.07994,-0.02686 0.17866,-0.05179zM261.78123,188.77819c0.27006,-0.02503 0.42335,-0.16682 0.5603,-0.32778c-0.0417,-0.10914 -0.11679,-0.11679 -0.18037,-0.0708c-0.11328,0.12839 -0.24541,0.25487 -0.37989,0.39858zM262.56262,180.41176c0.11507,-0.00579 0.21132,-0.01349 0.28221,-0.1112c-0.0629,-0.09381 -0.1258,-0.18767 -0.23595,-0.21632c-0.09627,0.00769 -0.15745,0.03648 -0.20475,0.10163c0.02539,0.08999 0.07438,0.14744 0.1585,0.22592zM259.31012,186.32396c0.07578,-0.13217 0.12794,-0.23184 0.105,-0.33907c-0.01389,-0.03639 -0.04899,-0.05745 -0.08412,-0.0785c-0.0563,-0.00574 -0.13627,0.02112 -0.1248,0.07472c-0.01461,0.10346 -0.03164,0.22412 0.10392,0.34283zM259.52457,179.1414c-0.16163,-0.06888 -0.32395,0.00208 -0.47895,0.02131c0.19358,0.247 0.23114,0.25078 0.47895,-0.02131zM253.86767,183.34045c0.11158,-0.25097 0.11158,-0.25096 -0.04274,-0.37157c-0.05215,0.09962 -0.10672,0.21651 0.04274,0.37157zM260.52066,185.97478c-0.06781,-0.05934 -0.12408,-0.06506 -0.1477,-0.03251c-0.11328,0.12839 -0.10184,0.182 0.04519,0.35432c0.07335,-0.11492 0.08798,-0.21841 0.10257,-0.32184zM264.84735,183.51162c-0.106,0.07669 -0.19324,0.15525 -0.17278,0.2797c0.30759,-0.02123 0.33121,-0.05375 0.17278,-0.2797zM253.55875,182.69708c-0.12967,0.10927 -0.16791,0.24522 -0.20369,0.36397c-0.00976,0.06894 0.03927,0.12641 0.16163,0.06889c0.03579,-0.11876 0.07405,-0.25479 0.04209,-0.43287zM263.93825,181.32089c-0.06188,0.16858 -0.01776,0.2605 0.12754,0.31023c0,0 0.03998,-0.01343 0.0424,-0.03068c0.03335,-0.10154 -0.06947,-0.18191 -0.16993,-0.2796zM258.07206,186.05829c0.11746,-0.02304 0.16477,-0.08819 0.15572,-0.15903c0.00487,-0.03447 -0.0278,-0.07277 -0.0629,-0.09383c-0.03512,-0.02104 -0.09625,0.00769 -0.10111,0.04219c-0.02608,0.04982 -0.03582,0.11875 0.0083,0.21068zM261.97461,179.72256c0.05803,0.12831 0.1258,0.18766 0.2857,0.13393c-0.07439,-0.14744 -0.14458,-0.18956 -0.2857,-0.13393z" fill="#000000"/><path d="M256.99012,192.10347c0.59815,0.07827 1.19635,0.15654 1.79696,0.21753c0.6757,0.06865 1.36108,0.06833 2.03989,-0.0201c0.21375,-0.03075 0.39482,-0.09975 0.62977,-0.14583c-0.03895,0.27585 -0.05422,0.51905 -0.10708,0.75849c-0.27953,1.44045 -0.46766,2.90766 -0.71206,4.36915c-0.22253,1.30635 -0.42382,2.59736 -0.62756,3.90562c-0.14532,0.89452 -0.28824,1.77181 -0.43358,2.66631c-0.13803,0.84282 -0.23608,1.67217 -0.37409,2.51497c-0.00975,0.06896 -0.01949,0.13793 -0.04798,0.20496c-0.28952,0.16296 -0.58324,0.22051 -0.91202,0.25708c-0.52137,0.05195 -1.05662,0.06751 -1.5797,-0.00311c-0.16893,-0.01714 -0.34026,-0.01707 -0.47823,-0.11854c0.1738,-0.01733 0.35416,0.05344 0.5728,-0.01175c-0.09241,-0.28915 0.00525,-0.57649 0.02542,-0.85425c0.00244,-0.01725 0.00487,-0.03446 -0.01389,-0.03638c-0.08441,-0.48069 -0.01382,-0.98063 -0.03953,-1.47288c-0.01319,-0.17619 -0.08271,-0.35813 -0.02085,-0.52669c0.08624,-0.34096 -0.03647,-0.68567 0.04976,-1.02667c0.00244,-0.01725 -0.01147,-0.05362 -0.00658,-0.08811c-0.01008,-0.33322 -0.04129,-0.65118 -0.01384,-0.98061c0.05354,-0.37925 -0.04793,-0.73932 0.04315,-1.11474c-0.08097,-0.23553 -0.01176,-0.45583 0.00354,-0.69908c0.00487,-0.03447 0.00729,-0.05174 0.01218,-0.08618c-0.10147,-0.36004 0.02471,-0.71443 -0.00168,-1.06685c-0.0264,-0.35239 0.06224,-0.71061 0.05461,-1.06111c-0.00031,-0.40223 -0.05942,-0.79288 0.05534,-1.20093c0.00487,-0.03447 0.01219,-0.08621 -0.00172,-0.12259c-0.08588,-0.20107 -0.00032,-0.40221 0.01014,-0.61099c0.01461,-0.10346 0.0504,-0.22217 0.02746,-0.32944c-0.05314,-0.16278 -0.01492,-0.29877 0.00699,-0.45394c0.01218,-0.0862 0.04312,-0.17051 0.01529,-0.24324c-0.08097,-0.23553 -0.00937,-0.47307 0.02228,-0.69717c0.01218,-0.0862 0.04309,-0.17047 0.01531,-0.24325c-0.06704,-0.19915 -0.02154,-0.38688 0.00527,-0.57652c0.0438,-0.31033 -0.04375,-0.63394 0.01883,-0.94232c0.02606,-0.04982 -0.02291,-0.10724 -0.03441,-0.16086z" fill="#87d7dc"/><path d="M256.99012,192.1035c0.01145,0.05361 0.06049,0.11106 0.05317,0.16279c-0.06256,0.3084 0.00622,0.63013 -0.01881,0.94234c-0.02678,0.18963 -0.07232,0.37737 -0.00527,0.57651c0.0278,0.07278 -0.00313,0.15707 -0.01527,0.24323c-0.03161,0.22411 -0.08451,0.46354 -0.02232,0.69719c0.0278,0.07277 -0.0219,0.15517 -0.01528,0.24325c-0.0219,0.15514 -0.04138,0.29308 -0.00699,0.45394c0.02293,0.10723 -0.01289,0.22604 -0.02748,0.32947c-0.01043,0.20876 -0.09593,0.40993 -0.01011,0.61098c0.01389,0.03639 0.00659,0.0881 0.00173,0.12258c-0.11228,0.39078 -0.05566,0.79874 -0.05532,1.20094c0.00519,0.36777 -0.08346,0.72594 -0.05466,1.06111c0.02641,0.35238 -0.09978,0.7068 0.00169,1.06683c0.01631,0.01915 -0.00732,0.05173 -0.01218,0.08622c-0.03161,0.22411 -0.08447,0.46354 -0.00351,0.69911c-0.10987,0.37355 -0.00837,0.73358 -0.04318,1.11473c-0.04625,0.32754 0.0038,0.64737 0.01382,0.98062c-0.00487,0.03447 0.01151,0.05365 0.00661,0.08811c-0.08624,0.34096 0.03647,0.68566 -0.04976,1.02666c-0.04553,0.18772 0.02638,0.35241 0.02085,0.5267c0.00693,0.49032 -0.04488,0.99217 0.03953,1.47286c-0.00244,0.01725 0.01392,0.03639 0.01392,0.03639c-0.02016,0.27775 -0.11787,0.5651 -0.02542,0.85426c-0.19985,0.06713 -0.37781,-0.02091 -0.5728,0.01173c-0.15013,-0.01524 -0.30028,-0.03054 -0.41708,-0.14734c0.01461,-0.10346 0.0504,-0.22217 0.02746,-0.32942c-0.08027,-0.37534 -0.01035,-0.73549 0.00321,-1.10134c0.01357,-0.36581 -0.06671,-0.74117 0.04315,-1.11471c-0.08097,-0.23553 -0.01181,-0.45585 0.00351,-0.6991c0.00487,-0.03447 0.01217,-0.08619 -0.00173,-0.12259c-0.07194,-0.1647 -0.01005,-0.33324 -0.00691,-0.49034c0.01218,-0.0862 0.02431,-0.1724 0.0153,-0.24324c-0.04031,-0.3888 -0.05943,-0.79289 -0.00343,-1.18941c0.00733,-0.05172 0.03584,-0.11878 0.00313,-0.15705c-0.06949,-0.18189 -0.02642,-0.35239 -0.00208,-0.52479c0.04553,-0.18772 -0.06152,-0.37347 -0.01351,-0.57842c0.05772,-0.27392 0.00036,-0.54204 0.00178,-0.82167c0.016,-0.38309 -0.04548,-0.75651 0.01051,-1.15301c0.00975,-0.06896 0.04069,-0.15325 0.01043,-0.20878c-0.05557,-0.14555 -0.01495,-0.29876 -0.01179,-0.45581c0.01948,-0.13791 0.02017,-0.27771 -0.0003,-0.40224c-0.04342,-0.23174 -0.04934,-0.45965 -0.01529,-0.70101c0.03235,-0.36391 -0.04794,-0.7393 0.0619,-1.11281c0.00487,-0.03447 -0.00656,-0.0881 -0.00171,-0.1226c-0.00519,-0.36777 -0.02919,-0.73738 0.00321,-1.10129c0.05354,-0.37925 -0.04306,-0.77378 0.04804,-1.14922c0.00733,-0.05172 -0.02295,-0.10724 -0.03441,-0.16086c-0.0059,-0.22792 0.00941,-0.47117 0.09736,-0.68954c0.09628,-0.00769 0.17134,-0.00011 0.24886,-0.00968c0.25548,0.07842 0.47581,0.13577 0.71739,0.1778z" fill="#b0eef2"/><path d="M265.29504,184.11666c0.01006,0.33322 -0.00771,0.59375 -0.11929,0.84472c-0.16964,0.12266 -0.38337,0.15342 -0.59954,0.2014c-1.07365,0.1882 -2.14487,0.35915 -3.23418,0.3884c-0.82167,0.02144 -1.66212,0.041 -2.49036,-0.02565c-0.22521,-0.02289 -0.4668,-0.0649 -0.69933,-0.03609c-0.09628,0.00769 -0.2089,-0.00376 -0.32148,-0.01518c-0.44073,-0.11472 -0.89603,-0.126 -1.34407,-0.18899c-0.63572,-0.08205 -1.26171,-0.23307 -1.88278,-0.41858c-0.30932,-0.10136 -0.62111,-0.18551 -0.95164,-0.27152c-0.25787,-0.06119 -0.4685,-0.18748 -0.68157,-0.29656c-0.08756,-0.32366 -0.08929,-0.44621 0.00666,-0.85614c0.41045,0.05916 0.79002,0.20264 1.1956,0.29632c0.38684,0.09176 0.79243,0.18542 1.18172,0.25995c0.40803,0.07644 0.83731,0.13752 1.24776,0.19671c0.38926,0.07452 0.81191,0.04747 1.19394,0.17373c0.4251,-0.04425 0.83069,0.04943 1.24605,0.07413c0.39658,0.02281 0.81436,0.03026 1.21339,0.03583c0.41779,0.00747 0.83798,-0.00231 1.27699,-0.01014c0.40145,-0.01167 0.81922,-0.0042 1.22313,-0.03314c0.42264,-0.02702 0.83139,-0.09039 1.25649,-0.13464c0.44386,-0.04235 0.84772,-0.07126 1.28256,-0.18446z" fill="#d1eaeb"/><path d="M256.28905,191.94487c-0.0775,0.0096 -0.1526,0.00199 -0.24885,0.0097c-0.08794,0.2184 -0.11958,0.44247 -0.09736,0.68955c0.01145,0.05362 0.0417,0.10916 0.0344,0.16086c-0.09109,0.37542 -0.01324,0.76808 -0.04803,1.14922c-0.05111,0.36202 -0.00839,0.73356 -0.00324,1.1013c-0.00487,0.03447 0.00659,0.08811 0.00173,0.12258c-0.10988,0.37354 -0.00841,0.73355 -0.06194,1.11282c-0.03161,0.22411 -0.02816,0.46927 0.01529,0.701c0.01805,0.14168 0.01738,0.28153 0.00032,0.40222c-0.0219,0.15514 -0.06014,0.29115 0.0118,0.45584c0.03021,0.05551 -0.00072,0.13983 -0.01047,0.20878c-0.05354,0.37925 0.00556,0.76993 -0.01048,1.15301c-0.00143,0.27964 0.05595,0.54775 -0.00179,0.82166c-0.04553,0.18772 0.0615,0.37346 0.01351,0.57842c-0.04311,0.17048 -0.08865,0.3582 0.00204,0.5248c0.01145,0.05362 0.00417,0.10533 -0.00311,0.15704c-0.05599,0.39648 -0.03449,0.78336 0.00342,1.1894c0.00657,0.0881 -0.02431,0.17238 -0.01531,0.24321c-0.0219,0.15514 -0.06498,0.32564 0.00695,0.49031c0.01389,0.03639 0.0066,0.0881 0.00173,0.12257c-0.03161,0.22411 -0.08449,0.46355 -0.00352,0.6991c-0.10986,0.37354 -0.02959,0.74891 -0.04314,1.11471c-0.01357,0.36581 -0.08588,0.74315 -0.00321,1.10128c0.02293,0.10724 -0.0129,0.22602 -0.02746,0.32945c-0.17136,0.00007 -0.26935,-0.11478 -0.39832,-0.14536c0.00837,-0.73355 -0.00687,-1.43458 -0.00335,-2.13366c-0.00551,-0.76995 0.00529,-1.52076 0.01851,-2.28879c0.00595,-0.71634 -0.00689,-1.43458 -0.0197,-2.15281c-0.00724,-0.89254 -0.03571,-1.76973 -0.04541,-2.64502c-0.00136,-0.66463 -0.00267,-1.32924 -0.02284,-1.99575c-0.00657,-1.03235 0.0644,-2.07435 0.02029,-3.11049c0.0007,-0.1398 -0.03614,-0.28343 0.04208,-0.43286c0.16893,0.01714 0.33052,0.08603 0.4946,0.13767c0.08899,0.044 0.26275,0.02668 0.40077,0.12813z" fill="#87d7dc"/><path d="M256.49897,207.17917c0.39901,0.00556 0.76954,0.07817 1.17096,0.06647c0.4602,-0.02318 0.92281,-0.06365 1.40002,-0.20748c-0.14116,0.99987 -0.27988,1.98248 -0.41618,2.94786c-0.23322,0.16867 -0.48696,0.21281 -0.72436,0.27613c-0.45358,0.11131 -0.89013,0.10191 -1.34546,0.09063c-0.0188,-0.00191 -0.05385,-0.02295 -0.07022,-0.0421c0.18352,-0.08626 0.14668,-0.22988 0.12861,-0.37164c-0.04518,-0.35433 -0.07159,-0.70671 -0.00411,-1.04958c0.00975,-0.06896 0.01947,-0.13791 0.01042,-0.20876c-0.06638,-0.339 0.00108,-0.68184 -0.009,-1.01513c-0.01071,-0.19345 -0.02888,-0.33512 -0.14076,-0.48641z" fill="#61afb4"/><path d="M256.33124,189.62349c0.64229,0.17017 1.30162,0.21966 1.95123,0.33809c0.29786,0.04775 0.60305,0.04375 0.90823,0.0398c0.56794,0.02274 1.14488,0.11631 1.72256,0.07005c0.2301,-0.01158 0.46019,-0.02317 0.67395,-0.05391c0.13627,-0.02113 0.27004,-0.02504 0.40146,-0.01168c0.01149,0.0536 0.02536,0.09 0.02048,0.12451c-0.01949,0.1379 -0.03892,0.27581 -0.05838,0.41372c-0.10113,0.0422 -0.1811,0.06901 -0.27979,0.09398c-0.70485,0.13822 -1.42854,0.27456 -2.16056,0.20019c-0.64059,-0.04757 -1.29987,-0.09707 -1.93076,-0.2136c-0.50192,-0.08595 -1.00623,-0.15468 -1.46988,-0.37662c0.0987,-0.02497 0.20403,0.0382 0.29368,-0.05761c0.06431,-0.18581 0.15226,-0.4042 -0.07227,-0.5669z" fill="#61aeb3"/><path d="M256.6186,190.82425c0.32395,-0.00206 0.60962,0.13189 0.92626,0.18153c0.67327,0.08587 1.3465,0.17179 2.02704,0.20592c0.54915,0.02082 1.08931,-0.02925 1.61553,-0.11567c0.13627,-0.02113 0.27248,-0.04227 0.40873,-0.0634c-0.03407,0.24136 -0.06324,0.44824 -0.09491,0.67234c-0.25443,0.18398 -0.54816,0.24155 -0.85575,0.2628c-0.36635,0.03276 -0.75143,0.06354 -1.12924,0.04265c-0.85433,-0.01688 -1.67531,-0.13523 -2.51748,-0.23825c-0.15013,-0.01525 -0.30032,-0.03051 -0.41953,-0.13005c0.01218,-0.0862 0.04308,-0.17049 0.01529,-0.24324c-0.05073,-0.18001 -0.00277,-0.38501 0.02399,-0.57459z" fill="#61aeb3"/><path d="M256.49896,207.17917c0.09559,0.13214 0.13239,0.27574 0.12683,0.45005c0.01006,0.33324 -0.05741,0.67615 0.009,1.01511c0.00902,0.07088 -0.00068,0.13984 -0.01043,0.2088c-0.05109,0.36203 -0.02229,0.69717 0.00411,1.04957c0.02049,0.12451 0.05492,0.28536 -0.12862,0.37164c-0.28397,-0.01137 -0.54186,-0.07252 -0.77368,-0.1835c-0.02225,-0.24709 -0.06322,-0.49605 0.00837,-0.73357c0.00487,-0.03447 -0.00658,-0.0881 -0.00173,-0.12259c-0.00763,-0.35048 -0.01283,-0.71824 -0.00169,-1.06684c0.00313,-0.15705 0.02263,-0.29497 0.007,-0.45395c-0.0295,-0.19534 -0.0191,-0.40414 0.10153,-0.58423c0.09627,-0.00769 0.17134,-0.00008 0.24885,-0.00967c0.13137,0.01336 0.27912,0.04583 0.41046,0.05917z" fill="#87d7dc"/><path d="M258.00209,181.29496c0.19118,0.26423 0.24607,0.54953 0.2822,0.83304c0.00903,0.07087 -0.00558,0.17431 -0.03407,0.24136c-0.22073,0.48467 -0.36641,0.97699 -0.49329,1.47118c-0.00244,0.01725 -0.02606,0.0498 -0.04727,0.06516c-0.08239,0.04408 -0.17623,0.03458 -0.26276,-0.02667c0.00487,-0.03447 -0.00906,-0.07088 -0.00418,-0.10535c0.07722,-0.4118 0.09808,-0.82938 0.02268,-1.23922c-0.02709,-0.21259 -0.00032,-0.40224 0.12273,-0.59956c0.14426,-0.21265 0.23218,-0.43104 0.414,-0.63992z" fill="#cce5e6"/><path d="M256.50847,183.7836c-0.1199,0.04029 -0.19254,0.01542 -0.24155,-0.04202c0.07931,-0.83129 0.07928,-0.83128 -0.11879,-1.58581c0.07891,-0.28927 0.25166,-0.56896 0.38447,-0.83523c0.13627,-0.02113 0.14039,0.0842 0.17063,0.13973c0.10461,0.20296 0.21165,0.38872 0.27628,0.60514c0.03685,0.14366 0.03854,0.26623 -0.01844,0.40028c-0.17348,0.41956 -0.33058,0.85821 -0.45262,1.31793z" fill="#cce5e6"/><path d="M256.06974,207.11808c-0.07751,0.0096 -0.15262,0.00198 -0.24885,0.00968c-0.12062,0.18009 -0.13105,0.38885 -0.10152,0.58423c0.01565,0.15898 -0.00382,0.29687 -0.00699,0.45396c-0.01114,0.3486 -0.00595,0.71632 0.00168,1.06683c-0.00487,0.03447 0.0066,0.08812 0.00172,0.12259c-0.05527,0.25667 -0.01187,0.4884 -0.0084,0.73355c-0.14528,-0.04971 -0.27182,-0.09757 -0.40735,-0.21626c0.01185,-0.48841 -0.01143,-0.99791 0.02161,-1.50164c0.01185,-0.48841 -0.05138,-0.98444 0.02162,-1.50162c0.29785,0.04775 0.51335,0.13957 0.72642,0.24862z" fill="#60adb2"/><path d="M260.88458,185.95929c0.0775,-0.00961 0.13628,-0.02112 0.21376,-0.03074c0.03268,0.03829 0.04898,0.05744 0.06532,0.07656c0.03371,0.30068 0.12615,0.58987 0.23732,0.88092c0.03927,0.12639 0.04344,0.23176 -0.02991,0.34669c-0.12793,0.23181 -0.22071,0.48467 -0.49393,0.66676c-0.19356,-0.24699 -0.28603,-0.53616 -0.35968,-0.82342c-0.01149,-0.0536 0.01951,-0.13791 0.04797,-0.20494c0.10008,-0.30456 0.20024,-0.60921 0.31913,-0.91187z" fill="#cce5e6"/><path d="M261.76311,181.62453c0.05075,0.17999 0.09242,0.28918 0.13169,0.41558c0.0622,0.23366 0.05176,0.4424 -0.09491,0.67233c-0.22734,0.39655 -0.40077,0.81614 -0.46163,1.24709c-0.01949,0.13791 -0.04068,0.15322 -0.26348,0.11315c0.00731,-0.05172 -0.00419,-0.10534 0.00314,-0.15708c0.07962,-0.42906 0.08172,-0.8485 0.02752,-1.27369c-0.00414,-0.10535 -0.01075,-0.19344 0.03892,-0.27585c0.18665,-0.24335 0.3358,-0.49047 0.61875,-0.74149z" fill="#cae2e3"/><path d="M258.72073,184.02584c-0.01631,-0.01914 -0.03026,-0.05557 -0.0278,-0.07278c0.0935,-0.39265 0.07198,-0.77955 0.02927,-1.15113c-0.02641,-0.35238 0.01984,-0.67996 0.25379,-0.9884c0.11576,-0.14561 0.16126,-0.33333 0.31216,-0.45789c0.2492,0.39251 0.26584,0.81389 0.08092,1.17979c-0.21587,0.45021 -0.44806,0.88124 -0.49988,1.38311c-0.02606,0.04982 -0.03583,0.11876 -0.14842,0.10734z" fill="#c9e1e2"/><path d="M260.44691,181.50832c0.14874,0.2949 0.18975,0.54385 0.2283,0.81005c0.00657,0.0881 -0.00558,0.17429 -0.05285,0.23945c-0.23707,0.46555 -0.43902,0.9521 -0.60346,1.44248c-0.00487,0.03447 -0.03091,0.08427 -0.12234,0.05751c0.01704,-0.12066 0.03651,-0.25856 0.03479,-0.38116c0.02992,-0.34668 0.04104,-0.69527 -0.02534,-1.03425c-0.04104,-0.24898 0.00942,-0.47116 0.17001,-0.66468c0.11576,-0.14561 0.22904,-0.27402 0.37088,-0.46944z" fill="#c9e1e2"/><path d="M262.09134,185.90703c0.12482,-0.07474 0.21865,-0.06521 0.31247,-0.05569c0.01632,0.01913 0.03026,0.05555 0.04655,0.07467c-0.00141,0.27964 0.07471,0.54967 0.21199,0.79092c0.07436,0.14744 0.07366,0.28726 -0.00456,0.4367c-0.10183,0.18199 -0.18732,0.38316 -0.32429,0.54412c-0.18454,-0.17612 -0.38963,-0.47674 -0.40768,-0.61848c-0.02539,-0.08999 0.02188,-0.15515 0.05286,-0.23944c0.02262,-0.29496 0.14148,-0.59766 0.11268,-0.93278z" fill="#cae3e4"/><path d="M255.51186,186.39273c0.22661,-0.25674 0.39697,-0.51922 0.55096,-0.80085c0.11744,-0.02303 0.19258,-0.01542 0.27912,0.04582c0.05004,0.31981 -0.03865,0.67802 0.03017,0.99977c-0.12063,0.18008 -0.28536,0.26828 -0.4362,0.39286c-0.08478,0.06131 -0.15325,0.14178 -0.28708,0.14569c-0.11851,-0.23937 -0.06078,-0.51327 -0.13689,-0.7833z" fill="#c8e0e1"/><path d="M258.62925,185.88758c0.16647,0.03439 0.17551,0.10526 0.18455,0.17612c0.03859,0.26624 0.07956,0.51517 0.09938,0.77948c0.00903,0.07088 -0.00069,0.13982 -0.04796,0.20498c-0.15815,0.17626 -0.33509,0.35063 -0.52832,0.50589c-0.07921,-0.11297 -0.08341,-0.21832 -0.1251,-0.32748c-0.12508,-0.32745 -0.10251,-0.62242 0.18041,-0.87347c0.13211,-0.12649 0.19397,-0.29506 0.23705,-0.46554z" fill="#cbe4e5"/><path d="M257.44679,185.76746c0.09384,0.0095 0.15014,0.01523 0.20646,0.02094c0.01389,0.03639 0.04898,0.05746 0.04656,0.07467c0.01071,0.19345 0.00278,0.385 0.01353,0.57843c0.00414,0.10536 -0.02679,0.18964 -0.09527,0.27011c-0.20541,0.24143 -0.42721,0.4637 -0.70527,0.68027c-0.1095,-0.16849 -0.10633,-0.32554 -0.1032,-0.48259c0.00976,-0.06893 0.0195,-0.13792 0.06428,-0.1858c0.28294,-0.25105 0.44424,-0.58439 0.57287,-0.95601z" fill="#c8e0e1"/><path d="M256.6186,190.82423c-0.02678,0.18963 -0.07476,0.39461 -0.00767,0.59378c0.0278,0.07277 -0.00316,0.15703 -0.01531,0.24323c-0.32149,-0.01518 -0.61449,-0.09739 -0.87899,-0.24669c0.07162,-0.23753 0.03062,-0.48648 0.02228,-0.69716c0.14354,-0.07285 0.26763,-0.00778 0.38508,-0.03084c0.17136,-0.00007 0.35662,0.03624 0.4946,0.13766z" fill="#85d5d9"/><path d="M263.07027,182.61417c-0.13036,0.24906 -0.26067,0.49811 -0.37473,0.7663c-0.09039,0.23563 0.02083,0.5267 -0.29724,0.75667c0.08273,-0.5861 0.02439,-1.11665 -0.03397,-1.64715c0.12063,-0.18008 0.26242,-0.37552 0.47205,-0.51159c0.03268,0.03829 0.049,0.05745 0.06533,0.07656c0.0695,0.1819 0.12026,0.36195 0.16855,0.55916z" fill="#c6dede"/><path d="M257.79772,180.85451c-0.17277,0.27974 -0.32185,0.52684 -0.49463,0.80659c-0.13553,-0.11869 -0.17239,-0.26233 -0.25162,-0.37527c-0.07683,-0.13018 -0.19358,-0.24701 -0.22797,-0.40786c0.01704,-0.12066 0.10671,-0.21648 0.17759,-0.31419c0.07089,-0.09771 0.16061,-0.1935 0.26905,-0.28743c0.24816,0.13013 0.36908,0.35226 0.52758,0.57821z" fill="#cae3e3"/><path d="M255.3024,183.69605c-0.05838,-0.53052 -0.12892,-0.97485 -0.3145,-1.41333c0.10675,-0.2165 0.19468,-0.43486 0.30382,-0.66858c0.22453,0.16269 0.28918,0.3791 0.39375,0.58205c0.01389,0.03639 0.00658,0.08812 0.00171,0.12258c-0.11715,0.42524 -0.23429,0.85052 -0.3848,1.37727z" fill="#cae3e4"/><path d="M259.57559,187.67985c-0.14874,-0.29489 -0.26241,-0.56872 -0.04479,-0.89633c0.14669,-0.22992 0.20198,-0.4866 0.25724,-0.74326c0.01461,-0.10345 0.11086,-0.11115 0.21863,-0.06524c-0.07645,0.272 -0.01914,0.54015 0.0382,0.80826c0.04831,0.19724 -0.01112,0.34858 -0.12688,0.49421c-0.09455,0.13027 -0.15402,0.28162 -0.34242,0.40238z" fill="#c8e0e1"/><path d="M256.33124,189.62347c0.22209,0.17994 0.13655,0.38106 0.08858,0.58603c-0.08966,0.09579 -0.1974,0.0499 -0.29365,0.05761c-0.24154,-0.04203 -0.45704,-0.13388 -0.6677,-0.2602c0.04553,-0.18772 -0.00275,-0.38497 0.11541,-0.54782c0.09628,-0.00769 0.15261,-0.00198 0.22766,0.00564c0.18284,0.05354 0.36564,0.10705 0.5297,0.15872z" fill="#85d4d9"/><path d="M257.77106,187.11183c0.0761,0.27002 0.11955,0.50175 0.18176,0.7354c-0.1957,0.17246 -0.4077,0.3258 -0.63366,0.44271c-0.12653,-0.04782 -0.14944,-0.15507 -0.19601,-0.22973c-0.04657,-0.07467 -0.09313,-0.14934 -0.05731,-0.26811c0.17939,-0.1916 0.41987,-0.41197 0.70526,-0.68027z" fill="#c7dfe0"/><path d="M260.59844,188.25591c-0.15575,0.15905 -0.29268,0.31997 -0.50227,0.45608c-0.20334,-0.17802 -0.26795,-0.39441 -0.36769,-0.63187c0.16059,-0.19351 0.32116,-0.38705 0.48421,-0.59783c0.1536,0.26041 0.25336,0.49792 0.38575,0.77362z" fill="#c8e0e1"/><path d="M258.77654,180.39435c0.13068,0.15319 0.26133,0.30634 0.32842,0.5055c-0.14669,0.22992 -0.31215,0.4579 -0.48003,0.70312c-0.03751,-0.00382 -0.07505,-0.00764 -0.07262,-0.02488c-0.09071,-0.16659 -0.17896,-0.3504 -0.25091,-0.51509c-0.0278,-0.07278 -0.03687,-0.14365 0.00797,-0.19153c0.14183,-0.19542 0.22734,-0.39657 0.46718,-0.47716z" fill="#c4dcdd"/><path d="M261.57272,181.22051c-0.18179,0.20885 -0.34482,0.4196 -0.52663,0.62847c-0.14282,-0.06698 -0.12335,-0.20488 -0.16506,-0.31404c-0.0417,-0.10914 -0.06222,-0.23365 -0.10148,-0.36002c0.12305,-0.19732 0.33024,-0.31612 0.50474,-0.47331c0.18939,0.14162 0.24014,0.32167 0.28842,0.51892z" fill="#c8e0e1"/><path d="M261.13603,188.2231c0.16548,-0.22799 0.30974,-0.44069 0.47763,-0.6859c0.16823,0.15696 0.23527,0.35616 0.38474,0.51123c-0.10918,0.2337 -0.31876,0.36981 -0.49812,0.56139c-0.17308,-0.1225 -0.31106,-0.22394 -0.3642,-0.38672z" fill="#c6ddde"/><path d="M263.29393,185.74943c0.14632,0.31214 0.19394,0.64919 0.40141,0.93257c-0.0855,0.20116 -0.14984,0.38699 -0.30799,0.56325c-0.20817,-0.14355 -0.31768,-0.31206 -0.24363,-0.56681c0.10011,-0.30456 0.10638,-0.61869 0.15019,-0.92901z" fill="#b9cfd0"/><path d="M254.28544,183.34792c-0.10529,-0.06316 -0.03688,-0.14365 -0.04588,-0.21448c-0.01563,-0.15897 -0.01251,-0.31599 -0.11053,-0.43091c-0.12337,-0.20489 -0.07787,-0.39259 -0.01109,-0.59566c0.03096,-0.0843 0.08063,-0.16668 0.13522,-0.28353c0.21725,0.2144 0.38057,0.40589 0.25927,0.72578c-0.08793,0.2184 -0.10327,0.46165 -0.15367,0.68384c-0.00733,0.05171 -0.01461,0.10344 -0.07334,0.11495z" fill="#c0d8d8"/><path d="M254.59015,186.71875c-0.07194,-0.1647 -0.09,-0.3064 -0.07055,-0.4443c0.00976,-0.06893 0.02187,-0.15517 0.06672,-0.20305c0.20058,-0.20694 0.34724,-0.43685 0.49395,-0.66676c0.13137,0.01337 0.10286,0.08039 0.09558,0.13214c-0.02434,0.1724 -0.05109,0.36203 -0.0379,0.53823c0.00589,0.22792 -0.07231,0.37735 -0.27705,0.47898c-0.10114,0.04219 -0.16475,0.08818 -0.27074,0.16482z" fill="#c1d9d9"/><path d="M259.24289,188.01328c-0.13936,0.17816 -0.30904,0.30083 -0.4835,0.45797c-0.19185,-0.1244 -0.22134,-0.31974 -0.31209,-0.48635c0.16302,-0.21077 0.39136,-0.34495 0.60584,-0.5155c0.10704,0.18575 0.13901,0.36387 0.18977,0.54388z" fill="#c3dbdc"/><path d="M259.81704,181.65418c-0.07857,-0.2528 -0.14074,-0.48646 -0.22171,-0.722c0.09696,-0.14756 0.19153,-0.2778 0.37504,-0.36409c0.14945,0.15509 0.21894,0.33699 0.30726,0.52083c-0.10675,0.21649 -0.24607,0.39465 -0.46054,0.56522z" fill="#c3dadb"/><path d="M257.46054,188.63657c0.20961,-0.13609 0.39798,-0.25682 0.58635,-0.37757c0.17065,0.13973 0.24015,0.32165 0.30965,0.50357c-0.15328,0.14181 -0.32045,0.24723 -0.52273,0.33156c-0.05143,-0.04021 -0.1192,-0.09956 -0.15187,-0.13782c-0.07923,-0.11296 -0.12337,-0.20486 -0.22138,-0.31978z" fill="#c4dbdc"/><path d="M254.21761,185.17709c-0.04626,0.32757 -0.08278,0.58617 -0.12166,0.86196c-0.11089,0.11116 -0.23569,0.18589 -0.41187,0.22042c-0.10041,-0.09764 -0.04586,-0.2145 -0.06878,-0.32175c-0.02294,-0.10723 -0.02709,-0.21259 -0.01495,-0.29879c0.21205,-0.15336 0.38166,-0.27601 0.61732,-0.46188z" fill="#c2d9da"/><path d="M257.56043,179.97355c0.09455,-0.13027 0.20296,-0.22421 0.32533,-0.28171c0.15258,-0.00198 0.21306,0.10913 0.29959,0.17033c0.08652,0.0612 0.19671,0.08991 0.23597,0.21631c-0.06187,0.16858 -0.21516,0.31037 -0.37331,0.4867c-0.08171,-0.09575 -0.16338,-0.19147 -0.24747,-0.26996c-0.07921,-0.11297 -0.15849,-0.22592 -0.24017,-0.32166z" fill="#c5ddde"/><path d="M259.75451,188.97454c-0.1182,0.16288 -0.27565,0.19934 -0.40284,0.29133c-0.19427,-0.10719 -0.30377,-0.27568 -0.42961,-0.4633c0.15083,-0.12457 0.30172,-0.24913 0.43383,-0.37562c0.20816,0.14356 0.27284,0.35997 0.39863,0.54759z" fill="#c3dbdc"/><path d="M255.8899,181.69239c-0.06781,-0.05934 -0.10046,-0.09759 -0.13313,-0.13587c-0.0629,-0.09381 -0.12338,-0.20489 -0.20262,-0.31786c0.16548,-0.22799 0.2746,-0.46172 0.50784,-0.63038c0.12653,0.04782 0.17067,0.13973 0.2287,0.26804c-0.11158,0.25096 -0.24682,0.53447 -0.40077,0.81612z" fill="#c7dfe0"/><path d="M256.54021,187.73873c-0.20715,0.11884 -0.3441,0.27977 -0.56272,0.345c-0.15431,-0.12062 -0.14632,-0.31211 -0.2631,-0.42889c0.20059,-0.20694 0.40771,-0.32581 0.61975,-0.47913c0.1658,0.17424 0.13901,0.36383 0.20611,0.56301z" fill="#c7dee0"/><path d="M256.12653,190.66932c-0.11746,0.02304 -0.24154,-0.04205 -0.38509,0.03084c0.00589,0.22792 0.02811,0.47497 -0.02229,0.69717c-0.07266,-0.02487 -0.16405,-0.05165 -0.23426,-0.09372c-0.10529,-0.06316 -0.16819,-0.15698 -0.15118,-0.27768c0.01043,-0.20875 0.01841,-0.40028 0.02889,-0.60909c0.244,0.02478 0.35418,0.05347 0.76396,0.25248z" fill="#61acb1"/><path d="M262.76584,181.53406c-0.15575,0.15905 -0.28779,0.28548 -0.4623,0.44264c-0.08097,-0.23554 -0.16438,-0.45382 -0.22659,-0.68748c0.11328,-0.12838 0.22421,-0.23951 0.37018,-0.32961c0.16579,0.17423 0.23528,0.35613 0.31869,0.57443z" fill="#c2dada"/><path d="M254.63042,187.10755c0.15575,-0.15905 0.32048,-0.24722 0.5089,-0.36796c0.04103,0.24898 0.08687,0.46348 0.13273,0.67799c-0.09696,0.14755 -0.23567,0.1859 -0.39798,0.25682c-0.15188,-0.13781 -0.18144,-0.33321 -0.24363,-0.56681z" fill="#c1d9d9"/><path d="M260.62416,180.7919c-0.14457,-0.18957 -0.23771,-0.3389 -0.34962,-0.49019c0.08065,-0.16667 0.24784,-0.27209 0.41504,-0.3775c0.15672,0.10336 0.29227,0.22204 0.38056,0.40588c-0.08551,0.20115 -0.2854,0.26828 -0.44596,0.46182z" fill="#c6dedf"/><path d="M261.17499,188.89152c-0.15327,0.1418 -0.32292,0.26446 -0.47375,0.38903c-0.16647,-0.03439 -0.26935,-0.11478 -0.36496,-0.24692c0.10675,-0.21649 0.33024,-0.31613 0.48838,-0.49246c0.15921,0.0861 0.23597,0.21632 0.35034,0.35033z" fill="#c0d7d7"/><path d="M255.07042,181.29435c-0.10184,0.18199 -0.14984,0.38696 -0.34307,0.54222c-0.09559,-0.13214 -0.19358,-0.24703 -0.29159,-0.36187c0.02923,-0.20684 0.1474,-0.3697 0.31701,-0.49235c0.14283,0.06698 0.22449,0.16269 0.31766,0.31201z" fill="#c3dadb"/><path d="M255.82029,189.46665c-0.07508,-0.00763 -0.1526,0.002 -0.2277,-0.00561c-0.1182,0.16289 -0.06991,0.36009 -0.11541,0.54782c-0.13381,0.00389 -0.19429,-0.10719 -0.32323,-0.13775c-0.04343,-0.23173 0.04205,-0.43289 -0.05768,-0.67033c0.19011,0.00185 0.29541,0.06497 0.41954,0.13005c0.089,0.04399 0.22524,0.02291 0.30445,0.13585z" fill="#5aa0a4"/><path d="M264.26543,187.22948c-0.10184,0.18198 -0.14984,0.387 -0.32188,0.52688c-0.12653,-0.04782 -0.19187,-0.12443 -0.28989,-0.23927c0.06432,-0.18583 0.16615,-0.36782 0.30066,-0.51155c0.12653,0.04783 0.19429,0.10718 0.31105,0.22395z" fill="#bdd3d4"/><path d="M258.16122,189.33723c0.146,-0.09009 0.27322,-0.18206 0.4004,-0.27406c0.15674,0.10337 0.25234,0.23548 0.34547,0.38481c-0.07578,0.13217 -0.21205,0.15336 -0.34341,0.14c-0.16892,-0.01713 -0.33781,-0.03429 -0.40248,-0.25072z" fill="#bdd4d5"/><path d="M263.94997,182.72101c-0.12306,0.19731 -0.24368,0.37744 -0.3667,0.57475c-0.13658,-0.38106 -0.18415,-0.71814 0.23259,-0.97307c0.10041,0.09764 0.09972,0.23746 0.13412,0.39831z" fill="#bbd2d3"/><path d="M256.47172,188.76344c-0.14039,-0.08422 -0.20089,-0.19529 -0.26133,-0.30636c0.01704,-0.12066 0.11577,-0.14562 0.20059,-0.20693c0.0636,-0.04598 0.12963,-0.10922 0.2447,-0.115c0.14039,0.08422 0.11609,0.25657 0.25407,0.35803c-0.13451,0.14373 -0.27804,0.21657 -0.43792,0.27029z" fill="#c3dadb"/><path d="M259.1621,184.00072c0.08139,-0.30648 0.16269,-0.61296 0.31913,-0.91183c0.11016,0.02869 0.11681,0.1168 0.10459,0.20298c-0.01289,0.22601 -0.04449,0.45008 -0.07371,0.65696c-0.0219,0.15514 -0.1394,0.17822 -0.35,0.05188z" fill="#b1c6c7"/><path d="M262.23993,189.03466c0.05698,-0.13409 0.17692,-0.17438 0.26416,-0.25294c0.15574,-0.15906 0.32708,-0.15913 0.54017,-0.05004c-0.14669,0.22991 -0.39384,0.36217 -0.60097,0.48101c-0.12896,-0.03059 -0.18041,-0.07078 -0.20334,-0.17802z" fill="#bbd2d3"/><path d="M261.70146,184.08382c-0.02884,-0.33518 0.14392,-0.61486 0.30033,-0.91375c0.07856,0.2528 0.042,0.51137 0.02673,0.75461c-0.00313,0.15706 -0.06431,0.18585 -0.32706,0.15912z" fill="#bad1d2"/><path d="M264.25224,186.10908c0.1119,0.15127 0.22868,0.26806 0.34058,0.41928c-0.03094,0.0843 -0.10429,0.19925 -0.15886,0.3161c-0.32568,-0.12052 -0.32324,-0.13775 -0.27284,-0.35997c0.01706,-0.12066 0.05286,-0.23945 0.09109,-0.37543z" fill="#b5cbcc"/><path d="M259.96705,179.37871c0.18037,0.0708 0.28086,0.16841 0.38127,0.26605c-0.07821,0.14945 -0.23811,0.20312 -0.38408,0.29323c-0.11924,-0.09951 -0.21961,-0.19717 -0.33884,-0.29671c0.04067,-0.15323 0.21443,-0.17058 0.34169,-0.26257z" fill="#c0d7d8"/><path d="M262.91499,187.35465c0.10772,0.04594 0.17067,0.13972 0.23116,0.2508c-0.08796,0.21838 -0.24609,0.39468 -0.43693,0.53266c-0.13381,0.00389 -0.16405,-0.05164 -0.18939,-0.14162c0.12544,-0.21457 0.25096,-0.42916 0.39522,-0.64181z" fill="#bdd4d4"/><path d="M263.0325,181.26389c-0.09071,-0.16659 -0.16022,-0.34849 -0.25092,-0.5151c0.08726,-0.07856 0.18597,-0.10352 0.29857,-0.0921c0.10772,0.04593 0.13311,0.1359 0.17724,0.22781c0.0278,0.07278 0.0556,0.14553 0.08341,0.21831c-0.07091,0.09774 -0.15573,0.15906 -0.30833,0.16104z" fill="#b6cccc"/><path d="M259.38374,180.5435c-0.11189,-0.15127 -0.20748,-0.28336 -0.33817,-0.43656c0.03336,-0.10152 0.10427,-0.19927 0.28051,-0.23382c0.11925,0.09951 0.23599,0.2163 0.37153,0.33498c-0.09455,0.13027 -0.16788,0.24525 -0.31389,0.33534z" fill="#c1d9d9"/><path d="M263.70769,181.87454c-0.09455,0.13027 -0.18422,0.22612 -0.32777,0.29893c-0.1119,-0.15127 -0.12508,-0.32749 -0.16193,-0.4711c0.05698,-0.13409 0.17448,-0.15713 0.27562,-0.19932c0.05386,0.02296 0.09141,0.02678 0.089,0.04399c0.04167,0.10915 0.08339,0.21829 0.12508,0.32749z" fill="#b7cdce"/><path d="M264.49324,183.45817c-0.12336,-0.2049 -0.10148,-0.36003 -0.11712,-0.519c-0.03198,-0.17811 0.09038,-0.23563 0.23391,-0.30848c0.1119,0.15127 0.12753,0.31022 0.18314,0.45577c-0.06188,0.16857 -0.25687,0.20124 -0.29997,0.37172z" fill="#b6cccc"/><path d="M263.72583,188.08399c-0.1133,0.12838 -0.20297,0.22418 -0.29509,0.33723c-0.17136,0.00007 -0.28397,-0.01137 -0.40317,-0.1109c0.13452,-0.14372 0.25027,-0.28934 0.36356,-0.41771c0.1762,-0.03458 0.23666,0.07651 0.34686,0.10516c-0.00487,0.03447 0.00904,0.07089 -0.01214,0.08621z" fill="#c2dada"/><path d="M258.94725,179.58985c-0.07335,0.11492 -0.13694,0.16095 -0.23566,0.18592c-0.11507,0.00579 -0.18037,-0.07079 -0.26693,-0.13202c-0.0678,-0.05934 -0.19672,-0.08992 -0.19845,-0.21251c0.10845,-0.09388 0.23321,-0.16864 0.40703,-0.18597c0.11679,0.11678 0.19602,0.22975 0.29404,0.34464z" fill="#bbd2d3"/><path d="M254.99425,188.03629c0.14354,-0.07284 0.24714,-0.13228 0.36947,-0.1898c0.11437,0.13403 0.16993,0.27957 0.24433,0.42703c-0.08966,0.0958 -0.19326,0.15526 -0.32463,0.14185c-0.03512,-0.02104 -0.07019,-0.04212 -0.08413,-0.0785c-0.06533,-0.07656 -0.12825,-0.17044 -0.20506,-0.30062z" fill="#bbd2d3"/><path d="M264.76137,186.14329c-0.19846,-0.21252 -0.19847,-0.21252 -0.2509,-0.51509c0.11332,-0.12838 0.26591,-0.13035 0.44211,-0.16489c0.02224,0.24709 -0.10324,0.46164 -0.1912,0.68002z" fill="#adc2c3"/><path d="M256.75674,189.03721c0.08966,-0.0958 0.21206,-0.15333 0.34584,-0.1572c0.11437,0.13403 0.21238,0.24884 0.3079,0.38098c-0.34341,0.13999 -0.36216,0.1381 -0.65379,-0.22375z" fill="#b5cbcc"/><path d="M262.24944,180.60731c-0.11088,0.11117 -0.19815,0.1897 -0.3417,0.26254c-0.13795,-0.10142 -0.17236,-0.26233 -0.26552,-0.41169c0.04485,-0.0479 0.08723,-0.07854 0.12963,-0.10924c0.04241,-0.03068 0.10113,-0.0422 0.16233,-0.07096c0.16162,0.06888 0.24083,0.18182 0.31524,0.3293z" fill="#bbd1d2"/><path d="M253.98252,187.11168c-0.17065,-0.13974 -0.16022,-0.3485 -0.23461,-0.49594c0.09212,-0.11302 0.22595,-0.11696 0.34832,-0.17447c0.10462,0.20295 0.1178,0.37918 0.03471,0.56308c-0.00732,0.05171 -0.08724,0.07857 -0.1484,0.10733z" fill="#b6cccd"/><path d="M255.7982,180.31912c-0.16302,0.21077 -0.3424,0.40237 -0.50297,0.59588c-0.12896,-0.0306 -0.19671,-0.0899 -0.25476,-0.2182c0.21443,-0.17058 0.42891,-0.34112 0.69237,-0.45426c0.03268,0.03831 0.049,0.05745 0.06534,0.07656z" fill="#acc1c2"/><path d="M260.72896,183.2856c0.02467,0.22983 0.03056,0.45776 -0.03863,0.67802c-0.03096,0.0843 -0.09697,0.14753 -0.1908,0.138c-0.0375,-0.00382 -0.10773,-0.04594 -0.10531,-0.06317c0.01774,-0.26048 0.18561,-0.50572 0.33473,-0.75287z" fill="#a7bbbb"/><path d="M261.71521,179.94099c-0.05215,0.09963 -0.15328,0.14181 -0.27319,0.18207c-0.11679,-0.11678 -0.23355,-0.23357 -0.35034,-0.35034c0.09455,-0.13027 0.20959,-0.13607 0.34096,-0.12273c0.10529,0.06316 0.20333,0.17801 0.28256,0.29102z" fill="#b7cdcd"/><path d="M259.57061,189.60282c0.1182,-0.16289 0.26174,-0.23568 0.42405,-0.30666c0.14283,0.06698 0.24572,0.14737 0.29889,0.31014c-0.23982,0.08055 -0.46263,0.04042 -0.72295,-0.00348z" fill="#b7cece"/><path d="M253.15054,185.45339c-0.10218,-0.22021 0.00455,-0.43668 -0.06499,-0.6186c0.08966,-0.09579 0.16232,-0.07093 0.19257,-0.0154c0.07438,0.14744 0.12755,0.31024 0.10319,0.4826c-0.02607,0.04982 -0.02852,0.06704 -0.2308,0.15143z" fill="#b4cacb"/><path d="M256.53187,180.51608c-0.10529,-0.06314 -0.15431,-0.12059 -0.1797,-0.21058c0.15574,-0.15906 0.31389,-0.33533 0.59612,-0.44655c-0.02262,0.29496 -0.21588,0.45018 -0.41642,0.65714z" fill="#b2c8c9"/><path d="M255.78945,188.60671c0.11924,0.09951 0.20333,0.17802 0.22625,0.28527c-0.0285,0.06705 -0.08725,0.0786 -0.146,0.0901c-0.23494,0.04607 -0.31176,-0.08416 -0.38125,-0.26605c0.0987,-0.02497 0.19986,-0.06715 0.301,-0.10933z" fill="#b5cbcb"/><path d="M262.98333,184.0392c0.01288,-0.22601 0.03963,-0.41561 0.12515,-0.61675c0.09627,-0.00768 0.12651,0.04782 0.11922,0.09952c0.00172,0.1226 0.02223,0.2471 0.02396,0.36966c-0.01949,0.13791 -0.09942,0.16473 -0.26832,0.14756z" fill="#91a3a3"/><path d="M255.89989,182.9699c0.10218,0.22021 0.05177,0.44241 0.02255,0.64928c-0.00487,0.03447 -0.04728,0.06516 -0.08725,0.07856c-0.03751,-0.00382 -0.08899,-0.04399 -0.08656,-0.06125c-0.02224,-0.24709 0.04694,-0.46736 0.15123,-0.6666z" fill="#99abac"/><path d="M254.91629,183.4645c-0.14112,0.05562 -0.23495,0.04606 -0.26033,-0.04395c-0.02049,-0.12451 0.04139,-0.29305 0.14809,-0.50953c0.10708,0.18575 0.08028,0.37534 0.11223,0.55345z" fill="#93a5a6"/><path d="M261.42037,189.5809c0.17694,-0.17436 0.33751,-0.3679 0.65589,-0.19568c-0.17939,0.19159 -0.42335,0.16681 -0.65589,0.19568z" fill="#9aadad"/><path d="M261.60051,186.41671c-0.03685,-0.14365 -0.07124,-0.30449 -0.1105,-0.43091c0.06849,-0.08047 0.12721,-0.092 0.2374,-0.0633c0.07196,0.16471 -0.02745,0.32947 -0.03059,0.48652c-0.03751,-0.00382 -0.0563,-0.00574 -0.0963,0.00771z" fill="#c5dddd"/><path d="M258.2738,183.28097c0.13728,0.24126 0.10561,0.4654 -0.00107,0.68186c-0.00244,0.01725 -0.04242,0.03069 -0.07995,0.02687c-0.05875,0.01151 -0.08899,-0.04399 -0.0841,-0.07848c0.00797,-0.19152 0.09352,-0.3927 0.16513,-0.63024z" fill="#aec2c3"/><path d="M254.27238,187.35094c0.1119,0.15127 0.14388,0.32935 0.17826,0.49026c-0.06847,0.08048 -0.14114,0.05561 -0.16894,-0.01715c-0.05805,-0.12832 -0.11849,-0.23937 -0.15531,-0.383c-0.03268,-0.03831 0.03092,-0.08427 0.14598,-0.09008z" fill="#9caeaf"/><path d="M260.77163,179.47794c-0.16163,-0.06889 -0.26447,-0.14926 -0.38126,-0.26606c0.25373,-0.04418 0.45288,0.02851 0.6781,0.0514c-0.02608,0.04983 -0.03096,0.0843 -0.05215,0.09959c-0.08239,0.04408 -0.1623,0.07094 -0.24466,0.11504z" fill="#a9bebf"/><path d="M256.77111,185.69878c0.13627,-0.02113 0.20886,0.00373 0.27668,0.06311c-0.00559,0.17429 -0.0838,0.3237 -0.29583,0.47706c-0.00833,-0.2107 0.01359,-0.36583 0.01913,-0.54014z" fill="#b9cfd0"/><path d="M262.72527,185.86649c0.06848,-0.08046 0.146,-0.09006 0.2235,-0.09969c0.08898,0.04402 0.07682,0.13018 -0.03792,0.53822c-0.21063,-0.12631 -0.12755,-0.31023 -0.18558,-0.43854z" fill="#869797"/><path d="M257.14279,183.20106c-0.09525,0.2701 0.03959,0.52863 -0.25237,0.70878c-0.03859,-0.26623 0.00938,-0.47116 0.25237,-0.70878z" fill="#93a4a5"/><path d="M264.07858,183.2936c-0.03651,0.25856 -0.06086,0.43097 -0.08519,0.60336c-0.00487,0.03447 -0.04728,0.06516 -0.10357,0.0594c-0.0188,-0.00191 -0.05387,-0.02297 -0.07022,-0.04211c-0.00836,-0.21067 0.01843,-0.40035 0.25896,-0.62068z" fill="#94a5a6"/><path d="M263.66277,185.69946c0.12236,-0.05749 0.18107,-0.06905 0.26519,0.00944c-0.0007,0.1398 -0.00383,0.29688 -0.08449,0.46356c-0.17063,-0.13977 -0.14629,-0.31211 -0.18071,-0.47297z" fill="#abbfc0"/><path d="M264.48005,182.33768c-0.0987,0.02496 -0.13868,0.03837 -0.17625,0.03456c-0.17239,-0.26232 -0.17236,-0.26229 -0.08198,-0.49791c0.17308,0.1225 0.14877,0.29486 0.2582,0.46336z" fill="#acc0c1"/><path d="M261.78123,188.77819c0.13211,-0.12649 0.24783,-0.27209 0.39868,-0.39666c0.0636,-0.04598 0.13869,-0.03834 0.18037,0.07079c-0.15575,0.15905 -0.309,0.30084 -0.57906,0.32585z" fill="#9fb2b2"/><path d="M262.56262,180.41176c-0.08413,-0.07852 -0.1331,-0.13595 -0.15848,-0.22592c0.04727,-0.06517 0.10844,-0.09392 0.20473,-0.10162c0.11017,0.0287 0.17306,0.12251 0.23597,0.21633c-0.05215,0.09963 -0.16718,0.10541 -0.2822,0.11119z" fill="#aec2c3"/><path d="M259.31012,186.32393c-0.13795,-0.10141 -0.12094,-0.22214 -0.12268,-0.34471c0.00733,-0.05171 0.06846,-0.08045 0.12478,-0.07473c0.03751,0.00382 0.08901,0.044 0.08411,0.07848c0.0417,0.10914 -0.01044,0.2088 -0.08623,0.34096z" fill="#91a2a3"/><path d="M259.52457,179.1414c-0.24785,0.27209 -0.26901,0.28746 -0.47895,0.02131c0.15502,-0.01921 0.29857,-0.09208 0.47895,-0.02131z" fill="#869696"/><path d="M253.86767,183.34045c-0.14944,-0.15509 -0.07855,-0.25277 -0.04274,-0.37157c0.15673,0.10337 0.15673,0.10337 0.04274,0.37157z" fill="#555f5f"/><path d="M260.52066,185.97479c-0.01217,0.0862 -0.02921,0.20684 -0.10255,0.32182c-0.14701,-0.17232 -0.13727,-0.24126 -0.0452,-0.3543c0.02364,-0.03258 0.07996,-0.02687 0.14771,0.03251z" fill="#93a5a6"/><path d="M264.84735,183.51162c0.15849,0.22593 0.13488,0.25851 -0.17278,0.2797c-0.02049,-0.12452 0.06671,-0.20306 0.17278,-0.2797z" fill="#8b9b9c"/><path d="M253.55875,182.69708c0.03196,0.17811 -0.00628,0.31408 -0.04454,0.45013c-0.1199,0.04029 -0.17135,0.00006 -0.1616,-0.0689c0.01947,-0.1379 0.05772,-0.27391 0.2061,-0.38123z" fill="#9aacad"/><path d="M263.93825,181.32089c0.10041,0.09764 0.20575,0.16081 0.16752,0.29681c-0.00245,0.01725 -0.02363,0.03258 -0.0424,0.03069c-0.16406,-0.05165 -0.187,-0.15891 -0.1251,-0.32748z" fill="#5f6a6b"/><path d="M258.07206,186.0583c-0.04657,-0.07467 -0.03685,-0.14366 -0.00831,-0.2107c0.02364,-0.03258 0.06604,-0.06323 0.10114,-0.04217c0.03512,0.02104 0.0678,0.05934 0.06289,0.09383c-0.00976,0.06893 -0.03825,0.13599 -0.15573,0.15903z" fill="#636e6f"/><path d="M261.97461,179.72256c0.13869,-0.03835 0.23009,-0.01161 0.2857,0.13393c-0.15988,0.05369 -0.22767,-0.00561 -0.2857,-0.13393z" fill="#4a5354"/></g><g fill="#000000" stroke="#000000" stroke-width="1.2"><path d="M246.2992,204.08633c-0.21072,-1.85412 1.85563,-4.48732 2.46131,-6.70094c0.65212,-2.38327 -0.14043,-4.17512 1.07192,-5.28225c0.84682,-0.77331 2.42035,-0.55737 3.21983,-0.33861c1.9441,0.53193 2.62221,4.24468 1.51461,8.29264c-1.10759,4.04796 -3.58147,6.89828 -5.52555,6.36634c-0.88096,-0.24104 -2.56751,-0.80073 -2.74214,-2.33716z"/><path d="M249.13301,207.10141c-0.2703,-2.58791 2.24453,-8.03704 2.24453,-8.03704c0,0 -0.08026,-3.92738 -0.05595,-4.01048c1.54844,-5.29587 4.93119,-4.43359 8.75929,-3.38615c1.82192,0.4985 4.42138,2.0038 4.96136,3.94211c0.6124,2.19827 -0.66456,4.68707 -1.47777,7.65909c-1.53024,5.59257 -5.13687,9.71521 -9.02504,8.65134c-1.71156,-0.46831 -5.04537,-1.36243 -5.4064,-4.81888z"/></g></g><path d="M217.90998,180.98666c0,0 0.91144,-3.69063 3.15423,-4.7103c2.68862,-1.22237 14.50768,-2.05461 14.50768,-2.05461" fill="none" fill-rule="nonzero" stroke="#000000" stroke-width="3" stroke-linecap="round" stroke-linejoin="miter"/><g fill="#ff0000" fill-rule="nonzero" stroke="none" stroke-linecap="butt" stroke-linejoin="miter"><path d="M239.26096,220.99244c0.36529,1.10834 -0.30897,2.32666 -1.50599,2.72116c-1.19701,0.39451 -2.46351,-0.18418 -2.8288,-1.29253c-0.36529,-1.10835 0.30897,-2.32665 1.50599,-2.72116c1.19701,-0.39451 2.46351,0.18418 2.8288,1.29252z" stroke-width="NaN"/><path d="M243.57944,224.3748c0.33606,1.01968 -0.25405,2.13057 -1.31807,2.48124c-1.06402,0.35067 -2.199,-0.19166 -2.53507,-1.21134c-0.33606,-1.01968 0.25406,-2.13057 1.31808,-2.48125c1.06402,-0.35067 2.19899,0.19167 2.53505,1.21134z" stroke-width="0"/><path d="M241.23793,229.15118c0.35067,1.06402 -0.2276,2.21084 -1.29162,2.56151c-1.06402,0.35067 -2.21084,-0.2276 -2.56151,-1.29162c-0.35067,-1.06402 0.2276,-2.21085 1.29161,-2.56152c1.06402,-0.35067 2.21085,0.22761 2.56152,1.29162z" stroke-width="0"/></g><g fill="#ff0000" fill-rule="nonzero" stroke="none" stroke-linecap="butt" stroke-linejoin="miter"><path d="M242.49927,213.25785c-0.94325,0.0241 -1.72901,-0.78218 -1.75504,-1.80089c-0.02604,-1.01871 0.71752,-1.86408 1.66077,-1.88818c0.94325,-0.0241 1.729,0.78219 1.75504,1.8009c0.02604,1.01871 -0.71751,1.86407 -1.66076,1.88817z" stroke-width="NaN"/><path d="M238.87305,215.8115c-0.86778,0.02218 -1.59003,-0.69391 -1.61318,-1.59943c-0.02314,-0.90552 0.66159,-1.65757 1.52938,-1.67974c0.86778,-0.02218 1.59002,0.69392 1.61317,1.59943c0.02314,0.90552 -0.66159,1.65757 -1.52937,1.67974z" stroke-width="0"/><path d="M241.99616,217.64579c-0.98098,0.02507 -1.79419,-0.6581 -1.81637,-1.52588c-0.02218,-0.86778 0.75509,-1.59159 1.73606,-1.61666c0.98098,-0.02507 1.7942,0.6581 1.81637,1.52589c0.02218,0.86778 -0.75509,1.59158 -1.73607,1.61665z" stroke-width="0"/></g><g fill="#ff0000" fill-rule="nonzero" stroke="none" stroke-linecap="butt" stroke-linejoin="miter"><path d="M226.49502,220.10745c0,1.16699 -1.02172,2.11302 -2.28206,2.11302c-1.26035,0 -2.28207,-0.94603 -2.28207,-2.11302c0,-1.16699 1.02172,-2.11302 2.28207,-2.11302c1.26035,0 2.28206,0.94603 2.28206,2.11302z" stroke-width="NaN"/><path d="M229.53777,224.67158c0,1.07363 -0.90819,1.94398 -2.0285,1.94398c-1.12031,0 -2.0285,-0.87035 -2.0285,-1.94398c0,-1.07363 0.9082,-1.94398 2.0285,-1.94398c1.12031,0 2.0285,0.87035 2.0285,1.94398z" stroke-width="0"/><path d="M225.81885,228.47502c0,1.12031 -0.90819,2.0285 -2.0285,2.0285c-1.12031,0 -2.0285,-0.90819 -2.0285,-2.0285c0,-1.12031 0.90819,-2.0285 2.0285,-2.0285c1.12031,0 2.0285,0.9082 2.0285,2.0285z" stroke-width="0"/></g><g fill="#ff0000" fill-rule="nonzero" stroke="none" stroke-linecap="butt" stroke-linejoin="miter"><path d="M231.1116,213.48513c-0.90339,-0.27236 -1.39729,-1.28408 -1.10314,-2.25975c0.29414,-0.97566 1.26495,-1.54581 2.16834,-1.27345c0.90339,0.27236 1.39728,1.28408 1.10314,2.25975c-0.29414,0.97566 -1.26494,1.54581 -2.16834,1.27345z" stroke-width="NaN"/><path d="M224.79188,211.00884c-0.86726,-0.26146 -1.35835,-1.17647 -1.09689,-2.04373c0.26146,-0.86726 1.17647,-1.35835 2.04372,-1.09689c0.86726,0.26146 1.35835,1.17647 1.09689,2.04373c-0.26146,0.86726 -1.17647,1.35835 -2.04373,1.09689z" stroke-width="0"/><path d="M229.26028,217.49509c-0.93953,-0.28325 -1.49804,-1.18663 -1.24747,-2.01775c0.25057,-0.83112 1.21533,-1.27526 2.15486,-0.99201c0.93953,0.28325 1.49805,1.18664 1.24748,2.01776c-0.25057,0.83112 -1.21534,1.27525 -2.15487,0.992z" stroke-width="0"/></g><path d="M229.78081,145.40546c0.74879,0.04263 0.70616,0.79142 0.70616,0.79142l-0.08937,0.89263c-2.01923,4.84136 -5.92155,1.9159 -6.93911,-1.71541c0,0 -0.19634,-0.72384 0.5275,-0.92018c0.72384,-0.19634 0.92018,0.5275 0.92018,0.5275c0.56846,2.18633 2.78422,5.09064 4.09766,1.55363l-0.01444,-0.42344c0,0 0.04263,-0.74879 0.79142,-0.70616z" fill="#000000" fill-rule="nonzero" stroke="none" stroke-width="0.5" stroke-linecap="butt" stroke-linejoin="miter"/><path d="M252.32712,155.6017c0.74731,0.06342 0.68389,0.81073 0.68389,0.81073l-0.139,1.54228c-0.2161,0.55127 -1.14716,3.1354 -1.63022,3.33573c-2.00673,0.8322 -2.40334,-4.21425 -2.35903,-5.13392c0,0 0.04263,-0.74879 0.79142,-0.70616c0.74879,0.04263 0.70616,0.79142 0.70616,0.79142c-0.08491,1.24626 0.48343,2.19555 0.59782,3.41403c0.00676,0.07201 0.17296,-1.40042 0.43392,-2.04546l0.10431,-1.32475c0,0 0.06342,-0.74731 0.81073,-0.68389z" fill="#000000" fill-rule="nonzero" stroke="none" stroke-width="0.5" stroke-linecap="butt" stroke-linejoin="miter"/><path d="M223.73383,164.86637c0.74799,0.05487 0.69312,0.80286 0.69312,0.80286l-0.04041,0.55091c-0.13281,1.80942 -1.17906,8.70443 -4.54836,6.01386c-1.08284,-0.86471 -1.56288,-3.77365 -1.91201,-5.05919c0,0 -0.19634,-0.72384 0.5275,-0.92018c0.72384,-0.19634 0.92018,0.5275 0.92018,0.5275c0.14104,0.52064 1.27632,4.75429 1.82579,4.56166c1.62976,-0.57134 1.59933,-3.98398 1.69091,-5.23338l0.04041,-0.55091c0,0 0.05487,-0.74799 0.80286,-0.69312z" fill="#000000" fill-rule="nonzero" stroke="none" stroke-width="0.5" stroke-linecap="butt" stroke-linejoin="miter"/><path d="M229.47774,179.71704c0.74879,0.04263 0.70616,0.79142 0.70616,0.79142l-0.08937,0.89263c-0.17446,0.43854 -0.83253,2.22277 -1.17057,2.34822c-2.05796,0.76368 -3.63248,-3.26246 -4.33783,-4.4632c0,0 -0.37989,-0.64668 0.26679,-1.02655c0.64668,-0.37989 1.02655,0.26679 1.02655,0.26679c0.158,0.26896 2.40702,3.89302 2.451,3.84536c0.3547,-0.38452 0.17691,-1.03899 0.37029,-1.52508l-0.01444,-0.42344c0,0 0.04263,-0.74879 0.79142,-0.70616z" fill="#000000" fill-rule="nonzero" stroke="none" stroke-width="0.5" stroke-linecap="butt" stroke-linejoin="miter"/><path d="M213.69302,172.87682c0.74879,0.04263 0.70616,0.79142 0.70616,0.79142l-0.03746,0.65803c-0.10484,1.59565 -2.14199,6.16929 -3.92861,3.03457c-0.4999,-0.8771 -0.46302,-3.29443 -0.75928,-4.38426c0,0 -0.19634,-0.72384 0.5275,-0.92018c0.72384,-0.19634 0.92018,0.5275 0.92018,0.5275c0.29695,1.09701 0.70771,2.33823 0.82184,3.46487c0.00949,0.09367 -0.00582,0.23715 -0.03206,0.38925c0.32071,-0.71401 0.90349,-1.11813 0.95285,-2.197l0.03746,-0.65803c0,0 0.04263,-0.74879 0.79142,-0.70616z" fill="#000000" fill-rule="nonzero" stroke="none" stroke-width="0.5" stroke-linecap="butt" stroke-linejoin="miter"/></g></g></svg>