<svg version="1.1" xmlns="http://www.w3.org/2000/svg" xmlns:xlink="http://www.w3.org/1999/xlink" width="54.17893" height="57.41513" viewBox="0,0,54.17893,57.41513"><g transform="translate(-212.8979,-151.29244)"><g data-paper-data="{&quot;isPaintingLayer&quot;:true}" fill-rule="nonzero" stroke-width="4" stroke-linecap="butt" stroke-linejoin="miter" stroke-miterlimit="10" stroke-dasharray="" stroke-dashoffset="0" style="mix-blend-mode: normal"><path d="M214.92289,181.5323c0.00097,-0.07811 2.82886,-1.45014 5.76157,-1.49872c3.18509,-0.05276 6.49674,1.21903 6.52243,1.15831c0.00031,-0.00073 -2.2923,-16.22518 -2.29224,-16.22525c0.06349,-0.08133 7.73449,-9.82788 13.43482,-9.58763c5.14339,0.21679 14.92503,9.55262 15.01435,9.55373c0.02992,0.00037 -4.50402,15.12433 -4.50379,15.12548c0.02116,0.10665 3.36487,-2.00617 6.59973,-2.12815c3.27551,-0.12351 6.44489,1.7424 6.82744,1.62489c0.03622,-0.01113 -3.53442,8.67072 -8.91276,15.5879c-5.17839,6.66001 -12.17042,11.56489 -12.22021,11.5647c-0.04973,-0.0002 -9.33417,-4.18443 -15.98489,-10.57662c-6.43626,-6.18607 -10.24659,-14.58665 -10.24644,-14.59864z" data-paper-data="{&quot;index&quot;:null}" fill="#000000" stroke="#000000"/><path d="M217.71252,179.45009c0.00097,-0.07811 2.82886,-1.45014 5.76157,-1.49872c3.18509,-0.05276 6.49674,1.21903 6.52243,1.15831c0.00031,-0.00073 -2.2923,-16.22518 -2.29224,-16.22525c0.06349,-0.08133 7.73449,-9.82788 13.43482,-9.58763c5.14339,0.21679 14.92503,9.55262 15.01435,9.55373c0.02992,0.00037 -4.50402,15.12433 -4.50379,15.12548c0.02116,0.10665 3.36487,-2.00617 6.59973,-2.12815c3.27551,-0.12351 6.44489,1.7424 6.82744,1.62489c0.03622,-0.01113 -3.53442,8.67072 -8.91276,15.5879c-5.17839,6.66001 -12.17042,11.56489 -12.22021,11.5647c-0.04973,-0.0002 -9.33417,-4.18443 -15.98489,-10.57662c-6.43626,-6.18607 -10.24659,-14.58665 -10.24644,-14.59864z" data-paper-data="{&quot;index&quot;:null}" fill="#ff6b6b" stroke="#520000"/></g></g></svg>