<svg version="1.1" xmlns="http://www.w3.org/2000/svg" xmlns:xlink="http://www.w3.org/1999/xlink" width="64.40177" height="106.94912" viewBox="0,0,64.40177,106.94912"><defs><linearGradient x1="147.19254" y1="200.89897" x2="147.19254" y2="203.81052" gradientUnits="userSpaceOnUse" id="color-1"><stop offset="0" stop-color="#676370"/><stop offset="1" stop-color="#000000"/></linearGradient></defs><g transform="translate(-129.33562,-147.86656)"><g data-paper-data="{&quot;isPaintingLayer&quot;:true}" stroke-miterlimit="10" stroke-dasharray="" stroke-dashoffset="0" style="mix-blend-mode: normal"><g fill="none" fill-rule="nonzero" stroke="none" stroke-width="1" stroke-linecap="butt" stroke-linejoin="miter" font-family="sans-serif" font-weight="normal" font-size="12" text-anchor="start"><g><g data-paper-data="{&quot;index&quot;:null}"/></g><g data-paper-data="{&quot;index&quot;:null}"/><g data-paper-data="{&quot;index&quot;:null}"/></g><g fill="none" fill-rule="nonzero" stroke="none" stroke-width="1" stroke-linecap="butt" stroke-linejoin="miter" font-family="sans-serif" font-weight="normal" font-size="12" text-anchor="start"><g><g/><g><g/></g><g/></g><g/></g><path d="" fill="#2b1900" fill-rule="nonzero" stroke="#150c00" stroke-width="3" stroke-linecap="butt" stroke-linejoin="miter"/><path d="M158.20884,204.17388c0,2.5027 -3.04182,4.53153 -6.79411,4.53153c-1.99898,0 -5.57228,1.70962 -7.76975,0.4808c-1.92739,-1.0778 -2.63896,-5.06007 -2.42954,-5.73384c0.65328,-2.10169 7.29153,-3.03467 9.51697,-3.03467c3.75229,0 7.47643,1.25349 7.47643,3.75618z" fill="#676370" fill-rule="nonzero" stroke="#36343b" stroke-width="1" stroke-linecap="butt" stroke-linejoin="miter"/><path d="M162.28116,216.34932l0.97525,-16.04212" fill="none" fill-rule="nonzero" stroke="#000000" stroke-width="6" stroke-linecap="round" stroke-linejoin="miter"/><path d="M143.10306,219.54983c0,0 5.29878,-7.50437 5.98055,-8.3978c1.23447,-1.61773 14.31859,-10.03321 14.31859,-10.03321c0,0 5.68584,7.08019 7.64725,9.13523c1.8512,1.93956 6.66911,2.86863 6.66911,2.86863" fill="none" fill-rule="nonzero" stroke="#000000" stroke-width="6" stroke-linecap="round" stroke-linejoin="miter"/><g><g><g stroke-width="1.2"><path d="M171.30871,215.03669l2.88983,26.27636c0,0 6.98259,0.4171 6.81653,7.59665c-0.00947,0.40931 -0.10852,2.41892 -2.99313,3.00706c-2.76287,0.56331 -8.27047,-0.27821 -10.28288,-0.59795c-0.93467,-0.14851 -2.35845,-0.79631 -3.26837,-1.90547c-0.91612,-1.11677 -0.81717,-2.74089 -0.81655,-3.65454c0.00025,-0.37213 -2.05584,-29.63214 -2.05584,-29.63214" fill="#220606" fill-rule="evenodd" stroke="#340000" stroke-linecap="round" stroke-linejoin="round"/><path d="M161.42577,222.05227c0.17018,-7.35787 5.45586,-7.48521 8.20979,-7.41859c1.19752,0.02897 1.03568,-1.93754 2.09544,3.81734c0.23339,1.26745 0.69205,6.47077 1.67285,10.89963c0.67162,3.03271 1.93138,5.71059 2.16674,6.47993c0.55608,1.81777 0.32733,3.47486 0.32733,3.47486l-1.00827,-1.20431c0,0 0.6644,0.83929 0.93047,1.34007c0.8289,1.56004 1.46296,2.73749 1.46296,2.73749c0,0 -7.04247,-0.46511 -9.78538,1.82984c-2.74291,2.29495 -1.38374,6.6145 -1.38374,6.6145c0,0 -5.21776,-0.81997 -5.6359,-3.76384c-0.10309,-0.72574 0.70618,-2.88543 0.70618,-2.88543c0,0 -0.59661,0.12216 -0.61594,-0.38035c-0.00986,-0.25616 0.78957,-4.05623 0.96719,-8.33109c0.23382,-5.62754 -0.13426,-12.1499 -0.10974,-13.21005z" fill="#676370" fill-rule="nonzero" stroke="#36343b" stroke-linecap="butt" stroke-linejoin="miter"/></g><path d="M152.4732,216.82876c-0.00974,-0.21598 1.18512,0.4208 3.89261,0.49439c3.57187,0.0971 9.04209,-0.33729 10.58028,-0.55955c3.98878,-0.57634 4.66378,-2.11038 4.68961,-1.53784c0.09556,2.11872 -2.16062,6.04332 -6.72376,6.25859c-2.00528,0.0946 -6.10681,0.80409 -8.42943,0.05816c-2.96262,-0.95148 -3.95572,-3.52614 -4.0093,-4.71377z" fill="#004fd9" fill-rule="nonzero" stroke="#001026" stroke-width="1.2" stroke-linecap="butt" stroke-linejoin="miter"/><g fill-rule="nonzero" stroke-linecap="butt" stroke-linejoin="miter"><g fill="none" stroke="none" stroke-width="1" font-family="sans-serif" font-weight="normal" font-size="12" text-anchor="start"/><path d="M151.99188,215.45079c0,0 8.57098,1.33376 12.5096,1.31516c3.93861,-0.01859 7.1835,-1.40815 7.1835,-1.40815c0,0 0.031,2.07391 -1.72548,4.09233c-1.35963,1.56238 -3.97267,3.1809 -7.35009,3.21523c-3.07692,0.03128 -6.50968,-0.62978 -8.20888,-1.98628c-2.57548,-2.05606 -2.40864,-5.22831 -2.40864,-5.22831z" fill="#676370" stroke="#36343b" stroke-width="1.2"/></g><g stroke-width="1.2"><path d="M161.4604,220.7073c0,0 -3.34528,30.56729 -3.95573,30.66819c-1.75183,0.28953 -11.35196,-2.30308 -11.35196,-2.30308l6.17094,-30.73259" data-paper-data="{&quot;index&quot;:null}" fill="#ffab19" fill-rule="evenodd" stroke="#001026" stroke-linecap="round" stroke-linejoin="round"/><path d="M162.93884,220.21448c0,0 -0.78147,6.46384 -1.01229,9.89111c-0.22138,3.28727 -0.3455,10.27008 -0.3455,10.27008c0,0 0.93843,5.07389 0.02095,6.32511c-0.42494,0.57952 -0.75979,-2.86462 -0.75979,-2.86462c0,0 0.3738,3.88276 0.41061,4.22499c0.2568,2.38782 -0.91518,5.52348 -3.98631,5.82139c-3.37191,0.32707 -8.96203,0.69649 -11.84378,-1.19265c-1.22614,-0.8038 -2.88701,-3.16992 -2.44,-5.69046c0.50411,-2.84252 3.21129,-5.82039 3.21129,-5.82039l-2.48757,3.24602c0,0 -0.02593,-1.62079 0.37883,-2.80973c0.45455,-1.33517 2.21648,-4.8136 2.21648,-4.8136l5.34118,-19.57598" data-paper-data="{&quot;index&quot;:null}" fill="#676370" fill-rule="evenodd" stroke="#36343b" stroke-linecap="round" stroke-linejoin="round"/><path d="M159.81544,249.46973c-0.08452,1.71634 -0.774,3.71047 -2.27053,4.74596c-1.50208,1.03932 -10.52962,0.62745 -11.92522,-0.64275c-1.32536,-1.20627 -1.86525,-3.4358 -1.78275,-5.11092c0.16936,-3.43903 3.88355,-6.00135 8.29591,-5.72308c4.41233,0.27827 7.85196,3.29175 7.68258,6.7308z" fill="#220606" fill-rule="nonzero" stroke="#340000" stroke-linecap="butt" stroke-linejoin="miter"/></g></g><g fill="none" fill-rule="nonzero" stroke="none" stroke-width="1" stroke-linecap="butt" stroke-linejoin="miter" font-family="sans-serif" font-weight="normal" font-size="12" text-anchor="start"/></g><g fill-rule="nonzero" stroke-linecap="butt" stroke-linejoin="miter"><g data-paper-data="{&quot;index&quot;:null}" stroke="none" stroke-width="1"><path d="M182.73422,200.92c-0.19225,-0.08546 -0.22007,-0.23264 -0.22268,-0.41126c0.01796,-0.28215 0.09111,-0.55513 0.12755,-0.83421c-0.04496,-0.06094 -0.08991,-0.12189 -0.13827,-0.16556c-0.98393,-0.98342 -1.39076,-2.19161 -1.5895,-3.48994c-0.0407,-0.27407 -0.09981,-0.55126 -0.04501,-0.82726c0.0103,-0.05175 0.00557,-0.12382 -0.02444,-0.16446c-0.16486,-0.22345 -0.12036,-0.44773 -0.09083,-0.69232c0.02266,-0.21007 0.08216,-0.41404 0.12325,-0.62105c0.02397,-0.12075 0.08475,-0.2354 0.21233,-0.30331c0.12758,-0.06787 0.2102,-0.19671 0.28936,-0.30828c0.38312,-0.68475 0.88482,-1.29633 1.4867,-1.83777c0.34462,-0.29909 0.73075,-0.52002 1.1353,-0.73784c1.19184,-0.63936 2.4809,-0.90614 3.82907,-0.89579c0.60623,0.01174 1.21375,0.11277 1.80756,0.2828c0.44995,0.1283 0.83915,0.37126 1.20651,0.62837c1.16888,0.81816 1.91948,1.92312 2.34597,3.22371c0.08434,0.24571 0.10666,0.5167 0.12894,0.78773c0.02101,0.18169 0.06384,0.34922 0.22737,0.48336c0.14854,0.11383 0.19139,0.28132 0.19398,0.45994c-0.01796,0.28215 -0.07275,0.55817 -0.12755,0.8342c-0.01712,0.08628 -0.06763,0.14917 -0.11817,0.21204c-0.2136,0.21396 -0.3202,0.46355 -0.39336,0.73654c-0.1348,0.58351 -0.44687,1.10186 -0.74054,1.62328c-0.11474,0.19478 -0.24784,0.38648 -0.41435,0.55483c-0.52824,0.55369 -1.06808,1.06984 -1.75303,1.45492c-0.05135,0.25876 -0.12455,0.53173 -0.17929,0.80776c-0.02054,0.10353 -0.04451,0.22427 -0.16867,0.27489c-0.10573,0.05368 -0.10789,0.16028 -0.12841,0.26377c-0.15533,0.687 -0.29229,1.37705 -0.44763,2.06405c-0.32313,1.53233 -0.64961,3.08191 -1.00954,4.60811c-0.35309,1.4917 -0.65089,2.99259 -0.96717,4.49041c-0.04792,0.24153 -0.12927,0.45966 -0.17717,0.70117c-0.23279,1.1731 -0.46561,2.34622 -0.7168,3.51626c-0.04108,0.207 -0.04536,0.42015 -0.19348,0.59153c-0.05052,0.06291 -0.04923,0.15218 -0.06636,0.23845c-0.17115,0.8626 -0.36417,1.73936 -0.53535,2.60195c-0.00685,0.0345 -0.01714,0.08625 -0.02397,0.12075c-0.03635,0.2791 -0.19262,0.39568 -0.47433,0.47357c-0.94398,0.25289 -1.86658,0.20638 -2.76783,-0.13951c-0.22905,-0.09157 -0.45124,-0.21762 -0.64821,-0.37511c-0.14855,-0.11383 -0.19482,-0.26407 -0.17901,-0.43963c0.0475,-0.52674 0.07655,-1.05652 0.12746,-1.60052c0.0385,-0.38568 0.11724,-0.78246 0.1005,-1.1773c-0.03817,-0.86174 0.14798,-1.70403 0.165,-2.55657c0.01877,-0.47803 -0.00267,-0.94497 0.03453,-1.41996c0.04405,-0.50947 0.04787,-1.00784 0.07006,-1.5031c0.04575,-0.90127 0.13172,-1.81366 0.15903,-2.71798c0.00847,-1.19257 0.09055,-2.37297 0.17265,-3.5533c0.02352,-0.406 0.04699,-0.81191 0.07052,-1.21791c0.04958,-0.63333 0.10264,-1.28384 0.15225,-1.91713c0.03164,-0.35117 0.02307,-0.6912 0.05468,-1.04234c0.01667,-0.37151 0.0817,-0.69923 0.12021,-1.08493zM183.24236,200.75502c0.20037,0.14026 0.40759,0.24602 0.64347,0.30309c0.44785,0.23486 0.93805,0.35204 1.42827,0.46919c0.61567,0.15585 1.26341,0.24576 1.89277,0.33259c0.7214,0.10215 1.4218,0.02261 2.14407,-0.07111c0.08049,-0.02226 0.16096,-0.04451 0.28168,-0.0779c0.02741,-0.138 0.05474,-0.27602 0.08214,-0.41402c0.00685,-0.0345 -0.00471,-0.07207 -0.01285,-0.12687c-0.12886,-0.02145 -0.26115,-0.02562 -0.39688,-0.01256c-0.23119,0.01503 -0.43711,-0.00144 -0.66828,0.01357c-0.57282,0.01165 -1.13329,-0.13498 -1.69583,-0.17508c-0.29798,-0.03171 -0.60278,-0.029 -0.89391,-0.09522c-0.63408,-0.15891 -1.28525,-0.23157 -1.90559,-0.45949c-0.15885,-0.06207 -0.33609,-0.12715 -0.49494,-0.18925c-0.05309,-0.11578 -0.20723,-0.10573 -0.29244,-0.15557c-0.10017,-0.07013 -0.20039,-0.14026 -0.40629,-0.15666c0.08434,0.24571 -0.01537,0.4608 0.01716,0.68005c0.08863,0.03258 0.14172,0.1483 0.27745,0.13524zM183.86232,201.46404c-0.39261,-0.22571 -0.49963,-0.2613 -0.74582,-0.26662c-0.02266,0.21007 -0.0419,0.40293 -0.06459,0.613c-0.02397,0.12075 0.03252,0.21927 0.13275,0.28941c0.06682,0.04677 0.15884,0.06205 0.22563,0.10881c0.25218,0.16672 0.55489,0.27049 0.85285,0.30223c0.11178,0.10766 0.259,0.1322 0.40631,0.15669c0.82499,0.15503 1.62821,0.32423 2.47032,0.39303c0.37505,0.02674 0.75353,0.03624 1.11698,0.02538c0.28988,-0.02308 0.5981,-0.04309 0.8601,-0.21338c0.0445,-0.22429 0.08897,-0.44854 0.1335,-0.67283c-0.1541,0.00999 -0.28987,0.02306 -0.40712,0.03919c-0.54285,0.05225 -1.07886,0.07006 -1.60119,0.01883c-0.673,-0.05848 -1.32892,-0.20321 -1.98824,-0.33067c-0.31299,-0.05205 -0.587,-0.20453 -0.90337,-0.23934c-0.14172,-0.1483 -0.32239,-0.19618 -0.48806,-0.22375zM182.33479,221.04466c0.23719,0.14638 0.49148,0.20651 0.75263,0.23211c0.01497,0.0203 0.04839,0.04369 0.06682,0.04675c0.44525,0.05624 0.89736,0.07797 1.33318,-0.00994c0.25649,-0.04645 0.50947,-0.07565 0.73119,-0.23481c0.19172,-0.9661 0.38339,-1.93216 0.58544,-2.95003c-0.47947,0.11626 -0.93848,0.12909 -1.39394,0.12458c-0.40032,0.00471 -0.75822,-0.10829 -1.15167,-0.13808c-0.14727,-0.02448 -0.27273,-0.06315 -0.42001,-0.08764c-0.20377,-0.123 -0.43285,-0.21456 -0.70555,-0.27774c-0.1027,0.51756 -0.05127,1.0251 -0.11031,1.51427c-0.04405,0.50948 -0.06969,1.02205 -0.1103,1.51425c0.14171,0.1483 0.28214,0.20734 0.42259,0.2663zM182.56265,217.50057c0.11179,0.10765 0.25562,0.14944 0.40287,0.17391c0.13358,0.09353 0.30272,0.10383 0.46495,0.14863c0.51207,0.10297 1.04123,0.1197 1.5588,0.09887c0.30823,-0.02002 0.62334,-0.07457 0.91529,-0.20421c0.01371,-0.06901 0.04579,-0.13494 0.05946,-0.20396c0.16779,-0.84536 0.3321,-1.67338 0.51824,-2.51566c0.19642,-0.89401 0.38942,-1.77079 0.58586,-2.66481c0.27858,-1.30808 0.5722,-2.59579 0.85076,-3.90387c0.32782,-1.46026 0.59696,-2.91246 0.96162,-4.36659c0.06635,-0.23845 0.09924,-0.50029 0.15063,-0.75908c-0.21618,0.03534 -0.4208,0.10823 -0.63016,0.10904c-0.67515,0.04811 -1.34816,-0.01037 -2.01433,-0.10332c-0.58908,-0.09798 -1.17478,-0.21321 -1.76048,-0.32846c-0.23249,-0.07431 -0.44996,-0.1283 -0.68245,-0.20261c-0.12672,-0.12801 -0.29927,-0.12106 -0.43971,-0.18005c-0.15885,-0.06207 -0.29242,-0.15556 -0.47995,-0.16893c-0.07106,0.1664 -0.06162,0.31055 -0.06718,0.43434c0.00052,1.05155 -0.14966,2.09582 -0.20437,3.13815c-0.03803,0.67089 -0.07611,1.34176 -0.09569,2.01568c-0.04575,0.90127 -0.06963,1.78832 -0.11193,2.67233c-0.02988,0.72567 -0.0598,1.45137 -0.10813,2.17399c-0.0402,0.77745 -0.09537,1.53455 -0.15393,2.30896c-0.04489,0.70537 -0.09318,1.42799 -0.12309,2.15367c0.16224,0.04479 0.25218,0.16668 0.40287,0.17393zM193.29885,195.4061c-0.43579,0.0879 -0.83614,0.09261 -1.23983,0.11458c-0.42214,0.0189 -0.82926,0.05814 -1.24796,0.05977c-0.40032,0.0047 -0.8122,-0.02816 -1.20905,-0.04073c-0.41531,-0.01561 -0.83057,-0.0312 -1.26082,-0.06711c-0.39343,-0.02981 -0.80188,-0.07993 -1.19534,-0.10973c-0.40842,-0.05012 -0.80318,-0.16922 -1.22532,-0.15032c-0.36603,-0.16778 -0.78475,-0.16615 -1.16795,-0.24768c-0.39813,-0.10188 -0.82161,-0.17228 -1.21976,-0.27414c-0.37973,-0.09881 -0.77449,-0.21794 -1.15081,-0.33398c-0.39475,-0.11914 -0.75737,-0.30421 -1.16236,-0.37153c-0.11899,0.40792 -0.14295,0.52866 -0.05729,0.86369c0.20377,0.123 0.4076,0.24602 0.65504,0.34061c0.3027,0.10381 0.60537,0.20762 0.92306,0.33175c0.60196,0.22488 1.18895,0.4294 1.83328,0.53657c0.44184,0.07349 0.88711,0.1297 1.31525,0.27222c0.08863,0.03258 0.19909,0.05092 0.31635,0.03479c0.23118,-0.01504 0.46709,0.04206 0.688,0.07877c0.81003,0.13473 1.64058,0.16594 2.45618,0.17681c1.07676,0.03651 2.14063,-0.05386 3.21477,-0.19603c0.21276,-0.01809 0.42554,-0.03615 0.60359,-0.16693c0.08819,-0.25265 0.12113,-0.51451 0.13096,-0.85143zM186.2688,192.11625c-0.19176,0.19978 -0.30993,0.41181 -0.44647,0.62077c-0.12972,0.17445 -0.1892,0.37842 -0.15664,0.59768c0.03172,0.41515 0.0048,0.83839 -0.0958,1.24936c-0.00685,0.0345 0.00126,0.08932 -0.00216,0.10656c0.08177,0.06704 0.15541,0.07927 0.25775,0.04286c0.02183,-0.01417 0.04709,-0.04563 0.05052,-0.0629c0.15452,-0.49112 0.34584,-0.97608 0.574,-1.45496c0.03212,-0.06593 0.07105,-0.16639 0.04791,-0.24153c-0.01885,-0.28828 -0.03773,-0.57653 -0.22913,-0.85788zM184.64726,194.53749c0.14765,-0.4566 0.32873,-0.88982 0.52479,-1.30274c0.06417,-0.13188 0.06976,-0.25571 0.0419,-0.40291c-0.05098,-0.2223 -0.14561,-0.41628 -0.2368,-0.62749c-0.02312,-0.07514 -0.04281,-0.16749 -0.16013,-0.15137c-0.15026,0.27797 -0.31548,0.53565 -0.42892,0.81971c0.16919,0.77662 0.16917,0.7766 0.02326,1.60773c0.04494,0.06095 0.11519,0.09043 0.2359,0.05706zM188.83705,196.99858c-0.13527,0.29829 -0.25212,0.59966 -0.36898,0.901c-0.03212,0.06594 -0.0642,0.13189 -0.05949,0.20394c0.07407,0.29744 0.1298,0.59185 0.30619,0.85288c0.262,-0.17027 0.36856,-0.41986 0.52697,-0.64303c0.07919,-0.11155 0.08131,-0.21815 0.05005,-0.34809c-0.09249,-0.30051 -0.14818,-0.59494 -0.18199,-0.90347c0.00343,-0.01726 -0.02994,-0.04064 -0.05992,-0.08123c-0.05865,0.00806 -0.13576,0.01307 -0.21278,0.01808zM189.96087,192.67681c-0.29411,0.23622 -0.45592,0.47663 -0.63612,0.71397c-0.05737,0.09739 -0.05606,0.18669 -0.05476,0.27601c0.02832,0.43241 0.00132,0.85566 -0.10265,1.28388c-0.01028,0.05175 -0.00216,0.10656 -0.0124,0.15831c0.19909,0.05094 0.23933,0.03982 0.2667,-0.0982c0.08901,-0.44858 0.26666,-0.86454 0.52948,-1.2307c0.15839,-0.22315 0.18107,-0.43324 0.13353,-0.67283c-0.04967,-0.13303 -0.08434,-0.24573 -0.12375,-0.43048zM186.81615,194.91603c0.09204,0.01529 0.12414,-0.05069 0.13785,-0.11968c0.09587,-0.48303 0.33555,-0.92433 0.57529,-1.36565c0.18576,-0.36116 0.19087,-0.7702 -0.00996,-1.19565c-0.15967,0.13383 -0.21232,0.3033 -0.33518,0.44325c-0.24914,0.29716 -0.31418,0.62493 -0.30903,0.98223c-0.00167,0.39177 0.01504,0.78665 -0.09707,1.16005c0.00817,0.0548 0.02311,0.07516 0.03811,0.09546zM188.66887,192.47975c-0.15155,0.18864 -0.271,0.31134 -0.372,0.43711c-0.17335,0.20286 -0.23286,0.40681 -0.20716,0.66056c0.04541,0.34615 0.01377,0.69731 -0.03627,1.04538c-0.00557,0.12384 -0.03295,0.26184 -0.05691,0.38258c0.08863,0.03258 0.11728,-0.01611 0.12414,-0.05063c0.19131,-0.48501 0.40105,-0.9669 0.68104,-1.41934c0.03552,-0.08319 0.06761,-0.14914 0.06633,-0.23845c-0.04411,-0.25684 -0.06982,-0.5106 -0.19914,-0.81723zM190.03108,197.01897c0.0086,0.34004 -0.10827,0.64136 -0.20672,0.94579c-0.01711,0.08626 -0.08604,0.14608 -0.06634,0.23845c0.02785,0.14723 0.19399,0.45997 0.36568,0.64894c0.16313,-0.15109 0.241,-0.35198 0.35233,-0.52952c0.08604,-0.14609 0.09502,-0.28715 0.03036,-0.44047c-0.09932,-0.266 -0.16187,-0.52592 -0.16232,-0.81114c0.00344,-0.01726 -0.02657,-0.05787 -0.04153,-0.07817c-0.07023,-0.0295 -0.14386,-0.04177 -0.27143,0.02616zM183.50912,197.11043c0.06254,0.25987 -0.0141,0.55012 0.10709,0.80195c0.13228,0.00419 0.20465,-0.07288 0.29198,-0.12965c0.15626,-0.1166 0.32405,-0.19558 0.45377,-0.37004c-0.04881,-0.3289 0.05644,-0.66781 0.02944,-1.01089c-0.08177,-0.06704 -0.17381,-0.08238 -0.27272,-0.06316c-0.16866,0.27493 -0.37071,0.52646 -0.60958,0.77186zM186.61555,196.78952c-0.07106,0.1664 -0.14211,0.33277 -0.25812,0.43821c-0.27911,0.25651 -0.31888,0.55289 -0.2298,0.87064c0.03466,0.11268 0.01412,0.2162 0.10404,0.33811c0.21835,-0.14193 0.38488,-0.31024 0.55136,-0.47861c0.0471,-0.04563 0.06076,-0.11464 0.05948,-0.20394c-0.0223,-0.27104 -0.0296,-0.52173 -0.05187,-0.79274c0.0103,-0.05175 -0.01286,-0.12689 -0.17514,-0.1717zM185.45572,196.59664c-0.14895,0.36729 -0.3279,0.69393 -0.62199,0.93017c-0.06549,0.04257 -0.06077,0.11464 -0.07446,0.18364c-0.0124,0.15833 -0.0064,0.31974 0.07325,0.49334c0.30568,-0.19866 0.51929,-0.41266 0.73632,-0.64386c0.07234,-0.07707 0.10789,-0.16025 0.11001,-0.26684c0.00089,-0.19589 0.02008,-0.38874 0.02092,-0.58462c0.00344,-0.01726 -0.02656,-0.0579 -0.04153,-0.07819c-0.05523,-0.00919 -0.11047,-0.01838 -0.20249,-0.03365zM191.19229,193.75486c-0.03942,-0.18475 -0.07536,-0.38679 -0.11476,-0.57157c-0.01497,-0.0203 -0.02998,-0.04065 -0.05993,-0.08124c-0.23333,0.12157 -0.38488,0.31024 -0.49618,0.48774c0.02275,0.55625 0.05233,1.07795 -0.06408,1.66452c0.31252,-0.23316 0.23839,-0.53062 0.33813,-0.74569c0.11001,-0.26684 0.25338,-0.51029 0.39678,-0.75376zM186.09317,191.65933c-0.14301,-0.23763 -0.24924,-0.46915 -0.48298,-0.63277c-0.09761,0.10849 -0.20677,0.17946 -0.28252,0.27382c-0.07575,0.09434 -0.16993,0.18557 -0.19388,0.30635c0.02444,0.16443 0.13275,0.28939 0.20084,0.42545c0.06811,0.13604 0.09592,0.28328 0.22607,0.39402c0.18363,-0.25462 0.34546,-0.49498 0.53253,-0.76684zM183.4622,194.37604c0.17633,-0.50529 0.31712,-0.92743 0.45796,-1.34949c0.00685,-0.0345 0.03556,-0.0832 0.00557,-0.12382c-0.09121,-0.21119 -0.13876,-0.45077 -0.3541,-0.61133c-0.12158,0.22927 -0.23972,0.44132 -0.33945,0.65642c0.16058,0.43661 0.20387,0.88929 0.23003,1.42828zM187.44328,198.65582c0.18966,-0.09321 0.2607,-0.2596 0.36174,-0.38535c0.12287,-0.13995 0.1905,-0.28909 0.1545,-0.49109c-0.04069,-0.27407 -0.08139,-0.54817 0.0102,-0.8181c-0.12204,-0.05594 -0.19909,-0.05094 -0.21963,0.05258c-0.06974,0.2557 -0.14296,0.52867 -0.29791,0.73457c-0.21232,0.3033 -0.11642,0.5866 -0.0089,0.90742zM185.69608,197.97316c-0.29752,0.25347 -0.54452,0.44408 -0.77312,0.6377c-0.02397,0.12075 0.01756,0.19897 0.0407,0.27406c0.04153,0.07819 0.05781,0.18778 0.17981,0.24374c0.22993,-0.10434 0.44821,-0.24622 0.65158,-0.40841c-0.01073,-0.23343 -0.04328,-0.45271 -0.09896,-0.74712zM188.41858,199.29919c-0.11432,-0.28632 -0.21712,-0.53509 -0.31643,-0.80109c-0.17337,0.20285 -0.34333,0.38846 -0.51327,0.57402c0.08434,0.24571 0.13531,0.46804 0.32543,0.66c0.19649,-0.12769 0.34118,-0.28186 0.50429,-0.43293zM187.08642,191.25422c-0.24145,0.06675 -0.34119,0.28186 -0.48589,0.43599c-0.0471,0.04563 -0.04581,0.13493 -0.01924,0.19283c0.07622,0.19091 0.13744,0.36147 0.21706,0.53511c-0.00343,0.01726 0.03343,0.02337 0.07023,0.02951c0.17682,-0.22008 0.33856,-0.4605 0.51539,-0.68058c-0.0578,-0.1878 -0.17769,-0.35032 -0.2976,-0.51282zM189.79696,192.25749c-0.036,-0.202 -0.07537,-0.38677 -0.2539,-0.54123c-0.17809,0.1308 -0.393,0.25543 -0.52615,0.44714c0.03125,0.12995 0.02572,0.25377 0.07881,0.36951c0.03465,0.11268 -0.01114,0.24765 0.1443,0.32695c0.19178,-0.19977 0.38354,-0.39955 0.55696,-0.60241zM188.95106,199.29865c0.04283,0.1675 0.1914,0.28132 0.33653,0.41238c0.18839,-0.1825 0.40326,-0.30719 0.52485,-0.53643c-0.11989,-0.16253 -0.17428,-0.36757 -0.3494,-0.53927c-0.17682,0.22008 -0.33521,0.44324 -0.51198,0.66333zM191.22724,196.9328c-0.08003,0.30747 -0.08982,0.64444 -0.20672,0.9458c-0.08817,0.25265 0.01335,0.41207 0.20685,0.58684c0.1665,-0.16832 0.241,-0.35198 0.33729,-0.54981c-0.18455,-0.3158 -0.21158,-0.65892 -0.33746,-0.9828zM182.47921,193.96305c0.07707,-0.00499 0.08731,-0.05675 0.09761,-0.10849c0.06292,-0.22119 0.11085,-0.46273 0.19218,-0.68089c0.13867,-0.31554 -0.01119,-0.51867 -0.21287,-0.74825c-0.06079,0.11467 -0.11469,0.19477 -0.15023,0.27796c-0.09629,0.19784 -0.15237,0.38452 -0.02436,0.60187c0.0681,0.13604 0.07407,0.29747 0.08355,0.44161c-0.03212,0.06594 -0.08603,0.14607 0.01413,0.21619zM182.58014,197.38365c0.10573,-0.05368 0.17468,-0.11352 0.24016,-0.15608c0.21147,-0.10738 0.29754,-0.25348 0.30179,-0.46662c-0.00256,-0.17862 0.05351,-0.36535 0.06932,-0.54092c0.0103,-0.05176 0.03895,-0.10045 -0.0865,-0.13915c-0.14001,0.2262 -0.31678,0.44633 -0.52698,0.64303c-0.0471,0.04563 -0.06418,0.13186 -0.07791,0.20087c0.00942,0.14411 0.02227,0.27105 0.0801,0.45884zM187.09519,198.97216c-0.0394,-0.18475 -0.05697,-0.38369 -0.15506,-0.56042c-0.22175,0.15917 -0.45506,0.28073 -0.62844,0.48356c0.07624,0.19089 0.09721,0.37257 0.27918,0.50979c0.17811,-0.13079 0.37119,-0.24122 0.50429,-0.43295zM188.03862,192.58878c0.22173,-0.15917 0.37328,-0.34782 0.48797,-0.54258c-0.07622,-0.19089 -0.13747,-0.36144 -0.27235,-0.54428c-0.16784,0.07903 -0.28726,0.20174 -0.3917,0.34475c0.06595,0.24262 0.11351,0.48222 0.17601,0.74212zM185.29928,199.49323c0.08651,0.13916 0.12459,0.23457 0.20297,0.31887c0.04496,0.06094 0.09333,0.10463 0.14174,0.14832c0.2012,-0.05563 0.39087,-0.14884 0.53557,-0.30299c-0.0578,-0.1878 -0.11563,-0.37562 -0.27579,-0.52702c-0.19649,0.12769 -0.38615,0.22092 -0.60447,0.3628zM182.30385,195.80508c-0.24359,0.17336 -0.41823,0.28684 -0.61817,0.4318c-0.03212,0.06593 -0.03768,0.18973 -0.00298,0.30245c0.01628,0.10961 -0.0445,0.22426 0.04884,0.3289c0.17596,-0.02421 0.30353,-0.09209 0.41956,-0.19754c0.03636,-0.2791 0.08775,-0.53787 0.15279,-0.86563zM185.91119,190.75579c0.07496,0.10159 0.14988,0.20316 0.22477,0.30473c0.07497,0.10159 0.15331,0.18586 0.22822,0.28744c0.16652,-0.16831 0.32279,-0.28491 0.39727,-0.46854c-0.03468,-0.11268 -0.13829,-0.16556 -0.22005,-0.23264c-0.08177,-0.06704 -0.15331,-0.18586 -0.28556,-0.19006c-0.13445,0.10242 -0.26199,0.17027 -0.34462,0.29912zM187.54313,199.97335c-0.11305,-0.197 -0.164,-0.41937 -0.35758,-0.59411c-0.15624,0.1166 -0.2941,0.23622 -0.45036,0.3528c0.11304,0.197 0.19267,0.37066 0.39649,0.49364c0.14598,-0.06483 0.28514,-0.09514 0.41142,-0.25235zM184.16072,192.38938c0.1721,-0.29214 0.31891,-0.55285 0.46571,-0.81355c-0.05309,-0.11578 -0.08776,-0.22848 -0.20979,-0.28439c-0.24018,0.1561 -0.38014,0.38228 -0.53851,0.60544c0.0531,0.11578 0.10618,0.23152 0.1811,0.33309c0.0047,0.07208 0.0381,0.09543 0.10146,0.15943zM184.44431,198.53126c-0.07283,-0.20815 -0.03173,-0.41518 -0.15162,-0.57768c-0.23673,0.13884 -0.45163,0.26349 -0.64003,0.44604c0.10493,0.14221 0.07065,0.3147 0.23422,0.44884c0.20118,-0.05564 0.3425,-0.19255 0.55742,-0.31717zM190.69035,192.06747c-0.14941,0.08208 -0.28381,0.18448 -0.38486,0.31026c0.0694,0.2254 0.12034,0.44771 0.18288,0.70759c0.14809,-0.17137 0.28596,-0.29104 0.46749,-0.43904c-0.06938,-0.22541 -0.12376,-0.43048 -0.2655,-0.57881zM182.59688,197.7785c0.02912,0.23653 0.04671,0.43547 0.20341,0.60411c0.16438,-0.06178 0.30695,-0.10931 0.408,-0.23509c-0.03255,-0.21926 -0.04671,-0.43543 -0.09083,-0.69228c-0.18966,0.09321 -0.36089,0.18949 -0.52057,0.32331zM188.88625,191.76744c0.16994,-0.18558 0.39301,-0.25545 0.46749,-0.43909c-0.07622,-0.19089 -0.20296,-0.31889 -0.35154,-0.43271c-0.17124,0.09628 -0.33907,0.17528 -0.43197,0.35584c0.10147,0.15944 0.18457,0.31581 0.31601,0.5159zM188.94991,199.97565c-0.10492,-0.1422 -0.17299,-0.27825 -0.32499,-0.37482c-0.1665,0.16832 -0.393,0.25541 -0.51116,0.46744c0.0865,0.13916 0.18327,0.22653 0.34554,0.27133c0.17467,-0.11352 0.33435,-0.24733 0.49057,-0.36394zM183.37553,191.93799c-0.08307,-0.1564 -0.16141,-0.24065 -0.28002,-0.31392c-0.15626,0.1166 -0.30097,0.27071 -0.34201,0.47773c0.08993,0.12189 0.17981,0.24373 0.26632,0.3829c0.18495,-0.16527 0.24443,-0.36922 0.35572,-0.54674zM192.09829,198.48545c-0.09331,-0.10462 -0.17171,-0.18896 -0.27871,-0.22457c-0.14468,0.15411 -0.25254,0.31443 -0.32702,0.49807c0.07147,0.11881 0.14985,0.20313 0.27187,0.25907c0.16313,-0.15109 0.22259,-0.35505 0.33387,-0.53256zM185.94925,200.24286c0.06936,0.22538 0.21322,0.26713 0.38234,0.27745c0.12885,0.02145 0.26459,0.00836 0.34721,-0.12047c-0.08307,-0.1564 -0.16955,-0.29552 -0.31812,-0.40934c-0.14941,0.08208 -0.2804,0.16722 -0.41141,0.25235zM192.05408,193.91598c-0.02442,-0.16444 0.00297,-0.30243 -0.10877,-0.41012c-0.42639,0.23205 -0.39942,0.57514 -0.28719,0.96801c0.13314,-0.1917 0.26287,-0.36619 0.39597,-0.55788zM184.31591,199.56138c0.17939,-0.04142 0.30695,-0.10933 0.44822,-0.24622c-0.11178,-0.10766 -0.09596,-0.28327 -0.22953,-0.37676c-0.1139,-0.00114 -0.16438,0.06175 -0.2483,0.10124c-0.0873,0.05674 -0.18622,0.07595 -0.2102,0.19671c0.0531,0.11578 0.10621,0.23154 0.23979,0.32503zM187.25323,194.91744c0.18194,0.13718 0.29927,0.12107 0.34846,-0.03113c0.06293,-0.22119 0.08903,-0.44855 0.11168,-0.65862c0.01371,-0.06898 0.01237,-0.15833 -0.09121,-0.2112c-0.15367,0.29522 -0.27051,0.59654 -0.36897,0.90096zM189.99239,200.18465c0.01627,0.10962 0.07965,0.17364 0.18669,0.20929c0.21493,-0.12465 0.46325,-0.22591 0.62163,-0.44906c-0.20038,-0.14025 -0.37294,-0.13334 -0.53602,0.01776c-0.08732,0.05675 -0.20809,0.09016 -0.27229,0.22203zM189.75435,195.1552c0.2577,0.04287 0.31981,0.01749 0.35062,-0.13771c0.02951,-0.24459 0.06247,-0.50641 0.01834,-0.76324c-0.2089,0.28604 -0.39597,0.55789 -0.36897,0.90097zM192.15167,197.35382c-0.0458,0.13492 -0.06974,0.25574 -0.11213,0.37339c-0.06638,0.23846 -0.06633,0.23846 0.24792,0.37986c0.06079,-0.11467 0.14342,-0.24348 0.17549,-0.30941c-0.11989,-0.16254 -0.20638,-0.30163 -0.31129,-0.44382zM188.3215,190.30129c-0.1276,0.06788 -0.30012,0.07485 -0.33779,0.26462c0.09333,0.10463 0.20852,0.19507 0.31684,0.32c0.14943,-0.08208 0.31381,-0.1438 0.39641,-0.27265c-0.1118,-0.10766 -0.20168,-0.22959 -0.3755,-0.31197zM190.75815,198.52995c-0.13651,0.20897 -0.29153,0.41485 -0.42805,0.62382c0.01972,0.09235 0.06121,0.17055 0.1785,0.15443c0.19649,-0.12769 0.36306,-0.29604 0.46276,-0.51113c-0.05309,-0.11578 -0.11304,-0.19699 -0.21326,-0.26712zM191.23499,192.38976c0.13228,0.00419 0.23806,-0.0495 0.33221,-0.14078c-0.02312,-0.07515 -0.04625,-0.15025 -0.06939,-0.22539c-0.03808,-0.09544 -0.05784,-0.18782 -0.16144,-0.24067c-0.11045,-0.01838 -0.20933,0.00079 -0.3001,0.07484c0.06126,0.17059 0.13748,0.36146 0.19867,0.53202zM187.67682,191.44154c0.14943,-0.08208 0.24703,-0.1906 0.32965,-0.31942c-0.12672,-0.12801 -0.23506,-0.25293 -0.34679,-0.36061c-0.15756,0.02729 -0.25173,0.11854 -0.2907,0.21899c0.10146,0.15944 0.20296,0.31888 0.30784,0.46111zM191.86518,193.047c-0.03468,-0.11268 -0.06936,-0.22538 -0.12246,-0.34117c-0.01497,-0.02029 -0.05183,-0.02643 -0.08524,-0.04982c-0.08392,0.03949 -0.2012,0.05562 -0.28382,0.18448c0.02787,0.14723 0.03047,0.32583 0.13193,0.48528c0.16436,-0.06178 0.25853,-0.15305 0.35958,-0.27881zM192.54659,194.69291c0.05607,-0.1867 0.26543,-0.18755 0.29965,-0.36004c-0.04625,-0.15022 -0.03381,-0.30857 -0.15373,-0.47107c-0.14598,0.06483 -0.27358,0.13274 -0.24912,0.29716c0.02442,0.16445 -0.0248,0.31662 0.10321,0.53396zM191.20396,199.63769c0.0976,-0.1085 0.2136,-0.21398 0.30778,-0.30521c0.02184,-0.01418 0.01028,-0.05177 0.0171,-0.08627c-0.0852,-0.04981 -0.16011,-0.15139 -0.33609,-0.12715c-0.1194,0.12271 -0.24231,0.26265 -0.38357,0.39957c0.11516,0.09043 0.22222,0.12605 0.39475,0.11914zM187.30256,190.45261c-0.08991,-0.12189 -0.17641,-0.26102 -0.25134,-0.36256c-0.17596,0.0242 -0.30356,0.09207 -0.4127,0.16304c-0.00555,0.12385 0.11989,0.16248 0.18327,0.22651c0.0634,0.064 0.12332,0.14525 0.25562,0.14943c0.08049,-0.02226 0.1644,-0.06178 0.2252,-0.17642zM182.90091,198.73791c0.06811,0.13604 0.12461,0.2346 0.18112,0.33308c0.01155,0.03757 0.06337,0.06402 0.07837,0.08433c0.12885,0.02145 0.23462,-0.03224 0.32878,-0.12354c-0.06467,-0.15331 -0.11093,-0.30358 -0.21576,-0.44579c-0.12072,0.0334 -0.22648,0.08709 -0.37246,0.15191zM192.65209,197.41923c0.11817,-0.21203 0.23628,-0.42404 0.229,-0.67475c-0.17595,0.02421 -0.32669,0.01696 -0.4461,0.13964c0.03381,0.30858 0.03383,0.30859 0.21709,0.53509zM184.58089,199.85494c0.24793,0.37986 0.26631,0.38289 0.63195,0.26545c-0.08651,-0.13916 -0.19482,-0.26405 -0.28128,-0.40322c-0.13228,-0.00419 -0.23801,0.04951 -0.35063,0.13769zM190.50115,191.6796c-0.06466,-0.15331 -0.13619,-0.27214 -0.26977,-0.36567c-0.04025,0.01113 -0.10234,0.03644 -0.16441,0.06176c-0.04367,0.02839 -0.09078,0.07402 -0.13441,0.10237c0.06468,0.15331 0.10752,0.32084 0.23766,0.4316c0.12071,-0.03339 0.23333,-0.12157 0.3309,-0.23011zM181.95723,197.7434c0.06206,-0.02533 0.14598,-0.06485 0.17468,-0.11353c0.0929,-0.18059 0.09028,-0.35917 -0.00093,-0.57042c-0.12417,0.05062 -0.27826,0.06064 -0.35405,0.15498c0.0394,0.18475 0.02016,0.37759 0.18029,0.52896zM184.1516,190.99782c-0.01496,-0.0203 -0.02997,-0.04063 -0.05993,-0.08124c-0.26673,0.09823 -0.48848,0.25737 -0.7102,0.41652c0.03126,0.12994 0.09463,0.19393 0.23847,0.23569c0.16994,-0.18558 0.35826,-0.3681 0.53168,-0.57096zM188.84191,194.29063c-0.1618,0.24041 -0.33857,0.46049 -0.37837,0.75682c-0.00344,0.01726 0.06338,0.06397 0.10018,0.07011c0.09204,0.01528 0.17937,-0.04147 0.19645,-0.12772c0.09975,-0.21508 0.10742,-0.44549 0.08172,-0.69922zM190.01341,190.97473c-0.07148,-0.11884 -0.14301,-0.23765 -0.25818,-0.32809c-0.12886,-0.02145 -0.22776,-0.00224 -0.34377,0.10318c0.10834,0.12495 0.21322,0.26715 0.32496,0.37483c0.11727,-0.01613 0.20118,-0.05565 0.27697,-0.14997zM187.32442,200.59634c0.25431,0.06011 0.47179,0.11414 0.71667,0.03012c-0.02443,-0.16443 -0.13957,-0.25489 -0.27659,-0.33115c-0.16782,0.07903 -0.3138,0.14383 -0.44009,0.30107zM181.23444,196.0193c0.18624,-0.07595 0.20805,-0.0901 0.21836,-0.14189c0.05266,-0.16943 -0.00858,-0.34004 -0.07325,-0.49334c-0.02654,-0.05786 -0.1152,-0.09041 -0.19096,0.0039c0.07964,0.17364 -0.03852,0.38569 0.04588,0.63136zM184.86398,191.24106c0.18839,-0.1825 0.39172,-0.34475 0.46829,-0.63496c-0.28167,0.0779 -0.45166,0.2635 -0.61473,0.41457c0.00127,0.08932 0.04967,0.13298 0.14645,0.22036zM183.65188,199.36182c-0.10232,0.03645 -0.2012,0.05565 -0.30352,0.09209c0.06124,0.1706 0.14774,0.30972 0.36051,0.29163c0.05866,-0.00806 0.11727,-0.01614 0.14941,-0.08208c-0.01627,-0.10961 -0.09464,-0.19396 -0.20638,-0.30163zM191.02205,195.18784c0.1657,0.02753 0.24616,0.00532 0.25513,-0.13575c0.00557,-0.12385 0.0111,-0.24766 -0.00176,-0.37455c-0.00817,-0.05479 -0.03468,-0.11272 -0.11175,-0.1077c-0.09631,0.19783 -0.13395,0.3876 -0.14164,0.618zM184.09488,193.67934c-0.11817,0.21204 -0.19946,0.43019 -0.18875,0.66364c-0.00343,0.01727 0.06339,0.06397 0.08177,0.06704c0.03679,0.00613 0.08392,-0.03949 0.09075,-0.07402c0.02611,-0.22733 0.10401,-0.42825 0.01621,-0.65672zM183.09487,194.11893c-0.02099,-0.1817 0.01667,-0.3715 -0.0561,-0.57963c-0.13653,0.20895 -0.21102,0.39261 -0.17633,0.5053c0.01627,0.10961 0.08991,0.1219 0.23245,0.07431zM189.15122,200.68629c0.23119,-0.01503 0.48895,0.02784 0.65888,-0.15775c-0.30397,-0.1931 -0.4739,-0.00752 -0.65888,0.15775zM189.51649,197.50368c0.03679,0.00612 0.05872,-0.00807 0.09549,-0.00194c0.01581,-0.17556 0.12025,-0.3186 0.05901,-0.48916c-0.10702,-0.03564 -0.16569,-0.02755 -0.23803,0.04952c0.03126,0.12994 0.0591,0.27713 0.08354,0.44161zM186.41922,194.13715c-0.10315,0.23234 -0.17762,0.41599 -0.20031,0.62607c-0.00685,0.0345 0.02311,0.07513 0.07834,0.08431c0.01844,0.00306 0.05865,-0.00807 0.08049,-0.02227c0.11817,-0.21203 0.15922,-0.41903 0.04146,-0.68811zM182.2291,198.00246c-0.11728,0.01614 -0.17935,0.04144 -0.15282,0.09933c0.03126,0.12994 0.08095,0.26295 0.13061,0.39597c0.04152,0.07819 0.09674,0.08738 0.16567,0.02755c-0.01754,-0.19896 -0.04199,-0.36342 -0.14346,-0.52284zM189.10965,190.45019c0.08392,-0.03949 0.1644,-0.06178 0.24831,-0.10126c0.02184,-0.01417 0.02867,-0.0487 0.05737,-0.09739c-0.22088,-0.03676 -0.41311,-0.12216 -0.66616,-0.09297c0.10834,0.12495 0.18669,0.20926 0.36051,0.29162zM184.79297,196.48638c-0.01583,0.17557 -0.02823,0.33393 -0.0509,0.544c0.21834,-0.14193 0.30438,-0.28797 0.32019,-0.46354c-0.08177,-0.06705 -0.13358,-0.09351 -0.26931,-0.08045zM190.6591,197.01649c0.04967,0.13303 -0.02481,0.31662 0.15716,0.45383c0.13737,-0.40486 0.1545,-0.49108 0.06929,-0.54093c-0.09204,-0.01528 -0.15414,0.01001 -0.22648,0.08709zM185.30778,193.98799c-0.27228,0.22201 -0.31332,0.42904 -0.29106,0.70007c0.29881,-0.16417 0.19943,-0.43015 0.29106,-0.70007zM192.14712,194.5017c-0.25044,0.20783 -0.28811,0.39764 -0.29236,0.61077c-0.00343,0.01726 0.02998,0.04062 0.06678,0.04674c0.05523,0.0092 0.0989,-0.0192 0.10573,-0.05369c0.05267,-0.16943 0.06847,-0.345 0.11983,-0.60378zM191.5942,196.9047c0.02442,0.16444 0.0086,0.34004 0.1687,0.49137c0.08946,-0.16334 0.10185,-0.32166 0.11085,-0.46272c-0.10017,-0.07013 -0.17722,-0.06512 -0.27956,-0.02866zM192.59997,193.56123c-0.09807,-0.17671 -0.0604,-0.36647 -0.2308,-0.4661c-0.10315,0.23234 -0.10315,0.23233 0.05141,0.50753c0.04025,-0.01113 0.08049,-0.02226 0.17938,-0.04145zM189.55491,199.89801c0.268,-0.0089 0.42768,-0.14272 0.57238,-0.29687c-0.03468,-0.11268 -0.10834,-0.12495 -0.17381,-0.08238c-0.1194,0.12272 -0.25729,0.24236 -0.39853,0.37926zM190.82181,191.50122c0.1139,0.00113 0.20935,-0.00081 0.2851,-0.09513c-0.05651,-0.09849 -0.11303,-0.19703 -0.22004,-0.23262c-0.09547,0.00193 -0.15754,0.02728 -0.20808,0.09017c0.01972,0.09236 0.06467,0.15331 0.14303,0.23762zM187.26164,197.27123c0.08262,-0.1288 0.14,-0.22623 0.12371,-0.33586c-0.01155,-0.03757 -0.04494,-0.06095 -0.07836,-0.08433c-0.05523,-0.0092 -0.13573,0.01305 -0.12759,0.06786c-0.02054,0.10354 -0.04451,0.22428 0.08225,0.35231zM187.89888,190.03496c-0.15543,-0.07931 -0.31982,-0.01753 -0.47393,-0.00751c0.17641,0.26103 0.21324,0.26711 0.47393,0.00751zM182.06736,193.93019c0.12499,-0.24654 0.12499,-0.24653 -0.02016,-0.37761c-0.05737,0.09739 -0.11815,0.21205 0.02016,0.37761zM188.47699,196.99216c-0.0634,-0.064 -0.1186,-0.07318 -0.14384,-0.04176c-0.1194,0.12272 -0.11129,0.17752 0.0236,0.36035c0.0792,-0.11155 0.09977,-0.2151 0.12029,-0.31861zM192.89289,194.76833c-0.10916,0.07098 -0.19991,0.14498 -0.18708,0.27183c0.30481,-0.00279 0.33005,-0.03418 0.18708,-0.27183zM181.80061,193.26212c-0.13445,0.10242 -0.18024,0.23733 -0.22259,0.35501c-0.01371,0.06899 0.03126,0.12997 0.15543,0.07932c0.04235,-0.11769 0.08818,-0.25267 0.06719,-0.43434zM192.12553,192.50216c-0.07106,0.1664 -0.03296,0.26185 0.10749,0.32084c0,0 0.04025,-0.01113 0.04366,-0.02839c0.03893,-0.10046 -0.05778,-0.18781 -0.15114,-0.29249zM186.05555,196.92806c0.11728,-0.01614 0.16784,-0.07903 0.1631,-0.15107c0.00685,-0.0345 -0.02312,-0.07514 -0.05651,-0.09851c-0.03342,-0.02337 -0.09545,0.00193 -0.10229,0.03645c-0.02869,0.0487 -0.04238,0.11768 -0.00429,0.21314zM190.28235,190.76998c0.04967,0.13302 0.11303,0.19702 0.27402,0.15248c-0.06468,-0.15331 -0.13145,-0.20008 -0.27402,-0.15248z" fill="#000000"/><path d="M184.6296,202.96382c0.58566,0.11525 1.17139,0.23049 1.7605,0.32845c0.66277,0.11023 1.33918,0.15144 2.01433,0.10333c0.21277,-0.01808 0.39555,-0.07675 0.63015,-0.10902c-0.05478,0.27605 -0.08426,0.52059 -0.15062,0.75905c-0.36122,1.43689 -0.63382,2.90632 -0.96162,4.36658c-0.29702,1.30499 -0.57217,2.5958 -0.85076,3.90387c-0.19642,0.89402 -0.38945,1.7708 -0.58589,2.6648c-0.18616,0.84228 -0.33207,1.67339 -0.51821,2.51566c-0.01371,0.06901 -0.02741,0.13803 -0.0595,0.20396c-0.29538,0.14692 -0.58866,0.18722 -0.91529,0.2042c-0.51761,0.02084 -1.04676,0.00411 -1.55879,-0.09887c-0.1657,-0.02753 -0.33479,-0.03785 -0.46494,-0.14862c0.17255,-0.00696 0.34635,0.0754 0.56598,0.02285c-0.07406,-0.29744 0.03934,-0.58153 0.0757,-0.86064c0.00343,-0.01726 0.00685,-0.03449 -0.01155,-0.03756c-0.05482,-0.49027 0.04447,-0.99058 0.04827,-1.48895c-0.00258,-0.17862 -0.06041,-0.36646 0.01063,-0.53284c0.10531,-0.3389 0.00464,-0.69424 0.10994,-1.03319c0.00343,-0.01726 -0.00815,-0.05481 -0.00128,-0.08933c0.0098,-0.33693 -0.00217,-0.65973 0.04445,-0.99056c0.07531,-0.37953 -0.00349,-0.74909 0.10863,-1.12248c-0.06595,-0.24262 0.0154,-0.46078 0.04491,-0.70536c0.00685,-0.0345 0.01026,-0.05178 0.01712,-0.08625c-0.07881,-0.36953 0.06671,-0.71956 0.06155,-1.07686c-0.00517,-0.35726 0.10353,-0.71344 0.11677,-1.06766c0.02353,-0.40599 -0.01166,-0.80385 0.12578,-1.20873c0.00685,-0.0345 0.01713,-0.08627 0.00557,-0.12383c-0.07283,-0.20815 0.02352,-0.40597 0.04621,-0.61605c0.02054,-0.10354 0.06291,-0.22118 0.04663,-0.33083c-0.0428,-0.16751 0.00298,-0.30245 0.03379,-0.45774c0.01712,-0.08627 0.05266,-0.16948 0.0295,-0.24458c-0.06595,-0.24262 0.01878,-0.47803 0.06329,-0.70229c0.01712,-0.08627 0.05263,-0.16944 0.02952,-0.24459c-0.05436,-0.20506 0.00167,-0.39178 0.03936,-0.58156c0.06161,-0.31056 -0.00562,-0.64248 0.07442,-0.94993c0.02867,-0.0487 -0.01625,-0.10962 -0.02443,-0.16444z" fill="#87d7dc"/><path d="M184.6296,202.96385c0.00813,0.0548 0.05311,0.11576 0.04283,0.16752c-0.08001,0.30748 -0.0312,0.63636 -0.07441,0.94995c-0.03767,0.18976 -0.09373,0.3765 -0.03936,0.58155c0.02312,0.07515 -0.0124,0.15834 -0.02948,0.24457c-0.04448,0.22427 -0.11087,0.46272 -0.06334,0.70231c0.02312,0.07514 -0.03081,0.15529 -0.02949,0.24459c-0.03081,0.15526 -0.0582,0.29329 -0.03379,0.45774c0.01627,0.10961 -0.02611,0.22736 -0.04665,0.33086c-0.02266,0.21007 -0.11897,0.40792 -0.04618,0.61605c0.01155,0.03757 0.00129,0.08932 -0.00556,0.12382c-0.13396,0.38761 -0.10226,0.80279 -0.12576,1.20875c-0.01667,0.3715 -0.12538,0.72762 -0.11682,1.06766c0.00518,0.35725 -0.14035,0.70732 -0.06154,1.07684c0.01496,0.02031 -0.01029,0.05177 -0.01713,0.08628c-0.04448,0.22427 -0.11083,0.46272 -0.04489,0.70539c-0.13056,0.37036 -0.05173,0.73989 -0.10866,1.12247c-0.06505,0.32778 -0.03461,0.65361 -0.04447,0.99057c-0.00685,0.0345 0.00818,0.05484 0.00131,0.08933c-0.10531,0.3389 -0.00464,0.69423 -0.10994,1.03318c-0.05606,0.1867 0.00515,0.35728 -0.01064,0.53285c-0.02222,0.49529 -0.10309,0.99867 -0.04827,1.48893c-0.00343,0.01726 0.01158,0.03757 0.01158,0.03757c-0.03635,0.27911 -0.14981,0.56321 -0.0757,0.86065c-0.2012,0.05564 -0.37162,-0.044 -0.56598,-0.02287c-0.14726,-0.02448 -0.29453,-0.04902 -0.40288,-0.17398c0.02054,-0.10354 0.06291,-0.22118 0.04662,-0.33081c-0.05698,-0.38369 0.03337,-0.74295 0.06843,-1.11138c0.03507,-0.36839 -0.02192,-0.7521 0.10863,-1.12245c-0.06595,-0.24262 0.01535,-0.4608 0.04489,-0.70538c0.00685,-0.0345 0.01711,-0.08626 0.00556,-0.12383c-0.06124,-0.17059 0.00983,-0.33694 0.02223,-0.49531c0.01712,-0.08627 0.03421,-0.17252 0.02951,-0.24458c-0.01674,-0.39486 -0.01167,-0.80386 0.06709,-1.20067c0.0103,-0.05176 0.0424,-0.11771 0.0124,-0.15832c-0.0578,-0.18779 -0.00519,-0.35726 0.02905,-0.52979c0.05606,-0.1867 -0.03859,-0.38067 0.02094,-0.58461c0.07319,-0.27297 0.03248,-0.54705 0.05044,-0.8292c0.03849,-0.38568 -0.00006,-0.7663 0.0787,-1.16308c0.01371,-0.06901 0.04924,-0.15221 0.02266,-0.21009c-0.04622,-0.15027 0.00295,-0.30244 0.01537,-0.46076c0.0274,-0.13801 0.03636,-0.27906 0.02354,-0.40599c-0.02912,-0.23653 -0.02145,-0.46691 0.02645,-0.70845c0.05349,-0.36533 -0.0035,-0.74907 0.12703,-1.11939c0.00685,-0.0345 -0.00126,-0.08931 0.00558,-0.12384c0.01667,-0.3715 0.01489,-0.74599 0.06843,-1.11133c0.07531,-0.37953 0.00335,-0.78358 0.11551,-1.15698c0.0103,-0.05176 -0.01629,-0.10962 -0.02443,-0.16444c0.00768,-0.23039 0.0372,-0.47498 0.13694,-0.69005c0.09548,-0.00193 0.1691,0.01027 0.24617,0.00531c0.24748,0.09463 0.46153,0.16586 0.69744,0.22293z" fill="#b0eef2"/><path d="M193.29885,195.40612c-0.00982,0.33692 -0.04279,0.5988 -0.16778,0.84533c-0.17469,0.11352 -0.38744,0.13162 -0.60361,0.16693c-1.07072,0.12488 -2.13802,0.2325 -3.21477,0.19601c-0.81217,-0.02816 -1.64275,-0.05934 -2.45618,-0.1768c-0.2209,-0.03675 -0.45683,-0.09379 -0.68802,-0.07881c-0.09548,0.00193 -0.20594,-0.01645 -0.31636,-0.0348c-0.42815,-0.1425 -0.87681,-0.18147 -1.31525,-0.2722c-0.62252,-0.12133 -1.23135,-0.31169 -1.83328,-0.53656c-0.29926,-0.12105 -0.60198,-0.22487 -0.92307,-0.33171c-0.25086,-0.07739 -0.45124,-0.21761 -0.65506,-0.34062c-0.06723,-0.33198 -0.06168,-0.45577 0.0573,-0.86369c0.40156,0.08458 0.76765,0.2524 1.16236,0.37153c0.37632,0.11605 0.77105,0.23516 1.15082,0.33398c0.39814,0.10188 0.81818,0.18954 1.21974,0.27415c0.37973,0.09881 0.79845,0.09712 1.16798,0.2477c0.42215,-0.0189 0.81686,0.10023 1.22532,0.15033c0.39003,0.04706 0.80188,0.07989 1.19535,0.10969c0.41187,0.03286 0.82712,0.04845 1.26084,0.06715c0.39688,0.01255 0.80872,0.04541 1.20905,0.04068c0.4187,-0.00166 0.82584,-0.04085 1.24799,-0.05975c0.44055,-0.01584 0.84083,-0.02055 1.27667,-0.10845z" fill="#d1eaeb"/><path d="M183.94712,202.76126c-0.07706,0.00499 -0.15071,-0.00724 -0.24616,-0.00529c-0.09973,0.2151 -0.14423,0.43934 -0.13694,0.69006c0.00813,0.05481 0.03468,0.1127 0.02442,0.16444c-0.11214,0.37339 -0.05858,0.77442 -0.1155,1.15699c-0.0719,0.36229 -0.05175,0.73987 -0.06845,1.11134c-0.00685,0.0345 0.00129,0.08933 -0.00556,0.12382c-0.13057,0.37035 -0.05177,0.73986 -0.12707,1.1194c-0.04448,0.22427 -0.0556,0.47192 -0.02645,0.70844c0.00942,0.14409 0.00046,0.2852 -0.02352,0.40598c-0.03081,0.15526 -0.0766,0.29021 -0.01536,0.46079c0.02653,0.05786 -0.009,0.14109 -0.0227,0.21009c-0.07531,0.37953 -0.04014,0.77742 -0.07867,1.16308c-0.01798,0.28215 0.02276,0.55623 -0.05045,0.82919c-0.05606,0.1867 0.03857,0.38065 -0.02094,0.58461c-0.05265,0.16945 -0.10871,0.35615 -0.02909,0.5298c0.00813,0.05481 -0.00213,0.10656 -0.01238,0.15831c-0.07875,0.39677 -0.08046,0.78854 -0.0671,1.20066c0.00127,0.08932 -0.03421,0.1725 -0.02952,0.24455c-0.03081,0.15526 -0.08342,0.32473 -0.0222,0.49529c0.01155,0.03757 0.0013,0.08932 -0.00556,0.12381c-0.04448,0.22427 -0.11085,0.46273 -0.0449,0.70538c-0.13055,0.37035 -0.07358,0.75407 -0.10862,1.12245c-0.03507,0.36839 -0.12879,0.74485 -0.06843,1.11132c0.01627,0.10962 -0.02612,0.22734 -0.04663,0.33084c-0.16912,-0.01031 -0.25902,-0.13217 -0.38448,-0.17085c0.05173,-0.73986 0.07822,-1.44832 0.12313,-2.15367c0.04019,-0.77744 0.09534,-1.53456 0.15389,-2.30893c0.04832,-0.72264 0.0782,-1.44832 0.10812,-2.174c0.04575,-0.90127 0.06962,-1.78833 0.11192,-2.67234c0.03804,-0.67089 0.07613,-1.34175 0.09572,-2.01567c0.05469,-1.04234 0.18647,-2.08971 0.20434,-3.13815c0.00898,-0.14106 -0.01887,-0.28826 0.06718,-0.43433c0.1657,0.02753 0.32109,0.10686 0.47996,0.16893c0.08521,0.0498 0.25772,0.04285 0.38792,0.15361z" fill="#87d7dc"/><path d="M183.25157,218.14976c0.39345,0.02979 0.75481,0.12553 1.15166,0.13805c0.45554,0.00449 0.91448,-0.00832 1.39395,-0.12457c-0.19855,1.0006 -0.39368,1.98393 -0.5854,2.95002c-0.24016,0.1561 -0.49318,0.18527 -0.73122,0.2348c-0.45423,0.08485 -0.8845,0.04892 -1.33318,0.00994c-0.01844,-0.00306 -0.05179,-0.02643 -0.0668,-0.04674c0.18622,-0.07594 0.15837,-0.22313 0.14894,-0.36729c-0.02359,-0.36036 -0.02877,-0.71761 0.05813,-1.05958c0.01371,-0.06901 0.02739,-0.13802 0.02265,-0.21007c-0.04542,-0.34617 0.04146,-0.68811 0.05127,-1.0251c0.00089,-0.19589 -0.00864,-0.33998 -0.11009,-0.49946z" fill="#61afb4"/><path d="M184.12631,200.42088c0.62379,0.21067 1.27153,0.30058 1.9056,0.45948c0.29112,0.06625 0.59254,0.08071 0.89396,0.09521c0.55915,0.05737 1.12297,0.18677 1.69581,0.17509c0.22777,0.00225 0.45553,0.0045 0.66831,-0.01357c0.13573,-0.01306 0.26799,-0.00891 0.39689,0.01254c0.00817,0.05479 0.01969,0.09237 0.01283,0.1269c-0.02741,0.138 -0.05475,0.27601 -0.08213,0.41403c-0.10231,0.03646 -0.18281,0.05867 -0.28169,0.0779c-0.7038,0.09679 -1.42607,0.19054 -2.14408,0.07112c-0.62937,-0.08683 -1.27707,-0.17674 -1.89278,-0.33259c-0.49025,-0.11717 -0.98387,-0.21709 -1.42828,-0.46919c0.09889,-0.01922 0.19909,0.05092 0.29324,-0.04034c0.07448,-0.18364 0.17421,-0.39873 -0.03773,-0.57654z" fill="#61aeb3"/><path d="M184.33875,201.6502c0.31982,0.01755 0.59381,0.17006 0.90335,0.23935c0.65935,0.12747 1.31866,0.25498 1.98825,0.33067c0.54071,0.0543 1.07675,0.03649 1.6012,-0.01884c0.13573,-0.01306 0.27141,-0.02615 0.40713,-0.03922c-0.04792,0.24153 -0.08897,0.44857 -0.13351,0.67283c-0.262,0.17027 -0.55528,0.21057 -0.8601,0.21338c-0.36348,0.01086 -0.74534,0.01859 -1.11696,-0.02539c-0.84212,-0.06881 -1.64532,-0.23801 -2.47034,-0.39303c-0.14726,-0.02449 -0.29457,-0.04899 -0.40632,-0.15668c0.01712,-0.08627 0.05262,-0.16946 0.0295,-0.24458c-0.0394,-0.18476 0.02008,-0.38875 0.05773,-0.57847z" fill="#61aeb3"/><path d="M183.25156,218.14976c0.08651,0.13916 0.11432,0.28632 0.0985,0.46191c-0.00982,0.33694 -0.09672,0.67895 -0.05127,1.02508c0.00471,0.07208 -0.00896,0.1411 -0.02267,0.21011c-0.07188,0.3623 -0.0633,0.70229 -0.05813,1.05957c0.01284,0.1269 0.03729,0.29134 -0.14895,0.36729c-0.27957,-0.02869 -0.53046,-0.10603 -0.75266,-0.23209c-0.00732,-0.25073 -0.033,-0.50449 0.05173,-0.73988c0.00685,-0.0345 -0.00128,-0.08932 0.00556,-0.12383c0.01324,-0.3542 0.0299,-0.72569 0.06154,-1.07685c0.0124,-0.15832 0.03981,-0.29633 0.0338,-0.45774c-0.01754,-0.19895 0.0051,-0.40905 0.13481,-0.5835c0.09547,-0.00193 0.1691,0.0103 0.24616,0.00532c0.12885,0.02145 0.27274,0.06317 0.40157,0.08459z" fill="#87d7dc"/><path d="M186.26876,192.11625c0.17302,0.27827 0.21028,0.56955 0.22913,0.85788c0.00472,0.07207 -0.01584,0.17559 -0.04792,0.24153c-0.24655,0.4758 -0.4195,0.96386 -0.574,1.45495c-0.00343,0.01726 -0.02867,0.04868 -0.05051,0.0629c-0.08392,0.03949 -0.17597,0.02423 -0.25773,-0.04284c0.00685,-0.0345 -0.00475,-0.07209 0.00212,-0.10658c0.10061,-0.41094 0.14594,-0.83114 0.09581,-1.24935c-0.01414,-0.2162 0.02352,-0.406 0.15664,-0.59769c0.15497,-0.20588 0.25468,-0.42097 0.44649,-0.62078z" fill="#cce5e6"/><path d="M184.64726,194.53749c-0.12072,0.0334 -0.19093,0.00389 -0.23589,-0.05705c0.12753,-0.8342 0.1275,-0.83419 -0.02326,-1.60774c0.09502,-0.28717 0.28207,-0.55899 0.42892,-0.81969c0.13573,-0.01306 0.13356,0.09349 0.16011,0.15137c0.09121,0.21119 0.18584,0.40516 0.23679,0.6275c0.02785,0.14723 0.02225,0.27104 -0.04192,0.40288c-0.19606,0.41295 -0.3771,0.84614 -0.52478,1.30274z" fill="#cce5e6"/><path d="M182.83159,218.0621c-0.07707,0.00499 -0.15073,-0.00725 -0.24616,-0.00531c-0.12971,0.17446 -0.15237,0.38452 -0.1348,0.58351c0.00602,0.1614 -0.02136,0.2994 -0.0338,0.45775c-0.03165,0.35117 -0.04832,0.72262 -0.06155,1.07684c-0.00685,0.0345 0.0013,0.08934 -0.00557,0.12383c-0.06975,0.25571 -0.04065,0.49222 -0.05176,0.73986c-0.14043,-0.05898 -0.26247,-0.11495 -0.3892,-0.24296c0.04063,-0.49223 0.04785,-1.00787 0.1103,-1.51428c0.04063,-0.49223 0.00763,-0.9967 0.11031,-1.51425c0.29111,0.06625 0.49834,0.17198 0.70216,0.29495z" fill="#60adb2"/><path d="M188.83705,196.99858c0.07706,-0.005 0.13574,-0.01305 0.21278,-0.01807c0.02999,0.04063 0.04493,0.06094 0.05992,0.08123c0.01545,0.30552 0.08954,0.60299 0.18201,0.90348c0.03126,0.12995 0.02914,0.23655 -0.05006,0.34809c-0.13998,0.22621 -0.24653,0.4758 -0.52696,0.64302c-0.17639,-0.26102 -0.25051,-0.55847 -0.30617,-0.85287c-0.00817,-0.05479 0.02743,-0.13801 0.05949,-0.20394c0.11681,-0.30132 0.23371,-0.60273 0.36898,-0.901z" fill="#cce5e6"/><path d="M189.96092,192.67681c0.03942,0.18474 0.07407,0.29747 0.10534,0.42742c0.04753,0.2396 0.02486,0.44965 -0.13351,0.67282c-0.24786,0.38645 -0.44387,0.79943 -0.52947,1.2307c-0.02741,0.13801 -0.04923,0.15218 -0.26673,0.09823c0.01028,-0.05176 0.00211,-0.10657 0.01241,-0.15835c0.104,-0.42822 0.13093,-0.85143 0.10263,-1.28385c0.00216,-0.10658 0.00085,-0.19589 0.05475,-0.27605c0.19862,-0.2343 0.36046,-0.47467 0.65457,-0.71088z" fill="#cae2e3"/><path d="M186.81615,194.91605c-0.01496,-0.0203 -0.02658,-0.05792 -0.02312,-0.07515c0.11554,-0.39063 0.11723,-0.78242 0.0971,-1.16005c-0.00518,-0.35725 0.05987,-0.68507 0.30903,-0.9822c0.12287,-0.13995 0.1789,-0.32666 0.3352,-0.44323c0.22268,0.41126 0.21412,0.83756 0.00995,1.19565c-0.23972,0.44131 -0.4944,0.86227 -0.57528,1.36566c-0.02867,0.0487 -0.04239,0.11769 -0.15284,0.09934z" fill="#c9e1e2"/><path d="M188.66887,192.47975c0.12932,0.30665 0.15503,0.56039 0.17731,0.83141c0.00127,0.08932 -0.01584,0.17557 -0.06635,0.23847c-0.26155,0.4555 -0.48968,0.93434 -0.68102,1.41931c-0.00685,0.0345 -0.0355,0.08318 -0.12415,0.05063c0.02397,-0.12075 0.05135,-0.25875 0.05692,-0.38259c0.05007,-0.34808 0.0817,-0.69924 0.03627,-1.04539c-0.02574,-0.25378 0.03721,-0.47497 0.20716,-0.66055c0.12287,-0.13995 0.24227,-0.26269 0.39383,-0.45133z" fill="#c9e1e2"/><path d="M190.03108,197.01897c0.12761,-0.06787 0.21965,-0.05257 0.31168,-0.03727c0.01497,0.02029 0.02658,0.0579 0.04151,0.07819c-0.01796,0.28215 0.04116,0.5593 0.16235,0.81111c0.06465,0.15331 0.05567,0.29439 -0.03038,0.44048c-0.11127,0.17751 -0.20757,0.37536 -0.35228,0.52953c-0.17168,-0.18894 -0.35627,-0.50478 -0.36569,-0.64893c-0.01972,-0.09236 0.03079,-0.15527 0.06636,-0.23846c0.0398,-0.29632 0.17504,-0.59464 0.16647,-0.93461z" fill="#cae3e4"/><path d="M183.50912,197.11046c0.23885,-0.2454 0.42253,-0.49998 0.59119,-0.7749c0.11727,-0.01613 0.19097,-0.00389 0.27274,0.06316c0.03043,0.32581 -0.07832,0.68197 -0.02947,1.01088c-0.12972,0.17445 -0.29752,0.25347 -0.45376,0.37007c-0.0873,0.05674 -0.15964,0.13381 -0.29195,0.12964c-0.10277,-0.24877 -0.02957,-0.52172 -0.08868,-0.79887z" fill="#c8e0e1"/><path d="M186.61555,196.78954c0.16225,0.0448 0.16697,0.11687 0.17169,0.18894c0.0223,0.27105 0.04799,0.52477 0.05188,0.79274c0.00472,0.07208 -0.00897,0.14108 -0.05948,0.20398c-0.16652,0.16831 -0.35147,0.33358 -0.55137,0.47858c-0.07148,-0.11881 -0.06937,-0.22541 -0.10406,-0.3381c-0.10404,-0.33807 -0.06428,-0.63441 0.2298,-0.87065c0.13787,-0.11965 0.20891,-0.28604 0.26153,-0.4555z" fill="#cbe4e5"/><path d="M185.45572,196.59664c0.09204,0.01528 0.14727,0.02447 0.20251,0.03365c0.01155,0.03757 0.04493,0.06096 0.04152,0.07819c-0.00089,0.19589 -0.02007,0.38874 -0.02092,0.58462c-0.00216,0.10659 -0.03768,0.18977 -0.11003,0.26684c-0.21702,0.23122 -0.44908,0.44212 -0.73633,0.64385c-0.09808,-0.17669 -0.08565,-0.33501 -0.07325,-0.49333c0.01371,-0.06898 0.02742,-0.13802 0.07445,-0.18363c0.29411,-0.23623 0.47304,-0.56289 0.62201,-0.93018z" fill="#c8e0e1"/><path d="M184.33875,201.65018c-0.03767,0.18976 -0.09717,0.39374 -0.04275,0.59883c0.02312,0.07514 -0.01243,0.1583 -0.02952,0.24457c-0.31637,-0.0348 -0.60066,-0.13553 -0.85284,-0.30225c0.08476,-0.2354 0.05904,-0.48914 0.06329,-0.70228c0.14598,-0.06483 0.26459,0.00836 0.38186,-0.00779c0.16912,0.01031 0.3498,0.05819 0.47996,0.16892z" fill="#85d5d9"/><path d="M191.19229,193.75486c-0.14341,0.24347 -0.28677,0.48694 -0.41522,0.7507c-0.10317,0.23234 -0.01066,0.53285 -0.33818,0.74568c0.11638,-0.58653 0.09024,-1.12554 0.06408,-1.66451c0.12972,-0.17445 0.28123,-0.36311 0.49617,-0.48774c0.02999,0.04063 0.04495,0.06095 0.05993,0.08123c0.05781,0.1878 0.09723,0.3726 0.1332,0.57457z" fill="#c6dede"/><path d="M186.09317,191.65933c-0.18708,0.27187 -0.34885,0.51223 -0.53593,0.7841c-0.12672,-0.12801 -0.15459,-0.27521 -0.22609,-0.39401c-0.06811,-0.13604 -0.17641,-0.26104 -0.20082,-0.42546c0.02397,-0.12075 0.11814,-0.21203 0.19388,-0.30634c0.07575,-0.09433 0.16997,-0.18557 0.28255,-0.2738c0.23719,0.14638 0.34336,0.3779 0.4864,0.61555z" fill="#cae3e3"/><path d="M183.4622,194.37604c-0.02618,-0.53899 -0.06946,-0.99171 -0.22663,-1.44552c0.11817,-0.21204 0.21789,-0.4271 0.33946,-0.65638c0.21195,0.17781 0.26292,0.40014 0.3541,0.61131c0.01155,0.03757 0.00128,0.08934 -0.00558,0.12382c-0.14082,0.42209 -0.28162,0.84422 -0.46137,1.36674z" fill="#cae3e4"/><path d="M187.44328,198.65579c-0.12932,-0.30664 -0.22527,-0.58991 0.00891,-0.90737c0.15839,-0.22316 0.22816,-0.47888 0.29791,-0.73458c0.02054,-0.10353 0.11599,-0.10547 0.21963,-0.0526c-0.09157,0.26989 -0.0509,0.544 -0.01019,0.81809c0.03599,0.202 -0.03163,0.35115 -0.1545,0.49111c-0.10103,0.12575 -0.16869,0.2749 -0.36177,0.38536z" fill="#c8e0e1"/><path d="M184.12631,200.42086c0.20852,0.19507 0.11218,0.39287 0.0527,0.59685c-0.09416,0.09124 -0.19777,0.0384 -0.29322,0.04035c-0.23588,-0.05706 -0.44311,-0.16282 -0.64352,-0.30308c0.05606,-0.1867 0.0201,-0.38871 0.14636,-0.54592c0.09548,-0.00193 0.15072,0.00725 0.22434,0.01948c0.17727,0.06512 0.3545,0.1302 0.51334,0.19229z" fill="#85d4d9"/><path d="M185.69608,197.97315c0.0591,0.27714 0.08825,0.51365 0.1358,0.75324c-0.20335,0.1622 -0.42165,0.30412 -0.65159,0.40843c-0.12204,-0.05593 -0.13829,-0.16557 -0.17983,-0.24374c-0.04153,-0.07819 -0.08306,-0.15637 -0.04067,-0.27407c0.18839,-0.1825 0.43878,-0.39035 0.73632,-0.64385z" fill="#c7dfe0"/><path d="M188.41858,199.29919c-0.16313,0.15109 -0.3078,0.3052 -0.52271,0.42988c-0.19012,-0.192 -0.24107,-0.41431 -0.32543,-0.66002c0.16995,-0.18558 0.33988,-0.37119 0.51328,-0.57403c0.13616,0.27214 0.22053,0.5179 0.33485,0.80418z" fill="#c8e0e1"/><path d="M187.08642,191.25421c0.11989,0.16254 0.23975,0.32502 0.29416,0.5301c-0.15839,0.22316 -0.33519,0.44324 -0.5154,0.68056c-0.03679,-0.00613 -0.07362,-0.01225 -0.07019,-0.02951c-0.07965,-0.17364 -0.15585,-0.3645 -0.2171,-0.53508c-0.02312,-0.07515 -0.02787,-0.14722 0.01922,-0.19283c0.15155,-0.18864 0.24786,-0.38647 0.48933,-0.45328z" fill="#c4dcdd"/><path d="M189.79696,192.25749c-0.19178,0.19977 -0.36516,0.4026 -0.55696,0.6024c-0.13698,-0.07626 -0.10959,-0.21425 -0.14429,-0.32696c-0.03468,-0.11268 -0.04755,-0.23959 -0.07882,-0.36952c0.13313,-0.1917 0.34464,-0.29904 0.52617,-0.44712c0.17851,0.15442 0.21793,0.33921 0.25389,0.54121z" fill="#c8e0e1"/><path d="M188.95106,199.29865c0.17682,-0.22008 0.33179,-0.42601 0.51201,-0.66333c0.15672,0.16861 0.21108,0.37372 0.3494,0.53929c-0.1216,0.22926 -0.33649,0.35393 -0.52485,0.53642c-0.16355,-0.13412 -0.29371,-0.24487 -0.33651,-0.41238z" fill="#c6ddde"/><path d="M191.22724,196.93278c0.12591,0.32391 0.15293,0.66698 0.34088,0.96555c-0.0963,0.19784 -0.1708,0.3815 -0.33732,0.54982c-0.19693,-0.1575 -0.29503,-0.33421 -0.20685,-0.58684c0.11684,-0.30132 0.14165,-0.61799 0.20327,-0.92854z" fill="#b9cfd0"/><path d="M182.47921,193.96305c-0.10017,-0.07013 -0.02788,-0.14722 -0.03257,-0.21925c-0.006,-0.16139 0.00638,-0.31968 -0.08354,-0.44161c-0.10961,-0.21427 -0.05359,-0.40095 0.02435,-0.60186c0.03555,-0.0832 0.08945,-0.16334 0.15025,-0.27797c0.2017,0.22956 0.35153,0.43272 0.21286,0.74823c-0.09972,0.2151 -0.12927,0.45968 -0.19218,0.68088c-0.0103,0.05175 -0.02054,0.10352 -0.07919,0.11158z" fill="#c0d8d8"/><path d="M182.58018,197.38365c-0.06124,-0.17059 -0.07066,-0.3147 -0.04329,-0.4527c0.01371,-0.06898 0.03078,-0.15529 0.07788,-0.2009c0.21021,-0.19671 0.36857,-0.41986 0.52698,-0.64302c0.12885,0.02146 0.09675,0.08737 0.0865,0.13916c-0.03424,0.17252 -0.07188,0.3623 -0.0693,0.54093c-0.00769,0.23039 -0.09373,0.37647 -0.3018,0.46664c-0.10232,0.03645 -0.16782,0.07902 -0.27695,0.14995z" fill="#c1d9d9"/><path d="M187.09519,198.97216c-0.14809,0.17137 -0.32281,0.2849 -0.5043,0.43292c-0.18196,-0.13718 -0.19949,-0.33612 -0.27918,-0.50978c0.17337,-0.20285 0.40667,-0.32443 0.62844,-0.48357c0.09462,0.19396 0.11562,0.37568 0.15505,0.56044z" fill="#c3dbdc"/><path d="M188.03862,192.5888c-0.06256,-0.2599 -0.11007,-0.49951 -0.17602,-0.74214c0.10443,-0.14305 0.20548,-0.26877 0.3917,-0.34475c0.1383,0.16559 0.1961,0.35339 0.27237,0.54429c-0.11817,0.21203 -0.26623,0.3834 -0.48799,0.54256z" fill="#c3dadb"/><path d="M185.29928,199.49323c0.21493,-0.12465 0.40798,-0.23509 0.60104,-0.34555c0.16013,0.15137 0.21794,0.3392 0.27575,0.52701c-0.15967,0.13384 -0.3309,0.23011 -0.53552,0.30296c-0.04838,-0.0437 -0.11174,-0.10771 -0.14171,-0.1483c-0.0715,-0.11881 -0.10961,-0.21424 -0.19953,-0.33616z" fill="#c4dbdc"/><path d="M182.30388,195.80509c-0.06506,0.32781 -0.11642,0.58659 -0.17114,0.86259c-0.11602,0.10547 -0.24362,0.17333 -0.41953,0.19751c-0.09331,-0.10463 -0.03255,-0.21927 -0.04881,-0.3289c-0.01628,-0.10961 -0.01414,-0.2162 0.00295,-0.30247c0.21836,-0.14194 0.39301,-0.25545 0.63659,-0.42876z" fill="#c2d9da"/><path d="M185.91119,190.75581c0.10103,-0.12575 0.21358,-0.21399 0.33776,-0.26461c0.15069,0.00725 0.2038,0.12305 0.28556,0.19007c0.08176,0.06702 0.1888,0.10267 0.22006,0.23261c-0.07105,0.1664 -0.23073,0.30022 -0.39725,0.4686c-0.07496,-0.10159 -0.14989,-0.20315 -0.22822,-0.28747c-0.07148,-0.11881 -0.14302,-0.23762 -0.21796,-0.33921z" fill="#c5ddde"/><path d="M187.54313,199.97335c-0.1263,0.15723 -0.28384,0.18449 -0.41482,0.26962c-0.18537,-0.11996 -0.28345,-0.29665 -0.39652,-0.49364c0.15624,-0.11659 0.31253,-0.23316 0.45039,-0.35281c0.19692,0.15751 0.24793,0.37985 0.36095,0.57684z" fill="#c3dbdc"/><path d="M184.16072,192.38938c-0.0634,-0.064 -0.09336,-0.10459 -0.12334,-0.1452c-0.05651,-0.09849 -0.10962,-0.21427 -0.18112,-0.33309c0.17682,-0.22008 0.29836,-0.44937 0.53853,-0.60546c0.12204,0.05593 0.16015,0.15137 0.20981,0.28439c-0.12499,0.24653 -0.27525,0.52448 -0.44387,0.79941z" fill="#c7dfe0"/><path d="M184.44422,198.53127c-0.21147,0.10739 -0.35617,0.26151 -0.57579,0.3141c-0.14514,-0.13109 -0.12591,-0.32388 -0.23423,-0.44882c0.21022,-0.19671 0.42166,-0.30413 0.64001,-0.44602c0.1533,0.1859 0.11562,0.37564 0.17005,0.58073z" fill="#c7dee0"/><path d="M183.86232,201.46402c-0.11728,0.01614 -0.23588,-0.05708 -0.38187,0.00779c-0.00769,0.23039 -0.00041,0.48108 -0.0633,0.70229c-0.07023,-0.0295 -0.15884,-0.06207 -0.22563,-0.10878c-0.10017,-0.07013 -0.15668,-0.16863 -0.13275,-0.28942c0.02266,-0.21006 0.04189,-0.40288 0.0646,-0.61299c0.23934,0.0398 0.34637,0.07543 0.73897,0.30112z" fill="#61acb1"/><path d="M190.95586,192.64626c-0.16313,0.15109 -0.30093,0.27069 -0.48247,0.41874c-0.06595,-0.24263 -0.13533,-0.468 -0.18288,-0.70759c0.1194,-0.12271 0.23546,-0.22815 0.38486,-0.31024c0.15329,0.18589 0.21109,0.37369 0.28047,0.59908z" fill="#c2dada"/><path d="M182.59688,197.7785c0.16313,-0.15109 0.33092,-0.2301 0.52403,-0.34054c0.02573,0.25378 0.05827,0.47305 0.09082,0.69233c-0.10443,0.14304 -0.2436,0.17334 -0.40798,0.23509c-0.14172,-0.1483 -0.15931,-0.3473 -0.20685,-0.58684z" fill="#c1d9d9"/><path d="M188.88625,191.76742c-0.13144,-0.20009 -0.21451,-0.35645 -0.31599,-0.51593c0.08946,-0.16333 0.26071,-0.2596 0.43197,-0.35586c0.14854,0.11382 0.27528,0.24182 0.35152,0.43271c-0.09631,0.19783 -0.29756,0.25347 -0.46748,0.43908z" fill="#c6dedf"/><path d="M188.94991,199.97565c-0.15966,0.13383 -0.33436,0.24735 -0.49059,0.36394c-0.16225,-0.0448 -0.25902,-0.13217 -0.34554,-0.27133c0.11817,-0.21203 0.34464,-0.29905 0.51116,-0.46743c0.15202,0.09655 0.22006,0.23262 0.32498,0.37482z" fill="#c0d7d7"/><path d="M183.37558,191.93798c-0.11128,0.17751 -0.1708,0.38147 -0.3707,0.52646c-0.08651,-0.13916 -0.17641,-0.26106 -0.26633,-0.38291c0.0411,-0.20699 0.16737,-0.3642 0.34203,-0.47771c0.13699,0.07626 0.21191,0.1778 0.29501,0.33416z" fill="#c3dadb"/><path d="M183.63136,200.23162c-0.07365,-0.01225 -0.15072,-0.00723 -0.22438,-0.01946c-0.1263,0.15724 -0.09033,0.3592 -0.14636,0.54592c-0.13228,-0.00419 -0.18539,-0.11996 -0.31083,-0.15862c-0.02913,-0.23652 0.06715,-0.43436 -0.0172,-0.68005c0.18751,0.01339 0.28768,0.08348 0.40633,0.15668c0.08522,0.04979 0.22093,0.03677 0.29241,0.15556z" fill="#5aa0a4"/><path d="M192.09829,198.48545c-0.11128,0.1775 -0.17081,0.38151 -0.34888,0.51227c-0.12204,-0.05593 -0.18198,-0.13722 -0.27191,-0.25906c0.07449,-0.18366 0.18577,-0.36117 0.32703,-0.49808c0.12204,0.05594 0.18539,0.11995 0.2937,0.24488z" fill="#bdd3d4"/><path d="M185.94925,200.24285c0.14943,-0.08208 0.28042,-0.1672 0.41139,-0.25234c0.14856,0.11383 0.23507,0.25296 0.31814,0.40932c-0.08262,0.1288 -0.21836,0.14194 -0.3472,0.12049c-0.16569,-0.02752 -0.33135,-0.05508 -0.38234,-0.27744z" fill="#bdd4d5"/><path d="M192.05413,193.916c-0.13313,0.19169 -0.26285,0.36618 -0.39595,0.55787c-0.11221,-0.39287 -0.13918,-0.73597 0.2872,-0.96801c0.09331,0.10463 0.08434,0.24571 0.10876,0.41013z" fill="#bbd2d3"/><path d="M184.31591,199.56136c-0.13356,-0.09351 -0.18668,-0.20928 -0.23975,-0.32504c0.02397,-0.12075 0.12288,-0.13996 0.21022,-0.1967c0.06549,-0.04256 0.1344,-0.10237 0.2483,-0.10124c0.13356,0.09351 0.09936,0.26599 0.22952,0.37675c-0.14126,0.13691 -0.28723,0.20174 -0.44819,0.24626z" fill="#c3dadb"/><path d="M187.25323,194.91744c0.09848,-0.30439 0.19688,-0.6088 0.36898,-0.90096c0.10701,0.03563 0.10836,0.12496 0.09119,0.2112c-0.02611,0.22733 -0.07058,0.45156 -0.11167,0.65859c-0.03081,0.15526 -0.14813,0.17142 -0.34848,0.03115z" fill="#b1c6c7"/><path d="M189.99239,200.18465c0.06417,-0.13188 0.18493,-0.16528 0.27568,-0.23928c0.16312,-0.1511 0.33222,-0.14079 0.53605,-0.01777c-0.15839,0.22315 -0.41014,0.34166 -0.62159,0.44906c-0.12545,-0.03868 -0.17385,-0.08237 -0.19012,-0.192z" fill="#bbd2d3"/><path d="M189.75435,195.1552c-0.0086,-0.34004 0.17846,-0.61185 0.35054,-0.90404c0.06255,0.2599 0.01115,0.51867 -0.01834,0.76324c-0.0124,0.15833 -0.07448,0.18368 -0.3322,0.14078z" fill="#bad1d2"/><path d="M192.15167,197.35384c0.10147,0.15945 0.20979,0.2844 0.31127,0.44381c-0.03553,0.0832 -0.11472,0.19478 -0.17551,0.30941c-0.31427,-0.14137 -0.31084,-0.15862 -0.24793,-0.37985c0.02398,-0.12075 0.06636,-0.23847 0.11214,-0.3734z" fill="#b5cbcc"/><path d="M188.3215,190.30129c0.17381,0.08238 0.2672,0.18699 0.36051,0.29162c-0.08604,0.14609 -0.24703,0.19057 -0.39641,0.27267c-0.11178,-0.10766 -0.20505,-0.21231 -0.31682,-0.32c0.04922,-0.15219 0.22173,-0.15917 0.35276,-0.2443z" fill="#c0d7d8"/><path d="M190.75815,198.52995c0.10358,0.05289 0.16015,0.15136 0.21326,0.26713c-0.09975,0.21508 -0.26625,0.38343 -0.46276,0.51112c-0.13228,-0.00419 -0.15884,-0.06206 -0.17851,-0.15442c0.13651,-0.20897 0.2731,-0.41794 0.42807,-0.62382z" fill="#bdd4d4"/><path d="M191.23503,192.38974c-0.07965,-0.17364 -0.13746,-0.36144 -0.21711,-0.53509c0.09077,-0.074 0.18966,-0.09321 0.30011,-0.07486c0.10358,0.05288 0.12332,0.14523 0.16142,0.24066c0.02312,0.07515 0.04625,0.15025 0.06938,0.2254c-0.07577,0.09435 -0.16311,0.1511 -0.31383,0.14385z" fill="#b6cccc"/><path d="M187.67682,191.44154c-0.10146,-0.15945 -0.18796,-0.29857 -0.30787,-0.4611c0.03893,-0.10044 0.11471,-0.1948 0.29069,-0.219c0.11179,0.10766 0.22008,0.23261 0.3468,0.36061c-0.10103,0.12575 -0.18021,0.23736 -0.32964,0.31943z" fill="#c1d9d9"/><path d="M191.86518,193.04698c-0.10103,0.12575 -0.1952,0.21705 -0.34119,0.28185c-0.10147,-0.15945 -0.10404,-0.33811 -0.13189,-0.48529c0.06417,-0.13188 0.1815,-0.14802 0.28381,-0.18447c0.0518,0.02644 0.08862,0.03257 0.08522,0.04979c0.03465,0.11269 0.06936,0.22538 0.10404,0.33811z" fill="#b7cdce"/><path d="M192.54659,194.69292c-0.1096,-0.21428 -0.07882,-0.36953 -0.08483,-0.53092c-0.02101,-0.18171 0.10316,-0.23234 0.24912,-0.29717c0.10147,0.15945 0.10748,0.32083 0.15373,0.4711c-0.07106,0.16639 -0.26543,0.18754 -0.31806,0.35699z" fill="#b6cccc"/><path d="M191.51514,199.31519c-0.11942,0.12271 -0.21359,0.21396 -0.3112,0.32248c-0.16912,-0.01031 -0.27957,-0.02869 -0.39131,-0.13636c0.14127,-0.1369 0.26413,-0.27686 0.38354,-0.39956c0.17594,-0.02423 0.22902,0.09157 0.33608,0.12716c-0.00685,0.0345 0.00473,0.07209 -0.01709,0.08628z" fill="#c2dada"/><path d="M187.30256,190.45259c-0.0792,0.11155 -0.14468,0.15414 -0.24359,0.17336c-0.1139,-0.00113 -0.17381,-0.08237 -0.25561,-0.14942c-0.06339,-0.064 -0.18881,-0.10268 -0.18326,-0.22651c0.11259,-0.08818 0.24015,-0.15607 0.41271,-0.16303c0.10834,0.12494 0.17984,0.24377 0.26977,0.36566z" fill="#bbd2d3"/><path d="M182.90091,198.73791c0.14598,-0.06482 0.25173,-0.11853 0.37587,-0.16917c0.10493,0.1422 0.15114,0.29246 0.21582,0.44581c-0.09416,0.09125 -0.19993,0.14499 -0.32878,0.1235c-0.03342,-0.02337 -0.06677,-0.04676 -0.07837,-0.08433c-0.05993,-0.08123 -0.11646,-0.17979 -0.18455,-0.31584z" fill="#bbd2d3"/><path d="M192.65209,197.41923c-0.18327,-0.22652 -0.18328,-0.22652 -0.21709,-0.53508c0.11944,-0.12271 0.27014,-0.11545 0.44608,-0.13963c0.00731,0.25073 -0.12924,0.45967 -0.22898,0.67475z" fill="#adc2c3"/><path d="M184.58097,199.85494c0.09416,-0.09125 0.21837,-0.1419 0.35062,-0.1377c0.10493,0.1422 0.19485,0.26402 0.28128,0.40318c-0.3472,0.12048 -0.3656,0.11744 -0.63195,-0.26545z" fill="#b5cbcc"/><path d="M190.50115,191.67961c-0.11601,0.10548 -0.20679,0.17945 -0.35277,0.24427c-0.13013,-0.11073 -0.15456,-0.27521 -0.23764,-0.4316c0.0471,-0.04563 0.09074,-0.07398 0.1344,-0.10239c0.04367,-0.02839 0.10231,-0.03646 0.1644,-0.06178c0.15542,0.07931 0.2269,0.19811 0.2916,0.35146z" fill="#bbd1d2"/><path d="M181.95724,197.7434c-0.16013,-0.15138 -0.13746,-0.36145 -0.20214,-0.51476c0.09761,-0.10849 0.22991,-0.10436 0.35409,-0.15498c0.09122,0.21118 0.09378,0.38984 0.00089,0.57041c-0.01029,0.05175 -0.09075,0.07401 -0.15282,0.09933z" fill="#b6cccd"/><path d="M184.1516,190.99779c-0.17337,0.20285 -0.36175,0.38535 -0.53168,0.57093c-0.12545,-0.03869 -0.1888,-0.10266 -0.23848,-0.23567c0.22173,-0.15917 0.44349,-0.3183 0.7102,-0.41652c0.02999,0.04065 0.04495,0.06095 0.05994,0.08123z" fill="#acc1c2"/><path d="M188.84191,194.29063c0.01073,0.23346 0.00304,0.46386 -0.0783,0.68198c-0.03555,0.0832 -0.10444,0.14302 -0.19648,0.12772c-0.03678,-0.00613 -0.10359,-0.05289 -0.10018,-0.07014c0.03294,-0.26183 0.21315,-0.49917 0.37495,-0.73957z" fill="#a7bbbb"/><path d="M190.01341,190.97473c-0.05737,0.0974 -0.15967,0.13384 -0.28039,0.16721c-0.10834,-0.12494 -0.21665,-0.24989 -0.32498,-0.37483c0.10103,-0.12575 0.21491,-0.12463 0.34376,-0.1032c0.10017,0.07013 0.19012,0.19199 0.26161,0.31084z" fill="#b7cdcd"/><path d="M187.32442,200.59633c0.1263,-0.15724 0.27228,-0.22201 0.43666,-0.28381c0.13699,0.07626 0.23377,0.16363 0.27659,0.33114c-0.24145,0.06676 -0.45896,0.01276 -0.71326,-0.04732z" fill="#b7cece"/><path d="M181.23444,196.0193c-0.08779,-0.22845 0.03036,-0.44046 -0.02748,-0.62828c0.09416,-0.09124 0.16439,-0.06175 0.19096,-0.00387c0.06467,0.15331 0.1075,0.32085 0.07324,0.49334c-0.02868,0.0487 -0.03212,0.06593 -0.23674,0.13884z" fill="#b4cacb"/><path d="M184.86398,191.24105c-0.10017,-0.07011 -0.14515,-0.13106 -0.16487,-0.22342c0.16312,-0.1511 0.32964,-0.31942 0.61476,-0.41457c-0.0398,0.29632 -0.23972,0.44128 -0.4499,0.63801z" fill="#b2c8c9"/><path d="M183.65188,199.36182c0.11178,0.10766 0.19011,0.192 0.20638,0.30163c-0.0321,0.06594 -0.09076,0.07404 -0.14943,0.08209c-0.23459,0.03226 -0.30269,-0.10383 -0.36049,-0.29162c0.09889,-0.01922 0.20122,-0.05566 0.30353,-0.0921z" fill="#b5cbcb"/><path d="M191.02205,195.18784c0.0261,-0.22733 0.06374,-0.41707 0.16005,-0.61489c0.09547,-0.00192 0.12202,0.05593 0.11176,0.10767c-0.00557,0.12384 0.0073,0.25074 0.00174,0.37454c-0.02741,0.13801 -0.10787,0.16024 -0.27354,0.13267z" fill="#91a3a3"/><path d="M184.09488,193.67936c0.08779,0.22845 0.02487,0.44966 -0.01622,0.65667c-0.00685,0.0345 -0.05052,0.0629 -0.09076,0.074c-0.03679,-0.00613 -0.08521,-0.04979 -0.08179,-0.06707c-0.00731,-0.25073 0.07402,-0.46886 0.18875,-0.66363z" fill="#99abac"/><path d="M183.09488,194.11894c-0.14256,0.04758 -0.2346,0.03225 -0.25431,-0.06013c-0.01284,-0.1269 0.05821,-0.29326 0.17634,-0.50529c0.09466,0.19396 0.05699,0.38369 0.07797,0.56539z" fill="#93a5a6"/><path d="M189.15122,200.68629c0.18495,-0.16525 0.35488,-0.35086 0.65888,-0.15775c-0.18839,0.18249 -0.42768,0.14271 -0.65888,0.15775z" fill="#9aadad"/><path d="M189.51649,197.50364c-0.02785,-0.14722 -0.05226,-0.31163 -0.08351,-0.44161c0.07236,-0.07707 0.131,-0.08515 0.23804,-0.0495c0.06126,0.1706 -0.04662,0.33086 -0.05901,0.48918c-0.03679,-0.00613 -0.05523,-0.0092 -0.09549,0.00194z" fill="#c5dddd"/><path d="M186.41922,194.13717c0.12118,0.25182 0.07665,0.47612 -0.04146,0.68813c-0.00343,0.01726 -0.04368,0.0284 -0.0805,0.02227c-0.05866,0.00806 -0.08521,-0.04979 -0.07835,-0.08431c0.01921,-0.19282 0.11556,-0.39068 0.20031,-0.62609z" fill="#aec2c3"/><path d="M182.22912,198.00246c0.10147,0.15945 0.12248,0.34113 0.14688,0.50561c-0.07234,0.07708 -0.14258,0.04757 -0.16571,-0.02754c-0.04968,-0.13303 -0.10275,-0.24877 -0.13058,-0.39597c-0.02999,-0.04065 0.03551,-0.08318 0.14941,-0.08207z" fill="#9caeaf"/><path d="M189.10965,190.45019c-0.15543,-0.07932 -0.25216,-0.16667 -0.3605,-0.29163c0.25302,-0.02921 0.44525,0.05622 0.66616,0.09297c-0.02869,0.04872 -0.03555,0.0832 -0.05737,0.09736c-0.08392,0.03949 -0.16437,0.06176 -0.24827,0.10128z" fill="#a9bebf"/><path d="M184.79297,196.48638c0.13573,-0.01306 0.2059,0.01642 0.26931,0.08046c-0.01585,0.17557 -0.10188,0.32163 -0.32022,0.46356c0.00426,-0.21316 0.03509,-0.36841 0.05089,-0.54399z" fill="#b9cfd0"/><path d="M190.6591,197.01647c0.07235,-0.07706 0.14943,-0.08205 0.22647,-0.08708c0.0852,0.04982 0.0681,0.13604 -0.06932,0.54092c-0.20038,-0.14025 -0.1075,-0.32084 -0.15716,-0.45385z" fill="#869797"/><path d="M185.30778,193.98799c-0.11001,0.26684 0.00775,0.53594 -0.29106,0.70007c-0.0223,-0.27104 0.03717,-0.47497 0.29106,-0.70007z" fill="#93a4a5"/><path d="M192.14712,194.5017c-0.05135,0.25875 -0.0856,0.43129 -0.11983,0.6038c-0.00685,0.0345 -0.05052,0.0629 -0.10573,0.05368c-0.01844,-0.00306 -0.05181,-0.02645 -0.0668,-0.04675c0.00423,-0.21313 0.04191,-0.40296 0.29234,-0.61075z" fill="#94a5a6"/><path d="M191.5942,196.9047c0.12417,-0.05061 0.18278,-0.05871 0.26115,0.0256c-0.00898,0.14106 -0.02137,0.29941 -0.11085,0.46274c-0.16011,-0.15141 -0.12588,-0.32388 -0.15032,-0.48831z" fill="#abbfc0"/><path d="M192.59997,193.56123c-0.09889,0.01921 -0.13913,0.03032 -0.17598,0.0242c-0.15459,-0.2752 -0.15456,-0.27517 -0.0514,-0.5075c0.16355,0.13412 0.12935,0.30662 0.22735,0.48331z" fill="#acc0c1"/><path d="M189.55491,199.89801c0.13787,-0.11965 0.2607,-0.2596 0.41696,-0.37618c0.06549,-0.04256 0.13914,-0.03029 0.17381,0.08237c-0.16313,0.15109 -0.32278,0.28491 -0.59077,0.29379z" fill="#9fb2b2"/><path d="M190.82181,191.50122c-0.07837,-0.08435 -0.1233,-0.14528 -0.14301,-0.23762c0.05051,-0.06291 0.11258,-0.08822 0.20806,-0.09016c0.10702,0.03564 0.16353,0.13413 0.22006,0.23264c-0.05737,0.0974 -0.17124,0.09626 -0.28509,0.09512z" fill="#aec2c3"/><path d="M187.26164,197.2712c-0.13013,-0.11072 -0.10619,-0.23153 -0.10065,-0.35534c0.0103,-0.05175 0.07233,-0.07705 0.12757,-0.06787c0.03679,0.00613 0.08523,0.04981 0.07836,0.08431c0.03468,0.11268 -0.02268,0.21011 -0.1053,0.3389z" fill="#91a2a3"/><path d="M187.89888,190.03496c-0.26072,0.2596 -0.28252,0.27383 -0.47393,-0.00751c0.15412,-0.00999 0.30011,-0.07484 0.47393,0.00751z" fill="#869696"/><path d="M182.06736,193.93019c-0.13829,-0.16559 -0.06254,-0.25987 -0.02016,-0.37761c0.14855,0.11383 0.14855,0.11383 0.02016,0.37761z" fill="#555f5f"/><path d="M188.47699,196.99217c-0.01711,0.08627 -0.04108,0.20699 -0.12027,0.3186c-0.13487,-0.18283 -0.12117,-0.25182 -0.02361,-0.36033c0.02526,-0.03145 0.08051,-0.02227 0.14385,0.04176z" fill="#93a5a6"/><path d="M192.89289,194.76833c0.14302,0.23763 0.11779,0.26909 -0.18708,0.27183c-0.01284,-0.12691 0.07787,-0.20091 0.18708,-0.27183z" fill="#8b9b9c"/><path d="M181.80061,193.26212c0.02099,0.18171 -0.02481,0.31662 -0.07063,0.45161c-0.12072,0.0334 -0.16911,-0.01032 -0.1554,-0.07933c0.02739,-0.13801 0.07319,-0.27296 0.22599,-0.37228z" fill="#9aacad"/><path d="M192.12553,192.50216c0.09331,0.10463 0.19352,0.17477 0.14774,0.30972c-0.00344,0.01726 -0.02525,0.03146 -0.04366,0.0284c-0.15885,-0.06207 -0.17513,-0.17172 -0.10406,-0.3381z" fill="#5f6a6b"/><path d="M186.05555,196.92807c-0.04153,-0.07819 -0.02785,-0.14723 0.00428,-0.21316c0.02526,-0.03145 0.06892,-0.05982 0.10232,-0.03643c0.03342,0.02337 0.06339,0.064 0.0565,0.09851c-0.01371,0.06898 -0.0458,0.13493 -0.16311,0.15107z" fill="#636e6f"/><path d="M190.28235,190.76998c0.13914,-0.0303 0.22776,0.00222 0.27402,0.15248c-0.16096,0.0445 -0.22435,-0.01946 -0.27402,-0.15248z" fill="#4a5354"/></g><g data-paper-data="{&quot;index&quot;:null}" fill="#000000" stroke="#000000" stroke-width="1.2"><path d="M173.36885,214.41009c-0.09809,-1.88411 2.09719,-4.41655 2.8261,-6.61401c0.78479,-2.36588 0.10881,-4.2224 1.37087,-5.26635c0.88154,-0.72918 2.42163,-0.41587 3.19767,-0.14663c1.88708,0.65468 2.3363,4.44301 1.00336,8.46144c-1.33292,4.01843 -3.94326,6.7453 -5.83031,6.09061c-0.85512,-0.29667 -2.48638,-0.96375 -2.56768,-2.52504z"/><path d="M175.98683,217.6249c-0.11341,-2.62833 2.69133,-7.97566 2.69133,-7.97566c0,0 0.15351,-3.96872 0.18243,-4.05111c1.84194,-5.25121 5.12922,-4.17593 8.84505,-2.88678c1.76849,0.61354 4.24465,2.29034 4.66269,4.27938c0.47411,2.2558 -0.93358,4.69032 -1.91223,7.64067c-1.84156,5.55178 -5.64518,9.49414 -9.41931,8.18476c-1.66136,-0.57638 -4.89846,-1.68084 -5.04994,-5.19127z"/></g></g><path d="M153.02952,215.32875c0,0 3.45565,-5.9968 3.02069,-7.83613c-0.10639,-0.44988 -2.99502,7.05965 -3.46547,6.63c-2.24345,-2.04885 -7.71433,-3.72995 -7.71433,-3.72995c0,0 5.25961,-6.51569 8.93143,-9.34236c1.01383,-0.78048 3.54388,-0.16344 3.82661,-0.40173c0.36514,-0.30776 9.21566,0.27728 9.55399,0.46133c4.04714,2.20166 7.47953,7.27282 7.47953,7.27282c0,0 -2.33083,2.74275 -2.37176,5.93626c-0.00029,0.02269 -2.17849,-5.08627 -2.18304,-4.73052c-0.02732,2.13126 0.61698,5.73948 0.61698,5.73948c0,0 -5.32899,1.19664 -7.98134,1.24445c-2.92395,0.0527 -9.71329,-1.24363 -9.71329,-1.24363z" fill="#676370" fill-rule="nonzero" stroke="#36343b" stroke-width="2.5" stroke-linecap="butt" stroke-linejoin="miter"/><path d="M150.01907,203.72625c0,0 -5.79461,0.54134 -7.13395,0.52177c-0.58498,-0.00854 -1.00847,-0.42849 -0.97273,-0.90567c0.03807,-0.50818 0.55576,-1.07527 0.55576,-1.07527" fill="none" fill-rule="nonzero" stroke="#36343b" stroke-width="1" stroke-linecap="round" stroke-linejoin="miter"/><path d="M144.46764,202.46054l0.12917,-0.08885c0.08689,-0.03636 0.1738,-0.07272 0.26069,-0.10908c1.14358,-0.18658 6.4952,-1.88845 4.75168,0.49611c-0.97944,0.21025 -5.60648,0.89376 -5.44409,-0.12899c0,0 0.07138,-0.23725 0.30256,-0.1692z" fill="#000000" fill-rule="nonzero" stroke="none" stroke-width="0.5" stroke-linecap="butt" stroke-linejoin="miter"/><path d="M151.99336,200.93655c0,0 -2.07289,2.01048 -2.52231,2.38243c-0.24358,0.20158 -3.30698,0.30715 -3.73031,0.33547c-1.86939,0.12505 -3.34897,0.31757 -3.34897,-0.09273c0,-0.13931 -0.01491,-0.77876 0.44885,-1.0356c1.21138,-0.67089 4.05477,-1.31674 5.8118,-1.48806c2.40541,-0.23455 3.34093,-0.10149 3.34093,-0.10149z" fill="url(#color-1)" fill-rule="nonzero" stroke="#737373" stroke-width="0" stroke-linecap="butt" stroke-linejoin="miter"/><g stroke-linejoin="miter"><path d="M137.1227,166.94604c3.37096,0.22207 6.02277,1.63179 5.92297,3.1487c-0.09978,1.51691 -2.91337,2.56657 -6.28434,2.34451c-3.37096,-0.22207 -6.02279,-1.63179 -5.92299,-3.1487c0.09978,-1.51691 2.91339,-2.56656 6.28435,-2.34449z" fill="#000000" fill-rule="nonzero" stroke="#454545" stroke-width="3" stroke-linecap="butt"/><path d="M139.29521,161.26079c2.95268,1.80838 4.66841,4.42809 3.83219,5.85132c-0.83623,1.42322 -3.90774,1.11097 -6.86042,-0.69741c-2.95268,-1.80838 -4.6684,-4.42809 -3.83219,-5.85132c0.83623,-1.42322 3.90773,-1.11098 6.86041,0.6974z" fill="#000000" fill-rule="nonzero" stroke="#454545" stroke-width="3" stroke-linecap="butt"/><g stroke-linecap="butt"><path d="M190.38533,182.06603c-2.70618,13.32252 -15.93149,21.81042 -29.53954,18.95826c-13.60805,-2.85215 -22.44576,-15.96429 -19.73957,-29.28679c2.70618,-13.32251 15.93149,-21.81042 29.53955,-18.95828c13.60805,2.85215 22.44575,15.96428 19.73956,29.28679z" fill="none" fill-rule="nonzero" stroke="#000000" stroke-width="4.5"/><g><g fill-rule="nonzero"><path d="M154.30693,158.2554l0.00945,0.01034" data-paper-data="{&quot;index&quot;:null}" fill="#ffab19" stroke="#000000" stroke-width="5"/><g data-paper-data="{&quot;index&quot;:null}" fill="none" stroke="none" stroke-width="1" font-family="sans-serif" font-weight="normal" font-size="12" text-anchor="start"/></g><path d="M154.30693,158.2554l0.00945,0.01034" data-paper-data="{&quot;index&quot;:null}" fill="#ffab19" fill-rule="nonzero" stroke="#000000" stroke-width="5"/><path d="M165.21785,178.05395" fill="#001026" fill-rule="evenodd" stroke="#000000" stroke-width="5"/><g data-paper-data="{&quot;index&quot;:null}" fill="none" fill-rule="nonzero" stroke="none" stroke-width="1" font-family="sans-serif" font-weight="normal" font-size="12" text-anchor="start"/><g data-paper-data="{&quot;index&quot;:null}" fill="none" fill-rule="nonzero" stroke="none" stroke-width="1" font-family="sans-serif" font-weight="normal" font-size="12" text-anchor="start"/></g></g><path d="M190.26097,167.25681c-0.75662,4.80653 -50.31443,3.38 -49.55783,-1.42655c0.75662,-4.80653 12.79733,-18.51246 27.07029,-16.20388c14.27297,2.30858 23.24414,12.82389 22.48753,17.63043z" fill="#000000" fill-rule="nonzero" stroke="#454545" stroke-width="3" stroke-linecap="butt"/><path d="M168.14159,177.88606c-0.46502,2.95415 -4.7212,8.37828 -9.05286,7.67765c-4.33168,-0.70064 -7.09853,-7.2607 -6.63352,-10.21485c0.46502,-2.95415 16.1514,-0.41695 15.68639,2.5372z" fill="#02004b" fill-rule="nonzero" stroke="#1500ff" stroke-width="4.5" stroke-linecap="butt"/><path d="M189.50833,181.18022c-0.46502,2.95415 -4.72118,8.37827 -9.05285,7.67765c-4.33168,-0.70064 -7.09855,-7.26069 -6.63353,-10.21484c0.46502,-2.95415 16.1514,-0.41695 15.68638,2.53719z" fill="#02004b" fill-rule="nonzero" stroke="#1500ff" stroke-width="4.5" stroke-linecap="butt"/><path d="M174.36029,178.43248l-6.31305,-1.0211" fill="none" fill-rule="nonzero" stroke="#1500ff" stroke-width="4.5" stroke-linecap="round"/><path d="M137.30104,174.22133l2.14931,-2.58156l12.73613,3.71563" fill="none" fill-rule="nonzero" stroke="#1500ff" stroke-width="4.5" stroke-linecap="round"/></g><path d="M162.3662,200.14013c0,1.64017 -1.71742,2.96979 -3.83597,2.96979c-2.11855,0 -3.83597,-1.32962 -3.83597,-2.96979c0,-1.64017 1.71742,-2.96979 3.83597,-2.96979c2.11855,0 3.83597,1.32962 3.83597,2.96979z" fill="#ff0000" fill-rule="nonzero" stroke="#000000" stroke-width="3" stroke-linecap="butt" stroke-linejoin="miter"/></g></g></svg>