<svg version="1.1" xmlns="http://www.w3.org/2000/svg" xmlns:xlink="http://www.w3.org/1999/xlink" width="157.13798" height="191.43808" viewBox="0,0,157.13798,191.43808"><g transform="translate(-172.32318,-78.32224)"><g data-paper-data="{&quot;isPaintingLayer&quot;:true}" fill-rule="nonzero" stroke-linecap="butt" stroke-linejoin="miter" stroke-miterlimit="10" stroke-dasharray="" stroke-dashoffset="0" style="mix-blend-mode: normal"><path d="M252.41983,266.33705c3.55277,0.04412 7.03352,-1.49532 10.70022,-0.98386c8.84724,1.23409 17.6162,2.16685 26.71363,1.84237c2.75267,-0.39168 5.69137,0.12105 8.38592,-0.34237c7.86382,-1.35246 16.16742,-2.64126 24.20023,-2.94866v-2.19058c0,-5.41383 -1.00483,-10.60158 0.04854,-15.99029c2.48129,-12.38144 2.23077,-24.84496 1.45528,-37.37146c-0.55748,-9.00498 -1.25043,-17.48436 -2.99166,-26.39191c-0.00597,-4.97711 0.05669,-10.03683 -1.01934,-14.93065c-0.69196,-3.14705 -2.29494,-6.02255 -3.37532,-9.05827c-0.97789,-2.74775 -1.15785,-5.95533 -2.35663,-8.64554c-0.89567,-2.00999 -3.11035,-3.87992 -4.33549,-5.71691c-2.73325,-4.09828 -4.95662,-8.43989 -7.92537,-12.39497c0,0 -0.0482,-0.06427 -0.11581,-0.17841c-0.66636,-0.2886 -1.38419,-0.91039 -1.38419,-2.25001c0,-2.5 2.5,-2.5 2.5,-2.5h1.5c2.46894,0 6.78667,0.67705 8.97928,-0.98429c4.6669,-3.53611 0.89708,-9.5916 -2.03825,-13.59307c-0.00918,0.12243 -0.0197,0.20718 -0.03174,0.24469c-1.09953,3.42366 -3.7648,4.8493 -6.40929,6.83267l-3.01853,0.43122l0.01853,0.56878c0,0 0,2.5 -2.5,2.5c-2.5,0 -2.5,-2.5 -2.5,-2.5l0.04854,-0.50971c-0.81774,-4.18326 -1.11342,-8.51429 -1.53638,-12.74394c-0.18797,-1.87968 -0.7924,-3.78378 -0.47988,-5.6468c0.358,-2.13411 1.1437,-4.55096 1.95774,-6.73815c-0.649,-0.42125 -1.31773,-0.78594 -2.00908,-1.07852l-1.23547,-1.00434c-2.03711,2.14305 -2.9197,5.14612 -3.82923,7.86313c-0.6601,3.33549 -0.83239,7.54821 -1.9208,10.73472c-0.05206,2.19562 -0.50562,3.39625 1.00455,5.12362l1.26776,1.23223c0,0 1.76776,1.76777 0,3.53554c-1.76776,1.76776 -3.53553,0 -3.53553,0l-1.73223,-1.76777c-0.82817,-1.19883 -1.31534,-2.18354 -1.60125,-3.15003c-2.12518,-1.02189 -5.28022,-3.11277 -6.32723,-3.52878c-1.4273,-0.56712 -2.80887,-0.87213 -4.20825,-1.17529c0.10511,0.08678 0.21472,0.1681 0.33011,0.24245l0.55662,1.54006c0,0 0,1.25 -1.25,1.25c-1.03905,0 -1.2144,-0.8637 -1.24399,-1.15522c-0.70589,-0.65699 -1.26394,-1.49079 -2.01475,-2.1014c-1.0392,-0.84515 -2.72332,-1.05448 -3.94148,-1.25952c-3.42529,-0.57653 -5.53406,-1.3209 -8.48377,-0.35161c3.61254,-0.48637 9.32463,1.3452 11.16829,4.09703c1.05304,1.57177 1.47596,3.4842 2.19385,5.23463c2.42591,5.91505 5.48525,11.32444 2.00127,17.5109c-1.39003,2.46826 -2.04951,2.64827 -4.17941,4.27519c-0.44407,0.30677 -0.85192,0.68936 -1.27697,1.03593c0.50049,0.05337 1.08947,-0.06483 1.55783,-0.15154c1.24768,-0.23101 2.58675,-0.08311 3.76675,-0.54966c2.21129,-0.87428 4.18234,-3.88352 5.88909,-5.4919l0.37746,-1.23812c0,0 0.39528,-1.18586 1.58114,-0.79057c1.18586,0.39529 0.79057,1.58114 0.79057,1.58114l-0.62254,1.76188c-1.99678,2.07683 -4.39973,5.39083 -7.11091,6.5081c-1.33956,0.55202 -2.85448,0.50454 -4.2914,0.69006c-1.53643,0.19836 -3.37745,0.04692 -4.54489,-0.97144c0,0 -0.0828,-0.0828 -0.17237,-0.22306c-4.64709,0.64117 -9.48098,-2.23444 -12.52299,-5.56811c-0.15479,0.6686 -0.61191,1.68781 -1.96185,1.87664c-0.33323,1.29931 -1.7721,1.71042 -1.7721,1.71042c-5.91952,1.65255 -13.90717,2.65444 -20.08726,1.56391c-0.25218,-0.0445 -0.50269,-0.09062 -0.75172,-0.13804c-0.42197,0.05945 -0.91162,-0.00579 -1.46239,-0.29421c-4.21737,-0.88652 -8.10363,-1.9669 -12.63908,-1.54763c-4.88206,0.45131 -9.44987,3.28555 -14.2334,4.34955c1.46871,0.00313 2.92925,0.05854 4.2334,0.17478c7.62951,0.68001 20.17668,2.54038 24.84076,9.61161c2.37102,3.59472 2.20401,8.37389 1.36435,12.36652c-0.45143,2.14656 -1.54388,4.17832 -2.88381,5.915c-0.28247,0.49652 -3.05981,5.45394 -3.59713,6.13324c-2.68959,3.40032 -6.67775,4.87786 -10.61062,6.30893c-0.13571,0.04938 -1.51448,0.50768 -2.96528,0.9885l1.74171,2.86556l-0.03338,0.02029c0.04492,0.05323 0.08942,0.10685 0.13348,0.16088c0.56866,0.69746 0.60388,1.69994 1.00319,2.50641c1.05781,2.1364 2.59959,4.15926 4.39839,5.72228c2.93504,2.55033 5.38917,3.47765 9.03563,4.4811c1.73072,0.47627 3.26788,1.52887 5,2c4.96794,1.35124 10.05923,1.90984 15.08002,1.4197c2.53768,-0.24774 4.15237,0.29042 6.52153,-0.69158c3.63835,-2.7726 5.7255,-5.51236 6.79945,-9.92693c0.32019,-1.31616 0.62288,-2.63724 0.98627,-3.94213c0.13284,-0.47703 0.63926,-0.92301 0.50103,-1.39851c-0.19583,-0.67366 -1.13996,-0.93412 -1.37163,-1.59632c-1.28996,-3.68717 -0.88056,-8.44846 -0.17813,-12.20305c0.25043,-1.33857 -0.26573,-3.08191 0.72007,-4.02142c1.04485,-0.9958 2.83211,-0.58324 4.26777,-0.73223c3.26185,-0.33849 7.19263,0.27514 10.5,0.5c0.38993,0.02651 0.78607,0.30992 1.16032,0.30548c0.63066,-0.7589 1.13799,-1.61125 1.53303,-2.52286c0.10693,-0.68581 0.19005,-1.39381 0.40269,-1.9689c0.71342,-3.53187 -0.09226,-5.28003 -1.00358,-8.64008c-0.23989,-0.88448 -0.73489,-2.24132 -0.64008,-3.16201l-1.97127,0.78851c-0.30123,0.12866 -0.63286,0.19987 -0.98111,0.19987c-1.38071,0 -2.5,-1.11929 -2.5,-2.5c0,-0.82832 0.40283,-1.56254 1.02328,-2.01746l1.74595,-1.30947c0.72338,-1.15268 1.48629,-2.1394 2.11273,-2.40914c3.30813,-1.42445 6.8882,0.85054 9.80696,2.03688l0.18359,0.23845l0.06114,-0.08734l4.0675,2.84725c0.66095,0.44988 1.095,1.20833 1.095,2.06814c0,1.38071 -1.11929,2.5 -2.5,2.5c-0.51689,0 -0.99714,-0.15687 -1.39575,-0.42559l-1.82294,-1.1891c-0.62521,-0.08391 -1.24819,-0.1821 -1.86777,-0.30118c-0.2912,-0.05596 -0.70564,-0.1383 -1.12237,-0.24604c0.5582,1.34602 0.8809,3.26258 1.0717,4.34388c0.79821,4.52358 0.03643,10.24661 -2.82799,14.16798c-0.43867,0.69844 -0.95517,1.31041 -1.57742,1.74981c-2.38853,2.08343 -5.43561,2.51427 -8.55363,2.53292c-1.66663,0.00996 -3.37452,0.36823 -5,0c-0.33665,-0.07627 -0.71569,-1.07701 -0.73224,-0.73224c-0.0195,0.40648 0.58563,0.60178 0.72006,0.98589c0.28075,0.80212 0.33333,1.66666 0.5,2.5c0.01682,3.79524 0.77153,6.17358 1.46706,9.77358c0.06028,0.31201 0.04511,5.67548 0.04511,5.97277c0,3.48759 0.52164,7.08823 0.5,10.5c-0.00946,1.49119 -0.85791,3.70541 -1.01217,5.24634c-0.14018,1.40036 0.27271,4.35373 -0.11612,5.54423c-0.83441,2.55471 -3.75644,5.61804 -5.60394,7.47719c-3.41181,3.43332 -5.67187,6.08629 -10.76776,6.23224c-4.37079,-0.0236 -8.34561,0.43945 -12.74634,-0.01217c-1.50888,-0.15484 -5.08286,0.39762 -6.15523,-0.41766c-1.64931,-1.25389 -2.57855,-4.99103 -2.13691,-7.24905c-1.11502,1.49307 -2.9348,3.38428 -3.78187,3.88307c-0.91408,0.53825 -2.57301,0.30627 -2.89738,1.31624c-3.27965,10.21167 12.28777,9.97958 18.21774,9.97958c3.52571,0 7.78475,0.53361 11.53778,-0.03625c0.0492,-0.03054 0.09849,-0.0607 0.14789,-0.09038c2.74957,-1.6523 5.3996,-3.1668 8.17871,-4.50899l-0.13214,-0.13215l2,-2c0.45241,-0.45241 1.07741,-0.73223 1.76777,-0.73223c1.38071,0 2.5,1.11929 2.5,2.5c0,0.57191 -0.19205,1.09896 -0.51515,1.5202l-1.48485,1.9798l-0.14164,-0.10623l-0.0906,0.374c-2.26905,1.73322 -4.68739,3.9857 -7.36627,5.06404c-1.00376,0.40405 -2.05896,0.69244 -3.14689,0.89543c-4.05937,2.1695 -7.98288,2.7617 -12.7546,2.77276c-1.84289,0.00428 -4.64032,-0.57474 -6.38197,-0.26394c-0.3253,0.05805 -0.33919,0.76337 -0.2459,1.55598c0.11553,-0.06758 0.22944,-0.13811 0.34163,-0.21174c0,0 2.14373,-1.28624 3.42997,0.8575c1.28624,2.14373 -0.8575,3.42997 -0.8575,3.42997c-0.3663,0.20735 -0.73532,0.3966 -1.10698,0.56932c0.01549,0.0198 0.03105,0.03951 0.04666,0.05913c0.26416,0.16192 0.52596,0.39699 0.77408,0.72781c0.08826,0.11767 0.16439,0.23361 0.22953,0.34762c1.70479,1.5664 3.88869,2.47567 6.24323,3.47344c2.37848,-0.04246 4.91789,0.20361 7.28089,-0.03294c4.54614,-0.4551 8.93107,-2.23894 13.39959,-2.988c1.30705,-0.2191 2.66046,0.45124 3.82604,-0.50846c1.7418,-1.43415 2.58119,-3.70147 3.89257,-5.53747c5.78419,-8.09815 11.74147,-17.56017 13.67669,-27.46852c1.83724,-9.16773 1.56653,-18.10459 0.95528,-27.37146c-0.27816,-4.21696 -0.14592,-7.15147 -1.47154,-11.2378l0.11613,-0.40045h-0.14841v-2.5c0,-1.38071 1.11929,-2.5 2.5,-2.5c0.69036,0 1.31536,0.27982 1.76776,0.73223l2,2l-0.09271,0.09271c0.18505,0.1544 0.36202,0.3188 0.52913,0.49541c0.72732,0.76863 0.45758,2.06687 0.72543,3.09061c0.31052,1.18682 0.7377,2.34289 1.00918,3.53925c0.13803,0.60828 0.22459,1.22475 0.28473,1.84546c0.68412,-3.26432 1.2939,-6.56863 1.27648,-9.79568v-0.5c0,0 0,-2.5 2.5,-2.5c2.5,0 2.5,2.5 2.5,2.5v0.5c-0.02427,5.47895 -1.56065,11.0604 -2.54097,16.4507c-0.0145,0.07973 -1.00025,6.01558 -1.00493,6.02613c-0.00921,0.0208 -0.01846,0.04159 -0.02775,0.06236l0.01411,0.00314l-0.98932,4.45193c-0.22941,1.14398 -1.23964,2.00575 -2.45114,2.00575c-0.38087,0 -0.74183,-0.08516 -1.06491,-0.23749c-0.10544,4.73205 -0.53021,9.45152 -1.48364,14.22778c-2.1665,10.62416 -8.28764,20.68184 -14.51093,29.39414c-1.59492,2.23281 -2.69038,5.00023 -4.9198,6.59987c-1.72021,1.23426 -4.08524,1.14551 -6.17397,1.49154c-4.53782,0.75176 -8.97808,2.55016 -13.60041,3.012c-0.9454,0.09445 -1.92259,0.12581 -2.9103,0.12441c-0.00924,0.02627 -0.01485,0.04028 -0.01485,0.04028c-0.33334,0.83333 -0.66666,1.66667 -1,2.5l-0.83983,1.69461c2.197,0 4.61313,0 6.51864,0zM298.62005,269.32091c-2.78624,0.45214 -5.73278,-0.04134 -8.56383,0.36473c-9.28954,0.34429 -18.303,-0.5401 -27.33662,-1.86473c-3.47856,-0.51007 -6.89076,0.98377 -10.29977,1.01614c-2.66666,0 -5.33334,0 -8,0h-1c0,0 -1.03417,0 -1.22119,-0.94066c-2.09798,-1.13427 -1.01488,-3.30046 -1.01488,-3.30046l0.91488,-1.81045c0.11096,-0.2774 0.22192,-0.55481 0.33288,-0.83221c-0.16233,-0.00351 -0.32384,-0.00637 -0.48446,-0.00846c-2.73161,-1.04775 -5.49098,-2.30681 -7.7652,-4.03687c-2.90499,1.86231 -6.17131,3.35463 -9.33356,4.62722l-1.04172,0.75893c0,0 -2.08013,1.38675 -3.46688,-0.69338c-1.38675,-2.08013 0.69338,-3.46687 0.69338,-3.46687l1.95827,-1.24107c2.56025,-1.01703 5.29448,-2.20374 7.72171,-3.67953c-0.06785,-0.1079 -0.13408,-0.21707 -0.19866,-0.32754c-2.77077,0.40244 -5.64832,0.32827 -8.59457,0.32827h-2c0,0 -2.5,0 -2.5,-2.5c0,-2.5 2.5,-2.5 2.5,-2.5h2c2.21044,0 4.701,0.17179 7.05303,-0.05323c-0.01569,-0.14002 -0.02933,-0.2815 -0.04086,-0.42447c-0.16815,-2.08422 -0.15857,-3.87828 0.97043,-5.36959c-7.38993,-1.14161 -14.38136,-4.32945 -13.47043,-13.1231c0.11504,-1.11047 0.20999,-2.27369 0.70557,-3.27408c0.58397,-1.17882 1.38271,-2.32456 2.44933,-3.09459c1.8146,-1.31002 4.02161,-0.60859 5.0345,-3.36847c1.11853,-3.0477 1.55797,-6.30423 1.98589,-9.554l-0.13893,0.02778l-0.48987,-2.44938c-0.03842,-0.17418 -0.05867,-0.35518 -0.05867,-0.54091c0,-0.24323 0.03473,-0.47835 0.09951,-0.70067c-0.74158,-0.34561 -1.48705,-0.67945 -2.27316,-0.8918c-1.71565,-0.46345 -3.17254,-0.88425 -4.564,-1.45878c-0.49294,1.3964 -1.47686,2.6579 -2.37373,3.68925c-3.11572,3.58289 -9.90638,5.93352 -14.6792,4.2337c-4.0387,-1.43837 -5.99991,-6.44446 -7.10579,-10.15934c-0.30775,-1.03378 0.04624,-2.65294 -0.93657,-3.09735c-0.67204,-0.30389 -1.5122,-0.03616 -2.18749,-0.33275c-3.46678,-1.52261 -6.69137,-3.68019 -9.74735,-6.0145c-3.82014,-5.00117 -10.91908,-10.69574 -9.68712,-17.74053c0.56012,-3.20296 2.42364,-7.21313 4.80974,-9.40965c0.79191,-0.72899 1.77964,-1.22678 2.75017,-1.6922c0.02024,-0.0097 0.04183,-0.0171 0.06452,-0.02255c-0.18987,-0.48121 -0.36517,-0.98027 -0.52768,-1.49306c-0.25387,-0.32762 -0.49376,-0.66605 -0.71649,-1.0148c-1.9531,-3.05826 -2.21457,-3.05628 -1.91321,-6.64132c0.07074,-0.84161 0.26813,-1.88173 0.59723,-2.96011c-0.01588,-0.11619 -0.0317,-0.23173 -0.04747,-0.34656c0.09989,-0.14618 0.20227,-0.29072 0.30702,-0.43361c1.07303,-2.97267 3.13918,-5.9441 6.30182,-5.64145l1.80903,-1.35677c0.42123,-0.32311 0.9483,-0.51515 1.52021,-0.51515c0.10437,0 0.20723,0.00639 0.30824,0.01881l0.69176,-0.51881c2.689,-1.98487 5.18954,-2.86388 8.35833,-3.91625c5.23224,-1.03406 10.05258,-4.007 15.39533,-4.57158c4.6205,-0.48826 8.73703,0.4572 13.04715,1.38448c2.20161,-3.76085 4.39735,-7.52534 6.61234,-11.27826c0.51222,-0.86787 1.69908,-1.75907 1.35079,-2.70473c-0.26117,-0.7091 -1.50861,-0.14105 -2.26393,-0.11803c-3.07758,0.0938 -5.94448,0.33596 -8.72482,-1.32059c-8.61481,-5.13278 -2.1913,-18.16031 3.69376,-22.65574c0.69415,-0.554 1.38914,-1.10695 2.08275,-1.66162c-0.20287,0.02782 -0.39455,0.05561 -0.5614,0.0894c-1.70014,0.34431 -3.49853,0.29564 -5.12651,0.89458c-4.45543,1.63917 -7.33112,6.66557 -11.84807,1.67469c-0.85906,-0.9492 -1.18075,-2.30097 -1.4706,-3.54795c-2.76317,-11.88742 10.44298,-16.10146 19.38157,-17.43609c6.36127,3.44009 18.13183,6.08687 20.94502,13.67275c0.28976,0.78133 -0.23774,1.7013 0,2.5c0.81532,2.73912 4.10666,4.19516 5.05055,6.83924c2.70108,0.87869 5.73701,0.93097 8.56804,1.49988c4.38003,0.8802 8.93992,2.27139 13.22207,3.55509c0.22132,0.06635 5.36218,2.13336 5.51245,2.21695c0.44226,0.24602 0.90904,0.48978 1.33051,0.78207c0.03918,-1.37712 0.46442,-2.92775 0.48057,-3.02475c0.42984,-2.58227 1.0299,-5.15359 1.54787,-7.71958c1.244,-3.74581 2.58813,-8.03531 5.7419,-10.71482c6.89049,-5.85431 16.29076,-1.57304 23.19849,1.57589c3.28861,1.49913 7.2652,3.08982 8.75813,6.76018c1.97836,4.86381 -0.97048,8.37652 -4.99603,10.66416c-0.84767,0.48171 -1.64554,1.19549 -2.53186,1.58132c4.3155,6.14387 8.86232,15.09101 1.26634,20.75924c-0.96097,0.71709 -2.16613,1.04733 -3.30835,1.41206c-1.64267,0.52454 -3.33968,0.64296 -5.04465,0.65033c2.03437,3.12299 3.8304,6.37067 5.9069,9.48676c1.37793,2.06778 3.62574,4.03131 4.66451,6.28309c1.34724,2.92046 1.57244,6.36705 2.64337,9.35446c1.14085,3.18248 2.75811,6.2212 3.49816,9.51999c1.14119,5.08686 1.11352,10.33871 1.10717,15.49109c1.84041,8.95579 2.43627,17.54376 3.00834,26.60809c0.81714,12.94734 1.00965,25.83227 -1.54472,38.62854c-1.02565,4.99101 0.04855,9.96448 0.04855,15.00971v2.5c0,0 0,2.5 -2.5,2.5c-0.60165,0 -1.0585,-0.14479 -1.40541,-0.36469c-8.22891,0.15949 -16.80847,1.65947 -24.89436,2.97163zM245.92477,99.24993l-1.76188,-0.62254c-2.14085,-2.05832 -4.50019,-2.80145 -7.12905,-3.57766c0.39689,4.7627 0.79378,9.52541 1.19067,14.28811c1.98859,-1.60278 4.1631,-2.98894 6.49229,-4.24381c1.27463,-0.68672 2.56941,-1.33864 3.88869,-1.93511c0.3081,-0.1393 0.80002,0.02125 0.97898,-0.26563c0.47384,-0.7596 -1.11756,-1.39907 -1.66465,-2.10774c-0.179,-0.23188 -0.63352,-0.8323 -1.15326,-1.53168c-0.42287,0.13571 -0.8418,-0.00393 -0.8418,-0.00393zM230.5576,116.91032c-1.01431,-0.32211 -1.78505,-1.30798 -2.838,-1.4625c-1.37958,-0.20245 -2.65697,0.53922 -3.81383,-1.00298c-1.12475,-1.4994 0.33431,-4.64168 0.8282,-6.12617c0,0 0.39528,-1.18585 1.58113,-0.79057c1.18586,0.39529 0.79057,1.58114 0.79057,1.58114c-0.18154,0.54354 -1.43581,3.52145 -1.1718,3.87382c0.43695,0.5832 1.46928,-0.13375 2.18617,-0.00297c2.18374,0.39839 3.06451,1.27785 5.06947,1.45313c0.26387,-0.3394 0.53346,-0.67092 0.80865,-0.99492c-0.50375,-0.65359 -0.5697,-1.44515 -0.5697,-1.44515c-0.34736,-4.1684 -0.69474,-8.33678 -1.0421,-12.50518c-1.17206,1.09363 -2.50559,2.02839 -3.43548,2.77389c-1.15134,0.84325 -2.17287,1.88343 -3.03106,3.02367c-0.92935,1.23479 -1.68444,2.64871 -2.08375,4.14167c-0.18499,0.69164 -0.35643,1.39236 -0.42842,2.10468c-0.05009,0.49565 0.02819,4.15077 0.16335,4.47992c0.55923,1.36176 3.84013,1.28379 4.84882,1.27374c0.81782,-0.00815 1.68088,-0.06535 2.54587,-0.0889c0.02624,-0.08738 0.05654,-0.17123 0.08949,-0.25109c-0.26171,-0.00812 -0.44794,-0.01946 -0.49759,-0.03523zM253.30179,109.27297c-0.55901,-1.11804 0.55901,-1.67705 0.55901,-1.67705c0.64002,-0.31892 1.28212,-0.60434 1.92987,-0.8484c-0.90131,-0.16192 -1.79613,-0.35344 -2.68446,-0.60569c-1.75779,1.48463 -4.88824,2.74587 -5.98336,3.33522c-1.54832,0.83324 -3.02507,1.72544 -4.41077,2.71767c1.3113,-0.15027 2.68245,0.28049 4.09163,1.63535c0,0 0.88388,0.88388 0,1.76776c-0.88388,0.88389 -1.76776,0 -1.76776,0c-2.37106,-2.51606 -4.52213,0.51326 -6.46127,2.09448l0.09516,1.02164c0,0 0,1.16626 -1.12652,1.24574c0.03826,0.06765 0.07579,0.13691 0.11258,0.2078c0.76713,1.47837 0.68614,2.80344 0.25428,4.05006c0.55622,-0.4374 1.15041,-0.8341 1.78484,-1.18302c2.52111,-1.38656 5.72528,-1.78822 8.34983,-0.82463c0.14828,-1.76485 0.44514,-3.52407 0.97862,-5.20833c0.81453,-2.57155 2.6941,-5.55187 5.22941,-7.03353c-0.32754,-0.02526 -0.69703,-0.187 -0.95108,-0.69508zM267.19628,132.57405c0.19695,0.11568 0.42679,0.27814 0.63566,0.4951c0.16514,-0.31272 0.29993,-0.6298 0.40647,-0.95215c-0.62498,-0.04567 -0.89891,0.1036 -1.04213,0.45705zM261.96837,133.72366c0.56343,-2.55125 0.55553,-4.70718 3.33342,-6.24578c0.82565,-0.45731 1.8319,-0.30792 2.8073,-0.26216c-0.20538,-0.72764 -0.47535,-1.48849 -0.79654,-2.28853c-1.15813,-2.88469 -1.8492,-5.9854 -3.37701,-8.69252c-0.35967,-0.63729 -2.871,-1.51856 -3.22808,-1.62436c-4.75407,-1.40863 -6.47876,1.81499 -7.33618,6.09394c-0.29683,1.48131 -0.4596,2.99898 -0.45145,4.50971c0,0 0,0.85991 -0.50432,1.57108c0.42729,1.39988 0.35253,3.05422 0.05275,4.66125c0.04512,0.01936 0.0696,0.0316 0.0696,0.0316l1.88197,1.23607c2.03392,2.84649 6.88471,6.11118 10.15034,3.77705zM238.91983,135.21396c0,-2.5 2.5,-2.5 2.5,-2.5c0.83334,0 1.66666,0 2.5,0h1c0,0 1.08303,0 1.82341,0.71284c1.06155,-2.76622 1.80906,-7.78024 -2.85065,-6.75795c-0.61607,0.13516 -1.19897,0.41399 -1.74796,0.72452c-3.62204,2.04876 -5.23835,6.16643 -6.09211,9.95703c1.17953,-0.07726 2.36556,-0.20137 3.52944,-0.36331c-0.37735,-0.37033 -0.66215,-0.92933 -0.66215,-1.77312zM230.96837,137.22366c0.07452,-0.37263 0.15595,-0.74833 0.24467,-1.12582c-0.24208,0.40682 -0.48417,0.8136 -0.72603,1.22044c0.15294,0.01388 0.30692,0.02655 0.46188,0.03801c0.00983,-0.08435 0.01948,-0.13262 0.01948,-0.13262zM259.67348,215.20179c-0.56688,-0.18326 -1.10862,-0.61643 -1.70064,-0.54977c-1.18796,0.13378 -1.92345,2.61398 -2.68719,3.99196c-0.036,0.34631 -0.06154,0.69015 -0.05613,1.02668l-0.89287,0.46013l0.35093,0.35093l-2,2c-0.45241,0.45241 -1.07741,0.73224 -1.76776,0.73224c-1.38071,0 -2.5,-1.11929 -2.5,-2.5c0,-0.48518 0.1382,-0.93808 0.37741,-1.32147l1.38846,-2.31411c-0.45063,-0.10223 -1.13777,0.06391 -1.51953,0.12341c-1.94764,0.3036 -3.99677,0.39495 -5.47858,1.77993c-1.60327,1.4985 -0.89846,5.37517 -0.78275,7.69622c2.30074,-0.03809 4.57688,-0.17723 7.01498,-0.18803c4.48962,0.22223 8.12265,-5.57041 10.42537,-8.89498c0.72553,-1.04748 0.96589,-1.71391 1.03225,-2.38781zM239.65206,215.44619c2.42912,-2.49943 9.07471,-4.55578 13.02794,-2.73631c1.02575,-1.38308 2.37848,-2.45649 4.18681,-2.93399c1.07319,-0.28338 2.19957,0.30015 3.29936,0.45023l0.94994,-0.00513c0.26681,-1.91815 0.54409,-3.2027 0.31589,-5.48473c-0.13041,-1.30408 -0.09596,-2.66535 -0.01059,-4.04604c-1.65427,3.1234 -4.01913,5.56169 -7.27677,7.97911c-6.54482,2.56694 -14.72642,2.11516 -21.87406,0.58657c0.88915,3.4393 4.46425,8.43466 3.59359,11.75866c-0.38285,1.46165 -1.89044,2.38558 -2.5636,3.7383c-0.32181,0.64668 -0.63729,1.86918 0.02084,2.16689c0.35823,0.16205 0.70755,-0.38737 1.09843,-0.42983c0.9101,-0.09886 1.83522,-0.07678 2.74634,0.01216c0.08213,0.00802 0.16409,0.01573 0.24586,0.02314c-0.08515,-3.97569 -0.78207,-7.96946 2.24003,-11.07903zM301.41983,114.28554l0.5,0.5c1.35479,-1.0161 4.11505,-2.32041 4.59071,-4.16734c0.36027,-1.39889 -0.09071,-2.88812 -0.09071,-4.33266c0,0 0,-1.04838 0.6789,-1.78733c-1.95128,-2.04184 -3.93709,-4.61069 -6.1134,-6.86559c-0.44732,1.3622 -0.83537,2.74988 -1.09778,4.05337c-0.31182,1.54902 0.36828,2.83489 0.52011,4.3532c0.27245,2.72451 0.46795,5.51056 0.81601,8.25904c0.12231,-0.01269 0.19616,-0.01269 0.19616,-0.01269zM299.35051,89.85158c0.54964,0.36094 1.08344,0.74828 1.60386,1.15714c0.57824,0.25279 0.94062,0.59605 1.16088,0.96426c3.11127,2.72137 5.77925,6.12948 8.59105,9.0637c0.9463,0.9789 1.68937,3.07225 3.01385,2.75686c1.73056,-0.41209 5.57294,-3.39997 4.41742,-5.48757c-1.31817,-2.38142 -3.95146,-3.20193 -6.24187,-4.23982c-3.13495,-1.4206 -8.16651,-4.12201 -12.54517,-4.21456zM234.53786,91.04947l0.82308,0.87687c3.26046,1.06883 6.49756,1.54332 9.09962,3.63461c-0.01237,-0.65216 0.26356,-1.35266 0.08756,-1.98485c-0.35844,-1.28743 -1.76643,-2.01523 -2.76629,-2.90193c-3.93491,-3.48956 -9.96206,-4.34238 -14.28868,-7.42531c-4.37742,1.33733 -9.68743,1.82242 -12.49869,5.93165c-1.25119,1.82887 -1.43192,3.38943 -1.11973,5.63226c0.07102,0.51027 0.39219,0.95548 0.5294,1.45206c0.04625,0.16738 -0.11772,0.63185 0.01571,0.52072c3.68909,-3.07244 9.58511,-5.61863 14.75366,-5.48783c0.84195,0.02131 1.83068,-0.11556 2.71341,-0.04624c1.15632,-0.94932 2.65096,-0.202 2.65096,-0.202zM229.40097,221.91736c0.56789,-0.62359 1.2306,-1.1971 1.57452,-1.95209c0.34133,-0.74929 -0.10222,-1.4936 -0.65944,-2.23888c-0.19835,0.53106 -0.37269,1.0182 -0.48869,1.43715c-0.24696,0.8919 -0.20397,1.8615 -0.42639,2.75381zM199.83002,184.42639c-4.02817,-1.96875 -10.46934,-4.2295 -13.75949,-7.25419c-1.82073,-1.67382 -2.88322,-6.1643 -3.54478,-8.46201c-0.7275,0.36527 -1.43453,0.71823 -1.96078,1.16213c-1.69854,1.43275 -2.68162,4.50054 -3.19025,6.59035c-0.31288,1.28555 0.20543,2.30193 0.78472,3.41633c1.9159,3.68569 5.08761,6.50847 7.52815,9.84314c2.61471,1.91362 5.35615,3.68411 8.25266,4.98551c0.87889,0.39488 2.02869,0.10687 2.8125,0.66724c1.07017,0.7651 1.84334,1.92694 2.44934,3.09459c1.18711,2.28733 1.17965,8.71336 4.5083,9.64872c1.91079,0.53694 6.16083,-0.08748 7.83321,-1.2154c1.07743,-0.72666 1.57818,-2.09631 2.5808,-2.92253c-2.42785,0.08657 -3.90066,-2.65272 -5.5932,-4.35236c-1.74328,-2.31303 -3.42405,-4.60652 -5.03315,-7.01755l0.30243,-0.92321l-0.35552,-0.05079l0.70191,-4.91336c0.00146,-0.01154 0.003,-0.02305 0.00462,-0.03454c-1.50829,-0.53693 -2.8712,-1.55326 -4.32146,-2.26207z" fill="#000000" stroke="none" stroke-width="0.5"/><path d="M239.56187,137.03285c-1.16388,0.16195 -2.36621,0.27454 -3.54575,0.3518c0.85376,-3.79059 2.51029,-7.99239 6.13232,-10.04116c0.54898,-0.31052 1.14654,-0.58597 1.76261,-0.72113c4.65971,-1.02229 3.94162,4.05256 2.88007,6.81878c-0.74039,-0.71284 -1.82276,-0.71521 -1.82276,-0.71521l-1.00155,0.00509c-0.83334,0 -1.73558,0.02785 -2.56891,0.02785c0,0 -2.44506,-0.08249 -2.44506,2.41751c0,0.8438 0.23169,1.48613 0.60904,1.85646z" data-paper-data="{&quot;noHover&quot;:false,&quot;origItem&quot;:[&quot;Path&quot;,{&quot;applyMatrix&quot;:true,&quot;segments&quot;:[[[238.91983,135.21395],[0,0.8438],[0,-2.5]],[[241.41983,132.71395],[0,0],[0.83334,0]],[[243.91983,132.71395],[-0.83334,0],[0,0]],[244.91983,132.71395],[[246.74324,133.42678],[-0.74039,-0.71284],[1.06155,-2.76622]],[[243.89259,126.66884],[4.65971,-1.02229],[-0.61607,0.13516]],[[242.14464,127.39336],[0.54898,-0.31052],[-3.62204,2.04876]],[[236.05253,137.35038],[0.85376,-3.79059],[1.17953,-0.07726]],[[239.58197,136.98707],[-1.16388,0.16195],[-0.37735,-0.37033]]],&quot;closed&quot;:true}]}" fill="#ffffff" stroke="none" stroke-width="0.5"/><path d="M264.58882,136.53739c-3.26562,2.33413 -8.1673,-0.93872 -10.20122,-3.7852l-1.88999,-1.24463c0,0 -0.02468,-0.01252 -0.0698,-0.03188c0.29978,-1.60703 0.36538,-3.28442 -0.06191,-4.6843c0.50432,-0.71117 0.50407,-1.58128 0.50407,-1.58128c-0.00815,-1.51073 0.16422,-3.05421 0.46105,-4.53552c0.85742,-4.27895 2.62436,-7.52287 7.37843,-6.11424c0.35708,0.1058 2.88437,0.99037 3.24404,1.62766c1.52781,2.70712 2.25056,5.84849 3.40869,8.73318c0.32119,0.80004 0.59072,1.57588 0.79609,2.30353c-0.9754,-0.04576 -1.98344,-0.18818 -2.80909,0.26913c-2.77789,1.5386 -2.80688,3.72746 -3.37031,6.27871z" data-paper-data="{&quot;noHover&quot;:false,&quot;origItem&quot;:[&quot;Path&quot;,{&quot;applyMatrix&quot;:true,&quot;segments&quot;:[[[261.96837,133.72366],[0,0],[0.56343,-2.55125]],[[265.30179,127.47788],[-2.77789,1.5386],[0.82565,-0.45731]],[[268.10909,127.21571],[-0.9754,-0.04576],[-0.20538,-0.72764]],[[267.31254,124.92719],[0.32119,0.80004],[-1.15813,-2.88469]],[[263.93553,116.23466],[1.52781,2.70712],[-0.35967,-0.63729]],[[260.70746,114.6103],[0.35708,0.1058],[-4.75407,-1.40863]],[[253.37128,120.70424],[0.85742,-4.27895],[-0.29683,1.48131]],[[252.91983,125.21395],[-0.00815,-1.51073],[0,0]],[[252.4155,126.78503],[0.50432,-0.71117],[0.42729,1.39988]],[[252.46826,131.44628],[0.29978,-1.60703],[0.04512,0.01936]],[252.53786,131.47788],[[254.41983,132.71395],[0,0],[2.03392,2.84649]],[[264.57016,136.491],[-3.26562,2.33413],[0,0]]],&quot;closed&quot;:true}]}" fill="#ffffff" stroke="none" stroke-width="0.5"/><path d="M301.21038,114.34643c-0.34806,-2.74848 -0.5802,-5.58551 -0.85265,-8.31003c-0.15183,-1.51832 -0.81297,-2.84066 -0.50114,-4.38968c0.2624,-1.30349 0.66758,-2.69995 1.1149,-4.06215c2.17631,2.2549 4.22122,4.85056 6.17249,6.8924c-0.6789,0.73895 -0.67418,1.80985 -0.67418,1.80985c0,1.44454 0.42949,2.97357 0.06922,4.37246c-0.47566,1.84693 -3.27321,3.15937 -4.628,4.17547l-0.50341,-0.50073c0,0 -0.07493,-0.00028 -0.19724,0.01241z" data-paper-data="{&quot;noHover&quot;:false,&quot;origItem&quot;:[&quot;Path&quot;,{&quot;applyMatrix&quot;:true,&quot;segments&quot;:[[301.41983,114.28553],[[301.91983,114.78553],[0,0],[1.35479,-1.0161]],[[306.51054,110.61819],[-0.47566,1.84693],[0.36027,-1.39889]],[[306.41983,106.28553],[0,1.44454],[0,0]],[[307.09872,104.4982],[-0.6789,0.73895],[-1.95128,-2.04184]],[[300.98532,97.63261],[2.17631,2.2549],[-0.44732,1.3622]],[[299.88754,101.68598],[0.2624,-1.30349],[-0.31182,1.54902]],[[300.40765,106.03918],[-0.15183,-1.51832],[0.27245,2.72451]],[[301.22367,114.29822],[-0.34806,-2.74848],[0.12231,-0.01269]]],&quot;closed&quot;:true}]}" fill="#ff8787" stroke="none" stroke-width="0.5"/><path d="M231.04189,116.89734c-0.03295,0.07985 -0.03748,0.26033 -0.06372,0.34771c-0.86499,0.02356 -1.74207,0.08231 -2.5599,0.09046c-1.00869,0.01005 -4.31593,0.07954 -4.87516,-1.28222c-0.13517,-0.32915 -0.22853,-4.00021 -0.17844,-4.49587c0.07199,-0.71232 0.23751,-1.42814 0.4225,-2.11977c0.39932,-1.49296 1.16997,-2.9546 2.09932,-4.18939c0.85819,-1.14024 1.91513,-2.19311 3.06647,-3.03636c0.92989,-0.7455 2.28049,-1.67649 3.45255,-2.77012c0.34736,4.1684 0.71536,8.41326 1.06273,12.58166c0,0 0.06239,0.79575 0.56614,1.44934c-0.27519,0.324 -3.25418,3.41643 -2.99248,3.42455z" data-paper-data="{&quot;noHover&quot;:false,&quot;origItem&quot;:[&quot;Path&quot;,{&quot;applyMatrix&quot;:true,&quot;segments&quot;:[[[230.5576,116.91031],[0.04966,0.01577],[-1.01431,-0.32211]],[[227.7196,115.44781],[1.05294,0.15452],[-1.37958,-0.20245]],[[223.90577,114.44483],[1.15686,1.5422],[-1.12475,-1.4994]],[[224.73397,108.31866],[-0.4939,1.48449],[0,0]],[[226.31511,107.52809],[-1.18586,-0.39529],[1.18586,0.39529]],[[227.10568,109.10923],[0,0],[-0.18154,0.54354]],[[225.93388,112.98306],[-0.26402,-0.35237],[0.43695,0.5832]],[[228.12005,112.98009],[-0.71689,-0.13079],[2.18374,0.39839]],[[233.18952,114.43321],[-2.00495,-0.17527],[0.26387,-0.3394]],[[233.99817,113.43829],[-0.27519,0.324],[-0.50375,-0.65359]],[[233.42846,111.99314],[0,0],[-0.34736,-4.1684]],[[232.38636,99.48796],[0.34736,4.1684],[-1.17206,1.09363]],[[228.95088,102.26186],[0.92989,-0.7455],[-1.15134,0.84325]],[[225.91983,105.28553],[0.85819,-1.14024],[-0.92935,1.23479]],[[223.83607,109.4272],[0.39932,-1.49296],[-0.18499,0.69164]],[[223.40766,111.53187],[0.07199,-0.71232],[-0.05009,0.49565]],[[223.57101,116.01179],[-0.13517,-0.32915],[0.55923,1.36176]],[[228.41983,117.28553],[-1.00869,0.01005],[0.81782,-0.00815]],[[230.9657,117.19663],[-0.86499,0.02356],[0.02624,-0.08738]],[[231.05519,116.94554],[-0.03295,0.07985],[-0.26171,-0.00812]]],&quot;closed&quot;:true}]}" fill="#ff8787" stroke="none" stroke-width="0.5"/><path d="M229.80044,219.12141c0.116,-0.41895 0.31888,-0.91394 0.51724,-1.44499c0.55722,0.74528 1.0482,1.54923 0.70687,2.29852c-0.34392,0.75499 -1.07442,1.36518 -1.64232,1.98877c0.22242,-0.89231 0.17125,-1.9504 0.41821,-2.8423z" data-paper-data="{&quot;noHover&quot;:false,&quot;origItem&quot;:[&quot;Path&quot;,{&quot;applyMatrix&quot;:true,&quot;segments&quot;:[[[229.40097,221.91735],[0.22242,-0.89231],[0.56789,-0.62359]],[[230.97549,219.96526],[-0.34392,0.75499],[0.34133,-0.74929]],[[230.31605,217.72638],[0.55722,0.74528],[-0.19835,0.53106]],[[229.82736,219.16354],[0.116,-0.41895],[-0.24696,0.8919]]],&quot;closed&quot;:true}]}" fill="#fffffc" stroke="none" stroke-width="0.5"/><path d="M260.92065,215.18195c-0.06636,0.6739 -0.303,1.34823 -1.02853,2.39571c-2.30273,3.32457 -5.99959,9.18153 -10.48921,8.9593c-2.43811,0.0108 -4.73906,0.13045 -7.0398,0.16854c-0.11571,-2.32105 -0.82781,-6.23517 0.77546,-7.73367c1.48181,-1.38498 3.54816,-1.50505 5.49581,-1.80865c0.38176,-0.05951 1.11806,-0.14016 1.56869,-0.03793l-1.36055,2.28839c-0.2392,0.3834 -0.37271,0.81429 -0.37271,1.29947c0,1.38071 1.08064,2.45215 2.46135,2.45215c0.69036,0 1.27692,-0.27315 1.72933,-0.72556l1.97717,-1.95515l-0.35015,-0.34452l0.89369,-0.45649c-0.00541,-0.33653 0.02435,-0.66967 0.06035,-1.01598c0.76375,-1.37798 1.57992,-3.91583 2.76788,-4.0496c0.59202,-0.06667 1.13871,0.37276 1.70559,0.55602z" data-paper-data="{&quot;noHover&quot;:false,&quot;origItem&quot;:[&quot;Path&quot;,{&quot;applyMatrix&quot;:true,&quot;segments&quot;:[[[259.67348,215.20178],[0,0],[-0.56688,-0.18326]],[[257.97284,214.65201],[0.59202,-0.06667],[-1.18796,0.13378]],[[255.28565,218.64397],[0.76375,-1.37798],[-0.036,0.34631]],[[255.22952,219.67065],[-0.00541,-0.33653],[0,0]],[254.33666,220.13078],[254.68759,220.48171],[[252.68759,222.48171],[0,0],[-0.45241,0.45241]],[[250.91983,223.21395],[0.69036,0],[-1.38071,0]],[[248.41983,220.71395],[0,1.38071],[0,-0.48518]],[[248.79723,219.39247],[-0.2392,0.3834],[0,0]],[[250.1857,217.07836],[0,0],[-0.45063,-0.10223]],[[248.66617,217.20178],[0.38176,-0.05951],[-1.94764,0.3036]],[[243.18759,218.98171],[1.48181,-1.38498],[-1.60327,1.4985]],[[242.40484,226.67794],[-0.11571,-2.32105],[2.30074,-0.03809]],[[249.41983,226.4899],[-2.43811,0.0108],[4.48962,0.22223]],[[259.8452,217.59493],[-2.30273,3.32457],[0.72553,-1.04748]],[[260.87745,215.20711],[-0.06636,0.6739],[0,0]]],&quot;closed&quot;:true}]}" fill="#ff8787" stroke="none" stroke-width="0.5"/><path d="M237.44193,226.48514c-0.08177,-0.00741 -0.22406,0.06463 -0.30619,0.05661c-0.91112,-0.08894 -1.84088,-0.11507 -2.75099,-0.01621c-0.39088,0.04246 -0.7411,0.59097 -1.09933,0.42892c-0.65813,-0.29771 -0.34563,-1.52359 -0.02382,-2.17028c0.67316,-1.35272 2.17783,-2.28067 2.56068,-3.74232c0.87066,-3.324 -2.71029,-8.36157 -3.59944,-11.80087c7.14765,1.52859 15.41774,1.96631 21.96256,-0.60062c3.25764,-2.41742 5.61883,-4.86028 7.2731,-7.98368c-0.08537,1.3807 -0.11451,2.74899 0.0159,4.05307c0.22821,2.28204 -0.04301,3.58082 -0.30982,5.49896l-1.04667,0.03046c-1.09979,-0.15008 -2.22424,-0.72789 -3.29743,-0.44451c-1.80833,0.4775 -3.06562,1.5227 -4.09137,2.90578c-3.95323,-1.81947 -10.59913,0.23534 -13.02825,2.73477c-3.0221,3.10957 -2.34406,7.07422 -2.25891,11.04991z" data-paper-data="{&quot;noHover&quot;:false,&quot;origItem&quot;:[&quot;Path&quot;,{&quot;applyMatrix&quot;:true,&quot;segments&quot;:[[[239.65206,215.44618],[-3.0221,3.10957],[2.42912,-2.49943]],[[252.67999,212.70987],[-3.95323,-1.81947],[1.02575,-1.38308]],[[256.86681,209.77588],[-1.80833,0.4775],[1.07319,-0.28338]],[[260.16616,210.22611],[-1.09979,-0.15008],[0,0]],[[261.1161,210.22098],[0,0],[0.26681,-1.91815]],[[261.43199,204.73625],[0.22821,2.28204],[-0.13041,-1.30408]],[[261.4214,200.69021],[-0.08537,1.3807],[-1.65427,3.1234]],[[254.14464,208.66931],[3.25763,-2.41742],[-6.54482,2.56694]],[[232.27057,209.25588],[7.14765,1.52859],[0.88915,3.4393]],[[235.86416,221.01454],[0.87066,-3.324],[-0.38285,1.46165]],[[233.30056,224.75284],[0.67316,-1.35272],[-0.32181,0.64668]],[[233.3214,226.91973],[-0.65813,-0.29771],[0.35823,0.16205]],[[234.41983,226.4899],[-0.39088,0.04246],[0.9101,-0.09886]],[[237.16617,226.50207],[-0.91112,-0.08894],[0.08213,0.00802]],[[237.41203,226.52521],[-0.08177,-0.00741],[-0.08515,-3.97569]]],&quot;closed&quot;:true}]}" fill="#5c0000" stroke="none" stroke-width="0.5"/><path d="M311.93266,94.03247c2.29041,1.0379 4.93613,1.89987 6.25429,4.28129c1.15553,2.08759 -2.70756,5.10863 -4.43812,5.52072c-1.32448,0.31539 -2.07602,-1.77318 -3.02232,-2.75208c-2.8118,-2.93422 -5.54052,-6.41735 -8.65179,-9.13871c-0.22026,-0.36821 -0.50188,-0.6525 -1.08012,-0.90528c-0.52042,-0.40886 -1.13472,-0.85552 -1.68436,-1.21646c4.37867,0.09255 9.48748,2.78993 12.62242,4.21052z" data-paper-data="{&quot;noHover&quot;:false,&quot;origItem&quot;:[&quot;Path&quot;,{&quot;applyMatrix&quot;:true,&quot;segments&quot;:[[[299.35051,89.85157],[4.37867,0.09255],[0.54964,0.36094]],[[300.95437,91.0087],[-0.52042,-0.40886],[0.57824,0.25279]],[[302.11525,91.97296],[-0.22026,-0.36821],[3.11127,2.72137]],[[310.70629,101.03666],[-2.8118,-2.93422],[0.9463,0.9789]],[[313.72015,103.79352],[-1.32448,0.31539],[1.73056,-0.41209]],[[318.13756,98.30595],[1.15553,2.08759],[-1.31817,-2.38142]],[[311.89569,94.06613],[2.29041,1.0379],[-3.13495,-1.4206]]],&quot;closed&quot;:true}]}" fill="#fffffc" stroke="none" stroke-width="0.5"/><path d="M246.80445,99.22123c0.51974,0.69938 0.98415,1.31769 1.16315,1.54957c0.54709,0.70867 2.14039,1.36845 1.66655,2.12805c-0.17896,0.28688 -0.67139,0.12979 -0.97949,0.26909c-1.31929,0.59647 -2.64196,1.28459 -3.91659,1.97132c-2.32918,1.25487 -4.55414,2.6364 -6.54272,4.23919c-0.39689,-4.7627 -0.79775,-9.60348 -1.19464,-14.36618c2.62886,0.77621 5.0324,1.50802 7.17325,3.56635l1.7837,0.63364c0,0 0.42392,0.14467 0.84678,0.00896z" data-paper-data="{&quot;noHover&quot;:false,&quot;origItem&quot;:[&quot;Path&quot;,{&quot;applyMatrix&quot;:true,&quot;segments&quot;:[[245.92477,99.24992],[[244.16289,98.62738],[0,0],[-2.14085,-2.05832]],[[237.03384,95.04972],[2.62886,0.77621],[0.39689,4.7627]],[[238.22452,109.33783],[-0.39689,-4.7627],[1.98859,-1.60278]],[[244.7168,105.09401],[-2.32918,1.25487],[1.27463,-0.68672]],[[248.6055,103.1589],[-1.31929,0.59647],[0.3081,-0.1393]],[[249.58447,102.89327],[-0.17896,0.28688],[0.47384,-0.7596]],[[247.91983,100.78553],[0.54709,0.70867],[-0.179,-0.23188]],[[246.76657,99.25385],[0.51974,0.69938],[-0.42287,0.13571]]],&quot;closed&quot;:true}]}" fill="#fffffc" stroke="none" stroke-width="0.5"/><path d="M231.93246,91.27205c-0.88273,-0.06932 -1.91705,0.09696 -2.759,0.07565c-5.16854,-0.1308 -11.01909,2.34456 -14.70818,5.417c-0.13343,0.11113 -0.06098,-0.31305 -0.10723,-0.48043c-0.13721,-0.49657 -0.46003,-0.94632 -0.53106,-1.45658c-0.31218,-2.24282 -0.13366,-3.82129 1.11754,-5.65016c2.81126,-4.10923 8.15915,-4.63988 12.53657,-5.97721c4.32662,3.08294 10.41574,3.98685 14.35065,7.47641c0.99986,0.8867 2.40664,1.62319 2.76508,2.91062c0.17601,0.63219 -0.10163,1.33846 -0.08926,1.99062c-2.60207,-2.09129 -5.93398,-2.59749 -9.19443,-3.66632l-0.8244,-0.87157c0,0 -1.39996,-0.71736 -2.55628,0.23196z" data-paper-data="{&quot;noHover&quot;:false,&quot;origItem&quot;:[&quot;Path&quot;,{&quot;applyMatrix&quot;:true,&quot;segments&quot;:[[234.53786,91.04946],[[235.36094,91.92634],[0,0],[3.26046,1.06883]],[[244.46056,95.56095],[-2.60207,-2.09129],[-0.01237,-0.65216]],[[244.54812,93.5761],[0.17601,0.63219],[-0.35844,-1.28743]],[[241.78182,90.67416],[0.99986,0.8867],[-3.93491,-3.48956]],[[227.49314,83.24885],[4.32662,3.08294],[-4.37742,1.33733]],[[214.99445,89.1805],[2.81126,-4.10923],[-1.25119,1.82887]],[[213.87472,94.81276],[-0.31218,-2.24282],[0.07102,0.51027]],[[214.40412,96.26481],[-0.13721,-0.49657],[0.04625,0.16738]],[[214.41983,96.78553],[-0.13343,0.11113],[3.68909,-3.07244]],[[229.17348,91.2977],[-5.16854,-0.1308],[0.84195,0.02131]],[[231.8869,91.25146],[-0.88273,-0.06932],[1.15632,-0.94932]]],&quot;closed&quot;:true}]}" fill="#fffffc" stroke="none" stroke-width="0.5"/><path d="M254.29408,109.93974c-2.53531,1.48167 -4.41653,4.52088 -5.23106,7.09243c-0.53348,1.68425 -0.86028,3.46196 -1.00856,5.22681c-2.62455,-0.96359 -5.87153,-0.5736 -8.39264,0.81296c-0.63443,0.34892 -1.23022,0.74413 -1.78644,1.18153c0.43186,-1.24662 0.5039,-2.58338 -0.26323,-4.06176c-0.03679,-0.07089 -0.07486,-0.14116 -0.11312,-0.20881c1.12652,-0.07949 1.12507,-1.24874 1.12507,-1.24874l-0.09717,-1.02703c1.93914,-1.58122 4.18639,-4.63778 6.55745,-2.12172c0,0 0.81991,0.84878 1.70379,-0.03511c0.88388,-0.88389 0.0105,-1.6705 0.0105,-1.6705c-1.40918,-1.35486 -2.8152,-1.86548 -4.1265,-1.71522c1.38571,-0.99223 2.90634,-1.90415 4.45466,-2.73739c1.09512,-0.58935 4.2506,-1.84147 6.00839,-3.3261c0.88833,0.25225 1.79086,0.45055 2.69217,0.61247c-0.64774,0.24407 -1.36098,0.59969 -2.00099,0.91862c0,0 -1.04627,0.48949 -0.48726,1.60753c0.25404,0.50808 0.6274,0.67476 0.95495,0.70001z" data-paper-data="{&quot;noHover&quot;:false,&quot;origItem&quot;:[&quot;Path&quot;,{&quot;applyMatrix&quot;:true,&quot;segments&quot;:[[[253.30179,109.27296],[0.25404,0.50808],[-0.55901,-1.11804]],[[253.86081,107.59591],[0,0],[0.64002,-0.31892]],[[255.79067,106.74751],[-0.64774,0.24407],[-0.90131,-0.16192]],[[253.10621,106.14182],[0.88833,0.25225],[-1.75779,1.48463]],[[247.12285,109.47704],[1.09512,-0.58935],[-1.54832,0.83324]],[[242.71208,112.19471],[1.38571,-0.99223],[1.3113,-0.15027]],[[246.80371,113.83006],[-1.40918,-1.35486],[0,0]],[[246.80371,115.59783],[0.88388,-0.88389],[-0.88388,0.88389]],[[245.03594,115.59783],[0,0],[-2.37106,-2.51606]],[[238.57467,117.6923],[1.93914,-1.58122],[0,0]],[238.66983,118.71395],[[237.54331,119.95969],[1.12652,-0.07949],[0.03826,0.06765]],[[237.65589,120.16749],[-0.03679,-0.07089],[0.76713,1.47837]],[[237.91017,124.21755],[0.43186,-1.24662],[0.55622,-0.4374]],[[239.69501,123.03453],[-0.63443,0.34892],[2.52111,-1.38656]],[[248.04484,122.2099],[-2.62455,-0.96359],[0.14828,-1.76485]],[[249.02347,117.00158],[-0.53348,1.68425],[0.81453,-2.57155]],[[254.25287,109.96804],[-2.53531,1.48167],[-0.32754,-0.02526]]],&quot;closed&quot;:true}]}" fill="#fffffc" stroke="none" stroke-width="0.5"/><path d="M204.20035,186.67791c-0.00161,0.01148 -0.00312,0.02319 -0.00458,0.03472l-0.70446,4.94243l0.3557,0.05033l-0.30472,0.92823c1.6091,2.41104 3.28341,4.71401 5.02668,7.02703c1.69254,1.69964 3.16585,4.43833 5.59371,4.35177c-1.00262,0.82622 -1.50903,2.2016 -2.58646,2.92826c-1.67237,1.12791 -5.93614,1.76074 -7.84693,1.2238c-3.32864,-0.93536 -3.32352,-7.3605 -4.51063,-9.64783c-0.606,-1.16765 -1.38818,-2.32725 -2.45835,-3.09234c-0.78382,-0.56037 -1.95486,-0.27369 -2.83375,-0.66858c-2.8965,-1.3014 -5.67391,-3.11397 -8.28862,-5.0276c-2.44054,-3.33468 -5.60747,-6.18553 -7.52337,-9.87122c-0.57929,-1.1144 -1.09452,-2.13617 -0.78164,-3.42172c0.50863,-2.08981 1.50197,-5.16895 3.20051,-6.6017c0.52625,-0.4439 1.2925,-0.71643 2.02,-1.0817c0.66156,2.29772 1.66399,6.70846 3.48472,8.38228c3.29015,3.02469 9.79922,5.28836 13.82739,7.25712c1.45026,0.70881 2.82651,1.74977 4.3348,2.2867z" data-paper-data="{&quot;noHover&quot;:false,&quot;origItem&quot;:[&quot;Path&quot;,{&quot;applyMatrix&quot;:true,&quot;segments&quot;:[[[199.83002,184.42638],[1.45026,0.70881],[-4.02817,-1.96875]],[[186.07053,177.1722],[3.29015,3.02469],[-1.82073,-1.67382]],[[182.52575,168.71018],[0.66156,2.29772],[-0.7275,0.36527]],[[180.56497,169.87232],[0.52625,-0.4439],[-1.69854,1.43275]],[[177.37472,176.46267],[0.50863,-2.08981],[-0.31288,1.28555]],[[178.15944,179.87899],[-0.57929,-1.1144],[1.9159,3.68569]],[[185.68759,189.72213],[-2.44054,-3.33468],[2.61471,1.91362]],[[193.94025,194.70764],[-2.8965,-1.3014],[0.87889,0.39488]],[[196.75275,195.37488],[-0.78382,-0.56037],[1.07017,0.7651]],[[199.20209,198.46948],[-0.606,-1.16765],[1.18711,2.28733]],[[203.71039,208.11819],[-3.32864,-0.93536],[1.91079,0.53694]],[[211.5436,206.9028],[-1.67237,1.12791],[1.07743,-0.72666]],[[214.1244,203.98027],[-1.00262,0.82622],[-2.42785,0.08657]],[[208.53119,199.62791],[1.69254,1.69964],[-1.74328,-2.31303]],[[203.49804,192.61035],[1.6091,2.41104],[0,0]],[203.80047,191.68714],[203.44495,191.63635],[[204.14686,186.72299],[0,0],[0.00146,-0.01154]],[[204.15148,186.68845],[-0.00161,0.01148],[-1.50829,-0.53693]]],&quot;closed&quot;:true}]}" fill="#fffffc" stroke="none" stroke-width="0.5"/><path d="M245.89235,266.38626l0.85719,-1.7931c0.33334,-0.83333 0.66634,-1.66672 0.99967,-2.50006c0,0 0.0056,-0.01401 0.01485,-0.04028c0.98771,0.0014 1.9632,-0.03021 2.9086,-0.12466c4.62232,-0.46183 9.05433,-2.26063 13.59214,-3.01239c2.08873,-0.34603 4.4498,-0.25699 6.17,-1.49125c2.22943,-1.59964 3.32104,-4.36646 4.91596,-6.59927c6.22329,-8.7123 12.32591,-18.76226 14.49241,-29.38641c0.95342,-4.77626 1.36956,-9.48829 1.475,-14.22034c0.32308,0.15233 0.6836,0.23798 1.06447,0.23798c1.2115,0 2.21936,-0.85892 2.44877,-2.0029l0.98641,-4.44774l-0.01411,-0.00314c0.00928,-0.02077 0.0185,-0.04148 0.02771,-0.06229c0.00468,-0.01056 0.98703,-5.93989 1.00153,-6.01962c0.98032,-5.3903 2.51263,-10.95041 2.5369,-16.42936l0.00002,-0.49934c0,0 0.00029,-2.49636 -2.49971,-2.49636c-2.5,0 -2.40041,2.49163 -2.40041,2.49163l0.00003,0.50076c0.01742,3.22706 -0.59408,6.54627 -1.2782,9.81059c-0.06014,-0.62071 -0.24382,-1.26086 -0.38185,-1.86914c-0.27148,-1.19636 -0.69951,-2.34718 -1.01002,-3.534c-0.26785,-1.02374 0.00161,-2.31693 -0.72571,-3.08557c-0.16712,-0.17661 -0.34409,-0.34016 -0.52913,-0.49456l0.09272,-0.09256l-1.99981,-1.99629c-0.45241,-0.45241 -0.97799,-0.74287 -1.66835,-0.74287c-1.38071,0 -2.49964,1.12401 -2.49964,2.50472l-0.00014,2.50543l0.14842,-0.00003l-0.11621,0.40134c1.32563,4.08632 1.18743,7.04012 1.46559,11.25708c0.61125,9.26686 0.86311,18.22296 -0.97413,27.39069c-1.93523,9.90836 -7.91032,19.37653 -13.69451,27.47469c-1.31138,1.83601 -2.15389,4.10367 -3.89569,5.53782c-1.16557,0.9597 -2.52157,0.2895 -3.82862,0.5086c-4.46852,0.74906 -8.86209,2.5324 -13.40823,2.9875c-2.363,0.23655 -4.90686,-0.01037 -7.28534,0.03209c-2.35455,-0.99777 -4.54268,-1.90827 -6.24748,-3.47466c-0.06515,-0.11401 -0.14148,-0.23001 -0.22974,-0.34769c-0.24812,-0.33082 -0.51051,-0.56609 -0.77467,-0.72802c-0.01561,-0.01962 0.00227,-0.13358 -0.01323,-0.15338c0.37166,-0.17272 0.74015,-0.36216 1.10645,-0.56951c0,0 2.11112,-1.19171 0.82488,-3.33544c-1.28624,-2.14373 -3.43222,-0.85834 -3.43222,-0.85834c-0.11219,0.07362 -0.22625,0.1441 -0.34178,0.21167c-0.09329,-0.79261 -0.04156,-1.59049 0.28374,-1.64854c1.74165,-0.3108 4.53504,0.26675 6.37794,0.26247c4.77173,-0.01107 8.68663,-0.60515 12.746,-2.77466c1.08793,-0.20299 2.14076,-0.49163 3.14453,-0.89568c2.67888,-1.07834 5.09125,-3.33095 7.3603,-5.06417l0.09051,-0.37399l0.14152,0.10623l1.48345,-1.97972c0.32311,-0.42123 0.52279,-0.84858 0.52279,-1.42049c0,-1.38071 -1.12149,-2.49987 -2.5022,-2.49987c-0.69036,0 -1.31707,0.27986 -1.76948,0.73227l-2.00184,1.99997l0.13227,0.13215c-2.77911,1.3422 -5.43581,2.85605 -8.18538,4.50834c-0.0494,0.02969 -0.0988,0.05982 -0.148,0.09036c-3.75303,0.56986 -8.02082,0.03395 -11.54653,0.03395c-5.92997,0 -21.5117,0.22403 -18.23204,-9.98764c0.32437,-1.00997 2.0451,-0.8566 2.95918,-1.39485c0.84707,-0.49879 2.66639,-2.39035 3.78141,-3.88342c-0.44164,2.25802 0.48341,5.99233 2.13272,7.24623c1.07237,0.81528 4.64214,0.26055 6.15102,0.4154c4.40073,0.45162 8.36529,-0.01502 12.73608,0.00857c5.09589,-0.14595 7.34603,-2.80019 10.75784,-6.23351c1.84751,-1.85915 4.76249,-4.92218 5.5969,-7.47689c0.38883,-1.1905 -0.02518,-4.14372 0.115,-5.54408c0.15426,-1.54093 0.99968,-3.75464 1.00914,-5.24583c0.02164,-3.41177 -0.50435,-7.01133 -0.50435,-10.49892c0,-0.29729 0.00867,-5.65834 -0.05161,-5.97035c-0.69553,-3.6 -1.4773,-5.94771 -1.49412,-9.74296c-0.16667,-0.83334 -0.21662,-1.66136 -0.49737,-2.46348c-0.13443,-0.38411 -0.72856,-0.56444 -0.70906,-0.97092c0.01654,-0.34478 0.47325,0.59487 0.8099,0.67114c1.62548,0.36823 3.33872,0.02421 5.00536,0.01425c3.11801,-0.01864 6.0677,-0.42689 8.45623,-2.51032c0.62225,-0.4394 1.13971,-1.04808 1.57838,-1.74652c2.86442,-3.92137 3.63765,-9.62537 2.83944,-14.14895c-0.1908,-1.0813 -0.50898,-2.99369 -1.06717,-4.33971c0.41674,0.10773 0.89542,0.11346 1.18662,0.16942c0.61957,0.11908 1.24435,0.2189 1.86956,0.30281l1.82518,1.19137c0.3986,0.26872 0.88007,0.42696 1.39696,0.42696c1.38071,0 2.42425,-1.054 2.42425,-2.43471c0,-0.85981 -0.43204,-1.61607 -1.09299,-2.06596l-4.06269,-2.84293l-0.06115,0.08734l-0.18328,-0.23821c-2.91877,-1.18634 -6.4875,-3.45473 -9.79563,-2.03027c-0.62645,0.26975 -1.38786,1.25706 -2.11124,2.40974l-1.74411,1.31013c-0.62045,0.45492 -0.99191,1.09419 -0.99191,1.92251c0,1.38071 1.12492,2.50221 2.50563,2.50221c0.34826,0 0.68125,-0.07055 0.98248,-0.19921l1.97347,-0.78734c-0.09481,0.92069 0.40364,2.27968 0.64353,3.16415c0.91132,3.36005 1.72751,5.11777 1.01408,8.64963c-0.21263,0.57509 -0.29369,1.28576 -0.40062,1.97157c-0.39504,0.91162 -0.90038,1.76697 -1.53104,2.52587c-0.37426,0.00445 -0.85405,-0.22427 -1.24399,-0.25078c-3.30737,-0.22486 -7.20761,-0.81816 -10.46946,-0.47966c-1.43566,0.14899 -3.19928,-0.2642 -4.24414,0.7316c-0.98579,0.93952 -0.45458,2.67591 -0.705,4.01448c-0.70243,3.75459 -1.12288,8.4276 0.16707,12.11477c0.23167,0.66219 1.16639,0.92023 1.36223,1.59389c0.13823,0.4755 -0.38487,1.02007 -0.51771,1.4971c-0.36339,1.30489 -0.66693,2.62581 -0.98712,3.94197c-1.07396,4.41457 -3.16966,7.15179 -6.80802,9.92439c-2.36916,0.982 -3.99247,0.43942 -6.53015,0.68716c-5.02079,0.49015 -10.12481,-0.0802 -15.09275,-1.43144c-1.73212,-0.47113 -3.27235,-1.52824 -5.00307,-2.00451c-3.64646,-1.00344 -6.10445,-1.93866 -9.03949,-4.48899c-1.7988,-1.56302 -3.34257,-3.59235 -4.40038,-5.72875c-0.3993,-0.80647 -0.43506,-1.81147 -1.00372,-2.50894c-0.04405,-0.05403 -0.08859,-0.10783 -0.13351,-0.16106l0.03338,-0.0203l-1.74214,-2.86847c1.4508,-0.48082 2.8295,-0.93975 2.9652,-0.98913c3.93286,-1.43107 7.92078,-2.91525 10.61037,-6.31556c0.53732,-0.6793 3.31566,-5.64531 3.59813,-6.14183c1.33993,-1.73668 2.43501,-3.77716 2.88644,-5.92372c0.83966,-3.99263 1.01307,-8.78312 -1.35795,-12.37783c-4.66408,-7.07123 -17.12839,-8.87586 -24.7579,-9.55587c-1.30415,-0.11624 -2.85122,-0.22177 -4.31992,-0.22491c4.78354,-1.064 9.35617,-3.90534 14.23823,-4.35665c4.53545,-0.41926 8.42611,0.65638 12.64348,1.5429c0.55077,0.28842 1.04104,0.35308 1.46301,0.29364c0.24903,0.04742 0.49988,0.09323 0.75206,0.13773c6.18009,1.09053 14.18456,0.07866 20.10408,-1.57389c0,0 1.44137,-0.41191 1.7746,-1.71122c1.34994,-0.18883 1.80971,-1.20875 1.9645,-1.87734c3.04201,3.33367 7.89061,6.20805 12.5377,5.56688c0.08958,0.14026 0.17263,0.22308 0.17263,0.22308c1.16744,1.01836 3.01467,1.17063 4.5511,0.97227c1.43691,-0.18552 2.95698,-0.13673 4.29653,-0.68876c2.71118,-1.11727 5.11899,-4.42947 7.11576,-6.50631l0.58329,-1.6699c0,0 0.39653,-1.18535 -0.78933,-1.58063c-1.18586,-0.39529 -1.58,0.791 -1.58,0.791l-0.37753,1.23809c-1.70674,1.60838 -3.67352,4.61897 -5.88481,5.49326c-1.18,0.46654 -2.51471,0.31962 -3.76238,0.55062c-0.46835,0.08671 -1.05542,0.20521 -1.55591,0.15184c0.42505,-0.34657 0.84771,-0.82805 1.29177,-1.13482c2.1299,-1.62692 2.76945,-1.70901 4.15948,-4.17727c3.48399,-6.18646 0.42949,-11.59492 -1.99642,-17.50998c-0.71789,-1.75043 -1.13865,-3.6626 -2.1917,-5.23437c-1.84366,-2.75183 -7.54758,-4.58328 -11.16012,-4.09691c2.94971,-0.96929 5.05783,-0.32474 8.48312,0.25179c1.21816,0.20503 2.90517,0.41461 3.94436,1.25976c0.75081,0.61061 1.3105,1.44462 2.01639,2.10161c0.02959,0.29152 0.20598,1.15538 1.24503,1.15538c1.25,0 1.23278,-1.1515 1.23278,-1.1515l-0.55604,-1.53996c-0.11538,-0.07435 -0.20846,-0.25429 -0.31357,-0.34107c1.39938,0.30316 2.78402,0.60878 4.21133,1.1759c1.04701,0.41601 4.207,2.5083 6.33219,3.53019c0.2859,0.96649 0.77491,1.95186 1.60307,3.15069l1.73385,1.76843c0,0 1.77002,1.76879 3.53779,0.00103c1.76776,-1.76776 -0.04271,-3.44512 -0.04271,-3.44512l-1.26667,-1.23175c-1.51017,-1.72737 -1.05477,-2.92725 -1.00271,-5.12286c1.08841,-3.18651 1.26184,-7.3988 1.92194,-10.73429c0.90954,-2.71701 1.82616,-5.81412 3.86327,-7.95716l1.23622,1.00463c0.69135,0.29258 1.36121,0.65772 2.01021,1.07897c-0.81405,2.18718 -1.59933,4.60421 -1.95733,6.73832c-0.31252,1.86302 0.29342,3.76779 0.48139,5.64747c0.42296,4.22965 0.72292,8.56294 1.54066,12.74619l-0.04841,0.50979c0,0 0.00211,2.50132 2.50211,2.50132c2.5,0 2.4444,-2.41688 2.4444,-2.41688l0.03728,-0.65176l3.01978,-0.43036c2.64448,-1.98337 5.25104,-3.32806 6.35057,-6.75172c0.01205,-0.03751 0.08182,-0.20281 0.091,-0.32524c2.93533,4.00146 6.71011,10.06111 2.0432,13.59722c-2.19261,1.66134 -6.57624,1.05938 -9.04518,1.05938l-1.49932,0.00054c0,0 -2.43892,-0.07918 -2.43892,2.42082c0,1.33962 0.71936,1.96262 1.38572,2.25123c0.0676,0.11414 0.11593,0.17851 0.11593,0.17851c2.96875,3.95508 5.20017,8.3052 7.93342,12.40347c1.22514,1.837 3.44307,3.71187 4.33873,5.72185c1.19878,2.69021 1.38192,5.90441 2.35982,8.65216c1.08038,3.03572 2.68571,5.91897 3.37767,9.06602c1.07603,4.89381 1.01446,9.96602 1.02044,14.94314c1.74123,8.90754 2.42965,17.40587 2.98714,26.41084c0.77549,12.5265 1.01449,25.00589 -1.46679,37.38732c-1.05338,5.38871 -0.05265,10.57986 -0.05265,15.99369l-0.00051,2.19095c-8.0328,0.3074 -16.3463,1.60177 -24.21012,2.95422c-2.69454,0.46342 -5.63725,-0.04781 -8.38992,0.34386c-9.09744,0.32448 -17.88083,-0.60585 -26.72808,-1.83994c-3.6667,-0.51146 -7.15361,1.02772 -10.70638,0.9836c-1.90552,0 -4.32529,-0.00052 -6.52229,-0.00052z" data-paper-data="{&quot;noHover&quot;:false,&quot;origItem&quot;:[&quot;Path&quot;,{&quot;applyMatrix&quot;:true,&quot;segments&quot;:[[[252.41983,266.33704],[-1.90552,0],[3.55277,0.04412]],[[263.12005,265.35318],[-3.6667,-0.51146],[8.84724,1.23409]],[[289.83368,267.19555],[-9.09744,0.32448],[2.75267,-0.39168]],[[298.2196,266.85318],[-2.69454,0.46342],[7.86382,-1.35246]],[[322.41983,263.90452],[-8.0328,0.3074],[0,0]],[[322.41983,261.71395],[0,0],[0,-5.41383]],[[322.46837,245.72366],[-1.05338,5.38871],[2.48129,-12.38144]],[[323.92365,208.3522],[0.77549,12.5265],[-0.55748,-9.00498]],[[320.93199,181.96029],[1.74123,8.90754],[-0.00597,-4.97711]],[[319.91265,167.02964],[1.07603,4.89381],[-0.69196,-3.14705]],[[316.53733,157.97138],[1.08038,3.03572],[-0.97789,-2.74775]],[[314.18069,149.32583],[1.19878,2.69021],[-0.89567,-2.00999]],[[309.8452,143.60892],[1.22514,1.837],[-2.73325,-4.09828]],[[301.91983,131.21395],[2.96875,3.95508],[0,0]],[[301.80402,131.03554],[0.0676,0.11414],[-0.66636,-0.2886]],[[300.41983,128.78553],[0,1.33962],[0,-2.5]],[302.91983,126.28553],[[304.41983,126.28553],[0,0],[2.46894,0]],[[313.39911,125.30124],[-2.19261,1.66134],[4.6669,-3.53611]],[[311.36085,111.70817],[2.93533,4.00146],[-0.00918,0.12243]],[[311.32911,111.95286],[0.01205,-0.03751],[-1.09953,3.42366]],[[304.91983,118.78553],[2.64448,-1.98337],[0,0]],[301.9013,119.21675],[301.91983,119.78553],[[299.41983,122.28553],[2.5,0],[-2.5,0]],[296.91983,119.78553],[[296.96837,119.27582],[0,0],[-0.81774,-4.18326]],[[295.43199,106.53187],[0.42296,4.22965],[-0.18797,-1.87968]],[[294.95211,100.88507],[-0.31252,1.86302],[0.358,-2.13411]],[[296.90985,94.14693],[-0.81405,2.18718],[-0.649,-0.42125]],[[294.90077,93.06841],[0.69135,0.29258],[0,0]],[[293.66531,92.06407],[0,0],[-2.03711,2.14305]],[[289.83607,99.9272],[0.90954,-2.71701],[-0.6601,3.33549]],[[287.91527,110.66191],[1.08841,-3.18651],[-0.05206,2.19562]],[[288.91983,115.78553],[-1.51017,-1.72737],[0,0]],[290.18759,117.01776],[[290.18759,120.5533],[1.76776,-1.76776],[-1.76776,1.76776]],[286.65206,120.5533],[[284.91983,118.78553],[0,0],[-0.82817,-1.19883]],[[283.31858,115.6355],[0.2859,0.96649],[-2.12518,-1.02189]],[[276.99135,112.10672],[1.04701,0.41601],[-1.4273,-0.56712]],[[272.7831,110.93143],[1.39938,0.30316],[0.10511,0.08678]],[[273.1132,111.17388],[-0.11538,-0.07435],[0,0]],[273.66983,112.71395],[[272.41983,113.96395],[1.25,0],[-1.03905,0]],[[271.17583,112.80873],[0.02959,0.29152],[-0.70589,-0.65699]],[[269.16108,110.70733],[0.75081,0.61061],[-1.0392,-0.84515]],[[265.2196,109.44781],[1.21816,0.20503],[-3.42529,-0.57653]],[[256.73582,109.0962],[2.94971,-0.96929],[3.61254,-0.48637]],[[267.90412,113.19323],[-1.84366,-2.75183],[1.05304,1.57177]],[[270.09797,118.42785],[-0.71789,-1.75043],[2.42591,5.91505]],[[272.09924,135.93875],[3.48399,-6.18646],[-1.39003,2.46826]],[[267.91983,140.21395],[2.1299,-1.62692],[-0.44407,0.30677]],[[266.64285,141.24988],[0.42505,-0.34657],[0.50049,0.05337]],[[268.20068,141.09834],[-0.46835,0.08671],[1.24768,-0.23101]],[[271.96743,140.54868],[-1.18,0.46654],[2.21129,-0.87428]],[[277.85651,135.05678],[-1.70674,1.60838],[0,0]],[278.23397,133.81866],[[279.81511,133.02809],[-1.18586,-0.39529],[1.18586,0.39529]],[280.60568,134.60923],[[279.98314,136.37111],[0,0],[-1.99678,2.07683]],[[272.87222,142.87921],[2.71118,-1.11727],[-1.33956,0.55202]],[[268.58083,143.56927],[1.43691,-0.18552],[-1.53643,0.19836]],[[264.03594,142.59783],[1.16744,1.01836],[0,0]],[[263.86357,142.37477],[0.08958,0.14026],[-4.64709,0.64117]],[[251.34058,136.80666],[3.04201,3.33367],[-0.15479,0.6686]],[[249.37873,138.68329],[1.34994,-0.18883],[-0.33323,1.29931]],[[247.60663,140.39371],[0,0],[-5.91952,1.65255]],[[227.51937,141.95762],[6.18009,1.09053],[-0.25218,-0.0445]],[[226.76765,141.81957],[0.24903,0.04742],[-0.42197,0.05945]],[[225.30525,141.52537],[0.55077,0.28842],[-4.21737,-0.88652]],[[212.66617,139.97773],[4.53545,-0.41926],[-4.88206,0.45131]],[[198.43277,144.32728],[4.78354,-1.064],[1.46871,0.00313]],[[202.66617,144.50206],[-1.30415,-0.11624],[7.62951,0.68001]],[[227.50693,154.11367],[-4.66408,-7.07123],[2.37102,3.59472]],[[228.87128,166.48019],[0.83966,-3.99263],[-0.45143,2.14656]],[[225.98747,172.39519],[1.33993,-1.73668],[-0.28247,0.49652]],[[222.39034,178.52843],[0.53732,-0.6793],[-2.68959,3.40032]],[[211.77972,184.83736],[3.93286,-1.43107],[-0.13571,0.04938]],[[208.81444,185.82586],[1.4508,-0.48082],[0,0]],[210.55616,188.69141],[[210.52278,188.7117],[0,0],[0.04492,0.05323]],[[210.65625,188.87259],[-0.04405,-0.05403],[0.56866,0.69746]],[[211.65944,191.37899],[-0.3993,-0.80647],[1.05781,2.1364]],[[216.05783,197.10127],[-1.7988,-1.56302],[2.93504,2.55033]],[[225.09346,201.58237],[-3.64646,-1.00344],[1.73072,0.47627]],[[230.09346,203.58237],[-1.73212,-0.47113],[4.96794,1.35124]],[[245.17348,205.00207],[-5.02079,0.49015],[2.53768,-0.24774]],[[251.69501,204.31049],[-2.36916,0.982],[3.63835,-2.7726]],[[258.49447,194.38356],[-1.07396,4.41457],[0.32019,-1.31616]],[[259.48073,190.44143],[-0.36339,1.30489],[0.13284,-0.47703]],[[259.98176,189.04292],[0.13823,0.4755],[-0.19583,-0.67366]],[[258.61013,187.44661],[0.23167,0.66219],[-1.28996,-3.68717]],[[258.43199,175.24356],[-0.70243,3.75459],[0.25043,-1.33857]],[[259.15206,171.22213],[-0.98579,0.93952],[1.04485,-0.9958]],[[263.41983,170.4899],[-1.43566,0.14899],[3.26185,-0.33849]],[[273.91983,170.9899],[-3.30737,-0.22486],[0.38993,0.02651]],[[275.08015,171.29538],[-0.37426,0.00445],[0.63066,-0.7589]],[[276.61318,168.77251],[-0.39504,0.91162],[0.10693,-0.68581]],[[277.01587,166.80362],[-0.21263,0.57509],[0.71342,-3.53187]],[[276.01229,158.16354],[0.91132,3.36005],[-0.23989,-0.88448]],[[275.37222,155.00152],[-0.09481,0.92069],[0,0]],[[273.40094,155.79003],[0,0],[-0.30123,0.12866]],[[272.41983,155.9899],[0.34826,0],[-1.38071,0]],[[269.91983,153.4899],[0,1.38071],[0,-0.82832]],[[270.9431,151.47244],[-0.62045,0.45492],[0,0]],[[272.68906,150.16297],[0,0],[0.72338,-1.15268]],[[274.80179,147.75383],[-0.62645,0.26975],[3.30813,-1.42445]],[[284.60875,149.79071],[-2.91877,-1.18634],[0,0]],[284.79234,150.02916],[284.85348,149.94182],[[288.92098,152.78907],[0,0],[0.66095,0.44988]],[[290.01598,154.85721],[0,-0.85981],[0,1.38071]],[[287.51598,157.35721],[1.38071,0],[-0.51689,0]],[[286.12023,156.93162],[0.3986,0.26872],[0,0]],[[284.2973,155.74253],[0,0],[-0.62521,-0.08391]],[[282.42953,155.44135],[0.61957,0.11908],[-0.2912,-0.05596]],[[281.30716,155.19532],[0.41674,0.10773],[0.5582,1.34602]],[[282.37886,159.5392],[-0.1908,-1.0813],[0.79821,4.52358]],[[279.55087,173.70718],[2.86442,-3.92137],[-0.43867,0.69844]],[[277.97345,175.45699],[0.62225,-0.4394],[-2.38853,2.08343]],[[269.41983,177.9899],[3.11801,-0.01864],[-1.66663,0.00996]],[[264.41983,177.9899],[1.62548,0.36823],[-0.33665,-0.07627]],[[263.68759,177.25767],[0.01654,-0.34478],[-0.0195,0.40648]],[[264.40765,178.24356],[-0.13443,-0.38411],[0.28075,0.80212]],[[264.90765,180.74356],[-0.16667,-0.83334],[0.01682,3.79524]],[[266.37471,190.51713],[-0.69553,-3.6],[0.06028,0.31201]],[[266.41983,196.4899],[0,-0.29729],[0,3.48759]],[[266.91983,206.9899],[0.02164,-3.41177],[-0.00946,1.49119]],[[265.90765,212.23625],[0.15426,-1.54093],[-0.14018,1.40036]],[[265.79153,217.78047],[0.38883,-1.1905],[-0.83441,2.55471]],[[260.18759,225.25767],[1.84751,-1.85915],[-3.41181,3.43332]],[[249.41983,231.4899],[5.09589,-0.14595],[-4.37079,-0.0236]],[[236.67348,231.47773],[4.40073,0.45162],[-1.50888,-0.15484]],[[230.51825,231.06007],[1.07237,0.81528],[-1.64931,-1.25389]],[[228.38134,223.81102],[-0.44164,2.25802],[-1.11502,1.49307]],[[224.59947,227.69409],[0.84707,-0.49879],[-0.91408,0.53825]],[[221.70209,229.01033],[0.32437,-1.00997],[-3.27965,10.21167]],[[239.91983,238.9899],[-5.92997,0],[3.52571,0]],[[251.45761,238.95365],[-3.75303,0.56986],[0.0492,-0.03054]],[[251.6055,238.86327],[-0.0494,0.02969],[2.74957,-1.6523]],[[259.7842,234.35428],[-2.77911,1.3422],[0,0]],[259.65206,234.22213],[[261.65206,232.22213],[0,0],[0.45241,-0.45241]],[[263.41983,231.4899],[-0.69036,0],[1.38071,0]],[[265.91983,233.9899],[0,-1.38071],[0,0.57191]],[[265.40467,235.5101],[0.32311,-0.42123],[0,0]],[263.91983,237.4899],[263.77819,237.38367],[[263.68759,237.75767],[0,0],[-2.26905,1.73322]],[[256.32132,242.82171],[2.67888,-1.07834],[-1.00376,0.40405]],[[253.17443,243.71714],[1.08793,-0.20299],[-4.05937,2.1695]],[[240.41983,246.4899],[4.77173,-0.01107],[-1.84289,0.00428]],[[234.03786,246.22597],[1.74165,-0.3108],[-0.3253,0.05805]],[[233.79196,247.78195],[-0.09329,-0.79261],[0.11553,-0.06758]],[[234.13359,247.57021],[-0.11219,0.07362],[0,0]],[[237.56356,248.42771],[-1.28624,-2.14373],[1.28624,2.14373]],[[236.70606,251.85768],[0,0],[-0.3663,0.20735]],[[235.59909,252.427],[0.37166,-0.17272],[0.01549,0.0198]],[[235.64575,252.48614],[-0.01561,-0.01962],[0.26416,0.16192]],[[236.41983,253.21395],[-0.24812,-0.33082],[0.08826,0.11767]],[[236.64936,253.56157],[-0.06515,-0.11401],[1.70479,1.5664]],[[242.89259,257.03501],[-2.35455,-0.99777],[2.37848,-0.04246]],[[250.17348,257.00207],[-2.363,0.23655],[4.54614,-0.4551]],[[263.57307,254.01407],[-4.46852,0.74906],[1.30705,-0.2191]],[[267.39911,253.50561],[-1.16557,0.9597],[1.7418,-1.43415]],[[271.29168,247.96814],[-1.31138,1.83601],[5.78419,-8.09815]],[[284.96837,220.49961],[-1.93523,9.90836],[1.83724,-9.16773]],[[285.92365,193.12815],[0.61125,9.26686],[-0.27816,-4.21696]],[[284.45211,181.89036],[1.32563,4.08632],[0,0]],[284.56824,181.4899],[284.41983,181.4899],[[284.41983,178.9899],[0,0],[0,-1.38071]],[[286.91983,176.4899],[-1.38071,0],[0.69036,0]],[[288.68759,177.22213],[-0.45241,-0.45241],[0,0]],[290.68759,179.22213],[[290.59488,179.31485],[0,0],[0.18505,0.1544]],[[291.12401,179.81026],[-0.16712,-0.17661],[0.72732,0.76863]],[[291.84944,182.90087],[-0.26785,-1.02374],[0.31052,1.18682]],[[292.85862,186.44012],[-0.27148,-1.19636],[0.13803,0.60828]],[[293.14335,188.28559],[-0.06014,-0.62071],[0.68412,-3.26432]],[[294.41983,178.4899],[0.01742,3.22706],[0,0]],[294.41983,177.9899],[[296.91983,175.4899],[-2.5,0],[2.5,0]],[299.41983,177.9899],[[299.41983,178.4899],[0,0],[-0.02427,5.47895]],[[296.87886,194.9406],[0.98032,-5.3903],[-0.0145,0.07973]],[[295.87393,200.96673],[0.00468,-0.01056],[-0.00921,0.0208]],[[295.84618,201.02909],[0.00928,-0.02077],[0,0]],[295.86029,201.03223],[[294.87097,205.48416],[0,0],[-0.22941,1.14398]],[[292.41983,207.4899],[1.2115,0],[-0.38087,0]],[[291.35492,207.25241],[0.32308,0.15233],[-0.10544,4.73205]],[[289.87128,221.48019],[0.95342,-4.77626],[-2.1665,10.62416]],[[275.36035,250.87433],[6.22329,-8.7123],[-1.59492,2.23281]],[[270.44054,257.47419],[2.22943,-1.59964],[-1.72021,1.23426]],[[264.26658,258.96574],[2.08873,-0.34603],[-4.53782,0.75176]],[[250.66617,261.97773],[4.62232,-0.46183],[-0.9454,0.09445]],[[247.75587,262.10214],[0.98771,0.0014],[-0.00924,0.02627]],[[247.74102,262.14242],[0,0],[-0.33334,0.83333]],[[246.74102,264.64242],[0.33334,-0.83333],[0,0]],[[245.90118,266.33704],[0,0],[2.197,0]]],&quot;closed&quot;:true}]}" fill="#fffffc" stroke="none" stroke-width="0.5"/><path d="M229.16983,177.71396c0,-0.69036 0.55964,-1.25 1.25,-1.25c0.69036,0 1.25,0.55964 1.25,1.25c0,0.69036 -0.55964,1.25 -1.25,1.25c-0.69036,0 -1.25,-0.55964 -1.25,-1.25z" fill="#000000" stroke="none" stroke-width="0.5"/><path d="M235.16983,188.21396c0,-0.69036 0.55964,-1.25 1.25,-1.25c0.69036,0 1.25,0.55964 1.25,1.25c0,0.69036 -0.55964,1.25 -1.25,1.25c-0.69036,0 -1.25,-0.55964 -1.25,-1.25z" fill="#000000" stroke="none" stroke-width="0.5"/><path d="M227.16983,191.21396c0,-0.69036 0.55964,-1.25 1.25,-1.25c0.69036,0 1.25,0.55964 1.25,1.25c0,0.69036 -0.55964,1.25 -1.25,1.25c-0.69036,0 -1.25,-0.55964 -1.25,-1.25z" fill="#000000" stroke="none" stroke-width="0.5"/><path d="M187.16983,181.71396c0,-0.69036 0.55964,-1.25 1.25,-1.25c0.69036,0 1.25,0.55964 1.25,1.25c0,0.69036 -0.55964,1.25 -1.25,1.25c-0.69036,0 -1.25,-0.55964 -1.25,-1.25z" fill="#000000" stroke="none" stroke-width="0.5"/><path d="M192.16983,188.21396c0,-0.69036 0.55964,-1.25 1.25,-1.25c0.69036,0 1.25,0.55964 1.25,1.25c0,0.69036 -0.55964,1.25 -1.25,1.25c-0.69036,0 -1.25,-0.55964 -1.25,-1.25z" fill="#000000" stroke="none" stroke-width="0.5"/><path d="M242.16983,249.71396c0,-0.69036 0.55964,-1.25 1.25,-1.25c0.69036,0 1.25,0.55964 1.25,1.25c0,0.69036 -0.55964,1.25 -1.25,1.25c-0.69036,0 -1.25,-0.55964 -1.25,-1.25z" fill="#000000" stroke="none" stroke-width="0.5"/><path d="M255.66983,252.21396c0,-0.69036 0.55964,-1.25 1.25,-1.25c0.69036,0 1.25,0.55964 1.25,1.25c0,0.69036 -0.55964,1.25 -1.25,1.25c-0.69036,0 -1.25,-0.55964 -1.25,-1.25z" fill="#000000" stroke="none" stroke-width="0.5"/><path d="M323.1354,219.44736c0,6.8029 -5.17016,12.31773 -11.54787,12.31773c-6.37771,0 -11.54787,-5.51484 -11.54787,-12.31773c0,-6.8029 5.17016,-12.31773 11.54787,-12.31773c6.37771,0 11.54787,5.51484 11.54787,12.31773z" fill="#000000" stroke="#000000" stroke-width="1"/><path d="M302.34107,256.3924c0,6.8029 -5.17016,12.31774 -11.54788,12.31774c-6.37772,0 -11.54787,-5.51484 -11.54787,-12.31774c0,-6.80289 5.17016,-12.31773 11.54787,-12.31773c6.37772,0 11.54788,5.51484 11.54788,12.31773z" fill="#000000" stroke="#000000" stroke-width="1"/><path d="M237.3639,101.31405l-1.27633,-9.66918l7.55551,-0.1359l3.36987,8.27349z" fill="#fffffc" stroke="none" stroke-width="0"/></g></g></svg>