<svg version="1.1" xmlns="http://www.w3.org/2000/svg" xmlns:xlink="http://www.w3.org/1999/xlink" width="135.79318" height="106.46459" viewBox="0,0,135.79318,106.46459"><defs><linearGradient x1="125.03787" y1="178.67621" x2="139.05985" y2="161.16122" gradientUnits="userSpaceOnUse" id="color-1"><stop offset="0" stop-color="#000000"/><stop offset="1" stop-color="#000000" stop-opacity="0"/></linearGradient></defs><g transform="translate(-13.94023,-136.82641)"><g stroke-miterlimit="10"><path d="M55.303,180.20725l15.34335,4.15723" fill="none" fill-rule="nonzero" stroke="#000000" stroke-width="6" stroke-linecap="round" stroke-linejoin="miter"/><path d="M78.5052,159.87041c0,0 7.79481,-1.06204 8.52169,-0.20882c1.31615,1.54489 6.8075,16.18258 6.8075,16.18258c0,0 -11.84681,3.06885 -14.23675,4.60345c-0.40071,0.25732 -10.32393,7.35552 -10.32393,7.35552" fill="none" fill-rule="nonzero" stroke="#000000" stroke-width="6" stroke-linecap="round" stroke-linejoin="miter"/><g><g><g stroke="#001026" stroke-width="1.2"><path d="M56.24686,173.48884l-25.37277,6.33485c0,0 0.52533,7.05516 -6.5352,7.82794c-0.40252,0.04405 -2.38584,0.20765 -3.34835,-2.60748c-0.92187,-2.69631 -0.83379,-8.3282 -0.7896,-10.38763c0.02053,-0.95651 0.4651,-2.46872 1.4307,-3.52608c0.97221,-1.06458 2.57763,-1.17785 3.47339,-1.29674c0.36484,-0.04843 28.77411,-5.93771 28.77411,-5.93771" fill="#bf0000" fill-rule="evenodd" stroke-linecap="round" stroke-linejoin="round"/><path d="M48.04704,164.49818c7.23589,-0.79197 8.0679,4.4907 8.37104,7.26045c0.13182,1.2044 2.03799,0.78489 -3.46188,2.60024c-1.21129,0.39981 -6.25089,1.54037 -10.46137,3.10309c-2.8832,1.07009 -5.33983,2.68342 -6.06255,3.02005c-1.70761,0.79532 -3.36271,0.78275 -3.36271,0.78275l1.04573,-1.16843c0,0 -0.73389,0.7759 -1.18922,1.10818c-1.41845,1.03512 -2.4879,1.82488 -2.4879,1.82488c0,0 -0.48627,-7.12149 -3.10305,-9.57126c-2.61678,-2.44975 -6.66951,-0.52197 -6.66951,-0.52197c0,0 0.10574,-5.3385 2.93574,-6.14285c0.69767,-0.1983 2.92315,0.33051 2.92315,0.33051c0,0 -0.19958,-0.58216 0.29045,-0.66729c0.2498,-0.04341 4.08207,0.26097 8.29659,-0.1202c5.54811,-0.50179 11.89292,-1.7241 12.93547,-1.83822z" fill="#000000" fill-rule="nonzero" stroke-linecap="butt" stroke-linejoin="miter"/></g><path d="M51.96999,154.83915c0.21042,-0.03801 -0.25397,1.24323 0.03614,3.96732c0.38271,3.59378 1.54043,9.0213 1.96411,10.53439c1.09867,3.92367 2.69284,4.39974 2.13503,4.50053c-2.06426,0.37299 -6.21352,-1.37559 -7.03505,-5.92235c-0.36104,-1.99808 -1.60533,-6.01737 -1.18482,-8.44358c0.53637,-3.09475 2.92752,-4.42723 4.08461,-4.63632z" fill="#004fd9" fill-rule="nonzero" stroke="#001026" stroke-width="1.2" stroke-linecap="butt" stroke-linejoin="miter"/><g fill-rule="nonzero" stroke-linecap="butt" stroke-linejoin="miter"><g fill="none" stroke="none" stroke-width="1" font-family="sans-serif" font-weight="normal" font-size="12" text-anchor="start"/><path d="M53.25645,154.17631c0,0 -0.1608,8.7676 0.3844,12.71393c0.54519,3.94636 2.34156,7.01782 2.34156,7.01782c0,0 -2.02895,0.30239 -4.24268,-1.19456c-1.71355,-1.15873 -3.64982,-3.5668 -4.13537,-6.94843c-0.44234,-3.08078 -0.25357,-6.60888 0.8489,-8.48993c1.67103,-2.85113 4.8032,-3.09884 4.8032,-3.09884z" fill="#000000" stroke="#001026" stroke-width="1.2"/></g><g stroke="#001026" stroke-width="1.2"><path d="M49.37016,164.35695c0,0 -30.41351,0.64501 -30.59408,0.04617c-0.51822,-1.71848 0.73897,-11.68255 0.73897,-11.68255l30.9536,2.16632" fill="#ffab19" fill-rule="evenodd" stroke-linecap="round" stroke-linejoin="round"/><path d="M50.0511,165.77475c0,0 -6.44123,0.06213 -9.83196,0.27909c-3.2522,0.20809 -10.11425,0.99717 -10.11425,0.99717c0,0 -4.8485,1.60463 -6.19786,0.84847c-0.62498,-0.35022 2.70661,-1.13651 2.70661,-1.13651c0,0 -3.75636,0.88272 -4.08693,0.96439c-2.30647,0.56984 -5.53728,-0.19495 -6.24021,-3.23503c-0.77177,-3.33782 -1.88183,-8.89405 -0.41544,-12.03037c0.62393,-1.33446 2.72129,-3.30916 5.25206,-3.19073c2.85403,0.13354 6.13554,2.45814 6.13554,2.45814l-3.51498,-2.06932c0,0 1.58544,-0.23804 2.80514,0.01224c1.36973,0.28104 5.01545,1.59247 5.01545,1.59247l19.90547,2.79397" fill="#000000" fill-rule="evenodd" stroke-linecap="round" stroke-linejoin="round"/><path d="M20.95351,166.47055c-1.69388,0.1398 -3.74104,-0.29059 -4.95638,-1.65551c-1.21984,-1.36998 -2.02391,-10.4747 -0.9654,-12.04009c1.00522,-1.48658 3.11865,-2.31954 4.77183,-2.45598c3.39403,-0.2801 6.40289,3.10846 6.72042,7.5686c0.31754,4.46011 -2.17645,8.30284 -5.57052,8.58295z" fill="#ff0000" fill-rule="nonzero" stroke-linecap="butt" stroke-linejoin="miter"/></g></g><g fill="#000000" fill-rule="nonzero" stroke="#001026" stroke-width="1.2" stroke-linecap="butt" stroke-linejoin="miter"><path d="M42.01941,156.99681c0,0 -0.84022,-2.82836 -0.69757,-3.74686c0.04393,-0.28274 0.87333,-1.13259 1.92739,-1.65132c1.31557,-0.64742 3.00537,-0.93524 4.23513,-0.76612c3.16396,0.43518 7.07256,4.34008 6.7434,6.45954c-0.14265,0.91856 -2.31415,3.56164 -2.32016,3.56421"/></g></g><g fill-rule="nonzero" stroke-linecap="butt" stroke-linejoin="miter"><g stroke="none" stroke-width="1"><path d="M60.67856,175.34548c0.16964,-0.12719 0.31006,-0.07966 0.4649,0.00542c0.23353,0.15382 0.43159,0.35164 0.65326,0.52021c0.07488,-0.00973 0.14975,-0.01941 0.21147,-0.04056c1.33756,-0.3839 2.57962,-0.15053 3.79504,0.30987c0.25595,0.09828 0.52378,0.18193 0.7336,0.36511c0.03932,0.03437 0.10365,0.06546 0.15359,0.05897c0.27456,-0.03562 0.44506,0.11321 0.64056,0.25881c0.16923,0.12268 0.31479,0.27476 0.47217,0.41215c0.0918,0.08013 0.15994,0.18965 0.1545,0.33502c-0.00549,0.14534 0.06392,0.28101 0.12024,0.40516c0.39692,0.67176 0.67163,1.41196 0.83595,2.20592c0.08469,0.44926 0.0814,0.89677 0.06627,1.35895c-0.04667,1.36049 -0.46224,2.62418 -1.14559,3.80429c-0.31338,0.52719 -0.70415,1.01183 -1.14737,1.45066c-0.33538,0.33278 -0.73892,0.55607 -1.14374,0.75324c-1.28802,0.62733 -2.61334,0.74664 -3.94466,0.48538c-0.2534,-0.04604 -0.49752,-0.159 -0.74161,-0.27199c-0.16669,-0.0704 -0.33211,-0.11472 -0.52923,-0.03655c-0.17215,0.0749 -0.33756,0.03063 -0.4924,-0.05448c-0.23353,-0.15382 -0.4434,-0.337 -0.65325,-0.52019c-0.06559,-0.05726 -0.09438,-0.13243 -0.12314,-0.20761c-0.07705,-0.29243 -0.23827,-0.50822 -0.43631,-0.70609c-0.43414,-0.40393 -0.72357,-0.93185 -1.02485,-1.44505c-0.11003,-0.19614 -0.20822,-0.40692 -0.26963,-0.63565c-0.21167,-0.73523 -0.38528,-1.46227 -0.3736,-2.25276c-0.19674,-0.17172 -0.39475,-0.3696 -0.60464,-0.55274c-0.07871,-0.06871 -0.17051,-0.14884 -0.15191,-0.28273c0.00675,-0.1192 -0.0838,-0.17326 -0.16249,-0.24192c-0.51281,-0.4726 -1.03746,-0.93055 -1.55027,-1.40318c-1.15549,-1.03363 -2.32415,-2.07865 -3.45597,-3.14162c-1.10559,-1.04009 -2.24672,-2.03608 -3.37598,-3.04681c-0.18364,-0.16027 -0.33045,-0.33848 -0.51407,-0.49873c-0.8919,-0.77849 -1.78381,-1.557 -2.66389,-2.35017c-0.15738,-0.13737 -0.33846,-0.24541 -0.41168,-0.45944c-0.02881,-0.07519 -0.1062,-0.11772 -0.17176,-0.17499c-0.65585,-0.57241 -1.31291,-1.17098 -1.96875,-1.74341c-0.02623,-0.02291 -0.06557,-0.05726 -0.0918,-0.08013c-0.22172,-0.16848 -0.24374,-0.36289 -0.16977,-0.64864c0.25488,-0.95356 0.75641,-1.74185 1.5046,-2.36492c0.19329,-0.15656 0.4128,-0.29024 0.64672,-0.38634c0.17217,-0.07491 0.32445,-0.04209 0.46745,0.05769c0.429,0.29942 0.86985,0.5841 1.312,0.89498c0.31226,0.2225 0.61393,0.48582 0.9617,0.66425c0.75981,0.38798 1.3907,0.96365 2.11501,1.39564c0.4015,0.25035 0.8136,0.4599 1.20328,0.72496c0.41587,0.28795 0.84237,0.5351 1.25698,0.79685c0.75182,0.48108 1.49309,1.00298 2.25674,1.46936c1.02086,0.59081 1.99444,1.2404 2.96795,1.88993c0.33723,0.21928 0.67439,0.43847 1.01159,0.65775c0.51959,0.35339 1.05221,0.71823 1.57174,1.07165c0.28603,0.19959 0.58259,0.35839 0.86861,0.55796c0.31101,0.19637 0.56018,0.41387 0.87244,0.63638zM60.56615,175.87291c-0.22081,0.10753 -0.41538,0.23795 -0.58243,0.4174c-0.42593,0.27882 -0.77189,0.65242 -1.11784,1.02607c-0.44197,0.46499 -0.8433,0.99043 -1.2328,1.50122c-0.4487,0.58421 -0.73074,1.23883 -1.0115,1.91961c-0.02113,0.08164 -0.04227,0.16327 -0.07396,0.28572c0.10489,0.09159 0.20988,0.18315 0.31479,0.27474c0.02623,0.02291 0.0643,0.03113 0.1155,0.05076c0.0829,-0.10279 0.15268,-0.21705 0.20935,-0.34274c0.10274,-0.21058 0.2199,-0.38356 0.32265,-0.59411c0.27655,-0.50927 0.68298,-0.93024 0.99889,-1.40514c0.17632,-0.24644 0.32648,-0.51571 0.52905,-0.73924c0.4538,-0.47968 0.84204,-1.01655 1.34829,-1.4504c0.13281,-0.10928 0.27744,-0.23324 0.41028,-0.34253c0.12608,0.00997 0.19455,-0.13046 0.28001,-0.18098c0.11039,-0.05376 0.2208,-0.10755 0.3379,-0.28054c-0.2534,-0.04604 -0.3884,-0.23893 -0.59314,-0.31756c-0.07233,0.06198 -0.19837,0.05204 -0.25504,0.17774zM59.64656,176.07105c0.39043,-0.23472 0.47455,-0.31139 0.60228,-0.52521c-0.16923,-0.12268 -0.32539,-0.23394 -0.4946,-0.35664c-0.0918,-0.08013 -0.20475,-0.07867 -0.31516,-0.02488c-0.07365,0.03587 -0.13279,0.10928 -0.20639,0.14512c-0.26946,0.14013 -0.5101,0.35547 -0.68646,0.60189c-0.14846,0.04559 -0.24321,0.16301 -0.33795,0.28053c-0.54598,0.6494 -1.09325,1.27272 -1.57367,1.97937c-0.21061,0.31662 -0.40812,0.64471 -0.58062,0.96951c-0.12517,0.26611 -0.26217,0.54688 -0.24686,0.86047c0.17053,0.14884 0.34104,0.29762 0.51154,0.44649c0.06852,-0.14036 0.12518,-0.26611 0.16999,-0.37707c0.22666,-0.50277 0.4795,-0.98268 0.78485,-1.4168c0.38697,-0.56301 0.8395,-1.06883 1.2789,-1.58608c0.20132,-0.24968 0.46946,-0.41597 0.65766,-0.67706c0.19837,-0.05204 0.32993,-0.18745 0.4365,-0.3196zM43.57977,165.14996c-0.24448,0.13692 -0.42338,0.33103 -0.57604,0.54809c-0.02494,0.00323 -0.06179,0.02117 -0.07361,0.03588c-0.27109,0.3639 -0.51596,0.7507 -0.65842,1.17685c-0.08839,0.24819 -0.18984,0.48488 -0.16398,0.75764c0.73451,0.64114 1.46903,1.28218 2.24289,1.95772c0.13993,-0.47836 0.35854,-0.88814 0.59027,-1.28634c0.19623,-0.35422 0.4724,-0.61357 0.69485,-0.94487c0.09471,-0.11749 0.19072,-0.20887 0.28546,-0.32635c0.20767,-0.11896 0.40099,-0.27555 0.59171,-0.48436c-0.39351,-0.34347 -0.85551,-0.54652 -1.24643,-0.8377c-0.4159,-0.28794 -0.84365,-0.56121 -1.24643,-0.8377c-0.19837,0.05203 -0.31937,0.14661 -0.44032,0.24122zM46.51217,167.08394c-0.14846,0.04561 -0.25634,0.1516 -0.35103,0.26908c-0.14723,0.07167 -0.24069,0.21532 -0.36038,0.33602c-0.34468,0.3998 -0.6238,0.85676 -0.86482,1.32196c-0.137,0.28074 -0.24775,0.58445 -0.28237,0.90451c0.05246,0.04581 0.09309,0.10626 0.14558,0.15206c0.64271,0.56103 1.27224,1.11051 1.90314,1.68616c0.6702,0.60999 1.3273,1.20855 1.99749,1.81857c0.98502,0.88477 1.94502,1.77279 2.93004,2.65754c1.0912,1.0025 2.20483,1.94946 3.27232,2.98137c0.17176,0.17498 0.38039,0.33197 0.57712,0.50375c0.07778,-0.20732 0.11748,-0.42286 0.22152,-0.6073c0.29641,-0.61706 0.68336,-1.18007 1.09654,-1.72022c0.37892,-0.46993 0.77098,-0.92843 1.16305,-1.38695c0.18019,-0.16803 0.33539,-0.3328 0.51557,-0.50083c0.17342,-0.04876 0.25377,-0.20387 0.37473,-0.29847c0.13281,-0.10928 0.28,-0.18096 0.38532,-0.33928c-0.10747,-0.14385 -0.23612,-0.20609 -0.33974,-0.27153c-0.90415,-0.51393 -1.72663,-1.15678 -2.59523,-1.71475c-0.55765,-0.36162 -1.11527,-0.72325 -1.68476,-1.07014c-0.75182,-0.48108 -1.50235,-0.936 -2.24106,-1.40564c-0.60882,-0.38125 -1.21764,-0.76255 -1.81461,-1.15851c-0.64815,-0.41565 -1.27136,-0.8345 -1.90771,-1.2648c-0.58386,-0.3845 -1.18085,-0.78045 -1.78967,-1.16173c-0.11967,0.12071 -0.26944,0.14017 -0.35105,0.26906zM60.13293,187.32996c0.14246,-0.42609 0.3387,-0.78034 0.52176,-1.14596c0.19494,-0.38035 0.36488,-0.75743 0.57295,-1.12631c0.19623,-0.35422 0.43052,-0.70021 0.63988,-1.04294c0.22119,-0.35745 0.44234,-0.7149 0.68844,-1.07555c0.22245,-0.33128 0.46988,-0.66582 0.69231,-0.99713c0.2474,-0.33451 0.54727,-0.62329 0.74221,-1.00362c0.32733,-0.23969 0.53541,-0.60858 0.79719,-0.90558c0.28675,-0.30015 0.55911,-0.63799 0.84585,-0.93817c0.2749,-0.28548 0.57478,-0.57423 0.8628,-0.84829c0.2999,-0.28876 0.64039,-0.517 0.90086,-0.84008c-0.29112,-0.30415 -0.38289,-0.38427 -0.71374,-0.47287c-0.20767,0.11896 -0.41539,0.23796 -0.62048,0.40923c-0.24066,0.21532 -0.48133,0.4306 -0.74695,0.64916c-0.49445,0.41916 -0.9639,0.83514 -1.37838,1.34914c-0.2842,0.35248 -0.55529,0.7164 -0.89198,1.02306c-0.07233,0.06198 -0.14337,0.1501 -0.18817,0.26108c-0.10274,0.21058 -0.26983,0.39005 -0.4119,0.56629c-0.52105,0.64619 -0.9634,1.36106 -1.38076,2.07271c-0.57006,0.92872 -1.0246,1.90814 -1.43977,2.92197c-0.0909,0.19588 -0.18182,0.39176 -0.15847,0.61227c0.17306,0.20112 0.38166,0.35817 0.66636,0.53162zM66.47777,182.75924c-0.07581,-0.26631 -0.19893,-0.47389 -0.31024,-0.69614c-0.08505,-0.19938 -0.23061,-0.35144 -0.43539,-0.43008c-0.37272,-0.1752 -0.72307,-0.4059 -1.02599,-0.69537c-0.02623,-0.02291 -0.07741,-0.04259 -0.09051,-0.05401c-0.09854,0.0391 -0.14588,0.09784 -0.16579,0.20561c0.00125,0.02612 0.01567,0.06373 0.0288,0.07518c0.34486,0.37608 0.66601,0.78149 0.96348,1.21632c0.0406,0.06049 0.10747,0.14385 0.18366,0.16027c0.25722,0.12445 0.51445,0.24885 0.85203,0.21823zM65.20775,180.14937c0.31862,0.35315 0.60041,0.72424 0.85725,1.0986c0.08124,0.12092 0.1849,0.18641 0.32536,0.23391c0.21658,0.06395 0.43068,0.07563 0.65785,0.09878c0.07617,0.01642 0.1654,0.04429 0.21022,-0.06673c-0.16377,-0.26806 -0.30261,-0.53937 -0.49003,-0.77803c-0.75221,-0.23116 -0.75218,-0.23118 -1.39359,-0.766c-0.07488,0.0097 -0.13537,0.05703 -0.16706,0.17947zM60.99621,182.62866c-0.18874,-0.26483 -0.38931,-0.51497 -0.58988,-0.76511c-0.0406,-0.06049 -0.08125,-0.12095 -0.14555,-0.15206c-0.29273,-0.08038 -0.57368,-0.17541 -0.88628,-0.14804c0.0153,0.3136 0.17653,0.52939 0.28911,0.7778c0.05627,0.12419 0.14683,0.17819 0.27417,0.21427c0.30459,0.0657 0.58553,0.16076 0.86765,0.28197c0.01313,0.01146 0.04991,-0.00643 0.09981,-0.01294c0.02239,-0.0555 0.05668,-0.12574 0.0909,-0.19591zM64.14887,185.73069c-0.05591,-0.3741 -0.18163,-0.63395 -0.29548,-0.90845c-0.055,-0.09807 -0.13243,-0.14061 -0.20984,-0.18316c-0.38584,-0.18663 -0.73616,-0.4174 -1.05223,-0.71828c-0.03933,-0.03435 -0.09051,-0.05401 -0.12988,-0.08834c-0.14339,0.15009 -0.15395,0.19091 -0.04902,0.2825c0.34106,0.29768 0.60973,0.65733 0.79299,1.06749c0.11257,0.24839 0.28182,0.37111 0.51155,0.44651c0.1392,0.02141 0.25341,0.04605 0.43192,0.10179zM63.79732,181.87083c-0.05917,0.07343 -0.01854,0.13391 0.03391,0.17972c0.36724,0.32056 0.62664,0.74714 0.88606,1.17378c0.2175,0.33996 0.56656,0.54454 1.03273,0.57612c-0.03517,-0.20584 -0.15449,-0.33501 -0.21333,-0.51147c-0.13079,-0.36438 -0.38001,-0.58189 -0.6897,-0.75215c-0.33593,-0.19312 -0.6837,-0.37159 -0.9486,-0.6528c-0.05118,-0.01963 -0.07617,-0.01643 -0.10112,-0.01317zM64.96461,184.69129c-0.08633,-0.22549 -0.13203,-0.39054 -0.18962,-0.54085c-0.08764,-0.25162 -0.23317,-0.40371 -0.46416,-0.50525c-0.32026,-0.12941 -0.60628,-0.329 -0.88043,-0.54326c-0.10366,-0.06547 -0.20859,-0.15705 -0.30038,-0.23717c-0.07233,0.06198 -0.04482,0.11099 -0.01858,0.13389c0.32121,0.40542 0.63048,0.82555 0.87933,1.29299c0.05374,0.07194 0.09437,0.1324 0.17178,0.17495c0.24283,0.08687 0.47382,0.18839 0.80208,0.22471zM60.38134,183.66834c-0.2966,-0.15878 -0.49713,-0.40889 -0.70955,-0.64437c-0.06558,-0.05724 -0.08252,-0.1471 -0.17177,-0.17496c-0.14048,-0.04754 -0.49242,-0.05448 -0.74074,0.00403c0.04825,0.21732 0.18198,0.38403 0.27889,0.56874c0.08252,0.14712 0.1993,0.224 0.36342,0.24214c0.27833,0.04281 0.53304,0.11496 0.77843,0.25409c0.01311,0.01148 0.06303,0.00496 0.08796,0.00173c0.0605,-0.04731 0.10787,-0.10603 0.11331,-0.2514zM63.56551,177.89022c-0.25467,-0.07215 -0.46582,-0.28149 -0.74291,-0.29814c-0.06977,0.11424 -0.03973,0.21557 -0.03463,0.32009c0.02204,0.1944 0.00599,0.38053 0.09106,0.57992c0.30713,0.11798 0.5458,0.37629 0.85421,0.52038c0.09854,-0.0391 0.15778,-0.11249 0.19074,-0.20884c-0.15195,-0.28275 -0.26708,-0.58341 -0.35852,-0.91344zM62.28728,180.77804c-0.10747,-0.14385 -0.21495,-0.28771 -0.24756,-0.44126c-0.08086,-0.37083 -0.31571,-0.55079 -0.63342,-0.62791c-0.1142,-0.02465 -0.1929,-0.09336 -0.34268,-0.07394c0.01275,0.26136 0.07412,0.49011 0.13557,0.71881c0.01567,0.06373 0.06815,0.10949 0.14554,0.15205c0.24414,0.11299 0.46326,0.22919 0.70735,0.34219c0.03932,0.03437 0.11552,0.05077 0.2352,-0.06998zM63.03332,179.85278c-0.24121,-0.31061 -0.43244,-0.6277 -0.48838,-1.00179c-0.00382,-0.07838 -0.06814,-0.1095 -0.12061,-0.15529c-0.1299,-0.08835 -0.27163,-0.16203 -0.46071,-0.17693c0.01782,0.3659 0.09492,0.65836 0.1851,0.96226c0.03004,0.1013 0.08378,0.17325 0.17434,0.22724c0.16794,0.09662 0.32411,0.20781 0.49207,0.30437c0.01311,0.01148 0.06304,0.00497 0.08799,0.00175c0.03553,-0.04405 0.07106,-0.08813 0.13022,-0.16153zM62.60617,186.28584c0.17852,0.05571 0.37018,0.12296 0.54873,0.17871c0.02494,-0.00323 0.04993,-0.00647 0.0998,-0.01296c0.01224,-0.26459 -0.07412,-0.49011 -0.17102,-0.67478c-0.48953,-0.25212 -0.95275,-0.4813 -1.39872,-0.87056c0.04408,0.3888 0.33684,0.46913 0.47183,0.66202c0.17434,0.22724 0.31188,0.47236 0.44942,0.71752zM66.95838,182.82834c0.27581,-0.00948 0.52796,0.01039 0.78553,-0.11505c-0.04442,-0.13889 -0.05081,-0.26956 -0.09403,-0.3823c-0.04318,-0.11274 -0.07449,-0.24017 -0.16635,-0.32029c-0.15356,-0.05895 -0.31517,-0.02487 -0.46617,-0.03156c-0.15101,-0.00668 -0.29148,-0.05425 -0.45179,0.00599c0.12699,0.28598 0.25264,0.54581 0.39273,0.84326zM65.93938,179.18656c0.34611,0.40217 0.63853,0.73244 0.93088,1.06271c0.02623,0.02291 0.05373,0.07196 0.10365,0.06546c0.22717,0.02311 0.45689,0.09853 0.70264,-0.01224c-0.13625,-0.21903 -0.25942,-0.42661 -0.39443,-0.61951c-0.45562,-0.07241 -0.86639,-0.2558 -1.3428,-0.49646zM60.26895,180.59274c-0.01478,0.21232 0.09273,0.35617 0.15028,0.5065c0.05884,0.17648 0.15319,0.30888 0.34483,0.37605c0.25594,0.09829 0.51192,0.19661 0.69811,0.40915c0.10914,-0.07991 0.14339,-0.15009 0.06469,-0.21879c-0.18489,-0.18638 -0.38292,-0.38427 -0.48238,-0.62123c-0.15449,-0.33501 -0.44599,-0.38931 -0.77553,-0.4517zM61.72985,179.39071c-0.06904,-0.38554 -0.10931,-0.69592 -0.16138,-0.99157c-0.0918,-0.08013 -0.17981,-0.0819 -0.25593,-0.09829c-0.08799,-0.00175 -0.19034,-0.04105 -0.29946,0.03882c-0.02534,0.25317 -0.01259,0.51446 0.02509,0.77257c0.20602,0.10475 0.41081,0.18342 0.69171,0.27847zM59.22803,181.1354c0.30329,0.03956 0.56858,0.07087 0.8469,0.1137c-0.08764,-0.25164 -0.16214,-0.49184 -0.23663,-0.73201c-0.2534,-0.04604 -0.47001,-0.11 -0.73012,-0.03676c0.01146,0.23518 0.07159,0.4378 0.11987,0.65508zM66.80972,183.89965c0.06341,-0.24491 -0.07159,-0.4378 -0.13168,-0.64041c-0.01567,-0.06373 -0.09307,-0.10629 -0.15614,-0.11124c-0.20223,-0.02638 -0.37947,-0.056 -0.56854,-0.07094c-0.01313,-0.01146 -0.03681,0.01795 -0.06051,0.04731c0.10071,0.26311 0.22645,0.52288 0.32718,0.78598c0.19034,0.04106 0.39002,0.01516 0.58969,-0.01075zM64.59131,185.7917c0.19163,0.06717 0.37016,0.12295 0.59224,0.04155c-0.02333,-0.22054 -0.02294,-0.47043 -0.12114,-0.68125c-0.12733,-0.03611 -0.231,-0.10154 -0.35704,-0.11148c-0.1142,-0.02465 -0.20731,-0.13094 -0.35323,-0.03308c0.07578,0.26632 0.15156,0.53261 0.23919,0.78429zM58.96209,181.60376c-0.16541,-0.04428 -0.33757,0.03065 -0.52284,0.09411c0.06262,0.25487 0.06233,0.50477 0.19854,0.7238c0.19969,-0.0259 0.40314,0.0266 0.63833,-0.04336c-0.10071,-0.26311 -0.21329,-0.51148 -0.31405,-0.77456zM59.85702,184.76202c-0.22426,-0.22076 -0.50902,-0.39421 -0.70956,-0.64439c-0.17308,-0.20108 -0.36086,-0.18984 -0.60791,-0.10522c0.06139,0.22871 0.18198,0.38403 0.30386,0.56546c0.36378,-0.00776 0.67224,0.13633 1.01362,0.18409zM66.78614,178.52446c-0.03427,0.0702 0.0051,0.10452 0.04442,0.13889c0.15866,0.16352 0.3423,0.32379 0.48912,0.50202c0.20186,0.27625 0.45143,0.24388 0.74968,0.17889c-0.06816,-0.10952 -0.11003,-0.19609 -0.16377,-0.26803c-0.12189,-0.18142 -0.2543,-0.32205 -0.50516,-0.31583c-0.15101,-0.00669 -0.29275,-0.08041 -0.42138,-0.14258c-0.0406,-0.06049 -0.08252,-0.14709 -0.19291,-0.09333zM63.7954,176.93993c-0.00675,0.1192 0.01019,0.20908 0.01402,0.28747c-0.01351,0.23844 0.06903,0.38556 0.2501,0.49357c0.1548,0.08512 0.28727,0.22577 0.43028,0.32555c0.03933,0.03437 0.06686,0.08338 0.16289,-0.00797c-0.12438,-0.23374 -0.22518,-0.49681 -0.2891,-0.77781c-0.01567,-0.06373 -0.08123,-0.12093 -0.13369,-0.16675c-0.12859,-0.0622 -0.24412,-0.11301 -0.43448,-0.15404zM60.17119,180.13199c0.17852,0.05575 0.35831,0.13761 0.55928,0.13783c-0.02588,-0.2728 -0.01366,-0.53737 -0.10127,-0.789c-0.20222,-0.02636 -0.36889,-0.0968 -0.57787,-0.00396c0.02333,0.22053 0.02164,0.44431 0.11987,0.6551zM65.18619,184.08391c0.02589,0.27278 0.11223,0.49828 0.22227,0.69439c0.2022,0.02638 0.37945,0.05596 0.6041,0.02684c0.01604,-0.18619 -0.02971,-0.35122 -0.10039,-0.51298c-0.24155,-0.06071 -0.47129,-0.1361 -0.72597,-0.20829zM60.62174,178.29834c-0.16289,0.00798 -0.26396,-0.00522 -0.37563,0.02245c-0.07488,0.00973 -0.13664,0.03086 -0.1984,0.05205c-0.05284,0.2041 -0.06761,0.41641 -0.00748,0.61902c0.19034,0.04106 0.38073,0.08209 0.59098,0.01536c-0.01146,-0.23518 0.00328,-0.44752 -0.00945,-0.70885zM65.29051,177.46923c-0.02716,-0.29893 -0.03734,-0.50797 -0.06191,-0.75465c-0.0406,-0.06049 -0.14425,-0.12594 -0.2585,-0.15057c-0.10237,-0.0393 -0.17052,-0.14882 -0.30714,-0.11796c-0.06723,0.16653 -0.07269,0.31187 -0.04009,0.46545c0.22171,0.16849 0.41844,0.34025 0.66764,0.55775zM67.8261,183.11037c-0.12483,0.01621 -0.24962,0.03239 -0.37439,0.04853c-0.12483,0.01622 -0.23646,0.04385 -0.36125,0.06002c0.06137,0.22871 0.08342,0.42314 0.20399,0.57845c0.11422,0.02464 0.21151,-0.04058 0.31006,-0.07964c0.09854,-0.0391 0.23646,-0.04385 0.30622,-0.15806c-0.02077,-0.16829 -0.0153,-0.3136 -0.08471,-0.44926zM59.0865,180.03603c0.22588,-0.00302 0.44253,0.06097 0.68955,-0.02373c-0.02208,-0.19438 -0.05593,-0.37411 -0.07796,-0.56849c-0.22588,0.00301 -0.41501,-0.01192 -0.62267,0.10707c-0.01731,0.16004 -0.06087,0.29719 0.01109,0.48512zM67.29761,180.77242c0.16502,0.2942 0.31568,0.5508 0.46631,0.80736c0.12608,0.00997 0.2403,0.03463 0.3494,-0.04531c-0.01404,-0.28749 -0.13841,-0.52119 -0.25101,-0.76957c-0.12609,-0.00996 -0.25213,-0.01992 -0.3769,-0.00374c-0.06431,-0.03113 -0.1011,-0.01317 -0.1878,0.0112zM61.87633,178.01732c0.21534,0.0378 0.37275,0.1752 0.57242,0.1493c-0.0009,-0.27602 -0.00055,-0.52593 -0.06321,-0.78083c-0.17473,0.02268 -0.30585,-0.09184 -0.50298,-0.01366c-0.05282,0.20408 -0.00583,0.39529 -0.00622,0.64517zM64.30772,186.67002c0.0042,-0.17149 -0.01658,-0.33973 -0.07414,-0.49009c-0.22846,-0.04925 -0.44505,-0.11323 -0.69972,-0.18536c0.07322,0.21402 0.10712,0.39375 0.14351,0.62573c0.22847,0.04926 0.43195,0.10178 0.63036,0.04973zM63.44762,176.7615c-0.21788,-0.0901 -0.3977,-0.17196 -0.62103,-0.1167c-0.02914,0.17473 -0.05961,0.3233 -0.00203,0.47367c0.20474,0.07864 0.39766,0.17195 0.6405,0.25881c0.01478,-0.21232 0.01767,-0.40994 -0.01747,-0.61577zM65.46815,185.23082c0.07449,0.24017 0.02296,0.47045 0.14356,0.62576c0.2022,0.02638 0.37564,-0.02243 0.54782,-0.09736c0.0029,-0.19762 0.01896,-0.3838 -0.08977,-0.5538c-0.18781,0.01121 -0.3638,0.00777 -0.60153,0.02543zM58.38075,181.27157c0.17472,-0.02268 0.32571,-0.01596 0.48477,-0.10234c-0.06139,-0.22871 -0.02292,-0.47042 -0.14608,-0.67801c-0.16289,0.00796 -0.2864,0.0503 -0.4061,0.17102c0.0102,0.20907 0.04533,0.4149 0.0674,0.60929zM68.07843,180.303c0.176,0.00348 0.28761,-0.02418 0.40991,-0.0926c-0.02204,-0.1944 -0.08214,-0.39701 -0.23956,-0.53435c-0.14975,0.01944 -0.29947,0.03884 -0.46236,0.04682c0.04953,0.24343 0.1951,0.39548 0.29202,0.58016zM58.08661,184.76823c0.1366,-0.03085 0.24832,-0.05851 0.33246,-0.13517c-0.06009,-0.20256 -0.14394,-0.37581 -0.26453,-0.53113c-0.13788,0.00471 -0.24957,0.03236 -0.35869,0.11226c0.04825,0.21732 0.19384,0.36935 0.29075,0.55401zM59.6522,178.50305c-0.22842,-0.04927 -0.33629,0.05676 -0.42977,0.20039c-0.08291,0.10277 -0.13956,0.2285 -0.07014,0.36415c0.176,0.00348 0.33884,-0.00448 0.511,-0.07942c0.0042,-0.17149 -0.00345,-0.32829 -0.01109,-0.4851zM62.03654,186.96463c0.15356,0.05897 0.25847,0.15054 0.40695,0.105c0.01385,-0.48834 -0.29454,-0.63247 -0.68841,-0.72599c0.09816,0.2108 0.18327,0.41021 0.28144,0.621zM61.05511,177.40055c-0.05413,0.17796 -0.05959,0.32331 -0.01258,0.51447c0.14846,-0.04559 0.2915,0.05422 0.43867,-0.01747c0.05796,-0.09959 0.02916,-0.17472 0.0372,-0.26781c-0.00511,-0.1045 0.02787,-0.20086 -0.06392,-0.28101c-0.12609,-0.00996 -0.25216,-0.01989 -0.39935,0.05181zM63.57744,182.25436c-0.20894,0.09285 -0.25379,0.20385 -0.14757,0.32156c0.15866,0.16351 0.34101,0.29768 0.51027,0.42035c0.05243,0.04581 0.12992,0.08832 0.22717,0.02314c-0.1769,-0.2795 -0.37746,-0.52961 -0.58985,-0.76506zM57.67956,182.08577c-0.10237,-0.03933 -0.18911,-0.01492 -0.2733,0.06174c-0.00038,0.24991 -0.03756,0.51774 0.07502,0.76615c0.2208,-0.10755 0.30118,-0.26263 0.25289,-0.47989c-0.0051,-0.10453 0.02661,-0.22704 -0.05463,-0.34798zM62.12183,184.33678c-0.16576,0.20558 -0.17504,0.27259 -0.05704,0.37559c0.19548,0.1456 0.40405,0.30266 0.64689,0.38947c-0.14137,-0.32357 -0.28144,-0.621 -0.58987,-0.76508zM59.03264,185.36872c-0.09306,-0.10626 -0.18494,-0.1864 -0.26487,-0.28123c-0.17175,-0.17499 -0.1718,-0.17495 -0.45054,0.03213c0.06816,0.10952 0.13755,0.24518 0.17817,0.30562c0.19968,-0.02587 0.36253,-0.03389 0.53723,-0.05654zM67.01095,185.45156c0.0055,-0.14536 0.0858,-0.30045 -0.05848,-0.42638c-0.13664,0.03086 -0.27199,0.08789 -0.43358,0.122c-0.0042,0.17151 -0.03339,0.3462 0.03604,0.48186c0.14848,-0.04561 0.29823,-0.06498 0.45601,-0.17749zM58.71882,183.56837c-0.11133,-0.22223 -0.21075,-0.45922 -0.32208,-0.68145c-0.08925,-0.02783 -0.17723,-0.02962 -0.22205,0.08138c0.01146,0.23518 0.07285,0.46397 0.20784,0.65685c0.12608,0.00997 0.22588,-0.00301 0.33631,-0.0568zM63.75821,186.99115c-0.06977,0.11424 -0.07655,0.23347 -0.04519,0.36091c0.07616,0.01645 0.15229,0.03284 0.22845,0.04925c0.10109,0.01322 0.19038,0.04103 0.28763,-0.02419c0.07107,-0.08811 0.10404,-0.18441 0.0858,-0.30042c-0.17728,-0.0296 -0.37947,-0.05596 -0.5567,-0.08561zM66.35333,184.32705c-0.0042,0.17151 0.04026,0.3104 0.10965,0.44603c0.17342,-0.04876 0.33502,-0.08292 0.48347,-0.12846c0.05536,-0.15186 0.02405,-0.27928 -0.04282,-0.36267c-0.18782,0.01119 -0.37564,0.02244 -0.55037,0.04505zM62.878,187.22364c0.11422,0.02464 0.22842,0.04927 0.35451,0.05924c0.02492,-0.00324 0.04866,-0.03262 0.08547,-0.05057c0.00803,-0.09308 0.05285,-0.20407 -0.01658,-0.33974c-0.14049,-0.04751 -0.29532,-0.1326 -0.48313,-0.1214c-0.02912,0.17472 0.00221,0.30213 0.05977,0.45248zM61.12231,187.01753c0.13245,0.14062 0.02843,0.32508 0.15958,0.43954c0.15225,0.03282 0.28215,0.12122 0.48183,0.0953c0.01731,-0.16004 0.02276,-0.30543 -0.1308,-0.36436c-0.15357,-0.05898 -0.25975,-0.17669 -0.51062,-0.17047zM57.5436,183.4184c0.04444,0.13887 0.07707,0.29245 0.10837,0.41987c0.00126,0.02613 0.03936,0.03436 0.06559,0.05723c0.08544,-0.05055 0.21023,-0.0667 0.27744,-0.23324c-0.04574,-0.16498 -0.10455,-0.34149 -0.15158,-0.53265c-0.13536,0.05699 -0.21952,0.13369 -0.2999,0.28876zM67.39062,184.4818c0.14975,-0.01941 0.31261,-0.02739 0.43738,-0.0436c0.06723,-0.16652 0.07272,-0.3119 0.06632,-0.44256c-0.10369,-0.06546 -0.19962,0.02591 -0.2864,0.05031c-0.08673,0.02442 -0.18656,0.03735 -0.25632,0.15161c-0.02113,0.08164 -0.02913,0.17474 0.03899,0.28427zM62.47085,176.55944c-0.15101,-0.00668 -0.264,-0.00522 -0.37691,-0.00371c-0.03809,-0.00822 -0.08673,0.02439 -0.1117,0.02763c-0.08291,0.10277 -0.08966,0.22204 -0.05829,0.34945c0.16413,0.01815 0.31646,0.05099 0.49112,0.0284c0.03169,-0.12245 0.03844,-0.24169 0.05575,-0.40173zM58.72607,185.77665c0.12313,0.20762 0.24629,0.41513 0.46543,0.53139c0.0672,-0.16651 0.14886,-0.29548 0.10314,-0.46047c-0.28215,-0.12122 -0.28217,-0.12121 -0.56855,-0.0709zM60.67022,177.48986c-0.45055,0.03214 -0.46234,0.04681 -0.54431,0.42571c0.16289,-0.00798 0.32443,-0.04209 0.48733,-0.05003c0.06977,-0.11424 0.0765,-0.23345 0.05705,-0.37559zM64.73576,186.69344c0.16414,0.01816 0.30205,0.0134 0.44928,-0.05828c0.01056,-0.04082 0.01988,-0.10778 0.02916,-0.17474c-0.00256,-0.05228 -0.01821,-0.11603 -0.02077,-0.16822c-0.16415,-0.01814 -0.32958,-0.06243 -0.4899,-0.00219c-0.03169,0.12244 -0.01224,0.26459 0.03224,0.40346zM63.79778,176.21635c-0.00928,0.06694 -0.01728,0.16004 0.01021,0.20909c0.10875,0.17002 0.26357,0.25506 0.49078,0.27821c0.01861,-0.1339 0.08708,-0.27428 0.04389,-0.38706c-0.17852,-0.05575 -0.33465,-0.16698 -0.54487,-0.10026zM68.49833,181.44513c0.02494,-0.00323 0.04991,-0.00647 0.0998,-0.01296c0.049,-0.28253 0.02316,-0.5553 -0.00273,-0.82808c-0.12732,-0.03608 -0.21404,-0.01167 -0.3219,0.09435c0.07449,0.24017 0.13717,0.49501 0.2248,0.74669zM63.32147,183.95758c-0.1257,-0.25985 -0.22645,-0.5229 -0.46126,-0.70283c-0.01311,-0.01148 -0.08669,0.02442 -0.11038,0.05376c-0.05918,0.07344 -0.0541,0.17797 0.01152,0.23516c0.13499,0.1929 0.3292,0.31235 0.56015,0.41388zM65.58564,186.60947c0.13791,-0.00471 0.27582,-0.00945 0.41118,-0.06647c0.0829,-0.10279 0.11587,-0.19912 0.08329,-0.35268c-0.16159,0.03412 -0.33631,0.05675 -0.48475,0.10232c-0.04481,0.11097 -0.05282,0.20408 -0.00964,0.31683zM58.66041,179.539c-0.1789,0.19416 -0.33414,0.35891 -0.38442,0.61528c0.15356,0.05897 0.28892,0.00199 0.42301,-0.08116c0.01602,-0.18618 0.03336,-0.34622 -0.03863,-0.53414zM65.64138,176.42433c-0.02788,0.20088 -0.02664,0.22698 0.01273,0.26135c0.11929,0.12918 0.29658,0.15878 0.46071,0.17693c0.06301,0.00498 0.13535,-0.05704 0.09218,-0.16978c-0.18909,-0.01493 -0.31226,-0.22252 -0.56565,-0.26851zM67.93286,181.9524c0.06262,0.25487 0.10037,0.513 0.31153,0.72228c0.07396,-0.28572 -0.00054,-0.52595 -0.04883,-0.7432c-0.0774,-0.04257 -0.13916,-0.02139 -0.26267,0.02095zM61.55884,176.91442c0.01985,-0.10778 0.05281,-0.20409 0.07268,-0.31187c-0.17728,-0.02962 -0.34014,-0.02164 -0.43104,0.17426c-0.02243,0.0555 -0.0448,0.11099 -0.0042,0.17149c0.10236,0.03932 0.21406,0.01169 0.36253,-0.03389zM61.45956,185.43522c-0.10657,0.13219 -0.12772,0.21379 -0.01096,0.29068c0.10366,0.06547 0.20733,0.13092 0.32285,0.18167c0.05118,0.01963 0.11425,0.02465 0.14849,-0.04555c-0.12186,-0.18143 -0.26616,-0.30736 -0.46036,-0.42681zM66.22174,180.08355c-0.12314,-0.20761 -0.27,-0.38578 -0.47603,-0.49055c-0.01313,-0.01146 -0.08671,0.02444 -0.09854,0.0391c-0.02367,0.02934 -0.00803,0.09308 0.01822,0.11599c0.18234,0.13414 0.31609,0.30092 0.55638,0.3355zM66.34415,178.98941c0.16668,0.07043 0.311,0.19638 0.5263,0.23421c-0.11132,-0.22224 -0.23192,-0.37756 -0.34613,-0.40217c-0.10236,-0.03932 -0.14976,0.01941 -0.18016,0.168zM57.66919,181.10093c-0.10274,0.21058 -0.26854,0.41623 -0.19402,0.65638c0.31805,-0.17275 0.24355,-0.41292 0.19402,-0.65638zM60.22213,182.97886c-0.02366,0.02935 -0.02245,0.05555 -0.04612,0.08491c0.143,0.09977 0.21369,0.26156 0.39095,0.29116c0.08418,-0.07665 0.10656,-0.13219 0.0765,-0.23347c-0.12732,-0.03608 -0.26778,-0.08361 -0.4214,-0.14258zM64.6654,181.9029c-0.14811,-0.20433 -0.26871,-0.35963 -0.43794,-0.48234c-0.02623,-0.02291 -0.07613,-0.01643 -0.11167,0.02763c-0.01186,0.0147 -0.02241,0.0555 -0.02114,0.08165c0.12313,0.20762 0.28053,0.34496 0.57074,0.37305zM63.4391,176.32861c0.0448,-0.111 0.05411,-0.17794 -0.00894,-0.18294c-0.12732,-0.03608 -0.26652,-0.05746 -0.40571,-0.07887c-0.08799,-0.00175 -0.12351,0.04229 -0.10655,0.13217c0.17979,0.08191 0.33339,0.14087 0.52119,0.12965zM66.48866,186.07158c-0.00803,0.09308 -0.02913,0.17474 -0.03718,0.26783c0.00124,0.02612 0.02752,0.04903 0.055,0.09807c0.14211,-0.1762 0.31168,-0.30341 0.41319,-0.54013c-0.16159,0.03412 -0.27328,0.06175 -0.43103,0.17426zM63.45963,179.3241c-0.14299,-0.09979 -0.27292,-0.18816 -0.44215,-0.31086c0.01276,0.26136 0.09526,0.40844 0.23827,0.50822c0.09856,-0.03909 0.14719,-0.07169 0.20388,-0.19738zM60.06929,184.22163c-0.1392,-0.02141 -0.25974,-0.17669 -0.46872,-0.08384c0.27928,0.3188 0.34483,0.37604 0.43031,0.32552c0.05918,-0.07344 0.06851,-0.1404 0.03844,-0.24169zM65.34964,180.99881c-0.05462,-0.34796 -0.21205,-0.48531 -0.45614,-0.59832c-0.00838,0.34298 0.26998,0.38575 0.45614,0.59832zM61.48652,186.7599c-0.05336,-0.32182 -0.19765,-0.4478 -0.37874,-0.55577c-0.01313,-0.01146 -0.04991,0.00648 -0.07359,0.03584c-0.03554,0.04405 -0.03297,0.09633 -0.00674,0.1192c0.11929,0.12918 0.26228,0.22896 0.45906,0.40067zM59.69757,185.09835c-0.15356,-0.05897 -0.2966,-0.15878 -0.50676,-0.09206c0.09565,0.15855 0.22553,0.24689 0.34228,0.32379c0.11039,-0.05376 0.14463,-0.12394 0.16449,-0.23174zM62.06837,187.61804c0.20098,0.00024 0.34523,0.12618 0.51613,0.02511c-0.14811,-0.20433 -0.1481,-0.20432 -0.46198,-0.20307c-0.01056,0.04082 -0.02113,0.08164 -0.05412,0.17796zM58.14481,181.84142c-0.12643,0.23995 -0.09128,0.4458 -0.03116,0.64839c0.11422,0.02464 0.16159,-0.03412 0.15778,-0.11249c-0.04576,-0.16499 -0.07963,-0.34473 -0.12662,-0.53587zM64.72868,187.06257c-0.05796,0.09959 -0.10404,0.18442 -0.06085,0.29718c0.11293,-0.0015 0.22592,-0.00298 0.31004,-0.07962c0.0461,-0.08486 0.05537,-0.15184 0.0266,-0.22704c-0.08927,-0.02784 -0.16413,-0.01815 -0.27581,0.00948zM61.54999,181.11037c0.06939,0.13564 0.12443,0.23374 0.22681,0.27305c0.03809,0.00822 0.07488,-0.0097 0.11169,-0.02764c0.03554,-0.04405 0.05668,-0.1257 0.0055,-0.14535c-0.07871,-0.06871 -0.17051,-0.14883 -0.34397,-0.10003zM67.4513,185.21034c0.14593,-0.09784 0.17508,-0.27258 0.24357,-0.41295c-0.31263,0.02739 -0.33628,0.0568 -0.24357,0.41295zM67.02043,178.17849c0.14939,0.23047 0.14937,0.23046 0.33467,0.16699c-0.055,-0.09807 -0.12318,-0.20759 -0.33467,-0.16699zM61.18187,182.31528c0.08673,-0.02442 0.12225,-0.06846 0.10784,-0.10602c-0.04576,-0.16499 -0.09691,-0.18468 -0.32155,-0.15551c0.05627,0.12419 0.13499,0.19292 0.2137,0.26161zM60.88425,187.28506c-0.0064,-0.13067 -0.02462,-0.24667 -0.14007,-0.29744c-0.1501,0.26932 -0.13574,0.30686 0.14007,0.29744zM67.72811,178.27079c-0.02077,-0.16829 -0.11383,-0.27453 -0.1938,-0.36934c-0.05244,-0.0458 -0.12735,-0.03609 -0.14593,0.09784c0.07997,0.0948 0.17307,0.20114 0.33973,0.27153zM63.21607,187.71903c-0.10747,-0.14385 -0.20857,-0.15706 -0.32956,-0.06246c0,0 -0.01056,0.04082 0.00256,0.05228c0.06687,0.08337 0.19034,0.04107 0.32702,0.01023zM62.44835,180.21797c-0.0448,0.111 -0.01604,0.18619 0.04825,0.21727c0.02623,0.02291 0.07617,0.01642 0.11295,-0.00149c0.0368,-0.01794 0.04608,-0.08486 0.01984,-0.10775c-0.02751,-0.04904 -0.07995,-0.09483 -0.18106,-0.10804zM65.6271,186.94603c-0.1392,-0.02141 -0.22592,0.00298 -0.26816,0.1663c0.16415,0.01814 0.23775,-0.01769 0.26816,-0.1663z" fill="#000000"/><path d="M57.97354,176.01194c-0.39206,0.45848 -0.78414,0.917 -1.16307,1.38696c-0.42632,0.52871 -0.80014,1.10318 -1.09655,1.72023c-0.09089,0.19589 -0.13191,0.38527 -0.22156,0.60728c-0.2099,-0.18319 -0.40533,-0.32873 -0.5771,-0.50371c-1.05441,-1.02042 -2.18111,-1.97886 -3.27232,-2.98135c-0.97314,-0.89948 -1.94504,-1.77278 -2.93004,-2.65754c-0.6702,-0.60999 -1.32731,-1.20859 -1.99748,-1.81859c-0.63088,-0.57568 -1.27228,-1.1105 -1.90315,-1.68613c-0.05246,-0.04581 -0.10493,-0.09161 -0.14555,-0.15206c0.02149,-0.33153 0.13359,-0.60905 0.28237,-0.90451c0.24105,-0.46521 0.52013,-0.9222 0.86482,-1.32195c0.10657,-0.13219 0.20002,-0.2758 0.36035,-0.33602c-0.08034,0.15509 -0.23808,0.26758 -0.30278,0.48636c0.29272,0.08038 0.48019,0.31904 0.70191,0.48755c0.01313,0.01146 0.02621,0.0229 0.03808,0.00823c0.44884,0.19164 0.82923,0.52365 1.25572,0.77079c0.15483,0.08512 0.34523,0.12616 0.4527,0.27c0.23863,0.25836 0.59443,0.34369 0.83311,0.60205c0.01313,0.01146 0.05119,0.01966 0.07743,0.04258c0.28471,0.17342 0.56817,0.32082 0.82923,0.52362c0.28856,0.25186 0.64564,0.36338 0.9105,0.64458c0.24155,0.06071 0.38836,0.23893 0.58383,0.38453c0.02623,0.02291 0.03937,0.03436 0.06557,0.05724c0.35708,0.11149 0.58516,0.41064 0.89486,0.58088c0.30968,0.17022 0.56146,0.44001 0.85931,0.62491c0.3372,0.21928 0.6968,0.38297 0.97606,0.70185c0.02623,0.02291 0.06559,0.05727 0.10366,0.06547c0.21534,0.0378 0.33719,0.21927 0.50644,0.34199c0.07871,0.06871 0.15864,0.1635 0.26106,0.20283c0.16539,0.04432 0.2585,0.15057 0.37654,0.25363c0.06558,0.05725 0.11932,0.1292 0.19547,0.14558c0.24155,0.06071 0.4015,0.25036 0.57201,0.39918c0.06558,0.05725 0.11933,0.12915 0.19546,0.1456c0.20345,0.05253 0.33593,0.19312 0.48021,0.31909c0.23613,0.20608 0.55507,0.30935 0.77932,0.53009c0.02752,0.04903 0.10236,0.03934 0.15356,0.05896z" fill="#87d7dc"/><path d="M57.97351,176.01191c-0.05118,-0.01966 -0.12607,-0.00995 -0.16544,-0.04429c-0.22426,-0.22074 -0.53138,-0.33871 -0.77933,-0.5301c-0.14427,-0.12592 -0.27673,-0.26657 -0.4802,-0.31907c-0.07616,-0.01645 -0.12991,-0.08836 -0.19546,-0.14555c-0.17052,-0.14881 -0.34228,-0.32381 -0.57201,-0.39924c-0.07617,-0.01642 -0.11807,-0.10304 -0.19548,-0.14557c-0.11804,-0.10302 -0.22299,-0.19464 -0.37654,-0.25363c-0.10236,-0.03932 -0.18239,-0.13418 -0.26107,-0.20285c-0.16923,-0.12268 -0.29113,-0.30413 -0.50645,-0.34195c-0.03809,-0.00822 -0.07742,-0.04257 -0.10366,-0.06545c-0.26616,-0.30736 -0.6389,-0.4826 -0.97609,-0.70184c-0.311,-0.19638 -0.56271,-0.46614 -0.85929,-0.62495c-0.30968,-0.1702 -0.53778,-0.46937 -0.89482,-0.58087c-0.02495,0.0032 -0.03936,-0.03436 -0.06559,-0.05726c-0.17052,-0.14881 -0.34229,-0.32377 -0.58388,-0.38452c-0.25303,-0.29595 -0.6101,-0.40739 -0.91048,-0.6446c-0.24921,-0.21753 -0.54451,-0.35015 -0.82921,-0.52364c-0.02623,-0.02291 -0.05123,-0.01963 -0.07744,-0.04255c-0.23863,-0.25836 -0.59442,-0.34367 -0.83309,-0.60204c-0.13243,-0.14061 -0.3097,-0.17025 -0.4527,-0.27c-0.41462,-0.26181 -0.80685,-0.57915 -1.2557,-0.77078c-0.01313,-0.01146 -0.03809,-0.00819 -0.03809,-0.00819c-0.22173,-0.16849 -0.40916,-0.40719 -0.70193,-0.48755c0.05283,-0.20408 0.22374,-0.30516 0.30279,-0.48637c0.09471,-0.11749 0.18947,-0.23494 0.3511,-0.26906c0.07871,0.06871 0.15864,0.1635 0.26104,0.20281c0.35832,0.1376 0.62193,0.39276 0.92107,0.6038c0.29909,0.21103 0.65745,0.34864 0.91048,0.64457c0.24155,0.06071 0.3884,0.23892 0.58386,0.3845c0.02623,0.02291 0.06558,0.05724 0.10366,0.06545c0.17728,0.02962 0.28472,0.17346 0.41464,0.26183c0.06558,0.05725 0.13118,0.11446 0.19546,0.14558c0.34779,0.17844 0.69681,0.38297 0.99849,0.64632c0.03933,0.03437 0.07998,0.09486 0.12988,0.08835c0.19033,0.04104 0.30968,0.1702 0.44086,0.28469c0.13243,0.14061 0.34652,0.15228 0.49203,0.30438c0.19802,0.19787 0.45398,0.29614 0.68751,0.44996c0.31226,0.2225 0.65873,0.3748 0.96038,0.63814c0.05246,0.04581 0.10621,0.11773 0.16926,0.12268c0.15229,0.03287 0.2585,0.15053 0.38836,0.23892c0.10492,0.09159 0.22169,0.16849 0.33719,0.21928c0.21788,0.0901 0.41208,0.20954 0.59574,0.3698c0.28728,0.22573 0.64562,0.36333 0.89865,0.65924c0.02623,0.02291 0.07739,0.04259 0.10366,0.06547c0.311,0.19638 0.63379,0.378 0.92104,0.60378c0.28856,0.25186 0.67187,0.38625 0.93672,0.6675c0.03933,0.03437 0.10237,0.0393 0.15356,0.05896c0.1942,0.11946 0.38967,0.26505 0.52465,0.45794c-0.04609,0.08488 -0.09344,0.14362 -0.12771,0.2138c-0.20514,0.17126 -0.37347,0.3246 -0.54053,0.50406z" fill="#b0eef2"/><path d="M60.13292,187.32994c-0.2847,-0.17344 -0.49331,-0.33053 -0.64269,-0.561c-0.01019,-0.20909 0.08068,-0.40497 0.15848,-0.61227c0.42832,-1.00235 0.86974,-1.99324 1.43977,-2.92195c0.43051,-0.70019 0.87283,-1.41509 1.38074,-2.07271c0.1421,-0.1762 0.30916,-0.35571 0.41193,-0.56628c0.04609,-0.08488 0.11717,-0.17299 0.18818,-0.26108c0.33667,-0.30667 0.59465,-0.68203 0.89197,-1.02306c0.41573,-0.4879 0.88394,-0.92998 1.37836,-1.34913c0.25376,-0.20386 0.49445,-0.41921 0.74692,-0.6492c0.19201,-0.18267 0.4128,-0.29024 0.6205,-0.40923c0.319,0.10331 0.42263,0.16873 0.71374,0.47288c-0.27361,0.31164 -0.60098,0.55136 -0.90086,0.84008c-0.28803,0.27406 -0.58787,0.56279 -0.8628,0.84829c-0.28675,0.30016 -0.57224,0.62653 -0.84586,0.93814c-0.2749,0.28548 -0.48292,0.65442 -0.79724,0.90559c-0.19495,0.38035 -0.49482,0.66906 -0.74221,1.00362c-0.23556,0.31985 -0.46984,0.66583 -0.6923,0.99717c-0.23429,0.34599 -0.45542,0.70341 -0.6885,1.07555c-0.20933,0.34277 -0.44362,0.68872 -0.63983,1.04296c-0.20804,0.36888 -0.37803,0.74597 -0.57298,1.12632c-0.20677,0.39503 -0.40299,0.74922 -0.54548,1.17536z" fill="#d1eaeb"/><path d="M58.48907,175.51106c0.03425,-0.07019 0.08162,-0.12895 0.12768,-0.2138c-0.13501,-0.1929 -0.30549,-0.3417 -0.52465,-0.45794c-0.05117,-0.01968 -0.11422,-0.02464 -0.15356,-0.05897c-0.26485,-0.28123 -0.63636,-0.43032 -0.93673,-0.6675c-0.27546,-0.24042 -0.61008,-0.40741 -0.92103,-0.60382c-0.02623,-0.02291 -0.07743,-0.04258 -0.10366,-0.06545c-0.25302,-0.29594 -0.61007,-0.40742 -0.89864,-0.65929c-0.17052,-0.14881 -0.37783,-0.27971 -0.59573,-0.3698c-0.12856,-0.06221 -0.24538,-0.13911 -0.33719,-0.21925c-0.11804,-0.10302 -0.21112,-0.20929 -0.38839,-0.2389c-0.063,-0.00499 -0.11677,-0.07692 -0.16922,-0.12272c-0.28856,-0.25186 -0.64817,-0.41557 -0.9604,-0.6381c-0.23354,-0.15382 -0.4895,-0.25208 -0.68753,-0.44998c-0.13243,-0.14061 -0.34648,-0.1523 -0.49203,-0.30438c-0.11931,-0.12917 -0.25175,-0.26978 -0.44085,-0.28473c-0.05117,-0.01968 -0.09052,-0.05399 -0.12989,-0.08831c-0.30167,-0.26331 -0.63756,-0.45646 -0.99849,-0.64631c-0.0774,-0.04257 -0.13117,-0.11446 -0.19543,-0.14559c-0.11804,-0.10302 -0.2374,-0.23218 -0.41462,-0.26179c-0.03809,-0.00822 -0.07741,-0.04255 -0.10364,-0.06548c-0.17052,-0.14881 -0.3423,-0.32379 -0.58387,-0.38453c-0.25304,-0.29593 -0.61137,-0.43354 -0.91048,-0.64457c-0.29909,-0.21103 -0.57581,-0.47759 -0.92103,-0.60377c-0.10237,-0.03933 -0.18233,-0.13417 -0.26106,-0.20283c0.09346,-0.14362 0.24319,-0.16305 0.33919,-0.25443c0.61007,0.40738 1.2058,0.77725 1.78965,1.16175c0.64817,0.41564 1.27138,0.83446 1.90771,1.26475c0.59699,0.39598 1.20582,0.77724 1.81462,1.1585c0.75182,0.48108 1.50236,0.936 2.24109,1.40563c0.55763,0.36162 1.11525,0.72326 1.68472,1.07016c0.8686,0.55795 1.70297,1.18615 2.59524,1.71472c0.11675,0.0769 0.25722,0.12441 0.33973,0.27151c-0.10657,0.13219 -0.25249,0.22999 -0.38531,0.3393c-0.08543,0.05054 -0.16577,0.2056 -0.32611,0.26588z" fill="#87d7dc"/><path d="M45.60949,167.37199c-0.22244,0.33131 -0.4855,0.60215 -0.6948,0.94489c-0.23175,0.39826 -0.45035,0.80798 -0.59029,1.28635c-0.76076,-0.66402 -1.50838,-1.31657 -2.2429,-1.95768c-0.01404,-0.28747 0.08747,-0.52418 0.16397,-0.75767c0.15431,-0.44082 0.40045,-0.80148 0.65842,-1.17685c0.01186,-0.0147 0.04864,-0.0326 0.07359,-0.03587c-0.02788,0.20086 0.11258,0.24838 0.2412,0.31059c0.32155,0.15555 0.63123,0.32574 0.8817,0.56941c0.05246,0.04581 0.10494,0.09159 0.16923,0.12268c0.32028,0.1294 0.57074,0.37305 0.85551,0.54652c0.16794,0.09662 0.29656,0.15871 0.48439,0.14754z" fill="#61afb4"/><path d="M60.41115,176.8134c-0.49315,0.44531 -0.89448,0.97074 -1.34827,1.45043c-0.20259,0.2235 -0.36581,0.48142 -0.52906,0.7393c-0.32904,0.46348 -0.72234,0.89581 -0.99887,1.40512c-0.11589,0.19913 -0.23176,0.39826 -0.32267,0.59414c-0.05666,0.1257 -0.1264,0.23994 -0.20933,0.34277c-0.05118,-0.01963 -0.08926,-0.02788 -0.1155,-0.0508c-0.10489,-0.09159 -0.20986,-0.18315 -0.3148,-0.27472c0.01985,-0.10778 0.04101,-0.18942 0.07398,-0.28573c0.26889,-0.66605 0.54965,-1.34684 1.0115,-1.91962c0.38952,-0.5108 0.7908,-1.0362 1.2328,-1.50122c0.34597,-0.37366 0.6788,-0.7587 1.11784,-1.02606c-0.03294,0.09633 -0.14337,0.1501 -0.11202,0.27751c0.12059,0.1553 0.25558,0.34821 0.51445,0.24885z" fill="#61aeb3"/><path d="M59.24819,176.39883c-0.17508,0.27257 -0.44325,0.43881 -0.65767,0.67704c-0.43941,0.51728 -0.87886,1.03449 -1.27891,1.58609c-0.31717,0.44877 -0.57003,0.92872 -0.78484,1.4168c-0.05666,0.1257 -0.1133,0.25136 -0.16996,0.37709c-0.18364,-0.16027 -0.34108,-0.29763 -0.51156,-0.44649c-0.0153,-0.3136 0.09678,-0.59114 0.24686,-0.86047c0.17251,-0.32484 0.35689,-0.66431 0.58062,-0.9695c0.48044,-0.70664 1.02771,-1.32995 1.57368,-1.97938c0.09473,-0.11747 0.18948,-0.235 0.33795,-0.28055c0.06558,0.05725 0.11935,0.12914 0.19547,0.14558c0.17853,0.05575 0.32411,0.20781 0.46836,0.33371z" fill="#61aeb3"/><path d="M45.6095,167.37198c-0.16289,0.00798 -0.30329,-0.03956 -0.44632,-0.13936c-0.28471,-0.17346 -0.53522,-0.41715 -0.85547,-0.54649c-0.06432,-0.03112 -0.1168,-0.07691 -0.16926,-0.12271c-0.27547,-0.24042 -0.57201,-0.39918 -0.8817,-0.5694c-0.1155,-0.0508 -0.26907,-0.10973 -0.24121,-0.31061c0.16452,-0.23174 0.35652,-0.41443 0.57605,-0.54812c0.21918,0.11622 0.45015,0.21778 0.61012,0.4074c0.02623,0.02291 0.07742,0.04257 0.10366,0.06545c0.29784,0.18488 0.60883,0.38126 0.89484,0.58088c0.12988,0.08835 0.2348,0.17996 0.37654,0.25363c0.17979,0.0819 0.34906,0.20457 0.4341,0.40394c-0.0461,0.08486 -0.09346,0.14359 -0.12772,0.21379c-0.08291,0.10277 -0.19075,0.20886 -0.27362,0.31163z" fill="#87d7dc"/><path d="M66.47779,182.75919c-0.32576,0.01597 -0.59477,-0.09375 -0.85203,-0.21823c-0.06431,-0.03111 -0.14301,-0.09981 -0.18364,-0.16027c-0.28564,-0.44948 -0.61864,-0.84027 -0.96348,-1.2163c-0.01313,-0.01146 -0.02751,-0.04902 -0.0288,-0.07517c0.00803,-0.09308 0.0672,-0.16656 0.16576,-0.20561c0.02623,0.02291 0.06433,0.0311 0.09056,0.05399c0.3029,0.28945 0.64141,0.53486 1.02599,0.69538c0.19291,0.09334 0.33723,0.21928 0.4354,0.43007c0.09944,0.23694 0.23444,0.42982 0.31024,0.69616z" fill="#cce5e6"/><path d="M65.20775,180.14937c0.03169,-0.12245 0.09218,-0.16975 0.16705,-0.17945c0.65326,0.52017 0.65326,0.52015 1.39362,0.76601c0.19931,0.22401 0.33938,0.5214 0.49,0.77802c-0.05666,0.1257 -0.14718,0.07167 -0.21022,0.0667c-0.22717,-0.02311 -0.44123,-0.03482 -0.65784,-0.09878c-0.14048,-0.04754 -0.2441,-0.11302 -0.32535,-0.23392c-0.25688,-0.37435 -0.53867,-0.7454 -0.85726,-1.09859z" fill="#cce5e6"/><path d="M45.89496,167.04568c0.03427,-0.0702 0.08164,-0.12896 0.12771,-0.21379c-0.08506,-0.19937 -0.2543,-0.32205 -0.43414,-0.40393c-0.14176,-0.07365 -0.24666,-0.16524 -0.37655,-0.25364c-0.28601,-0.1996 -0.59697,-0.39595 -0.89483,-0.58086c-0.02623,-0.02291 -0.07744,-0.04256 -0.10366,-0.06547c-0.1849,-0.18639 -0.40275,-0.27652 -0.61006,-0.40741c0.12094,-0.0946 0.23012,-0.1745 0.40354,-0.22329c0.40279,0.27652 0.84239,0.53508 1.24643,0.83772c0.40279,0.27652 0.8529,0.49427 1.24641,0.83771c-0.20257,0.22352 -0.39714,0.35395 -0.60481,0.47297z" fill="#60adb2"/><path d="M60.99621,182.62866c-0.03425,0.07019 -0.05669,0.12571 -0.09091,0.19588c-0.04992,0.0065 -0.07486,0.00969 -0.09981,0.01294c-0.27033,-0.13588 -0.5631,-0.21625 -0.86766,-0.28196c-0.12733,-0.03611 -0.2179,-0.09009 -0.27417,-0.21427c-0.12443,-0.23372 -0.28566,-0.44947 -0.2891,-0.77779c0.3126,-0.02738 0.60538,0.05297 0.88627,0.14806c0.05118,0.01963 0.1049,0.09162 0.14555,0.15206c0.20057,0.25007 0.40117,0.50028 0.58988,0.76511z" fill="#cce5e6"/><path d="M64.14885,185.73072c-0.17851,-0.05573 -0.29275,-0.08041 -0.42009,-0.11649c-0.22974,-0.0754 -0.39894,-0.1981 -0.51154,-0.44649c-0.20819,-0.40693 -0.46511,-0.78125 -0.793,-1.06746c-0.10491,-0.0916 -0.1062,-0.11772 0.049,-0.28253c0.03935,0.03436 0.09055,0.05399 0.1299,0.08838c0.31607,0.3009 0.66636,0.5316 1.05222,0.71825c0.09053,0.05403 0.16795,0.09657 0.20989,0.18317c0.10204,0.28923 0.2277,0.54907 0.28359,0.92316z" fill="#cae2e3"/><path d="M63.79731,181.87082c0.02494,-0.00323 0.06308,0.00497 0.07616,0.01645c0.27795,0.29266 0.61391,0.4858 0.94857,0.65281c0.30968,0.1702 0.55892,0.38775 0.68967,0.75213c0.05884,0.17648 0.19129,0.31706 0.21331,0.51147c-0.4649,-0.00542 -0.82707,-0.22148 -1.03273,-0.57613c-0.25941,-0.42661 -0.49384,-0.85643 -0.88608,-1.17375c-0.02752,-0.04903 -0.07997,-0.09484 -0.00893,-0.18294z" fill="#c9e1e2"/><path d="M64.96461,184.69129c-0.32828,-0.03632 -0.55926,-0.13784 -0.80336,-0.25084c-0.0774,-0.04257 -0.143,-0.0998 -0.17178,-0.17498c-0.26068,-0.45275 -0.55816,-0.88753 -0.87929,-1.29296c-0.02623,-0.02291 -0.05375,-0.0719 0.01859,-0.1339c0.0918,0.08013 0.19673,0.1717 0.30039,0.23718c0.27414,0.21429 0.56018,0.41387 0.88043,0.54326c0.23103,0.10149 0.38965,0.26506 0.46416,0.50524c0.05884,0.17648 0.10458,0.34148 0.19091,0.567z" fill="#c9e1e2"/><path d="M60.38134,183.66834c-0.00549,0.14537 -0.0647,0.2188 -0.12389,0.29223c-0.02492,0.00324 -0.06307,-0.00496 -0.08797,-0.00174c-0.23353,-0.15382 -0.50136,-0.23741 -0.77844,-0.25404c-0.16414,-0.01816 -0.28089,-0.09507 -0.36342,-0.24219c-0.09691,-0.18465 -0.2188,-0.36609 -0.27892,-0.56871c0.24828,-0.0585 0.61213,-0.06626 0.74075,-0.00404c0.08927,0.02784 0.11806,0.10301 0.17178,0.17498c0.23479,0.17995 0.42357,0.44475 0.72008,0.60353z" fill="#cae3e4"/><path d="M63.56548,177.89021c0.09145,0.33002 0.21837,0.61603 0.37033,0.89877c-0.04481,0.11097 -0.09219,0.16979 -0.19075,0.20886c-0.29529,-0.13263 -0.54702,-0.40245 -0.85418,-0.52041c-0.08505,-0.19938 -0.06904,-0.38554 -0.09108,-0.57993c-0.00511,-0.1045 -0.03516,-0.2058 0.03462,-0.32006c0.26525,0.03135 0.46324,0.22921 0.73104,0.31282z" fill="#c8e0e1"/><path d="M62.28726,180.77803c-0.11967,0.12072 -0.18399,0.08961 -0.24829,0.05852c-0.24414,-0.11299 -0.47508,-0.21452 -0.70739,-0.34217c-0.06432,-0.03111 -0.11677,-0.0769 -0.14559,-0.15208c-0.06137,-0.22871 -0.11091,-0.47215 -0.13552,-0.71881c0.13789,-0.00472 0.22846,0.04927 0.34268,0.07392c0.34265,0.07391 0.57748,0.25383 0.63343,0.62791c0.03387,0.17972 0.14137,0.32357 0.26072,0.45272z" fill="#cbe4e5"/><path d="M63.03332,179.85278c-0.05918,0.07344 -0.09471,0.11749 -0.13023,0.16155c-0.03809,-0.00822 -0.07487,0.00968 -0.08799,-0.00175c-0.16794,-0.09662 -0.32411,-0.20779 -0.49207,-0.30437c-0.09054,-0.05403 -0.14427,-0.12596 -0.17433,-0.22726c-0.09017,-0.30389 -0.15537,-0.61107 -0.18508,-0.96224c0.20093,0.00023 0.33081,0.08857 0.4607,0.17693c0.05243,0.04581 0.10493,0.09161 0.1206,0.15527c0.05593,0.37411 0.2472,0.69121 0.48838,1.00181z" fill="#c8e0e1"/><path d="M59.2482,176.39884c-0.14427,-0.12592 -0.28985,-0.27802 -0.49334,-0.33051c-0.07617,-0.01642 -0.12985,-0.08837 -0.19544,-0.14559c0.18818,-0.2611 0.417,-0.46174 0.68646,-0.60187c0.15993,0.18966 0.3909,0.2912 0.572,0.39917c-0.01731,0.16004 -0.13956,0.2285 -0.18435,0.3395c-0.09346,0.14362 -0.22503,0.27904 -0.38531,0.3393z" fill="#85d5d9"/><path d="M62.60617,186.28584c-0.13755,-0.24516 -0.27509,-0.4903 -0.43757,-0.73223c-0.14809,-0.20434 -0.4527,-0.27003 -0.47178,-0.66205c0.44594,0.38921 0.92234,0.62991 1.39871,0.87056c0.08505,0.19938 0.17143,0.42484 0.17103,0.67476c-0.04992,0.0065 -0.07489,0.00971 -0.0998,0.01296c-0.19036,-0.04106 -0.36892,-0.0968 -0.56052,-0.16397z" fill="#c6dede"/><path d="M66.95838,182.82834c-0.14011,-0.29745 -0.26577,-0.55723 -0.40588,-0.8547c0.17342,-0.04876 0.31391,-0.00127 0.45179,-0.00601c0.15101,0.00668 0.31263,-0.02738 0.46619,0.0316c0.0918,0.08013 0.12315,0.20757 0.16635,0.32029c0.04318,0.11273 0.07448,0.24019 0.094,0.38233c-0.24448,0.13692 -0.4966,0.11698 -0.77244,0.12649z" fill="#cae3e3"/><path d="M65.93938,179.18656c0.4764,0.24064 0.88721,0.42407 1.3559,0.50787c0.12314,0.20761 0.25812,0.40046 0.39438,0.61949c-0.25888,0.09934 -0.47548,0.03539 -0.70263,0.01225c-0.03809,-0.00822 -0.07744,-0.04259 -0.10364,-0.06548c-0.29238,-0.33027 -0.58479,-0.66052 -0.94401,-1.07416z" fill="#cae3e4"/><path d="M60.26899,180.59274c0.32827,0.03631 0.61976,0.09054 0.77549,0.45169c0.11258,0.24841 0.29749,0.43482 0.48239,0.62124c0.07871,0.06871 0.03264,0.15356 -0.06467,0.21882c-0.18619,-0.21251 -0.44215,-0.31086 -0.69811,-0.40914c-0.19164,-0.06718 -0.28601,-0.19957 -0.34484,-0.37605c-0.05756,-0.15031 -0.1519,-0.28276 -0.15027,-0.50655z" fill="#c8e0e1"/><path d="M60.41118,176.81343c-0.27199,0.08789 -0.39381,-0.09357 -0.53939,-0.24564c-0.03133,-0.1274 0.06592,-0.19265 0.112,-0.2775c0.16705,-0.17944 0.36162,-0.30988 0.58247,-0.41745c0.13243,0.14061 0.32406,0.20781 0.39605,0.3957c-0.04609,0.08488 -0.08163,0.12895 -0.12898,0.18769c-0.14465,0.12398 -0.28927,0.24795 -0.42211,0.35721z" fill="#85d4d9"/><path d="M61.72987,179.39073c-0.26779,-0.08361 -0.48568,-0.17369 -0.7154,-0.24908c-0.03771,-0.2581 -0.05047,-0.51943 -0.0251,-0.7726c0.10913,-0.07993 0.21151,-0.04058 0.29948,-0.03886c0.08799,0.00175 0.17595,0.00348 0.25592,0.09831c0.06262,0.25487 0.11602,0.57666 0.18508,0.96224z" fill="#c7dfe0"/><path d="M59.22803,181.1354c-0.04825,-0.21732 -0.10835,-0.41989 -0.10802,-0.6698c0.26015,-0.07321 0.47674,-0.00925 0.73013,0.03678c0.07449,0.24018 0.14903,0.48035 0.23664,0.73201c-0.30205,-0.01343 -0.55549,-0.05947 -0.85877,-0.09901z" fill="#c8e0e1"/><path d="M66.80971,183.89968c-0.19968,0.02587 -0.39932,0.05176 -0.60282,-0.00073c-0.11258,-0.24841 -0.21331,-0.51147 -0.32716,-0.78599c0.02367,-0.02934 0.04736,-0.05873 0.06048,-0.04727c0.18911,0.01492 0.39129,0.04129 0.56855,0.07089c0.07616,0.01645 0.14048,0.04752 0.15613,0.11122c0.08633,0.22549 0.2082,0.40694 0.14482,0.65189z" fill="#c4dcdd"/><path d="M64.59131,185.7917c-0.07578,-0.26632 -0.16338,-0.51795 -0.23917,-0.7843c0.13409,-0.08312 0.23898,0.00847 0.35324,0.03311c0.11422,0.02464 0.22975,0.0754 0.35705,0.11147c0.09816,0.2108 0.08464,0.44926 0.12111,0.68127c-0.22204,0.0814 -0.40059,0.02564 -0.59222,-0.04156z" fill="#c8e0e1"/><path d="M58.96209,181.60376c0.10071,0.26311 0.20019,0.50007 0.31402,0.77459c-0.22332,0.0553 -0.42684,0.00273 -0.63837,0.04334c-0.13624,-0.21903 -0.13588,-0.46893 -0.19853,-0.72377c0.19711,-0.07815 0.35742,-0.13841 0.52283,-0.0941z" fill="#c6ddde"/><path d="M59.85702,184.76204c-0.34141,-0.04776 -0.64981,-0.19182 -1.00049,-0.17265c-0.12189,-0.18142 -0.2425,-0.33677 -0.30386,-0.56548c0.23391,-0.09607 0.43489,-0.09587 0.60791,0.10522c0.20058,0.2501 0.46034,0.42682 0.69645,0.63288z" fill="#b9cfd0"/><path d="M66.78614,178.52446c0.11039,-0.05376 0.1405,0.0475 0.20474,0.07862c0.14173,0.07367 0.27159,0.16198 0.4214,0.14258c0.23903,0.00846 0.37145,0.14903 0.50516,0.31583c0.05373,0.07196 0.09565,0.15855 0.16377,0.26805c-0.29822,0.06503 -0.54782,0.09736 -0.74965,-0.17889c-0.13501,-0.19288 -0.33045,-0.33851 -0.48913,-0.502c-0.03932,-0.03437 -0.07871,-0.06871 -0.05629,-0.1242z" fill="#c0d8d8"/><path d="M63.79536,176.93995c0.17728,0.02962 0.30585,0.09181 0.41079,0.1834c0.05243,0.04581 0.11809,0.10302 0.13372,0.16672c0.06393,0.28102 0.17652,0.52938 0.28911,0.7778c-0.08291,0.10277 -0.12351,0.04232 -0.16289,0.00796c-0.13117,-0.11449 -0.27547,-0.24042 -0.43031,-0.32551c-0.1942,-0.11946 -0.2767,-0.26655 -0.25012,-0.49356c0.01985,-0.10778 0.01604,-0.18618 0.00968,-0.31682z" fill="#c1d9d9"/><path d="M60.17119,180.13199c-0.07322,-0.21402 -0.0834,-0.42314 -0.11984,-0.65511c0.20894,-0.09285 0.38873,-0.01095 0.57785,0.00395c0.08764,0.25164 0.07543,0.5162 0.10126,0.78901c-0.21406,-0.0117 -0.38077,-0.08213 -0.5593,-0.13785z" fill="#c3dbdc"/><path d="M65.18618,184.0839c0.25471,0.07214 0.48443,0.14759 0.72599,0.2083c0.07072,0.16179 0.12823,0.31212 0.10039,0.51298c-0.21151,0.04058 -0.40187,-0.00048 -0.60411,-0.0268c-0.12313,-0.20762 -0.19637,-0.42159 -0.22223,-0.69438z" fill="#c3dadb"/><path d="M60.62174,178.29834c-0.00038,0.24991 -0.00202,0.47365 -0.00366,0.6974c-0.21022,0.06673 -0.40059,0.02567 -0.59095,-0.01539c-0.03517,-0.20584 -0.03225,-0.40343 0.00748,-0.61896c0.06177,-0.02115 0.14848,-0.04554 0.19837,-0.05203c0.13789,-0.00473 0.23899,0.00843 0.38877,-0.01096z" fill="#c4dbdc"/><path d="M65.29049,177.46925c-0.24924,-0.21754 -0.44597,-0.38929 -0.65585,-0.5724c-0.03261,-0.15359 -0.02711,-0.29894 0.0401,-0.46541c0.13661,-0.03083 0.20476,0.07865 0.30713,0.11798c0.10237,0.0393 0.19291,0.09334 0.25852,0.15055c0.01276,0.26139 0.02296,0.47045 0.05009,0.76936z" fill="#c2d9da"/><path d="M67.82607,183.11035c0.05756,0.15031 0.0771,0.29242 0.05848,0.42635c-0.08162,0.12893 -0.20772,0.11897 -0.30623,0.15806c-0.09851,0.03909 -0.18271,0.11575 -0.31003,0.07967c-0.10749,-0.14385 -0.14263,-0.34969 -0.20405,-0.57846c0.12483,-0.01621 0.24962,-0.03239 0.36126,-0.05999c0.13789,-0.00472 0.27581,-0.00948 0.40061,-0.02566z" fill="#c5ddde"/><path d="M59.0865,180.03603c-0.07197,-0.18795 -0.01658,-0.33977 -0.02423,-0.49656c0.19586,-0.10428 0.3968,-0.10407 0.62269,-0.1071c0.02204,0.19437 0.04406,0.38879 0.07795,0.56853c-0.23391,0.09607 -0.45054,0.03215 -0.67641,0.03513z" fill="#c3dbdc"/><path d="M67.29761,180.77242c0.08673,-0.02442 0.1366,-0.0309 0.18651,-0.03739c0.11293,-0.0015 0.23901,0.00846 0.37691,0.00371c0.10071,0.26311 0.23699,0.48209 0.25102,0.76959c-0.10913,0.07993 -0.21024,0.06674 -0.34942,0.04533c-0.14937,-0.23046 -0.31312,-0.49853 -0.46511,-0.78125z" fill="#c7dfe0"/><path d="M61.87636,178.01722c0.01349,-0.23845 -0.0466,-0.44103 0.01807,-0.65981c0.18529,-0.06346 0.34139,0.04774 0.50298,0.01364c0.06391,0.28104 0.05045,0.51945 0.0632,0.7808c-0.23649,0.04382 -0.38074,-0.08211 -0.58425,-0.13458z" fill="#c7dee0"/><path d="M59.64658,176.07107c0.0448,-0.111 0.16708,-0.17945 0.18435,-0.3395c-0.1942,-0.11946 -0.41332,-0.2357 -0.57201,-0.39918c0.0605,-0.04731 0.13282,-0.10927 0.20638,-0.14514c0.11039,-0.05376 0.22334,-0.05526 0.3152,0.02487c0.16922,0.12267 0.32536,0.2339 0.49459,0.35665c-0.15395,0.19093 -0.23811,0.26759 -0.62852,0.50232z" fill="#61acb1"/><path d="M63.67737,186.62032c-0.04825,-0.21732 -0.08213,-0.39696 -0.11856,-0.62897c0.24155,0.06071 0.46998,0.10997 0.69972,0.18536c0.04574,0.16498 0.0783,0.31859 0.07413,0.49009c-0.23649,0.04382 -0.42681,0.00276 -0.65528,-0.04651z" fill="#c2dada"/><path d="M63.44762,176.7615c0.04825,0.21732 0.03223,0.40347 0.03057,0.62724c-0.231,-0.10151 -0.43577,-0.18017 -0.64055,-0.25883c-0.07071,-0.16177 -0.02713,-0.29894 0.00202,-0.47365c0.19837,-0.05204 0.37823,0.02984 0.60791,0.10522z" fill="#c1d9d9"/><path d="M65.46817,185.23084c0.23774,-0.01768 0.41371,-0.0142 0.60156,-0.02542c0.09565,0.15855 0.09273,0.35617 0.08977,0.55382c-0.17215,0.0749 -0.34557,0.12369 -0.5478,0.09733c-0.12186,-0.18143 -0.06901,-0.38555 -0.14355,-0.62574z" fill="#c6dedf"/><path d="M58.38075,181.27157c-0.03516,-0.20583 -0.04534,-0.41492 -0.06739,-0.60931c0.11967,-0.12072 0.24319,-0.16305 0.4061,-0.17102c0.12313,0.20762 0.08464,0.44926 0.14607,0.67802c-0.15904,0.08641 -0.31005,0.07964 -0.48476,0.10234z" fill="#c0d7d7"/><path d="M68.07841,180.30304c-0.09692,-0.18466 -0.24245,-0.33676 -0.26708,-0.58341c0.16289,-0.00798 0.31264,-0.02739 0.46237,-0.04682c0.15737,0.13739 0.22932,0.32528 0.23952,0.53434c-0.13408,0.08312 -0.25885,0.09931 -0.43481,0.09587z" fill="#c3dadb"/><path d="M60.82147,176.47089c0.04737,-0.05873 0.08161,-0.12896 0.12898,-0.18773c-0.07197,-0.18795 -0.26357,-0.25512 -0.39605,-0.3957c0.06977,-0.11424 0.19588,-0.1043 0.29185,-0.19565c0.21787,0.0901 0.33977,0.27151 0.59316,0.31753c-0.10531,0.15828 -0.21567,0.21206 -0.33793,0.28055c-0.08544,0.05057 -0.14215,0.17622 -0.27999,0.18096z" fill="#5aa0a4"/><path d="M58.08661,184.76823c-0.09689,-0.18465 -0.24248,-0.33677 -0.26578,-0.55729c0.10913,-0.07993 0.20899,-0.09284 0.35871,-0.11231c0.12061,0.15532 0.21751,0.33997 0.26453,0.53113c-0.10914,0.07991 -0.19584,0.10429 -0.35743,0.13841z" fill="#bdd3d4"/><path d="M59.65223,178.50303c-0.0042,0.17151 0.00343,0.32831 0.0111,0.4851c-0.17217,0.07491 -0.33504,0.08291 -0.51101,0.07946c-0.06939,-0.13564 -0.01276,-0.26139 0.07012,-0.36416c0.10654,-0.1322 0.21312,-0.26435 0.42975,-0.2004z" fill="#bdd4d5"/><path d="M62.03649,186.96465c-0.09815,-0.21081 -0.18327,-0.4102 -0.28145,-0.62096c0.39384,0.09356 0.70225,0.23766 0.6884,0.72599c-0.13661,0.03083 -0.2534,-0.04604 -0.40697,-0.10501z" fill="#bbd2d3"/><path d="M61.05513,177.40054c0.14718,-0.07167 0.27328,-0.06173 0.39933,-0.05176c0.0918,0.08013 0.05883,0.17648 0.0639,0.28102c0.00381,0.07838 0.02075,0.16822 -0.0372,0.26781c-0.14718,0.07167 -0.27834,-0.04275 -0.43867,0.01747c-0.04703,-0.19115 -0.02972,-0.35119 0.01254,-0.51446z" fill="#c3dadb"/><path d="M63.57744,182.25436c0.21238,0.23548 0.42481,0.47087 0.58985,0.76509c-0.08417,0.07664 -0.16162,0.03413 -0.22717,-0.02314c-0.18234,-0.13414 -0.35284,-0.28294 -0.51022,-0.42033c-0.11804,-0.10302 -0.07324,-0.21408 0.14756,-0.32157z" fill="#b1c6c7"/><path d="M57.67956,182.08577c0.08124,0.12092 0.04954,0.24341 0.06777,0.35939c0.04827,0.21731 -0.04518,0.36092 -0.25289,0.47993c-0.11257,-0.24839 -0.0885,-0.52767 -0.07503,-0.76611c0.09602,-0.09136 0.15778,-0.11253 0.26015,-0.07321z" fill="#bbd2d3"/><path d="M62.12183,184.33678c0.2966,0.15878 0.43664,0.45619 0.60172,0.75038c-0.2547,-0.07214 -0.45141,-0.24392 -0.64689,-0.38947c-0.1299,-0.08835 -0.12062,-0.15532 0.04518,-0.3609z" fill="#bad1d2"/><path d="M59.03261,185.36871c-0.18782,0.01119 -0.34941,0.0453 -0.53722,0.05654c-0.05374,-0.07194 -0.11003,-0.19616 -0.17816,-0.30563c0.27874,-0.2071 0.29186,-0.19566 0.45054,-0.03215c0.0918,0.08015 0.17178,0.17498 0.26486,0.28124z" fill="#b5cbcc"/><path d="M67.01095,185.45156c-0.15778,0.11249 -0.29441,0.14341 -0.43103,0.17426c-0.08252,-0.14712 -0.04023,-0.31039 -0.03607,-0.48187c0.14846,-0.04559 0.28508,-0.0764 0.43357,-0.12198c0.1062,0.11772 0.02589,0.27278 0.03352,0.42962z" fill="#c0d7d8"/><path d="M58.71882,183.56837c-0.09728,0.06518 -0.21023,0.06674 -0.33632,0.05681c-0.13499,-0.1929 -0.19639,-0.4216 -0.20785,-0.65683c0.06977,-0.11424 0.13282,-0.10927 0.22204,-0.0814c0.11133,0.22223 0.22263,0.44453 0.32207,0.68146z" fill="#bdd4d4"/><path d="M63.7582,186.9912c0.18911,0.01492 0.37945,0.05596 0.56856,0.07087c0.01821,0.11598 -0.01478,0.21232 -0.0858,0.30044c-0.09727,0.06519 -0.18652,0.03738 -0.28761,0.02418c-0.07616,-0.01645 -0.15229,-0.03284 -0.22845,-0.04926c-0.0432,-0.11276 -0.04829,-0.2173 0.03335,-0.34625z" fill="#b6cccc"/><path d="M66.35333,184.32705c0.18782,-0.01119 0.35067,-0.01919 0.55037,-0.04508c0.06685,0.08336 0.11005,0.19613 0.04281,0.36266c-0.14846,0.04561 -0.31006,0.07968 -0.48346,0.12848c-0.05756,-0.15031 -0.11388,-0.27453 -0.10966,-0.44604z" fill="#c1d9d9"/><path d="M62.878,187.22366c-0.05756,-0.15031 -0.08891,-0.27778 -0.07158,-0.43781c0.18782,-0.01119 0.34268,0.07394 0.48312,0.12144c0.08124,0.12092 0.03643,0.23196 0.01657,0.33974c-0.04863,0.03261 -0.07233,0.06198 -0.08544,0.05057c-0.1142,-0.02465 -0.22842,-0.04927 -0.34268,-0.07394z" fill="#b7cdce"/><path d="M61.12231,187.01753c0.23902,0.00847 0.35706,0.11147 0.4988,0.18514c0.16669,0.07041 0.14811,0.20434 0.13082,0.36438c-0.18782,0.01119 -0.32956,-0.06246 -0.48187,-0.09531c-0.10746,-0.14386 -0.02841,-0.32507 -0.14774,-0.45424z" fill="#b6cccc"/><path d="M57.66513,183.8497c-0.04572,-0.165 -0.07707,-0.29243 -0.12151,-0.43132c0.09346,-0.14362 0.16452,-0.23174 0.31298,-0.27729c0.04701,0.19117 0.10584,0.36763 0.15158,0.53262c-0.06719,0.16653 -0.19327,0.15654 -0.27743,0.23324c-0.02623,-0.02291 -0.06432,-0.03112 -0.06561,-0.05724z" fill="#c2dada"/><path d="M67.39064,184.48182c-0.05627,-0.12419 -0.06009,-0.20259 -0.02716,-0.29893c0.05796,-0.09959 0.15777,-0.1125 0.25631,-0.15161c0.08671,-0.02441 0.18271,-0.11576 0.28636,-0.0503c0.01946,0.1421 0.01403,0.28746 -0.06634,0.44256c-0.16159,0.03412 -0.2995,0.03884 -0.44926,0.05828z" fill="#bbd2d3"/><path d="M62.47085,176.55944c-0.01731,0.16005 -0.02406,0.27928 -0.04263,0.41316c-0.17472,0.02268 -0.32701,-0.0102 -0.49117,-0.02834c-0.03133,-0.12741 -0.0246,-0.24667 0.05832,-0.34944c0.0368,-0.01794 0.07361,-0.03583 0.1117,-0.02763c0.0998,-0.01296 0.21283,-0.01442 0.36382,-0.00774z" fill="#bbd2d3"/><path d="M58.72607,185.77665c0.28639,-0.0503 0.2864,-0.05031 0.56855,0.0709c0.04573,0.16503 -0.03591,0.29395 -0.10314,0.46045c-0.2192,-0.11622 -0.33046,-0.33847 -0.46545,-0.53135z" fill="#adc2c3"/><path d="M60.67017,177.48995c0.03133,0.12741 0.01273,0.26138 -0.05705,0.37559c-0.17472,0.02268 -0.32442,0.04213 -0.48728,0.05006c0.07013,-0.36417 0.08194,-0.37884 0.54431,-0.42571z" fill="#b5cbcc"/><path d="M64.73575,186.69342c-0.03264,-0.15357 -0.05081,-0.26958 -0.03347,-0.42961c0.16029,-0.06023 0.31388,-0.00125 0.48989,0.00223c0.01567,0.06373 0.01821,0.11597 0.02078,0.16824c0.00256,0.05228 -0.01985,0.10778 -0.02913,0.17474c-0.14593,0.09784 -0.2838,0.10256 -0.44798,0.08441z" fill="#bbd1d2"/><path d="M63.79779,176.21636c0.21024,-0.06672 0.37946,0.05597 0.5436,0.07409c0.04442,0.13889 -0.02532,0.25317 -0.04393,0.38707c-0.22717,-0.02311 -0.38201,-0.10825 -0.49075,-0.27826c-0.03932,-0.03437 -0.01823,-0.11599 -0.00894,-0.18294z" fill="#b6cccd"/><path d="M68.49836,181.44512c-0.08764,-0.25164 -0.15027,-0.5065 -0.22477,-0.74667c0.09603,-0.09135 0.18269,-0.11575 0.32189,-0.09438c0.02589,0.27278 0.05172,0.54556 0.00273,0.82808c-0.04993,0.00648 -0.07489,0.00971 -0.09982,0.01296z" fill="#acc1c2"/><path d="M63.32147,183.95758c-0.20606,-0.10478 -0.40025,-0.22425 -0.54705,-0.40245c-0.05373,-0.07196 -0.07069,-0.16178 -0.01149,-0.2352c0.02367,-0.02934 0.09729,-0.0652 0.11041,-0.05375c0.20857,0.15704 0.32244,0.43156 0.44814,0.69138z" fill="#a7bbbb"/><path d="M65.58564,186.60947c-0.05502,-0.09808 -0.03517,-0.20584 -0.00345,-0.32829c0.16159,-0.03412 0.32318,-0.06821 0.48478,-0.10233c0.05756,0.15031 -0.00038,0.24988 -0.08327,0.35267c-0.11039,0.05376 -0.26013,0.07322 -0.39807,0.07793z" fill="#b7cdcd"/><path d="M58.66042,179.53901c0.07197,0.18795 0.05462,0.34796 0.02549,0.52269c-0.13408,0.08312 -0.2576,0.12548 -0.423,0.08115c0.0634,-0.24492 0.21863,-0.4097 0.39751,-0.60386z" fill="#b7cece"/><path d="M65.64138,176.42433c0.24029,0.03457 0.36342,0.24214 0.5538,0.28317c0.03133,0.1274 -0.02917,0.17473 -0.0922,0.16976c-0.16413,-0.01815 -0.32959,-0.06245 -0.4607,-0.17695c-0.02752,-0.04904 -0.0406,-0.06049 -0.00091,-0.27604z" fill="#b4cacb"/><path d="M67.93287,181.95242c0.11039,-0.05375 0.18526,-0.0635 0.27453,-0.03565c0.04827,0.21731 0.10966,0.44602 0.0488,0.74322c-0.23479,-0.17995 -0.25939,-0.4266 -0.32333,-0.70759z" fill="#b2c8c9"/><path d="M61.55884,176.91442c-0.14846,0.04559 -0.26015,0.07321 -0.36253,0.03389c-0.04063,-0.06047 -0.01823,-0.116 0.0042,-0.17151c0.08962,-0.22201 0.24068,-0.2153 0.43101,-0.17425c-0.03294,0.09633 -0.05282,0.20411 -0.07268,0.31188z" fill="#b5cbcb"/><path d="M61.45956,185.43522c0.18235,0.13415 0.32662,0.26006 0.44848,0.44148c-0.04611,0.08487 -0.10912,0.0799 -0.14846,0.04558c-0.10366,-0.06547 -0.21918,-0.11625 -0.32281,-0.18169c-0.10491,-0.0916 -0.08377,-0.17323 0.0228,-0.30535z" fill="#91a3a3"/><path d="M66.22172,180.08354c-0.24029,-0.03457 -0.39896,-0.1981 -0.55635,-0.33549c-0.02623,-0.02291 -0.0288,-0.07518 -0.01821,-0.11598c0.02367,-0.02934 0.08541,-0.05055 0.09857,-0.0391c0.2192,0.11622 0.36598,0.29442 0.47602,0.49055z" fill="#99abac"/><path d="M66.34415,178.98941c0.03043,-0.14861 0.08964,-0.22202 0.17891,-0.19416c0.1155,0.0508 0.22296,0.19462 0.34612,0.40219c-0.21407,-0.01167 -0.35832,-0.1376 -0.52499,-0.20805z" fill="#93a5a6"/><path d="M57.66919,181.10093c0.04953,0.24343 0.12406,0.4836 -0.19402,0.65638c-0.06261,-0.25487 0.0913,-0.44577 0.19402,-0.65638z" fill="#9aadad"/><path d="M60.22217,182.97887c0.14048,0.04754 0.29402,0.10649 0.42138,0.14261c0.03004,0.1013 0.00765,0.1568 -0.07653,0.23347c-0.17729,-0.02961 -0.26108,-0.20282 -0.39098,-0.29118c0.02367,-0.02934 0.03554,-0.04405 0.04612,-0.08491z" fill="#c5dddd"/><path d="M64.66537,181.9029c-0.27709,-0.01666 -0.44759,-0.16554 -0.57076,-0.37306c-0.01313,-0.01146 -0.00257,-0.05231 0.02112,-0.08166c0.02243,-0.0555 0.08541,-0.05055 0.11166,-0.02763c0.15614,0.11122 0.278,0.29271 0.43797,0.48235z" fill="#aec2c3"/><path d="M63.43909,176.32865c-0.18782,0.01119 -0.35451,-0.05921 -0.50809,-0.11821c-0.03005,-0.10129 0.03044,-0.14862 0.10657,-0.13219c0.13919,0.02139 0.26525,0.03136 0.40569,0.0789c0.04993,-0.00648 0.05375,0.0719 -0.0042,0.17149z" fill="#9caeaf"/><path d="M66.48866,186.07158c0.14593,-0.09784 0.26941,-0.14014 0.43103,-0.17426c-0.10147,0.23672 -0.27106,0.36391 -0.41319,0.54013c-0.02751,-0.04905 -0.05373,-0.07196 -0.05498,-0.09806c0.00803,-0.09308 0.02914,-0.1747 0.03714,-0.2678z" fill="#a9bebf"/><path d="M63.45963,179.3241c-0.05666,0.1257 -0.11711,0.17298 -0.20389,0.19738c-0.14299,-0.09982 -0.22549,-0.24691 -0.23827,-0.50825c0.18108,0.10802 0.29911,0.21105 0.44216,0.31083z" fill="#b9cfd0"/><path d="M60.0693,184.22163c0.03004,0.1013 -0.00422,0.17151 -0.03845,0.24168c-0.08545,0.05053 -0.15101,-0.00669 -0.43028,-0.32555c0.2208,-0.10755 0.32955,0.06245 0.46874,0.08387z" fill="#869797"/><path d="M65.34964,180.99881c-0.17434,-0.22724 -0.46456,-0.25535 -0.45614,-0.59832c0.24414,0.11299 0.38968,0.26501 0.45614,0.59832z" fill="#93a4a5"/><path d="M61.48652,186.7599c-0.19673,-0.1717 -0.3279,-0.28623 -0.45906,-0.40069c-0.02623,-0.02291 -0.0288,-0.07518 0.00675,-0.1192c0.01186,-0.0147 0.04866,-0.03261 0.0736,-0.03586c0.18109,0.10798 0.3254,0.23395 0.37873,0.55574z" fill="#94a5a6"/><path d="M59.69757,185.09835c-0.01863,0.13392 -0.04096,0.18939 -0.15265,0.21705c-0.11675,-0.0769 -0.24668,-0.16524 -0.34232,-0.3238c0.21024,-0.06669 0.34136,0.04777 0.49493,0.10673z" fill="#abbfc0"/><path d="M62.06837,187.61804c0.03297,-0.09633 0.04354,-0.13714 0.06724,-0.16655c0.31388,-0.00128 0.31385,-0.00126 0.46194,0.20307c-0.19711,0.07815 -0.32828,-0.03629 -0.52918,-0.03655z" fill="#acc0c1"/><path d="M58.14481,181.84142c0.03387,0.17972 0.09273,0.35617 0.11475,0.55056c0.00381,0.07838 -0.04357,0.13714 -0.15777,0.1125c-0.04825,-0.21732 -0.08343,-0.42312 0.04303,-0.66304z" fill="#9fb2b2"/><path d="M64.72868,187.06257c0.1117,-0.02764 0.18655,-0.03734 0.2758,-0.00948c0.02881,0.07518 0.01951,0.14212 -0.02659,0.22701c-0.08418,0.07665 -0.19711,0.07815 -0.31005,0.07964c-0.05502,-0.09808 0.00291,-0.19762 0.06086,-0.29715z" fill="#aec2c3"/><path d="M61.55002,181.11037c0.16026,-0.06024 0.25215,0.01991 0.35579,0.08535c0.03932,0.03437 0.03004,0.10126 -0.00547,0.14535c-0.02367,0.02934 -0.08546,0.05057 -0.11168,0.02764c-0.11422,-0.02464 -0.16926,-0.12272 -0.23862,-0.25835z" fill="#91a2a3"/><path d="M67.4513,185.21034c-0.09272,-0.3562 -0.09403,-0.3823 0.24357,-0.41295c-0.06852,0.14038 -0.08581,0.30043 -0.24357,0.41295z" fill="#869696"/><path d="M67.02043,178.17849c0.21151,-0.04057 0.25467,0.07215 0.33467,0.16699c-0.17217,0.07491 -0.17217,0.07491 -0.33467,-0.16699z" fill="#555f5f"/><path d="M61.18185,182.31527c-0.06559,-0.05724 -0.15737,-0.13737 -0.2137,-0.26159c0.22463,-0.02912 0.27707,0.01667 0.32154,0.15552c0.0144,0.03759 -0.02112,0.08167 -0.10787,0.10604z" fill="#93a5a6"/><path d="M60.88425,187.28506c-0.27582,0.00948 -0.29022,-0.02808 -0.14007,-0.29744c0.11551,0.05078 0.13374,0.16675 0.14007,0.29744z" fill="#8b9b9c"/><path d="M67.72811,178.27079c-0.16669,-0.07044 -0.25974,-0.17669 -0.35286,-0.28301c0.03169,-0.12245 0.09348,-0.14361 0.14592,-0.09781c0.10492,0.09158 0.19801,0.19787 0.20695,0.38077z" fill="#9aacad"/><path d="M63.21607,187.71903c-0.13661,0.03083 -0.24704,0.08463 -0.34014,-0.02164c-0.01311,-0.01148 -0.01441,-0.03757 -0.00256,-0.05228c0.13281,-0.10928 0.23522,-0.06995 0.34268,0.07392z" fill="#5f6a6b"/><path d="M62.44834,180.21796c0.08799,0.00175 0.14048,0.04754 0.18108,0.10805c0.0144,0.03759 0.01693,0.08984 -0.01987,0.10777c-0.0368,0.01794 -0.08671,0.02441 -0.11294,0.00149c-0.05243,-0.04581 -0.09307,-0.10627 -0.04825,-0.21729z" fill="#636e6f"/><path d="M65.6271,186.94603c-0.04356,0.13715 -0.11586,0.19912 -0.26816,0.1663c0.04228,-0.16328 0.12896,-0.1877 0.26816,-0.1663z" fill="#4a5354"/></g><g fill="#000000" stroke="#000000" stroke-width="1.2"><path d="M53.76811,160.51355c1.66862,0.83542 2.74717,4.00406 4.27141,5.71976c1.64104,1.84723 3.57503,2.16114 3.841,3.78126c0.18578,1.13164 -0.854,2.33224 -1.47368,2.88274c-1.5068,1.33866 -4.98789,-0.11958 -7.77519,-3.25704c-2.78731,-3.13747 -3.82536,-6.76607 -2.31857,-8.10471c0.6828,-0.60661 2.07228,-1.71431 3.455,-1.02203z"/><path d="M49.69503,161.24241c2.31598,1.186 5.50926,6.26737 5.50926,6.26737c0,0 3.33462,2.07633 3.39096,2.14205c3.59233,4.18797 1.02349,6.55178 -1.94357,9.18769c-1.41211,1.25454 -4.09222,2.61105 -6.01107,2.00557c-2.17621,-0.68668 -3.56464,-3.11507 -5.61108,-5.41861c-3.85087,-4.33465 -5.33678,-9.60686 -2.32317,-12.28414c1.32658,-1.17853 3.89539,-3.48396 6.98865,-1.89993z"/></g></g><path d="M91.93485,200.50571c-2.25771,-0.17728 -3.48156,-5.60193 -2.73352,-12.11632c0.74802,-6.5144 3.18467,-11.65165 5.44237,-11.47439c2.25771,0.17728 3.48156,5.60193 2.73352,12.11632c-0.74802,6.5144 -3.18467,11.65165 -5.44237,11.47439z" fill="none" fill-rule="nonzero" stroke="#000000" stroke-width="4.5" stroke-linecap="butt" stroke-linejoin="miter"/><g fill="#ff0000" fill-rule="nonzero" stroke="none" stroke-linecap="butt" stroke-linejoin="miter"><path d="M34.75554,173.17678c-1.15333,0.33818 -2.44426,-0.18104 -2.88341,-1.15973c-0.43914,-0.97868 0.13982,-2.04621 1.29314,-2.38438c1.15333,-0.33818 2.44426,0.18104 2.88342,1.15973c0.43914,0.97868 -0.13983,2.04622 -1.29314,2.38439z" stroke-width="NaN"/><path d="M31.30503,176.86214c-1.06107,0.31113 -2.23767,-0.14187 -2.62801,-1.0118c-0.39035,-0.86993 0.15336,-1.82739 1.21444,-2.13851c1.06107,-0.31113 2.23766,0.14189 2.62801,1.01182c0.39035,0.86993 -0.15337,1.82738 -1.21443,2.13849z" stroke-width="0"/><path d="M26.25036,175.07654c-1.10719,0.32464 -2.32121,-0.11739 -2.71153,-0.98732c-0.39035,-0.86993 0.19077,-1.83835 1.29799,-2.163c1.10719,-0.32464 2.3212,0.11738 2.71153,0.98732c0.39035,0.86993 -0.19077,1.83835 -1.29796,2.163z" stroke-width="0"/><path d="M42.92886,175.60994c-0.04559,-0.78042 0.78218,-1.45712 1.84891,-1.51145c1.06675,-0.05433 1.96847,0.53429 2.01406,1.31471c0.04559,0.78042 -0.78218,1.45712 -1.84894,1.51147c-1.06675,0.05433 -1.96845,-0.5343 -2.01404,-1.31471z" stroke-width="NaN"/><path d="M40.17521,172.68886c-0.04195,-0.71799 0.6927,-1.33918 1.64091,-1.38748c0.94821,-0.04829 1.75089,0.4946 1.79283,1.21261c0.04195,0.71799 -0.69272,1.33918 -1.64093,1.38747c-0.94821,0.04829 -1.75089,-0.4946 -1.79283,-1.21261z" stroke-width="0"/><path d="M38.3208,175.33443c-0.04743,-0.81164 0.65078,-1.50712 1.55947,-1.5534c0.90871,-0.04628 1.68378,0.57418 1.73121,1.38583c0.04743,0.81164 -0.65078,1.50712 -1.55949,1.5534c-0.90871,0.04628 -1.68378,-0.57416 -1.73119,-1.3858z" stroke-width="0"/><path d="M35.4074,162.57556c-1.22265,0.03754 -2.23583,-0.77823 -2.26302,-1.82204c-0.02719,-1.04382 0.94193,-1.92044 2.16458,-1.95798c1.22265,-0.03754 2.23583,0.77821 2.26302,1.82204c0.02719,1.04382 -0.94193,1.92045 -2.16458,1.95799z" stroke-width="NaN"/><path d="M30.69123,165.24235c-1.12482,0.03453 -2.05627,-0.68963 -2.08043,-1.61747c-0.02416,-0.92784 0.8681,-1.70799 1.99295,-1.74252c1.12482,-0.03453 2.05626,0.68963 2.08045,1.61748c0.02416,0.92784 -0.8681,1.70799 -1.99294,1.74254z" stroke-width="0"/><path d="M42.44513,166.186c0.26584,-0.75694 1.31518,-1.19853 2.34372,-0.9863c1.02854,0.21223 1.6468,0.99792 1.38095,1.75488c-0.26584,0.75694 -1.31518,1.19853 -2.34372,0.9863c-1.02854,-0.21223 -1.6468,-0.99791 -1.38096,-1.75486z" stroke-width="NaN"/><path d="M44.90321,160.87234c0.25525,-0.72668 1.20328,-1.1628 2.11756,-0.97419c0.91426,0.18864 1.44851,0.93065 1.19328,1.65734c-0.25525,0.72668 -1.20328,1.16283 -2.11753,0.97418c-0.91426,-0.18864 -1.44851,-0.93066 -1.19328,-1.65734z" stroke-width="0"/><path d="M38.20398,164.7817c0.27649,-0.78723 1.2109,-1.27884 2.08707,-1.09806c0.87617,0.1808 1.3623,0.96551 1.08582,1.75274c-0.27649,0.78723 -1.21092,1.27884 -2.08708,1.09807c-0.87617,-0.1808 -1.36229,-0.96552 -1.08581,-1.75277z" stroke-width="0"/></g><path d="M60.45554,240.29019c-26.97147,-5.53763 -44.21877,-32.51618 -38.52292,-60.25825c5.69584,-27.74207 32.17792,-45.74235 59.14941,-40.20471c26.97147,5.53763 44.21877,32.51618 38.52292,60.25825c-5.69584,27.74207 -32.17792,45.74235 -59.14941,40.20471z" fill="#000000" fill-rule="nonzero" stroke="#7d7d7d" stroke-width="4" stroke-linecap="butt" stroke-linejoin="miter"/><path d="M88.2739,236.39422c-8.48202,4.33253 -18.53039,1.6341 -22.44362,-6.02708c-3.91323,-7.66119 -0.2095,-17.38401 8.27253,-21.71653c8.48202,-4.33253 18.53039,-1.6341 22.44362,6.02708c3.91323,7.66119 0.2095,17.38401 -8.27253,21.71653z" fill="#888888" fill-rule="nonzero" stroke="none" stroke-width="0" stroke-linecap="butt" stroke-linejoin="miter"/><g stroke-linejoin="miter"><path d="M97.64852,219.22642c-10.50055,-8.40645 -11.89118,-24.11703 -3.10608,-35.09059c8.78511,-10.97353 24.41924,-13.05459 34.91979,-4.64816c10.50055,8.40645 11.89118,24.11703 3.10608,35.09059c-8.78511,10.97353 -24.41924,13.05459 -34.91979,4.64816z" fill="none" fill-rule="nonzero" stroke="#000000" stroke-width="4.5" stroke-linecap="butt"/><g stroke-linecap="butt"><g fill-rule="nonzero"><path d="M135.25445,197.41797l0.01347,-0.00387" fill="#ffab19" stroke="#000000" stroke-width="5"/><g fill="none" stroke="none" stroke-width="1" font-family="sans-serif" font-weight="normal" font-size="12" text-anchor="start"/></g><path d="M135.25445,197.41797l0.01347,-0.00387" fill="#ffab19" fill-rule="nonzero" stroke="#000000" stroke-width="5"/><path d="M112.78263,198.36544" fill="#001026" fill-rule="evenodd" stroke="#000000" stroke-width="5"/><g fill="none" fill-rule="nonzero" stroke="none" stroke-width="1" font-family="sans-serif" font-weight="normal" font-size="12" text-anchor="start"/><g fill="none" fill-rule="nonzero" stroke="none" stroke-width="1" font-family="sans-serif" font-weight="normal" font-size="12" text-anchor="start"/></g><path d="M97.48048,179.06808l18.58629,-22.84231c0,0 1.76755,-1.66489 2.25461,-0.83079c1.11687,1.91261 4.3114,12.07498 4.3114,12.07498l10.40471,-6.63933c0,0 2.03636,-1.09743 3.09409,-0.65976c0.98397,0.40714 1.17133,15.15163 1.17133,15.15163c0,0 7.98448,-4.19772 10.93049,-4.70783c1.15682,-0.20032 -0.7172,14.38175 -3.22391,23.47893c-1.22661,4.45153 -2.69643,10.68381 -5.05776,14.8019c-3.91528,6.82809 -9.45298,10.07822 -9.45298,10.07822" fill="none" fill-rule="nonzero" stroke="#000000" stroke-width="3" stroke-linecap="round"/><path d="M117.23526,154.7662c0,0 1.42727,0.46349 2.16778,2.63128c0.92749,2.71519 0.12768,8.91584 3.00476,9.10057c3.72697,0.23933 11.25046,-9.89026 13.28318,-6.2738c1.6691,2.96954 0.14092,13.62124 1.75799,14.91581c1.61347,1.29172 3.48672,-3.05996 7.27146,-3.38558c5.38272,-0.46313 4.26327,0.94413 4.26327,0.94413c0,0 -1.49165,13.81974 -3.14126,19.79544c-1.54773,5.60654 -6.47029,15.02192 -6.47029,15.02192c0,0 -1.39792,-20.2502 -6.34894,-26.94442c-5.48831,-7.42066 -30.97898,-5.33429 -30.97898,-5.33429z" fill="url(#color-1)" fill-rule="nonzero" stroke="none" stroke-width="0" stroke-linecap="butt"/></g><path d="M117.16793,198.41398c-3.06978,-0.30134 -5.24845,-3.70183 -4.86627,-7.59519c0.38219,-3.89335 3.18057,-6.80526 6.25032,-6.5039c3.06978,0.30134 5.24845,3.70183 4.86627,7.59519c-0.38219,3.89335 -3.18057,6.80526 -6.25032,6.5039z" fill="none" fill-rule="nonzero" stroke="#000000" stroke-width="4.5" stroke-linecap="butt" stroke-linejoin="miter"/><path d="M109.97888,179.45581c0,0 0.21598,2.54462 -1.89272,4.7147c-1.95444,2.01137 -10.33182,7.86581 -10.33182,7.86581" fill="none" fill-rule="nonzero" stroke="#000000" stroke-width="3" stroke-linecap="round" stroke-linejoin="miter"/></g></g></svg>