<svg version="1.1" xmlns="http://www.w3.org/2000/svg" xmlns:xlink="http://www.w3.org/1999/xlink" width="1122.3737" height="1007.719" viewBox="0,0,1122.3737,1007.719"><g transform="translate(146.02092,90.80801)"><g data-paper-data="{&quot;isPaintingLayer&quot;:true}" fill="#2c1616" fill-rule="nonzero" stroke="none" stroke-width="0" stroke-linecap="butt" stroke-linejoin="miter" stroke-miterlimit="10" stroke-dasharray="" stroke-dashoffset="0" style="mix-blend-mode: normal"><path d="M339.57309,916.91088c0,0 72.14883,-121.19342 -67.06008,-257.29085c-94.58231,-92.46829 -418.02798,-203.05751 -418.53361,-243.57581c-0.36235,-29.03795 302.78481,99.95276 402.25745,95.81909c134.66346,-5.596 76.56199,-137.81256 76.56199,-137.81256c0,0 -419.68536,-84.07892 -377.5865,-84.8513c6.07858,-0.11152 362.5007,10.47581 420.91721,-35.83451c61.61611,-48.84685 68.12083,-164.18126 96.62846,-304.65241c10.51242,-51.80008 30.96978,213.84299 95.41141,208.75905c95.70358,-7.55024 247.58367,-266.10116 277.50134,-247.30233c98.91079,62.15065 -228.35333,458.66174 -228.35333,458.66174c0,0 -36.92292,145.88572 46.50937,142.65127c95.29462,-3.69432 312.52598,-154.23236 312.52598,-111.33242c0,48.25348 -167.37998,136.61978 -255.24724,251.53789c-17.65147,23.0857 -121.26907,135.03781 -78.15969,152.5356c46.46764,18.86089 240.38542,-56.81318 232.32927,-33.35771c-23.24375,67.67409 -257.95769,146.04535 -257.95769,146.04535z"/></g></g></svg>