<svg version="1.1" xmlns="http://www.w3.org/2000/svg" xmlns:xlink="http://www.w3.org/1999/xlink" width="76.8964" height="104.86608" viewBox="0,0,76.8964,104.86608"><defs><linearGradient x1="214.92636" y1="167.81101" x2="192.80486" y2="164.06532" gradientUnits="userSpaceOnUse" id="color-1"><stop offset="0" stop-color="#000000"/><stop offset="1" stop-color="#000000" stop-opacity="0"/></linearGradient></defs><g transform="translate(-193.36196,-138.59332)"><g data-paper-data="{&quot;isPaintingLayer&quot;:true}" stroke-miterlimit="10" stroke-dasharray="" stroke-dashoffset="0" style="mix-blend-mode: normal"><path d="M223.34131,206.72936c0,0 -0.95444,-5.03343 -0.26485,-5.91705c1.24863,-1.59996 14.25155,-7.35078 14.25155,-7.35078c0,0 5.10779,7.25888 8.14332,9.04774c2.83454,1.67041 10.79433,0.6195 10.79433,0.6195" fill="none" fill-rule="nonzero" stroke="#000000" stroke-width="6" stroke-linecap="round" stroke-linejoin="miter"/><path d="M237.04438,196.33347l-2.08882,10.17024" fill="none" fill-rule="nonzero" stroke="#000000" stroke-width="6" stroke-linecap="round" stroke-linejoin="miter"/><g><g><g stroke="#001026" stroke-width="1.2"><path d="M243.84872,204.61738l2.95881,25.64794c0,0 7.14927,0.40713 6.97925,7.41497c-0.0097,0.39952 -0.11111,2.36107 -3.06458,2.93514c-2.82883,0.54983 -8.4679,-0.27155 -10.52835,-0.58365c-0.95698,-0.14496 -2.41475,-0.77726 -3.34639,-1.8599c-0.93799,-1.09006 -0.83668,-2.67534 -0.83604,-3.56714c0.00025,-0.36323 -2.10492,-28.92346 -2.10492,-28.92346" fill="#bf0000" fill-rule="evenodd" stroke-linecap="round" stroke-linejoin="round"/><path d="M233.72983,211.46517c0.17424,-7.1819 5.5861,-7.30619 8.40577,-7.24117c1.2261,0.02828 1.06041,-1.8912 2.14546,3.72604c0.23896,1.23714 0.70857,6.31601 1.71279,10.63895c0.68765,2.96018 1.97748,5.57401 2.21846,6.32495c0.56936,1.7743 0.33514,3.39176 0.33514,3.39176l-1.03234,-1.1755c0,0 0.68026,0.81922 0.95268,1.30802c0.84869,1.52273 1.49788,2.67202 1.49788,2.67202c0,0 -7.21059,-0.45398 -10.01898,1.78607c-2.80839,2.24006 -1.41677,6.4563 -1.41677,6.4563c0,0 -5.34231,-0.80036 -5.77044,-3.67382c-0.10555,-0.70838 0.72304,-2.81642 0.72304,-2.81642c0,0 -0.61085,0.11924 -0.63064,-0.37125c-0.01009,-0.25004 0.80842,-3.95922 0.99028,-8.13184c0.2394,-5.49295 -0.13747,-11.85933 -0.11236,-12.89411z" fill="#000000" fill-rule="nonzero" stroke-linecap="butt" stroke-linejoin="miter"/></g><path d="M224.56353,206.36657c-0.00997,-0.21082 1.21341,0.41074 3.98553,0.48257c3.65714,0.09477 9.25794,-0.32923 10.83284,-0.54616c4.084,-0.56256 4.77511,-2.05991 4.80155,-1.50106c0.09785,2.06805 -2.2122,5.89879 -6.88426,6.10891c-2.05315,0.09234 -6.25259,0.78486 -8.63066,0.05677c-3.03334,-0.92872 -4.05015,-3.44181 -4.10501,-4.60104z" fill="#004fd9" fill-rule="nonzero" stroke="#001026" stroke-width="1.2" stroke-linecap="butt" stroke-linejoin="miter"/><g fill-rule="nonzero" stroke-linecap="butt" stroke-linejoin="miter"><g fill="none" stroke="none" stroke-width="1" font-family="sans-serif" font-weight="normal" font-size="12" text-anchor="start"/><path d="M224.07079,205.02156c0,0 8.77558,1.30186 12.80822,1.28371c4.03263,-0.01815 7.35498,-1.37447 7.35498,-1.37447c0,0 0.03174,2.02431 -1.76667,3.99445c-1.39208,1.52501 -4.0675,3.10482 -7.52555,3.13834c-3.15037,0.03054 -6.66508,-0.61472 -8.40484,-1.93877c-2.63696,-2.00689 -2.46613,-5.10327 -2.46613,-5.10327z" fill="#000000" stroke="#001026" stroke-width="1.2"/></g><g stroke="#001026" stroke-width="1.2"><path d="M233.76529,210.15237c0,0 -3.42514,29.83624 -4.05016,29.93473c-1.79365,0.28261 -11.62294,-2.248 -11.62294,-2.248l6.31825,-29.99758" data-paper-data="{&quot;index&quot;:null}" fill="#ffab19" fill-rule="evenodd" stroke-linecap="round" stroke-linejoin="round"/><path d="M235.27899,209.67135c0,0 -0.80012,6.30925 -1.03646,9.65456c-0.22667,3.20866 -0.35375,10.02446 -0.35375,10.02446c0,0 0.96083,4.95254 0.02145,6.17384c-0.43508,0.56566 -0.77792,-2.79611 -0.77792,-2.79611c0,0 0.38273,3.7899 0.42041,4.12395c0.26294,2.33071 -0.93703,5.39138 -4.08147,5.68216c-3.4524,0.31925 -9.17596,0.67983 -12.1265,-1.16413c-1.25541,-0.78457 -2.95593,-3.0941 -2.49824,-5.55437c0.51614,-2.77454 3.28795,-5.68118 3.28795,-5.68118l-2.54695,3.16839c0,0 -0.02655,-1.58203 0.38787,-2.74253c0.4654,-1.30324 2.26939,-4.69848 2.26939,-4.69848l5.46869,-19.1078" data-paper-data="{&quot;index&quot;:null}" fill="#000000" fill-rule="evenodd" stroke-linecap="round" stroke-linejoin="round"/><path d="M232.08108,238.22694c-0.08654,1.67529 -0.79248,3.62173 -2.32473,4.63246c-1.53794,1.01447 -10.78098,0.61245 -12.20989,-0.62738c-1.357,-1.17742 -1.90977,-3.35362 -1.82531,-4.98869c0.1734,-3.35678 3.97626,-5.85782 8.49394,-5.5862c4.51765,0.27161 8.0394,3.21303 7.86597,6.56983z" fill="#ff0000" fill-rule="nonzero" stroke-linecap="butt" stroke-linejoin="miter"/></g></g><g fill="#000000" fill-rule="nonzero" stroke="#001026" stroke-width="1.2" stroke-linecap="butt" stroke-linejoin="miter"><path d="M225.39611,216.38242c0,0 -2.95038,0.45271 -3.85287,0.19326c-0.27782,-0.07988 -1.01948,-1.00218 -1.39881,-2.10103c-0.47346,-1.37148 -0.53598,-3.0621 -0.20161,-4.24303c0.86029,-3.03832 5.30169,-6.35216 7.38422,-5.75347c0.90255,0.25946 3.26378,2.72879 3.26555,2.73498"/></g></g><path d="M226.33406,146.82701l0.00995,0.00988" data-paper-data="{&quot;index&quot;:null}" fill="#ffab19" fill-rule="nonzero" stroke="#001026" stroke-width="1.2" stroke-linecap="butt" stroke-linejoin="miter"/><path d="M238.12362,165.99732" fill="#001026" fill-rule="evenodd" stroke="none" stroke-width="1" stroke-linecap="butt" stroke-linejoin="miter"/><g stroke-linejoin="miter"><path d="M263.67609,172.0481c-2.24562,13.26224 -15.30149,22.11098 -29.16114,19.76421c-13.85964,-2.34677 -23.27468,-15.00036 -21.02905,-28.26261c2.24562,-13.26224 15.30149,-22.11098 29.16114,-19.76421c13.85964,2.34677 23.27468,15.00036 21.02905,28.26261z" fill="none" fill-rule="nonzero" stroke="#000000" stroke-width="4.5" stroke-linecap="butt"/><g><g fill-rule="nonzero" stroke-linecap="butt"><path d="M226.34335,149.77536l-0.00993,-0.0099" data-paper-data="{&quot;index&quot;:null}" fill="#ffab19" stroke="#000000" stroke-width="5"/><g data-paper-data="{&quot;index&quot;:null}" fill="none" stroke="none" stroke-width="1" font-family="sans-serif" font-weight="normal" font-size="12" text-anchor="start"/></g><path d="M226.34335,149.77536l-0.00993,-0.0099" data-paper-data="{&quot;index&quot;:null}" fill="#ffab19" fill-rule="nonzero" stroke="#000000" stroke-width="5" stroke-linecap="butt"/><path d="M238.08978,168.9561" fill="#001026" fill-rule="evenodd" stroke="#000000" stroke-width="5" stroke-linecap="butt"/><g data-paper-data="{&quot;index&quot;:null}" fill="none" fill-rule="nonzero" stroke="none" stroke-width="1" stroke-linecap="butt" font-family="sans-serif" font-weight="normal" font-size="12" text-anchor="start"/><g data-paper-data="{&quot;index&quot;:null}" fill="none" fill-rule="nonzero" stroke="none" stroke-width="1" stroke-linecap="butt" font-family="sans-serif" font-weight="normal" font-size="12" text-anchor="start"/><path d="M267.75836,151.43086c-1.90145,1.83419 -15.84725,14.72022 -15.84725,14.72022" fill="none" fill-rule="nonzero" stroke="#000000" stroke-width="5" stroke-linecap="round"/><path d="M220.71424,155.07782c0,0 -1.08951,-0.63387 -0.55169,-0.41506c2.78144,1.13167 27.26381,11.28332 27.26381,11.28332" fill="none" fill-rule="nonzero" stroke="#000000" stroke-width="5" stroke-linecap="round"/></g><path d="M242.98358,177.41106l2.3764,-12.63473" fill="none" fill-rule="nonzero" stroke="#000000" stroke-width="4.5" stroke-linecap="round"/><path d="M251.43514,177.89398l2.49345,-13.32602" fill="none" fill-rule="nonzero" stroke="#000000" stroke-width="4.5" stroke-linecap="round"/><path d="M228.6581,191.70664l-28.99541,-5.14665c0,0 -2.31397,-0.73598 -1.8216,-1.56694c1.12903,-1.90544 8.45915,-9.63517 8.45915,-9.63517l-10.85831,-5.86822c0,0 -1.94859,-1.24663 -2.07997,-2.38377c-0.12222,-1.05784 12.67389,-8.38547 12.67389,-8.38547c0,0 -7.54834,-4.93916 -9.42558,-7.26622c-0.73714,-0.91377 12.91856,-6.36079 22.08773,-8.58988c4.48674,-1.09076 10.6481,-2.83417 15.39477,-2.77113c7.87029,0.10453 13.40158,3.3655 13.40158,3.3655" fill="none" fill-rule="nonzero" stroke="#000000" stroke-width="3" stroke-linecap="round"/><path d="M197.81928,186.24785c0,0 -0.28835,-1.47268 1.24656,-3.17316c1.92252,-2.12989 7.73068,-4.44352 6.49428,-7.04794c-1.60162,-3.37377 -14.11066,-5.0279 -11.9374,-8.56168c1.7845,-2.90165 11.83693,-6.74131 12.18274,-8.78366c0.34505,-2.03783 -4.36859,-1.56076 -6.49209,-4.71055c-3.02007,-4.47966 -1.2462,-4.18497 -1.2462,-4.18497c0,0 12.80363,-5.41083 18.82808,-6.87242c5.65228,-1.37128 16.27334,-1.64344 16.27334,-1.64344c0,0 -17.02012,11.06075 -20.46554,18.64063c-3.8193,8.40243 10.38937,29.66837 10.38937,29.66837z" data-paper-data="{&quot;index&quot;:null}" fill="url(#color-1)" fill-rule="nonzero" stroke="none" stroke-width="0" stroke-linecap="butt"/></g><g fill-rule="nonzero" stroke-linecap="butt" stroke-linejoin="miter"><g data-paper-data="{&quot;index&quot;:null}" stroke="none" stroke-width="1"><path d="M254.76717,189.61417c-0.20607,-0.04989 -0.25877,-0.18847 -0.29169,-0.36205c-0.02999,-0.27803 -0.00344,-0.5567 -0.0145,-0.83495c-0.05515,-0.05157 -0.11028,-0.10315 -0.16589,-0.13731c-1.14736,-0.78739 -1.75783,-1.89396 -2.17624,-3.12448c-0.08708,-0.25997 -0.19302,-0.5198 -0.18527,-0.79822c0.00148,-0.05221 -0.01547,-0.12161 -0.05227,-0.15599c-0.2022,-0.1891 -0.19593,-0.41535 -0.20802,-0.65879c-0.01308,-0.20861 0.01159,-0.41768 0.0174,-0.62651c0.00339,-0.12181 0.04449,-0.24407 0.1601,-0.33239c0.11561,-0.08827 0.17607,-0.22815 0.23601,-0.3506c0.26554,-0.73369 0.66166,-1.41666 1.16951,-2.04869c0.29263,-0.35124 0.6399,-0.63353 1.00605,-0.91599c1.0791,-0.82985 2.31832,-1.31354 3.66348,-1.53748c0.60608,-0.0938 1.2286,-0.10082 1.84916,-0.03823c0.47013,0.0469 0.89919,0.21607 1.3089,0.40282c1.30362,0.59426 2.2391,1.54059 2.88485,2.73377c0.12575,0.22476 0.19398,0.48493 0.26219,0.74514c0.05177,0.17338 0.12289,0.32917 0.30861,0.43149c0.16733,0.08513 0.23846,0.24088 0.27136,0.41447c0.02999,0.27803 0.02225,0.55648 0.0145,0.83494c-0.00242,0.08704 -0.04208,0.15708 -0.08177,0.22711c-0.17653,0.24555 -0.24038,0.50724 -0.26695,0.78592c-0.03529,0.59194 -0.25827,1.15116 -0.46239,1.71018c-0.08128,0.2097 -0.18136,0.41959 -0.31871,0.61252c-0.43239,0.63118 -0.88271,1.2278 -1.49988,1.72189c-0.00725,0.26104 -0.03386,0.53971 -0.04156,0.81816c-0.0029,0.10444 -0.00629,0.22625 -0.12141,0.29711c-0.09624,0.07066 -0.08031,0.1749 -0.08318,0.27929c-0.03817,0.69633 -0.05752,1.39246 -0.0957,2.0888c-0.0619,1.54911 -0.12421,3.1156 -0.22382,4.66513c-0.09865,1.51472 -0.14064,3.02879 -0.20157,4.54309c-0.00675,0.24365 -0.05079,0.4703 -0.05753,0.71394c-0.03285,1.18342 -0.06573,2.36685 -0.11744,3.55047c-0.0058,0.20882 0.02611,0.41725 -0.09239,0.60994c-0.03966,0.07007 -0.02322,0.15682 -0.02565,0.24385c-0.02413,0.87018 -0.06766,1.75795 -0.09182,2.62812c-0.00097,0.0348 -0.00244,0.08701 -0.00339,0.12181c0.01115,0.27825 -0.12478,0.41896 -0.39227,0.54376c-0.89772,0.41026 -1.82495,0.5251 -2.78171,0.34452c-0.24378,-0.04946 -0.48659,-0.13371 -0.70958,-0.25297c-0.16734,-0.08512 -0.23895,-0.22348 -0.25299,-0.39728c-0.04208,-0.52147 -0.10305,-1.04271 -0.14465,-1.58158c-0.0271,-0.38246 -0.01599,-0.78274 -0.09969,-1.16454c-0.1843,-0.83301 -0.14177,-1.68599 -0.26952,-2.51962c-0.06243,-0.46902 -0.16305,-0.92026 -0.2066,-1.38952c-0.04257,-0.50404 -0.12336,-0.99029 -0.18532,-1.4767c-0.10739,-0.88609 -0.17659,-1.78999 -0.30287,-2.67585c-0.19398,-1.16344 -0.31254,-2.32781 -0.43107,-3.4921c-0.04547,-0.39967 -0.09098,-0.79923 -0.13645,-1.1989c-0.05809,-0.62568 -0.11563,-1.26872 -0.17369,-1.89437c-0.02808,-0.34765 -0.09434,-0.67747 -0.12243,-1.02509c-0.04645,-0.36487 -0.03727,-0.69547 -0.06436,-1.07796zM255.2455,189.36522c0.22347,0.10188 0.4479,0.16896 0.69264,0.18361c0.48613,0.15109 0.99449,0.18017 1.50285,0.20923c0.63994,0.04498 1.30065,0.02014 1.94253,-0.0045c0.73618,-0.02569 1.42061,-0.22478 2.12441,-0.44147c0.07642,-0.03566 0.15284,-0.07131 0.26746,-0.12479c0.00389,-0.13921 0.0077,-0.27844 0.01157,-0.41765c0.00097,-0.0348 -0.01692,-0.06941 -0.03434,-0.12139c-0.13205,0.00147 -0.26458,0.02037 -0.39761,0.05666c-0.22782,0.05477 -0.4358,0.07448 -0.66361,0.12922c-0.56882,0.11078 -1.15219,0.06521 -1.71955,0.12378c-0.30231,0.02083 -0.60557,0.07638 -0.90691,0.0624c-0.65881,-0.04476 -1.32001,-0.00253 -1.97683,-0.11691c-0.16882,-0.03291 -0.35648,-0.06554 -0.52531,-0.09848c-0.07256,-0.1036 -0.22445,-0.06705 -0.31781,-0.10081c-0.11172,-0.05094 -0.22349,-0.10188 -0.43144,-0.08211c0.12575,0.22476 0.06289,0.45165 0.13253,0.65962c0.09385,0.01636 0.16639,0.11989 0.29942,0.0836zM255.98368,189.94841c-0.42953,-0.15177 -0.54221,-0.16787 -0.78843,-0.13031c0.01308,0.20861 0.02664,0.39986 0.03969,0.60849c-0.00339,0.12181 0.06962,0.208 0.1814,0.25894c0.07453,0.03397 0.16881,0.03289 0.2433,0.06685c0.27958,0.11867 0.59883,0.16723 0.90113,0.14643c0.12966,0.0855 0.28052,0.08385 0.43147,0.08214c0.84838,0.00785 1.67748,0.03328 2.52829,-0.04587c0.37826,-0.03905 0.75701,-0.09549 1.11734,-0.16917c0.28493,-0.07281 0.58867,-0.14581 0.82083,-0.35721c0.00627,-0.22626 0.01252,-0.45247 0.01882,-0.67874c-0.15186,0.03648 -0.28493,0.07279 -0.39903,0.10886c-0.53206,0.14515 -1.06315,0.25554 -1.59233,0.29629c-0.68055,0.05984 -1.35871,0.03268 -2.03733,0.02294c-0.32072,0.00361 -0.61964,-0.09738 -0.9408,-0.07639c-0.16639,-0.11989 -0.35455,-0.13519 -0.52431,-0.13329zM257.78497,209.29183c0.2612,0.10145 0.5248,0.11589 0.78936,0.09551c0.01836,0.01718 0.05564,0.03417 0.07452,0.03395c0.45322,-0.0225 0.90742,-0.0798 1.32678,-0.24111c0.2477,-0.08978 0.49482,-0.16215 0.68875,-0.35571c0.02706,-0.97459 0.05408,-1.94914 0.08265,-2.97597c-0.45804,0.1965 -0.91325,0.28868 -1.36787,0.36335c-0.3981,0.07408 -0.77392,0.02611 -1.17103,0.06538c-0.1509,0.00171 -0.28249,-0.01419 -0.4334,-0.01249c-0.22393,-0.08447 -0.46773,-0.13392 -0.75019,-0.14814c-0.01449,0.52211 0.1229,1.0077 0.1471,1.49457c0.04258,0.50405 0.10403,1.00792 0.1471,1.49455c0.16638,0.11989 0.31634,0.15304 0.4663,0.18612zM257.41051,205.79914c0.12966,0.08549 0.28008,0.10124 0.43096,0.09952c0.14898,0.06794 0.31927,0.04862 0.48853,0.06411c0.52773,0.01144 1.05786,-0.06411 1.57007,-0.17426c0.30374,-0.07301 0.60848,-0.18086 0.87739,-0.35786c0.00195,-0.06962 0.02273,-0.13943 0.02463,-0.20905c0.02371,-0.8528 0.0469,-1.68809 0.08941,-2.54108c0.04398,-0.90517 0.08748,-1.79296 0.13148,-2.69814c0.05557,-1.32287 0.12958,-2.62852 0.18514,-3.95139c0.07881,-1.4797 0.10051,-2.94136 0.21706,-4.42148c0.02564,-0.24385 0.01397,-0.50469 0.02126,-0.76575c-0.20942,0.07196 -0.40095,0.1785 -0.60943,0.21563c-0.66459,0.16407 -1.34515,0.22391 -2.02474,0.24899c-0.60363,0.00679 -1.20681,-0.00382 -1.81,-0.01443c-0.24428,-0.03204 -0.47014,-0.0469 -0.71443,-0.07894c-0.148,-0.10273 -0.31876,-0.066 -0.46871,-0.0991c-0.16882,-0.03291 -0.31779,-0.10081 -0.50692,-0.08128c-0.04256,0.17446 -0.00869,0.31328 0.00678,0.43486c0.17901,1.02448 0.2066,2.06803 0.32901,3.09311c0.07597,0.66028 0.1519,1.32054 0.24677,1.98057c0.10739,0.88609 0.23415,1.75453 0.34205,2.6232c0.0934,0.71224 0.18675,1.42451 0.26125,2.13698c0.0919,0.76448 0.16544,1.51174 0.23852,2.27644c0.075,0.69506 0.14953,1.40753 0.2429,2.11978c0.16927,0.01548 0.27958,0.11863 0.43097,0.09954zM264.35857,182.40787c-0.41933,0.16129 -0.81746,0.23537 -1.216,0.32686c-0.41744,0.09169 -0.81646,0.2006 -1.2334,0.27486c-0.3981,0.07407 -0.8141,0.11355 -1.21169,0.17019c-0.41649,0.05688 -0.83293,0.11377 -1.26775,0.15348c-0.3971,0.03925 -0.81261,0.06132 -1.20974,0.10059c-0.41548,0.02206 -0.82906,-0.02546 -1.2465,0.06623c-0.39322,-0.09994 -0.81018,-0.02567 -1.20586,-0.03858c-0.41402,-0.03015 -0.84794,-0.02524 -1.26198,-0.05537c-0.39516,-0.03035 -0.80874,-0.07791 -1.20343,-0.12564c-0.41358,-0.04756 -0.80633,-0.16494 -1.22131,-0.16023c-0.04933,0.41811 -0.05271,0.53991 0.08951,0.85147c0.22393,0.08447 0.44791,0.16896 0.71053,0.21817c0.31925,0.0486 0.63847,0.09721 0.97611,0.16301c0.638,0.11462 1.25763,0.21199 1.91787,0.20457c0.45275,-0.0051 0.90598,-0.02761 1.3568,0.03693c0.09385,0.01636 0.20703,0.01505 0.32114,-0.02101c0.22781,-0.05478 0.47258,-0.0401 0.69893,-0.04268c0.83003,-0.00934 1.66295,-0.1231 2.4775,-0.25408c1.07915,-0.15134 2.12391,-0.42406 3.17012,-0.74904c0.20894,-0.05456 0.4179,-0.10909 0.57312,-0.26743c0.04499,-0.26148 0.03337,-0.52234 -0.01402,-0.85232zM256.79499,180.42273c-0.15717,0.22795 -0.23893,0.45505 -0.33952,0.68234c-0.09965,0.19249 -0.1243,0.40155 -0.05464,0.60954c0.10207,0.39899 0.14709,0.81604 0.1166,1.23394c-0.00097,0.0348 0.01641,0.08681 0.01594,0.1042c0.09286,0.05112 0.16831,0.05026 0.26412,-0.00298c0.01935,-0.01759 0.03918,-0.05263 0.03967,-0.07006c0.07061,-0.50535 0.17895,-1.01107 0.32501,-1.51727c0.02082,-0.06982 0.04255,-0.17445 0.00674,-0.24365c-0.06772,-0.27761 -0.13545,-0.55519 -0.37393,-0.7961zM255.59023,183.06335c0.06962,-0.47052 0.17653,-0.92406 0.30182,-1.36041c0.04156,-0.13963 0.02611,-0.26126 -0.02664,-0.39984c-0.08853,-0.20775 -0.21575,-0.38033 -0.34247,-0.57029c-0.0358,-0.06919 -0.07109,-0.15576 -0.18526,-0.11969c-0.10254,0.29692 -0.22345,0.57667 -0.28827,0.87314c0.30041,0.72733 0.30039,0.72731 0.29607,1.56244c0.05513,0.05158 0.13013,0.06812 0.24475,0.01464zM260.18289,184.73396c-0.08416,0.31411 -0.14944,0.62804 -0.21474,0.94193c-0.02082,0.06983 -0.04159,0.13965 -0.02466,0.20903c0.12429,0.27695 0.2298,0.55413 0.44987,0.77785c0.23217,-0.21138 0.29599,-0.47307 0.41596,-0.71801c0.05998,-0.12243 0.04399,-0.22666 -0.00921,-0.34785c-0.14317,-0.27675 -0.24864,-0.55396 -0.3347,-0.8487c0.00049,-0.01741 -0.03673,-0.0344 -0.0735,-0.06875c-0.05707,0.01803 -0.13306,0.0363 -0.20896,0.05455zM260.56919,180.32801c-0.25297,0.28122 -0.37341,0.54355 -0.51269,0.80608c-0.04064,0.10485 -0.02417,0.19163 -0.00772,0.27844c0.10161,0.4164 0.14655,0.83347 0.11563,1.26876c-0.00146,0.05221 0.01594,0.1042 0.01452,0.1564c0.20703,0.01507 0.24524,-0.00275 0.24909,-0.14197c0.01256,-0.45252 0.11898,-0.88864 0.31871,-1.29103c0.11996,-0.24492 0.1069,-0.45355 0.01885,-0.67875c-0.07207,-0.121 -0.12575,-0.22478 -0.19638,-0.39795zM257.81568,183.05567c0.09431,-0.00108 0.11509,-0.07093 0.11705,-0.14054c0.01355,-0.48727 0.17747,-0.95886 0.34146,-1.43047c0.1238,-0.38414 0.05947,-0.78357 -0.21286,-1.16325c-0.13639,0.15811 -0.16009,0.33238 -0.25876,0.49006c-0.19782,0.33279 -0.20699,0.66344 -0.14122,1.01067c0.06483,0.38201 0.14851,0.76386 0.10018,1.14714c0.01744,0.05198 0.03579,0.06921 0.05418,0.08639zM259.24834,180.36029c-0.119,0.21011 -0.2172,0.35039 -0.2965,0.49047c-0.13831,0.22774 -0.16299,0.43679 -0.09431,0.67958c0.104,0.32939 0.13208,0.67703 0.14129,1.02486c0.01547,0.12163 0.01161,0.26084 0.00823,0.38264c0.09385,0.01636 0.11414,-0.03605 0.1151,-0.07088c0.10831,-0.50577 0.23552,-1.01171 0.43772,-1.50114c0.02128,-0.08723 0.04206,-0.15705 0.02562,-0.24384c-0.08755,-0.24259 -0.15624,-0.48538 -0.33714,-0.76169zM261.37613,184.54658c0.06629,0.32983 0.00098,0.6437 -0.04546,0.95741c-0.00241,0.08702 -0.06094,0.15727 -0.02563,0.24385c0.05274,0.13862 0.27137,0.4145 0.47453,0.56881c0.13691,-0.17553 0.1804,-0.38478 0.26121,-0.57709c0.06094,-0.15728 0.04594,-0.29628 -0.04451,-0.43444c-0.14412,-0.24194 -0.25057,-0.48432 -0.29942,-0.76215c0.0005,-0.01741 -0.03629,-0.05177 -0.05465,-0.06895c-0.07499,-0.01656 -0.15044,-0.01572 -0.26603,0.0726zM254.89279,185.76783c0.10643,0.24235 0.07933,0.53846 0.24283,0.76278c0.13253,-0.01888 0.19156,-0.10654 0.26894,-0.17701c0.13591,-0.14073 0.28971,-0.24681 0.38935,-0.43932c-0.10446,-0.31199 -0.05711,-0.66048 -0.14224,-0.99007c-0.09286,-0.05112 -0.18718,-0.0501 -0.28248,-0.0142c-0.12139,0.29715 -0.28004,0.5773 -0.47641,0.85787zM257.93372,184.9159c-0.04256,0.17446 -0.08512,0.34891 -0.18283,0.47178c-0.23458,0.29838 -0.22391,0.59406 -0.08121,0.8882c0.05366,0.10377 0.05077,0.20821 0.16106,0.31138c0.19348,-0.17619 0.33086,-0.36909 0.46817,-0.56204c0.03919,-0.05264 0.04109,-0.12225 0.02465,-0.20903c-0.06823,-0.26021 -0.11805,-0.50321 -0.18624,-0.76339c0.00148,-0.05221 -0.03436,-0.12141 -0.20366,-0.13689zM256.7453,184.92932c-0.08608,0.38373 -0.20896,0.73305 -0.46191,1.01427c-0.05803,0.05284 -0.0411,0.12225 -0.04302,0.19185c0.01452,0.15642 0.0479,0.31265 0.15673,0.46797c0.27088,-0.24663 0.44741,-0.49222 0.62443,-0.75516c0.059,-0.08765 0.08031,-0.17487 0.06433,-0.27909c-0.03236,-0.19102 -0.04597,-0.38225 -0.07838,-0.57325c0.0005,-0.01741 -0.03629,-0.0518 -0.05466,-0.06897c-0.05659,0.00063 -0.1132,0.00127 -0.20748,0.00236zM261.97927,181.16464c-0.07064,-0.17317 -0.14074,-0.36378 -0.21137,-0.53698c-0.01836,-0.01718 -0.03677,-0.0344 -0.07351,-0.06875c-0.21187,0.15895 -0.33086,0.36909 -0.41164,0.56135c0.11708,0.53803 0.23511,1.04121 0.21868,1.63294c0.27183,-0.28143 0.14748,-0.55838 0.21037,-0.78525c0.06433,-0.27909 0.16587,-0.54119 0.26744,-0.8033zM256.54249,180.00803c-0.18284,-0.20671 -0.32799,-0.41385 -0.58867,-0.5327c-0.07885,0.12265 -0.17558,0.21075 -0.23504,0.31583c-0.05947,0.10507 -0.13783,0.2103 -0.14119,0.33215c0.05226,0.15596 0.1814,0.25892 0.27234,0.37967c0.09096,0.12073 0.14366,0.25936 0.29215,0.34467c0.13977,-0.27996 0.26022,-0.54224 0.40049,-0.83961zM254.38196,183.11173c0.08994,-0.52293 0.15859,-0.95868 0.22728,-1.39436c0.00097,-0.0348 0.02131,-0.08724 -0.01547,-0.12161c-0.12674,-0.18994 -0.21478,-0.41512 -0.45661,-0.53418c-0.08223,0.24449 -0.16397,0.47161 -0.22683,0.6985c0.23412,0.39753 0.35409,0.83108 0.47164,1.3517zM259.07536,186.59068c0.17317,-0.12375 0.21571,-0.29819 0.29505,-0.43826c0.09868,-0.15769 0.14075,-0.31474 0.0706,-0.50531c-0.08707,-0.25997 -0.17414,-0.51998 -0.12869,-0.79888c-0.1311,-0.03332 -0.20703,-0.01507 -0.20993,0.08935c-0.02609,0.26124 -0.05272,0.53992 -0.17218,0.76744c-0.16009,0.33238 -0.01645,0.59176 0.14515,0.88568zM257.21844,186.22879c-0.25344,0.29862 -0.46722,0.52721 -0.66215,0.75555c-0.00339,0.12181 0.05127,0.19081 0.08708,0.25996c0.05466,0.06897 0.08948,0.17293 0.22054,0.20627c0.21141,-0.14157 0.40483,-0.31771 0.57995,-0.51103c-0.05031,-0.22558 -0.11997,-0.43358 -0.22542,-0.71077zM260.15632,187.04823c-0.16251,-0.25913 -0.30717,-0.48367 -0.45128,-0.72561c-0.13833,0.22774 -0.27618,0.43809 -0.41403,0.64839c0.12575,0.22476 0.21427,0.43254 0.4363,0.58658c0.17412,-0.15852 0.29213,-0.33385 0.42902,-0.50936zM257.46342,179.44089c-0.22927,0.10695 -0.29214,0.33385 -0.41017,0.50915c-0.03919,0.05264 -0.02275,0.13942 0.01356,0.19122c0.10835,0.17278 0.19831,0.32834 0.30712,0.4837c-0.00049,0.01741 0.03727,0.01696 0.075,0.01657c0.13884,-0.24512 0.2592,-0.50745 0.39805,-0.75259c-0.08947,-0.17295 -0.23652,-0.31048 -0.38359,-0.44801zM260.33466,179.94794c-0.07016,-0.19057 -0.14075,-0.36376 -0.34487,-0.48327c-0.15526,0.15835 -0.34826,0.31709 -0.44839,0.527c0.0532,0.12119 0.0687,0.24279 0.14125,0.34635c0.05366,0.10377 0.03093,0.24323 0.19928,0.29351c0.15719,-0.22794 0.31437,-0.45587 0.45274,-0.68363zM260.68692,186.95524c0.07111,0.15577 0.23848,0.24088 0.40533,0.34338c0.15675,-0.21052 0.34969,-0.36931 0.43194,-0.61378c-0.14706,-0.13754 -0.23605,-0.32788 -0.4397,-0.46479c-0.13884,0.24512 -0.25879,0.49005 -0.39758,0.73518zM262.55341,184.25499c-0.02756,0.31347 0.01988,0.6435 -0.04545,0.95742c-0.04497,0.26148 0.08324,0.39918 0.30572,0.53587c0.13734,-0.1929 0.1804,-0.38478 0.24278,-0.59425c-0.2375,-0.27566 -0.32268,-0.60528 -0.50308,-0.89901zM253.33234,182.87999c0.07595,-0.01824 0.07737,-0.07045 0.07885,-0.12265c0.02515,-0.22644 0.03192,-0.4701 0.07593,-0.69678c0.08462,-0.33151 -0.09919,-0.50342 -0.33912,-0.6921c-0.04111,0.12228 -0.08123,0.20968 -0.10252,0.29691c-0.06236,0.20948 -0.08657,0.40111 0.07788,0.59066c0.09095,0.12073 0.1243,0.27698 0.15821,0.41578c-0.02082,0.06983 -0.06094,0.15726 0.05077,0.2082zM254.01348,186.19531c0.09624,-0.07066 0.15479,-0.14093 0.21281,-0.19377c0.1925,-0.14133 0.25346,-0.29863 0.22152,-0.50704c-0.03287,-0.17359 -0.0087,-0.36527 -0.02274,-0.53907c0.00148,-0.05222 0.02177,-0.10464 -0.10981,-0.12056c-0.10112,0.24471 -0.2399,0.48987 -0.41597,0.71801c-0.03919,0.05264 -0.04158,0.13962 -0.04354,0.20924c0.03385,0.13878 0.0682,0.26023 0.1577,0.43316zM258.7822,186.95927c-0.07062,-0.17317 -0.12189,-0.36396 -0.24963,-0.51912c-0.19395,0.19358 -0.4058,0.35252 -0.54414,0.58024c0.10837,0.17276 0.1601,0.34614 0.36472,0.44825c0.15528,-0.15835 0.32894,-0.29946 0.42902,-0.50937zM258.63883,180.57591c0.19393,-0.19357 0.31292,-0.40369 0.39415,-0.61336c-0.10835,-0.17276 -0.19834,-0.3283 -0.36377,-0.48304c-0.15383,0.10613 -0.252,0.24642 -0.3318,0.40389c0.1069,0.22495 0.19495,0.45014 0.30135,0.69253zM257.08108,187.77875c0.10982,0.12057 0.16396,0.20692 0.25638,0.27546c0.05515,0.05157 0.11076,0.08574 0.16642,0.11991c0.19105,-0.08913 0.36422,-0.21288 0.48225,-0.38818c-0.08947,-0.17295 -0.17898,-0.34591 -0.36426,-0.46562c-0.17412,0.15852 -0.34729,0.28228 -0.54075,0.45842zM253.47023,184.7052c-0.2133,0.2112 -0.36807,0.35208 -0.54269,0.52803c-0.02082,0.06982 -0.00534,0.19141 0.04837,0.29521c0.03483,0.10398 -0.00628,0.22623 0.10449,0.31199c0.17123,-0.05413 0.28682,-0.14242 0.38454,-0.2653c-0.01114,-0.27825 -0.00385,-0.5393 0.00532,-0.86994zM256.20779,179.15926c0.09194,0.08597 0.18383,0.17193 0.2757,0.25789c0.09195,0.08597 0.18432,0.15448 0.2762,0.24045c0.13736,-0.1929 0.27329,-0.33363 0.31634,-0.52548c-0.05368,-0.10377 -0.16591,-0.1373 -0.25875,-0.18847c-0.09286,-0.05112 -0.18432,-0.15448 -0.31681,-0.13561c-0.11659,0.12314 -0.23216,0.21138 -0.29263,0.35126zM259.39851,187.85706c-0.14609,-0.17232 -0.2346,-0.38014 -0.45715,-0.51679c-0.13589,0.14073 -0.25296,0.28122 -0.38889,0.42193c0.14608,0.17233 0.2549,0.32771 0.47888,0.41215c0.13446,-0.08851 0.26798,-0.1422 0.36713,-0.31729zM254.74083,181.05479c0.1219,-0.31452 0.22395,-0.59403 0.32598,-0.87351c-0.07256,-0.1036 -0.12623,-0.20738 -0.25732,-0.24068c-0.21283,0.19379 -0.31391,0.43846 -0.43385,0.68338c0.07257,0.10359 0.1451,0.20715 0.237,0.29311c0.01691,0.06942 0.05417,0.08637 0.12816,0.13773zM256.06577,186.98986c-0.10791,-0.19016 -0.10208,-0.39902 -0.24914,-0.53654c-0.21232,0.17637 -0.40531,0.33513 -0.56206,0.5457c0.12869,0.12035 0.12381,0.29436 0.30958,0.39667c0.19103,-0.08914 0.30861,-0.24707 0.50161,-0.4058zM261.19266,179.60769c-0.13495,0.10591 -0.2515,0.22901 -0.33083,0.3691c0.10742,0.20757 0.1959,0.41533 0.30234,0.65769c0.11848,-0.19268 0.23555,-0.33321 0.39131,-0.50893c-0.1074,-0.20758 -0.19639,-0.39795 -0.36281,-0.51787zM254.09713,186.57711c0.06916,0.22541 0.12046,0.41619 0.30523,0.55331c0.15332,-0.08873 0.28731,-0.15979 0.36665,-0.29988c-0.06965,-0.20798 -0.12046,-0.41615 -0.20801,-0.65876c-0.17317,0.12375 -0.32745,0.24728 -0.46385,0.40538zM259.34398,179.62851c0.13784,-0.21032 0.34826,-0.31711 0.39131,-0.50898c-0.10835,-0.17276 -0.25637,-0.27548 -0.42374,-0.36059c-0.15429,0.12353 -0.30812,0.22964 -0.37004,0.42169c0.12817,0.13774 0.23752,0.27567 0.40245,0.44781zM260.80066,187.61507c-0.12868,-0.12034 -0.2196,-0.24108 -0.38746,-0.30879c-0.13734,0.1929 -0.34826,0.31707 -0.43001,0.54418c0.10981,0.12057 0.22107,0.1889 0.39037,0.20439c0.15478,-0.14092 0.29118,-0.29902 0.42707,-0.43976zM253.88177,180.75131c-0.10932,-0.13797 -0.20168,-0.20646 -0.33231,-0.25726c-0.13591,0.14073 -0.25395,0.31601 -0.25971,0.52484c0.1103,0.10315 0.22054,0.20626 0.33036,0.32684c0.15624,-0.19313 0.18089,-0.40217 0.26166,-0.59447zM263.68496,185.6166c-0.11074,-0.08574 -0.20318,-0.1543 -0.31584,-0.17042c-0.11801,0.17527 -0.19828,0.3502 -0.24132,0.54206c0.09138,0.10336 0.1838,0.17191 0.31488,0.20523c0.13691,-0.17553 0.16154,-0.38458 0.2423,-0.57685zM257.85598,188.39632c0.10737,0.20755 0.25781,0.22327 0.42807,0.20396c0.13204,-0.00147 0.26507,-0.03778 0.32553,-0.17765c-0.10932,-0.13797 -0.2191,-0.2585 -0.38647,-0.34361c-0.13495,0.10591 -0.25103,0.2116 -0.36712,0.31729zM262.86537,181.17203c-0.05224,-0.15598 -0.04838,-0.29519 -0.178,-0.38072c-0.38549,0.30011 -0.30039,0.62971 -0.12187,0.99303c0.10013,-0.20989 0.19978,-0.40243 0.29988,-0.6123zM256.11269,188.01585c0.17173,-0.0715 0.28731,-0.15981 0.40484,-0.31771c-0.12966,-0.0855 -0.1437,-0.25935 -0.29266,-0.32725c-0.11369,0.01866 -0.15332,0.0887 -0.23024,0.14175c-0.07736,0.07044 -0.17267,0.10633 -0.17607,0.22815c0.07257,0.10359 0.14514,0.20717 0.29411,0.27507zM258.25149,182.98117c0.20458,0.10207 0.31876,0.06601 0.34195,-0.09082c0.02516,-0.22644 0.01258,-0.45249 -0.00051,-0.66111c0.00196,-0.06959 -0.01455,-0.15641 -0.12674,-0.18995c-0.10301,0.31432 -0.1683,0.62819 -0.21474,0.94189zM261.87496,187.63777c0.03482,0.10399 0.10884,0.15536 0.22155,0.17151c0.19301,-0.15876 0.42326,-0.30053 0.54321,-0.54545c-0.22348,-0.10187 -0.39426,-0.06519 -0.53111,0.11035c-0.07738,0.07045 -0.19205,0.12397 -0.23364,0.2636zM260.78407,182.77866c0.26407,-0.00296 0.32165,-0.03847 0.326,-0.19504c-0.01211,-0.24343 -0.0237,-0.50426 -0.11127,-0.74684c-0.15961,0.31497 -0.29988,0.61231 -0.21474,0.9419zM263.546,184.50475c-0.02274,0.13941 -0.02609,0.26128 -0.04836,0.38328c-0.02567,0.24386 -0.02562,0.24385 0.31151,0.32708c0.04111,-0.12228 0.10158,-0.26213 0.12235,-0.33193c-0.14705,-0.13755 -0.25685,-0.25807 -0.38552,-0.3784zM258.53238,178.298c-0.11562,0.08828 -0.28635,0.12503 -0.29168,0.31646c0.11076,0.08574 0.24089,0.15387 0.37003,0.2568c0.13497,-0.10591 0.28829,-0.19458 0.34873,-0.33447c-0.12968,-0.08549 -0.23993,-0.18869 -0.42713,-0.23878zM262.35715,185.8926c-0.10056,0.2273 -0.22008,0.45481 -0.32065,0.68212c0.03533,0.08656 0.08994,0.15555 0.20408,0.11948c0.17412,-0.15852 0.31152,-0.35147 0.37437,-0.57835c-0.07256,-0.1036 -0.14608,-0.17232 -0.25785,-0.22325zM261.79008,179.82716c0.13253,-0.01888 0.22882,-0.08956 0.30714,-0.19483c-0.0358,-0.0692 -0.07159,-0.13837 -0.1074,-0.20756c-0.05415,-0.08638 -0.08951,-0.17296 -0.20172,-0.20647c-0.11318,0.00126 -0.20845,0.03711 -0.28633,0.12501c0.09,0.15558 0.19835,0.32832 0.28827,0.48389zM258.08351,179.52093c0.13497,-0.10591 0.2138,-0.22859 0.27427,-0.36845c-0.148,-0.10273 -0.27716,-0.20563 -0.40677,-0.29116c-0.15237,0.05394 -0.23072,0.1592 -0.2525,0.26383c0.12816,0.13774 0.25637,0.27547 0.38502,0.39585zM262.52959,180.35815c-0.05368,-0.10377 -0.10737,-0.20755 -0.17993,-0.31116c-0.01836,-0.01717 -0.05613,-0.01676 -0.0934,-0.03374c-0.07692,0.05305 -0.19105,0.08912 -0.25151,0.22901c0.05276,0.13861 0.08567,0.31218 0.21383,0.44993c0.1533,-0.08873 0.23164,-0.194 0.31098,-0.33408zM263.48789,181.84354c0.02418,-0.19164 0.23265,-0.22881 0.23748,-0.40282c-0.07158,-0.13834 -0.08607,-0.29478 -0.23314,-0.4323c-0.13446,0.08851 -0.25008,0.17682 -0.1978,0.33278c0.05225,0.15599 0.02903,0.3128 0.19347,0.50235zM262.9894,186.89451c0.07884,-0.12266 0.17652,-0.24557 0.25489,-0.35081c0.01936,-0.0176 0.00146,-0.05223 0.0024,-0.08702c-0.09336,-0.03374 -0.18524,-0.11971 -0.35648,-0.06554c-0.09815,0.14029 -0.19687,0.29798 -0.31439,0.4559c0.1301,0.06812 0.24283,0.08425 0.41358,0.04756zM257.54276,178.62232c-0.11028,-0.10315 -0.22009,-0.2237 -0.31199,-0.30963c-0.17123,0.05412 -0.28686,0.1424 -0.38356,0.2305c0.01549,0.12164 0.14704,0.13751 0.22107,0.18888c0.07404,0.05135 0.14753,0.12011 0.28008,0.10123c0.07642,-0.03566 0.15334,-0.08873 0.19446,-0.21098zM254.563,187.45915c0.09096,0.12073 0.16399,0.20695 0.23702,0.29309c0.01788,0.0346 0.07402,0.05138 0.09241,0.06856c0.13204,-0.00147 0.22832,-0.07214 0.30665,-0.17744c-0.09046,-0.13815 -0.16206,-0.27654 -0.29066,-0.3969c-0.11462,0.05349 -0.2109,0.12417 -0.34536,0.21266zM264.05584,184.48161c0.08177,-0.2271 0.16347,-0.45417 0.11367,-0.69719c-0.17122,0.05413 -0.32266,0.07323 -0.42082,0.2135c0.08607,0.29479 0.08609,0.2948 0.30714,0.48367zM256.42663,188.25589c0.31152,0.32708 0.33035,0.32683 0.67477,0.14894c-0.10982,-0.12057 -0.23894,-0.22346 -0.34873,-0.34405c-0.13253,0.01888 -0.22876,0.08956 -0.32602,0.19502zM260.93836,179.2626c-0.09045,-0.13816 -0.1819,-0.24152 -0.33088,-0.30946c-0.03822,0.01783 -0.09579,0.05327 -0.15335,0.08871c-0.0387,0.03524 -0.07789,0.08788 -0.11656,0.12308c0.09047,0.13815 0.16159,0.29395 0.31008,0.37927c0.11461,-0.05348 0.21187,-0.15895 0.29068,-0.28164zM253.45385,186.65397c0.05754,-0.03545 0.13445,-0.08853 0.15479,-0.14094c0.06192,-0.19209 0.029,-0.36563 -0.09775,-0.55563c-0.11514,0.07087 -0.26698,0.10738 -0.32649,0.21246c0.07062,0.17317 0.08418,0.3644 0.26944,0.48409zM254.4955,179.70053c-0.01835,-0.01719 -0.03676,-0.03438 -0.07351,-0.06875c-0.24911,0.14201 -0.44307,0.33556 -0.63699,0.52912c0.05321,0.12118 0.12722,0.17253 0.27763,0.18825c0.13784,-0.21032 0.29451,-0.42085 0.43289,-0.6486zM259.72812,182.09465c-0.12043,0.26233 -0.25921,0.50744 -0.24857,0.80308c-0.0005,0.01741 0.07402,0.05133 0.11173,0.05092c0.09431,-0.00109 0.1717,-0.07154 0.17407,-0.15855c0.06289,-0.22688 0.03142,-0.45271 -0.03725,-0.69547zM260.33261,178.66052c-0.0914,-0.10338 -0.18284,-0.20673 -0.31295,-0.27486c-0.13205,0.00147 -0.22733,0.03735 -0.32504,0.16021c0.12916,0.10294 0.25782,0.22329 0.38743,0.3088c0.11411,-0.03607 0.19103,-0.08915 0.25054,-0.1942zM259.28632,188.50202c0.26362,0.01442 0.48949,0.02932 0.71925,-0.09506c-0.05225,-0.15597 -0.18234,-0.22412 -0.33182,-0.27464c-0.15381,0.10613 -0.28828,0.19461 -0.38743,0.36974zM252.44097,185.09955c0.17269,-0.10633 0.19202,-0.1239 0.1935,-0.17615c0.02371,-0.17422 -0.06627,-0.32983 -0.15673,-0.46797c-0.03626,-0.05176 -0.13014,-0.0681 -0.18962,0.03695c0.10883,0.15536 0.02708,0.38248 0.15289,0.6072zM255.24674,179.81385c0.15675,-0.21052 0.33182,-0.4039 0.35886,-0.69996c-0.26745,0.12479 -0.40534,0.33515 -0.54219,0.51065c0.01642,0.08681 0.07207,0.12095 0.18333,0.18928zM255.41723,187.93668c-0.09577,0.05328 -0.19104,0.08915 -0.28681,0.14242c0.08998,0.1556 0.19978,0.27613 0.40873,0.22157c0.05708,-0.01803 0.11412,-0.03608 0.13495,-0.10591c-0.03482,-0.10398 -0.12723,-0.17255 -0.25685,-0.25807zM262.05278,182.59044c0.16979,-0.00194 0.24619,-0.03755 0.23119,-0.17656c-0.01548,-0.12164 -0.03097,-0.24323 -0.06533,-0.36464c-0.01744,-0.05197 -0.05369,-0.10381 -0.12963,-0.08554c-0.06239,0.20947 -0.06769,0.40091 -0.03624,0.62673zM254.89414,182.32308c-0.08177,0.22711 -0.12574,0.45378 -0.07544,0.67938c-0.00049,0.01742 0.07403,0.05133 0.09286,0.05112c0.0377,-0.00042 0.07692,-0.05305 0.07786,-0.08788c-0.01257,-0.22603 0.03095,-0.43532 -0.09531,-0.64269zM253.97222,182.92498c-0.05175,-0.17339 -0.04645,-0.36486 -0.15428,-0.55502c-0.10058,0.22729 -0.14363,0.41917 -0.08994,0.52294c0.03482,0.10398 0.11028,0.10316 0.24424,0.03205zM261.12183,188.27255c0.22782,-0.05477 0.49195,-0.05775 0.62978,-0.26808c-0.33567,-0.13538 -0.47351,0.07493 -0.62978,0.26808zM260.9457,185.10818c0.0377,-0.00043 0.05714,-0.01805 0.09483,-0.01847c-0.01405,-0.1738 0.06575,-0.3313 -0.02422,-0.48686c-0.11269,-0.01615 -0.16978,0.00192 -0.22878,0.08957c0.05321,0.12118 0.10593,0.25976 0.1582,0.41578zM257.28792,182.36567c-0.06335,0.24429 -0.10639,0.43615 -0.09334,0.64477c-0.00097,0.0348 0.03577,0.06919 0.09237,0.06854c0.01889,-0.00022 0.05707,-0.01804 0.07642,-0.03567c0.08177,-0.2271 0.08754,-0.43592 -0.07548,-0.67765zM253.76869,186.85917c-0.11413,0.03608 -0.17169,0.07151 -0.13542,0.12331c0.05321,0.12118 0.1253,0.24215 0.19736,0.36314c0.05465,0.06897 0.11123,0.06834 0.16976,-0.00191c-0.05125,-0.19081 -0.10352,-0.34681 -0.2317,-0.48452zM259.34299,178.3063c0.07692,-0.05305 0.15334,-0.08873 0.23025,-0.14177c0.01936,-0.01759 0.0203,-0.05243 0.04064,-0.10485c-0.22634,0.00252 -0.43239,-0.04732 -0.67958,0.02505c0.12916,0.10294 0.22155,0.17148 0.40873,0.22156zM256.06622,184.93693c0.01403,0.17381 0.02855,0.33026 0.04162,0.53888c0.19347,-0.17619 0.25442,-0.33342 0.24038,-0.50723c-0.09286,-0.05113 -0.14898,-0.06792 -0.28201,-0.03164zM262.00158,184.43515c0.07207,0.121 0.02902,0.3128 0.23363,0.41491c0.06817,-0.41832 0.0706,-0.5053 -0.02277,-0.53908c-0.09431,0.00109 -0.1519,0.03651 -0.2109,0.12417zM256.15513,182.41325c-0.23363,0.26358 -0.23939,0.47242 -0.17121,0.73263c0.26989,-0.21183 0.12572,-0.45374 0.17121,-0.73263zM263.05744,181.7266c-0.21428,0.24597 -0.21959,0.43745 -0.18765,0.64585c-0.00049,0.01741 0.03676,0.03437 0.07448,0.03395c0.05659,-0.00062 0.09529,-0.03588 0.09624,-0.07067c0.02372,-0.17423 0.00967,-0.34803 0.01692,-0.60909zM262.91436,184.16392c0.05224,0.15598 0.06629,0.32983 0.2515,0.44948c0.06142,-0.17468 0.04689,-0.33109 0.03192,-0.47009c-0.11172,-0.05094 -0.18764,-0.03268 -0.28344,0.0206zM263.34909,180.73162c-0.12771,-0.15515 -0.12239,-0.34659 -0.3091,-0.41408c-0.06335,0.24429 -0.06335,0.24428 0.13737,0.48559c0.03822,-0.01783 0.07642,-0.03566 0.17171,-0.07152zM261.39029,187.43443c0.26554,-0.05519 0.40195,-0.2133 0.51996,-0.38861c-0.05368,-0.10377 -0.12916,-0.10294 -0.18718,-0.0501c-0.09815,0.1403 -0.21524,0.28081 -0.33275,0.4387zM261.22749,179.03314c0.11369,-0.01867 0.20847,-0.03713 0.26794,-0.14218c-0.07303,-0.08616 -0.14608,-0.17236 -0.25874,-0.18846c-0.0948,0.01845 -0.15236,0.05393 -0.19204,0.12398c0.03533,0.08657 0.09046,0.13815 0.18286,0.2067zM258.65927,185.27309c0.06047,-0.13984 0.10111,-0.24473 0.06627,-0.34872c-0.01788,-0.0346 -0.05513,-0.05158 -0.0924,-0.06856c-0.05659,0.00062 -0.13304,0.03628 -0.11562,0.08826c-0.0029,0.10445 -0.00628,0.22626 0.14175,0.32899zM258.06606,178.1119c-0.16834,-0.0503 -0.32167,0.03843 -0.47353,0.07495c0.22009,0.22371 0.25783,0.22324 0.47353,-0.07495zM252.91642,182.91947c0.0827,-0.26191 0.0827,-0.2619 -0.08418,-0.36442c-0.04064,0.10485 -0.08174,0.22712 0.08418,0.36442zM259.82302,184.79021c-0.07404,-0.05135 -0.1306,-0.05072 -0.15042,-0.01572c-0.09815,0.1403 -0.08077,0.19228 0.08468,0.34701c0.05999,-0.12243 0.0629,-0.2269 0.06579,-0.33132zM263.84578,181.85692c-0.09672,0.08811 -0.17459,0.17596 -0.14028,0.29733c0.30326,-0.05563 0.32309,-0.09059 0.14028,-0.29733zM252.53713,182.31484c-0.11659,0.12314 -0.13932,0.26253 -0.16154,0.38454c-0.00195,0.0696 0.05321,0.12121 0.16834,0.05031c0.02223,-0.12203 0.04498,-0.26149 -0.00677,-0.43486zM262.69651,179.78212c-0.04256,0.17446 0.0116,0.26085 0.16156,0.29395c0,0 0.03822,-0.01783 0.03869,-0.03524c0.02174,-0.10464 -0.08945,-0.17296 -0.20025,-0.25875zM257.39932,185.14809c0.11413,-0.03608 0.15383,-0.10613 0.13688,-0.17551c0.00097,-0.0348 -0.0358,-0.06919 -0.07303,-0.08617c-0.03726,-0.01697 -0.09478,0.01845 -0.09574,0.05327c-0.02032,0.05244 -0.02226,0.12202 0.0319,0.20842zM260.56579,178.41431c0.07207,0.12099 0.14608,0.17235 0.29893,0.10101c-0.09047,-0.13815 -0.16495,-0.17213 -0.29893,-0.10101z" fill="#000000"/><path d="M257.00275,191.27652c0.60315,0.01063 1.20636,0.02124 1.81002,0.01442c0.67913,-0.00765 1.36015,-0.08491 2.02474,-0.24898c0.20895,-0.05455 0.38113,-0.14345 0.60942,-0.21561c-0.00773,0.27848 0.0044,0.52186 -0.02125,0.76572c-0.11605,1.46273 -0.13828,2.94178 -0.21706,4.42147c-0.07447,1.32307 -0.12955,2.62852 -0.18514,3.95139c-0.04398,0.90518 -0.08751,1.79297 -0.13151,2.69813c-0.04254,0.85299 -0.04687,1.6881 -0.08938,2.54107c-0.00195,0.06962 -0.00388,0.13924 -0.02467,0.20906c-0.2694,0.19443 -0.5548,0.2846 -0.87739,0.35785c-0.51225,0.11016 -1.04236,0.1857 -1.57006,0.17426c-0.16979,0.00194 -0.34003,0.02124 -0.48852,-0.0641c0.17076,-0.03673 0.35792,0.01334 0.56786,-0.07598c-0.12428,-0.27695 -0.0595,-0.57344 -0.07065,-0.8517c0.00049,-0.01741 0.00097,-0.03479 -0.01788,-0.03459c-0.13784,-0.46818 -0.12382,-0.97288 -0.20463,-1.45913c-0.03289,-0.17359 -0.12239,-0.34658 -0.07985,-0.52102c0.04742,-0.34849 -0.11322,-0.67724 -0.06582,-1.02576c0.00049,-0.01741 -0.01742,-0.05199 -0.01643,-0.08682c-0.04743,-0.32999 -0.11414,-0.64242 -0.12384,-0.97286c0.01062,-0.38286 -0.13062,-0.72926 -0.08227,-1.11254c-0.1069,-0.22495 -0.06286,-0.45163 -0.07497,-0.69506c0.00097,-0.0348 0.00144,-0.05223 0.00242,-0.08701c-0.14125,-0.34637 -0.05566,-0.71268 -0.12144,-1.05991c-0.06579,-0.3472 -0.01793,-0.7131 -0.06486,-1.06053c-0.04546,-0.39966 -0.14806,-0.7812 -0.07983,-1.19955c0.00097,-0.0348 0.00243,-0.08703 -0.01547,-0.12162c-0.10791,-0.19016 -0.04547,-0.39964 -0.05852,-0.60826c0.0029,-0.10445 0.02514,-0.22642 -0.00969,-0.33044c-0.07108,-0.15578 -0.04837,-0.29521 -0.04402,-0.45186c0.00242,-0.08703 0.0237,-0.17427 -0.01212,-0.24342c-0.1069,-0.22495 -0.06242,-0.46903 -0.05613,-0.69526c0.00242,-0.08703 0.02368,-0.17423 -0.0121,-0.24344c-0.08897,-0.19037 -0.06483,-0.38202 -0.05949,-0.57347c0.00868,-0.31329 -0.11465,-0.62502 -0.08708,-0.93848c0.0203,-0.05243 -0.0348,-0.10399 -0.05225,-0.15598z" fill="#87d7dc"/><path d="M257.00282,191.27658c0.0174,0.05199 0.07257,0.10357 0.07111,0.15579c-0.02754,0.31348 0.07692,0.62545 0.0871,0.9385c-0.00533,0.19143 -0.0295,0.38311 0.05949,0.57346c0.0358,0.0692 0.01452,0.15643 0.01213,0.24341c-0.00626,0.22624 -0.03194,0.4701 0.05609,0.69529c0.0358,0.06919 -0.00434,0.15665 0.01213,0.24343c-0.00435,0.15662 -0.00822,0.29587 0.04402,0.45186c0.03482,0.10398 0.01257,0.22606 0.00968,0.33047c0.01308,0.20861 -0.04931,0.41811 0.05855,0.60826c0.01788,0.0346 0.01644,0.08681 0.01548,0.12161c-0.0677,0.40092 0.03436,0.79994 0.07985,1.19956c0.04645,0.36486 -0.00144,0.73072 0.06481,1.06054c0.0658,0.34719 -0.0198,0.71353 0.12145,1.05989c0.01835,0.0172 -0.00147,0.05223 -0.00243,0.08704c-0.00626,0.22624 -0.0319,0.47009 0.075,0.69508c-0.06724,0.38352 0.07404,0.72988 0.08224,1.11253c-0.00919,0.33066 0.07645,0.64285 0.12382,0.97287c-0.00097,0.0348 0.01746,0.05202 0.01646,0.08681c-0.04742,0.34849 0.11321,0.67723 0.06581,1.02575c-0.02417,0.19164 0.06578,0.34722 0.07984,0.52103c0.06193,0.48644 0.06678,0.99094 0.20463,1.45911c-0.00049,0.01741 0.01791,0.0346 0.01791,0.0346c0.01115,0.27825 -0.05369,0.57476 0.07065,0.85171c-0.19105,0.08914 -0.37777,0.02163 -0.56786,0.07596c-0.15089,0.00171 -0.30181,0.00337 -0.43098,-0.09958c0.0029,-0.10445 0.02514,-0.22642 -0.0097,-0.33042c-0.1219,-0.36396 -0.09285,-0.72968 -0.12045,-1.09474c-0.02758,-0.36502 -0.1495,-0.729 -0.08227,-1.11251c-0.1069,-0.22495 -0.06291,-0.45164 -0.075,-0.69507c0.00097,-0.0348 0.00241,-0.08702 -0.01548,-0.12162c-0.08998,-0.15559 -0.0474,-0.33 -0.06191,-0.48646c0.00242,-0.08703 0.0048,-0.17404 -0.01211,-0.24342c-0.0837,-0.38182 -0.14807,-0.78121 -0.13694,-1.18151c0.00148,-0.05222 0.02227,-0.12205 -0.01452,-0.15641c-0.08947,-0.17294 -0.06581,-0.3472 -0.06098,-0.52124c0.02417,-0.19164 -0.10306,-0.36421 -0.07836,-0.57325c0.0266,-0.27867 -0.06049,-0.53865 -0.09048,-0.81668c-0.02711,-0.38246 -0.13013,-0.74663 -0.119,-1.1469c0.00195,-0.06962 0.02323,-0.15685 -0.01308,-0.20863c-0.07156,-0.13839 -0.0484,-0.29519 -0.06289,-0.45161c0.00387,-0.13922 -0.01113,-0.27822 -0.04545,-0.39966c-0.06916,-0.22541 -0.10063,-0.4512 -0.09389,-0.69487c-0.00871,-0.36524 -0.13063,-0.72924 -0.06342,-1.11273c0.00097,-0.0348 -0.01641,-0.0868 -0.01546,-0.12163c-0.04645,-0.36486 -0.11178,-0.72944 -0.12045,-1.09469c0.01062,-0.38286 -0.12966,-0.76405 -0.08128,-1.14734c0.00148,-0.05222 -0.03484,-0.10398 -0.05225,-0.15598c-0.03145,-0.22581 -0.04355,-0.46925 0.01933,-0.69612c0.09481,-0.01845 0.17025,-0.01934 0.2462,-0.03756c0.26267,0.04924 0.48805,0.08149 0.73281,0.09614z" fill="#b0eef2"/><path d="M264.35857,182.40787c0.0474,0.32998 0.059,0.59086 -0.0237,0.85277c-0.1548,0.14093 -0.36373,0.19549 -0.57314,0.26743c-1.04574,0.30754 -2.09099,0.59767 -3.17013,0.74902c-0.81407,0.11354 -1.64701,0.22734 -2.4775,0.25409c-0.22635,0.00253 -0.47113,-0.01208 -0.69896,0.04265c-0.09481,0.01845 -0.208,0.01972 -0.32115,0.02101c-0.45082,-0.06452 -0.90451,-0.02461 -1.35679,-0.03691c-0.64091,-0.01016 -1.2799,-0.08995 -1.91787,-0.20456c-0.31875,-0.066 -0.63801,-0.11461 -0.97611,-0.16297c-0.26311,-0.03186 -0.48658,-0.1337 -0.71055,-0.21817c-0.12334,-0.31179 -0.13882,-0.43337 -0.0895,-0.85147c0.4145,0.0127 0.80777,0.11267 1.22131,0.16023c0.39469,0.04775 0.80823,0.09529 1.20344,0.12564c0.41403,0.03015 0.84745,0.04265 1.26196,0.05539c0.39516,0.03035 0.81211,-0.04398 1.2059,0.0386c0.41745,-0.09169 0.83098,-0.04414 1.2465,-0.06622c0.39663,-0.02185 0.81261,-0.06136 1.20974,-0.10062c0.41599,-0.03948 0.83242,-0.09637 1.26778,-0.15344c0.3976,-0.05667 0.81357,-0.09614 1.21168,-0.17024c0.41694,-0.0743 0.81598,-0.18316 1.23343,-0.27485c0.4363,-0.09191 0.83436,-0.16597 1.25374,-0.32728z" fill="#d1eaeb"/><path d="M256.28839,191.19763c-0.07594,0.01824 -0.15141,0.01911 -0.24618,0.03758c-0.06286,0.22689 -0.06915,0.4531 -0.01933,0.69613c0.0174,0.052 0.05369,0.10379 0.05224,0.15598c-0.04837,0.38328 0.07307,0.76471 0.08129,1.14735c-0.01015,0.36547 0.07402,0.72987 0.12042,1.09471c-0.00097,0.0348 0.01644,0.08682 0.01548,0.12161c-0.06725,0.38351 0.074,0.72986 0.06338,1.11274c-0.00626,0.22624 0.0247,0.46947 0.09389,0.69486c0.03385,0.13876 0.04887,0.2778 0.04547,0.39965c-0.00435,0.15662 -0.02707,0.29606 0.0629,0.45164c0.03625,0.05177 0.01498,0.13903 0.01304,0.20864c-0.01062,0.38286 0.09196,0.76444 0.11902,1.1469c0.02997,0.27803 0.11709,0.53801 0.09047,0.81667c-0.02417,0.19164 0.10304,0.36419 0.07836,0.57325c-0.0237,0.17424 -0.04788,0.36589 0.06094,0.52125c0.0174,0.052 0.01597,0.1042 0.01454,0.1564c-0.01112,0.40026 0.05367,0.78228 0.13693,1.1815c0.01642,0.08681 -0.00481,0.17402 0.01209,0.2434c-0.00435,0.15662 -0.02801,0.33088 0.06195,0.48644c0.01788,0.0346 0.01645,0.0868 0.01548,0.1216c-0.00626,0.22624 -0.03192,0.4701 0.07499,0.69507c-0.06723,0.38351 0.05468,0.7475 0.08228,1.11251c0.02758,0.36502 -0.00191,0.7481 0.12044,1.09468c0.03482,0.10399 0.01256,0.22604 0.00969,0.33045c-0.17027,0.01931 -0.28054,-0.08382 -0.41212,-0.09972c-0.07403,-0.72985 -0.16788,-1.42474 -0.24286,-2.11979c-0.09191,-0.76447 -0.16547,-1.51174 -0.23855,-2.2764c-0.07451,-0.71248 -0.1679,-1.42473 -0.26126,-2.13699c-0.10739,-0.88609 -0.23416,-1.75453 -0.34207,-2.6232c-0.07596,-0.66028 -0.15188,-1.32054 -0.24674,-1.98057c-0.12242,-1.02509 -0.16888,-2.06847 -0.32903,-3.0931c-0.015,-0.139 -0.06773,-0.27758 -0.00678,-0.43485c0.16979,-0.00194 0.33809,0.04839 0.50693,0.08128c0.09336,0.03373 0.26409,-0.00299 0.41262,0.08233z" fill="#87d7dc"/><path d="M258.20716,206.31204c0.39711,-0.03927 0.77345,-0.00872 1.17102,-0.06541c0.45469,-0.0747 0.90983,-0.16685 1.36788,-0.36334c-0.02802,1.00939 -0.05555,2.00137 -0.08261,2.97595c-0.21281,0.19379 -0.45999,0.26613 -0.68878,0.35571c-0.43822,0.16152 -0.87306,0.2012 -1.32678,0.24111c-0.01889,0.00022 -0.05609,-0.01676 -0.0745,-0.03395c0.17268,-0.10632 0.11994,-0.2449 0.08607,-0.38372c-0.08467,-0.34702 -0.15047,-0.69421 -0.12192,-1.04248c0.00195,-0.06962 0.00386,-0.13923 -0.01309,-0.20861c-0.10402,-0.32941 -0.07548,-0.67765 -0.1229,-1.0077c-0.03236,-0.19102 -0.06632,-0.32976 -0.19447,-0.46753z" fill="#61afb4"/><path d="M256.06964,188.88618c0.65734,0.09699 1.31805,0.07215 1.97685,0.1169c0.30134,0.01401 0.60415,-0.02422 0.90695,-0.06242c0.56691,-0.04116 1.1507,-0.01295 1.71953,-0.12377c0.22734,-0.03734 0.45468,-0.07469 0.66364,-0.12923c0.13304,-0.03629 0.26553,-0.0552 0.39761,-0.05668c0.01744,0.05197 0.0353,0.08659 0.03433,0.12142c-0.00389,0.13921 -0.00771,0.27843 -0.01156,0.41766c-0.09576,0.05328 -0.17221,0.0889 -0.26747,0.12479c-0.68488,0.21648 -1.38869,0.4332 -2.12442,0.44148c-0.64188,0.02464 -1.30255,0.04948 -1.94254,0.0045c-0.5084,-0.02906 -1.01723,-0.04074 -1.50286,-0.20923c0.09527,-0.03589 0.20703,0.01505 0.28535,-0.09021c0.04304,-0.19185 0.10592,-0.41874 -0.13545,-0.5552z" fill="#61aeb3"/><path d="M256.49003,190.0471c0.32167,-0.03841 0.62057,0.06262 0.94078,0.0764c0.67865,0.00975 1.35727,0.01954 2.03734,-0.02295c0.54801,-0.04096 1.07914,-0.15136 1.59233,-0.2963c0.13304,-0.03629 0.26601,-0.07259 0.39903,-0.10889c-0.00675,0.24365 -0.01252,0.4525 -0.01883,0.67874c-0.23217,0.21138 -0.51758,0.30156 -0.82083,0.35721c-0.36035,0.07368 -0.73955,0.1475 -1.11732,0.16915c-0.85082,0.07914 -1.6799,0.0537 -2.52831,0.04587c-0.1509,0.0017 -0.30184,0.0034 -0.43148,-0.08213c0.00242,-0.08703 0.02367,-0.17425 -0.01212,-0.24342c-0.07062,-0.17318 -0.04598,-0.38226 -0.04066,-0.57365z" fill="#61aeb3"/><path d="M258.20716,206.31207c0.10982,0.12057 0.16251,0.25913 0.17655,0.43296c0.04741,0.33 0.01886,0.67832 0.1229,1.00768c0.01692,0.06942 0.01502,0.13903 0.01307,0.20865c-0.01013,0.36548 0.05612,0.69526 0.12192,1.04247c0.03434,0.12142 0.08661,0.27739 -0.08608,0.38373c-0.28345,0.02058 -0.54658,-0.01123 -0.78939,-0.09548c-0.04985,-0.24303 -0.11851,-0.48582 -0.07404,-0.72987c0.00097,-0.0348 -0.01643,-0.08681 -0.01548,-0.12162c-0.04693,-0.34741 -0.09338,-0.71226 -0.12145,-1.0599c-0.01452,-0.15641 -0.01063,-0.29564 -0.04401,-0.45186c-0.05124,-0.1908 -0.06435,-0.39944 0.0353,-0.59193c0.0948,-0.01845 0.17025,-0.01931 0.24619,-0.03755c0.13204,-0.00147 0.2825,0.01421 0.41451,0.01271z" fill="#87d7dc"/><path d="M256.79499,180.42273c0.21963,0.24109 0.30621,0.51843 0.37393,0.7961c0.01693,0.0694 0.01402,0.17383 -0.00675,0.24365c-0.16492,0.50639 -0.25442,1.01195 -0.32501,1.51726c-0.00049,0.01741 -0.02031,0.05241 -0.03966,0.07006c-0.07692,0.05305 -0.17124,0.05415 -0.26409,0.003c0.00097,-0.0348 -0.01697,-0.06942 -0.01598,-0.10421c0.0305,-0.41786 0.00435,-0.83515 -0.11658,-1.23393c-0.05078,-0.2082 -0.04547,-0.39967 0.05464,-0.60955c0.11948,-0.2275 0.18232,-0.45438 0.33954,-0.68236z" fill="#cce5e6"/><path d="M255.59023,183.06335c-0.11462,0.05349 -0.18959,0.03694 -0.24474,-0.01463c-0.01452,-0.83494 -0.01454,-0.83492 -0.29607,-1.56245c0.04594,-0.2963 0.1862,-0.59361 0.28827,-0.87312c0.13304,-0.03629 0.14895,0.0679 0.18524,0.1197c0.12674,0.18994 0.25395,0.36251 0.34246,0.5703c0.05274,0.13862 0.06818,0.26022 0.02661,0.39982c-0.12528,0.43638 -0.23214,0.88989 -0.30181,1.36041z" fill="#cce5e6"/><path d="M257.77378,206.29958c-0.07595,0.01824 -0.15143,0.0191 -0.24619,0.03756c-0.09964,0.1925 -0.08657,0.40111 -0.03529,0.59194c0.0334,0.15622 0.02953,0.29543 0.04401,0.45187c0.02807,0.34765 0.07451,0.71246 0.12144,1.05989c-0.00097,0.0348 0.01645,0.08682 0.01547,0.12162c-0.0261,0.26126 0.04304,0.48664 0.074,0.72986c-0.14994,-0.03309 -0.28105,-0.06644 -0.42906,-0.16917c-0.04306,-0.48665 -0.12339,-0.99032 -0.14711,-1.49458c-0.04306,-0.48665 -0.16157,-0.97245 -0.14709,-1.49455c0.30133,0.01401 0.52577,0.08106 0.74974,0.1655z" fill="#60adb2"/><path d="M260.18289,184.73396c0.07593,-0.01825 0.13305,-0.03628 0.20896,-0.05454c0.03678,0.03438 0.05512,0.05158 0.0735,0.06875c0.06725,0.29499 0.19157,0.57198 0.33472,0.84871c0.05321,0.12119 0.06918,0.22542 0.0092,0.34785c-0.10109,0.24471 -0.1649,0.50638 -0.41595,0.718c-0.22007,-0.2237 -0.34441,-0.50066 -0.44985,-0.77784c-0.01744,-0.05197 0.0039,-0.13923 0.02466,-0.20903c0.06525,-0.31387 0.13058,-0.62783 0.21474,-0.94193z" fill="#cce5e6"/><path d="M260.56926,180.32798c0.07063,0.17316 0.1243,0.27698 0.17752,0.39817c0.08804,0.2252 0.1011,0.4338 -0.01884,0.67873c-0.18139,0.41956 -0.30661,0.85597 -0.3187,1.29103c-0.00388,0.13922 -0.02322,0.15682 -0.24911,0.14201c0.00146,-0.05222 -0.01599,-0.1042 -0.01451,-0.15644c0.03095,-0.43529 -0.01405,-0.85231 -0.11564,-1.26873c-0.01594,-0.10422 -0.0324,-0.19101 0.0077,-0.27847c0.15815,-0.26277 0.27861,-0.52507 0.5316,-0.80626z" fill="#cae2e3"/><path d="M257.81568,183.0557c-0.01835,-0.01719 -0.03631,-0.05182 -0.0358,-0.0692c0.04883,-0.40067 -0.01599,-0.7827 -0.10015,-1.14714c-0.0658,-0.34719 -0.05662,-0.67789 0.14122,-1.01064c0.09868,-0.15769 0.12282,-0.34933 0.25878,-0.49004c0.29169,0.36205 0.35553,0.7789 0.21285,1.16325c-0.16397,0.4716 -0.34629,0.92597 -0.34145,1.43048c-0.0203,0.05243 -0.02227,0.12203 -0.13543,0.12332z" fill="#c9e1e2"/><path d="M259.24834,180.36029c0.18091,0.27633 0.2496,0.51911 0.3178,0.7793c0.01642,0.08681 0.01402,0.17381 -0.02564,0.24387c-0.18331,0.48922 -0.32936,0.99537 -0.43771,1.50111c-0.00097,0.0348 -0.02126,0.08721 -0.11511,0.07088c0.00339,-0.12181 0.00725,-0.26103 -0.00822,-0.38266c-0.00919,-0.34784 -0.03727,-0.69548 -0.14129,-1.02487c-0.06873,-0.2428 -0.04354,-0.46924 0.09431,-0.67957c0.09868,-0.15769 0.19683,-0.298 0.31583,-0.50811z" fill="#c9e1e2"/><path d="M261.37613,184.54658c0.11564,-0.08827 0.20995,-0.08935 0.30425,-0.09042c0.01836,0.01717 0.03631,0.0518 0.05464,0.06898c0.02999,0.27803 0.13594,0.53781 0.29945,0.76212c0.09044,0.13816 0.10544,0.27718 0.04449,0.43445c-0.08075,0.19227 -0.14312,0.40176 -0.26116,0.57709c-0.20314,-0.15429 -0.44069,-0.42999 -0.47454,-0.5688c-0.03533,-0.08657 0.00432,-0.15663 0.02565,-0.24386c-0.01063,-0.29563 0.07349,-0.60977 0.00725,-0.93953z" fill="#cae3e4"/><path d="M254.89287,185.76788c0.19635,-0.28056 0.33618,-0.5605 0.45757,-0.85764c0.11411,-0.03607 0.18963,-0.03694 0.2825,0.0142c0.08562,0.31217 0.03771,0.67807 0.14221,0.99006c-0.09965,0.19249 -0.25344,0.29862 -0.38934,0.43935c-0.07736,0.07044 -0.13636,0.15809 -0.26891,0.177c-0.14463,-0.22455 -0.11802,-0.5032 -0.22396,-0.76298z" fill="#c8e0e1"/><path d="M257.93372,184.91593c0.16928,0.01549 0.18622,0.08489 0.20315,0.15428c0.06823,0.26022 0.13689,0.50298 0.18626,0.76339c0.01693,0.06941 0.01501,0.13902 -0.02465,0.20907c-0.13736,0.1929 -0.29361,0.38604 -0.46819,0.56201c-0.09139,-0.10336 -0.10739,-0.20758 -0.16108,-0.31137c-0.16105,-0.31134 -0.17174,-0.60697 0.08121,-0.88821c0.11707,-0.14052 0.15962,-0.31497 0.18329,-0.48921z" fill="#cbe4e5"/><path d="M256.7453,184.92932c0.09431,-0.00109 0.1509,-0.00172 0.2075,-0.00237c0.01788,0.0346 0.05512,0.0516 0.05465,0.06897c0.03236,0.19102 0.04598,0.38225 0.07838,0.57325c0.01594,0.10423 -0.00533,0.19145 -0.06435,0.27909c-0.17701,0.26296 -0.37245,0.50873 -0.62444,0.75515c-0.12772,-0.15513 -0.14221,-0.31155 -0.15673,-0.46796c0.00196,-0.06959 0.00389,-0.13923 0.04302,-0.19184c0.25297,-0.28123 0.37583,-0.63056 0.46192,-1.01428z" fill="#c8e0e1"/><path d="M256.49003,190.0471c-0.00533,0.19143 -0.02999,0.40051 0.05904,0.59088c0.0358,0.06919 0.01449,0.15639 0.01209,0.24342c-0.32116,0.02101 -0.62154,-0.02778 -0.90112,-0.14645c0.0445,-0.24407 -0.02419,-0.48684 -0.05613,-0.69525c0.13446,-0.08851 0.26507,-0.03778 0.37919,-0.07387c0.17027,-0.01931 0.35844,-0.00402 0.50693,0.08127z" fill="#85d5d9"/><path d="M261.97927,181.16464c-0.10157,0.26212 -0.20311,0.52422 -0.28633,0.80352c-0.06337,0.24429 0.07982,0.52103 -0.21042,0.78525c0.01641,-0.59168 -0.10113,-1.11233 -0.21867,-1.63293c0.09965,-0.19249 0.21861,-0.40261 0.41163,-0.56135c0.03678,0.03438 0.05514,0.05158 0.07351,0.06874c0.08948,0.17295 0.16013,0.34616 0.23025,0.53671z" fill="#c6dede"/><path d="M256.54249,180.00803c-0.14028,0.29737 -0.26067,0.55964 -0.40095,0.85702c-0.148,-0.10273 -0.20075,-0.24132 -0.29216,-0.34465c-0.09096,-0.12073 -0.22009,-0.22372 -0.27232,-0.37969c0.00339,-0.12181 0.08173,-0.2271 0.14119,-0.33214c0.05947,-0.10506 0.13787,-0.21031 0.23508,-0.31582c0.2612,0.10145 0.40629,0.3086 0.58916,0.51532z" fill="#cae3e3"/><path d="M254.38196,183.11173c-0.11757,-0.52062 -0.23754,-0.95421 -0.47118,-1.36909c0.08177,-0.22711 0.14463,-0.45397 0.22685,-0.69846c0.24138,0.13646 0.32991,0.34424 0.45661,0.53416c0.01788,0.0346 0.01644,0.08683 0.01546,0.12161c-0.06867,0.4357 -0.13733,0.87145 -0.22775,1.41176z" fill="#cae3e4"/><path d="M259.07536,186.59062c-0.18091,-0.27632 -0.3246,-0.53567 -0.14513,-0.88563c0.11996,-0.24493 0.14607,-0.5062 0.17218,-0.76744c0.0029,-0.10444 0.09768,-0.1229 0.20993,-0.08937c-0.04544,0.27886 0.04162,0.53888 0.1287,0.79887c0.07015,0.19057 0.02809,0.34763 -0.07059,0.50533c-0.07933,0.14006 -0.12143,0.29713 -0.29508,0.43827z" fill="#c8e0e1"/><path d="M256.06971,188.88618c0.24089,0.15387 0.17847,0.36332 0.15381,0.57238c-0.07834,0.10525 -0.19055,0.07175 -0.28533,0.09022c-0.24473,-0.01465 -0.46918,-0.08172 -0.69269,-0.1836c0.02417,-0.19164 -0.04595,-0.38223 0.05318,-0.55732c0.09481,-0.01845 0.15142,-0.0191 0.22685,-0.01996c0.18769,0.03267 0.37535,0.06532 0.54416,0.09825z" fill="#85d4d9"/><path d="M257.21844,186.22879c0.10593,0.25977 0.17512,0.48515 0.26317,0.71034c-0.1751,0.19334 -0.36854,0.36951 -0.57996,0.51105c-0.1311,-0.03331 -0.16591,-0.13731 -0.22056,-0.20627c-0.05466,-0.06897 -0.1093,-0.13794 -0.08705,-0.25998c0.15675,-0.21052 0.37097,-0.4565 0.62443,-0.75515z" fill="#c7dfe0"/><path d="M260.15632,187.04823c-0.13691,0.17553 -0.25491,0.3508 -0.44789,0.50959c-0.22204,-0.15407 -0.31053,-0.36183 -0.4363,-0.5866c0.13785,-0.21032 0.27568,-0.42066 0.41403,-0.64841c0.18187,0.24152 0.30766,0.46633 0.47016,0.72542z" fill="#c8e0e1"/><path d="M257.46342,179.44089c0.14705,0.13755 0.29407,0.27506 0.38309,0.46544c-0.11996,0.24493 -0.25877,0.49005 -0.39806,0.75257c-0.0377,0.00042 -0.07544,0.00084 -0.07496,-0.01657c-0.10884,-0.15536 -0.21717,-0.3281 -0.30715,-0.48366c-0.0358,-0.0692 -0.05276,-0.1386 -0.01358,-0.19122c0.119,-0.21011 0.18138,-0.41958 0.41066,-0.52659z" fill="#c4dcdd"/><path d="M260.33466,179.9479c-0.15719,0.22794 -0.29554,0.45566 -0.45275,0.68362c-0.14944,-0.05052 -0.14557,-0.18973 -0.19927,-0.29353c-0.05368,-0.10377 -0.08805,-0.22519 -0.14126,-0.34636c0.10012,-0.20989 0.29266,-0.3512 0.44841,-0.52698c0.20409,0.11947 0.27473,0.29267 0.34485,0.48326z" fill="#c8e0e1"/><path d="M260.68692,186.95524c0.13884,-0.24512 0.25831,-0.47267 0.39761,-0.73518c0.18479,0.13708 0.27377,0.3275 0.4397,0.46481c-0.08225,0.24448 -0.27523,0.40326 -0.43195,0.61377c-0.18574,-0.10229 -0.33423,-0.1876 -0.40531,-0.34339z" fill="#c6ddde"/><path d="M262.55343,184.25499c0.18044,0.29374 0.26559,0.62332 0.50356,0.88161c-0.06237,0.20948 -0.10544,0.40136 -0.24281,0.59427c-0.22297,-0.11927 -0.35071,-0.27442 -0.30572,-0.53587c0.06528,-0.31387 0.03625,-0.62672 0.04495,-0.94z" fill="#b9cfd0"/><path d="M253.33234,182.87999c-0.11172,-0.05094 -0.05277,-0.1386 -0.06967,-0.20797c-0.03337,-0.15621 -0.04791,-0.31259 -0.1582,-0.41578c-0.14559,-0.18975 -0.12145,-0.38136 -0.07789,-0.59065c0.0213,-0.08724 0.06141,-0.17468 0.10253,-0.29692c0.23995,0.18866 0.42373,0.3606 0.33911,0.69208c-0.06285,0.22689 -0.05079,0.47032 -0.07593,0.69677c-0.00148,0.05221 -0.0029,0.10443 -0.05997,0.12246z" fill="#c0d8d8"/><path d="M254.0135,186.19528c-0.08998,-0.15559 -0.12382,-0.29436 -0.11998,-0.43357c0.00196,-0.06959 0.00431,-0.15664 0.0435,-0.20926c0.17608,-0.22815 0.296,-0.47307 0.41597,-0.718c0.13204,-0.00146 0.11124,0.06833 0.10981,0.12057c-0.00483,0.17404 -0.01013,0.36548 0.02276,0.53908c0.03144,0.22581 -0.02949,0.38309 -0.22153,0.50705c-0.09577,0.05328 -0.15381,0.10612 -0.25052,0.19418z" fill="#c1d9d9"/><path d="M258.7822,186.95927c-0.11848,0.19268 -0.27331,0.33362 -0.42903,0.50936c-0.2046,-0.10207 -0.25584,-0.29287 -0.36472,-0.44824c0.13833,-0.22774 0.35016,-0.3867 0.54414,-0.58025c0.12721,0.17256 0.17898,0.34597 0.24963,0.51914z" fill="#c3dbdc"/><path d="M258.63883,180.57594c-0.10646,-0.24238 -0.19446,-0.46758 -0.30136,-0.69255c0.07978,-0.15751 0.15914,-0.29755 0.3318,-0.40389c0.16592,0.13733 0.25539,0.31028 0.36379,0.48304c-0.08177,0.2271 -0.20021,0.41978 -0.39418,0.61335z" fill="#c3dadb"/><path d="M257.08108,187.77872c0.19301,-0.15876 0.36663,-0.29988 0.54026,-0.44101c0.18526,0.11969 0.27474,0.29266 0.36422,0.46562c-0.13639,0.15812 -0.29067,0.28164 -0.4822,0.38814c-0.05562,-0.03418 -0.12963,-0.08555 -0.16638,-0.11989c-0.09141,-0.10336 -0.14559,-0.18972 -0.25588,-0.2929z" fill="#c4dbdc"/><path d="M253.47024,184.70521c-0.00919,0.33069 -0.01645,0.59175 -0.02412,0.87017c-0.09771,0.1229 -0.21333,0.21118 -0.38452,0.26527c-0.11074,-0.08575 -0.06965,-0.20799 -0.10446,-0.31199c-0.03483,-0.10398 -0.05078,-0.2082 -0.0484,-0.29522c0.19349,-0.1762 0.34826,-0.31711 0.56156,-0.52826z" fill="#c2d9da"/><path d="M256.20779,179.15928c0.07933,-0.14006 0.1765,-0.24557 0.29165,-0.31645c0.15139,-0.01909 0.22397,0.08452 0.31682,0.13562c0.09285,0.0511 0.20556,0.06726 0.25876,0.18845c-0.04255,0.17446 -0.17896,0.33257 -0.31631,0.52553c-0.09194,-0.08597 -0.18384,-0.17192 -0.27621,-0.24048c-0.09139,-0.10336 -0.18285,-0.2067 -0.27476,-0.29267z" fill="#c5ddde"/><path d="M259.39851,187.85706c-0.09917,0.17512 -0.25153,0.22902 -0.36759,0.33471c-0.20508,-0.0847 -0.3328,-0.23983 -0.47891,-0.41215c0.1359,-0.14072 0.27184,-0.28143 0.38892,-0.42195c0.22296,0.11929 0.31152,0.32707 0.45758,0.49938z" fill="#c3dbdc"/><path d="M254.74083,181.05479c-0.07404,-0.05135 -0.11078,-0.0857 -0.14755,-0.12007c-0.07303,-0.08616 -0.1456,-0.18975 -0.23702,-0.2931c0.13884,-0.24512 0.22103,-0.48963 0.43386,-0.68341c0.1311,0.03331 0.18528,0.11969 0.25734,0.24068c-0.0827,0.2619 -0.18526,0.5588 -0.30661,0.85595z" fill="#c7dfe0"/><path d="M256.06577,186.98989c-0.1925,0.14134 -0.31052,0.31663 -0.52044,0.40599c-0.16687,-0.10253 -0.18043,-0.29371 -0.30958,-0.39664c0.17609,-0.22815 0.36855,-0.36952 0.56204,-0.54567c0.18431,0.15452 0.17897,0.34593 0.26802,0.53631z" fill="#c7dee0"/><path d="M255.98368,189.94841c-0.11413,0.03608 -0.24474,-0.01467 -0.3792,0.07387c0.03144,0.22581 0.08125,0.46881 0.05612,0.69526c-0.07499,-0.01656 -0.16881,-0.03291 -0.2433,-0.06683c-0.11172,-0.05094 -0.18475,-0.13711 -0.1814,-0.25895c-0.01307,-0.2086 -0.02664,-0.39982 -0.03967,-0.60848c0.24524,-0.00277 0.35794,0.01337 0.78747,0.16512z" fill="#61acb1"/><path d="M261.55548,180.12554c-0.13691,0.17553 -0.25392,0.31599 -0.40969,0.49175c-0.1069,-0.22496 -0.21428,-0.4325 -0.30234,-0.65769c0.09815,-0.14029 0.1959,-0.26316 0.33084,-0.36908c0.1843,0.15451 0.27377,0.32746 0.38116,0.53502z" fill="#c2dada"/><path d="M254.09713,186.57711c0.13691,-0.17553 0.2907,-0.28164 0.46438,-0.42277c0.06872,0.2428 0.13836,0.45079 0.20801,0.65881c-0.07978,0.1575 -0.21331,0.21118 -0.36663,0.29988c-0.16639,-0.11989 -0.2177,-0.31074 -0.30572,-0.53587z" fill="#c1d9d9"/><path d="M259.34398,179.62848c-0.16494,-0.17214 -0.27425,-0.31007 -0.40244,-0.44784c0.06142,-0.17467 0.21572,-0.2982 0.37004,-0.42171c0.16733,0.08512 0.31535,0.18783 0.42372,0.36059c-0.06239,0.20947 -0.25348,0.29862 -0.3913,0.50897z" fill="#c6dedf"/><path d="M260.80066,187.61507c-0.13638,0.15811 -0.29119,0.29904 -0.42709,0.43976c-0.16928,-0.01549 -0.28054,-0.08382 -0.39037,-0.20439c0.08177,-0.2271 0.29266,-0.35121 0.43001,-0.54417c0.16787,0.06769 0.25876,0.18846 0.38745,0.30879z" fill="#c0d7d7"/><path d="M253.88178,180.75126c-0.08076,0.19227 -0.10545,0.40133 -0.28003,0.5773c-0.10982,-0.12057 -0.22009,-0.22374 -0.33038,-0.32685c0.00582,-0.20882 0.10496,-0.38391 0.25973,-0.52482c0.14945,0.05052 0.24134,0.13646 0.35068,0.27438z" fill="#c3dadb"/><path d="M255.54446,188.78771c-0.07546,0.00084 -0.15142,0.01912 -0.22689,0.01998c-0.09917,0.17513 -0.02905,0.36566 -0.05318,0.55732c-0.13253,0.01888 -0.2051,-0.0847 -0.33665,-0.1006c-0.06917,-0.22539 -0.00681,-0.43487 -0.13257,-0.65962c0.18912,-0.01951 0.30083,0.0314 0.43149,0.08213c0.09337,0.03372 0.22639,-0.00252 0.31778,0.10081z" fill="#5aa0a4"/><path d="M263.68496,185.6166c-0.08076,0.19226 -0.10545,0.40137 -0.2607,0.55968c-0.1311,-0.03331 -0.20463,-0.10211 -0.31492,-0.20521c0.04305,-0.19187 0.12381,-0.38415 0.24133,-0.54207c0.1311,0.03332 0.2051,0.08469 0.33423,0.18761z" fill="#bdd3d4"/><path d="M257.85598,188.39629c0.13497,-0.10591 0.25105,-0.21158 0.36711,-0.31728c0.16735,0.08512 0.27718,0.20566 0.38649,0.34359c-0.06047,0.13984 -0.19349,0.1762 -0.32552,0.17767c-0.16978,0.00195 -0.33953,0.00385 -0.42808,-0.20395z" fill="#bdd4d5"/><path d="M262.86537,181.17207c-0.10013,0.20988 -0.19976,0.40241 -0.29986,0.61229c-0.1785,-0.36332 -0.26361,-0.69293 0.12188,-0.99303c0.11074,0.08575 0.12575,0.22476 0.17799,0.38073z" fill="#bbd2d3"/><path d="M256.11269,188.01582c-0.14896,-0.06792 -0.22154,-0.1715 -0.29407,-0.27508c0.00339,-0.12181 0.09869,-0.1577 0.17609,-0.22814c0.05803,-0.05283 0.11655,-0.12308 0.23024,-0.14175c0.14896,0.06792 0.14416,0.24192 0.29265,0.32724c-0.11752,0.15792 -0.25197,0.24642 -0.4048,0.31775z" fill="#c3dadb"/><path d="M258.25149,182.98117c0.04647,-0.31368 0.09285,-0.62735 0.21475,-0.94189c0.11268,0.01614 0.12918,0.10295 0.12672,0.18995c0.01257,0.22603 0.00631,0.45223 0.00051,0.66108c-0.00435,0.15662 -0.11851,0.19274 -0.34196,0.09084z" fill="#b1c6c7"/><path d="M261.87496,187.63778c0.04156,-0.13963 0.15622,-0.19314 0.23409,-0.28099c0.1369,-0.17554 0.30715,-0.19484 0.53114,-0.11036c-0.11996,0.24492 -0.35069,0.40409 -0.54317,0.54544c-0.13157,-0.01592 -0.18721,-0.05008 -0.22204,-0.15407z" fill="#bbd2d3"/><path d="M260.78407,182.77866c-0.06629,-0.32983 0.07398,-0.62713 0.19585,-0.94169c0.10645,0.24238 0.09915,0.50342 0.11127,0.74684c0.01452,0.15642 -0.04304,0.19189 -0.30713,0.19483z" fill="#bad1d2"/><path d="M263.546,184.50475c0.12817,0.13775 0.25732,0.24069 0.3855,0.3784c-0.02128,0.08724 -0.08126,0.2097 -0.12237,0.33194c-0.33715,-0.08319 -0.33666,-0.1006 -0.31152,-0.32707c0.00341,-0.12181 0.02565,-0.24387 0.04837,-0.38329z" fill="#b5cbcc"/><path d="M258.53238,178.298c0.18718,0.0501 0.29799,0.13581 0.40873,0.22156c-0.06094,0.15728 -0.21381,0.22856 -0.34873,0.33449c-0.12966,-0.0855 -0.24036,-0.17127 -0.37001,-0.2568c0.02321,-0.15683 0.19393,-0.19357 0.31005,-0.29927z" fill="#c0d7d8"/><path d="M262.35715,185.8926c0.11219,0.03355 0.18528,0.11968 0.25785,0.22326c-0.06289,0.22688 -0.20022,0.41981 -0.37437,0.57834c-0.13253,0.01888 -0.16881,-0.0329 -0.20409,-0.11947c0.10056,-0.2273 0.20119,-0.45462 0.32067,-0.68212z" fill="#bdd4d4"/><path d="M261.79008,179.82716c-0.10884,-0.15536 -0.19833,-0.3283 -0.30716,-0.48367c0.07789,-0.08786 0.17317,-0.12375 0.28634,-0.12504c0.11219,0.03354 0.14753,0.12009 0.2017,0.20647c0.0358,0.0692 0.07159,0.13837 0.1074,0.20757c-0.05949,0.10508 -0.13689,0.17554 -0.2883,0.19464z" fill="#b6cccc"/><path d="M258.08351,179.52093c-0.12816,-0.13775 -0.23798,-0.25828 -0.38504,-0.39583c0.02175,-0.10462 0.08124,-0.20971 0.25249,-0.26384c0.12967,0.0855 0.25878,0.18844 0.40678,0.29116c-0.07933,0.14006 -0.13929,0.26255 -0.27426,0.36845z" fill="#c1d9d9"/><path d="M262.52959,180.35814c-0.07933,0.14006 -0.15767,0.24537 -0.29214,0.33384c-0.12817,-0.13775 -0.16106,-0.31138 -0.21379,-0.44995c0.04156,-0.13963 0.15573,-0.17572 0.2515,-0.229c0.0561,0.01677 0.09384,0.01635 0.09337,0.03372c0.05366,0.10378 0.10737,0.20755 0.16106,0.31138z" fill="#b7cdce"/><path d="M263.48789,181.84356c-0.14559,-0.18976 -0.14126,-0.34637 -0.17464,-0.50257c-0.05178,-0.1734 0.06336,-0.24429 0.1978,-0.33279c0.12817,0.13775 0.16155,0.29395 0.23315,0.43233c-0.04256,0.17445 -0.23266,0.2288 -0.25634,0.40304z" fill="#b6cccc"/><path d="M263.24469,186.5263c-0.09817,0.14029 -0.17652,0.24555 -0.25536,0.36823c-0.17027,0.01931 -0.28345,0.02058 -0.41307,-0.06493c0.11753,-0.15791 0.2162,-0.31561 0.31437,-0.45588c0.17121,-0.05415 0.24375,0.04946 0.35647,0.06556c-0.00097,0.0348 0.01695,0.06942 -0.00239,0.08703z" fill="#c2dada"/><path d="M257.54276,178.62232c-0.05999,0.12243 -0.11801,0.1753 -0.2133,0.2112c-0.11369,0.01867 -0.18717,-0.05009 -0.28007,-0.10122c-0.07403,-0.05136 -0.20557,-0.06727 -0.22106,-0.18889c0.09722,-0.10546 0.21281,-0.19376 0.38357,-0.23049c0.12916,0.10293 0.22058,0.2063 0.33088,0.30945z" fill="#bbd2d3"/><path d="M254.563,187.45915c0.13446,-0.0885 0.23072,-0.15919 0.34583,-0.23007c0.12869,0.12034 0.20024,0.25872 0.29073,0.3969c-0.07834,0.10526 -0.17461,0.17598 -0.30665,0.1774c-0.03726,-0.01697 -0.07448,-0.03397 -0.09241,-0.06856c-0.07351,-0.06874 -0.14657,-0.15497 -0.23751,-0.2757z" fill="#bbd2d3"/><path d="M264.05584,184.48162c-0.22107,-0.18889 -0.22108,-0.18889 -0.30714,-0.48366c0.09819,-0.14029 0.24959,-0.15938 0.42081,-0.21349c0.04984,0.24303 -0.05076,0.47031 -0.11365,0.69719z" fill="#adc2c3"/><path d="M256.42672,188.25588c0.07834,-0.10526 0.19351,-0.17616 0.32601,-0.19503c0.12869,0.12034 0.23897,0.22342 0.34872,0.34401c-0.32552,0.17766 -0.34437,0.17789 -0.67477,-0.14894z" fill="#b5cbcc"/><path d="M260.93836,179.26263c-0.0977,0.12291 -0.1756,0.21074 -0.31006,0.29924c-0.14846,-0.0853 -0.20072,-0.24132 -0.31006,-0.37927c0.03919,-0.05264 0.07786,-0.08784 0.11654,-0.1231c0.0387,-0.03524 0.09576,-0.05328 0.15334,-0.08873c0.16833,0.0503 0.25972,0.15364 0.35022,0.29183z" fill="#bbd1d2"/><path d="M253.45386,186.65397c-0.18526,-0.1197 -0.19833,-0.32831 -0.2888,-0.46647c0.07885,-0.12265 0.21139,-0.14159 0.32653,-0.21247c0.12675,0.18993 0.15962,0.36356 0.09771,0.55563c-0.00147,0.05221 -0.07787,0.08787 -0.13542,0.12331z" fill="#b6cccd"/><path d="M254.4955,179.70049c-0.13833,0.22774 -0.29506,0.43826 -0.4329,0.64858c-0.13158,-0.01593 -0.20556,-0.06725 -0.27764,-0.18822c0.19393,-0.19357 0.3879,-0.38711 0.63699,-0.52912c0.03678,0.0344 0.05514,0.05158 0.07352,0.06874z" fill="#acc1c2"/><path d="M259.72812,182.09465c0.05032,0.22561 0.08176,0.45144 0.03773,0.67808c-0.0213,0.08724 -0.0798,0.15748 -0.1741,0.15855c-0.03769,0.00041 -0.1122,-0.03355 -0.11173,-0.05095c-0.01161,-0.26083 0.12767,-0.52336 0.24809,-0.78568z" fill="#a7bbbb"/><path d="M260.33261,178.66052c-0.04064,0.10486 -0.13639,0.15812 -0.25102,0.21159c-0.12916,-0.10293 -0.25829,-0.20588 -0.38745,-0.3088c0.07933,-0.14006 0.19299,-0.15874 0.32502,-0.16023c0.11172,0.05094 0.22203,0.15406 0.31344,0.25746z" fill="#b7cdcd"/><path d="M259.28632,188.50198c0.09917,-0.17513 0.23363,-0.26358 0.38695,-0.35232c0.14945,0.05052 0.26071,0.11885 0.33181,0.27463c-0.22926,0.10696 -0.45517,0.0921 -0.71877,0.07771z" fill="#b7cece"/><path d="M252.44097,185.09955c-0.12626,-0.20735 -0.04451,-0.43443 -0.13403,-0.60739c0.07834,-0.10525 0.15333,-0.0887 0.18963,-0.03692c0.09046,0.13815 0.16158,0.29396 0.15672,0.46797c-0.02031,0.05243 -0.02082,0.06982 -0.21234,0.17638z" fill="#b4cacb"/><path d="M255.24674,179.81382c-0.11172,-0.05092 -0.16688,-0.1025 -0.20221,-0.18907c0.1369,-0.17554 0.27426,-0.36844 0.54222,-0.51065c0.01063,0.29563 -0.16397,0.47157 -0.34002,0.69973z" fill="#b2c8c9"/><path d="M255.41722,187.93668c0.12966,0.0855 0.22203,0.15407 0.25685,0.25807c-0.0208,0.06982 -0.07787,0.0879 -0.13496,0.10592c-0.22828,0.07216 -0.31924,-0.04862 -0.40871,-0.22157c0.09527,-0.03589 0.19106,-0.08916 0.28682,-0.14243z" fill="#b5cbcb"/><path d="M262.05278,182.59044c-0.01258,-0.22603 -0.00728,-0.41743 0.05512,-0.6269c0.0948,-0.01844 0.13108,0.03332 0.12964,0.08551c0.01547,0.12163 0.04983,0.24304 0.06531,0.36463c-0.00388,0.13922 -0.08029,0.17485 -0.25006,0.17675z" fill="#91a3a3"/><path d="M254.89414,182.32308c0.12626,0.20735 0.10111,0.4338 0.09529,0.64264c-0.00097,0.0348 -0.03967,0.07006 -0.07788,0.08786c-0.0377,0.00042 -0.09336,-0.03372 -0.09289,-0.05115c-0.04984,-0.24303 -0.00582,-0.46968 0.07544,-0.67937z" fill="#99abac"/><path d="M253.97222,182.92502c-0.13398,0.07111 -0.22829,0.07215 -0.26362,-0.01444c-0.03434,-0.12142 0.00823,-0.29584 0.08995,-0.52294c0.12725,0.17255 0.12191,0.36396 0.17366,0.53735z" fill="#93a5a6"/><path d="M261.12183,188.27255c0.15625,-0.19312 0.29407,-0.40346 0.62978,-0.26808c-0.15675,0.21051 -0.40195,0.21329 -0.62978,0.26808z" fill="#9aadad"/><path d="M260.9457,185.10815c-0.05274,-0.13861 -0.10497,-0.29457 -0.15817,-0.41578c0.05902,-0.08765 0.11608,-0.1057 0.2288,-0.08955c0.09,0.15559 0.00971,0.33047 0.02423,0.48688c-0.0377,0.00042 -0.05659,0.00062 -0.09483,0.01847z" fill="#c5dddd"/><path d="M257.28792,182.3657c0.16349,0.22432 0.15719,0.4506 0.07548,0.67767c-0.00049,0.01741 -0.0387,0.03526 -0.07643,0.03568c-0.05708,0.01803 -0.09336,-0.03372 -0.09238,-0.06854c-0.01359,-0.19121 0.04884,-0.40072 0.09334,-0.64479z" fill="#aec2c3"/><path d="M253.76869,186.85914c0.12817,0.13775 0.17994,0.31111 0.23218,0.46715c-0.059,0.08766 -0.13401,0.0711 -0.1698,0.00193c-0.07208,-0.12099 -0.14461,-0.22455 -0.19733,-0.36314c-0.03678,-0.0344 0.02127,-0.08721 0.13495,-0.1059z" fill="#9caeaf"/><path d="M259.34299,178.3063c-0.16834,-0.05031 -0.27956,-0.11862 -0.40872,-0.22157c0.24716,-0.07238 0.45322,-0.02251 0.67958,-0.02505c-0.02032,0.05245 -0.0213,0.08724 -0.04064,0.10482c-0.07692,0.05305 -0.15331,0.08871 -0.2302,0.14178z" fill="#a9bebf"/><path d="M256.06622,184.93693c0.13304,-0.03629 0.20796,-0.01974 0.28202,0.03165c0.01401,0.17381 -0.04693,0.33107 -0.2404,0.50725c-0.03193,-0.20843 -0.02757,-0.36504 -0.04163,-0.53887z" fill="#b9cfd0"/><path d="M262.00158,184.43514c0.05902,-0.08764 0.13497,-0.10588 0.21089,-0.12415c0.09336,0.03375 0.09095,0.12073 0.02274,0.53907c-0.22348,-0.10187 -0.16157,-0.29395 -0.23364,-0.41493z" fill="#869797"/><path d="M256.15513,182.41325c-0.06433,0.27909 0.09869,0.52084 -0.17121,0.73263c-0.06823,-0.26021 -0.04358,-0.46923 0.17121,-0.73263z" fill="#93a4a5"/><path d="M263.05744,181.7266c-0.00725,0.26103 -0.01209,0.43508 -0.01692,0.60911c-0.00097,0.0348 -0.03967,0.07006 -0.09624,0.07066c-0.01889,0.00022 -0.05611,-0.01678 -0.0745,-0.03396c-0.03196,-0.2084 -0.02663,-0.39989 0.18764,-0.64582z" fill="#94a5a6"/><path d="M262.91436,184.16392c0.11514,-0.07086 0.17217,-0.08894 0.26458,-0.02039c0.015,0.139 0.02952,0.29544 -0.03191,0.47011c-0.18525,-0.11973 -0.1804,-0.29372 -0.23267,-0.44969z" fill="#abbfc0"/><path d="M263.34909,180.73162c-0.09528,0.03588 -0.1335,0.0537 -0.17125,0.05412c-0.20075,-0.24131 -0.20072,-0.24128 -0.13736,-0.48556c0.18574,0.10229 0.18093,0.2763 0.30858,0.43144z" fill="#acc0c1"/><path d="M261.39027,187.43443c0.11707,-0.14052 0.21571,-0.29819 0.35163,-0.43891c0.05803,-0.05283 0.13351,-0.05367 0.18717,0.05009c-0.13691,0.17553 -0.27328,0.33363 -0.53882,0.3888z" fill="#9fb2b2"/><path d="M261.22758,179.03314c-0.09241,-0.06858 -0.14752,-0.12015 -0.18284,-0.2067c0.03965,-0.07006 0.09721,-0.1055 0.19202,-0.12396c0.11269,0.01615 0.18572,0.1023 0.25876,0.18847c-0.04064,0.10486 -0.15429,0.12351 -0.26794,0.14217z" fill="#aec2c3"/><path d="M258.65927,185.27309c-0.14846,-0.08529 -0.14512,-0.20716 -0.1606,-0.32876c0.00148,-0.05221 0.059,-0.08763 0.1156,-0.08827c0.0377,-0.00042 0.09338,0.03373 0.09239,0.06854c0.05368,0.10377 0.01306,0.20865 -0.04741,0.34849z" fill="#91a2a3"/><path d="M258.06606,178.1119c-0.21573,0.2982 -0.23504,0.31584 -0.47353,0.07495c0.15188,-0.03649 0.28634,-0.12502 0.47353,-0.07495z" fill="#869696"/><path d="M252.91642,182.91947c-0.16591,-0.13733 -0.10643,-0.24235 -0.08418,-0.36442c0.16734,0.08512 0.16734,0.08512 0.08418,0.36442z" fill="#555f5f"/><path d="M259.82302,184.79026c-0.00241,0.08702 -0.0058,0.20881 -0.06577,0.3313c-0.16543,-0.15473 -0.16348,-0.22432 -0.08469,-0.34698c0.01983,-0.03502 0.07644,-0.03568 0.15043,0.01572z" fill="#93a5a6"/><path d="M263.84578,181.85692c0.18285,0.20671 0.16305,0.24173 -0.14028,0.29733c-0.03434,-0.12143 0.04349,-0.20927 0.14028,-0.29733z" fill="#8b9b9c"/><path d="M252.53713,182.31484c0.05176,0.1734 0.02902,0.3128 0.00627,0.45228c-0.11462,0.05349 -0.17026,0.0193 -0.16831,-0.05032c0.00386,-0.13922 0.0266,-0.27866 0.162,-0.40196z" fill="#9aacad"/><path d="M262.69651,179.78212c0.11074,0.08575 0.2225,0.13669 0.19978,0.27613c-0.0005,0.01741 -0.01982,0.03503 -0.03868,0.03525c-0.16882,-0.03291 -0.20366,-0.13691 -0.16108,-0.31137z" fill="#5f6a6b"/><path d="M257.39932,185.14809c-0.05466,-0.06897 -0.05274,-0.13862 -0.03191,-0.20844c0.01983,-0.03502 0.05852,-0.07025 0.09577,-0.05326c0.03726,0.01697 0.07403,0.05136 0.07302,0.08618c-0.00196,0.06959 -0.02274,0.13942 -0.13689,0.17551z" fill="#636e6f"/><path d="M260.56579,178.41431c0.13351,-0.05368 0.22733,-0.03737 0.29893,0.10101c-0.15284,0.0713 -0.22686,0.01998 -0.29893,-0.10101z" fill="#4a5354"/></g><g data-paper-data="{&quot;index&quot;:null}" fill="#000000" stroke="#000000" stroke-width="1.2"><path d="M247.72472,204.38384c-0.41754,-1.81875 1.34013,-4.66728 1.69348,-6.93489c0.38044,-2.44141 -0.60826,-4.13296 0.47214,-5.3692c0.75466,-0.86349 2.34247,-0.82556 3.16147,-0.69794c1.99152,0.31031 3.08216,3.92347 2.436,8.07018c-0.64614,4.14671 -2.7844,7.25674 -4.77591,6.94641c-0.90245,-0.14062 -2.64117,-0.50743 -2.98718,-2.01454z"/><path d="M250.87917,207.06175c-0.55912,-2.54121 1.32808,-8.23821 1.32808,-8.23821c0,0 -0.52066,-3.89354 -0.50583,-3.97884c0.94412,-5.43622 4.40228,-4.95916 8.32377,-4.34809c1.86637,0.29081 4.61838,1.49477 5.37255,3.3602c0.85532,2.11562 -0.13418,4.73204 -0.60859,7.77657c-0.89272,5.72901 -4.01373,10.23048 -7.99676,9.60984c-1.75331,-0.2732 -5.16643,-0.78741 -5.91321,-4.18147z"/></g></g><g fill="#ff0000" fill-rule="nonzero" stroke="none" stroke-linecap="butt" stroke-linejoin="miter"><g><path d="M239.26097,221.30561c0.36529,1.07627 -0.30897,2.25934 -1.50599,2.64242c-1.19701,0.38309 -2.46351,-0.17885 -2.8288,-1.25513c-0.36529,-1.07628 0.30897,-2.25933 1.50599,-2.64242c1.19701,-0.38309 2.46351,0.17885 2.8288,1.25512z" stroke-width="NaN"/><path d="M243.57947,224.59009c0.33606,0.99018 -0.25405,2.06892 -1.31807,2.40944c-1.06402,0.34052 -2.199,-0.18611 -2.53507,-1.17629c-0.33606,-0.99018 0.25406,-2.06892 1.31808,-2.40945c1.06402,-0.34052 2.19899,0.18612 2.53505,1.17629z" stroke-width="0"/><path d="M241.23796,229.22827c0.35067,1.03323 -0.2276,2.14687 -1.29162,2.48739c-1.06402,0.34052 -2.21084,-0.22101 -2.56151,-1.25425c-0.35067,-1.03323 0.2276,-2.14688 1.29161,-2.4874c1.06402,-0.34052 2.21085,0.22102 2.56152,1.25425z" stroke-width="0"/></g><g><path d="M242.49931,213.79482c-0.94325,0.0234 -1.72901,-0.75955 -1.75504,-1.74878c-0.02604,-0.98923 0.71752,-1.81014 1.66077,-1.83354c0.94325,-0.0234 1.729,0.75956 1.75504,1.74879c0.02604,0.98923 -0.71751,1.81013 -1.66076,1.83353z" stroke-width="NaN"/><path d="M238.87308,216.27458c-0.86778,0.02154 -1.59003,-0.67383 -1.61318,-1.55315c-0.02314,-0.87932 0.66159,-1.60961 1.52938,-1.63114c0.86778,-0.02154 1.59002,0.67384 1.61317,1.55315c0.02314,0.87932 -0.66159,1.60961 -1.52937,1.63114z" stroke-width="0"/><path d="M241.9962,218.05579c-0.98098,0.02434 -1.79419,-0.63906 -1.81637,-1.48173c-0.02218,-0.84267 0.75509,-1.54554 1.73606,-1.56988c0.98098,-0.02434 1.7942,0.63906 1.81637,1.48174c0.02218,0.84267 -0.75509,1.54553 -1.73607,1.56987z" stroke-width="0"/></g><g><path d="M226.49504,220.44622c0,1.13322 -1.02172,2.05188 -2.28206,2.05188c-1.26035,0 -2.28207,-0.91866 -2.28207,-2.05188c0,-1.13322 1.02172,-2.05188 2.28207,-2.05188c1.26035,0 2.28206,0.91866 2.28206,2.05188z" stroke-width="NaN"/><path d="M229.53781,224.87829c0,1.04256 -0.90819,1.88773 -2.0285,1.88773c-1.12031,0 -2.0285,-0.84517 -2.0285,-1.88773c0,-1.04256 0.9082,-1.88773 2.0285,-1.88773c1.12031,0 2.0285,0.84517 2.0285,1.88773z" stroke-width="0"/><path d="M225.81889,228.57167c0,1.08789 -0.90819,1.9698 -2.0285,1.9698c-1.12031,0 -2.0285,-0.88191 -2.0285,-1.9698c0,-1.08789 0.90819,-1.9698 2.0285,-1.9698c1.12031,0 2.0285,0.88192 2.0285,1.9698z" stroke-width="0"/></g><g><path d="M231.11162,214.01552c-0.90339,-0.26448 -1.39729,-1.24692 -1.10314,-2.19436c0.29414,-0.94743 1.26495,-1.50108 2.16834,-1.2366c0.90339,0.26448 1.39728,1.24692 1.10314,2.19436c-0.29414,0.94743 -1.26494,1.50108 -2.16834,1.2366z" stroke-width="NaN"/><path d="M224.79188,211.61089c-0.86726,-0.25389 -1.35835,-1.14243 -1.09689,-1.98459c0.26146,-0.84217 1.17647,-1.31905 2.04372,-1.06515c0.86726,0.25389 1.35835,1.14243 1.09689,1.98459c-0.26146,0.84217 -1.17647,1.31905 -2.04373,1.06515z" stroke-width="0"/><path d="M229.26032,217.90945c-0.93953,-0.27505 -1.49804,-1.15229 -1.24747,-1.95937c0.25057,-0.80707 1.21533,-1.23836 2.15486,-0.96331c0.93953,0.27505 1.49805,1.1523 1.24748,1.95938c-0.25057,0.80707 -1.21534,1.23835 -2.15487,0.9633z" stroke-width="0"/></g></g><path d="M236.01224,185.1314c0,0 -11.44288,-3.073 -13.84873,-4.78612c-2.00692,-1.42904 -2.19711,-5.22578 -2.19711,-5.22578" fill="none" fill-rule="nonzero" stroke="#000000" stroke-width="3" stroke-linecap="round" stroke-linejoin="miter"/></g></g></svg>