<svg version="1.1" xmlns="http://www.w3.org/2000/svg" xmlns:xlink="http://www.w3.org/1999/xlink" width="72.44741" height="110.49663" viewBox="0,0,72.44741,110.49663"><defs><linearGradient x1="193.52253" y1="160.99154" x2="236.01237" y2="160.99154" gradientUnits="userSpaceOnUse" id="color-1"><stop offset="0" stop-color="#000000"/><stop offset="1" stop-color="#000000" stop-opacity="0"/></linearGradient><linearGradient x1="252.91994" y1="148.2671" x2="252.91994" y2="175.49799" gradientUnits="userSpaceOnUse" id="color-2"><stop offset="0" stop-color="#2a0000" stop-opacity="0"/><stop offset="1" stop-color="#2a0000"/></linearGradient><linearGradient x1="227.88896" y1="147.81376" x2="227.88896" y2="175.75145" gradientUnits="userSpaceOnUse" id="color-3"><stop offset="0" stop-color="#2a0000" stop-opacity="0"/><stop offset="1" stop-color="#2a0000"/></linearGradient><linearGradient x1="194.03033" y1="182.90046" x2="213.3573" y2="182.90046" gradientUnits="userSpaceOnUse" id="color-4"><stop offset="0" stop-color="#000000"/><stop offset="1" stop-color="#000000" stop-opacity="0"/></linearGradient></defs><g transform="translate(-192.02252,-132.86552)"><g data-paper-data="{&quot;isPaintingLayer&quot;:true}" stroke-miterlimit="10" stroke-dasharray="" stroke-dashoffset="0" style="mix-blend-mode: normal"><g stroke-width="1.2"><path d="M236.60868,203.73788l8.66297,26.4148c0,0 7.34651,0.55792 8.72035,7.7562c0.07832,0.41037 0.40825,2.42417 -2.46292,2.95647c-2.75,0.50982 -8.65503,-0.44433 -10.8153,-0.80527c-1.00334,-0.16764 -2.62255,-0.84589 -3.80708,-1.97664c-1.19262,-1.13851 -1.43961,-2.76564 -1.63575,-3.68207c-0.07989,-0.37327 -8.51906,-29.76421 -8.51906,-29.76421" fill="#784200" fill-rule="evenodd" stroke="#4d2a00" stroke-linecap="round" stroke-linejoin="round"/><path d="M227.84891,210.57751c-1.40796,-7.37706 4.05777,-7.39916 6.93415,-7.2773c1.25077,0.05299 0.65901,-1.9228 2.99991,3.87093c0.51556,1.276 2.11297,6.50447 4.08621,10.96653c1.3512,3.05544 3.2372,5.76672 3.64751,6.54313c0.96945,1.83447 1.08863,3.49207 1.08863,3.49207l-1.30724,-1.22815c0,0 0.87125,0.85514 1.25563,1.36278c1.19746,1.58139 2.11002,2.77513 2.11002,2.77513c0,0 -7.41908,-0.60728 -9.77535,1.6399c-2.35627,2.24718 -0.01336,6.60716 -0.01336,6.60716c0,0 -5.59918,-0.92676 -6.66782,-3.88803c-0.26345,-0.73003 0.1124,-2.88017 0.1124,-2.88017c0,0 -0.59371,0.11061 -0.72204,-0.39383c-0.06542,-0.25715 -0.05311,-4.05291 -0.78929,-8.33734c-0.96913,-5.64014 -2.75652,-12.18989 -2.95938,-13.2528z" fill="#ff8d00" fill-rule="nonzero" stroke="#c46c00" stroke-linecap="butt" stroke-linejoin="miter"/></g><path d="M217.41982,205.15901c-0.05665,-0.21684 1.32228,0.44578 4.15189,0.5737c3.73299,0.16878 9.32437,-0.15763 10.87507,-0.34983c4.02122,-0.49839 4.39229,-2.02366 4.54245,-1.44884c0.55567,2.12714 -0.94376,6.0187 -5.63964,6.14343c-2.06362,0.05481 -6.17333,0.68453 -8.74779,-0.11011c-3.28385,-1.01361 -4.8705,-3.61602 -5.18198,-4.80837z" fill="#004fd9" fill-rule="nonzero" stroke="#001026" stroke-width="1.2" stroke-linecap="butt" stroke-linejoin="miter"/><g fill-rule="nonzero" stroke-linecap="butt" stroke-linejoin="miter"><g fill="none" stroke="none" stroke-width="1" font-family="sans-serif" font-weight="normal" font-size="12" text-anchor="start"/><path d="M216.62281,203.7672c0,0 9.1947,1.50914 13.28392,1.5692c4.0892,0.06006 7.16218,-1.26892 7.16218,-1.26892c0,0 0.47892,2.0809 -0.91177,4.07041c-1.07647,1.54001 -3.44347,3.11127 -6.94608,3.07822c-3.19096,-0.03011 -6.90085,-0.7618 -8.95892,-2.15642c-3.11944,-2.11384 -3.62932,-5.2925 -3.62932,-5.2925z" fill="#ff8d00" stroke="#c46c00" stroke-width="1.2"/></g><g stroke-width="1.2"><path d="M227.59524,209.2291c0,0 3.10735,30.5943 2.49466,30.68331c-1.75824,0.25541 -12.29362,-2.53702 -12.29362,-2.53702l-0.20638,-30.70363" data-paper-data="{&quot;index&quot;:null}" fill="#ffab19" fill-rule="evenodd" stroke="#001026" stroke-linecap="round" stroke-linejoin="round"/><path d="M229.02557,208.76431c0,0 0.58012,6.46808 1.07844,9.90126c0.47798,3.29294 1.85303,10.2947 1.85303,10.2947c0,0 2.06814,5.10822 1.38415,6.34495c-0.31679,0.57281 -2.3373,-2.45761 -2.3373,-2.45761c0,0 2.15547,3.47116 2.26743,3.81518c0.7812,2.40028 0.23861,5.52215 -2.88891,5.7596c-3.43382,0.26069 -9.1638,0.51953 -12.56557,-1.433c-3.07969,-1.76765 -4.01167,-5.66201 -3.99085,-7.25337c0.01461,-1.11752 1.68935,-1.68754 1.75842,-3.06043c0.04593,-0.91288 -2.00152,3.201 -1.73229,1.98801c0.30799,-1.38767 1.45609,-7.59357 1.45609,-7.59357l1.33434,-19.52935" data-paper-data="{&quot;index&quot;:null}" fill="#ff8d00" fill-rule="evenodd" stroke="#c46c00" stroke-linecap="round" stroke-linejoin="round"/><path d="M232.08088,238.04698c0.28185,1.71992 -0.00518,3.70639 -1.33741,4.71516c-1.33719,1.0125 -10.80779,0.41895 -12.53176,-0.88304c-1.6372,-1.23646 -2.67851,-3.48362 -2.95359,-5.16224c-0.56473,-3.4462 2.74335,-5.94217 7.38885,-5.57486c4.64545,0.3673 8.86919,3.45878 9.4339,6.905z" fill="#784200" fill-rule="nonzero" stroke="#4d2a00" stroke-linecap="butt" stroke-linejoin="miter"/></g><path d="M227.34532,194.64972l6.14304,-6.09754c0,0 4.88545,2.83853 7.60738,3.48505c2.59994,0.61754 8.37503,0.31109 8.37503,0.31109l3.68111,3.51739c0,0 -8.15511,2.61573 -12.3623,2.41749c-4.38744,-0.20674 -13.44428,-3.63349 -13.44428,-3.63349z" fill="#000000" fill-rule="nonzero" stroke="#000000" stroke-width="0.5" stroke-linecap="butt" stroke-linejoin="miter"/><path d="M216.98641,204.66858l1.52272,-16.80929l13.97805,0.80143l5.52987,14.966c0,0 -2.97195,1.91287 -6.31085,2.07828c-3.64452,0.18055 -14.71979,-1.03643 -14.71979,-1.03643z" fill="#000000" fill-rule="nonzero" stroke="#000000" stroke-width="0.5" stroke-linecap="butt" stroke-linejoin="miter"/><path d="M208.08968,208.52144l-6.07339,-5.65119l14.72576,-15.04059l5.51238,5.09019z" fill="#000000" fill-rule="nonzero" stroke="#000000" stroke-width="0.5" stroke-linecap="butt" stroke-linejoin="miter"/><path d="M203.99841,210.84137c-1.38155,-1.2544 -1.5658,-4.59649 -2.57097,-6.65963c-1.08219,-2.22128 -2.85991,-3.04504 -2.67919,-4.67687c0.12624,-1.13982 1.45123,-2.0156 2.19638,-2.37864c1.81194,-0.88279 4.7709,1.46005 6.60901,5.23286c1.83812,3.7728 1.85934,7.54692 0.0474,8.42969c-0.82108,0.40003 -2.45778,1.09206 -3.60262,0.0526z" fill="#000000" fill-rule="nonzero" stroke="#000000" stroke-width="1.2" stroke-linecap="butt" stroke-linejoin="miter"/><path d="M208.11715,211.23775c-1.91041,-1.76654 -3.61532,-7.52073 -3.61532,-7.52073c0,0 -2.65126,-2.89855 -2.68781,-2.97704c-2.33006,-5.00147 0.78098,-6.58509 4.34888,-8.32336c1.69807,-0.82731 4.64467,-1.41095 6.32921,-0.3105c1.91046,1.24803 2.59268,3.96084 3.94222,6.73085c2.53948,5.21244 2.54879,10.69002 -1.07509,12.45557c-1.59521,0.77719 -4.6905,2.3046 -7.24208,-0.05481z" fill="#000000" fill-rule="nonzero" stroke="#000000" stroke-width="1.2" stroke-linecap="butt" stroke-linejoin="miter"/><path d="M255.56593,163.70034c-0.60842,13.43725 -12.48536,23.81485 -26.5279,23.17902c-14.04253,-0.63583 -24.93303,-12.04431 -24.3246,-25.48156c0.60842,-13.43725 12.48536,-23.81485 26.5279,-23.17902c14.04253,0.63583 24.93303,12.04431 24.3246,25.48156z" fill="none" fill-rule="nonzero" stroke="#000000" stroke-width="4.5" stroke-linecap="butt" stroke-linejoin="miter"/><path d="M219.19834,140.71403c0,0 -9.41554,4.9038 -13.21722,13.15853c-2.62477,5.69928 -0.39223,15.01557 0.56409,17.17863c3.22278,7.28945 8.69371,12.24282 6.22397,10.02767c-2.74529,-2.4623 -3.34111,-6.43194 -5.49475,-7.24635c-1.26118,-0.47692 -6.15305,1.54927 -11.77413,-5.88793c-1.87938,-2.48659 -4.18241,-14.70111 2.36351,-21.67933c1.62181,-1.72893 14.42187,-9.5207 18.90089,-10.7305c11.55737,-3.1217 18.32141,0.99558 18.32141,0.99558" fill="url(#color-1)" fill-rule="nonzero" stroke="#000000" stroke-width="3" stroke-linecap="round" stroke-linejoin="miter"/><path d="M253.13707,175.49799c-1.04938,0 -6.64576,-5.59746 -9.30326,-11.90768c-2.06029,-4.89215 -1.57451,-10.65821 -0.78413,-11.74791c0.55746,-0.76857 3.65562,-4.91483 5.93732,-3.13584c2.68619,2.09436 5.40161,7.45411 5.40161,7.45411c0,0 5.13143,-8.137 7.65341,-7.31873c1.22305,0.39683 2.34213,7.24945 0.29648,13.29895c-2.37567,7.02544 -8.14345,13.35709 -9.20143,13.35709z" fill="url(#color-2)" fill-rule="nonzero" stroke="#cb0000" stroke-width="4.5" stroke-linecap="butt" stroke-linejoin="miter"/><path d="M228.11173,175.75145c-1.07662,0 -6.81826,-5.74276 -9.54473,-12.21677c-2.11376,-5.01913 -1.61538,-10.93484 -0.80449,-12.05282c0.57193,-0.78852 3.75051,-5.04241 6.09144,-3.21724c2.75591,2.14872 5.54181,7.64758 5.54181,7.64758c0,0 5.26462,-8.34819 7.85206,-7.50868c1.25479,0.40713 2.40292,7.43762 0.30417,13.64415c-2.43733,7.2078 -8.35483,13.70378 -9.44025,13.70378z" fill="url(#color-3)" fill-rule="nonzero" stroke="#cb0000" stroke-width="4.5" stroke-linecap="butt" stroke-linejoin="miter"/><path d="M213.3573,181.83338c0,0.63772 -0.22529,8.41259 -5.56091,11.23346c-3.5035,1.85226 -12.81081,-0.45121 -13.06223,-1.22173c-2.27128,-6.96055 1.27626,-19.81464 6.04147,-19.81464c3.60076,0 4.40428,0.1347 6.86003,2.36156c1.70182,1.5432 5.72164,4.49234 5.72164,7.44134z" fill="url(#color-4)" fill-rule="nonzero" stroke="#000000" stroke-width="3" stroke-linecap="butt" stroke-linejoin="miter"/><path d="M234.6148,178.91039c-0.24057,0.01848 -3.49734,2.25811 -6.92936,3.07056c-3.16538,0.74931 -8.82171,2.57979 -10.05639,2.43338c-1.17688,-0.13957 -4.23295,-1.72714 -6.0747,-3.23235c-2.60735,-2.1309 -1.59644,-6.91411 -1.71892,-7.47289c-0.34504,-1.57423 28.06391,4.94892 24.77938,5.2013z" fill="#ff0000" fill-rule="nonzero" stroke="#000000" stroke-width="2" stroke-linecap="butt" stroke-linejoin="miter"/><g fill-rule="nonzero" stroke-linecap="butt" stroke-linejoin="miter"><g data-paper-data="{&quot;index&quot;:null}" stroke="none" stroke-width="1"><path d="M242.79501,188.6287c-0.14954,0.15031 -0.29536,0.12349 -0.46084,0.0616c-0.25326,-0.11856 -0.47774,-0.2858 -0.72137,-0.42067c-0.0727,0.0204 -0.1454,0.04079 -0.20344,0.07061c-1.26831,0.57256 -2.53103,0.52054 -3.80011,0.24003c-0.26744,-0.06039 -0.54452,-0.10458 -0.77854,-0.25562c-0.04387,-0.02835 -0.112,-0.04985 -0.16049,-0.03623c-0.26656,0.07479 -0.45673,-0.04791 -0.67114,-0.16385c-0.18514,-0.09702 -0.35109,-0.22655 -0.52662,-0.33983c-0.10238,-0.06608 -0.1856,-0.16463 -0.20115,-0.30928c-0.0155,-0.14462 -0.10374,-0.26887 -0.17733,-0.38363c-0.48955,-0.60757 -0.86801,-1.30049 -1.14498,-2.0625c-0.14852,-0.43238 -0.20975,-0.87569 -0.26133,-1.33524c-0.14979,-1.35303 0.07941,-2.66339 0.58566,-3.92962c0.23416,-0.56682 0.55105,-1.10271 0.92643,-1.60082c0.28394,-0.37762 0.65112,-0.65671 1.02329,-0.91014c1.18423,-0.80632 2.47853,-1.11531 3.83359,-1.04853c0.25739,0.00906 0.51522,0.08567 0.77307,0.16232c0.17508,0.04566 0.34517,0.06567 0.52898,-0.04005c0.15957,-0.09891 0.32963,-0.07894 0.49511,-0.01702c0.25326,0.11856 0.48731,0.26961 0.72137,0.42067c0.07316,0.04721 0.11247,0.11745 0.15176,0.1877c0.11837,0.27829 0.309,0.46861 0.53348,0.63587c0.48779,0.33719 0.85026,0.81789 1.22233,1.28235c0.13713,0.17826 0.26467,0.37269 0.35838,0.59019c0.31537,0.69706 0.59189,1.39152 0.69422,2.17546c0.21942,0.14159 0.44387,0.30889 0.67795,0.45989c0.08778,0.05665 0.19018,0.12272 0.19106,0.25791c0.01049,0.11893 0.10788,0.15938 0.19564,0.21598c0.57555,0.3938 1.16068,0.77142 1.73622,1.16523c1.29234,0.85641 2.59932,1.72217 3.87246,2.61104c1.24388,0.86999 2.51658,1.6912 3.77966,2.52873c0.20481,0.13215 0.37575,0.28736 0.58055,0.41949c0.99474,0.6419 1.9895,1.28382 2.97464,1.94195c0.17553,0.11327 0.37028,0.19408 0.47356,0.39535c0.03933,0.07026 0.12203,0.1012 0.19518,0.14841c0.73146,0.47197 1.46791,0.96965 2.19934,1.44164c0.02925,0.01888 0.07312,0.04722 0.10239,0.06608c0.24368,0.13479 0.29348,0.32399 0.26144,0.61741c-0.11487,0.98032 -0.49761,1.83263 -1.14825,2.55698c-0.16873,0.18277 -0.3667,0.34667 -0.58432,0.47547c-0.15958,0.09892 -0.315,0.08838 -0.47088,0.01024c-0.46767,-0.2345 -0.94493,-0.45273 -1.42723,-0.69665c-0.34105,-0.17521 -0.67751,-0.39231 -1.04735,-0.51879c-0.80779,-0.27448 -1.51501,-0.75327 -2.29399,-1.07643c-0.43338,-0.1899 -0.87137,-0.33791 -1.29516,-0.54407c-0.45302,-0.22503 -0.91065,-0.40817 -1.35865,-0.60748c-0.81328,-0.36777 -1.62198,-0.77745 -2.44487,-1.12895c-1.09532,-0.4376 -2.15232,-0.94017 -3.20924,-1.44271c-0.36529,-0.16842 -0.73051,-0.33675 -1.09579,-0.50518c-0.56507,-0.27486 -1.1447,-0.55919 -1.70972,-0.83407c-0.31179,-0.15631 -0.62814,-0.27073 -0.93992,-0.42701c-0.33605,-0.14954 -0.61394,-0.32886 -0.955,-0.50408zM242.83026,188.09059c0.20301,-0.13822 0.37677,-0.29531 0.51624,-0.49695c0.38133,-0.33726 0.66985,-0.7568 0.95837,-1.17637c0.37038,-0.52381 0.69184,-1.10157 1.00369,-1.66314c0.35987,-0.64274 0.54466,-1.33117 0.72444,-2.0453c0.00914,-0.08384 0.0183,-0.16765 0.03203,-0.2934c-0.11701,-0.07553 -0.23407,-0.151 -0.35108,-0.22653c-0.02925,-0.01888 -0.06812,-0.02153 -0.1216,-0.0336c-0.06723,0.11366 -0.11981,0.23677 -0.15778,0.36933c-0.07134,0.22319 -0.16236,0.41123 -0.23371,0.63439c-0.20031,0.54379 -0.54187,1.01891 -0.78606,1.53437c-0.13899,0.26927 -0.2488,0.55736 -0.41705,0.80775c-0.37998,0.54004 -0.68681,1.12725 -1.12529,1.62949c-0.11569,0.12727 -0.24093,0.27078 -0.35666,0.39805c-0.1262,0.0083 -0.17374,0.15712 -0.25103,0.21943c-0.1015,0.0691 -0.20302,0.13824 -0.29398,0.32628c0.25739,0.00906 0.41877,0.18048 0.6327,0.22882c0.06266,-0.07175 0.18881,-0.08007 0.22678,-0.21263zM243.71172,187.76204c-0.35254,0.28851 -0.42476,0.37651 -0.52035,0.6065c0.18514,0.09702 0.35569,0.18462 0.54082,0.28168c0.10238,0.06608 0.21395,0.04836 0.31548,-0.02078c0.0677,-0.0461 0.11567,-0.12727 0.18334,-0.17335c0.24647,-0.17748 0.45358,-0.42525 0.59259,-0.69449c0.14034,-0.06651 0.21719,-0.19635 0.29402,-0.32629c0.44674,-0.72127 0.89852,-1.41693 1.27214,-2.18541c0.16281,-0.34366 0.311,-0.69676 0.4349,-1.04304c0.08553,-0.28137 0.18067,-0.57892 0.12034,-0.88706c-0.19019,-0.12272 -0.38035,-0.24539 -0.57054,-0.36814c-0.04757,0.14876 -0.08555,0.28136 -0.1139,0.39762c-0.15187,0.53018 -0.33295,1.0415 -0.57259,1.51507c-0.30182,0.61289 -0.67678,1.17861 -1.03709,1.75376c-0.16326,0.27608 -0.40465,0.47926 -0.55327,0.76474c-0.18881,0.08007 -0.29948,0.23301 -0.38591,0.37914zM261.18412,196.25485c0.22221,-0.17069 0.37128,-0.38858 0.49108,-0.62535c0.02422,-0.00679 0.05808,-0.02985 0.06768,-0.0461c0.21585,-0.39916 0.40242,-0.81721 0.48203,-1.25941c0.05172,-0.25834 0.11802,-0.50717 0.05312,-0.77337c-0.81921,-0.52864 -1.63841,-1.05721 -2.5015,-1.61422c-0.06957,0.49354 -0.22687,0.93053 -0.39883,1.35795c-0.14315,0.37879 -0.37909,0.67522 -0.55148,1.03511c-0.07681,0.12991 -0.15865,0.23416 -0.23547,0.36408c-0.18837,0.14764 -0.35709,0.33043 -0.51576,0.56455c0.43888,0.2832 0.9253,0.41759 1.35411,0.64943c0.45304,0.22504 0.9157,0.43384 1.3541,0.64942c0.18881,-0.08007 0.29493,-0.19108 0.40098,-0.30213zM258.00371,194.76346c0.14034,-0.06652 0.23182,-0.18695 0.30861,-0.31685c0.13536,-0.09214 0.20717,-0.24775 0.3082,-0.38443c0.2835,-0.44527 0.49388,-0.93769 0.66537,-1.43275c0.09512,-0.29755 0.16098,-0.61404 0.14913,-0.93576c-0.05851,-0.03778 -0.10742,-0.09175 -0.16596,-0.12949c-0.71682,-0.46259 -1.41895,-0.91566 -2.12617,-1.39443c-0.75108,-0.50709 -1.48755,-1.00475 -2.23863,-1.51187c-1.1022,-0.73365 -2.18009,-1.47413 -3.2823,-2.20777c-1.22422,-0.83486 -2.46265,-1.61155 -3.66765,-2.47889c-0.19519,-0.1484 -0.42424,-0.27372 -0.64367,-0.41535c-0.0471,0.21637 -0.05535,0.43537 -0.13174,0.63288c-0.20443,0.6533 -0.50626,1.26621 -0.83731,1.86024c-0.30728,0.51961 -0.6292,1.0298 -0.95114,1.54001c-0.1541,0.19224 -0.28395,0.37763 -0.43805,0.56987c-0.16459,0.07325 -0.22177,0.23829 -0.32784,0.34933c-0.11569,0.12727 -0.25101,0.21941 -0.33241,0.39124c0.12708,0.12688 0.26333,0.16993 0.3753,0.21975c0.96875,0.37832 1.87526,0.89599 2.81517,1.32303c0.60393,0.27751 1.20781,0.55506 1.82133,0.81629c0.81328,0.36777 1.62152,0.70983 2.42018,1.06814c0.65739,0.28957 1.31479,0.57919 1.96256,0.88503c0.70128,0.31795 1.3783,0.64266 2.07,0.97681c0.63315,0.29639 1.28096,0.60221 1.93834,0.89181c0.10103,-0.13669 0.24644,-0.17751 0.30863,-0.31684zM241.60862,176.69062c-0.0796,0.44217 -0.22276,0.82099 -0.35125,1.20917c-0.13812,0.40446 -0.25198,0.8021 -0.40474,1.19709c-0.14316,0.37878 -0.32518,0.75493 -0.48297,1.12423c-0.16739,0.38559 -0.33474,0.77114 -0.52633,1.16349c-0.1724,0.35987 -0.36906,0.72657 -0.54147,1.08646c-0.19663,0.36667 -0.45177,0.69562 -0.58989,1.10008c-0.2894,0.28435 -0.44217,0.67936 -0.65844,1.01096c-0.24052,0.33834 -0.46139,0.71187 -0.7019,1.05023c-0.23091,0.32211 -0.48609,0.65104 -0.73161,0.96373c-0.25518,0.32893 -0.55923,0.60384 -0.77045,0.96107c0.33188,0.25904 0.43426,0.32511 0.77441,0.36512c0.18837,-0.14764 0.37677,-0.29532 0.55506,-0.49433c0.20714,-0.24774 0.41427,-0.49545 0.64565,-0.75c0.42891,-0.48602 0.83355,-0.96528 1.16966,-1.53362c0.23048,-0.38974 0.4463,-0.78891 0.73531,-1.14087c0.06266,-0.07175 0.12025,-0.1692 0.1486,-0.28547c0.07133,-0.22318 0.21083,-0.42483 0.32602,-0.6197c0.42254,-0.71449 0.75729,-1.48562 1.06779,-2.24998c0.43034,-1.00114 0.73906,-2.03584 1.00385,-3.09888c0.06172,-0.20693 0.12349,-0.41387 0.06862,-0.6287c-0.20022,-0.17409 -0.42928,-0.29945 -0.73598,-0.43009zM235.98835,182.12764c0.11336,0.2526 0.26512,0.44029 0.40728,0.64419c0.11289,0.18504 0.27884,0.31454 0.4928,0.36287c0.39407,0.11968 0.77399,0.29751 1.11546,0.54033c0.02925,0.01888 0.08273,0.03099 0.09735,0.04041c0.09187,-0.05288 0.13027,-0.11783 0.13444,-0.22735c-0.00501,-0.02567 -0.02468,-0.0608 -0.03932,-0.07025c-0.39543,-0.32248 -0.77162,-0.67741 -1.12864,-1.06484c-0.04889,-0.05401 -0.12708,-0.12687 -0.20482,-0.13215c-0.27247,-0.08609 -0.54492,-0.17216 -0.87459,-0.09321zM237.62107,184.52735c-0.36617,-0.30357 -0.69848,-0.63021 -1.00657,-0.96365c-0.09783,-0.10796 -0.20982,-0.15783 -0.35567,-0.18462c-0.22353,-0.03206 -0.43707,-0.0128 -0.66521,-0.00299c-0.07772,-0.00528 -0.17004,-0.02002 -0.19842,0.09631c0.20067,0.24168 0.37715,0.49015 0.59699,0.69934c0.77766,0.12041 0.77763,0.12041 1.4894,0.55727c0.0727,-0.02038 0.12573,-0.07593 0.13947,-0.20166zM241.43155,181.46725c0.22491,0.23488 0.45944,0.45352 0.69394,0.67216c0.0489,0.05401 0.09783,0.10799 0.16592,0.1295c0.30125,0.03738 0.59296,0.09095 0.89837,0.01882c-0.0603,-0.30813 -0.25093,-0.49843 -0.39813,-0.72804c-0.07357,-0.11478 -0.17097,-0.15518 -0.30218,-0.17254c-0.31087,-0.02113 -0.60258,-0.07475 -0.89921,-0.15404c-0.01463,-0.00945 -0.04846,0.01356 -0.0969,0.02719c-0.01418,0.05815 -0.03798,0.1326 -0.06174,0.20695zM237.86493,178.8517c0.10922,0.36214 0.27104,0.60118 0.42325,0.85643c0.06857,0.08913 0.1513,0.12006 0.23405,0.15102c0.40871,0.12911 0.78861,0.30701 1.14473,0.55921c0.04388,0.02833 0.09735,0.04042 0.14124,0.06871c0.12027,-0.16918 0.12484,-0.2111 0.00781,-0.28661c-0.38038,-0.24544 -0.69805,-0.56264 -0.93848,-0.94212c-0.14718,-0.22959 -0.33233,-0.32664 -0.57053,-0.36817c-0.14083,-0.00114 -0.25741,-0.00907 -0.44209,-0.03851zM238.76881,182.62067c0.04799,-0.0812 -0.00095,-0.13519 -0.05945,-0.17297c-0.40958,-0.26432 -0.72775,-0.64908 -1.04591,-1.03389c-0.26421,-0.30509 -0.63908,-0.45726 -1.10495,-0.42136c0.06444,0.19861 0.20113,0.30927 0.28477,0.47541c0.18192,0.34174 0.45986,0.52108 0.79085,0.64495c0.36023,0.14271 0.7301,0.26923 1.03273,0.50934c0.05348,0.01205 0.07774,0.0053 0.10197,-0.00152zM237.20743,179.99775c0.11792,0.21071 0.18692,0.36744 0.26556,0.50789c0.12298,0.23638 0.28891,0.3659 0.5321,0.43311c0.33556,0.08193 0.64735,0.23823 0.94951,0.41076c0.11202,0.04986 0.22903,0.12537 0.33142,0.19144c0.06266,-0.07175 0.02838,-0.11629 -0.00089,-0.13518c-0.37625,-0.35493 -0.74283,-0.72611 -1.0564,-1.15285c-0.06354,-0.06343 -0.11246,-0.11741 -0.19519,-0.14838c-0.25282,-0.05097 -0.49602,-0.11818 -0.82609,-0.10683zM241.89024,180.34984c0.31637,0.1144 0.55086,0.33303 0.79498,0.53544c0.07315,0.04719 0.10285,0.13368 0.19519,0.14839c0.14587,0.0268 0.49514,-0.01702 0.73244,-0.11068c-0.07907,-0.20809 -0.2354,-0.35381 -0.35791,-0.52264c-0.10287,-0.13368 -0.22948,-0.19296 -0.39452,-0.18728c-0.2816,-0.00227 -0.54404,-0.03698 -0.80692,-0.13931c-0.01463,-0.00946 -0.06309,0.00418 -0.0873,0.01096c-0.05305,0.05553 -0.09148,0.12046 -0.07591,0.2651zM239.57162,186.52635c0.26241,0.03471 0.50151,0.21146 0.77811,0.18802c0.05259,-0.1231 0.00827,-0.21904 -0.01184,-0.32175c-0.04983,-0.1892 -0.06075,-0.37571 -0.17366,-0.56074c-0.32092,-0.07251 -0.59431,-0.29375 -0.92026,-0.39191c-0.09187,0.05288 -0.13992,0.13404 -0.15866,0.23414c0.19109,0.25791 0.34833,0.53886 0.48635,0.85228zM240.42052,183.48455c0.12708,0.12688 0.25415,0.25374 0.30853,0.40101c0.13343,0.35532 0.39177,0.49956 0.71726,0.53012c0.11656,0.00794 0.20434,0.06459 0.34975,0.0238c-0.05028,-0.25681 -0.14395,-0.47431 -0.2377,-0.69178c-0.02468,-0.0608 -0.0832,-0.09854 -0.16593,-0.1295c-0.25786,-0.07663 -0.49145,-0.16007 -0.74927,-0.23673c-0.04387,-0.02835 -0.12162,-0.0336 -0.22267,0.10313zM239.81556,184.50758c0.28342,0.27263 0.51835,0.55886 0.62759,0.92099c0.01508,0.07702 0.0832,0.09855 0.14171,0.13629c0.14127,0.06871 0.29215,0.12121 0.48139,0.10873c-0.07036,-0.35951 -0.18877,-0.63783 -0.32177,-0.92555c-0.04433,-0.0959 -0.10785,-0.15936 -0.20525,-0.19975c-0.1801,-0.07141 -0.35066,-0.15895 -0.53077,-0.23031c-0.01463,-0.00946 -0.06311,0.00415 -0.08732,0.01095c-0.02882,0.04871 -0.05763,0.09744 -0.1056,0.17861zM239.31159,178.0801c-0.18469,-0.02943 -0.38402,-0.06835 -0.56874,-0.0978c-0.02421,0.00679 -0.04848,0.01359 -0.09691,0.02719c0.026,0.26359 0.14396,0.47431 0.26644,0.6431c0.52072,0.17896 1.01215,0.33904 1.50953,0.66001c-0.09962,-0.37838 -0.4009,-0.41571 -0.56225,-0.58715c-0.20525,-0.19976 -0.37667,-0.42252 -0.54808,-0.6453zM235.50279,182.12847c-0.27157,0.0491 -0.52395,0.06577 -0.76077,0.22701c0.06396,0.13103 0.08911,0.25942 0.14811,0.36477c0.05898,0.10534 0.10832,0.22692 0.21075,0.29299c0.16045,0.03621 0.31546,-0.0208 0.46587,-0.03592c0.1504,-0.01514 0.29626,0.0117 0.4462,-0.071c-0.16687,-0.2647 -0.32863,-0.50373 -0.51011,-0.77789zM237.03576,185.58548c-0.40044,-0.34813 -0.73739,-0.63282 -1.07426,-0.91754c-0.02925,-0.01888 -0.06353,-0.06347 -0.11199,-0.04985c-0.22813,0.00984 -0.46632,-0.03169 -0.69355,0.11332c0.16638,0.19711 0.31816,0.3848 0.47955,0.55623c0.46131,0.00602 0.89421,0.12832 1.40029,0.29785zM242.44448,183.37719c-0.01598,-0.21224 -0.14306,-0.3391 -0.22166,-0.47958c-0.08363,-0.16616 -0.19609,-0.28359 -0.39541,-0.32245c-0.26743,-0.0604 -0.53489,-0.12081 -0.74976,-0.30433c-0.09649,0.09481 -0.12026,0.16918 -0.03249,0.22583c0.20982,0.15781 0.43427,0.32512 0.56683,0.54525c0.20113,0.30927 0.49741,0.321 0.83252,0.33528zM241.17199,184.77707c0.12385,0.37157 0.20841,0.67291 0.30253,0.958c0.10238,0.06608 0.18973,0.05514 0.26742,0.06039c0.08732,-0.01095 0.19426,0.01319 0.29075,-0.08157c-0.01138,-0.25418 -0.06166,-0.5109 -0.13611,-0.7609c-0.21896,-0.07399 -0.43292,-0.12232 -0.7246,-0.17594zM243.3964,182.69024c-0.30585,0.00454 -0.57285,0.01176 -0.85444,0.00948c0.12296,0.23639 0.23131,0.46336 0.33962,0.69029c0.25739,0.00906 0.48095,0.04115 0.7278,-0.06878c-0.04522,-0.23109 -0.13392,-0.42292 -0.21298,-0.63099zM235.4956,181.04691c-0.02748,0.25149 0.13391,0.42293 0.22256,0.61477c0.02468,0.0608 0.1074,0.09176 0.17052,0.08759c0.20392,-0.00302 0.38358,0.00075 0.57285,-0.01169c0.01463,0.00945 0.03384,-0.02307 0.05306,-0.05553c-0.13756,-0.24585 -0.29942,-0.48481 -0.43698,-0.73067c-0.19428,-0.01321 -0.38814,0.04118 -0.58199,0.09558zM237.41833,178.85504c-0.19932,-0.03886 -0.38401,-0.06834 -0.59205,0.04418c0.05486,0.21488 0.09047,0.46222 0.218,0.6567c0.1312,0.01737 0.24322,0.0672 0.36938,0.05888c0.11655,0.00795 0.22399,0.09971 0.3543,-0.01814c-0.11335,-0.25262 -0.22671,-0.50522 -0.34966,-0.74166zM243.59209,182.18846c0.17006,0.02 0.32964,-0.07895 0.50382,-0.16844c-0.09869,-0.2432 -0.13438,-0.49053 -0.30072,-0.68765c-0.19387,0.05439 -0.40276,0.03175 -0.62544,0.13486c0.13756,0.24585 0.28475,0.47544 0.42234,0.72124zM242.25158,179.19203c0.25371,0.18616 0.56048,0.31677 0.79498,0.53545c0.20023,0.17407 0.38447,0.13587 0.61673,0.01656c-0.09369,-0.21748 -0.23541,-0.35381 -0.38215,-0.51579c-0.35887,0.06008 -0.68487,-0.03807 -1.02956,-0.03617zM236.29321,186.36266c0.0238,-0.0744 -0.02011,-0.10269 -0.06396,-0.13104c-0.18055,-0.13895 -0.38537,-0.27111 -0.55634,-0.42631c-0.23954,-0.24429 -0.48185,-0.17631 -0.76762,-0.06904c0.08322,0.09858 0.13714,0.17821 0.20067,0.24165c0.14676,0.16197 0.29804,0.28206 0.5454,0.23977c0.1504,-0.01514 0.30128,0.03739 0.43753,0.08038c0.0489,0.05401 0.10284,0.13367 0.20433,0.06458zM239.48101,187.49986c-0.01049,-0.11893 -0.0402,-0.20544 -0.05528,-0.28245c-0.02099,-0.23789 -0.12385,-0.37159 -0.3186,-0.45238c-0.16547,-0.06194 -0.3168,-0.18202 -0.47269,-0.26016c-0.04388,-0.02835 -0.07818,-0.07288 -0.16004,0.03135c0.15677,0.21338 0.2944,0.45919 0.39813,0.72806c0.02468,0.0608 0.0978,0.10796 0.15631,0.14575c0.13621,0.04304 0.25786,0.07666 0.45213,0.08984zM242.60761,183.81904c-0.18469,-0.02945 -0.3744,-0.08456 -0.57332,-0.05582c0.06491,0.26622 0.09092,0.52979 0.21386,0.76618c0.20391,-0.00304 0.37898,0.04265 0.57241,-0.07933c-0.05485,-0.21489 -0.08542,-0.43655 -0.21298,-0.63099zM237.07564,180.63073c-0.06492,-0.26621 -0.18284,-0.47692 -0.31997,-0.65512c-0.2039,0.00303 -0.38356,-0.00071 -0.60166,0.06047c0.01095,0.18657 0.07998,0.34327 0.17323,0.49317c0.24777,0.02528 0.48597,0.0668 0.74839,0.10155zM242.42589,185.69847c0.16004,-0.03135 0.26196,-0.03286 0.36848,-0.07632c0.0727,-0.0204 0.13075,-0.05022 0.18883,-0.08009c0.02289,-0.20957 0.00691,-0.42181 -0.08175,-0.61365c-0.19428,-0.01321 -0.38857,-0.02639 -0.58703,0.06993c0.04522,0.23109 0.06121,0.44333 0.11147,0.7001zM237.92524,187.19143c0.06993,0.29191 0.11011,0.49731 0.16997,0.73786c0.04889,0.05401 0.16088,0.10384 0.27749,0.11176c0.10696,0.02415 0.19016,0.12271 0.32093,0.07248c0.04253,-0.17448 0.02701,-0.3191 -0.02737,-0.46638c-0.24367,-0.13479 -0.46309,-0.27643 -0.74102,-0.45576zM234.60352,181.97438c0.12118,-0.03402 0.24235,-0.068 0.36348,-0.10196c0.12119,-0.03403 0.22768,-0.07746 0.34884,-0.11144c-0.09367,-0.21749 -0.14349,-0.4067 -0.28518,-0.54301c-0.11656,-0.00792 -0.20345,0.07063 -0.29535,0.12347c-0.09187,0.05288 -0.22768,0.07746 -0.28027,0.20053c0.0448,0.16354 0.06031,0.30812 0.14854,0.43238zM243.69481,183.75776c-0.22311,0.03553 -0.44669,0.00341 -0.67896,0.12281c0.04984,0.18918 0.10923,0.36213 0.15903,0.55133c0.22311,-0.03552 0.41239,-0.04796 0.60075,-0.19565c-0.00593,-0.16086 0.01742,-0.30288 -0.08085,-0.47846zM235.46325,184.2118c-0.20568,-0.26736 -0.39172,-0.49958 -0.57775,-0.73177c-0.1262,0.0083 -0.24278,0.00036 -0.33924,0.09517c0.0553,0.28248 0.21205,0.4958 0.35925,0.72538c0.1262,-0.00831 0.25237,-0.01662 0.37352,-0.0506c0.06813,0.02155 0.10193,-0.00151 0.18422,-0.03813zM241.22486,186.15727c-0.21855,-0.00637 -0.3941,-0.11969 -0.58795,-0.06529c0.04067,0.27301 0.0763,0.52035 0.17503,0.76359c0.16965,-0.04761 0.31589,0.04682 0.49971,-0.05894c0.02287,-0.20955 -0.05117,-0.392 -0.08677,-0.63934zM237.57245,177.94504c0.02056,0.17031 0.06536,0.33381 0.14398,0.4743c0.23317,0.01582 0.4567,0.04793 0.71912,0.08264c-0.10328,-0.20123 -0.1627,-0.37422 -0.23215,-0.59853c-0.23318,-0.01585 -0.4421,-0.0385 -0.63094,0.04158zM239.85086,187.62634c0.22859,0.05778 0.41831,0.11288 0.63137,0.02603c0.00366,-0.17711 0.0124,-0.32852 -0.06622,-0.46902c-0.21394,-0.04833 -0.41827,-0.11286 -0.6711,-0.16384c0.01598,0.21224 0.04157,0.40822 0.106,0.60684zM236.63142,179.53639c-0.10832,-0.22693 -0.09049,-0.46223 -0.2322,-0.59855c-0.2039,0.00303 -0.3685,0.07631 -0.52808,0.17526c0.02559,0.19599 0.03652,0.38254 0.16861,0.53509c0.18424,-0.03814 0.35888,-0.06009 0.5916,-0.11182zM244.21523,182.43343c-0.16963,0.0476 -0.32002,0.06271 -0.46497,0.17111c0.09369,0.21748 0.09045,0.46222 0.24222,0.6499c0.16004,-0.03135 0.27617,-0.09103 0.37722,-0.22774c-0.0402,-0.20542 -0.10463,-0.40404 -0.15448,-0.59322zM234.75821,184.7888c-0.17466,0.02191 -0.28113,0.06535 -0.39231,0.15068c0.04983,0.1892 0.13846,0.38103 0.31402,0.49427c0.1454,-0.0408 0.29074,-0.08157 0.45079,-0.11293c-0.08408,-0.23376 -0.25002,-0.36325 -0.37253,-0.53204zM244.00261,178.93085c-0.13074,0.05021 -0.2373,0.09368 -0.30953,0.18165c0.08865,0.1918 0.19657,0.35117 0.33827,0.48748c0.13577,-0.02452 0.24231,-0.06798 0.33879,-0.16277c-0.07907,-0.20809 -0.24502,-0.33758 -0.36752,-0.50636zM243.35583,185.35624c0.23315,0.01585 0.32461,-0.10461 0.39641,-0.2602c0.06723,-0.11365 0.10518,-0.24623 0.01696,-0.37047c-0.17466,0.02191 -0.33466,0.05325 -0.49423,0.1522c0.02056,0.17031 0.05071,0.32438 0.08086,0.47845zM239.7775,177.32636c-0.16046,-0.03624 -0.27747,-0.11175 -0.41783,-0.04529c0.05664,0.48524 0.38259,0.58344 0.7858,0.61925c-0.12751,-0.19448 -0.24044,-0.37954 -0.36796,-0.57397zM242.12636,186.64933c0.02794,-0.18391 0.01238,-0.32853 -0.06166,-0.51092c-0.14034,0.06651 -0.29627,-0.01165 -0.43159,0.08049c-0.04302,0.10689 -0.00369,0.1771 0.00177,0.27037c0.0201,0.10268 0.00135,0.20279 0.10374,0.26887c0.1262,-0.00831 0.2524,-0.01664 0.38772,-0.10879zM238.93115,182.20946c0.19339,-0.12197 0.22177,-0.23829 0.09971,-0.33946c-0.18054,-0.13896 -0.38035,-0.24546 -0.56549,-0.34247c-0.05848,-0.03777 -0.14127,-0.06869 -0.22813,0.00984c0.21531,0.2511 0.44979,0.46972 0.69391,0.67213zM244.79182,181.52672c0.10697,0.02417 0.18928,-0.01247 0.26155,-0.10046c-0.03563,-0.24736 -0.03741,-0.51775 -0.1846,-0.74734c-0.203,0.13823 -0.26022,0.30327 -0.18113,0.51132c0.02011,0.1027 0.00637,0.2285 0.10419,0.33648zM240.07162,179.93909c0.13443,-0.22731 0.13394,-0.29495 0.00234,-0.37989c-0.21441,-0.11591 -0.44342,-0.24128 -0.69625,-0.29223c0.1865,0.29983 0.36797,0.57397 0.69392,0.67213zM242.97996,178.4729c0.10739,0.09176 0.20986,0.15782 0.3026,0.24014c0.19518,0.14843 0.1952,0.14839 0.44122,-0.09669c-0.08322,-0.09858 -0.17143,-0.22281 -0.22034,-0.27677c-0.19387,0.05437 -0.35386,0.08575 -0.52348,0.13334zM235.07292,179.54018c0.01551,0.14464 -0.04163,0.30967 0.11928,0.41351c0.13075,-0.05022 0.2565,-0.12614 0.41148,-0.18317c-0.02055,-0.17032 -0.01684,-0.34741 -0.10509,-0.47164c-0.14035,0.06653 -0.28578,0.10727 -0.42569,0.24133zM243.54984,180.20928c0.14218,0.20388 0.2747,0.42406 0.41688,0.62795c0.09233,0.01469 0.17965,0.00378 0.20801,-0.11252c-0.04522,-0.23109 -0.13892,-0.44864 -0.3003,-0.62005c-0.1262,0.0083 -0.22309,0.03552 -0.32461,0.10466zM238.06997,177.54809c0.05259,-0.1231 0.04211,-0.24208 -0.00727,-0.36365c-0.07773,-0.00529 -0.15543,-0.01056 -0.23316,-0.01583c-0.10193,0.00149 -0.19431,-0.01318 -0.28116,0.06537c-0.05763,0.09742 -0.07639,0.19747 -0.04163,0.30965c0.1797,0.00376 0.38359,0.00071 0.56323,0.00451zM235.88565,180.55824c-0.02055,-0.17032 -0.08455,-0.30136 -0.17276,-0.42559c-0.16459,0.07325 -0.31956,0.1303 -0.45991,0.19676c-0.03292,0.15825 0.01644,0.27983 0.0946,0.35272c0.18424,-0.03813 0.36849,-0.07631 0.53814,-0.12386zM238.90751,177.19124c-0.11656,-0.00792 -0.23314,-0.01585 -0.35935,-0.00755c-0.0242,0.00679 -0.04344,0.0393 -0.07729,0.06235c0.00546,0.09328 -0.0229,0.20956 0.06535,0.33381c0.14587,0.02678 0.31134,0.08868 0.49559,0.05055c0.00366,-0.17709 -0.04572,-0.29867 -0.12433,-0.43915zM240.67457,177.1423c-0.15131,-0.12008 -0.07496,-0.31759 -0.22123,-0.41197c-0.15541,-0.01055 -0.29667,-0.07932 -0.49053,-0.0249c0.00593,0.16086 0.02147,0.30553 0.18193,0.34173c0.16046,0.03624 0.28249,0.13741 0.52984,0.09514zM244.7344,180.1884c-0.06398,-0.13102 -0.11839,-0.2783 -0.16773,-0.39988c-0.00501,-0.02568 -0.04389,-0.02833 -0.07315,-0.04719c-0.07727,0.06232 -0.19844,0.09628 -0.24094,0.27078c0.06903,0.15668 0.15265,0.32288 0.22672,0.50526c0.12572,-0.0759 0.19797,-0.16392 0.25517,-0.32893zM234.83689,180.55451c-0.1454,0.04078 -0.30541,0.07214 -0.42655,0.10614c-0.04254,0.17447 -0.02704,0.31911 -0.00188,0.44749c0.11203,0.04984 0.19384,-0.05439 0.27616,-0.09104c0.08231,-0.03666 0.17921,-0.06383 0.23181,-0.18695c0.00914,-0.08384 0.00367,-0.17712 -0.07952,-0.27569zM240.84657,187.68556c0.1504,-0.01514 0.26199,-0.03287 0.37352,-0.05062c0.03886,0.00266 0.08232,-0.03663 0.10655,-0.04344c0.06723,-0.11365 0.05674,-0.23262 0.00735,-0.35421c-0.16504,0.00568 -0.3205,-0.00487 -0.4901,0.04264c-0.01371,0.12574 -0.00323,0.24471 0.0027,0.40557zM243.22457,178.02509c-0.15176,-0.1877 -0.30352,-0.37533 -0.53712,-0.4588c-0.04253,0.17446 -0.10475,0.31385 -0.03574,0.47053c0.29668,0.07932 0.2967,0.0793 0.57284,-0.01173zM242.49437,186.50549c0.44123,-0.0967 0.45078,-0.11292 0.47733,-0.49966c-0.16004,0.03135 -0.31498,0.08839 -0.47502,0.1197c-0.05259,0.1231 -0.04209,0.24204 -0.00236,0.37989zM237.14549,177.98353c-0.16503,0.00567 -0.30084,0.03025 -0.4362,0.12239c-0.00457,0.04192 -0.00414,0.10952 -0.00369,0.17712c0.01006,0.05137 0.03473,0.11218 0.04477,0.16349c0.16504,-0.0057 0.33513,0.0143 0.4851,-0.06839c0.01372,-0.12573 -0.026,-0.26359 -0.09003,-0.3946zM239.58287,188.21622c-0.00046,-0.06758 -0.00595,-0.16087 -0.04021,-0.20544c-0.13211,-0.15258 -0.29756,-0.21444 -0.52575,-0.20462c0.00088,0.1352 -0.04667,0.28396 0.0123,0.38934c0.18469,0.02945 0.35521,0.11703 0.55364,0.02072zM234.17816,183.71909c-0.02421,0.00678 -0.04846,0.01359 -0.09691,0.02719c-0.00779,0.28664 0.05708,0.55285 0.12199,0.81905c0.1312,0.01736 0.21349,-0.01928 0.30494,-0.13972c-0.10832,-0.22693 -0.20705,-0.47008 -0.33,-0.70652zM238.93912,180.48714c0.16182,0.23902 0.29941,0.48481 0.55769,0.62906c0.01463,0.00946 0.08228,-0.03666 0.10148,-0.06911c0.04799,-0.0812 0.0279,-0.1839 -0.04527,-0.23106c-0.16135,-0.17144 -0.37076,-0.26168 -0.61392,-0.32888zM236.31656,178.18903c-0.13579,0.02453 -0.27159,0.0491 -0.39732,0.12501c-0.06723,0.11366 -0.08598,0.21373 -0.03161,0.36099c0.155,-0.05704 0.32463,-0.10461 0.46497,-0.17108c0.02835,-0.11627 0.02287,-0.20956 -0.03608,-0.31493zM244.18805,184.1882c0.14906,-0.21791 0.27895,-0.4033 0.29179,-0.66424c-0.16045,-0.03622 -0.28619,0.03965 -0.40691,0.14124c0.01096,0.18655 0.01686,0.34741 0.11516,0.52302zM237.72855,188.27597c-0.00134,-0.2028 -0.00634,-0.22844 -0.05025,-0.2568c-0.13666,-0.11064 -0.31636,-0.11441 -0.48138,-0.10872c-0.06306,0.00415 -0.12572,0.07594 -0.06676,0.18129c0.18928,-0.01246 0.34105,0.17523 0.59844,0.18422zM234.66466,183.13567c-0.09869,-0.2432 -0.17322,-0.49319 -0.41232,-0.66987c-0.03203,0.29339 0.0763,0.52038 0.15537,0.72841c0.08274,0.03098 0.14078,0.00111 0.25692,-0.05857zM241.6979,187.20295c-0.00412,0.10951 -0.02287,0.20958 -0.027,0.31909c0.1797,0.00377 0.33971,-0.02759 0.40144,-0.23453c0.01419,-0.05815 0.02834,-0.11628 -0.02056,-0.1703c-0.10696,-0.02416 -0.21352,0.01928 -0.35386,0.08575zM240.56875,178.75669c0.08641,-0.14616 0.09559,-0.22996 -0.03104,-0.28923c-0.11202,-0.04986 -0.22403,-0.09968 -0.34564,-0.13327c-0.05347,-0.01205 -0.11659,-0.00794 -0.14037,0.06646c0.14674,0.16198 0.30765,0.26581 0.51703,0.35605zM236.62714,184.73853c0.15177,0.1877 0.32276,0.34287 0.54172,0.41687c0.01465,0.00946 0.08228,-0.03666 0.09187,-0.05288c0.01919,-0.03244 -0.00546,-0.09328 -0.03474,-0.11215c-0.19977,-0.10649 -0.35613,-0.25225 -0.59892,-0.25186zM236.66361,185.83887c-0.17509,-0.04568 -0.33603,-0.14953 -0.55454,-0.15597c0.14216,0.20389 0.28387,0.34022 0.40045,0.34813c0.10696,0.02416 0.1454,-0.04078 0.15408,-0.1922zM244.94395,182.49981c0.07134,-0.22319 0.20579,-0.45055 0.09745,-0.67748c-0.28985,0.21678 -0.18153,0.4437 -0.09745,0.67748zM242.14711,181.0092c0.01919,-0.03245 0.0142,-0.05822 0.0334,-0.09065c-0.15588,-0.07814 -0.24914,-0.22805 -0.42881,-0.23181c-0.07226,0.08798 -0.08643,0.14615 -0.04209,0.24206c0.1312,0.01736 0.27703,0.04417 0.43753,0.0804zM237.90517,182.71397c0.176,0.18087 0.31772,0.31718 0.50285,0.41423c0.02925,0.01888 0.07771,0.0053 0.10652,-0.04343c0.00961,-0.01627 0.01418,-0.05815 0.00914,-0.08384c-0.15176,-0.1877 -0.32729,-0.30094 -0.61852,-0.28695zM239.92165,188.05344c-0.02835,0.1163 -0.02792,0.18388 0.03519,0.17974c0.1312,0.01736 0.27202,0.01847 0.41284,0.01961c0.08731,-0.01094 0.11612,-0.05964 0.08641,-0.14613c-0.18972,-0.05515 -0.3502,-0.09137 -0.53443,-0.05321zM235.50045,178.8514c-0.00546,-0.09328 0.00367,-0.17712 -0.00179,-0.27039c-0.005,-0.02568 -0.03429,-0.04455 -0.06856,-0.08913c-0.11524,0.19482 -0.26472,0.34514 -0.33107,0.59402c0.155,-0.05704 0.26152,-0.10047 0.40143,-0.23453zM239.46982,185.09218c0.15588,0.07816 0.29717,0.14689 0.48232,0.24393c-0.05029,-0.2568 -0.1531,-0.39047 -0.30899,-0.46861c-0.09188,0.05288 -0.13534,0.09214 -0.17333,0.22471zM242.11934,179.75736c0.14083,0.00114 0.28249,0.13743 0.47591,0.01546c-0.32229,-0.27525 -0.3954,-0.32244 -0.47271,-0.26013c-0.04799,0.0812 -0.04757,0.1488 -0.00323,0.24471zM237.35829,183.7072c0.10417,0.33646 0.27974,0.4497 0.53758,0.52638c-0.04112,-0.34062 -0.32272,-0.34283 -0.53758,-0.52638zM240.35127,177.44972c0.09916,0.31078 0.2601,0.41464 0.45485,0.49543c0.01463,0.00945 0.04846,-0.01361 0.06766,-0.04607c0.02882,-0.04871 0.01875,-0.10008 -0.0105,-0.11893c-0.13665,-0.11065 -0.29254,-0.18878 -0.51198,-0.33039zM242.3609,178.83624c0.16046,0.03624 0.31637,0.1144 0.51474,0.01811c-0.11749,-0.14312 -0.25875,-0.21182 -0.38536,-0.27111c-0.1015,0.0691 -0.12527,0.14348 -0.1294,0.25302zM239.65187,176.68433c-0.19889,0.02872 -0.3598,-0.07513 -0.51434,0.0495c0.176,0.18087 0.17599,0.18086 0.48641,0.13441c0.00457,-0.04192 0.00915,-0.08384 0.02792,-0.18391zM244.36661,181.83556c0.09054,-0.25565 0.02612,-0.45428 -0.06256,-0.64612c-0.11656,-0.00792 -0.15501,0.05704 -0.13992,0.13404c0.06904,0.15668 0.12844,0.32968 0.20249,0.51204zM237.09933,177.61721c0.04301,-0.10689 0.07638,-0.1975 0.01741,-0.30283c-0.11154,0.01775 -0.22313,0.03549 -0.29533,0.12347c-0.0334,0.09062 -0.03292,0.15823 0.00639,0.22849c0.09234,0.01469 0.16504,-0.00568 0.27156,-0.04912zM241.10225,183.04948c-0.0882,-0.12423 -0.1568,-0.21338 -0.26377,-0.23753c-0.03886,-0.00266 -0.07269,0.02038 -0.10654,0.04343c-0.02882,0.04871 -0.03799,0.13256 0.01549,0.14463c0.08779,0.05665 0.19018,0.12273 0.3548,0.04944zM234.67191,179.84233c-0.13031,0.11784 -0.13398,0.29495 -0.18153,0.44373c0.30542,-0.07214 0.3246,-0.10464 0.18153,-0.44373zM236.11121,186.73876c-0.18103,-0.20655 -0.18102,-0.20655 -0.35523,-0.11705c0.06857,0.08913 0.15179,0.18768 0.35523,0.11705zM241.29298,181.80411c-0.08231,0.03666 -0.1111,0.08535 -0.09146,0.12045c0.06904,0.15668 0.1225,0.16879 0.3406,0.10759c-0.07356,-0.11479 -0.16137,-0.17147 -0.24914,-0.22809zM240.87161,176.84327c0.02516,0.1284 0.05989,0.24054 0.18144,0.27415c0.10973,-0.28814 0.09012,-0.32321 -0.18144,-0.27415zM235.39759,186.74937c0.0448,0.16354 0.15219,0.25528 0.24498,0.33757c0.05849,0.03777 0.13123,0.01737 0.13032,-0.11784c-0.0928,-0.08229 -0.20023,-0.17408 -0.3753,-0.21976zM238.50159,176.74972c0.12708,0.12688 0.22903,0.12537 0.33512,0.01433c0,0 0.00458,-0.04192 -0.01006,-0.05135c-0.07819,-0.07287 -0.19427,-0.01324 -0.32509,0.03699zM240.34181,184.06197c0.02835,-0.1163 -0.01096,-0.18657 -0.07906,-0.20806c-0.02925,-0.01888 -0.07773,-0.00528 -0.11156,0.01775c-0.03384,0.02306 -0.03339,0.0906 -0.00411,0.10948c0.03429,0.04457 0.09278,0.08232 0.19474,0.08083zM236.22706,177.86194c0.14082,0.00113 0.22312,-0.0355 0.24141,-0.20319c-0.16504,0.0057 -0.23272,0.05175 -0.24141,0.20319z" fill="#000000"/><path d="M245.37583,187.57956c0.32192,-0.51017 0.64387,-1.02039 0.95114,-1.54003c0.34572,-0.58461 0.63289,-1.20693 0.83732,-1.86023c0.06174,-0.20694 0.07504,-0.40026 0.13175,-0.63287c0.23408,0.15105 0.44845,0.26691 0.64364,0.41533c1.1904,0.8579 2.44341,1.64406 3.66764,2.4789c1.09256,0.74991 2.18012,1.4741 3.2823,2.20777c0.75109,0.50709 1.48755,1.00479 2.23862,1.5119c0.70721,0.47879 1.41897,0.91564 2.12618,1.39441c0.05851,0.03778 0.11703,0.07554 0.16594,0.12953c0.0265,0.33118 -0.04444,0.62194 -0.14913,0.93575c-0.17151,0.49509 -0.38188,0.98752 -0.66537,1.43274c-0.08641,0.14616 -0.1582,0.30173 -0.30818,0.38442c0.05716,-0.16504 0.19705,-0.29909 0.22957,-0.52491c-0.30124,-0.03739 -0.52114,-0.24655 -0.76483,-0.38135c-0.01463,-0.00945 -0.02924,-0.01888 -0.03885,-0.00266c-0.47177,-0.12498 -0.89602,-0.39875 -1.35366,-0.58186c-0.16547,-0.06192 -0.3598,-0.07512 -0.48687,-0.20197c-0.27336,-0.22129 -0.63774,-0.25447 -0.91114,-0.47576c-0.01463,-0.00945 -0.05348,-0.01207 -0.08275,-0.03098c-0.30673,-0.13061 -0.60846,-0.23563 -0.896,-0.39872c-0.32183,-0.20766 -0.69125,-0.26657 -0.99386,-0.5067c-0.24777,-0.02528 -0.41873,-0.1805 -0.63314,-0.29641c-0.02925,-0.01888 -0.04391,-0.02832 -0.07313,-0.0472c-0.36939,-0.05889 -0.63819,-0.32207 -0.96919,-0.44592c-0.33097,-0.12384 -0.61899,-0.35454 -0.94037,-0.49462c-0.36527,-0.16843 -0.7447,-0.27861 -1.06698,-0.55393c-0.02925,-0.01888 -0.07315,-0.04722 -0.11201,-0.04985c-0.21855,-0.00637 -0.36526,-0.16841 -0.55039,-0.26546c-0.08779,-0.05665 -0.18055,-0.13893 -0.28755,-0.1631c-0.17005,-0.02003 -0.27748,-0.11176 -0.40916,-0.19673c-0.07315,-0.04721 -0.1367,-0.11066 -0.2144,-0.1159c-0.24777,-0.02528 -0.43338,-0.18991 -0.62355,-0.31262c-0.07315,-0.04721 -0.13668,-0.11061 -0.2144,-0.11592c-0.2089,-0.02267 -0.36024,-0.14271 -0.52115,-0.24658c-0.26335,-0.16992 -0.59383,-0.22617 -0.84754,-0.41232c-0.03429,-0.04456 -0.10696,-0.02418 -0.16046,-0.03623z" fill="#87d7dc"/><path d="M245.37585,187.57957c0.05347,0.01209 0.12619,-0.00833 0.17008,0.02c0.25373,0.18614 0.57464,0.25864 0.84756,0.41231c0.16091,0.10385 0.31225,0.22393 0.52115,0.24658c0.07773,0.00529 0.14127,0.06873 0.2144,0.11588c0.19019,0.12269 0.38536,0.27113 0.62355,0.31267c0.07772,0.00528 0.13168,0.08496 0.21442,0.11589c0.13165,0.08495 0.2487,0.16048 0.40916,0.19673c0.10696,0.02416 0.19979,0.1065 0.28756,0.16313c0.18514,0.09702 0.3319,0.25902 0.55041,0.26543c0.03886,0.00266 0.08274,0.03097 0.112,0.04984c0.30766,0.26583 0.70175,0.38553 1.06701,0.55391c0.33604,0.14953 0.624,0.38023 0.94035,0.49467c0.33096,0.12382 0.59978,0.38702 0.96917,0.4459c0.02422,-0.00678 0.04389,0.02835 0.07316,0.04722c0.19019,0.12269 0.38537,0.2711 0.63317,0.29639c0.29303,0.25641 0.66243,0.31527 0.99384,0.50673c0.27794,0.17936 0.58926,0.26807 0.896,0.39874c0.02925,0.01888 0.05353,0.01206 0.08276,0.03095c0.27336,0.22129 0.63773,0.25447 0.91113,0.47576c0.15131,0.12007 0.33098,0.12386 0.48687,0.20199c0.44802,0.19935 0.88187,0.45688 1.35363,0.58185c0.01463,0.00945 0.03887,0.00263 0.03887,0.00263c0.24369,0.13479 0.46356,0.34402 0.76483,0.38136c-0.02288,0.20958 -0.17744,0.3342 -0.22959,0.5249c-0.0768,0.1299 -0.15366,0.25978 -0.30868,0.31683c-0.0878,-0.05665 -0.18054,-0.13894 -0.28753,-0.16308c-0.3744,-0.08455 -0.67202,-0.29908 -0.99845,-0.46483c-0.32639,-0.16574 -0.70081,-0.2503 -0.99383,-0.50669c-0.24777,-0.02528 -0.41878,-0.18047 -0.63317,-0.2964c-0.02925,-0.01888 -0.07315,-0.04719 -0.11201,-0.04984c-0.17969,-0.00377 -0.30673,-0.13065 -0.44803,-0.19939c-0.07315,-0.04721 -0.1463,-0.09437 -0.2144,-0.1159c-0.36986,-0.12648 -0.74471,-0.2786 -1.08119,-0.49574c-0.04388,-0.02835 -0.0928,-0.08235 -0.14126,-0.06871c-0.19427,-0.01321 -0.33097,-0.12382 -0.47727,-0.21822c-0.15131,-0.12007 -0.36485,-0.10079 -0.53075,-0.23033c-0.22446,-0.16728 -0.4919,-0.22767 -0.74516,-0.34623c-0.34106,-0.1752 -0.70584,-0.27601 -1.04229,-0.49314c-0.05851,-0.03778 -0.12206,-0.10121 -0.18516,-0.09703c-0.15544,-0.01059 -0.27748,-0.11173 -0.41872,-0.18047c-0.11702,-0.07552 -0.24364,-0.13478 -0.36527,-0.16843c-0.22859,-0.05778 -0.43796,-0.148 -0.64279,-0.28014c-0.31679,-0.182 -0.69124,-0.26656 -0.98424,-0.52293c-0.02925,-0.01888 -0.08273,-0.03099 -0.11201,-0.04986c-0.33604,-0.14953 -0.68162,-0.28277 -0.9984,-0.46481c-0.32183,-0.20766 -0.7205,-0.28544 -1.02311,-0.52561c-0.04388,-0.02835 -0.10697,-0.02415 -0.16045,-0.03623c-0.20937,-0.09024 -0.42379,-0.20616 -0.58514,-0.37759c0.0334,-0.09063 0.07176,-0.15559 0.09558,-0.22997c0.17834,-0.19904 0.32281,-0.37499 0.46229,-0.57666z" fill="#b0eef2"/><path d="M241.60864,176.69063c0.30671,0.13063 0.53577,0.25602 0.7168,0.46257c0.0402,0.20544 -0.02151,0.41237 -0.06862,0.62873c-0.27946,1.05358 -0.57356,2.09773 -1.00387,3.09886c-0.32516,0.7549 -0.65989,1.52607 -1.06777,2.24999c-0.11524,0.19484 -0.2547,0.39654 -0.32608,0.61972c-0.0334,0.09063 -0.09103,0.18806 -0.14861,0.28546c-0.28899,0.35198 -0.4902,0.76057 -0.73529,1.14088c-0.34111,0.5427 -0.74076,1.04762 -1.16965,1.53363c-0.22175,0.23828 -0.4289,0.48604 -0.64561,0.75001c-0.1637,0.20843 -0.36669,0.34667 -0.55508,0.49435c-0.33055,-0.05626 -0.44252,-0.10609 -0.77441,-0.36512c0.22585,-0.34779 0.51531,-0.63218 0.77045,-0.96108c0.24554,-0.31268 0.50068,-0.6416 0.73161,-0.96374c0.24052,-0.33834 0.47602,-0.70243 0.7019,-1.05021c0.23091,-0.32211 0.38362,-0.71714 0.65847,-1.01099c0.13813,-0.40446 0.39328,-0.73335 0.58991,-1.10007c0.18704,-0.35045 0.36902,-0.72658 0.54144,-1.08649c0.18201,-0.37613 0.34936,-0.76168 0.52638,-1.16349c0.15778,-0.36933 0.33978,-0.74545 0.48291,-1.12426c0.15274,-0.395 0.26664,-0.79264 0.40476,-1.19711c0.14772,-0.42069 0.29086,-0.79944 0.37047,-1.24166z" fill="#d1eaeb"/><path d="M244.93781,188.14948c-0.02379,0.07439 -0.06219,0.13936 -0.09556,0.22997c0.16138,0.17143 0.35152,0.29413 0.58514,0.37759c0.05348,0.01209 0.11658,0.00793 0.16045,0.03623c0.3026,0.24015 0.69172,0.33416 1.02312,0.5256c0.30721,0.19824 0.66241,0.31529 0.9984,0.46485c0.02925,0.01888 0.08275,0.03097 0.112,0.04984c0.29301,0.25642 0.66239,0.31529 0.98424,0.52296c0.19019,0.12269 0.41419,0.22239 0.64278,0.28012c0.13619,0.04304 0.26287,0.10231 0.36527,0.16841c0.13165,0.08495 0.23908,0.1767 0.41876,0.18048c0.06306,-0.00414 0.12664,0.0593 0.18515,0.09707c0.32183,0.20766 0.70127,0.31787 1.0423,0.4931c0.25325,0.11858 0.52071,0.17894 0.74515,0.34624c0.15131,0.12007 0.36481,0.1008 0.53075,0.23033c0.13668,0.11064 0.28799,0.23071 0.47727,0.21826c0.05348,0.01209 0.09737,0.04039 0.14126,0.06869c0.33644,0.21712 0.69666,0.35986 1.08117,0.49574c0.08274,0.03098 0.14629,0.09437 0.21437,0.1159c0.13165,0.08495 0.26836,0.19557 0.44802,0.19934c0.03886,0.00266 0.08275,0.03096 0.11199,0.04984c0.19019,0.12269 0.38537,0.27112 0.63317,0.2964c0.29302,0.25639 0.66744,0.34097 0.99383,0.50669c0.32639,0.16574 0.63862,0.38966 0.99839,0.46481c0.10697,0.02417 0.19977,0.1065 0.28755,0.16311c-0.07181,0.1556 -0.21717,0.19637 -0.29902,0.30062c-0.66241,-0.31526 -1.30518,-0.59544 -1.93832,-0.89184c-0.70127,-0.31793 -1.37832,-0.64264 -2.06999,-0.97676c-0.6478,-0.30585 -1.30519,-0.59542 -1.96257,-0.88503c-0.81328,-0.36777 -1.62153,-0.70983 -2.42019,-1.06814c-0.60392,-0.27752 -1.2078,-0.55507 -1.82131,-0.81631c-0.93992,-0.42702 -1.85607,-0.92847 -2.81517,-1.323c-0.12662,-0.05928 -0.27246,-0.08606 -0.3753,-0.21975c0.08641,-0.14616 0.21673,-0.26396 0.33242,-0.39126c0.07726,-0.06233 0.13442,-0.22734 0.2844,-0.31008z" fill="#87d7dc"/><path d="M258.85548,194.34838c0.17239,-0.35989 0.39371,-0.6658 0.55145,-1.03511c0.17197,-0.42749 0.32926,-0.86442 0.39884,-1.35795c0.84847,0.5475 1.6823,1.08555 2.5015,1.61418c0.0553,0.28246 -0.01105,0.53131 -0.05314,0.77338c-0.0892,0.45845 -0.28081,0.8508 -0.48203,1.25941c-0.00961,0.01627 -0.04342,0.03925 -0.06766,0.04609c-0.00134,-0.20278 -0.14717,-0.22957 -0.28343,-0.27262c-0.3406,-0.1076 -0.67157,-0.23142 -0.95453,-0.43648c-0.05851,-0.03778 -0.11703,-0.07551 -0.18515,-0.09701c-0.33558,-0.08193 -0.61852,-0.28695 -0.9253,-0.41759c-0.1801,-0.07141 -0.31633,-0.11434 -0.50059,-0.07623z" fill="#61afb4"/><path d="M242.84816,187.13757c0.42387,-0.5117 0.74533,-1.08947 1.12529,-1.62952c0.16827,-0.25036 0.29264,-0.5291 0.41705,-0.80779c0.25885,-0.50604 0.58577,-0.99053 0.78606,-1.53435c0.08599,-0.21374 0.17198,-0.42748 0.23372,-0.63442c0.03797,-0.13256 0.09053,-0.25565 0.15777,-0.36934c0.05347,0.01205 0.09234,0.01473 0.12162,0.03363c0.11701,0.07553 0.23406,0.151 0.35109,0.22652c-0.00411,0.10951 -0.01331,0.19334 -0.03204,0.29341c-0.17014,0.69783 -0.34991,1.41198 -0.72443,2.04531c-0.31186,0.56158 -0.6333,1.13931 -1.00369,1.66315c-0.28854,0.41959 -0.56244,0.84857 -0.95838,1.17638c0.01873,-0.10008 0.12025,-0.16919 0.07088,-0.29075c-0.14171,-0.13631 -0.30308,-0.30775 -0.54494,-0.17217z" fill="#61aeb3"/><path d="M244.05873,187.38032c0.134,-0.29495 0.37541,-0.4981 0.55328,-0.76471c0.36033,-0.57518 0.72068,-1.15029 1.0371,-1.75376c0.24922,-0.48978 0.43032,-1.00114 0.57258,-1.51508c0.03797,-0.13256 0.0759,-0.26508 0.11387,-0.39764c0.20481,0.13215 0.38038,0.2454 0.57054,0.36815c0.0603,0.30813 -0.01063,0.59893 -0.12034,0.88707c-0.12392,0.34631 -0.25748,0.7088 -0.43491,1.04301c-0.37364,0.76847 -0.82541,1.46412 -1.27215,2.18543c-0.07681,0.1299 -0.15365,0.25983 -0.29401,0.3263c-0.07315,-0.04721 -0.1367,-0.11061 -0.2144,-0.1159c-0.18469,-0.02945 -0.35067,-0.15896 -0.51155,-0.26278z" fill="#61aeb3"/><path d="M258.85547,194.3484c0.16004,-0.03135 0.30584,-0.00454 0.46174,0.07361c0.30673,0.13063 0.58973,0.3357 0.92528,0.41759c0.06813,0.02154 0.12667,0.05927 0.18517,0.09705c0.30723,0.19823 0.62354,0.31263 0.95452,0.43647c0.12162,0.03362 0.28208,0.06983 0.28342,0.27263c-0.12942,0.25302 -0.2931,0.46148 -0.49107,0.62538c-0.23364,-0.08344 -0.47684,-0.15066 -0.66242,-0.31527c-0.02925,-0.01888 -0.08274,-0.03097 -0.11201,-0.04984c-0.32137,-0.14007 -0.6574,-0.28959 -0.96918,-0.44591c-0.14126,-0.06871 -0.25828,-0.14426 -0.40915,-0.19674c-0.18971,-0.05515 -0.37489,-0.15217 -0.48778,-0.3372c0.0334,-0.09062 0.07179,-0.15558 0.09559,-0.22996c0.06723,-0.11365 0.15868,-0.23416 0.22586,-0.3478z" fill="#87d7dc"/><path d="M235.98834,182.12766c0.32004,-0.06273 0.60206,0.0071 0.87459,0.09321c0.06812,0.02152 0.15589,0.07818 0.20481,0.13216c0.34741,0.40365 0.73323,0.74239 1.12864,1.06484c0.01463,0.00945 0.03427,0.04454 0.03932,0.07024c0.00546,0.09328 -0.04252,0.17448 -0.13441,0.22734c-0.02925,-0.01888 -0.06815,-0.02149 -0.09739,-0.04038c-0.34144,-0.24281 -0.71177,-0.43689 -1.11544,-0.54034c-0.20435,-0.06457 -0.36529,-0.16841 -0.49281,-0.36287c-0.13253,-0.22015 -0.29392,-0.39156 -0.40729,-0.64422z" fill="#cce5e6"/><path d="M237.62107,184.52735c-0.01371,0.12574 -0.06676,0.18126 -0.13945,0.20166c-0.72137,-0.42065 -0.72138,-0.42062 -1.48941,-0.55728c-0.2295,-0.19296 -0.41095,-0.46708 -0.59697,-0.69933c0.03797,-0.13256 0.13532,-0.09213 0.19842,-0.09629c0.22813,-0.00984 0.44165,-0.0291 0.66521,0.00301c0.14587,0.0268 0.25784,0.07668 0.35564,0.18463c0.30812,0.33345 0.64043,0.66004 1.00657,0.96364z" fill="#cce5e6"/><path d="M258.62,194.71241c-0.02379,0.0744 -0.06221,0.13938 -0.09558,0.22996c0.11289,0.18503 0.29803,0.28205 0.48778,0.33719c0.15088,0.05247 0.2679,0.12799 0.40917,0.19675c0.31179,0.15632 0.64778,0.30583 0.96917,0.44591c0.02925,0.01888 0.08276,0.03097 0.112,0.04986c0.20983,0.15782 0.43839,0.21561 0.66239,0.31528c-0.10606,0.11103 -0.20258,0.20583 -0.36717,0.27909c-0.4384,-0.2156 -0.91069,-0.40816 -1.35413,-0.64942c-0.4384,-0.2156 -0.91521,-0.36625 -1.35409,-0.64943c0.16827,-0.25036 0.342,-0.40748 0.53036,-0.55516z" fill="#60adb2"/><path d="M241.43155,181.46725c0.02378,-0.07439 0.03798,-0.13257 0.06175,-0.20694c0.04846,-0.01361 0.07269,-0.02037 0.0969,-0.02718c0.28709,0.09551 0.58839,0.13288 0.89923,0.15402c0.13121,0.01737 0.22862,0.05778 0.30218,0.17256c0.15679,0.21336 0.34741,0.40363 0.39812,0.72803c-0.3054,0.07212 -0.60668,0.03479 -0.89835,-0.01884c-0.05347,-0.01205 -0.11702,-0.07555 -0.16593,-0.12951c-0.2345,-0.21858 -0.46905,-0.43728 -0.69394,-0.67215z" fill="#cce5e6"/><path d="M237.86496,178.85165c0.18468,0.02942 0.30128,0.03739 0.4325,0.05475c0.2382,0.04154 0.42332,0.13856 0.57053,0.36814c0.26463,0.37269 0.5728,0.70612 0.93849,0.94211c0.11702,0.07553 0.12203,0.10119 -0.0078,0.28664c-0.04388,-0.02833 -0.09739,-0.04037 -0.14128,-0.06873c-0.35611,-0.25223 -0.73599,-0.43007 -1.1447,-0.55919c-0.09737,-0.04042 -0.18012,-0.07137 -0.23409,-0.15102c-0.14263,-0.2715 -0.30441,-0.51055 -0.41361,-0.87269z" fill="#cae2e3"/><path d="M238.76883,182.62067c-0.02421,0.00678 -0.06313,0.00417 -0.07773,-0.00529c-0.31723,-0.24956 -0.67748,-0.3923 -1.03272,-0.50938c-0.33096,-0.12382 -0.60895,-0.3032 -0.79082,-0.64494c-0.08363,-0.16616 -0.23496,-0.28619 -0.28475,-0.47542c0.46084,-0.0616 0.85034,0.10003 1.10495,0.42137c0.31815,0.38479 0.61206,0.77635 1.04592,1.03388c0.03429,0.04456 0.09278,0.08234 0.03519,0.17976z" fill="#c9e1e2"/><path d="M237.20743,179.99775c0.33009,-0.01135 0.57328,0.05585 0.83112,0.1325c0.08274,0.03098 0.15588,0.07817 0.1952,0.14841c0.32319,0.41047 0.68018,0.79787 1.05638,1.15282c0.02925,0.01888 0.06354,0.06341 0.00089,0.13518c-0.10238,-0.06608 -0.21941,-0.14159 -0.33142,-0.19144c-0.30217,-0.17256 -0.61395,-0.32886 -0.94951,-0.41077c-0.24323,-0.06717 -0.42377,-0.20616 -0.53209,-0.43311c-0.08363,-0.16616 -0.15269,-0.32285 -0.27061,-0.53357z" fill="#c9e1e2"/><path d="M241.89024,180.34984c-0.01549,-0.14465 0.03251,-0.22584 0.08051,-0.30702c0.0242,-0.00679 0.06312,-0.00418 0.08731,-0.01094c0.25326,0.11856 0.53033,0.16272 0.80691,0.13927c0.16503,-0.00566 0.29167,0.05361 0.39452,0.1873c0.1225,0.16877 0.26926,0.33076 0.35794,0.5226c-0.23728,0.09366 -0.5962,0.15375 -0.73244,0.11069c-0.09234,-0.01469 -0.13167,-0.08494 -0.19519,-0.14841c-0.25827,-0.14425 -0.48322,-0.37911 -0.79952,-0.49351z" fill="#cae3e4"/><path d="M239.57164,186.52636c-0.13802,-0.3134 -0.30484,-0.57814 -0.49592,-0.83605c0.02835,-0.11627 0.06678,-0.18129 0.15867,-0.23416c0.31131,0.08871 0.59928,0.31946 0.92023,0.39193c0.11289,0.18504 0.12385,0.37157 0.17369,0.56075c0.0201,0.10268 0.06443,0.19858 0.01185,0.32171c-0.267,0.00719 -0.49144,-0.16009 -0.76849,-0.20425z" fill="#c8e0e1"/><path d="M240.42054,183.48456c0.10104,-0.1367 0.16916,-0.11518 0.23727,-0.09366c0.25787,0.07664 0.50104,0.14384 0.74929,0.23671c0.06813,0.02152 0.12664,0.05927 0.16597,0.12951c0.09367,0.21749 0.17776,0.45125 0.23766,0.69178c-0.13577,0.02453 -0.23317,-0.01585 -0.34975,-0.02378c-0.34972,-0.02379 -0.60801,-0.16799 -0.71726,-0.53012c-0.05942,-0.17298 -0.1865,-0.29985 -0.32319,-0.41046z" fill="#cbe4e5"/><path d="M239.81556,184.50758c0.04799,-0.0812 0.0768,-0.12991 0.1056,-0.17864c0.03886,0.00266 0.07271,-0.02036 0.08732,-0.01094c0.1801,0.07141 0.35066,0.15895 0.53077,0.23031c0.09739,0.04043 0.16091,0.10386 0.20524,0.19977c0.13302,0.28772 0.24177,0.5823 0.32175,0.92555c-0.19888,0.02873 -0.34013,-0.04001 -0.48138,-0.10872c-0.05848,-0.03777 -0.11702,-0.07555 -0.14171,-0.13628c-0.10923,-0.36214 -0.34418,-0.64838 -0.6276,-0.92101z" fill="#c8e0e1"/><path d="M244.05871,187.38031c0.16091,0.10385 0.32687,0.23338 0.53582,0.256c0.07772,0.00528 0.14122,0.06874 0.21438,0.11592c-0.14862,0.28548 -0.34614,0.51699 -0.5926,0.69447c-0.18559,-0.16464 -0.42879,-0.23183 -0.62354,-0.31262c-0.00593,-0.16086 0.10519,-0.24622 0.13352,-0.36251c0.07181,-0.1556 0.18247,-0.30854 0.33241,-0.39126z" fill="#85d5d9"/><path d="M239.31159,178.0801c0.17142,0.22279 0.34285,0.44556 0.53848,0.66157c0.176,0.18088 0.48687,0.202 0.56223,0.58719c-0.49736,-0.32092 -1.00346,-0.49048 -1.50953,-0.66c-0.11289,-0.18504 -0.23083,-0.39573 -0.26644,-0.64309c0.04846,-0.01361 0.0727,-0.02039 0.0969,-0.02719c0.19428,0.0132 0.37902,0.04263 0.57829,0.08151z" fill="#c6dede"/><path d="M235.50279,182.12847c0.18148,0.27417 0.34327,0.51314 0.52476,0.78731c-0.16459,0.07325 -0.31045,0.04647 -0.44621,0.07103c-0.1504,0.01514 -0.30543,0.07214 -0.46587,0.0359c-0.10238,-0.06608 -0.15177,-0.18767 -0.21073,-0.29299c-0.05897,-0.10533 -0.1083,-0.22696 -0.14809,-0.36479c0.22221,-0.17069 0.47458,-0.1873 0.74617,-0.23642z" fill="#cae3e3"/><path d="M237.03576,185.58548c-0.50609,-0.16951 -0.93904,-0.29183 -1.41493,-0.30727c-0.15177,-0.1877 -0.31311,-0.35911 -0.4795,-0.55622c0.24186,-0.13559 0.46543,-0.10352 0.69352,-0.11333c0.03886,0.00266 0.08275,0.03098 0.11199,0.04986c0.33689,0.2847 0.67383,0.56941 1.08889,0.92697z" fill="#cae3e4"/><path d="M242.44446,183.37717c-0.33008,0.01135 -0.62635,-0.00032 -0.83247,-0.33527c-0.14719,-0.2296 -0.35702,-0.38744 -0.56684,-0.54526c-0.08778,-0.05665 -0.05441,-0.14726 0.03248,-0.22584c0.21486,0.18348 0.48231,0.24392 0.74976,0.30432c0.19932,0.03887 0.31178,0.1563 0.39543,0.32246c0.07861,0.14047 0.19106,0.25794 0.22166,0.47961z" fill="#c8e0e1"/><path d="M242.84814,187.13756c0.2565,-0.12615 0.4032,0.03586 0.56916,0.16537c0.04935,0.12157 -0.0375,0.20014 -0.07086,0.29075c-0.13946,0.20165 -0.31323,0.35874 -0.51625,0.497c-0.15131,-0.12007 -0.35063,-0.15897 -0.4489,-0.33454c0.0334,-0.09063 0.06221,-0.13937 0.1006,-0.2043c0.12528,-0.14353 0.25053,-0.28703 0.36624,-0.41429z" fill="#85d4d9"/><path d="M241.17198,184.77706c0.27704,0.04417 0.50563,0.10192 0.74383,0.14344c0.07448,0.24999 0.12476,0.50675 0.13612,0.76092c-0.09649,0.09481 -0.20345,0.07062 -0.29075,0.08158c-0.08732,0.01095 -0.17463,0.02191 -0.26743,-0.06042c-0.09869,-0.2432 -0.19788,-0.55394 -0.32175,-0.92554z" fill="#c7dfe0"/><path d="M243.3964,182.69024c0.07907,0.20809 0.16771,0.39989 0.20337,0.64724c-0.24689,0.10992 -0.47043,0.07783 -0.72782,0.06878c-0.10832,-0.22695 -0.21667,-0.45389 -0.33962,-0.6903c0.30083,-0.03022 0.55828,-0.02116 0.86408,-0.02571z" fill="#c8e0e1"/><path d="M235.49559,181.0469c0.19387,-0.05437 0.3877,-0.10875 0.59664,-0.08612c0.14719,0.2296 0.28476,0.47541 0.43696,0.73067c-0.01919,0.03244 -0.03841,0.06493 -0.05304,0.05549c-0.18928,0.01247 -0.39316,0.0155 -0.57283,0.01175c-0.07773,-0.00529 -0.14587,-0.02678 -0.17053,-0.08757c-0.11792,-0.21071 -0.26466,-0.37271 -0.23722,-0.62423z" fill="#c4dcdd"/><path d="M237.41833,178.85504c0.11335,0.25262 0.23629,0.48901 0.34965,0.74166c-0.1207,0.10156 -0.23772,0.02605 -0.35431,0.01812c-0.11656,-0.00792 -0.2382,-0.04152 -0.36939,-0.05888c-0.12751,-0.19447 -0.14846,-0.43237 -0.21797,-0.65671c0.208,-0.11253 0.39273,-0.08309 0.59204,-0.04418z" fill="#c8e0e1"/><path d="M243.59209,182.18846c-0.13756,-0.24585 -0.27014,-0.46601 -0.42233,-0.72126c0.21304,-0.08688 0.422,-0.0642 0.62546,-0.13485c0.16637,0.19713 0.20202,0.44447 0.30071,0.68764c-0.1838,0.10575 -0.33376,0.18846 -0.50381,0.16843z" fill="#c6ddde"/><path d="M242.25156,179.19203c0.34473,-0.00191 0.67068,0.09622 1.01494,0.02674c0.14675,0.16198 0.28845,0.29833 0.38214,0.51583c-0.21762,0.12876 -0.41653,0.15751 -0.61673,-0.01656c-0.23449,-0.21861 -0.51702,-0.35606 -0.78036,-0.52599z" fill="#b9cfd0"/><path d="M236.29321,186.36266c-0.1015,0.0691 -0.14587,-0.02678 -0.21394,-0.04831c-0.15087,-0.05249 -0.29209,-0.12117 -0.43753,-0.0804c-0.23774,0.02606 -0.38905,-0.09396 -0.54539,-0.23976c-0.06354,-0.06347 -0.1175,-0.14311 -0.20068,-0.24167c0.28575,-0.10729 0.52808,-0.17524 0.7676,0.06904c0.16138,0.17142 0.37577,0.28736 0.55633,0.42631c0.04387,0.02835 0.08778,0.05665 0.0736,0.1148z" fill="#c0d8d8"/><path d="M239.48102,187.49982c-0.17969,-0.00377 -0.31589,-0.04681 -0.43292,-0.1223c-0.05848,-0.03777 -0.13169,-0.08493 -0.15635,-0.14573c-0.10374,-0.26888 -0.25093,-0.49845 -0.39811,-0.72805c0.06724,-0.11364 0.11612,-0.05966 0.16004,-0.03135c0.1463,0.0944 0.30722,0.19823 0.47271,0.26014c0.20937,0.09025 0.31223,0.22392 0.31861,0.45239c-0.00412,0.10951 0.01096,0.18655 0.03608,0.31491z" fill="#c1d9d9"/><path d="M242.60761,183.81904c0.10328,0.20123 0.14348,0.40671 0.21295,0.631c-0.19339,0.12199 -0.38309,0.06682 -0.5724,0.07933c-0.12296,-0.23639 -0.14899,-0.49994 -0.21386,-0.76619c0.21352,-0.01926 0.38862,0.02642 0.57332,0.05584z" fill="#c3dbdc"/><path d="M237.07566,180.63074c-0.26244,-0.0347 -0.50063,-0.07627 -0.74841,-0.10155c-0.09329,-0.14991 -0.17185,-0.29039 -0.17323,-0.49317c0.20347,-0.07063 0.39774,-0.05741 0.60168,-0.06048c0.15176,0.1877 0.25505,0.3889 0.31994,0.65514z" fill="#c3dadb"/><path d="M242.42589,185.69847c-0.03563,-0.24736 -0.06623,-0.46901 -0.09683,-0.69065c0.19842,-0.09631 0.39272,-0.0831 0.587,-0.0699c0.06445,0.19862 0.09004,0.39459 0.08175,0.61359c-0.05808,0.02982 -0.14038,0.06646 -0.18881,0.08007c-0.13578,0.02455 -0.23772,0.02607 -0.38314,0.06685z" fill="#c4dbdc"/><path d="M237.92527,187.1914c0.27796,0.17938 0.4974,0.32099 0.73146,0.47196c0.0544,0.14729 0.0699,0.29192 0.02736,0.46634c-0.13075,0.05021 -0.21395,-0.04833 -0.32093,-0.07251c-0.10696,-0.02415 -0.20435,-0.06457 -0.27751,-0.11174c-0.05029,-0.25682 -0.09049,-0.46224 -0.16038,-0.75412z" fill="#c2d9da"/><path d="M234.60354,181.97438c-0.07861,-0.14047 -0.11841,-0.27828 -0.11928,-0.41348c0.0622,-0.13933 0.18842,-0.14765 0.28027,-0.20052c0.09185,-0.05288 0.16413,-0.14086 0.29533,-0.12349c0.12709,0.12687 0.19152,0.3255 0.28526,0.54302c-0.12118,0.03402 -0.24235,0.06801 -0.34887,0.11142c-0.13577,0.02453 -0.27155,0.04912 -0.39273,0.08311z" fill="#c5ddde"/><path d="M243.69481,183.75776c0.09829,0.17561 0.06535,0.33384 0.09551,0.48789c-0.17879,0.13141 -0.37766,0.16013 -0.60077,0.19568c-0.04982,-0.18918 -0.09961,-0.37839 -0.15903,-0.55136c0.21763,-0.12876 0.44121,-0.0967 0.66429,-0.13221z" fill="#c3dbdc"/><path d="M235.46325,184.2118c-0.08231,0.03666 -0.13073,0.05026 -0.17919,0.06387c-0.11154,0.01775 -0.23775,0.02607 -0.37353,0.05062c-0.13756,-0.24585 -0.30398,-0.44293 -0.35926,-0.72541c0.09649,-0.09481 0.19843,-0.09633 0.33925,-0.09519c0.18102,0.20655 0.38168,0.44823 0.57278,0.70611z" fill="#c7dfe0"/><path d="M241.22484,186.15735c0.021,0.23789 0.10965,0.42971 0.07717,0.65553c-0.17422,0.08949 -0.3447,0.00192 -0.49969,0.05895c-0.10374,-0.26889 -0.12478,-0.50676 -0.17502,-0.76355c0.22771,-0.07744 0.38859,0.02641 0.59754,0.04903z" fill="#c7dee0"/><path d="M243.71171,187.76204c-0.02835,0.1163 -0.13949,0.20164 -0.13353,0.36252c0.20937,0.09025 0.44297,0.17369 0.62354,0.31263c-0.05305,0.05553 -0.11569,0.12727 -0.18333,0.17336c-0.1015,0.0691 -0.21305,0.08684 -0.31548,0.02078c-0.18513,-0.09702 -0.35565,-0.1846 -0.54081,-0.28168c0.12483,-0.21111 0.19709,-0.2991 0.54961,-0.58763z" fill="#61acb1"/><path d="M238.20339,177.90343c0.07907,0.20809 0.13846,0.38098 0.20794,0.60532c-0.24778,-0.02528 -0.48093,-0.04112 -0.71913,-0.08263c-0.06903,-0.15668 -0.12339,-0.30399 -0.14396,-0.47429c0.2277,-0.07743 0.42197,-0.06422 0.65513,-0.04838z" fill="#c2dada"/><path d="M239.85086,187.62634c-0.07907,-0.20809 -0.09002,-0.39462 -0.1206,-0.61631c0.24323,0.06718 0.45718,0.11553 0.67115,0.16387c0.09328,0.1499 0.06992,0.29191 0.06623,0.469c-0.18881,0.08007 -0.37859,0.02496 -0.61673,-0.01656z" fill="#c1d9d9"/><path d="M236.6314,179.53638c-0.23272,0.05174 -0.40735,0.07365 -0.59162,0.11179c-0.11748,-0.14311 -0.14306,-0.3391 -0.16862,-0.5351c0.15956,-0.09892 0.32415,-0.1722 0.52807,-0.17524c0.14674,0.16198 0.12384,0.37161 0.2322,0.59854z" fill="#c6dedf"/><path d="M244.21523,182.43343c0.06445,0.19861 0.10464,0.40406 0.15446,0.59324c-0.10104,0.1367 -0.21717,0.19638 -0.37722,0.22774c-0.15176,-0.1877 -0.14847,-0.43237 -0.24221,-0.64989c0.14494,-0.10842 0.29534,-0.12348 0.46496,-0.1711z" fill="#c0d7d7"/><path d="M234.75822,184.78876c0.1225,0.16878 0.28843,0.29832 0.34833,0.53885c-0.16004,0.03135 -0.30544,0.07213 -0.4508,0.11293c-0.17551,-0.11328 -0.27379,-0.28887 -0.31399,-0.49428c0.12071,-0.10157 0.24184,-0.13556 0.41647,-0.15751z" fill="#c3dadb"/><path d="M242.49149,187.53563c-0.03842,0.06496 -0.06219,0.13937 -0.10059,0.20434c0.0983,0.17562 0.29756,0.21449 0.4489,0.33454c-0.05259,0.1231 -0.17879,0.13142 -0.26062,0.23565c-0.22858,-0.05777 -0.37534,-0.21973 -0.63271,-0.22878c0.08141,-0.17181 0.18287,-0.24092 0.29402,-0.32631c0.07726,-0.06234 0.11526,-0.19486 0.25101,-0.2194z" fill="#5aa0a4"/><path d="M244.00261,178.93085c0.12249,0.16877 0.28846,0.29835 0.34329,0.51319c-0.09649,0.09481 -0.19343,0.12199 -0.33879,0.16281c-0.14172,-0.13632 -0.26422,-0.3051 -0.33828,-0.48749c0.09649,-0.09481 0.17878,-0.13143 0.33376,-0.18845z" fill="#bdd3d4"/><path d="M243.35582,185.35624c-0.02055,-0.17032 -0.05068,-0.32439 -0.08086,-0.47843c0.15958,-0.09893 0.3196,-0.1303 0.49423,-0.15222c0.0882,0.12423 0.05028,0.25682 -0.01694,0.37046c-0.0864,0.14616 -0.17282,0.29228 -0.39641,0.26021z" fill="#bdd4d5"/><path d="M239.77754,177.32631c0.12751,0.19447 0.24044,0.37951 0.36796,0.57395c-0.40321,-0.03583 -0.72916,-0.13403 -0.7858,-0.61926c0.13075,-0.05021 0.25739,0.00907 0.41783,0.0453z" fill="#bbd2d3"/><path d="M242.12634,186.64932c-0.13533,0.09213 -0.26154,0.10046 -0.38772,0.10874c-0.10238,-0.06608 -0.08364,-0.16617 -0.10372,-0.26889c-0.01507,-0.07702 -0.04478,-0.16348 -0.00177,-0.27036c0.13533,-0.09213 0.28161,0.00223 0.43158,-0.08048c0.07406,0.18239 0.07999,0.34324 0.0617,0.5109z" fill="#c3dadb"/><path d="M238.93115,182.20946c-0.24409,-0.20243 -0.48821,-0.40478 -0.69391,-0.67214c0.07225,-0.08797 0.15502,-0.05705 0.22813,-0.00982c0.19977,0.10649 0.38992,0.22916 0.56547,0.34245c0.13165,0.08495 0.10332,0.20129 -0.09969,0.33948z" fill="#b1c6c7"/><path d="M244.79182,181.52672c-0.09783,-0.10796 -0.0841,-0.23374 -0.11883,-0.34588c-0.07907,-0.20809 -0.00727,-0.36366 0.18114,-0.51135c0.14718,0.22959 0.16359,0.50943 0.18461,0.74731c-0.08185,0.10423 -0.13993,0.13408 -0.24689,0.10992z" fill="#bbd2d3"/><path d="M240.07162,179.93909c-0.31637,-0.1144 -0.4978,-0.38852 -0.70353,-0.65588c0.26244,0.03471 0.48184,0.17634 0.69625,0.29223c0.14127,0.06871 0.14174,0.13633 0.00727,0.36364z" fill="#bad1d2"/><path d="M242.97998,178.47291c0.18425,-0.03814 0.33925,-0.09517 0.52347,-0.13333c0.06355,0.06345 0.13714,0.17824 0.22033,0.27679c-0.246,0.2451 -0.26063,0.23566 -0.44121,0.0967c-0.10238,-0.06609 -0.1952,-0.14842 -0.30262,-0.24016z" fill="#b5cbcc"/><path d="M235.07292,179.54018c0.13992,-0.13404 0.27067,-0.18433 0.40142,-0.23453c0.10287,0.13368 0.08452,0.30135 0.10511,0.47164c-0.14034,0.06651 -0.2711,0.11667 -0.41147,0.18315c-0.12205,-0.10118 -0.06492,-0.2662 -0.09506,-0.42031z" fill="#c0d7d8"/><path d="M243.54984,180.20928c0.08688,-0.07852 0.19842,-0.09633 0.32462,-0.10466c0.16135,0.17144 0.25508,0.38893 0.30029,0.62005c-0.05259,0.1231 -0.11568,0.12726 -0.208,0.11253c-0.14218,-0.20388 -0.28434,-0.40782 -0.41688,-0.62797z" fill="#bdd4d4"/><path d="M238.06996,177.54806c-0.18928,0.01247 -0.38355,-0.00073 -0.57284,0.01174c-0.03472,-0.11216 -0.01598,-0.21224 0.04161,-0.30966c0.08687,-0.07852 0.1792,-0.06384 0.28114,-0.06535c0.07773,0.00529 0.15542,0.01056 0.23316,0.01584c0.05899,0.10537 0.07908,0.20808 0.01687,0.34744z" fill="#b6cccc"/><path d="M235.88565,180.55824c-0.18425,0.03813 -0.34426,0.0695 -0.53814,0.1239c-0.07817,-0.07286 -0.13716,-0.17824 -0.09461,-0.35272c0.14035,-0.06652 0.29533,-0.1235 0.45992,-0.19677c0.07861,0.14047 0.15223,0.25527 0.17277,0.42559z" fill="#c1d9d9"/><path d="M238.9075,177.19123c0.07861,0.14047 0.12801,0.26207 0.13389,0.42293c-0.18425,0.03814 -0.34976,-0.02381 -0.49558,-0.05059c-0.09783,-0.10796 -0.06946,-0.22429 -0.06534,-0.3338c0.04343,-0.03927 0.06265,-0.07174 0.07725,-0.06234c0.11656,0.00796 0.23315,0.01585 0.34976,0.02381z" fill="#b7cdce"/><path d="M240.67458,177.1423c-0.23775,0.02605 -0.3694,-0.05888 -0.52027,-0.11136c-0.17511,-0.04567 -0.176,-0.18087 -0.18194,-0.34172c0.18425,-0.03814 0.3351,0.01434 0.49056,0.02491c0.12707,0.12688 0.07495,0.31759 0.21164,0.42822z" fill="#b6cccc"/><path d="M244.55201,179.7791c0.06903,0.1567 0.11838,0.27828 0.18238,0.40932c-0.07181,0.1556 -0.12942,0.25302 -0.26977,0.31949c-0.07405,-0.1824 -0.15769,-0.34855 -0.22671,-0.50523c0.04251,-0.17446 0.16871,-0.18275 0.24094,-0.27077c0.02925,0.01888 0.06815,0.02152 0.07317,0.04719z" fill="#c2dada"/><path d="M234.83687,180.5545c0.07356,0.11479 0.08867,0.19182 0.06994,0.29191c-0.04301,0.10689 -0.13991,0.13405 -0.23181,0.18695c-0.0823,0.03666 -0.16413,0.14087 -0.27614,0.09103c-0.03974,-0.13782 -0.05528,-0.28243 0.00189,-0.44749c0.155,-0.05704 0.29078,-0.08159 0.43618,-0.12239z" fill="#bbd2d3"/><path d="M240.84657,187.68556c-0.00592,-0.16086 -0.01643,-0.27983 -0.01734,-0.415c0.16963,-0.04761 0.32506,-0.03701 0.49014,-0.04271c0.04936,0.12157 0.05989,0.24057 -0.00738,0.3542c-0.03384,0.02306 -0.06767,0.04605 -0.10654,0.04344c-0.0969,0.02719 -0.20852,0.04494 -0.35891,0.06007z" fill="#bbd2d3"/><path d="M243.22457,178.02509c-0.27616,0.09103 -0.27616,0.09104 -0.57282,0.01173c-0.06902,-0.15671 -0.00681,-0.29606 0.03574,-0.47051c0.23363,0.08345 0.37578,0.28734 0.53713,0.45878z" fill="#adc2c3"/><path d="M242.49441,186.50541c-0.04936,-0.12157 -0.05024,-0.25681 0.00235,-0.37989c0.16963,-0.04761 0.31497,-0.08843 0.47499,-0.11972c-0.01694,0.37046 -0.02653,0.3867 -0.47733,0.49966z" fill="#b5cbcc"/><path d="M237.1455,177.98354c0.05441,0.14728 0.0891,0.25943 0.09502,0.4203c-0.14993,0.08269 -0.31043,0.04645 -0.48509,0.06838c-0.02468,-0.0608 -0.03471,-0.11213 -0.04479,-0.16349c-0.01006,-0.05137 0.0041,-0.10951 0.00366,-0.17713c0.13031,-0.11783 0.26607,-0.14236 0.43115,-0.14806z" fill="#bbd1d2"/><path d="M239.58287,188.21622c-0.19843,0.09631 -0.38357,-0.00073 -0.54861,0.00497c-0.06396,-0.13103 -0.01141,-0.25416 -0.01229,-0.38937c0.22812,-0.00985 0.39363,0.05209 0.52572,0.20465c0.04387,0.02833 0.03473,0.11214 0.03518,0.17973z" fill="#b6cccd"/><path d="M234.17814,183.71908c0.12296,0.23639 0.22166,0.47959 0.32999,0.70651c-0.08186,0.10423 -0.16412,0.14087 -0.30494,0.13975c-0.06492,-0.26621 -0.12978,-0.53243 -0.12199,-0.81905c0.04848,-0.01361 0.0727,-0.02039 0.0969,-0.0272z" fill="#acc1c2"/><path d="M238.93912,180.48714c0.21899,0.074 0.42837,0.16425 0.59931,0.31945c0.06354,0.06347 0.09325,0.1499 0.04525,0.23109c-0.01919,0.03243 -0.08688,0.07853 -0.10151,0.0691c-0.22903,-0.12536 -0.38125,-0.38061 -0.54306,-0.61963z" fill="#a7bbbb"/><path d="M236.31656,178.18903c0.06858,0.08913 0.06445,0.19862 0.0507,0.32436c-0.155,0.05704 -0.30999,0.11406 -0.46498,0.1711c-0.07861,-0.14047 -0.03561,-0.24733 0.0316,-0.361c0.1015,-0.0691 0.24688,-0.10993 0.38269,-0.13445z" fill="#b7cdcd"/><path d="M244.18805,184.18819c-0.0983,-0.17562 -0.10417,-0.33646 -0.10053,-0.51356c0.12071,-0.10157 0.23684,-0.16126 0.4069,-0.14125c-0.02747,0.2515 -0.15734,0.43693 -0.30637,0.65483z" fill="#b7cece"/><path d="M237.72855,188.27597c-0.24276,0.0004 -0.39451,-0.18727 -0.58882,-0.20045c-0.04935,-0.12157 0.0037,-0.1771 0.06679,-0.18127c0.16504,-0.00568 0.33513,0.01433 0.48138,0.10873c0.03429,0.04457 0.0489,0.05401 0.04066,0.27303z" fill="#b4cacb"/><path d="M234.66465,183.13566c-0.10148,0.0691 -0.17419,0.08951 -0.26654,0.07482c-0.07907,-0.20809 -0.17276,-0.42558 -0.15536,-0.72844c0.25827,0.14425 0.31813,0.38478 0.4219,0.65364z" fill="#b2c8c9"/><path d="M241.6979,187.20295c0.14034,-0.06651 0.24689,-0.10991 0.35386,-0.08575c0.04891,0.05399 0.03476,0.11217 0.02056,0.17033c-0.05671,0.2326 -0.20716,0.24772 -0.40142,0.23451c0.01873,-0.10008 0.02286,-0.2096 0.02699,-0.3191z" fill="#b5cbcb"/><path d="M240.56875,178.75669c-0.19977,-0.10648 -0.36067,-0.21028 -0.5074,-0.37228c0.0334,-0.09062 0.09647,-0.09479 0.14035,-0.06649c0.11202,0.04986 0.23365,0.08345 0.34563,0.13329c0.11702,0.07553 0.10785,0.15934 0.02141,0.30547z" fill="#91a3a3"/><path d="M236.62715,184.73854c0.24276,-0.0004 0.42333,0.13856 0.59887,0.25185c0.02925,0.01888 0.03932,0.07024 0.03472,0.11215c-0.01919,0.03244 -0.07725,0.06233 -0.0919,0.05289c-0.23363,-0.08345 -0.40458,-0.23863 -0.54171,-0.41687z" fill="#99abac"/><path d="M236.66363,185.83886c-0.0087,0.15143 -0.05673,0.23261 -0.14908,0.21789c-0.12162,-0.03362 -0.24866,-0.16048 -0.40044,-0.34813c0.21353,-0.0193 0.3744,0.08454 0.54949,0.13024z" fill="#93a5a6"/><path d="M244.94395,182.49981c-0.08407,-0.23375 -0.19242,-0.46069 0.09745,-0.67748c0.09868,0.2432 -0.02613,0.45428 -0.09745,0.67748z" fill="#9aadad"/><path d="M242.14707,181.00918c-0.14586,-0.0268 -0.30629,-0.06304 -0.43752,-0.08043c-0.04432,-0.09592 -0.03016,-0.15407 0.0421,-0.24206c0.17971,0.00376 0.28758,0.1631 0.42883,0.23181c-0.01919,0.03244 -0.02882,0.04871 -0.0334,0.09065z" fill="#c5dddd"/><path d="M237.90519,182.71398c0.27659,-0.02344 0.46678,0.09932 0.61854,0.28696c0.01463,0.00945 0.01006,0.05138 -0.00914,0.08385c-0.01419,0.05815 -0.07725,0.06233 -0.10652,0.04343c-0.17052,-0.08756 -0.31727,-0.2496 -0.50287,-0.41423z" fill="#aec2c3"/><path d="M239.92165,188.05344c0.18425,-0.03814 0.35933,0.00753 0.51982,0.0438c0.04434,0.09591 -0.00872,0.15145 -0.08643,0.14617c-0.14084,-0.00113 -0.267,0.00717 -0.41282,-0.01964c-0.04848,0.01361 -0.06353,-0.06342 -0.02054,-0.17031z" fill="#9caeaf"/><path d="M235.50045,178.8514c-0.13032,0.11784 -0.24642,0.17748 -0.40143,0.23452c0.06632,-0.24886 0.21582,-0.39917 0.33106,-0.59402c0.0343,0.04458 0.06354,0.06346 0.06853,0.08911c0.00546,0.09328 -0.00367,0.17709 0.00182,0.27036z" fill="#a9bebf"/><path d="M239.46982,185.09218c0.03797,-0.13256 0.09099,-0.18803 0.17334,-0.22469c0.15587,0.07817 0.25871,0.21184 0.309,0.46864c-0.19476,-0.0808 -0.3264,-0.16577 -0.48231,-0.24391z" fill="#b9cfd0"/><path d="M242.11932,179.75736c-0.04432,-0.09591 -0.02053,-0.17032 0.00323,-0.24471c0.07727,-0.06232 0.1504,-0.01514 0.47269,0.26016c-0.203,0.13823 -0.33513,-0.01432 -0.47593,-0.01546z" fill="#869797"/><path d="M237.35829,183.7072c0.20525,0.19976 0.49649,0.18577 0.53758,0.52638c-0.25786,-0.07663 -0.42378,-0.20613 -0.53758,-0.52638z" fill="#93a4a5"/><path d="M240.35127,177.44972c0.21941,0.14158 0.36571,0.23601 0.512,0.3304c0.02925,0.01888 0.03932,0.07025 0.01049,0.11893c-0.00961,0.01627 -0.04345,0.03927 -0.06768,0.04609c-0.19475,-0.08077 -0.35572,-0.18465 -0.45484,-0.4954z" fill="#94a5a6"/><path d="M242.3609,178.83624c-0.00087,-0.1352 0.01326,-0.19333 0.1198,-0.23678c0.12662,0.05928 0.2679,0.12799 0.38538,0.27112c-0.19845,0.09628 -0.34469,0.00189 -0.50515,-0.03432z" fill="#abbfc0"/><path d="M239.65187,176.68433c-0.01874,0.10007 -0.02333,0.14198 -0.04255,0.17448c-0.31044,0.04647 -0.31039,0.04646 -0.48639,-0.13441c0.1838,-0.10575 0.33007,-0.01139 0.52892,-0.04005z" fill="#acc0c1"/><path d="M244.36661,181.83556c-0.05942,-0.17298 -0.14306,-0.3391 -0.19287,-0.52829c-0.01507,-0.07702 0.02336,-0.14199 0.13991,-0.13405c0.07907,0.20809 0.1435,0.4067 0.05294,0.66234z" fill="#9fb2b2"/><path d="M237.09933,177.61721c-0.10656,0.04344 -0.17924,0.06381 -0.27156,0.04911c-0.03933,-0.07024 -0.03977,-0.13783 -0.00638,-0.22847c0.07226,-0.08798 0.1838,-0.10573 0.29534,-0.12348c0.06858,0.08913 0.02558,0.19598 -0.01741,0.30282z" fill="#aec2c3"/><path d="M241.10222,183.04947c-0.14992,0.08269 -0.25238,0.01662 -0.36437,-0.03321c-0.04387,-0.02835 -0.04432,-0.09589 -0.01551,-0.14461c0.01919,-0.03244 0.07727,-0.06235 0.10652,-0.04345c0.11656,0.00792 0.18517,0.09706 0.27336,0.22128z" fill="#91a2a3"/><path d="M234.67191,179.84233c0.14306,0.33911 0.14812,0.36477 -0.18153,0.44373c0.04758,-0.14878 0.04164,-0.30965 0.18153,-0.44373z" fill="#869696"/><path d="M236.11121,186.73876c-0.20347,0.07062 -0.26241,-0.03471 -0.35523,-0.11705c0.15957,-0.09892 0.15958,-0.09892 0.35523,0.11705z" fill="#555f5f"/><path d="M241.29299,181.80411c0.07316,0.0472 0.17552,0.11327 0.24914,0.22807c-0.21809,0.06118 -0.27658,0.02342 -0.34059,-0.10757c-0.01966,-0.03512 0.00915,-0.08386 0.09146,-0.12046z" fill="#93a5a6"/><path d="M240.87161,176.84327c0.27157,-0.04912 0.29125,-0.01402 0.18144,0.27415c-0.12163,-0.03363 -0.15636,-0.14572 -0.18144,-0.27415z" fill="#8b9b9c"/><path d="M235.39759,186.74937c0.17509,0.04569 0.28249,0.13743 0.38994,0.22923c-0.01371,0.12574 -0.07181,0.15558 -0.13032,0.11781c-0.11703,-0.07551 -0.22445,-0.16728 -0.25964,-0.347z" fill="#9aacad"/><path d="M238.50159,176.74972c0.13075,-0.05021 0.23227,-0.11934 0.3397,-0.02759c0.01463,0.00946 0.01967,0.03512 0.01008,0.05136c-0.11569,0.12727 -0.22268,0.10311 -0.34975,-0.02378z" fill="#5f6a6b"/><path d="M240.34182,184.06197c-0.08732,0.01095 -0.14587,-0.0268 -0.19476,-0.08083c-0.01966,-0.03512 -0.0297,-0.08647 0.00414,-0.1095c0.03384,-0.02306 0.0823,-0.03666 0.11155,-0.01774c0.05848,0.03777 0.10741,0.09176 0.07906,0.20807z" fill="#636e6f"/><path d="M236.22706,177.86194c0.02336,-0.14199 0.08596,-0.21374 0.24141,-0.20319c-0.01832,0.16765 -0.10059,0.20432 -0.24141,0.20319z" fill="#4a5354"/></g><g data-paper-data="{&quot;index&quot;:null}" fill="#000000" stroke="#000000" stroke-width="1.2"><path d="M251.7699,202.3105c-1.77154,-0.58636 -3.2953,-3.56657 -5.05077,-5.04484c-1.89001,-1.59157 -3.84906,-1.62362 -4.34563,-3.18854c-0.34684,-1.09308 0.50916,-2.43094 1.04306,-3.06497c1.29826,-1.54174 4.95309,-0.60015 8.16327,2.10309c3.21018,2.70323 4.7601,6.14448 3.46184,7.68619c-0.5883,0.69863 -1.80375,1.99494 -3.27176,1.50906z"/><path d="M255.69551,201.00254c-2.46266,-0.84002 -6.35459,-5.40842 -6.35459,-5.40842c0,0 -3.59892,-1.57433 -3.66415,-1.63126c-4.15813,-3.62683 -1.95658,-6.33602 0.59984,-9.37184c1.21668,-1.44485 3.67342,-3.17328 5.65948,-2.85053c2.25242,0.36605 3.97617,2.56911 6.33309,4.55384c4.43511,3.73475 6.66495,8.73792 4.06841,11.82138c-1.14298,1.35733 -3.35291,4.00874 -6.64207,2.8868z"/></g></g></g></g></svg>