<svg version="1.1" xmlns="http://www.w3.org/2000/svg" xmlns:xlink="http://www.w3.org/1999/xlink" width="57.95867" height="55.17911" viewBox="0,0,57.95867,55.17911"><g transform="translate(-211.71756,-152.74457)"><g data-paper-data="{&quot;isPaintingLayer&quot;:true}" fill-rule="nonzero" stroke-linejoin="miter" stroke-miterlimit="10" stroke-dasharray="" stroke-dashoffset="0" style="mix-blend-mode: normal"><path d="M240.16142,202.25701c-0.07812,0 -1.4851,-2.81067 -1.57003,-5.74255c-0.09224,-3.18419 1.1384,-6.51135 1.07737,-6.53629c-0.00073,-0.0003 -16.19552,2.49326 -16.19559,2.4932c-0.08211,-0.06248 -9.92301,-7.61206 -9.75344,-13.31493c0.15301,-5.14568 9.36687,-15.0423 9.36687,-15.13163c0,-0.02992 15.179,4.31618 15.18015,4.31594c0.10638,-0.02248 -2.04773,-3.33974 -2.2098,-6.57284c-0.16411,-3.27373 1.66237,-6.46599 1.54013,-6.84706c-0.01158,-0.03608 8.71387,3.42666 15.69719,8.71884c6.72369,5.09543 11.71487,12.02612 11.7153,12.07591c0.00042,0.04973 -4.0684,9.38533 -10.37765,16.11478c-6.10581,6.51245 -14.45851,10.42663 -14.4705,10.42663z" fill="#000000" stroke="#000000" stroke-width="4" stroke-linecap="butt"/><path d="M242.32548,206.72192c0,0 0.168,0.14511 -0.33401,-0.16863c-0.42408,-0.26503 -1.50528,-0.96489 -1.74527,-1.26154c-0.11047,-0.13655 -0.73114,-1.47285 -0.91486,-1.90746c-0.59799,-1.41459 -0.9642,-2.8707 -0.9642,-2.8707" fill="#000000" stroke="#000000" stroke-width="2" stroke-linecap="round"/><path d="M222.99232,162.44588l2.18462,3.26154" fill="none" stroke="#292929" stroke-width="1" stroke-linecap="round"/><path d="M238.96924,171.69841l-4.40769,-6.37692" fill="none" stroke="#292929" stroke-width="0.5" stroke-linecap="round"/><path d="M239.33078,156.39842l-2.23077,-3.15385" fill="none" stroke="#292929" stroke-width="1" stroke-linecap="round"/><path d="M215.593,184.3312l-3.26923,-4.17692" fill="none" stroke="#292929" stroke-width="1" stroke-linecap="round"/><path d="M242.82808,205.92368c-0.07812,0 -1.4851,-2.81067 -1.57003,-5.74255c-0.09224,-3.18419 1.1384,-6.51135 1.07737,-6.53629c-0.00073,-0.0003 -16.19552,2.49326 -16.19559,2.4932c-0.08211,-0.06248 -9.92301,-7.61206 -9.75344,-13.31493c0.15301,-5.14568 9.36687,-15.0423 9.36687,-15.13163c0,-0.02992 15.179,4.31618 15.18015,4.31594c0.10638,-0.02248 -2.04773,-3.33974 -2.2098,-6.57284c-0.16411,-3.27373 1.66237,-6.46599 1.54013,-6.84706c-0.01158,-0.03608 8.71387,3.42666 15.69719,8.71884c6.72369,5.09543 11.71487,12.02612 11.7153,12.07591c0.00042,0.04973 -4.0684,9.38533 -10.37765,16.11478c-6.10581,6.51245 -14.45851,10.42663 -14.4705,10.42663z" fill="#bcbcbc" stroke="#525252" stroke-width="4" stroke-linecap="butt"/></g></g></svg>