<svg version="1.1" xmlns="http://www.w3.org/2000/svg" xmlns:xlink="http://www.w3.org/1999/xlink" width="72.44728" height="128.84158" viewBox="0,0,72.44728,128.84158"><defs><linearGradient x1="199.49233" y1="149.23074" x2="253.51486" y2="149.83908" gradientUnits="userSpaceOnUse" id="color-1"><stop offset="0" stop-color="#66ff81" stop-opacity="0"/><stop offset="1" stop-color="#66ff81"/></linearGradient><linearGradient x1="233.0168" y1="223.03755" x2="254.21689" y2="223.03755" gradientUnits="userSpaceOnUse" id="color-2"><stop offset="0" stop-color="#2a801c"/><stop offset="1" stop-color="#62f67a"/></linearGradient><linearGradient x1="233.0168" y1="223.03755" x2="254.21689" y2="223.03755" gradientUnits="userSpaceOnUse" id="color-3"><stop offset="0" stop-color="#2a801c"/><stop offset="1" stop-color="#62f67a"/></linearGradient><linearGradient x1="223.23969" y1="209.08641" x2="243.9771" y2="209.08641" gradientUnits="userSpaceOnUse" id="color-4"><stop offset="0" stop-color="#ffd166"/><stop offset="1" stop-color="#ac880b"/></linearGradient><linearGradient x1="223.23969" y1="209.08641" x2="243.9771" y2="209.08641" gradientUnits="userSpaceOnUse" id="color-5"><stop offset="0" stop-color="#2a801c"/><stop offset="1" stop-color="#62f67a"/></linearGradient><linearGradient x1="223.18285" y1="209.1691" x2="244.3536" y2="209.1691" gradientUnits="userSpaceOnUse" id="color-6"><stop offset="0" stop-color="#2a801c"/><stop offset="1" stop-color="#62f67a"/></linearGradient><linearGradient x1="223.18285" y1="209.1691" x2="244.3536" y2="209.1691" gradientUnits="userSpaceOnUse" id="color-7"><stop offset="0" stop-color="#2a801c"/><stop offset="1" stop-color="#62f67a"/></linearGradient><linearGradient x1="212.90776" y1="225.35205" x2="233.5502" y2="225.35205" gradientUnits="userSpaceOnUse" id="color-8"><stop offset="0" stop-color="#2a801c"/><stop offset="1" stop-color="#62f67a"/></linearGradient><linearGradient x1="212.90776" y1="225.35205" x2="233.5502" y2="225.35205" gradientUnits="userSpaceOnUse" id="color-9"><stop offset="0" stop-color="#2a801c"/><stop offset="1" stop-color="#62f67a"/></linearGradient></defs><g transform="translate(-195.97677,-114.63567)"><g data-paper-data="{&quot;isPaintingLayer&quot;:true}" stroke-miterlimit="10" stroke-dasharray="" stroke-dashoffset="0" style="mix-blend-mode: normal"><path d="M234.05477,207.26486l1.07162,-12.96524" fill="none" fill-rule="nonzero" stroke="#66ff81" stroke-width="7" stroke-linecap="round" stroke-linejoin="miter"/><path d="M240.25374,194.50773c0,0 12.28535,-3.23341 14.89194,-0.90101c2.45002,2.1923 7.12932,8.16617 7.12932,8.16617" fill="none" fill-rule="nonzero" stroke="#66ff81" stroke-width="7" stroke-linecap="round" stroke-linejoin="miter"/><path d="M209.2949,196.44004c0,0 3.36031,-6.29569 6.95948,-6.81787c4.18141,-0.60666 16.64515,3.3932 16.64515,3.3932" fill="none" fill-rule="nonzero" stroke="#66ff81" stroke-width="7" stroke-linecap="round" stroke-linejoin="miter"/><g stroke-linejoin="miter"><g data-paper-data="{&quot;index&quot;:null}" stroke-linecap="butt"><path d="M263.87318,173.45218c-2.78672,13.15918 -16.19395,21.46596 -29.9459,18.5537c-13.75194,-2.91227 -22.641,-15.94072 -19.85426,-29.0999c2.78672,-13.15918 16.19395,-21.46596 29.9459,-18.55369c13.75194,2.91227 22.641,15.94072 19.85426,29.0999z" fill="none" fill-rule="nonzero" stroke="#66ff81" stroke-width="4.5"/><g><g fill-rule="nonzero"><path d="M227.48367,149.66958l-0.00953,-0.01029" data-paper-data="{&quot;index&quot;:null}" fill="#ffab19" stroke="#000000" stroke-width="5"/><g data-paper-data="{&quot;index&quot;:null}" fill="none" stroke="none" stroke-width="1" font-family="sans-serif" font-weight="normal" font-size="12" text-anchor="start"/></g><path d="M227.48367,149.66958l-0.00953,-0.01029" data-paper-data="{&quot;index&quot;:null}" fill="#ffab19" fill-rule="nonzero" stroke="#000000" stroke-width="5"/><path d="M238.43492,169.31519" fill="#001026" fill-rule="evenodd" stroke="#000000" stroke-width="5"/><g data-paper-data="{&quot;index&quot;:null}" fill="none" fill-rule="nonzero" stroke="none" stroke-width="1" font-family="sans-serif" font-weight="normal" font-size="12" text-anchor="start"/><g data-paper-data="{&quot;index&quot;:null}" fill="none" fill-rule="nonzero" stroke="none" stroke-width="1" font-family="sans-serif" font-weight="normal" font-size="12" text-anchor="start"/></g></g><path d="M213.56263,175.27983c0,0 -1.05923,-1.66897 -1.79923,-4.3144c-2.27084,-8.11798 -13.49938,-53.34244 -13.49938,-53.34244l50.54458,28.0918c0,0 -17.32349,-4.46971 -24.20847,0.93451c-2.66395,2.09101 -8.51804,9.68434 -9.96612,14.19785c-2.04318,6.36836 -1.07134,14.43267 -1.07134,14.43267z" fill="url(#color-1)" fill-rule="nonzero" stroke="#66ff81" stroke-width="3" stroke-linecap="round"/><path d="M220.60796,158.42761l21.90571,8.29994l-1.01696,6.16671" fill="none" fill-rule="nonzero" stroke="#66ff81" stroke-width="5" stroke-linecap="round"/><path d="M248.34111,173.64292l1.14028,-6.14638l16.44266,-14.43358" fill="none" fill-rule="nonzero" stroke="#66ff81" stroke-width="5" stroke-linecap="round"/></g><path d="M238.46744,186.48193c0,3.27444 -2.65446,5.92891 -5.92891,5.92891c-3.27444,0 -5.92891,-2.65446 -5.92891,-5.92891c0,-3.27444 2.65446,-5.92891 5.92891,-5.92891c3.27444,0 5.92891,2.65446 5.92891,5.92891z" fill="#ff0000" fill-rule="nonzero" stroke="#66ff81" stroke-width="3" stroke-linecap="butt" stroke-linejoin="miter"/><g stroke-width="1.2"><path d="M243.05432,206.17306c0,0 6.88414,11.88238 7.90498,16.40543c0.69656,3.08623 -2.2386,8.10007 -2.2386,8.10007c0,0 7.43183,-0.1841 7.91355,6.59485c0.02746,0.38647 0.10564,2.28836 -2.94962,3.08525c-2.92631,0.76325 -8.94049,0.43373 -11.13913,0.30178c-1.02116,-0.06129 -2.6155,-0.55189 -3.69838,-1.52044c-1.09028,-0.97519 -1.13308,-2.51386 -1.21649,-3.3748c-0.01107,-0.11424 3.11583,-10.035 2.88633,-11.32339c-0.11544,-0.64804 -7.82934,-16.42467 -7.82934,-16.42467" fill="#44ff00" fill-rule="evenodd" stroke="#44ff00" stroke-linecap="round" stroke-linejoin="round"/><path d="M233.04698,213.61503c-0.49369,-6.94731 5.19212,-7.51203 8.16677,-7.68096c1.29349,-0.07346 8.53875,7.92801 11.39341,14.63168c0.74801,1.75656 0.52489,6.23419 0.46067,8.36689c-0.02257,0.74937 -0.78075,-0.214 -0.78075,-0.214c0,0 0.83234,0.78011 1.19522,1.49202c0.37455,0.73483 0.73459,1.89827 0.73459,1.89827l-2.22483,-0.86389c0,0 -7.63401,0.1543 -10.37945,2.54751c-2.74544,2.39321 -0.88284,6.34898 -0.88284,6.34898c0,0 -5.69978,-0.3336 -6.42142,-3.0723c-0.17791,-0.67516 0.49567,-2.77823 0.49567,-2.77823c0,0 -0.63185,0.16531 -0.69893,-0.30656c-0.02176,-0.15304 2.72001,-5.28401 4.22917,-7.99818c0.86282,-1.55177 0.87085,-1.38976 0.87085,-1.38976c0,0 -6.08701,-9.98047 -6.15815,-10.98146z" fill="url(#color-2)" fill-rule="nonzero" stroke="url(#color-3)" stroke-linecap="butt" stroke-linejoin="miter"/></g><path d="M223.23976,207.51516c-0.01054,-0.20429 1.28232,0.39801 4.21188,0.46762c3.86484,0.09184 9.78371,-0.31902 11.44806,-0.52924c4.31594,-0.54512 5.0463,-1.99608 5.07425,-1.45455c0.1034,2.00397 -2.33784,5.71602 -7.27524,5.91963c-2.16975,0.08947 -6.60769,0.76054 -9.12081,0.05501c-3.20561,-0.89995 -4.28017,-3.33517 -4.33814,-4.45848z" fill="url(#color-4)" fill-rule="nonzero" stroke="url(#color-5)" stroke-width="1.2" stroke-linecap="butt" stroke-linejoin="miter"/><g fill-rule="nonzero" stroke-linecap="butt" stroke-linejoin="miter"><g fill="none" stroke="none" stroke-width="1" font-family="sans-serif" font-weight="normal" font-size="12" text-anchor="start"/><path d="M223.27072,204.97522c0,0 8.95818,2.48856 13.17475,3.04156c4.21656,0.553 7.90813,-0.27655 7.90813,-0.27655c0,0 -0.29533,1.94397 -2.49418,3.57718c-1.70204,1.2642 -4.7539,2.39938 -8.37259,1.94238c-3.29672,-0.41634 -6.86446,-1.53169 -8.46744,-3.04633c-2.42964,-2.29577 -1.74867,-5.23823 -1.74867,-5.23823z" fill="url(#color-6)" stroke="url(#color-7)" stroke-width="1.2"/></g><g stroke-width="1.2"><path d="M231.66634,211.18366c0,0 -3.38545,28.91177 -4.00322,29.0072c-1.77286,0.27385 -11.48825,-2.17835 -11.48825,-2.17835l6.24502,-29.06811" data-paper-data="{&quot;index&quot;:null}" fill="#ffab19" fill-rule="evenodd" stroke="#001026" stroke-linecap="round" stroke-linejoin="round"/><path d="M233.16258,210.71757c0,0 0.56459,7.93066 0.331,11.17232c-0.14328,1.98844 -2.19663,8.7568 -2.19663,8.7568c0,0 0.84744,4.69608 0.51274,5.12268c-0.43004,0.54814 -1.76944,-2.28444 -1.76944,-2.28444c0,0 1.37882,3.24744 1.41607,3.57113c0.25989,2.25849 -0.92617,5.22433 -4.03417,5.5061c-3.41239,0.30936 -9.06963,0.65877 -11.98598,-1.12805c-2.64023,-1.61763 -2.73384,-5.28805 -2.37935,-6.79521c0.24893,-1.0584 2.00621,-1.62861 2.36202,-2.9298c0.23659,-0.8652 -2.62924,3.06733 -2.11129,1.9139c0.15059,-0.33534 2.265,-5.6166 2.265,-5.6166c0,0 0.3138,-4.90567 0.9055,-6.72229c2.37605,-7.29486 5.25302,-13.39339 5.25302,-13.39339" data-paper-data="{&quot;index&quot;:null}" fill="url(#color-8)" fill-rule="evenodd" stroke="url(#color-9)" stroke-linecap="round" stroke-linejoin="round"/><path d="M230.00167,238.38832c-0.08554,1.62338 -0.7833,3.50951 -2.29779,4.48893c-1.52012,0.98303 -10.65604,0.59347 -12.0684,-0.60794c-1.34127,-1.14094 -1.88764,-3.24972 -1.80416,-4.83411c0.17139,-3.25277 3.93018,-5.67632 8.39551,-5.41312c4.4653,0.2632 7.94623,3.11348 7.77482,6.36627z" fill="#44ff00" fill-rule="nonzero" stroke="#44ff00" stroke-linecap="butt" stroke-linejoin="miter"/></g></g></g></svg>