<svg version="1.1" xmlns="http://www.w3.org/2000/svg" xmlns:xlink="http://www.w3.org/1999/xlink" width="1088.61272" height="520.67486" viewBox="0,0,1088.61272,520.67486"><g transform="translate(327.76668,35.52081)"><g data-paper-data="{&quot;isPaintingLayer&quot;:true}" fill-rule="nonzero" stroke-linecap="butt" stroke-linejoin="miter" stroke-miterlimit="10" stroke-dasharray="" stroke-dashoffset="0" style="mix-blend-mode: normal"><path d="M390.35821,280.4235v-17.90177h14.10443v17.90177z" fill="#7b7b7b" stroke="#000000" stroke-width="2"/><path d="M48.41944,271.93075v-306.45155h89.19112v306.45155z" fill="#7b7b7b" stroke="#000000" stroke-width="2"/><path d="M135.3236,271.93075v-173.80836h52.59988v173.80836z" fill="#7b7b7b" stroke="#000000" stroke-width="2"/><path d="M185.63656,271.93075v-233.26912h75.4694v233.26912z" fill="#7b7b7b" stroke="#000000" stroke-width="2"/><path d="M258.819,271.93075v-75.46944h59.46072v75.46944z" fill="#7b7b7b" stroke="#000000" stroke-width="2"/><path d="M318.27976,271.93075v-290.44291h84.61724v290.44291z" fill="#7b7b7b" stroke="#000000" stroke-width="2"/><path d="M-187.8778,282.50178v-306.45155h89.19112v306.45155z" fill="#7b7b7b" stroke="#000000" stroke-width="2"/><path d="M-100.97365,282.50178v-173.80831h52.59988v173.80831z" fill="#7b7b7b" stroke="#000000" stroke-width="2"/><path d="M-50.66069,282.50178v-233.26907h75.4694v233.26907z" fill="#7b7b7b" stroke="#000000" stroke-width="2"/><path d="M22.52175,282.50178v-75.4694h59.46076v75.4694z" fill="#7b7b7b" stroke="#000000" stroke-width="2"/><path d="M81.98251,282.50178v-290.44287h84.61724v290.44287z" fill="#7b7b7b" stroke="#000000" stroke-width="2"/><path d="M265.79012,293.07282v-306.45155h89.19112v306.45155z" fill="#7b7b7b" stroke="#000000" stroke-width="2"/><path d="M352.69428,293.07282v-173.80836h52.59988v173.80836z" fill="#7b7b7b" stroke="#000000" stroke-width="2"/><path d="M403.00724,293.07282v-233.26907h75.4694v233.26907z" fill="#7b7b7b" stroke="#000000" stroke-width="2"/><path d="M535.65043,293.07282v-290.44287h84.6172v290.44287z" fill="#7b7b7b" stroke="#000000" stroke-width="2"/><path d="M-303.38031,357.19527v-156.62605h154.01558v156.62605z" fill="#000000" stroke="#000000" stroke-width="2"/><path d="M-325.41279,199.85258l100.83582,-105.18222l97.35876,104.31293z" fill="#000000" stroke="#000000" stroke-width="2"/><path d="M-88.46328,355.44628v-156.62605h154.01558v156.62605z" fill="#000000" stroke="#000000" stroke-width="2"/><path d="M-110.49576,198.10359l100.83582,-105.18222l97.35876,104.31293z" fill="#000000" stroke="#000000" stroke-width="2"/><path d="M139.50588,353.69729v-156.62605h154.01558v156.62605z" fill="#000000" stroke="#000000" stroke-width="2"/><path d="M117.47344,196.35461l100.83582,-105.18222l97.35876,104.31293z" fill="#000000" stroke="#000000" stroke-width="2"/><path d="M359.64377,354.55874v-156.62605h154.01558v156.62605z" fill="#000000" stroke="#000000" stroke-width="2"/><path d="M337.61129,197.21605l100.83582,-105.18222l97.35876,104.31293z" fill="#000000" stroke="#000000" stroke-width="2"/><path d="M582.39206,352.80975v-156.62605h154.01558v156.62605z" fill="#000000" stroke="#000000" stroke-width="2"/><path d="M560.35962,195.46706l100.83582,-105.18222l97.35876,104.31293z" fill="#000000" stroke="#000000" stroke-width="2"/><path d="M-123.6621,485.15405v-210.17617h717.08173v210.17617z" fill="#5a5a5a" stroke="none" stroke-width="0"/><path d="M-122.01222,297.65258v-24.02402h716.21622v24.02402z" fill="#9a9b87" stroke="#000000" stroke-width="2"/></g></g></svg>