<svg version="1.1" xmlns="http://www.w3.org/2000/svg" xmlns:xlink="http://www.w3.org/1999/xlink" width="90.64936" height="112.07693" viewBox="0,0,90.64936,112.07693"><defs><linearGradient x1="207.64357" y1="171.05836" x2="185.29627" y2="173.05546" gradientUnits="userSpaceOnUse" id="color-1"><stop offset="0" stop-color="#000000"/><stop offset="1" stop-color="#000000" stop-opacity="0"/></linearGradient><linearGradient x1="233.30339" y1="163.6305" x2="233.57133" y2="165.61247" gradientUnits="userSpaceOnUse" id="color-2"><stop offset="0" stop-color="#008cff"/><stop offset="1" stop-color="#008cff" stop-opacity="0"/></linearGradient><linearGradient x1="242.70776" y1="155.03339" x2="244.68995" y2="169.69538" gradientUnits="userSpaceOnUse" id="color-3"><stop offset="0" stop-color="#008cff"/><stop offset="1" stop-color="#008cff" stop-opacity="0"/></linearGradient><linearGradient x1="222.05266" y1="157.97416" x2="224.03485" y2="172.63615" gradientUnits="userSpaceOnUse" id="color-4"><stop offset="0" stop-color="#008cff"/><stop offset="1" stop-color="#008cff" stop-opacity="0"/></linearGradient></defs><g transform="translate(-184.21972,-137.73118)"><g data-paper-data="{&quot;isPaintingLayer&quot;:true}" fill-rule="nonzero" stroke-linejoin="miter" stroke-miterlimit="10" stroke-dasharray="" stroke-dashoffset="0" style="mix-blend-mode: normal"><path d="M235.09477,233.99294l1.18081,-19.73758l10.14361,-1.55174l1.32336,21.21376c0,0 -5.76547,4.16343 -7.31203,4.08353c-1.47978,-0.07645 -5.33575,-4.00797 -5.33575,-4.00797z" fill="#000000" stroke="#0f0f0f" stroke-width="1" stroke-linecap="butt"/><path d="M219.19797,234.67212l4.68965,-20.78012l10.4719,0.35773l-2.70394,22.60869c0,0 -6.4168,3.06588 -7.92417,2.71084c-1.44229,-0.33972 -4.53345,-4.89713 -4.53345,-4.89713z" fill="#000000" stroke="#0f0f0f" stroke-width="1" stroke-linecap="butt"/><path d="M235.57457,189.53537l-0.98643,15.86593" fill="none" stroke="#000000" stroke-width="6" stroke-linecap="round"/><path d="M218.6392,212.06109c0.22281,-0.28551 4.67421,-0.01737 4.81742,-2.0119c0.11839,-1.64894 -4.03715,-5.4141 -4.14392,-7.25265c-0.09399,-1.61845 1.86597,-6.18398 5.55047,-8.49681c4.39821,-2.76086 10.65885,-3.16166 10.65885,-3.16166c0,0 6.35362,5.27408 9.24559,6.61526c1.81613,0.84225 5.03497,-0.14324 5.03497,-0.14324" fill="none" stroke="#000000" stroke-width="6" stroke-linecap="round"/><path d="M229.47476,244.41893c-0.76847,1.10682 -3.57421,4.79832 -6.00213,4.78916c-2.27266,-0.00857 -4.17301,-3.62516 -4.93373,-5.25712c-1.25725,-2.69714 0.38264,-9.80773 0.4197,-10.54358c0.01208,-0.23972 0.75915,2.57842 2.13407,4.13501c1.02387,1.15914 4.82042,1.47369 6.07253,1.00229c2.038,-0.76728 5.31771,-3.52366 5.29063,-2.9858c0,0 -1.07356,6.1127 -2.98107,8.86005z" fill="#000000" stroke="#001026" stroke-width="1.2" stroke-linecap="butt"/><path d="M245.68566,194.05919c0,0.25466 -1.49234,0.15139 -1.6382,0.90772c-0.16898,0.87627 -0.37861,2.52054 -0.06526,3.74764c0.31453,1.23173 1.15195,2.04464 0.93679,2.04464c-0.93888,0 -2.96667,-1.9182 -2.96667,-4.36666c0,-2.44846 -1.80555,-4.96667 -0.86667,-4.96667c0.16151,0 4.6,2.41951 4.6,2.63333z" fill="#000000" stroke="#0f0f0f" stroke-width="1" stroke-linecap="butt"/><g data-paper-data="{&quot;index&quot;:null}" fill="#000000" stroke="#000000" stroke-width="1.2" stroke-linecap="butt"><path d="M259.53622,204.82148c-1.39652,0.63085 -3.97454,-0.32259 -5.85733,-0.2396c-2.0271,0.08933 -3.22867,1.15938 -4.39897,0.48993c-0.81744,-0.46761 -1.04419,-1.75203 -1.07416,-2.43204c-0.07289,-1.65355 2.65915,-3.11704 6.10215,-3.26879c3.44301,-0.15176 6.29321,1.0657 6.36609,2.71924c0.03303,0.7493 0.01947,2.20849 -1.13776,2.73126z"/><path d="M261.18084,201.84813c-1.95519,0.8619 -6.84736,0.26575 -6.84736,0.26575c0,0 -3.05012,1.05006 -3.1212,1.05195c-4.52941,0.12082 -4.70571,-2.74047 -4.84921,-5.99647c-0.06831,-1.54964 0.455,-3.96023 1.83456,-4.86965c1.56458,-1.03139 3.83127,-0.65876 6.35913,-0.77017c4.75678,-0.20964 8.88642,1.5735 9.03218,4.8806c0.06416,1.45577 0.20327,4.28681 -2.40811,5.43798z"/></g><path d="M222.40162,215.00028c0,0 5.73416,-23.59761 7.6924,-25.17062c0.57497,-0.46186 10.92189,-0.0389 10.92189,-0.0389l5.51429,25.76666z" fill="#000000" stroke="#0f0f0f" stroke-width="1" stroke-linecap="butt"/><path d="M236.49389,240.2161c-1.60575,-1.19302 -1.83129,-4.68377 -1.73134,-6.34051c0.00958,-0.15892 3.31829,0.99327 6.37668,0.84736c0.80439,-0.03838 3.92856,-0.11872 5.18571,-0.89899c1.56114,-0.96894 1.22409,-2.65582 1.52065,-2.43399c0.11104,0.08306 9.05915,4.57512 9.09463,6.96862c0.00573,0.38655 -0.58721,1.52622 -1.62181,2.23772c-0.90442,0.62197 -2.24066,0.846 -2.56947,0.88377c-5.47186,0.62859 -15.2936,-0.54968 -16.25503,-1.26399z" fill="#000000" stroke="#001026" stroke-width="1.2" stroke-linecap="butt"/><path d="M244.72261,204.98139l-0.15355,-6l23.8,-0.4v6.6" fill="none" stroke="#000000" stroke-width="1" stroke-linecap="round"/><path d="M239.96908,219.98139v-15.8h34.4v15.8z" fill="#62ffff" stroke="#000000" stroke-width="1" stroke-linecap="butt"/><path d="M252.92463,211.41015c0,2.9419 -2.43259,5.32679 -5.43333,5.32679c-3.00075,0 -5.43333,-2.38489 -5.43333,-5.32679c0,-2.9419 2.43259,-5.32679 5.43333,-5.32679c3.00075,0 5.43333,2.38489 5.43333,5.32679z" fill="#8e8888" stroke="#000000" stroke-width="1" stroke-linecap="butt"/><path d="M272.88016,211.31102c0,3.11938 -2.42761,5.64815 -5.42222,5.64815c-2.99461,0 -5.42222,-2.52876 -5.42222,-5.64815c0,-3.11938 2.42761,-5.64815 5.42222,-5.64815c2.99461,0 5.42222,2.52876 5.42222,5.64815z" fill="#8e8888" stroke="#000000" stroke-width="1" stroke-linecap="butt"/><path d="M261.36906,215.88139c0,0.71797 -1.79086,1.3 -4,1.3c-2.20914,0 -4,-0.58203 -4,-1.3c0,-0.71797 1.79086,-1.3 4,-1.3c2.20914,0 4,0.58203 4,1.3z" fill="#8e8888" stroke="#000000" stroke-width="1" stroke-linecap="butt"/><path d="M224.28436,199.72067c0,0 0.514,-0.87233 0.18708,-1.93674c-0.39076,-1.27231 -1.68638,-2.81906 -2.45428,-3.47849c-0.7767,-0.66698 -2.95965,0.94856 -2.95965,0.94856l8.41677,-5.66667c0,0 2.32766,-0.31819 2.76347,0.08887c0.39232,0.36644 -0.26535,2.24447 -0.26535,2.24447z" fill="#000000" stroke="#0f0f0f" stroke-width="1" stroke-linecap="butt"/><path d="M224.13197,231.65725c0,1.00594 -0.70355,1.82143 -1.57143,1.82143c-0.86787,0 -1.57143,-0.81548 -1.57143,-1.82143c0,-1.00594 0.70356,-1.82143 1.57143,-1.82143c0.86787,0 1.57143,0.81548 1.57143,1.82143z" fill="#ff0000" stroke="#0f0f0f" stroke-width="0" stroke-linecap="butt"/><path d="M228.37482,225.97154c0,1.00594 -0.70355,1.82143 -1.57143,1.82143c-0.86787,0 -1.57143,-0.81549 -1.57143,-1.82143c0,-1.00594 0.70355,-1.82142 1.57143,-1.82142c0.86787,0 1.57143,0.81548 1.57143,1.82142z" fill="#ff0000" stroke="#0f0f0f" stroke-width="0" stroke-linecap="butt"/><path d="M226.98911,219.30011c0,1.00594 -0.70355,1.82143 -1.57143,1.82143c-0.86787,0 -1.57143,-0.81548 -1.57143,-1.82143c0,-1.00594 0.70355,-1.82143 1.57143,-1.82143c0.86787,0 1.57143,0.81548 1.57143,1.82143z" fill="#ff0000" stroke="#0f0f0f" stroke-width="0" stroke-linecap="butt"/><path d="M230.91768,231.65725c0,1.00594 -0.70355,1.82143 -1.57143,1.82143c-0.86787,0 -1.57143,-0.81548 -1.57143,-1.82143c0,-1.00594 0.70355,-1.82143 1.57143,-1.82143c0.86787,0 1.57143,0.81548 1.57143,1.82143z" fill="#ff0000" stroke="#0f0f0f" stroke-width="0" stroke-linecap="butt"/><path d="M232.70339,220.30011c0,1.00594 -0.70355,1.82143 -1.57143,1.82143c-0.86787,0 -1.57143,-0.81548 -1.57143,-1.82143c0,-1.00594 0.70355,-1.82143 1.57143,-1.82143c0.86787,0 1.57143,0.81548 1.57143,1.82143z" fill="#ff0000" stroke="#0f0f0f" stroke-width="0" stroke-linecap="butt"/><path d="M241.18453,225.92096c0,0.99411 -0.76112,1.8 -1.7,1.8c-0.93888,0 -1.7,-0.80588 -1.7,-1.8c0,-0.99411 0.76111,-1.8 1.7,-1.8c0.93888,0 1.7,0.80589 1.7,1.8z" fill="#ff0000" stroke="none" stroke-width="0" stroke-linecap="butt"/><path d="M245.58453,223.37096c0,0.91127 -0.76112,1.65 -1.7,1.65c-0.93888,0 -1.7,-0.73873 -1.7,-1.65c0,-0.91127 0.76111,-1.65 1.7,-1.65c0.93888,0 1.7,0.73873 1.7,1.65z" fill="#ff0000" stroke="none" stroke-width="0" stroke-linecap="butt"/><path d="M241.88453,231.12096c0,0.88366 -0.73873,1.6 -1.65,1.6c-0.91127,0 -1.65,-0.71634 -1.65,-1.6c0,-0.88366 0.73873,-1.6 1.65,-1.6c0.91127,0 1.65,0.71634 1.65,1.6z" fill="#ff0000" stroke="none" stroke-width="0" stroke-linecap="butt"/><path d="M239.78453,218.92096c0,0.71797 -0.55964,1.3 -1.25,1.3c-0.69036,0 -1.25,-0.58203 -1.25,-1.3c0,-0.71797 0.55964,-1.3 1.25,-1.3c0.69036,0 1.25,0.58203 1.25,1.3z" fill="#ff0000" stroke="none" stroke-width="0" stroke-linecap="butt"/><g><path d="M255.87039,162.7717c1.19729,13.39763 -9.18225,25.27286 -23.18338,26.52409c-14.00112,1.25123 -26.32187,-8.59537 -27.51916,-21.99299c-1.19729,-13.39763 9.18225,-25.27286 23.18338,-26.52409c14.00112,-1.25123 26.32187,8.59537 27.51916,21.99299z" fill="none" stroke="#000000" stroke-width="4.5" stroke-linecap="butt"/><path d="M226.99546,190.68149l-29.35162,2.3884c0,0 -2.42502,-0.12398 -2.15991,-1.05276c0.60792,-2.12976 5.73383,-11.46808 5.73383,-11.46808l-11.99287,-2.91718c0,0 -2.20136,-0.7107 -2.61733,-1.77715c-0.38696,-0.99208 10.12778,-11.33013 10.12778,-11.33013c0,0 -8.55549,-2.85948 -10.9623,-4.63329c-0.9451,-0.69653 10.87879,-9.43403 19.18084,-13.91938c4.06244,-2.19481 9.57874,-5.4463 14.18569,-6.5912c7.63863,-1.89832 13.81689,-0.14954 13.81689,-0.14954" fill="none" stroke="#000000" stroke-width="3" stroke-linecap="round"/><path d="M195.78157,193.23631c0,0 -0.65302,-1.35112 0.39953,-3.38573c1.31836,-2.54842 6.34819,-6.26169 4.49071,-8.46657c-2.40618,-2.85619 -14.92504,-1.27818 -13.72082,-5.24813c0.98879,-3.25979 9.73597,-9.52728 9.55159,-11.59047c-0.18397,-2.05864 -4.62177,-0.39973 -7.4758,-2.90671c-4.05904,-3.56545 -2.2685,-3.73107 -2.2685,-3.73107c0,0 11.00896,-8.48604 16.46445,-11.43016c5.11847,-2.76224 15.32192,-5.72372 15.32192,-5.72372c0,0 -13.65176,15.02177 -15.0585,23.22827c-1.55939,9.09704 17.58568,26.05562 17.58568,26.05562z" data-paper-data="{&quot;index&quot;:null}" fill="url(#color-1)" stroke="none" stroke-width="0" stroke-linecap="butt"/><path d="M229.12527,157.23258c0,0 2.09535,-0.81848 3.18369,-0.98179c1.16959,-0.1755 3.60761,-0.03724 3.60761,-0.03724" fill="url(#color-2)" stroke="#705021" stroke-width="2" stroke-linecap="round"/><g stroke="#705021" stroke-width="2" stroke-linecap="butt"><path d="M251.14829,168.53182c-0.18627,0.17141 -12.80224,2.14535 -13.03391,1.98714c-0.51782,-0.35363 -2.76799,-13.89746 -2.51548,-14.33168c0.17325,-0.29793 13.98348,-2.1067 14.17729,-1.98674c0.48797,0.30204 1.91794,13.82901 1.3721,14.33128z" fill="url(#color-3)"/><path d="M215.01681,159.04809c0.15501,-0.16713 13.94976,-2.09031 14.1959,-1.84908c0.35873,0.35159 1.78565,14.00673 1.38032,14.48514c-0.18134,0.21405 -12.86855,1.6609 -13.09367,1.5451c-0.65963,-0.33931 -2.87281,-13.7604 -2.48256,-14.18117z" data-paper-data="{&quot;index&quot;:null}" fill="url(#color-4)"/></g><g><path d="M227.82813,160.67399c0,0 1.7973,3.30356 0.63988,7.51296c-0.1156,0.42045 -1.6454,3.02381 -3.03197,3.16916c-2.05484,0.21541 -4.19827,-2.1862 -4.22899,-2.52457c-0.11656,-1.28417 0.11153,-2.66685 -0.6295,-5.22638c-0.53676,-1.85401 7.25059,-2.93118 7.25059,-2.93118z" data-paper-data="{&quot;index&quot;:null}" fill="#000000" stroke="none" stroke-width="0" stroke-linecap="butt"/><path d="M218.7621,162.12307l8.07072,-1.25928" fill="none" stroke="#000000" stroke-width="2.5" stroke-linecap="round"/></g><g data-paper-data="{&quot;index&quot;:null}"><path d="M247.22464,157.84992c0,0 1.79731,3.30356 0.63989,7.51296c-0.1156,0.42045 -1.6454,3.02381 -3.03197,3.16916c-2.05484,0.21541 -4.19827,-2.1862 -4.22899,-2.52457c-0.11656,-1.28417 0.11153,-2.66684 -0.6295,-5.22638c-0.53676,-1.85401 7.25058,-2.93118 7.25058,-2.93118z" data-paper-data="{&quot;index&quot;:null}" fill="#000000" stroke="none" stroke-width="0" stroke-linecap="butt"/><path d="M238.15861,159.29899l8.07071,-1.25927" fill="none" stroke="#000000" stroke-width="2.5" stroke-linecap="round"/></g><path d="M230.39757,180.46009c0,0 -6.77299,1.83864 -8.85949,1.55898c-2.15894,-0.28937 -3.88423,-3.26707 -3.88423,-3.26707" fill="none" stroke="#000000" stroke-width="2.5" stroke-linecap="round"/></g></g></g></svg>