<svg version="1.1" xmlns="http://www.w3.org/2000/svg" xmlns:xlink="http://www.w3.org/1999/xlink" width="205.65542" height="76.17155" viewBox="0,0,205.65542,76.17155"><g transform="translate(-128.13144,-135.08066)"><g stroke-miterlimit="10"><path d="M267.96826,156.75405c0,0 27.00255,16.04793 40.53983,12.46663c13.88422,-3.67307 23.02876,-11.59583 23.02876,-11.59583" fill="none" stroke="#ffffff" stroke-width="4.5" stroke-linecap="round"/><path d="M283.10473,168.24416c0,17.07305 -19.29865,30.9135 -43.10473,30.9135c-23.80608,0 -43.10473,-13.84045 -43.10473,-30.9135c0,-17.07305 19.29864,-30.9135 43.10473,-30.9135c23.80608,0 43.10473,13.84045 43.10473,30.9135z" fill="#ff666e" stroke="#ffffff" stroke-width="4.5" stroke-linecap="butt"/><path d="M130.38144,193.32777c0,0 19.51307,-17.01776 33.95724,-17.24228c13.50322,-0.2099 41.3672,-2.35078 41.3672,-2.35078" fill="none" stroke="#ffffff" stroke-width="4.5" stroke-linecap="round"/><path d="M301.49416,204.2128c0,0 -11.04193,-0.07247 -14.07155,-3.29968c-1.46811,-1.56386 4.22811,-7.08139 3.24222,-10.46752c-1.4051,-4.82592 -9.19913,-7.56747 -9.19913,-7.56747" fill="none" stroke="#ffffff" stroke-width="4.5" stroke-linecap="round"/><path d="M150.4099,162.41426c0,0 18.71076,-13.06735 27.19878,-9.1498c8.49263,3.91968 34.19281,12.19761 34.19281,12.19761" fill="none" stroke="#ffffff" stroke-width="4.5" stroke-linecap="round"/><path d="M159.11792,209.00221c0,0 2.9196,0.58955 6.11542,-2.21516c3.26517,-2.86557 6.83778,-9.1597 9.69811,-12.33397c6.19301,-6.87273 27.72661,-8.96254 27.72661,-8.96254" fill="none" stroke="#ffffff" stroke-width="4.5" stroke-linecap="round"/><path d="M279.22815,158.85138c0,0 -20.89361,15.57963 -28.91569,16.46968c-7.22905,0.80205 -7.33256,-8.21978 -7.33256,-8.21978" fill="none" stroke="#ffffff" stroke-width="4.5" stroke-linecap="round"/><g fill="#ffffff" stroke-linecap="butt"><g stroke="none" stroke-width="1"><path d="M243.9194,162.63766c-0.22445,-0.00897 -0.30969,-0.13292 -0.3822,-0.2945c-0.09259,-0.26312 -0.12678,-0.53762 -0.19981,-0.80455c-0.06852,-0.03935 -0.13703,-0.07873 -0.20218,-0.10116c-1.36244,-0.54273 -2.23954,-1.49638 -2.94518,-2.60646c-0.14771,-0.23479 -0.31493,-0.46582 -0.36853,-0.73651c-0.01002,-0.05077 -0.04294,-0.11463 -0.08866,-0.14087c-0.25125,-0.14431 -0.29483,-0.36428 -0.36123,-0.59737c-0.05971,-0.19922 -0.08045,-0.40606 -0.12065,-0.6091c-0.02346,-0.11842 -0.00795,-0.24447 0.09224,-0.35189c0.10017,-0.10738 0.13184,-0.25415 0.1668,-0.38397c0.1126,-0.76 0.37164,-1.49585 0.75768,-2.20374c0.2253,-0.39538 0.52244,-0.73449 0.8391,-1.07738c0.93382,-1.008 2.11005,-1.7118 3.4535,-2.18463c0.60686,-0.20617 1.24998,-0.33157 1.90649,-0.3893c0.49723,-0.04422 0.979,0.03759 1.44462,0.1401c1.48151,0.32622 2.65972,1.06298 3.59252,2.09365c0.17997,0.19337 0.3082,0.43193 0.43644,0.67053c0.09198,0.15777 0.20012,0.29486 0.41509,0.3584c0.19211,0.05042 0.30025,0.18747 0.37274,0.34905c0.09259,0.26312 0.14621,0.53383 0.19981,0.80455c0.01675,0.08461 -0.0088,0.1599 -0.03441,0.23518c-0.12846,0.27105 -0.13667,0.53627 -0.10251,0.81079c0.09447,0.57908 -0.01267,1.16227 -0.10034,1.74169c-0.03775,0.21825 -0.09494,0.44026 -0.19447,0.65298c-0.30808,0.69269 -0.64237,1.35536 -1.17214,1.95069c0.05026,0.25377 0.08439,0.52831 0.13804,0.79902c0.0201,0.10152 0.04355,0.21997 -0.05998,0.31041c-0.08403,0.08665 -0.04445,0.18441 -0.02431,0.2859c0.11458,0.68056 0.24863,1.35735 0.3632,2.03791c0.27875,1.50964 0.56094,3.03618 0.80074,4.55341c0.2331,1.4834 0.5247,2.95538 0.79677,4.43118c0.04693,0.23688 0.05149,0.46443 0.09844,0.70127c0.22791,1.15053 0.45578,2.30105 0.66419,3.45538c0.04022,0.20303 0.11939,0.39847 0.03932,0.60736c-0.02556,0.0753 0.01067,0.15605 0.02741,0.24066c0.16762,0.84598 0.31902,1.71268 0.4866,2.55866c0.0067,0.03383 0.01673,0.0846 0.02346,0.11842c0.07314,0.26691 -0.0365,0.42887 -0.28587,0.6005c-0.83885,0.56774 -1.77365,0.85544 -2.80441,0.86315c-0.2634,-0.00137 -0.53349,-0.03658 -0.79081,-0.1094c-0.19213,-0.05043 -0.29691,-0.17055 -0.34992,-0.33593c-0.159,-0.49621 -0.3375,-0.98857 -0.49985,-1.50169c-0.11271,-0.36465 -0.1898,-0.75381 -0.36097,-1.10701c-0.37523,-0.77033 -0.51996,-1.60321 -0.83676,-2.38491c-0.16846,-0.44161 -0.37252,-0.85875 -0.52149,-1.30418c-0.15565,-0.47926 -0.34692,-0.93402 -0.51875,-1.39252c-0.30733,-0.8363 -0.57903,-1.69713 -0.90588,-2.52961c-0.45838,-1.08799 -0.83887,-2.19124 -1.21931,-3.29443c-0.13555,-0.37778 -0.27112,-0.75545 -0.40666,-1.13324c-0.19863,-0.59391 -0.40055,-1.20472 -0.59914,-1.7986c-0.10603,-0.33079 -0.24763,-0.63707 -0.35366,-0.96784c-0.12886,-0.34395 -0.19251,-0.66536 -0.30523,-1.03002zM244.35966,162.3058c0.25396,0.05592 0.50122,0.07802 0.75791,0.04557c0.53686,0.05346 1.06973,-0.01527 1.60262,-0.08404c0.67265,-0.07844 1.35138,-0.22834 2.01064,-0.37446c0.75669,-0.16512 1.4214,-0.48801 2.10227,-0.83164c0.07124,-0.04905 0.1425,-0.09807 0.24936,-0.17161c-0.02678,-0.13535 -0.05366,-0.2707 -0.08045,-0.40604c-0.0067,-0.03383 -0.03289,-0.06388 -0.06244,-0.11082c-0.13641,0.02659 -0.26948,0.0701 -0.3992,0.13055c-0.22379,0.09638 -0.43481,0.15505 -0.65862,0.25139c-0.56454,0.21549 -1.17875,0.28259 -1.75332,0.44734c-0.30845,0.07774 -0.61021,0.18924 -0.92535,0.23313c-0.69215,0.08226 -1.36752,0.24906 -2.07304,0.26361c-0.18211,0.00034 -0.38367,0.00454 -0.5658,0.00487c-0.09807,-0.08634 -0.24726,-0.02206 -0.35142,-0.03693c-0.12698,-0.02796 -0.25399,-0.05591 -0.46496,0.00281c0.17997,0.19337 0.16509,0.42472 0.28323,0.61254c0.10081,-0.00206 0.19885,0.08423 0.32858,0.02378zM245.25305,162.72907c-0.4784,-0.06491 -0.59865,-0.05899 -0.84531,0.02423c0.05971,0.19922 0.11608,0.38157 0.17577,0.5808c0.02346,0.11842 0.11813,0.18785 0.24518,0.21581c0.0847,0.01864 0.18208,-0.00035 0.26674,0.01828c0.3158,0.06147 0.65715,0.04759 0.96558,-0.03012c0.15319,0.05797 0.30907,0.02763 0.46499,-0.00278c0.8803,-0.15406 1.7445,-0.28745 2.60807,-0.52609c0.38308,-0.10984 0.7628,-0.23657 1.11964,-0.37645c0.27895,-0.12469 0.57733,-0.25315 0.77097,-0.50179c-0.04357,-0.21997 -0.08718,-0.43989 -0.13072,-0.65987c-0.14918,0.06422 -0.27894,0.12467 -0.38913,0.18128c-0.51886,0.24173 -1.04441,0.44965 -1.58339,0.58988c-0.6915,0.18753 -1.39979,0.29049 -2.10472,0.41036c-0.33133,0.06461 -0.66323,0.02391 -0.99117,0.1054c-0.19885,-0.08423 -0.39708,-0.06317 -0.57247,-0.02897zM251.39977,181.08926c0.29293,0.04832 0.56911,0.01207 0.83858,-0.05805c0.02282,0.01311 0.06518,0.02243 0.08469,0.01863c0.46436,-0.1081 0.92203,-0.25005 1.32061,-0.48593c0.23663,-0.134 0.47654,-0.25107 0.63452,-0.47517c-0.18769,-0.94751 -0.37539,-1.89496 -0.57308,-2.89325c-0.43084,0.27728 -0.88184,0.45314 -1.33611,0.61197c-0.39586,0.14749 -0.79568,0.1727 -1.19822,0.28634c-0.15588,0.03041 -0.29567,0.0401 -0.45158,0.0705c-0.2506,-0.03901 -0.51401,-0.04036 -0.80966,-0.00031c0.10056,0.5076 0.3503,0.95094 0.48312,1.41709c0.15566,0.47926 0.33081,0.95475 0.48313,1.41707c0.19884,0.08423 0.36147,0.0877 0.52408,0.09112zM250.23894,177.78346c0.15319,0.05795 0.31245,0.04452 0.46832,0.01412c0.16932,0.0373 0.34139,-0.01382 0.5201,-0.03109c0.54902,-0.08949 1.08131,-0.26354 1.58735,-0.46765c0.29838,-0.12847 0.5901,-0.29081 0.82939,-0.5132c-0.0134,-0.06769 -0.00732,-0.13914 -0.02076,-0.20683c-0.16419,-0.82909 -0.32505,-1.64118 -0.46982,-2.47403c-0.1548,-0.88361 -0.30624,-1.7503 -0.46101,-2.63391c-0.23525,-1.28969 -0.44757,-2.56624 -0.68284,-3.85593c-0.24589,-1.44575 -0.54691,-2.86319 -0.75381,-4.31655c-0.02741,-0.24066 -0.09723,-0.49066 -0.14747,-0.74446c-0.20094,0.10948 -0.37571,0.249 -0.58337,0.32462c-0.65192,0.28527 -1.34344,0.4728 -2.04166,0.62653c-0.6236,0.12158 -1.25059,0.22625 -1.87758,0.33092c-0.26007,0.01556 -0.49725,0.04422 -0.7573,0.05979c-0.17599,-0.07112 -0.3447,-0.00308 -0.50733,-0.00652c-0.18211,0.00034 -0.35139,-0.03693 -0.54293,0.01799c-0.00546,0.17679 0.06032,0.30457 0.10328,0.41918c0.41212,0.95648 0.67166,1.96024 1.0253,2.92809c0.22481,0.62395 0.44958,1.2479 0.6939,1.86802c0.30733,0.8363 0.6308,1.65186 0.93481,2.47123c0.25437,0.67089 0.50868,1.3418 0.74352,2.0165c0.26437,0.72168 0.50591,1.4302 0.75083,2.15568c0.2315,0.65777 0.46638,1.33247 0.7207,2.00337c0.17872,-0.01729 0.31578,0.06143 0.46832,0.01414zM252.25695,153.84227c-0.39855,0.23585 -0.79445,0.38335 -1.18691,0.54774c-0.41199,0.1682 -0.8011,0.34952 -1.21643,0.50077c-0.39587,0.14748 -0.81793,0.2649 -1.21712,0.39543c-0.41872,0.13434 -0.83738,0.2687 -1.27887,0.38996c-0.40253,0.11362 -0.82795,0.21411 -1.23051,0.32775c-0.42538,0.1005 -0.86418,0.13335 -1.27618,0.30154c-0.42932,-0.02172 -0.84467,0.12955 -1.25729,0.19245c-0.43541,0.04974 -0.88369,0.13716 -1.31913,0.18691c-0.41593,0.04594 -0.85473,0.07875 -1.27404,0.1078c-0.43881,0.03282 -0.87152,-0.00585 -1.30021,0.07778c0.04146,0.41368 0.06491,0.5321 0.28114,0.80625c0.2506,0.03901 0.50124,0.07802 0.78409,0.07557c0.34136,-0.01383 0.68269,-0.02766 1.04691,-0.02837c0.68606,-0.01073 1.34928,-0.03465 2.03138,-0.16762c0.46773,-0.09119 0.93209,-0.19932 1.41323,-0.22281c0.10081,-0.00206 0.21772,-0.02488 0.32791,-0.08151c0.22378,-0.09639 0.48051,-0.12881 0.71434,-0.17444c0.85749,-0.16718 1.69485,-0.43589 2.50939,-0.71773c1.08405,-0.35196 2.10561,-0.81472 3.1171,-1.32829c0.20429,-0.09257 0.40863,-0.1851 0.53431,-0.36778c-0.01127,-0.2614 -0.08105,-0.51142 -0.20317,-0.82145zM243.98497,153.36396c-0.11232,0.25035 -0.14673,0.48553 -0.20058,0.72447c-0.0606,0.2051 -0.03985,0.41195 0.07833,0.5998c0.19401,0.36634 0.33294,0.76101 0.39384,1.1709c0.0067,0.03383 0.0362,0.08081 0.03957,0.09771c0.10748,0.03174 0.18543,0.01652 0.27286,-0.05321c0.01614,-0.0207 0.02891,-0.05835 0.02556,-0.07529c-0.03873,-0.50207 -0.03846,-1.01171 0.00076,-1.52899c0.00609,-0.07149 0.00546,-0.17678 -0.04694,-0.23688c-0.13157,-0.25552 -0.26314,-0.51102 -0.56343,-0.69851zM243.32171,156.14676c-0.03203,-0.46821 -0.02171,-0.92712 0.01144,-1.3729c0.01214,-0.14294 -0.03077,-0.25759 -0.11608,-0.38155c-0.13765,-0.18401 -0.3076,-0.32663 -0.48089,-0.48616c-0.05239,-0.06007 -0.10809,-0.13706 -0.21834,-0.08044c-0.04047,0.30665 -0.10376,0.60017 -0.10529,0.89916c0.47208,0.64602 0.47205,0.64602 0.65241,1.45433c0.0685,0.03937 0.14983,0.04107 0.2567,-0.03248zM248.44753,156.88705c-0.01764,0.31976 -0.01576,0.63574 -0.01391,0.95168c-0.00609,0.07149 -0.01216,0.14294 0.02073,0.20682c0.19001,0.2441 0.36062,0.49202 0.63804,0.6664c0.19365,-0.24863 0.20182,-0.51382 0.27184,-0.77351c0.035,-0.1298 -0.0046,-0.22756 -0.08654,-0.33458c-0.20951,-0.24031 -0.38009,-0.48826 -0.53445,-0.75684c-0.00333,-0.01693 -0.04565,-0.02626 -0.09133,-0.05247c-0.05511,0.02831 -0.12976,0.06045 -0.20431,0.09257zM247.87241,152.55327c-0.19972,0.32011 -0.26639,0.5967 -0.35252,0.8771c-0.01889,0.10912 0.01739,0.18989 0.05364,0.2707c0.19738,0.38327 0.33624,0.77797 0.40055,1.20476c0.01004,0.05076 0.03957,0.09772 0.04966,0.14847c0.21773,-0.02488 0.25335,-0.04938 0.22652,-0.18474c-0.08716,-0.43994 -0.07347,-0.88191 0.04432,-1.30905c0.07001,-0.25968 0.0103,-0.45892 -0.13069,-0.65988c-0.10142,-0.10327 -0.17998,-0.19339 -0.29144,-0.34737zM245.62464,155.71531c0.09742,-0.01902 0.10349,-0.09051 0.09011,-0.15819c-0.09381,-0.47373 -0.02844,-0.96096 0.037,-1.4482c0.04319,-0.39502 -0.11183,-0.76897 -0.47789,-1.0842c-0.10625,0.17886 -0.09223,0.35188 -0.1595,0.52315c-0.13121,0.35946 -0.06751,0.68091 0.07745,1.00413c0.15169,0.35702 0.32285,0.71028 0.35762,1.09009c0.02956,0.04693 0.05239,0.0601 0.07522,0.0732zM246.51172,152.83613c-0.07672,0.22582 -0.14737,0.38018 -0.19849,0.53073c-0.09282,0.24657 -0.07211,0.4534 0.05274,0.67506c0.1806,0.29867 0.28662,0.62946 0.37314,0.96403c0.04295,0.11466 0.06975,0.25 0.09322,0.36842c0.10081,-0.00206 0.11021,-0.05661 0.10351,-0.09046c0.00022,-0.50966 0.01998,-1.02311 0.12106,-1.53488c0.00273,-0.08839 0.0088,-0.15986 -0.02744,-0.24066c-0.14436,-0.21788 -0.26922,-0.43955 -0.51772,-0.67225zM249.64177,156.4785c0.14163,0.30628 0.14347,0.62222 0.16481,0.93439c0.01675,0.08459 -0.0283,0.16368 0.02743,0.24066c0.0853,0.12398 0.37276,0.34907 0.6173,0.45957c0.10292,-0.19581 0.10165,-0.40643 0.14278,-0.60777c0.02829,-0.16368 -0.01799,-0.29523 -0.14225,-0.41158c-0.20279,-0.20647 -0.36667,-0.42055 -0.47875,-0.67987c-0.00333,-0.01694 -0.04905,-0.04314 -0.07186,-0.05626c-0.08132,-0.00171 -0.15928,0.01346 -0.25943,0.12088zM243.19812,158.89464c0.16385,0.21405 0.20132,0.50553 0.42029,0.69129c0.13307,-0.04352 0.17479,-0.13951 0.23933,-0.22239c0.10959,-0.16197 0.24539,-0.29385 0.30597,-0.49897c-0.17724,-0.28176 -0.20532,-0.62774 -0.36644,-0.93021c-0.10748,-0.03174 -0.20493,-0.01278 -0.29566,0.04008c-0.05994,0.31044 -0.16222,0.61156 -0.30349,0.92025zM246.15867,157.49151c-0.00546,0.17679 -0.01094,0.35359 -0.08491,0.49101c-0.17689,0.3332 -0.10038,0.61707 0.11248,0.87429c0.07855,0.09011 0.09866,0.19164 0.23571,0.27038c0.16137,-0.20722 0.26093,-0.41991 0.36044,-0.63265c0.02894,-0.05836 0.01549,-0.12603 -0.02074,-0.20682c-0.12826,-0.23859 -0.23363,-0.46406 -0.36181,-0.70265c-0.01002,-0.05077 -0.06245,-0.11085 -0.24121,-0.09356zM244.93095,157.73091c-0.00421,0.38744 -0.05416,0.7486 -0.25386,1.06872c-0.0484,0.06215 -0.0155,0.12603 -0.00207,0.1937c0.04965,0.14849 0.11881,0.29318 0.26587,0.42261c0.22594,-0.29008 0.35439,-0.56119 0.4795,-0.84915c0.0417,-0.09598 0.04448,-0.18438 0.00484,-0.28213c-0.07579,-0.17852 -0.13221,-0.36084 -0.20806,-0.53935c-0.00333,-0.01694 -0.04905,-0.04317 -0.07187,-0.05627c-0.05846,0.01139 -0.11694,0.0228 -0.21435,0.04183zM249.51777,153.09355c-0.11147,-0.15398 -0.22626,-0.32494 -0.33775,-0.47895c-0.02282,-0.01311 -0.0457,-0.02625 -0.09135,-0.05247c-0.18424,0.19406 -0.26093,0.41992 -0.30205,0.62122c0.24033,0.49791 0.47392,0.96197 0.58787,1.53726c0.21921,-0.32391 0.02914,-0.56801 0.04405,-0.79936c0.00483,-0.28212 0.052,-0.55488 0.09915,-0.82768zM243.63162,153.0111c-0.23509,-0.16502 -0.43126,-0.33767 -0.72751,-0.40291c-0.0545,0.13363 -0.13516,0.23723 -0.17351,0.35016c-0.03832,0.11291 -0.09618,0.22961 -0.07269,0.34806c0.08864,0.14085 0.24516,0.21579 0.36605,0.31523c0.12092,0.0994 0.20619,0.2234 0.37882,0.27761c0.08278,-0.29734 0.14946,-0.57388 0.22891,-0.88813zM242.0812,156.42377c-0.02261,-0.52277 -0.04795,-0.95718 -0.07324,-1.39154c-0.0067,-0.03383 0.00277,-0.08841 -0.04294,-0.11463c-0.17328,-0.1595 -0.3143,-0.36047 -0.59108,-0.42951c-0.03104,0.25206 -0.06542,0.48724 -0.08031,0.7186c0.33043,0.33977 0.55062,0.73613 0.78759,1.21712zM247.7115,158.89333c0.15194,-0.15265 0.15739,-0.32942 0.20855,-0.47997c0.0673,-0.17127 0.0761,-0.33112 -0.03874,-0.50204c-0.1477,-0.23479 -0.29542,-0.46959 -0.31009,-0.74794c-0.14314,-0.00724 -0.21773,0.02487 -0.19761,0.1264c0.03079,0.25757 0.06489,0.5321 -0.00844,0.77485c-0.09222,0.35188 0.11395,0.57532 0.34635,0.82871zM245.70851,158.89724c-0.19637,0.33703 -0.36717,0.59878 -0.51848,0.85671c0.02346,0.11842 0.09533,0.17473 0.14772,0.23477c0.07187,0.05627 0.13093,0.15017 0.27404,0.15743c0.18759,-0.17717 0.34891,-0.38434 0.48747,-0.60462c-0.10203,-0.20853 -0.2202,-0.39639 -0.39074,-0.64431zM248.93229,159.12977c-0.22565,-0.2196 -0.42516,-0.40914 -0.62794,-0.61562c-0.09285,0.24656 -0.18904,0.47621 -0.28525,0.70583c0.17997,0.19337 0.31764,0.37742 0.58165,0.48404c0.14523,-0.18645 0.22864,-0.37847 0.33154,-0.57426zM244.45984,152.28726c-0.21375,0.14711 -0.22865,0.37847 -0.31208,0.57045c-0.02894,0.05836 0.0073,0.13915 0.05637,0.18231c0.15043,0.14641 0.27805,0.2797 0.4251,0.40918c0.00333,0.01693 0.04235,0.00931 0.08134,0.00173c0.08952,-0.26346 0.1561,-0.54004 0.24564,-0.80353c-0.13093,-0.15019 -0.31365,-0.25514 -0.4964,-0.36009zM247.54549,152.23041c-0.11484,-0.17091 -0.22627,-0.32491 -0.4641,-0.40157c-0.12573,0.1827 -0.29046,0.37297 -0.3477,0.595c0.08191,0.10704 0.12486,0.22166 0.22292,0.30798c0.07853,0.09011 0.08587,0.2293 0.27134,0.24583c0.11234,-0.25035 0.22465,-0.50069 0.31754,-0.74727zM249.46109,158.9388c0.10812,0.13707 0.30027,0.18747 0.49576,0.25479c0.11573,-0.23343 0.28038,-0.42371 0.31146,-0.67577c-0.18274,-0.10497 -0.31702,-0.27206 -0.55821,-0.36564c-0.08952,0.26346 -0.15953,0.52314 -0.24901,0.78661zM250.79641,155.97224c0.04084,0.30835 0.16301,0.61841 0.16483,0.9344c0.01129,0.2614 0.17455,0.37012 0.43519,0.4599c0.09953,-0.21268 0.10165,-0.40642 0.11988,-0.62085c-0.30697,-0.22129 -0.46812,-0.52378 -0.71994,-0.77341zM240.94298,156.39967c0.07461,-0.03211 0.06452,-0.08287 0.0545,-0.13362c-0.02407,-0.22374 -0.07099,-0.46063 -0.07559,-0.68819c0.01426,-0.33667 -0.21414,-0.46786 -0.50435,-0.60458c-0.01551,0.12607 -0.03771,0.21822 -0.04045,0.30662c-0.01821,0.21444 -0.00088,0.40433 0.21139,0.55627c0.12091,0.09941 0.19003,0.24413 0.25587,0.37187c-0.00609,0.07149 -0.0283,0.16367 0.09866,0.19164zM242.38214,159.47551c0.08403,-0.08665 0.1291,-0.16576 0.17751,-0.22791c0.16806,-0.17334 0.19638,-0.33705 0.11716,-0.53247c-0.07245,-0.16159 -0.08985,-0.35153 -0.14285,-0.51691c-0.01003,-0.05078 -0.00062,-0.10531 -0.1404,-0.09565c-0.05055,0.25588 -0.14002,0.51937 -0.27185,0.77352c-0.02894,0.05836 -0.01216,0.14291 0.00122,0.2106c0.06577,0.12773 0.12822,0.23862 0.25919,0.38878zM247.4895,159.30564c-0.11144,-0.15399 -0.20678,-0.32871 -0.37341,-0.45437c-0.158,0.22412 -0.34221,0.41818 -0.43507,0.66473c0.15045,0.14639 0.2424,0.30418 0.47689,0.36393c0.12575,-0.1827 0.27436,-0.35224 0.33153,-0.57427zM245.9282,153.16078c0.15798,-0.22411 0.23471,-0.44995 0.27242,-0.66817c-0.15042,-0.1464 -0.27805,-0.27965 -0.48362,-0.39774c-0.13581,0.13193 -0.20643,0.28629 -0.2542,0.45375c0.1605,0.19715 0.30152,0.39811 0.46534,0.61219zM245.90925,160.4221c0.14041,0.09566 0.2156,0.16883 0.32647,0.21749c0.06852,0.03935 0.13366,0.06181 0.19887,0.08424c0.17811,-0.12258 0.33006,-0.27522 0.41349,-0.46722c-0.13093,-0.15019 -0.26191,-0.30036 -0.48028,-0.38081c-0.14523,0.18645 -0.29716,0.33911 -0.45851,0.54629zM241.48976,158.13821c-0.17414,0.24486 -0.30323,0.41056 -0.44513,0.61396c-0.00609,0.07149 0.03683,0.18609 0.11543,0.27623c0.05907,0.0939 0.04358,0.21995 0.17726,0.28176c0.16534,-0.08497 0.26549,-0.19236 0.3395,-0.32978c-0.07313,-0.26691 -0.12335,-0.52072 -0.18702,-0.84217zM243.09721,152.25417c0.11423,0.0656 0.22844,0.13122 0.3426,0.19683c0.11424,0.06561 0.22506,0.11425 0.33924,0.17987c0.09956,-0.21268 0.20918,-0.37467 0.21129,-0.56836c-0.07855,-0.0901 -0.20219,-0.10115 -0.30967,-0.13293c-0.10748,-0.03174 -0.22506,-0.11425 -0.35809,-0.07075c-0.09348,0.14127 -0.19362,0.24862 -0.2253,0.3954zM248.32642,160.05626c-0.18942,-0.13879 -0.32708,-0.32285 -0.58779,-0.41259c-0.10958,0.16196 -0.19971,0.3201 -0.30935,0.48208c0.18942,0.13879 0.3365,0.2683 0.58714,0.30727c0.11965,-0.1112 0.24603,-0.18855 0.30996,-0.37675zM241.99753,154.36653c0.05663,-0.32734 0.10044,-0.61705 0.14424,-0.90673c-0.09807,-0.08634 -0.17663,-0.17646 -0.31974,-0.18367c-0.17751,0.22794 -0.22802,0.48375 -0.29803,0.74344c0.09808,0.08634 0.19611,0.17266 0.31031,0.23824c0.03289,0.0639 0.07521,0.07318 0.1632,0.10876zM244.68336,159.85274c-0.15384,-0.1633 -0.19401,-0.36637 -0.37675,-0.47133c-0.18083,0.211 -0.34555,0.40127 -0.46128,0.63474c0.15991,0.09184 0.19338,0.26104 0.40838,0.32456c0.17809,-0.12258 0.26491,-0.2977 0.42964,-0.48795zM248.35863,151.73799c-0.11631,0.12812 -0.20976,0.26935 -0.2609,0.41993c0.15717,0.18023 0.2948,0.36426 0.45866,0.57833c0.08004,-0.20887 0.17019,-0.36705 0.2926,-0.56665c-0.15716,-0.18024 -0.29145,-0.34737 -0.49033,-0.4316zM242.55332,159.82873c0.12151,0.20477 0.21687,0.37947 0.43854,0.47684c0.13913,-0.115 0.26217,-0.20924 0.31332,-0.35982c-0.11816,-0.18784 -0.21685,-0.37944 -0.36121,-0.59733c-0.15194,0.15265 -0.28438,0.30149 -0.39064,0.48035zM246.44882,152.11034c0.09619,-0.22962 0.29048,-0.37299 0.29258,-0.5667c-0.15042,-0.1464 -0.32646,-0.21751 -0.51863,-0.26793c-0.13243,0.14884 -0.26825,0.28075 -0.28987,0.47825c0.16321,0.10877 0.307,0.22129 0.51589,0.3563zM249.72494,159.55512c-0.1599,-0.09184 -0.28077,-0.19125 -0.46959,-0.22473c-0.09953,0.21268 -0.29047,0.37295 -0.32486,0.60812c0.1404,0.09565 0.27075,0.14053 0.44948,0.12324c0.12909,-0.16576 0.23536,-0.34461 0.34493,-0.50658zM241.04083,154.23671c-0.14375,-0.11258 -0.25456,-0.1612 -0.40108,-0.18543c-0.10959,0.16197 -0.19304,0.35394 -0.15278,0.55696c0.13704,0.07872 0.27403,0.15742 0.41446,0.25309c0.11907,-0.21652 0.09833,-0.42332 0.13938,-0.62466zM252.26956,157.0732c-0.13365,-0.0618 -0.24455,-0.11048 -0.36479,-0.1046c-0.08342,0.19196 -0.12781,0.3764 -0.12995,0.57011c0.11752,0.08253 0.22838,0.1312 0.37151,0.13844c0.10292,-0.19581 0.08216,-0.40263 0.12324,-0.60394zM246.84846,160.87158c0.15712,0.18023 0.3164,0.16675 0.48845,0.11564c0.1364,-0.02658 0.26614,-0.08702 0.2978,-0.2338c-0.14375,-0.11258 -0.28412,-0.2082 -0.47627,-0.25861c-0.11631,0.12812 -0.21312,0.25244 -0.30995,0.37675zM250.43702,152.93186c-0.08863,-0.14087 -0.11543,-0.2762 -0.2686,-0.33422c-0.33278,0.36364 -0.1717,0.66612 0.09358,0.9834c0.05723,-0.22202 0.11782,-0.42718 0.17502,-0.64917zM244.95897,160.83586c0.16201,-0.10185 0.26216,-0.20926 0.34893,-0.38434c-0.15319,-0.05797 -0.20623,-0.22339 -0.37552,-0.26066c-0.11362,0.03971 -0.13914,0.11498 -0.20705,0.18093c-0.06452,0.08286 -0.15528,0.13571 -0.13184,0.25415c0.09808,0.08634 0.19615,0.17265 0.36545,0.20993zM246.05943,155.56027c0.23445,0.05972 0.34472,0.00308 0.33402,-0.15297c-0.02406,-0.22373 -0.08713,-0.43991 -0.14685,-0.63915c-0.01338,-0.06766 -0.04969,-0.14846 -0.1733,-0.1595c-0.03712,0.32356 -0.03525,0.63947 -0.01391,0.95164zM250.84245,159.37238c0.05908,0.09391 0.14709,0.1295 0.26738,0.12362c0.16474,-0.19029 0.3718,-0.37122 0.44181,-0.63089c-0.25396,-0.05591 -0.42271,0.0121 -0.52558,0.20788c-0.06452,0.08287 -0.17145,0.15646 -0.18361,0.29939zM248.63731,154.88189c0.27281,-0.05318 0.32456,-0.09848 0.29443,-0.25071c-0.06642,-0.23308 -0.13616,-0.48305 -0.28054,-0.70094c-0.09558,0.33495 -0.17502,0.64919 -0.01391,0.95165zM251.87966,156.02459c0.0073,0.13914 0.03081,0.2576 0.03475,0.37981c0.0274,0.24068 0.02743,0.24067 0.39499,0.25691c0.01551,-0.12607 0.04718,-0.2728 0.05325,-0.34426c-0.18273,-0.10499 -0.3231,-0.2006 -0.48298,-0.29242zM245.31392,150.9785c-0.1002,0.1074 -0.26885,0.17545 -0.23201,0.36157c0.13366,0.06181 0.28351,0.10288 0.44002,0.17779c0.11633,-0.12813 0.25549,-0.24307 0.28712,-0.38985c-0.15321,-0.05796 -0.29023,-0.13674 -0.49516,-0.1495zM250.95553,157.59307c-0.05384,0.23894 -0.12725,0.48169 -0.18109,0.72065c0.05574,0.07696 0.12757,0.13327 0.23778,0.07665c0.14523,-0.18645 0.24481,-0.39921 0.25968,-0.63054c-0.09807,-0.08634 -0.18942,-0.13879 -0.31643,-0.16674zM249.0259,151.83635c0.13307,-0.04352 0.21712,-0.13019 0.27495,-0.24692c-0.05238,-0.06008 -0.10477,-0.12016 -0.15716,-0.18022c-0.07518,-0.07321 -0.13097,-0.15019 -0.25459,-0.16121c-0.11692,0.0228 -0.20767,0.07559 -0.26885,0.17543c0.12763,0.13329 0.27808,0.27966 0.40562,0.41295zM245.11972,152.24648c0.11633,-0.12813 0.17081,-0.26177 0.20247,-0.40851c-0.17599,-0.07112 -0.33254,-0.14603 -0.48568,-0.20403c-0.14585,0.0812 -0.2037,0.19789 -0.20309,0.3032c0.16321,0.10877 0.32646,0.21751 0.48632,0.30939zM249.90922,152.20887c-0.07855,-0.0901 -0.15712,-0.18023 -0.2552,-0.26658c-0.02282,-0.0131 -0.06184,-0.00551 -0.10419,-0.01483c-0.06791,0.06596 -0.17812,0.12258 -0.20977,0.26935c0.08532,0.12398 0.15781,0.28552 0.32101,0.3943c0.13911,-0.11499 0.19694,-0.23173 0.24811,-0.38227zM251.23046,153.46252c-0.01738,-0.18991 0.19028,-0.26557 0.15678,-0.43472c-0.10476,-0.12012 -0.15437,-0.26863 -0.33712,-0.37358c-0.11965,0.1112 -0.21985,0.21863 -0.13119,0.35947c0.08863,0.14088 0.09929,0.29693 0.31154,0.44887zM251.83203,158.44137c0.05449,-0.13363 0.12846,-0.27107 0.18631,-0.38775c0.01615,-0.02072 -0.01005,-0.05078 -0.01677,-0.0846c-0.10415,-0.01483 -0.21832,-0.08047 -0.38367,0.00454c-0.07059,0.15435 -0.13793,0.32562 -0.22468,0.50071c0.14981,0.04109 0.27011,0.03518 0.43881,-0.03282zM244.36085,151.48064c-0.13703,-0.07873 -0.27743,-0.17435 -0.39162,-0.23994c-0.16534,0.08496 -0.26554,0.19235 -0.3462,0.29595c0.04297,0.11467 0.18271,0.10495 0.27074,0.14052c0.08805,0.03555 0.17936,0.08803 0.31244,0.04451c0.07124,-0.04905 0.13915,-0.11502 0.15468,-0.24106zM243.23091,160.59284c0.12092,0.0994 0.21562,0.16885 0.31033,0.23824c0.02618,0.03006 0.08802,0.03559 0.11087,0.04869c0.1364,-0.02658 0.22047,-0.11326 0.27828,-0.22999c-0.12426,-0.11635 -0.22903,-0.23651 -0.38884,-0.32838c-0.10686,0.07356 -0.19092,0.16025 -0.31058,0.27143zM252.40236,155.9051c0.03442,-0.23517 0.06876,-0.47029 -0.0366,-0.69578c-0.16533,0.08496 -0.31793,0.13229 -0.38853,0.28662c0.15438,0.26863 0.1544,0.26863 0.42511,0.40915zM245.33711,161.00815c0.395,0.25691 0.41444,0.25308 0.73174,0.01544c-0.14041,-0.09566 -0.2969,-0.17052 -0.43728,-0.26621c-0.13307,0.04352 -0.21709,0.13018 -0.29446,0.25069zM248.01885,151.45278c-0.12425,-0.11635 -0.24181,-0.19887 -0.41113,-0.23617c-0.03564,0.02452 -0.08741,0.06976 -0.13917,0.115c-0.03227,0.04145 -0.06121,0.09982 -0.09346,0.14121c0.12427,0.11634 0.23241,0.25343 0.40505,0.30764c0.10685,-0.07355 0.18424,-0.19406 0.23867,-0.32771zM241.9041,160.02562c0.05173,-0.04524 0.11964,-0.11122 0.1291,-0.16578c0.02163,-0.19753 -0.0509,-0.35906 -0.2242,-0.51862c-0.10355,0.09046 -0.25271,0.15471 -0.29109,0.26766c0.11144,0.15399 0.16783,0.3363 0.38616,0.41673zM241.44378,153.1038c-0.0228,-0.01312 -0.04567,-0.02624 -0.09135,-0.05246c-0.22654,0.18478 -0.38455,0.40888 -0.54254,0.63298c0.08192,0.10703 0.16992,0.14258 0.32916,0.12911c0.09619,-0.22962 0.21185,-0.46305 0.30474,-0.70963zM247.39241,154.42174c-0.06666,0.27659 -0.15612,0.54003 -0.07967,0.82388c0.00333,0.01694 0.08803,0.03554 0.12698,0.02795c0.09742,-0.01903 0.16198,-0.10189 0.14519,-0.18646c0.01492,-0.23135 -0.06766,-0.44372 -0.1925,-0.66536zM247.25842,150.98597c-0.11753,-0.08255 -0.23511,-0.16504 -0.38492,-0.20613c-0.13641,0.02659 -0.22716,0.07943 -0.30114,0.21683c0.15655,0.07493 0.31641,0.16678 0.46956,0.22476c0.11018,-0.05662 0.17809,-0.12259 0.21648,-0.2355zM248.35303,160.70125c0.27618,-0.03628 0.5134,-0.06491 0.72379,-0.22896c-0.08863,-0.14086 -0.23844,-0.18196 -0.4044,-0.20232c-0.13579,0.13191 -0.25546,0.2431 -0.31937,0.43133zM240.51117,158.71563c0.1553,-0.13572 0.17143,-0.1564 0.16139,-0.2072c-0.014,-0.17297 -0.14162,-0.30629 -0.26587,-0.42261c-0.04901,-0.04313 -0.14984,-0.04105 -0.1882,0.07186c0.14708,0.1295 0.1127,0.36467 0.29272,0.55798zM242.24672,153.07026c0.11573,-0.23343 0.25422,-0.45375 0.2167,-0.74517c-0.24935,0.17162 -0.34558,0.40129 -0.44844,0.59706c0.03621,0.08081 0.1014,0.10321 0.23175,0.14809zM244.22115,160.89183c-0.08738,0.06976 -0.17811,0.1226 -0.26548,0.19235c0.12761,0.1333 0.268,0.22893 0.47231,0.13636c0.05512,-0.02831 0.11018,-0.05663 0.11631,-0.12812c-0.05907,-0.0939 -0.16994,-0.14259 -0.3231,-0.2006zM249.90955,154.45814c0.1754,-0.03423 0.24663,-0.0832 0.20033,-0.21476c-0.04295,-0.11466 -0.08591,-0.22929 -0.14835,-0.34013c-0.02956,-0.04692 -0.07858,-0.09015 -0.15317,-0.05802c-0.01824,0.21443 0.01863,0.40055 0.10118,0.6129zM242.43703,155.56363c-0.03441,0.23518 -0.02976,0.46273 0.07224,0.67127c0.00335,0.01694 0.08802,0.03554 0.10748,0.03174c0.03895,-0.0076 0.06791,-0.06596 0.06119,-0.09981c-0.06304,-0.21616 -0.06429,-0.42681 -0.24095,-0.60327zM241.61565,156.32126c-0.09196,-0.1578 -0.12885,-0.34395 -0.28261,-0.50727c-0.05386,0.23894 -0.05597,0.43267 0.0226,0.52278c0.05907,0.0939 0.13704,0.07874 0.26001,-0.01554zM250.20309,160.12965c0.22379,-0.09638 0.49666,-0.14957 0.59285,-0.37921c-0.37758,-0.06693 -0.47377,0.16269 -0.59285,0.37921zM249.32025,157.10355c0.03894,-0.00759 0.05518,-0.02834 0.09412,-0.03592c-0.053,-0.16538 -0.00523,-0.33287 -0.13285,-0.46613c-0.12028,0.00586 -0.17538,0.03421 -0.2171,0.1302c0.08192,0.10703 0.16719,0.23099 0.25586,0.37187zM244.92543,155.1487c-0.01153,0.24827 -0.01364,0.44199 0.04604,0.64123c0.0067,0.03383 0.05236,0.06007 0.11083,0.04868c0.01951,-0.00382 0.05511,-0.02831 0.07124,-0.04905c0.03442,-0.23517 -0.00582,-0.43818 -0.22815,-0.64085zM242.2756,160.16405c-0.11019,0.05664 -0.16196,0.10185 -0.11293,0.14502c0.08192,0.10703 0.18334,0.21026 0.28475,0.31352c0.07186,0.05627 0.13032,0.04488 0.17537,-0.0342c-0.0953,-0.17472 -0.18397,-0.31561 -0.34717,-0.42435zM246.15521,150.83205c0.06791,-0.06596 0.13916,-0.11502 0.20706,-0.18095c0.01616,-0.02071 0.00943,-0.05456 0.01888,-0.10912c-0.23382,0.04556 -0.45824,0.03664 -0.6982,0.15371c0.15655,0.07493 0.26737,0.12359 0.4723,0.13635zM244.2293,157.86767c0.05299,0.16539 0.10266,0.31389 0.16236,0.51313c0.16136,-0.20723 0.18969,-0.37086 0.13666,-0.53625c-0.10749,-0.03175 -0.16931,-0.03729 -0.29905,0.02314zM250.26472,156.25159c0.10142,0.10327 0.09928,0.29693 0.33376,0.35668c-0.022,-0.41747 -0.03873,-0.50203 -0.14289,-0.51691c-0.09742,0.01903 -0.14923,0.06423 -0.19092,0.16025zM243.76285,155.41057c-0.18361,0.29938 -0.14335,0.5024 -0.01514,0.74101c0.23261,-0.25624 0.02977,-0.46268 0.01514,-0.74101zM250.75871,153.43145c-0.16746,0.27867 -0.13058,0.46481 -0.05139,0.66022c0.00333,0.01693 0.04567,0.02623 0.08464,0.01863c0.05847,-0.01138 0.09074,-0.05284 0.08403,-0.08666c-0.01399,-0.17298 -0.06701,-0.33838 -0.11729,-0.59217zM251.14997,155.81541c0.08863,0.14087 0.14163,0.30628 0.35994,0.38668c0.02495,-0.1806 -0.02471,-0.32908 -0.07098,-0.46062c-0.12698,-0.02796 -0.20154,0.00416 -0.28896,0.07392zM250.84053,152.41384c-0.1666,-0.12569 -0.20346,-0.3118 -0.41174,-0.34147c-0.01153,0.24827 -0.01154,0.24827 0.24972,0.44335c0.03564,-0.02452 0.07124,-0.04905 0.16199,-0.10188zM250.29561,159.26808c0.26276,-0.10395 0.36904,-0.28283 0.45245,-0.47482c-0.07855,-0.0901 -0.15655,-0.07493 -0.20494,-0.01278c-0.07059,0.15436 -0.16075,0.31253 -0.24748,0.48759zM248.26759,151.17579c0.11361,-0.03972 0.20768,-0.07562 0.246,-0.18853c-0.09469,-0.06939 -0.18941,-0.13883 -0.30965,-0.13292c-0.09409,0.03591 -0.14584,0.08118 -0.17144,0.15646c0.05574,0.07697 0.12426,0.11635 0.23511,0.16501zM246.9891,157.69865c0.03167,-0.14674 0.05055,-0.25591 -0.00856,-0.3498c-0.02618,-0.03006 -0.0685,-0.03937 -0.11085,-0.04869c-0.05847,0.01138 -0.12974,0.06042 -0.10019,0.10738c0.0201,0.10153 0.04356,0.21998 0.21961,0.2911zM244.7898,150.88737c-0.18547,-0.01657 -0.3246,0.09845 -0.47379,0.16271c0.27743,0.17436 0.3164,0.16674 0.47379,-0.16271zM240.52096,156.51709c0.02768,-0.269 0.02769,-0.26898 -0.16783,-0.33633c-0.01889,0.10912 -0.03438,0.23517 0.16783,0.33633zM248.08729,157.01002c-0.08805,-0.03555 -0.14648,-0.02415 -0.15926,0.01346c-0.07059,0.15436 -0.04109,0.20132 0.16449,0.3194c0.03503,-0.12982 0.01492,-0.23137 -0.0052,-0.3329zM251.604,153.40726c-0.08066,0.10362 -0.14185,0.20341 -0.07946,0.31422c0.30173,-0.11157 0.31453,-0.14915 0.07946,-0.31422zM239.99445,156.00473c-0.09348,0.14127 -0.08618,0.28039 -0.08219,0.4026c0.01339,0.06767 0.08193,0.10705 0.18548,0.01657c-0.004,-0.12222 -0.01128,-0.26141 -0.10326,-0.41918zM249.9546,151.62007c-0.00546,0.17679 0.06973,0.25002 0.23238,0.25345c0,0 0.03564,-0.02453 0.03226,-0.04144c-0.00063,-0.10531 -0.13092,-0.1502 -0.26465,-0.21204zM245.65653,157.81787c0.11019,-0.05664 0.13581,-0.13193 0.1029,-0.19578c-0.0067,-0.03383 -0.05238,-0.06007 -0.09469,-0.0694c-0.04234,-0.0093 -0.09407,0.0359 -0.08736,0.06975c-0.00944,0.05456 0.00396,0.12222 0.07917,0.19543zM247.44546,150.70349c0.10141,0.10326 0.18941,0.13882 0.33191,0.0407c-0.12427,-0.11634 -0.2089,-0.13501 -0.33191,-0.0407z"/><path d="M246.60243,163.81906c0.62696,-0.10465 1.25397,-0.20933 1.8776,-0.33094c0.70159,-0.1368 1.38973,-0.34125 2.04166,-0.62652c0.2043,-0.09256 0.36293,-0.21131 0.58337,-0.3246c0.05364,0.27074 0.12005,0.50376 0.14747,0.74443c0.20356,1.43644 0.50789,2.87078 0.7538,4.31654c0.21571,1.29348 0.44762,2.56624 0.68284,3.85593c0.1548,0.88362 0.3062,1.75032 0.46098,2.63392c0.14473,0.83286 0.32508,1.64116 0.46986,2.47403c0.0134,0.06769 0.0268,0.13537 0.02072,0.20684c-0.23594,0.23932 -0.51155,0.38089 -0.8294,0.51318c-0.5061,0.20411 -1.03834,0.37818 -1.58734,0.46765c-0.1754,0.03423 -0.34743,0.08533 -0.52007,0.03109c0.1687,-0.06805 0.3736,-0.05529 0.57123,-0.18167c-0.18999,-0.24411 -0.18855,-0.54313 -0.26166,-0.81007c-0.00333,-0.01693 -0.00669,-0.03382 -0.02617,-0.03005c-0.24638,-0.42643 -0.34355,-0.91711 -0.53485,-1.37186c-0.07247,-0.16158 -0.20345,-0.3118 -0.198,-0.48856c-0.02802,-0.346 -0.26715,-0.63326 -0.29519,-0.97929c-0.00333,-0.01693 -0.02955,-0.04695 -0.03623,-0.08081c-0.12214,-0.31004 -0.26038,-0.59942 -0.34356,-0.91708c-0.07373,-0.37222 -0.29668,-0.68025 -0.33143,-1.06006c-0.1605,-0.19715 -0.16506,-0.42471 -0.23147,-0.65776c-0.0067,-0.03383 -0.01008,-0.05078 -0.01674,-0.0846c-0.22294,-0.30801 -0.21538,-0.67849 -0.36034,-1.00171c-0.14499,-0.32318 -0.17639,-0.68609 -0.30189,-1.01308c-0.13554,-0.37777 -0.32623,-0.72715 -0.34816,-1.14465c-0.0067,-0.03383 -0.01674,-0.08461 -0.04294,-0.11464c-0.15384,-0.1633 -0.13554,-0.37776 -0.19523,-0.57699c-0.0201,-0.10153 -0.02408,-0.22373 -0.08317,-0.31766c-0.10808,-0.13708 -0.11543,-0.27623 -0.1456,-0.42852c-0.01675,-0.0846 -0.01402,-0.17302 -0.06642,-0.23306c-0.1605,-0.19715 -0.16845,-0.44162 -0.21201,-0.66156c-0.01675,-0.0846 -0.01403,-0.17298 -0.06641,-0.23308c-0.13427,-0.16711 -0.15168,-0.35702 -0.18852,-0.54316c-0.06035,-0.30458 -0.25706,-0.5825 -0.29788,-0.89084c0.00943,-0.05456 -0.05906,-0.09392 -0.08864,-0.14087z"/><path d="M246.60243,163.81909c0.02953,0.04695 0.09807,0.08631 0.10813,0.13708c0.04086,0.30835 0.21808,0.5901 0.2979,0.89085c0.03684,0.18612 0.05424,0.37605 0.18852,0.54316c0.05238,0.06008 0.04966,0.14849 0.06643,0.23304c0.0436,0.21995 0.07096,0.46063 0.21196,0.6616c0.05239,0.06007 0.03018,0.1523 0.06643,0.23307c0.03017,0.15226 0.05697,0.28765 0.1456,0.42852c0.05907,0.0939 0.06305,0.21619 0.08316,0.31769c0.05971,0.19922 0.04148,0.41367 0.19526,0.57698c0.02618,0.03006 0.03623,0.0808 0.04296,0.11463c0.01862,0.40056 0.21264,0.76692 0.34818,1.14465c0.12885,0.34395 0.16024,0.70681 0.30185,1.0131c0.14498,0.32316 0.13741,0.69369 0.36035,1.00169c0.02281,0.01313 0.01004,0.05078 0.01674,0.08462c0.0436,0.21995 0.07101,0.46061 0.23151,0.65779c0.01526,0.38364 0.23823,0.69162 0.3314,1.06005c0.06366,0.32147 0.22144,0.60701 0.34355,0.9171c0.0067,0.03383 0.02959,0.04698 0.03625,0.0808c0.02802,0.346 0.26713,0.63324 0.29519,0.97927c0.0174,0.1899 0.14498,0.3232 0.198,0.48857c0.17179,0.45854 0.28847,0.94542 0.53484,1.37185c0.00333,0.01693 0.02622,0.03004 0.02622,0.03004c0.07313,0.26692 0.07163,0.56598 0.26167,0.81007c-0.17812,0.12259 -0.38643,0.0929 -0.57125,0.18166c-0.15587,0.03041 -0.31181,0.06076 -0.46837,-0.01417c-0.0201,-0.10153 -0.02408,-0.22373 -0.08317,-0.31763c-0.20679,-0.32869 -0.25766,-0.68784 -0.36703,-1.03557c-0.10936,-0.34768 -0.31615,-0.6764 -0.33141,-1.06002c-0.1605,-0.19715 -0.16511,-0.42471 -0.23151,-0.65778c-0.0067,-0.03383 -0.01675,-0.0846 -0.04295,-0.11464c-0.12761,-0.13329 -0.12212,-0.31005 -0.17179,-0.45857c-0.01675,-0.0846 -0.03354,-0.1692 -0.06641,-0.23307c-0.17119,-0.35324 -0.32623,-0.72715 -0.40331,-1.11633c-0.01003,-0.05078 -0.00394,-0.12225 -0.04966,-0.14847c-0.13092,-0.15017 -0.14501,-0.32319 -0.17852,-0.49238c-0.0174,-0.1899 -0.18734,-0.33252 -0.20803,-0.53935c-0.03413,-0.27452 -0.18186,-0.50931 -0.27446,-0.77241c-0.11272,-0.36464 -0.30001,-0.69713 -0.37707,-1.08628c-0.0134,-0.06769 -0.01067,-0.15609 -0.05972,-0.19924c-0.10474,-0.12017 -0.11545,-0.2762 -0.16508,-0.42468c-0.0268,-0.13535 -0.07311,-0.2669 -0.13553,-0.37778c-0.12151,-0.20477 -0.20407,-0.4171 -0.25102,-0.65399c-0.08987,-0.3515 -0.29668,-0.68023 -0.31194,-1.06383c-0.0067,-0.03383 -0.03621,-0.0808 -0.04294,-0.11465c-0.12885,-0.34395 -0.2772,-0.684 -0.36701,-1.03551c-0.07373,-0.37222 -0.30337,-0.71408 -0.33811,-1.09391c-0.01003,-0.05078 -0.05909,-0.09391 -0.08864,-0.14087c-0.08255,-0.21235 -0.14896,-0.44544 -0.13406,-0.67676c0.0941,-0.03591 0.17202,-0.05115 0.24665,-0.08323c0.28291,-0.00244 0.52343,-0.01419 0.78016,-0.04666z"/><path d="M252.25696,153.84229c0.12212,0.31003 0.19188,0.56007 0.1642,0.82906c-0.12911,0.16576 -0.33338,0.25834 -0.53432,0.36778c-1.01486,0.49662 -2.03309,0.97631 -3.11712,1.32827c-0.8179,0.26489 -1.65529,0.53363 -2.50939,0.71773c-0.23385,0.04557 -0.49057,0.07809 -0.71439,0.17441c-0.0941,0.03591 -0.21104,0.0587 -0.32792,0.0815c-0.48113,0.02352 -0.94214,0.14855 -1.41323,0.22283c-0.66596,0.11229 -1.34533,0.1569 -2.03137,0.16763c-0.34469,-0.00308 -0.68607,0.01075 -1.04691,0.02841c-0.27952,0.01933 -0.53349,-0.03656 -0.78411,-0.07556c-0.19674,-0.27796 -0.23969,-0.39258 -0.28113,-0.80625c0.43205,-0.06669 0.86145,-0.04496 1.30021,-0.07778c0.4193,-0.02903 0.85807,-0.06186 1.27406,-0.10781c0.43542,-0.04974 0.88705,-0.12023 1.3191,-0.1869c0.41593,-0.04594 0.83127,-0.19727 1.25733,-0.19246c0.412,-0.1682 0.85077,-0.201 1.27618,-0.30153c0.40591,-0.09671 0.82792,-0.21417 1.2305,-0.32778c0.42205,-0.11744 0.8407,-0.25179 1.27892,-0.38991c0.39921,-0.13055 0.82123,-0.24798 1.2171,-0.39548c0.41532,-0.15127 0.80448,-0.33257 1.21648,-0.50077c0.43148,-0.17199 0.82731,-0.31946 1.2259,-0.55534z"/><path d="M245.84507,163.87891c-0.0746,0.03211 -0.15257,0.04732 -0.24663,0.08324c-0.01489,0.23137 0.02867,0.45128 0.13405,0.67678c0.02952,0.04696 0.07857,0.09012 0.08863,0.14087c0.03474,0.37982 0.24492,0.72549 0.33812,1.0939c0.07038,0.35532 0.23819,0.69162 0.36698,1.03553c0.0067,0.03383 0.03624,0.08081 0.04296,0.11463c0.01524,0.38364 0.23816,0.69162 0.31191,1.06384c0.0436,0.21995 0.12948,0.44924 0.25102,0.65398c0.06576,0.12772 0.11209,0.25928 0.13553,0.37776c0.03017,0.15226 0.03749,0.29143 0.1651,0.42471c0.049,0.04314 0.04628,0.13157 0.05969,0.19925c0.07373,0.37222 0.26441,0.72164 0.37709,1.08627c0.09258,0.26312 0.24034,0.49789 0.27445,0.77241c0.0174,0.1899 0.18732,0.33251 0.20804,0.53935c0.01402,0.17299 0.0314,0.36289 0.17849,0.49241c0.02952,0.04696 0.03959,0.0977 0.04967,0.14845c0.07707,0.38913 0.22872,0.74616 0.4033,1.11632c0.03621,0.08081 0.03353,0.16918 0.06639,0.23305c0.03017,0.15226 0.04424,0.32525 0.17181,0.45854c0.02618,0.03006 0.03625,0.08079 0.04295,0.11462c0.0436,0.21995 0.07099,0.46062 0.2315,0.65779c0.01526,0.38363 0.22206,0.71236 0.33142,1.06003c0.10936,0.34768 0.1636,0.72371 0.36701,1.03551c0.05908,0.09391 0.06302,0.21616 0.08317,0.31767c-0.17206,0.05111 -0.30907,-0.02759 -0.44886,-0.0179c-0.2382,-0.6916 -0.48919,-1.34562 -0.72066,-2.00337c-0.26438,-0.72168 -0.50594,-1.4302 -0.75086,-2.15564c-0.23484,-0.67471 -0.4892,-1.3456 -0.74352,-2.0165c-0.30733,-0.8363 -0.63082,-1.65187 -0.93483,-2.47124c-0.22481,-0.62396 -0.44955,-1.24791 -0.69387,-1.86803c-0.35365,-0.96786 -0.63269,-1.96785 -1.02532,-2.92807c-0.0463,-0.13154 -0.13158,-0.2555 -0.10327,-0.41917c0.1754,-0.03423 0.36083,-0.01763 0.54294,-0.01799c0.10415,0.01483 0.27282,-0.05321 0.44551,0.001z"/><path d="M251.17747,178.12764c0.40255,-0.11364 0.79902,-0.15579 1.1982,-0.28636c0.45432,-0.15887 0.90527,-0.33468 1.33612,-0.61196c0.19439,0.98133 0.38542,1.94573 0.57311,2.89322c-0.17749,0.22793 -0.41745,0.34498 -0.63455,0.47519c-0.41805,0.23967 -0.85959,0.36089 -1.32061,0.48593c-0.01951,0.00382 -0.06181,-0.00552 -0.08467,-0.01863c0.15529,-0.1357 0.07001,-0.25965 0.0042,-0.38743c-0.16449,-0.31941 -0.30946,-0.64257 -0.35699,-0.98477c-0.0134,-0.06769 -0.02681,-0.13535 -0.05972,-0.19921c-0.18061,-0.29868 -0.22815,-0.64085 -0.3503,-0.95093c-0.07579,-0.17852 -0.14165,-0.30622 -0.30486,-0.41501z"/><path d="M245.10703,161.68562c0.70219,-0.03147 1.3809,-0.18138 2.07305,-0.26362c0.31515,-0.04386 0.62027,-0.13853 0.9254,-0.23316c0.57797,-0.14782 1.18876,-0.23177 1.7533,-0.44732c0.22717,-0.07943 0.4543,-0.15886 0.65864,-0.2514c0.12974,-0.06043 0.26274,-0.10396 0.39921,-0.13056c0.02956,0.04692 0.05571,0.077 0.06242,0.11086c0.02678,0.13535 0.05364,0.27069 0.08047,0.40605c-0.08737,0.06977 -0.15865,0.11877 -0.24937,0.17163c-0.66133,0.33982 -1.34221,0.68347 -2.10227,0.83166c-0.65926,0.14614 -1.33795,0.29601 -2.01065,0.37448c-0.53292,0.06878 -1.06243,0.15442 -1.60263,0.08404c0.0907,-0.05286 0.21772,-0.02488 0.27555,-0.1416c0.00211,-0.19371 0.017,-0.42506 -0.26315,-0.51102z"/><path d="M245.79925,162.72801c0.32461,-0.09843 0.65651,-0.0577 0.99116,-0.10538c0.70496,-0.11988 1.40988,-0.23971 2.10474,-0.41037c0.55846,-0.14401 1.08402,-0.35197 1.5834,-0.58989c0.12974,-0.06043 0.2594,-0.12087 0.38915,-0.18131c0.04693,0.23688 0.08719,0.43992 0.13071,0.65987c-0.19365,0.24863 -0.46925,0.3902 -0.77097,0.50179c-0.35686,0.13989 -0.73321,0.28353 -1.11962,0.37645c-0.86356,0.23864 -1.72777,0.37199 -2.60809,0.52609c-0.15588,0.0304 -0.31182,0.0608 -0.46499,0.0028c-0.01675,-0.0846 -0.01405,-0.17299 -0.06642,-0.23306c-0.11145,-0.154 -0.13221,-0.36085 -0.16907,-0.54692z"/><path d="M251.17746,178.12764c0.14041,0.09566 0.22564,0.2196 0.27867,0.385c0.12213,0.31005 0.16966,0.65227 0.35029,0.95091c0.0329,0.06389 0.04633,0.13158 0.05972,0.19926c0.07041,0.35532 0.21199,0.66156 0.35697,0.98475c0.06243,0.11085 0.15109,0.25172 -0.00421,0.38744c-0.28898,0.07391 -0.5685,0.09328 -0.83861,0.05809c-0.10541,-0.22549 -0.23025,-0.44717 -0.23822,-0.69163c-0.0067,-0.03383 -0.03621,-0.0808 -0.04294,-0.11463c-0.12549,-0.32696 -0.25435,-0.6709 -0.36035,-1.0017c-0.04966,-0.14847 -0.07643,-0.28384 -0.14559,-0.42853c-0.0953,-0.17471 -0.15504,-0.37397 -0.09446,-0.57908c0.09409,-0.03591 0.17204,-0.05113 0.24664,-0.08321c0.1364,-0.02658 0.29569,-0.04009 0.43207,-0.06669z"/><path d="M243.98497,153.36396c0.2808,0.19126 0.43185,0.44294 0.56343,0.69851c0.0329,0.06388 0.05299,0.16541 0.04693,0.23688c-0.0587,0.52106 -0.0395,1.02694 -0.00076,1.52898c0.00333,0.01693 -0.00943,0.05454 -0.02555,0.07529c-0.06791,0.06596 -0.16534,0.08499 -0.27283,0.05322c-0.0067,-0.03383 -0.03294,-0.06389 -0.03962,-0.09774c-0.0609,-0.40985 -0.18034,-0.80834 -0.39383,-1.17089c-0.09867,-0.19164 -0.13555,-0.37778 -0.07832,-0.59981c0.07338,-0.24274 0.08824,-0.47409 0.20059,-0.72448z"/><path d="M243.32171,156.14676c-0.10686,0.07356 -0.18815,0.07184 -0.25669,0.03248c-0.19983,-0.80454 -0.19985,-0.80453 -0.65242,-1.45435c-0.018,-0.29525 0.06143,-0.60945 0.10529,-0.89915c0.12974,-0.06043 0.16928,0.03727 0.21833,0.08044c0.17328,0.1595 0.34323,0.30213 0.48087,0.48617c0.0853,0.12398 0.12818,0.23863 0.11605,0.38152c-0.03315,0.44582 -0.04343,0.90469 -0.01143,1.3729z"/><path d="M250.7259,178.19811c-0.07461,0.03211 -0.15259,0.04731 -0.24664,0.08322c-0.0606,0.2051 -0.00087,0.40434 0.09447,0.57908c0.06916,0.14469 0.09597,0.28002 0.14559,0.42854c0.10602,0.33079 0.23485,0.67469 0.36035,1.00169c0.0067,0.03383 0.03625,0.0808 0.04294,0.11464c0.03079,0.25758 0.15228,0.46234 0.23816,0.69161c-0.16259,-0.00342 -0.30574,-0.01069 -0.48176,-0.08182c-0.15229,-0.46235 -0.34695,-0.93405 -0.48314,-1.4171c-0.15229,-0.46235 -0.38254,-0.90949 -0.48312,-1.41707c0.31514,-0.04386 0.56241,-0.0218 0.81303,0.01717z"/><path d="M248.44753,156.88705c0.0746,-0.03211 0.12975,-0.06043 0.20432,-0.09255c0.0457,0.02623 0.06849,0.03936 0.09133,0.05247c0.13494,0.27242 0.32499,0.51655 0.53447,0.75684c0.08193,0.10704 0.12153,0.20478 0.08652,0.33459c-0.05052,0.25587 -0.0587,0.52105 -0.27184,0.7735c-0.27741,-0.17437 -0.46748,-0.41847 -0.63799,-0.66641c-0.02956,-0.04692 -0.02677,-0.13536 -0.02073,-0.20682c-0.00189,-0.31592 -0.00373,-0.63195 0.01391,-0.95168z"/><path d="M247.87249,152.55322c0.11147,0.15397 0.19003,0.24413 0.27195,0.35119c0.14101,0.20097 0.20072,0.40018 0.13071,0.65987c-0.09498,0.44024 -0.12807,0.88608 -0.04431,1.30904c0.02679,0.13535 0.01067,0.15605 -0.22654,0.18478c-0.01004,-0.05077 -0.03962,-0.09772 -0.04965,-0.1485c-0.0643,-0.42679 -0.20319,-0.82145 -0.40056,-1.20472c-0.03957,-0.09773 -0.07582,-0.17852 -0.05366,-0.27073c0.10562,-0.2842 0.1723,-0.56077 0.37206,-0.88087z"/><path d="M245.62464,155.71534c-0.0228,-0.01312 -0.04907,-0.04319 -0.05239,-0.06008c-0.03811,-0.39672 -0.18979,-0.75376 -0.3576,-1.0901c-0.14498,-0.32316 -0.20868,-0.64468 -0.07744,-1.0041c0.0673,-0.17127 0.04987,-0.36118 0.15952,-0.52313c0.3822,0.2945 0.54056,0.68538 0.47788,1.08421c-0.06542,0.48723 -0.15367,0.96131 -0.03699,1.44821c-0.00943,0.05456 0.00395,0.12223 -0.11296,0.14504z"/><path d="M246.51172,152.83613c0.2485,0.2327 0.37338,0.45436 0.50158,0.69297c0.03621,0.08081 0.05298,0.1654 0.02743,0.24068c-0.08156,0.50796 -0.12078,1.02519 -0.12106,1.53485c0.0067,0.03383 -0.00271,0.08838 -0.10353,0.09046c-0.02346,-0.11842 -0.05026,-0.25378 -0.0932,-0.36842c-0.0865,-0.33458 -0.19252,-0.66536 -0.37316,-0.96404c-0.1249,-0.22166 -0.14895,-0.44542 -0.05274,-0.67505c0.0673,-0.17127 0.13788,-0.32564 0.21461,-0.55148z"/><path d="M249.64177,156.4785c0.10021,-0.10739 0.19765,-0.12639 0.29507,-0.14539c0.02282,0.0131 0.04905,0.04317 0.07185,0.05628c0.09259,0.26312 0.25981,0.49411 0.47879,0.67984c0.12425,0.11636 0.17054,0.24792 0.14223,0.41159c-0.04107,0.2013 -0.05931,0.41574 -0.14272,0.60775c-0.24451,-0.11048 -0.55154,-0.3318 -0.6173,-0.45955c-0.05574,-0.07697 -0.03019,-0.15227 -0.02742,-0.24067c-0.07645,-0.28382 -0.05885,-0.60361 -0.20044,-0.90984z"/><path d="M243.19813,158.89467c0.14124,-0.30869 0.22408,-0.60599 0.28403,-0.91645c0.11018,-0.05662 0.1882,-0.07186 0.29568,-0.04009c0.15775,0.28552 0.18914,0.64846 0.36641,0.93021c-0.0606,0.2051 -0.19637,0.33703 -0.30595,0.49899c-0.06452,0.08286 -0.10621,0.17883 -0.2393,0.22239c-0.19948,-0.18956 -0.2336,-0.46407 -0.4008,-0.69507z"/><path d="M246.15867,157.49152c0.17873,-0.01729 0.21163,0.04661 0.24452,0.11047c0.12824,0.2386 0.25309,0.46026 0.36184,0.70264c0.03291,0.06389 0.04631,0.13156 0.02076,0.20684c-0.09956,0.21268 -0.2186,0.4292 -0.36046,0.63262c-0.11752,-0.08253 -0.15715,-0.18025 -0.23572,-0.27037c-0.23569,-0.27035 -0.31217,-0.55417 -0.11248,-0.8743c0.09013,-0.15817 0.09559,-0.33495 0.08154,-0.50795z"/><path d="M244.93095,157.73091c0.09742,-0.01903 0.15588,-0.03042 0.21436,-0.04182c0.02618,0.03006 0.06851,0.03938 0.07186,0.05627c0.07579,0.17852 0.13221,0.36084 0.20806,0.53935c0.03958,0.09775 0.03685,0.18613 -0.00485,0.28211c-0.12511,0.28798 -0.27311,0.56286 -0.47952,0.84914c-0.1666,-0.12567 -0.21622,-0.27413 -0.26587,-0.4226c-0.01338,-0.06766 -0.02678,-0.13538 0.00208,-0.19369c0.19972,-0.32011 0.24964,-0.68131 0.25387,-1.06874z"/><path d="M245.79926,162.728c0.03684,0.18612 0.05759,0.39297 0.19192,0.56008c0.05239,0.06007 0.04962,0.14845 0.06639,0.23306c-0.32793,0.0815 -0.64981,0.09155 -0.9656,0.0301c-0.00793,-0.24448 -0.13279,-0.46613 -0.21199,-0.66155c0.11965,-0.1112 0.26614,-0.08702 0.37633,-0.14366c0.17206,-0.05111 0.37029,-0.07219 0.54294,-0.018z"/><path d="M249.51777,153.09355c-0.04718,0.27279 -0.0943,0.54557 -0.11867,0.83149c-0.01155,0.24828 0.19798,0.48858 -0.0441,0.79936c-0.11396,-0.57523 -0.35091,-1.05626 -0.58786,-1.53724c0.0606,-0.2051 0.13728,-0.43096 0.30204,-0.62121c0.0457,0.02623 0.06851,0.03936 0.09133,0.05246c0.13094,0.15018 0.24245,0.3042 0.35723,0.47507z"/><path d="M243.63162,153.0111c-0.07945,0.31425 -0.14608,0.59078 -0.22553,0.90504c-0.17599,-0.07112 -0.26129,-0.19508 -0.37883,-0.27758c-0.12092,-0.0994 -0.27744,-0.17438 -0.36604,-0.31523c-0.02346,-0.11842 0.03438,-0.23516 0.07272,-0.34805c0.03835,-0.11291 0.09622,-0.22962 0.17353,-0.35016c0.29293,0.04832 0.48905,0.22097 0.72417,0.38602z"/><path d="M242.0812,156.42377c-0.23698,-0.48098 -0.45719,-0.87737 -0.79095,-1.23402c0.03441,-0.23518 0.04929,-0.46649 0.08033,-0.71857c0.28017,0.08595 0.41783,0.26999 0.59107,0.42948c0.02618,0.03006 0.03623,0.08082 0.04292,0.11464c0.02532,0.43437 0.05067,0.86878 0.07661,1.40844z"/><path d="M247.71149,158.89332c-0.2485,-0.2327 -0.4547,-0.45611 -0.34631,-0.82868c0.07001,-0.25969 0.03924,-0.51729 0.00845,-0.77487c-0.0201,-0.10152 0.07395,-0.13744 0.19762,-0.1264c0.01467,0.2783 0.16236,0.51313 0.31009,0.74792c0.11483,0.17091 0.10603,0.33076 0.03874,0.50206c-0.05115,0.15054 -0.05998,0.31043 -0.20857,0.48z"/><path d="M245.10702,161.68561c0.28351,0.10288 0.26523,0.31729 0.28596,0.52414c-0.05784,0.11668 -0.18145,0.10568 -0.27552,0.1416c-0.25668,0.03248 -0.50395,0.01038 -0.75795,-0.04554c-0.0174,-0.1899 -0.13217,-0.36083 -0.06827,-0.54902c0.0941,-0.03591 0.15258,-0.04732 0.2305,-0.06251c0.20159,-0.00417 0.40316,-0.00835 0.58528,-0.00868z"/><path d="M245.70851,158.89723c0.1672,0.231 0.28872,0.43574 0.42976,0.6367c-0.13855,0.22031 -0.29986,0.4275 -0.48747,0.60464c-0.14314,-0.00723 -0.2022,-0.10116 -0.27406,-0.15743c-0.07187,-0.05627 -0.14373,-0.11255 -0.14769,-0.2348c0.11573,-0.23343 0.28313,-0.51208 0.47949,-0.84914z"/><path d="M248.93229,159.12977c-0.10292,0.19581 -0.18633,0.38776 -0.35103,0.57806c-0.26403,-0.10666 -0.40168,-0.2907 -0.58166,-0.48406c0.09619,-0.22962 0.19238,-0.45927 0.28526,-0.70584c0.24178,0.19888 0.4218,0.39228 0.64744,0.61185z"/><path d="M244.45983,152.28725c0.18273,0.10499 0.3654,0.20993 0.49973,0.37705c-0.07001,0.25969 -0.15951,0.52314 -0.24565,0.80351c-0.03895,0.0076 -0.07793,0.01519 -0.08129,-0.00174c-0.14709,-0.12949 -0.29751,-0.27586 -0.42513,-0.40913c-0.05238,-0.06008 -0.08531,-0.12398 -0.0564,-0.18231c0.07672,-0.22582 0.09497,-0.44026 0.30872,-0.58741z"/><path d="M247.54549,152.23041c-0.11234,0.25035 -0.20519,0.49689 -0.31754,0.74727c-0.16594,-0.02037 -0.19274,-0.15572 -0.27133,-0.24585c-0.07855,-0.0901 -0.14103,-0.20096 -0.22294,-0.30799c0.05722,-0.22202 0.22534,-0.39535 0.34772,-0.59499c0.23779,0.07663 0.34929,0.23065 0.46407,0.40156z"/><path d="M249.46109,158.9388c0.08952,-0.26346 0.16288,-0.50625 0.24904,-0.78662c0.22171,0.09732 0.356,0.26449 0.55823,0.36565c-0.03106,0.25207 -0.19576,0.44236 -0.31147,0.67576c-0.21498,-0.06352 -0.38765,-0.11772 -0.49574,-0.25481z"/><path d="M250.79639,155.97222c0.25188,0.24964 0.413,0.55209 0.7166,0.75649c-0.01822,0.21444 -0.02037,0.40818 -0.11991,0.62088c-0.25731,-0.07285 -0.42392,-0.19852 -0.43519,-0.4599c-0.00186,-0.31593 -0.10117,-0.61289 -0.1615,-0.91746z"/><path d="M240.94298,156.39967c-0.12698,-0.02796 -0.08533,-0.12397 -0.11817,-0.18783c-0.06913,-0.1447 -0.1188,-0.29312 -0.25586,-0.37187c-0.19278,-0.15571 -0.21017,-0.34561 -0.21139,-0.55627c0.00276,-0.08841 0.02494,-0.1806 0.04046,-0.30664c0.29024,0.13671 0.51862,0.26795 0.50434,0.60457c-0.01488,0.23136 0.0515,0.46445 0.0756,0.68818c0.01002,0.05077 0.02011,0.10151 -0.035,0.12984z"/><path d="M242.38218,159.47549c-0.12761,-0.13329 -0.19338,-0.26103 -0.22021,-0.39638c-0.01338,-0.06766 -0.0302,-0.15229 -0.00127,-0.21063c0.13184,-0.25416 0.20182,-0.51382 0.27185,-0.7735c0.13641,-0.02657 0.13032,0.04487 0.1404,0.09565c0.03351,0.16919 0.07041,0.35532 0.14288,0.51691c0.08255,0.21235 0.05424,0.37602 -0.11717,0.53248c-0.08738,0.06976 -0.1358,0.13192 -0.21645,0.23548z"/><path d="M247.4895,159.30564c-0.08004,0.20887 -0.20919,0.37467 -0.33156,0.57425c-0.23446,-0.05971 -0.32977,-0.23443 -0.4769,-0.36392c0.09285,-0.24656 0.27704,-0.44062 0.43507,-0.66474c0.16993,0.14261 0.26193,0.30042 0.3734,0.4544z"/><path d="M245.92823,153.16081c-0.16388,-0.21407 -0.30487,-0.41507 -0.46536,-0.61221c0.04777,-0.1675 0.09894,-0.31802 0.2542,-0.45375c0.20221,0.10117 0.33314,0.25137 0.48364,0.39775c-0.03442,0.23517 -0.11442,0.44404 -0.27245,0.66815z"/><path d="M245.90925,160.4221c0.16474,-0.19029 0.31331,-0.35982 0.46187,-0.52937c0.21834,0.08044 0.3493,0.23064 0.48024,0.38081c-0.10624,0.17887 -0.23866,0.32771 -0.41345,0.46718c-0.06516,-0.02244 -0.15316,-0.05803 -0.19884,-0.08423c-0.11754,-0.08252 -0.19277,-0.15571 -0.32982,-0.23446z"/><path d="M241.4898,158.13822c0.06367,0.3215 0.11393,0.57531 0.16762,0.84598c-0.07397,0.13745 -0.17418,0.24483 -0.3395,0.32975c-0.13364,-0.06181 -0.11816,-0.18784 -0.17723,-0.28177c-0.05907,-0.0939 -0.09867,-0.19163 -0.11547,-0.27622c0.16138,-0.20725 0.29047,-0.37299 0.46462,-0.61779z"/><path d="M243.09721,152.25419c0.05115,-0.15054 0.12843,-0.27108 0.23198,-0.36153c0.15256,-0.04731 0.25063,0.03905 0.3581,0.07076c0.10747,0.03172 0.22775,0.02587 0.30967,0.13291c-0.00546,0.17679 -0.11173,0.35566 -0.21124,0.56842c-0.11423,-0.0656 -0.22844,-0.13121 -0.33925,-0.1799c-0.11752,-0.08253 -0.23511,-0.16501 -0.34932,-0.23063z"/><path d="M248.32642,160.05626c-0.06393,0.18822 -0.20978,0.26938 -0.30659,0.39369c-0.23112,-0.04282 -0.39772,-0.1685 -0.58717,-0.30726c0.10958,-0.16195 0.21924,-0.32392 0.30937,-0.4821c0.25729,0.07286 0.39501,0.2569 0.58439,0.39567z"/><path d="M241.99753,154.36653c-0.08805,-0.03555 -0.13369,-0.06177 -0.17937,-0.08798c-0.09469,-0.06939 -0.19279,-0.15571 -0.31033,-0.23825c0.08952,-0.26346 0.12052,-0.51554 0.29804,-0.74348c0.14314,0.00723 0.21837,0.08043 0.31977,0.18368c-0.02769,0.26899 -0.06817,0.57561 -0.12807,0.88606z"/><path d="M244.68328,159.85279c-0.16806,0.17335 -0.25148,0.36531 -0.4491,0.49171c-0.1955,-0.06735 -0.25187,-0.24961 -0.40838,-0.32455c0.13185,-0.25416 0.29987,-0.42751 0.46125,-0.63471c0.22507,0.11429 0.26191,0.30038 0.39626,0.4675z"/><path d="M245.25305,162.72905c-0.11019,0.05664 -0.25669,0.03245 -0.37633,0.14368c0.08255,0.21235 0.18791,0.43781 0.21199,0.66156c-0.08132,-0.00171 -0.18211,0.00034 -0.26674,-0.01826c-0.12698,-0.02796 -0.22167,-0.09737 -0.24517,-0.21583c-0.05971,-0.19921 -0.11607,-0.38151 -0.17575,-0.5808c0.25335,-0.04941 0.37364,-0.05529 0.85203,0.00961z"/><path d="M248.849,152.16954c-0.10292,0.19581 -0.19301,0.35391 -0.31542,0.55353c-0.1605,-0.19715 -0.31763,-0.37736 -0.45867,-0.57833c0.07059,-0.15435 0.14463,-0.29179 0.26091,-0.4199c0.22505,0.11428 0.35598,0.26446 0.51314,0.44469z"/><path d="M242.55332,159.82873c0.10292,-0.19581 0.2387,-0.32771 0.38733,-0.49726c0.1249,0.22166 0.24305,0.40953 0.36123,0.59738c-0.04776,0.16749 -0.17415,0.24483 -0.31331,0.35981c-0.19885,-0.08423 -0.2942,-0.25898 -0.43519,-0.4599z"/><path d="M246.44883,152.11033c-0.2089,-0.13502 -0.35263,-0.24756 -0.51587,-0.35634c0.02495,-0.1806 0.15739,-0.32943 0.28987,-0.47827c0.19214,0.05042 0.36813,0.12152 0.51861,0.26793c-0.01824,0.21443 -0.1964,0.33705 -0.29256,0.56668z"/><path d="M249.72494,159.55512c-0.10624,0.17886 -0.23536,0.34464 -0.34495,0.50659c-0.17873,0.01729 -0.30907,-0.02759 -0.44949,-0.12325c0.03442,-0.23517 0.22533,-0.39535 0.32486,-0.6081c0.18881,0.03346 0.30967,0.13291 0.46958,0.22474z"/><path d="M241.04086,154.23668c-0.04108,0.2013 -0.02038,0.40814 -0.16221,0.61156c-0.14041,-0.09566 -0.27744,-0.1744 -0.41446,-0.25309c-0.04019,-0.20302 0.02372,-0.39122 0.15281,-0.55696c0.16596,0.02038 0.28013,0.08596 0.42389,0.19849z"/><path d="M244.54121,161.69049c-0.07796,0.01519 -0.15257,0.04733 -0.23053,0.06255c-0.06394,0.18823 0.05087,0.3591 0.06827,0.54902c-0.13307,0.04352 -0.23115,-0.04281 -0.37087,-0.03313c-0.12152,-0.20476 -0.1033,-0.41919 -0.28327,-0.61255c0.19152,-0.05489 0.31848,-0.02696 0.465,-0.0028c0.10415,0.01482 0.23389,-0.04557 0.35139,0.03694z"/><path d="M252.26956,157.0732c-0.04108,0.2013 -0.02037,0.40818 -0.1461,0.59083c-0.14314,-0.00723 -0.23451,-0.05973 -0.37155,-0.13841c0.00211,-0.19372 0.04319,-0.39504 0.12995,-0.57012c0.14314,0.00724 0.23114,0.04281 0.38765,0.11773z"/><path d="M246.84844,160.87157c0.11633,-0.12813 0.21314,-0.25243 0.30993,-0.37673c0.19214,0.05042 0.33255,0.14604 0.47629,0.25858c-0.03167,0.14674 -0.16138,0.20725 -0.29779,0.23381c-0.17539,0.03424 -0.35075,0.06842 -0.48844,-0.11563z"/><path d="M250.43711,152.93185c-0.05723,0.22202 -0.11781,0.42716 -0.17502,0.64915c-0.26527,-0.31728 -0.42635,-0.61978 -0.09357,-0.98339c0.13364,0.06181 0.17996,0.19337 0.26858,0.33422z"/><path d="M244.95896,160.83584c-0.16929,-0.0373 -0.26738,-0.12361 -0.36541,-0.20996c-0.02346,-0.11842 0.06731,-0.17129 0.13186,-0.25414c0.04841,-0.06215 0.09344,-0.14121 0.20705,-0.18094c0.16929,0.0373 0.20282,0.20645 0.37548,0.26065c-0.08675,0.17509 -0.20639,0.28627 -0.34888,0.38437z"/><path d="M246.05943,155.56027c-0.0213,-0.31216 -0.04269,-0.62429 0.01392,-0.95165c0.12026,-0.00587 0.15657,0.07493 0.17327,0.15952c0.06304,0.21616 0.10662,0.43605 0.14684,0.63911c0.03017,0.15226 -0.08008,0.20894 -0.33403,0.15299z"/><path d="M250.84245,159.37238c0.01214,-0.14294 0.11903,-0.21652 0.18022,-0.31629c0.10291,-0.19581 0.27495,-0.24692 0.52561,-0.2079c-0.07001,0.25968 -0.27373,0.45754 -0.44177,0.63089c-0.13978,0.00967 -0.20497,-0.01276 -0.26403,-0.10666z"/><path d="M248.63731,154.88189c-0.14163,-0.30628 -0.06218,-0.62049 -0.0056,-0.94785c0.16387,0.21407 0.21411,0.46787 0.28054,0.70094c0.04965,0.14849 -0.00209,0.19376 -0.27494,0.24691z"/><path d="M251.87965,156.02461c0.16323,0.10878 0.31976,0.1837 0.48296,0.29242c-0.00274,0.08841 -0.03773,0.21824 -0.05325,0.34428c-0.36755,-0.0162 -0.37088,-0.03312 -0.395,-0.2569c-0.02343,-0.11844 -0.02742,-0.24068 -0.03474,-0.37983z"/><path d="M245.31392,150.9785c0.20494,0.01278 0.33865,0.07455 0.4723,0.13635c-0.02829,0.16368 -0.17082,0.26174 -0.28711,0.38988c-0.15319,-0.05797 -0.28681,-0.11981 -0.44,-0.1778c-0.01067,-0.15607 0.15798,-0.22411 0.25485,-0.34845z"/><path d="M250.95553,157.59307c0.12361,0.01106 0.21836,0.08042 0.31643,0.16674c-0.01492,0.23135 -0.11442,0.44408 -0.25969,0.63053c-0.13307,0.04352 -0.18208,0.00035 -0.23779,-0.07663c0.05384,-0.23894 0.10773,-0.47791 0.1811,-0.72066z"/><path d="M249.02589,151.83633c-0.14709,-0.12949 -0.27804,-0.27966 -0.42513,-0.40914c0.06121,-0.09979 0.15194,-0.15265 0.26885,-0.17546c0.1236,0.01105 0.17936,0.08801 0.25458,0.1612c0.05238,0.06008 0.10477,0.12016 0.15715,0.18024c-0.03836,0.11294 -0.1029,0.19581 -0.25548,0.24312z"/><path d="M245.11972,152.24648c-0.16322,-0.10878 -0.30361,-0.2044 -0.48635,-0.30936c-0.00063,-0.1053 0.03771,-0.21826 0.20307,-0.30322c0.1532,0.05796 0.30969,0.1329 0.48569,0.20402c-0.05115,0.15054 -0.08614,0.2804 -0.20246,0.40851z"/><path d="M249.90921,152.20886c-0.05115,0.15054 -0.10898,0.26729 -0.22865,0.37846c-0.16323,-0.10878 -0.23571,-0.27038 -0.32098,-0.39432c0.01214,-0.14294 0.12239,-0.19957 0.20977,-0.26934c0.06181,0.00553 0.10079,-0.00209 0.10415,0.01482c0.07853,0.09012 0.15712,0.18023 0.23571,0.27038z"/><path d="M251.23048,153.46251c-0.19277,-0.15573 -0.22294,-0.308 -0.29209,-0.45266c-0.09198,-0.1578 0.01154,-0.24828 0.13118,-0.35947c0.16323,0.10878 0.23236,0.25343 0.33713,0.3736c-0.00547,0.17679 -0.19029,0.26556 -0.17626,0.43855z"/><path d="M252.01496,158.03667c-0.07061,0.15435 -0.12844,0.27105 -0.18295,0.40471c-0.17206,0.05111 -0.28898,0.07391 -0.44214,0.01592c0.08677,-0.17508 0.15404,-0.34636 0.22465,-0.50071c0.16531,-0.08498 0.26338,0.00139 0.38366,-0.00453c0.0067,0.03383 0.03292,0.0639 0.01678,0.08462z"/><path d="M244.36085,151.48062c-0.03503,0.12982 -0.0834,0.19199 -0.17414,0.24486c-0.11361,0.03972 -0.20493,-0.01278 -0.31242,-0.04451c-0.08804,-0.03555 -0.22778,-0.02588 -0.27073,-0.14051c0.07735,-0.1205 0.1775,-0.2279 0.34621,-0.29595c0.15653,0.07491 0.27408,0.15745 0.41112,0.23616z"/><path d="M243.23091,160.59284c0.11966,-0.11119 0.2037,-0.19788 0.30721,-0.28837c0.1599,0.09183 0.26462,0.21201 0.38891,0.32836c-0.05784,0.11669 -0.14187,0.20342 -0.2783,0.22997c-0.04234,-0.0093 -0.08464,-0.01865 -0.11087,-0.04869c-0.09134,-0.05246 -0.18607,-0.12191 -0.30697,-0.22133z"/><path d="M252.40236,155.9051c-0.27074,-0.14051 -0.27075,-0.14052 -0.42511,-0.40914c0.07063,-0.15436 0.2232,-0.20167 0.38852,-0.2866c0.1054,0.22549 0.05152,0.46442 0.03662,0.69577z"/><path d="M245.3372,161.00812c0.05784,-0.11669 0.16141,-0.20722 0.29445,-0.25069c0.1599,0.09183 0.29692,0.17049 0.43726,0.26618c-0.29779,0.2338 -0.31726,0.23763 -0.73174,-0.01544z"/><path d="M248.01885,151.45279c-0.07396,0.13746 -0.13519,0.23724 -0.25487,0.34843c-0.17262,-0.05419 -0.26127,-0.19509 -0.40503,-0.30765c0.02894,-0.05836 0.0612,-0.09976 0.09344,-0.14123c0.03227,-0.04145 0.08737,-0.06977 0.13915,-0.11502c0.18546,0.01657 0.30297,0.09907 0.42727,0.21544z"/><path d="M241.90411,160.0256c-0.21834,-0.08044 -0.27805,-0.27967 -0.4023,-0.396c0.0545,-0.13363 0.18757,-0.17717 0.29113,-0.26764c0.17329,0.15948 0.24577,0.32112 0.22415,0.51863c0.01003,0.05077 -0.06119,0.09979 -0.11294,0.14502z"/><path d="M241.44377,153.10377c-0.09285,0.24656 -0.20855,0.47998 -0.30475,0.70959c-0.13979,0.00967 -0.22776,-0.02586 -0.32919,-0.12909c0.15798,-0.22411 0.31603,-0.44822 0.54254,-0.63299c0.04571,0.02626 0.06851,0.03937 0.09135,0.05246z"/><path d="M247.39241,154.42174c0.10204,0.20856 0.18458,0.42092 0.18916,0.64844c-0.00276,0.08841 -0.04778,0.16747 -0.14521,0.18648c-0.03894,0.00758 -0.12361,-0.01105 -0.12698,-0.02797c-0.06975,-0.24999 0.01637,-0.53037 0.08303,-0.80696z"/><path d="M247.25842,150.98597c-0.01888,0.10913 -0.10624,0.17887 -0.21312,0.25243c-0.15653,-0.07491 -0.31306,-0.14985 -0.46959,-0.22475c0.05115,-0.15054 0.16473,-0.19026 0.30112,-0.21686c0.12698,0.02796 0.26403,0.10665 0.38158,0.18922z"/><path d="M248.35302,160.70124c0.06394,-0.18823 0.18361,-0.29938 0.32274,-0.4144c0.16596,0.02038 0.2963,0.06524 0.4044,0.20232c-0.21375,0.14711 -0.45097,0.17577 -0.72713,0.21208z"/><path d="M240.51117,158.71563c-0.17663,-0.17643 -0.14225,-0.41157 -0.27322,-0.56175c0.05784,-0.11668 0.13915,-0.11499 0.18821,-0.07183c0.12426,0.11635 0.23239,0.25345 0.26586,0.42262c-0.00943,0.05456 -0.00609,0.07148 -0.18086,0.21101z"/><path d="M242.24671,153.07025c-0.12697,-0.02795 -0.19549,-0.06732 -0.25125,-0.14428c0.10291,-0.19581 0.20247,-0.40851 0.44848,-0.59707c0.07645,0.28382 -0.06544,0.48721 -0.19723,0.74137z"/><path d="M244.22115,160.89183c0.15319,0.05797 0.26402,0.10667 0.3231,0.2006c-0.00607,0.07148 -0.06119,0.09982 -0.11632,0.12813c-0.22043,0.11327 -0.34136,0.01382 -0.47229,-0.13635c0.0907,-0.05286 0.17813,-0.12262 0.2655,-0.19237z"/><path d="M249.90955,154.45814c-0.06307,-0.21615 -0.09993,-0.40223 -0.08167,-0.61667c0.09409,-0.0359 0.14311,0.00722 0.15319,0.05799c0.04295,0.11466 0.10539,0.22551 0.14832,0.34012c0.02679,0.13535 -0.04446,0.18436 -0.21984,0.21855z"/><path d="M242.43704,155.56365c0.17663,0.17643 0.20072,0.40019 0.24091,0.60322c0.0067,0.03383 -0.02556,0.07529 -0.0612,0.09978c-0.03895,0.0076 -0.10415,-0.01482 -0.10752,-0.03176c-0.1054,-0.22549 -0.10999,-0.45301 -0.07224,-0.67126z"/><path d="M241.61566,156.32127c-0.12301,0.09429 -0.22045,0.11326 -0.27619,0.03626c-0.06243,-0.11085 -0.05695,-0.28764 -0.0226,-0.52277c0.16997,0.14259 0.2068,0.3287 0.29877,0.48648z"/><path d="M250.20309,160.12965c0.11907,-0.21651 0.21523,-0.44615 0.59285,-0.37921c-0.11573,0.23342 -0.36904,0.28282 -0.59285,0.37921z"/><path d="M249.32023,157.10351c-0.08528,-0.12397 -0.17391,-0.26481 -0.25582,-0.37189c0.04172,-0.09599 0.09682,-0.12433 0.21711,-0.13018c0.12763,0.1333 0.0832,0.31769 0.13286,0.46616c-0.03895,0.0076 -0.05847,0.01138 -0.09412,0.03592z"/><path d="M244.92544,155.14872c0.21896,0.18575 0.26251,0.40574 0.22815,0.64086c0.00333,0.01693 -0.03227,0.04147 -0.07125,0.04906c-0.05512,0.02831 -0.10415,-0.01482 -0.11084,-0.04867c-0.05639,-0.1823 -0.03811,-0.39677 -0.04607,-0.64124z"/><path d="M242.27561,160.16404c0.16323,0.10878 0.2552,0.26653 0.34383,0.40745c-0.0417,0.09599 -0.12304,0.09428 -0.17541,0.03422c-0.10142,-0.10326 -0.19946,-0.18958 -0.28472,-0.31353c-0.04571,-0.02626 0.00272,-0.08838 0.11631,-0.12811z"/><path d="M246.15521,150.83205c-0.18548,-0.01658 -0.31576,-0.06143 -0.4723,-0.13637c0.23993,-0.11707 0.46436,-0.10812 0.6982,-0.1537c-0.00944,0.05458 -0.00276,0.08841 -0.01889,0.1091c-0.06791,0.06596 -0.13914,0.11499 -0.20701,0.18095z"/><path d="M244.2293,157.86767c0.12974,-0.06043 0.211,-0.05872 0.29906,-0.02314c0.05297,0.16539 0.02467,0.32906 -0.13669,0.53628c-0.0792,-0.19545 -0.10934,-0.34771 -0.16237,-0.51311z"/><path d="M250.2647,156.25159c0.04171,-0.09598 0.11634,-0.1281 0.19092,-0.16024c0.10415,0.01484 0.12091,0.09941 0.14286,0.51691c-0.25396,-0.05591 -0.23239,-0.25344 -0.33378,-0.35669z"/><path d="M243.76285,155.41057c-0.00483,0.28212 0.21747,0.4848 -0.01514,0.74101c-0.12826,-0.23859 -0.14898,-0.44541 0.01514,-0.74101z"/><path d="M250.75871,153.43145c0.05026,0.25377 0.08377,0.42299 0.11729,0.59218c0.0067,0.03383 -0.02556,0.07529 -0.08403,0.08665c-0.01951,0.00382 -0.06181,-0.00552 -0.08467,-0.01864c-0.07922,-0.19541 -0.11609,-0.3816 0.05137,-0.66021z"/><path d="M251.14997,155.81541c0.10354,-0.09045 0.15861,-0.1188 0.26947,-0.07012c0.0463,0.13154 0.09595,0.28004 0.07099,0.46064c-0.21833,-0.08048 -0.25183,-0.24962 -0.34048,-0.39047z"/><path d="M250.84053,152.41384c-0.09071,0.05284 -0.12636,0.07736 -0.16537,0.08496c-0.26129,-0.19507 -0.26126,-0.19507 -0.24971,-0.44333c0.21498,0.06352 0.24852,0.23268 0.41505,0.35837z"/><path d="M250.29561,159.26808c0.09013,-0.15817 0.15739,-0.32943 0.267,-0.49138c0.04841,-0.06215 0.12637,-0.07733 0.20493,0.01278c-0.10292,0.19581 -0.20916,0.37466 -0.47193,0.4786z"/><path d="M248.26759,151.17579c-0.11088,-0.0487 -0.17935,-0.08806 -0.23509,-0.16502c0.02556,-0.0753 0.07731,-0.12053 0.17141,-0.15645c0.12028,-0.00586 0.21497,0.06354 0.30967,0.13293c-0.01888,0.10913 -0.13243,0.14882 -0.24599,0.18851z"/><path d="M246.98909,157.69862c-0.17262,-0.05417 -0.19612,-0.17266 -0.23907,-0.28728c-0.01002,-0.05077 0.0417,-0.09595 0.10017,-0.10738c0.03895,-0.0076 0.10417,0.01483 0.11085,0.04868c0.07855,0.0901 0.05971,0.19926 0.02804,0.34599z"/><path d="M244.7898,150.88737c-0.1574,0.32944 -0.1735,0.35019 -0.47379,0.16271c0.14921,-0.06422 0.26885,-0.17544 0.47379,-0.16271z"/><path d="M240.52096,156.51709c-0.20221,-0.10117 -0.16385,-0.21405 -0.16783,-0.33633c0.19213,0.05043 0.19212,0.05042 0.16783,0.33633z"/><path d="M248.0873,157.01003c0.01676,0.08461 0.04021,0.20302 0.00522,0.33288c-0.20556,-0.11808 -0.21895,-0.18575 -0.16449,-0.31938c0.01279,-0.03764 0.07126,-0.04906 0.15926,-0.01346z"/><path d="M251.604,153.40726c0.2351,0.16502 0.22234,0.20268 -0.07946,0.31422c-0.06244,-0.11088 -0.00128,-0.21063 0.07946,-0.31422z"/><path d="M239.99445,156.00473c0.09197,0.15781 0.09929,0.29693 0.10661,0.43612c-0.10686,0.07356 -0.17206,0.05109 -0.18544,-0.01659c-0.02681,-0.13535 -0.03413,-0.27451 0.0788,-0.41952z"/><path d="M249.9546,151.62007c0.13364,0.06181 0.26067,0.08978 0.268,0.22893c0.00333,0.01694 -0.01276,0.03764 -0.03225,0.04145c-0.18211,0.00034 -0.24121,-0.09357 -0.23572,-0.27037z"/><path d="M245.65655,157.81788c-0.07187,-0.05627 -0.0853,-0.12398 -0.07919,-0.19546c0.01279,-0.03764 0.04505,-0.07908 0.08738,-0.06975c0.04234,0.0093 0.08805,0.03556 0.09469,0.06941c0.01338,0.06766 0.0073,0.13915 -0.10291,0.19578z"/><path d="M247.44546,150.70349c0.12637,-0.07734 0.22715,-0.07944 0.33191,0.0407c-0.1425,0.09807 -0.2305,0.06254 -0.33191,-0.0407z"/></g><g stroke="#000000" stroke-width="1.2"><path d="M239.8953,178.26054c-0.83492,-1.67902 0.35481,-4.76819 0.21884,-7.02812c-0.14638,-2.43312 -1.54463,-3.88033 -0.69941,-5.28152c0.59039,-0.97871 2.24308,-1.24458 3.11944,-1.27722c2.13104,-0.07942 4.06017,3.2064 4.3088,7.33902c0.24865,4.13263 -1.27732,7.54717 -3.40836,7.62656c-0.96568,0.03599 -2.84743,0.01261 -3.53932,-1.37871z"/><path d="M243.7106,179.99031c-1.14145,-2.35059 -0.44803,-8.2187 -0.44803,-8.2187c0,0 -1.40094,-3.6655 -1.40446,-3.75082c-0.22548,-5.43626 3.46127,-5.63388 7.6575,-5.79022c1.99713,-0.07443 5.1135,0.56534 6.30736,2.22536c1.35399,1.88265 0.90839,4.60105 1.09093,7.63524c0.34351,5.70955 -1.89221,10.65676 -6.15429,10.81557c-1.87615,0.0699 -5.52448,0.22304 -7.04901,-2.91644z"/></g></g></g></g></svg>