<svg version="1.1" xmlns="http://www.w3.org/2000/svg" xmlns:xlink="http://www.w3.org/1999/xlink" width="89.63865" height="107.80215" viewBox="0,0,89.63865,107.80215"><defs><linearGradient x1="185.3775" y1="265.41288" x2="212.61059" y2="265.41288" gradientUnits="userSpaceOnUse" id="color-1"><stop offset="0" stop-color="#bebebe"/><stop offset="1" stop-color="#737373"/></linearGradient><linearGradient x1="185.3775" y1="265.41288" x2="212.61059" y2="265.41288" gradientUnits="userSpaceOnUse" id="color-2"><stop offset="0" stop-color="#bebebe"/><stop offset="1" stop-color="#737373"/></linearGradient><linearGradient x1="185.75176" y1="264.99162" x2="209.85462" y2="264.99162" gradientUnits="userSpaceOnUse" id="color-3"><stop offset="0" stop-color="#ffd166"/><stop offset="1" stop-color="#ac880b"/></linearGradient><linearGradient x1="174.57121" y1="252.60459" x2="198.64074" y2="252.60459" gradientUnits="userSpaceOnUse" id="color-4"><stop offset="0" stop-color="#ffd166"/><stop offset="1" stop-color="#ac880b"/></linearGradient><linearGradient x1="162.88925" y1="267.0589" x2="186.35814" y2="267.0589" gradientUnits="userSpaceOnUse" id="color-5"><stop offset="0" stop-color="#ffd166"/><stop offset="1" stop-color="#ac880b"/></linearGradient><linearGradient x1="163.92989" y1="278.10432" x2="182.33063" y2="278.10432" gradientUnits="userSpaceOnUse" id="color-6"><stop offset="0" stop-color="#bebebe"/><stop offset="1" stop-color="#737373"/></linearGradient><linearGradient x1="163.92989" y1="278.10432" x2="182.33063" y2="278.10432" gradientUnits="userSpaceOnUse" id="color-7"><stop offset="0" stop-color="#bebebe"/><stop offset="1" stop-color="#737373"/></linearGradient><linearGradient x1="178.10269" y1="240.2309" x2="186.76166" y2="240.2309" gradientUnits="userSpaceOnUse" id="color-8"><stop offset="0" stop-color="#bebebe"/><stop offset="1" stop-color="#737373"/></linearGradient><linearGradient x1="167.7619" y1="242.68144" x2="199.33569" y2="242.68144" gradientUnits="userSpaceOnUse" id="color-9"><stop offset="0" stop-color="#bebebe"/><stop offset="1" stop-color="#737373"/></linearGradient><linearGradient x1="218.81754" y1="235.6109" x2="231.44774" y2="230.19416" gradientUnits="userSpaceOnUse" id="color-10"><stop offset="0" stop-color="#bb951b"/><stop offset="1" stop-color="#d6ad39"/></linearGradient><linearGradient x1="214.52777" y1="226.23411" x2="226.38326" y2="221.14963" gradientUnits="userSpaceOnUse" id="color-11"><stop offset="0" stop-color="#bebebe"/><stop offset="1" stop-color="#737373"/></linearGradient><linearGradient x1="219.83978" y1="230.25698" x2="225.49847" y2="227.83013" gradientUnits="userSpaceOnUse" id="color-12"><stop offset="0" stop-color="#bb951b"/><stop offset="1" stop-color="#d6ad39"/></linearGradient><linearGradient x1="220.74094" y1="231.15613" x2="225.58073" y2="229.08047" gradientUnits="userSpaceOnUse" id="color-13"><stop offset="0" stop-color="#bb951b"/><stop offset="1" stop-color="#d6ad39"/></linearGradient><linearGradient x1="218.99937" y1="230.06008" x2="219.981" y2="229.63908" gradientUnits="userSpaceOnUse" id="color-14"><stop offset="0" stop-color="#bb951b"/><stop offset="1" stop-color="#d6ad39"/></linearGradient><linearGradient x1="218.42408" y1="229.98257" x2="219.38353" y2="229.57109" gradientUnits="userSpaceOnUse" id="color-15"><stop offset="0" stop-color="#bb951b"/><stop offset="1" stop-color="#d6ad39"/></linearGradient></defs><g transform="translate(-143.12626,-175.50993)"><g data-paper-data="{&quot;isPaintingLayer&quot;:true}" stroke-miterlimit="10" stroke-dasharray="" stroke-dashoffset="0" style="mix-blend-mode: normal"><path d="M216.483,241.51804c0,0 -14.45635,2.09751 -28.74664,0.02821c-14.98851,-2.1704 -29.85332,-8.51182 -30.2606,-8.4837" fill="none" fill-rule="nonzero" stroke="#000000" stroke-width="6" stroke-linecap="round" stroke-linejoin="miter"/><path d="M186.44658,250.88356l1.04544,-15.62125" fill="none" fill-rule="nonzero" stroke="#000000" stroke-width="6" stroke-linecap="round" stroke-linejoin="miter"/><g><g><g stroke-width="1.2"><path d="M197.16365,249.92858c0,0 7.82676,10.61312 8.98737,14.65302c0.79194,2.75656 -2.54513,7.23483 -2.54513,7.23483c0,0 8.44944,-0.16443 8.99712,5.89039c0.03122,0.34518 0.12011,2.04392 -3.3535,2.75568c-3.32699,0.68172 -10.16467,0.3874 -12.66436,0.26954c-1.16098,-0.05474 -2.97362,-0.49293 -4.20478,-1.35803c-1.23957,-0.87102 -1.28823,-2.24533 -1.38306,-3.01431c-0.01259,-0.10203 3.54246,-8.96307 3.28155,-10.11383c-0.13124,-0.57882 -8.90137,-14.6702 -8.90137,-14.6702" fill="url(#color-1)" fill-rule="evenodd" stroke="url(#color-2)" stroke-linecap="round" stroke-linejoin="round"/><path d="M185.78606,256.57561c-0.56129,-6.20521 5.90306,-6.7096 9.285,-6.86049c1.4706,-0.06561 9.70792,7.08115 12.95346,13.06873c0.85043,1.56892 0.59676,5.56826 0.52374,7.47315c-0.02566,0.66932 -0.88766,-0.19114 -0.88766,-0.19114c0,0 0.9463,0.69678 1.35888,1.33264c0.42584,0.65634 0.83518,1.6955 0.83518,1.6955l-2.52947,-0.77161c0,0 -8.6793,0.13782 -11.80066,2.27539c-3.12136,2.13757 -1.00373,5.67079 -1.00373,5.67079c0,0 -6.48023,-0.29796 -7.30067,-2.74412c-0.20227,-0.60304 0.56354,-2.48146 0.56354,-2.48146c0,0 -0.71837,0.14766 -0.79463,-0.27382c-0.02474,-0.13669 3.09245,-4.71958 4.80825,-7.14382c0.98096,-1.38601 0.99009,-1.24131 0.99009,-1.24131c0,0 -6.92048,-8.91436 -7.00135,-9.80843z" fill="url(#color-3)" fill-rule="nonzero" stroke="#caa551" stroke-linecap="butt" stroke-linejoin="miter"/></g><path d="M174.63598,251.12732c-0.01198,-0.18247 1.4579,0.3555 4.78859,0.41767c4.39404,0.08203 11.12335,-0.28494 13.01559,-0.47271c4.9069,-0.48689 5.73727,-1.78287 5.76905,-1.29918c0.11756,1.78991 -2.65795,5.10544 -8.27141,5.2873c-2.46685,0.07991 -7.51245,0.6793 -10.36968,0.04913c-3.64454,-0.80382 -4.86623,-2.97891 -4.93214,-3.98223z" fill="#004fd9" fill-rule="nonzero" stroke="#caa551" stroke-width="1.2" stroke-linecap="butt" stroke-linejoin="miter"/><g fill-rule="nonzero" stroke-linecap="butt" stroke-linejoin="miter"><g fill="none" stroke="none" stroke-width="1" font-family="sans-serif" font-weight="normal" font-size="12" text-anchor="start"/><path d="M174.67108,248.85869c0,0 10.18479,2.22273 14.9787,2.71666c4.79392,0.49393 8.99096,-0.24701 8.99096,-0.24701c0,0 -0.33577,1.73632 -2.83569,3.19507c-1.93509,1.12916 -5.40483,2.14308 -9.51901,1.7349c-3.74813,-0.37186 -7.80438,-1.36808 -9.62685,-2.72092c-2.76232,-2.05054 -1.98811,-4.67868 -1.98811,-4.67868z" fill="url(#color-4)" stroke="#caa551" stroke-width="1.2"/></g><g stroke-width="1.2"><path d="M184.21632,254.40395c0,0 -3.84901,25.82344 -4.55136,25.90868c-2.01561,0.2446 -13.06129,-1.94566 -13.06129,-1.94566l7.10012,-25.96308" data-paper-data="{&quot;index&quot;:null}" fill="#ffab19" fill-rule="evenodd" stroke="#001026" stroke-linecap="round" stroke-linejoin="round"/><path d="M185.91743,253.98767c0,0 0.6419,7.08351 0.37632,9.9789c-0.1629,1.77604 -2.4974,7.82141 -2.4974,7.82141c0,0 0.96348,4.19445 0.58295,4.57548c-0.48893,0.48959 -2.01172,-2.04042 -2.01172,-2.04042c0,0 1.56761,2.90055 1.60997,3.18966c0.29547,2.01724 -1.05299,4.66627 -4.58655,4.91795c-3.87964,0.27631 -10.3115,0.5884 -13.62716,-1.00756c-3.00174,-1.44484 -3.10817,-4.72318 -2.70515,-6.06935c0.28302,-0.94535 2.28091,-1.45464 2.68544,-2.61684c0.26898,-0.77278 -2.98925,2.73968 -2.40038,1.70946c0.17121,-0.29951 2.57514,-5.01664 2.57514,-5.01664c0,0 0.35676,-4.38165 1.02949,-6.00422c2.70139,-6.51563 5.97229,-11.96272 5.97229,-11.96272" data-paper-data="{&quot;index&quot;:null}" fill="url(#color-5)" fill-rule="evenodd" stroke="#caa551" stroke-linecap="round" stroke-linejoin="round"/><path d="M182.32375,278.70265c-0.09725,1.44997 -0.89056,3.13463 -2.61242,4.00943c-1.72826,0.87802 -12.11512,0.53007 -13.72087,-0.543c-1.52493,-1.01907 -2.1461,-2.90259 -2.05119,-4.31773c0.19486,-2.90531 4.46832,-5.06999 9.54507,-4.8349c5.07671,0.23509 9.03427,2.7809 8.83939,5.68623z" fill="url(#color-6)" fill-rule="nonzero" stroke="url(#color-7)" stroke-linecap="butt" stroke-linejoin="miter"/></g></g><g fill="none" fill-rule="nonzero" stroke="none" stroke-width="1" stroke-linecap="butt" stroke-linejoin="miter" font-family="sans-serif" font-weight="normal" font-size="12" text-anchor="start"/></g><path d="M168.62159,222.30915l8.23402,-0.07574l-1.3044,0.90884" fill="none" fill-rule="nonzero" stroke="#000000" stroke-width="1" stroke-linecap="round" stroke-linejoin="miter"/><g data-paper-data="{&quot;index&quot;:null}" fill="#000000" fill-rule="nonzero" stroke="#000000" stroke-width="1.2" stroke-linecap="butt" stroke-linejoin="miter"><path d="M145.72108,232.98885c-1.0132,-1.57786 -0.16775,-4.77844 -0.54957,-7.01001c-0.41107,-2.40261 -1.95893,-3.68855 -1.2717,-5.17363c0.48004,-1.0373 2.09383,-1.48197 2.9614,-1.61007c2.10964,-0.31154 4.38588,2.74408 5.0841,6.82488c0.69823,4.0808 -0.44594,7.6415 -2.55557,7.95302c-0.95598,0.14117 -2.82904,0.32332 -3.66865,-0.98417z"/><path d="M149.77431,234.54399c-1.39119,-2.21196 -1.3424,-8.12069 -1.3424,-8.12069c0,0 -1.79264,-3.4907 -1.80545,-3.57512c-0.81748,-5.37917 2.82567,-5.97801 6.97976,-6.59143c1.97707,-0.29196 5.14465,0.00384 6.51257,1.52363c1.55139,1.72362 1.40515,4.47441 1.91778,7.47055c0.96464,5.63795 -0.71774,10.79962 -4.93703,11.42268c-1.85731,0.27426 -5.46712,0.82469 -7.32523,-2.12963z"/></g><path d="M170.22502,230.54765l13.77031,6.29826l-2.37385,6.31689l-13.0832,-2.43445z" fill="url(#color-8)" fill-rule="nonzero" stroke="#737373" stroke-width="2.5" stroke-linecap="butt" stroke-linejoin="miter"/><path d="M176.40912,249.33859c0,0 3.66238,-5.90432 3.2014,-7.71528c-0.11275,-0.44294 2.20841,-1.94222 1.70981,-2.36524c-2.37766,-2.01725 -4.43141,-0.63009 -4.43141,-0.63009c0,0 0.09005,-0.29381 3.98153,-3.07689c1.07448,-0.76844 5.65015,-0.70239 5.94979,-0.937c0.38698,-0.30301 18.60852,1.85449 18.60852,1.85449c0,0 -2.91194,6.24599 -2.95532,9.39025c-0.00031,0.02234 -6.69339,-1.38973 -6.69822,-1.03947c-0.02895,2.09839 -0.61294,4.51845 -0.61294,4.51845c0,0 -5.64779,1.17819 -8.45881,1.22526c-3.09887,0.05189 -10.29437,-1.22445 -10.29437,-1.22445z" fill="url(#color-9)" fill-rule="nonzero" stroke="#737373" stroke-width="2.5" stroke-linecap="butt" stroke-linejoin="miter"/><g stroke-linejoin="miter"><g data-paper-data="{&quot;index&quot;:null}" stroke-linecap="butt"><path d="M216.77102,217.88914c-4.13875,12.67317 -19.05078,19.68947 -33.30698,15.67137c-14.25618,-4.01811 -22.45798,-17.54905 -18.31921,-30.22223c4.13875,-12.67317 19.05078,-19.68947 33.30698,-15.67137c14.25618,4.01811 22.45798,17.54905 18.31921,30.22223z" fill="none" fill-rule="nonzero" stroke="#000000" stroke-width="4.5"/><g><g fill-rule="nonzero"><path d="M180.50856,191.48656l-0.00911,-0.0109" data-paper-data="{&quot;index&quot;:null}" fill="#ffab19" stroke="#000000" stroke-width="5"/><g data-paper-data="{&quot;index&quot;:null}" fill="none" stroke="none" stroke-width="1" font-family="sans-serif" font-weight="normal" font-size="12" text-anchor="start"/></g><path d="M180.50856,191.48656l-0.00911,-0.0109" data-paper-data="{&quot;index&quot;:null}" fill="#ffab19" fill-rule="nonzero" stroke="#000000" stroke-width="5"/><path d="M190.2864,211.68274" fill="#001026" fill-rule="evenodd" stroke="#000000" stroke-width="5"/><g data-paper-data="{&quot;index&quot;:null}" fill="none" fill-rule="nonzero" stroke="none" stroke-width="1" font-family="sans-serif" font-weight="normal" font-size="12" text-anchor="start"/><g data-paper-data="{&quot;index&quot;:null}" fill="none" fill-rule="nonzero" stroke="none" stroke-width="1" font-family="sans-serif" font-weight="normal" font-size="12" text-anchor="start"/></g></g><path d="M187.54046,221.67932c-0.52354,1.91021 -14.08847,2.92959 -18.27178,1.94008c-4.18329,-0.9895 -0.8394,-8.25604 -0.31586,-10.16625c0.06771,-0.24709 18.6508,7.9957 18.58763,8.22616z" fill="#ffffff" fill-rule="nonzero" stroke="#000000" stroke-width="3" stroke-linecap="butt"/><path d="M207.40756,195.26512l-39.47422,8.58067l-4.61507,13.1399l-16.02923,-33.39197l45.87704,-6.49647l21.55009,20.62593z" fill="#000000" fill-rule="nonzero" stroke="#191919" stroke-width="3" stroke-linecap="round"/><path d="M172.45228,199.49711l22.37614,9.99174l-0.85241,4.71219" fill="none" fill-rule="nonzero" stroke="#000000" stroke-width="5" stroke-linecap="round"/><path d="M202.22984,216.139l-0.11397,-5.3074l18.67413,-12.77006" fill="none" fill-rule="nonzero" stroke="#000000" stroke-width="5" stroke-linecap="round"/></g><g fill-rule="nonzero" stroke-linecap="butt" stroke-linejoin="miter"><g data-paper-data="{&quot;index&quot;:null}" stroke="none" stroke-width="1"><path d="M218.63087,230.51913c-0.22458,0.0044 -0.31705,-0.11426 -0.39905,-0.27123c-0.10809,-0.25714 -0.15855,-0.52913 -0.24733,-0.79124c-0.07074,-0.03521 -0.14147,-0.07043 -0.20784,-0.08895c-1.39233,-0.46069 -2.32462,-1.36045 -3.09507,-2.42657c-0.16142,-0.22558 -0.34209,-0.44626 -0.41171,-0.71327c-0.01303,-0.05008 -0.04969,-0.11188 -0.09688,-0.13535c-0.25939,-0.12911 -0.31599,-0.34609 -0.39614,-0.57481c-0.07146,-0.19531 -0.10447,-0.40056 -0.15668,-0.60084c-0.03046,-0.11682 -0.02248,-0.24356 0.07113,-0.35676c0.09361,-0.11315 0.11648,-0.26154 0.14366,-0.39321c0.06718,-0.76535 0.28197,-1.51532 0.6252,-2.24493c0.20138,-0.40809 0.47781,-0.76428 0.7735,-1.1254c0.87218,-1.06178 2.00445,-1.83434 3.31738,-2.38628c0.59352,-0.24192 1.22803,-0.40537 1.87994,-0.50206c0.49372,-0.07373 0.9795,-0.02074 1.45039,0.05388c1.4983,0.23747 2.71826,0.90282 3.71074,1.87615c0.19116,0.18232 0.33336,0.41282 0.47557,0.64337c0.10121,0.15202 0.21731,0.28243 0.43568,0.33307c0.19478,0.0389 0.31088,0.16927 0.39285,0.32625c0.10809,0.25714 0.17772,0.52418 0.24733,0.79124c0.02176,0.08347 0.00073,0.16014 -0.02035,0.23681c-0.1121,0.27822 -0.10451,0.54345 -0.05408,0.81545c0.12876,0.57243 0.05651,1.16097 0.00349,1.74458c-0.0247,0.22011 -0.06857,0.44513 -0.15527,0.6634c-0.26631,0.70979 -0.56057,1.39119 -1.05398,2.01699c0.06527,0.25033 0.11568,0.52235 0.18535,0.78938c0.02611,0.10015 0.05657,0.21698 -0.04139,0.31343c-0.07872,0.0915 -0.0334,0.18673 -0.00726,0.28684c0.15488,0.67254 0.32896,1.34015 0.48383,2.01269c0.36809,1.49038 0.74063,2.99742 1.07029,4.49769c0.32096,1.4669 0.69965,2.91892 1.05905,4.37591c0.06094,0.23366 0.07904,0.46054 0.13999,0.69417c0.29597,1.13493 0.5919,2.26985 0.86865,3.40973c0.05223,0.20027 0.14289,0.39066 0.07539,0.60394c-0.02104,0.07669 0.01993,0.15514 0.04168,0.23861c0.21766,0.83451 0.42038,1.69066 0.638,2.52517c0.0087,0.03337 0.02173,0.08345 0.03046,0.11682c0.08889,0.26209 -0.01091,0.43028 -0.24963,0.61645c-0.80358,0.61666 -1.7196,0.95947 -2.74808,1.02851c-0.26302,0.01431 -0.53472,-0.00476 -0.79592,-0.06214c-0.19479,-0.0389 -0.30653,-0.15258 -0.36929,-0.31451c-0.18824,-0.48586 -0.39573,-0.96674 -0.58833,-1.46928c-0.13421,-0.3573 -0.23432,-0.74117 -0.42621,-1.08357c-0.42041,-0.74664 -0.61445,-1.56942 -0.9772,-2.33088c-0.19444,-0.4308 -0.42297,-0.83506 -0.59818,-1.27084c-0.18389,-0.46914 -0.40189,-0.91172 -0.6007,-1.35919c-0.35656,-0.81653 -0.67901,-1.65966 -1.05481,-2.47122c-0.52231,-1.05878 -0.96778,-2.13744 -1.41319,-3.21603c-0.15779,-0.36905 -0.31559,-0.73798 -0.47337,-1.10703c-0.23362,-0.58104 -0.47153,-1.17875 -0.70511,-1.75976c-0.12553,-0.3239 -0.28511,-0.62121 -0.41063,-0.94508c-0.1491,-0.33568 -0.23177,-0.65272 -0.36598,-1.01003zM219.0506,230.16166c0.25684,0.04071 0.50498,0.04806 0.75928,0.00038c0.53909,0.02142 1.06693,-0.0789 1.59478,-0.17926c0.6668,-0.11833 1.33539,-0.30836 1.98479,-0.49346c0.74552,-0.20985 1.38984,-0.57173 2.04906,-0.95527c0.0682,-0.0532 0.13641,-0.10638 0.2387,-0.18615c-0.03479,-0.13352 -0.06967,-0.26703 -0.10447,-0.40054c-0.0087,-0.03337 -0.03663,-0.06181 -0.06892,-0.10691c-0.13459,0.03465 -0.26483,0.08602 -0.39073,0.15407c-0.21766,0.10952 -0.42482,0.18065 -0.64249,0.29014c-0.55071,0.24871 -1.15984,0.35224 -1.72359,0.55088c-0.30328,0.09596 -0.59786,0.22522 -0.90984,0.28779c-0.68603,0.1233 -1.35028,0.32999 -2.05367,0.38651c-0.18177,0.01118 -0.38272,0.02736 -0.56451,0.03853c-0.10303,-0.08035 -0.24814,-0.00731 -0.353,-0.01595c-0.12842,-0.02036 -0.25687,-0.0407 -0.46397,0.03047c0.19116,0.18232 0.19007,0.41414 0.31919,0.5946c0.10051,-0.00806 0.20351,0.07224 0.32941,0.00419zM219.9676,230.53102c-0.48141,-0.03632 -0.6011,-0.02326 -0.84237,0.07449c0.07146,0.19531 0.13858,0.37398 0.21002,0.56931c0.03046,0.11682 0.1291,0.18049 0.25758,0.20084c0.08566,0.01357 0.18174,-0.01119 0.26736,0.00237c0.3189,0.04256 0.65882,0.0084 0.96208,-0.08752c0.15637,0.04875 0.31016,0.00919 0.464,-0.03045c0.86957,-0.20618 1.72431,-0.39075 2.57214,-0.68036c0.37586,-0.13244 0.74737,-0.28155 1.09525,-0.44241c0.27103,-0.14107 0.56124,-0.28706 0.73975,-0.54678c-0.05659,-0.21699 -0.1132,-0.43392 -0.16976,-0.65092c-0.1451,0.07298 -0.27103,0.14105 -0.37765,0.20412c-0.50356,0.27217 -1.0158,0.51101 -1.54548,0.68306c-0.67912,0.22835 -1.38003,0.37327 -2.07657,0.53489c-0.32689,0.08421 -0.66063,0.06333 -0.98314,0.16419c-0.20351,-0.07224 -0.40014,-0.03943 -0.57318,0.00514zM227.19602,248.49288c0.29529,0.0308 0.56882,-0.02182 0.83364,-0.10785c0.02356,0.01173 0.0664,0.01852 0.08565,0.01355c0.45711,-0.13554 0.90552,-0.30448 1.28935,-0.56366c0.22824,-0.14785 0.46076,-0.27898 0.60511,-0.51209c-0.24374,-0.93466 -0.48749,-1.86926 -0.74424,-2.85402c-0.41358,0.30243 -0.85331,0.50481 -1.29732,0.69039c-0.38638,0.17078 -0.78399,0.21975 -1.17906,0.35714c-0.1538,0.03963 -0.29276,0.05763 -0.44659,0.09725c-0.25247,-0.02403 -0.5155,-0.0097 -0.80825,0.04788c0.13059,0.50071 0.40627,0.9284 0.5666,1.38583c0.1839,0.46915 0.38704,0.93337 0.5666,1.38581c0.2035,0.07224 0.36604,0.06603 0.52857,0.05977zM225.84051,245.26202c0.15637,0.04873 0.31455,0.02585 0.46833,-0.01378c0.17124,0.02716 0.33996,-0.03411 0.51733,-0.06199c0.54273,-0.122 1.06371,-0.32743 1.5567,-0.56129c0.29021,-0.146 0.57175,-0.32541 0.79738,-0.56164c-0.0174,-0.06677 -0.01559,-0.13847 -0.03303,-0.20523c-0.21324,-0.81785 -0.42214,-1.61892 -0.61621,-2.44169c-0.2071,-0.87283 -0.40985,-1.72898 -0.61693,-2.60181c-0.31158,-1.27341 -0.59949,-2.53506 -0.91109,-3.80846c-0.33149,-1.42856 -0.71633,-2.82557 -1.00935,-4.26404c-0.04169,-0.23861 -0.12625,-0.484 -0.19151,-0.73437c-0.19407,0.12124 -0.36022,0.27091 -0.56302,0.35876c-0.63379,0.32356 -1.31292,0.55191 -2.00076,0.74692c-0.61526,0.15848 -1.23491,0.30027 -1.85456,0.44206c-0.25869,0.03101 -0.49374,0.07374 -0.75241,0.10475c-0.17991,-0.06052 -0.34428,0.01744 -0.50681,0.02368c-0.18177,0.01118 -0.35297,-0.01595 -0.5409,0.05027c0.00507,0.17681 0.07834,0.30044 0.12804,0.41229c0.46831,0.93026 0.78712,1.9168 1.19773,2.86188c0.26154,0.60947 0.52304,1.21894 0.80384,1.82341c0.35656,0.81653 0.72798,1.61139 1.08021,2.41122c0.29384,0.65456 0.58763,1.30915 0.8622,1.96868c0.30685,0.70467 0.59012,1.39756 0.87779,2.10717c0.27023,0.64283 0.54484,1.30236 0.83864,1.95693c0.17737,-0.02789 0.31888,0.04253 0.46834,-0.01376zM226.43023,221.24317c-0.38381,0.25915 -0.77023,0.42994 -1.15221,0.6174c-0.40125,0.19242 -0.77889,0.39658 -1.18448,0.57227c-0.38639,0.17077 -0.80072,0.31311 -1.19143,0.46716c-0.40998,0.15903 -0.81991,0.31806 -1.2534,0.46537c-0.39506,0.13737 -0.81374,0.26301 -1.20882,0.4004c-0.41865,0.12564 -0.85472,0.18454 -1.25597,0.37695c-0.42985,0.00387 -0.83547,0.17959 -1.24362,0.26693c-0.43168,0.07556 -0.87396,0.1895 -1.30566,0.26508c-0.41246,0.07061 -0.84854,0.12948 -1.26537,0.18343c-0.43608,0.05888 -0.87032,0.04602 -1.29327,0.15502c0.066,0.41048 0.09646,0.52729 0.32862,0.78809c0.25247,0.02403 0.505,0.04806 0.7872,0.02877c0.33993,-0.03412 0.67983,-0.06823 1.04337,-0.09062c0.68421,-0.05154 1.34483,-0.11488 2.0178,-0.28821c0.46147,-0.11887 0.91858,-0.25444 1.39747,-0.30652c0.10051,-0.00806 0.21585,-0.0378 0.32248,-0.10088c0.21765,-0.10953 0.472,-0.15718 0.7027,-0.21664c0.84602,-0.21791 1.66591,-0.53597 2.46223,-0.8658c1.06118,-0.41584 2.05339,-0.93858 3.03253,-1.51143c0.19842,-0.10456 0.39689,-0.20909 0.51148,-0.39892c-0.02681,-0.26027 -0.11133,-0.50569 -0.25169,-0.80791zM218.14444,221.25797c-0.09722,0.25659 -0.11757,0.49339 -0.15711,0.73512c-0.04829,0.20834 -0.01527,0.41359 0.11388,0.59407c0.21546,0.35415 0.37763,0.73985 0.46282,1.14538c0.0087,0.03337 0.04095,0.07851 0.04532,0.09519c0.10918,0.02529 0.18608,0.00546 0.2692,-0.06936c0.01488,-0.02162 0.0254,-0.05997 0.02104,-0.07668c-0.06854,-0.49888 -0.0986,-1.00763 -0.09023,-1.52633c0.00183,-0.07172 -0.00507,-0.1768 -0.06095,-0.23367c-0.14654,-0.24724 -0.29309,-0.49445 -0.604,-0.66374zM217.64796,224.0753c-0.05984,-0.46548 -0.07684,-0.92418 -0.07027,-1.37115c0.00361,-0.1434 -0.04605,-0.2553 -0.13858,-0.37396c-0.14836,-0.17549 -0.32649,-0.30775 -0.50896,-0.45668c-0.05587,-0.05685 -0.11605,-0.13039 -0.22274,-0.0673c-0.02215,0.30851 -0.06786,0.60528 -0.05159,0.90384c0.50969,0.61679 0.50966,0.61678 0.7378,1.41293c0.07073,0.03523 0.15201,0.03208 0.25431,-0.0477zM222.80876,224.50926c0.00142,0.32024 0.0221,0.63555 0.04275,0.95082c-0.00183,0.07173 -0.00363,0.14342 0.033,0.20522c0.2042,0.23236 0.38926,0.46969 0.67656,0.62725c0.17851,-0.25971 0.17089,-0.52492 0.22533,-0.78832c0.02722,-0.13166 -0.01814,-0.22688 -0.1063,-0.32884c-0.22344,-0.22742 -0.40847,-0.46477 -0.57854,-0.7237c-0.00434,-0.0167 -0.04713,-0.0235 -0.09429,-0.04694c-0.05333,0.03154 -0.12594,0.06807 -0.19844,0.10456zM221.97675,220.21737c-0.18032,0.33143 -0.23041,0.6115 -0.2997,0.89652c-0.01236,0.11005 0.02866,0.18852 0.06965,0.26703c0.21984,0.37084 0.38194,0.75658 0.47154,1.17879c0.01304,0.05007 0.04532,0.09519 0.0584,0.14524c0.21586,-0.03779 0.24997,-0.06437 0.21513,-0.19789c-0.11318,-0.43397 -0.12582,-0.87597 -0.03366,-1.30936c0.05444,-0.26339 -0.01702,-0.45872 -0.16973,-0.65093c-0.10739,-0.09705 -0.19117,-0.18234 -0.31159,-0.32941zM219.92114,223.50758c0.09612,-0.02478 0.09792,-0.09651 0.08053,-0.16327c-0.12184,-0.46731 -0.08558,-0.95756 -0.04925,-1.44784c0.0196,-0.39689 -0.1574,-0.76096 -0.54156,-1.05385c-0.09541,0.18487 -0.07112,0.35674 -0.12809,0.53171c-0.10958,0.36664 -0.02687,0.68373 0.13706,0.99775c0.17267,0.34736 0.36455,0.68981 0.42186,1.06688c0.0323,0.04509 0.05587,0.05688 0.07945,0.0686zM220.63531,220.58071c-0.06315,0.22999 -0.12449,0.38828 -0.16656,0.54161c-0.07798,0.25165 -0.045,0.45689 0.09282,0.67072c0.19805,0.2874 0.32357,0.61129 0.42985,0.94011c0.0497,0.1119 0.0845,0.2454 0.11497,0.36222c0.10051,-0.00806 0.10665,-0.06307 0.09795,-0.09646c-0.03011,-0.50878 -0.04094,-1.02249 0.0295,-1.53936c-0.00254,-0.0884 -0.00073,-0.16011 -0.04171,-0.2386c-0.15707,-0.2089 -0.2949,-0.42275 -0.55681,-0.64025zM223.97656,224.03035c0.15961,0.29731 0.18025,0.61258 0.22013,0.92292c0.02176,0.08345 -0.01851,0.16507 0.0417,0.2386c0.09252,0.11869 0.39288,0.32627 0.64356,0.42202c0.09109,-0.20159 0.07729,-0.41175 0.10636,-0.61518c0.0185,-0.16508 -0.03553,-0.29363 -0.16649,-0.40239c-0.21472,-0.19403 -0.39105,-0.39799 -0.51836,-0.65018c-0.00433,-0.01671 -0.05152,-0.04015 -0.07508,-0.05188c-0.08128,0.00313 -0.15819,0.02292 -0.25177,0.13611zM217.68812,226.82567c0.1763,0.20392 0.23105,0.49265 0.46068,0.66505c0.13024,-0.05136 0.16618,-0.14967 0.22568,-0.23624c0.09976,-0.16821 0.22747,-0.30793 0.27573,-0.51629c-0.19369,-0.27072 -0.24231,-0.61442 -0.42114,-0.90675c-0.10918,-0.02529 -0.20533,-0.00056 -0.29275,0.05761c-0.04136,0.31346 -0.12554,0.62013 -0.24819,0.93668zM220.55992,225.24885c0.00507,0.17681 0.01012,0.35361 -0.05554,0.49519c-0.15674,0.34314 -0.06349,0.62195 0.16431,0.86604c0.08377,0.08528 0.10989,0.18543 0.25138,0.25588c0.14875,-0.21646 0.23548,-0.4347 0.32215,-0.65297c0.02541,-0.05998 0.00796,-0.12673 -0.03301,-0.20522c-0.14223,-0.23054 -0.26083,-0.44934 -0.40299,-0.67987c-0.01303,-0.05008 -0.06894,-0.10693 -0.24635,-0.07904zM219.34862,225.56088c0.01885,0.387 -0.00951,0.7505 -0.18981,1.08194c-0.04461,0.06492 -0.00797,0.12673 0.00945,0.19348c0.0584,0.14526 0.13604,0.28559 0.29055,0.40604c0.20827,-0.30301 0.32037,-0.58128 0.42812,-0.87618c0.03592,-0.09829 0.03342,-0.1867 -0.01196,-0.28191c-0.08628,-0.1737 -0.15345,-0.35234 -0.23978,-0.52601c-0.00433,-0.01671 -0.05153,-0.04018 -0.07509,-0.0519c-0.05768,0.01485 -0.11538,0.02972 -0.21148,0.0545zM223.65135,220.65878c-0.12044,-0.14707 -0.2452,-0.3109 -0.36565,-0.458c-0.02356,-0.01173 -0.04718,-0.02349 -0.09431,-0.04694c-0.17236,0.20468 -0.23548,0.4347 -0.26454,0.63809c0.26953,0.48273 0.53033,0.93206 0.67831,1.49954c0.19955,-0.33638 -0.00471,-0.56874 -0.0036,-0.80056c-0.01196,-0.28191 0.01888,-0.55699 0.04972,-0.83211zM217.77073,220.92676c-0.2445,-0.15074 -0.45059,-0.31141 -0.7502,-0.3589c-0.04645,0.13663 -0.12081,0.24486 -0.15236,0.35987c-0.03154,0.115 -0.08235,0.23493 -0.05185,0.35177c0.09686,0.13532 0.25757,0.20082 0.38417,0.29289c0.12662,0.09203 0.21912,0.21074 0.39467,0.25457c0.06494,-0.30173 0.11504,-0.58176 0.17565,-0.90018zM216.42614,224.42565c-0.05368,-0.5205 -0.10483,-0.95263 -0.15592,-1.38471c-0.0087,-0.03337 -0.0025,-0.08842 -0.04969,-0.11188c-0.18247,-0.14891 -0.3352,-0.34113 -0.61559,-0.39357c-0.01599,0.25347 -0.03631,0.49027 -0.0374,0.72211c0.35006,0.3195 0.59345,0.70205 0.85862,1.16809zM222.19343,226.55578c0.14259,-0.16142 0.1375,-0.33821 0.17961,-0.49154c0.05698,-0.17497 0.05626,-0.33507 -0.06854,-0.49885c-0.16141,-0.22558 -0.32284,-0.45118 -0.35405,-0.72816c-0.14332,0.00129 -0.21586,0.03779 -0.18974,0.13793c0.04606,0.25528 0.09645,0.5273 0.03768,0.77398c-0.07112,0.35674 0.14798,0.56752 0.39505,0.80664zM220.19422,226.67887c-0.17596,0.34812 -0.33088,0.61957 -0.46658,0.88605c0.03046,0.11682 0.10556,0.16875 0.16142,0.22557c0.07509,0.0519 0.13964,0.14211 0.28293,0.14084c0.17671,-0.18802 0.32542,-0.40442 0.45063,-0.63256c-0.11426,-0.20209 -0.2434,-0.38258 -0.42839,-0.61991zM223.42612,226.71915c-0.23831,-0.20578 -0.44875,-0.38311 -0.66346,-0.57716c-0.07801,0.25165 -0.16037,0.48662 -0.24274,0.72155c0.19116,0.18232 0.33953,0.35784 0.60942,0.44857c0.13388,-0.19476 0.20571,-0.3914 0.29678,-0.59297zM218.5544,220.15491c-0.20462,0.15956 -0.20572,0.39141 -0.27758,0.58801c-0.02541,0.05998 0.01557,0.13847 0.06712,0.17863c0.15888,0.1372 0.29419,0.26265 0.4487,0.38316c0.00434,0.0167 0.04283,0.00677 0.08129,-0.00312c0.07369,-0.26832 0.12368,-0.54838 0.19739,-0.81672c-0.13964,-0.14213 -0.32828,-0.23602 -0.51694,-0.32991zM221.63119,219.91454c-0.1248,-0.16377 -0.2452,-0.31087 -0.48717,-0.37324c-0.11464,0.18986 -0.26775,0.38959 -0.31168,0.61463c0.08814,0.10198 0.13784,0.21384 0.24086,0.29417c0.08376,0.08528 0.09936,0.22378 0.28548,0.22925c0.09724,-0.25659 0.19446,-0.51317 0.27251,-0.76485zM223.94262,226.49705c0.11608,0.13039 0.3109,0.16926 0.51004,0.22484c0.10163,-0.2399 0.25467,-0.43965 0.27069,-0.69311c-0.18866,-0.09391 -0.33265,-0.25271 -0.57898,-0.33177c-0.07369,0.26832 -0.12812,0.53171 -0.20176,0.80003zM225.09903,223.45628c0.05912,0.30537 0.19953,0.60762 0.22015,0.92293c0.02683,0.26026 0.19626,0.35907 0.46179,0.43318c0.0867,-0.21823 0.07729,-0.41175 0.08273,-0.62689c-0.31959,-0.20263 -0.49846,-0.495 -0.76469,-0.7292zM215.2885,224.46933c0.07257,-0.03649 0.05948,-0.08656 0.04645,-0.13663c-0.03734,-0.22192 -0.09828,-0.45559 -0.11641,-0.68247c-0.0058,-0.33692 -0.2416,-0.45429 -0.53944,-0.5735c-0.00798,0.12677 -0.02466,0.22008 -0.02213,0.30848c-0.00542,0.21514 0.02319,0.40367 0.24412,0.54271c0.12661,0.09204 0.20422,0.23239 0.27755,0.35599c-0.00183,0.07173 -0.0185,0.16506 0.10989,0.18542zM216.90815,227.45407c0.07872,-0.0915 0.11901,-0.17315 0.16363,-0.23807c0.15745,-0.18303 0.17598,-0.34814 0.08527,-0.5385c-0.08194,-0.157 -0.11061,-0.34556 -0.17337,-0.50749c-0.01303,-0.05009 -0.00688,-0.10509 -0.14584,-0.08712c-0.03524,0.25844 -0.10886,0.52678 -0.22534,0.78832c-0.02541,0.05998 -0.00363,0.14339 0.01376,0.21016c0.07326,0.12359 0.14219,0.23057 0.28186,0.37267zM221.99636,226.98056c-0.12041,-0.14708 -0.22597,-0.31582 -0.39978,-0.43134c-0.14438,0.23313 -0.31672,0.4378 -0.39475,0.68944c0.1589,0.13718 0.26008,0.28922 0.49771,0.3349c0.11466,-0.18986 0.25291,-0.36794 0.29677,-0.59298zM220.07215,220.93951c0.14436,-0.23312 0.20751,-0.46313 0.23217,-0.6832c-0.15887,-0.13719 -0.2942,-0.26261 -0.50643,-0.36826c-0.12772,0.13977 -0.18902,0.29807 -0.22675,0.46808c0.17194,0.18725 0.32468,0.37946 0.50095,0.58341zM220.48534,228.18908c0.14586,0.08713 0.22527,0.1557 0.33883,0.19768c0.07074,0.03521 0.13711,0.05375 0.20353,0.07225c0.1705,-0.13296 0.31309,-0.29438 0.38495,-0.491c-0.13964,-0.14213 -0.27932,-0.28424 -0.50209,-0.35155c-0.13388,0.19476 -0.27645,0.35619 -0.42519,0.57261zM215.93778,226.17225c-0.15926,0.25479 -0.27826,0.42788 -0.4078,0.63936c-0.00183,0.07172 0.04784,0.18357 0.13166,0.26887c0.06456,0.09022 0.05659,0.21696 0.19371,0.27071c0.15999,-0.09465 0.25358,-0.20781 0.31928,-0.3494c-0.08888,-0.26209 -0.15412,-0.51246 -0.23681,-0.82955zM217.19222,220.20298c0.11793,0.05869 0.23584,0.11739 0.3537,0.17609c0.11794,0.05869 0.23146,0.10066 0.34935,0.15936c0.08673,-0.21823 0.18651,-0.38645 0.17709,-0.57993c-0.08378,-0.08527 -0.20786,-0.08894 -0.31703,-0.11427c-0.10918,-0.02529 -0.23146,-0.10066 -0.36167,-0.04932c-0.08491,0.14658 -0.17849,0.2597 -0.20137,0.40811zM222.87646,227.68005c-0.19735,-0.12727 -0.34571,-0.30282 -0.6113,-0.37688c-0.09975,0.1682 -0.18031,0.33142 -0.28011,0.49963c0.19734,0.12727 0.35187,0.2478 0.60438,0.27179c0.11282,-0.11812 0.23438,-0.20286 0.28699,-0.39453zM216.22019,222.37703c0.03705,-0.33013 0.06354,-0.62193 0.09002,-0.9137c-0.10303,-0.08035 -0.18681,-0.16564 -0.33011,-0.16433c-0.16363,0.2381 -0.19883,0.49647 -0.25326,0.75986c0.10304,0.08035 0.20604,0.16068 0.32393,0.21936c0.03663,0.06183 0.07943,0.06858 0.16939,0.09885zM219.22775,227.69369c-0.16328,-0.15386 -0.21548,-0.35417 -0.40413,-0.44807c-0.16796,0.22139 -0.32106,0.42112 -0.42269,0.66106c0.16509,0.08216 0.20857,0.24907 0.42697,0.29968c0.17048,-0.13296 0.24672,-0.31293 0.39984,-0.51265zM222.41359,219.3746c-0.10848,0.13481 -0.19336,0.28136 -0.23545,0.43471c0.16762,0.17056 0.31596,0.34607 0.49226,0.55001c0.06747,-0.21327 0.14804,-0.37653 0.25836,-0.58306c-0.16761,-0.17057 -0.3116,-0.32941 -0.51515,-0.40166zM217.10005,227.79648c0.13348,0.19717 0.23907,0.36589 0.46614,0.4499c0.13204,-0.12308 0.24925,-0.22448 0.29135,-0.37783c-0.12913,-0.18047 -0.23904,-0.36585 -0.39612,-0.57477c-0.14259,0.16142 -0.26593,0.31787 -0.36136,0.50274zM220.52934,219.85995c0.08236,-0.23494 0.26776,-0.38961 0.25833,-0.58311c-0.15887,-0.13719 -0.33882,-0.1977 -0.53365,-0.23659c-0.12334,0.15646 -0.25107,0.29621 -0.2609,0.49465c0.1694,0.09886 0.31962,0.20263 0.53617,0.32497zM224.24267,227.09658c-0.16508,-0.08216 -0.29166,-0.17421 -0.48213,-0.19639c-0.0867,0.21823 -0.26776,0.38957 -0.2881,0.62637c0.14585,0.08713 0.27863,0.12417 0.45603,0.09628c0.119,-0.17314 0.21443,-0.358 0.31417,-0.52621zM215.25746,222.30437c-0.15019,-0.10382 -0.2637,-0.14577 -0.4114,-0.16124c-0.09976,0.16821 -0.17164,0.3648 -0.11937,0.56507c0.14149,0.07042 0.28292,0.14083 0.42878,0.22798c0.10597,-0.22322 0.07296,-0.42843 0.10197,-0.63185zM226.63509,224.46762c-0.13709,-0.05374 -0.25069,-0.09573 -0.37037,-0.08271c-0.07185,0.19659 -0.10519,0.38334 -0.09579,0.57683c0.12222,0.07539 0.23579,0.11738 0.37909,0.11608c0.09109,-0.20159 0.05806,-0.4068 0.08708,-0.6102zM221.44964,228.58187c0.16757,0.17056 0.32576,0.14763 0.49446,0.08637c0.13458,-0.03465 0.26049,-0.10271 0.28335,-0.25111c-0.15019,-0.10382 -0.296,-0.19092 -0.49082,-0.22981c-0.10848,0.13481 -0.19773,0.26467 -0.28698,0.39452zM224.55934,220.44268c-0.09685,-0.13534 -0.13166,-0.26885 -0.28801,-0.31764c-0.31055,0.38279 -0.13176,0.67516 0.15194,0.97608c0.04392,-0.22504 0.09219,-0.43344 0.13608,-0.65844zM219.56137,228.65866c0.15566,-0.11132 0.24924,-0.22449 0.32543,-0.40442c-0.15637,-0.04875 -0.21915,-0.21072 -0.39036,-0.23785c-0.11105,0.0464 -0.13205,0.12306 -0.19592,0.19293c-0.05947,0.08655 -0.14693,0.14471 -0.11648,0.26154c0.10304,0.08035 0.20607,0.16068 0.37729,0.18781zM220.34593,223.32693c0.23759,0.04566 0.34429,-0.01743 0.32432,-0.17258c-0.03733,-0.22191 -0.11315,-0.43395 -0.18462,-0.62928c-0.01738,-0.06674 -0.05843,-0.14524 -0.18248,-0.14891c-0.0178,0.32519 0.00287,0.64044 0.04274,0.95078zM225.34733,226.84765c0.06456,0.09023 0.15454,0.12051 0.27427,0.10749c0.15312,-0.19975 0.34905,-0.39269 0.40348,-0.65607c-0.25684,-0.0407 -0.42124,0.03723 -0.51228,0.23879c-0.05948,0.08657 -0.16184,0.16639 -0.16547,0.30978zM222.87888,222.49635c0.26916,-0.06932 0.31813,-0.11762 0.27899,-0.26778c-0.08017,-0.22871 -0.16466,-0.4741 -0.32175,-0.683c-0.07548,0.34005 -0.13608,0.65845 0.04274,0.95079zM226.18347,223.44407c0.01557,0.13846 0.04609,0.25531 0.05729,0.37707c0.04167,0.23863 0.04171,0.23861 0.40958,0.23295c0.00798,-0.12677 0.03086,-0.27513 0.03266,-0.34682c-0.18865,-0.09393 -0.33446,-0.18101 -0.49952,-0.26316zM219.32909,218.79765c-0.09363,0.11317 -0.25794,0.19114 -0.21008,0.37473c0.13711,0.05375 0.28913,0.08583 0.44982,0.15129c0.1085,-0.13482 0.24057,-0.25785 0.26341,-0.40625c-0.15639,-0.04874 -0.29785,-0.11922 -0.50318,-0.11977zM225.35432,225.06477c-0.03952,0.24172 -0.09836,0.48841 -0.13788,0.73015c0.06022,0.07351 0.13527,0.12544 0.24192,0.06236c0.13388,-0.19476 0.22062,-0.41307 0.2217,-0.64488c-0.10303,-0.08035 -0.19734,-0.12727 -0.32579,-0.14761zM223.08554,219.43309c0.13024,-0.05136 0.20899,-0.14288 0.25977,-0.26284c-0.05587,-0.05686 -0.11173,-0.11371 -0.16761,-0.17055c-0.07941,-0.0686 -0.13968,-0.14213 -0.26374,-0.14578c-0.11536,0.02971 -0.2028,0.08782 -0.25793,0.19112c0.13534,0.12546 0.29423,0.26262 0.42948,0.38808zM219.21069,220.07494c0.1085,-0.13482 0.15493,-0.27147 0.1778,-0.41984c-0.17991,-0.06052 -0.34064,-0.12597 -0.49696,-0.17476c-0.14076,0.08973 -0.19156,0.20966 -0.18468,0.31475c0.16939,0.09886 0.33883,0.19769 0.50387,0.2799zM223.98945,219.75238c-0.08378,-0.08527 -0.16757,-0.17056 -0.27061,-0.25093c-0.02356,-0.01172 -0.06205,-0.00182 -0.10489,-0.0086c-0.06386,0.06988 -0.17051,0.13296 -0.19337,0.28136c0.09254,0.11868 0.17452,0.27562 0.34391,0.3745c0.13202,-0.12307 0.1828,-0.24304 0.22492,-0.39636zM225.38297,220.92517c-0.02866,-0.18854 0.17414,-0.27642 0.13063,-0.44329c-0.11172,-0.11367 -0.17008,-0.25896 -0.35875,-0.35285c-0.11282,0.11812 -0.20645,0.23132 -0.10956,0.36663c0.09685,0.13535 0.11679,0.29049 0.3377,0.42953zM226.27975,225.85941c0.04644,-0.13664 0.1121,-0.27824 0.1629,-0.39816c0.01489,-0.02164 -0.01305,-0.05009 -0.02178,-0.08345c-0.10485,-0.00861 -0.22273,-0.06733 -0.38272,0.02736c-0.06128,0.15827 -0.1183,0.33325 -0.19448,0.5132c0.15199,0.0321 0.27173,0.01905 0.43608,-0.05888zM218.40758,219.35562c-0.14147,-0.07043 -0.28731,-0.15754 -0.4052,-0.21621c-0.15999,0.09464 -0.25362,0.20781 -0.32797,0.31603c0.04972,0.1119 0.18863,0.09388 0.27862,0.12416c0.09001,0.03025 0.18428,0.0772 0.31454,0.02584c0.0682,-0.0532 0.13206,-0.12309 0.14006,-0.24983zM217.82191,228.51891c0.12662,0.09203 0.22529,0.15572 0.32395,0.21935c0.02792,0.02845 0.08998,0.03028 0.11357,0.042c0.13458,-0.03465 0.21334,-0.12618 0.26411,-0.24614c-0.13097,-0.10875 -0.2427,-0.22246 -0.40769,-0.30466c-0.10229,0.07979 -0.18104,0.17132 -0.29387,0.28943zM226.69815,223.29369c0.02036,-0.2368 0.04065,-0.47355 -0.07794,-0.69237c-0.15998,0.09464 -0.30949,0.15097 -0.37079,0.30923c0.17009,0.25897 0.17011,0.25897 0.44871,0.38313zM219.9491,228.80814c0.40959,0.23295 0.42876,0.22797 0.73136,-0.02813c-0.14586,-0.08713 -0.30652,-0.15256 -0.45235,-0.23972c-0.13024,0.05136 -0.20895,0.14287 -0.27901,0.26777zM222.05744,219.11012c-0.13096,-0.10875 -0.25322,-0.18413 -0.42446,-0.21129c-0.03411,0.0266 -0.0831,0.07483 -0.13208,0.12307c-0.02975,0.0433 -0.05516,0.10328 -0.08489,0.14652c0.13097,0.10874 0.24707,0.23915 0.42264,0.28299c0.10228,-0.07978 0.17236,-0.20468 0.21875,-0.34133zM216.46369,228.03165c0.04895,-0.04824 0.11281,-0.11814 0.11901,-0.17316c0.00983,-0.19847 -0.07217,-0.3554 -0.25466,-0.50436c-0.09798,0.09646 -0.24306,0.16947 -0.27464,0.2845c0.12041,0.14708 0.18754,0.32572 0.41028,0.39302zM215.59228,221.14949c-0.02354,-0.01174 -0.04715,-0.02348 -0.09431,-0.04694c-0.21514,0.19793 -0.35954,0.43104 -0.50391,0.66415c0.08814,0.10197 0.17811,0.13221 0.33626,0.1093c0.08236,-0.23494 0.18392,-0.47483 0.26197,-0.72651zM221.60879,222.11109c-0.05008,0.28007 -0.1237,0.54837 -0.0305,0.82716c0.00433,0.01671 0.08998,0.03023 0.12842,0.02034c0.09612,-0.02479 0.15563,-0.11135 0.13383,-0.19478c0.00112,-0.23183 -0.09394,-0.43891 -0.23175,-0.65272zM221.27058,218.68939c-0.12223,-0.07541 -0.24451,-0.15076 -0.39651,-0.18286c-0.13459,0.03465 -0.22203,0.09281 -0.2877,0.23437c0.16073,0.06548 0.32577,0.14765 0.48211,0.19642c0.10662,-0.06308 0.17048,-0.13297 0.20208,-0.24797zM222.9414,228.32231c0.27353,-0.05265 0.50863,-0.09535 0.70889,-0.27162c-0.09685,-0.13533 -0.24884,-0.16745 -0.41573,-0.1779c-0.1277,0.13976 -0.24054,0.25787 -0.29314,0.44957zM214.99528,226.80687c0.14695,-0.14472 0.16182,-0.16632 0.14878,-0.21643c-0.02427,-0.17183 -0.1596,-0.29732 -0.29055,-0.40604c-0.05149,-0.04014 -0.15201,-0.03206 -0.18358,0.08293c0.15453,0.12051 0.1342,0.35732 0.3254,0.53957zM216.3918,221.06823c0.10163,-0.2399 0.22677,-0.46808 0.17197,-0.75675c-0.23869,0.18615 -0.32109,0.42114 -0.41212,0.62269c0.04096,0.07851 0.10736,0.097 0.24015,0.13404zM218.82818,228.75844c-0.08307,0.07484 -0.1705,0.13298 -0.25357,0.20781c0.13532,0.12547 0.28115,0.21257 0.47959,0.10801c0.05334,-0.03154 0.10662,-0.06309 0.10848,-0.13481c-0.06456,-0.09022 -0.17813,-0.13223 -0.33446,-0.18101zM224.12364,221.99764c0.17305,-0.04461 0.24125,-0.09774 0.1872,-0.2263c-0.0497,-0.1119 -0.0994,-0.22377 -0.16833,-0.33069c-0.0323,-0.04508 -0.0838,-0.08531 -0.15635,-0.0488c-0.00545,0.21514 0.04244,0.39873 0.13747,0.60579zM216.73015,223.54586c-0.02035,0.23681 -0.00218,0.46368 0.11206,0.66578c0.00435,0.01671 0.08998,0.03023 0.10918,0.02529c0.03843,-0.0099 0.06386,-0.06988 0.05514,-0.10327c-0.0758,-0.21202 -0.08958,-0.42223 -0.27643,-0.58786zM215.95531,224.35102c-0.10119,-0.15204 -0.14909,-0.33567 -0.31229,-0.48955c-0.03954,0.24172 -0.03012,0.43523 0.05367,0.52051c0.06456,0.09022 0.14148,0.07044 0.25863,-0.03099zM224.75417,227.64163c0.21766,-0.10952 0.48688,-0.17886 0.56923,-0.41381c-0.38089,-0.04435 -0.46325,0.19059 -0.56923,0.41381zM223.69281,224.67343c0.03842,-0.0099 0.05339,-0.03157 0.09181,-0.04146c-0.06275,-0.16193 -0.02503,-0.33197 -0.16035,-0.4574c-0.11972,0.013 -0.17304,0.04458 -0.20897,0.14289c0.08814,0.10197 0.18064,0.22063 0.27754,0.35599zM219.18945,222.98358c0.00326,0.24851 0.01269,0.44202 0.08412,0.63735c0.0087,0.03337 0.05585,0.05685 0.11353,0.042c0.01925,-0.00497 0.05333,-0.03154 0.0682,-0.0532c0.02036,-0.2368 -0.03189,-0.43705 -0.26588,-0.62614zM216.84278,228.14772c-0.10663,0.0631 -0.15562,0.11131 -0.1041,0.15149c0.08814,0.10197 0.19553,0.19898 0.3029,0.29602c0.07508,0.0519 0.13276,0.03705 0.17303,-0.04457c-0.10553,-0.16874 -0.20243,-0.3041 -0.37181,-0.40294zM220.16017,218.60139c0.06386,-0.06988 0.13206,-0.12309 0.19592,-0.19295c0.0149,-0.02163 0.00616,-0.05502 0.01236,-0.11005c-0.2307,0.05939 -0.45525,0.06384 -0.68782,0.19498c0.16073,0.06548 0.27426,0.10746 0.47958,0.108zM218.65636,225.73915c0.06274,0.16195 0.12116,0.30723 0.19261,0.50256c0.14874,-0.21646 0.16728,-0.38149 0.1045,-0.54343c-0.10919,-0.0253 -0.17123,-0.02715 -0.29715,0.04089zM224.5849,223.76678c0.10739,0.09705 0.11678,0.29049 0.3544,0.33618c-0.0468,-0.41542 -0.06854,-0.49884 -0.1734,-0.50749c-0.09612,0.02479 -0.14514,0.073 -0.18104,0.17132zM218.04451,223.31417c-0.16547,0.30977 -0.11319,0.51004 0.02898,0.7406c0.21695,-0.26963 0.00218,-0.46364 -0.02898,-0.7406zM224.9102,220.92224c-0.15058,0.28814 -0.10269,0.47176 -0.01201,0.66212c0.00434,0.0167 0.04715,0.02347 0.0856,0.01356c0.05769,-0.01484 0.08743,-0.05815 0.07872,-0.09151c-0.02426,-0.17184 -0.08703,-0.33378 -0.15232,-0.58413zM225.44264,223.27869c0.09685,0.13534 0.15961,0.29731 0.38231,0.36457c0.01416,-0.18177 -0.04425,-0.32702 -0.09827,-0.45558c-0.12842,-0.02036 -0.20094,0.01614 -0.28405,0.09099zM224.93132,219.90157c-0.17378,-0.11555 -0.22165,-0.29914 -0.43134,-0.31637c0.00326,0.24851 0.00326,0.24851 0.27567,0.4277c0.03411,-0.0266 0.0682,-0.0532 0.15564,-0.11134zM224.79525,226.77608c0.25611,-0.11941 0.35155,-0.30429 0.42339,-0.50091c-0.08378,-0.08527 -0.16073,-0.06548 -0.20533,-0.00056c-0.06128,0.15828 -0.14186,0.32154 -0.21803,0.50145zM222.28926,218.81882c0.11104,-0.04641 0.20281,-0.08785 0.23435,-0.20283c-0.09865,-0.06363 -0.19734,-0.12731 -0.31701,-0.11426c-0.09179,0.04144 -0.14075,0.08971 -0.16183,0.16639c0.06022,0.07352 0.13097,0.10875 0.24452,0.15073zM221.40121,225.4062c0.02288,-0.14836 0.03523,-0.25846 -0.02936,-0.34867c-0.02792,-0.02845 -0.07073,-0.03523 -0.11356,-0.042c-0.05769,0.01484 -0.12591,0.06804 -0.09363,0.11315c0.02611,0.10016 0.05658,0.21699 0.23655,0.27751zM218.80048,218.73787c-0.18612,-0.0055 -0.31817,0.11759 -0.46327,0.19061c0.28731,0.15755 0.32577,0.14761 0.46327,-0.19061zM214.87422,224.61165c0.01162,-0.27017 0.01163,-0.27016 -0.18755,-0.32574c-0.01236,0.11005 -0.02032,0.2368 0.18755,0.32574zM222.45648,224.65344c-0.09001,-0.03025 -0.14766,-0.01539 -0.15817,0.02292c-0.06128,0.15828 -0.02903,0.20341 0.18321,0.30904c0.02724,-0.13167 0.00113,-0.23185 -0.025,-0.332zM225.75255,220.84779c-0.07435,0.10824 -0.1295,0.21149 -0.06062,0.31839c0.29456,-0.12933 0.3051,-0.1676 0.06062,-0.31839zM214.31815,224.13153c-0.08491,0.14658 -0.06934,0.28502 -0.05808,0.40677c0.01739,0.06675 0.08816,0.10199 0.18613,0.00551c-0.01126,-0.12176 -0.02682,-0.26027 -0.12803,-0.4123zM223.99972,219.16192c0.00507,0.17681 0.08449,0.24542 0.24705,0.23917c0,0 0.03411,-0.0266 0.02973,-0.04329c-0.0069,-0.10509 -0.13962,-0.14215 -0.2768,-0.19591zM220.0781,225.60451c0.10663,-0.0631 0.12772,-0.13977 0.09107,-0.20156c-0.0087,-0.03337 -0.05587,-0.05685 -0.09866,-0.06365c-0.04282,-0.00677 -0.09177,0.04143 -0.08305,0.07482c-0.00617,0.05503 0.01123,0.12177 0.09066,0.19038zM221.44048,218.39628c0.10738,0.09704 0.19734,0.1273 0.33374,0.02088c-0.13097,-0.10874 -0.21657,-0.12234 -0.33374,-0.02088z" fill="url(#color-10)"/><path d="M221.37944,231.53877c0.61962,-0.14178 1.2393,-0.28357 1.85458,-0.44208c0.69221,-0.1783 1.36696,-0.42335 2.00076,-0.74691c0.19843,-0.10455 0.34971,-0.23254 0.56302,-0.35874c0.06965,0.26707 0.14982,0.49572 0.19151,0.73434c0.28868,1.42178 0.67783,2.83547 1.00934,4.26403c0.2923,1.27835 0.59954,2.53505 0.91109,3.80846c0.20711,0.87284 0.40982,1.72899 0.6169,2.60182c0.19404,0.82278 0.42218,1.61891 0.61625,2.44168c0.0174,0.06677 0.03481,0.13354 0.033,0.20524c-0.22128,0.25294 -0.48798,0.41066 -0.7974,0.56163c-0.49305,0.23387 -1.014,0.4393 -1.55669,0.56128c-0.17305,0.04461 -0.34174,0.10585 -0.51731,0.06199c0.16436,-0.07797 0.36965,-0.07743 0.55941,-0.21534c-0.20418,-0.23237 -0.22053,-0.53095 -0.3094,-0.79306c-0.00434,-0.0167 -0.00869,-0.03336 -0.02791,-0.02844c-0.27131,-0.41101 -0.39752,-0.89504 -0.61554,-1.3376c-0.08196,-0.15699 -0.22165,-0.29913 -0.22673,-0.47591c-0.04856,-0.34371 -0.30435,-0.61624 -0.35294,-0.95999c-0.00434,-0.0167 -0.03229,-0.04511 -0.04098,-0.07851c-0.14037,-0.30222 -0.29559,-0.58286 -0.39753,-0.89501c-0.09575,-0.36717 -0.33663,-0.66139 -0.39393,-1.03845c-0.17194,-0.18725 -0.19004,-0.41414 -0.2702,-0.64283c-0.0087,-0.03337 -0.01308,-0.05009 -0.02175,-0.08345c-0.24087,-0.29419 -0.25537,-0.66447 -0.41932,-0.97849c-0.16396,-0.31398 -0.2169,-0.67438 -0.36164,-0.99332c-0.15778,-0.36904 -0.36892,-0.70645 -0.41566,-1.1219c-0.0087,-0.03337 -0.02175,-0.08347 -0.04969,-0.11189c-0.16328,-0.15386 -0.15778,-0.36902 -0.22922,-0.56435c-0.02611,-0.10016 -0.03735,-0.2219 -0.10192,-0.31215c-0.11605,-0.13041 -0.13166,-0.26887 -0.17084,-0.4191c-0.02176,-0.08346 -0.02429,-0.17188 -0.08017,-0.22869c-0.17194,-0.18725 -0.19443,-0.43081 -0.251,-0.64777c-0.02176,-0.08346 -0.0243,-0.17183 -0.08016,-0.22871c-0.14397,-0.15883 -0.17266,-0.34737 -0.22051,-0.53098c-0.07836,-0.30045 -0.29127,-0.56617 -0.35037,-0.87153c0.00616,-0.05502 -0.06454,-0.09024 -0.09686,-0.13534z" fill="#87d7dc"/><path d="M221.37945,231.5388c0.03227,0.04511 0.10304,0.08032 0.11609,0.1304c0.05914,0.30537 0.25281,0.57608 0.35039,0.87154c0.04786,0.1836 0.07652,0.37216 0.22051,0.53097c0.05587,0.05686 0.05841,0.14527 0.08018,0.22868c0.05661,0.21696 0.09825,0.45559 0.25096,0.64781c0.05587,0.05685 0.03919,0.15023 0.08018,0.2287c0.03917,0.1502 0.07399,0.28375 0.17084,0.4191c0.06456,0.09022 0.0758,0.21205 0.10192,0.31218c0.07146,0.19531 0.06602,0.41047 0.22924,0.56434c0.02792,0.02845 0.04098,0.0785 0.0497,0.11187c0.04243,0.39874 0.2579,0.75291 0.41569,1.1219c0.14909,0.33567 0.20202,0.69602 0.3616,0.99334c0.16396,0.31396 0.17845,0.68429 0.41932,0.97847c0.02355,0.01175 0.01304,0.05009 0.02175,0.08348c0.05661,0.21696 0.09829,0.45557 0.27024,0.64285c0.03806,0.38205 0.27896,0.67622 0.3939,1.03846c0.08268,0.31711 0.25717,0.59276 0.39752,0.89503c0.0087,0.03337 0.03233,0.04513 0.041,0.0785c0.04856,0.34371 0.30434,0.61623 0.35294,0.95998c0.02866,0.18853 0.16395,0.314 0.22672,0.47592c0.19877,0.4475 0.34423,0.92658 0.61553,1.33759c0.00434,0.0167 0.02796,0.02843 0.02796,0.02843c0.08889,0.2621 0.10518,0.56071 0.30941,0.79306c-0.1705,0.13297 -0.38021,0.11573 -0.55942,0.21533c-0.15379,0.03963 -0.30764,0.07921 -0.46838,0.01373c-0.02611,-0.10016 -0.03735,-0.2219 -0.10192,-0.31212c-0.22598,-0.31581 -0.29813,-0.67129 -0.42801,-1.01189c-0.12985,-0.34056 -0.35585,-0.65639 -0.39391,-1.03842c-0.17194,-0.18725 -0.19009,-0.41413 -0.27024,-0.64284c-0.0087,-0.03337 -0.02176,-0.08345 -0.0497,-0.11188c-0.13532,-0.12546 -0.14035,-0.30223 -0.19877,-0.44753c-0.02176,-0.08346 -0.04355,-0.1669 -0.08016,-0.2287c-0.19191,-0.34242 -0.36893,-0.70645 -0.46903,-1.09035c-0.01303,-0.05009 -0.01121,-0.1218 -0.0584,-0.14525c-0.13963,-0.14212 -0.16398,-0.31398 -0.2075,-0.48088c-0.02866,-0.18853 -0.20679,-0.32078 -0.23976,-0.52601c-0.05041,-0.272 -0.21184,-0.49758 -0.31993,-0.75471c-0.13422,-0.35729 -0.34096,-0.67804 -0.44104,-1.06192c-0.0174,-0.06677 -0.01994,-0.15518 -0.07147,-0.19533c-0.1117,-0.11373 -0.13168,-0.26885 -0.19006,-0.41411c-0.03481,-0.13352 -0.08886,-0.26207 -0.15777,-0.36904c-0.13348,-0.19717 -0.22853,-0.40421 -0.28949,-0.63789c-0.11062,-0.34553 -0.33663,-0.66137 -0.3747,-1.04338c-0.0087,-0.03337 -0.04095,-0.0785 -0.04969,-0.1119c-0.14909,-0.33567 -0.31742,-0.66629 -0.42798,-1.01184c-0.09575,-0.36717 -0.34533,-0.69475 -0.40261,-1.07184c-0.01303,-0.05009 -0.06458,-0.09022 -0.09686,-0.13534c-0.09504,-0.20706 -0.1752,-0.43578 -0.17409,-0.66759c0.0918,-0.04144 0.16867,-0.06129 0.24126,-0.09776c0.28226,-0.01927 0.52166,-0.04532 0.776,-0.09301z" fill="#b0eef2"/><path d="M226.43024,221.24319c0.14035,0.30221 0.22487,0.54766 0.21325,0.81782c-0.11902,0.17315 -0.31742,0.27772 -0.51149,0.39893c-0.98351,0.55613 -1.97139,1.09556 -3.03255,1.51141c-0.80069,0.3131 -1.62059,0.63119 -2.46223,0.8658c-0.23072,0.05941 -0.48505,0.10715 -0.70274,0.21661c-0.0918,0.04144 -0.20717,0.07116 -0.32249,0.10087c-0.47888,0.05211 -0.93163,0.20435 -1.39746,0.30654c-0.65809,0.15172 -1.33361,0.23668 -2.0178,0.28822c-0.34427,0.01744 -0.68422,0.05156 -1.04336,0.09066c-0.27787,0.03593 -0.53472,-0.00475 -0.78722,-0.02877c-0.21293,-0.26577 -0.26262,-0.37762 -0.32861,-0.78809c0.42732,-0.09228 0.85724,-0.09615 1.29327,-0.15502c0.41683,-0.05393 0.85287,-0.11282 1.26538,-0.18344c0.43169,-0.07556 0.87832,-0.1728 1.30564,-0.26507c0.41246,-0.07061 0.81805,-0.24638 1.24365,-0.26693c0.40126,-0.19242 0.8373,-0.25128 1.25598,-0.37694c0.39944,-0.12069 0.81371,-0.26305 1.20881,-0.40043c0.41431,-0.14234 0.82423,-0.30137 1.25345,-0.46533c0.39073,-0.15407 0.80502,-0.29641 1.19141,-0.46721c0.40558,-0.17572 0.78326,-0.37985 1.18452,-0.57227c0.42048,-0.19736 0.80683,-0.36813 1.19068,-0.62731z" fill="url(#color-11)"/><path d="M220.62699,231.64359c-0.07256,0.03649 -0.14948,0.05632 -0.24124,0.09777c-0.00109,0.23184 0.05548,0.44877 0.17409,0.6676c0.03227,0.04512 0.08379,0.08529 0.09685,0.13534c0.05728,0.37708 0.28766,0.70963 0.40262,1.07184c0.0914,0.3505 0.27893,0.67622 0.42796,1.01186c0.0087,0.03337 0.04099,0.07851 0.0497,0.11187c0.03804,0.38205 0.2789,0.67622 0.37467,1.0434c0.05661,0.21696 0.15598,0.44074 0.28949,0.63788c0.07325,0.12358 0.12733,0.25216 0.15778,0.36903c0.03917,0.1502 0.05477,0.28868 0.19008,0.41413c0.05148,0.04015 0.05403,0.12859 0.07144,0.19535c0.09575,0.36717 0.30689,0.70462 0.44107,1.0619c0.10807,0.25714 0.26954,0.48271 0.31992,0.75471c0.02866,0.18853 0.20677,0.32077 0.23976,0.52601c0.02429,0.17185 0.05294,0.36038 0.20747,0.48091c0.03227,0.04512 0.04534,0.09518 0.05841,0.14523c0.10009,0.38385 0.27271,0.73123 0.46902,1.09034c0.04096,0.07851 0.04354,0.16688 0.08014,0.22868c0.03917,0.1502 0.06351,0.32205 0.1988,0.4475c0.02792,0.02845 0.04099,0.07849 0.04969,0.11186c0.05661,0.21696 0.09828,0.45559 0.27023,0.64285c0.03806,0.38204 0.26406,0.69788 0.39392,1.03842c0.12985,0.34056 0.20637,0.71269 0.42798,1.01184c0.06456,0.09023 0.07578,0.21203 0.10193,0.31216c-0.16871,0.06126 -0.31016,-0.00915 -0.44913,0.00884c-0.27894,-0.6762 -0.5684,-1.31412 -0.83861,-1.95694c-0.30686,-0.70466 -0.59015,-1.39755 -0.87781,-2.10713c-0.27458,-0.65954 -0.56841,-1.31411 -0.86221,-1.96869c-0.35656,-0.81653 -0.728,-1.6114 -1.08023,-2.41123c-0.26154,-0.60948 -0.52301,-1.21894 -0.80381,-1.82342c-0.41062,-0.94509 -0.74868,-1.92671 -1.19775,-2.86186c-0.05405,-0.12855 -0.14655,-0.24722 -0.12803,-0.41228c0.17305,-0.04461 0.35914,-0.03907 0.54091,-0.05027c0.10485,0.0086 0.26917,-0.06935 0.44478,-0.02552z" fill="#87d7dc"/><path d="M226.79787,245.54974c0.39507,-0.13739 0.78834,-0.20307 1.17904,-0.35716c0.44406,-0.18562 0.88375,-0.38796 1.29733,-0.69038c0.25244,0.96802 0.50053,1.91935 0.74427,2.85399c-0.16361,0.23809 -0.39619,0.36921 -0.60515,0.5121c-0.40305,0.26413 -0.83659,0.41141 -1.28935,0.56366c-0.01925,0.00497 -0.06202,-0.00183 -0.08563,-0.01355c0.14694,-0.1447 0.05443,-0.26336 -0.01886,-0.38699c-0.18321,-0.30905 -0.34715,-0.62301 -0.41496,-0.96178c-0.0174,-0.06677 -0.03482,-0.13352 -0.07147,-0.1953c-0.19807,-0.28741 -0.26588,-0.62614 -0.40627,-0.9284c-0.08628,-0.1737 -0.15963,-0.29724 -0.32902,-0.39613z" fill="#61afb4"/><path d="M219.75973,229.49811c0.69907,-0.0732 1.36766,-0.26324 2.05368,-0.38652c0.31198,-0.06254 0.61093,-0.17519 0.90989,-0.28781c0.56815,-0.18195 1.17286,-0.30211 1.72357,-0.55086c0.22204,-0.09281 0.44405,-0.18561 0.64252,-0.29015c0.12592,-0.06805 0.25609,-0.11941 0.39073,-0.15408c0.0323,0.04508 0.0602,0.07355 0.06891,0.10695c0.03479,0.13352 0.06966,0.26702 0.10449,0.40054c-0.08306,0.07484 -0.1513,0.128 -0.23871,0.18616c-0.63993,0.37857 -1.29916,0.76213 -2.04906,0.95529c-0.64939,0.18511 -1.31796,0.37511 -1.98479,0.49347c-0.52788,0.10037 -1.05136,0.21738 -1.59479,0.17927c0.0874,-0.05816 0.21585,-0.0378 0.26663,-0.15774c-0.00943,-0.19349 -0.00832,-0.42532 -0.29309,-0.49445z" fill="url(#color-12)"/><path d="M220.51276,230.49746c0.31818,-0.11757 0.65191,-0.09666 0.98313,-0.16417c0.69657,-0.16162 1.39311,-0.32319 2.07659,-0.5349c0.54889,-0.17699 1.06115,-0.41585 1.54549,-0.68308c0.12592,-0.06805 0.25175,-0.13609 0.37766,-0.20415c0.06094,0.23366 0.11321,0.43395 0.16975,0.65092c-0.17851,0.25971 -0.4452,0.41743 -0.73975,0.54678c-0.3479,0.16088 -0.71503,0.32666 -1.09523,0.44241c-0.84783,0.28961 -1.70257,0.47416 -2.57216,0.68037c-0.1538,0.03962 -0.30766,0.07925 -0.464,0.03047c-0.02176,-0.08346 -0.02432,-0.17184 -0.08017,-0.22869c-0.12042,-0.14709 -0.15345,-0.35235 -0.20132,-0.53589z" fill="url(#color-13)"/><path d="M226.79786,245.54974c0.14586,0.08713 0.23831,0.20578 0.30108,0.36773c0.14036,0.30223 0.20818,0.64102 0.40626,0.92838c0.03664,0.06182 0.05407,0.12858 0.07147,0.19535c0.09143,0.3505 0.25099,0.64777 0.41495,0.96177c0.06892,0.10694 0.1658,0.24228 0.01885,0.387c-0.28407,0.09098 -0.56194,0.12695 -0.83367,0.10789c-0.11864,-0.21882 -0.25645,-0.43267 -0.27895,-0.67622c-0.0087,-0.03337 -0.04097,-0.0785 -0.0497,-0.11188c-0.14473,-0.31892 -0.29382,-0.65457 -0.41932,-0.97848c-0.0584,-0.14525 -0.09319,-0.27879 -0.17083,-0.41911c-0.10552,-0.16873 -0.17702,-0.36408 -0.12875,-0.57243c0.09179,-0.04144 0.16869,-0.06127 0.24125,-0.09774c0.13458,-0.03465 0.29278,-0.05761 0.42734,-0.09228z" fill="#87d7dc"/><path d="M218.14444,221.25797c0.29169,0.17421 0.45744,0.41645 0.604,0.66374c0.03664,0.06181 0.06274,0.16197 0.06094,0.23366c-0.02759,0.52363 0.02169,1.02747 0.09023,1.52632c0.00434,0.0167 -0.00617,0.05501 -0.02103,0.07668c-0.06386,0.06988 -0.15999,0.09467 -0.26918,0.06936c-0.0087,-0.03337 -0.03668,-0.06181 -0.04536,-0.0952c-0.08518,-0.4055 -0.22812,-0.79618 -0.46281,-1.14538c-0.1099,-0.18542 -0.15779,-0.36905 -0.11388,-0.59408c0.0588,-0.24668 0.05987,-0.4785 0.15712,-0.73513z" fill="#cce5e6"/><path d="M217.64796,224.0753c-0.10229,0.07979 -0.18355,0.08291 -0.2543,0.0477c-0.24735,-0.79123 -0.24737,-0.79121 -0.73781,-1.41294c-0.03554,-0.29365 0.02506,-0.61203 0.0516,-0.90383c0.12592,-0.06805 0.1712,0.02714 0.22272,0.06731c0.18247,0.14891 0.36059,0.28117 0.50895,0.45669c0.09252,0.11869 0.14216,0.23057 0.13855,0.37394c-0.00656,0.447 0.01048,0.90567 0.07028,1.37115z" fill="#cce5e6"/><path d="M226.35129,245.64696c-0.07257,0.03649 -0.1495,0.05631 -0.24125,0.09775c-0.04828,0.20835 0.02319,0.40367 0.12876,0.57243c0.07765,0.14032 0.11246,0.27381 0.17083,0.41912c0.12552,0.3239 0.27458,0.65952 0.41931,0.97847c0.0087,0.03337 0.041,0.07851 0.04969,0.11189c0.04606,0.25529 0.17952,0.45246 0.2789,0.67621c-0.16251,0.00626 -0.30584,0.00752 -0.48578,-0.05301c-0.17954,-0.45246 -0.40192,-0.91174 -0.56661,-1.38584c-0.17954,-0.45246 -0.43599,-0.88511 -0.56659,-1.38581c0.31197,-0.06254 0.56012,-0.05523 0.81261,-0.03125z" fill="#60adb2"/><path d="M222.80876,224.50926c0.07256,-0.03649 0.12593,-0.06805 0.19845,-0.10455c0.04718,0.02347 0.07072,0.03522 0.09429,0.04694c0.15091,0.26391 0.35515,0.49629 0.57856,0.7237c0.08815,0.10197 0.13351,0.19718 0.10628,0.32885c-0.03521,0.25843 -0.02758,0.52362 -0.22533,0.7883c-0.28729,-0.15755 -0.49155,-0.3899 -0.67652,-0.62725c-0.0323,-0.04508 -0.03478,-0.13353 -0.033,-0.20522c-0.02069,-0.31524 -0.04133,-0.6306 -0.04275,-0.95082z" fill="#cce5e6"/><path d="M221.97683,220.21732c0.12044,0.14706 0.20422,0.23239 0.29237,0.33438c0.15272,0.19222 0.22417,0.38752 0.16975,0.65092c-0.06861,0.44512 -0.07511,0.89213 0.03368,1.30935c0.0348,0.13352 0.01993,0.15514 -0.21514,0.19793c-0.01305,-0.05008 -0.04536,-0.09518 -0.0584,-0.14528c-0.08959,-0.42221 -0.25171,-0.80789 -0.47154,-1.17875c-0.04531,-0.0952 -0.08632,-0.17369 -0.06968,-0.26706c0.08852,-0.28999 0.13863,-0.57003 0.31898,-0.90145z" fill="#cae2e3"/><path d="M219.92114,223.5076c-0.02354,-0.01174 -0.05155,-0.04019 -0.05587,-0.05686c-0.06165,-0.39375 -0.23431,-0.74113 -0.42184,-1.06689c-0.16396,-0.31396 -0.24667,-0.63112 -0.13705,-0.99772c0.05698,-0.17497 0.02829,-0.3635 0.12811,-0.5317c0.39905,0.27123 0.58039,0.652 0.54155,1.05385c-0.03631,0.49026 -0.09619,0.96875 0.04926,1.44785c-0.00616,0.05502 0.01121,0.12178 -0.10412,0.15151z" fill="#c9e1e2"/><path d="M220.63531,220.58071c0.26191,0.21751 0.39975,0.43134 0.54193,0.66189c0.04096,0.07851 0.06273,0.16195 0.0417,0.23862c-0.05119,0.51191 -0.05956,1.03056 -0.0295,1.53933c0.0087,0.03337 0.00255,0.08839 -0.09796,0.09646c-0.03046,-0.11682 -0.06527,-0.25033 -0.11496,-0.36222c-0.10626,-0.32884 -0.23178,-0.65273 -0.42986,-0.94012c-0.13787,-0.21384 -0.17519,-0.43577 -0.09282,-0.67071c0.05698,-0.17497 0.11825,-0.33326 0.18141,-0.56327z" fill="#c9e1e2"/><path d="M223.97656,224.03035c0.09364,-0.11317 0.18977,-0.13793 0.28589,-0.16269c0.02356,0.01172 0.05154,0.04017 0.07507,0.05191c0.10809,0.25714 0.28875,0.47777 0.51839,0.65014c0.13095,0.10876 0.18499,0.23733 0.16648,0.4024c-0.02901,0.20339 -0.03446,0.41853 -0.1063,0.61517c-0.25065,-0.09573 -0.57031,-0.29839 -0.64356,-0.42201c-0.06022,-0.07352 -0.03919,-0.1502 -0.04169,-0.23862c-0.0932,-0.27877 -0.09467,-0.59903 -0.25423,-0.89629z" fill="#cae3e4"/><path d="M217.68813,226.8257c0.12262,-0.31655 0.18762,-0.61826 0.22899,-0.93173c0.10662,-0.06308 0.1836,-0.08293 0.29277,-0.05762c0.17447,0.27562 0.22739,0.63605 0.42111,0.90676c-0.04829,0.20834 -0.17596,0.34812 -0.27571,0.51632c-0.05947,0.08655 -0.09539,0.18484 -0.22565,0.23623c-0.2104,-0.17736 -0.2608,-0.44934 -0.44145,-0.66998z" fill="#c8e0e1"/><path d="M220.55993,225.24886c0.17738,-0.02789 0.21403,0.03393 0.25066,0.09572c0.14222,0.23055 0.28003,0.44438 0.40301,0.67986c0.03665,0.06182 0.05406,0.12857 0.03303,0.20524c-0.08673,0.21823 -0.19267,0.44145 -0.32217,0.65295c-0.12222,-0.07539 -0.1676,-0.17058 -0.25139,-0.25587c-0.25136,-0.25585 -0.3446,-0.53461 -0.16431,-0.86605c0.08056,-0.16325 0.07549,-0.34005 0.05117,-0.5119z" fill="#cbe4e5"/><path d="M219.34862,225.56088c0.09612,-0.02479 0.1538,-0.03964 0.21149,-0.05451c0.02792,0.02845 0.07073,0.03524 0.07508,0.0519c0.08628,0.1737 0.15345,0.35234 0.23978,0.52601c0.04532,0.09522 0.04786,0.18361 0.01194,0.28191c-0.10775,0.29492 -0.23913,0.57812 -0.42813,0.87618c-0.17378,-0.11553 -0.23215,-0.26078 -0.29055,-0.40603c-0.01738,-0.06674 -0.03479,-0.13354 -0.00945,-0.19347c0.18032,-0.33143 0.20865,-0.69496 0.18982,-1.08196z" fill="#c8e0e1"/><path d="M220.51277,230.49745c0.04786,0.1836 0.08087,0.38885 0.22491,0.54767c0.05587,0.05685 0.05836,0.14524 0.08015,0.22869c-0.3225,0.10087 -0.64321,0.13006 -0.96209,0.0875c-0.02247,-0.24357 -0.1603,-0.4574 -0.25099,-0.64776c0.11282,-0.11812 0.26049,-0.10271 0.36711,-0.16581c0.16871,-0.06126 0.36534,-0.09409 0.54091,-0.05028z" fill="#85d5d9"/><path d="M223.65135,220.65878c-0.03086,0.27512 -0.06167,0.55022 -0.06898,0.83708c0.00325,0.24852 0.22671,0.47593 0.00355,0.80057c-0.14799,-0.56743 -0.41315,-1.0335 -0.6783,-1.49953c0.04829,-0.20834 0.11139,-0.43836 0.26453,-0.63808c0.04718,0.02347 0.07074,0.03522 0.0943,0.04693c0.13965,0.14212 0.26012,0.28923 0.38487,0.45297z" fill="#c6dede"/><path d="M217.77073,220.92676c-0.06061,0.31843 -0.11067,0.59843 -0.17127,0.91687c-0.17991,-0.06052 -0.27244,-0.17919 -0.39468,-0.25455c-0.12662,-0.09203 -0.28732,-0.15756 -0.38415,-0.29289c-0.03046,-0.11682 0.02032,-0.23678 0.05187,-0.35176c0.03156,-0.11499 0.08239,-0.23494 0.15239,-0.35987c0.29529,0.0308 0.50133,0.19148 0.74586,0.34224z" fill="#cae3e3"/><path d="M216.42614,224.42565c-0.26518,-0.46603 -0.50859,-0.84861 -0.86299,-1.18476c0.02035,-0.23681 0.02144,-0.4686 0.03743,-0.72208c0.28479,0.06913 0.43316,0.24465 0.61558,0.39355c0.02792,0.02845 0.04098,0.07852 0.04967,0.11188c0.05112,0.43209 0.10228,0.86423 0.16029,1.40139z" fill="#cae3e4"/><path d="M222.19342,226.55576c-0.26191,-0.21751 -0.48103,-0.42824 -0.39501,-0.8066c0.05443,-0.2634 0.00838,-0.51871 -0.03768,-0.77399c-0.02611,-0.10015 0.06564,-0.1416 0.18975,-0.13794c0.03121,0.27693 0.19261,0.50256 0.35405,0.72814c0.12479,0.16377 0.12553,0.32387 0.06855,0.49887c-0.0421,0.15332 -0.0414,0.31345 -0.17964,0.49156z" fill="#c8e0e1"/><path d="M219.75972,229.49809c0.28913,0.08583 0.28364,0.30095 0.31664,0.5062c-0.05079,0.11992 -0.17484,0.11629 -0.26661,0.15774c-0.25429,0.0477 -0.50244,0.04035 -0.75932,-0.00036c-0.02866,-0.18853 -0.15341,-0.35232 -0.10082,-0.54398c0.0918,-0.04144 0.14949,-0.05632 0.22637,-0.07612c0.20099,-0.01616 0.40195,-0.03233 0.58372,-0.04349z" fill="url(#color-14)"/><path d="M220.19422,226.67886c0.18065,0.22064 0.31414,0.41778 0.46688,0.61c-0.12519,0.22816 -0.27389,0.44459 -0.45063,0.63258c-0.14332,0.0013 -0.20786,-0.08895 -0.28295,-0.14084c-0.07509,-0.0519 -0.15017,-0.10379 -0.1614,-0.22559c0.10163,-0.2399 0.25216,-0.52802 0.42811,-0.87617z" fill="#c7dfe0"/><path d="M223.42612,226.71915c-0.09109,0.20159 -0.16293,0.39816 -0.31601,0.59793c-0.26991,-0.09076 -0.41826,-0.26628 -0.60943,-0.44859c0.08236,-0.23494 0.16471,-0.4699 0.24275,-0.72157c0.25319,0.18414 0.4444,0.36648 0.68271,0.57223z" fill="#c8e0e1"/><path d="M218.5544,220.1549c0.18865,0.09393 0.37725,0.18782 0.52128,0.34664c-0.05443,0.2634 -0.1281,0.5317 -0.1974,0.81671c-0.03843,0.0099 -0.07689,0.0198 -0.08125,0.0031c-0.15454,-0.12051 -0.3134,-0.25767 -0.44872,-0.38311c-0.05587,-0.05686 -0.09253,-0.11868 -0.06714,-0.17863c0.06315,-0.22999 0.0686,-0.44513 0.27322,-0.60474z" fill="#c4dcdd"/><path d="M221.63119,219.91454c-0.09724,0.25659 -0.17526,0.50822 -0.27251,0.76484c-0.16686,-0.01047 -0.20166,-0.14397 -0.28548,-0.22927c-0.08378,-0.08527 -0.15274,-0.19221 -0.24088,-0.29417c0.04391,-0.22504 0.20142,-0.40805 0.3117,-0.61462c0.24193,0.06234 0.36239,0.20945 0.48715,0.37323z" fill="#c8e0e1"/><path d="M223.94262,226.49705c0.07369,-0.26832 0.13247,-0.51505 0.20178,-0.80004c0.2271,0.08396 0.3711,0.24284 0.57899,0.33178c-0.01601,0.25347 -0.16909,0.45322 -0.2707,0.6931c-0.21838,-0.05061 -0.39397,-0.09444 -0.51003,-0.22485z" fill="#c6ddde"/><path d="M225.09902,223.45626c0.26628,0.23421 0.44512,0.52653 0.76035,0.71251c-0.00543,0.21514 0.00396,0.40866 -0.08275,0.62691c-0.26119,-0.05741 -0.43499,-0.17294 -0.46179,-0.43318c-0.02066,-0.31525 -0.13746,-0.60579 -0.21581,-0.90622z" fill="#b9cfd0"/><path d="M215.2885,224.46933c-0.12842,-0.02036 -0.09255,-0.11867 -0.12914,-0.18046c-0.07762,-0.14032 -0.13603,-0.28553 -0.27754,-0.35599c-0.2017,-0.14397 -0.23037,-0.33249 -0.24412,-0.5427c-0.00251,-0.08842 0.01415,-0.18177 0.02214,-0.3085c0.29786,0.11919 0.53364,0.2366 0.53943,0.57349c-0.00108,0.23183 0.07905,0.46056 0.11641,0.68246c0.01303,0.05008 0.02612,0.10014 -0.02721,0.13169z" fill="#c0d8d8"/><path d="M216.90819,227.45405c-0.13532,-0.12546 -0.20857,-0.24906 -0.24341,-0.38257c-0.01738,-0.06674 -0.03921,-0.15022 -0.0138,-0.21018c0.11648,-0.26155 0.17089,-0.52492 0.22534,-0.78831c0.13459,-0.03464 0.13276,0.03704 0.14585,0.08713c0.04352,0.1669 0.09143,0.3505 0.17339,0.50749c0.09503,0.20706 0.07652,0.37213 -0.08528,0.53851c-0.08307,0.07484 -0.12771,0.13976 -0.20206,0.24794z" fill="#c1d9d9"/><path d="M221.99636,226.98056c-0.06747,0.21327 -0.18653,0.38645 -0.2968,0.59296c-0.2376,-0.04565 -0.34313,-0.21439 -0.49771,-0.33489c0.07801,-0.25165 0.25032,-0.45633 0.39474,-0.68945c0.17812,0.13224 0.27934,0.28429 0.39978,0.43137z" fill="#c3dbdc"/><path d="M220.07217,220.93953c-0.17633,-0.20394 -0.32903,-0.39619 -0.50097,-0.58343c0.03771,-0.17004 0.07984,-0.32335 0.22675,-0.46808c0.20788,0.08896 0.34751,0.23109 0.50645,0.36826c-0.02036,0.2368 -0.08779,0.45006 -0.2322,0.68318z" fill="#c3dadb"/><path d="M220.48534,228.18908c0.15312,-0.19975 0.29134,-0.37782 0.42955,-0.55591c0.22274,0.0673 0.3624,0.20944 0.50205,0.35156c-0.09541,0.18488 -0.21874,0.34133 -0.38492,0.49095c-0.06638,-0.01853 -0.15635,-0.04881 -0.2035,-0.07224c-0.12224,-0.07538 -0.20169,-0.14396 -0.34318,-0.21441z" fill="#c4dbdc"/><path d="M215.93782,226.17225c0.08269,0.31714 0.14797,0.56751 0.21766,0.83451c-0.06566,0.14161 -0.1593,0.25476 -0.31927,0.34937c-0.13709,-0.05375 -0.12913,-0.18047 -0.19369,-0.27072c-0.06456,-0.09022 -0.1099,-0.18542 -0.1317,-0.26887c0.14876,-0.21648 0.26776,-0.38961 0.42703,-0.64434z" fill="#c2d9da"/><path d="M217.19222,220.203c0.0421,-0.15332 0.11208,-0.27824 0.21006,-0.3747c0.14947,-0.0563 0.25251,0.02407 0.36168,0.04933c0.10917,0.02527 0.22889,0.01227 0.31703,0.11425c0.00507,0.17681 -0.09036,0.36168 -0.17704,0.57998c-0.11793,-0.05869 -0.23584,-0.11738 -0.34936,-0.15939c-0.12222,-0.07539 -0.24451,-0.15073 -0.36242,-0.20944z" fill="#c5ddde"/><path d="M222.87646,227.68005c-0.05262,0.19169 -0.19338,0.28138 -0.28262,0.41123c-0.23326,-0.02899 -0.40704,-0.14453 -0.60441,-0.27178c0.09975,-0.16819 0.19957,-0.33639 0.28013,-0.49965c0.26117,0.05742 0.40959,0.23294 0.6069,0.36019z" fill="#c3dbdc"/><path d="M216.22019,222.37703c-0.09001,-0.03025 -0.13713,-0.0537 -0.18429,-0.07715c-0.09865,-0.06363 -0.20171,-0.14397 -0.32395,-0.21936c0.07369,-0.26832 0.08964,-0.5218 0.25327,-0.75989c0.14332,-0.0013 0.22277,0.06729 0.33013,0.16432c-0.01163,0.27016 -0.0338,0.57864 -0.07512,0.89211z" fill="#c7dfe0"/><path d="M219.22766,227.69374c-0.15745,0.18304 -0.2293,0.37963 -0.41904,0.51757c-0.19916,-0.0556 -0.26627,-0.23418 -0.42697,-0.29967c0.11649,-0.26155 0.2739,-0.4446 0.42267,-0.66103c0.23147,0.1007 0.27932,0.28426 0.42337,0.44309z" fill="#c7dee0"/><path d="M219.96759,230.531c-0.10663,0.0631 -0.2543,0.04767 -0.36711,0.16582c0.09503,0.20706 0.21363,0.42586 0.25099,0.64777c-0.08128,0.00313 -0.18176,0.01118 -0.26735,-0.00235c-0.12842,-0.02036 -0.22707,-0.084 -0.25758,-0.20085c-0.07146,-0.1953 -0.13857,-0.37393 -0.21001,-0.56931c0.24997,-0.0644 0.36968,-0.07742 0.85109,-0.04111z" fill="#61acb1"/><path d="M222.92878,219.77621c-0.09109,0.20159 -0.17161,0.36477 -0.28192,0.57132c-0.17195,-0.18725 -0.33952,-0.35779 -0.49226,-0.55001c0.06128,-0.15827 0.12701,-0.29988 0.23546,-0.43469c0.23145,0.10069 0.37109,0.24281 0.53869,0.41337z" fill="#c2dada"/><path d="M217.10005,227.79648c0.09109,-0.20159 0.21878,-0.34133 0.35705,-0.51943c0.13787,0.21384 0.26699,0.39433 0.39614,0.57482c-0.03771,0.17003 -0.15928,0.25476 -0.29134,0.37782c-0.20351,-0.07224 -0.3091,-0.24101 -0.46179,-0.43318z" fill="#c1d9d9"/><path d="M220.52933,219.85994c-0.21657,-0.12235 -0.36674,-0.22613 -0.53616,-0.325c0.01416,-0.18177 0.13751,-0.33821 0.26089,-0.49467c0.19479,0.03889 0.37471,0.0994 0.53363,0.2366c-0.00545,0.21514 -0.176,0.34814 -0.25832,0.58309z" fill="#c6dedf"/><path d="M224.24267,227.09658c-0.0954,0.18487 -0.21444,0.35803 -0.31419,0.52622c-0.17738,0.02789 -0.31016,-0.00915 -0.45603,-0.09628c0.02036,-0.2368 0.20141,-0.40806 0.2881,-0.62636c0.19047,0.02216 0.31703,0.11425 0.48212,0.1964z" fill="#c0d7d7"/><path d="M215.25749,222.30435c-0.02902,0.20339 0.00394,0.40863 -0.12553,0.62013c-0.14586,-0.08713 -0.28733,-0.15758 -0.42879,-0.22798c-0.0522,-0.20027 0.0004,-0.39193 0.1194,-0.56506c0.16687,0.01046 0.28475,0.06914 0.43495,0.17291z" fill="#c3dadb"/><path d="M219.19521,229.53664c-0.07692,0.0198 -0.14948,0.05633 -0.2264,0.07616c-0.05262,0.1917 0.07214,0.35543 0.10082,0.54398c-0.13024,0.05136 -0.23328,-0.02898 -0.37219,-0.011c-0.13349,-0.19716 -0.12807,-0.4123 -0.31922,-0.5946c0.18792,-0.06619 0.31631,-0.04587 0.46401,-0.03047c0.10485,0.00859 0.23076,-0.05941 0.35296,0.01596z" fill="url(#color-15)"/><path d="M226.63509,224.46762c-0.02902,0.20339 0.00395,0.40867 -0.11068,0.59848c-0.14332,0.0013 -0.23765,-0.04568 -0.37912,-0.11606c-0.00942,-0.19351 0.01961,-0.39691 0.09579,-0.57684c0.14332,-0.00129 0.23328,0.02898 0.39397,0.09445z" fill="#bdd3d4"/><path d="M221.44962,228.58186c0.1085,-0.13482 0.19775,-0.26466 0.28697,-0.3945c0.1948,0.03889 0.34066,0.12599 0.49083,0.22978c-0.02288,0.14836 -0.14876,0.21648 -0.28334,0.25112c-0.17304,0.04461 -0.34606,0.08917 -0.49446,-0.08636z" fill="#bdd4d5"/><path d="M224.55943,220.44266c-0.04392,0.22503 -0.09218,0.43342 -0.13607,0.65842c-0.28368,-0.30093 -0.46248,-0.59331 -0.15193,-0.97609c0.13709,0.05375 0.19116,0.18232 0.288,0.31765z" fill="#bbd2d3"/><path d="M219.56136,228.65864c-0.17121,-0.02716 -0.27426,-0.10748 -0.37726,-0.18784c-0.03046,-0.11682 0.05699,-0.17499 0.1165,-0.26154c0.04462,-0.06492 0.08488,-0.14652 0.19592,-0.19293c0.17121,0.02716 0.21475,0.19401 0.39033,0.23784c-0.07618,0.17995 -0.189,0.29805 -0.32539,0.40445z" fill="#c3dadb"/><path d="M220.34593,223.32693c-0.03984,-0.31034 -0.07977,-0.62064 -0.04273,-0.95079c0.1197,-0.01301 0.16075,0.06548 0.18245,0.14892c0.0758,0.21202 0.13239,0.42894 0.18462,0.62924c0.03917,0.1502 -0.0675,0.21333 -0.32433,0.1726z" fill="#b1c6c7"/><path d="M225.34733,226.84765c0.00361,-0.1434 0.10593,-0.22322 0.16108,-0.32646c0.09108,-0.20159 0.25977,-0.26285 0.5123,-0.23881c-0.05444,0.26339 -0.24602,0.47302 -0.40344,0.65606c-0.13895,0.01798 -0.20536,-0.00054 -0.26991,-0.09076z" fill="#bbd2d3"/><path d="M222.87888,222.49635c-0.15961,-0.29731 -0.099,-0.61568 -0.06199,-0.94584c0.17632,0.20394 0.24157,0.4543 0.32175,0.683c0.0584,0.14526 0.00944,0.19353 -0.25976,0.26283z" fill="#bad1d2"/><path d="M226.18347,223.44409c0.16941,0.09887 0.33012,0.16434 0.4995,0.26316c0.00253,0.08842 -0.02468,0.2201 -0.03267,0.34683c-0.36786,0.0057 -0.3722,-0.01099 -0.40959,-0.23294c-0.03044,-0.11683 -0.04169,-0.23863 -0.05728,-0.37709z" fill="#b5cbcc"/><path d="M219.32909,218.79765c0.20533,0.00056 0.34248,0.05426 0.47958,0.108c-0.0185,0.16508 -0.15494,0.27144 -0.2634,0.40627c-0.15637,-0.04875 -0.29344,-0.10253 -0.4498,-0.1513c-0.01995,-0.15516 0.14436,-0.23312 0.23366,-0.36299z" fill="#c0d7d8"/><path d="M225.35432,225.06477c0.12405,0.00369 0.22276,0.06728 0.32579,0.14761c-0.00112,0.23183 -0.08779,0.4501 -0.22171,0.64487c-0.13024,0.05136 -0.18174,0.01119 -0.24193,-0.06234c0.03952,-0.24172 0.0791,-0.48347 0.13789,-0.73016z" fill="#bdd4d4"/><path d="M223.08553,219.43307c-0.15454,-0.12051 -0.29419,-0.26261 -0.44873,-0.38312c0.05516,-0.10326 0.14259,-0.16142 0.25793,-0.19115c0.12404,0.00368 0.18428,0.07718 0.26372,0.14577c0.05587,0.05686 0.11173,0.11371 0.1676,0.17057c-0.03157,0.11502 -0.09107,0.20159 -0.24056,0.2579z" fill="#b6cccc"/><path d="M219.21069,220.07494c-0.1694,-0.09887 -0.31523,-0.18597 -0.5039,-0.27987c-0.0069,-0.10508 0.02466,-0.22011 0.18467,-0.31476c0.15638,0.04874 0.31705,0.11424 0.49697,0.17475c-0.0421,0.15332 -0.0693,0.28503 -0.17779,0.41984z" fill="#c1d9d9"/><path d="M223.98944,219.75237c-0.0421,0.15332 -0.09288,0.2733 -0.20572,0.3914c-0.16941,-0.09887 -0.25138,-0.25588 -0.34388,-0.37452c0.00361,-0.1434 0.11029,-0.2065 0.19336,-0.28135c0.06203,0.00184 0.10049,-0.00808 0.10485,0.00859c0.08376,0.08529 0.16757,0.17056 0.25138,0.25588z" fill="#b7cdce"/><path d="M225.38298,220.92517c-0.2017,-0.14399 -0.24088,-0.29418 -0.31851,-0.43448c-0.10121,-0.15204 -0.00325,-0.24852 0.10956,-0.36664c0.16941,0.09887 0.24703,0.23916 0.35876,0.35288c0.00506,0.1768 -0.17415,0.27641 -0.14985,0.44826z" fill="#b6cccc"/><path d="M226.43827,225.44454c-0.0613,0.15828 -0.11209,0.27822 -0.15854,0.41488c-0.16871,0.06126 -0.28407,0.09098 -0.44041,0.04221c0.0762,-0.17994 0.13316,-0.35491 0.19446,-0.51318c0.15996,-0.09466 0.26299,-0.01429 0.38271,-0.02735c0.0087,0.03337 0.03666,0.06182 0.02179,0.08346z" fill="#c2dada"/><path d="M218.40758,219.3556c-0.02724,0.13167 -0.07183,0.19662 -0.15926,0.25479c-0.11104,0.04641 -0.20532,-0.00056 -0.31452,-0.02584c-0.09,-0.03025 -0.22891,-0.01228 -0.27861,-0.12416c0.07004,-0.12489 0.16361,-0.23806 0.32798,-0.31603c0.16071,0.06546 0.28297,0.14086 0.42445,0.21128z" fill="#bbd2d3"/><path d="M217.82191,228.51891c0.11282,-0.11811 0.19156,-0.20965 0.2895,-0.30613c0.16508,0.08215 0.27677,0.19589 0.40776,0.30464c-0.05079,0.11993 -0.12951,0.2115 -0.26412,0.24611c-0.04282,-0.00677 -0.0856,-0.01358 -0.11357,-0.042c-0.0943,-0.04693 -0.193,-0.11062 -0.3196,-0.20267z" fill="#bbd2d3"/><path d="M226.69815,223.29369c-0.27862,-0.12416 -0.27863,-0.12416 -0.44871,-0.38312c0.06132,-0.15829 0.2108,-0.21459 0.37078,-0.30921c0.11863,0.21882 0.07907,0.46053 0.07796,0.69236z" fill="#adc2c3"/><path d="M219.94919,228.80811c0.05079,-0.11993 0.14878,-0.21645 0.279,-0.26777c0.16508,0.08215 0.30653,0.15252 0.45232,0.23968c-0.28334,0.25111 -0.30255,0.25608 -0.73136,0.02813z" fill="#b5cbcc"/><path d="M222.05744,219.11013c-0.06565,0.14162 -0.12084,0.24486 -0.23368,0.36297c-0.17554,-0.04382 -0.27242,-0.1792 -0.42262,-0.283c0.02541,-0.05998 0.05515,-0.10323 0.08487,-0.14654c0.02975,-0.0433 0.08306,-0.07484 0.13206,-0.12309c0.18611,0.0055 0.30833,0.08087 0.43933,0.18963z" fill="#bbd1d2"/><path d="M216.46371,228.03164c-0.22274,-0.06731 -0.2942,-0.26262 -0.42516,-0.37136c0.04645,-0.13663 0.17669,-0.18802 0.27468,-0.2845c0.18248,0.14889 0.26444,0.30592 0.25462,0.50437c0.01304,0.05008 -0.05514,0.10326 -0.1041,0.15149z" fill="#b6cccd"/><path d="M215.59226,221.14946c-0.07801,0.25165 -0.17962,0.49154 -0.26198,0.72647c-0.13896,0.01797 -0.22889,-0.01226 -0.33629,-0.10927c0.14436,-0.23312 0.28879,-0.46623 0.50391,-0.66415c0.04719,0.02349 0.07074,0.03522 0.09431,0.04693z" fill="#acc1c2"/><path d="M221.60879,222.11109c0.11427,0.20212 0.2093,0.40919 0.22741,0.63604c0.00251,0.08842 -0.03773,0.17002 -0.13385,0.19479c-0.03842,0.00989 -0.12405,-0.00368 -0.12842,-0.02037c-0.0845,-0.24539 -0.01522,-0.53041 0.03486,-0.81047z" fill="#a7bbbb"/><path d="M221.27058,218.68939c-0.01235,0.11006 -0.09541,0.18488 -0.19772,0.26466c-0.16071,-0.06546 -0.32142,-0.13095 -0.48212,-0.19641c0.0421,-0.15332 0.15311,-0.19972 0.28768,-0.23439c0.12842,0.02036 0.26991,0.09075 0.39216,0.16618z" fill="#b7cdcd"/><path d="M222.94139,228.3223c0.05262,-0.1917 0.16547,-0.30977 0.29751,-0.43287c0.16687,0.01046 0.29966,0.04749 0.41573,0.17789c-0.20462,0.15956 -0.43971,0.2023 -0.71322,0.25498z" fill="#b7cece"/><path d="M214.99528,226.80687c-0.18682,-0.16561 -0.16649,-0.40238 -0.30617,-0.5445c0.05079,-0.11992 0.13206,-0.12306 0.1836,-0.0829c0.13097,0.10875 0.24706,0.23917 0.29054,0.40605c-0.00616,0.05503 -0.00183,0.07172 -0.16798,0.2214z" fill="#b4cacb"/><path d="M216.39179,221.06822c-0.12841,-0.02035 -0.19915,-0.05557 -0.25939,-0.12908c0.09108,-0.20159 0.1778,-0.41983 0.41216,-0.6227c0.0932,0.27877 -0.03633,0.49024 -0.15277,0.75179z" fill="#b2c8c9"/><path d="M218.82818,228.75844c0.15637,0.04875 0.2699,0.09077 0.33446,0.18101c-0.00181,0.07172 -0.05514,0.10329 -0.10849,0.13483c-0.2133,0.12618 -0.33993,0.0341 -0.47957,-0.10801c0.0874,-0.05816 0.17052,-0.133 0.25358,-0.20782z" fill="#b5cbcb"/><path d="M224.12364,221.99764c-0.07581,-0.21201 -0.12369,-0.39558 -0.11822,-0.61071c0.09179,-0.04143 0.14329,-0.0013 0.15636,0.04877c0.0497,0.1119 0.11863,0.21884 0.16831,0.33069c0.0348,0.13352 -0.0334,0.18668 -0.20644,0.23124z" fill="#91a3a3"/><path d="M216.73016,223.54588c0.18682,0.16561 0.22418,0.38753 0.27638,0.58781c0.0087,0.03337 -0.02104,0.07668 -0.05516,0.10325c-0.03843,0.0099 -0.10485,-0.00859 -0.10922,-0.0253c-0.11863,-0.21882 -0.13674,-0.44567 -0.11206,-0.66577z" fill="#99abac"/><path d="M215.95532,224.35103c-0.11718,0.10144 -0.21332,0.12618 -0.27354,0.05263c-0.06892,-0.10694 -0.07397,-0.28373 -0.05367,-0.5205c0.17816,0.13223 0.22599,0.31581 0.32719,0.46784z" fill="#93a5a6"/><path d="M224.75417,227.64163c0.10597,-0.22321 0.1883,-0.45817 0.56923,-0.41381c-0.10164,0.23989 -0.35155,0.30428 -0.56923,0.41381z" fill="#9aadad"/><path d="M223.69279,224.67339c-0.09251,-0.11867 -0.18936,-0.254 -0.2775,-0.35601c0.03594,-0.0983 0.08925,-0.12987 0.20898,-0.14287c0.13534,0.12547 0.10196,0.31218 0.16036,0.45742c-0.03843,0.0099 -0.05769,0.01484 -0.09181,0.04146z" fill="#c5dddd"/><path d="M219.18946,222.9836c0.22962,0.17239 0.28619,0.3894 0.26589,0.62615c0.00434,0.0167 -0.02975,0.04331 -0.06821,0.05321c-0.05334,0.03154 -0.10485,-0.00859 -0.11354,-0.04199c-0.06714,-0.17862 -0.06165,-0.3938 -0.08414,-0.63736z" fill="#aec2c3"/><path d="M216.84279,228.14772c0.16941,0.09887 0.27061,0.25088 0.36746,0.38627c-0.03591,0.0983 -0.11721,0.10144 -0.17307,0.0446c-0.10739,-0.09704 -0.21039,-0.17737 -0.30287,-0.29603c-0.04719,-0.02349 -0.00254,-0.08839 0.10848,-0.1348z" fill="#9caeaf"/><path d="M220.16017,218.60139c-0.18613,-0.00551 -0.31886,-0.04253 -0.47958,-0.10802c0.23254,-0.13115 0.4571,-0.13556 0.68782,-0.19498c-0.00617,0.05504 0.00251,0.08842 -0.01236,0.11003c-0.06386,0.06988 -0.13204,0.12306 -0.19587,0.19295z" fill="#a9bebf"/><path d="M218.65636,225.73915c0.12592,-0.06805 0.20712,-0.07117 0.29715,-0.04089c0.06272,0.16195 0.04421,0.32701 -0.10453,0.54346c-0.09069,-0.19039 -0.12984,-0.34059 -0.19262,-0.50254z" fill="#b9cfd0"/><path d="M224.58489,223.76677c0.03593,-0.09829 0.10851,-0.13479 0.18104,-0.17131c0.10485,0.00862 0.12661,0.09204 0.17337,0.50749c-0.25684,-0.0407 -0.24706,-0.23916 -0.35442,-0.3362z" fill="#869797"/><path d="M218.04451,223.31417c0.01196,0.28191 0.24594,0.471 0.02898,0.7406c-0.14223,-0.23054 -0.17522,-0.43575 -0.02898,-0.7406z" fill="#93a4a5"/><path d="M224.9102,220.92224c0.06527,0.25033 0.1088,0.41726 0.15233,0.58415c0.0087,0.03337 -0.02104,0.07668 -0.07872,0.0915c-0.01925,0.00497 -0.06204,-0.00184 -0.08563,-0.01356c-0.09071,-0.19035 -0.13859,-0.37401 0.01199,-0.66209z" fill="#94a5a6"/><path d="M225.44264,223.27869c0.09797,-0.09645 0.15126,-0.12803 0.26482,-0.08604c0.05405,0.12855 0.11245,0.27383 0.09828,0.4556c-0.22274,-0.06734 -0.26624,-0.23419 -0.36311,-0.36952z" fill="#abbfc0"/><path d="M224.93132,219.90157c-0.08741,0.05815 -0.12153,0.08474 -0.16002,0.09465c-0.27244,-0.17918 -0.27241,-0.17917 -0.27565,-0.42767c0.21838,0.05061 0.26192,0.21747 0.43564,0.33304z" fill="#acc0c1"/><path d="M224.79525,226.77608c0.08056,-0.16325 0.1375,-0.33821 0.23728,-0.5064c0.04462,-0.06492 0.12155,-0.08471 0.20532,0.00056c-0.09109,0.20159 -0.1865,0.38644 -0.44261,0.50584z" fill="#9fb2b2"/><path d="M222.28926,218.81882c-0.11358,-0.04202 -0.18428,-0.07723 -0.2445,-0.15074c0.02104,-0.07669 0.07001,-0.12492 0.1618,-0.16637c0.11972,-0.013 0.21837,0.05063 0.31703,0.11426c-0.01235,0.11006 -0.12334,0.15644 -0.23434,0.20282z" fill="#aec2c3"/><path d="M221.4012,225.40617c-0.17554,-0.04381 -0.20605,-0.16068 -0.25574,-0.27254c-0.01303,-0.05008 0.03592,-0.09827 0.09361,-0.11315c0.03843,-0.0099 0.10487,0.0086 0.11355,0.04199c0.08378,0.08527 0.07146,0.19535 0.04857,0.34371z" fill="#91a2a3"/><path d="M218.80048,218.73787c-0.13752,0.33822 -0.15235,0.35988 -0.46327,0.19061c0.14512,-0.07298 0.25794,-0.19113 0.46327,-0.19061z" fill="#869696"/><path d="M214.87422,224.61165c-0.20787,-0.08896 -0.1763,-0.20392 -0.18755,-0.32574c0.19479,0.0389 0.19479,0.0389 0.18755,0.32574z" fill="#555f5f"/><path d="M222.45648,224.65345c0.02177,0.08346 0.05222,0.20026 0.02502,0.33198c-0.21222,-0.10564 -0.22961,-0.17239 -0.18321,-0.30902c0.01053,-0.03833 0.06822,-0.05321 0.15817,-0.02292z" fill="#93a5a6"/><path d="M225.75255,220.84779c0.24451,0.15074 0.23401,0.18908 -0.06062,0.31839c-0.06893,-0.10696 -0.01381,-0.21018 0.06062,-0.31839z" fill="#8b9b9c"/><path d="M214.31815,224.13153c0.1012,0.15205 0.11678,0.29049 0.13237,0.429c-0.10229,0.07979 -0.16871,0.06124 -0.1861,-0.00552c-0.03482,-0.13352 -0.05041,-0.27199 0.0537,-0.42346z" fill="#9aacad"/><path d="M223.99972,219.16192c0.13709,0.05375 0.26555,0.07411 0.28115,0.21257c0.00433,0.01671 -0.0105,0.03834 -0.02973,0.0433c-0.18177,0.01118 -0.24635,-0.07906 -0.25139,-0.25587z" fill="#5f6a6b"/><path d="M220.07811,225.60452c-0.07509,-0.0519 -0.09252,-0.11869 -0.09068,-0.1904c0.01053,-0.03833 0.04027,-0.08162 0.08308,-0.07482c0.04282,0.00677 0.09,0.03025 0.09865,0.06365c0.01738,0.06674 0.01557,0.13847 -0.09108,0.20156z" fill="#636e6f"/><path d="M221.44048,218.39628c0.12155,-0.08472 0.22202,-0.09282 0.33374,0.02088c-0.13641,0.10637 -0.22637,0.07615 -0.33374,-0.02088z" fill="#4a5354"/></g><g data-paper-data="{&quot;index&quot;:null}" fill="#000000" stroke="#000000" stroke-width="1.2"><path d="M215.54361,246.35379c-0.93336,-1.62636 0.07043,-4.78086 -0.19978,-7.02868c-0.29091,-2.4201 -1.77281,-3.78153 -1.01247,-5.23054c0.5311,-1.01211 2.16504,-1.37586 3.03791,-1.46059c2.12254,-0.20609 4.24378,2.9591 4.73791,7.0696c0.49414,4.11051 -0.82594,7.60981 -2.94847,7.81588c-0.96182,0.09339 -2.84163,0.18203 -3.61509,-1.16565z"/><path d="M219.45508,247.85346c-1.27931,-2.2785 -0.93632,-8.17747 -0.93632,-8.17747c0,0 -1.61658,-3.57564 -1.62517,-3.6606c-0.54858,-5.41321 3.11987,-5.82987 7.29936,-6.23565c1.98916,-0.19314 5.13808,0.26004 6.42861,1.84607c1.46363,1.79874 1.18058,4.53884 1.54336,7.55679c0.68267,5.67899 -1.25468,10.75048 -5.49976,11.16264c-1.86866,0.18142 -5.50141,0.5514 -7.21008,-2.49179z"/></g></g></g></g></svg>