<svg version="1.1" xmlns="http://www.w3.org/2000/svg" xmlns:xlink="http://www.w3.org/1999/xlink" width="73.45918" height="117.93262" viewBox="0,0,73.45918,117.93262"><defs><linearGradient x1="198.80411" y1="155.51575" x2="241.25878" y2="153.78747" gradientUnits="userSpaceOnUse" id="color-1"><stop offset="0" stop-color="#000000"/><stop offset="1" stop-color="#000000" stop-opacity="0"/></linearGradient><linearGradient x1="257.63479" y1="140.38585" x2="258.74241" y2="167.5942" gradientUnits="userSpaceOnUse" id="color-2"><stop offset="0" stop-color="#2a0000" stop-opacity="0"/><stop offset="1" stop-color="#2a0000"/></linearGradient><linearGradient x1="232.60609" y1="140.95102" x2="233.74246" y2="168.86559" gradientUnits="userSpaceOnUse" id="color-3"><stop offset="0" stop-color="#2a0000" stop-opacity="0"/><stop offset="1" stop-color="#2a0000"/></linearGradient><linearGradient x1="200.20263" y1="177.38589" x2="219.51361" y2="176.59976" gradientUnits="userSpaceOnUse" id="color-4"><stop offset="0" stop-color="#000000"/><stop offset="1" stop-color="#000000" stop-opacity="0"/></linearGradient></defs><g transform="translate(-197.19538,-126.10166)"><g data-paper-data="{&quot;isPaintingLayer&quot;:true}" stroke-miterlimit="10" stroke-dasharray="" stroke-dashoffset="0" style="mix-blend-mode: normal"><g stroke-width="1.2"><path d="M242.04045,194.78673l4.40416,33.21705c0,0 7.20218,1.89612 5.77612,10.1607c-0.08131,0.47115 -0.53524,2.77385 -3.64329,2.86947c-2.97687,0.09158 -8.56822,-1.9964 -10.60909,-2.77348c-0.94789,-0.36093 -2.31822,-1.39799 -3.07266,-2.86423c-0.75958,-1.4763 -0.37301,-3.33344 -0.21291,-4.3893c0.06521,-0.43007 -3.11564,-34.4771 -3.11564,-34.4771" fill="#784200" fill-rule="evenodd" stroke="#4d2a00" stroke-linecap="round" stroke-linejoin="round"/><path d="M242.77872,194.06348c0.57331,3.23096 3.65482,21.21716 3.65482,21.21716c0,0 1.79572,5.9497 1.85713,7.55635c0.07071,1.85039 0.2749,3.19046 0.2749,3.19046l-0.8403,-1.59614c0,0 0.54573,1.1046 0.73555,1.7373c0.59133,1.97097 1.04645,3.46028 1.04645,3.46028c0,0 -7.25618,-1.96371 -10.51449,0.13334c-3.2583,2.09706 -2.59612,7.36489 -2.59612,7.36489c0,0 -5.29314,-2.00437 -5.21499,-5.49161c0.01925,-0.85969 1.23934,-3.19201 1.23934,-3.19201c0,0 -0.6429,0.02037 -0.57534,-0.56435c0.01605,-0.13893 -1.27274,-30.10237 -1.16031,-30.75395c0,0 11.96144,-3.8054 12.09337,-3.06177z" fill="#ff8d00" fill-rule="nonzero" stroke="#c46c00" stroke-linecap="butt" stroke-linejoin="miter"/></g><g fill-rule="evenodd" stroke-width="1.2" stroke-linecap="round" stroke-linejoin="round"><g fill="#ffab19" stroke="#001026" font-family="&quot;Helvetica Neue&quot;, Helvetica, Arial, sans-serif" font-weight="400" font-size="16" text-anchor="start"/><path d="M229.37077,204.50319c-1.65751,-0.32316 -3.61409,-1.03503 -4.54557,-2.13453c-1.20166,-1.41841 -1.16917,-3.37764 -1.53082,-4.88799c6.80996,1.4176 14.92879,0.22445 20.89225,-2.43031c-0.1538,1.03952 0.23084,5.67276 -2.20942,7.31258c-1.62371,1.09112 -6.66132,2.75302 -7.94552,2.9904c-2.49235,0.46073 -4.28572,-0.77703 -4.66091,-0.85016z" fill="#ff8d00" stroke="#c46c00"/></g><g stroke-width="1.2"><g fill-rule="evenodd" stroke-linecap="round" stroke-linejoin="round"><path d="M233.29125,202.19373c0,0 -3.2723,34.52993 -3.86943,34.6439c-1.71359,0.32706 -11.10426,-2.60164 -11.10426,-2.60164l6.03629,-34.71663" data-paper-data="{&quot;index&quot;:null}" fill="#ffab19" stroke="#001026"/><path d="M234.73735,201.63707c0,0 -0.76441,7.3018 -0.99019,11.17336c-0.21655,3.71341 -0.33797,11.60145 -0.33797,11.60145c0,0 0.91795,5.73165 0.0205,7.14507c-0.41568,0.65465 -0.74321,-3.23598 -0.74321,-3.23598c0,0 0.36566,4.3861 0.40166,4.77271c0.2512,2.69735 -0.89522,6.23954 -3.89934,6.57605c-3.29833,0.36948 -8.76649,0.78677 -11.58536,-1.34726c-1.19939,-0.908 -2.82402,-3.58085 -2.38675,-6.42814c0.49311,-3.21102 3.14122,-6.57491 3.14122,-6.57491l-2.4333,3.66683c0,0 -0.02536,-1.83092 0.37057,-3.17398c0.44462,-1.50826 2.16811,-5.4376 2.16811,-5.4376l5.22466,-22.11374" data-paper-data="{&quot;index&quot;:null}" fill="#ff8d00" stroke="#c46c00"/></g><path d="M232.65202,236.84683c-0.08934,2.11928 -0.81816,4.58157 -2.40007,5.86018c-1.58777,1.28333 -11.13035,0.77475 -12.60558,-0.79367c-1.40098,-1.48947 -1.97166,-4.2424 -1.88446,-6.3108c0.17901,-4.24642 4.10511,-7.41029 8.76921,-7.0667c4.66406,0.34359 8.29992,4.06454 8.12089,8.31099z" fill="#784200" fill-rule="nonzero" stroke="#4d2a00" stroke-linecap="butt" stroke-linejoin="miter"/></g><path d="M233.96796,187.77033l5.88993,-6.34237c0,0 4.99687,2.63746 7.74284,3.17273c2.62291,0.51128 8.38076,-0.02982 8.38076,-0.02982l3.82114,3.36474c0,0 -8.04197,2.94528 -12.25374,2.91833c-4.39222,-0.02811 -13.58094,-3.08363 -13.58094,-3.08363z" fill="#000000" fill-rule="nonzero" stroke="#000000" stroke-width="0.5" stroke-linecap="butt" stroke-linejoin="miter"/><path d="M224.02514,198.20225l0.83774,-16.85731l13.99908,0.23221l6.13404,14.72869c0,0 -2.89168,2.03217 -6.22109,2.33325c-3.63416,0.32864 -14.74976,-0.43684 -14.74976,-0.43684z" fill="#000000" fill-rule="nonzero" stroke="#000000" stroke-width="0.5" stroke-linecap="butt" stroke-linejoin="miter"/><path d="M215.29249,202.4138l-6.29823,-5.39948l14.1018,-15.62712l5.71486,4.86177z" fill="#000000" fill-rule="nonzero" stroke="#000000" stroke-width="0.5" stroke-linecap="butt" stroke-linejoin="miter"/><path d="M211.29897,204.89822c-1.43143,-1.19717 -1.75147,-4.529 -2.83973,-6.54954c-1.17165,-2.17542 -2.9814,-2.92619 -2.8672,-4.56402c0.07978,-1.14401 1.36805,-2.07296 2.09781,-2.46601c1.77453,-0.95576 4.82634,1.26479 6.81639,4.95971c1.99006,3.69491 2.16477,7.46505 0.39023,8.42079c-0.80413,0.4331 -2.41132,1.19112 -3.59749,0.19909z" fill="#000000" fill-rule="nonzero" stroke="#000000" stroke-width="1.2" stroke-linecap="butt" stroke-linejoin="miter"/><path d="M215.43042,205.12674c-1.98068,-1.68737 -3.91824,-7.36746 -3.91824,-7.36746c0,0 -2.76696,-2.78831 -2.80667,-2.86525c-2.53157,-4.90256 0.51248,-6.61141 4.00673,-8.49336c1.66302,-0.89569 4.58344,-1.5987 6.31134,-0.56768c1.95964,1.16929 2.75164,3.8521 4.21274,6.56493c2.74939,5.10484 2.9815,10.5775 -0.56757,12.48899c-1.56228,0.84143 -4.59287,2.49348 -7.23831,0.23981z" fill="#000000" fill-rule="nonzero" stroke="#000000" stroke-width="1.2" stroke-linecap="butt" stroke-linejoin="miter"/><path d="M260.90634,155.69869c-0.06135,13.45087 -11.50635,24.30299 -25.56313,24.23887c-14.05677,-0.06412 -25.4023,-11.02019 -25.34093,-24.47107c0.06135,-13.45087 11.50635,-24.30298 25.56313,-24.23886c14.05677,0.06412 25.4023,11.02018 25.34094,24.47106z" fill="none" fill-rule="nonzero" stroke="#000000" stroke-width="4.5" stroke-linecap="butt" stroke-linejoin="miter"/><path d="M223.63388,134.21066c0,0 -9.20829,5.28272 -12.67106,13.68525c-2.39078,5.80132 0.21886,15.0191 1.26237,17.14147c3.51661,7.15233 9.18449,11.87907 6.62669,9.76621c-2.84317,-2.34859 -3.59996,-6.29072 -5.78495,-7.01686c-1.27954,-0.42523 -6.08494,1.79827 -12.00387,-5.40414c-1.97896,-2.40809 -4.77692,-14.51883 1.47974,-21.75753c1.55014,-1.79346 14.02267,-10.09943 18.44878,-11.49041c11.42083,-3.58921 18.34674,0.24953 18.34674,0.24953" fill="url(#color-1)" fill-rule="nonzero" stroke="#000000" stroke-width="3" stroke-linecap="round" stroke-linejoin="miter"/><path d="M258.95936,167.58537c-1.04851,0.04269 -6.86793,-5.32251 -9.7799,-11.51942c-2.25758,-4.8043 -2.00673,-10.58534 -1.26133,-11.70629c0.52573,-0.79061 3.45269,-5.05946 5.80486,-3.37475c2.76916,1.98336 5.70033,7.22823 5.70033,7.22823c0,0 4.79622,-8.33899 7.34939,-7.62398c1.23818,0.34676 2.63506,7.14819 0.83717,13.27589c-2.08794,7.11625 -7.59341,13.67727 -8.65051,13.7203z" fill="url(#color-2)" fill-rule="nonzero" stroke="#cb0000" stroke-width="4.5" stroke-linecap="butt" stroke-linejoin="miter"/><path d="M233.96504,168.85653c-1.07573,0.04379 -7.0462,-5.46067 -10.03375,-11.81842c-2.31617,-4.929 -2.05882,-10.86008 -1.29408,-12.01012c0.53939,-0.81113 3.54231,-5.19079 5.95554,-3.46234c2.84103,2.03484 5.84829,7.41583 5.84829,7.41583c0,0 4.9207,-8.55542 7.54014,-7.82185c1.27031,0.35575 2.70346,7.33373 0.8589,13.62049c-2.14213,7.30097 -7.79051,14.03227 -8.87503,14.07642z" fill="url(#color-3)" fill-rule="nonzero" stroke="#cb0000" stroke-width="4.5" stroke-linecap="butt" stroke-linejoin="miter"/><path d="M219.47021,175.53356c0.02594,0.63719 0.11708,8.41479 -5.09938,11.45036c-3.42526,1.99323 -12.81856,0.07024 -13.10111,-0.68941c-2.55252,-6.8624 0.46924,-19.85015 5.2305,-20.04398c3.59778,-0.14646 4.40612,-0.04456 6.95041,2.08057c1.76318,1.4727 5.89963,4.2559 6.01958,7.20246z" fill="url(#color-4)" fill-rule="nonzero" stroke="#000000" stroke-width="3" stroke-linecap="butt" stroke-linejoin="miter"/><path d="M240.59122,171.74834c-0.23962,0.02825 -3.40259,2.3985 -6.79873,3.34987c-3.13228,0.87744 -8.70948,2.93648 -9.94909,2.84041c-1.18159,-0.09159 -4.2997,-1.55354 -6.20115,-2.98258c-2.69187,-2.02308 -1.87636,-6.84345 -2.02146,-7.39679c-0.40878,-1.5589 28.24199,3.80332 24.97044,4.18909z" fill="#ff0000" fill-rule="nonzero" stroke="#000000" stroke-width="2" stroke-linecap="butt" stroke-linejoin="miter"/><g fill-rule="nonzero" stroke-linecap="butt" stroke-linejoin="miter"><g data-paper-data="{&quot;index&quot;:null}" stroke="none" stroke-width="1"><path d="M249.15996,181.12588c-0.1433,0.15627 -0.29009,0.1354 -0.45795,0.08029c-0.25788,-0.10816 -0.48897,-0.26612 -0.73789,-0.39097c-0.0718,0.02334 -0.14362,0.04667 -0.2004,0.07882c-1.24397,0.62367 -2.50776,0.62306 -3.78719,0.3944c-0.26968,-0.04946 -0.54833,-0.08235 -0.7883,-0.22374c-0.04498,-0.02654 -0.11393,-0.04525 -0.16183,-0.02967c-0.26329,0.08557 -0.4583,-0.02929 -0.67725,-0.13641c-0.18893,-0.08941 -0.36002,-0.21208 -0.54001,-0.31813c-0.10498,-0.06186 -0.19214,-0.15695 -0.21356,-0.30085c-0.02137,-0.14387 -0.11459,-0.26443 -0.19279,-0.3761c-0.51386,-0.58715 -0.92019,-1.26411 -1.22792,-2.01422c-0.16599,-0.42598 -0.24519,-0.86644 -0.31542,-1.32351c-0.2047,-1.34582 -0.02899,-2.66441 0.42533,-3.95019c0.21091,-0.57587 0.50574,-1.12421 0.86055,-1.63718c0.26835,-0.38886 0.62387,-0.68266 0.98543,-0.95101c1.15045,-0.85382 2.43111,-1.21519 3.78777,-1.20359c0.25754,-0.00142 0.51828,0.06464 0.77903,0.13074c0.17679,0.0385 0.34755,0.05158 0.52691,-0.06153c0.15542,-0.10532 0.32615,-0.09229 0.49401,-0.03715c0.25788,0.10816 0.49787,0.24957 0.73788,0.39098c0.07502,0.0442 0.11716,0.11278 0.15928,0.18138c0.1296,0.27325 0.32779,0.45565 0.5589,0.61364c0.5011,0.31707 0.88282,0.78263 1.27348,1.23157c0.14426,0.17254 0.27961,0.36161 0.38209,0.57512c0.34346,0.68365 0.648,1.36629 0.78212,2.14542c0.225,0.13255 0.45607,0.29057 0.6961,0.43194c0.09001,0.05303 0.19501,0.11489 0.20139,0.24992c0.01532,0.1184 0.11427,0.15486 0.20426,0.20784c0.59108,0.37007 1.19109,0.72357 1.78217,1.09365c1.32609,0.80313 2.66722,1.61501 3.97546,2.45137c1.27824,0.81868 2.58329,1.58744 3.87939,2.37289c0.21002,0.12371 0.38712,0.27184 0.59714,0.39553c1.02002,0.60091 2.04008,1.20183 3.05117,1.81935c0.17999,0.10603 0.37787,0.17887 0.48924,0.37576c0.04215,0.0686 0.12604,0.09615 0.20105,0.14035c0.75005,0.44182 1.50613,0.90914 2.25616,1.35099c0.02999,0.01767 0.07498,0.04421 0.10499,0.06185c0.24895,0.12476 0.30642,0.31178 0.28634,0.60627c-0.0749,0.98418 -0.42265,1.85136 -1.04329,2.60157c-0.16116,0.18948 -0.35229,0.3613 -0.5645,0.49884c-0.15542,0.10533 -0.31115,0.10112 -0.47008,0.02938c-0.47682,-0.21528 -0.96256,-0.41392 -1.45439,-0.63802c-0.34789,-0.16119 -0.6929,-0.36443 -1.06758,-0.47576c-0.81829,-0.2414 -1.5444,-0.69104 -2.33588,-0.98223c-0.44074,-0.17211 -0.88439,-0.30219 -1.31621,-0.49094c-0.46181,-0.20641 -0.92651,-0.37078 -1.38223,-0.55171c-0.82756,-0.33438 -1.65226,-0.71084 -2.48877,-1.02858c-1.11221,-0.39269 -2.18878,-0.85184 -3.26526,-1.31098c-0.37184,-0.15342 -0.7436,-0.30676 -1.11544,-0.46019c-0.57578,-0.25165 -1.16649,-0.51217 -1.74223,-0.76384c-0.3179,-0.1435 -0.63864,-0.24496 -0.95651,-0.38843c-0.34186,-0.13575 -0.62681,-0.30362 -0.97471,-0.46482zM249.17329,180.58678c0.19723,-0.14637 0.36445,-0.31039 0.4956,-0.51754c0.3673,-0.35249 0.63851,-0.78343 0.90973,-1.21439c0.34876,-0.53844 0.64646,-1.1288 0.93521,-1.70259c0.33343,-0.65685 0.49006,-1.35222 0.64065,-2.07306c0.00572,-0.08414 0.01147,-0.16826 0.02007,-0.29446c-0.11999,-0.07071 -0.24002,-0.14135 -0.36001,-0.21206c-0.03,-0.01767 -0.06893,-0.01874 -0.12286,-0.02863c-0.06255,0.1163 -0.11009,0.24146 -0.14263,0.37544c-0.0622,0.22591 -0.14551,0.4175 -0.20772,0.64337c-0.17803,0.55149 -0.49998,1.04011 -0.72299,1.56507c-0.12792,0.2747 -0.22591,0.56702 -0.38385,0.82405c-0.35769,0.55505 -0.64039,1.15426 -1.05808,1.67391c-0.11043,0.13187 -0.22972,0.28036 -0.34019,0.41223c-0.12577,0.01343 -0.1672,0.16406 -0.24189,0.22946c-0.0986,0.07317 -0.19723,0.14639 -0.28046,0.33797c0.25754,-0.00142 0.42576,0.16329 0.64148,0.20289c0.05969,-0.07424 0.1854,-0.08768 0.21794,-0.22168zM250.04066,180.22265c-0.34052,0.30261 -0.4091,0.39347 -0.49525,0.62716c0.18893,0.08941 0.3629,0.17 0.55182,0.25945c0.105,0.06186 0.21574,0.03962 0.31438,-0.03359c0.06577,-0.04881 0.11041,-0.13187 0.17615,-0.18067c0.23905,-0.18736 0.4359,-0.44335 0.56385,-0.71802c0.13753,-0.07217 0.20902,-0.20502 0.2805,-0.33798c0.41703,-0.73884 0.84014,-1.4523 1.1822,-2.23534c0.1487,-0.35 0.2824,-0.70884 0.39212,-1.05987c0.07402,-0.28462 0.15697,-0.58579 0.08416,-0.89123c-0.19502,-0.11488 -0.39002,-0.22972 -0.58505,-0.34463c-0.04148,0.15057 -0.07403,0.28461 -0.09763,0.40193c-0.13019,0.53592 -0.29031,1.05418 -0.51048,1.5371c-0.27664,0.62466 -0.62829,1.20517 -0.96491,1.7945c-0.15189,0.28249 -0.38482,0.49532 -0.5217,0.78661c-0.18539,0.08768 -0.28976,0.245 -0.37017,0.39452zM267.84404,187.99774c0.21508,-0.17959 0.35516,-0.40336 0.46524,-0.64481c0.02393,-0.00777 0.05681,-0.03219 0.06575,-0.04882c0.19943,-0.40761 0.36885,-0.83291 0.43041,-1.27797c0.04116,-0.26023 0.09729,-0.51155 0.02162,-0.77489c-0.84004,-0.49488 -1.68006,-0.98969 -2.56509,-1.51113c-0.04944,0.49596 -0.18883,0.93899 -0.34325,1.37305c-0.12763,0.3843 -0.35131,0.69008 -0.50893,1.05668c-0.07145,0.13293 -0.149,0.24042 -0.22047,0.37336c-0.18221,0.15518 -0.34335,0.34468 -0.49237,0.58506c0.45004,0.26512 0.94152,0.37961 1.37941,0.59382c0.46181,0.20642 0.93259,0.39623 1.37939,0.59381c0.1854,-0.08768 0.2869,-0.20292 0.38835,-0.31819zM264.6056,186.63694c0.13752,-0.07217 0.22402,-0.19622 0.29547,-0.32914c0.1315,-0.09757 0.19691,-0.25597 0.29231,-0.39665c0.26515,-0.45643 0.45533,-0.95701 0.60654,-1.45863c0.08294,-0.30118 0.13587,-0.62008 0.11095,-0.94105c-0.06,-0.03537 -0.11106,-0.08731 -0.17109,-0.12264c-0.73505,-0.43305 -1.45502,-0.85718 -2.18113,-1.30679c-0.77109,-0.47612 -1.52718,-0.94341 -2.29827,-1.41956c-1.13113,-0.68821 -2.23826,-1.38424 -3.36939,-2.07244c-1.25716,-0.78438 -2.52615,-1.51004 -3.76544,-2.32766c-0.20106,-0.14034 -0.43502,-0.25623 -0.66003,-0.38882c-0.03826,0.21811 -0.03759,0.43725 -0.10587,0.63771c-0.17769,0.66108 -0.45434,1.28575 -0.76095,1.89276c-0.28589,0.53168 -0.58679,1.05454 -0.88771,1.57743c-0.14615,0.19835 -0.26836,0.38887 -0.41451,0.58722c-0.16147,0.07988 -0.21189,0.24711 -0.31336,0.36237c-0.11043,0.13187 -0.24188,0.22944 -0.31623,0.40444c0.13215,0.1216 0.27003,0.15908 0.38394,0.2043c0.98334,0.33861 1.91016,0.81897 2.86666,1.20743c0.61472,0.25271 1.22939,0.50547 1.85303,0.74153c0.82756,0.33438 1.64905,0.64329 2.46161,0.96882c0.66861,0.26259 1.33726,0.52523 1.99694,0.80447c0.71363,0.28916 1.4033,0.58607 2.10802,0.89181c0.64468,0.27039 1.30439,0.54961 1.97301,0.81223c0.09539,-0.14068 0.23902,-0.18739 0.29549,-0.32913zM247.48896,169.24593c-0.06155,0.44504 -0.18918,0.82937 -0.30178,1.22245c-0.12156,0.40974 -0.21915,0.81169 -0.35572,1.21257c-0.12763,0.38429 -0.29419,0.76753 -0.43683,1.14294c-0.15157,0.39208 -0.30309,0.78411 -0.47857,1.18393c-0.15763,0.36658 -0.3392,0.74098 -0.49683,1.10759c-0.18157,0.37437 -0.4231,0.71342 -0.54467,1.12316c-0.27759,0.29588 -0.41416,0.69679 -0.61677,1.03691c-0.22656,0.34785 -0.43205,0.73004 -0.6586,1.07791c-0.21761,0.33123 -0.4592,0.67027 -0.6918,0.99269c-0.24159,0.33903 -0.53421,0.62609 -0.73072,0.99161c0.34214,0.24533 0.44712,0.30718 0.78862,0.33332c0.18221,-0.15518 0.36445,-0.3104 0.5345,-0.51649c0.19689,-0.25596 0.39378,-0.51189 0.61461,-0.77563c0.40878,-0.50306 0.79359,-0.9984 1.10631,-1.57993c0.21444,-0.39879 0.41384,-0.80641 0.68829,-1.16984c0.05969,-0.07424 0.11327,-0.17396 0.13687,-0.29128c0.0622,-0.2259 0.19338,-0.43305 0.30056,-0.63244c0.39312,-0.73109 0.69624,-1.5152 0.97539,-2.29155c0.38926,-1.01782 0.65564,-2.06422 0.87697,-3.13715c0.05325,-0.20927 0.10656,-0.41855 0.04299,-0.63098c-0.20713,-0.1658 -0.44111,-0.28175 -0.75287,-0.3998zM242.0945,174.90706c0.12354,0.24778 0.28281,0.42914 0.43315,0.62709c0.12033,0.1803 0.2914,0.30294 0.50715,0.34252c0.39861,0.10355 0.78545,0.26578 1.13652,0.49452c0.03,0.01767 0.08392,0.0276 0.09891,0.03642c0.08964,-0.05658 0.12537,-0.12303 0.12508,-0.23264c-0.00605,-0.02544 -0.02713,-0.05974 -0.04215,-0.0686c-0.40822,-0.30613 -0.79853,-0.64546 -1.17102,-1.01805c-0.05104,-0.05197 -0.13214,-0.1216 -0.21003,-0.12371c-0.27575,-0.07494 -0.55147,-0.14986 -0.87766,-0.05756zM243.82347,177.23837c-0.37822,-0.28842 -0.72353,-0.60128 -1.04493,-0.92191c-0.10214,-0.10389 -0.21606,-0.14916 -0.36288,-0.17c-0.22465,-0.02294 -0.43724,0.00498 -0.66479,0.02407c-0.07787,-0.00212 -0.17071,-0.01308 -0.19433,0.1043c0.21033,0.23332 0.39678,0.47441 0.62494,0.67448c0.78191,0.08868 0.78188,0.08868 1.51083,0.49622c0.07181,-0.02332 0.12254,-0.08098 0.13115,-0.20716zM247.50633,174.02581c0.23428,0.22554 0.4775,0.43446 0.7207,0.64338c0.05105,0.05197 0.10214,0.10393 0.17106,0.12265c0.30252,0.02509 0.59617,0.06676 0.89839,-0.01774c-0.0728,-0.30542 -0.271,-0.48782 -0.42742,-0.71125c-0.07817,-0.11169 -0.17713,-0.14809 -0.30894,-0.16011c-0.31147,-0.00847 -0.60512,-0.05018 -0.90473,-0.11734c-0.015,-0.00885 -0.04787,0.01552 -0.09571,0.03111c-0.01181,0.05868 -0.03256,0.13403 -0.05328,0.20928zM243.83627,171.5575c0.12386,0.3574 0.29527,0.58966 0.45774,0.8385c0.07213,0.08627 0.15606,0.11381 0.24,0.14138c0.41362,0.11238 0.80044,0.27468 1.16653,0.51218c0.04498,0.02652 0.09892,0.03643 0.14392,0.06291c0.11329,-0.17393 0.11615,-0.216 -0.00386,-0.28668c-0.39005,-0.22976 -0.72036,-0.53378 -0.97603,-0.90317c-0.1564,-0.22341 -0.34535,-0.31286 -0.58504,-0.34466c-0.14076,0.00459 -0.25756,0.00141 -0.4433,-0.02049zM244.89271,175.28658c0.04465,-0.08309 -0.00645,-0.13503 -0.06644,-0.1704c-0.41999,-0.24744 -0.75354,-0.61894 -1.08709,-0.9905c-0.2764,-0.29409 -0.65715,-0.43089 -1.12118,-0.37607c0.07246,0.19583 0.21354,0.30083 0.30387,0.46343c0.19567,0.33406 0.48067,0.50194 0.81643,0.61225c0.36574,0.12794 0.74045,0.23932 1.05259,0.46692c0.05392,0.00986 0.07789,0.00213 0.10182,-0.00567zM243.22593,172.72934c0.1264,0.20574 0.20171,0.35954 0.286,0.49667c0.1325,0.23118 0.30355,0.35384 0.54927,0.41111c0.33862,0.06822 0.65651,0.2117 0.96544,0.3718c0.11395,0.04527 0.23394,0.11595 0.33893,0.1778c0.05969,-0.07424 0.02363,-0.11735 -0.00639,-0.13503c-0.39038,-0.33933 -0.77175,-0.69529 -1.10242,-1.10892c-0.06607,-0.0608 -0.11713,-0.11274 -0.20106,-0.14032c-0.25468,-0.04065 -0.50043,-0.09789 -0.82976,-0.07313zM247.91919,172.89067c0.32076,0.10144 0.56395,0.31035 0.8161,0.50267c0.075,0.04417 0.10821,0.12938 0.20106,0.14032c0.14684,0.02085 0.49403,-0.03714 0.72733,-0.14038c-0.08747,-0.2047 -0.24961,-0.34394 -0.37887,-0.50766c-0.10822,-0.12939 -0.23714,-0.18346 -0.40181,-0.17108c-0.28146,0.00919 -0.54509,-0.01482 -0.81191,-0.10638c-0.01501,-0.00886 -0.06287,0.00674 -0.08678,0.0145c-0.05075,0.05764 -0.08651,0.12409 -0.06507,0.26797zM245.85372,179.15638c0.26361,0.02401 0.5097,0.19089 0.78512,0.15622c0.04754,-0.12514 -0.00064,-0.21919 -0.02491,-0.321c-0.05749,-0.18702 -0.07598,-0.37293 -0.19632,-0.55322c-0.3236,-0.05939 -0.60577,-0.26933 -0.93544,-0.35415c-0.08964,0.05658 -0.13435,0.13962 -0.149,0.2404c0.20142,0.24992 0.36996,0.52425 0.52061,0.83178zM246.57819,176.08257c0.13214,0.1216 0.26426,0.24319 0.32458,0.38813c0.14777,0.3496 0.41176,0.48321 0.73823,0.50051c0.11678,0.00319 0.20679,0.05623 0.35043,0.00956c-0.06069,-0.25455 -0.16312,-0.46806 -0.26563,-0.68154c-0.02713,-0.05974 -0.08714,-0.09508 -0.17106,-0.12265c-0.26076,-0.06608 -0.49755,-0.13995 -0.75829,-0.20606c-0.04498,-0.02654 -0.12289,-0.02862 -0.21829,0.1121zM246.01534,177.12936c0.29427,0.26087 0.54065,0.53731 0.66454,0.89471c0.0182,0.07635 0.08714,0.09508 0.14713,0.13041c0.14395,0.06291 0.29684,0.10922 0.48542,0.08905c-0.08492,-0.35635 -0.21456,-0.62961 -0.35914,-0.91168c-0.04819,-0.09402 -0.11424,-0.15484 -0.2132,-0.19124c-0.18285,-0.06402 -0.35684,-0.14457 -0.5397,-0.20854c-0.01501,-0.00886 -0.06288,0.00672 -0.0868,0.0145c-0.02681,0.04984 -0.05362,0.09971 -0.09825,0.18276zM245.25035,170.72769c-0.18573,-0.0219 -0.38649,-0.05267 -0.57224,-0.07459c-0.02392,0.00777 -0.04789,0.01555 -0.09573,0.03111c0.0367,0.26232 0.16313,0.46806 0.29237,0.63173c0.52757,0.15763 1.0251,0.29759 1.53513,0.59806c-0.11493,-0.37402 -0.41749,-0.39906 -0.58567,-0.56379c-0.2132,-0.19125 -0.39355,-0.40685 -0.57388,-0.62248zM241.60937,174.92764c-0.26935,0.0601 -0.52084,0.08703 -0.75091,0.25777c0.06923,0.12832 0.09959,0.25558 0.16282,0.35844c0.06322,0.10286 0.11746,0.22233 0.22249,0.28418c0.16179,0.02965 0.31436,-0.03361 0.46402,-0.05484c0.14966,-0.02124 0.29649,-0.00036 0.44294,-0.08909c-0.1775,-0.2577 -0.34885,-0.48995 -0.54133,-0.7565zM243.28169,178.31943c-0.41427,-0.33156 -0.76252,-0.60231 -1.11069,-0.87309c-0.03,-0.01767 -0.06606,-0.06083 -0.11392,-0.04525c-0.22754,0.01911 -0.46722,-0.01269 -0.68837,0.14144c0.17426,0.19018 0.33355,0.37153 0.50178,0.53626c0.46117,-0.01275 0.89869,0.09184 1.41124,0.24065zM248.59611,175.89297c-0.0246,-0.21141 -0.15673,-0.333 -0.24098,-0.47017c-0.09032,-0.16262 -0.20746,-0.27538 -0.4082,-0.3061c-0.26967,-0.04947 -0.53937,-0.09895 -0.76153,-0.27358c-0.09256,0.09866 -0.11327,0.17393 -0.02327,0.22696c0.21606,0.14915 0.44714,0.30719 0.58854,0.52174c0.21356,0.30084 0.51005,0.3005 0.84546,0.30114zM247.38161,177.34345c0.13887,0.36623 0.23561,0.66387 0.34125,0.9449c0.10498,0.06186 0.19181,0.04738 0.26966,0.04946c0.0868,-0.0145 0.19464,0.00528 0.28719,-0.09332c-0.02171,-0.2535 -0.08239,-0.50797 -0.16695,-0.75474c-0.22179,-0.06502 -0.43754,-0.10461 -0.73115,-0.14632zM249.5193,175.16787c-0.3054,0.01698 -0.5719,0.03505 -0.85335,0.04423c0.13249,0.2312 0.24997,0.45357 0.36741,0.67591c0.25754,-0.00142 0.48222,0.02155 0.7244,-0.09833c-0.05459,-0.22906 -0.151,-0.41713 -0.23846,-0.62181zM241.5582,173.84726c-0.01723,0.2524 0.151,0.41714 0.24738,0.6052c0.02713,0.05974 0.11104,0.08733 0.17394,0.08058c0.20363,-0.01131 0.3833,-0.01486 0.5719,-0.035c0.015,0.00885 0.03287,-0.02442 0.05076,-0.05764c-0.14745,-0.24005 -0.31889,-0.47223 -0.46634,-0.71229c-0.19466,-0.00529 -0.38614,0.05693 -0.57762,0.11917zM243.39018,171.579c-0.20074,-0.03072 -0.38647,-0.05266 -0.58976,0.06824c0.06356,0.21247 0.10919,0.45816 0.24453,0.64729c0.1318,0.01202 0.24575,0.05724 0.37147,0.0438c0.11677,0.00321 0.22786,0.09052 0.35327,-0.03253c-0.12353,-0.2478 -0.24707,-0.49559 -0.37954,-0.72683zM249.69442,174.65854c0.17074,0.01307 0.32615,-0.09229 0.49655,-0.18879c-0.1085,-0.23899 -0.15422,-0.48466 -0.32844,-0.67485c-0.1915,0.06223 -0.40114,0.04811 -0.61944,0.16019c0.14745,0.24005 0.30385,0.46346 0.45132,0.70346zM248.23314,171.71912c0.26107,0.17568 0.5729,0.29372 0.8161,0.50268c0.20714,0.16578 0.38967,0.12012 0.61689,-0.00854c-0.10246,-0.21349 -0.24961,-0.34394 -0.40281,-0.49982c-0.35613,0.07462 -0.68585,-0.01018 -1.03018,0.00573zM242.57136,179.12617c0.02076,-0.0753 -0.02427,-0.10179 -0.06923,-0.12832c-0.18605,-0.13149 -0.39608,-0.25522 -0.57322,-0.40333c-0.24928,-0.23434 -0.48862,-0.15656 -0.76979,-0.03776c0.08716,0.09511 0.14427,0.17248 0.21033,0.23328c0.15322,0.15587 0.30927,0.2697 0.5547,0.21739c0.14966,-0.02124 0.30255,0.0251 0.44044,0.06252c0.05105,0.05197 0.10819,0.12937 0.20678,0.05621zM245.80278,180.13277c-0.01532,-0.1184 -0.04852,-0.20363 -0.06673,-0.27996c-0.03065,-0.23684 -0.13886,-0.36625 -0.33674,-0.43905c-0.16785,-0.05516 -0.32395,-0.16898 -0.48288,-0.24071c-0.045,-0.02654 -0.08107,-0.06965 -0.15863,0.03783c0.16532,0.20683 0.31284,0.44683 0.42741,0.71126c0.02713,0.05974 0.10211,0.10389 0.16211,0.13927c0.13785,0.03746 0.26076,0.06611 0.45541,0.07137zM248.77708,176.32782c-0.18573,-0.02192 -0.37753,-0.06927 -0.5751,-0.03247c0.07568,0.26336 0.11239,0.52567 0.24484,0.75686c0.20362,-0.01133 0.3804,0.0272 0.56871,-0.10255c-0.06355,-0.21248 -0.1031,-0.43272 -0.23847,-0.6218zM243.12,173.36716c-0.07569,-0.26335 -0.20209,-0.4691 -0.34635,-0.64157c-0.20361,0.01132 -0.38328,0.01489 -0.59871,0.08489c0.01853,0.18597 0.09388,0.33973 0.19315,0.48571c0.24859,0.01518 0.48829,0.04698 0.7519,0.07103zM248.67195,178.21309c0.15864,-0.03784 0.2604,-0.04349 0.36507,-0.09124c0.07181,-0.02334 0.12861,-0.0555 0.18543,-0.08769c0.01434,-0.21033 -0.01026,-0.42175 -0.10665,-0.60982c-0.19466,-0.00529 -0.38932,-0.01057 -0.5837,0.09375c0.05459,0.22906 0.07919,0.44048 0.13986,0.69498zM244.23575,179.88787c0.08175,0.28883 0.13025,0.49242 0.19985,0.73033c0.05104,0.05197 0.16497,0.09721 0.2818,0.10038c0.10786,0.01978 0.19499,0.11488 0.32361,0.05937c0.0354,-0.17606 0.01401,-0.31993 -0.04631,-0.46488c-0.24895,-0.12476 -0.47394,-0.25737 -0.75895,-0.42525zM240.70458,174.81025c0.1197,-0.03892 0.23938,-0.0778 0.35904,-0.11666c0.11971,-0.03893 0.22433,-0.08666 0.34401,-0.12554c-0.10244,-0.2135 -0.15991,-0.40053 -0.30703,-0.53097c-0.11678,-0.00317 -0.20039,0.07885 -0.29007,0.13539c-0.08964,0.05658 -0.22434,0.08666 -0.27188,0.21176c0.05141,0.16158 0.07279,0.30542 0.166,0.42598zM249.86088,176.22237c-0.22147,0.04458 -0.44618,0.02157 -0.67339,0.15032c0.05749,0.18699 0.12387,0.35739 0.18134,0.54441c0.22147,-0.04457 0.41009,-0.0647 0.59229,-0.21992c-0.01247,-0.16048 0.00509,-0.30334 -0.10025,-0.47478zM241.6546,177.01085c-0.21639,-0.25877 -0.41171,-0.48323 -0.60703,-0.70766c-0.12576,0.01343 -0.24256,0.01023 -0.33509,0.10889c0.06674,0.28 0.23204,0.48676 0.38845,0.71016c0.12576,-0.01343 0.25149,-0.02687 0.37116,-0.06575c0.06895,0.01876 0.10179,-0.00565 0.18251,-0.04559zM247.49058,178.72036c-0.21863,0.00252 -0.39865,-0.10356 -0.59013,-0.04132c0.05174,0.27113 0.09741,0.51681 0.20594,0.75584c0.16757,-0.05447 0.31754,0.03393 0.4969,-0.07922c0.01433,-0.21031 -0.06708,-0.38959 -0.11271,-0.63528zM243.50716,170.66349c0.02747,0.16933 0.07888,0.33087 0.16315,0.46805c0.23362,0.00633 0.45828,0.02931 0.72189,0.05332c-0.11138,-0.19687 -0.1778,-0.36728 -0.2563,-0.58859c-0.23363,-0.00635 -0.4433,-0.02049 -0.62873,0.06721zM246.17747,180.2441c0.23074,0.04844 0.42256,0.09577 0.63191,0.00032c-0.00355,-0.17711 -0.00097,-0.32876 -0.08525,-0.46594c-0.21574,-0.03959 -0.42251,-0.09575 -0.6772,-0.13639c0.0246,0.21141 0.05814,0.40618 0.13059,0.60202zM242.63164,172.2918c-0.11746,-0.22233 -0.10921,-0.45816 -0.25636,-0.58861c-0.20361,0.01132 -0.3651,0.09123 -0.52051,0.19658c0.03354,0.19478 0.05205,0.38073 0.19024,0.52779c0.18254,-0.0456 0.35613,-0.07463 0.58656,-0.13579zM250.32701,174.87797c-0.16755,0.05446 -0.31721,0.07567 -0.45763,0.18988c0.10246,0.21349 0.10917,0.45816 0.26846,0.63951c0.15863,-0.03784 0.27224,-0.10219 0.36765,-0.24289c-0.04853,-0.20362 -0.12098,-0.39945 -0.17848,-0.58645zM240.97362,177.61605c-0.17362,0.029 -0.27824,0.07673 -0.38585,0.16651c0.05749,0.18702 0.15384,0.37508 0.33387,0.48108c0.14362,-0.04668 0.28718,-0.09333 0.44582,-0.13116c-0.09352,-0.23014 -0.26458,-0.35279 -0.39386,-0.51646zM249.97209,171.38693c-0.12859,0.05549 -0.23329,0.10326 -0.30188,0.19409c0.09637,0.18804 0.2107,0.34288 0.35782,0.47331c0.13466,-0.03002 0.23934,-0.07778 0.33188,-0.17641c-0.08747,-0.2047 -0.25854,-0.32733 -0.38781,-0.49098zM249.5872,177.83331c0.2336,0.00636 0.32009,-0.11774 0.3855,-0.27611c0.06255,-0.11629 0.09508,-0.2503 0.00187,-0.37084c-0.17362,0.029 -0.3322,0.06682 -0.48763,0.17218c0.02747,0.16933 0.06386,0.32205 0.10025,0.47476zM245.68522,169.95563c-0.1618,-0.02969 -0.28178,-0.10037 -0.41932,-0.02826c0.07633,0.48254 0.406,0.56739 0.81033,0.58677c-0.13531,-0.18913 -0.25567,-0.36945 -0.391,-0.55853zM248.41135,179.17534c0.02043,-0.1849 -0.001,-0.32876 -0.08239,-0.50799c-0.13752,0.07217 -0.29649,0.00041 -0.42795,0.09798c-0.03863,0.10855 0.00351,0.17709 0.01277,0.27007c0.02426,0.10178 0.00959,0.20257 0.11459,0.26443c0.12576,-0.01343 0.25152,-0.02689 0.38298,-0.12447zM245.03819,174.86911c0.18826,-0.12974 0.21189,-0.24711 0.08582,-0.34323c-0.18605,-0.1315 -0.39002,-0.22978 -0.57895,-0.31919c-0.05997,-0.03536 -0.14396,-0.06289 -0.22755,0.01911c0.22535,0.24213 0.46852,0.45102 0.72068,0.64335zM250.86624,173.94855c0.10787,0.0198 0.18862,-0.02016 0.25725,-0.11101c-0.04565,-0.2457 -0.05844,-0.51581 -0.21484,-0.73922c-0.19721,0.14638 -0.24767,0.3136 -0.16019,0.51826c0.02427,0.1018 0.01566,0.22805 0.11779,0.33196zM246.08537,172.55423c0.12509,-0.23259 0.12183,-0.30016 -0.01311,-0.37967c-0.21894,-0.10709 -0.45287,-0.22305 -0.70755,-0.26368c0.19854,0.292 0.39101,0.55854 0.72069,0.64336zM248.93166,170.97096c0.11103,0.08731 0.21611,0.14915 0.31212,0.22763c0.20105,0.14037 0.20107,0.14032 0.43692,-0.11456c-0.08716,-0.09511 -0.18035,-0.21565 -0.23141,-0.26757c-0.1915,0.06221 -0.35008,0.10007 -0.51763,0.15452zM241.07458,172.35897c0.02138,0.14389 -0.029,0.31111 0.136,0.40832c0.1286,-0.0555 0.25116,-0.13647 0.40369,-0.19976c-0.02746,-0.16934 -0.03096,-0.34644 -0.12419,-0.46698c-0.13753,0.07218 -0.28118,0.11881 -0.41552,0.25845zM249.5717,172.68272c0.15034,0.19793 0.29173,0.41253 0.44208,0.61046c0.09285,0.01092 0.17964,-0.00353 0.20325,-0.12088c-0.05458,-0.22906 -0.15705,-0.44261 -0.32527,-0.60732c-0.12577,0.01343 -0.22146,0.04457 -0.32009,0.11777zM243.98812,170.24663c0.04754,-0.12514 0.03223,-0.24359 -0.02205,-0.36306c-0.07789,-0.00213 -0.15575,-0.00422 -0.23363,-0.00633c-0.10179,0.00564 -0.19468,-0.00527 -0.27827,0.07675c-0.05362,0.09968 -0.0683,0.20042 -0.029,0.31109c0.17971,-0.00355 0.3833,-0.01489 0.56295,-0.01841zM241.92805,173.34313c-0.02746,-0.16934 -0.09675,-0.29767 -0.18993,-0.41821c-0.16147,0.07988 -0.31399,0.14319 -0.45152,0.21531c-0.02645,0.15946 0.02781,0.27893 0.10887,0.34858c0.18254,-0.04559 0.36508,-0.09124 0.53266,-0.14565zM244.81045,169.85601c-0.11678,-0.00317 -0.23359,-0.00636 -0.35937,0.00707c-0.02391,0.00777 -0.0418,0.04104 -0.07469,0.06545c0.00925,0.09298 -0.01436,0.21031 0.07886,0.33087c0.14684,0.02083 0.31469,0.07594 0.49724,0.03035c-0.00356,-0.17709 -0.05783,-0.29656 -0.14209,-0.43373zM246.57406,169.73523c-0.15607,-0.11382 -0.08781,-0.31428 -0.2378,-0.40263c-0.15571,-0.00422 -0.29966,-0.06719 -0.49114,-0.00493c0.01247,0.16048 0.03387,0.30441 0.19567,0.33404c0.1618,0.02969 0.28785,0.12581 0.53328,0.07351zM250.75443,172.61368c-0.06925,-0.12831 -0.12963,-0.27326 -0.18386,-0.39273c-0.00605,-0.02545 -0.04501,-0.02652 -0.07502,-0.04418c-0.07467,0.06541 -0.19436,0.10428 -0.22971,0.28036c0.07534,0.15374 0.16566,0.3164 0.24708,0.49562c0.12253,-0.08095 0.19114,-0.17183 0.24158,-0.33904zM240.88,173.38207c-0.14362,0.04666 -0.30222,0.0845 -0.42188,0.1234c-0.03541,0.17605 -0.01404,0.31995 0.01632,0.44719c0.11397,0.04524 0.19146,-0.06222 0.27222,-0.10219c0.08075,-0.03998 0.17647,-0.07108 0.22402,-0.19624c0.00572,-0.08414 -0.00353,-0.17713 -0.09067,-0.27222zM247.17477,180.26277c0.14966,-0.02124 0.26044,-0.0435 0.37115,-0.06577c0.03894,0.00107 0.08076,-0.03994 0.10469,-0.04773c0.06254,-0.11629 0.04723,-0.23474 -0.00707,-0.35422c-0.16467,0.01239 -0.32044,0.00816 -0.48795,0.06253c-0.0086,0.12619 0.00672,0.24464 0.01919,0.40512zM249.15786,170.51357c-0.15926,-0.18137 -0.31854,-0.36267 -0.55535,-0.43656c-0.0354,0.17604 -0.09188,0.31785 -0.01656,0.4716c0.29966,0.06718 0.29968,0.06716 0.57189,-0.03502zM248.7732,179.01665c0.43693,-0.11456 0.44582,-0.13117 0.45661,-0.51866c-0.15863,0.03784 -0.31112,0.10113 -0.46976,0.13894c-0.04754,0.12514 -0.03222,0.24355 0.01309,0.37967zM243.08212,170.71931c-0.16467,0.01238 -0.29936,0.04246 -0.43085,0.14003c-0.00286,0.04207 0.00032,0.10959 0.00352,0.17712c0.01214,0.05092 0.03926,0.11068 0.05138,0.16154c0.16467,-0.01241 0.33544,0.00065 0.48192,-0.08808c0.0086,-0.12618 -0.0367,-0.26232 -0.10601,-0.39061zM245.9337,180.84439c-0.00321,-0.06751 -0.01249,-0.1605 -0.04853,-0.20364c-0.1382,-0.14708 -0.30604,-0.20216 -0.53363,-0.18306c0.00638,0.13505 -0.03508,0.28562 0.02814,0.38852c0.18572,0.02192 0.35967,0.10249 0.55401,-0.00181zM240.35054,176.57082c-0.02391,0.00776 -0.04787,0.01555 -0.09573,0.0311c0.00387,0.28672 0.07952,0.55007 0.15521,0.81341c0.1318,0.01201 0.21253,-0.02795 0.299,-0.15201c-0.11746,-0.22233 -0.226,-0.46127 -0.35846,-0.69252zM244.9761,173.14789c0.17141,0.23224 0.31887,0.47223 0.5828,0.60585c0.01501,0.00886 0.08071,-0.03997 0.0986,-0.07318c0.04463,-0.08309 0.02039,-0.18488 -0.05463,-0.22903c-0.1682,-0.16474 -0.38109,-0.24639 -0.62679,-0.30364zM242.26223,170.95836c-0.13468,0.03003 -0.26937,0.06011 -0.39191,0.14106c-0.06255,0.1163 -0.07722,0.21706 -0.01691,0.36199c0.15255,-0.0633 0.32011,-0.11773 0.45763,-0.18985c0.0236,-0.11732 0.01433,-0.21032 -0.04886,-0.31321zM250.37122,176.63239c0.14007,-0.22379 0.26232,-0.41431 0.26454,-0.67556c-0.16179,-0.02966 -0.28434,0.05125 -0.40083,0.15767c0.01854,0.18595 0.03098,0.34644 0.13634,0.5179zM244.08334,180.97952c-0.00959,-0.20258 -0.01563,-0.228 -0.06065,-0.25455c-0.14104,-0.10499 -0.32075,-0.10144 -0.4854,-0.08905c-0.06284,0.00671 -0.12253,0.08099 -0.05933,0.18385c0.18861,-0.02015 0.3479,0.16121 0.60544,0.15973zM240.8129,175.96809c-0.1085,-0.23899 -0.19313,-0.48573 -0.43922,-0.65254c-0.02007,0.29445 0.0974,0.51684 0.18487,0.72149c0.08393,0.02759 0.14071,-0.00462 0.25432,-0.06897zM248.00576,179.74593c0.00034,0.10959 -0.01433,0.21034 -0.014,0.31993c0.17971,-0.00354 0.33831,-0.04138 0.39157,-0.25066c0.01182,-0.05868 0.02358,-0.11734 -0.02747,-0.16933c-0.10786,-0.01979 -0.21256,0.02795 -0.35008,0.10008zM246.53399,171.35259c0.0804,-0.14955 0.08615,-0.23365 -0.04278,-0.28772c-0.11396,-0.04526 -0.22789,-0.09049 -0.35077,-0.1191c-0.05391,-0.00986 -0.11682,-0.00319 -0.13755,0.07212c0.15321,0.15588 0.31821,0.25307 0.53109,0.33472zM242.83896,177.4898c0.15928,0.18137 0.33644,0.32944 0.55823,0.39449c0.01503,0.00886 0.08072,-0.03997 0.08964,-0.05656c0.01785,-0.0332 -0.00925,-0.09298 -0.03928,-0.11065c-0.20394,-0.09828 -0.36609,-0.23756 -0.60867,-0.22729zM242.92015,178.58775c-0.17681,-0.03852 -0.34184,-0.13574 -0.56043,-0.13329c0.15034,0.19794 0.29748,0.32839 0.41428,0.33156c0.10786,0.01979 0.14362,-0.04666 0.14613,-0.19831zM251.05782,174.91465c0.0622,-0.22591 0.18729,-0.45855 0.06982,-0.68088c-0.2808,0.22839 -0.16334,0.45072 -0.06982,0.68088zM248.20267,173.53904c0.01785,-0.03321 0.01182,-0.05875 0.02969,-0.09194c-0.15893,-0.07173 -0.25821,-0.21772 -0.43788,-0.21417c-0.06862,0.09085 -0.08041,0.14955 -0.03221,0.24357c0.1318,0.01201 0.27861,0.03286 0.44045,0.06253zM244.03358,175.41494c0.18321,0.17356 0.33036,0.30399 0.51928,0.39344c0.03,0.01767 0.07786,0.00214 0.10466,-0.04772c0.00894,-0.01665 0.01181,-0.05868 0.00573,-0.08414c-0.15927,-0.18137 -0.33927,-0.28738 -0.62968,-0.26155zM246.26557,180.66797c-0.0236,0.11736 -0.02041,0.18487 0.04247,0.17815c0.1318,0.01201 0.27254,0.0074 0.41329,0.00281c0.08679,-0.01448 0.1136,-0.06431 0.0804,-0.14952c-0.1918,-0.04738 -0.35364,-0.07705 -0.53616,-0.03143zM241.47374,171.65337c-0.00925,-0.09298 -0.00353,-0.17712 -0.01279,-0.27009c-0.00604,-0.02545 -0.03607,-0.04312 -0.07213,-0.08627c-0.10722,0.19934 -0.25046,0.35562 -0.30663,0.60699c0.15255,-0.0633 0.25722,-0.11104 0.39156,-0.25068zM245.69367,177.72754c0.15893,0.07175 0.3029,0.13468 0.49184,0.2241c-0.0607,-0.25454 -0.16885,-0.38392 -0.32779,-0.45565c-0.08965,0.05658 -0.13148,0.09757 -0.16405,0.23158zM248.124,172.28936c0.14076,-0.00459 0.28785,0.12583 0.47615,-0.00391c-0.33322,-0.26191 -0.40819,-0.30611 -0.4829,-0.2407c-0.04465,0.08309 -0.04148,0.15063 0.00673,0.24465zM243.52755,176.42959c0.11777,0.33194 0.2978,0.43795 0.55854,0.50407c-0.05495,-0.33866 -0.3364,-0.32941 -0.55854,-0.50407zM246.26353,170.05555c0.11172,0.30649 0.27675,0.40372 0.47463,0.47652c0.015,0.00885 0.04785,-0.01557 0.06573,-0.04879c0.02681,-0.04984 0.01467,-0.10076 -0.01533,-0.1184c-0.14104,-0.105 -0.29997,-0.17673 -0.52499,-0.30929zM248.3279,171.35918c0.1618,0.02969 0.32076,0.10144 0.51505,-0.00284c-0.12321,-0.13823 -0.26716,-0.20114 -0.39607,-0.25523c-0.0986,0.07317 -0.11932,0.14846 -0.119,0.25808zM245.53358,169.31924c-0.19755,0.03679 -0.36255,-0.06044 -0.5119,0.07038c0.18321,0.17356 0.1832,0.17356 0.49147,0.11452c0.00287,-0.04207 0.00573,-0.08414 0.02042,-0.18489zM250.45394,174.27443c0.08006,-0.25912 0.00762,-0.45497 -0.08879,-0.64303c-0.11678,-0.00317 -0.15256,0.0633 -0.13435,0.13962c0.07536,0.15374 0.14174,0.32418 0.22315,0.50337zM243.0211,170.35517c0.03862,-0.10855 0.06828,-0.20045 0.00508,-0.30329c-0.11073,0.02227 -0.22151,0.04453 -0.29006,0.13538c-0.02969,0.0919 -0.02645,0.15944 0.01568,0.22805c0.09286,0.01092 0.16467,-0.01239 0.26934,-0.06014zM247.24166,175.62013c-0.09318,-0.12054 -0.16535,-0.20683 -0.27322,-0.2266c-0.03894,-0.00107 -0.07181,0.02332 -0.10468,0.04773c-0.02681,0.04984 -0.03257,0.13399 0.02136,0.14388c0.09002,0.05303 0.19501,0.11489 0.35652,0.03496zM240.68619,172.67719c-0.12541,0.12304 -0.12187,0.30016 -0.16333,0.45075c0.30223,-0.08451 0.32008,-0.11777 0.16333,-0.45075zM242.40481,179.50936c-0.18928,-0.19902 -0.18927,-0.19901 -0.35969,-0.1025c0.07214,0.08626 0.15929,0.18134 0.35969,0.1025zM247.38158,174.36803c-0.08075,0.03998 -0.10753,0.0898 -0.08648,0.12407c0.07536,0.15374 0.12928,0.16367 0.3447,0.09365c-0.07817,-0.11171 -0.16821,-0.16476 -0.25821,-0.21777zM246.75877,169.42843c0.03036,0.12727 0.06963,0.23791 0.19244,0.26656c0.09792,-0.29236 0.0769,-0.32662 -0.19244,-0.26656zM241.69222,179.54899c0.05141,0.16158 0.16245,0.24887 0.25851,0.32732c0.05998,0.03536 0.13183,0.01202 0.12542,-0.12304c-0.09607,-0.07844 -0.20714,-0.16581 -0.38393,-0.20432zM244.38691,169.43136c0.13215,0.1216 0.23396,0.11595 0.33543,0.00069c0,0 0.00285,-0.04207 -0.01215,-0.05089c-0.08109,-0.06963 -0.19465,-0.00533 -0.32332,0.05018zM246.52303,176.66271c0.0236,-0.11736 -0.01854,-0.18597 -0.08746,-0.20467c-0.03,-0.01767 -0.07788,-0.00212 -0.11075,0.02227c-0.03287,0.02442 -0.02967,0.09189 0.00035,0.10957c0.03608,0.04314 0.09605,0.07847 0.19787,0.07284zM242.1595,170.63518c0.14075,-0.0046 0.22149,-0.04454 0.23295,-0.21283c-0.16467,0.01241 -0.23042,0.06116 -0.23295,0.21283z" fill="#000000"/><path d="M251.69597,179.97263c0.30091,-0.52284 0.60183,-1.04573 0.88771,-1.57744c0.32165,-0.59819 0.58326,-1.23167 0.76095,-1.89275c0.05327,-0.20928 0.0587,-0.40298 0.1059,-0.63771c0.24003,0.1414 0.45894,0.24845 0.66,0.38881c1.22431,0.80877 2.50827,1.5433 3.76544,2.32766c1.12216,0.70485 2.23827,1.38422 3.36938,2.07244c0.7711,0.47612 1.52719,0.94345 2.29826,1.41959c0.72611,0.44963 1.45503,0.85716 2.18114,1.30676c0.06,0.03537 0.12,0.07072 0.17107,0.12268c0.03995,0.32983 -0.0191,0.62324 -0.11094,0.94104c-0.15123,0.50165 -0.3414,1.00224 -0.60655,1.45862c-0.0804,0.14955 -0.14579,0.30791 -0.29228,0.39663c0.0504,-0.16723 0.18472,-0.30686 0.20803,-0.53381c-0.30251,-0.0251 -0.53073,-0.22515 -0.7797,-0.34993c-0.015,-0.00885 -0.02999,-0.01767 -0.03893,-0.00107c-0.47647,-0.10568 -0.9115,-0.36198 -1.37621,-0.52632c-0.16786,-0.05514 -0.36254,-0.06042 -0.49468,-0.182c-0.28213,-0.20999 -0.64757,-0.22832 -0.92974,-0.43831c-0.015,-0.00885 -0.05393,-0.00988 -0.08394,-0.02759c-0.31179,-0.11802 -0.61753,-0.21068 -0.91148,-0.36195c-0.33001,-0.1944 -0.70152,-0.23823 -1.01364,-0.46585c-0.2486,-0.01518 -0.42573,-0.16332 -0.64467,-0.27041c-0.02999,-0.01767 -0.04502,-0.02651 -0.07498,-0.04418c-0.37148,-0.04381 -0.65077,-0.29585 -0.98652,-0.40613c-0.33573,-0.11028 -0.6329,-0.32907 -0.95971,-0.45596c-0.37182,-0.15344 -0.7554,-0.24809 -1.08863,-0.51008c-0.03,-0.01767 -0.07501,-0.0442 -0.11395,-0.04525c-0.21863,0.00252 -0.37181,-0.15342 -0.56073,-0.24286c-0.09003,-0.05303 -0.18605,-0.13147 -0.29395,-0.15127c-0.17073,-0.01309 -0.2818,-0.10039 -0.41682,-0.17994c-0.07501,-0.0442 -0.14109,-0.10501 -0.21894,-0.10707c-0.24859,-0.01518 -0.44074,-0.17212 -0.63574,-0.287c-0.07501,-0.0442 -0.14107,-0.10496 -0.21894,-0.10711c-0.20965,-0.01415 -0.36576,-0.12793 -0.53075,-0.22517c-0.27005,-0.15907 -0.60255,-0.20183 -0.86361,-0.37751c-0.03608,-0.04313 -0.10786,-0.01981 -0.1618,-0.02967z" fill="#87d7dc"/><path d="M251.69599,179.97264c0.05392,0.00991 0.12574,-0.01346 0.17075,0.01306c0.26109,0.17567 0.58469,0.23506 0.86363,0.3775c0.165,0.09722 0.3211,0.21104 0.53075,0.22518c0.07789,0.00213 0.14395,0.06292 0.21893,0.10706c0.19502,0.11486 0.39606,0.25523 0.63574,0.28706c0.07787,0.00212 0.13503,0.07953 0.21896,0.10707c0.135,0.07952 0.25502,0.15023 0.41682,0.17992c0.10786,0.01979 0.20396,0.09828 0.29396,0.1513c0.18893,0.08941 0.34215,0.24531 0.56075,0.24283c0.03894,0.00107 0.08394,0.02758 0.11393,0.04524c0.31822,0.2531 0.71685,0.35667 1.08866,0.51005c0.34184,0.13574 0.63895,0.35453 0.9597,0.45601c0.33572,0.11025 0.61502,0.3623 0.9865,0.40611c0.02393,-0.00776 0.04501,0.02654 0.07502,0.04421c0.19502,0.11485 0.39607,0.2552 0.64471,0.2704c0.3032,0.24428 0.6747,0.28806 1.01363,0.46588c0.28501,0.1679 0.59968,0.24388 0.91148,0.36196c0.02999,0.01767 0.05397,0.00987 0.08395,0.02756c0.28213,0.20999 0.64755,0.22832 0.92973,0.43831c0.15607,0.11381 0.33575,0.1103 0.49469,0.18202c0.45575,0.18096 0.89972,0.42063 1.37617,0.52631c0.015,0.00885 0.03895,0.00105 0.03895,0.00105c0.24897,0.12476 0.47717,0.32488 0.77971,0.34994c-0.01434,0.21033 -0.16371,0.34114 -0.20805,0.53381c-0.07146,0.13291 -0.14297,0.26581 -0.29554,0.32912c-0.09003,-0.05303 -0.18604,-0.13148 -0.29393,-0.15125c-0.37753,-0.06925 -0.68363,-0.2715 -1.01653,-0.42384c-0.33286,-0.15232 -0.71041,-0.22158 -1.01362,-0.46584c-0.2486,-0.01518 -0.42577,-0.16329 -0.6447,-0.27041c-0.02999,-0.01767 -0.07501,-0.04417 -0.11395,-0.04524c-0.17969,0.00354 -0.31178,-0.11806 -0.45576,-0.181c-0.07501,-0.0442 -0.15002,-0.08835 -0.21894,-0.10709c-0.3747,-0.11133 -0.75543,-0.24808 -1.10046,-0.45136c-0.04499,-0.02654 -0.09607,-0.0785 -0.14393,-0.06291c-0.19464,-0.0053 -0.33573,-0.11025 -0.48575,-0.19862c-0.15607,-0.11381 -0.36865,-0.08587 -0.53968,-0.20855c-0.23108,-0.15801 -0.50075,-0.20747 -0.75863,-0.31564c-0.34791,-0.16118 -0.71648,-0.24707 -1.06149,-0.45033c-0.06,-0.03537 -0.12607,-0.09616 -0.18895,-0.08942c-0.15574,-0.00426 -0.28179,-0.10035 -0.42571,-0.16329c-0.12,-0.0707 -0.24892,-0.12476 -0.37182,-0.15344c-0.23074,-0.04844 -0.44362,-0.13006 -0.65366,-0.25376c-0.32393,-0.16896 -0.70151,-0.23822 -1.00469,-0.48246c-0.03,-0.01767 -0.08392,-0.02759 -0.11395,-0.04527c-0.34184,-0.13574 -0.69256,-0.25482 -1.01648,-0.42382c-0.33001,-0.1944 -0.73151,-0.2559 -1.04363,-0.48355c-0.045,-0.02654 -0.10787,-0.01977 -0.1618,-0.02967c-0.21286,-0.08165 -0.43183,-0.18876 -0.60001,-0.35348c0.02967,-0.09192 0.06537,-0.15838 0.08615,-0.23367c0.1701,-0.20613 0.30729,-0.38781 0.43845,-0.59498z" fill="#b0eef2"/><path d="M247.48898,169.24594c0.31177,0.11804 0.54575,0.23401 0.73503,0.43303c0.04853,0.20363 -0.00472,0.4129 -0.04299,0.631c-0.23638,1.06408 -0.48776,2.11932 -0.87699,3.13713c-0.29418,0.7675 -0.59727,1.55165 -0.97537,2.29156c-0.10721,0.19937 -0.23836,0.40657 -0.3006,0.63247c-0.02967,0.09192 -0.0833,0.19161 -0.13688,0.29127c-0.27444,0.36345 -0.45884,0.77988 -0.68828,1.16984c-0.31876,0.55613 -0.69754,1.07689 -1.1063,1.57994c-0.21187,0.24711 -0.40877,0.50309 -0.61457,0.77565c-0.15509,0.21491 -0.35229,0.36129 -0.53451,0.51651c-0.33256,-0.04277 -0.44647,-0.088 -0.78862,-0.33331c0.21151,-0.35669 0.48917,-0.65262 0.73072,-0.99162c0.23262,-0.32241 0.47417,-0.66144 0.69181,-0.9927c0.22656,-0.34785 0.44706,-0.72121 0.6586,-1.07789c0.21761,-0.33123 0.35413,-0.73215 0.6168,-1.03694c0.12157,-0.40974 0.36312,-0.74874 0.54467,-1.12315c0.17263,-0.35777 0.33915,-0.74099 0.49679,-1.10761c0.16656,-0.38322 0.3181,-0.77527 0.47862,-1.18395c0.14263,-0.37544 0.30918,-0.75865 0.43678,-1.14296c0.13655,-0.40088 0.23418,-0.80283 0.35574,-1.21258c0.13048,-0.42635 0.2581,-0.81061 0.31965,-1.2557z" fill="#d1eaeb"/><path d="M251.28149,180.55989c-0.02075,0.0753 -0.05648,0.14178 -0.08613,0.23367c0.16822,0.16473 0.3632,0.27958 0.60002,0.35348c0.05393,0.00991 0.1168,0.00319 0.1618,0.02969c0.31213,0.22764 0.70474,0.30575 1.04366,0.48355c0.31502,0.18558 0.67469,0.28807 1.01648,0.42385c0.03,0.01767 0.08394,0.02758 0.11393,0.04524c0.30319,0.24429 0.67467,0.28809 1.00469,0.4825c0.19502,0.11486 0.42289,0.20535 0.65364,0.25374c0.13783,0.03746 0.26681,0.09153 0.37182,0.15341c0.135,0.07952 0.24607,0.16683 0.42575,0.1633c0.06284,-0.0067 0.12894,0.0541 0.18894,0.08946c0.33001,0.1944 0.71362,0.28909 1.0615,0.4503c0.25788,0.10818 0.52756,0.15761 0.75862,0.31564c0.15607,0.11381 0.36861,0.08588 0.53968,0.20855c0.14107,0.10499 0.29714,0.21881 0.48575,0.19867c0.05393,0.00991 0.09893,0.03639 0.14393,0.06288c0.34499,0.20326 0.71072,0.33123 1.10044,0.45136c0.08392,0.02759 0.15,0.08834 0.2189,0.10708c0.135,0.07952 0.27609,0.18449 0.45576,0.18095c0.03893,0.00107 0.08394,0.02757 0.11392,0.04525c0.19502,0.11485 0.39607,0.25522 0.64469,0.2704c0.3032,0.24426 0.68077,0.31354 1.01362,0.46585c0.33286,0.15232 0.65394,0.36336 1.01648,0.42382c0.10785,0.0198 0.20393,0.09829 0.29395,0.15127c-0.06542,0.15839 -0.209,0.20504 -0.28654,0.31253c-0.67467,-0.28806 -1.32831,-0.54186 -1.97299,-0.81227c-0.71362,-0.28914 -1.40332,-0.58603 -2.10801,-0.89175c-0.6597,-0.27925 -1.32833,-0.54184 -1.99694,-0.80447c-0.82756,-0.33438 -1.64906,-0.64329 -2.46164,-0.96882c-0.61471,-0.25272 -1.22938,-0.50548 -1.853,-0.74155c-0.95651,-0.38843 -1.89229,-0.85221 -2.86665,-1.2074c-0.12893,-0.05408 -0.27574,-0.07491 -0.38393,-0.2043c0.0804,-0.14955 0.20581,-0.27256 0.31623,-0.40446c0.07466,-0.06542 0.12506,-0.23262 0.27156,-0.32139z" fill="#87d7dc"/><path d="M265.43978,186.18756c0.15762,-0.3666 0.36631,-0.68126 0.5089,-1.05668c0.15444,-0.43413 0.29383,-0.8771 0.34328,-1.37305c0.87003,0.51254 1.72506,1.01622 2.56509,1.51108c0.06675,0.27998 0.01056,0.53133 -0.02164,0.77491c-0.07048,0.4617 -0.24598,0.86152 -0.43041,1.27797c-0.00895,0.01665 -0.04179,0.04099 -0.06574,0.04881c-0.00959,-0.20256 -0.15639,-0.22339 -0.29429,-0.26086c-0.3447,-0.09366 -0.68043,-0.20392 -0.9715,-0.3973c-0.06,-0.03537 -0.12001,-0.07068 -0.18894,-0.08939c-0.33864,-0.06821 -0.62968,-0.26156 -0.94152,-0.37961c-0.18286,-0.06402 -0.32072,-0.10138 -0.50328,-0.0558z" fill="#61afb4"/><path d="M249.15241,179.63382c0.40269,-0.52851 0.70039,-1.11888 1.05808,-1.67394c0.15795,-0.25699 0.27089,-0.54056 0.38385,-0.82408c0.23806,-0.51615 0.54499,-1.01354 0.72299,-1.56506c0.07724,-0.21706 0.15445,-0.43412 0.20773,-0.6434c0.03256,-0.13399 0.08006,-0.25913 0.14262,-0.37546c0.05392,0.00986 0.09286,0.01096 0.12288,0.02866c0.11999,0.07071 0.24001,0.14136 0.36002,0.21205c0.00035,0.10959 -0.00544,0.19372 -0.02008,0.29447c-0.14162,0.70417 -0.29218,1.42505 -0.64064,2.07309c-0.28876,0.5738 -0.58644,1.16413 -0.93521,1.7026c-0.27123,0.43098 -0.52746,0.87074 -0.90974,1.21439c0.01465,-0.10076 0.11327,-0.17394 0.059,-0.29339c-0.14713,-0.13044 -0.31535,-0.29517 -0.55149,-0.14987z" fill="#61aeb3"/><path d="M250.37185,179.82713c0.12189,-0.30015 0.35484,-0.51296 0.52172,-0.78658c0.33664,-0.58936 0.6733,-1.17865 0.96491,-1.79449c0.2291,-0.49951 0.38924,-1.01782 0.51048,-1.53713c0.03256,-0.13399 0.06506,-0.26795 0.0976,-0.40195c0.21001,0.12371 0.39004,0.22974 0.58504,0.34464c0.0728,0.30542 0.01375,0.59887 -0.08415,0.89123c-0.10973,0.35107 -0.22843,0.71869 -0.39212,1.05984c-0.34207,0.78303 -0.76517,1.49648 -1.18221,2.23537c-0.07146,0.13291 -0.14296,0.26586 -0.2805,0.33799c-0.07501,-0.0442 -0.14109,-0.10496 -0.21894,-0.10708c-0.18573,-0.02192 -0.35684,-0.14457 -0.52182,-0.24176z" fill="#61aeb3"/><path d="M265.43977,186.18758c0.15864,-0.03784 0.30541,-0.01698 0.46436,0.05477c0.31179,0.11804 0.60289,0.31143 0.9415,0.37961c0.06895,0.01875 0.12897,0.05407 0.18897,0.08944c0.31504,0.18557 0.63574,0.287 0.97149,0.39728c0.12288,0.02865 0.28468,0.0583 0.29427,0.26088c-0.11903,0.25807 -0.27408,0.47302 -0.46522,0.64484c-0.23684,-0.07387 -0.48257,-0.13114 -0.6747,-0.28806c-0.02999,-0.01767 -0.08392,-0.02758 -0.11393,-0.04525c-0.3268,-0.12688 -0.66863,-0.26261 -0.98651,-0.40612c-0.14394,-0.06291 -0.26394,-0.13363 -0.41681,-0.17994c-0.1918,-0.04739 -0.38077,-0.1368 -0.50109,-0.31708c0.02968,-0.0919 0.06539,-0.15837 0.08616,-0.23365c0.06255,-0.11629 0.14902,-0.24042 0.21152,-0.3567z" fill="#87d7dc"/><path d="M242.09449,174.90708c0.31723,-0.07569 0.60186,-0.01739 0.87766,0.05756c0.06894,0.01873 0.15894,0.07178 0.21001,0.12372c0.36354,0.38918 0.76281,0.71195 1.17101,1.01805c0.015,0.00885 0.03606,0.04311 0.04216,0.06858c0.00925,0.09298 -0.03538,0.17607 -0.12505,0.23263c-0.03,-0.01767 -0.06896,-0.01871 -0.09895,-0.03639c-0.35103,-0.22872 -0.72895,-0.40757 -1.13649,-0.49451c-0.20681,-0.05621 -0.37184,-0.15343 -0.50717,-0.34254c-0.14138,-0.21457 -0.3096,-0.37928 -0.43315,-0.62712z" fill="#cce5e6"/><path d="M243.82347,177.23837c-0.00859,0.12619 -0.05933,0.18382 -0.13113,0.20716c-0.73789,-0.39096 -0.73789,-0.39094 -1.51084,-0.49624c-0.23716,-0.18347 -0.4296,-0.44998 -0.62492,-0.67447c0.03254,-0.13399 0.13146,-0.09755 0.19434,-0.10428c0.22754,-0.01911 0.4401,-0.04704 0.66478,-0.02405c0.14684,0.02085 0.26074,0.06613 0.36285,0.17002c0.32143,0.32064 0.66675,0.63344 1.04494,0.9219z" fill="#cce5e6"/><path d="M265.2193,186.56087c-0.02076,0.0753 -0.05649,0.1418 -0.08615,0.23366c0.12032,0.18028 0.30926,0.2697 0.5011,0.31707c0.15289,0.04629 0.27287,0.11698 0.41683,0.17994c0.31789,0.14351 0.65969,0.27923 0.98651,0.40612c0.02999,0.01767 0.08395,0.02758 0.11393,0.04527c0.21607,0.14916 0.4468,0.1976 0.67467,0.28807c-0.10145,0.11525 -0.19403,0.2139 -0.35551,0.29379c-0.4468,-0.19759 -0.92655,-0.37078 -1.37942,-0.5938c-0.4468,-0.19759 -0.92935,-0.32872 -1.37939,-0.59382c0.15794,-0.25699 0.32515,-0.42105 0.50734,-0.57628z" fill="#60adb2"/><path d="M247.50633,174.02581c0.02074,-0.0753 0.03256,-0.134 0.05328,-0.20929c0.04788,-0.01557 0.0718,-0.02331 0.09572,-0.0311c0.29074,0.08375 0.59331,0.10883 0.90475,0.11731c0.13181,0.01202 0.23078,0.04843 0.30895,0.16013c0.16534,0.20681 0.36354,0.38916 0.4274,0.71123c-0.30221,0.08448 -0.60477,0.05943 -0.89837,0.01772c-0.05392,-0.00986 -0.11999,-0.07073 -0.17106,-0.12264c-0.24319,-0.20886 -0.48645,-0.41785 -0.72071,-0.64338z" fill="#cce5e6"/><path d="M243.8363,171.55745c0.18572,0.02188 0.30255,0.0251 0.43437,0.03712c0.2397,0.03181 0.42861,0.12122 0.58502,0.34462c0.27957,0.36162 0.60105,0.68223 0.97603,0.90316c0.11999,0.07071 0.12605,0.09615 0.00387,0.28672c-0.04501,-0.02652 -0.09895,-0.03638 -0.14396,-0.06293c-0.36607,-0.23754 -0.75287,-0.39978 -1.16649,-0.51217c-0.09894,-0.03643 -0.18287,-0.06398 -0.24004,-0.14137c-0.15356,-0.26548 -0.32493,-0.49774 -0.44877,-0.85514z" fill="#cae2e3"/><path d="M244.89273,175.28658c-0.02391,0.00776 -0.06291,0.00673 -0.07788,-0.00212c-0.32712,-0.23645 -0.69287,-0.36442 -1.05258,-0.46695c-0.33572,-0.11025 -0.62078,-0.27818 -0.8164,-0.61224c-0.09032,-0.16262 -0.24641,-0.2764 -0.30385,-0.46345c0.45795,-0.0803 0.8537,0.06536 1.12117,0.37607c0.33354,0.37153 0.64314,0.75081 1.08711,0.99048c0.03609,0.04313 0.09606,0.0785 0.04247,0.17818z" fill="#c9e1e2"/><path d="M243.22593,172.72934c0.32935,-0.02477 0.57508,0.03248 0.83581,0.09858c0.08393,0.02759 0.15893,0.07176 0.20108,0.14035c0.33962,0.39699 0.71207,0.76954 1.1024,1.10889c0.03,0.01767 0.06607,0.06077 0.00639,0.13503c-0.10498,-0.06186 -0.22499,-0.13255 -0.33895,-0.1778c-0.30893,-0.16012 -0.6268,-0.30362 -0.96543,-0.37181c-0.24576,-0.05722 -0.43181,-0.18875 -0.54927,-0.41111c-0.09032,-0.16262 -0.16569,-0.31637 -0.29208,-0.52212z" fill="#c9e1e2"/><path d="M247.91919,172.89067c-0.02136,-0.1439 0.02329,-0.22698 0.06795,-0.31004c0.02391,-0.00777 0.06288,-0.00674 0.08679,-0.01448c0.25788,0.10816 0.53651,0.14102 0.8119,0.10634c0.16467,-0.01237 0.2936,0.0417 0.40181,0.1711c0.12927,0.16365 0.28249,0.31954 0.3789,0.50761c-0.23327,0.10324 -0.58945,0.17788 -0.72733,0.14039c-0.09286,-0.01092 -0.13502,-0.07951 -0.20106,-0.14035c-0.26393,-0.13362 -0.49823,-0.35914 -0.81893,-0.46058z" fill="#cae3e4"/><path d="M245.85374,179.15639c-0.15067,-0.30752 -0.3281,-0.56526 -0.52953,-0.81519c0.0236,-0.11732 0.05935,-0.18385 0.14902,-0.24042c0.31466,0.07597 0.61179,0.29482 0.93541,0.35417c0.12033,0.1803 0.13886,0.36623 0.19636,0.55322c0.02426,0.10178 0.07245,0.19579 0.02491,0.32096c-0.26648,0.01805 -0.49755,-0.13996 -0.77616,-0.17282z" fill="#c8e0e1"/><path d="M246.57821,176.08258c0.09539,-0.14069 0.16434,-0.12197 0.23327,-0.10324c0.26077,0.06609 0.50647,0.12334 0.75829,0.20604c0.06895,0.01873 0.12895,0.05407 0.1711,0.12266c0.10244,0.2135 0.19597,0.44364 0.2656,0.68154c-0.13466,0.03003 -0.23362,-0.00637 -0.35043,-0.00955c-0.3504,-0.00955 -0.61435,-0.14312 -0.73824,-0.50051c-0.06639,-0.17042 -0.19853,-0.29201 -0.33962,-0.39697z" fill="#cbe4e5"/><path d="M246.01534,177.12936c0.04463,-0.08309 0.07145,-0.13293 0.09825,-0.18278c0.03894,0.00107 0.07182,-0.0233 0.0868,-0.01448c0.18285,0.06402 0.35684,0.14455 0.5397,0.20853c0.09894,0.03644 0.165,0.09723 0.21319,0.19125c0.14461,0.28207 0.26526,0.57198 0.35913,0.9117c-0.19754,0.0368 -0.34148,-0.02614 -0.48541,-0.08905c-0.05997,-0.03536 -0.11999,-0.07072 -0.14713,-0.1304c-0.12387,-0.35739 -0.37027,-0.63385 -0.66453,-0.89473z" fill="#c8e0e1"/><path d="M250.37183,179.82712c0.165,0.09722 0.33609,0.21989 0.54579,0.23399c0.07787,0.00212 0.14391,0.06294 0.21892,0.10711c-0.13689,0.29129 -0.32483,0.53064 -0.56386,0.718c-0.19214,-0.15696 -0.43786,-0.2142 -0.63574,-0.287c-0.01248,-0.16048 0.09509,-0.25029 0.11866,-0.36764c0.06542,-0.15839 0.16977,-0.31571 0.31622,-0.40446z" fill="#85d5d9"/><path d="M245.25035,170.72769c0.18034,0.21563 0.36069,0.43124 0.56494,0.63912c0.18321,0.17357 0.49469,0.18203 0.58565,0.56384c-0.51,-0.30042 -1.02259,-0.44925 -1.53513,-0.59805c-0.12033,-0.1803 -0.24674,-0.38602 -0.29237,-0.63172c0.04788,-0.01557 0.07182,-0.02333 0.09572,-0.03111c0.19466,0.00528 0.38044,0.02718 0.58113,0.05792z" fill="#c6dede"/><path d="M241.60937,174.92764c0.19248,0.26656 0.36386,0.49876 0.55635,0.76532c-0.16147,0.07988 -0.3083,0.05906 -0.44295,0.08912c-0.14966,0.02124 -0.30224,0.0845 -0.46402,0.05482c-0.10498,-0.06186 -0.15928,-0.18134 -0.22248,-0.28418c-0.06321,-0.10285 -0.11744,-0.22237 -0.1628,-0.35846c0.21508,-0.17959 0.46657,-0.20645 0.73593,-0.26658z" fill="#cae3e3"/><path d="M243.28169,178.31943c-0.51256,-0.14879 -0.95013,-0.25339 -1.42625,-0.24946c-0.15928,-0.18137 -0.32746,-0.34608 -0.50173,-0.53626c0.23614,-0.14532 0.46084,-0.12237 0.68833,-0.14145c0.03894,0.00107 0.08394,0.0276 0.11393,0.04527c0.34819,0.27076 0.69643,0.54153 1.12569,0.88191z" fill="#cae3e4"/><path d="M248.59609,175.89295c-0.32934,0.02477 -0.62583,0.02516 -0.84542,-0.30113c-0.15641,-0.22342 -0.37249,-0.37259 -0.58855,-0.52175c-0.09001,-0.05303 -0.06036,-0.14493 0.02326,-0.22698c0.22214,0.17459 0.49184,0.2241 0.76152,0.27357c0.20073,0.03073 0.31787,0.14349 0.40821,0.30611c0.08426,0.13716 0.20139,0.24996 0.24098,0.4702z" fill="#c8e0e1"/><path d="M249.15239,179.63381c0.25116,-0.13648 0.40433,0.01944 0.57541,0.14209c0.05426,0.11946 -0.02932,0.2015 -0.05898,0.29339c-0.13114,0.20716 -0.29837,0.37118 -0.4956,0.51759c-0.15607,-0.11381 -0.3568,-0.14458 -0.46215,-0.316c0.02969,-0.09192 0.05649,-0.14177 0.09221,-0.20822c0.11934,-0.14851 0.23865,-0.29699 0.34909,-0.42884z" fill="#85d4d9"/><path d="M247.3816,177.34344c0.2786,0.03286 0.50936,0.08127 0.74905,0.11306c0.08459,0.24676 0.14526,0.50125 0.16696,0.75475c-0.09255,0.09866 -0.20041,0.07883 -0.28719,0.09334c-0.0868,0.0145 -0.17359,0.029 -0.26966,-0.04949c-0.1085,-0.23899 -0.22025,-0.54543 -0.35913,-0.91169z" fill="#c7dfe0"/><path d="M249.5193,175.16787c0.08747,0.2047 0.18383,0.39274 0.22952,0.63844c-0.24221,0.11987 -0.46687,0.09689 -0.72442,0.09831c-0.11746,-0.22235 -0.23495,-0.44469 -0.36741,-0.67591c0.29935,-0.04243 0.55695,-0.04386 0.86231,-0.06085z" fill="#c8e0e1"/><path d="M241.55819,173.84726c0.1915,-0.06221 0.38295,-0.12444 0.59264,-0.11032c0.15641,0.22342 0.30387,0.46344 0.46632,0.7123c-0.01785,0.0332 -0.03574,0.06643 -0.05074,0.0576c-0.18861,0.02016 -0.3922,0.03148 -0.57188,0.03504c-0.07788,-0.00213 -0.14684,-0.02083 -0.17395,-0.08056c-0.1264,-0.20574 -0.2796,-0.36164 -0.26241,-0.61407z" fill="#c4dcdd"/><path d="M243.39018,171.579c0.12353,0.2478 0.25598,0.479 0.37953,0.72683c-0.11647,0.10638 -0.23647,0.03569 -0.35328,0.03251c-0.11678,-0.00317 -0.23969,-0.03179 -0.37148,-0.0438c-0.13531,-0.18912 -0.16592,-0.42598 -0.2445,-0.64731c0.20325,-0.12089 0.38903,-0.099 0.58975,-0.06823z" fill="#c8e0e1"/><path d="M249.69442,174.65854c-0.14745,-0.24005 -0.28887,-0.45464 -0.45132,-0.7035c0.20933,-0.09547 0.41903,-0.0813 0.61946,-0.16017c0.17425,0.1902 0.21993,0.43588 0.32843,0.67485c-0.17934,0.11314 -0.32581,0.20188 -0.49654,0.18878z" fill="#c6ddde"/><path d="M248.23312,171.71912c0.34437,-0.01593 0.67404,0.06886 1.01519,-0.01457c0.15321,0.15588 0.30034,0.28635 0.40281,0.49986c-0.21221,0.13751 -0.40978,0.17432 -0.61689,0.00853c-0.24319,-0.20889 -0.53108,-0.33473 -0.80111,-0.49381z" fill="#b9cfd0"/><path d="M242.57136,179.12617c-0.0986,0.07317 -0.14683,-0.02081 -0.21572,-0.03957c-0.15288,-0.04631 -0.29678,-0.10919 -0.44044,-0.06254c-0.23648,0.03571 -0.39255,-0.07805 -0.55469,-0.21737c-0.06607,-0.06083 -0.12323,-0.13822 -0.21035,-0.23331c0.28115,-0.11882 0.52052,-0.19657 0.76978,0.03776c0.16822,0.16472 0.38715,0.27184 0.57322,0.40333c0.04498,0.02654 0.09001,0.05303 0.07819,0.11171z" fill="#c0d8d8"/><path d="M245.80279,180.13273c-0.1797,0.00354 -0.31754,-0.03393 -0.43754,-0.1046c-0.05997,-0.03536 -0.13503,-0.07951 -0.16215,-0.13925c-0.11459,-0.26444 -0.271,-0.48783 -0.4274,-0.71125c0.06256,-0.11628 0.11359,-0.06433 0.15863,-0.03783c0.15002,0.08837 0.31503,0.18557 0.4829,0.2407c0.21287,0.08166 0.32108,0.21104 0.33675,0.43905c0.00034,0.10959 0.01854,0.18596 0.04886,0.31319z" fill="#c1d9d9"/><path d="M248.77708,176.32782c0.11139,0.19686 0.15991,0.40053 0.23845,0.62181c-0.18827,0.12975 -0.38005,0.08235 -0.5687,0.10255c-0.13247,-0.2312 -0.16921,-0.49347 -0.24485,-0.75686c0.21255,-0.02793 0.38938,0.01059 0.57513,0.03247z" fill="#c3dbdc"/><path d="M243.12002,173.36717c-0.26363,-0.024 -0.50332,-0.05585 -0.75192,-0.07102c-0.09931,-0.14599 -0.18352,-0.28316 -0.19315,-0.48571c0.20043,-0.07885 0.39508,-0.07354 0.59872,-0.08491c0.15927,0.18137 0.27066,0.37821 0.34633,0.64159z" fill="#c3dadb"/><path d="M248.67195,178.21309c-0.04565,-0.2457 -0.08525,-0.46592 -0.12484,-0.68614c0.19434,-0.1043 0.38902,-0.099 0.58367,-0.09372c0.07247,0.19583 0.10601,0.3906 0.10664,0.60976c-0.05682,0.03216 -0.13756,0.07211 -0.18539,0.08768c-0.13467,0.03006 -0.23647,0.03572 -0.38011,0.08238z" fill="#c4dbdc"/><path d="M244.23578,179.88784c0.28502,0.16792 0.51004,0.3005 0.75005,0.44182c0.06035,0.14496 0.08172,0.28884 0.04631,0.46484c-0.1286,0.05549 -0.21574,-0.03958 -0.32361,-0.05939c-0.10786,-0.01978 -0.20681,-0.05621 -0.28182,-0.10036c-0.0607,-0.25456 -0.10921,-0.45818 -0.19092,-0.74697z" fill="#c2d9da"/><path d="M240.7046,174.81025c-0.08426,-0.13716 -0.12963,-0.27323 -0.136,-0.4083c0.05648,-0.14174 0.18226,-0.15519 0.27188,-0.21175c0.08963,-0.05657 0.15826,-0.14742 0.29006,-0.1354c0.13215,0.1216 0.2046,0.31744 0.30711,0.53096c-0.1197,0.03892 -0.23938,0.07782 -0.34405,0.12552c-0.13466,0.03003 -0.26933,0.06012 -0.38903,0.09901z" fill="#c5ddde"/><path d="M249.86088,176.22237c0.10535,0.17147 0.07888,0.33091 0.11528,0.4836c-0.17328,0.13858 -0.37083,0.17536 -0.59231,0.21995c-0.05748,-0.18699 -0.11493,-0.37402 -0.18133,-0.54444c0.21221,-0.13751 0.43691,-0.11456 0.65836,-0.15911z" fill="#c3dbdc"/><path d="M241.6546,177.01085c-0.08075,0.03998 -0.12858,0.05554 -0.17643,0.07111c-0.11073,0.02227 -0.23649,0.03571 -0.37116,0.06577c-0.14745,-0.24005 -0.32174,-0.43021 -0.38846,-0.71019c0.09256,-0.09866 0.19434,-0.10431 0.33509,-0.1089c0.18927,0.19902 0.3996,0.43233 0.60103,0.68222z" fill="#c7dfe0"/><path d="M247.49056,178.72044c0.03066,0.23684 0.12704,0.42489 0.10377,0.65185c-0.17043,0.0965 -0.34434,0.01594 -0.49688,0.07923c-0.11459,-0.26445 -0.14529,-0.50126 -0.20593,-0.7558c0.22437,-0.08664 0.38934,0.01058 0.59904,0.02469z" fill="#c7dee0"/><path d="M250.04065,180.22265c-0.0236,0.11736 -0.13117,0.20713 -0.11867,0.36765c0.21287,0.08166 0.44967,0.15553 0.63574,0.28701c-0.05075,0.05764 -0.11042,0.13186 -0.17613,0.18067c-0.0986,0.07317 -0.20934,0.09544 -0.31438,0.0336c-0.18893,-0.08941 -0.36287,-0.16998 -0.55182,-0.25945c0.11614,-0.21601 0.18476,-0.30687 0.52525,-0.6095z" fill="#61acb1"/><path d="M244.13588,170.59625c0.08747,0.2047 0.15384,0.37503 0.23238,0.59636c-0.24862,-0.01518 -0.48219,-0.02152 -0.72188,-0.05331c-0.07534,-0.15374 -0.13566,-0.29872 -0.16314,-0.46804c0.22436,-0.08663 0.41901,-0.08134 0.65262,-0.075z" fill="#c2dada"/><path d="M246.17747,180.2441c-0.08747,-0.2047 -0.106,-0.39063 -0.14557,-0.61089c0.24576,0.05723 0.4615,0.09683 0.67726,0.13643c0.0993,0.14598 0.08174,0.28882 0.08525,0.46592c-0.18539,0.08768 -0.37726,0.04034 -0.61688,0.00854z" fill="#c1d9d9"/><path d="M242.63161,172.29179c-0.23042,0.06116 -0.40402,0.09015 -0.58659,0.13576c-0.12321,-0.13822 -0.15673,-0.333 -0.19024,-0.5278c0.15541,-0.10533 0.31688,-0.18524 0.5205,-0.19657c0.15321,0.15588 0.13885,0.36626 0.25634,0.58859z" fill="#c6dedf"/><path d="M250.32701,174.87797c0.07246,0.19583 0.12098,0.39948 0.17846,0.58647c-0.09539,0.14069 -0.20901,0.20505 -0.36765,0.2429c-0.15927,-0.18137 -0.16594,-0.42597 -0.26844,-0.6395c0.1404,-0.11423 0.29007,-0.13539 0.45763,-0.18987z" fill="#c0d7d7"/><path d="M240.97363,177.61601c0.12927,0.16366 0.30033,0.28634 0.36996,0.52424c-0.15863,0.03784 -0.30226,0.08449 -0.44584,0.13117c-0.17997,-0.10604 -0.28531,-0.27749 -0.33383,-0.4811c0.11648,-0.10639 0.23613,-0.14529 0.40973,-0.17432z" fill="#c3dadb"/><path d="M248.81223,180.04606c-0.03574,0.06647 -0.05647,0.14178 -0.0922,0.20826c0.10535,0.17147 0.30603,0.20221 0.46213,0.316c-0.04754,0.12514 -0.17329,0.13859 -0.25082,0.24606c-0.23074,-0.04843 -0.38396,-0.20428 -0.64149,-0.20285c0.07435,-0.17498 0.17292,-0.24816 0.2805,-0.33801c0.07465,-0.06543 0.10724,-0.19939 0.24188,-0.22943z" fill="#5aa0a4"/><path d="M249.97209,171.38693c0.12926,0.16365 0.30035,0.28637 0.36388,0.4988c-0.09256,0.09866 -0.1883,0.12976 -0.33187,0.17646c-0.14715,-0.13045 -0.27642,-0.2941 -0.35784,-0.47333c0.09256,-0.09866 0.1733,-0.13859 0.32582,-0.20187z" fill="#bdd3d4"/><path d="M249.58719,177.83331c-0.02746,-0.16934 -0.06383,-0.32206 -0.10025,-0.47474c0.15543,-0.10534 0.31404,-0.14319 0.48763,-0.1722c0.09318,0.12054 0.06069,0.25456 -0.00185,0.37084c-0.08039,0.14955 -0.16079,0.29907 -0.3855,0.27613z" fill="#bdd4d5"/><path d="M245.68526,169.95558c0.13531,0.18912 0.25567,0.36942 0.391,0.5585c-0.40434,-0.0194 -0.73401,-0.10426 -0.81034,-0.58678c0.1286,-0.05549 0.25755,-0.00141 0.41933,0.02827z" fill="#bbd2d3"/><path d="M248.41133,179.17533c-0.13147,0.09756 -0.25723,0.11101 -0.38297,0.12442c-0.105,-0.06186 -0.09033,-0.16263 -0.11458,-0.26444c-0.01819,-0.07635 -0.05139,-0.16152 -0.01277,-0.27006c0.13147,-0.09756 0.28147,-0.00923 0.42794,-0.09797c0.08142,0.17923 0.09389,0.33971 0.08243,0.50797z" fill="#c3dadb"/><path d="M245.03819,174.86911c-0.25212,-0.19234 -0.50427,-0.38459 -0.72067,-0.64336c0.06861,-0.09083 0.15258,-0.06331 0.22755,-0.01909c0.20392,0.09828 0.3989,0.21311 0.57893,0.31916c0.135,0.07952 0.11142,0.19692 -0.0858,0.34325z" fill="#b1c6c7"/><path d="M250.86624,173.94855c-0.10214,-0.10389 -0.09354,-0.23012 -0.1328,-0.34077c-0.08747,-0.2047 -0.02205,-0.36307 0.16018,-0.51829c0.1564,0.22341 0.18418,0.50235 0.21486,0.73918c-0.07754,0.10747 -0.13436,0.13966 -0.24222,0.11987z" fill="#bbd2d3"/><path d="M246.08537,172.55423c-0.32076,-0.10144 -0.51319,-0.36795 -0.72962,-0.62672c0.26363,0.024 0.48862,0.15659 0.70756,0.26367c0.14395,0.06291 0.14717,0.13046 0.02205,0.36306z" fill="#bad1d2"/><path d="M248.93168,170.97097c0.18255,-0.0456 0.3351,-0.10889 0.51762,-0.15451c0.06608,0.06081 0.14427,0.17251 0.2314,0.2676c-0.23583,0.25491 -0.25082,0.24607 -0.43691,0.11457c-0.10498,-0.06187 -0.20108,-0.14035 -0.31214,-0.22764z" fill="#b5cbcc"/><path d="M241.07458,172.35897c0.13435,-0.13962 0.26295,-0.19519 0.39155,-0.25066c0.10822,0.12939 0.0967,0.29766 0.1242,0.46697c-0.13752,0.07217 -0.26613,0.1276 -0.40368,0.19974c-0.12607,-0.09613 -0.07569,-0.26334 -0.11208,-0.4161z" fill="#c0d7d8"/><path d="M249.5717,172.68272c0.08362,-0.08199 0.19434,-0.10433 0.3201,-0.11778c0.16819,0.16474 0.27069,0.37823 0.32527,0.60733c-0.04754,0.12514 -0.1104,0.13186 -0.20325,0.1209c-0.15035,-0.19793 -0.30069,-0.39592 -0.44208,-0.6105z" fill="#bdd4d4"/><path d="M243.98811,170.2466c-0.18861,0.02016 -0.38326,0.01487 -0.57189,0.03503c-0.03925,-0.11066 -0.0246,-0.21141 0.02898,-0.31109c0.08361,-0.08199 0.17645,-0.07109 0.27824,-0.07674c0.07788,0.00213 0.15574,0.00422 0.23362,0.00634c0.06322,0.10288 0.08747,0.2047 0.03099,0.34648z" fill="#b6cccc"/><path d="M241.92805,173.34313c-0.18255,0.04559 -0.34115,0.08345 -0.53266,0.14568c-0.08107,-0.06962 -0.1443,-0.17252 -0.10888,-0.34857c0.13753,-0.07217 0.29006,-0.13541 0.45154,-0.21531c0.08426,0.13716 0.16249,0.24886 0.18994,0.41821z" fill="#c1d9d9"/><path d="M244.81044,169.856c0.08425,0.13716 0.13855,0.25666 0.15098,0.41714c-0.18255,0.0456 -0.35043,-0.00956 -0.49722,-0.03039c-0.10213,-0.10389 -0.07853,-0.22129 -0.07887,-0.33088c0.04181,-0.04101 0.05968,-0.07423 0.07466,-0.06543c0.11678,0.00321 0.23359,0.00636 0.35044,0.00956z" fill="#b7cdce"/><path d="M246.57407,169.73523c-0.23649,0.0357 -0.37149,-0.04381 -0.52437,-0.09011c-0.17683,-0.03851 -0.18321,-0.17356 -0.19569,-0.33404c0.18255,-0.0456 0.33541,0.00069 0.49116,0.00493c0.13213,0.1216 0.08781,0.31428 0.22888,0.41925z" fill="#b6cccc"/><path d="M250.55554,172.21213c0.07534,0.15376 0.1296,0.27323 0.19888,0.40156c-0.06542,0.15839 -0.11903,0.25808 -0.25655,0.3302c-0.08141,-0.17924 -0.17174,-0.34185 -0.24707,-0.4956c0.03538,-0.17604 0.16114,-0.18946 0.22973,-0.28035c0.03,0.01767 0.06897,0.01873 0.07503,0.04418z" fill="#c2dada"/><path d="M240.87998,173.38206c0.07817,0.11171 0.0964,0.18805 0.08175,0.28882c-0.03862,0.10855 -0.13434,0.13963 -0.22402,0.19622c-0.08074,0.03997 -0.15826,0.14744 -0.2722,0.10219c-0.04531,-0.13609 -0.06672,-0.27996 -0.01631,-0.4472c0.15255,-0.0633 0.28722,-0.09335 0.43084,-0.14003z" fill="#bbd2d3"/><path d="M247.17477,180.26277c-0.01246,-0.16048 -0.0278,-0.27893 -0.03421,-0.41396c0.16756,-0.05447 0.32329,-0.0502 0.488,-0.0626c0.05426,0.11946 0.06962,0.23794 0.00703,0.35421c-0.03287,0.02442 -0.06573,0.04876 -0.10468,0.04774c-0.09572,0.03111 -0.20652,0.05339 -0.35617,0.07462z" fill="#bbd2d3"/><path d="M249.15786,170.51357c-0.27223,0.10219 -0.27223,0.1022 -0.57188,0.03503c-0.07533,-0.15377 -0.01884,-0.29554 0.01657,-0.47158c0.23683,0.07388 0.38715,0.27182 0.55534,0.43656z" fill="#adc2c3"/><path d="M248.77324,179.01657c-0.05426,-0.11946 -0.06064,-0.25456 -0.01311,-0.37968c0.16756,-0.05447 0.31112,-0.10116 0.46973,-0.13894c-0.00186,0.37084 -0.01077,0.38746 -0.45661,0.51866z" fill="#b5cbcc"/><path d="M243.08213,170.71932c0.06035,0.14495 0.09958,0.2556 0.11204,0.4161c-0.14644,0.08872 -0.30829,0.05904 -0.48191,0.08805c-0.02713,-0.05974 -0.03924,-0.11063 -0.0514,-0.16154c-0.01214,-0.05092 -0.00036,-0.10958 -0.00355,-0.17713c0.12541,-0.12303 0.26006,-0.15307 0.42478,-0.16548z" fill="#bbd1d2"/><path d="M245.9337,180.84439c-0.19435,0.1043 -0.38329,0.01487 -0.54796,0.02728c-0.06924,-0.12832 -0.02175,-0.2535 -0.02812,-0.38856c0.22753,-0.01912 0.39543,0.03605 0.53361,0.1831c0.04498,0.02652 0.03926,0.11064 0.04246,0.17815z" fill="#b6cccd"/><path d="M240.35052,176.57081c0.13247,0.2312 0.24099,0.47017 0.35845,0.6925c-0.07755,0.10747 -0.15826,0.14743 -0.29901,0.15204c-0.07569,-0.26335 -0.15133,-0.52671 -0.1552,-0.81341c0.04789,-0.01557 0.07181,-0.02333 0.09572,-0.03112z" fill="#acc1c2"/><path d="M244.9761,173.14789c0.22182,0.06503 0.4347,0.14669 0.6118,0.29481c0.06607,0.06083 0.09927,0.14598 0.05461,0.22905c-0.01785,0.03319 -0.08362,0.082 -0.09861,0.07317c-0.23394,-0.11594 -0.39641,-0.36479 -0.56781,-0.59703z" fill="#a7bbbb"/><path d="M242.26223,170.95836c0.07215,0.08626 0.07247,0.19584 0.06385,0.32203c-0.15255,0.0633 -0.3051,0.12657 -0.45764,0.18987c-0.08426,-0.13716 -0.04564,-0.24568 0.01689,-0.36199c0.0986,-0.07317 0.24221,-0.11988 0.37691,-0.1499z" fill="#b7cdcd"/><path d="M250.37122,176.63238c-0.10536,-0.17147 -0.11777,-0.33195 -0.12133,-0.50905c0.11648,-0.10639 0.23009,-0.17076 0.40082,-0.15768c-0.01721,0.25241 -0.13944,0.44297 -0.27949,0.66675z" fill="#b7cece"/><path d="M244.08334,180.97952c-0.24255,0.01028 -0.4018,-0.17107 -0.59649,-0.17633c-0.05426,-0.11946 -0.0035,-0.1771 0.05937,-0.18384c0.16467,-0.01239 0.33543,0.00069 0.4854,0.08906c0.03608,0.04314 0.05105,0.05197 0.05173,0.27115z" fill="#b4cacb"/><path d="M240.81289,175.96809c-0.09859,0.07317 -0.1704,0.09651 -0.26327,0.08559c-0.08747,-0.2047 -0.18993,-0.4182 -0.18486,-0.72151c0.26393,0.13362 0.33352,0.37152 0.44814,0.63594z" fill="#b2c8c9"/><path d="M248.00576,179.74593c0.13753,-0.07217 0.24221,-0.11987 0.35009,-0.10008c0.05106,0.05195 0.0393,0.11066 0.02747,0.16935c-0.0472,0.23471 -0.19691,0.25594 -0.39155,0.25064c0.01465,-0.10076 0.01432,-0.21035 0.01399,-0.31993z" fill="#b5cbcb"/><path d="M246.53399,171.35259c-0.20394,-0.09826 -0.36893,-0.19543 -0.52213,-0.35133c0.02969,-0.0919 0.09253,-0.09864 0.13753,-0.07215c0.11396,0.04526 0.23685,0.07388 0.35076,0.11912c0.11999,0.07071 0.11425,0.15482 0.03382,0.30434z" fill="#91a3a3"/><path d="M242.83897,177.48981c0.24255,-0.01028 0.42862,0.12123 0.60862,0.22729c0.03,0.01767 0.04214,0.06858 0.03925,0.11064c-0.01785,0.0332 -0.07465,0.06542 -0.08967,0.05659c-0.23683,-0.07388 -0.41396,-0.22198 -0.55822,-0.3945z" fill="#99abac"/><path d="M242.92017,178.58774c-0.00253,0.15166 -0.04722,0.23473 -0.1401,0.22378c-0.12288,-0.02865 -0.255,-0.15024 -0.41427,-0.33156c0.21257,-0.02797 0.37753,0.06924 0.55434,0.10779z" fill="#93a5a6"/><path d="M251.05782,174.91465c-0.09351,-0.23013 -0.21101,-0.45248 0.06982,-0.68088c0.10849,0.23899 -0.00763,0.45497 -0.06982,0.68088z" fill="#9aadad"/><path d="M248.20263,173.53902c-0.14683,-0.02085 -0.3086,-0.05053 -0.44043,-0.06256c-0.04818,-0.09404 -0.0364,-0.15272 0.03222,-0.24357c0.17971,-0.00356 0.29397,0.15127 0.43791,0.21419c-0.01787,0.0332 -0.02681,0.04985 -0.02967,0.09194z" fill="#c5dddd"/><path d="M244.0336,175.41494c0.27541,-0.03467 0.47043,0.08025 0.6297,0.26156c0.015,0.00885 0.01214,0.05093 -0.00572,0.08416c-0.01182,0.05868 -0.07465,0.06542 -0.10467,0.04772c-0.17394,-0.08055 -0.32715,-0.23649 -0.5193,-0.39344z" fill="#aec2c3"/><path d="M246.26557,180.66797c0.18255,-0.0456 0.35934,-0.00709 0.52117,0.02262c0.0482,0.09402 -0.00256,0.15168 -0.08041,0.14956c-0.14076,0.0046 -0.26648,0.01801 -0.41327,-0.00285c-0.04789,0.01557 -0.06605,-0.06078 -0.02746,-0.16932z" fill="#9caeaf"/><path d="M241.47374,171.65337c-0.12542,0.12304 -0.239,0.18735 -0.39156,0.25065c0.05614,-0.25135 0.1994,-0.40762 0.30662,-0.607c0.03609,0.04315 0.06607,0.06082 0.0721,0.08625c0.00925,0.09298 0.00353,0.1771 0.01281,0.27006z" fill="#a9bebf"/><path d="M245.69367,177.72754c0.03256,-0.13399 0.08326,-0.19157 0.16406,-0.23155c0.15892,0.07176 0.26711,0.20114 0.3278,0.45568c-0.19789,-0.07281 -0.33287,-0.15236 -0.49183,-0.22409z" fill="#b9cfd0"/><path d="M248.12398,172.28936c-0.04818,-0.09403 -0.02744,-0.16934 -0.00672,-0.24463c0.07467,-0.06541 0.14966,-0.02124 0.48288,0.24072c-0.19721,0.14638 -0.33543,-0.00068 -0.47616,0.00391z" fill="#869797"/><path d="M243.52755,176.42959c0.2132,0.19125 0.50363,0.16542 0.55854,0.50407c-0.26076,-0.06608 -0.43181,-0.18871 -0.55854,-0.50407z" fill="#93a4a5"/><path d="M246.26353,170.05555c0.22499,0.13254 0.375,0.22094 0.52501,0.3093c0.03,0.01767 0.04216,0.06859 0.01532,0.1184c-0.00894,0.01665 -0.04182,0.041 -0.06575,0.04879c-0.19788,-0.07278 -0.36292,-0.17002 -0.47461,-0.47649z" fill="#94a5a6"/><path d="M248.3279,171.35918c-0.00637,-0.13505 0.00538,-0.1937 0.11006,-0.24146c0.12893,0.05408 0.27289,0.11698 0.39609,0.25522c-0.19437,0.10427 -0.34433,0.01591 -0.50613,-0.01375z" fill="#abbfc0"/><path d="M245.53358,169.31924c-0.01466,0.10075 -0.01754,0.14282 -0.03542,0.17607c-0.30829,0.05906 -0.30826,0.05905 -0.49146,-0.11451c0.17935,-0.11314 0.32933,-0.0248 0.52685,-0.06153z" fill="#acc0c1"/><path d="M250.45394,174.27443c-0.06641,-0.17042 -0.15673,-0.33299 -0.21421,-0.51999c-0.01819,-0.07635 0.01758,-0.14283 0.13434,-0.13963c0.08747,0.2047 0.15992,0.40053 0.07984,0.65964z" fill="#9fb2b2"/><path d="M243.0211,170.35517c-0.1047,0.04774 -0.1765,0.07105 -0.26934,0.06011c-0.04216,-0.06858 -0.04534,-0.13609 -0.01567,-0.22802c0.06862,-0.09085 0.17935,-0.11313 0.29008,-0.1354c0.07215,0.08626 0.03353,0.19478 -0.00508,0.30328z" fill="#aec2c3"/><path d="M247.24163,175.62012c-0.14643,0.08872 -0.2515,0.02687 -0.36542,-0.01836c-0.04498,-0.02654 -0.04818,-0.09401 -0.02138,-0.14387c0.01787,-0.0332 0.07467,-0.06543 0.10467,-0.04774c0.11678,0.00317 0.18897,0.08945 0.28214,0.20998z" fill="#91a2a3"/><path d="M240.68619,172.67719c0.15673,0.33301 0.16284,0.35845 -0.16333,0.45075c0.04149,-0.15059 0.02901,-0.3111 0.16333,-0.45075z" fill="#869696"/><path d="M242.40481,179.50936c-0.20043,0.07884 -0.2636,-0.024 -0.35969,-0.1025c0.15542,-0.10533 0.15542,-0.10533 0.35969,0.1025z" fill="#555f5f"/><path d="M247.38159,174.36803c0.07502,0.04418 0.17998,0.10604 0.25821,0.21775c-0.21542,0.07 -0.2754,0.03465 -0.34467,-0.09363c-0.02107,-0.03429 0.00572,-0.08416 0.08649,-0.12408z" fill="#93a5a6"/><path d="M246.75877,169.42843c0.26934,-0.06012 0.29044,-0.02585 0.19244,0.26656c-0.12289,-0.02865 -0.16216,-0.13924 -0.19244,-0.26656z" fill="#8b9b9c"/><path d="M241.69222,179.54899c0.17681,0.03853 0.28785,0.12582 0.39894,0.21318c-0.00859,0.12619 -0.06542,0.15838 -0.12542,0.12301c-0.12,-0.07068 -0.23107,-0.15802 -0.27354,-0.33615z" fill="#9aacad"/><path d="M244.38691,169.43136c0.1286,-0.05549 0.22724,-0.12869 0.3383,-0.04138c0.01501,0.00886 0.02108,0.03429 0.01216,0.05091c-0.11042,0.13187 -0.21831,0.11208 -0.35043,-0.00953z" fill="#5f6a6b"/><path d="M246.52304,176.66271c-0.0868,0.0145 -0.14684,-0.02084 -0.19789,-0.07284c-0.02107,-0.03429 -0.03319,-0.08519 -0.00032,-0.10958c0.03286,-0.02442 0.08074,-0.03998 0.11074,-0.02227c0.05997,0.03536 0.11105,0.08731 0.08746,0.20468z" fill="#636e6f"/><path d="M242.1595,170.63518c0.01756,-0.14282 0.07719,-0.21706 0.23295,-0.21283c-0.01148,0.16825 -0.0922,0.20823 -0.23295,0.21283z" fill="#4a5354"/></g><g data-paper-data="{&quot;index&quot;:null}" fill="#000000" stroke="#000000" stroke-width="1.2"><path d="M258.68393,194.4313c-1.79393,-0.51381 -3.43764,-3.42958 -5.25179,-4.83522c-1.95318,-1.51337 -3.91192,-1.46571 -4.47172,-3.00914c-0.39102,-1.07807 0.40986,-2.44964 0.91753,-3.10486c1.23448,-1.59327 4.92458,-0.80113 8.24206,1.76929c3.31748,2.57042 5.0061,5.94578 3.77161,7.53903c-0.55939,0.72198 -1.7211,2.06666 -3.20766,1.64089z"/><path d="M262.55309,192.96475c-2.49479,-0.73916 -6.56933,-5.14547 -6.56933,-5.14547c0,0 -3.65998,-1.42664 -3.72748,-1.48086c-4.3022,-3.45469 -2.21268,-6.25119 0.21814,-9.38849c1.1569,-1.49314 3.54131,-3.32007 5.53885,-3.07837c2.26545,0.27413 4.07737,2.40524 6.51307,4.29246c4.58335,3.55126 7.01485,8.4596 4.54588,11.64612c-1.08682,1.4027 -3.18708,4.14181 -6.51915,3.15458z"/></g></g></g></g></svg>