<svg version="1.1" xmlns="http://www.w3.org/2000/svg" xmlns:xlink="http://www.w3.org/1999/xlink" width="72.44728" height="141.11558" viewBox="0,0,72.44728,141.11558"><defs><linearGradient x1="230.74679" y1="214.34483" x2="248.46564" y2="214.34483" gradientUnits="userSpaceOnUse" id="color-1"><stop offset="0" stop-color="#2a801c"/><stop offset="1" stop-color="#62f67a"/></linearGradient><linearGradient x1="230.74679" y1="214.34483" x2="248.46564" y2="214.34483" gradientUnits="userSpaceOnUse" id="color-2"><stop offset="0" stop-color="#2a801c"/><stop offset="1" stop-color="#62f67a"/></linearGradient><linearGradient x1="223.79802" y1="198.3914" x2="243.45864" y2="198.3914" gradientUnits="userSpaceOnUse" id="color-3"><stop offset="0" stop-color="#2a801c"/><stop offset="1" stop-color="#62f67a"/></linearGradient><linearGradient x1="223.79802" y1="198.3914" x2="243.45864" y2="198.3914" gradientUnits="userSpaceOnUse" id="color-4"><stop offset="0" stop-color="#2a801c"/><stop offset="1" stop-color="#62f67a"/></linearGradient><linearGradient x1="216.12797" y1="218.06686" x2="234.5664" y2="218.06686" gradientUnits="userSpaceOnUse" id="color-5"><stop offset="0" stop-color="#2a801c"/><stop offset="1" stop-color="#62f67a"/></linearGradient><linearGradient x1="216.12797" y1="218.06686" x2="234.5664" y2="218.06686" gradientUnits="userSpaceOnUse" id="color-6"><stop offset="0" stop-color="#2a801c"/><stop offset="1" stop-color="#62f67a"/></linearGradient><linearGradient x1="198.225" y1="137.51384" x2="252.24753" y2="138.12218" gradientUnits="userSpaceOnUse" id="color-7"><stop offset="0" stop-color="#66ff81" stop-opacity="0"/><stop offset="1" stop-color="#66ff81"/></linearGradient></defs><g transform="translate(-194.70944,-102.91877)"><g data-paper-data="{&quot;isPaintingLayer&quot;:true}" stroke-miterlimit="10" stroke-dasharray="" stroke-dashoffset="0" style="mix-blend-mode: normal"><path d="M233.85906,182.58272l-1.07162,12.96525" fill="none" fill-rule="nonzero" stroke="#66ff81" stroke-width="7" stroke-linecap="round" stroke-linejoin="miter"/><g stroke-width="1.2"><path d="M241.43898,192.68938l4.14453,34.64918c0,0 6.7776,1.97786 5.43561,10.59877c-0.07652,0.49147 -0.50368,2.89345 -3.42851,2.99318c-2.80138,0.09553 -8.06311,-2.08247 -9.98367,-2.89304c-0.89201,-0.37649 -2.18156,-1.45828 -2.89152,-2.98773c-0.7148,-1.53994 -0.35102,-3.47715 -0.20035,-4.57856c0.06136,-0.4486 -2.93197,-35.96356 -2.93197,-35.96356" fill="#44ff00" fill-rule="evenodd" stroke="#44ff00" stroke-linecap="round" stroke-linejoin="round"/><path d="M242.13375,191.93494c0.53951,3.37026 3.43936,22.13192 3.43936,22.13192c0,0 1.68986,6.20623 1.74765,7.88215c0.06655,1.93017 0.25869,3.32802 0.25869,3.32802l-0.79076,-1.66496c0,0 0.51357,1.15224 0.69219,1.81219c0.55647,2.05595 0.98476,3.60947 0.98476,3.60947c0,0 -6.82842,-2.04838 -9.89464,0.13909c-3.06622,2.18747 -2.44307,7.68242 -2.44307,7.68242c0,0 -4.98109,-2.09079 -4.90755,-5.72837c0.01812,-0.89676 1.16628,-3.32963 1.16628,-3.32963c0,0 -0.605,0.02125 -0.54142,-0.58868c0.0151,-0.14491 -1.19771,-31.40021 -1.09191,-32.07987c0,0 11.25628,-3.96947 11.38045,-3.19378z" fill="url(#color-1)" fill-rule="nonzero" stroke="url(#color-2)" stroke-linecap="butt" stroke-linejoin="miter"/></g><g fill-rule="evenodd" stroke-width="1.2" stroke-linecap="round" stroke-linejoin="round"><g fill="#ffab19" stroke="#001026" font-family="&quot;Helvetica Neue&quot;, Helvetica, Arial, sans-serif" font-weight="400" font-size="16" text-anchor="start"/><path d="M229.51618,202.82473c-1.5598,-0.3371 -3.40104,-1.07966 -4.2776,-2.22657c-1.13081,-1.47955 -1.10024,-3.52325 -1.44056,-5.09872c6.4085,1.47872 14.04872,0.23412 19.66062,-2.53509c-0.14474,1.08435 0.21724,5.91734 -2.07917,7.62786c-1.52798,1.13815 -6.26863,2.87172 -7.47712,3.11932c-2.34542,0.48059 -4.03307,-0.81053 -4.38614,-0.88683z" fill="url(#color-3)" stroke="url(#color-4)"/></g><g stroke-width="1.2"><g fill-rule="evenodd" stroke-linecap="round" stroke-linejoin="round"><path d="M233.20556,200.41572c0,0 -3.07939,36.01866 -3.64132,36.13755c-1.61258,0.34115 -10.44965,-2.71383 -10.44965,-2.71383l5.68045,-36.2134" data-paper-data="{&quot;index&quot;:null}" fill="#ffab19" stroke="#001026"/><path d="M234.5664,199.83504c0,0 -0.71935,7.61662 -0.93182,11.65509c-0.20378,3.87351 -0.31804,12.10163 -0.31804,12.10163c0,0 0.86384,5.97877 0.01929,7.45312c-0.39117,0.68288 -0.69939,-3.3755 -0.69939,-3.3755c0,0 0.3441,4.57521 0.37798,4.97848c0.2364,2.81365 -0.84244,6.50855 -3.66947,6.85957c-3.1039,0.3854 -8.24969,0.82069 -10.90239,-1.40535c-1.12868,-0.94715 -2.65754,-3.73525 -2.24605,-6.70529c0.46404,-3.34946 2.95604,-6.85837 2.95604,-6.85837l-2.28984,3.82492c0,0 -0.02387,-1.90984 0.34871,-3.31081c0.41841,-1.57328 2.0403,-5.67206 2.0403,-5.67206l4.91665,-23.06715" data-paper-data="{&quot;index&quot;:null}" fill="url(#color-5)" stroke="url(#color-6)"/></g><path d="M232.60402,236.56288c-0.08407,2.21065 -0.76992,4.77911 -2.25858,6.11284c-1.49417,1.33866 -10.4742,0.80815 -11.86246,-0.82787c-1.31839,-1.55369 -1.85542,-4.42531 -1.77337,-6.58288c0.16847,-4.42949 3.86311,-7.72978 8.25225,-7.37137c4.38911,0.3584 7.81064,4.2398 7.64215,8.66931z" fill="#44ff00" fill-rule="nonzero" stroke="#44ff00" stroke-linecap="butt" stroke-linejoin="miter"/></g><path d="M238.98641,182.79083l15.19896,13.60016" fill="none" fill-rule="nonzero" stroke="#66ff81" stroke-width="7" stroke-linecap="round" stroke-linejoin="miter"/><path d="M216.31179,193.1698l15.32041,-11.87133" fill="none" fill-rule="nonzero" stroke="#66ff81" stroke-width="7" stroke-linecap="round" stroke-linejoin="miter"/><g stroke-linejoin="miter"><g data-paper-data="{&quot;index&quot;:null}" stroke-linecap="butt"><path d="M262.60585,161.73528c-2.78672,13.15918 -16.19395,21.46596 -29.9459,18.5537c-13.75194,-2.91227 -22.641,-15.94072 -19.85426,-29.0999c2.78672,-13.15918 16.19395,-21.46596 29.9459,-18.55369c13.75194,2.91227 22.641,15.94072 19.85426,29.0999z" fill="none" fill-rule="nonzero" stroke="#66ff81" stroke-width="4.5"/><g><g fill-rule="nonzero"><path d="M226.21634,137.95268l-0.00953,-0.01029" data-paper-data="{&quot;index&quot;:null}" fill="#ffab19" stroke="#000000" stroke-width="5"/><g data-paper-data="{&quot;index&quot;:null}" fill="none" stroke="none" stroke-width="1" font-family="sans-serif" font-weight="normal" font-size="12" text-anchor="start"/></g><path d="M226.21634,137.95268l-0.00953,-0.01029" data-paper-data="{&quot;index&quot;:null}" fill="#ffab19" fill-rule="nonzero" stroke="#000000" stroke-width="5"/><path d="M237.16759,157.59829" fill="#001026" fill-rule="evenodd" stroke="#000000" stroke-width="5"/><g data-paper-data="{&quot;index&quot;:null}" fill="none" fill-rule="nonzero" stroke="none" stroke-width="1" font-family="sans-serif" font-weight="normal" font-size="12" text-anchor="start"/><g data-paper-data="{&quot;index&quot;:null}" fill="none" fill-rule="nonzero" stroke="none" stroke-width="1" font-family="sans-serif" font-weight="normal" font-size="12" text-anchor="start"/></g></g><path d="M212.2953,163.56293c0,0 -1.05923,-1.66897 -1.79923,-4.3144c-2.27084,-8.11798 -13.49938,-53.34244 -13.49938,-53.34244l50.54458,28.0918c0,0 -17.32349,-4.46971 -24.20847,0.93451c-2.66395,2.09101 -8.51804,9.68434 -9.96612,14.19785c-2.04318,6.36836 -1.07134,14.43267 -1.07134,14.43267z" fill="url(#color-7)" fill-rule="nonzero" stroke="#66ff81" stroke-width="3" stroke-linecap="round"/><path d="M219.34063,146.71071l21.90571,8.29994l-1.01696,6.16671" fill="none" fill-rule="nonzero" stroke="#66ff81" stroke-width="5" stroke-linecap="round"/><path d="M247.07378,161.92602l1.14028,-6.14638l16.44266,-14.43358" fill="none" fill-rule="nonzero" stroke="#66ff81" stroke-width="5" stroke-linecap="round"/></g><path d="M236.07974,175.94919c0,0.12385 -18.51768,-0.90238 -18.51768,-1.94923c0,-4.26126 7.92752,-9.82737 11.69538,-9.82737c3.76785,0 6.8223,7.51533 6.8223,11.7766z" fill="#ff0000" fill-rule="nonzero" stroke="#66ff81" stroke-width="3" stroke-linecap="butt" stroke-linejoin="miter"/></g></g></svg>