<svg version="1.1" xmlns="http://www.w3.org/2000/svg" xmlns:xlink="http://www.w3.org/1999/xlink" width="69.99259" height="102.04361" viewBox="0,0,69.99259,102.04361"><defs><linearGradient x1="145.35765" y1="203.42103" x2="145.35765" y2="206.19635" gradientUnits="userSpaceOnUse" id="color-1"><stop offset="0" stop-color="#676370"/><stop offset="1" stop-color="#000000"/></linearGradient></defs><g transform="translate(-126.04689,-152.79964)"><g data-paper-data="{&quot;isPaintingLayer&quot;:true}" stroke-miterlimit="10" stroke-dasharray="" stroke-dashoffset="0" style="mix-blend-mode: normal"><g fill="none" fill-rule="nonzero" stroke="none" stroke-width="1" stroke-linecap="butt" stroke-linejoin="miter" font-family="sans-serif" font-weight="normal" font-size="12" text-anchor="start"><g><g data-paper-data="{&quot;index&quot;:null}"/></g><g data-paper-data="{&quot;index&quot;:null}"/><g data-paper-data="{&quot;index&quot;:null}"/></g><g fill="none" fill-rule="nonzero" stroke="none" stroke-width="1" stroke-linecap="butt" stroke-linejoin="miter" font-family="sans-serif" font-weight="normal" font-size="12" text-anchor="start"><g><g/><g><g/></g><g/></g><g/></g><path d="" fill="#2b1900" fill-rule="nonzero" stroke="#150c00" stroke-width="3" stroke-linecap="butt" stroke-linejoin="miter"/><path d="M157.35311,206.54272c0,2.38561 -3.31218,4.31952 -7.39798,4.31952c-2.17665,0 -6.06755,1.62963 -8.46034,0.45831c-2.0987,-1.02737 -2.87352,-4.82333 -2.64548,-5.46557c0.71134,-2.00336 7.93961,-2.89269 10.36285,-2.89269c4.0858,0 8.14095,1.19484 8.14095,3.58044z" fill="#676370" fill-rule="nonzero" stroke="#36343b" stroke-width="1" stroke-linecap="butt" stroke-linejoin="miter"/><path d="M162.84931,202.85694l-1.06193,15.29157" fill="none" fill-rule="nonzero" stroke="#000000" stroke-width="6" stroke-linecap="round" stroke-linejoin="miter"/><path d="M140.9047,221.19928c0,0 5.76974,-7.15327 6.51211,-8.0049c1.34419,-1.54204 15.59125,-9.56379 15.59125,-9.56379c0,0 6.19121,6.74893 8.32695,8.70782c2.01574,1.84881 7.26187,2.73442 7.26187,2.73442" fill="none" fill-rule="nonzero" stroke="#000000" stroke-width="6" stroke-linecap="round" stroke-linejoin="miter"/><g><g><g stroke-width="1.2"><path d="M171.61731,216.89729l3.14668,25.04698c0,0 7.60321,0.39759 7.4224,7.24123c-0.01031,0.39016 -0.11817,2.30575 -3.25916,2.86637c-3.00844,0.53695 -9.00556,-0.26519 -11.19684,-0.56997c-1.01775,-0.14156 -2.56807,-0.75905 -3.55887,-1.81632c-0.99755,-1.06452 -0.8898,-2.61265 -0.88913,-3.48356c0.00027,-0.35472 -2.23857,-28.24576 -2.23857,-28.24576" fill="#220606" fill-rule="evenodd" stroke="#340000" stroke-linecap="round" stroke-linejoin="round"/><path d="M160.85596,223.58464c0.18531,-7.01362 5.94079,-7.135 8.93949,-7.0715c1.30396,0.02761 1.12773,-1.84689 2.28169,3.63874c0.25413,1.20815 0.75356,6.16803 1.82154,10.38967c0.73131,2.89082 2.10304,5.44341 2.35932,6.17676c0.60551,1.73272 0.35642,3.31228 0.35642,3.31228l-1.09789,-1.14796c0,0 0.72345,0.80002 1.01317,1.27737c0.90257,1.48705 1.59299,2.60941 1.59299,2.60941c0,0 -7.66842,-0.44335 -10.65512,1.74423c-2.9867,2.18758 -1.50673,6.30503 -1.50673,6.30503c0,0 -5.68152,-0.78161 -6.13683,-3.58774c-0.11225,-0.69179 0.76895,-2.75043 0.76895,-2.75043c0,0 -0.64964,0.11644 -0.67069,-0.36255c-0.01074,-0.24418 0.85975,-3.86645 1.05316,-7.94131c0.2546,-5.36425 -0.14619,-11.58145 -0.11949,-12.592z" fill="#676370" fill-rule="nonzero" stroke="#36343b" stroke-linecap="butt" stroke-linejoin="miter"/></g><path d="M151.10767,218.60552c-0.01061,-0.20588 1.29046,0.40111 4.23859,0.47126c3.88934,0.09256 9.84577,-0.32151 11.52067,-0.53337c4.34331,-0.54938 5.0783,-2.01164 5.10643,-1.46589c0.10405,2.01959 -2.35266,5.76057 -7.32138,5.96577c-2.18351,0.09017 -6.64959,0.76647 -9.17865,0.05544c-3.22594,-0.90696 -4.30731,-3.36116 -4.36565,-4.49323z" fill="#004fd9" fill-rule="nonzero" stroke="#001026" stroke-width="1.2" stroke-linecap="butt" stroke-linejoin="miter"/><g fill-rule="nonzero" stroke-linecap="butt" stroke-linejoin="miter"><g fill="none" stroke="none" stroke-width="1" font-family="sans-serif" font-weight="normal" font-size="12" text-anchor="start"/><path d="M150.58357,217.29202c0,0 9.33278,1.27136 13.62148,1.25363c4.28868,-0.01772 7.82198,-1.34227 7.82198,-1.34227c0,0 0.03376,1.97688 -1.87884,3.90086c-1.48048,1.48928 -4.32577,3.03208 -8.00338,3.0648c-3.3504,0.02982 -7.08827,-0.60031 -8.9385,-1.89335c-2.80439,-1.95986 -2.62272,-4.9837 -2.62272,-4.9837z" fill="#676370" stroke="#36343b" stroke-width="1.2"/></g><g stroke-width="1.2"><path d="M160.89367,222.3026c0,0 -3.64261,29.13715 -4.30732,29.23333c-1.90754,0.27598 -12.36094,-2.19533 -12.36094,-2.19533l6.71942,-29.29472" data-paper-data="{&quot;index&quot;:null}" fill="#ffab19" fill-rule="evenodd" stroke="#001026" stroke-linecap="round" stroke-linejoin="round"/><path d="M162.50352,221.83283c0,0 -0.85093,6.16142 -1.10226,9.42834c-0.24106,3.13347 -0.37621,9.78958 -0.37621,9.78958c0,0 1.02184,4.8365 0.02281,6.02918c-0.46271,0.55241 -0.82732,-2.73059 -0.82732,-2.73059c0,0 0.40702,3.7011 0.44711,4.02732c0.27962,2.2761 -0.99652,5.26506 -4.34062,5.54903c-3.67161,0.31177 -9.75859,0.6639 -12.89648,-1.13685c-1.33512,-0.76619 -3.14361,-3.02161 -2.65687,-5.42422c0.54892,-2.70953 3.49672,-5.54807 3.49672,-5.54807l-2.70867,3.09415c0,0 -0.02823,-1.54496 0.4125,-2.67827c0.49495,-1.2727 2.41348,-4.58839 2.41348,-4.58839l5.81591,-18.66009" data-paper-data="{&quot;index&quot;:null}" fill="#676370" fill-rule="evenodd" stroke="#36343b" stroke-linecap="round" stroke-linejoin="round"/><path d="M159.1025,249.71933c-0.09203,1.63604 -0.84279,3.53687 -2.47234,4.52391c-1.63559,0.99069 -11.46551,0.59809 -12.98515,-0.61268c-1.44316,-1.14983 -2.03104,-3.27505 -1.9412,-4.8718c0.18441,-3.27813 4.22873,-5.72057 9.03327,-5.45532c4.80451,0.26525 8.54986,3.13774 8.36542,6.41589z" fill="#220606" fill-rule="nonzero" stroke="#340000" stroke-linecap="butt" stroke-linejoin="miter"/></g></g><g fill="none" fill-rule="nonzero" stroke="none" stroke-width="1" stroke-linecap="butt" stroke-linejoin="miter" font-family="sans-serif" font-weight="normal" font-size="12" text-anchor="start"/></g><g fill-rule="nonzero" stroke-linecap="butt" stroke-linejoin="miter"><g data-paper-data="{&quot;index&quot;:null}" stroke="none" stroke-width="1"><path d="M184.05834,203.44107c-0.20934,-0.08146 -0.23963,-0.22176 -0.24247,-0.39202c0.01956,-0.26895 0.09921,-0.52916 0.13889,-0.79518c-0.04896,-0.05809 -0.0979,-0.11619 -0.15056,-0.15781c-1.07138,-0.93741 -1.51437,-2.08907 -1.73078,-3.32666c-0.04432,-0.26125 -0.10868,-0.52547 -0.04901,-0.78856c0.01122,-0.04933 0.00607,-0.11803 -0.02661,-0.15677c-0.17951,-0.213 -0.13106,-0.42678 -0.0989,-0.65993c0.02467,-0.20024 0.08946,-0.39467 0.1342,-0.59199c0.0261,-0.1151 0.09228,-0.22439 0.2312,-0.28912c0.13892,-0.06469 0.22888,-0.18751 0.31508,-0.29386c0.41717,-0.65271 0.96346,-1.23568 1.61884,-1.75179c0.37525,-0.2851 0.7957,-0.49569 1.23621,-0.70332c1.29777,-0.60945 2.70141,-0.86374 4.1694,-0.85388c0.66011,0.01119 1.32163,0.10749 1.96822,0.26957c0.48994,0.1223 0.91374,0.35389 1.31375,0.59897c1.27277,0.77988 2.09009,1.83314 2.55448,3.07288c0.09184,0.23421 0.11614,0.49253 0.1404,0.75087c0.02288,0.17319 0.06951,0.33288 0.24758,0.46075c0.16174,0.1085 0.2084,0.26816 0.21122,0.43842c-0.01956,0.26895 -0.07922,0.53206 -0.13889,0.79517c-0.01864,0.08224 -0.07364,0.14219 -0.12867,0.20212c-0.23259,0.20395 -0.34866,0.44186 -0.42832,0.70208c-0.14678,0.55621 -0.48659,1.05031 -0.80636,1.54733c-0.12494,0.18567 -0.26987,0.3684 -0.45118,0.52887c-0.57519,0.52778 -1.16301,1.01979 -1.90884,1.38685c-0.05591,0.24665 -0.13562,0.50685 -0.19523,0.76997c-0.02237,0.09869 -0.04847,0.21378 -0.18366,0.26203c-0.11513,0.05117 -0.11748,0.15278 -0.13982,0.25143c-0.16914,0.65486 -0.31827,1.31262 -0.48742,1.96748c-0.35185,1.46064 -0.70735,2.93772 -1.09927,4.39251c-0.38447,1.42191 -0.70874,2.85258 -1.05313,4.28032c-0.05218,0.23023 -0.14076,0.43815 -0.19292,0.66836c-0.25348,1.11821 -0.50699,2.23645 -0.78051,3.35175c-0.04473,0.19732 -0.04939,0.40049 -0.21068,0.56385c-0.05501,0.05997 -0.05361,0.14506 -0.07226,0.22729c-0.18636,0.82224 -0.39654,1.65798 -0.58293,2.48021c-0.00746,0.03289 -0.01866,0.08221 -0.0261,0.1151c-0.03958,0.26604 -0.20974,0.37717 -0.51649,0.45141c-1.02788,0.24106 -2.03248,0.19672 -3.01384,-0.13298c-0.24941,-0.08729 -0.49135,-0.20744 -0.70582,-0.35756c-0.16175,-0.1085 -0.21214,-0.25172 -0.19492,-0.41906c0.05172,-0.5021 0.08335,-1.00709 0.13879,-1.52564c0.04192,-0.36764 0.12766,-0.74585 0.10943,-1.12222c-0.04156,-0.82142 0.16113,-1.6243 0.17967,-2.43696c0.02044,-0.45566 -0.00291,-0.90076 0.0376,-1.35353c0.04797,-0.48563 0.05212,-0.96069 0.07629,-1.43278c0.04982,-0.8591 0.14343,-1.72881 0.17316,-2.59082c0.00922,-1.13677 0.0986,-2.26195 0.188,-3.38705c0.02561,-0.387 0.05117,-0.77392 0.07679,-1.16093c0.05399,-0.6037 0.11176,-1.22377 0.16578,-1.82743c0.03445,-0.33474 0.02512,-0.65886 0.05954,-0.99357c0.01815,-0.35413 0.08896,-0.66652 0.13089,-1.03417zM184.61165,203.28381c0.21818,0.1337 0.44382,0.23451 0.70066,0.28891c0.48766,0.22387 1.02143,0.33557 1.55522,0.44724c0.67039,0.14856 1.3757,0.23426 2.061,0.31703c0.78552,0.09737 1.54817,0.02155 2.33464,-0.06778c0.08764,-0.02122 0.17527,-0.04243 0.30672,-0.07426c0.02985,-0.13154 0.05961,-0.26311 0.08944,-0.39465c0.00746,-0.03289 -0.00513,-0.0687 -0.01399,-0.12093c-0.14031,-0.02045 -0.28436,-0.02442 -0.43216,-0.01197c-0.25174,0.01433 -0.47596,-0.00137 -0.72768,0.01294c-0.62373,0.0111 -1.23402,-0.12866 -1.84656,-0.16689c-0.32446,-0.03023 -0.65636,-0.02764 -0.97336,-0.09076c-0.69044,-0.15148 -1.39949,-0.22074 -2.07496,-0.43799c-0.17297,-0.05917 -0.36596,-0.1212 -0.53893,-0.1804c-0.05781,-0.11036 -0.22565,-0.10078 -0.31843,-0.14829c-0.10907,-0.06685 -0.2182,-0.1337 -0.4424,-0.14933c0.09184,0.23421 -0.01674,0.43924 0.01869,0.64823c0.09651,0.03106 0.15432,0.14136 0.30211,0.12891zM185.28671,203.95966c-0.42751,-0.21515 -0.54404,-0.24907 -0.81211,-0.25415c-0.02467,0.20024 -0.04562,0.38408 -0.07033,0.58432c-0.0261,0.1151 0.03541,0.20901 0.14455,0.27587c0.07276,0.04458 0.17296,0.05915 0.24568,0.10372c0.27459,0.15892 0.60421,0.25783 0.92865,0.28809c0.12172,0.10262 0.28202,0.12601 0.44242,0.14936c0.89832,0.14778 1.77293,0.30906 2.68989,0.37464c0.40839,0.02549 0.82051,0.03454 1.21626,0.02419c0.31565,-0.022 0.65126,-0.04107 0.93655,-0.2034c0.04846,-0.2138 0.09688,-0.42755 0.14537,-0.64135c-0.1678,0.00952 -0.31563,0.02198 -0.44331,0.03736c-0.5911,0.04981 -1.17475,0.06678 -1.74351,0.01795c-0.73282,-0.05574 -1.44704,-0.1937 -2.16496,-0.3152c-0.34081,-0.04961 -0.63917,-0.19496 -0.98366,-0.22814c-0.15432,-0.14136 -0.35104,-0.187 -0.53144,-0.21328zM183.62341,222.62417c0.25827,0.13953 0.53516,0.19685 0.81953,0.22125c0.0163,0.01935 0.05269,0.04165 0.07276,0.04456c0.48482,0.05361 0.97712,0.07432 1.45168,-0.00947c0.27929,-0.04428 0.55475,-0.07211 0.79618,-0.22382c0.20876,-0.9209 0.41747,-1.84176 0.63747,-2.81201c-0.52209,0.11082 -1.02189,0.12305 -1.51784,0.11875c-0.4359,0.00449 -0.82561,-0.10322 -1.25403,-0.13162c-0.16036,-0.02333 -0.29697,-0.0602 -0.45734,-0.08354c-0.22188,-0.11725 -0.47132,-0.20452 -0.76826,-0.26475c-0.11183,0.49335 -0.05583,0.97714 -0.12011,1.44342c-0.04797,0.48564 -0.07588,0.97423 -0.1201,1.4434c0.15431,0.14136 0.30722,0.19764 0.46015,0.25384zM183.87152,219.2459c0.12173,0.10261 0.27834,0.14245 0.43868,0.16577c0.14545,0.08915 0.32963,0.09897 0.50628,0.14168c0.55758,0.09815 1.13378,0.1141 1.69735,0.09424c0.33563,-0.01908 0.67874,-0.07108 0.99664,-0.19466c0.01493,-0.06578 0.04986,-0.12863 0.06474,-0.19442c0.1827,-0.80581 0.36162,-1.59509 0.5643,-2.39796c0.21388,-0.85218 0.42403,-1.68794 0.63793,-2.54013c0.30334,-1.24688 0.62306,-2.47434 0.92638,-3.72122c0.35696,-1.39194 0.65002,-2.7762 1.04709,-4.16229c0.07225,-0.22729 0.10806,-0.47688 0.16402,-0.72357c-0.23539,0.03369 -0.4582,0.10317 -0.68617,0.10394c-0.73516,0.04586 -1.46799,-0.00988 -2.19337,-0.09849c-0.64144,-0.0934 -1.2792,-0.20323 -1.91695,-0.31309c-0.25315,-0.07083 -0.48995,-0.1223 -0.74311,-0.19313c-0.13798,-0.12202 -0.32587,-0.1154 -0.47879,-0.17163c-0.17297,-0.05917 -0.31841,-0.14828 -0.52261,-0.16103c-0.07738,0.15861 -0.0671,0.29602 -0.07315,0.41402c0.00057,1.00235 -0.16296,1.99776 -0.22253,2.99133c-0.04141,0.6395 -0.08287,1.27898 -0.1042,1.92137c-0.04982,0.8591 -0.07582,1.70465 -0.12188,2.5473c-0.03254,0.69172 -0.06512,1.38347 -0.11774,2.07228c-0.04377,0.74108 -0.10385,1.46275 -0.16761,2.20093c-0.04888,0.67237 -0.10146,1.36118 -0.13403,2.05291c0.17666,0.04269 0.27459,0.15888 0.43868,0.16579zM195.56198,198.18515c-0.47452,0.08379 -0.91046,0.08828 -1.35003,0.10922c-0.45966,0.01802 -0.90297,0.05542 -1.35888,0.05697c-0.4359,0.00448 -0.88439,-0.02684 -1.31651,-0.03882c-0.45222,-0.01488 -0.90439,-0.02974 -1.37288,-0.06397c-0.4284,-0.02842 -0.87315,-0.07619 -1.30158,-0.1046c-0.44472,-0.04778 -0.87457,-0.1613 -1.33423,-0.14329c-0.39856,-0.15993 -0.8545,-0.15838 -1.27176,-0.23609c-0.43352,-0.09711 -0.89464,-0.16422 -1.32817,-0.26131c-0.41348,-0.09419 -0.84333,-0.20774 -1.2531,-0.31835c-0.42984,-0.11357 -0.82469,-0.28998 -1.26567,-0.35415c-0.12957,0.38883 -0.15566,0.50393 -0.06238,0.82328c0.22188,0.11725 0.44383,0.23451 0.71326,0.32467c0.3296,0.09895 0.65918,0.19791 1.0051,0.31623c0.65546,0.21436 1.29463,0.40931 1.99623,0.51147c0.48111,0.07005 0.96596,0.12363 1.43215,0.25948c0.09651,0.03106 0.21679,0.04854 0.34447,0.03316c0.25173,-0.01434 0.50861,0.04009 0.74915,0.07508c0.88203,0.12843 1.7864,0.15818 2.67449,0.16854c1.17246,0.0348 2.33089,-0.05134 3.5005,-0.18686c0.23167,-0.01724 0.46336,-0.03446 0.65724,-0.15912c0.09603,-0.24083 0.1319,-0.49044 0.1426,-0.81159zM187.90708,195.04922c-0.2088,0.19043 -0.33748,0.39254 -0.48615,0.59173c-0.14125,0.16629 -0.20602,0.36072 -0.17056,0.56972c0.03454,0.39573 0.00523,0.79916 -0.10431,1.19091c-0.00746,0.03289 0.00137,0.08514 -0.00235,0.10157c0.08904,0.0639 0.16922,0.07556 0.28066,0.04085c0.02377,-0.01351 0.05128,-0.0435 0.05501,-0.05996c0.16825,-0.46814 0.37658,-0.93041 0.62502,-1.38689c0.03497,-0.06285 0.07737,-0.15861 0.05217,-0.23023c-0.02053,-0.27479 -0.04108,-0.54956 -0.2495,-0.81774zM186.14142,197.35718c0.16077,-0.43524 0.35795,-0.84819 0.57143,-1.24179c0.06987,-0.12571 0.07596,-0.24375 0.04562,-0.38406c-0.05551,-0.2119 -0.15855,-0.3968 -0.25785,-0.59813c-0.02517,-0.07162 -0.04662,-0.15965 -0.17436,-0.14429c-0.16362,0.26496 -0.34352,0.51059 -0.46704,0.78136c0.18423,0.74028 0.18421,0.74027 0.02533,1.53251c0.04893,0.0581 0.12543,0.0862 0.25687,0.05439zM190.7036,199.70312c-0.14729,0.28433 -0.27453,0.5716 -0.40178,0.85885c-0.03497,0.06285 -0.06991,0.12572 -0.06478,0.1944c0.08065,0.28352 0.14134,0.56416 0.3334,0.81298c0.28529,-0.1623 0.40132,-0.40022 0.57381,-0.61294c0.08623,-0.10633 0.08854,-0.20794 0.0545,-0.3318c-0.10071,-0.28645 -0.16135,-0.5671 -0.19817,-0.8612c0.00373,-0.01645 -0.0326,-0.03874 -0.06525,-0.07743c-0.06386,0.00768 -0.14783,0.01246 -0.23169,0.01723zM191.92731,195.58355c-0.32025,0.22517 -0.49644,0.45433 -0.69266,0.68057c-0.06247,0.09283 -0.06104,0.17796 -0.05963,0.2631c0.03084,0.41218 0.00144,0.81563 -0.11177,1.22381c-0.01119,0.04933 -0.00235,0.10157 -0.0135,0.1509c0.21679,0.04856 0.2606,0.03796 0.2904,-0.09361c0.09692,-0.42759 0.29036,-0.82409 0.57654,-1.17312c0.17247,-0.21271 0.19716,-0.41297 0.1454,-0.64135c-0.05408,-0.12681 -0.09184,-0.23423 -0.13475,-0.41034zM188.50308,197.71801c0.10022,0.01457 0.13517,-0.04832 0.1501,-0.11408c0.10439,-0.46043 0.36537,-0.88108 0.62642,-1.30176c0.20227,-0.34426 0.20783,-0.73417 -0.01085,-1.13971c-0.17386,0.12757 -0.23119,0.28911 -0.36497,0.42251c-0.27128,0.28326 -0.3421,0.59569 -0.3365,0.93627c-0.00182,0.37344 0.01638,0.74985 -0.1057,1.10578c0.0089,0.05224 0.02516,0.07164 0.0415,0.09099zM190.52048,195.39571c-0.16502,0.17981 -0.29509,0.29677 -0.40506,0.41666c-0.18876,0.19337 -0.25356,0.38778 -0.22557,0.62965c0.04945,0.32995 0.01499,0.66469 -0.03949,0.99647c-0.00607,0.11805 -0.03588,0.24959 -0.06197,0.36468c0.09651,0.03106 0.1277,-0.01536 0.13517,-0.04826c0.20831,-0.46232 0.4367,-0.92166 0.74157,-1.35293c0.03868,-0.0793 0.07362,-0.14216 0.07223,-0.22729c-0.04803,-0.24482 -0.07603,-0.48671 -0.21684,-0.77899zM192.00376,199.72256c0.00936,0.32413 -0.11789,0.61135 -0.22509,0.90154c-0.01863,0.08222 -0.09369,0.13925 -0.07224,0.22729c0.03033,0.14034 0.21123,0.43845 0.39818,0.61858c0.17763,-0.14402 0.26242,-0.33551 0.38365,-0.50475c0.09369,-0.13925 0.10347,-0.27372 0.03306,-0.41986c-0.10815,-0.25355 -0.17626,-0.50131 -0.17675,-0.77319c0.00375,-0.01645 -0.02893,-0.05516 -0.04522,-0.07451c-0.07647,-0.02812 -0.15665,-0.03982 -0.29556,0.02494zM184.90212,199.80974c0.0681,0.24771 -0.01535,0.52438 0.11661,0.76443c0.14404,0.00399 0.22284,-0.06947 0.31793,-0.12358c0.17015,-0.11114 0.35285,-0.18643 0.4941,-0.35273c-0.05315,-0.31351 0.06146,-0.63657 0.03206,-0.96359c-0.08904,-0.0639 -0.18926,-0.07853 -0.29696,-0.0602c-0.18365,0.26207 -0.40366,0.50183 -0.66376,0.73575zM188.28465,199.50384c-0.07738,0.15861 -0.15474,0.3172 -0.28106,0.41771c-0.30392,0.24451 -0.34722,0.52702 -0.25023,0.82991c0.03774,0.10741 0.01538,0.20608 0.11329,0.32229c0.23776,-0.13529 0.41909,-0.29572 0.60037,-0.45622c0.05129,-0.0435 0.06616,-0.10928 0.06477,-0.1944c-0.02428,-0.25836 -0.03223,-0.49732 -0.05648,-0.75565c0.01122,-0.04933 -0.014,-0.12095 -0.19071,-0.16367zM187.02174,199.31999c-0.16219,0.35011 -0.35704,0.66146 -0.67727,0.88665c-0.07131,0.04058 -0.06617,0.10928 -0.08108,0.17505c-0.0135,0.15092 -0.00697,0.30478 0.07976,0.47026c0.33285,-0.18937 0.56545,-0.39335 0.80177,-0.61374c0.07877,-0.07346 0.11748,-0.15275 0.11979,-0.25436c0.00097,-0.18673 0.02186,-0.37055 0.02278,-0.55727c0.00375,-0.01645 -0.02892,-0.05519 -0.04522,-0.07453c-0.06014,-0.00876 -0.12029,-0.01752 -0.22049,-0.03208zM193.26818,196.61116c-0.04292,-0.17611 -0.08206,-0.36869 -0.12496,-0.54483c-0.0163,-0.01935 -0.03264,-0.03875 -0.06526,-0.07744c-0.25407,0.11588 -0.41909,0.29572 -0.54028,0.46492c0.02477,0.53023 0.05698,1.02752 -0.06978,1.58664c0.3403,-0.22225 0.25958,-0.50579 0.36818,-0.7108c0.11979,-0.25436 0.2759,-0.48642 0.43205,-0.71849zM187.71584,194.61368c-0.15572,-0.22651 -0.27139,-0.4472 -0.52591,-0.60316c-0.10629,0.10341 -0.22515,0.17106 -0.30763,0.26101c-0.08248,0.08993 -0.18503,0.17689 -0.21111,0.29202c0.02661,0.15674 0.14455,0.27585 0.21869,0.40554c0.07416,0.12968 0.10445,0.27003 0.24616,0.37559c0.19995,-0.24271 0.37617,-0.47182 0.57986,-0.73096zM184.85103,197.20328c0.192,-0.48165 0.34531,-0.88404 0.49866,-1.28635c0.00746,-0.03289 0.03872,-0.07931 0.00607,-0.11803c-0.09932,-0.20131 -0.15109,-0.42968 -0.38557,-0.58273c-0.13239,0.21854 -0.26103,0.42067 -0.36962,0.62571c0.17485,0.41618 0.22199,0.84768 0.25048,1.36146zM189.18595,201.28283c0.20652,-0.08885 0.28387,-0.24745 0.39389,-0.36732c0.13379,-0.1334 0.20743,-0.27556 0.16823,-0.46811c-0.04431,-0.26125 -0.08862,-0.52252 0.01111,-0.77982c-0.13289,-0.05332 -0.21679,-0.04856 -0.23915,0.05012c-0.07594,0.24374 -0.15567,0.50394 -0.32439,0.7002c-0.23119,0.28911 -0.12677,0.55916 -0.00969,0.86497zM187.28346,200.6321c-0.32396,0.24161 -0.59292,0.4233 -0.84184,0.60786c-0.0261,0.1151 0.01912,0.18966 0.04432,0.26124c0.04522,0.07453 0.06295,0.17899 0.19579,0.23234c0.25037,-0.09946 0.48805,-0.2347 0.70949,-0.3893c-0.01168,-0.22251 -0.04713,-0.43153 -0.10776,-0.71216zM190.24794,201.89609c-0.12448,-0.27292 -0.23642,-0.51006 -0.34455,-0.76361c-0.18878,0.19336 -0.37385,0.37029 -0.55889,0.54716c0.09184,0.23421 0.14734,0.44614 0.35435,0.62912c0.21395,-0.12172 0.3715,-0.26867 0.54911,-0.41267zM188.79737,194.22752c-0.26291,0.06363 -0.37152,0.26867 -0.52908,0.41559c-0.05129,0.0435 -0.04988,0.12862 -0.02095,0.18381c0.08299,0.18198 0.14966,0.34456 0.23635,0.51007c-0.00373,0.01645 0.0364,0.02228 0.07647,0.02813c0.19254,-0.20978 0.36865,-0.43895 0.5612,-0.64874c-0.06294,-0.17901 -0.19348,-0.33393 -0.32405,-0.48883zM191.74883,195.18385c-0.0392,-0.19255 -0.08207,-0.36867 -0.27647,-0.51591c-0.19392,0.12468 -0.42793,0.24348 -0.57292,0.42622c0.03403,0.12387 0.02801,0.2419 0.08581,0.35222c0.03773,0.10741 -0.01213,0.23606 0.15713,0.31165c0.20883,-0.19042 0.41763,-0.38086 0.60646,-0.57423zM190.82775,201.89558c0.04664,0.15966 0.20841,0.26816 0.36644,0.39309c0.20513,-0.17396 0.4391,-0.29282 0.5715,-0.51133c-0.13055,-0.15493 -0.18977,-0.35037 -0.38046,-0.51404c-0.19254,0.20978 -0.365,0.4225 -0.55749,0.6323zM193.30624,199.64042c-0.08714,0.29308 -0.0978,0.61429 -0.22509,0.90155c-0.09601,0.24083 0.01454,0.39279 0.22524,0.55938c0.1813,-0.16044 0.26242,-0.33551 0.36727,-0.52409c-0.20095,-0.30102 -0.23039,-0.62809 -0.36745,-0.93682zM183.78067,196.80961c0.08392,-0.00476 0.09507,-0.05409 0.10629,-0.10341c0.06851,-0.21084 0.1207,-0.44108 0.20926,-0.64903c0.151,-0.30078 -0.01218,-0.4944 -0.23179,-0.71324c-0.06619,0.1093 -0.12488,0.18566 -0.16358,0.26496c-0.10485,0.18858 -0.16591,0.36653 -0.02653,0.57371c0.07415,0.12968 0.08065,0.28355 0.09098,0.42095c-0.03497,0.06285 -0.09368,0.13924 0.01539,0.20608zM183.89057,200.07018c0.11513,-0.05117 0.19021,-0.10821 0.26151,-0.14878c0.23027,-0.10236 0.32399,-0.24162 0.32861,-0.44479c-0.00279,-0.17026 0.05827,-0.34826 0.07548,-0.51561c0.01122,-0.04934 0.04241,-0.09575 -0.09419,-0.13264c-0.15245,0.21562 -0.34494,0.42545 -0.57382,0.61294c-0.05129,0.0435 -0.06988,0.12569 -0.08483,0.19147c0.01026,0.13737 0.02425,0.25837 0.08722,0.43737zM188.80692,201.58437c-0.0429,-0.17611 -0.06203,-0.36574 -0.16884,-0.5342c-0.24146,0.15172 -0.49551,0.2676 -0.6843,0.46094c0.08302,0.18196 0.10585,0.35514 0.30399,0.48594c0.19394,-0.12467 0.40418,-0.22993 0.54911,-0.41269zM189.83421,195.49964c0.24144,-0.15172 0.40646,-0.33155 0.53134,-0.51719c-0.08299,-0.18196 -0.14969,-0.34453 -0.29656,-0.51882c-0.18276,0.07533 -0.31279,0.1923 -0.42651,0.32862c0.07181,0.23127 0.1236,0.45966 0.19165,0.7074zM186.85139,202.08106c0.0942,0.13265 0.13566,0.2236 0.22101,0.30395c0.04896,0.05809 0.10163,0.09973 0.15434,0.14138c0.21908,-0.05303 0.42561,-0.14188 0.58317,-0.28881c-0.06294,-0.17901 -0.12591,-0.35805 -0.3003,-0.50236c-0.21395,0.12172 -0.42047,0.21058 -0.6582,0.34583zM183.58972,198.56546c-0.26524,0.16525 -0.4554,0.27342 -0.67311,0.4116c-0.03497,0.06285 -0.04103,0.18085 -0.00324,0.2883c0.01773,0.10448 -0.04846,0.21377 0.05318,0.31351c0.1916,-0.02308 0.33051,-0.08778 0.45685,-0.1883c0.03959,-0.26604 0.09555,-0.5127 0.16637,-0.82513zM187.51769,193.75241c0.08162,0.09684 0.1632,0.19365 0.24475,0.29047c0.08163,0.09684 0.16694,0.17716 0.2485,0.27399c0.18132,-0.16044 0.35148,-0.27158 0.43258,-0.44662c-0.03776,-0.10741 -0.15058,-0.15781 -0.23961,-0.22176c-0.08904,-0.0639 -0.16694,-0.17716 -0.31094,-0.18117c-0.1464,0.09763 -0.28528,0.1623 -0.37525,0.28513zM189.29468,202.53871c-0.1231,-0.18778 -0.17858,-0.39975 -0.38936,-0.56631c-0.17013,0.11114 -0.32024,0.22517 -0.49039,0.33629c0.12309,0.18778 0.20979,0.35332 0.43173,0.47054c0.15895,-0.0618 0.31048,-0.09069 0.44799,-0.24054zM185.61163,195.30957c0.1874,-0.27847 0.34726,-0.52698 0.5071,-0.77549c-0.05781,-0.11036 -0.09556,-0.21779 -0.22844,-0.27108c-0.26153,0.1488 -0.41393,0.36439 -0.58637,0.57711c0.05782,0.11036 0.11562,0.22069 0.1972,0.31751c0.00512,0.06871 0.04149,0.09097 0.11048,0.15197zM185.92043,201.16409c-0.0793,-0.19841 -0.03455,-0.39576 -0.1651,-0.55065c-0.25777,0.13234 -0.49177,0.25116 -0.69692,0.42517c0.11426,0.13556 0.07693,0.29998 0.25504,0.42784c0.21906,-0.05304 0.37294,-0.18354 0.60696,-0.30233zM192.72163,195.00272c-0.16269,0.07824 -0.30904,0.17585 -0.41907,0.29574c0.07557,0.21485 0.13104,0.42676 0.19913,0.67448c0.16125,-0.16335 0.31138,-0.27742 0.50904,-0.4185c-0.07555,-0.21486 -0.13476,-0.41034 -0.2891,-0.55173zM183.9088,200.44655c0.03171,0.22546 0.05086,0.4151 0.22149,0.57585c0.17899,-0.05889 0.33423,-0.1042 0.44426,-0.22409c-0.03544,-0.209 -0.05086,-0.41506 -0.0989,-0.65989c-0.20652,0.08885 -0.39297,0.18062 -0.56684,0.30818zM190.75718,194.71673c0.18504,-0.1769 0.42794,-0.2435 0.50904,-0.41855c-0.08299,-0.18196 -0.221,-0.30397 -0.38279,-0.41247c-0.18646,0.09178 -0.36921,0.16708 -0.47036,0.33919c0.11049,0.15198 0.20097,0.30103 0.3441,0.49176zM190.8265,202.54091c-0.11425,-0.13555 -0.18837,-0.26523 -0.35388,-0.35728c-0.1813,0.16044 -0.42793,0.24346 -0.55659,0.44557c0.09419,0.13265 0.19956,0.21593 0.37625,0.25864c0.19019,-0.10821 0.36407,-0.23576 0.53417,-0.34691zM184.75665,194.8793c-0.09045,-0.14908 -0.17576,-0.22939 -0.30491,-0.29923c-0.17015,0.11114 -0.32772,0.25804 -0.37241,0.45538c0.09792,0.11619 0.19579,0.23233 0.28999,0.36499c0.20139,-0.15754 0.26616,-0.35195 0.38734,-0.52116zM194.25471,201.12043c-0.1016,-0.09973 -0.18697,-0.18012 -0.30348,-0.21406c-0.15754,0.1469 -0.27499,0.29972 -0.35609,0.47477c0.07782,0.11325 0.16317,0.19363 0.29603,0.24695c0.17763,-0.14402 0.24237,-0.33844 0.36354,-0.50764zM187.55913,202.79561c0.07552,0.21484 0.23217,0.25463 0.41632,0.26447c0.1403,0.02045 0.28811,0.00797 0.37807,-0.11483c-0.09045,-0.14908 -0.18462,-0.28169 -0.3464,-0.39019c-0.16269,0.07824 -0.30532,0.1594 -0.44798,0.24054zM194.20657,196.76475c-0.02659,-0.15675 0.00323,-0.28828 -0.11844,-0.39093c-0.46429,0.22119 -0.43492,0.54823 -0.31272,0.92272c0.14497,-0.18273 0.28623,-0.34906 0.43116,-0.53178zM185.78062,202.14602c0.19533,-0.03948 0.33423,-0.10421 0.48806,-0.2347c-0.12172,-0.10262 -0.10449,-0.27002 -0.24993,-0.35913c-0.12402,-0.00109 -0.17899,0.05886 -0.27037,0.0965c-0.09506,0.05409 -0.20277,0.0724 -0.22888,0.18751c0.05782,0.11036 0.11565,0.22071 0.2611,0.30982zM188.97901,197.71935c0.19811,0.13076 0.32587,0.11541 0.37943,-0.02967c0.06852,-0.21084 0.09694,-0.42756 0.12161,-0.62781c0.01493,-0.06575 0.01347,-0.15092 -0.09932,-0.20132c-0.16733,0.28141 -0.29455,0.56863 -0.40176,0.85881zM191.96163,202.74013c0.01772,0.10449 0.08673,0.16552 0.20328,0.1995c0.23403,-0.11882 0.50442,-0.21534 0.67688,-0.42805c-0.21819,-0.13369 -0.40609,-0.1271 -0.58366,0.01693c-0.09508,0.05409 -0.22659,0.08594 -0.29649,0.21164zM191.70244,197.94599c0.2806,0.04086 0.34824,0.01667 0.38178,-0.13127c0.03213,-0.23315 0.06802,-0.48272 0.01997,-0.72753c-0.22747,0.27266 -0.43116,0.53179 -0.40176,0.85882zM194.31283,200.04174c-0.04987,0.12861 -0.07594,0.24377 -0.1221,0.35592c-0.07228,0.2273 -0.07223,0.2273 0.26996,0.36209c0.06619,-0.1093 0.15617,-0.23209 0.19109,-0.29493c-0.13055,-0.15494 -0.22472,-0.28752 -0.33896,-0.42306zM190.14223,193.31917c-0.13894,0.0647 -0.3268,0.07135 -0.36781,0.25224c0.10163,0.09973 0.22705,0.18594 0.345,0.30503c0.16271,-0.07824 0.3417,-0.13707 0.43164,-0.25989c-0.12174,-0.10262 -0.21961,-0.21885 -0.40888,-0.29737zM192.79545,201.16284c-0.14864,0.19919 -0.31744,0.39544 -0.4661,0.59463c0.02147,0.08803 0.06665,0.16257 0.19437,0.1472c0.21395,-0.12172 0.39533,-0.28219 0.50389,-0.48722c-0.05781,-0.11036 -0.12309,-0.18777 -0.23221,-0.25462zM193.31468,195.30993c0.14404,0.00399 0.25922,-0.04718 0.36174,-0.13419c-0.02517,-0.07163 -0.05036,-0.14322 -0.07556,-0.21484c-0.04146,-0.09097 -0.06298,-0.17903 -0.17579,-0.22941c-0.12027,-0.01752 -0.22794,0.00075 -0.32677,0.07134c0.0667,0.16261 0.1497,0.34455 0.21633,0.50713zM189.44025,194.40608c0.16271,-0.07824 0.26899,-0.18168 0.35895,-0.30448c-0.13798,-0.12202 -0.25595,-0.2411 -0.37761,-0.34374c-0.17156,0.02601 -0.2741,0.11299 -0.31654,0.20874c0.11048,0.15198 0.221,0.30396 0.3352,0.43954zM194.00088,195.93642c-0.03776,-0.10741 -0.07552,-0.21484 -0.13334,-0.32521c-0.0163,-0.01934 -0.05644,-0.02519 -0.09282,-0.04749c-0.09138,0.03764 -0.21908,0.05302 -0.30905,0.17585c0.03035,0.14034 0.03318,0.31059 0.14366,0.46258c0.17897,-0.05889 0.28151,-0.14589 0.39154,-0.26577zM194.74285,197.50533c0.06105,-0.17796 0.28902,-0.17878 0.32628,-0.3432c-0.05036,-0.14319 -0.03682,-0.29413 -0.16739,-0.44903c-0.15895,0.0618 -0.2979,0.12653 -0.27126,0.28326c0.02659,0.15676 -0.027,0.30181 0.11238,0.50898zM193.28089,202.21876c0.10627,-0.10342 0.23259,-0.20397 0.33514,-0.29093c0.02378,-0.01352 0.01119,-0.04935 0.01862,-0.08223c-0.09277,-0.04748 -0.17434,-0.14431 -0.36596,-0.1212c-0.13001,0.11697 -0.26385,0.25036 -0.41766,0.38088c0.1254,0.0862 0.24197,0.12015 0.42984,0.11357zM189.03273,193.46341c-0.0979,-0.11619 -0.19209,-0.24881 -0.27368,-0.3456c-0.1916,0.02307 -0.33054,0.08776 -0.44938,0.15541c-0.00604,0.11806 0.13055,0.15488 0.19956,0.21591c0.06904,0.06101 0.13428,0.13845 0.27834,0.14244c0.08764,-0.02122 0.17901,-0.05889 0.24522,-0.16817zM184.23985,201.36108c0.07416,0.12968 0.13569,0.22362 0.19722,0.3175c0.01258,0.03581 0.069,0.06102 0.08534,0.08038c0.1403,0.02045 0.25547,-0.03073 0.358,-0.11776c-0.07042,-0.14614 -0.12079,-0.28938 -0.23494,-0.42493c-0.13145,0.03184 -0.24661,0.08302 -0.40556,0.1448zM194.85773,200.10409c0.12867,-0.20211 0.25728,-0.4042 0.24935,-0.64318c-0.19159,0.02308 -0.35573,0.01617 -0.48575,0.13311c0.03682,0.29414 0.03684,0.29415 0.23639,0.51006zM186.06915,202.42584c0.26997,0.36209 0.28998,0.36498 0.68812,0.25303c-0.0942,-0.13265 -0.21214,-0.2517 -0.30628,-0.38435c-0.14404,-0.00399 -0.25916,0.04719 -0.38179,0.13125zM192.51561,194.633c-0.07041,-0.14614 -0.14829,-0.25941 -0.29375,-0.34856c-0.04383,0.01061 -0.11144,0.03474 -0.17902,0.05887c-0.04755,0.02706 -0.09885,0.07056 -0.14636,0.09758c0.07043,0.14614 0.11708,0.30583 0.25878,0.41141c0.13144,-0.03183 0.25407,-0.11588 0.36031,-0.21934zM183.21229,200.41309c0.06758,-0.02414 0.15895,-0.06182 0.19021,-0.10822c0.10116,-0.17214 0.0983,-0.34237 -0.00101,-0.54373c-0.13521,0.04825 -0.30299,0.0578 -0.38552,0.14773c0.0429,0.17611 0.02195,0.35992 0.19631,0.50421zM185.6017,193.98312c-0.01629,-0.01935 -0.03263,-0.03873 -0.06526,-0.07744c-0.29044,0.09363 -0.5319,0.24533 -0.77332,0.39703c0.03404,0.12386 0.10304,0.18486 0.25967,0.22466c0.18504,-0.1769 0.3901,-0.35088 0.57894,-0.54425zM190.7089,197.12187c-0.17618,0.22916 -0.36866,0.43895 -0.412,0.72141c-0.00375,0.01645 0.06901,0.06098 0.10908,0.06683c0.10022,0.01457 0.19531,-0.03953 0.21391,-0.12174c0.10862,-0.20502 0.11697,-0.42465 0.08898,-0.66651zM191.98452,193.96111c-0.07783,-0.11328 -0.15572,-0.22653 -0.28113,-0.31274c-0.14031,-0.02045 -0.248,-0.00214 -0.37432,0.09835c0.11797,0.1191 0.23217,0.25465 0.35384,0.35729c0.12769,-0.01538 0.21906,-0.05305 0.30159,-0.14295zM189.05653,203.13256c0.27691,0.0573 0.51372,0.1088 0.78037,0.02871c-0.0266,-0.15674 -0.15198,-0.24296 -0.30117,-0.31566c-0.18274,0.07533 -0.34169,0.1371 -0.47921,0.28698zM182.42526,198.76966c0.20279,-0.0724 0.22654,-0.08588 0.23777,-0.13525c0.05734,-0.1615 -0.00934,-0.32413 -0.07976,-0.47026c-0.0289,-0.05515 -0.12544,-0.08618 -0.20793,0.00372c0.08672,0.16552 -0.04194,0.36764 0.04996,0.60182zM186.3774,194.21498c0.20513,-0.17396 0.42654,-0.32862 0.50991,-0.60525c-0.30671,0.07426 -0.4918,0.25117 -0.66937,0.39517c0.00138,0.08514 0.05408,0.12676 0.15947,0.21005zM185.05757,201.95579c-0.11141,0.03474 -0.21908,0.05305 -0.3305,0.08778c0.06668,0.16262 0.16087,0.29523 0.39255,0.27799c0.06387,-0.00768 0.12769,-0.01538 0.16269,-0.07824c-0.01772,-0.10448 -0.10305,-0.18489 -0.22472,-0.28752zM193.08281,197.9771c0.18043,0.02624 0.26804,0.00507 0.27781,-0.1294c0.00607,-0.11806 0.01209,-0.23607 -0.00192,-0.35703c-0.0089,-0.05223 -0.03776,-0.10745 -0.12168,-0.10266c-0.10487,0.18857 -0.14586,0.36947 -0.15423,0.58909zM185.53994,196.53918c-0.12867,0.20212 -0.21719,0.41006 -0.20553,0.63259c-0.00373,0.01646 0.06902,0.06098 0.08904,0.0639c0.04006,0.00584 0.09138,-0.03764 0.09882,-0.07056c0.02843,-0.21669 0.11325,-0.40821 0.01765,-0.62599zM184.45105,196.9582c-0.02286,-0.1732 0.01815,-0.35412 -0.06109,-0.55251c-0.14867,0.19917 -0.22978,0.37424 -0.192,0.48166c0.01772,0.10448 0.0979,0.1162 0.25311,0.07083zM191.0457,203.2183c0.25174,-0.01433 0.53241,0.02654 0.71744,-0.15037c-0.33099,-0.18407 -0.51602,-0.00717 -0.71744,0.15037zM191.44343,200.18459c0.04006,0.00583 0.06394,-0.00769 0.10398,-0.00185c0.01722,-0.16735 0.13094,-0.30369 0.06425,-0.46627c-0.11653,-0.03397 -0.18042,-0.02626 -0.25919,0.0472c0.03404,0.12386 0.06435,0.26416 0.09097,0.42095zM188.07087,196.97557c-0.11232,0.22147 -0.19341,0.39653 -0.21811,0.59678c-0.00746,0.03289 0.02516,0.07161 0.0853,0.08037c0.02008,0.00292 0.06386,-0.00769 0.08764,-0.02123c0.12867,-0.20211 0.17337,-0.39943 0.04515,-0.65592zM183.50833,200.66003c-0.1277,0.01538 -0.19529,0.0395 -0.1664,0.09468c0.03404,0.12386 0.08814,0.25065 0.14222,0.37744c0.04521,0.07453 0.10534,0.08329 0.1804,0.02626c-0.0191,-0.18965 -0.04572,-0.34642 -0.15621,-0.49838zM191.00043,193.46111c0.09138,-0.03764 0.17901,-0.05889 0.27038,-0.09652c0.02378,-0.01351 0.03122,-0.04642 0.06247,-0.09283c-0.24051,-0.03504 -0.44983,-0.11644 -0.72537,-0.08862c0.11797,0.1191 0.20328,0.19947 0.39255,0.27798zM186.30008,199.21489c-0.01724,0.16736 -0.03074,0.31831 -0.05542,0.51855c0.23775,-0.13529 0.33143,-0.2745 0.34865,-0.44185c-0.08904,-0.06391 -0.14545,-0.08913 -0.29325,-0.07669zM192.6876,199.72019c0.05408,0.12681 -0.02702,0.30181 0.17113,0.4326c0.14958,-0.38592 0.16823,-0.4681 0.07545,-0.51562c-0.10022,-0.01457 -0.16784,0.00954 -0.24661,0.08302zM186.86065,196.83339c-0.29648,0.21162 -0.34117,0.40897 -0.31693,0.66732c0.32537,-0.15649 0.21716,-0.41002 0.31693,-0.66732zM194.30788,197.32306c-0.2727,0.19811 -0.31372,0.37904 -0.31835,0.58219c-0.00373,0.01645 0.03264,0.03872 0.07272,0.04455c0.06014,0.00877 0.10769,-0.0183 0.11513,-0.05118c0.05735,-0.1615 0.07456,-0.32886 0.13048,-0.57553zM193.70581,199.61363c0.02659,0.15675 0.00936,0.32413 0.18369,0.46838c0.09741,-0.1557 0.1109,-0.30661 0.1207,-0.44107c-0.10907,-0.06685 -0.19297,-0.06207 -0.30441,-0.02732zM194.80098,196.42659c-0.10679,-0.16844 -0.06577,-0.34932 -0.25131,-0.44429c-0.11232,0.22147 -0.11232,0.22146 0.05598,0.48378c0.04383,-0.01061 0.08764,-0.02122 0.19532,-0.03951zM191.48527,202.4669c0.29182,-0.00848 0.46569,-0.13604 0.62325,-0.28298c-0.03776,-0.10741 -0.11797,-0.1191 -0.18926,-0.07853c-0.13001,0.11698 -0.28016,0.23102 -0.43395,0.36152zM192.86477,194.46296c0.12402,0.00108 0.22796,-0.00077 0.31044,-0.09068c-0.06153,-0.09388 -0.12308,-0.18781 -0.2396,-0.22174c-0.10396,0.00184 -0.17154,0.026 -0.22657,0.08595c0.02147,0.08804 0.07042,0.14614 0.15574,0.2265zM188.98817,199.96302c0.08996,-0.12277 0.15244,-0.21565 0.13471,-0.32015c-0.01258,-0.03581 -0.04893,-0.0581 -0.08532,-0.08038c-0.06014,-0.00877 -0.14779,0.01244 -0.13893,0.06469c-0.02237,0.0987 -0.04847,0.21379 0.08956,0.33583zM189.68205,193.06531c-0.16924,-0.0756 -0.34825,-0.01671 -0.51605,-0.00716c0.19209,0.24882 0.23219,0.25461 0.51605,0.00716zM183.33221,196.77829c0.1361,-0.23501 0.1361,-0.235 -0.02195,-0.35994c-0.06247,0.09283 -0.12865,0.20213 0.02195,0.35994zM190.31154,199.697c-0.06904,-0.06101 -0.12914,-0.06976 -0.15662,-0.03981c-0.13001,0.11698 -0.12118,0.16921 0.0257,0.34349c0.08624,-0.10633 0.10864,-0.20504 0.13098,-0.3037zM195.11993,197.57722c-0.11886,0.06766 -0.21768,0.1382 -0.20371,0.25911c0.3319,-0.00266 0.35939,-0.03258 0.20371,-0.25911zM183.04175,196.14148c-0.1464,0.09763 -0.19626,0.22623 -0.24237,0.3384c-0.01493,0.06576 0.03404,0.12389 0.16924,0.07561c0.04611,-0.11218 0.09602,-0.24085 0.07316,-0.41402zM194.28437,195.41707c-0.07738,0.15861 -0.03589,0.2496 0.11704,0.30583c0,0 0.04383,-0.01061 0.04754,-0.02706c0.04239,-0.09576 -0.06292,-0.17902 -0.16457,-0.27881zM187.67488,199.6359c0.1277,-0.01538 0.18276,-0.07533 0.1776,-0.144c0.00746,-0.03289 -0.02517,-0.07162 -0.06153,-0.0939c-0.03639,-0.02228 -0.10393,0.00184 -0.11138,0.03474c-0.03124,0.04642 -0.04615,0.11217 -0.00467,0.20317zM192.27736,193.76594c0.05408,0.1268 0.12308,0.1878 0.29838,0.14535c-0.07043,-0.14614 -0.14313,-0.19072 -0.29838,-0.14535z" fill="#000000"/><path d="M186.12219,205.38927c0.63771,0.10986 1.27551,0.21971 1.91698,0.31308c0.72168,0.10507 1.45821,0.14435 2.19337,0.0985c0.23168,-0.01723 0.43071,-0.07316 0.68616,-0.10392c-0.05965,0.26313 -0.09175,0.49623 -0.16401,0.72354c-0.39333,1.36966 -0.69016,2.77034 -1.04709,4.16228c-0.32342,1.24393 -0.62303,2.47435 -0.92638,3.72122c-0.21388,0.85219 -0.42406,1.68795 -0.63796,2.54012c-0.20271,0.80287 -0.36158,1.5951 -0.56427,2.39796c-0.01493,0.06578 -0.02985,0.13157 -0.06479,0.19442c-0.32163,0.14005 -0.64098,0.17846 -0.99664,0.19465c-0.56362,0.01986 -1.1398,0.00392 -1.69734,-0.09424c-0.18043,-0.02624 -0.36455,-0.03608 -0.50626,-0.14167c0.18789,-0.00663 0.37713,0.07187 0.61629,0.02178c-0.08064,-0.28352 0.04284,-0.55432 0.08243,-0.82037c0.00373,-0.01645 0.00746,-0.03288 -0.01258,-0.0358c-0.05969,-0.46733 0.04842,-0.94423 0.05256,-1.41929c-0.00281,-0.17026 -0.06578,-0.34931 0.01157,-0.50791c0.11467,-0.32304 0.00505,-0.66176 0.11971,-0.98485c0.00373,-0.01645 -0.00887,-0.05225 -0.00139,-0.08515c0.01067,-0.32117 -0.00236,-0.62886 0.0484,-0.94422c0.082,-0.36177 -0.0038,-0.71404 0.11829,-1.06996c-0.07181,-0.23127 0.01677,-0.43922 0.0489,-0.67236c0.00746,-0.03289 0.01117,-0.04936 0.01864,-0.08221c-0.08581,-0.35224 0.07264,-0.68589 0.06702,-1.02648c-0.00563,-0.34055 0.11273,-0.68006 0.12715,-1.01771c0.02562,-0.387 -0.0127,-0.76624 0.13696,-1.15218c0.00746,-0.03289 0.01865,-0.08223 0.00607,-0.11804c-0.0793,-0.19841 0.02561,-0.38698 0.05032,-0.58723c0.02237,-0.0987 0.0685,-0.21083 0.05077,-0.31535c-0.0466,-0.15967 0.00324,-0.2883 0.03679,-0.43632c0.01864,-0.08223 0.05734,-0.16155 0.03212,-0.23314c-0.07181,-0.23127 0.02045,-0.45566 0.06892,-0.66943c0.01864,-0.08223 0.05731,-0.16151 0.03214,-0.23315c-0.05919,-0.19547 0.00182,-0.37345 0.04286,-0.55435c0.06709,-0.29603 -0.00612,-0.61242 0.08103,-0.90549c0.03122,-0.04642 -0.01769,-0.10449 -0.0266,-0.15675z" fill="#87d7dc"/><path d="M186.12219,205.3893c0.00885,0.05224 0.05783,0.11034 0.04664,0.15968c-0.08712,0.29309 -0.03397,0.60659 -0.08102,0.90551c-0.04102,0.18088 -0.10206,0.35888 -0.04286,0.55434c0.02517,0.07163 -0.0135,0.15093 -0.0321,0.23313c-0.04843,0.21378 -0.12072,0.44107 -0.06897,0.66945c0.02517,0.07162 -0.03355,0.14802 -0.03211,0.23315c-0.03355,0.148 -0.06337,0.27957 -0.03679,0.43632c0.01772,0.10448 -0.02843,0.21672 -0.0508,0.31538c-0.02467,0.20024 -0.12954,0.38883 -0.05028,0.58723c0.01258,0.03581 0.0014,0.08514 -0.00605,0.11803c-0.14587,0.36948 -0.11135,0.76523 -0.13694,1.1522c-0.01815,0.35412 -0.13652,0.69358 -0.1272,1.01771c0.00564,0.34054 -0.15282,0.67423 -0.06701,1.02646c0.01629,0.01936 -0.0112,0.04935 -0.01865,0.08224c-0.04843,0.21378 -0.12068,0.44107 -0.04888,0.67239c-0.14216,0.35303 -0.05633,0.70527 -0.11832,1.06995c-0.07083,0.31244 -0.03769,0.62303 -0.04842,0.94422c-0.00746,0.03289 0.00891,0.05227 0.00143,0.08515c-0.11467,0.32304 -0.00505,0.66175 -0.11971,0.98484c-0.06104,0.17796 0.00561,0.34056 -0.01159,0.50792c-0.02419,0.47212 -0.11225,0.95195 -0.05256,1.41927c-0.00373,0.01645 0.01261,0.03581 0.01261,0.03581c-0.03958,0.26605 -0.16313,0.53686 -0.08243,0.82038c-0.21908,0.05304 -0.40465,-0.04194 -0.61629,-0.0218c-0.16035,-0.02333 -0.32071,-0.04673 -0.43869,-0.16584c0.02237,-0.0987 0.0685,-0.21083 0.05076,-0.31533c-0.06204,-0.36574 0.03634,-0.70819 0.07451,-1.05938c0.03819,-0.35115 -0.02387,-0.71691 0.11829,-1.06993c-0.07181,-0.23127 0.01671,-0.43924 0.04888,-0.67238c0.00746,-0.03289 0.01863,-0.08222 0.00605,-0.11804c-0.06668,-0.16261 0.0107,-0.32118 0.02421,-0.47214c0.01864,-0.08223 0.03725,-0.16445 0.03213,-0.23314c-0.01823,-0.37639 -0.01271,-0.76625 0.07305,-1.14449c0.01122,-0.04934 0.04617,-0.1122 0.0135,-0.15091c-0.06294,-0.179 -0.00565,-0.34055 0.03163,-0.505c0.06104,-0.17796 -0.04202,-0.36286 0.0228,-0.55726c0.0797,-0.2602 0.03537,-0.52146 0.05492,-0.7904c0.04191,-0.36764 -0.00007,-0.73045 0.08569,-1.10866c0.01493,-0.06578 0.05362,-0.14509 0.02467,-0.20026c-0.05033,-0.14324 0.00321,-0.28829 0.01674,-0.4392c0.02984,-0.13155 0.03959,-0.266 0.02563,-0.387c-0.03171,-0.22546 -0.02336,-0.44506 0.0288,-0.6753c0.05824,-0.34824 -0.00381,-0.71402 0.13832,-1.06702c0.00746,-0.03289 -0.00137,-0.08513 0.00608,-0.11805c0.01815,-0.35412 0.01621,-0.71109 0.07451,-1.05933c0.082,-0.36177 0.00365,-0.74692 0.12578,-1.10285c0.01122,-0.04934 -0.01774,-0.10449 -0.0266,-0.15675c0.00836,-0.21961 0.04051,-0.45276 0.14911,-0.65777c0.10397,-0.00184 0.18413,0.00979 0.26805,0.00506c0.26948,0.0902 0.50255,0.1581 0.75943,0.2125z" fill="#b0eef2"/><path d="M195.56198,198.18517c-0.01069,0.32116 -0.04659,0.57078 -0.18269,0.80578c-0.19022,0.10821 -0.42188,0.12546 -0.65726,0.15912c-1.16589,0.11904 -2.32805,0.22162 -3.5005,0.18684c-0.88436,-0.02684 -1.78876,-0.05656 -2.67449,-0.16853c-0.24053,-0.03503 -0.49743,-0.0894 -0.74917,-0.07512c-0.10397,0.00184 -0.22424,-0.01568 -0.34448,-0.03317c-0.4662,-0.13583 -0.95474,-0.17298 -1.43215,-0.25946c-0.67785,-0.11565 -1.34079,-0.29711 -1.99623,-0.51146c-0.32586,-0.11539 -0.65549,-0.21435 -1.00511,-0.31619c-0.27316,-0.07377 -0.49135,-0.20743 -0.71328,-0.32468c-0.07321,-0.31645 -0.06716,-0.43445 0.06239,-0.82328c0.43725,0.08062 0.83588,0.24059 1.26567,0.35415c0.40977,0.11062 0.83958,0.22416 1.25311,0.31835c0.43353,0.09711 0.8909,0.18067 1.32815,0.26132c0.41348,0.09419 0.86942,0.09258 1.27179,0.23611c0.45967,-0.01802 0.88946,0.09554 1.33423,0.1433c0.4247,0.04486 0.87315,0.07615 1.30159,0.10456c0.44848,0.03132 0.90064,0.04618 1.37291,0.06401c0.43216,0.01196 0.8806,0.04329 1.31651,0.03878c0.45591,-0.00158 0.89924,-0.03894 1.35891,-0.05695c0.47971,-0.0151 0.91556,-0.01959 1.39014,-0.10338z" fill="#d1eaeb"/><path d="M185.37905,205.19619c-0.08391,0.00476 -0.16411,-0.0069 -0.26804,-0.00504c-0.10859,0.20504 -0.15705,0.41878 -0.14911,0.65777c0.00885,0.05225 0.03776,0.10743 0.02659,0.15675c-0.12211,0.35592 -0.06379,0.73819 -0.12577,1.10286c-0.07829,0.34534 -0.05635,0.70525 -0.07453,1.05934c-0.00746,0.03289 0.0014,0.08515 -0.00605,0.11803c-0.14218,0.35302 -0.05637,0.70524 -0.13836,1.06703c-0.04843,0.21378 -0.06054,0.44984 -0.0288,0.67529c0.01026,0.13735 0.0005,0.27186 -0.02561,0.38699c-0.03355,0.148 -0.08341,0.27663 -0.01673,0.43923c0.02889,0.05515 -0.0098,0.13449 -0.02472,0.20026c-0.082,0.36177 -0.04371,0.74105 -0.08566,1.10866c-0.01958,0.26895 0.02478,0.53021 -0.05493,0.7904c-0.06104,0.17796 0.042,0.36284 -0.0228,0.55726c-0.05733,0.16152 -0.11837,0.33949 -0.03168,0.50501c0.00885,0.05225 -0.00232,0.10157 -0.01348,0.1509c-0.08575,0.37821 -0.08761,0.75165 -0.07306,1.14449c0.00138,0.08514 -0.03725,0.16443 -0.03214,0.23311c-0.03355,0.148 -0.09083,0.30954 -0.02417,0.47212c0.01258,0.03581 0.00142,0.08514 -0.00605,0.11802c-0.04843,0.21378 -0.1207,0.44108 -0.04889,0.67238c-0.14215,0.35302 -0.08012,0.71879 -0.11827,1.06993c-0.03819,0.35115 -0.14024,0.71 -0.07451,1.05933c0.01772,0.10449 -0.02844,0.2167 -0.05077,0.31536c-0.18415,-0.00983 -0.28204,-0.12599 -0.41865,-0.16286c0.05633,-0.70524 0.08517,-1.38056 0.13407,-2.05291c0.04376,-0.74107 0.10381,-1.46276 0.16757,-2.2009c0.05261,-0.68883 0.08515,-1.38056 0.11773,-2.07229c0.04982,-0.8591 0.07581,-1.70466 0.12187,-2.54731c0.04142,-0.6395 0.0829,-1.27897 0.10423,-1.92136c0.05955,-0.99357 0.20304,-1.99194 0.2225,-2.99133c0.00978,-0.13446 -0.02055,-0.27477 0.07315,-0.41401c0.18043,0.02624 0.34963,0.10186 0.52262,0.16103c0.09278,0.04747 0.28063,0.04085 0.4224,0.14642z" fill="#87d7dc"/><path d="M184.62168,219.86471c0.42842,0.0284 0.8219,0.11966 1.25402,0.13159c0.49603,0.00428 0.99576,-0.00793 1.51785,-0.11874c-0.2162,0.95379 -0.42867,1.89111 -0.63743,2.812c-0.26151,0.1488 -0.53701,0.1766 -0.79621,0.22381c-0.4946,0.08088 -0.96312,0.04663 -1.45168,0.00947c-0.02008,-0.00292 -0.05639,-0.02519 -0.07274,-0.04455c0.20277,-0.07239 0.17245,-0.21269 0.16218,-0.35011c-0.02569,-0.3435 -0.03133,-0.68404 0.0633,-1.01001c0.01493,-0.06578 0.02982,-0.13156 0.02466,-0.20024c-0.04946,-0.32997 0.04515,-0.65592 0.05583,-0.97714c0.00097,-0.18673 -0.00941,-0.32407 -0.11987,-0.47609z" fill="#61afb4"/><path d="M185.57417,202.9653c0.67923,0.20081 1.38455,0.28652 2.07497,0.43798c0.317,0.06315 0.64521,0.07693 0.97342,0.09076c0.60885,0.05469 1.22278,0.17803 1.84654,0.1669c0.24801,0.00214 0.49602,0.00429 0.72771,-0.01294c0.14779,-0.01245 0.29181,-0.00849 0.43217,0.01195c0.0089,0.05223 0.02144,0.08805 0.01397,0.12096c-0.02985,0.13154 -0.05962,0.2631 -0.08943,0.39466c-0.1114,0.03475 -0.19906,0.05593 -0.30673,0.07426c-0.76635,0.09226 -1.55282,0.18163 -2.33465,0.06779c-0.68531,-0.08277 -1.39058,-0.16847 -2.06101,-0.31703c-0.53382,-0.11169 -1.07132,-0.20693 -1.55523,-0.44724c0.10768,-0.01832 0.21679,0.04854 0.3193,-0.03845c0.0811,-0.17505 0.18969,-0.38007 -0.04108,-0.54957z" fill="#61aeb3"/><path d="M185.80549,204.13711c0.34825,0.01673 0.64659,0.1621 0.98364,0.22815c0.71795,0.12151 1.43586,0.24305 2.16497,0.3152c0.58877,0.05176 1.17245,0.03478 1.74352,-0.01796c0.14779,-0.01245 0.29553,-0.02493 0.44332,-0.03739c-0.05218,0.23023 -0.09688,0.42758 -0.14538,0.64135c-0.28529,0.1623 -0.60463,0.20072 -0.93655,0.2034c-0.39579,0.01035 -0.81159,0.01772 -1.21624,-0.0242c-0.91697,-0.06559 -1.79156,-0.22687 -2.68991,-0.37464c-0.16035,-0.02334 -0.32075,-0.0467 -0.44243,-0.14935c0.01864,-0.08223 0.0573,-0.16153 0.03212,-0.23314c-0.0429,-0.17612 0.02186,-0.37056 0.06286,-0.55141z" fill="#61aeb3"/><path d="M184.62167,219.86471c0.0942,0.13265 0.12448,0.27292 0.10725,0.4403c-0.01069,0.32118 -0.10532,0.64718 -0.05583,0.97712c0.00513,0.06871 -0.00976,0.1345 -0.02468,0.20028c-0.07827,0.34535 -0.06893,0.66943 -0.0633,1.01c0.01398,0.12096 0.0406,0.27771 -0.16219,0.35011c-0.30442,-0.02735 -0.57761,-0.10107 -0.81956,-0.22123c-0.00797,-0.239 -0.03593,-0.48089 0.05633,-0.70526c0.00746,-0.03289 -0.00139,-0.08514 0.00605,-0.11804c0.01442,-0.33763 0.03256,-0.69174 0.06701,-1.02647c0.0135,-0.15091 0.04335,-0.28247 0.0368,-0.43632c-0.0191,-0.18964 0.00555,-0.38991 0.14679,-0.5562c0.10396,-0.00184 0.18413,0.00982 0.26804,0.00507c0.1403,0.02045 0.29698,0.06021 0.43726,0.08063z" fill="#87d7dc"/><path d="M187.90704,195.04922c0.1884,0.26525 0.22897,0.5429 0.2495,0.81774c0.00514,0.0687 -0.01725,0.16737 -0.05218,0.23023c-0.26846,0.45354 -0.45679,0.91876 -0.62502,1.38688c-0.00373,0.01645 -0.03122,0.0464 -0.055,0.05996c-0.09138,0.03764 -0.19161,0.0231 -0.28064,-0.04084c0.00746,-0.03289 -0.00517,-0.06872 0.00231,-0.10159c0.10955,-0.39171 0.15891,-0.79225 0.10433,-1.1909c-0.0154,-0.20608 0.02561,-0.387 0.17056,-0.56973c0.16874,-0.19625 0.27732,-0.40127 0.48617,-0.59174z" fill="#cce5e6"/><path d="M186.14142,197.35718c-0.13145,0.03184 -0.2079,0.00371 -0.25686,-0.05438c0.13887,-0.79517 0.13883,-0.79516 -0.02533,-1.53252c0.10347,-0.27373 0.30714,-0.53284 0.46704,-0.78134c0.14779,-0.01245 0.14543,0.08912 0.17434,0.14429c0.09932,0.20131 0.20236,0.3862 0.25784,0.59814c0.03033,0.14034 0.02423,0.25836 -0.04565,0.38403c-0.21349,0.39363 -0.41062,0.80655 -0.57142,1.24179z" fill="#cce5e6"/><path d="M184.16437,219.78115c-0.08392,0.00476 -0.16413,-0.00691 -0.26804,-0.00506c-0.14124,0.1663 -0.16591,0.36653 -0.14678,0.55621c0.00656,0.15385 -0.02326,0.28539 -0.0368,0.43633c-0.03446,0.33474 -0.05261,0.68881 -0.06702,1.02646c-0.00746,0.03289 0.00142,0.08516 -0.00607,0.11804c-0.07595,0.24375 -0.04426,0.46919 -0.05636,0.70524c-0.15291,-0.05622 -0.2858,-0.10957 -0.42379,-0.23159c0.04424,-0.4692 0.0521,-0.96072 0.1201,-1.44343c0.04424,-0.4692 0.00831,-0.95007 0.12011,-1.4434c0.31698,0.06315 0.54263,0.16393 0.76457,0.28115z" fill="#60adb2"/><path d="M190.7036,199.70312c0.08391,-0.00477 0.1478,-0.01244 0.23169,-0.01722c0.03266,0.03873 0.04892,0.05809 0.06525,0.07743c0.01682,0.29123 0.0975,0.57478 0.19819,0.86121c0.03404,0.12387 0.03173,0.22548 -0.05451,0.3318c-0.15242,0.21563 -0.26844,0.45354 -0.5738,0.61294c-0.19207,-0.24881 -0.27278,-0.53234 -0.33338,-0.81297c-0.0089,-0.05223 0.02987,-0.13155 0.06478,-0.1944c0.12719,-0.28722 0.25448,-0.57453 0.40178,-0.85885z" fill="#cce5e6"/><path d="M191.92737,195.58355c0.04292,0.1761 0.08065,0.28355 0.1147,0.40742c0.05175,0.22839 0.02707,0.42861 -0.14538,0.64134c-0.26989,0.36837 -0.48332,0.76203 -0.57653,1.17312c-0.02985,0.13155 -0.05361,0.14506 -0.29044,0.09363c0.01119,-0.04934 0.0023,-0.10158 0.01351,-0.15094c0.11324,-0.40819 0.14257,-0.81159 0.11175,-1.22378c0.00235,-0.10159 0.00093,-0.18673 0.05962,-0.26313c0.21627,-0.22334 0.3925,-0.45246 0.71275,-0.67762z" fill="#cae2e3"/><path d="M188.50308,197.71803c-0.01629,-0.01935 -0.02894,-0.05521 -0.02517,-0.07163c0.12581,-0.37235 0.12765,-0.74581 0.10573,-1.10578c-0.00564,-0.34054 0.06519,-0.65302 0.3365,-0.93625c0.13379,-0.1334 0.1948,-0.31138 0.36499,-0.42249c0.24247,0.39202 0.23315,0.79837 0.01083,1.13971c-0.26103,0.42066 -0.53834,0.82193 -0.62641,1.30177c-0.03122,0.04642 -0.04616,0.11218 -0.16642,0.09469z" fill="#c9e1e2"/><path d="M190.52048,195.39571c0.14081,0.2923 0.16881,0.53417 0.19307,0.79251c0.00138,0.08514 -0.01725,0.16736 -0.07225,0.22731c-0.2848,0.43419 -0.5332,0.89063 -0.74155,1.35291c-0.00746,0.03289 -0.03866,0.07929 -0.13518,0.04826c0.0261,-0.1151 0.05591,-0.24664 0.06198,-0.36469c0.05452,-0.33179 0.08896,-0.66653 0.03949,-0.99648c-0.02803,-0.24191 0.04052,-0.45275 0.22557,-0.62965c0.13379,-0.1334 0.2638,-0.2504 0.42883,-0.43021z" fill="#c9e1e2"/><path d="M192.00376,199.72256c0.13895,-0.06469 0.23917,-0.05011 0.33938,-0.03553c0.0163,0.01934 0.02894,0.05519 0.0452,0.07453c-0.01956,0.26895 0.04482,0.53313 0.17678,0.77316c0.0704,0.14614 0.06062,0.28062 -0.03308,0.41987c-0.12116,0.1692 -0.22602,0.3578 -0.38359,0.50476c-0.18694,-0.1801 -0.38794,-0.48116 -0.39819,-0.61857c-0.02147,-0.08804 0.03353,-0.14801 0.07226,-0.2273c0.04334,-0.28246 0.1906,-0.56682 0.18127,-0.89088z" fill="#cae3e4"/><path d="M184.90212,199.80977c0.26008,-0.23392 0.46009,-0.47659 0.64374,-0.73865c0.12769,-0.01538 0.20794,-0.00371 0.29698,0.0602c0.03313,0.31057 -0.08528,0.65006 -0.03209,0.96358c-0.14125,0.16629 -0.32396,0.24161 -0.49409,0.35276c-0.09506,0.05409 -0.17383,0.12755 -0.3179,0.12357c-0.1119,-0.23713 -0.0322,-0.49731 -0.09656,-0.76149z" fill="#c8e0e1"/><path d="M188.28465,199.50386c0.17667,0.0427 0.18181,0.1114 0.18695,0.1801c0.02428,0.25837 0.05226,0.50022 0.05649,0.75565c0.00514,0.06871 -0.00977,0.13448 -0.06477,0.19444c-0.18132,0.16044 -0.38271,0.31797 -0.60038,0.45619c-0.07783,-0.11325 -0.07554,-0.21486 -0.11331,-0.32228c-0.11329,-0.32225 -0.06999,-0.60473 0.25023,-0.82992c0.15012,-0.11405 0.22748,-0.27266 0.28478,-0.43419z" fill="#cbe4e5"/><path d="M187.02174,199.31999c0.10022,0.01457 0.16036,0.02333 0.22051,0.03208c0.01258,0.03581 0.04892,0.05811 0.04521,0.07453c-0.00097,0.18673 -0.02185,0.37055 -0.02278,0.55727c-0.00235,0.1016 -0.04103,0.18089 -0.11981,0.25436c-0.23631,0.2204 -0.489,0.42143 -0.80178,0.61373c-0.1068,-0.16842 -0.09326,-0.31934 -0.07976,-0.47025c0.01493,-0.06575 0.02986,-0.13156 0.08107,-0.17504c0.32025,-0.22518 0.51508,-0.53655 0.6773,-0.88666z" fill="#c8e0e1"/><path d="M185.80549,204.13709c-0.04102,0.18088 -0.10581,0.37532 -0.04655,0.57081c0.02517,0.07162 -0.01353,0.15089 -0.03214,0.23313c-0.34449,-0.03317 -0.65405,-0.12919 -0.92864,-0.28811c0.09229,-0.22439 0.06429,-0.46625 0.06892,-0.66942c0.15895,-0.0618 0.28811,0.00797 0.4158,-0.00743c0.18415,0.00983 0.38089,0.05547 0.52262,0.16102z" fill="#85d5d9"/><path d="M193.26818,196.61116c-0.15616,0.23208 -0.31226,0.46416 -0.45213,0.71558c-0.11234,0.22147 -0.01161,0.50792 -0.36824,0.71079c0.12672,-0.55909 0.09826,-1.07288 0.06978,-1.58663c0.14125,-0.16629 0.30623,-0.34612 0.54027,-0.46492c0.03266,0.03873 0.04895,0.0581 0.06526,0.07743c0.06295,0.17901 0.10587,0.35517 0.14504,0.54769z" fill="#c6dede"/><path d="M187.71584,194.61368c-0.20371,0.25915 -0.37986,0.48826 -0.58356,0.74741c-0.13798,-0.12202 -0.16833,-0.26233 -0.24619,-0.37558c-0.07416,-0.12968 -0.19209,-0.24883 -0.21867,-0.40555c0.0261,-0.1151 0.12864,-0.20211 0.21111,-0.29201c0.08248,-0.08992 0.18508,-0.17689 0.30766,-0.26099c0.25827,0.13953 0.37388,0.36022 0.52963,0.58675z" fill="#cae3e3"/><path d="M184.85103,197.20328c-0.02851,-0.51377 -0.07563,-0.94531 -0.24677,-1.37789c0.12867,-0.20212 0.23726,-0.40712 0.36963,-0.62567c0.23079,0.16949 0.28629,0.38142 0.38557,0.58271c0.01258,0.03581 0.00139,0.08516 -0.00608,0.11803c-0.15334,0.40234 -0.30665,0.80472 -0.50238,1.3028z" fill="#cae3e4"/><path d="M189.18595,201.2828c-0.14081,-0.29229 -0.24529,-0.56231 0.0097,-0.86492c0.17247,-0.21272 0.24844,-0.45647 0.32439,-0.70021c0.02237,-0.09869 0.1263,-0.10054 0.23915,-0.05014c-0.09971,0.25726 -0.05542,0.51855 -0.0111,0.77981c0.03919,0.19255 -0.03444,0.33472 -0.16823,0.46813c-0.11001,0.11987 -0.18368,0.26204 -0.39392,0.36733z" fill="#c8e0e1"/><path d="M185.57417,202.96529c0.22705,0.18594 0.12215,0.37449 0.05738,0.56893c-0.10253,0.08697 -0.21535,0.0366 -0.31928,0.03846c-0.25685,-0.05439 -0.48249,-0.1552 -0.70072,-0.2889c0.06104,-0.17796 0.02189,-0.37052 0.15937,-0.52038c0.10397,-0.00184 0.16412,0.00691 0.24428,0.01857c0.19303,0.06207 0.38601,0.12411 0.55897,0.18329z" fill="#85d4d9"/><path d="M187.28346,200.6321c0.06435,0.26417 0.09609,0.48962 0.14787,0.718c-0.22142,0.15461 -0.45913,0.28989 -0.7095,0.38932c-0.13289,-0.05331 -0.15058,-0.15782 -0.19581,-0.23234c-0.04522,-0.07453 -0.09044,-0.14905 -0.04428,-0.26125c0.20513,-0.17396 0.47778,-0.37209 0.80177,-0.61373z" fill="#c7dfe0"/><path d="M190.24794,201.89609c-0.17763,0.14402 -0.33516,0.29092 -0.56917,0.40977c-0.20702,-0.18302 -0.2625,-0.39493 -0.35435,-0.62914c0.18506,-0.1769 0.37009,-0.35382 0.5589,-0.54717c0.14826,0.25941 0.24013,0.49367 0.36461,0.76656z" fill="#c8e0e1"/><path d="M188.79737,194.22751c0.13055,0.15494 0.26106,0.30981 0.32031,0.5053c-0.17247,0.21272 -0.36498,0.4225 -0.56121,0.64872c-0.04006,-0.00584 -0.08016,-0.01168 -0.07643,-0.02813c-0.08673,-0.16552 -0.1697,-0.34745 -0.2364,-0.51005c-0.02517,-0.07163 -0.03035,-0.14033 0.02093,-0.18381c0.16502,-0.17981 0.26989,-0.36839 0.53282,-0.43207z" fill="#c4dcdd"/><path d="M191.74883,195.18385c-0.20883,0.19042 -0.39762,0.38376 -0.60646,0.57422c-0.14916,-0.07269 -0.11933,-0.20423 -0.15711,-0.31166c-0.03776,-0.10741 -0.05178,-0.22838 -0.08583,-0.35223c0.14496,-0.18273 0.37527,-0.28505 0.57294,-0.4262c0.19438,0.1472 0.2373,0.32334 0.27646,0.51589z" fill="#c8e0e1"/><path d="M190.82775,201.89558c0.19254,-0.20978 0.36128,-0.40608 0.55752,-0.6323c0.17065,0.16072 0.22984,0.35623 0.38046,0.51406c-0.13241,0.21853 -0.3664,0.33737 -0.5715,0.51132c-0.17809,-0.12785 -0.31982,-0.23341 -0.36642,-0.39309z" fill="#c6ddde"/><path d="M193.30624,199.6404c0.1371,0.30876 0.16652,0.63577 0.37118,0.92038c-0.10486,0.18858 -0.18598,0.36365 -0.3673,0.5241c-0.21443,-0.15013 -0.32125,-0.31857 -0.22524,-0.55938c0.12722,-0.28722 0.15424,-0.58908 0.22134,-0.8851z" fill="#b9cfd0"/><path d="M183.78067,196.80961c-0.10907,-0.06685 -0.03036,-0.14033 -0.03546,-0.20899c-0.00653,-0.15384 0.00695,-0.30472 -0.09097,-0.42095c-0.11935,-0.20425 -0.05835,-0.38219 0.02651,-0.5737c0.03871,-0.07931 0.0974,-0.1557 0.1636,-0.26496c0.21963,0.21882 0.38277,0.41247 0.23178,0.71322c-0.10858,0.20504 -0.14076,0.43817 -0.20926,0.64902c-0.01122,0.04933 -0.02237,0.09868 -0.08623,0.10636z" fill="#c0d8d8"/><path d="M183.89061,200.07018c-0.06668,-0.16261 -0.07694,-0.29998 -0.04714,-0.43152c0.01493,-0.06575 0.03352,-0.14802 0.0848,-0.1915c0.22889,-0.18751 0.40133,-0.40022 0.57382,-0.61294c0.1403,0.02046 0.10535,0.08328 0.09419,0.13265c-0.03728,0.16445 -0.07827,0.34535 -0.07546,0.51562c-0.00837,0.21961 -0.10206,0.35886 -0.32862,0.44481c-0.11141,0.03474 -0.18274,0.07532 -0.30157,0.14293z" fill="#c1d9d9"/><path d="M188.80692,201.58437c-0.16125,0.16335 -0.3515,0.27157 -0.54912,0.41267c-0.19813,-0.13076 -0.21722,-0.32039 -0.30399,-0.48593c0.18878,-0.19336 0.44282,-0.30925 0.6843,-0.46095c0.10303,0.18489 0.1259,0.3581 0.16883,0.53422z" fill="#c3dbdc"/><path d="M189.83421,195.49966c-0.06812,-0.24774 -0.11985,-0.47614 -0.19166,-0.70742c0.11371,-0.13636 0.22374,-0.2562 0.42651,-0.32862c0.15059,0.15784 0.21353,0.33686 0.29658,0.51882c-0.12867,0.20211 -0.28989,0.36546 -0.53136,0.51718z" fill="#c3dadb"/><path d="M186.85139,202.08106c0.23403,-0.11882 0.44424,-0.22409 0.65446,-0.32938c0.17436,0.14429 0.23731,0.32333 0.30026,0.50235c-0.17386,0.12758 -0.36031,0.21934 -0.58312,0.28879c-0.05268,-0.04166 -0.12167,-0.10267 -0.15431,-0.14136c-0.07786,-0.11325 -0.11935,-0.20422 -0.21726,-0.32043z" fill="#c4dbdc"/><path d="M183.58975,198.56547c-0.07084,0.31247 -0.12677,0.55915 -0.18635,0.82223c-0.12633,0.10054 -0.26527,0.16522 -0.45682,0.18827c-0.1016,-0.09973 -0.03544,-0.20901 -0.05315,-0.31351c-0.01773,-0.10448 -0.0154,-0.20608 0.00321,-0.28832c0.23777,-0.1353 0.42794,-0.2435 0.69317,-0.4087z" fill="#c2d9da"/><path d="M187.51769,193.75243c0.11001,-0.11987 0.23256,-0.20398 0.36778,-0.25223c0.16408,0.00691 0.22191,0.11729 0.31094,0.18118c0.08903,0.06388 0.20558,0.09787 0.23962,0.22173c-0.07737,0.15861 -0.25124,0.28617 -0.43256,0.44668c-0.08162,-0.09684 -0.16321,-0.19365 -0.2485,-0.27402c-0.07783,-0.11325 -0.15573,-0.2265 -0.23733,-0.32334z" fill="#c5ddde"/><path d="M189.29468,202.53871c-0.13753,0.14987 -0.30907,0.17586 -0.45169,0.25701c-0.20185,-0.11435 -0.30864,-0.28277 -0.43176,-0.47054c0.17013,-0.11114 0.34031,-0.22225 0.49042,-0.3363c0.21442,0.15014 0.26997,0.36208 0.39303,0.54985z" fill="#c3dbdc"/><path d="M185.61163,195.30957c-0.06904,-0.06101 -0.10166,-0.0997 -0.1343,-0.13841c-0.06153,-0.09388 -0.11936,-0.20425 -0.19722,-0.31751c0.19254,-0.20978 0.32488,-0.42835 0.5864,-0.57713c0.13289,0.05331 0.17438,0.14429 0.22846,0.27108c-0.1361,0.235 -0.29971,0.49994 -0.48332,0.76201z" fill="#c7dfe0"/><path d="M185.92033,201.1641c-0.23027,0.10237 -0.38783,0.24927 -0.62697,0.2994c-0.15804,-0.12496 -0.1371,-0.30873 -0.25505,-0.42782c0.2289,-0.18751 0.45914,-0.2899 0.6969,-0.42515c0.16693,0.1772 0.1259,0.35807 0.18516,0.55356z" fill="#c7dee0"/><path d="M185.28671,203.95964c-0.1277,0.01538 -0.25685,-0.05441 -0.41581,0.00743c-0.00837,0.21961 -0.00045,0.45857 -0.06893,0.66943c-0.07647,-0.02812 -0.17296,-0.05917 -0.24568,-0.10369c-0.10907,-0.06685 -0.17061,-0.16074 -0.14455,-0.27588c0.02467,-0.20023 0.04561,-0.38403 0.07034,-0.58431c0.26061,0.03794 0.37716,0.0719 0.80465,0.28703z" fill="#61acb1"/><path d="M193.01074,195.55443c-0.17763,0.14402 -0.32768,0.25803 -0.52535,0.39915c-0.07181,-0.23128 -0.14736,-0.4461 -0.19913,-0.67448c0.13001,-0.11697 0.25639,-0.21748 0.41907,-0.29572c0.16691,0.17719 0.22985,0.35621 0.3054,0.57105z" fill="#c2dada"/><path d="M183.9088,200.44655c0.17763,-0.14402 0.36033,-0.21933 0.57061,-0.32461c0.02802,0.24191 0.06345,0.45092 0.09889,0.65994c-0.11371,0.13635 -0.26525,0.16523 -0.44424,0.22409c-0.15432,-0.14136 -0.17347,-0.33105 -0.22524,-0.55938z" fill="#c1d9d9"/><path d="M190.75718,194.71671c-0.14312,-0.19073 -0.23358,-0.33977 -0.34408,-0.49179c0.09741,-0.15569 0.28388,-0.24745 0.47036,-0.33921c0.16174,0.10849 0.29975,0.23051 0.38276,0.41247c-0.10487,0.18857 -0.32401,0.24161 -0.50903,0.41854z" fill="#c6dedf"/><path d="M190.8265,202.54091c-0.17385,0.12757 -0.36408,0.23578 -0.53419,0.34691c-0.17667,-0.0427 -0.28204,-0.12599 -0.37625,-0.25864c0.12867,-0.20211 0.37527,-0.28506 0.55659,-0.44556c0.16553,0.09203 0.23962,0.22174 0.35386,0.35728z" fill="#c0d7d7"/><path d="M184.75671,194.87929c-0.12117,0.1692 -0.18598,0.36362 -0.40365,0.50183c-0.0942,-0.13265 -0.19209,-0.24885 -0.29,-0.36499c0.04475,-0.19731 0.18225,-0.34716 0.37243,-0.45536c0.14917,0.07269 0.23074,0.16948 0.32123,0.31853z" fill="#c3dadb"/><path d="M185.03522,202.7849c-0.0802,-0.01168 -0.16412,-0.00689 -0.24432,-0.01855c-0.13753,0.14988 -0.09836,0.34239 -0.15937,0.52038c-0.14404,-0.00399 -0.20187,-0.11435 -0.33846,-0.1512c-0.03172,-0.22545 0.07312,-0.41404 -0.01873,-0.64823c0.20418,0.01276 0.31325,0.07957 0.44245,0.14935c0.09279,0.04746 0.24057,0.03505 0.3184,0.14828z" fill="#5aa0a4"/><path d="M194.25471,201.12043c-0.12117,0.1692 -0.18599,0.36366 -0.37989,0.4883c-0.13289,-0.05331 -0.19815,-0.1308 -0.29608,-0.24694c0.08111,-0.17507 0.20228,-0.34427 0.3561,-0.47478c0.13289,0.05332 0.20187,0.11434 0.3198,0.23342z" fill="#bdd3d4"/><path d="M187.55913,202.7956c0.16271,-0.07824 0.30534,-0.15938 0.44796,-0.24053c0.16176,0.1085 0.25596,0.24112 0.34642,0.39017c-0.08996,0.12277 -0.23777,0.1353 -0.37806,0.11485c-0.18042,-0.02623 -0.3608,-0.0525 -0.41632,-0.26446z" fill="#bdd4d5"/><path d="M194.20662,196.76477c-0.14496,0.18272 -0.28621,0.34905 -0.43114,0.53177c-0.12218,-0.37449 -0.15155,-0.70154 0.31273,-0.92272c0.1016,0.09973 0.09184,0.23421 0.11843,0.39094z" fill="#bbd2d3"/><path d="M185.78062,202.146c-0.14543,-0.08913 -0.20327,-0.19949 -0.26106,-0.30983c0.0261,-0.1151 0.1338,-0.13341 0.2289,-0.1875c0.07131,-0.04057 0.14635,-0.09758 0.27037,-0.0965c0.14543,0.08913 0.10819,0.25355 0.24992,0.35912c-0.15382,0.1305 -0.31276,0.1923 -0.48803,0.23474z" fill="#c3dadb"/><path d="M188.97901,197.71935c0.10723,-0.29015 0.21438,-0.58032 0.40178,-0.85881c0.11652,0.03396 0.11799,0.11911 0.0993,0.20132c-0.02843,0.21669 -0.07685,0.43043 -0.1216,0.62778c-0.03355,0.148 -0.1613,0.1634 -0.37945,0.02969z" fill="#b1c6c7"/><path d="M191.96163,202.74013c0.06987,-0.12571 0.20137,-0.15755 0.30018,-0.22808c0.17762,-0.14403 0.36175,-0.1342 0.5837,-0.01694c-0.17247,0.21271 -0.44659,0.32567 -0.67684,0.42805c-0.1366,-0.03687 -0.1893,-0.07852 -0.20702,-0.18302z" fill="#bbd2d3"/><path d="M191.70244,197.94599c-0.00936,-0.32413 0.19432,-0.58322 0.3817,-0.86174c0.06811,0.24774 0.01214,0.4944 -0.01997,0.72753c-0.0135,0.15092 -0.0811,0.17509 -0.36173,0.13419z" fill="#bad1d2"/><path d="M194.31283,200.04176c0.11049,0.15199 0.22844,0.27109 0.33894,0.42305c-0.03869,0.07931 -0.12492,0.18567 -0.19111,0.29493c-0.3422,-0.13476 -0.33847,-0.1512 -0.26997,-0.36208c0.02611,-0.1151 0.07226,-0.22731 0.12211,-0.35593z" fill="#b5cbcc"/><path d="M190.14223,193.31917c0.18926,0.07853 0.29095,0.17824 0.39255,0.27798c-0.09369,0.13925 -0.26899,0.18165 -0.43164,0.25991c-0.12172,-0.10262 -0.22328,-0.20238 -0.34498,-0.30503c0.05359,-0.14507 0.24144,-0.15172 0.38411,-0.23287z" fill="#c0d7d8"/><path d="M192.79545,201.16284c0.11279,0.05042 0.17438,0.14428 0.23221,0.25463c-0.10862,0.20502 -0.28991,0.36549 -0.50389,0.48721c-0.14404,-0.00399 -0.17296,-0.05916 -0.19438,-0.1472c0.14864,-0.19919 0.29737,-0.39839 0.46612,-0.59463z" fill="#bdd4d4"/><path d="M193.31472,195.30991c-0.08673,-0.16552 -0.14968,-0.34453 -0.23641,-0.51006c0.09884,-0.07054 0.20652,-0.08885 0.32678,-0.07136c0.11279,0.05041 0.13428,0.13844 0.17577,0.2294c0.02517,0.07163 0.05036,0.14322 0.07555,0.21485c-0.0825,0.08994 -0.17761,0.14403 -0.34172,0.13712z" fill="#b6cccc"/><path d="M189.44025,194.40608c-0.11048,-0.15199 -0.20467,-0.2846 -0.33523,-0.43953c0.04239,-0.09574 0.12491,-0.18569 0.31653,-0.20875c0.12173,0.10262 0.23964,0.22173 0.37762,0.34374c-0.11001,0.11987 -0.19623,0.22625 -0.35894,0.30449z" fill="#c1d9d9"/><path d="M194.00088,195.9364c-0.11001,0.11987 -0.21255,0.20689 -0.37152,0.26866c-0.11049,-0.15199 -0.11329,-0.32229 -0.14361,-0.46259c0.06987,-0.12571 0.19763,-0.14109 0.30904,-0.17584c0.0564,0.0252 0.0965,0.03105 0.09279,0.04746c0.03773,0.10742 0.07552,0.21484 0.11329,0.32229z" fill="#b7cdce"/><path d="M194.74285,197.50534c-0.11934,-0.20425 -0.08583,-0.35224 -0.09237,-0.50608c-0.02288,-0.17321 0.11233,-0.22147 0.27126,-0.28327c0.11049,0.15199 0.11703,0.30582 0.16739,0.44906c-0.07738,0.15861 -0.28902,0.17877 -0.34633,0.34029z" fill="#b6cccc"/><path d="M193.61973,201.91135c-0.13003,0.11697 -0.23257,0.20395 -0.33886,0.30739c-0.18415,-0.00983 -0.30442,-0.02735 -0.42609,-0.12998c0.15383,-0.13049 0.28761,-0.26391 0.41763,-0.38087c0.19158,-0.0231 0.24938,0.08729 0.36595,0.12121c-0.00746,0.03289 0.00515,0.06872 -0.01861,0.08224z" fill="#c2dada"/><path d="M189.03273,193.4634c-0.08624,0.10633 -0.15754,0.14693 -0.26524,0.16525c-0.12402,-0.00108 -0.18926,-0.07852 -0.27833,-0.14243c-0.06902,-0.06101 -0.20559,-0.09788 -0.19955,-0.21591c0.1226,-0.08405 0.26149,-0.14877 0.44939,-0.1554c0.11797,0.11909 0.19582,0.23236 0.29375,0.34855z" fill="#bbd2d3"/><path d="M184.23985,201.36108c0.15895,-0.06179 0.2741,-0.11298 0.40928,-0.16126c0.11426,0.13555 0.16457,0.27878 0.235,0.42495c-0.10253,0.08698 -0.2177,0.13821 -0.358,0.11772c-0.03639,-0.02228 -0.0727,-0.04457 -0.08534,-0.08038c-0.06526,-0.07743 -0.12681,-0.17138 -0.20095,-0.30106z" fill="#bbd2d3"/><path d="M194.85773,200.10409c-0.19956,-0.21592 -0.19957,-0.21592 -0.23639,-0.51005c0.13006,-0.11697 0.29415,-0.11005 0.48573,-0.1331c0.00796,0.239 -0.14073,0.43816 -0.24933,0.64318z" fill="#adc2c3"/><path d="M186.06924,202.42584c0.10253,-0.08698 0.23778,-0.13526 0.38178,-0.13126c0.11426,0.13555 0.21217,0.25167 0.30628,0.38432c-0.37806,0.11484 -0.3981,0.11195 -0.68812,-0.25303z" fill="#b5cbcc"/><path d="M192.51561,194.63301c-0.12632,0.10054 -0.22517,0.17105 -0.38412,0.23284c-0.1417,-0.10555 -0.1683,-0.26233 -0.25876,-0.41141c0.05129,-0.0435 0.09881,-0.07052 0.14635,-0.0976c0.04755,-0.02706 0.1114,-0.03475 0.17901,-0.05889c0.16923,0.0756 0.24707,0.18884 0.31752,0.33502z" fill="#bbd1d2"/><path d="M183.2123,200.41309c-0.17436,-0.1443 -0.14968,-0.34454 -0.22011,-0.49068c0.10629,-0.10341 0.25034,-0.09948 0.38556,-0.14773c0.09933,0.2013 0.10212,0.3716 0.00097,0.54372c-0.0112,0.04933 -0.09882,0.07055 -0.1664,0.09468z" fill="#b6cccd"/><path d="M185.6017,193.98309c-0.18878,0.19336 -0.3939,0.36732 -0.57894,0.54422c-0.1366,-0.03688 -0.20558,-0.09786 -0.25968,-0.22464c0.24144,-0.15172 0.48291,-0.30341 0.77332,-0.39703c0.03266,0.03875 0.04895,0.0581 0.06527,0.07743z" fill="#acc1c2"/><path d="M190.7089,197.12187c0.01168,0.22254 0.00331,0.44216 -0.08526,0.65007c-0.03871,0.07931 -0.11372,0.13633 -0.21394,0.12174c-0.04005,-0.00584 -0.1128,-0.05042 -0.10908,-0.06686c0.03587,-0.24958 0.2321,-0.47582 0.40828,-0.70497z" fill="#a7bbbb"/><path d="M191.98452,193.96111c-0.06247,0.09284 -0.17386,0.12758 -0.30531,0.15939c-0.11797,-0.11909 -0.23591,-0.2382 -0.35386,-0.35729c0.11001,-0.11987 0.23401,-0.1188 0.37431,-0.09837c0.10907,0.06685 0.20702,0.18301 0.28486,0.2963z" fill="#b7cdcd"/><path d="M189.05653,203.13255c0.13753,-0.14988 0.29648,-0.21162 0.47547,-0.27053c0.14917,0.07269 0.25455,0.15597 0.30117,0.31565c-0.26291,0.06364 -0.49975,0.01216 -0.77666,-0.04511z" fill="#b7cece"/><path d="M182.42526,198.76966c-0.09559,-0.21776 0.03306,-0.41985 -0.02992,-0.59889c0.10253,-0.08697 0.179,-0.05886 0.20793,-0.00369c0.07042,0.14614 0.11705,0.30584 0.07975,0.47026c-0.03123,0.04642 -0.03497,0.06285 -0.25778,0.13234z" fill="#b4cacb"/><path d="M186.3774,194.21497c-0.10907,-0.06683 -0.15805,-0.12493 -0.17952,-0.21297c0.17762,-0.14403 0.35894,-0.30448 0.6694,-0.39517c-0.04334,0.28246 -0.26103,0.42063 -0.48989,0.60816z" fill="#b2c8c9"/><path d="M185.05757,201.95579c0.12172,0.10262 0.20701,0.18302 0.22472,0.28752c-0.03495,0.06285 -0.09883,0.07058 -0.16271,0.07825c-0.25544,0.03075 -0.32959,-0.09897 -0.39253,-0.27798c0.10768,-0.01832 0.2191,-0.05306 0.33051,-0.08779z" fill="#b5cbcb"/><path d="M193.08281,197.9771c0.02842,-0.21669 0.06941,-0.39756 0.17428,-0.58612c0.10396,-0.00183 0.13287,0.05331 0.12169,0.10263c-0.00607,0.11805 0.00795,0.23901 0.00189,0.35702c-0.02985,0.13155 -0.11746,0.15274 -0.29785,0.12646z" fill="#91a3a3"/><path d="M185.53994,196.5392c0.09559,0.21776 0.02708,0.42862 -0.01766,0.62595c-0.00746,0.03289 -0.05501,0.05996 -0.09883,0.07054c-0.04006,-0.00584 -0.09278,-0.04746 -0.08906,-0.06393c-0.00796,-0.239 0.0806,-0.44692 0.20553,-0.63258z" fill="#99abac"/><path d="M184.45106,196.95821c-0.15523,0.04535 -0.25545,0.03074 -0.27691,-0.05732c-0.01398,-0.12096 0.06338,-0.27954 0.19201,-0.48165c0.10307,0.18489 0.06206,0.36574 0.0849,0.53894z" fill="#93a5a6"/><path d="M191.0457,203.2183c0.20139,-0.15752 0.38642,-0.33444 0.71744,-0.15037c-0.20513,0.17395 -0.46569,0.13603 -0.71744,0.15037z" fill="#9aadad"/><path d="M191.44343,200.18455c-0.03033,-0.14033 -0.0569,-0.29705 -0.09093,-0.42095c0.07879,-0.07346 0.14264,-0.08117 0.2592,-0.04718c0.0667,0.16262 -0.05076,0.31538 -0.06425,0.46629c-0.04006,-0.00584 -0.06014,-0.00877 -0.10398,0.00185z" fill="#c5dddd"/><path d="M188.07087,196.97559c0.13195,0.24004 0.08346,0.45384 -0.04515,0.65593c-0.00373,0.01645 -0.04756,0.02707 -0.08765,0.02123c-0.06387,0.00768 -0.09278,-0.04746 -0.08531,-0.08037c0.02092,-0.1838 0.12583,-0.3724 0.21811,-0.5968z" fill="#aec2c3"/><path d="M183.50835,200.66003c0.11049,0.15199 0.13337,0.32517 0.15993,0.48195c-0.07877,0.07347 -0.15525,0.04534 -0.18044,-0.02625c-0.0541,-0.12681 -0.11188,-0.23713 -0.14219,-0.37744c-0.03266,-0.03875 0.03867,-0.07929 0.16269,-0.07823z" fill="#9caeaf"/><path d="M191.00043,193.46111c-0.16924,-0.07561 -0.27457,-0.15887 -0.39254,-0.27799c0.27551,-0.02784 0.48482,0.05359 0.72537,0.08862c-0.03124,0.04644 -0.03871,0.07931 -0.06247,0.0928c-0.09138,0.03764 -0.17898,0.05887 -0.27034,0.09654z" fill="#a9bebf"/><path d="M186.30008,199.21489c0.14779,-0.01245 0.2242,0.01565 0.29325,0.0767c-0.01726,0.16736 -0.11094,0.30658 -0.34868,0.44187c0.00464,-0.20319 0.03821,-0.35117 0.05541,-0.51854z" fill="#b9cfd0"/><path d="M192.6876,199.72018c0.07878,-0.07345 0.16271,-0.07821 0.2466,-0.08301c0.09277,0.04749 0.07415,0.12968 -0.07548,0.51561c-0.21819,-0.13369 -0.11705,-0.30583 -0.17113,-0.43262z" fill="#869797"/><path d="M186.86065,196.83339c-0.11979,0.25436 0.00844,0.51087 -0.31693,0.66732c-0.02428,-0.25836 0.04047,-0.45275 0.31693,-0.66732z" fill="#93a4a5"/><path d="M194.30788,197.32306c-0.05591,0.24664 -0.09321,0.41111 -0.13048,0.57555c-0.00746,0.03289 -0.05501,0.05996 -0.11513,0.05117c-0.02008,-0.00292 -0.05641,-0.02521 -0.07274,-0.04456c0.00461,-0.20316 0.04564,-0.38411 0.31832,-0.58218z" fill="#94a5a6"/><path d="M193.70581,199.61363c0.13521,-0.04824 0.19903,-0.05596 0.28436,0.0244c-0.00978,0.13446 -0.02327,0.2854 -0.1207,0.44109c-0.17434,-0.14433 -0.13707,-0.30873 -0.16368,-0.46546z" fill="#abbfc0"/><path d="M194.80098,196.42659c-0.10768,0.01831 -0.1515,0.0289 -0.19162,0.02307c-0.16833,-0.26232 -0.1683,-0.2623 -0.05597,-0.48376c0.17809,0.12785 0.14085,0.29227 0.24756,0.4607z" fill="#acc0c1"/><path d="M191.48527,202.4669c0.15012,-0.11405 0.28387,-0.24745 0.45402,-0.35858c0.07131,-0.04057 0.15151,-0.02887 0.18926,0.07852c-0.17763,0.14402 -0.35147,0.27158 -0.64328,0.28004z" fill="#9fb2b2"/><path d="M192.86477,194.46296c-0.08534,-0.0804 -0.13426,-0.13848 -0.15572,-0.2265c0.055,-0.05997 0.12259,-0.08409 0.22655,-0.08594c0.11653,0.03397 0.17806,0.12785 0.23962,0.22176c-0.06247,0.09284 -0.18646,0.09176 -0.31043,0.09067z" fill="#aec2c3"/><path d="M188.98817,199.96299c-0.1417,-0.10554 -0.11563,-0.2207 -0.1096,-0.33871c0.01122,-0.04933 0.07876,-0.07345 0.13891,-0.06469c0.04006,0.00584 0.09281,0.04748 0.08532,0.08037c0.03776,0.10741 -0.0247,0.20028 -0.11466,0.32304z" fill="#91a2a3"/><path d="M189.68205,193.06531c-0.28389,0.24745 -0.30763,0.26102 -0.51605,-0.00716c0.16782,-0.00952 0.32678,-0.07134 0.51605,0.00716z" fill="#869696"/><path d="M183.33221,196.77829c-0.15058,-0.15784 -0.0681,-0.24771 -0.02195,-0.35994c0.16175,0.1085 0.16175,0.1085 0.02195,0.35994z" fill="#555f5f"/><path d="M190.31154,199.69701c-0.01863,0.08223 -0.04473,0.19731 -0.13096,0.30369c-0.14686,-0.17428 -0.13194,-0.24004 -0.02571,-0.34347c0.02751,-0.02998 0.08767,-0.02123 0.15664,0.03981z" fill="#93a5a6"/><path d="M195.11993,197.57722c0.15573,0.22651 0.12826,0.2565 -0.20371,0.25911c-0.01398,-0.12097 0.08479,-0.19151 0.20371,-0.25911z" fill="#8b9b9c"/><path d="M183.04175,196.14148c0.02286,0.17321 -0.02702,0.30181 -0.07691,0.43048c-0.13145,0.03184 -0.18414,-0.00984 -0.16921,-0.07562c0.02982,-0.13155 0.0797,-0.26019 0.24608,-0.35486z" fill="#9aacad"/><path d="M194.28437,195.41707c0.1016,0.09973 0.21072,0.16659 0.16087,0.29523c-0.00375,0.01645 -0.02749,0.02999 -0.04754,0.02707c-0.17297,-0.05917 -0.1907,-0.16369 -0.11331,-0.32228z" fill="#5f6a6b"/><path d="M187.67488,199.63591c-0.04522,-0.07453 -0.03033,-0.14034 0.00466,-0.20319c0.02751,-0.02998 0.07505,-0.05702 0.11141,-0.03473c0.03639,0.02228 0.06902,0.06101 0.06152,0.0939c-0.01493,0.06575 -0.04987,0.12862 -0.17761,0.144z" fill="#636e6f"/><path d="M192.27736,193.76594c0.15151,-0.02888 0.248,0.00212 0.29838,0.14535c-0.17527,0.04242 -0.24429,-0.01855 -0.29838,-0.14535z" fill="#4a5354"/></g><g data-paper-data="{&quot;index&quot;:null}" fill="#000000" stroke="#000000" stroke-width="1.2"><path d="M173.86056,216.30001c-0.10681,-1.79596 2.28359,-4.20992 3.07729,-6.30456c0.85454,-2.25519 0.11848,-4.02485 1.49272,-5.01996c0.95989,-0.69506 2.63687,-0.39641 3.48188,-0.13977c2.05481,0.62405 2.54395,4.23514 1.09254,8.06556c-1.45139,3.83042 -4.29374,6.42971 -6.34852,5.80565c-0.93112,-0.28279 -2.70737,-0.91866 -2.7959,-2.4069z"/><path d="M176.71123,219.36441c-0.12349,-2.50536 2.93054,-7.60251 2.93054,-7.60251c0,0 0.16715,-3.78304 0.19864,-3.86157c2.00565,-5.00552 5.58511,-3.98055 9.63121,-2.75172c1.92568,0.58483 4.62192,2.18318 5.07712,4.07916c0.51625,2.15026 -1.01656,4.47088 -2.08219,7.28319c-2.00524,5.29203 -6.14693,9.04994 -10.25651,7.80182c-1.80902,-0.54941 -5.33384,-1.6022 -5.49879,-4.94839z"/></g></g><path d="M151.71344,217.17569c0,0 3.76279,-5.71623 3.28917,-7.46951c-0.11585,-0.42883 -3.26122,6.72935 -3.77349,6.31981c-2.44285,-1.95299 -8.39999,-3.55544 -8.39999,-3.55544c0,0 5.72709,-6.21084 9.72527,-8.90526c1.10394,-0.74396 3.85887,-0.15579 4.16673,-0.38293c0.39759,-0.29336 10.03476,0.26431 10.40317,0.43975c4.40686,2.09865 8.14432,6.93255 8.14432,6.93255c0,0 -2.538,2.61443 -2.58257,5.65852c-0.00032,0.02163 -2.37212,-4.8483 -2.37707,-4.5092c-0.02975,2.03155 0.67182,5.47095 0.67182,5.47095c0,0 -5.80264,1.14065 -8.69074,1.18623c-3.18384,0.05023 -10.57662,-1.18544 -10.57662,-1.18544z" fill="#676370" fill-rule="nonzero" stroke="#36343b" stroke-width="2.5" stroke-linecap="butt" stroke-linejoin="miter"/><path d="M148.43541,206.11603c0,0 -6.30965,0.51601 -7.76803,0.49736c-0.63697,-0.00814 -1.0981,-0.40844 -1.05919,-0.8633c0.04145,-0.4844 0.60516,-1.02496 0.60516,-1.02496" fill="none" fill-rule="nonzero" stroke="#36343b" stroke-width="1" stroke-linecap="round" stroke-linejoin="miter"/><path d="M142.39056,204.90954l0.14065,-0.08469c0.09461,-0.03466 0.18925,-0.06932 0.28386,-0.10398c1.24522,-0.17785 7.0725,-1.8001 5.17402,0.4729c-1.06649,0.20041 -6.10479,0.85194 -5.92797,-0.12296c0,0 0.07772,-0.22615 0.32945,-0.16128z" fill="#000000" fill-rule="nonzero" stroke="none" stroke-width="0.5" stroke-linecap="butt" stroke-linejoin="miter"/><path d="M150.58518,203.45685c0,0 -2.25713,1.91642 -2.7465,2.27096c-0.26523,0.19215 -3.60091,0.29278 -4.06187,0.31977c-2.03554,0.1192 -3.64663,0.30271 -3.64663,-0.08839c0,-0.13279 -0.01624,-0.74232 0.48874,-0.98715c1.31905,-0.6395 4.41517,-1.25513 6.32836,-1.41844c2.61921,-0.22358 3.63788,-0.09674 3.63788,-0.09674z" fill="url(#color-1)" fill-rule="nonzero" stroke="#737373" stroke-width="0" stroke-linecap="butt" stroke-linejoin="miter"/><g stroke-linejoin="miter"><path d="M134.39279,171.05663c3.67058,0.21168 6.55808,1.55544 6.44941,3.00138c-0.10865,1.44594 -3.17232,2.44649 -6.8429,2.23482c-3.67058,-0.21168 -6.55811,-1.55544 -6.44944,-3.00138c0.10865,-1.44594 3.17234,-2.44648 6.84291,-2.2348z" fill="#000000" fill-rule="nonzero" stroke="#454545" stroke-width="3" stroke-linecap="butt"/><path d="M136.7584,165.63738c3.21512,1.72377 5.08335,4.22092 4.1728,5.57756c-0.91056,1.35663 -4.25507,1.05899 -7.47019,-0.66478c-3.21512,-1.72377 -5.08334,-4.22092 -4.1728,-5.57756c0.91056,-1.35663 4.25506,-1.059 7.47018,0.66477z" fill="#000000" fill-rule="nonzero" stroke="#454545" stroke-width="3" stroke-linecap="butt"/><g stroke-linecap="butt"><path d="M192.3895,185.46921c-2.94671,12.69921 -17.34751,20.78999 -32.16507,18.07127c-14.81756,-2.71871 -24.44078,-15.21738 -21.49406,-27.91656c2.94671,-12.6992 17.34751,-20.78999 32.16508,-18.07129c14.81756,2.71871 24.44077,15.21737 21.49405,27.91656z" fill="none" fill-rule="nonzero" stroke="#000000" stroke-width="4.5"/><g><g fill-rule="nonzero"><path d="M153.11468,162.78246l-0.01029,-0.00986" data-paper-data="{&quot;index&quot;:null}" fill="#ffab19" stroke="#000000" stroke-width="5"/><g data-paper-data="{&quot;index&quot;:null}" fill="none" stroke="none" stroke-width="1" font-family="sans-serif" font-weight="normal" font-size="12" text-anchor="start"/></g><path d="M153.11468,162.78246l-0.01029,-0.00986" data-paper-data="{&quot;index&quot;:null}" fill="#ffab19" fill-rule="nonzero" stroke="#000000" stroke-width="5"/><path d="M164.98509,181.64484" fill="#001026" fill-rule="evenodd" stroke="#000000" stroke-width="5"/><g data-paper-data="{&quot;index&quot;:null}" fill="none" fill-rule="nonzero" stroke="none" stroke-width="1" font-family="sans-serif" font-weight="normal" font-size="12" text-anchor="start"/><g data-paper-data="{&quot;index&quot;:null}" fill="none" fill-rule="nonzero" stroke="none" stroke-width="1" font-family="sans-serif" font-weight="normal" font-size="12" text-anchor="start"/></g></g><path d="M192.25408,171.35286c-0.82387,4.58165 -54.78646,3.22186 -53.96262,-1.35981c0.82387,-4.58165 13.93478,-17.64633 29.47634,-15.44576c15.54158,2.20057 25.31012,12.22391 24.48626,16.80556z" fill="#000000" fill-rule="nonzero" stroke="#454545" stroke-width="3" stroke-linecap="butt"/><path d="M168.1687,181.48481c-0.50635,2.81594 -5.14083,7.98629 -9.85749,7.31844c-4.71669,-0.66786 -7.72946,-6.921 -7.22312,-9.73693c0.50635,-2.81594 17.58696,-0.39744 17.08062,2.41849z" fill="#02004b" fill-rule="nonzero" stroke="#1500ff" stroke-width="4.5" stroke-linecap="butt"/><path d="M191.43455,184.62485c-0.50635,2.81594 -5.14081,7.98628 -9.85748,7.31844c-4.71669,-0.66786 -7.72948,-6.92099 -7.22313,-9.73692c0.50635,-2.81594 17.58696,-0.39744 17.08061,2.41848z" fill="#02004b" fill-rule="nonzero" stroke="#1500ff" stroke-width="4.5" stroke-linecap="butt"/><path d="M168.06596,181.03233l6.87416,0.97333" fill="none" fill-rule="nonzero" stroke="#1500ff" stroke-width="4.5" stroke-linecap="round"/><path d="M134.58698,177.99154l2.34034,-2.46078l13.86814,3.54179" fill="none" fill-rule="nonzero" stroke="#1500ff" stroke-width="4.5" stroke-linecap="round"/></g><path d="M161.87998,202.81564c0,3.84342 -1.87007,6.95915 -4.17692,6.95915c-2.30685,0 -4.17692,-3.11571 -4.17692,-6.95915c0,-3.84342 1.87007,-6.95915 4.17692,-6.95915c2.30685,0 4.17692,3.11571 4.17692,6.95915z" fill="#ff0000" fill-rule="nonzero" stroke="#000000" stroke-width="3" stroke-linecap="butt" stroke-linejoin="miter"/></g></g></svg>