<svg version="1.1" xmlns="http://www.w3.org/2000/svg" xmlns:xlink="http://www.w3.org/1999/xlink" width="41.05282" height="44.08282" viewBox="0,0,41.05282,44.08282"><g transform="translate(-219.74745,-159.40149)"><g data-paper-data="{&quot;isPaintingLayer&quot;:true}" fill="#ff6666" fill-rule="nonzero" stroke="none" stroke-width="0" stroke-linecap="butt" stroke-linejoin="miter" stroke-miterlimit="10" stroke-dasharray="" stroke-dashoffset="0" style="mix-blend-mode: normal"><path d="M249.98818,163.48021c-0.92517,1.97099 -3.00571,1.01561 -2.08054,-0.95538c0.92517,-1.97099 2.14091,-3.35492 2.71544,-3.09109c0.57453,0.26382 0.29028,2.0755 -0.63489,4.04648z"/><path d="M257.92909,190.24735c-1.39265,-0.63565 -0.73657,-2.10555 0.65607,-1.4699c1.39265,0.63565 2.37474,1.48 2.19358,1.8859c-0.18117,0.4059 -1.457,0.21965 -2.84965,-0.416z"/><path d="M222.65079,170.1376c1.4066,0.64776 0.73791,2.13242 -0.66868,1.48467c-1.4066,-0.64776 -2.39717,-1.50523 -2.21252,-1.9152c0.18466,-0.40998 1.47461,-0.21722 2.8812,0.43054z"/><path d="M229.24931,200.30064c0.67855,-1.55292 2.31734,-0.85315 1.63879,0.69977c-0.67855,1.55292 -1.59547,2.65515 -2.048,2.46192c-0.45254,-0.19324 -0.26933,-1.60877 0.40922,-3.16169z"/><path d="M232.49924,183.21436c-0.23979,0.02656 -0.44838,-0.08003 -0.46588,-0.23807c-0.01751,-0.15805 0.16269,-0.3077 0.40248,-0.33426c0.23979,-0.02656 0.30319,0.54576 0.0634,0.57233z"/><path d="M247.69005,178.39572c0.25174,-0.07459 0.49567,-0.00056 0.54484,0.16536c0.04916,0.16592 -0.11505,0.36089 -0.36679,0.43549c-0.25174,0.07459 -0.4298,-0.52625 -0.17805,-0.60085z"/></g></g></svg>