<svg version="1.1" xmlns="http://www.w3.org/2000/svg" xmlns:xlink="http://www.w3.org/1999/xlink" width="262.1108" height="114.678" viewBox="0,0,262.1108,114.678"><defs><linearGradient x1="219.0535" y1="209.08984" x2="237.1009" y2="209.08984" gradientUnits="userSpaceOnUse" id="color-1"><stop offset="0" stop-color="#bebebe"/><stop offset="1" stop-color="#737373"/></linearGradient><linearGradient x1="239.67767" y1="230.21775" x2="272.09585" y2="230.21775" gradientUnits="userSpaceOnUse" id="color-2"><stop offset="0" stop-color="#bebebe"/><stop offset="1" stop-color="#737373"/></linearGradient><linearGradient x1="239.67767" y1="230.21775" x2="272.09585" y2="230.21775" gradientUnits="userSpaceOnUse" id="color-3"><stop offset="0" stop-color="#bebebe"/><stop offset="1" stop-color="#737373"/></linearGradient><linearGradient x1="240.12318" y1="229.90489" x2="268.81516" y2="229.90489" gradientUnits="userSpaceOnUse" id="color-4"><stop offset="0" stop-color="#ffd166"/><stop offset="1" stop-color="#ac880b"/></linearGradient><linearGradient x1="226.89093" y1="220.65092" x2="254.95675" y2="220.65092" gradientUnits="userSpaceOnUse" id="color-5"><stop offset="0" stop-color="#ffd166"/><stop offset="1" stop-color="#ac880b"/></linearGradient><linearGradient x1="226.814" y1="220.70577" x2="255.4663" y2="220.70577" gradientUnits="userSpaceOnUse" id="color-6"><stop offset="0" stop-color="#ffd166"/><stop offset="1" stop-color="#ac880b"/></linearGradient><linearGradient x1="212.90779" y1="231.44012" x2="240.84508" y2="231.44012" gradientUnits="userSpaceOnUse" id="color-7"><stop offset="0" stop-color="#ffd166"/><stop offset="1" stop-color="#ac880b"/></linearGradient><linearGradient x1="214.14656" y1="239.64292" x2="236.05072" y2="239.64292" gradientUnits="userSpaceOnUse" id="color-8"><stop offset="0" stop-color="#bebebe"/><stop offset="1" stop-color="#737373"/></linearGradient><linearGradient x1="214.14656" y1="239.64292" x2="236.05072" y2="239.64292" gradientUnits="userSpaceOnUse" id="color-9"><stop offset="0" stop-color="#bebebe"/><stop offset="1" stop-color="#737373"/></linearGradient><linearGradient x1="223.19209" y1="211.89566" x2="254.76588" y2="211.89566" gradientUnits="userSpaceOnUse" id="color-10"><stop offset="0" stop-color="#bebebe"/><stop offset="1" stop-color="#737373"/></linearGradient><linearGradient x1="263.70369" y1="210.99531" x2="274.82187" y2="202.91762" gradientUnits="userSpaceOnUse" id="color-11"><stop offset="0" stop-color="#bb951b"/><stop offset="1" stop-color="#d6ad39"/></linearGradient><linearGradient x1="257.44504" y1="202.80045" x2="267.88127" y2="195.21824" gradientUnits="userSpaceOnUse" id="color-12"><stop offset="0" stop-color="#bebebe"/><stop offset="1" stop-color="#737373"/></linearGradient><linearGradient x1="263.51567" y1="205.54793" x2="268.49693" y2="201.92889" gradientUnits="userSpaceOnUse" id="color-13"><stop offset="0" stop-color="#bb951b"/><stop offset="1" stop-color="#d6ad39"/></linearGradient><linearGradient x1="264.59348" y1="206.22533" x2="268.85387" y2="203.13001" gradientUnits="userSpaceOnUse" id="color-14"><stop offset="0" stop-color="#bb951b"/><stop offset="1" stop-color="#d6ad39"/></linearGradient><linearGradient x1="262.65252" y1="205.5419" x2="263.51663" y2="204.91409" gradientUnits="userSpaceOnUse" id="color-15"><stop offset="0" stop-color="#bb951b"/><stop offset="1" stop-color="#d6ad39"/></linearGradient><linearGradient x1="262.07435" y1="205.59363" x2="262.91891" y2="204.98002" gradientUnits="userSpaceOnUse" id="color-16"><stop offset="0" stop-color="#bb951b"/><stop offset="1" stop-color="#d6ad39"/></linearGradient></defs><g transform="translate(-123.68071,-147.85031)"><g data-paper-data="{&quot;isPaintingLayer&quot;:true}" stroke-miterlimit="10" stroke-dasharray="" stroke-dashoffset="0" style="mix-blend-mode: normal"><path d="M240.3475,206.17717c0,0 11.77698,1.82089 16.28993,2.8477c3.51344,0.79939 14.31233,3.39849 14.31233,3.39849" fill="none" fill-rule="nonzero" stroke="#000000" stroke-width="6" stroke-linecap="round" stroke-linejoin="miter"/><path d="M237.1009,208.2527c0,2.4641 -3.22379,4.46165 -7.20056,4.46165c-2.11857,0 -5.90563,1.68326 -8.23456,0.47339c-2.04269,-1.06118 -8.27066,-5.13844 -8.04871,-5.80182c0.69236,-2.06928 13.20156,-2.83147 15.56014,-2.83147c2.24413,0 4.47876,0.39301 5.99997,1.17828c1.17449,0.60628 1.92372,1.44639 1.92372,2.51997z" fill="url(#color-1)" fill-rule="nonzero" stroke="#737373" stroke-width="1" stroke-linecap="butt" stroke-linejoin="miter"/><g><g><g stroke-width="1.2"><path d="M253.70787,218.71846c0,0 9.31693,7.88174 10.69852,10.88193c0.94272,2.04713 -3.0297,5.37288 -3.0297,5.37288c0,0 10.05817,-0.12212 10.71013,4.37445c0.03717,0.25635 0.14297,1.5179 -3.99199,2.04648c-3.96044,0.50627 -12.09998,0.2877 -15.0756,0.20018c-1.38203,-0.04065 -3.53979,-0.36608 -5.00535,-1.00853c-1.47557,-0.64685 -1.5335,-1.66747 -1.64639,-2.23854c-0.01498,-0.07577 4.21694,-6.65635 3.90634,-7.51095c-0.15624,-0.42986 -10.59616,-10.89469 -10.59616,-10.89469" fill="url(#color-2)" fill-rule="evenodd" stroke="url(#color-3)" stroke-linecap="round" stroke-linejoin="round"/><path d="M240.16402,223.65482c-0.66816,-4.60824 7.02696,-4.98283 11.05283,-5.09488c1.7506,-0.04872 11.55627,5.25875 15.41974,9.70538c1.01235,1.16515 0.71038,4.13522 0.62347,5.54987c-0.03055,0.49706 -1.05666,-0.14195 -1.05666,-0.14195c0,0 1.12648,0.51746 1.6176,0.98968c0.50691,0.48742 0.99419,1.25915 0.99419,1.25915l-3.01106,-0.57303c0,0 -10.3318,0.10235 -14.04746,1.68979c-3.71565,1.58745 -1.19482,4.21136 -1.19482,4.21136c0,0 -7.71403,-0.22128 -8.6907,-2.03789c-0.24078,-0.44784 0.67084,-1.84284 0.67084,-1.84284c0,0 -0.85514,0.10965 -0.94593,-0.20335c-0.02945,-0.10152 3.68123,-3.50495 5.72372,-5.3053c1.16773,-1.02931 1.1786,-0.92184 1.1786,-0.92184c0,0 -8.2381,-6.62017 -8.33438,-7.28414z" fill="url(#color-4)" fill-rule="nonzero" stroke="#caa551" stroke-linecap="butt" stroke-linejoin="miter"/></g><path d="M226.89102,219.60869c-0.01426,-0.13551 1.73548,0.264 5.70032,0.31018c5.23064,0.06092 13.24119,-0.21161 15.4937,-0.35105c5.84115,-0.36158 6.82962,-1.32403 6.86744,-0.96483c0.13994,1.32926 -3.16401,3.79152 -9.84624,3.92657c-2.93652,0.05935 -8.94279,0.50447 -12.34402,0.03648c-4.33845,-0.59695 -5.79275,-2.21226 -5.8712,-2.95736z" fill="url(#color-5)" fill-rule="nonzero" stroke="#caa551" stroke-width="1.2" stroke-linecap="butt" stroke-linejoin="miter"/><g fill-rule="nonzero" stroke-linecap="butt" stroke-linejoin="miter"><g fill="none" stroke="none" stroke-width="1" font-family="sans-serif" font-weight="normal" font-size="12" text-anchor="start"/><path d="M226.93292,217.92392c0,0 12.12392,1.6507 17.83059,2.01751c5.70666,0.36681 10.70279,-0.18344 10.70279,-0.18344c0,0 -0.39969,1.28946 -3.3756,2.37279c-2.30353,0.83856 -6.43389,1.59154 -11.33139,1.28841c-4.46175,-0.27616 -9.2903,-1.01599 -11.45976,-2.02067c-3.28825,-1.52282 -2.36664,-3.47458 -2.36664,-3.47458z" fill="url(#color-6)" stroke="#caa551" stroke-width="1.2"/></g><g stroke-width="1.2"><path d="M238.29548,222.04206c0,0 -4.58184,19.17755 -5.41792,19.24085c-2.39937,0.18165 -15.54809,-1.44493 -15.54809,-1.44493l8.45195,-19.28125" data-paper-data="{&quot;index&quot;:null}" fill="#ffab19" fill-rule="evenodd" stroke="#001026" stroke-linecap="round" stroke-linejoin="round"/><path d="M240.32048,221.73289c0,0 0.76411,5.26051 0.44797,7.41074c-0.19392,1.31896 -2.9729,5.8085 -2.9729,5.8085c0,0 1.14692,3.11497 0.69394,3.39794c-0.58201,0.36359 -2.39475,-1.5153 -2.39475,-1.5153c0,0 1.86608,2.15407 1.91649,2.36878c0.35173,1.49809 -1.25347,3.46536 -5.45981,3.65227c-4.61829,0.2052 -12.27475,0.43697 -16.22171,-0.74825c-3.57326,-1.07299 -3.69995,-3.50763 -3.22019,-4.50735c0.3369,-0.70205 2.71519,-1.08028 3.19674,-1.94338c0.3202,-0.5739 -3.55839,2.0346 -2.8574,1.26952c0.2038,-0.22243 3.06543,-3.72556 3.06543,-3.72556c0,0 0.4247,-3.254 1.2255,-4.45899c3.21572,-4.83877 7.10939,-8.884 7.10939,-8.884" data-paper-data="{&quot;index&quot;:null}" fill="url(#color-7)" fill-rule="evenodd" stroke="#caa551" stroke-linecap="round" stroke-linejoin="round"/><path d="M236.04253,240.08726c-0.11577,1.07681 -1.06011,2.3279 -3.1098,2.97756c-2.05731,0.65205 -14.42179,0.39365 -16.33327,-0.40326c-1.81527,-0.7568 -2.55471,-2.15558 -2.44173,-3.20653c0.23196,-2.1576 5.31907,-3.76518 11.3624,-3.59059c6.0433,0.17459 10.75436,2.06522 10.52237,4.22283z" fill="url(#color-8)" fill-rule="nonzero" stroke="url(#color-9)" stroke-linecap="butt" stroke-linejoin="miter"/></g></g><g fill="none" fill-rule="nonzero" stroke="none" stroke-width="1" stroke-linecap="butt" stroke-linejoin="miter" font-family="sans-serif" font-weight="normal" font-size="12" text-anchor="start"/></g><path d="M230.89563,211.93511l-23.76805,29.33097" fill="none" fill-rule="nonzero" stroke="#000000" stroke-width="6" stroke-linecap="round" stroke-linejoin="miter"/><path d="M231.83931,218.55281c0,0 3.66238,-5.90432 3.2014,-7.71528c-0.11275,-0.44294 -3.17419,6.95078 -3.67279,6.52776c-2.37766,-2.01725 -11.61652,-3.67243 -11.61652,-3.67243c0,0 7.80951,-5.83168 11.70099,-8.61476c1.07448,-0.76844 10.4984,-1.01518 10.79804,-1.24979c0.38698,-0.30301 12.83304,1.66881 12.83304,1.66881c0,0 3.45281,2.60146 3.40943,5.74572c-0.00031,0.02234 -8.75581,-0.80047 -8.76064,-0.45021c-0.02895,2.09839 -1.6421,7.603 -1.6421,7.603c0,0 -3.14547,1.33459 -5.95649,1.38166c-3.09887,0.05189 -10.29437,-1.22445 -10.29437,-1.22445z" fill="url(#color-10)" fill-rule="nonzero" stroke="#737373" stroke-width="2.5" stroke-linecap="butt" stroke-linejoin="miter"/><g stroke-linejoin="miter"><g data-paper-data="{&quot;index&quot;:null}" stroke-linecap="butt"><path d="M272.46523,186.37225c-4.13875,12.67317 -19.05078,19.68947 -33.30698,15.67137c-14.25618,-4.01811 -22.45798,-17.54905 -18.31921,-30.22223c4.13875,-12.67317 19.05078,-19.68947 33.30698,-15.67137c14.25618,4.01811 22.45798,17.54905 18.31921,30.22223z" fill="none" fill-rule="nonzero" stroke="#000000" stroke-width="4.5"/><g><g fill-rule="nonzero"><path d="M236.19368,159.95877l0.00911,0.0109" data-paper-data="{&quot;index&quot;:null}" fill="#ffab19" stroke="#000000" stroke-width="5"/><g data-paper-data="{&quot;index&quot;:null}" fill="none" stroke="none" stroke-width="1" font-family="sans-serif" font-weight="normal" font-size="12" text-anchor="start"/></g><path d="M236.19368,159.95877l0.00911,0.0109" data-paper-data="{&quot;index&quot;:null}" fill="#ffab19" fill-rule="nonzero" stroke="#000000" stroke-width="5"/><path d="M245.98063,180.16585" fill="#001026" fill-rule="evenodd" stroke="#000000" stroke-width="5"/><g data-paper-data="{&quot;index&quot;:null}" fill="none" fill-rule="nonzero" stroke="none" stroke-width="1" font-family="sans-serif" font-weight="normal" font-size="12" text-anchor="start"/><g data-paper-data="{&quot;index&quot;:null}" fill="none" fill-rule="nonzero" stroke="none" stroke-width="1" font-family="sans-serif" font-weight="normal" font-size="12" text-anchor="start"/></g></g><path d="M243.23469,190.16243c-0.52354,1.91021 -14.08847,2.92959 -18.27178,1.94008c-4.18329,-0.9895 -0.8394,-8.25604 -0.31586,-10.16625c0.06771,-0.24709 18.6508,7.9957 18.58763,8.22616z" fill="#ffffff" fill-rule="nonzero" stroke="#000000" stroke-width="3" stroke-linecap="butt"/><path d="M263.10177,163.74823l-39.47422,8.58067l-4.61507,13.1399l-9.79937,-31.20243l51.30985,-4.83329l9.88742,16.77321z" fill="#000000" fill-rule="nonzero" stroke="#191919" stroke-width="3" stroke-linecap="round"/><path d="M225.33139,169.70057l25.19125,8.27139l-0.85242,4.71219" fill="none" fill-rule="nonzero" stroke="#000000" stroke-width="5" stroke-linecap="round"/><path d="M257.92404,184.62211l-0.11397,-5.3074l16.79739,-13.23925" fill="none" fill-rule="nonzero" stroke="#000000" stroke-width="5" stroke-linecap="round"/></g><g fill-rule="nonzero" stroke-linecap="butt" stroke-linejoin="miter"><g data-paper-data="{&quot;index&quot;:null}" stroke="none" stroke-width="1"><path d="M262.39476,206.07112c-0.21804,0.05399 -0.33448,-0.04126 -0.44918,-0.17619c-0.16232,-0.22684 -0.27173,-0.48093 -0.41631,-0.71688c-0.07678,-0.01867 -0.15355,-0.03737 -0.22237,-0.04075c-1.45977,-0.14112 -2.56806,-0.81223 -3.55535,-1.68141c-0.20733,-0.18426 -0.43237,-0.35948 -0.55936,-0.60446c-0.02379,-0.04595 -0.07321,-0.09811 -0.12442,-0.11055c-0.28153,-0.0685 -0.38475,-0.26757 -0.51353,-0.47289c-0.11291,-0.17465 -0.19053,-0.36751 -0.28577,-0.55126c-0.05556,-0.10718 -0.07583,-0.23254 -0.0096,-0.36365c0.06625,-0.13106 0.05571,-0.28083 0.05307,-0.41525c-0.10387,-0.76124 -0.06039,-1.54014 0.11285,-2.32763c0.10608,-0.44253 0.29682,-0.85108 0.50525,-1.26867c0.61556,-1.22848 1.54877,-2.23248 2.70698,-3.0613c0.52526,-0.36728 1.10786,-0.66709 1.7222,-0.90567c0.46516,-0.18117 0.95062,-0.23701 1.42635,-0.26845c1.51371,-0.10002 2.85066,0.27884 4.03394,1.00838c0.22677,0.13548 0.41647,0.3288 0.60617,0.52216c0.13235,0.12585 0.27443,0.22733 0.49859,0.22839c0.19857,-0.00517 0.34064,0.09628 0.45531,0.23122c0.16232,0.22684 0.28932,0.47185 0.41632,0.71688c0.03969,0.07657 0.03615,0.15602 0.03256,0.23544c-0.04775,0.29613 0.01835,0.55309 0.12773,0.80719c0.25226,0.52975 0.31205,1.11968 0.38951,1.70055c0.02463,0.22012 0.03164,0.44926 -0.0046,0.68131c-0.10262,0.75113 -0.23878,1.48075 -0.58145,2.20025c0.11905,0.22968 0.22842,0.48379 0.35546,0.72878c0.04764,0.0919 0.10319,0.19908 0.029,0.31482c-0.05652,0.10667 0.00875,0.18949 0.0564,0.28133c0.29988,0.62158 0.61739,1.23411 0.91727,1.85571c0.68881,1.37196 1.38564,2.75918 2.03916,4.14928c0.63765,1.35949 1.32832,2.69169 2.00125,4.03302c0.11114,0.21439 0.17901,0.43161 0.29015,0.64597c0.53981,1.04128 1.07958,2.08257 1.60174,3.13293c0.09526,0.18374 0.22581,0.34935 0.20718,0.57229c-0.00354,0.07944 0.05377,0.14689 0.09345,0.22347c0.39695,0.76564 0.78412,1.5557 1.18103,2.32135c0.01587,0.03063 0.03966,0.07656 0.05556,0.10718c0.14469,0.23592 0.08459,0.42202 -0.10701,0.65642c-0.64718,0.77921 -1.46461,1.31625 -2.45232,1.6112c-0.25333,0.07217 -0.5225,0.11371 -0.78994,0.11555c-0.19857,0.00517 -0.3327,-0.08097 -0.42973,-0.22499c-0.2911,-0.43214 -0.59987,-0.85519 -0.89892,-1.30264c-0.20996,-0.31873 -0.39254,-0.67093 -0.65544,-0.96237c-0.57523,-0.63509 -0.94655,-1.39451 -1.46883,-2.05681c-0.28495,-0.37709 -0.59729,-0.72074 -0.8646,-1.10694c-0.28317,-0.41681 -0.59371,-0.80015 -0.88662,-1.19254c-0.52843,-0.71737 -1.02948,-1.46824 -1.57558,-2.17649c-0.74368,-0.91692 -1.41683,-1.87025 -2.08991,-2.82352c-0.23554,-0.32497 -0.47109,-0.64983 -0.70664,-0.97481c-0.35643,-0.51493 -0.72071,-1.04515 -1.07709,-1.56007c-0.19409,-0.28809 -0.41552,-0.54271 -0.60962,-0.83076c-0.21969,-0.29436 -0.37048,-0.58525 -0.58044,-0.90399zM262.72494,205.62962c0.25948,-0.01714 0.50309,-0.06489 0.74054,-0.16767c0.53046,-0.09842 1.02301,-0.31307 1.51556,-0.52777c0.62408,-0.26297 1.23403,-0.59626 1.82636,-0.92049c0.68059,-0.36965 1.22883,-0.86515 1.78682,-1.38507c0.05473,-0.06697 0.10948,-0.13393 0.19158,-0.23437c-0.06348,-0.12251 -0.12704,-0.24499 -0.19053,-0.36749c-0.01587,-0.03063 -0.0494,-0.05217 -0.09087,-0.08901c-0.12358,0.06358 -0.23923,0.1425 -0.34694,0.23672c-0.18804,0.15497 -0.3743,0.27019 -0.56233,0.42514c-0.48201,0.36443 -1.05313,0.6002 -1.55894,0.91868c-0.27453,0.1607 -0.53318,0.35195 -0.82358,0.48202c-0.64173,0.27207 -1.24376,0.62065 -1.9172,0.83143c-0.17479,0.05113 -0.36717,0.11139 -0.54198,0.16251c-0.11826,-0.05556 -0.24361,0.04779 -0.34778,0.06257c-0.12974,0.00857 -0.25951,0.01715 -0.44572,0.1324c0.22677,0.13548 0.27701,0.3618 0.44288,0.50922c0.09622,-0.0301 0.21445,0.02541 0.32217,-0.06882zM263.70095,205.78688c-0.47751,0.07112 -0.59133,0.11034 -0.805,0.25908c0.11291,0.17465 0.21791,0.33404 0.33081,0.50871c0.05556,0.10718 0.16585,0.14745 0.29564,0.13885c0.08654,-0.00571 0.17475,-0.05114 0.26125,-0.05687c0.3204,-0.02907 0.64434,-0.13762 0.91886,-0.29827c0.16327,0.01294 0.3045,-0.05968 0.44575,-0.13239c0.80238,-0.39352 1.59507,-0.76269 2.35779,-1.23275c0.33723,-0.21233 0.66652,-0.43997 0.97018,-0.67384c0.23309,-0.19755 0.4838,-0.40415 0.6004,-0.69693c-0.10322,-0.19908 -0.20643,-0.39811 -0.30961,-0.59722c-0.12536,0.10329 -0.23309,0.19753 -0.32312,0.28264c-0.43084,0.37687 -0.87752,0.72315 -1.35598,1.00816c-0.61174,0.37299 -1.2632,0.66943 -1.9067,0.9812c-0.30015,0.15446 -0.63024,0.20797 -0.92242,0.37771c-0.21445,-0.02542 -0.39894,0.05011 -0.55782,0.13186zM274.72539,221.70355c0.29478,-0.03532 0.54989,-0.14717 0.7891,-0.28967c0.02556,0.00623 0.06885,0.00337 0.08652,-0.00574c0.41578,-0.23335 0.81568,-0.49734 1.13263,-0.83504c0.18985,-0.19469 0.38758,-0.37403 0.47677,-0.63331c-0.44455,-0.85754 -0.88911,-1.71501 -1.35743,-2.61853c-0.3364,0.38646 -0.72042,0.68114 -1.11235,0.96039c-0.33901,0.25206 -0.71591,0.38781 -1.07078,0.60922c-0.14122,0.07269 -0.27275,0.12099 -0.41399,0.19368c-0.25152,0.03244 -0.50486,0.10463 -0.77761,0.22557c0.23816,0.4594 0.60167,0.81547 0.85926,1.22607c0.28317,0.41682 0.58401,0.82457 0.85925,1.22604c0.21445,0.02542 0.37157,-0.01662 0.52869,-0.0587zM272.68846,218.85281c0.16327,0.01292 0.31247,-0.04442 0.45365,-0.1171c0.173,-0.01141 0.32398,-0.1085 0.49078,-0.17495c0.50227,-0.2391 0.96486,-0.55473 1.39387,-0.8919c0.2507,-0.20661 0.48555,-0.44388 0.65331,-0.72418c-0.03175,-0.06126 -0.04586,-0.13158 -0.07763,-0.19283c-0.38896,-0.75039 -0.76998,-1.48535 -1.14132,-2.24476c-0.39514,-0.80535 -0.78234,-1.59539 -1.17746,-2.40075c-0.58568,-1.17286 -1.14567,-2.33952 -1.73136,-3.51238c-0.63943,-1.31977 -1.32392,-2.59696 -1.92802,-3.9349c-0.09346,-0.22347 -0.23025,-0.44405 -0.34929,-0.67377c-0.16242,0.16118 -0.29133,0.3439 -0.46966,0.47447c-0.54646,0.4558 -1.15822,0.8288 -1.78584,1.1712c-0.56492,0.29072 -1.13783,0.56613 -1.71074,0.84154c-0.24541,0.08748 -0.46517,0.18119 -0.71057,0.26867c-0.18884,-0.01921 -0.33188,0.09319 -0.48899,0.13526c-0.17479,0.05113 -0.34776,0.06257 -0.51637,0.16874c0.04408,0.1713 0.1429,0.27565 0.21611,0.37372c0.66259,0.80353 1.19181,1.69507 1.80141,2.52583c0.38994,0.53647 0.77985,1.07295 1.18746,1.60029c0.52843,0.71737 1.06656,1.41032 1.58706,2.11235c0.43142,0.57329 0.86281,1.14664 1.27652,1.72905c0.4552,0.61928 0.88479,1.2323 1.32237,1.86064c0.4058,0.56707 0.81956,1.14948 1.25095,1.72281c0.1668,-0.06645 0.32039,-0.0291 0.45368,-0.11708zM267.94777,195.29906c-0.31694,0.33766 -0.65598,0.58974 -0.987,0.85709c-0.34871,0.27645 -0.67181,0.55913 -1.02845,0.82022c-0.33901,0.25205 -0.71156,0.48257 -1.05849,0.71926c-0.36462,0.24582 -0.72919,0.49163 -1.11933,0.73122c-0.35486,0.22139 -0.73535,0.43658 -1.09023,0.658c-0.38046,0.21517 -0.79269,0.36914 -1.14141,0.64557c-0.41833,0.09891 -0.77501,0.36004 -1.15369,0.53554c-0.40425,0.16922 -0.81035,0.37822 -1.21462,0.54746c-0.3866,0.16014 -0.79884,0.31407 -1.1934,0.45893c-0.41223,0.15393 -0.83855,0.23751 -1.22689,0.4374c0.15521,0.38568 0.21076,0.49286 0.49489,0.69582c0.25152,-0.03244 0.50312,-0.0649 0.77406,-0.14617c0.32395,-0.10851 0.64787,-0.217 0.99743,-0.31929c0.65584,-0.20169 1.28607,-0.40967 1.90398,-0.72764c0.42372,-0.21804 0.83949,-0.45143 1.29498,-0.60819c0.09622,-0.0301 0.20213,-0.08462 0.29216,-0.16975c0.18801,-0.15497 0.42551,-0.25774 0.63733,-0.36679c0.77681,-0.39974 1.50598,-0.89138 2.20956,-1.38927c0.94282,-0.64038 1.79475,-1.36975 2.62282,-2.1451c0.17036,-0.14588 0.34076,-0.29174 0.41051,-0.50223c-0.08375,-0.24788 -0.2205,-0.46851 -0.42425,-0.73217zM259.87072,197.14728c-0.03802,0.27174 -0.00546,0.50718 0.00948,0.75166c-0.00098,0.21387 0.07665,0.40671 0.24253,0.55413c0.2885,0.29768 0.53201,0.63793 0.70483,1.01455c0.01587,0.03063 0.05731,0.0675 0.06527,0.08281c0.11206,0.0005 0.18267,-0.03586 0.24717,-0.12722c0.00973,-0.02437 0.0115,-0.0641 0.00356,-0.07943c-0.17725,-0.47134 -0.31916,-0.96082 -0.4258,-1.46851c-0.01408,-0.07035 -0.04407,-0.17129 -0.11115,-0.21439c-0.19762,-0.20868 -0.39525,-0.41731 -0.73593,-0.5136zM260.01009,200.00462c-0.16137,-0.44069 -0.27947,-0.88426 -0.372,-1.32159c-0.02823,-0.14064 -0.10141,-0.23878 -0.2179,-0.33401c-0.18353,-0.1383 -0.3865,-0.22787 -0.59741,-0.33272c-0.06707,-0.04309 -0.14203,-0.10147 -0.23211,-0.01633c0.04668,0.30576 0.06778,0.60529 0.14973,0.89284c0.63355,0.48869 0.63353,0.48869 1.03221,1.2146c0.07678,0.01869 0.15534,-0.00236 0.23744,-0.10281zM265.13896,199.28564c0.07226,0.31198 0.1622,0.6149 0.25212,0.91778c0.01408,0.07036 0.02821,0.14066 0.07761,0.19283c0.25056,0.18141 0.48356,0.37188 0.7986,0.46196c0.1166,-0.29277 0.05049,-0.54973 0.04527,-0.81864c-0.00259,-0.13442 -0.06791,-0.21724 -0.17644,-0.29717c-0.26823,-0.17233 -0.5012,-0.36284 -0.72436,-0.57771c-0.00794,-0.01531 -0.05116,-0.01248 -0.10234,-0.02491c-0.04502,0.04256 -0.10775,0.09425 -0.17038,0.14589zM263.3777,195.28432c-0.1025,0.36312 -0.08936,0.64733 -0.09386,0.94061c0.0123,0.11006 0.06966,0.1775 0.12701,0.245c0.29647,0.31299 0.53991,0.6533 0.72073,1.0452c0.0238,0.04594 0.06526,0.0828 0.08909,0.1287c0.20214,-0.08463 0.22953,-0.1181 0.166,-0.24059c-0.20642,-0.39817 -0.31657,-0.8264 -0.32261,-1.26944c-0.0052,-0.2689 -0.11812,-0.44357 -0.30959,-0.59722c-0.12621,-0.07088 -0.22678,-0.13551 -0.37677,-0.25228zM262.10125,198.94788c0.08825,-0.04545 0.07413,-0.11579 0.0424,-0.17704c-0.22224,-0.42876 -0.29538,-0.91487 -0.36846,-1.40104c-0.06872,-0.39138 -0.32191,-0.70725 -0.76136,-0.90785c-0.05214,0.2014 0.00959,0.36364 -0.00724,0.54687c-0.02572,0.3818 0.12512,0.67272 0.35449,0.94267c0.24525,0.30053 0.50818,0.59202 0.64752,0.94706c0.04149,0.03683 0.06707,0.04312 0.09266,0.04932zM262.14995,195.93554c-0.01068,0.23826 -0.03547,0.4062 -0.04256,0.56504c-0.02035,0.26267 0.05723,0.45551 0.23896,0.63355c0.25675,0.23644 0.45083,0.52452 0.62726,0.82166c0.07324,0.09814 0.13673,0.22062 0.19229,0.32778c0.09622,-0.0301 0.09005,-0.0851 0.07416,-0.11574c-0.14196,-0.4895 -0.26622,-0.98807 -0.31192,-1.50772c-0.02204,-0.08564 -0.03615,-0.15599 -0.09348,-0.22346c-0.19941,-0.16896 -0.38115,-0.347 -0.68469,-0.50114zM266.17181,198.56017c0.22145,0.25461 0.31134,0.5575 0.41893,0.85131c0.03969,0.07656 0.01847,0.16508 0.09347,0.22345c0.1165,0.09526 0.45535,0.23123 0.721,0.26913c0.04422,-0.21675 -0.01575,-0.41864 -0.03243,-0.62346c-0.01849,-0.16509 -0.09963,-0.27849 -0.25142,-0.35556c-0.25234,-0.14171 -0.46942,-0.30158 -0.6494,-0.51933c-0.00793,-0.01534 -0.05914,-0.02774 -0.0847,-0.03398c-0.07857,0.02104 -0.14918,0.05736 -0.2154,0.18846zM260.65794,202.67791c0.21707,0.15984 0.33435,0.42929 0.59644,0.54659c0.11564,-0.07891 0.12893,-0.18274 0.16779,-0.28033c0.06006,-0.18612 0.15368,-0.35064 0.15463,-0.56451c-0.2488,-0.22114 -0.37228,-0.54556 -0.61138,-0.79106c-0.11206,-0.0005 -0.20036,0.0449 -0.27274,0.12097c0.02904,0.31484 0.01482,0.63254 -0.03472,0.96838zM263.10955,200.50461c0.04408,0.1713 0.08813,0.34261 0.05543,0.4952c-0.07692,0.36932 0.07573,0.62057 0.3519,0.80819c0.10056,0.06462 0.1482,0.15651 0.30178,0.1939c0.09716,-0.24401 0.13343,-0.47604 0.16965,-0.70807c0.01151,-0.06412 -0.02028,-0.12535 -0.07761,-0.19283c-0.18972,-0.19335 -0.35381,-0.38046 -0.54346,-0.57382c-0.02379,-0.04595 -0.0909,-0.08902 -0.25773,-0.02256zM261.99736,201.07697c0.10403,0.37323 0.15682,0.73399 0.05435,1.09712c-0.02914,0.07318 0.02028,0.12535 0.05204,0.18659c0.0891,0.12873 0.19586,0.24839 0.37321,0.33167c0.13604,-0.34159 0.18377,-0.63776 0.22358,-0.94919c0.01327,-0.10381 -0.00873,-0.18946 -0.07405,-0.27226c-0.12258,-0.1503 -0.22763,-0.30964 -0.35025,-0.45991c-0.00793,-0.01534 -0.05914,-0.02778 -0.08472,-0.034c-0.05296,0.02725 -0.10594,0.05452 -0.19417,0.09995zM265.10849,195.34418c-0.14999,-0.11677 -0.30793,-0.24892 -0.45794,-0.36572c-0.02556,-0.00623 -0.05121,-0.01247 -0.10236,-0.0249c-0.12278,0.23775 -0.13343,0.47605 -0.11676,0.68081c0.36969,0.41111 0.72346,0.79157 0.99336,1.31223c0.12015,-0.3722 -0.13046,-0.55359 -0.18069,-0.77991c-0.07405,-0.27226 -0.10486,-0.54737 -0.13567,-0.82248zM259.43299,196.90698c-0.27179,-0.0929 -0.50834,-0.20396 -0.81102,-0.18397c-0.01506,0.14352 -0.06363,0.26553 -0.06895,0.38467c-0.00531,0.11913 -0.02831,0.24733 0.02729,0.35453c0.12441,0.11053 0.29563,0.13883 0.43946,0.20059c0.14385,0.06172 0.26032,0.15703 0.44122,0.16091c-0.00346,-0.30862 -0.01656,-0.5928 -0.02793,-0.91673zM258.89609,200.61669c-0.16753,-0.49571 -0.31306,-0.90581 -0.45851,-1.31586c-0.01587,-0.03063 -0.02201,-0.08568 -0.07322,-0.09812c-0.2109,-0.10483 -0.40239,-0.25849 -0.68743,-0.24756c0.0405,0.25072 0.0731,0.48615 0.12334,0.71249c0.41209,0.2341 0.73411,0.55329 1.09585,0.9491zM264.99181,201.4176c0.10332,-0.18897 0.05924,-0.36025 0.06637,-0.51909c0.01684,-0.18324 -0.01929,-0.33921 -0.17724,-0.47131c-0.20733,-0.18426 -0.41469,-0.36854 -0.50642,-0.63175c-0.13948,0.03298 -0.20214,0.08463 -0.15451,0.1765c0.10142,0.23876 0.21076,0.49287 0.20804,0.74644c0.0096,0.36363 0.26991,0.5207 0.56378,0.69922zM263.06941,201.9801c-0.09456,0.37843 -0.18554,0.67743 -0.2589,0.96734c0.05556,0.10718 0.14028,0.14121 0.20733,0.18425c0.08472,0.034 0.16763,0.10768 0.30708,0.07473c0.13072,-0.22248 0.22786,-0.46641 0.29946,-0.71661c-0.15615,-0.17179 -0.32204,-0.31922 -0.55496,-0.50973zM266.23008,201.3041c-0.27794,-0.14794 -0.52241,-0.2743 -0.77474,-0.41601c-0.02038,0.26266 -0.0487,0.51005 -0.07704,0.75737c0.22677,0.13548 0.41032,0.27383 0.69358,0.30257c0.08745,-0.21956 0.11398,-0.42723 0.15819,-0.64395zM260.0264,195.98084c-0.16423,0.20089 -0.11398,0.42723 -0.14056,0.63486c-0.01151,0.06412 0.04583,0.13158 0.10499,0.15935c0.1853,0.09863 0.34501,0.19103 0.52237,0.27437c0.00794,0.01531 0.04327,-0.00288 0.07858,-0.02103c0.01248,-0.27798 -0.00075,-0.56215 0.01174,-0.84015c-0.16762,-0.1077 -0.37238,-0.15752 -0.57714,-0.20732zM262.9737,195.06548c-0.15795,-0.13209 -0.30792,-0.24889 -0.55769,-0.25617c-0.06978,0.21051 -0.1749,0.43919 -0.16792,0.66837c0.10852,0.07994 0.18175,0.17803 0.29999,0.23357c0.10054,0.06462 0.14642,0.19624 0.32914,0.16038c0.03804,-0.27175 0.07606,-0.54348 0.09648,-0.80619zM266.68461,200.97321c0.14206,0.10147 0.34065,0.09626 0.54715,0.10638c0.04602,-0.25643 0.15105,-0.48511 0.11058,-0.73583c-0.20476,-0.04983 -0.38033,-0.17282 -0.63805,-0.1954c-0.01248,0.27798 -0.00726,0.54688 -0.01969,0.82485zM267.13938,197.7519c0.12524,0.28471 0.32905,0.5484 0.41895,0.85132c0.08376,0.24787 0.27087,0.30673 0.54622,0.32023c0.03625,-0.23201 -0.01575,-0.41864 -0.05806,-0.62965c-0.35651,-0.12687 -0.59565,-0.37241 -0.90712,-0.54188zM257.79635,200.91106c0.06268,-0.05164 0.03885,-0.09758 0.01506,-0.14352c-0.08554,-0.20814 -0.19667,-0.42254 -0.26456,-0.63978c-0.08022,-0.32728 -0.33615,-0.38954 -0.65299,-0.43989c0.02026,0.12539 0.02466,0.22009 0.04669,0.30573c0.04233,0.211 0.11195,0.38852 0.35818,0.47522c0.14385,0.06173 0.25059,0.18143 0.34945,0.28575c0.01408,0.07036 0.01848,0.16506 0.1482,0.1565zM260.0364,203.46334c0.05652,-0.10667 0.07774,-0.1952 0.10688,-0.26838c0.11304,-0.21333 0.09456,-0.37845 -0.03603,-0.54403c-0.11466,-0.13496 -0.18434,-0.3125 -0.28139,-0.45654c-0.02379,-0.04596 -0.02998,-0.10096 -0.1615,-0.05268c0.02283,0.25982 0.01042,0.53781 -0.04528,0.81864c-0.01151,0.06412 0.0282,0.14063 0.05993,0.20189c0.0988,0.10431 0.1897,0.19338 0.35735,0.30105zM264.89364,201.87546c-0.14998,-0.11678 -0.29027,-0.25797 -0.48534,-0.33216c-0.0892,0.2593 -0.21196,0.49704 -0.23238,0.75971c0.18531,0.09861 0.31764,0.22449 0.55949,0.21644c0.0698,-0.21052 0.16521,-0.41479 0.15818,-0.64395zM261.68016,196.41008c0.08919,-0.25929 0.09988,-0.49757 0.07522,-0.71764c-0.1853,-0.09863 -0.34502,-0.19098 -0.57537,-0.24704c-0.09362,0.16457 -0.11836,0.33251 -0.11755,0.50665c0.20912,0.14454 0.40061,0.29819 0.61765,0.45807zM263.68756,203.38842c0.16153,0.05269 0.25413,0.10199 0.37417,0.11779c0.07678,0.01867 0.14561,0.02207 0.21447,0.02541c0.13684,-0.16741 0.24017,-0.35637 0.26674,-0.56402c-0.16762,-0.1077 -0.3353,-0.21537 -0.56744,-0.23171c-0.08745,0.21956 -0.19076,0.40854 -0.28792,0.6525zM258.8064,202.42807c-0.09891,0.28371 -0.17666,0.47886 -0.25619,0.71376c0.01408,0.07035 0.08728,0.16843 0.1879,0.23306c0.08292,0.0737 0.10319,0.19906 0.24882,0.22113c0.13507,-0.12771 0.2013,-0.25878 0.23403,-0.4114c-0.14468,-0.23592 -0.26371,-0.46564 -0.41453,-0.75657zM258.70864,196.32919c0.12799,0.03112 0.25596,0.06229 0.3839,0.09344c0.12801,0.03112 0.24801,0.04695 0.37596,0.07809c0.03628,-0.23201 0.09635,-0.41815 0.04435,-0.60475c-0.10057,-0.06461 -0.22239,-0.04073 -0.33446,-0.04127c-0.11206,-0.0005 -0.248,-0.04694 -0.36362,0.03195c-0.05035,0.16173 -0.11659,0.29276 -0.10605,0.44256zM265.90671,202.36283c-0.22061,-0.08043 -0.40416,-0.2188 -0.67955,-0.23224c-0.06005,0.18611 -0.10248,0.3631 -0.16258,0.54923c0.22061,0.08043 0.39798,0.16378 0.64954,0.13128c0.08388,-0.14016 0.18367,-0.2497 0.19256,-0.44826zM258.24187,198.66445c-0.03694,-0.33015 -0.07568,-0.62057 -0.11443,-0.91096c-0.11826,-0.05556 -0.21884,-0.12019 -0.35829,-0.0872c-0.10688,0.2684 -0.08402,0.52817 -0.0788,0.79707c0.11826,0.05556 0.23649,0.1111 0.36445,0.14224c0.04941,0.05219 0.09264,0.0493 0.18707,0.05891zM262.35152,203.18365c-0.19328,-0.11391 -0.28851,-0.2977 -0.49326,-0.34752c-0.1148,0.25307 -0.2199,0.48173 -0.2659,0.73822c0.17919,0.04359 0.25852,0.19673 0.48271,0.19775c0.13682,-0.1674 0.17135,-0.35977 0.27646,-0.58843zM263.6172,194.36577c-0.07595,0.15549 -0.1263,0.31718 -0.1334,0.47605c0.20121,0.12923 0.38471,0.26756 0.60178,0.42742c0.0186,-0.22293 0.06103,-0.39995 0.1229,-0.62578c-0.20121,-0.12924 -0.37678,-0.25228 -0.59126,-0.2777zM260.29933,203.75478c0.1738,0.16274 0.31411,0.30391 0.55415,0.33559c0.10154,-0.14925 0.19338,-0.27407 0.2005,-0.43294c-0.16587,-0.14743 -0.31408,-0.30387 -0.5135,-0.47285c-0.10332,0.18897 -0.18899,0.36884 -0.24113,0.57025zM261.88708,195.25611c0.02832,-0.24734 0.17489,-0.43921 0.12287,-0.62582c-0.1853,-0.09863 -0.37418,-0.11781 -0.57278,-0.11262c-0.08565,0.17988 -0.17929,0.34443 -0.14496,0.54013c0.18708,0.05892 0.35653,0.12687 0.5948,0.19826zM267.10992,201.49146c-0.17917,-0.0436 -0.32298,-0.10534 -0.51364,-0.08482c-0.03625,0.23201 -0.1749,0.43917 -0.14233,0.6746c0.16152,0.05269 0.2992,0.05943 0.46603,-0.00703c0.07773,-0.19518 0.12988,-0.39657 0.18992,-0.58268zM257.28694,198.80667c-0.16944,-0.06801 -0.28942,-0.08379 -0.43688,-0.06619c-0.06006,0.18612 -0.08665,0.39375 0.00865,0.57748c0.15357,0.03737 0.30707,0.07473 0.4686,0.12743c0.05394,-0.24114 -0.02367,-0.43395 -0.0404,-0.63875zM268.86119,198.39822c-0.14558,-0.02207 -0.26567,-0.03787 -0.37949,0.00131c-0.02656,0.20761 -0.01774,0.3971 0.03425,0.58372c0.13586,0.04647 0.25592,0.06228 0.39538,0.0293c0.04422,-0.21675 -0.03341,-0.40956 -0.05014,-0.61434zM264.71487,203.55806c0.20116,0.12924 0.35035,0.07187 0.50131,-0.0252c0.12358,-0.06358 0.2313,-0.15782 0.22075,-0.30759c-0.16944,-0.06801 -0.33091,-0.12068 -0.52952,-0.11548c-0.07595,0.15549 -0.13425,0.30188 -0.19255,0.44825zM265.94612,194.93248c-0.1244,-0.11055 -0.1879,-0.23304 -0.35116,-0.24601c-0.21813,0.44203 0.02093,0.68758 0.3642,0.91825c-0.00697,-0.22918 -0.00602,-0.44309 -0.01302,-0.67223zM262.89043,204.05085c0.12717,-0.143 0.19337,-0.27407 0.22786,-0.46641c-0.16327,-0.01294 -0.26035,-0.15699 -0.43331,-0.14556c-0.09803,0.06982 -0.10154,0.14923 -0.14836,0.23152c-0.03885,0.09757 -0.11126,0.17365 -0.05571,0.28084c0.11826,0.05556 0.23652,0.11109 0.40951,0.09965zM262.47553,198.6777c0.2418,-0.00805 0.33189,-0.09319 0.27808,-0.24008c-0.08552,-0.20815 -0.20639,-0.39814 -0.31931,-0.57282c-0.03172,-0.06124 -0.08913,-0.12871 -0.21091,-0.10483c0.05462,0.32106 0.14454,0.62392 0.25211,0.91774zM268.13209,201.00423c0.08292,0.07371 0.17738,0.08331 0.29126,0.04412c0.10511,-0.22868 0.25347,-0.46021 0.24828,-0.7291c-0.25948,0.01715 -0.40254,0.12953 -0.44672,0.34625c-0.03885,0.09759 -0.121,0.19808 -0.0928,0.33873zM264.76185,197.30713c0.24714,-0.12717 0.28421,-0.18511 0.21282,-0.32289c-0.1288,-0.20529 -0.26551,-0.4259 -0.46493,-0.59485c0.00165,0.34833 0.01302,0.67224 0.25211,0.91775zM268.19422,197.49999c0.04583,0.13157 0.10146,0.23879 0.13933,0.35505c0.09345,0.22349 0.09348,0.22346 0.45098,0.13653c-0.02026,-0.12539 -0.03079,-0.27515 -0.0449,-0.34545c-0.20476,-0.04985 -0.36623,-0.10251 -0.54539,-0.14609zM260.48148,194.4858c-0.06626,0.13109 -0.20924,0.24349 -0.12194,0.41193c0.1456,0.02206 0.30096,0.01971 0.47215,0.04799c0.07597,-0.1555 0.17754,-0.3047 0.16697,-0.45447c-0.1633,-0.01292 -0.31685,-0.05035 -0.51721,-0.00544zM267.74432,199.26401c0.01497,0.24447 0.01218,0.49806 0.02713,0.74256c0.07501,0.05836 0.15968,0.09239 0.24972,0.00726c0.08745,-0.21956 0.12373,-0.45164 0.07348,-0.67795c-0.11826,-0.05556 -0.22061,-0.08043 -0.35038,-0.07184zM264.28543,194.2741c0.11564,-0.07891 0.1722,-0.18559 0.19516,-0.31381c-0.06707,-0.04309 -0.13412,-0.08615 -0.20121,-0.12922c-0.09262,-0.04932 -0.16767,-0.10769 -0.28946,-0.08379c-0.10592,0.0545 -0.17833,0.13052 -0.20924,0.24346c0.15975,0.09239 0.34506,0.19099 0.50472,0.28341zM260.64872,195.7576c0.07597,-0.1555 0.09101,-0.29903 0.08047,-0.44878c-0.18884,-0.01921 -0.36007,-0.04746 -0.52331,-0.06044c-0.11741,0.11866 -0.14041,0.24685 -0.11045,0.34782c0.18706,0.05892 0.37417,0.11781 0.55331,0.16146zM265.23757,194.38542c-0.10057,-0.06461 -0.20116,-0.12924 -0.31942,-0.18481c-0.02556,-0.00622 -0.06092,0.01195 -0.10419,0.01482c-0.04681,0.08227 -0.13685,0.16741 -0.12631,0.31718c0.11651,0.09525 0.23119,0.23016 0.41826,0.2891c0.10151,-0.14924 0.12448,-0.27747 0.13162,-0.43631zM266.85608,195.22072c-0.06968,-0.17752 0.10866,-0.30811 0.02928,-0.46122c-0.13411,-0.08614 -0.22319,-0.2149 -0.42796,-0.26471c-0.08388,0.14016 -0.15013,0.27126 -0.0257,0.38179c0.1244,0.11056 0.17818,0.25743 0.42439,0.34414zM268.82269,199.83413c0.01505,-0.14353 0.04773,-0.29615 0.07074,-0.42434c0.00972,-0.0244 -0.02381,-0.04596 -0.03971,-0.07656c-0.10416,0.01481 -0.23212,-0.01636 -0.36717,0.11139c-0.02473,0.16792 -0.04162,0.35117 -0.07608,0.54352c0.15533,-0.00233 0.26921,-0.04156 0.41223,-0.15393zM259.70632,195.23387c-0.15355,-0.03738 -0.31505,-0.09006 -0.44299,-0.12117c-0.13508,0.1277 -0.20134,0.25879 -0.24989,0.38078c0.07325,0.09813 0.20473,0.0498 0.29919,0.05942c0.09447,0.00958 0.1968,0.0345 0.31247,-0.04442c0.05473,-0.06697 0.10156,-0.14926 0.0813,-0.27462zM261.16317,204.29954c0.14385,0.06172 0.25417,0.10201 0.36446,0.14221c0.03352,0.02157 0.09445,0.00962 0.12004,0.01583c0.12358,-0.06358 0.18013,-0.17028 0.20308,-0.2985c-0.15179,-0.07706 -0.28593,-0.16323 -0.46501,-0.20688c-0.08209,0.10045 -0.13863,0.20714 -0.22253,0.34729zM268.66286,197.23943c-0.03255,-0.23543 -0.06516,-0.4708 -0.22924,-0.65795c-0.13507,0.1277 -0.26841,0.21572 -0.29316,0.38362c0.2232,0.2149 0.22322,0.2149 0.52238,0.27432zM263.30163,204.11081c0.45098,0.13653 0.46858,0.12742 0.707,-0.18929c-0.16153,-0.05269 -0.33269,-0.08095 -0.4942,-0.13367c-0.11564,0.07891 -0.17215,0.18557 -0.21283,0.32288zM263.21134,194.18668c-0.15177,-0.07706 -0.28769,-0.12352 -0.4607,-0.11211c-0.02738,0.03349 -0.06448,0.09138 -0.10157,0.14926c-0.01944,0.04881 -0.03093,0.11293 -0.05036,0.16167c0.15179,0.07705 0.29387,0.17854 0.47479,0.18243c0.08209,-0.10044 0.12278,-0.23775 0.13778,-0.38128zM259.73079,204.12496c0.03706,-0.05788 0.08387,-0.14017 0.07774,-0.1952c-0.03435,-0.19571 -0.14904,-0.33061 -0.35997,-0.43549c-0.0742,0.11575 -0.19952,0.21906 -0.20486,0.33823c0.14998,0.11678 0.25498,0.27614 0.48709,0.29247zM257.35786,197.60632c-0.02556,-0.00623 -0.05118,-0.01245 -0.10236,-0.0249c-0.16601,0.24064 -0.25523,0.49992 -0.34443,0.7592c0.10852,0.07993 0.20295,0.08951 0.35211,0.03217c0.02832,-0.24734 0.07427,-0.50376 0.09468,-0.76647zM263.43799,197.21252c0.01315,0.28422 0.00072,0.56215 0.15331,0.8134c0.00793,0.01534 0.09444,0.00957 0.12974,-0.00859c0.08825,-0.04546 0.12712,-0.14303 0.0874,-0.21957c-0.05022,-0.22633 -0.18874,-0.40724 -0.37046,-0.58524zM262.35088,193.95052c-0.13589,-0.04649 -0.27181,-0.09291 -0.42715,-0.09057c-0.12358,0.06358 -0.19599,0.13964 -0.2287,0.29223c0.17123,0.02827 0.35037,0.07189 0.51363,0.08486c0.09003,-0.08511 0.13683,-0.1674 0.14219,-0.28654zM266.11219,202.97479c0.25509,-0.11188 0.47491,-0.20555 0.63119,-0.42178c-0.1244,-0.11054 -0.27973,-0.10823 -0.44479,-0.08148c-0.0936,0.16457 -0.1775,0.30471 -0.18637,0.5033zM258.02774,203.25554c0.11128,-0.17365 0.12101,-0.19801 0.0972,-0.24399c-0.0617,-0.1622 -0.22144,-0.25462 -0.37321,-0.33168c-0.0591,-0.02775 -0.15534,0.00238 -0.16066,0.1215c0.17737,0.08332 0.20995,0.31875 0.43675,0.45418zM258.11958,197.35012c0.04602,-0.25643 0.11755,-0.50666 0.00022,-0.77604c-0.19156,0.23437 -0.21992,0.48176 -0.26409,0.69846c0.05732,0.0675 0.12616,0.07082 0.26386,0.07756zM262.19749,204.31042c-0.06445,0.09137 -0.13684,0.16742 -0.2013,0.25878c0.15973,0.09241 0.32122,0.14508 0.4916,-0.00081c0.04504,-0.04256 0.09002,-0.08512 0.07595,-0.15549c-0.08292,-0.0737 -0.20298,-0.08953 -0.36623,-0.1025zM265.86538,196.5453c0.15889,-0.0818 0.21363,-0.14871 0.13247,-0.26212c-0.07324,-0.09814 -0.14646,-0.19622 -0.23734,-0.28524c-0.04149,-0.03682 -0.1006,-0.06464 -0.16328,-0.01297c0.0423,0.21101 0.12963,0.37944 0.26813,0.56033zM258.99787,199.69143c0.03256,0.23544 0.10049,0.45265 0.25663,0.62446c0.00794,0.01533 0.09443,0.00957 0.11206,0.0005c0.03529,-0.01816 0.04681,-0.08227 0.03092,-0.11291c-0.12084,-0.18999 -0.1808,-0.39192 -0.39968,-0.51209zM258.42043,200.64811c-0.13234,-0.12587 -0.21968,-0.29435 -0.41289,-0.4083c0.01494,0.24448 0.06695,0.4311 0.16754,0.49572c0.08292,0.0737 0.15356,0.03739 0.24537,-0.08745zM267.72936,201.90979c0.18804,-0.15497 0.43522,-0.28219 0.46353,-0.52952c-0.38127,0.04105 -0.40957,0.28838 -0.46353,0.52952zM266.03742,199.25009c0.03528,-0.01816 0.04508,-0.0426 0.08036,-0.06075c-0.09703,-0.14402 -0.09788,-0.31819 -0.2576,-0.41057c-0.11386,0.03917 -0.15889,0.08176 -0.17215,0.18559c0.10852,0.07993 0.22498,0.17518 0.34944,0.28574zM261.27174,198.59882c0.05818,0.24163 0.11021,0.42825 0.2231,0.60293c0.01587,0.03063 0.06705,0.04308 0.12001,0.01582c0.01767,-0.0091 0.04503,-0.04256 0.05473,-0.06697c-0.03255,-0.23543 -0.12783,-0.41915 -0.39786,-0.55177zM260.12618,204.15426c-0.09002,0.08513 -0.12713,0.14299 -0.068,0.17077c0.10852,0.07993 0.23473,0.15077 0.36091,0.22164c0.08471,0.03401 0.13767,0.00675 0.15888,-0.08176c-0.14026,-0.14121 -0.2647,-0.25176 -0.45177,-0.31066zM261.24853,194.11046c0.04681,-0.08227 0.10155,-0.14927 0.14836,-0.23153c0.00974,-0.02439 -0.00617,-0.05502 -0.0123,-0.11006c-0.21184,0.10898 -0.42984,0.16301 -0.62762,0.34236c0.17123,0.02827 0.29124,0.0441 0.49159,-0.00082zM261.36172,201.40404c0.09704,0.14405 0.18615,0.27279 0.29906,0.44747c0.09716,-0.24401 0.0787,-0.40906 -0.01836,-0.55308c-0.11208,-0.00051 -0.17299,0.01142 -0.28073,0.10564zM266.70673,198.16849c0.12621,0.07088 0.17817,0.25744 0.42001,0.24941c-0.13758,-0.39475 -0.17725,-0.4713 -0.28143,-0.45653c-0.08825,0.04546 -0.12537,0.10331 -0.13864,0.20713zM260.22834,199.17461c-0.09281,0.33872 0.0025,0.52243 0.19218,0.71582c0.1519,-0.31096 -0.10049,-0.45263 -0.19218,-0.71582zM266.3944,195.32251c-0.08308,0.31432 0.00426,0.48279 0.13483,0.64836c0.00794,0.01531 0.05118,0.01245 0.08648,-0.00572c0.05298,-0.02724 0.07239,-0.07605 0.05651,-0.10666c-0.06169,-0.16221 -0.15873,-0.30624 -0.27782,-0.53593zM267.43518,197.50268c0.1244,0.11055 0.22146,0.2546 0.45351,0.27092c-0.02642,-0.1804 -0.11553,-0.30912 -0.19667,-0.42253c-0.12974,0.00857 -0.19239,0.06021 -0.25687,0.1516zM266.1891,194.32246c-0.19504,-0.07422 -0.28236,-0.24267 -0.49066,-0.21306c0.05818,0.24163 0.05818,0.24163 0.36349,0.35608c0.02738,-0.03349 0.05473,-0.06697 0.12714,-0.14302zM267.57787,201.05661c0.22334,-0.17314 0.27549,-0.37455 0.30203,-0.58219c-0.10057,-0.06461 -0.17123,-0.02827 -0.20036,0.04491c-0.02473,0.16793 -0.06718,0.34496 -0.10164,0.53727zM263.37296,193.85129c0.09802,-0.06983 0.17834,-0.13056 0.18365,-0.24967c-0.1103,-0.04022 -0.22062,-0.08048 -0.33444,-0.04127c-0.08034,0.06073 -0.11742,0.11864 -0.12099,0.19808c0.07501,0.05837 0.15179,0.07707 0.27182,0.09288zM263.96482,200.47186c-0.01053,-0.14975 -0.02285,-0.25985 -0.1058,-0.33354c-0.03352,-0.02157 -0.07678,-0.01869 -0.12004,-0.01582c-0.05298,0.02724 -0.10774,0.09422 -0.06627,0.13107c0.04764,0.09191 0.1032,0.19908 0.2921,0.21828zM259.95277,194.54448c-0.18271,0.03584 -0.28426,0.18509 -0.4096,0.28841c0.31506,0.09007 0.35036,0.07184 0.4096,-0.28841zM257.42384,201.14154c-0.04846,-0.26603 -0.04845,-0.26603 -0.25499,-0.27616c0.0123,0.11006 0.03259,0.23543 0.25499,0.27616zM264.82731,199.50422c-0.09447,-0.00958 -0.14741,0.01766 -0.14918,0.05736c-0.02473,0.16793 0.01671,0.20479 0.24706,0.26083c-0.00257,-0.13442 -0.05021,-0.22635 -0.09786,-0.31822zM267.19939,195.06346c-0.04856,0.12201 -0.07948,0.23491 0.01135,0.3239c0.25863,-0.19131 0.26044,-0.23097 -0.01135,-0.3239zM256.77528,200.79641c-0.05035,0.16173 -0.00454,0.2933 0.03339,0.40954c0.03172,0.06125 0.10856,0.07995 0.18273,-0.03583c-0.03793,-0.11625 -0.08377,-0.24788 -0.2161,-0.37374zM265.11693,193.80733c0.04408,0.1713 0.13671,0.22064 0.29386,0.17856c0,0 0.02738,-0.03349 0.01942,-0.0488c-0.03,-0.10096 -0.16763,-0.10772 -0.31329,-0.12979zM262.71841,200.95808c0.09002,-0.08513 0.09362,-0.16458 0.0442,-0.21673c-0.01587,-0.03063 -0.06707,-0.04308 -0.11031,-0.04023c-0.04326,0.00287 -0.08032,0.06071 -0.06442,0.09134c0.00616,0.05503 0.0379,0.11626 0.13055,0.16559zM262.45171,193.62709c0.12619,0.07087 0.22062,0.08047 0.33009,-0.05351c-0.15179,-0.07705 -0.23827,-0.07137 -0.33009,0.05351z" fill="url(#color-11)"/><path d="M265.30082,206.45717c0.57288,-0.2754 1.14582,-0.55082 1.71075,-0.84157c0.63558,-0.32708 1.23937,-0.71538 1.78584,-1.17119c0.17038,-0.14588 0.28957,-0.30417 0.46967,-0.47444c0.12702,0.24503 0.25582,0.45027 0.34928,0.67375c0.59619,1.32263 1.28856,2.61515 1.92801,3.93491c0.56797,1.18197 1.14572,2.3395 1.73137,3.51238c0.39515,0.80536 0.78231,1.59541 1.17743,2.40077c0.37132,0.75944 0.77,1.48533 1.14134,2.24475c0.03175,0.06126 0.06351,0.12251 0.0776,0.19284c-0.15981,0.29565 -0.38499,0.50847 -0.65333,0.72418c-0.42906,0.33719 -0.89162,0.65282 -1.39387,0.89188c-0.15889,0.0818 -0.30984,0.17886 -0.49076,0.17494c0.14303,-0.11241 0.34335,-0.15732 0.49787,-0.3338c-0.25054,-0.18141 -0.33257,-0.46899 -0.47724,-0.70493c-0.00794,-0.01531 -0.01586,-0.03062 -0.03351,-0.02156c-0.35555,-0.34077 -0.58575,-0.78487 -0.89631,-1.1682c-0.11468,-0.13495 -0.28236,-0.24266 -0.32643,-0.41393c-0.12343,-0.32445 -0.43319,-0.5336 -0.55665,-0.85806c-0.00794,-0.01531 -0.04148,-0.03685 -0.05734,-0.06749c-0.20378,-0.26365 -0.41726,-0.50299 -0.58576,-0.78483c-0.17464,-0.33688 -0.47466,-0.57048 -0.61399,-0.92551c-0.20912,-0.14454 -0.27698,-0.36181 -0.40577,-0.5671c-0.01587,-0.03063 -0.02384,-0.04595 -0.03968,-0.07656c-0.30001,-0.23359 -0.3961,-0.59147 -0.62548,-0.86142c-0.22938,-0.26992 -0.36077,-0.60965 -0.57251,-0.88865c-0.23554,-0.32496 -0.51612,-0.60728 -0.65366,-1.00208c-0.01587,-0.03063 -0.03968,-0.07659 -0.07322,-0.09812c-0.19328,-0.11391 -0.23554,-0.32494 -0.34844,-0.49962c-0.04764,-0.09191 -0.08553,-0.20813 -0.16848,-0.28186c-0.14203,-0.10149 -0.1879,-0.23306 -0.25936,-0.37089c-0.03969,-0.07656 -0.06173,-0.16225 -0.12879,-0.20528c-0.20912,-0.14454 -0.28495,-0.37709 -0.38815,-0.57615c-0.03969,-0.07656 -0.06173,-0.1622 -0.12878,-0.2053c-0.17555,-0.12303 -0.24527,-0.30054 -0.33257,-0.46901c-0.14292,-0.27565 -0.40935,-0.48767 -0.53457,-0.77237c-0.00617,-0.05502 -0.0829,-0.07372 -0.12441,-0.11055z" fill="#87d7dc"/><path d="M265.30085,206.4572c0.04147,0.03686 0.11826,0.05553 0.14207,0.10148c0.12526,0.28471 0.37403,0.50583 0.53459,0.77238c0.08731,0.16845 0.157,0.34599 0.33255,0.469c0.06707,0.04309 0.0891,0.12874 0.1288,0.20526c0.10321,0.19905 0.19664,0.42255 0.38811,0.5762c0.06707,0.04309 0.07146,0.13783 0.12881,0.20528c0.07144,0.1378 0.13495,0.26034 0.25936,0.37089c0.08292,0.0737 0.12086,0.19001 0.16848,0.28188c0.11291,0.17465 0.15522,0.38567 0.34845,0.4996c0.03352,0.02157 0.05734,0.06748 0.07323,0.0981c0.12962,0.37946 0.41815,0.67716 0.65369,1.00208c0.21968,0.29435 0.35105,0.63405 0.57248,0.88868c0.22938,0.26989 0.32547,0.62782 0.62547,0.86139c0.02557,0.00625 0.0238,0.04596 0.03968,0.07659c0.10321,0.19905 0.19669,0.42253 0.40581,0.5671c0.12167,0.36415 0.4217,0.59771 0.61397,0.92552c0.15081,0.29095 0.38198,0.52114 0.58575,0.78486c0.01587,0.03063 0.04151,0.03685 0.05736,0.06748c0.12343,0.32445 0.43318,0.53359 0.55665,0.85806c0.06967,0.17751 0.22938,0.26994 0.32643,0.41394c0.29288,0.39242 0.54076,0.82742 0.8963,1.16819c0.00794,0.01531 0.03356,0.02153 0.03356,0.02153c0.14469,0.23593 0.22667,0.52354 0.47726,0.70493c-0.13684,0.16741 -0.34517,0.197 -0.49789,0.3338c-0.14122,0.07269 -0.28248,0.14533 -0.45372,0.11705c-0.04764,-0.09191 -0.08553,-0.20813 -0.16847,-0.28183c-0.29027,-0.25797 -0.4393,-0.58866 -0.64134,-0.89207c-0.202,-0.30338 -0.49231,-0.56135 -0.61397,-0.92548c-0.20912,-0.14454 -0.27703,-0.3618 -0.40581,-0.56709c-0.01587,-0.03063 -0.03969,-0.07656 -0.07323,-0.09811c-0.15973,-0.0924 -0.20376,-0.26367 -0.29289,-0.39244c-0.03969,-0.07656 -0.07941,-0.15312 -0.12879,-0.20529c-0.26293,-0.29146 -0.51612,-0.60728 -0.69871,-0.95951c-0.02379,-0.04596 -0.03789,-0.11629 -0.0891,-0.12871c-0.16762,-0.10769 -0.2294,-0.26989 -0.30878,-0.42303c-0.06967,-0.17751 -0.27266,-0.26706 -0.35023,-0.45991c-0.10936,-0.2541 -0.31671,-0.43836 -0.47903,-0.66519c-0.20998,-0.31872 -0.48257,-0.58577 -0.66512,-0.93798c-0.03175,-0.06126 -0.05379,-0.14692 -0.11293,-0.17468c-0.1341,-0.08619 -0.18792,-0.23303 -0.27701,-0.36178c-0.0635,-0.1225 -0.14465,-0.23591 -0.23552,-0.32497c-0.1738,-0.16274 -0.31232,-0.34361 -0.42349,-0.558c-0.18435,-0.31248 -0.47465,-0.57046 -0.59633,-0.93457c-0.01587,-0.03063 -0.05731,-0.06749 -0.07322,-0.09813c-0.21968,-0.29435 -0.45701,-0.57953 -0.6413,-0.89203c-0.17464,-0.33688 -0.49054,-0.60109 -0.62985,-0.95615c-0.02379,-0.04596 -0.08293,-0.07368 -0.12441,-0.11055c-0.1385,-0.18089 -0.26729,-0.3862 -0.31752,-0.61251c0.08035,-0.06073 0.15093,-0.09709 0.21364,-0.14873c0.271,-0.08125 0.4987,-0.15964 0.73617,-0.26245z" fill="#b0eef2"/><path d="M267.94777,195.29908c0.20375,0.26365 0.3405,0.48431 0.38896,0.75034c-0.07775,0.1952 -0.24809,0.34109 -0.41053,0.50224c-0.83603,0.76 -1.68003,1.50469 -2.62285,2.14508c-0.71153,0.48255 -1.44071,0.97419 -2.20956,1.38926c-0.21184,0.10901 -0.44931,0.21184 -0.63737,0.36678c-0.08035,0.06073 -0.18628,0.11525 -0.29217,0.16975c-0.45547,0.1568 -0.8633,0.40546 -1.29497,0.60821c-0.6082,0.29361 -1.24817,0.52596 -1.90397,0.72765c-0.33187,0.0932 -0.65583,0.2017 -0.99742,0.31932c-0.26303,0.09653 -0.52251,0.11372 -0.77407,0.14617c-0.26647,-0.21205 -0.33968,-0.31013 -0.49488,-0.69582c0.3963,-0.18457 0.8147,-0.28348 1.22689,-0.43739c0.39456,-0.14484 0.80675,-0.29878 1.1934,-0.45895c0.40426,-0.16923 0.8183,-0.3629 1.21461,-0.54745c0.3866,-0.16014 0.74324,-0.42132 1.15372,-0.53555c0.34872,-0.27645 0.76093,-0.43036 1.14141,-0.64556c0.36281,-0.2061 0.73531,-0.43662 1.09021,-0.65803c0.37253,-0.23051 0.73709,-0.47631 1.11938,-0.73121c0.34694,-0.23673 0.71946,-0.46721 1.05846,-0.71929c0.35663,-0.26112 0.67977,-0.54378 1.02849,-0.82023c0.36637,-0.28553 0.70535,-0.53756 1.02232,-0.87527z" fill="url(#color-12)"/><path d="M264.59024,206.72592c-0.06268,0.05164 -0.13331,0.08801 -0.21362,0.14874c0.05026,0.22633 0.15342,0.42536 0.31752,0.61252c0.04147,0.03687 0.10058,0.06463 0.1244,0.11055c0.13931,0.35505 0.43758,0.62836 0.62985,0.95615c0.1667,0.32157 0.42167,0.59772 0.64129,0.89205c0.01587,0.03063 0.05735,0.06749 0.07323,0.0981c0.12165,0.36416 0.42164,0.59773 0.5963,0.93461c0.10321,0.19905 0.24965,0.39528 0.42348,0.55798c0.09877,0.10431 0.17998,0.21774 0.23554,0.32496c0.07144,0.1378 0.1173,0.2694 0.27702,0.36179c0.0591,0.02776 0.08115,0.11344 0.1129,0.17469c0.17464,0.33688 0.45522,0.61923 0.66516,0.93795c0.1623,0.22685 0.36968,0.4111 0.47902,0.66519c0.06967,0.17751 0.27263,0.26704 0.35023,0.4599c0.06172,0.16221 0.13139,0.33974 0.30876,0.42307c0.04147,0.03687 0.06528,0.08279 0.0891,0.1287c0.18256,0.35218 0.42778,0.65274 0.6987,0.9595c0.05732,0.0675 0.0794,0.1531 0.12878,0.20528c0.07144,0.1378 0.13321,0.30001 0.29291,0.39241c0.03352,0.02157 0.05734,0.06747 0.07321,0.09809c0.10321,0.19905 0.19667,0.42254 0.4058,0.56709c0.12167,0.36414 0.41197,0.62213 0.61398,0.92549c0.202,0.30338 0.35898,0.64934 0.6413,0.89203c0.08292,0.07371 0.12083,0.19 0.16849,0.28187c-0.15097,0.09708 -0.30449,0.05972 -0.43603,0.10802c-0.42168,-0.5977 -0.84514,-1.15574 -1.25093,-1.72281c-0.4552,-0.61927 -0.88482,-1.23229 -1.32239,-1.8606c-0.41375,-0.58242 -0.84516,-1.15571 -1.27653,-1.72905c-0.52843,-0.71737 -1.06658,-1.41033 -1.58709,-2.11236c-0.38994,-0.53648 -0.77981,-1.07295 -1.18743,-1.60031c-0.6096,-0.83078 -1.15653,-1.71323 -1.80143,-2.52581c-0.08115,-0.1134 -0.19763,-0.20866 -0.2161,-0.37372c0.15889,-0.0818 0.34159,-0.11758 0.51637,-0.16874c0.10415,-0.01482 0.24715,-0.1272 0.42811,-0.12333z" fill="#87d7dc"/><path d="M273.68576,218.9215c0.35487,-0.22141 0.72385,-0.37251 1.07076,-0.60923c0.39198,-0.2793 0.77596,-0.57393 1.11237,-0.96038c0.46043,0.88815 0.9129,1.76097 1.35745,2.61849c-0.10686,0.2684 -0.30465,0.44774 -0.47681,0.63333c-0.3346,0.34678 -0.72479,0.58636 -1.13263,0.83504c-0.01767,0.0091 -0.06089,0.01194 -0.08652,0.00574c0.11127,-0.17363 -0.0052,-0.26887 -0.10404,-0.37322c-0.24705,-0.26083 -0.47642,-0.53073 -0.61752,-0.84609c-0.03175,-0.06126 -0.06352,-0.1225 -0.11293,-0.17464c-0.25677,-0.23645 -0.39786,-0.55177 -0.60167,-0.81546c-0.12258,-0.1503 -0.22145,-0.25454 -0.40853,-0.31349z" fill="#61afb4"/><path d="M263.26965,204.82558c0.66554,-0.22609 1.27549,-0.55939 1.9172,-0.83145c0.2904,-0.13004 0.55701,-0.30605 0.82364,-0.48205c0.51379,-0.30318 1.07691,-0.55419 1.55891,-0.91865c0.19599,-0.13965 0.39196,-0.27928 0.56237,-0.42516c0.10774,-0.09423 0.22331,-0.17313 0.34694,-0.23673c0.04149,0.03682 0.07499,0.0584 0.09087,0.08905c0.06348,0.12251 0.12703,0.24498 0.19055,0.36748c-0.06444,0.09137 -0.11922,0.15832 -0.19158,0.23438c-0.54028,0.51081 -1.09826,1.03074 -1.78683,1.38509c-0.59233,0.32424 -1.20226,0.65749 -1.82636,0.9205c-0.49259,0.21471 -0.97718,0.44467 -1.51557,0.52778c0.07236,-0.07606 0.20213,-0.08463 0.2251,-0.21284c-0.05202,-0.1866 -0.10224,-0.41293 -0.39525,-0.41732z" fill="url(#color-13)"/><path d="M264.22518,205.63349c0.28427,-0.18507 0.61435,-0.23855 0.9224,-0.37769c0.64353,-0.31177 1.28705,-0.6235 1.90671,-0.98122c0.4961,-0.29409 0.9428,-0.64039 1.35598,-1.00818c0.10774,-0.09423 0.21539,-0.18843 0.32311,-0.28267c0.11114,0.21439 0.20644,0.39812 0.30961,0.59721c-0.1166,0.29277 -0.34178,0.50561 -0.60039,0.69694c-0.30367,0.2339 -0.62501,0.47681 -0.97017,0.67383c-0.76271,0.47006 -1.5554,0.83921 -2.3578,1.23276c-0.14122,0.07268 -0.28249,0.14538 -0.44575,0.13241c-0.03969,-0.07656 -0.06175,-0.1622 -0.12879,-0.20527c-0.15,-0.11679 -0.22764,-0.30966 -0.31493,-0.47806z" fill="url(#color-14)"/><path d="M273.68575,218.92151c0.16153,0.05269 0.27794,0.14794 0.375,0.29198c0.20377,0.26366 0.3449,0.57906 0.60165,0.81546c0.0494,0.05218 0.08119,0.11342 0.11293,0.17469c0.16673,0.32157 0.38813,0.57616 0.61751,0.84609c0.09088,0.08903 0.21531,0.19958 0.10403,0.37323c-0.25689,0.15158 -0.51991,0.24818 -0.78912,0.28972c-0.16413,-0.18714 -0.34585,-0.36518 -0.42169,-0.59772c-0.01587,-0.03063 -0.05733,-0.06748 -0.07323,-0.09811c-0.21172,-0.27899 -0.43139,-0.57332 -0.62548,-0.86141c-0.0891,-0.12872 -0.15258,-0.25124 -0.25935,-0.37091c-0.14025,-0.14119 -0.25321,-0.31587 -0.25226,-0.52974c0.08034,-0.06073 0.15096,-0.09708 0.21364,-0.14871c0.12358,-0.06358 0.27277,-0.12098 0.39631,-0.18458z" fill="#87d7dc"/><path d="M259.87072,197.14728c0.323,0.10534 0.53826,0.30488 0.73593,0.51361c0.0494,0.05217 0.09703,0.14407 0.11114,0.21439c0.08898,0.51675 0.24855,0.99718 0.42579,1.46849c0.00794,0.01531 0.00616,0.05501 -0.00354,0.07943c-0.04681,0.08227 -0.13507,0.12773 -0.24715,0.12721c-0.01587,-0.03063 -0.04945,-0.05216 -0.0653,-0.0828c-0.17281,-0.37659 -0.39867,-0.72595 -0.70483,-1.01455c-0.14821,-0.15651 -0.23554,-0.32497 -0.24254,-0.55414c0.00275,-0.25358 -0.04751,-0.47989 -0.00946,-0.75168z" fill="#cce5e6"/><path d="M260.01009,200.00462c-0.08209,0.10045 -0.16065,0.12148 -0.23744,0.10281c-0.41634,-0.71686 -0.41634,-0.71684 -1.03222,-1.21461c-0.09965,-0.27851 -0.11102,-0.60241 -0.14971,-0.89285c0.10774,-0.09423 0.17295,-0.01142 0.23209,0.01635c0.2109,0.10483 0.41387,0.1944 0.5974,0.33273c0.1165,0.09526 0.18967,0.19339 0.21788,0.33401c0.09253,0.43737 0.21066,0.88088 0.372,1.32159z" fill="#cce5e6"/><path d="M273.27178,219.11515c-0.06268,0.05164 -0.13334,0.088 -0.21364,0.14871c-0.00096,0.21388 0.11195,0.38853 0.25227,0.52975c0.10678,0.11966 0.17027,0.24213 0.25934,0.37092c0.19409,0.28809 0.41373,0.5824 0.62546,0.86141c0.01587,0.03063 0.05736,0.06749 0.07322,0.09812c0.10142,0.23877 0.27521,0.40151 0.42164,0.59772c-0.15709,0.04208 -0.2966,0.07502 -0.48548,0.05582c-0.27522,-0.4015 -0.59374,-0.80018 -0.85926,-1.22608c-0.27522,-0.4015 -0.62107,-0.76667 -0.85924,-1.22605c0.29039,-0.13003 0.534,-0.17783 0.78555,-0.21032z" fill="#60adb2"/><path d="M265.13896,199.28564c0.06268,-0.05164 0.10775,-0.09423 0.17039,-0.14588c0.0512,0.01245 0.07676,0.0187 0.10234,0.02492c0.20558,0.22397 0.45619,0.40538 0.72438,0.57771c0.10853,0.07993 0.17384,0.16274 0.17643,0.29717c0.02286,0.2598 0.08899,0.51674 -0.04528,0.81862c-0.31504,-0.09007 -0.56565,-0.27144 -0.79856,-0.46197c-0.04149,-0.03682 -0.06347,-0.12252 -0.0776,-0.19283c-0.08994,-0.30284 -0.17987,-0.60582 -0.25212,-0.91778z" fill="#cce5e6"/><path d="M263.37778,195.28427c0.14999,0.11676 0.25059,0.18143 0.35912,0.26137c0.19148,0.15366 0.30438,0.32831 0.3096,0.59721c0.0316,0.44926 0.1242,0.88663 0.32263,1.26944c0.0635,0.1225 0.05377,0.14688 -0.16601,0.24064c-0.02381,-0.04595 -0.0653,-0.08278 -0.0891,-0.12875c-0.1808,-0.3919 -0.42427,-0.73215 -0.72072,-1.04516c-0.06527,-0.08281 -0.12261,-0.15028 -0.12705,-0.24502c0.02215,-0.30239 0.00903,-0.58658 0.11156,-0.94969z" fill="#cae2e3"/><path d="M262.10126,198.9479c-0.02556,-0.00623 -0.05917,-0.02778 -0.06706,-0.04309c-0.14726,-0.37034 -0.39253,-0.67089 -0.64751,-0.94707c-0.22938,-0.26989 -0.38023,-0.56088 -0.35446,-0.94265c0.01684,-0.18324 -0.05287,-0.36074 0.00726,-0.54687c0.44918,0.17619 0.7103,0.50738 0.76135,0.90785c0.07309,0.48614 0.1206,0.96602 0.36847,1.40104c0.00617,0.05502 0.03788,0.11628 -0.06802,0.1708z" fill="#c9e1e2"/><path d="M262.14995,195.93554c0.30355,0.15415 0.4853,0.33217 0.67498,0.52554c0.05732,0.0675 0.09702,0.14405 0.09348,0.22348c0.06338,0.51054 0.17001,1.01818 0.31192,1.50768c0.01587,0.03063 0.02205,0.08563 -0.07418,0.11575c-0.05556,-0.10718 -0.11905,-0.22968 -0.19227,-0.3278c-0.17639,-0.29717 -0.37049,-0.58525 -0.62727,-0.82167c-0.18178,-0.17802 -0.26728,-0.38619 -0.23896,-0.63354c0.01684,-0.18324 0.04156,-0.35118 0.05225,-0.58946z" fill="#c9e1e2"/><path d="M266.17181,198.56017c0.06627,-0.13109 0.15454,-0.17651 0.24278,-0.22193c0.02556,0.00622 0.05916,0.02776 0.0847,0.03401c0.16232,0.22684 0.38733,0.40203 0.64941,0.5193c0.15176,0.07708 0.23293,0.19049 0.25141,0.35558c0.01671,0.20476 0.05902,0.41579 0.03248,0.62344c-0.26562,-0.03788 -0.62221,-0.16478 -0.721,-0.26912c-0.07501,-0.05837 -0.07146,-0.13779 -0.09347,-0.22348c-0.15259,-0.25122 -0.2249,-0.56322 -0.44629,-0.81781z" fill="#cae3e4"/><path d="M260.65795,202.67794c0.04951,-0.33583 0.04614,-0.64446 0.0171,-0.95931c0.09003,-0.08511 0.16069,-0.12151 0.27277,-0.12099c0.23114,0.23017 0.36252,0.56995 0.61135,0.79108c-0.00098,0.21387 -0.09456,0.37843 -0.1546,0.56454c-0.03885,0.09757 -0.05212,0.20137 -0.16778,0.2803c-0.24444,-0.1264 -0.35377,-0.38047 -0.57878,-0.55566z" fill="#c8e0e1"/><path d="M263.10955,200.50462c0.16681,-0.06646 0.21623,-0.01428 0.26564,0.03787c0.18972,0.19336 0.37143,0.37138 0.54348,0.57382c0.04942,0.05218 0.08117,0.11342 0.07763,0.19284c-0.03628,0.23201 -0.09019,0.47314 -0.16967,0.70805c-0.13586,-0.04647 -0.20121,-0.12926 -0.30178,-0.19388c-0.30175,-0.19387 -0.45438,-0.4451 -0.35191,-0.80821c0.04243,-0.17703 -0.00164,-0.34832 -0.06339,-0.51053z" fill="#cbe4e5"/><path d="M261.99736,201.07697c0.08825,-0.04546 0.14122,-0.07271 0.19418,-0.09996c0.03352,0.02157 0.07678,0.01871 0.0847,0.034c0.12258,0.1503 0.22763,0.30964 0.35025,0.45991c0.06527,0.08282 0.0873,0.16847 0.07403,0.27229c-0.03981,0.31145 -0.10525,0.6167 -0.2236,0.9492c-0.19504,-0.0742 -0.2841,-0.20294 -0.3732,-0.33167c-0.03172,-0.06124 -0.06349,-0.12253 -0.05203,-0.18658c0.1025,-0.36312 0.04967,-0.7239 -0.05434,-1.09714z" fill="#c8e0e1"/><path d="M264.22518,205.63348c0.08731,0.16845 0.16492,0.36131 0.34055,0.48431c0.06707,0.04309 0.08905,0.12871 0.12877,0.20527c-0.29218,0.16975 -0.59847,0.26919 -0.91887,0.29826c-0.07582,-0.23256 -0.25756,-0.41058 -0.38813,-0.57615c0.08388,-0.14016 0.2313,-0.15781 0.32132,-0.24295c0.15097,-0.09708 0.33545,-0.17262 0.51637,-0.16876z" fill="#85d5d9"/><path d="M265.10849,195.34418c0.0308,0.27514 0.06163,0.55023 0.11799,0.8316c0.05817,0.24164 0.32642,0.41395 0.18064,0.77993c-0.2699,-0.52061 -0.63165,-0.91643 -0.99336,-1.31223c0.00098,-0.21387 0.01161,-0.45213 0.11674,-0.68079c0.0512,0.01245 0.07679,0.01868 0.10235,0.0249c0.16763,0.10769 0.31768,0.22449 0.47558,0.35656z" fill="#c6dede"/><path d="M259.43299,196.90698c0.01136,0.32394 0.02452,0.60808 0.0359,0.93204c-0.18884,-0.01921 -0.30534,-0.11445 -0.44123,-0.16089c-0.14385,-0.06172 -0.31507,-0.09007 -0.43945,-0.20062c-0.05556,-0.10718 -0.0326,-0.2354 -0.02727,-0.35453c0.00533,-0.11912 0.02835,-0.24734 0.06897,-0.38466c0.29478,-0.03532 0.53128,0.07578 0.80311,0.16868z" fill="#cae3e3"/><path d="M258.89609,200.61669c-0.36175,-0.39579 -0.68379,-0.71501 -1.1038,-0.96439c-0.03256,-0.23544 -0.0828,-0.46172 -0.12331,-0.71246c0.29303,0.00439 0.47656,0.14271 0.68741,0.24755c0.03352,0.02157 0.05734,0.0675 0.0732,0.09811c0.14549,0.41006 0.29101,0.82016 0.46647,1.33116z" fill="#cae3e4"/><path d="M264.9918,201.41758c-0.30355,-0.15415 -0.56388,-0.31116 -0.56373,-0.69918c-0.0052,-0.26892 -0.10663,-0.5077 -0.20804,-0.74646c-0.04764,-0.0919 0.03268,-0.15262 0.15452,-0.17651c0.09173,0.26316 0.29906,0.44747 0.50641,0.63173c0.15794,0.13209 0.19409,0.28806 0.17726,0.47133c-0.00712,0.15884 0.029,0.31484 -0.06639,0.51914z" fill="#c8e0e1"/><path d="M263.26964,204.82557c0.30095,0.0197 0.34322,0.23071 0.42083,0.42357c-0.02299,0.12819 -0.14477,0.1521 -0.22509,0.21283c-0.23743,0.1028 -0.48105,0.15055 -0.74057,0.16771c-0.06967,-0.17751 -0.22758,-0.30963 -0.21871,-0.50818c0.08035,-0.06073 0.13332,-0.088 0.20391,-0.12433c0.19243,-0.06024 0.38483,-0.1205 0.55962,-0.17161z" fill="url(#color-15)"/><path d="M263.06941,201.98009c0.225,0.17519 0.39881,0.3379 0.59031,0.49154c-0.07159,0.25021 -0.1687,0.49418 -0.29945,0.71664c-0.13949,0.033 -0.22239,-0.04074 -0.3071,-0.07473c-0.08472,-0.034 -0.1694,-0.06797 -0.20731,-0.18427c0.04602,-0.25643 0.12905,-0.57073 0.22358,-0.94919z" fill="#c7dfe0"/><path d="M266.23008,201.3041c-0.04422,0.21675 -0.07077,0.42435 -0.17584,0.65304c-0.28332,-0.02878 -0.46682,-0.16711 -0.6936,-0.30259c0.02832,-0.24734 0.05663,-0.4947 0.07704,-0.75739c0.28767,0.12354 0.51449,0.25903 0.79242,0.40694z" fill="#c8e0e1"/><path d="M260.0264,195.98083c0.20476,0.04985 0.40946,0.09968 0.58507,0.22269c0.0052,0.26892 -0.00724,0.54686 -0.01174,0.84014c-0.03529,0.01816 -0.0706,0.03633 -0.07855,0.02101c-0.17738,-0.08332 -0.36266,-0.18192 -0.52238,-0.27431c-0.06707,-0.04309 -0.1165,-0.09526 -0.10501,-0.15934c0.01068,-0.23826 -0.03161,-0.44926 0.1326,-0.65021z" fill="#c4dcdd"/><path d="M262.9737,195.06548c-0.03804,0.27175 -0.05844,0.53441 -0.09648,0.80618c-0.16503,0.02671 -0.22852,-0.09578 -0.32914,-0.16041c-0.10057,-0.06461 -0.19149,-0.15365 -0.30001,-0.23356c-0.00698,-0.22918 0.10613,-0.44251 0.16794,-0.66836c0.24972,0.00724 0.39976,0.12405 0.55766,0.25617z" fill="#c8e0e1"/><path d="M266.68461,200.97321c0.01248,-0.27798 0.0152,-0.5316 0.01971,-0.82486c0.24005,0.03163 0.41564,0.15469 0.63806,0.1954c0.04048,0.25073 -0.0646,0.47941 -0.1106,0.73583c-0.22417,-0.00102 -0.40509,-0.00491 -0.54714,-0.1064z" fill="#c6ddde"/><path d="M267.13938,197.75188c0.31151,0.16947 0.5506,0.41496 0.89918,0.52657c0.04232,0.21101 0.09432,0.39766 0.05805,0.62968c-0.26742,0.00182 -0.46247,-0.07237 -0.54621,-0.32024c-0.08991,-0.30286 -0.26812,-0.56035 -0.41102,-0.83599z" fill="#b9cfd0"/><path d="M257.79635,200.91106c-0.12974,0.00857 -0.11651,-0.09524 -0.16587,-0.14739c-0.10675,-0.11966 -0.19585,-0.24834 -0.34944,-0.28574c-0.22856,-0.09577 -0.29824,-0.27326 -0.35817,-0.47521c-0.02202,-0.08568 -0.02643,-0.18039 -0.04669,-0.30575c0.31686,0.05031 0.57277,0.11263 0.65298,0.43988c0.05025,0.22632 0.17902,0.43164 0.26455,0.63978c0.02379,0.04595 0.04763,0.09188 0.00261,0.13445z" fill="#c0d8d8"/><path d="M260.03644,203.46331c-0.15973,-0.0924 -0.25852,-0.19671 -0.32204,-0.3192c-0.03172,-0.06124 -0.07148,-0.13782 -0.05997,-0.20191c0.05571,-0.28084 0.05049,-0.54973 0.04529,-0.81862c0.12359,-0.06357 0.13766,0.00673 0.16152,0.05269c0.07938,0.15314 0.16672,0.32158 0.28141,0.45654c0.1385,0.18089 0.15699,0.34597 0.03602,0.54404c-0.06445,0.09137 -0.09361,0.16456 -0.14218,0.28651z" fill="#c1d9d9"/><path d="M264.89364,201.87546c-0.0186,0.22293 -0.09638,0.41815 -0.15821,0.64394c-0.24181,0.00807 -0.38207,-0.13313 -0.55948,-0.21643c0.02038,-0.26266 0.14312,-0.50041 0.23237,-0.75972c0.20296,0.08955 0.33533,0.21543 0.48535,0.3322z" fill="#c3dbdc"/><path d="M261.68017,196.41009c-0.21709,-0.15987 -0.40855,-0.31355 -0.61767,-0.45809c-0.00086,-0.17417 0.0063,-0.33299 0.11753,-0.50666c0.22242,0.04076 0.39004,0.14845 0.57539,0.24704c0.03255,0.23543 0.01399,0.45833 -0.07524,0.71764z" fill="#c3dadb"/><path d="M263.68756,203.38842c0.10511,-0.22868 0.20049,-0.43293 0.29586,-0.63719c0.23211,0.01633 0.39978,0.12404 0.56741,0.23173c-0.05213,0.20141 -0.13777,0.38128 -0.26672,0.56396c-0.06883,-0.00338 -0.16329,-0.01299 -0.21445,-0.02541c-0.13589,-0.04646 -0.22856,-0.09575 -0.38212,-0.13313z" fill="#c4dbdc"/><path d="M258.80645,202.42805c0.15083,0.29097 0.26991,0.52069 0.39696,0.76563c-0.0327,0.15262 -0.09896,0.28371 -0.23403,0.41138c-0.14559,-0.02208 -0.16588,-0.14741 -0.2488,-0.22114c-0.08292,-0.0737 -0.14822,-0.15651 -0.18795,-0.23306c0.09715,-0.24403 0.17489,-0.43921 0.27383,-0.72288z" fill="#c2d9da"/><path d="M258.70865,196.32921c0.00712,-0.15884 0.04772,-0.29615 0.12192,-0.41191c0.1333,-0.08798 0.25158,-0.03242 0.36363,-0.03194c0.11206,0.00048 0.22593,-0.03869 0.33445,0.04125c0.04408,0.1713 -0.00807,0.37271 -0.04429,0.60478c-0.12799,-0.03112 -0.25597,-0.06227 -0.37597,-0.07811c-0.13586,-0.04647 -0.27181,-0.09288 -0.39979,-0.12404z" fill="#c5ddde"/><path d="M265.90671,202.36283c-0.00889,0.19858 -0.12632,0.3172 -0.1846,0.46358c-0.23388,0.02335 -0.42893,-0.05086 -0.64956,-0.13128c0.06005,-0.1861 0.12017,-0.37222 0.1626,-0.54926c0.2674,-0.00181 0.45099,0.13651 0.67157,0.21694z" fill="#c3dbdc"/><path d="M258.24187,198.66445c-0.09447,-0.00958 -0.14561,-0.02202 -0.1968,-0.03446c-0.1103,-0.04022 -0.22857,-0.09576 -0.36445,-0.14222c0.01248,-0.27798 -0.02808,-0.52871 0.0788,-0.7971c0.13949,-0.033 0.23213,0.01632 0.35831,0.08718c0.04845,0.26602 0.0951,0.57178 0.12418,0.88661z" fill="#c7dfe0"/><path d="M262.35144,203.18371c-0.11304,0.21334 -0.13959,0.42097 -0.2941,0.59748c-0.20653,-0.01014 -0.31149,-0.16944 -0.48269,-0.19775c0.05572,-0.28085 0.16871,-0.49419 0.2659,-0.73818c0.24802,0.04697 0.3353,0.21539 0.51093,0.3384z" fill="#c7dee0"/><path d="M263.70094,205.78686c-0.09002,0.08513 -0.23744,0.10277 -0.32132,0.24296c0.1385,0.18089 0.30257,0.36802 0.38813,0.57616c-0.07857,0.02104 -0.17478,0.05114 -0.26124,0.05689c-0.12974,0.00857 -0.24003,-0.03166 -0.29564,-0.13886c-0.11291,-0.17464 -0.21789,-0.334 -0.3308,-0.50871c0.22951,-0.11812 0.34339,-0.15731 0.8209,-0.22844z" fill="#61acb1"/><path d="M264.2085,194.64341c-0.04422,0.21675 -0.08663,0.39369 -0.1485,0.61955c-0.20913,-0.14454 -0.41029,-0.27378 -0.60178,-0.42743c0.02473,-0.16792 0.05749,-0.32055 0.13342,-0.47602c0.24799,0.04697 0.41563,0.15466 0.61683,0.2839z" fill="#c2dada"/><path d="M260.29933,203.75478c0.04422,-0.21675 0.13781,-0.38129 0.23324,-0.58557c0.18178,0.17802 0.34765,0.32545 0.51353,0.47289c0.00086,0.17417 -0.09894,0.2837 -0.2005,0.43293c-0.21445,-0.02542 -0.35477,-0.16662 -0.54621,-0.32024z" fill="#c1d9d9"/><path d="M261.88708,195.2561c-0.23828,-0.07138 -0.40769,-0.13936 -0.59479,-0.19828c-0.02642,-0.1804 0.05926,-0.36026 0.14494,-0.54014c0.19857,-0.00518 0.38743,0.014 0.57276,0.11262c0.0423,0.21101 -0.09459,0.37846 -0.12287,0.6258z" fill="#c6dedf"/><path d="M267.10992,201.49146c-0.05213,0.2014 -0.12989,0.3966 -0.18994,0.58271c-0.16681,0.06646 -0.30449,0.05972 -0.46603,0.00703c-0.03255,-0.23543 0.10611,-0.44252 0.14234,-0.67459c0.19065,-0.02053 0.33445,0.04125 0.51362,0.08483z" fill="#c0d7d7"/><path d="M257.28696,198.80664c0.01671,0.20476 0.09429,0.39763 0.01484,0.63253c-0.16153,-0.05269 -0.31508,-0.09009 -0.46861,-0.12743c-0.09523,-0.18375 -0.08635,-0.3823 -0.00862,-0.57747c0.16504,-0.02672 0.29299,0.0044 0.46243,0.07235z" fill="#c3dadb"/><path d="M262.72765,204.9881c-0.07063,0.03633 -0.13331,0.08801 -0.20393,0.12438c-0.00889,0.19859 0.14901,0.33065 0.21871,0.50817c-0.11564,0.07891 -0.2339,0.02336 -0.36539,0.07164c-0.17381,-0.16273 -0.21613,-0.37373 -0.44291,-0.50919c0.16861,-0.10614 0.29831,-0.11474 0.44577,-0.13241c0.10415,-0.01483 0.21188,-0.10901 0.34774,-0.06255z" fill="url(#color-16)"/><path d="M268.86119,198.39822c0.01671,0.20476 0.09431,0.39766 0.02452,0.60813c-0.13949,0.033 -0.24187,0.00805 -0.3954,-0.02928c-0.05202,-0.18662 -0.06872,-0.39141 -0.03426,-0.58373c0.13948,-0.03298 0.23391,-0.02337 0.4051,0.00492z" fill="#bdd3d4"/><path d="M264.71486,203.55805c0.07597,-0.1555 0.13427,-0.30186 0.19254,-0.44823c0.19858,-0.00519 0.3601,0.04748 0.52951,0.11545c0.01053,0.14975 -0.09716,0.24403 -0.22074,0.3076c-0.15888,0.0818 -0.31773,0.16355 -0.50131,0.0252z" fill="#bdd4d5"/><path d="M265.94622,194.93243c0.00697,0.22917 0.00603,0.44306 0.01302,0.67221c-0.34325,-0.23068 -0.58232,-0.47624 -0.36419,-0.91826c0.14559,0.02208 0.22677,0.13548 0.35116,0.24602z" fill="#bbd2d3"/><path d="M262.89041,204.05083c-0.17298,0.01141 -0.29125,-0.04412 -0.40949,-0.09969c-0.05556,-0.10718 0.01685,-0.18326 0.05573,-0.28084c0.02915,-0.07319 0.05035,-0.16167 0.14836,-0.23151c0.17298,-0.01141 0.25237,0.14167 0.43329,0.14556c-0.03446,0.19235 -0.11834,0.33248 -0.2278,0.46642z" fill="#c3dadb"/><path d="M262.47553,198.6777c-0.10755,-0.29382 -0.21515,-0.58759 -0.25209,-0.91775c0.11384,-0.03917 0.17125,0.02827 0.21088,0.10485c0.12084,0.18999 0.22404,0.389 0.3193,0.57278c0.07144,0.1378 -0.01861,0.22298 -0.27809,0.2401z" fill="#b1c6c7"/><path d="M268.13209,201.00423c-0.02823,-0.14064 0.0539,-0.24114 0.08483,-0.35402c0.04422,-0.21675 0.19516,-0.31381 0.44674,-0.34627c0.0052,0.2689 -0.13523,0.51575 -0.24824,0.72908c-0.13152,0.0483 -0.20039,0.04492 -0.28332,-0.02878z" fill="#bbd2d3"/><path d="M264.76185,197.30713c-0.22145,-0.25461 -0.23281,-0.57851 -0.26978,-0.90867c0.21709,0.15987 0.33612,0.38958 0.46492,0.59486c0.0891,0.12873 0.05205,0.18664 -0.19515,0.3138z" fill="#bad1d2"/><path d="M268.19423,197.50001c0.18708,0.05893 0.3583,0.08722 0.54536,0.1461c0.02203,0.08566 0.02464,0.2201 0.0449,0.34546c-0.35748,0.08697 -0.36541,0.07165 -0.45099,-0.13651c-0.05554,-0.1072 -0.09346,-0.22349 -0.13932,-0.35506z" fill="#b5cbcc"/><path d="M260.48148,194.4858c0.20036,-0.04491 0.346,-0.02288 0.49159,-0.00082c0.01849,0.16509 -0.09102,0.299 -0.16696,0.45448c-0.16327,-0.01294 -0.30885,-0.03504 -0.47213,-0.048c-0.05379,-0.1469 0.08919,-0.25929 0.14752,-0.40571z" fill="#c0d7d8"/><path d="M267.74432,199.26401c0.12179,-0.02386 0.23213,0.01631 0.35039,0.07184c0.05022,0.22633 0.01399,0.45837 -0.07349,0.67795c-0.11564,0.07891 -0.17476,0.05113 -0.24973,-0.00725c-0.01497,-0.24447 -0.02987,-0.48898 -0.02711,-0.74256z" fill="#bdd4d4"/><path d="M264.28542,194.27408c-0.17738,-0.08332 -0.34501,-0.19098 -0.52239,-0.27431c0.03094,-0.11291 0.10332,-0.18897 0.20923,-0.2435c0.12178,-0.02386 0.1968,0.03448 0.28944,0.08379c0.06707,0.04309 0.13412,0.08616 0.20119,0.12925c-0.00533,0.11915 -0.0442,0.21675 -0.17752,0.30474z" fill="#b6cccc"/><path d="M260.64872,195.7576c-0.18708,-0.05893 -0.34857,-0.11159 -0.55334,-0.16141c-0.02998,-0.10096 -0.02467,-0.22011 0.11043,-0.34783c0.16329,0.01292 0.33448,0.04125 0.52333,0.06043c-0.00712,0.15884 -0.0045,0.2933 -0.08047,0.44877z" fill="#c1d9d9"/><path d="M265.23757,194.38541c-0.00712,0.15884 -0.03009,0.28709 -0.114,0.42722c-0.18708,-0.05893 -0.30178,-0.1939 -0.41824,-0.28913c-0.02823,-0.14064 0.06185,-0.22579 0.1263,-0.31717c0.0609,-0.01193 0.09621,-0.03012 0.10416,-0.01483c0.10055,0.06463 0.20116,0.12924 0.30178,0.1939z" fill="#b7cdce"/><path d="M266.85611,195.22072c-0.22857,-0.09578 -0.30001,-0.23357 -0.40677,-0.35321c-0.13236,-0.12587 -0.05817,-0.24164 0.0257,-0.3818c0.18708,0.05893 0.29383,0.17856 0.42797,0.26474c0.04406,0.1713 -0.10866,0.3081 -0.04693,0.47031z" fill="#b6cccc"/><path d="M268.88546,199.39447c-0.02475,0.16793 -0.04774,0.29613 -0.06279,0.43968c-0.15097,0.09708 -0.25689,0.15158 -0.42015,0.13862c0.03448,-0.19234 0.05131,-0.37557 0.07606,-0.54349c0.13504,-0.12771 0.25331,-0.07214 0.36715,-0.11138c0.01587,0.03063 0.04942,0.05218 0.03972,0.07657z" fill="#c2dada"/><path d="M259.70632,195.23385c0.00257,0.13442 -0.02653,0.20764 -0.09892,0.28371c-0.09802,0.06983 -0.20035,0.0449 -0.31245,0.04441c-0.09445,-0.00958 -0.22595,0.0387 -0.29918,-0.05942c0.04066,-0.13729 0.10687,-0.26837 0.2499,-0.38078c0.17121,0.02827 0.30712,0.07473 0.46068,0.1121z" fill="#bbd2d3"/><path d="M261.16317,204.29954c0.08388,-0.14015 0.14041,-0.24685 0.21457,-0.36261c0.17917,0.04359 0.31326,0.12978 0.46508,0.20684c-0.02299,0.1282 -0.0795,0.23492 -0.20311,0.29846c-0.04326,0.00287 -0.08648,0.0057 -0.12005,-0.01582c-0.10235,-0.0249 -0.2127,-0.06516 -0.35654,-0.12691z" fill="#bbd2d3"/><path d="M268.66286,197.23943c-0.29919,-0.05942 -0.29921,-0.05941 -0.52237,-0.27431c0.02476,-0.16795 0.15808,-0.25592 0.29315,-0.3836c0.16412,0.18714 0.17903,0.43162 0.22925,0.65795z" fill="#adc2c3"/><path d="M263.3017,204.11076c0.02299,-0.1282 0.0972,-0.244 0.21282,-0.32287c0.17917,0.04359 0.33268,0.0809 0.49415,0.13363c-0.22074,0.30759 -0.23837,0.31669 -0.707,0.18929z" fill="#b5cbcc"/><path d="M263.21134,194.18669c-0.03268,0.15264 -0.06366,0.26553 -0.14755,0.4057c-0.18088,-0.00387 -0.30533,-0.11446 -0.47477,-0.18245c0.01151,-0.06412 0.03094,-0.11288 0.05034,-0.16169c0.01944,-0.04881 0.06444,-0.09137 0.10154,-0.14926c0.1827,-0.03583 0.31858,0.01062 0.4704,0.0877z" fill="#bbd1d2"/><path d="M259.73082,204.12495c-0.23211,-0.01634 -0.34503,-0.191 -0.49681,-0.26806c0.01506,-0.14352 0.1307,-0.22246 0.2049,-0.33824c0.21091,0.10481 0.32559,0.23981 0.35993,0.4355c0.0238,0.04595 -0.03092,0.11291 -0.068,0.17078z" fill="#b6cccd"/><path d="M257.35783,197.6063c-0.02038,0.26266 -0.06638,0.51911 -0.0947,0.76644c-0.13154,0.04828 -0.22593,0.0387 -0.35212,-0.03214c0.08919,-0.25929 0.17843,-0.51858 0.34443,-0.7592c0.05122,0.01246 0.07678,0.01869 0.10236,0.0249z" fill="#acc1c2"/><path d="M263.43799,197.21252c0.15616,0.17182 0.29467,0.35272 0.36253,0.56994c0.02202,0.08568 0.00083,0.17415 -0.08741,0.21957c-0.03528,0.01815 -0.12179,0.02387 -0.12975,0.00856c-0.13672,-0.22061 -0.13223,-0.51388 -0.14538,-0.79809z" fill="#a7bbbb"/><path d="M262.35088,193.95052c0.01232,0.11006 -0.05213,0.20141 -0.13424,0.30187c-0.17121,-0.02827 -0.34243,-0.05657 -0.51364,-0.08485c0.00712,-0.15884 0.10511,-0.22866 0.22867,-0.29226c0.12974,-0.00857 0.28329,0.02878 0.41921,0.07527z" fill="#b7cdcd"/><path d="M266.11219,202.97478c0.00889,-0.19859 0.09281,-0.33872 0.19433,-0.48798c0.16504,-0.02672 0.30274,-0.02001 0.44479,0.08148c-0.16423,0.20089 -0.38403,0.2946 -0.6391,0.4065z" fill="#b7cece"/><path d="M258.02774,203.25554c-0.21884,-0.12016 -0.25141,-0.35555 -0.41908,-0.46324c0.02299,-0.12819 0.10155,-0.14924 0.1607,-0.12148c0.15179,0.07706 0.29386,0.17856 0.3732,0.33169c0.00617,0.05503 0.01409,0.07035 -0.11481,0.25309z" fill="#b4cacb"/><path d="M258.11956,197.35012c-0.12972,0.00857 -0.20651,-0.01012 -0.28153,-0.06847c0.04422,-0.21675 0.08048,-0.44877 0.26413,-0.69848c0.15259,0.25122 0.07307,0.48612 0.0174,0.76697z" fill="#b2c8c9"/><path d="M262.19749,204.31042c0.16327,0.01294 0.28331,0.02879 0.36623,0.10251c0.0141,0.07034 -0.03092,0.11294 -0.07596,0.15551c-0.18008,0.17026 -0.32395,0.10849 -0.49158,0.00081c0.07236,-0.07606 0.13686,-0.16744 0.20131,-0.25879z" fill="#b5cbcb"/><path d="M265.86538,196.5453c-0.12085,-0.18997 -0.20818,-0.35839 -0.25046,-0.56939c0.08034,-0.06072 0.13945,-0.03297 0.16328,0.01296c0.07324,0.09814 0.16412,0.18716 0.23732,0.28524c0.0635,0.1225 0.00875,0.18944 -0.15015,0.27118z" fill="#91a3a3"/><path d="M258.99788,199.69145c0.21884,0.12016 0.30439,0.32831 0.39962,0.51208c0.01587,0.03063 -0.00356,0.07943 -0.03094,0.1129c-0.03529,0.01816 -0.10415,0.01483 -0.11211,-0.0005c-0.16412,-0.18714 -0.23198,-0.40436 -0.25663,-0.62445z" fill="#99abac"/><path d="M258.42043,200.64812c-0.09181,0.12486 -0.1801,0.17026 -0.25511,0.11186c-0.09088,-0.08903 -0.13493,-0.26032 -0.16752,-0.49572c0.20301,0.08952 0.29028,0.25795 0.42262,0.38383z" fill="#93a5a6"/><path d="M267.72936,201.90979c0.05394,-0.24113 0.08223,-0.48848 0.46353,-0.52952c-0.04604,0.25643 -0.27549,0.37454 -0.46353,0.52952z" fill="#9aadad"/><path d="M266.03738,199.25006c-0.11648,-0.09525 -0.24088,-0.20579 -0.34942,-0.28576c0.01329,-0.10382 0.0583,-0.14639 0.17219,-0.18558c0.15975,0.0924 0.16851,0.28187 0.25761,0.41059c-0.03529,0.01816 -0.05298,0.02724 -0.08036,0.06075z" fill="#c5dddd"/><path d="M261.27175,198.59884c0.26208,0.1173 0.36527,0.3164 0.39786,0.55178c0.00794,0.01531 -0.01943,0.04883 -0.05475,0.06699c-0.04504,0.04256 -0.10415,0.01483 -0.12002,-0.01582c-0.10501,-0.15933 -0.14727,-0.37039 -0.22311,-0.60293z" fill="#aec2c3"/><path d="M260.12618,204.15425c0.18708,0.05893 0.31942,0.18477 0.44384,0.29537c-0.01326,0.10382 -0.09186,0.12486 -0.15891,0.08179c-0.1262,-0.07087 -0.24443,-0.12641 -0.36088,-0.22166c-0.05122,-0.01246 -0.02204,-0.08563 0.07595,-0.15548z" fill="#9caeaf"/><path d="M261.24853,194.11046c-0.18273,0.03583 -0.32036,0.02909 -0.49159,0.0008c0.19775,-0.17936 0.41576,-0.23336 0.62761,-0.34236c0.00616,0.05504 0.02202,0.08568 0.0123,0.11004c-0.04681,0.08227 -0.10154,0.14923 -0.14832,0.23153z" fill="#a9bebf"/><path d="M261.36172,201.40404c0.10774,-0.09423 0.18623,-0.11524 0.28073,-0.10564c0.09701,0.14406 0.11549,0.30912 0.01834,0.55312c-0.13058,-0.1656 -0.202,-0.30341 -0.29907,-0.44744z" fill="#b9cfd0"/><path d="M266.70671,198.16848c0.01328,-0.10381 0.07599,-0.15546 0.13864,-0.20713c0.10416,-0.0148 0.14385,0.06173 0.2814,0.45654c-0.25948,0.01715 -0.29386,-0.17855 -0.42004,-0.24942z" fill="#869797"/><path d="M260.22834,199.17461c0.07405,0.27226 0.34408,0.40489 0.19218,0.71582c-0.18972,-0.19335 -0.26731,-0.38616 -0.19218,-0.71582z" fill="#93a4a5"/><path d="M266.3944,195.32251c0.11905,0.22968 0.19844,0.38283 0.27783,0.53595c0.01587,0.03063 -0.00355,0.07943 -0.05652,0.10665c-0.01767,0.0091 -0.06091,0.01194 -0.08652,0.00573c-0.13059,-0.16556 -0.21792,-0.33406 -0.13484,-0.64833z" fill="#94a5a6"/><path d="M267.43518,197.50268c0.0742,-0.11574 0.11917,-0.15833 0.23921,-0.14252c0.08115,0.1134 0.17027,0.24215 0.19668,0.42255c-0.23212,-0.01637 -0.31147,-0.16946 -0.43589,-0.27999z" fill="#abbfc0"/><path d="M266.1891,194.32246c-0.07238,0.07606 -0.09976,0.10954 -0.1351,0.12772c-0.30535,-0.11444 -0.30531,-0.11444 -0.36347,-0.35606c0.22417,0.00102 0.30356,0.15411 0.49855,0.22835z" fill="#acc0c1"/><path d="M267.57787,201.05661c0.04243,-0.17703 0.05925,-0.36026 0.11933,-0.54636c0.02915,-0.07319 0.09978,-0.10951 0.20034,-0.0449c-0.04422,0.21675 -0.09634,0.41813 -0.31968,0.59125z" fill="#9fb2b2"/><path d="M263.37296,193.85129c-0.12006,-0.01584 -0.1968,-0.03454 -0.2718,-0.0929c0.00354,-0.07944 0.04063,-0.13732 0.12097,-0.19805c0.11386,-0.03917 0.22416,0.00105 0.33446,0.04126c0.01232,0.11006 -0.08567,0.17987 -0.18364,0.24966z" fill="#aec2c3"/><path d="M263.9648,200.47183c-0.18088,-0.00386 -0.2365,-0.11109 -0.30972,-0.20918c-0.02379,-0.04595 0.01328,-0.10378 0.06625,-0.13106c0.03529,-0.01816 0.10417,-0.01482 0.12003,0.01581c0.10057,0.06461 0.11292,0.17469 0.12343,0.32443z" fill="#91a2a3"/><path d="M259.95277,194.54448c-0.05926,0.36027 -0.06892,0.38467 -0.4096,0.28841c0.12538,-0.10329 0.20924,-0.24348 0.4096,-0.28841z" fill="#869696"/><path d="M257.42384,201.14154c-0.2224,-0.04075 -0.21707,-0.15984 -0.25499,-0.27616c0.19857,-0.00517 0.19857,-0.00517 0.25499,0.27616z" fill="#555f5f"/><path d="M264.82731,199.50423c0.0397,0.07657 0.09525,0.18374 0.09786,0.31821c-0.23034,-0.05605 -0.26206,-0.1173 -0.24705,-0.26081c0.00179,-0.03971 0.05475,-0.06698 0.14917,-0.05736z" fill="#93a5a6"/><path d="M267.19939,195.06346c0.27181,0.0929 0.27005,0.1326 0.01135,0.3239c-0.09089,-0.08904 -0.05998,-0.2019 -0.01135,-0.3239z" fill="#8b9b9c"/><path d="M256.77528,200.79641c0.13234,0.12588 0.17817,0.25743 0.22403,0.38907c-0.08209,0.10045 -0.15097,0.09707 -0.18271,0.0358c-0.06352,-0.1225 -0.10936,-0.25409 -0.04135,-0.42484z" fill="#9aacad"/><path d="M265.11693,193.80733c0.14559,0.02208 0.27537,0.0135 0.32123,0.14507c0.00793,0.01534 -0.00176,0.03972 -0.01942,0.04881c-0.17479,0.05113 -0.25774,-0.02258 -0.30178,-0.19388z" fill="#5f6a6b"/><path d="M262.71841,200.95809c-0.08472,-0.034 -0.1165,-0.09526 -0.13057,-0.16561c0.00179,-0.03971 0.02122,-0.0885 0.06446,-0.09135c0.04326,-0.00287 0.09446,0.00958 0.1103,0.04024c0.03172,0.06124 0.04584,0.13159 -0.04421,0.21673z" fill="#636e6f"/><path d="M262.45171,193.62709c0.09979,-0.10952 0.19597,-0.13966 0.33009,-0.05351c-0.10949,0.13392 -0.20391,0.12436 -0.33009,0.05351z" fill="#4a5354"/></g><g data-paper-data="{&quot;index&quot;:null}" fill="#000000" stroke="#000000" stroke-width="1.2"><path d="M262.88852,222.19638c-1.27016,-1.37946 -0.9894,-4.67789 -1.7504,-6.81017c-0.8193,-2.2957 -2.56576,-3.2954 -2.14497,-4.87676c0.29394,-1.10455 1.80684,-1.8209 2.63932,-2.09671c2.02429,-0.67073 4.79344,1.94649 6.18504,5.84571c1.3916,3.89922 0.87872,7.6039 -1.14556,8.27461c-0.9173,0.30394 -2.73088,0.80642 -3.78342,-0.33666z"/><path d="M267.03491,222.79318c-1.75186,-1.93886 -2.72291,-7.76745 -2.72291,-7.76745c0,0 -2.36783,-3.1292 -2.39501,-3.21015c-1.73301,-5.15756 1.75225,-6.37579 5.73828,-7.6965c1.89708,-0.62858 5.06822,-0.88355 6.67776,0.37753c1.82542,1.43021 2.15583,4.165 3.17753,7.02782c1.9226,5.38708 1.15569,10.76156 -2.8929,12.10302c-1.78218,0.59049 -5.24295,1.75528 -7.58276,-0.83429z"/></g></g><g data-paper-data="{&quot;index&quot;:null}" fill-rule="nonzero" stroke="none" stroke-width="1" stroke-linecap="butt" stroke-linejoin="miter"><path d="M376.29151,235.92831c2.6,0 7.8,1.3 7.8,1.3c-3.1,0 -14.8,1.3 -14.8,1.3c6,-1.1 15.8,1 15.8,1c-2,2 -11.1,4.1 -11.1,4.1c4.4,0 11.7,-1.8 11.7,-1.8c-3.1,3.9 -10.6,6.2 -10.6,6.2c4.1,0 8,-1.6 8,-1.6c-7.2,6.7 -27.2,9.6 -27.2,9.6c14.8,0.2 25.4,-4.7 25.4,-4.7c-8.5,6.8 -30.3,7.8 -30.3,7.8c6,1.5 13.5,0.5 13.5,0.5c-35,8.6 -54.2,-6.7 -54.2,-6.7c-17.9,8.1 -26.7,-5.2 -26.2,-11.9c0,0 3.1,-13.3 19.2,-15.6c0,0 -8,2.3 -9.8,5.7c0,0 9.3,-7.3 18.9,0.5c0,0 6.9,-9.2 41.4,-11.8c0,0 -10.8,2 -19.3,5.3c0,0 23.6,-8 43.8,0.8c0,0 -15,-3.1 -20.7,-1c0,0 16.3,-1 25.1,7.3c0,0 -9.9,-1.3 -15.6,-0.3c0,0 13,1.5 15.3,2.3z" fill="#f2c063"/><path d="M310.39151,252.92831c0,0 -0.4,0.2 -1.1,0.6c-0.7,0.4 -1.7,0.8 -3,1.3c-0.6,0.2 -1.4,0.4 -2.1,0.6c-0.8,0.2 -1.6,0.3 -2.4,0.4c-0.9,0.1 -1.7,0.1 -2.6,0.1c-0.9,0 -1.8,-0.1 -2.7,-0.3l-1.3,-0.4c-0.4,-0.2 -0.8,-0.3 -1.3,-0.5c-0.4,-0.2 -0.8,-0.4 -1.2,-0.6c-0.4,-0.2 -0.8,-0.4 -1.1,-0.6c-0.7,-0.5 -1.4,-1 -2,-1.5c-0.6,-0.5 -1.1,-1.1 -1.6,-1.6c-0.5,-0.5 -0.8,-1 -1.1,-1.5c-0.3,-0.5 -0.5,-0.9 -0.7,-1.2c-0.4,-0.7 -0.5,-1.1 -0.5,-1.1c0,0 0.2,0.4 0.6,1.1c0.4,0.7 1.1,1.6 2,2.5c0.5,0.5 1,1 1.6,1.5c0.6,0.5 1.3,0.9 2,1.4c0.4,0.2 0.7,0.4 1.1,0.6c0.4,0.2 0.8,0.3 1.2,0.5c0.4,0.1 0.8,0.3 1.3,0.4l1.3,0.3c0.9,0.2 1.7,0.3 2.6,0.3c0.9,0 1.7,0 2.6,0c1.7,-0.1 3.2,-0.4 4.5,-0.8c2.2,-0.7 3.9,-1.5 3.9,-1.5z" fill="#d18b44"/><path d="M293.49151,231.12831c0,0 0.2,-0.2 0.7,-0.6c0.5,-0.3 1.1,-0.8 2,-1.2c0.4,-0.2 0.9,-0.4 1.4,-0.6c0.5,-0.2 1.1,-0.4 1.7,-0.5c0.6,-0.1 1.2,-0.2 1.8,-0.3c0.6,-0.1 1.3,-0.1 1.9,-0.1c0.6,0 1.3,0.1 1.9,0.2c0.6,0.1 1.2,0.3 1.8,0.4c0.6,0.2 1.1,0.4 1.6,0.6c0.5,0.2 1,0.5 1.4,0.7c0.4,0.2 0.8,0.4 1.1,0.7c0.3,0.2 0.6,0.4 0.8,0.6c0.4,0.3 0.7,0.5 0.7,0.5c0,0 -0.3,-0.1 -0.8,-0.4c-0.2,-0.1 -0.5,-0.3 -0.9,-0.5c-0.3,-0.2 -0.7,-0.4 -1.2,-0.6c-0.4,-0.2 -0.9,-0.4 -1.4,-0.6c-0.5,-0.2 -1,-0.3 -1.6,-0.5c-0.6,-0.1 -1.2,-0.3 -1.8,-0.4c-0.6,0 -1.2,-0.2 -1.8,-0.2c-0.6,0 -1.2,-0.1 -1.8,0c-0.6,0 -1.2,0.1 -1.8,0.2c-0.6,0.1 -1.1,0.3 -1.6,0.4c-0.5,0.2 -1,0.3 -1.4,0.5c-0.9,0.3 -1.6,0.7 -2.1,1c-0.3,0.5 -0.6,0.7 -0.6,0.7z" fill="#d18b44"/><path d="M303.39151,225.42831c0,0 -1.5,0.1 -3.5,0.8c-0.5,0.1 -1.1,0.4 -1.7,0.6c-0.6,0.2 -1.2,0.5 -1.8,0.8c-0.6,0.3 -1.2,0.6 -1.8,1c-0.6,0.3 -1.2,0.8 -1.8,1.2c-0.6,0.4 -1.1,0.9 -1.7,1.3c-0.5,0.5 -1,1 -1.5,1.4c-0.5,0.5 -0.9,1 -1.3,1.4c-0.4,0.4 -0.7,1 -1.1,1.4c-0.3,0.4 -0.6,0.8 -0.9,1.2c-0.2,0.4 -0.4,0.7 -0.6,1c-0.3,0.5 -0.5,0.8 -0.5,0.8c0,0 0.2,-0.3 0.4,-0.9c0.1,-0.3 0.3,-0.6 0.5,-1c0.2,-0.4 0.5,-0.8 0.8,-1.3c0.3,-0.5 0.6,-1 1,-1.5c0.4,-0.5 0.8,-1 1.3,-1.5c0.5,-0.5 1,-1 1.5,-1.5c0.6,-0.5 1.1,-1 1.7,-1.4c0.6,-0.4 1.2,-0.8 1.9,-1.2c0.6,-0.4 1.3,-0.7 1.9,-1c0.6,-0.3 1.3,-0.5 1.9,-0.7c0.6,-0.2 1.2,-0.4 1.7,-0.5c1.1,-0.3 2,-0.4 2.6,-0.4c0.6,0 1,0 1,0z" fill="#d18b44"/><path d="M314.59151,229.92831c0,0 0.2,-0.1 0.4,-0.3c0.2,-0.2 0.6,-0.5 1,-0.8c0.5,-0.3 1,-0.7 1.7,-1.1c0.7,-0.4 1.5,-0.8 2.3,-1.2c0.9,-0.4 1.8,-0.8 2.9,-1.2c1,-0.4 2.1,-0.7 3.3,-1.1c1.2,-0.3 2.4,-0.7 3.6,-1c1.2,-0.3 2.5,-0.6 3.7,-0.9c1.3,-0.2 2.5,-0.5 3.8,-0.7c1.2,-0.2 2.5,-0.4 3.7,-0.6c2.4,-0.4 4.6,-0.5 6.5,-0.8c1.9,-0.2 3.5,-0.3 4.6,-0.4c1.1,-0.1 1.8,-0.1 1.8,-0.1c0,0 -2.5,0.4 -6.4,0.8c-1.9,0.3 -4.1,0.6 -6.5,1c-1.2,0.2 -2.4,0.4 -3.6,0.6c-1.2,0.2 -2.5,0.5 -3.7,0.7c-1.2,0.3 -2.5,0.5 -3.7,0.8c-1.2,0.3 -2.4,0.6 -3.6,0.9c-1.1,0.4 -2.3,0.6 -3.3,1c-1,0.3 -2,0.7 -2.9,1.1c-0.9,0.4 -1.7,0.7 -2.4,1.1c-0.7,0.3 -1.3,0.7 -1.7,1c-0.5,0.3 -0.8,0.6 -1.1,0.8c-0.3,0.3 -0.4,0.4 -0.4,0.4z" fill="#d18b44"/><path d="M287.99151,239.02831c0,0 0.1,-0.2 0.3,-0.6c0.2,-0.4 0.5,-0.9 1,-1.5c0.2,-0.3 0.5,-0.6 0.8,-0.9c0.3,-0.3 0.6,-0.6 1,-0.9c0.4,-0.3 0.8,-0.5 1.2,-0.8c0.4,-0.2 0.9,-0.5 1.3,-0.7c0.5,-0.2 0.9,-0.4 1.4,-0.5c0.5,-0.1 0.9,-0.3 1.4,-0.3c0.5,-0.1 0.9,-0.1 1.3,-0.2c0.4,0 0.8,0 1.2,-0.1c0.7,-0.1 1.4,0.1 1.8,0.1c0.4,0 0.7,0.1 0.7,0.1c0,0 -0.2,0 -0.7,0.1c-0.4,0 -1,0.1 -1.8,0.2c-0.4,0 -0.7,0.1 -1.2,0.2c-0.4,0.1 -0.8,0.2 -1.3,0.3c-0.4,0.1 -0.9,0.2 -1.3,0.4c-0.5,0.1 -0.9,0.3 -1.3,0.5c-0.4,0.2 -0.9,0.4 -1.3,0.6c-0.4,0.2 -0.8,0.5 -1.2,0.7c-0.4,0.3 -0.7,0.5 -1,0.8c-0.3,0.3 -0.6,0.5 -0.9,0.8c-0.5,0.5 -0.9,1 -1.1,1.3c-0.1,0.2 -0.3,0.4 -0.3,0.4z" fill="#d18b44"/><path d="M296.89151,235.82831c0,0 0.3,-0.2 0.8,-0.4c0.5,-0.2 1.3,-0.5 2.2,-0.8c0.5,-0.1 1,-0.2 1.5,-0.3c0.5,-0.1 1.1,-0.2 1.7,-0.2c0.6,0 1.2,-0.1 1.9,0c0.6,0 1.3,0 1.9,0.1c0.3,0.1 0.6,0.1 1,0.2c0.3,0.1 0.6,0.2 0.9,0.2c0.6,0.1 1.2,0.4 1.8,0.6c0.6,0.2 1.1,0.5 1.6,0.8c0.5,0.2 0.9,0.5 1.3,0.8c0.4,0.3 0.8,0.5 1.1,0.8c0.3,0.3 0.5,0.5 0.7,0.7c0.4,0.4 0.6,0.6 0.6,0.6c0,0 -0.3,-0.2 -0.7,-0.5c-0.2,-0.2 -0.5,-0.4 -0.8,-0.6c-0.3,-0.2 -0.7,-0.4 -1.1,-0.7c-0.4,-0.3 -0.8,-0.5 -1.3,-0.7c-0.5,-0.2 -1,-0.5 -1.6,-0.7c-0.6,-0.2 -1.1,-0.4 -1.7,-0.5c-0.3,-0.1 -0.6,-0.1 -0.9,-0.2l-0.9,-0.1c-0.6,-0.1 -1.2,-0.1 -1.9,-0.2c-0.6,0 -1.2,0 -1.8,0c-0.6,0.1 -1.2,0.1 -1.7,0.1c-0.5,0.1 -1,0.1 -1.5,0.2c-0.9,0.2 -1.7,0.4 -2.2,0.5c-0.6,0.2 -0.9,0.3 -0.9,0.3z" fill="#d18b44"/><path d="M312.89151,248.42831c0,0 -0.1,0.2 -0.4,0.5c-0.3,0.3 -0.7,0.8 -1.2,1.2c-0.3,0.2 -0.6,0.4 -1,0.6c-0.3,0.2 -0.7,0.4 -1.1,0.6c-0.4,0.2 -0.8,0.4 -1.3,0.5c-0.4,0.1 -0.9,0.3 -1.4,0.4c-0.5,0.1 -0.9,0.2 -1.4,0.2c-0.5,0.1 -0.9,0.1 -1.4,0.1c-0.4,0 -0.9,0 -1.3,0c-0.4,0 -0.8,0 -1.1,-0.1c-0.7,0 -1.3,-0.2 -1.7,-0.2c-0.4,-0.1 -0.6,-0.1 -0.6,-0.1c0,0 0.2,0 0.6,0c0.4,0 1,0 1.7,0c0.3,0 0.7,0 1.1,0c0.4,0 0.8,-0.1 1.2,-0.1c0.4,0 0.9,-0.1 1.3,-0.2c0.5,-0.1 0.9,-0.1 1.3,-0.2c0.5,-0.1 0.9,-0.2 1.3,-0.3c0.4,-0.1 0.8,-0.3 1.3,-0.4c0.4,-0.2 0.8,-0.3 1.1,-0.5c0.4,-0.2 0.7,-0.3 1,-0.5c1.4,-0.7 2,-1.5 2,-1.5z" fill="#d18b44"/><path d="M288.59151,243.42831c0,0 0.2,0.1 0.6,0.4c0.4,0.2 1,0.5 1.7,0.8c0.7,0.3 1.5,0.6 2.5,0.9c0.9,0.3 1.9,0.5 2.9,0.7c0.5,0.1 1,0.2 1.5,0.2c0.5,0 1,0.1 1.5,0.1c0.5,0 0.9,0 1.4,0c0.4,0 0.9,0 1.2,0c0.8,0 1.4,-0.1 1.9,-0.1c0.5,0 0.7,0 0.7,0c0,0 -0.3,0.1 -0.7,0.2c-0.4,0.1 -1.1,0.3 -1.9,0.4c-0.8,0.1 -1.7,0.2 -2.7,0.2c-0.5,0 -1,0 -1.5,-0.1c-0.5,0 -1,-0.1 -1.6,-0.2c-1,-0.2 -2.1,-0.4 -3,-0.8c-0.5,-0.1 -0.9,-0.3 -1.3,-0.5c-0.4,-0.2 -0.8,-0.4 -1.1,-0.6c-0.7,-0.4 -1.2,-0.8 -1.6,-1.1c-0.3,-0.3 -0.5,-0.5 -0.5,-0.5z" fill="#d18b44"/><path d="M296.49151,243.22831c0,0 1.2,0.1 3.1,0.1c0.9,0 2,0.1 3.1,0.1c1.1,0.1 2.4,0.1 3.6,0.1c1.2,0 2.4,0.1 3.6,0c1.1,0 2.2,-0.1 3.1,-0.2c0.5,-0.1 0.9,-0.1 1.2,-0.2c0.4,-0.1 0.7,-0.1 0.9,-0.2c0.5,-0.1 0.8,-0.2 0.8,-0.2c0,0 -0.3,0.1 -0.8,0.3c-0.2,0.1 -0.6,0.2 -0.9,0.3c-0.4,0.1 -0.8,0.2 -1.2,0.3c-0.9,0.2 -2,0.3 -3.1,0.4c-1.2,0.1 -2.4,0.1 -3.6,0.1c-1.2,0 -2.5,-0.1 -3.6,-0.2c-1.1,-0.1 -2.2,-0.2 -3.1,-0.3c-1.8,-0.1 -3.1,-0.4 -3.1,-0.4z" fill="#d18b44"/><path d="M314.59151,247.42831c0,0 1.6,0.5 3.9,1c1.2,0.3 2.6,0.6 4.1,0.9c1.5,0.3 3.1,0.6 4.7,0.8c0.8,0.1 1.6,0.2 2.4,0.3c0.8,0.1 1.6,0.1 2.3,0.2c0.8,0.1 1.5,0.1 2.2,0.1c0.7,0.1 1.4,0.1 2,0.1c1.2,0 2.2,0 3,0c0.7,0 1.1,0 1.1,0c0,0 -0.4,0 -1.1,0.1c-0.7,0.1 -1.7,0.2 -3,0.2c-0.6,0 -1.3,0 -2,0c-0.7,0 -1.5,0 -2.2,-0.1c-0.8,-0.1 -1.6,-0.1 -2.4,-0.2c-0.8,-0.1 -1.6,-0.1 -2.4,-0.3c-1.6,-0.2 -3.2,-0.5 -4.7,-0.8c-1.5,-0.3 -2.9,-0.7 -4.1,-1.1c-2.3,-0.6 -3.8,-1.2 -3.8,-1.2z" fill="#d18b44"/><path d="M312.19151,254.22831c0,0 0.7,0.5 2,1.1c0.7,0.3 1.5,0.8 2.4,1.2c0.9,0.4 2,0.9 3.2,1.3c1.2,0.5 2.5,0.9 3.9,1.3c1.4,0.4 2.8,0.8 4.4,1.2c0.8,0.2 1.5,0.4 2.3,0.5c0.8,0.1 1.6,0.3 2.4,0.4l1.2,0.2l1.2,0.1c0.8,0.1 1.7,0.2 2.5,0.3c1.7,0.2 3.4,0.2 5,0.3c1.7,0 3.3,0 4.9,-0.1c1.6,-0.1 3.1,-0.2 4.5,-0.4c0.7,0 1.4,-0.1 2.1,-0.2c0.7,-0.1 1.3,-0.2 1.9,-0.3c1.2,-0.2 2.4,-0.3 3.4,-0.6c1,-0.2 1.9,-0.4 2.6,-0.6c1.4,-0.3 2.3,-0.5 2.3,-0.5c0,0 -0.8,0.2 -2.2,0.6c-0.7,0.2 -1.6,0.4 -2.6,0.7c-1,0.3 -2.1,0.5 -3.4,0.7c-0.6,0.1 -1.3,0.2 -2,0.3c-0.7,0.1 -1.4,0.2 -2.1,0.3c-1.4,0.1 -3,0.3 -4.6,0.4c-1.6,0 -3.2,0.1 -4.9,0.1c-1.7,-0.1 -3.4,-0.1 -5.1,-0.3c-0.8,-0.1 -1.7,-0.2 -2.5,-0.3l-1.3,-0.1l-1.2,-0.2c-0.8,-0.1 -1.6,-0.3 -2.4,-0.4c-0.8,-0.2 -1.6,-0.4 -2.4,-0.6c-1.6,-0.3 -3,-0.8 -4.4,-1.3c-1.4,-0.5 -2.7,-0.9 -3.8,-1.4c-0.6,-0.3 -1.1,-0.5 -1.7,-0.7c-0.5,-0.3 -1,-0.5 -1.5,-0.7c-0.9,-0.4 -1.7,-0.9 -2.4,-1.3c-1,-0.5 -1.7,-1 -1.7,-1z" fill="#d18b44"/><path d="M381.39151,251.32831c0,0 -0.6,0.5 -1.7,1.2c-0.6,0.3 -1.3,0.8 -2.1,1.2c-0.8,0.5 -1.8,0.9 -2.8,1.4c-1.1,0.4 -2.2,0.9 -3.5,1.3c-1.2,0.4 -2.6,0.8 -4,1.1c-1.4,0.3 -2.9,0.6 -4.4,0.8c-1.5,0.2 -3,0.4 -4.6,0.5c-0.8,0 -1.5,0.1 -2.3,0.1l-1.1,0.1h-1.1c-1.5,0 -3,0 -4.4,-0.1c-1.4,-0.1 -2.8,-0.2 -4.1,-0.4c-1.3,-0.2 -2.5,-0.4 -3.7,-0.6c-0.6,-0.1 -1.1,-0.2 -1.6,-0.3c-0.5,-0.1 -1,-0.2 -1.5,-0.3c-0.9,-0.2 -1.7,-0.4 -2.4,-0.5c-1.3,-0.3 -2,-0.5 -2,-0.5c0,0 0.8,0.1 2.1,0.4c0.7,0.1 1.5,0.3 2.4,0.4c0.5,0.1 0.9,0.2 1.5,0.2c0.5,0.1 1.1,0.1 1.6,0.2c1.1,0.1 2.4,0.3 3.7,0.5c1.3,0.1 2.7,0.2 4.1,0.3c1.4,0.1 2.9,0 4.4,0.1h1.1l1.1,-0.1c0.8,0 1.5,-0.1 2.3,-0.1c1.5,-0.1 3,-0.3 4.5,-0.4c1.5,-0.3 2.9,-0.5 4.3,-0.8c1.4,-0.3 2.7,-0.6 4,-1c1.3,-0.3 2.4,-0.8 3.5,-1.2c1,-0.4 2,-0.8 2.9,-1.2c0.8,-0.4 1.6,-0.8 2.1,-1.1c1,-0.7 1.7,-1.2 1.7,-1.2z" fill="#d18b44"/><path d="M383.19151,246.42831c0,0 -1.3,0.5 -3.3,1.1c-1,0.3 -2.2,0.6 -3.4,0.9c-1.3,0.3 -2.6,0.6 -4,0.9c-1.4,0.3 -2.7,0.5 -4,0.7c-1.3,0.2 -2.5,0.3 -3.6,0.4c-0.5,0.1 -1,0 -1.4,0.1c-0.4,0 -0.8,0 -1.1,0c-0.6,0 -1,-0.1 -1,-0.1c0,0 0.3,0 1,-0.1c0.3,0 0.7,0 1.1,-0.1c0.4,-0.1 0.9,-0.1 1.4,-0.2c0.5,-0.1 1.1,-0.1 1.7,-0.2c0.6,-0.1 1.2,-0.2 1.8,-0.3c1.3,-0.2 2.6,-0.5 4,-0.8c1.4,-0.3 2.7,-0.6 4,-0.8c1.3,-0.3 2.5,-0.5 3.5,-0.8c1.9,-0.4 3.3,-0.7 3.3,-0.7z" fill="#d18b44"/><path d="M385.79151,241.72831c0,0 -2.1,0.5 -5.2,1.1c-1.6,0.3 -3.4,0.6 -5.3,0.9c-2,0.3 -4.1,0.6 -6.2,0.9c-2.1,0.2 -4.2,0.5 -6.2,0.6c-2,0.2 -3.8,0.2 -5.4,0.3c-0.8,0 -1.5,0 -2.2,0c-0.6,0 -1.2,0 -1.7,-0.1c-0.9,-0.1 -1.5,-0.1 -1.5,-0.1c0,0 0.5,0 1.5,0c0.5,0 1,0 1.7,-0.1c0.6,0 1.4,-0.1 2.2,-0.1c1.6,-0.1 3.4,-0.3 5.4,-0.5c2,-0.2 4.1,-0.4 6.2,-0.7c2.1,-0.2 4.2,-0.5 6.2,-0.8c2,-0.3 3.8,-0.5 5.4,-0.7c3,-0.4 5.1,-0.7 5.1,-0.7z" fill="#d18b44"/><path d="M385.29151,239.42831c0,0 -3.3,-0.5 -8.2,-0.9c-2.5,-0.2 -5.4,-0.4 -8.5,-0.5c-1.6,0 -3.2,-0.1 -4.8,-0.1c-1.6,0 -3.3,0 -4.9,0c-1.7,0 -3.3,0.1 -4.9,0.1c-1.6,0 -3.2,0.2 -4.8,0.3c-1.6,0.1 -3,0.2 -4.5,0.3c-0.7,0.1 -1.4,0.1 -2.1,0.2c-0.7,0.1 -1.3,0.2 -1.9,0.2c-1.2,0.1 -2.4,0.3 -3.4,0.4c-1,0.2 -1.9,0.3 -2.6,0.4c-1.4,0.2 -2.3,0.3 -2.3,0.3c0,0 0.8,-0.2 2.2,-0.4c0.7,-0.1 1.6,-0.3 2.6,-0.5c1,-0.2 2.1,-0.3 3.4,-0.5c0.6,-0.1 1.3,-0.2 1.9,-0.3c0.7,-0.1 1.4,-0.2 2.1,-0.2c1.4,-0.2 2.9,-0.4 4.5,-0.4c1.6,-0.1 3.2,-0.2 4.8,-0.3c1.6,-0.1 3.3,-0.1 5,-0.2c1.7,0 3.3,0 5,0c1.6,0 3.2,0.1 4.8,0.2c3.1,0.2 6,0.4 8.5,0.7c2.5,0.3 4.5,0.6 6,0.8c1.2,0.2 2.1,0.4 2.1,0.4z" fill="#d18b44"/><path d="M382.39151,234.22831c0,0 -2.3,-0.5 -5.8,-1c-1.7,-0.3 -3.8,-0.5 -5.9,-0.7c-2.2,-0.2 -4.5,-0.4 -6.8,-0.5c-1.2,-0.1 -2.3,-0.1 -3.5,-0.1c-1.1,0 -2.3,0 -3.4,0c-1.1,0 -2.2,0.1 -3.2,0.1c-1,0 -2,0.1 -2.8,0.1c-0.9,0.1 -1.7,0.1 -2.4,0.2c-0.7,0.1 -1.3,0.1 -1.8,0.2c-1,0.1 -1.6,0.1 -1.6,0.1c0,0 0.6,-0.1 1.6,-0.3c0.5,-0.1 1.1,-0.2 1.8,-0.3c0.7,-0.1 1.5,-0.2 2.4,-0.3c0.9,-0.1 1.8,-0.2 2.8,-0.3c1,-0.1 2.1,-0.2 3.2,-0.2c1.1,0 2.2,-0.1 3.4,0c1.2,0 2.3,0 3.5,0.1c2.3,0.1 4.7,0.3 6.9,0.6c2.2,0.3 4.2,0.6 5.9,0.9c3.5,0.7 5.7,1.4 5.7,1.4z" fill="#d18b44"/><path d="M382.69151,232.22831c0,0 -0.1,-0.2 -0.4,-0.4c-0.3,-0.3 -0.7,-0.7 -1.3,-1.1c-0.6,-0.5 -1.4,-0.9 -2.3,-1.4c-0.9,-0.4 -2,-1 -3.2,-1.4c-1.2,-0.5 -2.5,-0.8 -3.9,-1.3c-0.7,-0.1 -1.4,-0.3 -2.2,-0.5c-0.4,-0.1 -0.7,-0.2 -1.1,-0.2c-0.4,-0.1 -0.8,-0.1 -1.2,-0.2c-0.8,-0.1 -1.6,-0.2 -2.4,-0.3c-0.8,0 -1.6,-0.1 -2.5,-0.1c-1.7,-0.1 -3.4,0 -5.1,0c-1.7,0 -3.4,0.2 -5.1,0.3c-1.7,0.1 -3.3,0.4 -4.9,0.6c-1.6,0.3 -3.1,0.4 -4.5,0.8c-1.4,0.3 -2.8,0.6 -4,0.8c-1.3,0.2 -2.4,0.6 -3.4,0.8c-1,0.3 -1.9,0.5 -2.6,0.7c-1.4,0.4 -2.3,0.6 -2.3,0.6c0,0 0.8,-0.3 2.2,-0.7c0.7,-0.2 1.6,-0.5 2.6,-0.8c1,-0.3 2.1,-0.7 3.4,-1c1.2,-0.3 2.6,-0.6 4,-1c1.4,-0.4 3,-0.6 4.5,-0.9c1.6,-0.3 3.2,-0.6 4.9,-0.7c1.7,-0.1 3.4,-0.4 5.1,-0.4c1.7,0 3.4,-0.1 5.1,0.1c0.8,0.1 1.7,0.1 2.5,0.2c0.8,0.1 1.6,0.2 2.4,0.3c0.4,0.1 0.8,0.1 1.2,0.2c0.4,0.1 0.8,0.2 1.1,0.3c0.8,0.2 1.5,0.4 2.2,0.5c1.4,0.5 2.7,0.8 3.9,1.4c1.2,0.5 2.2,1.1 3.1,1.6c0.9,0.6 1.6,1.1 2.2,1.5c0.6,0.5 1,0.9 1.3,1.2c0.5,0.3 0.7,0.5 0.7,0.5z" fill="#d18b44"/><path d="M315.49151,234.92831c0,0 0.4,-0.5 1.2,-1c0.8,-0.6 1.9,-1.2 3,-1.7c0.6,-0.2 1.2,-0.5 1.8,-0.6c0.6,-0.2 1.1,-0.3 1.6,-0.3c0.5,-0.1 0.9,-0.1 1.1,-0.1c0.3,0 0.4,0 0.4,0c0,0 -0.2,0.1 -0.4,0.1c-0.3,0.1 -0.6,0.2 -1.1,0.3c-0.9,0.3 -2.1,0.7 -3.2,1.2c-1.1,0.5 -2.3,1 -3.1,1.4c-0.8,0.4 -1.3,0.7 -1.3,0.7z" fill="#d18b44"/><path d="M319.39151,237.62831c0,0 1.1,-0.5 2.8,-1c0.9,-0.3 1.9,-0.6 2.9,-0.9c1.1,-0.3 2.2,-0.6 3.4,-0.9c1.2,-0.3 2.3,-0.5 3.4,-0.8c1.1,-0.2 2.1,-0.4 3,-0.6c1.8,-0.3 3,-0.4 3,-0.4c0,0 -1.2,0.3 -2.9,0.8c-0.9,0.2 -1.9,0.5 -3,0.7c-1.1,0.3 -2.2,0.5 -3.4,0.8c-2.3,0.5 -4.6,1.1 -6.4,1.5c-1.6,0.6 -2.8,0.8 -2.8,0.8z" fill="#d18b44"/><path d="M310.39151,252.92831c4.1,-4.1 8.3,-14.3 2.1,-21.3c8.1,6.9 4.4,16.2 -2.1,21.3z" fill="#db4570"/></g><g data-paper-data="{&quot;index&quot;:null}" fill-rule="nonzero" stroke="none" stroke-width="1" stroke-linecap="butt" stroke-linejoin="miter"><path d="M289.29151,245.02831c0,0 -11.9,1 -28.3,1.3c-32.8,0.6 -82.6,0.6 -88.2,0.3c-7.4,-0.4 -19.1,-0.6 -25.1,-1.1c-6,-0.6 -23.6,-1.1 -23.6,-1.1c0,0 -1.1,-4.6 0.3,-4.8c1.4,-0.3 25.3,1.1 28.2,1.1c2.9,0 17.9,-1.2 22.4,-0.2c2.8,0.6 40.6,-0.3 71,-0.6c6.5,-0.1 9.9,0.7 15.6,0.6c15.6,-0.2 27.1,-0.3 27.1,-0.3c0,0 1.7,2.5 0.6,4.8z" fill="#694932"/><path d="M197.69151,243.52831c0,0 -0.7,0.1 -1.8,0.3c-1.1,0.2 -2.8,0.4 -4.7,0.6c-2,0.2 -4.3,0.5 -6.7,0.7c-2.5,0.2 -5.1,0.5 -7.8,0.4c-5.3,-0.2 -10.5,-0.5 -14.5,-0.7c-3.9,-0.3 -6.6,-0.5 -6.6,-0.5c0,0 10.5,0.4 21.1,0.7c1.3,0 2.6,0 3.9,-0.1c1.3,-0.1 2.6,-0.2 3.8,-0.3c2.5,-0.2 4.8,-0.4 6.7,-0.6c3.9,-0.3 6.6,-0.5 6.6,-0.5z" fill="#4f3726"/><path d="M186.19151,243.52831c0,0 -0.7,0.1 -1.7,0.3c-1,0.1 -2.4,0.2 -3.7,0.2c-1.4,0 -2.7,-0.1 -3.7,-0.3c-1,-0.2 -1.7,-0.4 -1.7,-0.4c0,0 0.7,0 1.7,0.1c1,0 2.3,0.1 3.7,0.1c1.3,0 2.7,0 3.7,0c1,0 1.7,0 1.7,0z" fill="#4f3726"/><path d="M171.19151,242.22831c0,0 -1,0 -2.5,0.1c-0.7,0 -1.6,0 -2.5,0c-0.9,0 -1.9,0 -2.9,0c-3.9,0 -7.9,-0.1 -7.9,-0.1c0,0 1,-0.2 2.5,-0.3c0.7,0 1.6,-0.1 2.5,-0.1c0.9,0 1.9,0 2.9,0c1,0 2,0 2.9,0.1c0.9,0 1.8,0.1 2.5,0.1c1.5,0.1 2.5,0.2 2.5,0.2z" fill="#4f3726"/><path d="M160.09151,243.12831c0,0 -1.8,0.1 -4.5,0.3c-2.7,0.1 -6.4,0.2 -10,0c-1.8,-0.1 -3.6,-0.2 -5.3,-0.3c-1.7,-0.1 -3.3,-0.1 -4.6,-0.2c-2.7,-0.1 -4.5,-0.2 -4.5,-0.2c0,0 1.8,-0.1 4.5,-0.1c2.7,0 6.4,0 10,0.2c1.8,0.1 3.6,0.2 5.3,0.2c1.7,0 3.3,0 4.6,0c2.7,0.1 4.5,0.1 4.5,0.1z" fill="#4f3726"/><path d="M127.39151,241.12831c0,0 1.1,-0.1 2.7,-0.1c0.8,0 1.8,0 2.8,0c1,0 2.1,0 3.2,0c1.1,0 2.2,0.1 3.2,0.1c1,0 2,0.1 2.8,0.2c0.8,0.1 1.5,0.2 2,0.2c0.5,0.1 0.7,0.1 0.7,0.1c0,0 -0.3,0 -0.8,0c-0.5,0 -1.2,0 -2,0c-0.8,0 -1.8,0 -2.8,0c-1,0 -2.1,0 -3.2,-0.1c-1.1,0 -2.2,-0.1 -3.2,-0.1c-1,0 -2,-0.1 -2.8,-0.1c-1.5,-0.1 -2.6,-0.2 -2.6,-0.2z" fill="#4f3726"/><path d="M149.79151,244.42831c0,0 0.2,0 0.6,-0.1c0.3,0 0.8,-0.1 1.2,-0.1c0.5,0 0.9,0 1.2,0.1c0.3,0 0.6,0.1 0.6,0.1c0,0 -0.2,0.1 -0.6,0.1c-0.3,0 -0.8,0.1 -1.2,0.1c-0.5,0 -0.9,0 -1.2,-0.1c-0.4,-0.1 -0.6,-0.1 -0.6,-0.1z" fill="#4f3726"/><path d="M148.09151,241.82831c0,0 0.2,0 0.5,-0.1c0.3,0 0.6,-0.1 1,-0.1c0.4,0 0.7,0 1,0.1c0.3,0 0.5,0.1 0.5,0.1c0,0 -0.2,0.1 -0.5,0.1c-0.3,0 -0.6,0.1 -1,0.1c-0.4,0 -0.7,0 -1,-0.1c-0.3,0 -0.5,-0.1 -0.5,-0.1z" fill="#4f3726"/><path d="M168.59151,243.52831c0,0 0.3,0 0.7,-0.1c0.4,0 1,-0.1 1.6,-0.1c0.6,0 1.2,0 1.6,0.1c0.4,0 0.7,0.1 0.7,0.1c0,0 -0.3,0.1 -0.7,0.1c-0.4,0 -1,0.1 -1.6,0.1c-0.6,0 -1.2,0 -1.6,-0.1c-0.4,-0.1 -0.7,-0.1 -0.7,-0.1z" fill="#4f3726"/><path d="M189.09151,243.32831c0,0 0.2,-0.1 0.4,-0.1c0.2,-0.1 0.5,-0.1 0.9,-0.2c0.3,0 0.6,-0.1 0.9,-0.1c0.2,0 0.4,0 0.4,0c0,0 -0.2,0.1 -0.4,0.1c-0.2,0.1 -0.5,0.1 -0.9,0.2c-0.3,0 -0.6,0.1 -0.9,0.1c-0.2,0 -0.4,0 -0.4,0z" fill="#4f3726"/><path d="M197.99151,242.22831c0,0 -0.2,0.1 -0.5,0.2c-0.3,0.1 -0.7,0.2 -1.2,0.3c-0.4,0.1 -0.9,0.1 -1.2,0.1c-0.3,0 -0.6,0 -0.6,0c0,0 0.2,-0.1 0.5,-0.2c0.3,-0.1 0.7,-0.2 1.2,-0.3c0.4,-0.1 0.9,-0.1 1.2,-0.1c0.4,0 0.6,0 0.6,0z" fill="#4f3726"/><path d="M126.39151,242.92831c0,0 0.1,0 0.4,-0.1c0.1,0 0.4,0 0.7,0c0.3,0 0.6,0 0.8,0.1c0.2,0 0.4,0.1 0.4,0.1c0,0 -0.1,0.1 -0.4,0.1c-0.2,0 -0.5,0.1 -0.8,0.1c-0.3,0 -0.6,0 -0.8,-0.1c-0.2,-0.1 -0.3,-0.2 -0.3,-0.2z" fill="#4f3726"/><path d="M186.59151,242.22831c0,0 -0.9,0.2 -2.2,0.3c-1.3,0.1 -3.1,0.2 -4.9,0.1c-0.9,-0.1 -1.8,-0.2 -2.6,-0.3c-0.8,-0.1 -1.6,-0.3 -2.2,-0.4c-0.7,-0.1 -1.2,-0.3 -1.6,-0.4c-0.4,-0.1 -0.6,-0.2 -0.6,-0.2c0,0 0.2,0 0.6,0.1c0.4,0.1 0.9,0.1 1.6,0.2c1.3,0.2 3.1,0.4 4.8,0.5c1.8,0.1 3.5,0.2 4.8,0.2c1.4,-0.1 2.3,-0.1 2.3,-0.1z" fill="#4f3726"/><path d="M162.49151,240.22831c0,0 -1.6,0.1 -3.9,0.2c-1.2,0 -2.6,0.1 -4,0.1c-1.5,0 -3.1,0 -4.6,0.1c-1.6,0 -3.2,0 -4.6,-0.1c-1.5,0 -2.9,-0.1 -4,-0.2c-0.6,0 -1.1,-0.1 -1.6,-0.2c-0.5,-0.1 -0.9,-0.1 -1.2,-0.2c-0.9,0 -1.3,-0.1 -1.3,-0.1c0,0 0.4,0 1.1,0.1c0.7,0 1.7,0.1 2.8,0.1c1.2,0 2.6,0 4,0.1c1.5,0 3,0 4.6,0c3.1,0 6.3,0 8.7,0c2.4,0.1 4,0.1 4,0.1z" fill="#4f3726"/><path d="M195.89151,245.52831c0,0 0.9,-0.1 2.5,-0.3c1.6,-0.2 3.9,-0.5 6.6,-0.8c2.7,-0.3 5.9,-0.5 9.4,-0.6c1.7,-0.1 3.5,0 5.3,0.1c1.8,0.1 3.6,0.1 5.5,0.1c3.7,0 7.3,-0.1 10.8,-0.1c3.4,-0.1 6.7,-0.1 9.4,-0.2c5.5,-0.1 9.2,-0.2 9.2,-0.2c0,0 -3.7,0.2 -9.2,0.5c-5.5,0.2 -12.8,0.5 -20.2,0.5c-1.8,0 -3.7,0 -5.5,-0.1c-1.8,-0.1 -3.6,-0.2 -5.3,-0.2c-3.4,0.1 -6.6,0.3 -9.4,0.5c-5.5,0.4 -9.1,0.8 -9.1,0.8z" fill="#4f3726"/><path d="M239.39151,242.92831c0,0 2.6,-0.2 6.4,-0.5c3.9,-0.2 9,-0.4 14.2,-0.2c1.3,0.1 2.6,0.2 3.9,0.4c1.3,0.2 2.5,0.7 3.6,0.8c2.4,0.4 4.6,0.4 6.5,0.4c3.9,0 6.4,-0.3 6.4,-0.3c0,0 -0.6,0.1 -1.8,0.2c-1.1,0.1 -2.7,0.3 -4.7,0.3c-1.9,0.1 -4.2,0.1 -6.6,-0.3c-1.2,-0.2 -2.4,-0.6 -3.6,-0.8c-1.2,-0.2 -2.5,-0.3 -3.8,-0.3c-1.3,-0.1 -2.6,-0.1 -3.8,-0.1c-1.3,0 -2.5,0 -3.7,0c-2.4,0 -4.7,0.1 -6.6,0.1c-3.8,0.2 -6.4,0.3 -6.4,0.3z" fill="#4f3726"/><path d="M257.99151,244.32831c0,0 0.5,0 1.2,0c0.4,0 0.8,0 1.3,0c0.5,0 1,0.1 1.4,0.1c0.5,0 1,0.1 1.4,0.1c0.5,0 0.9,0.1 1.3,0.2c0.7,0.1 1.2,0.2 1.2,0.2c0,0 -0.5,0.1 -1.2,0.1c-0.4,0 -0.8,0 -1.3,0c-0.5,0 -1,-0.1 -1.5,-0.1c-0.5,-0.1 -1,-0.1 -1.4,-0.2c-0.5,-0.1 -0.9,-0.1 -1.3,-0.2c-0.6,-0.1 -1.1,-0.2 -1.1,-0.2z" fill="#4f3726"/><path d="M268.89151,242.02831c0,0 1.2,-0.1 3,-0.2c0.9,0 1.9,-0.1 3,-0.1c1.1,0 2.3,0 3.5,0c1.2,0 2.4,0.1 3.5,0.1c1.1,0 2.2,0.1 3,0.2c0.9,0.1 1.6,0.2 2.1,0.3c0.5,0.1 0.8,0.2 0.8,0.2c0,0 -0.3,0 -0.8,-0.1c-0.5,0 -1.3,-0.1 -2.1,-0.1c-0.9,0 -1.9,0 -3,0c-1.1,0 -2.3,0 -3.5,0c-1.2,0 -2.4,0 -3.5,0c-1.1,0 -2.2,0 -3,0c-1.8,-0.2 -3,-0.3 -3,-0.3z" fill="#4f3726"/><path d="M237.59151,241.02831c0,0 -1,0.1 -2.5,0.3c-0.8,0.1 -1.6,0.2 -2.6,0.2c-0.9,0.1 -2,0.1 -3,0.2c-1,0 -2,0.1 -3,0.1c-0.9,0 -1.8,0 -2.6,0c-1.5,0 -2.5,-0.1 -2.5,-0.1c0,0 1,-0.1 2.5,-0.2c0.8,0 1.6,-0.1 2.6,-0.1c0.9,0 2,-0.1 3,-0.1c1,0 2,-0.1 3,-0.1c0.9,0 1.8,0 2.6,-0.1c1.4,-0.1 2.5,-0.1 2.5,-0.1z" fill="#4f3726"/><path d="M222.79151,242.92831c0,0 -1,0 -2.5,-0.1c-0.7,0 -1.6,-0.1 -2.5,-0.1c-0.9,-0.1 -1.9,-0.1 -2.9,-0.1c-1,0 -2,-0.1 -2.9,-0.1c-0.9,0 -1.8,0 -2.5,0c-0.4,0 -0.7,0 -1,0c-0.3,0 -0.6,0 -0.8,0.1c-0.4,0.1 -0.7,0.1 -0.7,0.1c0,0 0.2,-0.1 0.7,-0.2c0.2,-0.1 0.5,-0.1 0.8,-0.1c0.3,-0.1 0.6,-0.1 1,-0.1c0.7,-0.1 1.6,-0.1 2.5,-0.1c0.9,0 1.9,0 2.9,0c1,0.1 2,0.1 2.9,0.2c0.9,0.1 1.8,0.2 2.5,0.3c1.5,0 2.5,0.2 2.5,0.2z" fill="#4f3726"/><path d="M216.19151,241.42831c0,0 0.2,0 0.5,-0.1c0.3,0 0.7,-0.1 1,-0.1c0.4,0 0.8,0 1,0.1c0.3,0 0.5,0.1 0.5,0.1c0,0 -0.2,0 -0.5,0.1c-0.3,0 -0.7,0.1 -1,0.1c-0.4,0 -0.8,0 -1,-0.1c-0.3,-0.1 -0.5,-0.1 -0.5,-0.1z" fill="#4f3726"/><path d="M215.69151,245.72831c0,0 0.2,0 0.5,-0.1c0.3,0 0.7,-0.1 1.1,-0.1c0.4,0 0.8,0 1.1,0.1c0.3,0 0.5,0.1 0.5,0.1c0,0 -0.2,0 -0.5,0.1c-0.3,0 -0.7,0 -1.1,0c-0.4,0 -0.8,0 -1.1,-0.1c-0.3,0 -0.5,0 -0.5,0z" fill="#4f3726"/><path d="M232.69151,242.72831c0,0 0.2,0 0.5,-0.1c0.3,0 0.7,-0.1 1,-0.1c0.4,0 0.8,0 1,0.1c0.3,0 0.5,0.1 0.5,0.1c0,0 -0.2,0 -0.5,0.1c-0.3,0 -0.7,0.1 -1,0.1c-0.4,0 -0.8,0 -1,-0.1c-0.3,-0.1 -0.5,-0.1 -0.5,-0.1z" fill="#4f3726"/><path d="M264.09151,241.72831c0,0 0.2,0 0.5,-0.1c0.3,0 0.7,-0.1 1,-0.1c0.4,0 0.8,0 1,0.1c0.3,0 0.5,0.1 0.5,0.1c0,0 -0.2,0 -0.5,0.1c-0.3,0 -0.7,0.1 -1,0.1c-0.4,0 -0.8,0 -1,-0.1c-0.3,-0.1 -0.5,-0.1 -0.5,-0.1z" fill="#4f3726"/><path d="M235.89151,245.72831c0,0 1.2,-0.2 3,-0.3c0.9,-0.1 1.9,-0.2 3.1,-0.2c1.1,-0.1 2.3,-0.1 3.5,-0.2c1.2,0 2.4,-0.1 3.5,-0.1c1.1,0 2.2,0 3.1,0c1.8,0 3,0.1 3,0.1c0,0 -4.8,0.2 -9.6,0.5c-1.2,0 -2.4,0.1 -3.5,0.1c-1.1,0 -2.2,0.1 -3.1,0.1c-1.8,0 -3,0 -3,0z" fill="#4f3726"/><path d="M199.69151,242.72831c0,0 0.6,-0.3 1.7,-0.5c1,-0.3 2.4,-0.6 3.8,-0.8c0.7,-0.1 1.4,-0.2 2,-0.2c0.7,0 1.3,0 1.8,-0.1c1,0 1.7,0.1 1.7,0.1c0,0 -0.2,0 -0.5,0.1c-0.3,0 -0.7,0.1 -1.3,0.1c-1,0.1 -2.4,0.3 -3.8,0.5c-2.6,0.4 -5.4,0.8 -5.4,0.8z" fill="#4f3726"/><path d="M239.39151,241.72831c0,0 0.7,-0.1 1.7,-0.3c1,-0.1 2.4,-0.3 3.7,-0.3c1.4,-0.1 2.7,-0.1 3.8,0c1,0.1 1.7,0.2 1.7,0.2c0,0 -0.7,0.1 -1.7,0.1c-1,0.1 -2.4,0.2 -3.7,0.2c-1.4,0.1 -2.7,0.1 -3.7,0.1c-1.1,0 -1.8,0 -1.8,0z" fill="#4f3726"/><path d="M277.79151,244.92831c0,0 0.6,-0.2 1.5,-0.3c0.9,-0.2 2,-0.4 3.2,-0.5c1.2,-0.1 2.4,-0.2 3.3,-0.2c0.9,0 1.5,0 1.5,0c0,0 -0.6,0.1 -1.5,0.2c-0.9,0.1 -2,0.3 -3.2,0.4c-1.2,0.1 -2.4,0.2 -3.2,0.3c-1,0.1 -1.6,0.1 -1.6,0.1z" fill="#4f3726"/></g></g></g></svg>