<svg version="1.1" xmlns="http://www.w3.org/2000/svg" xmlns:xlink="http://www.w3.org/1999/xlink" width="83.11716" height="126.92042" viewBox="0,0,83.11716,126.92042"><defs><linearGradient x1="232.14851" y1="215.95971" x2="250.25545" y2="215.95971" gradientUnits="userSpaceOnUse" id="color-1"><stop offset="0" stop-color="#bebebe"/><stop offset="1" stop-color="#737373"/></linearGradient><linearGradient x1="232.14851" y1="215.95971" x2="250.25545" y2="215.95971" gradientUnits="userSpaceOnUse" id="color-2"><stop offset="0" stop-color="#bebebe"/><stop offset="1" stop-color="#737373"/></linearGradient><linearGradient x1="231.3764" y1="213.41423" x2="247.73556" y2="213.41423" gradientUnits="userSpaceOnUse" id="color-3"><stop offset="0" stop-color="#ffd166"/><stop offset="1" stop-color="#ac880b"/></linearGradient><linearGradient x1="224.96084" y1="196.95031" x2="243.11276" y2="196.95031" gradientUnits="userSpaceOnUse" id="color-4"><stop offset="0" stop-color="#ffd166"/><stop offset="1" stop-color="#ac880b"/></linearGradient><linearGradient x1="217.87945" y1="217.25531" x2="234.90299" y2="217.25531" gradientUnits="userSpaceOnUse" id="color-5"><stop offset="0" stop-color="#ffd166"/><stop offset="1" stop-color="#ac880b"/></linearGradient><linearGradient x1="218.40883" y1="235.40169" x2="233.09653" y2="235.40169" gradientUnits="userSpaceOnUse" id="color-6"><stop offset="0" stop-color="#bebebe"/><stop offset="1" stop-color="#737373"/></linearGradient><linearGradient x1="218.40883" y1="235.40169" x2="233.09653" y2="235.40169" gradientUnits="userSpaceOnUse" id="color-7"><stop offset="0" stop-color="#bebebe"/><stop offset="1" stop-color="#737373"/></linearGradient><linearGradient x1="218.67382" y1="181.5352" x2="236.09036" y2="181.5352" gradientUnits="userSpaceOnUse" id="color-8"><stop offset="0" stop-color="#bebebe"/><stop offset="1" stop-color="#737373"/></linearGradient><linearGradient x1="216.14102" y1="185.18317" x2="246.61113" y2="185.18317" gradientUnits="userSpaceOnUse" id="color-9"><stop offset="0" stop-color="#bebebe"/><stop offset="1" stop-color="#737373"/></linearGradient><linearGradient x1="206.03381" y1="178.00744" x2="219.14554" y2="175.36699" gradientUnits="userSpaceOnUse" id="color-10"><stop offset="0" stop-color="#bb951b"/><stop offset="1" stop-color="#d6ad39"/></linearGradient><linearGradient x1="203.47991" y1="168.09479" x2="215.78738" y2="165.61632" gradientUnits="userSpaceOnUse" id="color-11"><stop offset="0" stop-color="#bebebe"/><stop offset="1" stop-color="#737373"/></linearGradient><linearGradient x1="207.92742" y1="173.05663" x2="213.80185" y2="171.87363" gradientUnits="userSpaceOnUse" id="color-12"><stop offset="0" stop-color="#bb951b"/><stop offset="1" stop-color="#d6ad39"/></linearGradient><linearGradient x1="208.64523" y1="174.10719" x2="213.66953" y2="173.09539" gradientUnits="userSpaceOnUse" id="color-13"><stop offset="0" stop-color="#bb951b"/><stop offset="1" stop-color="#d6ad39"/></linearGradient><linearGradient x1="207.14935" y1="172.69521" x2="208.16841" y2="172.48999" gradientUnits="userSpaceOnUse" id="color-14"><stop offset="0" stop-color="#bb951b"/><stop offset="1" stop-color="#d6ad39"/></linearGradient><linearGradient x1="206.60703" y1="172.50302" x2="207.60306" y2="172.30244" gradientUnits="userSpaceOnUse" id="color-15"><stop offset="0" stop-color="#bb951b"/><stop offset="1" stop-color="#d6ad39"/></linearGradient></defs><g transform="translate(-200.30186,-117.114)"><g data-paper-data="{&quot;isPaintingLayer&quot;:true}" stroke-miterlimit="10" stroke-dasharray="" stroke-dashoffset="0" style="mix-blend-mode: normal"><path d="M234.17257,193.38529l1.0089,-15.62125" fill="none" fill-rule="nonzero" stroke="#000000" stroke-width="6" stroke-linecap="round" stroke-linejoin="miter"/><g><g stroke-width="1.2"><path d="M241.24808,191.06582l3.82649,35.7578c0,0 6.25751,2.04113 5.01849,10.93788c-0.07064,0.50719 -0.46503,2.98602 -3.16541,3.08895c-2.58641,0.09859 -7.44437,-2.1491 -9.21755,-2.98561c-0.82356,-0.38852 -2.01416,-1.50492 -2.66963,-3.08332c-0.65994,-1.58922 -0.32409,-3.58842 -0.18498,-4.72505c0.05665,-0.46296 -2.70698,-37.11422 -2.70698,-37.11422" fill="url(#color-1)" fill-rule="evenodd" stroke="url(#color-2)" stroke-linecap="round" stroke-linejoin="round"/><path d="M241.88956,190.28728c0.49811,3.4781 3.17544,22.84005 3.17544,22.84005c0,0 1.56019,6.40479 1.61354,8.13435c0.06143,1.99192 0.23884,3.43451 0.23884,3.43451l-0.73008,-1.71822c0,0 0.47416,1.1891 0.63907,1.87018c0.51377,2.12172 0.90919,3.72495 0.90919,3.72495c0,0 -6.30443,-2.11392 -9.13535,0.14353c-2.83093,2.25746 -2.2556,7.92824 -2.2556,7.92824c0,0 -4.59886,-2.15768 -4.53097,-5.91165c0.01673,-0.92545 1.07679,-3.43616 1.07679,-3.43616c0,0 -0.55857,0.02193 -0.49987,-0.60751c0.01394,-0.14956 -1.10581,-32.40488 -1.00812,-33.10628c0,0 10.39251,-4.09648 10.50714,-3.29597z" fill="url(#color-3)" fill-rule="nonzero" stroke="#caa551" stroke-linecap="butt" stroke-linejoin="miter"/></g><g><g fill="none" fill-rule="nonzero" stroke="none" stroke-width="1" stroke-linecap="butt" stroke-linejoin="miter" font-family="sans-serif" font-weight="normal" font-size="12" text-anchor="start"/><path d="M230.2402,201.5255c-1.4401,-0.34788 -3.14006,-1.1142 -3.94935,-2.29781c-1.04404,-1.52689 -1.0158,-3.636 -1.33001,-5.26186c5.91673,1.52603 12.97065,0.24161 18.15192,-2.6162c-0.13363,1.11904 0.20057,6.10667 -1.91962,7.87192c-1.41073,1.17457 -5.7876,2.9636 -6.90335,3.21913c-2.16543,0.49596 -3.72358,-0.83647 -4.04956,-0.9152z" fill="url(#color-4)" fill-rule="evenodd" stroke="#caa551" stroke-width="1.2" stroke-linecap="round" stroke-linejoin="round"/></g><g stroke-width="1.2"><g fill-rule="evenodd" stroke-linecap="round" stroke-linejoin="round"><path d="M233.64637,199.03938c0,0 -2.84309,37.1711 -3.36189,37.29378c-1.48883,0.35207 -9.64778,-2.80064 -9.64778,-2.80064l5.24455,-37.37208" data-paper-data="{&quot;index&quot;:null}" fill="#ffab19" stroke="#001026"/><path d="M234.90299,198.44014c0,0 -0.66415,7.86031 -0.86031,12.028c-0.18814,3.99744 -0.29363,12.48883 -0.29363,12.48883c0,0 0.79756,6.17005 0.01781,7.69158c-0.36114,0.70474 -0.64573,-3.4835 -0.64573,-3.4835c0,0 0.31769,4.7216 0.34897,5.13778c0.21826,2.90368 -0.77779,6.71679 -3.38789,7.07905c-2.86571,0.39773 -7.61663,0.84695 -10.06577,-1.45031c-1.04207,-0.97745 -2.45361,-3.85474 -2.0737,-6.91983c0.42843,-3.45663 2.7292,-7.07781 2.7292,-7.07781l-2.11413,3.9473c0,0 -0.02204,-1.97095 0.32196,-3.41675c0.38631,-1.62362 1.88374,-5.85353 1.88374,-5.85353l4.53936,-23.80519" data-paper-data="{&quot;index&quot;:null}" fill="url(#color-5)" stroke="#caa551"/></g><path d="M233.09103,236.3431c-0.07762,2.28139 -0.71084,4.93202 -2.08526,6.30842c-1.37951,1.3815 -9.67044,0.83401 -10.95217,-0.85436c-1.21722,-1.60341 -1.71304,-4.5669 -1.63728,-6.7935c0.15554,-4.57122 3.56667,-7.97711 7.61899,-7.60722c4.05229,0.36988 7.21127,4.37546 7.05572,8.9467z" fill="url(#color-6)" fill-rule="nonzero" stroke="url(#color-7)" stroke-linecap="butt" stroke-linejoin="miter"/></g><g fill="none" fill-rule="nonzero" stroke="none" stroke-width="1" stroke-linecap="butt" stroke-linejoin="miter" font-family="sans-serif" font-weight="normal" font-size="12" text-anchor="start"/></g><path d="M212.32493,184.33509c1.27707,-1.57529 23.00731,-5.78074 23.00731,-5.78074c0,0 11.36531,1.82089 15.72051,2.8477c3.39063,0.79939 13.81203,3.39849 13.81203,3.39849" fill="none" fill-rule="nonzero" stroke="#000000" stroke-width="6" stroke-linecap="round" stroke-linejoin="miter"/><path d="M236.09036,180.69806c0,2.4641 -3.1111,4.46165 -6.94886,4.46165c-2.04451,0 -5.6992,1.68326 -7.94672,0.47339c-1.97129,-1.06118 -2.69907,-4.98204 -2.48487,-5.64542c0.66816,-2.06928 7.4576,-2.98787 9.73374,-2.98787c3.83775,0 7.64671,1.23416 7.64671,3.69825z" fill="url(#color-8)" fill-rule="nonzero" stroke="#737373" stroke-width="1" stroke-linecap="butt" stroke-linejoin="miter"/><path d="M227.57547,184.12504c-0.10881,-0.44294 -3.99926,1.80263 -4.48044,1.37961c-2.29455,-2.01725 -3.91192,-8.11856 -3.91192,-8.11856c0,0 3.10382,-2.20508 7.48995,-2.19991c5.0787,0.00599 11.55074,2.21493 11.7059,2.08904c0.37345,-0.30301 17.77141,0.90789 17.77141,0.90789c0,0 -3.90082,3.68118 -3.94268,6.82544c-0.0003,0.02234 -10.29016,-2.87272 -10.29482,-2.52246c-0.02794,2.09839 0.67075,9.67224 0.67075,9.67224c0,0 -5.45037,2.61282 -8.16313,2.65989c-2.99055,0.05189 -9.1375,-1.86206 -9.1375,-1.86206c0,0 2.73735,-7.02017 2.29248,-8.83113z" fill="url(#color-9)" fill-rule="nonzero" stroke="#737373" stroke-width="2.5" stroke-linecap="butt" stroke-linejoin="miter"/><g stroke-linejoin="miter"><g data-paper-data="{&quot;index&quot;:null}" stroke-linecap="butt"><path d="M267.20581,161.48039c-3.99408,12.67317 -18.38485,19.68947 -32.14272,15.67137c-13.75785,-4.01811 -21.67295,-17.54905 -17.67885,-30.22223c3.99408,-12.67317 18.38485,-19.68947 32.14272,-15.67137c13.75785,4.01811 21.67295,17.54905 17.67885,30.22223z" fill="none" fill-rule="nonzero" stroke="#000000" stroke-width="4.5"/><g><g fill-rule="nonzero"><path d="M232.21092,135.07781l-0.00879,-0.0109" data-paper-data="{&quot;index&quot;:null}" fill="#ffab19" stroke="#000000" stroke-width="5"/><g data-paper-data="{&quot;index&quot;:null}" fill="none" stroke="none" stroke-width="1" font-family="sans-serif" font-weight="normal" font-size="12" text-anchor="start"/></g><path d="M232.21092,135.07781l-0.00879,-0.0109" data-paper-data="{&quot;index&quot;:null}" fill="#ffab19" fill-rule="nonzero" stroke="#000000" stroke-width="5"/><path d="M241.64697,155.274" fill="#001026" fill-rule="evenodd" stroke="#000000" stroke-width="5"/><g data-paper-data="{&quot;index&quot;:null}" fill="none" fill-rule="nonzero" stroke="none" stroke-width="1" font-family="sans-serif" font-weight="normal" font-size="12" text-anchor="start"/><g data-paper-data="{&quot;index&quot;:null}" fill="none" fill-rule="nonzero" stroke="none" stroke-width="1" font-family="sans-serif" font-weight="normal" font-size="12" text-anchor="start"/></g></g><path d="M258.16965,138.85638l-38.09438,8.58067l-4.45375,13.1399l-5.20581,-34.79953c0,0 48.32299,-7.50673 59.76426,-8.66341c4.55892,-0.4609 10.03122,1.60726 10.03122,1.60726c0,0 -4.30755,2.97263 -6.20551,5.83357c-2.76453,4.16719 -8.78292,16.7596 -8.78292,16.7596z" fill="#000000" fill-rule="nonzero" stroke="#191919" stroke-width="3" stroke-linecap="round"/></g><g fill-rule="nonzero" stroke-linecap="butt" stroke-linejoin="miter"><g data-paper-data="{&quot;index&quot;:null}" stroke="none" stroke-width="1"><path d="M206.71583,173.06233c-0.21757,-0.04163 -0.28676,-0.17488 -0.33935,-0.34289c-0.06082,-0.26989 -0.06347,-0.5423 -0.10481,-0.81304c-0.06234,-0.04838 -0.12465,-0.09677 -0.1856,-0.12817c-1.26628,-0.72836 -2.01405,-1.78587 -2.57738,-2.97066c-0.11764,-0.25036 -0.25471,-0.49993 -0.27671,-0.77147c-0.0041,-0.05093 -0.02903,-0.11797 -0.07062,-0.15023c-0.22858,-0.1774 -0.24648,-0.39806 -0.28513,-0.63486c-0.03593,-0.20282 -0.03304,-0.40735 -0.04954,-0.61103c-0.00963,-0.1188 0.01954,-0.2393 0.12909,-0.32928c0.10954,-0.08992 0.15676,-0.22826 0.2053,-0.3496c0.19447,-0.72385 0.52884,-1.40272 0.98377,-2.03575c0.26354,-0.35215 0.59075,-0.63895 0.93739,-0.92657c1.02189,-0.8451 2.24592,-1.35836 3.60701,-1.6221c0.61402,-0.11191 1.2543,-0.13982 1.90009,-0.09987c0.48918,0.02979 0.94923,0.18007 1.39123,0.34816c1.4064,0.53488 2.4716,1.42525 3.26501,2.56597c0.15369,0.21474 0.25196,0.46593 0.35021,0.71716c0.07198,0.16718 0.16198,0.31657 0.36424,0.40997c0.18148,0.07728 0.27149,0.22662 0.32406,0.39465c0.06082,0.26989 0.08282,0.54145 0.10481,0.81304c0.00688,0.08488 -0.02642,0.15448 -0.05974,0.22405c-0.15535,0.24523 -0.19293,0.50238 -0.1903,0.77481c0.02738,0.57796 -0.14204,1.13037 -0.29205,1.68197c-0.06113,0.20708 -0.14158,0.41496 -0.26225,0.60761c-0.37731,0.62963 -0.77681,1.22619 -1.35917,1.72851c0.02063,0.25458 0.02324,0.52701 0.04529,0.79859c0.00825,0.10185 0.01788,0.22065 -0.09304,0.2936c-0.0915,0.07211 -0.06386,0.17313 -0.05559,0.27495c0.03565,0.67975 0.09067,1.3587 0.12631,2.03846c0.10302,1.51147 0.2075,3.0399 0.27174,4.55305c0.06148,1.47922 0.18123,2.95588 0.28149,4.4334c0.01927,0.23762 -0.00168,0.45997 0.01762,0.69757c0.09356,1.15419 0.18711,2.30836 0.26128,3.4634c0.01652,0.20367 0.07181,0.40567 -0.02949,0.59742c-0.0333,0.06961 -0.00703,0.15359 -0.00016,0.23846c0.06883,0.84868 0.11957,1.71517 0.18837,2.56383c0.00275,0.03394 0.00686,0.08485 0.00963,0.1188c0.04145,0.27073 -0.08339,0.41244 -0.3454,0.54309c-0.88027,0.43014 -1.82275,0.57342 -2.82743,0.42989c-0.25637,-0.03994 -0.51546,-0.1138 -0.75794,-0.22246c-0.18148,-0.07727 -0.27011,-0.20966 -0.30328,-0.37852c-0.09948,-0.50667 -0.21837,-1.01247 -0.31922,-1.53612c-0.06908,-0.37174 -0.10072,-0.76213 -0.22801,-1.1313c-0.27947,-0.80541 -0.3275,-1.63796 -0.54878,-2.44587c-0.11478,-0.45487 -0.26697,-0.89114 -0.36234,-1.34689c-0.09812,-0.48967 -0.23364,-0.96071 -0.3498,-1.43256c-0.20598,-0.85972 -0.37454,-1.73812 -0.59994,-2.59697c-0.325,-1.12702 -0.57245,-2.25753 -0.81984,-3.38795c-0.08985,-0.38788 -0.17973,-0.77565 -0.26957,-1.16354c-0.12717,-0.60767 -0.25565,-1.23228 -0.38278,-1.8399c-0.06634,-0.33778 -0.17007,-0.65689 -0.23643,-0.99466c-0.08711,-0.35395 -0.11324,-0.67638 -0.18232,-1.04813zM207.18161,172.80357c0.24109,0.09169 0.47942,0.14947 0.73302,0.15546c0.51687,0.13075 1.04349,0.14188 1.57012,0.15297c0.66383,0.02216 1.34154,-0.02441 1.99988,-0.07016c0.75533,-0.04996 1.43871,-0.26711 2.14013,-0.50208c0.07486,-0.03734 0.14971,-0.07465 0.26198,-0.13064c-0.01098,-0.13578 -0.02205,-0.27157 -0.03304,-0.40734c-0.00275,-0.03394 -0.0249,-0.06705 -0.04844,-0.11711c-0.13582,0.00591 -0.27027,0.02881 -0.40334,0.06867c-0.22869,0.06109 -0.44075,0.08732 -0.66945,0.14838c-0.57383,0.12721 -1.17948,0.10255 -1.75741,0.17884c-0.30907,0.03052 -0.61537,0.09493 -0.92719,0.09151c-0.68326,-0.0213 -1.35958,0.04223 -2.04827,-0.04698c-0.1774,-0.02635 -0.37415,-0.05179 -0.55157,-0.07816c-0.08586,-0.09847 -0.23835,-0.05773 -0.33812,-0.08747c-0.12054,-0.04585 -0.24112,-0.09169 -0.45313,-0.0654c0.15369,0.21474 0.11339,0.43793 0.20749,0.63822c0.0984,0.01275 0.18426,0.11119 0.31734,0.07132zM208.00442,173.34682c-0.45865,-0.13333 -0.57643,-0.1452 -0.82593,-0.10027c0.03593,0.20282 0.07047,0.3887 0.10637,0.59153c0.00963,0.1188 0.09408,0.20031 0.21468,0.24616c0.08041,0.03057 0.17736,0.02634 0.25774,0.05689c0.30069,0.10616 0.63467,0.14266 0.94371,0.11216c0.14272,0.07892 0.29791,0.07221 0.45316,0.06543c0.87448,-0.02109 1.73098,-0.02438 2.59861,-0.13031c0.38533,-0.05086 0.76927,-0.11868 1.13239,-0.20266c0.28557,-0.08059 0.59049,-0.16201 0.80682,-0.37584c-0.01789,-0.22067 -0.03582,-0.44128 -0.05368,-0.66196c-0.15246,0.04069 -0.28557,0.08057 -0.39919,0.11957c-0.53227,0.15944 -1.06729,0.28499 -1.60783,0.34261c-0.69437,0.08135 -1.39563,0.07785 -2.09551,0.09134c-0.32988,0.01439 -0.64856,-0.07391 -0.97702,-0.04257c-0.18426,-0.11119 -0.37966,-0.11973 -0.55427,-0.11212zM211.94181,192.13316c0.2799,0.08999 0.55289,0.09516 0.82314,0.06634c0.02076,0.01611 0.06097,0.03141 0.0804,0.03056c0.46429,-0.03726 0.92584,-0.10848 1.34032,-0.27986c0.2454,-0.09586 0.4921,-0.17474 0.67096,-0.36991c-0.07705,-0.95051 -0.15414,-1.90098 -0.23527,-2.90244c-0.45053,0.20698 -0.90936,0.3122 -1.36948,0.40036c-0.40197,0.08566 -0.79415,0.05165 -1.19886,0.10336c-0.15521,0.00677 -0.29243,-0.00425 -0.44765,0.0025c-0.23969,-0.07473 -0.49607,-0.11465 -0.78847,-0.11895c0.04129,0.50921 0.23504,0.97769 0.31238,1.45126c0.09811,0.48969 0.21562,0.97855 0.31238,1.45123c0.18424,0.11119 0.34223,0.13841 0.50022,0.16556zM211.18018,188.74271c0.14272,0.07889 0.29931,0.08916 0.4545,0.08237c0.16074,0.06115 0.33402,0.03656 0.50998,0.04592c0.54466,-0.00673 1.08246,-0.09829 1.59805,-0.22297c0.30492,-0.08143 0.60712,-0.19682 0.86497,-0.37839c-0.00549,-0.06789 0.00839,-0.13662 0.00286,-0.20453c-0.06739,-0.83173 -0.13343,-1.64639 -0.18148,-2.47893c-0.05215,-0.88345 -0.10293,-1.74993 -0.15507,-2.63338c-0.08519,-1.29082 -0.14952,-2.5655 -0.23473,-3.85631c-0.07814,-1.44442 -0.21314,-2.86933 -0.25246,-4.31544c0.00016,-0.23846 -0.03993,-0.49221 -0.06054,-0.74682c-0.2079,0.0772 -0.39367,0.18749 -0.60435,0.23073c-0.66671,0.18236 -1.36108,0.26371 -2.05821,0.31116c-0.62086,0.02707 -1.24315,0.03714 -1.86544,0.04723c-0.25501,-0.02296 -0.48919,-0.02978 -0.7442,-0.05273c-0.16345,-0.09508 -0.33535,-0.05351 -0.49333,-0.0807c-0.1774,-0.02635 -0.33809,-0.08747 -0.53076,-0.06203c-0.02504,0.17143 0.02476,0.30554 0.0538,0.42348c0.29463,0.99214 0.43538,2.00799 0.67178,3.00265c0.14931,0.64077 0.29858,1.28154 0.46733,1.92142c0.20598,0.85972 0.42999,1.7016 0.63463,2.54433c0.17286,0.69082 0.34567,1.38166 0.49908,2.07333c0.17694,0.74176 0.3331,1.46737 0.49067,2.20998c0.15205,0.67469 0.3055,1.36638 0.47832,2.0572c0.17597,0.00936 0.30067,0.10612 0.4545,0.08239zM215.81689,165.71605c-0.41445,0.17135 -0.81646,0.25702 -1.217,0.35966c-0.41999,0.10348 -0.81917,0.2231 -1.24053,0.30958c-0.40197,0.08564 -0.82611,0.1382 -1.22944,0.20684c-0.42277,0.06952 -0.84548,0.13906 -1.28897,0.19247c-0.40469,0.05169 -0.8302,0.08726 -1.23491,0.13896c-0.42548,0.03557 -0.85648,0.00328 -1.27646,0.10674c-0.41567,-0.08407 -0.83706,0.00242 -1.24592,0.00323c-0.42958,-0.01536 -0.8759,0.00412 -1.3055,-0.01123c-0.41018,-0.0162 -0.84118,-0.04853 -1.25277,-0.08167c-0.43101,-0.03233 -0.84809,-0.1334 -1.27491,-0.11476c-0.00579,0.40906 0.00385,0.52785 0.18383,0.82661c0.23969,0.07473 0.47944,0.14946 0.75517,0.18851c0.33399,0.03654 0.66794,0.07309 1.02272,0.12577c0.66933,0.09008 1.31788,0.16397 1.99699,0.13438c0.46569,-0.0203 0.92998,-0.0576 1.40116,-0.00996c0.0984,0.01275 0.2148,0.00766 0.32845,-0.03135c0.22869,-0.0611 0.48233,-0.05506 0.71515,-0.06526c0.85373,-0.0372 1.6992,-0.17626 2.52389,-0.33147c1.09498,-0.184 2.1415,-0.48511 3.18385,-0.83718c0.20928,-0.06024 0.4186,-0.12044 0.56139,-0.27998c0.01819,-0.25629 -0.02186,-0.51008 -0.1062,-0.83zM207.81447,164.03795c-0.13732,0.22741 -0.19707,0.45147 -0.27619,0.67634c-0.0819,0.19091 -0.08477,0.39547 0.00935,0.59577c0.14806,0.3853 0.23932,0.79013 0.25289,1.19833c0.00275,0.03394 0.02624,0.08403 0.02763,0.101c0.10112,0.04668 0.17874,0.04327 0.27166,-0.01186c0.01803,-0.01779 0.03467,-0.0526 0.0333,-0.0696c0.0183,-0.49478 0.07543,-0.9912 0.17135,-1.48936c0.01391,-0.06874 0.02504,-0.17141 -0.01928,-0.23763c-0.09962,-0.26821 -0.19925,-0.53637 -0.47078,-0.76302zM206.85802,166.65163c0.02105,-0.4608 0.08232,-0.90634 0.16434,-1.33573c0.02777,-0.13745 -0.00123,-0.25543 -0.07047,-0.38868c-0.11353,-0.19943 -0.26311,-0.36326 -0.41407,-0.54406c-0.04432,-0.0662 -0.08997,-0.14936 -0.20366,-0.11036c-0.07363,0.29279 -0.16802,0.56945 -0.20286,0.8605c0.38766,0.6985 0.38764,0.69848 0.47308,1.51234c0.06233,0.0484 0.14133,0.06197 0.25361,0.00597zM211.76729,168.12393c-0.05286,0.30892 -0.08629,0.61699 -0.11974,0.92504c-0.01391,0.06875 -0.02778,0.13747 -0.00288,0.2045c0.15781,0.26563 0.29629,0.53216 0.547,0.74268c0.21633,-0.21383 0.25389,-0.47097 0.35106,-0.71369c0.04857,-0.12132 0.02091,-0.22235 -0.04694,-0.33861c-0.17722,-0.2648 -0.31567,-0.53132 -0.43603,-0.81559c-0.00137,-0.01697 -0.04152,-0.03227 -0.08308,-0.0645c-0.05683,0.01949 -0.13312,0.03988 -0.2093,0.06023zM211.69077,163.81786c-0.23022,0.28256 -0.32601,0.54225 -0.44117,0.80276c-0.03056,0.10353 -0.00425,0.18753 0.02203,0.27156c0.14946,0.40228 0.24064,0.80713 0.25566,1.23231c0.00412,0.05091 0.02763,0.101 0.03179,0.15189c0.21481,0.00767 0.25225,-0.01098 0.24122,-0.14677c-0.03579,-0.44134 0.02685,-0.86988 0.18922,-1.26871c0.09716,-0.2427 0.06124,-0.44555 -0.05365,-0.66198c-0.08725,-0.11545 -0.1537,-0.21476 -0.24506,-0.38109zM209.14892,166.56881c0.09701,-0.00425 0.11088,-0.073 0.10539,-0.1409c-0.0385,-0.47523 0.07953,-0.94028 0.19764,-1.40536c0.08613,-0.37847 -0.02311,-0.76549 -0.34442,-1.12622c-0.12344,0.15867 -0.12908,0.32926 -0.21371,0.48624c-0.16789,0.33095 -0.14172,0.65342 -0.03662,0.98953c0.10788,0.37002 0.23516,0.73923 0.22664,1.11433c0.02356,0.05006 0.0443,0.06624 0.0651,0.08234zM210.33408,163.89402c-0.09992,0.20874 -0.18594,0.34876 -0.25253,0.48793c-0.1179,0.22658 -0.12082,0.43111 -0.02397,0.66535c0.14255,0.31742 0.2089,0.65519 0.25584,0.99379c0.02904,0.11799 0.04003,0.25376 0.04967,0.37256c0.0984,0.01275 0.11366,-0.039 0.1109,-0.07295c0.05708,-0.49646 0.13362,-0.99374 0.28915,-1.47747c0.01251,-0.08572 0.0264,-0.15445 0.00012,-0.23846c-0.11628,-0.23339 -0.21314,-0.46765 -0.42918,-0.73075zM212.9759,167.90092c0.10376,0.31911 0.0703,0.62716 0.05625,0.93438c0.00688,0.08486 -0.04583,0.1553 -0.00015,0.23845c0.06923,0.13328 0.32407,0.39468 0.54989,0.53816c0.1221,-0.17567 0.14434,-0.38102 0.20685,-0.57113c0.04582,-0.15531 0.01541,-0.29023 -0.0926,-0.42179c-0.17446,-0.23085 -0.31015,-0.46342 -0.39037,-0.73246c-0.00136,-0.01698 -0.04295,-0.0492 -0.0637,-0.06533c-0.079,-0.01358 -0.1566,-0.01022 -0.26613,0.07975zM206.43105,169.31037c0.13569,0.23253 0.13966,0.52196 0.33217,0.735c0.13444,-0.02289 0.18579,-0.11029 0.25789,-0.18157c0.12481,-0.14173 0.27175,-0.25029 0.35364,-0.44124c-0.14116,-0.30045 -0.1299,-0.64161 -0.25306,-0.95986c-0.10112,-0.04668 -0.19815,-0.04248 -0.29241,-0.00427c-0.09301,0.29363 -0.22622,0.57198 -0.39825,0.852zM209.47079,168.37736c-0.02504,0.17143 -0.0501,0.34284 -0.13747,0.46587c-0.20945,0.29868 -0.16663,0.58641 0.012,0.86816c0.06644,0.09929 0.07471,0.20115 0.19938,0.29793c0.18028,-0.17822 0.30098,-0.37083 0.42161,-0.56347c0.03468,-0.05261 0.02915,-0.12051 0.00288,-0.20451c-0.09827,-0.25122 -0.17574,-0.4863 -0.27396,-0.7375c-0.0041,-0.05093 -0.04846,-0.11712 -0.22447,-0.12648zM208.24844,168.43064c-0.04733,0.37681 -0.13627,0.72131 -0.36647,1.0039c-0.05406,0.05346 -0.02916,0.1205 -0.02364,0.18839c0.03178,0.15191 0.08298,0.303 0.21176,0.45065c0.25239,-0.24947 0.40774,-0.49474 0.56171,-0.75693c0.05133,-0.0874 0.06388,-0.17309 0.0362,-0.27412c-0.05388,-0.18502 -0.08849,-0.37089 -0.14243,-0.5559c-0.00136,-0.01698 -0.04296,-0.04925 -0.06371,-0.06537c-0.0582,0.00253 -0.11644,0.00508 -0.21341,0.00933zM213.23285,164.58529c-0.09137,-0.16633 -0.1841,-0.34969 -0.27548,-0.51605c-0.02076,-0.01611 -0.04158,-0.03227 -0.08311,-0.0645c-0.20107,0.16204 -0.30097,0.37083 -0.36347,0.5609c0.17849,0.52027 0.3542,1.00655 0.40097,1.58366c0.24963,-0.28342 0.09176,-0.54907 0.1321,-0.77225c0.0362,-0.27412 0.11255,-0.53291 0.18891,-0.79174zM207.50973,163.64243c-0.21053,-0.19522 -0.38231,-0.39213 -0.66354,-0.49908c-0.06798,0.12218 -0.15811,0.21129 -0.20805,0.31569c-0.04992,0.10438 -0.1193,0.20958 -0.10964,0.32842c0.07061,0.15019 0.21468,0.24613 0.32132,0.36071c0.10667,0.11455 0.17587,0.24785 0.33794,0.32595c0.1138,-0.27752 0.20959,-0.53715 0.32203,-0.83164zM205.61904,166.73971c0.03632,-0.51257 0.06011,-0.93947 0.08394,-1.3663c-0.00275,-0.03394 0.01256,-0.08573 -0.02903,-0.11797c-0.15096,-0.18077 -0.26586,-0.39721 -0.52771,-0.50502c-0.05836,0.24101 -0.11808,0.46506 -0.15839,0.68827c0.28388,0.37941 0.45409,0.79778 0.63119,1.30106zM210.82663,169.97048c0.165,-0.12643 0.19004,-0.29786 0.25666,-0.43701c0.08465,-0.15697 0.11105,-0.31142 0.01829,-0.49474c-0.11763,-0.25036 -0.23529,-0.50075 -0.21853,-0.77404c-0.13861,-0.02802 -0.21481,-0.00767 -0.20655,0.09418c0.00124,0.25543 0.00384,0.52786 -0.09468,0.75358c-0.12909,0.32927 0.04677,0.57716 0.24482,0.85806zM208.87555,169.68077c-0.22885,0.29955 -0.42438,0.5295 -0.60052,0.7586c0.00963,0.1188 0.07334,0.18418 0.11764,0.25036c0.0637,0.06536 0.11076,0.16547 0.24932,0.19352c0.20246,-0.14511 0.38268,-0.32327 0.5422,-0.51756c-0.07609,-0.21809 -0.17022,-0.41841 -0.30862,-0.68491zM211.98913,170.3797c-0.19524,-0.24698 -0.3684,-0.46086 -0.54284,-0.69172c-0.11792,0.22657 -0.23724,0.4362 -0.35656,0.64578c0.15369,0.21474 0.26722,0.4142 0.51243,0.55675c0.16223,-0.16034 0.26489,-0.33518 0.38695,-0.51083zM208.39707,163.05866c-0.22458,0.11198 -0.26489,0.33519 -0.36756,0.50997c-0.03468,0.05261 -0.00842,0.13662 0.03454,0.18586c0.13016,0.16468 0.23956,0.3132 0.36833,0.46089c0.00137,0.01697 0.04021,0.01527 0.07901,0.0136c0.11659,-0.24354 0.21228,-0.50321 0.32888,-0.74677c-0.11075,-0.16549 -0.27699,-0.29451 -0.44324,-0.42353zM211.40841,163.45544c-0.09277,-0.18331 -0.18411,-0.34967 -0.40716,-0.4592c-0.14283,0.15955 -0.32449,0.32076 -0.405,0.52867c0.06783,0.11628 0.09687,0.23423 0.18274,0.33269c0.06643,0.09929 0.05804,0.23595 0.23681,0.27924c0.13733,-0.22741 0.27465,-0.45482 0.39263,-0.68143zM212.52542,170.27117c0.08999,0.14936 0.27151,0.22662 0.45437,0.32085c0.13875,-0.21043 0.32034,-0.37169 0.37872,-0.61267c-0.16625,-0.12904 -0.27837,-0.31147 -0.50281,-0.43798c-0.11659,0.24354 -0.21374,0.48624 -0.33029,0.72978zM214.15685,167.57695c0.00537,0.30637 0.08976,0.62632 0.05627,0.9344c-0.01816,0.25629 0.12869,0.38612 0.3725,0.51178c0.12065,-0.19261 0.14435,-0.38102 0.18603,-0.58723c-0.27424,-0.26054 -0.39743,-0.57884 -0.61483,-0.85892zM204.51324,166.54943c0.07624,-0.02035 0.07209,-0.07127 0.06798,-0.12218c0.00152,-0.2215 -0.01774,-0.45913 0.00318,-0.68148c0.05145,-0.32587 -0.15634,-0.48714 -0.42371,-0.66287c-0.02918,0.12053 -0.06108,0.20706 -0.0736,0.29277c-0.04166,0.20622 -0.04597,0.39374 0.14379,0.57288c0.10665,0.11456 0.15783,0.26566 0.20769,0.39975c-0.01391,0.06875 -0.04582,0.1553 0.07471,0.20115zM205.57158,169.75666c0.0915,-0.07211 0.14422,-0.14256 0.19829,-0.19601c0.18301,-0.14422 0.22885,-0.29957 0.17352,-0.50154c-0.05253,-0.16803 -0.04827,-0.35561 -0.08145,-0.52449c-0.00409,-0.05093 0.01115,-0.10268 -0.12606,-0.11374c-0.07779,0.24186 -0.1943,0.48542 -0.35105,0.71368c-0.03468,0.05261 -0.02778,0.13744 -0.0223,0.20535c0.04979,0.13407 0.09824,0.25124 0.20903,0.41671zM210.56443,170.33959c-0.09134,-0.16634 -0.1647,-0.35051 -0.31295,-0.49735c-0.17887,0.19518 -0.37992,0.35723 -0.49788,0.58379c0.13018,0.16466 0.20213,0.33185 0.42383,0.4244c0.14286,-0.15954 0.30649,-0.30292 0.38694,-0.51084zM209.72959,164.12478c0.17885,-0.19517 0.27878,-0.40393 0.33985,-0.61098c-0.13016,-0.16467 -0.23957,-0.31317 -0.42659,-0.45833c-0.14698,0.10861 -0.23297,0.24864 -0.2982,0.40477c0.1343,0.21557 0.24922,0.432 0.38487,0.66455zM208.90088,171.19563c0.12608,0.11376 0.19113,0.19606 0.29367,0.25971c0.06234,0.04838 0.12329,0.07979 0.18428,0.1112c0.18714,-0.09332 0.35214,-0.21975 0.45481,-0.39455c-0.11075,-0.16549 -0.22156,-0.33098 -0.42524,-0.44134c-0.16223,0.16034 -0.32723,0.2868 -0.50749,0.46498zM204.85175,168.32317c-0.19692,0.21301 -0.34112,0.35551 -0.502,0.53286c-0.01391,0.06874 0.0151,0.18669 0.08159,0.28601c0.04705,0.10013 0.0179,0.22064 0.14118,0.30045c0.17051,-0.05854 0.28003,-0.14848 0.36742,-0.27151c-0.04143,-0.27073 -0.06202,-0.52533 -0.08816,-0.84781zM207.07374,162.82677c0.10393,0.08064 0.20783,0.1613 0.31168,0.24195c0.10393,0.08065 0.20642,0.14428 0.3103,0.22493c0.12068,-0.19259 0.24552,-0.33433 0.26919,-0.52272c-0.06645,-0.09929 -0.18562,-0.12817 -0.28675,-0.17488c-0.10112,-0.04668 -0.20643,-0.14429 -0.34084,-0.1214c-0.1068,0.12392 -0.21632,0.21383 -0.26353,0.35217zM211.29572,171.19345c-0.16899,-0.16296 -0.28251,-0.36244 -0.52638,-0.48806c-0.1248,0.14172 -0.23021,0.28256 -0.35505,0.42428c0.16897,0.16296 0.29777,0.31068 0.53751,0.38536c0.12893,-0.09079 0.26066,-0.14762 0.34391,-0.32159zM205.7671,164.72337c0.09167,-0.31058 0.16667,-0.58638 0.24164,-0.86216c-0.08586,-0.09847 -0.15232,-0.19779 -0.29089,-0.22579c-0.19831,0.19603 -0.27604,0.43785 -0.37319,0.68055c0.08587,0.09848 0.17172,0.19694 0.2756,0.27757c0.02489,0.06707 0.06508,0.08231 0.1468,0.12986zM207.77057,170.46136c-0.13159,-0.18163 -0.14807,-0.38533 -0.31431,-0.51435c-0.19965,0.17905 -0.3813,0.34026 -0.52005,0.55074c0.14548,0.11291 0.15919,0.28263 0.36148,0.37601c0.18712,-0.09333 0.2912,-0.25118 0.47285,-0.41238zM212.25526,163.09491c-0.12756,0.10776 -0.23434,0.23165 -0.30094,0.37085c0.13295,0.19861 0.24645,0.39805 0.38213,0.63059c0.10126,-0.19175 0.20669,-0.33263 0.34817,-0.50912c-0.13295,-0.19861 -0.24508,-0.38109 -0.42936,-0.4923zM205.69888,170.12584c0.09548,0.21727 0.16885,0.40144 0.37387,0.52878c0.14833,-0.09164 0.27866,-0.16541 0.34527,-0.30461c-0.09412,-0.2003 -0.16884,-0.40139 -0.28512,-0.63482c-0.165,0.12643 -0.31058,0.25202 -0.43403,0.41069zM210.35382,163.1778c0.1193,-0.20959 0.3245,-0.32077 0.34816,-0.50917c-0.13016,-0.16467 -0.29366,-0.25973 -0.47518,-0.337c-0.14559,0.12559 -0.29257,0.23418 -0.33565,0.4234c0.14681,0.12986 0.27427,0.26056 0.46264,0.4227zM212.71359,170.91021c-0.14547,-0.1129 -0.25209,-0.22746 -0.43223,-0.28774c-0.12065,0.19261 -0.3245,0.32075 -0.38424,0.54479c0.12607,0.11376 0.248,0.17657 0.424,0.18593c0.14422,-0.14255 0.26767,-0.30121 0.39244,-0.44294zM204.84988,164.45672c-0.12742,-0.13072 -0.22992,-0.19435 -0.3699,-0.23942c-0.12481,0.14173 -0.22749,0.31652 -0.21094,0.52019c0.12468,0.09676 0.24932,0.19351 0.37538,0.30727c0.14012,-0.19348 0.14299,-0.39797 0.20545,-0.58809zM215.46866,168.86532c-0.12327,-0.0798 -0.22583,-0.14346 -0.3436,-0.15535c-0.10266,0.17477 -0.16647,0.34794 -0.19016,0.53632c0.10523,0.09762 0.20777,0.16128 0.34635,0.1893c0.1221,-0.17567 0.12495,-0.38017 0.18741,-0.57027zM209.7654,171.77112c0.1329,0.1986 0.28952,0.20881 0.46278,0.18424c0.1358,-0.00591 0.26889,-0.04578 0.31609,-0.18412c-0.12742,-0.13072 -0.25345,-0.24445 -0.43497,-0.32172c-0.12756,0.10776 -0.23571,0.21468 -0.34389,0.32159zM214.14611,164.5625c-0.07059,-0.15021 -0.0816,-0.28599 -0.22428,-0.36493c-0.36465,0.30547 -0.24154,0.62374 -0.01859,0.97168c0.08051,-0.2079 0.1624,-0.39887 0.24288,-0.60674zM207.92927,171.45944c0.16913,-0.07548 0.27866,-0.16544 0.3827,-0.32328c-0.14272,-0.07892 -0.1759,-0.24783 -0.33662,-0.30895c-0.11507,0.02203 -0.14834,0.09163 -0.22184,0.14592c-0.07208,0.07126 -0.16636,0.10945 -0.15674,0.22826c0.08587,0.09848 0.17175,0.19694 0.33247,0.25805zM209.58964,166.48148c0.22166,0.09253 0.33536,0.05353 0.34235,-0.10008c0.00154,-0.2215 -0.03576,-0.44132 -0.07169,-0.64414c-0.00548,-0.06787 -0.03182,-0.1519 -0.15097,-0.18078c-0.07225,0.30975 -0.10569,0.61778 -0.11973,0.925zM213.82229,170.89594c0.04705,0.10014 0.12881,0.14769 0.24661,0.1596c0.18166,-0.16123 0.40351,-0.30714 0.50067,-0.54985c-0.24109,-0.09169 -0.41301,-0.05015 -0.53505,0.1255c-0.07209,0.07128 -0.18443,0.12728 -0.21222,0.26474zM212.17585,166.19839c0.27161,-0.01183 0.32708,-0.04837 0.31471,-0.20107c-0.03867,-0.23678 -0.07869,-0.49053 -0.19498,-0.72393c-0.13045,0.31229 -0.24288,0.60676 -0.11974,0.92502zM215.20594,167.78667c-0.0084,0.13661 0.00126,0.25546 -0.00854,0.37509c-0.00018,0.23848 -0.00013,0.23847 0.356,0.30815c0.02918,-0.12053 0.07639,-0.25884 0.09026,-0.32756c-0.16623,-0.12906 -0.29227,-0.24275 -0.43773,-0.35565zM209.37486,161.90889c-0.10957,0.08994 -0.28141,0.13152 -0.2663,0.31822c0.12328,0.0798 0.26463,0.14177 0.40868,0.23767c0.12759,-0.10778 0.27594,-0.19936 0.32311,-0.3377c-0.14274,-0.07891 -0.26739,-0.17573 -0.46554,-0.21819zM214.13096,169.1792c-0.07909,0.22487 -0.17766,0.4506 -0.25677,0.67549c0.0457,0.08314 0.10935,0.14852 0.22301,0.10951c0.16223,-0.16034 0.28296,-0.35301 0.32325,-0.57619c-0.08586,-0.09847 -0.16898,-0.16295 -0.28955,-0.20879zM212.89411,163.28852c0.13444,-0.02289 0.22597,-0.095 0.29532,-0.20025c-0.04431,-0.06621 -0.0886,-0.1324 -0.13295,-0.1986c-0.06506,-0.08233 -0.11078,-0.1655 -0.22995,-0.19435c-0.11641,0.00508 -0.21066,0.04321 -0.28139,0.1315c0.10943,0.14854 0.23961,0.31318 0.34894,0.46171zM209.04426,163.11564c0.12759,-0.10778 0.19556,-0.22997 0.24276,-0.36828c-0.16345,-0.09508 -0.30757,-0.19097 -0.45023,-0.26992c-0.1511,0.05773 -0.22046,0.16292 -0.23161,0.26561c0.1468,0.12987 0.29367,0.25972 0.43909,0.37265zM213.71277,163.78085c-0.06645,-0.09929 -0.13291,-0.19859 -0.21879,-0.29709c-0.02076,-0.0161 -0.05959,-0.01443 -0.09981,-0.02971c-0.07348,0.05429 -0.18715,0.09332 -0.23435,0.23166c0.06925,0.13327 0.12182,0.30127 0.26862,0.43115c0.14831,-0.09163 0.21765,-0.19688 0.28428,-0.33604zM214.8596,165.1957c0.00426,-0.18755 0.21495,-0.23082 0.20119,-0.40052c-0.08861,-0.13237 -0.12036,-0.28431 -0.28662,-0.41332c-0.12893,0.09079 -0.23849,0.18075 -0.16787,0.33095c0.07058,0.15022 0.06357,0.3038 0.25331,0.48291zM214.8899,170.13402c0.06798,-0.12219 0.15535,-0.24525 0.22469,-0.35044c0.01803,-0.0178 -0.00411,-0.05094 -0.0069,-0.08486c-0.09977,-0.02971 -0.20365,-0.11037 -0.37415,-0.05179c-0.08596,0.14002 -0.17066,0.29699 -0.27467,0.45485c0.14132,0.06198 0.25912,0.07385 0.431,0.03233zM208.39067,162.2584c-0.12467,-0.09677 -0.25072,-0.2105 -0.3546,-0.29112c-0.1705,0.05853 -0.28006,0.14847 -0.37016,0.23758c0.02906,0.118 0.16622,0.129 0.24798,0.17656c0.08178,0.04753 0.16485,0.11204 0.29931,0.08915c0.07486,-0.03734 0.14836,-0.09165 0.17754,-0.21215zM206.27349,170.96949c0.10667,0.11455 0.19115,0.19609 0.27563,0.27755c0.02213,0.03311 0.08176,0.04757 0.10254,0.06367c0.1358,-0.00591 0.22734,-0.07802 0.29667,-0.18326c-0.10803,-0.13155 -0.19666,-0.26396 -0.34204,-0.37687c-0.11228,0.05601 -0.20379,0.12812 -0.33273,0.21891zM215.72834,167.74686c0.05976,-0.22405 0.11945,-0.44806 0.042,-0.68315c-0.17049,0.05853 -0.32439,0.08227 -0.41036,0.22227c0.12037,0.28432 0.12039,0.28433 0.36834,0.46088zM208.27833,171.68269c0.35602,0.30815 0.37536,0.30726 0.71089,0.12226c-0.12608,-0.11376 -0.27011,-0.20964 -0.39615,-0.32342c-0.13444,0.02289 -0.22595,0.09501 -0.31473,0.20106zM211.95618,162.76729c-0.10802,-0.13155 -0.21331,-0.22917 -0.37404,-0.29033c-0.03743,0.01867 -0.09291,0.05514 -0.14837,0.09164c-0.03606,0.03566 -0.07075,0.08827 -0.10678,0.12387c0.10803,0.13154 0.19805,0.28094 0.36013,0.35905c0.11226,-0.05599 0.20106,-0.16205 0.269,-0.28427zM205.04464,170.2225c0.05543,-0.0365 0.12893,-0.0908 0.14423,-0.14256c0.04309,-0.18926 -0.0095,-0.35724 -0.16046,-0.53806c-0.11093,0.07295 -0.26338,0.11367 -0.31334,0.21807c0.09134,0.16634 0.12592,0.3522 0.32957,0.46255zM205.36871,163.41213c-0.02075,-0.01612 -0.04155,-0.03225 -0.08311,-0.0645c-0.24124,0.14681 -0.42014,0.34196 -0.59899,0.53712c0.06783,0.11626 0.14957,0.16379 0.30615,0.17402c0.1193,-0.20959 0.25798,-0.42003 0.37596,-0.64663zM211.01483,165.5677c-0.09578,0.25968 -0.21229,0.5032 -0.16952,0.7909c0.00136,0.01698 0.08175,0.0475 0.12054,0.04583c0.09701,-0.00426 0.16912,-0.07552 0.1622,-0.16038c0.04033,-0.22319 -0.01638,-0.44216 -0.11323,-0.67637zM211.26771,162.2011c-0.10524,-0.09764 -0.21054,-0.19524 -0.35186,-0.25722c-0.13582,0.00591 -0.23008,0.04409 -0.31746,0.16711c0.1441,0.09592 0.28954,0.20882 0.43221,0.28776c0.11363,-0.03901 0.18712,-0.09333 0.2371,-0.1977zM211.24966,171.82567c0.27301,0.00513 0.50723,0.012 0.73042,-0.11698c-0.07059,-0.1502 -0.21189,-0.2122 -0.37126,-0.25636c-0.14696,0.1086 -0.27592,0.19938 -0.35917,0.37338zM203.8343,168.74225c0.16638,-0.10945 0.1844,-0.12724 0.18031,-0.17819c0.00566,-0.17055 -0.10375,-0.31912 -0.21177,-0.45064c-0.04292,-0.0492 -0.14134,-0.06195 -0.19128,0.04242c0.1288,0.14769 0.06906,0.37176 0.22281,0.58645zM206.15442,163.49714c0.13875,-0.21043 0.29821,-0.40477 0.29418,-0.69416c-0.26197,0.13064 -0.38132,0.34028 -0.50335,0.51591c0.02626,0.08402 0.08723,0.1154 0.20917,0.17821zM207.20449,171.40585c-0.09287,0.05515 -0.18715,0.09333 -0.28002,0.14848c0.10941,0.14856 0.23546,0.26227 0.44475,0.20204c0.05684,-0.01951 0.11364,-0.03902 0.12756,-0.10776c-0.04705,-0.10013 -0.14959,-0.16381 -0.29227,-0.24275zM213.46212,165.97202c0.17463,-0.00764 0.24948,-0.04492 0.21907,-0.17985c-0.02904,-0.11799 -0.05808,-0.23595 -0.10653,-0.35308c-0.02355,-0.05004 -0.06645,-0.09932 -0.14269,-0.07896c-0.04169,0.20622 -0.02655,0.39293 0.03014,0.61189zM206.06152,165.95394c-0.05975,0.22406 -0.08063,0.4464 -0.00454,0.6645c0.00137,0.01699 0.08175,0.04751 0.10112,0.04668c0.03879,-0.00168 0.07348,-0.05429 0.07073,-0.08826c-0.03727,-0.21981 -0.01498,-0.42521 -0.16735,-0.62298zM205.17707,166.57161c-0.07195,-0.16718 -0.08711,-0.35393 -0.21862,-0.53556c-0.0791,0.22487 -0.10278,0.41328 -0.03632,0.51258c0.04705,0.10013 0.12466,0.09678 0.25496,0.02296zM213.11514,171.53995c0.22869,-0.06109 0.50036,-0.07293 0.61966,-0.28253c-0.36023,-0.12054 -0.47953,0.08905 -0.61966,0.28253zM212.59303,168.4627c0.03878,-0.00169 0.05689,-0.01953 0.09566,-0.02121c-0.03318,-0.16886 0.03205,-0.32503 -0.07737,-0.47355c-0.11778,-0.01193 -0.17462,0.00762 -0.22595,0.09501c0.06783,0.11626 0.13704,0.24952 0.20768,0.39976zM208.5312,165.91438c-0.03894,0.24016 -0.0626,0.42857 -0.02671,0.6314c0.00275,0.03394 0.04429,0.0662 0.1025,0.06366c0.01943,-0.00085 0.05683,-0.01949 0.07487,-0.03733c0.05976,-0.22405 0.04322,-0.42771 -0.15068,-0.65772zM205.391,170.41179c-0.11365,0.03902 -0.1691,0.07549 -0.12617,0.12473c0.06783,0.11626 0.15509,0.2317 0.24232,0.34715c0.0637,0.06536 0.12191,0.06282 0.17462,-0.00762c-0.07331,-0.18418 -0.14395,-0.3344 -0.29075,-0.46425zM210.21051,161.8895c0.07348,-0.05429 0.14836,-0.09165 0.22184,-0.14593c0.01804,-0.0178 0.01525,-0.05177 0.03056,-0.10353c-0.2328,0.01011 -0.45035,-0.03147 -0.6971,0.04741c0.1441,0.09592 0.2466,0.15958 0.44474,0.20203zM207.54987,168.46106c0.03315,0.16888 0.06495,0.32082 0.10086,0.52366c0.18027,-0.17823 0.22611,-0.33348 0.19292,-0.50236c-0.10113,-0.04668 -0.16073,-0.06114 -0.29383,-0.02129zM213.60788,167.77116c0.08725,0.11545 0.06356,0.3038 0.28524,0.39636c0.02516,-0.4099 0.0183,-0.49474 -0.08148,-0.52448c-0.09701,0.00426 -0.15249,0.0407 -0.2038,0.12812zM207.36978,165.99912c-0.21222,0.26474 -0.19566,0.46841 -0.09743,0.71965c0.25512,-0.21553 0.08063,-0.44637 0.09743,-0.71965zM214.40365,165.09631c-0.19417,0.24692 -0.17904,0.43366 -0.12372,0.63564c0.00137,0.01697 0.04155,0.03224 0.08035,0.03055c0.05821,-0.00252 0.09427,-0.03819 0.0915,-0.07212c0.00567,-0.17056 -0.0275,-0.33944 -0.04815,-0.59404zM214.51868,167.47599c0.07059,0.15021 0.10376,0.31911 0.30738,0.42942c0.04445,-0.17228 0.01265,-0.32419 -0.01773,-0.45912c-0.12054,-0.04585 -0.19675,-0.02548 -0.28966,0.02967zM214.59688,164.11699c-0.14823,-0.14685 -0.16335,-0.33355 -0.3629,-0.39299c-0.03894,0.24016 -0.03894,0.24016 0.19373,0.46848c0.03743,-0.01867 0.07486,-0.03734 0.16912,-0.07551zM213.30138,170.71421c0.2675,-0.06278 0.39095,-0.22145 0.49361,-0.39625c-0.06645,-0.09929 -0.1441,-0.09592 -0.19815,-0.04248c-0.08597,0.14002 -0.19141,0.2809 -0.29542,0.43872zM212.22932,162.53391c0.11507,-0.02204 0.21069,-0.04324 0.26062,-0.1476c-0.08448,-0.08148 -0.16898,-0.163 -0.28673,-0.17486c-0.09563,0.02118 -0.15109,0.0577 -0.18442,0.12728c0.0457,0.08315 0.10803,0.13155 0.21055,0.19521zM210.25641,168.70081c0.0472,-0.1383 0.07778,-0.24189 0.0307,-0.34201c-0.02213,-0.03311 -0.06233,-0.04839 -0.10253,-0.06367c-0.05821,0.00252 -0.13309,0.03985 -0.10957,0.08991c0.00825,0.10186 0.01788,0.22067 0.1814,0.31576zM208.87461,161.74332c-0.17877,-0.04331 -0.32711,0.04834 -0.47956,0.08906c0.25072,0.21052 0.28953,0.2088 0.47956,-0.08906zM204.08915,166.60197c0.05697,-0.25798 0.05697,-0.25797 -0.12592,-0.35222c-0.03056,0.10353 -0.05971,0.22405 0.12592,0.35222zM211.40275,168.19092c-0.08178,-0.04753 -0.13995,-0.045 -0.15659,-0.01022c-0.08597,0.14002 -0.06247,0.1901 0.12455,0.33524c0.04859,-0.12132 0.04035,-0.22321 0.03209,-0.32505zM215.22954,165.1966c-0.09012,0.08913 -0.16084,0.17737 -0.11244,0.29445c0.30629,-0.06448 0.32294,-0.0992 0.11244,-0.29445zM203.63357,166.0257c-0.1068,0.12392 -0.11521,0.26052 -0.12495,0.38015c0.00549,0.06787 0.06784,0.11629 0.17877,0.04332c0.00975,-0.11964 0.01817,-0.25629 -0.05379,-0.42348zM213.82268,163.21391c-0.02504,0.17143 0.04002,0.25377 0.19802,0.28095c0,0 0.03744,-0.01868 0.03604,-0.03565c0.01114,-0.1027 -0.11074,-0.16551 -0.23408,-0.24533zM208.94537,168.62169c0.11365,-0.03902 0.14698,-0.10861 0.12207,-0.17564c-0.00275,-0.03394 -0.04431,-0.06619 -0.08447,-0.08149c-0.04018,-0.01528 -0.09562,0.02118 -0.09286,0.05514c-0.01527,0.05177 -0.00977,0.11964 0.0553,0.20199zM211.48138,161.95335c0.08725,0.11545 0.16897,0.16299 0.3187,0.08829c-0.10803,-0.13154 -0.18838,-0.16214 -0.3187,-0.08829z" fill="url(#color-10)"/><path d="M209.19691,174.60636c0.62225,-0.01009 1.24456,-0.02015 1.86546,-0.04723c0.69852,-0.03044 1.39149,-0.12879 2.05821,-0.31114c0.2093,-0.06022 0.37702,-0.15267 0.60435,-0.23072c0.02202,0.2716 0.06071,0.50832 0.06055,0.7468c0.03796,1.42914 0.17429,2.87101 0.25245,4.31542c0.06573,1.29166 0.14957,2.56549 0.23473,3.85631c0.05215,0.88347 0.10288,1.74995 0.15502,2.63339c0.04802,0.83255 0.13348,1.64638 0.18151,2.47892c0.00549,0.06789 0.01099,0.1358 -0.0029,0.20453c-0.25649,0.19857 -0.54068,0.29608 -0.86499,0.37838c-0.51564,0.12468 -1.0534,0.21624 -1.59804,0.22295c-0.17463,0.00764 -0.34787,0.03221 -0.50996,-0.04591c0.17189,-0.04157 0.37,0.00089 0.57657,-0.09327c-0.15779,-0.26563 -0.123,-0.55673 -0.16442,-0.82748c-0.00137,-0.01697 -0.00274,-0.03393 -0.02213,-0.0331c-0.19235,-0.4515 -0.23223,-0.94374 -0.36779,-1.41478c-0.05256,-0.16802 -0.16335,-0.33355 -0.13832,-0.50495c0.01131,-0.34116 -0.18949,-0.65604 -0.1782,-0.99723c-0.00137,-0.01697 -0.02355,-0.05007 -0.02628,-0.08402c-0.08435,-0.31992 -0.1867,-0.62209 -0.23226,-0.94372c-0.03028,-0.37341 -0.21302,-0.70614 -0.20449,-1.08122c-0.1343,-0.21557 -0.11335,-0.43792 -0.15201,-0.6747c-0.00275,-0.03394 -0.00414,-0.05094 -0.00688,-0.08486c-0.18274,-0.33271 -0.13404,-0.69252 -0.23916,-1.02862c-0.10512,-0.33608 -0.09522,-0.6942 -0.18095,-1.03114c-0.08984,-0.38787 -0.23655,-0.75615 -0.21134,-1.16608c-0.00275,-0.03394 -0.00687,-0.08488 -0.02902,-0.11798c-0.13159,-0.18163 -0.08985,-0.38785 -0.12575,-0.59067c-0.00825,-0.10186 0.00152,-0.22147 -0.04554,-0.32164c-0.08996,-0.14938 -0.08159,-0.28601 -0.09398,-0.43878c-0.00688,-0.08488 0.00565,-0.17061 -0.03868,-0.23676c-0.1343,-0.21557 -0.11477,-0.45488 -0.13265,-0.67553c-0.00688,-0.08488 0.00563,-0.17056 -0.03866,-0.23678c-0.1121,-0.18247 -0.10789,-0.37003 -0.123,-0.55674c-0.02477,-0.30555 -0.18534,-0.60511 -0.1907,-0.91147c0.01525,-0.05177 -0.04703,-0.10015 -0.07061,-0.15022z" fill="#87d7dc"/><path d="M209.19691,174.60639c0.02352,0.05007 0.08589,0.09845 0.09001,0.14939c0.00538,0.30637 0.14654,0.6068 0.19072,0.91147c0.01512,0.18671 0.01086,0.37428 0.12299,0.55673c0.04431,0.06621 0.03179,0.15193 0.0387,0.23676c0.01791,0.22064 0.01771,0.45911 0.1326,0.67555c0.04432,0.0662 0.01239,0.15278 0.03868,0.23677c0.01238,0.15274 0.02339,0.28856 0.09398,0.43878c0.04705,0.10013 0.03727,0.21983 0.04554,0.32167c0.03593,0.20282 -0.00576,0.40905 0.12578,0.59067c0.02213,0.03311 0.02628,0.08402 0.02904,0.11797c-0.02656,0.39293 0.12151,0.77825 0.21137,1.16608c0.0871,0.35394 0.07718,0.71202 0.18091,1.03115c0.10513,0.33606 0.05642,0.6959 0.23916,1.0286c0.02076,0.01613 0.00411,0.05093 0.00687,0.08489c0.01791,0.22064 0.01776,0.45911 0.15207,0.67471c-0.02795,0.37595 0.15482,0.70865 0.20446,1.08122c0.02613,0.32249 0.14793,0.62377 0.23225,0.94373c0.00275,0.03394 0.02357,0.05009 0.02629,0.08403c-0.01131,0.34116 0.18949,0.65602 0.1782,0.99722c-0.00425,0.18754 0.10511,0.3361 0.13831,0.50495c0.11614,0.47186 0.17545,0.96326 0.36778,1.41477c0.00137,0.01697 0.02218,0.03311 0.02218,0.03311c0.04144,0.27074 0.0066,0.56185 0.16443,0.82748c-0.18714,0.09332 -0.38669,0.03387 -0.57658,0.09324c-0.1552,0.00677 -0.31043,0.01349 -0.45454,-0.08243c-0.00825,-0.10186 0.00152,-0.22147 -0.04556,-0.32161c-0.1647,-0.3505 -0.17417,-0.70781 -0.24188,-1.06258c-0.0677,-0.35471 -0.23242,-0.70525 -0.20448,-1.08119c-0.1343,-0.21557 -0.1134,-0.43793 -0.15206,-0.6747c-0.00275,-0.03394 -0.00688,-0.08486 -0.02904,-0.11798c-0.1094,-0.14855 -0.08433,-0.31993 -0.11613,-0.47189c-0.00688,-0.08488 -0.01379,-0.16973 -0.03867,-0.23677c-0.1273,-0.36919 -0.23657,-0.75616 -0.2682,-1.14657c-0.00409,-0.05093 0.0098,-0.11967 -0.03179,-0.1519c-0.11073,-0.16548 -0.10514,-0.33607 -0.11891,-0.50581c0.00425,-0.18754 -0.14533,-0.35137 -0.14241,-0.55589c-0.00261,-0.27242 -0.12027,-0.52279 -0.18109,-0.79266c-0.06909,-0.37174 -0.21438,-0.72307 -0.24601,-1.11346c-0.00549,-0.06789 0.00703,-0.15362 -0.03593,-0.20284c-0.08859,-0.13242 -0.08162,-0.286 -0.11338,-0.43791c-0.011,-0.13578 -0.04141,-0.27071 -0.08983,-0.38788c-0.09548,-0.21727 -0.1522,-0.43622 -0.17148,-0.67386c-0.0483,-0.35557 -0.21303,-0.70612 -0.1851,-1.08204c-0.00275,-0.03394 -0.02624,-0.08402 -0.02902,-0.11799c-0.0871,-0.35394 -0.19364,-0.70695 -0.24187,-1.06253c-0.03028,-0.37341 -0.21576,-0.74007 -0.20722,-1.11518c-0.00409,-0.05093 -0.04707,-0.10014 -0.0706,-0.15021c-0.05669,-0.21896 -0.09535,-0.45574 -0.05503,-0.67891c0.09565,-0.02118 0.17323,-0.0246 0.24948,-0.04492c0.27579,0.03908 0.51134,0.06288 0.76498,0.06886z" fill="#b0eef2"/><path d="M215.81689,165.71607c0.08434,0.31992 0.12436,0.57371 0.0674,0.83169c-0.14424,0.14255 -0.3535,0.20281 -0.5614,0.27998c-1.04375,0.33507 -2.0889,0.65315 -3.18387,0.83716c-0.82609,0.1382 -1.67158,0.27727 -2.52391,0.33147c-0.23281,0.01014 -0.48645,0.00419 -0.71517,0.06522c-0.09565,0.02118 -0.21208,0.02626 -0.32846,0.03135c-0.47119,-0.0476 -0.93409,0.00664 -1.40115,0.00998c-0.66108,0.01181 -1.32767,-0.04431 -1.99699,-0.13438c-0.33534,-0.05352 -0.66933,-0.09006 -1.02272,-0.12572c-0.27437,-0.02213 -0.51547,-0.11379 -0.75519,-0.18852c-0.16057,-0.29962 -0.18962,-0.41755 -0.18382,-0.82661c0.42821,-0.00165 0.84394,0.08244 1.2749,0.11477c0.41158,0.03317 0.84255,0.06547 1.25279,0.08167c0.42959,0.01536 0.87727,0.01287 1.30547,0.01123c0.41018,0.0162 0.83155,-0.07035 1.24594,-0.00323c0.42,-0.10347 0.85097,-0.07114 1.27648,-0.10672c0.40609,-0.03473 0.83018,-0.08731 1.23492,-0.13899c0.42413,-0.05256 0.84683,-0.12209 1.28901,-0.19243c0.40334,-0.06867 0.82744,-0.12123 1.22942,-0.20691c0.42134,-0.08651 0.82057,-0.2061 1.24056,-0.30957c0.43939,-0.10433 0.84134,-0.18997 1.25583,-0.36135z" fill="url(#color-11)"/><path d="M208.45266,174.55369c-0.07623,0.02034 -0.15386,0.02374 -0.24947,0.04494c-0.0403,0.2232 -0.02243,0.44381 0.05503,0.67891c0.02351,0.05008 0.06645,0.09931 0.07059,0.15021c-0.00855,0.37509 0.15756,0.74262 0.20722,1.11518c0.0289,0.35644 0.1548,0.70865 0.24185,1.06255c0.00275,0.03394 0.02629,0.08403 0.02905,0.11796c-0.02796,0.37595 0.15477,0.70863 0.18506,1.08205c0.01791,0.22064 0.07597,0.4566 0.17149,0.67386c0.04979,0.13406 0.08024,0.26901 0.08985,0.38785c0.01238,0.15274 0.004,0.28938 0.11339,0.43793c0.04291,0.04921 0.03039,0.13495 0.0359,0.20285c0.03028,0.37341 0.17699,0.74173 0.24603,1.11345c0.06079,0.26988 0.17849,0.52025 0.18108,0.79266c-0.00425,0.18754 0.14532,0.35136 0.14241,0.55589c-0.00565,0.17058 -0.00991,0.35811 0.11888,0.50582c0.02351,0.05008 0.02766,0.10099 0.03181,0.15189c0.03163,0.39036 0.13947,0.76039 0.2682,1.14657c0.02626,0.08402 0.01379,0.16971 0.03865,0.23675c0.01238,0.15274 0.00679,0.32333 0.11616,0.47186c0.02213,0.03311 0.02629,0.08402 0.02903,0.11796c0.01791,0.22064 0.01774,0.45913 0.15205,0.67471c-0.02794,0.37595 0.13677,0.72648 0.20449,1.08118c0.0677,0.35471 0.07857,0.72898 0.24188,1.06253c0.04705,0.10014 0.03726,0.21981 0.04556,0.32165c-0.17326,0.02458 -0.29791,-0.07217 -0.43513,-0.08321c-0.1548,-0.70864 -0.32626,-1.38252 -0.47829,-2.0572c-0.17694,-0.74176 -0.33314,-1.46737 -0.49071,-2.20994c-0.15343,-0.69169 -0.32628,-1.38249 -0.49909,-2.07334c-0.20598,-0.85972 -0.43001,-1.70162 -0.63464,-2.54435c-0.1493,-0.64078 -0.29856,-1.28153 -0.4673,-1.92141c-0.23642,-0.99466 -0.39659,-2.00969 -0.67181,-3.00264c-0.03041,-0.13493 -0.09964,-0.26818 -0.0538,-0.42347c0.17463,-0.00764 0.35337,0.0357 0.53077,0.06204c0.09978,0.0297 0.27162,-0.01186 0.43376,0.06625z" fill="#87d7dc"/><path d="M212.05579,189.21551c0.40471,-0.05171 0.79553,-0.03469 1.19885,-0.10338c0.46017,-0.08818 0.91896,-0.19337 1.36948,-0.40034c0.07981,0.98445 0.15823,1.95192 0.2353,2.90242c-0.19828,0.19603 -0.44505,0.27489 -0.671,0.36992c-0.43388,0.17221 -0.87739,0.22561 -1.34032,0.27986c-0.01943,0.00085 -0.05956,-0.01443 -0.08038,-0.03055c0.16637,-0.10944 0.09716,-0.24268 0.04732,-0.37679c-0.12455,-0.33525 -0.22968,-0.6713 -0.23778,-1.01163c-0.00549,-0.06789 -0.01101,-0.13578 -0.03593,-0.20281c-0.14257,-0.31744 -0.15067,-0.65772 -0.23503,-0.9777c-0.05388,-0.18502 -0.10379,-0.31905 -0.25059,-0.44894z" fill="#61afb4"/><path d="M207.97864,172.30894c0.68735,0.07224 1.36505,0.02566 2.04827,0.04697c0.3118,0.00345 0.61953,-0.04405 0.92724,-0.09151c0.57936,-0.05931 1.18355,-0.05159 1.75738,-0.17883c0.2301,-0.04409 0.46016,-0.08817 0.66948,-0.1484c0.13309,-0.03987 0.26749,-0.06278 0.40335,-0.06868c0.02355,0.05004 0.04568,0.08317 0.04842,0.11714c0.01098,0.13578 0.02204,0.27156 0.03306,0.40735c-0.09287,0.05516 -0.16777,0.09246 -0.262,0.13065c-0.68195,0.23413 -1.3834,0.46911 -2.14014,0.50211c-0.65834,0.04575 -1.33601,0.09231 -1.99988,0.07017c-0.52666,-0.0111 -1.05191,-0.00525 -1.57013,-0.15297c0.09424,-0.0382 0.2148,0.00766 0.28414,-0.09756c0.02367,-0.1884 0.064,-0.41158 -0.19925,-0.53637z" fill="url(#color-12)"/><path d="M208.53646,173.42582c0.32711,-0.04831 0.64579,0.04001 0.97701,0.04259c0.69991,-0.01348 1.39978,-0.02693 2.09553,-0.09135c0.55992,-0.05846 1.09496,-0.18402 1.60783,-0.34262c0.13309,-0.03987 0.26612,-0.07974 0.39919,-0.1196c0.01927,0.23762 0.03582,0.44132 0.05367,0.66196c-0.21633,0.21383 -0.50053,0.31135 -0.80682,0.37585c-0.36315,0.08399 -0.74568,0.16876 -1.13236,0.20265c-0.86763,0.10593 -1.72412,0.1092 -2.59864,0.13031c-0.15521,0.00677 -0.31046,0.01354 -0.45315,-0.06541c-0.00688,-0.08488 0.00561,-0.17057 -0.03868,-0.23676c-0.09136,-0.16635 -0.08849,-0.37091 -0.10363,-0.55756z" fill="url(#color-13)"/><path d="M212.05578,189.21551c0.12608,0.11376 0.19524,0.24699 0.22843,0.41587c0.08434,0.31993 0.09245,0.66028 0.23503,0.97767c0.02491,0.06707 0.03043,0.13498 0.03592,0.20286c0.02893,0.35645 0.13264,0.67553 0.23777,1.01161c0.04843,0.11713 0.11906,0.26735 -0.04733,0.37681c-0.28968,0.02965 -0.56405,0.00757 -0.82317,-0.0663c-0.07749,-0.23512 -0.17433,-0.46935 -0.15482,-0.70865c-0.00275,-0.03394 -0.02626,-0.08402 -0.02903,-0.11797c-0.08572,-0.33691 -0.17284,-0.69083 -0.23917,-1.02861c-0.03179,-0.1519 -0.04277,-0.2877 -0.09396,-0.43878c-0.0733,-0.18416 -0.10926,-0.38702 -0.02737,-0.57797c0.09563,-0.02118 0.17324,-0.02458 0.24947,-0.04491c0.1358,-0.00591 0.29244,0.00428 0.42821,-0.00165z" fill="#87d7dc"/><path d="M207.81447,164.03795c0.25212,0.22747 0.37113,0.49476 0.47076,0.76302c0.02491,0.06705 0.03316,0.1689 0.01926,0.23763c-0.1153,0.49899 -0.15304,0.9946 -0.17134,1.48935c0.00137,0.01697 -0.01527,0.05175 -0.0333,0.06961c-0.07348,0.05429 -0.1705,0.05856 -0.27164,0.01186c-0.00275,-0.03394 -0.02494,-0.06707 -0.02766,-0.10101c-0.01358,-0.40817 -0.08542,-0.81388 -0.25289,-1.19833c-0.07471,-0.20114 -0.08985,-0.38787 -0.00935,-0.59577c0.09853,-0.22571 0.13884,-0.44891 0.27619,-0.67636z" fill="#cce5e6"/><path d="M206.85802,166.65163c-0.11228,0.05601 -0.19125,0.04241 -0.25361,-0.00596c-0.10483,-0.81304 -0.10486,-0.81302 -0.47309,-1.51235c0.01542,-0.29026 0.12784,-0.5847 0.20287,-0.86049c0.13309,-0.03987 0.16071,0.06112 0.20364,0.11036c0.15096,0.18077 0.30053,0.34461 0.41405,0.54406c0.06923,0.13328 0.09822,0.25124 0.07045,0.38867c-0.08202,0.42942 -0.14325,0.87494 -0.16433,1.33574z" fill="#cce5e6"/><path d="M211.60816,189.21799c-0.07624,0.02035 -0.15387,0.02374 -0.24947,0.04492c-0.08189,0.19093 -0.04598,0.39375 0.02738,0.57796c0.05121,0.15108 0.06221,0.28685 0.09396,0.43879c0.06633,0.33778 0.15342,0.69166 0.23916,1.0286c0.00275,0.03394 0.0263,0.08403 0.02903,0.11799c0.00124,0.25543 0.0967,0.4727 0.15477,0.70863c-0.15797,-0.02715 -0.29656,-0.05523 -0.46004,-0.15031c-0.09672,-0.47271 -0.23366,-0.96073 -0.31238,-1.45126c-0.09672,-0.47271 -0.27107,-0.94204 -0.31237,-1.45124c0.3118,0.00344 0.55014,0.06118 0.78986,0.13586z" fill="#60adb2"/><path d="M211.76729,168.12393c0.07623,-0.02034 0.1331,-0.03986 0.20931,-0.06022c0.04158,0.03225 0.06232,0.04839 0.08308,0.0645c0.10101,0.28516 0.25887,0.55082 0.43605,0.8156c0.06784,0.11627 0.09551,0.21729 0.04693,0.33863c-0.07776,0.24186 -0.1153,0.49898 -0.35105,0.71366c-0.2507,-0.21051 -0.40856,-0.47615 -0.54696,-0.74266c-0.02355,-0.05004 -0.01098,-0.13578 0.00289,-0.20451c0.0334,-0.30803 0.06688,-0.61615 0.11974,-0.92505z" fill="#cce5e6"/><path d="M211.69085,163.81784c0.09137,0.16633 0.15783,0.26566 0.22567,0.38195c0.1149,0.21643 0.15082,0.41925 0.05367,0.66197c-0.14162,0.41495 -0.22359,0.8444 -0.18921,1.2687c0.01099,0.13578 -0.00703,0.15358 -0.24124,0.14681c-0.00412,-0.05094 -0.02767,-0.10098 -0.03178,-0.15193c-0.015,-0.42518 -0.10622,-0.82998 -0.25567,-1.23228c-0.02763,-0.10101 -0.05393,-0.18502 -0.02205,-0.2716c0.13457,-0.26139 0.23038,-0.52102 0.46063,-0.80358z" fill="#cae2e3"/><path d="M209.14891,166.56883c-0.02075,-0.01612 -0.04297,-0.04926 -0.04431,-0.06622c0.00716,-0.39205 -0.10072,-0.76209 -0.22662,-1.11433c-0.10513,-0.33606 -0.13127,-0.65859 0.03663,-0.98951c0.08465,-0.15697 0.08886,-0.34454 0.21372,-0.48624c0.33935,0.34289 0.44996,0.74688 0.34441,1.12621c-0.11808,0.46505 -0.25692,0.91394 -0.19762,1.40536c-0.01525,0.05177 -0.0098,0.11965 -0.12619,0.12475z" fill="#c9e1e2"/><path d="M210.33408,163.89402c0.21604,0.26312 0.31292,0.49734 0.41114,0.74856c0.02626,0.08402 0.03315,0.16887 -0.00015,0.23848c-0.13611,0.48287 -0.23201,0.98099 -0.28915,1.47743c0.00275,0.03394 -0.0125,0.0857 -0.11091,0.07295c-0.00963,-0.1188 -0.02063,-0.25457 -0.04966,-0.37255c-0.0469,-0.33861 -0.11325,-0.67639 -0.25584,-0.99381c-0.09691,-0.23424 -0.09534,-0.45573 0.02397,-0.66533c0.08465,-0.15697 0.17062,-0.29702 0.27053,-0.50578z" fill="#c9e1e2"/><path d="M212.9759,167.90092c0.10957,-0.08994 0.20658,-0.09416 0.30357,-0.09839c0.02076,0.0161 0.04296,0.04923 0.06369,0.06536c0.06082,0.26989 0.19788,0.51941 0.39041,0.73242c0.10802,0.13155 0.13842,0.26651 0.09259,0.42181c-0.06245,0.19008 -0.10414,0.39631 -0.2068,0.57114c-0.2258,-0.14345 -0.5001,-0.40405 -0.54989,-0.53815c-0.0457,-0.08315 -0.0124,-0.15275 0.00016,-0.23848c-0.04278,-0.28768 0.01004,-0.59662 -0.09368,-0.91569z" fill="#cae3e4"/><path d="M206.43106,169.31041c0.17199,-0.28001 0.28585,-0.5575 0.37886,-0.85114c0.11363,-0.03901 0.1913,-0.04241 0.29243,0.00427c0.12178,0.30125 0.11184,0.65941 0.25303,0.95985c-0.0819,0.19091 -0.22885,0.29955 -0.35363,0.44127c-0.07208,0.07126 -0.12341,0.15866 -0.25788,0.18157c-0.17311,-0.2139 -0.17571,-0.48629 -0.31277,-0.73583z" fill="#c8e0e1"/><path d="M209.47079,168.37736c0.17598,0.00935 0.2009,0.07642 0.22581,0.14344c0.09827,0.25124 0.19511,0.48544 0.27398,0.73751c0.02492,0.06706 0.03041,0.13495 -0.00287,0.20453c-0.12068,0.19259 -0.26078,0.38608 -0.42162,0.56345c-0.10523,-0.09762 -0.13293,-0.19863 -0.19939,-0.29792c-0.19937,-0.2979 -0.24219,-0.5856 -0.01199,-0.86817c0.10542,-0.14087 0.13047,-0.31229 0.13609,-0.48287z" fill="#cbe4e5"/><path d="M208.24844,168.43064c0.09701,-0.00426 0.15521,-0.00679 0.21341,-0.00934c0.02213,0.03311 0.06233,0.0484 0.0637,0.06536c0.05388,0.18502 0.0885,0.37089 0.14243,0.5559c0.02764,0.10102 0.01511,0.18673 -0.03622,0.27412c-0.15397,0.26221 -0.32877,0.50829 -0.56173,0.75693c-0.14823,-0.14683 -0.17998,-0.29874 -0.21178,-0.45064c-0.00548,-0.06787 -0.01098,-0.1358 0.02365,-0.18838c0.23022,-0.28256 0.31912,-0.62712 0.36648,-1.00392z" fill="#c8e0e1"/><path d="M208.53646,173.42582c0.01512,0.18671 0.01223,0.39126 0.12442,0.57373c0.04432,0.0662 0.03175,0.15188 0.03867,0.23676c-0.32847,0.03134 -0.64304,-0.00604 -0.94372,-0.11219c0.01956,-0.23932 -0.07732,-0.47353 -0.13264,-0.67551c0.12893,-0.09079 0.26889,-0.04578 0.38253,-0.08481c0.17326,-0.02458 0.36867,-0.01606 0.53076,0.06202z" fill="#85d5d9"/><path d="M213.23285,164.58529c-0.07638,0.25883 -0.15272,0.51766 -0.20835,0.79262c-0.03895,0.24016 0.13829,0.50496 -0.13215,0.77224c-0.04679,-0.57707 -0.22389,-1.08036 -0.40097,-1.58365c0.0819,-0.19091 0.18177,-0.39969 0.36345,-0.5609c0.04158,0.03225 0.06235,0.04839 0.08309,0.06449c0.11076,0.16549 0.20217,0.33186 0.29489,0.51513z" fill="#c6dede"/><path d="M207.50973,163.64243c-0.11245,0.2945 -0.20818,0.55411 -0.32062,0.84861c-0.16345,-0.09508 -0.2327,-0.22834 -0.33797,-0.32593c-0.10667,-0.11455 -0.25072,-0.21053 -0.32129,-0.36073c-0.00963,-0.1188 0.05971,-0.22403 0.10965,-0.32841c0.04994,-0.10436 0.11933,-0.20958 0.20807,-0.31568c0.2799,0.08999 0.45161,0.28693 0.66218,0.48216z" fill="#cae3e3"/><path d="M205.61904,166.73971c-0.17712,-0.50328 -0.34733,-0.92169 -0.63259,-1.31802c0.05975,-0.22406 0.10006,-0.44722 0.15842,-0.68823c0.26326,0.12478 0.37679,0.32424 0.5277,0.505c0.02213,0.03311 0.02628,0.08404 0.02901,0.11796c-0.0238,0.42685 -0.0476,0.85375 -0.08255,1.38327z" fill="#cae3e4"/><path d="M210.82662,169.97046c-0.21604,-0.26312 -0.39191,-0.51095 -0.2448,-0.85801c0.09717,-0.24272 0.09592,-0.49816 0.09469,-0.7536c-0.00825,-0.10185 0.08735,-0.12305 0.20656,-0.09418c-0.01676,0.27325 0.10086,0.52366 0.21854,0.77402c0.09276,0.18331 0.06635,0.33775 -0.01829,0.49477c-0.0666,0.13916 -0.09305,0.29362 -0.25669,0.43704z" fill="#c8e0e1"/><path d="M207.97863,172.30892c0.26463,0.14177 0.22289,0.34796 0.22,0.5525c-0.06934,0.1052 -0.18849,0.07636 -0.28411,0.09756c-0.25359,-0.00597 -0.49194,-0.06374 -0.73307,-0.15543c0.00425,-0.18754 -0.08845,-0.37086 -0.00523,-0.54483c0.09565,-0.02118 0.15387,-0.02374 0.23146,-0.02712c0.1968,0.02548 0.39356,0.05094 0.57095,0.07731z" fill="url(#color-14)"/><path d="M208.87555,169.68076c0.13705,0.24953 0.23256,0.46678 0.34747,0.68321c-0.1595,0.19431 -0.33973,0.37251 -0.54221,0.51758c-0.1386,-0.02802 -0.18562,-0.12817 -0.24933,-0.19351c-0.0637,-0.06536 -0.12742,-0.13069 -0.11763,-0.25037c0.13875,-0.21043 0.33286,-0.45734 0.56171,-0.75692z" fill="#c7dfe0"/><path d="M211.98913,170.3797c-0.1221,0.17567 -0.22474,0.35044 -0.40636,0.51169c-0.24524,-0.1426 -0.35874,-0.34204 -0.51244,-0.55678c0.1193,-0.20959 0.2386,-0.4192 0.35656,-0.64579c0.21327,0.22917 0.367,0.44394 0.56225,0.6909z" fill="#c8e0e1"/><path d="M208.39707,163.05865c0.16623,0.12906 0.33243,0.25806 0.4446,0.44053c-0.09717,0.24272 -0.21371,0.48623 -0.32888,0.74675c-0.03879,0.00168 -0.07759,0.00337 -0.07896,-0.01361c-0.12881,-0.14769 -0.25895,-0.31233 -0.36836,-0.46085c-0.04431,-0.06621 -0.06923,-0.13327 -0.03457,-0.18586c0.09992,-0.20874 0.14161,-0.41496 0.36619,-0.52699z" fill="#c4dcdd"/><path d="M211.40841,163.45544c-0.13733,0.22741 -0.25527,0.45397 -0.39263,0.68142c-0.15932,-0.04418 -0.17033,-0.17993 -0.2368,-0.27925c-0.06645,-0.09929 -0.11492,-0.21644 -0.18275,-0.3327c0.0805,-0.20791 0.26357,-0.3521 0.40502,-0.52865c0.22302,0.10949 0.31442,0.27586 0.40714,0.45918z" fill="#c8e0e1"/><path d="M212.52542,170.27117c0.11659,-0.24354 0.21513,-0.46931 0.3303,-0.7298c0.20504,0.1273 0.31718,0.30983 0.50283,0.438c-0.05839,0.241 -0.24001,0.40224 -0.37874,0.61265c-0.20227,-0.09337 -0.36438,-0.17148 -0.45435,-0.32086z" fill="#c6ddde"/><path d="M214.15685,167.57692c0.21743,0.2801 0.3406,0.59834 0.61346,0.84196c-0.04167,0.20622 -0.06538,0.39464 -0.18606,0.58725c-0.24245,-0.10867 -0.3907,-0.25551 -0.3725,-0.51178c0.03344,-0.30803 -0.03013,-0.61187 -0.0549,-0.9174z" fill="#b9cfd0"/><path d="M204.51324,166.54943c-0.12054,-0.04585 -0.06926,-0.13327 -0.09413,-0.20028c-0.05117,-0.15107 -0.08299,-0.30296 -0.20768,-0.39976c-0.17036,-0.17994 -0.16612,-0.36747 -0.1438,-0.57286c0.01254,-0.08573 0.04445,-0.17229 0.07362,-0.29279c0.26739,0.17571 0.47517,0.337 0.42371,0.66285c-0.0403,0.2232 -0.00167,0.45999 -0.00319,0.68147c0.0041,0.05093 0.00827,0.10185 -0.04857,0.12135z" fill="#c0d8d8"/><path d="M205.57162,169.75665c-0.1094,-0.14855 -0.1592,-0.28262 -0.17023,-0.41839c-0.00548,-0.06787 -0.01242,-0.15278 0.02226,-0.20536c0.15675,-0.22827 0.2539,-0.47097 0.35107,-0.71368c0.13582,-0.00589 0.12191,0.06281 0.12607,0.11376c0.01376,0.16974 0.02892,0.35645 0.08146,0.5245c0.05668,0.21896 0.01086,0.37426 -0.17353,0.50155c-0.09287,0.05515 -0.14697,0.1086 -0.23707,0.19767z" fill="#c1d9d9"/><path d="M210.56443,170.33959c-0.10126,0.19175 -0.24553,0.33433 -0.38697,0.51082c-0.22167,-0.09252 -0.29498,-0.27669 -0.42383,-0.42439c0.11792,-0.22657 0.31895,-0.38865 0.49788,-0.5838c0.14957,0.16383 0.22157,0.33103 0.31295,0.49737z" fill="#c3dbdc"/><path d="M209.72961,164.1248c-0.13571,-0.23256 -0.25059,-0.44901 -0.38489,-0.66458c0.06521,-0.15617 0.13184,-0.29529 0.29819,-0.40477c0.18564,0.1282 0.29639,0.29368 0.42662,0.45833c-0.05976,0.22405 -0.16097,0.4158 -0.33988,0.61096z" fill="#c3dadb"/><path d="M208.90088,171.19563c0.18166,-0.16123 0.34527,-0.3046 0.50887,-0.448c0.20366,0.11035 0.31443,0.27586 0.42519,0.44134c-0.12342,0.15869 -0.26899,0.28426 -0.45477,0.39451c-0.06095,-0.03141 -0.1427,-0.07897 -0.18425,-0.1112c-0.10526,-0.09761 -0.17036,-0.17993 -0.29504,-0.27671z" fill="#c4dbdc"/><path d="M204.85178,168.32317c0.02613,0.32252 0.04677,0.57714 0.06884,0.84867c-0.08738,0.12306 -0.19694,0.21298 -0.36741,0.27148c-0.12327,-0.0798 -0.09412,-0.20029 -0.14115,-0.30046c-0.04705,-0.10013 -0.07472,-0.20113 -0.08163,-0.28601c0.18028,-0.17825 0.3245,-0.32078 0.52141,-0.53374z" fill="#c2d9da"/><path d="M207.07373,162.82679c0.0666,-0.13916 0.15532,-0.24525 0.26626,-0.3182c0.15385,-0.02372 0.23973,0.07476 0.34085,0.12141c0.10111,0.04665 0.21892,0.05858 0.28675,0.17486c-0.02504,0.17143 -0.1485,0.33009 -0.26915,0.52276c-0.10393,-0.08064 -0.20781,-0.16129 -0.31031,-0.22496c-0.10523,-0.09762 -0.21055,-0.19521 -0.31445,-0.27585z" fill="#c5ddde"/><path d="M211.29572,171.19345c-0.08326,0.17398 -0.23437,0.23168 -0.34251,0.33858c-0.22031,-0.07558 -0.36853,-0.22242 -0.53753,-0.38536c0.12479,-0.14171 0.24965,-0.28341 0.35507,-0.4243c0.24244,0.10868 0.35601,0.30814 0.52496,0.47108z" fill="#c3dbdc"/><path d="M205.7671,164.72337c-0.08178,-0.04753 -0.1233,-0.07976 -0.16487,-0.112c-0.08448,-0.08148 -0.17037,-0.17995 -0.27563,-0.27755c0.11659,-0.24354 0.17491,-0.48456 0.37322,-0.68058c0.1386,0.02802 0.20368,0.11034 0.2909,0.22579c-0.05697,0.25797 -0.13062,0.55073 -0.22359,0.84437z" fill="#c7dfe0"/><path d="M207.77048,170.46139c-0.18302,0.14423 -0.28568,0.31902 -0.49223,0.41319c-0.18287,-0.09426 -0.21742,-0.28006 -0.36148,-0.376c0.15676,-0.22826 0.33974,-0.37252 0.52003,-0.55071c0.20644,0.14433 0.22155,0.33099 0.33373,0.51348z" fill="#c7dee0"/><path d="M208.00442,173.3468c-0.11365,0.03902 -0.2536,-0.00599 -0.38252,0.08482c0.05668,0.21896 0.13414,0.45404 0.13264,0.67553c-0.079,-0.01358 -0.17738,-0.02635 -0.25773,-0.05686c-0.12054,-0.04585 -0.20501,-0.12734 -0.21468,-0.24617c-0.03593,-0.20281 -0.07047,-0.38866 -0.10636,-0.59153c0.25225,-0.01101 0.37003,0.0009 0.82868,0.13422z" fill="#61acb1"/><path d="M212.68465,163.58718c-0.1221,0.17567 -0.22745,0.31647 -0.36894,0.493c-0.13431,-0.21557 -0.26722,-0.41415 -0.38214,-0.63059c0.08596,-0.14002 0.17341,-0.26305 0.30095,-0.37083c0.20642,0.14431 0.31717,0.30979 0.45011,0.5084z" fill="#c2dada"/><path d="M205.69888,170.12584c0.1221,-0.17567 0.26903,-0.28425 0.4327,-0.42765c0.09691,0.23424 0.19101,0.43454 0.28513,0.63487c-0.06521,0.15617 -0.19692,0.21299 -0.34527,0.3046c-0.18426,-0.11119 -0.25762,-0.2954 -0.3725,-0.51178z" fill="#c1d9d9"/><path d="M210.35381,163.17777c-0.18837,-0.16214 -0.3158,-0.29283 -0.46262,-0.42271c0.04445,-0.17228 0.19004,-0.29786 0.33565,-0.42343c0.18148,0.07727 0.34495,0.17234 0.47516,0.337c-0.04169,0.20622 -0.22888,0.29956 -0.34814,0.50916z" fill="#c6dedf"/><path d="M212.71359,170.91021c-0.12342,0.15867 -0.26765,0.30123 -0.39245,0.44295c-0.17598,-0.00935 -0.29791,-0.07217 -0.424,-0.18593c0.05976,-0.22405 0.26357,-0.35211 0.38423,-0.54479c0.18015,0.06027 0.28675,0.17486 0.43222,0.28775z" fill="#c0d7d7"/><path d="M204.84992,164.4567c-0.06247,0.19008 -0.06539,0.39461 -0.22621,0.57198c-0.12608,-0.11376 -0.25074,-0.21055 -0.3754,-0.30727c-0.01648,-0.20366 0.06675,-0.37762 0.21096,-0.52016c0.15934,0.04417 0.26323,0.12478 0.39067,0.25546z" fill="#c3dadb"/><path d="M207.42707,172.23078c-0.07763,0.00338 -0.15386,0.02374 -0.23149,0.02715c-0.08327,0.17399 0.00947,0.35727 0.00523,0.54483c-0.13444,0.02289 -0.22032,-0.07559 -0.35749,-0.08662c-0.09549,-0.21727 -0.05383,-0.42348 -0.20752,-0.63821c0.19264,-0.02541 0.31316,0.02039 0.45316,0.06541c0.09978,0.02969 0.23285,-0.01011 0.33808,0.08748z" fill="url(#color-15)"/><path d="M215.46866,168.86532c-0.06247,0.19008 -0.0654,0.39465 -0.20821,0.55415c-0.1386,-0.02802 -0.22172,-0.09256 -0.34639,-0.18928c0.02367,-0.18842 0.08615,-0.3785 0.19016,-0.53634c0.13861,0.02802 0.22031,0.07558 0.36438,0.17149z" fill="#bdd3d4"/><path d="M209.76538,171.77111c0.12759,-0.10778 0.23574,-0.21467 0.34388,-0.32157c0.1815,0.07727 0.30757,0.191 0.43498,0.32169c-0.0472,0.1383 -0.18029,0.17824 -0.31609,0.18413c-0.17461,0.00764 -0.34922,0.01524 -0.46277,-0.18423z" fill="#bdd4d5"/><path d="M214.14619,164.56249c-0.08051,0.2079 -0.16239,0.39885 -0.24287,0.60673c-0.22292,-0.34795 -0.34605,-0.66624 0.01861,-0.97169c0.12327,0.0798 0.15369,0.21474 0.22427,0.36494z" fill="#bbd2d3"/><path d="M207.92928,171.45941c-0.16071,-0.06114 -0.2466,-0.1596 -0.33244,-0.25808c-0.00963,-0.1188 0.08465,-0.157 0.15677,-0.22825c0.05407,-0.05344 0.10676,-0.12387 0.22183,-0.14591c0.16071,0.06114 0.17449,0.23083 0.33659,0.30893c-0.10402,0.15787 -0.23295,0.24862 -0.38265,0.32331z" fill="#c3dadb"/><path d="M209.58964,166.48148c0.01409,-0.30722 0.02808,-0.6144 0.11975,-0.92501c0.11776,0.01192 0.14412,0.09593 0.15094,0.18078c0.03727,0.21981 0.05519,0.44041 0.0717,0.64411c0.01238,0.15274 -0.1013,0.1918 -0.34237,0.1001z" fill="#b1c6c7"/><path d="M213.82229,170.89594c0.02777,-0.13745 0.14007,-0.19349 0.2108,-0.28171c0.12208,-0.17568 0.29532,-0.20026 0.53507,-0.12551c-0.09716,0.2427 -0.31763,0.4056 -0.50062,0.54984c-0.13719,-0.01105 -0.19818,-0.04246 -0.24523,-0.14259z" fill="#bbd2d3"/><path d="M212.17585,166.19839c-0.10376,-0.31911 0.00868,-0.61356 0.10031,-0.92417c0.13571,0.23255 0.1563,0.48715 0.19499,0.72392c0.03178,0.15191 -0.02366,0.18843 -0.2953,0.20024z" fill="#bad1d2"/><path d="M215.20595,167.78669c0.14682,0.12988 0.29089,0.22581 0.43771,0.35564c-0.01252,0.08572 -0.06111,0.20708 -0.09028,0.32757c-0.35613,-0.06964 -0.3575,-0.08662 -0.35601,-0.30814c-0.00961,-0.11881 0.00016,-0.23849 0.00855,-0.3751z" fill="#b5cbcc"/><path d="M209.37486,161.90889c0.19815,0.04248 0.32148,0.12225 0.44474,0.20203c-0.04582,0.15531 -0.19556,0.22994 -0.32311,0.33772c-0.14272,-0.07892 -0.26595,-0.15875 -0.40865,-0.23768c0.00702,-0.1536 0.17885,-0.19517 0.28706,-0.30209z" fill="#c0d7d8"/><path d="M214.13096,169.1792c0.11914,0.02889 0.20368,0.11033 0.28955,0.20879c-0.04033,0.22319 -0.16099,0.41584 -0.32326,0.57618c-0.13444,0.02289 -0.17737,-0.02633 -0.22303,-0.10949c0.07909,-0.22487 0.15824,-0.44976 0.25679,-0.67549z" fill="#bdd4d4"/><path d="M212.89411,163.28849c-0.12881,-0.14769 -0.23957,-0.31317 -0.36837,-0.46087c0.07075,-0.08825 0.16499,-0.12643 0.2814,-0.13153c0.11914,0.02888 0.16486,0.11203 0.22994,0.19435c0.04431,0.06621 0.08861,0.1324 0.13293,0.19861c-0.04996,0.1044 -0.12208,0.17568 -0.27593,0.19941z" fill="#b6cccc"/><path d="M209.04426,163.11564c-0.14681,-0.12988 -0.27286,-0.2436 -0.43911,-0.37263c0.01114,-0.10268 0.06108,-0.20708 0.23161,-0.26562c0.14273,0.07892 0.28677,0.17486 0.45024,0.26991c-0.0666,0.13916 -0.11518,0.26053 -0.24275,0.36828z" fill="#c1d9d9"/><path d="M213.71276,163.78083c-0.0666,0.13916 -0.13595,0.24441 -0.26489,0.33518c-0.14682,-0.12988 -0.19938,-0.29793 -0.26859,-0.43116c0.02777,-0.13745 0.14145,-0.17648 0.23433,-0.23164c0.05957,0.01445 0.09839,0.01274 0.09979,0.0297c0.06642,0.0993 0.1329,0.1986 0.19937,0.29793z" fill="#b7cdce"/><path d="M214.85961,165.1957c-0.17035,-0.17996 -0.18276,-0.33269 -0.23395,-0.48376c-0.07198,-0.16719 0.03895,-0.24017 0.16787,-0.33096c0.14682,0.12988 0.198,0.28093 0.28663,0.41336c-0.02506,0.17141 -0.21496,0.23081 -0.22059,0.40138z" fill="#b6cccc"/><path d="M215.11319,169.76658c-0.08599,0.14002 -0.15534,0.24523 -0.22331,0.36744c-0.17326,0.02458 -0.28968,0.02965 -0.43236,-0.04928c0.10404,-0.15785 0.18866,-0.31483 0.27464,-0.45484c0.17048,-0.05856 0.25633,0.03995 0.37413,0.0518c0.00275,0.03394 0.02492,0.06707 0.00691,0.08488z" fill="#c2dada"/><path d="M208.39066,162.25838c-0.04859,0.12132 -0.10264,0.17481 -0.19691,0.21301c-0.11507,0.02204 -0.19813,-0.04247 -0.29929,-0.08914c-0.08176,-0.04754 -0.21895,-0.05858 -0.24798,-0.17656c0.08876,-0.10605 0.19828,-0.19601 0.37017,-0.23757c0.14408,0.09592 0.24935,0.19354 0.37403,0.29031z" fill="#bbd2d3"/><path d="M206.27349,170.96949c0.12893,-0.09078 0.22045,-0.16291 0.33136,-0.23589c0.14547,0.11289 0.23404,0.24531 0.3421,0.37688c-0.06933,0.1052 -0.16087,0.17737 -0.29669,0.18323c-0.04018,-0.01528 -0.08035,-0.03056 -0.10253,-0.06367c-0.08309,-0.06449 -0.16762,-0.14602 -0.27426,-0.2606z" fill="#bbd2d3"/><path d="M215.72834,167.74686c-0.24798,-0.17656 -0.24799,-0.17656 -0.36835,-0.46087c0.08601,-0.14002 0.23986,-0.16375 0.41034,-0.22226c0.07748,0.2351 -0.00166,0.45996 -0.04198,0.68315z" fill="#adc2c3"/><path d="M208.2784,171.68268c0.06933,-0.1052 0.18031,-0.17821 0.31472,-0.20106c0.14547,0.11289 0.27013,0.2096 0.39613,0.32337c-0.31608,0.18413 -0.33547,0.18499 -0.71089,-0.12226z" fill="#b5cbcc"/><path d="M211.95617,162.76729c-0.08737,0.12306 -0.15813,0.21129 -0.28708,0.30207c-0.16206,-0.07807 -0.23268,-0.22834 -0.36011,-0.35905c0.03468,-0.05261 0.07074,-0.08822 0.10676,-0.12389c0.03606,-0.03566 0.09287,-0.05516 0.14835,-0.09165c0.17876,0.04331 0.28399,0.14091 0.39205,0.27249z" fill="#bbd1d2"/><path d="M205.04466,170.22249c-0.20366,-0.11036 -0.23956,-0.31318 -0.3476,-0.44472c0.06798,-0.12218 0.20244,-0.14511 0.31338,-0.21808c0.15097,0.18076 0.20351,0.34883 0.16043,0.53807c0.00411,0.05093 -0.07072,0.08825 -0.12617,0.12473z" fill="#b6cccd"/><path d="M205.36869,163.41211c-0.11792,0.22657 -0.25666,0.43702 -0.37596,0.6466c-0.13721,-0.01106 -0.21893,-0.05857 -0.30618,-0.17399c0.17885,-0.19517 0.35777,-0.39031 0.59899,-0.53712c0.04158,0.03228 0.06235,0.04839 0.08311,0.06449z" fill="#acc1c2"/><path d="M211.01483,165.5677c0.0761,0.21813 0.13279,0.43708 0.11185,0.6594c-0.01254,0.08573 -0.06522,0.15614 -0.1622,0.16038c-0.03876,0.00168 -0.11915,-0.02889 -0.12055,-0.04586c-0.04003,-0.25375 0.07513,-0.51427 0.1709,-0.77394z" fill="#a7bbbb"/><path d="M211.26771,162.2011c-0.03056,0.10354 -0.12342,0.15869 -0.23571,0.21467c-0.14408,-0.09592 -0.28815,-0.19185 -0.43222,-0.28775c0.0666,-0.13916 0.18165,-0.16121 0.31745,-0.16713c0.12054,0.04585 0.24522,0.14259 0.35049,0.24024z" fill="#b7cdcd"/><path d="M211.24965,171.82566c0.08327,-0.17399 0.21222,-0.26474 0.36054,-0.3564c0.15934,0.04417 0.28128,0.10698 0.37126,0.25635c-0.22458,0.11198 -0.4588,0.10515 -0.7318,0.10005z" fill="#b7cece"/><path d="M203.8343,168.74225c-0.15234,-0.19775 -0.0926,-0.42179 -0.20341,-0.58728c0.06934,-0.1052 0.14835,-0.09161 0.1913,-0.04239c0.10803,0.13155 0.19803,0.28095 0.21175,0.45066c-0.01526,0.05177 -0.01392,0.06875 -0.19968,0.17905z" fill="#b4cacb"/><path d="M206.15441,163.49711c-0.12053,-0.04584 -0.18288,-0.09423 -0.22859,-0.17738c0.12208,-0.17568 0.24276,-0.36827 0.50339,-0.51591c0.04278,0.28768 -0.1181,0.46502 -0.27481,0.6933z" fill="#b2c8c9"/><path d="M207.20449,171.40585c0.14272,0.07892 0.24521,0.14261 0.29226,0.24275c-0.01389,0.06875 -0.07073,0.08828 -0.12758,0.10778c-0.2273,0.07804 -0.33398,-0.03656 -0.44473,-0.20204c0.09424,-0.0382 0.18716,-0.09335 0.28004,-0.14848z" fill="#b5cbcb"/><path d="M213.46212,165.97202c-0.03729,-0.2198 -0.05243,-0.40649 -0.01072,-0.61269c0.09563,-0.02118 0.13857,0.02801 0.1427,0.07894c0.02904,0.11799 0.07748,0.23513 0.10651,0.35307c0.01099,0.13578 -0.06386,0.17308 -0.23848,0.18068z" fill="#91a3a3"/><path d="M206.06153,165.95396c0.15234,0.19775 0.15083,0.41925 0.16732,0.62292c0.00275,0.03394 -0.03331,0.06959 -0.07075,0.08824c-0.03879,0.00168 -0.09978,-0.02969 -0.10116,-0.04669c-0.07748,-0.2351 -0.05655,-0.45743 0.00454,-0.6645z" fill="#99abac"/><path d="M205.17709,166.57163c-0.13031,0.07383 -0.22733,0.07803 -0.27302,-0.00515c-0.04843,-0.11713 -0.02338,-0.28854 0.03633,-0.51258c0.14962,0.16382 0.16471,0.35051 0.23668,0.5177z" fill="#93a5a6"/><path d="M213.11514,171.53995c0.14011,-0.19346 0.25939,-0.40309 0.61966,-0.28253c-0.13876,0.21042 -0.39094,0.22144 -0.61966,0.28253z" fill="#9aadad"/><path d="M212.59303,168.46266c-0.06921,-0.13326 -0.13981,-0.28346 -0.20764,-0.39978c0.05134,-0.0874 0.10816,-0.10692 0.22597,-0.09499c0.10943,0.14856 0.04558,0.32166 0.07737,0.47358c-0.03879,0.00168 -0.05821,0.00252 -0.09566,0.02121z" fill="#c5dddd"/><path d="M208.5312,165.9144c0.19251,0.21303 0.21038,0.43372 0.15068,0.65773c0.00137,0.01697 -0.03606,0.03566 -0.07487,0.03735c-0.05684,0.01951 -0.09979,-0.0297 -0.10251,-0.06366c-0.03457,-0.18585 0.00717,-0.39209 0.02669,-0.63141z" fill="#aec2c3"/><path d="M205.39101,170.41178c0.14682,0.12988 0.21879,0.29705 0.28937,0.4473c-0.05132,0.0874 -0.13035,0.07382 -0.17465,0.00763c-0.08726,-0.11544 -0.17309,-0.21391 -0.24229,-0.34715c-0.04158,-0.03228 0.01251,-0.0857 0.12757,-0.10776z" fill="#9caeaf"/><path d="M210.21051,161.8895c-0.17877,-0.04333 -0.30065,-0.10612 -0.44474,-0.20205c0.24672,-0.0789 0.46429,-0.03729 0.69712,-0.04741c-0.01528,0.05179 -0.01256,0.08573 -0.03057,0.10351c-0.07348,0.05429 -0.14832,0.09163 -0.22179,0.14594z" fill="#a9bebf"/><path d="M207.54987,168.46106c0.13309,-0.03987 0.21203,-0.02628 0.29381,0.02129c0.03313,0.16889 -0.01269,0.32416 -0.19296,0.50238c-0.05532,-0.202 -0.06769,-0.35474 -0.10087,-0.52364z" fill="#b9cfd0"/><path d="M213.60787,167.77116c0.05133,-0.08739 0.12759,-0.10773 0.2038,-0.12811c0.09978,0.02972 0.10666,0.11455 0.08144,0.52449c-0.24109,-0.09169 -0.19802,-0.28094 -0.28525,-0.39638z" fill="#869797"/><path d="M207.36978,165.99912c-0.0362,0.27412 0.15769,0.50414 -0.09743,0.71965c-0.09827,-0.25122 -0.09537,-0.45572 0.09743,-0.71965z" fill="#93a4a5"/><path d="M214.40365,165.09631c0.02063,0.25458 0.03438,0.42433 0.04816,0.59406c0.00275,0.03394 -0.0333,0.0696 -0.0915,0.07211c-0.01943,0.00085 -0.05957,-0.01445 -0.08037,-0.03056c-0.05535,-0.20196 -0.07048,-0.38873 0.12369,-0.63562z" fill="#94a5a6"/><path d="M214.51868,167.47599c0.11093,-0.07293 0.16773,-0.09249 0.27027,-0.02883c0.03041,0.13493 0.06221,0.28686 0.01774,0.45914c-0.20365,-0.11039 -0.21739,-0.28007 -0.28802,-0.43028z" fill="#abbfc0"/><path d="M214.59688,164.11699c-0.09425,0.03819 -0.1317,0.05684 -0.17054,0.05854c-0.2327,-0.22833 -0.23266,-0.22831 -0.19372,-0.46845c0.20227,0.09337 0.21605,0.26307 0.36422,0.40992z" fill="#acc0c1"/><path d="M213.30138,170.71421c0.10542,-0.14087 0.19003,-0.29786 0.31485,-0.43956c0.05407,-0.05344 0.13171,-0.05681 0.19814,0.04247c-0.1221,0.17567 -0.2455,0.33432 -0.513,0.39708z" fill="#9fb2b2"/><path d="M212.22932,162.53391c-0.10254,-0.0637 -0.16485,-0.11207 -0.21053,-0.19521c0.0333,-0.06961 0.08874,-0.10609 0.18439,-0.12729c0.11778,0.01193 0.20226,0.09339 0.28674,0.17487c-0.03056,0.10354 -0.14557,0.12558 -0.2606,0.1476z" fill="#aec2c3"/><path d="M210.25641,168.70078c-0.16206,-0.07807 -0.17173,-0.19694 -0.20077,-0.3149c-0.0041,-0.05093 0.05132,-0.08736 0.10954,-0.08992c0.03879,-0.00168 0.0998,0.02971 0.10252,0.06366c0.06645,0.09929 0.03591,0.20285 -0.01131,0.34115z" fill="#91a2a3"/><path d="M208.87461,161.74332c-0.19005,0.29785 -0.20803,0.31569 -0.47956,0.08906c0.15247,-0.04069 0.2814,-0.1315 0.47956,-0.08906z" fill="#869696"/><path d="M204.08915,166.60197c-0.18563,-0.12819 -0.13569,-0.23253 -0.12592,-0.35222c0.18148,0.07727 0.18148,0.07727 0.12592,0.35222z" fill="#555f5f"/><path d="M211.40274,168.19092c0.00689,0.08487 0.0165,0.20366 -0.03206,0.32503c-0.18701,-0.14515 -0.19249,-0.21303 -0.12456,-0.33522c0.01666,-0.03479 0.07488,-0.03735 0.15658,0.01022z" fill="#93a5a6"/><path d="M215.22954,165.1966c0.21055,0.19522 0.19392,0.23001 -0.11244,0.29445c-0.04844,-0.11715 0.02225,-0.20537 0.11244,-0.29445z" fill="#8b9b9c"/><path d="M203.63357,166.0257c0.07197,0.1672 0.06356,0.3038 0.05516,0.44047c-0.11228,0.05601 -0.17326,0.02458 -0.17874,-0.04333c-0.01101,-0.13578 -0.00261,-0.27242 0.12355,-0.39714z" fill="#9aacad"/><path d="M213.82268,163.21391c0.12327,0.0798 0.24384,0.12565 0.23546,0.26227c0.00136,0.01698 -0.01664,0.03482 -0.03604,0.03567c-0.1774,-0.02635 -0.22446,-0.1265 -0.19939,-0.29792z" fill="#5f6a6b"/><path d="M208.94537,168.6217c-0.0637,-0.06536 -0.06923,-0.13328 -0.05531,-0.20201c0.01666,-0.03479 0.0527,-0.07043 0.09288,-0.05513c0.04018,0.01528 0.08177,0.04753 0.08447,0.08149c0.00548,0.06787 -0.00841,0.13662 -0.12207,0.17565z" fill="#636e6f"/><path d="M211.48138,161.95335c0.13171,-0.05683 0.23008,-0.0441 0.3187,0.08829c-0.14971,0.07464 -0.23146,0.02715 -0.3187,-0.08829z" fill="#4a5354"/></g><g data-paper-data="{&quot;index&quot;:null}" fill="#000000" stroke="#000000" stroke-width="1.2"><path d="M201.05366,187.69171c-0.62575,-1.75797 0.87759,-4.59296 0.99734,-6.81439c0.12894,-2.39168 -1.07128,-4.00637 -0.09181,-5.24748c0.68417,-0.8669 2.32332,-0.88372 3.18043,-0.78709c2.0842,0.23491 3.59628,3.71849 3.37729,7.78073c-0.21898,4.06225 -2.08608,7.16492 -4.17028,6.92999c-0.94446,-0.10645 -2.77443,-0.40497 -3.29297,-1.86172z"/><path d="M204.59021,190.1941c-0.84933,-2.45709 0.48075,-8.0719 0.48075,-8.0719c0,0 -0.9553,-3.77605 -0.94921,-3.85968c0.38702,-5.32878 3.99946,-4.98105 8.10345,-4.51845c1.95324,0.22015 4.91677,1.30005 5.89422,3.0921c1.10853,2.0324 0.37124,4.61523 0.21045,7.59775c-0.30255,5.61231 -3.03187,10.10402 -7.20029,9.63417c-1.83492,-0.20683 -5.40498,-0.59226 -6.53937,-3.874z"/></g></g><path d="M236.93304,168.97659c0,2.39091 -2.51444,4.32913 -5.61616,4.32913c-3.10172,0 -5.61616,-1.93822 -5.61616,-4.32913c0,-2.39091 2.51444,-4.32913 5.61616,-4.32913c3.10172,0 5.61616,1.93822 5.61616,4.32913z" fill="#ff0000" fill-rule="nonzero" stroke="#000000" stroke-width="3" stroke-linecap="butt" stroke-linejoin="miter"/><path d="M243.95324,155.5212c0,3.3602 -4.08597,6.08418 -9.12626,6.08418c-5.0403,0 -9.12626,-2.72398 -9.12626,-6.08418c0,-3.3602 4.08597,-6.08418 9.12626,-6.08418c5.0403,0 9.12626,2.72398 9.12626,6.08418z" fill="#ffffff" fill-rule="nonzero" stroke="#000000" stroke-width="3" stroke-linecap="butt" stroke-linejoin="miter"/><path d="M264.77984,155.59632c0,3.23575 -3.71928,5.85884 -8.30724,5.85884c-4.58796,0 -8.30724,-2.62309 -8.30724,-5.85884c0,-3.23575 3.71928,-5.85884 8.30724,-5.85884c4.58796,0 8.30724,2.62309 8.30724,5.85884z" fill="#ffffff" fill-rule="nonzero" stroke="#000000" stroke-width="3" stroke-linecap="butt" stroke-linejoin="miter"/></g></g></svg>