<svg version="1.1" xmlns="http://www.w3.org/2000/svg" xmlns:xlink="http://www.w3.org/1999/xlink" width="38.87343" height="33.03897" viewBox="0,0,38.87343,33.03897"><g transform="translate(-220.56329,-163.5342)"><g data-paper-data="{&quot;isPaintingLayer&quot;:true}" fill="#9b7547" fill-rule="nonzero" stroke="#7d5e39" stroke-width="0.5" stroke-linecap="butt" stroke-linejoin="miter" stroke-miterlimit="10" stroke-dasharray="" stroke-dashoffset="0" style="mix-blend-mode: normal"><path d="M252.82561,166.33351c0.37167,0.08436 0.44908,1.6466 0.30977,2.70799c-0.92272,-1.05626 -2.0048,-2.00756 -3.25045,-2.82576c1.437,0.00555 2.62702,0.04657 2.94068,0.11777z"/><path d="M256.53226,166.06125c0,1.17506 -1.14966,2.12763 -2.56785,2.12763c-1.41817,0 -2.56782,-0.95257 -2.56782,-2.12763c0,-1.17506 1.14964,-2.12763 2.56782,-2.12763c1.41817,0 2.56785,0.95257 2.56785,2.12763z"/><path d="M256.48724,170.34488c0,0.7682 -0.49135,1.44131 -1.22786,1.81533c-0.68919,-1.32502 -1.56073,-2.557 -2.61996,-3.66021c0.37681,-0.17987 0.8139,-0.28277 1.28,-0.28277c1.41817,0 2.56783,0.95258 2.56783,2.12764z"/><path d=""/><path d=""/><path d="M224.71645,172.80637c0.03125,-0.09182 0.06925,-0.18108 0.11347,-0.26732c-0.0387,0.0888 -0.07652,0.17791 -0.11347,0.26732z"/><path d=""/><path d=""/><path d="M259.18672,177.0271c0,1.01246 -0.8535,1.85974 -1.99687,2.07485c-0.11117,-1.43956 -0.37592,-2.84753 -0.79867,-4.19423c0.07502,-0.00546 0.15097,-0.00825 0.22771,-0.00825c1.41817,0 2.56784,0.95257 2.56784,2.12764z"/><path d="M259.14171,181.31072c0,1.032 -0.88675,1.89239 -2.06337,2.08659c0.17567,-1.3941 0.21764,-2.78597 0.12217,-4.15044c1.11529,0.23174 1.9412,1.06788 1.9412,2.06385z"/><path d="M224.44605,189.22933c-0.2872,-0.1491 -0.4907,-3.38535 0.06643,-3.62255c0.0471,-0.02005 0.11278,-0.03915 0.19508,-0.05731c0.52302,1.37057 1.21012,2.6731 2.04811,3.86078c-1.1627,-0.00469 -2.06814,-0.05556 -2.30963,-0.18092z"/><path d=""/><path d="M223.85393,187.05933c-1.35739,0 -2.45778,-0.96901 -2.45778,-2.16432c0,-1.19532 1.1004,-2.16431 2.45778,-2.16431c0.01006,0 0.02011,0.00005 0.03015,0.00016c0.28431,1.37273 0.72559,2.712 1.31244,3.97732c-0.38595,0.22207 -0.84715,0.35116 -1.34259,0.35116z"/><path d="M226.27501,189.55379c0,1.21557 -1.14964,2.201 -2.56782,2.201c-1.41817,0 -2.56785,-0.98541 -2.56785,-2.201c0,-1.21557 1.14966,-2.20101 2.56785,-2.20101c1.41817,0 2.56782,0.98542 2.56782,2.20101z"/><path d="M253.59925,192.44202c-0.14266,0.03196 -0.47168,0.06887 -0.92545,0.10642c0.46577,-0.33107 0.89627,-0.68947 1.28429,-1.07625c-0.06918,0.52805 -0.19198,0.93244 -0.35884,0.96982z"/><path d="M257.35478,188.49334c0,1.17506 -1.14966,2.12763 -2.56784,2.12763c-0.02693,0 -0.05377,-0.00034 -0.0805,-0.00103c0.41281,-0.542 0.74906,-1.13096 0.99405,-1.76907c0.25706,-0.66957 0.48275,-1.34666 0.67661,-2.02824c0.59549,0.38964 0.97769,0.99319 0.97769,1.6707z"/><path d="M257.30977,192.77696c0,1.17506 -1.14965,2.12763 -2.56783,2.12763c-1.37534,0 -2.49815,-0.8959 -2.56471,-2.0218c0.98922,-0.63124 1.84447,-1.3726 2.50631,-2.23293c0.01942,-0.00036 0.03888,-0.00054 0.0584,-0.00054c1.41817,0 2.56783,0.95258 2.56783,2.12764z"/><path d=""/><path d=""/><path d=""/><path d="M228.76901,165.94851c0,-1.19532 1.1004,-2.16431 2.45778,-2.16431c0.83681,0 1.57595,0.36827 2.01982,0.9308c-1.49494,0.7321 -2.94226,1.61484 -4.07683,2.41847c-0.2534,-0.34042 -0.40077,-0.74754 -0.40077,-1.18497z"/><path d=""/><path d="M252.49955,193.6665c-0.23814,0.05405 -0.98147,0.09071 -1.95451,0.10766c0.84083,-0.39314 1.62261,-0.84666 2.31961,-1.36438c-0.03241,0.65918 -0.14903,1.20766 -0.3651,1.2567z" data-paper-data="{&quot;index&quot;:null}"/><path d="M253.63836,196.0664c-1.41818,0 -2.56783,-0.95257 -2.56783,-2.12763c0,-0.15522 0.02006,-0.30656 0.05815,-0.45234c0.91949,-0.47784 1.7554,-1.03434 2.47034,-1.67505c0.01309,-0.00016 0.0262,-0.00024 0.03933,-0.00024c1.41818,0 2.56784,0.95257 2.56784,2.12763c0,1.17506 -1.14968,2.12763 -2.56784,2.12763z" data-paper-data="{&quot;index&quot;:null}"/><path d="M256.16119,189.65514c0,1.16463 -1.12935,2.11072 -2.53014,2.12742c0.92021,-0.83213 1.63701,-1.80535 2.06943,-2.93168c0.03545,-0.09234 0.0703,-0.18482 0.10456,-0.27743c0.22628,0.31695 0.35615,0.68676 0.35615,1.08169z" data-paper-data="{&quot;index&quot;:null}"/><path d="M242.42926,196.32318c-0.5855,0 -1.12317,-0.18028 -1.54535,-0.48124c1.11745,-0.02983 2.27528,-0.12593 3.43085,-0.29465c-0.45085,0.47427 -1.12817,0.77589 -1.88547,0.77589z" data-paper-data="{&quot;index&quot;:null}"/><path d="" data-paper-data="{&quot;index&quot;:null}"/><path d="M224.28726,186.57126c0,-0.42125 0.13667,-0.81439 0.37308,-1.14691c0.42775,1.14614 0.96984,2.24597 1.61862,3.27236c-1.13452,-0.19177 -1.99171,-1.07045 -1.99171,-2.12545z" data-paper-data="{&quot;index&quot;:null}"/><path d="" data-paper-data="{&quot;index&quot;:null}"/><path d="" data-paper-data="{&quot;index&quot;:null}"/><path d="M258.86068,182.97292c0,1.02946 -0.88242,1.88816 -2.05473,2.08515c0.27362,-1.35394 0.42214,-2.71522 0.44213,-4.0607c0.94513,0.31403 1.6126,1.0802 1.6126,1.97554z" data-paper-data="{&quot;index&quot;:null}"/><path d="M258.81566,178.68931c0,0.88033 -0.64526,1.63579 -1.56528,1.95938c-0.00232,-1.37036 -0.13888,-2.72215 -0.41334,-4.03074c1.13419,0.22064 1.97862,1.06429 1.97862,2.07136z" data-paper-data="{&quot;index&quot;:null}"/><path d="M224.12,170.77069c0.19979,-0.10372 0.854,-0.15645 1.73237,-0.17422c-0.74394,1.18984 -1.30331,2.46433 -1.68892,3.78505c-0.52843,-0.31559 -0.32664,-3.46382 -0.04345,-3.61083z" data-paper-data="{&quot;index&quot;:null}"/><path d="M223.52787,177.26932c-1.3574,0 -2.45779,-0.96898 -2.45779,-2.16431c0,-1.19531 1.1004,-2.16432 2.45779,-2.16432c0.37644,0 0.73312,0.07453 1.05204,0.20774c-0.51068,1.32551 -0.83367,2.71281 -0.98078,4.12c-0.02367,0.00059 -0.04742,0.00089 -0.07126,0.00089z" data-paper-data="{&quot;index&quot;:null}"/><path d="M223.38114,172.64723c-1.41818,0 -2.56784,-0.98543 -2.56784,-2.20101c0,-1.21559 1.14968,-2.201 2.56784,-2.201c1.41735,0 2.56648,0.98428 2.56782,2.19887c-0.35432,0.55146 -0.66839,1.12169 -0.94332,1.70679c-0.44257,0.31024 -1.00818,0.49635 -1.6245,0.49635z" data-paper-data="{&quot;index&quot;:null}"/><path d="M253.2732,167.55799c0.28228,0.06325 0.43844,1.17674 0.42232,2.16241c-0.65406,-0.83981 -1.40065,-1.6218 -2.24164,-2.3334c0.90814,0.05809 1.59471,0.12066 1.81932,0.17099z" data-paper-data="{&quot;index&quot;:null}"/><path d="M254.46089,169.37906c1.41818,0 2.56784,0.95257 2.56784,2.12763c0,0.76635 -0.489,1.43806 -1.22255,1.81262c-0.57811,-1.35845 -1.33265,-2.6361 -2.26874,-3.79852c0.28657,-0.09154 0.59794,-0.14173 0.92345,-0.14173z" data-paper-data="{&quot;index&quot;:null}"/><path d="M254.41589,169.35069c-0.45054,0 -0.87397,-0.09614 -1.24206,-0.26501c-0.37952,-0.43775 -0.78625,-0.85764 -1.22049,-1.25768c-0.06851,-0.19175 -0.10528,-0.3948 -0.10528,-0.60496c0,-1.17506 1.14966,-2.12763 2.56783,-2.12763c1.41818,0 2.56783,0.95257 2.56783,2.12763c0,1.17506 -1.14966,2.12765 -2.56783,2.12765z" data-paper-data="{&quot;index&quot;:null}"/><path d="" data-paper-data="{&quot;index&quot;:null}"/><path d="" data-paper-data="{&quot;index&quot;:null}"/><path d="M242.10984,195.95903c-0.30933,0 -0.60589,-0.04532 -0.88052,-0.12838c0.71758,-0.02774 1.44979,-0.0827 2.18559,-0.16651c-0.38244,0.18736 -0.8286,0.29489 -1.30507,0.29489z" data-paper-data="{&quot;index&quot;:null}"/><path d="M230.90073,196.21581c-1.3574,0 -2.45778,-0.96898 -2.45778,-2.16431c0,-0.70095 0.37841,-1.32408 0.96515,-1.71961c1.13749,0.97051 2.42307,1.77322 3.84222,2.35663c-0.30885,0.88442 -1.24398,1.5273 -2.34959,1.5273z" data-paper-data="{&quot;index&quot;:null}"/><path d="" data-paper-data="{&quot;index&quot;:null}"/></g></g></svg>