<svg version="1.1" xmlns="http://www.w3.org/2000/svg" xmlns:xlink="http://www.w3.org/1999/xlink" width="59.22131" height="103.25983" viewBox="0,0,59.22131,103.25983"><g transform="translate(-198.93314,-139.90709)"><g stroke-miterlimit="10"><path d="M233.85024,205.58251l-7.63608,-13.66773" fill="none" fill-rule="nonzero" stroke="#ffffff" stroke-width="6" stroke-linecap="round"/><path d="M207.96264,206.57137c1.32333,-1.57529 18.74854,-15.84303 18.74854,-15.84303l17.85596,17.17159" fill="none" fill-rule="nonzero" stroke="#ffffff" stroke-width="6" stroke-linecap="round"/><g stroke-linecap="butt"><path d="M253.88209,173.51152c-4.13875,12.67317 -19.05078,19.68947 -33.30698,15.67137c-14.25618,-4.01811 -22.45798,-17.54905 -18.31921,-30.22223c4.13875,-12.67317 19.05078,-19.68947 33.30698,-15.67137c14.25618,4.01811 22.45798,17.54905 18.31921,30.22223z" fill="none" fill-rule="nonzero" stroke="#ffffff" stroke-width="4.5"/><g><g fill-rule="nonzero"><path d="M217.61964,147.10894l-0.00911,-0.0109" fill="#ffab19" stroke="#ffffff" stroke-width="5"/><g fill="none" stroke="none" stroke-width="1" font-family="sans-serif" font-weight="normal" font-size="12" text-anchor="start"/></g><path d="M217.61964,147.10894l-0.00911,-0.0109" fill="#ffab19" fill-rule="nonzero" stroke="#ffffff" stroke-width="5"/><path d="M227.39748,167.30512" fill="#001026" fill-rule="evenodd" stroke="#ffffff" stroke-width="5"/><g fill="none" fill-rule="nonzero" stroke="none" stroke-width="1" font-family="sans-serif" font-weight="normal" font-size="12" text-anchor="start"/><g fill="none" fill-rule="nonzero" stroke="none" stroke-width="1" font-family="sans-serif" font-weight="normal" font-size="12" text-anchor="start"/></g></g><path d="M255.15445,240.16692h-7.75l-12.625,-32.5" fill="none" fill-rule="nonzero" stroke="#ffffff" stroke-width="6" stroke-linecap="round"/><path d="M234.02945,207.04192l-14,28.625l-5.625,0.875" fill="none" fill-rule="nonzero" stroke="#ffffff" stroke-width="6" stroke-linecap="round"/></g></g></svg>