<svg version="1.1" xmlns="http://www.w3.org/2000/svg" xmlns:xlink="http://www.w3.org/1999/xlink" width="722.97372" height="2222.58259" viewBox="0,0,722.97372,2222.58259"><defs><linearGradient x1="242.80781" y1="-1766.57654" x2="242.80781" y2="-49.45943" gradientUnits="userSpaceOnUse" id="color-1"><stop offset="0" stop-color="#000000"/><stop offset="1" stop-color="#000000" stop-opacity="0"/></linearGradient><linearGradient x1="190.91503" y1="243.28671" x2="170.93785" y2="233.07383" gradientUnits="userSpaceOnUse" id="color-2"><stop offset="0" stop-color="#000000"/><stop offset="1" stop-color="#000000" stop-opacity="0"/></linearGradient><linearGradient x1="164.6997" y1="286.84048" x2="150.51013" y2="304.21997" gradientUnits="userSpaceOnUse" id="color-3"><stop offset="0" stop-color="#000000"/><stop offset="1" stop-color="#000000" stop-opacity="0"/></linearGradient><linearGradient x1="177.31996" y1="263.29631" x2="178.92482" y2="264.48981" gradientUnits="userSpaceOnUse" id="color-4"><stop offset="0" stop-color="#008cff"/><stop offset="1" stop-color="#008cff" stop-opacity="0"/></linearGradient><linearGradient x1="177.74342" y1="250.56157" x2="189.61562" y2="259.39072" gradientUnits="userSpaceOnUse" id="color-5"><stop offset="0" stop-color="#008cff"/><stop offset="1" stop-color="#008cff" stop-opacity="0"/></linearGradient><linearGradient x1="165.41146" y1="267.39024" x2="177.28366" y2="276.21939" gradientUnits="userSpaceOnUse" id="color-6"><stop offset="0" stop-color="#008cff"/><stop offset="1" stop-color="#008cff" stop-opacity="0"/></linearGradient></defs><g transform="translate(120.36111,1766.57656)"><g data-paper-data="{&quot;isPaintingLayer&quot;:true}" stroke-miterlimit="10" stroke-dasharray="" stroke-dashoffset="0" style="mix-blend-mode: normal"><path d="M-120,456.00604v-167.14715h718.4985v167.14715z" fill="#ff4800" fill-rule="nonzero" stroke="none" stroke-width="NaN" stroke-linecap="butt" stroke-linejoin="miter"/><path d="M-120.36111,290.27554v-376.87688h719.21922v376.87688z" fill="#ff00f9" fill-rule="nonzero" stroke="none" stroke-width="0" stroke-linecap="butt" stroke-linejoin="miter"/><path d="M-116.997,-49.45943v-1717.11712h719.60961v1717.11712z" fill="url(#color-1)" fill-rule="nonzero" stroke="none" stroke-width="0" stroke-linecap="butt" stroke-linejoin="miter"/><g stroke-linejoin="miter"><path d="M236.14519,261.96098c-6.12281,11.97668 -21.23269,16.49861 -33.74888,10.09999c-12.51617,-6.39861 -17.69903,-21.29474 -11.57621,-33.27142c6.12281,-11.97668 21.23269,-16.49861 33.74888,-10.09999c12.51617,6.39861 17.69903,21.29474 11.57621,33.27142z" fill="none" fill-rule="nonzero" stroke="#000000" stroke-width="4.5" stroke-linecap="butt"/><g stroke-linecap="butt"><g fill-rule="nonzero"><path d="M207.21259,229.49712l0.0065,0.01243" data-paper-data="{&quot;index&quot;:null}" fill="#ffab19" stroke="#000000" stroke-width="5"/><g data-paper-data="{&quot;index&quot;:null}" fill="none" stroke="none" stroke-width="1" font-family="sans-serif" font-weight="normal" font-size="12" text-anchor="start"/></g><path d="M207.21259,229.49712l0.0065,0.01243" data-paper-data="{&quot;index&quot;:null}" fill="#ffab19" fill-rule="nonzero" stroke="#000000" stroke-width="5"/><path d="M212.66671,251.33164" fill="#001026" fill-rule="evenodd" stroke="#000000" stroke-width="5"/><g data-paper-data="{&quot;index&quot;:null}" fill="none" fill-rule="nonzero" stroke="none" stroke-width="1" font-family="sans-serif" font-weight="normal" font-size="12" text-anchor="start"/><g data-paper-data="{&quot;index&quot;:null}" fill="none" fill-rule="nonzero" stroke="none" stroke-width="1" font-family="sans-serif" font-weight="normal" font-size="12" text-anchor="start"/></g><path d="M196.84122,270.20218l-26.11363,-13.61248c0,0 -1.98636,-1.39659 -1.26728,-2.04145c1.6489,-1.4787 10.96115,-6.65182 10.96115,-6.65182l-8.59625,-8.85682c0,0 -1.48455,-1.77403 -1.26856,-2.89818c0.20092,-1.04575 14.60645,-4.19467 14.60645,-4.19467c0,0 -5.71778,-6.9771 -6.80997,-9.76031c-0.42888,-1.0929 14.23212,-2.18991 23.64757,-1.56403c4.60725,0.30626 11.00781,0.49261 15.51667,1.97748c7.47601,2.46202 11.77346,7.23289 11.77346,7.23289" fill="none" fill-rule="nonzero" stroke="#000000" stroke-width="3" stroke-linecap="round"/><path d="M169.06284,255.73863c0,0 0.16698,-1.49133 2.14153,-2.65268c2.47318,-1.45462 8.70797,-1.91822 8.31031,-4.77366c-0.51512,-3.69895 -11.95086,-9.03146 -8.81712,-11.74998c2.57317,-2.23222 13.31457,-2.87754 14.25746,-4.72192c0.94082,-1.8403 -3.69868,-2.80006 -4.77884,-6.44198c-1.53623,-5.1796 0.0674,-4.36604 0.0674,-4.36604c0,0 13.83736,-1.31825 20.02272,-0.90416c5.80325,0.38851 16.01627,3.31688 16.01627,3.31688c0,0 -19.55527,5.44205 -25.11697,11.63825c-6.16523,6.8686 1.00517,31.4188 1.00517,31.4188z" data-paper-data="{&quot;index&quot;:null}" fill="url(#color-2)" fill-rule="nonzero" stroke="none" stroke-width="0" stroke-linecap="butt"/></g><path d="M203.05653,289.4854l0.98643,-15.86593" fill="none" fill-rule="nonzero" stroke="#000000" stroke-width="6" stroke-linecap="round" stroke-linejoin="miter"/><path d="M216.22602,279.65076c0,0 -6.47143,11.50078 -14.05277,12.90742c-5.40603,1.00304 -12.94875,-2.0732 -12.06566,-10.01299c0.88309,-7.9398 14.08281,-8.12302 14.08281,-8.12302c0,0 5.38877,10.98754 7.37268,13.02001c0.33264,0.34078 9.28158,8.63364 9.28158,8.63364" fill="none" fill-rule="nonzero" stroke="#000000" stroke-width="6" stroke-linecap="round" stroke-linejoin="miter"/><g><g><g stroke="#001026" stroke-width="1.2"><path d="M212.18759,288.18719l2.92297,25.98777c0,0 7.06267,0.41252 6.89471,7.51322c-0.00958,0.40481 -0.10976,2.39235 -3.02746,2.97403c-2.79456,0.55712 -8.36532,-0.27515 -10.40081,-0.59138c-0.94539,-0.14688 -2.3855,-0.78756 -3.30585,-1.88454c-0.92663,-1.1045 -0.82654,-2.71079 -0.82591,-3.6144c0.00025,-0.36804 -2.07942,-29.30669 -2.07942,-29.30669" fill="#bf0000" fill-rule="evenodd" stroke-linecap="round" stroke-linejoin="round"/><path d="M202.19131,295.12571c0.17213,-7.27706 5.51843,-7.403 8.30395,-7.33711c1.21125,0.02865 1.04756,-1.91626 2.11947,3.77541c0.23607,1.25353 0.69999,6.3997 1.69204,10.77992c0.67932,2.9994 1.95353,5.64787 2.19159,6.40876c0.56246,1.79781 0.33108,3.4367 0.33108,3.4367l-1.01983,-1.19108c0,0 0.67202,0.83007 0.94114,1.32535c0.83841,1.54291 1.47974,2.70742 1.47974,2.70742c0,0 -7.12324,-0.46 -9.89761,1.80974c-2.77437,2.26974 -1.39961,6.54185 -1.39961,6.54185c0,0 -5.2776,-0.81096 -5.70054,-3.7225c-0.10427,-0.71777 0.71428,-2.85374 0.71428,-2.85374c0,0 -0.60345,0.12082 -0.623,-0.37617c-0.00997,-0.25335 0.79863,-4.01168 0.97828,-8.23959c0.2365,-5.56573 -0.1358,-12.01646 -0.111,-13.06496z" fill="#000000" fill-rule="nonzero" stroke-linecap="butt" stroke-linejoin="miter"/></g><path d="M193.13605,289.95957c-0.00985,-0.21361 1.19871,0.41618 3.93725,0.48896c3.61284,0.09603 9.14579,-0.33359 10.70162,-0.5534c4.03453,-0.57001 4.71727,-2.0872 4.74339,-1.52095c0.09666,2.09545 -2.1854,5.97695 -6.80087,6.18985c-2.02828,0.09356 -6.17685,0.79526 -8.52611,0.05752c-2.9966,-0.94103 -4.00109,-3.48741 -4.05528,-4.662z" fill="#004fd9" fill-rule="nonzero" stroke="#001026" stroke-width="1.2" stroke-linecap="butt" stroke-linejoin="miter"/><g fill-rule="nonzero" stroke-linecap="butt" stroke-linejoin="miter"><g fill="none" stroke="none" stroke-width="1" font-family="sans-serif" font-weight="normal" font-size="12" text-anchor="start"/><path d="M192.64921,288.59674c0,0 8.66928,1.31911 12.65307,1.30072c3.98378,-0.01839 7.26589,-1.39268 7.26589,-1.39268c0,0 0.03136,2.05113 -1.74527,4.04738c-1.37522,1.54522 -4.01823,3.14596 -7.43439,3.17992c-3.11221,0.03094 -6.58434,-0.62286 -8.30303,-1.96446c-2.60502,-2.03348 -2.43626,-5.17089 -2.43626,-5.17089z" fill="#000000" stroke="#001026" stroke-width="1.2"/></g><g stroke="#001026" stroke-width="1.2"><path d="M202.22633,293.79553c0,0 -3.38365,30.23157 -4.0011,30.33136c-1.77192,0.28635 -11.48215,-2.27779 -11.48215,-2.27779l6.24171,-30.39505" data-paper-data="{&quot;index&quot;:null}" fill="#ffab19" fill-rule="evenodd" stroke-linecap="round" stroke-linejoin="round"/><path d="M203.72174,293.30811c0,0 -0.79043,6.39285 -1.0239,9.78248c-0.22392,3.25117 -0.34946,10.15728 -0.34946,10.15728c0,0 0.94919,5.01816 0.02119,6.25564c-0.42981,0.57316 -0.7685,-2.83316 -0.7685,-2.83316c0,0 0.37809,3.84012 0.41532,4.17859c0.25975,2.36159 -0.92568,5.46282 -4.03203,5.75745c-3.41058,0.32348 -9.06481,0.68884 -11.97961,-1.17955c-1.2402,-0.79497 -2.92012,-3.1351 -2.46798,-5.62796c0.50989,-2.8113 3.24812,-5.75646 3.24812,-5.75646l-2.5161,3.21037c0,0 -0.02623,-1.60299 0.38317,-2.77887c0.45976,-1.32051 2.2419,-4.76073 2.2419,-4.76073l5.40244,-19.36098" data-paper-data="{&quot;index&quot;:null}" fill="#000000" fill-rule="evenodd" stroke-linecap="round" stroke-linejoin="round"/><path d="M200.5625,322.24205c-0.08549,1.69749 -0.78288,3.66972 -2.29657,4.69384c-1.51931,1.02791 -10.65038,0.62056 -12.06199,-0.63569c-1.34056,-1.19302 -1.88664,-3.39806 -1.8032,-5.05479c0.1713,-3.40126 3.92809,-5.93544 8.39105,-5.66022c4.46293,0.27521 7.94201,3.2556 7.77069,6.65688z" fill="#ff0000" fill-rule="nonzero" stroke-linecap="butt" stroke-linejoin="miter"/></g></g><g fill="#000000" fill-rule="nonzero" stroke="#001026" stroke-width="1.2" stroke-linecap="butt" stroke-linejoin="miter"><path d="M193.95853,300.10812c0,0 -2.91464,0.45871 -3.8062,0.19582c-0.27445,-0.08094 -1.00713,-1.01546 -1.38187,-2.12887c-0.46772,-1.38965 -0.52949,-3.10267 -0.19917,-4.29925c0.84987,-3.07858 5.23747,-6.43633 7.29477,-5.8297c0.89162,0.2629 3.22424,2.76495 3.22599,2.77122"/></g></g><g fill="#ff0000" fill-rule="nonzero" stroke="none" stroke-linecap="butt" stroke-linejoin="miter"><path d="M210.96774,297.34195c-0.94325,0.0241 -1.72901,-0.78218 -1.75504,-1.80089c-0.02604,-1.01871 0.71752,-1.86408 1.66077,-1.88818c0.94325,-0.0241 1.729,0.78219 1.75504,1.8009c0.02604,1.01871 -0.71751,1.86407 -1.66076,1.88817z" stroke-width="NaN"/><path d="M207.34152,299.8956c-0.86778,0.02218 -1.59003,-0.69391 -1.61318,-1.59943c-0.02314,-0.90552 0.66159,-1.65757 1.52938,-1.67974c0.86778,-0.02218 1.59002,0.69392 1.61317,1.59943c0.02314,0.90552 -0.66159,1.65757 -1.52937,1.67974z" stroke-width="0"/><path d="M210.46463,301.72989c-0.98098,0.02507 -1.79419,-0.6581 -1.81637,-1.52588c-0.02218,-0.86778 0.75509,-1.59159 1.73606,-1.61666c0.98098,-0.02507 1.7942,0.6581 1.81637,1.52589c0.02218,0.86778 -0.75509,1.59158 -1.73607,1.61665z" stroke-width="0"/></g><g fill="#ff0000" fill-rule="nonzero" stroke="none" stroke-linecap="butt" stroke-linejoin="miter"><path d="M194.96349,304.19155c0,1.16699 -1.02172,2.11302 -2.28206,2.11302c-1.26035,0 -2.28207,-0.94603 -2.28207,-2.11302c0,-1.16699 1.02172,-2.11302 2.28207,-2.11302c1.26035,0 2.28206,0.94603 2.28206,2.11302z" stroke-width="NaN"/><path d="M198.00624,308.75568c0,1.07363 -0.90819,1.94398 -2.0285,1.94398c-1.12031,0 -2.0285,-0.87035 -2.0285,-1.94398c0,-1.07363 0.9082,-1.94398 2.0285,-1.94398c1.12031,0 2.0285,0.87035 2.0285,1.94398z" stroke-width="0"/><path d="M194.28732,312.55912c0,1.12031 -0.90819,2.0285 -2.0285,2.0285c-1.12031,0 -2.0285,-0.90819 -2.0285,-2.0285c0,-1.12031 0.90819,-2.0285 2.0285,-2.0285c1.12031,0 2.0285,0.9082 2.0285,2.0285z" stroke-width="0"/></g><g fill="#ff0000" fill-rule="nonzero" stroke="none" stroke-linecap="butt" stroke-linejoin="miter"><path d="M199.58007,297.56923c-0.90339,-0.27236 -1.39729,-1.28408 -1.10314,-2.25975c0.29414,-0.97566 1.26495,-1.54581 2.16834,-1.27345c0.90339,0.27236 1.39728,1.28408 1.10314,2.25975c-0.29414,0.97566 -1.26494,1.54581 -2.16834,1.27345z" stroke-width="NaN"/><path d="M193.26035,295.09294c-0.86726,-0.26146 -1.35835,-1.17647 -1.09689,-2.04373c0.26146,-0.86726 1.17647,-1.35835 2.04372,-1.09689c0.86726,0.26146 1.35835,1.17647 1.09689,2.04373c-0.26146,0.86726 -1.17647,1.35835 -2.04373,1.09689z" stroke-width="0"/><path d="M197.72875,301.57919c-0.93953,-0.28325 -1.49804,-1.18663 -1.24747,-2.01775c0.25057,-0.83112 1.21533,-1.27526 2.15486,-0.99201c0.93953,0.28325 1.49805,1.18664 1.24748,2.01776c-0.25057,0.83112 -1.21534,1.27525 -2.15487,0.992z" stroke-width="0"/></g><path d="M213.091,257.55481l-0.41419,-15.32503" fill="none" fill-rule="nonzero" stroke="#000000" stroke-width="4.5" stroke-linecap="round" stroke-linejoin="miter"/><path d="M221.46061,257.719l-0.41419,-16.5676" fill="none" fill-rule="nonzero" stroke="#000000" stroke-width="4.5" stroke-linecap="round" stroke-linejoin="miter"/><path d="M235.31574,305.55538l-18.03488,-8.10617l2.14776,-10.03433l20.30343,6.28855c0,0 1.84727,6.86749 1.2239,8.28511c-0.59645,1.35641 -5.64022,3.56681 -5.64022,3.56681z" fill="#000000" fill-rule="nonzero" stroke="#0f0f0f" stroke-width="1" stroke-linecap="butt" stroke-linejoin="miter"/><path d="M192.47721,246.55523c10.41933,8.50691 11.65901,24.23012 2.76891,35.11879c-8.8901,10.88867 -24.54348,12.81947 -34.96281,4.31256c-10.41933,-8.50691 -11.65901,-24.23012 -2.76891,-35.11879c8.8901,-10.88867 24.54348,-12.81947 34.96281,-4.31256z" fill="none" fill-rule="nonzero" stroke="#000000" stroke-width="4.5" stroke-linecap="butt" stroke-linejoin="miter"/><path d="M192.25957,286.71328l-18.80482,22.66276c0,0 -1.78346,1.64784 -2.26249,0.80912c-1.09843,-1.92324 -4.19524,-12.11584 -4.19524,-12.11584l-10.46801,6.53909c0,0 -2.0468,1.07782 -3.10028,0.63002c-0.98002,-0.41657 -1.02575,-15.16217 -1.02575,-15.16217c0,0 -8.02444,4.12084 -10.97521,4.60263c-1.15869,0.18919 0.85528,-14.37419 3.44926,-23.44689c1.26931,-4.43953 2.79891,-10.65742 5.19971,-14.75265c3.98068,-6.79017 9.54932,-9.98696 9.54932,-9.98696" fill="none" fill-rule="nonzero" stroke="#000000" stroke-width="3" stroke-linecap="round" stroke-linejoin="miter"/><path d="M172.27229,310.8243c0,0 -1.42275,-0.47719 -2.14241,-2.65197c-0.90138,-2.72397 -0.04204,-8.91664 -2.91721,-9.12902c-3.72449,-0.27512 -11.34495,9.78176 -13.34283,6.14595c-1.64051,-2.98542 -0.0101,-13.62197 -1.61465,-14.93201c-1.601,-1.30715 -3.51594,3.02633 -7.30365,3.31559c-5.38693,0.4114 -4.25402,-0.98502 -4.25402,-0.98502c0,0 1.6243,-13.80477 3.33124,-19.76435c1.60149,-5.59141 6.61425,-14.95907 6.61425,-14.95907c0,0 1.20335,20.26268 6.08987,27.00416c5.41678,7.47303 30.92631,5.63158 30.92631,5.63158z" data-paper-data="{&quot;index&quot;:null}" fill="url(#color-3)" fill-rule="nonzero" stroke="none" stroke-width="0" stroke-linecap="butt" stroke-linejoin="miter"/><path d="M197.16746,282.39898l12.14259,10.25955" fill="none" fill-rule="nonzero" stroke="#000000" stroke-width="6" stroke-linecap="round" stroke-linejoin="miter"/><path d="M212.13738,275.80066c0,0 -1.13006,3.17097 -2.88968,4.12567c-2.80198,1.52024 -10.82557,3.47124 -10.82557,3.47124c0,0 8.52676,-6.46306 8.62289,-6.1139" fill="none" fill-rule="nonzero" stroke="#000000" stroke-width="6" stroke-linecap="round" stroke-linejoin="miter"/><path d="M206.8313,276.98518c0.20435,0.15197 -0.76908,1.28784 -0.24921,1.85622c0.6023,0.65852 1.79662,1.80793 2.96827,2.28877c1.17607,0.48265 2.3281,0.29579 2.1997,0.46844c-0.56028,0.75338 -3.30958,1.23585 -5.27429,-0.22528c-1.96471,-1.46112 -5.06285,-1.51504 -4.50257,-2.26843c0.09638,-0.1296 4.68653,-2.24732 4.85811,-2.11972z" fill="#000000" fill-rule="nonzero" stroke="#0f0f0f" stroke-width="1" stroke-linecap="butt" stroke-linejoin="miter"/><path d="M209.74021,308.16552c0,0 -15.51349,-18.68315 -15.60713,-21.19318c-0.02749,-0.73699 6.48643,-8.78723 6.48643,-8.78723l23.96652,10.95147z" fill="#000000" fill-rule="nonzero" stroke="#0f0f0f" stroke-width="1" stroke-linecap="butt" stroke-linejoin="miter"/><path d="M241.63048,306.455c-1.68508,1.07806 -5.02879,0.05055 -6.54231,-0.63065c-0.14518,-0.06535 2.10586,-2.75008 3.05445,-5.66131c0.24949,-0.76569 1.28271,-3.71515 0.99918,-5.16735c-0.35209,-1.80334 -2.04881,-2.08665 -1.73621,-2.28522c0.11705,-0.07435 7.49138,-6.84683 9.74179,-6.03088c0.36344,0.13178 1.21862,1.09046 1.51681,2.31018c0.26066,1.06624 -0.00393,2.39506 -0.08527,2.71588c-1.35351,5.33895 -5.93952,14.10384 -6.94845,14.74933z" fill="#000000" fill-rule="nonzero" stroke="#001026" stroke-width="1.2" stroke-linecap="butt" stroke-linejoin="miter"/><path d="M169.82391,261.81334c0,0 0.87898,-2.07071 1.52278,-2.96326c0.69187,-0.95919 2.49463,-2.60636 2.49463,-2.60636" fill="url(#color-4)" fill-rule="nonzero" stroke="#705021" stroke-width="2" stroke-linecap="round" stroke-linejoin="miter"/><g fill-rule="nonzero" stroke="#705021" stroke-width="2" stroke-linecap="butt" stroke-linejoin="miter"><path d="M193.29695,253.95829c-0.00758,0.25303 -7.41271,10.65605 -7.68778,10.71118c-0.61482,0.12322 -11.87455,-7.7328 -12.00865,-8.21687c-0.09201,-0.33213 8.2659,-11.47392 8.48715,-11.5287c0.55706,-0.13793 11.23151,8.29295 11.20929,9.03439z" fill="url(#color-5)"/><path d="M161.2624,273.17313c-0.0112,-0.22767 8.25406,-11.43835 8.59862,-11.44581c0.50218,-0.01087 11.26616,8.51178 11.32509,9.13604c0.02636,0.27931 -7.80557,10.36491 -8.04571,10.445c-0.70368,0.23466 -11.84977,-7.56204 -11.87799,-8.13523z" data-paper-data="{&quot;index&quot;:null}" fill="url(#color-6)"/></g><path d="M220.52113,303.34324c0.50025,0.87275 0.29539,1.93011 -0.45757,2.3617c-0.75296,0.43159 -1.76888,0.07396 -2.26913,-0.7988c-0.50025,-0.87275 -0.29539,-1.93011 0.45757,-2.3617c0.75296,-0.43159 1.76888,-0.07396 2.26913,0.7988z" fill="#ff0000" fill-rule="nonzero" stroke="#0f0f0f" stroke-width="0" stroke-linecap="butt" stroke-linejoin="miter"/><path d="M222.37473,303.46714c0.50025,0.87274 0.29539,1.93011 -0.45757,2.3617c-0.75295,0.43158 -1.76888,0.07396 -2.26913,-0.7988c-0.50025,-0.87274 -0.29539,-1.93011 0.45757,-2.3617c0.75295,-0.43158 1.76888,-0.07396 2.26913,0.7988z" fill="#ff0000" fill-rule="nonzero" stroke="#0f0f0f" stroke-width="0" stroke-linecap="butt" stroke-linejoin="miter"/><path d="M215.85487,303.86822c0.50025,0.87274 0.29539,1.93011 -0.45757,2.3617c-0.75295,0.43158 -1.76888,0.07396 -2.26913,-0.7988c-0.50025,-0.87274 -0.29539,-1.93011 0.45757,-2.3617c0.75295,-0.43158 1.76888,-0.07396 2.26913,0.7988z" fill="#ff0000" fill-rule="nonzero" stroke="#0f0f0f" stroke-width="0" stroke-linecap="butt" stroke-linejoin="miter"/><path d="M229.9292,296.99807c0.92945,0.35267 1.41291,1.35019 1.07982,2.228c-0.33308,0.87781 -1.35657,1.30353 -2.28602,0.95085c-0.92945,-0.35267 -1.41291,-1.35019 -1.07982,-2.228c0.33308,-0.87781 1.35657,-1.30353 2.28602,-0.95085z" fill="#ff0000" fill-rule="nonzero" stroke="none" stroke-width="0" stroke-linecap="butt" stroke-linejoin="miter"/><path d="M229.10602,291.97963c0.852,0.32329 1.27267,1.29697 0.93958,2.17479c-0.33308,0.87781 -1.29378,1.32736 -2.14577,1.00406c-0.852,-0.32329 -1.27267,-1.29697 -0.93958,-2.17479c0.33308,-0.87781 1.29378,-1.32736 2.14577,-1.00406z" fill="#ff0000" fill-rule="nonzero" stroke="none" stroke-width="0" stroke-linecap="butt" stroke-linejoin="miter"/><path d="M235.03931,298.18838c0.82618,0.31349 1.23385,1.2583 0.91057,2.11029c-0.32329,0.852 -1.25511,1.28855 -2.08128,0.97506c-0.82618,-0.31349 -1.23385,-1.2583 -0.91057,-2.11029c0.32329,-0.852 1.25511,-1.28855 2.08128,-0.97506z" fill="#ff0000" fill-rule="nonzero" stroke="none" stroke-width="0" stroke-linecap="butt" stroke-linejoin="miter"/><path d="M223.79694,295.6597c0.57612,0.42845 0.70919,1.22485 0.29722,1.77881c-0.41197,0.55396 -1.21298,0.65571 -1.78909,0.22726c-0.57612,-0.42845 -0.70919,-1.22485 -0.29722,-1.77881c0.41197,-0.55396 1.21298,-0.65571 1.78909,-0.22726z" fill="#ff0000" fill-rule="nonzero" stroke="none" stroke-width="0" stroke-linecap="butt" stroke-linejoin="miter"/><path d="M183.59481,280.45709c0,0 -4.00441,5.02996 -5.57575,5.90173c-1.28425,0.7125 -3.16595,-1.05188 -3.16595,-1.05188" fill="none" fill-rule="nonzero" stroke="#000000" stroke-width="1.5" stroke-linecap="round" stroke-linejoin="miter"/><g fill="#ff0000" fill-rule="nonzero" stroke="none" stroke-linecap="butt" stroke-linejoin="miter"><path d="M207.72943,305.07653c0.36529,1.10834 -0.30897,2.32666 -1.50599,2.72116c-1.19701,0.39451 -2.46351,-0.18418 -2.8288,-1.29253c-0.36529,-1.10835 0.30897,-2.32665 1.50599,-2.72116c1.19701,-0.39451 2.46351,0.18418 2.8288,1.29252z" stroke-width="NaN"/><path d="M207.95267,315.22081c0.33606,1.01968 -0.25405,2.13057 -1.31807,2.48124c-1.06402,0.35067 -2.199,-0.19166 -2.53507,-1.21134c-0.33606,-1.01968 0.25406,-2.13057 1.31808,-2.48125c1.06402,-0.35067 2.19899,0.19167 2.53505,1.21134z" stroke-width="0"/><path d="M213.34926,312.33052c0.35067,1.06402 -0.2276,2.21084 -1.29162,2.56151c-1.06402,0.35067 -2.21084,-0.2276 -2.56151,-1.29162c-0.35067,-1.06402 0.2276,-2.21085 1.29161,-2.56152c1.06402,-0.35067 2.21085,0.22761 2.56152,1.29162z" stroke-width="0"/></g><g fill-rule="nonzero" stroke-linejoin="miter"><path d="M172.3152,265.62535c0,0 3.35461,1.70011 4.79043,5.82287c0.14342,0.41179 -5.39538,4.91248 -5.6127,4.65131c-0.82474,-0.99121 -1.42159,-2.25911 -3.48426,-3.94604c-1.49409,-1.22194 4.30653,-6.52814 4.30653,-6.52814z" data-paper-data="{&quot;index&quot;:null}" fill="#000000" stroke="none" stroke-width="0" stroke-linecap="butt"/><path d="M171.60339,266.34646l-5.9306,5.61696" fill="none" stroke="#000000" stroke-width="2.5" stroke-linecap="round"/></g><g fill-rule="nonzero" stroke-linejoin="miter"><path d="M184.23536,250.63357c0,0 3.33985,1.72895 4.7401,5.86392c0.13986,0.41301 -5.4375,4.86582 -5.65256,4.60279c-0.81617,-0.99827 -1.40207,-2.27127 -3.45014,-3.97591c-1.48351,-1.23476 4.3626,-6.4908 4.3626,-6.4908z" data-paper-data="{&quot;index&quot;:null}" fill="#000000" stroke="none" stroke-width="0" stroke-linecap="butt"/><path d="M183.51737,251.34853l-5.97877,5.56566" fill="none" stroke="#000000" stroke-width="2.5" stroke-linecap="round"/></g><path d="M232.21174,219.72596l-15,21.75l-17.75,-0.5" fill="none" fill-rule="nonzero" stroke="#000000" stroke-width="4.5" stroke-linecap="round" stroke-linejoin="miter"/><path d="M219.71174,267.97596c0,0 -10.40009,1.67101 -13.90781,-0.17516c-2.33733,-1.23018 -5.09219,-9.82484 -5.09219,-9.82484" fill="none" fill-rule="nonzero" stroke="#000000" stroke-width="2.5" stroke-linecap="round" stroke-linejoin="miter"/><g fill-rule="nonzero" stroke-linecap="butt" stroke-linejoin="miter"><g data-paper-data="{&quot;index&quot;:null}" stroke="none" stroke-width="1"><path d="M210.12425,292.4647c0.08335,0.19495 0.0039,0.3201 -0.11546,0.45037c-0.20478,0.19043 -0.44391,0.33596 -0.66021,0.51135c-0.00831,0.07504 -0.01664,0.15008 -0.01071,0.21507c0.05593,1.39044 -0.46518,2.54178 -1.20054,3.61346c-0.15615,0.22536 -0.30088,0.46574 -0.52858,0.62616c-0.04272,0.03007 -0.08816,0.08519 -0.09369,0.13524c-0.03048,0.27518 -0.21546,0.40555 -0.40326,0.56095c-0.15929,0.13533 -0.34153,0.2407 -0.51232,0.36103c-0.09961,0.0702 -0.22216,0.11044 -0.3621,0.07069c-0.13991,-0.03978 -0.28815,-0.0045 -0.42212,0.02077c-0.74669,0.22639 -1.53091,0.31783 -2.3412,0.28928c-0.45652,-0.02421 -0.89051,-0.13345 -1.33595,-0.25771c-1.31066,-0.36781 -2.43985,-1.07105 -3.42435,-2.01463c-0.43789,-0.42939 -0.8161,-0.9239 -1.13738,-1.45851c-0.24382,-0.4047 -0.36509,-0.84967 -0.4607,-1.28966c-0.30417,-1.40002 -0.10597,-2.71584 0.46342,-3.94729c0.10479,-0.23527 0.27239,-0.44565 0.44001,-0.65603c0.1079,-0.14525 0.19016,-0.29547 0.16096,-0.50548c-0.03196,-0.185 0.05025,-0.33519 0.16962,-0.46545c0.20478,-0.19043 0.43248,-0.35088 0.6602,-0.51134c0.07118,-0.05015 0.15103,-0.06031 0.23088,-0.07043c0.30236,-0.00555 0.55022,-0.11103 0.78939,-0.25653c0.49532,-0.32602 1.0768,-0.48209 1.64679,-0.65314c0.21663,-0.06039 0.44468,-0.10585 0.68146,-0.11129c0.76444,-0.03138 1.51193,-0.0277 2.27713,0.17099c0.21345,-0.15043 0.45263,-0.2959 0.6803,-0.4564c0.08541,-0.06018 0.18501,-0.13038 0.31069,-0.08057c0.11421,0.03481 0.18818,-0.04034 0.27353,-0.10052c0.58069,-0.3862 1.14994,-0.78734 1.73064,-1.17351c1.27806,-0.87758 2.57028,-1.76524 3.87123,-2.61286c1.2725,-0.82756 2.51057,-1.70011 3.76015,-2.55763c0.19923,-0.14042 0.40716,-0.2408 0.60637,-0.38122c0.9677,-0.68197 1.93545,-1.36394 2.91461,-2.03094c0.17076,-0.12034 0.31864,-0.27065 0.54392,-0.29104c0.07987,-0.01016 0.13954,-0.07526 0.21071,-0.1254c0.71155,-0.50148 1.4488,-0.99797 2.16037,-1.49942c0.02847,-0.02006 0.07117,-0.05013 0.09961,-0.0702c0.21623,-0.17547 0.41032,-0.15079 0.6704,-0.0112c0.86598,0.47362 1.51293,1.14771 1.94091,2.02225c0.10629,0.22489 0.18412,0.46983 0.22204,0.71985c0.03197,0.18501 -0.03602,0.32518 -0.16684,0.44045c-0.39257,0.34582 -0.77364,0.70664 -1.18045,1.06249c-0.29018,0.25062 -0.61749,0.48129 -0.87326,0.77685c-0.55702,0.64621 -1.26581,1.12266 -1.85718,1.72395c-0.33837,0.33072 -0.63964,0.68142 -0.9895,0.99717c-0.37832,0.33579 -0.7195,0.69154 -1.07208,1.0323c-0.64558,0.61637 -1.32829,1.2128 -1.96238,1.84417c-0.81595,0.85174 -1.67777,1.64362 -2.53955,2.43543c-0.29297,0.27563 -0.58582,0.55124 -0.87879,0.82687c-0.46647,0.42101 -0.94717,0.85199 -1.41364,1.27295c-0.26169,0.23057 -0.48627,0.48104 -0.74793,0.71162c-0.2645,0.25559 -0.53485,0.44611 -0.82504,0.69674zM209.63851,292.2305c-0.05213,-0.24 -0.13273,-0.45993 -0.26746,-0.66477c-0.16991,-0.47987 -0.45087,-0.90453 -0.73188,-1.32917c-0.34699,-0.53959 -0.76232,-1.05403 -1.16624,-1.55349c-0.46121,-0.57439 -1.03034,-1.00353 -1.62517,-1.43766c-0.07432,-0.03988 -0.1486,-0.07977 -0.26005,-0.13957c-0.11385,0.08021 -0.22766,0.16049 -0.34151,0.2407c-0.02847,0.02006 -0.04548,0.0551 -0.0767,0.10017c0.08021,0.1049 0.17468,0.19977 0.28337,0.28461c0.18023,0.14973 0.3205,0.30455 0.5007,0.45428c0.4292,0.38938 0.74185,0.88401 1.12835,1.30346c0.19762,0.22972 0.42364,0.43941 0.59279,0.68919c0.35845,0.55457 0.78801,1.05898 1.08951,1.65364c0.07469,0.15494 0.16085,0.3248 0.23552,0.47977c-0.03956,0.12013 0.08063,0.21993 0.10946,0.31494c0.02606,0.11999 0.05214,0.24001 0.19244,0.39478c0.10479,-0.23527 0.32417,-0.3207 0.44911,-0.50096c-0.04306,-0.08497 -0.00355,-0.20506 -0.11223,-0.28991zM209.66396,291.29013c0.1355,0.43493 0.19004,0.53485 0.3675,0.70962c0.15929,-0.13533 0.30439,-0.26067 0.46371,-0.39599c0.09961,-0.0702 0.12496,-0.18027 0.09887,-0.3003c-0.01739,-0.08004 -0.07468,-0.15491 -0.09207,-0.23491c-0.07227,-0.295 -0.22443,-0.57982 -0.42204,-0.80955c-0.0091,-0.15504 -0.10073,-0.27491 -0.19244,-0.39482c-0.50149,-0.68435 -0.97735,-1.36376 -1.54998,-1.99798c-0.25768,-0.27965 -0.52959,-0.54929 -0.80426,-0.79386c-0.22887,-0.18469 -0.46915,-0.38432 -0.77746,-0.44378c-0.18501,0.1304 -0.36997,0.26078 -0.55501,0.39116c0.12012,0.09982 0.22885,0.18469 0.32603,0.25452c0.43473,0.33937 0.84103,0.69875 1.19039,1.09829c0.45526,0.50939 0.83939,1.06892 1.23776,1.61839c0.19485,0.25476 0.29284,0.55467 0.50189,0.7994c0.00355,0.20506 0.10391,0.36495 0.20704,0.49981zM224.08199,278.26968c-0.07506,-0.26997 -0.22125,-0.4898 -0.39593,-0.68954c0.00277,-0.02499 -0.00593,-0.06502 -0.01741,-0.08002c-0.28929,-0.34961 -0.60703,-0.67918 -0.98726,-0.91859c-0.22017,-0.1447 -0.42606,-0.29937 -0.69719,-0.33887c-0.79696,0.56164 -1.59384,1.12327 -2.43354,1.71495c0.43157,0.24934 0.77786,0.55883 1.10978,0.87833c0.29762,0.27459 0.48412,0.60438 0.75326,0.899c0.09169,0.11986 0.1577,0.2348 0.2494,0.35468c0.06635,0.22995 0.17266,0.45486 0.33033,0.68965c0.42694,-0.30088 0.73372,-0.70158 1.10927,-1.01237c0.37832,-0.3358 0.74519,-0.6866 1.10926,-1.01237c-0.00354,-0.20505 -0.06673,-0.34501 -0.12999,-0.48494zM221.50808,280.66014c-0.00913,-0.15504 -0.08652,-0.28497 -0.17822,-0.40481c-0.03474,-0.16002 -0.15214,-0.28487 -0.24103,-0.42973c-0.3067,-0.42962 -0.6845,-0.8091 -1.07931,-1.1535c-0.24028,-0.19962 -0.50907,-0.37921 -0.81181,-0.48871c-0.05695,0.04011 -0.1253,0.06524 -0.18222,0.10539c-0.69737,0.49142 -1.38041,0.97278 -2.0892,1.44925c-0.75146,0.50652 -1.48871,1.00304 -2.2402,1.50956c-1.09303,0.74725 -2.18328,1.46941 -3.27629,2.21666c-1.23256,0.82249 -2.41651,1.67994 -3.672,2.47245c-0.2107,0.12541 -0.41268,0.29088 -0.62617,0.44128c0.18299,0.1247 0.38297,0.21437 0.5375,0.35916c0.52921,0.43421 0.98447,0.9436 1.4113,1.47302c0.36673,0.47951 0.71924,0.96906 1.07175,1.45865c0.12053,0.21488 0.24383,0.4047 0.36435,0.61958c0.00628,0.18004 0.1379,0.29486 0.20115,0.4348c0.07469,0.15494 0.10944,0.31492 0.23829,0.45475c0.16523,-0.07033 0.25618,-0.18054 0.34431,-0.26571c0.71358,-0.75657 1.53306,-1.40327 2.281,-2.11486c0.48348,-0.45604 0.96698,-0.91206 1.43895,-1.3831c0.64558,-0.61637 1.26542,-1.23769 1.89674,-1.84405c0.51468,-0.50111 1.02942,-1.00221 1.55559,-1.48832c0.55742,-0.53118 1.11206,-1.03733 1.68092,-1.55356c0.51194,-0.47609 1.03809,-0.96221 1.55281,-1.46332c-0.0889,-0.14486 -0.0723,-0.29498 -0.1782,-0.40482zM198.61059,289.09408c0.38018,0.2394 0.67781,0.51401 0.98964,0.77851c0.32331,0.27953 0.64936,0.534 0.95841,0.82358c0.29761,0.2746 0.57822,0.58422 0.86156,0.86883c0.29485,0.29962 0.58967,0.59917 0.88172,0.92375c0.26912,0.29462 0.53549,0.6143 0.80463,0.90893c0.26634,0.31964 0.47581,0.6794 0.79911,0.95893c0.15528,0.37482 0.46434,0.66441 0.69081,0.98911c0.22365,0.34972 0.48728,0.6944 0.71095,1.04412c0.21219,0.33474 0.42163,0.69451 0.61962,1.03927c0.20944,0.35978 0.35048,0.74469 0.60262,1.07431c0.36448,-0.21073 0.46407,-0.28091 0.62856,-0.58133c-0.06635,-0.22995 -0.13272,-0.45995 -0.2505,-0.69979c-0.15214,-0.28484 -0.30426,-0.56966 -0.45362,-0.87954c-0.29003,-0.5797 -0.58289,-1.13438 -0.98399,-1.65887c-0.27506,-0.35965 -0.56437,-0.70927 -0.78249,-1.10905c-0.04306,-0.08497 -0.11185,-0.17486 -0.20904,-0.24469c-0.18024,-0.14971 -0.31497,-0.35459 -0.45252,-0.53438c-0.50427,-0.65935 -1.09392,-1.25852 -1.68638,-1.83267c-0.76713,-0.77393 -1.61092,-1.44769 -2.49744,-2.09131c-0.16875,-0.13473 -0.33751,-0.2695 -0.55727,-0.29907c-0.2364,0.12046 -0.43843,0.2859 -0.67441,0.52137zM201.54723,296.34147c0.27669,-0.01052 0.50755,-0.08094 0.74984,-0.1364c0.21385,-0.03537 0.39608,-0.14075 0.52101,-0.32104c0.25855,-0.32057 0.56571,-0.60626 0.91873,-0.83194c0.02847,-0.02006 0.05973,-0.0651 0.07393,-0.07513c-0.01462,-0.10499 -0.06048,-0.16492 -0.16046,-0.2098c-0.02567,-0.00497 -0.06562,0.00011 -0.07986,0.01016c-0.44711,0.2459 -0.91708,0.46179 -1.41002,0.64775c-0.0684,0.02511 -0.16522,0.07032 -0.19924,0.14043c-0.18187,0.2204 -0.3637,0.4408 -0.41395,0.77604zM204.38375,295.72623c-0.41861,0.22584 -0.84593,0.41164 -1.27047,0.57244c-0.13674,0.05027 -0.22492,0.13545 -0.30438,0.26065c-0.11345,0.19526 -0.17555,0.40047 -0.25189,0.61569c-0.034,0.07009 -0.08224,0.15018 0.01499,0.22005c0.29924,-0.09557 0.59572,-0.16615 0.87202,-0.29166c0.40286,-0.67598 0.40286,-0.67595 1.07449,-1.17233c0.00833,-0.07504 -0.02332,-0.14501 -0.13476,-0.20484zM202.97332,291.04705c0.30202,-0.12058 0.59257,-0.25617 0.88312,-0.39174c0.0684,-0.02511 0.13677,-0.05026 0.18222,-0.10536c0.14748,-0.26533 0.30638,-0.51575 0.35388,-0.82595c-0.30829,-0.05948 -0.55613,0.04601 -0.82416,0.09651c-0.13398,0.02523 -0.20791,0.10042 -0.27315,0.21558c-0.13602,0.28032 -0.29497,0.53074 -0.47958,0.7761c-0.01424,0.01003 -0.00557,0.05001 -0.01109,0.10002c0.0486,0.03492 0.10873,0.08487 0.16877,0.13475zM199.21245,293.37464c0.37669,0.03434 0.65893,-0.02618 0.9526,-0.07174c0.10832,-0.03019 0.16799,-0.09533 0.22768,-0.16046c0.27276,-0.33062 0.57999,-0.61626 0.94721,-0.85201c0.0427,-0.03007 0.07393,-0.07514 0.11661,-0.10525c-0.11184,-0.17488 -0.14899,-0.19481 -0.26283,-0.11457c-0.37003,0.26079 -0.78312,0.43656 -1.22501,0.51738c-0.26801,0.05049 -0.42733,0.18582 -0.55504,0.39114c-0.05379,0.13016 -0.10481,0.23527 -0.20127,0.3955zM203.04563,293.94797c-0.05731,-0.07491 -0.12571,-0.04974 -0.18265,-0.00965c-0.39847,0.28079 -0.87437,0.43172 -1.35033,0.58261c-0.38183,0.13074 -0.66332,0.42135 -0.80449,0.86675c0.2083,0.01463 0.36209,-0.07068 0.54746,-0.08602c0.385,-0.04071 0.65537,-0.23126 0.89419,-0.49178c0.26724,-0.28058 0.52306,-0.57615 0.85904,-0.76684c0.0312,-0.04508 0.03403,-0.07009 0.03677,-0.09512zM200.02888,294.41349c0.23953,-0.03042 0.41071,-0.03571 0.57038,-0.05602c0.26523,-0.02551 0.44746,-0.13086 0.60086,-0.33118c0.20162,-0.28046 0.46331,-0.51102 0.73646,-0.72658c0.08818,-0.08518 0.20202,-0.16542 0.30162,-0.23561c-0.04306,-0.08497 -0.0972,-0.06986 -0.12567,-0.04979c-0.47,0.21595 -0.95145,0.41684 -1.46456,0.5478c-0.08262,0.03517 -0.15099,0.0603 -0.21069,0.12542c-0.14194,0.21534 -0.29533,0.41567 -0.40841,0.72597zM202.10901,290.20329c0.22455,-0.25051 0.51509,-0.38605 0.79419,-0.53662c0.07115,-0.05014 0.16247,-0.04531 0.21069,-0.12541c0.07948,-0.12521 0.16964,-0.46549 0.17166,-0.72059c-0.22256,-0.00462 -0.41623,0.08577 -0.61865,0.13614c-0.16247,0.04532 -0.26485,0.14052 -0.32139,0.29567c-0.10757,0.26026 -0.23803,0.49061 -0.43135,0.69603c-0.01425,0.01002 -0.01976,0.06006 -0.02253,0.08505c0.03162,0.06999 0.07744,0.12993 0.21738,0.16967zM206.96776,294.66624c0.13045,-0.23032 0.38388,-0.38582 0.46573,-0.65107c-0.09445,-0.09486 -0.2,-0.0897 -0.30277,-0.10951c-0.19409,-0.02465 -0.37112,-0.08437 -0.58497,-0.04898c-0.18742,0.27042 -0.49493,0.44106 -0.70801,0.70652c0.01462,0.10499 0.07189,0.17993 0.15769,0.23479c0.31071,-0.0806 0.63009,-0.12119 0.97238,-0.1318zM204.46519,292.73997c0.16523,-0.07033 0.33045,-0.14063 0.48737,-0.13591c0.37943,0.00934 0.60991,-0.17617 0.76015,-0.46654c0.05102,-0.1051 0.13642,-0.16529 0.15305,-0.3154c-0.25695,-0.04955 -0.4937,-0.04415 -0.73045,-0.03868c-0.06562,0.00012 -0.12252,0.04025 -0.18221,0.10536c-0.16762,0.2104 -0.33247,0.39574 -0.50009,0.60611c-0.04272,0.03007 -0.07671,0.10019 0.01224,0.24508zM205.18726,293.68404c0.35892,-0.1607 0.71231,-0.27135 1.089,-0.23702c0.07707,0.01486 0.12253,-0.04024 0.17945,-0.08035c0.11662,-0.10525 0.2218,-0.2255 0.28109,-0.40565c-0.35971,-0.0694 -0.6621,-0.06383 -0.9787,-0.04826c-0.10553,0.00519 -0.18815,0.04033 -0.26208,0.11551c-0.13367,0.14026 -0.27871,0.26561 -0.41233,0.4059c-0.01425,0.01002 -0.01977,0.06007 -0.02254,0.08507c0.03437,0.04496 0.06877,0.08993 0.12608,0.16479zM199.03875,291.7443c-0.09645,0.16023 -0.2072,0.33048 -0.30368,0.49073c-0.00277,0.02499 -0.00554,0.05004 -0.01108,0.10004c0.25415,0.07459 0.4937,0.04415 0.69608,-0.00621c0.36095,-0.41582 0.69341,-0.81153 1.17728,-1.15253c-0.38816,-0.04933 -0.53559,0.21605 -0.75499,0.30146c-0.26208,0.1155 -0.53283,0.19102 -0.8036,0.26654zM201.36618,296.792c-0.05617,0.27019 -0.13523,0.51045 -0.07441,0.79043c0.14545,-0.01024 0.27392,0.01452 0.39369,-0.00074c0.11976,-0.01524 0.25098,-0.01546 0.35059,-0.08568c0.09367,-0.13522 0.09885,-0.30028 0.14116,-0.44541c0.04228,-0.14512 0.1218,-0.27032 0.10127,-0.44034c-0.30794,0.0556 -0.59014,0.11608 -0.91231,0.18168zM205.14571,296.66521c-0.47275,0.24093 -0.86292,0.44674 -1.25307,0.65248c-0.02847,0.02006 -0.08264,0.03513 -0.08816,0.08518c-0.0763,0.21521 -0.20402,0.42052 -0.15466,0.68552c0.24508,-0.08046 0.47593,-0.15092 0.69533,-0.23636c0.17835,-0.42548 0.45386,-0.78108 0.80058,-1.18686zM205.12362,290.82307c-0.20278,-0.06467 -0.368,0.00566 -0.52769,0.02595c-0.18539,0.01532 -0.33638,0.07561 -0.44706,0.24588c-0.15616,0.22535 -0.31233,0.45073 -0.56296,0.58124c0.05177,0.12498 0.11184,0.17488 0.19723,0.1147c0.2249,-0.13546 0.46409,-0.28092 0.71785,-0.32139c0.36209,-0.07068 0.48391,-0.341 0.62266,-0.64638zM205.9451,292.52724c0.39091,0.0243 0.70199,0.05875 1.00158,0.07825c0.09961,-0.0702 0.12219,-0.15528 0.15614,-0.22535c0.02254,-0.08507 0.08498,-0.17518 0.03325,-0.30013c-0.23995,-0.08463 -0.49682,-0.13416 -0.75651,-0.15875c-0.1506,0.17532 -0.27554,0.35562 -0.43448,0.60599zM204.84312,289.68318c-0.11033,0.28529 -0.20362,0.53556 -0.3112,0.79582c0.26523,-0.02549 0.51625,-0.04095 0.76724,-0.0564c0.10479,-0.23527 0.21828,-0.43054 0.20878,-0.70061c-0.23121,-0.04461 -0.4423,-0.03422 -0.66483,-0.03883zM200.36062,296.39365c0.22291,0.11965 0.4423,0.03422 0.65337,0.02386c0.06562,-0.00012 0.12531,-0.06523 0.14508,-0.12532c0.07356,-0.19021 0.14434,-0.35539 0.20368,-0.53554c0.01424,-0.01003 -0.00872,-0.04001 -0.03162,-0.06999c-0.27948,0.03549 -0.56166,0.09607 -0.84114,0.13156c-0.08501,0.17519 -0.10717,0.37531 -0.12932,0.57544zM199.04829,293.79001c-0.11068,0.17026 -0.20716,0.33047 -0.18075,0.56552c0.21978,0.0296 0.46246,0.08921 0.69055,0.0438c0.06525,-0.11515 0.15339,-0.20036 0.19292,-0.32045c0.05102,-0.1051 0.17634,-0.17035 0.11586,-0.33531c-0.27669,0.0105 -0.55336,0.021 -0.81864,0.04647zM204.45114,289.31381c0.08223,-0.1502 0.05024,-0.33522 0.03248,-0.53024c-0.26247,0.00043 -0.50515,-0.05909 -0.75023,0.02133c-0.02217,0.20013 -0.12139,0.38535 -0.10917,0.63043c0.27948,-0.03549 0.54747,-0.08599 0.82692,-0.12151zM201.17077,289.43465c0.26762,-0.16554 0.50361,-0.40107 0.79421,-0.5366c0.23639,-0.12047 0.26996,-0.3056 0.24631,-0.56565c-0.23675,0.00543 -0.41623,0.08577 -0.62136,0.16118c-0.07869,0.35526 -0.29177,0.62077 -0.4191,0.9411zM205.58825,297.64478c-0.06007,-0.04992 -0.10274,-0.01981 -0.14545,0.01024c-0.19645,0.11538 -0.39571,0.2558 -0.60364,0.35621c-0.31622,0.13063 -0.34393,0.38078 -0.35147,0.68591c0.12257,-0.04025 0.2166,-0.06042 0.29922,-0.09558c0.20514,-0.07542 0.37313,-0.17072 0.42656,-0.4159c0.04229,-0.14512 0.1475,-0.26536 0.23839,-0.37559c0.0684,-0.02511 0.16245,-0.04531 0.13639,-0.16528zM207.83649,295.11482c-0.11421,-0.03481 -0.20554,-0.03966 -0.2826,-0.05451c-0.22844,-0.06962 -0.39094,-0.02431 -0.53877,0.12601c-0.11939,0.13023 -0.28742,0.22558 -0.41825,0.34086c-0.04272,0.03008 -0.09685,0.04519 -0.03086,0.16013c0.25656,-0.06545 0.53602,-0.10102 0.82417,-0.09651c0.06562,-0.00012 0.13673,-0.05025 0.19368,-0.09035c0.09092,-0.11017 0.16765,-0.21039 0.25263,-0.38559zM205.5944,290.8373c-0.09646,0.16022 -0.21862,0.31548 -0.26647,0.51068c0.27116,0.03951 0.52529,0.1141 0.79052,0.08863c0.07354,-0.19021 0.18147,-0.33542 0.1408,-0.56045c-0.21979,-0.02962 -0.43678,-0.08428 -0.66483,-0.03882zM200.56643,294.77272c-0.27114,-0.0395 -0.51069,-0.00906 -0.72727,0.05135c-0.07355,0.19019 -0.1443,0.35538 -0.16925,0.58052c0.1771,0.05971 0.34824,0.05438 0.52215,0.02406c0.11623,-0.22028 0.24394,-0.42559 0.37443,-0.65591zM207.26901,291.70962c0.03087,-0.16014 0.06763,-0.2552 0.06723,-0.37026c0.00831,-0.07504 0.0024,-0.14005 -0.00354,-0.20509c-0.18575,-0.0997 -0.38852,-0.16437 -0.59961,-0.154c-0.08501,0.17519 -0.16999,0.35042 -0.155,0.5705c0.23121,0.04461 0.43399,0.10926 0.6909,0.15883zM206.96789,296.44187c0.29686,0.04447 0.50235,0.08413 0.74783,0.11872c0.0684,-0.02511 0.15653,-0.11028 0.20754,-0.21544c0.06245,-0.09014 0.185,-0.13038 0.18739,-0.27044c-0.14585,-0.10478 -0.28576,-0.14454 -0.4427,-0.14927c-0.21624,0.17545 -0.42972,0.32587 -0.7001,0.51642zM200.88653,297.56813c0.01384,-0.1251 0.0277,-0.25017 0.04159,-0.37521c0.01383,-0.12511 0.01344,-0.24012 0.02731,-0.36518c-0.23674,0.00541 -0.43085,-0.01925 -0.6103,0.06108c-0.051,0.10512 -0.0107,0.21509 0.00388,0.32009c0.01462,0.10499 -0.01344,0.24012 0.08098,0.33497c0.16843,0.01971 0.30829,0.05948 0.45655,0.02419zM205.94473,289.80625c-0.0506,0.22017 -0.16412,0.41546 -0.14039,0.67553c0.19408,0.02464 0.37669,0.03433 0.57077,0.05901c0.05061,-0.22016 0.10996,-0.40034 0.04357,-0.63032c-0.15138,-0.05475 -0.27431,-0.12958 -0.47393,-0.10421zM203.28308,297.60885c-0.32492,0.0906 -0.60992,0.17613 -0.89488,0.26167c-0.03956,0.12013 -0.09059,0.22525 -0.0388,0.3502c0.28262,0.05452 0.53914,-0.01095 0.80713,-0.06147c0.03956,-0.12013 0.07911,-0.24022 0.09296,-0.36528c0.04548,-0.05511 0.03676,-0.09509 0.03364,-0.1851zM207.24465,292.99509c-0.08775,0.20025 -0.25856,0.3206 -0.28071,0.52073c0.26838,0.06453 0.51106,0.12411 0.77356,0.12366c0.01939,-0.17512 0.1617,-0.27537 0.13249,-0.48543c-0.18574,-0.09969 -0.38264,-0.09935 -0.62532,-0.15896zM198.26223,293.30631c0.16561,0.04472 0.33399,0.06441 0.49371,0.04412c0.10199,-0.21028 0.21547,-0.40552 0.34592,-0.63584c-0.22527,0.02042 -0.40791,0.01073 -0.64192,-0.00889c-0.10201,0.21028 -0.20126,0.39551 -0.19772,0.60061zM208.09227,294.81924c0.13918,-0.19031 0.26133,-0.3456 0.26059,-0.57568c-0.16285,-0.06972 -0.29997,-0.13453 -0.45969,-0.11424c-0.12494,0.18028 -0.26129,0.34557 -0.40324,0.56092c0.20278,0.06467 0.39408,0.11432 0.60237,0.12896zM199.38536,294.77481c-0.25099,0.01545 -0.46248,-0.0892 -0.64196,-0.00885c-0.07355,0.19019 -0.06725,0.37025 -0.03525,0.55529c0.1913,0.04966 0.36838,0.1094 0.55929,0.04405c0.03363,-0.18511 0.07868,-0.35528 0.11786,-0.59043zM204.91165,288.82777c-0.01938,0.17512 -0.0617,0.32021 -0.01547,0.49521c0.23675,-0.00543 0.46245,0.08923 0.69332,0.01878c0.03087,-0.16013 0.01903,-0.29016 -0.06991,-0.43506c-0.20554,-0.03965 -0.41382,-0.0543 -0.6079,-0.07892zM203.55408,298.47868c-0.0451,0.17015 -0.04468,0.28514 -0.0072,0.42018c0.19409,0.02465 0.40515,0.01431 0.5759,-0.10607c0.01662,-0.15009 0.03323,-0.30013 0.06411,-0.46029c-0.24822,-0.00957 -0.43044,0.0958 -0.63284,0.14617zM201.58434,287.71325c-0.0024,0.14002 -0.00201,0.25512 0.05251,0.35504c0.21104,-0.01036 0.39923,-0.05076 0.57868,-0.13111c0.02811,-0.13507 0.02771,-0.25012 -0.02405,-0.37508c-0.22256,-0.00462 -0.40477,0.10077 -0.60714,0.15115zM207.29995,290.7192c0.102,-0.21024 0.02456,-0.34016 -0.0928,-0.46501c-0.0802,-0.10489 -0.18891,-0.18974 -0.33715,-0.15445c-0.0451,0.17015 -0.07596,0.33024 -0.04396,0.51526c0.16561,0.04472 0.31976,0.07446 0.47393,0.1042zM198.51434,291.03003c-0.09369,0.13521 -0.20752,0.21543 -0.19847,0.37047c0.47114,0.1292 0.68425,-0.13625 0.86847,-0.49672c-0.22807,0.0454 -0.44196,0.08081 -0.67,0.12622zM208.03851,292.34345c-0.16007,-0.09478 -0.29998,-0.13452 -0.49683,-0.13417c0.0091,0.15504 -0.12177,0.27035 -0.087,0.43032c0.083,0.07991 0.16282,0.06974 0.25135,0.0996c0.10273,0.01982 0.18853,0.07469 0.28815,0.0045c0.03956,-0.12013 0.07909,-0.24026 0.04432,-0.40025zM202.72514,293.64345c-0.04068,-0.22498 -0.13789,-0.29487 -0.27742,-0.21958c-0.19646,0.11537 -0.37002,0.26075 -0.52932,0.3961c-0.05692,0.04008 -0.1166,0.10528 -0.07632,0.21521c0.31346,-0.10561 0.60399,-0.24117 0.88308,-0.39171zM204.28685,287.95358c0.06247,-0.09014 0.05932,-0.18017 0.0048,-0.28014c-0.2427,-0.0596 -0.49409,-0.1592 -0.76208,-0.10871c0.05215,0.24 0.18375,0.35485 0.40628,0.35942c0.10275,0.01982 0.21427,0.07967 0.35101,0.0294zM201.04708,291.73574c-0.16043,-0.20977 -0.22334,-0.23465 -0.35138,-0.14443c-0.18777,0.1554 -0.38979,0.32081 -0.5317,0.53614c0.34785,-0.06064 0.67,-0.12623 0.88309,-0.39172zM200.77673,288.48999c0.1253,-0.06522 0.22492,-0.13548 0.33599,-0.19066c0.21072,-0.1254 0.21069,-0.12543 0.07559,-0.44533c-0.12257,0.04025 -0.2708,0.07552 -0.33914,0.10066c-0.02219,0.20013 -0.05301,0.36022 -0.07239,0.53532zM198.80525,296.22132c0.13992,0.03978 0.27154,0.15456 0.42809,0.04426c0.0024,-0.14006 -0.02091,-0.28507 -0.01575,-0.45014c-0.16563,-0.04473 -0.32844,-0.11449 -0.47667,-0.07919c0.00912,0.15506 -0.00756,0.30515 0.06435,0.48509zM202.60018,288.61182c0.24228,-0.05548 0.49608,-0.0959 0.73837,-0.15138c0.0482,-0.08011 0.07078,-0.16516 -0.02642,-0.23501c-0.23121,-0.04461 -0.46801,-0.0392 -0.68739,0.04623c-0.03956,0.12013 -0.05061,0.22016 -0.02453,0.34019zM198.0805,292.69635c-0.09445,-0.09486 -0.20869,-0.1297 -0.33991,-0.12945c-0.03401,0.0701 -0.068,0.14017 -0.102,0.21027c-0.03679,0.09508 -0.08499,0.17523 -0.04469,0.28518c0.06875,0.08992 0.15449,0.14478 0.27152,0.15457c0.07077,-0.16521 0.14431,-0.3554 0.21511,-0.52055zM200.05358,295.84898c-0.16563,-0.04473 -0.31109,-0.03446 -0.45932,0.0008c0.00628,0.18004 0.00115,0.34512 0.01021,0.50014c0.13441,0.08978 0.26563,0.08954 0.36248,0.04437c0.03364,-0.18511 0.06725,-0.37025 0.08668,-0.54536zM198.06325,291.78611c-0.051,0.10512 -0.102,0.21024 -0.14158,0.33038c-0.00277,0.02498 0.02017,0.055 0.02887,0.09502c0.08853,0.02987 0.18573,0.09971 0.33399,0.06442c0.07946,-0.12523 0.19882,-0.25547 0.23246,-0.4406c-0.16283,-0.06971 -0.29406,-0.06946 -0.45375,-0.04918zM198.67962,290.12932c-0.168,0.09533 -0.32255,-0.04943 -0.46484,0.05085c-0.06797,0.14014 -0.18465,0.24538 -0.20678,0.44552c0.15138,0.05475 0.29133,0.09451 0.38498,-0.04072c0.09369,-0.13521 0.23322,-0.21048 0.28665,-0.45566zM203.02441,287.50564c-0.14545,0.01026 -0.30238,0.00556 -0.43359,0.00577c-0.0257,-0.00497 -0.04271,0.03008 -0.07115,0.05016c0.02885,0.09499 0.01497,0.22005 0.16085,0.3248c0.17113,-0.00534 0.35654,-0.02063 0.55339,-0.021c-0.02329,-0.145 -0.07785,-0.24496 -0.20944,-0.35978zM199.65738,296.82002c-0.01664,0.15008 -0.04748,0.31021 -0.06132,0.43525c0.14584,0.10479 0.28578,0.14458 0.41423,0.16932c0.08817,-0.08522 0.02215,-0.2001 0.019,-0.29015c-0.00318,-0.09005 0.00793,-0.19008 -0.08654,-0.28496c-0.07432,-0.03988 -0.16286,-0.06973 -0.2854,-0.02951zM208.52008,293.91817c0.04228,-0.14512 0.06763,-0.25524 0.09294,-0.36529c0.01702,-0.03504 -0.00314,-0.09005 -0.00039,-0.11506c-0.0802,-0.10489 -0.19445,-0.13972 -0.32568,-0.13946c-0.05653,0.15515 -0.12453,0.29535 -0.14399,0.4704c0.11146,0.05981 0.2257,0.09463 0.37707,0.14939zM200.45311,288.09546c-0.23088,0.07042 -0.46169,0.14088 -0.62656,0.32621c0.14584,0.10477 0.25179,0.21465 0.42291,0.20934c0.18464,-0.24539 0.18464,-0.24541 0.20363,-0.53554zM208.04295,291.94833c0.07558,-0.44533 0.06411,-0.46026 -0.28455,-0.62971c-0.03087,0.16014 -0.03601,0.32516 -0.06689,0.48529c0.09445,0.09486 0.20867,0.12966 0.35136,0.14446zM198.13802,293.71661c-0.05654,0.15515 -0.08462,0.29027 -0.04987,0.45028c0.03716,0.01995 0.1,0.04485 0.16285,0.06976c0.05139,0.00991 0.11703,0.0098 0.16836,0.0197c0.05654,-0.15517 0.13878,-0.30539 0.11825,-0.4754c-0.11144,-0.0598 -0.25415,-0.07459 -0.39961,-0.0643zM208.53888,295.28865c-0.06284,-0.02487 -0.15138,-0.05472 -0.20555,-0.03965c-0.19095,0.06536 -0.31026,0.1956 -0.38661,0.41085c0.12568,0.04982 0.24583,0.14961 0.36562,0.13438c0.09646,-0.16022 0.24154,-0.28553 0.22655,-0.50559zM202.34496,298.61591c-0.00278,0.02499 -0.00554,0.05002 -0.01108,0.10004c0.26286,0.11457 0.534,0.15411 0.80512,0.19362c0.06522,-0.11515 0.06207,-0.20518 -0.01536,-0.33508c-0.25099,0.01545 -0.51341,0.01594 -0.77869,0.04142zM201.13114,292.99107c0.28223,-0.06053 0.56165,-0.09606 0.79213,-0.28152c0.01425,-0.01002 -0.00317,-0.09001 -0.02607,-0.11997c-0.05732,-0.0749 -0.16007,-0.09474 -0.23119,-0.04456c-0.21939,0.08541 -0.38148,0.24578 -0.53486,0.44609zM198.01817,294.56219c-0.02812,0.13509 -0.05618,0.27021 -0.03288,0.41522c0.08021,0.1049 0.16599,0.15976 0.32288,0.1645c0.00516,-0.16508 0.02457,-0.34018 0.0155,-0.4952c-0.09719,-0.06983 -0.18575,-0.09968 -0.30553,-0.08447zM206.52857,289.51012c-0.14622,-0.21982 -0.26949,-0.40969 -0.50663,-0.5193c-0.09368,0.13521 -0.07041,0.28022 -0.02141,0.4302c0.17708,0.0597 0.32845,0.11446 0.52809,0.08908zM207.89986,297.03041c-0.18855,-0.0747 -0.21419,-0.07967 -0.25693,-0.04959c-0.15377,0.08528 -0.22457,0.2505 -0.28109,0.40565c-0.01977,0.06003 0.02334,0.14501 0.1431,0.1298c0.05932,-0.18016 0.2902,-0.25061 0.39493,-0.48589zM201.9862,297.94633c-0.26247,0.00043 -0.52217,-0.02409 -0.77553,0.13145c0.26004,0.13957 0.51109,0.12413 0.73359,0.12872c0.05971,-0.06511 0.05376,-0.13012 0.04191,-0.26016zM208.39137,292.94805c0.1,0.04483 0.18576,0.09969 0.28575,0.14453c0.0708,-0.16521 0.10163,-0.32532 -0.06713,-0.46005c-0.04861,-0.03493 -0.09721,-0.06983 -0.16561,-0.04472c-0.06245,0.09013 -0.06209,0.20521 -0.05301,0.36022zM200.1369,290.83201c-0.10318,-0.13486 -0.17743,-0.17475 -0.27981,-0.07954c-0.08819,0.08519 -0.17632,0.17039 -0.25301,0.27058c-0.0312,0.04507 -0.05102,0.10514 0.00905,0.15504c0.20515,-0.0754 0.36168,-0.18571 0.52377,-0.34607zM204.20735,296.72692c0.23088,-0.07043 0.43878,-0.17087 0.58941,-0.34619c0.01425,-0.01004 -0.00318,-0.09003 -0.01461,-0.105c-0.0229,-0.02995 -0.08853,-0.02987 -0.117,-0.00978c-0.17355,0.14535 -0.36726,0.23576 -0.45782,0.46102zM205.2413,297.10517c-0.10794,0.14523 -0.2645,0.25559 -0.3523,0.45578c0.24229,-0.05546 0.42176,-0.13581 0.47275,-0.24094c0.06245,-0.09013 0.01664,-0.15009 -0.12051,-0.21485zM205.2461,288.17693c-0.18023,-0.14973 -0.34071,-0.35954 -0.59169,-0.34407c0.09245,0.34994 0.34343,0.33448 0.59169,0.34407zM202.81657,290.21204c-0.0229,-0.02995 -0.04865,-0.03496 -0.07155,-0.06492c-0.13083,0.11527 -0.30476,0.14562 -0.37554,0.3108c0.05452,0.09995 0.10315,0.13486 0.20868,0.12966c0.06522,-0.11515 0.1447,-0.24034 0.2384,-0.37559zM202.80874,294.78371c0.23362,-0.09546 0.41307,-0.17581 0.5724,-0.31114c0.02847,-0.02006 0.03401,-0.07007 -0.00037,-0.11502c-0.01147,-0.015 -0.04861,-0.03491 -0.07432,-0.03987c-0.23088,0.07042 -0.40161,0.19078 -0.49769,0.46605zM208.51482,294.91356c0.09722,0.06983 0.16005,0.09474 0.17984,0.03469c0.06522,-0.11515 0.119,-0.2453 0.17279,-0.37545c0.02255,-0.08507 -0.01181,-0.13002 -0.10313,-0.13486c-0.12219,0.15525 -0.21587,0.29052 -0.24949,0.47562zM198.32669,295.56696c-0.08853,-0.02987 -0.16287,-0.06973 -0.25138,-0.09961c-0.02567,-0.00498 -0.05415,0.01511 -0.10831,0.03019c0.13749,0.17981 0.22089,0.37471 0.42681,0.52944c0.00516,-0.16508 0.00478,-0.28012 -0.06714,-0.46005zM205.59982,294.22353c0.13085,-0.11526 0.24749,-0.22054 0.4068,-0.35587c-0.25694,-0.04955 -0.41939,-0.00427 -0.55022,0.11102c0.01462,0.10501 0.03476,0.16 0.14344,0.24486zM201.64544,289.76898c0.05379,-0.13016 0.23322,-0.21046 0.19255,-0.4355c-0.37592,0.19576 -0.44706,0.24587 -0.41823,0.34089c0.05732,0.0749 0.12016,0.09984 0.2257,0.09463zM203.52487,295.66274c0.35099,0.02941 0.52174,-0.09098 0.68939,-0.30133c-0.33123,-0.08943 -0.43874,0.17086 -0.68939,0.30133zM198.84359,290.5442c0.32529,0.02444 0.48188,-0.0859 0.62971,-0.23622c0.01424,-0.01003 0.00554,-0.05004 -0.01738,-0.08c-0.03437,-0.04496 -0.08577,-0.05486 -0.11421,-0.03481c-0.15377,0.08527 -0.28461,0.20055 -0.49807,0.351zM200.8818,289.20004c0.09369,-0.13521 0.22455,-0.25051 0.20955,-0.4705c-0.17669,0.05535 -0.29331,0.16059 -0.39569,0.25579c0.02606,0.11999 0.08612,0.16988 0.18615,0.21474zM197.87199,290.90609c-0.04786,0.19518 -0.2044,0.30549 -0.14671,0.49547c0.23362,-0.09546 0.2336,-0.09546 0.30678,-0.40069c-0.03716,-0.01995 -0.07432,-0.03988 -0.16006,-0.09476zM204.41398,288.4635c-0.20315,-0.17969 -0.41146,-0.19434 -0.62253,-0.18395c-0.051,0.10512 -0.00516,0.16508 0.07189,0.17993c0.17113,-0.00534 0.35378,0.00436 0.55061,0.004zM197.78108,293.62223c-0.083,-0.07991 -0.15452,-0.14479 -0.27427,-0.12955c-0.02531,0.11006 -0.05065,0.22018 0.00387,0.32008c0.07152,0.0649 0.13439,0.08978 0.21426,0.07964c0.04821,-0.08012 0.05653,-0.15515 0.05615,-0.2702zM204.31709,291.94492c-0.14821,0.03526 -0.25657,0.06548 -0.31902,0.15562c-0.01702,0.03504 -0.00833,0.07504 0.00037,0.11505c0.03437,0.04496 0.10868,0.08486 0.1399,0.0398c0.0854,-0.06019 0.18501,-0.13039 0.17871,-0.31047zM198.93525,296.7063c0.06047,0.16496 0.22332,0.23469 0.34346,0.3345c0.04749,-0.31022 0.02452,-0.34016 -0.34346,-0.3345zM205.86885,297.9544c-0.25931,0.09051 -0.25932,0.0905 -0.24155,0.28555c0.10832,-0.03019 0.23087,-0.07045 0.24155,-0.28555zM203.23377,291.30169c0.00318,0.09005 0.03754,0.13498 0.07744,0.12991c0.17113,-0.00534 0.20238,-0.05038 0.22731,-0.27552c-0.13399,0.02522 -0.21942,0.08541 -0.3048,0.1456zM198.47614,289.83463c0.12847,0.02475 0.24547,0.03455 0.32216,-0.06558c-0.22607,-0.20965 -0.26594,-0.2046 -0.32216,0.06558zM205.61142,298.62005c0.16843,0.01971 0.2937,-0.04552 0.40475,-0.10074c0.05693,-0.04008 0.06525,-0.11517 -0.06045,-0.16497c-0.11106,0.05523 -0.23641,0.12048 -0.34433,0.26569zM197.50186,291.99713c0.16523,-0.07033 0.20203,-0.16542 0.13879,-0.30537c0,0 -0.03716,-0.01994 -0.05139,-0.00991c-0.09685,0.04521 -0.08503,0.17519 -0.08744,0.31529zM204.97112,293.02918c-0.09722,-0.06983 -0.17709,-0.05971 -0.22252,-0.00462c-0.02847,0.02006 -0.03401,0.07009 -0.02532,0.11008c0.00871,0.04 0.07152,0.06489 0.09999,0.04481c0.05416,-0.0151 0.11108,-0.0552 0.14787,-0.1503zM197.68135,294.52269c0.05378,-0.13015 0.05064,-0.22018 -0.098,-0.29993c-0.05654,0.15517 -0.03916,0.23516 0.098,0.29993z" fill="#000000"/><path d="M210.11794,289.67881c-0.35248,-0.48956 -0.70502,-0.97914 -1.07178,-1.45865c-0.4126,-0.53948 -0.88209,-1.03881 -1.4113,-1.47302c-0.16876,-0.13474 -0.34303,-0.21946 -0.53747,-0.35916c0.22772,-0.16049 0.41542,-0.31587 0.62614,-0.44127c1.24126,-0.7825 2.43944,-1.64992 3.67201,-2.47243c1.1045,-0.73222 2.18327,-1.46943 3.2763,-2.21666c0.75147,-0.50653 1.48874,-1.00302 2.24021,-1.50953c0.7088,-0.47645 1.3804,-0.97282 2.08917,-1.44927c0.05695,-0.04011 0.11386,-0.08023 0.18224,-0.10536c0.317,0.09944 0.56005,0.27412 0.81181,0.48872c0.39483,0.34444 0.77263,0.7239 1.0793,1.15349c0.10318,0.13486 0.22053,0.25968 0.24103,0.42973c-0.13162,-0.11481 -0.20353,-0.29471 -0.40074,-0.40943c-0.14748,0.26533 -0.42377,0.39088 -0.64002,0.56635c-0.01424,0.01003 -0.02845,0.02005 -0.01701,0.03503c-0.29256,0.39064 -0.70527,0.68148 -1.04645,1.03725c-0.11938,0.13025 -0.20439,0.30549 -0.3696,0.3758c-0.30756,0.17059 -0.47478,0.49603 -0.78236,0.66666c-0.01424,0.01003 -0.03122,0.04508 -0.05972,0.06513c-0.23597,0.2355 -0.44634,0.47594 -0.70525,0.68149c-0.31307,0.22065 -0.50604,0.54112 -0.84202,0.73178c-0.11623,0.22028 -0.32418,0.32067 -0.51196,0.47606c-0.02847,0.02006 -0.0427,0.03011 -0.07116,0.05012c-0.19294,0.32047 -0.53762,0.47114 -0.77642,0.73167c-0.23877,0.26051 -0.56055,0.44117 -0.81078,0.68671c-0.29295,0.27562 -0.53722,0.58616 -0.9132,0.78189c-0.02847,0.02006 -0.07117,0.05014 -0.08816,0.08519c-0.08775,0.20025 -0.29295,0.27561 -0.45227,0.41093c-0.0854,0.06019 -0.19644,0.11538 -0.25892,0.20554c-0.08226,0.15018 -0.20754,0.21544 -0.33563,0.30572c-0.07116,0.05015 -0.1538,0.08532 -0.18777,0.1554c-0.11623,0.22028 -0.33839,0.33073 -0.52338,0.46109c-0.07116,0.05015 -0.15376,0.08531 -0.18779,0.15539c-0.09925,0.18522 -0.26723,0.28059 -0.42379,0.39089c-0.25617,0.18055 -0.4321,0.46593 -0.69971,0.63146c-0.05415,0.01511 -0.06248,0.09012 -0.09368,0.13522z" fill="#87d7dc"/><path d="M210.11796,289.67878c0.03123,-0.04505 0.03954,-0.12013 0.08224,-0.15021c0.26761,-0.16555 0.45501,-0.43596 0.69971,-0.63148c0.15654,-0.11031 0.32457,-0.20567 0.4238,-0.39088c0.03401,-0.0701 0.11662,-0.10526 0.18773,-0.1554c0.18498,-0.1304 0.39571,-0.25577 0.52344,-0.46108c0.034,-0.07009 0.12808,-0.09028 0.18775,-0.15541c0.12807,-0.09027 0.24195,-0.17051 0.33563,-0.30572c0.06245,-0.09013 0.17357,-0.14538 0.25896,-0.20555c0.15929,-0.13533 0.36446,-0.21075 0.45223,-0.41096c0.01702,-0.03504 0.0597,-0.06513 0.08816,-0.08518c0.3617,-0.18572 0.62027,-0.5063 0.91319,-0.78193c0.2645,-0.25559 0.58624,-0.43619 0.81082,-0.68667c0.23875,-0.26051 0.58347,-0.4112 0.7764,-0.73166c0.00279,-0.025 0.04271,-0.03009 0.07118,-0.05015c0.18498,-0.1304 0.39569,-0.25581 0.51195,-0.4761c0.34749,-0.17568 0.54039,-0.49616 0.84204,-0.73175c0.27039,-0.19054 0.46924,-0.44601 0.70527,-0.68147c0.02847,-0.02006 0.03121,-0.04511 0.0597,-0.06515c0.30756,-0.17059 0.47477,-0.49603 0.78234,-0.66665c0.168,-0.09534 0.23879,-0.26052 0.3696,-0.37581c0.35262,-0.34076 0.75387,-0.64661 1.04644,-1.03723c0.01424,-0.01003 0.017,-0.03506 0.017,-0.03506c0.21624,-0.17548 0.49259,-0.301 0.64004,-0.56637c0.18576,0.0997 0.24343,0.2897 0.40073,0.40945c0.09169,0.11986 0.18334,0.23977 0.17818,0.40486c-0.0854,0.06019 -0.19644,0.11538 -0.25889,0.20553c-0.21861,0.31549 -0.52898,0.51111 -0.80491,0.75171c-0.27591,0.24057 -0.49453,0.55608 -0.842,0.73176c-0.11623,0.22028 -0.32417,0.32071 -0.51194,0.4761c-0.02847,0.02006 -0.07115,0.05015 -0.08817,0.0852c-0.0708,0.16521 -0.236,0.23548 -0.35265,0.34076c-0.07116,0.05015 -0.1423,0.10032 -0.18777,0.15539c-0.25579,0.29558 -0.53721,0.58618 -0.86456,0.81685c-0.04272,0.03008 -0.11111,0.0552 -0.11661,0.10524c-0.08499,0.17518 -0.23875,0.26052 -0.38107,0.36082c-0.168,0.09534 -0.23009,0.30055 -0.41233,0.40588c-0.23916,0.14548 -0.39532,0.37085 -0.60009,0.56129c-0.29018,0.25062 -0.52025,0.55111 -0.84758,0.78177c-0.05695,0.04011 -0.13956,0.07528 -0.15931,0.13535c-0.06804,0.14016 -0.20751,0.21545 -0.32415,0.32067c-0.11385,0.08022 -0.21622,0.17544 -0.29296,0.27561c-0.13918,0.19031 -0.30124,0.35068 -0.50047,0.49112c-0.28739,0.22558 -0.50602,0.54111 -0.85346,0.71679c-0.02847,0.02006 -0.05972,0.06509 -0.08817,0.08518c-0.2645,0.25559 -0.51746,0.52613 -0.80488,0.75168c-0.31307,0.22065 -0.53449,0.56117 -0.8705,0.75182c-0.04272,0.03008 -0.06245,0.09014 -0.09368,0.13522c-0.16208,0.16034 -0.34985,0.31574 -0.56923,0.40115c-0.07152,-0.0649 -0.11739,-0.1248 -0.17744,-0.17475c-0.11776,-0.2399 -0.22683,-0.43975 -0.36158,-0.6446z" fill="#b0eef2"/><path d="M198.61061,289.09407c0.23598,-0.23547 0.43803,-0.40091 0.69735,-0.49142c0.20555,0.03966 0.37431,0.17439 0.55727,0.29909c0.87226,0.65368 1.7303,1.31739 2.49743,2.0913c0.5782,0.5842 1.16789,1.18338 1.68639,1.83267c0.13751,0.17982 0.2723,0.38465 0.45251,0.53442c0.07152,0.0649 0.14029,0.15483 0.20905,0.24471c0.21814,0.39977 0.52164,0.73935 0.7825,1.10903c0.37546,0.51952 0.69398,1.07918 0.984,1.65886c0.13791,0.29485 0.29005,0.57972 0.45366,0.87951c0.13196,0.22985 0.18413,0.46983 0.2505,0.69982c-0.17596,0.28543 -0.26409,0.37059 -0.62856,0.58132c-0.23791,-0.33966 -0.3932,-0.71455 -0.60262,-1.07431c-0.19798,-0.34477 -0.40741,-0.70452 -0.61962,-1.03929c-0.22365,-0.34974 -0.47305,-0.70444 -0.71094,-1.04411c-0.21219,-0.33474 -0.5213,-0.62427 -0.69083,-0.98916c-0.32331,-0.27955 -0.53272,-0.63929 -0.79911,-0.95894c-0.2549,-0.30467 -0.53551,-0.61426 -0.80466,-0.90891c-0.28059,-0.30962 -0.57542,-0.60918 -0.88171,-0.9238c-0.28337,-0.28461 -0.56395,-0.59422 -0.8616,-0.8688c-0.30906,-0.28955 -0.63511,-0.54407 -0.95841,-0.82361c-0.33476,-0.29451 -0.63235,-0.56908 -1.01258,-0.80849z" fill="#d1eaeb"/><path d="M210.48235,290.29837c0.06006,0.04991 0.10593,0.10986 0.17746,0.17473c0.2194,-0.08544 0.40437,-0.21579 0.56923,-0.40116c0.03124,-0.04506 0.05101,-0.10512 0.09369,-0.1352c0.336,-0.19065 0.56888,-0.51623 0.8705,-0.75183c0.29885,-0.21061 0.5404,-0.49613 0.80491,-0.75167c0.02847,-0.02006 0.05971,-0.06513 0.08816,-0.08518c0.34748,-0.17566 0.54041,-0.49612 0.85349,-0.71677c0.18498,-0.1304 0.36131,-0.30078 0.50046,-0.49111c0.09089,-0.11016 0.19331,-0.20542 0.29294,-0.27562c0.12807,-0.09027 0.25338,-0.1555 0.32417,-0.3207c0.01978,-0.06003 0.10241,-0.09521 0.15933,-0.13532c0.31307,-0.22065 0.55736,-0.53119 0.84755,-0.78179c0.2048,-0.19042 0.36092,-0.4158 0.6001,-0.56126c0.168,-0.09534 0.23008,-0.30052 0.41233,-0.40588c0.15377,-0.08531 0.32176,-0.18064 0.38111,-0.36081c0.03124,-0.04506 0.07391,-0.07515 0.11658,-0.10524c0.32731,-0.23065 0.59457,-0.5112 0.86456,-0.81684c0.05971,-0.06511 0.14229,-0.1003 0.18775,-0.15536c0.12807,-0.09027 0.28183,-0.1756 0.3526,-0.34076c0.01702,-0.03504 0.05968,-0.06514 0.08815,-0.08518c0.18498,-0.1304 0.39571,-0.2558 0.51195,-0.47609c0.34747,-0.17569 0.5661,-0.49118 0.84198,-0.73176c0.27591,-0.24057 0.60046,-0.44623 0.80487,-0.75168c0.06247,-0.09014 0.17355,-0.14535 0.25892,-0.20554c0.11738,0.12485 0.10077,0.27491 0.16678,0.38984c-0.54037,0.49614 -1.04089,0.98722 -1.55283,1.46329c-0.55741,0.53118 -1.11204,1.03737 -1.68087,1.55358c-0.52618,0.48613 -1.04087,0.98724 -1.55559,1.48833c-0.64558,0.61637 -1.26543,1.23771 -1.89675,1.84406c-0.48349,0.45604 -0.967,0.91204 -1.43897,1.38308c-0.74794,0.7116 -1.55598,1.37329 -2.28098,2.11487c-0.10238,0.0952 -0.18184,0.2204 -0.34431,0.2657c-0.10318,-0.13486 -0.16359,-0.29981 -0.2383,-0.45475c-0.02886,-0.09498 -0.16046,-0.20977 -0.18101,-0.37983z" fill="#87d7dc"/><path d="M221.44219,279.71491c-0.26915,-0.29462 -0.4699,-0.61439 -0.75326,-0.89896c-0.33198,-0.31954 -0.67821,-0.62901 -1.10977,-0.87835c0.8254,-0.5817 1.63657,-1.15335 2.4335,-1.71498c0.28262,0.0545 0.48851,0.20922 0.69721,0.33889c0.39168,0.25438 0.68373,0.579 0.98726,0.91859c0.01147,0.015 0.02014,0.05497 0.0174,0.08c-0.18852,-0.0747 -0.26797,0.05049 -0.35892,0.16071c-0.22732,0.27553 -0.46607,0.53604 -0.76218,0.72162c-0.05695,0.04011 -0.11385,0.08024 -0.15928,0.13535c-0.20163,0.28048 -0.49769,0.46605 -0.73372,0.70158c-0.13367,0.14026 -0.22449,0.25049 -0.25815,0.43562z" fill="#61afb4"/><path d="M208.76153,291.857c-0.31573,-0.58465 -0.73108,-1.09907 -1.08953,-1.65364c-0.16912,-0.24978 -0.38099,-0.46949 -0.59283,-0.6892c-0.37228,-0.42952 -0.69909,-0.91408 -1.12833,-1.30345c-0.16598,-0.15978 -0.33197,-0.31955 -0.50073,-0.4543c-0.1087,-0.08485 -0.20314,-0.17968 -0.28338,-0.28462c0.0312,-0.04507 0.04824,-0.08011 0.07673,-0.10018c0.11385,-0.08021 0.22767,-0.16048 0.34151,-0.24071c0.1,0.04482 0.1743,0.08475 0.26006,0.13959c0.58334,0.41909 1.17819,0.85321 1.62517,1.43766c0.40392,0.49946 0.81925,1.01388 1.16625,1.5535c0.28101,0.42467 0.5762,0.8393 0.73187,1.32918c-0.08578,-0.05484 -0.11185,-0.17485 -0.24305,-0.1746c-0.17946,0.08035 -0.39885,0.16577 -0.36371,0.4408z" fill="#61aeb3"/><path d="M209.43996,290.82543c-0.2233,-0.2347 -0.32126,-0.53463 -0.50186,-0.79939c-0.39838,-0.5495 -0.7967,-1.09901 -1.23776,-1.61839c-0.3608,-0.4145 -0.76714,-0.77392 -1.19041,-1.09829c-0.1087,-0.08485 -0.21736,-0.16965 -0.32606,-0.2545c0.19923,-0.14042 0.37,-0.26081 0.55502,-0.39115c0.30829,0.05948 0.55136,0.23415 0.77745,0.44379c0.2747,0.24458 0.5608,0.50417 0.80424,0.79385c0.57264,0.63424 1.04847,1.31365 1.55,1.99801c0.09168,0.11987 0.18339,0.23977 0.19245,0.39481c-0.07116,0.05015 -0.15376,0.08534 -0.18776,0.1554c-0.09647,0.16023 -0.27871,0.26562 -0.43521,0.37592z" fill="#61aeb3"/><path d="M221.44219,279.71491c0.03087,-0.16014 0.11033,-0.2853 0.24118,-0.40058c0.236,-0.23549 0.53212,-0.4211 0.7337,-0.70157c0.04548,-0.05511 0.10238,-0.09524 0.15933,-0.13535c0.29885,-0.21063 0.52339,-0.4611 0.76217,-0.72161c0.07672,-0.10018 0.17038,-0.23541 0.35892,-0.1607c0.18614,0.21476 0.31814,0.44459 0.39596,0.68954c-0.16486,0.18539 -0.31827,0.38572 -0.5404,0.49615c-0.02847,0.02006 -0.05971,0.06512 -0.08816,0.08519c-0.25022,0.24553 -0.51471,0.50111 -0.77641,0.73167c-0.11661,0.10524 -0.23048,0.18546 -0.33564,0.3057c-0.12218,0.15524 -0.28149,0.29062 -0.49533,0.32601c-0.07152,-0.0649 -0.11738,-0.12482 -0.17743,-0.17475c-0.0802,-0.10489 -0.1577,-0.23482 -0.2379,-0.33967z" fill="#87d7dc"/><path d="M201.54726,296.34149c0.06169,-0.32026 0.23206,-0.5556 0.41395,-0.77604c0.04546,-0.0551 0.13087,-0.11527 0.19923,-0.14042c0.50438,-0.17096 0.96296,-0.40185 1.41001,-0.64775c0.01424,-0.01003 0.05414,-0.0151 0.07985,-0.01016c0.08853,0.02987 0.14587,0.10477 0.16047,0.20977c-0.02847,0.02006 -0.04545,0.05514 -0.07392,0.07518c-0.35301,0.22566 -0.67165,0.49636 -0.91874,0.83192c-0.1364,0.1653 -0.29297,0.27563 -0.52102,0.32106c-0.25376,0.04045 -0.47313,0.12589 -0.74986,0.13639z" fill="#cce5e6"/><path d="M204.38375,295.72623c0.11146,0.05981 0.14307,0.12977 0.13476,0.20483c-0.66018,0.51136 -0.66016,0.51137 -1.07449,1.17234c-0.26487,0.14053 -0.58699,0.20613 -0.872,0.29163c-0.1087,-0.08485 -0.03475,-0.15997 -0.01497,-0.22004c0.0763,-0.21521 0.1384,-0.4204 0.2519,-0.61568c0.07948,-0.12521 0.16766,-0.21037 0.30438,-0.26062c0.42457,-0.16082 0.85184,-0.34665 1.27047,-0.57245z" fill="#cce5e6"/><path d="M221.69156,280.06956c0.06007,0.04992 0.10594,0.10987 0.17743,0.17474c0.21385,-0.03538 0.37313,-0.17072 0.49532,-0.32602c0.10516,-0.12025 0.21899,-0.20048 0.33565,-0.30571c0.2617,-0.23056 0.52617,-0.48611 0.7764,-0.73166c0.02847,-0.02006 0.05971,-0.06515 0.08816,-0.08519c0.22491,-0.13547 0.36409,-0.32574 0.5404,-0.49612c0.06324,0.13992 0.11499,0.26492 0.12128,0.44497c-0.36409,0.32577 -0.7195,0.69157 -1.10928,1.01238c-0.36409,0.32577 -0.68234,0.71145 -1.10927,1.01235c-0.16911,-0.24978 -0.24974,-0.46972 -0.31614,-0.69967z" fill="#60adb2"/><path d="M202.97332,291.04705c-0.06007,-0.0499 -0.1087,-0.08487 -0.16876,-0.13475c0.00553,-0.05004 0.00833,-0.07503 0.01109,-0.10003c0.19607,-0.23043 0.34356,-0.49582 0.47957,-0.77612c0.06524,-0.11515 0.13917,-0.19034 0.27315,-0.21556c0.25654,-0.06548 0.50437,-0.17097 0.82415,-0.09651c-0.0475,0.31019 -0.19495,0.57557 -0.3539,0.82593c-0.0312,0.04507 -0.11388,0.0802 -0.18222,0.10536c-0.29049,0.13558 -0.58111,0.27115 -0.88312,0.39173z" fill="#cce5e6"/><path d="M199.21242,293.37461c0.09644,-0.16022 0.1475,-0.26535 0.21273,-0.38052c0.12772,-0.20532 0.287,-0.34062 0.55501,-0.39114c0.44468,-0.10581 0.86923,-0.26668 1.22501,-0.51739c0.11386,-0.08021 0.13954,-0.07526 0.26287,0.11457c-0.0427,0.03008 -0.07391,0.07518 -0.11665,0.10525c-0.36723,0.23574 -0.67439,0.52138 -0.94718,0.852c-0.07395,0.07514 -0.13363,0.14028 -0.22769,0.1605c-0.30516,0.03057 -0.58739,0.09106 -0.96408,0.0567z" fill="#cae2e3"/><path d="M203.04565,293.94796c-0.00278,0.02499 -0.01978,0.0601 -0.03401,0.0701c-0.3502,0.20069 -0.61746,0.48126 -0.85904,0.76682c-0.23875,0.26051 -0.50917,0.45108 -0.89417,0.49176c-0.18539,0.01532 -0.35337,0.1107 -0.54746,0.086c0.11546,-0.45037 0.4112,-0.75101 0.8045,-0.86675c0.47594,-0.1509 0.94907,-0.27679 1.35034,-0.58263c0.05415,-0.01511 0.11109,-0.05521 0.17986,0.03469z" fill="#c9e1e2"/><path d="M200.02888,294.41349c0.1131,-0.31032 0.26647,-0.51064 0.4341,-0.72101c0.05971,-0.06511 0.13086,-0.11526 0.21071,-0.12543c0.50163,-0.14595 0.99453,-0.33188 1.46453,-0.54778c0.02847,-0.02006 0.08258,-0.03516 0.12568,0.04979c-0.09961,0.0702 -0.21345,0.15042 -0.30163,0.23561c-0.27317,0.21555 -0.53485,0.44612 -0.73647,0.72659c-0.15337,0.20038 -0.34985,0.31573 -0.60086,0.33119c-0.18539,0.01532 -0.35654,0.02067 -0.59609,0.05108z" fill="#c9e1e2"/><path d="M202.10901,290.20329c-0.13993,-0.0398 -0.19724,-0.11471 -0.25453,-0.18963c0.00277,-0.02498 0.01977,-0.06009 0.02255,-0.08505c0.20478,-0.19043 0.34947,-0.43079 0.43131,-0.69604c0.05654,-0.15515 0.15894,-0.25036 0.32142,-0.29566c0.20236,-0.05039 0.40753,-0.12581 0.61862,-0.13619c-0.00201,0.25508 -0.08071,0.6104 -0.17165,0.7206c-0.04821,0.08012 -0.12807,0.09029 -0.21071,0.12541c-0.23046,0.18546 -0.53248,0.30608 -0.75701,0.55652z" fill="#cae3e4"/><path d="M206.96779,294.66621c-0.34229,0.01062 -0.65023,0.06616 -0.96093,0.14675c-0.09719,-0.06983 -0.1431,-0.12981 -0.15771,-0.23481c0.19883,-0.25543 0.52064,-0.43604 0.70804,-0.70649c0.21385,-0.03537 0.39091,0.0243 0.58498,0.04895c0.10273,0.01982 0.20827,0.01462 0.30274,0.1095c-0.09333,0.25027 -0.33247,0.39572 -0.47717,0.63608z" fill="#c8e0e1"/><path d="M204.46521,292.73995c-0.08891,-0.14488 -0.04344,-0.19999 0.00202,-0.25509c0.16763,-0.21041 0.32101,-0.41072 0.50008,-0.60612c0.04546,-0.05511 0.10239,-0.09522 0.18224,-0.10539c0.23674,-0.00541 0.48499,0.00416 0.73045,0.03871c-0.0281,0.13507 -0.10202,0.21027 -0.15303,0.3154c-0.15303,0.31536 -0.38347,0.50086 -0.76015,0.46655c-0.18263,-0.00969 -0.34786,0.06064 -0.50162,0.14597z" fill="#cbe4e5"/><path d="M205.18726,293.68404c-0.05732,-0.0749 -0.0917,-0.11985 -0.12609,-0.16482c0.01702,-0.03504 0.00835,-0.07504 0.02255,-0.08507c0.13367,-0.14026 0.2787,-0.26563 0.41233,-0.4059c0.07395,-0.07515 0.15657,-0.11031 0.2621,-0.1155c0.3166,-0.01559 0.63047,-0.00612 0.97869,0.04827c-0.04785,0.19516 -0.16447,0.3004 -0.28109,0.40564c-0.05692,0.04008 -0.11387,0.08021 -0.17943,0.08036c-0.3767,-0.03434 -0.73009,0.07633 -1.08901,0.23701z" fill="#c8e0e1"/><path d="M209.43992,290.82544c0.15654,-0.11031 0.3388,-0.21569 0.43802,-0.40096c0.034,-0.07009 0.11662,-0.10521 0.18776,-0.15538c0.20905,0.24471 0.34974,0.51455 0.42201,0.80955c-0.22217,0.11042 -0.37553,0.31076 -0.52338,0.46108c-0.15138,-0.05475 -0.18891,-0.18974 -0.28613,-0.25956c-0.11738,-0.12485 -0.21775,-0.28474 -0.2383,-0.45474z" fill="#85d5d9"/><path d="M199.03875,291.7443c0.27078,-0.07552 0.54152,-0.15105 0.81508,-0.25154c0.23363,-0.09544 0.36963,-0.37579 0.75501,-0.30141c-0.48383,0.34098 -0.83057,0.74676 -1.17727,1.15251c-0.21385,0.03537 -0.45337,0.06584 -0.69607,0.00622c0.00553,-0.05004 0.00832,-0.07505 0.01108,-0.10003c0.085,-0.1752 0.18147,-0.33547 0.29215,-0.50569z" fill="#c6dede"/><path d="M201.36618,296.792c0.32219,-0.0656 0.60435,-0.12612 0.92654,-0.19173c0.00628,0.18004 -0.07316,0.30525 -0.10124,0.44033c-0.04228,0.14512 -0.0475,0.31022 -0.14119,0.44541c-0.09961,0.0702 -0.23085,0.07044 -0.35059,0.08567c-0.11975,0.01523 -0.25101,0.01542 -0.3937,0.00071c-0.07506,-0.26997 0.00406,-0.51018 0.06021,-0.78041z" fill="#cae3e3"/><path d="M205.14571,296.66521c-0.34669,0.40579 -0.62225,0.76141 -0.81478,1.19689c-0.23088,0.07043 -0.45023,0.15584 -0.69533,0.23632c-0.03515,-0.27505 0.07832,-0.47032 0.15464,-0.6855c0.01702,-0.03504 0.05973,-0.06514 0.08817,-0.08517c0.39015,-0.20576 0.78032,-0.41155 1.26729,-0.66251z" fill="#cae3e4"/><path d="M205.12358,290.8231c-0.11308,0.31031 -0.23485,0.58065 -0.62262,0.64634c-0.26801,0.0505 -0.49295,0.18595 -0.71787,0.32139c-0.08541,0.06018 -0.15692,-0.00469 -0.19724,-0.11468c0.25058,-0.13051 0.40679,-0.35587 0.56294,-0.58124c0.11069,-0.17026 0.26168,-0.23057 0.44707,-0.2459c0.15969,-0.02028 0.3107,-0.08056 0.52772,-0.02592z" fill="#c8e0e1"/><path d="M208.76151,291.85701c-0.02091,-0.28507 0.18425,-0.36042 0.36648,-0.4658c0.1312,-0.00024 0.17152,0.10972 0.24305,0.17458c0.13474,0.20483 0.21533,0.42477 0.2675,0.66481c-0.168,0.09534 -0.2787,0.26557 -0.4783,0.29096c-0.07152,-0.0649 -0.10593,-0.10987 -0.15177,-0.16978c-0.08616,-0.16991 -0.17232,-0.3398 -0.24698,-0.49474z" fill="#85d4d9"/><path d="M205.94509,292.52725c0.14471,-0.24035 0.28385,-0.43067 0.41154,-0.63598c0.25968,0.02456 0.51659,0.07408 0.75652,0.15874c0.05178,0.12497 -0.0107,0.2151 -0.03323,0.30015c-0.02254,0.08507 -0.04509,0.17012 -0.15617,0.22533c-0.26247,0.00043 -0.58773,-0.02397 -0.97868,-0.04827z" fill="#c7dfe0"/><path d="M204.84312,289.68318c0.22256,0.00462 0.4336,-0.00575 0.67631,0.05381c0.00947,0.27009 -0.10401,0.46534 -0.2088,0.70062c-0.251,0.01545 -0.50199,0.03093 -0.76725,0.05639c0.08464,-0.29025 0.18945,-0.52557 0.29975,-0.81083z" fill="#c8e0e1"/><path d="M200.36062,296.39365c0.02219,-0.20013 0.04435,-0.40021 0.14358,-0.58548c0.26801,-0.0505 0.54745,-0.08601 0.84114,-0.13153c0.0229,0.02995 0.04583,0.05993 0.03159,0.06996c-0.05932,0.18017 -0.13287,0.37035 -0.20362,0.53554c-0.03401,0.0701 -0.07946,0.12522 -0.14506,0.12532c-0.23953,0.03042 -0.4447,0.10582 -0.66764,-0.0138z" fill="#c4dcdd"/><path d="M199.04829,293.79001c0.27669,-0.0105 0.54192,-0.03596 0.81863,-0.04646c0.04896,0.14996 -0.06488,0.23017 -0.11588,0.33532c-0.051,0.10512 -0.12771,0.20533 -0.19292,0.32047c-0.22807,0.0454 -0.45651,-0.02426 -0.69055,-0.04381c-0.02646,-0.235 0.07003,-0.39525 0.18074,-0.5655z" fill="#c8e0e1"/><path d="M204.45114,289.31381c-0.27948,0.03549 -0.53327,0.07597 -0.82694,0.1215c-0.00079,-0.23008 0.0985,-0.41533 0.10919,-0.63045c0.24508,-0.08043 0.48778,-0.02087 0.75022,-0.02132c0.02921,0.21002 0.04975,0.38005 -0.03251,0.53022z" fill="#c6ddde"/><path d="M201.17075,289.43467c0.12732,-0.32036 0.34038,-0.58583 0.40488,-0.93107c0.20515,-0.0754 0.38465,-0.15575 0.62139,-0.16117c0.0379,0.25001 -0.00994,0.44521 -0.24631,0.56565c-0.29052,0.13556 -0.52376,0.34607 -0.77994,0.5266z" fill="#b9cfd0"/><path d="M205.58825,297.64478c0.02606,0.11999 -0.07946,0.12523 -0.12491,0.18028c-0.10516,0.12024 -0.22174,0.22547 -0.2384,0.37559c-0.06487,0.23021 -0.23282,0.32555 -0.42655,0.41592c-0.08264,0.03515 -0.1767,0.05536 -0.29924,0.09558c0.00752,-0.30514 0.03527,-0.55528 0.35148,-0.68588c0.21938,-0.08544 0.40718,-0.24082 0.60364,-0.3562c0.04272,-0.03007 0.08539,-0.06017 0.134,-0.02525z" fill="#c0d8d8"/><path d="M207.83646,295.11478c-0.0708,0.16521 -0.16169,0.27538 -0.27553,0.35562c-0.05692,0.04008 -0.12807,0.0903 -0.19368,0.0904c-0.28817,-0.0045 -0.55614,0.04601 -0.82417,0.0965c-0.0802,-0.1049 -0.01184,-0.13001 0.03087,-0.16013c0.14232,-0.1003 0.29885,-0.21063 0.41824,-0.34089c0.16209,-0.16034 0.32454,-0.20565 0.53879,-0.12602c0.1,0.04483 0.17708,0.05971 0.3055,0.08449z" fill="#c1d9d9"/><path d="M205.5944,290.8373c0.22527,-0.02042 0.43085,0.01927 0.66484,0.03884c0.04069,0.225 -0.0815,0.38024 -0.1408,0.56045c-0.26523,0.02549 -0.51937,-0.04906 -0.79053,-0.08862c0.06211,-0.20519 0.17003,-0.35045 0.26648,-0.51069z" fill="#c3dbdc"/><path d="M200.56645,294.77271c-0.13045,0.23035 -0.2582,0.43564 -0.37444,0.65593c-0.17393,0.03035 -0.33362,0.0506 -0.52215,-0.02406c0.01071,-0.21512 0.09572,-0.3903 0.16923,-0.58054c0.23088,-0.07042 0.45612,-0.09086 0.72728,-0.05132z" fill="#c3dadb"/><path d="M207.26901,291.70962c-0.2427,-0.0596 -0.45969,-0.11423 -0.67665,-0.16885c-0.01499,-0.22005 0.07002,-0.39526 0.15502,-0.57046c0.2083,0.01462 0.3996,0.06429 0.59955,0.15398c0.00591,0.06502 0.00904,0.15504 0.00354,0.20505c-0.02808,0.13509 -0.06485,0.23018 -0.0815,0.38029z" fill="#c4dbdc"/><path d="M206.96788,296.44185c0.27043,-0.19056 0.4839,-0.34101 0.71154,-0.5015c0.15695,0.00471 0.29687,0.04451 0.44265,0.14927c-0.00242,0.14003 -0.12494,0.18028 -0.18742,0.27042c-0.06245,0.09014 -0.1364,0.1653 -0.20753,0.21547c-0.25697,-0.04955 -0.46248,-0.0892 -0.7593,-0.1337z" fill="#c2d9da"/><path d="M200.88654,297.56814c-0.15969,0.02028 -0.30237,0.00558 -0.42807,-0.04424c-0.10591,-0.10985 -0.06634,-0.23001 -0.08097,-0.33497c-0.01463,-0.10497 -0.06915,-0.20494 -0.00391,-0.32008c0.16522,-0.07033 0.37353,-0.05568 0.61033,-0.06114c-0.01384,0.1251 -0.02769,0.25018 -0.02733,0.3652c-0.0281,0.13507 -0.05615,0.27019 -0.07001,0.39528z" fill="#c5ddde"/><path d="M205.94473,289.80625c0.19965,-0.02536 0.33402,0.06443 0.48816,0.09415c0.05489,0.21499 0.00704,0.41015 -0.04354,0.63034c-0.19407,-0.02465 -0.38817,-0.04935 -0.5708,-0.05902c-0.03788,-0.25001 0.07556,-0.44532 0.12619,-0.66546z" fill="#c3dbdc"/><path d="M203.28308,297.60885c0.00318,0.09005 -0.00235,0.14004 -0.00788,0.19006c-0.02531,0.11006 -0.06486,0.23021 -0.09294,0.3653c-0.27948,0.03549 -0.52453,0.11599 -0.80716,0.06146c-0.05178,-0.12497 -0.01501,-0.22006 0.03878,-0.35021c0.25932,-0.0905 0.55854,-0.18604 0.86922,-0.26668z" fill="#c7dfe0"/><path d="M207.24473,292.99513c0.22845,0.06962 0.43951,0.05926 0.63673,0.17393c0.01773,0.19505 -0.1273,0.32034 -0.13246,0.48541c-0.28816,-0.00452 -0.51662,-0.07409 -0.77354,-0.12366c0.01348,-0.24014 0.17001,-0.35042 0.26923,-0.53571z" fill="#c7dee0"/><path d="M209.66394,291.29015c0.09722,0.06983 0.13473,0.20485 0.28613,0.25956c0.16209,-0.16034 0.32695,-0.34568 0.52339,-0.46109c0.03162,0.06999 0.07468,0.15493 0.09208,0.2349c0.02606,0.11999 0.00074,0.23007 -0.09887,0.30031c-0.15928,0.13534 -0.30435,0.26065 -0.46372,0.39598c-0.149,-0.19481 -0.20353,-0.29475 -0.33904,-0.72968z" fill="#61acb1"/><path d="M198.45992,292.70572c0.22256,0.00462 0.40511,0.01429 0.63915,0.03388c-0.11624,0.22028 -0.21822,0.43052 -0.34592,0.63584c-0.17113,0.00534 -0.32807,0.00058 -0.49369,-0.04413c0.01346,-0.24013 0.09847,-0.41532 0.20048,-0.62558z" fill="#c2dada"/><path d="M208.09227,294.81924c-0.22256,-0.00462 -0.39961,-0.06432 -0.61662,-0.11898c0.15338,-0.20037 0.27833,-0.38065 0.40328,-0.56094c0.17393,-0.03035 0.29685,0.04449 0.45968,0.11423c0.00355,0.20506 -0.11864,0.36039 -0.24631,0.56565z" fill="#c1d9d9"/><path d="M199.38536,294.77481c-0.03918,0.23516 -0.08426,0.40529 -0.11791,0.59044c-0.17669,0.05533 -0.36801,0.00566 -0.55932,-0.04404c-0.03197,-0.18499 -0.03827,-0.36505 0.03527,-0.55526c0.20515,-0.0754 0.39094,0.02433 0.64193,0.00884z" fill="#c6dedf"/><path d="M204.91165,288.82777c0.20829,0.01462 0.41384,0.05429 0.60791,0.07895c0.08891,0.14488 0.10077,0.27491 0.06991,0.43506c-0.23088,0.07042 -0.45651,-0.02425 -0.69331,-0.01879c-0.04625,-0.17499 -0.00389,-0.32009 0.01548,-0.49521z" fill="#c0d7d7"/><path d="M203.55405,298.47866c0.20237,-0.05038 0.38463,-0.15573 0.63009,-0.1212c-0.03087,0.16014 -0.04751,0.31023 -0.06411,0.46029c-0.17078,0.12032 -0.37038,0.14569 -0.5759,0.10603c-0.04897,-0.14996 -0.03513,-0.27501 0.00991,-0.44516z" fill="#c3dadb"/><path d="M208.99703,292.33679c0.04584,0.05995 0.10593,0.10985 0.1518,0.1698c0.19965,-0.02537 0.31032,-0.19559 0.4783,-0.29096c0.09445,0.09486 0.05491,0.215 0.12091,0.3299c-0.13916,0.19031 -0.3443,0.26574 -0.44907,0.501c-0.12881,-0.13983 -0.15489,-0.25979 -0.19246,-0.39482c-0.02887,-0.09499 -0.13751,-0.17986 -0.10944,-0.31491z" fill="#5aa0a4"/><path d="M201.58434,287.71325c0.20236,-0.05037 0.38466,-0.15575 0.6044,-0.12613c0.05178,0.12497 0.04067,0.22504 0.02409,0.3751c-0.17948,0.08036 -0.38186,0.13074 -0.5787,0.1311c-0.05177,-0.12498 -0.0549,-0.21499 -0.04974,-0.38005z" fill="#bdd3d4"/><path d="M207.29994,290.7192c-0.16563,-0.04473 -0.31977,-0.07448 -0.47389,-0.10419c-0.03198,-0.18502 -0.00114,-0.34514 0.04393,-0.51527c0.14821,-0.03526 0.25697,0.04955 0.33716,0.15444c0.10318,0.13484 0.20629,0.2697 0.09283,0.46501z" fill="#bdd4d5"/><path d="M198.51431,291.02998c0.22805,-0.0454 0.44194,-0.08082 0.66997,-0.12625c-0.18422,0.36045 -0.39734,0.62591 -0.86847,0.4967c0.00242,-0.14003 0.10479,-0.23527 0.19848,-0.37047z" fill="#bbd2d3"/><path d="M208.0385,292.34346c0.03474,0.15999 -0.00479,0.28013 -0.04436,0.40023c-0.09961,0.0702 -0.1854,0.01532 -0.28816,-0.00451c-0.07707,-0.01487 -0.16835,-0.0197 -0.25135,-0.0996c-0.03474,-0.15999 0.10752,-0.26028 0.087,-0.43031c0.19685,-0.00038 0.34822,0.05436 0.49683,0.13412z" fill="#c3dadb"/><path d="M202.72514,293.64345c-0.2791,0.15052 -0.55815,0.30109 -0.88309,0.3917c-0.0545,-0.09993 0.00515,-0.16511 0.07633,-0.21521c0.17355,-0.14535 0.3585,-0.27572 0.52928,-0.39608c0.12807,-0.09027 0.22534,-0.02042 0.27744,0.21958z" fill="#b1c6c7"/><path d="M204.28685,287.95358c-0.13674,0.05027 -0.24822,-0.00956 -0.36521,-0.01935c-0.22256,-0.0046 -0.33992,-0.12943 -0.4063,-0.35945c0.26801,-0.05049 0.53361,0.03909 0.76206,0.10869c0.066,0.11493 0.07192,0.17996 0.00947,0.27009z" fill="#bbd2d3"/><path d="M201.04708,291.73574c-0.22455,0.25051 -0.54667,0.31609 -0.87162,0.40672c0.13047,-0.23035 0.34395,-0.38073 0.5317,-0.53614c0.11662,-0.10525 0.17949,-0.08037 0.3399,0.12944z" fill="#bad1d2"/><path d="M200.77677,288.48996c0.03364,-0.18512 0.03881,-0.3502 0.0724,-0.53532c0.08262,-0.03515 0.21663,-0.06041 0.33916,-0.10064c0.13514,0.31988 0.12091,0.32991 -0.07556,0.44532c-0.09962,0.07018 -0.21072,0.12542 -0.33601,0.19065z" fill="#b5cbcc"/><path d="M198.80525,296.22132c-0.07189,-0.17993 -0.06955,-0.32002 -0.06714,-0.46005c0.16247,-0.04532 0.31107,0.03449 0.47669,0.07918c0.0091,0.15504 0.00664,0.29507 0.01574,0.45012c-0.13952,0.07527 -0.27114,-0.0395 -0.42533,-0.06926z" fill="#c0d7d8"/><path d="M202.60018,288.61182c-0.04027,-0.10997 -0.01501,-0.22006 0.02453,-0.34019c0.21939,-0.08541 0.45614,-0.09087 0.68737,-0.04623c0.09445,0.09486 0.07467,0.15492 0.02645,0.235c-0.24228,0.05548 -0.48462,0.11092 -0.73839,0.15137z" fill="#bdd4d4"/><path d="M198.08044,292.69633c-0.05932,0.18017 -0.1443,0.35538 -0.20363,0.53556c-0.117,-0.00981 -0.20278,-0.06467 -0.27156,-0.15455c-0.04027,-0.10995 0.00791,-0.19007 0.04469,-0.28516c0.03401,-0.0701 0.06799,-0.14017 0.102,-0.21027c0.11979,-0.01524 0.22256,0.0046 0.32848,0.11446z" fill="#b6cccc"/><path d="M200.05358,295.84898c-0.03365,0.18511 -0.06448,0.34522 -0.08666,0.54537c-0.09684,0.04519 -0.21663,0.06043 -0.36247,-0.04436c-0.00911,-0.15504 -0.00392,-0.3201 -0.01021,-0.50014c0.15969,-0.02028 0.29371,-0.04556 0.45933,-0.00082z" fill="#c1d9d9"/><path d="M198.06323,291.78611c0.15969,-0.02028 0.29094,-0.02055 0.44229,0.03423c-0.03364,0.18512 -0.15306,0.3154 -0.2325,0.44058c-0.13674,0.05027 -0.23399,-0.01958 -0.33398,-0.06443c-0.02014,-0.05499 -0.04306,-0.08496 -0.02887,-0.09499c0.05103,-0.10511 0.102,-0.21024 0.15306,-0.31539z" fill="#b7cdce"/><path d="M198.67963,290.12932c-0.06489,0.2302 -0.19294,0.32047 -0.2981,0.44071c-0.10793,0.14526 -0.23362,0.09545 -0.38499,0.04071c0.03364,-0.18512 0.1388,-0.30536 0.2068,-0.44554c0.16523,-0.07032 0.32254,0.04943 0.47631,-0.03587z" fill="#b6cccc"/><path d="M202.5766,287.52148c0.17114,-0.00532 0.30236,-0.00556 0.44783,-0.01581c0.11738,0.12485 0.18614,0.21475 0.1952,0.36978c-0.19686,0.00035 -0.38224,0.0157 -0.55337,0.02102c-0.14585,-0.10475 -0.10626,-0.22488 -0.16084,-0.32481c0.02847,-0.02006 0.04548,-0.05512 0.07115,-0.05018z" fill="#c2dada"/><path d="M199.65736,296.82004c0.13399,-0.02522 0.21107,-0.01039 0.29686,0.04447c0.083,0.07991 0.0719,0.17994 0.08653,0.28494c0.00316,0.09005 0.06915,0.20494 -0.01901,0.29014c-0.14267,-0.01477 -0.28258,-0.05451 -0.41422,-0.16933c0.00515,-0.16508 0.03325,-0.30018 0.04987,-0.45027z" fill="#bbd2d3"/><path d="M208.52008,293.91817c-0.15137,-0.05474 -0.26562,-0.08955 -0.3913,-0.13934c0.01938,-0.17512 0.08742,-0.31526 0.14395,-0.47046c0.13121,-0.00024 0.24549,0.03455 0.32566,0.13949c0.00871,0.04 0.01736,0.07999 0.00039,0.11506c-0.01108,0.10003 -0.03642,0.21017 -0.07871,0.35527z" fill="#bbd2d3"/><path d="M200.45311,288.09546c-0.01901,0.29015 -0.01902,0.29016 -0.20364,0.53554c-0.17116,0.0053 -0.27706,-0.10457 -0.42288,-0.20934c0.16486,-0.18539 0.40715,-0.24082 0.62655,-0.32624z" fill="#adc2c3"/><path d="M208.04288,291.94827c-0.13121,0.00024 -0.25695,-0.04958 -0.35136,-0.14444c0.01938,-0.17512 0.03596,-0.32516 0.06687,-0.48526c0.33716,0.15444 0.34862,0.16941 0.28455,0.62971z" fill="#b5cbcc"/><path d="M198.13804,293.7166c0.15693,0.0047 0.27392,0.01453 0.4253,0.0693c0.02052,0.16999 -0.07318,0.30524 -0.11826,0.4754c-0.06562,0.00012 -0.11697,-0.0098 -0.16837,-0.01968c-0.05139,-0.00991 -0.1,-0.04482 -0.16286,-0.06973c-0.06045,-0.16496 -0.03238,-0.30002 0.02417,-0.45522z" fill="#bbd1d2"/><path d="M208.53888,295.28865c0.01499,0.22006 -0.14431,0.35538 -0.20084,0.51055c-0.14545,0.01024 -0.23994,-0.08461 -0.36564,-0.13442c0.07629,-0.21521 0.19572,-0.34547 0.38663,-0.41082c0.04271,-0.03007 0.117,0.00979 0.17984,0.03469z" fill="#b6cccd"/><path d="M202.34496,298.61593c0.26523,-0.02549 0.52769,-0.02592 0.77867,-0.04139c0.06599,0.11494 0.06916,0.20492 0.01539,0.33508c-0.27114,-0.0395 -0.54229,-0.07905 -0.80513,-0.19362c0.00555,-0.05005 0.00832,-0.07505 0.01107,-0.10004z" fill="#acc1c2"/><path d="M201.13114,292.99107c0.15063,-0.17534 0.31271,-0.33569 0.52063,-0.43606c0.08264,-0.03515 0.17391,-0.03034 0.23122,0.04458c0.02289,0.02994 0.04028,0.10997 0.02605,0.12001c-0.20199,0.16542 -0.49569,0.21097 -0.7779,0.27149z" fill="#a7bbbb"/><path d="M198.01817,294.56219c0.10833,-0.0302 0.2083,0.01462 0.31975,0.07445c-0.00515,0.16508 -0.01034,0.33014 -0.01548,0.49521c-0.15969,0.02028 -0.24267,-0.0596 -0.3229,-0.16448c-0.02606,-0.11999 -0.00948,-0.27008 0.01864,-0.40519z" fill="#b7cdcd"/><path d="M206.52855,289.51012c-0.19965,0.02537 -0.35099,-0.02941 -0.51384,-0.09912c-0.04897,-0.14996 -0.06084,-0.28 0.02141,-0.43019c0.22291,0.11964 0.34621,0.30951 0.49246,0.5293z" fill="#b7cece"/><path d="M207.89986,297.03041c-0.09054,0.22524 -0.32138,0.29566 -0.40637,0.4709c-0.1312,0.00024 -0.16284,-0.06975 -0.14308,-0.12982c0.05653,-0.15515 0.13878,-0.30538 0.2811,-0.40563c0.05417,-0.01512 0.06839,-0.0251 0.26839,0.06453z" fill="#b4cacb"/><path d="M201.98619,297.94633c0.02607,0.11998 0.01776,0.19503 -0.03045,0.27516c-0.22256,-0.0046 -0.45931,0.00081 -0.73361,-0.12874c0.23046,-0.18546 0.47592,-0.15088 0.76407,-0.14641z" fill="#b2c8c9"/><path d="M208.39137,292.94805c-0.0091,-0.15504 -0.00946,-0.27009 0.05301,-0.36022c0.06839,-0.02514 0.11703,0.00977 0.16563,0.04473c0.19445,0.13969 0.15211,0.28485 0.06712,0.46003c-0.08578,-0.05484 -0.18578,-0.09971 -0.28577,-0.14453z" fill="#b5cbcb"/><path d="M200.1369,290.83201c-0.17354,0.14536 -0.33005,0.25567 -0.5352,0.33105c-0.07151,-0.06491 -0.05177,-0.12495 -0.00908,-0.15503c0.08818,-0.08518 0.16488,-0.18538 0.25303,-0.27056c0.11386,-0.08021 0.18814,-0.04034 0.29125,0.09454z" fill="#91a3a3"/><path d="M204.20736,296.7269c0.09054,-0.22524 0.28702,-0.34064 0.45779,-0.46098c0.02847,-0.02006 0.07986,-0.01016 0.117,0.0098c0.0229,0.02995 0.02886,0.09497 0.01461,0.10503c-0.16486,0.18539 -0.37278,0.28577 -0.5894,0.34618z" fill="#99abac"/><path d="M205.2413,297.10517c0.13716,0.06477 0.19444,0.13971 0.14622,0.21983c-0.07672,0.10018 -0.24192,0.17047 -0.47277,0.24093c0.06207,-0.20522 0.2186,-0.31549 0.32654,-0.46073z" fill="#93a5a6"/><path d="M205.2461,288.17693c-0.24823,-0.00958 -0.49923,0.0059 -0.59169,-0.34407c0.26246,-0.00042 0.41143,0.19435 0.59169,0.34407z" fill="#9aadad"/><path d="M202.81654,290.21207c-0.07948,0.12521 -0.17315,0.2604 -0.23841,0.37557c-0.10554,0.00518 -0.15415,-0.02974 -0.20869,-0.1297c0.07078,-0.16522 0.25893,-0.20556 0.37554,-0.31082c0.0229,0.02995 0.03437,0.04496 0.07155,0.06492z" fill="#c5dddd"/><path d="M202.80875,294.78369c0.08186,-0.26524 0.2669,-0.39562 0.49771,-0.46606c0.01424,-0.01003 0.05141,0.0099 0.07432,0.03987c0.04861,0.03493 0.02886,0.09497 0.00038,0.11503c-0.14504,0.12533 -0.35025,0.2007 -0.57242,0.31115z" fill="#aec2c3"/><path d="M208.5148,294.91355c0.03364,-0.18512 0.14154,-0.33036 0.23527,-0.46559c0.10553,-0.00519 0.13717,0.0648 0.10317,0.13488c-0.05379,0.13016 -0.09333,0.25025 -0.17281,0.37543c-0.00555,0.05005 -0.0826,0.03517 -0.16561,-0.04473z" fill="#9caeaf"/><path d="M198.32669,295.56696c0.06045,0.16497 0.0723,0.29494 0.06712,0.46005c-0.20591,-0.15469 -0.2893,-0.3496 -0.42681,-0.52943c0.05417,-0.0151 0.08264,-0.03515 0.1083,-0.03017c0.08853,0.02987 0.16282,0.06972 0.25137,0.09956z" fill="#a9bebf"/><path d="M205.59982,294.22353c-0.1087,-0.08485 -0.14029,-0.15478 -0.14344,-0.24487c0.13087,-0.11525 0.29331,-0.16056 0.55024,-0.11102c-0.14786,0.15033 -0.27594,0.24057 -0.40678,0.35588z" fill="#b9cfd0"/><path d="M201.64542,289.76899c-0.10552,0.00518 -0.1656,-0.04476 -0.22568,-0.09464c-0.02883,-0.09498 0.04229,-0.14512 0.41824,-0.34087c0.05215,0.24 -0.13878,0.30537 -0.19257,0.43551z" fill="#869797"/><path d="M203.52487,295.66274c0.26208,-0.1155 0.35818,-0.39081 0.68939,-0.30133c-0.16762,0.2104 -0.34982,0.31576 -0.68939,0.30133z" fill="#93a4a5"/><path d="M198.84359,290.5442c0.21344,-0.15042 0.35579,-0.2507 0.49809,-0.35101c0.02847,-0.02006 0.07986,-0.01017 0.1142,0.03481c0.01147,0.015 0.02014,0.055 0.01739,0.08001c-0.14782,0.15033 -0.30442,0.26068 -0.62968,0.23622z" fill="#94a5a6"/><path d="M200.8818,289.20004c-0.12568,-0.04983 -0.1743,-0.0847 -0.17469,-0.19976c0.10238,-0.0952 0.21902,-0.20048 0.39571,-0.25581c0.01495,0.22007 -0.12732,0.32032 -0.221,0.45554z" fill="#abbfc0"/><path d="M197.87199,290.90609c0.08577,0.05485 0.12291,0.0748 0.14585,0.1048c-0.07315,0.30524 -0.07316,0.3052 -0.30677,0.40066c-0.02921,-0.21002 0.11306,-0.31031 0.16095,-0.50543z" fill="#acc0c1"/><path d="M204.41398,288.4635c-0.18263,-0.00969 -0.368,0.00566 -0.56207,-0.01901c-0.07707,-0.01487 -0.1229,-0.07483 -0.07191,-0.17993c0.22256,0.00462 0.43084,0.01923 0.63397,0.19895z" fill="#9fb2b2"/><path d="M197.78108,293.62223c0.00037,0.11507 -0.00796,0.19008 -0.05615,0.27018c-0.07987,0.01017 -0.14269,-0.01473 -0.21423,-0.07964c-0.05452,-0.09995 -0.02919,-0.21002 -0.00389,-0.3201c0.10833,-0.0302 0.19129,0.04968 0.27426,0.12956z" fill="#aec2c3"/><path d="M204.31707,291.94494c0.02054,0.16998 -0.0791,0.24024 -0.16725,0.32543c-0.04272,0.03007 -0.10551,0.00518 -0.1399,-0.03977c-0.0229,-0.02995 -0.02887,-0.095 -0.00039,-0.11504c0.051,-0.10512 0.15934,-0.13535 0.30755,-0.17059z" fill="#91a2a3"/><path d="M198.93525,296.7063c0.36802,-0.00566 0.3937,-0.00075 0.34346,0.3345c-0.12014,-0.09983 -0.27154,-0.15457 -0.34346,-0.3345z" fill="#869696"/><path d="M205.86885,297.9544c-0.01073,0.21511 -0.13045,0.23031 -0.24155,0.28555c-0.03197,-0.18501 -0.03197,-0.185 0.24155,-0.28555z" fill="#555f5f"/><path d="M203.23378,291.30168c0.07116,-0.05016 0.17076,-0.12033 0.30478,-0.1456c-0.02494,0.22513 -0.08186,0.26522 -0.22728,0.27551c-0.03993,0.00507 -0.07433,-0.03988 -0.07745,-0.12992z" fill="#93a5a6"/><path d="M198.47614,289.83463c0.05616,-0.2702 0.09607,-0.27529 0.32216,-0.06558c-0.07673,0.10018 -0.19368,0.09041 -0.32216,0.06558z" fill="#8b9b9c"/><path d="M205.61142,298.62005c0.10793,-0.14525 0.23321,-0.21046 0.35858,-0.27573c0.11146,0.05981 0.11737,0.12486 0.06043,0.16495c-0.11384,0.08022 -0.23916,0.14547 -0.41898,0.1108z" fill="#9aacad"/><path d="M197.50186,291.99713c0.00242,-0.14003 -0.02366,-0.26005 0.10163,-0.32532c0.01425,-0.01002 0.03993,-0.00509 0.05139,0.00989c0.07469,0.15494 0.01221,0.24509 -0.15303,0.3154z" fill="#5f6a6b"/><path d="M204.97113,293.02918c-0.02254,0.08507 -0.07948,0.12522 -0.14788,0.15031c-0.03993,0.00507 -0.0913,-0.00484 -0.09999,-0.04485c-0.00871,-0.04 -0.00316,-0.09005 0.02533,-0.11008c0.05692,-0.04008 0.1253,-0.06523 0.22253,0.00462z" fill="#636e6f"/><path d="M197.68135,294.52269c-0.12292,-0.07482 -0.16599,-0.15975 -0.098,-0.29993c0.1486,0.07977 0.15179,0.16978 0.098,0.29993z" fill="#4a5354"/></g><g data-paper-data="{&quot;index&quot;:null}" fill="#000000" stroke="#000000" stroke-width="1.2"><path d="M226.17145,289.26662c-1.20711,1.42305 -4.54109,1.71985 -6.56918,2.794c-2.18354,1.15645 -2.9469,2.96093 -4.5839,2.83533c-1.14343,-0.08774 -2.06338,-1.38246 -2.45131,-2.11495c-0.94337,-1.78115 1.2984,-4.8174 5.00711,-6.78165c3.7087,-1.96424 7.47996,-2.11268 8.42331,-0.33153c0.42749,0.80713 1.17429,2.41957 0.17401,3.5988z"/><path d="M226.42877,285.13684c-1.70114,1.96887 -7.39459,3.86678 -7.39459,3.86678c0,0 -2.80752,2.74745 -2.88474,2.78663c-4.92009,2.49733 -6.60767,-0.55856 -8.46523,-4.06584c-0.88409,-1.66922 -1.56671,-4.59448 -0.52368,-6.31515c1.18292,-1.95144 3.87119,-2.72473 6.59413,-4.16688c5.12387,-2.71375 10.59803,-2.9077 12.48473,0.65462c0.83052,1.56812 2.46139,4.61015 0.18934,7.23982z"/></g></g><text transform="translate(159.999,195.64369) scale(1.61431,1.61431)" font-size="40" xml:space="preserve" fill="#ffc300" fill-rule="nonzero" stroke="none" stroke-width="1" stroke-linecap="butt" stroke-linejoin="miter" stroke-miterlimit="10" stroke-dasharray="" stroke-dashoffset="0" font-family="Sans Serif" font-weight="normal" text-anchor="start" style="mix-blend-mode: normal"><tspan x="0" dy="0">Jay</tspan></text><text transform="translate(95.33234,352.66667) scale(1.15005,1.15005)" font-size="40" xml:space="preserve" fill="#00ff1e" fill-rule="nonzero" stroke="none" stroke-width="1" stroke-linecap="butt" stroke-linejoin="miter" stroke-miterlimit="10" stroke-dasharray="" stroke-dashoffset="0" font-family="Sans Serif" font-weight="normal" text-anchor="start" style="mix-blend-mode: normal"><tspan x="0" dy="0">V to select</tspan></text><path d="M230.92665,309.81612l-20.79996,-4.60085l0.313,-10.47333l22.62003,2.60735c0,0 3.09326,6.40363 2.74466,7.91251c-0.33355,1.44373 -4.87772,4.55433 -4.87772,4.55433z" fill="#000000" fill-rule="nonzero" stroke="#0f0f0f" stroke-width="1" stroke-linecap="butt" stroke-linejoin="miter"/><path d="M238.2341,307.75068c-1.10632,1.66667 -4.58022,2.07674 -6.23993,2.06465c-0.1592,-0.00117 0.81616,-3.36622 0.50851,-6.4126c-0.08092,-0.80124 -0.32657,-3.91677 -1.17233,-5.13084c-1.05025,-1.50764 -2.71691,-1.08173 -2.5111,-1.38962c0.07707,-0.11528 4.089,-9.2887 6.47726,-9.45088c0.38571,-0.02618 1.55517,0.50557 2.32046,1.50104c0.66898,0.87021 0.96346,2.19273 1.01859,2.51908c0.91745,5.4309 0.26092,15.30125 -0.40148,16.29916z" fill="#000000" fill-rule="nonzero" stroke="#001026" stroke-width="1.2" stroke-linecap="butt" stroke-linejoin="miter"/><path d="M215.71783,299.39735c0.50025,0.87274 0.29539,1.93011 -0.45757,2.3617c-0.75295,0.43158 -1.76888,0.07396 -2.26913,-0.7988c-0.50025,-0.87274 -0.29539,-1.93011 0.45757,-2.3617c0.75295,-0.43158 1.76888,-0.07396 2.26913,0.7988z" fill="#ff0000" fill-rule="nonzero" stroke="#0f0f0f" stroke-width="0" stroke-linecap="butt" stroke-linejoin="miter"/><path d="M224.5955,300.20367c0.50025,0.87274 0.29539,1.93011 -0.45757,2.3617c-0.75295,0.43158 -1.76888,0.07396 -2.26913,-0.7988c-0.50025,-0.87274 -0.29539,-1.93011 0.45757,-2.3617c0.75295,-0.43158 1.76888,-0.07396 2.26913,0.7988z" fill="#ff0000" fill-rule="nonzero" stroke="#0f0f0f" stroke-width="0" stroke-linecap="butt" stroke-linejoin="miter"/></g></g></svg>