<svg version="1.1" xmlns="http://www.w3.org/2000/svg" xmlns:xlink="http://www.w3.org/1999/xlink" width="84.1791" height="46.45653" viewBox="0,0,84.1791,46.45653"><defs><radialGradient cx="251.35665" cy="180.83777" r="37.9" gradientUnits="userSpaceOnUse" id="color-1"><stop offset="0" stop-color="#ff9494"/><stop offset="1" stop-color="#ff9494" stop-opacity="0"/></radialGradient><radialGradient cx="251.38122" cy="180.64453" r="42.32457" gradientUnits="userSpaceOnUse" id="color-2"><stop offset="0" stop-color="#ff9494"/><stop offset="1" stop-color="#ff9494" stop-opacity="0"/></radialGradient></defs><g transform="translate(-209.05664,-157.08124)"><g data-paper-data="{&quot;isPaintingLayer&quot;:true}" fill-rule="nonzero" stroke-linecap="butt" stroke-linejoin="miter" stroke-miterlimit="10" stroke-dasharray="" stroke-dashoffset="0" style="mix-blend-mode: normal"><path d="M250.85286,195.33525c-0.10066,0 -1.91362,-1.9794 -2.02305,-4.04416c-0.11886,-2.24245 1.46688,-4.58558 1.38824,-4.60315c-0.00094,-0.00021 -20.86864,1.75587 -20.86873,1.75582c-0.1058,-0.044 -12.78623,-5.36075 -12.56774,-9.37697c0.19716,-3.62382 12.06962,-10.59346 12.06962,-10.65637c0,-0.02107 19.55881,3.03965 19.56029,3.03948c0.13708,-0.01583 -2.63859,-2.35199 -2.84742,-4.62889c-0.21146,-2.30551 2.14204,-4.55364 1.98453,-4.82201c-0.01492,-0.02541 11.2282,2.41321 20.22652,6.1402c8.66377,3.58843 15.09513,8.46933 15.09568,8.5044c0.00054,0.03502 -5.24231,6.60957 -13.37206,11.34875c-7.8676,4.58636 -18.63043,7.3429 -18.64588,7.3429z" fill="#000000" stroke="#000000" stroke-width="4"/><path d="M252.78144,196.95429c-0.10066,0 -1.91362,-1.9794 -2.02305,-4.04416c-0.11886,-2.24245 1.46688,-4.58558 1.38824,-4.60315c-0.00094,-0.00021 -20.86864,1.75587 -20.86873,1.75582c-0.1058,-0.044 -12.78623,-5.36075 -12.56774,-9.37697c0.19716,-3.62382 12.06962,-10.59346 12.06962,-10.65637c0,-0.02107 19.55881,3.03965 19.56029,3.03948c0.13708,-0.01583 -2.63859,-2.35199 -2.84742,-4.62889c-0.21146,-2.30551 2.14204,-4.55364 1.98453,-4.82201c-0.01492,-0.02541 11.2282,2.41321 20.22652,6.1402c8.66377,3.58843 15.09513,8.46933 15.09568,8.5044c0.00054,0.03502 -5.24231,6.60957 -13.37206,11.34875c-7.8676,4.58636 -18.63043,7.3429 -18.64588,7.3429z" fill="#ff9494" stroke="#520000" stroke-width="4"/><path d="M274.72126,193.85933c-6.8392,3.63573 -13.0177,7.47844 -23.36462,7.47844c-4.21369,0 -1.46677,-5.97194 -5.25314,-6.65844c-5.7643,-1.04511 -12.9178,1.26415 -18.55963,0.05233c-9.06154,-1.94635 -14.08723,-8.32099 -14.08723,-13.89389c0,-4.7725 5.14334,-12.99248 12.30032,-15.17031c5.08736,-1.54805 11.39004,2.62835 16.69665,1.25859c4.93825,-1.27468 0.26657,-7.18827 6.10303,-7.18827c9.2954,0 18.80922,4.41004 25.40248,7.41404c3.88918,1.77198 14.74194,6.44308 14.87502,11.37809c0.15116,5.60569 -10.41328,13.36271 -14.11288,15.32942z" fill="url(#color-1)" stroke="none" stroke-width="0"/><path d="M277.47349,195.18627c-7.63764,4.06018 -14.53743,8.3515 -26.09228,8.3515c-4.7056,0 -1.63801,-6.66912 -5.86641,-7.43577c-6.43724,-1.16712 -14.42586,1.41174 -20.72634,0.05844c-10.11941,-2.17357 -15.73182,-9.29241 -15.73182,-15.51591c0,-5.32966 5.74379,-14.50927 13.7363,-16.94135c5.68127,-1.72878 12.71975,2.9352 18.64588,1.40552c5.51476,-1.42349 0.29769,-8.02746 6.81551,-8.02746c10.38058,0 21.00507,4.92488 28.36805,8.27958c4.34322,1.97885 16.46296,7.19527 16.61157,12.70641c0.16881,6.26012 -11.62896,14.92272 -15.76046,17.11903z" fill="url(#color-2)" stroke="none" stroke-width="0"/></g></g></svg>