<svg version="1.1" xmlns="http://www.w3.org/2000/svg" xmlns:xlink="http://www.w3.org/1999/xlink" width="49.69891" height="29.00629" viewBox="0,0,49.69891,29.00629"><g transform="translate(-215.15054,-165.49686)"><g data-paper-data="{&quot;isPaintingLayer&quot;:true}" fill="#9b7547" fill-rule="nonzero" stroke="#7d5e39" stroke-width="4" stroke-linecap="butt" stroke-linejoin="miter" stroke-miterlimit="10" stroke-dasharray="" stroke-dashoffset="0" style="mix-blend-mode: normal"><path d="M252.44262,185.04625c-2.40696,0.5393 -23.95722,1.58612 -26.12901,0.45868c-0.79587,-0.41316 -1.35976,-9.38097 0.18408,-10.03827c2.4868,-1.05876 23.66457,-1.15635 26.08042,-0.60801c1.54166,0.34992 1.2563,9.87574 -0.13549,10.18759z"/><path d="M262.84945,174.10421c0,3.25616 -3.18577,5.89579 -7.11562,5.89579c-3.92984,0 -7.11562,-2.63964 -7.11562,-5.89579c0,-3.25616 3.18577,-5.89579 7.11562,-5.89579c3.92984,0 7.11562,2.63963 7.11562,5.89579z"/><path d="M262.72472,185.97436c0,3.25616 -3.18577,5.89579 -7.11562,5.89579c-3.92984,0 -7.11562,-2.63964 -7.11562,-5.89579c0,-3.25616 3.18577,-5.89579 7.11562,-5.89579c3.92984,0 7.11562,2.63963 7.11562,5.89579z"/><path d="M231.48342,173.4943c0,3.3123 -3.04923,5.99744 -6.81066,5.99744c-3.76142,0 -6.81066,-2.68515 -6.81066,-5.99744c0,-3.3123 3.04923,-5.99744 6.81066,-5.99744c3.76142,0 6.81066,2.68515 6.81066,5.99744z"/><path d="M231.38177,186.40405c0,3.36844 -3.18576,6.0991 -7.11561,6.0991c-3.92984,0 -7.11562,-2.73065 -7.11562,-6.0991c0,-3.36844 3.18577,-6.0991 7.11562,-6.0991c3.92984,0 7.11561,2.73065 7.11561,6.0991z"/></g></g></svg>