<svg version="1.1" xmlns="http://www.w3.org/2000/svg" xmlns:xlink="http://www.w3.org/1999/xlink" width="35.18644" height="34.59145" viewBox="0,0,35.18644,34.59145"><defs><linearGradient x1="252.39515" y1="179.397" x2="257.09322" y2="179.397" gradientUnits="userSpaceOnUse" id="color-1"><stop offset="0" stop-color="#fffd87"/><stop offset="1" stop-color="#a9a45a"/></linearGradient><linearGradient x1="239.33345" y1="194.82229" x2="241.14209" y2="194.82229" gradientUnits="userSpaceOnUse" id="color-2"><stop offset="0" stop-color="#fffd87"/><stop offset="1" stop-color="#a9a45a"/></linearGradient><linearGradient x1="222.90678" y1="180.60298" x2="227.26225" y2="180.60298" gradientUnits="userSpaceOnUse" id="color-3"><stop offset="0" stop-color="#fffd87"/><stop offset="1" stop-color="#a9a45a"/></linearGradient><linearGradient x1="238.85792" y1="165.62094" x2="240.66655" y2="165.62094" gradientUnits="userSpaceOnUse" id="color-4"><stop offset="0" stop-color="#fffd87"/><stop offset="1" stop-color="#a9a45a"/></linearGradient><linearGradient x1="250.44651" y1="189.90406" x2="253.81188" y2="189.90406" gradientUnits="userSpaceOnUse" id="color-5"><stop offset="0" stop-color="#fffd87"/><stop offset="1" stop-color="#a9a45a"/></linearGradient><linearGradient x1="229.28328" y1="191.59462" x2="232.80408" y2="191.59462" gradientUnits="userSpaceOnUse" id="color-6"><stop offset="0" stop-color="#fffd87"/><stop offset="1" stop-color="#a9a45a"/></linearGradient><linearGradient x1="226.41731" y1="171.41267" x2="230.61275" y2="171.41267" gradientUnits="userSpaceOnUse" id="color-7"><stop offset="0" stop-color="#fffd87"/><stop offset="1" stop-color="#a9a45a"/></linearGradient><linearGradient x1="248.24165" y1="168.90214" x2="250.9459" y2="168.90214" gradientUnits="userSpaceOnUse" id="color-8"><stop offset="0" stop-color="#fffd87"/><stop offset="1" stop-color="#a9a45a"/></linearGradient></defs><g transform="translate(-222.40678,-162.69694)"><g data-paper-data="{&quot;isPaintingLayer&quot;:true}" fill-rule="nonzero" stroke="#e7e47b" stroke-width="1" stroke-linecap="butt" stroke-linejoin="miter" stroke-miterlimit="10" stroke-dasharray="" stroke-dashoffset="0" style="mix-blend-mode: normal"><path d="M257.09322,179.397c0,0.49941 -0.22999,0.90426 -0.51371,0.90426c-0.28372,0 -4.18436,-0.52245 -4.18436,-0.52245c0,0 3.90065,-1.28606 4.18436,-1.28606c0.28372,0 0.51371,0.40485 0.51371,0.90426z" fill="url(#color-1)"/><path d="M240.20655,196.78841c-0.49922,-0.00487 -0.88988,-0.20116 -0.87254,-0.4384c0.01734,-0.23725 0.77794,-3.49392 0.77794,-3.49392c0,0 1.04726,3.27433 1.02993,3.51158c-0.01734,0.23725 -0.4361,0.42561 -0.93533,0.42074z" fill="url(#color-2)"/><path d="M222.90678,180.60299c0,-0.49941 0.21321,-0.90426 0.47625,-0.90426c0.26302,0 3.87922,0.52245 3.87922,0.52245c0,0 -3.6162,1.28606 -3.87922,1.28606c-0.26302,0 -0.47625,-0.40485 -0.47625,-0.90426z" data-paper-data="{&quot;index&quot;:null}" fill="url(#color-3)"/><path d="M239.79345,163.21161c0.49922,0.00598 0.88989,0.2465 0.87255,0.53723c-0.01734,0.29073 -0.77794,4.28155 -0.77794,4.28155c0,0 -1.04726,-4.01245 -1.02993,-4.30318c0.01734,-0.29073 0.4361,-0.52157 0.93533,-0.51559z" data-paper-data="{&quot;index&quot;:null}" fill="url(#color-4)"/><path d="M253.74626,191.12707c-0.12381,0.14888 -0.38109,0.1391 -0.57465,-0.02186c-0.19355,-0.16096 -2.7251,-2.52972 -2.7251,-2.52972c0,0 2.97994,1.82959 3.17348,1.99055c0.19355,0.16096 0.25008,0.41214 0.12627,0.56102z" fill="url(#color-5)"/><path d="M229.41075,193.62617c-0.18715,-0.16428 -0.16573,-0.49468 0.04783,-0.73795c0.21356,-0.24328 3.3455,-3.41623 3.3455,-3.41623c0,0 -2.45424,3.76785 -2.66779,4.01114c-0.21356,0.24328 -0.5384,0.30733 -0.72554,0.14306z" fill="url(#color-6)"/><path d="M226.49912,169.88802c0.15436,-0.18561 0.47509,-0.17342 0.71638,0.02725c0.24129,0.20067 3.39725,3.15367 3.39725,3.15367c0,0 -3.71493,-2.28085 -3.95621,-2.48152c-0.24129,-0.20067 -0.31178,-0.51379 -0.15742,-0.6994z" data-paper-data="{&quot;index&quot;:null}" fill="url(#color-7)"/><path d="M250.848,167.34174c0.14374,0.12618 0.12729,0.37994 -0.03674,0.56681c-0.16404,0.18686 -2.56961,2.62395 -2.56961,2.62395c0,0 1.88505,-2.89402 2.04908,-3.08088c0.16404,-0.18686 0.41353,-0.23606 0.55728,-0.10987z" data-paper-data="{&quot;index&quot;:null}" fill="url(#color-8)"/></g></g></svg>