<svg version="1.1" xmlns="http://www.w3.org/2000/svg" xmlns:xlink="http://www.w3.org/1999/xlink" width="725.58332" height="487.59033" viewBox="0,0,725.58332,487.59033"><g transform="translate(121.11111,88.49827)"><g data-paper-data="{&quot;isPaintingLayer&quot;:true}" fill-rule="nonzero" stroke-linejoin="miter" stroke-miterlimit="10" stroke-dasharray="" stroke-dashoffset="0" style="mix-blend-mode: normal"><path d="M-115.80199,276.01836h720.2742v123.07371h-720.2742z" fill="#140c00" stroke="#663b00" stroke-width="0" stroke-linecap="butt"/><path d="M-121.11111,287.87712v-376.37538h722.22222v376.37538zM22.83965,78.42331c0.01765,4.23203 0.65689,8.43856 1.01932,12.65499c0.46174,5.37179 -0.45434,10.86815 0.01475,16.2466c0.17664,2.02526 0.8254,3.99054 1,6.01598c0.82625,9.58471 -0.03407,19.62813 -0.03407,29.25291c0,4.28507 -0.92936,9.87875 0,14.0373c0.76444,3.4206 0.37887,7.69989 2.92893,10.0979c6.60526,6.2114 24.24432,0.69082 29.30933,-0.14842c12.70599,-1.0527 25.68817,-1.16398 38.30222,-3.05051c2.89071,-0.43233 5.66918,-1.45528 8.55068,-1.94551c13.39237,-2.27845 27.30772,-1.94546 40.90883,-1.94546c6.33333,0 12.66667,0 19,0c3,0 6.02749,0.40628 9,0c2.98778,-0.40836 6.62045,0.14621 8.8471,-1.89261c9.18116,-8.40665 4.06582,-10.82682 3.05624,-19.55138c-0.69406,-5.99792 0.38348,-12.08345 0.08639,-18.11426c-0.18164,-3.6871 -0.66667,-7.35287 -1,-11.0293c0.02258,-18.8409 -0.42069,-37.53788 -3.09431,-56.13848c-0.44603,-3.10308 -1.19615,-6.16064 -2.02454,-9.18375c-0.65841,-2.40278 -0.1604,-5.35623 -1.75845,-7.26458c-2.32725,-2.77914 -10.31635,-6.04966 -14.44132,-6.14668c-3.42312,-0.08051 -6.80752,0.76856 -10.22411,0.9954c-1.88558,0.12519 -3.79326,-0.17164 -5.66883,0.05978c-2.5344,0.3127 -4.84707,1.73517 -7.37999,2.05967c-10.60136,1.35819 -21.58071,2.42588 -32.29053,3.92119c-14.7746,0.6086 -28.7906,0.4923 -43.56079,0.97297c-3.51427,0.11436 -6.98569,0.99209 -10.50181,0.99247c-5.78935,0.00062 -12.15208,-1.94419 -18.04504,-1.00276c-2.97785,0.47572 -6.63743,-0.1647 -8.8471,1.89261c-2.992,2.78568 -4.3111,7.1361 -5.1529,11.14202c-0.75419,3.58905 2.69162,7.6751 3.23281,11.17492c0.4535,2.93271 1.00197,5.85358 1.42694,8.79018c-2.65975,2.95998 -2.65975,7.10681 -2.65975,7.10681z" fill="#2a2915" stroke="none" stroke-width="NaN" stroke-linecap="butt"/><path d="" fill="#fffddc" stroke="none" stroke-width="NaN" stroke-linecap="butt"/><path d="M43.5453,58.06757c0.9159,0.08968 1.83008,0.20648 2.74391,0.32639c-0.62047,0.39533 -1.20686,0.76754 -1.74956,1.10587c0,0 -0.28312,0.17695 -0.71357,0.51792c-0.08303,-0.6514 -0.17481,-1.3025 -0.28078,-1.95018z" fill="#fffddc" stroke="none" stroke-width="NaN" stroke-linecap="butt"/><path d="M143.79656,85.79639c-0.09538,-0.09239 -0.1926,-0.1829 -0.29158,-0.27147c-0.17821,-0.92372 -0.32512,-1.86448 -0.45246,-2.81619c0.52694,0.94778 0.72587,1.99134 0.74404,3.08766z" fill="#fffddc" stroke="none" stroke-width="NaN" stroke-linecap="butt"/><path d="M309.81982,288.37862v-147.14715h114.11411v147.14715z" fill="#2e1b00" stroke="none" stroke-width="0" stroke-linecap="butt"/><path d="M419.42943,229.82006c0,6.63405 -5.37796,12.01201 -12.01201,12.01201c-6.63405,0 -12.01201,-5.37796 -12.01201,-12.01201c0,-6.63405 5.37796,-12.01201 12.01201,-12.01201c6.63405,0 12.01201,5.37796 12.01201,12.01201z" fill="#a35f00" stroke="none" stroke-width="0" stroke-linecap="butt"/><path d="M24.83965,42.97981l152,-9l9,119l-157,14z" fill="none" stroke="#000000" stroke-width="11" stroke-linecap="round"/><path d="M105.83965,158.97981l-10,-119" fill="none" stroke="#000000" stroke-width="4.5" stroke-linecap="round"/><path d="M181.83965,97.97981l-154,16" fill="none" stroke="#000000" stroke-width="4.5" stroke-linecap="round"/><path d="M104.63004,350.27085l-37.23151,-52.58116l176.89575,-7.80609l40.03151,47.38116z" fill="none" stroke="#140c00" stroke-width="2.5" stroke-linecap="butt"/><path d="M150.09432,294.50189l33,49.8" fill="none" stroke="#140c00" stroke-width="2.5" stroke-linecap="round"/><path d="M262.69432,312.10189l-173.6,14.8" fill="none" stroke="#140c00" stroke-width="2.5" stroke-linecap="round"/></g></g></svg>