<svg version="1.1" xmlns="http://www.w3.org/2000/svg" xmlns:xlink="http://www.w3.org/1999/xlink" width="75.04289" height="110.03666" viewBox="0,0,75.04289,110.03666"><defs><linearGradient x1="222.44657" y1="159.20262" x2="202.46939" y2="148.98974" gradientUnits="userSpaceOnUse" id="color-1"><stop offset="0" stop-color="#000000"/><stop offset="1" stop-color="#000000" stop-opacity="0"/></linearGradient></defs><g transform="translate(-197.45588,-134.85572)"><g data-paper-data="{&quot;isPaintingLayer&quot;:true}" stroke-miterlimit="10" stroke-dasharray="" stroke-dashoffset="0" style="mix-blend-mode: normal"><g stroke-linejoin="miter"><path d="M267.67672,177.87688c-6.12281,11.97668 -21.23269,16.49861 -33.74888,10.09999c-12.51617,-6.39861 -17.69903,-21.29474 -11.57621,-33.27142c6.12281,-11.97668 21.23269,-16.49861 33.74888,-10.09999c12.51617,6.39861 17.69903,21.29474 11.57621,33.27142z" fill="none" fill-rule="nonzero" stroke="#000000" stroke-width="4.5" stroke-linecap="butt"/><g stroke-linecap="butt"><g fill-rule="nonzero"><path d="M238.75063,145.42546l-0.0065,-0.01243" data-paper-data="{&quot;index&quot;:null}" fill="#ffab19" stroke="#000000" stroke-width="5"/><g data-paper-data="{&quot;index&quot;:null}" fill="none" stroke="none" stroke-width="1" font-family="sans-serif" font-weight="normal" font-size="12" text-anchor="start"/></g><path d="M238.75063,145.42546l-0.0065,-0.01243" data-paper-data="{&quot;index&quot;:null}" fill="#ffab19" fill-rule="nonzero" stroke="#000000" stroke-width="5"/><path d="M244.19825,167.24755" fill="#001026" fill-rule="evenodd" stroke="#000000" stroke-width="5"/><g data-paper-data="{&quot;index&quot;:null}" fill="none" fill-rule="nonzero" stroke="none" stroke-width="1" font-family="sans-serif" font-weight="normal" font-size="12" text-anchor="start"/><g data-paper-data="{&quot;index&quot;:null}" fill="none" fill-rule="nonzero" stroke="none" stroke-width="1" font-family="sans-serif" font-weight="normal" font-size="12" text-anchor="start"/></g><path d="M228.37276,186.11809l-26.11363,-13.61248c0,0 -1.98636,-1.39659 -1.26728,-2.04145c1.6489,-1.4787 10.96115,-6.65182 10.96115,-6.65182l-8.59625,-8.85682c0,0 -1.48455,-1.77403 -1.26856,-2.89818c0.20092,-1.04575 14.60645,-4.19467 14.60645,-4.19467c0,0 -5.71778,-6.9771 -6.80997,-9.76031c-0.42888,-1.0929 14.23212,-2.18991 23.64757,-1.56403c4.60725,0.30626 11.00781,0.49261 15.51667,1.97748c7.47601,2.46202 11.77346,7.23289 11.77346,7.23289" fill="none" fill-rule="nonzero" stroke="#000000" stroke-width="3" stroke-linecap="round"/><path d="M200.59438,171.65454c0,0 0.16698,-1.49133 2.14153,-2.65268c2.47318,-1.45462 8.70797,-1.91822 8.31031,-4.77366c-0.51512,-3.69895 -11.95086,-9.03146 -8.81712,-11.74998c2.57317,-2.23222 13.31457,-2.87754 14.25746,-4.72192c0.94082,-1.8403 -3.69868,-2.80006 -4.77884,-6.44198c-1.53623,-5.1796 0.0674,-4.36604 0.0674,-4.36604c0,0 13.83736,-1.31825 20.02272,-0.90416c5.80325,0.38851 16.01627,3.31688 16.01627,3.31688c0,0 -19.55527,5.44205 -25.11697,11.63825c-6.16523,6.8686 1.00517,31.4188 1.00517,31.4188z" data-paper-data="{&quot;index&quot;:null}" fill="url(#color-1)" fill-rule="nonzero" stroke="none" stroke-width="0" stroke-linecap="butt"/></g><path d="M235.5745,189.53538l-0.98643,15.86593" fill="none" fill-rule="nonzero" stroke="#000000" stroke-width="6" stroke-linecap="round" stroke-linejoin="miter"/><path d="M237.38763,204.77022c0.00175,-0.00627 2.33437,-2.50832 3.22599,-2.77122c2.0573,-0.60663 6.4449,2.75112 7.29477,5.8297c0.33032,1.19658 0.26855,2.9096 -0.19917,4.29925c-0.37474,1.11341 -1.10742,2.04793 -1.38187,2.12887c-0.89156,0.26289 -3.8062,-0.19582 -3.8062,-0.19582" data-paper-data="{&quot;index&quot;:null}" fill="#000000" fill-rule="nonzero" stroke="#001026" stroke-width="1.2" stroke-linecap="butt" stroke-linejoin="miter"/><path d="M223.15756,208.56667c0,0 -2.60802,-7.42195 -1.91843,-8.30557c1.24863,-1.59996 14.48281,-9.92302 14.48281,-9.92302c0,0 7.93198,4.51224 9.98084,9.50285c1.44591,3.52194 -3.83856,8.8201 -3.01775,9.66101" fill="none" fill-rule="nonzero" stroke="#000000" stroke-width="6" stroke-linecap="round" stroke-linejoin="miter"/><g><g stroke="#001026" stroke-width="1.2"><path d="M243.71913,204.1031l2.92297,25.98777c0,0 7.06267,0.41252 6.89471,7.51322c-0.00958,0.40481 -0.10976,2.39235 -3.02746,2.97403c-2.79456,0.55712 -8.36532,-0.27515 -10.40081,-0.59138c-0.94539,-0.14688 -2.3855,-0.78756 -3.30585,-1.88454c-0.92663,-1.1045 -0.82654,-2.71079 -0.82591,-3.6144c0.00025,-0.36804 -2.07942,-29.30669 -2.07942,-29.30669" fill="#bf0000" fill-rule="evenodd" stroke-linecap="round" stroke-linejoin="round"/><path d="M233.72285,211.04162c0.17213,-7.27706 5.51843,-7.403 8.30395,-7.33711c1.21125,0.02865 1.04756,-1.91626 2.11947,3.77541c0.23607,1.25353 0.69999,6.3997 1.69204,10.77992c0.67932,2.9994 1.95353,5.64787 2.19159,6.40876c0.56246,1.79781 0.33108,3.4367 0.33108,3.4367l-1.01983,-1.19108c0,0 0.67202,0.83007 0.94114,1.32535c0.83841,1.54291 1.47974,2.70742 1.47974,2.70742c0,0 -7.12324,-0.46 -9.89761,1.80974c-2.77437,2.26974 -1.39961,6.54185 -1.39961,6.54185c0,0 -5.2776,-0.81096 -5.70054,-3.7225c-0.10427,-0.71777 0.71428,-2.85374 0.71428,-2.85374c0,0 -0.60345,0.12082 -0.623,-0.37617c-0.00997,-0.25335 0.79863,-4.01168 0.97828,-8.23959c0.2365,-5.56573 -0.1358,-12.01646 -0.111,-13.06496z" fill="#000000" fill-rule="nonzero" stroke-linecap="butt" stroke-linejoin="miter"/></g><path d="M224.66759,205.87548c-0.00985,-0.21361 1.19871,0.41618 3.93725,0.48896c3.61284,0.09603 9.14579,-0.33359 10.70162,-0.5534c4.03453,-0.57001 4.71727,-2.0872 4.74339,-1.52095c0.09666,2.09545 -2.1854,5.97695 -6.80087,6.18985c-2.02828,0.09356 -6.17685,0.79526 -8.52611,0.05752c-2.9966,-0.94103 -4.00109,-3.48741 -4.05528,-4.662z" fill="#004fd9" fill-rule="nonzero" stroke="#001026" stroke-width="1.2" stroke-linecap="butt" stroke-linejoin="miter"/><g fill-rule="nonzero" stroke-linecap="butt" stroke-linejoin="miter"><g fill="none" stroke="none" stroke-width="1" font-family="sans-serif" font-weight="normal" font-size="12" text-anchor="start"/><path d="M224.18075,204.51265c0,0 8.66928,1.31911 12.65307,1.30072c3.98378,-0.01839 7.26589,-1.39268 7.26589,-1.39268c0,0 0.03136,2.05113 -1.74527,4.04738c-1.37522,1.54522 -4.01823,3.14596 -7.43439,3.17992c-3.11221,0.03094 -6.58434,-0.62286 -8.30303,-1.96446c-2.60502,-2.03348 -2.43626,-5.17089 -2.43626,-5.17089z" fill="#000000" stroke="#001026" stroke-width="1.2"/></g><g stroke="#001026" stroke-width="1.2"><path d="M233.75787,209.71143c0,0 -3.38365,30.23157 -4.0011,30.33136c-1.77192,0.28635 -11.48215,-2.27779 -11.48215,-2.27779l6.24171,-30.39505" data-paper-data="{&quot;index&quot;:null}" fill="#ffab19" fill-rule="evenodd" stroke-linecap="round" stroke-linejoin="round"/><path d="M235.25328,209.22402c0,0 -0.79043,6.39285 -1.0239,9.78248c-0.22392,3.25117 -0.34946,10.15728 -0.34946,10.15728c0,0 0.94919,5.01816 0.02119,6.25564c-0.42981,0.57316 -0.7685,-2.83316 -0.7685,-2.83316c0,0 0.37809,3.84012 0.41532,4.17859c0.25975,2.36159 -0.92568,5.46282 -4.03203,5.75745c-3.41058,0.32348 -9.06481,0.68884 -11.97961,-1.17955c-1.2402,-0.79497 -2.92012,-3.1351 -2.46798,-5.62796c0.50989,-2.8113 3.24812,-5.75646 3.24812,-5.75646l-2.5161,3.21037c0,0 -0.02623,-1.60299 0.38317,-2.77887c0.45976,-1.32051 2.2419,-4.76073 2.2419,-4.76073l5.40244,-19.36098" data-paper-data="{&quot;index&quot;:null}" fill="#000000" fill-rule="evenodd" stroke-linecap="round" stroke-linejoin="round"/><path d="M232.09404,238.15796c-0.08549,1.69749 -0.78288,3.66972 -2.29657,4.69384c-1.51931,1.02791 -10.65038,0.62056 -12.06199,-0.63569c-1.34056,-1.19302 -1.88664,-3.39806 -1.8032,-5.05479c0.1713,-3.40126 3.92809,-5.93544 8.39105,-5.66022c4.46293,0.27521 7.94201,3.2556 7.77069,6.65688z" fill="#ff0000" fill-rule="nonzero" stroke-linecap="butt" stroke-linejoin="miter"/></g></g><path d="M225.49007,216.02402c0,0 -2.91464,0.45871 -3.8062,0.19582c-0.27445,-0.08094 -1.00713,-1.01546 -1.38187,-2.12887c-0.46772,-1.38965 -0.52949,-3.10267 -0.19917,-4.29925c0.84987,-3.07858 5.23747,-6.43633 7.29477,-5.8297c0.89162,0.2629 3.22424,2.76495 3.22599,2.77122" fill="#000000" fill-rule="nonzero" stroke="#001026" stroke-width="1.2" stroke-linecap="butt" stroke-linejoin="miter"/><g fill="#ff0000" fill-rule="nonzero" stroke="none" stroke-linecap="butt" stroke-linejoin="miter"><path d="M239.26097,220.99245c0.36529,1.10834 -0.30897,2.32666 -1.50599,2.72116c-1.19701,0.39451 -2.46351,-0.18418 -2.8288,-1.29253c-0.36529,-1.10835 0.30897,-2.32665 1.50599,-2.72116c1.19701,-0.39451 2.46351,0.18418 2.8288,1.29252z" stroke-width="NaN"/><path d="M243.57945,224.37481c0.33606,1.01968 -0.25405,2.13057 -1.31807,2.48124c-1.06402,0.35067 -2.199,-0.19166 -2.53507,-1.21134c-0.33606,-1.01968 0.25406,-2.13057 1.31808,-2.48125c1.06402,-0.35067 2.19899,0.19167 2.53505,1.21134z" stroke-width="0"/><path d="M241.23794,229.15119c0.35067,1.06402 -0.2276,2.21084 -1.29162,2.56151c-1.06402,0.35067 -2.21084,-0.2276 -2.56151,-1.29162c-0.35067,-1.06402 0.2276,-2.21085 1.29161,-2.56152c1.06402,-0.35067 2.21085,0.22761 2.56152,1.29162z" stroke-width="0"/></g><g fill="#ff0000" fill-rule="nonzero" stroke="none" stroke-linecap="butt" stroke-linejoin="miter"><path d="M242.49928,213.25786c-0.94325,0.0241 -1.72901,-0.78218 -1.75504,-1.80089c-0.02604,-1.01871 0.71752,-1.86408 1.66077,-1.88818c0.94325,-0.0241 1.729,0.78219 1.75504,1.8009c0.02604,1.01871 -0.71751,1.86407 -1.66076,1.88817z" stroke-width="NaN"/><path d="M238.87306,215.81151c-0.86778,0.02218 -1.59003,-0.69391 -1.61318,-1.59943c-0.02314,-0.90552 0.66159,-1.65757 1.52938,-1.67974c0.86778,-0.02218 1.59002,0.69392 1.61317,1.59943c0.02314,0.90552 -0.66159,1.65757 -1.52937,1.67974z" stroke-width="0"/><path d="M241.99617,217.6458c-0.98098,0.02507 -1.79419,-0.6581 -1.81637,-1.52588c-0.02218,-0.86778 0.75509,-1.59159 1.73606,-1.61666c0.98098,-0.02507 1.7942,0.6581 1.81637,1.52589c0.02218,0.86778 -0.75509,1.59158 -1.73607,1.61665z" stroke-width="0"/></g><g data-paper-data="{&quot;index&quot;:null}" fill-rule="nonzero" stroke="none" stroke-width="1" stroke-linecap="butt" stroke-linejoin="miter"><path d="M217.77915,234.66058c0.05502,-0.20476 0.19485,-0.254 0.36921,-0.28259c0.27869,-0.02305 0.55661,0.01042 0.83505,0.00631c0.05293,-0.05385 0.10587,-0.10767 0.14139,-0.16241c0.81573,-1.1274 1.93716,-1.71011 3.17771,-2.09774c0.26206,-0.08058 0.52444,-0.18002 0.80258,-0.16532c0.05216,0.00278 0.12196,-0.01244 0.15725,-0.04836c0.19408,-0.19743 0.42009,-0.18553 0.66377,-0.19155c0.20888,-0.00787 0.41726,0.02199 0.62588,0.033c0.12168,0.00642 0.24289,0.05056 0.3283,0.16832c0.08537,0.11776 0.2237,0.1817 0.34461,0.24467c0.72685,0.28373 1.39974,0.69674 2.01893,1.22016c0.34384,0.30129 0.61739,0.65548 0.89065,1.02854c0.80271,1.09944 1.2554,2.35032 1.44577,3.70064c0.07867,0.60823 0.07018,1.23073 -0.00784,1.84954c-0.0586,0.46882 -0.2384,0.89353 -0.43529,1.29846c-0.62654,1.28841 -1.59587,2.20005 -2.80477,2.81587c-0.22782,0.12012 -0.48962,0.18185 -0.75144,0.24355c-0.17461,0.04744 -0.33214,0.11465 -0.43904,0.29777c-0.08926,0.16516 -0.24674,0.23238 -0.4211,0.26095c-0.27869,0.02305 -0.55686,0.00838 -0.83504,-0.0063c-0.08695,-0.00459 -0.15599,-0.04598 -0.225,-0.0874c-0.24108,-0.18258 -0.5011,-0.25294 -0.77903,-0.28644c-0.59087,-0.05001 -1.14438,-0.28686 -1.69813,-0.50484c-0.2076,-0.08647 -0.41494,-0.19175 -0.6044,-0.33386c-0.62022,-0.44798 -1.20543,-0.91302 -1.684,-1.5423c-0.26077,-0.01374 -0.5387,-0.04728 -0.81687,-0.06192c-0.10433,-0.0055 -0.22602,-0.01192 -0.294,-0.12877c-0.06823,-0.09797 -0.17284,-0.08464 -0.27713,-0.09012c-0.69517,-0.0555 -1.39059,-0.09218 -2.08576,-0.1477c-1.54709,-0.10046 -3.11154,-0.20176 -4.65811,-0.33993c-1.5118,-0.13634 -3.02435,-0.21603 -4.53666,-0.31466c-0.24341,-0.01282 -0.4689,-0.06248 -0.71229,-0.07529c-1.18222,-0.06231 -2.36448,-0.12466 -3.54644,-0.20583c-0.20862,-0.01099 -0.41777,0.01571 -0.60745,-0.10755c-0.06906,-0.0414 -0.1562,-0.02712 -0.24314,-0.03172c-0.86931,-0.04579 -1.75572,-0.11142 -2.62502,-0.15724c-0.03477,-0.00184 -0.08692,-0.0046 -0.12168,-0.00642c-0.27844,0.00421 -0.41572,-0.13518 -0.53382,-0.40569c-0.38778,-0.90766 -0.47948,-1.83746 -0.27514,-2.78943c0.05551,-0.24248 0.14578,-0.4831 0.27056,-0.70306c0.08927,-0.16517 0.22936,-0.23331 0.40346,-0.24302c0.52235,-0.02907 1.04495,-0.07705 1.5847,-0.10522c0.38302,-0.01757 0.7829,0.00351 1.16666,-0.07065c0.83734,-0.1635 1.689,-0.09974 2.52555,-0.20669c0.47043,-0.05072 0.92404,-0.14008 1.39424,-0.17194c0.50495,-0.03001 0.99306,-0.09866 1.48086,-0.14849c0.88849,-0.08529 1.79384,-0.13195 2.68257,-0.23613c1.16791,-0.16494 2.33488,-0.25447 3.50176,-0.34398c0.40067,-0.0355 0.80125,-0.07105 1.20193,-0.10654c0.62693,-0.04249 1.2712,-0.084 1.8981,-0.12645c0.34824,-0.01941 0.67961,-0.07743 1.02782,-0.09686c0.36591,-0.03735 0.69619,-0.01994 1.07923,-0.0375zM218.01612,235.14498c-0.10742,0.22086 -0.18006,0.44355 -0.20081,0.68785c-0.16315,0.48222 -0.20489,0.98969 -0.24659,1.49718c-0.0609,0.63863 -0.05253,1.29975 -0.04388,1.94204c0.00735,0.7366 0.18933,1.42577 0.38843,2.13475c0.03375,0.07729 0.06748,0.15457 0.1181,0.27048c0.13907,0.00736 0.27816,0.01463 0.41724,0.02197c0.03477,0.00184 0.06981,-0.01519 0.12221,-0.03131c0.00181,-0.13204 -0.01378,-0.26501 -0.04674,-0.3989c-0.04908,-0.22912 -0.0636,-0.43752 -0.11265,-0.66662c-0.09658,-0.5714 -0.03649,-1.15346 -0.08092,-1.7221c-0.0133,-0.30274 -0.06127,-0.60728 -0.03979,-0.90818c0.06115,-0.65749 0.03541,-1.31953 0.16611,-1.97331c0.0371,-0.16795 0.07441,-0.35473 0.11153,-0.5227c0.10537,-0.06996 0.07261,-0.22271 0.1087,-0.3152c0.05371,-0.11042 0.10741,-0.22088 0.09283,-0.42926c-0.22782,0.12012 -0.45308,0.05163 -0.66272,0.11606c-0.01869,0.09341 -0.12399,0.16336 -0.09104,0.29725zM217.4147,235.86833c0.16242,-0.42561 0.18131,-0.53786 0.1499,-0.78494c-0.20888,0.00787 -0.4004,0.01667 -0.60929,0.02452c-0.12168,-0.00642 -0.20966,0.06441 -0.26338,0.17489c-0.03582,0.07366 -0.03708,0.16793 -0.07289,0.24156c-0.1256,0.27654 -0.1821,0.59448 -0.16883,0.89721c-0.0887,0.12748 -0.09081,0.27835 -0.09286,0.42929c-0.02897,0.84793 -0.07504,1.67613 -0.01711,2.52865c0.02962,0.37912 0.07661,0.75916 0.14129,1.1212c0.06569,0.28666 0.13111,0.59212 0.33666,0.82948c0.22603,0.01191 0.45202,0.02379 0.67806,0.03573c-0.03269,-0.15273 -0.06567,-0.28665 -0.09888,-0.40162c-0.13185,-0.53551 -0.22898,-1.06918 -0.25654,-1.59921c-0.04287,-0.68183 0.00117,-1.3591 0.0278,-2.03727c0.00437,-0.32071 0.11278,-0.61701 0.09979,-0.9386c0.12399,-0.16336 0.14397,-0.35108 0.1463,-0.52084zM198.03243,237.18739c-0.10792,0.25859 -0.12893,0.52175 -0.11514,0.78674c-0.01763,0.01793 -0.03555,0.05477 -0.0358,0.07366c0.0112,0.45364 0.05718,0.90912 0.20799,1.33237c0.08359,0.24985 0.14977,0.49871 0.33844,0.6974c0.97362,0.05132 1.94719,0.10261 2.97298,0.15674c-0.18504,-0.4628 -0.26585,-0.92015 -0.32918,-1.37649c-0.06414,-0.39983 -0.00682,-0.77433 -0.0362,-1.1723c0.00204,-0.1509 0.02122,-0.28204 0.02328,-0.43296c0.09002,-0.22175 0.14552,-0.46426 0.16678,-0.74627c-0.52159,-0.02749 -1.01045,0.09776 -1.49777,0.10983c-0.50496,0.03001 -1.0102,0.07889 -1.49775,0.10984c-0.124,0.16335 -0.16087,0.31243 -0.19767,0.46152zM201.53339,236.9c-0.08868,0.1275 -0.10818,0.27747 -0.11021,0.42835c-0.07163,0.14724 -0.05656,0.31796 -0.07626,0.48678c-0.02458,0.52729 0.03774,1.05913 0.1351,1.57392c0.06542,0.30546 0.16565,0.61279 0.33589,0.88603c0.06955,0.00369 0.13882,0.0262 0.20837,0.02983c0.85194,0.04494 1.6864,0.08893 2.53806,0.15267c0.90379,0.06651 1.79022,0.1321 2.69402,0.19864c1.32108,0.0885 2.62448,0.195 3.94555,0.28349c1.47727,0.11563 2.93795,0.17374 4.4147,0.32711c0.24313,0.03171 0.50418,0.02653 0.76498,0.04032c-0.06672,-0.21114 -0.16846,-0.40526 -0.20038,-0.61461c-0.14747,-0.66847 -0.19034,-1.35031 -0.19848,-2.03031c0.00824,-0.60362 0.03387,-1.20634 0.0595,-1.80908c0.03812,-0.24341 0.05859,-0.46883 0.09671,-0.71224c0.10638,-0.14539 0.07392,-0.31702 0.11074,-0.4661c0.0371,-0.16795 0.1087,-0.31518 0.09388,-0.50474c-0.17335,-0.04689 -0.31297,-0.01649 -0.4349,-0.00405c-1.02862,0.15344 -2.07253,0.15503 -3.10035,0.25187c-0.66196,0.0595 -1.32392,0.11897 -1.9861,0.19737c-0.88849,0.08529 -1.75982,0.19038 -2.6309,0.27661c-0.71434,0.07563 -1.42872,0.15122 -2.14283,0.20795c-0.76653,0.07284 -1.51539,0.12774 -2.28167,0.18174c-0.69671,0.05766 -1.41082,0.11442 -2.12518,0.19003c-0.01969,0.16883 -0.12555,0.27654 -0.11024,0.42835zM224.74436,244.42845c-0.15079,-0.42322 -0.21494,-0.82307 -0.29647,-1.22376c-0.08127,-0.41959 -0.1802,-0.8212 -0.24406,-1.23986c-0.06413,-0.39982 -0.09324,-0.81667 -0.13996,-1.21555c-0.04649,-0.41778 -0.093,-0.83551 -0.12186,-1.27118c-0.02935,-0.39795 -0.04106,-0.81389 -0.07042,-1.21187c-0.01171,-0.4159 0.0461,-0.82817 -0.03517,-1.24776c0.1097,-0.39061 0.04584,-0.80929 0.06861,-1.20452c0.04045,-0.41314 0.04635,-0.84705 0.08678,-1.2602c0.04019,-0.39428 0.09803,-0.80655 0.15557,-1.19992c0.05784,-0.41227 0.18497,-0.80198 0.1906,-1.21694c-0.41675,-0.05973 -0.53842,-0.06615 -0.85344,0.06827c-0.09002,0.22175 -0.18006,0.44356 -0.23579,0.70488c-0.05654,0.31794 -0.11308,0.63585 -0.18727,0.97174c-0.13048,0.63494 -0.24325,1.25196 -0.25228,1.91218c-0.00618,0.45274 0.00504,0.90639 -0.07071,1.35546c-0.01869,0.09341 -0.02021,0.20658 0.01301,0.32156c0.04909,0.2291 0.02832,0.47343 0.02526,0.69978c-0.01134,0.83001 0.08164,1.6655 0.1923,2.48307c0.12442,1.08258 0.37103,2.13382 0.66986,3.1878c0.04933,0.21023 0.09864,0.42049 0.25307,0.5796c0.26028,0.05149 0.52135,0.04637 0.85241,0.00721zM226.91724,236.91666c-0.22397,-0.1628 -0.44896,-0.25019 -0.67368,-0.35641c-0.18994,-0.10442 -0.39833,-0.13426 -0.60799,-0.06981c-0.40141,0.0921 -0.81946,0.12672 -1.23646,0.08583c-0.03477,-0.00184 -0.08719,0.01425 -0.10456,0.01334c-0.05342,0.09156 -0.05444,0.16701 -0.0036,0.26411c0.0171,0.01978 0.05164,0.04048 0.06905,0.04139c0.50344,0.08318 1.0063,0.20407 1.50871,0.3627c0.06928,0.02255 0.17333,0.04688 0.24341,0.01281c0.27921,-0.06078 0.55839,-0.12158 0.80516,-0.35399zM224.30746,235.64644c0.46864,0.08132 0.91937,0.19949 1.35247,0.33561c0.13855,0.04503 0.26052,0.03261 0.40038,-0.01666c0.20989,-0.08332 0.38558,-0.20621 0.57864,-0.32816c0.07006,-0.03406 0.15749,-0.06719 0.12427,-0.18222c-0.29428,-0.1099 -0.57093,-0.23774 -0.86569,-0.30993c-0.73458,0.28221 -0.73456,0.28218 -1.56933,0.25706c-0.05294,0.05383 -0.07134,0.12839 -0.02073,0.24431zM222.52294,240.19609c-0.31192,-0.09196 -0.62412,-0.16505 -0.93629,-0.23813c-0.06929,-0.02255 -0.13856,-0.04505 -0.20836,-0.02986c-0.27996,0.11736 -0.55968,0.21592 -0.7888,0.43036c0.20553,0.23736 0.46555,0.30768 0.70743,0.43371c0.1209,0.06301 0.22549,0.04962 0.34797,-0.00055c0.28023,-0.13623 0.55998,-0.23477 0.85677,-0.31346c0.0174,0.00092 0.0353,-0.03586 0.07055,-0.07176c-0.01661,-0.0575 -0.03298,-0.13392 -0.04933,-0.21025zM226.91792,240.692c-0.27483,-0.2599 -0.53408,-0.38683 -0.79306,-0.5326c-0.1038,-0.04324 -0.19097,-0.02894 -0.27815,-0.01466c-0.4188,0.09121 -0.83687,0.12575 -1.27124,0.08399c-0.05215,-0.00276 -0.10456,0.01334 -0.15671,0.01062c-0.02023,0.20659 -0.00336,0.24523 0.13573,0.25255c0.45207,0.02382 0.88541,0.14108 1.2827,0.35077c0.24185,0.12602 0.45075,0.11817 0.67807,0.03575c0.12275,-0.06904 0.22784,-0.12012 0.40272,-0.18641zM224.2597,237.87139c-0.00127,0.09431 0.06805,0.11682 0.13758,0.12051c0.48678,0.02568 0.95414,0.2013 1.42152,0.37698c0.38093,0.13333 0.78185,0.07896 1.16819,-0.18383c-0.15467,-0.14028 -0.32828,-0.16832 -0.48346,-0.27088c-0.32776,-0.20605 -0.65808,-0.22345 -1.00684,-0.16634c-0.38351,0.0553 -0.76732,0.12943 -1.14928,0.07157c-0.05239,0.01614 -0.07009,0.03406 -0.08772,0.05202zM226.91856,239.37073c-0.20708,-0.12419 -0.34488,-0.22586 -0.48293,-0.30862c-0.22423,-0.14393 -0.43259,-0.17381 -0.67701,-0.11121c-0.33187,0.09577 -0.68011,0.11518 -1.02806,0.11572c-0.12197,0.01243 -0.26105,0.00511 -0.38273,-0.0013c-0.01869,0.09341 0.0332,0.115 0.06798,0.11683c0.50292,0.12087 1.00553,0.26065 1.48978,0.47497c0.08667,0.02344 0.15596,0.04596 0.24313,0.03169c0.2447,-0.08149 0.48912,-0.1441 0.76985,-0.31807zM222.68056,241.39365c-0.33137,0.05806 -0.64353,-0.01505 -0.95598,-0.06928c-0.08692,-0.00458 -0.1557,-0.06485 -0.24313,-0.0317c-0.13989,0.04928 -0.42113,0.26096 -0.58045,0.46022c0.17207,0.14124 0.38017,0.18993 0.5704,0.2755c0.15571,0.06484 0.29504,0.05331 0.43541,-0.03368c0.24545,-0.13805 0.49041,-0.23842 0.76937,-0.28035c0.0174,0.00094 0.05266,-0.03499 0.07029,-0.05292c0.01842,-0.07456 0.01946,-0.15 -0.06595,-0.26775zM221.62118,234.88189c-0.24493,0.10036 -0.54026,0.06589 -0.76859,0.22376c0.01558,0.13295 0.10174,0.19416 0.17026,0.27327c0.1373,0.13937 0.23952,0.29577 0.42948,0.40017c0.3145,-0.09666 0.6617,-0.04065 0.9933,-0.11754c0.05342,-0.09156 0.05475,-0.18587 0.02123,-0.28204c-0.29404,-0.12875 -0.57016,-0.29433 -0.84574,-0.49762zM222.3971,237.94314c-0.17335,-0.04689 -0.34667,-0.09379 -0.46708,-0.19452c-0.29245,-0.24194 -0.5883,-0.23864 -0.8859,-0.10331c-0.10508,0.05106 -0.20941,0.04556 -0.3153,0.15325c0.17131,0.19781 0.36073,0.33995 0.5502,0.48203c0.05164,0.04048 0.12118,0.04412 0.20835,0.02985c0.26183,-0.06173 0.50599,-0.10548 0.7678,-0.16717c0.05216,0.00278 0.12223,-0.03132 0.14191,-0.20019zM222.41329,236.7547c-0.38146,-0.09561 -0.72761,-0.22714 -1.00245,-0.48703c-0.05138,-0.05933 -0.12119,-0.04413 -0.19072,-0.04779c-0.15673,0.01062 -0.31375,0.04009 -0.47173,0.14503c0.2398,0.27694 0.48092,0.45953 0.73937,0.64304c0.08615,0.06117 0.17281,0.08464 0.2774,0.07126c0.19177,-0.02759 0.38328,-0.03644 0.57503,-0.06408c0.0174,0.00094 0.05268,-0.03499 0.07031,-0.05293c0.00077,-0.05659 0.00155,-0.1132 0.0028,-0.20747zM226.04643,242.08076c0.17487,-0.0663 0.36718,-0.13164 0.54208,-0.19793c0.01763,-0.01793 0.0353,-0.0359 0.07056,-0.07178c-0.15363,-0.21576 -0.36073,-0.33995 -0.55092,-0.42549c-0.54078,0.10365 -1.04675,0.2091 -1.63788,0.17794c0.27458,0.27876 0.55453,0.16134 0.77977,0.22986c0.2774,0.07126 0.53688,0.1793 0.79639,0.28736zM227.33809,236.67449c0.2112,-0.17763 0.42189,-0.31758 0.54719,-0.57523c-0.12065,-0.08188 -0.20631,-0.18078 -0.30989,-0.24284c-0.10355,-0.06207 -0.20681,-0.14303 -0.32853,-0.14942c-0.15722,0.04836 -0.26336,0.17489 -0.38633,0.2628c-0.12296,0.08792 -0.26286,0.13716 -0.35184,0.28347c0.2764,0.1467 0.5356,0.27364 0.82937,0.42128zM224.28916,234.43733c0.52053,0.10294 0.95443,0.18242 1.38827,0.26194c0.03477,0.00184 0.08668,0.02348 0.12196,-0.01244c0.19303,-0.12197 0.42034,-0.20438 0.54539,-0.44317c-0.24237,-0.08829 -0.46738,-0.17566 -0.69264,-0.24416c-0.40324,0.22414 -0.83964,0.33328 -1.36303,0.43783zM220.69443,239.04263c0.11939,0.1762 0.29273,0.22307 0.43078,0.30587c0.15518,0.10258 0.31113,0.14855 0.5034,0.08316c0.26206,-0.08057 0.52415,-0.16114 0.80183,-0.10876c0.03658,-0.13024 0.02023,-0.20659 -0.08409,-0.21209c-0.26051,-0.03259 -0.53844,-0.06615 -0.76291,-0.19124c-0.32828,-0.16832 -0.59117,-0.03118 -0.88902,0.12305zM221.10243,237.19533c-0.29221,-0.2608 -0.5154,-0.48021 -0.73882,-0.68076c-0.12168,-0.00642 -0.19204,0.0465 -0.26205,0.08057c-0.07031,0.05293 -0.17511,0.08514 -0.2117,0.21533c0.13626,0.21487 0.30753,0.41262 0.49643,0.5925c0.22676,-0.04468 0.43644,-0.10914 0.71616,-0.20765zM220.2101,240.11197c0.26311,-0.15601 0.49116,-0.29503 0.73662,-0.43307c-0.22423,-0.14396 -0.43107,-0.28701 -0.63788,-0.43005c-0.22782,0.12012 -0.43775,0.20343 -0.59726,0.42156c0.15414,0.17801 0.32647,0.30036 0.49852,0.44157zM227.88212,237.6093c-0.10121,-0.23186 -0.32647,-0.30036 -0.49877,-0.42272c-0.05164,-0.04048 -0.13881,-0.02621 -0.1915,0.00879c-0.17542,0.10402 -0.33318,0.19008 -0.4912,0.29497c-0.0174,-0.00092 -0.01788,0.03684 -0.01843,0.07456c0.24159,0.14491 0.50083,0.27175 0.74244,0.41667c0.17512,-0.08513 0.31628,-0.22872 0.45743,-0.37231zM227.30376,240.46704c0.19225,-0.06539 0.36715,-0.13165 0.49172,-0.33272c-0.15444,-0.15916 -0.30832,-0.35605 -0.51567,-0.46137c-0.12248,0.05016 -0.24443,0.06263 -0.34976,0.13258c-0.10508,0.05105 -0.24393,0.02487 -0.29838,0.19191c0.22395,0.16282 0.44791,0.32562 0.67215,0.46963zM220.28981,240.64463c-0.15749,0.06721 -0.24674,0.2324 -0.35337,0.39666c0.20655,0.16194 0.36049,0.35878 0.60283,0.4471c0.14116,-0.14359 0.33366,-0.22782 0.47559,-0.42799c-0.24159,-0.14491 -0.48345,-0.27091 -0.72505,-0.41577zM222.94275,242.57786c-0.31269,-0.03536 -0.64379,0.00385 -0.95598,-0.06929c-0.26028,-0.05147 -0.40112,0.07327 -0.54332,0.29228c0.18943,0.14211 0.38017,0.18993 0.58802,0.2575c0.28149,-0.23056 0.61313,-0.3075 0.91126,-0.48054zM224.54698,233.3938c0.01635,0.07638 0.0685,0.0791 0.12065,0.08188c0.22574,0.03078 0.46916,0.04361 0.69467,0.09326c0.3293,0.09285 0.50573,-0.08662 0.70033,-0.32178c-0.12122,-0.04415 -0.20759,-0.08642 -0.29426,-0.10988c-0.20786,-0.06756 -0.39883,-0.09653 -0.59241,0.06315c-0.12296,0.08791 -0.27999,0.11736 -0.41959,0.14781c-0.06929,-0.02255 -0.1557,-0.06483 -0.20939,0.04557zM221.21574,233.9922c0.06823,0.09797 0.13702,0.15825 0.18841,0.21758c0.13649,0.19596 0.29223,0.26082 0.50136,0.23408c0.17436,-0.02854 0.36537,0.00041 0.53947,-0.0093c0.05217,0.00278 0.10406,0.02436 0.12326,-0.10678c-0.24211,-0.10718 -0.48375,-0.25202 -0.70743,-0.43372c-0.05164,-0.04048 -0.13854,-0.04504 -0.20809,-0.04873c-0.13958,0.03038 -0.26185,0.0617 -0.43696,0.14686zM220.3332,238.74037c0.17488,-0.06628 0.36689,-0.11279 0.52518,-0.23662c-0.18869,-0.19871 -0.34231,-0.41446 -0.56651,-0.55842c-0.1754,0.10403 -0.35002,0.15143 -0.45719,0.35344c0.15443,0.15917 0.29118,0.3363 0.49853,0.44157zM226.71817,238.75604c0.18868,0.19869 0.39578,0.32287 0.60336,0.4093c0.1754,-0.10401 0.33314,-0.19009 0.49195,-0.35162c-0.10227,-0.15642 -0.24008,-0.25806 -0.39551,-0.34175c-0.22754,0.10126 -0.45486,0.18368 -0.69982,0.28401zM219.55638,237.0194c-0.12327,0.10678 -0.21094,0.15876 -0.28176,0.24944c-0.05293,0.05385 -0.08848,0.10859 -0.12402,0.16338c0.08434,0.1932 0.20373,0.36941 0.37605,0.49176c0.17512,-0.08513 0.35026,-0.17031 0.47455,-0.35255c-0.15414,-0.17801 -0.27355,-0.35421 -0.44482,-0.552zM222.71892,233.48623c-0.20583,-0.21849 -0.3428,-0.37672 -0.51435,-0.55568c-0.06928,-0.02255 -0.19121,-0.0101 -0.29632,0.04101c-0.10481,0.03223 -0.22601,-0.01191 -0.31449,0.09669c0.04984,0.17252 0.13523,0.29028 0.25564,0.39103c0.27844,-0.0042 0.53923,0.00958 0.86954,0.02698zM228.19495,236.36105c-0.08823,0.08977 -0.17645,0.1795 -0.26468,0.26919c-0.08822,0.08978 -0.15902,0.18042 -0.24725,0.27013c0.18941,0.14212 0.32672,0.28152 0.51744,0.32933c0.10508,-0.05108 0.14139,-0.16243 0.19486,-0.25398c0.05342,-0.09156 0.15902,-0.18042 0.14346,-0.31333c-0.12019,-0.11962 -0.20553,-0.23736 -0.34386,-0.30129zM219.42039,239.33413c0.1759,-0.14176 0.38586,-0.22506 0.52802,-0.44414c-0.1373,-0.13935 -0.27483,-0.25989 -0.41212,-0.39928c-0.17591,0.14175 -0.33395,0.24667 -0.42395,0.46846c0.08513,0.13662 0.13548,0.27144 0.30805,0.37493zM226.33653,234.84729c0.31139,0.12969 0.58827,0.23867 0.86513,0.34763c0.10537,-0.06996 0.21046,-0.12103 0.24701,-0.25125c-0.18843,-0.21759 -0.4305,-0.32474 -0.67237,-0.45073c-0.10536,0.06996 -0.2107,0.13989 -0.29891,0.22962c-0.06982,0.01518 -0.08769,0.052 -0.14088,0.12469zM220.37029,236.02412c0.19279,-0.10313 0.40144,-0.09211 0.54258,-0.2357c-0.17103,-0.21665 -0.32493,-0.41353 -0.53153,-0.57547c-0.12352,0.12565 -0.29735,0.11645 -0.40426,0.2996c0.08435,0.19319 0.23931,0.31467 0.39318,0.51156zM227.62251,241.33321c-0.10252,-0.13754 -0.22267,-0.25713 -0.36075,-0.33992c-0.21018,0.10221 -0.42009,0.1855 -0.66502,0.28586c0.18968,0.12324 0.32724,0.24377 0.49902,0.40387c0.21018,-0.10219 0.40272,-0.18642 0.52675,-0.3498zM220.83196,234.06637c-0.22706,0.06352 -0.41906,0.11006 -0.56074,0.29135c0.08488,0.15548 0.15258,0.2912 0.29066,0.37401c0.20965,-0.06444 0.41902,-0.11005 0.66373,-0.19154c-0.11939,-0.1762 -0.23905,-0.3335 -0.3937,-0.4738zM227.64772,239.48463c0.20682,0.14304 0.30835,0.35605 0.49908,0.40386c0.1754,-0.10401 0.28178,-0.24943 0.37103,-0.41463c-0.11965,-0.15731 -0.22189,-0.31374 -0.41234,-0.38043c-0.14088,0.1247 -0.2815,0.23058 -0.45769,0.39118zM219.62735,240.74192c0.12351,-0.12565 0.24648,-0.21353 0.31834,-0.37965c-0.18943,-0.14211 -0.3083,-0.35605 -0.5333,-0.44343c-0.12327,0.10677 -0.19435,0.21629 -0.21405,0.38516c0.13703,0.15824 0.29168,0.29854 0.42899,0.43789zM226.66134,233.99609c0.14065,-0.10585 0.21142,-0.19648 0.26545,-0.3258c-0.1373,-0.13937 -0.30959,-0.26174 -0.51821,-0.2727c-0.10586,0.10769 -0.21168,0.21534 -0.33497,0.32213c0.18918,0.161 0.39754,0.19085 0.58776,0.27639zM221.55338,243.6751c0.08846,-0.10857 0.15931,-0.19927 0.17824,-0.31151c-0.17228,-0.12234 -0.34516,-0.20694 -0.53588,-0.25475c-0.1056,0.08878 -0.17643,0.17946 -0.21301,0.30968c0.17207,0.14124 0.38044,0.17106 0.57064,0.25659zM218.91971,237.77869c-0.21016,0.10217 -0.22962,0.25217 -0.21456,0.42286c-0.00182,0.13203 0.03116,0.26593 0.16949,0.32985c0.14065,-0.10585 0.26388,-0.2126 0.35313,-0.3778c-0.10252,-0.13754 -0.20528,-0.25622 -0.30805,-0.37492zM226.01697,242.96638c0.15723,-0.04834 0.2963,-0.04101 0.38504,-0.16846c-0.29042,-0.39285 -0.62203,-0.31598 -0.98969,-0.14656c0.20733,0.10533 0.39732,0.20974 0.60464,0.31504zM219.34347,236.04546c0.0672,0.17346 0.1526,0.29119 0.30753,0.41263c0.0887,-0.12748 0.26285,-0.1372 0.33443,-0.28443c-0.01583,-0.11413 -0.08485,-0.15549 -0.13597,-0.23369c-0.06849,-0.07909 -0.102,-0.17527 -0.2237,-0.1817c-0.10536,0.06996 -0.21071,0.13993 -0.28231,0.28717zM224.32331,238.30889c-0.10713,0.20198 -0.07394,0.31701 0.08228,0.34411c0.22574,0.03079 0.45204,0.02384 0.66092,0.01596c0.06952,0.00369 0.15673,-0.01065 0.19304,-0.12196c-0.31166,-0.11081 -0.62381,-0.18389 -0.93625,-0.23813zM219.57792,241.81529c-0.10483,0.03222 -0.15802,0.10493 -0.17697,0.21721c0.1539,0.1969 0.28989,0.43062 0.53175,0.55662c0.1074,-0.22087 0.07498,-0.39251 -0.09709,-0.53369c-0.06851,-0.07911 -0.11915,-0.19508 -0.2577,-0.24013zM224.46269,240.84578c-0.00361,0.26406 0.03045,0.32251 0.18686,0.33077c0.24366,-0.00604 0.5047,-0.01114 0.74938,-0.09264c-0.31089,-0.16741 -0.60465,-0.31504 -0.93626,-0.23813zM222.66836,243.56395c-0.1388,-0.02621 -0.26055,-0.03258 -0.38195,-0.05789c-0.24315,-0.03174 -0.24314,-0.03168 -0.33474,0.30327c0.12122,0.04415 0.25953,0.10808 0.32878,0.13058c0.14118,-0.14357 0.26438,-0.25034 0.38788,-0.37598zM228.99802,238.70641c-0.08537,-0.11778 -0.11786,-0.28937 -0.3091,-0.29946c-0.08848,0.10859 -0.15982,0.23698 -0.26593,0.36352c0.10252,0.13756 0.18735,0.29305 0.32568,0.35696c0.0887,-0.12751 0.19461,-0.23516 0.24935,-0.42105zM221.31055,242.34079c-0.22473,-0.10619 -0.44919,-0.23134 -0.67392,-0.33754c-0.08742,0.03316 -0.15774,0.08604 -0.12453,0.20104c0.15414,0.17801 0.3436,0.32018 0.56884,0.38866c0.10537,-0.06996 0.1759,-0.14174 0.22961,-0.25221zM227.38821,241.92497c0.01558,0.13295 0.08383,0.23097 0.18712,0.3119c0.07007,-0.03406 0.1401,-0.06812 0.21017,-0.1022c0.0877,-0.05198 0.17514,-0.08517 0.21144,-0.19651c0.00156,-0.11318 -0.0319,-0.20931 -0.11784,-0.28936c-0.15777,0.08609 -0.33316,0.19011 -0.49091,0.27613zM227.78668,238.22724c0.10252,0.13756 0.2232,0.21943 0.36149,0.28336c0.10638,-0.14539 0.21248,-0.27196 0.3012,-0.3994c-0.05013,-0.15366 -0.1534,-0.23461 -0.25746,-0.25899c-0.14089,0.12469 -0.28177,0.24942 -0.40531,0.37504zM226.83898,242.65105c0.10508,-0.05108 0.21016,-0.10217 0.31554,-0.17212c0.01762,-0.01793 0.01815,-0.0557 0.03606,-0.09253c-0.05111,-0.07821 -0.08434,-0.19321 -0.22268,-0.25713c-0.13988,0.04929 -0.31422,0.07786 -0.45511,0.20256c0.08488,0.15546 0.18817,0.2364 0.32622,0.31921zM225.33018,243.57212c0.19098,0.02895 0.22295,0.23828 0.39679,0.24744c0.14007,-0.06812 0.29684,-0.0787 0.43797,-0.22231c-0.08513,-0.13662 -0.17054,-0.25441 -0.32775,-0.20603c-0.15724,0.04835 -0.31343,0.02123 -0.50702,0.1809zM220.29318,242.9479c0.12066,0.08187 0.24109,0.18259 0.34435,0.26354c0.01712,0.01979 0.05217,0.00276 0.08694,0.00456c0.03605,-0.09249 0.12429,-0.18221 0.07441,-0.35473c-0.1378,-0.10162 -0.29298,-0.20423 -0.44793,-0.32565c-0.07135,0.12836 -0.09027,0.24066 -0.05784,0.41227zM228.69846,237.709c0.10587,-0.10767 0.22911,-0.21445 0.3173,-0.30418c-0.04984,-0.17253 -0.13521,-0.29032 -0.22087,-0.38919c-0.12198,0.01246 -0.14112,0.14357 -0.19433,0.2163c-0.05319,0.07274 -0.12375,0.1445 -0.10817,0.27747c0.03375,0.07729 0.08489,0.1555 0.20608,0.19965zM219.93861,234.51004c-0.12296,0.08792 -0.21097,0.15879 -0.2989,0.22964c-0.03504,0.01702 -0.05321,0.07272 -0.07084,0.09067c-0.00182,0.13203 0.06644,0.23004 0.16975,0.31097c0.14036,-0.08699 0.28049,-0.15513 0.40401,-0.28069c-0.05062,-0.11592 -0.11888,-0.21392 -0.204,-0.35055zM222.67879,244.07412c0.225,0.0874 0.44996,0.17473 0.69414,0.131c-0.04985,-0.17251 -0.06518,-0.32438 -0.20296,-0.42601c-0.29685,0.0787 -0.29685,0.07872 -0.49117,0.295zM219.09569,236.35325c-0.33473,0.30328 -0.33496,0.32211 -0.16569,0.67085c0.12327,-0.10678 0.22934,-0.2333 0.35263,-0.34006c-0.01558,-0.13295 -0.08384,-0.23092 -0.18685,-0.33077zM227.97381,241.08753c0.14037,-0.08698 0.24597,-0.17583 0.3176,-0.32306c-0.01688,-0.03865 -0.05087,-0.09708 -0.08486,-0.15551c-0.03427,-0.03956 -0.08591,-0.08006 -0.12014,-0.11958c-0.14037,0.087 -0.29788,0.15422 -0.38688,0.30054c0.05061,0.1159 0.15363,0.21576 0.27432,0.29761zM220.77116,233.42129c0.03401,0.0584 0.08515,0.13661 0.13704,0.15826c0.19049,0.06669 0.36479,0.0381 0.55789,-0.08387c-0.06798,-0.11687 -0.10071,-0.26958 -0.20427,-0.33168c-0.17488,0.06628 -0.36638,0.07507 -0.49066,0.25729zM227.6965,234.63581c0.01764,-0.01792 0.03528,-0.03589 0.07056,-0.07178c-0.13576,-0.25257 -0.32442,-0.45129 -0.51309,-0.64997c-0.12246,0.05017 -0.17564,0.12287 -0.1951,0.27285c0.20682,0.14304 0.41338,0.3049 0.63762,0.4489zM225.17277,239.80718c-0.25924,-0.12692 -0.50083,-0.27177 -0.79664,-0.2685c-0.0174,-0.00094 -0.05315,0.07271 -0.05369,0.11042c-0.00126,0.09431 0.06724,0.17343 0.15416,0.17797c0.22525,0.06852 0.45179,0.04269 0.69618,-0.01991zM228.59082,240.49704c0.10562,-0.0888 0.21121,-0.17764 0.28257,-0.30601c0.00181,-0.13204 -0.03167,-0.2282 -0.15207,-0.32893c-0.10612,0.12656 -0.22964,0.25218 -0.31836,0.37962c0.03321,0.11498 0.08436,0.19319 0.1879,0.25529zM218.77842,239.20591c-0.02098,0.26317 -0.0415,0.48862 0.07712,0.72139c0.15722,-0.04835 0.2286,-0.1767 0.28282,-0.32488c-0.10227,-0.1564 -0.18737,-0.29303 -0.35997,-0.39652zM222.35032,232.44745c0.102,0.17528 0.11909,0.19505 0.17128,0.19783c0.17358,0.02804 0.33137,-0.05803 0.47173,-0.14503c0.05265,-0.03496 0.07132,-0.1284 -0.03222,-0.19048c-0.15802,0.10492 -0.38303,0.01755 -0.61082,0.13771zM227.56449,235.38391c0.20655,0.16194 0.39551,0.34178 0.69081,0.37618c-0.11809,-0.27047 -0.32494,-0.41356 -0.49699,-0.55473c-0.08719,0.01425 -0.1227,0.06903 -0.19379,0.17856zM219.43995,235.35211c-0.05088,-0.09707 -0.08437,-0.1932 -0.13522,-0.29027c-0.15779,0.08608 -0.28102,0.19285 -0.23168,0.40309c0.0166,0.05751 0.03323,0.11498 0.10252,0.13754c0.10481,-0.03223 0.17568,-0.12289 0.26438,-0.25034zM224.61927,242.11883c-0.00229,0.16979 0.03141,0.24705 0.17074,0.23551c0.12198,-0.01244 0.24393,-0.0249 0.36615,-0.05623c0.05238,-0.01613 0.10511,-0.05109 0.08875,-0.12746c-0.20786,-0.06759 -0.39909,-0.07766 -0.62563,-0.05184zM225.06482,234.96899c-0.225,-0.0874 -0.45051,-0.137 -0.67729,-0.09233c-0.01741,-0.00092 -0.05316,0.07272 -0.05342,0.09156c-0.00053,0.0377 0.05111,0.07821 0.08591,0.08003c0.22627,-0.00694 0.43442,0.04178 0.64487,-0.07927zM224.48606,234.03243c0.17463,-0.04742 0.3659,-0.03734 0.55869,-0.14041c-0.22472,-0.10621 -0.41546,-0.15402 -0.52054,-0.10293c-0.10481,0.03223 -0.10588,0.10768 -0.03812,0.24337zM218.96209,241.04666c0.04908,0.22912 0.04549,0.49323 0.25231,0.63626c0.1437,-0.3322 -0.06311,-0.47523 -0.25231,-0.63626zM222.12986,240.94929c-0.00052,0.0377 0.01662,0.05757 0.0161,0.09526c0.17409,-0.00971 0.32956,0.07398 0.48731,-0.01209c0.01895,-0.11225 0.00231,-0.16977 -0.08385,-0.23094c-0.12246,0.05017 -0.26232,0.09943 -0.41959,0.1478zM224.9626,237.361c-0.24263,-0.06941 -0.43336,-0.11721 -0.64225,-0.10937c-0.03477,-0.00184 -0.07005,0.03404 -0.07082,0.09064c-0.00026,0.01889 0.01662,0.0575 0.03376,0.07729c0.225,0.0874 0.43361,0.09836 0.67932,-0.05858zM220.55817,233.73097c-0.03323,-0.11499 -0.0672,-0.17341 -0.1199,-0.13845c-0.12246,0.05017 -0.24519,0.11922 -0.36794,0.18825c-0.07032,0.05292 -0.0711,0.10949 -0.00232,0.16976c0.19202,-0.04648 0.34928,-0.09486 0.49015,-0.21956zM228.96956,239.51659c0.05111,0.07821 0.08489,0.1555 0.13599,0.23371c0.0171,0.01979 0.05191,0.0216 0.1038,0.04324c0.00311,-0.22633 0.05807,-0.43108 -0.00812,-0.68c-0.10612,0.12656 -0.17695,0.21721 -0.23167,0.40309zM222.42259,236.07561c-0.1741,0.00969 -0.33087,0.02032 -0.53975,0.02818c0.17131,0.1978 0.32698,0.26265 0.50108,0.25294c0.05343,-0.09157 0.07161,-0.14724 0.03866,-0.28113zM222.77639,242.02161c-0.12275,0.06904 -0.31342,0.02122 -0.4206,0.22323c0.41649,0.07857 0.50339,0.08317 0.53948,-0.00934c0.00126,-0.09431 -0.03272,-0.15276 -0.11888,-0.21392zM224.94325,236.22736c-0.25767,-0.24012 -0.46631,-0.25107 -0.72814,-0.18941c0.20504,0.27509 0.45047,0.13698 0.72814,0.18941zM225.45782,243.14466c-0.24055,-0.22033 -0.43184,-0.23042 -0.64097,-0.20368c-0.0174,-0.00092 -0.03528,0.0359 -0.0358,0.07361c-0.00078,0.05659 0.03349,0.09615 0.06825,0.09797c0.17358,0.02806 0.34768,0.01834 0.60849,0.03208zM223.02481,242.9409c-0.15723,0.04834 -0.33137,0.05806 -0.4556,0.24023c0.1731,0.06575 0.32982,0.05513 0.46916,0.04361c0.05371,-0.11042 0.03735,-0.18677 -0.01353,-0.28387zM226.4452,243.46096c0.15829,-0.12381 0.34953,-0.11372 0.42165,-0.2987c-0.24263,-0.06941 -0.24262,-0.06941 -0.48886,0.12524c0.01688,0.03865 0.03375,0.07729 0.06722,0.17344zM219.79329,241.33592c0.04856,0.26683 0.20322,0.40714 0.37554,0.52948c0.10508,-0.05108 0.10612,-0.12656 0.05475,-0.18587c-0.13781,-0.10161 -0.27536,-0.22217 -0.43028,-0.34357zM228.19599,241.3824c0.01583,0.11413 0.03192,0.20933 0.13547,0.2714c0.08795,-0.07086 0.17594,-0.14174 0.19485,-0.25397c-0.01608,-0.09523 -0.05011,-0.15365 -0.11915,-0.19507c-0.08743,0.03317 -0.14036,0.08699 -0.21119,0.17765zM222.02193,238.65958c0.1383,0.06393 0.24214,0.10717 0.34696,0.07493c0.03504,-0.01702 0.05294,-0.05383 0.07085,-0.09066c0.00078,-0.05659 -0.03296,-0.1339 -0.08535,-0.11778c-0.10434,-0.0055 -0.22603,-0.01191 -0.33242,0.13352zM229.1957,238.24485c0.05447,-0.16704 -0.03042,-0.32253 -0.06313,-0.47525c-0.22912,0.21445 -0.2296,0.25219 0.06313,0.47525zM224.51788,232.97697c0.25977,0.0892 0.25976,0.0892 0.3664,-0.07508c-0.1038,-0.04324 -0.22501,-0.08737 -0.3664,0.07508zM222.47568,239.83493c0.05319,-0.07274 0.05395,-0.1293 0.01946,-0.14999c-0.13781,-0.10161 -0.19022,-0.08553 -0.34901,0.07601c0.1209,0.06302 0.22526,0.06853 0.32958,0.07402zM225.3079,243.92955c-0.08567,-0.09889 -0.17156,-0.17892 -0.29374,-0.14765c0.04806,0.30456 0.08252,0.32524 0.29374,0.14765zM225.13177,232.61298c-0.12019,-0.11962 -0.25898,-0.14582 -0.3804,-0.17107c-0.06953,-0.00369 -0.12249,0.05018 -0.05448,0.16703c0.12143,0.02526 0.26029,0.05148 0.43489,0.00407zM227.4107,242.83229c-0.17335,-0.04689 -0.26105,0.0051 -0.29789,0.15419c0,0 0.01688,0.03865 0.03427,0.03956c0.10407,0.02435 0.17514,-0.08512 0.26366,-0.19374zM222.17827,237.40301c0.03323,0.11499 0.10227,0.15642 0.17204,0.14121c0.03477,0.00184 0.07006,-0.03406 0.08796,-0.07087c0.01789,-0.03683 -0.01609,-0.09521 -0.05087,-0.09704c-0.05191,-0.02162 -0.12143,-0.02529 -0.20914,0.0267zM228.83112,240.73634c-0.12274,0.06904 -0.17593,0.14174 -0.10842,0.29632c0.14037,-0.087 0.17618,-0.16061 0.10842,-0.29632z" fill="#000000"/><path d="M216.06163,236.85408c-0.02565,0.60271 -0.05128,1.20546 -0.0595,1.8091c-0.00927,0.67911 0.051,1.36185 0.19847,2.03032c0.04933,0.21025 0.13391,0.38458 0.20036,0.6146c-0.2782,-0.01466 -0.5218,-0.0086 -0.76495,-0.04031c-1.45938,-0.15244 -2.93742,-0.2115 -4.41469,-0.32712c-1.32081,-0.1074 -2.62448,-0.19498 -3.94555,-0.28349c-0.9038,-0.06651 -1.79024,-0.13214 -2.69402,-0.19867c-0.85166,-0.06377 -1.68641,-0.08889 -2.53805,-0.15264c-0.06955,-0.00369 -0.1391,-0.00735 -0.20837,-0.02987c-0.18766,-0.27415 -0.27069,-0.56171 -0.33588,-0.88604c-0.09736,-0.51483 -0.15969,-1.04666 -0.1351,-1.57391c0.00229,-0.16979 -0.01277,-0.34045 0.07625,-0.48678c0.03247,0.17162 -0.02225,0.35748 0.06182,0.56957c0.27996,-0.11735 0.57474,-0.04521 0.8532,-0.04941c0.0174,0.00092 0.03476,0.00184 0.03503,-0.01701c0.47147,-0.12614 0.97566,-0.09955 1.46377,-0.16823c0.17435,-0.02855 0.34951,-0.11373 0.52284,-0.06685c0.3472,0.05608 0.67985,-0.09631 1.02708,-0.04025c0.0174,0.00092 0.05241,-0.01613 0.08721,-0.01426c0.33107,-0.0392 0.64507,-0.0981 0.97565,-0.09957c0.38248,0.02015 0.73229,-0.11242 1.11424,-0.05454c0.22754,-0.10126 0.45306,-0.05159 0.69671,-0.05763c0.03477,0.00184 0.05218,0.00274 0.08692,0.00459c0.34978,-0.13258 0.71384,-0.03789 1.06261,-0.09501c0.34873,-0.05712 0.71333,-0.00016 1.06182,-0.03843c0.40067,-0.0355 0.78464,-0.12855 1.20116,-0.04992c0.03477,0.00184 0.08694,0.00459 0.12197,-0.01244c0.19279,-0.10313 0.40064,-0.0355 0.60953,-0.04335c0.10434,0.0055 0.22573,0.03078 0.33058,-0.00146c0.1575,-0.06717 0.29632,-0.04101 0.45282,-0.03276c0.08694,0.00459 0.17362,0.02803 0.24365,-0.00605c0.22754,-0.10126 0.47044,-0.05071 0.69644,-0.0388c0.08694,0.00459 0.17359,0.02801 0.24366,-0.00603c0.19252,-0.08421 0.38352,-0.0553 0.57477,-0.04519c0.31298,0.01648 0.62768,-0.09904 0.94036,-0.06369c0.05191,0.0216 0.10483,-0.0322 0.15723,-0.04836z" fill="#87d7dc"/><path d="M216.06159,236.85408c-0.0524,0.0161 -0.10535,0.06997 -0.15751,0.06721c-0.31269,-0.03534 -0.62717,0.06132 -0.94038,0.06369c-0.19124,-0.01009 -0.38225,-0.03903 -0.57476,0.04519c-0.07007,0.03406 -0.15674,0.01062 -0.24363,0.00607c-0.22601,-0.01189 -0.46916,-0.04364 -0.69648,0.03875c-0.07006,0.03406 -0.15649,-0.00824 -0.24366,0.00606c-0.15646,-0.00824 -0.29558,-0.01558 -0.45282,0.03276c-0.10481,0.03223 -0.2263,0.00694 -0.33061,0.00145c-0.20888,0.00787 -0.41675,-0.0597 -0.60953,0.04338c-0.03504,0.01702 -0.08719,0.01428 -0.12196,0.01245c-0.39911,-0.07766 -0.80055,0.01443 -1.20118,0.04995c-0.3659,0.03734 -0.73045,-0.01963 -1.06183,0.03838c-0.34872,0.05714 -0.71282,-0.03756 -1.06259,0.09502c-0.01765,0.01792 -0.05217,-0.00276 -0.08695,-0.00459c-0.22601,-0.01189 -0.46915,-0.0436 -0.69673,0.05766c-0.38173,-0.07677 -0.7315,0.05584 -1.11424,0.0545c-0.33033,-0.01742 -0.64456,0.06042 -0.97565,0.09955c-0.03477,-0.00184 -0.05243,0.01616 -0.0872,0.0143c-0.3472,-0.05608 -0.67984,0.09632 -1.02707,0.04025c-0.19098,-0.02894 -0.34875,0.05711 -0.52286,0.06685c-0.48783,0.0498 -0.9923,0.04209 -1.46376,0.16822c-0.0174,-0.00092 -0.03503,0.01705 -0.03503,0.01705c-0.27844,0.00422 -0.57324,-0.06799 -0.85321,0.04942c-0.08436,-0.19321 -0.01222,-0.37819 -0.0618,-0.56957c0.00205,-0.15089 0.00415,-0.3018 0.11029,-0.42837c0.10434,0.0055 0.22573,0.03078 0.33056,-0.00147c0.36688,-0.1128 0.73177,-0.07465 1.0974,-0.09315c0.36559,-0.01849 0.73249,-0.13129 1.11421,-0.05454c0.22754,-0.10126 0.45307,-0.05164 0.69672,-0.05767c0.03477,0.00184 0.08692,0.00458 0.12197,-0.01245c0.15778,-0.08607 0.33108,-0.03916 0.48785,-0.04978c0.08694,0.00459 0.17387,0.00913 0.24365,-0.00603c0.38379,-0.07416 0.78466,-0.12857 1.18455,-0.10747c0.05217,0.00278 0.12146,0.02531 0.15673,-0.01062c0.17511,-0.08514 0.34873,-0.05714 0.5226,-0.04798c0.19098,0.02894 0.36666,-0.09396 0.57502,-0.06406c0.27792,0.03353 0.54,-0.04705 0.81868,-0.07012c0.38302,-0.01757 0.74964,-0.11149 1.14951,-0.09039c0.06955,0.00369 0.15623,0.02712 0.20889,-0.00788c0.14013,-0.06809 0.29631,-0.04103 0.45304,-0.05162c0.13908,0.00734 0.27841,-0.0042 0.40066,-0.03549c0.22706,-0.06352 0.45357,-0.08936 0.69699,-0.07656c0.36535,0.00039 0.73226,-0.11243 1.11396,-0.03569c0.03477,0.00184 0.08718,-0.01424 0.12197,-0.01243c0.3659,-0.03734 0.732,-0.09358 1.09735,-0.09315c0.38248,0.02015 0.76705,-0.11059 1.14901,-0.05268c0.05217,0.00278 0.10482,-0.03224 0.15723,-0.04836c0.22653,-0.02581 0.47019,-0.03185 0.69542,0.03666c0.01609,0.09524 0.0151,0.17067 0.03142,0.24705c-0.05577,0.26136 -0.09362,0.48587 -0.11436,0.73018z" fill="#b0eef2"/><path d="M224.74433,244.42845c-0.33106,0.03917 -0.59215,0.04427 -0.85192,-0.04493c-0.13703,-0.15826 -0.18637,-0.36849 -0.25307,-0.57962c-0.2814,-1.05307 -0.54541,-2.10522 -0.66984,-3.1878c-0.09324,-0.81665 -0.18625,-1.65216 -0.19231,-2.48306c0.0031,-0.22635 0.02381,-0.47068 -0.02523,-0.69981c-0.01609,-0.09524 -0.01453,-0.20843 -0.013,-0.32158c0.07573,-0.44907 0.04713,-0.90362 0.07069,-1.35546c0.02612,-0.64046 0.1218,-1.27726 0.25227,-1.91218c0.07392,-0.317 0.13046,-0.63497 0.18723,-0.97174c0.0384,-0.26224 0.14577,-0.48311 0.23581,-0.7049c0.31477,-0.11553 0.43669,-0.12799 0.85344,-0.06826c-0.02303,0.41405 -0.13275,0.80471 -0.1906,1.21694c-0.05757,0.39338 -0.11539,0.80562 -0.15558,1.19993c-0.04046,0.41315 -0.06375,0.84613 -0.0868,1.26019c-0.04019,0.39428 0.02374,0.81296 -0.06862,1.20456c0.08127,0.41961 0.02343,0.83183 0.03516,1.24776c0.01197,0.39706 0.0411,0.81388 0.07046,1.21187c0.0291,0.41684 0.07561,0.83457 0.12181,1.2712c0.04675,0.39889 0.07584,0.81571 0.14002,1.21555c0.06389,0.41866 0.16278,0.82029 0.24404,1.2399c0.08102,0.43845 0.14514,0.83824 0.29596,1.2615z" fill="#d1eaeb"/><path d="M216.15829,236.14182c-0.01635,-0.07637 -0.01533,-0.15184 -0.03144,-0.24704c-0.22526,-0.0685 -0.45124,-0.08041 -0.69543,-0.03666c-0.05241,0.0161 -0.10509,0.05109 -0.15723,0.04834c-0.38195,-0.0579 -0.76629,0.054 -1.14902,0.05269c-0.3651,-0.01925 -0.73148,0.05581 -1.09737,0.09312c-0.03477,-0.00184 -0.0872,0.01427 -0.12196,0.01245c-0.38172,-0.07678 -0.73148,0.0558 -1.11397,0.03565c-0.22601,-0.01189 -0.46993,0.013 -0.69698,0.07656c-0.13955,0.03038 -0.27894,0.04194 -0.40065,0.0355c-0.15646,-0.00824 -0.29529,-0.03444 -0.45306,0.05163c-0.05266,0.03495 -0.13936,0.01151 -0.20889,0.00784c-0.38248,-0.02015 -0.76649,0.07288 -1.14951,0.09042c-0.2787,0.02304 -0.54075,0.10366 -0.81867,0.0701c-0.19098,-0.02894 -0.36664,0.09394 -0.57502,0.06406c-0.1736,-0.02803 -0.36458,-0.05697 -0.52261,0.04794c-0.05241,0.0161 -0.10456,0.01337 -0.1567,0.01064c-0.39986,-0.02109 -0.78337,0.03417 -1.18454,0.10746c-0.08719,0.01425 -0.17385,-0.00914 -0.24362,0.00602c-0.15646,-0.00824 -0.33008,-0.03624 -0.48782,0.04982c-0.03504,0.01702 -0.08718,0.01429 -0.12195,0.01244c-0.22601,-0.01189 -0.46916,-0.04361 -0.69673,0.05766c-0.38172,-0.07675 -0.74862,0.03604 -1.11421,0.05455c-0.36559,0.01849 -0.74782,-0.02054 -1.09734,0.09315c-0.10483,0.03222 -0.22628,0.00693 -0.33059,0.00146c-0.01506,-0.1707 0.09078,-0.27837 0.10995,-0.40951c0.73147,-0.05584 1.42848,-0.13234 2.12518,-0.19c0.76652,-0.07284 1.5154,-0.12777 2.28164,-0.18178c0.71412,-0.05674 1.42848,-0.13237 2.14283,-0.20796c0.88849,-0.08529 1.75982,-0.1904 2.63091,-0.27663c0.66197,-0.0595 1.32391,-0.11895 1.9861,-0.19734c1.02782,-0.09685 2.07203,-0.11732 3.10034,-0.2519c0.13933,-0.01153 0.27919,-0.0608 0.43488,0.00405c-0.00229,0.16979 -0.05679,0.33678 -0.09387,0.50475c-0.03604,0.09249 -0.00359,0.26408 -0.09258,0.41044z" fill="#87d7dc"/><path d="M201.00076,237.68365c0.02937,0.39797 -0.01055,0.77342 0.03622,1.17228c0.06335,0.4564 0.14414,0.91371 0.32916,1.3765c-1.00839,-0.05315 -1.99937,-0.10538 -2.97297,-0.1567c-0.18843,-0.21757 -0.25459,-0.46647 -0.33845,-0.69743c-0.15056,-0.4421 -0.17939,-0.87781 -0.20799,-1.33237c0.00026,-0.01889 0.01816,-0.05566 0.03579,-0.07363c0.10199,0.17527 0.24184,0.126 0.38146,0.0956c0.34902,-0.076 0.69774,-0.13314 1.0452,-0.09592c0.06955,0.00369 0.13909,0.00733 0.20887,-0.00788c0.33189,-0.09578 0.67932,-0.05858 1.01045,-0.09776c0.19177,-0.02759 0.33131,-0.05808 0.47223,-0.18277z" fill="#61afb4"/><path d="M218.47445,235.98076c-0.11333,0.65472 -0.10495,1.31584 -0.16609,1.97333c-0.02151,0.30089 0.00917,0.60456 0.03981,0.90822c0.02703,0.56775 -0.01571,1.15067 0.08091,1.72208c0.03166,0.2282 0.06334,0.4564 0.11266,0.66665c0.03297,0.1339 0.04857,0.26682 0.04675,0.3989c-0.05238,0.01613 -0.08744,0.03314 -0.12224,0.03129c-0.13907,-0.00736 -0.27816,-0.01464 -0.41724,-0.02196c-0.05088,-0.09705 -0.08459,-0.17437 -0.11809,-0.2705c-0.19936,-0.69006 -0.39848,-1.39904 -0.38843,-2.13476c-0.00865,-0.64229 -0.01702,-1.30339 0.04388,-1.94205c0.04171,-0.50752 0.06606,-1.01591 0.24659,-1.49719c0.03351,0.09614 -0.02021,0.20658 0.08307,0.28751c0.19072,0.0478 0.41597,0.11632 0.5584,-0.12158z" fill="#61aeb3"/><path d="M217.30343,236.37205c0.03039,0.32253 -0.07805,0.61882 -0.09981,0.93858c-0.02664,0.6782 -0.05333,1.35636 -0.0278,2.03728c0.02729,0.54886 0.12443,1.08257 0.25655,1.59922c0.03297,0.1339 0.06594,0.26773 0.09892,0.40162c-0.24341,-0.01282 -0.45205,-0.02378 -0.67806,-0.03574c-0.20553,-0.23736 -0.28858,-0.52492 -0.33666,-0.82948c-0.06468,-0.36208 -0.12904,-0.74299 -0.14127,-1.12119c-0.05793,-0.85253 -0.01184,-1.68072 0.01711,-2.52867c0.00206,-0.1509 0.00411,-0.30184 0.09285,-0.42929c0.08694,0.00459 0.17361,0.028 0.24365,-0.00605c0.17489,-0.06629 0.38329,-0.03645 0.57449,-0.02637z" fill="#61aeb3"/><path d="M201.00075,237.68364c-0.12327,0.10678 -0.26311,0.15601 -0.43722,0.16572c-0.33108,0.03917 -0.67858,0.00196 -1.01042,0.09776c-0.06981,0.01519 -0.13936,0.01156 -0.20891,0.00787c-0.36512,-0.01923 -0.69644,0.03879 -1.04519,0.09592c-0.12223,0.0313 -0.27947,0.07968 -0.38146,-0.09561c-0.01352,-0.28388 0.02484,-0.54613 0.11512,-0.78677c0.2442,-0.04378 0.48862,-0.10638 0.73149,-0.05584c0.03477,0.00184 0.08719,-0.01427 0.12197,-0.01245c0.34847,-0.03826 0.71437,-0.07562 1.0626,-0.09501c0.15673,-0.01062 0.29582,-0.00326 0.45281,-0.03274c0.19201,-0.04648 0.40092,-0.05438 0.59087,0.05003c0.01608,0.09523 0.01507,0.17067 0.03141,0.24705c-0.00182,0.13203 -0.02124,0.28206 -0.02303,0.41407z" fill="#87d7dc"/><path d="M226.91723,236.91661c-0.24649,0.21356 -0.5259,0.2932 -0.80516,0.35399c-0.0698,0.0152 -0.17413,0.00969 -0.24341,-0.01282c-0.50212,-0.17748 -1.0053,-0.27954 -1.5087,-0.36269c-0.0174,-0.00092 -0.05189,-0.02161 -0.06904,-0.04138c-0.05111,-0.07821 -0.04987,-0.17253 0.00358,-0.26408c0.03477,0.00184 0.06982,-0.01523 0.10457,-0.01338c0.41697,0.0409 0.83478,0.02515 1.23645,-0.08582c0.20941,-0.04558 0.40067,-0.0355 0.608,0.0698c0.22445,0.12511 0.4497,0.19359 0.67369,0.35643z" fill="#cce5e6"/><path d="M224.30746,235.64644c-0.05062,-0.11592 -0.0322,-0.19046 0.02072,-0.24431c0.83504,0.00628 0.83503,0.00625 1.56934,-0.25707c0.29507,0.05331 0.58879,0.20092 0.86567,0.30993c0.03297,0.1339 -0.07159,0.14721 -0.12428,0.1822c-0.19303,0.12197 -0.36871,0.24484 -0.57865,0.32815c-0.13989,0.04928 -0.26183,0.06168 -0.40037,0.01665c-0.43312,-0.1361 -0.88384,-0.25423 -1.35247,-0.3356z" fill="#cce5e6"/><path d="M201.02406,237.25072c-0.01635,-0.07638 -0.01533,-0.15185 -0.03141,-0.24704c-0.18995,-0.10441 -0.39883,-0.09653 -0.59087,-0.05001c-0.157,0.02949 -0.29607,0.02216 -0.45283,0.03274c-0.34824,0.0194 -0.7141,0.05674 -1.06259,0.09501c-0.03477,-0.00184 -0.08721,0.01429 -0.12197,0.01244c-0.26053,-0.03259 -0.48756,0.03091 -0.73147,0.05581c0.03681,-0.14907 0.07342,-0.27931 0.1798,-0.42471c0.48758,-0.03092 0.99308,-0.09868 1.49778,-0.10984c0.48758,-0.03092 0.97617,-0.13729 1.49775,-0.10982c-0.02152,0.30088 -0.09413,0.52359 -0.18412,0.74538z" fill="#60adb2"/><path d="M222.52294,240.19609c0.01636,0.07636 0.03295,0.13391 0.04932,0.21025c-0.03528,0.03591 -0.05293,0.05382 -0.07055,0.07176c-0.29658,0.05988 -0.57657,0.17727 -0.85678,0.31347c-0.12247,0.05017 -0.22707,0.06355 -0.34797,0.00054c-0.24212,-0.10716 -0.50212,-0.17746 -0.70741,-0.4337c0.22911,-0.21443 0.50909,-0.33184 0.7888,-0.43033c0.05238,-0.01613 0.13909,0.00737 0.20836,0.02986c0.31214,0.07304 0.62438,0.14617 0.93629,0.23813z" fill="#cce5e6"/><path d="M226.91793,240.69204c-0.17486,0.06629 -0.27999,0.11736 -0.40247,0.16754c-0.22732,0.0824 -0.43617,0.09026 -0.67805,-0.03573c-0.41492,-0.19177 -0.84806,-0.32783 -1.28269,-0.35076c-0.13908,-0.00735 -0.1562,-0.02712 -0.13576,-0.25257c0.05216,0.00276 0.10457,-0.01339 0.15675,-0.01061c0.43438,0.04177 0.85239,0.00718 1.27121,-0.08401c0.10458,-0.01334 0.19176,-0.02763 0.2782,0.01463c0.25875,0.16465 0.51797,0.2916 0.79278,0.55151z" fill="#cae2e3"/><path d="M224.25967,237.87138c0.01764,-0.01792 0.05271,-0.03501 0.07007,-0.03406c0.39932,0.05879 0.78285,0.00351 1.14928,-0.07155c0.34872,-0.05714 0.67909,-0.03972 1.00681,0.16635c0.15518,0.10258 0.34617,0.13148 0.48345,0.2709c-0.36921,0.28259 -0.78751,0.33602 -1.16819,0.18382c-0.46737,-0.17566 -0.91706,-0.36925 -1.42154,-0.37697c-0.05191,-0.0216 -0.12144,-0.0253 -0.11991,-0.13847z" fill="#c9e1e2"/><path d="M226.91856,239.37073c-0.28076,0.17397 -0.52516,0.23659 -0.78697,0.29829c-0.08719,0.01425 -0.17411,0.00968 -0.24315,-0.0317c-0.4845,-0.19544 -0.98686,-0.35405 -1.48974,-0.47496c-0.03477,-0.00184 -0.08665,-0.02342 -0.06799,-0.11684c0.12168,0.00642 0.26076,0.01375 0.38275,0.00131c0.34796,-0.00052 0.6962,-0.01994 1.02807,-0.11572c0.24443,-0.06266 0.47018,-0.03184 0.67701,0.1112c0.15518,0.10258 0.293,0.20419 0.50009,0.3284z" fill="#c9e1e2"/><path d="M222.68056,241.39365c0.08537,0.1178 0.08409,0.21211 0.08281,0.30641c-0.01762,0.01793 -0.05269,0.035 -0.07031,0.05291c-0.27869,0.02305 -0.54103,0.12251 -0.76934,0.28038c-0.14037,0.08698 -0.27971,0.09851 -0.43542,0.03365c-0.1902,-0.08552 -0.39808,-0.15308 -0.57041,-0.27544c0.1593,-0.19923 0.44083,-0.42985 0.58044,-0.46023c0.08743,-0.03317 0.15647,0.00823 0.24315,0.03171c0.2958,-0.00327 0.60775,0.08865 0.93906,0.03064z" fill="#cae3e4"/><path d="M221.62115,234.88189c0.27559,0.20328 0.55195,0.35003 0.84598,0.47879c0.03321,0.11498 0.03221,0.1905 -0.02123,0.28206c-0.3142,0.07782 -0.67879,0.02081 -0.9933,0.11751c-0.18994,-0.10442 -0.29221,-0.2608 -0.42951,-0.40016c-0.06849,-0.07909 -0.15465,-0.14026 -0.17024,-0.27324c0.22809,-0.139 0.50598,-0.10545 0.76832,-0.2049z" fill="#c8e0e1"/><path d="M222.39707,237.94314c-0.0197,0.16884 -0.0895,0.18405 -0.1593,0.19925c-0.26184,0.06173 -0.50624,0.12433 -0.7678,0.16719c-0.06981,0.0152 -0.13935,0.01154 -0.20839,-0.02984c-0.18941,-0.14212 -0.3786,-0.30313 -0.55017,-0.48204c0.1056,-0.08879 0.21019,-0.10219 0.31529,-0.15327c0.31526,-0.15324 0.61107,-0.15656 0.88591,0.10331c0.13755,0.12053 0.31089,0.16741 0.4845,0.19541z" fill="#cbe4e5"/><path d="M222.41329,236.7547c-0.00126,0.09431 -0.00203,0.1509 -0.0028,0.20749c-0.03504,0.01702 -0.05295,0.05382 -0.07032,0.05292c-0.19177,0.02759 -0.38327,0.03645 -0.57503,0.06408c-0.10459,0.01334 -0.19125,-0.0101 -0.27741,-0.07128c-0.25847,-0.1835 -0.4993,-0.385 -0.73936,-0.64305c0.15827,-0.12381 0.31499,-0.13441 0.47172,-0.14502c0.06952,0.00369 0.13909,0.00736 0.19071,0.04778c0.27484,0.25989 0.62101,0.39142 1.00246,0.48704z" fill="#c8e0e1"/><path d="M217.30346,236.37207c-0.19124,-0.01009 -0.39964,-0.03995 -0.59217,0.04431c-0.07006,0.03406 -0.15671,0.01058 -0.24364,0.00603c-0.01301,-0.32158 0.04326,-0.62066 0.16885,-0.8972c0.24288,0.05057 0.48729,-0.01206 0.69643,-0.0388c0.08513,0.13662 0.03116,0.26593 0.0644,0.38091c0.01506,0.1707 -0.00491,0.35843 -0.09387,0.50474z" fill="#85d5d9"/><path d="M226.04643,242.08076c-0.25951,-0.10806 -0.519,-0.2161 -0.79614,-0.30625c-0.24263,-0.06944 -0.52286,0.06682 -0.77976,-0.22991c0.59109,0.03115 1.1145,-0.07339 1.63787,-0.17794c0.18994,0.10442 0.39704,0.22856 0.55093,0.42548c-0.03528,0.03591 -0.05294,0.05384 -0.07055,0.07177c-0.17513,0.08514 -0.35004,0.15147 -0.54228,0.21682z" fill="#c6dede"/><path d="M227.33809,236.67449c-0.29378,-0.14764 -0.55297,-0.27454 -0.84676,-0.42217c0.10638,-0.14539 0.24624,-0.19468 0.35182,-0.28349c0.12296,-0.08792 0.22913,-0.21445 0.38636,-0.26278c0.12168,0.00642 0.22499,0.08736 0.32852,0.14942c0.10354,0.06207 0.20681,0.14307 0.30987,0.24287c-0.10792,0.25859 -0.31862,0.39847 -0.52983,0.57614z" fill="#cae3e3"/><path d="M224.28916,234.43733c0.52338,-0.10457 0.95983,-0.21371 1.3804,-0.43694c0.225,0.0874 0.45022,0.15588 0.6926,0.24417c-0.14243,0.23791 -0.35234,0.32123 -0.54537,0.44317c-0.03504,0.01702 -0.08721,0.01427 -0.12196,0.01242c-0.43386,-0.0795 -0.86776,-0.15899 -1.40566,-0.26284z" fill="#cae3e4"/><path d="M220.69447,239.04264c0.28074,-0.17397 0.54359,-0.31116 0.88897,-0.12303c0.24187,0.12602 0.5024,0.15863 0.76292,0.19124c0.10433,0.0055 0.12043,0.10071 0.08412,0.21209c-0.27764,-0.05236 -0.53975,0.02818 -0.80182,0.10877c-0.19226,0.06538 -0.34822,0.01942 -0.50341,-0.08315c-0.13804,-0.08279 -0.29401,-0.12879 -0.43079,-0.30591z" fill="#c8e0e1"/><path d="M218.47447,235.98076c-0.15982,0.23698 -0.36766,0.16936 -0.57603,0.13951c-0.10326,-0.08093 -0.06698,-0.19228 -0.08309,-0.28749c0.02074,-0.24429 0.09339,-0.46699 0.20079,-0.6879c0.19098,0.02894 0.38325,-0.03642 0.55582,0.06704c0.01609,0.09524 0.01532,0.15184 0.0143,0.22728c-0.03734,0.18682 -0.07465,0.37361 -0.11178,0.54155z" fill="#85d4d9"/><path d="M221.10244,237.19533c-0.26233,0.09943 -0.48937,0.16298 -0.71667,0.2454c-0.18891,-0.17986 -0.36022,-0.37763 -0.49645,-0.59251c0.03657,-0.13023 0.1414,-0.16244 0.2117,-0.21536c0.07031,-0.05293 0.14062,-0.10583 0.26206,-0.08054c0.20655,0.16194 0.44712,0.38222 0.73936,0.64304z" fill="#c7dfe0"/><path d="M220.2101,240.11197c-0.17207,-0.14124 -0.34435,-0.26357 -0.49828,-0.46044c0.15955,-0.21813 0.36946,-0.30143 0.59728,-0.42156c0.20682,0.14304 0.41366,0.28607 0.63789,0.43005c-0.24598,0.17579 -0.47385,0.29595 -0.73691,0.45195z" fill="#c8e0e1"/><path d="M227.88213,237.6093c-0.14118,0.14357 -0.28231,0.28712 -0.47484,0.37138c-0.24187,-0.12602 -0.48345,-0.27089 -0.74243,-0.41668c0.00053,-0.0377 0.00103,-0.07543 0.01843,-0.07452c0.15802,-0.10493 0.33341,-0.20893 0.49116,-0.29501c0.07007,-0.03406 0.13987,-0.04929 0.19149,-0.00881c0.20708,0.12419 0.41494,0.19177 0.5162,0.42364z" fill="#c4dcdd"/><path d="M227.30376,240.46704c-0.22395,-0.16282 -0.44816,-0.30679 -0.67214,-0.46963c0.05423,-0.14813 0.1933,-0.1408 0.2984,-0.1919c0.10508,-0.05108 0.22732,-0.08242 0.34976,-0.13259c0.20733,0.10533 0.3438,0.30132 0.51566,0.4614c-0.12451,0.20106 -0.29942,0.26735 -0.49169,0.33271z" fill="#c8e0e1"/><path d="M220.28981,240.64463c0.24159,0.14491 0.4661,0.27001 0.72505,0.41579c-0.14164,0.18131 -0.33421,0.26552 -0.47561,0.42799c-0.24236,-0.08831 -0.39627,-0.28518 -0.60282,-0.44709c0.10689,-0.18313 0.19587,-0.32946 0.35337,-0.39663z" fill="#c6ddde"/><path d="M222.94277,242.57786c-0.29814,0.17307 -0.62974,0.24998 -0.89388,0.48145c-0.20786,-0.06757 -0.39861,-0.11541 -0.58804,-0.25753c0.12479,-0.21992 0.28308,-0.34377 0.54332,-0.29228c0.31215,0.07308 0.62562,0.05184 0.93858,0.06834z" fill="#b9cfd0"/><path d="M224.54698,233.3938c0.05371,-0.11042 0.13988,-0.0493 0.20964,-0.06447c0.15699,-0.02947 0.31368,-0.04011 0.41959,-0.1478c0.19332,-0.14083 0.38427,-0.11191 0.59241,-0.06316c0.08669,0.02347 0.1731,0.06574 0.29428,0.1099c-0.19458,0.23518 -0.37104,0.41463 -0.70032,0.32176c-0.22526,-0.06849 -0.46891,-0.06249 -0.69466,-0.09326c-0.05216,-0.00278 -0.10432,-0.00551 -0.12093,-0.06301z" fill="#c0d8d8"/><path d="M221.21574,233.99224c0.15778,-0.08607 0.29735,-0.11646 0.43643,-0.10914c0.06952,0.00369 0.15649,0.00821 0.20811,0.0487c0.2237,0.1817 0.46555,0.30769 0.70742,0.43372c-0.00183,0.13203 -0.07108,0.1095 -0.12327,0.10677c-0.17387,-0.00916 -0.36512,-0.01923 -0.53948,0.00933c-0.22653,0.0258 -0.38223,-0.03902 -0.50138,-0.23409c-0.05088,-0.09707 -0.10226,-0.15641 -0.18788,-0.25529z" fill="#c1d9d9"/><path d="M220.3332,238.74037c-0.18968,-0.12324 -0.32672,-0.28153 -0.49852,-0.44159c0.10714,-0.20199 0.29915,-0.24847 0.45718,-0.35344c0.22423,0.14396 0.37786,0.35968 0.56653,0.55843c-0.17568,0.12287 -0.35032,0.17031 -0.5252,0.23662z" fill="#c3dbdc"/><path d="M226.71814,238.75602c0.24495,-0.10039 0.47228,-0.18276 0.69983,-0.28402c0.15547,0.08368 0.29349,0.1665 0.39551,0.34175c-0.14142,0.16245 -0.31655,0.24758 -0.49195,0.35164c-0.225,-0.0874 -0.41466,-0.21061 -0.60334,-0.40933z" fill="#c3dadb"/><path d="M219.55638,237.0194c0.1539,0.1969 0.29066,0.37399 0.42742,0.55108c-0.12427,0.18222 -0.29941,0.26737 -0.47454,0.35252c-0.15468,-0.14028 -0.27432,-0.29759 -0.37602,-0.49171c0.03556,-0.05475 0.08875,-0.12745 0.124,-0.16335c0.1056,-0.08881 0.19329,-0.14082 0.29919,-0.24851z" fill="#c4dbdc"/><path d="M222.71891,233.48626c-0.33036,-0.01742 -0.59116,-0.03118 -0.8693,-0.04578c-0.12043,-0.10074 -0.2058,-0.21853 -0.25561,-0.391c0.08848,-0.10857 0.20966,-0.06445 0.3145,-0.09666c0.10481,-0.03223 0.20941,-0.04558 0.29634,-0.04104c0.17133,0.19782 0.30835,0.35605 0.51411,0.57454z" fill="#c2d9da"/><path d="M228.19493,236.36105c0.13804,0.08279 0.2411,0.18256 0.30908,0.29944c0.01532,0.15182 -0.09007,0.22179 -0.14347,0.31334c-0.0534,0.09155 -0.07236,0.20382 -0.19483,0.25399c-0.17334,-0.04688 -0.328,-0.18719 -0.51749,-0.32931c0.08823,-0.08977 0.17645,-0.1795 0.24728,-0.27013c0.1056,-0.08879 0.21119,-0.17765 0.29942,-0.26739z" fill="#c5ddde"/><path d="M219.42039,239.33413c-0.17259,-0.1035 -0.22268,-0.25715 -0.32546,-0.37581c0.08979,-0.20291 0.24805,-0.32672 0.42395,-0.4685c0.13729,0.13936 0.27457,0.27878 0.41213,0.3993c-0.12481,0.21992 -0.33473,0.30328 -0.51062,0.44501z" fill="#c3dbdc"/><path d="M226.33653,234.84729c0.05319,-0.07274 0.08843,-0.10861 0.1237,-0.14451c0.08795,-0.07086 0.19331,-0.14084 0.29891,-0.22965c0.24159,0.14491 0.48397,0.23315 0.67239,0.45075c-0.03657,0.13023 -0.12427,0.18224 -0.24701,0.25127c-0.25976,-0.0892 -0.55401,-0.19912 -0.84805,-0.32783z" fill="#c7dfe0"/><path d="M220.37026,236.02404c-0.1365,-0.19596 -0.30879,-0.31831 -0.3929,-0.53038c0.10666,-0.16427 0.29811,-0.17307 0.40423,-0.29961c0.2237,0.18172 0.36023,0.37765 0.53151,0.57546c-0.15906,0.1804 -0.35028,0.1703 -0.54282,0.25458z" fill="#c7dee0"/><path d="M217.41472,235.86833c-0.03323,-0.11499 0.02076,-0.2443 -0.0644,-0.38092c-0.22653,0.0258 -0.47069,0.06955 -0.69644,0.03879c0.01842,-0.07456 0.0371,-0.16794 0.07287,-0.24156c0.05371,-0.11042 0.14166,-0.18128 0.26339,-0.1749c0.20886,-0.00788 0.40036,-0.01668 0.60928,-0.02451c-0.00334,0.24524 -0.02228,0.3575 -0.18467,0.78311z" fill="#61acb1"/><path d="M227.09579,241.68303c-0.17207,-0.14124 -0.30956,-0.26171 -0.48139,-0.42181c0.22755,-0.10127 0.4377,-0.20344 0.66502,-0.28586c0.1378,0.10162 0.25821,0.20239 0.36073,0.33993c-0.15905,0.1804 -0.33418,0.26553 -0.54435,0.36772z" fill="#c2dada"/><path d="M220.83196,234.06637c0.17207,0.14124 0.27431,0.29762 0.41107,0.47476c-0.24443,0.06265 -0.4541,0.12709 -0.66378,0.19153c-0.15546,-0.08368 -0.2058,-0.21851 -0.29066,-0.37399c0.12399,-0.16336 0.31607,-0.20989 0.54332,-0.29228z" fill="#c1d9d9"/><path d="M227.64774,239.48462c0.17619,-0.16061 0.31681,-0.26644 0.45773,-0.39116c0.17309,0.06576 0.29273,0.22308 0.41236,0.38043c-0.08925,0.16516 -0.19562,0.31057 -0.37103,0.41461c-0.20786,-0.06759 -0.29221,-0.26084 -0.49906,-0.40385z" fill="#c6dedf"/><path d="M219.62735,240.74192c-0.15467,-0.14027 -0.2917,-0.29854 -0.42899,-0.43791c0.0197,-0.16884 0.09078,-0.27837 0.21405,-0.38516c0.225,0.0874 0.34381,0.30131 0.53329,0.44342c-0.07184,0.16613 -0.19484,0.25398 -0.31835,0.37964z" fill="#c0d7d7"/><path d="M226.66135,233.99612c-0.1902,-0.08553 -0.39858,-0.11541 -0.57015,-0.29432c0.12327,-0.10678 0.22915,-0.21446 0.33498,-0.32213c0.20861,0.01102 0.38117,0.11449 0.51819,0.27272c-0.05422,0.14814 -0.14243,0.23787 -0.28302,0.34374z" fill="#c3dadb"/><path d="M218.58599,235.45805c0.00103,-0.07546 -0.01534,-0.15184 -0.01433,-0.22731c-0.1726,-0.1035 -0.36483,-0.03814 -0.55582,-0.06704c-0.01558,-0.13295 0.08978,-0.20293 0.10895,-0.33404c0.22704,-0.06353 0.4349,0.00402 0.66271,-0.1161c0.01478,0.18954 -0.03888,0.29995 -0.09284,0.4293c-0.03604,0.0925 -0.00312,0.22638 -0.10869,0.31516z" fill="#5aa0a4"/><path d="M221.55338,243.6751c-0.19019,-0.08552 -0.39862,-0.11541 -0.55302,-0.27456c0.03657,-0.13023 0.10717,-0.20202 0.21299,-0.30971c0.19075,0.04781 0.38095,0.13334 0.53589,0.25476c-0.03658,0.13024 -0.08977,0.20292 -0.19588,0.32945z" fill="#bdd3d4"/><path d="M218.91972,237.77869c0.10252,0.13756 0.20527,0.25625 0.30804,0.37489c-0.08926,0.16518 -0.2125,0.27197 -0.35311,0.37782c-0.1383,-0.06393 -0.17133,-0.19782 -0.16951,-0.32984c0.00228,-0.16977 0.00461,-0.33952 0.21455,-0.42287z" fill="#bdd4d5"/><path d="M226.01696,242.96645c-0.20731,-0.10532 -0.39732,-0.20972 -0.60462,-0.31501c0.36765,-0.1694 0.69928,-0.24627 0.98968,0.14657c-0.08848,0.10857 -0.22782,0.12012 -0.38505,0.16846z" fill="#bbd2d3"/><path d="M219.34348,236.04545c0.07161,-0.14722 0.17697,-0.2172 0.28232,-0.28713c0.12168,0.00642 0.15519,0.10259 0.22368,0.18171c0.05138,0.05933 0.12013,0.11957 0.13597,0.23369c-0.07161,0.14722 -0.24543,0.13809 -0.33443,0.28441c-0.15494,-0.12142 -0.24007,-0.25803 -0.30757,-0.41259z" fill="#c3dadb"/><path d="M224.32331,238.30889c0.31243,0.05427 0.62484,0.10845 0.93625,0.23814c-0.01895,0.11224 -0.10613,0.12659 -0.19305,0.12195c-0.22627,0.00694 -0.45224,-0.00495 -0.66088,-0.01595c-0.15646,-0.00824 -0.18973,-0.12328 -0.0823,-0.34412z" fill="#b1c6c7"/><path d="M219.57792,241.81529c0.13855,0.04503 0.18918,0.16099 0.27508,0.24101c0.17208,0.14122 0.18714,0.3119 0.0971,0.53372c-0.24185,-0.12602 -0.39523,-0.36064 -0.53175,-0.55659c0.01919,-0.13114 0.05473,-0.1859 0.15955,-0.21813z" fill="#bbd2d3"/><path d="M224.46269,240.84578c0.33137,-0.05806 0.62509,0.08957 0.93652,0.21924c-0.24496,0.10038 -0.50573,0.08658 -0.74938,0.09264c-0.15673,0.01062 -0.19076,-0.0478 -0.18712,-0.31189z" fill="#bad1d2"/><path d="M222.66833,243.56393c-0.1409,0.1247 -0.24703,0.25125 -0.38788,0.37596c-0.08668,-0.02345 -0.20761,-0.08646 -0.32879,-0.13059c0.09156,-0.33497 0.10895,-0.33405 0.33473,-0.30328c0.12169,0.00643 0.24316,0.03171 0.38196,0.05791z" fill="#b5cbcc"/><path d="M228.99802,238.70641c-0.05475,0.18587 -0.1432,0.29452 -0.23167,0.40309c-0.15571,-0.06484 -0.22317,-0.21944 -0.3257,-0.35696c0.0887,-0.12748 0.17721,-0.23602 0.26593,-0.3635c0.1562,0.02711 0.18868,0.19869 0.29146,0.31741z" fill="#c0d7d8"/><path d="M221.31055,242.34079c-0.03634,0.11133 -0.12426,0.18224 -0.22962,0.25221c-0.22525,-0.06852 -0.41469,-0.21061 -0.56883,-0.38866c-0.01558,-0.13295 0.03709,-0.16794 0.12451,-0.20106c0.22473,0.10619 0.44947,0.21245 0.67392,0.33756z" fill="#bdd4d4"/><path d="M227.38824,241.92503c0.15802,-0.10493 0.33314,-0.19009 0.49117,-0.29503c0.08589,0.08005 0.11939,0.1762 0.11787,0.28937c-0.03633,0.11132 -0.12373,0.1445 -0.21142,0.19649c-0.07007,0.03406 -0.1401,0.06812 -0.21018,0.10219c-0.10357,-0.06209 -0.17207,-0.14121 -0.1874,-0.29306z" fill="#b6cccc"/><path d="M227.78668,238.22724c0.1409,-0.12469 0.26413,-0.23147 0.4053,-0.37506c0.10405,0.02435 0.20762,0.08644 0.25746,0.25898c-0.0887,0.12749 -0.19483,0.25401 -0.3012,0.39941c-0.13804,-0.08279 -0.259,-0.14578 -0.36151,-0.28335z" fill="#c1d9d9"/><path d="M226.839,242.65105c-0.13804,-0.08279 -0.24137,-0.16373 -0.32646,-0.30036c0.1409,-0.1247 0.3153,-0.15325 0.45513,-0.20252c0.13855,0.04503 0.17179,0.16006 0.22266,0.25713c-0.01816,0.05567 -0.01868,0.0934 -0.03604,0.0925c-0.10509,0.05106 -0.21016,0.10217 -0.3153,0.15325z" fill="#b7cdce"/><path d="M225.33017,243.57212c0.19333,-0.14081 0.34978,-0.13258 0.50677,-0.16207c0.17464,-0.04744 0.24264,0.06942 0.32777,0.20603c-0.1409,0.1247 -0.29788,0.15418 -0.43801,0.22231c-0.17334,-0.04689 -0.22294,-0.23828 -0.39654,-0.2663z" fill="#b6cccc"/><path d="M220.65494,243.21232c-0.1378,-0.10164 -0.24107,-0.18257 -0.36175,-0.26446c-0.01506,-0.1707 -0.01352,-0.28388 0.0752,-0.41132c0.15494,0.12143 0.31013,0.224 0.44792,0.32562c0.04987,0.1725 -0.05552,0.24244 -0.07441,0.35473c-0.03477,-0.00184 -0.06982,0.01521 -0.08695,-0.00456z" fill="#c2dada"/><path d="M228.69848,237.709c-0.1209,-0.06302 -0.17231,-0.12234 -0.20583,-0.21849c-0.01583,-0.11413 0.05473,-0.18587 0.10816,-0.27746c0.05319,-0.07273 0.07236,-0.20383 0.19433,-0.21628c0.103,0.09982 0.18839,0.21756 0.22086,0.38919c-0.10612,0.12655 -0.21172,0.21537 -0.31759,0.32306z" fill="#bbd2d3"/><path d="M219.93861,234.51004c0.08512,0.13662 0.15339,0.23462 0.22139,0.35145c-0.1235,0.12566 -0.26363,0.19373 -0.40402,0.28076c-0.10328,-0.08094 -0.17157,-0.17894 -0.16971,-0.31098c0.01789,-0.03683 0.03581,-0.07361 0.07084,-0.09067c0.07055,-0.07177 0.15857,-0.14267 0.28153,-0.23057z" fill="#bbd2d3"/><path d="M222.67879,244.07412c0.19434,-0.21629 0.19434,-0.2163 0.49117,-0.295c0.13781,0.10166 0.15311,0.25349 0.20294,0.426c-0.2442,0.04377 -0.4689,-0.06246 -0.69414,-0.13098z" fill="#adc2c3"/><path d="M219.0957,236.35334c0.10328,0.08094 0.17129,0.19783 0.18685,0.33076c-0.1235,0.12566 -0.22931,0.23333 -0.35259,0.34005c-0.1695,-0.32985 -0.16926,-0.34869 0.16569,-0.67085z" fill="#b5cbcc"/><path d="M227.97379,241.08753c-0.12044,-0.10073 -0.20631,-0.18079 -0.29142,-0.31743c0.08897,-0.14629 0.24624,-0.19465 0.38688,-0.30052c0.05164,0.04048 0.08587,0.08003 0.12016,0.11957c0.03427,0.03956 0.05088,0.09705 0.08489,0.1555c-0.05448,0.16703 -0.16005,0.25581 -0.30045,0.34284z" fill="#bbd1d2"/><path d="M220.77116,233.42129c0.12428,-0.18222 0.33315,-0.19008 0.47351,-0.2771c0.12065,0.08188 0.13628,0.21485 0.20427,0.33172c-0.19303,0.12198 -0.36742,0.15052 -0.55788,0.08384c-0.05216,-0.00277 -0.0859,-0.08003 -0.1199,-0.13845z" fill="#b6cccd"/><path d="M227.69652,234.6358c-0.22423,-0.14396 -0.43077,-0.30589 -0.63759,-0.44891c0.0192,-0.13114 0.07235,-0.20382 0.19508,-0.27287c0.18868,0.19869 0.37734,0.39742 0.51309,0.64997c-0.03531,0.03591 -0.05294,0.05384 -0.07055,0.07179z" fill="#acc1c2"/><path d="M225.17277,239.80718c-0.2268,0.04469 -0.45334,0.07049 -0.67881,0.02083c-0.08669,-0.02347 -0.15544,-0.08369 -0.15416,-0.178c0.00052,-0.03768 0.03634,-0.11133 0.05372,-0.11042c0.26104,-0.00511 0.52003,0.14066 0.77926,0.26758z" fill="#a7bbbb"/><path d="M228.59082,240.49704c-0.10381,-0.04324 -0.15468,-0.14028 -0.20528,-0.25621c0.10612,-0.12655 0.21224,-0.25308 0.31836,-0.37965c0.13804,0.08279 0.15388,0.19689 0.15209,0.32892c-0.05371,0.11042 -0.15954,0.21813 -0.26518,0.30693z" fill="#b7cdcd"/><path d="M218.77843,239.20591c0.1726,0.1035 0.25767,0.24012 0.34257,0.3956c-0.05422,0.14814 -0.1253,0.25768 -0.28281,0.32487c-0.10122,-0.23185 -0.08073,-0.45732 -0.05978,-0.72048z" fill="#b7cece"/><path d="M222.35032,232.44745c0.21043,-0.12105 0.4354,-0.03367 0.61054,-0.11886c0.10326,0.08093 0.08485,0.1555 0.03218,0.19049c-0.14036,0.08699 -0.29789,0.15421 -0.47172,0.14501c-0.05191,-0.02161 -0.06928,-0.02255 -0.17104,-0.21666z" fill="#b4cacb"/><path d="M227.5645,235.3839c0.05369,-0.11041 0.10662,-0.16427 0.19405,-0.19744c0.17208,0.14122 0.3615,0.28334 0.49699,0.55476c-0.2958,0.00327 -0.46734,-0.17567 -0.69105,-0.35734z" fill="#b2c8c9"/><path d="M219.43995,235.35211c-0.0887,0.12748 -0.15956,0.21812 -0.26438,0.25034c-0.06929,-0.02252 -0.08593,-0.08004 -0.10253,-0.13756c-0.06646,-0.23001 0.05656,-0.31793 0.23167,-0.40306c0.03351,0.09614 0.08438,0.19322 0.13524,0.29028z" fill="#b5cbcb"/><path d="M224.61927,242.11883c0.22627,-0.00695 0.41748,0.00312 0.62533,0.07072c0.01607,0.09523 -0.03657,0.13021 -0.08871,0.12747c-0.12197,0.01243 -0.24421,0.04376 -0.36614,0.0562c-0.13908,-0.00735 -0.1728,-0.08462 -0.17046,-0.25438z" fill="#91a3a3"/><path d="M225.0648,234.969c-0.21043,0.12105 -0.43619,0.09027 -0.64482,0.07926c-0.03477,-0.00184 -0.06905,-0.04139 -0.08589,-0.08004c0.00053,-0.0377 0.03603,-0.09249 0.05345,-0.09158c0.2442,-0.04377 0.46967,0.00588 0.67728,0.09233z" fill="#99abac"/><path d="M224.48605,234.03245c-0.06775,-0.13571 -0.06644,-0.23002 0.021,-0.26318c0.12223,-0.0313 0.29554,0.0156 0.52053,0.10295c-0.17567,0.12291 -0.36688,0.11281 -0.54151,0.16021z" fill="#93a5a6"/><path d="M218.96209,241.04666c0.18917,0.16101 0.39601,0.30403 0.25231,0.63626c-0.20654,-0.16194 -0.20321,-0.40713 -0.25231,-0.63626z" fill="#9aadad"/><path d="M222.1299,240.94929c0.13988,-0.04927 0.29709,-0.0976 0.4196,-0.14777c0.08616,0.06119 0.10277,0.11868 0.08383,0.23096c-0.15778,0.0861 -0.33061,0.00147 -0.48733,0.0121c0.00053,-0.0377 0.00078,-0.05659 -0.0161,-0.09526z" fill="#c5dddd"/><path d="M224.96258,237.36101c-0.22833,0.15786 -0.45438,0.14592 -0.67934,0.05858c-0.0174,-0.00092 -0.03428,-0.03957 -0.03376,-0.0773c-0.0166,-0.05751 0.03603,-0.09249 0.07082,-0.09065c0.19149,-0.00883 0.39938,0.05881 0.64227,0.10937z" fill="#aec2c3"/><path d="M220.55818,233.73099c-0.1409,0.1247 -0.3155,0.17214 -0.47278,0.22047c-0.08616,-0.06117 -0.06774,-0.13574 0.0023,-0.16979c0.12275,-0.06904 0.22809,-0.13897 0.36794,-0.18822c0.03531,-0.03591 0.08666,0.02343 0.10251,0.13754z" fill="#9caeaf"/><path d="M228.96956,239.51659c0.05448,-0.16703 0.12554,-0.27651 0.23169,-0.40308c0.0662,0.24889 0.01122,0.45364 0.00812,0.68c-0.05192,-0.02162 -0.08669,-0.02347 -0.10377,-0.04325c-0.05111,-0.07821 -0.08486,-0.15547 -0.136,-0.23367z" fill="#a9bebf"/><path d="M222.42259,236.07561c0.03297,0.1339 0.01456,0.20838 -0.03867,0.28114c-0.17411,0.00967 -0.3298,-0.05516 -0.50111,-0.25296c0.20916,-0.02673 0.36562,-0.01846 0.53974,-0.0282z" fill="#b9cfd0"/><path d="M222.7764,242.02161c0.08614,0.06118 0.10249,0.13757 0.11886,0.21392c-0.03607,0.09249 -0.12296,0.08791 -0.53947,0.0093c0.1074,-0.22087 0.29788,-0.1542 0.42062,-0.22323z" fill="#869797"/><path d="M224.94325,236.22736c-0.2774,-0.07126 -0.52314,0.08569 -0.72814,-0.18941c0.26183,-0.06173 0.47017,-0.03188 0.72814,0.18941z" fill="#93a4a5"/><path d="M225.45782,243.14466c-0.26076,-0.01375 -0.43464,-0.02293 -0.60849,-0.03208c-0.03477,-0.00184 -0.06905,-0.04139 -0.06823,-0.09797c0.00026,-0.01889 0.01817,-0.05567 0.0358,-0.07364c0.20913,-0.02676 0.40043,-0.01667 0.64095,0.20366z" fill="#94a5a6"/><path d="M223.02481,242.9409c0.06797,0.11687 0.08462,0.17433 0.01379,0.265c-0.13933,0.01153 -0.29609,0.02215 -0.46917,-0.04361c0.12431,-0.18221 0.29812,-0.17303 0.45534,-0.2214z" fill="#abbfc0"/><path d="M226.4452,243.46096c-0.0335,-0.09614 -0.05035,-0.13479 -0.04984,-0.17255c0.24623,-0.19468 0.2462,-0.19464 0.48883,-0.12523c-0.10689,0.18313 -0.28072,0.17399 -0.439,0.29774z" fill="#acc0c1"/><path d="M219.79329,241.33592c0.13755,0.12053 0.29273,0.22307 0.43001,0.36246c0.05138,0.05933 0.05033,0.13481 -0.05473,0.18587c-0.17207,-0.14124 -0.32673,-0.2815 -0.37526,-0.54834z" fill="#9fb2b2"/><path d="M228.19599,241.3824c0.07086,-0.09068 0.12378,-0.14448 0.21118,-0.17763c0.06906,0.04139 0.10304,0.0998 0.11914,0.19505c-0.01895,0.11225 -0.1069,0.18312 -0.19485,0.25399c-0.10381,-0.04324 -0.11963,-0.15732 -0.13546,-0.27139z" fill="#aec2c3"/><path d="M222.02196,238.65958c0.08896,-0.14629 0.21071,-0.13991 0.33266,-0.15236c0.05216,0.00278 0.08613,0.06116 0.08536,0.11776c-0.00053,0.0377 -0.03605,0.09252 -0.07082,0.09066c-0.10508,0.05108 -0.20892,0.00786 -0.34719,-0.05607z" fill="#91a2a3"/><path d="M229.1957,238.24485c-0.29274,-0.22309 -0.30989,-0.24283 -0.06313,-0.47525c0.0327,0.15275 0.11785,0.28937 0.06313,0.47525z" fill="#869696"/><path d="M224.51788,232.97697c0.14143,-0.16244 0.24493,-0.10036 0.3664,-0.07508c-0.08927,0.16517 -0.08927,0.16517 -0.3664,0.07508z" fill="#555f5f"/><path d="M222.47566,239.83493c-0.08693,-0.00458 -0.20861,-0.011 -0.32956,-0.074c0.1588,-0.16152 0.22832,-0.15784 0.34898,-0.07602c0.03452,0.0207 0.03377,0.07731 -0.01946,0.14999z" fill="#93a5a6"/><path d="M225.3079,243.92955c-0.2112,0.17764 -0.24572,0.15697 -0.29374,-0.14765c0.12224,-0.03131 0.20812,0.04869 0.29374,0.14765z" fill="#8b9b9c"/><path d="M225.13177,232.61298c-0.17464,0.04742 -0.31342,0.02122 -0.45231,-0.00499c-0.05062,-0.11592 -0.01505,-0.17069 0.0545,-0.167c0.13908,0.00733 0.27791,0.03354 0.3978,0.17196z" fill="#9aacad"/><path d="M227.4107,242.83229c-0.08848,0.10857 -0.14219,0.21902 -0.28102,0.19285c-0.0174,-0.00094 -0.03453,-0.02069 -0.03428,-0.03955c0.0371,-0.16795 0.14194,-0.20018 0.31529,-0.15327z" fill="#5f6a6b"/><path d="M222.17826,237.40302c0.07031,-0.05293 0.13989,-0.04928 0.20916,-0.02671c0.03452,0.0207 0.06876,0.06025 0.05086,0.09707c-0.01789,0.03683 -0.05319,0.07273 -0.08797,0.07086c-0.06952,-0.00369 -0.13881,-0.0262 -0.17204,-0.14122z" fill="#636e6f"/><path d="M228.83112,240.73634c0.05034,0.1348 0.03169,0.22819 -0.10842,0.29632c-0.06747,-0.15458 -0.01432,-0.22728 0.10842,-0.29632z" fill="#4a5354"/></g><g fill="#ff0000" fill-rule="nonzero" stroke="none" stroke-linecap="butt" stroke-linejoin="miter"><path d="M226.49503,220.10746c0,1.16699 -1.02172,2.11302 -2.28206,2.11302c-1.26035,0 -2.28207,-0.94603 -2.28207,-2.11302c0,-1.16699 1.02172,-2.11302 2.28207,-2.11302c1.26035,0 2.28206,0.94603 2.28206,2.11302z" stroke-width="NaN"/><path d="M229.53778,224.67159c0,1.07363 -0.90819,1.94398 -2.0285,1.94398c-1.12031,0 -2.0285,-0.87035 -2.0285,-1.94398c0,-1.07363 0.9082,-1.94398 2.0285,-1.94398c1.12031,0 2.0285,0.87035 2.0285,1.94398z" stroke-width="0"/><path d="M225.81886,228.47503c0,1.12031 -0.90819,2.0285 -2.0285,2.0285c-1.12031,0 -2.0285,-0.90819 -2.0285,-2.0285c0,-1.12031 0.90819,-2.0285 2.0285,-2.0285c1.12031,0 2.0285,0.9082 2.0285,2.0285z" stroke-width="0"/></g><g fill="#ff0000" fill-rule="nonzero" stroke="none" stroke-linecap="butt" stroke-linejoin="miter"><path d="M231.11161,213.48514c-0.90339,-0.27236 -1.39729,-1.28408 -1.10314,-2.25975c0.29414,-0.97566 1.26495,-1.54581 2.16834,-1.27345c0.90339,0.27236 1.39728,1.28408 1.10314,2.25975c-0.29414,0.97566 -1.26494,1.54581 -2.16834,1.27345z" stroke-width="NaN"/><path d="M224.79189,211.00885c-0.86726,-0.26146 -1.35835,-1.17647 -1.09689,-2.04373c0.26146,-0.86726 1.17647,-1.35835 2.04372,-1.09689c0.86726,0.26146 1.35835,1.17647 1.09689,2.04373c-0.26146,0.86726 -1.17647,1.35835 -2.04373,1.09689z" stroke-width="0"/><path d="M229.26029,217.4951c-0.93953,-0.28325 -1.49804,-1.18663 -1.24747,-2.01775c0.25057,-0.83112 1.21533,-1.27526 2.15486,-0.99201c0.93953,0.28325 1.49805,1.18664 1.24748,2.01776c-0.25057,0.83112 -1.21534,1.27525 -2.15487,0.992z" stroke-width="0"/></g><path d="M244.70835,157.89569l0.41419,15.32503" fill="none" fill-rule="nonzero" stroke="#000000" stroke-width="4.5" stroke-linecap="round" stroke-linejoin="miter"/><path d="M252.57796,157.06731l0.41419,16.5676" fill="none" fill-rule="nonzero" stroke="#000000" stroke-width="4.5" stroke-linecap="round" stroke-linejoin="miter"/><path d="M233.92726,152.27622l14.33564,4.91508" fill="none" fill-rule="nonzero" stroke="#000000" stroke-width="2.5" stroke-linecap="round" stroke-linejoin="miter"/><path d="M228.39779,179.30914c0,0 1.88126,-2.59131 3.49442,-2.08944c1.43877,0.44762 5.72135,4.95657 5.72135,4.95657" fill="none" fill-rule="nonzero" stroke="#000000" stroke-width="2.5" stroke-linecap="round" stroke-linejoin="miter"/></g></g></svg>