<svg version="1.1" xmlns="http://www.w3.org/2000/svg" xmlns:xlink="http://www.w3.org/1999/xlink" width="86.95328" height="109.61811" viewBox="0,0,86.95328,109.61811"><defs><linearGradient x1="229.53709" y1="164.10461" x2="207.26066" y2="161.43022" gradientUnits="userSpaceOnUse" id="color-1"><stop offset="0" stop-color="#000000"/><stop offset="1" stop-color="#000000" stop-opacity="0"/></linearGradient></defs><g transform="translate(-206.48375,-133.9946)"><g data-paper-data="{&quot;isPaintingLayer&quot;:true}" stroke-miterlimit="10" stroke-dasharray="" stroke-dashoffset="0" style="mix-blend-mode: normal"><g stroke-linejoin="miter"><path d="M278.43448,165.98547c-1.60335,13.35511 -14.21723,22.82327 -28.17394,21.1477c-13.9567,-1.67557 -23.97108,-13.86032 -22.36773,-27.21545c1.60335,-13.35511 14.21723,-22.82327 28.17394,-21.1477c13.9567,1.67557 23.97108,13.86032 22.36773,27.21545z" fill="none" fill-rule="nonzero" stroke="#000000" stroke-width="4.5" stroke-linecap="butt"/><g><g fill-rule="nonzero" stroke-linecap="butt"><path d="M240.07089,145.53926l-0.0104,-0.00941" data-paper-data="{&quot;index&quot;:null}" fill="#ffab19" stroke="#000000" stroke-width="5"/><g data-paper-data="{&quot;index&quot;:null}" fill="none" stroke="none" stroke-width="1" font-family="sans-serif" font-weight="normal" font-size="12" text-anchor="start"/></g><path d="M240.07089,145.53926l-0.0104,-0.00941" data-paper-data="{&quot;index&quot;:null}" fill="#ffab19" fill-rule="nonzero" stroke="#000000" stroke-width="5" stroke-linecap="butt"/><path d="M252.72881,164.13114" fill="#001026" fill-rule="evenodd" stroke="#000000" stroke-width="5" stroke-linecap="butt"/><g data-paper-data="{&quot;index&quot;:null}" fill="none" fill-rule="nonzero" stroke="none" stroke-width="1" stroke-linecap="butt" font-family="sans-serif" font-weight="normal" font-size="12" text-anchor="start"/><g data-paper-data="{&quot;index&quot;:null}" fill="none" fill-rule="nonzero" stroke="none" stroke-width="1" stroke-linecap="butt" font-family="sans-serif" font-weight="normal" font-size="12" text-anchor="start"/><path d="M281.51759,145.19532c-1.81077,1.92377 -15.11882,15.46743 -15.11882,15.46743" fill="none" fill-rule="nonzero" stroke="#000000" stroke-width="5" stroke-linecap="round"/><path d="M234.70414,151.10707c0,0 -1.11881,-0.58059 -0.57107,-0.38797c2.83279,0.9962 27.7763,9.95521 27.7763,9.95521" fill="none" fill-rule="nonzero" stroke="#000000" stroke-width="5" stroke-linecap="round"/></g><path d="M258.02459,172.34023l1.76424,-12.73464" fill="none" fill-rule="nonzero" stroke="#000000" stroke-width="4.5" stroke-linecap="round"/><path d="M266.48966,172.41495l1.8478,-13.43078" fill="none" fill-rule="nonzero" stroke="#000000" stroke-width="4.5" stroke-linecap="round"/><path d="M244.40541,187.3101l-29.2099,-3.74216c0,0 -2.34677,-0.62352 -1.89506,-1.47726c1.03582,-1.95768 7.98458,-10.03196 7.98458,-10.03196l-11.1287,-5.33768c0,0 -2.00645,-1.15119 -2.19253,-2.28067c-0.1731,-1.05071 12.25469,-8.98699 12.25469,-8.98699c0,0 -7.77778,-4.56934 -9.76507,-6.80315c-0.78036,-0.87715 12.59672,-6.97647 21.64771,-9.64521c4.42891,-1.3059 10.49901,-3.34445 15.24319,-3.51042c7.86617,-0.27519 13.54831,2.71521 13.54831,2.71521" fill="none" fill-rule="nonzero" stroke="#000000" stroke-width="3" stroke-linecap="round"/><path d="M213.33915,183.34508c0,0 -0.35905,-1.45707 1.09206,-3.22959c1.81755,-2.22014 7.50736,-4.81121 6.14679,-7.35297c-1.76248,-3.29258 -14.33674,-4.34147 -12.33645,-7.97596c1.64247,-2.98435 11.49801,-7.30439 11.74491,-9.36103c0.24637,-2.0521 -4.43878,-1.34823 -6.71174,-4.39194c-3.23263,-4.32879 -1.4466,-4.11999 -1.4466,-4.11999c0,0 12.52775,-6.02208 18.4747,-7.77253c5.57956,-1.6423 16.17514,-2.42642 16.17514,-2.42642c0,0 -16.46683,11.86879 -19.54265,19.60602c-3.4096,8.57686 11.80824,29.13275 11.80824,29.13275z" data-paper-data="{&quot;index&quot;:null}" fill="url(#color-1)" fill-rule="nonzero" stroke="none" stroke-width="0" stroke-linecap="butt"/></g><path d="M252.34191,181.3564c-0.18793,0.02439 -2.73213,0.30604 -5.41323,1.37797c-2.4728,0.98864 -4.3868,0.30804 -5.35133,0.11486c-0.91938,-0.18414 -3.30679,-0.956 -4.74557,-2.94196c-2.03686,-2.81149 -3.75187,-4.67618 -3.84755,-5.41343c-0.26955,-2.07702 21.92356,6.52956 19.35768,6.86255z" fill="#ff0000" fill-rule="nonzero" stroke="#000000" stroke-width="2" stroke-linecap="butt" stroke-linejoin="miter"/><path d="M248.42279,192.328l-4.46375,12.37502" fill="none" fill-rule="nonzero" stroke="#000000" stroke-width="6" stroke-linecap="round" stroke-linejoin="miter"/><path d="M231.66953,208.98026c0,0 0.62117,-11.11079 1.31077,-11.99441c1.24863,-1.59996 17.66922,-8.18199 17.66922,-8.18199c0,0 7.99257,9.44062 11.0281,11.22948c0.33885,0.19969 15.74625,0.16933 15.74625,0.16933" fill="none" fill-rule="nonzero" stroke="#000000" stroke-width="6" stroke-linecap="round" stroke-linejoin="miter"/><g stroke="#001026" stroke-width="1.2"><g><g><path d="M254.0416,202.90842l-4.85665,26.62774c0,0 6.80669,0.26862 4.53133,7.5654c-0.12972,0.41599 -0.81877,2.45959 -3.85426,3.12108c-2.90737,0.63357 -8.12556,-0.09892 -10.02861,-0.37903c-0.88387,-0.1301 -2.10636,-0.75651 -2.68328,-1.86301c-0.58084,-1.11408 -0.0052,-2.76609 0.26401,-3.6942c0.10963,-0.37802 6.67076,-30.0551 6.67076,-30.0551" fill="#bf0000" fill-rule="evenodd" stroke-linecap="round" stroke-linejoin="round"/><path d="M242.17179,210.25444c2.33186,-7.47801 7.61463,-7.72475 10.32796,-7.71824c1.17986,0.00284 1.59735,-1.99118 0.95727,3.83117c-0.14098,1.28231 -1.21544,6.55773 -1.54406,11.03485c-0.22503,3.06575 0.23791,5.75801 0.24531,6.53429c0.01746,1.83417 -0.69667,3.52255 -0.69667,3.52255l-0.64655,-1.20096c0,0 0.41262,0.83781 0.52944,1.3406c0.36397,1.56631 0.64705,2.74829 0.64705,2.74829c0,0 -6.85199,-0.31606 -10.24862,2.0761c-3.39662,2.39216 -3.31763,6.74984 -3.31763,6.74984c0,0 -4.93688,-0.71706 -4.48643,-3.69821c0.11104,-0.73493 1.54901,-2.94674 1.54901,-2.94674c0,0 -0.62797,0.13735 -0.49942,-0.37268c0.06552,-0.26 1.97594,-4.13792 3.40888,-8.48433c1.88635,-5.72173 3.43845,-12.33907 3.77444,-13.41652z" fill="#000000" fill-rule="nonzero" stroke-linecap="butt" stroke-linejoin="miter"/></g><path d="M234.82303,205.14712c0.05383,-0.21919 1.05237,0.40115 3.71756,0.41577c3.51607,0.01931 9.07224,-0.54344 10.66402,-0.80337c4.12777,-0.67404 5.24857,-2.24734 5.10589,-1.66631c-0.52801,2.1501 -3.92067,6.18688 -8.51226,6.50689c-2.01779,0.14063 -6.29658,0.95243 -8.3822,0.24629c-2.66031,-0.90073 -2.88895,-3.49406 -2.593,-4.69928z" fill="#004fd9" fill-rule="nonzero" stroke-linecap="butt" stroke-linejoin="miter"/><g><g fill="#ffab19" fill-rule="evenodd" stroke-linecap="round" stroke-linejoin="round" font-family="&quot;Helvetica Neue&quot;, Helvetica, Arial, sans-serif" font-weight="400" font-size="16" text-anchor="start"/><path d="M234.7505,203.75807c0,0 8.11348,1.16451 12.0275,1.05815c3.91402,-0.10636 7.54261,-1.58995 7.54261,-1.58995c0,0 -0.57889,2.10601 -2.91531,4.19536c-1.80854,1.61729 -4.87743,3.31943 -8.23916,3.42932c-3.06264,0.10011 -6.27487,-0.49517 -7.56233,-1.83539c-1.95141,-2.03139 -0.8533,-5.25751 -0.8533,-5.25751z" fill="#000000" fill-rule="nonzero" stroke-linecap="butt" stroke-linejoin="miter"/></g><g><path d="M242.6015,208.88741c0,0 -12.30557,31.12499 -12.94102,31.24104c-1.82358,0.33301 -10.58828,-2.0874 -10.58828,-2.0874l15.15825,-31.35565" data-paper-data="{&quot;index&quot;:null}" fill="#ffab19" fill-rule="evenodd" stroke-linecap="round" stroke-linejoin="round"/><path d="M244.21352,208.354c0,0 -2.67567,6.58342 -3.91224,10.07002c-1.18605,3.34418 -3.36193,10.44017 -3.36193,10.44017c0,0 -0.5603,5.13329 -1.8386,6.42467c-0.59205,0.59812 -1.02509,-2.41461 -1.02509,-2.41461c0,0 0.34275,3.45743 0.27867,3.80425c-0.4471,2.41987 -2.53193,5.63116 -5.66718,6.00198c-3.44232,0.40713 -9.09837,0.90654 -11.40277,-0.94848c-2.08623,-1.67937 -1.03726,-5.61927 -0.22123,-7.24571c0.57305,-1.14216 2.47346,-1.79314 3.22677,-3.1984c0.5009,-0.9344 -3.53153,3.35196 -2.66516,2.10183c0.99114,-1.43015 5.20253,-7.81665 5.20253,-7.81665l11.05513,-20.00419" data-paper-data="{&quot;index&quot;:null}" fill="#000000" fill-rule="evenodd" stroke-linecap="round" stroke-linejoin="round"/><path d="M232.51384,238.14126c-0.58842,1.74536 -1.85886,3.78635 -3.64836,4.87145c-1.79615,1.08912 -10.6337,0.87123 -11.64525,-0.38807c-0.96064,-1.19591 -0.84101,-3.44871 -0.26671,-5.15216c1.17903,-3.49719 5.61811,-6.18251 9.91499,-5.99783c4.29684,0.18467 6.82436,3.16943 5.6453,6.66663z" fill="#ff0000" fill-rule="nonzero" stroke-linecap="butt" stroke-linejoin="miter"/></g></g><g fill="#000000" fill-rule="nonzero" stroke-linecap="butt" stroke-linejoin="miter"><path d="M232.61351,215.55258c0,0 -2.99594,0.53513 -3.79253,0.28469c-0.2452,-0.0771 -0.68628,-1.02086 -0.723,-2.1562c-0.04584,-1.41703 0.40272,-3.17512 1.08247,-4.41137c1.74888,-3.18066 7.05166,-6.72571 8.88979,-6.14782c0.79663,0.25045 2.34151,2.76907 2.34137,2.77547"/></g></g><g fill-rule="nonzero" stroke-linecap="butt" stroke-linejoin="miter"><path d="M275.47772,202.62134c0,0 -3.69414,-0.86754 -5.38637,-2.77542c-1.39863,-1.57687 -0.89807,-4.15786 -0.53242,-4.94229c0.64714,-1.3882 1.81807,-1.866 3.34992,-1.74733c1.55125,0.12017 5.23236,2.64781 5.23236,2.64781c0,0 5.01954,1.7095 6.15473,3.14852c0.807,1.02302 1.08033,2.11333 0.53916,3.27429c-0.83663,1.79473 -2.28689,3.56096 -4.83288,3.43919c-1.41759,-0.06782 -4.52448,-3.04482 -4.52448,-3.04482z" data-paper-data="{&quot;index&quot;:null}" fill="#000000" stroke="#000000" stroke-width="1.2"/><g data-paper-data="{&quot;index&quot;:null}" stroke="none" stroke-width="1"><path d="M270.31633,193.29954c-0.16668,0.16744 -0.32305,0.13864 -0.49938,0.07108c-0.26901,-0.1298 -0.50523,-0.31367 -0.76326,-0.46158c-0.07916,0.02306 -0.15833,0.04608 -0.22197,0.07948c-1.38874,0.64207 -2.7492,0.59219 -4.10835,0.28921c-0.28639,-0.06525 -0.58372,-0.11251 -0.83082,-0.27841c-0.04632,-0.03113 -0.11906,-0.05453 -0.17185,-0.03915c-0.29024,0.08448 -0.49104,-0.05029 -0.71822,-0.17741c-0.19628,-0.10634 -0.37067,-0.24879 -0.55601,-0.37323c-0.1081,-0.07256 -0.19435,-0.18125 -0.20598,-0.34139c-0.01158,-0.16011 -0.10233,-0.29722 -0.17762,-0.42388c-0.50648,-0.67005 -0.89009,-1.43532 -1.1617,-2.27777c-0.14483,-0.47805 -0.19507,-0.96877 -0.23433,-1.47757c-0.11334,-1.49796 0.18067,-2.95096 0.77198,-4.3568c0.27284,-0.62936 0.63385,-1.22491 1.0566,-1.77903c0.31981,-0.42008 0.72588,-0.73151 1.13644,-1.01451c1.30638,-0.90051 2.71376,-1.25075 4.17333,-1.18507c0.27737,0.00844 0.55279,0.09175 0.82823,0.17506c0.18725,0.04951 0.37005,0.07065 0.57213,-0.04763c0.17569,-0.11056 0.35843,-0.08948 0.53475,-0.02193c0.26901,0.1298 0.51612,0.29566 0.76326,0.46157c0.07724,0.05185 0.11715,0.12941 0.15703,0.20701c0.11779,0.30756 0.31664,0.51722 0.55287,0.70117c0.51422,0.37054 0.88814,0.90083 1.27299,1.41307c0.14159,0.19663 0.27224,0.41125 0.36559,0.65161c0.31537,0.77024 0.58896,1.53788 0.67137,2.40568c0.23168,0.1555 0.46787,0.33945 0.71501,0.50528c0.09268,0.06222 0.2008,0.13479 0.19693,0.28451c0.00706,0.13168 0.11069,0.17588 0.20337,0.23804c0.6069,0.43273 1.22469,0.84744 1.83161,1.28018c1.36371,0.94078 2.74287,1.89185 4.0847,2.8687c1.31093,0.95612 2.65472,1.85803 3.98754,2.77809c0.21625,0.14514 0.39514,0.31602 0.61136,0.46113c1.05029,0.70498 2.10058,1.40999 3.13996,2.13301c0.18536,0.1244 0.39257,0.21275 0.49678,0.43505c0.03993,0.07757 0.12806,0.11135 0.2053,0.1632c0.77229,0.51833 1.54907,1.06515 2.32135,1.58353c0.03089,0.02074 0.07723,0.05185 0.1081,0.07256c0.25808,0.1478 0.30505,0.3571 0.26003,0.68236c-0.15889,1.0867 -0.60223,2.0332 -1.32997,2.83964c-0.18855,0.20353 -0.40799,0.3863 -0.64736,0.5303c-0.1757,0.11055 -0.343,0.09984 -0.50837,0.01423c-0.49619,-0.25689 -1.00332,-0.49572 -1.51495,-0.763c-0.36169,-0.19199 -0.71697,-0.43044 -1.11144,-0.56828c-0.86169,-0.29911 -1.60764,-0.82519 -2.43652,-1.17836c-0.4608,-0.2077 -0.92804,-0.36898 -1.37788,-0.59477c-0.48072,-0.24649 -0.9679,-0.44659 -1.44414,-0.66462c-0.86431,-0.40243 -1.7222,-0.85129 -2.59742,-1.23563c-1.16609,-0.47804 -2.28849,-1.02827 -3.41084,-1.5785c-0.3881,-0.18433 -0.7761,-0.36856 -1.1642,-0.55292c-0.59984,-0.30101 -1.21504,-0.61244 -1.81478,-0.91347c-0.33082,-0.17125 -0.66802,-0.29606 -0.9988,-0.46727c-0.35722,-0.16358 -0.65064,-0.36054 -1.01235,-0.55255zM270.37357,192.70321c0.22395,-0.15437 0.41703,-0.32943 0.57468,-0.55371c0.42342,-0.37594 0.74969,-0.84249 1.07592,-1.30907c0.41827,-0.58252 0.78569,-1.22458 1.14214,-1.84856c0.4112,-0.71424 0.63509,-1.47798 0.85453,-2.27019c0.01285,-0.09294 0.02576,-0.18586 0.04502,-0.32521c-0.12355,-0.08295 -0.24714,-0.16586 -0.37067,-0.2488c-0.03087,-0.02073 -0.07272,-0.02341 -0.12999,-0.03645c-0.07658,0.12632 -0.1377,0.26304 -0.1834,0.41009c-0.08491,0.24769 -0.18984,0.45657 -0.27479,0.70422c-0.2355,0.60362 -0.62093,1.13206 -0.90275,1.70457c-0.15955,0.29917 -0.28829,0.61897 -0.47874,0.89739c-0.42918,0.60058 -0.7812,1.25296 -1.27215,1.81205c-0.12937,0.1417 -0.26958,0.30146 -0.399,0.44315c-0.13645,0.00997 -0.19303,0.17513 -0.27867,0.24461c-0.11195,0.07716 -0.22395,0.15438 -0.32882,0.36324c0.27737,0.00845 0.44537,0.19737 0.67443,0.24963c0.07016,-0.07987 0.20656,-0.08986 0.25224,-0.23693zM271.33626,192.33381c-0.39062,0.32179 -0.47169,0.41971 -0.58303,0.67507c0.19628,0.10634 0.37715,0.20232 0.57341,0.30872c0.1081,0.07256 0.22909,0.05225 0.3411,-0.02497c0.07466,-0.05146 0.12936,-0.1417 0.204,-0.19316c0.27225,-0.19812 0.5045,-0.47388 0.66412,-0.773c0.15378,-0.07454 0.24131,-0.21883 0.32883,-0.36326c0.50771,-0.80178 1.01993,-1.57517 1.4504,-2.42876c0.18793,-0.38169 0.36037,-0.77376 0.5064,-1.1581c0.10233,-0.31222 0.21554,-0.64243 0.16148,-0.98341c-0.20082,-0.1348 -0.40158,-0.2695 -0.60239,-0.40431c-0.05661,0.16509 -0.10234,0.31221 -0.13704,0.44116c-0.18276,0.58827 -0.39636,1.15578 -0.67178,1.6819c-0.34749,0.68079 -0.77219,1.3098 -1.18143,1.94916c-0.186,0.30685 -0.45365,0.53342 -0.62418,0.85059c-0.20655,0.08987 -0.33142,0.25997 -0.42985,0.42236zM289.88361,201.63478c0.24581,-0.19046 0.41442,-0.43275 0.55209,-0.69576c0.02638,-0.00765 0.0637,-0.03341 0.07466,-0.05147c0.24711,-0.44351 0.46331,-0.90776 0.56496,-1.39813c0.065,-0.28651 0.14541,-0.56253 0.08489,-0.85704c-0.86496,-0.58061 -1.72992,-1.16111 -2.64121,-1.77284c-0.09268,0.54716 -0.27794,1.03221 -0.47872,1.50676c-0.16794,0.42049 -0.43306,0.75034 -0.63189,1.15006c-0.0875,0.14437 -0.17953,0.26038 -0.26704,0.40475c-0.20848,0.16471 -0.39703,0.36825 -0.57658,0.62858c0.4634,0.31102 0.98338,0.4569 1.43772,0.71114c0.48074,0.24652 0.97244,0.47498 1.43772,0.71111c0.20657,-0.08986 0.32499,-0.21346 0.44337,-0.33715zM286.50557,200.00218c0.15378,-0.07454 0.25676,-0.20853 0.34425,-0.35288c0.14933,-0.1029 0.23234,-0.27573 0.34623,-0.42776c0.32173,-0.49499 0.56629,-1.04178 0.76896,-1.59129c0.11324,-0.3302 0.19557,-0.68122 0.19426,-1.03754c-0.06179,-0.04149 -0.11263,-0.101 -0.17444,-0.14243c-0.75685,-0.50804 -1.49818,-1.00564 -2.24411,-1.53168c-0.79223,-0.55715 -1.569,-1.10393 -2.36126,-1.66107c-1.16297,-0.80596 -2.29945,-1.61965 -3.4624,-2.4256c-1.29098,-0.91734 -2.59936,-1.77015 -3.86846,-2.72357c-0.20529,-0.16319 -0.44793,-0.3006 -0.67962,-0.45615c-0.05855,0.23999 -0.07525,0.48264 -0.16468,0.70191c-0.24385,0.72497 -0.59134,1.40578 -0.9697,2.06589c-0.35004,0.57749 -0.71554,1.14467 -1.08108,1.71184c-0.17312,0.21391 -0.31982,0.42009 -0.49292,0.63398c-0.18019,0.08214 -0.24774,0.26534 -0.36614,0.389c-0.12937,0.1417 -0.27862,0.2446 -0.37258,0.43543c0.13258,0.13975 0.27805,0.18662 0.39707,0.24115c1.03167,0.41316 1.99119,0.98108 2.98999,1.44836c0.64167,0.30371 1.28326,0.60747 1.93584,0.8931c0.86429,0.40242 1.72409,0.77639 2.57293,1.16844c0.69891,0.31672 1.39783,0.63354 2.08576,0.96838c0.74524,0.34791 1.46407,0.70347 2.19838,1.06936c0.67252,0.32446 1.36049,0.65925 2.05939,0.97605c0.11386,-0.15204 0.27221,-0.19816 0.34426,-0.35288zM269.46218,180.08194c-0.10165,0.49032 -0.2696,0.91085 -0.42208,1.34165c-0.16344,0.44889 -0.30048,0.89011 -0.47933,1.32861c-0.16794,0.42049 -0.37776,0.83832 -0.56116,1.24838c-0.19435,0.42817 -0.38864,0.85632 -0.60934,1.29214c-0.19885,0.39971 -0.42409,0.80714 -0.62293,1.2069c-0.22523,0.40739 -0.51223,0.77337 -0.67567,1.22228c-0.32237,0.31677 -0.50125,0.7553 -0.7464,1.12397c-0.27157,0.3763 -0.52317,0.79142 -0.79472,1.16774c-0.26061,0.35825 -0.54763,0.72423 -0.82369,1.07212c-0.28701,0.36597 -0.62488,0.67235 -0.86548,1.0694c0.34881,0.28493 0.45693,0.35748 0.82244,0.39972c0.20848,-0.16471 0.41701,-0.32946 0.61648,-0.55103c0.2323,-0.27572 0.46461,-0.55137 0.72332,-0.8348c0.48006,-0.54106 0.93373,-1.07444 1.3166,-1.70611c0.26255,-0.43316 0.50965,-0.8767 0.83399,-1.26835c0.07016,-0.07987 0.13576,-0.18816 0.17052,-0.31716c0.08492,-0.24768 0.24263,-0.47193 0.37384,-0.68852c0.48134,-0.79409 0.86999,-1.6504 1.23222,-2.49904c0.49998,-1.1117 0.86996,-2.25982 1.19355,-3.43908c0.07397,-0.22962 0.14801,-0.45926 0.09645,-0.69689c-0.20981,-0.19163 -0.45244,-0.32911 -0.77868,-0.47191zM263.2048,186.13949c0.1133,0.27916 0.27032,0.48615 0.41641,0.71116c0.11518,0.2043 0.28961,0.34674 0.51871,0.39896c0.42088,0.13016 0.82441,0.32482 1.18416,0.59172c0.03088,0.02073 0.08814,0.03379 0.1036,0.04416c0.101,-0.05914 0.14476,-0.13134 0.15314,-0.25269c-0.00449,-0.02841 -0.02446,-0.06721 -0.03993,-0.07758c-0.41512,-0.3548 -0.80832,-0.74571 -1.17969,-1.17269c-0.05083,-0.05953 -0.13256,-0.13977 -0.21625,-0.14515c-0.29088,-0.09369 -0.58176,-0.18739 -0.94023,-0.09788zM264.88066,188.78783c-0.38423,-0.33405 -0.73109,-0.69386 -1.05157,-1.06137c-0.1017,-0.11898 -0.22075,-0.17355 -0.37715,-0.20231c-0.24004,-0.03418 -0.4711,-0.01149 -0.71759,0.00075c-0.08366,-0.00538 -0.18275,-0.02112 -0.2175,0.10789c0.20788,0.26651 0.38942,0.54065 0.61913,0.77104c0.83467,0.12862 0.83467,0.12862 1.58698,0.6082c0.07915,-0.02301 0.13838,-0.08487 0.15768,-0.22424zM269.1008,185.37443c0.23426,0.25881 0.4795,0.49957 0.72467,0.74034c0.05083,0.05953 0.10169,0.11903 0.17439,0.14246c0.32368,0.03958 0.63647,0.09714 0.96855,0.01534c-0.05406,-0.34098 -0.25292,-0.55063 -0.40355,-0.80408c-0.07527,-0.12669 -0.17893,-0.17086 -0.31988,-0.18928c-0.33462,-0.0215 -0.64744,-0.07909 -0.96465,-0.16514c-0.01545,-0.01038 -0.05276,0.01533 -0.10551,0.03072c-0.01735,0.06451 -0.0457,0.14713 -0.07397,0.22964zM265.34621,182.49889c0.10492,0.40051 0.27096,0.66432 0.42609,0.94616c0.07079,0.09831 0.15894,0.13206 0.2471,0.16585c0.43635,0.14051 0.83986,0.33525 1.21505,0.61246c0.04632,0.03111 0.10359,0.04417 0.14994,0.07525c0.13578,-0.18816 0.14223,-0.23461 0.01863,-0.31754c-0.40162,-0.26957 -0.73302,-0.61901 -0.97888,-1.0379c-0.15061,-0.25343 -0.34689,-0.35982 -0.60237,-0.40435c-0.1519,-0.00041 -0.2774,-0.00849 -0.47559,-0.03993zM266.18697,186.66852c0.05469,-0.09024 0.0038,-0.14976 -0.05796,-0.19126c-0.43246,-0.29032 -0.76201,-0.71457 -1.09152,-1.1389c-0.27417,-0.33636 -0.67316,-0.50263 -1.17705,-0.45998c0.06241,0.21964 0.20596,0.34135 0.29025,0.52488c0.18408,0.37746 0.47753,0.57444 0.83021,0.70962c0.38355,0.15588 0.77805,0.29374 1.09601,0.55789c0.05727,0.01301 0.08369,0.00541 0.11004,-0.00231zM265.48339,183.88575c-0.27093,-0.05489 -0.5309,-0.12784 -0.8874,-0.11327c0.11971,0.23271 0.18855,0.40588 0.26839,0.56102c0.12425,0.2611 0.29863,0.40354 0.55863,0.47654c0.3591,0.0887 0.68991,0.25994 1.00974,0.44924c0.11905,0.05455 0.24261,0.13746 0.35072,0.21002c0.07016,-0.07987 0.03478,-0.12897 0.00386,-0.14976c-0.39326,-0.39089 -0.77551,-0.79983 -1.09859,-1.27062c-0.06629,-0.0699 -0.11712,-0.12939 -0.20529,-0.16315zM269.63552,184.1338c0.33723,0.12477 0.58243,0.36558 0.83857,0.58828c0.07722,0.05182 0.10619,0.14746 0.20529,0.16318c0.15643,0.02879 0.53479,-0.02189 0.79416,-0.1271c-0.07787,-0.23003 -0.24135,-0.39051 -0.36749,-0.57678c-0.10622,-0.14746 -0.24068,-0.21233 -0.41894,-0.20504c-0.30372,-0.00078 -0.58561,-0.03762 -0.86559,-0.14937c-0.01545,-0.01038 -0.06821,0.00503 -0.09457,0.01269c-0.05922,0.06183 -0.10295,0.13402 -0.09134,0.29416zM266.91371,190.99033c0.28185,0.03684 0.5335,0.23119 0.83276,0.2035c0.06114,-0.13671 0.01674,-0.24269 -0.00129,-0.35635c-0.047,-0.20928 -0.05214,-0.41585 -0.16735,-0.62014c-0.34365,-0.07838 -0.6307,-0.32177 -0.97884,-0.42849c-0.101,0.05914 -0.15574,0.14937 -0.17952,0.26035c0.19694,0.28454 0.35655,0.59479 0.49431,0.94115zM267.93807,187.61545c0.13258,0.13976 0.26516,0.27952 0.31856,0.44234c0.13127,0.39279 0.40484,0.55102 0.75488,0.58288c0.12545,0.00807 0.21814,0.07027 0.37648,0.02422c-0.04509,-0.28419 -0.13836,-0.52456 -0.23178,-0.76491c-0.02447,-0.0672 -0.08624,-0.10865 -0.1744,-0.14243c-0.27546,-0.08331 -0.52452,-0.17432 -0.79992,-0.25766c-0.04632,-0.03111 -0.13002,-0.03647 -0.24391,0.11563zM267.24888,188.75247c0.29606,0.30028 0.53932,0.61593 0.64423,1.01642c0.01351,0.08521 0.08625,0.10864 0.14802,0.1501c0.14995,0.07527 0.31086,0.13247 0.5155,0.1175c-0.06309,-0.39785 -0.18089,-0.70542 -0.31411,-1.02331c-0.04441,-0.10598 -0.11067,-0.17587 -0.21433,-0.22003c-0.19176,-0.07799 -0.37263,-0.17397 -0.56441,-0.25188c-0.01544,-0.01037 -0.06822,0.00502 -0.09458,0.01268c-0.03283,0.05413 -0.06566,0.1083 -0.12029,0.19853zM266.93442,181.6352c-0.19821,-0.03145 -0.41186,-0.07336 -0.61011,-0.10485c-0.02637,0.00765 -0.05278,0.01535 -0.10552,0.03072c0.01867,0.29185 0.13838,0.52455 0.26452,0.71078c0.55539,0.19505 1.07987,0.36935 1.60504,0.72186c-0.09398,-0.41856 -0.41768,-0.45805 -0.58565,-0.64695c-0.21433,-0.22003 -0.3913,-0.46575 -0.56827,-0.71149zM262.68091,186.14338c-0.29472,0.05604 -0.56763,0.07607 -0.82885,0.25613c0.06433,0.14477 0.0869,0.28683 0.14677,0.40318c0.05989,0.11633 0.10878,0.25074 0.21691,0.3233c0.17182,0.03914 0.34109,-0.02497 0.50388,-0.04263c0.1628,-0.01772 0.31921,0.01113 0.48393,-0.0814c-0.17059,-0.2922 -0.33661,-0.556 -0.5226,-0.8586zM264.21146,189.96359c-0.41964,-0.3832 -0.77296,-0.69652 -1.12625,-1.00984c-0.0309,-0.02074 -0.06628,-0.06992 -0.11904,-0.05454c-0.24648,0.01231 -0.50198,-0.03223 -0.75227,0.12978c0.17248,0.21734 0.32953,0.42431 0.49753,0.61322c0.49749,0.00386 0.96013,0.13669 1.50011,0.32137zM270.12555,187.48401c-0.00967,-0.23502 -0.14226,-0.37475 -0.22205,-0.5299c-0.0843,-0.18352 -0.20144,-0.31293 -0.41509,-0.3548c-0.28634,-0.06526 -0.57275,-0.13054 -0.79804,-0.33252c-0.10746,0.10563 -0.13579,0.18818 -0.04312,0.25037c0.22076,0.17354 0.45693,0.35751 0.59207,0.60055c0.20596,0.34139 0.52519,0.35253 0.88623,0.36632zM268.70266,189.0427c0.12036,0.41086 0.20084,0.74418 0.29222,1.05941c0.1081,0.07256 0.20273,0.05993 0.28635,0.06527c0.09458,-0.01267 0.20911,0.01341 0.31657,-0.09216c-0.0032,-0.28151 -0.04827,-0.5656 -0.11969,-0.84208c-0.23359,-0.08062 -0.46271,-0.13285 -0.77549,-0.19049zM271.17695,186.71726c-0.33012,0.00689 -0.61845,0.01653 -0.92216,0.01574c0.12424,0.26113 0.23301,0.5119 0.34179,0.76262c0.27737,0.00844 0.51745,0.04264 0.78769,-0.08068c-0.04055,-0.25572 -0.12938,-0.46769 -0.20726,-0.69769zM262.71171,184.94528c-0.03861,0.27879 0.12941,0.4677 0.21819,0.67967c0.02447,0.0672 0.11259,0.10101 0.18083,0.09599c0.2201,-0.00462 0.41382,-0.00153 0.61843,-0.01649c0.01545,0.01038 0.03736,-0.02576 0.05926,-0.06185c-0.13966,-0.2715 -0.30572,-0.53522 -0.44538,-0.80676c-0.20913,-0.01345 -0.42019,0.04798 -0.63129,0.10943zM264.86427,182.50541c-0.21367,-0.04184 -0.41186,-0.07335 -0.64034,0.05259c0.05151,0.23772 0.08113,0.51147 0.21178,0.72613c0.14093,0.01844 0.26,0.07293 0.3964,0.06297c0.12544,0.00807 0.23808,0.1091 0.38287,-0.02227c-0.11328,-0.27916 -0.22656,-0.55832 -0.3508,-0.81945zM271.40599,186.16012c0.18276,0.02108 0.35844,-0.08949 0.54956,-0.1897c-0.0978,-0.26882 -0.12748,-0.54257 -0.29991,-0.75991c-0.2111,0.06144 -0.43567,0.03764 -0.67958,0.15324c0.13965,0.2715 0.29024,0.52493 0.42993,0.7964zM270.06663,182.84901c0.26709,0.20466 0.59339,0.34746 0.83857,0.58829c0.20981,0.1916 0.40993,0.14819 0.66477,0.01457c-0.09333,-0.24032 -0.24135,-0.39051 -0.3939,-0.56905c-0.38932,0.06876 -0.73753,-0.03797 -1.10946,-0.03374zM263.38262,190.82914c0.02833,-0.08257 -0.01802,-0.11363 -0.06433,-0.14478c-0.18984,-0.15281 -0.40611,-0.29796 -0.58503,-0.46884c-0.24973,-0.26916 -0.51358,-0.19235 -0.82568,-0.07177c0.08625,0.10868 0.14162,0.19658 0.20788,0.26647c0.15256,0.17854 0.31145,0.31064 0.57983,0.26225c0.1628,-0.01771 0.3237,0.03956 0.46917,0.08636c0.05084,0.05952 0.10619,0.14743 0.21816,0.07029zM266.78123,192.06935c-0.00707,-0.13167 -0.03605,-0.22733 -0.04958,-0.31255c-0.01415,-0.26338 -0.12039,-0.41088 -0.32761,-0.49917c-0.1763,-0.06758 -0.33528,-0.1997 -0.5007,-0.2853c-0.04632,-0.03113 -0.08172,-0.08025 -0.17376,0.03572c0.16154,0.23543 0.30122,0.50685 0.40355,0.80408c0.02444,0.06719 0.10167,0.11902 0.16346,0.1605c0.14542,0.04684 0.27545,0.08335 0.48458,0.09677zM270.28576,187.97251c-0.1982,-0.03151 -0.40091,-0.09141 -0.61652,-0.05832c0.06053,0.2945 0.07919,0.58634 0.20339,0.84747c0.22012,-0.00461 0.40734,0.04493 0.62038,-0.09138c-0.05149,-0.23771 -0.07659,-0.48309 -0.20726,-0.69771zM264.43125,184.47448c-0.06056,-0.29451 -0.18027,-0.52722 -0.32184,-0.72377c-0.2201,0.00462 -0.41377,0.00155 -0.65125,0.07069c0.00517,0.20661 0.07404,0.37979 0.16929,0.54528c0.26643,0.02645 0.52191,0.07101 0.80381,0.1079zM270.02259,190.05559c0.17379,-0.03572 0.28378,-0.03802 0.40028,-0.08682c0.07916,-0.02306 0.14287,-0.05645 0.20662,-0.08987c0.03217,-0.23233 0.02249,-0.4673 -0.06634,-0.67929c-0.20913,-0.01345 -0.41828,-0.02682 -0.63581,0.08107c0.04055,0.2557 0.05023,0.49074 0.0953,0.77487zM265.11377,191.73724c0.06504,0.32293 0.10106,0.55023 0.15705,0.81634c0.05084,0.05952 0.16987,0.11406 0.29538,0.1221c0.11453,0.02612 0.20078,0.13476 0.34365,0.07831c0.0521,-0.19355 0.0405,-0.35365 -0.01291,-0.51647c-0.25808,-0.14781 -0.48974,-0.30336 -0.78319,-0.50033zM261.71621,185.9782c0.13197,-0.03842 0.26389,-0.07682 0.39578,-0.11519c0.13195,-0.0384 0.24839,-0.08719 0.38033,-0.12557c-0.0933,-0.24036 -0.1403,-0.44966 -0.2883,-0.59977c-0.12548,-0.00805 -0.22202,0.07949 -0.32307,0.13859c-0.101,0.05914 -0.24841,0.08721 -0.30951,0.22387c0.04251,0.18092 0.05406,0.34098 0.14484,0.47808zM271.46083,187.89795c-0.24196,0.04071 -0.48205,0.00653 -0.73688,0.1402c0.04701,0.20925 0.10494,0.40049 0.1519,0.60977c0.24198,-0.04072 0.44665,-0.05567 0.65511,-0.22042c-0.00069,-0.17816 0.0296,-0.33563 -0.07018,-0.52952zM262.5639,188.45151c-0.21235,-0.29493 -0.40481,-0.55104 -0.59723,-0.8071c-0.13645,0.00997 -0.26194,0.00191 -0.36939,0.10752c0.0496,0.31257 0.21111,0.54796 0.36172,0.80138c0.13647,-0.00999 0.27287,-0.01996 0.40478,-0.05836c0.07273,0.02346 0.11003,-0.00231 0.20011,-0.04336zM268.71049,190.57135c-0.23557,-0.00575 -0.42091,-0.13016 -0.63197,-0.06872c0.03415,0.3022 0.06378,0.57596 0.16159,0.84482c0.18473,-0.05379 0.33913,0.04992 0.54123,-0.06834c0.03215,-0.23229 -0.04121,-0.43394 -0.07083,-0.70771zM265.74519,181.44639c-0.251,-0.0161 -0.47557,-0.03994 -0.68217,0.04995c0.01609,0.18854 0.05859,0.36939 0.13842,0.52453c0.25098,0.01609 0.491,0.05028 0.77289,0.08714c-0.10423,-0.22229 -0.1622,-0.41353 -0.22912,-0.6616zM267.17575,192.20721c0.24455,0.06259 0.44727,0.12247 0.6802,0.02497c0.01025,-0.19621 0.02509,-0.36403 -0.05471,-0.51919c-0.22908,-0.05222 -0.44726,-0.12245 -0.71818,-0.17738c0.00968,0.23501 0.03028,0.45196 0.0927,0.6716zM263.99098,183.26496c-0.10876,-0.25074 -0.08113,-0.51151 -0.22916,-0.66164c-0.2201,0.00462 -0.4003,0.08679 -0.57596,0.19739c0.02061,0.21695 0.02575,0.42356 0.16283,0.59174c0.20011,-0.04338 0.38932,-0.06875 0.64227,-0.1275zM272.06953,186.42766c-0.18471,0.05377 -0.34752,0.07144 -0.50775,0.19243c0.09333,0.24032 0.0811,0.51149 0.23818,0.71845c0.17377,-0.0357 0.30121,-0.10252 0.41508,-0.2546c-0.03603,-0.22732 -0.09847,-0.44698 -0.1455,-0.65623zM261.7827,189.09505c-0.1892,0.02533 -0.30563,0.07414 -0.42861,0.16935c0.04699,0.20929 0.13579,0.42126 0.32114,0.54563c0.15833,-0.0461 0.31658,-0.09215 0.4904,-0.12786c-0.08238,-0.25843 -0.25678,-0.40086 -0.38293,-0.58712zM271.96509,182.54895c-0.14284,0.05642 -0.25936,0.10521 -0.3404,0.2031c0.08877,0.21194 0.19953,0.38783 0.34757,0.53795c0.14736,-0.02801 0.26383,-0.0768 0.3713,-0.18238c-0.07788,-0.23003 -0.25229,-0.37246 -0.37845,-0.55867zM271.03808,189.67091c0.25096,0.01613 0.35393,-0.11788 0.43696,-0.29068c0.07659,-0.1263 0.12227,-0.27341 0.03152,-0.4105c-0.1892,0.02533 -0.36294,0.06104 -0.53863,0.17163c0.01612,0.18854 0.04313,0.35902 0.07015,0.52953zM267.46401,180.79738c-0.17181,-0.03916 -0.29535,-0.12209 -0.44917,-0.04759c0.0438,0.5372 0.39196,0.64399 0.82569,0.68118c-0.13061,-0.21467 -0.24585,-0.41895 -0.37652,-0.63358zM269.66558,191.11087c0.03672,-0.2039 0.02507,-0.36402 -0.04828,-0.56562c-0.15379,0.07454 -0.31923,-0.01112 -0.4685,0.0918c-0.05023,0.11867 -0.01028,0.19622 -0.00772,0.29949c0.01802,0.11363 -0.00581,0.22463 0.10231,0.29723c0.13645,-0.00998 0.2729,-0.01997 0.42216,-0.12289zM266.37676,186.21197c0.213,-0.1363 0.24776,-0.26534 0.11968,-0.37666c-0.18984,-0.15283 -0.40159,-0.26958 -0.59789,-0.37589c-0.06176,-0.04147 -0.14996,-0.07523 -0.24647,0.01228c0.22332,0.27683 0.46853,0.51757 0.72464,0.74032zM272.72396,185.4197c0.11451,0.02611 0.20464,-0.01499 0.28576,-0.11291c-0.0296,-0.2738 -0.02187,-0.57332 -0.1725,-0.82674c-0.22394,0.1544 -0.29155,0.33755 -0.21365,0.56754c0.01802,0.11365 -0.00127,0.25309 0.10042,0.37211zM267.68814,183.68991c0.15316,-0.25264 0.15504,-0.32757 0.01607,-0.42085c-0.2272,-0.12708 -0.4698,-0.26458 -0.74075,-0.31945c0.19051,0.33102 0.37654,0.63357 0.72466,0.74029zM270.87802,182.04793c0.11258,0.10099 0.22077,0.17356 0.31792,0.26416c0.2053,0.16323 0.20531,0.16318 0.47945,-0.10981c-0.08627,-0.10866 -0.17698,-0.24578 -0.22782,-0.30524c-0.21109,0.06142 -0.38481,0.09716 -0.56951,0.15095zM262.30947,183.27877c0.01158,0.16014 -0.05594,0.3433 0.11395,0.45735c0.14286,-0.05644 0.28122,-0.14131 0.45044,-0.20545c-0.01608,-0.18856 -0.00576,-0.38476 -0.09654,-0.52183c-0.15381,0.07457 -0.31215,0.12059 -0.46789,0.26997zM271.43107,183.96791c0.14613,0.22499 0.2812,0.4681 0.42735,0.69308c0.09911,0.0157 0.19367,0.00308 0.22841,-0.12594c-0.04055,-0.25573 -0.13387,-0.49615 -0.30186,-0.68505c-0.13645,0.00997 -0.24197,0.04072 -0.35397,0.11793zM265.61391,181.05354c0.06114,-0.13671 0.05407,-0.26843 0.00514,-0.40282c-0.08368,-0.00539 -0.16731,-0.01076 -0.25099,-0.01611c-0.11003,0.00229 -0.20917,-0.01341 -0.30568,0.07415c-0.06565,0.10828 -0.08946,0.21924 -0.05594,0.34329c0.19374,0.00303 0.4138,-0.00156 0.60749,0.00153zM263.15,184.40153c-0.01608,-0.18856 -0.08047,-0.33333 -0.1712,-0.47041c-0.18019,0.08214 -0.3494,0.14632 -0.5032,0.22079c-0.04115,0.17552 0.00776,0.30988 0.08946,0.39015c0.20011,-0.04337 0.40026,-0.08679 0.58499,-0.1405zM266.53024,180.65299c-0.12547,-0.00807 -0.25097,-0.01612 -0.38743,-0.00614c-0.02637,0.00765 -0.04827,0.04379 -0.08564,0.06953c0.00255,0.10327 -0.03217,0.23233 0.05859,0.36939c0.15643,0.0288 0.33271,0.09634 0.53287,0.05297c0.01027,-0.19619 -0.03868,-0.33059 -0.11847,-0.48572zM268.43834,180.58805c-0.15895,-0.13209 -0.06952,-0.35137 -0.22399,-0.45502c-0.16728,-0.01072 -0.31723,-0.08604 -0.52832,-0.02457c0.00069,0.17816 0.01226,0.33832 0.18408,0.37742c0.17183,0.03916 0.29987,0.15049 0.56823,0.10215zM272.70971,183.9375c-0.06435,-0.14476 -0.11779,-0.30756 -0.16669,-0.44193c-0.00449,-0.0284 -0.04634,-0.03113 -0.07724,-0.05182c-0.08557,0.06949 -0.21751,0.10787 -0.2696,0.30146c0.06889,0.17315 0.15318,0.35673 0.2266,0.55832c0.13834,-0.08488 0.21944,-0.18278 0.28701,-0.36597zM262.01858,184.40387c-0.15834,0.04606 -0.33205,0.08177 -0.46396,0.1202c-0.0521,0.19355 -0.04056,0.35368 -0.01801,0.49573c0.1191,0.05451 0.21106,-0.06145 0.3012,-0.10255c0.09011,-0.04112 0.19563,-0.07181 0.25675,-0.20852c0.01286,-0.09293 0.0103,-0.19624 -0.07596,-0.30491zM268.24787,192.26671c0.1628,-0.01772 0.28383,-0.03803 0.40479,-0.05838c0.04183,0.00272 0.0901,-0.04108 0.11647,-0.04877c0.07659,-0.1263 0.06951,-0.25805 0.02057,-0.39244c-0.17826,0.00732 -0.3456,-0.00342 -0.53026,0.05028c-0.01929,0.13938 -0.01223,0.27111 -0.01155,0.44929zM271.15799,181.55027c-0.15701,-0.207 -0.31406,-0.41393 -0.56312,-0.50495c-0.05211,0.19353 -0.1242,0.34831 -0.05532,0.52148c0.31726,0.08605 0.31727,0.08603 0.61845,-0.0165zM270.0678,190.94918c0.47945,-0.1098 0.49034,-0.12786 0.53279,-0.55646c-0.1738,0.03573 -0.34298,0.09986 -0.51674,0.13551c-0.06113,0.13668 -0.05403,0.26838 -0.01609,0.42085zM264.60101,181.54154c-0.17828,0.00729 -0.32567,0.03538 -0.47497,0.13827c-0.00642,0.04646 -0.00837,0.12136 -0.0103,0.19625c0.00902,0.05684 0.03346,0.12404 0.04248,0.18082c0.17826,-0.00734 0.36105,0.01378 0.52579,-0.07875c0.01929,-0.13937 -0.01867,-0.29184 -0.08307,-0.43658zM266.86557,192.8623c0.00191,-0.07486 -0.00069,-0.17817 -0.03605,-0.22735c-0.13709,-0.16819 -0.31337,-0.23571 -0.55989,-0.22344c-0.00388,0.14978 -0.0605,0.31487 -0.00062,0.43123c0.1982,0.03149 0.37906,0.12744 0.59656,0.01957zM261.19507,187.91355c-0.02636,0.00764 -0.05275,0.01536 -0.10552,0.03072c-0.01864,0.31758 0.04187,0.61208 0.10241,0.90659c0.14092,0.01844 0.23103,-0.02269 0.33397,-0.15667c-0.10876,-0.25074 -0.20664,-0.51948 -0.33083,-0.78066zM266.44678,184.30398c0.16604,0.26378 0.30573,0.53525 0.57924,0.69349c0.01545,0.01038 0.09008,-0.04111 0.11196,-0.07718c0.05468,-0.09025 0.03664,-0.20389 -0.0406,-0.25566c-0.16796,-0.18893 -0.39065,-0.28761 -0.65061,-0.36057zM263.69935,181.77435c-0.14736,0.02801 -0.29475,0.05604 -0.43312,0.1409c-0.07658,0.12632 -0.10039,0.23729 -0.04699,0.40009c0.16927,-0.06415 0.35396,-0.11786 0.50774,-0.19236c0.03472,-0.12898 0.03214,-0.23229 -0.02773,-0.34865zM271.97763,188.37178c0.16859,-0.2423 0.31533,-0.44849 0.33846,-0.73763c-0.17182,-0.03914 -0.31016,0.04568 -0.44403,0.15897c0.00516,0.2066 0.0058,0.38474 0.10559,0.57869zM264.86289,192.93986c0.0058,-0.22465 0.0013,-0.25304 -0.04504,-0.28416c-0.14347,-0.12173 -0.33724,-0.12482 -0.5155,-0.1175c-0.06819,0.00499 -0.13835,0.08492 -0.0785,0.20123c0.20467,-0.01495 0.3617,0.19203 0.63905,0.20041zM261.74078,187.26422c-0.0978,-0.26881 -0.16929,-0.54528 -0.42093,-0.73954c-0.04501,0.32521 0.06378,0.576 0.14163,0.80597c0.08817,0.0338 0.15187,0.00038 0.27927,-0.06647zM269.18357,191.72679c-0.00835,0.12132 -0.03214,0.2323 -0.04049,0.35364c0.19375,0.0031 0.36746,-0.03266 0.44145,-0.26228c0.01737,-0.06451 0.03473,-0.12899 -0.01609,-0.18854c-0.11451,-0.02611 -0.23105,0.02267 -0.38483,0.09717zM268.26667,182.37707c0.09842,-0.16244 0.11135,-0.25533 -0.02317,-0.32022c-0.11908,-0.05453 -0.23811,-0.10906 -0.36813,-0.14552c-0.05725,-0.01302 -0.12552,-0.00806 -0.15381,0.07449c0.15254,0.17854 0.32242,0.29255 0.5451,0.39126zM263.80082,189.02782c0.15703,0.20702 0.33598,0.37784 0.56957,0.45848c0.01545,0.01038 0.09009,-0.04113 0.10099,-0.05916c0.02188,-0.03606 -0.00256,-0.1033 -0.03346,-0.12401c-0.21171,-0.11674 -0.37521,-0.27725 -0.63717,-0.27532zM263.80091,190.24661c-0.18728,-0.04953 -0.3572,-0.16359 -0.5927,-0.16938c0.1461,0.22498 0.29414,0.37513 0.41963,0.3832c0.11455,0.02611 0.15834,-0.04608 0.17308,-0.21388zM272.85335,186.4968c0.08491,-0.24769 0.23809,-0.5004 0.1293,-0.75114c-0.32044,0.24192 -0.21167,0.49266 -0.1293,0.75114zM269.8891,184.86264c0.02186,-0.03607 0.01739,-0.06458 0.03928,-0.10062c-0.16538,-0.08562 -0.26067,-0.25109 -0.45435,-0.25416c-0.08107,0.09792 -0.09844,0.16244 -0.05403,0.26842c0.14093,0.01843 0.29731,0.04723 0.46916,0.08637zM265.2519,186.77722c0.18343,0.19927 0.33147,0.3494 0.52774,0.45578c0.0309,0.02074 0.08363,0.00542 0.11646,-0.04876c0.01095,-0.01806 0.01739,-0.0645 0.01287,-0.09294c-0.15701,-0.207 -0.34239,-0.33136 -0.65707,-0.31409zM267.23688,192.67994c-0.03475,0.12899 -0.03667,0.20388 0.03156,0.19889c0.14093,0.01843 0.2928,0.01877 0.4447,0.01918c0.09458,-0.01267 0.12742,-0.06678 0.09844,-0.16243c-0.20273,-0.05994 -0.37457,-0.09908 -0.57468,-0.05567zM262.79524,182.51314c-0.00256,-0.1033 0.01025,-0.19622 0.0077,-0.29951c-0.00449,-0.02841 -0.03537,-0.04917 -0.07077,-0.09831c-0.13127,0.21654 -0.29791,0.38395 -0.37836,0.66007c0.16927,-0.06415 0.28575,-0.1129 0.44146,-0.26228zM266.8551,189.40214c0.16541,0.08564 0.31536,0.1609 0.51163,0.26726c-0.04509,-0.28418 -0.15126,-0.4316 -0.31663,-0.51723c-0.10103,0.05912 -0.1493,0.1029 -0.195,0.24997zM269.90378,183.47608c0.15191,0.00041 0.29987,0.15052 0.51289,0.01419c-0.33789,-0.30295 -0.4151,-0.35479 -0.50071,-0.28529c-0.05468,0.09025 -0.05663,0.16513 -0.01223,0.27111zM264.6264,187.88086c0.10039,0.37209 0.28578,0.49649 0.5612,0.57981c-0.03222,-0.3771 -0.33595,-0.37778 -0.5612,-0.57981zM268.07863,180.93056c0.09589,0.34364 0.26583,0.45773 0.47306,0.54605c0.01544,0.01036 0.05276,-0.01539 0.07464,-0.05145c0.03284,-0.05414 0.02378,-0.11097 -0.00707,-0.13168c-0.14349,-0.12173 -0.30887,-0.20735 -0.54058,-0.36287zM270.19728,182.45418c0.17181,0.03916 0.33724,0.12478 0.55467,0.01689c-0.12166,-0.15784 -0.27159,-0.23306 -0.40609,-0.29796c-0.11195,0.07717 -0.14026,0.15971 -0.14864,0.28105zM267.35134,180.08695c-0.2156,0.03303 -0.38547,-0.08101 -0.55667,0.05799c0.18344,0.19928 0.18342,0.19927 0.51998,0.14592c0.00642,-0.04646 0.01285,-0.09294 0.03669,-0.20389zM272.25417,185.76449c0.10678,-0.28378 0.04438,-0.5034 -0.04447,-0.71536c-0.12547,-0.00806 -0.16925,0.06413 -0.15574,0.14935c0.06888,0.17315 0.12681,0.36446 0.2002,0.56599zM264.56424,181.13607c0.05022,-0.11866 0.08946,-0.21925 0.02961,-0.33555c-0.12097,0.02036 -0.24201,0.04067 -0.32305,0.1386c-0.03925,0.1006 -0.04116,0.17548 -0.00124,0.25305c0.09912,0.01569 0.17826,-0.00727 0.29473,-0.05608zM268.68908,187.12934c-0.09072,-0.13706 -0.16155,-0.23542 -0.27611,-0.2615c-0.04183,-0.00272 -0.07915,0.02301 -0.11647,0.04876c-0.03283,0.05413 -0.04571,0.14708 0.01158,0.16013c0.0927,0.06221 0.20082,0.13478 0.38103,0.0526zM261.86602,183.6159c-0.14481,0.13133 -0.15508,0.32756 -0.21168,0.49267c0.33208,-0.0818 0.35394,-0.11792 0.21168,-0.49267zM263.17283,191.24692c-0.18793,-0.22772 -0.18792,-0.22769 -0.37908,-0.12746c0.07079,0.09829 0.15707,0.20699 0.37908,0.12746zM268.93926,185.74846c-0.09009,0.04114 -0.12291,0.09522 -0.10297,0.13398c0.06891,0.17316 0.12615,0.18624 0.36361,0.11711c-0.07526,-0.12671 -0.16797,-0.18898 -0.26064,-0.25114zM268.66164,180.2556c0.02258,0.14211 0.05602,0.26611 0.18596,0.30258c0.12864,-0.31987 0.10876,-0.35861 -0.18596,-0.30258zM262.40259,191.26308c0.04249,0.1809 0.15509,0.28186 0.25226,0.37245c0.06176,0.04148 0.14095,0.01845 0.14484,-0.13133c-0.09719,-0.09057 -0.20982,-0.19163 -0.39707,-0.24114zM266.10801,180.1665c0.13258,0.13975 0.24263,0.13751 0.36107,0.01382c0,0 0.00644,-0.04646 -0.00902,-0.05684c-0.08173,-0.08026 -0.20913,-0.01346 -0.35206,0.04298zM267.83257,188.25554c0.03473,-0.12899 -0.00519,-0.20661 -0.07788,-0.23c-0.03091,-0.02072 -0.08367,-0.00537 -0.12098,0.02033c-0.03731,0.02575 -0.03923,0.10059 -0.00833,0.12131c0.0354,0.04918 0.09716,0.09061 0.2072,0.08832zM263.61445,181.41258c0.1519,0.00041 0.24198,-0.04067 0.2677,-0.22654c-0.17828,0.00732 -0.25291,0.05874 -0.2677,0.22654z" fill="#000000"/><path d="M273.13809,192.12145c0.3655,-0.56714 0.73104,-1.13434 1.08106,-1.71188c0.39382,-0.64973 0.72581,-1.3409 0.96969,-2.06587c0.07398,-0.22964 0.09522,-0.44387 0.16472,-0.70189c0.24715,0.16592 0.47433,0.29293 0.6796,0.45615c1.25367,0.94308 2.57746,1.80624 3.86847,2.72356c1.15197,0.82404 2.29945,1.61963 3.4624,2.4256c0.79225,0.55714 1.56902,1.10397 2.36122,1.66113c0.74592,0.52606 1.49821,1.00564 2.24413,1.53165c0.06179,0.04149 0.12355,0.08296 0.17442,0.14245c0.01677,0.3667 -0.07012,0.68926 -0.19427,1.03752c-0.20268,0.54952 -0.4472,1.09629 -0.76893,1.59125c-0.09842,0.16244 -0.18144,0.33525 -0.34617,0.42776c0.06756,-0.18316 0.22327,-0.33251 0.2664,-0.5829c-0.32367,-0.03958 -0.55343,-0.26994 -0.81152,-0.41778c-0.01545,-0.01038 -0.03086,-0.02074 -0.04181,-0.00269c-0.50453,-0.13558 -0.95246,-0.43622 -1.43964,-0.63628c-0.17631,-0.06758 -0.3855,-0.08099 -0.51807,-0.22074c-0.28704,-0.24348 -0.67895,-0.27798 -0.96602,-0.52145c-0.01544,-0.01036 -0.05727,-0.01304 -0.08817,-0.0338c-0.32627,-0.14282 -0.64803,-0.25727 -0.95244,-0.43619c-0.33983,-0.22807 -0.73626,-0.29106 -1.05417,-0.55522c-0.26641,-0.02649 -0.44534,-0.1974 -0.6725,-0.32448c-0.0309,-0.02074 -0.04636,-0.03112 -0.07724,-0.05183c-0.39644,-0.06296 -0.67704,-0.35285 -1.02972,-0.48804c-0.35264,-0.13517 -0.65513,-0.38895 -0.99688,-0.54216c-0.3881,-0.18433 -0.79353,-0.30405 -1.13137,-0.60707c-0.0309,-0.02074 -0.07723,-0.05186 -0.11905,-0.05453c-0.23555,-0.00572 -0.38809,-0.18431 -0.58434,-0.29071c-0.09268,-0.06221 -0.18983,-0.15284 -0.3044,-0.17893c-0.18274,-0.02114 -0.29536,-0.1221 -0.4344,-0.21541c-0.07723,-0.05183 -0.14352,-0.12173 -0.22716,-0.12709c-0.26643,-0.02645 -0.46078,-0.20771 -0.66157,-0.3425c-0.07724,-0.05185 -0.14352,-0.12171 -0.22719,-0.12712c-0.22458,-0.02383 -0.38355,-0.15588 -0.55347,-0.26996c-0.27806,-0.18661 -0.6326,-0.24691 -0.89967,-0.45155c-0.0354,-0.04913 -0.11455,-0.02615 -0.17182,-0.03916z" fill="#87d7dc"/><path d="M273.13818,192.12146c0.05727,0.01308 0.13644,-0.00998 0.18277,0.02109c0.26709,0.20465 0.61073,0.28298 0.89969,0.45154c0.16989,0.11406 0.3289,0.24615 0.55349,0.26997c0.08367,0.00536 0.14993,0.07527 0.22716,0.12704c0.2008,0.13476 0.40608,0.29798 0.66156,0.34254c0.08367,0.00538 0.13902,0.0933 0.22717,0.12707c0.13901,0.09329 0.2626,0.17625 0.43441,0.21543c0.11451,0.02611 0.21174,0.11677 0.30442,0.17894c0.19628,0.10634 0.34884,0.28493 0.58436,0.29067c0.04185,0.00272 0.08819,0.03381 0.11905,0.05453c0.32244,0.29259 0.74335,0.42279 1.13139,0.60707c0.35719,0.16358 0.65964,0.4174 0.99686,0.54219c0.35263,0.13514 0.63329,0.42505 1.02969,0.48804c0.02636,-0.00764 0.04633,0.03114 0.07723,0.05185c0.2008,0.13476 0.4061,0.29794 0.67254,0.32447c0.30698,0.28225 0.70341,0.34517 1.05413,0.55524c0.29346,0.19696 0.62619,0.29334 0.95245,0.43621c0.0309,0.02074 0.05732,0.01304 0.08819,0.03379c0.28704,0.24348 0.67895,0.27798 0.96602,0.52145c0.15895,0.13207 0.35267,0.13519 0.51805,0.22076c0.47622,0.2181 0.93511,0.50071 1.43962,0.63628c0.01545,0.01038 0.04185,0.00267 0.04185,0.00267c0.25808,0.14782 0.48784,0.37826 0.81155,0.41777c-0.03217,0.23231 -0.20338,0.37132 -0.26641,0.58292c-0.0875,0.14437 -0.17504,0.28871 -0.34432,0.35287c-0.0927,-0.06221 -0.18982,-0.15282 -0.30437,-0.1789c-0.40092,-0.09137 -0.71437,-0.32716 -1.06059,-0.5088c-0.34619,-0.1816 -0.74718,-0.27299 -1.05415,-0.55521c-0.26643,-0.02645 -0.44537,-0.19735 -0.67252,-0.32446c-0.03091,-0.02072 -0.07723,-0.05182 -0.1191,-0.05451c-0.19374,-0.00309 -0.32625,-0.14283 -0.47626,-0.21812c-0.07724,-0.05184 -0.15448,-0.10362 -0.22716,-0.12709c-0.39451,-0.13786 -0.79351,-0.30407 -1.14875,-0.54255c-0.04632,-0.03113 -0.09719,-0.09067 -0.14995,-0.07525c-0.20912,-0.01343 -0.35267,-0.13514 -0.50713,-0.23883c-0.15895,-0.13207 -0.39,-0.10942 -0.56439,-0.25191c-0.23617,-0.18395 -0.52257,-0.24918 -0.79156,-0.37898c-0.36169,-0.19198 -0.75166,-0.30141 -1.1069,-0.53988c-0.06178,-0.04149 -0.12809,-0.11135 -0.19628,-0.10635c-0.16729,-0.01079 -0.29538,-0.12207 -0.44533,-0.19736c-0.12356,-0.08293 -0.25805,-0.14783 -0.38806,-0.18435c-0.24453,-0.06261 -0.4672,-0.16128 -0.68346,-0.30636c-0.33528,-0.19969 -0.73626,-0.29105 -1.04322,-0.57326c-0.0309,-0.02074 -0.08814,-0.03383 -0.11906,-0.05455c-0.35722,-0.16359 -0.7253,-0.30907 -1.06055,-0.50879c-0.33981,-0.22804 -0.76714,-0.31179 -1.08505,-0.57597c-0.04633,-0.03114 -0.11454,-0.02609 -0.17181,-0.03916c-0.22265,-0.09869 -0.44985,-0.22575 -0.61783,-0.4147c0.03929,-0.10061 0.08298,-0.1728 0.11136,-0.25535c0.19952,-0.22158 0.36165,-0.41741 0.51932,-0.64167z" fill="#b0eef2"/><path d="M269.46216,180.08192c0.32624,0.14282 0.5689,0.28034 0.75683,0.50803c0.03605,0.22733 -0.03791,0.45697 -0.09646,0.69692c-0.33909,1.16884 -0.69361,2.32736 -1.19356,3.43904c-0.37774,0.83827 -0.76636,1.69462 -1.23222,2.49905c-0.13127,0.21656 -0.28891,0.44083 -0.3739,0.68851c-0.03925,0.10061 -0.10489,0.20888 -0.17053,0.31716c-0.32434,0.39168 -0.55597,0.84554 -0.83396,1.26836c-0.3874,0.6033 -0.83654,1.16508 -1.31659,1.70608c-0.24774,0.26535 -0.48005,0.54107 -0.72329,0.83484c-0.18404,0.23187 -0.40797,0.38628 -0.61649,0.55105c-0.35461,-0.0603 -0.47362,-0.11479 -0.82244,-0.39972c0.25605,-0.38667 0.5785,-0.70349 0.86549,-1.06941c0.27606,-0.3479 0.56305,-0.71384 0.82368,-1.07212c0.27158,-0.3763 0.53862,-0.78107 0.79473,-1.16774c0.26061,-0.35825 0.43947,-0.79679 0.74646,-1.12399c0.16344,-0.44892 0.45044,-0.81483 0.67566,-1.22226c0.21429,-0.38937 0.42405,-0.80715 0.62289,-1.2069c0.20979,-0.4178 0.40409,-0.84594 0.60939,-1.29216c0.18338,-0.41008 0.39318,-0.82789 0.5611,-1.2484c0.17886,-0.43851 0.31594,-0.87972 0.47941,-1.32864c0.17435,-0.46693 0.34232,-0.88739 0.44396,-1.37778z" fill="#d1eaeb"/><path d="M272.64527,192.75538c-0.02832,0.08257 -0.07206,0.15474 -0.1113,0.25535c0.16799,0.18892 0.36877,0.32368 0.61783,0.41468c0.05728,0.01308 0.12548,0.00805 0.17181,0.03916c0.3179,0.26418 0.73434,0.36593 1.08505,0.57599c0.32437,0.21771 0.70339,0.34518 1.06057,0.50882c0.03091,0.02072 0.08819,0.0338 0.11906,0.05453c0.30695,0.28224 0.70338,0.34519 1.0432,0.5733c0.2008,0.13474 0.43892,0.24382 0.6835,0.30638c0.1454,0.04683 0.27994,0.11171 0.38808,0.18431c0.13901,0.09329 0.25163,0.19429 0.44534,0.19736c0.06817,-0.00497 0.13451,0.06491 0.19629,0.1064c0.33983,0.22807 0.74524,0.34784 1.10691,0.53986c0.269,0.12982 0.5554,0.19504 0.79155,0.37899c0.15895,0.13207 0.38999,0.10943 0.56439,0.25191c0.14353,0.12172 0.30246,0.25382 0.50711,0.23886c0.05728,0.01308 0.10359,0.04415 0.14994,0.07525c0.35525,0.23846 0.73878,0.39436 1.14876,0.54254c0.08815,0.03379 0.15443,0.10363 0.22714,0.12707c0.13899,0.09329 0.28255,0.21499 0.47622,0.21806c0.04183,0.0027 0.08817,0.03381 0.11905,0.05454c0.2008,0.13476 0.40611,0.29794 0.67252,0.32447c0.30695,0.28224 0.70791,0.3736 1.05414,0.5552c0.3462,0.18161 0.67509,0.42774 1.06054,0.50879c0.11451,0.02611 0.21174,0.11675 0.30442,0.17892c-0.08301,0.17282 -0.2413,0.21886 -0.3333,0.33486c-0.7034,-0.34518 -1.38688,-0.65161 -2.05939,-0.97607c-0.74524,-0.34791 -1.4641,-0.70343 -2.1984,-1.06934c-0.68795,-0.33481 -1.38691,-0.65158 -2.08576,-0.96838c-0.8643,-0.40242 -1.7241,-0.77637 -2.57294,-1.1684c-0.64166,-0.30372 -1.28328,-0.60749 -1.93583,-0.89313c-0.9988,-0.46728 -1.96934,-1.01713 -2.98999,-1.44832c-0.13451,-0.06486 -0.29089,-0.09369 -0.39708,-0.24113c0.09842,-0.16244 0.24322,-0.29376 0.37259,-0.43546c0.08557,-0.06949 0.15314,-0.25268 0.31789,-0.34524z" fill="#87d7dc"/><path d="M287.43933,199.5371c0.19883,-0.39975 0.44849,-0.73997 0.63187,-1.15007c0.20076,-0.47463 0.38605,-0.95961 0.47872,-1.50678c0.89586,0.60132 1.77626,1.19224 2.6412,1.77282c0.04961,0.31259 -0.03087,0.58864 -0.08491,0.85706c-0.11259,0.50842 -0.33329,0.94425 -0.56495,1.39813c-0.01094,0.01806 -0.04825,0.04375 -0.07465,0.05146c0.00581,-0.22466 -0.15058,-0.25341 -0.29607,-0.30027c-0.36362,-0.11709 -0.71628,-0.25225 -1.01424,-0.47766c-0.06177,-0.04149 -0.12355,-0.08295 -0.19628,-0.10634c-0.35912,-0.08867 -0.65706,-0.31409 -0.98337,-0.45689c-0.19178,-0.07801 -0.33721,-0.12473 -0.53734,-0.0814z" fill="#61afb4"/><path d="M270.42686,191.64731c0.47554,-0.56946 0.84296,-1.2115 1.27215,-1.81207c0.19045,-0.27838 0.33459,-0.58793 0.47875,-0.89742c0.29731,-0.56218 0.66728,-1.10089 0.90276,-1.70457c0.10039,-0.23729 0.20079,-0.47462 0.2748,-0.70423c0.04568,-0.14709 0.10677,-0.28378 0.18339,-0.4101c0.05725,0.01302 0.09911,0.01575 0.13,0.03652c0.12355,0.08293 0.24714,0.16586 0.37071,0.24877c-0.00835,0.12132 -0.02126,0.21427 -0.04504,0.32524c-0.20845,0.7741 -0.42786,1.56632 -0.85451,2.27019c-0.35651,0.62402 -0.72388,1.266 -1.14215,1.84857c-0.32626,0.46659 -0.63708,0.94349 -1.07592,1.30907c0.02377,-0.11097 0.13577,-0.18815 0.08685,-0.32255c-0.14805,-0.15011 -0.316,-0.33905 -0.58178,-0.18737z" fill="#61aeb3"/><path d="M271.72425,191.90874c0.15507,-0.32755 0.4228,-0.55408 0.62419,-0.85056c0.40927,-0.63938 0.81855,-1.27872 1.18144,-1.94916c0.28635,-0.54409 0.49995,-1.11169 0.67177,-1.68191c0.0457,-0.14708 0.09137,-0.29411 0.13703,-0.4412c0.21625,0.14514 0.4016,0.26951 0.6024,0.40432c0.05406,0.34097 -0.03283,0.66352 -0.16148,0.98341c-0.14604,0.38439 -0.30305,0.78678 -0.50639,1.15813c-0.43051,0.85363 -0.94272,1.627 -1.45041,2.42877c-0.0875,0.14437 -0.175,0.28879 -0.32881,0.36328c-0.07724,-0.05185 -0.14354,-0.1217 -0.22717,-0.12708c-0.1982,-0.03148 -0.37265,-0.17396 -0.54251,-0.28798z" fill="#61aeb3"/><path d="M287.43931,199.53712c0.17379,-0.03572 0.33012,-0.00689 0.49554,0.07872c0.32625,0.14281 0.62425,0.36825 0.98337,0.45691c0.07273,0.02344 0.13455,0.06488 0.19628,0.10636c0.32437,0.2177 0.66158,0.34253 1.01423,0.47765c0.12999,0.0365 0.30184,0.0756 0.29606,0.30028c-0.14865,0.28108 -0.33267,0.51303 -0.55209,0.69582c-0.24909,-0.091 -0.50907,-0.16395 -0.70341,-0.34518c-0.03091,-0.02072 -0.08818,-0.0338 -0.11909,-0.05451c-0.34172,-0.15319 -0.69892,-0.31678 -1.0297,-0.48805c-0.14994,-0.07525 -0.27352,-0.15821 -0.43441,-0.21542c-0.20271,-0.05994 -0.399,-0.16628 -0.51422,-0.37054c0.03927,-0.1006 0.08299,-0.17278 0.11134,-0.25533c0.07659,-0.12632 0.17955,-0.26037 0.25608,-0.3867z" fill="#87d7dc"/><path d="M263.2048,186.13949c0.34753,-0.07143 0.6493,0.00416 0.94023,0.09791c0.07273,0.02342 0.16541,0.08564 0.21625,0.14515c0.36043,0.44505 0.76456,0.81792 1.17968,1.17269c0.01545,0.01038 0.03539,0.04914 0.03993,0.07756c0.00258,0.1033 -0.05209,0.19356 -0.15312,0.25267c-0.0309,-0.02074 -0.07275,-0.0234 -0.10364,-0.04415c-0.3597,-0.2669 -0.75232,-0.47963 -1.18413,-0.59173c-0.21816,-0.07027 -0.38809,-0.18433 -0.51875,-0.39896c-0.13511,-0.24305 -0.30312,-0.43196 -0.41644,-0.71115z" fill="#cce5e6"/><path d="M264.88066,188.78783c-0.01929,0.13937 -0.0785,0.2012 -0.15766,0.22423c-0.76326,-0.46154 -0.76326,-0.46153 -1.58698,-0.60823c-0.24073,-0.21234 -0.42671,-0.51492 -0.6191,-0.77105c0.04568,-0.14709 0.14928,-0.10289 0.21751,-0.10788c0.24646,-0.01229 0.47749,-0.03495 0.71758,-0.00077c0.15643,0.02879 0.27546,0.08337 0.3771,0.20235c0.32054,0.3675 0.66739,0.72725 1.05159,1.06134z" fill="#cce5e6"/><path d="M287.17231,199.94186c-0.02833,0.08257 -0.07208,0.15479 -0.11134,0.25535c0.11519,0.20428 0.31146,0.31065 0.51423,0.37053c0.1609,0.0572 0.28444,0.14012 0.43441,0.21542c0.33081,0.17123 0.68796,0.33483 1.0297,0.48805c0.0309,0.02074 0.08819,0.03379 0.11906,0.05453c0.22076,0.17353 0.46528,0.23616 0.70338,0.34519c-0.1184,0.12365 -0.22588,0.22928 -0.40607,0.31145c-0.46529,-0.23613 -0.96797,-0.44657 -1.43774,-0.71111c-0.4653,-0.23616 -0.97433,-0.40012 -1.43773,-0.71113c0.19045,-0.27838 0.38352,-0.4535 0.59197,-0.61827z" fill="#60adb2"/><path d="M269.10083,185.37445c0.0283,-0.08254 0.04571,-0.1471 0.07402,-0.22963c0.05279,-0.01537 0.07915,-0.02303 0.10551,-0.0307c0.30631,0.10406 0.63006,0.1436 0.96466,0.16512c0.14093,0.01843 0.24457,0.0626 0.31986,0.1893c0.16154,0.23542 0.36041,0.44501 0.40355,0.80406c-0.33204,0.08178 -0.65577,0.04223 -0.96851,-0.01535c-0.05725,-0.01302 -0.12355,-0.08297 -0.1744,-0.14244c-0.24521,-0.2407 -0.49046,-0.48153 -0.72467,-0.74035z" fill="#cce5e6"/><path d="M265.34626,182.49884c0.19819,0.03146 0.32369,0.03956 0.46465,0.058c0.25549,0.04457 0.45177,0.15091 0.60238,0.40433c0.27221,0.41122 0.59275,0.77869 0.97889,1.03789c0.12355,0.08295 0.12805,0.11135 -0.01864,0.31758c-0.04633,-0.03113 -0.10361,-0.04414 -0.14996,-0.07528c-0.3752,-0.2772 -0.77873,-0.47193 -1.21505,-0.61242c-0.10361,-0.04417 -0.19177,-0.07794 -0.24716,-0.16584c-0.14419,-0.29989 -0.3102,-0.5637 -0.4151,-0.96423z" fill="#cae2e3"/><path d="M266.18692,186.66853c-0.02636,0.00764 -0.06826,0.00501 -0.08367,-0.00538c-0.33334,-0.27455 -0.71691,-0.43042 -1.096,-0.55795c-0.35263,-0.13514 -0.64616,-0.33211 -0.83017,-0.7096c-0.0843,-0.18352 -0.24328,-0.31559 -0.29024,-0.52493c0.49936,-0.07106 0.91383,0.1056 1.17705,0.45999c0.32953,0.42431 0.63264,0.85626 1.09151,1.1389c0.03541,0.04915 0.09716,0.09065 0.03156,0.19892z" fill="#c9e1e2"/><path d="M264.59594,183.77251c0.35652,-0.0146 0.6165,0.05834 0.89193,0.14168c0.08817,0.0338 0.16541,0.08564 0.2053,0.16324c0.33403,0.45272 0.70538,0.87969 1.09859,1.2706c0.0309,0.02074 0.0663,0.06985 -0.00386,0.14976c-0.1081,-0.07256 -0.23168,-0.15549 -0.35074,-0.21004c-0.31983,-0.18931 -0.65063,-0.36054 -1.00974,-0.44923c-0.26002,-0.07294 -0.44986,-0.22578 -0.55862,-0.47654c-0.08431,-0.18355 -0.15322,-0.3567 -0.2729,-0.58943z" fill="#c9e1e2"/><path d="M269.6355,184.1338c-0.01156,-0.16014 0.04311,-0.2504 0.09781,-0.3406c0.02637,-0.00765 0.06824,-0.00499 0.09458,-0.01265c0.26901,0.1298 0.56635,0.17702 0.86558,0.14934c0.17825,-0.00729 0.31276,0.0576 0.41896,0.20506c0.12614,0.1862 0.27868,0.36476 0.36752,0.57673c-0.25933,0.10522 -0.64872,0.174 -0.79416,0.12712c-0.09912,-0.01569 -0.13901,-0.09328 -0.2053,-0.16321c-0.27351,-0.1582 -0.50783,-0.41699 -0.84497,-0.54178z" fill="#cae3e4"/><path d="M266.91378,190.99035c-0.13775,-0.34635 -0.30828,-0.63855 -0.50523,-0.92311c0.03472,-0.12898 0.0785,-0.20124 0.17954,-0.26038c0.3327,0.09636 0.63518,0.35022 0.97886,0.42854c0.11517,0.20429 0.12036,0.41086 0.16737,0.62012c0.01802,0.11363 0.06243,0.21959 0.00131,0.35632c-0.28831,0.0096 -0.52449,-0.17433 -0.82182,-0.22154z" fill="#c8e0e1"/><path d="M267.93807,187.61543c0.11389,-0.15206 0.18662,-0.12864 0.25932,-0.10521c0.27546,0.08331 0.5354,0.15627 0.79992,0.25761c0.07273,0.02343 0.13452,0.06489 0.17445,0.14246c0.09331,0.24038 0.1757,0.49881 0.23172,0.76489c-0.14736,0.02801 -0.25098,-0.01613 -0.37648,-0.0242c-0.37645,-0.02419 -0.64998,-0.18237 -0.75491,-0.58286c-0.05793,-0.19124 -0.19051,-0.33102 -0.33403,-0.45271z" fill="#cbe4e5"/><path d="M267.24897,188.75247c0.05469,-0.09025 0.08748,-0.14439 0.12032,-0.19852c0.04183,0.00271 0.07915,-0.02301 0.09458,-0.01268c0.19176,0.07799 0.37265,0.17396 0.56442,0.25189c0.10362,0.04419 0.1699,0.11405 0.21432,0.22002c0.13324,0.31794 0.24005,0.64357 0.31408,1.02336c-0.21556,0.03307 -0.36551,-0.04223 -0.51548,-0.11749c-0.06176,-0.04145 -0.12356,-0.08297 -0.14803,-0.15011c-0.10495,-0.4005 -0.34818,-0.71617 -0.64423,-1.01643z" fill="#c8e0e1"/><path d="M271.72425,191.90874c0.16988,0.11404 0.34431,0.25654 0.56894,0.28031c0.08367,0.00538 0.14991,0.07528 0.22715,0.12709c-0.17053,0.31717 -0.39186,0.57486 -0.66409,0.77298c-0.19435,-0.18123 -0.45433,-0.2542 -0.66157,-0.34251c-0.00069,-0.17816 0.12227,-0.27341 0.15698,-0.40241c0.08301,-0.17282 0.20788,-0.34293 0.37259,-0.43547z" fill="#85d5d9"/><path d="M266.93447,181.63522c0.177,0.24576 0.35398,0.49148 0.55735,0.72958c0.18343,0.1993 0.51806,0.22077 0.58564,0.64701c-0.52517,-0.35246 -1.06509,-0.53718 -1.60502,-0.72186c-0.11517,-0.20429 -0.23491,-0.43696 -0.26452,-0.71078c0.05279,-0.01537 0.07916,-0.02301 0.10553,-0.03071c0.20913,0.01344 0.40737,0.04492 0.62098,0.08674z" fill="#c6dede"/><path d="M262.68093,186.14333c0.18599,0.30262 0.35204,0.56635 0.53806,0.86895c-0.18019,0.08214 -0.33658,0.0534 -0.48393,0.08141c-0.1628,0.01771 -0.33209,0.08179 -0.50391,0.04264c-0.1081,-0.07256 -0.15705,-0.20697 -0.2169,-0.3233c-0.05988,-0.11632 -0.10876,-0.25075 -0.14674,-0.40319c0.24582,-0.19046 0.5187,-0.21041 0.81344,-0.26651z" fill="#cae3e3"/><path d="M264.21146,189.96359c-0.53999,-0.18469 -1.00267,-0.31753 -1.51554,-0.33171c-0.15704,-0.20701 -0.32501,-0.39591 -0.49748,-0.61323c0.2658,-0.1517 0.50582,-0.11754 0.75226,-0.12981c0.04182,0.0027 0.08817,0.03382 0.11903,0.05453c0.3533,0.31333 0.70666,0.62668 1.14171,1.02021z" fill="#cae3e4"/><path d="M270.12546,187.48403c-0.35652,0.01461 -0.67572,0.00349 -0.88617,-0.36629c-0.15061,-0.25343 -0.37135,-0.42699 -0.59209,-0.60054c-0.09268,-0.06221 -0.05344,-0.16279 0.04311,-0.25035c0.22527,0.20192 0.51164,0.26723 0.79804,0.33251c0.21364,0.04183 0.33079,0.17121 0.41513,0.35479c0.07982,0.15512 0.19694,0.28454 0.22203,0.52994z" fill="#c8e0e1"/><path d="M270.42686,191.64728c0.28124,-0.14133 0.43373,0.03726 0.60814,0.17969c0.04889,0.13436 -0.04758,0.22192 -0.08682,0.3225c-0.15765,0.22423 -0.35073,0.39934 -0.57467,0.55373c-0.15895,-0.13207 -0.37259,-0.17396 -0.47238,-0.36784c0.03929,-0.10061 0.07208,-0.15477 0.11583,-0.22696c0.14028,-0.15977 0.28054,-0.31949 0.40991,-0.4612z" fill="#85d4d9"/><path d="M268.70266,189.0427c0.2973,0.04722 0.54185,0.10979 0.79735,0.15434c0.07144,0.27648 0.11653,0.56061 0.1197,0.84209c-0.10748,0.10563 -0.22202,0.07949 -0.31661,0.09215c-0.09458,0.01267 -0.18918,0.02533 -0.28634,-0.06529c-0.0978,-0.26882 -0.19373,-0.61243 -0.31411,-1.02331z" fill="#c7dfe0"/><path d="M271.17704,186.71726c0.07788,0.23003 0.16666,0.44197 0.19634,0.71575c-0.27029,0.1233 -0.51029,0.08909 -0.78767,0.08067c-0.10876,-0.25074 -0.21756,-0.50147 -0.34177,-0.76261c0.32562,-0.03532 0.60304,-0.0269 0.93313,-0.03381z" fill="#c8e0e1"/><path d="M262.71171,184.94528c0.21114,-0.06145 0.42216,-0.12285 0.64676,-0.09907c0.15061,0.25343 0.29027,0.52492 0.44536,0.80675c-0.02188,0.03606 -0.04374,0.07215 -0.05921,0.0618c-0.20464,0.01497 -0.42471,0.0196 -0.61842,0.01654c-0.08367,-0.00538 -0.15642,-0.0288 -0.18085,-0.09596c-0.11969,-0.2327 -0.27223,-0.41125 -0.23364,-0.69006z" fill="#c4dcdd"/><path d="M264.86422,182.50541c0.11328,0.27916 0.23749,0.54026 0.35077,0.81944c-0.13384,0.11324 -0.25738,0.0303 -0.3829,0.02226c-0.12547,-0.00806 -0.25551,-0.04454 -0.39642,-0.06297c-0.13064,-0.21464 -0.14475,-0.47808 -0.21173,-0.72615c0.22839,-0.12593 0.42665,-0.09446 0.64029,-0.05258z" fill="#c8e0e1"/><path d="M271.40599,186.16012c-0.13965,-0.2715 -0.27481,-0.51459 -0.42993,-0.79642c0.23297,-0.09755 0.45757,-0.0737 0.67961,-0.15323c0.17245,0.21734 0.2021,0.49114 0.29991,0.75991c-0.20204,0.11827 -0.36679,0.21083 -0.54955,0.18968z" fill="#c6ddde"/><path d="M270.06663,182.84898c0.37197,-0.00423 0.72013,0.1025 1.09402,0.02339c0.15254,0.17854 0.30055,0.32873 0.39388,0.56907c-0.23938,0.14398 -0.45502,0.17704 -0.66479,-0.01456c-0.24517,-0.24075 -0.5451,-0.39127 -0.82314,-0.57789z" fill="#b9cfd0"/><path d="M263.38262,190.82914c-0.11195,0.07716 -0.15641,-0.02877 -0.22909,-0.0522c-0.16089,-0.05723 -0.31082,-0.13246 -0.46916,-0.08637c-0.25742,0.03033 -0.41638,-0.1017 -0.57983,-0.26226c-0.06629,-0.06991 -0.12166,-0.15785 -0.20788,-0.26649c0.31213,-0.12061 0.57598,-0.19736 0.82566,0.07179c0.16799,0.1889 0.39515,0.31604 0.585,0.46883c0.04632,0.03113 0.09267,0.06222 0.0753,0.12669z" fill="#c0d8d8"/><path d="M266.78121,192.06933c-0.19374,-0.00304 -0.33912,-0.0499 -0.4627,-0.13284c-0.06176,-0.04145 -0.13904,-0.09328 -0.16345,-0.16047c-0.10231,-0.29723 -0.25294,-0.55062 -0.40356,-0.80409c0.07661,-0.12629 0.12742,-0.0668 0.17378,-0.0357c0.15445,0.10367 0.32437,0.21771 0.50071,0.28529c0.22265,0.09869 0.32886,0.2461 0.32759,0.49918c-0.00835,0.12132 0.00517,0.20659 0.0277,0.34863z" fill="#c1d9d9"/><path d="M270.28576,187.97249c0.10423,0.22229 0.14029,0.44967 0.20724,0.69769c-0.21299,0.13632 -0.4157,0.07638 -0.62038,0.09139c-0.12424,-0.26113 -0.1429,-0.55292 -0.20339,-0.84746c0.23104,-0.02265 0.41833,0.02689 0.61652,0.05833z" fill="#c3dbdc"/><path d="M264.43125,184.47449c-0.2819,-0.03682 -0.5374,-0.0814 -0.80382,-0.10791c-0.0953,-0.16549 -0.17504,-0.32065 -0.16929,-0.54528c0.22205,-0.07949 0.43114,-0.06607 0.65129,-0.0707c0.15701,0.207 0.2613,0.42925 0.3218,0.72378z" fill="#c3dadb"/><path d="M270.02266,190.05563c-0.02961,-0.2738 -0.05472,-0.51913 -0.07985,-0.76449c0.21752,-0.10791 0.42664,-0.09447 0.63578,-0.08104c0.06244,0.21963 0.08305,0.43657 0.06632,0.67923c-0.06371,0.0334 -0.15383,0.07447 -0.20653,0.08987c-0.14736,0.02804 -0.25739,0.03035 -0.41575,0.07643z" fill="#c4dbdc"/><path d="M265.11384,191.73727c0.2935,0.19702 0.52517,0.35253 0.77228,0.51833c0.05345,0.16284 0.06499,0.32296 0.01286,0.51646c-0.14284,0.05643 -0.2291,-0.05222 -0.34363,-0.07837c-0.11451,-0.02611 -0.21814,-0.07027 -0.29541,-0.12207c-0.04511,-0.28418 -0.08113,-0.51149 -0.14615,-0.8344z" fill="#c2d9da"/><path d="M261.71621,185.97822c-0.0798,-0.15513 -0.11783,-0.30752 -0.11396,-0.45733c0.07209,-0.15473 0.20855,-0.16473 0.30952,-0.22385c0.10098,-0.05916 0.18208,-0.15705 0.32301,-0.13862c0.13258,0.13975 0.19499,0.35938 0.28838,0.59979c-0.13197,0.03842 -0.26391,0.07683 -0.38034,0.12559c-0.14737,0.02804 -0.29472,0.05608 -0.42666,0.0945z" fill="#c5ddde"/><path d="M270.73945,188.0485c0.23941,-0.14397 0.47944,-0.10981 0.72142,-0.15053c0.09979,0.19393 0.05859,0.36939 0.08566,0.53988c-0.19758,0.14665 -0.41314,0.1797 -0.65513,0.22046c-0.047,-0.20924 -0.09399,-0.41857 -0.15192,-0.6098z" fill="#c3dbdc"/><path d="M262.5639,188.45151c-0.0901,0.04115 -0.14284,0.05647 -0.19562,0.07186c-0.12097,0.02036 -0.25742,0.03034 -0.40479,0.05837c-0.13966,-0.2715 -0.31214,-0.48881 -0.36171,-0.8014c0.10748,-0.10563 0.2175,-0.10795 0.3694,-0.10752c0.18791,0.2277 0.39579,0.49419 0.59277,0.77869z" fill="#c7dfe0"/><path d="M268.71052,190.57137c0.01417,0.26342 0.10296,0.47534 0.05987,0.72572c-0.19116,0.10021 -0.37197,0.00426 -0.54122,0.06835c-0.10232,-0.29725 -0.11654,-0.56062 -0.16158,-0.84477c0.24842,-0.08719 0.41828,0.02687 0.64293,0.05064z" fill="#c7dee0"/><path d="M271.33626,192.33381c-0.03475,0.12899 -0.15767,0.22422 -0.15699,0.40242c0.22266,0.09869 0.4717,0.18972 0.66154,0.3425c-0.05923,0.06183 -0.12934,0.14168 -0.20397,0.19315c-0.11195,0.07716 -0.23296,0.09752 -0.34112,0.02496c-0.19627,-0.10634 -0.37711,-0.20232 -0.5734,-0.30872c0.1422,-0.23464 0.22327,-0.33251 0.6139,-0.65434z" fill="#61acb1"/><path d="M265.74517,181.44636c0.07787,0.23003 0.13579,0.42122 0.20275,0.66929c-0.26642,-0.02648 -0.51737,-0.0426 -0.77288,-0.08714c-0.06888,-0.17315 -0.12227,-0.33598 -0.13838,-0.52454c0.24842,-0.0872 0.45754,-0.07373 0.70854,-0.05763z" fill="#c2dada"/><path d="M267.17575,192.20721c-0.07787,-0.23003 -0.08303,-0.4366 -0.10813,-0.682c0.26002,0.07291 0.48911,0.12516 0.71822,0.1774c0.09528,0.16548 0.06501,0.32294 0.05471,0.51914c-0.20655,0.08987 -0.40933,0.02997 -0.6648,-0.01458z" fill="#c1d9d9"/><path d="M263.99098,183.26494c-0.25291,0.05873 -0.44209,0.08408 -0.64224,0.12748c-0.12166,-0.15783 -0.14225,-0.37479 -0.16285,-0.59175c0.17565,-0.11056 0.35585,-0.19275 0.57595,-0.19738c0.15254,0.17854 0.12033,0.41092 0.22915,0.66163z" fill="#c6dedf"/><path d="M272.06953,186.42766c0.06243,0.21962 0.09847,0.44699 0.14548,0.65623c-0.11388,0.15203 -0.24129,0.21887 -0.41508,0.2546c-0.15701,-0.207 -0.14476,-0.47806 -0.23815,-0.71845c0.16026,-0.121 0.32304,-0.13861 0.50773,-0.19242z" fill="#c0d7d7"/><path d="M262.13924,189.68985c-0.17379,0.03572 -0.33208,0.08176 -0.49038,0.12787c-0.18532,-0.12443 -0.28508,-0.31832 -0.32112,-0.54564c0.13386,-0.11326 0.26576,-0.15165 0.45493,-0.17705c0.12613,0.18622 0.30053,0.32868 0.35654,0.5948z" fill="#c3dadb"/><path d="M270.0279,192.09037c-0.04374,0.07218 -0.07208,0.15477 -0.11581,0.22699c0.09979,0.19393 0.31338,0.23578 0.47238,0.36784c-0.06113,0.13668 -0.19758,0.14671 -0.28957,0.26264c-0.24453,-0.06261 -0.3971,-0.24109 -0.67444,-0.24956c0.09395,-0.19081 0.2059,-0.268 0.32885,-0.36328c0.08557,-0.06953 0.13132,-0.21656 0.27864,-0.24461z" fill="#5aa0a4"/><path d="M271.96509,182.54898c0.12613,0.18622 0.30057,0.32873 0.35208,0.56639c-0.10748,0.10562 -0.21302,0.13632 -0.37131,0.18244c-0.14802,-0.15014 -0.27416,-0.33636 -0.34755,-0.53798c0.1075,-0.10563 0.19758,-0.14671 0.3668,-0.21079z" fill="#bdd3d4"/><path d="M271.03808,189.67085c-0.01608,-0.18856 -0.0431,-0.35902 -0.07017,-0.52952c0.1757,-0.11055 0.34946,-0.1463 0.53862,-0.17167c0.09072,0.13706 0.04509,0.28418 -0.03149,0.41048c-0.09843,0.16245 -0.19687,0.32488 -0.43695,0.29072z" fill="#bdd4d5"/><path d="M267.46403,180.79734c0.13062,0.21465 0.24588,0.41895 0.3765,0.63357c-0.43373,-0.03722 -0.7819,-0.14398 -0.82569,-0.68117c0.14284,-0.05643 0.27737,0.00845 0.44917,0.04763z" fill="#bbd2d3"/><path d="M269.66558,191.11087c-0.1493,0.1029 -0.28574,0.11288 -0.42218,0.12285c-0.1081,-0.07256 -0.08429,-0.18359 -0.1023,-0.29722c-0.01351,-0.08521 -0.04248,-0.18081 0.00772,-0.29949c0.1493,-0.1029 0.30372,0.00073 0.46848,-0.09181c0.0734,0.20159 0.07408,0.37974 0.04834,0.56561z" fill="#c3dadb"/><path d="M266.37676,186.21197c-0.25612,-0.22273 -0.51228,-0.44541 -0.72465,-0.74031c0.08109,-0.09791 0.16926,-0.06414 0.24646,-0.01227c0.21171,0.11674 0.41248,0.25145 0.59785,0.37588c0.13899,0.09329 0.10429,0.22238 -0.11967,0.3767z" fill="#b1c6c7"/><path d="M272.72396,185.4197c-0.1017,-0.11898 -0.08239,-0.25841 -0.11586,-0.38245c-0.07788,-0.23003 0.00513,-0.40282 0.21367,-0.56757c0.15058,0.25344 0.15832,0.56334 0.1725,0.82671c-0.09202,0.11597 -0.15575,0.1494 -0.27029,0.12329z" fill="#bbd2d3"/><path d="M267.68814,183.68993c-0.33722,-0.12476 -0.52323,-0.42735 -0.73563,-0.72226c0.2819,0.03683 0.51356,0.1924 0.74075,0.31945c0.14996,0.07525 0.14803,0.15015 -0.00514,0.40282z" fill="#bad1d2"/><path d="M270.87809,182.04793c0.20014,-0.04338 0.36939,-0.10753 0.56952,-0.15091c0.06626,0.06988 0.14159,0.19661 0.22784,0.30527c-0.27415,0.27304 -0.28959,0.26267 -0.47947,0.10984c-0.10809,-0.07258 -0.2053,-0.16324 -0.31792,-0.26417z" fill="#b5cbcc"/><path d="M262.30947,183.27879c0.15574,-0.14936 0.29859,-0.20585 0.44146,-0.26228c0.10622,0.14746 0.08043,0.3333 0.09658,0.52182c-0.15379,0.07454 -0.29665,0.13089 -0.45044,0.20543c-0.12809,-0.11135 -0.06053,-0.29449 -0.08754,-0.46503z" fill="#c0d7d8"/><path d="M271.43107,183.96786c0.09653,-0.08754 0.2175,-0.10795 0.35397,-0.11793c0.16796,0.18893 0.26131,0.42931 0.30185,0.68505c-0.06113,0.13668 -0.12935,0.1417 -0.22839,0.12593c-0.14613,-0.22499 -0.29221,-0.45004 -0.42735,-0.69309z" fill="#bdd4d4"/><path d="M265.61386,181.05351c-0.20464,0.01497 -0.41377,0.00154 -0.61844,0.01652c-0.03347,-0.12405 -0.00966,-0.23501 0.05594,-0.34329c0.09652,-0.0875 0.1956,-0.07182 0.30564,-0.07411c0.08367,0.00538 0.16729,0.01073 0.25099,0.01611c0.05987,0.11635 0.07791,0.23001 0.00581,0.38479z" fill="#b6cccc"/><path d="M263.15,184.40156c-0.20013,0.04337 -0.37387,0.07912 -0.58499,0.14054c-0.08175,-0.08023 -0.14162,-0.1966 -0.08948,-0.39014c0.1538,-0.07455 0.32305,-0.13863 0.5032,-0.22082c0.07979,0.15513 0.15515,0.28183 0.17119,0.4704z" fill="#c1d9d9"/><path d="M266.53022,180.65299c0.0798,0.15513 0.12875,0.28954 0.12938,0.46769c-0.20014,0.04338 -0.37651,-0.02422 -0.53285,-0.05299c-0.10168,-0.11901 -0.06694,-0.24804 -0.05859,-0.36939c0.04826,-0.04375 0.07016,-0.07986 0.08559,-0.06952c0.12547,0.0081 0.25095,0.01613 0.37648,0.02422z" fill="#b7cdce"/><path d="M268.43841,180.58807c-0.25742,0.03032 -0.39645,-0.06294 -0.55734,-0.12015c-0.18728,-0.04951 -0.18345,-0.19929 -0.1841,-0.37745c0.20014,-0.04338 0.36105,0.01383 0.52837,0.02458c0.13257,0.13976 0.06951,0.35137 0.21302,0.47309z" fill="#b6cccc"/><path d="M272.5275,183.48519c0.06887,0.17316 0.11778,0.30754 0.18216,0.45231c-0.083,0.17281 -0.14866,0.28108 -0.30242,0.35559c-0.07339,-0.20161 -0.15768,-0.38515 -0.22656,-0.55832c0.0521,-0.19353 0.18855,-0.20348 0.2696,-0.30144c0.03087,0.02073 0.07276,0.02343 0.07725,0.05183z" fill="#c2dada"/><path d="M262.01863,184.40387c0.07529,0.12673 0.08881,0.21196 0.06504,0.32293c-0.05021,0.11868 -0.15574,0.14938 -0.25674,0.20852c-0.09009,0.04111 -0.18209,0.15705 -0.30117,0.10254c-0.03798,-0.15244 -0.04958,-0.31255 0.01801,-0.49574c0.16928,-0.06415 0.31661,-0.09216 0.47495,-0.13825z" fill="#bbd2d3"/><path d="M268.24787,192.2667c-0.00065,-0.17817 -0.00775,-0.30989 -0.00391,-0.45962c0.18472,-0.0538 0.35201,-0.04297 0.5303,-0.05031c0.04889,0.13434 0.05603,0.26614 -0.02059,0.39241c-0.03731,0.02575 -0.07465,0.05144 -0.11651,0.04879c-0.10552,0.03072 -0.22655,0.05105 -0.38937,0.06876z" fill="#bbd2d3"/><path d="M271.15801,181.55028c-0.30121,0.10255 -0.3012,0.10255 -0.61843,0.01652c-0.06888,-0.17316 0.00322,-0.32794 0.05534,-0.52143c0.24909,0.091 0.39516,0.31601 0.56312,0.50492z" fill="#adc2c3"/><path d="M270.0678,190.94918c-0.04889,-0.13434 -0.04506,-0.28417 0.01607,-0.42085c0.18472,-0.0538 0.34297,-0.09989 0.51673,-0.13555c-0.03148,0.41047 -0.04241,0.42855 -0.53278,0.55647z" fill="#b5cbcc"/><path d="M264.60101,181.54155c0.05346,0.16279 0.08688,0.28682 0.08754,0.465c-0.1647,0.09252 -0.33657,0.05335 -0.52576,0.07871c-0.02444,-0.06719 -0.03347,-0.12399 -0.04251,-0.18084c-0.00902,-0.05685 0.00835,-0.12133 0.01025,-0.19623c0.14477,-0.13133 0.29213,-0.15935 0.47042,-0.16668z" fill="#bbd1d2"/><path d="M266.8656,192.86231c-0.21751,0.10787 -0.4138,0.00154 -0.59206,0.00887c-0.06433,-0.14477 -0.00323,-0.28149 0.00063,-0.43129c0.24646,-0.01233 0.42278,0.0553 0.55988,0.22347c0.0463,0.03112 0.03346,0.12401 0.03154,0.19891z" fill="#b6cccd"/><path d="M261.19507,187.91355c0.12424,0.26113 0.22204,0.52991 0.33081,0.78062c-0.09203,0.11597 -0.18208,0.15705 -0.33396,0.15669c-0.06053,-0.2945 -0.12102,-0.58904 -0.1024,-0.9066c0.05278,-0.01535 0.07916,-0.02304 0.10552,-0.03071z" fill="#acc1c2"/><path d="M266.44674,184.30399c0.23362,0.08065 0.4563,0.1793 0.63517,0.35019c0.06629,0.06991 0.09528,0.1655 0.04058,0.25574c-0.02186,0.03604 -0.09653,0.08754 -0.11197,0.07715c-0.24262,-0.13746 -0.39773,-0.41926 -0.5638,-0.68309z" fill="#a7bbbb"/><path d="M263.69933,181.77434c0.07079,0.09832 0.06243,0.21964 0.04312,0.35902c-0.16928,0.06415 -0.33851,0.12823 -0.50774,0.19239c-0.07979,-0.15514 -0.0296,-0.27377 0.04697,-0.4001c0.11195,-0.07716 0.27026,-0.12327 0.41766,-0.1513z" fill="#b7cdcd"/><path d="M271.97763,188.37179c-0.09977,-0.19395 -0.10038,-0.37209 -0.09015,-0.5683c0.13386,-0.11326 0.26126,-0.1801 0.44403,-0.15897c-0.03859,0.2788 -0.18533,0.48496 -0.3539,0.72729z" fill="#b7cece"/><path d="M264.86292,192.93986c-0.26191,0.00193 -0.41895,-0.20505 -0.62809,-0.21843c-0.04887,-0.13434 0.0103,-0.19623 0.07852,-0.20123c0.17826,-0.00732 0.36107,0.0138 0.5155,0.1175c0.0354,0.04918 0.05084,0.05954 0.03413,0.30223z" fill="#b4cacb"/><path d="M261.74078,187.26422c-0.11194,0.07717 -0.19112,0.10023 -0.29023,0.08452c-0.07788,-0.23003 -0.1712,-0.4704 -0.14162,-0.806c0.27351,0.1582 0.32949,0.42433 0.43188,0.7215z" fill="#b2c8c9"/><path d="M269.18357,191.72679c0.1538,-0.07455 0.27026,-0.12327 0.38482,-0.09716c0.05085,0.0595 0.03348,0.12404 0.01608,0.18856c-0.0695,0.25803 -0.23235,0.27571 -0.44143,0.26225c0.02376,-0.11097 0.03215,-0.23233 0.0405,-0.35367z" fill="#b5cbcb"/><path d="M268.26667,182.37707c-0.21173,-0.11671 -0.3816,-0.23077 -0.53411,-0.40929c0.03928,-0.1006 0.10746,-0.10559 0.15378,-0.0745c0.11906,0.05453 0.24908,0.09102 0.36812,0.14553c0.12355,0.08295 0.11066,0.17587 0.01222,0.33826z" fill="#91a3a3"/><path d="M263.80084,189.02784c0.26191,-0.00193 0.45176,0.15089 0.63711,0.27533c0.0309,0.02074 0.03993,0.07757 0.03347,0.12404c-0.02189,0.03606 -0.08557,0.0695 -0.10106,0.05914c-0.24906,-0.091 -0.42796,-0.26185 -0.56959,-0.45846z" fill="#99abac"/><path d="M263.80091,190.24661c-0.01479,0.1678 -0.06951,0.25804 -0.1686,0.24232c-0.12999,-0.0365 -0.26257,-0.17625 -0.41961,-0.38319c0.23104,-0.02267 0.40091,0.09136 0.58818,0.14091z" fill="#93a5a6"/><path d="M272.85335,186.4968c-0.08236,-0.25843 -0.19118,-0.50917 0.1293,-0.75114c0.09779,0.26881 -0.04439,0.5034 -0.1293,0.75114z" fill="#9aadad"/><path d="M269.8891,184.86262c-0.15642,-0.02881 -0.32819,-0.06794 -0.46915,-0.08639c-0.04439,-0.10599 -0.02703,-0.17048 0.05408,-0.26841c0.19374,0.00307 0.30444,0.1789 0.45437,0.25414c-0.02188,0.03606 -0.03284,0.05414 -0.03927,0.10062z" fill="#c5dddd"/><path d="M265.25192,186.77726c0.29923,-0.02765 0.50004,0.10715 0.65707,0.31409c0.01544,0.01036 0.00902,0.05686 -0.01286,0.09295c-0.01739,0.06449 -0.08555,0.06952 -0.11647,0.04876c-0.18085,-0.09595 -0.33337,-0.27456 -0.52775,-0.4558z" fill="#aec2c3"/><path d="M267.23684,192.67989c0.20014,-0.04338 0.38741,0.00612 0.55927,0.0453c0.04442,0.10598 -0.01481,0.16783 -0.09845,0.16245c-0.1519,-0.00041 -0.28831,0.00958 -0.44468,-0.01923c-0.05278,0.01535 -0.06629,-0.06986 -0.01609,-0.18853z" fill="#9caeaf"/><path d="M262.79526,182.51309c-0.14482,0.13132 -0.27219,0.19814 -0.44145,0.26226c0.08041,-0.2761 0.24709,-0.44351 0.37836,-0.66007c0.0354,0.04918 0.0663,0.06992 0.07078,0.09829c0.00258,0.1033 -0.01028,0.19619 -0.00768,0.29948z" fill="#a9bebf"/><path d="M266.85506,189.40218c0.0457,-0.14708 0.10486,-0.20884 0.19501,-0.24998c0.16538,0.08565 0.27157,0.23308 0.31667,0.51724c-0.20726,-0.08834 -0.34625,-0.18162 -0.51166,-0.26724z" fill="#b9cfd0"/><path d="M269.91603,183.20491c0.08559,-0.06949 0.1628,-0.01769 0.50071,0.2853c-0.22393,0.15439 -0.36106,-0.01378 -0.51292,-0.0142c-0.04439,-0.10598 -0.01603,-0.18852 0.01224,-0.27108z" fill="#869797"/><path d="M264.6264,187.88086c0.21429,0.22002 0.52901,0.20277 0.5612,0.57981c-0.27547,-0.0833 -0.44984,-0.22575 -0.5612,-0.57981z" fill="#93a4a5"/><path d="M268.07863,180.93055c0.23168,0.1555 0.38616,0.25918 0.54059,0.36284c0.0309,0.02074 0.03993,0.07758 0.00706,0.13168c-0.01096,0.01807 -0.04827,0.04377 -0.07466,0.05148c-0.20725,-0.08828 -0.37718,-0.20235 -0.47303,-0.54598z" fill="#94a5a6"/><path d="M270.19723,182.45417c0.00389,-0.14976 0.02122,-0.21425 0.13767,-0.26303c0.13451,0.06486 0.28448,0.14017 0.40611,0.29799c-0.21754,0.10789 -0.37194,0.0042 -0.54376,-0.03493z" fill="#abbfc0"/><path d="M267.35134,180.08693c-0.02379,0.11098 -0.03024,0.15745 -0.05214,0.19357c-0.33656,0.05339 -0.33654,0.05336 -0.51996,-0.14592c0.20207,-0.11826 0.3565,-0.01462 0.57207,-0.04761z" fill="#acc0c1"/><path d="M272.25417,185.76449c-0.05793,-0.19125 -0.14225,-0.37478 -0.18925,-0.58404c-0.01351,-0.08521 0.03027,-0.15742 0.15573,-0.14935c0.07787,0.23003 0.1403,0.44965 0.03351,0.73341z" fill="#9fb2b2"/><path d="M264.56422,181.13606c-0.11652,0.04878 -0.19564,0.07179 -0.29471,0.05607c-0.03995,-0.07755 -0.03802,-0.15242 0.00125,-0.25305c0.08109,-0.09791 0.20208,-0.11825 0.32305,-0.13861c0.07079,0.09832 0.02059,0.21694 -0.02961,0.33555z" fill="#aec2c3"/><path d="M268.68913,187.1293c-0.16468,0.09252 -0.27289,0.01996 -0.39193,-0.03455c-0.04631,-0.03114 -0.04438,-0.10598 -0.01156,-0.16011c0.02189,-0.03606 0.0856,-0.06953 0.11645,-0.04877c0.12547,0.00806 0.19629,0.10638 0.28703,0.24345z" fill="#91a2a3"/><path d="M261.86602,183.6159c0.14225,0.37479 0.1468,0.40318 -0.21168,0.49267c0.05664,-0.1651 0.05595,-0.3433 0.21168,-0.49267z" fill="#869696"/><path d="M263.17283,191.24692c-0.22203,0.07948 -0.28185,-0.03684 -0.37908,-0.12746c0.17567,-0.11055 0.17571,-0.11056 0.37908,0.12746z" fill="#555f5f"/><path d="M268.93931,185.74848c0.07723,0.05182 0.1853,0.12438 0.26067,0.25109c-0.23748,0.06911 -0.29923,0.02765 -0.36361,-0.11707c-0.01995,-0.03877 0.01286,-0.09295 0.10297,-0.13399z" fill="#93a5a6"/><path d="M268.66164,180.2556c0.29473,-0.05607 0.31471,-0.01731 0.18596,0.30258c-0.12999,-0.0365 -0.16348,-0.16046 -0.18596,-0.30258z" fill="#8b9b9c"/><path d="M262.40259,191.26308c0.18728,0.04952 0.29986,0.15048 0.41252,0.25153c-0.01929,0.13937 -0.08302,0.17281 -0.14478,0.1313c-0.12356,-0.08293 -0.23618,-0.18391 -0.26772,-0.38278z" fill="#9aacad"/><path d="M266.10805,180.16646c0.14284,-0.05642 0.25487,-0.13361 0.3675,-0.03265c0.01545,0.01038 0.01995,0.03876 0.00902,0.05684c-0.12937,0.1417 -0.24393,0.11559 -0.3765,-0.0242z" fill="#5f6a6b"/><path d="M267.83257,188.25556c-0.09458,0.01267 -0.15641,-0.0288 -0.20721,-0.08834c-0.01996,-0.03877 -0.02895,-0.09561 0.00837,-0.12133c0.03731,-0.02575 0.0901,-0.04112 0.12098,-0.02032c0.06176,0.04146 0.1126,0.10097 0.07788,0.23z" fill="#636e6f"/><path d="M263.61445,181.41258c0.03026,-0.15741 0.1004,-0.23728 0.2677,-0.22654c-0.02574,0.18582 -0.1158,0.22694 -0.2677,0.22654z" fill="#4a5354"/></g><path d="M277.58995,200.34022c0,0 -4.32029,-0.65476 -5.75787,-2.99305c-1.23262,-2.00495 0.31053,-5.62577 1.0871,-6.85429c1.47572,-2.33452 3.05866,-4.55332 5.60276,-5.06845c0.87979,-0.17811 2.7902,0.14108 4.08088,0.95118c0.89846,0.56391 3.76733,2.99282 4.73549,3.62719c3.64526,2.38853 6.58483,4.49747 5.10955,7.26655c-0.90775,1.70386 -3.33196,6.58392 -5.63186,6.82205c-2.43056,0.25169 -9.22607,-3.75115 -9.22607,-3.75115z" data-paper-data="{&quot;index&quot;:null}" fill="#000000" stroke="#000000" stroke-width="1.2"/></g><g fill="#ff0000" fill-rule="nonzero" stroke="none" stroke-linecap="butt" stroke-linejoin="miter"><path d="M244.57967,222.43308c0.08286,1.16313 -0.73924,2.1891 -1.8362,2.29157c-1.09696,0.10247 -2.05338,-0.75736 -2.13624,-1.92048c-0.08286,-1.16313 0.73923,-2.1891 1.83619,-2.29157c1.09696,-0.10247 2.05339,0.75736 2.13625,1.92048z" stroke-width="none"/><path d="M247.55201,226.73471c0.07622,1.07008 -0.65242,2.01139 -1.6275,2.10247c-0.97508,0.09108 -1.82733,-0.70254 -1.90356,-1.77262c-0.07622,-1.07008 0.65243,-2.01139 1.6275,-2.10247c0.97508,-0.09108 1.82733,0.70254 1.90355,1.77262z" stroke-width="0"/><path d="M244.58525,230.82792c0.07954,1.1166 -0.64642,2.09563 -1.62149,2.18671c-0.97508,0.09108 -1.83001,-0.74026 -1.90955,-1.85686c-0.07954,-1.1166 0.64642,-2.09563 1.62149,-2.18671c0.97508,-0.09108 1.83001,0.74026 1.90955,1.85686z" stroke-width="0"/><path d="M248.91411,215.67486c-0.80561,-0.198 -1.30731,-1.16622 -1.12058,-2.16257c0.18674,-0.99635 0.99121,-1.64354 1.79682,-1.44554c0.80561,0.198 1.30731,1.16622 1.12058,2.16258c-0.18674,0.99635 -0.99121,1.64354 -1.79682,1.44553z" stroke-width="none"/><path d="M245.3125,217.30586c-0.74116,-0.18216 -1.20744,-1.04779 -1.04145,-1.93344c0.16599,-0.88565 0.9014,-1.45594 1.64256,-1.27378c0.74116,0.18216 1.20744,1.0478 1.04145,1.93345c-0.16599,0.88565 -0.9014,1.45593 -1.64256,1.27376z" stroke-width="0"/><path d="M247.5875,219.82206c-0.83784,-0.20592 -1.38809,-1.06091 -1.22901,-1.90964c0.15908,-0.84874 0.96724,-1.36985 1.80508,-1.16393c0.83784,0.20592 1.38808,1.06091 1.22901,1.90965c-0.15908,0.84874 -0.96723,1.36984 -1.80507,1.16393z" stroke-width="0"/><path d="M233.92476,218.57592c-0.23924,1.13438 -1.30046,1.81411 -2.37031,1.51824c-1.06984,-0.29587 -1.74318,-1.45533 -1.50394,-2.58971c0.23924,-1.13438 1.30045,-1.81411 2.37029,-1.51824c1.06984,0.29587 1.74319,1.45533 1.50395,2.58971z" stroke-width="none"/><path d="M235.57193,223.7268c-0.22009,1.04362 -1.16943,1.67645 -2.12041,1.41344c-0.95097,-0.263 -1.54346,-1.32223 -1.32336,-2.36585c0.22009,-1.04362 1.16943,-1.67645 2.12041,-1.41345c0.95097,0.263 1.54346,1.32224 1.32336,2.36586z" stroke-width="0"/><path d="M239.20112,213.22243c-0.71101,-0.47682 -0.92285,-1.57621 -0.47315,-2.45556c0.4497,-0.87935 1.39064,-1.20565 2.10165,-0.72883c0.71101,0.47682 0.92284,1.57621 0.47314,2.45556c-0.4497,0.87935 -1.39064,1.20565 -2.10164,0.72883z" stroke-width="none"/><path d="M234.34429,209.33175c-0.68257,-0.45775 -0.91185,-1.46247 -0.51212,-2.24412c0.39973,-0.78164 1.27711,-1.04421 1.95968,-0.58646c0.68257,0.45775 0.91186,1.46248 0.51212,2.24413c-0.39973,0.78164 -1.27711,1.0442 -1.95968,0.58645z" stroke-width="0"/><path d="M236.80758,216.68573c-0.73945,-0.4959 -1.02834,-1.50514 -0.64526,-2.25421c0.38307,-0.74907 1.29306,-0.95432 2.03251,-0.45842c0.73945,0.4959 1.02834,1.50515 0.64527,2.25422c-0.38307,0.74907 -1.29306,0.95432 -2.03251,0.45842z" stroke-width="0"/></g></g></g></svg>