<svg version="1.1" xmlns="http://www.w3.org/2000/svg" xmlns:xlink="http://www.w3.org/1999/xlink" width="44.60247" height="45.85619" viewBox="0,0,44.60247,45.85619"><g transform="translate(-217.69877,-157.07188)"><g data-paper-data="{&quot;isPaintingLayer&quot;:true}" fill="#e4d6ff" fill-rule="nonzero" stroke="none" stroke-width="0.5" stroke-linecap="butt" stroke-linejoin="miter" stroke-miterlimit="10" stroke-dasharray="" stroke-dashoffset="0" style="mix-blend-mode: normal"><path d="M224.62314,171.90799l-0.0221,-0.03315l0.0221,-0.09945v-0.09884l0.19767,-0.7907l0.1768,-0.79562l0.0442,-0.0884l0.02471,-0.09884l0.03459,-0.01977l0.21179,-0.42359l0.18847,-0.21989l0.00982,-0.17669l0.53385,-0.4576l0.4576,-0.53385l0.17669,-0.00982l0.21989,-0.18847l0.42359,-0.21179l0.01977,-0.03459l0.09884,-0.02471l0.0884,-0.0442l0.56529,-0.12563l0.0195,-0.02508l0.17475,-0.01807l0.03606,-0.00802l0.7907,-0.19767h0.09884l0.09945,-0.0221l0.03315,0.0221h0.08385l0.24769,0.06192l0.25396,-0.02627l0.85399,0.12199h0.41987l0.2225,-1.77999l0.09988,-0.25801l0.00922,-0.27651l0.31529,-1.10355l0.04996,-0.08661l0.01124,-0.04492l0.1768,-0.79562l0.0442,-0.0884l0.02471,-0.09884l0.03459,-0.01977l0.61876,-1.23751l0.15816,-0.3954l-0.05301,-0.19435l0.23449,-0.39082l0.11054,-0.44217l0.2355,-0.13457l0.36003,-0.60006l0.06695,-0.06695l0.12048,-0.18071l0.26143,-0.23766l0.02838,-0.04729l0.00254,-0.04567l0.0512,-0.04387l0.09968,-0.16612l0.31529,-0.31529l0.48894,-0.29336l0.43293,-0.37109l0.10829,-0.05414l0.01977,-0.03459l0.09884,-0.02471l0.0884,-0.0442l0.21122,-0.04693l0.11923,-0.07153l0.091,0.02482l0.37418,-0.08314l0.7907,-0.19767h0.08385l0.03315,-0.0221l0.04064,0.00904l0.04064,-0.00904l0.03315,0.0221h0.08385l0.7907,0.19767l0.79562,0.1768l0.0884,0.0442l0.09884,0.02471l0.01977,0.03459l0.10829,0.05414l0.10836,0.09287h0.12018l0.55284,0.57687l0.60666,0.51999l0.00667,0.11999l0.09875,0.10304l0.63059,1.10355l0.17534,0.62341l0.25076,0.59708l0.31529,2.04943l-0.02529,0.2732l0.06654,0.26618v0.8827l0.13026,1.04207l-0.02697,0.22251l0.05435,0.21745v1.30061l0.27128,-0.20346l0.9253,-0.9253l0.25422,-0.15253l0.19225,-0.22568l1.10355,-0.78826l0.16996,-0.06696l0.13189,-0.12639l1.10355,-0.63059l0.19846,-0.05582l0.16413,-0.12474l1.00773,-0.43188l0.01506,-0.00753l0.01977,-0.03459l0.09884,-0.02471l0.0884,-0.0442l0.79562,-0.1768l0.3202,-0.08005l0.08472,-0.07581l0.1671,0.01286l0.21868,-0.05466h0.09884l0.09945,-0.0221l0.03315,0.0221h0.08385l0.55317,0.13829l0.56852,0.04373l0.47294,0.15765l0.12162,0.0774l0.01255,-0.00342l0.11923,0.07153l0.21122,0.04693l0.31529,0.15765l0.43293,0.37109l0.48894,0.29336l0.31529,0.31529l0.09968,0.16612l0.02939,0.0252l0.13257,0.10101l0.63059,0.78826l0.21768,0.47494l0.3059,0.42356l0.31529,0.78826l0.09076,0.66563l0.16294,0.65173v0.78826l-0.10591,0.42363v0.43666l-0.15765,0.63059l-0.0095,0.01779l0.01704,0.06249l-0.45326,0.75544l-0.41458,0.77734l-0.06235,0.01754l-0.01038,0.01728l-0.63059,0.63059l-0.17127,0.10276l-0.12105,0.15888l-1.57649,1.2612l-0.34304,0.15722l-0.28651,0.24557l-0.74837,0.3742l-0.2892,0.19281l-0.34941,0.12479l-0.27482,0.19847l-0.22313,0.94827l0.28048,-0.17848l0.84701,-0.28234l0.55448,-0.2218l1.23751,-0.61876l0.01977,-0.03459l0.09884,-0.02471l0.0884,-0.0442l0.79562,-0.1768l0.53488,-0.13373l0.06946,-0.02831l0.10206,-0.01458l0.08428,-0.02106h0.06321l0.09975,-0.01425l0.03533,-0.00785l0.00347,0.00231l0.48633,-0.06948l0.02969,-0.02656l0.10157,0.00782l0.09784,-0.01398l0.8107,0.08387l0.81263,0.06251l0.09377,0.03125l0.10133,0.01048l0.02446,0.03145l0.2534,0.08446l0.2154,0.13708l0.24924,0.05538l0.31529,0.15765l0.53131,0.4554l0.26598,0.0532l0.2447,0.38452l0.34604,0.29661l0.01504,0.27081l0.25604,0.40236l0.01593,0.00911l0.00655,0.02625l0.09715,0.15267l0.15765,0.47294l0.04373,0.56852l0.03562,0.1425l0.39359,1.18078l0.00819,0.10635l0.05189,0.09319l1.10355,4.09888l0.00842,0.46803l0.11353,0.45413v0.03628l0.05174,0.20696v0.43666l0.10591,0.42363v0.9459l-0.10591,0.42363v0.43666l-0.31529,1.2612l-0.12675,0.23766l-0.0402,0.26632l-0.78826,1.89179l-0.20652,0.27752l-0.11634,0.32578l-0.31529,0.47294l-0.36077,0.32797l-0.28218,0.39762l-1.10355,0.9459l-0.55352,0.27676l-0.50944,0.35133l-1.2612,0.47294l-0.72686,0.08308l-0.22398,0.15821l-0.43015,-0.08346l-0.43534,0.04975l-0.21098,-0.17515l-0.71819,-0.13934l-0.84373,-0.39375l-0.66388,0.03688l-0.54785,0.49018l-1.17192,-0.09016l-0.04604,0.12893l-0.31529,0.47294l-0.04344,0.0395l-0.02153,0.05464l-0.78826,1.10355l-0.22568,0.19225l-0.15253,0.25422l-0.47294,0.47294l-0.21893,0.13136l-0.161,0.19814l-0.63059,0.47294l-0.0929,0.03911l-0.06779,0.07457l-0.18071,0.12048l-0.85518,0.85518l-0.30295,0.18177l-0.23766,0.26143l-0.39103,0.26069l-0.55183,0.41388l-0.52551,0.22127l-0.48106,0.30613l-0.9459,0.31529l-1.82276,0.14021l-0.10438,-0.09338l-0.13513,0.03685l-1.56761,-0.94057l-0.9459,-0.9459l-0.33379,-0.55632l-0.39942,-0.51125l-0.63059,-1.41885l-0.02521,-0.14406l-0.34952,0.29958l-0.42359,0.21179l-0.01977,0.03459l-0.09884,0.02471l-0.0884,0.0442l-0.79562,0.1768l-0.7907,0.19767h-0.09884l-0.09945,0.0221l-0.03315,-0.0221h-0.71446l-0.13845,-0.03462l-0.10749,0.05375l-0.75245,-0.26873l-0.77514,-0.19379l-0.05962,-0.10435l-0.13441,-0.048l-0.28038,-0.18691h-0.03984l-0.07049,-0.07355l-0.08223,-0.05483l-0.54824,-0.60308l-0.56392,-0.58844l-0.04904,-0.08581l-0.06853,-0.07538l0.00274,-0.03975l-0.51576,-0.9026l-0.02728,-0.09702l-0.06559,-0.07651l-0.31529,-0.63059l-0.08475,-0.38133l-0.18383,-0.34468l-0.10152,-0.40608l-0.02949,-0.02681l-0.00268,-0.10184l-0.02398,-0.09589v-0.81503l-0.02143,-0.81474l0.02143,-0.09648v-0.10187l0.02876,-0.02757l0.2651,-1.19292l0.08327,-0.16656l0.01429,-0.18567l0.47294,-1.41885l0.13708,-0.2154l0.01972,-0.08875l0.00085,-0.01115l0.00486,-0.01458l0.02994,-0.13473l0.04491,-0.08982l0.11954,-0.3586l-0.00522,-0.01633l0.02767,-0.05102l0.0936,-0.28079l0.3974,-0.62449l0.16181,-0.29831l-0.83245,0.05203l-0.08632,0.01726l-0.01953,0.03417l-0.09884,0.02471l-0.0884,0.0442l-0.63519,0.14116l-0.7373,0.29492l-0.66563,0.09076l-0.65173,0.16294h-3.07919l-0.03315,0.0221l-0.09945,-0.0221h-0.09884l-0.7907,-0.19767l-0.63514,-0.14115l-0.01115,-0.00085l-0.01458,-0.00486l-0.13473,-0.02994l-0.0884,-0.0442l-0.09884,-0.02471l-0.00599,-0.01047l-0.1304,-0.04348l-0.59038,-0.3757l-0.27081,-0.01504l-0.29661,-0.34604l-0.38452,-0.2447l-0.0532,-0.26598l-0.4554,-0.53131l-0.05888,-0.11777l-0.19281,-0.2892l-0.14762,-0.41331l-0.00438,-0.00204l-0.01411,-0.04141l-0.24762,-0.38911l-0.15765,-0.47294l-0.02753,-0.3581l-0.01597,-0.04469l0.01083,-0.02164l-0.13709,-0.40268l-0.15765,-1.89179l0.05023,-0.30768l-0.04792,-0.30805l0.15765,-1.73414l0.13582,-0.38937l0.03162,-0.41118l0.15765,-0.47294l0.13708,-0.2154l0.05538,-0.24924l0.15765,-0.31529l0.56764,-0.66225l0.06373,-0.10015l0.02669,-0.00534l0.25032,-0.29205l0.06958,-0.17561l0.12437,-0.05067l0.0874,-0.10196l0.18859,-0.01047l1.29266,-0.52665l1.10355,-0.15765l0.4475,0.0463l0.44585,-0.06024l1.41885,0.15765l0.22814,0.08474l-0.0089,-0.01778l-0.26439,-1.18975l-0.13219,-0.19828l0.04407,-0.19828l-0.04407,-0.19828l0.13219,-0.19828l0.04756,-0.21401zM231.99459,178.53768c-2.84615,3.18099 0.48606,8.1429 3.12047,10.4628c5.71878,5.03605 13.31941,-2.24499 14.64029,-7.5285c2.54232,-10.16927 -15.33742,-13.8201 -17.72233,-3.088zM243.63739,193.35865l-0.03717,-0.07435l-0.03265,-0.14694l-0.00098,-0.00136l-0.12375,0.49502z"/></g></g></svg>