<svg version="1.1" xmlns="http://www.w3.org/2000/svg" xmlns:xlink="http://www.w3.org/1999/xlink" width="64.42388" height="46.96931" viewBox="0,0,64.42388,46.96931"><g transform="translate(-208.53806,-156.87109)"><g data-paper-data="{&quot;isPaintingLayer&quot;:true}" fill-rule="nonzero" stroke-linejoin="miter" stroke-miterlimit="10" stroke-dasharray="" stroke-dashoffset="0" style="mix-blend-mode: normal"><path d="M240.18059,198.75128c-0.08739,0 -1.66141,-2.36796 -1.75642,-4.83803c-0.10319,-2.68264 1.27355,-5.48574 1.20528,-5.50675c-0.00082,-0.00025 -18.11825,2.10054 -18.11833,2.10049c-0.09186,-0.05264 -11.10107,-6.41307 -10.91137,-11.21768c0.17118,-4.33518 10.4789,-12.67297 10.4789,-12.74823c0,-0.02521 16.98105,3.63633 16.98233,3.63613c0.11901,-0.01894 -2.29084,-2.81369 -2.47215,-5.53754c-0.18359,-2.75808 1.85973,-5.44752 1.72297,-5.76857c-0.01295,-0.0304 9.74838,2.88692 17.56076,7.34552c7.52192,4.29284 13.10566,10.13187 13.10614,10.17382c0.00047,0.0419 -4.5514,7.90703 -11.60968,13.57652c-6.83069,5.48666 -16.17502,8.78432 -16.18843,8.78432z" fill="#000000" stroke="#000000" stroke-width="4" stroke-linecap="butt"/><path d="M242.60156,202.51292c0,0 0.18794,0.12225 -0.37366,-0.14207c-0.47443,-0.22328 -1.68399,-0.81291 -1.95247,-1.06283c-0.12358,-0.11504 -0.81794,-1.24086 -1.02347,-1.60701c-0.66898,-1.19178 -1.07867,-2.41853 -1.07867,-2.41853" fill="#000000" stroke="#000000" stroke-width="2" stroke-linecap="round"/><path d="M220.97318,165.21086l2.44398,2.74781" fill="none" stroke="#292929" stroke-width="1" stroke-linecap="round"/><path d="M238.84687,173.00601l-4.93097,-5.37248" fill="none" stroke="#292929" stroke-width="0.5" stroke-linecap="round"/><path d="M239.25133,160.11594l-2.49561,-2.65708" fill="none" stroke="#292929" stroke-width="1" stroke-linecap="round"/><path d="M212.69541,183.64899l-3.65735,-3.51901" fill="none" stroke="#292929" stroke-width="1" stroke-linecap="round"/><path d="M243.16383,201.84041c-0.08739,0 -1.66141,-2.36796 -1.75642,-4.83803c-0.10319,-2.68264 1.27355,-5.48574 1.20528,-5.50675c-0.00082,-0.00025 -18.11825,2.10054 -18.11833,2.10049c-0.09186,-0.05264 -11.10107,-6.41307 -10.91137,-11.21768c0.17118,-4.33518 10.4789,-12.67297 10.4789,-12.74823c0,-0.02521 16.98105,3.63633 16.98233,3.63613c0.11901,-0.01894 -2.29084,-2.81369 -2.47215,-5.53754c-0.18359,-2.75808 1.85973,-5.44752 1.72297,-5.76857c-0.01295,-0.0304 9.74838,2.88692 17.56076,7.34552c7.52192,4.29284 13.10566,10.13187 13.10614,10.17382c0.00047,0.0419 -4.5514,7.90703 -11.60968,13.57652c-6.83069,5.48666 -16.17502,8.78432 -16.18843,8.78432z" fill="#bcbcbc" stroke="#525252" stroke-width="4" stroke-linecap="butt"/></g></g></svg>