<svg version="1.1" xmlns="http://www.w3.org/2000/svg" xmlns:xlink="http://www.w3.org/1999/xlink" width="51.49614" height="48.81948" viewBox="0,0,51.49614,48.81948"><g transform="translate(-219.28291,-139.23994)"><g data-paper-data="{&quot;isPaintingLayer&quot;:true}" fill-rule="nonzero" stroke-linejoin="miter" stroke-miterlimit="10" stroke-dasharray="" stroke-dashoffset="0" style="mix-blend-mode: normal"><path d="M254.78261,172.44859l-2.32648,-0.91514c-1.28488,-0.50541 -1.91676,-1.95674 -1.41135,-3.24162c0.22928,-0.58287 0.65322,-1.03138 1.16797,-1.30027l3.99795,-2.11914c0.08297,-0.10949 0.17821,-0.21946 0.28701,-0.32952c1.75759,-1.77788 3.53547,-0.02029 3.53547,-0.02029c0.8564,0.84672 5.68215,5.29519 5.39799,6.5537c-1.43643,6.36197 -7.63953,2.55591 -10.64857,1.37229z" data-paper-data="{&quot;index&quot;:null}" fill="#ce9c52" stroke="none" stroke-width="0.5" stroke-linecap="butt"/><path d="M240.96285,176.37426c-0.58189,0.08754 -1.1692,0.11219 -1.7598,0.06374c-4.52084,-0.3709 -6.91095,-3.89958 -6.80948,-7.76331c-0.01322,-0.19538 -0.0232,-0.38923 -0.0311,-0.58024c-0.18443,-4.45604 1.72644,-10.18489 6.96812,-10.90673c0.81363,-0.74773 2.0036,-0.97871 3.05105,-1.34496c1.80942,-0.63269 3.60727,-1.48523 5.5199,-1.6122c5.87804,-0.39022 10.06577,4.83555 9.01955,10.45424c-0.27303,1.46625 -1.3235,2.68095 -2.1367,3.9312c-2.79689,4.30002 -8.48224,7.99495 -13.82155,7.75827zM237.71143,169.76985c0.00842,0.01028 0.01686,0.0205 0.02528,0.03065c-0.12576,-0.26684 -0.24047,-0.5418 -0.34615,-0.81963c0.04558,0.29253 0.13786,0.5659 0.32087,0.78897z" data-paper-data="{&quot;index&quot;:null}" fill="#000000" stroke="none" stroke-width="0.5" stroke-linecap="butt"/><path d="M267.27905,184.55942l-25.86202,-11.28743" data-paper-data="{&quot;index&quot;:null}" fill="none" stroke="#000000" stroke-width="7" stroke-linecap="round"/><path d="M227.26515,142.73994l14.28787,24.33325" data-paper-data="{&quot;index&quot;:null}" fill="none" stroke="#000000" stroke-width="7" stroke-linecap="round"/><path d="M258.28452,169.48203l-2.23696,1.11625c-1.23543,0.61649 -2.73672,0.11473 -3.35321,-1.1207c-0.27966,-0.56044 -0.32921,-1.1756 -0.18453,-1.73804l1.10093,-4.38888c-0.02583,-0.13493 -0.0438,-0.27929 -0.05277,-0.43379c-0.14481,-2.4958 2.35099,-2.64062 2.35099,-2.64062c1.20229,-0.0697 7.73729,-0.6784 8.48225,0.37498c3.76596,5.325 -3.21347,7.38707 -6.10671,8.83081z" data-paper-data="{&quot;index&quot;:null}" fill="#ffc366" stroke="none" stroke-width="0.5" stroke-linecap="butt"/><path d="M251.36019,160.08503c-1.23543,0.61649 -2.73672,0.11473 -3.35321,-1.1207c-0.61649,-1.23543 -0.11473,-2.73672 1.12071,-3.35321c1.23543,-0.61649 2.73672,-0.11473 3.35321,1.1207c0.61649,1.23543 0.11473,2.73672 -1.12071,3.35321z" data-paper-data="{&quot;index&quot;:null}" fill="#ffffff" stroke="none" stroke-width="0.5" stroke-linecap="butt"/><path d="M248.89553,166.34406c-1.23543,0.61649 -2.73672,0.11473 -3.35321,-1.12071c-0.61649,-1.23543 -0.11473,-2.73672 1.12071,-3.35321c1.23543,-0.61649 2.73672,-0.11473 3.35321,1.1207c0.61649,1.23543 0.11473,2.73673 -1.1207,3.35322z" data-paper-data="{&quot;index&quot;:null}" fill="#ffffff" stroke="none" stroke-width="0.5" stroke-linecap="butt"/><path d="M234.13562,168.68018c4.07694,-2.03441 8.43147,-1.58044 9.72609,1.01397c1.29462,2.59441 -0.96088,6.34683 -5.03782,8.38125c-4.07694,2.03441 -8.43147,1.58044 -9.72609,-1.01397c-1.29462,-2.59441 0.96088,-6.34683 5.03783,-8.38125z" data-paper-data="{&quot;index&quot;:null}" fill="#000000" stroke="#000000" stroke-width="7" stroke-linecap="butt"/><path d="M249.16106,183.51774c-1.31396,2.12685 -3.44081,0.81287 -3.44081,0.81287l-1.4907,-0.9505c-0.76377,-0.33332 -1.52752,-0.66666 -2.29129,-0.99998c0,0 -2.2913,-0.99998 -1.29132,-3.29128c0.99998,-2.2913 3.29128,-1.29131 3.29128,-1.29131c0.76377,0.33332 1.52753,0.66666 2.2913,0.99998l2.11868,1.27939c0,0 2.12685,1.31396 0.81287,3.44081z" data-paper-data="{&quot;index&quot;:null}" fill="#ff9400" stroke="none" stroke-width="0.5" stroke-linecap="butt"/><path d="M242.13181,186.1501c-1.55631,1.9565 -3.51281,0.40019 -3.51281,0.40019l-0.3913,-0.31126c-1.06407,-0.88578 -2.36367,-1.52114 -3.69759,-1.89195c0,0 -2.39456,-0.71837 -1.6762,-3.11294c0.71837,-2.39456 3.11294,-1.6762 3.11294,-1.6762c1.92142,0.6064 3.77781,1.53786 5.37348,2.76808l0.3913,0.31126c0,0 1.9565,1.55631 0.4002,3.51281z" data-paper-data="{&quot;index&quot;:null}" fill="#ff9400" stroke="none" stroke-width="0.5" stroke-linecap="butt"/></g></g></svg>