<svg version="1.1" xmlns="http://www.w3.org/2000/svg" xmlns:xlink="http://www.w3.org/1999/xlink" width="100.92939" height="111.86136" viewBox="0,0,100.92939,111.86136"><defs><linearGradient x1="226.89109" y1="187.21293" x2="205.38973" y2="193.62243" gradientUnits="userSpaceOnUse" id="color-1"><stop offset="0" stop-color="#000000"/><stop offset="1" stop-color="#000000" stop-opacity="0"/></linearGradient><linearGradient x1="250.55653" y1="174.82157" x2="251.21399" y2="176.71041" gradientUnits="userSpaceOnUse" id="color-2"><stop offset="0" stop-color="#008cff"/><stop offset="1" stop-color="#008cff" stop-opacity="0"/></linearGradient><linearGradient x1="258.0595" y1="164.5231" x2="262.92317" y2="178.49621" gradientUnits="userSpaceOnUse" id="color-3"><stop offset="0" stop-color="#008cff"/><stop offset="1" stop-color="#008cff" stop-opacity="0"/></linearGradient><linearGradient x1="238.40442" y1="171.52021" x2="243.2681" y2="185.49331" gradientUnits="userSpaceOnUse" id="color-4"><stop offset="0" stop-color="#008cff"/><stop offset="1" stop-color="#008cff" stop-opacity="0"/></linearGradient></defs><g transform="translate(-202.60265,-149.45676)"><g data-paper-data="{&quot;isPaintingLayer&quot;:true}" fill-rule="nonzero" stroke-linejoin="miter" stroke-miterlimit="10" stroke-dasharray="" stroke-dashoffset="0" style="mix-blend-mode: normal"><path d="M274.80506,242.35932l-10.36855,-16.83627l7.41288,-7.09577l13.26636,16.60659c0,0 -2.32884,6.71948 -3.64081,7.54225c-1.25533,0.78724 -6.66987,-0.21683 -6.66987,-0.21683z" fill="#000000" stroke="#0f0f0f" stroke-width="1" stroke-linecap="butt"/><path d="M246.73187,245.89203l6.25226,-20.36456l10.4146,1.15097l-4.41097,22.33848c0,0 -6.63084,2.57035 -8.10695,2.10201c-1.41237,-0.44813 -4.14896,-5.22687 -4.14896,-5.22687z" fill="#000000" stroke="#0f0f0f" stroke-width="1" stroke-linecap="butt"/><path d="M272.49996,169.48378c3.84262,12.89047 -3.96283,26.59563 -17.43396,30.61133c-13.47112,4.0157 -27.50668,-3.17871 -31.34928,-16.06918c-3.84262,-12.89047 3.96283,-26.59563 17.43396,-30.61133c13.47112,-4.0157 27.50668,3.17871 31.34928,16.06918z" fill="none" stroke="#000000" stroke-width="4.5" stroke-linecap="butt"/><path d="M249.76468,202.587l-28.28728,8.18849c0,0 -2.4011,0.36166 -2.32636,-0.60132c0.1714,-2.20818 3.334,-12.38055 3.334,-12.38055l-12.33364,-0.46925c0,0 -2.29883,-0.25786 -2.91893,-1.22005c-0.57686,-0.89509 7.66733,-13.12081 7.66733,-13.12081c0,0 -8.95367,-1.09757 -11.66565,-2.35628c-1.06492,-0.49427 8.78106,-11.41236 16.02301,-17.46188c3.5437,-2.9602 8.30159,-7.24557 12.58806,-9.28539c7.10726,-3.38217 13.51009,-2.8994 13.51009,-2.8994" fill="none" stroke="#000000" stroke-width="3" stroke-linecap="round"/><path d="M219.68562,211.3096c0,0 -0.90912,-1.19392 -0.28305,-3.39746c0.78418,-2.75999 4.97335,-7.40095 2.71381,-9.19154c-2.927,-2.31953 -14.88047,1.72109 -14.49136,-2.40919c0.3195,-3.39145 7.64257,-11.27605 7.05082,-13.26114c-0.59044,-1.98071 -4.60875,0.52912 -7.90504,-1.35896c-4.68803,-2.68525 -2.96639,-3.20429 -2.96639,-3.20429c0,0 9.0975,-10.50931 13.85703,-14.48135c4.4655,-3.72666 13.87435,-8.66168 13.87435,-8.66168c0,0 -10.38515,17.44056 -10.12863,25.7628c0.28436,9.22534 22.42438,22.02949 22.42438,22.02949z" data-paper-data="{&quot;index&quot;:null}" fill="url(#color-1)" stroke="none" stroke-width="0" stroke-linecap="butt"/><path d="M260.53247,217.0825l-4.28399,-15.30844" fill="none" stroke="#000000" stroke-width="6" stroke-linecap="round"/><path d="M225.5939,209.02664c0.11657,-0.34288 31.13177,-5.72167 31.13177,-5.72167c0,0 7.73426,2.89235 10.90639,3.20831c1.99207,0.19843 4.70806,-1.79042 4.70806,-1.79042" fill="none" stroke="#000000" stroke-width="6" stroke-linecap="round"/><path d="M256.23978,256.39023c-0.85021,1.04533 -3.92786,4.5134 -6.34809,4.32012c-2.26546,-0.18092 -3.88603,-3.93122 -4.52078,-5.61619c-1.04905,-2.78473 1.12543,-9.75045 1.21821,-10.48137c0.03021,-0.23812 0.56139,2.62857 1.81429,4.28496c0.933,1.23346 4.69475,1.83506 5.97902,1.45998c2.09033,-0.61049 5.56967,-3.11016 5.50185,-2.57591c0,0 -1.5341,6.01367 -3.64449,8.60842z" fill="#000000" stroke="#001026" stroke-width="1.2" stroke-linecap="butt"/><path d="M267.28474,202.72266c0.08372,0.24052 -1.35964,0.63356 -1.24876,1.39581c0.12846,0.88312 0.47102,2.50492 1.17034,3.56081c0.70196,1.05988 1.76006,1.55233 1.55686,1.62306c-0.8867,0.30864 -3.43236,-0.83636 -4.23725,-3.14876c-0.80488,-2.31238 -3.3379,-4.09711 -2.4512,-4.40574c0.15253,-0.05309 5.13972,0.77289 5.21,0.97482z" fill="#000000" stroke="#0f0f0f" stroke-width="1" stroke-linecap="butt"/><g data-paper-data="{&quot;index&quot;:null}" fill="#000000" stroke="#000000" stroke-width="1.2" stroke-linecap="butt"><path d="M283.90341,208.33374c-1.11153,1.05487 -3.8597,1.00189 -5.61057,1.69919c-1.88508,0.75073 -2.66811,2.15631 -3.99344,1.90877c-0.92573,-0.17291 -1.5621,-1.3114 -1.81395,-1.94377c-0.61241,-1.53769 1.4867,-3.81795 4.68847,-5.09308c3.20177,-1.27515 6.29379,-1.06229 6.90618,0.47539c0.27751,0.6968 0.74438,2.07935 -0.17668,2.95348z"/><path d="M284.47921,204.985c-1.5632,1.45673 -6.37945,2.50191 -6.37945,2.50191c0,0 -2.53542,1.99437 -2.60193,2.01952c-4.23797,1.60306 -5.34506,-1.04126 -6.55093,-4.06913c-0.57393,-1.44106 -0.87213,-3.88971 0.1318,-5.20209c1.13858,-1.48839 3.40179,-1.8816 5.75254,-2.8178c4.4235,-1.76168 8.90981,-1.43518 10.13461,1.64021c0.53915,1.35377 1.60117,3.98175 -0.48665,5.92738z"/></g><path d="M252.1787,230.15408c0,0 -2.34176,-24.17115 -1.00944,-26.30047c0.39119,-0.6252 10.30211,-3.62709 10.30211,-3.62709l13.6781,22.52195z" fill="#000000" stroke="#0f0f0f" stroke-width="1" stroke-linecap="butt"/><path d="M279.52439,246.65038c-1.99969,-0.05449 -4.18905,-2.78265 -5.05868,-4.19634c-0.08341,-0.13561 3.28693,-1.09254 5.70689,-2.96842c0.63647,-0.49338 3.14792,-2.35335 3.72899,-3.71409c0.72156,-1.68978 -0.52313,-2.87716 -0.15296,-2.86588c0.1386,0.00423 10.04373,-1.45723 11.44735,0.48184c0.22668,0.31316 0.39578,1.58667 -0.04258,2.7633c-0.3832,1.02857 -1.34846,1.97938 -1.59596,2.19914c-4.11853,3.65706 -12.83575,8.33306 -14.03305,8.30044z" fill="#000000" stroke="#001026" stroke-width="1.2" stroke-linecap="butt"/><path d="M269.96567,213.35443l-2.11739,-5.61607l22.3458,-8.20153l2.16962,6.2332" fill="none" stroke="#000000" stroke-width="1" stroke-linecap="round"/><path d="M270.40727,229.08341l-5.19393,-14.9219l32.48819,-11.3083l5.19393,14.9219z" fill="#62ffff" stroke="#000000" stroke-width="1" stroke-linecap="butt"/><path d="M279.55404,217.64066c0.90776,2.60795 -0.5128,5.47273 -3.17291,6.39864c-2.66011,0.92592 -5.55245,-0.43765 -6.46021,-3.0456c-0.90776,-2.60795 0.5128,-5.47273 3.17291,-6.39864c2.66011,-0.92592 5.55245,0.43765 6.46021,3.0456z" fill="#8e8888" stroke="#000000" stroke-width="1" stroke-linecap="butt"/><path d="M297.87582,211.26332c0.90776,2.60795 -0.38595,5.42857 -2.88959,6.30002c-2.50364,0.87145 -5.26912,-0.53627 -6.17688,-3.14422c-0.90776,-2.60795 0.38595,-5.42857 2.88959,-6.30002c2.50364,-0.87145 5.26912,0.53627 6.17688,3.14422z" fill="#8e8888" stroke="#000000" stroke-width="1" stroke-linecap="butt"/><path d="M289.27012,218.17648c0.23602,0.67807 -1.26398,1.81646 -3.35035,2.54267c-2.08637,0.72621 -3.96903,0.76524 -4.20504,0.08717c-0.23602,-0.67807 1.26398,-1.81646 3.35035,-2.54267c2.08637,-0.72621 3.96903,-0.76524 4.20504,-0.08717z" fill="#8e8888" stroke="#000000" stroke-width="1" stroke-linecap="butt"/><path d="M245.18747,169.38436c0,0 1.89027,-1.21955 2.92425,-1.59642c1.11117,-0.405 3.52786,-0.75528 3.52786,-0.75528" fill="url(#color-2)" stroke="#705021" stroke-width="2" stroke-linecap="round"/><g stroke="#705021" stroke-width="2" stroke-linecap="butt"><path d="M269.02017,176.06924c-0.14839,0.20509 -12.11812,4.65304 -12.37668,4.54416c-0.57789,-0.24337 -5.48141,-13.06734 -5.32047,-13.54317c0.11042,-0.32647 13.28339,-4.85051 13.49721,-4.77157c0.53836,0.19876 4.63476,13.16962 4.19993,13.77058z" fill="url(#color-3)"/><path d="M231.7236,173.97442c0.1186,-0.19466 13.25361,-4.82773 13.54288,-4.64038c0.4216,0.27307 4.54052,13.37013 4.23865,13.91972c-0.13506,0.2459 -12.27964,4.19151 -12.52331,4.12289c-0.714,-0.20108 -5.55681,-12.91215 -5.25822,-13.40223z" data-paper-data="{&quot;index&quot;:null}" fill="url(#color-4)"/></g><path d="M243.15886,209.04413c0,0 2.32498,-0.94623 1.66634,-1.84402c-0.07307,-0.09959 -2.5684,-3.25414 -2.5684,-3.25414l6.26702,0.57187c0,0 2.0937,-1.06568 2.6391,-0.8245c0.49098,0.21711 0.48722,2.20696 0.48722,2.20696c0,0 0.10368,3.6002 -0.58054,4.89603c-0.66287,1.25541 -7.91071,-1.75219 -7.91071,-1.75219z" fill="#000000" stroke="#0f0f0f" stroke-width="1" stroke-linecap="butt"/><path d="M251.88031,243.26007c-0.0763,1.00306 -0.83968,1.76282 -1.70506,1.69699c-0.86538,-0.06582 -1.50506,-0.93232 -1.42875,-1.93538c0.0763,-1.00306 0.83968,-1.76282 1.70506,-1.69699c0.86538,0.06582 1.50506,0.93232 1.42875,1.93538z" fill="#ff0000" stroke="#0f0f0f" stroke-width="0" stroke-linecap="butt"/><path d="M256.5422,237.91255c-0.0763,1.00305 -0.83968,1.76282 -1.70506,1.69699c-0.86537,-0.06582 -1.50506,-0.93232 -1.42875,-1.93538c0.0763,-1.00305 0.83968,-1.76282 1.70506,-1.69699c0.86537,0.06582 1.50506,0.93232 1.42875,1.93538z" fill="#ff0000" stroke="#0f0f0f" stroke-width="0" stroke-linecap="butt"/><path d="M255.66649,231.15524c-0.0763,1.00305 -0.83968,1.76282 -1.70506,1.69699c-0.86537,-0.06582 -1.50506,-0.93232 -1.42875,-1.93538c0.0763,-1.00305 0.83968,-1.76282 1.70506,-1.69699c0.86537,0.06582 1.50506,0.93232 1.42875,1.93538z" fill="#ff0000" stroke="#0f0f0f" stroke-width="0" stroke-linecap="butt"/><path d="M258.64647,243.77475c-0.0763,1.00305 -0.83968,1.76282 -1.70506,1.69699c-0.86537,-0.06582 -1.50506,-0.93232 -1.42875,-1.93538c0.0763,-1.00305 0.83968,-1.76282 1.70506,-1.69699c0.86537,0.06582 1.50506,0.93232 1.42875,1.93538z" fill="#ff0000" stroke="#0f0f0f" stroke-width="0" stroke-linecap="butt"/><path d="M261.28846,232.58576c-0.0763,1.00305 -0.83968,1.76282 -1.70506,1.69699c-0.86537,-0.06582 -1.50506,-0.93232 -1.42875,-1.93538c0.0763,-1.00305 0.83968,-1.76282 1.70506,-1.69699c0.86537,0.06582 1.50506,0.93232 1.42875,1.93538z" fill="#ff0000" stroke="#0f0f0f" stroke-width="0" stroke-linecap="butt"/><path d="M275.15473,232.25387c0.57092,0.81382 0.41065,1.91068 -0.35797,2.44987c-0.76861,0.53919 -1.85452,0.31656 -2.42543,-0.49726c-0.57092,-0.81382 -0.41065,-1.91068 0.35797,-2.44987c0.76861,-0.53919 1.85452,-0.31656 2.42543,0.49726z" fill="#ff0000" stroke="none" stroke-width="0" stroke-linecap="butt"/><path d="M277.29232,227.63942c0.52334,0.74601 0.3245,1.78788 -0.44411,2.32707c-0.76861,0.53919 -1.81595,0.37155 -2.33929,-0.37447c-0.52334,-0.74601 -0.3245,-1.78788 0.44411,-2.32707c0.76861,-0.53919 1.81595,-0.37155 2.33929,0.37447z" fill="#ff0000" stroke="none" stroke-width="0" stroke-linecap="butt"/><path d="M278.71412,236.10884c0.50748,0.72341 0.31411,1.73409 -0.43189,2.25742c-0.74601,0.52334 -1.76216,0.36116 -2.26964,-0.36224c-0.50748,-0.72341 -0.31411,-1.73409 0.43189,-2.25742c0.74601,-0.52334 1.76216,-0.36116 2.26964,0.36224z" fill="#ff0000" stroke="none" stroke-width="0" stroke-linecap="butt"/><path d="M270.8328,227.70229c0.23602,0.67807 -0.10119,1.41172 -0.75318,1.63866c-0.65199,0.22694 -1.37186,-0.13877 -1.60788,-0.81684c-0.23602,-0.67807 0.10119,-1.41172 0.75318,-1.63866c0.65199,-0.22694 1.37186,0.13877 1.60788,0.81684z" fill="#ff0000" stroke="none" stroke-width="0" stroke-linecap="butt"/><path d="M246.1096,192.54418c0,0 -6.13825,1.9125 -7.92797,1.75122c-1.46272,-0.13182 -2.02861,-2.64848 -2.02861,-2.64848" fill="none" stroke="#000000" stroke-width="1.5" stroke-linecap="round"/><path d="M236.59813,174.53515l8.44982,3.2163l-4.21764,5.57303" fill="none" stroke="#000000" stroke-width="2.5" stroke-linecap="round"/><path d="M263.5716,174.52918l-6.84596,-1.13564l4.70599,-8.38192" fill="none" stroke="#000000" stroke-width="2.5" stroke-linecap="round"/></g></g></svg>