<svg version="1.1" xmlns="http://www.w3.org/2000/svg" xmlns:xlink="http://www.w3.org/1999/xlink" width="85.2099" height="116.74267" viewBox="0,0,85.2099,116.74267"><defs><linearGradient x1="218.71665" y1="191.56924" x2="218.71665" y2="194.38433" gradientUnits="userSpaceOnUse" id="color-1"><stop offset="0" stop-color="#737373"/><stop offset="1" stop-color="#000000"/></linearGradient></defs><g transform="translate(-195.45937,-126.97681)"><g data-paper-data="{&quot;isPaintingLayer&quot;:true}" stroke-miterlimit="10" stroke-dasharray="" stroke-dashoffset="0" style="mix-blend-mode: normal"><g fill="none" fill-rule="nonzero" stroke="none" stroke-width="1" stroke-linecap="butt" stroke-linejoin="miter" font-family="sans-serif" font-weight="normal" font-size="12" text-anchor="start"><g><g data-paper-data="{&quot;index&quot;:null}"/></g><g data-paper-data="{&quot;index&quot;:null}"/><g data-paper-data="{&quot;index&quot;:null}"/></g><g fill="none" fill-rule="nonzero" stroke="none" stroke-width="1" stroke-linecap="butt" stroke-linejoin="miter" font-family="sans-serif" font-weight="normal" font-size="12" text-anchor="start"><g><g/><g><g/></g><g/></g><g/></g><path d="" fill="#2b1900" fill-rule="nonzero" stroke="#150c00" stroke-width="3" stroke-linecap="butt" stroke-linejoin="miter"/><path d="M230.08733,194.73565c0,2.41978 -3.13967,4.38139 -7.01265,4.38139c-2.06328,0 -5.75152,1.65297 -8.01968,0.46487c-1.98939,-1.04209 -2.72385,-4.89242 -2.50769,-5.54387c0.67429,-2.03206 7.52608,-2.93412 9.8231,-2.93412c3.87298,0 7.71693,1.21196 7.71693,3.63173z" fill="#ffffff" fill-rule="nonzero" stroke="#737373" stroke-width="1" stroke-linecap="butt" stroke-linejoin="miter"/><path d="M234.29066,206.50769l1.00662,-15.51061" fill="none" fill-rule="nonzero" stroke="#000000" stroke-width="6" stroke-linecap="round" stroke-linejoin="miter"/><path d="M214.49564,209.60216c0,0 5.46922,-7.25574 6.17292,-8.11957c1.27418,-1.56413 14.77917,-9.70079 14.77917,-9.70079c0,0 5.86873,6.84561 7.89324,8.83256c1.91075,1.8753 6.88364,2.77358 6.88364,2.77358" fill="none" fill-rule="nonzero" stroke="#000000" stroke-width="6" stroke-linecap="round" stroke-linejoin="miter"/><g><g><g stroke="#262626" stroke-width="1.2"><path d="M243.60857,205.23856l2.98278,25.40577c0,0 7.20719,-3.09485 7.0358,3.84683c-0.00978,0.39574 0.3878,3.83807 -2.5896,4.40673c-2.85175,0.54464 -9.03631,1.72985 -11.11345,1.4207c-0.96474,-0.14359 -2.43431,-0.76992 -3.3735,-1.84234c-0.94559,-1.07976 -0.84345,-2.65008 -0.84281,-3.53346c0.00026,-0.3598 -2.12197,-28.65037 -2.12197,-28.65037" fill="#ffffff" fill-rule="evenodd" stroke-linecap="round" stroke-linejoin="round"/><path d="M233.40774,212.02169c0.17565,-7.11409 5.63135,-7.23721 8.47387,-7.1728c1.23604,0.02801 1.069,-1.87335 2.16284,3.69086c0.2409,1.22546 0.71431,6.25638 1.72666,10.5385c0.69322,2.93223 1.99351,5.52139 2.23644,6.26524c0.57397,1.75755 0.33785,3.35974 0.33785,3.35974l-1.0407,-1.16441c0,0 0.68577,0.81148 0.9604,1.29567c0.85557,1.50836 1.51002,0.98103 1.51002,0.98103c0,0 -7.269,1.21606 -10.10015,3.43497c-2.83114,2.21891 -1.42825,6.39535 -1.42825,6.39535c0,0 -5.3856,-0.7928 -5.81719,-3.63913c-0.1064,-0.7017 0.7289,-2.78983 0.7289,-2.78983c0,0 -0.6158,0.11811 -0.63575,-0.36775c-0.01017,-0.24768 0.81497,-3.92184 0.9983,-8.05506c0.24134,-5.44109 -0.13858,-11.74735 -0.11327,-12.77237z" fill="#000000" fill-rule="nonzero" stroke-linecap="butt" stroke-linejoin="miter"/></g><path d="M224.16718,206.97124c-0.01005,-0.20883 1.22324,0.40686 4.01782,0.47801c3.68677,0.09388 9.33294,-0.32612 10.92061,-0.54101c4.11709,-0.55724 4.8138,-2.04046 4.84045,-1.48689c0.09864,2.04852 -2.23012,5.8431 -6.94004,6.05123c-2.06978,0.09146 -6.30325,0.77745 -8.70058,0.05623c-3.05792,-0.91996 -4.08296,-3.40931 -4.13826,-4.55759z" fill="#004fd9" fill-rule="nonzero" stroke="#001026" stroke-width="1.2" stroke-linecap="butt" stroke-linejoin="miter"/><g fill-rule="nonzero" stroke-linecap="butt" stroke-linejoin="miter"><g fill="none" stroke="none" stroke-width="1" font-family="sans-serif" font-weight="normal" font-size="12" text-anchor="start"/><path d="M223.67038,205.63893c0,0 8.84668,1.28957 12.91199,1.27159c4.0653,-0.01798 7.41457,-1.36149 7.41457,-1.36149c0,0 0.032,2.00519 -1.78098,3.95674c-1.40336,1.51061 -4.10046,3.07551 -7.58652,3.10871c-3.1759,0.03025 -6.71908,-0.60891 -8.47294,-1.92047c-2.65833,-1.98794 -2.48611,-5.05509 -2.48611,-5.05509z" fill="#000000" stroke="#262626" stroke-width="1.2"/></g><g stroke-width="1.2"><path d="M233.44347,210.72129c0,0 -3.45289,29.55453 -4.08297,29.65209c-1.80818,0.27994 -11.71711,-2.22678 -11.71711,-2.22678l6.36943,-29.71435" data-paper-data="{&quot;index&quot;:null}" fill="#ffab19" fill-rule="evenodd" stroke="#001026" stroke-linecap="round" stroke-linejoin="round"/><path d="M234.96948,210.24479c0,0 -0.8066,6.24968 -1.04485,9.5634c-0.2285,3.17836 -0.35661,9.92981 -0.35661,9.92981c0,0 0.96861,4.90578 0.02162,6.11554c-0.43861,0.56032 -0.78423,-2.76971 -0.78423,-2.76971c0,0 0.38583,3.75412 0.42382,4.08501c0.26507,2.3087 -0.94462,5.34048 -4.11454,5.62851c-3.48037,0.31624 -9.2503,0.67341 -12.22475,-1.15313c-1.26558,-0.77717 -2.97987,-3.06489 -2.51848,-5.50192c0.52032,-2.74834 3.31459,-5.62754 3.31459,-5.62754l-2.56759,3.13847c0,0 -0.02677,-1.56709 0.39101,-2.71664c0.46917,-1.29094 2.28778,-4.65411 2.28778,-4.65411l5.51299,-18.92739" data-paper-data="{&quot;index&quot;:null}" fill="#000000" fill-rule="evenodd" stroke="#262626" stroke-linecap="round" stroke-linejoin="round"/><path d="M231.7456,238.53076c-0.08724,1.65947 -0.7989,3.58754 -2.34356,4.58872c-1.5504,1.00489 -10.86832,0.60666 -12.30882,-0.62145c-1.36799,-1.1663 -1.92525,-3.32196 -1.8401,-4.94159c0.17481,-3.32509 4.00847,-5.80252 8.56276,-5.53346c4.55426,0.26905 8.10453,3.18269 7.9297,6.5078z" fill="#ffffff" fill-rule="nonzero" stroke="#262626" stroke-linecap="butt" stroke-linejoin="miter"/></g></g><g fill="none" fill-rule="nonzero" stroke="none" stroke-width="1" stroke-linecap="butt" stroke-linejoin="miter" font-family="sans-serif" font-weight="normal" font-size="12" text-anchor="start"/></g><g fill-rule="nonzero" stroke-linecap="butt" stroke-linejoin="miter"><g data-paper-data="{&quot;index&quot;:null}" stroke="none" stroke-width="1"><path d="M255.40159,191.58958c-0.19843,-0.08263 -0.22714,-0.22493 -0.22984,-0.39763c0.01854,-0.2728 0.09404,-0.53673 0.13165,-0.80657c-0.04641,-0.05892 -0.0928,-0.11785 -0.14272,-0.16007c-1.01558,-0.95084 -1.4355,-2.119 -1.64063,-3.37431c-0.04201,-0.26499 -0.10302,-0.533 -0.04646,-0.79985c0.01063,-0.05003 0.00575,-0.11972 -0.02523,-0.15901c-0.17016,-0.21605 -0.12423,-0.43289 -0.09375,-0.66939c0.02339,-0.20311 0.0848,-0.40032 0.12721,-0.60047c0.02474,-0.11675 0.08747,-0.2276 0.21916,-0.29326c0.13168,-0.06562 0.21696,-0.19019 0.29867,-0.29806c0.39544,-0.66206 0.91328,-1.25338 1.53452,-1.77689c0.3557,-0.28919 0.75425,-0.50279 1.17182,-0.7134c1.23018,-0.61818 2.5607,-0.87612 3.95224,-0.86611c0.62573,0.01135 1.25279,0.10903 1.8657,0.27343c0.46442,0.12405 0.86614,0.35896 1.24532,0.60755c1.20648,0.79105 1.98122,1.8594 2.42144,3.1169c0.08706,0.23757 0.11009,0.49959 0.13309,0.76163c0.02168,0.17567 0.06589,0.33765 0.23469,0.46734c0.15331,0.11006 0.19754,0.272 0.20021,0.4447c-0.01854,0.2728 -0.07509,0.53968 -0.13165,0.80656c-0.01767,0.08342 -0.06981,0.14423 -0.12198,0.20501c-0.22047,0.20687 -0.3305,0.44819 -0.40601,0.71214c-0.13914,0.56418 -0.46125,1.06535 -0.76436,1.5695c-0.11843,0.18833 -0.25581,0.37368 -0.42768,0.53645c-0.54523,0.53535 -1.10244,1.03439 -1.80942,1.40671c-0.053,0.25019 -0.12856,0.51411 -0.18506,0.781c-0.02121,0.1001 -0.04594,0.21684 -0.17409,0.26578c-0.10913,0.0519 -0.11136,0.15497 -0.13254,0.25503c-0.16032,0.66423 -0.30169,1.33143 -0.46202,1.99566c-0.33353,1.48156 -0.67051,2.9798 -1.04202,4.45543c-0.36445,1.44228 -0.67182,2.89344 -0.99828,4.34163c-0.04946,0.23353 -0.13343,0.44443 -0.18287,0.67794c-0.24028,1.13424 -0.48059,2.26848 -0.73986,3.39976c-0.0424,0.20015 -0.04682,0.40623 -0.1997,0.57193c-0.05215,0.06083 -0.05081,0.14714 -0.06849,0.23055c-0.17665,0.83402 -0.37589,1.68173 -0.55257,2.51574c-0.00707,0.03336 -0.01769,0.08339 -0.02474,0.11675c-0.03752,0.26985 -0.19882,0.38257 -0.48959,0.45788c-0.97435,0.24451 -1.92662,0.19954 -2.85686,-0.13489c-0.23642,-0.08853 -0.46576,-0.21041 -0.66906,-0.36268c-0.15332,-0.11006 -0.20108,-0.25532 -0.18477,-0.42506c0.04902,-0.50928 0.07901,-1.02152 0.13156,-1.54749c0.03974,-0.3729 0.12101,-0.75654 0.10373,-1.13829c-0.0394,-0.83319 0.15274,-1.64757 0.17031,-2.47186c0.01938,-0.46219 -0.00276,-0.91366 0.03564,-1.37291c0.04547,-0.49259 0.04941,-0.97445 0.07231,-1.4533c0.04722,-0.87141 0.13596,-1.75357 0.16414,-2.62793c0.00875,-1.15306 0.09346,-2.29435 0.1782,-3.43557c0.02428,-0.39255 0.0485,-0.78501 0.07279,-1.17755c0.05118,-0.61234 0.10594,-1.2413 0.15715,-1.85361c0.03265,-0.33953 0.02381,-0.6683 0.05644,-1.0078c0.01721,-0.3592 0.08433,-0.67606 0.12408,-1.04898zM255.92608,191.43006c0.20682,0.13561 0.4207,0.23787 0.66417,0.29305c0.46226,0.22708 0.96823,0.34037 1.47421,0.45365c0.63547,0.15069 1.30405,0.23762 1.95366,0.32157c0.7446,0.09877 1.46754,0.02186 2.21304,-0.06875c0.08308,-0.02153 0.16614,-0.04303 0.29074,-0.07531c0.02829,-0.13342 0.0565,-0.26688 0.08478,-0.4003c0.00707,-0.03336 -0.00486,-0.06968 -0.01327,-0.12267c-0.13301,-0.02074 -0.26956,-0.02477 -0.40964,-0.01214c-0.23863,0.01453 -0.45117,-0.00139 -0.68977,0.01312c-0.59125,0.01126 -1.16975,-0.13051 -1.75038,-0.16928c-0.30757,-0.03066 -0.62217,-0.02804 -0.92266,-0.09206c-0.65447,-0.15364 -1.32659,-0.2239 -1.96688,-0.44426c-0.16396,-0.06002 -0.3469,-0.12293 -0.51086,-0.18298c-0.0548,-0.11195 -0.2139,-0.10223 -0.30184,-0.15041c-0.10339,-0.06781 -0.20684,-0.13561 -0.41936,-0.15147c0.08706,0.23757 -0.01587,0.44553 0.01772,0.65752c0.09148,0.0315 0.14628,0.14339 0.28637,0.13075zM256.56597,192.11559c-0.40524,-0.21823 -0.5157,-0.25264 -0.76981,-0.25778c-0.02339,0.20311 -0.04325,0.38958 -0.06667,0.59269c-0.02474,0.11675 0.03356,0.212 0.13702,0.27982c0.06897,0.04522 0.16395,0.06 0.23289,0.1052c0.26029,0.1612 0.57273,0.26153 0.88028,0.29222c0.11537,0.1041 0.26733,0.12782 0.41938,0.1515c0.85153,0.1499 1.68058,0.31349 2.54978,0.38c0.38711,0.02586 0.77777,0.03504 1.15291,0.02454c0.2992,-0.02232 0.61734,-0.04167 0.88776,-0.20631c0.04593,-0.21686 0.09183,-0.43368 0.13779,-0.65054c-0.15906,0.00966 -0.29919,0.0223 -0.42022,0.03789c-0.56032,0.05052 -1.11356,0.06774 -1.65269,0.0182c-0.69465,-0.05654 -1.37167,-0.19648 -2.05219,-0.31972c-0.32306,-0.05033 -0.60588,-0.19775 -0.93243,-0.23141c-0.14628,-0.14339 -0.33276,-0.18968 -0.50376,-0.21633zM254.98932,211.04746c0.24482,0.14153 0.50729,0.19967 0.77684,0.22442c0.01545,0.01963 0.04995,0.04224 0.06897,0.0452c0.45958,0.05437 0.92622,0.07538 1.37606,-0.00961c0.26474,-0.04491 0.52585,-0.07314 0.75471,-0.22703c0.19789,-0.93409 0.39573,-1.86814 0.60427,-2.85229c-0.49489,0.11241 -0.96866,0.12481 -1.43878,0.12045c-0.4132,0.00456 -0.78261,-0.1047 -1.18872,-0.1335c-0.15201,-0.02367 -0.2815,-0.06106 -0.43352,-0.08474c-0.21033,-0.11893 -0.44677,-0.20745 -0.72824,-0.26854c-0.10601,0.50042 -0.05292,0.99114 -0.11386,1.4641c-0.04547,0.4926 -0.07193,0.98818 -0.11385,1.46408c0.14627,0.14339 0.29122,0.20047 0.43619,0.25748zM255.22451,207.6208c0.11538,0.10409 0.26384,0.14449 0.41583,0.16815c0.13787,0.09043 0.31246,0.10039 0.4799,0.14371c0.52854,0.09956 1.07472,0.11574 1.60894,0.09559c0.31814,-0.01936 0.64339,-0.0721 0.94473,-0.19745c0.01415,-0.06672 0.04727,-0.13047 0.06137,-0.1972c0.17318,-0.81736 0.34278,-1.61794 0.53491,-2.43231c0.20274,-0.86439 0.40195,-1.71212 0.60471,-2.57652c0.28754,-1.26474 0.5906,-2.50979 0.87813,-3.77452c0.33837,-1.41188 0.61617,-2.81596 0.99255,-4.22191c0.06848,-0.23055 0.10243,-0.48372 0.15548,-0.73393c-0.22313,0.03417 -0.43434,0.10464 -0.65043,0.10542c-0.69686,0.04651 -1.39152,-0.01003 -2.07912,-0.0999c-0.60803,-0.09473 -1.21257,-0.20615 -1.81711,-0.31757c-0.23997,-0.07184 -0.46443,-0.12405 -0.70441,-0.19589c-0.13079,-0.12376 -0.30889,-0.11705 -0.45385,-0.17408c-0.16396,-0.06002 -0.30182,-0.1504 -0.49538,-0.16333c-0.07334,0.16088 -0.06361,0.30026 -0.06934,0.41995c0.00054,1.01671 -0.15448,2.02638 -0.21094,3.03417c-0.03926,0.64866 -0.07856,1.2973 -0.09877,1.94889c-0.04722,0.87141 -0.07187,1.72907 -0.11553,2.58379c-0.03084,0.70163 -0.06173,1.40328 -0.11161,2.10196c-0.04149,0.75169 -0.09843,1.48371 -0.15889,2.23246c-0.04633,0.682 -0.09618,1.38068 -0.12705,2.08232c0.16746,0.04331 0.26029,0.16116 0.41583,0.16817zM266.30606,186.25836c-0.44981,0.08498 -0.86304,0.08954 -1.27971,0.11078c-0.43572,0.01827 -0.85593,0.05621 -1.2881,0.05779c-0.4132,0.00455 -0.83832,-0.02723 -1.24794,-0.03938c-0.42867,-0.01509 -0.85729,-0.03017 -1.30138,-0.06488c-0.40608,-0.02882 -0.82768,-0.07728 -1.23379,-0.10609c-0.42155,-0.04846 -0.82901,-0.16361 -1.26473,-0.14534c-0.37781,-0.16222 -0.80999,-0.16065 -1.20552,-0.23947c-0.41094,-0.0985 -0.84804,-0.16657 -1.259,-0.26506c-0.39195,-0.09553 -0.7994,-0.21072 -1.18783,-0.32291c-0.40745,-0.11519 -0.78174,-0.29413 -1.19975,-0.35922c-0.12281,0.3944 -0.14755,0.51114 -0.05914,0.83507c0.21033,0.11893 0.42071,0.23787 0.67611,0.32933c0.31244,0.10037 0.62484,0.20074 0.95276,0.32076c0.62132,0.21743 1.2272,0.41517 1.89225,0.5188c0.45606,0.07105 0.91564,0.12541 1.35755,0.2632c0.09148,0.0315 0.20549,0.04923 0.32653,0.03364c0.23861,-0.01454 0.48212,0.04067 0.71013,0.07616c0.83609,0.13027 1.69336,0.16044 2.53519,0.17095c1.1114,0.0353 2.20949,-0.05208 3.31818,-0.18954c0.2196,-0.01749 0.43923,-0.03495 0.623,-0.1614c0.09103,-0.24428 0.12503,-0.49746 0.13517,-0.82322zM259.04987,183.07751c-0.19793,0.19316 -0.31989,0.39817 -0.46083,0.6002c-0.13389,0.16867 -0.19529,0.36588 -0.16168,0.57788c0.03274,0.40139 0.00496,0.81061 -0.09888,1.20797c-0.00707,0.03336 0.0013,0.08636 -0.00222,0.10303c0.0844,0.06482 0.16041,0.07664 0.26604,0.04144c0.02253,-0.0137 0.0486,-0.04412 0.05215,-0.06082c0.15949,-0.47485 0.35697,-0.94374 0.59246,-1.40675c0.03315,-0.06375 0.07333,-0.16087 0.04945,-0.23353c-0.01946,-0.27872 -0.03894,-0.55743 -0.2365,-0.82946zM257.37618,185.41853c0.1524,-0.44148 0.3393,-0.86034 0.54167,-1.25958c0.06624,-0.12751 0.072,-0.24724 0.04325,-0.38956c-0.05262,-0.21494 -0.15029,-0.40249 -0.24442,-0.6067c-0.02387,-0.07265 -0.04419,-0.16194 -0.16528,-0.14636c-0.15509,0.26876 -0.32563,0.51791 -0.44272,0.79255c0.17463,0.75089 0.17461,0.75087 0.02401,1.55446c0.04639,0.05893 0.11889,0.08744 0.24349,0.05517zM261.70074,187.79808c-0.13962,0.2884 -0.26023,0.57979 -0.38085,0.87114c-0.03315,0.06376 -0.06627,0.12752 -0.0614,0.19718c0.07645,0.28758 0.13398,0.57224 0.31604,0.82462c0.27042,-0.16463 0.38042,-0.40595 0.54392,-0.62173c0.08174,-0.10785 0.08392,-0.21092 0.05166,-0.33656c-0.09546,-0.29055 -0.15295,-0.57523 -0.18785,-0.87354c0.00354,-0.01669 -0.0309,-0.03929 -0.06185,-0.07854c-0.06053,0.00779 -0.14013,0.01264 -0.21962,0.01748zM262.86071,183.6195c-0.30357,0.2284 -0.47059,0.46084 -0.65659,0.69032c-0.05922,0.09416 -0.05786,0.1805 -0.05652,0.26687c0.02923,0.41808 0.00137,0.82731 -0.10595,1.24134c-0.01061,0.05003 -0.00222,0.10303 -0.0128,0.15306c0.20549,0.04925 0.24702,0.0385 0.27528,-0.09494c0.09187,-0.43371 0.27524,-0.83589 0.54651,-1.18992c0.16349,-0.21576 0.1869,-0.41888 0.13782,-0.65054c-0.05127,-0.12862 -0.08706,-0.23759 -0.12773,-0.41622zM259.61483,185.78453c0.09501,0.01478 0.12813,-0.04901 0.14228,-0.11572c0.09895,-0.46702 0.34635,-0.89371 0.5938,-1.3204c0.19173,-0.34919 0.19701,-0.74468 -0.01028,-1.15604c-0.1648,0.1294 -0.21915,0.29325 -0.34596,0.42856c-0.25716,0.28732 -0.32428,0.60423 -0.31897,0.94968c-0.00172,0.37879 0.01552,0.76059 -0.10019,1.12162c0.00843,0.05299 0.02386,0.07267 0.03934,0.0923zM261.52715,183.42897c-0.15643,0.18239 -0.27972,0.30102 -0.38397,0.42263c-0.17893,0.19614 -0.24035,0.39333 -0.21383,0.63868c0.04687,0.33468 0.01422,0.67421 -0.03744,1.01075c-0.00575,0.11974 -0.03401,0.25316 -0.05874,0.36991c0.09148,0.0315 0.12106,-0.01557 0.12813,-0.04895c0.19746,-0.46894 0.41395,-0.93486 0.70295,-1.37231c0.03667,-0.08044 0.06979,-0.1442 0.06846,-0.23055c-0.04553,-0.24833 -0.07207,-0.49368 -0.20554,-0.79015zM262.93316,187.81779c0.00888,0.32878 -0.11175,0.62011 -0.21337,0.91445c-0.01766,0.0834 -0.08881,0.14124 -0.06847,0.23055c0.02875,0.14235 0.20023,0.44473 0.37744,0.62744c0.16838,-0.14608 0.24875,-0.34031 0.36366,-0.51197c0.08881,-0.14125 0.09808,-0.27764 0.03134,-0.42587c-0.10252,-0.25719 -0.16708,-0.50849 -0.16754,-0.78426c0.00355,-0.01669 -0.02742,-0.05595 -0.04287,-0.07558c-0.07249,-0.02853 -0.14849,-0.04038 -0.28016,0.02529zM256.20142,187.90622c0.06455,0.25126 -0.01455,0.5319 0.11054,0.77538c0.13654,0.00405 0.21124,-0.07047 0.30137,-0.12536c0.16128,-0.11274 0.33448,-0.1891 0.46836,-0.35778c-0.05038,-0.31801 0.05826,-0.64569 0.03039,-0.9774c-0.0844,-0.06482 -0.1794,-0.07966 -0.28149,-0.06107c-0.17408,0.26582 -0.38263,0.50902 -0.62919,0.74628zM259.40778,187.59594c-0.07334,0.16088 -0.14668,0.32175 -0.26642,0.42369c-0.28809,0.24801 -0.32914,0.53457 -0.2372,0.8418c0.03578,0.10894 0.01457,0.20904 0.10738,0.32691c0.22537,-0.13723 0.39726,-0.29996 0.56909,-0.46275c0.04861,-0.04412 0.06272,-0.11084 0.06139,-0.19718c-0.02302,-0.26206 -0.03055,-0.50444 -0.05353,-0.76647c0.01063,-0.05003 -0.01328,-0.12269 -0.18078,-0.16601zM258.21064,187.40945c-0.15374,0.35512 -0.33845,0.67094 -0.64199,0.89935c-0.0676,0.04116 -0.06273,0.11084 -0.07685,0.17755c-0.0128,0.15308 -0.0066,0.30915 0.07561,0.47699c0.31552,-0.19208 0.536,-0.39899 0.76,-0.62253c0.07467,-0.07451 0.11136,-0.15494 0.11355,-0.258c0.00092,-0.1894 0.02073,-0.37586 0.02159,-0.56525c0.00355,-0.01669 -0.02741,-0.05598 -0.04287,-0.0756c-0.057,-0.00889 -0.11403,-0.01777 -0.209,-0.03253zM264.13174,184.66183c-0.04069,-0.17863 -0.07778,-0.37397 -0.11846,-0.55263c-0.01545,-0.01963 -0.03094,-0.0393 -0.06186,-0.07855c-0.24084,0.11754 -0.39726,0.29996 -0.51214,0.47158c0.02348,0.53782 0.05401,1.04223 -0.06614,1.60937c0.32257,-0.22544 0.24605,-0.51304 0.34901,-0.72098c0.11355,-0.258 0.26153,-0.49339 0.40954,-0.72878zM258.8686,182.63573c-0.14761,-0.22976 -0.25726,-0.45361 -0.49852,-0.6118c-0.10075,0.1049 -0.21342,0.17352 -0.29161,0.26475c-0.07819,0.09121 -0.1754,0.17942 -0.20011,0.2962c0.02523,0.15898 0.13702,0.2798 0.2073,0.41136c0.0703,0.13154 0.09901,0.2739 0.23334,0.38096c0.18954,-0.24618 0.35657,-0.47858 0.54966,-0.74144zM256.15299,185.26243c0.182,-0.48855 0.32732,-0.8967 0.47269,-1.30478c0.00707,-0.03336 0.03671,-0.08045 0.00575,-0.11972c-0.09415,-0.20419 -0.14322,-0.43584 -0.36549,-0.59108c-0.12549,0.22167 -0.24743,0.4267 -0.35037,0.63467c0.16574,0.42214 0.21043,0.85982 0.23743,1.38096zM260.26213,189.40042c0.19577,-0.09013 0.26909,-0.251 0.37338,-0.37258c0.12682,-0.13531 0.19662,-0.27951 0.15947,-0.47482c-0.042,-0.26499 -0.084,-0.53001 0.01053,-0.79099c-0.12597,-0.05409 -0.20549,-0.04925 -0.2267,0.05084c-0.07198,0.24723 -0.14756,0.51115 -0.3075,0.71023c-0.21915,0.29325 -0.12017,0.56717 -0.00918,0.87735zM258.45873,188.74037c-0.30709,0.24508 -0.56204,0.42936 -0.79799,0.61658c-0.02474,0.11675 0.01812,0.19237 0.04201,0.26498c0.04287,0.0756 0.05967,0.18156 0.18559,0.23566c0.23733,-0.10088 0.46263,-0.23807 0.67254,-0.39487c-0.01107,-0.2257 -0.04468,-0.43771 -0.10214,-0.72236zM261.26881,190.02247c-0.118,-0.27684 -0.2241,-0.51736 -0.32661,-0.77455c-0.17895,0.19613 -0.35438,0.37559 -0.52978,0.55501c0.08706,0.23757 0.13966,0.45253 0.3359,0.63813c0.20281,-0.12346 0.35215,-0.27252 0.52051,-0.41859zM259.8938,182.24404c-0.24922,0.06454 -0.35216,0.27252 -0.50152,0.42154c-0.04861,0.04412 -0.04729,0.13046 -0.01986,0.18644c0.07867,0.18458 0.14186,0.34949 0.22404,0.51738c-0.00354,0.01669 0.0345,0.02259 0.07249,0.02854c0.18251,-0.21279 0.34945,-0.44524 0.53197,-0.65804c-0.05966,-0.18158 -0.18341,-0.33871 -0.30717,-0.49583zM262.69153,183.21407c-0.03716,-0.19531 -0.07779,-0.37395 -0.26207,-0.5233c-0.18382,0.12646 -0.40564,0.24696 -0.54307,0.43233c0.03226,0.12564 0.02654,0.24536 0.08134,0.35727c0.03577,0.10894 -0.0115,0.23944 0.14894,0.31612c0.19795,-0.19316 0.39588,-0.38631 0.57488,-0.58245zM261.81842,190.02195c0.04421,0.16195 0.19756,0.272 0.34736,0.39872c0.19445,-0.17646 0.41623,-0.29702 0.54173,-0.51866c-0.12375,-0.15714 -0.17989,-0.35539 -0.36064,-0.52141c-0.18251,0.21279 -0.34599,0.42855 -0.52845,0.64135zM264.16781,187.73448c-0.08261,0.29728 -0.09271,0.62309 -0.21337,0.91446c-0.091,0.24428 0.01378,0.39841 0.2135,0.56739c0.17186,-0.16274 0.24875,-0.34031 0.34814,-0.53159c-0.19049,-0.30534 -0.21839,-0.63709 -0.34831,-0.95024zM255.13839,184.86313c0.07955,-0.00483 0.09012,-0.05487 0.10075,-0.1049c0.06494,-0.21386 0.11441,-0.4474 0.19836,-0.65833c0.14313,-0.30508 -0.01155,-0.50148 -0.21972,-0.72346c-0.06275,0.11087 -0.11838,0.18832 -0.15506,0.26875c-0.09938,0.19129 -0.15727,0.37178 -0.02514,0.58193c0.07029,0.13154 0.07645,0.28761 0.08624,0.42698c-0.03315,0.06376 -0.0888,0.14123 0.01458,0.20903zM255.24257,188.17039c0.10913,-0.0519 0.1803,-0.10976 0.24788,-0.15091c0.21828,-0.10382 0.30711,-0.24509 0.3115,-0.45116c-0.00264,-0.1727 0.05523,-0.35325 0.07154,-0.523c0.01063,-0.05004 0.04021,-0.09713 -0.08928,-0.13454c-0.14452,0.21871 -0.32697,0.43154 -0.54393,0.62173c-0.04861,0.04412 -0.06625,0.12749 -0.08041,0.19421c0.00973,0.13934 0.02299,0.26207 0.08268,0.44364zM259.90285,189.70627c-0.04067,-0.17863 -0.0588,-0.37098 -0.16005,-0.54185c-0.22888,0.15389 -0.4697,0.27143 -0.64866,0.46754c0.07869,0.18456 0.10033,0.36023 0.28816,0.4929c0.18384,-0.12645 0.38313,-0.23323 0.52051,-0.4186zM260.87662,183.53438c0.22886,-0.15389 0.38529,-0.3363 0.50367,-0.5246c-0.07867,-0.18456 -0.1419,-0.34946 -0.28111,-0.52624c-0.17323,0.07641 -0.2965,0.19505 -0.4043,0.33332c0.06808,0.23459 0.11716,0.46624 0.18167,0.71753zM258.04917,190.21008c0.08929,0.13455 0.1286,0.22679 0.2095,0.30831c0.04641,0.05892 0.09633,0.10116 0.1463,0.1434c0.20767,-0.05379 0.40344,-0.14391 0.5528,-0.29295c-0.05966,-0.18158 -0.11935,-0.36317 -0.28466,-0.50956c-0.20281,0.12346 -0.39857,0.2136 -0.62391,0.35078zM254.95739,186.64413c-0.25142,0.16762 -0.43169,0.27734 -0.63805,0.4175c-0.03315,0.06375 -0.03889,0.18345 -0.00307,0.29243c0.01681,0.10598 -0.04593,0.21683 0.05041,0.31801c0.18162,-0.0234 0.31329,-0.08904 0.43305,-0.19099c0.03753,-0.26985 0.09058,-0.52005 0.1577,-0.83695zM258.68075,181.76212c0.07737,0.09822 0.1547,0.19643 0.232,0.29463c0.07738,0.09822 0.15824,0.1797 0.23556,0.27791c0.17188,-0.16273 0.33317,-0.27547 0.41005,-0.45301c-0.0358,-0.10894 -0.14274,-0.16007 -0.22712,-0.22493c-0.0844,-0.06482 -0.15824,-0.1797 -0.29475,-0.18376c-0.13877,0.09903 -0.27041,0.16463 -0.3557,0.2892zM260.3652,190.67429c-0.11669,-0.19048 -0.16927,-0.40547 -0.36908,-0.57442c-0.16126,0.11274 -0.30356,0.2284 -0.46485,0.34112c0.11668,0.19048 0.19887,0.35838 0.40925,0.47729c0.15067,-0.06268 0.29431,-0.09199 0.42466,-0.24399zM256.87399,183.34159c0.17763,-0.28246 0.32917,-0.53453 0.48069,-0.78659c-0.0548,-0.11195 -0.09059,-0.22091 -0.21654,-0.27497c-0.2479,0.15093 -0.39237,0.36961 -0.55584,0.58538c0.05481,0.11195 0.1096,0.22385 0.18693,0.32205c0.00485,0.06969 0.03933,0.09227 0.10472,0.15415zM257.1667,189.27998c-0.07518,-0.20125 -0.03275,-0.40142 -0.1565,-0.55854c-0.24434,0.13424 -0.46616,0.25476 -0.66062,0.43126c0.1083,0.1375 0.07292,0.30427 0.24176,0.43397c0.20765,-0.0538 0.35352,-0.18618 0.57535,-0.30666zM263.61365,183.03035c-0.15421,0.07936 -0.29294,0.17836 -0.39724,0.29998c0.07164,0.21793 0.12421,0.43287 0.18877,0.68415c0.15286,-0.16569 0.29516,-0.28139 0.48253,-0.4245c-0.07162,-0.21794 -0.12774,-0.41622 -0.27405,-0.55963zM255.25984,188.55216c0.03005,0.22869 0.04822,0.42104 0.20995,0.5841c0.16967,-0.05973 0.31682,-0.10569 0.42112,-0.2273c-0.03359,-0.21199 -0.04822,-0.42101 -0.09375,-0.66935c-0.19577,0.09013 -0.3725,0.18321 -0.53731,0.3126zM261.75152,182.74026c0.17541,-0.17943 0.40565,-0.24698 0.48253,-0.42454c-0.07867,-0.18456 -0.20949,-0.30833 -0.36285,-0.41838c-0.17674,0.09309 -0.34998,0.16947 -0.44586,0.34405c0.10473,0.15416 0.19051,0.30535 0.32617,0.4988zM261.81723,190.67651c-0.10829,-0.13749 -0.17855,-0.26903 -0.33545,-0.3624c-0.17186,0.16274 -0.40564,0.24694 -0.5276,0.45196c0.08928,0.13455 0.18916,0.21902 0.35665,0.26234c0.18029,-0.10976 0.3451,-0.23913 0.50635,-0.35188zM256.06354,182.90516c-0.08574,-0.15122 -0.1666,-0.23268 -0.28903,-0.30352c-0.16128,0.11274 -0.31065,0.26174 -0.35301,0.4619c0.09282,0.11785 0.18559,0.23565 0.27488,0.37021c0.1909,-0.15979 0.25229,-0.35698 0.36716,-0.52863zM265.06688,189.23569c-0.09631,-0.10115 -0.17723,-0.18269 -0.28768,-0.21713c-0.14933,0.14901 -0.26067,0.30402 -0.33754,0.48157c0.07377,0.11488 0.15467,0.1964 0.28062,0.25048c0.16838,-0.14608 0.22975,-0.34329 0.34461,-0.51491zM258.72005,190.93487c0.0716,0.21791 0.22008,0.25828 0.39463,0.26825c0.133,0.02074 0.2731,0.00808 0.35838,-0.11648c-0.08574,-0.15122 -0.175,-0.28572 -0.32835,-0.39577c-0.15421,0.07936 -0.28942,0.16168 -0.42465,0.24399zM265.02124,184.81761c-0.02521,-0.15899 0.00306,-0.29241 -0.11227,-0.39654c-0.44011,0.22436 -0.41227,0.55608 -0.29642,0.93594c0.13743,-0.18534 0.27132,-0.35406 0.40871,-0.53939zM257.03416,190.27597c0.18516,-0.04005 0.31682,-0.10571 0.46264,-0.23807c-0.11537,-0.1041 -0.09905,-0.27389 -0.23691,-0.36428c-0.11757,-0.0011 -0.16967,0.0597 -0.25629,0.09789c-0.09011,0.05486 -0.19221,0.07344 -0.21696,0.19019c0.05481,0.11195 0.10963,0.22387 0.2475,0.31426zM260.06597,185.7859c0.1878,0.13263 0.30889,0.11706 0.35967,-0.0301c0.06495,-0.21386 0.09189,-0.43369 0.11527,-0.6368c0.01415,-0.06669 0.01277,-0.15308 -0.09415,-0.2042c-0.15861,0.28544 -0.27921,0.57678 -0.38084,0.8711zM262.89324,190.87859c0.0168,0.10599 0.08221,0.16788 0.19269,0.20235c0.22184,-0.12052 0.47815,-0.21843 0.64163,-0.43418c-0.20683,-0.1356 -0.38494,-0.12893 -0.55326,0.01717c-0.09013,0.05487 -0.21479,0.08717 -0.28105,0.21467zM262.64754,186.01577c0.26599,0.04145 0.3301,0.01691 0.3619,-0.13315c0.03046,-0.23648 0.06448,-0.48963 0.01893,-0.73795c-0.21562,0.27656 -0.40871,0.5394 -0.38084,0.87111zM265.12197,188.14155c-0.04728,0.13045 -0.07198,0.24727 -0.11574,0.36102c-0.06851,0.23056 -0.06846,0.23056 0.25589,0.36728c0.06275,-0.11087 0.14803,-0.23542 0.18113,-0.29916c-0.12374,-0.15715 -0.21302,-0.29164 -0.3213,-0.42912zM261.1686,181.32268c-0.1317,0.06563 -0.30977,0.07237 -0.34865,0.25585c0.09633,0.10116 0.21523,0.18861 0.32703,0.3094c0.15423,-0.07936 0.32391,-0.13903 0.40916,-0.26362c-0.11539,-0.1041 -0.20816,-0.22198 -0.38758,-0.30163zM263.68363,189.27871c-0.14091,0.20204 -0.3009,0.4011 -0.44182,0.60315c0.02036,0.08929 0.06318,0.1649 0.18424,0.14931c0.20281,-0.12346 0.37473,-0.28623 0.47765,-0.4942c-0.0548,-0.11195 -0.11668,-0.19047 -0.22012,-0.25827zM264.17581,183.34196c0.13654,0.00405 0.24572,-0.04786 0.3429,-0.13611c-0.02387,-0.07266 -0.04774,-0.14527 -0.07163,-0.21792c-0.03931,-0.09228 -0.0597,-0.1816 -0.16663,-0.2327c-0.11401,-0.01777 -0.21606,0.00076 -0.30975,0.07236c0.06323,0.16494 0.14191,0.34948 0.20506,0.5144zM260.50318,182.42516c0.15423,-0.07936 0.25497,-0.18429 0.34025,-0.30884c-0.13079,-0.12376 -0.24263,-0.24455 -0.35795,-0.34866c-0.16263,0.02639 -0.25983,0.11461 -0.30005,0.21173c0.10472,0.15416 0.20949,0.30832 0.31774,0.44584zM264.82628,183.97743c-0.0358,-0.10894 -0.0716,-0.21791 -0.12639,-0.32986c-0.01545,-0.01962 -0.05349,-0.02555 -0.08798,-0.04817c-0.08662,0.03819 -0.20767,0.05378 -0.29295,0.17836c0.02877,0.14235 0.03145,0.31503 0.13617,0.4692c0.16965,-0.05973 0.26685,-0.14798 0.37114,-0.26957zM265.52959,185.5688c0.05787,-0.18051 0.27396,-0.18134 0.30929,-0.34812c-0.04774,-0.14524 -0.0349,-0.29835 -0.15867,-0.45547c-0.15067,0.06268 -0.28238,0.12834 -0.25714,0.28732c0.02521,0.159 -0.02559,0.30613 0.10653,0.51627zM264.14378,190.34975c0.10074,-0.10491 0.22047,-0.20689 0.31768,-0.2951c0.02254,-0.01371 0.01061,-0.05005 0.01765,-0.08341c-0.08794,-0.04816 -0.16526,-0.14638 -0.3469,-0.12293c-0.12324,0.11864 -0.25011,0.25395 -0.39591,0.38633c0.11886,0.08744 0.22937,0.12188 0.40745,0.11519zM260.11689,181.46899c-0.0928,-0.11785 -0.18208,-0.25237 -0.25942,-0.35055c-0.18162,0.02339 -0.31332,0.08902 -0.42597,0.15764c-0.00572,0.11975 0.12374,0.1571 0.18916,0.219c0.06544,0.06188 0.12728,0.14043 0.26384,0.14448c0.08308,-0.02153 0.16969,-0.05973 0.23244,-0.17057zM255.57365,189.47979c0.0703,0.13154 0.12862,0.22682 0.18695,0.32204c0.01192,0.03633 0.06541,0.0619 0.08089,0.08153c0.133,0.02074 0.24217,-0.03118 0.33936,-0.11944c-0.06675,-0.14823 -0.1145,-0.29353 -0.2227,-0.43102c-0.1246,0.03229 -0.23377,0.0842 -0.38444,0.14688zM265.63849,188.20479c0.12198,-0.205 0.24388,-0.40999 0.23637,-0.65239c-0.18161,0.0234 -0.3372,0.01639 -0.46045,0.13502c0.0349,0.29836 0.03492,0.29837 0.22407,0.51736zM257.30767,190.55981c0.2559,0.36728 0.27487,0.3702 0.65228,0.25665c-0.08929,-0.13455 -0.20108,-0.2553 -0.29033,-0.38986c-0.13654,-0.00405 -0.24567,0.04787 -0.36191,0.13313zM263.41836,182.65533c-0.06674,-0.14823 -0.14057,-0.26312 -0.27844,-0.35355c-0.04154,0.01076 -0.10563,0.03523 -0.1697,0.05971c-0.04507,0.02745 -0.0937,0.07157 -0.13873,0.09898c0.06676,0.14823 0.11098,0.31021 0.24531,0.4173c0.12459,-0.03228 0.24084,-0.11754 0.34155,-0.22248zM254.59961,188.51822c0.06405,-0.02449 0.15067,-0.0627 0.1803,-0.10977c0.09589,-0.17461 0.09319,-0.34727 -0.00096,-0.55153c-0.12816,0.04894 -0.28721,0.05863 -0.36544,0.14985c0.04067,0.17863 0.02081,0.36508 0.18609,0.51143zM256.86457,181.99613c-0.01544,-0.01963 -0.03093,-0.03928 -0.06186,-0.07855c-0.27531,0.09497 -0.50419,0.24884 -0.73305,0.40272c0.03227,0.12563 0.09768,0.1875 0.24614,0.22788c0.17541,-0.17943 0.36979,-0.35591 0.54878,-0.55204zM261.70574,185.17985c-0.16701,0.23245 -0.34946,0.44523 -0.39054,0.73175c-0.00355,0.01669 0.06542,0.06185 0.1034,0.06779c0.09501,0.01477 0.18514,-0.04009 0.20277,-0.12349c0.10295,-0.20796 0.11087,-0.43073 0.08435,-0.67605zM262.91494,181.97381c-0.07378,-0.1149 -0.14761,-0.22978 -0.26648,-0.31722c-0.13301,-0.02074 -0.23508,-0.00217 -0.35483,0.09976c0.11182,0.12081 0.22008,0.2583 0.33542,0.36241c0.12104,-0.01559 0.20765,-0.05381 0.28588,-0.145zM260.13945,191.27664c0.26249,0.05812 0.48696,0.11036 0.73972,0.02912c-0.02522,-0.15898 -0.14406,-0.24644 -0.28548,-0.32018c-0.17321,0.07641 -0.32389,0.13906 -0.45425,0.29109zM253.85357,186.85124c0.19223,-0.07344 0.21475,-0.08711 0.22538,-0.13719c0.05435,-0.16382 -0.00886,-0.32878 -0.07561,-0.47699c-0.02739,-0.05594 -0.1189,-0.08742 -0.1971,0.00377c0.0822,0.16788 -0.03976,0.37291 0.04736,0.61045zM257.59987,182.23132c0.19445,-0.17646 0.40432,-0.33332 0.48335,-0.61393c-0.29073,0.07531 -0.46619,0.25477 -0.6345,0.40084c0.00131,0.08636 0.05127,0.12857 0.15116,0.21306zM256.34878,190.08302c-0.10561,0.03524 -0.20767,0.05381 -0.31328,0.08904c0.06321,0.16495 0.15249,0.29946 0.3721,0.28197c0.06054,-0.00779 0.12105,-0.0156 0.15421,-0.07936c-0.0168,-0.10598 -0.09769,-0.18753 -0.21302,-0.29164zM263.95601,186.04734c0.17103,0.02662 0.25407,0.00514 0.26334,-0.13125c0.00575,-0.11975 0.01146,-0.23945 -0.00182,-0.36214c-0.00843,-0.05298 -0.0358,-0.10898 -0.11534,-0.10413c-0.0994,0.19128 -0.13826,0.37476 -0.14619,0.59752zM256.80602,184.58881c-0.12198,0.20501 -0.20588,0.41594 -0.19482,0.64165c-0.00354,0.0167 0.06543,0.06185 0.0844,0.06482c0.03797,0.00592 0.08662,-0.03819 0.09367,-0.07157c0.02695,-0.21979 0.10735,-0.41406 0.01674,-0.63496zM255.77385,185.01384c-0.02166,-0.17568 0.01721,-0.35919 -0.0579,-0.56042c-0.14093,0.20203 -0.21781,0.3796 -0.182,0.48856c0.0168,0.10598 0.0928,0.11786 0.23993,0.07184zM262.02501,191.36361c0.23863,-0.01453 0.50468,0.02691 0.68008,-0.15253c-0.31375,-0.1867 -0.48915,-0.00727 -0.68008,0.15253zM262.40202,188.28644c0.03797,0.00591 0.06061,-0.0078 0.09857,-0.00188c0.01632,-0.16974 0.12412,-0.30804 0.06091,-0.47296c-0.11047,-0.03446 -0.17102,-0.02664 -0.24569,0.04788c0.03227,0.12563 0.061,0.26795 0.08623,0.42698zM259.20514,185.03146c-0.10646,0.22464 -0.18334,0.40221 -0.20676,0.60532c-0.00707,0.03336 0.02385,0.07264 0.08086,0.08151c0.01903,0.00296 0.06053,-0.0078 0.08308,-0.02154c0.12198,-0.205 0.16435,-0.40515 0.0428,-0.66531zM254.88023,188.7687c-0.12106,0.0156 -0.18512,0.04006 -0.15773,0.09604c0.03227,0.12563 0.08356,0.25424 0.13481,0.38285c0.04286,0.0756 0.09985,0.08448 0.171,0.02664c-0.0181,-0.19236 -0.04334,-0.35138 -0.14808,-0.50552zM261.9821,181.46665c0.08662,-0.03819 0.16969,-0.05973 0.2563,-0.09791c0.02254,-0.0137 0.02959,-0.04709 0.05922,-0.09416c-0.22798,-0.03555 -0.4264,-0.11811 -0.68759,-0.08989c0.11182,0.12081 0.19269,0.20233 0.3721,0.28196zM257.52657,187.30285c-0.01634,0.16975 -0.02913,0.32286 -0.05253,0.52598c0.22536,-0.13723 0.31417,-0.27843 0.33049,-0.44818c-0.0844,-0.06482 -0.13787,-0.09041 -0.27797,-0.07779zM263.58139,187.8154c0.05127,0.12862 -0.0256,0.30613 0.16221,0.4388c0.14179,-0.39144 0.15947,-0.47481 0.07151,-0.52301c-0.09501,-0.01477 -0.1591,0.00968 -0.23377,0.0842zM258.05794,184.88723c-0.28104,0.21465 -0.32339,0.41483 -0.30042,0.67687c0.30842,-0.15873 0.20585,-0.4159 0.30042,-0.67687zM265.11728,185.38393c-0.25849,0.20095 -0.29737,0.38446 -0.30176,0.59053c-0.00354,0.01669 0.03094,0.03927 0.06893,0.04519c0.057,0.0089 0.10208,-0.01856 0.10913,-0.05191c0.05436,-0.16382 0.07068,-0.33357 0.12368,-0.58378zM264.54658,187.70731c0.02521,0.15899 0.00888,0.32878 0.17412,0.47509c0.09234,-0.15793 0.10513,-0.31101 0.11441,-0.44739c-0.10339,-0.06781 -0.18292,-0.06296 -0.28856,-0.02772zM265.58468,184.47462c-0.10122,-0.17086 -0.06234,-0.35433 -0.23823,-0.45066c-0.10646,0.22464 -0.10646,0.22463 0.05306,0.49072c0.04154,-0.01076 0.08308,-0.02153 0.18515,-0.04007zM262.44169,190.60144c0.27662,-0.0086 0.44144,-0.13799 0.59079,-0.28703c-0.0358,-0.10894 -0.11182,-0.12081 -0.1794,-0.07966c-0.12324,0.11865 -0.26557,0.23433 -0.41135,0.36669zM263.74933,182.48286c0.11757,0.00109 0.21608,-0.00078 0.29427,-0.09198c-0.05833,-0.09523 -0.11667,-0.19051 -0.22711,-0.22492c-0.09854,0.00187 -0.16261,0.02638 -0.21478,0.08718c0.02036,0.0893 0.06675,0.14823 0.14763,0.22975zM260.07464,188.06169c0.08528,-0.12454 0.14451,-0.21874 0.12769,-0.32473c-0.01192,-0.03633 -0.04639,-0.05893 -0.08088,-0.08153c-0.057,-0.0089 -0.1401,0.01262 -0.13169,0.06561c-0.02121,0.10011 -0.04594,0.21685 0.08489,0.34064zM260.73239,181.06518c-0.16043,-0.07668 -0.33011,-0.01695 -0.48918,-0.00726c0.18208,0.25238 0.2201,0.25826 0.48918,0.00726zM254.71329,184.83135c0.12901,-0.23837 0.12901,-0.23836 -0.02081,-0.3651c-0.05922,0.09416 -0.12195,0.20502 0.02081,0.3651zM261.3291,187.79187c-0.06544,-0.06188 -0.12241,-0.07076 -0.14847,-0.04038c-0.12324,0.11865 -0.11487,0.17164 0.02436,0.34841c0.08175,-0.10785 0.10297,-0.20798 0.12416,-0.30805zM265.88704,185.64172c-0.11267,0.06863 -0.20634,0.14018 -0.1931,0.26282c0.31462,-0.0027 0.34067,-0.03304 0.1931,-0.26282zM254.43796,184.18542c-0.13877,0.09903 -0.18604,0.22946 -0.22975,0.34325c-0.01415,0.0667 0.03227,0.12566 0.16043,0.07669c0.04372,-0.11379 0.09102,-0.24429 0.06935,-0.41995zM265.09499,183.45063c-0.07334,0.16088 -0.03402,0.25317 0.11094,0.31021c0,0 0.04154,-0.01076 0.04506,-0.02745c0.04019,-0.09713 -0.05964,-0.18159 -0.156,-0.2828zM258.82977,187.72989c0.12106,-0.0156 0.17323,-0.07641 0.16835,-0.14606c0.00707,-0.03336 -0.02387,-0.07265 -0.05833,-0.09525c-0.03449,-0.02259 -0.09852,0.00187 -0.10558,0.03524c-0.02961,0.04709 -0.04375,0.11378 -0.00443,0.20608zM263.19252,181.77585c0.05127,0.12861 0.11667,0.1905 0.28283,0.14743c-0.06676,-0.14823 -0.13568,-0.19345 -0.28283,-0.14743z" fill="#000000"/><path d="M257.35794,193.56568c0.6045,0.11143 1.20907,0.22285 1.81713,0.31757c0.68409,0.10658 1.38226,0.14643 2.07912,0.09991c0.21961,-0.01748 0.40828,-0.07421 0.65042,-0.10541c-0.05654,0.26691 -0.08697,0.50334 -0.15547,0.7339c-0.37284,1.38928 -0.65421,2.81003 -0.99255,4.2219c-0.30658,1.26176 -0.59057,2.5098 -0.87813,3.77452c-0.20274,0.8644 -0.40198,1.71213 -0.60474,2.57651c-0.19215,0.81437 -0.34275,1.61795 -0.53488,2.43231c-0.01415,0.06672 -0.02829,0.13345 -0.06141,0.1972c-0.30488,0.14206 -0.60759,0.18101 -0.94473,0.19744c-0.53426,0.02015 -1.08044,0.00397 -1.60893,-0.09559c-0.17103,-0.02662 -0.34556,-0.03659 -0.47989,-0.1437c0.1781,-0.00673 0.35749,0.0729 0.58418,0.02209c-0.07644,-0.28758 0.0406,-0.56226 0.07814,-0.83213c0.00354,-0.01669 0.00707,-0.03335 -0.01192,-0.03632c-0.05658,-0.47403 0.0459,-0.95776 0.04982,-1.43962c-0.00266,-0.1727 -0.06235,-0.35432 0.01097,-0.51519c0.1087,-0.32767 0.00479,-0.67124 0.11348,-0.99896c0.00354,-0.01669 -0.00841,-0.053 -0.00132,-0.08637c0.01011,-0.32577 -0.00223,-0.63787 0.04588,-0.95774c0.07773,-0.36695 -0.0036,-0.72427 0.11213,-1.08529c-0.06808,-0.23459 0.0159,-0.44551 0.04636,-0.68199c0.00707,-0.03336 0.01059,-0.05006 0.01767,-0.08339c-0.08134,-0.35729 0.06886,-0.69572 0.06353,-1.04118c-0.00534,-0.34543 0.10686,-0.6898 0.12053,-1.03228c0.02429,-0.39254 -0.01203,-0.77722 0.12982,-1.16868c0.00707,-0.03336 0.01768,-0.08341 0.00575,-0.11973c-0.07518,-0.20125 0.02428,-0.39252 0.0477,-0.59564c0.02121,-0.10011 0.06493,-0.21385 0.04813,-0.31987c-0.04418,-0.16196 0.00307,-0.29243 0.03488,-0.44257c0.01767,-0.08341 0.05435,-0.16387 0.03045,-0.23647c-0.06808,-0.23459 0.01939,-0.46219 0.06533,-0.67902c0.01767,-0.08341 0.05432,-0.16383 0.03047,-0.23648c-0.05611,-0.19827 0.00172,-0.3788 0.04062,-0.56229c0.0636,-0.30027 -0.0058,-0.62119 0.07681,-0.91846c0.02959,-0.04709 -0.01678,-0.10599 -0.02522,-0.15899z" fill="#87d7dc"/><path d="M257.35794,193.56571c0.00839,0.05299 0.05482,0.11193 0.04421,0.16197c-0.08259,0.29729 -0.03221,0.61528 -0.0768,0.91848c-0.03888,0.18348 -0.09675,0.36402 -0.04062,0.56228c0.02387,0.07266 -0.0128,0.15309 -0.03043,0.23646c-0.04591,0.21684 -0.11443,0.44739 -0.06538,0.67904c0.02387,0.07265 -0.0318,0.15014 -0.03044,0.23648c-0.0318,0.15011 -0.06007,0.28357 -0.03488,0.44257c0.0168,0.10598 -0.02695,0.21982 -0.04815,0.3199c-0.02339,0.20311 -0.12279,0.3944 -0.04767,0.59564c0.01192,0.03633 0.00133,0.08636 -0.00574,0.11972c-0.13827,0.37476 -0.10555,0.77619 -0.1298,1.1687c-0.01721,0.35919 -0.12942,0.70351 -0.12058,1.03228c0.00535,0.34542 -0.14486,0.68388 -0.06352,1.04116c0.01544,0.01964 -0.01062,0.05005 -0.01768,0.08342c-0.04591,0.21684 -0.11439,0.44739 -0.04633,0.68202c-0.13476,0.35809 -0.05339,0.71537 -0.11216,1.08528c-0.06715,0.31692 -0.03573,0.63195 -0.0459,0.95775c-0.00707,0.03336 0.00844,0.05303 0.00135,0.08637c-0.1087,0.32767 -0.00479,0.67123 -0.11348,0.99895c-0.05786,0.18051 0.00532,0.34545 -0.01098,0.5152c-0.02293,0.47888 -0.1064,0.96558 -0.04982,1.4396c-0.00354,0.01669 0.01195,0.03633 0.01195,0.03633c-0.03752,0.26986 -0.15463,0.54455 -0.07814,0.83214c-0.20767,0.0538 -0.38357,-0.04255 -0.58418,-0.02211c-0.152,-0.02367 -0.30401,-0.04739 -0.41584,-0.16822c0.02121,-0.10011 0.06493,-0.21385 0.04811,-0.31985c-0.05881,-0.37098 0.03444,-0.71833 0.07063,-1.07455c0.0362,-0.35618 -0.02262,-0.72718 0.11213,-1.08526c-0.06808,-0.23459 0.01585,-0.44553 0.04633,-0.68201c0.00707,-0.03336 0.01766,-0.0834 0.00574,-0.11973c-0.06321,-0.16494 0.01014,-0.32578 0.02295,-0.4789c0.01767,-0.08341 0.03531,-0.16681 0.03046,-0.23647c-0.01728,-0.38177 -0.01204,-0.77723 0.06925,-1.16089c0.01063,-0.05004 0.04377,-0.11381 0.0128,-0.15307c-0.05966,-0.18157 -0.00536,-0.34543 0.02998,-0.51224c0.05786,-0.18051 -0.03983,-0.36806 0.02161,-0.56524c0.07554,-0.26392 0.03352,-0.52892 0.05206,-0.80172c0.03973,-0.3729 -0.00006,-0.74091 0.08123,-1.12455c0.01415,-0.06672 0.05082,-0.14717 0.02339,-0.20313c-0.04771,-0.14529 0.00304,-0.29242 0.01587,-0.44549c0.02828,-0.13343 0.03753,-0.26982 0.0243,-0.39254c-0.03005,-0.22869 -0.02214,-0.45144 0.0273,-0.68498c0.05521,-0.35323 -0.00361,-0.72425 0.13112,-1.08231c0.00707,-0.03336 -0.0013,-0.08635 0.00576,-0.11974c0.01721,-0.35919 0.01537,-0.72128 0.07063,-1.07451c0.07773,-0.36695 0.00346,-0.75761 0.11922,-1.11864c0.01063,-0.05004 -0.01682,-0.10599 -0.02522,-0.15899c0.00793,-0.22276 0.0384,-0.45924 0.14134,-0.66719c0.09855,-0.00187 0.17454,0.00993 0.25409,0.00513c0.25544,0.09149 0.47637,0.16037 0.71988,0.21554z" fill="#b0eef2"/><path d="M266.30606,186.25838c-0.01013,0.32576 -0.04417,0.57896 -0.17317,0.81733c-0.18031,0.10976 -0.3999,0.12725 -0.62302,0.1614c-1.10516,0.12074 -2.20679,0.2248 -3.31818,0.18952c-0.83829,-0.02723 -1.69559,-0.05738 -2.53519,-0.17094c-0.228,-0.03554 -0.47153,-0.09068 -0.71015,-0.07619c-0.09855,0.00187 -0.21256,-0.01591 -0.32654,-0.03365c-0.44192,-0.13777 -0.90502,-0.17546 -1.35755,-0.26318c-0.64254,-0.11731 -1.27096,-0.30137 -1.89225,-0.51879c-0.30888,-0.11704 -0.62134,-0.21742 -0.95277,-0.32072c-0.25893,-0.07483 -0.46576,-0.2104 -0.67613,-0.32934c-0.06939,-0.32098 -0.06367,-0.44067 0.05915,-0.83507c0.41448,0.08178 0.79234,0.24404 1.19975,0.35922c0.38843,0.11221 0.79585,0.22737 1.18784,0.32291c0.41095,0.0985 0.84449,0.18326 1.25898,0.26507c0.39195,0.09553 0.82414,0.0939 1.20555,0.23949c0.43573,-0.01827 0.84314,0.09691 1.26473,0.14535c0.40257,0.0455 0.82768,0.07724 1.2338,0.10606c0.42511,0.03177 0.85373,0.04685 1.3014,0.06492c0.40964,0.01213 0.83474,0.0439 1.24794,0.03933c0.43217,-0.0016 0.8524,-0.0395 1.28813,-0.05777c0.45472,-0.01532 0.86787,-0.01986 1.31773,-0.10486z" fill="#d1eaeb"/><path d="M256.65352,193.36983c-0.07953,0.00483 -0.15556,-0.007 -0.25407,-0.00511c-0.10293,0.20798 -0.14887,0.42478 -0.14134,0.6672c0.00839,0.053 0.0358,0.10896 0.02521,0.15899c-0.11575,0.36102 -0.06046,0.74876 -0.11921,1.11865c-0.07421,0.35029 -0.05341,0.71535 -0.07066,1.07451c-0.00707,0.03336 0.00133,0.08637 -0.00574,0.11972c-0.13477,0.35808 -0.05343,0.71534 -0.13116,1.08232c-0.04591,0.21684 -0.05739,0.45629 -0.0273,0.68497c0.00973,0.13932 0.00048,0.27575 -0.02428,0.39253c-0.0318,0.15011 -0.07907,0.28059 -0.01586,0.44552c0.02738,0.05594 -0.00929,0.13642 -0.02343,0.20313c-0.07773,0.36695 -0.04143,0.75166 -0.0812,1.12455c-0.01856,0.2728 0.02349,0.5378 -0.05207,0.80171c-0.05786,0.18051 0.03981,0.36804 -0.02161,0.56524c-0.05434,0.16384 -0.11221,0.34435 -0.03002,0.51225c0.00839,0.053 -0.00219,0.10303 -0.01278,0.15306c-0.08128,0.38362 -0.08305,0.76241 -0.06926,1.16088c0.00131,0.08636 -0.03531,0.16679 -0.03047,0.23644c-0.0318,0.15011 -0.08611,0.31397 -0.02291,0.47888c0.01192,0.03633 0.00134,0.08636 -0.00574,0.11971c-0.04591,0.21684 -0.11441,0.4474 -0.04634,0.68201c-0.13475,0.35808 -0.07594,0.72909 -0.11212,1.08526c-0.0362,0.35618 -0.13294,0.72017 -0.07063,1.0745c0.0168,0.10599 -0.02696,0.2198 -0.04813,0.31988c-0.17456,-0.00997 -0.26735,-0.12779 -0.39685,-0.16519c0.05339,-0.71534 0.08074,-1.40033 0.12709,-2.08232c0.04148,-0.75168 0.0984,-1.48372 0.15885,-2.23243c0.04987,-0.69869 0.08072,-1.40033 0.1116,-2.10197c0.04722,-0.87141 0.07186,-1.72908 0.11552,-2.5838c0.03927,-0.64866 0.07858,-1.29729 0.0988,-1.94888c0.05645,-1.0078 0.19247,-2.02047 0.21091,-3.03417c0.00927,-0.13639 -0.01948,-0.27871 0.06934,-0.41994c0.17103,0.02662 0.33142,0.10332 0.49539,0.16333c0.08795,0.04815 0.26601,0.04143 0.4004,0.14852z" fill="#87d7dc"/><path d="M255.93559,208.24848c0.4061,0.0288 0.77909,0.12137 1.18871,0.13347c0.47019,0.00434 0.9439,-0.00805 1.43879,-0.12044c-0.20494,0.96745 -0.40635,1.9182 -0.60423,2.85228c-0.24788,0.15093 -0.50905,0.17914 -0.75474,0.22702c-0.46884,0.08204 -0.91295,0.0473 -1.37606,0.00961c-0.01903,-0.00296 -0.05345,-0.02555 -0.06895,-0.04519c0.19221,-0.07343 0.16347,-0.21574 0.15373,-0.35512c-0.02435,-0.34842 -0.0297,-0.69384 0.06,-1.02447c0.01415,-0.06672 0.02827,-0.13344 0.02338,-0.20311c-0.04688,-0.3347 0.0428,-0.66531 0.05292,-0.99114c0.00092,-0.1894 -0.00892,-0.32872 -0.11363,-0.48291z" fill="#61afb4"/><path d="M256.83847,191.10699c0.64385,0.20369 1.31243,0.29062 1.9669,0.44425c0.30049,0.06405 0.6116,0.07803 0.92271,0.09205c0.57713,0.05547 1.15909,0.18058 1.75036,0.16929c0.23509,0.00218 0.47018,0.00435 0.6898,-0.01312c0.1401,-0.01263 0.27661,-0.00861 0.40965,0.01212c0.00843,0.05298 0.02033,0.08931 0.01325,0.1227c-0.02829,0.13342 -0.05651,0.26687 -0.08477,0.40031c-0.1056,0.03525 -0.18869,0.05673 -0.29075,0.07531c-0.72644,0.09359 -1.47195,0.18423 -2.21305,0.06876c-0.64962,-0.08396 -1.31815,-0.17089 -1.95367,-0.32157c-0.50602,-0.11328 -1.01551,-0.2099 -1.47422,-0.45365c0.10207,-0.01858 0.20549,0.04923 0.30267,-0.03901c0.07687,-0.17755 0.17982,-0.38552 -0.03894,-0.55744z" fill="#61aeb3"/><path d="M257.05773,192.29558c0.33011,0.01697 0.61291,0.16442 0.93241,0.23142c0.68056,0.12325 1.36107,0.24653 2.0522,0.31972c0.5581,0.0525 1.11139,0.03528 1.6527,-0.01821c0.1401,-0.01263 0.28014,-0.02528 0.42023,-0.03792c-0.04946,0.23353 -0.09183,0.4337 -0.1378,0.65054c-0.27042,0.16463 -0.57314,0.2036 -0.88776,0.20631c-0.37517,0.0105 -0.76932,0.01798 -1.15289,-0.02455c-0.86921,-0.06653 -1.69824,-0.23013 -2.5498,-0.38c-0.152,-0.02368 -0.30405,-0.04736 -0.41939,-0.15149c0.01767,-0.08341 0.05431,-0.16385 0.03045,-0.23647c-0.04067,-0.17864 0.02073,-0.37587 0.05958,-0.55931z" fill="#61aeb3"/><path d="M255.93558,208.24848c0.08929,0.13455 0.118,0.27684 0.10167,0.44661c-0.01013,0.32578 -0.09983,0.65645 -0.05292,0.99112c0.00486,0.06969 -0.00925,0.13642 -0.0234,0.20315c-0.07419,0.3503 -0.06534,0.67902 -0.06,1.02446c0.01326,0.1227 0.03849,0.28169 -0.15374,0.35512c-0.28857,-0.02773 -0.54752,-0.10252 -0.77687,-0.2244c-0.00755,-0.24243 -0.03406,-0.48778 0.05339,-0.71536c0.00707,-0.03336 -0.00132,-0.08636 0.00574,-0.11973c0.01366,-0.34246 0.03086,-0.70165 0.06352,-1.04117c0.0128,-0.15307 0.04109,-0.28652 0.03489,-0.44257c-0.0181,-0.19235 0.00527,-0.3955 0.13915,-0.56417c0.09854,-0.00187 0.17454,0.00996 0.25407,0.00514c0.133,0.02074 0.28152,0.06108 0.41449,0.08179z" fill="#87d7dc"/><path d="M259.04983,183.07751c0.17858,0.26905 0.21704,0.55068 0.2365,0.82946c0.00487,0.06968 -0.01635,0.16977 -0.04946,0.23353c-0.25448,0.46003 -0.43299,0.93192 -0.59246,1.40674c-0.00354,0.01669 -0.02959,0.04707 -0.05214,0.06082c-0.08662,0.03819 -0.18163,0.02342 -0.26602,-0.04142c0.00707,-0.03336 -0.0049,-0.0697 0.00218,-0.10305c0.10384,-0.39733 0.15063,-0.8036 0.09889,-1.20796c-0.01459,-0.20904 0.02428,-0.39255 0.16168,-0.57789c0.15996,-0.19906 0.26287,-0.40703 0.46085,-0.60021z" fill="#cce5e6"/><path d="M257.37618,185.41853c-0.1246,0.03229 -0.19707,0.00376 -0.24348,-0.05516c0.13163,-0.80656 0.1316,-0.80655 -0.02401,-1.55447c0.09808,-0.27766 0.29115,-0.54047 0.44272,-0.79253c0.1401,-0.01263 0.13785,0.09039 0.16526,0.14636c0.09415,0.20419 0.19182,0.39174 0.24441,0.60671c0.02875,0.14235 0.02297,0.26206 -0.04327,0.38954c-0.20237,0.39926 -0.38923,0.81811 -0.54166,1.25958z" fill="#cce5e6"/><path d="M255.5021,208.16373c-0.07955,0.00483 -0.15558,-0.00701 -0.25407,-0.00513c-0.13388,0.16868 -0.15727,0.37178 -0.13914,0.56418c0.00621,0.15606 -0.02205,0.28948 -0.03489,0.44258c-0.03267,0.33953 -0.04987,0.69867 -0.06353,1.04116c-0.00707,0.03336 0.00134,0.08638 -0.00575,0.11973c-0.07199,0.24724 -0.04196,0.47591 -0.05342,0.71534c-0.14495,-0.05702 -0.27091,-0.11114 -0.40172,-0.23491c0.04194,-0.47592 0.04939,-0.97448 0.11385,-1.46411c0.04194,-0.47592 0.00788,-0.96367 0.11386,-1.46408c0.30048,0.06405 0.51437,0.16628 0.72474,0.28518z" fill="#60adb2"/><path d="M261.70074,187.79808c0.07953,-0.00484 0.14011,-0.01262 0.21962,-0.01747c0.03095,0.03928 0.04638,0.05892 0.06185,0.07854c0.01595,0.29539 0.09242,0.58301 0.18787,0.87355c0.03227,0.12564 0.03007,0.22871 -0.05167,0.33656c-0.14449,0.21872 -0.25446,0.46003 -0.54391,0.62172c-0.18206,-0.25237 -0.25856,-0.53997 -0.31602,-0.82461c-0.00843,-0.05298 0.02831,-0.13343 0.0614,-0.19718c0.12057,-0.29134 0.24123,-0.58276 0.38085,-0.87114z" fill="#cce5e6"/><path d="M262.86076,183.6195c0.04069,0.17862 0.07645,0.28761 0.10873,0.41326c0.04906,0.23166 0.02566,0.43475 -0.1378,0.65053c-0.25583,0.37365 -0.45815,0.77294 -0.5465,1.18992c-0.02829,0.13343 -0.05081,0.14714 -0.27531,0.09497c0.01061,-0.05004 0.00217,-0.10304 0.01281,-0.1531c0.10734,-0.41404 0.13514,-0.82322 0.10593,-1.24131c0.00222,-0.10305 0.00088,-0.1894 0.05651,-0.26691c0.20501,-0.22654 0.37205,-0.45895 0.67563,-0.68732z" fill="#cae2e3"/><path d="M259.61483,185.78455c-0.01544,-0.01963 -0.02743,-0.056 -0.02387,-0.07266c0.11926,-0.37769 0.121,-0.7565 0.10022,-1.12162c-0.00535,-0.34542 0.0618,-0.66238 0.31897,-0.94966c0.12682,-0.13531 0.18465,-0.31583 0.34598,-0.42854c0.22984,0.39763 0.22101,0.80981 0.01027,1.15604c-0.24743,0.42669 -0.5103,0.8337 -0.59379,1.32041c-0.02959,0.04709 -0.04376,0.11379 -0.15775,0.09605z" fill="#c9e1e2"/><path d="M261.52715,183.42897c0.13348,0.29649 0.16002,0.54183 0.18301,0.80387c0.00131,0.08636 -0.01635,0.16975 -0.06848,0.23057c-0.26996,0.44041 -0.50544,0.90339 -0.70293,1.37228c-0.00707,0.03336 -0.03664,0.08043 -0.12814,0.04895c0.02474,-0.11675 0.053,-0.25018 0.05875,-0.36992c0.05168,-0.33655 0.08433,-0.67607 0.03744,-1.01076c-0.02657,-0.24537 0.03841,-0.45923 0.21383,-0.63867c0.12682,-0.13531 0.25006,-0.25398 0.4065,-0.43637z" fill="#c9e1e2"/><path d="M262.93316,187.81779c0.13171,-0.06562 0.22672,-0.05083 0.3217,-0.03603c0.01545,0.01962 0.02743,0.05598 0.04285,0.0756c-0.01854,0.2728 0.04248,0.54077 0.16757,0.78423c0.06673,0.14823 0.05746,0.28464 -0.03136,0.42588c-0.11485,0.17163 -0.21425,0.36293 -0.36361,0.51198c-0.1772,-0.18268 -0.36773,-0.48806 -0.37745,-0.62743c-0.02036,-0.0893 0.03178,-0.15012 0.06849,-0.23056c0.04108,-0.28651 0.18067,-0.57494 0.17183,-0.90365z" fill="#cae3e4"/><path d="M256.20142,187.90625c0.24653,-0.23726 0.43613,-0.48342 0.61021,-0.74923c0.12104,-0.01559 0.19711,-0.00376 0.28152,0.06107c0.03141,0.31501 -0.08084,0.65938 -0.03042,0.97739c-0.13389,0.16867 -0.30709,0.24508 -0.46835,0.35781c-0.09011,0.05486 -0.16477,0.12938 -0.30134,0.12535c-0.10608,-0.24053 -0.03052,-0.50443 -0.09154,-0.77241z" fill="#c8e0e1"/><path d="M259.40778,187.59596c0.16747,0.04332 0.17235,0.113 0.17721,0.18268c0.02302,0.26207 0.04953,0.50739 0.05355,0.76647c0.00487,0.06969 -0.00926,0.13641 -0.06139,0.19722c-0.17188,0.16273 -0.36277,0.32253 -0.5691,0.46272c-0.07378,-0.11488 -0.07161,-0.21794 -0.1074,-0.3269c-0.10738,-0.32687 -0.06635,-0.61339 0.2372,-0.84181c0.1423,-0.11569 0.21563,-0.27656 0.26994,-0.44041z" fill="#cbe4e5"/><path d="M258.21064,187.40945c0.09501,0.01477 0.15201,0.02366 0.20902,0.03253c0.01192,0.03633 0.04638,0.05894 0.04286,0.0756c-0.00092,0.1894 -0.02072,0.37586 -0.02159,0.56525c-0.00222,0.10306 -0.03889,0.18349 -0.11357,0.258c-0.224,0.22356 -0.46352,0.42747 -0.76001,0.62252c-0.10123,-0.17084 -0.0884,-0.32391 -0.07561,-0.47698c0.01415,-0.06669 0.0283,-0.13344 0.07684,-0.17754c0.30357,-0.22841 0.48826,-0.54424 0.64201,-0.89936z" fill="#c8e0e1"/><path d="M257.05773,192.29556c-0.03888,0.18348 -0.10029,0.3807 -0.04412,0.57899c0.02387,0.07265 -0.01283,0.15305 -0.03047,0.23646c-0.32655,-0.03365 -0.61998,-0.13104 -0.88027,-0.29224c0.08748,-0.2276 0.06094,-0.47294 0.06533,-0.67902c0.15067,-0.06268 0.2731,0.00808 0.39414,-0.00753c0.17456,0.00997 0.36105,0.05626 0.49539,0.16332z" fill="#85d5d9"/><path d="M264.13174,184.66183c-0.14802,0.23541 -0.296,0.4708 -0.42857,0.72583c-0.10649,0.22464 -0.011,0.5152 -0.34906,0.72097c0.12012,-0.5671 0.09314,-1.08825 0.06614,-1.60936c0.13389,-0.16867 0.29028,-0.35108 0.51213,-0.47158c0.03095,0.03928 0.0464,0.05893 0.06186,0.07854c0.05967,0.18158 0.10036,0.36026 0.13749,0.55553z" fill="#c6dede"/><path d="M258.8686,182.63573c-0.1931,0.26286 -0.36007,0.49525 -0.55317,0.75812c-0.13079,-0.12376 -0.15956,-0.26609 -0.23336,-0.38095c-0.0703,-0.13154 -0.18208,-0.25239 -0.20728,-0.41137c0.02474,-0.11675 0.12194,-0.205 0.20011,-0.29619c0.07819,-0.0912 0.17544,-0.17942 0.29164,-0.26473c0.24482,0.14153 0.35441,0.36538 0.50205,0.59516z" fill="#cae3e3"/><path d="M256.15299,185.26243c-0.02702,-0.52113 -0.0717,-0.95885 -0.23392,-1.39762c0.12198,-0.20501 0.2249,-0.41295 0.35038,-0.63463c0.21877,0.17192 0.27138,0.38689 0.36549,0.59106c0.01192,0.03633 0.00132,0.08638 -0.00576,0.11972c-0.14534,0.4081 -0.29068,0.81625 -0.47621,1.32146z" fill="#cae3e4"/><path d="M260.26213,189.40039c-0.13348,-0.29648 -0.23251,-0.57036 0.00919,-0.8773c0.16349,-0.21577 0.2355,-0.46301 0.3075,-0.71024c0.02121,-0.1001 0.11972,-0.10197 0.2267,-0.05086c-0.09452,0.26095 -0.05253,0.52598 -0.01052,0.79098c0.03714,0.19531 -0.03264,0.33951 -0.15947,0.47484c-0.10428,0.12158 -0.17411,0.26579 -0.37341,0.37259z" fill="#c8e0e1"/><path d="M256.83847,191.10697c0.21523,0.18861 0.11579,0.37986 0.05439,0.57707c-0.09719,0.08822 -0.20413,0.03713 -0.30265,0.03902c-0.24347,-0.05517 -0.45736,-0.15742 -0.66422,-0.29304c0.05786,-0.18051 0.02075,-0.37583 0.15107,-0.52783c0.09855,-0.00187 0.15557,0.00701 0.23155,0.01884c0.18297,0.06296 0.36591,0.12589 0.52986,0.18592z" fill="#85d4d9"/><path d="M258.45873,188.74036c0.061,0.26796 0.09109,0.49663 0.14017,0.72829c-0.20989,0.15683 -0.43522,0.29404 -0.67255,0.39489c-0.12597,-0.05408 -0.14274,-0.16008 -0.18561,-0.23566c-0.04287,-0.0756 -0.08573,-0.15119 -0.04198,-0.26499c0.19445,-0.17646 0.45289,-0.37741 0.76,-0.62252z" fill="#c7dfe0"/><path d="M261.26881,190.02247c-0.16838,0.14608 -0.3177,0.29509 -0.53952,0.41564c-0.19624,-0.18564 -0.24882,-0.40058 -0.3359,-0.63815c0.17542,-0.17943 0.35081,-0.35889 0.52979,-0.55502c0.14054,0.26312 0.22762,0.50074 0.34562,0.77754z" fill="#c8e0e1"/><path d="M259.8938,182.24403c0.12374,0.15715 0.24746,0.31425 0.30362,0.51254c-0.16349,0.21577 -0.34597,0.42855 -0.53198,0.65802c-0.03797,-0.00592 -0.07598,-0.01185 -0.07245,-0.02854c-0.08221,-0.16788 -0.16087,-0.35243 -0.22408,-0.51735c-0.02387,-0.07266 -0.02877,-0.14234 0.01984,-0.18644c0.15643,-0.18239 0.25583,-0.37367 0.50507,-0.43826z" fill="#c4dcdd"/><path d="M262.69153,183.21407c-0.19795,0.19316 -0.37691,0.38926 -0.57488,0.58244c-0.14139,-0.07373 -0.11312,-0.20715 -0.14893,-0.31613c-0.0358,-0.10894 -0.04908,-0.23165 -0.08135,-0.35728c0.13742,-0.18534 0.35572,-0.28914 0.54309,-0.43231c0.18425,0.1493 0.22494,0.32797 0.26205,0.52328z" fill="#c8e0e1"/><path d="M261.81842,190.02195c0.18251,-0.21279 0.34247,-0.41189 0.52848,-0.64135c0.16176,0.16303 0.21787,0.36134 0.36064,0.52143c-0.12551,0.22166 -0.34731,0.3422 -0.54173,0.51865c-0.16882,-0.12968 -0.30316,-0.23676 -0.34734,-0.39872z" fill="#c6ddde"/><path d="M264.16781,187.73446c0.12996,0.31318 0.15785,0.64488 0.35185,0.93356c-0.09939,0.19129 -0.1763,0.36886 -0.34817,0.5316c-0.20327,-0.15228 -0.30452,-0.32314 -0.2135,-0.56739c0.1206,-0.29134 0.1462,-0.59751 0.20981,-0.89777z" fill="#b9cfd0"/><path d="M255.13839,184.86313c-0.10339,-0.06781 -0.02878,-0.14234 -0.03361,-0.21198c-0.00619,-0.15605 0.00658,-0.30909 -0.08623,-0.42698c-0.11314,-0.20717 -0.05531,-0.38767 0.02513,-0.58192c0.0367,-0.08045 0.09233,-0.15793 0.15508,-0.26876c0.20818,0.22196 0.36284,0.41839 0.21971,0.72344c-0.10292,0.20798 -0.13343,0.44445 -0.19836,0.65832c-0.01063,0.05003 -0.02121,0.10009 -0.08174,0.10788z" fill="#c0d8d8"/><path d="M255.24261,188.17039c-0.06321,-0.16494 -0.07293,-0.30427 -0.04469,-0.4377c0.01415,-0.06669 0.03177,-0.15014 0.08038,-0.19424c0.21697,-0.19019 0.38043,-0.40595 0.54393,-0.62172c0.133,0.02074 0.09986,0.08447 0.08928,0.13455c-0.03534,0.16681 -0.07419,0.3503 -0.07152,0.52301c-0.00794,0.22276 -0.09674,0.364 -0.31151,0.45117c-0.10561,0.03524 -0.17321,0.0764 -0.28586,0.14498z" fill="#c1d9d9"/><path d="M259.90285,189.70627c-0.15286,0.16569 -0.33319,0.27546 -0.52052,0.41858c-0.18782,-0.13263 -0.20591,-0.32499 -0.28816,-0.49289c0.17895,-0.19613 0.41975,-0.31368 0.64866,-0.46755c0.09767,0.18753 0.11934,0.36323 0.16004,0.54187z" fill="#c3dbdc"/><path d="M260.87662,183.5344c-0.06457,-0.25129 -0.11361,-0.48296 -0.18168,-0.71755c0.10779,-0.13831 0.21209,-0.25987 0.4043,-0.33332c0.14275,0.1601 0.20241,0.34168 0.28113,0.52625c-0.12198,0.205 -0.27479,0.3707 -0.50369,0.52458z" fill="#c3dadb"/><path d="M258.04917,190.21008c0.22184,-0.12052 0.4211,-0.2273 0.62037,-0.3341c0.16528,0.14636 0.22495,0.32796 0.28462,0.50955c-0.1648,0.12941 -0.34154,0.22248 -0.55274,0.29292c-0.04993,-0.04225 -0.11533,-0.10414 -0.14627,-0.14339c-0.0738,-0.11488 -0.11314,-0.20714 -0.20595,-0.32502z" fill="#c4dbdc"/><path d="M254.95742,186.64414c-0.06716,0.31695 -0.12017,0.56716 -0.17664,0.83401c-0.11975,0.10197 -0.25145,0.16759 -0.43302,0.19097c-0.09631,-0.10116 -0.03359,-0.212 -0.05038,-0.31801c-0.01681,-0.10598 -0.01459,-0.20904 0.00304,-0.29245c0.22538,-0.13724 0.40565,-0.24698 0.65707,-0.41455z" fill="#c2d9da"/><path d="M258.68075,181.76214c0.10428,-0.12158 0.22045,-0.2069 0.34862,-0.25584c0.15554,0.00701 0.21036,0.11897 0.29475,0.18377c0.08439,0.0648 0.19488,0.09927 0.22713,0.22491c-0.07333,0.16088 -0.23816,0.29027 -0.41003,0.45307c-0.07737,-0.09822 -0.15471,-0.19642 -0.23556,-0.27794c-0.07378,-0.11488 -0.14762,-0.22975 -0.22497,-0.32797z" fill="#c5ddde"/><path d="M260.3652,190.67429c-0.13036,0.15202 -0.29297,0.17837 -0.42817,0.26069c-0.19134,-0.11598 -0.29257,-0.28682 -0.40928,-0.47729c0.16126,-0.11273 0.32258,-0.22544 0.46488,-0.34113c0.20326,0.15229 0.2559,0.36727 0.37256,0.55772z" fill="#c3dbdc"/><path d="M256.87399,183.34159c-0.06544,-0.06188 -0.09636,-0.10112 -0.1273,-0.14039c-0.05833,-0.09523 -0.11315,-0.20717 -0.18695,-0.32205c0.18251,-0.21279 0.30796,-0.43448 0.55586,-0.5854c0.12597,0.05408 0.1653,0.14636 0.21656,0.27497c-0.12901,0.23836 -0.28411,0.5071 -0.45815,0.77292z" fill="#c7dfe0"/><path d="M257.16661,189.27999c-0.21828,0.10383 -0.36762,0.25285 -0.59431,0.30369c-0.1498,-0.12675 -0.12996,-0.31315 -0.24177,-0.43395c0.21698,-0.19019 0.43523,-0.29405 0.6606,-0.43124c0.15823,0.17974 0.11934,0.36319 0.17552,0.56149z" fill="#c7dee0"/><path d="M256.56597,192.11557c-0.12106,0.0156 -0.24347,-0.05519 -0.39415,0.00753c-0.00794,0.22276 -0.00042,0.46514 -0.06534,0.67902c-0.07249,-0.02853 -0.16395,-0.06002 -0.23289,-0.10518c-0.10339,-0.06781 -0.16172,-0.16304 -0.13702,-0.27983c0.02339,-0.2031 0.04324,-0.38954 0.06668,-0.59268c0.24703,0.03848 0.35751,0.07293 0.76275,0.29114z" fill="#61acb1"/><path d="M263.8877,183.58996c-0.16838,0.14608 -0.31061,0.26172 -0.49799,0.40487c-0.06808,-0.2346 -0.13968,-0.45249 -0.18877,-0.68415c0.12324,-0.11864 0.24303,-0.22059 0.39724,-0.29996c0.15822,0.17973 0.21788,0.36131 0.2895,0.57923z" fill="#c2dada"/><path d="M255.25984,188.55216c0.16838,-0.14608 0.34157,-0.22247 0.54089,-0.32926c0.02656,0.24537 0.06015,0.45737 0.09374,0.6694c-0.10779,0.1383 -0.25143,0.1676 -0.4211,0.2273c-0.14628,-0.14339 -0.16444,-0.3358 -0.2135,-0.56739z" fill="#c1d9d9"/><path d="M261.75152,182.74024c-0.13567,-0.19346 -0.22141,-0.34464 -0.32615,-0.49883c0.09234,-0.15792 0.2691,-0.251 0.44586,-0.34407c0.15331,0.11005 0.28414,0.2338 0.36283,0.41838c-0.0994,0.19128 -0.30713,0.24508 -0.48252,0.42453z" fill="#c6dedf"/><path d="M261.81723,190.67651c-0.16479,0.1294 -0.34511,0.23915 -0.50637,0.35188c-0.16747,-0.04332 -0.26735,-0.12779 -0.35665,-0.26234c0.12198,-0.205 0.35572,-0.28915 0.5276,-0.45195c0.15691,0.09335 0.22713,0.22492 0.33544,0.3624z" fill="#c0d7d7"/><path d="M256.06359,182.90515c-0.11486,0.17163 -0.1763,0.36883 -0.38262,0.50902c-0.08929,-0.13455 -0.18208,-0.25241 -0.27489,-0.37022c0.04242,-0.20014 0.17275,-0.35213 0.35303,-0.46188c0.1414,0.07373 0.21873,0.17191 0.3045,0.32309z" fill="#c3dadb"/><path d="M256.32759,190.924c-0.07601,-0.01185 -0.15557,-0.00699 -0.23159,-0.01882c-0.13036,0.15203 -0.09324,0.34729 -0.15107,0.52783c-0.13654,-0.00405 -0.19136,-0.11598 -0.32082,-0.15337c-0.03006,-0.22868 0.06931,-0.41997 -0.01776,-0.65752c0.19354,0.01294 0.29693,0.08071 0.4194,0.15149c0.08796,0.04814 0.22803,0.03556 0.30181,0.1504z" fill="#5aa0a4"/><path d="M265.06688,189.23569c-0.11486,0.17162 -0.17631,0.36887 -0.3601,0.49529c-0.12597,-0.05408 -0.18784,-0.13267 -0.28066,-0.25047c0.07688,-0.17757 0.19175,-0.3492 0.33755,-0.48158c0.12597,0.05409 0.19136,0.11597 0.30315,0.23677z" fill="#bdd3d4"/><path d="M258.72005,190.93486c0.15423,-0.07936 0.28944,-0.16166 0.42462,-0.24398c0.15333,0.11006 0.24264,0.24458 0.32837,0.39575c-0.08528,0.12454 -0.22538,0.13724 -0.35837,0.1165c-0.17102,-0.02661 -0.34201,-0.05326 -0.39464,-0.26825z" fill="#bdd4d5"/><path d="M265.0213,184.81763c-0.13742,0.18533 -0.2713,0.35405 -0.40869,0.53938c-0.11582,-0.37986 -0.14366,-0.71159 0.29643,-0.93594c0.09631,0.10116 0.08706,0.23757 0.11226,0.39655z" fill="#bbd2d3"/><path d="M257.03416,190.27595c-0.13785,-0.09041 -0.19268,-0.20234 -0.24746,-0.31427c0.02474,-0.11675 0.12683,-0.13532 0.21698,-0.19018c0.0676,-0.04115 0.13872,-0.09898 0.25629,-0.09789c0.13785,0.09041 0.10256,0.25718 0.2369,0.36427c-0.1458,0.13238 -0.29646,0.19505 -0.46261,0.23811z" fill="#c3dadb"/><path d="M260.06597,185.7859c0.10165,-0.29431 0.20322,-0.58863 0.38085,-0.8711c0.11045,0.03445 0.11184,0.12082 0.09413,0.2042c-0.02695,0.21979 -0.07285,0.4366 -0.11526,0.63677c-0.0318,0.15011 -0.1529,0.16574 -0.35969,0.03012z" fill="#b1c6c7"/><path d="M262.89324,190.87859c0.06624,-0.12751 0.19088,-0.1598 0.28455,-0.23135c0.16837,-0.14609 0.34291,-0.13612 0.5533,-0.01718c-0.16349,0.21576 -0.42333,0.33034 -0.64159,0.43418c-0.12949,-0.0374 -0.17944,-0.07965 -0.19624,-0.18564z" fill="#bbd2d3"/><path d="M262.64754,186.01577c-0.00888,-0.32878 0.1842,-0.59158 0.36182,-0.87409c0.06456,0.25129 0.01151,0.50148 -0.01893,0.73795c-0.0128,0.15308 -0.07687,0.17759 -0.34289,0.13611z" fill="#bad1d2"/><path d="M265.12197,188.14157c0.10473,0.15417 0.21654,0.27498 0.32128,0.42911c-0.03668,0.08045 -0.11841,0.18833 -0.18115,0.29916c-0.32437,-0.13669 -0.32083,-0.15337 -0.2559,-0.36727c0.02476,-0.11675 0.06849,-0.23057 0.11575,-0.36103z" fill="#b5cbcc"/><path d="M261.1686,181.32268c0.1794,0.07966 0.27579,0.1808 0.3721,0.28196c-0.08881,0.14125 -0.25497,0.18426 -0.40916,0.26364c-0.11537,-0.1041 -0.21164,-0.20528 -0.32701,-0.3094c0.0508,-0.14715 0.22886,-0.15389 0.36411,-0.23621z" fill="#c0d7d8"/><path d="M263.68363,189.27871c0.10691,0.05114 0.1653,0.14635 0.22012,0.25828c-0.10295,0.20796 -0.27481,0.37073 -0.47765,0.49419c-0.13654,-0.00405 -0.16395,-0.06001 -0.18425,-0.1493c0.14091,-0.20204 0.28188,-0.40409 0.44184,-0.60315z" fill="#bdd4d4"/><path d="M264.17584,183.34194c-0.08221,-0.16788 -0.14189,-0.34946 -0.22409,-0.51736c0.09369,-0.07155 0.19577,-0.09013 0.30976,-0.07238c0.10691,0.05113 0.12728,0.14041 0.16661,0.23269c0.02387,0.07266 0.04774,0.14527 0.07162,0.21793c-0.07821,0.09122 -0.16836,0.14609 -0.32393,0.13908z" fill="#b6cccc"/><path d="M260.50318,182.42516c-0.10472,-0.15417 -0.19401,-0.28868 -0.31777,-0.44583c0.04019,-0.09712 0.1184,-0.18835 0.30004,-0.21174c0.11538,0.1041 0.22716,0.22491 0.35796,0.34866c-0.10428,0.12158 -0.18601,0.22949 -0.34024,0.30884z" fill="#c1d9d9"/><path d="M264.82628,183.97741c-0.10428,0.12158 -0.20148,0.20986 -0.35216,0.27251c-0.10473,-0.15417 -0.10738,-0.32691 -0.13613,-0.46921c0.06624,-0.12751 0.18734,-0.14311 0.29294,-0.17835c0.05346,0.02556 0.09147,0.03149 0.08796,0.04814c0.03577,0.10895 0.0716,0.21791 0.10738,0.32691z" fill="#b7cdce"/><path d="M265.52959,185.56881c-0.11313,-0.20718 -0.08135,-0.35729 -0.08756,-0.51333c-0.02168,-0.17569 0.10648,-0.22464 0.25714,-0.28733c0.10473,0.15417 0.11093,0.3102 0.15867,0.4555c-0.07334,0.16087 -0.27396,0.18133 -0.32829,0.34516z" fill="#b6cccc"/><path d="M264.46497,190.03794c-0.12326,0.11864 -0.22046,0.20687 -0.32121,0.3118c-0.17456,-0.00997 -0.28857,-0.02773 -0.4039,-0.13184c0.14581,-0.13237 0.27263,-0.26769 0.39588,-0.38632c0.1816,-0.02342 0.23639,0.08853 0.34689,0.12294c-0.00707,0.03336 0.00488,0.0697 -0.01764,0.08342z" fill="#c2dada"/><path d="M260.11689,181.46897c-0.08175,0.10785 -0.14933,0.14904 -0.25142,0.16762c-0.11757,-0.00109 -0.1794,-0.07965 -0.26383,-0.14447c-0.06543,-0.06188 -0.19489,-0.09928 -0.18915,-0.219c0.11621,-0.08526 0.24787,-0.1509 0.42598,-0.15763c0.11182,0.1208 0.18562,0.23569 0.27844,0.35354z" fill="#bbd2d3"/><path d="M255.57365,189.47979c0.15067,-0.06267 0.25983,-0.1146 0.38796,-0.16356c0.1083,0.13749 0.156,0.28277 0.22277,0.43104c-0.09719,0.08823 -0.20636,0.14019 -0.33936,0.1194c-0.03449,-0.02259 -0.06892,-0.04521 -0.08089,-0.08153c-0.06186,-0.07854 -0.12021,-0.17384 -0.19049,-0.30537z" fill="#bbd2d3"/><path d="M265.63849,188.20479c-0.18916,-0.21901 -0.18917,-0.21901 -0.22407,-0.51735c0.12328,-0.11864 0.27883,-0.11162 0.46043,-0.13501c0.00754,0.24243 -0.13339,0.44444 -0.23635,0.65239z" fill="#adc2c3"/><path d="M257.30776,190.55981c0.09719,-0.08823 0.22539,-0.1372 0.3619,-0.13314c0.1083,0.13749 0.20111,0.25527 0.29033,0.38982c-0.35837,0.11649 -0.37736,0.11355 -0.65228,-0.25665z" fill="#b5cbcc"/><path d="M263.41836,182.65534c-0.11974,0.10198 -0.21344,0.17351 -0.36412,0.23618c-0.13431,-0.10706 -0.15953,-0.26609 -0.24529,-0.4173c0.04861,-0.04412 0.09366,-0.07153 0.13872,-0.099c0.04507,-0.02745 0.1056,-0.03525 0.16969,-0.05973c0.16042,0.07668 0.2342,0.19154 0.30098,0.33982z" fill="#bbd1d2"/><path d="M254.59962,188.51822c-0.16528,-0.14637 -0.14189,-0.34947 -0.20864,-0.49771c0.10075,-0.1049 0.23731,-0.1009 0.36548,-0.14985c0.09416,0.20418 0.0968,0.37693 0.00092,0.55152c-0.01062,0.05003 -0.09367,0.07156 -0.15773,0.09604z" fill="#b6cccd"/><path d="M256.86457,181.99611c-0.17895,0.19613 -0.37339,0.37258 -0.54878,0.55201c-0.12949,-0.03741 -0.19488,-0.09926 -0.24616,-0.22786c0.22886,-0.15389 0.45776,-0.30775 0.73305,-0.40272c0.03095,0.0393 0.0464,0.05893 0.06187,0.07854z" fill="#acc1c2"/><path d="M261.70574,185.17985c0.01107,0.22573 0.00313,0.4485 -0.08082,0.65938c-0.0367,0.08045 -0.1078,0.13828 -0.2028,0.12349c-0.03796,-0.00592 -0.10692,-0.05114 -0.1034,-0.06782c0.034,-0.25315 0.22,-0.48263 0.38701,-0.71507z" fill="#a7bbbb"/><path d="M262.91494,181.97381c-0.05922,0.09417 -0.1648,0.12941 -0.28941,0.16167c-0.11182,-0.1208 -0.22361,-0.24162 -0.33544,-0.36241c0.10428,-0.12158 0.22182,-0.1205 0.35482,-0.09978c0.10339,0.06781 0.19624,0.18563 0.27002,0.30055z" fill="#b7cdcd"/><path d="M260.13945,191.27663c0.13036,-0.15203 0.28104,-0.21465 0.45071,-0.2744c0.1414,0.07373 0.24129,0.15821 0.28548,0.32017c-0.24922,0.06455 -0.47372,0.01234 -0.7362,-0.04575z" fill="#b7cece"/><path d="M253.85357,186.85124c-0.09062,-0.22088 0.03134,-0.42586 -0.02837,-0.60746c0.09719,-0.08822 0.16968,-0.0597 0.1971,-0.00374c0.06675,0.14823 0.11095,0.31022 0.0756,0.47699c-0.0296,0.04709 -0.03315,0.06375 -0.24436,0.13424z" fill="#b4cacb"/><path d="M257.59987,182.23131c-0.10339,-0.06779 -0.14981,-0.12672 -0.17017,-0.21602c0.16837,-0.14609 0.34024,-0.30884 0.63453,-0.40084c-0.04108,0.28651 -0.24743,0.42666 -0.46437,0.61687z" fill="#b2c8c9"/><path d="M256.34878,190.08302c0.11537,0.1041 0.19622,0.18564 0.21302,0.29164c-0.03313,0.06376 -0.09368,0.07159 -0.15423,0.07937c-0.24214,0.0312 -0.31242,-0.10039 -0.37208,-0.28196c0.10207,-0.01858 0.20769,-0.05382 0.31329,-0.08905z" fill="#b5cbcb"/><path d="M263.95601,186.04734c0.02694,-0.21979 0.06579,-0.40325 0.1652,-0.59452c0.09854,-0.00186 0.12595,0.05408 0.11535,0.10411c-0.00575,0.11974 0.00753,0.24244 0.0018,0.36213c-0.02829,0.13343 -0.11134,0.15493 -0.28234,0.12827z" fill="#91a3a3"/><path d="M256.80602,184.58883c0.09062,0.22088 0.02567,0.43476 -0.01675,0.63492c-0.00707,0.03336 -0.05215,0.06082 -0.09368,0.07155c-0.03797,-0.00592 -0.08795,-0.04814 -0.08442,-0.06484c-0.00754,-0.24243 0.0764,-0.45333 0.19482,-0.64164z" fill="#99abac"/><path d="M255.77386,185.01385c-0.14715,0.04601 -0.24215,0.03119 -0.26249,-0.05814c-0.01326,-0.1227 0.06008,-0.28354 0.18201,-0.48855c0.09771,0.18753 0.05882,0.37098 0.08047,0.54666z" fill="#93a5a6"/><path d="M262.02501,191.36361c0.1909,-0.15978 0.3663,-0.33924 0.68008,-0.15253c-0.19445,0.17645 -0.44144,0.13798 -0.68008,0.15253z" fill="#9aadad"/><path d="M262.40202,188.28641c-0.02875,-0.14234 -0.05394,-0.30131 -0.0862,-0.42698c0.07469,-0.07451 0.13521,-0.08232 0.2457,-0.04786c0.06323,0.16495 -0.04811,0.3199 -0.06091,0.47298c-0.03797,-0.00592 -0.057,-0.0089 -0.09857,0.00188z" fill="#c5dddd"/><path d="M259.20514,185.03148c0.12508,0.24347 0.07912,0.46034 -0.0428,0.66533c-0.00354,0.01669 -0.04508,0.02746 -0.08309,0.02154c-0.06054,0.00779 -0.08795,-0.04814 -0.08087,-0.08151c0.01983,-0.18643 0.11928,-0.37774 0.20676,-0.60534z" fill="#aec2c3"/><path d="M254.88025,188.7687c0.10473,0.15417 0.12641,0.32982 0.1516,0.48886c-0.07467,0.07452 -0.14717,0.046 -0.17104,-0.02663c-0.05128,-0.12862 -0.10606,-0.24053 -0.13478,-0.38285c-0.03095,-0.0393 0.03666,-0.08043 0.15421,-0.07935z" fill="#9caeaf"/><path d="M261.9821,181.46665c-0.16043,-0.07669 -0.26027,-0.16115 -0.37209,-0.28197c0.26116,-0.02824 0.45958,0.05435 0.68759,0.08989c-0.02961,0.0471 -0.0367,0.08045 -0.05922,0.09413c-0.08662,0.03819 -0.16966,0.05971 -0.25626,0.09793z" fill="#a9bebf"/><path d="M257.52657,187.30285c0.1401,-0.01263 0.21252,0.01588 0.27797,0.0778c-0.01636,0.16975 -0.10516,0.31098 -0.33052,0.4482c0.0044,-0.2061 0.03622,-0.3562 0.05252,-0.52597z" fill="#b9cfd0"/><path d="M263.58139,187.81538c0.07468,-0.0745 0.15423,-0.07933 0.23376,-0.08419c0.08794,0.04817 0.07029,0.13154 -0.07154,0.523c-0.20683,-0.1356 -0.11095,-0.31021 -0.16221,-0.43882z" fill="#869797"/><path d="M258.05794,184.88723c-0.11355,0.258 0.008,0.51818 -0.30042,0.67687c-0.02302,-0.26206 0.03837,-0.45923 0.30042,-0.67687z" fill="#93a4a5"/><path d="M265.11728,185.38393c-0.053,0.25018 -0.08835,0.417 -0.12368,0.5838c-0.00707,0.03336 -0.05215,0.06082 -0.10913,0.0519c-0.01903,-0.00296 -0.05347,-0.02557 -0.06895,-0.0452c0.00437,-0.20607 0.04326,-0.3896 0.30174,-0.59051z" fill="#94a5a6"/><path d="M264.54658,187.70731c0.12816,-0.04893 0.18866,-0.05677 0.26956,0.02475c-0.00927,0.13639 -0.02206,0.28949 -0.11441,0.44741c-0.16526,-0.1464 -0.12993,-0.31315 -0.15515,-0.47213z" fill="#abbfc0"/><path d="M265.58468,184.47462c-0.10207,0.01857 -0.14361,0.02932 -0.18164,0.02339c-0.15956,-0.26608 -0.15953,-0.26606 -0.05305,-0.49069c0.16882,0.12968 0.13351,0.29646 0.23467,0.4673z" fill="#acc0c1"/><path d="M262.44169,190.60144c0.1423,-0.11569 0.26909,-0.251 0.43037,-0.36372c0.0676,-0.04115 0.14362,-0.02929 0.1794,0.07965c-0.16838,0.14608 -0.33316,0.27547 -0.60978,0.28405z" fill="#9fb2b2"/><path d="M263.74933,182.48286c-0.08089,-0.08155 -0.12726,-0.14046 -0.14761,-0.22975c0.05214,-0.06083 0.1162,-0.0853 0.21476,-0.08717c0.11047,0.03446 0.16879,0.12969 0.22713,0.22493c-0.05922,0.09417 -0.17674,0.09307 -0.29426,0.09197z" fill="#aec2c3"/><path d="M260.07464,188.06166c-0.13431,-0.10705 -0.10961,-0.22386 -0.10388,-0.34357c0.01063,-0.05003 0.07466,-0.07449 0.13167,-0.06562c0.03797,0.00592 0.08797,0.04816 0.08088,0.08151c0.0358,0.10894 -0.02341,0.20315 -0.10869,0.32767z" fill="#91a2a3"/><path d="M260.73239,181.06518c-0.26911,0.251 -0.29161,0.26475 -0.48918,-0.00726c0.15908,-0.00966 0.30976,-0.07236 0.48918,0.00726z" fill="#869696"/><path d="M254.71329,184.83135c-0.14274,-0.1601 -0.06455,-0.25126 -0.02081,-0.3651c0.15332,0.11006 0.15332,0.11006 0.02081,0.3651z" fill="#555f5f"/><path d="M261.3291,187.79188c-0.01766,0.08341 -0.0424,0.20014 -0.12414,0.30804c-0.13921,-0.17677 -0.12507,-0.24347 -0.02437,-0.34839c0.02607,-0.0304 0.0831,-0.02154 0.14848,0.04038z" fill="#93a5a6"/><path d="M265.88704,185.64172c0.14762,0.22976 0.12158,0.26017 -0.1931,0.26282c-0.01326,-0.12271 0.08037,-0.19425 0.1931,-0.26282z" fill="#8b9b9c"/><path d="M254.43796,184.18542c0.02166,0.17569 -0.0256,0.30613 -0.0729,0.43665c-0.1246,0.03229 -0.17455,-0.00998 -0.1604,-0.0767c0.02827,-0.13343 0.07554,-0.26391 0.23326,-0.35994z" fill="#9aacad"/><path d="M265.09499,183.45063c0.09631,0.10116 0.19975,0.16898 0.15249,0.29946c-0.00355,0.01669 -0.02606,0.03041 -0.04506,0.02746c-0.16396,-0.06002 -0.18076,-0.16603 -0.1074,-0.3269z" fill="#5f6a6b"/><path d="M258.82977,187.7299c-0.04287,-0.0756 -0.02875,-0.14235 0.00442,-0.2061c0.02607,-0.0304 0.07114,-0.05784 0.10561,-0.03522c0.03449,0.02259 0.06543,0.06188 0.05832,0.09525c-0.01415,0.06669 -0.04728,0.13046 -0.16836,0.14606z" fill="#636e6f"/><path d="M263.19252,181.77585c0.14362,-0.0293 0.23508,0.00215 0.28283,0.14743c-0.16614,0.04302 -0.23156,-0.01882 -0.28283,-0.14743z" fill="#4a5354"/></g><g data-paper-data="{&quot;index&quot;:null}" fill="#000000" stroke="#000000" stroke-width="1.2"><path d="M245.73497,204.63271c-0.10124,-1.82169 2.16465,-4.27022 2.917,-6.39488c0.81003,-2.2875 0.11231,-4.08251 1.41496,-5.09187c0.9099,-0.70502 2.49952,-0.40209 3.30052,-0.14177c1.94778,0.63299 2.41145,4.2958 1.03564,8.1811c-1.3758,3.8853 -4.0701,6.52182 -6.01785,5.88882c-0.88263,-0.28684 -2.56636,-0.93182 -2.65028,-2.44138z"/><path d="M248.43717,207.74101c-0.11706,-2.54125 2.7779,-7.71141 2.7779,-7.71141c0,0 0.15845,-3.83723 0.1883,-3.91689c1.90119,-5.07723 5.29421,-4.03758 9.12956,-2.79113c1.82537,0.59321 4.38118,2.21446 4.81268,4.1376c0.48936,2.18106 -0.96361,4.53492 -1.97374,7.38752c-1.9008,5.36783 -5.82676,9.17958 -9.7223,7.91359c-1.7148,-0.55728 -5.05603,-1.62515 -5.21238,-5.01927z"/></g></g><path d="M224.7414,205.52094c0,0 3.5668,-5.79812 3.11785,-7.57651c-0.10981,-0.43498 -3.09136,6.82575 -3.57695,6.41033c-2.31561,-1.98097 -7.96247,-3.60637 -7.96247,-3.60637c0,0 5.42879,-6.29981 9.21872,-9.03283c1.04644,-0.75462 3.65787,-0.15802 3.9497,-0.38842c0.37689,-0.29756 9.51209,0.26809 9.86131,0.44604c4.17733,2.12872 7.72012,7.03185 7.72012,7.03185c0,0 -2.4058,2.65188 -2.44805,5.73958c-0.0003,0.02194 -2.24856,-4.91775 -2.25326,-4.57378c-0.0282,2.06064 0.63683,5.54932 0.63683,5.54932c0,0 -5.50041,1.157 -8.23808,1.20322c-3.018,0.05095 -10.02573,-1.20242 -10.02573,-1.20242z" fill="#ffffff" fill-rule="nonzero" stroke="#737373" stroke-width="2.5" stroke-linecap="butt" stroke-linejoin="miter"/><path d="M221.63414,194.30285c0,0 -5.98101,0.5234 -7.36343,0.50448c-0.6038,-0.00826 -1.04091,-0.41429 -1.00402,-0.87566c0.0393,-0.49134 0.57363,-1.03964 0.57363,-1.03964" fill="none" fill-rule="nonzero" stroke="#737373" stroke-width="1" stroke-linecap="round" stroke-linejoin="miter"/><path d="M215.90411,193.07907l0.13332,-0.0859c0.08969,-0.03515 0.17939,-0.07031 0.26908,-0.10546c1.18037,-0.1804 6.70413,-1.82588 4.90453,0.47967c-1.01094,0.20328 -5.78682,0.86414 -5.61921,-0.12471c0,0 0.07368,-0.22939 0.31229,-0.16359z" fill="#000000" fill-rule="nonzero" stroke="none" stroke-width="0.5" stroke-linecap="butt" stroke-linejoin="miter"/><path d="M223.67191,191.60558c0,0 -2.13956,1.94387 -2.60345,2.30349c-0.25141,0.19491 -3.41336,0.29698 -3.8503,0.32436c-1.92952,0.12091 -3.4567,0.30705 -3.4567,-0.08966c0,-0.13469 -0.01539,-0.75296 0.46329,-1.00129c1.25034,-0.64866 4.18519,-1.27312 5.99874,-1.43876c2.48279,-0.22678 3.4484,-0.09813 3.4484,-0.09813z" fill="url(#color-1)" fill-rule="nonzero" stroke="#737373" stroke-width="0" stroke-linecap="butt" stroke-linejoin="miter"/><g stroke-linejoin="miter"><g stroke-linecap="butt"><path d="M263.68932,174.61947c-3.01708,12.82819 -16.80709,20.77883 -30.80086,17.75826c-13.99375,-3.02057 -22.89211,-15.86852 -19.87502,-28.69671c3.01708,-12.82819 16.8071,-20.77884 30.80086,-17.75827c13.99375,3.02057 22.89211,15.86852 19.87502,28.69672z" fill="none" fill-rule="nonzero" stroke="#000000" stroke-width="4.5"/><g><g fill-rule="nonzero"><path d="M226.87189,150.91158l-0.00957,-0.01018" data-paper-data="{&quot;index&quot;:null}" fill="#ffab19" stroke="#000000" stroke-width="5"/><g data-paper-data="{&quot;index&quot;:null}" fill="none" stroke="none" stroke-width="1" font-family="sans-serif" font-weight="normal" font-size="12" text-anchor="start"/></g><path d="M226.87189,150.91158l-0.00957,-0.01018" data-paper-data="{&quot;index&quot;:null}" fill="#ffab19" fill-rule="nonzero" stroke="#000000" stroke-width="5"/><path d="M237.78721,170.25401" fill="#001026" fill-rule="evenodd" stroke="#000000" stroke-width="5"/><g data-paper-data="{&quot;index&quot;:null}" fill="none" fill-rule="nonzero" stroke="none" stroke-width="1" font-family="sans-serif" font-weight="normal" font-size="12" text-anchor="start"/><g data-paper-data="{&quot;index&quot;:null}" fill="none" fill-rule="nonzero" stroke="none" stroke-width="1" font-family="sans-serif" font-weight="normal" font-size="12" text-anchor="start"/></g></g><path d="M234.91771,186.29195c0,0 -11.53805,-3.46213 -13.9191,-5.23227c-1.98623,-1.47661 -2.02066,-5.19283 -2.02066,-5.19283" fill="none" fill-rule="nonzero" stroke="#000000" stroke-width="3" stroke-linecap="round"/><path d="M218.94294,165.57895l23.1058,4.79113l-0.81376,4.37429" fill="none" fill-rule="nonzero" stroke="#000000" stroke-width="4.5" stroke-linecap="round"/><path d="M248.60397,176.28457l0.89004,-4.78439l21.02903,-3.03846" fill="none" fill-rule="nonzero" stroke="#000000" stroke-width="4.5" stroke-linecap="round"/><path d="M211.64681,151.61348l-3.12763,-5.29036l-1.19713,-6.05662l9.30146,5.2323l1.88995,-0.01778l-0.26331,-3.40552l-2.20327,-2.72228l6.74611,3.84326l-2.44067,-4.7981l-0.17264,-7.02463l4.70605,5.85738l3.62979,1.96077l-1.28665,-5.1683l5.17356,4.96551l0.17677,-5.07209l1.46266,-3.75424l4.79406,5.52406l2.43886,1.47325l1.29282,2.48148l2.47832,-7.00553l1.39909,6.71969l3.44832,-7.34714l2.24052,7.45988l3.35263,-3.77201l-0.65397,7.43641l4.60052,-2.78629l1.78369,-4.25597l1.33006,7.21908l-1.72416,3.67357l6.88746,-2.64156l3.38293,-0.19806l-5.96752,2.96539l1.88046,-0.1008l-2.81065,4.09939l6.66395,-2.39009l-5.98212,5.04358l10.22726,-1.01053l-7.35858,5.13962l5.19691,-0.8801l-6.11504,3.88111l2.52686,1.13994l-10.15849,-1.62451l-39.80759,0.99699l-11.10697,2.87299l4.53009,-3.58063l-7.69273,-1.09136l5.55847,-2.13031l-9.19702,-4.31894l7.26983,-0.40087l2.90048,-1.10786l2.2331,0.777" fill="#ffffff" fill-rule="nonzero" stroke="#e2e2e2" stroke-width="3" stroke-linecap="round"/></g></g></g></svg>