<svg version="1.1" xmlns="http://www.w3.org/2000/svg" xmlns:xlink="http://www.w3.org/1999/xlink" width="131.21841" height="122.14136" viewBox="0,0,131.21841,122.14136"><defs><linearGradient x1="57.34261" y1="150.3909" x2="55.31241" y2="128.04656" gradientUnits="userSpaceOnUse" id="color-1"><stop offset="0" stop-color="#000000"/><stop offset="1" stop-color="#000000" stop-opacity="0"/></linearGradient></defs><g transform="translate(40.51122,-126.9504)"><g stroke-miterlimit="10"><path d="M8.13196,199.82377l13.94212,-7.63664" fill="none" fill-rule="nonzero" stroke="#000000" stroke-width="6" stroke-linecap="round" stroke-linejoin="miter"/><path d="M10.76411,169.0829c0,0 4.88322,-6.16775 5.99855,-6.05642c2.01948,0.20156 16.12271,6.94811 16.12271,6.94811c0,0 -6.4135,10.42266 -7.07286,13.18527c-0.11054,0.46321 -2.34482,12.45749 -2.34482,12.45749" fill="none" fill-rule="nonzero" stroke="#000000" stroke-width="6" stroke-linecap="round" stroke-linejoin="miter"/><g><g><g stroke="#001026" stroke-width="1.2"><path d="M4.15626,194.32635l-13.90086,22.15116c0,0 5.26823,4.72197 0.71387,10.17231c-0.25965,0.31072 -1.57604,1.80318 -4.22091,0.44082c-2.53323,-1.30487 -6.37286,-5.42593 -7.76828,-6.94119c-0.6481,-0.70377 -1.37564,-2.10203 -1.41233,-3.53348c-0.03693,-1.44124 1.04191,-2.63551 1.60526,-3.34202c0.22945,-0.28776 16.62812,-24.22213 16.62812,-24.22213" fill="#bf0000" fill-rule="evenodd" stroke-linecap="round" stroke-linejoin="round"/><path d="M-7.98588,193.52781c4.66747,-5.5857 8.92837,-2.35405 11.06646,-0.56743c0.92973,0.77689 2.01314,-0.84659 -0.69359,4.27373c-0.59613,1.1277 -3.43871,5.44257 -5.39101,9.48717c-1.33688,2.7696 -1.98975,5.63519 -2.27746,6.37875c-0.67982,1.75679 -1.88169,2.89478 -1.88169,2.89478l-0.05591,-1.56705c0,0 0.00867,1.06796 -0.08929,1.62306c-0.30518,1.72926 -0.5288,3.03977 -0.5288,3.03977c0,0 -5.28604,-4.79686 -8.87026,-4.74936c-3.58421,0.04752 -5.16978,4.24596 -5.16978,4.24596c0,0 -3.62357,-3.9218 -2.14088,-6.46296c0.36552,-0.62647 2.33635,-1.7876 2.33635,-1.7876c0,0 -0.54734,-0.28136 -0.25307,-0.68234c0.15,-0.20442 3.12362,-2.64091 5.89769,-5.83653c3.65186,-4.20681 7.37871,-9.48519 8.05119,-10.28998z" fill="#000000" fill-rule="nonzero" stroke-linecap="butt" stroke-linejoin="miter"/></g><path d="M-11.85194,183.84587c0.12535,-0.17323 0.67852,1.07225 2.77557,2.83499c2.76653,2.32551 7.36263,5.43585 8.71669,6.23301c3.51129,2.06714 4.99046,1.30551 4.65819,1.76476c-1.22962,1.69951 -5.43265,3.31457 -9.17599,0.60617c-1.64503,-1.1902 -5.32757,-3.22535 -6.70588,-5.26583c-1.75812,-2.60273 -0.95781,-5.22047 -0.26857,-6.17312z" fill="#004fd9" fill-rule="nonzero" stroke="#001026" stroke-width="1.2" stroke-linecap="butt" stroke-linejoin="miter"/><g fill-rule="nonzero" stroke-linecap="butt" stroke-linejoin="miter"><g fill="none" stroke="none" stroke-width="1" font-family="sans-serif" font-weight="normal" font-size="12" text-anchor="start"/><path d="M-11.38391,182.47646c0,0 5.96039,6.43198 9.08839,8.89904c3.12802,2.46708 6.55166,3.43633 6.55166,3.43633c0,0 -1.2531,1.62414 -3.88642,2.0792c-2.03834,0.35224 -5.10309,-0.04182 -7.79673,-2.14313c-2.45399,-1.91437 -4.76303,-4.58859 -5.2719,-6.70869c-0.77131,-3.21347 1.31499,-5.56276 1.31499,-5.56276z" fill="#000000" stroke="#001026" stroke-width="1.2"/></g><g stroke="#001026" stroke-width="1.2"><path d="M-7.12992,192.50902c0,0 -21.47801,21.54281 -22.02321,21.23625c-1.56456,-0.8797 -7.56377,-8.93406 -7.56377,-8.93406l23.81573,-19.89043" fill="#ffab19" fill-rule="evenodd" stroke-linecap="round" stroke-linejoin="round"/><path d="M-5.65644,193.05919c0,0 -4.60041,4.50883 -6.89442,7.01515c-2.20029,2.40392 -6.60026,7.72845 -6.60026,7.72845c0,0 -2.3832,4.51699 -3.88,4.90703c-0.69326,0.18066 1.16354,-2.6951 1.16354,-2.6951c0,0 -2.09619,3.23966 -2.2779,3.52764c-1.26781,2.00928 -4.12692,3.69702 -6.74056,1.9926c-2.86961,-1.87136 -7.52055,-5.10752 -8.63703,-8.38475c-0.47505,-1.39442 -0.33161,-4.27153 1.57489,-5.94009c2.15001,-1.88169 6.12669,-2.48012 6.12669,-2.48012l-3.96807,0.94426c0,0 0.97797,-1.27038 2.0307,-1.93525c1.18221,-0.74668 4.71927,-2.32791 4.71927,-2.32791l16.28615,-11.78115" fill="#000000" fill-rule="evenodd" stroke-linecap="round" stroke-linejoin="round"/><path d="M-26.15061,213.72663c-1.12423,1.27471 -2.8983,2.38321 -4.72038,2.24152c-1.82883,-0.14222 -8.71843,-6.14854 -9.04023,-8.01061c-0.3056,-1.76833 0.64069,-3.8335 1.73791,-5.07759c2.25263,-2.55413 6.77012,-2.19659 10.09009,0.79866c3.31995,2.99522 4.18521,7.49387 1.93256,10.04803z" fill="#ff0000" fill-rule="nonzero" stroke-linecap="butt" stroke-linejoin="miter"/></g></g><g fill="#000000" fill-rule="nonzero" stroke="#001026" stroke-width="1.2" stroke-linecap="butt" stroke-linejoin="miter"><path d="M-17.52994,192.29749c0,0 -2.56588,-1.45665 -3.09961,-2.21766c-0.16428,-0.23427 -0.15535,-1.42174 0.24502,-2.52619c0.4997,-1.37847 1.5184,-2.75706 2.52214,-3.48741c2.58249,-1.87903 8.10645,-1.77282 9.33803,-0.01679c0.53376,0.76105 0.8001,4.17138 0.79755,4.1774"/></g></g><g fill-rule="nonzero" stroke-linecap="butt" stroke-linejoin="miter"><g stroke="none" stroke-width="1"><path d="M8.63779,192.59344c0.03415,-0.20926 0.16831,-0.27231 0.3389,-0.31829c0.27495,-0.05096 0.55483,-0.04561 0.83146,-0.07772c0.04724,-0.05891 0.0945,-0.11778 0.12434,-0.1758c0.69819,-1.20374 1.75532,-1.8963 2.95059,-2.40674c0.25263,-0.10653 0.50368,-0.23185 0.78189,-0.24521c0.05217,-0.00247 0.12009,-0.02464 0.15159,-0.06393c0.17324,-0.21596 0.3993,-0.22683 0.64114,-0.25736c0.20702,-0.02884 0.41735,-0.02009 0.62602,-0.03012c0.12171,-0.00586 0.24674,0.02587 0.34356,0.13444c0.09677,0.10858 0.24083,0.15828 0.36747,0.20875c0.7517,0.20919 1.46272,0.55241 2.13143,1.0109c0.37241,0.26518 0.68018,0.59007 0.98958,0.93374c0.90923,1.01312 1.48544,2.21212 1.81068,3.53645c0.13945,0.59724 0.19362,1.21743 0.17823,1.84095c-0.01114,0.47233 -0.14731,0.91297 -0.30249,1.33567c-0.49377,1.34489 -1.3665,2.3494 -2.50731,3.08372c-0.21458,0.14243 -0.46885,0.23018 -0.72313,0.31789c-0.16896,0.06477 -0.31892,0.14746 -0.40685,0.34043c-0.07219,0.1733 -0.22212,0.25602 -0.39273,0.30198c-0.27495,0.05096 -0.5532,0.06435 -0.83144,0.07773c-0.08697,0.00418 -0.15982,-0.03006 -0.23265,-0.06432c-0.25821,-0.15741 -0.52399,-0.20124 -0.80388,-0.20664c-0.59291,0.00968 -1.16743,-0.1703 -1.74029,-0.33147c-0.21525,-0.06514 -0.43212,-0.14904 -0.63491,-0.27137c-0.66214,-0.38333 -1.29116,-0.78713 -1.83058,-1.36509c-0.26084,0.01256 -0.54072,0.00713 -0.81896,0.02057c-0.10436,0.00502 -0.22607,0.01087 -0.30546,-0.09854c-0.07774,-0.09061 -0.18049,-0.06683 -0.2848,-0.06179c-0.69721,0.0147 -1.39281,0.04817 -2.09005,0.06285c-1.54934,0.05566 -3.11607,0.11224 -4.66867,0.13034c-1.51784,0.01642 -3.03074,0.08926 -4.5453,0.14325c-0.24346,0.01173 -0.4728,-0.01499 -0.71623,-0.00326c-1.18249,0.05691 -2.36501,0.11382 -3.54916,0.15195c-0.20866,0.01004 -0.41407,0.05765 -0.61519,-0.0459c-0.07288,-0.03424 -0.15814,-0.01126 -0.2451,-0.00711c-0.8695,0.04188 -1.75801,0.06574 -2.62752,0.1076c-0.03479,0.00166 -0.08695,0.00416 -0.12171,0.00586c-0.2766,0.0322 -0.42721,-0.09268 -0.57192,-0.34995c-0.47711,-0.86406 -0.66188,-1.77992 -0.55432,-2.74762c0.03084,-0.24682 0.09644,-0.49532 0.19847,-0.72672c0.0722,-0.17332 0.20473,-0.2552 0.37697,-0.28237c0.51678,-0.08146 1.03188,-0.18177 1.56608,-0.26408c0.37931,-0.05601 0.77927,-0.07525 1.15364,-0.18764c0.81663,-0.24689 1.6704,-0.26912 2.49194,-0.45968c0.46294,-0.09778 0.90525,-0.23232 1.36987,-0.3113c0.49936,-0.08063 0.97811,-0.19804 1.4584,-0.29669c0.87539,-0.17423 1.77147,-0.31173 2.64521,-0.50476c1.14539,-0.28158 2.29744,-0.48803 3.44939,-0.69447c0.39508,-0.07564 0.79004,-0.15129 1.1851,-0.2269c0.61949,-0.10534 1.2563,-0.21145 1.87576,-0.31673c0.34452,-0.05435 0.66837,-0.1454 1.01287,-0.19975c0.3603,-0.07398 0.69066,-0.08987 1.06998,-0.14587zM8.92228,193.05157c-0.08466,0.23055 -0.13454,0.45941 -0.1306,0.70455c-0.11382,0.49619 -0.1043,1.00528 -0.09474,1.5144c0.00364,0.64151 0.07848,1.29844 0.15168,1.93661c0.08141,0.73212 0.33177,1.3995 0.60118,2.08485c0.04135,0.0735 0.08268,0.147 0.1447,0.25723c0.13909,-0.00667 0.27823,-0.01342 0.41734,-0.0201c0.03479,-0.00166 0.06793,-0.02212 0.11844,-0.04345c-0.01148,-0.13155 -0.04036,-0.26228 -0.08661,-0.39217c-0.07188,-0.22301 -0.1073,-0.42891 -0.17915,-0.6519c-0.15358,-0.55879 -0.15234,-1.14394 -0.25372,-1.70523c-0.04368,-0.29986 -0.12205,-0.59804 -0.13093,-0.89957c-0.00529,-0.6603 -0.09749,-1.3164 -0.03321,-1.98001c0.02001,-0.17082 0.03836,-0.36042 0.05838,-0.53127c0.0978,-0.08019 0.04984,-0.22888 0.07643,-0.32453c0.04232,-0.11526 0.08464,-0.23056 0.04917,-0.43642c-0.21458,0.14243 -0.44559,0.09693 -0.64768,0.18214c-0.00919,0.09481 -0.10694,0.17499 -0.06068,0.30489zM8.39667,193.83172c0.11879,-0.43979 0.1263,-0.55336 0.07019,-0.79603c-0.20702,0.02884 -0.3967,0.05686 -0.60372,0.08568c-0.12171,0.00586 -0.20213,0.08519 -0.24444,0.20048c-0.02823,0.0769 -0.01999,0.17081 -0.04821,0.24765c-0.09714,0.28777 -0.12137,0.60978 -0.07773,0.90965c-0.07543,0.13575 -0.06236,0.28607 -0.04921,0.43645c0.05647,0.84654 0.09393,1.67517 0.23733,2.51754c0.0676,0.37421 0.1526,0.74761 0.25334,1.10131c0.09419,0.27859 0.19001,0.57594 0.41838,0.7914c0.22609,-0.01089 0.45212,-0.0218 0.6782,-0.03264c-0.04788,-0.14867 -0.09418,-0.27859 -0.13878,-0.38964c-0.18504,-0.51953 -0.33537,-1.04073 -0.4161,-1.5653c-0.11122,-0.67406 -0.13555,-1.35233 -0.17726,-2.02973c-0.02791,-0.31952 0.05015,-0.62523 0.00488,-0.94388c0.10694,-0.17499 0.10794,-0.36379 0.09318,-0.53291zM-10.75461,197.09368c-0.08135,0.26814 -0.0758,0.53206 -0.03542,0.79434c-0.01574,0.01961 -0.02987,0.05808 -0.0282,0.07688c0.05677,0.45021 0.14831,0.89876 0.34095,1.3047c0.10829,0.24018 0.19919,0.48112 0.40686,0.65983c0.97384,-0.04685 1.94762,-0.09378 2.97368,-0.1431c-0.23065,-0.44183 -0.35705,-0.88874 -0.46596,-1.3364c-0.10403,-0.39135 -0.08468,-0.76971 -0.15392,-1.16271c-0.01315,-0.15034 -0.00727,-0.28275 -0.02039,-0.4331c0.06726,-0.22968 0.09811,-0.47655 0.09088,-0.75925c-0.52172,0.02511 -0.9955,0.19892 -1.47911,0.25993c-0.49938,0.08066 -0.99713,0.18011 -1.47911,0.25993c-0.10695,0.17499 -0.12863,0.32703 -0.15025,0.47905zM-7.30032,196.45561c-0.07541,0.13577 -0.07973,0.28694 -0.06657,0.43726c-0.05647,0.1537 -0.02429,0.32203 -0.02692,0.49199c0.0286,0.52709 0.14407,1.04996 0.29273,1.55235c0.0958,0.29733 0.22645,0.59303 0.4233,0.84775c0.06957,-0.00333 0.14075,0.01209 0.21033,0.00873c0.85215,-0.04098 1.68678,-0.08115 2.54055,-0.10341c0.90589,-0.02474 1.79442,-0.04863 2.70033,-0.07334c1.32328,-0.04483 2.63078,-0.06998 3.95404,-0.11482c1.48142,-0.03355 2.94051,-0.12268 4.42522,-0.11859c0.24509,0.00711 0.50429,-0.02431 0.76516,-0.03682c-0.08761,-0.20336 -0.20837,-0.38626 -0.26119,-0.59132c-0.21397,-0.65026 -0.3252,-1.32431 -0.40169,-2.00005c-0.05252,-0.60138 -0.08764,-1.20362 -0.12277,-1.80589c0.01345,-0.24601 0.01114,-0.47235 0.02458,-0.71836c0.09123,-0.15534 0.04165,-0.32284 0.06329,-0.47487c0.02001,-0.17082 0.07644,-0.32451 0.04264,-0.51163c-0.17717,-0.02922 -0.31305,0.01507 -0.4331,0.03971c-1.00797,0.25612 -2.04642,0.36271 -3.05929,0.56244c-0.65263,0.12578 -1.30524,0.25154 -1.95619,0.39615c-0.87539,0.17423 -1.73173,0.36643 -2.58974,0.53982c-0.70312,0.1471 -1.40627,0.29415 -2.11104,0.42243c-0.75531,0.14955 -1.49486,0.27952 -2.25182,0.41033c-0.68738,0.12745 -1.39216,0.25575 -2.0953,0.40283c-0.00261,0.16996 -0.0971,0.28778 -0.0666,0.43726zM16.55018,201.61117c-0.1926,-0.4059 -0.29664,-0.79728 -0.41806,-1.18772c-0.12307,-0.40929 -0.26189,-0.79891 -0.36754,-1.20903c-0.10403,-0.39135 -0.17491,-0.80315 -0.26151,-1.19532c-0.08827,-0.41098 -0.17657,-0.82193 -0.24911,-1.25248c-0.06923,-0.39299 -0.12271,-0.80563 -0.19197,-1.19863c-0.05348,-0.41261 -0.03744,-0.82861 -0.16049,-1.23789c0.06986,-0.39965 -0.0358,-0.80979 -0.05291,-1.20532c-0.0013,-0.41511 -0.03909,-0.84741 -0.04042,-1.26253c0.00033,-0.39632 0.01639,-0.81231 0.03409,-1.20949c0.01607,-0.41601 0.10335,-0.81652 0.06722,-1.22995c-0.42066,-0.0175 -0.54234,-0.01166 -0.84225,0.15376c-0.06726,0.22968 -0.13454,0.45943 -0.16369,0.72503c-0.02427,0.32201 -0.04857,0.644 -0.08858,0.98565c-0.06595,0.64485 -0.11609,1.27007 -0.05866,1.92787c0.0394,0.45106 0.09619,0.90129 0.066,1.3557c-0.00919,0.09481 0.00067,0.20757 0.04529,0.31862c0.07188,0.22301 0.0758,0.46819 0.09552,0.6937c0.07221,0.82695 0.24876,1.64886 0.44109,2.45114c0.23269,1.06459 0.58379,2.08566 0.98712,3.10426c0.07022,0.20421 0.14043,0.40843 0.31009,0.55121c0.26414,0.02505 0.52336,-0.0063 0.84881,-0.07857zM17.95647,193.91891c-0.23922,-0.13944 -0.47183,-0.20376 -0.70611,-0.28684c-0.19949,-0.08479 -0.40981,-0.09353 -0.61193,-0.0083c-0.39011,0.13201 -0.80257,0.2085 -1.22155,0.20976c-0.03479,0.00166 -0.08532,0.02295 -0.10268,0.02379c-0.04394,0.09648 -0.03736,0.17163 0.02298,0.26312c0.019,0.01796 0.05546,0.03508 0.07286,0.03424c0.50925,0.03211 1.02173,0.1018 1.53753,0.20911c0.07119,0.01547 0.17717,0.02922 0.24347,-0.01175c0.27168,-0.08855 0.54333,-0.17714 0.76547,-0.43317zM15.23216,192.91764c0.47444,0.03377 0.93476,0.10599 1.37936,0.19787c0.14237,0.03087 0.26248,0.00624 0.39666,-0.05686c0.20045,-0.104 0.36289,-0.24396 0.5427,-0.38471c0.06629,-0.04095 0.14993,-0.0827 0.1053,-0.1938c-0.30384,-0.07974 -0.59196,-0.17911 -0.89247,-0.22127c-0.70247,0.35467 -0.70246,0.35463 -1.53551,0.41361c-0.04726,0.05889 -0.05806,0.13493 0.00395,0.24516zM13.91432,197.62373c-0.3196,-0.06011 -0.63755,-0.10143 -0.9555,-0.14275c-0.07119,-0.01547 -0.1424,-0.03088 -0.21031,-0.00875c-0.26674,0.14493 -0.53513,0.27113 -0.74152,0.50751c0.22837,0.21547 0.49415,0.25929 0.74747,0.36035c0.12663,0.05053 0.22934,0.0267 0.34615,-0.03554c0.26511,-0.16373 0.53352,-0.2899 0.8209,-0.39805c0.01741,-0.00084 0.03152,-0.03923 0.06298,-0.0785c-0.02232,-0.05553 -0.04628,-0.12993 -0.07024,-0.20423zM18.33691,197.67505c-0.29957,-0.23094 -0.57029,-0.33114 -0.8426,-0.45012c-0.10762,-0.03258 -0.19292,-0.00959 -0.27821,0.01339c-0.40749,0.13286 -0.81997,0.20929 -1.25635,0.21143c-0.05216,0.00249 -0.10268,0.02379 -0.15485,0.02633c0.00065,0.20757 0.02133,0.24432 0.16045,0.23763c0.45217,-0.02177 0.89511,0.0513 1.31148,0.21998c0.2533,0.10105 0.46036,0.07222 0.67823,-0.03264c0.11519,-0.08104 0.2146,-0.14243 0.38191,-0.22596zM15.40843,195.13612c0.00823,0.09394 0.07944,0.10938 0.149,0.10606c0.4869,-0.02342 0.96954,0.10432 1.45224,0.2321c0.3924,0.09434 0.78582,-0.00009 1.14377,-0.3004c-0.16801,-0.12402 -0.34355,-0.13444 -0.50826,-0.22087c-0.34682,-0.17204 -0.67722,-0.15612 -1.01847,-0.06423c-0.37601,0.09359 -0.75041,0.20595 -1.13626,0.18682c-0.0505,0.02132 -0.0663,0.04094 -0.08202,0.06059zM18.20462,196.36041c-0.21851,-0.10272 -0.36584,-0.19004 -0.51153,-0.25848c-0.23756,-0.12065 -0.44788,-0.12944 -0.68477,-0.04255c-0.32056,0.12866 -0.66508,0.183 -1.0112,0.21854c-0.1201,0.02464 -0.25921,0.03134 -0.38091,0.0372c-0.00919,0.09481 0.04461,0.11107 0.0794,0.1094c0.51253,0.06965 1.02665,0.15819 1.53,0.3227c0.0886,0.01462 0.15979,0.03004 0.24508,0.00707c0.23526,-0.10567 0.47214,-0.19257 0.73395,-0.39388zM14.19161,198.79936c-0.32386,0.09109 -0.64176,0.04976 -0.95809,0.02722c-0.08695,0.00419 -0.16143,-0.04885 -0.24508,-0.00708c-0.13422,0.06309 -0.39274,0.30199 -0.5312,0.51627c0.1854,0.12323 0.39734,0.15073 0.59521,0.21672c0.16145,0.04887 0.29892,0.02336 0.4298,-0.07731c0.23032,-0.16203 0.46394,-0.28654 0.73726,-0.35631c0.01741,-0.00081 0.04888,-0.04011 0.06461,-0.05971c0.01083,-0.07603 0.00428,-0.1512 -0.09255,-0.25976zM12.48259,192.42716c-0.23359,0.12448 -0.53089,0.11991 -0.74219,0.29994c0.02888,0.13071 0.12076,0.18294 0.19687,0.25475c0.15062,0.12487 0.26804,0.27017 0.46755,0.35495c0.30317,-0.1278 0.65425,-0.107 0.97644,-0.21686c0.04394,-0.09648 0.03578,-0.19044 -0.00723,-0.28274c-0.3055,-0.09853 -0.59686,-0.23548 -0.89151,-0.41003zM13.5625,195.39485c-0.17717,-0.02922 -0.35435,-0.05844 -0.48428,-0.14653c-0.31529,-0.21129 -0.60931,-0.17826 -0.8918,-0.01367c-0.09941,0.06138 -0.20376,0.06638 -0.29828,0.18419c0.19032,0.17958 0.3931,0.30195 0.5959,0.42423c0.05546,0.03508 0.12501,0.0317 0.2103,0.00875c0.25431,-0.08774 0.4928,-0.15584 0.74708,-0.24354c0.05217,-0.00247 0.11846,-0.04346 0.12106,-0.21345zM13.45907,194.2108c-0.38915,-0.05675 -0.74677,-0.15281 -1.04635,-0.38372c-0.05707,-0.05386 -0.12501,-0.03171 -0.19457,-0.02836c-0.15487,0.02633 -0.30811,0.07144 -0.45474,0.19174c0.26643,0.25143 0.5247,0.40883 0.80032,0.56541c0.09186,0.05221 0.18047,0.06683 0.28317,0.04299c0.18803,-0.04674 0.37767,-0.07481 0.56567,-0.12161c0.01741,-0.00081 0.04889,-0.04011 0.06464,-0.05972c-0.00491,-0.05638 -0.00985,-0.11278 -0.01807,-0.20669zM17.60952,199.14441c0.1673,-0.08356 0.35208,-0.16791 0.51943,-0.25146c0.01574,-0.01961 0.03151,-0.03927 0.06296,-0.07851c-0.17455,-0.19923 -0.3931,-0.30195 -0.59094,-0.36792c-0.52763,0.15751 -1.0204,0.31333 -1.61167,0.34179c0.30123,0.24974 0.56795,0.10475 0.79895,0.15025c0.28317,0.04299 0.5522,0.12438 0.82126,0.20579zM18.35083,193.63564c0.19226,-0.19798 0.38781,-0.35841 0.48655,-0.62734c-0.12828,-0.06934 -0.22345,-0.15911 -0.33274,-0.21043c-0.10926,-0.05135 -0.22015,-0.12151 -0.3419,-0.11561c-0.15156,0.06393 -0.24444,0.2005 -0.35793,0.30032c-0.11349,0.09984 -0.24772,0.1629 -0.32154,0.31743c0.28974,0.11815 0.5604,0.21838 0.86753,0.33573zM15.09233,191.7165c0.52823,0.05005 0.96793,0.08549 1.40757,0.12097c0.03479,-0.00166 0.08861,0.01464 0.12009,-0.02464c0.17978,-0.14078 0.39766,-0.24561 0.49805,-0.49578c-0.25002,-0.06347 -0.48267,-0.12775 -0.71369,-0.17325c-0.37864,0.26356 -0.80186,0.41604 -1.31209,0.57272zM11.97907,196.66006c0.13649,0.1633 0.31369,0.1925 0.45936,0.26098c0.16473,0.08645 0.3245,0.1165 0.50921,0.03211c0.25263,-0.10652 0.5053,-0.21305 0.78682,-0.18886c0.0233,-0.13325 -0.00065,-0.20757 -0.105,-0.20256c-0.26246,-0.00622 -0.54236,-0.01164 -0.77828,-0.11353c-0.34355,-0.13444 -0.59132,0.02844 -0.87212,0.21184zM12.19917,194.78105c-0.31697,-0.23009 -0.5611,-0.42593 -0.80354,-0.60298c-0.12171,0.00586 -0.18638,0.06557 -0.25262,0.10651c-0.06464,0.05972 -0.16567,0.10232 -0.18898,0.23552c0.15719,0.20007 0.34747,0.3796 0.55351,0.53956c0.22112,-0.06727 0.42327,-0.15248 0.69164,-0.27864zM11.60476,197.77266c0.24606,-0.18167 0.459,-0.34296 0.68933,-0.50497c-0.23758,-0.12067 -0.45775,-0.2422 -0.6779,-0.36371c-0.21458,0.14243 -0.41506,0.24644 -0.55182,0.4795c0.17125,0.1616 0.35502,0.26599 0.54041,0.38917zM18.98612,194.51098c-0.12402,-0.2205 -0.35502,-0.26599 -0.53876,-0.37041c-0.05546,-0.03508 -0.14076,-0.01212 -0.18965,0.02802c-0.16407,0.12114 -0.31237,0.22262 -0.45902,0.34288c-0.01741,0.00084 -0.0141,0.03845 -0.01083,0.07604c0.25495,0.11988 0.52562,0.22 0.78058,0.33986c0.16567,-0.10231 0.29167,-0.25937 0.41766,-0.41643zM18.69814,197.4124c0.1847,-0.08438 0.35206,-0.1679 0.45574,-0.38049c-0.16966,-0.14282 -0.34256,-0.32323 -0.55946,-0.40716c-0.11682,0.06221 -0.2369,0.08689 -0.33465,0.16708c-0.09941,0.06138 -0.2402,0.04928 -0.27757,0.22096c0.2392,0.13947 0.47838,0.27892 0.71598,0.39962zM11.73763,198.29461c-0.14993,0.08271 -0.22211,0.25605 -0.31169,0.43019c0.22178,0.14034 0.39476,0.32069 0.64475,0.38419c0.12601,-0.15706 0.30906,-0.26022 0.43012,-0.47365c-0.25495,-0.11988 -0.50824,-0.22091 -0.7632,-0.34073zM14.57159,199.95117c-0.31466,-0.00372 -0.64016,0.06859 -0.95811,0.02722c-0.26413,-0.02501 -0.39171,0.11324 -0.51116,0.34545c0.20276,0.12233 0.39734,0.15073 0.61094,0.19705c0.25687,-0.25771 0.5791,-0.36761 0.8583,-0.56977zM15.24389,190.65236c0.02395,0.07436 0.07611,0.07181 0.12828,0.06934c0.2277,0.00792 0.47116,-0.00381 0.70053,0.02292c0.33697,0.05925 0.49445,-0.13705 0.66442,-0.3906c-0.12504,-0.03172 -0.21522,-0.06511 -0.30382,-0.07972c-0.2136,-0.04631 -0.40652,-0.05592 -0.58305,0.12242c-0.1135,0.09983 -0.26677,0.14492 -0.40259,0.18925c-0.07119,-0.01547 -0.16143,-0.04885 -0.20375,0.06641zM11.98973,191.58278c0.07774,0.09061 0.15225,0.14366 0.20934,0.19752c0.15551,0.18125 0.31697,0.23011 0.52236,0.18248c0.17059,-0.04592 0.36356,-0.03633 0.53581,-0.06351c0.05217,-0.00248 0.10599,0.01377 0.1119,-0.11864c-0.25166,-0.0823 -0.50664,-0.20209 -0.74747,-0.36036c-0.05546,-0.03508 -0.14237,-0.03088 -0.21194,-0.02756c-0.13581,0.04428 -0.25431,0.08772 -0.41997,0.19007zM11.58927,196.39566c0.16733,-0.08353 0.35367,-0.14912 0.49871,-0.28824c-0.20772,-0.17873 -0.38227,-0.37792 -0.61981,-0.4986c-0.16405,0.12114 -0.33302,0.18587 -0.41933,0.39763c0.16965,0.14281 0.32353,0.3053 0.54043,0.38919zM17.94342,195.76898c0.20771,0.1787 0.42624,0.28143 0.64147,0.34654c0.16405,-0.12112 0.31233,-0.22263 0.4541,-0.39932c-0.11747,-0.14534 -0.26483,-0.2326 -0.42789,-0.30023c-0.21621,0.12364 -0.43407,0.22851 -0.6677,0.35297zM10.64328,194.76153c-0.1119,0.11864 -0.19391,0.17917 -0.25523,0.27651c-0.04724,0.05891 -0.07712,0.11694 -0.10695,0.17502c0.10336,0.18376 0.23985,0.34705 0.42361,0.45143c0.16567,-0.10231 0.33136,-0.20468 0.43668,-0.3985c-0.17125,-0.1616 -0.30779,-0.32489 -0.49807,-0.50446zM13.43438,190.92818c-0.22675,-0.19667 -0.37896,-0.34032 -0.56763,-0.50112c-0.07119,-0.01547 -0.19127,0.00918 -0.2907,0.07061c-0.10103,0.04262 -0.22607,0.01089 -0.30317,0.12782c0.06695,0.16664 0.16374,0.2752 0.29368,0.36333c0.2766,-0.03219 0.53746,-0.04471 0.86784,-0.06062zM19.17182,193.23759c-0.07876,0.0982 -0.1575,0.19635 -0.23626,0.29445c-0.07875,0.09821 -0.14007,0.19549 -0.21883,0.29363c0.20275,0.12234 0.35339,0.24723 0.54795,0.27563c0.09942,-0.0614 0.12435,-0.17584 0.16833,-0.2723c0.04394,-0.09648 0.14007,-0.19549 0.11121,-0.32617c-0.1316,-0.10693 -0.22837,-0.21547 -0.37242,-0.26516zM10.74082,197.07821c0.16074,-0.15872 0.36127,-0.26274 0.48065,-0.49499c-0.15063,-0.12483 -0.29959,-0.23093 -0.45019,-0.35579c-0.16075,0.15871 -0.30744,0.27903 -0.37468,0.50872c0.09844,0.12737 0.16208,0.25643 0.3442,0.34204zM17.17054,191.91844c0.32286,0.09772 0.6093,0.17829 0.8957,0.25885c0.0978,-0.08019 0.19723,-0.14157 0.22048,-0.27481c-0.20936,-0.19752 -0.46099,-0.2798 -0.7143,-0.38082c-0.0978,0.08021 -0.19557,0.16038 -0.2743,0.25851c-0.06794,0.02213 -0.08201,0.06057 -0.12762,0.13823zM11.35295,193.68946c0.18144,-0.12199 0.39014,-0.13203 0.51613,-0.28908c-0.19194,-0.19836 -0.36489,-0.37876 -0.58672,-0.51909c-0.11024,0.13745 -0.28414,0.14576 -0.37206,0.33874c0.10336,0.18373 0.26975,0.289 0.44265,0.46941zM19.10241,198.24212c-0.11582,-0.12654 -0.2474,-0.23342 -0.3931,-0.30192c-0.19883,0.12283 -0.39931,0.22681 -0.63289,0.35131c0.20111,0.10354 0.35011,0.20961 0.53711,0.35163c0.19884,-0.12283 0.38193,-0.22599 0.48889,-0.40102zM11.61536,191.69517c-0.21951,0.08605 -0.40588,0.15166 -0.52858,0.34627c0.10009,0.14616 0.18109,0.27438 0.32681,0.34287c0.2021,-0.0852 0.40584,-0.15164 0.6411,-0.25732c-0.13649,-0.1633 -0.27137,-0.30777 -0.43935,-0.4318zM18.94154,196.40038c0.22015,0.12151 0.34259,0.32323 0.53717,0.35162c0.16405,-0.12112 0.25525,-0.2765 0.32745,-0.44985c-0.13487,-0.14447 -0.25232,-0.28982 -0.44852,-0.33702c-0.12762,0.13824 -0.25688,0.25773 -0.41602,0.43522zM11.08833,198.45802c0.11024,-0.13744 0.22374,-0.23724 0.27854,-0.40974c-0.20276,-0.12233 -0.34254,-0.32324 -0.5752,-0.38754c-0.11191,0.11863 -0.17161,0.23475 -0.17423,0.40473c0.15225,0.14365 0.32022,0.26768 0.47085,0.39252zM17.4081,191.03889c0.12929,-0.11947 0.19058,-0.21676 0.23133,-0.35084c-0.15062,-0.12487 -0.33436,-0.22928 -0.54302,-0.21919c-0.09448,0.1178 -0.18897,0.23554 -0.30087,0.35419c0.20441,0.14116 0.41473,0.14989 0.61259,0.21585zM13.29961,201.18261c0.07709,-0.11691 0.13846,-0.21428 0.14599,-0.32785c-0.1837,-0.10438 -0.36422,-0.17116 -0.55879,-0.19956c-0.09613,0.09895 -0.15749,0.19629 -0.18078,0.32951c0.1854,0.12323 0.39571,0.13192 0.59355,0.19788zM10.08621,195.58104c-0.19881,0.12279 -0.20309,0.27398 -0.17094,0.44231c0.01145,0.13155 0.05775,0.26145 0.20181,0.31112c0.12929,-0.11947 0.24116,-0.23806 0.31334,-0.4114c-0.11582,-0.12654 -0.23001,-0.23427 -0.34419,-0.34202zM17.6693,200.02853c0.15157,-0.06391 0.29066,-0.07061 0.36614,-0.20634c-0.32846,-0.36164 -0.65066,-0.25182 -0.99941,-0.04627c0.21686,0.08394 0.41641,0.16871 0.63327,0.25263zM10.33349,193.81397c0.08431,0.16581 0.18111,0.27437 0.34748,0.3796c0.07543,-0.13575 0.24772,-0.16293 0.30413,-0.31661c-0.02724,-0.11196 -0.10007,-0.14616 -0.15879,-0.21884c-0.07611,-0.07179 -0.11911,-0.16411 -0.24083,-0.15828c-0.0978,0.08021 -0.19557,0.16042 -0.25198,0.31412zM15.51572,195.565c-0.08628,0.21174 -0.04168,0.32284 0.11647,0.33408c0.2277,0.00792 0.45214,-0.02174 0.65917,-0.05061c0.06954,-0.00331 0.15487,-0.02637 0.1798,-0.14076c-0.32123,-0.07889 -0.63915,-0.1202 -0.95544,-0.14274zM11.14711,199.53093c-0.10106,0.04259 -0.14667,0.12031 -0.15423,0.23392c0.17292,0.18042 0.33174,0.39927 0.58506,0.50032c0.08464,-0.23056 0.03511,-0.39806 -0.15028,-0.52121c-0.07612,-0.07182 -0.13817,-0.18211 -0.28055,-0.213zM15.90958,198.07501c0.02298,0.26308 0.06273,0.31782 0.21918,0.31029c0.24183,-0.03051 0.50103,-0.06184 0.73626,-0.16755c-0.32616,-0.13529 -0.63327,-0.25263 -0.95547,-0.14274zM14.39777,200.95986c-0.14073,-0.01211 -0.26251,-0.0062 -0.38585,-0.01917c-0.24509,-0.00712 -0.2451,-0.00706 -0.30253,0.33541c0.12504,0.03172 0.26908,0.08142 0.34025,0.09684c0.12602,-0.15704 0.23786,-0.27568 0.3481,-0.41308zM20.20672,195.49029c-0.09678,-0.1086 -0.14637,-0.27606 -0.33766,-0.26685c-0.07712,0.11694 -0.13517,0.25186 -0.22802,0.38844c0.11584,0.12655 0.21586,0.27272 0.35993,0.32239c0.07543,-0.13578 0.16996,-0.25353 0.20573,-0.44399zM12.92382,199.87949c-0.23427,-0.08305 -0.47019,-0.18499 -0.70446,-0.26804c-0.08363,0.04179 -0.14829,0.10147 -0.10368,0.21256c0.17125,0.1616 0.37407,0.28399 0.60506,0.32948c0.0978,-0.08019 0.16075,-0.15871 0.20308,-0.27402zM18.92883,198.85446c0.02888,0.13071 0.10662,0.22136 0.21755,0.2915c0.0663,-0.04092 0.13255,-0.08187 0.19882,-0.12282c0.08204,-0.06053 0.16568,-0.10236 0.19059,-0.21678c-0.00983,-0.11277 -0.0528,-0.20504 -0.14635,-0.27604c-0.14831,0.10152 -0.31234,0.22265 -0.46066,0.3241zM18.95332,195.13539c0.11584,0.12655 0.24414,0.19586 0.38816,0.24555c0.09123,-0.15534 0.18405,-0.29196 0.2595,-0.42767c-0.06534,-0.14784 -0.17621,-0.218 -0.28221,-0.23177c-0.12764,0.13823 -0.25525,0.27651 -0.36554,0.41391zM18.45541,199.63208c0.09942,-0.0614 0.19881,-0.12279 0.29662,-0.20298c0.01572,-0.01961 0.01247,-0.05724 0.02657,-0.09569c-0.05872,-0.07267 -0.10333,-0.18374 -0.24741,-0.23343c-0.13421,0.06312 -0.30479,0.10908 -0.43242,0.24731c0.1001,0.14614 0.21098,0.21627 0.35668,0.28477zM17.0469,200.70026c0.19294,0.00958 0.24579,0.21465 0.41966,0.20627c0.1325,-0.08186 0.28741,-0.10815 0.4134,-0.26523c-0.09844,-0.12737 -0.19527,-0.23596 -0.34681,-0.17202c-0.15158,0.06391 -0.30971,0.05264 -0.48625,0.23099zM11.97267,200.58585c0.12828,0.06931 0.25824,0.15741 0.36911,0.22758c0.01902,0.01796 0.05219,-0.00251 0.08695,-0.0042c0.02656,-0.09565 0.10533,-0.19378 0.03836,-0.36042c-0.14731,-0.08723 -0.31204,-0.17372 -0.47842,-0.27894c-0.05808,0.13489 -0.0656,0.24851 -0.01607,0.41601zM19.80834,194.52806c0.0945,-0.11778 0.20638,-0.2364 0.28509,-0.33455c-0.06694,-0.16664 -0.16374,-0.27525 -0.2589,-0.365c-0.12012,0.02467 -0.12595,0.15702 -0.1716,0.23476c-0.0456,0.07771 -0.10861,0.15622 -0.07971,0.28694c0.04135,0.0735 0.1001,0.14616 0.22512,0.17791zM10.77117,192.22645c-0.11349,0.09984 -0.19393,0.1792 -0.27428,0.25854c-0.03316,0.02047 -0.04562,0.07769 -0.06138,0.09733c0.01145,0.13155 0.08925,0.22221 0.20016,0.29232c0.1309,-0.10066 0.26347,-0.18256 0.37373,-0.31989c-0.06202,-0.11024 -0.13979,-0.20087 -0.23823,-0.32824zM14.45947,201.46641c0.23265,0.06434 0.46525,0.12858 0.7038,0.06052c-0.06695,-0.16661 -0.09747,-0.31618 -0.24477,-0.40343c-0.28741,0.10815 -0.28742,0.10818 -0.459,0.34292zM10.11792,194.1451c-0.30253,0.33542 -0.30086,0.35417 -0.09736,0.68412c0.1119,-0.11864 0.20471,-0.25519 0.31664,-0.37381c-0.02888,-0.13071 -0.10664,-0.22131 -0.21917,-0.3103zM19.42722,197.96235c0.13091,-0.10066 0.22703,-0.19967 0.28349,-0.35338c-0.02068,-0.03675 -0.06036,-0.09148 -0.10008,-0.14618c-0.03808,-0.03591 -0.09354,-0.07103 -0.13156,-0.10687c-0.13091,0.10069 -0.28086,0.18341 -0.35469,0.33794c0.06201,0.11023 0.17455,0.19923 0.30286,0.26851zM11.48997,191.0595c0.0397,0.05469 0.09846,0.12735 0.15227,0.14366c0.19623,0.0472 0.36677,0.00121 0.54661,-0.13957c-0.07938,-0.10943 -0.12731,-0.25808 -0.23661,-0.30945c-0.16733,0.08353 -0.35697,0.11155 -0.46228,0.30534zM18.50235,191.57124c0.01574,-0.01961 0.0315,-0.03925 0.06296,-0.07851c-0.16048,-0.23763 -0.36815,-0.41637 -0.57586,-0.59507c-0.11679,0.06223 -0.16239,0.13993 -0.16667,0.29111c0.22015,0.12151 0.44195,0.26179 0.67954,0.38249zM16.5116,196.97024c-0.2707,-0.10021 -0.52564,-0.22002 -0.81961,-0.187c-0.01741,0.00081 -0.04557,0.07768 -0.04231,0.11525c0.00823,0.09396 0.08434,0.16579 0.17128,0.16154c0.231,0.04551 0.45379,-0.00298 0.69065,-0.08984zM19.9817,197.31282c0.09615,-0.09897 0.19229,-0.19797 0.25035,-0.33288c-0.01148,-0.13155 -0.05447,-0.22385 -0.18438,-0.31197c-0.09284,0.13659 -0.20312,0.27399 -0.27854,0.40971c0.0446,0.11105 0.10336,0.18373 0.21263,0.23508zM10.08919,197.0152c0.00559,0.26395 0.00786,0.49031 0.14929,0.70997c0.15157,-0.06391 0.20966,-0.1988 0.2487,-0.35167c-0.11748,-0.14532 -0.2159,-0.27271 -0.39803,-0.35829zM12.96316,189.93174c0.11912,0.16414 0.1381,0.18209 0.1903,0.17958c0.17552,0.01045 0.32384,-0.09108 0.45474,-0.19174c0.04888,-0.04008 0.05804,-0.13492 -0.05121,-0.18628c-0.14666,0.12028 -0.37932,0.05599 -0.59386,0.19845zM18.44626,192.32883c0.22178,0.14034 0.42789,0.30026 0.72515,0.30479c-0.1447,-0.25723 -0.36489,-0.37878 -0.55027,-0.50193c-0.0853,0.02295 -0.11514,0.08102 -0.17484,0.19714zM10.35972,193.11442c-0.06039,-0.09146 -0.10337,-0.18373 -0.16374,-0.2752c-0.14833,0.10151 -0.2602,0.22013 -0.18997,0.42435c0.02229,0.05555 0.04462,0.11106 0.11582,0.12654c0.10104,-0.04259 0.16242,-0.13993 0.23786,-0.27568zM16.19341,199.32585c0.01479,0.16915 0.05609,0.24264 0.19355,0.21715c0.1201,-0.02464 0.2402,-0.04931 0.35865,-0.09278c0.0505,-0.02132 0.09945,-0.06141 0.07548,-0.13575c-0.21359,-0.04634 -0.40489,-0.03712 -0.62767,0.01136zM15.91753,192.16745c-0.23265,-0.06432 -0.462,-0.09099 -0.68314,-0.02373c-0.01741,0.00084 -0.04557,0.07771 -0.04394,0.09648c0.00327,0.03756 0.05872,0.07267 0.09352,0.07099c0.22441,-0.02967 0.43642,-0.00213 0.63361,-0.14373zM15.24749,191.29386c0.16897,-0.06474 0.3603,-0.07397 0.54173,-0.19591c-0.23427,-0.08306 -0.42886,-0.11145 -0.52824,-0.05004c-0.10104,0.04259 -0.09451,0.11778 -0.01345,0.24597zM10.4571,198.82815c0.07188,0.22301 0.09487,0.48617 0.31503,0.60765c0.10956,-0.34496 -0.1106,-0.46646 -0.31503,-0.60765zM13.599,198.41265c0.00328,0.03756 0.02231,0.0556 0.0256,0.09317c0.17223,-0.02718 0.33532,0.04046 0.48362,-0.06105c0.00756,-0.1136 -0.01479,-0.16915 -0.10666,-0.22133c-0.11679,0.06223 -0.25099,0.12531 -0.4026,0.18926zM16.05645,194.55763c-0.24838,-0.04465 -0.44295,-0.07303 -0.64999,-0.04421c-0.03479,0.00166 -0.06627,0.04092 -0.06135,0.09731c0.00164,0.01882 0.02231,0.05554 0.04135,0.07351c0.23265,0.06434 0.44131,0.05426 0.66998,-0.12662zM11.3092,191.38901c-0.04463,-0.11107 -0.08431,-0.16578 -0.13323,-0.12569c-0.11679,0.06223 -0.23196,0.14329 -0.34714,0.22432c-0.06464,0.05972 -0.05973,0.11608 0.01479,0.16912c0.18638,-0.06555 0.33797,-0.1295 0.46558,-0.26774zM20.25991,196.29922c0.05872,0.07267 0.1001,0.14616 0.15881,0.21885c0.019,0.01797 0.05382,0.01627 0.10762,0.03258c-0.01967,-0.22551 0.01441,-0.43473 -0.07646,-0.67574c-0.09284,0.13659 -0.15421,0.23391 -0.18996,0.42435zM13.4,193.53422c-0.17224,0.02716 -0.32715,0.0535 -0.53418,0.08233c0.19033,0.17957 0.35174,0.22842 0.52399,0.20124c0.04396,-0.09649 0.05642,-0.15369 0.01018,-0.28359zM14.3501,199.41449c-0.11519,0.08104 -0.3097,0.05264 -0.396,0.2644c0.42227,0.03627 0.5092,0.0321 0.53581,-0.06356c-0.00823,-0.09396 -0.04791,-0.14869 -0.13979,-0.20087zM15.92315,193.43166c-0.28053,-0.21299 -0.48921,-0.2029 -0.74349,-0.1152c0.23166,0.25306 0.46197,0.09098 0.74349,0.1152zM17.13091,200.26212c-0.2615,-0.19502 -0.45283,-0.18584 -0.6582,-0.13817c-0.01741,0.00084 -0.03149,0.03926 -0.02821,0.07684c0.00491,0.05639 0.04299,0.09229 0.07775,0.0906c0.17552,0.01045 0.34776,-0.01671 0.60862,-0.02931zM14.68974,200.30413c-0.15157,0.06391 -0.32386,0.09109 -0.42912,0.28484c0.17884,0.04801 0.33369,0.02168 0.47115,-0.00379c0.04232,-0.11526 0.01837,-0.18958 -0.04202,-0.28106zM18.14509,200.47751c0.14505,-0.13911 0.33632,-0.1483 0.38948,-0.3396c-0.24838,-0.04465 -0.24837,-0.04465 -0.47378,0.17378c0.02068,0.03675 0.04135,0.0735 0.08432,0.1658zM11.31317,199.03234c0.07515,0.2606 0.24315,0.38464 0.4269,0.48902c0.09942,-0.0614 0.09284,-0.13659 0.03578,-0.19044c-0.14733,-0.08723 -0.29632,-0.19333 -0.46266,-0.29855zM19.67794,198.23337c0.02724,0.11196 0.05281,0.20505 0.16209,0.25641c0.08037,-0.07935 0.1608,-0.15872 0.16833,-0.27227c-0.02558,-0.09312 -0.06532,-0.14783 -0.13817,-0.18211c-0.08365,0.0418 -0.1309,0.10066 -0.19226,0.19798zM13.26131,196.1454c0.14403,0.04969 0.25169,0.08227 0.35274,0.03965c0.03316,-0.02047 0.04726,-0.05889 0.06136,-0.09733c-0.00491,-0.05639 -0.04625,-0.1299 -0.09677,-0.10859c-0.10436,0.00502 -0.22607,0.01088 -0.31729,0.16627zM20.357,195.01121c0.03739,-0.17167 -0.06269,-0.31784 -0.1106,-0.4665c-0.20639,0.23641 -0.20306,0.274 0.1106,0.4665zM15.17302,190.24057c0.26742,0.06261 0.2674,0.06262 0.35699,-0.11156c-0.10762,-0.03258 -0.23267,-0.06428 -0.35699,0.11156zM13.83098,197.26914c0.0456,-0.07771 0.04068,-0.13408 0.00427,-0.15117c-0.14733,-0.08723 -0.19785,-0.06597 -0.33958,0.11074c0.12663,0.05053 0.23102,0.04552 0.33536,0.04049zM17.06069,201.05811c-0.09517,-0.08976 -0.1887,-0.16076 -0.30711,-0.11735c0.07844,0.29818 0.11481,0.31529 0.30711,0.11735zM15.74715,189.81666c-0.1316,-0.10693 -0.27232,-0.11902 -0.39568,-0.13194c-0.06955,0.00333 -0.11682,0.06224 -0.03739,0.17167c0.12335,0.01292 0.26416,0.02506 0.43309,-0.0397zM19.04245,199.75491c-0.17717,-0.02922 -0.25921,0.03132 -0.28087,0.18337c0,0 0.02068,0.03675 0.03808,0.03591c0.10599,0.01376 0.16568,-0.10231 0.24284,-0.21926zM13.29046,194.87947c0.04463,0.11107 0.11747,0.14534 0.18536,0.12319c0.03479,-0.00166 0.06629,-0.04095 0.08039,-0.07935c0.0141,-0.03844 -0.02559,-0.09311 -0.06037,-0.09143c-0.05382,-0.01629 -0.12336,-0.01295 -0.2054,0.0476zM20.24484,197.52671c-0.11519,0.08104 -0.1608,0.15872 -0.07806,0.30573c0.13091,-0.10069 0.15913,-0.17752 0.07806,-0.30573z" fill="#000000"/><path d="M7.14963,194.94858c0.03511,0.60223 0.07023,1.2045 0.12277,1.80591c0.05908,0.6766 0.18773,1.34981 0.40169,2.00006c0.07024,0.20421 0.17191,0.36916 0.26115,0.59134c-0.27827,0.01341 -0.52003,0.04393 -0.76512,0.03683c-1.46732,-0.00487 -2.94379,0.08504 -4.42521,0.1186c-1.32491,0.02599 -2.63078,0.07 -3.95404,0.11482c-0.90589,0.02474 -1.79446,0.04861 -2.70034,0.07332c-0.85377,0.02222 -1.68681,0.08119 -2.54053,0.10343c-0.06957,0.00333 -0.13913,0.00668 -0.21031,-0.00875c-0.21427,-0.25389 -0.32579,-0.53165 -0.4233,-0.84775c-0.14864,-0.50243 -0.26416,-1.02528 -0.29272,-1.55235c-0.01479,-0.16915 -0.04695,-0.33745 0.0269,-0.49197c0.04957,0.16748 0.01381,0.3579 0.11879,0.56045c0.26673,-0.14492 0.56728,-0.1028 0.8439,-0.13498c0.01741,-0.00084 0.03477,-0.00166 0.03316,-0.02046c0.45638,-0.17291 0.9607,-0.19719 1.43944,-0.31461c0.17061,-0.04594 0.33631,-0.14831 0.51347,-0.1191c0.35108,0.02087 0.66671,-0.1642 1.01783,-0.14336c0.01741,-0.00084 0.05053,-0.0213 0.08533,-0.02297c0.32543,-0.0723 0.63193,-0.16249 0.96068,-0.19721c0.38257,-0.01842 0.71728,-0.1855 1.1031,-0.16634c0.21621,-0.12364 0.44556,-0.09691 0.68738,-0.12741c0.03479,-0.00166 0.05219,-0.00251 0.08694,-0.00418c0.33469,-0.1671 0.70643,-0.10951 1.04768,-0.20142c0.34122,-0.09191 0.7097,-0.07191 1.05256,-0.14504c0.39506,-0.07562 0.76774,-0.20683 1.19005,-0.17049c0.03479,-0.00166 0.08697,-0.00417 0.1201,-0.02464c0.18144,-0.12199 0.39504,-0.07562 0.6021,-0.10444c0.10436,-0.00502 0.22768,0.00792 0.32877,-0.03471c0.14994,-0.08267 0.2907,-0.07061 0.44722,-0.07812c0.08695,-0.00418 0.17556,0.01045 0.24181,-0.03052c0.21621,-0.12364 0.46295,-0.09777 0.68901,-0.10866c0.08695,-0.00418 0.17553,0.0104 0.24181,-0.0305c0.18307,-0.10313 0.37601,-0.09359 0.56732,-0.10277c0.31305,-0.01509 0.61454,-0.16168 0.92918,-0.15796c0.05382,0.01627 0.10106,-0.04258 0.15156,-0.06392z" fill="#87d7dc"/><path d="M7.14959,194.94858c-0.05052,0.0213 -0.09778,0.0802 -0.14996,0.08273c-0.31465,-0.00371 -0.61781,0.12409 -0.9292,0.15796c-0.19127,0.00921 -0.38424,-0.00038 -0.5673,0.10278c-0.0663,0.04092 -0.15489,0.02633 -0.24178,0.03054c-0.22606,0.0109 -0.47116,0.00378 -0.68905,0.10862c-0.06629,0.04095 -0.15653,0.00755 -0.24181,0.03053c-0.15649,0.00754 -0.29565,0.01423 -0.44722,0.07812c-0.10104,0.04259 -0.22448,0.02967 -0.32879,0.0347c-0.20702,0.02884 -0.42065,-0.01748 -0.60208,0.10448c-0.03316,0.02047 -0.08531,0.02297 -0.12009,0.02466c-0.40489,-0.03712 -0.79504,0.09488 -1.19007,0.17052c-0.3603,0.07397 -0.72871,0.05394 -1.05258,0.145c-0.3412,0.09192 -0.71298,0.03434 -1.04764,0.2014c-0.01577,0.0196 -0.05219,0.00251 -0.08697,0.00418c-0.22606,0.0109 -0.47114,0.00382 -0.68741,0.12745c-0.38751,-0.03799 -0.72216,0.12914 -1.1031,0.16631c-0.33041,0.0159 -0.6352,0.12495 -0.96068,0.19719c-0.03479,0.00166 -0.05054,0.02135 -0.08532,0.02299c-0.35108,-0.02087 -0.66669,0.16421 -1.01781,0.14336c-0.19292,-0.00959 -0.34125,0.0919 -0.51347,0.1191c-0.48034,0.09861 -0.98303,0.14167 -1.43941,0.3146c-0.01741,0.00084 -0.03314,0.02049 -0.03314,0.02049c-0.27662,0.0322 -0.57716,-0.00998 -0.84391,0.13499c-0.10335,-0.18373 -0.05019,-0.37505 -0.11879,-0.56047c-0.01315,-0.15034 -0.02623,-0.30068 0.06664,-0.43729c0.10436,-0.00502 0.22768,0.00792 0.32874,-0.03471c0.35367,-0.14914 0.72055,-0.14788 1.08246,-0.20306c0.36187,-0.05515 0.71558,-0.20431 1.10308,-0.16633c0.21621,-0.12364 0.44558,-0.09694 0.68738,-0.12745c0.03479,-0.00166 0.08695,-0.00419 0.12009,-0.02466c0.14833,-0.10151 0.32547,-0.07228 0.48037,-0.09861c0.08695,-0.00418 0.17389,-0.0084 0.2418,-0.03051c0.37439,-0.1124 0.76774,-0.20684 1.16774,-0.22606c0.05217,-0.00248 0.1234,0.01295 0.15486,-0.02632c0.16565,-0.10232 0.3412,-0.09192 0.51512,-0.1003c0.19292,0.00959 0.35534,-0.13037 0.56565,-0.12157c0.27988,0.00541 0.53251,-0.10114 0.80747,-0.1521c0.37931,-0.05601 0.73463,-0.18633 1.13459,-0.20555c0.06957,-0.00333 0.15816,0.01126 0.20704,-0.02886c0.13257,-0.08185 0.29068,-0.07063 0.44555,-0.09691c0.13911,-0.00669 0.27659,-0.03218 0.39505,-0.07561c0.21951,-0.08605 0.44229,-0.13453 0.68575,-0.14628c0.36354,-0.03637 0.71723,-0.18552 1.10472,-0.14756c0.03479,-0.00166 0.08531,-0.02293 0.1201,-0.02464c0.3603,-0.07397 0.71887,-0.16674 1.08242,-0.20306c0.38257,-0.01842 0.75204,-0.18719 1.13788,-0.16799c0.05217,-0.00248 0.10103,-0.04262 0.15156,-0.06392c0.22279,-0.04847 0.4646,-0.07898 0.69559,-0.03348c0.0256,0.09313 0.03217,0.16829 0.05611,0.24264c-0.02919,0.26563 -0.04427,0.49283 -0.04033,0.73799z" fill="#b0eef2"/><path d="M16.55016,201.61116c-0.32544,0.07228 -0.5847,0.10361 -0.85211,0.04099c-0.15225,-0.14367 -0.2225,-0.34786 -0.31008,-0.55122c-0.3859,-1.01944 -0.7544,-2.03969 -0.98711,-3.10425c-0.17491,-0.80313 -0.35149,-1.62504 -0.4411,-2.45112c-0.01967,-0.2255 -0.02365,-0.47069 -0.0955,-0.69371c-0.0256,-0.09313 -0.03542,-0.20591 -0.04528,-0.31863c0.03017,-0.4544 -0.04399,-0.90379 -0.066,-1.35569c-0.03844,-0.63984 -0.00728,-1.28303 0.05865,-1.92785c0.04165,-0.32283 0.06592,-0.64488 0.08853,-0.98565c0.01182,-0.26476 0.09644,-0.49532 0.1637,-0.72505c0.30156,-0.1466 0.42161,-0.17126 0.84226,-0.15375c0.01873,0.41428 -0.05113,0.81398 -0.06722,1.22995c-0.01771,0.39719 -0.03376,0.81313 -0.03409,1.20949c0.00131,0.41511 0.02168,0.84825 0.04039,1.26252c-0.00033,0.39632 0.1054,0.80645 0.05288,1.20536c0.12306,0.4093 0.10697,0.82525 0.16049,1.23789c0.05185,0.39383 0.12274,0.80561 0.192,1.19865c0.07089,0.4118 0.15918,0.82271 0.24906,1.25252c0.08665,0.39218 0.15751,0.80394 0.26156,1.1953c0.10567,0.41011 0.24447,0.79976 0.36753,1.20906c0.12471,0.42808 0.22873,0.8194 0.42134,1.22535z" fill="#d1eaeb"/><path d="M7.17414,194.23022c-0.02395,-0.07434 -0.03053,-0.14953 -0.05613,-0.24262c-0.23102,-0.04549 -0.45704,-0.03461 -0.69559,0.03348c-0.05053,0.02128 -0.09942,0.0614 -0.15157,0.06391c-0.38583,-0.01919 -0.75698,0.13081 -1.13789,0.16799c-0.3652,0.01759 -0.72216,0.12911 -1.08244,0.20302c-0.03479,0.00166 -0.08533,0.02297 -0.12009,0.02466c-0.3875,-0.03799 -0.72216,0.1291 -1.10474,0.14751c-0.22606,0.0109 -0.46623,0.06021 -0.68575,0.14628c-0.13579,0.04425 -0.2733,0.06977 -0.39503,0.07563c-0.15649,0.00754 -0.29724,-0.00456 -0.44556,0.09695c-0.04887,0.04006 -0.13749,0.02547 -0.20704,0.02881c-0.38257,0.01842 -0.75527,0.14963 -1.13458,0.20559c-0.27496,0.05096 -0.52758,0.15752 -0.80749,0.1521c-0.19292,-0.00959 -0.35533,0.13033 -0.56565,0.12157c-0.17553,-0.01043 -0.36845,-0.02001 -0.51514,0.10027c-0.05053,0.02128 -0.10267,0.02381 -0.15484,0.02636c-0.39996,0.01925 -0.77596,0.11279 -1.16773,0.22607c-0.0853,0.02295 -0.17389,0.00839 -0.24178,0.03049c-0.15649,0.00754 -0.33205,-0.00285 -0.48033,0.09862c-0.03316,0.02047 -0.08529,0.02297 -0.12009,0.02462c-0.22606,0.0109 -0.47116,0.00381 -0.68741,0.12744c-0.38751,-0.03797 -0.7412,0.11117 -1.10308,0.16633c-0.36187,0.05515 -0.74609,0.05477 -1.08241,0.20306c-0.10106,0.04259 -0.22443,0.02964 -0.32877,0.03471c-0.03216,-0.16831 0.06231,-0.28608 0.06819,-0.41849c0.72213,-0.12912 1.40792,-0.27535 2.0953,-0.4028c0.75532,-0.14957 1.49485,-0.27956 2.25179,-0.41037c0.7048,-0.12828 1.40793,-0.27537 2.11104,-0.42245c0.87539,-0.17423 1.73173,-0.36644 2.58976,-0.53985c0.65261,-0.12577 1.30523,-0.25152 1.95618,-0.3961c1.01285,-0.19975 2.04972,-0.32514 3.05927,-0.56247c0.13746,-0.02548 0.27165,-0.08858 0.43308,-0.03972c0.01479,0.16915 -0.02263,0.34079 -0.04262,0.51164c-0.02656,0.09564 0.02299,0.2631 -0.05083,0.41768z" fill="#87d7dc"/><path d="M-7.75143,197.28886c0.06926,0.393 0.06732,0.77056 0.15397,1.16269c0.10894,0.44772 0.23531,0.89458 0.46595,1.33642c-1.00862,0.04855 -1.99983,0.09626 -2.97365,0.14314c-0.20935,-0.19751 -0.30022,-0.4385 -0.40689,-0.65984c-0.19426,-0.42473 -0.26678,-0.85531 -0.34095,-1.3047c-0.00164,-0.01882 0.01247,-0.05721 0.02819,-0.07686c0.11911,0.16412 0.2533,0.10103 0.38913,0.05674c0.33961,-0.11071 0.6808,-0.20264 1.03024,-0.20057c0.06957,-0.00333 0.13913,-0.0067 0.20702,-0.02884c0.32057,-0.12868 0.66998,-0.12662 0.9955,-0.19892c0.18803,-0.04674 0.32378,-0.09111 0.45145,-0.22934z" fill="#61afb4"/><path d="M9.46234,193.83699c-0.04689,0.6628 0.02793,1.31972 0.03324,1.98002c0.00885,0.30152 0.06993,0.60058 0.13097,0.89962c0.08401,0.56216 0.1001,1.1464 0.25372,1.70521c0.05446,0.22387 0.10894,0.44772 0.17915,0.65194c0.04627,0.12988 0.07517,0.26057 0.08665,0.39218c-0.0505,0.02132 -0.08367,0.04176 -0.11847,0.04342c-0.13909,0.00667 -0.27822,0.01341 -0.41733,0.02012c-0.06039,-0.09146 -0.10171,-0.16497 -0.14469,-0.25725c-0.26776,-0.66651 -0.53717,-1.35186 -0.60119,-2.08486c-0.0732,-0.63819 -0.14804,-1.29505 -0.15168,-1.93661c-0.00955,-0.50914 -0.03647,-1.01738 0.09475,-1.51439c0.04301,0.09227 0.00067,0.20757 0.11157,0.27769c0.19456,0.02838 0.42557,0.0739 0.54333,-0.17714z" fill="#61aeb3"/><path d="M8.33665,194.34411c0.06269,0.31783 -0.01542,0.62353 -0.0049,0.94387c0.04173,0.67744 0.08338,1.35485 0.17726,2.02975c0.08237,0.54333 0.23271,1.06457 0.41611,1.56529c0.04627,0.12988 0.09253,0.25973 0.13882,0.38963c-0.24346,0.01173 -0.45215,0.02182 -0.67822,0.03266c-0.22837,-0.21547 -0.33992,-0.49322 -0.41838,-0.7914c-0.10077,-0.35373 -0.20311,-0.72624 -0.25334,-1.1013c-0.14338,-0.84238 -0.18084,-1.671 -0.23733,-2.51756c-0.01312,-0.15034 -0.02627,-0.30073 0.04919,-0.43646c0.08695,-0.00418 0.17554,0.01038 0.24181,-0.03052c0.16734,-0.08354 0.37767,-0.07481 0.56891,-0.08402z" fill="#61aeb3"/><path d="M-7.75143,197.28884c-0.1119,0.11864 -0.24606,0.18167 -0.41833,0.20885c-0.32546,0.07227 -0.67494,0.07021 -0.99545,0.19891c-0.06794,0.02214 -0.1375,0.0255 -0.20706,0.02884c-0.36521,0.01759 -0.68901,0.10866 -1.03023,0.20058c-0.11847,0.04342 -0.27002,0.10737 -0.38915,-0.05675c-0.042,-0.28108 -0.0302,-0.54584 0.0354,-0.79436c0.23855,-0.06812 0.47544,-0.15498 0.72218,-0.12914c0.03479,-0.00166 0.08531,-0.02297 0.12009,-0.02466c0.34284,-0.07314 0.70313,-0.14709 1.04766,-0.20141c0.15486,-0.02632 0.29399,-0.03299 0.44722,-0.07812c0.18637,-0.06556 0.39341,-0.09444 0.59289,-0.00965c0.02558,0.09312 0.03214,0.16829 0.05609,0.24264c0.01145,0.13155 0.00724,0.28276 0.01872,0.41428z" fill="#87d7dc"/><path d="M17.95645,193.91886c-0.22377,0.23728 -0.49374,0.34462 -0.76547,0.43317c-0.06792,0.02214 -0.17227,0.02716 -0.24346,0.01173c-0.51743,-0.12607 -1.02832,-0.17701 -1.53752,-0.2091c-0.01741,0.00084 -0.0538,-0.01627 -0.07286,-0.03423c-0.05872,-0.07267 -0.06699,-0.16665 -0.023,-0.2631c0.03479,-0.00166 0.06793,-0.02216 0.1027,-0.02384c0.41896,-0.00126 0.83307,-0.05894 1.22156,-0.20976c0.20376,-0.06641 0.39508,-0.07564 0.61194,0.00829c0.2359,0.10189 0.46689,0.14738 0.70612,0.28685z" fill="#cce5e6"/><path d="M15.23216,192.91764c-0.06202,-0.11024 -0.05119,-0.18626 -0.00394,-0.24514c0.83143,-0.07775 0.83142,-0.07776 1.53553,-0.41362c0.29893,0.02336 0.60601,0.14067 0.89244,0.22128c0.04627,0.12988 -0.05643,0.15367 -0.10532,0.19378c-0.17978,0.14078 -0.34221,0.28069 -0.54269,0.3847c-0.13422,0.06309 -0.2543,0.0877 -0.39666,0.05685c-0.44462,-0.09184 -0.90492,-0.16404 -1.37937,-0.19785z" fill="#cce5e6"/><path d="M-7.77178,196.85578c-0.02395,-0.07436 -0.03052,-0.14955 -0.0561,-0.24263c-0.19949,-0.08478 -0.40652,-0.05592 -0.59291,0.00968c-0.15324,0.04515 -0.29233,0.05182 -0.44724,0.07812c-0.34452,0.05433 -0.70476,0.12829 -1.04764,0.20141c-0.03479,0.00166 -0.08532,0.02299 -0.1201,0.02464c-0.26247,-0.00622 -0.48198,0.07978 -0.72214,0.1291c0.02162,-0.15201 0.04496,-0.28528 0.13616,-0.44064c0.48201,-0.07981 0.97811,-0.19807 1.47912,-0.25992c0.48201,-0.07981 0.9574,-0.23478 1.4791,-0.25991c0.00888,0.30152 -0.041,0.5304 -0.10822,0.76012z" fill="#60adb2"/><path d="M13.91432,197.62373c0.02395,0.07434 0.04625,0.12991 0.07022,0.20421c-0.03148,0.03928 -0.04725,0.05887 -0.06298,0.0785c-0.28905,0.08939 -0.55581,0.23436 -0.8209,0.39806c-0.11682,0.06221 -0.21952,0.08607 -0.34615,0.03554c-0.25168,-0.08225 -0.51743,-0.12605 -0.74745,-0.36035c0.20638,-0.23638 0.47313,-0.38137 0.74152,-0.50749c0.0505,-0.02132 0.13912,-0.00665 0.21031,0.00875c0.3179,0.04127 0.63592,0.08262 0.9555,0.14275z" fill="#cce5e6"/><path d="M18.33691,197.67508c-0.16731,0.08354 -0.26677,0.14492 -0.38357,0.20716c-0.21787,0.10486 -0.42489,0.13367 -0.6782,0.03264c-0.4321,-0.14907 -0.87674,-0.24086 -1.31147,-0.21995c-0.13911,0.00667 -0.15814,-0.01126 -0.16048,-0.23763c0.05218,-0.0025 0.10269,-0.02383 0.1549,-0.02631c0.43639,-0.00213 0.8488,-0.07859 1.25632,-0.21145c0.10271,-0.02379 0.188,-0.04678 0.27825,-0.01342c0.27401,0.13779 0.54468,0.23802 0.84423,0.46896z" fill="#cae2e3"/><path d="M15.40842,195.13612c0.01574,-0.01961 0.04892,-0.04013 0.0663,-0.04092c0.4032,0.01835 0.77925,-0.07525 1.13625,-0.18679c0.3412,-0.09192 0.67165,-0.10783 1.01844,0.06424c0.16473,0.08645 0.35764,0.096 0.50824,0.22088c-0.3389,0.31829 -0.74973,0.41353 -1.14377,0.30039c-0.48267,-0.12776 -0.94955,-0.27515 -1.45223,-0.23206c-0.05382,-0.01627 -0.12338,-0.01295 -0.13322,-0.12569z" fill="#c9e1e2"/><path d="M18.20462,196.36041c-0.26183,0.20133 -0.4987,0.28822 -0.75298,0.37593c-0.0853,0.02295 -0.17225,0.02716 -0.2451,-0.00709c-0.5017,-0.14572 -1.01747,-0.25299 -1.52995,-0.32271c-0.03479,0.00166 -0.08858,-0.01458 -0.0794,-0.10941c0.12171,-0.00586 0.26082,-0.01256 0.38093,-0.0372c0.34614,-0.03551 0.69066,-0.08987 1.0112,-0.21854c0.23689,-0.08695 0.4646,-0.07896 0.68476,0.04254c0.16473,0.08645 0.31205,0.17369 0.53058,0.27644z" fill="#c9e1e2"/><path d="M14.19161,198.79936c0.09679,0.1086 0.105,0.20257 0.11322,0.29653c-0.01572,0.01961 -0.0489,0.04013 -0.06462,0.05971c-0.27495,0.05096 -0.52596,0.17631 -0.73724,0.35635c-0.13091,0.10066 -0.26838,0.12613 -0.42984,0.07727c-0.19783,-0.06595 -0.41145,-0.11228 -0.59521,-0.21668c0.13844,-0.21424 0.39536,-0.472 0.53121,-0.51628c0.08365,-0.0418 0.1565,-0.00756 0.2451,0.00709c0.29397,-0.03299 0.61358,0.02707 0.93738,-0.06396z" fill="#cae3e4"/><path d="M12.48256,192.42718c0.29464,0.17453 0.58436,0.29276 0.88985,0.39127c0.0446,0.11105 0.05121,0.18629 0.00724,0.28276c-0.30479,0.10904 -0.67326,0.08898 -0.97644,0.21682c-0.19949,-0.08479 -0.31697,-0.23009 -0.46757,-0.35495c-0.07611,-0.07179 -0.16797,-0.12399 -0.19686,-0.25472c0.21294,-0.16123 0.4928,-0.15581 0.7438,-0.28113z" fill="#c8e0e1"/><path d="M13.56248,195.39486c-0.00261,0.16996 -0.07053,0.19211 -0.13843,0.21426c-0.25431,0.08774 -0.49116,0.1746 -0.74709,0.24358c-0.06793,0.02215 -0.13747,0.02549 -0.21035,-0.00873c-0.20275,-0.12234 -0.40717,-0.26351 -0.59586,-0.42427c0.09613,-0.09897 0.19884,-0.12281 0.29827,-0.1842c0.29824,-0.18419 0.59222,-0.21723 0.89181,0.01367c0.14897,0.10609 0.32616,0.13529 0.50171,0.14568z" fill="#cbe4e5"/><path d="M13.45907,194.2108c0.00823,0.09396 0.01315,0.15034 0.01808,0.20672c-0.03316,0.02047 -0.04726,0.05887 -0.06464,0.05972c-0.18803,0.04674 -0.37766,0.07483 -0.56567,0.12161c-0.10272,0.0238 -0.1913,0.00918 -0.28317,-0.04301c-0.27561,-0.15658 -0.5355,-0.33284 -0.8003,-0.56541c0.14501,-0.13909 0.29986,-0.16542 0.45474,-0.19174c0.06954,-0.00331 0.13913,-0.00668 0.19455,0.02835c0.29959,0.23093 0.65724,0.32697 1.04637,0.38374z" fill="#c8e0e1"/><path d="M8.33667,194.34411c-0.19127,0.00921 -0.40163,0.00045 -0.5847,0.10364c-0.06629,0.04095 -0.15485,0.02629 -0.24179,0.03049c-0.04529,-0.31864 -0.01939,-0.62187 0.07775,-0.90963c0.24674,0.02589 0.48361,-0.06098 0.68899,-0.10866c0.09844,0.12737 0.05775,0.26145 0.10239,0.37251c0.03216,0.16831 0.03116,0.35711 -0.04262,0.51164z" fill="#85d5d9"/><path d="M17.60952,199.14441c-0.26907,-0.08141 -0.53811,-0.16281 -0.82291,-0.22461c-0.24837,-0.04468 -0.51349,0.11908 -0.79893,-0.15031c0.59122,-0.02847 1.10147,-0.18512 1.61166,-0.34178c0.19949,0.08479 0.41802,0.18746 0.59093,0.3679c-0.03148,0.03928 -0.04726,0.0589 -0.06296,0.07851c-0.16569,0.10233 -0.33304,0.18589 -0.51772,0.27026z" fill="#c6dede"/><path d="M18.35083,193.63564c-0.30715,-0.11733 -0.57778,-0.21752 -0.88494,-0.33486c0.09123,-0.15534 0.22542,-0.21847 0.32153,-0.31744c0.11349,-0.09984 0.2064,-0.2364 0.35798,-0.30031c0.12171,-0.00586 0.23263,0.06429 0.3419,0.11561c0.10925,0.05134 0.22015,0.12153 0.33273,0.21047c-0.08135,0.26814 -0.27693,0.42849 -0.46919,0.62652z" fill="#cae3e3"/><path d="M15.09233,191.7165c0.51021,-0.15669 0.93349,-0.30916 1.32944,-0.57357c0.23265,0.06432 0.46361,0.1098 0.71364,0.17327c-0.11778,0.25103 -0.31825,0.35504 -0.49803,0.49578c-0.03316,0.02047 -0.08534,0.02297 -0.12009,0.02462c-0.43967,-0.03546 -0.87934,-0.07088 -1.42497,-0.12012z" fill="#cae3e4"/><path d="M11.9791,196.66003c0.26181,-0.20133 0.50953,-0.36425 0.87209,-0.21182c0.25332,0.10106 0.51581,0.10729 0.7783,0.11353c0.10436,-0.00502 0.12995,0.08808 0.10503,0.20257c-0.2815,-0.02416 -0.53418,0.08233 -0.78682,0.18887c-0.18471,0.08438 -0.34449,0.05435 -0.50921,-0.03211c-0.14567,-0.06847 -0.30547,-0.09857 -0.45939,-0.26103z" fill="#c8e0e1"/><path d="M9.46238,193.83699c-0.13517,0.25186 -0.34874,0.20547 -0.55908,0.19674c-0.11088,-0.07013 -0.08599,-0.18457 -0.11158,-0.27767c-0.00393,-0.24513 0.04593,-0.47401 0.13059,-0.70461c0.19292,0.00959 0.37764,-0.07478 0.55975,0.01078c0.0256,0.09313 0.03052,0.14953 0.0371,0.22469c-0.01835,0.18963 -0.03669,0.37922 -0.05674,0.55005z" fill="#85d4d9"/><path d="M12.1992,194.78105c-0.25099,0.12532 -0.4705,0.21138 -0.68835,0.31624c-0.20606,-0.15993 -0.39637,-0.33948 -0.55354,-0.53957c0.02328,-0.13325 0.12435,-0.17584 0.18896,-0.23557c0.06464,-0.05972 0.12925,-0.11943 0.25263,-0.10649c0.22178,0.14034 0.48329,0.33531 0.8003,0.56541z" fill="#c7dfe0"/><path d="M11.60476,197.77266c-0.1854,-0.12323 -0.36911,-0.22761 -0.54207,-0.408c0.1368,-0.23307 0.33727,-0.33707 0.55184,-0.4795c0.22015,0.12152 0.44034,0.243 0.67791,0.3637c-0.22705,0.19965 -0.44167,0.34211 -0.6877,0.52379z" fill="#c8e0e1"/><path d="M18.98613,194.51101c-0.12602,0.15704 -0.252,0.31406 -0.43508,0.41725c-0.25332,-0.10106 -0.50824,-0.22088 -0.78057,-0.33988c-0.00327,-0.03756 -0.00656,-0.07516 0.01084,-0.07599c0.14667,-0.12031 0.3107,-0.24141 0.459,-0.34292c0.0663,-0.04092 0.13421,-0.0631 0.18963,-0.02803c0.21851,0.10272 0.43212,0.14907 0.55619,0.36958z" fill="#c4dcdd"/><path d="M18.69814,197.4124c-0.2392,-0.13947 -0.47674,-0.26016 -0.71597,-0.39965c0.03906,-0.15285 0.17815,-0.15952 0.2776,-0.22094c0.09942,-0.0614 0.21788,-0.10487 0.33465,-0.16709c0.21686,0.08394 0.37237,0.26521 0.55946,0.40719c-0.10365,0.21256 -0.27101,0.29611 -0.45573,0.38047z" fill="#c8e0e1"/><path d="M11.73763,198.29461c0.25495,0.11988 0.49089,0.22176 0.7632,0.34077c-0.12267,0.19464 -0.30582,0.29779 -0.43016,0.47366c-0.25001,-0.06348 -0.42294,-0.24388 -0.64472,-0.38417c0.08793,-0.19294 0.16174,-0.34749 0.31169,-0.43018z" fill="#c6ddde"/><path d="M14.57161,199.95118c-0.27922,0.20218 -0.60139,0.31206 -0.8409,0.56892c-0.2136,-0.04631 -0.40821,-0.07471 -0.61095,-0.19707c0.10204,-0.23137 0.24707,-0.37051 0.51116,-0.34545c0.31793,0.04129 0.62766,-0.01134 0.94068,-0.02643z" fill="#b9cfd0"/><path d="M15.24389,190.65236c0.04232,-0.11526 0.13421,-0.06313 0.20208,-0.08522c0.15323,-0.04512 0.30805,-0.07145 0.4026,-0.18926c0.17818,-0.15956 0.37106,-0.14999 0.58305,-0.12242c0.08861,0.01464 0.17884,0.04801 0.30383,0.07974c-0.16992,0.25356 -0.32745,0.44985 -0.6644,0.39058c-0.231,-0.04548 -0.47282,-0.01502 -0.70052,-0.0229c-0.05217,0.00247 -0.10436,0.00502 -0.12666,-0.05052z" fill="#c0d8d8"/><path d="M11.98971,191.58282c0.14833,-0.10151 0.28411,-0.14578 0.42324,-0.15248c0.06954,-0.00331 0.15653,-0.00757 0.21194,0.02751c0.24085,0.15828 0.49414,0.25929 0.74747,0.36035c0.01145,0.13155 -0.05971,0.11611 -0.11191,0.11863c-0.17391,0.00837 -0.36521,0.01759 -0.5358,0.06356c-0.22279,0.04847 -0.3842,-0.00039 -0.52237,-0.18246c-0.06039,-0.09146 -0.11747,-0.14533 -0.21259,-0.2351z" fill="#c1d9d9"/><path d="M11.58927,196.39566c-0.20111,-0.10354 -0.35338,-0.24724 -0.54041,-0.38921c0.08628,-0.21174 0.27265,-0.2773 0.41931,-0.39763c0.23758,0.12067 0.41213,0.31985 0.61981,0.49862c-0.16242,0.13992 -0.33142,0.20468 -0.49873,0.28824z" fill="#c3dbdc"/><path d="M17.94341,195.76898c0.23362,-0.12452 0.45151,-0.22933 0.66773,-0.35298c0.16311,0.06762 0.30875,0.13614 0.42789,0.30023c-0.12435,0.17584 -0.29004,0.27817 -0.45408,0.39935c-0.23265,-0.06434 -0.43374,-0.16783 -0.64144,-0.34656z" fill="#c3dadb"/><path d="M10.64328,194.76153c0.17292,0.18042 0.3268,0.34285 0.48069,0.50529c-0.1053,0.1938 -0.27099,0.29613 -0.43668,0.39846c-0.16801,-0.12402 -0.30284,-0.26848 -0.42357,-0.45139c0.02987,-0.05806 0.07548,-0.13573 0.10695,-0.17499c0.09613,-0.09897 0.17813,-0.15955 0.27267,-0.27733z" fill="#c4dbdc"/><path d="M13.43438,190.92821c-0.33044,0.01591 -0.59129,0.02844 -0.8695,0.04189c-0.12995,-0.08812 -0.22672,-0.19672 -0.29364,-0.3633c0.07712,-0.1169 0.20212,-0.08521 0.30317,-0.1278c0.10103,-0.04262 0.20376,-0.06641 0.2907,-0.07063c0.19035,0.17959 0.34259,0.32323 0.56931,0.51992z" fill="#c2d9da"/><path d="M19.17179,193.2376c0.14567,0.06847 0.25824,0.15737 0.33764,0.26683c0.03051,0.14951 -0.06729,0.22972 -0.11122,0.32618c-0.04392,0.09645 -0.0515,0.21007 -0.16829,0.2723c-0.17718,-0.02921 -0.34517,-0.15324 -0.548,-0.2756c0.07876,-0.0982 0.1575,-0.19635 0.21886,-0.29361c0.09613,-0.09897 0.19226,-0.19798 0.27102,-0.29614z" fill="#c5ddde"/><path d="M10.74082,197.07821c-0.18214,-0.08561 -0.24743,-0.23345 -0.3616,-0.34118c0.06892,-0.21091 0.21393,-0.35002 0.37467,-0.50876c0.1506,0.12485 0.30121,0.24974 0.45021,0.35583c-0.10204,0.23137 -0.30251,0.33542 -0.46328,0.49411z" fill="#c3dbdc"/><path d="M17.17054,191.91844c0.0456,-0.07771 0.07706,-0.11695 0.10854,-0.15621c0.08037,-0.07935 0.17816,-0.15955 0.27428,-0.25854c0.25495,0.11988 0.50495,0.18329 0.71432,0.38083c-0.02328,0.13325 -0.10531,0.19382 -0.22048,0.27484c-0.2674,-0.06262 -0.57123,-0.14238 -0.87674,-0.24086z" fill="#c7dfe0"/><path d="M11.3529,193.68937c-0.15553,-0.18125 -0.33925,-0.28564 -0.44425,-0.48818c0.08959,-0.17416 0.27919,-0.20218 0.37205,-0.33875c0.24084,0.15831 0.39637,0.33951 0.58669,0.51908c-0.14012,0.19549 -0.33138,0.20468 -0.51445,0.30789z" fill="#c7dee0"/><path d="M8.3967,193.83172c-0.04463,-0.11107 -0.00392,-0.24516 -0.10239,-0.37251c-0.22279,0.04847 -0.46131,0.11653 -0.68901,0.10866c0.01083,-0.07603 0.02002,-0.17082 0.04819,-0.24766c0.04232,-0.11526 0.12271,-0.19462 0.24446,-0.20052c0.20701,-0.02884 0.39665,-0.05687 0.60372,-0.08566c0.02134,0.24433 0.0138,0.35793 -0.10497,0.79771z" fill="#61acb1"/><path d="M18.61355,198.64315c-0.1854,-0.12323 -0.33432,-0.22925 -0.52137,-0.37126c0.21621,-0.12364 0.41502,-0.24644 0.63289,-0.35131c0.14731,0.08723 0.27724,0.17541 0.39309,0.30193c-0.14012,0.19549 -0.30577,0.29779 -0.50462,0.42061z" fill="#c2dada"/><path d="M11.61536,191.69517c0.1854,0.12323 0.30286,0.26852 0.45674,0.43099c-0.23688,0.08691 -0.43901,0.17212 -0.64115,0.25734c-0.16309,-0.06761 -0.22674,-0.1967 -0.3268,-0.34285c0.10694,-0.17499 0.29335,-0.24062 0.51116,-0.34545z" fill="#c1d9d9"/><path d="M18.94157,196.40038c0.15913,-0.17751 0.2884,-0.29695 0.41605,-0.43523c0.17884,0.04801 0.31369,0.1925 0.44854,0.33703c-0.07219,0.1733 -0.1634,0.32866 -0.32745,0.44981c-0.21359,-0.04634 -0.31695,-0.23012 -0.53715,-0.35161z" fill="#c6dedf"/><path d="M11.08833,198.45802c-0.168,-0.12402 -0.32024,-0.26769 -0.47086,-0.39255c0.00261,-0.16996 0.06231,-0.28608 0.17423,-0.40473c0.23265,0.06434 0.37237,0.26521 0.5752,0.38755c-0.05477,0.17251 -0.16832,0.27229 -0.27854,0.40974z" fill="#c0d7d7"/><path d="M17.40812,191.03893c-0.19785,-0.06595 -0.40817,-0.07474 -0.59686,-0.23548c0.1119,-0.11864 0.2064,-0.23642 0.30087,-0.35419c0.20866,-0.01002 0.39075,0.07557 0.54299,0.21921c-0.03905,0.15284 -0.11778,0.25099 -0.24701,0.37045z" fill="#c3dadb"/><path d="M9.52077,193.30571c-0.00655,-0.07517 -0.03054,-0.14953 -0.03712,-0.22472c-0.18214,-0.08561 -0.36682,-0.00125 -0.55975,-0.01078c-0.02888,-0.13071 0.06893,-0.21094 0.0748,-0.34331c0.21951,-0.08604 0.43311,-0.03974 0.64767,-0.18218c0.03378,0.18709 -0.00851,0.30234 -0.04918,0.43645c-0.02655,0.09567 0.01965,0.22555 -0.07643,0.3245z" fill="#5aa0a4"/><path d="M13.29961,201.18261c-0.19782,-0.06597 -0.4082,-0.07473 -0.57783,-0.21755c0.02328,-0.13325 0.08632,-0.21177 0.18076,-0.32956c0.19459,0.02838 0.39242,0.09434 0.55879,0.19956c-0.0233,0.13325 -0.0689,0.21091 -0.16175,0.34749z" fill="#bdd3d4"/><path d="M10.08622,195.581c0.11584,0.12655 0.23001,0.2343 0.3442,0.34201c-0.0722,0.17332 -0.18407,0.29197 -0.31332,0.41143c-0.14403,-0.04969 -0.19035,-0.17959 -0.20183,-0.31112c-0.01482,-0.16914 -0.02957,-0.33827 0.17092,-0.4423z" fill="#bdd4d5"/><path d="M17.66928,200.02858c-0.21686,-0.08395 -0.4164,-0.1687 -0.63325,-0.25259c0.34876,-0.2055 0.67096,-0.31536 0.99941,0.04627c-0.07712,0.1169 -0.21458,0.14243 -0.36616,0.20635z" fill="#bbd2d3"/><path d="M10.3335,193.81395c0.05643,-0.15367 0.15423,-0.2339 0.252,-0.31407c0.12171,-0.00586 0.16472,0.08645 0.24082,0.1583c0.05707,0.05386 0.13154,0.10689 0.15879,0.21884c-0.05643,0.15367 -0.23028,0.16208 -0.30413,0.31661c-0.16638,-0.10521 -0.26481,-0.23257 -0.3475,-0.37956z" fill="#c3dadb"/><path d="M15.51572,195.565c0.3163,0.02257 0.63258,0.04504 0.95546,0.14276c-0.00756,0.11358 -0.09286,0.13661 -0.1798,0.14076c-0.22441,0.02967 -0.45045,0.04056 -0.65912,0.05059c-0.15649,0.00754 -0.20116,-0.10357 -0.11649,-0.33408z" fill="#b1c6c7"/><path d="M11.14711,199.53093c0.14237,0.03087 0.20441,0.14114 0.29793,0.21212c0.1854,0.12321 0.21756,0.2915 0.1503,0.52124c-0.2533,-0.10105 -0.4295,-0.31906 -0.58503,-0.50029c0.0059,-0.13241 0.03576,-0.19047 0.1368,-0.23307z" fill="#bbd2d3"/><path d="M15.90958,198.07501c0.32386,-0.09109 0.63093,0.02626 0.95382,0.12393c-0.23361,0.12451 -0.49447,0.137 -0.73626,0.16755c-0.15487,0.02633 -0.1946,-0.02838 -0.21755,-0.29148z" fill="#bad1d2"/><path d="M14.39774,200.95988c-0.12764,0.13823 -0.22049,0.27481 -0.3481,0.41308c-0.0886,-0.01462 -0.21527,-0.06516 -0.34025,-0.09686c0.05741,-0.34248 0.0748,-0.34332 0.30251,-0.33542c0.12173,-0.00584 0.2451,0.00709 0.38585,0.01919z" fill="#b5cbcc"/><path d="M20.20672,195.49029c-0.03578,0.19044 -0.11285,0.30742 -0.18996,0.42435c-0.16145,-0.04887 -0.24411,-0.19588 -0.35996,-0.32238c0.07543,-0.13575 0.15257,-0.25265 0.22802,-0.38842c0.15814,0.01126 0.20771,0.1787 0.32191,0.28648z" fill="#c0d7d8"/><path d="M12.92382,199.87949c-0.02496,0.11441 -0.1053,0.19381 -0.20308,0.27404c-0.231,-0.04551 -0.43376,-0.16782 -0.60505,-0.32946c-0.02888,-0.13071 0.02002,-0.17082 0.10365,-0.21256c0.23427,0.08305 0.46857,0.16617 0.70446,0.26806z" fill="#bdd4d4"/><path d="M18.92886,198.8545c0.14667,-0.12031 0.31233,-0.22263 0.45899,-0.34295c0.09351,0.07099 0.13649,0.1633 0.14636,0.27605c-0.02494,0.11441 -0.10856,0.15621 -0.19058,0.21676c-0.0663,0.04092 -0.13255,0.08187 -0.19883,0.12281c-0.10929,-0.05135 -0.18541,-0.12318 -0.21592,-0.27272z" fill="#b6cccc"/><path d="M18.95332,195.13539c0.12764,-0.13823 0.2395,-0.25686 0.36552,-0.41393c0.10596,0.01376 0.21526,0.06512 0.2822,0.23177c-0.07541,0.13577 -0.1683,0.27233 -0.25948,0.42768c-0.14567,-0.06847 -0.27236,-0.11898 -0.38818,-0.24555z" fill="#c1d9d9"/><path d="M18.45543,199.63209c-0.14567,-0.06847 -0.25661,-0.13863 -0.35502,-0.26601c0.12764,-0.13823 0.29828,-0.18419 0.43244,-0.24728c0.14237,0.03087 0.18702,0.14197 0.2474,0.23343c-0.01246,0.05721 -0.00919,0.09481 -0.02655,0.09567c-0.09941,0.06138 -0.19881,0.12279 -0.29828,0.18419z" fill="#b7cdce"/><path d="M17.0469,200.70026c0.17818,-0.15954 0.33466,-0.1671 0.48789,-0.21222c0.16896,-0.06476 0.24839,0.04466 0.34684,0.17202c-0.12764,0.13823 -0.28087,0.18337 -0.41343,0.26525c-0.17717,-0.02923 -0.24577,-0.21465 -0.42131,-0.22507z" fill="#b6cccc"/><path d="M12.35919,200.81255c-0.14731,-0.08726 -0.25823,-0.1574 -0.38652,-0.22673c-0.03216,-0.16831 -0.042,-0.28108 0.03345,-0.41681c0.16638,0.10523 0.33108,0.19167 0.4784,0.27891c0.06698,0.16662 -0.03084,0.24679 -0.03835,0.36041c-0.03479,0.00166 -0.06794,0.02214 -0.08697,0.00421z" fill="#c2dada"/><path d="M19.80837,194.52806c-0.12663,-0.05053 -0.18372,-0.1044 -0.22675,-0.19667c-0.02724,-0.11196 0.03577,-0.19044 0.0797,-0.28693c0.04559,-0.07769 0.05149,-0.21008 0.17158,-0.23472c0.11251,0.08895 0.20934,0.19751 0.25889,0.36502c-0.09284,0.13659 -0.18899,0.23557 -0.28348,0.35337z" fill="#bbd2d3"/><path d="M10.77117,192.22645c0.09844,0.12738 0.17621,0.21801 0.25561,0.32739c-0.11024,0.13744 -0.24281,0.21928 -0.37372,0.31997c-0.11089,-0.07014 -0.18869,-0.16078 -0.20013,-0.29233c0.0141,-0.03844 0.02823,-0.07684 0.06138,-0.09733c0.06296,-0.07851 0.14344,-0.1579 0.25691,-0.25772z" fill="#bbd2d3"/><path d="M14.45947,201.46641c0.1716,-0.23474 0.1716,-0.23476 0.459,-0.34292c0.14734,0.08728 0.17783,0.2368 0.24476,0.40342c-0.23857,0.06813 -0.4728,-0.01498 -0.70379,-0.06047z" fill="#adc2c3"/><path d="M10.11794,194.1452c0.11089,0.07014 0.19032,0.17961 0.21917,0.3103c-0.11024,0.13744 -0.20468,0.25521 -0.31659,0.37379c-0.20183,-0.31113 -0.20348,-0.32989 0.09736,-0.68412z" fill="#b5cbcc"/><path d="M19.4272,197.96235c-0.12996,-0.08809 -0.22346,-0.15913 -0.32187,-0.28651c0.07381,-0.15451 0.22541,-0.21843 0.35471,-0.33791c0.05546,0.03508 0.0935,0.07098 0.13158,0.10688c0.03808,0.03591 0.06039,0.09146 0.1001,0.14616c-0.03739,0.17167 -0.13351,0.27062 -0.26445,0.37132z" fill="#bbd1d2"/><path d="M11.48999,191.0595c0.10532,-0.1938 0.31234,-0.22263 0.44323,-0.32333c0.12828,0.06934 0.1572,0.20006 0.23659,0.30948c-0.17978,0.14078 -0.35041,0.18671 -0.54663,0.13951c-0.05217,0.00247 -0.09353,-0.07098 -0.13323,-0.12569z" fill="#b6cccd"/><path d="M18.50237,191.57121c-0.23758,-0.12067 -0.45935,-0.26099 -0.67951,-0.3825c0.00592,-0.13241 0.05148,-0.21006 0.16664,-0.29112c0.20771,0.1787 0.41538,0.35745 0.57586,0.59507c-0.0315,0.03927 -0.04726,0.0589 -0.06298,0.07852z" fill="#acc1c2"/><path d="M16.5116,196.97024c-0.22117,0.06727 -0.44395,0.11573 -0.67328,0.089c-0.08861,-0.01464 -0.16308,-0.06764 -0.17129,-0.16159c-0.00327,-0.03756 0.02495,-0.11443 0.04234,-0.11527c0.25919,-0.03134 0.53154,0.08765 0.80222,0.18783z" fill="#a7bbbb"/><path d="M19.9817,197.31282c-0.10764,-0.03257 -0.16801,-0.12402 -0.23001,-0.23427c0.09284,-0.13659 0.18571,-0.27315 0.27856,-0.40974c0.14567,0.06847 0.1729,0.1804 0.18439,0.31195c-0.04232,0.11526 -0.13678,0.23306 -0.23296,0.33206z" fill="#b7cdcd"/><path d="M10.0892,197.0152c0.18214,0.08561 0.28053,0.21299 0.38062,0.35914c-0.03905,0.15284 -0.09874,0.26899 -0.2487,0.35166c-0.12403,-0.2205 -0.12633,-0.44687 -0.13194,-0.71081z" fill="#b7cece"/><path d="M12.96316,189.93174c0.19718,-0.14161 0.4298,-0.07731 0.59548,-0.17967c0.11088,0.07013 0.10007,0.14618 0.05118,0.18628c-0.1309,0.10066 -0.28088,0.1834 -0.45475,0.19172c-0.05383,-0.01628 -0.07119,-0.01547 -0.19196,-0.19837z" fill="#b4cacb"/><path d="M18.44629,192.32883c0.04233,-0.11525 0.08955,-0.17417 0.1732,-0.21596c0.1854,0.12321 0.38816,0.24554 0.55026,0.50197c-0.29397,0.03299 -0.48265,-0.12777 -0.72348,-0.28602z" fill="#b2c8c9"/><path d="M10.35972,193.11442c-0.07543,0.13575 -0.1368,0.23307 -0.23786,0.27568c-0.0712,-0.01543 -0.09353,-0.07099 -0.11584,-0.12655c-0.08926,-0.22216 0.02429,-0.32201 0.18995,-0.42432c0.04301,0.09227 0.10338,0.18375 0.16375,0.2752z" fill="#b5cbcb"/><path d="M16.19341,199.32585c0.22443,-0.02967 0.41569,-0.03888 0.62927,0.00745c0.02558,0.09314 -0.02329,0.13322 -0.07544,0.13575c-0.1201,0.02464 -0.23857,0.0681 -0.35863,0.09274c-0.13911,0.00667 -0.18045,-0.06683 -0.19518,-0.23593z" fill="#91a3a3"/><path d="M15.91751,192.16746c-0.19718,0.14161 -0.4249,0.13369 -0.63358,0.14372c-0.03479,0.00166 -0.07286,-0.03424 -0.09351,-0.07099c-0.00327,-0.03756 0.02654,-0.09563 0.04396,-0.0965c0.23857,-0.06813 0.46788,-0.04139 0.68313,0.02373z" fill="#99abac"/><path d="M15.24749,191.29386c-0.08106,-0.12822 -0.08925,-0.22218 -0.00559,-0.26396c0.11847,-0.04342 0.29561,-0.01422 0.52825,0.05006c-0.16241,0.13995 -0.35367,0.14914 -0.52265,0.21386z" fill="#93a5a6"/><path d="M10.4571,198.82815c0.20441,0.14116 0.42459,0.26265 0.31503,0.60765c-0.22177,-0.14034 -0.24312,-0.38463 -0.31503,-0.60765z" fill="#9aadad"/><path d="M13.59903,198.41263c0.13422,-0.06309 0.28576,-0.127 0.40261,-0.18923c0.09186,0.05221 0.11418,0.10774 0.10663,0.22135c-0.14833,0.10152 -0.32877,0.03473 -0.48366,0.06105c-0.00327,-0.03756 -0.00491,-0.05639 -0.0256,-0.09317z" fill="#c5dddd"/><path d="M16.05643,194.55765c-0.2113,0.18002 -0.43739,0.19086 -0.67001,0.12662c-0.01741,0.00084 -0.03811,-0.03593 -0.04137,-0.07351c-0.02229,-0.05555 0.02654,-0.09563 0.06135,-0.0973c0.18964,-0.02803 0.40327,0.01835 0.65002,0.04419z" fill="#aec2c3"/><path d="M11.30922,191.38905c-0.12764,0.13823 -0.2966,0.20301 -0.44821,0.26691c-0.09186,-0.05219 -0.08106,-0.12824 -0.01479,-0.16915c0.11517,-0.08104 0.21295,-0.16122 0.34714,-0.22428c0.0315,-0.03927 0.08858,0.01458 0.11582,0.12654z" fill="#9caeaf"/><path d="M20.25991,196.29922c0.03739,-0.17167 0.09709,-0.28774 0.18996,-0.42435c0.09091,0.24097 0.0568,0.4502 0.07646,0.67574c-0.05383,-0.01629 -0.08861,-0.01464 -0.10759,-0.03259c-0.05872,-0.07267 -0.10007,-0.14614 -0.15882,-0.2188z" fill="#a9bebf"/><path d="M13.4,193.53422c0.04627,0.12988 0.03546,0.20586 -0.01019,0.2836c-0.17226,0.02714 -0.33367,-0.02172 -0.52401,-0.20127c0.2054,-0.04762 0.36189,-0.05515 0.53417,-0.08236z" fill="#b9cfd0"/><path d="M14.35011,199.41448c0.09186,0.05221 0.11582,0.12657 0.13978,0.20087c-0.02658,0.09565 -0.1135,0.09983 -0.53581,0.06351c0.08464,-0.23056 0.28085,-0.18337 0.39604,-0.26439z" fill="#869797"/><path d="M15.92315,193.43166c-0.28317,-0.04299 -0.51187,0.13788 -0.74349,-0.1152c0.25431,-0.08774 0.46458,-0.07902 0.74349,0.1152z" fill="#93a4a5"/><path d="M17.13091,200.26212c-0.26082,0.01256 -0.43475,0.02091 -0.60863,0.02929c-0.03479,0.00166 -0.07286,-0.03424 -0.07774,-0.09061c-0.00164,-0.01882 0.01248,-0.05723 0.02821,-0.07686c0.20538,-0.04766 0.39672,-0.05686 0.65818,0.13816z" fill="#94a5a6"/><path d="M14.68974,200.30413c0.07938,0.10945 0.10173,0.16492 0.04038,0.26226c-0.13746,0.02548 -0.29235,0.05184 -0.47118,0.00382c0.10534,-0.19378 0.27919,-0.20214 0.43076,-0.26607z" fill="#abbfc0"/><path d="M18.14509,200.47751c-0.04299,-0.09229 -0.06366,-0.12904 -0.06695,-0.16667c0.22539,-0.21845 0.22538,-0.21842 0.47375,-0.17375c-0.08793,0.19294 -0.26181,0.20135 -0.40682,0.34039z" fill="#acc0c1"/><path d="M11.31317,199.03234c0.14897,0.10609 0.31369,0.1925 0.46428,0.31737c0.05707,0.05386 0.06363,0.12906 -0.03577,0.19044c-0.1854,-0.12323 -0.35338,-0.24721 -0.42849,-0.50781z" fill="#9fb2b2"/><path d="M19.67794,198.23337c0.06137,-0.09734 0.10861,-0.15621 0.19225,-0.19797c0.07287,0.03423 0.11256,0.08893 0.13816,0.18208c-0.00756,0.1136 -0.08793,0.19294 -0.16832,0.27229c-0.10764,-0.03257 -0.13486,-0.14448 -0.16206,-0.25639z" fill="#aec2c3"/><path d="M13.26133,196.14538c0.07378,-0.15449 0.19557,-0.1604 0.31564,-0.18505c0.05217,-0.00247 0.09183,0.05218 0.09679,0.10857c0.00327,0.03756 -0.02656,0.09568 -0.06135,0.09732c-0.09942,0.0614 -0.20707,0.02884 -0.35107,-0.02087z" fill="#91a2a3"/><path d="M20.357,195.01121c-0.3137,-0.19253 -0.33274,-0.21043 -0.1106,-0.4665c0.04789,0.14869 0.14635,0.27605 0.1106,0.4665z" fill="#869696"/><path d="M15.17302,190.24057c0.12436,-0.17583 0.23359,-0.12448 0.35699,-0.11156c-0.0722,0.17332 -0.0722,0.17332 -0.35699,0.11156z" fill="#555f5f"/><path d="M13.83096,197.26915c-0.08695,0.00419 -0.20865,0.01003 -0.33535,-0.04048c0.14175,-0.17667 0.21129,-0.18 0.33958,-0.11073c0.03643,0.01712 0.04138,0.07351 -0.00427,0.1512z" fill="#93a5a6"/><path d="M17.06069,201.05811c-0.19227,0.19799 -0.22868,0.18089 -0.30711,-0.11735c0.11846,-0.04345 0.21198,0.02752 0.30711,0.11735z" fill="#8b9b9c"/><path d="M15.74715,189.81666c-0.16898,0.06474 -0.3097,0.05264 -0.45051,0.04053c-0.06202,-0.11024 -0.03214,-0.16831 0.03741,-0.17164c0.13911,-0.00669 0.27988,0.00541 0.41308,0.13107z" fill="#9aacad"/><path d="M19.04245,199.75491c-0.07712,0.1169 -0.11944,0.23222 -0.2602,0.22013c-0.01741,0.00081 -0.03643,-0.0171 -0.03808,-0.03591c0.02001,-0.17082 0.12109,-0.21344 0.29827,-0.1842z" fill="#5f6a6b"/><path d="M13.29045,194.87947c0.06464,-0.05972 0.13422,-0.06309 0.20542,-0.0476c0.03643,0.01712 0.07447,0.05303 0.06036,0.09146c-0.0141,0.03844 -0.04559,0.07769 -0.08039,0.07935c-0.06954,0.00331 -0.14074,-0.01211 -0.18537,-0.1232z" fill="#636e6f"/><path d="M20.24484,197.52671c0.06365,0.12906 0.05448,0.22384 -0.07806,0.30573c-0.08268,-0.14701 -0.03712,-0.22469 0.07806,-0.30573z" fill="#4a5354"/></g><g fill="#000000" stroke="#000000" stroke-width="1.2"><path d="M-6.62308,186.69036c1.78189,-0.55417 4.75541,0.98262 7.04328,1.1631c2.46323,0.19436 4.07499,-0.91968 5.38954,0.06393c0.9182,0.68704 1.00069,2.27316 0.93549,3.09948c-0.1585,2.00931 -3.67863,3.37061 -7.86238,3.04054c-4.18376,-0.33007 -7.44686,-2.22651 -7.28835,-4.2358c0.07182,-0.91051 0.30581,-2.67202 1.78239,-3.13124z"/><path d="M-9.05423,190.03861c2.49153,-0.75009 8.31516,0.69999 8.31516,0.69999c0,0 3.8429,-0.81421 3.92906,-0.80588c5.49214,0.52947 5.27849,4.01384 4.96633,7.97036c-0.14854,1.88305 -1.14051,4.71838 -2.94342,5.61173c-2.04472,1.01318 -4.72861,0.2248 -7.80034,-0.01755c-5.78018,-0.45603 -10.50522,-3.22696 -10.18819,-7.24556c0.13956,-1.76897 0.39365,-5.21125 3.72137,-6.21308z"/></g></g><path d="M48.60746,189.0695c-1.75044,1.43689 -6.39222,-1.62555 -10.3677,-6.84019c-3.9755,-5.21463 -5.77925,-10.60676 -4.02883,-12.04365c1.75044,-1.43689 6.39222,1.62555 10.3677,6.84019c3.9755,5.21463 5.77925,10.60676 4.02883,12.04365z" fill="none" fill-rule="nonzero" stroke="#000000" stroke-width="4.5" stroke-linecap="butt" stroke-linejoin="miter"/><g fill="#ff0000" fill-rule="nonzero" stroke="none" stroke-linecap="butt" stroke-linejoin="miter"><path d="M-11.55306,208.99576c-0.59706,1.0431 -1.88753,1.56346 -2.88238,1.16228c-0.99484,-0.40119 -1.31731,-1.57201 -0.72025,-2.61509c0.59706,-1.0431 1.88753,-1.56346 2.88239,-1.16228c0.99484,0.40119 1.31731,1.57202 0.72026,2.6151z" stroke-width="NaN"/><path d="M-11.48642,214.04387c-0.5493,0.95966 -1.71145,1.44852 -2.59575,1.09192c-0.8843,-0.3566 -1.1559,-1.42365 -0.60659,-2.3833c0.5493,-0.95966 1.71146,-1.4485 2.59576,-1.0919c0.8843,0.3566 1.15589,1.42365 0.60658,2.38328z" stroke-width="0"/><path d="M-16.36781,216.25973c-0.57318,1.00136 -1.75471,1.52407 -2.63899,1.16745c-0.8843,-0.3566 -1.13653,-1.45747 -0.56333,-2.45886c0.57318,-1.00136 1.7547,-1.52407 2.63899,-1.16745c0.8843,0.3566 1.13653,1.45747 0.56335,2.45884z" stroke-width="0"/><path d="M-3.97465,205.08537c-0.57373,-0.53101 -0.44597,-1.59252 0.28538,-2.37097c0.73136,-0.77847 1.78935,-0.97906 2.36308,-0.44806c0.57373,0.53101 0.44597,1.59252 -0.28539,2.37101c-0.73136,0.77847 -1.78934,0.97904 -2.36307,0.44804z" stroke-width="NaN"/><path d="M-7.98418,204.88796c-0.52784,-0.48852 -0.42874,-1.44548 0.22135,-2.13745c0.6501,-0.69196 1.60499,-0.85688 2.13284,-0.36834c0.52784,0.48852 0.42873,1.4455 -0.22137,2.13746c-0.6501,0.69196 -1.60499,0.85688 -2.13284,0.36834z" stroke-width="0"/><path d="M-7.48753,208.08033c-0.59669,-0.55224 -0.57535,-1.5375 0.04765,-2.20062c0.62301,-0.66314 1.61176,-0.753 2.20846,-0.20076c0.59669,0.55224 0.57535,1.5375 -0.04766,2.20063c-0.62301,0.66314 -1.61175,0.75302 -2.20843,0.20077z" stroke-width="0"/><path d="M-18.43022,200.90159c-0.85539,0.87441 -2.15115,0.9885 -2.89416,0.25486c-0.74301,-0.73364 -0.65191,-2.03724 0.20348,-2.91165c0.85539,-0.87441 2.15114,-0.98851 2.89416,-0.25486c0.74301,0.73364 0.65192,2.03724 -0.20347,2.91165z" stroke-width="NaN"/><path d="M-19.9819,206.09258c-0.78695,0.80444 -1.9603,0.92793 -2.62075,0.27579c-0.66045,-0.65213 -0.5579,-1.83292 0.22907,-2.63738c0.78695,-0.80444 1.9603,-0.92792 2.62077,-0.2758c0.66045,0.65213 0.5579,1.83292 -0.22905,2.63738z" stroke-width="0"/><path d="M-10.85455,198.62691c-0.33295,-0.72991 0.11748,-1.77549 1.00604,-2.33532c0.88856,-0.55982 1.87877,-0.4219 2.21173,0.30803c0.33295,0.72991 -0.11748,1.77549 -1.00604,2.33532c-0.88856,0.55982 -1.87877,0.42191 -2.21172,-0.30801z" stroke-width="NaN"/><path d="M-12.76511,193.09276c-0.31961,-0.70076 0.06157,-1.67218 0.85139,-2.16985c0.78982,-0.49763 1.68921,-0.33297 2.00884,0.36778c0.31961,0.70076 -0.06155,1.6722 -0.85138,2.16982c-0.78982,0.49763 -1.68921,0.33297 -2.00884,-0.36778z" stroke-width="0"/><path d="M-14.88523,200.55385c-0.34626,-0.75913 -0.01335,-1.76112 0.74356,-2.23801c0.75693,-0.47688 1.65122,-0.2481 1.99749,0.51103c0.34626,0.75913 0.01334,1.76113 -0.74356,2.23803c-0.75693,0.47688 -1.65122,0.24808 -1.9975,-0.51106z" stroke-width="0"/></g><path d="M53.48638,239.56651c-23.28148,14.70028 -54.41227,7.20459 -69.53255,-16.74207c-15.12028,-23.94665 -8.50435,-55.27619 14.77716,-69.97648c23.28148,-14.70028 54.41227,-7.20459 69.53255,16.74207c15.12028,23.94665 8.50435,55.27619 -14.77716,69.97648z" fill="#000000" fill-rule="nonzero" stroke="#7d7d7d" stroke-width="4" stroke-linecap="butt" stroke-linejoin="miter"/><path d="M70.84051,217.47864c-3.11205,9.0017 -12.22602,14.02035 -20.35657,11.20945c-8.13056,-2.81091 -12.19887,-12.3869 -9.0868,-21.3886c3.11205,-9.0017 12.22602,-14.02035 20.35657,-11.20945c8.13056,2.81091 12.19887,12.3869 9.0868,21.3886z" fill="#888888" fill-rule="nonzero" stroke="none" stroke-width="0" stroke-linecap="butt" stroke-linejoin="miter"/><g stroke-linejoin="miter"><path d="M65.70066,198.60541c-13.39584,1.21712 -25.28642,-9.14484 -26.5584,-23.14409c-1.27194,-13.99924 8.55641,-26.33457 21.95223,-27.55171c13.39584,-1.21712 25.28642,9.14484 26.5584,23.14409c1.27194,13.99924 -8.55641,26.33457 -21.95223,27.55171z" fill="none" fill-rule="nonzero" stroke="#000000" stroke-width="4.5" stroke-linecap="butt"/><g stroke-linecap="butt"><g fill-rule="nonzero"><path d="M77.69653,156.82128l0.00703,-0.01213" fill="#ffab19" stroke="#000000" stroke-width="5"/><g fill="none" stroke="none" stroke-width="1" font-family="sans-serif" font-weight="normal" font-size="12" text-anchor="start"/></g><path d="M77.69653,156.82128l0.00703,-0.01213" fill="#ffab19" fill-rule="nonzero" stroke="#000000" stroke-width="5"/><path d="M62.15328,173.07821" fill="#001026" fill-rule="evenodd" stroke="#000000" stroke-width="5"/><g fill="none" fill-rule="nonzero" stroke="none" stroke-width="1" font-family="sans-serif" font-weight="normal" font-size="12" text-anchor="start"/><g fill="none" fill-rule="nonzero" stroke="none" stroke-width="1" font-family="sans-serif" font-weight="normal" font-size="12" text-anchor="start"/></g><path d="M37.74813,169.7718l-2.43185,-29.34804c0,0 0.12039,-2.4252 1.04957,-2.16145c2.13067,0.60476 11.47654,5.71685 11.47654,5.71685l2.8994,-11.99717c0,0 0.70744,-2.20242 1.77328,-2.61995c0.99151,-0.38843 11.34512,10.111 11.34512,10.111c0,0 2.8468,-8.5597 4.61705,-10.96915c0.69512,-0.94613 9.45012,10.86482 13.94776,19.16021c2.20083,4.05919 5.46047,9.57067 6.6122,14.17589c1.90963,7.63581 0.16999,13.81667 0.16999,13.81667" fill="none" fill-rule="nonzero" stroke="#000000" stroke-width="3" stroke-linecap="round"/><path d="M35.1471,138.56175c0,0 1.35013,-0.65503 3.38633,0.39452c2.55036,1.31459 6.27109,6.33892 8.4732,4.47816c2.85263,-2.41041 1.25607,-14.9269 5.22781,-13.72856c3.26126,0.98398 9.54167,9.72186 11.6046,9.53442c2.05836,-0.187 0.39289,-4.62236 2.89563,-7.48008c3.55942,-4.06432 3.7277,-2.274 3.7277,-2.274c0,0 8.50232,10.9964 11.45453,16.44751c2.76981,5.11438 5.74639,15.31345 5.74639,15.31345c0,0 -15.04198,-13.62951 -23.25053,-15.0241c-9.09934,-1.54591 -26.02956,17.62424 -26.02956,17.62424z" fill="url(#color-1)" fill-rule="nonzero" stroke="none" stroke-width="0" stroke-linecap="butt"/></g><path d="M65.34828,170.074c-2.42184,1.91025 -6.34912,0.96875 -8.77186,-2.10283c-2.42273,-3.07158 -2.42346,-7.11016 -0.00163,-9.02038c2.42184,-1.91025 6.34912,-0.96875 8.77186,2.10283c2.42273,3.07158 2.42346,7.11016 0.00163,9.02038z" fill="none" fill-rule="nonzero" stroke="#000000" stroke-width="4.5" stroke-linecap="butt" stroke-linejoin="miter"/><path d="M47.02691,161.38941c0,0 1.91923,1.68473 1.90302,4.71055c-0.01499,2.8045 -1.99686,12.83082 -1.99686,12.83082" fill="none" fill-rule="nonzero" stroke="#000000" stroke-width="3" stroke-linecap="round" stroke-linejoin="miter"/></g></g></svg>