<svg version="1.1" xmlns="http://www.w3.org/2000/svg" xmlns:xlink="http://www.w3.org/1999/xlink" width="84.08865" height="114.72017" viewBox="0,0,84.08865,114.72017"><defs><linearGradient x1="213.84094" y1="164.83745" x2="191.63205" y2="161.65071" gradientUnits="userSpaceOnUse" id="color-1"><stop offset="0" stop-color="#000000"/><stop offset="1" stop-color="#000000" stop-opacity="0"/></linearGradient></defs><g transform="translate(-190.78038,-135.1452)"><g data-paper-data="{&quot;isPaintingLayer&quot;:true}" stroke-miterlimit="10" stroke-dasharray="" stroke-dashoffset="0" style="mix-blend-mode: normal"><path d="M235.57452,189.53538l-0.98643,15.86593" fill="none" fill-rule="nonzero" stroke="#000000" stroke-width="6" stroke-linecap="round" stroke-linejoin="miter"/><path d="M213.56275,221.50938c0.57355,-0.73492 6.96564,-24.79174 15.6623,-30.86665c2.8686,-2.00381 6.29691,0.49534 6.29691,0.49534c0,0 6.35362,5.27408 9.24559,6.61526c1.81613,0.84225 5.03497,-0.14324 5.03497,-0.14324" fill="none" fill-rule="nonzero" stroke="#000000" stroke-width="6" stroke-linecap="round" stroke-linejoin="miter"/><path d="M243.71915,204.1031l2.92297,25.98777c0,0 7.06267,0.41252 6.89471,7.51322c-0.00958,0.40481 -0.10976,2.39235 -3.02746,2.97403c-2.79456,0.55712 -8.36532,-0.27515 -10.40081,-0.59138c-0.94539,-0.14688 -2.3855,-0.78756 -3.30585,-1.88454c-0.92663,-1.1045 -0.82654,-2.71079 -0.82591,-3.6144c0.00025,-0.36804 -2.07942,-29.30669 -2.07942,-29.30669" fill="#000000" fill-rule="evenodd" stroke="#001026" stroke-width="1.2" stroke-linecap="round" stroke-linejoin="round"/><path d="M233.75789,209.71143c0,0 -3.38365,30.23157 -4.0011,30.33136c-1.77192,0.28635 -11.48215,-2.27779 -11.48215,-2.27779l6.24171,-30.39505" data-paper-data="{&quot;index&quot;:null}" fill="#000000" fill-rule="evenodd" stroke="#001026" stroke-width="1.2" stroke-linecap="round" stroke-linejoin="round"/><path d="M232.09406,238.15796c-0.02471,0.4906 -0.78326,4.37077 -2.69077,7.11812c-1.4878,2.14285 -4.06623,3.2049 -4.98327,3.98929c-1.09796,0.93914 -4.37918,-1.08183 -5.95259,-4.45725c-1.25725,-2.69714 -0.97219,-6.71096 -0.93513,-7.44681c0.1713,-3.40126 1.92809,0.46456 6.39105,0.73978c4.46293,0.27521 8.34201,-3.3444 8.17069,0.05688z" fill="#92ff66" fill-rule="nonzero" stroke="#001026" stroke-width="1.2" stroke-linecap="butt" stroke-linejoin="miter"/><g data-paper-data="{&quot;index&quot;:null}" fill="#000000" fill-rule="nonzero" stroke="#000000" stroke-width="1.2" stroke-linecap="butt" stroke-linejoin="miter"><path d="M259.53617,204.82149c-1.39652,0.63085 -3.97454,-0.32259 -5.85733,-0.2396c-2.0271,0.08933 -3.22867,1.15938 -4.39897,0.48993c-0.81744,-0.46761 -1.04419,-1.75203 -1.07416,-2.43204c-0.07289,-1.65355 2.65915,-3.11704 6.10215,-3.26879c3.44301,-0.15176 6.29321,1.0657 6.36609,2.71924c0.03303,0.7493 0.01947,2.20849 -1.13776,2.73126z"/><path d="M261.18084,201.84814c-1.95519,0.8619 -6.84736,0.26575 -6.84736,0.26575c0,0 -3.05012,1.05006 -3.1212,1.05195c-4.52941,0.12082 -4.70571,-2.74047 -4.84921,-5.99647c-0.06831,-1.54964 0.455,-3.96023 1.83456,-4.86965c1.56458,-1.03139 3.83127,-0.65876 6.35913,-0.77017c4.75678,-0.20964 8.88642,1.5735 9.03218,4.8806c0.06416,1.45577 0.20327,4.28681 -2.40811,5.43798z"/></g><path d="M220.90157,215.87092c0,0 7.23416,-26.78691 9.1924,-28.46357c0.57497,-0.49229 10.92189,-0.04146 10.92189,-0.04146l7.91429,39.22487z" fill="#92ff66" fill-rule="nonzero" stroke="#000000" stroke-width="1" stroke-linecap="butt" stroke-linejoin="miter"/><path d="M236.49384,240.21611c-1.60575,-1.19302 -2.25986,-3.39806 -2.15991,-5.05479c0.03057,-0.50678 7.68604,-0.66832 11.11866,-2.06752c2.71266,-1.10573 1.28615,-3.62809 1.82152,-3.22762c0.11104,0.08306 2.41338,0.33854 5.06018,2.71517c1.71769,1.54236 4.07661,5.4665 4.38914,5.75655c0.5514,0.51174 0.17694,2.66529 -3.97455,3.1422c-5.47186,0.62859 -15.2936,-0.54968 -16.25503,-1.26399z" fill="#92ff66" fill-rule="nonzero" stroke="#001026" stroke-width="1.2" stroke-linecap="butt" stroke-linejoin="miter"/><path d="M244.72257,204.9814l-0.15355,-6l23.8,-0.4v6.6" fill="none" fill-rule="nonzero" stroke="#000000" stroke-width="1" stroke-linecap="round" stroke-linejoin="miter"/><path d="M239.96903,219.9814v-15.8h34.4v15.8z" fill="#92ff66" fill-rule="nonzero" stroke="#000000" stroke-width="1" stroke-linecap="butt" stroke-linejoin="miter"/><path d="M252.36903,212.1814c0,2.76142 -2.28335,5 -5.1,5c-2.81665,0 -5.1,-2.23858 -5.1,-5c0,-2.76142 2.28335,-5 5.1,-5c2.81665,0 5.1,2.23858 5.1,5z" fill="#8e8888" fill-rule="nonzero" stroke="#000000" stroke-width="1" stroke-linecap="butt" stroke-linejoin="miter"/><path d="M271.76903,212.1814c0,2.76142 -2.14903,5 -4.8,5c-2.65097,0 -4.8,-2.23858 -4.8,-5c0,-2.76142 2.14903,-5 4.8,-5c2.65097,0 4.8,2.23858 4.8,5z" fill="#8e8888" fill-rule="nonzero" stroke="#000000" stroke-width="1" stroke-linecap="butt" stroke-linejoin="miter"/><path d="M261.36903,215.8814c0,0.71797 -1.79086,1.3 -4,1.3c-2.20914,0 -4,-0.58203 -4,-1.3c0,-0.71797 1.79086,-1.3 4,-1.3c2.20914,0 4,0.58203 4,1.3z" fill="#8e8888" fill-rule="nonzero" stroke="#000000" stroke-width="1" stroke-linecap="butt" stroke-linejoin="miter"/><path d="M229.95579,226.08156c0,0 -2.49763,1.0461 -3.50879,0.77033c-1.07959,-0.29444 -2.77692,-2.48462 -2.77692,-2.48462" fill="none" fill-rule="nonzero" stroke="#001026" stroke-width="1" stroke-linecap="round" stroke-linejoin="miter"/><path d="M244.67008,225.36727c0,0 -2.58743,1.64272 -3.85496,1.74213c-1.14948,0.09015 -3.43075,-1.1707 -3.43075,-1.1707" fill="none" fill-rule="nonzero" stroke="#001026" stroke-width="1" stroke-linecap="round" stroke-linejoin="miter"/><path d="M262.68208,167.84404c-1.91051,13.31465 -14.73914,22.48976 -28.65355,20.49318c-13.9144,-1.99657 -23.64548,-14.40876 -21.73497,-27.72341c1.91051,-13.31465 14.73914,-22.48976 28.65355,-20.49318c13.9144,1.99657 23.64548,14.40876 21.73497,27.72341z" fill="none" fill-rule="nonzero" stroke="#000000" stroke-width="4.5" stroke-linecap="butt" stroke-linejoin="miter"/><path d="M228.17085,188.37926l-29.11596,-4.41394c0,0 -2.33179,-0.6774 -1.86053,-1.52051c1.08063,-1.9333 8.21352,-9.84539 8.21352,-9.84539l-11.00281,-5.59258c0,0 -1.9794,-1.19711 -2.13942,-2.33057c-0.14886,-1.05442 12.45843,-8.70236 12.45843,-8.70236c0,0 -7.67048,-4.74727 -9.60579,-7.02625c-0.75994,-0.8949 12.75407,-6.68449 21.86413,-9.14406c4.45781,-1.20354 10.57326,-3.10174 15.32,-3.1584c7.87042,-0.09394 13.48218,3.02653 13.48218,3.02653" fill="none" fill-rule="nonzero" stroke="#000000" stroke-width="3" stroke-linecap="round" stroke-linejoin="miter"/><path d="M197.20417,183.69975c0,0 -0.32539,-1.46494 1.16616,-3.20358c1.86821,-2.17768 7.61619,-4.63702 6.31452,-7.20944c-1.68618,-3.33232 -14.23295,-4.67053 -12.14947,-8.25798c1.71077,-2.94572 11.66319,-7.03762 11.9574,-9.08804c0.29357,-2.04589 -4.40655,-1.45012 -6.60879,-4.54536c-3.13206,-4.40209 -1.35132,-4.15221 -1.35132,-4.15221c0,0 12.66314,-5.73194 18.64882,-7.34495c5.61591,-1.51336 16.22672,-2.05323 16.22672,-2.05323c0,0 -16.73582,11.48637 -19.98904,19.15071c-3.60623,8.49605 11.13411,29.39699 11.13411,29.39699z" data-paper-data="{&quot;index&quot;:null}" fill="url(#color-1)" fill-rule="nonzero" stroke="none" stroke-width="0" stroke-linecap="butt" stroke-linejoin="miter"/><path d="M237.1808,171.77802c-2.415,0.64633 -3.06133,-1.76867 -3.06133,-1.76867l-0.26087,-1.41317c-0.77092,-1.22414 -0.99032,-2.99236 -2.24346,-3.71518c-0.83744,-0.48303 -1.81934,0.71798 -2.5953,1.29463c-2.01359,1.49639 -3.19551,3.07021 -4.51276,5.18502c0,0 -1.3299,2.11692 -3.44682,0.78701c-2.11692,-1.3299 -0.78701,-3.44682 -0.78701,-3.44682c2.45598,-3.881 7.67651,-10.60767 13.28917,-8.42506c1.54845,0.60215 3.61073,4.21149 4.5224,5.6485l0.86467,2.79241c0,0 0.64633,2.415 -1.76867,3.06133z" fill="#000000" fill-rule="nonzero" stroke="none" stroke-width="0.5" stroke-linecap="butt" stroke-linejoin="miter"/><path d="M254.09725,175.63649c-2.48818,-0.24279 -2.24539,-2.73097 -2.24539,-2.73097l0.05019,-0.01445c-0.17696,-2.03822 0.04563,-2.20749 -0.95005,-3.93639c-0.26036,-0.45208 -0.63903,-0.82483 -0.9535,-1.24109c-0.14461,-0.19142 -0.24946,-0.74679 -0.42366,-0.58182c-2.03553,1.92775 -3.41782,4.45259 -5.29903,6.5312c0,0 -1.67756,1.85359 -3.53115,0.17603c-1.85359,-1.67756 -0.17603,-3.53115 -0.17603,-3.53115c1.05811,-1.16914 6.80698,-7.7005 7.89925,-8.05201c5.57773,-1.79504 8.02937,6.70189 8.40911,10.13543l-0.04878,0.99983c0,0 -0.24279,2.48818 -2.73097,2.24539z" fill="#000000" fill-rule="nonzero" stroke="none" stroke-width="0.5" stroke-linecap="butt" stroke-linejoin="miter"/><path d="M235.33949,181.55984c-0.24597,2.52078 -2.77268,4.33718 -5.64356,4.05704c-2.87089,-0.28013 -4.9988,-2.55071 -4.75283,-5.07149c0.24597,-2.52078 2.77268,-4.33718 5.64356,-4.05704c2.87089,0.28013 4.9988,2.55071 4.75283,5.07149z" fill="#ff0000" fill-rule="nonzero" stroke="#000000" stroke-width="2.5" stroke-linecap="butt" stroke-linejoin="miter"/></g></g></svg>