<svg version="1.1" xmlns="http://www.w3.org/2000/svg" xmlns:xlink="http://www.w3.org/1999/xlink" width="83.7226" height="128.67431" viewBox="0,0,83.7226,128.67431"><defs><linearGradient x1="212.63545" y1="166.13284" x2="190.22206" y2="165.11799" gradientUnits="userSpaceOnUse" id="color-1"><stop offset="0" stop-color="#000000"/><stop offset="1" stop-color="#000000" stop-opacity="0"/></linearGradient><linearGradient x1="239.05907" y1="162.20967" x2="239.05907" y2="164.20967" gradientUnits="userSpaceOnUse" id="color-2"><stop offset="0" stop-color="#008cff"/><stop offset="1" stop-color="#008cff" stop-opacity="0"/></linearGradient><linearGradient x1="249.53046" y1="154.95" x2="249.53046" y2="169.74537" gradientUnits="userSpaceOnUse" id="color-3"><stop offset="0" stop-color="#008cff"/><stop offset="1" stop-color="#008cff" stop-opacity="0"/></linearGradient><linearGradient x1="228.66758" y1="155.09703" x2="228.66758" y2="169.8924" gradientUnits="userSpaceOnUse" id="color-4"><stop offset="0" stop-color="#008cff"/><stop offset="1" stop-color="#008cff" stop-opacity="0"/></linearGradient></defs><g transform="translate(-191.14651,-121.1338)"><g data-paper-data="{&quot;isPaintingLayer&quot;:true}" fill-rule="nonzero" stroke-linejoin="miter" stroke-miterlimit="10" stroke-dasharray="" stroke-dashoffset="0" style="mix-blend-mode: normal"><path d="M235.09479,233.99294l1.18081,-19.73759l10.14361,-1.55174l1.32337,21.21377c0,0 -5.76547,4.16344 -7.31203,4.08354c-1.47978,-0.07645 -5.33575,-4.00798 -5.33575,-4.00798z" fill="#000000" stroke="#0f0f0f" stroke-width="1" stroke-linecap="butt"/><path d="M219.198,234.67212l4.68965,-20.78012l10.4719,0.35773l-2.70394,22.60869c0,0 -6.41679,3.06588 -7.92417,2.71084c-1.44229,-0.33971 -4.53345,-4.89713 -4.53345,-4.89713z" fill="#000000" stroke="#0f0f0f" stroke-width="1" stroke-linecap="butt"/><path d="M261.53765,164.38199c-0.60842,13.43725 -12.48536,23.81485 -26.5279,23.17902c-14.04253,-0.63583 -24.93303,-12.04431 -24.3246,-25.48156c0.60842,-13.43725 12.48536,-23.81485 26.5279,-23.17902c14.04253,0.63583 24.93303,12.04431 24.3246,25.48156z" fill="none" stroke="#000000" stroke-width="4.5" stroke-linecap="butt"/><path d="M229.18391,188.17171l-29.40699,-1.56546c0,0 -2.38655,-0.44775 -1.9994,-1.33264c0.88777,-2.02911 7.21856,-10.59651 7.21856,-10.59651l-11.49393,-4.4976c0,0 -2.0863,-0.99922 -2.35564,-2.11178c-0.25056,-1.03498 11.55441,-9.87113 11.55441,-9.87113c0,0 -8.09526,-3.97991 -10.24274,-6.06017c-0.84326,-0.81687 12.04462,-7.89151 20.87275,-11.22418c4.31986,-1.63077 10.22205,-4.11391 14.94085,-4.63128c7.82409,-0.85784 13.71237,1.7029 13.71237,1.7029" fill="none" stroke="#000000" stroke-width="3" stroke-linecap="round"/><path d="M197.90914,186.52167c0,0 -0.46612,-1.42642 0.84953,-3.30169c1.64789,-2.34882 7.12986,-5.35475 5.58452,-7.7886c-2.00183,-3.15281 -14.61925,-3.26621 -12.89402,-7.03904c1.41661,-3.09794 10.9246,-8.13703 11.01829,-10.20633c0.09349,-2.06473 -4.52655,-1.01532 -7.01898,-3.88206c-3.54477,-4.07711 -1.74818,-4.00135 -1.74818,-4.00135c0,0 12.04662,-6.93463 17.84736,-9.12132c5.44239,-2.0516 15.95062,-3.61939 15.95062,-3.61939c0,0 -15.54121,13.05738 -18.03472,21.00143c-2.76409,8.80611 13.93638,28.17674 13.93638,28.17674z" data-paper-data="{&quot;index&quot;:null}" fill="url(#color-1)" stroke="none" stroke-width="0" stroke-linecap="butt"/><path d="M235.57459,189.53537l-0.98643,15.86593" fill="none" stroke="#000000" stroke-width="6" stroke-linecap="round"/><path d="M218.63923,212.06109c0.22281,-0.2855 4.6742,-0.01737 4.81741,-2.0119c0.1184,-1.64894 -4.03715,-5.4141 -4.14393,-7.25265c-0.09399,-1.61845 1.86598,-6.18398 5.55047,-8.49682c4.39821,-2.76086 10.65885,-3.16166 10.65885,-3.16166c0,0 6.35362,5.27408 9.24559,6.61526c1.81613,0.84225 5.03497,-0.14324 5.03497,-0.14324" fill="none" stroke="#000000" stroke-width="6" stroke-linecap="round"/><path d="M229.47478,244.41893c-0.76847,1.10681 -3.57421,4.79831 -6.00213,4.78916c-2.27266,-0.00857 -4.17301,-3.62515 -4.93373,-5.25712c-1.25725,-2.69714 0.38265,-9.80773 0.41971,-10.54358c0.01207,-0.23972 0.75914,2.57842 2.13407,4.13501c1.02386,1.15914 4.82042,1.47369 6.07253,1.00228c2.038,-0.76728 5.31772,-3.52365 5.29063,-2.98579c0,0 -1.07356,6.1127 -2.98107,8.86005z" fill="#000000" stroke="#001026" stroke-width="1.2" stroke-linecap="butt"/><path d="M245.68568,194.05919c0,0.25467 -1.49235,0.15139 -1.6382,0.90773c-0.16899,0.87627 -0.3786,2.52054 -0.06525,3.74764c0.31453,1.23173 1.15195,2.04464 0.93679,2.04464c-0.93888,0 -2.96667,-1.9182 -2.96667,-4.36667c0,-2.44846 -1.80555,-4.96667 -0.86667,-4.96667c0.16151,0 4.6,2.41951 4.6,2.63333z" fill="#000000" stroke="#0f0f0f" stroke-width="1" stroke-linecap="butt"/><g data-paper-data="{&quot;index&quot;:null}" fill="#000000" stroke="#000000" stroke-width="1.2" stroke-linecap="butt"><path d="M259.53623,204.82148c-1.39652,0.63085 -3.97454,-0.32259 -5.85733,-0.2396c-2.0271,0.08933 -3.22867,1.15938 -4.39897,0.48993c-0.81744,-0.46761 -1.04419,-1.75203 -1.07416,-2.43204c-0.07289,-1.65355 2.65915,-3.11704 6.10215,-3.26879c3.44301,-0.15176 6.29321,1.0657 6.36609,2.71924c0.03303,0.7493 0.01947,2.20849 -1.13776,2.73126z"/><path d="M261.18084,201.84813c-1.95519,0.8619 -6.84736,0.26575 -6.84736,0.26575c0,0 -3.05012,1.05006 -3.1212,1.05195c-4.52941,0.12082 -4.70571,-2.74047 -4.84921,-5.99647c-0.06831,-1.54964 0.455,-3.96023 1.83456,-4.86965c1.56458,-1.03139 3.83127,-0.65876 6.35913,-0.77017c4.75678,-0.20964 8.88642,1.5735 9.03218,4.8806c0.06416,1.45577 0.20327,4.28681 -2.40811,5.43798z"/></g><path d="M222.40164,215.00028c0,0 5.73416,-23.59762 7.6924,-25.17063c0.57497,-0.46186 10.92189,-0.0389 10.92189,-0.0389l5.51429,25.76667z" fill="#000000" stroke="#0f0f0f" stroke-width="1" stroke-linecap="butt"/><path d="M236.49392,240.2161c-1.60575,-1.19302 -1.83129,-4.68377 -1.73134,-6.3405c0.00959,-0.15892 3.31828,0.99327 6.37668,0.84736c0.80439,-0.03838 3.92856,-0.11872 5.18572,-0.89899c1.56114,-0.96894 1.22408,-2.65582 1.52064,-2.43399c0.11104,0.08306 9.05915,4.57512 9.09463,6.96862c0.00573,0.38655 -0.58721,1.52622 -1.62181,2.23772c-0.90442,0.62197 -2.24067,0.846 -2.56948,0.88377c-5.47186,0.62859 -15.2936,-0.54968 -16.25503,-1.26399z" fill="#000000" stroke="#001026" stroke-width="1.2" stroke-linecap="butt"/><path d="M244.72264,204.98139l-0.15355,-6l23.8,-0.4v6.6" fill="none" stroke="#000000" stroke-width="1" stroke-linecap="round"/><path d="M239.96911,219.98139v-15.8h34.4v15.8z" fill="#62ffff" stroke="#000000" stroke-width="1" stroke-linecap="butt"/><path d="M252.36911,212.18139c0,2.76142 -2.28335,5 -5.1,5c-2.81665,0 -5.1,-2.23858 -5.1,-5c0,-2.76142 2.28335,-5 5.1,-5c2.81665,0 5.1,2.23858 5.1,5z" fill="#8e8888" stroke="#000000" stroke-width="1" stroke-linecap="butt"/><path d="M271.76905,212.18139c0,2.76142 -2.14903,5 -4.8,5c-2.65097,0 -4.8,-2.23858 -4.8,-5c0,-2.76142 2.14903,-5 4.8,-5c2.65097,0 4.8,2.23858 4.8,5z" fill="#8e8888" stroke="#000000" stroke-width="1" stroke-linecap="butt"/><path d="M261.36906,215.88139c0,0.71797 -1.79086,1.3 -4,1.3c-2.20914,0 -4,-0.58203 -4,-1.3c0,-0.71797 1.79086,-1.3 4,-1.3c2.20914,0 4,0.58203 4,1.3z" fill="#8e8888" stroke="#000000" stroke-width="1" stroke-linecap="butt"/><path d="M235.77578,155.30967c0,0 2.18612,-0.53038 3.28652,-0.54641c1.18255,-0.01722 3.58008,0.44641 3.58008,0.44641" fill="url(#color-2)" stroke="#705021" stroke-width="2" stroke-linecap="round"/><g stroke="#705021" stroke-width="2" stroke-linecap="butt"><path d="M256.08644,169.45755c-0.20756,0.14491 -12.97424,0.41086 -13.18263,0.22303c-0.46577,-0.41981 -0.88115,-14.14301 -0.57274,-14.53949c0.2116,-0.27203 14.13966,-0.2143 14.31565,-0.06945c0.4431,0.36469 0.04793,13.96129 -0.56028,14.38591z" fill="url(#color-3)"/><path d="M221.55127,155.21866c0.176,-0.14485 14.10405,-0.20257 14.31565,0.06946c0.3084,0.39648 -0.10698,14.11968 -0.57274,14.53949c-0.20839,0.18783 -12.97506,-0.07812 -13.18263,-0.22303c-0.60822,-0.42462 -1.00338,-14.02123 -0.56028,-14.38592z" data-paper-data="{&quot;index&quot;:null}" fill="url(#color-4)"/></g><g><path d="M234.02928,158.54628c0,0 1.33851,3.51457 -0.37243,7.53096c-0.17089,0.40117 -7.29675,0.00544 -7.28186,-0.33399c0.05653,-1.28821 0.46781,-2.62786 0.07637,-5.2636c-0.28353,-1.9092 7.57792,-1.93337 7.57792,-1.93337z" data-paper-data="{&quot;index&quot;:null}" fill="#000000" stroke="none" stroke-width="0" stroke-linecap="butt"/><path d="M233.01751,158.60102l-8.16667,0.16667" fill="none" stroke="#000000" stroke-width="2.5" stroke-linecap="round"/></g><g data-paper-data="{&quot;index&quot;:null}"><path d="M253.62926,158.34628c0,0 1.33852,3.51457 -0.37242,7.53096c-0.17089,0.40117 -7.29675,0.00544 -7.28186,-0.33399c0.05653,-1.28821 0.46781,-2.62785 0.07637,-5.2636c-0.28353,-1.9092 7.57791,-1.93337 7.57791,-1.93337z" data-paper-data="{&quot;index&quot;:null}" fill="#000000" stroke="none" stroke-width="0" stroke-linecap="butt"/><path d="M252.6175,158.40102l-8.16666,0.16666" fill="none" stroke="#000000" stroke-width="2.5" stroke-linecap="round"/></g><path d="M224.28438,199.72066c0,0 0.51399,-0.87233 0.18708,-1.93674c-0.39077,-1.27231 -1.68638,-2.81907 -2.45428,-3.47849c-0.7767,-0.66697 -2.95965,0.94856 -2.95965,0.94856l8.41677,-5.66667c0,0 2.32766,-0.31819 2.76347,0.08887c0.39232,0.36644 -0.26535,2.24447 -0.26535,2.24447z" fill="#000000" stroke="#0f0f0f" stroke-width="1" stroke-linecap="butt"/><path d="M224.13199,231.65725c0,1.00595 -0.70355,1.82143 -1.57143,1.82143c-0.86788,0 -1.57143,-0.81548 -1.57143,-1.82143c0,-1.00595 0.70355,-1.82143 1.57143,-1.82143c0.86788,0 1.57143,0.81548 1.57143,1.82143z" fill="#ff0000" stroke="#0f0f0f" stroke-width="0" stroke-linecap="butt"/><path d="M228.37485,225.97154c0,1.00594 -0.70355,1.82143 -1.57143,1.82143c-0.86787,0 -1.57143,-0.81548 -1.57143,-1.82143c0,-1.00594 0.70355,-1.82143 1.57143,-1.82143c0.86787,0 1.57143,0.81548 1.57143,1.82143z" fill="#ff0000" stroke="#0f0f0f" stroke-width="0" stroke-linecap="butt"/><path d="M226.98913,219.30011c0,1.00594 -0.70355,1.82143 -1.57143,1.82143c-0.86787,0 -1.57143,-0.81548 -1.57143,-1.82143c0,-1.00594 0.70355,-1.82143 1.57143,-1.82143c0.86787,0 1.57143,0.81548 1.57143,1.82143z" fill="#ff0000" stroke="#0f0f0f" stroke-width="0" stroke-linecap="butt"/><path d="M230.91769,231.65725c0,1.00594 -0.70355,1.82143 -1.57143,1.82143c-0.86787,0 -1.57143,-0.81548 -1.57143,-1.82143c0,-1.00594 0.70355,-1.82143 1.57143,-1.82143c0.86787,0 1.57143,0.81548 1.57143,1.82143z" fill="#ff0000" stroke="#0f0f0f" stroke-width="0" stroke-linecap="butt"/><path d="M232.70341,220.30011c0,1.00594 -0.70355,1.82143 -1.57143,1.82143c-0.86787,0 -1.57143,-0.81548 -1.57143,-1.82143c0,-1.00594 0.70355,-1.82143 1.57143,-1.82143c0.86787,0 1.57143,0.81548 1.57143,1.82143z" fill="#ff0000" stroke="#0f0f0f" stroke-width="0" stroke-linecap="butt"/><path d="M241.18456,225.92096c0,0.99411 -0.76112,1.8 -1.7,1.8c-0.93888,0 -1.7,-0.80589 -1.7,-1.8c0,-0.99411 0.76112,-1.8 1.7,-1.8c0.93888,0 1.7,0.80589 1.7,1.8z" fill="#ff0000" stroke="none" stroke-width="0" stroke-linecap="butt"/><path d="M245.58456,223.37096c0,0.91127 -0.76112,1.65 -1.7,1.65c-0.93888,0 -1.7,-0.73873 -1.7,-1.65c0,-0.91127 0.76112,-1.65 1.7,-1.65c0.93888,0 1.7,0.73873 1.7,1.65z" fill="#ff0000" stroke="none" stroke-width="0" stroke-linecap="butt"/><path d="M241.88455,231.12096c0,0.88366 -0.73873,1.6 -1.65,1.6c-0.91127,0 -1.65,-0.71634 -1.65,-1.6c0,-0.88366 0.73873,-1.6 1.65,-1.6c0.91127,0 1.65,0.71634 1.65,1.6z" fill="#ff0000" stroke="none" stroke-width="0" stroke-linecap="butt"/><path d="M239.78456,218.92096c0,0.71797 -0.55964,1.3 -1.25,1.3c-0.69036,0 -1.25,-0.58203 -1.25,-1.3c0,-0.71797 0.55964,-1.3 1.25,-1.3c0.69036,0 1.25,0.58203 1.25,1.3z" fill="#ff0000" stroke="none" stroke-width="0" stroke-linecap="butt"/><path d="M236.2026,173.22044c0,2.76142 -3.10602,11.75 -6.9375,11.75c-3.83148,0 -8.4375,-9.11358 -8.4375,-11.875c0,-0.37293 15.375,-0.19381 15.375,0.125z" fill="#ff0000" stroke="#000000" stroke-width="2.5" stroke-linecap="butt"/><path d="M250.08721,127.13847c0,-0.75 0.75,-0.75 0.75,-0.75l0.87014,0.00968c0.53988,0.1736 1.07903,0.34947 1.61703,0.5288c0,0 0.71151,0.23717 0.47434,0.94868c-0.23717,0.71151 -0.94868,0.47434 -0.94868,0.47434c-0.46202,-0.15401 -0.92322,-0.31053 -1.38297,-0.4712l-0.62986,0.00968c0,0 -0.75,0 -0.75,-0.75z" fill="#ff0000" stroke="none" stroke-width="0.5" stroke-linecap="butt"/><path d="M266.07264,125.36638c0.14709,0.73544 -0.58835,0.88252 -0.58835,0.88252l-0.39998,0.04075c-0.82737,0.46942 -1.42162,0.95778 -2.09177,1.62915c0,0 -0.53033,0.53033 -1.06066,0c-0.53033,-0.53033 0,-1.06066 0,-1.06066c0.76219,-0.76091 1.47244,-1.33277 2.40823,-1.87085l0.85002,-0.20925c0,0 0.73544,-0.14709 0.88252,0.58835z" fill="#ff0000" stroke="none" stroke-width="0.5" stroke-linecap="butt"/><path d="M254.81909,122.8776c0.38587,-0.64312 1.02899,-0.25725 1.02899,-0.25725l0.76946,0.48779c0.20833,0.20833 0.41667,0.41667 0.625,0.625c0,0 0.53033,0.53033 0,1.06066c-0.53033,0.53033 -1.06066,0 -1.06066,0c-0.20833,-0.20833 -0.41667,-0.41667 -0.625,-0.625l-0.48054,-0.26221c0,0 -0.64312,-0.38587 -0.25725,-1.02899z" fill="#ff0000" stroke="none" stroke-width="0.5" stroke-linecap="butt"/><path d="M252.38721,134.48847c-0.6,-0.45 -0.15,-1.05 -0.15,-1.05l0.39883,-0.53014c0.41667,-0.5 0.83333,-1 1.25,-1.5c0,0 0.48014,-0.57617 1.0563,-0.09603c0.57617,0.48014 0.09603,1.0563 0.09603,1.0563c-0.41667,0.5 -0.83333,1 -1.25,1.5l-0.35117,0.46986c0,0 -0.45,0.6 -1.05,0.15z" fill="#ff0000" stroke="none" stroke-width="0.5" stroke-linecap="butt"/><path d="M264.38303,121.55306c0.33541,0.67082 -0.33541,1.00623 -0.33541,1.00623l-0.36689,0.16483c-0.65168,0.51455 -1.00831,1.01239 -1.46948,1.70537c0,0 -0.41603,0.62404 -1.04006,0.20801c-0.62404,-0.41603 -0.20801,-1.04006 -0.20801,-1.04006c0.54293,-0.81306 1.01904,-1.42893 1.78052,-2.04463l0.63311,-0.33517c0,0 0.67082,-0.33541 1.00623,0.33541z" fill="#ff0000" stroke="none" stroke-width="0.5" stroke-linecap="butt"/><path d="M273.11754,138.7938c-0.53033,0.53033 -1.06066,0 -1.06066,0l-0.05508,-0.10951c-0.78512,-0.39295 -1.5895,-0.73262 -2.375,-1.125c0,0 -0.67082,-0.33541 -0.33541,-1.00623c0.33541,-0.67082 1.00623,-0.33541 1.00623,-0.33541c0.78512,0.39295 1.5895,0.73262 2.375,1.125l0.44492,0.39049c0,0 0.53033,0.53033 0,1.06066z" fill="#ff0000" stroke="none" stroke-width="0.5" stroke-linecap="butt"/><path d="M259.72504,142.97498c-0.71151,-0.23717 -0.47434,-0.94868 -0.47434,-0.94868l0.16569,-0.47324c0.41613,-0.82887 0.88176,-1.53384 1.46017,-2.25811c0,0 0.46852,-0.58565 1.05417,-0.11713c0.58565,0.46852 0.11713,1.05417 0.11713,1.05417c-0.51497,0.6425 -0.92268,1.25421 -1.28983,1.99189l-0.08431,0.27676c0,0 -0.23717,0.71151 -0.94868,0.47434z" fill="#ff0000" stroke="none" stroke-width="0.5" stroke-linecap="butt"/><path d="M261.06909,129.7526c0.38587,-0.64312 1.02899,-0.25725 1.02899,-0.25725l0.70765,0.43247c0.20833,0.16667 0.41667,0.33333 0.625,0.5c0,0 0.58565,0.46852 0.11713,1.05417c-0.46852,0.58565 -1.05417,0.11713 -1.05417,0.11713c-0.20833,-0.16667 -0.41667,-0.33333 -0.625,-0.5l-0.54235,-0.31753c0,0 -0.64312,-0.38587 -0.25725,-1.02899z" fill="#ff0000" stroke="none" stroke-width="0.5" stroke-linecap="butt"/><path d="M270.79579,127.42c0.59346,0.45859 0.13488,1.05205 0.13488,1.05205c-0.61145,0.79129 -1.51355,1.95871 -2.125,2.75c0,0 -0.45859,0.59346 -1.05205,0.13488c-0.59346,-0.45859 -0.13488,-1.05205 -0.13488,-1.05205c0.61145,-0.79129 1.2229,-1.58257 1.83434,-2.37386l0.29066,-0.37614c0,0 0.45859,-0.59346 1.05205,-0.13488z" fill="#ff0000" stroke="none" stroke-width="0.5" stroke-linecap="butt"/></g></g></svg>