<svg version="1.1" xmlns="http://www.w3.org/2000/svg" xmlns:xlink="http://www.w3.org/1999/xlink" width="262.1108" height="117.71232" viewBox="0,0,262.1108,117.71232"><defs><linearGradient x1="219.05351" y1="209.08984" x2="237.10091" y2="209.08984" gradientUnits="userSpaceOnUse" id="color-1"><stop offset="0" stop-color="#bebebe"/><stop offset="1" stop-color="#737373"/></linearGradient><linearGradient x1="239.67768" y1="230.21775" x2="272.09585" y2="230.21775" gradientUnits="userSpaceOnUse" id="color-2"><stop offset="0" stop-color="#bebebe"/><stop offset="1" stop-color="#737373"/></linearGradient><linearGradient x1="239.67768" y1="230.21775" x2="272.09585" y2="230.21775" gradientUnits="userSpaceOnUse" id="color-3"><stop offset="0" stop-color="#bebebe"/><stop offset="1" stop-color="#737373"/></linearGradient><linearGradient x1="240.12319" y1="229.90489" x2="268.81516" y2="229.90489" gradientUnits="userSpaceOnUse" id="color-4"><stop offset="0" stop-color="#ffd166"/><stop offset="1" stop-color="#ac880b"/></linearGradient><linearGradient x1="226.89094" y1="220.65092" x2="254.95676" y2="220.65092" gradientUnits="userSpaceOnUse" id="color-5"><stop offset="0" stop-color="#ffd166"/><stop offset="1" stop-color="#ac880b"/></linearGradient><linearGradient x1="226.81401" y1="220.70577" x2="255.46631" y2="220.70577" gradientUnits="userSpaceOnUse" id="color-6"><stop offset="0" stop-color="#ffd166"/><stop offset="1" stop-color="#ac880b"/></linearGradient><linearGradient x1="212.9078" y1="231.44012" x2="240.84509" y2="231.44012" gradientUnits="userSpaceOnUse" id="color-7"><stop offset="0" stop-color="#ffd166"/><stop offset="1" stop-color="#ac880b"/></linearGradient><linearGradient x1="214.14657" y1="239.64292" x2="236.05073" y2="239.64292" gradientUnits="userSpaceOnUse" id="color-8"><stop offset="0" stop-color="#bebebe"/><stop offset="1" stop-color="#737373"/></linearGradient><linearGradient x1="214.14657" y1="239.64292" x2="236.05073" y2="239.64292" gradientUnits="userSpaceOnUse" id="color-9"><stop offset="0" stop-color="#bebebe"/><stop offset="1" stop-color="#737373"/></linearGradient><linearGradient x1="223.3485" y1="211.89566" x2="254.92229" y2="211.89566" gradientUnits="userSpaceOnUse" id="color-10"><stop offset="0" stop-color="#bebebe"/><stop offset="1" stop-color="#737373"/></linearGradient><linearGradient x1="260.21204" y1="212.78104" x2="265.25955" y2="199.99881" gradientUnits="userSpaceOnUse" id="color-11"><stop offset="0" stop-color="#bb951b"/><stop offset="1" stop-color="#d6ad39"/></linearGradient><linearGradient x1="250.53342" y1="209.22425" x2="255.27137" y2="197.22605" gradientUnits="userSpaceOnUse" id="color-12"><stop offset="0" stop-color="#bebebe"/><stop offset="1" stop-color="#737373"/></linearGradient><linearGradient x1="257.13034" y1="208.28521" x2="259.39177" y2="202.55841" gradientUnits="userSpaceOnUse" id="color-13"><stop offset="0" stop-color="#bb951b"/><stop offset="1" stop-color="#d6ad39"/></linearGradient><linearGradient x1="258.40333" y1="208.27848" x2="260.3375" y2="203.38043" gradientUnits="userSpaceOnUse" id="color-14"><stop offset="0" stop-color="#bb951b"/><stop offset="1" stop-color="#d6ad39"/></linearGradient><linearGradient x1="256.39874" y1="208.74329" x2="256.79104" y2="207.74984" gradientUnits="userSpaceOnUse" id="color-15"><stop offset="0" stop-color="#bb951b"/><stop offset="1" stop-color="#d6ad39"/></linearGradient><linearGradient x1="255.93863" y1="209.09718" x2="256.32203" y2="208.12621" gradientUnits="userSpaceOnUse" id="color-16"><stop offset="0" stop-color="#bb951b"/><stop offset="1" stop-color="#d6ad39"/></linearGradient></defs><g transform="translate(-123.68071,-144.81599)"><g data-paper-data="{&quot;isPaintingLayer&quot;:true}" stroke-miterlimit="10" stroke-dasharray="" stroke-dashoffset="0" style="mix-blend-mode: normal"><path d="M240.34751,206.17717c0,0 11.77698,1.82089 16.28993,2.8477c3.51344,0.79939 14.31233,3.39849 14.31233,3.39849" fill="none" fill-rule="nonzero" stroke="#000000" stroke-width="6" stroke-linecap="round" stroke-linejoin="miter"/><path d="M237.10091,208.2527c0,2.4641 -3.22379,4.46165 -7.20056,4.46165c-2.11857,0 -5.90563,1.68326 -8.23456,0.47339c-2.04269,-1.06118 -2.64043,-4.20006 -2.41848,-4.86344c0.69236,-2.06928 7.57133,-3.76985 9.92991,-3.76985c3.97676,0 7.92369,1.23416 7.92369,3.69825z" fill="url(#color-1)" fill-rule="nonzero" stroke="#737373" stroke-width="1" stroke-linecap="butt" stroke-linejoin="miter"/><g><g><g stroke-width="1.2"><path d="M253.70788,218.71846c0,0 9.31693,7.88174 10.69852,10.88193c0.94272,2.04713 -3.0297,5.37288 -3.0297,5.37288c0,0 10.05817,-0.12212 10.71013,4.37445c0.03717,0.25635 0.14297,1.5179 -3.99199,2.04648c-3.96044,0.50627 -12.09998,0.2877 -15.0756,0.20018c-1.38203,-0.04065 -3.53979,-0.36608 -5.00535,-1.00853c-1.47557,-0.64685 -1.5335,-1.66747 -1.64639,-2.23854c-0.01498,-0.07577 4.21694,-6.65635 3.90634,-7.51095c-0.15624,-0.42986 -10.59616,-10.89469 -10.59616,-10.89469" fill="url(#color-2)" fill-rule="evenodd" stroke="url(#color-3)" stroke-linecap="round" stroke-linejoin="round"/><path d="M240.16403,223.65482c-0.66816,-4.60824 7.02696,-4.98283 11.05283,-5.09488c1.7506,-0.04872 11.55627,5.25875 15.41974,9.70538c1.01235,1.16515 0.71038,4.13522 0.62347,5.54987c-0.03055,0.49706 -1.05666,-0.14195 -1.05666,-0.14195c0,0 1.12648,0.51746 1.6176,0.98968c0.50691,0.48742 0.99419,1.25915 0.99419,1.25915l-3.01106,-0.57303c0,0 -10.3318,0.10235 -14.04746,1.68979c-3.71565,1.58745 -1.19482,4.21136 -1.19482,4.21136c0,0 -7.71403,-0.22128 -8.6907,-2.03789c-0.24078,-0.44784 0.67084,-1.84284 0.67084,-1.84284c0,0 -0.85514,0.10965 -0.94593,-0.20335c-0.02945,-0.10152 3.68123,-3.50495 5.72372,-5.3053c1.16773,-1.02931 1.1786,-0.92184 1.1786,-0.92184c0,0 -8.2381,-6.62017 -8.33438,-7.28414z" fill="url(#color-4)" fill-rule="nonzero" stroke="#caa551" stroke-linecap="butt" stroke-linejoin="miter"/></g><path d="M226.89103,219.60869c-0.01426,-0.13551 1.73548,0.264 5.70032,0.31018c5.23064,0.06092 13.24119,-0.21161 15.4937,-0.35105c5.84115,-0.36158 6.82962,-1.32403 6.86744,-0.96483c0.13994,1.32926 -3.16401,3.79152 -9.84624,3.92657c-2.93652,0.05935 -8.94279,0.50447 -12.34402,0.03648c-4.33845,-0.59695 -5.79275,-2.21226 -5.8712,-2.95736z" fill="url(#color-5)" fill-rule="nonzero" stroke="#caa551" stroke-width="1.2" stroke-linecap="butt" stroke-linejoin="miter"/><g fill-rule="nonzero" stroke-linecap="butt" stroke-linejoin="miter"><g fill="none" stroke="none" stroke-width="1" font-family="sans-serif" font-weight="normal" font-size="12" text-anchor="start"/><path d="M226.93293,217.92392c0,0 12.12392,1.6507 17.83059,2.01751c5.70666,0.36681 10.70279,-0.18344 10.70279,-0.18344c0,0 -0.39969,1.28946 -3.3756,2.37279c-2.30353,0.83856 -6.43389,1.59154 -11.33139,1.28841c-4.46175,-0.27616 -9.2903,-1.01599 -11.45976,-2.02067c-3.28825,-1.52282 -2.36664,-3.47458 -2.36664,-3.47458z" fill="url(#color-6)" stroke="#caa551" stroke-width="1.2"/></g><g stroke-width="1.2"><path d="M238.29549,222.04206c0,0 -4.58184,19.17755 -5.41792,19.24085c-2.39937,0.18165 -15.54809,-1.44493 -15.54809,-1.44493l8.45195,-19.28125" data-paper-data="{&quot;index&quot;:null}" fill="#ffab19" fill-rule="evenodd" stroke="#001026" stroke-linecap="round" stroke-linejoin="round"/><path d="M240.32049,221.73289c0,0 0.76411,5.26051 0.44797,7.41074c-0.19392,1.31896 -2.9729,5.8085 -2.9729,5.8085c0,0 1.14692,3.11497 0.69394,3.39794c-0.58201,0.36359 -2.39475,-1.5153 -2.39475,-1.5153c0,0 1.86608,2.15407 1.91649,2.36878c0.35173,1.49809 -1.25347,3.46536 -5.45981,3.65227c-4.61829,0.2052 -12.27475,0.43697 -16.22171,-0.74825c-3.57326,-1.07299 -3.69995,-3.50763 -3.22019,-4.50735c0.3369,-0.70205 2.71519,-1.08028 3.19674,-1.94338c0.3202,-0.5739 -3.55839,2.0346 -2.8574,1.26952c0.2038,-0.22243 3.06543,-3.72556 3.06543,-3.72556c0,0 0.4247,-3.254 1.2255,-4.45899c3.21572,-4.83877 7.10939,-8.884 7.10939,-8.884" data-paper-data="{&quot;index&quot;:null}" fill="url(#color-7)" fill-rule="evenodd" stroke="#caa551" stroke-linecap="round" stroke-linejoin="round"/><path d="M236.04254,240.08726c-0.11577,1.07681 -1.06011,2.3279 -3.1098,2.97756c-2.05731,0.65205 -14.42179,0.39365 -16.33327,-0.40326c-1.81527,-0.7568 -2.55471,-2.15558 -2.44173,-3.20653c0.23196,-2.1576 5.31907,-3.76518 11.3624,-3.59059c6.0433,0.17459 10.75436,2.06522 10.52237,4.22283z" fill="url(#color-8)" fill-rule="nonzero" stroke="url(#color-9)" stroke-linecap="butt" stroke-linejoin="miter"/></g></g><g fill="none" fill-rule="nonzero" stroke="none" stroke-width="1" stroke-linecap="butt" stroke-linejoin="miter" font-family="sans-serif" font-weight="normal" font-size="12" text-anchor="start"/></g><path d="M207.12759,241.26608l23.76805,-29.33097" fill="none" fill-rule="nonzero" stroke="#000000" stroke-width="6" stroke-linecap="round" stroke-linejoin="miter"/><path d="M231.99572,218.55281c0,0 3.66238,-5.90432 3.2014,-7.71528c-0.11275,-0.44294 -3.17419,6.95078 -3.67279,6.52776c-2.37766,-2.01725 -8.17583,-3.67243 -8.17583,-3.67243c0,0 9.21707,-6.14447 13.10855,-8.92755c1.07448,-0.76844 5.65015,-0.70239 5.94979,-0.937c0.38698,-0.30301 20.96558,-0.20793 20.96558,-0.20793c0,0 -4.67973,4.4782 -4.72311,7.62246c-0.00031,0.02234 -8.75581,-0.80047 -8.76064,-0.45021c-0.02895,2.09839 -3.36245,7.9158 -3.36245,7.9158c0,0 -1.42512,1.0218 -4.23614,1.06887c-3.09887,0.05189 -10.29437,-1.22445 -10.29437,-1.22445z" fill="url(#color-10)" fill-rule="nonzero" stroke="#737373" stroke-width="2.5" stroke-linecap="butt" stroke-linejoin="miter"/><g stroke-linejoin="miter"><g data-paper-data="{&quot;index&quot;:null}" stroke-linecap="butt"><path d="M272.46522,186.37225c-4.13875,12.67317 -19.05078,19.68947 -33.30698,15.67137c-14.25618,-4.01811 -22.45798,-17.54905 -18.31921,-30.22223c4.13875,-12.67317 19.05078,-19.68947 33.30698,-15.67137c14.25618,4.01811 22.45798,17.54905 18.31921,30.22223z" fill="none" fill-rule="nonzero" stroke="#000000" stroke-width="4.5"/><g><g fill-rule="nonzero"><path d="M236.2028,159.96967l-0.00911,-0.0109" data-paper-data="{&quot;index&quot;:null}" fill="#ffab19" stroke="#000000" stroke-width="5"/><g data-paper-data="{&quot;index&quot;:null}" fill="none" stroke="none" stroke-width="1" font-family="sans-serif" font-weight="normal" font-size="12" text-anchor="start"/></g><path d="M236.2028,159.96967l-0.00911,-0.0109" data-paper-data="{&quot;index&quot;:null}" fill="#ffab19" fill-rule="nonzero" stroke="#000000" stroke-width="5"/><path d="M245.98064,180.16585" fill="#001026" fill-rule="evenodd" stroke="#000000" stroke-width="5"/><g data-paper-data="{&quot;index&quot;:null}" fill="none" fill-rule="nonzero" stroke="none" stroke-width="1" font-family="sans-serif" font-weight="normal" font-size="12" text-anchor="start"/><g data-paper-data="{&quot;index&quot;:null}" fill="none" fill-rule="nonzero" stroke="none" stroke-width="1" font-family="sans-serif" font-weight="normal" font-size="12" text-anchor="start"/></g></g><path d="M263.10177,163.74823l-39.47422,8.58067l-4.61507,13.1399l-4.63833,-24.32105l44.74126,-14.52977l11.29497,19.58833z" fill="#000000" fill-rule="nonzero" stroke="#191919" stroke-width="3" stroke-linecap="round"/><path d="M228.14652,167.98022l22.37614,9.99174l-0.85242,4.71219" fill="none" fill-rule="nonzero" stroke="#000000" stroke-width="5" stroke-linecap="round"/><path d="M257.92404,184.62211l-0.11397,-5.3074l18.67413,-12.77006" fill="none" fill-rule="nonzero" stroke="#000000" stroke-width="5" stroke-linecap="round"/></g><path d="M264.51855,193.87841c-0.87325,5.62272 -12.07247,12.25393 -19.05012,9.34131c-6.97762,-2.9126 -11.79596,-3.62416 -10.92271,-9.24688c0.10229,-0.65872 29.97283,-0.09443 29.97283,-0.09443z" fill="#ff0000" fill-rule="nonzero" stroke="#000000" stroke-width="3" stroke-linecap="butt" stroke-linejoin="miter"/><g fill-rule="nonzero" stroke-linecap="butt" stroke-linejoin="miter"><g data-paper-data="{&quot;index&quot;:null}" stroke="none" stroke-width="1"><path d="M256.46521,209.32818c-0.15502,0.16256 -0.30438,0.14466 -0.47358,0.09235c-0.25869,-0.10432 -0.48736,-0.26002 -0.73597,-0.38154c-0.07481,0.02544 -0.14963,0.05086 -0.20951,0.08494c-1.30754,0.66422 -2.60287,0.69262 -3.90238,0.48894c-0.27383,-0.04424 -0.55775,-0.07134 -0.79636,-0.20992c-0.04473,-0.02601 -0.11442,-0.04351 -0.16432,-0.02653c-0.27433,0.09326 -0.46825,-0.01933 -0.68709,-0.12349c-0.189,-0.08679 -0.35798,-0.20788 -0.53695,-0.31184c-0.1044,-0.06063 -0.18877,-0.15554 -0.20324,-0.30171c-0.01443,-0.14614 -0.10368,-0.26687 -0.17804,-0.37889c-0.49613,-0.58663 -0.87739,-1.26723 -1.15377,-2.0247c-0.14794,-0.43035 -0.20621,-0.87745 -0.25441,-1.34167c-0.13976,-1.36695 0.10898,-2.71492 0.64158,-4.0358c0.24616,-0.59178 0.5769,-1.15739 0.96728,-1.68836c0.2953,-0.40248 0.675,-0.71009 1.05956,-0.9919c1.22366,-0.89665 2.55512,-1.29436 3.94509,-1.31368c0.26405,-0.00736 0.52787,0.05398 0.7917,0.11536c0.17922,0.03518 0.35356,0.04458 0.54328,-0.07482c0.16478,-0.11092 0.3391,-0.10154 0.50828,-0.04921c0.25869,0.10432 0.49733,0.24292 0.73598,0.38154c0.07458,0.04332 0.11422,0.11226 0.15382,0.1812c0.11861,0.27551 0.31227,0.45687 0.54092,0.6126c0.49712,0.31166 0.86414,0.77739 1.24119,1.22598c0.1389,0.17253 0.26777,0.36212 0.36171,0.57739c0.31646,0.6889 0.59308,1.37765 0.68999,2.16866c0.22371,0.12993 0.45235,0.28568 0.69101,0.42424c0.08951,0.05198 0.1939,0.11262 0.1934,0.25009c0.00954,0.12034 0.10907,0.1552 0.19856,0.20714c0.58659,0.3636 1.1832,0.71011 1.76979,1.07372c1.31743,0.7881 2.64982,1.58478 3.94721,2.40713c1.26757,0.80503 2.56523,1.55859 3.85283,2.32936c0.20883,0.12127 0.38266,0.26816 0.59147,0.38941c1.01426,0.58902 2.02849,1.17806 3.03272,1.78421c0.17898,0.10394 0.378,0.17363 0.48191,0.37175c0.03964,0.06893 0.1242,0.0951 0.19877,0.13842c0.74581,0.43308 1.49645,0.89201 2.24223,1.32512c0.02983,0.01733 0.07455,0.04333 0.1044,0.06063c0.24869,0.12144 0.29784,0.31073 0.26193,0.61133c-0.12799,1.0048 -0.5296,1.89661 -1.2048,2.6755c-0.17505,0.19683 -0.37989,0.37632 -0.60457,0.52138c-0.16478,0.11092 -0.32419,0.1102 -0.48335,0.04073c-0.47753,-0.20846 -0.96508,-0.39975 -1.45753,-0.61686c-0.3482,-0.15629 -0.69126,-0.35552 -1.06949,-0.46038c-0.82619,-0.22725 -1.54703,-0.66883 -2.34313,-0.94745c-0.4428,-0.1653 -0.89077,-0.28769 -1.32357,-0.47014c-0.4626,-0.19977 -0.93036,-0.35662 -1.38807,-0.53056c-0.83085,-0.32179 -1.65657,-0.68654 -2.49743,-0.99117c-1.11956,-0.37468 -2.19915,-0.81793 -3.27863,-1.26116c-0.37314,-0.14783 -0.74622,-0.29557 -1.11937,-0.44341c-0.57708,-0.24326 -1.16899,-0.49521 -1.74602,-0.73849c-0.31837,-0.13895 -0.64185,-0.23499 -0.9602,-0.37391c-0.34334,-0.1305 -0.62667,-0.29506 -0.97487,-0.45136zM256.50694,208.77845c0.20976,-0.1537 0.38971,-0.32472 0.53492,-0.53885c0.39481,-0.36769 0.69526,-0.81313 0.99569,-1.25859c0.38551,-0.55678 0.72138,-1.16532 1.04723,-1.75676c0.37595,-0.67713 0.57271,-1.38943 0.76457,-2.12758c0.01025,-0.08589 0.02052,-0.17177 0.0359,-0.30057c-0.1193,-0.06932 -0.23866,-0.13856 -0.35796,-0.20786c-0.02983,-0.01733 -0.06968,-0.01752 -0.12444,-0.02635c-0.07017,0.11996 -0.12541,0.24862 -0.16574,0.38593c-0.07552,0.23167 -0.17087,0.42885 -0.24639,0.66049c-0.21118,0.56617 -0.56661,1.07158 -0.82254,1.61174c-0.14543,0.28292 -0.26106,0.58309 -0.43633,0.84868c-0.39552,0.57393 -0.7165,1.19112 -1.17167,1.73035c-0.12006,0.13694 -0.25006,0.29102 -0.37015,0.42796c-0.1296,0.01658 -0.17993,0.17105 -0.25989,0.23941c-0.10488,0.07685 -0.20978,0.15372 -0.30507,0.35089c0.26405,-0.00736 0.4279,0.15666 0.64697,0.19205c0.06504,-0.07703 0.1946,-0.09363 0.23493,-0.23095zM257.4149,208.38743c-0.36478,0.31625 -0.43978,0.41041 -0.54028,0.65058c0.189,0.08679 0.36312,0.16494 0.55212,0.25176c0.1044,0.06063 0.21907,0.03543 0.32398,-0.04147c0.06996,-0.05126 0.12002,-0.13693 0.18994,-0.18818c0.25477,-0.19646 0.46988,-0.46188 0.61533,-0.74475c0.14472,-0.07669 0.22493,-0.21376 0.30511,-0.3509c0.46592,-0.76262 0.93673,-1.49949 1.32811,-2.30542c0.17063,-0.36013 0.32635,-0.72891 0.4571,-1.0892c0.09069,-0.29177 0.19139,-0.60064 0.13267,-0.91027c-0.19393,-0.11261 -0.38781,-0.22517 -0.58173,-0.33782c-0.05036,0.15442 -0.0907,0.29176 -0.121,0.41189c-0.16133,0.5492 -0.35244,1.08109 -0.60326,1.57834c-0.31607,0.643 -0.70673,1.24272 -1.08244,1.8511c-0.1704,0.2914 -0.42023,0.51368 -0.5757,0.8137c-0.1946,0.09363 -0.30976,0.25635 -0.39995,0.4106zM275.25856,215.90291c0.2298,-0.18798 0.38505,-0.41925 0.51044,-0.66786c0.02491,-0.00846 0.05991,-0.03411 0.06993,-0.05127c0.22563,-0.42002 0.42143,-0.85736 0.50768,-1.3124c0.05574,-0.26616 0.12635,-0.5236 0.06249,-0.79025c-0.83528,-0.48508 -1.67053,-0.97011 -2.55054,-1.48124c-0.07649,0.50663 -0.24242,0.96135 -0.42331,1.4073c-0.15082,0.39461 -0.39602,0.71141 -0.57667,1.08866c-0.08016,0.13711 -0.16523,0.24845 -0.24542,0.38558c-0.19483,0.16234 -0.36988,0.3592 -0.53514,0.60761c0.44748,0.25987 0.94529,0.36528 1.38298,0.57353c0.46261,0.19978 0.93527,0.38242 1.38295,0.57351c0.1946,-0.09363 0.30463,-0.2134 0.41463,-0.33323zM272.01004,214.59034c0.1447,-0.07671 0.23984,-0.20515 0.31998,-0.34224c0.13986,-0.10246 0.21517,-0.26541 0.32027,-0.41098c0.29553,-0.47128 0.51652,-0.98584 0.69762,-1.50056c0.10069,-0.30887 0.17155,-0.63511 0.1627,-0.96165c-0.05966,-0.03466 -0.1093,-0.08643 -0.16898,-0.12106c-0.73087,-0.42449 -1.44677,-0.84024 -2.16762,-1.2818c-0.76558,-0.46756 -1.51624,-0.92646 -2.28182,-1.39404c-1.12357,-0.67544 -2.22213,-1.35942 -3.34572,-2.03485c-1.24776,-0.77056 -2.5107,-1.48101 -3.73839,-2.28586c-0.19878,-0.13842 -0.43257,-0.25116 -0.65629,-0.38113c-0.05057,0.22317 -0.0613,0.44653 -0.14172,0.65239c-0.21655,0.67786 -0.53263,1.32087 -0.8785,1.94658c-0.3207,0.54845 -0.65637,1.08828 -0.99202,1.6281c-0.16015,0.20551 -0.2953,0.40251 -0.45544,0.608c-0.16966,0.08512 -0.23004,0.25672 -0.34005,0.37652c-0.12006,0.13694 -0.25988,0.2394 -0.34519,0.41947c0.12911,0.1209 0.2685,0.15593 0.3829,0.1994c0.99029,0.32251 1.91526,0.79085 2.87545,1.16477c0.61692,0.24346 1.23381,0.48694 1.86073,0.71321c0.83085,0.32179 1.65677,0.61777 2.4727,0.93087c0.67167,0.25227 1.34335,0.5046 2.00498,0.77407c0.71642,0.27832 1.40787,0.56509 2.11428,0.8605c0.64671,0.26077 1.30839,0.53021 1.98005,0.78252c0.10509,-0.14558 0.25474,-0.19647 0.32001,-0.34224zM255.37084,197.25856c-0.08626,0.455 -0.23709,0.84964 -0.37296,1.25287c-0.14592,0.4204 -0.26687,0.8323 -0.42772,1.244c-0.15083,0.3946 -0.3415,0.78903 -0.50725,1.17492c-0.17577,0.40309 -0.35151,0.80614 -0.55216,1.21766c-0.18065,0.37723 -0.38625,0.76299 -0.5669,1.14026c-0.20559,0.38572 -0.47083,0.73685 -0.61676,1.15723c-0.29993,0.30794 -0.46079,0.71968 -0.68616,1.07098c-0.25032,0.35972 -0.48085,0.75399 -0.73118,1.11373c-0.2403,0.34259 -0.50557,0.69368 -0.76078,1.02763c-0.26526,0.3511 -0.58016,0.65038 -0.80059,1.02744c0.33793,0.24217 0.44232,0.3028 0.79098,0.3216c0.19483,-0.16234 0.38973,-0.32474 0.57475,-0.5387c0.21514,-0.26539 0.43026,-0.53075 0.67035,-0.80464c0.4452,-0.52211 0.86541,-1.03579 1.21621,-1.63567c0.24055,-0.41136 0.46616,-0.8314 0.7664,-1.2081c0.06504,-0.07703 0.12516,-0.17987 0.15545,-0.30001c0.0755,-0.23166 0.22076,-0.44582 0.34099,-0.6515c0.44101,-0.75415 0.79249,-1.56028 1.11904,-2.35797c0.45197,-1.04629 0.77948,-2.11891 1.0622,-3.21751c0.06548,-0.21451 0.131,-0.42903 0.07691,-0.64408c-0.20368,-0.16423 -0.43746,-0.27703 -0.75088,-0.39018zM249.54685,203.15227c0.11373,0.24971 0.26754,0.4309 0.41134,0.6292c0.11393,0.181 0.28292,0.30207 0.50201,0.33746c0.40318,0.09639 0.79124,0.25284 1.13917,0.47791c0.02983,0.01733 0.08458,0.02621 0.09951,0.03486c0.09483,-0.05971 0.13491,-0.12828 0.14031,-0.23998c-0.00487,-0.02578 -0.0247,-0.06026 -0.03962,-0.06893c-0.40249,-0.30262 -0.78489,-0.63952 -1.1473,-1.01071c-0.04963,-0.05181 -0.12911,-0.1209 -0.20883,-0.12126c-0.27874,-0.07005 -0.55746,-0.14006 -0.8966,-0.0385zM251.19769,205.48862c-0.37265,-0.28528 -0.71032,-0.59621 -1.02307,-0.9156c-0.09929,-0.10353 -0.2137,-0.14707 -0.3631,-0.16492c-0.22908,-0.01822 -0.44842,0.0151 -0.68266,0.0398c-0.07971,-0.00037 -0.1743,-0.00941 -0.20463,0.11077c0.20346,0.23297 0.38199,0.4744 0.60545,0.67307c0.79684,0.07242 0.79682,0.07243 1.52277,0.47105c0.07482,-0.02543 0.12982,-0.08534 0.1452,-0.21417zM255.13983,202.1298c0.22838,0.22449 0.46682,0.43184 0.70523,0.63917c0.04964,0.05182 0.09929,0.10356 0.16896,0.12107c0.30877,0.01863 0.60759,0.05434 0.92178,-0.0387c-0.05871,-0.30962 -0.25238,-0.49097 -0.40107,-0.7151c-0.07432,-0.11204 -0.17388,-0.14687 -0.30835,-0.15608c-0.31882,-0.00149 -0.61763,-0.03724 -0.92124,-0.09881c-0.01491,-0.00866 -0.04987,0.01692 -0.09972,0.0339c-0.01515,0.06007 -0.04035,0.13735 -0.06549,0.21453zM251.50654,199.6984c0.10836,0.36141 0.27195,0.59419 0.42553,0.84408c0.06944,0.08627 0.15403,0.1124 0.23864,0.13858c0.41812,0.10503 0.80615,0.26157 1.16903,0.49524c0.04473,0.026 0.0995,0.03485 0.14424,0.0608c0.12517,-0.17988 0.13031,-0.22282 0.01097,-0.2921c-0.38784,-0.22523 -0.71057,-0.52748 -0.95341,-0.8981c-0.14868,-0.22412 -0.33769,-0.31092 -0.58171,-0.33783c-0.14453,0.00791 -0.26408,0.00734 -0.4533,-0.01071zM252.39526,203.4748c0.05008,-0.08571 0.00042,-0.13749 -0.05922,-0.17215c-0.41761,-0.24255 -0.74017,-0.61351 -1.06271,-0.98454c-0.268,-0.29338 -0.65115,-0.42407 -1.12962,-0.35754c0.06408,0.19793 0.20321,0.30171 0.28734,0.46536c0.18317,0.33598 0.46656,0.50053 0.80497,0.60525c0.36822,0.122 0.7465,0.22689 1.05459,0.45171c0.05477,0.00882 0.07973,0.0004 0.10466,-0.0081zM250.81994,200.90673c0.11884,0.20679 0.18804,0.3618 0.26728,0.49964c0.12377,0.23257 0.29272,0.35367 0.54161,0.40639c0.34353,0.06174 0.66189,0.2007 0.97021,0.35677c0.11446,0.04351 0.23376,0.1128 0.33815,0.17341c0.06504,-0.07703 0.03032,-0.12013 0.00047,-0.13746c-0.38246,-0.33688 -0.75484,-0.69092 -1.07224,-1.1049c-0.06455,-0.06044 -0.11421,-0.11223 -0.19879,-0.1384c-0.25893,-0.03557 -0.50783,-0.08829 -0.84668,-0.05548zM255.62211,200.96339c0.32349,0.09602 0.56188,0.30337 0.81032,0.49358c0.07458,0.04331 0.10417,0.12939 0.19878,0.1384c0.14942,0.01787 0.50832,-0.04922 0.75283,-0.15978c-0.079,-0.20663 -0.23794,-0.34482 -0.36191,-0.5087c-0.10419,-0.12939 -0.23351,-0.18153 -0.40295,-0.16513c-0.28897,0.01583 -0.55794,-0.00259 -0.82666,-0.08977c-0.01492,-0.00868 -0.06479,0.00832 -0.08971,0.01678c-0.05501,0.05992 -0.09511,0.12845 -0.08064,0.27461zM253.17884,207.39682c0.26894,0.0184 0.51249,0.18284 0.7966,0.14119c0.05524,-0.12864 0.01074,-0.22339 -0.00883,-0.32659c-0.04919,-0.18928 -0.05847,-0.37834 -0.17243,-0.55933c-0.32861,-0.0531 -0.60689,-0.2606 -0.94038,-0.33947c-0.09483,0.05971 -0.14498,0.1454 -0.16524,0.24843c0.19345,0.25009 0.35192,0.52581 0.49033,0.83579zM254.08143,204.24738c0.12911,0.1209 0.25821,0.24182 0.3125,0.38813c0.13327,0.35292 0.3969,0.48302 0.73062,0.49315c0.11953,0.00056 0.20904,0.05255 0.3587,0.00169c-0.04895,-0.25804 -0.14284,-0.4733 -0.23679,-0.68853c-0.0247,-0.06028 -0.08438,-0.09489 -0.16896,-0.12107c-0.26384,-0.06135 -0.50271,-0.1312 -0.76651,-0.19259c-0.04473,-0.02601 -0.12447,-0.02635 -0.22959,0.11926zM253.45005,205.32716c0.28806,0.25912 0.52619,0.53522 0.63457,0.89663c0.01468,0.07739 0.08437,0.0949 0.14403,0.12953c0.14426,0.06082 0.29856,0.10451 0.4929,0.07961c-0.0685,-0.36125 -0.18714,-0.63678 -0.32066,-0.92094c-0.0445,-0.09472 -0.10903,-0.15519 -0.20858,-0.19001c-0.18409,-0.06105 -0.35824,-0.13914 -0.54234,-0.20015c-0.01492,-0.00868 -0.06481,0.0083 -0.08973,0.01676c-0.03007,0.05141 -0.06014,0.10285 -0.11022,0.18854zM252.99915,198.82018c-0.18923,-0.01805 -0.39341,-0.04482 -0.58267,-0.06288c-0.02491,0.00846 -0.0499,0.01696 -0.09974,0.03391c0.02397,0.2665 0.14285,0.47331 0.26679,0.63715c0.53256,0.14853 1.03523,0.27975 1.54238,0.57428c-0.09833,-0.37855 -0.40715,-0.39714 -0.57097,-0.56116c-0.20858,-0.19001 -0.3822,-0.40562 -0.55582,-0.62124zM249.04853,203.18438c-0.2792,0.06745 -0.5384,0.10066 -0.78309,0.27995c0.06431,0.12919 0.08879,0.25821 0.14823,0.36159c0.05945,0.10337 0.10882,0.2239 0.21327,0.28452c0.16429,0.02651 0.32395,-0.04148 0.47847,-0.06654c0.15451,-0.0251 0.30393,-0.00718 0.45867,-0.10098c-0.16852,-0.25857 -0.33206,-0.49134 -0.51548,-0.75859zM250.58608,206.60288c-0.40737,-0.32841 -0.75023,-0.59637 -1.093,-0.86434c-0.02983,-0.01733 -0.06455,-0.06049 -0.11444,-0.04351c-0.23422,0.02471 -0.47825,-0.0022 -0.71292,0.15997c0.16872,0.18984 0.32255,0.37101 0.4864,0.53504c0.47336,-0.02358 0.91636,0.07297 1.434,0.21286zM256.15966,204.00778c-0.01422,-0.2149 -0.14332,-0.33578 -0.22253,-0.47365c-0.08411,-0.16366 -0.1983,-0.27589 -0.40247,-0.3026c-0.27383,-0.04424 -0.54769,-0.08847 -0.76633,-0.26135c-0.1,0.10267 -0.12517,0.17988 -0.03567,0.23185c0.21369,0.14705 0.44232,0.30281 0.57609,0.51824c0.20322,0.3017 0.50717,0.29455 0.85093,0.28751zM254.83929,205.514c0.12327,0.37008 0.20694,0.67121 0.3006,0.9552c0.1044,0.06063 0.19414,0.04388 0.27382,0.04423c0.08973,-0.01676 0.19923,0.00092 0.29923,-0.10172c-0.00907,-0.25788 -0.058,-0.51584 -0.13183,-0.76539c-0.22395,-0.06117 -0.44304,-0.09657 -0.74182,-0.13234zM257.14366,203.24757c-0.31392,0.02431 -0.58802,0.04886 -0.87699,0.06467c0.12374,0.23258 0.2326,0.45653 0.34139,0.68044c0.26405,-0.00736 0.49318,0.01089 0.74763,-0.11685c-0.04402,-0.2322 -0.13307,-0.42168 -0.21206,-0.62827zM249.05231,202.08443c-0.03079,0.25764 0.13307,0.42168 0.22205,0.61115c0.0247,0.06028 0.10928,0.08644 0.1741,0.07813c0.20929,-0.0162 0.39364,-0.02393 0.58802,-0.04878c0.01491,0.00866 0.03497,-0.02564 0.05503,-0.05992c-0.13864,-0.24127 -0.30228,-0.47396 -0.44091,-0.71525c-0.19924,-0.00094 -0.39875,0.06689 -0.59826,0.13474zM251.04819,199.73052c-0.20416,-0.02671 -0.39339,-0.0448 -0.60806,0.08309c0.05408,0.21508 0.08808,0.46445 0.21694,0.6541c0.13447,0.00923 0.2489,0.0527 0.37848,0.03612c0.11952,0.00058 0.22886,0.08703 0.3638,-0.04128c-0.11372,-0.24972 -0.22744,-0.49943 -0.35119,-0.73207zM257.34966,202.72445c0.17432,0.00939 0.3391,-0.10157 0.51879,-0.20383c-0.09877,-0.24108 -0.13284,-0.49041 -0.30153,-0.68026c-0.19952,0.06782 -0.41367,0.05825 -0.64326,0.17748c0.13864,0.24127 0.28733,0.46537 0.42599,0.70661zM256.00487,199.76216c0.25846,0.17305 0.57193,0.28619 0.81034,0.49357c0.20369,0.16421 0.39316,0.11348 0.63276,-0.02287c-0.0939,-0.21523 -0.23794,-0.34482 -0.38686,-0.50017c-0.36892,0.08424 -0.70247,0.00537 -1.05623,0.0295zM249.81603,207.4414c0.02518,-0.07722 -0.01958,-0.10319 -0.06431,-0.12919c-0.18387,-0.12974 -0.39269,-0.25102 -0.56655,-0.39792c-0.24331,-0.23313 -0.49268,-0.14834 -0.78706,-0.02081c0.08439,0.09494 0.13891,0.17249 0.20345,0.23293c0.14894,0.15534 0.30295,0.26777 0.55725,0.20882c0.15451,-0.0251 0.30881,0.01863 0.44821,0.05361c0.04964,0.05182 0.10417,0.12937 0.20904,0.05254zM253.07581,208.39312c-0.00954,-0.12034 -0.03914,-0.20643 -0.05382,-0.28382c-0.01908,-0.24067 -0.12328,-0.37009 -0.32232,-0.43974c-0.16918,-0.05236 -0.32324,-0.16478 -0.48242,-0.23425c-0.04474,-0.02602 -0.07947,-0.06911 -0.16455,0.04221c0.15868,0.207 0.29738,0.44823 0.40107,0.7151c0.0247,0.06028 0.09926,0.10353 0.1589,0.13821c0.13934,0.03501 0.26385,0.06139 0.46309,0.06229zM256.3225,204.44682c-0.18922,-0.01807 -0.38336,-0.06192 -0.58779,-0.01986c0.06387,0.26668 0.08784,0.53316 0.21157,0.76576c0.20929,-0.01622 0.3885,0.01899 0.58826,-0.11757c-0.05406,-0.2151 -0.08317,-0.43866 -0.21206,-0.62826zM250.67815,201.55925c-0.06387,-0.26666 -0.18272,-0.47346 -0.32161,-0.64594c-0.20929,0.01621 -0.39362,0.02398 -0.61808,0.10028c0.00931,0.18911 0.07854,0.3441 0.17268,0.4906c0.25402,0.00976 0.49806,0.03666 0.76699,0.05512zM256.11661,206.3707c0.16457,-0.04221 0.26917,-0.05031 0.37894,-0.10138c0.07481,-0.02544 0.13471,-0.05951 0.19462,-0.09364c0.02564,-0.21469 0.01144,-0.4296 -0.07757,-0.61907c-0.19924,-0.00094 -0.39851,-0.00182 -0.60317,0.10896c0.04402,0.2322 0.05825,0.44711 0.10717,0.7051zM251.48237,208.17952c0.06877,0.29248 0.10788,0.49888 0.16682,0.73977c0.04963,0.05181 0.16403,0.09529 0.28362,0.09584c0.10951,0.0177 0.19389,0.1126 0.32862,0.05308c0.04545,-0.18025 0.03101,-0.32638 -0.02327,-0.47274c-0.24868,-0.12144 -0.47239,-0.25142 -0.75577,-0.41599zM248.12726,203.08549c0.12471,-0.04242 0.24941,-0.08479 0.37409,-0.12715c0.12472,-0.04243 0.23447,-0.09347 0.35915,-0.13584c-0.09388,-0.21525 -0.14308,-0.40455 -0.28708,-0.53411c-0.11954,-0.00056 -0.20952,0.08496 -0.30438,0.14464c-0.09483,0.05971 -0.23446,0.09347 -0.28969,0.22207c0.0443,0.1635 0.05871,0.30961 0.14798,0.43036zM257.43888,204.31448c-0.22932,0.05051 -0.45845,0.03224 -0.69805,0.16867c0.04919,0.18927 0.10836,0.36139 0.15752,0.5507c0.22932,-0.05051 0.42371,-0.07535 0.61855,-0.23776c-0.00443,-0.16328 0.021,-0.30927 -0.07805,-0.48159zM248.98646,205.30656c-0.20833,-0.25877 -0.39686,-0.48305 -0.58538,-0.70731c-0.1296,0.01658 -0.24916,0.01601 -0.34913,0.11868c0.05383,0.28384 0.21252,0.49078 0.36121,0.71488c0.1296,-0.01658 0.25917,-0.03315 0.38386,-0.07553c0.0697,0.01753 0.10463,-0.00811 0.18947,-0.05067zM254.87933,206.91482c-0.22422,0.00759 -0.4032,-0.0964 -0.60271,-0.02857c0.03893,0.27515 0.07294,0.5245 0.17174,0.76562c0.1746,-0.05937 0.32372,0.02729 0.51344,-0.09215c0.02563,-0.21468 -0.04846,-0.39553 -0.08246,-0.64488zM251.21573,198.79479c0.01934,0.17196 0.06362,0.33542 0.14288,0.47329c0.23914,0.00108 0.4682,0.01935 0.73715,0.03776c-0.10392,-0.1981 -0.16312,-0.37024 -0.23208,-0.59401c-0.23914,-0.00109 -0.45331,-0.01071 -0.64794,0.08293zM253.45407,208.49795c0.23398,0.04407 0.42813,0.0879 0.64769,-0.01417c0.00559,-0.18043 0.01611,-0.33504 -0.06313,-0.47292c-0.21908,-0.0354 -0.42809,-0.08789 -0.68704,-0.12347c0.01422,0.2149 0.03845,0.41265 0.10251,0.61059zM250.23356,200.47445c-0.10882,-0.22391 -0.0881,-0.46447 -0.23213,-0.59403c-0.20929,0.01621 -0.37897,0.10137 -0.54376,0.21232c0.02424,0.19775 0.03353,0.38685 0.16751,0.53356c0.18948,-0.05067 0.36893,-0.08425 0.6083,-0.15187zM257.98663,202.93355c-0.17459,0.05935 -0.32907,0.08442 -0.47894,0.20404c0.0939,0.21523 0.08807,0.46444 0.24188,0.64563c0.16457,-0.04221 0.28437,-0.1104 0.38948,-0.25601c-0.03914,-0.20641 -0.1032,-0.40434 -0.1524,-0.5936zM248.25697,205.93897c-0.17947,0.03354 -0.28919,0.08459 -0.40418,0.17857c0.04919,0.18928 0.13817,0.37876 0.31717,0.48266c0.14964,-0.05087 0.29922,-0.10171 0.4638,-0.14392c-0.08388,-0.23243 -0.25283,-0.35349 -0.37684,-0.51732zM257.8046,199.38362c-0.13469,0.0595 -0.2445,0.1106 -0.31953,0.20474c0.08899,0.18944 0.19811,0.34461 0.34212,0.47419c0.13959,-0.03369 0.24938,-0.08477 0.34936,-0.18743c-0.079,-0.20663 -0.24796,-0.32768 -0.37196,-0.4915zM257.07453,205.96259c0.2391,0.00112 0.33421,-0.12735 0.4095,-0.29027c0.07017,-0.11996 0.11049,-0.25729 0.02122,-0.37801c-0.17947,0.03354 -0.34399,0.07574 -0.5088,0.18669c0.01934,0.17196 0.0487,0.32677 0.07805,0.48157zM253.48507,198.0233c-0.16429,-0.02653 -0.2836,-0.09583 -0.42833,-0.01917c0.05312,0.49005 0.38661,0.56897 0.80005,0.57943c-0.12886,-0.18965 -0.24285,-0.37067 -0.3717,-0.56027zM255.79942,207.35742c0.03057,-0.18891 0.01611,-0.33503 -0.058,-0.51584c-0.14472,0.07669 -0.30394,0.00723 -0.44375,0.10968c-0.04526,0.11152 -0.00561,0.18041 -0.00096,0.27497c0.01957,0.10318 -0.0007,0.20623 0.10369,0.26688c0.1296,-0.01658 0.2592,-0.03317 0.39903,-0.13565zM252.56611,203.04597c0.19972,-0.13655 0.23006,-0.25673 0.10583,-0.3518c-0.18385,-0.12975 -0.38781,-0.22522 -0.57682,-0.31202c-0.05963,-0.03465 -0.14427,-0.06078 -0.23423,0.02471c0.21837,0.24162 0.45676,0.44893 0.7052,0.63914zM258.58775,201.97391c0.10952,0.0177 0.19438,-0.02488 0.26945,-0.11905c-0.03401,-0.24938 -0.03306,-0.52436 -0.18173,-0.74847c-0.20975,0.15371 -0.27018,0.32531 -0.19116,0.53189c0.01959,0.10319 0.00418,0.23208 0.10345,0.33563zM253.75995,200.66261c0.14031,-0.23993 0.1405,-0.30871 0.00632,-0.38666c-0.21884,-0.10412 -0.45259,-0.21692 -0.71152,-0.25248c0.18831,0.29305 0.37171,0.56028 0.7052,0.63916zM256.7598,198.98357c0.10928,0.08643 0.21375,0.14705 0.30809,0.22484c0.19878,0.13845 0.19879,0.1384 0.45381,-0.12679c-0.08439,-0.09494 -0.17362,-0.21566 -0.22325,-0.26741c-0.19953,0.06781 -0.36404,0.11001 -0.53861,0.16938zM248.63409,200.57867c0.01443,0.14617 -0.04591,0.31774 0.11815,0.41303c0.1347,-0.05951 0.26454,-0.14486 0.42417,-0.21286c-0.01933,-0.17198 -0.01369,-0.35238 -0.10297,-0.4731c-0.14473,0.07672 -0.29439,0.12753 -0.43936,0.27294zM257.32673,200.71352c0.14381,0.19826 0.27754,0.41375 0.42135,0.61204c0.09461,0.009 0.18432,-0.00772 0.21462,-0.12787c-0.04402,-0.2322 -0.13794,-0.44751 -0.30178,-0.61151c-0.1296,0.01658 -0.22932,0.05051 -0.33421,0.12739zM251.73043,198.35885c0.05524,-0.12864 0.04572,-0.24901 -0.00371,-0.36953c-0.07971,-0.00037 -0.15941,-0.00073 -0.23913,-0.00108c-0.10463,0.00808 -0.19928,-0.0009 -0.28922,0.08461c-0.06014,0.10283 -0.08044,0.20583 -0.04592,0.31772c0.18438,-0.00776 0.39366,-0.02399 0.57798,-0.03168zM249.45766,201.56214c-0.01933,-0.17198 -0.08366,-0.30116 -0.17291,-0.42188c-0.16966,0.08512 -0.32931,0.15317 -0.47403,0.2298c-0.0354,0.16313 0.01397,0.28364 0.09344,0.35277c0.18947,-0.05065 0.37896,-0.10137 0.55355,-0.16066zM252.59362,197.94188c-0.11954,-0.00056 -0.2391,-0.00112 -0.36871,0.01545c-0.0249,0.00847 -0.04499,0.04277 -0.07997,0.06841c0.00464,0.09454 -0.02565,0.2147 0.06362,0.33542c0.14942,0.01785 0.31859,0.07016 0.50808,0.01952c0.00558,-0.1804 -0.04385,-0.30093 -0.12305,-0.4388zM254.4076,197.77825c-0.15405,-0.11241 -0.07364,-0.3183 -0.22278,-0.40491c-0.15939,-0.00072 -0.30365,-0.06158 -0.50317,0.00627c0.00443,0.16328 0.01887,0.30946 0.18318,0.33596c0.1643,0.02654 0.28849,0.12162 0.54278,0.06267zM258.54263,200.61597c-0.06432,-0.12919 -0.11863,-0.27551 -0.168,-0.39603c-0.00489,-0.0258 -0.04476,-0.02601 -0.07459,-0.0433c-0.07994,0.06839 -0.20465,0.11074 -0.25006,0.29102c0.06924,0.15497 0.15331,0.31867 0.22745,0.49946c0.12982,-0.08532 0.20487,-0.17953 0.26526,-0.3511zM248.3814,201.62587c-0.14963,0.05085 -0.31418,0.09306 -0.43884,0.13546c-0.04546,0.18024 -0.03103,0.32641 -0.00655,0.45541c0.11447,0.0435 0.19948,-0.06783 0.28435,-0.1104c0.08486,-0.04261 0.18458,-0.07649 0.23984,-0.20515c0.01025,-0.08589 0.00561,-0.18044 -0.07876,-0.27536zM254.47533,208.49411c0.15451,-0.0251 0.26921,-0.05031 0.38386,-0.07556c0.03986,0.00021 0.08486,-0.04257 0.10979,-0.05106c0.07017,-0.11996 0.06063,-0.24035 0.0112,-0.36086c-0.16943,0.01642 -0.32886,0.01569 -0.5034,0.07495c-0.01537,0.12882 -0.00584,0.24918 -0.00142,0.41246zM257.01545,198.51222c-0.1538,-0.1812 -0.30762,-0.36232 -0.5465,-0.4322c-0.04545,0.18023 -0.11074,0.32607 -0.04153,0.48102c0.30366,0.06158 0.30367,0.06156 0.588,-0.04882zM256.17858,207.18736c0.45381,-0.12679 0.46378,-0.14391 0.49502,-0.53911c-0.16457,0.04221 -0.32418,0.11022 -0.48875,0.15239c-0.05524,0.12864 -0.04569,0.24897 -0.00634,0.38666zM250.77717,198.86143c-0.16942,0.01641 -0.30905,0.05014 -0.44891,0.1526c-0.00513,0.04295 -0.00538,0.1117 -0.00562,0.18046c0.00979,0.05162 0.03449,0.11189 0.04426,0.16345c0.16943,-0.01643 0.34378,-0.00703 0.49853,-0.10083c0.01537,-0.1288 -0.02397,-0.2665 -0.08832,-0.39567zM253.17296,209.11539c0.00022,-0.06873 -0.00444,-0.16328 -0.03914,-0.20643c-0.134,-0.14672 -0.30317,-0.19901 -0.53744,-0.17433c-0.0005,0.13749 -0.05081,0.29191 0.00862,0.39533c0.18922,0.01807 0.36333,0.0962 0.56796,-0.01457zM247.67271,204.88801c-0.02491,0.00846 -0.04987,0.01695 -0.09974,0.03391c-0.01096,0.29214 0.05288,0.55881 0.11674,0.82546c0.13447,0.00922 0.21929,-0.03337 0.31439,-0.1618c-0.10882,-0.22391 -0.20764,-0.46495 -0.33139,-0.69759zM252.59205,201.29315c0.1636,0.23278 0.30226,0.47398 0.56584,0.60411c0.01492,0.00868 0.08482,-0.0426 0.10487,-0.07686c0.05007,-0.08571 0.03052,-0.1889 -0.04407,-0.23218c-0.16382,-0.16404 -0.37779,-0.24237 -0.62665,-0.29506zM249.92434,199.12388c-0.13961,0.03369 -0.27922,0.06745 -0.40904,0.15278c-0.07017,0.11996 -0.09045,0.223 -0.03617,0.36931c0.15967,-0.06802 0.33423,-0.12734 0.47896,-0.204c0.03029,-0.12013 0.02564,-0.21469 -0.03377,-0.3181zM257.94067,204.72061c0.15522,-0.23129 0.29045,-0.42829 0.3063,-0.69461c-0.16429,-0.02653 -0.29412,0.05878 -0.41906,0.16992c0.00932,0.18909 0.01372,0.35238 0.1128,0.52471zM251.26933,209.2956c0.00072,-0.20625 -0.00414,-0.23202 -0.0489,-0.25805c-0.1391,-0.10376 -0.32349,-0.09604 -0.49291,-0.07962c-0.06476,0.0083 -0.1298,0.08536 -0.07038,0.18874c0.19438,-0.02487 0.3482,0.15631 0.61226,0.1489zM248.17801,204.26309c-0.09877,-0.24108 -0.17268,-0.49062 -0.41623,-0.65498c-0.03589,0.30056 0.07293,0.52454 0.15194,0.7311c0.08459,0.0262 0.14447,-0.00793 0.26427,-0.07614zM255.35397,207.94829c-0.00535,0.11168 -0.02564,0.2147 -0.03101,0.32638c0.18438,-0.00773 0.34891,-0.04995 0.4144,-0.26447c0.01516,-0.06008 0.03029,-0.12014 -0.01934,-0.17196c-0.10951,-0.0177 -0.21932,0.03337 -0.36404,0.11002zM254.28235,199.4276c0.09018,-0.15429 0.10047,-0.24012 -0.02886,-0.29227c-0.11446,-0.04351 -0.22888,-0.08699 -0.35334,-0.11334c-0.05477,-0.00881 -0.11958,-0.00056 -0.14475,0.07667c0.14892,0.15536 0.31299,0.25063 0.52693,0.32895zM250.17548,205.76749c0.15382,0.1812 0.32769,0.32804 0.55163,0.38924c0.01493,0.00868 0.08482,-0.0426 0.09483,-0.05971c0.02003,-0.03426 -0.00464,-0.09454 -0.0345,-0.11187c-0.20392,-0.09547 -0.36287,-0.2337 -0.61205,-0.21766zM250.20156,206.88463c-0.17922,-0.0352 -0.34332,-0.1305 -0.5675,-0.12298c0.14379,0.19828 0.28782,0.32786 0.40738,0.32841c0.10951,0.0177 0.14965,-0.05085 0.16013,-0.20546zM258.73383,202.95415c0.07552,-0.23167 0.21583,-0.47166 0.10701,-0.69556c-0.2997,0.23923 -0.19087,0.46312 -0.10701,0.69556zM255.87891,201.61769c0.02002,-0.03425 0.01518,-0.06014 0.03521,-0.09438c-0.15916,-0.06946 -0.25333,-0.21598 -0.43769,-0.20823c-0.07506,0.09415 -0.09021,0.15426 -0.04568,0.24899c0.13447,0.00922 0.28385,0.0271 0.4482,0.05361zM251.50798,203.62536c0.17875,0.17268 0.3228,0.30223 0.51179,0.38906c0.02983,0.01733 0.07969,0.00038 0.10976,-0.05104c0.01003,-0.01716 0.01516,-0.06008 0.01025,-0.08589c-0.1538,-0.1812 -0.33278,-0.28511 -0.63181,-0.25211zM253.52232,208.92796c-0.03028,0.12014 -0.03055,0.18888 0.03425,0.1806c0.13447,0.00922 0.27898,0.00127 0.42348,-0.00663c0.08973,-0.01676 0.11979,-0.06818 0.09019,-0.15424c-0.19413,-0.0439 -0.35846,-0.07041 -0.54792,-0.01973zM249.07995,199.85035c-0.00464,-0.09454 0.0056,-0.18045 0.00096,-0.27498c-0.00487,-0.02581 -0.03473,-0.04312 -0.06944,-0.08627c-0.12029,0.20563 -0.27525,0.36821 -0.3459,0.62568c0.15967,-0.06802 0.26942,-0.11907 0.41438,-0.26447zM253.08917,205.94423c0.15918,0.06948 0.30346,0.1303 0.49247,0.21712c-0.04895,-0.25804 -0.15309,-0.38741 -0.31227,-0.45686c-0.09485,0.05971 -0.13985,0.10246 -0.18021,0.23978zM255.86332,200.34584c0.14453,-0.00791 0.28849,0.12163 0.48826,-0.01492c-0.32791,-0.25928 -0.40247,-0.30259 -0.48245,-0.23422c-0.05007,0.08571 -0.05036,0.15445 -0.00584,0.24918zM250.93647,204.67112c0.10344,0.33562 0.28244,0.43951 0.54627,0.50091c-0.03868,-0.34391 -0.32767,-0.32802 -0.54627,-0.50091zM254.07263,198.11188c0.09856,0.30981 0.26266,0.40511 0.46168,0.47476c0.01491,0.00866 0.04987,-0.01695 0.0699,-0.05123c0.03009,-0.05141 0.02028,-0.10302 -0.00955,-0.12032c-0.1391,-0.10378 -0.29827,-0.17325 -0.52202,-0.30317zM256.12075,199.39312c0.16429,0.02653 0.32349,0.09601 0.52807,-0.01474c-0.11909,-0.13805 -0.26336,-0.19885 -0.39269,-0.25102c-0.10488,0.07685 -0.13003,0.15404 -0.13541,0.26576zM253.36277,197.37816c-0.20441,0.04203 -0.36848,-0.05326 -0.52837,0.0835c0.17875,0.17268 0.17875,0.17268 0.4978,0.10543c0.00513,-0.04295 0.01025,-0.08589 0.03054,-0.18891zM258.14817,202.3155c0.09556,-0.26595 0.03149,-0.46388 -0.05754,-0.65334c-0.11954,-0.00056 -0.15967,0.06802 -0.14498,0.14541c0.06924,0.15497 0.12842,0.32714 0.20252,0.50791zM250.73357,198.49169c0.04524,-0.11152 0.08043,-0.20586 0.021,-0.30922c-0.11465,0.02525 -0.22935,0.05047 -0.30435,0.14463c-0.03521,0.09436 -0.03542,0.16312 0.00419,0.23207c0.09461,0.009 0.16944,-0.01642 0.27921,-0.06748zM254.78556,203.76081c-0.08925,-0.12071 -0.15871,-0.20701 -0.26825,-0.22468c-0.03986,-0.00021 -0.07482,0.02543 -0.10978,0.05107c-0.03009,0.05141 -0.04036,0.13732 0.01441,0.14616c0.08952,0.05199 0.19391,0.11261 0.36361,0.02745zM248.21944,200.91189c-0.13495,0.12828 -0.14055,0.30872 -0.19087,0.46316c0.31419,-0.09306 0.3342,-0.12738 0.19087,-0.46316zM249.62537,207.83577c-0.18364,-0.19849 -0.18364,-0.19849 -0.36336,-0.09621c0.06944,0.08627 0.15384,0.18118 0.36336,0.09621zM254.99414,202.48147c-0.08486,0.04261 -0.11491,0.094 -0.0951,0.12845c0.06924,0.15497 0.12399,0.16385 0.34844,0.08753c-0.0743,-0.11205 -0.16383,-0.16406 -0.25333,-0.21602zM254.61292,197.46133c0.02449,0.12902 0.05898,0.24087 0.18338,0.26723c0.11559,-0.30022 0.09584,-0.33465 -0.18338,-0.26723zM248.89289,207.89255c0.0443,0.1635 0.15355,0.24993 0.24793,0.32767c0.05963,0.03466 0.1345,0.00921 0.13497,-0.12829c-0.09438,-0.07774 -0.2037,-0.16422 -0.3829,-0.19942zM252.18161,197.5188c0.12911,0.1209 0.23375,0.11282 0.34378,-0.007c0,0 0.00513,-0.04295 -0.0098,-0.0516c-0.07949,-0.0691 -0.19925,-0.00095 -0.33402,0.05859zM253.99469,204.83992c0.03028,-0.12014 -0.00931,-0.18911 -0.079,-0.2066c-0.02983,-0.01733 -0.07971,-0.00036 -0.11467,0.02524c-0.03496,0.02564 -0.0352,0.09433 -0.00535,0.11165c0.03473,0.04313 0.09437,0.07777 0.19902,0.06968zM249.83588,198.79684c0.14452,-0.00791 0.22935,-0.05048 0.24983,-0.22228c-0.16943,0.01643 -0.23936,0.06763 -0.24983,0.22228z" fill="url(#color-11)"/><path d="M259.12462,208.09456c0.33564,-0.53979 0.67132,-1.07964 0.99202,-1.62813c0.36082,-0.61705 0.66196,-1.26871 0.87851,-1.94657c0.0655,-0.21452 0.08114,-0.41205 0.14174,-0.65237c0.23867,0.13861 0.45748,0.24269 0.65627,0.38111c1.2128,0.79618 2.49061,1.51533 3.73838,2.28587c1.11352,0.69262 2.22217,1.35937 3.34572,2.03484c0.76559,0.46756 1.51624,0.92649 2.2818,1.39406c0.72084,0.4416 1.44678,0.8402 2.16763,1.28177c0.05966,0.03466 0.11933,0.0693 0.16896,0.12108c0.02379,0.33524 -0.05203,0.63566 -0.16271,0.96166c-0.18113,0.51477 -0.40209,1.02931 -0.69762,1.50055c-0.09018,0.15429 -0.16548,0.31719 -0.32025,0.41096c0.06037,-0.17161 0.20531,-0.31699 0.241,-0.54883c-0.30876,-0.01864 -0.53229,-0.21729 -0.78097,-0.33877c-0.01491,-0.00866 -0.02981,-0.01733 -0.03985,-0.00021c-0.48288,-0.09677 -0.91543,-0.34799 -1.38319,-0.50482c-0.16918,-0.05234 -0.36847,-0.05325 -0.49757,-0.17413c-0.27825,-0.20755 -0.65187,-0.21783 -0.93015,-0.42537c-0.01491,-0.00866 -0.05477,-0.00884 -0.0846,-0.02619c-0.31343,-0.11313 -0.622,-0.20054 -0.91543,-0.34796c-0.32814,-0.19057 -0.70665,-0.22669 -1.01473,-0.45152c-0.25402,-0.00976 -0.42788,-0.15668 -0.64671,-0.26081c-0.02983,-0.01733 -0.04478,-0.02598 -0.07456,-0.04331c-0.3785,-0.03613 -0.65162,-0.28657 -0.99004,-0.39128c-0.33839,-0.10469 -0.63157,-0.32086 -0.95995,-0.44267c-0.37313,-0.14782 -0.76139,-0.2355 -1.0893,-0.49485c-0.02983,-0.01733 -0.07458,-0.04333 -0.11444,-0.04351c-0.22422,0.00759 -0.37312,-0.14781 -0.56212,-0.23463c-0.08952,-0.05199 -0.18386,-0.12973 -0.29342,-0.14744c-0.17431,-0.00943 -0.28362,-0.09584 -0.41787,-0.1738c-0.07458,-0.04331 -0.13915,-0.10379 -0.21883,-0.10411c-0.25402,-0.00976 -0.4428,-0.1653 -0.6367,-0.2779c-0.07458,-0.04331 -0.13912,-0.10375 -0.21883,-0.10414c-0.21415,-0.00962 -0.36823,-0.122 -0.5323,-0.21731c-0.26851,-0.15591 -0.60711,-0.19186 -0.86554,-0.36492c-0.03473,-0.04312 -0.10951,-0.01772 -0.1643,-0.02653z" fill="#87d7dc"/><path d="M259.12466,208.09457c0.05477,0.00885 0.12959,-0.0166 0.17434,0.0094c0.25847,0.17304 0.58705,0.22614 0.86556,0.36491c0.16407,0.0953 0.31814,0.20772 0.53229,0.21731c0.07971,0.00037 0.14427,0.06083 0.21883,0.1041c0.19391,0.11259 0.39267,0.25105 0.63669,0.27797c0.07971,0.00037 0.13426,0.07797 0.21885,0.10411c0.13422,0.07794 0.25358,0.14727 0.41787,0.1738c0.10951,0.0177 0.20395,0.09549 0.29343,0.14746c0.189,0.08679 0.33793,0.24215 0.56212,0.23461c0.03986,0.00021 0.08459,0.02618 0.11443,0.04348c0.31299,0.25066 0.71621,0.34704 1.08932,0.49483c0.34332,0.1305 0.63646,0.34666 0.95994,0.44272c0.33838,0.10466 0.61153,0.35513 0.99002,0.39125c0.02493,-0.00845 0.04475,0.02601 0.07458,0.04333c0.19391,0.11259 0.3927,0.251 0.64674,0.26079c0.29807,0.242 0.67658,0.27809 1.01472,0.45154c0.28338,0.16459 0.60197,0.23479 0.91543,0.34799c0.02983,0.01733 0.0548,0.00882 0.08461,0.02616c0.27825,0.20755 0.65185,0.21783 0.93015,0.42537c0.15405,0.1124 0.33841,0.1047 0.49757,0.17414c0.45772,0.17398 0.9003,0.40804 1.38318,0.50482c0.01491,0.00866 0.03987,0.00016 0.03987,0.00016c0.2487,0.12144 0.4722,0.32015 0.78099,0.33875c-0.02564,0.21469 -0.18556,0.35145 -0.24103,0.54884c-0.08016,0.13711 -0.16038,0.27421 -0.32006,0.34223c-0.08952,-0.05199 -0.18386,-0.12973 -0.29339,-0.14742c-0.38336,-0.06192 -0.68658,-0.26101 -1.01987,-0.40862c-0.33325,-0.14761 -0.71665,-0.20953 -1.0147,-0.4515c-0.25402,-0.00976 -0.42791,-0.15665 -0.64674,-0.26078c-0.02983,-0.01733 -0.07458,-0.04331 -0.11444,-0.04349c-0.18437,0.00774 -0.31343,-0.11316 -0.45773,-0.174c-0.07458,-0.04331 -0.14917,-0.0866 -0.21883,-0.10412c-0.37827,-0.10485 -0.76139,-0.2355 -1.10447,-0.43475c-0.04474,-0.02602 -0.09437,-0.0778 -0.14425,-0.06081c-0.19923,-0.00093 -0.3384,-0.10465 -0.48756,-0.19128c-0.15405,-0.1124 -0.37338,-0.07905 -0.54233,-0.20016c-0.22863,-0.15574 -0.50247,-0.19996 -0.76116,-0.30427c-0.34821,-0.15628 -0.72153,-0.23535 -1.06457,-0.4346c-0.05966,-0.03466 -0.12423,-0.09511 -0.18903,-0.0868c-0.15941,-0.00077 -0.28362,-0.0958 -0.42788,-0.15664c-0.11932,-0.0693 -0.24865,-0.12145 -0.37312,-0.14785c-0.23398,-0.04407 -0.44793,-0.12236 -0.65678,-0.24362c-0.32324,-0.16476 -0.70664,-0.22668 -1.00469,-0.46864c-0.02983,-0.01733 -0.08457,-0.0262 -0.11444,-0.04351c-0.34332,-0.1305 -0.69662,-0.2438 -1.01982,-0.40861c-0.32814,-0.19057 -0.73648,-0.24401 -1.04456,-0.46887c-0.04474,-0.02602 -0.10952,-0.01767 -0.1643,-0.02653c-0.21394,-0.07833 -0.43278,-0.18247 -0.59661,-0.34648c0.03522,-0.09436 0.07527,-0.16292 0.10047,-0.24014c0.18508,-0.21398 0.33516,-0.40231 0.48038,-0.61649z" fill="#b0eef2"/><path d="M255.37086,197.25858c0.31341,0.11315 0.54721,0.22597 0.73085,0.42446c0.03914,0.20643 -0.02633,0.42095 -0.07692,0.6441c-0.29766,1.08993 -0.61027,2.17121 -1.06222,3.21751c-0.34148,0.789 -0.69298,1.59514 -1.11904,2.35795c-0.12027,0.20566 -0.26547,0.41986 -0.34103,0.65151c-0.03522,0.09436 -0.09535,0.19721 -0.15545,0.30002c-0.30021,0.37672 -0.51092,0.80539 -0.76638,1.2081c-0.35568,0.57411 -0.77103,1.11359 -1.2162,1.63568c-0.23004,0.25673 -0.44519,0.52212 -0.67032,0.80467c-0.17016,0.22259 -0.37989,0.37634 -0.57475,0.5387c-0.33864,-0.03595 -0.45305,-0.07943 -0.79097,-0.32161c0.23537,-0.3684 0.53537,-0.67638 0.8006,-1.02743c0.25522,-0.33394 0.52045,-0.68502 0.76077,-1.02765c0.25033,-0.35973 0.49578,-0.74532 0.73118,-1.11371c0.2403,-0.34259 0.4011,-0.75434 0.68619,-1.071c0.14592,-0.42041 0.41118,-0.77147 0.61676,-1.15723c0.19557,-0.3686 0.3862,-0.76301 0.56687,-1.14027c0.19066,-0.39442 0.3664,-0.79745 0.55221,-1.21768c0.16573,-0.38593 0.3564,-0.78031 0.5072,-1.17493c0.16082,-0.41171 0.28183,-0.82362 0.42775,-1.24403c0.15595,-0.43753 0.30675,-0.8321 0.39301,-1.28716z" fill="url(#color-12)"/><path d="M258.6692,208.70264c-0.02518,0.07722 -0.06527,0.1458 -0.10045,0.24014c0.16386,0.16402 0.35771,0.27661 0.59661,0.34648c0.05477,0.00886 0.11955,0.00057 0.16429,0.02653c0.30808,0.22485 0.70642,0.29543 1.04456,0.46887c0.31322,0.1819 0.67656,0.27811 1.01982,0.40864c0.02983,0.01733 0.08461,0.02618 0.11443,0.04348c0.29806,0.24201 0.67654,0.27813 1.00469,0.46869c0.19391,0.11259 0.42277,0.19959 0.65676,0.24361c0.13932,0.03502 0.26871,0.08716 0.37313,0.14782c0.13422,0.07794 0.24354,0.16439 0.4279,0.15665c0.06477,-0.00829 0.12935,0.05218 0.18901,0.08683c0.32814,0.19057 0.71641,0.27826 1.06459,0.43456c0.25868,0.10433 0.53254,0.14853 0.76115,0.30428c0.15405,0.1124 0.37335,0.07905 0.54232,0.20015c0.13913,0.10376 0.29317,0.21618 0.48756,0.19132c0.05477,0.00886 0.09951,0.03483 0.14425,0.06079c0.34303,0.19922 0.71124,0.32126 1.10445,0.43475c0.08459,0.0262 0.14916,0.08659 0.21882,0.10412c0.13422,0.07794 0.27339,0.18168 0.45773,0.17395c0.03986,0.00021 0.08459,0.02616 0.11442,0.04348c0.19391,0.11259 0.39269,0.25102 0.64673,0.26079c0.29807,0.24199 0.68147,0.30392 1.01471,0.4515c0.33325,0.14761 0.65136,0.35531 1.01982,0.40861c0.10952,0.0177 0.20391,0.0955 0.29343,0.14744c-0.0753,0.16293 -0.2249,0.21378 -0.30997,0.32512c-0.67655,-0.27809 -1.33333,-0.52176 -1.98003,-0.78254c-0.71642,-0.27831 -1.40789,-0.56507 -2.11427,-0.86047c-0.66166,-0.26946 -1.33333,-0.52173 -2.00499,-0.77406c-0.83085,-0.32179 -1.6568,-0.61777 -2.47273,-0.93087c-0.61692,-0.24346 -1.23378,-0.48696 -1.86072,-0.71323c-0.9602,-0.37393 -1.89523,-0.8251 -2.87545,-1.16474c-0.12933,-0.05215 -0.27873,-0.07002 -0.38289,-0.1994c0.09018,-0.15429 0.22515,-0.28252 0.34519,-0.41947c0.07994,-0.06839 0.1403,-0.23996 0.29508,-0.33379z" fill="#87d7dc"/><path d="M272.88846,214.11316c0.18065,-0.37725 0.41093,-0.70275 0.57664,-1.08866c0.1809,-0.44601 0.34682,-0.90068 0.42332,-1.4073c0.86511,0.50239 1.71527,0.99612 2.55053,1.48119c0.05385,0.28382 -0.01682,0.54129 -0.06251,0.79028c-0.09627,0.47217 -0.29697,0.88371 -0.50768,1.3124c-0.01003,0.01716 -0.04497,0.04275 -0.06993,0.05127c0.00073,-0.20623 -0.14866,-0.22409 -0.28806,-0.25911c-0.34843,-0.08753 -0.68681,-0.19221 -0.9751,-0.38261c-0.05966,-0.03466 -0.11933,-0.06929 -0.189,-0.08677c-0.34355,-0.06174 -0.63181,-0.25211 -0.94528,-0.36527c-0.18409,-0.06105 -0.32345,-0.09597 -0.51295,-0.04532z" fill="#61afb4"/><path d="M256.53514,207.80768c0.44029,-0.54791 0.77614,-1.15645 1.17166,-1.73037c0.17528,-0.26556 0.3058,-0.55715 0.43635,-0.84873c0.27087,-0.53153 0.61137,-1.04552 0.82253,-1.6117c0.09045,-0.22301 0.18089,-0.44599 0.24642,-0.66053c0.04035,-0.13733 0.09554,-0.26592 0.16573,-0.38593c0.05477,0.00881 0.09461,0.00905 0.12446,0.02638c0.1193,0.06932 0.23865,0.13856 0.35798,0.20785c-0.00535,0.11168 -0.01565,0.19757 -0.03589,0.30058c-0.18181,0.72095 -0.37367,1.45911 -0.76456,2.1276c-0.32584,0.59145 -0.66171,1.19995 -1.04722,1.75677c-0.30045,0.4455 -0.58597,0.89958 -0.99569,1.25861c0.02025,-0.10301 0.12515,-0.17988 0.07574,-0.30039c-0.14403,-0.12955 -0.30785,-0.29358 -0.55746,-0.14006z" fill="url(#color-13)"/><path d="M257.77498,207.97669c0.14057,-0.30871 0.39041,-0.53096 0.5757,-0.81367c0.37574,-0.6084 0.7515,-1.21675 1.08244,-1.85112c0.26082,-0.51436 0.45194,-1.04629 0.60324,-1.57835c0.04035,-0.13733 0.08064,-0.27458 0.12098,-0.41191c0.20883,0.12127 0.38783,0.22518 0.58172,0.33781c0.05871,0.30962 -0.0171,0.61005 -0.13266,0.91027c-0.13074,0.36032 -0.27156,0.73773 -0.45709,1.08919c-0.39138,0.80592 -0.8622,1.54278 -1.32811,2.30543c-0.08017,0.1371 -0.16037,0.27426 -0.30509,0.35092c-0.07458,-0.04331 -0.13914,-0.10373 -0.21883,-0.1041c-0.18924,-0.01806 -0.35825,-0.13915 -0.52227,-0.23441z" fill="url(#color-14)"/><path d="M272.88845,214.11317c0.16457,-0.04221 0.31392,-0.02431 0.47311,0.04516c0.31343,0.11315 0.60176,0.30356 0.94527,0.36527c0.06969,0.01752 0.12937,0.05215 0.18903,0.08681c0.31325,0.18189 0.63668,0.27792 0.97508,0.38261c0.12446,0.02637 0.28878,0.05288 0.28806,0.25912c-0.13544,0.26576 -0.30555,0.4884 -0.51043,0.66791c-0.23891,-0.06984 -0.4878,-0.12258 -0.67658,-0.27811c-0.02983,-0.01733 -0.08458,-0.02618 -0.11444,-0.04349c-0.32836,-0.12182 -0.67167,-0.25231 -0.99003,-0.39127c-0.14426,-0.06081 -0.26357,-0.13014 -0.41788,-0.17382c-0.19411,-0.04389 -0.38316,-0.13068 -0.49712,-0.31166c0.03521,-0.09436 0.07529,-0.16292 0.10048,-0.24012c0.07017,-0.11996 0.16526,-0.24845 0.23538,-0.36841z" fill="#87d7dc"/><path d="M249.54685,203.15227c0.32909,-0.08443 0.61781,-0.03156 0.89661,0.03851c0.06968,0.01752 0.15918,0.0695 0.20883,0.12127c0.35237,0.38831 0.74482,0.70809 1.14728,1.0107c0.01491,0.00866 0.03471,0.04312 0.03964,0.06893c0.00464,0.09454 -0.04544,0.18026 -0.1403,0.23997c-0.02983,-0.01733 -0.06972,-0.01748 -0.09954,-0.03483c-0.3479,-0.22505 -0.72596,-0.39866 -1.13916,-0.47791c-0.20905,-0.05254 -0.37314,-0.14783 -0.50201,-0.33747c-0.13375,-0.21545 -0.29759,-0.37946 -0.41133,-0.62922z" fill="#cce5e6"/><path d="M251.19769,205.48862c-0.01537,0.12882 -0.07038,0.18871 -0.1452,0.21417c-0.73599,-0.38151 -0.73598,-0.38149 -1.52278,-0.47105c-0.23354,-0.18155 -0.41693,-0.44877 -0.60543,-0.67308c0.04035,-0.13733 0.13982,-0.10244 0.20462,-0.11074c0.23422,-0.02471 0.45355,-0.05804 0.68265,-0.0398c0.14942,0.01787 0.26382,0.06141 0.36308,0.16494c0.31277,0.31942 0.65044,0.63029 1.02307,0.9156z" fill="#cce5e6"/><path d="M272.64304,214.4987c-0.02518,0.07722 -0.0653,0.14581 -0.10048,0.24012c0.11396,0.18099 0.30295,0.26778 0.49713,0.31166c0.15431,0.04367 0.27361,0.11295 0.41788,0.17384c0.31837,0.13895 0.66164,0.26944 0.99002,0.39127c0.02983,0.01733 0.08462,0.02617 0.11444,0.04351c0.2137,0.14706 0.44768,0.19114 0.67653,0.27813c-0.10998,0.1198 -0.21003,0.22246 -0.37971,0.3076c-0.44769,-0.19112 -0.93039,-0.35663 -1.38298,-0.57354c-0.44769,-0.19112 -0.93547,-0.31368 -1.38295,-0.57352c0.17527,-0.26555 0.35519,-0.43661 0.55002,-0.599z" fill="#60adb2"/><path d="M255.13983,202.1298c0.02518,-0.07722 0.04036,-0.13733 0.0655,-0.21453c0.04989,-0.01697 0.07481,-0.02541 0.09973,-0.03389c0.29365,0.07868 0.60248,0.09729 0.92126,0.0988c0.13447,0.00921 0.23402,0.04405 0.30834,0.15609c0.1587,0.20697 0.35237,0.38829 0.40106,0.71508c-0.31417,0.09304 -0.62297,0.07447 -0.92175,0.03868c-0.05477,-0.00881 -0.1193,-0.06933 -0.16895,-0.12108c-0.2384,-0.20729 -0.47686,-0.4147 -0.70523,-0.63917z" fill="#cce5e6"/><path d="M251.50656,199.69831c0.18922,0.01804 0.30881,0.01863 0.44329,0.02785c0.24403,0.02692 0.43301,0.11371 0.58171,0.33782c0.26774,0.36214 0.58056,0.68153 0.95342,0.89808c0.11932,0.0693 0.12419,0.09509 -0.01096,0.29214c-0.04475,-0.026 -0.09952,-0.03481 -0.14428,-0.06083c-0.36286,-0.23369 -0.75088,-0.39016 -1.169,-0.49521c-0.09951,-0.03486 -0.1841,-0.06102 -0.23868,-0.13858c-0.14357,-0.26705 -0.30713,-0.49982 -0.41546,-0.86125z" fill="#cae2e3"/><path d="M252.39527,203.47481c-0.02491,0.00846 -0.06484,0.0083 -0.07971,-0.00038c-0.32299,-0.23349 -0.69123,-0.35549 -1.05459,-0.45173c-0.33838,-0.10466 -0.62182,-0.26926 -0.80493,-0.60524c-0.08411,-0.16366 -0.23819,-0.27604 -0.28732,-0.46536c0.47358,-0.09235 0.87163,0.04701 1.12961,0.35754c0.32254,0.371 0.62012,0.75045 1.06272,0.98454c0.03473,0.04312 0.09436,0.07779 0.03425,0.18062z" fill="#c9e1e2"/><path d="M250.81994,200.90673c0.33887,-0.03281 0.58776,0.01989 0.85157,0.08128c0.08459,0.0262 0.15916,0.0695 0.1988,0.13842c0.32744,0.39681 0.68981,0.76796 1.07223,1.10487c0.02983,0.01733 0.06456,0.06043 -0.00049,0.13748c-0.1044,-0.06063 -0.22371,-0.12993 -0.33814,-0.17343c-0.30831,-0.15611 -0.62668,-0.29505 -0.97022,-0.35677c-0.24892,-0.05268 -0.43277,-0.18247 -0.5416,-0.40639c-0.08411,-0.16366 -0.15337,-0.31864 -0.27221,-0.52545z" fill="#c9e1e2"/><path d="M255.62211,200.96339c-0.01442,-0.14618 0.03569,-0.23187 0.08579,-0.31755c0.0249,-0.00847 0.06482,-0.00832 0.08972,-0.01675c0.25869,0.10432 0.54257,0.13141 0.82666,0.08974c0.16943,-0.01639 0.29877,0.03576 0.40295,0.16514c0.12397,0.16382 0.27292,0.31919 0.36195,0.50865c-0.24447,0.11056 -0.61347,0.19482 -0.75282,0.15979c-0.09461,-0.009 -0.13424,-0.07793 -0.19879,-0.13842c-0.26357,-0.13011 -0.492,-0.35459 -0.81543,-0.45062z" fill="#cae3e4"/><path d="M253.17886,207.39684c-0.13842,-0.30995 -0.30688,-0.56858 -0.50033,-0.81868c0.03029,-0.12013 0.0704,-0.18876 0.16525,-0.24846c0.31856,0.0702 0.61174,0.28642 0.94037,0.3395c0.11393,0.181 0.12327,0.37008 0.17247,0.55934c0.01957,0.10318 0.06407,0.19789 0.00883,0.32656c-0.27409,0.0245 -0.50268,-0.13123 -0.78656,-0.15832z" fill="#c8e0e1"/><path d="M254.08144,204.24739c0.1051,-0.14559 0.1748,-0.12808 0.24448,-0.11058c0.26385,0.06136 0.51271,0.11408 0.76652,0.19258c0.0697,0.01751 0.12936,0.05215 0.16899,0.12107c0.09388,0.21525 0.17778,0.44765 0.23676,0.68853c-0.13959,0.03369 -0.23914,-0.0011 -0.35869,-0.00167c-0.35865,-0.00167 -0.62226,-0.13178 -0.73063,-0.49317c-0.05919,-0.17215 -0.18829,-0.29305 -0.32744,-0.39679z" fill="#cbe4e5"/><path d="M253.45005,205.32716c0.05007,-0.08571 0.08015,-0.13713 0.11022,-0.18855c0.03986,0.00021 0.07483,-0.02541 0.08972,-0.01676c0.18409,0.06105 0.35824,0.13914 0.54234,0.20015c0.09952,0.03486 0.16407,0.09531 0.20858,0.19005c0.13353,0.28418 0.2421,0.57687 0.32065,0.92095c-0.2044,0.04204 -0.34863,-0.0188 -0.49289,-0.07962c-0.05963,-0.03465 -0.11932,-0.06932 -0.14403,-0.12952c-0.10836,-0.36141 -0.34653,-0.63751 -0.63458,-0.89665z" fill="#c8e0e1"/><path d="M257.77497,207.97668c0.16407,0.0953 0.33305,0.21639 0.54725,0.22594c0.07971,0.00037 0.14421,0.06083 0.21881,0.10412c-0.15546,0.30002 -0.36057,0.54828 -0.61533,0.74474c-0.18877,-0.15556 -0.43765,-0.20826 -0.63667,-0.27791c-0.00443,-0.16328 0.1105,-0.25728 0.14078,-0.37743c0.0753,-0.16293 0.19044,-0.32567 0.34518,-0.41948z" fill="#85d5d9"/><path d="M252.99915,198.82018c0.17362,0.21565 0.34726,0.43124 0.5458,0.63842c0.17875,0.17269 0.49757,0.17416 0.57094,0.56121c-0.50711,-0.29448 -1.02476,-0.43438 -1.54238,-0.57428c-0.11393,-0.181 -0.23281,-0.38776 -0.26679,-0.63712c0.04989,-0.01697 0.07482,-0.02544 0.09972,-0.03391c0.19924,0.00092 0.38853,0.01897 0.59264,0.04569z" fill="#c6dede"/><path d="M249.04853,203.18438c0.18341,0.26725 0.34698,0.49997 0.53042,0.76723c-0.16966,0.08512 -0.31907,0.06727 -0.45866,0.101c-0.15451,0.0251 -0.3142,0.09306 -0.47847,0.06652c-0.1044,-0.06063 -0.15382,-0.18115 -0.21325,-0.28453c-0.05942,-0.10338 -0.1088,-0.22393 -0.14821,-0.3616c0.2298,-0.18798 0.48897,-0.22113 0.76821,-0.2886z" fill="#cae3e3"/><path d="M250.58608,206.60288c-0.51764,-0.13988 -0.96068,-0.23643 -1.44891,-0.2215c-0.15382,-0.1812 -0.31763,-0.34519 -0.48635,-0.53503c0.24962,-0.15354 0.47872,-0.1353 0.7129,-0.15997c0.03986,0.00021 0.08461,0.02619 0.11442,0.04351c0.34281,0.26795 0.68566,0.53593 1.10792,0.87299z" fill="#cae3e4"/><path d="M256.15963,204.00778c-0.33887,0.03281 -0.64279,0.04 -0.85087,-0.2875c-0.14869,-0.22413 -0.36241,-0.3712 -0.5761,-0.51826c-0.08951,-0.05198 -0.05431,-0.14632 0.03567,-0.23186c0.21861,0.17284 0.49247,0.21712 0.76631,0.26134c0.20416,0.02671 0.31835,0.13892 0.40249,0.30261c0.07922,0.13785 0.19341,0.25011 0.22254,0.47369z" fill="#c8e0e1"/><path d="M256.53512,207.80767c0.26453,-0.14486 0.41342,0.01051 0.5824,0.13161c0.04938,0.12051 -0.04054,0.20603 -0.07573,0.30038c-0.14519,0.21415 -0.32515,0.38517 -0.53493,0.5389c-0.15405,-0.1124 -0.35819,-0.13916 -0.45724,-0.31146c0.03522,-0.09436 0.06528,-0.1458 0.10535,-0.21433c0.13005,-0.15409 0.26007,-0.30817 0.38014,-0.4451z" fill="url(#color-15)"/><path d="M254.83928,205.51399c0.28387,0.0271 0.51785,0.07113 0.76188,0.09803c0.07385,0.24955 0.12282,0.50754 0.13185,0.76541c-0.1,0.10269 -0.20952,0.08495 -0.29924,0.10173c-0.08973,0.01676 -0.17942,0.03354 -0.27382,-0.04425c-0.09877,-0.24108 -0.19736,-0.55085 -0.32066,-0.92094z" fill="#c7dfe0"/><path d="M257.14366,203.24757c0.079,0.20663 0.16798,0.39605 0.20204,0.64542c-0.25452,0.12774 -0.48359,0.10948 -0.74765,0.11684c-0.10882,-0.22391 -0.21767,-0.44783 -0.34141,-0.68045c0.30904,-0.05012 0.57314,-0.05749 0.88704,-0.08181z" fill="#c8e0e1"/><path d="M249.05231,202.08443c0.19953,-0.06781 0.39901,-0.1356 0.6132,-0.12604c0.14869,0.22413 0.28733,0.46535 0.44091,0.71525c-0.02003,0.03426 -0.04008,0.06854 -0.05501,0.05987c-0.19439,0.02487 -0.40364,0.04109 -0.588,0.04883c-0.07971,-0.00037 -0.14942,-0.01787 -0.17411,-0.07811c-0.11884,-0.20679 -0.26775,-0.36214 -0.23701,-0.61982z" fill="#c4dcdd"/><path d="M251.04819,199.73052c0.11372,0.24972 0.23745,0.48231 0.35118,0.73206c-0.12493,0.11109 -0.24423,0.0418 -0.36382,0.04125c-0.11954,-0.00056 -0.24404,-0.0269 -0.37849,-0.03611c-0.12887,-0.18964 -0.1479,-0.43036 -0.21692,-0.65411c0.21461,-0.12788 0.4039,-0.10983 0.60804,-0.08307z" fill="#c8e0e1"/><path d="M257.34966,202.72445c-0.13864,-0.24127 -0.27243,-0.45674 -0.42598,-0.70663c0.21954,-0.10212 0.43374,-0.0925 0.64327,-0.17749c0.1687,0.18985 0.20273,0.43921 0.30151,0.68027c-0.18971,0.11942 -0.34447,0.21323 -0.51879,0.20381z" fill="#c6ddde"/><path d="M256.00485,199.76214c0.3538,-0.02415 0.68729,0.05471 1.04131,-0.03816c0.14894,0.15535 0.29297,0.28495 0.38686,0.5002c-0.22468,0.14503 -0.42908,0.18709 -0.63275,0.02286c-0.23838,-0.20732 -0.52693,-0.32897 -0.79543,-0.48489z" fill="#b9cfd0"/><path d="M249.81603,207.4414c-0.10488,0.07685 -0.14942,-0.01785 -0.21906,-0.03537c-0.15429,-0.04369 -0.29853,-0.10447 -0.4482,-0.05361c-0.24426,0.04183 -0.3983,-0.07055 -0.55724,-0.20881c-0.06456,-0.06049 -0.1191,-0.13804 -0.20346,-0.23295c0.29438,-0.12757 0.54376,-0.2123 0.78705,0.02081c0.16385,0.16401 0.38268,0.26818 0.56654,0.39791c0.04473,0.02601 0.08949,0.05198 0.07435,0.11205z" fill="#c0d8d8"/><path d="M253.07583,208.39306c-0.18437,0.00774 -0.3237,-0.02728 -0.44303,-0.09655c-0.05963,-0.03465 -0.13427,-0.07794 -0.15895,-0.1382c-0.10369,-0.26688 -0.25238,-0.49097 -0.40105,-0.71509c0.07018,-0.11996 0.11978,-0.06819 0.16457,-0.04221c0.14916,0.08663 0.31324,0.18189 0.48244,0.23425c0.21394,0.07833 0.31812,0.20771 0.32232,0.43976c-0.00535,0.11168 0.00931,0.18909 0.03377,0.31806z" fill="#c1d9d9"/><path d="M256.3225,204.44682c0.10392,0.1981 0.14305,0.40457 0.21203,0.62828c-0.19972,0.13656 -0.39384,0.09267 -0.58825,0.11758c-0.12374,-0.23258 -0.14775,-0.49907 -0.21157,-0.76577c0.21932,-0.03334 0.39856,0.00185 0.58781,0.01989z" fill="#c3dbdc"/><path d="M250.67816,201.55926c-0.26898,-0.01841 -0.513,-0.04535 -0.76702,-0.05512c-0.09418,-0.14651 -0.17337,-0.28437 -0.17269,-0.4906c0.20955,-0.08496 0.40879,-0.08402 0.6181,-0.10029c0.1538,0.1812 0.25774,0.37925 0.32159,0.64595z" fill="#c3dadb"/><path d="M256.11661,206.3707c-0.03401,-0.24938 -0.06313,-0.4729 -0.09226,-0.69644c0.20463,-0.11077 0.40391,-0.10985 0.60315,-0.10892c0.06409,0.19793 0.08833,0.39567 0.07755,0.61902c-0.0599,0.03408 -0.14476,0.07665 -0.1946,0.09363c-0.1396,0.03372 -0.24425,0.04185 -0.39389,0.0927z" fill="#c4dbdc"/><path d="M251.48241,208.17948c0.28341,0.1646 0.50716,0.29454 0.74581,0.43306c0.0543,0.14634 0.06873,0.29251 0.02326,0.47271c-0.1347,0.05949 -0.21908,-0.03538 -0.32861,-0.0531c-0.10951,-0.0177 -0.20906,-0.05253 -0.28366,-0.09581c-0.04897,-0.25806 -0.0881,-0.46447 -0.15682,-0.75693z" fill="#c2d9da"/><path d="M248.12727,203.08551c-0.07922,-0.13785 -0.11864,-0.27551 -0.11815,-0.41301c0.06527,-0.14577 0.1949,-0.16236 0.28971,-0.22207c0.09482,-0.05972 0.16989,-0.15388 0.30436,-0.14466c0.12911,0.1209 0.19318,0.31884 0.28715,0.5341c-0.12471,0.04242 -0.24941,0.0848 -0.35917,0.13583c-0.13959,0.03369 -0.2792,0.06748 -0.40391,0.10986z" fill="#c5ddde"/><path d="M257.43888,204.31448c0.09906,0.17234 0.06362,0.33545 0.09298,0.49024c-0.18483,0.1452 -0.38924,0.18724 -0.61857,0.23777c-0.04918,-0.18926 -0.09832,-0.37857 -0.15752,-0.55074c0.22468,-0.14501 0.45381,-0.1268 0.6831,-0.1773z" fill="#c3dbdc"/><path d="M248.98646,205.30656c-0.08486,0.04261 -0.13469,0.05956 -0.18456,0.07652c-0.11465,0.02525 -0.24426,0.04185 -0.38385,0.07555c-0.13864,-0.24127 -0.30739,-0.43108 -0.36122,-0.71491c0.1,-0.10269 0.20464,-0.11079 0.34914,-0.1187c0.18363,0.19849 0.38707,0.43146 0.58054,0.68152z" fill="#c7dfe0"/><path d="M254.8793,206.91491c0.01909,0.24068 0.1081,0.43014 0.07243,0.66199c-0.17972,0.10226 -0.35377,0.02416 -0.51343,0.09215c-0.10368,-0.26689 -0.12282,-0.50755 -0.17173,-0.76559c0.23449,-0.09345 0.39852,0.00183 0.61273,0.01139z" fill="#c7dee0"/><path d="M257.41489,208.38742c-0.03028,0.12014 -0.14522,0.21413 -0.14077,0.37743c0.21394,0.07833 0.4528,0.14819 0.63668,0.27792c-0.05501,0.05992 -0.12004,0.13694 -0.18992,0.18818c-0.10488,0.07685 -0.21954,0.10208 -0.32399,0.04146c-0.18899,-0.08678 -0.36309,-0.16492 -0.55212,-0.25177c0.13028,-0.22283 0.20536,-0.317 0.57013,-0.63326z" fill="#61acb1"/><path d="M251.86368,198.71177c0.079,0.20663 0.13816,0.3787 0.20714,0.60248c-0.25403,-0.00975 -0.49312,-0.01087 -0.73716,-0.03777c-0.06924,-0.15497 -0.12349,-0.30135 -0.14285,-0.47328c0.23447,-0.09344 0.43371,-0.09251 0.67284,-0.09142z" fill="#c2dada"/><path d="M253.45407,208.49795c-0.079,-0.20663 -0.0883,-0.39569 -0.1174,-0.61928c0.24892,0.05268 0.46799,0.08808 0.68709,0.12349c0.09418,0.14651 0.06875,0.29249 0.06312,0.47291c-0.1946,0.09363 -0.38878,0.04977 -0.63275,0.02286z" fill="#c1d9d9"/><path d="M250.23354,200.47445c-0.23937,0.06763 -0.4188,0.10117 -0.60831,0.15185c-0.11909,-0.13805 -0.14331,-0.3358 -0.16753,-0.53357c0.16478,-0.11092 0.33444,-0.19607 0.54375,-0.2123c0.14892,0.15536 0.12326,0.37011 0.23212,0.59401z" fill="#c6dedf"/><path d="M257.98663,202.93355c0.06408,0.19792 0.10321,0.40436 0.1524,0.59363c-0.1051,0.14559 -0.2249,0.21378 -0.38948,0.25601c-0.1538,-0.1812 -0.14791,-0.43036 -0.24187,-0.64563c0.14986,-0.11963 0.30436,-0.14466 0.47893,-0.20402z" fill="#c0d7d7"/><path d="M248.25697,205.93893c0.12397,0.16382 0.29293,0.28494 0.35193,0.52579c-0.16457,0.04221 -0.31422,0.09305 -0.46381,0.14393c-0.17896,-0.10396 -0.27801,-0.27626 -0.31714,-0.48267c0.12493,-0.11111 0.24959,-0.15351 0.42904,-0.18708z" fill="#c3dadb"/><path d="M256.16497,208.23566c-0.0401,0.06856 -0.06527,0.1458 -0.10534,0.21438c0.09906,0.17235 0.30317,0.19906 0.45724,0.31145c-0.05524,0.12864 -0.18484,0.14522 -0.26989,0.25653c-0.23399,-0.04405 -0.38293,-0.1994 -0.64697,-0.19202c0.08533,-0.18004 0.19016,-0.25689 0.30511,-0.35093c0.07993,-0.0684 0.1203,-0.20568 0.25987,-0.23938z" fill="url(#color-16)"/><path d="M257.8046,199.38362c0.12397,0.16382 0.29296,0.28496 0.34701,0.50001c-0.1,0.10269 -0.19978,0.13658 -0.34937,0.18747c-0.14404,-0.12957 -0.26802,-0.29341 -0.34214,-0.47419c0.1,-0.10267 0.18484,-0.14523 0.34448,-0.21323z" fill="#bdd3d4"/><path d="M257.07451,205.9626c-0.01933,-0.17198 -0.04867,-0.32677 -0.07804,-0.48155c0.16478,-0.11093 0.32934,-0.15316 0.50878,-0.18671c0.08925,0.12071 0.04896,0.25806 -0.02121,0.37801c-0.09017,0.15428 -0.18036,0.3085 -0.4095,0.29027z" fill="#bdd4d5"/><path d="M253.48512,198.02322c0.12885,0.18964 0.24283,0.37064 0.37169,0.56025c-0.41343,-0.01048 -0.74693,-0.0894 -0.80005,-0.57944c0.1347,-0.05949 0.26405,-0.00736 0.42834,0.01918z" fill="#bbd2d3"/><path d="M255.7994,207.35741c-0.13984,0.10244 -0.26944,0.11905 -0.39903,0.13561c-0.1044,-0.06063 -0.08412,-0.16369 -0.10367,-0.26689c-0.01468,-0.0774 -0.04427,-0.16344 0.00097,-0.27496c0.13984,-0.10244 0.28898,-0.01588 0.44373,-0.10967c0.07414,0.1808 0.07854,0.34406 0.05805,0.51582z" fill="#c3dadb"/><path d="M252.56611,203.04597c-0.24842,-0.19023 -0.49685,-0.38039 -0.70518,-0.63916c0.07505,-0.09414 0.15968,-0.06804 0.23421,-0.02468c0.20392,0.09547 0.39779,0.20804 0.57679,0.312c0.13422,0.07794 0.10394,0.19815 -0.10583,0.35183z" fill="#b1c6c7"/><path d="M258.58775,201.97391c-0.09929,-0.10353 -0.08391,-0.2324 -0.11838,-0.34426c-0.079,-0.20663 -0.00371,-0.36953 0.19117,-0.53192c0.14868,0.22412 0.16264,0.50777 0.18175,0.74843c-0.08507,0.11133 -0.14499,0.14543 -0.25452,0.12774z" fill="#bbd2d3"/><path d="M253.75995,200.66261c-0.32349,-0.09602 -0.50688,-0.36325 -0.71524,-0.622c0.26897,0.01842 0.49268,0.14839 0.71152,0.25249c0.14426,0.06082 0.14407,0.12957 0.00371,0.36951z" fill="#bad1d2"/><path d="M256.75984,198.98357c0.18949,-0.05066 0.34915,-0.11866 0.53859,-0.16935c0.06456,0.06046 0.1389,0.17251 0.22326,0.26742c-0.25498,0.26521 -0.2699,0.25654 -0.45381,0.1268c-0.10439,-0.06065 -0.19879,-0.13844 -0.30808,-0.22486z" fill="#b5cbcc"/><path d="M248.63409,200.57867c0.14498,-0.14541 0.27969,-0.20497 0.41438,-0.26447c0.10419,0.12939 0.08363,0.30115 0.10299,0.4731c-0.14472,0.07669 -0.27943,0.13616 -0.42416,0.21284c-0.12422,-0.09509 -0.06387,-0.26666 -0.09322,-0.42151z" fill="#c0d7d8"/><path d="M257.32673,200.71352c0.08997,-0.08548 0.20463,-0.11079 0.33422,-0.12739c0.16382,0.16404 0.25777,0.37928 0.30177,0.61151c-0.05524,0.12864 -0.12003,0.13692 -0.21462,0.12788c-0.14381,-0.19826 -0.28759,-0.39659 -0.42134,-0.61206z" fill="#bdd4d4"/><path d="M251.7304,198.35884c-0.19439,0.02487 -0.39361,0.02398 -0.58801,0.04884c-0.03448,-0.11188 -0.01422,-0.2149 0.04589,-0.31775c0.08996,-0.08548 0.18457,-0.07651 0.2892,-0.08461c0.07971,0.00037 0.15941,0.00074 0.23913,0.0011c0.05944,0.10341 0.07901,0.20661 0.01373,0.35241z" fill="#b6cccc"/><path d="M249.45766,201.56214c-0.18949,0.05066 -0.35402,0.09288 -0.55354,0.16072c-0.07947,-0.06911 -0.13892,-0.1725 -0.09346,-0.35276c0.14472,-0.07672 0.30438,-0.14468 0.47403,-0.22983c0.07922,0.13785 0.15359,0.24991 0.17291,0.42187z" fill="#c1d9d9"/><path d="M252.59361,197.94187c0.07922,0.13785 0.12866,0.2584 0.13305,0.42168c-0.18949,0.05066 -0.3587,-0.00169 -0.50807,-0.01955c-0.09929,-0.10353 -0.06896,-0.22372 -0.06362,-0.33541c0.04499,-0.04275 0.06502,-0.07704 0.07994,-0.06841c0.11953,0.00058 0.2391,0.00112 0.3587,0.00169z" fill="#b7cdce"/><path d="M254.40761,197.77824c-0.24427,0.04182 -0.3785,-0.03611 -0.53278,-0.07979c-0.17923,-0.03519 -0.17875,-0.17269 -0.18318,-0.33596c0.18949,-0.05066 0.34376,-0.007 0.5032,-0.00625c0.1291,0.1209 0.07363,0.31829 0.21277,0.42205z" fill="#b6cccc"/><path d="M258.35968,200.21128c0.06923,0.15499 0.11862,0.2755 0.18295,0.40471c-0.0753,0.16293 -0.13544,0.26576 -0.28015,0.34243c-0.07412,-0.1808 -0.15823,-0.34445 -0.22745,-0.49943c0.04542,-0.18023 0.17504,-0.1968 0.25005,-0.291c0.02983,0.01733 0.0697,0.01751 0.0746,0.0433z" fill="#c2dada"/><path d="M248.38138,201.62586c0.0743,0.11205 0.08903,0.18945 0.06876,0.29249c-0.04524,0.11152 -0.14497,0.1454 -0.23983,0.20513c-0.08485,0.0426 -0.1699,0.1539 -0.28434,0.1104c-0.03936,-0.13767 -0.05383,-0.2838 0.00655,-0.45542c0.15964,-0.06802 0.29926,-0.10173 0.4489,-0.1526z" fill="#bbd2d3"/><path d="M254.47533,208.49411c-0.00442,-0.16328 -0.01397,-0.28364 -0.01351,-0.42112c0.17458,-0.05936 0.33398,-0.05858 0.50344,-0.07502c0.04939,0.12051 0.05897,0.24089 -0.01124,0.36084c-0.03496,0.02564 -0.06992,0.05122 -0.10979,0.05107c-0.09972,0.03391 -0.21445,0.05914 -0.36896,0.08423z" fill="#bbd2d3"/><path d="M257.01545,198.51222c-0.28435,0.1104 -0.28437,0.11042 -0.58799,0.04883c-0.06922,-0.15501 -0.00393,-0.30078 0.04153,-0.481c0.23891,0.06985 0.38268,0.26815 0.5465,0.43219z" fill="#adc2c3"/><path d="M256.17861,207.18729c-0.04939,-0.12051 -0.04891,-0.25806 0.00634,-0.38665c0.17458,-0.05936 0.32414,-0.11025 0.48869,-0.15239c-0.02122,0.378 -0.03121,0.39514 -0.49502,0.53911z" fill="#b5cbcc"/><path d="M250.77717,198.86144c0.05433,0.14634 0.08876,0.25823 0.09318,0.42152c-0.15471,0.09379 -0.31907,0.06725 -0.49853,0.1008c-0.0247,-0.06028 -0.03446,-0.11185 -0.04428,-0.16346c-0.00979,-0.05162 0.00535,-0.11168 0.00559,-0.18044c0.13494,-0.12827 0.27453,-0.16199 0.444,-0.17841z" fill="#bbd1d2"/><path d="M253.17297,209.11538c-0.20464,0.11076 -0.39363,0.02397 -0.56306,0.04039c-0.06431,-0.12919 -0.00908,-0.25785 -0.00859,-0.39537c0.23421,-0.02473 0.40342,0.02765 0.53741,0.17436c0.04474,0.02601 0.0345,0.11187 0.03426,0.1806z" fill="#b6cccd"/><path d="M247.67268,204.88801c0.12374,0.23258 0.22254,0.47367 0.33135,0.69757c-0.08509,0.11132 -0.16988,0.15389 -0.31438,0.16183c-0.06387,-0.26666 -0.1277,-0.53335 -0.11674,-0.82546c0.04991,-0.01697 0.07482,-0.02543 0.09974,-0.03391z" fill="#acc1c2"/><path d="M252.59205,201.29315c0.22397,0.06119 0.43792,0.13952 0.61174,0.28641c0.06456,0.06049 0.09415,0.14651 0.04406,0.23219c-0.02003,0.03424 -0.08996,0.08549 -0.1049,0.07685c-0.23375,-0.1128 -0.38732,-0.36268 -0.55092,-0.59545z" fill="#a7bbbb"/><path d="M249.92434,199.12388c0.06946,0.08626 0.06409,0.19793 0.0487,0.32676c-0.15964,0.06802 -0.31931,0.13601 -0.47896,0.20402c-0.07922,-0.13785 -0.034,-0.24936 0.03614,-0.36932c0.10488,-0.07685 0.2545,-0.12773 0.39414,-0.16143z" fill="#b7cdcd"/><path d="M257.94066,204.7206c-0.09906,-0.17235 -0.10344,-0.33562 -0.09786,-0.51605c0.12493,-0.11111 0.24473,-0.17933 0.41906,-0.16992c-0.03079,0.25764 -0.16598,0.45466 -0.32117,0.68596z" fill="#b7cece"/><path d="M251.26933,209.2956c-0.24914,0.01603 -0.40294,-0.16512 -0.60221,-0.16602c-0.04938,-0.12051 0.00561,-0.18042 0.07042,-0.18874c0.16943,-0.01642 0.34378,-0.007 0.49291,0.07963c0.03474,0.04312 0.04964,0.0518 0.03892,0.27517z" fill="#b4cacb"/><path d="M248.17799,204.26309c-0.10486,0.07684 -0.17969,0.10228 -0.27431,0.09329c-0.079,-0.20663 -0.1729,-0.42187 -0.15191,-0.73114c0.26357,0.13011 0.32251,0.371 0.42624,0.63786z" fill="#b2c8c9"/><path d="M255.35397,207.94829c0.14472,-0.07669 0.25452,-0.12772 0.36404,-0.11001c0.04964,0.05179 0.03451,0.1119 0.01935,0.17198c-0.0606,0.2403 -0.21515,0.26538 -0.41438,0.26446c0.02025,-0.10301 0.02564,-0.21473 0.03101,-0.3264z" fill="#b5cbcb"/><path d="M254.28235,199.4276c-0.20392,-0.09546 -0.36798,-0.19072 -0.51688,-0.34608c0.03522,-0.09435 0.09998,-0.10265 0.14473,-0.07668c0.11446,0.04351 0.23892,0.06987 0.35332,0.11335c0.11932,0.0693 0.10904,0.15516 0.01882,0.3094z" fill="#91a3a3"/><path d="M250.1755,205.7675c0.24914,-0.01603 0.43302,0.1137 0.61199,0.21768c0.02983,0.01733 0.03962,0.06893 0.03447,0.11187c-0.02003,0.03426 -0.07993,0.0684 -0.09487,0.05974c-0.23891,-0.06985 -0.41273,-0.21673 -0.55163,-0.38923z" fill="#99abac"/><path d="M250.20157,206.88464c-0.01048,0.15463 -0.06062,0.24032 -0.15525,0.23129c-0.12446,-0.02637 -0.25355,-0.14727 -0.40736,-0.32841c0.21934,-0.03339 0.38336,0.06191 0.56258,0.09711z" fill="#93a5a6"/><path d="M258.73383,202.95415c-0.08387,-0.23242 -0.19273,-0.45633 0.10701,-0.69556c0.09875,0.24109 -0.03149,0.46388 -0.10701,0.69556z" fill="#9aadad"/><path d="M255.87886,201.61768c-0.1494,-0.01788 -0.31369,-0.0444 -0.44819,-0.05364c-0.04449,-0.09474 -0.02936,-0.15481 0.04572,-0.249c0.18438,-0.00775 0.29344,0.14743 0.4377,0.20824c-0.02003,0.03426 -0.03009,0.05141 -0.03521,0.09438z" fill="#c5dddd"/><path d="M251.50799,203.62537c0.28409,-0.04165 0.47801,0.07098 0.63182,0.25212c0.01491,0.00866 0.0098,0.05164 -0.01026,0.08591c-0.01516,0.06008 -0.07993,0.0684 -0.10976,0.05105c-0.17411,-0.0781 -0.32302,-0.23353 -0.5118,-0.38906z" fill="#aec2c3"/><path d="M253.52232,208.92795c0.18949,-0.05066 0.36869,-0.01549 0.53302,0.01108c0.04452,0.09472 -0.01051,0.15465 -0.09021,0.15429c-0.14452,0.00792 -0.27409,0.02449 -0.42346,0.0066c-0.04991,0.01697 -0.06454,-0.06043 -0.01933,-0.17195z" fill="#9caeaf"/><path d="M249.07995,199.85035c-0.13497,0.12829 -0.25472,0.19645 -0.4144,0.26446c0.07062,-0.25746 0.22562,-0.42002 0.3459,-0.62567c0.03474,0.04314 0.06456,0.06049 0.06942,0.08625c0.00464,0.09454 -0.00561,0.18041 -0.00092,0.27496z" fill="#a9bebf"/><path d="M253.08917,205.94423c0.04035,-0.13733 0.09531,-0.19718 0.18021,-0.23978c0.15916,0.06951 0.26332,0.19888 0.31227,0.4569c-0.19905,-0.06967 -0.33326,-0.14764 -0.49246,-0.21708z" fill="#b9cfd0"/><path d="M255.86329,200.34585c-0.0445,-0.09473 -0.0193,-0.17196 0.00584,-0.24918c0.07995,-0.06838 0.15451,-0.0251 0.48243,0.23425c-0.20975,0.15371 -0.34378,0.00702 -0.48828,0.01492z" fill="#869797"/><path d="M250.93647,204.67112c0.20858,0.19001 0.50761,0.15703 0.54627,0.50091c-0.26384,-0.06135 -0.43278,-0.18242 -0.54627,-0.50091z" fill="#93a4a5"/><path d="M254.07263,198.11188c0.22371,0.12993 0.37287,0.21656 0.52204,0.30317c0.02983,0.01733 0.03962,0.06893 0.00954,0.12033c-0.01003,0.01716 -0.04499,0.04276 -0.06993,0.05126c-0.19904,-0.06964 -0.36314,-0.16496 -0.46167,-0.47473z" fill="#94a5a6"/><path d="M256.12075,199.39312c0.00051,-0.13749 0.0156,-0.19755 0.12538,-0.24862c0.12933,0.05215 0.27362,0.11297 0.39271,0.25102c-0.20466,0.11074 -0.35376,0.02414 -0.51806,-0.00238z" fill="#abbfc0"/><path d="M253.36277,197.37816c-0.02027,0.10302 -0.02541,0.14596 -0.04547,0.18027c-0.31907,0.06728 -0.31904,0.06726 -0.49777,-0.10542c0.18971,-0.11942 0.33885,-0.03285 0.54323,-0.07483z" fill="#acc0c1"/><path d="M258.14817,202.3155c-0.05919,-0.17215 -0.14332,-0.33579 -0.19248,-0.52507c-0.01468,-0.0774 0.02544,-0.14595 0.14496,-0.14539c0.079,0.20663 0.14307,0.40453 0.0475,0.67046z" fill="#9fb2b2"/><path d="M250.73357,198.49169c-0.10981,0.05106 -0.18461,0.07646 -0.27921,0.06745c-0.03964,-0.06893 -0.0394,-0.13767 -0.0042,-0.23204c0.07506,-0.09415 0.18972,-0.1194 0.30437,-0.14465c0.06946,0.08626 0.02423,0.19775 -0.02099,0.30922z" fill="#aec2c3"/><path d="M254.78554,203.76079c-0.15471,0.0938 -0.25918,0.03316 -0.3736,-0.01032c-0.04473,-0.02601 -0.04448,-0.0947 -0.01443,-0.14614c0.02003,-0.03426 0.07995,-0.06841 0.10976,-0.05106c0.11954,0.00056 0.18903,0.08682 0.27824,0.20753z" fill="#91a2a3"/><path d="M248.21944,200.91189c0.14332,0.33581 0.14825,0.36159 -0.19087,0.46316c0.05038,-0.15444 0.04592,-0.31773 0.19087,-0.46316z" fill="#869696"/><path d="M249.62537,207.83577c-0.20954,0.08496 -0.26894,-0.0184 -0.36336,-0.09621c0.16478,-0.11092 0.16478,-0.11092 0.36336,0.09621z" fill="#555f5f"/><path d="M254.99415,202.48147c0.07459,0.04331 0.17896,0.10394 0.25333,0.21601c-0.22445,0.0763 -0.28408,0.04164 -0.34842,-0.08752c-0.0198,-0.03447 0.01026,-0.0859 0.0951,-0.12844z" fill="#93a5a6"/><path d="M254.61292,197.46133c0.27921,-0.06746 0.29903,-0.03302 0.18338,0.26723c-0.12448,-0.02637 -0.15895,-0.13819 -0.18338,-0.26723z" fill="#8b9b9c"/><path d="M248.89289,207.89255c0.17922,0.03521 0.28849,0.12162 0.39782,0.20809c-0.01537,0.12882 -0.07531,0.16292 -0.13496,0.12825c-0.11933,-0.06929 -0.22862,-0.15573 -0.26286,-0.33631z" fill="#9aacad"/><path d="M252.18161,197.5188c0.1347,-0.05949 0.23961,-0.13637 0.34891,-0.04995c0.01492,0.00868 0.01982,0.03446 0.0098,0.05161c-0.12006,0.13694 -0.22961,0.11925 -0.35869,-0.00167z" fill="#5f6a6b"/><path d="M253.99471,204.83992c-0.08973,0.01676 -0.14942,-0.01787 -0.19905,-0.06968c-0.0198,-0.03447 -0.02958,-0.08607 0.00538,-0.11168c0.03496,-0.02564 0.08485,-0.0426 0.11467,-0.02523c0.05963,0.03465 0.10929,0.08644 0.07899,0.20661z" fill="#636e6f"/><path d="M249.83588,198.79684c0.02544,-0.14596 0.09043,-0.223 0.24983,-0.22228c-0.02053,0.17176 -0.10534,0.21436 -0.24983,0.22228z" fill="#4a5354"/></g><g data-paper-data="{&quot;index&quot;:null}" fill="#000000" stroke="#000000" stroke-width="1.2"><path d="M265.5346,222.67037c-1.81202,-0.48249 -3.34503,-3.41649 -5.13136,-4.80744c-1.92322,-1.49757 -3.93339,-1.40402 -4.42685,-2.96422c-0.34465,-1.08979 0.5476,-2.50609 1.10208,-3.18553c1.34827,-1.65222 5.08937,-0.92961 8.35596,1.61399c3.26659,2.54359 4.82171,5.94496 3.47344,7.59715c-0.61096,0.7487 -1.87171,2.14586 -3.37325,1.74607z"/><path d="M269.35372,220.94905c-2.51867,-0.69606 -6.46567,-5.09339 -6.46567,-5.09339c0,0 -3.67718,-1.36998 -3.74356,-1.4237c-4.2299,-3.42224 -1.94259,-6.3204 0.7123,-9.57375c1.26354,-1.54839 3.80266,-3.46515 5.83754,-3.26467c2.3078,0.22736 4.05409,2.35779 6.45242,4.22532c4.51304,3.51418 6.74982,8.4609 4.05327,11.76533c-1.18702,1.45459 -3.48234,4.29452 -6.84631,3.36486z"/></g></g><g data-paper-data="{&quot;index&quot;:null}" fill-rule="nonzero" stroke="none" stroke-width="1" stroke-linecap="butt" stroke-linejoin="miter"><path d="M376.29151,235.92831c2.6,0 7.8,1.3 7.8,1.3c-3.1,0 -14.8,1.3 -14.8,1.3c6,-1.1 15.8,1 15.8,1c-2,2 -11.1,4.1 -11.1,4.1c4.4,0 11.7,-1.8 11.7,-1.8c-3.1,3.9 -10.6,6.2 -10.6,6.2c4.1,0 8,-1.6 8,-1.6c-7.2,6.7 -27.2,9.6 -27.2,9.6c14.8,0.2 25.4,-4.7 25.4,-4.7c-8.5,6.8 -30.3,7.8 -30.3,7.8c6,1.5 13.5,0.5 13.5,0.5c-35,8.6 -54.2,-6.7 -54.2,-6.7c-17.9,8.1 -26.7,-5.2 -26.2,-11.9c0,0 3.1,-13.3 19.2,-15.6c0,0 -8,2.3 -9.8,5.7c0,0 9.3,-7.3 18.9,0.5c0,0 6.9,-9.2 41.4,-11.8c0,0 -10.8,2 -19.3,5.3c0,0 23.6,-8 43.8,0.8c0,0 -15,-3.1 -20.7,-1c0,0 16.3,-1 25.1,7.3c0,0 -9.9,-1.3 -15.6,-0.3c0,0 13,1.5 15.3,2.3z" fill="#f2c063"/><path d="M310.39151,252.92831c0,0 -0.4,0.2 -1.1,0.6c-0.7,0.4 -1.7,0.8 -3,1.3c-0.6,0.2 -1.4,0.4 -2.1,0.6c-0.8,0.2 -1.6,0.3 -2.4,0.4c-0.9,0.1 -1.7,0.1 -2.6,0.1c-0.9,0 -1.8,-0.1 -2.7,-0.3l-1.3,-0.4c-0.4,-0.2 -0.8,-0.3 -1.3,-0.5c-0.4,-0.2 -0.8,-0.4 -1.2,-0.6c-0.4,-0.2 -0.8,-0.4 -1.1,-0.6c-0.7,-0.5 -1.4,-1 -2,-1.5c-0.6,-0.5 -1.1,-1.1 -1.6,-1.6c-0.5,-0.5 -0.8,-1 -1.1,-1.5c-0.3,-0.5 -0.5,-0.9 -0.7,-1.2c-0.4,-0.7 -0.5,-1.1 -0.5,-1.1c0,0 0.2,0.4 0.6,1.1c0.4,0.7 1.1,1.6 2,2.5c0.5,0.5 1,1 1.6,1.5c0.6,0.5 1.3,0.9 2,1.4c0.4,0.2 0.7,0.4 1.1,0.6c0.4,0.2 0.8,0.3 1.2,0.5c0.4,0.1 0.8,0.3 1.3,0.4l1.3,0.3c0.9,0.2 1.7,0.3 2.6,0.3c0.9,0 1.7,0 2.6,0c1.7,-0.1 3.2,-0.4 4.5,-0.8c2.2,-0.7 3.9,-1.5 3.9,-1.5z" fill="#d18b44"/><path d="M293.49151,231.12831c0,0 0.2,-0.2 0.7,-0.6c0.5,-0.3 1.1,-0.8 2,-1.2c0.4,-0.2 0.9,-0.4 1.4,-0.6c0.5,-0.2 1.1,-0.4 1.7,-0.5c0.6,-0.1 1.2,-0.2 1.8,-0.3c0.6,-0.1 1.3,-0.1 1.9,-0.1c0.6,0 1.3,0.1 1.9,0.2c0.6,0.1 1.2,0.3 1.8,0.4c0.6,0.2 1.1,0.4 1.6,0.6c0.5,0.2 1,0.5 1.4,0.7c0.4,0.2 0.8,0.4 1.1,0.7c0.3,0.2 0.6,0.4 0.8,0.6c0.4,0.3 0.7,0.5 0.7,0.5c0,0 -0.3,-0.1 -0.8,-0.4c-0.2,-0.1 -0.5,-0.3 -0.9,-0.5c-0.3,-0.2 -0.7,-0.4 -1.2,-0.6c-0.4,-0.2 -0.9,-0.4 -1.4,-0.6c-0.5,-0.2 -1,-0.3 -1.6,-0.5c-0.6,-0.1 -1.2,-0.3 -1.8,-0.4c-0.6,0 -1.2,-0.2 -1.8,-0.2c-0.6,0 -1.2,-0.1 -1.8,0c-0.6,0 -1.2,0.1 -1.8,0.2c-0.6,0.1 -1.1,0.3 -1.6,0.4c-0.5,0.2 -1,0.3 -1.4,0.5c-0.9,0.3 -1.6,0.7 -2.1,1c-0.3,0.5 -0.6,0.7 -0.6,0.7z" fill="#d18b44"/><path d="M303.39151,225.42831c0,0 -1.5,0.1 -3.5,0.8c-0.5,0.1 -1.1,0.4 -1.7,0.6c-0.6,0.2 -1.2,0.5 -1.8,0.8c-0.6,0.3 -1.2,0.6 -1.8,1c-0.6,0.3 -1.2,0.8 -1.8,1.2c-0.6,0.4 -1.1,0.9 -1.7,1.3c-0.5,0.5 -1,1 -1.5,1.4c-0.5,0.5 -0.9,1 -1.3,1.4c-0.4,0.4 -0.7,1 -1.1,1.4c-0.3,0.4 -0.6,0.8 -0.9,1.2c-0.2,0.4 -0.4,0.7 -0.6,1c-0.3,0.5 -0.5,0.8 -0.5,0.8c0,0 0.2,-0.3 0.4,-0.9c0.1,-0.3 0.3,-0.6 0.5,-1c0.2,-0.4 0.5,-0.8 0.8,-1.3c0.3,-0.5 0.6,-1 1,-1.5c0.4,-0.5 0.8,-1 1.3,-1.5c0.5,-0.5 1,-1 1.5,-1.5c0.6,-0.5 1.1,-1 1.7,-1.4c0.6,-0.4 1.2,-0.8 1.9,-1.2c0.6,-0.4 1.3,-0.7 1.9,-1c0.6,-0.3 1.3,-0.5 1.9,-0.7c0.6,-0.2 1.2,-0.4 1.7,-0.5c1.1,-0.3 2,-0.4 2.6,-0.4c0.6,0 1,0 1,0z" fill="#d18b44"/><path d="M314.59151,229.92831c0,0 0.2,-0.1 0.4,-0.3c0.2,-0.2 0.6,-0.5 1,-0.8c0.5,-0.3 1,-0.7 1.7,-1.1c0.7,-0.4 1.5,-0.8 2.3,-1.2c0.9,-0.4 1.8,-0.8 2.9,-1.2c1,-0.4 2.1,-0.7 3.3,-1.1c1.2,-0.3 2.4,-0.7 3.6,-1c1.2,-0.3 2.5,-0.6 3.7,-0.9c1.3,-0.2 2.5,-0.5 3.8,-0.7c1.2,-0.2 2.5,-0.4 3.7,-0.6c2.4,-0.4 4.6,-0.5 6.5,-0.8c1.9,-0.2 3.5,-0.3 4.6,-0.4c1.1,-0.1 1.8,-0.1 1.8,-0.1c0,0 -2.5,0.4 -6.4,0.8c-1.9,0.3 -4.1,0.6 -6.5,1c-1.2,0.2 -2.4,0.4 -3.6,0.6c-1.2,0.2 -2.5,0.5 -3.7,0.7c-1.2,0.3 -2.5,0.5 -3.7,0.8c-1.2,0.3 -2.4,0.6 -3.6,0.9c-1.1,0.4 -2.3,0.6 -3.3,1c-1,0.3 -2,0.7 -2.9,1.1c-0.9,0.4 -1.7,0.7 -2.4,1.1c-0.7,0.3 -1.3,0.7 -1.7,1c-0.5,0.3 -0.8,0.6 -1.1,0.8c-0.3,0.3 -0.4,0.4 -0.4,0.4z" fill="#d18b44"/><path d="M287.99151,239.02831c0,0 0.1,-0.2 0.3,-0.6c0.2,-0.4 0.5,-0.9 1,-1.5c0.2,-0.3 0.5,-0.6 0.8,-0.9c0.3,-0.3 0.6,-0.6 1,-0.9c0.4,-0.3 0.8,-0.5 1.2,-0.8c0.4,-0.2 0.9,-0.5 1.3,-0.7c0.5,-0.2 0.9,-0.4 1.4,-0.5c0.5,-0.1 0.9,-0.3 1.4,-0.3c0.5,-0.1 0.9,-0.1 1.3,-0.2c0.4,0 0.8,0 1.2,-0.1c0.7,-0.1 1.4,0.1 1.8,0.1c0.4,0 0.7,0.1 0.7,0.1c0,0 -0.2,0 -0.7,0.1c-0.4,0 -1,0.1 -1.8,0.2c-0.4,0 -0.7,0.1 -1.2,0.2c-0.4,0.1 -0.8,0.2 -1.3,0.3c-0.4,0.1 -0.9,0.2 -1.3,0.4c-0.5,0.1 -0.9,0.3 -1.3,0.5c-0.4,0.2 -0.9,0.4 -1.3,0.6c-0.4,0.2 -0.8,0.5 -1.2,0.7c-0.4,0.3 -0.7,0.5 -1,0.8c-0.3,0.3 -0.6,0.5 -0.9,0.8c-0.5,0.5 -0.9,1 -1.1,1.3c-0.1,0.2 -0.3,0.4 -0.3,0.4z" fill="#d18b44"/><path d="M296.89151,235.82831c0,0 0.3,-0.2 0.8,-0.4c0.5,-0.2 1.3,-0.5 2.2,-0.8c0.5,-0.1 1,-0.2 1.5,-0.3c0.5,-0.1 1.1,-0.2 1.7,-0.2c0.6,0 1.2,-0.1 1.9,0c0.6,0 1.3,0 1.9,0.1c0.3,0.1 0.6,0.1 1,0.2c0.3,0.1 0.6,0.2 0.9,0.2c0.6,0.1 1.2,0.4 1.8,0.6c0.6,0.2 1.1,0.5 1.6,0.8c0.5,0.2 0.9,0.5 1.3,0.8c0.4,0.3 0.8,0.5 1.1,0.8c0.3,0.3 0.5,0.5 0.7,0.7c0.4,0.4 0.6,0.6 0.6,0.6c0,0 -0.3,-0.2 -0.7,-0.5c-0.2,-0.2 -0.5,-0.4 -0.8,-0.6c-0.3,-0.2 -0.7,-0.4 -1.1,-0.7c-0.4,-0.3 -0.8,-0.5 -1.3,-0.7c-0.5,-0.2 -1,-0.5 -1.6,-0.7c-0.6,-0.2 -1.1,-0.4 -1.7,-0.5c-0.3,-0.1 -0.6,-0.1 -0.9,-0.2l-0.9,-0.1c-0.6,-0.1 -1.2,-0.1 -1.9,-0.2c-0.6,0 -1.2,0 -1.8,0c-0.6,0.1 -1.2,0.1 -1.7,0.1c-0.5,0.1 -1,0.1 -1.5,0.2c-0.9,0.2 -1.7,0.4 -2.2,0.5c-0.6,0.2 -0.9,0.3 -0.9,0.3z" fill="#d18b44"/><path d="M312.89151,248.42831c0,0 -0.1,0.2 -0.4,0.5c-0.3,0.3 -0.7,0.8 -1.2,1.2c-0.3,0.2 -0.6,0.4 -1,0.6c-0.3,0.2 -0.7,0.4 -1.1,0.6c-0.4,0.2 -0.8,0.4 -1.3,0.5c-0.4,0.1 -0.9,0.3 -1.4,0.4c-0.5,0.1 -0.9,0.2 -1.4,0.2c-0.5,0.1 -0.9,0.1 -1.4,0.1c-0.4,0 -0.9,0 -1.3,0c-0.4,0 -0.8,0 -1.1,-0.1c-0.7,0 -1.3,-0.2 -1.7,-0.2c-0.4,-0.1 -0.6,-0.1 -0.6,-0.1c0,0 0.2,0 0.6,0c0.4,0 1,0 1.7,0c0.3,0 0.7,0 1.1,0c0.4,0 0.8,-0.1 1.2,-0.1c0.4,0 0.9,-0.1 1.3,-0.2c0.5,-0.1 0.9,-0.1 1.3,-0.2c0.5,-0.1 0.9,-0.2 1.3,-0.3c0.4,-0.1 0.8,-0.3 1.3,-0.4c0.4,-0.2 0.8,-0.3 1.1,-0.5c0.4,-0.2 0.7,-0.3 1,-0.5c1.4,-0.7 2,-1.5 2,-1.5z" fill="#d18b44"/><path d="M288.59151,243.42831c0,0 0.2,0.1 0.6,0.4c0.4,0.2 1,0.5 1.7,0.8c0.7,0.3 1.5,0.6 2.5,0.9c0.9,0.3 1.9,0.5 2.9,0.7c0.5,0.1 1,0.2 1.5,0.2c0.5,0 1,0.1 1.5,0.1c0.5,0 0.9,0 1.4,0c0.4,0 0.9,0 1.2,0c0.8,0 1.4,-0.1 1.9,-0.1c0.5,0 0.7,0 0.7,0c0,0 -0.3,0.1 -0.7,0.2c-0.4,0.1 -1.1,0.3 -1.9,0.4c-0.8,0.1 -1.7,0.2 -2.7,0.2c-0.5,0 -1,0 -1.5,-0.1c-0.5,0 -1,-0.1 -1.6,-0.2c-1,-0.2 -2.1,-0.4 -3,-0.8c-0.5,-0.1 -0.9,-0.3 -1.3,-0.5c-0.4,-0.2 -0.8,-0.4 -1.1,-0.6c-0.7,-0.4 -1.2,-0.8 -1.6,-1.1c-0.3,-0.3 -0.5,-0.5 -0.5,-0.5z" fill="#d18b44"/><path d="M296.49151,243.22831c0,0 1.2,0.1 3.1,0.1c0.9,0 2,0.1 3.1,0.1c1.1,0.1 2.4,0.1 3.6,0.1c1.2,0 2.4,0.1 3.6,0c1.1,0 2.2,-0.1 3.1,-0.2c0.5,-0.1 0.9,-0.1 1.2,-0.2c0.4,-0.1 0.7,-0.1 0.9,-0.2c0.5,-0.1 0.8,-0.2 0.8,-0.2c0,0 -0.3,0.1 -0.8,0.3c-0.2,0.1 -0.6,0.2 -0.9,0.3c-0.4,0.1 -0.8,0.2 -1.2,0.3c-0.9,0.2 -2,0.3 -3.1,0.4c-1.2,0.1 -2.4,0.1 -3.6,0.1c-1.2,0 -2.5,-0.1 -3.6,-0.2c-1.1,-0.1 -2.2,-0.2 -3.1,-0.3c-1.8,-0.1 -3.1,-0.4 -3.1,-0.4z" fill="#d18b44"/><path d="M314.59151,247.42831c0,0 1.6,0.5 3.9,1c1.2,0.3 2.6,0.6 4.1,0.9c1.5,0.3 3.1,0.6 4.7,0.8c0.8,0.1 1.6,0.2 2.4,0.3c0.8,0.1 1.6,0.1 2.3,0.2c0.8,0.1 1.5,0.1 2.2,0.1c0.7,0.1 1.4,0.1 2,0.1c1.2,0 2.2,0 3,0c0.7,0 1.1,0 1.1,0c0,0 -0.4,0 -1.1,0.1c-0.7,0.1 -1.7,0.2 -3,0.2c-0.6,0 -1.3,0 -2,0c-0.7,0 -1.5,0 -2.2,-0.1c-0.8,-0.1 -1.6,-0.1 -2.4,-0.2c-0.8,-0.1 -1.6,-0.1 -2.4,-0.3c-1.6,-0.2 -3.2,-0.5 -4.7,-0.8c-1.5,-0.3 -2.9,-0.7 -4.1,-1.1c-2.3,-0.6 -3.8,-1.2 -3.8,-1.2z" fill="#d18b44"/><path d="M312.19151,254.22831c0,0 0.7,0.5 2,1.1c0.7,0.3 1.5,0.8 2.4,1.2c0.9,0.4 2,0.9 3.2,1.3c1.2,0.5 2.5,0.9 3.9,1.3c1.4,0.4 2.8,0.8 4.4,1.2c0.8,0.2 1.5,0.4 2.3,0.5c0.8,0.1 1.6,0.3 2.4,0.4l1.2,0.2l1.2,0.1c0.8,0.1 1.7,0.2 2.5,0.3c1.7,0.2 3.4,0.2 5,0.3c1.7,0 3.3,0 4.9,-0.1c1.6,-0.1 3.1,-0.2 4.5,-0.4c0.7,0 1.4,-0.1 2.1,-0.2c0.7,-0.1 1.3,-0.2 1.9,-0.3c1.2,-0.2 2.4,-0.3 3.4,-0.6c1,-0.2 1.9,-0.4 2.6,-0.6c1.4,-0.3 2.3,-0.5 2.3,-0.5c0,0 -0.8,0.2 -2.2,0.6c-0.7,0.2 -1.6,0.4 -2.6,0.7c-1,0.3 -2.1,0.5 -3.4,0.7c-0.6,0.1 -1.3,0.2 -2,0.3c-0.7,0.1 -1.4,0.2 -2.1,0.3c-1.4,0.1 -3,0.3 -4.6,0.4c-1.6,0 -3.2,0.1 -4.9,0.1c-1.7,-0.1 -3.4,-0.1 -5.1,-0.3c-0.8,-0.1 -1.7,-0.2 -2.5,-0.3l-1.3,-0.1l-1.2,-0.2c-0.8,-0.1 -1.6,-0.3 -2.4,-0.4c-0.8,-0.2 -1.6,-0.4 -2.4,-0.6c-1.6,-0.3 -3,-0.8 -4.4,-1.3c-1.4,-0.5 -2.7,-0.9 -3.8,-1.4c-0.6,-0.3 -1.1,-0.5 -1.7,-0.7c-0.5,-0.3 -1,-0.5 -1.5,-0.7c-0.9,-0.4 -1.7,-0.9 -2.4,-1.3c-1,-0.5 -1.7,-1 -1.7,-1z" fill="#d18b44"/><path d="M381.39151,251.32831c0,0 -0.6,0.5 -1.7,1.2c-0.6,0.3 -1.3,0.8 -2.1,1.2c-0.8,0.5 -1.8,0.9 -2.8,1.4c-1.1,0.4 -2.2,0.9 -3.5,1.3c-1.2,0.4 -2.6,0.8 -4,1.1c-1.4,0.3 -2.9,0.6 -4.4,0.8c-1.5,0.2 -3,0.4 -4.6,0.5c-0.8,0 -1.5,0.1 -2.3,0.1l-1.1,0.1h-1.1c-1.5,0 -3,0 -4.4,-0.1c-1.4,-0.1 -2.8,-0.2 -4.1,-0.4c-1.3,-0.2 -2.5,-0.4 -3.7,-0.6c-0.6,-0.1 -1.1,-0.2 -1.6,-0.3c-0.5,-0.1 -1,-0.2 -1.5,-0.3c-0.9,-0.2 -1.7,-0.4 -2.4,-0.5c-1.3,-0.3 -2,-0.5 -2,-0.5c0,0 0.8,0.1 2.1,0.4c0.7,0.1 1.5,0.3 2.4,0.4c0.5,0.1 0.9,0.2 1.5,0.2c0.5,0.1 1.1,0.1 1.6,0.2c1.1,0.1 2.4,0.3 3.7,0.5c1.3,0.1 2.7,0.2 4.1,0.3c1.4,0.1 2.9,0 4.4,0.1h1.1l1.1,-0.1c0.8,0 1.5,-0.1 2.3,-0.1c1.5,-0.1 3,-0.3 4.5,-0.4c1.5,-0.3 2.9,-0.5 4.3,-0.8c1.4,-0.3 2.7,-0.6 4,-1c1.3,-0.3 2.4,-0.8 3.5,-1.2c1,-0.4 2,-0.8 2.9,-1.2c0.8,-0.4 1.6,-0.8 2.1,-1.1c1,-0.7 1.7,-1.2 1.7,-1.2z" fill="#d18b44"/><path d="M383.19151,246.42831c0,0 -1.3,0.5 -3.3,1.1c-1,0.3 -2.2,0.6 -3.4,0.9c-1.3,0.3 -2.6,0.6 -4,0.9c-1.4,0.3 -2.7,0.5 -4,0.7c-1.3,0.2 -2.5,0.3 -3.6,0.4c-0.5,0.1 -1,0 -1.4,0.1c-0.4,0 -0.8,0 -1.1,0c-0.6,0 -1,-0.1 -1,-0.1c0,0 0.3,0 1,-0.1c0.3,0 0.7,0 1.1,-0.1c0.4,-0.1 0.9,-0.1 1.4,-0.2c0.5,-0.1 1.1,-0.1 1.7,-0.2c0.6,-0.1 1.2,-0.2 1.8,-0.3c1.3,-0.2 2.6,-0.5 4,-0.8c1.4,-0.3 2.7,-0.6 4,-0.8c1.3,-0.3 2.5,-0.5 3.5,-0.8c1.9,-0.4 3.3,-0.7 3.3,-0.7z" fill="#d18b44"/><path d="M385.79151,241.72831c0,0 -2.1,0.5 -5.2,1.1c-1.6,0.3 -3.4,0.6 -5.3,0.9c-2,0.3 -4.1,0.6 -6.2,0.9c-2.1,0.2 -4.2,0.5 -6.2,0.6c-2,0.2 -3.8,0.2 -5.4,0.3c-0.8,0 -1.5,0 -2.2,0c-0.6,0 -1.2,0 -1.7,-0.1c-0.9,-0.1 -1.5,-0.1 -1.5,-0.1c0,0 0.5,0 1.5,0c0.5,0 1,0 1.7,-0.1c0.6,0 1.4,-0.1 2.2,-0.1c1.6,-0.1 3.4,-0.3 5.4,-0.5c2,-0.2 4.1,-0.4 6.2,-0.7c2.1,-0.2 4.2,-0.5 6.2,-0.8c2,-0.3 3.8,-0.5 5.4,-0.7c3,-0.4 5.1,-0.7 5.1,-0.7z" fill="#d18b44"/><path d="M385.29151,239.42831c0,0 -3.3,-0.5 -8.2,-0.9c-2.5,-0.2 -5.4,-0.4 -8.5,-0.5c-1.6,0 -3.2,-0.1 -4.8,-0.1c-1.6,0 -3.3,0 -4.9,0c-1.7,0 -3.3,0.1 -4.9,0.1c-1.6,0 -3.2,0.2 -4.8,0.3c-1.6,0.1 -3,0.2 -4.5,0.3c-0.7,0.1 -1.4,0.1 -2.1,0.2c-0.7,0.1 -1.3,0.2 -1.9,0.2c-1.2,0.1 -2.4,0.3 -3.4,0.4c-1,0.2 -1.9,0.3 -2.6,0.4c-1.4,0.2 -2.3,0.3 -2.3,0.3c0,0 0.8,-0.2 2.2,-0.4c0.7,-0.1 1.6,-0.3 2.6,-0.5c1,-0.2 2.1,-0.3 3.4,-0.5c0.6,-0.1 1.3,-0.2 1.9,-0.3c0.7,-0.1 1.4,-0.2 2.1,-0.2c1.4,-0.2 2.9,-0.4 4.5,-0.4c1.6,-0.1 3.2,-0.2 4.8,-0.3c1.6,-0.1 3.3,-0.1 5,-0.2c1.7,0 3.3,0 5,0c1.6,0 3.2,0.1 4.8,0.2c3.1,0.2 6,0.4 8.5,0.7c2.5,0.3 4.5,0.6 6,0.8c1.2,0.2 2.1,0.4 2.1,0.4z" fill="#d18b44"/><path d="M382.39151,234.22831c0,0 -2.3,-0.5 -5.8,-1c-1.7,-0.3 -3.8,-0.5 -5.9,-0.7c-2.2,-0.2 -4.5,-0.4 -6.8,-0.5c-1.2,-0.1 -2.3,-0.1 -3.5,-0.1c-1.1,0 -2.3,0 -3.4,0c-1.1,0 -2.2,0.1 -3.2,0.1c-1,0 -2,0.1 -2.8,0.1c-0.9,0.1 -1.7,0.1 -2.4,0.2c-0.7,0.1 -1.3,0.1 -1.8,0.2c-1,0.1 -1.6,0.1 -1.6,0.1c0,0 0.6,-0.1 1.6,-0.3c0.5,-0.1 1.1,-0.2 1.8,-0.3c0.7,-0.1 1.5,-0.2 2.4,-0.3c0.9,-0.1 1.8,-0.2 2.8,-0.3c1,-0.1 2.1,-0.2 3.2,-0.2c1.1,0 2.2,-0.1 3.4,0c1.2,0 2.3,0 3.5,0.1c2.3,0.1 4.7,0.3 6.9,0.6c2.2,0.3 4.2,0.6 5.9,0.9c3.5,0.7 5.7,1.4 5.7,1.4z" fill="#d18b44"/><path d="M382.69151,232.22831c0,0 -0.1,-0.2 -0.4,-0.4c-0.3,-0.3 -0.7,-0.7 -1.3,-1.1c-0.6,-0.5 -1.4,-0.9 -2.3,-1.4c-0.9,-0.4 -2,-1 -3.2,-1.4c-1.2,-0.5 -2.5,-0.8 -3.9,-1.3c-0.7,-0.1 -1.4,-0.3 -2.2,-0.5c-0.4,-0.1 -0.7,-0.2 -1.1,-0.2c-0.4,-0.1 -0.8,-0.1 -1.2,-0.2c-0.8,-0.1 -1.6,-0.2 -2.4,-0.3c-0.8,0 -1.6,-0.1 -2.5,-0.1c-1.7,-0.1 -3.4,0 -5.1,0c-1.7,0 -3.4,0.2 -5.1,0.3c-1.7,0.1 -3.3,0.4 -4.9,0.6c-1.6,0.3 -3.1,0.4 -4.5,0.8c-1.4,0.3 -2.8,0.6 -4,0.8c-1.3,0.2 -2.4,0.6 -3.4,0.8c-1,0.3 -1.9,0.5 -2.6,0.7c-1.4,0.4 -2.3,0.6 -2.3,0.6c0,0 0.8,-0.3 2.2,-0.7c0.7,-0.2 1.6,-0.5 2.6,-0.8c1,-0.3 2.1,-0.7 3.4,-1c1.2,-0.3 2.6,-0.6 4,-1c1.4,-0.4 3,-0.6 4.5,-0.9c1.6,-0.3 3.2,-0.6 4.9,-0.7c1.7,-0.1 3.4,-0.4 5.1,-0.4c1.7,0 3.4,-0.1 5.1,0.1c0.8,0.1 1.7,0.1 2.5,0.2c0.8,0.1 1.6,0.2 2.4,0.3c0.4,0.1 0.8,0.1 1.2,0.2c0.4,0.1 0.8,0.2 1.1,0.3c0.8,0.2 1.5,0.4 2.2,0.5c1.4,0.5 2.7,0.8 3.9,1.4c1.2,0.5 2.2,1.1 3.1,1.6c0.9,0.6 1.6,1.1 2.2,1.5c0.6,0.5 1,0.9 1.3,1.2c0.5,0.3 0.7,0.5 0.7,0.5z" fill="#d18b44"/><path d="M315.49151,234.92831c0,0 0.4,-0.5 1.2,-1c0.8,-0.6 1.9,-1.2 3,-1.7c0.6,-0.2 1.2,-0.5 1.8,-0.6c0.6,-0.2 1.1,-0.3 1.6,-0.3c0.5,-0.1 0.9,-0.1 1.1,-0.1c0.3,0 0.4,0 0.4,0c0,0 -0.2,0.1 -0.4,0.1c-0.3,0.1 -0.6,0.2 -1.1,0.3c-0.9,0.3 -2.1,0.7 -3.2,1.2c-1.1,0.5 -2.3,1 -3.1,1.4c-0.8,0.4 -1.3,0.7 -1.3,0.7z" fill="#d18b44"/><path d="M319.39151,237.62831c0,0 1.1,-0.5 2.8,-1c0.9,-0.3 1.9,-0.6 2.9,-0.9c1.1,-0.3 2.2,-0.6 3.4,-0.9c1.2,-0.3 2.3,-0.5 3.4,-0.8c1.1,-0.2 2.1,-0.4 3,-0.6c1.8,-0.3 3,-0.4 3,-0.4c0,0 -1.2,0.3 -2.9,0.8c-0.9,0.2 -1.9,0.5 -3,0.7c-1.1,0.3 -2.2,0.5 -3.4,0.8c-2.3,0.5 -4.6,1.1 -6.4,1.5c-1.6,0.6 -2.8,0.8 -2.8,0.8z" fill="#d18b44"/><path d="M310.39151,252.92831c4.1,-4.1 8.3,-14.3 2.1,-21.3c8.1,6.9 4.4,16.2 -2.1,21.3z" fill="#db4570"/></g><g data-paper-data="{&quot;index&quot;:null}" fill-rule="nonzero" stroke="none" stroke-width="1" stroke-linecap="butt" stroke-linejoin="miter"><path d="M289.29151,245.02831c0,0 -11.9,1 -28.3,1.3c-32.8,0.6 -82.6,0.6 -88.2,0.3c-7.4,-0.4 -19.1,-0.6 -25.1,-1.1c-6,-0.6 -23.6,-1.1 -23.6,-1.1c0,0 -1.1,-4.6 0.3,-4.8c1.4,-0.3 25.3,1.1 28.2,1.1c2.9,0 17.9,-1.2 22.4,-0.2c2.8,0.6 40.6,-0.3 71,-0.6c6.5,-0.1 9.9,0.7 15.6,0.6c15.6,-0.2 27.1,-0.3 27.1,-0.3c0,0 1.7,2.5 0.6,4.8z" fill="#694932"/><path d="M197.69151,243.52831c0,0 -0.7,0.1 -1.8,0.3c-1.1,0.2 -2.8,0.4 -4.7,0.6c-2,0.2 -4.3,0.5 -6.7,0.7c-2.5,0.2 -5.1,0.5 -7.8,0.4c-5.3,-0.2 -10.5,-0.5 -14.5,-0.7c-3.9,-0.3 -6.6,-0.5 -6.6,-0.5c0,0 10.5,0.4 21.1,0.7c1.3,0 2.6,0 3.9,-0.1c1.3,-0.1 2.6,-0.2 3.8,-0.3c2.5,-0.2 4.8,-0.4 6.7,-0.6c3.9,-0.3 6.6,-0.5 6.6,-0.5z" fill="#4f3726"/><path d="M186.19151,243.52831c0,0 -0.7,0.1 -1.7,0.3c-1,0.1 -2.4,0.2 -3.7,0.2c-1.4,0 -2.7,-0.1 -3.7,-0.3c-1,-0.2 -1.7,-0.4 -1.7,-0.4c0,0 0.7,0 1.7,0.1c1,0 2.3,0.1 3.7,0.1c1.3,0 2.7,0 3.7,0c1,0 1.7,0 1.7,0z" fill="#4f3726"/><path d="M171.19151,242.22831c0,0 -1,0 -2.5,0.1c-0.7,0 -1.6,0 -2.5,0c-0.9,0 -1.9,0 -2.9,0c-3.9,0 -7.9,-0.1 -7.9,-0.1c0,0 1,-0.2 2.5,-0.3c0.7,0 1.6,-0.1 2.5,-0.1c0.9,0 1.9,0 2.9,0c1,0 2,0 2.9,0.1c0.9,0 1.8,0.1 2.5,0.1c1.5,0.1 2.5,0.2 2.5,0.2z" fill="#4f3726"/><path d="M160.09151,243.12831c0,0 -1.8,0.1 -4.5,0.3c-2.7,0.1 -6.4,0.2 -10,0c-1.8,-0.1 -3.6,-0.2 -5.3,-0.3c-1.7,-0.1 -3.3,-0.1 -4.6,-0.2c-2.7,-0.1 -4.5,-0.2 -4.5,-0.2c0,0 1.8,-0.1 4.5,-0.1c2.7,0 6.4,0 10,0.2c1.8,0.1 3.6,0.2 5.3,0.2c1.7,0 3.3,0 4.6,0c2.7,0.1 4.5,0.1 4.5,0.1z" fill="#4f3726"/><path d="M127.39151,241.12831c0,0 1.1,-0.1 2.7,-0.1c0.8,0 1.8,0 2.8,0c1,0 2.1,0 3.2,0c1.1,0 2.2,0.1 3.2,0.1c1,0 2,0.1 2.8,0.2c0.8,0.1 1.5,0.2 2,0.2c0.5,0.1 0.7,0.1 0.7,0.1c0,0 -0.3,0 -0.8,0c-0.5,0 -1.2,0 -2,0c-0.8,0 -1.8,0 -2.8,0c-1,0 -2.1,0 -3.2,-0.1c-1.1,0 -2.2,-0.1 -3.2,-0.1c-1,0 -2,-0.1 -2.8,-0.1c-1.5,-0.1 -2.6,-0.2 -2.6,-0.2z" fill="#4f3726"/><path d="M149.79151,244.42831c0,0 0.2,0 0.6,-0.1c0.3,0 0.8,-0.1 1.2,-0.1c0.5,0 0.9,0 1.2,0.1c0.3,0 0.6,0.1 0.6,0.1c0,0 -0.2,0.1 -0.6,0.1c-0.3,0 -0.8,0.1 -1.2,0.1c-0.5,0 -0.9,0 -1.2,-0.1c-0.4,-0.1 -0.6,-0.1 -0.6,-0.1z" fill="#4f3726"/><path d="M148.09151,241.82831c0,0 0.2,0 0.5,-0.1c0.3,0 0.6,-0.1 1,-0.1c0.4,0 0.7,0 1,0.1c0.3,0 0.5,0.1 0.5,0.1c0,0 -0.2,0.1 -0.5,0.1c-0.3,0 -0.6,0.1 -1,0.1c-0.4,0 -0.7,0 -1,-0.1c-0.3,0 -0.5,-0.1 -0.5,-0.1z" fill="#4f3726"/><path d="M168.59151,243.52831c0,0 0.3,0 0.7,-0.1c0.4,0 1,-0.1 1.6,-0.1c0.6,0 1.2,0 1.6,0.1c0.4,0 0.7,0.1 0.7,0.1c0,0 -0.3,0.1 -0.7,0.1c-0.4,0 -1,0.1 -1.6,0.1c-0.6,0 -1.2,0 -1.6,-0.1c-0.4,-0.1 -0.7,-0.1 -0.7,-0.1z" fill="#4f3726"/><path d="M189.09151,243.32831c0,0 0.2,-0.1 0.4,-0.1c0.2,-0.1 0.5,-0.1 0.9,-0.2c0.3,0 0.6,-0.1 0.9,-0.1c0.2,0 0.4,0 0.4,0c0,0 -0.2,0.1 -0.4,0.1c-0.2,0.1 -0.5,0.1 -0.9,0.2c-0.3,0 -0.6,0.1 -0.9,0.1c-0.2,0 -0.4,0 -0.4,0z" fill="#4f3726"/><path d="M197.99151,242.22831c0,0 -0.2,0.1 -0.5,0.2c-0.3,0.1 -0.7,0.2 -1.2,0.3c-0.4,0.1 -0.9,0.1 -1.2,0.1c-0.3,0 -0.6,0 -0.6,0c0,0 0.2,-0.1 0.5,-0.2c0.3,-0.1 0.7,-0.2 1.2,-0.3c0.4,-0.1 0.9,-0.1 1.2,-0.1c0.4,0 0.6,0 0.6,0z" fill="#4f3726"/><path d="M126.39151,242.92831c0,0 0.1,0 0.4,-0.1c0.1,0 0.4,0 0.7,0c0.3,0 0.6,0 0.8,0.1c0.2,0 0.4,0.1 0.4,0.1c0,0 -0.1,0.1 -0.4,0.1c-0.2,0 -0.5,0.1 -0.8,0.1c-0.3,0 -0.6,0 -0.8,-0.1c-0.2,-0.1 -0.3,-0.2 -0.3,-0.2z" fill="#4f3726"/><path d="M186.59151,242.22831c0,0 -0.9,0.2 -2.2,0.3c-1.3,0.1 -3.1,0.2 -4.9,0.1c-0.9,-0.1 -1.8,-0.2 -2.6,-0.3c-0.8,-0.1 -1.6,-0.3 -2.2,-0.4c-0.7,-0.1 -1.2,-0.3 -1.6,-0.4c-0.4,-0.1 -0.6,-0.2 -0.6,-0.2c0,0 0.2,0 0.6,0.1c0.4,0.1 0.9,0.1 1.6,0.2c1.3,0.2 3.1,0.4 4.8,0.5c1.8,0.1 3.5,0.2 4.8,0.2c1.4,-0.1 2.3,-0.1 2.3,-0.1z" fill="#4f3726"/><path d="M162.49151,240.22831c0,0 -1.6,0.1 -3.9,0.2c-1.2,0 -2.6,0.1 -4,0.1c-1.5,0 -3.1,0 -4.6,0.1c-1.6,0 -3.2,0 -4.6,-0.1c-1.5,0 -2.9,-0.1 -4,-0.2c-0.6,0 -1.1,-0.1 -1.6,-0.2c-0.5,-0.1 -0.9,-0.1 -1.2,-0.2c-0.9,0 -1.3,-0.1 -1.3,-0.1c0,0 0.4,0 1.1,0.1c0.7,0 1.7,0.1 2.8,0.1c1.2,0 2.6,0 4,0.1c1.5,0 3,0 4.6,0c3.1,0 6.3,0 8.7,0c2.4,0.1 4,0.1 4,0.1z" fill="#4f3726"/><path d="M195.89151,245.52831c0,0 0.9,-0.1 2.5,-0.3c1.6,-0.2 3.9,-0.5 6.6,-0.8c2.7,-0.3 5.9,-0.5 9.4,-0.6c1.7,-0.1 3.5,0 5.3,0.1c1.8,0.1 3.6,0.1 5.5,0.1c3.7,0 7.3,-0.1 10.8,-0.1c3.4,-0.1 6.7,-0.1 9.4,-0.2c5.5,-0.1 9.2,-0.2 9.2,-0.2c0,0 -3.7,0.2 -9.2,0.5c-5.5,0.2 -12.8,0.5 -20.2,0.5c-1.8,0 -3.7,0 -5.5,-0.1c-1.8,-0.1 -3.6,-0.2 -5.3,-0.2c-3.4,0.1 -6.6,0.3 -9.4,0.5c-5.5,0.4 -9.1,0.8 -9.1,0.8z" fill="#4f3726"/><path d="M239.39151,242.92831c0,0 2.6,-0.2 6.4,-0.5c3.9,-0.2 9,-0.4 14.2,-0.2c1.3,0.1 2.6,0.2 3.9,0.4c1.3,0.2 2.5,0.7 3.6,0.8c2.4,0.4 4.6,0.4 6.5,0.4c3.9,0 6.4,-0.3 6.4,-0.3c0,0 -0.6,0.1 -1.8,0.2c-1.1,0.1 -2.7,0.3 -4.7,0.3c-1.9,0.1 -4.2,0.1 -6.6,-0.3c-1.2,-0.2 -2.4,-0.6 -3.6,-0.8c-1.2,-0.2 -2.5,-0.3 -3.8,-0.3c-1.3,-0.1 -2.6,-0.1 -3.8,-0.1c-1.3,0 -2.5,0 -3.7,0c-2.4,0 -4.7,0.1 -6.6,0.1c-3.8,0.2 -6.4,0.3 -6.4,0.3z" fill="#4f3726"/><path d="M257.99151,244.32831c0,0 0.5,0 1.2,0c0.4,0 0.8,0 1.3,0c0.5,0 1,0.1 1.4,0.1c0.5,0 1,0.1 1.4,0.1c0.5,0 0.9,0.1 1.3,0.2c0.7,0.1 1.2,0.2 1.2,0.2c0,0 -0.5,0.1 -1.2,0.1c-0.4,0 -0.8,0 -1.3,0c-0.5,0 -1,-0.1 -1.5,-0.1c-0.5,-0.1 -1,-0.1 -1.4,-0.2c-0.5,-0.1 -0.9,-0.1 -1.3,-0.2c-0.6,-0.1 -1.1,-0.2 -1.1,-0.2z" fill="#4f3726"/><path d="M268.89151,242.02831c0,0 1.2,-0.1 3,-0.2c0.9,0 1.9,-0.1 3,-0.1c1.1,0 2.3,0 3.5,0c1.2,0 2.4,0.1 3.5,0.1c1.1,0 2.2,0.1 3,0.2c0.9,0.1 1.6,0.2 2.1,0.3c0.5,0.1 0.8,0.2 0.8,0.2c0,0 -0.3,0 -0.8,-0.1c-0.5,0 -1.3,-0.1 -2.1,-0.1c-0.9,0 -1.9,0 -3,0c-1.1,0 -2.3,0 -3.5,0c-1.2,0 -2.4,0 -3.5,0c-1.1,0 -2.2,0 -3,0c-1.8,-0.2 -3,-0.3 -3,-0.3z" fill="#4f3726"/><path d="M237.59151,241.02831c0,0 -1,0.1 -2.5,0.3c-0.8,0.1 -1.6,0.2 -2.6,0.2c-0.9,0.1 -2,0.1 -3,0.2c-1,0 -2,0.1 -3,0.1c-0.9,0 -1.8,0 -2.6,0c-1.5,0 -2.5,-0.1 -2.5,-0.1c0,0 1,-0.1 2.5,-0.2c0.8,0 1.6,-0.1 2.6,-0.1c0.9,0 2,-0.1 3,-0.1c1,0 2,-0.1 3,-0.1c0.9,0 1.8,0 2.6,-0.1c1.4,-0.1 2.5,-0.1 2.5,-0.1z" fill="#4f3726"/><path d="M222.79151,242.92831c0,0 -1,0 -2.5,-0.1c-0.7,0 -1.6,-0.1 -2.5,-0.1c-0.9,-0.1 -1.9,-0.1 -2.9,-0.1c-1,0 -2,-0.1 -2.9,-0.1c-0.9,0 -1.8,0 -2.5,0c-0.4,0 -0.7,0 -1,0c-0.3,0 -0.6,0 -0.8,0.1c-0.4,0.1 -0.7,0.1 -0.7,0.1c0,0 0.2,-0.1 0.7,-0.2c0.2,-0.1 0.5,-0.1 0.8,-0.1c0.3,-0.1 0.6,-0.1 1,-0.1c0.7,-0.1 1.6,-0.1 2.5,-0.1c0.9,0 1.9,0 2.9,0c1,0.1 2,0.1 2.9,0.2c0.9,0.1 1.8,0.2 2.5,0.3c1.5,0 2.5,0.2 2.5,0.2z" fill="#4f3726"/><path d="M216.19151,241.42831c0,0 0.2,0 0.5,-0.1c0.3,0 0.7,-0.1 1,-0.1c0.4,0 0.8,0 1,0.1c0.3,0 0.5,0.1 0.5,0.1c0,0 -0.2,0 -0.5,0.1c-0.3,0 -0.7,0.1 -1,0.1c-0.4,0 -0.8,0 -1,-0.1c-0.3,-0.1 -0.5,-0.1 -0.5,-0.1z" fill="#4f3726"/><path d="M215.69151,245.72831c0,0 0.2,0 0.5,-0.1c0.3,0 0.7,-0.1 1.1,-0.1c0.4,0 0.8,0 1.1,0.1c0.3,0 0.5,0.1 0.5,0.1c0,0 -0.2,0 -0.5,0.1c-0.3,0 -0.7,0 -1.1,0c-0.4,0 -0.8,0 -1.1,-0.1c-0.3,0 -0.5,0 -0.5,0z" fill="#4f3726"/><path d="M232.69151,242.72831c0,0 0.2,0 0.5,-0.1c0.3,0 0.7,-0.1 1,-0.1c0.4,0 0.8,0 1,0.1c0.3,0 0.5,0.1 0.5,0.1c0,0 -0.2,0 -0.5,0.1c-0.3,0 -0.7,0.1 -1,0.1c-0.4,0 -0.8,0 -1,-0.1c-0.3,-0.1 -0.5,-0.1 -0.5,-0.1z" fill="#4f3726"/><path d="M264.09151,241.72831c0,0 0.2,0 0.5,-0.1c0.3,0 0.7,-0.1 1,-0.1c0.4,0 0.8,0 1,0.1c0.3,0 0.5,0.1 0.5,0.1c0,0 -0.2,0 -0.5,0.1c-0.3,0 -0.7,0.1 -1,0.1c-0.4,0 -0.8,0 -1,-0.1c-0.3,-0.1 -0.5,-0.1 -0.5,-0.1z" fill="#4f3726"/><path d="M235.89151,245.72831c0,0 1.2,-0.2 3,-0.3c0.9,-0.1 1.9,-0.2 3.1,-0.2c1.1,-0.1 2.3,-0.1 3.5,-0.2c1.2,0 2.4,-0.1 3.5,-0.1c1.1,0 2.2,0 3.1,0c1.8,0 3,0.1 3,0.1c0,0 -4.8,0.2 -9.6,0.5c-1.2,0 -2.4,0.1 -3.5,0.1c-1.1,0 -2.2,0.1 -3.1,0.1c-1.8,0 -3,0 -3,0z" fill="#4f3726"/><path d="M199.69151,242.72831c0,0 0.6,-0.3 1.7,-0.5c1,-0.3 2.4,-0.6 3.8,-0.8c0.7,-0.1 1.4,-0.2 2,-0.2c0.7,0 1.3,0 1.8,-0.1c1,0 1.7,0.1 1.7,0.1c0,0 -0.2,0 -0.5,0.1c-0.3,0 -0.7,0.1 -1.3,0.1c-1,0.1 -2.4,0.3 -3.8,0.5c-2.6,0.4 -5.4,0.8 -5.4,0.8z" fill="#4f3726"/><path d="M239.39151,241.72831c0,0 0.7,-0.1 1.7,-0.3c1,-0.1 2.4,-0.3 3.7,-0.3c1.4,-0.1 2.7,-0.1 3.8,0c1,0.1 1.7,0.2 1.7,0.2c0,0 -0.7,0.1 -1.7,0.1c-1,0.1 -2.4,0.2 -3.7,0.2c-1.4,0.1 -2.7,0.1 -3.7,0.1c-1.1,0 -1.8,0 -1.8,0z" fill="#4f3726"/><path d="M277.79151,244.92831c0,0 0.6,-0.2 1.5,-0.3c0.9,-0.2 2,-0.4 3.2,-0.5c1.2,-0.1 2.4,-0.2 3.3,-0.2c0.9,0 1.5,0 1.5,0c0,0 -0.6,0.1 -1.5,0.2c-0.9,0.1 -2,0.3 -3.2,0.4c-1.2,0.1 -2.4,0.2 -3.2,0.3c-1,0.1 -1.6,0.1 -1.6,0.1z" fill="#4f3726"/></g></g></g></svg>