<svg version="1.1" xmlns="http://www.w3.org/2000/svg" xmlns:xlink="http://www.w3.org/1999/xlink" width="175.84089" height="87.32526" viewBox="0,0,175.84089,87.32526"><defs><linearGradient x1="347.26392" y1="194.17318" x2="324.85051" y2="193.15833" gradientUnits="userSpaceOnUse" id="color-1"><stop offset="0" stop-color="#000000"/><stop offset="1" stop-color="#000000" stop-opacity="0"/></linearGradient><linearGradient x1="373.68754" y1="190.25001" x2="373.68754" y2="192.25001" gradientUnits="userSpaceOnUse" id="color-2"><stop offset="0" stop-color="#008cff"/><stop offset="1" stop-color="#008cff" stop-opacity="0"/></linearGradient><linearGradient x1="384.15893" y1="182.99034" x2="384.15893" y2="197.78571" gradientUnits="userSpaceOnUse" id="color-3"><stop offset="0" stop-color="#008cff"/><stop offset="1" stop-color="#008cff" stop-opacity="0"/></linearGradient><linearGradient x1="363.29605" y1="183.13737" x2="363.29605" y2="197.93274" gradientUnits="userSpaceOnUse" id="color-4"><stop offset="0" stop-color="#008cff"/><stop offset="1" stop-color="#008cff" stop-opacity="0"/></linearGradient></defs><g transform="translate(-222.57523,-162.8213)"><g stroke-miterlimit="10"><g fill="#000000" stroke="#000000" stroke-width="1.2" stroke-linecap="butt"><path d="M389.76866,244.7295c-1.39652,0.63085 -3.97454,-0.32259 -5.85733,-0.2396c-2.0271,0.08933 -3.22867,1.15938 -4.39897,0.48993c-0.81744,-0.46761 -1.04419,-1.75203 -1.07416,-2.43204c-0.07289,-1.65355 2.65915,-3.11704 6.10215,-3.26879c3.44301,-0.15176 6.29321,1.0657 6.36609,2.71924c0.03303,0.7493 0.01947,2.20849 -1.13776,2.73126z"/><path d="M391.41329,241.75615c-1.95519,0.8619 -6.84736,0.26575 -6.84736,0.26575c0,0 -3.05012,1.05006 -3.1212,1.05195c-4.52941,0.12082 -4.70571,-2.74047 -4.84921,-5.99647c-0.06831,-1.54964 0.455,-3.96023 1.83456,-4.86965c1.56458,-1.03139 3.83127,-0.65876 6.35913,-0.77017c4.75678,-0.20964 8.88642,1.5735 9.03218,4.8806c0.06416,1.45577 0.20327,4.28681 -2.40811,5.43798z"/></g><path d="M371.66316,230.84912c1.84594,-0.77086 4.96196,0.81868 6.33509,1.75103c0.13171,0.08944 -2.54916,2.34507 -3.98627,5.04873c-0.37797,0.7111 -1.90505,3.43781 -1.87658,4.91715c0.03535,1.83705 1.65767,2.40912 1.31546,2.55073c-0.12813,0.05302 -8.56128,5.45019 -10.63695,4.25785c-0.33522,-0.19256 -1.012,-1.28454 -1.09505,-2.53743c-0.07261,-1.09524 0.4175,-2.35839 0.55302,-2.66034c2.25521,-5.02498 8.28602,-12.86616 9.39127,-13.32771z" fill="#000000" stroke="#001026" stroke-width="1.2" stroke-linecap="butt"/><path d="M356.3025,229.54579c1.84595,-0.77085 4.96196,0.81869 6.33509,1.75103c0.13171,0.08944 -2.54916,2.34507 -3.98627,5.04874c-0.37797,0.71109 -1.90504,3.4378 -1.87657,4.91715c0.03535,1.83705 1.65767,2.40913 1.31546,2.55073c-0.12813,0.05302 -8.56127,5.45018 -10.63695,4.25785c-0.33522,-0.19256 -1.012,-1.28453 -1.09505,-2.53742c-0.0726,-1.09524 0.4175,-2.35839 0.55302,-2.66035c2.25521,-5.02498 8.28602,-12.86617 9.39126,-13.32771z" fill="#000000" stroke="#001026" stroke-width="1.2" stroke-linecap="butt"/><path d="M370.49919,236.7132c0,0 -0.75042,6.15353 -1.15865,7.47127c-0.42666,1.37722 -5.42953,3.21894 -5.42953,3.21894c0,0 1.82052,-3.19374 0.41929,-4.74717c-1.95836,-2.17107 -8.34882,-6.85196 -8.34882,-6.85196l3.87958,-7.98969l10.63815,8.8986z" fill="#000000" stroke="#0f0f0f" stroke-width="1" stroke-linecap="butt"/><path d="M363.53687,248.51164l-13.29073,-3.96381l4.52366,-7.64347c0,0 7.42958,2.74775 10.32075,3.18344c2.06869,0.31174 3.72814,-2.96858 3.72814,-2.96858c0,0 1.22382,5.18873 0.31051,6.30436c-0.87387,1.06745 -5.59233,5.08806 -5.59233,5.08806z" fill="#000000" stroke="#0f0f0f" stroke-width="1" stroke-linecap="butt"/><path d="M385.82558,236.53904c0,0 -0.75042,6.15353 -1.15865,7.47127c-0.42666,1.37722 -5.42953,3.21894 -5.42953,3.21894c0,0 1.82052,-3.19374 0.41929,-4.74717c-1.95836,-2.17107 -8.34882,-6.85196 -8.34882,-6.85196l3.87958,-7.98969l10.63815,8.8986z" fill="#000000" stroke="#0f0f0f" stroke-width="1" stroke-linecap="butt"/><path d="M378.86327,248.33748l-13.29073,-3.96381l4.52366,-7.64347c0,0 7.42958,2.74775 10.32075,3.18344c2.06869,0.31174 3.72814,-2.96858 3.72814,-2.96858c0,0 1.22382,5.18873 0.31051,6.30436c-0.87387,1.06745 -5.59233,5.08806 -5.59233,5.08806z" fill="#000000" stroke="#0f0f0f" stroke-width="1" stroke-linecap="butt"/><path d="M370.49919,236.7132c0,0 -0.75042,6.15353 -1.15865,7.47128c-0.42666,1.37722 -5.42953,3.21894 -5.42953,3.21894c0,0 1.82053,-3.19373 0.41929,-4.74717c-1.95836,-2.17107 -8.34883,-6.85195 -8.34883,-6.85195l3.87958,-7.98969l10.63815,8.89859z" fill="#000000" stroke="#0f0f0f" stroke-width="1" stroke-linecap="butt"/><path d="M396.16613,192.42233c-0.60842,13.43725 -12.48536,23.81485 -26.5279,23.17902c-14.04253,-0.63583 -24.93303,-12.04431 -24.3246,-25.48156c0.60842,-13.43725 12.48536,-23.81485 26.5279,-23.17902c14.04253,0.63583 24.93303,12.04431 24.3246,25.48156z" fill="none" stroke="#000000" stroke-width="4.5" stroke-linecap="butt"/><path d="M363.81237,216.21205l-29.40699,-1.56546c0,0 -2.38655,-0.44775 -1.9994,-1.33264c0.88777,-2.02911 7.21856,-10.59651 7.21856,-10.59651l-11.49393,-4.4976c0,0 -2.0863,-0.99922 -2.35564,-2.11178c-0.25056,-1.03498 11.55441,-9.87113 11.55441,-9.87113c0,0 -8.09526,-3.97991 -10.24274,-6.06017c-0.84326,-0.81687 12.04462,-7.89151 20.87275,-11.22418c4.31986,-1.63077 10.22205,-4.11391 14.94085,-4.63128c7.82409,-0.85784 13.71237,1.7029 13.71237,1.7029" fill="none" stroke="#000000" stroke-width="3" stroke-linecap="round"/><path d="M332.53761,214.56201c0,0 -0.46612,-1.42642 0.84953,-3.30169c1.64789,-2.34882 7.12986,-5.35475 5.58452,-7.7886c-2.00183,-3.15281 -14.61925,-3.26621 -12.89402,-7.03904c1.41661,-3.09794 10.9246,-8.13703 11.01829,-10.20633c0.09349,-2.06473 -4.52655,-1.01532 -7.01898,-3.88206c-3.54477,-4.07711 -1.74818,-4.00135 -1.74818,-4.00135c0,0 12.04662,-6.93463 17.84736,-9.12132c5.44239,-2.0516 15.95062,-3.61939 15.95062,-3.61939c0,0 -15.54121,13.05738 -18.03472,21.00143c-2.76409,8.80611 13.93638,28.17674 13.93638,28.17674z" fill="url(#color-1)" stroke="none" stroke-width="0" stroke-linecap="butt"/><path d="M371.13244,232.91915l0.98643,-15.86593" fill="none" stroke="#000000" stroke-width="6" stroke-linecap="round"/><path d="M353.20079,233.89052c0.22281,-0.2855 5.91546,-13.06922 9.59995,-15.38206c4.39821,-2.76086 10.65885,-3.16166 10.65885,-3.16166l13.93223,22.32091" fill="none" stroke="#000000" stroke-width="6" stroke-linecap="round"/><path d="M379.23554,217.72328c0,0.25467 -1.49235,0.15139 -1.6382,0.90773c-0.16899,0.87627 -0.3786,2.52054 -0.06525,3.74764c0.31453,1.23173 1.15195,2.04464 0.93679,2.04464c-0.93888,0 -2.96667,-1.9182 -2.96667,-4.36667c0,-2.44846 -1.80555,-4.96667 -0.86667,-4.96667c0.16151,0 4.6,2.41951 4.6,2.63333z" fill="#000000" stroke="#0f0f0f" stroke-width="1" stroke-linecap="butt"/><path d="M356.61411,234.14062c0,0 7.34645,-20.83651 9.85679,-20.92156c0.73708,-0.02498 9.25718,0.00337 9.25718,0.00337l2.99008,17.34633c0,0 -1.43721,4.11926 -4.82482,4.85259c-3.53931,0.76617 -17.27923,-1.28073 -17.27923,-1.28073z" fill="#000000" stroke="#0f0f0f" stroke-width="1" stroke-linecap="butt"/><path d="M228.53093,225.44246l-0.15355,-6c0,0 5.77352,0.36439 9.1175,0.30819c4.33114,-0.07279 14.6825,-0.70819 14.6825,-0.70819v6.6" fill="none" stroke="#000000" stroke-width="1" stroke-linecap="round"/><path d="M223.07524,240.5327v-15.8h34.4v15.8z" fill="#62ffff" stroke="#000000" stroke-width="1" stroke-linecap="butt"/><path d="M235.82356,232.55853c0,2.76142 -2.28335,5 -5.1,5c-2.81665,0 -5.1,-2.23858 -5.1,-5c0,-2.76142 2.28335,-5 5.1,-5c2.81665,0 5.1,2.23858 5.1,5z" fill="#8e8888" stroke="#000000" stroke-width="1" stroke-linecap="butt"/><path d="M255.39768,232.38437c0,2.76142 -2.14903,5 -4.8,5c-2.65097,0 -4.8,-2.23858 -4.8,-5c0,-2.76142 2.14903,-5 4.8,-5c2.65097,0 4.8,2.23858 4.8,5z" fill="#8e8888" stroke="#000000" stroke-width="1" stroke-linecap="butt"/><path d="M244.82352,237.12935c0,0.71797 -1.79086,1.3 -4,1.3c-2.20914,0 -4,-0.58203 -4,-1.3c0,-0.71797 1.79086,-1.3 4,-1.3c2.20914,0 4,0.58203 4,1.3z" fill="#8e8888" stroke="#000000" stroke-width="1" stroke-linecap="butt"/><path d="M370.40424,183.35001c0,0 2.18612,-0.53038 3.28652,-0.54641c1.18255,-0.01722 3.58008,0.44641 3.58008,0.44641" fill="url(#color-2)" stroke="#705021" stroke-width="2" stroke-linecap="round"/><g stroke="#705021" stroke-width="2" stroke-linecap="butt"><path d="M390.7149,197.49789c-0.20756,0.14491 -12.97424,0.41086 -13.18263,0.22303c-0.46577,-0.41981 -0.88115,-14.14301 -0.57274,-14.53949c0.2116,-0.27203 14.13966,-0.2143 14.31565,-0.06945c0.4431,0.36469 0.04793,13.96129 -0.56028,14.38591z" fill="url(#color-3)"/><path d="M356.17975,183.259c0.176,-0.14485 14.10405,-0.20257 14.31565,0.06946c0.3084,0.39648 -0.10698,14.11968 -0.57274,14.53949c-0.20839,0.18783 -12.97506,-0.07812 -13.18263,-0.22303c-0.60822,-0.42462 -1.00338,-14.02123 -0.56028,-14.38592z" fill="url(#color-4)"/></g><g><path d="M364.99713,186.58662c0,0 1.33851,3.51457 -0.37243,7.53096c-0.17089,0.40117 -2.03567,0.87807 -3.42922,0.83635c-2.06518,-0.06183 -3.86753,-0.83091 -3.85264,-1.17034c0.05653,-1.28821 0.46781,-2.62786 0.07637,-5.2636c-0.28353,-1.9092 7.57792,-1.93337 7.57792,-1.93337z" fill="#000000" stroke="none" stroke-width="0" stroke-linecap="butt"/><path d="M355.8187,186.80803l8.16667,-0.16667" fill="none" stroke="#000000" stroke-width="2.5" stroke-linecap="round"/></g><g><path d="M386.31304,186.50101c0,0 1.33852,3.51457 -0.37242,7.53096c-0.17089,0.40117 -2.37885,1.17843 -3.7724,1.13671c-2.06518,-0.06183 -3.52435,-1.13127 -3.50946,-1.4707c0.05653,-1.28821 0.46781,-2.62785 0.07637,-5.2636c-0.28353,-1.9092 7.57791,-1.93337 7.57791,-1.93337z" fill="#000000" stroke="none" stroke-width="0" stroke-linecap="butt"/><path d="M377.1346,186.72241l8.16666,-0.16666" fill="none" stroke="#000000" stroke-width="2.5" stroke-linecap="round"/></g><path d="M356.07633,204.06386c0,0 1.30447,-1.68475 3.56036,-1.98031c0.96626,-0.1266 1.77804,2.24975 2.85044,2.55161c0.90732,0.25539 2.12106,-1.5735 2.53812,-1.48656c2.13241,0.44449 3.63822,3.53899 3.63822,3.53899" fill="none" stroke="#000000" stroke-width="2.5" stroke-linecap="round"/><path d="M359.43574,224.18551c0,0 0.51399,-0.87233 0.18708,-1.93674c-0.39077,-1.27231 -1.68638,-2.81907 -2.45428,-3.47849c-0.7767,-0.66697 -2.95965,0.94856 -2.95965,0.94856l8.41677,-5.66667c0,0 2.32766,-0.31819 2.76347,0.08887c0.39232,0.36644 -0.26535,2.24447 -0.26535,2.24447z" fill="#000000" stroke="#0f0f0f" stroke-width="1" stroke-linecap="butt"/><path d="M354.88888,186.95128c0.63246,1.89737 -1.26491,2.52982 -1.26491,2.52982l-3.42493,0.52417c-2.26035,-4.36132 -2.11886,-6.47705 -0.32985,-10.96738c0,0 0.74278,-1.85695 2.59973,-1.11417c1.85695,0.74278 1.11417,2.59973 1.11417,2.59973c-0.336,0.83633 -1.23618,2.88414 -1.34014,3.85238c-0.05708,0.53161 0.08248,1.15134 -0.05502,1.65224l0.17111,-0.3417c0,0 1.89737,-0.63246 2.52982,1.26491z" fill="#000000" stroke="none" stroke-width="0.5" stroke-linecap="butt"/><path d="M353.94201,199.17751c0.08683,0.01371 0.18321,0.01205 0.29003,-0.00679zM353.49969,198.88544c0.3436,-0.3046 0.98262,-0.65207 1.80013,-0.10706c1.24808,0.83205 0.41603,2.08013 0.41603,2.08013l-1.85591,1.28905c-0.83197,-0.19222 -1.87339,0.00782 -2.4959,-0.57665c-1.50129,-1.40956 -0.92699,-5.50894 -0.92699,-7.23858c0,0 0,-1.5 1.5,-1.5c1.5,0 1.5,1.5 1.5,1.5c0,1.0081 -0.54823,3.6572 0.06264,4.55311z" fill="#000000" stroke="none" stroke-width="0.5" stroke-linecap="butt"/><path d="M386.97629,204.70267c0.1102,-0.44443 0.44261,-1.11477 1.44536,-1.11477c1.5,0 1.5,1.5 1.5,1.5l-0.25192,1.04294c-1.44732,2.12946 -5.1787,5.7046 -7.7251,2.3815c-1.09097,-1.42373 -0.3601,-3.54998 -0.04871,-5.0152c0,0 0.3254,-1.46428 1.78968,-1.13888c1.46428,0.3254 1.13888,1.78968 1.13888,1.78968c-0.01722,0.07334 -0.57907,2.11627 -0.47049,2.57697c0.17291,0.73371 2.00962,-1.30787 2.6223,-2.02223z" fill="#000000" stroke="none" stroke-width="0.5" stroke-linecap="butt"/><path d="M363.53687,248.51164l-13.29072,-3.96381l4.52366,-7.64348c0,0 7.42957,2.74775 10.32075,3.18344c2.06869,0.31174 3.72814,-2.96858 3.72814,-2.96858c0,0 1.22381,5.18873 0.3105,6.30436c-0.87388,1.06746 -5.59232,5.08806 -5.59232,5.08806z" fill="#000000" stroke="#0f0f0f" stroke-width="1" stroke-linecap="butt"/><path d="M358.20273,240.02686l5.86498,-3.50854l5.48217,-0.27928c0,0 0.51549,0.91499 0.44216,1.65836c-0.08105,0.82169 -1.37311,4.54993 -1.37311,4.54993z" fill="#000000" stroke="none" stroke-width="0" stroke-linecap="butt"/><path d="M372.26006,240.49233l5.86498,-3.50853l5.48217,-0.27929c0,0 0.51549,0.91499 0.44216,1.65836c-0.08105,0.8217 -1.37311,4.54993 -1.37311,4.54993z" fill="#000000" stroke="none" stroke-width="0" stroke-linecap="butt"/><path d="M365.71677,238.4314c0,0.91127 -0.76112,1.65 -1.7,1.65c-0.93888,0 -1.7,-0.73873 -1.7,-1.65c0,-0.91127 0.76112,-1.65 1.7,-1.65c0.93888,0 1.7,0.73873 1.7,1.65z" fill="#ff0000" stroke="none" stroke-width="0" stroke-linecap="butt"/><path d="M365.99606,243.73781c0,0.91127 -0.76112,1.65 -1.7,1.65c-0.93888,0 -1.7,-0.73873 -1.7,-1.65c0,-0.91127 0.76112,-1.65 1.7,-1.65c0.93888,0 1.7,0.73873 1.7,1.65z" fill="#ff0000" stroke="none" stroke-width="0" stroke-linecap="butt"/><path d="M358.92085,240.94496c0,0.91127 -0.76112,1.65 -1.7,1.65c-0.93888,0 -1.7,-0.73873 -1.7,-1.65c0,-0.91127 0.76112,-1.65 1.7,-1.65c0.93888,0 1.7,0.73873 1.7,1.65z" fill="#ff0000" stroke="none" stroke-width="0" stroke-linecap="butt"/><path d="M369.71986,237.96593c0,0.91127 -0.76112,1.65 -1.7,1.65c-0.93888,0 -1.7,-0.73873 -1.7,-1.65c0,-0.91127 0.76112,-1.65 1.7,-1.65c0.93888,0 1.7,0.73873 1.7,1.65z" fill="#ff0000" stroke="none" stroke-width="0" stroke-linecap="butt"/><path d="M382.56696,237.03498c0,0.91127 -0.76112,1.65 -1.7,1.65c-0.93888,0 -1.7,-0.73873 -1.7,-1.65c0,-0.91127 0.76112,-1.65 1.7,-1.65c0.93888,0 1.7,0.73873 1.7,1.65z" fill="#ff0000" stroke="none" stroke-width="0" stroke-linecap="butt"/><path d="M378.75006,243.17924c0,0.91127 -0.76112,1.65 -1.7,1.65c-0.93888,0 -1.7,-0.73873 -1.7,-1.65c0,-0.91127 0.76112,-1.65 1.7,-1.65c0.93888,0 1.7,0.73873 1.7,1.65z" fill="#ff0000" stroke="none" stroke-width="0" stroke-linecap="butt"/><path d="M383.96338,241.41044c0,0.91127 -0.76112,1.65 -1.7,1.65c-0.93888,0 -1.7,-0.73873 -1.7,-1.65c0,-0.91127 0.76112,-1.65 1.7,-1.65c0.93888,0 1.7,0.73873 1.7,1.65z" fill="#ff0000" stroke="none" stroke-width="0" stroke-linecap="butt"/></g></g></svg>