<svg version="1.1" xmlns="http://www.w3.org/2000/svg" xmlns:xlink="http://www.w3.org/1999/xlink" width="92.34858" height="110.87794" viewBox="0,0,92.34858,110.87794"><defs><linearGradient x1="205.99405" y1="174.20782" x2="183.8732" y2="177.9573" gradientUnits="userSpaceOnUse" id="color-1"><stop offset="0" stop-color="#000000"/><stop offset="1" stop-color="#000000" stop-opacity="0"/></linearGradient></defs><g transform="translate(-182.52044,-138.98742)"><g data-paper-data="{&quot;isPaintingLayer&quot;:true}" stroke-miterlimit="10" stroke-dasharray="" stroke-dashoffset="0" style="mix-blend-mode: normal"><path d="M234.58807,205.4013l0.98643,-15.86593" fill="none" fill-rule="nonzero" stroke="#000000" stroke-width="6" stroke-linecap="round" stroke-linejoin="miter"/><path d="M217.63914,208.26109c0.76273,-0.97734 5.34399,-8.44842 9.8837,-13.33686c2.89208,-3.11424 7.99911,-3.78616 7.99911,-3.78616c0,0 6.35362,5.27408 9.24559,6.61526c1.81613,0.84225 5.03497,-0.14324 5.03497,-0.14324" fill="none" fill-rule="nonzero" stroke="#000000" stroke-width="6" stroke-linecap="round" stroke-linejoin="miter"/><path d="M243.71914,204.10309l2.92297,25.98777c0,0 7.06267,0.41252 6.89471,7.51322c-0.00958,0.40481 -0.10976,2.39235 -3.02746,2.97403c-2.79456,0.55712 -8.36532,-0.27515 -10.40081,-0.59138c-0.94539,-0.14688 -2.3855,-0.78756 -3.30585,-1.88454c-0.92663,-1.1045 -0.82654,-2.71079 -0.82591,-3.6144c0.00025,-0.36804 -2.07942,-29.30669 -2.07942,-29.30669" fill="#000000" fill-rule="evenodd" stroke="#001026" stroke-width="1.2" stroke-linecap="round" stroke-linejoin="round"/><path d="M233.75788,209.71142c0,0 -3.38365,30.23157 -4.0011,30.33136c-1.77192,0.28635 -11.48215,-2.27779 -11.48215,-2.27779l6.24171,-30.39505" data-paper-data="{&quot;index&quot;:null}" fill="#000000" fill-rule="evenodd" stroke="#001026" stroke-width="1.2" stroke-linecap="round" stroke-linejoin="round"/><path d="M232.09405,238.15795c-0.02471,0.4906 -0.78326,4.37077 -2.69077,7.11812c-1.4878,2.14285 -4.06623,3.2049 -4.98327,3.98929c-1.09796,0.93914 -4.37918,-1.08183 -5.95259,-4.45725c-1.25725,-2.69714 -0.97219,-6.71096 -0.93513,-7.44681c0.1713,-3.40126 1.92809,0.46456 6.39105,0.73978c4.46293,0.27521 8.34201,-3.3444 8.17069,0.05688z" fill="#92ff66" fill-rule="nonzero" stroke="#001026" stroke-width="1.2" stroke-linecap="butt" stroke-linejoin="miter"/><g data-paper-data="{&quot;index&quot;:null}" fill="#000000" fill-rule="nonzero" stroke="#000000" stroke-width="1.2" stroke-linecap="butt" stroke-linejoin="miter"><path d="M259.53616,204.82148c-1.39652,0.63085 -3.97454,-0.32259 -5.85733,-0.2396c-2.0271,0.08933 -3.22867,1.15938 -4.39897,0.48993c-0.81744,-0.46761 -1.04419,-1.75203 -1.07416,-2.43204c-0.07289,-1.65355 2.65915,-3.11704 6.10215,-3.26879c3.44301,-0.15176 6.29321,1.0657 6.36609,2.71924c0.03303,0.7493 0.01947,2.20849 -1.13776,2.73126z"/><path d="M261.18084,201.84813c-1.95519,0.8619 -6.84736,0.26575 -6.84736,0.26575c0,0 -3.05012,1.05006 -3.1212,1.05195c-4.52941,0.12082 -4.70571,-2.74047 -4.84921,-5.99647c-0.06831,-1.54964 0.455,-3.96023 1.83456,-4.86965c1.56458,-1.03139 3.83127,-0.65876 6.35913,-0.77017c4.75678,-0.20964 8.88642,1.5735 9.03218,4.8806c0.06416,1.45577 0.20327,4.28681 -2.40811,5.43798z"/></g><path d="M220.90155,216.53361c0,0 7.23416,-25.13095 9.1924,-26.70396c0.57497,-0.46186 10.92189,-0.0389 10.92189,-0.0389l7.91429,36.8z" fill="#92ff66" fill-rule="nonzero" stroke="#000000" stroke-width="1" stroke-linecap="butt" stroke-linejoin="miter"/><path d="M236.49383,240.2161c-1.60575,-1.19302 -2.25986,-3.39806 -2.15991,-5.05479c0.03057,-0.50678 7.68604,-0.66832 11.11866,-2.06752c2.71266,-1.10573 1.28615,-3.62809 1.82152,-3.22762c0.11104,0.08306 2.41338,0.33854 5.06018,2.71517c1.71769,1.54236 4.07661,5.4665 4.38914,5.75655c0.5514,0.51174 0.17694,2.66529 -3.97455,3.1422c-5.47186,0.62859 -15.2936,-0.54968 -16.25503,-1.26399z" fill="#92ff66" fill-rule="nonzero" stroke="#001026" stroke-width="1.2" stroke-linecap="butt" stroke-linejoin="miter"/><path d="M244.72256,204.98139l-0.15355,-6l23.8,-0.4v6.6" fill="none" fill-rule="nonzero" stroke="#000000" stroke-width="1" stroke-linecap="round" stroke-linejoin="miter"/><path d="M239.96902,219.98139v-15.8h34.4v15.8z" fill="#92ff66" fill-rule="nonzero" stroke="#000000" stroke-width="1" stroke-linecap="butt" stroke-linejoin="miter"/><path d="M253.03569,211.69119c0,3.03215 -2.50721,5.4902 -5.6,5.4902c-3.09279,0 -5.6,-2.45805 -5.6,-5.4902c0,-3.03215 2.50721,-5.4902 5.6,-5.4902c3.09279,0 5.6,2.45805 5.6,5.4902z" fill="#8e8888" fill-rule="nonzero" stroke="#000000" stroke-width="1" stroke-linecap="butt" stroke-linejoin="miter"/><path d="M272.76901,211.66055c0,3.04907 -2.37289,5.52083 -5.3,5.52083c-2.92711,0 -5.3,-2.47177 -5.3,-5.52083c0,-3.04907 2.37289,-5.52083 5.3,-5.52083c2.92711,0 5.3,2.47177 5.3,5.52083z" fill="#8e8888" fill-rule="nonzero" stroke="#000000" stroke-width="1" stroke-linecap="butt" stroke-linejoin="miter"/><path d="M261.36902,215.88139c0,0.71797 -1.79086,1.3 -4,1.3c-2.20914,0 -4,-0.58203 -4,-1.3c0,-0.71797 1.79086,-1.3 4,-1.3c2.20914,0 4,0.58203 4,1.3z" fill="#8e8888" fill-rule="nonzero" stroke="#000000" stroke-width="1" stroke-linecap="butt" stroke-linejoin="miter"/><path d="M229.95578,226.08155c0,0 -2.49763,1.0461 -3.50879,0.77033c-1.07959,-0.29444 -2.77692,-2.48462 -2.77692,-2.48462" fill="none" fill-rule="nonzero" stroke="#001026" stroke-width="1" stroke-linecap="round" stroke-linejoin="miter"/><path d="M244.67007,225.36726c0,0 -2.58743,1.64272 -3.85496,1.74213c-1.14948,0.09015 -3.43075,-1.1707 -3.43075,-1.1707" fill="none" fill-rule="nonzero" stroke="#001026" stroke-width="1" stroke-linecap="round" stroke-linejoin="miter"/><g fill-rule="nonzero" stroke-linejoin="miter"><path d="M253.41922,162.15173c2.24789,13.26186 -7.16498,25.91707 -21.02422,28.26621c-13.85924,2.34913 -26.91664,-6.49737 -29.16452,-19.75923c-2.24789,-13.26186 7.16498,-25.91707 21.02422,-28.26621c13.85924,-2.34913 26.91664,6.49737 29.16452,19.75923z" fill="none" stroke="#000000" stroke-width="4.5" stroke-linecap="butt"/><path d="M226.83012,192.24724l-29.07264,4.69077c0,0 -2.42726,0.06724 -2.23606,-0.87953c0.43844,-2.17099 4.8136,-11.88372 4.8136,-11.88372l-12.18524,-1.96437c0,0 -2.25046,-0.53526 -2.74906,-1.56567c-0.46383,-0.95855 9.20477,-12.09197 9.20477,-12.09197c0,0 -8.75397,-2.17736 -11.29291,-3.75626c-0.99698,-0.62 10.10266,-10.26085 18.026,-15.38562c3.87712,-2.50769 9.12045,-6.1832 13.62301,-7.68708c7.46556,-2.49354 13.76228,-1.23637 13.76228,-1.23637" fill="none" stroke="#000000" stroke-width="3" stroke-linecap="round"/><path d="M195.91409,197.25045c0,0 -0.75732,-1.29553 0.13186,-3.40668c1.11373,-2.64426 5.83575,-6.74182 3.81053,-8.79369c-2.62348,-2.65799 -14.97934,-0.09971 -14.09127,-4.15211c0.72921,-3.3275 8.95605,-10.26389 8.60988,-12.30618c-0.34541,-2.03778 -4.6389,-0.03479 -7.68135,-2.3094c-4.32703,-3.23497 -2.55507,-3.54098 -2.55507,-3.54098c0,0 10.30703,-9.32605 15.51392,-12.69035c4.88523,-3.15646 14.82399,-6.9117 14.82399,-6.9117c0,0 -12.42731,16.04949 -13.1839,24.34124c-0.83868,9.19154 19.58153,24.59095 19.58153,24.59095z" data-paper-data="{&quot;index&quot;:null}" fill="url(#color-1)" stroke="none" stroke-width="0" stroke-linecap="butt"/><path d="M231.96642,182.10598c0.21049,0.9725 -3.36564,6.35581 -4.70074,6.64478c-1.32852,0.28755 -6.51703,-4.89836 -6.72868,-5.87626c-0.22393,-1.03459 11.20549,-1.80311 11.42942,-0.76852z" fill="#ff0000" stroke="#000000" stroke-width="2.5" stroke-linecap="butt"/><path d="M226.61854,168.42773c0.58416,2.69893 -0.18691,5.15622 -2.52598,5.6625c-2.33907,0.50627 -3.07987,-1.62381 -3.66403,-4.32274c-0.58416,-2.69893 -0.79047,-4.94469 1.54862,-5.45096c2.33907,-0.50627 4.05724,1.41227 4.6414,4.11119z" fill="#070606" stroke="#000000" stroke-width="5" stroke-linecap="butt"/><path d="M240.42935,165.26799c0.52574,2.42904 -0.14681,4.63598 -2.30595,5.1033c-2.15914,0.46733 -3.16015,-1.20686 -3.68589,-3.6359c-0.52574,-2.42904 -0.37713,-4.6931 1.78201,-5.16042c2.15914,-0.46733 3.68409,1.26399 4.20983,3.69302z" fill="#070606" stroke="#000000" stroke-width="5" stroke-linecap="butt"/><path d="M215.83085,166.25214l4.23526,-0.91667" fill="none" stroke="#000000" stroke-width="5" stroke-linecap="round"/><path d="M237.42535,161.23719l6.29577,-0.85108" fill="none" stroke="#000000" stroke-width="5" stroke-linecap="round"/></g></g></g></svg>