<svg version="1.1" xmlns="http://www.w3.org/2000/svg" xmlns:xlink="http://www.w3.org/1999/xlink" width="67.46242" height="105.03033" viewBox="0,0,67.46242,105.03033"><defs><linearGradient x1="206.81253" y1="190.29048" x2="218.4001" y2="184.6219" gradientUnits="userSpaceOnUse" id="color-1"><stop offset="0" stop-color="#bebebe"/><stop offset="1" stop-color="#737373"/></linearGradient></defs><g transform="translate(-205.81822,-138.43044)"><g data-paper-data="{&quot;isPaintingLayer&quot;:true}" stroke-miterlimit="10" stroke-dasharray="" stroke-dashoffset="0" style="mix-blend-mode: normal"><path d="M235.41206,190.36658l-1.04544,15.62125" fill="none" fill-rule="nonzero" stroke="#000000" stroke-width="6" stroke-linecap="round" stroke-linejoin="miter"/><path d="M216.81977,206.99993c1.32333,-1.57529 18.74854,-15.84303 18.74854,-15.84303l17.85596,17.17159" fill="none" fill-rule="nonzero" stroke="#000000" stroke-width="6" stroke-linecap="round" stroke-linejoin="miter"/><g><g><g stroke-width="1.2"><path d="M244.04392,204.70964l3.09783,25.587c0,0 7.48518,0.40616 7.30717,7.39735c-0.01015,0.39857 -0.11633,2.35546 -3.20857,2.92817c-2.96174,0.54853 -8.86576,-0.27091 -11.02302,-0.58226c-1.00195,-0.14461 -2.52821,-0.77541 -3.50362,-1.85548c-0.98206,-1.08747 -0.87599,-2.66899 -0.87532,-3.55866c0.00026,-0.36236 -2.20382,-28.85474 -2.20382,-28.85474" fill="#ffffff" fill-rule="evenodd" stroke="#9b9b9b" stroke-linecap="round" stroke-linejoin="round"/><path d="M233.44964,211.54116c0.18243,-7.16484 5.84856,-7.28883 8.80072,-7.22396c1.28371,0.02821 1.11023,-1.88671 2.24626,3.71719c0.25019,1.2342 0.74187,6.30101 1.79326,10.61368c0.71996,2.95314 2.0704,5.56077 2.3227,6.30993c0.59611,1.77009 0.35089,3.3837 0.35089,3.3837l-1.08084,-1.17271c0,0 0.71222,0.81727 0.99744,1.30491c0.88857,1.51912 1.56826,2.66567 1.56826,2.66567c0,0 -7.54937,-0.45291 -10.48972,1.78183c-2.94034,2.23474 -1.48334,6.44096 -1.48334,6.44096c0,0 -5.59332,-0.79845 -6.04156,-3.66509c-0.11051,-0.7067 0.75701,-2.80973 0.75701,-2.80973c0,0 -0.63955,0.11896 -0.66027,-0.37037c-0.01057,-0.24944 0.84641,-3.94981 1.0368,-8.11252c0.25065,-5.4799 -0.14392,-11.83115 -0.11764,-12.86348z" fill="#9b9b9b" fill-rule="nonzero" stroke="#767676" stroke-linecap="butt" stroke-linejoin="miter"/></g><path d="M223.85266,206.45469c-0.01044,-0.21032 1.27042,0.40976 4.17279,0.48142c3.82897,0.09455 9.69292,-0.32845 11.34183,-0.54487c4.27589,-0.56122 4.99947,-2.05501 5.02715,-1.49749c0.10244,2.06313 -2.31614,5.88478 -7.20772,6.09439c-2.14962,0.09212 -6.54637,0.783 -9.03617,0.05663c-3.17587,-0.92652 -4.24045,-3.43363 -4.29788,-4.5901z" fill="#004fd9" fill-rule="nonzero" stroke="#001026" stroke-width="1.2" stroke-linecap="butt" stroke-linejoin="miter"/><g fill-rule="nonzero" stroke-linecap="butt" stroke-linejoin="miter"><g fill="none" stroke="none" stroke-width="1" font-family="sans-serif" font-weight="normal" font-size="12" text-anchor="start"/><path d="M223.3367,205.11287c0,0 9.1879,1.29877 13.41002,1.28066c4.2221,-0.01811 7.70056,-1.3712 7.70056,-1.3712c0,0 0.03324,2.0195 -1.84968,3.98496c-1.45749,1.52139 -4.25861,3.09744 -7.87914,3.13088c-3.29839,0.03046 -6.97824,-0.61325 -8.79974,-1.93417c-2.76086,-2.00212 -2.582,-5.09115 -2.582,-5.09115z" fill="#9b9b9b" stroke="#767676" stroke-width="1.2"/></g><g stroke-width="1.2"><path d="M233.48676,210.23148c0,0 -3.58607,29.76535 -4.24046,29.8636c-1.87792,0.28193 -12.16905,-2.24266 -12.16905,-2.24266l6.61511,-29.92631" data-paper-data="{&quot;index&quot;:null}" fill="#ffab19" fill-rule="evenodd" stroke="#001026" stroke-linecap="round" stroke-linejoin="round"/><path d="M235.07162,209.75159c0,0 -0.83772,6.29426 -1.08515,9.63162c-0.23732,3.20103 -0.37037,10.00064 -0.37037,10.00064c0,0 1.00597,4.94077 0.02246,6.15917c-0.45552,0.56432 -0.81447,-2.78947 -0.81447,-2.78947c0,0 0.40071,3.7809 0.44017,4.11415c0.27529,2.32517 -0.98106,5.37857 -4.27324,5.66866c-3.61461,0.31849 -9.6071,0.67822 -12.69627,-1.16136c-1.31439,-0.78271 -3.09481,-3.08675 -2.61562,-5.54117c0.54039,-2.76795 3.44243,-5.66769 3.44243,-5.66769l-2.66662,3.16086c0,0 -0.0278,-1.57827 0.40609,-2.73602c0.48726,-1.30015 2.37602,-4.68731 2.37602,-4.68731l5.72563,-19.0624" data-paper-data="{&quot;index&quot;:null}" fill="#9b9b9b" fill-rule="evenodd" stroke="#767676" stroke-linecap="round" stroke-linejoin="round"/><path d="M231.72338,238.23932c-0.0906,1.67131 -0.82971,3.61313 -2.43396,4.62145c-1.6102,1.01206 -11.28752,0.61099 -12.78358,-0.62589c-1.42076,-1.17462 -1.9995,-3.34566 -1.91107,-4.97684c0.18155,-3.34881 4.16308,-5.84391 8.89303,-5.57293c4.72992,0.27097 8.41713,3.20539 8.23556,6.55422z" fill="#ffffff" fill-rule="nonzero" stroke="#9b9b9b" stroke-linecap="butt" stroke-linejoin="miter"/></g></g><g fill="none" fill-rule="nonzero" stroke="none" stroke-width="1" stroke-linecap="butt" stroke-linejoin="miter" font-family="sans-serif" font-weight="normal" font-size="12" text-anchor="start"/></g><path d="M224.32916,204.44286c0,0 3.66238,-5.90432 3.2014,-7.71528c-0.11275,-0.44294 -3.17419,6.95078 -3.67279,6.52776c-2.37766,-2.01725 -8.17583,-3.67243 -8.17583,-3.67243c0,0 9.21707,-6.14447 13.10855,-8.92755c1.07448,-0.76844 5.65015,-0.70239 5.94979,-0.937c0.38698,-0.30301 16.31217,9.30122 16.31217,9.30122c0,0 -4.88205,3.26427 -4.92543,6.40853c-0.00031,0.02234 -3.90008,-9.09568 -3.90491,-8.74542c-0.02895,2.09839 0.86022,7.7594 0.86022,7.7594c0,0 -5.64779,1.17819 -8.45881,1.22526c-3.09887,0.05189 -10.29437,-1.22445 -10.29437,-1.22445z" fill="#ffffff" fill-rule="nonzero" stroke="#9b9b9b" stroke-width="2.5" stroke-linecap="butt" stroke-linejoin="miter"/><g fill-rule="nonzero" stroke-linecap="butt" stroke-linejoin="miter"><g data-paper-data="{&quot;index&quot;:null}" stroke="none" stroke-width="1"><path d="M211.12394,194.36584c-0.22408,0.01558 -0.32235,-0.09833 -0.41206,-0.25102c-0.12076,-0.25144 -0.1847,-0.52058 -0.28643,-0.77794c-0.07241,-0.03164 -0.1448,-0.0633 -0.21201,-0.07849c-1.41355,-0.39078 -2.38949,-1.24299 -3.21207,-2.26942c-0.17245,-0.21726 -0.36389,-0.42867 -0.44672,-0.69188c-0.01551,-0.04937 -0.0552,-0.10927 -0.1035,-0.13036c-0.2655,-0.11603 -0.33283,-0.32992 -0.42427,-0.55437c-0.0811,-0.19151 -0.12429,-0.39486 -0.18641,-0.59229c-0.03624,-0.11516 -0.03458,-0.24214 0.05327,-0.35986c0.08786,-0.11767 0.10331,-0.26702 0.1239,-0.39988c0.02898,-0.76775 0.20616,-1.52748 0.51262,-2.27328c0.18081,-0.41761 0.43916,-0.78713 0.71649,-1.16252c0.81822,-1.1039 1.91061,-1.93189 3.19442,-2.54853c0.58074,-0.27118 1.20632,-0.46602 1.8526,-0.59506c0.48944,-0.09823 0.97725,-0.06949 1.45127,-0.01842c1.50827,0.16256 2.75985,0.76633 3.79957,1.68902c0.2,0.17257 0.35351,0.39571 0.50702,0.61889c0.10866,0.14679 0.23111,0.27126 0.45173,0.31096c0.19648,0.02915 0.31892,0.15358 0.40861,0.30628c0.12076,0.25144 0.2036,0.51468 0.28643,0.77794c0.02589,0.08228 0.0087,0.15991 -0.00853,0.23753c-0.09811,0.28346 -0.07732,0.54798 -0.0134,0.81713c0.15711,0.56531 0.11426,1.15672 0.09037,1.74224c-0.01371,0.22107 -0.04632,0.44799 -0.12204,0.67031c-0.23063,0.72217 -0.49059,1.41738 -0.95222,2.06698c0.07766,0.24677 0.14155,0.51594 0.22443,0.77917c0.03107,0.09873 0.06731,0.21389 -0.02573,0.3151c-0.07407,0.09531 -0.02406,0.18816 0.00703,0.28685c0.18818,0.66399 0.39529,1.3221 0.58346,1.9861c0.44186,1.4702 0.88898,2.95682 1.29295,4.43881c0.39361,1.4491 0.84415,2.88045 1.27566,4.31774c0.0725,0.23034 0.10188,0.45603 0.17439,0.68634c0.35212,1.11878 0.70421,2.23756 1.03738,3.36224c0.06214,0.19742 0.16217,0.38306 0.10537,0.59944c-0.01719,0.07764 0.02763,0.15396 0.05351,0.23624c0.25895,0.82263 0.50405,1.66763 0.76296,2.49026c0.01035,0.0329 0.02586,0.08226 0.03624,0.11516c0.10183,0.25734 0.01053,0.43029 -0.21862,0.62812c-0.77187,0.65591 -1.66968,1.04392 -2.69345,1.16409c-0.26198,0.02739 -0.53429,0.02188 -0.79803,-0.02243c-0.19649,-0.02915 -0.31375,-0.13713 -0.38449,-0.29573c-0.2122,-0.47588 -0.44338,-0.94583 -0.66077,-1.43816c-0.15184,-0.35017 -0.27094,-0.72858 -0.47964,-1.061c-0.45707,-0.72478 -0.69185,-1.53687 -1.09207,-2.27932c-0.21565,-0.42058 -0.46403,-0.81296 -0.66073,-1.23947c-0.20703,-0.4594 -0.4468,-0.89057 -0.66764,-1.32759c-0.39678,-0.79776 -0.76082,-1.62379 -1.17657,-2.41562c-0.57439,-1.03145 -1.07303,-2.08659 -1.5716,-3.14166c-0.17597,-0.36073 -0.35195,-0.72135 -0.52791,-1.08208c-0.26227,-0.56868 -0.52965,-1.1538 -0.79187,-1.72246c-0.1415,-0.31725 -0.31569,-0.60624 -0.45719,-0.92346c-0.16563,-0.32784 -0.26399,-0.64037 -0.41583,-0.99055zM211.52535,193.98791c0.25855,0.02787 0.50675,0.02285 0.75836,-0.03743c0.53949,-0.00545 1.06168,-0.13194 1.58387,-0.25846c0.66008,-0.15139 1.31838,-0.37448 1.95775,-0.59169c0.73414,-0.24672 1.35964,-0.64024 1.99894,-1.05613c0.06547,-0.05653 0.13094,-0.11304 0.22913,-0.19781c-0.0414,-0.13162 -0.08288,-0.26323 -0.12429,-0.39484c-0.01035,-0.0329 -0.03966,-0.05991 -0.07416,-0.10335c-0.1327,0.04131 -0.26022,0.0991 -0.38257,0.17334c-0.21194,0.12022 -0.4153,0.20158 -0.62724,0.32178c-0.53764,0.27583 -1.14086,0.40956 -1.69402,0.63603c-0.29813,0.11094 -0.5859,0.25471 -0.89438,0.33274c-0.67904,0.15731 -1.33217,0.39683 -2.03187,0.4883c-0.18099,0.02022 -0.38088,0.04639 -0.56189,0.0666c-0.1069,-0.07512 -0.2482,0.00506 -0.35336,0.00165c-0.12927,-0.01394 -0.25858,-0.02786 -0.46188,0.05354c0.2,0.17257 0.21046,0.40416 0.34841,0.57797c0.09998,-0.01306 0.20686,0.06202 0.32921,-0.01222zM212.4596,194.31115c-0.48262,-0.0123 -0.60151,0.0067 -0.83762,0.11635c0.0811,0.19151 0.15703,0.36661 0.23811,0.55814c0.03624,0.11516 0.13793,0.17384 0.26726,0.18776c0.08623,0.00929 0.18096,-0.02023 0.26715,-0.01095c0.32062,0.02663 0.65842,-0.02442 0.95653,-0.13532c0.1586,0.0409 0.31023,-0.00627 0.46191,-0.05352c0.85822,-0.24923 1.70271,-0.47614 2.53507,-0.80761c0.3688,-0.15099 0.73242,-0.31842 1.07186,-0.49641c0.26367,-0.15439 0.54625,-0.31465 0.7116,-0.58294c-0.06733,-0.2139 -0.13467,-0.42774 -0.20197,-0.64166c-0.14129,0.08012 -0.26367,0.15437 -0.36702,0.22267c-0.48938,0.29691 -0.98909,0.56096 -1.50955,0.75918c-0.66691,0.26189 -1.35973,0.44153 -2.04736,0.63764c-0.32229,0.10038 -0.65666,0.09615 -0.97374,0.21295c-0.20686,-0.06202 -0.40161,-0.01945 -0.57221,0.03368zM220.57357,211.89074c0.29646,0.01606 0.56703,-0.05012 0.82723,-0.14923c0.02411,0.01054 0.06724,0.01519 0.08622,0.00927c0.44979,-0.15814 0.88923,-0.3492 1.25968,-0.62717c0.22059,-0.15903 0.44629,-0.30158 0.57886,-0.54159c-0.28998,-0.92136 -0.57998,-1.84266 -0.88545,-2.81341c-0.39801,0.32265 -0.82711,0.54668 -1.26133,0.75414c-0.3774,0.18981 -0.77207,0.25852 -1.15981,0.41541c-0.15164,0.04724 -0.28953,0.07214 -0.44119,0.11937c-0.25335,-0.01143 -0.51534,0.01598 -0.80486,0.08807c0.15536,0.49359 0.452,0.90702 0.63491,1.35589c0.20704,0.45941 0.43304,0.91294 0.63491,1.35587c0.20685,0.06202 0.36887,0.04772 0.53089,0.03337zM219.05884,208.7314c0.1586,0.04088 0.31545,0.01015 0.46706,-0.03709c0.17238,0.0186 0.33784,-0.051 0.5136,-0.08768c0.53598,-0.14888 1.04608,-0.38 1.52682,-0.63812c0.28258,-0.16027 0.55483,-0.35348 0.76842,-0.60065c-0.0207,-0.06582 -0.02247,-0.13752 -0.04321,-0.20333c-0.25371,-0.80622 -0.50224,-1.59589 -0.73704,-2.40797c-0.25031,-0.86143 -0.49545,-1.70642 -0.74574,-2.56786c-0.37461,-1.25631 -0.72499,-2.50206 -1.09962,-3.75836c-0.40222,-1.41028 -0.85616,-2.78639 -1.22045,-4.20848c-0.05352,-0.23624 -0.1502,-0.47711 -0.22784,-0.72392c-0.18779,0.13075 -0.34628,0.28851 -0.54446,0.38635c-0.61689,0.35472 -1.28381,0.61661 -1.96108,0.84563c-0.6066,0.18892 -1.21842,0.3614 -1.83024,0.53387c-0.25682,0.04385 -0.48945,0.09824 -0.74626,0.14209c-0.1827,-0.05149 -0.34298,0.03456 -0.505,0.04889c-0.18099,0.02022 -0.35333,0.00165 -0.53773,0.07715c0.01387,0.17634 0.09321,0.29617 0.14841,0.4054c0.51406,0.90578 0.8816,1.87522 1.33877,2.79868c0.29157,0.59569 0.5831,1.19138 0.89365,1.78112c0.39678,0.79776 0.80733,1.57314 1.19895,2.35443c0.32607,0.63911 0.6521,1.27826 0.95917,1.9233c0.34156,0.68851 0.65899,1.36644 0.98164,2.06084c0.30191,0.62857 0.60902,1.27361 0.93506,1.91274c0.17576,-0.03669 0.3206,0.0266 0.46707,-0.03707zM218.45167,184.71298c-0.37043,0.27794 -0.74786,0.46776 -1.12003,0.67401c-0.39117,0.21216 -0.75817,0.43488 -1.15451,0.63055c-0.37741,0.1898 -0.78413,0.3526 -1.16669,0.52591c-0.40155,0.17925 -0.80305,0.3585 -1.22867,0.52721c-0.38773,0.15687 -0.79963,0.30321 -1.18738,0.4601c-0.41187,0.14633 -0.84447,0.22688 -1.23564,0.43903c-0.42912,0.02527 -0.82549,0.22097 -1.22878,0.32853c-0.42738,0.09696 -0.86344,0.23279 -1.29084,0.32977c-0.40843,0.09106 -0.84104,0.17158 -1.25466,0.24622c-0.43261,0.08052 -0.86695,0.08931 -1.28395,0.21923c0.08636,0.40668 0.1226,0.52183 0.36746,0.77075c0.25335,0.01143 0.50677,0.02285 0.78766,-0.01047c0.33781,-0.05101 0.67559,-0.102 1.03756,-0.14247c0.68079,-0.08555 1.33744,-0.18171 2.00094,-0.38834c0.45498,-0.1417 0.90477,-0.29987 1.38047,-0.37573c0.09998,-0.01306 0.2137,-0.0485 0.31706,-0.11681c0.21193,-0.12023 0.46359,-0.18049 0.69104,-0.25137c0.83412,-0.25977 1.63715,-0.61827 2.41606,-0.98735c1.03915,-0.46817 2.0041,-1.03968 2.9535,-1.66058c0.19297,-0.11431 0.38598,-0.2286 0.49098,-0.4239c-0.03974,-0.25861 -0.13638,-0.49952 -0.29161,-0.79437zM210.1769,185.1404c-0.08432,0.26111 -0.09285,0.49863 -0.12031,0.74203c-0.03785,0.21049 0.00535,0.41384 0.14332,0.58766c0.23283,0.34298 0.41401,0.72013 0.51929,1.12091c0.01035,0.0329 0.04481,0.07637 0.05,0.09282c0.1103,0.01982 0.18612,-0.00381 0.26541,-0.08268c0.01379,-0.02233 0.02238,-0.06116 0.0172,-0.07763c-0.0933,-0.49485 -0.14866,-1.00147 -0.16613,-1.51994c-0.00174,-0.07172 -0.01387,-0.17633 -0.07251,-0.23034c-0.15867,-0.23964 -0.31735,-0.47924 -0.63631,-0.63284zM209.82134,187.97896c-0.08295,-0.46192 -0.12277,-0.91921 -0.13847,-1.36595c-0.00354,-0.1434 -0.05871,-0.25269 -0.15703,-0.36659c-0.15692,-0.16788 -0.34141,-0.29111 -0.53107,-0.43077c-0.05863,-0.054 -0.1224,-0.12445 -0.22582,-0.05612c-0.00676,0.30923 -0.03763,0.60791 -0.00651,0.90529c0.53977,0.59064 0.53974,0.59063 0.80725,1.37443c0.0724,0.03166 0.15342,0.02447 0.25162,-0.06031zM214.99735,188.15537c0.01737,0.31977 0.05372,0.63366 0.09005,0.94751c0.00174,0.07173 0.00352,0.14342 0.04318,0.20332c0.21552,0.2219 0.41217,0.44972 0.70696,0.59278c0.16535,-0.26828 0.14454,-0.53278 0.18579,-0.79856c0.02063,-0.13285 -0.02942,-0.22569 -0.12254,-0.32314c-0.23449,-0.21601 -0.43111,-0.44385 -0.61386,-0.69399c-0.00517,-0.01646 -0.04824,-0.02112 -0.09651,-0.04219c-0.05169,0.03416 -0.12239,0.07426 -0.19299,0.11431zM213.95263,183.91024c-0.16359,0.34 -0.19967,0.62222 -0.25468,0.91033c-0.00686,0.11053 0.03801,0.18686 0.08286,0.26323c0.23804,0.35943 0.41914,0.73662 0.52966,1.15384c0.01552,0.04936 0.05,0.09282 0.06556,0.14215c0.21371,-0.04849 0.24645,-0.07674 0.20501,-0.20836c-0.13465,-0.4278 -0.16929,-0.86862 -0.09883,-1.30606c0.04126,-0.26577 -0.03984,-0.4573 -0.20194,-0.64167c-0.11209,-0.09158 -0.20001,-0.17259 -0.32761,-0.31348zM212.06343,187.29874c0.09477,-0.02954 0.09299,-0.10127 0.0723,-0.16708c-0.14496,-0.46066 -0.13316,-0.95211 -0.12129,-1.44359c-0.00019,-0.39737 -0.1951,-0.75218 -0.59337,-1.02557c-0.08609,0.18939 -0.05327,0.35984 -0.10145,0.53743c-0.09119,0.37164 0.00721,0.68422 0.18658,0.98969c0.18975,0.33833 0.39845,0.6708 0.47447,1.04455c0.03451,0.04343 0.05863,0.05403 0.08277,0.06456zM212.63095,184.33993c-0.05162,0.23285 -0.105,0.394 -0.13938,0.54923c-0.06535,0.25522 -0.02219,0.45856 0.12611,0.66527c0.21212,0.27718 0.35361,0.59442 0.47614,0.91754c0.05521,0.10929 0.09662,0.24089 0.13287,0.35604c0.09998,-0.01306 0.10338,-0.0683 0.09302,-0.10122c-0.05541,-0.50665 -0.09181,-1.01918 -0.0472,-1.53892c-0.00694,-0.08816 -0.0087,-0.15988 -0.05354,-0.23623c-0.16728,-0.20082 -0.31559,-0.40754 -0.588,-0.61173zM216.13985,187.6189c0.17422,0.28899 0.21053,0.60284 0.26582,0.91081c0.02589,0.08226 -0.01027,0.16579 0.05353,0.23623c0.09832,0.11393 0.40864,0.3063 0.66378,0.38945c0.08094,-0.20588 0.05669,-0.41509 0.07559,-0.61971c0.01026,-0.1658 -0.05011,-0.2915 -0.18632,-0.3936c-0.22412,-0.1831 -0.41038,-0.37802 -0.5501,-0.62356c-0.00516,-0.01647 -0.05346,-0.03753 -0.07757,-0.04808c-0.08102,0.00717 -0.15685,0.03077 -0.24468,0.14848zM209.99842,190.72392c0.18624,0.19489 0.2553,0.48053 0.49323,0.64128c0.12752,-0.05778 0.15852,-0.15776 0.21363,-0.24719c0.09126,-0.17297 0.21185,-0.31888 0.24968,-0.52938c-0.20693,-0.26074 -0.27261,-0.60159 -0.46577,-0.88465c-0.1103,-0.01982 -0.2051,0.00967 -0.28952,0.07212c-0.0257,0.31513 -0.0945,0.62561 -0.20123,0.94788zM212.78813,189.00604c0.01387,0.17634 0.02772,0.35267 -0.03081,0.49734c-0.13946,0.35052 -0.03244,0.62434 0.20724,0.85678c0.08791,0.081 0.11899,0.17973 0.26381,0.24304c0.13779,-0.2236 0.21354,-0.44589 0.28923,-0.6682c0.02239,-0.06117 0.00164,-0.12697 -0.04319,-0.20332c-0.15353,-0.22317 -0.28288,-0.43579 -0.43635,-0.65896c-0.01551,-0.04937 -0.07418,-0.10336 -0.24998,-0.06667zM211.59387,189.378c0.0381,0.38558 0.02788,0.75004 -0.13569,1.09005c-0.04132,0.06706 -0.00165,0.12697 0.01907,0.19277c0.06556,0.14217 0.15009,0.27846 0.31041,0.39107c0.19292,-0.31301 0.29102,-0.59651 0.38395,-0.89641c0.03098,-0.09996 0.02408,-0.18813 -0.02598,-0.28096c-0.09482,-0.16919 -0.17081,-0.34426 -0.26568,-0.51342c-0.00516,-0.01647 -0.05347,-0.03756 -0.07758,-0.0481c-0.05687,0.0177 -0.11376,0.03543 -0.2085,0.06496zM215.64714,184.26771c-0.12761,-0.14089 -0.26038,-0.2983 -0.388,-0.43922c-0.02411,-0.01054 -0.04829,-0.02111 -0.09653,-0.04219c-0.16195,0.21301 -0.21354,0.44589 -0.23243,0.65047c0.29324,0.46871 0.57609,0.90449 0.75215,1.4639c0.18255,-0.3459 -0.03303,-0.5678 -0.04346,-0.79939c-0.02598,-0.28096 -0.00888,-0.55724 0.00822,-0.83355zM209.78716,184.82821c-0.2517,-0.13838 -0.46554,-0.28858 -0.76714,-0.32109c-0.03959,0.13877 -0.10847,0.25057 -0.13425,0.36701c-0.02577,0.11643 -0.07055,0.23874 -0.03427,0.35392c0.10348,0.13033 0.26725,0.18774 0.39828,0.27339c0.13105,0.08561 0.22934,0.19957 0.40686,0.2346c0.04983,-0.30459 0.08593,-0.58677 0.1306,-0.90781zM208.61849,188.38972c-0.07953,-0.51718 -0.15214,-0.94623 -0.22469,-1.37523c-0.01035,-0.0329 -0.0069,-0.08819 -0.0552,-0.10927c-0.18966,-0.13964 -0.35177,-0.32401 -0.63443,-0.36242c-0.00335,0.25395 -0.01185,0.49147 -0.00139,0.72308c0.36554,0.30167 0.62768,0.67162 0.91573,1.12388zM214.4847,190.22999c0.13437,-0.16832 0.12049,-0.34464 0.15491,-0.49987c0.0482,-0.17759 0.0395,-0.33746 -0.0933,-0.49482c-0.17244,-0.21726 -0.34491,-0.43454 -0.38987,-0.70962c-0.14308,0.00843 -0.21371,0.04849 -0.18264,0.14721c0.05872,0.25267 0.12259,0.52184 0.07618,0.77114c-0.05327,0.35984 0.17606,0.55945 0.43473,0.78597zM212.4941,190.45249c-0.15841,0.35645 -0.29961,0.63528 -0.42187,0.90819c0.03624,0.11516 0.11383,0.16328 0.17245,0.21725c0.07758,0.0481 0.14654,0.13498 0.28959,0.12658c0.16713,-0.19659 0.30488,-0.42012 0.41857,-0.65422c-0.12418,-0.19615 -0.26215,-0.36998 -0.45873,-0.59781zM215.724,190.33177c-0.24826,-0.19366 -0.46727,-0.36029 -0.69138,-0.5434c-0.06538,0.25522 -0.13594,0.494 -0.20651,0.73274c0.2,0.17257 0.35693,0.34049 0.631,0.41766c0.12401,-0.20119 0.18596,-0.40116 0.26688,-0.60701zM210.53142,184.01829c-0.19642,0.16955 -0.18597,0.40117 -0.24795,0.6011c-0.02239,0.06117 0.02245,0.13752 0.07593,0.17507c0.16552,0.12912 0.3069,0.24767 0.46722,0.36034c0.00517,0.01646 0.04311,0.00463 0.08103,-0.00716c0.06024,-0.27166 0.09622,-0.55386 0.15647,-0.82554c-0.14654,-0.135 -0.33963,-0.21938 -0.53273,-0.30376zM213.59242,183.62499c-0.1328,-0.15735 -0.26038,-0.29827 -0.50515,-0.34852c-0.10504,0.19533 -0.24802,0.40244 -0.28068,0.62939c0.09311,0.09746 0.14832,0.20671 0.25521,0.28181c0.0879,0.081 0.11038,0.21855 0.29654,0.21475c0.08434,-0.26111 0.16866,-0.52222 0.23408,-0.77747zM216.2288,190.08423c0.12243,0.12445 0.31894,0.15357 0.5206,0.19916c0.08956,-0.24466 0.23246,-0.45179 0.23584,-0.70573c-0.1931,-0.0844 -0.34482,-0.23583 -0.59478,-0.30252c-0.06024,0.27166 -0.10148,0.53743 -0.16167,0.80909zM217.23234,186.98964c0.07425,0.30205 0.22954,0.59693 0.26584,0.91082c0.03976,0.2586 0.2139,0.34885 0.48279,0.40964c0.07572,-0.22228 0.05669,-0.41509 0.05141,-0.63023c-0.32928,-0.18646 -0.52249,-0.46956 -0.80006,-0.69021zM207.48443,188.49c0.07066,-0.04006 0.0551,-0.08941 0.03959,-0.13877c-0.04835,-0.21978 -0.12085,-0.45013 -0.15025,-0.67583c-0.02257,-0.33621 -0.26392,-0.44169 -0.56733,-0.54592c-0.00166,0.12701 -0.01367,0.22104 -0.00674,0.3092c0.0053,0.21514 0.04326,0.40201 0.27084,0.52988c0.13104,0.08562 0.21554,0.22193 0.29493,0.34173c0.00174,0.07173 -0.01026,0.16578 0.11899,0.17972zM209.25071,191.39038c0.07407,-0.09531 0.11024,-0.17886 0.15157,-0.24592c0.14814,-0.19064 0.15842,-0.35647 0.05835,-0.54208c-0.08966,-0.15272 -0.12768,-0.33962 -0.19843,-0.49823c-0.01551,-0.04938 -0.01211,-0.10462 -0.15,-0.07975c-0.02233,0.25987 -0.08249,0.53155 -0.1858,0.79856c-0.02239,0.06117 0.00352,0.14339 0.02421,0.20921c0.07932,0.11979 0.1535,0.2232 0.30007,0.35817zM214.30903,190.66406c-0.12759,-0.1409 -0.24142,-0.30417 -0.42077,-0.4109c-0.13259,0.24003 -0.29452,0.45303 -0.35993,0.70824c0.16553,0.1291 0.27416,0.27591 0.51377,0.3097c0.10506,-0.19533 0.23427,-0.38008 0.26687,-0.60702zM212.08636,184.72633c0.13257,-0.24002 0.18419,-0.47289 0.19786,-0.69391c-0.16551,-0.12911 -0.30691,-0.24763 -0.52414,-0.34258c-0.1206,0.14596 -0.17394,0.30711 -0.20316,0.47879c0.18105,0.17845 0.34317,0.36282 0.52938,0.55774zM212.86007,191.94633c0.15002,0.07976 0.23274,0.14429 0.34825,0.18056c0.07241,0.03164 0.13962,0.04685 0.20688,0.06202c0.16367,-0.14129 0.29804,-0.30961 0.36002,-0.50956c-0.14654,-0.135 -0.29313,-0.26998 -0.51897,-0.32611c-0.12401,0.20119 -0.25837,0.36952 -0.39615,0.59307zM208.21771,190.15848c-0.14637,0.2624 -0.25661,0.44121 -0.37545,0.65888c0.00174,0.07172 0.05692,0.18096 0.14489,0.26198c0.06897,0.08689 0.06732,0.21387 0.20695,0.26073c0.15508,-0.1025 0.24292,-0.22018 0.30148,-0.36487c-0.10182,-0.25734 -0.17945,-0.50415 -0.27783,-0.81673zM209.17332,184.13414c0.12071,0.05274 0.24139,0.1055 0.36203,0.15826c0.12072,0.05274 0.23619,0.08901 0.35685,0.14176c0.07575,-0.22228 0.16703,-0.39526 0.14799,-0.58803c-0.08792,-0.08099 -0.21203,-0.07848 -0.32233,-0.09834c-0.1103,-0.01982 -0.23619,-0.08901 -0.36368,-0.03125c-0.0775,0.15063 -0.16534,0.26827 -0.1808,0.41763zM215.22287,191.31885c-0.20344,-0.11728 -0.36036,-0.28523 -0.62931,-0.34597c-0.09125,0.17296 -0.16358,0.33999 -0.25488,0.51296c0.20343,0.11728 0.36377,0.22997 0.61717,0.24135c0.1068,-0.12359 0.22399,-0.21428 0.26699,-0.40833zM208.31077,186.3539c0.02056,-0.33157 0.03249,-0.62432 0.04441,-0.91705c-0.1069,-0.07512 -0.19483,-0.15613 -0.33788,-0.14769c-0.15157,0.24595 -0.17386,0.50576 -0.2151,0.77153c0.10691,0.07512 0.21379,0.15022 0.33445,0.20296c0.03966,0.05993 0.08275,0.06454 0.1741,0.09029zM211.57937,191.51419c-0.17074,-0.14554 -0.23285,-0.343 -0.42594,-0.42739c-0.15673,0.22948 -0.29969,0.43659 -0.38924,0.68129c0.16898,0.07384 0.22071,0.23837 0.44136,0.27804c0.16365,-0.14129 0.23083,-0.32483 0.37381,-0.53193zM214.34696,183.04676c-0.10163,0.14005 -0.17911,0.29064 -0.21351,0.4459c0.17591,0.162 0.3328,0.32991 0.51904,0.52481c0.05677,-0.21637 0.1291,-0.38344 0.229,-0.5952c-0.1759,-0.16201 -0.32762,-0.31348 -0.53451,-0.37551zM209.45943,191.72281c0.14313,0.19028 0.25699,0.35353 0.48797,0.42613c0.12575,-0.1295 0.23776,-0.23661 0.27217,-0.39187c-0.13796,-0.17382 -0.25696,-0.35349 -0.42425,-0.55433c-0.13437,0.16832 -0.24977,0.33072 -0.33587,0.52011zM212.48922,183.62535c0.07056,-0.23875 0.24802,-0.40246 0.22897,-0.59525c-0.16551,-0.12911 -0.34825,-0.18058 -0.54477,-0.20972c-0.1154,0.16241 -0.23601,0.30835 -0.23594,0.50703c0.17411,0.0903 0.32931,0.18646 0.55169,0.29787zM216.55833,190.66807c-0.16897,-0.07384 -0.29997,-0.15947 -0.49131,-0.17214c-0.07572,0.22228 -0.24803,0.40242 -0.25655,0.63994c0.15001,0.07976 0.28447,0.11014 0.46026,0.07345c0.11023,-0.17885 0.19634,-0.36823 0.28757,-0.5412zM207.34561,186.32928c-0.15517,-0.09621 -0.27063,-0.13246 -0.41892,-0.14055c-0.09126,0.17297 -0.15326,0.3729 -0.09108,0.57031c0.14482,0.06329 0.28958,0.12657 0.4396,0.20634c0.09472,-0.22822 0.05153,-0.43153 0.07038,-0.63614zM218.81686,187.92323c-0.1396,-0.04685 -0.25515,-0.08313 -0.37403,-0.06416c-0.06197,0.19992 -0.08597,0.3881 -0.06694,0.58088c0.12582,0.06921 0.24134,0.10549 0.3844,0.09706c0.08094,-0.20588 0.03773,-0.40919 0.05658,-0.61378zM213.84273,192.29061c0.17586,0.162 0.33271,0.13122 0.49815,0.06164c0.13269,-0.04131 0.25505,-0.11556 0.27049,-0.26491c-0.15517,-0.09621 -0.30514,-0.17594 -0.50166,-0.20508c-0.10163,0.14005 -0.1843,0.27419 -0.26698,0.40832zM216.54324,184.00666c-0.10347,-0.13035 -0.14489,-0.26196 -0.30347,-0.3029c-0.2911,0.39778 -0.09797,0.68088 0.20036,0.9673c0.03266,-0.22695 0.07049,-0.43749 0.10312,-0.6644zM211.96063,192.46134c0.14992,-0.11893 0.23775,-0.23662 0.30489,-0.42013c-0.1586,-0.0409 -0.22937,-0.19954 -0.40172,-0.21811c-0.1086,0.05187 -0.12576,0.12948 -0.18607,0.20245c-0.05509,0.0894 -0.13954,0.15185 -0.10331,0.26702c0.10691,0.07512 0.21382,0.15022 0.38618,0.16879zM212.47869,187.09716c0.23957,0.03377 0.34299,-0.03455 0.31532,-0.18852c-0.04834,-0.21978 -0.13462,-0.42778 -0.21573,-0.6193c-0.02068,-0.06579 -0.06559,-0.14215 -0.18967,-0.13964c-0.00158,0.32567 0.03476,0.6395 0.09004,0.94747zM217.64922,190.36444c0.06897,0.0869 0.16035,0.11266 0.27928,0.0937c0.14298,-0.20713 0.32906,-0.40959 0.37031,-0.67535c-0.25855,-0.02786 -0.41886,0.05816 -0.49975,0.26401c-0.0551,0.08942 -0.15335,0.17424 -0.14984,0.31764zM214.96714,186.14146c0.26537,-0.08264 0.31188,-0.13332 0.26531,-0.28134c-0.09146,-0.22443 -0.18807,-0.46531 -0.35536,-0.66613c-0.05845,0.34339 -0.10312,0.66441 0.09004,0.94748zM218.31482,186.92344c0.02245,0.13751 0.05875,0.2527 0.076,0.37375c0.0535,0.23626 0.05354,0.23624 0.42067,0.21226c0.00166,-0.12701 0.01712,-0.27633 0.01535,-0.34802c-0.19309,-0.08442 -0.34306,-0.16413 -0.51201,-0.23796zM211.23755,182.62414c-0.08788,0.11769 -0.2481,0.20375 -0.19116,0.38473c0.13962,0.04685 0.29305,0.07132 0.4568,0.1287c0.10165,-0.14006 0.22743,-0.26951 0.24285,-0.41886c-0.15862,-0.04089 -0.30342,-0.10424 -0.50852,-0.09456zM217.56742,188.58342c-0.02743,0.24339 -0.07391,0.4927 -0.10135,0.73611c0.06381,0.07042 0.14135,0.11855 0.24473,0.05023c0.12401,-0.20119 0.19978,-0.42354 0.18931,-0.65512c-0.1069,-0.07512 -0.20343,-0.11728 -0.33274,-0.1312zM215.02099,183.07171c0.12752,-0.05778 0.20162,-0.15311 0.24636,-0.27545c-0.05863,-0.05401 -0.11725,-0.108 -0.1759,-0.16199c-0.08273,-0.06456 -0.14658,-0.135 -0.27067,-0.13246c-0.11374,0.03542 -0.19817,0.09781 -0.24809,0.20373c0.14142,0.11856 0.30694,0.24764 0.44827,0.36621zM211.18291,183.90574c0.10165,-0.14006 0.14122,-0.27885 0.15667,-0.42817c-0.1827,-0.05149 -0.34649,-0.10885 -0.50505,-0.14979c-0.13612,0.09663 -0.18088,0.21894 -0.16878,0.32356c0.1741,0.0903 0.34825,0.18057 0.51718,0.25446zM215.93968,183.34559c-0.08792,-0.08099 -0.17586,-0.162 -0.28277,-0.23714c-0.02411,-0.01053 -0.06206,0.00127 -0.10519,-0.00337c-0.0603,0.07297 -0.16368,0.14129 -0.17912,0.29064c0.09834,0.11392 0.18803,0.26659 0.36213,0.35691c0.12573,-0.12949 0.17047,-0.25184 0.2049,-0.40707zM217.38987,184.44753c-0.03801,-0.18688 0.16016,-0.28475 0.10839,-0.44925c-0.11724,-0.10797 -0.18277,-0.25017 -0.37588,-0.33455c-0.1068,0.12359 -0.19467,0.24131 -0.09117,0.37163c0.10347,0.13036 0.13111,0.28431 0.35867,0.41218zM218.53127,189.33099c0.03958,-0.13878 0.0981,-0.28348 0.14287,-0.40578c0.01379,-0.02235 -0.01553,-0.04938 -0.02591,-0.08226c-0.10515,-0.00338 -0.22581,-0.05615 -0.38088,0.04639c-0.05332,0.16113 -0.10156,0.33873 -0.16868,0.52225c0.1534,0.02449 0.27234,0.00549 0.43261,-0.08052zM210.34498,183.22731c-0.1448,-0.0633 -0.2948,-0.14304 -0.41546,-0.19576c-0.15508,0.10249 -0.24296,0.22018 -0.31182,0.33197c0.05523,0.10929 0.19307,0.08437 0.28446,0.11013c0.0914,0.02573 0.1879,0.06793 0.31544,0.01014c0.06547,-0.05653 0.12577,-0.12951 0.12744,-0.25649zM210.21637,192.40839c0.13105,0.08561 0.23277,0.14431 0.33447,0.20294c0.0293,0.02702 0.09138,0.02576 0.11552,0.03629c0.13269,-0.04131 0.20679,-0.13665 0.25152,-0.25899c-0.13622,-0.10209 -0.25348,-0.2101 -0.42236,-0.28398c-0.09819,0.08479 -0.17228,0.18012 -0.27909,0.30371zM218.82138,186.74761c0.00854,-0.23752 0.01702,-0.47499 -0.11232,-0.68763c-0.15507,0.10249 -0.30159,0.1662 -0.35493,0.32731c0.18278,0.25018 0.1828,0.25018 0.46723,0.36031zM212.35533,192.59133c0.42068,0.21226 0.43958,0.20633 0.72905,-0.06452c-0.15002,-0.07976 -0.31374,-0.13711 -0.46373,-0.2169c-0.12752,0.05778 -0.20158,0.1531 -0.26533,0.28133zM213.97808,182.80035c-0.13621,-0.10209 -0.26208,-0.17129 -0.43446,-0.18989c-0.03274,0.02827 -0.07927,0.07888 -0.12579,0.1295c-0.02756,0.04473 -0.04995,0.1059 -0.07749,0.15057c0.13622,0.10208 0.25867,0.22655 0.43621,0.26159c0.09818,-0.08477 0.16195,-0.21301 0.20148,-0.3518zM208.83557,191.98938c0.04649,-0.05062 0.10679,-0.12361 0.11024,-0.17887c-0.00007,-0.19871 -0.08978,-0.35136 -0.27946,-0.49105c-0.09305,0.10122 -0.23432,0.18136 -0.26013,0.29782c0.12759,0.1409 0.20353,0.31598 0.42934,0.3721zM207.6225,185.15915c-0.0241,-0.01055 -0.04826,-0.0211 -0.09653,-0.04219c-0.20502,0.2084 -0.33763,0.44841 -0.47021,0.68842c0.09311,0.09745 0.18447,0.12318 0.34129,0.09242c0.07056,-0.23875 0.16004,-0.4834 0.22546,-0.73865zM213.67944,185.81993c-0.03607,0.28222 -0.09624,0.55385 0.01073,0.82765c0.00516,0.01647 0.09137,0.02571 0.12927,0.01392c0.09477,-0.02955 0.14989,-0.11896 0.12396,-0.2012c-0.01043,-0.2316 -0.11568,-0.43369 -0.26397,-0.64037zM213.17124,182.41932c-0.12583,-0.06923 -0.25171,-0.1384 -0.40512,-0.16289c-0.1327,0.04131 -0.21713,0.10375 -0.27567,0.24841c0.16379,0.05739 0.33272,0.13124 0.49129,0.17217c0.10335,-0.06831 0.16365,-0.1413 0.18948,-0.25773zM215.31972,191.95708c0.27057,-0.06621 0.50325,-0.12056 0.69448,-0.30659c-0.10347,-0.13034 -0.25687,-0.15485 -0.42407,-0.15698c-0.12058,0.14595 -0.2274,0.26953 -0.27039,0.46361zM207.30799,190.83925c0.13956,-0.15186 0.15334,-0.17417 0.13782,-0.22357c-0.0328,-0.17041 -0.17421,-0.289 -0.31041,-0.39107c-0.05343,-0.03753 -0.15342,-0.02445 -0.17922,0.09197c0.16034,0.11266 0.15183,0.35019 0.35187,0.5227zM208.41699,185.03818c0.08956,-0.24466 0.20318,-0.47879 0.13407,-0.76438c-0.22912,0.19781 -0.29972,0.43661 -0.3806,0.64244c0.04482,0.07637 0.11206,0.09153 0.24653,0.12191zM211.23332,192.59751c-0.07924,0.07888 -0.16367,0.14131 -0.24291,0.22018c0.1414,0.11858 0.29139,0.1983 0.48437,0.08399c0.0517,-0.03416 0.10335,-0.06832 0.10163,-0.14005c-0.06897,-0.08689 -0.18449,-0.1232 -0.34306,-0.16413zM216.18552,185.58138c0.17061,-0.05317 0.23608,-0.10963 0.1757,-0.23534c-0.05521,-0.10929 -0.11042,-0.21854 -0.18459,-0.3219c-0.03451,-0.04342 -0.08794,-0.08103 -0.15859,-0.04095c0.00527,0.21514 0.06224,0.39612 0.16747,0.59819zM208.8783,187.49588c-0.00853,0.23753 0.02091,0.46321 0.14508,0.65937c0.00518,0.01647 0.09137,0.02571 0.1103,0.01982c0.03789,-0.0118 0.0603,-0.07297 0.04993,-0.10589c-0.08626,-0.20798 -0.1105,-0.41724 -0.30536,-0.57336zM208.14452,188.33863c-0.10864,-0.14681 -0.16562,-0.32783 -0.33628,-0.47339c-0.02745,0.24339 -0.00841,0.43619 0.07953,0.51719c0.06897,0.08689 0.14481,0.06331 0.25677,-0.04383zM217.09634,191.18697c0.21194,-0.12022 0.47737,-0.20289 0.54792,-0.44164c-0.38263,-0.02533 -0.45318,0.21342 -0.54792,0.44164zM215.88848,188.27531c0.03788,-0.0118 0.05175,-0.03419 0.08963,-0.04598c-0.07074,-0.1586 -0.04153,-0.33031 -0.18293,-0.44885c-0.11892,0.01895 -0.17061,0.05314 -0.20159,0.15312c0.09311,0.09745 0.1914,0.21136 0.29492,0.34173zM211.30655,186.81183c0.01563,0.24804 0.03469,0.44084 0.11576,0.63237c0.01035,0.0329 0.05861,0.054 0.11548,0.03629c0.01898,-0.00592 0.05169,-0.03416 0.06547,-0.05653c0.00854,-0.23752 -0.05362,-0.43492 -0.29673,-0.61212zM209.21997,192.08643c-0.10336,0.06833 -0.14988,0.11892 -0.09643,0.15649c0.09311,0.09745 0.2052,0.189 0.31727,0.28057c0.07757,0.0481 0.13444,0.03039 0.1706,-0.05313c-0.1138,-0.16328 -0.21732,-0.29364 -0.39142,-0.38392zM212.05783,182.38673c0.0603,-0.07297 0.12577,-0.12951 0.18607,-0.20247c0.0138,-0.02234 0.00341,-0.05526 0.00686,-0.11053c-0.22746,0.07081 -0.45151,0.08643 -0.67726,0.22899c0.16379,0.05739 0.27927,0.09367 0.48436,0.08398zM210.91135,189.59053c0.07073,0.15862 0.13631,0.30081 0.2174,0.49234c0.13778,-0.2236 0.14807,-0.38935 0.07731,-0.54796c-0.11031,-0.01983 -0.17237,-0.01859 -0.29474,0.05564zM216.73431,187.32536c0.11209,0.09158 0.1311,0.28431 0.3707,0.31811c-0.06743,-0.41257 -0.0933,-0.49481 -0.19846,-0.49822c-0.09477,0.02955 -0.14132,0.08014 -0.17228,0.18012zM210.17949,187.19903c-0.14984,0.31763 -0.08765,0.51504 0.06583,0.73824c0.20325,-0.2801 -0.02091,-0.46317 -0.06583,-0.73824zM216.91755,184.46815c-0.13604,0.29528 -0.07907,0.47629 0.02098,0.6619c0.00517,0.01646 0.04826,0.02109 0.08617,0.00928c0.05688,-0.01769 0.08443,-0.06243 0.07406,-0.09532c-0.03279,-0.17042 -0.10354,-0.32903 -0.18122,-0.57582zM217.56668,186.79516c0.10347,0.13035 0.17422,0.28899 0.39999,0.34508c0.00509,-0.18225 -0.06048,-0.32441 -0.12084,-0.45012c-0.12927,-0.01394 -0.19989,0.02613 -0.27917,0.10502zM216.88781,183.44769c-0.17932,-0.10675 -0.23627,-0.28773 -0.44656,-0.2945c0.01563,0.24804 0.01563,0.24804 0.29663,0.41344c0.03274,-0.02827 0.06547,-0.05653 0.1499,-0.11895zM217.09426,190.32045c0.24985,-0.13202 0.33596,-0.32142 0.39792,-0.52137c-0.08792,-0.08099 -0.16379,-0.05739 -0.2051,0.00967c-0.05332,0.16114 -0.12567,0.32821 -0.19279,0.51169zM214.19511,182.49786c0.10859,-0.05188 0.19818,-0.09784 0.22396,-0.21425c-0.1017,-0.05864 -0.20344,-0.11732 -0.32231,-0.09833c-0.08961,0.04596 -0.13611,0.09661 -0.15334,0.17424c0.06381,0.07043 0.13622,0.10209 0.25172,0.13837zM213.63621,189.12129c0.01546,-0.14932 0.02231,-0.25989 -0.04669,-0.34678c-0.0293,-0.02702 -0.0724,-0.03166 -0.11551,-0.03629c-0.05688,0.01769 -0.12237,0.07423 -0.08788,0.11767c0.03107,0.09874 0.06732,0.2139 0.25008,0.26539zM210.70662,182.59076c-0.18616,0.00378 -0.31192,0.13329 -0.4532,0.21344c0.2948,0.14305 0.33272,0.1312 0.4532,-0.21344zM207.07775,188.65278c-0.00185,-0.27041 -0.00184,-0.2704 -0.20354,-0.316c-0.00686,0.11053 -0.0085,0.23752 0.20354,0.316zM214.65269,188.31691c-0.0914,-0.02573 -0.14824,-0.00802 -0.15683,0.03077c-0.05332,0.16114 -0.01886,0.2046 0.19837,0.29953c0.02065,-0.13286 -0.01042,-0.23162 -0.0415,-0.33034zM217.75514,184.35184c-0.06887,0.11181 -0.11881,0.21768 -0.04469,0.32101c0.28775,-0.14384 0.29637,-0.18259 0.04469,-0.32101zM206.49846,188.20095c-0.0775,0.15063 -0.05506,0.28812 -0.03775,0.40916c0.02069,0.0658 0.09313,0.09747 0.18617,-0.00377c-0.01731,-0.12105 -0.03975,-0.25861 -0.1484,-0.40541zM215.92053,182.75535c0.01387,0.17634 0.09661,0.24091 0.25865,0.22657c0,0 0.03274,-0.02827 0.02754,-0.04472c-0.01213,-0.10462 -0.14653,-0.13502 -0.28621,-0.18188zM212.32462,189.38525c0.10336,-0.06833 0.1206,-0.14596 0.08092,-0.20585c-0.01035,-0.0329 -0.05863,-0.054 -0.10171,-0.05866c-0.0431,-0.00463 -0.08959,0.04595 -0.07922,0.07886c-0.00342,0.05527 0.01728,0.12106 0.10003,0.18563zM213.32634,182.11812c0.11208,0.09157 0.20343,0.11731 0.33437,0.00423c-0.13622,-0.10208 -0.22239,-0.1114 -0.33437,-0.00423z" fill="#767676"/><path d="M213.91988,195.24734c0.61179,-0.17246 1.22364,-0.34494 1.83026,-0.53389c0.68247,-0.21255 1.34418,-0.4909 1.96108,-0.84562c0.19298,-0.1143 0.3377,-0.24967 0.54446,-0.38633c0.08286,0.26327 0.17432,0.48764 0.22784,0.72389c0.35913,1.40564 0.8182,2.7982 1.22044,4.20847c0.3556,1.26221 0.72504,2.50205 1.09962,3.75836c0.25032,0.86144 0.49542,1.70644 0.74571,2.56787c0.23477,0.8121 0.50228,1.59588 0.73708,2.40796c0.0207,0.06582 0.04142,0.13164 0.04318,0.20334c-0.20841,0.26365 -0.46692,0.43445 -0.76844,0.60064c-0.48079,0.25813 -0.99086,0.48925 -1.52681,0.63811c-0.17061,0.05317 -0.33604,0.12274 -0.51358,0.08768c0.16027,-0.08606 0.36534,-0.09574 0.54799,-0.24293c-0.2155,-0.22191 -0.2467,-0.51931 -0.34851,-0.77667c-0.00517,-0.01646 -0.01034,-0.03289 -0.02929,-0.02701c-0.29144,-0.39699 -0.4416,-0.87413 -0.68139,-1.30529c-0.08968,-0.15271 -0.23627,-0.28772 -0.25015,-0.46403c-0.06562,-0.34087 -0.33466,-0.60032 -0.40031,-0.94122c-0.00517,-0.01646 -0.0345,-0.04345 -0.04484,-0.07637c-0.15525,-0.29485 -0.32425,-0.56742 -0.44161,-0.8741c-0.11392,-0.36195 -0.36915,-0.6438 -0.44516,-1.01754c-0.18105,-0.17845 -0.21043,-0.40416 -0.30188,-0.62858c-0.01035,-0.0329 -0.01556,-0.04938 -0.02588,-0.08226c-0.25522,-0.28183 -0.28814,-0.65093 -0.46753,-0.95639c-0.17939,-0.30543 -0.25022,-0.66274 -0.41066,-0.97408c-0.17596,-0.36072 -0.40364,-0.6872 -0.47102,-1.09981c-0.01035,-0.0329 -0.02588,-0.08228 -0.0552,-0.10928c-0.17074,-0.14554 -0.17596,-0.3607 -0.25704,-0.55223c-0.03107,-0.09874 -0.04835,-0.21976 -0.11734,-0.30669c-0.1224,-0.12447 -0.14489,-0.26198 -0.1915,-0.41007c-0.02589,-0.08227 -0.03282,-0.17046 -0.09146,-0.22441c-0.18105,-0.17845 -0.21564,-0.42059 -0.28295,-0.63447c-0.02589,-0.08227 -0.03283,-0.17041 -0.09145,-0.22443c-0.1517,-0.15146 -0.18975,-0.33834 -0.24668,-0.51934c-0.09323,-0.29617 -0.3191,-0.55096 -0.39334,-0.853c0.00341,-0.05526 -0.06895,-0.08691 -0.10348,-0.13035z" fill="#87d7dc"/><path d="M213.91989,195.24737c0.03448,0.04345 0.10691,0.07509 0.12244,0.12446c0.07427,0.30205 0.28119,0.56277 0.39336,0.85301c0.05694,0.18099 0.09496,0.36789 0.24668,0.51933c0.05863,0.05401 0.06557,0.14218 0.09147,0.2244c0.06734,0.21387 0.12082,0.45013 0.28291,0.63451c0.05863,0.054 0.04662,0.14809 0.09147,0.22442c0.0466,0.14806 0.08803,0.27971 0.1915,0.41007c0.06897,0.08689 0.08627,0.20801 0.11734,0.30672c0.0811,0.19151 0.08638,0.40667 0.25706,0.55222c0.0293,0.02702 0.04484,0.07636 0.05521,0.10926c0.06223,0.39613 0.29508,0.73913 0.47105,1.09981c0.16562,0.32783 0.23643,0.6851 0.41062,0.9741c0.17939,0.30541 0.21231,0.67455 0.46753,0.95637c0.02411,0.01056 0.01552,0.04938 0.02588,0.08229c0.06734,0.21387 0.12086,0.45011 0.30192,0.62859c0.05704,0.37968 0.31229,0.66149 0.44513,1.01755c0.09837,0.3126 0.28637,0.57922 0.4416,0.87412c0.01035,0.0329 0.03454,0.04346 0.04486,0.07636c0.06562,0.34087 0.33465,0.60031 0.40031,0.94121c0.03801,0.18687 0.17938,0.30545 0.25014,0.46404c0.22081,0.43705 0.38995,0.90829 0.68138,1.30528c0.00517,0.01646 0.02934,0.027 0.02934,0.027c0.10183,0.25735 0.13297,0.55478 0.34852,0.77667c-0.16367,0.1413 -0.37397,0.13452 -0.548,0.24292c-0.15163,0.04724 -0.30331,0.09443 -0.46711,0.03704c-0.03107,-0.09874 -0.04835,-0.21976 -0.11734,-0.30666c-0.24143,-0.30416 -0.33119,-0.65561 -0.47787,-0.98932c-0.14665,-0.33367 -0.3881,-0.63785 -0.44514,-1.01751c-0.18105,-0.17845 -0.21048,-0.40415 -0.30192,-0.62858c-0.01035,-0.0329 -0.02589,-0.08226 -0.05521,-0.10927c-0.1414,-0.11857 -0.15523,-0.29487 -0.22081,-0.43708c-0.02589,-0.08227 -0.05181,-0.16452 -0.09145,-0.22442c-0.20872,-0.33244 -0.40365,-0.6872 -0.52275,-1.06564c-0.01551,-0.04938 -0.01726,-0.12109 -0.06556,-0.14216c-0.14653,-0.13499 -0.17941,-0.30542 -0.23119,-0.46995c-0.03801,-0.18687 -0.22251,-0.31008 -0.26566,-0.51342c-0.06389,-0.26915 -0.23636,-0.48641 -0.35712,-0.73784c-0.15185,-0.35016 -0.3743,-0.66022 -0.49338,-1.03864c-0.0207,-0.06582 -0.02764,-0.15399 -0.08111,-0.19153c-0.11723,-0.10803 -0.14491,-0.26196 -0.21045,-0.40413c-0.04142,-0.13162 -0.1018,-0.25732 -0.17595,-0.36073c-0.14313,-0.19028 -0.24838,-0.39233 -0.3209,-0.62268c-0.12769,-0.33959 -0.36915,-0.64378 -0.4262,-1.02342c-0.01035,-0.0329 -0.04481,-0.07636 -0.0552,-0.10929c-0.16562,-0.32783 -0.35021,-0.64966 -0.47784,-0.98927c-0.11392,-0.36195 -0.3795,-0.67669 -0.45549,-1.05046c-0.01551,-0.04938 -0.06899,-0.08689 -0.10348,-0.13035c-0.10523,-0.20207 -0.19668,-0.42651 -0.20712,-0.65809c0.08962,-0.04596 0.16541,-0.06961 0.23609,-0.10965c0.28095,-0.0333 0.51876,-0.07124 0.77041,-0.13154z" fill="#b0eef2"/><path d="M218.45168,184.713c0.15523,0.29485 0.25186,0.53578 0.25371,0.80619c-0.11025,0.17886 -0.3032,0.29318 -0.49099,0.42391c-0.95459,0.60442 -1.91438,1.19238 -2.95352,1.66056c-0.7841,0.35259 -1.58715,0.71111 -2.41606,0.98735c-0.22747,0.07083 -0.47911,0.13117 -0.69108,0.25134c-0.08962,0.04596 -0.20337,0.08139 -0.31707,0.11681c-0.47569,0.07589 -0.9203,0.25049 -1.38046,0.37575c-0.64972,0.18431 -1.32017,0.3028 -2.00094,0.38835c-0.34297,0.03456 -0.6808,0.08557 -1.03755,0.14251c-0.27574,0.04972 -0.53429,0.02189 -0.78768,0.01047c-0.2259,-0.25484 -0.2811,-0.36407 -0.36745,-0.77075c0.42219,-0.11345 0.85139,-0.13872 1.28395,-0.21923c0.41363,-0.07462 0.84619,-0.15515 1.25467,-0.24623c0.42739,-0.09696 0.86862,-0.21633 1.29082,-0.32976c0.40843,-0.09106 0.80477,-0.28681 1.22881,-0.32853c0.39118,-0.21216 0.82375,-0.29267 1.23565,-0.43902c0.39293,-0.14043 0.7996,-0.30325 1.18737,-0.46013c0.40671,-0.1628 0.8082,-0.34204 1.22872,-0.52718c0.38257,-0.17334 0.78926,-0.33613 1.16666,-0.52596c0.39633,-0.1957 0.76337,-0.41839 1.15455,-0.63055c0.41013,-0.21806 0.7875,-0.40785 1.15796,-0.68583z" fill="url(#color-1)"/><path d="M213.17358,195.3895c-0.07065,0.04006 -0.14649,0.06369 -0.23607,0.10966c0.01046,0.23161 0.07776,0.44545 0.20712,0.6581c0.03448,0.04346 0.08793,0.08101 0.10347,0.13035c0.07599,0.37376 0.32264,0.69442 0.4555,1.05046c0.10874,0.34551 0.31226,0.66149 0.47782,0.98929c0.01035,0.0329 0.04485,0.07637 0.05521,0.10926c0.05702,0.37968 0.31223,0.66149 0.42617,1.02345c0.06734,0.21387 0.17774,0.43242 0.3209,0.62267c0.07931,0.11978 0.13973,0.24551 0.17596,0.36071c0.0466,0.14806 0.06908,0.28559 0.21047,0.40415c0.05342,0.03754 0.06037,0.12574 0.08108,0.19155c0.11392,0.36195 0.3416,0.68846 0.49341,1.03862c0.12074,0.25144 0.29324,0.46869 0.35711,0.73784c0.03801,0.18687 0.22249,0.31007 0.26566,0.51342c0.03282,0.17043 0.07082,0.3573 0.23116,0.46998c0.03448,0.04346 0.05002,0.0928 0.06557,0.14214c0.11908,0.37839 0.30879,0.71674 0.52274,1.06563c0.04482,0.07637 0.0518,0.1645 0.09143,0.22441c0.0466,0.14806 0.07947,0.31849 0.22084,0.43704c0.0293,0.02702 0.04485,0.07635 0.0552,0.10925c0.06734,0.21387 0.12085,0.45013 0.30191,0.62859c0.05704,0.37967 0.29849,0.68386 0.44515,1.01751c0.14665,0.33367 0.24161,0.70153 0.47784,0.98927c0.06897,0.0869 0.08625,0.20799 0.11735,0.3067c-0.16545,0.06959 -0.31023,0.00631 -0.44813,0.0312c-0.31227,-0.66147 -0.63314,-1.28418 -0.93503,-1.91275c-0.34157,-0.6885 -0.65902,-1.36643 -0.98166,-2.0608c-0.30709,-0.64505 -0.63315,-1.28417 -0.95918,-1.92331c-0.39678,-0.79776 -0.80735,-1.57315 -1.19897,-2.35444c-0.29157,-0.5957 -0.58307,-1.19138 -0.89362,-1.78113c-0.45718,-0.92347 -0.8437,-1.88703 -1.33879,-2.79866c-0.06038,-0.1257 -0.15868,-0.23961 -0.1484,-0.40539c0.17061,-0.05317 0.35675,-0.05691 0.53774,-0.07715c0.10515,0.00337 0.26538,-0.08267 0.44296,-0.04764z" fill="#87d7dc"/><path d="M220.02934,208.97108c0.38774,-0.15689 0.77725,-0.24208 1.15979,-0.41543c0.43427,-0.2075 0.86333,-0.43149 1.26134,-0.75413c0.30034,0.95425 0.59549,1.89204 0.88548,2.81338c-0.15155,0.24594 -0.37731,0.38848 -0.5789,0.5416c-0.3894,0.28387 -0.81506,0.45256 -1.25968,0.62717c-0.01898,0.00592 -0.06203,0.00126 -0.0862,-0.00927c0.13955,-0.15184 0.04125,-0.26574 -0.03811,-0.38557c-0.19837,-0.29954 -0.37775,-0.60495 -0.46234,-0.93992c-0.0207,-0.06582 -0.04143,-0.13162 -0.08111,-0.1915c-0.21214,-0.27719 -0.29673,-0.61212 -0.452,-0.90702c-0.09482,-0.16919 -0.17423,-0.28892 -0.34834,-0.37925z" fill="#61afb4"/><path d="M212.20055,193.28987c0.69456,-0.10792 1.35285,-0.33102 2.03188,-0.48832c0.30848,-0.078 0.60145,-0.2054 0.89443,-0.33277c0.55838,-0.21002 1.15636,-0.36014 1.694,-0.63601c0.21714,-0.10375 0.43426,-0.20749 0.62727,-0.32179c0.12237,-0.07424 0.24983,-0.13202 0.38257,-0.17335c0.03451,0.04342 0.06379,0.07046 0.07415,0.10339c0.0414,0.13162 0.08287,0.26322 0.12431,0.39484c-0.07923,0.07888 -0.14474,0.13538 -0.22914,0.19782c-0.62028,0.40997 -1.25959,0.82588 -1.99894,1.05615c-0.63937,0.21722 -1.29764,0.44028 -1.95775,0.5917c-0.52223,0.12653 -1.03923,0.26947 -1.58388,0.25847c0.0844,-0.06244 0.2137,-0.0485 0.25844,-0.17082c-0.01905,-0.19278 -0.02949,-0.42438 -0.31735,-0.47924z" fill="#767676"/><path d="M213.00242,194.25048c0.31193,-0.13327 0.64629,-0.12901 0.97373,-0.21293c0.68766,-0.19611 1.37529,-0.39217 2.04737,-0.63765c0.53939,-0.20411 1.03912,-0.46818 1.50955,-0.7592c0.12237,-0.07424 0.24466,-0.14846 0.36702,-0.2227c0.0725,0.23034 0.13468,0.42777 0.20196,0.64166c-0.16535,0.26828 -0.42386,0.43908 -0.7116,0.58294c-0.33946,0.17801 -0.69788,0.36186 -1.07184,0.4964c-0.83236,0.33147 -1.67684,0.55836 -2.53509,0.80762c-0.15164,0.04723 -0.30333,0.09447 -0.46191,0.05354c-0.02589,-0.08227 -0.03285,-0.17042 -0.09146,-0.22441c-0.1276,-0.14091 -0.17081,-0.34427 -0.22776,-0.5252z" fill="#767676"/><path d="M220.02933,208.97108c0.15002,0.07976 0.24826,0.19366 0.31902,0.35228c0.15524,0.29486 0.23985,0.62986 0.45199,0.907c0.03967,0.05992 0.06041,0.12573 0.08111,0.19155c0.10877,0.34551 0.28294,0.63447 0.46233,0.93991c0.07416,0.10338 0.17766,0.23372 0.0381,0.38558c-0.27919,0.10501 -0.55492,0.15478 -0.82726,0.14927c-0.12939,-0.21264 -0.27768,-0.41936 -0.31228,-0.66149c-0.01035,-0.0329 -0.04483,-0.07636 -0.05521,-0.10927c-0.16043,-0.31132 -0.32605,-0.63913 -0.46753,-0.95638c-0.06556,-0.14216 -0.10696,-0.2738 -0.19149,-0.41008c-0.11379,-0.16327 -0.19493,-0.35481 -0.1571,-0.56531c0.08961,-0.04596 0.16543,-0.06959 0.23608,-0.10963c0.13269,-0.04131 0.28955,-0.07212 0.42221,-0.11345z" fill="#87d7dc"/><path d="M210.1769,185.1404c0.3,0.15947 0.47761,0.39315 0.63631,0.63284c0.03967,0.05991 0.07073,0.15864 0.0725,0.23034c-0.00148,0.52435 0.07283,1.02511 0.16613,1.51993c0.00517,0.01646 -0.00342,0.05525 -0.01719,0.07763c-0.0603,0.07297 -0.15508,0.10252 -0.26539,0.08268c-0.01035,-0.0329 -0.03971,-0.05991 -0.05004,-0.09282c-0.10527,-0.40075 -0.26749,-0.78383 -0.51928,-1.12091c-0.119,-0.17972 -0.17597,-0.36073 -0.14332,-0.58767c0.04644,-0.2493 0.03597,-0.48089 0.12032,-0.74204z" fill="#cce5e6"/><path d="M209.82134,187.97896c-0.09819,0.08479 -0.17919,0.09195 -0.25161,0.06031c-0.28645,-0.77793 -0.28647,-0.77791 -0.80726,-1.37444c-0.05012,-0.29152 -0.00545,-0.61252 0.00652,-0.90528c0.12237,-0.07424 0.17234,0.01858 0.2258,0.05613c0.18966,0.13964 0.37414,0.26286 0.53106,0.43078c0.09832,0.11393 0.15347,0.2232 0.157,0.36658c0.01571,0.44677 0.05557,0.90402 0.13848,1.36595z" fill="#cce5e6"/><path d="M219.58816,209.09042c-0.07066,0.04006 -0.14651,0.06369 -0.23608,0.10964c-0.03784,0.2105 0.04326,0.40201 0.15711,0.56531c0.08454,0.13628 0.12596,0.26787 0.19149,0.41009c0.14149,0.31725 0.30708,0.64503 0.46752,0.95637c0.01035,0.0329 0.04486,0.07637 0.0552,0.10928c0.05872,0.25268 0.20183,0.44296 0.31223,0.66148c-0.162,0.01435 -0.30509,0.02274 -0.48782,-0.02875c-0.20185,-0.44296 -0.44683,-0.89059 -0.63492,-1.3559c-0.20185,-0.44296 -0.47953,-0.8623 -0.6349,-1.35587c0.30847,-0.078 0.55667,-0.08306 0.81005,-0.07168z" fill="#60adb2"/><path d="M214.99735,188.15537c0.07065,-0.04006 0.12238,-0.07424 0.193,-0.1143c0.04829,0.02109 0.07239,0.03165 0.09651,0.04219c0.16387,0.25607 0.37943,0.47799 0.61388,0.69399c0.09312,0.09745 0.14316,0.19029 0.12253,0.32315c-0.0223,0.25986 -0.00147,0.52434 -0.18579,0.79854c-0.29478,-0.14305 -0.51036,-0.36494 -0.70692,-0.59278c-0.03451,-0.04342 -0.04139,-0.13163 -0.04318,-0.20332c-0.03636,-0.31382 -0.07268,-0.62776 -0.09005,-0.94751z" fill="#cce5e6"/><path d="M213.95271,183.91019c0.12761,0.14088 0.21554,0.22193 0.30866,0.3194c0.1621,0.18438 0.24319,0.37588 0.20196,0.64166c-0.04636,0.44798 -0.03059,0.89476 0.09884,1.30605c0.04141,0.13162 0.02763,0.15396 -0.20502,0.2084c-0.01553,-0.04937 -0.05004,-0.0928 -0.06556,-0.14219c-0.1105,-0.41722 -0.29163,-0.79435 -0.52966,-1.1538c-0.05,-0.09283 -0.09486,-0.16918 -0.08289,-0.26326c0.07397,-0.29404 0.11007,-0.57623 0.27369,-0.91622z" fill="#cae2e3"/><path d="M212.06343,187.29876c-0.0241,-0.01055 -0.05349,-0.03757 -0.05863,-0.05401c-0.08118,-0.39019 -0.27093,-0.72854 -0.47445,-1.04456c-0.17939,-0.30541 -0.27779,-0.61805 -0.18657,-0.98966c0.0482,-0.17759 0.01015,-0.36446 0.10147,-0.53742c0.41206,0.25102 0.61214,0.62229 0.59336,1.02557c-0.01185,0.49146 -0.04783,0.97234 0.1213,1.4436c-0.00341,0.05526 0.01726,0.12107 -0.09645,0.15651z" fill="#c9e1e2"/><path d="M212.63095,184.33993c0.27242,0.2042 0.42074,0.4109 0.57422,0.63408c0.04482,0.07637 0.07072,0.15862 0.05353,0.23625c-0.02563,0.51382 -0.00816,1.03225 0.0472,1.53889c0.01035,0.0329 0.00695,0.08815 -0.09303,0.10122c-0.03624,-0.11516 -0.07766,-0.24677 -0.13286,-0.35605c-0.1225,-0.32314 -0.264,-0.64038 -0.47615,-0.91755c-0.14835,-0.20671 -0.19667,-0.4265 -0.12611,-0.66526c0.0482,-0.17759 0.10151,-0.33874 0.15313,-0.57161z" fill="#c9e1e2"/><path d="M216.13985,187.6189c0.08789,-0.11769 0.18267,-0.14721 0.27743,-0.17673c0.02411,0.01053 0.05348,0.03755 0.07756,0.04811c0.12076,0.25144 0.31219,0.4628 0.55012,0.62352c0.1362,0.1021 0.19658,0.22782 0.18631,0.39361c-0.01885,0.20458 -0.01357,0.41973 -0.07553,0.6197c-0.25511,-0.08313 -0.58446,-0.26962 -0.66378,-0.38944c-0.06381,-0.07043 -0.04662,-0.14806 -0.05352,-0.23625c-0.10697,-0.27378 -0.12438,-0.59357 -0.29855,-0.88252z" fill="#cae3e4"/><path d="M209.99843,190.72395c0.1067,-0.32226 0.1566,-0.62684 0.1823,-0.94198c0.10335,-0.06831 0.17924,-0.09197 0.28954,-0.07213c0.18798,0.26659 0.25878,0.62394 0.46574,0.88466c-0.03785,0.21049 -0.15841,0.35645 -0.24965,0.52941c-0.05509,0.0894 -0.08607,0.18936 -0.21361,0.24717c-0.21897,-0.16666 -0.28285,-0.43579 -0.47427,-0.64716z" fill="#c8e0e1"/><path d="M212.78814,189.00605c0.17577,-0.03669 0.21545,0.02323 0.25512,0.08312c0.15353,0.22318 0.30181,0.42988 0.43637,0.65895c0.03968,0.05992 0.0604,0.12572 0.04321,0.20334c-0.07575,0.22228 -0.17045,0.4505 -0.28925,0.66818c-0.12582,-0.06921 -0.17589,-0.16202 -0.26382,-0.24303c-0.26379,-0.24301 -0.3708,-0.51679 -0.20724,-0.85679c0.07233,-0.16706 0.05846,-0.34339 0.02561,-0.51381z" fill="#cbe4e5"/><path d="M211.59387,189.378c0.09477,-0.02955 0.15164,-0.04725 0.20851,-0.06497c0.0293,0.02702 0.0724,0.03167 0.07757,0.0481c0.09482,0.16919 0.17081,0.34426 0.26568,0.51342c0.05001,0.09284 0.05694,0.181 0.02596,0.28097c-0.09293,0.29992 -0.21004,0.58931 -0.38396,0.89641c-0.17932,-0.10673 -0.24485,-0.2489 -0.31041,-0.39106c-0.02068,-0.06579 -0.0414,-0.13164 -0.01907,-0.19276c0.16359,-0.34 0.17378,-0.70449 0.1357,-1.09007z" fill="#c8e0e1"/><path d="M213.00242,194.25047c0.05694,0.18099 0.10013,0.38434 0.25191,0.53579c0.05863,0.054 0.06552,0.14215 0.09144,0.22441c-0.31708,0.11681 -0.63593,0.16193 -0.95654,0.1353c-0.03457,-0.24215 -0.18288,-0.44885 -0.28294,-0.63446c0.1068,-0.12359 0.25505,-0.11556 0.3584,-0.18389c0.16545,-0.06959 0.3602,-0.11217 0.53773,-0.07716z" fill="#85d5d9"/><path d="M215.64714,184.26771c-0.01712,0.27632 -0.03419,0.55261 -0.02721,0.83948c0.01562,0.24805 0.25013,0.46405 0.04341,0.7994c-0.17607,-0.55936 -0.46411,-1.01164 -0.75214,-1.46389c0.03785,-0.21049 0.08942,-0.44336 0.23242,-0.65046c0.04829,0.02109 0.07241,0.03165 0.09652,0.04218c0.14655,0.13499 0.2742,0.27592 0.40695,0.43324z" fill="#c6dede"/><path d="M209.78716,184.82821c-0.04468,0.32105 -0.08073,0.6032 -0.1254,0.92426c-0.1827,-0.05149 -0.28103,-0.1654 -0.40687,-0.23458c-0.13105,-0.08561 -0.29481,-0.14306 -0.39826,-0.2734c-0.03624,-0.11516 0.0085,-0.2375 0.03429,-0.35391c0.02579,-0.11642 0.07059,-0.23875 0.13428,-0.36701c0.29646,0.01606 0.51024,0.16628 0.76198,0.30467z" fill="#cae3e3"/><path d="M208.61849,188.38972c-0.28806,-0.45225 -0.55022,-0.82223 -0.92092,-1.14031c0.00853,-0.23753 -0.00192,-0.46909 0.00142,-0.72305c0.28788,0.05486 0.44481,0.22277 0.63442,0.36241c0.0293,0.02702 0.04484,0.07638 0.05518,0.10927c0.07258,0.42901 0.14519,0.85806 0.22988,1.39167z" fill="#cae3e4"/><path d="M214.48469,190.22997c-0.27242,-0.2042 -0.50176,-0.40375 -0.43469,-0.78593c0.04125,-0.26578 -0.01746,-0.51848 -0.07618,-0.77115c-0.03107,-0.09873 0.05851,-0.14469 0.18264,-0.14722c0.04496,0.27503 0.2174,0.49234 0.38987,0.7096c0.13279,0.15735 0.1415,0.31722 0.09331,0.49484c-0.03441,0.15523 -0.02574,0.31512 -0.15494,0.4999z" fill="#c8e0e1"/><path d="M212.20054,193.28985c0.29305,0.07132 0.29828,0.28645 0.34146,0.4898c-0.04475,0.1223 -0.16883,0.12485 -0.25842,0.17082c-0.2516,0.0603 -0.49981,0.06532 -0.7584,0.03746c-0.03801,-0.18687 -0.17077,-0.34424 -0.12779,-0.53828c0.08962,-0.04596 0.1465,-0.06369 0.2223,-0.0873c0.19994,-0.02615 0.39984,-0.05231 0.58083,-0.07251z" fill="#767676"/><path d="M212.4941,190.45248c0.19141,0.21137 0.33456,0.40162 0.49668,0.58599c-0.11367,0.23411 -0.25141,0.45768 -0.41857,0.65424c-0.14308,0.00844 -0.21203,-0.07849 -0.28961,-0.12657c-0.07758,-0.0481 -0.15515,-0.09618 -0.17243,-0.21727c0.08956,-0.24466 0.22555,-0.53992 0.38395,-0.8964z" fill="#c7dfe0"/><path d="M215.724,190.33177c-0.08094,0.20588 -0.1429,0.40578 -0.28584,0.61293c-0.2741,-0.07721 -0.431,-0.24512 -0.63101,-0.41768c0.07056,-0.23875 0.1411,-0.47752 0.20651,-0.73276c0.26205,0.1713 0.4621,0.34389 0.71036,0.53752z" fill="#c8e0e1"/><path d="M210.53142,184.01828c0.19309,0.08442 0.38614,0.1688 0.5379,0.32025c-0.04125,0.26578 -0.10146,0.53742 -0.15648,0.82553c-0.03789,0.0118 -0.07581,0.0236 -0.08099,0.00714c-0.16035,-0.11266 -0.32584,-0.24174 -0.46724,-0.36029c-0.05863,-0.05401 -0.09833,-0.11392 -0.07595,-0.17506c0.05162,-0.23285 0.04635,-0.44799 0.24276,-0.6176z" fill="#c4dcdd"/><path d="M213.59242,183.62499c-0.08434,0.26111 -0.14973,0.51632 -0.23408,0.77746c-0.16717,-0.00215 -0.20858,-0.13375 -0.29654,-0.21477c-0.08792,-0.08099 -0.16212,-0.18437 -0.25523,-0.28181c0.03265,-0.22695 0.18085,-0.41757 0.2807,-0.62938c0.24473,0.05021 0.37237,0.19114 0.50513,0.34851z" fill="#c8e0e1"/><path d="M216.2288,190.08423c0.06024,-0.27166 0.10666,-0.52101 0.16169,-0.8091c0.231,0.07255 0.38273,0.22406 0.59479,0.30253c-0.00337,0.25395 -0.14631,0.46108 -0.23585,0.70572c-0.22063,-0.03967 -0.39818,-0.0747 -0.52059,-0.19917z" fill="#c6ddde"/><path d="M217.23233,186.98962c0.27761,0.22066 0.47079,0.50371 0.79489,0.67376c0.00529,0.21514 0.02431,0.40796 -0.05143,0.63025c-0.26372,-0.04433 -0.44306,-0.15106 -0.48279,-0.40964c-0.03633,-0.31383 -0.16746,-0.59819 -0.26067,-0.89435z" fill="#b9cfd0"/><path d="M207.48443,188.49c-0.12927,-0.01394 -0.09834,-0.11391 -0.13797,-0.1738c-0.08451,-0.13628 -0.15008,-0.2784 -0.29492,-0.34173c-0.20862,-0.13375 -0.24664,-0.3206 -0.27084,-0.52987c-0.00691,-0.08819 0.00508,-0.18225 0.00675,-0.30922c0.30343,0.10421 0.54476,0.20973 0.56732,0.54591c0.01047,0.2316 0.10189,0.45605 0.15025,0.67582c0.01551,0.04937 0.03107,0.09872 -0.02062,0.13288z" fill="#c0d8d8"/><path d="M209.25075,191.39036c-0.1414,-0.11857 -0.22071,-0.23836 -0.26216,-0.36997c-0.02068,-0.06579 -0.04664,-0.14808 -0.02425,-0.20923c0.10331,-0.26703 0.14454,-0.53278 0.1858,-0.79855c0.1327,-0.0413 0.13444,0.03038 0.15001,0.07976c0.05178,0.16453 0.10877,0.34551 0.19845,0.49823c0.10522,0.20207 0.09496,0.36786 -0.05836,0.54209c-0.07924,0.07888 -0.12059,0.14595 -0.18946,0.2577z" fill="#c1d9d9"/><path d="M214.30903,190.66406c-0.05677,0.21637 -0.16705,0.39526 -0.2669,0.60701c-0.23958,-0.03376 -0.35338,-0.19704 -0.51377,-0.30969c0.06538,-0.25522 0.22728,-0.46823 0.35992,-0.70825c0.18448,0.12321 0.29315,0.27003 0.42077,0.41093z" fill="#c3dbdc"/><path d="M212.08638,184.72635c-0.18627,-0.19491 -0.34835,-0.37931 -0.5294,-0.55776c0.02919,-0.17171 0.06364,-0.32692 0.20316,-0.47879c0.21205,0.0785 0.35859,0.2135 0.52416,0.34258c-0.00854,0.23752 -0.06527,0.45387 -0.19789,0.6939z" fill="#c3dadb"/><path d="M212.86007,191.94633c0.14298,-0.20713 0.27216,-0.39186 0.40133,-0.57661c0.22582,0.05612 0.37238,0.19113 0.51893,0.32612c-0.08608,0.1894 -0.20147,0.3518 -0.35999,0.50951c-0.06722,-0.0152 -0.15859,-0.04096 -0.20685,-0.06202c-0.12584,-0.0692 -0.20861,-0.13374 -0.35343,-0.19705z" fill="#c4dbdc"/><path d="M208.21775,190.15847c0.09838,0.31263 0.17605,0.55944 0.25895,0.82263c-0.05853,0.1447 -0.14641,0.26238 -0.30147,0.36484c-0.1396,-0.04686 -0.13796,-0.17382 -0.20693,-0.26074c-0.06897,-0.08689 -0.119,-0.17972 -0.14493,-0.26198c0.13779,-0.22362 0.24802,-0.40246 0.39441,-0.66481z" fill="#c2d9da"/><path d="M209.17332,184.13416c0.03441,-0.15523 0.09808,-0.28348 0.19114,-0.3847c0.14648,-0.06367 0.2534,0.01146 0.36369,0.03126c0.11029,0.0198 0.22922,0.00086 0.32233,0.09832c0.01387,0.17634 -0.07224,0.36573 -0.14794,0.58808c-0.12071,-0.05274 -0.24139,-0.10549 -0.35686,-0.14179c-0.12582,-0.06921 -0.25171,-0.13837 -0.3724,-0.19113z" fill="#c5ddde"/><path d="M215.22287,191.31885c-0.04301,0.19407 -0.17913,0.29066 -0.26179,0.42479c-0.23441,-0.01734 -0.41373,-0.12408 -0.61719,-0.24134c0.09125,-0.17295 0.18257,-0.34591 0.2549,-0.51298c0.26371,0.04434 0.42068,0.21225 0.62408,0.32952z" fill="#c3dbdc"/><path d="M208.31077,186.3539c-0.0914,-0.02573 -0.13963,-0.0468 -0.1879,-0.06788c-0.1017,-0.05864 -0.20863,-0.13375 -0.33447,-0.20295c0.06024,-0.27166 0.06354,-0.52562 0.21511,-0.77156c0.14308,-0.00844 0.22584,0.05611 0.3379,0.14768c0.00184,0.2704 -0.00494,0.57961 -0.0306,0.89474z" fill="#c7dfe0"/><path d="M211.57928,191.51424c-0.14814,0.19065 -0.21011,0.39058 -0.39274,0.5378c-0.20168,-0.04561 -0.2776,-0.22063 -0.44136,-0.27803c0.10332,-0.26703 0.25142,-0.45769 0.38923,-0.68126c0.2362,0.08905 0.29313,0.27 0.44491,0.42146z" fill="#c7dee0"/><path d="M212.45959,194.31113c-0.10336,0.06833 -0.25161,0.06028 -0.3584,0.1839c0.10522,0.20207 0.23457,0.41469 0.28294,0.63447c-0.08102,0.00717 -0.18098,0.02022 -0.26714,0.01097c-0.12927,-0.01394 -0.23097,-0.07259 -0.26726,-0.18777c-0.0811,-0.1915 -0.15702,-0.36657 -0.2381,-0.55814c0.24645,-0.07677 0.36537,-0.09573 0.84799,-0.08344z" fill="#61acb1"/><path d="M214.88151,183.42222c-0.08094,0.20588 -0.15323,0.37286 -0.25312,0.58465c-0.18106,-0.17845 -0.35692,-0.34044 -0.51904,-0.52481c0.05332,-0.16113 0.11192,-0.30583 0.21352,-0.44588c0.23618,0.08904 0.38272,0.22403 0.55861,0.38603z" fill="#c2dada"/><path d="M209.45943,191.72281c0.08094,-0.20588 0.20151,-0.3518 0.33074,-0.53657c0.14835,0.20671 0.2863,0.38054 0.42427,0.55438c-0.0292,0.1717 -0.14639,0.26238 -0.27216,0.39186c-0.20686,-0.06202 -0.32072,-0.22532 -0.48279,-0.40964z" fill="#c1d9d9"/><path d="M212.48921,183.62534c-0.22239,-0.11141 -0.37755,-0.20759 -0.55168,-0.2979c0.00509,-0.18225 0.1205,-0.34464 0.23593,-0.50705c0.19648,0.02914 0.3792,0.08062 0.54475,0.20973c0.00527,0.21514 -0.15844,0.35647 -0.22896,0.59523z" fill="#c6dedf"/><path d="M216.55833,190.66807c-0.08608,0.18939 -0.19634,0.36826 -0.28759,0.54121c-0.17577,0.03669 -0.31023,0.00631 -0.46026,-0.07345c0.00854,-0.23752 0.18084,-0.41758 0.25655,-0.63993c0.19134,0.01265 0.32233,0.09832 0.4913,0.17215z" fill="#c0d7d7"/><path d="M207.34564,186.32925c-0.01886,0.20458 0.02429,0.40793 -0.09449,0.62561c-0.15002,-0.07976 -0.29482,-0.14308 -0.43961,-0.20634c-0.06211,-0.19742 -0.01912,-0.39146 0.09111,-0.5703c0.16718,0.00214 0.28784,0.05487 0.44302,0.15103z" fill="#c3dadb"/><path d="M211.63865,193.35647c-0.07584,0.02361 -0.14649,0.0637 -0.22233,0.08734c-0.04301,0.19408 0.08975,0.3514 0.12779,0.53828c-0.12752,0.05778 -0.23443,-0.01733 -0.37228,0.00755c-0.14314,-0.19027 -0.14844,-0.40541 -0.34844,-0.57796c0.18439,-0.07547 0.31363,-0.06157 0.46192,-0.05354c0.10515,0.00336 0.22751,-0.07083 0.35332,-0.00164z" fill="#767676"/><path d="M218.81686,187.92323c-0.01886,0.20458 0.0243,0.40797 -0.08074,0.60325c-0.14308,0.00844 -0.23963,-0.03379 -0.38443,-0.09704c-0.01905,-0.1928 -0.00018,-0.39739 0.06694,-0.58089c0.14308,-0.00843 0.23443,0.01733 0.39818,0.07471z" fill="#bdd3d4"/><path d="M213.84271,192.2906c0.10165,-0.14006 0.18432,-0.27418 0.26697,-0.4083c0.1965,0.02914 0.34651,0.10887 0.50166,0.20505c-0.01546,0.14932 -0.13779,0.22362 -0.27048,0.26492c-0.1706,0.05317 -0.34119,0.10629 -0.49815,-0.06163z" fill="#bdd4d5"/><path d="M216.54333,184.00663c-0.03266,0.22694 -0.07048,0.43747 -0.10311,0.66438c-0.29831,-0.28643 -0.49145,-0.56954 -0.20035,-0.96731c0.1396,0.04686 0.2,0.17257 0.30346,0.30291z" fill="#bbd2d3"/><path d="M211.96062,192.46132c-0.17235,-0.0186 -0.27927,-0.09369 -0.38615,-0.16882c-0.03624,-0.11516 0.0482,-0.17761 0.10333,-0.26702c0.04133,-0.06706 0.07748,-0.15057 0.18607,-0.20245c0.17235,0.0186 0.22415,0.18307 0.40169,0.21811c-0.06712,0.18352 -0.17392,0.30709 -0.30484,0.42015z" fill="#c3dadb"/><path d="M212.47869,187.09716c-0.05525,-0.30797 -0.11058,-0.6159 -0.09003,-0.94748c0.1189,-0.01895 0.16381,0.05739 0.18964,0.13965c0.08626,0.20798 0.15359,0.42181 0.21573,0.61926c0.0466,0.14806 -0.05679,0.21643 -0.31533,0.18854z" fill="#b1c6c7"/><path d="M217.64922,190.36444c-0.00354,-0.1434 0.09468,-0.22822 0.14462,-0.33408c0.08093,-0.20588 0.24636,-0.27546 0.49977,-0.26403c-0.04126,0.26577 -0.22216,0.48469 -0.37027,0.67534c-0.13788,0.02488 -0.20513,0.00969 -0.2741,-0.07721z" fill="#bbd2d3"/><path d="M214.96714,186.14146c-0.17422,-0.28899 -0.12954,-0.60999 -0.10902,-0.94158c0.18626,0.19491 0.26389,0.44171 0.35536,0.66613c0.06556,0.14217 0.01907,0.19282 -0.24635,0.27544z" fill="#bad1d2"/><path d="M218.31483,186.92346c0.17412,0.09031 0.33789,0.1477 0.51199,0.23796c0.00693,0.08818 -0.01369,0.22106 -0.01536,0.34803c-0.36712,0.02401 -0.37229,0.00756 -0.42068,-0.21225c-0.03622,-0.11517 -0.05352,-0.23626 -0.07599,-0.37377z" fill="#b5cbcc"/><path d="M211.23755,182.62414c0.2051,-0.00967 0.34476,0.03714 0.48436,0.08398c-0.01026,0.1658 -0.14123,0.27882 -0.24284,0.41888c-0.1586,-0.0409 -0.29818,-0.08779 -0.45678,-0.12871c-0.02765,-0.15397 0.13257,-0.24002 0.21529,-0.37418z" fill="#c0d7d8"/><path d="M217.56742,188.58342c0.12408,-0.00249 0.22583,0.0561 0.33274,0.1312c0.01043,0.2316 -0.06527,0.45391 -0.18932,0.65511c-0.12752,0.05778 -0.18096,0.02023 -0.24473,-0.05021c0.02743,-0.24339 0.05492,-0.48681 0.10136,-0.73612z" fill="#bdd4d4"/><path d="M215.02098,183.07169c-0.16035,-0.11266 -0.3069,-0.24763 -0.46725,-0.3603c0.04995,-0.10588 0.13437,-0.16832 0.24809,-0.20376c0.12407,-0.0025 0.1879,0.06791 0.27065,0.13246c0.05863,0.05401 0.11725,0.108 0.17589,0.16201c-0.0258,0.11645 -0.08092,0.20588 -0.22742,0.26956z" fill="#b6cccc"/><path d="M211.18291,183.90574c-0.17411,-0.09031 -0.3241,-0.17004 -0.51721,-0.25443c-0.01212,-0.10461 0.01367,-0.22107 0.16877,-0.32357c0.15861,0.04089 0.32235,0.09831 0.50506,0.14978c-0.03441,0.15523 -0.05502,0.28813 -0.15666,0.42817z" fill="#c1d9d9"/><path d="M215.93967,183.34558c-0.03441,0.15523 -0.07915,0.27759 -0.18597,0.40116c-0.17412,-0.09031 -0.26381,-0.24304 -0.3621,-0.35693c-0.00354,-0.1434 0.09987,-0.21174 0.17911,-0.29063c0.06204,-0.00125 0.09996,-0.01307 0.10515,0.00336c0.0879,0.08101 0.17586,0.162 0.26381,0.24304z" fill="#b7cdce"/><path d="M217.38988,184.44753c-0.20862,-0.13377 -0.25523,-0.28182 -0.33975,-0.41808c-0.10866,-0.14681 -0.01562,-0.24805 0.09117,-0.37164c0.17412,0.09031 0.25863,0.22656 0.37589,0.33458c0.01386,0.17633 -0.16017,0.28474 -0.12734,0.45517z" fill="#b6cccc"/><path d="M218.66893,188.90874c-0.05334,0.16114 -0.0981,0.28346 -0.13768,0.42226c-0.16545,0.06959 -0.27919,0.10501 -0.43776,0.06409c0.06714,-0.18351 0.11532,-0.3611 0.16866,-0.52223c0.15505,-0.10251 0.26195,-0.02737 0.38087,-0.04638c0.01035,0.0329 0.03969,0.05992 0.02592,0.08227z" fill="#c2dada"/><path d="M210.34497,183.22729c-0.02065,0.13286 -0.06195,0.19995 -0.14637,0.2624c-0.10859,0.05188 -0.20509,0.00967 -0.31542,-0.01014c-0.09139,-0.02573 -0.22924,-0.00086 -0.28445,-0.11013c0.06373,-0.12822 0.15155,-0.24591 0.31183,-0.33197c0.16377,0.05738 0.28963,0.12659 0.43445,0.18988z" fill="#bbd2d3"/><path d="M210.21637,192.40839c0.1068,-0.12358 0.18088,-0.21893 0.2739,-0.32017c0.16897,0.07383 0.28618,0.18186 0.42243,0.28396c-0.04475,0.12231 -0.11882,0.21769 -0.25154,0.25896c-0.0431,-0.00463 -0.08617,-0.0093 -0.11552,-0.03629c-0.09652,-0.04218 -0.19827,-0.10087 -0.3293,-0.1865z" fill="#bbd2d3"/><path d="M218.82138,186.74761c-0.28446,-0.11013 -0.28447,-0.11013 -0.46723,-0.3603c0.05336,-0.16115 0.19985,-0.22482 0.35492,-0.32729c0.12938,0.21264 0.10191,0.45602 0.11234,0.68762z" fill="#adc2c3"/><path d="M212.35541,192.59129c0.04475,-0.12231 0.13782,-0.22359 0.26532,-0.28133c0.16897,0.07383 0.31375,0.13707 0.4637,0.21686c-0.27048,0.26491 -0.28942,0.27083 -0.72905,0.06452z" fill="#b5cbcc"/><path d="M213.97808,182.80036c-0.05852,0.14471 -0.1085,0.25057 -0.21531,0.37416c-0.1775,-0.03502 -0.28101,-0.16541 -0.43619,-0.2616c0.02239,-0.06117 0.04994,-0.10585 0.07747,-0.15058c0.02756,-0.04473 0.07923,-0.07888 0.12577,-0.12951c0.18615,-0.00378 0.31197,0.06541 0.44823,0.16752z" fill="#bbd1d2"/><path d="M208.83559,191.98937c-0.22582,-0.05613 -0.30691,-0.24764 -0.44313,-0.34973c0.03959,-0.13877 0.16711,-0.19659 0.26017,-0.29783c0.18967,0.13962 0.27935,0.29237 0.27942,0.49106c0.01552,0.04937 -0.04993,0.10588 -0.09643,0.15649z" fill="#b6cccd"/><path d="M207.62248,185.15913c-0.06538,0.25522 -0.15492,0.49988 -0.22548,0.73862c-0.13789,0.02487 -0.22922,-0.00085 -0.34131,-0.09239c0.13257,-0.24002 0.26521,-0.48003 0.47021,-0.68842c0.0483,0.02111 0.07241,0.03165 0.09653,0.04218z" fill="#acc1c2"/><path d="M213.67944,185.81993c0.12419,0.19618 0.22942,0.39826 0.2588,0.62393c0.00691,0.08819 -0.02922,0.17169 -0.12398,0.20121c-0.03788,0.01179 -0.12408,0.0025 -0.12928,-0.01395c-0.09662,-0.24088 -0.04162,-0.52899 -0.00555,-0.8112z" fill="#a7bbbb"/><path d="M213.17124,182.41932c-0.00685,0.11054 -0.08608,0.1894 -0.18429,0.27418c-0.16377,-0.05738 -0.32754,-0.11478 -0.4913,-0.17216c0.03441,-0.15523 0.14297,-0.2071 0.27565,-0.24843c0.12927,0.01394 0.27409,0.0772 0.39995,0.14644z" fill="#b7cdcd"/><path d="M215.31971,191.95707c0.04301,-0.19408 0.14984,-0.31763 0.27558,-0.44715c0.16718,0.00214 0.30165,0.03251 0.42407,0.15697c-0.19642,0.16955 -0.42909,0.22395 -0.69964,0.29018z" fill="#b7cece"/><path d="M207.30799,190.83925c-0.19484,-0.1561 -0.18632,-0.39359 -0.33291,-0.52858c0.04475,-0.1223 0.12577,-0.12948 0.17924,-0.09194c0.13622,0.10209 0.25866,0.22657 0.3104,0.39108c-0.00341,0.05527 0.00174,0.07172 -0.15675,0.22949z" fill="#b4cacb"/><path d="M208.41698,185.03817c-0.12926,-0.01393 -0.20167,-0.04558 -0.2655,-0.116c0.08093,-0.20588 0.15667,-0.42816 0.38064,-0.64245c0.10697,0.27378 -0.01187,0.49144 -0.11514,0.75847z" fill="#b2c8c9"/><path d="M211.23332,192.59751c0.1586,0.0409 0.27409,0.07722 0.34306,0.16413c0.00176,0.07172 -0.04993,0.10591 -0.10164,0.14007c-0.20675,0.13665 -0.33781,0.05099 -0.48435,-0.08399c0.0844,-0.06244 0.16368,-0.14133 0.24292,-0.22019z" fill="#b5cbcb"/><path d="M216.18552,185.58138c-0.08627,-0.20797 -0.14324,-0.38893 -0.14849,-0.60406c0.08961,-0.04595 0.14305,-0.00843 0.15859,0.04092c0.05521,0.10929 0.12938,0.21266 0.18457,0.3219c0.04141,0.13162 -0.02406,0.18811 -0.19467,0.24123z" fill="#91a3a3"/><path d="M208.87831,187.4959c0.19484,0.1561 0.2432,0.37588 0.30531,0.57332c0.01035,0.0329 -0.0172,0.07763 -0.04995,0.10587c-0.03789,0.0118 -0.10515,-0.00336 -0.11034,-0.01983c-0.12938,-0.21264 -0.15877,-0.43831 -0.14508,-0.65936z" fill="#767676"/><path d="M208.14453,188.33864c-0.11198,0.10715 -0.20677,0.13665 -0.27058,0.06619c-0.07416,-0.10338 -0.08801,-0.27969 -0.07952,-0.51718c0.18452,0.12319 0.24144,0.30416 0.35008,0.45097z" fill="#93a5a6"/><path d="M217.09634,191.18697c0.09472,-0.22821 0.16525,-0.46698 0.54792,-0.44164c-0.08957,0.24465 -0.33596,0.32141 -0.54792,0.44164z" fill="#9aadad"/><path d="M215.88846,188.27527c-0.09831,-0.11392 -0.20177,-0.24425 -0.29489,-0.34175c0.031,-0.09997 0.08267,-0.13415 0.20161,-0.1531c0.14142,0.11857 0.11738,0.30671 0.18294,0.44887c-0.03789,0.0118 -0.05688,0.01769 -0.08963,0.04598z" fill="#c5dddd"/><path d="M211.30656,186.81185c0.23792,0.16074 0.30523,0.37466 0.29674,0.61213c0.00517,0.01646 -0.02756,0.04474 -0.06548,0.05654c-0.0517,0.03416 -0.10515,-0.00336 -0.11549,-0.03628c-0.07595,-0.17505 -0.08118,-0.39024 -0.11578,-0.63238z" fill="#aec2c3"/><path d="M209.21998,192.08642c0.17412,0.09031 0.28277,0.23709 0.38624,0.36749c-0.03097,0.09997 -0.11201,0.10715 -0.17063,0.05316c-0.11209,-0.09157 -0.21896,-0.16667 -0.31724,-0.28058c-0.0483,-0.02111 -0.00694,-0.08815 0.10163,-0.14004z" fill="#767676"/><path d="M212.05783,182.38673c-0.18617,0.00377 -0.32058,-0.0266 -0.48436,-0.084c0.22572,-0.14257 0.44978,-0.15816 0.67726,-0.22899c-0.00342,0.05528 0.00691,0.08819 -0.00687,0.11051c-0.0603,0.07297 -0.12575,0.12948 -0.18602,0.20247z" fill="#a9bebf"/><path d="M210.91135,189.59053c0.12237,-0.07424 0.20332,-0.0814 0.29474,-0.05564c0.07071,0.15863 0.06044,0.3244 -0.07734,0.54799c-0.10006,-0.18564 -0.14664,-0.3337 -0.21741,-0.49232z" fill="#b9cfd0"/><path d="M216.7343,187.32535c0.03099,-0.09996 0.10166,-0.14003 0.17228,-0.18011c0.10515,0.00339 0.13104,0.08562 0.19843,0.49823c-0.25855,-0.02786 -0.25866,-0.22656 -0.37072,-0.31813z" fill="#869797"/><path d="M210.17949,187.19903c0.02598,0.28096 0.26909,0.45817 0.06583,0.73824c-0.15353,-0.22317 -0.1967,-0.42648 -0.06583,-0.73824z" fill="#93a4a5"/><path d="M216.91755,184.46815c0.07766,0.24677 0.12944,0.41132 0.18123,0.57584c0.01035,0.0329 -0.0172,0.07763 -0.07407,0.09531c-0.01898,0.00592 -0.06205,0.00125 -0.0862,-0.00928c-0.10008,-0.1856 -0.15704,-0.36664 -0.021,-0.66187z" fill="#94a5a6"/><path d="M217.56668,186.79516c0.09305,-0.10121 0.1447,-0.1354 0.26021,-0.09912c0.06038,0.1257 0.12595,0.26789 0.12085,0.45014c-0.22582,-0.05616 -0.27757,-0.22064 -0.38106,-0.35098z" fill="#abbfc0"/><path d="M216.88781,183.44769c-0.08441,0.06243 -0.11716,0.09069 -0.15511,0.1025c-0.28103,-0.16539 -0.28099,-0.16538 -0.29661,-0.41341c0.22063,0.03967 0.27243,0.20416 0.45169,0.31093z" fill="#acc0c1"/><path d="M217.09426,190.32045c0.07233,-0.16706 0.12049,-0.34464 0.21177,-0.51759c0.04133,-0.06706 0.11718,-0.09066 0.20509,-0.00967c-0.08094,0.20588 -0.16702,0.39525 -0.41687,0.52725z" fill="#9fb2b2"/><path d="M214.19511,182.49786c-0.11553,-0.03631 -0.1879,-0.06796 -0.2517,-0.13838c0.01719,-0.07764 0.0637,-0.12825 0.15331,-0.17422c0.11892,-0.01895 0.22062,0.03969 0.32233,0.09833c-0.00685,0.11054 -0.1154,0.16239 -0.22395,0.21424z" fill="#aec2c3"/><path d="M213.6362,189.12126c-0.1775,-0.03501 -0.2138,-0.15022 -0.269,-0.25947c-0.01551,-0.04937 0.03098,-0.09994 0.08786,-0.11767c0.03789,-0.0118 0.10517,0.00337 0.1155,0.03628c0.08792,0.08099 0.0811,0.19155 0.06563,0.34086z" fill="#91a2a3"/><path d="M210.70662,182.59076c-0.12051,0.34465 -0.13424,0.36702 -0.4532,0.21344c0.14131,-0.08012 0.2481,-0.20374 0.4532,-0.21344z" fill="#869696"/><path d="M207.07775,188.65278c-0.21204,-0.0785 -0.18624,-0.19489 -0.20354,-0.316c0.19649,0.02915 0.19649,0.02915 0.20354,0.316z" fill="#555f5f"/><path d="M214.65269,188.31692c0.0259,0.08227 0.06213,0.19741 0.04152,0.33032c-0.21722,-0.09494 -0.23791,-0.16074 -0.19837,-0.29951c0.00861,-0.03881 0.06549,-0.05654 0.15683,-0.03077z" fill="#93a5a6"/><path d="M217.75514,184.35184c0.25171,0.13838 0.24314,0.17719 -0.04469,0.32101c-0.07417,-0.10339 -0.02426,-0.20923 0.04469,-0.32101z" fill="#8b9b9c"/><path d="M206.49846,188.20095c0.10865,0.14682 0.1311,0.28431 0.15357,0.42188c-0.09819,0.08479 -0.16545,0.06957 -0.18614,0.00375c-0.04143,-0.13162 -0.06389,-0.26914 0.03254,-0.42561z" fill="#767676"/><path d="M215.92053,182.75535c0.1396,0.04686 0.26891,0.06079 0.29139,0.1983c0.00516,0.01647 -0.00858,0.03882 -0.02754,0.04473c-0.18099,0.02022 -0.24998,-0.06669 -0.26382,-0.24303z" fill="#5f6a6b"/><path d="M212.32463,189.38526c-0.07758,-0.0481 -0.09832,-0.11393 -0.10005,-0.18565c0.00861,-0.03881 0.03616,-0.08352 0.07925,-0.07886c0.0431,0.00463 0.09139,0.02573 0.1017,0.05866c0.02068,0.06579 0.02245,0.13752 -0.08093,0.20585z" fill="#636e6f"/><path d="M213.32634,182.11812c0.11718,-0.09067 0.21712,-0.10376 0.33437,0.00423c-0.13094,0.11303 -0.2223,0.08733 -0.33437,-0.00423z" fill="#4a5354"/></g><g data-paper-data="{&quot;index&quot;:null}" fill="#000000" stroke="#000000" stroke-width="1.2"><path d="M208.82909,210.3346c-1.0132,-1.57786 -0.16775,-4.77844 -0.54957,-7.01001c-0.41107,-2.40261 -1.95893,-3.68855 -1.2717,-5.17363c0.48004,-1.0373 2.09383,-1.48197 2.9614,-1.61007c2.10964,-0.31154 4.38588,2.74408 5.0841,6.82488c0.69823,4.0808 -0.44594,7.6415 -2.55557,7.95302c-0.95598,0.14117 -2.82904,0.32332 -3.66865,-0.98417z"/><path d="M212.88232,211.88974c-1.39119,-2.21196 -1.3424,-8.12069 -1.3424,-8.12069c0,0 -1.79264,-3.4907 -1.80545,-3.57512c-0.81748,-5.37917 2.82567,-5.97801 6.97976,-6.59143c1.97707,-0.29196 5.14465,0.00384 6.51257,1.52363c1.55139,1.72362 1.40515,4.47441 1.91778,7.47055c0.96464,5.63795 -0.71774,10.79962 -4.93703,11.42268c-1.85731,0.27426 -5.46712,0.82469 -7.32523,-2.12963z"/></g></g><path d="M244.08073,199.25118c0,0 -14.18032,-6.51003 -16.13896,-8.69058c-0.91021,-1.01334 3.05825,-0.81013 3.05825,-0.81013c0,0 -1.76172,0.37018 1.04251,0.97779c1.67611,0.36318 5.69107,1.4759 7.13046,1.51843c4.60076,0.13595 6.09414,1.15148 6.09414,1.15148z" fill="#767676" fill-rule="nonzero" stroke="#191919" stroke-width="1.5" stroke-linecap="butt" stroke-linejoin="miter"/><path d="M226.79798,151.09509c-0.34491,4.30839 -4.64258,7.47936 -9.59913,7.08256c-4.95655,-0.39679 -8.69503,-4.21109 -8.35012,-8.51948c0.34491,-4.30839 4.64258,-7.47936 9.59913,-7.08256c4.95655,0.39679 8.69503,4.21109 8.35012,8.51948z" fill="#000000" fill-rule="nonzero" stroke="#191919" stroke-width="3" stroke-linecap="butt" stroke-linejoin="miter"/><g stroke-linejoin="miter"><g data-paper-data="{&quot;index&quot;:null}" stroke-linecap="butt"><path d="M269.35857,177.71973c-5.13686,12.30249 -20.56123,18.10644 -34.45132,12.96353c-13.89008,-5.14293 -20.98596,-19.28521 -15.84908,-31.58771c5.13686,-12.30249 20.56123,-18.10644 34.45132,-12.96353c13.89008,5.14293 20.98596,19.28521 15.84908,31.58771z" fill="none" fill-rule="nonzero" stroke="#000000" stroke-width="4.5"/><g><g fill-rule="nonzero"><path d="M235.31865,148.50762l-0.00821,-0.01159" data-paper-data="{&quot;index&quot;:null}" fill="#ffab19" stroke="#000000" stroke-width="5"/><g data-paper-data="{&quot;index&quot;:null}" fill="none" stroke="none" stroke-width="1" font-family="sans-serif" font-weight="normal" font-size="12" text-anchor="start"/></g><path d="M235.31865,148.50762l-0.00821,-0.01159" data-paper-data="{&quot;index&quot;:null}" fill="#ffab19" fill-rule="nonzero" stroke="#000000" stroke-width="5"/><path d="M243.45367,169.41967" fill="#001026" fill-rule="evenodd" stroke="#000000" stroke-width="5"/><g data-paper-data="{&quot;index&quot;:null}" fill="none" fill-rule="nonzero" stroke="none" stroke-width="1" font-family="sans-serif" font-weight="normal" font-size="12" text-anchor="start"/><g data-paper-data="{&quot;index&quot;:null}" fill="none" fill-rule="nonzero" stroke="none" stroke-width="1" font-family="sans-serif" font-weight="normal" font-size="12" text-anchor="start"/></g></g><path d="M261.83034,154.42066l-40.03307,5.4033l-5.6489,12.72972c0,0 -2.88346,-19.91331 5.66384,-24.43705c3.25964,-1.72521 20.0228,-11.8166 29.96714,-6.80162c14.00662,7.06361 17.14016,16.13909 17.14016,16.13909z" fill="#000000" fill-rule="nonzero" stroke="#191919" stroke-width="3" stroke-linecap="round"/></g><path d="M239.96701,185.61775c0,0 -8.98237,-0.94902 -11.21984,-2.25407c-1.93092,-1.12626 -1.42133,-5.11918 -1.42133,-5.11918" fill="none" fill-rule="nonzero" stroke="#000000" stroke-width="1" stroke-linecap="round" stroke-linejoin="miter"/><g fill-rule="nonzero" stroke-linejoin="miter"><path d="M247.22528,168.07434c0,0 1.05378,3.61017 -0.97221,7.47722c-0.20236,0.38625 -2.25071,2.60481 -3.63649,2.45202c-2.05366,-0.22643 -3.63743,-3.02887 -3.5955,-3.36603c0.15915,-1.27959 0.67602,-2.58215 0.49616,-5.24072c-0.13027,-1.92574 7.70803,-1.32249 7.70803,-1.32249z" data-paper-data="{&quot;index&quot;:null}" fill="#000000" stroke="none" stroke-width="0" stroke-linecap="butt"/><path d="M238.05844,167.56261l8.15393,0.48555" fill="none" stroke="#000000" stroke-width="2.5" stroke-linecap="round"/></g><g fill-rule="nonzero" stroke-linejoin="miter"><path d="M264.34688,168.98082c0,0 1.05378,3.61017 -0.97221,7.47722c-0.20236,0.38625 -2.25071,2.60481 -3.63649,2.45202c-2.05366,-0.22643 -3.63743,-3.02887 -3.5955,-3.36603c0.15915,-1.27959 0.67602,-2.58215 0.49616,-5.24072c-0.13027,-1.92574 7.70803,-1.32249 7.70803,-1.32249z" data-paper-data="{&quot;index&quot;:null}" fill="#000000" stroke="none" stroke-width="0" stroke-linecap="butt"/><path d="M255.18004,168.46909l8.15393,0.48555" fill="none" stroke="#000000" stroke-width="2.5" stroke-linecap="round"/></g></g></g></svg>