<svg version="1.1" xmlns="http://www.w3.org/2000/svg" xmlns:xlink="http://www.w3.org/1999/xlink" width="86.04212" height="116.15251" viewBox="0,0,86.04212,116.15251"><defs><linearGradient x1="204.06974" y1="162.63653" x2="181.87769" y2="165.93874" gradientUnits="userSpaceOnUse" id="color-1"><stop offset="0" stop-color="#000000"/><stop offset="1" stop-color="#000000" stop-opacity="0"/></linearGradient></defs><g transform="translate(-181.58279,-127.88178)"><g data-paper-data="{&quot;isPaintingLayer&quot;:true}" stroke-miterlimit="10" stroke-dasharray="" stroke-dashoffset="0" style="mix-blend-mode: normal"><path d="M217.91634,147.04886l0.01148,0.00805" data-paper-data="{&quot;index&quot;:null}" fill="#ffab19" fill-rule="nonzero" stroke="#001026" stroke-width="1.2" stroke-linecap="butt" stroke-linejoin="miter"/><path d="M232.77289,163.95385" fill="#001026" fill-rule="evenodd" stroke="none" stroke-width="1" stroke-linecap="butt" stroke-linejoin="miter"/><g stroke-linejoin="miter"><path d="M251.72856,151.54015c1.97973,13.30452 -7.68664,25.76716 -21.59048,27.83608c-13.90383,2.06892 -26.78001,-7.03933 -28.75974,-20.34388c-1.97973,-13.30452 7.68664,-25.76716 21.59048,-27.83608c13.90383,-2.06892 26.78001,7.03933 28.75974,20.34388z" fill="none" fill-rule="nonzero" stroke="#000000" stroke-width="4.5" stroke-linecap="butt"/><g><g fill-rule="nonzero" stroke-linecap="butt"><path d="M209.32788,141.94873l-0.01251,-0.00632" data-paper-data="{&quot;index&quot;:null}" fill="#ffab19" stroke="#000000" stroke-width="5"/><g data-paper-data="{&quot;index&quot;:null}" fill="none" stroke="none" stroke-width="1" font-family="sans-serif" font-weight="normal" font-size="12" text-anchor="start"/></g><path d="M209.32788,141.94873l-0.01251,-0.00632" data-paper-data="{&quot;index&quot;:null}" fill="#ffab19" fill-rule="nonzero" stroke="#000000" stroke-width="5" stroke-linecap="butt"/><path d="M226.44549,156.53876" fill="#001026" fill-rule="evenodd" stroke="#000000" stroke-width="5" stroke-linecap="butt"/><g data-paper-data="{&quot;index&quot;:null}" fill="none" fill-rule="nonzero" stroke="none" stroke-width="1" stroke-linecap="butt" font-family="sans-serif" font-weight="normal" font-size="12" text-anchor="start"/><g data-paper-data="{&quot;index&quot;:null}" fill="none" fill-rule="nonzero" stroke="none" stroke-width="1" stroke-linecap="butt" font-family="sans-serif" font-weight="normal" font-size="12" text-anchor="start"/><path d="M249.21298,130.67372c-1.23858,2.3336 -10.49841,18.91041 -10.49841,18.91041" fill="none" fill-rule="nonzero" stroke="#000000" stroke-width="5" stroke-linecap="round"/><path d="M205.62167,148.73595c0,0 -1.23241,-0.26458 -0.65324,-0.22343c2.99529,0.2129 29.41912,2.2681 29.41912,2.2681" fill="none" fill-rule="nonzero" stroke="#000000" stroke-width="5" stroke-linecap="round"/></g><path d="M232.06007,150.30973l1.66073,12.74855" fill="none" fill-rule="nonzero" stroke="#000000" stroke-width="4.5" stroke-linecap="round"/><path d="M241.90521,160.89528l-1.76394,-13.44205" fill="none" fill-rule="nonzero" stroke="#000000" stroke-width="4.5" stroke-linecap="round"/><path d="M224.53744,181.09284l-29.16141,4.10299c0,0 -2.42812,0.01823 -2.21787,-0.92447c0.48217,-2.1617 5.05248,-11.78415 5.05248,-11.78415l-12.14311,-2.20993c0,0 -2.23921,-0.58058 -2.7169,-1.62084c-0.44438,-0.96772 9.44696,-11.90371 9.44696,-11.90371c0,0 -8.70823,-2.35361 -11.2148,-3.98343c-0.98427,-0.63999 10.30769,-10.05484 18.33286,-15.01864c3.92695,-2.42894 9.2434,-5.99785 13.77541,-7.41055c7.51437,-2.34235 13.78444,-0.95833 13.78444,-0.95833" fill="none" fill-rule="nonzero" stroke="#000000" stroke-width="3" stroke-linecap="round"/><path d="M193.52672,185.471c0,0 -0.73102,-1.31056 0.20059,-3.40332c1.16686,-2.62124 5.97064,-6.62266 3.98724,-8.71499c-2.56928,-2.71039 -14.97427,-0.40205 -14.00459,-4.4357c0.79622,-3.31211 9.1614,-10.08103 8.85651,-12.12988c-0.30419,-2.04433 -4.63724,-0.12841 -7.63318,-2.46397c-4.26086,-3.32166 -2.48307,-3.59184 -2.48307,-3.59184c0,0 10.49316,-9.11611 15.76691,-12.37463c4.94795,-3.05721 14.96049,-6.61108 14.96049,-6.61108c0,0 -12.74874,15.79539 -13.67254,24.07017c-1.02403,9.17275 19.0812,24.98118 19.0812,24.98118z" data-paper-data="{&quot;index&quot;:null}" fill="url(#color-1)" fill-rule="nonzero" stroke="none" stroke-width="0" stroke-linecap="butt"/></g><path d="M227.2531,173.92952c-2.4728,0.31439 -6.95037,0.62079 -7.9149,0.55935c-0.91938,-0.05856 -2.93397,0.08331 -4.37275,-0.54823c-2.03686,-0.89407 -3.75187,-1.48706 -3.84755,-1.72151c-0.26955,-0.66051 20.45998,-1.76334 17.8941,-1.65745c0,0 0.92221,3.02696 -1.75889,3.36784z" fill="#ff0000" fill-rule="nonzero" stroke="#000000" stroke-width="2" stroke-linecap="butt" stroke-linejoin="miter"/><path d="M232.8424,198.48283l-0.79856,-15.16138" fill="none" fill-rule="nonzero" stroke="#000000" stroke-width="6" stroke-linecap="round" stroke-linejoin="miter"/><path d="M220.46862,203.80123c0,0 -1.74276,-10.68837 -1.05316,-11.57199c1.24863,-1.59996 12.71628,-10.54592 12.71628,-10.54592c0,0 4.38914,5.72514 7.42467,7.514c0.33885,0.19969 11.9465,-1.43403 11.9465,-1.43403" fill="none" fill-rule="nonzero" stroke="#000000" stroke-width="6" stroke-linecap="round" stroke-linejoin="miter"/><g stroke="#001026" stroke-width="1.2"><g><path d="M242.04045,194.78673l4.40416,33.21705c0,0 7.20218,1.89612 5.77612,10.1607c-0.08131,0.47115 -0.53524,2.77385 -3.64329,2.86947c-2.97687,0.09158 -8.56822,-1.9964 -10.60909,-2.77348c-0.94789,-0.36093 -2.31822,-1.39799 -3.07266,-2.86423c-0.75958,-1.4763 -0.37301,-3.33344 -0.21291,-4.3893c0.06521,-0.43007 -3.11564,-34.4771 -3.11564,-34.4771" fill="#bf0000" fill-rule="evenodd" stroke-linecap="round" stroke-linejoin="round"/><path d="M242.77872,194.06348c0.57331,3.23096 3.65482,21.21716 3.65482,21.21716c0,0 1.79572,5.9497 1.85713,7.55635c0.07071,1.85039 0.2749,3.19046 0.2749,3.19046l-0.8403,-1.59614c0,0 0.54573,1.1046 0.73555,1.7373c0.59133,1.97097 1.04645,3.46028 1.04645,3.46028c0,0 -7.25618,-1.96371 -10.51449,0.13334c-3.2583,2.09706 -2.59612,7.36489 -2.59612,7.36489c0,0 -5.29314,-2.00437 -5.21499,-5.49161c0.01925,-0.85969 1.23934,-3.19201 1.23934,-3.19201c0,0 -0.6429,0.02037 -0.57534,-0.56435c0.01605,-0.13893 -1.27274,-30.10237 -1.16031,-30.75395c0,0 11.96144,-3.8054 12.09337,-3.06177z" fill="#000000" fill-rule="nonzero" stroke-linecap="butt" stroke-linejoin="miter"/></g><g fill-rule="evenodd" stroke-linecap="round" stroke-linejoin="round"><g fill="#ffab19" font-family="&quot;Helvetica Neue&quot;, Helvetica, Arial, sans-serif" font-weight="400" font-size="16" text-anchor="start"/><path d="M229.37077,204.50319c-1.65751,-0.32316 -3.61409,-1.03503 -4.54557,-2.13453c-1.20166,-1.41841 -1.16917,-3.37764 -1.53082,-4.88799c6.80996,1.4176 14.92879,0.22445 20.89225,-2.43031c-0.1538,1.03952 0.23084,5.67276 -2.20942,7.31258c-1.62371,1.09112 -6.66132,2.75302 -7.94552,2.9904c-2.49235,0.46073 -4.28572,-0.77703 -4.66091,-0.85016z" fill="#000000"/></g><g><g fill-rule="evenodd" stroke-linecap="round" stroke-linejoin="round"><path d="M233.29125,202.19373c0,0 -3.2723,34.52993 -3.86943,34.6439c-1.71359,0.32706 -11.10426,-2.60164 -11.10426,-2.60164l6.03629,-34.71663" data-paper-data="{&quot;index&quot;:null}" fill="#ffab19"/><path d="M234.73735,201.63707c0,0 -0.76441,7.3018 -0.99019,11.17336c-0.21655,3.71341 -0.33797,11.60145 -0.33797,11.60145c0,0 0.91795,5.73165 0.0205,7.14507c-0.41568,0.65465 -0.74321,-3.23598 -0.74321,-3.23598c0,0 0.36566,4.3861 0.40166,4.77271c0.2512,2.69735 -0.89522,6.23954 -3.89934,6.57605c-3.29833,0.36948 -8.76649,0.78677 -11.58536,-1.34726c-1.19939,-0.908 -2.82402,-3.58085 -2.38675,-6.42814c0.49311,-3.21102 3.14122,-6.57491 3.14122,-6.57491l-2.4333,3.66683c0,0 -0.02536,-1.83092 0.37057,-3.17398c0.44462,-1.50826 2.16811,-5.4376 2.16811,-5.4376l5.22466,-22.11374" data-paper-data="{&quot;index&quot;:null}" fill="#000000"/></g><path d="M232.65202,236.84683c-0.08934,2.11928 -0.81816,4.58157 -2.40007,5.86018c-1.58777,1.28333 -11.13035,0.77475 -12.60558,-0.79367c-1.40098,-1.48947 -1.97166,-4.2424 -1.88446,-6.3108c0.17901,-4.24642 4.10511,-7.41029 8.76921,-7.0667c4.66406,0.34359 8.29992,4.06454 8.12089,8.31099z" fill="#ff0000" fill-rule="nonzero" stroke-linecap="butt" stroke-linejoin="miter"/></g><g fill="#000000" fill-rule="nonzero" stroke-linecap="butt" stroke-linejoin="miter"><path d="M223.43989,211.90674c0,0 -2.78818,0.5308 -3.64106,0.2266c-0.26255,-0.09366 -0.96343,-1.17509 -1.32192,-2.46352c-0.44741,-1.60809 -0.50653,-3.59038 -0.19053,-4.97507c0.813,-3.56252 5.01023,-7.44808 6.97827,-6.7461c0.85293,0.30423 3.08435,3.19959 3.08602,3.20684"/></g></g><g fill-rule="nonzero" stroke-linecap="butt" stroke-linejoin="miter"><path d="M248.27648,190.74061c0,0 -3.23766,-1.97907 -4.24853,-4.32039c-0.83547,-1.93511 0.44697,-4.23019 1.03955,-4.86096c1.04873,-1.11626 2.31035,-1.204 3.7283,-0.61231c1.4359,0.59918 4.14214,4.15105 4.14214,4.15105c0,0 4.23335,3.19325 4.86171,4.91505c0.44668,1.22405 0.36539,2.34517 -0.51163,3.27872c-1.35583,1.44314 -3.28563,2.66738 -5.6659,1.75568c-1.32531,-0.50764 -3.34562,-4.30682 -3.34562,-4.30682z" data-paper-data="{&quot;index&quot;:null}" fill="#000000" stroke="#000000" stroke-width="1.2"/><g data-paper-data="{&quot;index&quot;:null}" stroke="none" stroke-width="1"><path d="M246.28856,180.27235c-0.21068,0.10693 -0.3502,0.03068 -0.49655,-0.08862c-0.21495,-0.20739 -0.38182,-0.45591 -0.58067,-0.67709c-0.08242,-0.00284 -0.16479,-0.00574 -0.2357,0.00608c-1.51987,0.17568 -2.79652,-0.2971 -3.9928,-1.00983c-0.25162,-0.15151 -0.51928,-0.28938 -0.70212,-0.52421c-0.03427,-0.04406 -0.09604,-0.08903 -0.15098,-0.09094c-0.30211,-0.0105 -0.4507,-0.20128 -0.62676,-0.39307c-0.1532,-0.16238 -0.2743,-0.35221 -0.41144,-0.52837c-0.08,-0.10273 -0.12794,-0.23292 -0.08891,-0.38869c0.03906,-0.1557 -0.00425,-0.3143 -0.03619,-0.45815c-0.27158,-0.79481 -0.39669,-1.64166 -0.39126,-2.52681c0.01191,-0.49937 0.1176,-0.9812 0.2394,-1.47676c0.3607,-1.45829 1.09427,-2.74652 2.0955,-3.89698c0.45594,-0.5125 0.98508,-0.96532 1.55986,-1.35947c0.43511,-0.29902 0.91821,-0.46786 1.39666,-0.60832c1.52244,-0.4469 2.96876,-0.33954 4.33462,0.17921c0.26083,0.09474 0.49641,0.25999 0.73198,0.42524c0.16239,0.10558 0.32941,0.18281 0.55834,0.13364c0.20145,-0.05008 0.36843,0.02706 0.51479,0.14637c0.21495,0.20739 0.3978,0.44222 0.58067,0.67708c0.05715,0.0734 0.07083,0.15954 0.08444,0.24573c0.01572,0.32897 0.13905,0.59031 0.30592,0.83887c0.37259,0.51275 0.56194,1.13336 0.76735,1.74024c0.07301,0.23105 0.13001,0.47575 0.14354,0.73324c0.05873,0.83023 0.07857,1.64494 -0.11447,2.49499c0.17144,0.22014 0.33828,0.46872 0.52119,0.70351c0.06856,0.08807 0.14858,0.1908 0.09808,0.33183c-0.03446,0.12731 0.05014,0.20167 0.11874,0.28969c0.44117,0.60079 0.89832,1.18787 1.3395,1.78868c1.00119,1.31999 2.01383,2.65461 2.98296,4.00202c0.94627,1.31807 1.94069,2.59492 2.919,3.88557c0.16004,0.20548 0.27651,0.42375 0.43652,0.62917c0.77722,0.99803 1.55441,1.99607 2.31561,3.00782c0.13717,0.1761 0.30636,0.32482 0.33585,0.56858c0.01367,0.08616 0.08684,0.14581 0.14398,0.21921c0.5715,0.73382 1.13837,1.49609 1.70983,2.22995c0.02285,0.02936 0.05715,0.0734 0.08,0.10273c0.19892,0.22109 0.17811,0.43457 0.03363,0.72945c-0.49069,0.98255 -1.20774,1.74299 -2.15116,2.28143c-0.24273,0.13436 -0.50831,0.23936 -0.78071,0.30131c-0.20146,0.05008 -0.35702,-0.01241 -0.48735,-0.14542c-0.391,-0.39915 -0.79802,-0.78456 -1.20044,-1.19841c-0.28353,-0.29544 -0.54643,-0.63302 -0.87804,-0.88731c-0.72497,-0.55353 -1.26902,-1.28646 -1.94592,-1.88109c-0.37275,-0.34137 -0.76613,-0.64064 -1.12285,-0.99576c-0.37955,-0.38443 -0.77974,-0.72682 -1.16393,-1.08283c-0.69516,-0.65248 -1.36967,-1.34708 -2.08085,-1.98579c-0.95815,-0.81867 -1.85225,-1.69227 -2.74628,-2.56583c-0.311,-0.29645 -0.62196,-0.59274 -0.93297,-0.8892c-0.47565,-0.47347 -0.96263,-0.96164 -1.43819,-1.43511c-0.26067,-0.26609 -0.54196,-0.49008 -0.80263,-0.75613c-0.28817,-0.26705 -0.50529,-0.54591 -0.78883,-0.84139zM246.52934,179.72385c0.26099,-0.0766 0.4991,-0.18253 0.71898,-0.34626c0.51974,-0.22472 0.97552,-0.56584 1.43128,-0.90704c0.57944,-0.42254 1.12919,-0.91751 1.66286,-1.39875c0.61389,-0.54984 1.06536,-1.2053 1.52149,-1.88918c0.04127,-0.08428 0.08255,-0.16849 0.14445,-0.29485c-0.09142,-0.11742 -0.1829,-0.23482 -0.27429,-0.35223c-0.02284,-0.02935 -0.06176,-0.04496 -0.11207,-0.07526c-0.11223,0.09604 -0.21304,0.20679 -0.30241,0.33218c-0.1581,0.20872 -0.32307,0.37431 -0.48119,0.58298c-0.41242,0.49973 -0.94375,0.88115 -1.39046,1.33684c-0.24509,0.23428 -0.46736,0.49781 -0.73532,0.70272c-0.59544,0.43627 -1.13379,0.94589 -1.77493,1.32344c-0.16718,0.09415 -0.35033,0.20206 -0.51757,0.29618c-0.13273,-0.03321 -0.23811,0.106 -0.34118,0.14523c-0.13048,0.03828 -0.26102,0.07662 -0.42591,0.2422c0.26083,0.09476 0.36134,0.32673 0.56257,0.44797c0.09161,-0.05393 0.22429,-0.02078 0.31367,-0.14618zM247.55931,179.67395c-0.47164,0.18353 -0.57926,0.25119 -0.76487,0.45894c0.1532,0.16238 0.29497,0.3101 0.44813,0.47251c0.08,0.10273 0.20127,0.12127 0.33181,0.08295c0.08701,-0.02552 0.16716,-0.09414 0.25417,-0.11968c0.32054,-0.10308 0.62739,-0.2924 0.87251,-0.52661c0.16937,-0.02271 0.29763,-0.13239 0.42591,-0.24222c0.73293,-0.60285 1.46131,-1.17731 2.13709,-1.85349c0.29785,-0.3038 0.58423,-0.62228 0.8431,-0.94172c0.19482,-0.26456 0.4056,-0.54283 0.46087,-0.88362c-0.1486,-0.19082 -0.29719,-0.38157 -0.44577,-0.57239c-0.1054,0.1391 -0.19484,0.26456 -0.26812,0.37619c-0.35754,0.50163 -0.73787,0.9739 -1.16399,1.38753c-0.54291,0.538 -1.14301,1.00268 -1.73163,1.48202c-0.27261,0.23331 -0.59769,0.36484 -0.85885,0.61279c-0.22428,0.02078 -0.39608,0.14332 -0.54036,0.26679zM262.26857,194.30775c0.29304,-0.10405 0.52895,-0.28148 0.74196,-0.48825c0.02745,0.00098 0.07095,-0.01181 0.08701,-0.02553c0.37339,-0.344 0.72392,-0.71739 0.97379,-1.15139c0.15132,-0.25183 0.31401,-0.48887 0.3486,-0.78752c-0.64006,-0.82194 -1.28014,-1.64378 -1.95447,-2.50977c-0.25911,0.49075 -0.58674,0.89356 -0.92582,1.28153c-0.291,0.34691 -0.64596,0.5773 -0.9598,0.89482c-0.12826,0.10978 -0.25194,0.1912 -0.3802,0.30096c-0.24952,0.09127 -0.49226,0.22565 -0.74421,0.41677c0.34291,0.44031 0.79122,0.74147 1.14329,1.12502c0.37956,0.38448 0.77518,0.75521 1.1433,1.12499c0.2243,-0.02079 0.37543,-0.10114 0.52655,-0.18163zM259.57031,191.70081c0.16937,-0.02271 0.30911,-0.1178 0.43734,-0.22755c0.174,-0.05105 0.30691,-0.18925 0.46261,-0.29805c0.46035,-0.36958 0.86361,-0.81249 1.22793,-1.27108c0.21081,-0.27826 0.39875,-0.5859 0.50893,-0.92478c-0.04571,-0.05872 -0.0754,-0.13115 -0.12117,-0.18983c-0.56005,-0.71922 -1.10863,-1.42367 -1.65269,-2.15655c-0.57831,-0.77692 -1.14519,-1.53915 -1.72352,-2.31607c-0.85266,-1.12917 -1.67776,-2.25741 -2.5304,-3.38657c-0.93944,-1.27499 -1.91558,-2.49415 -2.82294,-3.79656c-0.14396,-0.2192 -0.33147,-0.42559 -0.50291,-0.64578c-0.13065,0.20965 -0.22238,0.43492 -0.37589,0.61522c-0.4583,0.61236 -1.00124,1.15041 -1.56701,1.65913c-0.51306,0.43908 -1.03756,0.86357 -1.5621,1.28799c-0.23132,0.14905 -0.43513,0.29901 -0.66643,0.44808c-0.19684,0.0217 -0.31828,0.17458 -0.46942,0.25502c-0.16718,0.09415 -0.34113,0.14523 -0.49005,0.29711c0.08223,0.1742 0.20576,0.2642 0.30177,0.35321c0.85077,0.71501 1.58461,1.55447 2.38722,2.31061c0.51453,0.48911 1.02896,0.97824 1.55953,1.45359c0.69513,0.65249 1.39489,1.27654 2.0786,1.91431c0.56483,0.51937 1.12967,1.03883 1.67842,1.57197c0.5991,0.56348 1.17071,1.12596 1.7538,1.70311c0.53734,0.51846 1.08615,1.05158 1.65096,1.57102c0.15568,-0.10882 0.3205,-0.10312 0.43734,-0.22755zM249.6099,167.45038c-0.24988,0.43396 -0.54088,0.78087 -0.8204,1.14242c-0.29559,0.37527 -0.56372,0.75153 -0.87072,1.11211c-0.291,0.34691 -0.62092,0.67817 -0.92335,1.01033c-0.31848,0.34594 -0.63688,0.69187 -0.9828,1.03683c-0.31386,0.31751 -0.6552,0.63408 -0.96904,0.95162c-0.34132,0.31655 -0.72835,0.57444 -1.02395,0.94974c-0.40524,0.20011 -0.71227,0.56071 -1.06038,0.83425c-0.37561,0.27251 -0.7444,0.58817 -1.11998,0.86071c-0.35956,0.2588 -0.74663,0.51669 -1.1176,0.76083c-0.38704,0.25787 -0.80376,0.44326 -1.15646,0.74518c0.24226,0.37969 0.32224,0.48243 0.65623,0.63681c0.24952,-0.09127 0.49911,-0.18255 0.75786,-0.33064c0.30687,-0.18925 0.61372,-0.37845 0.94807,-0.5668c0.62516,-0.36385 1.22284,-0.72862 1.78404,-1.20891c0.38482,-0.32935 0.7582,-0.6734 1.18877,-0.94399c0.09161,-0.05393 0.18778,-0.13627 0.26113,-0.24793c0.15811,-0.20871 0.37802,-0.3724 0.57039,-0.53711c0.70549,-0.60378 1.34241,-1.29562 1.9518,-1.98848c0.82252,-0.89964 1.53291,-1.87451 2.20899,-2.89348c0.14205,-0.19497 0.2842,-0.38995 0.30952,-0.63179c-0.13938,-0.24762 -0.32686,-0.45407 -0.59209,-0.69173zM241.77227,171.24775c0.02034,0.30059 0.10479,0.5463 0.17317,0.8057c0.04552,0.23007 0.16669,0.4199 0.36796,0.54114c0.35907,0.25522 0.68151,0.5663 0.93977,0.93229c0.02284,0.02934 0.07316,0.05966 0.08458,0.07433c0.11442,-0.02459 0.17855,-0.0795 0.22446,-0.19212c0.00461,-0.02839 -0.00223,-0.0715 -0.01367,-0.08616c-0.28337,-0.46683 -0.53465,-0.96105 -0.75387,-1.48274c-0.02968,-0.07245 -0.08222,-0.1742 -0.16002,-0.20549c-0.24702,-0.17995 -0.49401,-0.35989 -0.86249,-0.38695zM242.53598,174.28729c-0.26051,-0.43744 -0.47748,-0.88766 -0.66699,-1.33695c-0.05939,-0.14481 -0.15542,-0.23386 -0.29496,-0.31008c-0.21731,-0.1075 -0.44389,-0.1582 -0.68184,-0.22365c-0.07777,-0.03126 -0.16698,-0.0772 -0.24032,0.03449c0.11412,0.31815 0.20086,0.63532 0.34701,0.92596c0.75261,0.38312 0.75261,0.38312 1.31725,1.0739c0.08238,0.00289 0.15797,-0.03737 0.21988,-0.1637zM247.61189,172.36456c0.14159,0.31908 0.29927,0.62444 0.45687,0.92979c0.02968,0.07245 0.05938,0.14486 0.1211,0.18983c0.29508,0.13878 0.57418,0.29126 0.91518,0.3174c0.05526,-0.3408 -0.06809,-0.60209 -0.1319,-0.88994c-0.03187,-0.14388 -0.11653,-0.21824 -0.24465,-0.2798c-0.31112,-0.12504 -0.59025,-0.27757 -0.86464,-0.45848c-0.01143,-0.01469 -0.05491,-0.00193 -0.10981,-0.00381c-0.03665,0.05585 -0.08942,0.12546 -0.14207,0.19499zM244.94456,168.45924c-0.02556,0.41322 0.04966,0.71574 0.1089,1.03193c0.0365,0.11551 0.10967,0.17514 0.18284,0.2348c0.37055,0.2699 0.69293,0.58102 0.96262,0.96165c0.03427,0.04404 0.0846,0.07434 0.11889,0.11836c0.18781,-0.13627 0.20844,-0.17839 0.11699,-0.29579c-0.29719,-0.38163 -0.50272,-0.81717 -0.60531,-1.29193c-0.06381,-0.28782 -0.217,-0.45023 -0.44575,-0.57241c-0.14417,-0.04787 -0.26084,-0.09479 -0.43926,-0.18663zM244.43953,172.68271c0.08016,-0.06862 0.05042,-0.14108 0.00474,-0.1998c-0.32,-0.41099 -0.50037,-0.91699 -0.68069,-1.42308c-0.15525,-0.40521 -0.48225,-0.68791 -0.97422,-0.80495c-0.00939,0.22814 0.08891,0.38865 0.11161,0.58933c0.05682,0.41611 0.27397,0.69495 0.56673,0.93361c0.31558,0.26799 0.64722,0.52228 0.86664,0.8726c0.05032,0.03028 0.07781,0.0313 0.10524,0.0322zM244.64127,169.81944c-0.24018,-0.13685 -0.46431,-0.28743 -0.80749,-0.38504c0.04095,0.25846 0.05218,0.4445 0.07953,0.6168c0.03639,0.28687 0.15749,0.47668 0.3816,0.62731c0.31335,0.19652 0.57403,0.46262 0.81866,0.74241c0.09603,0.08904 0.18747,0.20644 0.26745,0.30915c0.09161,-0.05393 0.07337,-0.11162 0.0505,-0.14101c-0.25133,-0.49425 -0.48654,-1.0022 -0.64624,-1.55041c-0.04111,-0.08712 -0.0708,-0.15952 -0.14398,-0.21917zM248.50759,171.35331c0.28132,0.22397 0.43892,0.52934 0.6126,0.82097c0.05714,0.07336 0.05474,0.17328 0.14397,0.21918c0.13958,0.07626 0.51482,0.14639 0.79409,0.12758c-0.00204,-0.24285 -0.10715,-0.44639 -0.16872,-0.66276c-0.05478,-0.17327 -0.16222,-0.27694 -0.33382,-0.32576c-0.28826,-0.0957 -0.54448,-0.21882 -0.77549,-0.4125c-0.01143,-0.01469 -0.06636,-0.01654 -0.09381,-0.01752c-0.07559,0.04021 -0.1397,0.09509 -0.17874,0.25084zM243.77852,177.01506c0.25621,0.12313 0.43448,0.3864 0.72738,0.45369c0.10081,-0.11073 0.09179,-0.22528 0.1102,-0.33889c0.02078,-0.21349 0.08049,-0.41132 0.03493,-0.64138c-0.30191,-0.1819 -0.49848,-0.50284 -0.79579,-0.71308c-0.11442,0.02459 -0.19463,0.09318 -0.25192,0.19116c0.09808,0.33184 0.15272,0.67646 0.17524,1.04851zM245.80675,174.12965c0.08222,0.1742 0.16446,0.34841 0.16429,0.51977c0.00188,0.41414 0.21226,0.64998 0.53479,0.78968c0.11663,0.04689 0.18523,0.13496 0.35004,0.14071c0.04603,-0.28403 0.03258,-0.54153 0.019,-0.79904c-0.00223,-0.0715 -0.04795,-0.13018 -0.12112,-0.18981c-0.23562,-0.16527 -0.44372,-0.32956 -0.67925,-0.49486c-0.03426,-0.04403 -0.1121,-0.0753 -0.26783,0.03358zM244.79662,174.9942c0.18734,0.37778 0.3197,0.75368 0.29414,1.16689c-0.01381,0.08518 0.04796,0.13016 0.09367,0.18885c0.1189,0.11838 0.25385,0.22303 0.45291,0.27278c0.06448,-0.39761 0.04875,-0.72662 0.0216,-1.07022c-0.00905,-0.11457 -0.05012,-0.20166 -0.1348,-0.276c-0.15776,-0.13402 -0.29957,-0.28175 -0.45737,-0.41572c-0.01143,-0.01468 -0.06637,-0.01656 -0.09381,-0.01752c-0.0481,0.04116 -0.09624,0.08234 -0.17634,0.15098zM246.72329,168.13545c-0.17842,-0.09186 -0.36829,-0.19846 -0.54674,-0.29034c-0.02744,-0.00098 -0.05493,-0.00191 -0.10982,-0.00382c-0.07352,0.28304 -0.03256,0.54151 0.02902,0.75786c0.46657,0.35892 0.91023,0.68848 1.29887,1.18752c0.04159,-0.42696 -0.25353,-0.56566 -0.35401,-0.79765c-0.1348,-0.276 -0.22606,-0.56476 -0.31731,-0.85349zM241.27345,171.08763c-0.29747,-0.03892 -0.56295,-0.10522 -0.86738,-0.01586c0.01585,0.15761 -0.00715,0.29961 0.01334,0.42884c0.02052,0.12922 0.02493,0.27219 0.10496,0.3749c0.15097,0.0909 0.3318,0.08294 0.49195,0.11706c0.16017,0.03408 0.29972,0.11038 0.48512,0.07399c-0.07067,-0.33088 -0.14589,-0.63337 -0.22794,-0.97895zM241.53282,175.19487c-0.27879,-0.4952 -0.51643,-0.90328 -0.75405,-1.31136c-0.02288,-0.02937 -0.04111,-0.08714 -0.09603,-0.08904c-0.23797,-0.06537 -0.46672,-0.18757 -0.75515,-0.11193c0.09587,0.26036 0.18035,0.50608 0.28085,0.73804c0.47133,0.15921 0.86925,0.43004 1.32442,0.7743zM247.92556,174.68875c0.0643,-0.22625 -0.01795,-0.40045 -0.04522,-0.57274c-0.02269,-0.20068 -0.0935,-0.36023 -0.28336,-0.46679c-0.25159,-0.15153 -0.50321,-0.3031 -0.65407,-0.56536c-0.13511,0.06674 -0.18783,0.1363 -0.11925,0.22433c0.15542,0.23386 0.32224,0.48246 0.37462,0.75558c0.08889,0.38867 0.38863,0.49907 0.72726,0.62505zM246.08674,175.72439c-0.01415,0.4279 -0.04189,0.76967 -0.05367,1.09768c0.08,0.10273 0.17383,0.12032 0.25157,0.15154c0.0938,0.01754 0.19443,0.07812 0.32952,0.01143c0.08496,-0.2684 0.13098,-0.55232 0.1496,-0.83729c-0.19666,-0.14962 -0.39798,-0.27086 -0.67706,-0.42341zM249.16402,174.2892c-0.31573,-0.09667 -0.59261,-0.17769 -0.88086,-0.27339c0.03637,0.28687 0.06127,0.55909 0.08621,0.83125c0.26083,0.09474 0.47818,0.2023 0.77342,0.16966c0.04142,-0.25557 0.02335,-0.48469 0.02127,-0.72751zM241.67735,169.95928c-0.12384,0.25273 -0.02333,0.4847 -0.00526,0.71382c0.00223,0.0715 0.07536,0.13114 0.14175,0.14771c0.2105,0.06443 0.39354,0.12793 0.59258,0.1777c0.01143,0.01469 0.04351,-0.01279 0.07561,-0.04021c-0.04776,-0.30156 -0.12305,-0.60398 -0.17081,-0.90557c-0.19444,-0.07815 -0.41413,-0.0858 -0.63387,-0.09344zM244.48475,168.31472c-0.18987,-0.10654 -0.36829,-0.19846 -0.62469,-0.15026c-0.02541,0.24188 -0.08283,0.5112 -0.02587,0.75592c0.12809,0.0616 0.22415,0.15058 0.35684,0.18375c0.11663,0.04688 0.19205,0.17809 0.37064,0.09856c-0.02031,-0.30058 -0.04063,-0.60114 -0.077,-0.88805zM249.55593,173.83157c0.167,0.07719 0.36845,0.02707 0.58132,-0.00836c-0.00883,-0.28592 0.04856,-0.55523 -0.04726,-0.81559c-0.21974,-0.00764 -0.4256,-0.10046 -0.69342,-0.06693c0.04775,0.30155 0.11155,0.58935 0.15936,0.89089zM249.31883,170.26772c0.18972,0.27791 0.45501,0.51557 0.6126,0.82099c0.13937,0.2476 0.34304,0.26892 0.62689,0.22168c-0.01352,-0.25747 -0.10715,-0.4464 -0.19624,-0.66367c-0.39129,-0.05642 -0.68868,-0.26667 -1.04329,-0.37895zM240.47487,175.7579c0.05273,-0.06959 0.0184,-0.11357 -0.01585,-0.15763c-0.13254,-0.20449 -0.29259,-0.40999 -0.40909,-0.62826c-0.15304,-0.33375 -0.42768,-0.34327 -0.76184,-0.32631c0.04795,0.13021 0.07306,0.23099 0.11414,0.3181c0.08908,0.21729 0.19872,0.39244 0.46877,0.43039c0.16016,0.0341 0.29511,0.1388 0.41865,0.22874c0.02969,0.07244 0.05477,0.17324 0.18524,0.13499zM243.31534,177.99856c0.03445,-0.12729 0.03683,-0.22721 0.05065,-0.31237c0.06891,-0.25461 0.01412,-0.42792 -0.15511,-0.57658c-0.14632,-0.11932 -0.25604,-0.29452 -0.3864,-0.42755c-0.03427,-0.04406 -0.05254,-0.10177 -0.17623,-0.0204c0.07984,0.27413 0.12766,0.57563 0.13191,0.88993c0.00221,0.07147 0.05936,0.14484 0.10507,0.20356c0.12348,0.08995 0.23558,0.16528 0.43004,0.24341zM247.9251,175.20285c-0.17841,-0.0919 -0.35225,-0.21216 -0.56737,-0.24817c-0.03459,0.29867 -0.1081,0.5817 -0.07177,0.86858c0.21052,0.06444 0.37287,0.17004 0.61785,0.10716c0.02544,-0.24189 0.07829,-0.48282 0.02131,-0.72752zM243.4578,170.04969c0.03457,-0.29868 -0.00639,-0.55714 -0.07941,-0.78811c-0.2105,-0.06443 -0.39352,-0.1279 -0.6407,-0.13649c-0.05969,0.19786 -0.0484,0.38389 -0.00969,0.57087c0.24481,0.10843 0.47353,0.23064 0.72977,0.35381zM247.0238,177.09923c0.17625,0.0204 0.28143,0.05261 0.40735,0.04268c0.08242,0.00284 0.15337,-0.00894 0.22435,-0.02078c0.10318,-0.21062 0.16747,-0.43685 0.14937,-0.66597c-0.19444,-0.07815 -0.38892,-0.15628 -0.62927,-0.12179c-0.04143,0.25556 -0.10573,0.48184 -0.15176,0.76582zM241.83528,177.16172c-0.03919,0.32709 -0.07605,0.55424 -0.10605,0.82451c0.02969,0.07244 0.12567,0.16145 0.24239,0.20833c0.10062,0.06061 0.14859,0.19077 0.30193,0.18183c0.11001,-0.16757 0.14903,-0.32326 0.14923,-0.49462c-0.19891,-0.2211 -0.37033,-0.44127 -0.58748,-0.72013zM240.40873,170.62914c0.13736,0.00478 0.27469,0.00955 0.41195,0.01433c0.13733,0.00478 0.2632,-0.00516 0.40053,-0.00037c-0.01346,-0.25749 0.00732,-0.47099 -0.0863,-0.65986c-0.11666,-0.04688 -0.23574,0.00609 -0.3502,0.03063c-0.11442,0.02459 -0.26322,0.00517 -0.36399,0.11587c-0.01619,0.18514 -0.05526,0.3408 -0.0119,0.49939zM249.06455,175.49944c-0.24256,-0.03698 -0.4599,-0.14453 -0.74376,-0.09722c-0.02077,0.21346 -0.02555,0.41322 -0.04637,0.6267c0.24258,0.03698 0.44165,0.08678 0.69119,-0.00453c0.05504,-0.16944 0.13307,-0.30957 0.0989,-0.52494zM240.4406,173.24348c-0.10949,-0.34655 -0.21222,-0.64998 -0.31495,-0.95336c-0.13273,-0.03321 -0.2494,-0.0801 -0.38448,-0.01337c-0.05063,0.31241 0.0292,0.58648 0.09301,0.87431c0.13275,0.0332 0.26543,0.06636 0.40275,0.07113c0.06175,0.04502 0.10524,0.0322 0.20364,0.02138zM245.6162,177.17886c-0.22196,-0.0791 -0.35909,-0.25525 -0.57879,-0.26286c-0.06205,0.29772 -0.11952,0.56701 -0.11065,0.85299c0.19228,0.00666 0.30652,0.15345 0.53547,0.1043c0.10318,-0.21059 0.09654,-0.42507 0.15401,-0.69436zM245.65255,167.58424c-0.23338,-0.09377 -0.43923,-0.18662 -0.66358,-0.16585c-0.04368,0.18412 -0.05985,0.36919 -0.03253,0.54153c0.23337,0.09375 0.45067,0.20128 0.70689,0.32443c-0.02951,-0.24374 -0.02478,-0.44351 -0.01078,-0.70007zM243.64692,178.25287c0.21271,0.13591 0.38654,0.25617 0.63831,0.23639c0.0711,-0.18316 0.13765,-0.33793 0.11035,-0.51025c-0.20128,-0.12122 -0.38654,-0.25615 -0.62671,-0.39306c-0.0643,0.22625 -0.11255,0.43877 -0.12194,0.66691zM243.41779,168.76315c-0.0249,-0.27216 0.08287,-0.51122 -0.01078,-0.70011c-0.2105,-0.06443 -0.40735,-0.04272 -0.60881,0.00742c-0.04825,0.21252 -0.10798,0.41038 -0.03034,0.613c0.20366,0.02135 0.3913,0.05642 0.64993,0.0797zM250.10241,174.29318c-0.19224,-0.00668 -0.35242,-0.0408 -0.54247,0.02402c0.01352,0.25747 -0.08288,0.51119 0.0016,0.7569c0.17622,0.02043 0.31817,-0.00321 0.47386,-0.11206c0.03686,-0.22719 0.04622,-0.45535 0.06697,-0.66881zM239.49737,173.6105c-0.18764,-0.03507 -0.31348,-0.02514 -0.46007,0.02684c-0.0208,0.21349 -0.00273,0.44257 0.13444,0.6187c0.16479,0.00573 0.32952,0.01145 0.50578,0.03187c0.00255,-0.27123 -0.11858,-0.46104 -0.18016,-0.67742zM251.21587,170.5763c-0.15331,0.00893 -0.27924,0.01885 -0.38684,0.08649c0.01807,0.22908 0.06828,0.43078 0.16196,0.61964c0.14872,0.01947 0.27462,0.00954 0.4097,-0.05715c-0.00206,-0.24285 -0.12319,-0.43266 -0.18479,-0.64898zM248.10867,177.05128c0.23333,0.09378 0.37304,-0.00131 0.50594,-0.13947c0.11225,-0.09603 0.20163,-0.22147 0.15831,-0.38006c-0.18764,-0.03507 -0.36383,-0.0555 -0.5653,-0.00539c-0.04366,0.18412 -0.07128,0.3545 -0.09893,0.5249zM247.48833,167.5052c-0.15095,-0.09092 -0.24236,-0.20832 -0.41178,-0.18563c-0.12636,0.52395 0.17096,0.73424 0.57131,0.90518c-0.05695,-0.24474 -0.10254,-0.47481 -0.15954,-0.71954zM246.35464,177.98994c0.09863,-0.18221 0.13762,-0.33794 0.131,-0.55235c-0.16938,0.02271 -0.29974,-0.11037 -0.47371,-0.05928c-0.08481,0.097 -0.07112,0.18316 -0.10097,0.28206c-0.01842,0.11357 -0.07574,0.21157 0.00425,0.3143c0.13274,0.03318 0.26546,0.06635 0.43943,0.01525zM244.76252,172.30839c0.24494,-0.06287 0.31829,-0.17456 0.23145,-0.32035c-0.13254,-0.20451 -0.29717,-0.38162 -0.45038,-0.54397c-0.04569,-0.05869 -0.11893,-0.11835 -0.23795,-0.06539c0.12557,0.33277 0.2832,0.63811 0.45683,0.92978zM251.03919,173.54037c0.10061,0.0606 0.19907,0.04974 0.30672,-0.01789c0.05751,-0.26932 0.15847,-0.55141 0.09466,-0.83923c-0.261,0.07662 -0.38248,0.22947 -0.38039,0.47229c-0.01842,0.1136 -0.08034,0.24 -0.02096,0.38486zM246.79669,170.32282c0.22447,-0.19208 0.24968,-0.26266 0.14685,-0.39472c-0.17609,-0.19175 -0.36351,-0.39821 -0.60372,-0.53505c0.07746,0.37399 0.15956,0.71954 0.45686,0.92976zM250.34014,169.76052c0.07537,0.13112 0.15545,0.23387 0.21939,0.35032c0.14395,0.21923 0.14399,0.21919 0.48976,0.04561c-0.04797,-0.13019 -0.09125,-0.28877 -0.12096,-0.36116c-0.21973,-0.00767 -0.39591,-0.02803 -0.58816,-0.03469zM241.81623,168.2505c-0.03909,0.15574 -0.16048,0.3086 -0.03476,0.47007c0.15333,-0.00894 0.3113,-0.0463 0.49208,-0.0543c0.04368,-0.18412 0.11481,-0.36727 0.07144,-0.52585c-0.16942,0.02274 -0.3342,0.01696 -0.52884,0.11014zM250.26502,171.7571c0.06844,0.25941 0.12075,0.53256 0.18922,0.79195c0.08923,0.0459 0.183,0.06347 0.25635,-0.0482c0.04144,-0.25559 0.02798,-0.51314 -0.07255,-0.74508c-0.13273,-0.03321 -0.24257,-0.03698 -0.37308,0.00134zM245.65082,167.17c0.10081,-0.11073 0.13529,-0.23806 0.13082,-0.38102c-0.0778,-0.03128 -0.15555,-0.06253 -0.23336,-0.09378c-0.10524,-0.03221 -0.1945,-0.07813 -0.31352,-0.02517c-0.0962,0.08233 -0.15353,0.18027 -0.16048,0.30859c0.18307,0.06346 0.39354,0.1279 0.57654,0.19141zM242.26359,169.57981c0.04368,-0.18412 0.02778,-0.34177 -0.01554,-0.50035c-0.19684,0.0217 -0.37764,0.02974 -0.547,0.05239c-0.09397,0.15384 -0.08952,0.29676 -0.03701,0.39857c0.20364,0.02137 0.40732,0.0427 0.5996,0.04945zM246.64639,167.07611c-0.11665,-0.04689 -0.23334,-0.09378 -0.36608,-0.12697c-0.02744,-0.00098 -0.05954,0.0265 -0.10307,0.03927c-0.02987,0.0989 -0.10318,0.21062 -0.05984,0.36921c0.13959,0.07627 0.28592,0.19554 0.48958,0.21691c0.0711,-0.18314 0.06663,-0.32612 0.03934,-0.49841zM248.47918,167.61102c-0.10968,-0.17516 0.04382,-0.35549 -0.07048,-0.50224c-0.15554,-0.0625 -0.27442,-0.18092 -0.49414,-0.18853c-0.05504,0.16944 -0.09412,0.32518 0.05684,0.41607c0.15098,0.09092 0.23779,0.23669 0.50781,0.27468zM251.48906,172.12806c-0.01585,-0.15761 -0.01572,-0.32897 -0.02015,-0.4719c0.0046,-0.02839 -0.03428,-0.04407 -0.05716,-0.07337c-0.10302,0.03926 -0.24034,0.03446 -0.35033,0.20205c0.0113,0.18601 0.03397,0.38674 0.04066,0.60117c0.15793,-0.03737 0.26559,-0.105 0.38704,-0.25787zM241.18811,169.22828c-0.16481,-0.00575 -0.34099,-0.02616 -0.47827,-0.03088c-0.11001,0.16757 -0.1491,0.32325 -0.1721,0.46525c0.09607,0.089 0.21969,0.00762 0.31815,-0.00323c0.09843,-0.0109 0.20828,-0.00705 0.30909,-0.11779c0.04128,-0.08425 0.07113,-0.18318 0.02317,-0.31338zM244.64664,178.64461c0.16017,0.03409 0.28148,0.05263 0.40274,0.07111c0.03887,0.01564 0.09843,-0.01084 0.1259,-0.0099c0.11225,-0.09603 0.14671,-0.22337 0.14222,-0.36633c-0.17162,-0.04879 -0.32719,-0.11132 -0.51938,-0.11804c-0.0619,0.12636 -0.09637,0.25369 -0.15145,0.42314zM250.76163,169.37532c-0.08443,-0.2457 -0.16888,-0.49139 -0.377,-0.65571c-0.11,0.16753 -0.22689,0.292 -0.21561,0.47802c0.27444,0.18093 0.27448,0.18091 0.5926,0.17769zM246.78731,177.96213c0.48975,0.04562 0.50575,0.03187 0.68007,-0.36197c-0.17627,-0.0204 -0.357,-0.01238 -0.5332,-0.03285c-0.10081,0.11072 -0.13524,0.23804 -0.14687,0.39471zM244.53612,167.31688c-0.17161,-0.04881 -0.32039,-0.06823 -0.4944,-0.01717c-0.02063,0.04213 -0.04591,0.11265 -0.07115,0.18318c-0.0092,0.05681 -0.007,0.12831 -0.01618,0.18506c0.17162,0.04877 0.33865,0.12599 0.52406,0.08961c0.0619,-0.12636 0.07351,-0.28304 0.05761,-0.44066zM243.14751,178.7781c0.02522,-0.07051 0.05504,-0.16945 0.03684,-0.22721c-0.07762,-0.20264 -0.22396,-0.32188 -0.46196,-0.38731c-0.0505,0.14103 -0.1559,0.28015 -0.13543,0.40941c0.17841,0.09189 0.32019,0.23957 0.56053,0.20511zM239.30853,172.3045c-0.02742,-0.00097 -0.0549,-0.0019 -0.10984,-0.00381c-0.11699,0.29583 -0.15161,0.59447 -0.18618,0.89314c0.12808,0.06159 0.22654,0.05068 0.3662,-0.04439c-0.0249,-0.27216 -0.03384,-0.55803 -0.07016,-0.84495zM245.42556,170.51792c0.07524,0.30247 0.12306,0.604 0.33337,0.83981c0.01143,0.01469 0.09843,-0.01088 0.13049,-0.0383c0.08015,-0.06864 0.09857,-0.1822 0.04137,-0.25555c-0.10047,-0.23197 -0.28114,-0.39533 -0.50526,-0.54591zM243.60688,167.25612c-0.14872,-0.01947 -0.2975,-0.03894 -0.45546,-0.00158c-0.11223,0.09604 -0.16954,0.19402 -0.16972,0.36534c0.18084,-0.00801 0.37307,-0.00129 0.54243,-0.02394c0.07329,-0.11166 0.10317,-0.21058 0.08268,-0.33986zM249.40729,176.1111c0.2359,-0.17744 0.43974,-0.32742 0.55213,-0.5948c-0.15097,-0.0909 -0.30889,-0.05359 -0.47148,0.01218c-0.05969,0.19785 -0.11478,0.36727 -0.08064,0.58268zM241.22094,178.22561c0.07574,-0.21158 0.08037,-0.23994 0.04607,-0.28399c-0.09821,-0.16049 -0.28132,-0.22399 -0.45291,-0.27278c-0.06632,-0.01657 -0.15797,0.03739 -0.13748,0.16661c0.19909,0.0498 0.28352,0.2955 0.54435,0.39016zM240.02996,171.85839c-0.00886,-0.28592 0.00971,-0.57088 -0.16859,-0.83405c-0.14445,0.29485 -0.11951,0.56705 -0.11748,0.80984c0.07318,0.05966 0.14413,0.04783 0.28605,0.02416zM245.7043,178.42431c-0.04586,0.11264 -0.10317,0.21059 -0.14902,0.32326c0.18305,0.06351 0.35925,0.08386 0.50132,-0.11111c0.03667,-0.05586 0.07331,-0.11165 0.04368,-0.18412c-0.10061,-0.0606 -0.22656,-0.05071 -0.39592,-0.02803zM247.75667,169.25668c0.14429,-0.12353 0.18561,-0.20771 0.07812,-0.31141c-0.09605,-0.08902 -0.19208,-0.17805 -0.30417,-0.25333c-0.05033,-0.03027 -0.11671,-0.0469 -0.16939,0.02268c0.08906,0.21729 0.21478,0.3787 0.39545,0.54207zM241.43532,174.17761c0.08444,0.24574 0.201,0.46395 0.39767,0.61358c0.01143,0.01469 0.09842,-0.01091 0.11443,-0.0246c0.03206,-0.02741 0.02988,-0.09894 0.00699,-0.12826c-0.1646,-0.17709 -0.26972,-0.38068 -0.51912,-0.46073zM241.0543,175.33538c-0.1624,-0.10561 -0.28815,-0.26707 -0.51004,-0.34621c0.06843,0.25938 0.16212,0.44828 0.27878,0.49519c0.10065,0.0606 0.16482,0.00574 0.23128,-0.14905zM250.82529,174.60396c0.1581,-0.20872 0.38261,-0.40087 0.35768,-0.67306c-0.38002,0.1296 -0.35509,0.40178 -0.35768,0.67306zM248.52057,172.12487c0.03205,-0.02743 0.03673,-0.05591 0.06876,-0.08328c-0.13031,-0.13303 -0.16909,-0.32001 -0.35211,-0.38349c-0.10763,0.06766 -0.14432,0.12353 -0.13525,0.23807c0.12809,0.06158 0.26766,0.13783 0.41864,0.22873zM243.51734,172.49357c0.11193,0.24663 0.20559,0.43552 0.35876,0.59794c0.02288,0.02937 0.07776,0.03129 0.12587,-0.00991c0.01607,-0.01372 0.0367,-0.05583 0.04129,-0.08426c-0.08443,-0.2457 -0.22161,-0.4218 -0.52593,-0.50379zM243.5572,178.72096c-0.07334,0.11164 -0.09857,0.18218 -0.0322,0.19878c0.12809,0.06158 0.27227,0.10937 0.41642,0.15727c0.0938,0.01754 0.1419,-0.02357 0.1443,-0.1235c-0.17382,-0.12032 -0.3248,-0.21125 -0.52845,-0.23258zM242.51707,167.67513c0.02988,-0.09894 0.0711,-0.18317 0.10096,-0.28208c0.00461,-0.02839 -0.01825,-0.05775 -0.03648,-0.11551c-0.19241,0.16464 -0.40303,0.27154 -0.56578,0.50867c0.18084,-0.00801 0.30672,-0.01787 0.50133,-0.1111zM244.21944,175.48818c0.13033,0.13307 0.24924,0.25143 0.40242,0.41383c0.04603,-0.28403 -0.00873,-0.45726 -0.13903,-0.5903c-0.11446,0.02457 -0.17397,0.05106 -0.26338,0.17646zM248.96817,170.81243c0.14417,0.04788 0.23777,0.23673 0.48274,0.17384c-0.22623,-0.3934 -0.28337,-0.4668 -0.38642,-0.42754c-0.08015,0.06864 -0.10542,0.13915 -0.09637,0.25369zM242.57813,173.34631c-0.02098,0.38483 0.11621,0.56096 0.35178,0.72623c0.08731,-0.36826 -0.20099,-0.46388 -0.35178,-0.72623zM248.03032,167.82386c-0.01636,0.35641 0.10938,0.51792 0.2786,0.66657c0.01144,0.01466 0.05493,0.00186 0.08699,-0.02555c0.04812,-0.04114 0.05728,-0.09799 0.03445,-0.12731c-0.09823,-0.16048 -0.22857,-0.29353 -0.40002,-0.5137zM249.56641,169.93356c0.15095,0.09092 0.28132,0.22397 0.52159,0.18947c-0.06621,-0.18796 -0.18511,-0.30628 -0.29257,-0.40999c-0.13048,0.03829 -0.18317,0.10786 -0.22907,0.2205zM247.6033,166.79515c-0.21512,-0.03603 -0.34083,-0.19747 -0.54689,-0.11898c0.11193,0.24664 0.11193,0.24663 0.44829,0.30119c0.02063,-0.04213 0.04127,-0.08428 0.0986,-0.18221zM250.48511,173.721c0.19014,-0.23615 0.19955,-0.46428 0.18144,-0.69339c-0.11665,-0.04689 -0.18082,0.00799 -0.1946,0.09316c0.01129,0.18602 0.00649,0.38584 0.0132,0.60019zM244.62793,166.92022c0.08481,-0.097 0.15353,-0.18027 0.13304,-0.30946c-0.12129,-0.01848 -0.24259,-0.03703 -0.35019,0.03065c-0.06873,0.08328 -0.09396,0.15381 -0.08031,0.23997c0.08924,0.04591 0.17161,0.04881 0.29749,0.03887zM246.67207,173.90271c-0.04331,-0.15856 -0.07984,-0.27412 -0.18049,-0.33471c-0.03887,-0.01564 -0.08239,-0.00289 -0.12589,0.00991c-0.0481,0.04116 -0.08939,0.1254 -0.03907,0.15571c0.06859,0.08808 0.14861,0.1908 0.34548,0.16911zM241.28964,168.43213c-0.17862,0.07948 -0.24971,0.26265 -0.35511,0.40176c0.34101,0.02612 0.37305,-0.00134 0.35511,-0.40176zM240.14503,176.08913c-0.10731,-0.27505 -0.10733,-0.27505 -0.32021,-0.23959c0.03652,0.11551 0.08448,0.24573 0.32021,0.23959zM247.3414,172.66932c-0.09844,0.01091 -0.14652,0.05202 -0.1397,0.09507c0.01132,0.18603 0.0616,0.21635 0.30879,0.22494c-0.03187,-0.1439 -0.10047,-0.23202 -0.16906,-0.32004zM248.79518,167.36501c-0.02299,0.14203 -0.02999,0.27027 0.08204,0.34557c0.2222,-0.26361 0.21545,-0.30661 -0.08204,-0.34557zM239.4083,175.86363c-0.0162,0.18511 0.0592,0.3162 0.12316,0.43265c0.0457,0.05871 0.12811,0.06159 0.17864,-0.07946c-0.064,-0.1164 -0.13938,-0.24764 -0.30177,-0.35321zM246.39753,166.48197c0.08223,0.1742 0.18748,0.20647 0.33866,0.12604c0,0 0.02064,-0.04211 0.0092,-0.05681c-0.05255,-0.10179 -0.19444,-0.07816 -0.34783,-0.06925zM245.50648,174.70466c0.0733,-0.11166 0.05966,-0.19788 -0.00207,-0.24282c-0.02286,-0.02936 -0.0778,-0.03126 -0.12127,-0.01852c-0.04348,0.0128 -0.06872,0.08329 -0.04584,0.11263c0.01825,0.05778 0.06394,0.11644 0.1692,0.14868zM243.6393,166.88591c0.14417,0.04787 0.24255,0.03704 0.32512,-0.13147c-0.17162,-0.0488 -0.25858,-0.02327 -0.32512,0.13147z" fill="#000000"/><path d="M249.33717,180.03556c0.52451,-0.42442 1.04907,-0.84889 1.56211,-1.28805c0.57723,-0.49403 1.10868,-1.04675 1.56701,-1.65911c0.14207,-0.19499 0.22923,-0.39183 0.37591,-0.6152c0.18289,0.23488 0.35898,0.42655 0.5029,0.64576c0.89595,1.28777 1.88348,2.52157 2.82293,3.79657c0.83656,1.1429 1.67775,2.2574 2.53041,3.38656c0.57833,0.77693 1.1452,1.5392 1.72346,2.31611c0.54403,0.73291 1.10867,1.42365 1.65271,2.15653c0.04571,0.05872 0.09144,0.11742 0.12113,0.18984c-0.09872,0.35356 -0.28211,0.63277 -0.50893,0.92477c-0.36434,0.45859 -0.76756,0.90152 -1.22793,1.27105c-0.14429,0.12353 -0.27716,0.2617 -0.46257,0.29807c0.12144,-0.15286 0.31604,-0.24604 0.4353,-0.47039c-0.29507,-0.13878 -0.44128,-0.42943 -0.64021,-0.65056c-0.01143,-0.01469 -0.02282,-0.02936 -0.03888,-0.01562c-0.43685,-0.28653 -0.76831,-0.71216 -1.16851,-1.05451c-0.14634,-0.11932 -0.34084,-0.19744 -0.42308,-0.37167c-0.19653,-0.32101 -0.55799,-0.47632 -0.75455,-0.79734c-0.01144,-0.01466 -0.05032,-0.0303 -0.07319,-0.05966c-0.26526,-0.23767 -0.5351,-0.44698 -0.76829,-0.71212c-0.25149,-0.32289 -0.60834,-0.50668 -0.82771,-0.85701c-0.24476,-0.10845 -0.36129,-0.32675 -0.53733,-0.51849c-0.02288,-0.02937 -0.0343,-0.04405 -0.05714,-0.07337c-0.35688,-0.18376 -0.53277,-0.54685 -0.8255,-0.78553c-0.29269,-0.23864 -0.50068,-0.5743 -0.77738,-0.82667c-0.311,-0.29645 -0.65867,-0.53692 -0.88485,-0.93038c-0.02288,-0.02937 -0.05713,-0.07341 -0.09603,-0.08903c-0.22196,-0.0791 -0.311,-0.29642 -0.46415,-0.45883c-0.06858,-0.08807 -0.13252,-0.20452 -0.2332,-0.26513c-0.16698,-0.07722 -0.24239,-0.20832 -0.34529,-0.34042c-0.05713,-0.07336 -0.09826,-0.16051 -0.17602,-0.19175c-0.24481,-0.10843 -0.37274,-0.34137 -0.52131,-0.53218c-0.05715,-0.0734 -0.09825,-0.1605 -0.17606,-0.19178c-0.20588,-0.09287 -0.31558,-0.26799 -0.44128,-0.42947c-0.20578,-0.2642 -0.52367,-0.43233 -0.71338,-0.7102c-0.01825,-0.05773 -0.10063,-0.06065 -0.15096,-0.09091z" fill="#87d7dc"/><path d="M249.3372,180.03566c0.05032,0.03033 0.13273,0.03318 0.16702,0.07718c0.18972,0.2779 0.49162,0.45975 0.71339,0.71021c0.12571,0.16147 0.23545,0.33664 0.44132,0.42949c0.0778,0.03125 0.11889,0.11838 0.17606,0.19171c0.1486,0.19078 0.29256,0.41001 0.52128,0.53221c0.07779,0.03126 0.10287,0.13209 0.17606,0.19173c0.10287,0.13208 0.19432,0.24953 0.34528,0.34045c0.10061,0.0606 0.16461,0.17711 0.23321,0.26515c0.1532,0.16238 0.24227,0.37974 0.46418,0.45883c0.03889,0.01566 0.0732,0.05968 0.09604,0.08904c0.21479,0.37873 0.57388,0.63401 0.88484,0.93039c0.28814,0.26707 0.49607,0.60271 0.77736,0.82669c0.29271,0.23862 0.46865,0.60173 0.82547,0.78551c0.02742,0.00097 0.03428,0.04408 0.05714,0.0734c0.1486,0.19078 0.29259,0.40997 0.53738,0.51847c0.20333,0.36407 0.56024,0.5478 0.82767,0.85699c0.21716,0.27885 0.50308,0.47443 0.76832,0.71214c0.02288,0.02937 0.05037,0.03029 0.07321,0.05966c0.19653,0.32101 0.55797,0.47634 0.75455,0.79735c0.10969,0.17514 0.29271,0.23865 0.42304,0.37168c0.38415,0.35607 0.73167,0.76797 1.16851,1.05451c0.01143,0.01469 0.03892,0.01563 0.03892,0.01563c0.19891,0.22112 0.3451,0.51181 0.64023,0.65058c-0.10316,0.21061 -0.30927,0.28911 -0.43532,0.4704c-0.12826,0.10978 -0.25654,0.2195 -0.43739,0.22751c-0.06859,-0.08808 -0.13252,-0.2045 -0.23318,-0.26512c-0.35224,-0.21214 -0.57624,-0.53412 -0.84833,-0.8149c-0.27205,-0.28074 -0.62436,-0.49291 -0.82769,-0.85695c-0.24481,-0.10843 -0.36132,-0.32669 -0.53735,-0.51846c-0.02286,-0.02936 -0.05715,-0.07337 -0.09608,-0.08901c-0.18305,-0.06351 -0.26521,-0.23767 -0.38417,-0.35609c-0.05714,-0.07338 -0.11433,-0.14672 -0.17602,-0.19175c-0.33163,-0.25429 -0.65864,-0.53693 -0.92153,-0.87451c-0.03427,-0.04406 -0.06396,-0.11652 -0.1189,-0.11837c-0.19445,-0.07813 -0.29274,-0.23862 -0.40703,-0.3854c-0.10969,-0.17514 -0.33622,-0.22588 -0.45733,-0.41575c-0.16683,-0.24857 -0.41846,-0.40009 -0.63338,-0.60747c-0.28352,-0.29544 -0.61974,-0.52133 -0.8826,-0.8589c-0.04572,-0.05873 -0.08686,-0.14581 -0.1532,-0.16238c-0.15553,-0.06257 -0.24241,-0.20831 -0.36129,-0.32671c-0.09143,-0.11739 -0.19889,-0.22111 -0.31097,-0.29643c-0.21271,-0.13593 -0.39337,-0.29929 -0.55341,-0.5047c-0.25604,-0.29451 -0.60835,-0.50666 -0.81168,-0.87069c-0.02288,-0.02937 -0.07316,-0.0597 -0.09604,-0.08904c-0.28816,-0.26707 -0.5923,-0.52036 -0.8483,-0.81489c-0.25148,-0.32285 -0.63121,-0.53602 -0.85055,-0.88635c-0.03428,-0.04407 -0.10064,-0.06059 -0.15096,-0.0909c-0.18065,-0.16335 -0.35671,-0.3551 -0.45717,-0.58707c0.06875,-0.08327 0.13287,-0.1382 0.18561,-0.20774c0.25879,-0.14809 0.474,-0.28341 0.69392,-0.44711z" fill="#b0eef2"/><path d="M249.60985,167.45033c0.26522,0.23767 0.45272,0.44416 0.56004,0.71921c-0.03684,0.22719 -0.1789,0.4222 -0.30953,0.63181c-0.68756,1.00423 -1.38652,1.99381 -2.209,2.89344c-0.62091,0.67813 -1.2578,1.37004 -1.95181,1.98847c-0.19241,0.16466 -0.41226,0.32839 -0.57041,0.53708c-0.06872,0.0833 -0.16495,0.16562 -0.26115,0.24793c-0.43053,0.27063 -0.79246,0.62932 -1.18872,0.94401c-0.55661,0.45193 -1.15887,0.8451 -1.78402,1.20889c-0.3183,0.17459 -0.62516,0.36386 -0.94804,0.56684c-0.2473,0.1627 -0.50831,0.23935 -0.75787,0.33066c-0.31796,-0.16814 -0.41397,-0.25712 -0.65623,-0.63681c0.36411,-0.28723 0.76944,-0.48733 1.15647,-0.74518c0.371,-0.24415 0.75801,-0.502 1.11759,-0.76082c0.37562,-0.27251 0.75583,-0.5735 1.12,-0.8607c0.35956,-0.2588 0.66656,-0.61942 1.06046,-0.83423c0.2956,-0.37531 0.68263,-0.63314 1.02394,-0.94972c0.3253,-0.30286 0.65516,-0.63409 0.96901,-0.95165c0.3299,-0.33128 0.64832,-0.67717 0.98285,-1.03682c0.30241,-0.3322 0.63233,-0.66345 0.92332,-1.01036c0.30702,-0.36061 0.57516,-0.73682 0.8708,-1.11214c0.31159,-0.389 0.6026,-0.73587 0.85248,-1.16988z" fill="#d1eaeb"/><path d="M248.67082,180.48364c-0.05271,0.06957 -0.11684,0.12446 -0.18556,0.20775c0.10049,0.23196 0.24907,0.42277 0.45719,0.58706c0.05034,0.03032 0.11666,0.04688 0.15095,0.09092c0.21935,0.35032 0.58312,0.5772 0.85057,0.88637c0.24001,0.30822 0.56019,0.54781 0.8483,0.81491c0.02286,0.02936 0.0732,0.05968 0.09604,0.08903c0.20332,0.36407 0.56019,0.54781 0.81166,0.87073c0.14861,0.19077 0.34067,0.36882 0.55345,0.50473c0.12346,0.08994 0.23098,0.19363 0.31099,0.2964c0.10287,0.13208 0.17827,0.26321 0.36131,0.32671c0.06632,0.01658 0.10748,0.1037 0.15318,0.16243c0.25149,0.32289 0.59914,0.5634 0.88262,0.85889c0.21491,0.20741 0.46657,0.35892 0.63335,0.60747c0.10969,0.17514 0.33623,0.22588 0.45733,0.41575c0.09826,0.16051 0.20794,0.33565 0.40701,0.38542c0.05034,0.03032 0.08458,0.07433 0.11888,0.11836c0.26289,0.33758 0.57844,0.60559 0.92154,0.87452c0.07317,0.05967 0.11429,0.14673 0.17602,0.19171c0.10285,0.13207 0.20117,0.29256 0.38417,0.35603c0.03889,0.01564 0.07318,0.05966 0.09604,0.08904c0.1486,0.19078 0.29259,0.40998 0.53735,0.51846c0.20332,0.36407 0.5556,0.57623 0.82769,0.85695c0.27206,0.28075 0.5075,0.61736 0.84828,0.81487c0.10061,0.0606 0.16461,0.1771 0.23322,0.26513c-0.13289,0.13818 -0.29763,0.13246 -0.42129,0.21384c-0.56021,-0.54779 -1.11362,-1.05257 -1.65093,-1.57105c-0.5991,-0.56348 -1.17076,-1.12595 -1.75384,-1.7031c-0.54877,-0.53314 -1.11363,-1.05255 -1.67842,-1.57196c-0.69515,-0.65247 -1.3949,-1.27652 -2.07862,-1.91428c-0.51453,-0.48912 -1.02897,-0.97827 -1.55954,-1.45362c-0.80262,-0.75614 -1.55257,-1.58189 -2.38723,-2.31059c-0.10747,-0.10368 -0.24702,-0.17995 -0.30178,-0.3532c0.14429,-0.12353 0.32288,-0.20298 0.49006,-0.29714c0.10302,-0.03926 0.22446,-0.1921 0.4099,-0.22853z" fill="#87d7dc"/><path d="M260.60267,191.551c0.31384,-0.31753 0.65738,-0.56263 0.95976,-0.89483c0.33908,-0.38805 0.66673,-0.7908 0.92583,-1.28156c0.66293,0.85127 1.31442,1.68784 1.95446,2.50975c-0.05062,0.31244 -0.21337,0.54948 -0.34862,0.78755c-0.26591,0.44772 -0.61182,0.79269 -0.97378,1.15139c-0.01605,0.01373 -0.05951,0.02647 -0.087,0.02554c0.07575,-0.21158 -0.06379,-0.28779 -0.18735,-0.37778c-0.30878,-0.2249 -0.6015,-0.46354 -0.81402,-0.77083c-0.04571,-0.05874 -0.09142,-0.11742 -0.15319,-0.16238c-0.31339,-0.19651 -0.52593,-0.50379 -0.79122,-0.74145c-0.15778,-0.13406 -0.2813,-0.2239 -0.48495,-0.24532z" fill="#61afb4"/><path d="M246.91008,178.73754c0.62974,-0.39222 1.17949,-0.88718 1.77494,-1.32345c0.26794,-0.20486 0.50165,-0.45382 0.73534,-0.70275c0.45818,-0.44103 0.97804,-0.83705 1.39046,-1.33684c0.16954,-0.19402 0.3391,-0.38805 0.48122,-0.58301c0.08938,-0.12542 0.19014,-0.23618 0.30243,-0.33221c0.05033,0.03027 0.0892,0.04594 0.11206,0.07533c0.09141,0.11742 0.1829,0.23482 0.27434,0.35221c-0.04586,0.11264 -0.08717,0.19687 -0.14448,0.29485c-0.44002,0.67012 -0.89614,1.35402 -1.52149,1.88919c-0.53375,0.48124 -1.08342,0.97621 -1.66287,1.39877c-0.45578,0.34119 -0.90012,0.69699 -1.43127,0.90703c0.05728,-0.09799 0.18779,-0.13627 0.18333,-0.27922c-0.09369,-0.18887 -0.19416,-0.42083 -0.49402,-0.35988z" fill="#61aeb3"/><path d="M248.06069,179.39152c0.24973,-0.26264 0.57484,-0.3941 0.85884,-0.61275c0.58866,-0.47936 1.17733,-0.95868 1.73163,-1.48204c0.44212,-0.42728 0.82248,-0.89963 1.16398,-1.38755c0.08941,-0.12542 0.17873,-0.2508 0.2681,-0.37624c0.16004,0.20548 0.29722,0.38159 0.44578,0.5724c-0.05524,0.34079 -0.23864,0.61999 -0.46087,0.88362c-0.2589,0.31945 -0.53386,0.65258 -0.8431,0.94173c-0.67584,0.67623 -1.40418,1.25067 -2.13709,1.8535c-0.12826,0.10978 -0.25651,0.21959 -0.42591,0.24227c-0.05715,-0.0734 -0.09828,-0.16047 -0.17603,-0.19174c-0.17841,-0.09188 -0.29957,-0.28175 -0.42528,-0.44315z" fill="#61aeb3"/><path d="M260.60267,191.551c0.17625,0.0204 0.31574,0.09666 0.44608,0.22971c0.26523,0.23768 0.47782,0.54495 0.79122,0.74146c0.06174,0.04501 0.10751,0.10369 0.15319,0.1624c0.24003,0.30821 0.52131,0.53222 0.81402,0.77083c0.11207,0.0753 0.26307,0.16618 0.18733,0.37778c-0.22908,0.22052 -0.47641,0.3833 -0.74198,0.4883c-0.20815,-0.16433 -0.43228,-0.3149 -0.56023,-0.5478c-0.02286,-0.02936 -0.0732,-0.05968 -0.09606,-0.089c-0.27669,-0.25234 -0.56482,-0.51944 -0.82547,-0.78552c-0.11889,-0.11836 -0.21034,-0.23581 -0.34526,-0.34045c-0.1738,-0.12031 -0.32702,-0.28269 -0.37259,-0.51273c0.06875,-0.08328 0.13286,-0.13818 0.18558,-0.20771c0.11224,-0.09604 0.25196,-0.19118 0.36415,-0.28726z" fill="#87d7dc"/><path d="M241.77227,171.24776c0.35242,0.04081 0.61545,0.20697 0.86247,0.38698c0.06175,0.04499 0.13033,0.13305 0.16004,0.20548c0.2032,0.53542 0.4705,1.01597 0.75387,1.48274c0.01143,0.01469 0.01826,0.05774 0.01368,0.08617c-0.02983,0.09892 -0.11,0.16756 -0.22444,0.19214c-0.02288,-0.02937 -0.06179,-0.04498 -0.08463,-0.07434c-0.25823,-0.36599 -0.56465,-0.6908 -0.93975,-0.93229c-0.18527,-0.13496 -0.311,-0.29645 -0.36799,-0.54115c-0.05234,-0.27311 -0.15287,-0.50508 -0.17319,-0.80569z" fill="#cce5e6"/><path d="M242.53598,174.28729c-0.0619,0.12636 -0.13748,0.16657 -0.21987,0.1637c-0.58068,-0.67707 -0.5807,-0.67705 -1.31724,-1.07392c-0.16226,-0.27696 -0.24432,-0.62252 -0.34698,-0.92596c0.08938,-0.12542 0.17397,-0.05105 0.24033,-0.03447c0.23795,0.06538 0.46448,0.11611 0.68182,0.22364c0.13958,0.07626 0.23558,0.16531 0.29493,0.31011c0.18957,0.44928 0.40655,0.89946 0.66702,1.33693z" fill="#cce5e6"/><path d="M260.22253,191.85195c-0.05273,0.06959 -0.11686,0.1245 -0.18561,0.20773c0.04555,0.23005 0.19873,0.39245 0.37259,0.51273c0.13495,0.10464 0.22637,0.22205 0.34527,0.34044c0.26065,0.26609 0.54877,0.53314 0.82546,0.78552c0.02288,0.02937 0.07321,0.05966 0.09604,0.08902c0.15543,0.23386 0.36811,0.36978 0.56018,0.54783c-0.15111,0.08044 -0.28625,0.14717 -0.48311,0.16886c-0.36814,-0.36977 -0.77981,-0.72683 -1.14332,-1.125c-0.36814,-0.36981 -0.80038,-0.6847 -1.14329,-1.12501c0.26794,-0.20486 0.50609,-0.31085 0.75561,-0.40218z" fill="#60adb2"/><path d="M247.61189,172.36456c0.0527,-0.06954 0.0894,-0.12543 0.14211,-0.19499c0.05494,0.00189 0.08239,0.00288 0.10981,0.00383c0.25842,0.19462 0.55357,0.33338 0.86467,0.45846c0.12809,0.06158 0.21274,0.13593 0.24463,0.27981c0.07984,0.27413 0.2032,0.53538 0.13192,0.88992c-0.34097,-0.02616 -0.63609,-0.16492 -0.91515,-0.3174c-0.05033,-0.03027 -0.09143,-0.11744 -0.12112,-0.18982c-0.15767,-0.30529 -0.31532,-0.61073 -0.45684,-0.9298z" fill="#cce5e6"/><path d="M244.94465,168.45922c0.17842,0.09185 0.2951,0.13878 0.42322,0.20039c0.22875,0.12223 0.38194,0.2846 0.44577,0.5724c0.13,0.47573 0.31957,0.92499 0.6053,1.29192c0.09142,0.11742 0.08681,0.1458 -0.11701,0.29585c-0.03427,-0.04405 -0.0846,-0.07432 -0.11891,-0.11839c-0.26972,-0.38063 -0.59215,-0.69175 -0.96265,-0.96163c-0.08461,-0.07436 -0.15779,-0.13401 -0.18291,-0.2348c-0.0432,-0.32994 -0.1184,-0.63241 -0.09282,-1.04566z" fill="#cae2e3"/><path d="M244.43944,172.68265c-0.02742,-0.00097 -0.06639,-0.01659 -0.07779,-0.03126c-0.23078,-0.365 -0.54638,-0.63299 -0.8666,-0.87265c-0.29271,-0.23862 -0.50992,-0.51749 -0.56669,-0.93357c-0.02269,-0.20068 -0.1324,-0.37583 -0.11155,-0.58935c0.49653,0.08863 0.835,0.38603 0.9742,0.80496c0.18033,0.50607 0.33319,1.01114 0.68068,1.42307c0.01826,0.05777 0.06395,0.11649 -0.03222,0.19881z" fill="#c9e1e2"/><path d="M243.83369,169.43442c0.34323,0.0976 0.56736,0.24818 0.80293,0.41343c0.07318,0.05966 0.13031,0.13307 0.14395,0.21924c0.17574,0.53447 0.39496,1.05614 0.64622,1.55038c0.02288,0.02937 0.04114,0.08709 -0.05048,0.14104c-0.08,-0.10273 -0.17144,-0.22014 -0.26748,-0.30917c-0.24462,-0.27981 -0.50527,-0.5459 -0.81867,-0.74241c-0.22417,-0.15058 -0.35671,-0.35511 -0.38161,-0.62732c-0.02269,-0.20069 -0.03401,-0.38673 -0.07495,-0.6452z" fill="#c9e1e2"/><path d="M248.50759,171.35331c0.0391,-0.15573 0.11927,-0.22437 0.1994,-0.29294c0.02744,0.00098 0.06637,0.01659 0.09378,0.01755c0.21495,0.20739 0.4826,0.34522 0.7755,0.41248c0.17158,0.04881 0.27908,0.15251 0.33383,0.32579c0.0616,0.21631 0.15067,0.43361 0.16877,0.66273c-0.27923,0.01886 -0.6706,-0.03756 -0.7941,-0.12755c-0.08924,-0.04591 -0.10288,-0.13206 -0.14396,-0.2192c-0.21034,-0.23578 -0.35199,-0.55486 -0.63319,-0.77882z" fill="#cae3e4"/><path d="M243.77861,177.01508c-0.02255,-0.37204 -0.09317,-0.70293 -0.19128,-1.03479c0.07329,-0.11166 0.13748,-0.16662 0.25194,-0.1912c0.2859,0.19555 0.49383,0.53126 0.7958,0.71312c0.04552,0.23007 -0.01416,0.42789 -0.03493,0.64136c-0.01842,0.11357 -0.00936,0.2281 -0.11017,0.33886c-0.27685,-0.08101 -0.4437,-0.32959 -0.71134,-0.46739z" fill="#c8e0e1"/><path d="M245.80674,174.1296c0.15573,-0.10882 0.21748,-0.06384 0.2792,-0.01886c0.23562,0.16527 0.4597,0.31585 0.67928,0.4948c0.06175,0.045 0.10748,0.10367 0.12116,0.18985c0.01348,0.2575 0.01093,0.52873 -0.01905,0.79899c-0.14872,-0.01947 -0.23335,-0.09379 -0.35003,-0.14069c-0.35,-0.14068 -0.56038,-0.37645 -0.53482,-0.78968c0.00475,-0.19979 -0.07747,-0.37398 -0.17573,-0.53445z" fill="#cbe4e5"/><path d="M244.79662,174.9942c0.08016,-0.06863 0.12824,-0.1098 0.17634,-0.15096c0.03888,0.01564 0.08239,0.00289 0.09382,0.01753c0.15776,0.13402 0.29957,0.28173 0.45736,0.41573c0.0846,0.07438 0.12572,0.16145 0.13479,0.276c0.02715,0.34368 0.0268,0.68637 -0.02163,1.07027c-0.21509,-0.03599 -0.33398,-0.1544 -0.4529,-0.27278c-0.0457,-0.05869 -0.09144,-0.11743 -0.09367,-0.18885c0.02554,-0.41324 -0.10681,-0.78912 -0.29412,-1.16689z" fill="#c8e0e1"/><path d="M248.06069,179.39151c0.12569,0.16145 0.24685,0.35133 0.45277,0.44415c0.07779,0.03126 0.11885,0.11837 0.17602,0.19174c-0.26116,0.24795 -0.55197,0.42351 -0.8725,0.52658c-0.12794,-0.2329 -0.35207,-0.38349 -0.5213,-0.53218c0.05504,-0.16944 0.20162,-0.22146 0.27493,-0.33315c0.13289,-0.13818 0.30468,-0.26076 0.49006,-0.29716z" fill="#85d5d9"/><path d="M246.72329,168.13545c0.09129,0.28879 0.18257,0.57751 0.30129,0.86724c0.11193,0.24666 0.42304,0.3717 0.35397,0.79768c-0.38861,-0.49898 -0.84372,-0.84325 -1.29884,-1.1875c-0.04552,-0.23007 -0.08653,-0.48851 -0.02902,-0.75786c0.05494,0.00189 0.08239,0.00289 0.10983,0.00383c0.19444,0.07814 0.3729,0.17004 0.56272,0.27656z" fill="#c6dede"/><path d="M241.27345,171.08763c0.08205,0.34561 0.15731,0.64804 0.2394,0.99362c-0.19684,0.0217 -0.33641,-0.05452 -0.48512,-0.07397c-0.16016,-0.0341 -0.34101,-0.02615 -0.49196,-0.11706c-0.08,-0.10273 -0.08447,-0.24569 -0.10494,-0.37491c-0.02052,-0.12922 -0.0249,-0.27218 -0.01332,-0.42887c0.29304,-0.10405 0.55849,-0.03769 0.85599,0.00119z" fill="#cae3e3"/><path d="M241.53282,175.19487c-0.45516,-0.34425 -0.85312,-0.61512 -1.33584,-0.78894c-0.08445,-0.24574 -0.18493,-0.47768 -0.2808,-0.73801c0.2999,-0.06099 0.51723,0.04652 0.75515,0.1119c0.03888,0.01563 0.07318,0.05969 0.09603,0.08903c0.23762,0.40809 0.4753,0.81619 0.76548,1.32604z" fill="#cae3e4"/><path d="M247.92547,174.68876c-0.34324,-0.09761 -0.64294,-0.20796 -0.72722,-0.62501c-0.06381,-0.28782 -0.21922,-0.52169 -0.37463,-0.75556c-0.06858,-0.08807 0.00013,-0.17134 0.11922,-0.22433c0.15085,0.26225 0.40242,0.4138 0.65405,0.56534c0.18983,0.10653 0.26067,0.26607 0.2834,0.46681c0.02731,0.1723 0.09808,0.33184 0.0452,0.57279z" fill="#c8e0e1"/><path d="M246.91008,178.73754c0.31132,-0.04629 0.40033,0.17101 0.52145,0.36082c0.00442,0.14292 -0.1146,0.19594 -0.1833,0.27919c-0.21985,0.1637 -0.458,0.26966 -0.719,0.34627c-0.10969,-0.17514 -0.29952,-0.28173 -0.33369,-0.4971c0.06875,-0.08327 0.11687,-0.12447 0.18098,-0.17936c0.18318,-0.10789 0.36636,-0.21577 0.53357,-0.30992z" fill="#85d4d9"/><path d="M246.08674,175.72439c0.26765,0.13782 0.48034,0.27371 0.70912,0.39593c-0.01859,0.28494 -0.06459,0.56894 -0.1496,0.83732c-0.13512,0.06672 -0.23573,0.00609 -0.32955,-0.01147c-0.0938,-0.01754 -0.18762,-0.0351 -0.25156,-0.15154c-0.00883,-0.28592 0.00747,-0.6423 0.0216,-1.07022z" fill="#c7dfe0"/><path d="M249.16402,174.2892c0.00206,0.24285 0.02012,0.47192 -0.0373,0.74125c-0.2953,0.0326 -0.51256,-0.07493 -0.77342,-0.16966c-0.0249,-0.27216 -0.04984,-0.54436 -0.08619,-0.83123c0.32035,0.06826 0.58122,0.16299 0.8969,0.25964z" fill="#c8e0e1"/><path d="M241.67735,169.95928c0.21975,0.00765 0.43941,0.01529 0.64532,0.10811c0.06381,0.28782 0.11157,0.58936 0.1708,0.90555c-0.03206,0.02741 -0.06411,0.05487 -0.07558,0.04019c-0.19907,-0.04976 -0.40954,-0.11417 -0.59258,-0.17765c-0.07779,-0.03126 -0.13958,-0.07626 -0.1418,-0.1477c-0.04093,-0.25848 -0.12999,-0.47575 -0.00617,-0.72851z" fill="#c4dcdd"/><path d="M244.48475,168.31472c0.02031,0.30058 0.05665,0.58743 0.07697,0.88804c-0.16253,0.06571 -0.25395,-0.05169 -0.37066,-0.09858c-0.11665,-0.04689 -0.22879,-0.12218 -0.35687,-0.18377c-0.05698,-0.24475 0.01198,-0.49937 0.02593,-0.75597c0.25632,-0.0482 0.43479,0.04368 0.62464,0.15026z" fill="#c8e0e1"/><path d="M249.55593,173.83157c-0.04775,-0.30155 -0.10013,-0.57472 -0.15936,-0.89089c0.25179,-0.01982 0.45768,0.07305 0.69344,0.06694c0.09584,0.26036 0.0384,0.52969 0.04726,0.81558c-0.2289,0.04917 -0.41432,0.08557 -0.5813,0.00835z" fill="#c6ddde"/><path d="M249.31884,170.26768c0.35464,0.11228 0.65197,0.32253 1.03185,0.3643c0.08906,0.21729 0.1827,0.4062 0.1962,0.66371c-0.27238,0.06192 -0.48755,0.02589 -0.6269,-0.22169c-0.15761,-0.30533 -0.39544,-0.54208 -0.60119,-0.80628z" fill="#b9cfd0"/><path d="M240.47487,175.75787c-0.13048,0.03828 -0.13958,-0.07623 -0.20127,-0.12121c-0.13493,-0.10467 -0.25381,-0.22301 -0.41864,-0.22873c-0.25399,-0.05167 -0.36371,-0.2268 -0.46876,-0.43041c-0.04111,-0.08714 -0.06621,-0.18796 -0.11412,-0.31813c0.33419,-0.01697 0.60881,-0.00737 0.76184,0.32634c0.1005,0.23195 0.27653,0.42374 0.40907,0.62824c0.03427,0.04406 0.06856,0.08807 0.03193,0.14389z" fill="#c0d8d8"/><path d="M243.31534,177.99851c-0.18307,-0.06348 -0.30653,-0.15343 -0.39798,-0.27084c-0.0457,-0.05869 -0.10288,-0.13207 -0.10507,-0.20353c-0.00424,-0.3143 -0.0681,-0.60209 -0.13192,-0.88993c0.11226,-0.09601 0.14192,-0.0236 0.17623,0.02043c0.1143,0.14676 0.24002,0.30822 0.38641,0.42753c0.18065,0.16335 0.23542,0.33659 0.1551,0.57658c-0.04586,0.11264 -0.05967,0.19783 -0.08269,0.33981z" fill="#c1d9d9"/><path d="M247.92511,175.20277c0.02951,0.24374 -0.00732,0.47099 -0.02129,0.72751c-0.24492,0.06289 -0.41875,-0.05742 -0.61786,-0.10716c-0.03637,-0.28687 0.03714,-0.56989 0.07177,-0.86857c0.22653,0.05073 0.38894,0.15633 0.56737,0.24817z" fill="#c3dbdc"/><path d="M243.4578,170.04976c-0.25625,-0.1231 -0.48499,-0.24535 -0.72977,-0.35381c-0.03878,-0.18699 -0.06603,-0.35931 0.00971,-0.57088c0.23575,-0.00609 0.43018,0.07204 0.64073,0.13648c0.08443,0.2457 0.11398,0.48945 0.07936,0.78812z" fill="#c3dadb"/><path d="M247.02379,177.09927c0.05751,-0.26932 0.11033,-0.51021 0.1632,-0.75114c0.24035,-0.0345 0.43479,0.04367 0.62924,0.12182c-0.00935,0.22815 -0.05764,0.44066 -0.14939,0.6659c-0.07095,0.0118 -0.16939,0.02265 -0.22428,0.02078c-0.14874,-0.01946 -0.25397,-0.05164 -0.41881,-0.05739z" fill="#c4dbdc"/><path d="M241.83529,177.16177c0.21718,0.2789 0.38861,0.49904 0.5715,0.7338c-0.00015,0.17139 -0.03924,0.32709 -0.14926,0.49457c-0.15332,0.00894 -0.20128,-0.12123 -0.30192,-0.18187c-0.10061,-0.0606 -0.18524,-0.13497 -0.24243,-0.20833c0.04602,-0.28403 0.08286,-0.51121 0.12208,-0.83826z" fill="#c2d9da"/><path d="M240.40873,170.62918c-0.02729,-0.1723 -0.01577,-0.32896 0.03474,-0.47002c0.11685,-0.12445 0.2496,-0.09126 0.36399,-0.11585c0.11441,-0.02461 0.22206,-0.09225 0.35015,-0.03068c0.08223,0.1742 0.07287,0.40233 0.08636,0.65987c-0.13736,-0.00478 -0.27469,-0.00953 -0.40054,0.00039c-0.14874,-0.01946 -0.29747,-0.03888 -0.43482,-0.04365z" fill="#c5ddde"/><path d="M248.33218,175.4169c0.27241,-0.06188 0.48975,0.0456 0.73231,0.08258c0.03415,0.21541 -0.05984,0.36921 -0.08744,0.53958c-0.23352,0.07752 -0.44861,0.04153 -0.69122,0.00458c0.02078,-0.21344 0.0416,-0.42698 0.04636,-0.62673z" fill="#c3dbdc"/><path d="M240.4406,173.24348c-0.09846,0.0109 -0.15333,0.00899 -0.20828,0.00711c-0.12129,-0.01848 -0.25401,-0.05166 -0.40275,-0.07112c-0.04776,-0.30156 -0.14365,-0.56191 -0.09301,-0.87432c0.13512,-0.06672 0.24035,-0.03452 0.38449,0.01337c0.10731,0.27503 0.22144,0.59316 0.31959,0.925z" fill="#c7dfe0"/><path d="M245.61621,177.17889c-0.0689,0.25464 -0.05083,0.48371 -0.17005,0.70805c-0.21291,0.03542 -0.35465,-0.11226 -0.53546,-0.10429c-0.00427,-0.31433 0.06459,-0.56895 0.11066,-0.85293c0.26322,-0.00514 0.38891,0.15632 0.59486,0.24912z" fill="#c7dee0"/><path d="M247.55931,179.67395c-0.07334,0.11164 -0.21987,0.16368 -0.27495,0.33315c0.18063,0.16336 0.38874,0.32769 0.52129,0.53218c-0.0756,0.04022 -0.16715,0.09414 -0.25414,0.11968c-0.13048,0.03828 -0.25179,0.01978 -0.33182,-0.08295c-0.15318,-0.16237 -0.29493,-0.31008 -0.44812,-0.47252c0.20843,-0.17842 0.31605,-0.24603 0.78771,-0.42958z" fill="#61acb1"/><path d="M245.65255,167.58421c0.00204,0.24285 -0.0027,0.44254 -0.01669,0.69913c-0.24478,-0.10846 -0.47813,-0.20223 -0.70688,-0.32443c-0.01129,-0.18602 -0.01108,-0.35739 0.03257,-0.5415c0.26323,-0.00514 0.45766,0.07302 0.69104,0.1668z" fill="#c2dada"/><path d="M243.64692,178.25287c-0.00204,-0.24285 0.05765,-0.44069 0.11053,-0.68162c0.22417,0.15055 0.42546,0.27183 0.62676,0.39307c0.03877,0.18699 -0.03922,0.32706 -0.11034,0.51021c-0.22428,0.02078 -0.39819,-0.09952 -0.6269,-0.2217z" fill="#c1d9d9"/><path d="M243.41784,168.76311c-0.25858,-0.02327 -0.44621,-0.05836 -0.6499,-0.07971c-0.0662,-0.18795 -0.01794,-0.40048 0.03032,-0.61299c0.20141,-0.0501 0.39827,-0.07183 0.60879,-0.00739c0.08906,0.21729 -0.01418,0.42793 0.01078,0.70009z" fill="#c6dedf"/><path d="M250.10241,174.29318c-0.00937,0.22812 -0.04621,0.45536 -0.06698,0.6688c-0.15569,0.10882 -0.29765,0.13246 -0.47387,0.11206c-0.08443,-0.2457 0.01196,-0.49934 -0.00158,-0.75691c0.19005,-0.06483 0.35019,-0.03066 0.54245,-0.02402z" fill="#c0d7d7"/><path d="M239.65011,174.28697c-0.17625,-0.0204 -0.34102,-0.02617 -0.50578,-0.03186c-0.13712,-0.17613 -0.17125,-0.3915 -0.13442,-0.61867c0.16256,-0.06572 0.29986,-0.06095 0.48749,-0.02591c0.06159,0.21633 0.18271,0.40616 0.15268,0.67647z" fill="#c3dadb"/><path d="M246.39261,179.03364c-0.06413,0.0549 -0.11686,0.12446 -0.18097,0.17939c0.03415,0.21541 0.22394,0.32193 0.33369,0.4971c-0.10081,0.11072 -0.23355,0.07757 -0.35717,0.15892c-0.21271,-0.13593 -0.30181,-0.35316 -0.5626,-0.44794c0.14889,-0.15188 0.27939,-0.1902 0.42595,-0.24225c0.10302,-0.03929 0.19244,-0.16465 0.34115,-0.14523z" fill="#5aa0a4"/><path d="M251.21587,170.5763c0.06159,0.21633 0.18272,0.40622 0.15732,0.64809c-0.13512,0.06672 -0.24496,0.06287 -0.40973,0.05719c-0.09366,-0.18889 -0.15525,-0.40522 -0.16193,-0.61966c0.13514,-0.06672 0.23355,-0.07758 0.41431,-0.08554z" fill="#bdd3d4"/><path d="M248.10867,177.05128c0.04368,-0.18412 0.0713,-0.3545 0.09891,-0.52493c0.20146,-0.05008 0.37769,-0.02971 0.56529,0.00533c0.04331,0.15856 -0.04603,0.28403 -0.15826,0.38007c-0.14429,0.12354 -0.28858,0.24702 -0.50594,0.13951z" fill="#bdd4d5"/><path d="M247.48824,167.50516c0.05695,0.24473 0.10255,0.47482 0.15952,0.71952c-0.40034,-0.17097 -0.69768,-0.38122 -0.57131,-0.90518c0.15332,-0.00894 0.26082,0.09475 0.41176,0.18569z" fill="#bbd2d3"/><path d="M246.35464,177.98994c-0.17397,0.05106 -0.30671,0.01787 -0.43944,-0.01532c-0.08,-0.10273 -0.02266,-0.20073 -0.00423,-0.3143c0.01381,-0.08518 0.01617,-0.18505 0.10097,-0.28206c0.17397,-0.05106 0.28826,0.09565 0.47369,0.05926c0.00669,0.21445 -0.04836,0.38386 -0.13093,0.55237z" fill="#c3dadb"/><path d="M244.76252,172.30839c-0.17364,-0.29164 -0.34732,-0.58326 -0.45684,-0.92977c0.10764,-0.06764 0.18083,-0.00799 0.23795,0.0654c0.1646,0.17709 0.31318,0.36782 0.45035,0.54397c0.10285,0.13207 0.02955,0.24384 -0.23144,0.32039z" fill="#b1c6c7"/><path d="M251.03919,173.54037c-0.05939,-0.14481 0.00253,-0.27122 0.00954,-0.3995c-0.00206,-0.24285 0.1308,-0.38102 0.38042,-0.47231c0.06379,0.2878 -0.02576,0.5846 -0.09464,0.8392c-0.12366,0.08138 -0.19464,0.09319 -0.29529,0.03261z" fill="#bbd2d3"/><path d="M246.79669,170.32282c-0.28131,-0.22395 -0.36335,-0.56952 -0.47292,-0.91606c0.25626,0.12313 0.42764,0.34332 0.60372,0.53505c0.11893,0.11836 0.09367,0.18892 -0.13082,0.38102z" fill="#bad1d2"/><path d="M250.34023,169.76051c0.20367,0.02138 0.38449,0.01336 0.58815,0.03471c0.04109,0.0871 0.07302,0.23105 0.12098,0.36121c-0.34577,0.17364 -0.3572,0.15896 -0.48977,-0.0456c-0.07998,-0.10274 -0.14396,-0.21924 -0.2194,-0.35034z" fill="#b5cbcc"/><path d="M241.81623,168.2505c0.19462,-0.09318 0.34796,-0.10216 0.50133,-0.11109c0.05478,0.17327 -0.02782,0.34174 -0.07142,0.52584c-0.16938,0.02271 -0.32271,0.03159 -0.49208,0.05428c-0.08686,-0.14581 0.03458,-0.29865 0.06224,-0.46908z" fill="#c0d7d8"/><path d="M250.26502,171.7571c0.11906,-0.05294 0.24035,-0.03452 0.37308,-0.00134c0.10047,0.23197 0.11399,0.48948 0.07254,0.74507c-0.10081,0.11072 -0.16715,0.09415 -0.25632,0.04821c-0.06844,-0.25941 -0.13685,-0.51885 -0.18922,-0.79196z" fill="#bdd4d4"/><path d="M245.65082,167.17c-0.19907,-0.04976 -0.3935,-0.12791 -0.5926,-0.17767c0.007,-0.12831 0.06431,-0.22624 0.16048,-0.30859c0.11903,-0.05292 0.20826,-0.00706 0.31349,0.02517c0.07779,0.03126 0.15553,0.06251 0.23336,0.09378c0.02048,0.12925 0.00209,0.24285 -0.1148,0.36733z" fill="#b6cccc"/><path d="M242.26359,169.57982c-0.20366,-0.02138 -0.37987,-0.04177 -0.59959,-0.04941c-0.05256,-0.10175 -0.07305,-0.23101 0.03699,-0.39857c0.16939,-0.02273 0.3502,-0.03067 0.54702,-0.05242c0.02727,0.17229 0.05926,0.31621 0.01554,0.50035z" fill="#c1d9d9"/><path d="M246.64639,167.07609c0.02729,0.1723 0.03177,0.31525 -0.02336,0.4847c-0.20367,-0.02138 -0.35006,-0.14074 -0.48959,-0.21695c-0.05938,-0.14484 0.01396,-0.25654 0.05984,-0.36921c0.05952,-0.02648 0.0916,-0.05392 0.10304,-0.03928c0.11665,0.04692 0.23331,0.09379 0.35004,0.14071z" fill="#b7cdce"/><path d="M248.47918,167.61103c-0.25399,-0.05168 -0.35689,-0.18373 -0.49183,-0.28839c-0.1624,-0.10558 -0.11195,-0.24668 -0.05685,-0.41609c0.20367,0.02138 0.33863,0.12603 0.49419,0.18854c0.08221,0.17419 -0.04383,0.35547 0.05443,0.51596z" fill="#b6cccc"/><path d="M251.4575,171.64143c0.01128,0.18601 0.01572,0.32896 0.03161,0.48658c-0.13287,0.13819 -0.2291,0.22051 -0.39843,0.2432c-0.00667,-0.21446 -0.02934,-0.41513 -0.04063,-0.60114c0.11,-0.16753 0.24271,-0.13434 0.35034,-0.20204c0.02284,0.02935 0.06178,0.04501 0.05717,0.07339z" fill="#c2dada"/><path d="M241.1882,169.22823c0.03189,0.14391 0.01809,0.22911 -0.0392,0.32707c-0.08482,0.09703 -0.19461,0.0932 -0.30908,0.11778c-0.09843,0.01088 -0.22207,0.09224 -0.31813,0.00323c0.01159,-0.15668 0.05065,-0.31237 0.1721,-0.46526c0.18085,-0.00801 0.32955,0.01145 0.49437,0.01717z" fill="#bbd2d3"/><path d="M244.64665,178.64455c0.05508,-0.16944 0.08954,-0.29676 0.14,-0.4378c0.19226,0.00667 0.34778,0.06925 0.51944,0.11804c0.00444,0.1429 -0.02999,0.27029 -0.14226,0.3663c-0.04348,0.0128 -0.08699,0.02551 -0.12593,0.0099c-0.10983,-0.00382 -0.23115,-0.02234 -0.39134,-0.05643z" fill="#bbd2d3"/><path d="M250.76163,169.37532c-0.31816,0.00323 -0.31815,0.00322 -0.59258,-0.17767c-0.01129,-0.18603 0.10559,-0.31049 0.21559,-0.478c0.20815,0.16433 0.27654,0.42372 0.37701,0.65568z" fill="#adc2c3"/><path d="M246.78731,177.96213c-0.00444,-0.1429 0.04606,-0.284 0.14685,-0.39471c0.19226,0.00667 0.35699,0.01235 0.5332,0.03281c-0.15825,0.38005 -0.17429,0.3938 -0.68006,0.36198z" fill="#b5cbcc"/><path d="M244.53612,167.31688c-0.00011,0.17135 -0.00716,0.29961 -0.06225,0.46905c-0.18539,0.03637 -0.33636,-0.05456 -0.52401,-0.08963c-0.00221,-0.07147 0.00698,-0.12823 0.01616,-0.18505c0.00921,-0.05681 0.04587,-0.11264 0.0711,-0.18317c0.17857,-0.07949 0.32731,-0.06002 0.49895,-0.01124z" fill="#bbd1d2"/><path d="M243.14751,178.77812c-0.24034,0.03446 -0.39351,-0.12792 -0.56515,-0.17668c-0.01585,-0.15761 0.08494,-0.26838 0.13547,-0.40947c0.23794,0.06535 0.3843,0.18473 0.46193,0.38734c0.03424,0.04405 -0.00699,0.12826 -0.03224,0.1988z" fill="#b6cccd"/><path d="M239.30862,172.3045c0.03637,0.28687 0.04522,0.57275 0.07015,0.84493c-0.12368,0.08137 -0.22205,0.09225 -0.3662,0.04442c0.03459,-0.29867 0.06924,-0.59735 0.18619,-0.89314c0.05493,0.00191 0.0824,0.00286 0.10982,0.00383z" fill="#acc1c2"/><path d="M245.42556,170.51792c0.19669,0.14965 0.37736,0.31299 0.49384,0.53123c0.04111,0.08714 0.03876,0.187 -0.0414,0.2556c-0.03203,0.0274 -0.11906,0.05294 -0.13049,0.03826c-0.18748,-0.20642 -0.24669,-0.5226 -0.32195,-0.82511z" fill="#a7bbbb"/><path d="M243.60688,167.25609c0.03649,0.11552 -0.00936,0.22815 -0.07129,0.35451c-0.18085,0.00801 -0.36163,0.01597 -0.54243,0.02399c-0.02727,-0.1723 0.05747,-0.26931 0.16971,-0.36535c0.13048,-0.03828 0.29526,-0.03257 0.44404,-0.01314z" fill="#b7cdcd"/><path d="M249.40721,176.11111c-0.03413,-0.21543 0.02098,-0.38482 0.09206,-0.56799c0.16256,-0.06572 0.30449,-0.08939 0.47148,-0.01218c-0.12382,0.25275 -0.32767,0.4027 -0.56356,0.58017z" fill="#b7cece"/><path d="M241.22094,178.22563c-0.24939,-0.08006 -0.33383,-0.32577 -0.52831,-0.40387c-0.00443,-0.1429 0.07114,-0.18315 0.1375,-0.16659c0.17162,0.04879 0.33866,0.12601 0.45291,0.27278c0.01825,0.05778 0.02969,0.07245 -0.06206,0.29774z" fill="#b4cacb"/><path d="M240.02997,171.85832c-0.13046,0.03829 -0.21287,0.03545 -0.30211,-0.01047c-0.00206,-0.24285 -0.01554,-0.50035 0.11749,-0.80988c0.21034,0.23578 0.18029,0.50606 0.18464,0.82036z" fill="#b2c8c9"/><path d="M245.70439,178.42428c0.16939,-0.02273 0.29526,-0.03258 0.39591,0.02803c0.02969,0.07242 -0.00699,0.12828 -0.04369,0.18412c-0.1467,0.22337 -0.3069,0.18923 -0.50132,0.11108c0.05725,-0.09797 0.10316,-0.21063 0.14905,-0.32327z" fill="#b5cbcb"/><path d="M247.75668,169.25663c-0.16462,-0.17706 -0.29033,-0.33851 -0.37937,-0.55578c0.06875,-0.08326 0.13509,-0.06669 0.16937,-0.02268c0.09604,0.08903 0.20814,0.16432 0.30416,0.25334c0.09142,0.11742 0.05012,0.20166 -0.09415,0.32511z" fill="#91a3a3"/><path d="M241.43532,174.17768c0.24939,0.08006 0.38193,0.28458 0.51908,0.46073c0.02288,0.02937 0.01367,0.08616 -0.007,0.12829c-0.03205,0.0274 -0.10302,0.03926 -0.11447,0.02457c-0.20814,-0.1643 -0.32463,-0.38252 -0.39768,-0.61356z" fill="#99abac"/><path d="M241.05439,175.33536c-0.06653,0.15477 -0.14671,0.22337 -0.23592,0.17743c-0.11207,-0.0753 -0.19429,-0.24951 -0.27876,-0.49518c0.22655,0.0507 0.35224,0.21213 0.51462,0.31775z" fill="#93a5a6"/><path d="M250.82529,174.60396c0.00257,-0.27122 -0.02239,-0.54342 0.35768,-0.67306c0.00886,0.28591 -0.19955,0.4643 -0.35768,0.67306z" fill="#9aadad"/><path d="M248.52056,172.12485c-0.13956,-0.07627 -0.2905,-0.16716 -0.41862,-0.22875c-0.00902,-0.11457 0.02762,-0.17039 0.13528,-0.23804c0.18307,0.0635 0.23323,0.26512 0.35211,0.38348c-0.03206,0.02741 -0.04812,0.04115 -0.06875,0.08329z" fill="#c5dddd"/><path d="M243.51734,172.4936c0.29287,0.06731 0.44148,0.25813 0.52594,0.50381c0.01144,0.01466 -0.00922,0.05683 -0.04128,0.08427c-0.03669,0.05581 -0.10299,0.03928 -0.12588,0.00991c-0.14178,-0.14768 -0.23079,-0.36505 -0.35878,-0.59798z" fill="#aec2c3"/><path d="M243.55725,178.72094c0.20367,0.02138 0.36606,0.12694 0.51707,0.21789c0.00906,0.11456 -0.06653,0.15479 -0.14431,0.12354c-0.14417,-0.04787 -0.27686,-0.08104 -0.41639,-0.15731c-0.05493,-0.00191 -0.04112,-0.08707 0.04366,-0.1841z" fill="#9caeaf"/><path d="M242.51707,167.67513c-0.17862,0.07946 -0.32051,0.10308 -0.50134,0.11108c0.16271,-0.23712 0.37337,-0.34401 0.56578,-0.50867c0.01825,0.05778 0.04112,0.08713 0.03651,0.11549c-0.02983,0.09892 -0.07111,0.18313 -0.10093,0.28207z" fill="#a9bebf"/><path d="M244.21944,175.48818c0.08941,-0.12542 0.16491,-0.1656 0.2634,-0.17646c0.13031,0.13305 0.18507,0.30632 0.13907,0.59034c-0.16924,-0.14873 -0.2721,-0.28078 -0.40244,-0.41381z" fill="#b9cfd0"/><path d="M249.06461,170.55868c0.10304,-0.03924 0.16016,0.03411 0.3864,0.42755c-0.26099,0.07662 -0.33866,-0.12598 -0.48277,-0.17386c-0.00903,-0.11455 0.04372,-0.1841 0.0964,-0.25368z" fill="#869797"/><path d="M242.57813,173.34631c0.13477,0.27599 0.43911,0.358 0.35178,0.72623c-0.23563,-0.16526 -0.3567,-0.35509 -0.35178,-0.72623z" fill="#93a4a5"/><path d="M248.03032,167.82386c0.17144,0.22014 0.28576,0.36693 0.40004,0.51367c0.02288,0.02937 0.01367,0.08617 -0.03445,0.1273c-0.01606,0.01373 -0.05955,0.02649 -0.08703,0.02556c-0.16926,-0.14864 -0.29502,-0.31013 -0.27861,-0.66651z" fill="#94a5a6"/><path d="M249.56641,169.93354c0.05053,-0.14104 0.08717,-0.19689 0.21303,-0.20681c0.10747,0.10368 0.2264,0.22209 0.29258,0.41003c-0.24037,0.03446 -0.3546,-0.1123 -0.50558,-0.20319z" fill="#abbfc0"/><path d="M247.60339,166.79513c-0.05728,0.09798 -0.07796,0.14009 -0.11005,0.16756c-0.33639,-0.05452 -0.33634,-0.05454 -0.44826,-0.30118c0.22892,-0.04916 0.3432,0.09758 0.55827,0.13365z" fill="#acc0c1"/><path d="M250.48511,173.721c0.00477,-0.19979 -0.01794,-0.40047 0.00286,-0.61392c0.01381,-0.08518 0.07797,-0.14006 0.19461,-0.09317c0.00204,0.24285 -0.00732,0.47098 -0.19749,0.70712z" fill="#9fb2b2"/><path d="M244.62793,166.92022c-0.12593,0.0099 -0.20827,0.00701 -0.29747,-0.0389c-0.01369,-0.08616 0.01156,-0.15667 0.08031,-0.23998c0.10764,-0.06764 0.22892,-0.04916 0.3502,-0.03064c0.03649,0.11552 -0.04827,0.21249 -0.13303,0.30946z" fill="#aec2c3"/><path d="M246.67207,173.90267c-0.18535,0.03638 -0.26545,-0.06636 -0.36148,-0.15535c-0.03425,-0.04405 -0.00901,-0.11455 0.03908,-0.15569c0.03205,-0.0274 0.10306,-0.03929 0.12586,-0.00992c0.11665,0.04689 0.15319,0.16243 0.19652,0.32099z" fill="#91a2a3"/><path d="M241.28964,168.43213c0.01792,0.40046 0.01338,0.42886 -0.35511,0.40176c0.10542,-0.13911 0.16048,-0.30859 0.35511,-0.40176z" fill="#869696"/><path d="M240.14503,176.08913c-0.23575,0.00608 -0.25621,-0.12313 -0.32021,-0.23959c0.20144,-0.05006 0.20146,-0.05008 0.32021,0.23959z" fill="#555f5f"/><path d="M247.34148,172.66935c0.05715,0.07338 0.13713,0.17608 0.16909,0.32c-0.24717,-0.0086 -0.29287,-0.0673 -0.30876,-0.22491c-0.00683,-0.04308 0.04128,-0.08428 0.13971,-0.0951z" fill="#93a5a6"/><path d="M248.79518,167.36501c0.29748,0.0389 0.30435,0.08196 0.08204,0.34557c-0.11207,-0.0753 -0.10512,-0.20354 -0.08204,-0.34557z" fill="#8b9b9c"/><path d="M239.4083,175.86363c0.16241,0.10559 0.23778,0.23669 0.31319,0.36791c-0.0619,0.12636 -0.1329,0.13816 -0.17858,0.07945c-0.09143,-0.11739 -0.16682,-0.24853 -0.13461,-0.4473z" fill="#9aacad"/><path d="M246.39753,166.48196c0.15331,-0.00893 0.28385,-0.04722 0.35929,0.0839c0.01143,0.01469 0.00684,0.04307 -0.0092,0.0568c-0.16718,0.09415 -0.26783,0.0335 -0.35005,-0.14071z" fill="#5f6a6b"/><path d="M245.50643,174.70468c-0.0938,-0.01754 -0.13956,-0.07627 -0.16919,-0.14871c-0.00684,-0.04308 0.00237,-0.09988 0.04588,-0.11263c0.04348,-0.0128 0.09845,-0.01088 0.12127,0.01854c0.0457,0.05869 0.0754,0.13112 0.00206,0.24282z" fill="#636e6f"/><path d="M243.6393,166.88591c0.07795,-0.14006 0.16956,-0.19399 0.32512,-0.13147c-0.08257,0.16845 -0.18095,0.17934 -0.32512,0.13147z" fill="#4a5354"/></g><path d="M250.99611,189.23425c0,0 -3.89896,-1.97274 -4.53336,-4.64327c-0.54393,-2.28981 2.05395,-5.24662 3.17569,-6.17075c2.13166,-1.75605 4.32896,-3.36867 6.90659,-3.06253c0.89136,0.10588 2.6062,1.0064 3.57887,2.17945c0.6771,0.81654 2.64269,4.02069 3.36395,4.92597c2.7157,3.40854 4.8485,6.33083 2.58136,8.4998c-1.39497,1.3346 -5.22348,5.21202 -7.48253,4.71913c-2.3874,-0.52087 -7.59065,-6.44777 -7.59065,-6.44777z" data-paper-data="{&quot;index&quot;:null}" fill="#000000" stroke="#000000" stroke-width="1.2"/></g><g fill="#ff0000" fill-rule="nonzero" stroke="none" stroke-linecap="butt" stroke-linejoin="miter"><path d="M239.58378,214.93101c0.56322,1.15659 0.31424,2.64789 -0.55613,3.3309c-0.87036,0.683 -2.03252,0.29909 -2.59574,-0.8575c-0.56322,-1.15659 -0.31425,-2.64789 0.55612,-3.3309c0.87036,-0.683 2.03253,-0.29909 2.59575,0.8575z" stroke-width="none"/><path d="M243.8878,217.80555c0.51817,1.06407 0.31107,2.41884 -0.46259,3.02595c-0.77366,0.60711 -1.8209,0.2367 -2.33906,-0.82737c-0.51817,-1.06407 -0.31105,-2.41884 0.46261,-3.02596c0.77366,-0.60711 1.82088,-0.23669 2.33905,0.82738z" stroke-width="0"/><path d="M243.15527,223.59048c0.54069,1.11033 0.35186,2.5026 -0.4218,3.10972c-0.77366,0.60711 -1.83915,0.19918 -2.37985,-0.91115c-0.54069,-1.11033 -0.35186,-2.5026 0.4218,-3.10972c0.77366,-0.60711 1.83915,-0.19918 2.37984,0.91115z" stroke-width="0"/><path d="M240.32342,205.6764c-0.75531,0.21963 -1.58466,-0.51541 -1.85242,-1.6418c-0.26776,-1.12638 0.12747,-2.21755 0.88278,-2.43718c0.75531,-0.21963 1.58467,0.51542 1.85243,1.64181c0.26776,1.12638 -0.12748,2.21754 -0.88279,2.43717z" stroke-width="none"/><path d="M238.01583,209.25472c-0.69488,0.20207 -1.45114,-0.44577 -1.68915,-1.447c-0.23801,-1.00123 0.13236,-1.97669 0.82725,-2.17876c0.69488,-0.20207 1.45114,0.44577 1.68915,1.44701c0.23801,1.00123 -0.13236,1.97669 -0.82725,2.17876z" stroke-width="0"/><path d="M240.98029,210.6539c-0.78552,0.22843 -1.60721,-0.36425 -1.8353,-1.32375c-0.22809,-0.9595 0.2238,-1.92251 1.00932,-2.15094c0.78552,-0.22843 1.60721,0.36426 1.8353,1.32375c0.22809,0.9595 -0.22379,1.9225 -1.00931,2.15093z" stroke-width="0"/><path d="M229.06807,216.55801c0.28267,1.29643 -0.31265,2.5563 -1.32968,2.814c-1.01703,0.2577 -2.07064,-0.58438 -2.35331,-1.88081c-0.28267,-1.29643 0.31264,-2.55629 1.32967,-2.81399c1.01703,-0.2577 2.07065,0.58437 2.35331,1.8808z" stroke-width="none"/><path d="M232.62889,221.00626c0.26005,1.19271 -0.26198,2.34528 -1.16601,2.57435c-0.90402,0.22907 -1.84769,-0.55213 -2.10774,-1.74485c-0.26005,-1.19271 0.26198,-2.34529 1.166,-2.57436c0.90402,-0.22907 1.84769,0.55214 2.10775,1.74486z" stroke-width="0"/><path d="M231.18931,208.25723c-0.79495,-0.11785 -1.43856,-1.14081 -1.43752,-2.28483c0.00104,-1.14402 0.64632,-1.97589 1.44127,-1.85804c0.79495,0.11785 1.43855,1.14081 1.43751,2.28483c-0.00104,1.14402 -0.64631,1.97589 -1.44126,1.85804z" stroke-width="none"/><path d="M225.48986,206.79843c-0.76316,-0.11314 -1.38106,-1.02923 -1.38015,-2.04615c0.00091,-1.01692 0.62032,-1.74956 1.38348,-1.63642c0.76316,0.11314 1.38107,1.02923 1.38016,2.04615c-0.00091,1.01692 -0.62033,1.74956 -1.38349,1.63642z" stroke-width="0"/><path d="M230.66669,213.0905c-0.82675,-0.12257 -1.49625,-1.01196 -1.49537,-1.9865c0.00088,-0.97454 0.6718,-1.66521 1.49855,-1.54263c0.82675,0.12257 1.49626,1.01196 1.49538,1.9865c-0.00088,0.97454 -0.67181,1.66521 -1.49857,1.54263z" stroke-width="0"/></g></g></g></svg>