<svg version="1.1" xmlns="http://www.w3.org/2000/svg" xmlns:xlink="http://www.w3.org/1999/xlink" width="86.24011" height="120.99344" viewBox="0,0,86.24011,120.99344"><defs><linearGradient x1="204.39454" y1="162.58611" x2="182.74415" y2="168.47273" gradientUnits="userSpaceOnUse" id="color-1"><stop offset="0" stop-color="#000000"/><stop offset="1" stop-color="#000000" stop-opacity="0"/></linearGradient></defs><g transform="translate(-180.90406,-123.04091)"><g data-paper-data="{&quot;isPaintingLayer&quot;:true}" stroke-miterlimit="10" stroke-dasharray="" stroke-dashoffset="0" style="mix-blend-mode: normal"><path d="M217.92798,147.05694l-0.01148,-0.00805" data-paper-data="{&quot;index&quot;:null}" fill="#ffab19" fill-rule="nonzero" stroke="#001026" stroke-width="1.2" stroke-linecap="butt" stroke-linejoin="miter"/><path d="M232.77297,163.95389" fill="#001026" fill-rule="evenodd" stroke="none" stroke-width="1" stroke-linecap="butt" stroke-linejoin="miter"/><g stroke-linejoin="miter"><path d="M250.41961,145.96728c3.52913,12.97979 -4.60609,26.49179 -18.17057,30.1799c-13.56447,3.68811 -27.42157,-3.84427 -30.95071,-16.82408c-3.52913,-12.97979 4.60609,-26.49179 18.17057,-30.1799c13.56447,-3.68811 27.42157,3.84427 30.95071,16.82408z" fill="none" fill-rule="nonzero" stroke="#000000" stroke-width="4.5" stroke-linecap="butt"/><g><g fill-rule="nonzero" stroke-linecap="butt"><path d="M207.17254,141.41901l0.01317,0.00481" data-paper-data="{&quot;index&quot;:null}" fill="#ffab19" stroke="#000000" stroke-width="5"/><g data-paper-data="{&quot;index&quot;:null}" fill="none" stroke="none" stroke-width="1" font-family="sans-serif" font-weight="normal" font-size="12" text-anchor="start"/></g><path d="M207.17254,141.41901l0.01317,0.00481" data-paper-data="{&quot;index&quot;:null}" fill="#ffab19" fill-rule="nonzero" stroke="#000000" stroke-width="5" stroke-linecap="butt"/><path d="M225.89891,153.9017" fill="#001026" fill-rule="evenodd" stroke="#000000" stroke-width="5" stroke-linecap="butt"/><g data-paper-data="{&quot;index&quot;:null}" fill="none" fill-rule="nonzero" stroke="none" stroke-width="1" stroke-linecap="butt" font-family="sans-serif" font-weight="normal" font-size="12" text-anchor="start"/><g data-paper-data="{&quot;index&quot;:null}" fill="none" fill-rule="nonzero" stroke="none" stroke-width="1" stroke-linecap="butt" font-family="sans-serif" font-weight="normal" font-size="12" text-anchor="start"/><path d="M245.46991,125.54091c-0.95583,2.46296 -8.20397,20.01287 -8.20397,20.01287" fill="none" fill-rule="nonzero" stroke="#000000" stroke-width="5" stroke-linecap="round"/><path d="M204.30258,148.59947c0,0 -1.25496,-0.11796 -0.67497,-0.14513c2.99956,-0.14048 29.48185,-1.20398 29.48185,-1.20398" fill="none" fill-rule="nonzero" stroke="#000000" stroke-width="5" stroke-linecap="round"/></g><path d="M230.74278,147.05617l3.14702,12.46514" fill="none" fill-rule="nonzero" stroke="#000000" stroke-width="4.5" stroke-linecap="round"/><path d="M238.43241,143.27002l3.33099,13.14172" fill="none" fill-rule="nonzero" stroke="#000000" stroke-width="4.5" stroke-linecap="round"/><path d="M226.88887,178.5099l-28.4774,7.50067c0,0 -2.40916,0.30338 -2.31112,-0.6575c0.22486,-2.20338 3.633,-12.29614 3.633,-12.29614l-12.31865,-0.76796c0,0 -2.29191,-0.31348 -2.88851,-1.29041c-0.555,-0.90881 7.983,-12.93117 7.983,-12.93117c0,0 -8.92444,-1.3142 -11.60513,-2.63825c-1.05264,-0.51992 9.05499,-11.19623 16.4414,-17.0685c3.61438,-2.87348 8.47471,-7.04229 12.80936,-8.97766c7.18713,-3.20897 13.57638,-2.57119 13.57638,-2.57119" fill="none" fill-rule="nonzero" stroke="#000000" stroke-width="3" stroke-linecap="round"/><path d="M196.60729,186.50111c0,0 -0.87993,-1.2156 -0.20065,-3.40332c0.85082,-2.74018 5.15121,-7.27827 2.93573,-9.12308c-2.86992,-2.38976 -14.9178,1.36002 -14.42874,-2.75962c0.40157,-3.38272 7.91356,-11.08756 7.37007,-13.0864c-0.54227,-1.99443 -4.62021,0.4173 -7.8698,-1.5501c-4.6216,-2.79806 -2.88787,-3.27524 -2.88787,-3.27524c0,0 9.34946,-10.28579 14.20385,-14.14134c4.5545,-3.61736 14.08016,-8.32296 14.08016,-8.32296c0,0 -10.80469,17.18381 -10.74991,25.50982c0.06074,9.22953 21.88402,22.56637 21.88402,22.56637z" data-paper-data="{&quot;index&quot;:null}" fill="url(#color-1)" fill-rule="nonzero" stroke="none" stroke-width="0" stroke-linecap="butt"/></g><path d="M227.9895,176.82777c-2.4728,0.48839 -6.58217,-0.75159 -7.5467,-0.84703c-0.91938,-0.09097 -4.03858,-1.01453 -5.47736,-1.9956c-2.03686,-1.38889 -3.75187,-2.31006 -3.84755,-2.67426c-0.26955,-1.02606 20.45998,-2.73924 17.8941,-2.57475c0,0 1.65861,7.56211 -1.02249,8.09164z" fill="#ff0000" fill-rule="nonzero" stroke="#000000" stroke-width="2" stroke-linecap="butt" stroke-linejoin="miter"/><path d="M231.74472,196.65335l0.29912,-17.72264" fill="none" fill-rule="nonzero" stroke="#000000" stroke-width="6" stroke-linecap="round" stroke-linejoin="miter"/><path d="M221.20041,203.80122c0,0 -2.47455,-10.68837 -1.78495,-11.57199c1.24863,-1.59996 12.71628,-13.47308 12.71628,-13.47308c0,0 4.38914,5.35925 7.42467,7.14811c0.33885,0.19969 11.9465,1.85902 11.9465,1.85902" fill="none" fill-rule="nonzero" stroke="#000000" stroke-width="6" stroke-linecap="round" stroke-linejoin="miter"/><g fill-rule="nonzero" stroke-linecap="butt" stroke-linejoin="miter"><path d="M247.97265,188.78167c0,0 -3.37166,-1.74103 -4.54834,-4.00355c-0.97253,-1.86999 0.14149,-4.25138 0.68716,-4.92315c0.96571,-1.18881 2.21775,-1.36709 3.6746,-0.87894c1.47528,0.49433 4.43004,3.84231 4.43004,3.84231c0,0 4.45212,2.88042 5.2027,4.55256c0.53357,1.18875 0.53315,2.3128 -0.27443,3.30702c-1.2485,1.53694 -3.08523,2.89684 -5.52491,2.15874c-1.35839,-0.41098 -3.64679,-4.05498 -3.64679,-4.05498z" data-paper-data="{&quot;index&quot;:null}" fill="#000000" stroke="#000000" stroke-width="1.2"/><g data-paper-data="{&quot;index&quot;:null}" stroke="none" stroke-width="1"><path d="M245.2368,178.48355c-0.20244,0.12181 -0.34708,0.05579 -0.50165,-0.05266c-0.2293,-0.1914 -0.41364,-0.42726 -0.62787,-0.63356c-0.0824,0.0031 -0.16478,0.00613 -0.23465,0.02303c-1.50329,0.28457 -2.81065,-0.09514 -4.05511,-0.71997c-0.26186,-0.13302 -0.53875,-0.25127 -0.73802,-0.47234c-0.03735,-0.04148 -0.1022,-0.08188 -0.15714,-0.07983c-0.30208,0.01126 -0.46401,-0.16834 -0.65341,-0.34696c-0.16448,-0.15095 -0.29894,-0.33157 -0.44837,-0.4974c-0.08718,-0.09671 -0.14436,-0.22312 -0.11665,-0.38128c0.02776,-0.1581 -0.02686,-0.31318 -0.06905,-0.45437c-0.32805,-0.77322 -0.51376,-1.60888 -0.57204,-2.49211c-0.02405,-0.49893 0.04672,-0.98712 0.13254,-1.49015c0.25485,-1.48047 0.89384,-2.81811 1.80971,-4.03764c0.41788,-0.54397 0.91308,-1.03369 1.45802,-1.46816c0.41247,-0.32954 0.88217,-0.53272 1.34928,-0.70722c1.48634,-0.55526 2.93665,-0.55224 4.33628,-0.13309c0.26697,0.07573 0.51383,0.2236 0.76068,0.37148c0.16956,0.09362 0.34171,0.15864 0.5665,0.09314c0.19732,-0.06444 0.36943,0.00049 0.52398,0.10895c0.2293,0.1914 0.42858,0.41245 0.62788,0.63356c0.06228,0.0691 0.08213,0.15404 0.1019,0.23903c0.03935,0.32698 0.18116,0.57878 0.36548,0.8147c0.40851,0.48461 0.64202,1.08999 0.89055,1.68053c0.08944,0.2252 0.1639,0.46517 0.19591,0.72101c0.1183,0.82386 0.19671,1.63501 0.06532,2.49676c0.18683,0.20723 0.37112,0.44316 0.57045,0.6642c0.07472,0.08291 0.16192,0.17962 0.12171,0.32392c-0.02521,0.12946 0.06453,0.19754 0.13927,0.2804c0.48325,0.56749 0.98146,1.12018 1.4647,1.68768c1.09356,1.24455 2.19958,2.50285 3.26314,3.77705c1.03864,1.24658 2.12234,2.44858 3.19096,3.6655c0.1744,0.19343 0.30627,0.40275 0.48066,0.59614c0.847,0.93953 1.69399,1.87907 2.526,2.83345c0.14949,0.16578 0.32894,0.30194 0.37588,0.54295c0.01983,0.08496 0.0971,0.13918 0.15938,0.20829c0.62281,0.6908 1.24304,1.41032 1.86582,2.10117c0.0249,0.02763 0.06228,0.0691 0.08718,0.09671c0.21432,0.20621 0.20891,0.42063 0.08602,0.72514c-0.41874,1.0153 -1.07922,1.82534 -1.98146,2.43027c-0.23243,0.15147 -0.48977,0.27531 -0.75701,0.35669c-0.19733,0.06445 -0.35698,0.0133 -0.49654,-0.10998c-0.4187,-0.36999 -0.85239,-0.72511 -1.28354,-1.10895c-0.30405,-0.27428 -0.59055,-0.59208 -0.9396,-0.82185c-0.76291,-0.49995 -1.35828,-1.19183 -2.07621,-1.73622c-0.39633,-0.31367 -0.81023,-0.58387 -1.19157,-0.91241c-0.40622,-0.35613 -0.83001,-0.66884 -1.23881,-0.99628c-0.7403,-0.60078 -1.46303,-1.24506 -2.21832,-1.83095c-1.01457,-0.74762 -1.96918,-1.55463 -2.92375,-2.36161c-0.33153,-0.2733 -0.66299,-0.54646 -0.99452,-0.81977c-0.50848,-0.43802 -1.02932,-0.88991 -1.5377,-1.32793c-0.27915,-0.24665 -0.57582,-0.44982 -0.85494,-0.69643c-0.30663,-0.24563 -0.54325,-0.50814 -0.84732,-0.78246zM245.43746,177.91915c0.2548,-0.09518 0.48469,-0.21797 0.6922,-0.39709c0.50222,-0.26153 0.93229,-0.63456 1.36232,-1.00766c0.54754,-0.46313 1.06025,-0.99636 1.55793,-1.51476c0.57274,-0.59258 0.97589,-1.27882 1.38164,-1.99374c0.0351,-0.08702 0.07022,-0.17399 0.12287,-0.30447c-0.09964,-0.11053 -0.19931,-0.22105 -0.29893,-0.33158c-0.02489,-0.02764 -0.06483,-0.04041 -0.11719,-0.06701c-0.10503,0.10386 -0.19761,0.22158 -0.27774,0.35308c-0.14267,0.21956 -0.29531,0.39658 -0.438,0.61609c-0.37541,0.5281 -0.87792,0.94676 -1.29069,1.43341c-0.2276,0.2513 -0.43034,0.53014 -0.68287,0.75379c-0.56252,0.47798 -1.06279,1.02501 -1.67513,1.44769c-0.15998,0.10592 -0.33488,0.22674 -0.49492,0.33265c-0.13477,-0.02358 -0.22986,0.12286 -0.32985,0.1694c-0.12738,0.04757 -0.25483,0.09519 -0.40738,0.27222c0.26697,0.07574 0.3839,0.29989 0.59335,0.40635c0.0875,-0.06038 0.22221,-0.03686 0.30234,-0.16836zM246.46119,177.79528c-0.45721,0.21699 -0.55968,0.2922 -0.72987,0.51278c0.16448,0.15095 0.31652,0.28808 0.48097,0.43905c0.08718,0.09671 0.20946,0.10647 0.33692,0.05886c0.08495,-0.03172 0.15996,-0.10592 0.2449,-0.13765c0.31229,-0.12587 0.60472,-0.33678 0.83237,-0.588c0.1673,-0.03483 0.28734,-0.15347 0.40739,-0.27223c0.68766,-0.654 1.37283,-1.27938 1.9982,-2.00243c0.27522,-0.32444 0.53794,-0.6627 0.77317,-0.99993c0.17528,-0.27789 0.3655,-0.5706 0.39611,-0.91448c-0.16194,-0.17963 -0.32387,-0.35921 -0.48579,-0.53883c-0.09512,0.14633 -0.1753,0.27789 -0.24035,0.39451c-0.32052,0.52605 -0.6659,1.02447 -1.06115,1.46767c-0.5028,0.57567 -1.06792,1.08231 -1.62052,1.60276c-0.25512,0.25233 -0.5699,0.40689 -0.81254,0.67299c-0.2222,0.03687 -0.38474,0.17144 -0.51977,0.30498zM262.18514,191.33297c0.28479,-0.12485 0.50733,-0.3188 0.70491,-0.54037c0.02744,-0.001 0.06992,-0.01689 0.08495,-0.03173c0.34768,-0.36997 0.67043,-0.76762 0.88844,-1.21846c0.13281,-0.26206 0.27803,-0.51019 0.29103,-0.81056c-0.69753,-0.77377 -1.39509,-1.54742 -2.12997,-2.36266c-0.22313,0.50813 -0.52093,0.93346 -0.83123,1.34482c-0.26528,0.36694 -0.60275,0.62228 -0.89294,0.96156c-0.12002,0.11872 -0.23753,0.20882 -0.35757,0.32753c-0.24231,0.10898 -0.47475,0.26047 -0.71229,0.46923c0.37369,0.4145 0.84251,0.68263 1.22126,1.03985c0.40624,0.35617 0.8275,0.69749 1.22127,1.03983c0.22222,-0.03687 0.36719,-0.1279 0.51212,-0.21904zM259.30634,188.92689c0.1673,-0.03483 0.29983,-0.13974 0.41983,-0.25843c0.16988,-0.06344 0.2925,-0.21084 0.43996,-0.33057c0.43258,-0.40173 0.80293,-0.87251 1.13331,-1.35613c0.19025,-0.2927 0.35556,-0.61307 0.44108,-0.959c-0.04982,-0.05528 -0.08464,-0.12538 -0.13451,-0.18062c-0.61034,-0.67707 -1.20818,-1.34022 -1.80355,-2.03207c-0.6327,-0.7333 -1.25296,-1.45277 -1.88567,-2.18608c-0.93169,-1.0649 -1.83581,-2.13086 -2.76747,-3.19576c-1.02873,-1.2041 -2.09005,-2.34987 -3.08876,-3.58365c-0.15936,-0.20827 -0.36123,-0.40064 -0.54807,-0.60793c-0.11523,0.2185 -0.19051,0.44979 -0.33065,0.64067c-0.41305,0.64375 -0.91588,1.21947 -1.44359,1.76756c-0.48014,0.47486 -0.97275,0.93598 -1.4654,1.39704c-0.21999,0.16531 -0.41249,0.32954 -0.63247,0.49486c-0.19477,0.03581 -0.3049,0.19702 -0.44985,0.28812c-0.15998,0.10592 -0.3298,0.16939 -0.4674,0.33161c0.09455,0.16784 0.22424,0.24872 0.3264,0.33058c0.9,0.65195 1.69234,1.43645 2.54726,2.13289c0.54839,0.45082 1.09668,0.90168 1.66006,1.33762c0.74027,0.60079 1.48311,1.17289 2.21094,1.75982c0.60074,0.47738 1.20147,0.95486 1.78715,1.44716c0.63809,0.51891 1.24868,1.03881 1.87178,1.57253c0.57326,0.47847 1.15899,0.97071 1.75969,1.44817c0.14744,-0.11974 0.31227,-0.1259 0.41984,-0.25843zM247.62711,165.45586c-0.21801,0.45081 -0.4833,0.81776 -0.73609,1.19848c-0.26783,0.39557 -0.50819,0.79014 -0.78846,1.17187c-0.26528,0.36694 -0.57052,0.72108 -0.84827,1.07414c-0.29277,0.36795 -0.58545,0.73589 -0.90567,1.10485c-0.2902,0.33926 -0.60788,0.67957 -0.89808,1.01886c-0.31766,0.34028 -0.68515,0.62534 -0.95298,1.02095c-0.3898,0.22875 -0.67008,0.61049 -0.99763,0.90837c-0.35503,0.29884 -0.70015,0.64019 -1.05516,0.93905c-0.34001,0.28399 -0.70752,0.56907 -1.05997,0.83926c-0.3675,0.28505 -0.76979,0.49994 -1.09986,0.82645c0.26893,0.36128 0.35612,0.45799 0.70034,0.58796c0.24231,-0.10898 0.48469,-0.21799 0.7321,-0.3843c0.29246,-0.21084 0.5849,-0.42162 0.90483,-0.63354c0.59737,-0.40787 1.16726,-0.8147 1.69245,-1.33412c0.36013,-0.35618 0.7078,-0.7262 1.11777,-1.02707c0.0875,-0.06038 0.17749,-0.14943 0.24261,-0.26608c0.14268,-0.21954 0.35025,-0.39863 0.53026,-0.57676c0.66023,-0.65297 1.24571,-1.38884 1.80369,-2.12374c0.75566,-0.95649 1.39409,-1.97993 1.9951,-3.0449c0.12766,-0.2047 0.25541,-0.40939 0.26327,-0.65241c-0.15683,-0.23695 -0.35868,-0.42938 -0.64032,-0.64734zM240.08297,169.80724c0.04191,0.29835 0.14381,0.53735 0.23069,0.79115c0.06196,0.2262 0.19646,0.40683 0.40594,0.51327c0.3765,0.22873 0.72049,0.5158 1.0044,0.86226c0.02489,0.02763 0.07726,0.05425 0.08972,0.06806c0.11235,-0.03275 0.17237,-0.09214 0.21006,-0.20778c0.00256,-0.02865 -0.00736,-0.07115 -0.01983,-0.08496c-0.31622,-0.44523 -0.6024,-0.9201 -0.85859,-1.42467c-0.03481,-0.07013 -0.09454,-0.16784 -0.17439,-0.19343c-0.25932,-0.16171 -0.51862,-0.32341 -0.88809,-0.3239zM241.06336,172.78396c-0.29132,-0.41757 -0.5401,-0.85101 -0.76146,-1.2855c-0.06965,-0.14016 -0.17183,-0.22208 -0.31651,-0.28806c-0.22448,-0.09159 -0.45411,-0.12586 -0.69616,-0.17401c-0.07983,-0.02558 -0.1721,-0.06499 -0.23722,0.05168c0.13671,0.3091 0.24604,0.61922 0.41273,0.8986c0.77822,0.32799 0.77822,0.32799 1.39109,0.97635c0.08237,-0.00305 0.15489,-0.04862 0.20753,-0.17909zM245.98778,170.50104c0.16418,0.30806 0.34342,0.6013 0.52258,0.89451c0.03481,0.07013 0.06964,0.14022 0.13444,0.18063c0.30429,0.11719 0.59365,0.2492 0.93564,0.25074c0.0306,-0.34389 -0.11122,-0.59564 -0.19559,-0.87814c-0.04215,-0.14121 -0.13193,-0.20929 -0.26414,-0.26147c-0.3193,-0.10234 -0.60869,-0.23439 -0.89539,-0.39508c-0.01246,-0.01382 -0.0549,0.00202 -0.1098,0.0041c-0.03254,0.05834 -0.08016,0.13156 -0.12767,0.20471zM243.04643,166.79773c0.00423,0.414 0.10103,0.71032 0.18285,1.02143c0.04472,0.11259 0.12199,0.1668 0.19926,0.22104c0.389,0.24253 0.73293,0.52966 1.02932,0.88992c0.03735,0.04146 0.08973,0.06807 0.12711,0.1095c0.17752,-0.14943 0.19507,-0.19292 0.09542,-0.30345c-0.32388,-0.35927 -0.56021,-0.77888 -0.69668,-1.24504c-0.08435,-0.28247 -0.24883,-0.43345 -0.48577,-0.53886c-0.14724,-0.03739 -0.26698,-0.07578 -0.45156,-0.15454zM242.84649,171.04661c0.07502,-0.07421 0.04014,-0.14434 -0.00965,-0.19962c-0.34874,-0.3869 -0.56505,-0.87861 -0.78132,-1.37042c-0.18399,-0.39299 -0.53049,-0.65143 -1.0296,-0.73279c0.00705,0.22823 0.11664,0.38124 0.15372,0.57978c0.08662,0.41094 0.32326,0.67344 0.63243,0.89043c0.33405,0.24459 0.6831,0.47436 0.92716,0.80798c0.05237,0.02658 0.07987,0.02562 0.1073,0.02455zM242.84183,168.17624c-0.24941,-0.11922 -0.48379,-0.25328 -0.83309,-0.32595c0.05944,0.25484 0.08403,0.43959 0.12369,0.60948c0.05694,0.28351 0.19137,0.46411 0.42575,0.59823c0.32668,0.17347 0.60582,0.42012 0.86995,0.6816c0.10218,0.0819 0.20183,0.19241 0.289,0.28912c0.0875,-0.06038 0.06514,-0.11661 0.04022,-0.14428c-0.28624,-0.47489 -0.55738,-0.96461 -0.7561,-1.4999c-0.04727,-0.08394 -0.08209,-0.15402 -0.15937,-0.20825zM246.80852,169.42798c0.2967,0.20315 0.47587,0.4964 0.67007,0.77478c0.06227,0.06907 0.06707,0.16889 0.15936,0.20826c0.14471,0.06603 0.52403,0.10899 0.80121,0.07012c-0.01952,-0.24208 -0.13898,-0.43753 -0.21596,-0.64891c-0.0671,-0.16888 -0.18171,-0.26454 -0.35639,-0.3009c-0.29439,-0.07472 -0.55882,-0.17908 -0.80316,-0.35565c-0.01246,-0.01382 -0.06739,-0.01172 -0.09482,-0.01072c-0.0725,0.04555 -0.1325,0.10491 -0.16023,0.26306zM242.49889,175.41529c0.26439,0.10438 0.46116,0.35414 0.75814,0.40019c0.09258,-0.11769 0.07534,-0.2313 0.08554,-0.34594c0.00537,-0.21444 0.05069,-0.41604 -0.0113,-0.64223c-0.31421,-0.15971 -0.53335,-0.46568 -0.84503,-0.65398c-0.11235,0.03275 -0.18742,0.10693 -0.23752,0.20879c0.12171,0.32393 0.20099,0.66373 0.25022,1.03319zM244.31434,172.39144c0.09454,0.16784 0.18909,0.33567 0.20125,0.5066c0.03167,0.41294 0.25847,0.63302 0.59022,0.74916c0.1197,0.03838 0.19447,0.12128 0.35926,0.11516c0.02547,-0.28661 -0.00646,-0.54247 -0.03853,-0.79833c-0.00736,-0.07115 -0.05719,-0.12639 -0.13447,-0.18061c-0.2469,-0.14789 -0.46628,-0.29679 -0.71309,-0.44471c-0.03733,-0.04145 -0.11722,-0.06702 -0.26473,0.05276zM243.36896,173.32641c0.21403,0.36333 0.37309,0.72873 0.37732,1.14271c-0.00765,0.08595 0.05719,0.12637 0.10702,0.18162c0.12711,0.10952 0.26924,0.20418 0.47136,0.2395c0.0357,-0.40122 -0.00366,-0.72825 -0.05545,-1.069c-0.01726,-0.11361 -0.0645,-0.19754 -0.1543,-0.26558c-0.167,-0.12233 -0.31907,-0.25946 -0.48608,-0.38174c-0.01245,-0.01381 -0.06739,-0.01173 -0.09482,-0.01072c-0.04501,0.04451 -0.09007,0.08904 -0.16502,0.16328zM244.79724,166.34684c-0.18456,-0.07878 -0.38161,-0.17145 -0.56621,-0.25026c-0.02743,0.001 -0.05493,0.00205 -0.10981,0.00409c-0.05297,0.28759 0.00648,0.54244 0.08347,0.75381c0.49119,0.32443 0.95741,0.62121 1.38093,1.091c0.01077,-0.42884 -0.29355,-0.54596 -0.41047,-0.77011c-0.1543,-0.26558 -0.2661,-0.54703 -0.37789,-0.82845zM239.57392,169.68343c-0.2995,-0.01741 -0.56906,-0.06444 -0.86627,0.04658c0.02715,0.15607 0.01442,0.29935 0.04416,0.42678c0.02976,0.12741 0.04445,0.26969 0.13167,0.36639c0.15712,0.07981 0.33692,0.05885 0.49909,0.08137c0.16221,0.02247 0.30689,0.08853 0.48918,0.03889c-0.09429,-0.32494 -0.19108,-0.62123 -0.29778,-0.96001zM240.12809,173.76137c-0.3137,-0.47386 -0.58008,-0.86379 -0.84642,-1.25371c-0.02493,-0.02765 -0.04727,-0.08396 -0.10218,-0.0819c-0.24205,-0.04808 -0.47901,-0.15351 -0.76125,-0.05731c0.11435,0.25279 0.21628,0.49179 0.33322,0.71593c0.48156,0.12488 0.89794,0.36639 1.3767,0.67701zM246.4679,172.79666c0.04786,-0.23029 -0.04672,-0.39812 -0.08631,-0.56801c-0.03706,-0.19853 -0.11917,-0.35257 -0.3162,-0.4452c-0.26184,-0.13304 -0.52372,-0.26611 -0.69304,-0.51684c-0.12995,0.07628 -0.17754,0.14945 -0.1028,0.23233c0.17183,0.22208 0.35611,0.45803 0.428,0.72667c0.11662,0.38126 0.42352,0.46981 0.77035,0.57111zM244.70832,173.96191c0.01667,0.4278 0.01359,0.77069 0.02545,1.09869c0.08718,0.09671 0.18203,0.1075 0.26182,0.13304c0.09482,0.01074 0.19956,0.06393 0.32948,-0.01229c0.06543,-0.27382 0.09091,-0.56032 0.08897,-0.84588c-0.20692,-0.13508 -0.41643,-0.24153 -0.70575,-0.37361zM247.67448,172.30904c-0.32187,-0.0737 -0.60385,-0.13459 -0.89824,-0.20931c0.05691,0.28351 0.10134,0.55323 0.14578,0.8229c0.26697,0.07573 0.4915,0.16737 0.78362,0.11358c0.02294,-0.25789 -0.01157,-0.48512 -0.03112,-0.72715zM239.89555,168.52894c-0.10534,0.26099 0.01162,0.48513 0.0461,0.71234c0.00736,0.07115 0.08459,0.12538 0.15201,0.13713c0.21459,0.04912 0.40173,0.09929 0.60384,0.13461c0.01246,0.01382 0.04248,-0.01589 0.07252,-0.04555c-0.06933,-0.29734 -0.16618,-0.59357 -0.23551,-0.89093c-0.19955,-0.06397 -0.41924,-0.05579 -0.63895,-0.04759zM242.57741,166.68667c-0.19704,-0.0926 -0.38161,-0.17145 -0.63387,-0.10492c-0.00794,0.24309 -0.04584,0.51583 0.02858,0.75583c0.13219,0.05223 0.2344,0.13407 0.36913,0.1576c0.11969,0.03837 0.20436,0.1638 0.37676,0.07165c-0.04188,-0.29834 -0.08377,-0.59666 -0.14069,-0.88021zM248.03228,171.82442c0.17212,0.06497 0.36944,0.0005 0.57922,-0.05016c-0.02938,-0.28454 0.00849,-0.55729 -0.10581,-0.81008c-0.21972,0.00819 -0.43172,-0.06958 -0.69643,-0.01688c0.06931,0.29733 0.15367,0.57981 0.22303,0.87712zM247.53954,168.28684c0.20921,0.26355 0.49092,0.4815 0.67008,0.7748c0.15683,0.23693 0.3615,0.24354 0.6412,0.17601c-0.032,-0.25584 -0.13899,-0.43754 -0.24347,-0.64784c-0.39433,-0.02812 -0.70608,-0.21644 -1.06784,-0.30292zM239.11334,174.39903c0.04758,-0.0732 0.01019,-0.1146 -0.02715,-0.15608c-0.14692,-0.19443 -0.32133,-0.38788 -0.45324,-0.5972c-0.17666,-0.32188 -0.45127,-0.31162 -0.78334,-0.27066c0.05719,0.12643 0.08948,0.22515 0.13673,0.30906c0.10448,0.21031 0.22645,0.37713 0.49852,0.39555c0.16221,0.02249 0.30433,0.11721 0.43401,0.19802c0.03482,0.07011 0.06709,0.16885 0.19447,0.1213zM242.10768,176.42956c0.02521,-0.12944 0.02039,-0.22927 0.02804,-0.31521c0.05042,-0.25891 -0.0167,-0.42783 -0.19618,-0.56393c-0.15454,-0.10848 -0.27656,-0.27533 -0.41616,-0.39864c-0.03735,-0.04148 -0.05972,-0.09773 -0.17723,-0.00767c0.09935,0.26767 0.16874,0.56496 0.19559,0.87813c0.00735,0.07112 0.06963,0.1402 0.11945,0.19547c0.12963,0.08083 0.24686,0.14791 0.44644,0.21185zM246.50435,173.30946c-0.18456,-0.07883 -0.3666,-0.18627 -0.58376,-0.20672c-0.01302,0.30038 -0.06597,0.58797 -0.00911,0.8715c0.21461,0.04912 0.38414,0.14278 0.62395,0.06243c0.00797,-0.24308 0.04335,-0.4872 -0.0311,-0.72717zM241.67797,168.49102c0.01299,-0.30039 -0.04646,-0.55525 -0.1359,-0.78036c-0.21459,-0.04912 -0.4017,-0.09925 -0.64886,-0.09004c-0.0453,0.20164 -0.02066,0.38638 0.03141,0.57008c0.25197,0.09053 0.4889,0.19598 0.75333,0.3004zM245.7419,175.26576c0.17726,0.00767 0.28449,0.03222 0.40937,0.01327c0.0824,-0.0031 0.15232,-0.01995 0.22227,-0.03686c0.08776,-0.2175 0.13561,-0.44776 0.10107,-0.67499c-0.19955,-0.06397 -0.39916,-0.12789 -0.63641,-0.0762c-0.02293,0.25788 -0.07079,0.48821 -0.09627,0.77475zM240.57125,175.70135c-0.01556,0.32905 -0.03598,0.55827 -0.04646,0.83c0.03482,0.07011 0.13697,0.15199 0.25675,0.19036c0.10472,0.05321 0.16192,0.17958 0.31423,0.15964c0.09767,-0.17504 0.12539,-0.33314 0.11326,-0.50407c-0.21431,-0.20621 -0.40112,-0.41349 -0.63776,-0.67601zM238.67843,169.28833c0.13735,-0.00512 0.27466,-0.01023 0.41192,-0.01534c0.13733,-0.00512 0.26214,-0.02408 0.39948,-0.02918c-0.03195,-0.25585 -0.02658,-0.47029 -0.13355,-0.65193c-0.11973,-0.03837 -0.23469,0.02303 -0.3471,0.05575c-0.11235,0.03275 -0.26216,0.02409 -0.3547,0.14174c-0.00283,0.18582 -0.0306,0.34389 0.02405,0.49896zM247.66222,173.52332c-0.24459,-0.01944 -0.46911,-0.11106 -0.74884,-0.04346c-0.00536,0.2144 0.00425,0.41399 -0.00116,0.62842c0.24461,0.01943 0.44674,0.05478 0.68906,-0.05424c0.04271,-0.17296 0.11045,-0.31833 0.06088,-0.53069zM238.89833,171.89358c-0.13414,-0.33778 -0.25843,-0.63302 -0.38272,-0.92823c-0.13477,-0.02358 -0.25451,-0.06194 -0.38444,0.01432c-0.02801,0.31524 0.07131,0.58286 0.15567,0.86535c0.13479,0.02356 0.26952,0.0471 0.40681,0.04197c0.06482,0.04046 0.1073,0.02455 0.20466,0.00667zM244.34363,175.44647c-0.22708,-0.06293 -0.37653,-0.22876 -0.5962,-0.22055c-0.04047,0.30141 -0.07841,0.57414 -0.049,0.85875c0.19226,-0.00718 0.31678,0.131 0.54158,0.06552c0.08776,-0.21746 0.06571,-0.43091 0.10366,-0.70365zM243.6897,165.87407c-0.23953,-0.07674 -0.45152,-0.15454 -0.6738,-0.11768c-0.03032,0.18678 -0.03314,0.37254 0.0065,0.54246c0.23952,0.07672 0.46398,0.16834 0.7284,0.27272c-0.04696,-0.24098 -0.05661,-0.44058 -0.06111,-0.69749zM242.45671,176.65934c0.22194,0.12026 0.40398,0.2277 0.65366,0.18985c0.05774,-0.18781 0.11297,-0.34696 0.07336,-0.51687c-0.20947,-0.10643 -0.40396,-0.22768 -0.65335,-0.34694c-0.04786,0.23029 -0.0807,0.44573 -0.07364,0.67396zM241.54554,167.21069c-0.04442,-0.26967 0.04588,-0.51586 -0.06112,-0.69753c-0.21459,-0.04912 -0.40937,-0.0133 -0.6067,0.05119c-0.03284,0.21544 -0.07818,0.41708 0.01384,0.61359c0.20466,0.00665 0.39434,0.02812 0.65399,0.03273zM248.61063,172.24552c-0.19224,0.00717 -0.35445,-0.01534 -0.53934,0.06298c0.032,0.25584 -0.04588,0.51583 0.05604,0.75482c0.17724,0.0077 0.31712,-0.02609 0.46458,-0.14585c0.02041,-0.22925 0.01334,-0.4575 0.01869,-0.67189zM237.98393,172.32754c-0.18968,-0.02149 -0.31447,-0.00252 -0.45696,0.05987c-0.0054,0.21443 0.02913,0.44162 0.1786,0.60742c0.16479,-0.00614 0.32949,-0.01227 0.50677,-0.0046c-0.01697,-0.27071 -0.15143,-0.45132 -0.22843,-0.66271zM249.45385,168.45814c-0.15228,0.01993 -0.27717,0.03889 -0.37962,0.11409c0.03451,0.22719 0.09908,0.42476 0.20611,0.60639c0.14974,0.00873 0.27459,-0.01024 0.40453,-0.08647c-0.01953,-0.24207 -0.154,-0.42268 -0.23099,-0.63401zM246.82043,175.13991c0.23948,0.07675 0.37199,-0.02814 0.4946,-0.17551c0.10504,-0.10385 0.18517,-0.23541 0.13055,-0.39045c-0.18968,-0.02149 -0.36688,-0.02917 -0.56421,0.03529c-0.0303,0.18679 -0.04559,0.35872 -0.06092,0.53066zM245.51491,165.66319c-0.1571,-0.07982 -0.25671,-0.19034 -0.42406,-0.15553c-0.08835,0.53168 0.22334,0.72004 0.63495,0.86174c-0.0744,-0.24 -0.13643,-0.46621 -0.2109,-0.7062zM245.13857,176.20231c0.08527,-0.18883 0.11294,-0.34696 0.09092,-0.56035c-0.16731,0.03484 -0.30691,-0.08852 -0.47675,-0.02505c-0.07761,0.10285 -0.05776,0.1878 -0.08042,0.28858c-0.0102,0.1146 -0.06033,0.21646 0.02686,0.31319c0.13478,0.02355 0.26955,0.04707 0.43938,-0.0164zM243.14179,170.65001c0.23979,-0.08033 0.30491,-0.19701 0.20781,-0.33617c-0.14691,-0.19445 -0.32385,-0.35926 -0.48834,-0.51016c-0.04979,-0.05525 -0.12714,-0.10949 -0.24204,-0.0481c0.14918,0.32287 0.32838,0.61608 0.52253,0.8945zM249.49083,171.42725c0.10471,0.0532 0.20214,0.03529 0.30464,-0.03992c0.03799,-0.27276 0.1184,-0.56138 0.03405,-0.84387c-0.25481,0.0952 -0.36498,0.25639 -0.34543,0.49843c-0.0102,0.11462 -0.06286,0.24515 0.00678,0.38537zM245.02781,168.52324c0.21007,-0.20773 0.23014,-0.27994 0.11808,-0.40426c-0.18942,-0.17859 -0.39121,-0.37102 -0.64065,-0.49023c0.10417,0.36744 0.21092,0.70619 0.52256,0.89449zM248.52163,167.70747c0.0846,0.12536 0.17186,0.22209 0.24403,0.33363c0.15936,0.2083 0.15939,0.20827 0.49177,0.01026c-0.05721,-0.1264 -0.1118,-0.28146 -0.14664,-0.35153c-0.21971,0.00817 -0.3969,0.00052 -0.58914,0.00771zM239.91122,166.8146c-0.02779,0.15814 -0.13786,0.31934 -0.00085,0.47135c0.15229,-0.01995 0.30716,-0.06858 0.4869,-0.08956c0.03031,-0.18679 0.08809,-0.37458 0.03343,-0.52963c-0.16733,0.03486 -0.33212,0.04095 -0.51954,0.1479zM248.5904,169.7043c0.08692,0.2538 0.15875,0.5225 0.2457,0.7763c0.0923,0.03936 0.18709,0.05014 0.25221,-0.06652c0.02294,-0.2579 -0.00901,-0.51382 -0.12596,-0.73792c-0.13477,-0.02358 -0.2446,-0.01943 -0.37202,0.02818zM243.65809,165.46104c0.09258,-0.11769 0.11781,-0.24717 0.10307,-0.38945c-0.07984,-0.02559 -0.15964,-0.05118 -0.23951,-0.07675c-0.10728,-0.02457 -0.19961,-0.06393 -0.31453,-0.00254c-0.09003,0.08904 -0.14016,0.19085 -0.13785,0.31933c0.18716,0.05012 0.40172,0.09926 0.58882,0.14943zM240.45304,168.10828c0.03031,-0.18679 0.00312,-0.34288 -0.05149,-0.49793c-0.19477,0.03581 -0.37452,0.05684 -0.54182,0.0916c-0.08266,0.16021 -0.06793,0.30243 -0.00823,0.4002c0.20465,0.00666 0.40935,0.0133 0.60161,0.00618zM244.64439,165.29576c-0.11972,-0.03837 -0.23949,-0.07675 -0.37428,-0.10031c-0.02743,0.001 -0.05749,0.03071 -0.09998,0.04658c-0.02268,0.10079 -0.08776,0.2175 -0.03313,0.37255c0.14471,0.06604 0.29924,0.17446 0.50392,0.18113c0.05774,-0.18779 0.04299,-0.33006 0.00338,-0.49995zM246.51081,165.69743c-0.12199,-0.16682 0.01813,-0.35772 -0.10643,-0.49587c-0.15963,-0.05115 -0.28672,-0.16071 -0.50643,-0.15249c-0.04271,0.17296 -0.07049,0.33112 0.08662,0.4109c0.15713,0.07983 0.2542,0.21897 0.52626,0.23744zM249.83789,169.98625c-0.02714,-0.15606 -0.03935,-0.32698 -0.05405,-0.46922c0.00255,-0.02865 -0.03736,-0.04147 -0.06229,-0.06907c-0.09993,0.04657 -0.23723,0.05166 -0.33489,0.22673c0.02466,0.18472 0.0617,0.3833 0.0838,0.59669c0.15484,-0.04863 0.25735,-0.12383 0.3675,-0.28505zM239.35508,167.83502c-0.16479,0.00611 -0.34198,-0.00156 -0.47925,0.0036c-0.09767,0.17504 -0.12546,0.33315 -0.13819,0.47642c0.10222,0.08187 0.21967,-0.0082 0.3171,-0.02612c0.0974,-0.01795 0.20723,-0.02202 0.29981,-0.13972c0.03511,-0.087 0.05777,-0.18782 0.00056,-0.31424zM243.48205,176.97816c0.16221,0.02248 0.28454,0.03224 0.40681,0.04195c0.0399,0.01281 0.0974,-0.01789 0.12486,-0.01894c0.10504,-0.10385 0.13026,-0.23334 0.1155,-0.37562c-0.17468,-0.03631 -0.33436,-0.08748 -0.52653,-0.08037c-0.05265,0.13048 -0.07787,0.25997 -0.12061,0.43294zM248.91436,167.29295c-0.10188,-0.239 -0.20379,-0.47796 -0.42319,-0.62689c-0.09767,0.175 -0.2053,0.30756 -0.18066,0.4923c0.28674,0.16071 0.28678,0.16071 0.60385,0.1346zM245.56801,176.14344c0.49176,0.01027 0.50674,-0.00459 0.65227,-0.40996c-0.17728,-0.00767 -0.35696,0.01334 -0.53419,0.0056c-0.09258,0.11768 -0.11777,0.24715 -0.11809,0.40424zM242.55682,165.68773c-0.17467,-0.03635 -0.32448,-0.045 -0.49436,0.01844c-0.01754,0.04351 -0.03768,0.11567 -0.05779,0.18782c-0.00508,0.05734 0.00224,0.12848 -0.00282,0.18573c0.17468,0.03629 0.34683,0.1013 0.52914,0.05167c0.05265,-0.13048 0.05296,-0.28759 0.02575,-0.44366zM241.99638,177.21916c0.02008,-0.07214 0.04271,-0.17297 0.0204,-0.22928c-0.092,-0.19653 -0.24654,-0.30493 -0.48863,-0.35308c-0.04023,0.14429 -0.13534,0.29065 -0.10562,0.41809c0.18457,0.07882 0.3366,0.21592 0.57384,0.16425zM237.7017,171.03852c-0.02741,0.001 -0.0549,0.00205 -0.10983,0.0041c-0.09541,0.30349 -0.10846,0.60384 -0.12145,0.90423c0.13218,0.05222 0.22961,0.03426 0.36206,-0.07062c-0.04442,-0.26967 -0.07391,-0.55416 -0.13077,-0.83772zM243.6743,168.81649c0.0968,0.29628 0.16619,0.59358 0.39293,0.81364c0.01246,0.01382 0.0974,-0.01793 0.12739,-0.04759c0.07501,-0.07422 0.08521,-0.18882 0.02288,-0.25787c-0.1169,-0.22414 -0.30884,-0.37409 -0.54322,-0.50815zM241.62568,165.69395c-0.14974,-0.00873 -0.29954,-0.01744 -0.45439,0.03119c-0.10503,0.10386 -0.15515,0.20571 -0.143,0.3766c0.1798,-0.02099 0.372,-0.02812 0.53929,-0.0629c0.06507,-0.11664 0.08775,-0.21746 0.05802,-0.34493zM248.04813,174.10873c0.22252,-0.19395 0.41505,-0.35821 0.50791,-0.63299c-0.15712,-0.07981 -0.31194,-0.03123 -0.46938,0.04606c-0.0453,0.20162 -0.08806,0.37457 -0.03851,0.58697zM240.03506,176.80669c0.06033,-0.21647 0.0629,-0.2451 0.02552,-0.28657c-0.10952,-0.153 -0.2967,-0.20317 -0.47136,-0.2395c-0.06734,-0.01176 -0.15486,0.04866 -0.12514,0.17608c0.20215,0.03534 0.30405,0.27434 0.57101,0.34999zM238.38911,170.54165c-0.0294,-0.28454 -0.0314,-0.57009 -0.22815,-0.81976c-0.12287,0.30447 -0.07841,0.57417 -0.05891,0.81619c0.07728,0.05424 0.14719,0.03734 0.28704,0.00352zM244.52109,176.68234c-0.03764,0.11565 -0.08774,0.21747 -0.12538,0.33314c0.18715,0.05017 0.36435,0.05781 0.49204,-0.14689c0.03256,-0.05835 0.06509,-0.11664 0.03032,-0.18678c-0.10471,-0.0532 -0.22962,-0.03428 -0.3969,0.00053zM245.90863,167.39081c0.13503,-0.13359 0.17018,-0.22053 0.05552,-0.31622c-0.10221,-0.08189 -0.20438,-0.16378 -0.32161,-0.23079c-0.05237,-0.02657 -0.11979,-0.03839 -0.16733,0.0348c0.10446,0.21032 0.24148,0.36227 0.43342,0.51221zM239.9577,172.75376c0.1019,0.23904 0.23385,0.44829 0.44077,0.58338c0.01246,0.01382 0.09737,-0.01795 0.11236,-0.03276c0.03,-0.02966 0.02268,-0.10083 -0.00226,-0.12844c-0.17691,-0.16478 -0.2964,-0.36028 -0.55093,-0.4222zM239.66087,173.93593c-0.16957,-0.09365 -0.30661,-0.24564 -0.53361,-0.30862c0.08691,0.25378 0.19394,0.43546 0.31369,0.47386c0.10475,0.05321 0.1648,-0.00613 0.21996,-0.16529zM249.35401,172.50345c0.14267,-0.21956 0.35278,-0.42736 0.30833,-0.69705c-0.36971,0.15661 -0.32526,0.42627 -0.30833,0.69705zM246.87693,170.1966c0.02999,-0.02967 0.03261,-0.05841 0.06259,-0.08802c-0.13954,-0.12331 -0.19167,-0.30701 -0.37878,-0.35716c-0.10248,0.07523 -0.13505,0.13358 -0.11777,0.24718c0.13219,0.05221 0.27687,0.11821 0.434,0.19802zM241.91311,170.92429c0.12939,0.23794 0.2364,0.41961 0.40085,0.57059c0.02493,0.02765 0.07981,0.02562 0.12483,-0.01892c0.01503,-0.01485 0.03259,-0.05833 0.03512,-0.08702c-0.10188,-0.239 -0.25139,-0.40476 -0.5608,-0.46465zM242.40093,177.13268c-0.06511,0.11663 -0.08521,0.1888 -0.01781,0.20058c0.13219,0.05221 0.27942,0.08951 0.42665,0.1269c0.09482,0.01074 0.13984,-0.03373 0.13505,-0.13356c-0.18202,-0.1075 -0.33917,-0.18732 -0.54382,-0.19396zM240.56882,166.19028c0.02268,-0.10083 0.05774,-0.18782 0.08041,-0.2886c0.00256,-0.02865 -0.02235,-0.0563 -0.04469,-0.11258c-0.18007,0.17805 -0.38245,0.29982 -0.52772,0.54805c0.1798,-0.02099 0.30464,-0.0399 0.49205,-0.14688zM242.82885,173.86063c0.13958,0.12335 0.26668,0.23285 0.43114,0.38381c0.02547,-0.2866 -0.04159,-0.45544 -0.18115,-0.57877c-0.1124,0.03275 -0.16985,0.06345 -0.25,0.19495zM247.22892,168.85537c0.14724,0.0374 0.25418,0.21901 0.494,0.13866c-0.25395,-0.37611 -0.31622,-0.4452 -0.41618,-0.39863c-0.07501,0.07422 -0.09514,0.14637 -0.07787,0.25997zM241.03766,171.84237c0.00676,0.38535 0.15627,0.55114 0.4031,0.69903c0.06059,-0.37359 -0.23385,-0.44822 -0.4031,-0.69903zM246.07858,165.94203c0.00932,0.35666 0.14637,0.50871 0.32584,0.6448c0.01246,0.0138 0.05492,-0.00209 0.08493,-0.03174c0.04504,-0.04451 0.05008,-0.10186 0.0252,-0.12946c-0.10952,-0.153 -0.24909,-0.27633 -0.43594,-0.48358zM247.76232,167.93574c0.1571,0.07982 0.2967,0.20315 0.53387,0.15145c-0.07955,-0.18271 -0.20666,-0.29217 -0.32131,-0.38788c-0.12739,0.04758 -0.17493,0.12076 -0.21261,0.2364zM245.57858,164.94668c-0.21716,-0.02046 -0.35415,-0.17244 -0.55404,-0.07933c0.12939,0.23795 0.12939,0.23794 0.4688,0.26816c0.01754,-0.04351 0.0351,-0.08702 0.08524,-0.18883zM248.95125,171.64729c0.17266,-0.24922 0.16563,-0.47743 0.13108,-0.70465c-0.11972,-0.03837 -0.17977,0.02098 -0.18739,0.10692c0.02465,0.18473 0.03423,0.38436 0.05635,0.59769zM242.61995,165.2855c0.07761,-0.10285 0.14016,-0.19085 0.11043,-0.31823c-0.1223,-0.00972 -0.24462,-0.01948 -0.34707,0.05576c-0.06256,0.08801 -0.08265,0.16018 -0.06284,0.24512c0.09231,0.03936 0.17467,0.03635 0.29951,0.01738zM245.16105,172.10283c-0.0546,-0.15503 -0.09936,-0.26767 -0.2041,-0.32087c-0.0399,-0.01281 -0.08238,0.00304 -0.12485,0.01894c-0.04501,0.04451 -0.08014,0.13152 -0.02776,0.15811c0.07475,0.08291 0.16195,0.17962 0.35676,0.14381zM239.39905,167.03363c-0.17244,0.09212 -0.23017,0.27993 -0.32529,0.42628c0.342,0.00153 0.37199,-0.02818 0.32529,-0.42628zM238.80825,174.75315c-0.12682,-0.26662 -0.12683,-0.26661 -0.33662,-0.21594c0.04473,0.11258 0.10194,0.23902 0.33662,0.21594zM245.73993,170.82447c-0.09739,0.01796 -0.1424,0.06242 -0.13249,0.10488c0.02468,0.18473 0.077,0.21136 0.32416,0.20214c-0.04214,-0.14124 -0.11689,-0.22419 -0.19164,-0.30706zM246.80834,165.42932c-0.01271,0.14332 -0.01047,0.27173 0.10668,0.33876c0.20266,-0.27891 0.19283,-0.32131 -0.10668,-0.33876zM238.05718,174.58124c-0.00283,0.1858 0.0818,0.31113 0.15396,0.42266c0.0498,0.05527 0.13221,0.05221 0.17246,-0.0921c-0.07221,-0.1115 -0.15684,-0.23697 -0.3264,-0.33058zM244.35338,164.72106c0.09455,0.16784 0.20185,0.19245 0.34684,0.10135c0,0 0.01756,-0.04349 0.00508,-0.05734c-0.05973,-0.09775 -0.19955,-0.06398 -0.35191,-0.04405zM244.0561,172.98658c0.06508,-0.11665 0.04528,-0.20166 -0.01953,-0.24204c-0.02491,-0.02763 -0.07985,-0.02558 -0.12229,-0.00974c-0.04245,0.0159 -0.06255,0.08802 -0.03762,0.11564c0.02236,0.05632 0.07216,0.11155 0.17946,0.13613zM241.63133,165.32238c0.14724,0.03739 0.24459,0.0195 0.31481,-0.15451c-0.1747,-0.03632 -0.25959,-0.0046 -0.31481,0.15451z" fill="#000000"/><path d="M248.26044,178.02808c0.49261,-0.46106 0.98527,-0.92216 1.4654,-1.3971c0.54019,-0.53427 1.0305,-1.12379 1.4436,-1.76754c0.12767,-0.20471 0.20044,-0.40732 0.33068,-0.64065c0.19932,0.22111 0.38872,0.39962 0.54806,0.60791c0.98628,1.21998 2.06001,2.37954 3.08875,3.58365c0.91662,1.07976 1.8358,2.13085 2.76748,3.19575c0.63272,0.73331 1.25297,1.45282 1.88562,2.18612c0.59535,0.69188 1.20822,1.3402 1.80356,2.03205c0.04982,0.05528 0.09965,0.11054 0.13448,0.18064c-0.07303,0.35974 -0.23586,0.65142 -0.44108,0.95899c-0.3304,0.48361 -0.70072,0.95439 -1.1333,1.3561c-0.13503,0.13359 -0.25762,0.28096 -0.43992,0.33058c0.11013,-0.16119 0.29752,-0.26814 0.40034,-0.50048c-0.30428,-0.11719 -0.47103,-0.39657 -0.68535,-0.60282c-0.01246,-0.01382 -0.02487,-0.02764 -0.0399,-0.01279c-0.45633,-0.25436 -0.81756,-0.65504 -1.24135,-0.96771c-0.15455,-0.10849 -0.35417,-0.17241 -0.44872,-0.34027c-0.21911,-0.30603 -0.59081,-0.43495 -0.80996,-0.741c-0.01246,-0.0138 -0.05237,-0.0266 -0.07729,-0.05424c-0.28167,-0.21798 -0.56587,-0.40733 -0.81754,-0.655c-0.27406,-0.30396 -0.64321,-0.4616 -0.88723,-0.79524c-0.25193,-0.09057 -0.38386,-0.29991 -0.57324,-0.47849c-0.02493,-0.02765 -0.03738,-0.04147 -0.06228,-0.06908c-0.36917,-0.15761 -0.57073,-0.50711 -0.87987,-0.72411c-0.3091,-0.21697 -0.5407,-0.5368 -0.83483,-0.76861c-0.33153,-0.2733 -0.69559,-0.48814 -0.94948,-0.86431c-0.02493,-0.02765 -0.06227,-0.06911 -0.10219,-0.08188c-0.22707,-0.06292 -0.33151,-0.27328 -0.49595,-0.42426c-0.07474,-0.08291 -0.14689,-0.19445 -0.25167,-0.24767c-0.1721,-0.06501 -0.25675,-0.19035 -0.36887,-0.3147c-0.06226,-0.06907 -0.10955,-0.15303 -0.18935,-0.17859c-0.25197,-0.09053 -0.39632,-0.31366 -0.55825,-0.4933c-0.06228,-0.0691 -0.10956,-0.15301 -0.1894,-0.17862c-0.21202,-0.07781 -0.33405,-0.24459 -0.47104,-0.39661c-0.22426,-0.24871 -0.55342,-0.39353 -0.76262,-0.65704c-0.02237,-0.05627 -0.10473,-0.05325 -0.15711,-0.07982z" fill="#87d7dc"/><path d="M248.26053,178.02816c0.05237,0.02663 0.13477,0.02355 0.17213,0.06497c0.20922,0.26354 0.52342,0.42319 0.76263,0.65705c0.137,0.15201 0.25905,0.31883 0.47107,0.39663c0.07985,0.02556 0.12709,0.10952 0.18939,0.17855c0.16193,0.17959 0.32131,0.3879 0.55823,0.49333c0.07984,0.02558 0.11211,0.12435 0.18939,0.17857c0.1121,0.12434 0.21176,0.2349 0.36888,0.31473c0.10471,0.0532 0.17693,0.1648 0.25168,0.24768c0.16448,0.15095 0.26895,0.36132 0.49598,0.42424c0.03991,0.01283 0.0773,0.05427 0.10219,0.08189c0.24147,0.3623 0.61801,0.59109 0.94948,0.86432c0.3066,0.24565 0.53814,0.56546 0.83482,0.76862c0.30911,0.21694 0.51073,0.56646 0.87984,0.72409c0.02741,-0.001 0.03736,0.04148 0.06227,0.0691c0.16193,0.17959 0.32132,0.38786 0.57329,0.47847c0.22899,0.3485 0.59818,0.50607 0.88717,0.79523c0.23666,0.26251 0.53591,0.437 0.81755,0.65502c0.02493,0.02765 0.05242,0.02659 0.07731,0.05425c0.21911,0.30603 0.5908,0.43495 0.80995,0.74101c0.12201,0.1668 0.30913,0.21698 0.44868,0.34027c0.40876,0.32751 0.78502,0.71335 1.24134,0.96771c0.01246,0.01382 0.03993,0.01279 0.03993,0.01279c0.21431,0.20623 0.38103,0.48567 0.68538,0.60283c-0.08775,0.21748 -0.28766,0.31062 -0.40035,0.50051c-0.12002,0.11872 -0.24008,0.23738 -0.4199,0.25839c-0.07475,-0.08291 -0.1469,-0.19443 -0.25165,-0.24765c-0.36658,-0.18624 -0.61318,-0.49128 -0.90476,-0.75177c-0.29154,-0.26044 -0.65821,-0.44671 -0.8872,-0.79519c-0.25197,-0.09053 -0.3839,-0.29986 -0.57327,-0.47846c-0.02491,-0.02763 -0.06228,-0.06906 -0.10223,-0.08188c-0.18715,-0.05017 -0.28162,-0.21799 -0.40881,-0.32753c-0.06228,-0.06909 -0.12459,-0.13811 -0.18936,-0.17858c-0.34906,-0.22977 -0.69556,-0.48816 -0.98204,-0.80595c-0.03735,-0.04148 -0.07218,-0.11162 -0.12711,-0.10951c-0.19956,-0.06395 -0.30914,-0.21694 -0.43371,-0.35511c-0.12201,-0.1668 -0.35159,-0.20111 -0.48604,-0.38177c-0.18427,-0.23592 -0.44616,-0.36894 -0.67544,-0.56033c-0.30404,-0.27427 -0.65563,-0.47539 -0.94211,-0.79317c-0.04982,-0.05529 -0.09712,-0.13918 -0.16448,-0.15095c-0.15964,-0.05122 -0.25676,-0.19033 -0.38386,-0.29987c-0.09964,-0.11051 -0.21429,-0.20623 -0.3315,-0.27329c-0.22194,-0.12028 -0.41388,-0.27021 -0.58828,-0.46358c-0.27655,-0.27532 -0.64322,-0.46157 -0.87221,-0.81005c-0.02493,-0.02765 -0.07727,-0.05428 -0.10219,-0.08189c-0.30663,-0.24564 -0.6282,-0.4764 -0.90473,-0.75174c-0.27405,-0.30392 -0.66813,-0.48922 -0.91212,-0.82287c-0.03736,-0.04147 -0.10473,-0.0532 -0.15711,-0.07981c-0.19192,-0.14994 -0.38133,-0.32851 -0.49822,-0.55266c0.06259,-0.08801 0.12258,-0.1474 0.17019,-0.22056c0.24747,-0.16633 0.4524,-0.31677 0.65995,-0.49588z" fill="#b0eef2"/><path d="M247.62711,165.45582c0.28163,0.21798 0.4835,0.41044 0.61033,0.67706c-0.02039,0.22926 -0.14806,0.43398 -0.26327,0.65244c-0.61353,1.05109 -1.23949,2.08839 -1.99512,3.04487c-0.57052,0.72104 -1.15597,1.45699 -1.8037,2.12374c-0.18006,0.17806 -0.38757,0.35719 -0.5303,0.57673c-0.06254,0.08803 -0.15261,0.17705 -0.24263,0.26608c-0.40994,0.3009 -0.74513,0.68469 -1.11773,1.02709c-0.52266,0.4908 -1.09507,0.92627 -1.69243,1.3341c-0.30491,0.19704 -0.59737,0.40788 -0.9048,0.63357c-0.23496,0.18008 -0.48977,0.2753 -0.73213,0.38433c-0.32924,-0.14483 -0.4314,-0.22667 -0.70034,-0.58796c0.3425,-0.31268 0.7324,-0.54142 1.09987,-0.82645c0.35247,-0.2702 0.71992,-0.55523 1.05996,-0.83925c0.35504,-0.29884 0.71262,-0.62639 1.05518,-0.93905c0.34001,-0.28399 0.62026,-0.66577 0.9977,-0.90836c0.26783,-0.3956 0.63532,-0.6806 0.95296,-1.02093c0.30266,-0.32548 0.60785,-0.67958 0.89803,-1.0189c0.30522,-0.35415 0.59793,-0.72206 0.90572,-1.10484c0.27772,-0.35309 0.58296,-0.70722 0.84824,-1.07417c0.28028,-0.38176 0.52066,-0.77629 0.78852,-1.1719c0.2828,-0.41042 0.5481,-0.77731 0.7661,-1.22818z" fill="#d1eaeb"/><path d="M247.62809,178.52293c-0.04757,0.07319 -0.10758,0.13255 -0.17013,0.22056c0.11691,0.22413 0.27883,0.40375 0.49824,0.55264c0.05238,0.02663 0.11973,0.03837 0.1571,0.07982c0.24399,0.33364 0.62313,0.53375 0.91213,0.82288c0.26157,0.29015 0.59814,0.50609 0.90472,0.75177c0.02491,0.02763 0.0773,0.05427 0.1022,0.08188c0.22898,0.3485 0.59814,0.50609 0.87219,0.81008c0.16194,0.17958 0.36633,0.34336 0.58832,0.46361c0.1296,0.08083 0.24431,0.17651 0.3315,0.27326c0.1121,0.12434 0.19674,0.2497 0.38388,0.29987c0.06733,0.01177 0.11466,0.0957 0.16446,0.15099c0.27406,0.30396 0.63811,0.51884 0.94213,0.79316c0.22928,0.19141 0.49119,0.32443 0.67542,0.56034c0.12201,0.1668 0.3516,0.20111 0.48604,0.38177c0.10955,0.15303 0.23156,0.31981 0.43368,0.35515c0.05238,0.02663 0.08971,0.06806 0.1271,0.1095c0.28649,0.31779 0.6205,0.56241 0.98205,0.80595c0.07727,0.05424 0.12455,0.13812 0.18936,0.17855c0.11208,0.12432 0.22169,0.27734 0.40879,0.32747c0.03992,0.01281 0.07728,0.05424 0.10219,0.08189c0.16193,0.17959 0.32132,0.38787 0.57327,0.47846c0.22898,0.3485 0.59562,0.53476 0.8872,0.79519c0.29155,0.26045 0.55059,0.57926 0.90472,0.75174c0.10471,0.0532 0.17693,0.16479 0.25169,0.24766c-0.1226,0.14738 -0.28733,0.15352 -0.40482,0.2436c-0.59816,-0.50607 -1.18645,-0.96973 -1.75968,-1.4482c-0.63809,-0.51891 -1.24873,-1.0388 -1.87181,-1.5725c-0.5857,-0.49229 -1.18648,-0.9697 -1.78715,-1.44715c-0.74028,-0.60078 -1.48312,-1.17286 -2.21095,-1.75978c-0.54839,-0.45083 -1.09669,-0.90171 -1.66008,-1.33767c-0.85495,-0.69644 -1.66234,-1.46609 -2.54727,-2.13285c-0.11465,-0.09567 -0.25932,-0.16171 -0.3264,-0.33057c0.13503,-0.13359 0.30743,-0.22568 0.46741,-0.33162c0.09993,-0.04657 0.21007,-0.20776 0.3924,-0.25742z" fill="#87d7dc"/><path d="M260.32525,188.70322c0.29019,-0.33929 0.6152,-0.60847 0.8929,-0.96156c0.3103,-0.41143 0.60811,-0.83671 0.83124,-1.34484c0.72246,0.80137 1.43244,1.58891 2.12995,2.36264c-0.02801,0.31527 -0.17329,0.56341 -0.29106,0.81059c-0.23302,0.4657 -0.55321,0.83465 -0.88843,1.21847c-0.01502,0.01485 -0.05745,0.03069 -0.08494,0.03173c0.06034,-0.21648 -0.08433,-0.28247 -0.21404,-0.36333c-0.32416,-0.20211 -0.63328,-0.41907 -0.86737,-0.71027c-0.04982,-0.0553 -0.09964,-0.11053 -0.16448,-0.15094c-0.32672,-0.17346 -0.5608,-0.46465 -0.84251,-0.68261c-0.16701,-0.12236 -0.29667,-0.20308 -0.50133,-0.20979z" fill="#61afb4"/><path d="M245.74629,176.908c0.59989,-0.43651 1.11261,-0.96974 1.67513,-1.4477c0.25251,-0.22361 0.46771,-0.48874 0.68288,-0.75384c0.42526,-0.47284 0.91528,-0.90524 1.29069,-1.43341c0.15515,-0.20571 0.31032,-0.41144 0.43803,-0.61612c0.08013,-0.13154 0.17266,-0.24925 0.27774,-0.35311c0.05237,0.02657 0.09227,0.03941 0.11719,0.06707c0.09963,0.11053 0.19931,0.22105 0.29898,0.33156c-0.03764,0.11565 -0.07279,0.20263 -0.12289,0.30448c-0.39067,0.70003 -0.79642,1.41498 -1.38165,1.99376c-0.49775,0.5184 -1.01038,1.05161 -1.55792,1.51478c-0.43006,0.37309 -0.84764,0.75994 -1.36231,1.00765c0.05008,-0.10186 0.1775,-0.14943 0.16277,-0.29169c-0.10704,-0.18165 -0.22394,-0.40578 -0.51864,-0.32341z" fill="#61aeb3"/><path d="M246.94096,177.4775c0.23018,-0.27992 0.545,-0.43442 0.81253,-0.67294c0.55265,-0.52047 1.10531,-1.04089 1.62052,-1.60278c0.41023,-0.45798 0.75563,-0.95647 1.06114,-1.46769c0.08015,-0.13153 0.16022,-0.26301 0.24034,-0.39455c0.1744,0.19343 0.32389,0.35921 0.4858,0.53885c-0.03059,0.34387 -0.19342,0.63556 -0.39611,0.91448c-0.23525,0.33725 -0.48553,0.68929 -0.77317,0.99994c-0.62543,0.7231 -1.31055,1.34845 -1.99821,2.00244c-0.12002,0.11872 -0.24005,0.23747 -0.40738,0.27228c-0.06228,-0.0691 -0.10956,-0.15299 -0.18936,-0.17857c-0.18457,-0.07881 -0.31908,-0.25946 -0.45605,-0.4114z" fill="#61aeb3"/><path d="M260.32525,188.70322c0.17726,0.00767 0.32187,0.07369 0.46145,0.19702c0.28164,0.21798 0.51578,0.50918 0.84251,0.68262c0.06482,0.04045 0.11468,0.09569 0.16448,0.15096c0.26159,0.29015 0.55825,0.49334 0.86737,0.71027c0.1172,0.06705 0.27435,0.14683 0.21402,0.36333c-0.21262,0.23642 -0.44759,0.41658 -0.70493,0.54041c-0.21944,-0.14892 -0.45382,-0.28299 -0.59818,-0.50608c-0.02491,-0.02763 -0.0773,-0.05426 -0.10221,-0.08187c-0.29412,-0.23179 -0.60072,-0.47746 -0.87984,-0.7241c-0.12711,-0.1095 -0.22677,-0.22006 -0.36887,-0.31473c-0.18201,-0.10749 -0.34651,-0.25843 -0.40852,-0.4846c0.06258,-0.08802 0.12257,-0.14738 0.17015,-0.22053c0.10504,-0.10386 0.23755,-0.20881 0.34253,-0.3127z" fill="#87d7dc"/><path d="M240.08289,169.80726c0.35445,0.01535 0.62874,0.16216 0.88808,0.32394c0.06483,0.04043 0.13957,0.12334 0.1744,0.19343c0.24119,0.51942 0.54236,0.97948 0.85859,1.42467c0.01246,0.01382 0.02236,0.05628 0.01985,0.08497c-0.02264,0.10081 -0.09766,0.17504 -0.21003,0.20779c-0.02493,-0.02765 -0.06486,-0.04042 -0.08976,-0.06806c-0.28389,-0.34645 -0.61287,-0.64839 -1.00438,-0.86228c-0.1945,-0.12129 -0.33153,-0.27329 -0.40597,-0.51327c-0.07186,-0.26864 -0.18881,-0.49277 -0.23071,-0.79114z" fill="#cce5e6"/><path d="M241.06336,172.78396c-0.05265,0.13048 -0.12514,0.17603 -0.20752,0.1791c-0.62789,-0.63354 -0.62791,-0.63352 -1.39108,-0.97637c-0.18176,-0.26457 -0.28847,-0.60333 -0.4127,-0.89861c0.08013,-0.13154 0.16985,-0.06344 0.23722,-0.05167c0.24203,0.04809 0.47163,0.08239 0.69614,0.17401c0.14471,0.06603 0.24686,0.14794 0.31647,0.28809c0.2214,0.43449 0.4702,0.86789 0.76147,1.28548z" fill="#cce5e6"/><path d="M259.9677,189.03074c-0.04758,0.0732 -0.1076,0.13258 -0.17019,0.22055c0.06198,0.22618 0.22645,0.37714 0.40852,0.4846c0.14212,0.09467 0.24176,0.20519 0.36888,0.31472c0.27913,0.24665 0.5857,0.49229 0.87983,0.72411c0.02493,0.02765 0.07731,0.05425 0.1022,0.08187c0.17185,0.22207 0.39377,0.34235 0.59814,0.5061c-0.14494,0.0911 -0.27492,0.16737 -0.46971,0.20318c-0.39379,-0.34232 -0.83007,-0.66885 -1.2213,-1.03983c-0.39378,-0.34237 -0.84756,-0.62534 -1.22127,-1.03984c0.25251,-0.22361 0.48241,-0.34645 0.72471,-0.45549z" fill="#60adb2"/><path d="M245.98778,170.50104c0.04756,-0.07315 0.08015,-0.13154 0.12771,-0.20471c0.05494,-0.00207 0.08238,-0.00306 0.1098,-0.00408c0.27176,0.17552 0.57613,0.2927 0.89541,0.39506c0.13219,0.05221 0.22197,0.12027 0.26412,0.26148c0.09935,0.26767 0.24119,0.51938 0.1956,0.87812c-0.34196,-0.00156 -0.64631,-0.11873 -0.93561,-0.25074c-0.05237,-0.02657 -0.09963,-0.11055 -0.13445,-0.18062c-0.17922,-0.29316 -0.35843,-0.58647 -0.52256,-0.89452z" fill="#cce5e6"/><path d="M243.04652,166.7977c0.18456,0.07877 0.30431,0.11719 0.43654,0.16941c0.23694,0.10545 0.40142,0.25638 0.48579,0.53884c0.16388,0.46514 0.38528,0.8996 0.69668,1.24503c0.09964,0.11053 0.09707,0.13919 -0.09542,0.3035c-0.03735,-0.04147 -0.08973,-0.06804 -0.12711,-0.10953c-0.2964,-0.36023 -0.64037,-0.64736 -1.02933,-0.88987c-0.08974,-0.06808 -0.16701,-0.1223 -0.19933,-0.22104c-0.06682,-0.32598 -0.16359,-0.62226 -0.16781,-1.03628z" fill="#cae2e3"/><path d="M242.84649,171.04654c-0.02741,0.001 -0.06741,-0.01177 -0.07984,-0.02558c-0.25644,-0.34745 -0.59051,-0.59205 -0.92712,-0.80805c-0.30911,-0.21694 -0.54582,-0.47947 -0.63239,-0.89039c-0.03706,-0.19853 -0.15909,-0.36534 -0.15367,-0.57981c0.50162,0.05269 0.86061,0.32496 1.02959,0.73279c0.21627,0.49179 0.40508,0.98455 0.7813,1.37042c0.02237,0.0563 0.07217,0.11159 -0.01783,0.20062z" fill="#c9e1e2"/><path d="M242.00865,167.85032c0.34935,0.07266 0.58375,0.20672 0.83059,0.3546c0.07728,0.05424 0.13956,0.12335 0.15935,0.20832c0.21373,0.52044 0.46992,1.02498 0.75608,1.49987c0.02493,0.02765 0.0473,0.0839 -0.04021,0.1443c-0.08718,-0.09671 -0.18683,-0.20723 -0.28903,-0.28912c-0.26411,-0.26149 -0.54324,-0.50813 -0.86996,-0.6816c-0.23443,-0.13406 -0.38133,-0.32852 -0.42575,-0.59824c-0.03706,-0.19854 -0.06174,-0.38329 -0.12116,-0.63813z" fill="#c9e1e2"/><path d="M246.80852,169.42798c0.0278,-0.15814 0.10282,-0.23236 0.1778,-0.30653c0.02743,-0.001 0.06739,0.01176 0.09481,0.01076c0.2293,0.1914 0.5062,0.3096 0.80315,0.35562c0.17466,0.03634 0.28934,0.13203 0.35641,0.30093c0.07699,0.21132 0.18148,0.42165 0.21602,0.64887c-0.27715,0.0389 -0.67157,0.01078 -0.80121,-0.07009c-0.09231,-0.03936 -0.11211,-0.12432 -0.15936,-0.20827c-0.22675,-0.22003 -0.39099,-0.5281 -0.68758,-0.73125z" fill="#cae3e4"/><path d="M242.49898,175.41529c-0.04925,-0.36946 -0.1435,-0.6944 -0.26521,-1.01834c0.06507,-0.11664 0.12513,-0.17608 0.23753,-0.20882c0.29922,0.17448 0.53078,0.49435 0.84504,0.65402c0.06196,0.22619 0.01667,0.42779 0.01131,0.64221c-0.0102,0.1146 0.00708,0.22819 -0.08551,0.34591c-0.28196,-0.06089 -0.46625,-0.29682 -0.74312,-0.41501z" fill="#c8e0e1"/><path d="M244.31434,172.3914c0.14749,-0.11974 0.21233,-0.07932 0.27713,-0.03889c0.2469,0.14789 0.48123,0.28195 0.71312,0.44466c0.06483,0.04044 0.11466,0.09567 0.13451,0.18064c0.03197,0.25587 0.04894,0.52658 0.03848,0.79829c-0.14974,-0.00873 -0.23949,-0.07676 -0.35924,-0.11515c-0.35921,-0.11515 -0.586,-0.33516 -0.59025,-0.74915c-0.00963,-0.19961 -0.10418,-0.36743 -0.21372,-0.52043z" fill="#cbe4e5"/><path d="M243.36896,173.32641c0.07502,-0.07422 0.12001,-0.11874 0.16502,-0.16326c0.03991,0.01281 0.08238,-0.00305 0.09483,0.01073c0.167,0.12233 0.31907,0.25945 0.48608,0.38175c0.08973,0.0681 0.13701,0.15198 0.15429,0.26558c0.0518,0.34083 0.0761,0.68266 0.05542,1.06904c-0.21713,-0.02043 -0.34423,-0.12997 -0.47135,-0.23949c-0.0498,-0.05525 -0.09964,-0.11055 -0.10702,-0.18163c-0.00426,-0.414 -0.1633,-0.77939 -0.37731,-1.1427z" fill="#c8e0e1"/><path d="M246.94096,177.47749c0.13699,0.15199 0.27148,0.33266 0.48356,0.41042c0.07984,0.02558 0.12707,0.1095 0.18935,0.17858c-0.24264,0.26609 -0.52007,0.46212 -0.83235,0.58798c-0.14436,-0.2231 -0.37874,-0.35717 -0.55824,-0.4933c0.04271,-0.17296 0.18516,-0.2354 0.25024,-0.35207c0.1226,-0.14738 0.28514,-0.282 0.46742,-0.33164z" fill="#85d5d9"/><path d="M244.79724,166.34684c0.11182,0.28147 0.22364,0.56288 0.36291,0.84332c0.12938,0.23797 0.44869,0.34029 0.41045,0.77015c-0.42351,-0.46974 -0.90221,-0.78037 -1.38091,-1.09098c-0.06196,-0.22619 -0.12144,-0.48102 -0.08347,-0.75381c0.05494,-0.00207 0.08238,-0.00305 0.10982,-0.00408c0.19956,0.06396 0.38417,0.14278 0.58116,0.23536z" fill="#c6dede"/><path d="M239.57392,169.68343c0.1067,0.33881 0.20352,0.63504 0.31026,0.97382c-0.19477,0.03581 -0.33946,-0.03017 -0.48918,-0.03887c-0.16221,-0.02249 -0.34201,-0.00155 -0.49911,-0.08136c-0.08718,-0.09671 -0.10193,-0.23898 -0.13165,-0.36639c-0.02976,-0.1274 -0.04442,-0.26969 -0.04413,-0.4268c0.28479,-0.12485 0.55433,-0.07776 0.85386,-0.06039z" fill="#cae3e3"/><path d="M240.12809,173.76137c-0.47875,-0.31062 -0.89516,-0.55214 -1.38915,-0.69079c-0.10191,-0.23902 -0.21882,-0.46313 -0.33317,-0.71591c0.29473,-0.0824 0.51923,0.00919 0.76123,0.05729c0.03991,0.0128 0.07728,0.05427 0.10218,0.08189c0.26636,0.38993 0.53278,0.77988 0.85889,1.26753z" fill="#cae3e4"/><path d="M246.46781,172.79669c-0.34936,-0.07266 -0.65624,-0.16117 -0.7703,-0.57106c-0.08435,-0.28247 -0.25619,-0.50456 -0.42802,-0.72666c-0.07474,-0.08291 -0.01219,-0.17091 0.10277,-0.23232c0.16932,0.25071 0.43115,0.38378 0.69303,0.51682c0.19701,0.0926 0.27914,0.24663 0.31624,0.44522c0.03963,0.1699 0.12171,0.32393 0.08629,0.56805z" fill="#c8e0e1"/><path d="M245.74629,176.908c0.30717,-0.06857 0.4116,0.14176 0.54606,0.32237c0.01469,0.14223 -0.1002,0.20367 -0.16274,0.29166c-0.2075,0.17908 -0.43741,0.30191 -0.69222,0.3971c-0.12201,-0.1668 -0.31902,-0.25946 -0.36859,-0.4718c0.06259,-0.08801 0.10761,-0.13255 0.16761,-0.19192c0.17495,-0.12079 0.34989,-0.24156 0.50989,-0.3475z" fill="#85d4d9"/><path d="M244.70832,173.96191c0.27686,0.1182 0.49879,0.23845 0.73576,0.34388c0.00196,0.28554 -0.02349,0.57211 -0.08897,0.84591c-0.12997,0.07628 -0.23468,0.02303 -0.32952,0.01227c-0.09482,-0.01074 -0.18965,-0.02151 -0.26181,-0.13304c-0.02938,-0.28454 -0.03877,-0.64117 -0.05545,-1.069z" fill="#c7dfe0"/><path d="M247.67448,172.30904c0.01953,0.24207 0.05402,0.46925 0.01611,0.74202c-0.29218,0.05376 -0.51662,-0.03786 -0.78362,-0.11359c-0.04442,-0.26967 -0.08887,-0.53936 -0.14577,-0.82288c0.32443,0.04504 0.59144,0.12076 0.91326,0.19445z" fill="#c8e0e1"/><path d="M239.89555,168.52894c0.21973,-0.00818 0.43938,-0.01637 0.65142,0.06141c0.08435,0.28247 0.15369,0.5798 0.2355,0.89092c-0.03,0.02966 -0.06,0.05933 -0.07249,0.04552c-0.20213,-0.03531 -0.4167,-0.08442 -0.60383,-0.13456c-0.07984,-0.02558 -0.14471,-0.06603 -0.15205,-0.13712c-0.05941,-0.25487 -0.16387,-0.46516 -0.05856,-0.72618z" fill="#c4dcdd"/><path d="M242.57741,166.68667c0.04188,0.29834 0.09877,0.58183 0.14067,0.88019c-0.1574,0.07724 -0.257,-0.03329 -0.37679,-0.07166c-0.11972,-0.03837 -0.23698,-0.10541 -0.36916,-0.15762c-0.07444,-0.24001 -0.02398,-0.49893 -0.02852,-0.75587c0.25219,-0.06651 0.43681,0.01229 0.63382,0.10493z" fill="#c8e0e1"/><path d="M248.03228,171.82442c-0.06931,-0.29733 -0.14121,-0.56603 -0.22303,-0.87712c0.24971,-0.03788 0.46174,0.03993 0.69645,0.01688c0.11432,0.25279 0.07641,0.52556 0.10581,0.81007c-0.22476,0.06552 -0.40709,0.11516 -0.5792,0.05015z" fill="#c6ddde"/><path d="M247.53954,168.28681c0.36181,0.08647 0.67349,0.27479 1.05538,0.28912c0.10446,0.21032 0.21144,0.39201 0.24344,0.64787c-0.26723,0.08136 -0.48443,0.0609 -0.64123,-0.17603c-0.17917,-0.29321 -0.43342,-0.51222 -0.65764,-0.76094z" fill="#b9cfd0"/><path d="M239.11332,174.39901c-0.12738,0.04757 -0.1447,-0.066 -0.20947,-0.10641c-0.14211,-0.09469 -0.2692,-0.20417 -0.434,-0.19802c-0.25705,-0.03327 -0.37909,-0.20005 -0.49852,-0.39556c-0.04727,-0.08396 -0.07955,-0.18271 -0.13671,-0.3091c0.33211,-0.04096 0.60671,-0.05116 0.78335,0.2707c0.11692,0.22412 0.30629,0.40276 0.45321,0.59719c0.03735,0.04148 0.07472,0.08291 0.0422,0.14122z" fill="#c0d8d8"/><path d="M242.10768,176.4295c-0.18716,-0.05014 -0.31677,-0.13098 -0.41642,-0.24151c-0.0498,-0.05525 -0.11211,-0.12433 -0.11944,-0.19545c-0.02685,-0.31318 -0.11125,-0.59563 -0.1956,-0.87814c0.10506,-0.10385 0.13985,-0.03376 0.17725,0.0077c0.12456,0.13815 0.26158,0.29016 0.41617,0.39863c0.19192,0.14994 0.25903,0.31878 0.19617,0.56393c-0.03764,0.11565 -0.04529,0.20161 -0.05803,0.34488z" fill="#c1d9d9"/><path d="M246.50435,173.30939c0.04696,0.24098 0.02658,0.47029 0.0311,0.72714c-0.23976,0.08035 -0.4218,-0.02715 -0.62396,-0.06243c-0.05691,-0.28351 -0.00395,-0.57108 0.0091,-0.87149c0.22959,0.0343 0.39918,0.12794 0.58376,0.20672z" fill="#c3dbdc"/><path d="M241.67797,168.4911c-0.26444,-0.10435 -0.50138,-0.20982 -0.75333,-0.3004c-0.05213,-0.18371 -0.0917,-0.35363 -0.0314,-0.57009c0.2347,-0.02303 0.43425,0.04091 0.64888,0.09003c0.10188,0.239 0.14891,0.47997 0.13586,0.78036z" fill="#c3dadb"/><path d="M245.7419,175.26581c0.03799,-0.27276 0.07335,-0.51683 0.10874,-0.76092c0.23725,-0.0517 0.43681,0.01228 0.63638,0.07623c0.00709,0.22824 -0.02578,0.44367 -0.10109,0.67493c-0.06992,0.01688 -0.16732,0.03477 -0.2222,0.03687c-0.14975,-0.00871 -0.25704,-0.03325 -0.42185,-0.02711z" fill="#c4dbdc"/><path d="M240.57132,175.70141c0.23668,0.26255 0.4235,0.4698 0.62281,0.69078c0.01218,0.17096 -0.01561,0.32906 -0.11329,0.50402c-0.15228,0.01995 -0.20948,-0.10644 -0.31421,-0.15969c-0.10471,-0.0532 -0.19448,-0.12128 -0.25679,-0.19034c0.02546,-0.2866 0.04587,-0.51585 0.06145,-0.84487z" fill="#c2d9da"/><path d="M238.67851,169.28837c-0.03961,-0.16989 -0.03939,-0.32697 0.00084,-0.4713c0.1076,-0.13253 0.24239,-0.10898 0.35472,-0.14173c0.11234,-0.03278 0.21485,-0.10798 0.34703,-0.05578c0.09455,0.16784 0.10162,0.39605 0.13362,0.65194c-0.13735,0.00512 -0.27466,0.01025 -0.39948,0.0292c-0.14975,-0.00871 -0.2995,-0.01738 -0.43684,-0.01225z" fill="#c5ddde"/><path d="M246.92591,173.49367c0.26725,-0.08133 0.49175,0.01025 0.73635,0.02969c0.04956,0.2124 -0.03313,0.37255 -0.04839,0.54448c-0.22734,0.09412 -0.44446,0.07369 -0.6891,0.05429c0.00537,-0.21439 0.01077,-0.42886 0.00115,-0.62844z" fill="#c3dbdc"/><path d="M238.89833,171.89358c-0.09742,0.01796 -0.15229,0.02 -0.20724,0.02207c-0.1223,-0.00972 -0.25706,-0.03326 -0.40681,-0.04196c-0.06933,-0.29734 -0.18371,-0.55011 -0.15566,-0.86537c0.12997,-0.07628 0.23724,-0.05172 0.38445,-0.01432c0.12681,0.26661 0.26353,0.57569 0.38531,0.89962z" fill="#c7dfe0"/><path d="M244.34363,175.44649c-0.0504,0.25894 -0.0159,0.48611 -0.11867,0.71845c-0.2098,0.05064 -0.36181,-0.08645 -0.54158,-0.06551c-0.02687,-0.31321 0.0235,-0.57213 0.04901,-0.85869c0.26217,-0.02406 0.39915,0.12794 0.61125,0.20569z" fill="#c7dee0"/><path d="M246.46119,177.79528c-0.06511,0.11663 -0.20753,0.17908 -0.25027,0.35206c0.19192,0.14995 0.41129,0.29887 0.55822,0.49329c-0.07251,0.04555 -0.15995,0.10592 -0.24486,0.13766c-0.12738,0.04757 -0.24971,0.03784 -0.33693,-0.05886c-0.16447,-0.15093 -0.31648,-0.28806 -0.48096,-0.43905c0.19506,-0.19294 0.29753,-0.26813 0.75476,-0.48514z" fill="#61acb1"/><path d="M243.6897,165.87405c0.01952,0.24208 0.02914,0.44159 0.03366,0.69852c-0.25195,-0.09056 -0.49144,-0.16732 -0.72839,-0.27273c-0.02465,-0.18473 -0.03676,-0.35566 -0.00647,-0.54245c0.26218,-0.02406 0.46172,0.03991 0.70125,0.11666z" fill="#c2dada"/><path d="M242.45671,176.65934c-0.01952,-0.24208 0.02579,-0.4437 0.0612,-0.6878c0.23441,0.13403 0.44392,0.24052 0.65341,0.34696c0.05212,0.18371 -0.01559,0.32903 -0.07336,0.51683c-0.2222,0.03687 -0.40432,-0.07062 -0.64123,-0.17603z" fill="#c1d9d9"/><path d="M241.54546,167.21065c-0.25959,-0.0046 -0.44926,-0.02611 -0.65396,-0.03275c-0.07955,-0.1827 -0.0467,-0.39815 -0.01386,-0.61358c0.19729,-0.06446 0.39207,-0.10029 0.60668,-0.05117c0.10446,0.21032 0.01664,0.42785 0.06113,0.6975z" fill="#c6dedf"/><path d="M248.61063,172.24552c0.00706,0.22821 -0.01333,0.45751 -0.0187,0.67189c-0.14746,0.11973 -0.28734,0.15353 -0.46459,0.14585c-0.10188,-0.239 -0.02399,-0.49891 -0.05602,-0.75483c0.18489,-0.07833 0.34708,-0.05577 0.53932,-0.06299z" fill="#c0d7d7"/><path d="M238.18487,172.99125c-0.17726,-0.00767 -0.34201,-0.00157 -0.50675,0.00461c-0.14944,-0.16582 -0.19898,-0.37817 -0.17858,-0.60741c0.1574,-0.07725 0.29469,-0.08237 0.48436,-0.06092c0.077,0.21134 0.21144,0.39197 0.20096,0.66373z" fill="#c3dadb"/><path d="M245.25148,177.24056c-0.06001,0.05937 -0.1076,0.13254 -0.1676,0.19195c0.04956,0.2124 0.24651,0.30499 0.36859,0.4718c-0.09258,0.11768 -0.22736,0.09417 -0.34481,0.18421c-0.22194,-0.12028 -0.32643,-0.33053 -0.59337,-0.4063c0.13758,-0.16218 0.26498,-0.2098 0.40741,-0.27226c0.09993,-0.0466 0.18009,-0.17807 0.32981,-0.16939z" fill="#5aa0a4"/><path d="M249.45385,168.45814c0.077,0.21134 0.21147,0.39202 0.20354,0.63508c-0.12997,0.07628 -0.23981,0.08035 -0.40456,0.08652c-0.10701,-0.18166 -0.184,-0.393 -0.20608,-0.60641c0.12999,-0.07627 0.22736,-0.09418 0.40709,-0.11513z" fill="#bdd3d4"/><path d="M246.82043,175.13991c0.03031,-0.18679 0.04562,-0.35871 0.06089,-0.53068c0.19733,-0.06445 0.37458,-0.0568 0.56421,-0.03534c0.0546,0.15503 -0.02547,0.2866 -0.13051,0.39047c-0.13503,0.1336 -0.27006,0.26715 -0.4946,0.17555z" fill="#bdd4d5"/><path d="M245.51491,165.66313c0.07441,0.23999 0.13644,0.46621 0.21087,0.70617c-0.41161,-0.14172 -0.7233,-0.33004 -0.63495,-0.86174c0.15228,-0.01995 0.26696,0.07574 0.42405,0.1556z" fill="#bbd2d3"/><path d="M245.13857,176.20231c-0.16985,0.06345 -0.30463,0.03989 -0.4394,0.01634c-0.08718,-0.09671 -0.03705,-0.19858 -0.02684,-0.31318c0.00765,-0.08595 0.00283,-0.18572 0.08042,-0.28858c0.16985,-0.06345 0.29441,0.07466 0.47673,0.02503c0.02209,0.2134 -0.02062,0.38634 -0.09085,0.56035z" fill="#c3dadb"/><path d="M243.14179,170.65001c-0.19417,-0.2784 -0.38839,-0.55676 -0.52254,-0.8945c0.10249,-0.07521 0.17978,-0.02098 0.24204,0.04811c0.17691,0.16478 0.33883,0.34434 0.48831,0.51016c0.11208,0.12432 0.04701,0.24108 -0.2078,0.33621z" fill="#b1c6c7"/><path d="M249.49083,171.42725c-0.06965,-0.14016 -0.01699,-0.27071 -0.01923,-0.39915c-0.01953,-0.24207 0.10305,-0.38944 0.34545,-0.49845c0.08434,0.28248 0.01636,0.58494 -0.03402,0.84384c-0.11749,0.09006 -0.18744,0.10696 -0.29217,0.05377z" fill="#bbd2d3"/><path d="M245.02781,168.52324c-0.29669,-0.20313 -0.40339,-0.5419 -0.5376,-0.87967c0.26445,0.10437 0.45124,0.31167 0.64065,0.49023c0.12713,0.1095 0.10701,0.18168 -0.10307,0.38945z" fill="#bad1d2"/><path d="M248.52172,167.70746c0.20469,0.00667 0.38445,-0.01433 0.58913,-0.00768c0.04724,0.08393 0.08945,0.22519 0.14665,0.35157c-0.33238,0.19806 -0.34484,0.18424 -0.49177,-0.01025c-0.08716,-0.09671 -0.15936,-0.20831 -0.24403,-0.33364z" fill="#b5cbcc"/><path d="M239.91122,166.8146c0.18741,-0.10693 0.33972,-0.12693 0.49204,-0.14688c0.0671,0.16888 -0.00316,0.34285 -0.03341,0.52963c-0.16731,0.03484 -0.31961,0.05471 -0.4869,0.08954c-0.09712,-0.13918 0.01301,-0.30037 0.02834,-0.47234z" fill="#c0d7d8"/><path d="M248.5904,169.7043c0.11494,-0.06137 0.23724,-0.05172 0.37202,-0.02819c0.1169,0.22414 0.14891,0.48001 0.12595,0.73793c-0.09258,0.11768 -0.15995,0.10593 -0.25218,0.06652c-0.08692,-0.2538 -0.17381,-0.50765 -0.2457,-0.77631z" fill="#bdd4d4"/><path d="M243.65809,165.46104c-0.20213,-0.03531 -0.40168,-0.09927 -0.60384,-0.13459c-0.00224,-0.12848 0.04786,-0.23028 0.13785,-0.31933c0.11491,-0.06136 0.20722,-0.02203 0.3145,0.00255c0.07984,0.02558 0.15962,0.05116 0.23951,0.07675c0.02973,0.12744 0.01956,0.24207 -0.08807,0.37463z" fill="#b6cccc"/><path d="M240.45304,168.1083c-0.20468,-0.00667 -0.38189,-0.01433 -0.6016,-0.00615c-0.05976,-0.09771 -0.08948,-0.22517 0.00821,-0.4002c0.16732,-0.03485 0.34709,-0.05578 0.54182,-0.09164c0.03959,0.16988 0.08185,0.31113 0.05149,0.49793z" fill="#c1d9d9"/><path d="M244.64439,165.29573c0.03961,0.16989 0.05437,0.31216 0.01159,0.48513c-0.20469,-0.00667 -0.35928,-0.11519 -0.50392,-0.18116c-0.06965,-0.1402 -0.00454,-0.25687 0.03313,-0.37255c0.05746,-0.03069 0.08749,-0.06037 0.09995,-0.04659c0.11973,0.0384 0.23947,0.07676 0.35926,0.11516z" fill="#b7cdce"/><path d="M246.51081,165.69744c-0.25705,-0.03328 -0.36917,-0.15759 -0.5113,-0.25225c-0.16958,-0.09363 -0.1294,-0.23797 -0.08665,-0.41093c0.20469,0.00667 0.34683,0.10134 0.50648,0.1525c0.09453,0.16783 -0.01814,0.35771 0.0914,0.51071z" fill="#b6cccc"/><path d="M249.77138,169.50314c0.02464,0.18472 0.03934,0.32698 0.06653,0.48305c-0.12259,0.14739 -0.21264,0.23641 -0.3799,0.27123c-0.02209,-0.21343 -0.05913,-0.41194 -0.08377,-0.59666c0.09767,-0.175 0.23241,-0.15145 0.33489,-0.22672c0.02489,0.02764 0.06486,0.04044 0.0623,0.06909z" fill="#c2dada"/><path d="M239.35517,167.83498c0.04215,0.14124 0.03453,0.22721 -0.01557,0.32904c-0.07761,0.10288 -0.18741,0.10695 -0.2998,0.13972c-0.0974,0.01793 -0.21486,0.10798 -0.31707,0.0261c0.00029,-0.1571 0.02804,-0.31521 0.13819,-0.47643c0.17981,-0.021 0.32952,-0.01229 0.49433,-0.01844z" fill="#bbd2d3"/><path d="M243.48205,176.9781c0.04275,-0.17297 0.06795,-0.30244 0.10814,-0.44673c0.19225,-0.00718 0.35186,0.04405 0.52659,0.08036c0.0147,0.14221 -0.01046,0.27175 -0.11553,0.37559c-0.04245,0.0159 -0.08492,0.03169 -0.12488,0.01893c-0.10982,0.00409 -0.23216,-0.00565 -0.39437,-0.02812z" fill="#bbd2d3"/><path d="M248.91436,167.29295c-0.3171,0.02611 -0.31709,0.02611 -0.60382,-0.13458c-0.02464,-0.18474 0.08298,-0.31729 0.18064,-0.49228c0.21944,0.14892 0.3063,0.40273 0.42321,0.62686z" fill="#adc2c3"/><path d="M245.56801,176.14344c-0.0147,-0.14221 0.02551,-0.28659 0.11807,-0.40425c0.19225,-0.00718 0.35696,-0.01337 0.53418,-0.00564c-0.1305,0.39044 -0.1455,0.40532 -0.65226,0.40997z" fill="#b5cbcc"/><path d="M242.55682,165.68773c0.01221,0.17091 0.01441,0.29935 -0.02833,0.47231c-0.18228,0.04961 -0.33941,-0.03022 -0.5291,-0.0517c-0.00735,-0.07112 -0.00226,-0.12841 0.00281,-0.18574c0.0051,-0.05733 0.03765,-0.11565 0.05774,-0.18782c0.1724,-0.09213 0.32215,-0.08341 0.49685,-0.0471z" fill="#bbd1d2"/><path d="M241.99638,177.21917c-0.23723,0.05167 -0.40171,-0.09928 -0.57639,-0.13557c-0.02715,-0.15607 0.06541,-0.2738 0.10566,-0.41816c0.24203,0.04806 0.39659,0.1566 0.48861,0.3531c0.03732,0.04146 0.00226,0.12844 -0.01785,0.2006z" fill="#b6cccd"/><path d="M237.7017,171.0385c0.05691,0.28351 0.08631,0.56802 0.13074,0.83769c-0.11751,0.09005 -0.21484,0.10798 -0.36205,0.07065c0.01302,-0.30038 0.02607,-0.60079 0.12146,-0.90423c0.05493,-0.00205 0.0824,-0.00307 0.10981,-0.00408z" fill="#acc1c2"/><path d="M243.6743,168.81649c0.20694,0.13511 0.39889,0.28502 0.53077,0.49432c0.04727,0.08396 0.05211,0.18372 -0.0229,0.25791c-0.02998,0.02963 -0.11494,0.06137 -0.1274,0.04755c-0.20184,-0.1924 -0.28364,-0.5035 -0.38048,-0.79981z" fill="#a7bbbb"/><path d="M241.62559,165.69395c0.04472,0.1126 0.00708,0.22824 -0.0456,0.35872c-0.17981,0.021 -0.35954,0.04194 -0.53931,0.06296c-0.03959,-0.16989 0.03795,-0.27275 0.14299,-0.37661c0.12738,-0.04757 0.29215,-0.05373 0.44194,-0.04504z" fill="#b7cdcd"/><path d="M248.04804,174.10874c-0.04954,-0.21241 -0.00676,-0.38534 0.05096,-0.57314c0.1574,-0.07725 0.29726,-0.11107 0.46938,-0.04606c-0.10532,0.261 -0.29785,0.42523 -0.52036,0.61922z" fill="#b7cece"/><path d="M240.03506,176.80671c-0.2545,-0.06191 -0.3564,-0.30091 -0.55599,-0.36481c-0.01469,-0.14221 0.05778,-0.1878 0.12515,-0.17605c0.17468,0.03631 0.34685,0.10132 0.47136,0.2395c0.02236,0.05632 0.03482,0.07012 -0.04048,0.30143z" fill="#b4cacb"/><path d="M238.38903,170.54158c-0.12737,0.04758 -0.20977,0.05066 -0.30208,0.01128c-0.01953,-0.24207 -0.05149,-0.49793 0.05892,-0.81622c0.22675,0.22003 0.21624,0.49178 0.24318,0.80496z" fill="#b2c8c9"/><path d="M244.5211,176.6823c0.16732,-0.03485 0.29215,-0.05374 0.3969,-0.00052c0.03482,0.07009 0.00226,0.12846 -0.03032,0.18679c-0.13025,0.23334 -0.29249,0.21082 -0.49202,0.14685c0.05006,-0.10184 0.08774,-0.2175 0.12541,-0.33315z" fill="#b5cbcb"/><path d="M245.90863,167.39075c-0.17694,-0.16477 -0.31393,-0.31675 -0.41836,-0.52705c0.06258,-0.088 0.12994,-0.07623 0.16729,-0.0348c0.1022,0.08188 0.21942,0.14893 0.3216,0.23079c0.09964,0.11053 0.0645,0.19754 -0.07051,0.33105z" fill="#91a3a3"/><path d="M239.9577,172.75381c0.2545,0.06191 0.40142,0.25636 0.55089,0.4222c0.02493,0.02765 0.01983,0.08496 0.00225,0.12847c-0.03001,0.02965 -0.09993,0.04657 -0.11241,0.03275c-0.21941,-0.1489 -0.35131,-0.35818 -0.44079,-0.58336z" fill="#99abac"/><path d="M239.66096,173.93592c-0.05522,0.15916 -0.13026,0.23334 -0.22255,0.19395c-0.1172,-0.06705 -0.21173,-0.23489 -0.31365,-0.47384c0.22962,0.03427 0.36658,0.18623 0.53615,0.27991z" fill="#93a5a6"/><path d="M249.35401,172.50345c-0.01695,-0.2707 -0.06143,-0.5404 0.30833,-0.69705c0.0294,0.28453 -0.16564,0.47746 -0.30833,0.69705z" fill="#9aadad"/><path d="M246.87693,170.19659c-0.14469,-0.06603 -0.30177,-0.14583 -0.43399,-0.19804c-0.01723,-0.11361 0.01529,-0.17194 0.11781,-0.24715c0.18716,0.05016 0.2517,0.24766 0.37879,0.35715c-0.03,0.02966 -0.04503,0.04451 -0.06258,0.08803z" fill="#c5dddd"/><path d="M241.91311,170.92433c0.29696,0.04606 0.4589,0.2257 0.56082,0.46466c0.01246,0.0138 -0.00511,0.05735 -0.03511,0.08702c-0.03258,0.05831 -0.0999,0.04658 -0.12484,0.01894c-0.15203,-0.1371 -0.25646,-0.3475 -0.40087,-0.57061z" fill="#aec2c3"/><path d="M242.40085,177.13266c0.20469,0.00667 0.37424,0.10028 0.5314,0.18013c0.01728,0.11362 -0.05522,0.15918 -0.13505,0.13359c-0.14724,-0.03739 -0.28196,-0.06092 -0.42662,-0.12694c-0.05493,0.00205 -0.04728,-0.08389 0.0303,-0.18677z" fill="#9caeaf"/><path d="M240.56882,166.19028c-0.17244,0.0921 -0.31226,0.12587 -0.49204,0.14686c0.14523,-0.2482 0.34766,-0.36998 0.52772,-0.54805c0.02236,0.05632 0.04728,0.08395 0.04472,0.11257c-0.02264,0.10081 -0.05775,0.18777 -0.08037,0.2886z" fill="#a9bebf"/><path d="M242.82885,173.86063c0.08015,-0.13153 0.15257,-0.17703 0.25002,-0.19495c0.13954,0.12333 0.20664,0.2922 0.18117,0.5788c-0.17951,-0.13617 -0.2916,-0.26048 -0.43117,-0.38379z" fill="#b9cfd0"/><path d="M247.30674,168.59533c0.09995,-0.04655 0.16221,0.0225 0.41616,0.39864c-0.2548,0.0952 -0.34684,-0.10129 -0.49403,-0.13867c-0.01724,-0.1136 0.03036,-0.18676 0.07789,-0.25995z" fill="#869797"/><path d="M241.03766,171.84237c0.15427,0.26558 0.46372,0.32548 0.4031,0.69903c-0.2469,-0.14788 -0.38133,-0.32851 -0.4031,-0.69903z" fill="#93a4a5"/><path d="M246.07858,165.94203c0.18683,0.20723 0.31142,0.34542 0.43595,0.48356c0.02493,0.02765 0.01984,0.08497 -0.0252,0.12945c-0.01503,0.01486 -0.05749,0.0307 -0.08496,0.03176c-0.17951,-0.13608 -0.31656,-0.28811 -0.32584,-0.64474z" fill="#94a5a6"/><path d="M247.76232,167.93573c0.04026,-0.14431 0.07277,-0.20265 0.1976,-0.2216c0.11465,0.09567 0.24178,0.20523 0.32132,0.38791c-0.23726,0.05166 -0.36175,-0.0865 -0.51888,-0.16629z" fill="#abbfc0"/><path d="M245.57867,164.94668c-0.05009,0.10185 -0.06768,0.14534 -0.09771,0.17504c-0.33944,-0.03018 -0.33939,-0.0302 -0.46877,-0.26814c0.22478,-0.0655 0.34933,0.07263 0.56644,0.09314z" fill="#acc0c1"/><path d="M248.95125,171.64729c-0.00961,-0.19962 -0.0467,-0.39814 -0.04132,-0.61254c0.00765,-0.08595 0.06769,-0.14531 0.1874,-0.10693c0.01952,0.24208 0.02658,0.47028 -0.1461,0.7195z" fill="#9fb2b2"/><path d="M242.61995,165.2855c-0.12488,0.01893 -0.20722,0.02198 -0.29949,-0.01739c-0.01985,-0.08496 0.00025,-0.1571 0.06283,-0.24513c0.10249,-0.07521 0.22479,-0.06549 0.34708,-0.05575c0.04472,0.1126 -0.03285,0.21542 -0.11042,0.31823z" fill="#aec2c3"/><path d="M245.16105,172.1028c-0.18225,0.04962 -0.26954,-0.04708 -0.37172,-0.12894c-0.03733,-0.04147 -0.01723,-0.11359 0.02778,-0.1581c0.03001,-0.02965 0.09996,-0.04661 0.12483,-0.01894c0.11972,0.03837 0.16448,0.15099 0.2191,0.30602z" fill="#91a2a3"/><path d="M239.39905,167.03363c0.04668,0.39814 0.04419,0.42679 -0.32529,0.42628c0.09514,-0.14633 0.13785,-0.31933 0.32529,-0.42628z" fill="#869696"/><path d="M238.80825,174.75315c-0.2347,0.02302 -0.26439,-0.10438 -0.33662,-0.21594c0.19731,-0.06443 0.19733,-0.06445 0.33662,0.21594z" fill="#555f5f"/><path d="M245.74002,170.8245c0.06228,0.06907 0.14943,0.16577 0.19167,0.307c-0.24715,0.0092 -0.29695,-0.04606 -0.32414,-0.20211c-0.00992,-0.04247 0.03511,-0.08703 0.13251,-0.1049z" fill="#93a5a6"/><path d="M246.80834,165.42932c0.2995,0.0174 0.30945,0.05985 0.10668,0.33876c-0.1172,-0.06705 -0.11949,-0.19545 -0.10668,-0.33876z" fill="#8b9b9c"/><path d="M238.05718,174.58124c0.16958,0.09364 0.25419,0.21897 0.33884,0.34443c-0.05265,0.13048 -0.12262,0.14737 -0.17241,0.0921c-0.09964,-0.11051 -0.18427,-0.23588 -0.16645,-0.43645z" fill="#9aacad"/><path d="M244.35338,164.72104c0.15228,-0.01993 0.27973,-0.06752 0.3644,0.05784c0.01246,0.01382 0.00992,0.04245 -0.0051,0.05732c-0.15998,0.10592 -0.26472,0.05269 -0.35927,-0.11516z" fill="#5f6a6b"/><path d="M244.05611,172.98659c-0.09482,-0.01074 -0.14468,-0.06602 -0.17945,-0.13615c-0.00993,-0.04246 -0.00482,-0.09979 0.03766,-0.11565c0.04245,-0.0159 0.09742,-0.01793 0.12229,0.00976c0.0498,0.05525 0.08463,0.12535 0.01952,0.24204z" fill="#636e6f"/><path d="M241.63133,165.32238c0.06767,-0.14529 0.15516,-0.20569 0.31481,-0.15451c-0.07023,0.17395 -0.16758,0.1919 -0.31481,0.15451z" fill="#4a5354"/></g><path d="M250.5768,187.08357c0,0 -4.03079,-1.68713 -4.85565,-4.30511c-0.70727,-2.24475 1.67118,-5.38079 2.72354,-6.38321c1.99981,-1.90486 4.0754,-3.67138 6.66836,-3.55145c0.89667,0.04149 2.67185,0.8163 3.72639,1.91633c0.73409,0.76572 2.92509,3.82015 3.70961,4.6712c2.95387,3.20433 5.29138,5.96562 3.18615,8.29207c-1.29535,1.43151 -4.83498,5.5743 -7.12364,5.2452c-2.41869,-0.34778 -8.03484,-5.88498 -8.03484,-5.88498z" data-paper-data="{&quot;index&quot;:null}" fill="#000000" stroke="#000000" stroke-width="1.2"/></g><g stroke="#001026" stroke-width="1.2"><g><path d="M241.43898,192.68938l4.14453,34.64918c0,0 6.7776,1.97786 5.43561,10.59877c-0.07652,0.49147 -0.50368,2.89345 -3.42851,2.99318c-2.80138,0.09553 -8.06311,-2.08247 -9.98367,-2.89304c-0.89201,-0.37649 -2.18156,-1.45828 -2.89152,-2.98773c-0.7148,-1.53994 -0.35102,-3.47715 -0.20035,-4.57856c0.06136,-0.4486 -2.93197,-35.96356 -2.93197,-35.96356" fill="#bf0000" fill-rule="evenodd" stroke-linecap="round" stroke-linejoin="round"/><path d="M242.13375,191.93494c0.53951,3.37026 3.43936,22.13192 3.43936,22.13192c0,0 1.68986,6.20623 1.74765,7.88215c0.06655,1.93017 0.25869,3.32802 0.25869,3.32802l-0.79076,-1.66496c0,0 0.51357,1.15224 0.69219,1.81219c0.55647,2.05595 0.98476,3.60947 0.98476,3.60947c0,0 -6.82842,-2.04838 -9.89464,0.13909c-3.06622,2.18747 -2.44307,7.68242 -2.44307,7.68242c0,0 -4.98109,-2.09079 -4.90755,-5.72837c0.01812,-0.89676 1.16628,-3.32963 1.16628,-3.32963c0,0 -0.605,0.02125 -0.54142,-0.58868c0.0151,-0.14491 -1.19771,-31.40021 -1.09191,-32.07987c0,0 11.25628,-3.96947 11.38045,-3.19378z" fill="#000000" fill-rule="nonzero" stroke-linecap="butt" stroke-linejoin="miter"/></g><g fill-rule="evenodd" stroke-linecap="round" stroke-linejoin="round"><g fill="#ffab19" font-family="&quot;Helvetica Neue&quot;, Helvetica, Arial, sans-serif" font-weight="400" font-size="16" text-anchor="start"/><path d="M229.51618,202.82473c-1.5598,-0.3371 -3.40104,-1.07966 -4.2776,-2.22657c-1.13081,-1.47955 -1.10024,-3.52325 -1.44056,-5.09872c6.4085,1.47872 14.04872,0.23412 19.66062,-2.53509c-0.14474,1.08435 0.21724,5.91734 -2.07917,7.62786c-1.52798,1.13815 -6.26863,2.87172 -7.47712,3.11932c-2.34542,0.48059 -4.03307,-0.81053 -4.38614,-0.88683z" fill="#000000"/></g><g><g fill-rule="evenodd" stroke-linecap="round" stroke-linejoin="round"><path d="M233.20556,200.41572c0,0 -3.07939,36.01866 -3.64132,36.13755c-1.61258,0.34115 -10.44965,-2.71383 -10.44965,-2.71383l5.68045,-36.2134" data-paper-data="{&quot;index&quot;:null}" fill="#ffab19"/><path d="M234.5664,199.83504c0,0 -0.71935,7.61662 -0.93182,11.65509c-0.20378,3.87351 -0.31804,12.10163 -0.31804,12.10163c0,0 0.86384,5.97877 0.01929,7.45312c-0.39117,0.68288 -0.69939,-3.3755 -0.69939,-3.3755c0,0 0.3441,4.57521 0.37798,4.97848c0.2364,2.81365 -0.84244,6.50855 -3.66947,6.85957c-3.1039,0.3854 -8.24969,0.82069 -10.90239,-1.40535c-1.12868,-0.94715 -2.65754,-3.73525 -2.24605,-6.70529c0.46404,-3.34946 2.95604,-6.85837 2.95604,-6.85837l-2.28984,3.82492c0,0 -0.02387,-1.90984 0.34871,-3.31081c0.41841,-1.57328 2.0403,-5.67206 2.0403,-5.67206l4.91665,-23.06715" data-paper-data="{&quot;index&quot;:null}" fill="#000000"/></g><path d="M232.60402,236.56288c-0.08407,2.21065 -0.76992,4.77911 -2.25858,6.11284c-1.49417,1.33866 -10.4742,0.80815 -11.86246,-0.82787c-1.31839,-1.55369 -1.85542,-4.42531 -1.77337,-6.58288c0.16847,-4.42949 3.86311,-7.72978 8.25225,-7.37137c4.38911,0.3584 7.81064,4.2398 7.64215,8.66931z" fill="#ff0000" fill-rule="nonzero" stroke-linecap="butt" stroke-linejoin="miter"/></g><g fill="#000000" fill-rule="nonzero" stroke-linecap="butt" stroke-linejoin="miter"><path d="M223.93488,210.54752c0,0 -2.62381,0.55371 -3.42641,0.23637c-0.24707,-0.09769 -0.90664,-1.22575 -1.24399,-2.56974c-0.42105,-1.67743 -0.47666,-3.74518 -0.1793,-5.18956c0.76507,-3.71613 4.71486,-7.76921 6.56688,-7.03696c0.80265,0.31735 2.90252,3.33753 2.90409,3.34509"/></g></g><g fill="#ff0000" fill-rule="nonzero" stroke="none" stroke-linecap="butt" stroke-linejoin="miter"><path d="M239.58378,214.27219c0.56322,1.21982 0.31424,2.79265 -0.55613,3.513c-0.87036,0.72035 -2.03252,0.31544 -2.59574,-0.90438c-0.56322,-1.21982 -0.31425,-2.79265 0.55612,-3.513c0.87036,-0.72035 2.03253,-0.31544 2.59575,0.90438z" stroke-width="none"/><path d="M243.8878,217.30389c0.51817,1.12224 0.31107,2.55108 -0.46259,3.19138c-0.77366,0.64031 -1.8209,0.24964 -2.33906,-0.87261c-0.51817,-1.12224 -0.31105,-2.55108 0.46261,-3.19139c0.77366,-0.64031 1.82088,-0.24963 2.33905,0.87261z" stroke-width="0"/><path d="M243.15527,223.40508c0.54069,1.17103 0.35186,2.63943 -0.4218,3.27973c-0.77366,0.64031 -1.83915,0.21007 -2.37985,-0.96097c-0.54069,-1.17103 -0.35186,-2.63942 0.4218,-3.27973c0.77366,-0.64031 1.83915,-0.21007 2.37984,0.96096z" stroke-width="0"/><path d="M240.32342,204.51163c-0.75531,0.23164 -1.58466,-0.54359 -1.85242,-1.73156c-0.26776,-1.18797 0.12747,-2.33879 0.88278,-2.57043c0.75531,-0.23164 1.58467,0.5436 1.85243,1.73157c0.26776,1.18797 -0.12748,2.33878 -0.88279,2.57042z" stroke-width="none"/><path d="M238.01583,208.28558c-0.69488,0.21311 -1.45114,-0.47014 -1.68915,-1.52611c-0.23801,-1.05597 0.13236,-2.08476 0.82725,-2.29787c0.69488,-0.21311 1.45114,0.47015 1.68915,1.52612c0.23801,1.05597 -0.13236,2.08476 -0.82725,2.29787z" stroke-width="0"/><path d="M240.98029,209.76125c-0.78552,0.24092 -1.60721,-0.38416 -1.8353,-1.39612c-0.22809,-1.01196 0.2238,-2.02762 1.00932,-2.26853c0.78552,-0.24092 1.60721,0.38417 1.8353,1.39613c0.22809,1.01196 -0.22379,2.02761 -1.00931,2.26853z" stroke-width="0"/><path d="M229.06807,215.98815c0.28267,1.36731 -0.31265,2.69605 -1.32968,2.96784c-1.01703,0.27178 -2.07064,-0.61632 -2.35331,-1.98363c-0.28267,-1.36731 0.31264,-2.69604 1.32967,-2.96783c1.01703,-0.27178 2.07065,0.61631 2.35331,1.98362z" stroke-width="none"/><path d="M232.62889,220.67958c0.26005,1.25792 -0.26198,2.4735 -1.16601,2.71509c-0.90402,0.24159 -1.84769,-0.58232 -2.10774,-1.84024c-0.26005,-1.25792 0.26198,-2.47351 1.166,-2.7151c0.90402,-0.24159 1.84769,0.58232 2.10775,1.84025z" stroke-width="0"/><path d="M231.18931,207.23355c-0.79495,-0.12429 -1.43856,-1.20318 -1.43752,-2.40974c0.00104,-1.20657 0.64632,-2.08391 1.44127,-1.95962c0.79495,0.12429 1.43855,1.20318 1.43751,2.40975c-0.00104,1.20657 -0.64631,2.08391 -1.44126,1.95962z" stroke-width="none"/><path d="M225.48986,205.695c-0.76316,-0.11933 -1.38106,-1.0855 -1.38015,-2.15801c0.00091,-1.07251 0.62032,-1.84522 1.38348,-1.72589c0.76316,0.11933 1.38107,1.0855 1.38016,2.15801c-0.00091,1.07251 -0.62033,1.84522 -1.38349,1.72589z" stroke-width="0"/><path d="M230.66669,212.33107c-0.82675,-0.12928 -1.49625,-1.06728 -1.49537,-2.0951c0.00088,-1.02782 0.6718,-1.75625 1.49855,-1.62697c0.82675,0.12928 1.49626,1.06729 1.49538,2.0951c-0.00088,1.02782 -0.67181,1.75624 -1.49857,1.62697z" stroke-width="0"/></g></g></g></svg>