<svg version="1.1" xmlns="http://www.w3.org/2000/svg" xmlns:xlink="http://www.w3.org/1999/xlink" width="37.4358" height="38.48804" viewBox="0,0,37.4358,38.48804"><g transform="translate(-221.28206,-160.75599)"><g fill="#fd66ff" stroke="none" stroke-width="0.5" stroke-miterlimit="10"><path d="M227.09383,173.20822l-0.01855,-0.02782l0.01855,-0.08347v-0.08296l0.16591,-0.66365l0.14839,-0.66778l0.0371,-0.0742l0.02074,-0.08296l0.02903,-0.01659l0.17776,-0.35553l0.15819,-0.18456l0.00824,-0.1483l0.44807,-0.38407l0.38407,-0.44807l0.1483,-0.00824l0.18456,-0.15819l0.35553,-0.17776l0.01659,-0.02903l0.08296,-0.02074l0.0742,-0.0371l0.47446,-0.10544l0.01637,-0.02105l0.14667,-0.01517l0.03027,-0.00673l0.66365,-0.16591h0.08296l0.08347,-0.01855l0.02782,0.01855h0.07038l0.20789,0.05197l0.21315,-0.02205l0.71677,0.10239h0.35241l0.18675,-1.49398l0.08383,-0.21655l0.00774,-0.23208l0.26463,-0.92623l0.04193,-0.07269l0.00943,-0.0377l0.14839,-0.66778l0.0371,-0.0742l0.02074,-0.08296l0.02903,-0.01659l0.51934,-1.03867l0.13275,-0.33187l-0.04449,-0.16312l0.19681,-0.32802l0.09278,-0.37112l0.19766,-0.11295l0.30218,-0.50364l0.05619,-0.05619l0.10112,-0.15167l0.21942,-0.19947l0.02382,-0.03969l0.00213,-0.03833l0.04297,-0.03682l0.08366,-0.13943l0.26463,-0.26463l0.41038,-0.24622l0.36337,-0.31146l0.09089,-0.04544l0.01659,-0.02903l0.08296,-0.02074l0.0742,-0.0371l0.17728,-0.03939l0.10007,-0.06004l0.07638,0.02083l0.31406,-0.06978l0.66365,-0.16591h0.07038l0.02782,-0.01855l0.03411,0.00759l0.03411,-0.00759l0.02782,0.01855h0.07038l0.66365,0.16591l0.66778,0.14839l0.0742,0.0371l0.08296,0.02074l0.01659,0.02903l0.09089,0.04544l0.09095,0.07795h0.10087l0.46401,0.48418l0.50918,0.43644l0.0056,0.10071l0.08288,0.08648l0.52927,0.92623l0.14717,0.52324l0.21047,0.50114l0.26463,1.72013l-0.02123,0.2293l0.05585,0.22341v0.74087l0.10933,0.87463l-0.02264,0.18676l0.04562,0.18251v1.09163l0.22769,-0.17077l0.77662,-0.77662l0.21337,-0.12802l0.16136,-0.18942l0.92623,-0.6616l0.14265,-0.0562l0.1107,-0.10608l0.92623,-0.52927l0.16657,-0.04685l0.13776,-0.1047l0.84581,-0.36249l0.01264,-0.00632l0.01659,-0.02903l0.08296,-0.02074l0.0742,-0.0371l0.66778,-0.14839l0.26875,-0.06719l0.07111,-0.06363l0.14025,0.01079l0.18354,-0.04588h0.08296l0.08347,-0.01855l0.02782,0.01855h0.07038l0.46429,0.11607l0.47717,0.0367l0.39695,0.13232l0.10208,0.06496l0.01053,-0.00287l0.10007,0.06004l0.17728,0.03939l0.26463,0.13232l0.36337,0.31146l0.41038,0.24622l0.26463,0.26463l0.08366,0.13943l0.02467,0.02115l0.11127,0.08478l0.52927,0.6616l0.1827,0.39863l0.25675,0.3555l0.26463,0.6616l0.07618,0.55868l0.13676,0.54701v0.6616l-0.08889,0.35556v0.3665l-0.13232,0.52927l-0.00797,0.01493l0.0143,0.05245l-0.38043,0.63406l-0.34797,0.65244l-0.05233,0.01472l-0.00871,0.0145l-0.52927,0.52927l-0.14375,0.08625l-0.1016,0.13335l-1.32318,1.05855l-0.28792,0.13196l-0.24047,0.20611l-0.62812,0.31407l-0.24273,0.16183l-0.29327,0.10474l-0.23066,0.16658l-0.18728,0.7959l0.23541,-0.1498l0.71091,-0.23697l0.46539,-0.18616l1.03867,-0.51934l0.01659,-0.02903l0.08296,-0.02074l0.0742,-0.0371l0.66778,-0.14839l0.44894,-0.11224l0.0583,-0.02376l0.08566,-0.01224l0.07074,-0.01768h0.05305l0.08372,-0.01196l0.02965,-0.00659l0.00291,0.00194l0.40819,-0.05832l0.02492,-0.02229l0.08525,0.00656l0.08212,-0.01173l0.68044,0.07039l0.68206,0.05247l0.0787,0.02623l0.08505,0.0088l0.02053,0.0264l0.21268,0.07089l0.18079,0.11505l0.20919,0.04648l0.26463,0.13232l0.44594,0.38223l0.22324,0.04465l0.20538,0.32274l0.29044,0.24895l0.01262,0.2273l0.2149,0.33771l0.01337,0.00765l0.0055,0.02203l0.08154,0.12814l0.13232,0.39695l0.0367,0.47717l0.0299,0.1196l0.33035,0.99105l0.00687,0.08926l0.04355,0.07822l0.92623,3.44028l0.00707,0.39283l0.09529,0.38116v0.03045l0.04343,0.17371v0.3665l0.08889,0.35556v0.79391l-0.08889,0.35556v0.3665l-0.26463,1.05855l-0.10638,0.19947l-0.03374,0.22353l-0.6616,1.58782l-0.17334,0.23293l-0.09765,0.27343l-0.26463,0.39695l-0.3028,0.27527l-0.23684,0.33373l-0.92623,0.79391l-0.46458,0.23229l-0.42758,0.29488l-1.05855,0.39695l-0.61007,0.06973l-0.18799,0.13279l-0.36103,-0.07005l-0.36539,0.04176l-0.17708,-0.14701l-0.60279,-0.11695l-0.70816,-0.33048l-0.55721,0.03095l-0.45982,0.41142l-0.98362,-0.07567l-0.03864,0.10821l-0.26463,0.39695l-0.03646,0.03315l-0.01807,0.04586l-0.6616,0.92623l-0.18942,0.16136l-0.12802,0.21337l-0.39695,0.39695l-0.18375,0.11025l-0.13513,0.1663l-0.52927,0.39695l-0.07797,0.03283l-0.0569,0.06259l-0.15167,0.10112l-0.71777,0.71777l-0.25427,0.15256l-0.19947,0.21942l-0.3282,0.2188l-0.46316,0.34738l-0.44107,0.18572l-0.40376,0.25694l-0.79391,0.26463l-1.52988,0.11768l-0.08761,-0.07838l-0.11342,0.03093l-1.31573,-0.78944l-0.79391,-0.79391l-0.28016,-0.46693l-0.33524,-0.4291l-0.52927,-1.19087l-0.02116,-0.12091l-0.29336,0.25144l-0.35553,0.17776l-0.01659,0.02903l-0.08296,0.02074l-0.0742,0.0371l-0.66778,0.14839l-0.66365,0.16591h-0.08296l-0.08347,0.01855l-0.02782,-0.01855h-0.59966l-0.1162,-0.02906l-0.09022,0.04511l-0.63155,-0.22555l-0.65059,-0.16265l-0.05004,-0.08758l-0.11281,-0.04029l-0.23533,-0.15688h-0.03344l-0.05916,-0.06173l-0.06902,-0.04602l-0.46015,-0.50618l-0.47331,-0.49389l-0.04116,-0.07202l-0.05752,-0.06327l0.0023,-0.03336l-0.43289,-0.75757l-0.0229,-0.08143l-0.05505,-0.06422l-0.26463,-0.52927l-0.07113,-0.32006l-0.15429,-0.2893l-0.08521,-0.34083l-0.02475,-0.0225l-0.00225,-0.08548l-0.02013,-0.08048v-0.68407l-0.01799,-0.68383l0.01799,-0.08098v-0.0855l0.02414,-0.02314l0.2225,-1.00124l0.06989,-0.1398l0.01199,-0.15584l0.39695,-1.19087l0.11505,-0.18079l0.01655,-0.07449l0.00071,-0.00936l0.00408,-0.01224l0.02513,-0.11308l0.03769,-0.07539l0.10033,-0.30098l-0.00438,-0.01371l0.02322,-0.04282l0.07856,-0.23567l0.33355,-0.52415l0.13581,-0.25038l-0.69869,0.04367l-0.07245,0.01449l-0.01639,0.02868l-0.08296,0.02074l-0.0742,0.0371l-0.53313,0.11848l-0.61883,0.24753l-0.55868,0.07618l-0.54701,0.13676h-2.58443l-0.02782,0.01855l-0.08347,-0.01855h-0.08296l-0.66365,-0.16591l-0.53309,-0.11847l-0.00936,-0.00071l-0.01224,-0.00408l-0.11308,-0.02513l-0.0742,-0.0371l-0.08296,-0.02074l-0.00503,-0.00879l-0.10945,-0.03649l-0.49552,-0.31533l-0.2273,-0.01262l-0.24895,-0.29044l-0.32274,-0.20538l-0.04465,-0.22324l-0.38223,-0.44594l-0.04942,-0.09885l-0.16183,-0.24273l-0.1239,-0.3469l-0.00368,-0.00171l-0.01184,-0.03476l-0.20783,-0.32659l-0.13232,-0.39695l-0.02311,-0.30056l-0.0134,-0.03751l0.00909,-0.01816l-0.11506,-0.33798l-0.13232,-1.58782l0.04216,-0.25824l-0.04022,-0.25855l0.13232,-1.4555l0.114,-0.32681l0.02654,-0.34511l0.13232,-0.39695l0.11505,-0.18079l0.04648,-0.20919l0.13232,-0.26463l0.47643,-0.55584l0.05349,-0.08406l0.0224,-0.00448l0.2101,-0.24512l0.0584,-0.14739l0.10439,-0.04253l0.07336,-0.08558l0.15829,-0.00879l1.08496,-0.44203l0.92623,-0.13232l0.3756,0.03886l0.37421,-0.05056l1.19087,0.13232l0.19148,0.07112l-0.00747,-0.01492l-0.22191,-0.99858l-0.11095,-0.16642l0.03699,-0.16642l-0.03699,-0.16642l0.11095,-0.16642l0.03992,-0.17962zM232.71219,181.66728c0,0.35797 0.0301,0.70892 0.08789,1.05044c-0.04924,0.64007 0.15584,1.17901 0.52469,1.65143c0.99015,2.0622 3.07851,3.49712 5.50709,3.5468c1.99548,1.55908 4.05892,-0.7272 5.45118,-2.89894c0.06778,-0.10115 0.13267,-0.20438 0.19458,-0.30958c0.69678,-1.13026 1.19866,-2.1768 1.3985,-2.56576c0.93454,-1.81886 -2.13826,-5.13819 -3.04508,-6.09017c-2.01714,-2.11759 -4.41436,-1.66026 -6.37685,-0.17918c-0.695,0.32329 -1.32064,0.7706 -1.84848,1.31349c-1.16796,1.13558 -1.89352,2.7238 -1.89352,4.48148zM243.0529,191.21222l-0.0312,-0.0624l-0.0274,-0.12333l-0.00082,-0.00114l-0.10387,0.41548z"/></g></g></svg>