<svg version="1.1" xmlns="http://www.w3.org/2000/svg" xmlns:xlink="http://www.w3.org/1999/xlink" width="56.20493" height="49.71504" viewBox="0,0,56.20493,49.71504"><g transform="translate(-212.03976,-156.60198)"><g data-paper-data="{&quot;isPaintingLayer&quot;:true}" fill-rule="nonzero" stroke-linejoin="miter" stroke-miterlimit="10" stroke-dasharray="" stroke-dashoffset="0" style="mix-blend-mode: normal"><path d="M238.29696,199.11594c-0.07166,0 -1.3623,-2.40559 -1.4402,-4.91492c-0.08461,-2.72528 1.04427,-5.57292 0.98828,-5.59426c-0.00067,-0.00026 -14.85631,2.13392 -14.85637,2.13388c-0.07532,-0.05347 -9.10247,-6.515 -8.94692,-11.39595c0.14036,-4.40407 8.59232,-12.87437 8.59232,-12.95083c0,-0.02561 13.92384,3.69412 13.9249,3.69391c0.09758,-0.01924 -1.8784,-2.85841 -2.02707,-5.62555c-0.15054,-2.80191 1.52491,-5.53409 1.41278,-5.86024c-0.01062,-0.03088 7.99332,2.9328 14.39918,7.46226c6.16771,4.36107 10.74616,10.29289 10.74656,10.3355c0.00039,0.04256 -3.73198,8.03269 -9.51952,13.79228c-5.60092,5.57386 -13.26293,8.92392 -13.27393,8.92392z" fill="#000000" stroke="#000000" stroke-width="4" stroke-linecap="butt"/><path d="M241.62809,205.04019c0,0 0.16313,0.13147 -0.32433,-0.15278c-0.4118,-0.24012 -1.46169,-0.8742 -1.69473,-1.14296c-0.10727,-0.12372 -0.70997,-1.33442 -0.88837,-1.72818c-0.58068,-1.28164 -0.93628,-2.60089 -0.93628,-2.60089" fill="#000000" stroke="#000000" stroke-width="2" stroke-linecap="round"/><path d="M223.55484,165.84006l2.12135,2.95499" fill="none" stroke="#292929" stroke-width="1" stroke-linecap="round"/><path d="M238.92908,173.96168l-4.28005,-5.77756" fill="none" stroke="#292929" stroke-width="0.5" stroke-linecap="round"/><path d="M236.55393,158.28739l2.16617,2.85742" fill="none" stroke="#292929" stroke-width="1" stroke-linecap="round"/><path d="M213.75529,181.49215l3.17456,3.78433" fill="none" stroke="#292929" stroke-width="1" stroke-linecap="round"/><path d="M241.08094,204.31697c-0.07911,0 -1.50396,-2.65575 -1.58997,-5.42603c-0.09341,-3.00868 1.15286,-6.15246 1.09105,-6.17601c-0.00074,-0.00028 -16.40123,2.35584 -16.40131,2.35578c-0.08315,-0.05904 -10.04905,-7.1925 -9.87733,-12.58103c0.15495,-4.86206 9.48585,-14.21319 9.48585,-14.2976c0,-0.02827 15.3718,4.07828 15.37297,4.07806c0.10773,-0.02124 -2.07374,-3.15566 -2.23787,-6.21055c-0.1662,-3.09329 1.68349,-6.1096 1.55969,-6.46966c-0.01173,-0.03409 8.82456,3.23779 15.89657,8.23828c6.80909,4.81459 11.86367,11.36326 11.8641,11.41031c0.00042,0.04699 -4.12008,8.86802 -10.50946,15.22657c-6.18336,6.1535 -14.64216,9.85193 -14.6543,9.85193z" fill="#494949" stroke="#0f0f0f" stroke-width="4" stroke-linecap="butt"/></g></g></svg>