<svg version="1.1" xmlns="http://www.w3.org/2000/svg" xmlns:xlink="http://www.w3.org/1999/xlink" width="82.86202" height="108.01493" viewBox="0,0,82.86202,108.01493"><defs><linearGradient x1="220.77178" y1="169.67" x2="200.7946" y2="159.45712" gradientUnits="userSpaceOnUse" id="color-1"><stop offset="0" stop-color="#000000"/><stop offset="1" stop-color="#000000" stop-opacity="0"/></linearGradient></defs><g transform="translate(-197.6602,-145.32309)"><g data-paper-data="{&quot;isPaintingLayer&quot;:true}" stroke-miterlimit="10" stroke-dasharray="" stroke-dashoffset="0" style="mix-blend-mode: normal"><g stroke-linejoin="miter"><path d="M266.00194,188.34426c-6.12281,11.97668 -21.23269,16.49861 -33.74888,10.09999c-12.51617,-6.39861 -17.69903,-21.29474 -11.57621,-33.27142c6.12281,-11.97668 21.23269,-16.49861 33.74888,-10.09999c12.51617,6.39861 17.69903,21.29474 11.57621,33.27142z" fill="none" fill-rule="nonzero" stroke="#000000" stroke-width="4.5" stroke-linecap="butt"/><g stroke-linecap="butt"><g fill-rule="nonzero"><path d="M237.06934,155.88041l0.0065,0.01243" data-paper-data="{&quot;index&quot;:null}" fill="#ffab19" stroke="#000000" stroke-width="5"/><g data-paper-data="{&quot;index&quot;:null}" fill="none" stroke="none" stroke-width="1" font-family="sans-serif" font-weight="normal" font-size="12" text-anchor="start"/></g><path d="M237.06934,155.88041l0.0065,0.01243" data-paper-data="{&quot;index&quot;:null}" fill="#ffab19" fill-rule="nonzero" stroke="#000000" stroke-width="5"/><path d="M242.52346,177.71493" fill="#001026" fill-rule="evenodd" stroke="#000000" stroke-width="5"/><g data-paper-data="{&quot;index&quot;:null}" fill="none" fill-rule="nonzero" stroke="none" stroke-width="1" font-family="sans-serif" font-weight="normal" font-size="12" text-anchor="start"/><g data-paper-data="{&quot;index&quot;:null}" fill="none" fill-rule="nonzero" stroke="none" stroke-width="1" font-family="sans-serif" font-weight="normal" font-size="12" text-anchor="start"/></g><path d="M226.69797,196.58547l-26.11363,-13.61248c0,0 -1.98636,-1.39659 -1.26728,-2.04145c1.6489,-1.4787 10.96115,-6.65182 10.96115,-6.65182l-8.59625,-8.85682c0,0 -1.48455,-1.77403 -1.26856,-2.89818c0.20092,-1.04575 14.60645,-4.19467 14.60645,-4.19467c0,0 -5.71778,-6.9771 -6.80997,-9.76031c-0.42888,-1.0929 14.23212,-2.18991 23.64757,-1.56403c4.60725,0.30626 11.00781,0.49261 15.51667,1.97748c7.47601,2.46202 11.77346,7.23289 11.77346,7.23289" fill="none" fill-rule="nonzero" stroke="#000000" stroke-width="3" stroke-linecap="round"/><path d="M198.91959,182.12192c0,0 0.16698,-1.49133 2.14153,-2.65268c2.47318,-1.45462 8.70797,-1.91822 8.31031,-4.77366c-0.51512,-3.69895 -11.95086,-9.03146 -8.81712,-11.74998c2.57317,-2.23222 13.31457,-2.87754 14.25746,-4.72192c0.94082,-1.8403 -3.69868,-2.80006 -4.77884,-6.44198c-1.53623,-5.1796 0.0674,-4.36604 0.0674,-4.36604c0,0 13.83736,-1.31825 20.02272,-0.90416c5.80325,0.38851 16.01627,3.31688 16.01627,3.31688c0,0 -19.55527,5.44205 -25.11697,11.63825c-6.16523,6.8686 1.00517,31.4188 1.00517,31.4188z" data-paper-data="{&quot;index&quot;:null}" fill="url(#color-1)" fill-rule="nonzero" stroke="none" stroke-width="0" stroke-linecap="butt"/></g><path d="M232.91328,215.86869l0.98643,-15.86593" fill="none" fill-rule="nonzero" stroke="#000000" stroke-width="6" stroke-linecap="round" stroke-linejoin="miter"/><path d="M261.86728,197.39288l-27.1365,3.86833l-25.55325,-5.47039" fill="none" fill-rule="nonzero" stroke="#000000" stroke-width="6" stroke-linecap="round" stroke-linejoin="miter"/><g stroke="#001026" stroke-width="1.2"><path d="M238.69375,213.27817l9.92691,24.1943c0,0 6.90572,-1.53706 8.6884,5.33828c0.10163,0.39196 0.54948,2.33098 -2.09745,3.68932c-2.53522,1.301 -8.12097,2.02585 -10.16526,2.27904c-0.94948,0.11759 -2.50998,-0.1043 -3.69552,-0.90735c-1.19364,-0.80857 -1.53719,-2.38088 -1.784,-3.25013c-0.10053,-0.35404 -10.02435,-27.61736 -10.02435,-27.61736" fill="#bf0000" fill-rule="evenodd" stroke-linecap="round" stroke-linejoin="round"/><path d="M230.9793,222.68859c-1.82696,-7.04609 3.28054,-8.63108 5.97765,-9.3304c1.17281,-0.30409 0.48284,-2.12986 3.07221,3.0508c0.57027,1.14099 2.42553,5.96347 4.579,9.90467c1.47462,2.69877 3.4253,4.89714 3.8626,5.56377c1.03322,1.5751 1.25942,3.21471 1.25942,3.21471l-1.30698,-0.86633c0,0 0.87362,0.61434 1.26806,1.01701c1.22883,1.25438 2.1645,2.19879 2.1645,2.19879c0,0 -6.97697,1.50798 -9.02385,4.45062c-2.04687,2.94264 0.44508,6.67507 0.44508,6.67507c0,0 -5.29796,0.66508 -6.50194,-2.01939c-0.29682,-0.66179 -0.09439,-2.94026 -0.09439,-2.94026c0,0 -0.54731,0.28143 -0.70219,-0.19121c-0.07896,-0.24094 -0.33032,-4.07704 -1.31517,-8.19257c-1.29648,-5.41779 -3.42081,-11.52006 -3.68404,-12.53528z" fill="#000000" fill-rule="nonzero" stroke-linecap="butt" stroke-linejoin="miter"/></g><path d="M222.9928,216.34286c-0.00985,-0.21361 1.19871,0.41618 3.93725,0.48896c3.61284,0.09603 9.14579,-0.33359 10.70162,-0.5534c4.03453,-0.57001 4.71727,-2.0872 4.74339,-1.52095c0.09666,2.09545 -2.1854,5.97695 -6.80087,6.18985c-2.02828,0.09356 -6.17685,0.79526 -8.52611,0.05752c-2.9966,-0.94103 -4.00109,-3.48741 -4.05528,-4.662z" fill="#004fd9" fill-rule="nonzero" stroke="#001026" stroke-width="1.2" stroke-linecap="butt" stroke-linejoin="miter"/><g fill-rule="nonzero" stroke-linecap="butt" stroke-linejoin="miter"><g fill="none" stroke="none" stroke-width="1" font-family="sans-serif" font-weight="normal" font-size="12" text-anchor="start"/><path d="M222.50596,214.98003c0,0 8.66928,1.31911 12.65307,1.30072c3.98378,-0.01839 7.26589,-1.39268 7.26589,-1.39268c0,0 0.03136,2.05113 -1.74527,4.04738c-1.37522,1.54522 -4.01823,3.14596 -7.43439,3.17992c-3.11221,0.03094 -6.58434,-0.62286 -8.30303,-1.96446c-2.60502,-2.03348 -2.43626,-5.17089 -2.43626,-5.17089z" fill="#000000" stroke="#001026" stroke-width="1.2"/></g><g stroke="#001026" stroke-width="1.2"><path d="M232.78408,222.02416c0,0 -11.69591,28.08207 -12.31665,28.00536c-1.78136,-0.22015 -10.3884,-5.39531 -10.3884,-5.39531l14.48582,-27.44046" data-paper-data="{&quot;index&quot;:null}" fill="#ffab19" fill-rule="evenodd" stroke-linecap="round" stroke-linejoin="round"/><path d="M234.35612,221.97399c0,0 -2.54518,5.91738 -3.71645,9.10677c-1.12341,3.05912 -3.1736,9.65509 -3.1736,9.65509c0,0 -0.49074,5.08351 -1.72755,6.01241c-0.57284,0.43024 0.05372,-2.93505 0.05372,-2.93505c0,0 -0.70994,3.79282 -0.76876,4.12821c-0.41045,2.34011 -2.41518,4.9866 -5.48013,4.40155c-3.36513,-0.64236 -8.89624,-1.8714 -11.1729,-4.4798c-0.96868,-1.10983 -1.92784,-3.82615 -0.79717,-6.09339c1.27509,-2.55686 4.72717,-4.61963 4.72717,-4.61963l-3.3129,2.37948c0,0 0.42271,-1.54647 1.14436,-2.56113c0.81041,-1.13945 3.48281,-3.94471 3.48281,-3.94471l10.59694,-17.08036" data-paper-data="{&quot;index&quot;:null}" fill="#000000" fill-rule="evenodd" stroke-linecap="round" stroke-linejoin="round"/><path d="M223.23825,248.87281c-0.55638,1.60599 -1.77706,3.30482 -3.51661,3.86521c-1.74601,0.56246 -10.39958,-2.37999 -11.40396,-3.98062c-0.95382,-1.52007 -0.86204,-3.78987 -0.31902,-5.3573c1.11483,-3.21793 5.43007,-4.60149 9.63838,-3.09023c4.20828,1.51124 6.71604,5.34502 5.60119,8.56296z" fill="#ff0000" fill-rule="nonzero" stroke-linecap="butt" stroke-linejoin="miter"/></g><path d="M223.81528,226.4914c0,0 -2.91464,0.45871 -3.8062,0.19582c-0.27445,-0.08094 -1.00713,-1.01546 -1.38187,-2.12887c-0.46772,-1.38965 -0.52949,-3.10267 -0.19917,-4.29925c0.84987,-3.07858 5.23747,-6.43633 7.29477,-5.8297c0.89162,0.2629 3.22424,2.76495 3.22599,2.77122" fill="#000000" fill-rule="nonzero" stroke="#001026" stroke-width="1.2" stroke-linecap="butt" stroke-linejoin="miter"/><g fill="#ff0000" fill-rule="nonzero" stroke="none" stroke-linecap="butt" stroke-linejoin="miter"><path d="M238.71026,230.82877c0.72259,0.91636 0.50606,2.29188 -0.48363,3.07227c-0.98968,0.78039 -2.37775,0.67015 -3.10034,-0.24623c-0.72259,-0.91637 -0.50605,-2.29187 0.48363,-3.07227c0.98968,-0.78039 2.37775,-0.67015 3.10034,0.24622z" stroke-width="NaN"/><path d="M243.9256,232.52871c0.66478,0.84306 0.49054,2.08884 -0.38918,2.78252c-0.87973,0.69368 -2.13178,0.57258 -2.79656,-0.27048c-0.66478,-0.84306 -0.49053,-2.08884 0.38919,-2.78253c0.87973,-0.69368 2.13177,-0.57257 2.79654,0.27048z" stroke-width="0"/><path d="M243.36037,237.81804c0.69368,0.87973 0.54287,2.15521 -0.33686,2.84888c-0.87973,0.69368 -2.15521,0.54287 -2.84888,-0.33686c-0.69368,-0.87973 -0.54287,-2.15521 0.33684,-2.84889c0.87973,-0.69368 2.15522,-0.54286 2.84889,0.33685z" stroke-width="0"/></g><g fill="#ff0000" fill-rule="nonzero" stroke="none" stroke-linecap="butt" stroke-linejoin="miter"><path d="M240.52081,223.01802c-0.84925,0.41119 -1.8977,0.00102 -2.3418,-0.91617c-0.4441,-0.91718 -0.11566,-1.99405 0.73359,-2.40525c0.84925,-0.41119 1.8977,-0.00101 2.3418,0.91618c0.4441,0.91718 0.11566,1.99404 -0.73359,2.40524z" stroke-width="NaN"/><path d="M238.27153,226.8405c-0.78129,0.3783 -1.73468,0.02407 -2.12944,-0.7912c-0.39475,-0.81528 -0.08138,-1.78287 0.69993,-2.16117c0.78129,-0.3783 1.73468,-0.02406 2.12943,0.7912c0.39475,0.81528 0.08138,1.78287 -0.69992,2.16116z" stroke-width="0"/><path d="M241.87327,227.22254c-0.88321,0.42765 -1.90587,0.14094 -2.28417,-0.64036c-0.3783,-0.78129 0.03101,-1.76135 0.91422,-2.189c0.88321,-0.42765 1.90588,-0.14094 2.28418,0.64036c0.3783,0.78129 -0.03102,1.76134 -0.91423,2.18899z" stroke-width="0"/></g><g fill-rule="nonzero" stroke-linecap="butt" stroke-linejoin="miter"><g data-paper-data="{&quot;index&quot;:null}" stroke="none" stroke-width="1"><path d="M268.24095,179.55347c-0.15871,-0.14059 -0.14039,-0.2877 -0.08819,-0.4565c0.1037,-0.2597 0.25765,-0.4935 0.37819,-0.74453c-0.02458,-0.07139 -0.04913,-0.14279 -0.08227,-0.199c-0.64506,-1.23302 -0.66626,-2.49663 -0.45972,-3.77982c0.0448,-0.27048 0.07286,-0.54967 0.2101,-0.79204c0.02576,-0.04544 0.04328,-0.1147 0.02687,-0.16231c-0.09011,-0.26178 0.02138,-0.45874 0.1247,-0.67951c0.08614,-0.19045 0.20583,-0.36362 0.30876,-0.54542c0.06003,-0.10604 0.15361,-0.19482 0.29711,-0.21872c0.14348,-0.02386 0.26241,-0.11914 0.37271,-0.19926c0.5782,-0.52392 1.24803,-0.94188 1.99272,-1.26252c0.42304,-0.17331 0.86207,-0.26011 1.31786,-0.33823c1.34208,-0.2279 2.66353,-0.07498 3.95695,0.35707c0.57944,0.20094 1.13277,0.48626 1.65178,0.83216c0.39344,0.2616 0.69332,0.61199 0.96788,0.96886c0.87356,1.13554 1.25699,2.40977 1.2688,3.76643c0.00586,0.25748 -0.05569,0.51932 -0.11727,0.78117c-0.03544,0.17744 -0.04557,0.3484 0.07062,0.52577c0.10799,0.15357 0.09789,0.3245 0.04567,0.49329c-0.1037,0.2597 -0.24093,0.50211 -0.37818,0.74452c-0.0429,0.07577 -0.11074,0.11909 -0.1786,0.16238c-0.27096,0.1343 -0.44993,0.33562 -0.60391,0.56941c-0.30837,0.5065 -0.76728,0.8962 -1.20941,1.29454c-0.17001,0.14722 -0.35673,0.28581 -0.56844,0.39197c-0.67763,0.35521 -1.35491,0.67149 -2.1316,0.81905c-0.12864,0.22725 -0.28265,0.46102 -0.41985,0.70345c-0.05147,0.09092 -0.1115,0.19696 -0.24641,0.20567c-0.11812,0.01736 -0.15286,0.11693 -0.20429,0.20782c-0.35981,0.59739 -0.70289,1.20341 -1.06272,1.80079c-0.78012,1.33977 -1.56874,2.69471 -2.38237,4.01719c-0.79649,1.29218 -1.54261,2.61031 -2.30557,3.91977c-0.12007,0.21212 -0.26511,0.39177 -0.38516,0.60388c-0.5832,1.03025 -1.16644,2.06051 -1.7664,3.08212c-0.10291,0.1818 -0.17232,0.3809 -0.36726,0.49566c-0.06786,0.04334 -0.09396,0.12769 -0.13686,0.20345c-0.42881,0.75757 -0.883,1.5216 -1.31184,2.27915c-0.01716,0.0303 -0.0429,0.07574 -0.06003,0.10604c-0.12045,0.25107 -0.30645,0.31175 -0.60124,0.29676c-0.98533,-0.05789 -1.85838,-0.39064 -2.61919,-0.99822c-0.19224,-0.15786 -0.36732,-0.346 -0.50851,-0.5558c-0.108,-0.15358 -0.10648,-0.30936 -0.0375,-0.4695c0.20702,-0.48046 0.39723,-0.96957 0.61282,-1.46519c0.15516,-0.35063 0.35242,-0.6991 0.45726,-1.07564c0.22724,-0.82233 0.66426,-1.55609 0.94176,-2.35249c0.16448,-0.44365 0.28688,-0.88948 0.46814,-1.3245c0.19842,-0.4653 0.35474,-0.93277 0.52777,-1.39156c0.32005,-0.83322 0.6822,-1.66429 0.98546,-2.50615c0.37343,-1.11883 0.81393,-2.20316 1.25441,-3.28741c0.14698,-0.37443 0.29388,-0.74879 0.44087,-1.12322c0.24167,-0.58004 0.49195,-1.17516 0.73364,-1.75515c0.13799,-0.32032 0.2339,-0.64277 0.37186,-0.96308c0.12982,-0.34414 0.29275,-0.63196 0.44792,-0.9826zM268.78019,179.5575c0.14974,0.19467 0.31663,0.35903 0.52601,0.48659c0.35878,0.36115 0.79433,0.6249 1.22991,0.88863c0.54438,0.33942 1.1398,0.62688 1.71848,0.90568c0.66251,0.32204 1.36048,0.46664 2.08382,0.60476c0.08423,0.00428 0.16844,0.00857 0.29476,0.01498c0.06863,-0.12118 0.13719,-0.24242 0.20581,-0.36361c0.01716,-0.0303 0.01755,-0.06925 0.0265,-0.12334c-0.11736,-0.06053 -0.24332,-0.1059 -0.37785,-0.13613c-0.22695,-0.05829 -0.41994,-0.13827 -0.64686,-0.19658c-0.55447,-0.16848 -1.04859,-0.48194 -1.57732,-0.69587c-0.27687,-0.12316 -0.57083,-0.21609 -0.83054,-0.36956c-0.56115,-0.34806 -1.16514,-0.62038 -1.69194,-1.02903c-0.13376,-0.10813 -0.28428,-0.22485 -0.41804,-0.33301c-0.0156,-0.12551 -0.16692,-0.16434 -0.2336,-0.2379c-0.07486,-0.09733 -0.14976,-0.19467 -0.34276,-0.27459c0.00586,0.25748 -0.15593,0.42852 -0.19179,0.64489c0.07526,0.0584 0.09088,0.18385 0.22541,0.21409zM269.15925,180.41846c-0.30845,-0.33524 -0.40048,-0.40223 -0.63562,-0.48435c-0.08614,0.19045 -0.16371,0.36578 -0.24988,0.55623c-0.06003,0.10604 -0.03589,0.21638 0.03902,0.31374c0.04994,0.06492 0.13375,0.10811 0.18367,0.173c0.19146,0.23578 0.4508,0.42819 0.72765,0.55137c0.07452,0.13626 0.2086,0.20545 0.34277,0.27463c0.74594,0.40422 1.4666,0.81494 2.25542,1.14343c0.35251,0.14263 0.7136,0.27012 1.06647,0.37376c0.28586,0.0691 0.58842,0.14683 0.89255,0.06876c0.1115,-0.19698 0.22295,-0.39393 0.33448,-0.5909c-0.15127,-0.03888 -0.28584,-0.06911 -0.40355,-0.09068c-0.53809,-0.12091 -1.05904,-0.27207 -1.54569,-0.48387c-0.62934,-0.26582 -1.21583,-0.60739 -1.81088,-0.93378c-0.28507,-0.14699 -0.50189,-0.37621 -0.7955,-0.50805c-0.09088,-0.18385 -0.24997,-0.28548 -0.40086,-0.3633zM261.69265,198.3534c0.18328,0.21195 0.40943,0.34816 0.65274,0.45404c0.00818,0.02378 0.03316,0.05625 0.04995,0.0649c0.41099,0.19236 0.83914,0.35442 1.28522,0.40827c0.2609,0.03666 0.51315,0.08845 0.77514,0.00824c0.4803,-0.84846 0.96054,-1.69689 1.46663,-2.59079c-0.49674,-0.04087 -0.94211,-0.17259 -1.37877,-0.3195c-0.38645,-0.12097 -0.69604,-0.33935 -1.06532,-0.49061c-0.13414,-0.06915 -0.24295,-0.14482 -0.3771,-0.21399c-0.1583,-0.1795 -0.35057,-0.33736 -0.59348,-0.4822c-0.2573,0.45454 -0.3633,0.94793 -0.56991,1.38945c-0.19842,0.46531 -0.38008,0.93929 -0.5699,1.38944c0.09087,0.18385 0.20784,0.28336 0.32486,0.38281zM262.99734,195.09195c0.07454,0.13625 0.20006,0.22061 0.33419,0.28974c0.09982,0.1298 0.25933,0.19247 0.40163,0.28542c0.46094,0.25724 0.96472,0.43874 1.46888,0.58127c0.30256,0.07773 0.62233,0.12514 0.94282,0.09468c0.03433,-0.0606 0.08538,-0.11255 0.11966,-0.17318c0.4203,-0.74241 0.83195,-1.4696 1.26895,-2.20337c0.46274,-0.77919 0.91691,-1.54325 1.37967,-2.32244c0.66858,-1.14284 1.34539,-2.26182 2.01396,-3.40466c0.76255,-1.27052 1.46621,-2.55185 2.26231,-3.80507c0.13685,-0.20345 0.24868,-0.43939 0.37737,-0.66664c-0.21873,-0.03449 -0.43785,-0.03004 -0.63945,-0.09486c-0.66405,-0.16625 -1.2934,-0.43207 -1.90561,-0.72816c-0.53654,-0.27667 -1.06452,-0.5685 -1.59252,-0.86035c-0.20084,-0.14271 -0.39345,-0.2616 -0.59428,-0.40431c-0.08266,-0.16007 -0.25074,-0.20759 -0.36774,-0.30705c-0.13376,-0.10813 -0.23358,-0.23789 -0.40984,-0.3092c-0.1193,0.13422 -0.15439,0.27274 -0.19765,0.38741c-0.32158,0.98903 -0.78588,1.92401 -1.15776,2.88707c-0.24207,0.61898 -0.48417,1.23794 -0.70943,1.86555c-0.32005,0.83322 -0.61473,1.65991 -0.92618,2.47797c-0.25101,0.67305 -0.50207,1.34612 -0.76988,2.01053c-0.27679,0.71851 -0.56175,1.41321 -0.85528,2.1231c-0.25922,0.64926 -0.52701,1.31368 -0.77805,1.98674c0.14231,0.09294 0.19148,0.23574 0.33418,0.28976zM280.09028,177.67764c-0.44604,-0.05386 -0.83251,-0.17484 -1.22749,-0.28063c-0.41178,-0.11446 -0.81534,-0.20509 -1.21852,-0.33472c-0.38644,-0.12098 -0.77249,-0.2809 -1.15032,-0.41704c-0.39464,-0.14478 -0.78924,-0.28952 -1.19203,-0.45806c-0.36925,-0.15127 -0.74672,-0.32636 -1.116,-0.47763c-0.37744,-0.17507 -0.72062,-0.41073 -1.13239,-0.52519c-0.30064,-0.27244 -0.70383,-0.40208 -1.0474,-0.59878c-0.3517,-0.22052 -0.7374,-0.41938 -1.08912,-0.63989c-0.33494,-0.21187 -0.6781,-0.44756 -1.00448,-0.67456c-0.34316,-0.23569 -0.63522,-0.52333 -1.00409,-0.7135c-0.23938,0.34633 -0.29941,0.45236 -0.31965,0.79426c0.1583,0.1795 0.31664,0.35904 0.52565,0.5255c0.25932,0.19244 0.51861,0.38488 0.78613,0.60113c0.51004,0.40004 1.01194,0.77624 1.59879,1.07887c0.40243,0.20751 0.81344,0.39986 1.18154,0.668c0.07526,0.0584 0.17587,0.11025 0.29359,0.13182c0.22694,0.05828 0.43634,0.18587 0.63755,0.28959c0.73777,0.38044 1.52699,0.66997 2.30805,0.93568c1.02438,0.37163 2.07523,0.61991 3.15182,0.82269c0.21016,0.04964 0.42033,0.09931 0.63163,0.03209c0.1622,-0.20997 0.27409,-0.4459 0.38674,-0.75966zM274.33688,172.38171c-0.24562,0.12781 -0.42421,0.29018 -0.61953,0.44391c-0.17819,0.12341 -0.29787,0.29659 -0.33372,0.51299c-0.09666,0.40034 -0.25218,0.78992 -0.47481,1.14488c-0.01716,0.0303 -0.02615,0.08439 -0.03471,0.09953c0.05811,0.08866 0.12518,0.12323 0.23476,0.12105c0.02533,-0.00648 0.05927,-0.02816 0.06785,-0.04333c0.29904,-0.41345 0.63158,-0.80956 0.99769,-1.18843c0.05109,-0.05194 0.11929,-0.13421 0.12006,-0.21213c0.07017,-0.277 0.14031,-0.55398 0.0424,-0.87852zM272.03576,174.15068c0.28186,-0.38314 0.5887,-0.73381 0.90374,-1.06069c0.10211,-0.10391 0.14541,-0.21861 0.16371,-0.36576c0.01907,-0.22502 -0.01253,-0.43708 -0.03554,-0.66427c0.00077,-0.0779 0.01013,-0.17092 -0.10764,-0.19251c-0.22965,0.21434 -0.46748,0.4049 -0.66359,0.63649c-0.07516,0.78333 -0.07517,0.7833 -0.47007,1.51918c0.02456,0.0714 0.08308,0.12113 0.2094,0.12755zM275.31142,177.77753c-0.22146,0.23813 -0.42615,0.48493 -0.63083,0.73171c-0.05109,0.05195 -0.10214,0.10391 -0.11968,0.17315c-0.01987,0.30291 -0.05645,0.59723 0.03324,0.89795c0.30412,-0.07805 0.48306,-0.27938 0.70376,-0.43963c0.11033,-0.08009 0.14501,-0.17967 0.15475,-0.31167c0.0031,-0.31157 0.03972,-0.6059 0.1017,-0.90663c0.00859,-0.01516 -0.01634,-0.04759 -0.03275,-0.09516c-0.05887,-0.01079 -0.13457,-0.03023 -0.21018,-0.04965zM277.71599,174.06541c-0.35521,0.13001 -0.58447,0.30541 -0.83047,0.47215c-0.08501,0.07361 -0.1111,0.158 -0.13721,0.2424c-0.10521,0.4155 -0.26081,0.80507 -0.49198,1.17519c-0.02574,0.04544 -0.03471,0.09953 -0.06041,0.14499c0.17587,0.11027 0.21797,0.11241 0.28658,-0.0088c0.223,-0.39396 0.52127,-0.72947 0.88618,-0.99148c0.22068,-0.16023 0.30685,-0.35069 0.33451,-0.5909c-0.00702,-0.14066 -0.00585,-0.2575 0.01284,-0.44358zM274.00572,175.18606c0.08384,0.04321 0.13491,-0.00878 0.16923,-0.06937c0.24015,-0.4242 0.60583,-0.76412 0.97158,-1.10403c0.28927,-0.28144 0.41948,-0.6645 0.35665,-1.1275c-0.19455,0.07584 -0.2971,0.21871 -0.45812,0.31183c-0.33063,0.20141 -0.49357,0.48927 -0.59806,0.82688c-0.12161,0.3679 -0.22649,0.74447 -0.44868,1.0605c-0.00893,0.05409 -0.00079,0.07792 0.00742,0.10171zM276.53378,173.47538c-0.20353,0.12992 -0.356,0.20789 -0.49166,0.29452c-0.22885,0.13646 -0.34855,0.30961 -0.40157,0.55629c-0.06235,0.33974 -0.20034,0.66006 -0.35509,0.9717c-0.04329,0.11471 -0.11189,0.23591 -0.17191,0.34195c0.07526,0.0584 0.11773,0.02159 0.13489,-0.00872c0.33254,-0.39617 0.68187,-0.78363 1.08972,-1.1214c0.05965,-0.06711 0.11071,-0.11907 0.13683,-0.20346c0.03624,-0.25535 0.08925,-0.50203 0.0588,-0.83089zM276.45351,178.17073c-0.09588,0.32247 -0.30057,0.56922 -0.4885,0.82466c-0.04288,0.07575 -0.1275,0.11042 -0.13684,0.20345c-0.01831,0.14718 0.04567,0.49332 0.15292,0.7248c0.20317,-0.09098 0.33959,-0.2555 0.50104,-0.38758c0.1275,-0.11043 0.17934,-0.24027 0.16411,-0.4047c-0.01404,-0.28126 0.00541,-0.54527 0.09234,-0.81363c0.0086,-0.01515 -0.00782,-0.06274 -0.016,-0.08652c-0.05851,-0.04975 -0.12556,-0.08434 -0.26905,-0.06043zM270.15307,176.21372c-0.01945,0.26398 -0.18206,0.51291 -0.14264,0.78769c0.12594,0.04537 0.21915,-0.00443 0.32052,-0.03046c0.18599,-0.0607 0.37156,-0.08241 0.54975,-0.20584c0.0538,-0.32459 0.25883,-0.61033 0.33795,-0.94141c-0.05811,-0.08866 -0.14192,-0.13192 -0.24294,-0.14483c-0.24641,0.20571 -0.51778,0.37896 -0.82267,0.5349zM273.23895,176.88503c-0.1193,0.13422 -0.2386,0.26842 -0.38247,0.33124c-0.347,0.15379 -0.47603,0.42004 -0.48769,0.74676c-0.00118,0.11682 -0.05265,0.20774 -0.00351,0.35055c0.25346,-0.06507 0.46518,-0.17118 0.67686,-0.27736c0.05927,-0.02816 0.09355,-0.08877 0.11967,-0.17315c0.06157,-0.26187 0.13134,-0.4999 0.19293,-0.76173c0.02576,-0.04544 0.0265,-0.12336 -0.11585,-0.21632zM272.18257,176.34033c-0.25575,0.29874 -0.5279,0.54985 -0.8831,0.67988c-0.07602,0.01952 -0.09356,0.08877 -0.12786,0.14937c-0.06042,0.14501 -0.10409,0.29868 -0.08066,0.48688c0.35484,-0.09106 0.62582,-0.22539 0.90536,-0.37483c0.09318,-0.04981 0.15285,-0.1169 0.18753,-0.21647c0.06086,-0.18394 0.13838,-0.35928 0.19919,-0.54322c0.0086,-0.01515 -0.00781,-0.06276 -0.016,-0.08654c-0.0503,-0.02594 -0.10062,-0.05189 -0.18443,-0.09507zM278.57009,175.46494c0.01868,-0.18608 0.046,-0.38734 0.0647,-0.57345c-0.00818,-0.02378 -0.01638,-0.04761 -0.03276,-0.09517c-0.26164,0.04123 -0.46518,0.17118 -0.62659,0.30323c-0.1485,0.53022 -0.27985,1.03009 -0.57146,1.54523c0.37198,-0.12137 0.39179,-0.42431 0.5536,-0.59532c0.18753,-0.21647 0.39999,-0.4005 0.61247,-0.58454zM274.30791,171.89702c-0.06475,-0.26826 -0.096,-0.51926 -0.27069,-0.74635c-0.12711,0.07145 -0.25383,0.10399 -0.35558,0.169c-0.10175,0.06498 -0.22027,0.12128 -0.28029,0.22736c-0.02686,0.16228 0.03903,0.31372 0.06284,0.463c0.02383,0.14927 0.00548,0.29644 0.09673,0.44135c0.2546,-0.18192 0.48385,-0.35726 0.74704,-0.55431zM270.94549,173.62763c0.32435,-0.41993 0.58906,-0.7728 0.85378,-1.12559c0.01716,-0.0303 0.05969,-0.0671 0.04328,-0.1147c-0.02304,-0.22717 0.00462,-0.46737 -0.1533,-0.68582c-0.18715,0.17752 -0.36572,0.33992 -0.52752,0.51096c0.0207,0.46088 -0.07632,0.90014 -0.21625,1.4152zM273.46335,178.89938c0.21096,-0.02824 0.33024,-0.16246 0.46593,-0.24907c0.16104,-0.09312 0.27175,-0.21218 0.29901,-0.41342c0.04481,-0.27048 0.08963,-0.54099 0.26039,-0.76613c-0.10024,-0.09084 -0.17587,-0.11027 -0.22733,-0.01936c-0.14539,0.21861 -0.29942,0.45237 -0.51151,0.59746c-0.2971,0.21871 -0.29165,0.51517 -0.2865,0.85054zM271.9921,177.71009c-0.36377,0.14517 -0.65971,0.24703 -0.93887,0.35751c-0.06003,0.10604 -0.04406,0.19261 -0.0448,0.27047c0.016,0.08654 -0.00192,0.1947 0.09827,0.28553c0.25309,-0.02609 0.50648,-0.09114 0.75174,-0.17995c0.06118,-0.22288 0.09704,-0.43929 0.13367,-0.73358zM274.20428,179.80991c-0.02224,-0.30507 -0.04492,-0.5712 -0.05895,-0.85246c-0.22887,0.13645 -0.44918,0.25775 -0.66946,0.37902c0.00586,0.25748 -0.01323,0.48253 0.11082,0.7226c0.22808,-0.05853 0.41446,-0.15818 0.6176,-0.24916zM275.38725,171.82719c-0.25266,-0.01286 -0.41446,0.15818 -0.60084,0.25779c-0.05927,0.02816 -0.08539,0.11254 -0.07757,0.17531c0.01483,0.2034 0.02147,0.38298 0.04485,0.5712c-0.00859,0.01516 0.02499,0.03244 0.05851,0.04976c0.23747,-0.15157 0.46665,-0.32699 0.70413,-0.47857c0.00194,-0.19471 -0.06359,-0.3851 -0.12913,-0.57548zM277.68679,173.61974c0.02725,-0.20123 0.04598,-0.38732 -0.0784,-0.58851c-0.21134,0.06721 -0.4562,0.11709 -0.64297,0.25567c-0.00975,0.13199 -0.053,0.2467 -0.03739,0.37217c-0.00119,0.11682 -0.08657,0.2294 0.03863,0.35266c0.24563,-0.12779 0.49125,-0.25559 0.72017,-0.39203zM274.71656,179.97621c-0.01011,0.17093 0.09791,0.32451 0.19734,0.49322c0.23708,-0.11261 0.48192,-0.16256 0.66908,-0.34005c-0.06553,-0.19039 -0.05503,-0.40025 -0.17086,-0.61658c-0.23747,0.15157 -0.45814,0.31181 -0.69557,0.46341zM277.6303,178.4644c-0.17115,0.26407 -0.28377,0.57789 -0.48851,0.82466c-0.16218,0.20998 -0.11338,0.39168 0.01919,0.61665c0.21169,-0.10613 0.33959,-0.2555 0.49279,-0.41138c-0.08076,-0.35479 -0.00166,-0.68592 -0.02352,-1.02993zM270.1266,172.93134c0.07565,0.01944 0.10135,-0.02602 0.12711,-0.07145c0.12826,-0.1883 0.24834,-0.40043 0.39338,-0.5801c0.23001,-0.25329 0.1481,-0.49126 0.02446,-0.77033c-0.09359,0.08879 -0.16996,0.14723 -0.22962,0.21433c-0.1532,0.15589 -0.26432,0.31387 -0.20778,0.55836c0.02382,0.14927 -0.01988,0.30294 -0.05491,0.44146c-0.05109,0.05195 -0.12748,0.11042 -0.05263,0.20773zM269.17595,176.17965c0.11812,-0.01736 0.20276,-0.05203 0.27878,-0.07155c0.23627,-0.03473 0.3638,-0.14517 0.43317,-0.34427c0.05225,-0.16878 0.16337,-0.32681 0.23235,-0.48696c0.02576,-0.04545 0.06823,-0.08226 -0.04057,-0.15795c-0.20394,0.16886 -0.44137,0.3205 -0.70377,0.43963c-0.05927,0.02816 -0.10212,0.10389 -0.13645,0.16449c-0.03508,0.13847 -0.0616,0.26187 -0.06351,0.45658zM273.03168,179.08782c0.0187,-0.18608 0.06274,-0.37867 0.02253,-0.57558c-0.26202,0.08022 -0.52364,0.12145 -0.75251,0.25788c0.01485,0.20339 -0.02063,0.38081 0.11235,0.56685c0.21135,-0.0672 0.43088,-0.11056 0.6176,-0.24917zM275.89425,173.38048c0.262,-0.08022 0.46553,-0.21016 0.63549,-0.35738c-0.01483,-0.20338 -0.0215,-0.38296 -0.09521,-0.59715c-0.18562,0.02174 -0.33806,0.09973 -0.48231,0.2015c-0.01089,0.24882 -0.03854,0.48903 -0.05803,0.75302zM271.14489,179.01526c0.04057,0.15796 0.04798,0.25961 0.09754,0.36345c0.02458,0.07139 0.05771,0.12763 0.09089,0.18388c0.21054,0.01071 0.4215,-0.01753 0.60788,-0.11716c0.00194,-0.19471 0.00384,-0.38945 -0.10381,-0.58199c-0.22808,0.05853 -0.43904,0.08679 -0.69247,0.15183zM269.39375,174.60863c-0.28737,0.08673 -0.49009,0.13873 -0.72678,0.21242c-0.05109,0.05194 -0.09435,0.16662 -0.0955,0.28349c-0.01791,0.10818 -0.11149,0.19696 -0.05377,0.3246c0.17664,0.03236 0.32012,0.00848 0.46401,-0.05434c0.12046,-0.25107 0.24914,-0.47832 0.41208,-0.76617zM274.40966,170.99033c0.04098,0.11901 0.08192,0.238 0.12283,0.35697c0.04099,0.11901 0.09052,0.22281 0.13145,0.34179c0.2117,-0.10611 0.39771,-0.16681 0.52559,-0.31616c0.00116,-0.11683 -0.08229,-0.19901 -0.14037,-0.2877c-0.05811,-0.08866 -0.09052,-0.22281 -0.21642,-0.26818c-0.16068,0.0542 -0.30412,0.07805 -0.42305,0.17333zM273.15583,180.16965c-0.04839,-0.22067 -0.02927,-0.44574 -0.16192,-0.6707c-0.18597,0.06071 -0.3552,0.13002 -0.5412,0.1907c0.04838,0.22067 0.07177,0.40892 0.23012,0.58842c0.16025,-0.01524 0.30337,-0.00015 0.47298,-0.10843zM272.2258,171.9782c0.25499,-0.22082 0.47605,-0.42 0.69708,-0.61917c-0.0156,-0.12551 -0.01442,-0.24235 -0.11466,-0.33316c-0.2788,0.07156 -0.48269,0.24041 -0.70336,0.40066c0.01561,0.12551 0.0312,0.25098 0.07215,0.36996c-0.01756,0.06926 0.00742,0.10168 0.04874,0.18171zM270.61728,177.84281c-0.00629,-0.21855 0.09666,-0.40037 0.03112,-0.59075c-0.2702,0.05641 -0.51506,0.10631 -0.75216,0.21896c0.05735,0.1666 -0.02844,0.31807 0.08778,0.49546c0.21053,0.0107 0.38838,-0.07379 0.63324,-0.12366zM278.60419,173.7209c-0.16883,0.03039 -0.32946,0.08457 -0.46516,0.17121c-0.00229,0.2337 -0.0214,0.45872 -0.04085,0.7227c0.19492,-0.11477 0.36416,-0.18411 0.58408,-0.26643c0.00231,-0.2337 0.01283,-0.44359 -0.07806,-0.62748zM269.07111,176.55621c-0.04445,0.23155 -0.08846,0.42415 0.01058,0.63182c0.17702,-0.0066 0.32869,-0.00664 0.4644,-0.09327c0.03586,-0.21638 0.08845,-0.42411 0.12469,-0.67947c-0.21096,0.02824 -0.40512,0.06515 -0.59968,0.14097zM276.96102,172.87362c0.22028,-0.12128 0.45622,-0.11711 0.5841,-0.26648c-0.01483,-0.20338 -0.09752,-0.36346 -0.20555,-0.51704c-0.19417,0.0369 -0.37978,0.05861 -0.52443,0.19931c0.04875,0.18172 0.08078,0.3548 0.1459,0.58413zM274.50808,180.61249c-0.05735,-0.16659 -0.08114,-0.31585 -0.19775,-0.45428c-0.21169,0.10613 -0.4562,0.11707 -0.63478,0.27946c0.04056,0.15796 0.10687,0.27043 0.24921,0.3634c0.20275,-0.05204 0.39731,-0.12785 0.58328,-0.18857zM271.60891,171.30776c-0.03198,-0.1731 -0.08152,-0.27687 -0.17315,-0.38292c-0.18599,0.0607 -0.37237,0.1603 -0.47525,0.34212c0.04915,0.14279 0.09828,0.28552 0.13885,0.4435c0.22849,-0.09748 0.34816,-0.27064 0.50958,-0.40272zM277.99245,180.19736c-0.0577,-0.12761 -0.10726,-0.23148 -0.19927,-0.29849c-0.18635,0.0996 -0.33919,0.21658 -0.46707,0.36594c0.03234,0.13412 0.0819,0.23796 0.18212,0.32879c0.20317,-0.09098 0.32282,-0.26416 0.48422,-0.39623zM271.54039,179.92381c-0.00232,0.23367 0.12324,0.318 0.28272,0.38068c0.11735,0.06053 0.2519,0.09075 0.37082,-0.00453c-0.03198,-0.1731 -0.07254,-0.33101 -0.18057,-0.48459c-0.16883,0.03039 -0.32089,0.06941 -0.47297,0.10843zM279.34954,175.88641c0.02688,-0.16228 0.09549,-0.28347 0.02101,-0.41975c-0.48115,0.08465 -0.5603,0.41573 -0.5727,0.82035c0.18676,-0.13856 0.36497,-0.26202 0.5517,-0.40058zM270.17827,178.7713c0.18522,0.01724 0.32869,-0.00666 0.50649,-0.09114c-0.07452,-0.13626 -0.00552,-0.29645 -0.10535,-0.4262c-0.1092,-0.03675 -0.17701,0.00657 -0.26981,0.01743c-0.10134,0.02601 -0.20236,0.01309 -0.26241,0.11914c0.01561,0.12551 0.03123,0.25101 0.13106,0.38077zM274.42564,175.32431c0.13297,0.18599 0.25073,0.2076 0.34467,0.07988c0.12827,-0.18829 0.22301,-0.39392 0.30914,-0.58438c0.03432,-0.06057 0.06039,-0.14502 -0.02303,-0.22718c-0.23821,0.22949 -0.44288,0.47625 -0.63081,0.73167zM275.44666,181.1356c-0.01793,0.10819 0.02341,0.18824 0.11544,0.25529c0.24488,-0.04989 0.51472,-0.06733 0.73539,-0.22757c-0.14976,-0.19466 -0.31783,-0.24222 -0.52095,-0.15121c-0.10136,0.02602 -0.22775,0.0196 -0.32988,0.1235zM276.75825,176.33137c0.23471,0.12104 0.30222,0.11663 0.37939,-0.01967c0.1033,-0.22076 0.2152,-0.45666 0.25142,-0.712c-0.28853,0.20355 -0.5517,0.40059 -0.63082,0.73168zM278.3904,179.1499c-0.08538,0.11253 -0.1454,0.21865 -0.22221,0.31601c-0.13688,0.20345 -0.13683,0.20347 0.12208,0.43488c0.09359,-0.08879 0.21251,-0.18405 0.26354,-0.23599c-0.06551,-0.1904 -0.1061,-0.3483 -0.16344,-0.51488zM276.86696,171.31795c-0.1435,0.02386 -0.31156,-0.02362 -0.40591,0.14303c0.05771,0.12763 0.14079,0.24876 0.2067,0.40018c0.16885,-0.03038 0.34585,-0.03693 0.46476,-0.13222c-0.07454,-0.13627 -0.12364,-0.27908 -0.26558,-0.411zM276.68995,179.8194c-0.1953,0.15375 -0.40744,0.2988 -0.60275,0.45255c-0.00932,0.09303 0.00663,0.17956 0.12437,0.20114c0.22808,-0.05853 0.43984,-0.16467 0.60162,-0.3357c-0.0156,-0.12551 -0.04838,-0.22066 -0.12328,-0.31801zM279.02927,174.19459c0.12594,0.04537 0.24411,0.02802 0.36262,-0.02832c0.00078,-0.07791 0.00154,-0.15578 0.0023,-0.23369c-0.00739,-0.10168 0.00191,-0.19474 -0.08154,-0.2769c-0.1006,-0.05189 -0.20156,-0.06483 -0.31154,-0.02363c0.00666,0.17961 0.02151,0.38298 0.02811,0.56254zM275.89769,172.18829c0.16885,-0.03038 0.29596,-0.10186 0.41487,-0.19711c-0.08266,-0.16007 -0.1486,-0.31149 -0.22307,-0.44775c-0.15989,-0.02369 -0.27841,0.03262 -0.34665,0.11487c0.04874,0.18172 0.09752,0.36345 0.15482,0.53006zM279.43405,175.01006c0.00116,-0.11683 0.00232,-0.23367 -0.01327,-0.35919c-0.00818,-0.02377 -0.04175,-0.04109 -0.06672,-0.07355c-0.0928,0.01085 -0.21054,-0.01072 -0.32947,0.08457c-0.01829,0.14718 -0.0705,0.31595 -0.02176,0.49768c0.177,-0.00661 0.29552,-0.06294 0.43122,-0.14955zM279.58525,176.77131c0.11111,-0.15801 0.31272,-0.09323 0.39847,-0.24472c0.00153,-0.15575 0.062,-0.30077 -0.00356,-0.49115c-0.16025,0.01524 -0.30377,0.03913 -0.33061,0.20141c-0.02688,0.16229 -0.12083,0.28998 -0.0643,0.53447zM276.77941,181.00076c0.1271,-0.07146 0.27097,-0.13431 0.38949,-0.19061c0.02535,-0.00649 0.02575,-0.04546 0.04287,-0.07577c-0.06669,-0.07353 -0.10762,-0.19252 -0.28428,-0.22485c-0.15242,0.07799 -0.31349,0.17109 -0.49128,0.2556c0.08305,0.12112 0.17511,0.18815 0.34316,0.23569zM275.84066,171.14107c-0.04913,-0.14279 -0.08971,-0.30072 -0.13067,-0.41968c-0.17664,-0.03237 -0.32015,-0.00851 -0.44685,0.02404c-0.04327,0.11473 0.06553,0.19035 0.10688,0.27042c0.04137,0.08005 0.07411,0.17522 0.20007,0.2206c0.08423,0.00428 0.17704,-0.0066 0.27062,-0.09536zM269.06964,177.55367c0.02383,0.14927 0.04799,0.25965 0.07217,0.36996c-0.0004,0.03895 0.04134,0.08006 0.04954,0.10385c0.11735,0.06053 0.23552,0.04317 0.35404,-0.01318c-0.01523,-0.16443 -0.0137,-0.32024 -0.07096,-0.4868c-0.12633,-0.00641 -0.24449,0.01095 -0.40474,0.02618zM278.85164,179.36817c0.1786,-0.16237 0.35712,-0.32475 0.42692,-0.56279c-0.17663,-0.03235 -0.31939,-0.08639 -0.47181,-0.00842c-0.062,0.30078 -0.06198,0.30079 0.04489,0.57119zM270.34319,179.13037c0.12209,0.43488 0.13884,0.44348 0.52647,0.44758c-0.04057,-0.15796 -0.10648,-0.30934 -0.14702,-0.4673c-0.12594,-0.04537 -0.24407,-0.02799 -0.37939,0.01965zM278.54104,173.29689c-0.01522,-0.16443 -0.04762,-0.29858 -0.14744,-0.42837c-0.04212,-0.00214 -0.10958,0.00221 -0.17704,0.00657c-0.05069,0.01302 -0.10998,0.04117 -0.16062,0.05417c0.01524,0.16444 0.00513,0.3354 0.09637,0.48032c0.12631,0.00641 0.26164,-0.04123 0.38873,-0.11273zM268.46668,176.32283c0.06744,-0.00438 0.16025,-0.01526 0.20277,-0.05204c0.14467,-0.14073 0.19684,-0.30948 0.17383,-0.53671c-0.13492,0.0087 -0.28619,-0.03014 -0.38797,0.03484c-0.0187,0.18608 -0.09627,0.36139 0.01137,0.55391zM272.64326,170.66673c-0.00817,-0.02378 -0.01638,-0.04759 -0.03276,-0.09517c-0.28661,0.00882 -0.54862,0.08901 -0.81061,0.16922c-0.00973,0.13198 0.03161,0.21201 0.15715,0.29634c0.22028,-0.12128 0.4573,-0.23393 0.68622,-0.37038zM276.14553,175.23251c-0.22925,0.17539 -0.46666,0.32698 -0.59571,0.59318c-0.0086,0.01515 0.04136,0.08001 0.07487,0.09731c0.08384,0.0432 0.18521,0.0172 0.22805,-0.05857c0.16181,-0.17102 0.23976,-0.38529 0.29277,-0.63194zM278.28785,172.48125c-0.03235,-0.13414 -0.06475,-0.26828 -0.14781,-0.38941c-0.11736,-0.06053 -0.21836,-0.07346 -0.36222,-0.01065c0.06592,0.15144 0.12324,0.31802 0.19772,0.45428c0.11772,0.02157 0.21053,0.01069 0.31231,-0.05427zM272.75467,180.68699c0.22617,0.13619 0.41878,0.25513 0.68002,0.25282c0.02687,-0.16228 -0.05616,-0.28342 -0.16458,-0.39805c-0.1856,0.02175 -0.34585,0.03696 -0.51547,0.14526zM268.29963,174.47508c0.20238,-0.01309 0.22769,-0.01956 0.25346,-0.06503c0.10254,-0.14284 0.0959,-0.32246 0.08066,-0.48688c-0.0078,-0.06272 -0.0831,-0.12111 -0.18485,-0.05615c0.0234,0.18823 -0.15518,0.35063 -0.14926,0.6081zM273.25388,171.11863c0.23708,-0.11261 0.48233,-0.20149 0.64486,-0.45042c-0.29475,-0.01498 -0.51509,0.10631 -0.71819,0.1973c-0.02614,0.08439 0.00704,0.14061 0.07335,0.2531zM269.60078,178.37563c-0.10957,0.00223 -0.21055,-0.01069 -0.32011,-0.00848c0.00664,0.17962 0.04722,0.33754 0.25739,0.38718c0.05888,0.0108 0.11773,0.02156 0.16883,-0.03039c0.01792,-0.10818 -0.03161,-0.21205 -0.1061,-0.3483zM277.96744,176.75918c0.15093,0.0778 0.23511,0.08211 0.28695,-0.04774c0.04329,-0.11472 0.08654,-0.22942 0.11303,-0.35278c0.00893,-0.05408 0.00117,-0.11686 -0.07448,-0.13629c-0.15322,0.15587 -0.24755,0.32253 -0.32551,0.53679zM271.76736,173.17064c-0.1786,0.16238 -0.3236,0.34207 -0.3848,0.56496c-0.00859,0.01517 0.04137,0.08002 0.05811,0.08866c0.0335,0.01729 0.0928,-0.01085 0.10995,-0.04118c0.09474,-0.2056 0.2312,-0.37015 0.21675,-0.6125zM270.67096,173.27078c0.03547,-0.17744 0.12982,-0.34413 0.12359,-0.56265c-0.19531,0.15373 -0.3232,0.30311 -0.32435,0.41994c-0.01792,0.10818 0.04913,0.1428 0.2008,0.14269zM274.48402,181.34383c0.22695,0.05829 0.46172,0.17934 0.68199,0.05805c-0.2332,-0.27681 -0.45347,-0.15553 -0.68199,-0.05805zM275.81014,178.46535c0.03351,0.01728 0.05894,0.01081 0.09244,0.02809c0.06898,-0.16014 0.21324,-0.26194 0.20659,-0.44152c-0.09201,-0.06704 -0.15091,-0.07781 -0.24409,-0.02799c-0.00973,0.13198 -0.02804,0.27913 -0.05492,0.44146zM273.86253,174.32928c-0.17037,0.18618 -0.29824,0.33555 -0.38441,0.526c-0.01716,0.0303 -0.00079,0.07788 0.04952,0.10382c0.01679,0.00866 0.05887,0.01078 0.08423,0.00427c0.1786,-0.16237 0.28148,-0.34418 0.25064,-0.6341zM268.6488,176.65161c-0.11774,-0.02156 -0.18518,-0.01722 -0.1774,0.04554c-0.00973,0.13198 -0.00269,0.27263 0.00433,0.41328c0.01599,0.08654 0.06627,0.11248 0.15089,0.07781c0.04407,-0.19259 0.07093,-0.35491 0.02217,-0.53662zM277.57934,171.70487c0.0928,-0.01085 0.17704,-0.0066 0.26983,-0.01744c0.02534,-0.00648 0.04249,-0.03682 0.08501,-0.07361c-0.20117,-0.10376 -0.35989,-0.24429 -0.6122,-0.29611c0.06592,0.15144 0.11545,0.25527 0.25739,0.38717zM271.57895,176.02904c-0.069,0.16014 -0.12943,0.30518 -0.21558,0.49563c0.25345,-0.06507 0.38094,-0.17546 0.44992,-0.33561c-0.05811,-0.08867 -0.09983,-0.12978 -0.23436,-0.16002zM277.05826,178.36513c0.00702,0.14066 -0.12084,0.28997 0.01214,0.47601c0.25613,-0.33769 0.29901,-0.41341 0.23232,-0.48698c-0.08384,-0.0432 -0.15131,-0.03887 -0.24449,0.01095zM272.83932,173.84084c-0.32986,0.12348 -0.43274,0.30532 -0.49436,0.56716c0.33767,-0.06078 0.32356,-0.34204 0.49436,-0.56716zM279.25963,176.46637c-0.30451,0.11699 -0.39888,0.28368 -0.46825,0.48278c-0.00859,0.01516 0.01639,0.04759 0.04991,0.06488c0.0503,0.02595 0.10099,0.01292 0.11813,-0.01737c0.10255,-0.14283 0.17153,-0.30298 0.30018,-0.53026zM277.99183,178.55293c-0.02688,0.16228 -0.09588,0.32247 0.01174,0.51492c0.13607,-0.12558 0.19648,-0.27058 0.24834,-0.40042c-0.07486,-0.09733 -0.15049,-0.11675 -0.26009,-0.11453zM279.98321,175.72381c-0.04019,-0.1969 0.05416,-0.36355 -0.07921,-0.51062c-0.17037,0.18618 -0.17036,0.18617 -0.10601,0.49339c0.04212,0.00214 0.08423,0.00428 0.18521,0.01722zM275.11372,180.72899c0.26047,0.07558 0.45504,-0.00024 0.64141,-0.09988c0.00116,-0.11683 -0.06592,-0.15144 -0.14192,-0.13192c-0.15242,0.078 -0.32168,0.14732 -0.49945,0.23181zM278.90407,173.22959c0.1092,0.03675 0.20159,0.06482 0.30333,-0.00016c-0.02418,-0.11032 -0.04836,-0.2207 -0.14036,-0.28769c-0.0924,-0.02809 -0.15987,-0.0237 -0.22774,0.01961c-0.00932,0.09304 0.01523,0.16443 0.06477,0.26826zM273.71277,177.54042c0.11891,-0.09525 0.20394,-0.16889 0.22185,-0.27709c0.0004,-0.03895 -0.02456,-0.0714 -0.04953,-0.10385c-0.0503,-0.02595 -0.13454,-0.03024 -0.14349,0.02384c-0.05147,0.09093 -0.1115,0.19697 -0.02881,0.35707zM276.54208,170.93512c-0.12519,-0.12327 -0.30222,-0.11667 -0.4535,-0.15553c0.08971,0.30073 0.12327,0.31799 0.4535,0.15553zM269.74057,172.77142c0.19572,-0.19269 0.19572,-0.19268 0.09627,-0.36141c-0.08501,0.07361 -0.17858,0.1624 -0.09627,0.36141zM274.9671,177.6587c-0.04137,-0.08005 -0.09165,-0.10597 -0.12555,-0.08433c-0.15242,0.078 -0.16141,0.13208 -0.08768,0.34626c0.11034,-0.08009 0.16183,-0.17103 0.21328,-0.26194zM279.89519,176.95071c-0.12672,0.03255 -0.23667,0.07372 -0.26319,0.19702c0.29401,0.09286 0.32789,0.07125 0.26319,-0.19702zM269.68867,172.05962c-0.16068,0.0542 -0.24604,0.16672 -0.32281,0.26412c-0.03432,0.06058 -0.00974,0.13201 0.12518,0.12328c0.07678,-0.09741 0.1622,-0.20998 0.19766,-0.3874zM279.85132,174.57925c-0.1193,0.13422 -0.1119,0.23591 0.0051,0.33539c0,0 0.04212,0.00214 0.05069,-0.01302c0.06822,-0.08228 0.00196,-0.19472 -0.05576,-0.3224zM272.65794,176.8399c0.11774,0.02156 0.18562,-0.02174 0.20313,-0.09097c0.01716,-0.0303 0.00077,-0.0779 -0.02418,-0.11034c-0.02498,-0.03244 -0.09239,-0.02808 -0.10954,0.00224c-0.04251,0.03681 -0.07681,0.09739 -0.06941,0.19909zM278.60922,172.37295c0.00703,0.14065 0.04836,0.22069 0.21683,0.22923c-0.01524,-0.16444 -0.06514,-0.22933 -0.21683,-0.22923z" fill="#000000"/><path d="M269.4378,182.06919c0.52796,0.29184 1.05597,0.58369 1.59254,0.86035c0.60365,0.31127 1.24156,0.56192 1.90561,0.72817c0.21017,0.04965 0.40393,0.05173 0.63943,0.09488c-0.13724,0.24244 -0.24049,0.46316 -0.37735,0.66662c-0.78751,1.23809 -1.49977,2.53453 -2.26231,3.80506c-0.68538,1.13416 -1.34537,2.26183 -2.01396,3.40466c-0.46274,0.7792 -0.91695,1.54325 -1.3797,2.32242c-0.43703,0.73376 -0.83192,1.46962 -1.26892,2.20337c-0.03433,0.0606 -0.06863,0.12121 -0.11969,0.17316c-0.32908,0.04564 -0.62348,-0.00834 -0.94282,-0.09469c-0.50419,-0.14255 -1.00797,-0.32404 -1.46887,-0.58127c-0.15093,-0.0778 -0.31039,-0.14046 -0.40163,-0.28541c0.16808,0.04751 0.31,0.1794 0.53732,0.19878c0.01988,-0.30291 0.21595,-0.53454 0.33642,-0.78563c0.00859,-0.01516 0.01715,-0.03029 0.0004,-0.03894c0.09745,-0.47822 0.34618,-0.9176 0.50248,-1.38508c0.05223,-0.16878 0.05415,-0.36354 0.17343,-0.49775c0.20509,-0.28571 0.21711,-0.65141 0.4222,-0.93716c0.00859,-0.01516 0.00895,-0.0541 0.02614,-0.08441c0.11262,-0.31378 0.19999,-0.62108 0.34616,-0.91759c0.18867,-0.33332 0.22609,-0.70553 0.44829,-1.02154c0.01089,-0.24882 0.15595,-0.42849 0.25925,-0.64924c0.01716,-0.0303 0.02573,-0.04548 0.04289,-0.07574c0.0374,-0.37219 0.28456,-0.65577 0.38904,-0.99339c0.10446,-0.33759 0.3181,-0.63848 0.43932,-0.96744c0.14698,-0.37442 0.23501,-0.75958 0.4912,-1.09727c0.01716,-0.0303 0.0429,-0.07576 0.04328,-0.11471c-0.00629,-0.21855 0.14697,-0.3744 0.23314,-0.56485c0.05147,-0.09093 0.12825,-0.18829 0.14618,-0.29651c0.01015,-0.17093 0.0955,-0.28349 0.1727,-0.41987c0.04289,-0.07576 0.10255,-0.14288 0.10329,-0.22076c0.01089,-0.24882 0.16449,-0.44365 0.27598,-0.6406c0.04289,-0.07576 0.10251,-0.14286 0.10331,-0.22076c0.01053,-0.20987 0.12161,-0.36791 0.21598,-0.53456c0.15438,-0.27275 0.19139,-0.60594 0.36253,-0.87c0.04249,-0.03682 0.01795,-0.10818 0.02687,-0.16229z" fill="#87d7dc"/><path d="M269.43779,182.06922c-0.00897,0.05408 0.01562,0.1255 -0.01012,0.17095c-0.17113,0.26408 -0.22492,0.58865 -0.36253,0.87002c-0.09435,0.16665 -0.20547,0.32469 -0.21598,0.53455c-0.00078,0.07791 -0.06042,0.14502 -0.10326,0.22075c-0.11147,0.19697 -0.24836,0.40041 -0.27604,0.64061c-0.00077,0.0779 -0.07719,0.13638 -0.10328,0.22077c-0.07718,0.13635 -0.14581,0.25758 -0.1727,0.41987c-0.01792,0.10818 -0.09475,0.20563 -0.1462,0.29653c-0.08614,0.19045 -0.23936,0.34634 -0.23311,0.56486c-0.0004,0.03895 -0.02612,0.0844 -0.04327,0.1147c-0.24756,0.32254 -0.34424,0.7229 -0.49118,1.0973c-0.12982,0.34413 -0.34345,0.64497 -0.43937,0.96742c-0.10444,0.33758 -0.35163,0.62119 -0.38902,0.99337c0.00816,0.02379 -0.02575,0.04546 -0.0429,0.07577c-0.11147,0.19697 -0.24832,0.40042 -0.25923,0.64928c-0.23901,0.30738 -0.27637,0.67958 -0.44832,1.02152c-0.16296,0.28786 -0.23349,0.60381 -0.34618,0.91759c-0.01716,0.0303 -0.00893,0.05413 -0.02611,0.08442c-0.20509,0.28571 -0.2171,0.6514 -0.42219,0.93715c-0.1111,0.15801 -0.10448,0.3376 -0.17344,0.49776c-0.17307,0.45881 -0.40503,0.90685 -0.50248,1.38506c-0.00859,0.01516 -0.00037,0.03896 -0.00037,0.03896c-0.12045,0.25108 -0.31659,0.4827 -0.33642,0.78564c-0.21055,-0.0107 -0.34392,-0.15779 -0.53732,-0.1988c-0.13413,-0.06915 -0.26825,-0.13836 -0.33417,-0.28981c0.05147,-0.09093 0.12825,-0.18829 0.14616,-0.29649c0.06273,-0.37867 0.25966,-0.68821 0.40622,-1.02369c0.14656,-0.33544 0.20929,-0.71413 0.44828,-1.02151c0.01089,-0.24882 0.15591,-0.42852 0.25922,-0.64927c0.01716,-0.0303 0.04288,-0.07575 0.04327,-0.11471c-0.00664,-0.17961 0.11266,-0.31378 0.1731,-0.45882c0.04289,-0.07576 0.08574,-0.15153 0.1033,-0.22075c0.10485,-0.37656 0.235,-0.7596 0.43229,-1.10808c0.02576,-0.04545 0.07684,-0.09741 0.06042,-0.145c0.00193,-0.1947 0.10444,-0.33759 0.19021,-0.48911c0.1111,-0.15801 0.07949,-0.37007 0.1992,-0.5432c0.154,-0.23377 0.1988,-0.50427 0.30249,-0.76397c0.15515,-0.35063 0.23466,-0.72064 0.43194,-1.0691c0.03433,-0.0606 0.09397,-0.12772 0.08614,-0.19047c0.00158,-0.15579 0.09547,-0.28349 0.15592,-0.42848c0.06862,-0.1212 0.12045,-0.25104 0.14699,-0.37441c0.04445,-0.23155 0.12238,-0.4458 0.24243,-0.65794c0.16334,-0.3268 0.22607,-0.70551 0.46504,-1.01288c0.01716,-0.0303 0.02615,-0.08438 0.04329,-0.11471c0.12982,-0.34413 0.24282,-0.69686 0.4062,-1.02365c0.18867,-0.33332 0.24323,-0.73582 0.46547,-1.05183c0.02576,-0.04545 0.01791,-0.10819 0.02687,-0.16229c0.07796,-0.21425 0.18126,-0.43501 0.34306,-0.60602c0.09241,0.02809 0.15948,0.06263 0.23512,0.0821c0.20903,0.16651 0.39307,0.30055 0.60247,0.42811z" fill="#b0eef2"/><path d="M280.09027,177.67766c-0.11264,0.31376 -0.22456,0.5497 -0.42028,0.74239c-0.20277,0.05203 -0.41293,0.0024 -0.63164,-0.0321c-1.068,-0.21797 -2.12743,-0.45109 -3.15181,-0.8227c-0.77247,-0.28089 -1.56172,-0.5704 -2.30805,-0.93567c-0.20119,-0.10376 -0.41062,-0.2313 -0.63756,-0.28963c-0.09241,-0.02809 -0.19302,-0.07998 -0.2936,-0.13183c-0.36812,-0.26812 -0.78768,-0.44532 -1.18155,-0.66798c-0.56154,-0.30911 -1.08876,-0.67884 -1.59879,-1.07886c-0.25073,-0.20758 -0.51007,-0.40004 -0.78615,-0.60109c-0.21756,-0.15136 -0.36733,-0.34599 -0.52566,-0.52552c0.03703,-0.33325 0.08028,-0.44792 0.31966,-0.79425c0.36029,0.20533 0.66096,0.47782 1.00409,0.7135c0.32638,0.22702 0.66952,0.46268 1.00449,0.67457c0.35171,0.22053 0.72882,0.43454 1.0891,0.6399c0.33494,0.21187 0.73816,0.34144 1.04743,0.59881c0.41179,0.11447 0.75491,0.35014 1.13239,0.5252c0.36069,0.16643 0.74673,0.32632 1.11602,0.4776c0.38604,0.15992 0.78064,0.30466 1.19203,0.45811c0.37785,0.13612 0.76387,0.29604 1.15034,0.41699c0.40319,0.1296 0.80675,0.22028 1.21854,0.33475c0.42854,0.1231 0.81495,0.24407 1.26104,0.29793z" fill="#d1eaeb"/><path d="M268.84348,181.66492c-0.07564,-0.01944 -0.14273,-0.05402 -0.23512,-0.08208c-0.1618,0.17104 -0.27328,0.36797 -0.34306,0.60603c-0.00897,0.05409 -0.00116,0.11684 -0.02688,0.16228c-0.22222,0.316 -0.29354,0.7099 -0.46546,1.05184c-0.18011,0.31817 -0.27639,0.67955 -0.40624,1.02365c-0.01716,0.0303 -0.02613,0.08441 -0.04327,0.1147c-0.23901,0.30737 -0.2764,0.67954 -0.46508,1.01287c-0.11147,0.19697 -0.19802,0.42637 -0.24243,0.65793c-0.03507,0.13845 -0.08691,0.26835 -0.14697,0.37441c-0.07718,0.13635 -0.16256,0.24891 -0.15592,0.42851c0.00779,0.06272 -0.05187,0.12986 -0.08618,0.19045c-0.18867,0.33332 -0.27673,0.7185 -0.43191,1.06911c-0.10372,0.2597 -0.14848,0.5302 -0.3025,0.76396c-0.1111,0.15801 -0.0795,0.37004 -0.1992,0.5432c-0.10253,0.14286 -0.21364,0.30087 -0.19025,0.48911c-0.00897,0.05409 -0.03468,0.09954 -0.06039,0.14499c-0.19726,0.34845 -0.31891,0.71633 -0.43229,1.10807c-0.02614,0.08439 -0.08574,0.15151 -0.1033,0.22072c-0.07718,0.13635 -0.17969,0.27924 -0.17305,0.45881c-0.0004,0.03895 -0.02611,0.0844 -0.04327,0.11469c-0.11147,0.19697 -0.24834,0.40043 -0.25923,0.64927c-0.23899,0.30738 -0.30173,0.68607 -0.44827,1.02151c-0.14656,0.33544 -0.35201,0.66011 -0.4062,1.02364c-0.01793,0.10819 -0.09475,0.2056 -0.14618,0.29652c-0.15949,-0.06268 -0.20863,-0.20543 -0.31744,-0.2811c0.27636,-0.67955 0.51885,-1.33748 0.77808,-1.98673c0.27678,-0.71851 0.56172,-1.41323 0.85523,-2.12309c0.26781,-0.66443 0.51883,-1.33749 0.76988,-2.01054c0.32005,-0.83322 0.61472,-1.65992 0.92617,-2.47799c0.24208,-0.61898 0.48419,-1.23792 0.70946,-1.86553c0.37187,-0.96307 0.81941,-1.90673 1.15773,-2.88708c0.05184,-0.12984 0.07014,-0.27699 0.19764,-0.3874c0.15093,0.0778 0.27607,0.20107 0.40985,0.3092c0.0667,0.07352 0.23474,0.12103 0.32603,0.26597z" fill="#87d7dc"/><path d="M263.46106,195.91825c0.36927,0.15126 0.68748,0.35449 1.06531,0.49058c0.43673,0.14692 0.88204,0.27864 1.37877,0.31952c-0.49744,0.87876 -0.9863,1.74235 -1.46659,2.5908c-0.27878,0.07157 -0.53106,0.01974 -0.77517,-0.00825c-0.46284,-0.06249 -0.86564,-0.23107 -1.28522,-0.40827c-0.01679,-0.00866 -0.04171,-0.04108 -0.04993,-0.06488c0.20236,-0.01308 0.22066,-0.16022 0.25574,-0.29874c0.08769,-0.34627 0.19213,-0.68385 0.38046,-0.97821c0.03433,-0.0606 0.06861,-0.12121 0.08613,-0.19045c0.06235,-0.33976 0.25064,-0.6341 0.3633,-0.94793c0.06086,-0.18394 0.09583,-0.32242 0.04711,-0.50417z" fill="#61afb4"/><path d="M269.73266,179.52018c0.53539,0.39352 1.13081,0.68097 1.69196,1.02902c0.25969,0.15349 0.54515,0.26151 0.83059,0.36956c0.52018,0.2291 1.0228,0.52741 1.5773,0.69587c0.21836,0.07347 0.43672,0.14693 0.64689,0.19659c0.13454,0.03023 0.26046,0.07557 0.37786,0.13612c-0.00893,0.05408 -0.00935,0.09304 -0.02653,0.12336c-0.06863,0.12118 -0.1372,0.24241 -0.2058,0.36362c-0.10956,0.00224 -0.19379,-0.00209 -0.29477,-0.01499c-0.70652,-0.12944 -1.42987,-0.26754 -2.08383,-0.60476c-0.57869,-0.27881 -1.17408,-0.56625 -1.71849,-0.90569c-0.4356,-0.26375 -0.87973,-0.51235 -1.22992,-0.88864c0.10099,0.0129 0.17587,0.11025 0.29437,0.05392c0.12787,-0.14936 0.28968,-0.32039 0.14031,-0.55399z" fill="#61aeb3"/><path d="M269.56043,180.74277c0.30221,0.11669 0.519,0.34593 0.79547,0.50806c0.59508,0.32641 1.1901,0.65285 1.81089,0.93378c0.50339,0.22044 1.02438,0.37161 1.5457,0.48386c0.13454,0.03023 0.26903,0.06043 0.40357,0.09065c-0.12007,0.21212 -0.22296,0.39396 -0.33449,0.5909c-0.30412,0.07805 -0.59853,0.02408 -0.89255,-0.06876c-0.3529,-0.10365 -0.72252,-0.21599 -1.06645,-0.37377c-0.78883,-0.3285 -1.50947,-0.73923 -2.25544,-1.14344c-0.13413,-0.06916 -0.2683,-0.13834 -0.34278,-0.27462c0.04289,-0.07576 0.10251,-0.14288 0.10329,-0.22076c0.0187,-0.18609 0.13838,-0.35929 0.2327,-0.52591z" fill="#61aeb3"/><path d="M263.46105,195.91825c0.04057,0.15796 0.02224,0.30507 -0.04675,0.46523c-0.11265,0.31378 -0.30098,0.60818 -0.36329,0.94791c-0.01755,0.06926 -0.05183,0.12988 -0.08616,0.19048c-0.1801,0.31819 -0.27599,0.6406 -0.38045,0.9782c-0.02652,0.12336 -0.05337,0.28566 -0.25575,0.29874c-0.26009,-0.11455 -0.47768,-0.26588 -0.65277,-0.45403c0.06976,-0.23808 0.12279,-0.48476 0.27637,-0.67957c0.01716,-0.0303 0.02613,-0.0844 0.04327,-0.11471c0.12122,-0.32894 0.25103,-0.67307 0.38903,-0.99338c0.06042,-0.145 0.12906,-0.2662 0.17271,-0.41986c0.04407,-0.19258 0.1302,-0.38307 0.30838,-0.50649c0.0924,0.02809 0.15947,0.06266 0.23511,0.08211c0.11735,0.06053 0.24296,0.14485 0.3603,0.20534z" fill="#87d7dc"/><path d="M274.33684,172.3817c0.08116,0.31588 0.02778,0.60147 -0.0424,0.87852c-0.01754,0.06925 -0.06901,0.16016 -0.12007,0.21212c-0.38285,0.3702 -0.69868,0.77499 -0.99768,1.18842c-0.00859,0.01516 -0.04249,0.0368 -0.06784,0.04333c-0.0928,0.01085 -0.17666,-0.03234 -0.23475,-0.12102c0.01716,-0.0303 0.01752,-0.06928 0.03468,-0.09956c0.22263,-0.35493 0.39493,-0.73588 0.47482,-1.14487c0.05263,-0.20775 0.14698,-0.37443 0.33372,-0.513c0.2121,-0.14506 0.37388,-0.3161 0.61955,-0.44391z" fill="#cce5e6"/><path d="M272.03576,174.15068c-0.12633,-0.00641 -0.18482,-0.05615 -0.2094,-0.12754c0.37816,-0.74453 0.37813,-0.74453 0.47007,-1.51919c0.17935,-0.24029 0.4425,-0.43731 0.66358,-0.63647c0.13454,0.03023 0.09981,0.12975 0.10762,0.19251c0.02304,0.22717 0.05463,0.43922 0.03553,0.66427c-0.01831,0.14718 -0.06161,0.26185 -0.16372,0.36574c-0.31504,0.32691 -0.62184,0.67758 -0.90373,1.06069z" fill="#cce5e6"/><path d="M263.084,195.70425c-0.07565,-0.01944 -0.14274,-0.05403 -0.23511,-0.0821c-0.17819,0.12342 -0.26432,0.31387 -0.30837,0.5065c-0.04365,0.15367 -0.11225,0.27486 -0.17272,0.41987c-0.138,0.32032 -0.2678,0.66441 -0.38903,0.99337c-0.01716,0.0303 -0.02612,0.08442 -0.04328,0.11471c-0.1454,0.21862 -0.18986,0.45014 -0.27639,0.67954c-0.11699,-0.09945 -0.21722,-0.19032 -0.29989,-0.35039c0.18985,-0.45016 0.35473,-0.9328 0.56991,-1.38946c0.18985,-0.45016 0.31263,-0.93489 0.56991,-1.38943c0.25968,0.15349 0.4266,0.31783 0.58495,0.49732z" fill="#60adb2"/><path d="M275.31142,177.77753c0.07564,0.01943 0.13455,0.03025 0.21017,0.04966c0.0164,0.0476 0.02455,0.07138 0.03275,0.09516c-0.07872,0.29214 -0.09858,0.5951 -0.10169,0.90664c-0.00974,0.13199 -0.04443,0.23157 -0.15476,0.31166c-0.20392,0.16888 -0.38284,0.37021 -0.70375,0.43962c-0.08969,-0.30071 -0.06986,-0.60366 -0.03322,-0.89794c0.00893,-0.05408 0.06865,-0.12119 0.11968,-0.17315c0.20463,-0.24677 0.40938,-0.49359 0.63083,-0.73171z" fill="#cce5e6"/><path d="M277.71603,174.06542c-0.01868,0.18607 -0.01988,0.30294 -0.02961,0.43494c-0.02767,0.24021 -0.11381,0.43063 -0.33448,0.59089c-0.35674,0.28578 -0.67175,0.61273 -0.88617,0.99148c-0.06863,0.12119 -0.09396,0.12769 -0.28661,0.00882c0.02574,-0.04545 0.03467,-0.09956 0.06044,-0.14502c0.23118,-0.37012 0.38671,-0.75966 0.49195,-1.17517c0.03472,-0.09955 0.06082,-0.18395 0.13721,-0.24245c0.26279,-0.15812 0.49206,-0.33347 0.84727,-0.46346z" fill="#cae2e3"/><path d="M274.0057,175.18608c-0.00817,-0.02378 -0.00782,-0.06279 0.00078,-0.07791c0.23077,-0.33115 0.3524,-0.69906 0.4487,-1.06049c0.10444,-0.33758 0.26742,-0.62548 0.59805,-0.82685c0.16104,-0.09312 0.27211,-0.25115 0.45813,-0.31181c0.08819,0.4565 -0.05061,0.85471 -0.35666,1.1275c-0.36572,0.33991 -0.7396,0.656 -0.97157,1.10405c-0.04249,0.03682 -0.07682,0.0974 -0.17742,0.04554z" fill="#c9e1e2"/><path d="M276.53378,173.47538c0.03044,0.32888 -0.02255,0.57555 -0.08414,0.83739c-0.02614,0.08439 -0.06901,0.16014 -0.13685,0.20347c-0.39106,0.34642 -0.75714,0.72525 -1.0897,1.12137c-0.01716,0.0303 -0.05962,0.0671 -0.1349,0.00872c0.06003,-0.10604 0.12864,-0.22724 0.17193,-0.34196c0.15477,-0.31165 0.29275,-0.63197 0.35509,-0.97171c0.05297,-0.24671 0.18127,-0.435 0.40156,-0.55629c0.16104,-0.09312 0.31346,-0.17113 0.51701,-0.30105z" fill="#c9e1e2"/><path d="M276.45351,178.17073c0.14351,-0.02385 0.22735,0.01937 0.31117,0.06259c0.00818,0.02377 0.00782,0.06277 0.01598,0.08653c-0.1037,0.2597 -0.13173,0.53886 -0.0923,0.81362c0.01522,0.16443 -0.03663,0.29428 -0.16414,0.4047c-0.16139,0.13207 -0.3146,0.28797 -0.50099,0.38761c-0.10724,-0.23145 -0.18803,-0.5863 -0.15293,-0.7248c0.00932,-0.09304 0.07717,-0.13637 0.13686,-0.20346c0.12904,-0.26619 0.35048,-0.50436 0.44637,-0.82676z" fill="#cae3e4"/><path d="M270.15306,176.21375c0.30488,-0.15595 0.55951,-0.33782 0.80592,-0.54352c0.11772,0.02157 0.18486,0.05616 0.24296,0.14484c-0.07053,0.31592 -0.28421,0.61678 -0.33798,0.94139c-0.17819,0.12341 -0.36377,0.14517 -0.54975,0.20587c-0.10134,0.02601 -0.19452,0.07583 -0.32049,0.03046c-0.02264,-0.26614 0.13136,-0.49988 0.1594,-0.77903z" fill="#c8e0e1"/><path d="M273.23894,176.88505c0.14232,0.09296 0.12479,0.16221 0.10725,0.23146c-0.06157,0.26188 -0.11458,0.50853 -0.19291,0.76174c-0.01754,0.06926 -0.05184,0.12986 -0.11968,0.17319c-0.2117,0.10611 -0.4402,0.2036 -0.67686,0.27733c-0.03235,-0.13412 0.00232,-0.2337 0.00349,-0.35055c0.0035,-0.35051 0.1325,-0.61673 0.48769,-0.74677c0.16924,-0.06933 0.28853,-0.20355 0.39104,-0.34643z" fill="#cbe4e5"/><path d="M272.18257,176.34033c0.08384,0.0432 0.13414,0.06914 0.18445,0.09508c-0.0004,0.03895 0.02454,0.0714 0.01599,0.08654c-0.06086,0.18394 -0.13837,0.35928 -0.19919,0.54322c-0.03472,0.09956 -0.09436,0.16666 -0.18755,0.21647c-0.27954,0.14945 -0.56732,0.27509 -0.90536,0.37482c-0.0402,-0.19688 0.02024,-0.34187 0.08066,-0.48687c0.03432,-0.06057 0.06864,-0.1212 0.12784,-0.14936c0.35521,-0.13002 0.62736,-0.38116 0.88312,-0.67988z" fill="#c8e0e1"/><path d="M269.56045,180.74275c-0.09435,0.16665 -0.21405,0.33984 -0.22453,0.54974c-0.00077,0.0779 -0.06044,0.14497 -0.1033,0.22074c-0.29361,-0.13183 -0.53617,-0.31561 -0.72763,-0.55139c0.15362,-0.19481 0.20661,-0.44149 0.27598,-0.64059c0.16025,-0.01524 0.2519,0.09075 0.36963,0.1123c0.15949,0.06268 0.31859,0.1643 0.40985,0.30919z" fill="#85d5d9"/><path d="M278.57009,175.46494c-0.21249,0.18404 -0.42495,0.36808 -0.62927,0.57589c-0.17039,0.18617 -0.17346,0.49775 -0.55364,0.59529c0.29158,-0.51511 0.43153,-1.03018 0.57146,-1.54522c0.17819,-0.12341 0.38169,-0.25337 0.62658,-0.30324c0.0164,0.0476 0.02457,0.0714 0.03276,0.09516c-0.00193,0.19472 -0.02061,0.38085 -0.04788,0.58205z" fill="#c6dede"/><path d="M274.30791,171.89702c-0.2632,0.19706 -0.4924,0.37241 -0.7556,0.56948c-0.08266,-0.16007 -0.06438,-0.30723 -0.09675,-0.44134c-0.02383,-0.14927 -0.0897,-0.30074 -0.06281,-0.46301c0.06003,-0.10604 0.17856,-0.16238 0.28029,-0.22735c0.10174,-0.06497 0.22031,-0.12126 0.3556,-0.16897c0.18328,0.21195 0.21447,0.46293 0.27925,0.73122z" fill="#cae3e3"/><path d="M270.94549,173.62763c0.13991,-0.51506 0.23695,-0.95436 0.2248,-1.43034c0.1786,-0.16238 0.34037,-0.33339 0.52752,-0.51092c0.14938,0.23361 0.1303,0.45865 0.15331,0.6858c-0.0004,0.03895 -0.02614,0.08442 -0.04329,0.11469c-0.26471,0.35282 -0.52943,0.70568 -0.86235,1.14075z" fill="#cae3e4"/><path d="M273.46337,178.89935c-0.03045,-0.32887 -0.03596,-0.62531 0.28649,-0.85049c0.22069,-0.16024 0.36611,-0.37886 0.51152,-0.59747c0.05147,-0.09092 0.14386,-0.06285 0.22734,0.01934c-0.17073,0.22512 -0.21558,0.49563 -0.26038,0.76613c-0.02726,0.20123 -0.13797,0.32031 -0.29901,0.41344c-0.13568,0.08661 -0.24643,0.20567 -0.46597,0.24907z" fill="#c8e0e1"/><path d="M269.73267,179.52016c0.14079,0.24876 -0.01245,0.4046 -0.13213,0.57777c-0.1185,0.05631 -0.20197,-0.02584 -0.29436,-0.0539c-0.20938,-0.12755 -0.37628,-0.29192 -0.52607,-0.4866c0.1111,-0.15801 0.13839,-0.35924 0.30797,-0.46753c0.09241,0.02809 0.14273,0.05403 0.20979,0.0886c0.15054,0.11676 0.30106,0.23349 0.4348,0.34164z" fill="#85d4d9"/><path d="M271.9921,177.71008c-0.02805,0.27914 -0.07246,0.51068 -0.10011,0.75088c-0.24525,0.08883 -0.49867,0.15391 -0.75176,0.17997c-0.10024,-0.09083 -0.08229,-0.19902 -0.09829,-0.28554c-0.016,-0.08654 -0.03198,-0.17306 0.04483,-0.27047c0.23708,-0.11261 0.54155,-0.22963 0.90535,-0.37482z" fill="#c7dfe0"/><path d="M274.20428,179.80991c-0.20317,0.09098 -0.38951,0.19059 -0.63438,0.24052c-0.12404,-0.24011 -0.10494,-0.46513 -0.11081,-0.72262c0.22029,-0.12128 0.44057,-0.24259 0.66947,-0.37903c0.04759,0.29857 0.05346,0.55611 0.07572,0.86114z" fill="#c8e0e1"/><path d="M275.38725,171.82718c0.06551,0.1904 0.13102,0.38075 0.12053,0.59065c-0.22069,0.16024 -0.45812,0.31182 -0.70414,0.47855c-0.0335,-0.01729 -0.06705,-0.03458 -0.05847,-0.04974c-0.02341,-0.18824 -0.03824,-0.3916 -0.0449,-0.57119c0.00078,-0.07791 0.01829,-0.14717 0.07755,-0.17531c0.20353,-0.12992 0.35675,-0.2858 0.60944,-0.27298z" fill="#c4dcdd"/><path d="M277.68679,173.61974c-0.24563,0.12779 -0.47451,0.26422 -0.72017,0.39202c-0.10838,-0.11462 -0.03977,-0.23581 -0.03862,-0.35267c0.00116,-0.11683 0.02765,-0.24021 0.03738,-0.37218c0.18676,-0.13856 0.42305,-0.17326 0.64299,-0.25565c0.12439,0.20113 0.10569,0.38725 0.0784,0.58848z" fill="#c8e0e1"/><path d="M274.71656,179.97621c0.23747,-0.15157 0.44959,-0.29668 0.69559,-0.4634c0.09908,0.20765 0.08853,0.41757 0.17085,0.6166c-0.18716,0.1775 -0.43202,0.22742 -0.66907,0.34004c-0.11621,-0.17736 -0.20747,-0.32228 -0.19732,-0.49321z" fill="#c6ddde"/><path d="M277.63031,178.46438c0.02188,0.34404 -0.05722,0.67512 0.03209,1.01478c-0.15321,0.15588 -0.28112,0.30526 -0.49282,0.41138c-0.14115,-0.2098 -0.18137,-0.40671 -0.01919,-0.61665c0.20466,-0.24676 0.32551,-0.53678 0.4799,-0.80951z" fill="#b9cfd0"/><path d="M270.1266,172.93134c-0.07486,-0.09733 0.01828,-0.14718 0.03583,-0.21638c0.04366,-0.15365 0.10405,-0.29863 0.05492,-0.44146c-0.03979,-0.23584 0.07128,-0.39384 0.20777,-0.55836c0.05968,-0.06711 0.13606,-0.12559 0.22964,-0.21434c0.12367,0.27906 0.20554,0.51705 -0.02447,0.77031c-0.16179,0.17104 -0.26512,0.39178 -0.39338,0.58009c-0.02576,0.04544 -0.05147,0.09091 -0.11034,0.08012z" fill="#c0d8d8"/><path d="M269.17599,176.17967c-0.00664,-0.17961 0.02843,-0.31807 0.09703,-0.43928c0.03432,-0.06057 0.07716,-0.13639 0.13643,-0.16453c0.26242,-0.11914 0.48307,-0.27938 0.70377,-0.43962c0.11735,0.06054 0.06629,0.11247 0.04056,0.15796c-0.08577,0.15152 -0.1801,0.31819 -0.23233,0.48698c-0.07797,0.21425 -0.20545,0.32467 -0.43318,0.34428c-0.10957,0.00223 -0.1856,0.02174 -0.31229,0.05425z" fill="#c1d9d9"/><path d="M273.03168,179.08782c-0.19492,0.11477 -0.39772,0.1668 -0.61761,0.24915c-0.13298,-0.186 -0.08891,-0.37858 -0.11235,-0.56684c0.22887,-0.13645 0.49048,-0.17771 0.75252,-0.25789c0.03159,0.21204 -0.00387,0.3895 -0.02254,0.5756z" fill="#c3dbdc"/><path d="M275.89423,173.3805c0.01944,-0.26401 0.04714,-0.50421 0.05803,-0.75304c0.14425,-0.10181 0.27995,-0.18838 0.48231,-0.2015c0.08229,0.19904 0.08035,0.39376 0.09523,0.59716c-0.1786,0.16237 -0.37348,0.27715 -0.63551,0.35735z" fill="#c3dadb"/><path d="M271.14489,179.01526c0.24488,-0.04989 0.46438,-0.09328 0.68388,-0.13667c0.10764,0.19251 0.10571,0.38725 0.10378,0.58197c-0.19455,0.07585 -0.38872,0.11274 -0.60782,0.11715c-0.03314,-0.05625 -0.07447,-0.13629 -0.09087,-0.18385c-0.03237,-0.13413 -0.0398,-0.23581 -0.08893,-0.37863z" fill="#c4dbdc"/><path d="M269.39377,174.60865c-0.16298,0.28789 -0.29164,0.51516 -0.4288,0.75757c-0.14389,0.06284 -0.28739,0.08669 -0.46397,0.05432c-0.05769,-0.12762 0.03586,-0.21639 0.0538,-0.32459c0.01791,-0.10818 0.05263,-0.20775 0.09548,-0.28352c0.25348,-0.06508 0.45622,-0.11711 0.74356,-0.20379z" fill="#c2d9da"/><path d="M274.40965,170.99034c0.13568,-0.08661 0.27095,-0.13433 0.40588,-0.14303c0.14271,0.05402 0.15831,0.17956 0.21642,0.26819c0.05811,0.08863 0.15013,0.15569 0.14039,0.28768c-0.11929,0.13422 -0.31386,0.21004 -0.52559,0.31622c-0.04098,-0.11901 -0.08193,-0.238 -0.13144,-0.34182c-0.03235,-0.13412 -0.06477,-0.26826 -0.10572,-0.38726z" fill="#c5ddde"/><path d="M273.15583,180.16965c-0.16963,0.10829 -0.32949,0.08457 -0.48154,0.12361c-0.14154,-0.17088 -0.18174,-0.36776 -0.23015,-0.58843c0.18597,-0.0607 0.37199,-0.12136 0.54123,-0.1907c0.14114,0.20981 0.12209,0.43487 0.17046,0.65552z" fill="#c3dbdc"/><path d="M272.2258,171.9782c-0.04137,-0.08005 -0.05775,-0.1276 -0.07414,-0.17518c-0.02418,-0.11032 -0.0398,-0.23584 -0.07217,-0.36997c0.23747,-0.15157 0.42458,-0.32912 0.70338,-0.40067c0.10024,0.09083 0.10766,0.19252 0.11468,0.33317c-0.19572,0.19268 -0.42537,0.40699 -0.67174,0.61272z" fill="#c7dfe0"/><path d="M270.61719,177.8428c-0.23628,0.03474 -0.42264,0.13435 -0.64996,0.11501c-0.09943,-0.16874 -0.02189,-0.34401 -0.0878,-0.49544c0.26243,-0.11913 0.49869,-0.15391 0.75214,-0.21895c0.09049,0.22284 -0.00386,0.38946 -0.01433,0.59938z" fill="#c7dee0"/><path d="M269.15926,180.41844c-0.11774,-0.02156 -0.20938,-0.12757 -0.36964,-0.1123c-0.07797,0.21425 -0.14775,0.45228 -0.27599,0.6406c-0.05851,-0.04975 -0.13375,-0.10813 -0.18368,-0.17298c-0.07486,-0.09733 -0.09904,-0.20766 -0.03902,-0.31375c0.08613,-0.19044 0.16369,-0.36575 0.24989,-0.55622c0.21799,0.1124 0.31001,0.17943 0.61847,0.51465z" fill="#61acb1"/><path d="M278.68227,174.34836c-0.20317,0.09098 -0.37233,0.16029 -0.59227,0.24264c0.01089,-0.24883 0.0132,-0.48249 0.04085,-0.7227c0.15242,-0.07799 0.29633,-0.14079 0.46516,-0.17119c0.09049,0.22283 0.08855,0.41754 0.08624,0.65123z" fill="#c2dada"/><path d="M269.07111,176.55621c0.20317,-0.09098 0.38874,-0.11272 0.60829,-0.15609c-0.05298,0.24671 -0.08885,0.4631 -0.12472,0.67951c-0.14425,0.1018 -0.28737,0.0867 -0.46438,0.09328c-0.09088,-0.18385 -0.04684,-0.37651 -0.01919,-0.61665z" fill="#c1d9d9"/><path d="M276.96103,172.8736c-0.06513,-0.22934 -0.09712,-0.4024 -0.14587,-0.58416c0.13607,-0.12557 0.33025,-0.16246 0.52444,-0.19933c0.10799,0.15356 0.19068,0.31363 0.20553,0.51703c-0.15322,0.15587 -0.36381,0.14515 -0.58408,0.26647z" fill="#c6dedf"/><path d="M274.50808,180.61249c-0.19454,0.07584 -0.39732,0.12787 -0.5833,0.18856c-0.14232,-0.09296 -0.20863,-0.20543 -0.24921,-0.3634c0.1786,-0.16237 0.42305,-0.17327 0.63477,-0.27945c0.11663,0.13841 0.14038,0.28769 0.19774,0.45428z" fill="#c0d7d7"/><path d="M271.60895,171.30777c-0.1614,0.13207 -0.28111,0.30523 -0.51777,0.37896c-0.04057,-0.15796 -0.0897,-0.30076 -0.13885,-0.44351c0.10293,-0.18178 0.27252,-0.29006 0.47526,-0.34209c0.10839,0.11462 0.14934,0.23359 0.18137,0.40665z" fill="#c3dadb"/><path d="M269.31462,179.18715c-0.06707,-0.03459 -0.14274,-0.05401 -0.20983,-0.08859c-0.16963,0.1083 -0.1969,0.30949 -0.30797,0.46753c-0.12594,-0.04537 -0.14156,-0.17088 -0.25035,-0.24653c0.04443,-0.23154 0.19762,-0.38743 0.19175,-0.6449c0.17623,0.07133 0.2511,0.16862 0.34279,0.27462c0.06671,0.07352 0.20121,0.10379 0.23357,0.23788z" fill="#5aa0a4"/><path d="M277.99245,180.19736c-0.16139,0.13206 -0.28113,0.30526 -0.49244,0.37244c-0.10024,-0.09083 -0.13299,-0.18604 -0.18216,-0.32879c0.12789,-0.14938 0.28929,-0.28145 0.46708,-0.36595c0.10024,0.09084 0.14156,0.17087 0.20746,0.32229z" fill="#bdd3d4"/><path d="M271.54039,179.9238c0.16885,-0.03038 0.32091,-0.06939 0.47294,-0.10843c0.10801,0.15358 0.1486,0.31152 0.1806,0.48458c-0.11891,0.09525 -0.25348,0.06508 -0.37082,0.00455c-0.15092,-0.07778 -0.3018,-0.1556 -0.28274,-0.38067z" fill="#bdd4d5"/><path d="M279.34959,175.88645c-0.18675,0.13855 -0.36495,0.26202 -0.55167,0.40058c0.01242,-0.40461 0.09157,-0.7357 0.57271,-0.82034c0.05769,0.12762 0.00586,0.25748 -0.02102,0.41976z" fill="#bbd2d3"/><path d="M270.17827,178.77129c-0.09981,-0.12977 -0.11543,-0.25528 -0.13102,-0.38077c0.06003,-0.10604 0.16105,-0.09312 0.26242,-0.11912c0.07602,-0.01951 0.16061,-0.05417 0.26981,-0.01743c0.09981,0.12977 0.01409,0.28126 0.10534,0.42619c-0.17779,0.0845 -0.33803,0.09974 -0.50647,0.09119z" fill="#c3dadb"/><path d="M274.42564,175.32431c0.18795,-0.2554 0.37582,-0.51083 0.63082,-0.73167c0.092,0.06703 0.06594,0.15146 0.02301,0.22718c-0.09474,0.2056 -0.20619,0.40253 -0.30912,0.58435c-0.07718,0.13635 -0.19497,0.1148 -0.34469,-0.07987z" fill="#b1c6c7"/><path d="M275.44666,181.1356c0.10211,-0.10391 0.22848,-0.09749 0.33842,-0.13866c0.20316,-0.091 0.36263,-0.02833 0.52098,0.15121c-0.22068,0.16023 -0.49909,0.19282 -0.73536,0.22758c-0.1088,-0.07568 -0.14196,-0.13192 -0.12404,-0.24011z" fill="#bbd2d3"/><path d="M276.75825,176.33137c0.09588,-0.32247 0.35904,-0.51947 0.61403,-0.74034c-0.01945,0.26401 -0.14814,0.49124 -0.25142,0.712c-0.06042,0.14501 -0.12789,0.1494 -0.36261,0.02832z" fill="#bad1d2"/><path d="M278.39038,179.14992c0.04874,0.18173 0.11465,0.33317 0.16342,0.51487c-0.05966,0.06711 -0.17,0.14723 -0.26356,0.23599c-0.25894,-0.23139 -0.25036,-0.24654 -0.12209,-0.43487c0.06005,-0.10604 0.13686,-0.20347 0.22223,-0.31601z" fill="#b5cbcc"/><path d="M276.86696,171.31795c0.14192,0.13192 0.1997,0.25955 0.25739,0.38717c-0.1275,0.11043 -0.29595,0.10183 -0.46477,0.13224c-0.07452,-0.13626 -0.13217,-0.26389 -0.20668,-0.40017c0.09395,-0.1277 0.262,-0.08022 0.4141,-0.11924z" fill="#c0d7d8"/><path d="M276.68995,179.8194c0.08342,0.08219 0.10766,0.19251 0.12328,0.31802c-0.16181,0.17102 -0.3735,0.27717 -0.60161,0.33569c-0.12594,-0.04537 -0.13375,-0.10812 -0.12439,-0.20113c0.1953,-0.15375 0.39066,-0.30748 0.60277,-0.45254z" fill="#bdd4d4"/><path d="M279.02933,174.19459c-0.02341,-0.18824 -0.0215,-0.38296 -0.04491,-0.5712c0.10996,-0.04116 0.21096,-0.02824 0.31156,0.02361c0.08342,0.08218 0.07412,0.1752 0.08153,0.27688c-0.00078,0.07791 -0.00154,0.15578 -0.00231,0.23369c-0.10177,0.06499 -0.20315,0.091 -0.34588,0.03697z" fill="#b6cccc"/><path d="M275.89769,172.18829c-0.04873,-0.18173 -0.08932,-0.33965 -0.15485,-0.53006c0.06821,-0.08226 0.16999,-0.14725 0.34664,-0.11488c0.07453,0.13626 0.14041,0.28769 0.22308,0.44775c-0.13568,0.08661 -0.24602,0.16676 -0.41487,0.19713z" fill="#c1d9d9"/><path d="M279.43406,175.01005c-0.13568,0.08661 -0.25422,0.14297 -0.41446,0.15817c-0.04874,-0.18173 0.00351,-0.35055 0.0218,-0.49768c0.10211,-0.10391 0.21989,-0.08234 0.32946,-0.08456c0.04172,0.04109 0.07526,0.05839 0.06671,0.07352c-0.00119,0.11683 -0.00232,0.23367 -0.00351,0.35055z" fill="#b7cdce"/><path d="M279.58524,176.77132c-0.03977,-0.23584 0.03739,-0.37219 0.08104,-0.52585c0.03545,-0.17746 0.17038,-0.18618 0.33062,-0.20142c0.04874,0.18173 0.00509,0.33538 0.00355,0.49118c-0.1193,0.13421 -0.31271,0.09322 -0.41524,0.23608z" fill="#b6cccc"/><path d="M277.17746,180.79497c-0.15244,0.07798 -0.27095,0.1343 -0.39807,0.20577c-0.15949,-0.06268 -0.26009,-0.11455 -0.33457,-0.25081c0.1778,-0.08449 0.33883,-0.17762 0.49125,-0.2556c0.17663,0.03233 0.19221,0.15785 0.28427,0.22485c-0.01716,0.0303 -0.01754,0.06927 -0.04287,0.07578z" fill="#c2dada"/><path d="M275.84067,171.14105c-0.11034,0.08009 -0.18636,0.09963 -0.28737,0.08673c-0.1092,-0.03675 -0.14193,-0.13191 -0.20006,-0.22058c-0.04136,-0.08005 -0.15014,-0.1557 -0.10687,-0.27041c0.13529,-0.04765 0.27876,-0.07154 0.44685,-0.02403c0.06592,0.15143 0.09829,0.28557 0.14744,0.42836z" fill="#bbd2d3"/><path d="M269.06964,177.55367c0.16025,-0.01523 0.27841,-0.03261 0.4133,-0.04134c0.05736,0.16659 0.05577,0.32237 0.07102,0.48684c-0.11851,0.05632 -0.23669,0.07372 -0.35403,0.01314c-0.02498,-0.03244 -0.0499,-0.06489 -0.04954,-0.10385c-0.03276,-0.09516 -0.05694,-0.20556 -0.08075,-0.35482z" fill="#bbd2d3"/><path d="M278.85164,179.36817c-0.10687,-0.27042 -0.10688,-0.27043 -0.04489,-0.57119c0.15246,-0.07798 0.29517,-0.02394 0.47179,0.00843c-0.06977,0.23808 -0.26509,0.39178 -0.4269,0.5628z" fill="#adc2c3"/><path d="M270.34328,179.1304c0.11851,-0.05632 0.25347,-0.06504 0.37938,-0.01966c0.05736,0.16659 0.10652,0.30932 0.14703,0.46726c-0.37082,0.00454 -0.38758,-0.00408 -0.52647,-0.44758z" fill="#b5cbcc"/><path d="M278.54103,173.2969c-0.14388,0.06285 -0.25384,0.10398 -0.4141,0.1192c-0.09123,-0.14489 -0.06435,-0.30722 -0.09635,-0.48032c0.05927,-0.02816 0.10993,-0.04115 0.16062,-0.05419c0.05069,-0.01302 0.10956,-0.00224 0.17704,-0.0066c0.12518,0.12327 0.15754,0.25737 0.17279,0.42185z" fill="#bbd1d2"/><path d="M268.46668,176.32283c-0.10764,-0.19252 -0.02149,-0.38296 -0.03674,-0.5474c0.12711,-0.07145 0.25308,-0.02611 0.38801,-0.03482c0.02305,0.22717 -0.02921,0.39598 -0.17386,0.53669c-0.02575,0.04544 -0.10995,0.04117 -0.1774,0.04554z" fill="#b6cccd"/><path d="M272.64326,170.66671c-0.22887,0.13645 -0.46594,0.24906 -0.68621,0.37035c-0.1088,-0.07569 -0.15014,-0.15568 -0.15718,-0.29633c0.262,-0.08022 0.52402,-0.1604 0.81061,-0.16922c0.01639,0.04762 0.02457,0.0714 0.03277,0.09517z" fill="#acc1c2"/><path d="M276.14553,175.23251c-0.06119,0.22291 -0.13916,0.43717 -0.2842,0.6168c-0.05968,0.06711 -0.14425,0.10178 -0.22808,0.05856c-0.03349,-0.01728 -0.08343,-0.08219 -0.07486,-0.09734c0.11188,-0.2359 0.35789,-0.40265 0.58713,-0.57803z" fill="#a7bbbb"/><path d="M278.28785,172.48125c-0.08501,0.07362 -0.19455,0.07585 -0.32088,0.06941c-0.06592,-0.15143 -0.13181,-0.30286 -0.19774,-0.45429c0.13568,-0.08661 0.24486,-0.04988 0.36222,0.01063c0.07486,0.09733 0.12404,0.2401 0.15639,0.37426z" fill="#b7cdcd"/><path d="M272.75467,180.68698c0.16963,-0.1083 0.32986,-0.12348 0.50688,-0.1301c0.10839,0.11462 0.17471,0.2271 0.16458,0.39804c-0.25266,-0.01285 -0.4453,-0.13177 -0.67148,-0.26793z" fill="#b7cece"/><path d="M268.29963,174.47508c-0.01446,-0.24233 0.16411,-0.40469 0.16601,-0.59944c0.1185,-0.05631 0.17702,-0.00657 0.18484,0.05618c0.01523,0.16443 0.00511,0.3354 -0.08067,0.48687c-0.0425,0.03682 -0.05109,0.05194 -0.27021,0.05641z" fill="#b4cacb"/><path d="M273.25388,171.11862c-0.07486,-0.09731 -0.09945,-0.16871 -0.09013,-0.26175c0.20316,-0.091 0.41486,-0.19712 0.71822,-0.19729c-0.12904,0.26619 -0.36571,0.33988 -0.62811,0.45904z" fill="#b2c8c9"/><path d="M269.60078,178.37563c0.07452,0.13626 0.12403,0.24011 0.1061,0.3483c-0.05107,0.05196 -0.10997,0.0412 -0.16885,0.03039c-0.2355,-0.04314 -0.2593,-0.19246 -0.25737,-0.38716c0.10099,0.0129 0.21057,0.01069 0.32013,0.00847z" fill="#b5cbcb"/><path d="M277.96744,176.75918c0.09473,-0.2056 0.18905,-0.37224 0.34227,-0.5281c0.0924,0.0281 0.10022,0.09082 0.0745,0.13626c-0.04329,0.11471 -0.06979,0.23808 -0.11305,0.35276c-0.06863,0.12119 -0.15283,0.1169 -0.30371,0.03907z" fill="#91a3a3"/><path d="M271.76736,173.17066c0.01446,0.24233 -0.11381,0.43065 -0.21674,0.61245c-0.01716,0.0303 -0.06785,0.04333 -0.10995,0.04116c-0.0335,-0.01729 -0.0667,-0.07351 -0.05812,-0.08869c0.06977,-0.23808 0.2148,-0.41772 0.38479,-0.56495z" fill="#99abac"/><path d="M270.67097,173.27079c-0.15168,0.00009 -0.2355,-0.04316 -0.22617,-0.13621c0.02652,-0.12336 0.14581,-0.25754 0.32436,-0.41993c0.03163,0.21205 -0.06272,0.37867 -0.0982,0.55611z" fill="#93a5a6"/><path d="M274.48402,181.34383c0.22849,-0.09747 0.44877,-0.21878 0.68199,0.05805c-0.23708,0.1126 -0.45503,0.00023 -0.68199,-0.05805z" fill="#9aadad"/><path d="M275.81016,178.46531c0.01831,-0.14717 0.04519,-0.30943 0.05495,-0.44145c0.0932,-0.04981 0.15207,-0.03903 0.2441,0.02801c0.00666,0.17962 -0.14618,0.29654 -0.20659,0.44154c-0.0335,-0.01729 -0.0503,-0.02595 -0.09244,-0.02809z" fill="#c5dddd"/><path d="M273.86253,174.3293c0.03941,0.27477 -0.07212,0.47175 -0.25065,0.63412c-0.00859,0.01516 -0.05071,0.01303 -0.08424,-0.00427c-0.05888,-0.0108 -0.0667,-0.07351 -0.04953,-0.10382c0.07753,-0.17531 0.23081,-0.33119 0.38442,-0.52602z" fill="#aec2c3"/><path d="M268.64882,176.65161c0.04874,0.18173 0.0133,0.35916 -0.01361,0.52148c-0.09318,0.04982 -0.1517,0.00007 -0.15093,-0.07781c-0.00703,-0.14066 -0.02262,-0.26613 -0.0043,-0.41327c-0.01639,-0.04762 0.05963,-0.0671 0.16883,-0.03038z" fill="#9caeaf"/><path d="M277.57934,171.70487c-0.12518,-0.12328 -0.19146,-0.23572 -0.25738,-0.38718c0.25228,0.05179 0.411,0.19234 0.6122,0.29611c-0.04251,0.03682 -0.05968,0.06711 -0.085,0.07358c-0.0928,0.01085 -0.177,0.00659 -0.2698,0.01747z" fill="#a9bebf"/><path d="M271.57895,176.02904c0.13454,0.03023 0.19299,0.07994 0.23436,0.16003c-0.06902,0.16014 -0.1965,0.27055 -0.44995,0.33562c0.06939,-0.19912 0.14659,-0.33545 0.21556,-0.49563z" fill="#b9cfd0"/><path d="M277.05827,178.36511c0.09318,-0.0498 0.16884,-0.03035 0.24448,-0.01094c0.06668,0.07354 0.02382,0.14927 -0.23235,0.48696c-0.14976,-0.19466 -0.00511,-0.33539 -0.01213,-0.47603z" fill="#869797"/><path d="M272.83932,173.84084c-0.18753,0.21647 -0.1567,0.50642 -0.49436,0.56716c0.06157,-0.26187 0.18123,-0.43501 0.49436,-0.56716z" fill="#93a4a5"/><path d="M279.25963,176.46637c-0.12864,0.22724 -0.21443,0.37876 -0.30018,0.53027c-0.01716,0.0303 -0.06785,0.04333 -0.11812,0.01736c-0.01679,-0.00866 -0.04172,-0.0411 -0.04993,-0.06489c0.06935,-0.1991 0.16373,-0.36581 0.46822,-0.48277z" fill="#94a5a6"/><path d="M277.99183,178.55293c0.13492,-0.00869 0.19377,0.00204 0.24332,0.10588c-0.05184,0.12984 -0.11227,0.27487 -0.24834,0.40044c-0.10761,-0.19254 -0.02186,-0.344 0.005,-0.50629z" fill="#abbfc0"/><path d="M279.98321,175.72381c-0.10099,-0.01291 -0.1431,-0.01507 -0.17666,-0.03237c-0.06438,-0.30722 -0.06436,-0.30718 0.10601,-0.49335c0.11621,0.17736 0.03048,0.32886 0.07062,0.52572z" fill="#acc0c1"/><path d="M275.11372,180.72899c0.16924,-0.06933 0.33024,-0.16246 0.51623,-0.22314c0.07602,-0.01951 0.1431,0.0151 0.14193,0.13191c-0.20317,0.09098 -0.3977,0.16682 -0.65816,0.09121z" fill="#9fb2b2"/><path d="M278.90407,173.22959c-0.04954,-0.10387 -0.07408,-0.17524 -0.06476,-0.26825c0.06785,-0.04334 0.13529,-0.04769 0.22772,-0.01961c0.09201,0.06704 0.11619,0.17737 0.14038,0.2877c-0.08501,0.07362 -0.19417,0.03688 -0.30332,0.00015z" fill="#aec2c3"/><path d="M273.71278,177.54039c-0.09124,-0.14488 -0.03121,-0.251 0.01205,-0.36569c0.02576,-0.04544 0.09316,-0.0498 0.14347,-0.02386c0.0335,0.01729 0.06672,0.07354 0.04954,0.10383c-0.00116,0.11683 -0.08617,0.19048 -0.20508,0.28571z" fill="#91a2a3"/><path d="M276.54208,170.93512c-0.33026,0.16246 -0.35558,0.16901 -0.4535,-0.15553c0.15129,0.03888 0.31155,0.02363 0.4535,0.15553z" fill="#869696"/><path d="M269.74057,172.77142c-0.08228,-0.19904 0.01945,-0.26398 0.09627,-0.36141c0.108,0.15358 0.108,0.15358 -0.09627,0.36141z" fill="#555f5f"/><path d="M274.96709,177.65871c-0.04288,0.07576 -0.10291,0.18179 -0.21326,0.26193c-0.07371,-0.21418 -0.0394,-0.27476 0.08766,-0.34624c0.03393,-0.02166 0.08425,0.00427 0.12556,0.08433z" fill="#93a5a6"/><path d="M279.89519,176.95071c0.06476,0.26827 0.03086,0.28994 -0.26319,0.19702c0.02652,-0.12337 0.13643,-0.16454 0.26319,-0.19702z" fill="#8b9b9c"/><path d="M269.68867,172.05962c-0.03547,0.17745 -0.12084,0.28997 -0.20626,0.40257c-0.12633,-0.00641 -0.15948,-0.06268 -0.12515,-0.12328c0.06861,-0.1212 0.154,-0.23376 0.33137,-0.2793z" fill="#9aacad"/><path d="M279.85132,174.57925c0.05769,0.12762 0.13258,0.22497 0.04722,0.33754c-0.0086,0.01515 -0.03392,0.02167 -0.05069,0.01303c-0.13376,-0.10813 -0.11583,-0.21634 0.00349,-0.35055z" fill="#5f6a6b"/><path d="M272.65794,176.83991c-0.016,-0.08654 0.01831,-0.14718 0.06941,-0.19911c0.03393,-0.02166 0.0846,-0.03466 0.10956,-0.00221c0.02498,0.03244 0.04136,0.08005 0.02417,0.11034c-0.03432,0.06057 -0.08538,0.11254 -0.20314,0.09097z" fill="#636e6f"/><path d="M278.60922,172.37295c0.1431,0.01509 0.21836,0.07344 0.21683,0.22923c-0.16844,-0.00858 -0.2098,-0.08858 -0.21683,-0.22923z" fill="#4a5354"/></g><g data-paper-data="{&quot;index&quot;:null}" fill="#000000" stroke="#000000" stroke-width="1.2"><path d="M255.10191,189.30571c0.48277,-1.80253 3.36973,-3.49633 4.74383,-5.33448c1.47943,-1.97902 1.39797,-3.93663 2.93149,-4.523c1.07116,-0.40957 2.45635,0.3675 3.12023,0.86379c1.61435,1.20679 0.88602,4.91001 -1.62676,8.27137c-2.51277,3.36136 -5.85846,5.10799 -7.47279,3.9012c-0.73154,-0.54685 -2.09606,-1.68517 -1.69602,-3.17886z"/><path d="M256.63504,193.14898c0.69598,-2.50718 5.03129,-6.65717 5.03129,-6.65717c0,0 1.36325,-3.68406 1.4163,-3.75249c3.37991,-4.3612 6.21206,-2.32027 9.39084,0.05603c1.5129,1.13095 3.38072,3.48347 3.17353,5.48489c-0.23497,2.26985 -2.3345,4.11829 -4.17939,6.58621c-3.4716,4.64397 -8.33723,7.15985 -11.5659,4.74626c-1.42125,-1.06245 -4.1962,-3.1151 -3.26665,-6.46373z"/></g></g><g fill="#ff0000" fill-rule="nonzero" stroke="none" stroke-linecap="butt" stroke-linejoin="miter"><path d="M222.76936,230.11909c0,1.16699 -1.02172,2.11302 -2.28206,2.11302c-1.26035,0 -2.28207,-0.94603 -2.28207,-2.11302c0,-1.16699 1.02172,-2.11302 2.28207,-2.11302c1.26035,0 2.28206,0.94603 2.28206,2.11302z" stroke-width="NaN"/><path d="M225.81211,234.68322c0,1.07363 -0.90819,1.94398 -2.0285,1.94398c-1.12031,0 -2.0285,-0.87035 -2.0285,-1.94398c0,-1.07363 0.9082,-1.94398 2.0285,-1.94398c1.12031,0 2.0285,0.87035 2.0285,1.94398z" stroke-width="0"/><path d="M222.09319,238.48666c0,1.12031 -0.90819,2.0285 -2.0285,2.0285c-1.12031,0 -2.0285,-0.90819 -2.0285,-2.0285c0,-1.12031 0.90819,-2.0285 2.0285,-2.0285c1.12031,0 2.0285,0.9082 2.0285,2.0285z" stroke-width="0"/></g><g fill="#ff0000" fill-rule="nonzero" stroke="none" stroke-linecap="butt" stroke-linejoin="miter"><path d="M229.43682,223.95252c-0.90339,-0.27236 -1.39729,-1.28408 -1.10314,-2.25975c0.29414,-0.97566 1.26495,-1.54581 2.16834,-1.27345c0.90339,0.27236 1.39728,1.28408 1.10314,2.25975c-0.29414,0.97566 -1.26494,1.54581 -2.16834,1.27345z" stroke-width="NaN"/><path d="M223.1171,221.47623c-0.86726,-0.26146 -1.35835,-1.17647 -1.09689,-2.04373c0.26146,-0.86726 1.17647,-1.35835 2.04372,-1.09689c0.86726,0.26146 1.35835,1.17647 1.09689,2.04373c-0.26146,0.86726 -1.17647,1.35835 -2.04373,1.09689z" stroke-width="0"/><path d="M227.5855,227.96248c-0.93953,-0.28325 -1.49804,-1.18663 -1.24747,-2.01775c0.25057,-0.83112 1.21533,-1.27526 2.15486,-0.99201c0.93953,0.28325 1.49805,1.18664 1.24748,2.01776c-0.25057,0.83112 -1.21534,1.27525 -2.15487,0.992z" stroke-width="0"/></g><path d="M227.99382,168.81883l13.19214,4.45129l-11.63858,4.26537" fill="none" fill-rule="nonzero" stroke="#000000" stroke-width="4.5" stroke-linecap="round" stroke-linejoin="miter"/><path d="M262.48323,173.16429l-11.36923,-0.34753l5.94179,-8.01657" fill="none" fill-rule="nonzero" stroke="#000000" stroke-width="4.5" stroke-linecap="round" stroke-linejoin="miter"/><path d="M234.18535,193.55562c0,0 -7.31172,-4.70595 -8.40683,-6.62239c-1.0274,-1.79794 2.02633,-4.54347 2.02633,-4.54347" fill="none" fill-rule="nonzero" stroke="#000000" stroke-width="2" stroke-linecap="round" stroke-linejoin="miter"/></g></g></svg>