<svg version="1.1" xmlns="http://www.w3.org/2000/svg" xmlns:xlink="http://www.w3.org/1999/xlink" width="77.18677" height="106.31387" viewBox="0,0,77.18677,106.31387"><defs><linearGradient x1="231.81427" y1="168.26813" x2="209.43361" y2="166.68774" gradientUnits="userSpaceOnUse" id="color-1"><stop offset="0" stop-color="#000000"/><stop offset="1" stop-color="#000000" stop-opacity="0"/></linearGradient></defs><g transform="translate(-213.45762,-137.3205)"><g stroke-miterlimit="10"><g><g><g stroke="#001026" stroke-width="1.2"><path d="M258.41051,203.19287l-8.28254,26.51286c0,0 6.84055,0.30191 3.61697,7.56247c-0.18377,0.41392 -1.13892,2.44712 -4.28861,3.09111c-3.01674,0.6168 -8.19411,-0.13942 -10.08062,-0.42815c-0.87619,-0.1341 -2.03143,-0.76452 -2.47376,-1.87016c-0.44532,-1.11321 0.3456,-2.75672 0.73521,-3.68032c0.15867,-0.37618 10.54948,-29.91945 10.54948,-29.91945" fill="#bf0000" fill-rule="evenodd" stroke-linecap="round" stroke-linejoin="round"/><path d="M245.49057,210.45427c3.30364,-7.44089 8.67044,-7.66023 11.41002,-7.64011c1.19128,0.00877 1.86586,-1.97639 0.48089,3.82296c-0.30503,1.27724 -2.05935,6.52934 -2.95912,10.9896c-0.61613,3.0542 -0.49007,5.73964 -0.58104,6.51332c-0.21501,1.82803 -1.15042,3.50708 -1.15042,3.50708l-0.50068,-1.20013c0,0 0.31047,0.83704 0.36468,1.33871c0.16893,1.56282 0.30492,2.7422 0.30492,2.7422c0,0 -6.88029,-0.34942 -10.61424,2.01754c-3.73394,2.36696 -4.20688,6.71023 -4.20688,6.71023c0,0 -4.89521,-0.73943 -4.06214,-3.70818c0.20536,-0.73188 1.93823,-2.92894 1.93823,-2.92894c0,0 -0.65165,0.13373 -0.45713,-0.37392c0.09915,-0.25878 2.52051,-4.11393 4.51904,-8.43837c2.63091,-5.69281 5.03783,-12.27986 5.51384,-13.35197z" fill="#000000" fill-rule="nonzero" stroke-linecap="butt" stroke-linejoin="miter"/></g><path d="M238.7163,205.32737c0.08217,-0.21818 1.01199,0.40508 3.70193,0.43304c3.54871,0.03691 9.23172,-0.496 10.87236,-0.74705c4.25446,-0.651 5.58599,-2.21333 5.36821,-1.635c-0.80599,2.14014 -4.74454,6.14616 -9.42255,6.44201c-2.05577,0.13001 -6.48022,0.91755 -8.49709,0.20333c-2.57262,-0.91104 -2.47461,-3.4967 -2.02283,-4.69635z" fill="#004fd9" fill-rule="nonzero" stroke="#001026" stroke-width="1.2" stroke-linecap="butt" stroke-linejoin="miter"/><g fill-rule="nonzero" stroke-linecap="butt" stroke-linejoin="miter"><g fill="none" stroke="none" stroke-width="1" font-family="sans-serif" font-weight="normal" font-size="12" text-anchor="start"/><path d="M238.81919,203.94267c0,0 8.04676,1.20133 12.01333,1.115c3.96658,-0.08633 7.81956,-1.54665 7.81956,-1.54665c0,0 -0.85179,2.09595 -3.47654,4.16646c-2.03172,1.6027 -5.34714,3.28364 -8.75636,3.37626c-3.10591,0.08438 -6.27469,-0.52502 -7.405,-1.86716c-1.71323,-2.0343 -0.19495,-5.24393 -0.19495,-5.24393z" fill="#000000" stroke="#001026" stroke-width="1.2"/></g><g stroke="#001026" stroke-width="1.2"><path d="M246.09802,209.09407c0,0 -16.37623,30.95739 -17.03274,31.06985c-1.88402,0.32271 -10.42919,-2.13352 -10.42919,-2.13352l19.28663,-31.17293" fill="#ffab19" fill-rule="evenodd" stroke-linecap="round" stroke-linejoin="round"/><path d="M247.79376,208.57055c0,0 -3.53741,6.5476 -5.22856,10.01615c-1.62205,3.32686 -4.71971,10.38779 -4.71971,10.38779c0,0 -1.21699,5.11304 -2.67184,6.3936c-0.67382,0.59312 -0.72905,-2.41156 -0.72905,-2.41156c0,0 -0.09236,3.44741 -0.20108,3.79273c-0.7585,2.4094 -3.27145,5.5993 -6.48502,5.9531c-3.52831,0.38844 -9.30416,0.85774 -11.39627,-1.00256c-1.89405,-1.68415 -0.33488,-5.60539 0.69558,-7.22221c0.72364,-1.13539 2.7256,-1.77461 3.66467,-3.17131c0.62441,-0.92871 -3.99193,3.32282 -2.95835,2.08129c1.18243,-1.42031 6.2459,-7.76395 6.2459,-7.76395l13.70278,-19.88067" fill="#000000" fill-rule="evenodd" stroke-linecap="round" stroke-linejoin="round"/><path d="M232.19911,238.1978c-0.81567,1.73647 -2.35766,3.76414 -4.30266,4.83657c-1.95222,1.07639 -10.85035,0.81483 -11.71225,-0.44527c-0.81853,-1.19667 -0.41198,-3.44122 0.38412,-5.136c1.63438,-3.47938 6.45837,-6.13326 10.77471,-5.92763c4.31629,0.20564 6.49046,3.19295 4.85605,6.67235z" fill="#ff0000" fill-rule="nonzero" stroke-linecap="butt" stroke-linejoin="miter"/></g></g><g fill="#000000" fill-rule="nonzero" stroke="#001026" stroke-width="1.2" stroke-linecap="butt" stroke-linejoin="miter"><path d="M235.16491,215.68639c0,0 -3.09372,0.51825 -3.86649,0.26466c-0.23787,-0.07808 -0.56365,-1.02084 -0.45673,-2.1525c0.13344,-1.41245 0.80947,-3.16232 1.6528,-4.39094c2.16976,-3.16106 7.97512,-6.66742 9.7583,-6.08225c0.77282,0.2536 2.01366,2.77142 2.0127,2.7778"/></g></g><g fill="#ff0000" fill-rule="nonzero" stroke="none" stroke-linecap="butt" stroke-linejoin="miter"><path d="M248.28607,220.81153c0.08286,1.16313 -0.73924,2.1891 -1.8362,2.29157c-1.09696,0.10247 -2.05338,-0.75736 -2.13624,-1.92048c-0.08286,-1.16313 0.73924,-2.1891 1.83619,-2.29157c1.09696,-0.10247 2.05339,0.75736 2.13625,1.92048z" stroke-width="NaN"/><path d="M251.2584,225.11316c0.07623,1.07007 -0.65243,2.01139 -1.6275,2.10247c-0.97507,0.09108 -1.82733,-0.70254 -1.90355,-1.77261c-0.07623,-1.07007 0.65243,-2.01139 1.62751,-2.10248c0.97507,-0.09108 1.82732,0.70254 1.90355,1.77261z" stroke-width="0"/><path d="M248.29165,229.20638c0.07954,1.1166 -0.64642,2.09563 -1.6215,2.18671c-0.97507,0.09108 -1.83001,-0.74026 -1.90955,-1.85686c-0.07954,-1.1166 0.64642,-2.09563 1.6215,-2.18671c0.97507,-0.09108 1.83001,0.74026 1.90955,1.85686z" stroke-width="0"/><path d="M252.62051,214.05331c-0.80562,-0.198 -1.30732,-1.16622 -1.12058,-2.16257c0.18674,-0.99635 0.99121,-1.64354 1.79682,-1.44554c0.80562,0.198 1.30731,1.16622 1.12057,2.16258c-0.18674,0.99635 -0.9912,1.64354 -1.79682,1.44553z" stroke-width="NaN"/><path d="M249.0189,215.68431c-0.74116,-0.18216 -1.20744,-1.04779 -1.04145,-1.93343c0.16599,-0.88565 0.9014,-1.45594 1.64256,-1.27377c0.74116,0.18216 1.20743,1.04779 1.04145,1.93344c-0.16599,0.88565 -0.90139,1.45593 -1.64255,1.27376z" stroke-width="0"/><path d="M251.2939,218.20051c-0.83784,-0.20592 -1.38809,-1.06091 -1.22901,-1.90964c0.15908,-0.84874 0.96723,-1.36985 1.80507,-1.16393c0.83784,0.20592 1.38809,1.06091 1.22901,1.90965c-0.15908,0.84874 -0.96723,1.36984 -1.80507,1.16392z" stroke-width="0"/><path d="M237.63116,216.95437c-0.23924,1.13438 -1.30046,1.81412 -2.3703,1.51824c-1.06985,-0.29588 -1.74319,-1.45533 -1.50395,-2.58971c0.23924,-1.13438 1.30045,-1.81411 2.3703,-1.51824c1.06985,0.29588 1.74319,1.45532 1.50395,2.5897z" stroke-width="NaN"/><path d="M239.27833,222.10526c-0.2201,1.04363 -1.16943,1.67645 -2.12041,1.41345c-0.95097,-0.263 -1.54346,-1.32223 -1.32337,-2.36586c0.2201,-1.04363 1.16944,-1.67645 2.12041,-1.41345c0.95097,0.263 1.54346,1.32223 1.32336,2.36586z" stroke-width="0"/><path d="M242.90752,211.60089c-0.71101,-0.47682 -0.92284,-1.57622 -0.47315,-2.45556c0.4497,-0.87935 1.39064,-1.20564 2.10165,-0.72882c0.71101,0.47682 0.92284,1.57621 0.47314,2.45556c-0.4497,0.87935 -1.39064,1.20565 -2.10165,0.72883z" stroke-width="NaN"/><path d="M238.05069,207.7102c-0.68257,-0.45775 -0.91185,-1.46247 -0.51212,-2.24412c0.39973,-0.78164 1.2771,-1.04421 1.95967,-0.58646c0.68257,0.45775 0.91186,1.46248 0.51213,2.24412c-0.39973,0.78164 -1.27711,1.0442 -1.95968,0.58645z" stroke-width="0"/><path d="M240.51398,215.06418c-0.73945,-0.4959 -1.02834,-1.50514 -0.64527,-2.25421c0.38308,-0.74907 1.29306,-0.95432 2.03251,-0.45842c0.73945,0.4959 1.02835,1.50515 0.64527,2.25422c-0.38308,0.74907 -1.29307,0.95431 -2.03252,0.45841z" stroke-width="0"/></g><g stroke-linejoin="miter"><path d="M280.74511,167.75239c-0.94747,13.4176 -13.0826,23.49206 -27.10461,22.50192c-14.022,-0.99014 -24.62102,-12.66991 -23.67355,-26.08753c0.94747,-13.4176 13.0826,-23.49206 27.10461,-22.50192c14.022,0.99014 24.62102,12.66991 23.67355,26.08753z" fill="none" fill-rule="nonzero" stroke="#000000" stroke-width="4.5" stroke-linecap="butt"/><g><g fill-rule="nonzero" stroke-linecap="butt"><path d="M241.41551,149.20036l0.01085,0.00889" fill="#ffab19" stroke="#000000" stroke-width="5"/><g fill="none" stroke="none" stroke-width="1" font-family="sans-serif" font-weight="normal" font-size="12" text-anchor="start"/></g><path d="M241.41551,149.20036l0.01085,0.00889" fill="#ffab19" fill-rule="nonzero" stroke="#000000" stroke-width="5" stroke-linecap="butt"/><path d="M254.97948,167.15899" fill="#001026" fill-rule="evenodd" stroke="#000000" stroke-width="5" stroke-linecap="butt"/><g fill="none" fill-rule="nonzero" stroke="none" stroke-width="1" stroke-linecap="butt" font-family="sans-serif" font-weight="normal" font-size="12" text-anchor="start"/><g fill="none" fill-rule="nonzero" stroke="none" stroke-width="1" stroke-linecap="butt" font-family="sans-serif" font-weight="normal" font-size="12" text-anchor="start"/><path d="M288.14439,166.80677c-1.7144,2.01013 -17.89011,-7.15612 -17.89011,-7.15612" fill="none" fill-rule="nonzero" stroke="#000000" stroke-width="5" stroke-linecap="round"/><path d="M262.18053,160.52809c0,0 -21.85595,11.70295 -24.73412,10.84666" fill="none" fill-rule="nonzero" stroke="#000000" stroke-width="5" stroke-linecap="round"/></g><path d="M261.80943,162.29318l-1.13855,12.80576" fill="none" fill-rule="nonzero" stroke="#000000" stroke-width="4.5" stroke-linecap="round"/><path d="M270.31738,161.25391l-1.18793,13.50515" fill="none" fill-rule="nonzero" stroke="#000000" stroke-width="4.5" stroke-linecap="round"/><path d="M247.80105,190.71773l-29.3581,-2.30736c0,0 -1.05256,-2.40995 -0.64319,-3.28477c0.93871,-2.00605 6.16184,-8.50882 6.16184,-8.50882l-7.77747,-6.64434c0,0 -2.48536,-1.73155 -2.72652,-2.85057c-0.22435,-1.04097 8.62563,-7.03828 8.62563,-7.03828c0,0 -3.27377,-9.14736 -5.36806,-11.28117c-0.82237,-0.83789 7.52157,-2.62057 16.43102,-5.72931c4.35965,-1.5212 10.32265,-3.85454 15.05301,-4.25262c7.84326,-0.66004 13.66501,2.04854 13.66501,2.04854" fill="none" fill-rule="nonzero" stroke="#000000" stroke-width="3" stroke-linecap="round"/><path d="M216.57791,188.27868c0,0 -0.42996,-1.43774 0.93261,-3.27919c1.70666,-2.30647 7.26277,-5.17305 5.77937,-7.64514c-1.9216,-3.20233 -10.47855,-6.33046 -8.65863,-10.05855c0.39217,-0.80334 0.16071,-2.42094 1.35522,-3.38268c3.35728,-2.70307 5.75604,-2.32198 5.86364,-3.84601c0.14559,-2.0617 1.89298,-3.02779 -0.52629,-5.95655c-3.44071,-4.1653 -1.3131,-6.34892 -1.3131,-6.34892c0,0 5.49187,-2.42505 11.34598,-4.4646c5.49245,-1.91354 16.03692,-3.21556 16.03692,-3.21556c0,0 -15.8659,12.66088 -18.55916,20.53944c-2.98553,8.73353 13.22061,28.51959 13.22061,28.51959z" fill="url(#color-1)" fill-rule="nonzero" stroke="none" stroke-width="0" stroke-linecap="butt"/></g><path d="M244.74217,185.50047c-5.36189,-1.71627 -8.97616,-7.02437 -8.97616,-7.02437c0,0 8.83342,-6.13966 11.07346,-5.80411c2.02762,0.30372 1.91356,12.15798 4.18824,11.56194c1.08464,-0.28422 1.30761,2.51268 1.91412,2.82166c0.36431,0.1856 -3.01924,0.10306 -8.19966,-1.55511z" fill="#ff0000" fill-rule="nonzero" stroke="#000000" stroke-width="2" stroke-linecap="butt" stroke-linejoin="miter"/><path d="M244.67074,205.07643l5.17191,-9.23235" fill="none" fill-rule="nonzero" stroke="#000000" stroke-width="6" stroke-linecap="round" stroke-linejoin="miter"/><path d="M228.3046,200.81812c0,0 13.88312,-1.49969 14.56311,-2.39071c1.23125,-1.61337 9.05364,-5.80431 9.05364,-5.80431l35.60069,-1.878" fill="none" fill-rule="nonzero" stroke="#000000" stroke-width="6" stroke-linecap="round" stroke-linejoin="miter"/><g fill-rule="nonzero" stroke-linecap="butt" stroke-linejoin="miter"><path d="M225.00522,194.33118c0,0 2.73666,-2.62869 5.25797,-3.01158c2.08387,-0.31647 3.97785,1.50696 4.43739,2.24034c0.81323,1.29791 0.57757,2.54041 -0.35492,3.76154c-0.94431,1.23659 -5.06715,2.95171 -5.06715,2.95171c0,0 -4.16394,3.28326 -5.98888,3.45359c-1.29736,0.12105 -2.36104,-0.24236 -3.04117,-1.3278c-1.05137,-1.67799 -1.74519,-3.85547 -0.25871,-5.92604c0.82769,-1.15286 5.01547,-2.14174 5.01547,-2.14174z" fill="#000000" stroke="#000000" stroke-width="1.2"/><g stroke="none" stroke-width="1"><path d="M235.63505,195.06779c-0.04989,-0.23093 0.0593,-0.34651 0.21186,-0.45777c0.2552,-0.15519 0.53796,-0.25347 0.80239,-0.3896c0.02369,-0.07898 0.04742,-0.15793 0.05399,-0.22952c0.21621,-1.51463 0.99779,-2.62931 1.99105,-3.60526c0.21047,-0.20487 0.41182,-0.42872 0.68537,-0.54593c0.05131,-0.02196 0.11051,-0.07028 0.12629,-0.12294c0.08691,-0.28955 0.30919,-0.38478 0.5394,-0.50632c0.19598,-0.10693 0.41035,-0.17584 0.61555,-0.26371c0.11967,-0.05127 0.25779,-0.06457 0.39851,0.01275c0.14066,0.07733 0.30509,0.07572 0.45233,0.0814c0.83774,-0.06076 1.68858,0.03339 2.5433,0.26348c0.47995,0.13837 0.91913,0.36302 1.36749,0.6067c1.31882,0.71934 2.37843,1.7561 3.23677,3.01675c0.37986,0.57117 0.6834,1.19798 0.91859,1.85405c0.17867,0.4968 0.21926,1.00695 0.23356,1.50539c0.04547,1.58603 -0.4258,2.95763 -1.27451,4.14689c-0.15789,0.2282 -0.37756,0.41406 -0.59726,0.59992c-0.14336,0.13024 -0.26049,0.27217 -0.2711,0.50606c-0.00272,0.20756 -0.11978,0.34948 -0.27235,0.46071c-0.2552,0.15519 -0.52877,0.27241 -0.80238,0.38961c-0.08552,0.03664 -0.17231,0.02796 -0.25913,0.01923c-0.32218,-0.06837 -0.60625,-0.01546 -0.88906,0.08276c-0.59058,0.2301 -1.23894,0.25559 -1.87809,0.30007c-0.24202,0.01192 -0.49317,0.00488 -0.74566,-0.04746c-0.81792,-0.1541 -1.61093,-0.34187 -2.38405,-0.74453c-0.25646,0.10989 -0.53927,0.2081 -0.81284,0.32535c-0.10261,0.04395 -0.2223,0.09523 -0.34586,0.01058c-0.11437,-0.06568 -0.2078,-0.00273 -0.31036,0.04126c-0.69315,0.27406 -1.37711,0.56709 -2.07029,0.84114c-1.53103,0.63302 -3.07911,1.27337 -4.62853,1.86841c-1.51521,0.58037 -3.00281,1.21779 -4.49965,1.83614c-0.23939,0.10258 -0.48007,0.1598 -0.71942,0.26238c-1.16273,0.49818 -2.32549,0.99633 -3.49741,1.47553c-0.20518,0.08793 -0.39199,0.2138 -0.63525,0.1804c-0.08682,-0.00866 -0.16308,0.04694 -0.24859,0.08356c-0.85494,0.36634 -1.7362,0.72094 -2.59116,1.08725c-0.0342,0.01465 -0.08552,0.03663 -0.11967,0.05127c-0.26437,0.13624 -0.46557,0.06187 -0.71405,-0.15277c-0.82564,-0.7242 -1.37898,-1.61091 -1.6601,-2.66017c-0.06829,-0.2689 -0.10238,-0.55244 -0.09309,-0.83164c0.00274,-0.20757 0.1027,-0.34216 0.26446,-0.43441c0.48539,-0.27677 0.96156,-0.57252 1.46407,-0.85661c0.35779,-0.19917 0.75107,-0.36769 1.08126,-0.6238c0.71955,-0.56057 1.56665,-0.90058 2.31374,-1.4042c0.42487,-0.2738 0.81425,-0.57825 1.24835,-0.83303c0.46824,-0.26944 0.90106,-0.56952 1.34301,-0.85066c0.80769,-0.50659 1.65084,-0.98253 2.44927,-1.50811c1.03523,-0.71875 2.10729,-1.36157 3.17931,-2.00436c0.36572,-0.22549 0.7313,-0.45097 1.09704,-0.67646c0.57877,-0.33976 1.17464,-0.68676 1.75338,-1.02643c0.32359,-0.18453 0.61168,-0.39969 0.93524,-0.58421c0.33152,-0.21086 0.65635,-0.35004 1.01419,-0.5492zM236.10437,195.44006c0.00779,0.2719 0.04974,0.52911 0.15225,0.78337c0.08529,0.55978 0.29947,1.08726 0.51368,1.61475c0.26148,0.66778 0.60056,1.32523 0.93045,1.96366c0.37586,0.73343 0.89512,1.33662 1.44068,1.95151c0.07102,0.06133 0.142,0.12265 0.24847,0.2146c0.13679,-0.0586 0.27358,-0.11724 0.41035,-0.17582c0.03419,-0.01464 0.05919,-0.04831 0.10126,-0.08927c-0.06438,-0.13295 -0.14591,-0.25859 -0.24446,-0.3769c-0.16171,-0.20594 -0.27996,-0.40757 -0.44162,-0.61351c-0.37855,-0.52584 -0.61248,-1.13666 -0.93975,-1.68446c-0.16435,-0.29658 -0.36274,-0.57849 -0.49284,-0.88972c-0.27069,-0.68675 -0.62683,-1.3369 -0.82911,-2.05292c-0.04858,-0.18563 -0.10643,-0.39016 -0.15498,-0.57583c0.06583,-0.11993 -0.04202,-0.25721 -0.05378,-0.36688c-0.00387,-0.13592 -0.0078,-0.27191 -0.12607,-0.47346c-0.1579,0.22818 -0.4078,0.26647 -0.5762,0.43031c0.0289,0.10231 -0.03688,0.22221 0.06171,0.34052zM235.89097,196.4489c-0.05769,-0.50281 -0.09578,-0.62406 -0.24957,-0.85636c-0.19598,0.10693 -0.37487,0.20653 -0.57087,0.31338c-0.11967,0.05127 -0.16841,0.16385 -0.16452,0.29986c0.00258,0.09064 0.04859,0.18562 0.05119,0.27622c0.01826,0.33621 0.12342,0.68107 0.28766,0.97766c-0.02106,0.16959 0.05245,0.32151 0.12607,0.47348c0.39686,0.86204 0.76745,1.71245 1.24979,2.53783c0.21817,0.36525 0.45345,0.72315 0.69663,1.05469c0.2064,0.25564 0.42198,0.5302 0.73755,0.67022c0.22232,-0.09524 0.44454,-0.1905 0.66686,-0.28573c-0.10777,-0.13728 -0.20639,-0.25564 -0.29575,-0.35488c-0.39435,-0.47324 -0.7545,-0.96107 -1.0463,-1.47828c-0.38243,-0.66179 -0.67942,-1.36024 -0.99351,-2.05132c-0.15641,-0.32293 -0.20102,-0.67076 -0.37448,-0.98634c0.03687,-0.2222 -0.03799,-0.41948 -0.12076,-0.5904zM218.00047,206.95802c0.02619,0.30986 0.13787,0.5831 0.28375,0.84167c-0.00792,0.02629 -0.00661,0.07163 0.00261,0.09063c0.23787,0.44853 0.50996,0.88241 0.86622,1.23433c0.20512,0.21033 0.39306,0.4279 0.67312,0.53724c0.95758,-0.41025 1.91507,-0.82055 2.92396,-1.25276c-0.40882,-0.37528 -0.7152,-0.7945 -1.0043,-1.22103c-0.2616,-0.36958 -0.39427,-0.77142 -0.62165,-1.15563c-0.07361,-0.15192 -0.12092,-0.29226 -0.19451,-0.44419c-0.02488,-0.26452 -0.09318,-0.53344 -0.21404,-0.82566c-0.51298,0.2198 -0.91814,0.57691 -1.37856,0.81998c-0.46828,0.26944 -0.92735,0.55788 -1.37852,0.81999c-0.03688,0.22221 0.00245,0.38882 0.04189,0.55542zM221.20739,205.01063c-0.02106,0.16959 0.03542,0.32889 0.10899,0.48078c0.00518,0.18126 0.10508,0.34492 0.17076,0.52316c0.24051,0.53916 0.56643,1.04168 0.91743,1.51055c0.21556,0.27459 0.4654,0.53452 0.76515,0.72717c0.0684,-0.0293 0.14599,-0.03961 0.21439,-0.06896c0.8379,-0.35897 1.65858,-0.71059 2.50565,-1.05062c0.89834,-0.36196 1.77959,-0.7166 2.67795,-1.07858c1.30873,-0.53782 2.60957,-1.04924 3.9183,-1.58705c1.47182,-0.58472 2.89894,-1.21912 4.38916,-1.76584c0.24858,-0.08355 0.49584,-0.21248 0.75236,-0.32236c-0.16958,-0.17962 -0.36416,-0.32557 -0.49955,-0.51985c-0.47585,-0.59883 -0.85832,-1.26064 -1.20659,-1.93709c-0.29435,-0.60777 -0.57165,-1.22291 -0.8489,-1.83805c-0.0854,-0.26158 -0.17866,-0.49683 -0.26407,-0.7584c0.02901,-0.19589 -0.08799,-0.35219 -0.1274,-0.51878c-0.04858,-0.18563 -0.0538,-0.36683 -0.16287,-0.54944c-0.18938,0.03528 -0.3078,0.13189 -0.41829,0.20215c-0.90768,0.64122 -1.90602,1.1377 -2.84127,1.7219c-0.60378,0.37339 -1.20755,0.74671 -1.80208,1.13909c-0.80768,0.50656 -1.58902,1.02483 -2.37957,1.52409c-0.64582,0.41437 -1.29171,0.82869 -1.94678,1.22399c-0.69718,0.4363 -1.38643,0.84627 -2.09278,1.26361c-0.63797,0.38801 -1.29301,0.78338 -1.93889,1.19768c0.06569,0.17822 0.0183,0.3362 0.10899,0.48079zM247.19257,201.53757c-0.35624,-0.35192 -0.61785,-0.72151 -0.89652,-1.08373c-0.28787,-0.38123 -0.58366,-0.73615 -0.85444,-1.12467c-0.2616,-0.36958 -0.49818,-0.77285 -0.74261,-1.14971c-0.25367,-0.39592 -0.50737,-0.79177 -0.75316,-1.21396c-0.22734,-0.38421 -0.44683,-0.79477 -0.67422,-1.179c-0.21944,-0.41053 -0.37056,-0.85039 -0.65844,-1.23164c-0.0906,-0.4428 -0.36135,-0.83135 -0.53749,-1.23756c-0.16816,-0.43252 -0.37976,-0.86939 -0.54796,-1.3019c-0.15897,-0.4135 -0.31007,-0.85339 -0.45195,-1.27423c-0.15109,-0.43986 -0.22454,-0.89001 -0.42693,-1.30781c-0.42877,0.13783 -0.54846,0.18911 -0.78265,0.47292c0.02488,0.26452 0.04978,0.52912 0.12728,0.81699c0.1051,0.34488 0.21012,0.68973 0.30734,1.06094c0.19308,0.6971 0.39407,1.36785 0.71603,2.03261c0.22079,0.45587 0.45867,0.9044 0.61104,1.38957c0.0289,0.10231 0.0841,0.21625 0.17347,0.31556c0.16169,0.20594 0.26415,0.46023 0.37459,0.68812c0.40475,0.83574 0.91211,1.6275 1.42739,2.39293c0.66116,1.02408 1.42358,1.95883 2.23737,2.87159c0.1525,0.18692 0.30497,0.37393 0.53243,0.45986c0.27491,-0.07189 0.52222,-0.20079 0.81944,-0.39694zM245.51094,192.99231c-0.29588,-0.05668 -0.555,-0.03745 -0.82326,-0.03718c-0.23409,-0.01441 -0.44848,0.05452 -0.61686,0.21842c-0.33808,0.28246 -0.72085,0.51529 -1.14046,0.6721c-0.03418,0.01464 -0.07629,0.05561 -0.09338,0.06293c-0.00528,0.11692 0.03152,0.19289 0.12879,0.26591c0.02629,0.01168 0.06971,0.01602 0.08682,0.00867c0.52349,-0.15549 1.06534,-0.27294 1.62561,-0.35247c0.0776,-0.0103 0.18937,-0.03528 0.23939,-0.10258c0.23679,-0.19319 0.47358,-0.38636 0.59336,-0.73588zM242.37703,192.95891c0.48927,-0.14085 0.97984,-0.23631 1.46253,-0.30548c0.15516,-0.02066 0.26568,-0.0909 0.37485,-0.20653c0.1592,-0.18287 0.2658,-0.38913 0.38952,-0.60265c0.05001,-0.06727 0.11709,-0.14188 0.02771,-0.2412c-0.33669,0.02957 -0.66549,0.03287 -0.98374,0.10039c-0.56176,0.63059 -0.56176,0.63059 -1.37329,1.00123c-0.02372,0.07895 -0.004,0.16229 0.10247,0.25426zM242.94721,198.35667c-0.34459,0.05589 -0.67997,0.1308 -1.01534,0.20567c-0.0776,0.0103 -0.15519,0.02063 -0.21438,0.0689c-0.20921,0.25016 -0.42758,0.48135 -0.53948,0.80453c0.31556,0.14002 0.59964,0.08711 0.89426,0.09851c0.14726,0.00572 0.24067,-0.05727 0.33278,-0.16554c0.19998,-0.26915 0.4184,-0.50038 0.66308,-0.71981c0.01711,-0.00733 0.01582,-0.05261 0.03159,-0.10524c-0.04471,-0.04964 -0.09863,-0.11835 -0.1525,-0.18694zM247.40204,196.76902c-0.39319,-0.12971 -0.70487,-0.1338 -1.02575,-0.15684c-0.12099,0.00595 -0.19726,0.0616 -0.27355,0.11722c-0.35518,0.28982 -0.738,0.52258 -1.17466,0.68676c-0.05129,0.02197 -0.09339,0.06292 -0.14468,0.08493c0.08408,0.21627 0.11958,0.24692 0.25637,0.1883c0.44461,-0.1905 0.91807,-0.27864 1.40332,-0.25724c0.29458,0.01138 0.49061,-0.09549 0.66687,-0.28569c0.08294,-0.12726 0.15795,-0.22819 0.29209,-0.37744zM243.44542,195.20757c0.046,0.09496 0.12362,0.08461 0.19204,0.05535c0.47879,-0.2051 1.01403,-0.251 1.54932,-0.29683c0.43136,-0.04722 0.78785,-0.29167 1.02603,-0.73777c-0.21828,-0.06703 -0.39848,-0.01275 -0.59835,-0.04178c-0.41689,-0.05074 -0.74176,0.08844 -1.04697,0.31094c-0.33936,0.23714 -0.66957,0.49329 -1.06413,0.61652c-0.04207,0.04099 -0.05004,0.06731 -0.0579,0.09361zM246.16347,196.1301c0.19339,-0.19754 0.39596,-0.37607 0.57755,-0.68318c-0.26039,-0.02605 -0.44316,-0.06243 -0.61677,-0.07977c-0.28669,-0.03768 -0.50105,0.03121 -0.70367,0.20973c-0.2697,0.25316 -0.59327,0.43768 -0.92604,0.60319c-0.11051,0.07026 -0.24728,0.12887 -0.36695,0.18015c0.0289,0.10231 0.08932,0.09931 0.12358,0.08465c0.54188,-0.11752 1.09293,-0.21598 1.66371,-0.23116c0.0947,-0.01764 0.17228,-0.02795 0.24856,-0.08357zM243.69772,199.47998c-0.28808,0.2152 -0.62349,0.29004 -0.94967,0.38393c-0.08548,0.03663 -0.1815,0.00894 -0.24857,0.08357c-0.10922,0.11563 -0.27239,0.46073 -0.32514,0.73561c0.2354,0.05972 0.45897,0.00978 0.6839,0.00519c0.1815,-0.00896 0.30905,-0.08655 0.39988,-0.24013c0.16579,-0.25448 0.34999,-0.47103 0.59599,-0.64525c0.01711,-0.00733 0.03287,-0.05998 0.04077,-0.08626c-0.01969,-0.08332 -0.05649,-0.15926 -0.19722,-0.23659zM239.42312,193.46767c-0.18417,0.21652 -0.4841,0.32206 -0.62359,0.58827c0.08149,0.12564 0.19457,0.14599 0.29979,0.19267c0.2012,0.07435 0.37736,0.18234 0.61145,0.19672c0.25262,-0.24581 0.61297,-0.35439 0.89185,-0.58853c0.00528,-0.11692 -0.04067,-0.21191 -0.1209,-0.29222c-0.34588,0.01057 -0.69307,-0.02413 -1.05864,-0.09686zM241.69862,196.16234c-0.18938,0.03528 -0.37877,0.07056 -0.54444,0.02684c-0.40103,-0.10339 -0.68257,0.04018 -0.89964,0.31665c-0.07498,0.1009 -0.17759,0.14488 -0.22502,0.30281c0.26304,0.11668 0.51548,0.16908 0.76799,0.22137c0.06971,0.01602 0.13807,-0.0133 0.21436,-0.06893c0.2197,-0.1859 0.43148,-0.34543 0.65118,-0.53126c0.05129,-0.02196 0.1013,-0.08928 0.03558,-0.26757zM241.11906,194.96574c-0.41298,0.0852 -0.81016,0.11774 -1.20333,-0.01196c-0.07886,-0.035 -0.13807,0.01331 -0.20645,0.04263c-0.1447,0.08493 -0.2802,0.18886 -0.37888,0.36875c0.3682,0.16338 0.69041,0.23173 1.02963,0.29276c0.1131,0.02034 0.20778,0.00273 0.30119,-0.06025c0.16972,-0.11854 0.3486,-0.21816 0.51827,-0.33675c0.01709,-0.00732 0.03289,-0.05998 0.04079,-0.08628c-0.02758,-0.057 -0.05519,-0.11399 -0.10122,-0.20891zM247.26334,198.57155c0.13416,-0.14924 0.28551,-0.30579 0.41972,-0.45504c0.00792,-0.02628 0.0158,-0.05264 0.03159,-0.10526c-0.25507,-0.14302 -0.51547,-0.16906 -0.74036,-0.16446c-0.46567,0.36008 -0.89712,0.70549 -1.47852,0.95457c0.40238,0.1487 0.61152,-0.1015 0.86141,-0.13977c0.30119,-0.06025 0.60365,-0.07516 0.90612,-0.09009zM245.79247,192.55055c0.1132,-0.27782 0.24478,-0.51776 0.23569,-0.8349c-0.15648,-0.02472 -0.28797,-0.08302 -0.41819,-0.09603c-0.13019,-0.01299 -0.26958,-0.04504 -0.38927,0.00627c-0.12627,0.12292 -0.1645,0.29986 -0.2382,0.44606c-0.07364,0.14627 -0.18291,0.26185 -0.19481,0.45041c0.33797,0.01571 0.64965,0.01979 1.00474,0.02822zM241.75408,191.75799c0.54977,-0.14384 1.00484,-0.27002 1.45988,-0.39617c0.03421,-0.01466 0.09472,-0.01762 0.11051,-0.07026c0.12368,-0.21355 0.29999,-0.40377 0.30009,-0.70195c-0.27619,0.02658 -0.53529,0.04584 -0.78518,0.08414c-0.27373,0.41543 -0.63676,0.73149 -1.08536,1.08426zM240.61958,198.06963c0.20251,0.11967 0.39187,0.08436 0.56545,0.10175c0.19987,0.02903 0.37216,0.00108 0.52346,-0.15548c0.21047,-0.20485 0.42098,-0.40972 0.71298,-0.48897c-0.03023,-0.14762 -0.08411,-0.21627 -0.18667,-0.17232c-0.26567,0.09091 -0.54848,0.18909 -0.82595,0.17038c-0.3985,-0.01277 -0.58143,0.24908 -0.7893,0.54461zM240.08506,196.028c-0.41027,-0.12239 -0.73376,-0.23605 -1.04802,-0.33076c-0.11967,0.05127 -0.16052,0.13755 -0.21047,0.20484c-0.04079,0.08627 -0.12495,0.16821 -0.09478,0.31579c0.23801,0.15036 0.50094,0.26701 0.77181,0.3574c0.19468,-0.15221 0.36307,-0.31611 0.58152,-0.54727zM240.69138,199.36899c0.1737,-0.28081 0.32238,-0.52803 0.48818,-0.78251c-0.2867,-0.03771 -0.55632,-0.08277 -0.82588,-0.1278c-0.15789,0.2282 -0.31712,0.41108 -0.36058,0.70494c0.23667,0.105 0.46286,0.14571 0.69824,0.20541zM246.78123,193.22785c-0.21297,-0.18399 -0.46288,-0.14569 -0.68906,-0.18643c-0.06971,-0.01602 -0.14599,0.03957 -0.17887,0.09958c-0.11579,0.18721 -0.22371,0.34814 -0.32242,0.528c-0.01711,0.00733 0.0013,0.04535 0.01968,0.08335c0.30379,0.03042 0.61543,0.03443 0.91926,0.06485c0.125,-0.1682 0.18819,-0.37875 0.2514,-0.58933zM247.65861,196.36092c0.15129,-0.15658 0.2855,-0.3058 0.30403,-0.566c-0.22749,-0.08601 -0.47337,-0.21 -0.72456,-0.21707c-0.09211,0.10824 -0.20258,0.17854 -0.26838,0.29845c-0.07497,0.10089 -0.22101,0.14051 -0.18947,0.33344c0.29588,0.05671 0.59175,0.11342 0.87848,0.15113zM241.03445,199.86417c-0.11708,0.14191 -0.11979,0.34949 -0.1396,0.56437c0.27878,0.06409 0.52467,0.18802 0.80083,0.16148c0.06321,-0.21057 0.20531,-0.3861 0.24089,-0.65366c-0.30378,-0.03042 -0.59837,-0.04182 -0.90215,-0.07219zM244.54162,200.54036c-0.31699,0.11288 -0.61424,0.3091 -0.94968,0.38394c-0.27487,0.07192 -0.34725,0.26347 -0.37367,0.54999c0.25245,0.05234 0.45897,0.00978 0.69174,-0.02118c0.15397,-0.36413 0.43286,-0.59834 0.63155,-0.91279zM241.4783,190.59175c0.0539,0.06867 0.10516,0.04666 0.15649,0.02473c0.23147,-0.07625 0.47087,-0.17883 0.71158,-0.23607c0.36167,-0.06325 0.44066,-0.32644 0.50916,-0.65394c-0.13811,0.01329 -0.24197,0.01197 -0.33666,0.02958c-0.23279,0.03095 -0.43005,0.0925 -0.53536,0.34405c-0.07366,0.14625 -0.20921,0.25018 -0.32757,0.34681c-0.07759,0.0103 -0.18148,0.00896 -0.17761,0.14488zM238.58955,192.76979c0.11436,0.06566 0.2104,0.09335 0.28927,0.12834c0.22875,0.13133 0.4103,0.12237 0.59708,-0.00356c0.15259,-0.11122 0.34989,-0.17281 0.51168,-0.2651c0.05131,-0.02196 0.11178,-0.02496 0.0645,-0.16525c-0.28542,0.00756 -0.58918,-0.02278 -0.89426,-0.09851c-0.06969,-0.01604 -0.15517,0.02062 -0.22357,0.0499c-0.11837,0.09657 -0.21972,0.18586 -0.34468,0.35408zM240.1225,197.93853c0.1342,-0.14922 0.29469,-0.28678 0.38416,-0.48571c-0.28008,-0.10934 -0.53515,-0.25236 -0.82184,-0.29008c-0.1158,0.18724 -0.25919,0.31745 -0.26061,0.57037c0.22749,0.08603 0.44709,0.19839 0.69825,0.20542zM246.24147,194.92692c0.2801,0.10931 0.5405,0.13536 0.78242,0.12341c0.11579,-0.18721 0.22367,-0.34811 0.29478,-0.58501c-0.17622,-0.108 -0.35899,-0.14436 -0.54967,-0.15439c-0.16707,0.20922 -0.34338,0.39941 -0.52759,0.61594zM238.51728,196.58507c-0.06452,0.16528 -0.12239,0.25884 -0.14478,0.38314c-0.02369,0.07898 -0.03031,0.1506 -0.03692,0.22227c0.17749,0.15332 0.37996,0.27296 0.60617,0.31367c0.125,-0.1682 0.24995,-0.33646 0.27766,-0.57769c-0.23667,-0.10499 -0.43918,-0.22466 -0.70214,-0.34132zM239.77495,191.55091c-0.30639,-0.12099 -0.51673,-0.21434 -0.77053,-0.31204c-0.07759,0.0103 -0.18808,0.08056 -0.26307,0.18153c-0.08419,0.08192 -0.22226,0.09524 -0.25257,0.24584c0.13413,0.14897 0.27479,0.22627 0.44049,0.26997c0.26437,-0.13624 0.52089,-0.24609 0.84574,-0.38526zM246.45561,191.83073c-0.03951,0.13165 -0.07902,0.26325 -0.11852,0.39481c-0.0395,0.13162 -0.06188,0.25588 -0.10139,0.38748c0.25245,0.05239 0.45366,0.12673 0.66012,0.08415c0.07498,-0.10094 0.054,-0.22956 0.05934,-0.34649c0.00528,-0.11692 0.06188,-0.2559 -0.01959,-0.38148c-0.17495,-0.06269 -0.31556,-0.14002 -0.47999,-0.13838zM239.54616,198.96527c0.09738,-0.22521 0.25662,-0.40812 0.28298,-0.69468c-0.20118,-0.07433 -0.39318,-0.12968 -0.59436,-0.20404c-0.0974,0.22522 -0.19613,0.40512 -0.17121,0.66966c0.1499,0.09628 0.26559,0.20733 0.48259,0.229zM243.91893,191.19739c0.36299,-0.01787 0.68257,-0.04014 1.00209,-0.06241c0.06583,-0.11993 0.14082,-0.22088 0.1106,-0.36848c-0.28929,-0.12832 -0.57466,-0.12075 -0.86925,-0.13215c-0.06583,0.11997 -0.13161,0.23987 -0.17111,0.37146c-0.05924,0.04828 -0.05789,0.0936 -0.07242,0.19153zM238.79785,195.20341c0.1329,-0.19458 0.3381,-0.28248 0.40128,-0.49303c-0.27219,-0.13564 -0.51806,-0.25964 -0.7969,-0.32372c-0.05529,0.18428 -0.2263,0.25748 -0.23692,0.49139c0.17747,0.15328 0.3866,0.20137 0.63247,0.32536zM248.06843,197.67609c0.14999,-0.20189 0.29208,-0.37741 0.32899,-0.59967c-0.16698,-0.08901 -0.34187,-0.15167 -0.5155,-0.16903c-0.14996,0.20189 -0.30917,0.38475 -0.49336,0.60128c0.24323,0.03338 0.43527,0.08872 0.67983,0.16744zM238.25935,193.02594c-0.1855,0.17122 -0.34598,0.30879 -0.39079,0.55731c0.15911,0.1153 0.29188,0.21898 0.46547,0.23637c0.16837,-0.16387 0.34595,-0.30879 0.53936,-0.50629c-0.2025,-0.11966 -0.39578,-0.22032 -0.61406,-0.28736zM247.49593,195.21514c0.26956,0.04505 0.47339,0.21002 0.67988,0.16742c0.11579,-0.18721 0.14481,-0.38314 0.1475,-0.59071c-0.19329,-0.10066 -0.36948,-0.20869 -0.58518,-0.18507c-0.0724,0.19154 -0.15398,0.36414 -0.24218,0.60836zM240.44912,200.27558c0.0553,-0.18425 0.129,-0.3305 0.11458,-0.53076c-0.25245,-0.05234 -0.47337,-0.21004 -0.73248,-0.19074c-0.06452,0.16526 -0.07773,0.30854 -0.012,0.48679c0.21038,0.09335 0.42868,0.16038 0.62987,0.23468zM243.80358,190.19178c0.08161,-0.17257 0.10396,-0.29682 0.09091,-0.4518c-0.20121,-0.07436 -0.42738,-0.11508 -0.63254,-0.02715c-0.04739,0.15793 -0.09479,0.3158 -0.15932,0.48109c0.26168,0.07136 0.47604,0.00244 0.70097,-0.00216zM243.76124,202.29677c0.03031,-0.15056 0.05272,-0.27488 0.01463,-0.39612c-0.22614,-0.04073 -0.43398,-0.0434 -0.64046,-0.00078c-0.05662,0.13889 -0.079,0.26318 -0.04881,0.4108c0.2354,0.0597 0.44977,-0.00924 0.67464,-0.01387zM238.28802,197.64651c-0.14999,0.20185 -0.09351,0.36114 0.00637,0.52478c0.06436,0.13295 0.16298,0.25127 0.32738,0.24965c0.08161,-0.17257 0.1461,-0.3378 0.14881,-0.54538c-0.167,-0.08899 -0.32478,-0.15901 -0.48256,-0.22903zM247.67855,199.47157c0.12628,-0.12289 0.26305,-0.1815 0.28416,-0.3511c-0.47467,-0.25532 -0.75359,-0.02118 -1.02063,0.32261c0.25117,0.00709 0.4853,0.02146 0.73646,0.0285zM237.82575,195.71162c0.15116,0.14167 0.29188,0.21897 0.50095,0.26702c0.02106,-0.16959 0.1829,-0.26187 0.17768,-0.4431c-0.07228,-0.10666 -0.15909,-0.11533 -0.24715,-0.16932c-0.10516,-0.04666 -0.18536,-0.12701 -0.30507,-0.07573c-0.06582,0.11994 -0.13161,0.2399 -0.12639,0.42113zM243.72541,195.61506c-0.00141,0.25287 0.08798,0.3522 0.25105,0.30524c0.23148,-0.07623 0.44461,-0.19047 0.64056,-0.29742c0.06838,-0.02927 0.14468,-0.08496 0.1237,-0.21353c-0.35376,0.03691 -0.68913,0.11182 -1.01533,0.20564zM240.93929,201.37282c-0.08418,0.08191 -0.09869,0.17991 -0.06062,0.30122c0.24589,0.12404 0.49306,0.29336 0.78764,0.30475c-0.00781,-0.27188 -0.12477,-0.42823 -0.36016,-0.48788c-0.10518,-0.04666 -0.21172,-0.13868 -0.36691,-0.11804zM245.12907,198.08695c0.12876,0.2659 0.19062,0.30822 0.34446,0.24231c0.23019,-0.12159 0.47749,-0.25043 0.67087,-0.44799c-0.38139,-0.02009 -0.73646,-0.02847 -1.01532,0.20566zM244.77274,201.65693c-0.14597,0.03958 -0.26569,0.09093 -0.39456,0.1232c-0.24861,0.08354 -0.24858,0.08359 -0.16852,0.4621c0.13811,-0.01332 0.3025,-0.0149 0.38004,-0.02524c0.06324,-0.21057 0.12768,-0.37579 0.18296,-0.56005zM248.39866,193.7963c-0.14069,-0.07736 -0.25769,-0.23362 -0.4458,-0.15304c-0.0303,0.15058 -0.03431,0.31285 -0.07249,0.48975c0.16699,0.08903 0.32604,0.20436 0.49046,0.2027c0.02105,-0.16963 0.06851,-0.32754 0.02783,-0.53946zM242.86072,201.07708c-0.26827,0.00031 -0.54576,-0.0185 -0.81403,-0.01818c-0.06708,0.07464 -0.10789,0.16087 -0.01851,0.26018c0.23668,0.10501 0.4892,0.15742 0.73907,0.11913c0.06583,-0.11993 0.09739,-0.22522 0.09349,-0.36119zM248.46952,197.77956c0.08149,0.12564 0.19588,0.19132 0.33528,0.22333c0.05001,-0.06729 0.09998,-0.13457 0.14998,-0.20188c0.0579,-0.0936 0.12498,-0.16826 0.10397,-0.29685c-0.0552,-0.11397 -0.13536,-0.19429 -0.25769,-0.23361c-0.1079,0.16094 -0.22367,0.34813 -0.33159,0.50901zM246.99934,193.89128c0.16699,0.08903 0.32351,0.11369 0.48789,0.11208c0.02901,-0.19589 0.06716,-0.3728 0.0883,-0.54236c-0.12492,-0.12998 -0.26429,-0.16198 -0.37608,-0.13704c-0.07241,0.19154 -0.14478,0.38313 -0.20014,0.56737zM248.30745,198.76633c0.075,-0.10092 0.14999,-0.20185 0.21582,-0.32181c0.00792,-0.02628 -0.01051,-0.06432 -0.01179,-0.10967c-0.08806,-0.05401 -0.17749,-0.15332 -0.34187,-0.15167c-0.10923,0.11563 -0.26176,0.22685 -0.33417,0.41841c0.15908,0.1153 0.29848,0.1473 0.47206,0.16466zM247.3245,200.40307c0.19728,-0.06158 0.33269,0.1327 0.50368,0.05942c0.09995,-0.13456 0.2447,-0.21946 0.30789,-0.43005c-0.1499,-0.09628 -0.29061,-0.17366 -0.41685,-0.05071c-0.12629,0.12291 -0.28934,0.16985 -0.39468,0.42135zM242.19096,202.16681c0.15647,0.02471 0.32218,0.06837 0.46154,0.10039c0.02628,0.01167 0.05133,-0.02197 0.0855,-0.03666c-0.01181,-0.10961 0.02773,-0.24119 -0.10642,-0.39017c-0.18278,-0.03632 -0.38267,-0.0654 -0.59178,-0.1134c-0.00399,0.16225 0.03409,0.28356 0.15109,0.43986zM247.61251,192.94043c0.04743,-0.15793 0.11191,-0.32315 0.15138,-0.45474c-0.13413,-0.14897 -0.27478,-0.22634 -0.40626,-0.28464c-0.11051,0.07031 -0.06317,0.21055 -0.0777,0.30854c-0.01448,0.09798 -0.0461,0.20323 0.03542,0.32887c0.07101,0.06133 0.1591,0.11534 0.29721,0.10204zM237.6265,193.89336c-0.07365,0.14625 -0.12242,0.25889 -0.17109,0.37147c-0.02503,0.03363 -0.01452,0.09795 -0.02239,0.12428c0.06436,0.13295 0.17877,0.19866 0.31817,0.23063c0.09079,-0.15359 0.19078,-0.28819 0.24611,-0.47236c-0.10649,-0.09198 -0.22089,-0.15767 -0.37079,-0.25398zM245.03821,202.16246c0.2591,-0.01923 0.51815,-0.03851 0.72997,-0.19805c-0.13409,-0.14895 -0.22479,-0.29362 -0.40757,-0.32996c-0.24472,0.21948 -0.24471,0.2195 -0.32241,0.52801zM237.74278,196.1371c-0.16853,0.46209 -0.15931,0.48105 0.17733,0.74973c0.06452,-0.1653 0.10266,-0.34215 0.16722,-0.50737c-0.08147,-0.12563 -0.19587,-0.19127 -0.34444,-0.24232zM248.6107,196.66406c0.0908,-0.15358 0.14737,-0.29256 0.14221,-0.47381c-0.03549,-0.03065 -0.09732,-0.073 -0.1591,-0.11534c-0.05261,-0.02332 -0.1223,-0.03937 -0.17486,-0.06266c-0.09076,0.1536 -0.20787,0.29553 -0.21978,0.48411c0.10648,0.09197 0.25507,0.14302 0.41157,0.16766zM237.87825,192.40941c0.06178,0.04231 0.14992,0.09629 0.21041,0.09335c0.21571,-0.0236 0.36821,-0.13484 0.49195,-0.3484c-0.12359,-0.08469 -0.23136,-0.22197 -0.36158,-0.23499c-0.13419,0.14923 -0.31307,0.24882 -0.34078,0.49003zM245.11468,190.34106c0.00791,-0.02628 0.01578,-0.05262 0.03159,-0.10526c-0.25641,-0.18832 -0.53647,-0.29766 -0.81656,-0.40697c-0.0921,0.10823 -0.10659,0.20623 -0.0501,0.36548c0.26956,0.04505 0.54833,0.10903 0.83506,0.14681zM245.2887,196.71122c-0.31166,-0.00407 -0.61544,-0.03443 -0.89694,0.10908c-0.01711,0.00733 -0.01449,0.09796 0.00389,0.13594c0.046,0.09495 0.15119,0.14161 0.23666,0.10494c0.24987,-0.03825 0.45378,-0.17148 0.65635,-0.35zM248.90552,195.78083c0.05662,-0.13889 0.11323,-0.27785 0.11723,-0.44011c-0.06438,-0.13295 -0.14457,-0.21329 -0.31025,-0.25697c-0.03819,0.17695 -0.09352,0.36115 -0.11463,0.53071c0.08936,0.09927 0.17746,0.15327 0.3077,0.1663zM238.86747,199.14136c0.11169,0.27324 0.20496,0.5085 0.43504,0.68513c0.12627,-0.12292 0.1303,-0.28515 0.10801,-0.45911c-0.17619,-0.10799 -0.32605,-0.20432 -0.54309,-0.22603zM238.90201,190.68644c0.18538,0.127 0.21166,0.13869 0.26298,0.11671c0.18017,-0.05423 0.28812,-0.21518 0.37888,-0.36875c0.03287,-0.05994 0.00395,-0.16228 -0.12621,-0.17529c-0.09874,0.1799 -0.35783,0.19916 -0.51566,0.42737zM245.36292,191.1521c0.27879,0.06407 0.54967,0.15439 0.84954,0.04883c-0.24847,-0.2146 -0.51809,-0.25964 -0.75344,-0.31936c-0.07629,0.05563 -0.08289,0.12725 -0.09605,0.27051zM237.57087,194.97224c-0.09729,-0.07297 -0.17749,-0.15327 -0.27478,-0.22626c-0.10794,0.16092 -0.17238,0.32615 -0.01988,0.51311c0.0447,0.04967 0.08937,0.09928 0.16698,0.08901c0.08418,-0.08191 0.10661,-0.20625 0.12769,-0.37579zM245.91634,199.28628c0.08281,0.17093 0.15374,0.23227 0.28134,0.15467c0.11052,-0.07029 0.22099,-0.14054 0.32229,-0.22984c0.04206,-0.04097 0.07502,-0.10097 0.02111,-0.16959c-0.23278,0.03093 -0.42084,0.11153 -0.62475,0.24475zM242.76276,191.92214c-0.25913,0.01923 -0.4998,0.07654 -0.69447,0.22875c-0.01711,0.00733 -0.01446,0.09796 -0.00527,0.11693c0.01838,0.03797 0.08809,0.05401 0.12228,0.03934c0.2131,-0.1142 0.43669,-0.16415 0.5775,-0.38506zM241.7398,191.25954c0.1434,-0.13024 0.33151,-0.21084 0.46441,-0.40534c-0.26827,0.00028 -0.47476,0.0429 -0.54977,0.14383c-0.0842,0.08195 -0.04742,0.15794 0.08539,0.26156zM239.96499,200.8958c0.16171,0.20594 0.29051,0.4719 0.56011,0.51692c-0.02879,-0.40048 -0.29838,-0.44551 -0.56011,-0.51692zM242.94817,199.29648c0.01839,0.03796 0.04475,0.04972 0.06309,0.08767c0.16177,-0.09225 0.35247,-0.08225 0.46036,-0.24314c-0.0381,-0.12128 -0.08281,-0.17095 -0.1959,-0.19128c-0.0921,0.10824 -0.20129,0.22386 -0.32758,0.3468zM243.86266,194.36361c-0.26697,0.04559 -0.47347,0.08821 -0.66946,0.1951c-0.03421,0.01466 -0.05003,0.06725 -0.0224,0.12426c0.0092,0.01903 0.04467,0.04967 0.07102,0.06134c0.2591,-0.01923 0.46426,-0.10719 0.62087,-0.38069zM237.82939,192.82022c-0.08937,-0.0993 -0.15117,-0.14163 -0.18408,-0.08165c-0.0921,0.10824 -0.17496,0.23555 -0.25788,0.36281c-0.04079,0.08627 -0.01323,0.14325 0.0828,0.17094c0.16053,-0.13754 0.28682,-0.26049 0.3592,-0.45204zM248.77704,194.62034c0.08809,0.05401 0.15911,0.11531 0.24718,0.16932c0.02629,0.01168 0.0605,-0.00295 0.12098,-0.00595c-0.11034,-0.22791 -0.16026,-0.45878 -0.34826,-0.67643c-0.03819,0.17695 -0.06062,0.3012 -0.01989,0.51312zM240.78793,194.28193c-0.16182,0.09226 -0.3065,0.17719 -0.50249,0.28409c0.26303,0.11667 0.44447,0.10773 0.60625,0.01547c0.00531,-0.11695 -0.0052,-0.18125 -0.10377,-0.29958zM244.10391,200.06275c-0.08295,0.12726 -0.28937,0.16984 -0.29078,0.42274c0.43797,-0.11886 0.52346,-0.15548 0.51168,-0.26512c-0.046,-0.09495 -0.1078,-0.13731 -0.22089,-0.15767zM243.2765,193.23863c-0.36687,-0.11807 -0.57206,-0.0301 -0.79175,0.15575c0.334,0.17801 0.49973,-0.07656 0.79175,-0.15575zM247.23263,199.91497c-0.34055,-0.10637 -0.52871,-0.02577 -0.71549,0.10013c-0.01708,0.00733 -0.01577,0.05265 0.0026,0.09062c0.02758,0.05701 0.08019,0.0803 0.11437,0.06568c0.18018,-0.05423 0.34197,-0.1465 0.59846,-0.2564zM244.80195,200.86466c-0.12628,0.12289 -0.28808,0.2152 -0.31576,0.45633c0.19861,-0.01628 0.34327,-0.10122 0.47086,-0.17881c-0.00388,-0.13592 -0.05778,-0.20455 -0.15507,-0.27757zM248.33606,199.76329c0.0895,-0.19891 0.27757,-0.27948 0.254,-0.49873c-0.26699,0.0456 -0.26697,0.04559 -0.40518,0.35707c0.03549,0.03065 0.07102,0.06133 0.15118,0.14165zM240.90532,200.79112c0.1801,0.24392 0.39837,0.31095 0.62456,0.35163c0.07499,-0.10093 0.0382,-0.17691 -0.04066,-0.2119c-0.18277,-0.03635 -0.37482,-0.09174 -0.58386,-0.13971zM248.97099,196.85371c0.07229,0.10666 0.13536,0.1943 0.26552,0.20729c0.04868,-0.11261 0.09745,-0.22523 0.05932,-0.34647c-0.06309,-0.08763 -0.12489,-0.12996 -0.2117,-0.13864c-0.06708,0.07465 -0.09081,0.15357 -0.11318,0.27786zM241.69825,197.05695c0.16436,-0.00162 0.28541,-0.00758 0.36959,-0.08954c0.02503,-0.03363 0.02372,-0.07895 0.02241,-0.12427c-0.02758,-0.057 -0.09858,-0.11833 -0.14068,-0.07734c-0.10261,0.04398 -0.2223,0.09527 -0.25131,0.2912zM248.35678,193.24082c-0.0315,-0.19293 -0.1906,-0.30825 -0.29838,-0.44553c-0.1119,0.32318 -0.09347,0.36116 0.29838,0.44553zM241.24177,190.18853c0.29329,-0.03391 0.29327,-0.03392 0.31309,-0.24883c-0.12099,0.00597 -0.25914,0.01927 -0.31309,0.24883zM242.72112,198.01773c0.01446,-0.09798 -0.01309,-0.15493 -0.05647,-0.15927c-0.18278,-0.03631 -0.22488,0.0046 -0.29598,0.24152c0.14727,0.00573 0.24992,-0.03823 0.35249,-0.0822zM247.48214,200.77124c-0.13154,-0.05832 -0.25379,-0.09767 -0.35506,-0.00846c0.19851,0.28188 0.24183,0.28626 0.35506,0.00846zM241.64699,189.5333c-0.17492,-0.06269 -0.32089,-0.02308 -0.44974,0.00921c-0.0684,0.02928 -0.09211,0.10826 0.03147,0.19295c0.12886,-0.03233 0.27491,-0.07189 0.41829,-0.20215zM248.94534,198.67653c-0.18938,0.03528 -0.24732,0.12887 -0.20792,0.29552c0,0 0.03548,0.03067 0.05261,0.02332c0.11179,-0.02497 0.12501,-0.1682 0.15534,-0.31884zM241.21879,195.72576c0.08937,0.09928 0.17623,0.10797 0.23537,0.05969c0.03419,-0.01466 0.05,-0.06729 0.04871,-0.11259c-0.00132,-0.04531 -0.06308,-0.08762 -0.09728,-0.07295c-0.06052,0.00296 -0.12887,0.03228 -0.18679,0.12589zM249.25534,195.90621c-0.08294,0.12726 -0.09743,0.2252 0.04458,0.34785c0.09079,-0.15361 0.0882,-0.2442 -0.04458,-0.34785z" fill="#000000"/><path d="M235.08957,198.07654c0.27725,0.61512 0.55453,1.23029 0.84894,1.83807c0.33118,0.6838 0.73076,1.33821 1.20658,1.93708c0.1525,0.18694 0.32075,0.32124 0.49951,0.51988c-0.27363,0.11723 -0.50375,0.23883 -0.75234,0.32235c-1.47314,0.53941 -2.91733,1.1811 -4.38916,1.76584c-1.31794,0.51878 -2.60955,1.04923 -3.9183,1.58705c-0.89835,0.36198 -1.77962,0.7166 -2.67795,1.07852c-0.84707,0.34 -1.65859,0.71062 -2.50563,1.05064c-0.0684,0.0293 -0.1368,0.05859 -0.2144,0.06892c-0.31687,-0.1853 -0.54035,-0.43362 -0.76513,-0.72717c-0.35098,-0.46889 -0.67694,-0.97139 -0.91741,-1.51053c-0.08281,-0.17093 -0.1827,-0.33455 -0.17078,-0.52311c0.11699,0.15629 0.15768,0.36819 0.34437,0.54052c0.20919,-0.25014 0.52746,-0.31769 0.79186,-0.45393c0.01711,-0.00733 0.03418,-0.01462 0.025,-0.03363c0.38811,-0.34974 0.88397,-0.56218 1.31676,-0.86229c0.1526,-0.11123 0.27756,-0.27951 0.46695,-0.31478c0.36041,-0.10852 0.60245,-0.41867 0.96287,-0.52723c0.01708,-0.00733 0.04208,-0.04097 0.07629,-0.05563c0.29726,-0.19618 0.56825,-0.40399 0.88393,-0.56219c0.3762,-0.1612 0.64461,-0.45968 1.03916,-0.58284c0.16708,-0.20919 0.40781,-0.26643 0.63798,-0.38798c0.03421,-0.01466 0.05134,-0.02199 0.0855,-0.03664c0.2684,-0.29848 0.66427,-0.37637 0.96948,-0.59887c0.30516,-0.22246 0.68264,-0.33834 0.99704,-0.54187c0.36572,-0.22549 0.68663,-0.50066 1.12464,-0.61946c0.03421,-0.01466 0.08552,-0.03662 0.11051,-0.07027c0.13287,-0.19458 0.36569,-0.22549 0.5617,-0.33237c0.10261,-0.04395 0.23147,-0.07623 0.31568,-0.15818c0.11711,-0.14188 0.26306,-0.18151 0.41698,-0.24747c0.08549,-0.03663 0.1802,-0.05426 0.23017,-0.12154c0.16707,-0.20922 0.42487,-0.27379 0.64716,-0.36901c0.08552,-0.03664 0.18017,-0.05426 0.23021,-0.12157c0.14211,-0.17553 0.33936,-0.23714 0.52749,-0.31771c0.3078,-0.1319 0.55118,-0.39669 0.86813,-0.50955c0.06048,-0.00298 0.08422,-0.08193 0.12629,-0.1229z" fill="#87d7dc"/><path d="M235.08951,198.07661c-0.04211,0.04096 -0.06581,0.11994 -0.11709,0.14192c-0.31698,0.11289 -0.56955,0.3587 -0.86814,0.50957c-0.1881,0.08057 -0.38542,0.14219 -0.5275,0.31773c-0.04999,0.06729 -0.1447,0.08492 -0.23014,0.12158c-0.22228,0.09527 -0.47088,0.1788 -0.64718,0.36898c-0.05002,0.06728 -0.15391,0.06594 -0.23016,0.12156c-0.15388,0.06594 -0.2907,0.12456 -0.41701,0.24746c-0.08418,0.08191 -0.21312,0.11421 -0.3157,0.15819c-0.19598,0.10693 -0.42879,0.13785 -0.56167,0.3324c-0.02504,0.03364 -0.07632,0.05563 -0.11051,0.07027c-0.42087,0.11153 -0.759,0.394 -1.12465,0.61947c-0.3315,0.21083 -0.70896,0.32668 -0.99705,0.54185c-0.30515,0.22248 -0.70107,0.30039 -0.96946,0.59884c-0.00791,0.02628 -0.05133,0.02197 -0.08552,0.03663c-0.22228,0.09527 -0.47084,0.17883 -0.63799,0.38803c-0.40378,0.10417 -0.67214,0.40268 -1.03914,0.58281c-0.32486,0.1392 -0.58666,0.36606 -0.88395,0.56219c-0.03421,0.01466 -0.04212,0.04102 -0.07631,0.05564c-0.36041,0.10852 -0.60245,0.41867 -0.96287,0.52723c-0.19727,0.0616 -0.3052,0.22248 -0.46696,0.31475c-0.44198,0.28109 -0.92866,0.51257 -1.31676,0.86228c-0.01711,0.00733 -0.025,0.03366 -0.025,0.03366c-0.26439,0.13623 -0.5827,0.20375 -0.79188,0.45394c-0.17748,-0.15328 -0.20106,-0.37258 -0.34438,-0.54054c-0.07361,-0.15192 -0.14713,-0.30389 -0.10895,-0.48083c0.10261,-0.04398 0.23145,-0.07623 0.31564,-0.15817c0.29466,-0.28679 0.66299,-0.42166 1.00369,-0.61347c0.34064,-0.19181 0.63535,-0.47866 1.03912,-0.58283c0.16707,-0.20922 0.40777,-0.26649 0.63797,-0.38801c0.03419,-0.01466 0.08548,-0.03663 0.11051,-0.07031c0.10793,-0.16091 0.29726,-0.19615 0.442,-0.28112c0.08551,-0.03664 0.17096,-0.0733 0.23017,-0.12154c0.33019,-0.25615 0.68664,-0.50064 1.07993,-0.66913c0.05131,-0.02196 0.12894,-0.03228 0.14469,-0.08494c0.12499,-0.1682 0.30517,-0.2225 0.47618,-0.29576c0.19727,-0.0616 0.30388,-0.26782 0.51828,-0.33671c0.28278,-0.0982 0.49326,-0.30309 0.74845,-0.45827c0.35778,-0.19917 0.66166,-0.46696 1.05494,-0.63545c0.06841,-0.0293 0.16309,-0.04696 0.19598,-0.10692c0.10001,-0.13454 0.26304,-0.18154 0.40778,-0.26643c0.13678,-0.05861 0.26437,-0.1362 0.36571,-0.22545c0.18551,-0.1712 0.38939,-0.30442 0.62873,-0.40704c0.34989,-0.17281 0.64458,-0.45967 1.04834,-0.56385c0.03421,-0.01466 0.07631,-0.0556 0.11051,-0.07027c0.33152,-0.21085 0.65375,-0.44068 1.00365,-0.61346c0.37615,-0.1612 0.67878,-0.47433 1.07335,-0.59749c0.05133,-0.02197 0.08418,-0.08194 0.12628,-0.12289c0.20388,-0.1332 0.43407,-0.25481 0.68396,-0.29304c0.06308,0.08766 0.09991,0.1636 0.15377,0.23229c0.07749,0.28792 0.1537,0.53047 0.25617,0.78473z" fill="#b0eef2"/><path d="M247.19259,201.53758c-0.29724,0.19616 -0.5446,0.32504 -0.83788,0.35895c-0.2104,-0.09335 -0.3629,-0.28028 -0.53246,-0.45989c-0.79661,-0.92011 -1.57616,-1.84755 -2.23733,-2.87158c-0.49815,-0.77281 -1.00556,-1.56457 -1.42739,-2.39294c-0.11036,-0.22792 -0.21288,-0.48217 -0.37455,-0.68815c-0.06311,-0.08763 -0.11828,-0.2016 -0.17346,-0.31556c-0.15239,-0.48517 -0.40735,-0.92634 -0.61106,-1.38955c-0.2957,-0.65315 -0.52297,-1.33555 -0.71602,-2.03259c-0.08799,-0.3522 -0.19309,-0.69709 -0.30738,-1.06095c-0.09454,-0.28054 -0.10237,-0.55242 -0.12729,-0.81701c0.2434,-0.26483 0.35386,-0.33508 0.78265,-0.47292c0.1853,0.42513 0.27588,0.86801 0.42693,1.30783c0.14188,0.42085 0.29297,0.86066 0.45194,1.27422c0.16815,0.43253 0.36266,0.87672 0.54794,1.30192c0.15897,0.4135 0.42978,0.80204 0.53747,1.23761c0.28788,0.38126 0.43895,0.82108 0.65843,1.23162c0.21028,0.39156 0.44685,0.79475 0.67425,1.17899c0.23658,0.40323 0.49027,0.79909 0.75313,1.21401c0.24447,0.37688 0.48104,0.78012 0.74266,1.14969c0.27078,0.38854 0.56653,0.74348 0.85443,1.12475c0.29708,0.40021 0.55864,0.76978 0.91494,1.12173z" fill="#d1eaeb"/><path d="M234.82543,197.3183c-0.0539,-0.06866 -0.0907,-0.14461 -0.15378,-0.23224c-0.24989,0.03827 -0.47216,0.1335 -0.68395,0.29306c-0.04212,0.04096 -0.07499,0.10093 -0.12628,0.12289c-0.39456,0.12318 -0.7064,0.41736 -1.07337,0.59749c-0.35909,0.15384 -0.67215,0.40265 -1.00368,0.61345c-0.03419,0.01466 -0.07631,0.05564 -0.1105,0.07029c-0.40378,0.10416 -0.67214,0.40262 -1.04836,0.56381c-0.22226,0.09528 -0.44328,0.2358 -0.62876,0.40705c-0.11836,0.09656 -0.24597,0.17421 -0.36569,0.22549c-0.15388,0.06594 -0.29988,0.10555 -0.40779,0.26645c-0.03288,0.05992 -0.12761,0.0776 -0.19602,0.10689c-0.3762,0.1612 -0.69713,0.43634 -1.05493,0.63547c-0.25522,0.15518 -0.46567,0.36008 -0.74845,0.45825c-0.19727,0.0616 -0.30389,0.26782 -0.51828,0.33671c-0.1802,0.05426 -0.37747,0.11585 -0.47618,0.29574c-0.04212,0.04096 -0.09337,0.06292 -0.14468,0.08493c-0.39328,0.16849 -0.73267,0.4056 -1.07992,0.66914c-0.07629,0.05561 -0.17095,0.07327 -0.23014,0.12155c-0.15386,0.06593 -0.33406,0.12023 -0.44194,0.28112c-0.02501,0.03364 -0.07629,0.05563 -0.11051,0.07027c-0.22228,0.09527 -0.47086,0.17883 -0.63797,0.38801c-0.40378,0.10416 -0.69846,0.391 -1.03912,0.58283c-0.34064,0.19182 -0.72604,0.334 -1.00365,0.61345c-0.08418,0.08191 -0.21311,0.11421 -0.31569,0.1582c-0.0999,-0.16363 -0.05249,-0.32152 -0.09981,-0.4618c0.67214,-0.40267 1.30096,-0.80967 1.93891,-1.19765c0.69718,-0.4363 1.38643,-0.84631 2.09277,-1.26363c0.65505,-0.39533 1.30094,-0.80971 1.94678,-1.22399c0.80768,-0.50658 1.589,-1.02485 2.37955,-1.52412c0.60379,-0.37338 1.20757,-0.74671 1.80213,-1.13909c0.93525,-0.5842 1.92441,-1.09976 2.84125,-1.72193c0.12758,-0.07759 0.23679,-0.19319 0.41828,-0.20215c0.08281,0.17093 0.1143,0.36384 0.16289,0.54947c0.01181,0.10961 0.12878,0.2659 0.1169,0.4545z" fill="#87d7dc"/><path d="M221.08997,206.04719c0.22739,0.38421 0.3772,0.77876 0.62167,1.1556c0.28918,0.42655 0.59546,0.84576 1.00431,1.22104c-0.99174,0.42492 -1.96637,0.84253 -2.92393,1.25276c-0.28932,-0.12833 -0.47724,-0.34597 -0.67313,-0.53727c-0.36548,-0.37093 -0.61127,-0.79313 -0.86622,-1.23433c-0.0092,-0.01901 -0.01049,-0.06428 -0.0026,-0.09063c0.18539,0.12701 0.29457,0.0114 0.41298,-0.08522c0.29597,-0.24152 0.60115,-0.46401 0.95234,-0.5915c0.06842,-0.02929 0.13679,-0.0586 0.19598,-0.10693c0.2697,-0.25319 0.62087,-0.38069 0.91812,-0.5769c0.16974,-0.11855 0.28803,-0.21519 0.36046,-0.40672z" fill="#61afb4"/><path d="M236.96161,196.05892c0.21937,0.70874 0.55843,1.36619 0.82913,2.05292c0.13008,0.31119 0.3115,0.60048 0.49288,0.88975c0.31017,0.55518 0.56114,1.1586 0.93975,1.68446c0.14457,0.21329 0.28916,0.42657 0.44163,0.61353c0.09861,0.11831 0.18011,0.24391 0.24448,0.3769c-0.04206,0.04097 -0.06711,0.07461 -0.10134,0.08925c-0.13678,0.05859 -0.27358,0.11724 -0.41035,0.17587c-0.09729,-0.07297 -0.16827,-0.13434 -0.24847,-0.21463c-0.53634,-0.59582 -1.08193,-1.21073 -1.4407,-1.9515c-0.32988,-0.63849 -0.66894,-1.29587 -0.93045,-1.96367c-0.2142,-0.5275 -0.44546,-1.04766 -0.51368,-1.61475c0.0802,0.0803 0.08409,0.21625 0.22348,0.24828c0.20647,-0.04263 0.45635,-0.08087 0.47358,-0.38639z" fill="#61aeb3"/><path d="M236.03681,197.00562c0.19059,0.30825 0.23514,0.6561 0.37447,0.98633c0.31408,0.69113 0.62812,1.38224 0.99351,2.05133c0.30095,0.53616 0.66118,1.02404 1.04632,1.47829c0.09859,0.11832 0.19715,0.23659 0.29579,0.3549c-0.23939,0.10258 -0.44456,0.19052 -0.66687,0.28575c-0.31555,-0.14001 -0.53904,-0.38832 -0.73755,-0.67022c-0.24319,-0.33156 -0.49555,-0.68213 -0.69664,-1.05469c-0.48234,-0.82545 -0.85292,-1.67583 -1.24978,-2.53785c-0.07361,-0.15192 -0.14722,-0.30389 -0.12612,-0.47349c0.08552,-0.03664 0.18019,-0.05431 0.23017,-0.12156c0.13418,-0.14924 0.34861,-0.21817 0.53665,-0.29875z" fill="#61aeb3"/><path d="M221.08997,206.04719c-0.06452,0.16528 -0.1737,0.28081 -0.3355,0.3731c-0.29726,0.19616 -0.64847,0.32368 -0.91813,0.57689c-0.05922,0.04828 -0.1276,0.07764 -0.19599,0.10691c-0.35908,0.15385 -0.64719,0.36901 -0.95234,0.5915c-0.1013,0.08927 -0.22758,0.21221 -0.41298,0.0852c-0.15509,-0.2776 -0.24969,-0.55814 -0.28379,-0.84168c0.21181,-0.15958 0.41439,-0.3381 0.67215,-0.40267c0.03419,-0.01466 0.07631,-0.05563 0.1105,-0.0703c0.31436,-0.20349 0.64589,-0.41433 0.96946,-0.59884c0.14468,-0.08493 0.2815,-0.14353 0.41699,-0.24747c0.16052,-0.13753 0.3565,-0.24447 0.59058,-0.2301c0.06309,0.08764 0.0999,0.16359 0.15376,0.23226c0.06437,0.13295 0.12089,0.29227 0.18531,0.42517z" fill="#87d7dc"/><path d="M245.51095,192.99229c-0.129,0.33051 -0.35652,0.54267 -0.59338,0.73586c-0.0592,0.04831 -0.16182,0.09226 -0.23939,0.10258c-0.56948,0.0605 -1.10216,0.19696 -1.62561,0.35247c-0.01711,0.00733 -0.06049,0.00298 -0.08681,-0.00865c-0.08809,-0.054 -0.13414,-0.14896 -0.12881,-0.26589c0.03421,-0.01466 0.0592,-0.04834 0.0934,-0.06297c0.41957,-0.15678 0.81158,-0.37061 1.14045,-0.67208c0.1776,-0.1449 0.36571,-0.22549 0.61687,-0.21845c0.27745,0.01876 0.52734,-0.01954 0.82326,0.03717z" fill="#cce5e6"/><path d="M242.37702,192.95892c-0.10648,-0.09197 -0.12618,-0.17529 -0.10248,-0.25424c0.80236,-0.38963 0.80235,-0.38964 1.37331,-1.00121c0.30911,-0.08658 0.66415,-0.07816 0.98373,-0.10036c0.09861,0.11831 0.00518,0.18122 -0.02771,0.24121c-0.12368,0.21353 -0.2303,0.41976 -0.38951,0.60264c-0.10922,0.11563 -0.21974,0.18586 -0.37487,0.20647c-0.48271,0.0692 -0.97324,0.1647 -1.46251,0.3055z" fill="#cce5e6"/><path d="M220.89547,205.60301c-0.0539,-0.06867 -0.09072,-0.14466 -0.15376,-0.23228c-0.23408,-0.01439 -0.43006,0.0925 -0.59057,0.23011c-0.13549,0.10394 -0.27227,0.16253 -0.41699,0.24747c-0.32358,0.18452 -0.65505,0.39533 -0.96946,0.59884c-0.03421,0.01466 -0.07631,0.05564 -0.11051,0.07028c-0.26566,0.09092 -0.45117,0.2621 -0.67214,0.40262c-0.03941,-0.16659 -0.06961,-0.31425 -0.04059,-0.51015c0.45117,-0.26214 0.90109,-0.56958 1.37853,-0.82c0.4512,-0.26211 0.86556,-0.60018 1.37854,-0.81998c0.13008,0.31119 0.17208,0.56845 0.19703,0.83299z" fill="#60adb2"/><path d="M242.94721,198.35667c0.05387,0.06864 0.09859,0.11834 0.15247,0.18698c-0.01579,0.05266 -0.02371,0.07896 -0.0316,0.10524c-0.25389,0.20051 -0.46308,0.45072 -0.66308,0.71983c-0.0921,0.10824 -0.18552,0.17123 -0.33278,0.16552c-0.28541,0.00757 -0.56945,0.06052 -0.89424,-0.0985c0.11191,-0.32313 0.32111,-0.57334 0.53948,-0.8045c0.04206,-0.04097 0.1368,-0.05858 0.21437,-0.06892c0.33534,-0.07492 0.6708,-0.14981 1.01535,-0.20567z" fill="#cce5e6"/><path d="M247.40205,196.76904c-0.13416,0.14923 -0.20921,0.25017 -0.30132,0.35843c-0.17632,0.19021 -0.37229,0.2971 -0.66687,0.28571c-0.49315,0.00487 -0.97583,0.0741 -1.40332,0.25725c-0.13679,0.0586 -0.16308,0.04693 -0.25641,-0.18832c0.05131,-0.02197 0.09337,-0.06295 0.14471,-0.08493c0.43666,-0.16417 0.81948,-0.39698 1.17462,-0.68678c0.09341,-0.06294 0.16969,-0.11857 0.27358,-0.11727c0.33009,0.04203 0.64176,0.04615 1.03494,0.17588z" fill="#cae2e3"/><path d="M243.44548,195.2075c0.00791,-0.02628 0.03291,-0.06001 0.05002,-0.06728c0.41166,-0.13048 0.75103,-0.36765 1.06417,-0.61648c0.30515,-0.22248 0.63005,-0.36173 1.04691,-0.31093c0.19987,0.02903 0.39715,-0.03259 0.59837,0.04182c-0.21187,0.45774 -0.58549,0.70953 -1.02603,0.73775c-0.53529,0.04584 -1.0626,0.06539 -1.54932,0.29683c-0.06051,0.00298 -0.12892,0.03227 -0.18411,-0.08166z" fill="#c9e1e2"/><path d="M246.74101,195.4469c-0.1816,0.30716 -0.38416,0.48568 -0.60385,0.67155c-0.07629,0.05563 -0.16182,0.09226 -0.24861,0.08354c-0.56158,0.0342 -1.12184,0.1137 -1.6637,0.23117c-0.03421,0.01466 -0.09466,0.01766 -0.12358,-0.08465c0.11967,-0.05127 0.25646,-0.10989 0.36698,-0.18015c0.33278,-0.1655 0.65633,-0.35003 0.92604,-0.6032c0.20259,-0.17858 0.43409,-0.25479 0.70368,-0.20972c0.19989,0.02905 0.38267,0.06536 0.64307,0.09143z" fill="#c9e1e2"/><path d="M243.69772,199.47998c0.14068,0.07738 0.18671,0.17234 0.23267,0.26728c-0.00792,0.02628 -0.03291,0.05999 -0.04081,0.08626c-0.2552,0.15519 -0.45649,0.37907 -0.59595,0.64525c-0.09079,0.15357 -0.21839,0.23118 -0.3999,0.24012c-0.22485,0.00462 -0.45766,0.03558 -0.68387,-0.00513c0.05269,-0.27485 0.20668,-0.63905 0.3251,-0.73563c0.06708,-0.07465 0.15388,-0.06594 0.24859,-0.08355c0.28147,-0.14353 0.62607,-0.19947 0.91411,-0.41458z" fill="#cae3e4"/><path d="M239.4231,193.46765c0.36557,0.07271 0.70355,0.08845 1.04943,0.07789c0.08936,0.09927 0.12622,0.1753 0.12091,0.29226c-0.26177,0.22683 -0.63928,0.34267 -0.89188,0.58852c-0.23408,-0.01441 -0.41027,-0.12239 -0.61144,-0.19671c-0.10516,-0.04666 -0.21825,-0.067 -0.29976,-0.19264c0.14869,-0.24718 0.43149,-0.34539 0.63276,-0.56927z" fill="#c8e0e1"/><path d="M241.69864,196.16236c0.06569,0.17826 0.00649,0.22657 -0.05269,0.27484c-0.2197,0.1859 -0.42226,0.36438 -0.65114,0.53128c-0.05921,0.04829 -0.12759,0.07761 -0.21442,0.06896c-0.25247,-0.05238 -0.51416,-0.12376 -0.76794,-0.2214c0.05662,-0.13889 0.15,-0.20186 0.225,-0.3028c0.225,-0.30278 0.50646,-0.44636 0.89965,-0.31667c0.19201,0.05536 0.38139,0.02009 0.56156,-0.03419z" fill="#cbe4e5"/><path d="M241.11907,194.96576c0.046,0.09497 0.07362,0.15192 0.1012,0.20891c-0.02502,0.03364 -0.02372,0.07895 -0.04079,0.08628c-0.16972,0.11854 -0.3486,0.21817 -0.51829,0.33675c-0.09343,0.06293 -0.1881,0.08058 -0.30119,0.06023c-0.33929,-0.06104 -0.67066,-0.14844 -1.02965,-0.29281c0.08946,-0.1989 0.23417,-0.28381 0.37887,-0.36873c0.06837,-0.02929 0.1368,-0.05859 0.20646,-0.04262c0.39318,0.12967 0.79038,0.09717 1.20333,0.01197z" fill="#c8e0e1"/><path d="M236.03681,197.00562c-0.18808,0.08057 -0.40251,0.14948 -0.5446,0.32508c-0.05002,0.06728 -0.14468,0.08489 -0.23016,0.12154c-0.17347,-0.31557 -0.2694,-0.64145 -0.28765,-0.97764c0.25777,-0.06456 0.46036,-0.24309 0.64716,-0.369c0.1499,0.09628 0.16298,0.25127 0.25239,0.35055c0.0999,0.16363 0.17478,0.36094 0.1629,0.54947z" fill="#85d5d9"/><path d="M247.26334,198.57155c-0.3025,0.01491 -0.60495,0.02987 -0.91534,0.07109c-0.267,0.04558 -0.46697,0.31475 -0.86145,0.13971c0.58134,-0.24912 1.02994,-0.60182 1.47851,-0.95455c0.23408,0.01441 0.49446,0.04043 0.74036,0.16446c-0.01579,0.05266 -0.02373,0.07895 -0.0316,0.10526c-0.12499,0.16821 -0.2592,0.31746 -0.41045,0.474z" fill="#c6dede"/><path d="M245.79249,192.55056c-0.3551,-0.00843 -0.66673,-0.01248 -1.02185,-0.02089c0.02901,-0.19589 0.1382,-0.31152 0.1948,-0.45041c0.07366,-0.14625 0.11191,-0.32317 0.2382,-0.44608c0.11967,-0.05127 0.2591,-0.01927 0.38928,-0.00625c0.13018,0.013 0.26957,0.04506 0.41816,0.09606c0.02618,0.30986 -0.10544,0.54972 -0.21861,0.82759z" fill="#cae3e3"/><path d="M241.75408,191.75799c0.4486,-0.35277 0.81167,-0.66887 1.10242,-1.0916c0.25913,-0.01924 0.50899,-0.05751 0.78516,-0.08409c-0.0172,0.30554 -0.17639,0.48843 -0.30007,0.70194c-0.025,0.03363 -0.07632,0.05561 -0.1105,0.07026c-0.45508,0.12615 -0.91016,0.25235 -1.477,0.4035z" fill="#cae3e4"/><path d="M240.61957,198.06962c0.18158,-0.30717 0.36446,-0.56902 0.78925,-0.54457c0.29458,0.01138 0.56027,-0.07951 0.82594,-0.17041c0.10261,-0.04395 0.16568,0.04366 0.18667,0.1723c-0.29195,0.07926 -0.50246,0.2841 -0.71297,0.48898c-0.15127,0.15654 -0.32355,0.18453 -0.52348,0.15549c-0.17359,-0.01736 -0.34588,0.01057 -0.56548,-0.10179z" fill="#c8e0e1"/><path d="M236.96161,196.05892c-0.03431,0.31288 -0.2671,0.34376 -0.48145,0.41269c-0.13934,-0.03202 -0.1604,-0.1606 -0.22347,-0.24821c-0.10248,-0.25423 -0.14447,-0.51148 -0.15227,-0.78338c0.19727,-0.0616 0.34858,-0.21812 0.56557,-0.19646c0.06308,0.08766 0.0907,0.14466 0.1275,0.22061c0.05782,0.20459 0.11562,0.40916 0.16419,0.5948z" fill="#85d4d9"/><path d="M240.08506,196.028c-0.20129,0.22385 -0.38676,0.39507 -0.56308,0.58527c-0.27089,-0.09035 -0.53385,-0.20701 -0.77183,-0.35739c-0.03022,-0.14763 0.054,-0.22956 0.09481,-0.31583c0.04079,-0.08627 0.08161,-0.17253 0.21048,-0.20482c0.27878,0.06409 0.61932,0.1704 1.02963,0.29276z" fill="#c7dfe0"/><path d="M240.69141,199.36902c-0.2354,-0.0597 -0.46155,-0.10042 -0.70746,-0.22439c0.04347,-0.29389 0.2027,-0.47671 0.36058,-0.70494c0.26956,0.04505 0.53916,0.09007 0.82587,0.1278c-0.1474,0.29248 -0.30531,0.52073 -0.47899,0.80151z" fill="#c8e0e1"/><path d="M246.78128,193.2278c-0.06324,0.21059 -0.12643,0.4211 -0.2685,0.59668c-0.29458,-0.01138 -0.59838,-0.0418 -0.91923,-0.06486c-0.01838,-0.03797 -0.03677,-0.07595 -0.01967,-0.08329c0.0987,-0.17989 0.21448,-0.36709 0.32237,-0.52802c0.05002,-0.06728 0.10922,-0.11562 0.17887,-0.09961c0.2604,0.02607 0.49317,-0.00486 0.7062,0.1791z" fill="#c4dcdd"/><path d="M247.65861,196.36092c-0.29588,-0.05671 -0.58256,-0.09443 -0.87846,-0.15115c-0.02226,-0.1739 0.11451,-0.23248 0.18949,-0.33346c0.07499,-0.10093 0.17629,-0.19023 0.2684,-0.29846c0.25118,0.00705 0.47994,0.13845 0.72456,0.21712c-0.0185,0.26016 -0.15271,0.40944 -0.30401,0.56595z" fill="#c8e0e1"/><path d="M241.03445,199.86417c0.30378,0.03042 0.58128,0.04916 0.90215,0.0722c-0.04479,0.24855 -0.18692,0.4241 -0.2409,0.65369c-0.27618,0.02656 -0.52208,-0.09743 -0.80083,-0.16148c0.01058,-0.23387 0.0225,-0.42247 0.13961,-0.56435z" fill="#c6ddde"/><path d="M244.54163,200.54037c-0.1987,0.31449 -0.47757,0.54865 -0.61447,0.90546c-0.23278,0.03093 -0.4393,0.07351 -0.69177,0.02115c0.00931,-0.27918 0.09882,-0.47814 0.37367,-0.55001c0.33536,-0.07486 0.62475,-0.24474 0.93254,-0.37663z" fill="#b9cfd0"/><path d="M241.47832,190.59176c-0.00387,-0.13592 0.10919,-0.11564 0.16836,-0.16389c0.13551,-0.10391 0.28015,-0.18883 0.32758,-0.3468c0.1145,-0.23254 0.31176,-0.29417 0.53537,-0.34404c0.09472,-0.01763 0.19861,-0.01628 0.33668,-0.02956c-0.06849,0.32755 -0.14752,0.59072 -0.50917,0.65393c-0.24988,0.03828 -0.48009,0.1598 -0.71157,0.23606c-0.05131,0.02196 -0.10261,0.04394 -0.14727,-0.00568z" fill="#c0d8d8"/><path d="M238.58959,192.76982c0.10791,-0.16093 0.22626,-0.25747 0.36305,-0.31611c0.06837,-0.02929 0.1539,-0.06598 0.22356,-0.04993c0.30507,0.07573 0.59964,0.08708 0.89426,0.0985c0.06435,0.13296 -0.01321,0.14326 -0.06453,0.16526c-0.17099,0.07326 -0.35908,0.15385 -0.51168,0.26512c-0.20388,0.1332 -0.38535,0.1422 -0.59706,0.00353c-0.09729,-0.07297 -0.17619,-0.10798 -0.30765,-0.1663z" fill="#c1d9d9"/><path d="M240.12251,197.93855c-0.24323,-0.03338 -0.45367,-0.12673 -0.69823,-0.20542c0.00139,-0.25287 0.16192,-0.39041 0.26061,-0.57037c0.2867,0.03771 0.54175,0.18069 0.82184,0.29007c-0.10662,0.20622 -0.25001,0.33647 -0.38418,0.48571z" fill="#c3dbdc"/><path d="M246.24142,194.92691c0.18417,-0.21655 0.3605,-0.40676 0.5276,-0.61595c0.19071,0.01 0.36429,0.02742 0.54967,0.15439c-0.05401,0.22957 -0.17897,0.39777 -0.29479,0.58504c-0.2591,0.01923 -0.50232,-0.01409 -0.78241,-0.12345z" fill="#c3dadb"/><path d="M238.51722,196.58514c0.24589,0.12403 0.46544,0.23633 0.68503,0.34866c-0.02769,0.24123 -0.1527,0.40945 -0.27767,0.57766c-0.21829,-0.06701 -0.41156,-0.16768 -0.60612,-0.31365c0.00662,-0.07162 0.02113,-0.1696 0.03687,-0.2222c0.0566,-0.13892 0.11448,-0.23253 0.16191,-0.39047z" fill="#c4dbdc"/><path d="M239.77492,191.55089c-0.32493,0.13919 -0.58141,0.24908 -0.85493,0.36633c-0.16572,-0.04367 -0.3064,-0.12106 -0.44044,-0.27001c0.0303,-0.15057 0.16839,-0.16388 0.25261,-0.24581c0.08418,-0.08191 0.17759,-0.14488 0.26307,-0.18155c0.26304,0.11666 0.47339,0.21001 0.77975,0.33101z" fill="#c2d9da"/><path d="M246.45556,191.8307c0.17358,0.01736 0.32217,0.06833 0.44578,0.15302c0.09067,0.14463 0.02486,0.26461 0.01958,0.38148c-0.00526,0.11691 0.03281,0.23821 -0.05929,0.34646c-0.18938,0.03528 -0.40765,-0.03174 -0.66017,-0.08409c0.03951,-0.13165 0.07901,-0.26326 0.10139,-0.3875c0.05661,-0.13893 0.11317,-0.27785 0.15268,-0.40947z" fill="#c5ddde"/><path d="M239.81204,198.27796c-0.00933,0.2792 -0.16852,0.4621 -0.26591,0.68731c-0.21702,-0.02168 -0.34188,-0.15167 -0.49967,-0.22165c-0.01565,-0.24556 0.07382,-0.44445 0.17117,-0.66969c0.20116,0.07432 0.4024,0.14871 0.59437,0.20406z" fill="#c3dbdc"/><path d="M243.91893,191.19739c0.01446,-0.09799 0.03027,-0.15059 0.04606,-0.20326c0.04868,-0.11261 0.1145,-0.23255 0.1711,-0.37146c0.30379,0.03042 0.57997,0.00381 0.86926,0.13217c0.03022,0.14763 -0.02767,0.24123 -0.1106,0.36849c-0.29327,0.03391 -0.62994,0.06349 -0.97584,0.0741z" fill="#c7dfe0"/><path d="M238.79783,195.2034c-0.22878,-0.13133 -0.45492,-0.17205 -0.64163,-0.34434c0.01984,-0.21492 0.19867,-0.3145 0.23691,-0.49138c0.30512,0.07573 0.53387,0.20702 0.79684,0.3237c-0.0619,0.25589 -0.24999,0.33643 -0.39207,0.51205z" fill="#c7dee0"/><path d="M235.89097,196.4489c-0.08937,-0.0993 -0.10246,-0.25424 -0.25238,-0.35056c-0.20389,0.13322 -0.41568,0.29274 -0.64714,0.36898c-0.01968,-0.08333 -0.04858,-0.1856 -0.0512,-0.2762c-0.00387,-0.13592 0.04483,-0.24854 0.16453,-0.29986c0.19596,-0.10691 0.37483,-0.20649 0.57086,-0.31338c0.11961,0.24692 0.15767,0.36819 0.21538,0.871z" fill="#61acb1"/><path d="M248.06847,197.67613c-0.2354,-0.05972 -0.42735,-0.11505 -0.67195,-0.19374c0.16709,-0.20921 0.31707,-0.41106 0.49336,-0.60128c0.18277,0.03635 0.34848,0.08007 0.51546,0.16907c-0.0619,0.2559 -0.1869,0.42409 -0.33689,0.62598z" fill="#c2dada"/><path d="M238.25935,193.02594c0.2354,0.05972 0.41157,0.1677 0.63119,0.28006c-0.20257,0.17857 -0.37098,0.34244 -0.53939,0.50633c-0.1907,-0.01002 -0.30638,-0.12101 -0.46544,-0.23634c0.03687,-0.2222 0.19741,-0.35984 0.37369,-0.55001z" fill="#c1d9d9"/><path d="M247.49599,195.21507c0.0882,-0.24419 0.16981,-0.41676 0.24221,-0.60834c0.1986,-0.01629 0.39191,0.08441 0.58519,0.18506c-0.00272,0.20753 -0.03172,0.40346 -0.1475,0.59069c-0.23278,0.03093 -0.4103,-0.12243 -0.67987,-0.16742z" fill="#c6dedf"/><path d="M240.44912,200.27558c-0.21827,-0.06702 -0.42869,-0.16038 -0.62985,-0.23471c-0.06568,-0.17823 -0.05249,-0.32152 0.012,-0.48679c0.2591,-0.01923 0.47994,0.13843 0.73246,0.19077c0.01442,0.2003 -0.05931,0.34648 -0.11457,0.53074z" fill="#c0d7d7"/><path d="M243.11053,190.16769c0.06452,-0.16528 0.11193,-0.32317 0.1593,-0.48108c0.2052,-0.08787 0.42217,-0.06618 0.63254,0.02717c0.02227,0.17392 -0.01723,0.3055 -0.09877,0.47807c-0.22486,0.00461 -0.43926,0.07352 -0.69306,-0.02415z" fill="#c3dadb"/><path d="M236.80669,195.48316c-0.03679,-0.07597 -0.0907,-0.14466 -0.12753,-0.22061c-0.21702,-0.02168 -0.36828,0.13481 -0.56557,0.19646c-0.08147,-0.12563 -0.01569,-0.24559 -0.06298,-0.38583c0.18551,-0.1712 0.41825,-0.20219 0.57616,-0.43034c0.10905,0.1826 0.11298,0.31854 0.12609,0.4735c0.01182,0.10963 0.11035,0.22796 0.05379,0.36685z" fill="#5aa0a4"/><path d="M243.76124,202.29677c-0.22486,0.00461 -0.43932,0.07352 -0.66679,-0.01247c-0.03022,-0.14762 0.0014,-0.2529 0.04877,-0.41082c0.20648,-0.0426 0.43138,-0.04721 0.64048,0.00081c0.0302,0.14764 0.01569,0.24559 -0.02252,0.42245z" fill="#bdd3d4"/><path d="M238.28802,197.64651c0.16699,0.08903 0.32475,0.15902 0.48257,0.22901c-0.00274,0.20757 -0.06722,0.37284 -0.14877,0.54538c-0.16436,0.00162 -0.26302,-0.11666 -0.32738,-0.2496c-0.08282,-0.17093 -0.16561,-0.34187 -0.00642,-0.52478z" fill="#bdd4d5"/><path d="M247.67859,199.4716c-0.25116,-0.00707 -0.48529,-0.02144 -0.73644,-0.02851c0.26706,-0.34378 0.54595,-0.57795 1.02063,-0.32262c-0.0303,0.15057 -0.1579,0.22818 -0.28419,0.35107z" fill="#bbd2d3"/><path d="M237.82577,195.71164c-0.00519,-0.18123 0.06062,-0.30119 0.12644,-0.42111c0.11967,-0.05127 0.19992,0.02907 0.30507,0.07575c0.07886,0.035 0.17486,0.06266 0.24715,0.16932c0.00519,0.18123 -0.16575,0.25452 -0.17767,0.4431c-0.2091,-0.04802 -0.35898,-0.14431 -0.50099,-0.26695z" fill="#c3dadb"/><path d="M243.72541,195.61506c0.32619,-0.09385 0.65236,-0.18778 1.01532,-0.20565c0.03808,0.12129 -0.03821,0.17693 -0.12371,0.21353c-0.2131,0.1142 -0.43531,0.20947 -0.64052,0.29738c-0.15386,0.06593 -0.24334,-0.03338 -0.25109,-0.30524z" fill="#b1c6c7"/><path d="M240.93929,201.37282c0.15516,-0.02066 0.26167,0.07135 0.38397,0.11071c0.2354,0.0597 0.33529,0.22331 0.36018,0.48791c-0.29458,-0.0114 -0.55888,-0.17341 -0.78763,-0.30473c-0.0473,-0.14029 -0.04069,-0.21195 0.04348,-0.29388z" fill="#bbd2d3"/><path d="M245.12906,198.08695c0.28808,-0.21519 0.64316,-0.20676 1.00615,-0.22469c-0.18419,0.21656 -0.4407,0.32641 -0.67087,0.44799c-0.14469,0.08495 -0.2065,0.04261 -0.33528,-0.22333z" fill="#bad1d2"/><path d="M244.77275,201.65695c-0.07241,0.19156 -0.1106,0.36848 -0.18299,0.56002c-0.09468,0.01761 -0.242,0.01195 -0.38008,0.02524c-0.0801,-0.37855 -0.06299,-0.38586 0.16851,-0.46211c0.11968,-0.05125 0.24861,-0.08354 0.39456,-0.1232z" fill="#b5cbcc"/><path d="M248.39863,193.79626c0.04067,0.21191 0.01041,0.36252 -0.01989,0.51312c-0.1815,0.00896 -0.32346,-0.11373 -0.49046,-0.20267c0.02106,-0.16959 0.05143,-0.32014 0.0725,-0.48973c0.16309,-0.04696 0.28008,0.10934 0.43789,0.17937z" fill="#c0d7d8"/><path d="M242.86073,201.07709c0.02098,0.1286 -0.02767,0.24123 -0.09349,0.36119c-0.24987,0.03825 -0.50237,-0.0141 -0.73906,-0.11913c-0.08147,-0.12563 -0.04859,-0.18562 0.0185,-0.26016c0.26827,-0.00031 0.53659,-0.00055 0.81404,0.01819z" fill="#bdd4d4"/><path d="M248.46957,197.7795c0.0987,-0.17989 0.22367,-0.34811 0.32239,-0.52803c0.1223,0.03937 0.20249,0.11967 0.25769,0.23361c0.02095,0.12858 -0.04607,0.20322 -0.10398,0.29681c-0.05002,0.06728 -0.09996,0.13457 -0.14997,0.20189c-0.1302,-0.01302 -0.2354,-0.05968 -0.3261,-0.20435z" fill="#b6cccc"/><path d="M246.9993,193.89125c0.07241,-0.19154 0.13689,-0.3568 0.20011,-0.56738c0.11177,-0.02499 0.24199,-0.01197 0.37609,0.13703c-0.02106,0.16961 -0.0593,0.3465 -0.08827,0.54238c-0.17357,-0.01739 -0.32089,-0.02303 -0.48787,-0.11208z" fill="#c1d9d9"/><path d="M248.30746,198.76633c-0.17358,-0.01736 -0.313,-0.04937 -0.46287,-0.1457c0.07241,-0.19156 0.22506,-0.30282 0.33419,-0.41839c0.15517,-0.02063 0.24458,0.07868 0.34187,0.15167c0.01048,0.06429 0.02889,0.1023 0.01182,0.10964c-0.07502,0.1009 -0.14999,0.20184 -0.22502,0.30281z" fill="#b7cdce"/><path d="M247.32445,200.40313c0.11451,-0.23253 0.26837,-0.2985 0.40387,-0.40243c0.14339,-0.13026 0.26701,-0.04559 0.41688,0.05072c-0.07241,0.19156 -0.20792,0.29552 -0.30791,0.43009c-0.18937,0.03528 -0.33269,-0.13271 -0.51287,-0.07845z" fill="#b6cccc"/><path d="M242.66964,202.2598c-0.18277,-0.03636 -0.32216,-0.06837 -0.47864,-0.09305c-0.0999,-0.16362 -0.15507,-0.2776 -0.134,-0.44715c0.20912,0.04803 0.40898,0.07708 0.59175,0.11342c0.1341,0.14895 0.06825,0.26888 0.1064,0.39016c-0.03419,0.01464 -0.05922,0.04833 -0.08551,0.03666z" fill="#c2dada"/><path d="M247.6125,192.94052c-0.14729,-0.00572 -0.22618,-0.04071 -0.30639,-0.12099c-0.07231,-0.10668 -0.04069,-0.21191 -0.03541,-0.32887c0.01449,-0.09797 -0.0328,-0.23821 0.07769,-0.30852c0.14858,0.05102 0.28927,0.12834 0.40627,0.28465c-0.0382,0.17695 -0.09481,0.31583 -0.14219,0.47378z" fill="#bbd2d3"/><path d="M237.62651,193.89338c0.14989,0.09632 0.26429,0.16199 0.38788,0.24662c-0.05528,0.18427 -0.15533,0.3188 -0.2461,0.47242c-0.13935,-0.03201 -0.25382,-0.09768 -0.31813,-0.23065c-0.00132,-0.04531 -0.00258,-0.09061 0.02241,-0.12429c0.03159,-0.10526 0.08033,-0.2179 0.15399,-0.36416z" fill="#bbd2d3"/><path d="M245.03821,202.16246c0.07771,-0.30854 0.0777,-0.30854 0.32237,-0.52801c0.18278,0.03635 0.27349,0.18101 0.40755,0.32995c-0.21181,0.15958 -0.48007,0.15983 -0.72994,0.19808z" fill="#adc2c3"/><path d="M237.74279,196.13712c0.13935,0.03201 0.263,0.11669 0.34446,0.24231c-0.05528,0.18427 -0.10263,0.34215 -0.16719,0.50737c-0.32737,-0.2496 -0.3366,-0.2686 -0.17734,-0.74972z" fill="#b5cbcc"/><path d="M248.61066,196.66412c-0.16569,-0.04365 -0.28797,-0.08304 -0.43786,-0.17936c0.01191,-0.18854 0.13822,-0.31147 0.2198,-0.48407c0.06969,0.01604 0.12225,0.03933 0.17487,0.06265c0.05262,0.02333 0.0973,0.07298 0.15912,0.1153c0.03151,0.19291 -0.02509,0.33183 -0.1159,0.48543z" fill="#bbd1d2"/><path d="M237.87821,192.40946c0.02773,-0.24119 0.22369,-0.34812 0.31447,-0.50171c0.15648,0.02472 0.238,0.15032 0.36163,0.23504c-0.12366,0.21355 -0.27628,0.32477 -0.49197,0.34838c-0.05131,0.02194 -0.12228,-0.03934 -0.18408,-0.08167z" fill="#b6cccd"/><path d="M245.11469,190.34107c-0.2867,-0.03771 -0.56545,-0.10176 -0.83502,-0.14679c-0.04729,-0.1403 -0.03281,-0.23821 0.05007,-0.36548c0.28008,0.10934 0.56018,0.2187 0.81655,0.40698c-0.0158,0.05264 -0.0237,0.07897 -0.03159,0.10525z" fill="#acc1c2"/><path d="M245.28868,196.7112c-0.1947,0.15222 -0.39858,0.28547 -0.63925,0.34269c-0.09472,0.01763 -0.19071,-0.01004 -0.2367,-0.10499c-0.01836,-0.03794 -0.02098,-0.1286 -0.00386,-0.13593c0.24728,-0.12889 0.56814,-0.10585 0.87984,-0.10178z" fill="#a7bbbb"/><path d="M248.90557,195.78078c-0.121,0.00596 -0.21829,-0.06702 -0.32477,-0.15902c0.0382,-0.17695 0.07643,-0.35383 0.1146,-0.53073c0.17358,0.01739 0.24588,0.12401 0.31026,0.25695c0.00387,0.13592 -0.04349,0.29384 -0.1001,0.4328z" fill="#b7cdcd"/><path d="M238.86747,199.14136c0.21702,0.02172 0.36687,0.11806 0.52596,0.23334c0.02227,0.17392 0.0091,0.3172 -0.10801,0.45911c-0.21299,-0.18398 -0.30625,-0.41923 -0.41797,-0.69246z" fill="#b7cece"/><path d="M238.90201,190.68644c0.14079,-0.22087 0.39989,-0.24012 0.52483,-0.40837c0.13932,0.03202 0.15908,0.11533 0.12618,0.17532c-0.09079,0.15359 -0.20792,0.29553 -0.37888,0.36875c-0.06052,0.00296 -0.0776,0.0103 -0.2722,-0.13567z" fill="#b4cacb"/><path d="M245.36299,191.15206c-0.00388,-0.13592 0.0198,-0.2149 0.08686,-0.28953c0.2354,0.0597 0.48788,0.11208 0.75345,0.31938c-0.28147,0.14353 -0.53527,0.04582 -0.84035,-0.02983z" fill="#b2c8c9"/><path d="M237.5709,194.97227c-0.02106,0.16961 -0.04349,0.29384 -0.12769,0.37579c-0.07757,0.01032 -0.1223,-0.03934 -0.16699,-0.08903c-0.17877,-0.19864 -0.10507,-0.34491 0.01991,-0.51308c0.0802,0.08028 0.17751,0.15331 0.2748,0.22628z" fill="#b5cbcb"/><path d="M245.91641,199.28624c0.21309,-0.11423 0.40116,-0.1948 0.63392,-0.22573c0.06307,0.08764 0.03019,0.1476 -0.02108,0.16957c-0.11051,0.07028 -0.21183,0.15956 -0.32229,0.22983c-0.13679,0.0586 -0.20777,-0.00274 -0.29054,-0.17365z" fill="#91a3a3"/><path d="M242.76272,191.92211c-0.14079,0.22087 -0.37228,0.29711 -0.57749,0.38501c-0.03421,0.01466 -0.08682,-0.00866 -0.12229,-0.03936c-0.01836,-0.03797 -0.01181,-0.10962 0.00531,-0.11696c0.21179,-0.15957 0.45245,-0.21681 0.69447,-0.22877z" fill="#99abac"/><path d="M241.7398,191.25954c-0.13279,-0.10366 -0.17876,-0.19865 -0.11169,-0.27325c0.1013,-0.08927 0.29068,-0.12453 0.54975,-0.14382c-0.10661,0.20624 -0.29465,0.28679 -0.43806,0.41701z" fill="#93a5a6"/><path d="M239.96499,200.8958c0.26167,0.07138 0.53127,0.11639 0.56011,0.51692c-0.27877,-0.06408 -0.39835,-0.31096 -0.56011,-0.51692z" fill="#9aadad"/><path d="M242.9482,199.29649c0.10922,-0.11562 0.23548,-0.2385 0.32759,-0.34678c0.1131,0.02037 0.15779,0.07002 0.19585,0.19132c-0.10792,0.16094 -0.31567,0.15822 -0.46035,0.24315c-0.01838,-0.03797 -0.02758,-0.05701 -0.0631,-0.08766z" fill="#c5dddd"/><path d="M243.86258,194.36367c-0.1395,0.26615 -0.36181,0.36141 -0.62088,0.38069c-0.01708,0.00733 -0.05263,-0.02334 -0.07102,-0.06133c-0.04467,-0.04965 -0.01182,-0.1096 0.02241,-0.12427c0.17885,-0.09961 0.41168,-0.1305 0.66948,-0.19509z" fill="#aec2c3"/><path d="M237.82946,192.82019c-0.07241,0.19156 -0.21578,0.3218 -0.3421,0.44476c-0.1131,-0.02034 -0.13282,-0.10368 -0.08281,-0.17096c0.08294,-0.12726 0.14871,-0.24718 0.25792,-0.36276c0.0158,-0.05264 0.09467,-0.01766 0.16697,0.08899z" fill="#9caeaf"/><path d="M248.77706,194.62035c-0.03148,-0.19294 -0.01828,-0.33617 0.01991,-0.5131c0.18801,0.21762 0.23789,0.44851 0.34826,0.67643c-0.06052,0.00296 -0.09473,0.01763 -0.12098,0.00598c-0.08809,-0.054 -0.15906,-0.11529 -0.24718,-0.16928z" fill="#a9bebf"/><path d="M240.78793,194.28191c0.09859,0.11832 0.11827,0.20155 0.10377,0.29959c-0.1618,0.09224 -0.34328,0.10119 -0.60628,-0.01546c0.18683,-0.12591 0.3407,-0.19185 0.50248,-0.28412z" fill="#b9cfd0"/><path d="M244.32481,200.22043c0.01179,0.10962 -0.07367,0.14625 -0.51168,0.2651c-0.00781,-0.27187 0.20787,-0.29553 0.29079,-0.42275c0.11308,0.02036 0.16695,0.08904 0.22087,0.15767z" fill="#869797"/><path d="M243.2765,193.23863c-0.30117,0.06022 -0.45781,0.33374 -0.79175,0.15575c0.21969,-0.18591 0.43406,-0.2548 0.79175,-0.15575z" fill="#93a4a5"/><path d="M247.23263,199.91497c-0.25646,0.10989 -0.42749,0.18318 -0.59844,0.25641c-0.03421,0.01466 -0.08682,-0.00867 -0.11437,-0.06568c-0.0092,-0.01903 -0.01049,-0.06431 -0.00261,-0.09064c0.18676,-0.12594 0.3749,-0.20655 0.71541,-0.10014z" fill="#94a5a6"/><path d="M244.80195,200.86466c0.12357,0.08472 0.16829,0.13431 0.14591,0.25857c-0.12758,0.07759 -0.27232,0.16254 -0.47091,0.17881c0.02773,-0.24124 0.1987,-0.31445 0.32497,-0.43737z" fill="#abbfc0"/><path d="M248.33607,199.76329c-0.0802,-0.08031 -0.1157,-0.11098 -0.13411,-0.14901c0.13819,-0.3115 0.13819,-0.31146 0.40517,-0.35704c-0.01061,0.23388 -0.18155,0.30716 -0.27108,0.50601z" fill="#acc0c1"/><path d="M240.90532,200.79112c0.19202,0.05537 0.39189,0.08439 0.59306,0.15872c0.07886,0.035 0.11566,0.11101 0.04067,0.2119c-0.2354,-0.05972 -0.45366,-0.12673 -0.63375,-0.37065z" fill="#9fb2b2"/><path d="M248.97101,196.85369c0.02241,-0.1243 0.04612,-0.20324 0.11318,-0.27783c0.08681,0.00864 0.1486,0.05098 0.2117,0.13864c0.03808,0.12129 -0.01063,0.23389 -0.05932,0.34648c-0.121,0.00596 -0.19328,-0.10067 -0.26552,-0.20729z" fill="#aec2c3"/><path d="M241.69827,197.05696c0.0119,-0.18852 0.13163,-0.23989 0.24208,-0.31015c0.05131,-0.02195 0.11308,0.02036 0.14066,0.07735c0.01836,0.03797 0.01181,0.10965 -0.02239,0.12426c-0.07499,0.10093 -0.19602,0.10691 -0.36039,0.10853z" fill="#91a2a3"/><path d="M248.35678,193.24082c-0.3919,-0.08439 -0.41819,-0.09601 -0.29838,-0.44553c0.10777,0.1373 0.25769,0.23363 0.29838,0.44553z" fill="#869696"/><path d="M241.24177,190.18853c0.05402,-0.22956 0.18417,-0.21652 0.31309,-0.24883c-0.00274,0.20755 -0.00274,0.20757 -0.31309,0.24883z" fill="#555f5f"/><path d="M242.72113,198.01773c-0.08549,0.03665 -0.20515,0.08788 -0.35247,0.08225c0.07111,-0.23687 0.1395,-0.26615 0.29596,-0.24151c0.04338,0.00435 0.07103,0.06134 0.05648,0.15928z" fill="#93a5a6"/><path d="M247.48214,200.77124c-0.11318,0.27784 -0.15659,0.27354 -0.35506,-0.00846c0.1013,-0.08927 0.22356,-0.04997 0.35506,0.00846z" fill="#8b9b9c"/><path d="M241.64699,189.5333c-0.1434,0.13025 -0.28934,0.16984 -0.43539,0.20945c-0.10648,-0.09197 -0.09988,-0.16364 -0.03149,-0.19291c0.13678,-0.05861 0.28275,-0.09821 0.46682,-0.01657z" fill="#9aacad"/><path d="M248.94535,198.67654c-0.03031,0.15056 -0.02645,0.28655 -0.17243,0.32617c-0.01711,0.00733 -0.04338,-0.00433 -0.05261,-0.02333c-0.04858,-0.18563 0.03562,-0.26755 0.22501,-0.30283z" fill="#5f6a6b"/><path d="M241.21876,195.72572c0.04079,-0.08627 0.10922,-0.11561 0.1868,-0.12588c0.04339,0.00433 0.09598,0.02767 0.09729,0.07299c0.00132,0.04531 -0.01448,0.09798 -0.04872,0.11258c-0.06837,0.02928 -0.14597,0.03961 -0.23538,-0.0597z" fill="#636e6f"/><path d="M249.25534,195.90621c0.11567,0.11099 0.14456,0.21327 0.04458,0.34785c-0.14196,-0.12264 -0.1275,-0.22058 -0.04458,-0.34785z" fill="#4a5354"/></g><path d="M225.77125,197.3442c0,0 2.89853,-3.26989 5.64261,-3.20504c2.35289,0.0556 4.5527,3.31944 5.16155,4.63915c1.15693,2.50783 2.15843,5.04274 1.20749,7.458c-0.32886,0.83522 -1.63546,2.26503 -3.01712,2.9078c-0.96178,0.44743 -4.56013,1.53458 -5.61894,2.0022c-3.98662,1.76069 -7.35486,3.08112 -8.87673,0.33735c-0.93645,-1.68827 -3.71404,-6.37618 -2.66342,-8.43591c1.11029,-2.17676 8.16459,-5.70361 8.16459,-5.70361z" fill="#000000" stroke="#000000" stroke-width="1.2"/></g><path d="M243.90162,156.31404c0.74227,0.10741 0.63486,0.84968 0.63486,0.84968l-0.1516,0.8631c-0.61368,1.41212 -1.29176,3.35347 -2.61641,4.23352c-1.82876,1.21497 -4.44935,0.51937 -5.0772,-1.68317c-0.58921,-2.06696 0.26362,-4.69048 0.84181,-6.65958c0,0 0.2113,-0.71962 0.93092,-0.50831c0.71962,0.2113 0.50831,0.93092 0.50831,0.93092c-0.51951,1.76923 -1.25256,3.9847 -0.83147,5.85133c0.28267,1.25304 1.85194,1.43495 2.78744,0.82619c1.02393,-0.66629 1.60389,-2.49118 2.08089,-3.58877l0.04277,-0.48006c0,0 0.10741,-0.74227 0.84968,-0.63486z" fill="#000000" fill-rule="nonzero" stroke="none" stroke-width="0.5" stroke-linecap="butt" stroke-linejoin="miter"/></g></g></svg>