<svg version="1.1" xmlns="http://www.w3.org/2000/svg" xmlns:xlink="http://www.w3.org/1999/xlink" width="147.52743" height="95.3693" viewBox="0,0,147.52743,95.3693"><defs><linearGradient x1="197.225" y1="205.09771" x2="176.96098" y2="214.72891" gradientUnits="userSpaceOnUse" id="color-1"><stop offset="0" stop-color="#000000"/><stop offset="1" stop-color="#000000" stop-opacity="0"/></linearGradient></defs><g transform="translate(-172.82485,-140.5824)"><g data-paper-data="{&quot;isPaintingLayer&quot;:true}" stroke-miterlimit="10" stroke-dasharray="" stroke-dashoffset="0" style="mix-blend-mode: normal"><g stroke-linejoin="miter"><path d="M239.57534,180.58353c5.77408,12.14865 0.16285,26.88875 -12.53306,32.92292c-12.69588,6.03417 -27.66877,1.07741 -33.44285,-11.07124c-5.77408,-12.14865 -0.16285,-26.88875 12.53306,-32.92292c12.69588,-6.03417 27.66877,-1.07741 33.44285,11.07124z" fill="none" fill-rule="nonzero" stroke="#000000" stroke-width="4.5" stroke-linecap="butt"/><g stroke-linecap="butt"><g fill-rule="nonzero"><path d="M196.20689,183.77339l0.01383,0.00241" data-paper-data="{&quot;index&quot;:null}" fill="#ffab19" stroke="#000000" stroke-width="5"/><g data-paper-data="{&quot;index&quot;:null}" fill="none" stroke="none" stroke-width="1" font-family="sans-serif" font-weight="normal" font-size="12" text-anchor="start"/></g><path d="M196.20689,183.77339l0.01383,0.00241" data-paper-data="{&quot;index&quot;:null}" fill="#ffab19" fill-rule="nonzero" stroke="#000000" stroke-width="5"/><path d="M216.8494,192.73892" fill="#001026" fill-rule="evenodd" stroke="#000000" stroke-width="5"/><g data-paper-data="{&quot;index&quot;:null}" fill="none" fill-rule="nonzero" stroke="none" stroke-width="1" font-family="sans-serif" font-weight="normal" font-size="12" text-anchor="start"/><g data-paper-data="{&quot;index&quot;:null}" fill="none" fill-rule="nonzero" stroke="none" stroke-width="1" font-family="sans-serif" font-weight="normal" font-size="12" text-anchor="start"/></g><path d="M222.1858,216.78192l-26.6968,12.42986c0,0 -2.31723,0.72564 -2.39105,-0.23742c-0.16928,-2.20833 1.39583,-12.7454 1.39583,-12.7454l-12.2597,1.42784c0,0 -2.31116,0.09775 -3.07151,-0.75797c-0.70731,-0.79603 5.56437,-14.14147 5.56437,-14.14147c0,0 -9.01608,0.28858 -11.88901,-0.53932c-1.12814,-0.32509 6.92693,-12.62406 13.15543,-19.71265c3.04777,-3.46866 7.09217,-8.433 11.0151,-11.10608c6.50448,-4.43215 12.9056,-4.93705 12.9056,-4.93705" fill="none" fill-rule="nonzero" stroke="#000000" stroke-width="3" stroke-linecap="round"/><path d="M193.80033,230.01438c0,0 -1.08147,-1.04037 -0.80075,-3.31386c0.35162,-2.84762 3.77947,-8.07615 1.27206,-9.49901c-3.2481,-1.8432 -14.44047,3.98286 -14.68941,-0.15825c-0.2044,-3.40033 5.82283,-12.31474 4.93363,-14.18559c-0.88722,-1.86673 -4.47308,1.22968 -8.01994,-0.13053c-5.0444,-1.9345 -3.42271,-2.71144 -3.42271,-2.71144c0,0 7.37812,-11.78021 11.47218,-16.43519c3.84115,-4.36741 12.38184,-10.68703 12.38184,-10.68703c0,0 -7.58754,18.82694 -6.05774,27.01139c1.69582,9.07259 25.53762,18.3298 25.53762,18.3298z" data-paper-data="{&quot;index&quot;:null}" fill="url(#color-1)" fill-rule="nonzero" stroke="none" stroke-width="0" stroke-linecap="butt"/></g><path d="M235.22898,209.30894l13.54053,-2.39351" fill="none" fill-rule="nonzero" stroke="#000000" stroke-width="6" stroke-linecap="round" stroke-linejoin="miter"/><path d="M248.07967,218.60756c0,0 -7.85309,0.46487 -8.51283,-0.44126c-1.19457,-1.64071 -4.3534,-9.84418 -4.3534,-9.84418c0,0 10.84531,-8.96721 13.34525,-10.31521c0.41916,-0.22602 10.8545,-6.54732 10.8545,-6.54732" fill="none" fill-rule="nonzero" stroke="#000000" stroke-width="6" stroke-linecap="round" stroke-linejoin="miter"/><g><g><g stroke="#001026" stroke-width="1.2"><path d="M250.0342,197.77967l25.78874,4.34149c0,0 2.34018,-6.67646 9.1205,-4.56093c0.38654,0.12061 2.26978,0.76388 2.02608,3.729c-0.23343,2.83998 -2.56659,7.96661 -3.43076,9.83649c-0.40137,0.86847 -1.41362,2.07666 -2.72152,2.65961c-1.31685,0.58691 -2.83358,0.04864 -3.70213,-0.20063c-0.35376,-0.10153 -28.74739,-6.0658 -28.74739,-6.0658" fill="#bf0000" fill-rule="evenodd" stroke-linecap="round" stroke-linejoin="round"/><path d="M253.95394,209.2994c-6.94873,-2.16807 -5.59855,-7.3426 -4.76865,-10.00244c0.36087,-1.1566 -1.55399,-1.53445 4.2129,-0.99867c1.2701,0.118 6.34523,1.08818 10.82933,1.33983c3.07054,0.17232 5.9674,-0.32386 6.76443,-0.34334c1.88318,-0.046 3.39512,0.62746 3.39512,0.62746l-1.42574,0.65267c0,0 0.98295,-0.41764 1.53317,-0.54008c1.71406,-0.38144 3.01009,-0.67755 3.01009,-0.67755c0,0 -2.40249,6.72161 -0.98387,10.01348c1.41862,3.29186 5.9041,3.14583 5.9041,3.14583c0,0 -2.23199,4.85066 -5.14751,4.45604c-0.71875,-0.09728 -2.547,-1.47202 -2.547,-1.47202c0,0 -0.0499,0.6134 -0.53309,0.49542c-0.24631,-0.06014 -3.63701,-1.87177 -7.65225,-3.20797c-5.28575,-1.75901 -11.58986,-3.17626 -12.59106,-3.48864z" fill="#000000" fill-rule="nonzero" stroke-linecap="butt" stroke-linejoin="miter"/></g><path d="M246.49534,216.58337c-0.20807,-0.04932 0.72998,-1.0379 1.55358,-3.65068c1.08654,-3.44692 2.19613,-8.88447 2.41296,-10.44071c0.56226,-4.03562 -0.70846,-5.10951 -0.15688,-4.9788c2.04115,0.48372 5.14478,3.74583 4.07932,8.24168c-0.46821,1.97571 -0.93526,6.1572 -2.29102,8.21274c-1.72933,2.62193 -4.45382,2.8869 -5.59797,2.61576z" fill="#004fd9" fill-rule="nonzero" stroke="#001026" stroke-width="1.2" stroke-linecap="butt" stroke-linejoin="miter"/><g fill-rule="nonzero" stroke-linecap="butt" stroke-linejoin="miter"><g fill="none" stroke="none" stroke-width="1" font-family="sans-serif" font-weight="normal" font-size="12" text-anchor="start"/><path d="M245.05116,216.67636c0,0 3.65388,-7.97155 4.73251,-11.80659c1.07862,-3.83502 0.6606,-7.3686 0.6606,-7.3686c0,0 1.98057,0.5343 3.41083,2.79169c1.10711,1.74735 1.91871,4.72883 1.01126,8.02244c-0.82671,3.00056 -2.41076,6.15871 -4.17353,7.44185c-2.67185,1.94484 -5.64168,0.91921 -5.64168,0.91921z" fill="#000000" stroke="#001026" stroke-width="1.2"/></g><g stroke="#001026" stroke-width="1.2"><path d="M252.68475,208.89968c0,0 28.13316,11.57246 28.05919,12.19353c-0.21232,1.7823 -5.34962,10.41199 -5.34962,10.41199l-27.50382,-14.36516" data-paper-data="{&quot;index&quot;:null}" fill="#ffab19" fill-rule="evenodd" stroke-linecap="round" stroke-linejoin="round"/><path d="M252.62768,207.32788c0,0 5.9285,2.51916 9.12301,3.67641c3.06401,1.10996 9.66893,3.13116 9.66893,3.13116c0,0 5.08562,0.46841 6.01994,1.70112c0.43276,0.57095 -2.93526,-0.04083 -2.93526,-0.04083c0,0 3.7959,0.69328 4.13155,0.75062c2.34188,0.40017 4.99716,2.39326 4.42558,5.46075c-0.62758,3.36791 -1.83231,8.90438 -4.43069,11.19247c-1.10557,0.97355 -3.81764,1.94463 -6.08982,0.82393c-2.56244,-1.26385 -4.64034,-4.70684 -4.64034,-4.70684l2.39401,3.30243c0,0 -1.54832,-0.41592 -2.56613,-1.13309c-1.14301,-0.8054 -3.95996,-3.46545 -3.95996,-3.46545l-17.12674,-10.52182" data-paper-data="{&quot;index&quot;:null}" fill="#000000" fill-rule="evenodd" stroke-linecap="round" stroke-linejoin="round"/><path d="M279.57507,218.3275c1.60843,0.54932 3.31258,1.76253 3.88061,3.49961c0.57012,1.74352 -2.33428,10.40994 -3.9305,11.42133c-1.51586,0.96049 -3.78605,0.87868 -5.35584,0.34255c-3.2228,-1.10068 -4.6253,-5.4098 -3.13254,-9.62471c1.49275,-4.21488 5.31547,-6.73945 8.53828,-5.63875z" fill="#ff0000" fill-rule="nonzero" stroke-linecap="butt" stroke-linejoin="miter"/></g></g><g fill="#000000" fill-rule="nonzero" stroke="#001026" stroke-width="1.2" stroke-linecap="butt" stroke-linejoin="miter"><path d="M256.47838,218.58543c0,0 -0.36109,2.92833 -0.85918,3.71312c-0.15334,0.24158 -1.2534,0.6888 -2.42695,0.74267c-1.46471,0.06725 -3.12859,-0.34478 -4.18807,-0.99163c-2.72584,-1.66425 -4.74651,-6.80647 -3.59715,-8.6174c0.49811,-0.78485 3.54547,-2.33886 3.55198,-2.33882"/></g></g><g data-paper-data="{&quot;index&quot;:null}" fill-rule="nonzero" stroke="none" stroke-width="1" stroke-linecap="butt" stroke-linejoin="miter"><path d="M283.64603,221.00727c0.03172,-0.20964 0.16517,-0.27423 0.33522,-0.32217c0.27434,-0.05414 0.55426,-0.05201 0.83049,-0.08731c0.04656,-0.05945 0.09314,-0.11888 0.12231,-0.17724c0.68425,-1.21171 1.7333,-1.91644 2.92262,-2.44064c0.25139,-0.10944 0.50097,-0.23765 0.779,-0.25422c0.05214,-0.00308 0.1198,-0.02603 0.15085,-0.06567c0.17073,-0.21794 0.39666,-0.23143 0.63813,-0.26473c0.20668,-0.03124 0.41708,-0.02491 0.62563,-0.03734c0.12164,-0.00726 0.24703,0.02302 0.34509,0.13047c0.09803,0.10746 0.24264,0.15548 0.36984,0.20451c0.75407,0.20049 1.46901,0.53549 2.14296,0.98622c0.37545,0.26085 0.68694,0.58217 1.0003,0.92226c0.92088,1.00257 1.51089,2.19484 1.85138,3.5153c0.14633,0.59557 0.20767,1.2151 0.19948,1.83877c-0.0057,0.47243 -0.13676,0.91463 -0.28704,1.33908c-0.47821,1.35051 -1.33927,2.36503 -2.47154,3.11244c-0.21292,0.14489 -0.46616,0.23557 -0.71941,0.32622c-0.1682,0.06671 -0.31718,0.15114 -0.4029,0.34509c-0.07018,0.17412 -0.21914,0.25856 -0.38921,0.30649c-0.27434,0.05414 -0.5524,0.07074 -0.83048,0.08731c-0.08692,0.00519 -0.16016,-0.02821 -0.2334,-0.06163c-0.26002,-0.15442 -0.52628,-0.1952 -0.8062,-0.19735c-0.59276,0.01652 -1.16932,-0.1568 -1.74401,-0.31134c-0.21598,-0.06267 -0.43381,-0.14405 -0.638,-0.26404c-0.6665,-0.37565 -1.30017,-0.77218 -1.84625,-1.34387c-0.26068,0.01556 -0.5406,0.01338 -0.81867,0.03c-0.10429,0.00621 -0.22594,0.01349 -0.30659,-0.09501c-0.07878,-0.0897 -0.18122,-0.06473 -0.28547,-0.05848c-0.697,0.02274 -1.39216,0.06423 -2.08918,0.08696c-1.5486,0.07353 -3.11455,0.1482 -4.66687,0.18422c-1.51756,0.03393 -3.02951,0.12425 -4.54334,0.19572c-0.24331,0.01453 -0.47293,-0.00955 -0.71624,0.00501c-1.18176,0.07056 -2.36355,0.1411 -3.54717,0.1929c-0.20853,0.01245 -0.41337,0.06243 -0.61566,-0.03881c-0.07326,-0.03341 -0.15825,-0.00944 -0.24517,-0.00428c-0.86896,0.05193 -1.75714,0.08603 -2.6261,0.13791c-0.03476,0.00207 -0.0869,0.00516 -0.12165,0.00726c-0.27621,0.03539 -0.42825,-0.08774 -0.57592,-0.34331c-0.48705,-0.8585 -0.68239,-1.77214 -0.586,-2.74101c0.028,-0.24718 0.09072,-0.49641 0.19007,-0.72896c0.07019,-0.17415 0.20177,-0.25755 0.37367,-0.2867c0.5158,-0.08742 1.02972,-0.19367 1.56292,-0.28215c0.37865,-0.06037 0.77836,-0.08424 1.15141,-0.20094c0.81373,-0.25631 1.66718,-0.28839 2.48648,-0.48841c0.46178,-0.10312 0.90252,-0.24274 1.36618,-0.3271c0.49841,-0.08641 0.97575,-0.20932 1.45488,-0.3135c0.87333,-0.18433 1.76775,-0.33215 2.63921,-0.53527c1.14207,-0.29479 2.29163,-0.51451 3.44115,-0.73422c0.39416,-0.08019 0.78824,-0.1604 1.18241,-0.24057c0.61822,-0.11248 1.25378,-0.22593 1.87198,-0.33836c0.34386,-0.05831 0.66664,-0.15311 1.01049,-0.21142c0.35942,-0.07811 0.68956,-0.09784 1.06823,-0.15822zM283.93579,221.46206c-0.08198,0.23151 -0.12921,0.46093 -0.12246,0.70602c-0.10809,0.49746 -0.09269,1.00641 -0.07725,1.51537c0.01105,0.64144 0.09345,1.29746 0.17403,1.93473c0.08986,0.73113 0.34792,1.39557 0.62521,2.07778c0.04219,0.07303 0.08438,0.14603 0.14767,0.25553c0.13902,-0.00828 0.27804,-0.01664 0.41708,-0.02492c0.03476,-0.00207 0.06768,-0.02291 0.11793,-0.04479c-0.013,-0.13142 -0.04338,-0.2618 -0.09115,-0.39114c-0.07445,-0.22218 -0.11223,-0.42763 -0.18664,-0.64979c-0.16001,-0.55696 -0.16553,-1.14211 -0.27339,-1.70217c-0.04713,-0.29934 -0.12894,-0.59659 -0.14132,-0.898c-0.0129,-0.66021 -0.11269,-1.31519 -0.05607,-1.97951c0.01804,-0.17105 0.03419,-0.36083 0.05224,-0.5319c0.09686,-0.08132 0.04719,-0.22944 0.07268,-0.3254c0.041,-0.11575 0.08198,-0.23152 0.04414,-0.43696c-0.21292,0.14489 -0.44443,0.10207 -0.64553,0.18961c-0.00811,0.09491 -0.10491,0.17622 -0.05716,0.30558zM283.41923,222.24826c0.1137,-0.44114 0.11989,-0.5548 0.06099,-0.7968c-0.20668,0.03124 -0.396,0.06143 -0.6027,0.09264c-0.12164,0.00726 -0.20114,0.08751 -0.24214,0.20331c-0.02734,0.07721 -0.01803,0.17102 -0.04537,0.24821c-0.09382,0.28887 -0.11432,0.61114 -0.06723,0.91047c-0.07385,0.13663 -0.05904,0.28678 -0.04416,0.437c0.06623,0.84584 0.11325,1.67399 0.26635,2.51463c0.07191,0.37342 0.16121,0.7458 0.26604,1.09831c0.09738,0.27751 0.19663,0.57369 0.42749,0.78652c0.22595,-0.01351 0.45183,-0.02702 0.67779,-0.04048c-0.0496,-0.1481 -0.09736,-0.27749 -0.14324,-0.38801c-0.19104,-0.51737 -0.34736,-1.03679 -0.43416,-1.56038c-0.11901,-0.67273 -0.15115,-1.35068 -0.20067,-2.02756c-0.03159,-0.31918 0.04293,-0.62577 -0.00601,-0.94388c0.10491,-0.17622 0.10372,-0.365 0.08701,-0.53396zM264.30686,225.73105c-0.07826,0.26906 -0.06964,0.53292 -0.02623,0.79469c-0.01551,0.01979 -0.02917,0.05841 -0.02732,0.0772c0.06197,0.44954 0.15868,0.89697 0.35598,1.30066c0.11106,0.2389 0.20472,0.47878 0.41446,0.65509c0.97324,-0.05811 1.94643,-0.11623 2.97182,-0.1774c-0.23573,-0.43914 -0.3673,-0.88457 -0.48136,-1.33093c-0.10855,-0.39013 -0.09355,-0.76868 -0.16735,-1.16087c-0.01488,-0.15017 -0.01052,-0.28264 -0.0254,-0.43284c0.0646,-0.23045 0.09258,-0.47763 0.08211,-0.76026c-0.52139,0.03114 -0.99313,0.2104 -1.47602,0.27699c-0.49841,0.08641 -0.995,0.1916 -1.47601,0.27697c-0.10492,0.17622 -0.12485,0.3285 -0.1447,0.48077zM267.75354,225.05314c-0.07385,0.13663 -0.07641,0.28784 -0.06151,0.438c-0.05468,0.15434 -0.02057,0.3223 -0.02123,0.49226c0.03467,0.52672 0.15618,1.04822 0.31063,1.54887c0.09923,0.29621 0.23328,0.59037 0.43307,0.84281c0.06953,-0.00413 0.14088,0.01048 0.2104,0.00629c0.85161,-0.0508 1.68573,-0.10062 2.53919,-0.13271c0.90555,-0.03519 1.79374,-0.06934 2.69931,-0.10452c1.32268,-0.06011 2.6298,-0.10034 3.95247,-0.16045c1.48093,-0.05065 2.93892,-0.15661 4.42354,-0.16969c0.24515,0.00426 0.50397,-0.03014 0.76466,-0.04566c-0.08995,-0.20234 -0.2128,-0.38383 -0.26799,-0.58828c-0.22146,-0.64773 -0.34046,-1.32048 -0.42476,-1.99528c-0.05946,-0.60075 -0.10154,-1.20253 -0.1436,-1.80435c0.0106,-0.24615 0.00568,-0.47244 0.0163,-0.71859c0.08942,-0.1564 0.03792,-0.3233 0.05781,-0.47557c0.01804,-0.17105 0.0727,-0.32537 0.03672,-0.51207c-0.1775,-0.02717 -0.31285,0.01868 -0.43261,0.04471c-1.00495,0.26774 -2.04211,0.38631 -3.05259,0.59772c-0.65113,0.13332 -1.30223,0.26659 -1.95145,0.41871c-0.87333,0.18433 -1.72739,0.38639 -2.58333,0.5697c-0.70137,0.15521 -1.40278,0.31037 -2.10604,0.44678c-0.75353,0.15828 -1.49153,0.29674 -2.24694,0.43628c-0.68586,0.13537 -1.38911,0.27183 -2.09049,0.427c-0.00065,0.16997 -0.09379,0.28886 -0.06155,0.43801zM291.66199,229.93305c-0.19727,-0.40365 -0.30583,-0.79379 -0.43174,-1.18283c-0.12777,-0.40784 -0.2711,-0.79583 -0.38146,-1.20471c-0.10854,-0.39012 -0.18416,-0.80107 -0.2753,-1.19221c-0.09301,-0.40994 -0.18604,-0.81983 -0.26355,-1.24953c-0.07376,-0.39215 -0.13199,-0.80416 -0.20578,-1.19635c-0.05824,-0.41196 -0.04702,-0.82811 -0.17479,-1.23594c0.06524,-0.40044 -0.04513,-0.80934 -0.0668,-1.20464c-0.0061,-0.41507 -0.04888,-0.84691 -0.05499,-1.26199c-0.00425,-0.39631 0.00702,-0.81245 0.02013,-1.2098c0.01128,-0.41616 0.09393,-0.81766 0.05302,-1.23065c-0.42082,-0.01264 -0.54246,-0.0054 -0.84042,0.16348c-0.0646,0.23045 -0.12922,0.46096 -0.15532,0.72687c-0.02055,0.32227 -0.04111,0.64451 -0.07719,0.9866c-0.05849,0.64556 -0.10141,1.27134 -0.03641,1.92842c0.0446,0.45058 0.10658,0.9001 0.08164,1.35483c-0.00811,0.09491 0.00305,0.20756 0.04895,0.31809c0.07445,0.22215 0.08121,0.46727 0.10352,0.69253c0.08175,0.82605 0.26776,1.64588 0.46935,2.44589c0.24495,1.06182 0.60782,2.07881 1.02287,3.09266c0.07259,0.20338 0.14515,0.40677 0.31642,0.54759c0.2644,0.022 0.52326,-0.01235 0.84784,-0.08837zM292.97936,222.22507c-0.2408,-0.13668 -0.47417,-0.19831 -0.70937,-0.27867c-0.20045,-0.08248 -0.41087,-0.08877 -0.61198,-0.00123c-0.38856,0.1365 -0.80009,0.21775 -1.21905,0.22385c-0.03476,0.00207 -0.08505,0.02393 -0.10241,0.02498c-0.04282,0.09696 -0.03538,0.17207 0.02602,0.26285c0.01921,0.01773 0.05588,0.03444 0.07326,0.03339c0.50959,0.02623 1.02283,0.09001 1.53985,0.19134c0.07137,0.01465 0.1775,0.02718 0.24331,-0.01453c0.27064,-0.09169 0.54125,-0.1834 0.76042,-0.44201zM290.2437,221.25532c0.47481,0.02829 0.93595,0.0952 1.38157,0.18193c0.14272,0.02922 0.26253,0.00322 0.39598,-0.06142c0.19924,-0.10633 0.36005,-0.24813 0.53823,-0.39095c0.0658,-0.04171 0.14896,-0.08442 0.10305,-0.195c-0.30475,-0.07624 -0.59397,-0.17227 -0.89497,-0.21097c-0.69833,0.36274 -0.69831,0.36271 -1.53062,0.43131c-0.04658,0.05943 -0.0565,0.13558 0.00676,0.24509zM288.98028,225.9763c-0.32026,-0.05642 -0.63868,-0.09408 -0.95709,-0.13171c-0.07138,-0.01465 -0.14274,-0.02924 -0.21039,-0.00633c-0.26504,0.14799 -0.53196,0.27729 -0.73561,0.51603c0.23084,0.21284 0.4971,0.25358 0.75157,0.3517c0.1272,0.04906 0.22963,0.02404 0.34571,-0.03954c0.26319,-0.16678 0.53014,-0.29604 0.81626,-0.4075c0.01739,-0.00104 0.03105,-0.03957 0.06207,-0.07921c-0.02295,-0.05528 -0.04778,-0.1294 -0.07259,-0.20342zM293.40314,225.97656c-0.30222,-0.22746 -0.57407,-0.32453 -0.84775,-0.44037c-0.108,-0.03134 -0.193,-0.00735 -0.27804,0.0166c-0.40594,0.13757 -0.81752,0.21875 -1.25382,0.22593c-0.05212,0.00309 -0.10241,0.02496 -0.15454,0.02811c0.00307,0.20756 0.02415,0.24407 0.16318,0.23576c0.45189,-0.02699 0.89564,0.04096 1.31392,0.20481c0.25445,0.09812 0.46114,0.06689 0.67782,-0.04046c0.11425,-0.08237 0.21296,-0.14489 0.37929,-0.23037zM290.44557,223.47162c0.00932,0.09385 0.08071,0.10846 0.15022,0.10432c0.4866,-0.02903 0.97069,0.0931 1.45481,0.21531c0.39347,0.08981 0.78578,-0.00914 1.14023,-0.31357c-0.16942,-0.12207 -0.3451,-0.13047 -0.51078,-0.215c-0.34879,-0.16801 -0.67898,-0.14829 -1.01913,-0.05246c-0.3749,0.09793 -0.74798,0.2146 -1.13403,0.19991c-0.05025,0.02191 -0.06583,0.0417 -0.08134,0.06152zM293.2557,224.66355c-0.2197,-0.1002 -0.36801,-0.1858 -0.51447,-0.25256c-0.23895,-0.1179 -0.44935,-0.12423 -0.68522,-0.03465c-0.31905,0.13236 -0.66291,0.19067 -1.00861,0.2302c-0.11981,0.02603 -0.25883,0.03433 -0.38046,0.0416c-0.00811,0.09491 0.04588,0.11056 0.08064,0.10849c0.51329,0.06375 1.0284,0.14633 1.53361,0.30502c0.08875,0.01359 0.16012,0.0282 0.24516,0.00425c0.23402,-0.10839 0.46989,-0.19802 0.72935,-0.40234zM289.2711,227.14866c-0.32278,0.09482 -0.64115,0.05716 -0.95772,0.03829c-0.08688,0.00519 -0.16197,-0.04699 -0.24515,-0.00426c-0.13349,0.06465 -0.38925,0.30652 -0.52522,0.52236c0.18682,0.12107 0.39905,0.14614 0.59769,0.20985c0.16201,0.04699 0.29915,0.01991 0.42888,-0.08226c0.22843,-0.16468 0.46062,-0.29188 0.73311,-0.3648c0.0174,-0.00101 0.0484,-0.04066 0.06391,-0.06046c0.00995,-0.07615 0.00252,-0.15123 -0.09555,-0.25868zM287.48865,220.79661c-0.23214,0.1272 -0.52947,0.12602 -0.73868,0.30848c0.03039,0.13037 0.12284,0.18153 0.1998,0.25247c0.15207,0.12311 0.27116,0.26705 0.47163,0.34952c0.30169,-0.1313 0.65298,-0.11454 0.97389,-0.22812c0.04282,-0.09696 0.03359,-0.19083 -0.0105,-0.28264c-0.3066,-0.09499 -0.59956,-0.2286 -0.89618,-0.39971zM288.60274,223.75164c-0.1775,-0.02717 -0.35499,-0.05434 -0.48593,-0.14095c-0.31772,-0.20766 -0.61135,-0.1712 -0.89191,-0.00338c-0.0987,0.06251 -0.20297,0.06874 -0.29613,0.18762c0.1924,0.17737 0.39657,0.29738 0.60075,0.41733c0.05587,0.03444 0.12536,0.03027 0.21038,0.00632c0.25326,-0.09068 0.49099,-0.16151 0.74423,-0.25217c0.05214,-0.00308 0.11795,-0.04481 0.1186,-0.21482zM288.48564,222.56887c-0.38977,-0.05227 -0.74849,-0.14416 -1.05072,-0.37161c-0.05772,-0.05319 -0.12537,-0.03027 -0.19488,-0.02612c-0.15456,0.02812 -0.30728,0.075 -0.4525,0.19698c0.26933,0.24832 0.52938,0.40274 0.80678,0.55613c0.09247,0.05113 0.18121,0.06474 0.28363,0.03972c0.18746,-0.04891 0.37677,-0.07915 0.56423,-0.12812c0.0174,-0.00101 0.04843,-0.04068 0.06392,-0.0605c-0.00556,-0.05632 -0.01114,-0.11264 -0.02045,-0.20647zM292.69279,227.45425c0.16634,-0.08548 0.3501,-0.17194 0.51648,-0.25742c0.01551,-0.01979 0.03106,-0.03964 0.06207,-0.07923c-0.17683,-0.19719 -0.39657,-0.29738 -0.59513,-0.36108c-0.52576,0.16359 -1.01672,0.32511 -1.60761,0.36039c0.30408,0.24623 0.56911,0.09817 0.80062,0.14102c0.28362,0.03973 0.5536,0.11801 0.82358,0.1963zM293.37047,221.93728c0.18995,-0.20018 0.38365,-0.36286 0.47929,-0.63293c-0.12907,-0.06785 -0.22527,-0.15652 -0.33516,-0.20657c-0.10985,-0.05007 -0.22155,-0.11895 -0.3432,-0.11167c-0.15081,0.06566 -0.2421,0.2033 -0.35444,0.30444c-0.11233,0.10114 -0.24583,0.16575 -0.31785,0.32112c0.29109,0.11479 0.56289,0.2119 0.87135,0.32569zM290.09001,220.05588c0.52879,0.04397 0.96886,0.07431 1.40888,0.10471c0.03476,-0.00207 0.08877,0.01362 0.1198,-0.02603c0.17815,-0.14282 0.39479,-0.2502 0.4923,-0.5015c-0.25074,-0.06059 -0.48412,-0.12217 -0.71563,-0.165c-0.37557,0.26792 -0.79701,0.42526 -1.30539,0.58783zM287.03404,225.03502c0.13839,0.16171 0.31587,0.18887 0.46234,0.25568c0.16571,0.08453 0.32582,0.11275 0.50954,0.02623c0.25139,-0.10943 0.50279,-0.21886 0.7846,-0.19794c0.02177,-0.13352 -0.00308,-0.20755 -0.10733,-0.20133c-0.26252,-0.00318 -0.54246,-0.00539 -0.77952,-0.10453c-0.34508,-0.13048 -0.59094,0.03527 -0.86964,0.22189zM287.23244,223.15363c-0.3196,-0.22642 -0.56599,-0.41942 -0.81045,-0.59367c-0.12164,0.00726 -0.18561,0.06772 -0.25137,0.10942c-0.06393,0.06047 -0.16445,0.10423 -0.18623,0.23768c0.15949,0.19823 0.35183,0.37557 0.5597,0.53315c0.22032,-0.06981 0.42145,-0.15735 0.68838,-0.28659zM286.67257,226.15189c0.24396,-0.1845 0.455,-0.34822 0.68345,-0.5129c-0.23894,-0.11792 -0.46054,-0.2369 -0.68206,-0.35586c-0.21292,0.14489 -0.4122,0.25122 -0.54624,0.48584c0.17311,0.15963 0.35808,0.26187 0.54487,0.38292zM294.01581,222.80525c-0.12656,-0.21905 -0.35806,-0.2619 -0.54299,-0.36418c-0.05587,-0.03444 -0.1409,-0.01047 -0.18932,0.0302c-0.16266,0.12302 -0.30977,0.22621 -0.45504,0.34816c-0.01739,0.00104 -0.01366,0.03861 -0.00995,0.07616c0.25631,0.11692 0.52815,0.21393 0.78447,0.33084c0.16447,-0.10421 0.28867,-0.26274 0.41284,-0.42123zM293.76133,225.70977c0.18372,-0.08653 0.35008,-0.17196 0.45134,-0.38572c-0.17131,-0.14086 -0.34628,-0.31926 -0.56414,-0.40068c-0.11608,0.06356 -0.23588,0.08962 -0.3327,0.17094c-0.0987,0.0625 -0.23961,0.05203 -0.275,0.22413c0.24077,0.1367 0.48157,0.27338 0.72055,0.39135zM286.81146,226.67226c-0.14898,0.08444 -0.21914,0.2586 -0.30669,0.43376c0.22341,0.13777 0.39841,0.31613 0.64914,0.37673c0.12417,-0.1585 0.30603,-0.26379 0.42463,-0.4786c-0.25631,-0.11692 -0.51076,-0.21503 -0.76707,-0.33188zM289.66435,228.29601c-0.31469,-0.0001 -0.63931,0.07598 -0.95772,0.03829c-0.26441,-0.02196 -0.39039,0.11775 -0.50715,0.35131c0.20414,0.11999 0.39906,0.14615 0.61318,0.18999c0.25388,-0.26066 0.57482,-0.37428 0.85168,-0.57963zM290.22927,218.99005c0.0248,0.07406 0.07694,0.07092 0.12906,0.06785c0.22776,0.00528 0.47109,-0.00924 0.70074,0.01483c0.33763,0.05535 0.49284,-0.14276 0.65987,-0.39823c-0.1254,-0.03029 -0.21596,-0.06263 -0.30471,-0.07621c-0.21413,-0.04385 -0.40712,-0.05122 -0.5816,0.12915c-0.11233,0.10114 -0.26509,0.148 -0.40039,0.1939c-0.07138,-0.01465 -0.16198,-0.04695 -0.20296,0.06876zM286.98607,219.95796c0.07878,0.0897 0.15391,0.1419 0.21161,0.1951c0.15758,0.17944 0.31961,0.22643 0.52443,0.17642c0.17007,-0.0479 0.36312,-0.04053 0.53504,-0.0697c0.05214,-0.00308 0.10613,0.01255 0.11051,-0.11992c-0.25259,-0.07937 -0.50895,-0.19624 -0.75158,-0.35171c-0.05587,-0.03444 -0.14272,-0.02925 -0.21224,-0.0251c-0.13529,0.04583 -0.25328,0.09065 -0.41774,0.1949zM286.6412,224.77515c0.16635,-0.08546 0.35195,-0.15319 0.49537,-0.29398c-0.20977,-0.17632 -0.38658,-0.37348 -0.62552,-0.49142c-0.16264,0.12303 -0.33085,0.1897 -0.4147,0.40245c0.17131,0.14086 0.32703,0.30156 0.54488,0.38293zM292.98769,224.07516c0.20977,0.1763 0.42946,0.2765 0.64542,0.33911c0.16264,-0.12301 0.30974,-0.22621 0.44944,-0.40453c-0.11915,-0.14398 -0.26747,-0.22954 -0.43131,-0.29528c-0.21477,0.12611 -0.43142,0.23348 -0.66358,0.36063zM285.67641,223.15205c-0.11052,0.11992 -0.19181,0.18139 -0.25202,0.27945c-0.04656,0.05945 -0.07575,0.11782 -0.10491,0.17624c0.10547,0.18253 0.24385,0.34426 0.42878,0.44652c0.16447,-0.10421 0.32896,-0.20848 0.43205,-0.4035c-0.17311,-0.15963 -0.31152,-0.32131 -0.50388,-0.49868zM288.42309,219.28674c-0.22902,-0.19405 -0.38288,-0.33591 -0.57339,-0.49452c-0.07137,-0.01465 -0.19114,0.01139 -0.28986,0.07396c-0.10054,0.04377 -0.22593,0.0135 -0.30169,0.13133c0.06887,0.16585 0.16693,0.27329 0.29786,0.35991c0.27622,-0.03538 0.53691,-0.05091 0.86707,-0.07063zM294.18679,221.52978c-0.07761,0.0991 -0.15524,0.19812 -0.23284,0.29714c-0.07761,0.0991 -0.13781,0.19711 -0.21542,0.29613c0.20414,0.11999 0.35622,0.24312 0.55109,0.26926c0.09868,-0.06253 0.12229,-0.17725 0.16517,-0.2742c0.04282,-0.09696 0.13781,-0.1971 0.10745,-0.32744c-0.13284,-0.10539 -0.23085,-0.21283 -0.37546,-0.26084zM285.80068,225.46745c0.15891,-0.16057 0.35822,-0.26688 0.47492,-0.50051c-0.15205,-0.12309 -0.30223,-0.22746 -0.45427,-0.35058c-0.15891,0.16057 -0.3042,0.28255 -0.36879,0.51303c0.09992,0.12623 0.16506,0.25454 0.34814,0.33803zM292.17044,220.23382c0.32396,0.09399 0.61132,0.17124 0.89863,0.24849c0.09686,-0.08132 0.19558,-0.14384 0.21731,-0.27734c-0.21162,-0.19511 -0.46419,-0.27444 -0.71866,-0.37255c-0.09686,0.08132 -0.19367,0.16262 -0.27128,0.26168c-0.06768,0.02291 -0.08132,0.06151 -0.12603,0.13969zM286.37367,222.07186c0.18002,-0.12408 0.3886,-0.1365 0.51275,-0.29502c-0.19423,-0.19611 -0.36922,-0.37453 -0.59267,-0.51228c-0.10865,0.1387 -0.28242,0.14904 -0.36814,0.34301c0.10546,0.18251 0.27307,0.28587 0.44804,0.46427zM294.17515,226.53477c-0.11728,-0.12519 -0.25009,-0.23054 -0.39658,-0.29734c-0.1974,0.12511 -0.39665,0.2314 -0.6288,0.35859c0.2023,0.1012 0.35249,0.20556 0.54114,0.3454c0.19741,-0.1251 0.37929,-0.23036 0.48422,-0.40661zM286.61301,220.07468c-0.21852,0.08857 -0.4041,0.15634 -0.52456,0.35235c0.10179,0.145 0.18425,0.27227 0.33074,0.33908c0.20111,-0.08753 0.40405,-0.15631 0.63808,-0.26472c-0.13839,-0.16171 -0.2749,-0.30462 -0.4443,-0.4267zM293.99304,224.69502c0.22154,0.11895 0.34631,0.31927 0.5412,0.34539c0.16264,-0.12301 0.25206,-0.27944 0.32221,-0.45361c-0.13653,-0.14291 -0.25565,-0.28691 -0.45238,-0.33182c-0.12601,0.1397 -0.25389,0.26067 -0.41096,0.43999zM286.16408,226.84318c0.10865,-0.13869 0.221,-0.23981 0.2738,-0.41294c-0.20414,-0.11999 -0.34627,-0.31927 -0.57965,-0.38086c-0.11052,0.11991 -0.16888,0.23671 -0.16953,0.40673c0.15389,0.14189 0.32329,0.26397 0.47537,0.38705zM292.39781,219.35159c0.12789,-0.12095 0.18806,-0.21893 0.22726,-0.35348c-0.15207,-0.12311 -0.33698,-0.2254 -0.54552,-0.21292c-0.09314,0.11888 -0.18621,0.23771 -0.29676,0.35764c0.20601,0.13879 0.41643,0.14509 0.61504,0.20877zM288.40669,229.54205c0.07574,-0.1178 0.13598,-0.21585 0.1422,-0.3295c-0.18489,-0.10226 -0.36617,-0.16696 -0.56106,-0.19311c-0.09499,0.10005 -0.15519,0.1981 -0.17695,0.3316c0.18682,0.12107 0.3972,0.12736 0.5958,0.19101zM285.12881,223.97792c-0.19738,0.12509 -0.19992,0.2763 -0.16582,0.44423c0.01298,0.13141 0.06077,0.26076 0.20538,0.30877c0.12789,-0.12095 0.2384,-0.24083 0.30858,-0.41498c-0.11728,-0.12519 -0.2327,-0.23159 -0.34812,-0.33802zM292.76276,228.33758c0.15082,-0.06565 0.28983,-0.07396 0.36372,-0.21055c-0.33261,-0.35781 -0.65353,-0.24428 -0.99987,-0.03472c0.21783,0.08142 0.41831,0.16389 0.63612,0.24529zM285.3557,222.20813c0.08621,0.16483 0.18428,0.27224 0.35184,0.37557c0.07385,-0.13663 0.24582,-0.16577 0.30045,-0.32009c-0.02851,-0.11164 -0.10175,-0.14501 -0.16131,-0.21699c-0.07693,-0.07092 -0.12099,-0.16271 -0.24266,-0.15547c-0.09686,0.08132 -0.1937,0.16266 -0.24834,0.31699zM290.55782,223.89922c-0.08383,0.21272 -0.03793,0.3233 0.12033,0.33272c0.22777,0.00531 0.45184,-0.02695 0.65852,-0.0582c0.0695,-0.00412 0.15456,-0.02814 0.17816,-0.14283c-0.32211,-0.07518 -0.64049,-0.11283 -0.95702,-0.13171zM286.23525,227.91532c-0.10056,0.04377 -0.14526,0.12197 -0.1515,0.23568c0.175,0.17842 0.33631,0.39541 0.59077,0.49351c0.08197,-0.23152 0.03052,-0.39844 -0.15628,-0.51945c-0.07695,-0.07092 -0.14026,-0.18049 -0.28298,-0.20973zM290.98061,226.40451c0.026,0.26281 0.06641,0.31708 0.22275,0.30774c0.24144,-0.03331 0.50028,-0.06763 0.7343,-0.17603c-0.3277,-0.13151 -0.63614,-0.24529 -0.95706,-0.13171zM289.50218,229.30664c-0.14087,-0.01048 -0.26257,-0.00317 -0.38602,-0.01472c-0.24517,-0.00429 -0.24516,-0.00423 -0.29864,0.33888c0.1254,0.03029 0.27,0.07831 0.34135,0.09289c0.1242,-0.15849 0.23466,-0.27839 0.34331,-0.41708zM295.24763,223.77038c-0.09803,-0.10747 -0.14954,-0.27433 -0.34071,-0.26293c-0.07576,0.11782 -0.13227,0.2534 -0.22354,0.39103c0.11728,0.12519 0.219,0.27022 0.36363,0.31821c0.07387,-0.13663 0.16703,-0.25548 0.2006,-0.44633zM288.01587,228.24335c-0.23523,-0.08033 -0.4723,-0.17954 -0.70752,-0.25989c-0.08314,0.04274 -0.14711,0.10318 -0.1012,0.21374c0.17311,0.15963 0.37732,0.27964 0.60881,0.32247c0.09686,-0.08132 0.15891,-0.16055 0.1999,-0.27634zM294.00865,227.14907c0.03039,0.13037 0.10919,0.22013 0.2209,0.28897c0.06581,-0.0417 0.1316,-0.0834 0.19739,-0.12511c0.08133,-0.06147 0.16449,-0.10426 0.18809,-0.21897c-0.01115,-0.11265 -0.05516,-0.20441 -0.14952,-0.27433c-0.14712,0.10324 -0.30975,0.22626 -0.45686,0.3294zM293.99021,223.42996c0.11728,0.12519 0.24639,0.19303 0.39097,0.24106c0.08942,-0.1564 0.18066,-0.29405 0.25454,-0.43063c-0.06703,-0.14708 -0.17872,-0.21595 -0.28486,-0.22851c-0.12601,0.1397 -0.25203,0.27943 -0.36073,0.41811zM293.54425,227.9321c0.09868,-0.06253 0.19738,-0.12508 0.29427,-0.2064c0.01551,-0.01979 0.01179,-0.05739 0.02547,-0.09598c-0.05955,-0.072 -0.10546,-0.18254 -0.25008,-0.23056c-0.13348,0.06466 -0.30351,0.11258 -0.42955,0.25229c0.10177,0.14497 0.21348,0.21381 0.35994,0.28063zM292.14817,229.01648c0.19302,0.00736 0.24824,0.2118 0.42201,0.20142c0.13155,-0.08338 0.28615,-0.11147 0.4103,-0.26999c-0.09992,-0.12623 -0.19797,-0.2337 -0.34878,-0.168c-0.15083,0.06567 -0.30908,0.05624 -0.48354,0.23659zM287.07293,228.96065c0.12907,0.06782 0.26004,0.15443 0.37172,0.2233c0.01923,0.01775 0.05215,-0.0031 0.08688,-0.0052c0.02546,-0.09595 0.1031,-0.19499 0.03418,-0.36084c-0.14832,-0.08552 -0.31401,-0.17012 -0.48159,-0.27339c-0.05651,0.13555 -0.06275,0.24926 -0.01129,0.41615zM294.83817,222.8128c0.09314,-0.11887 0.20364,-0.23877 0.28121,-0.33782c-0.06887,-0.16585 -0.16688,-0.27334 -0.26308,-0.36199c-0.11982,0.02605 -0.12415,0.15848 -0.16888,0.23671c-0.04469,0.07825 -0.10676,0.15745 -0.07638,0.28785c0.04219,0.07303 0.10177,0.145 0.22715,0.17531zM285.77502,220.61567c-0.11233,0.10114 -0.19184,0.18143 -0.27128,0.2617c-0.0329,0.02084 -0.04473,0.07823 -0.06024,0.09805c0.01298,0.13141 0.09181,0.22114 0.20353,0.28998c0.12975,-0.10217 0.26134,-0.18559 0.37001,-0.3242c-0.06331,-0.10951 -0.14209,-0.19927 -0.24199,-0.32547zM289.56973,229.81243c0.23338,0.06164 0.4667,0.12321 0.70444,0.05238c-0.06886,-0.16584 -0.10111,-0.31503 -0.24941,-0.40058c-0.28616,0.11148 -0.28614,0.11148 -0.45502,0.34819zM285.14396,222.54175c-0.29865,0.33888 -0.29674,0.35762 -0.08947,0.6852c0.11052,-0.11992 0.20175,-0.25754 0.3123,-0.37744c-0.03039,-0.13037 -0.10919,-0.22007 -0.22274,-0.30775zM294.4967,226.25128c0.12975,-0.10217 0.22473,-0.20229 0.2794,-0.35662c-0.02111,-0.03651 -0.06142,-0.09078 -0.10174,-0.14503c-0.03849,-0.03546 -0.09435,-0.06993 -0.13279,-0.10536c-0.12973,0.10218 -0.27871,0.18664 -0.35075,0.34201c0.06329,0.10951 0.17683,0.19719 0.30593,0.26498zM286.48032,219.4405c0.04035,0.05422 0.09993,0.12622 0.15391,0.14191c0.19677,0.04492 0.36677,-0.00303 0.54497,-0.14587c-0.08065,-0.10852 -0.13028,-0.25659 -0.24015,-0.30669c-0.16635,0.08546 -0.35566,0.11565 -0.45873,0.31065zM293.49813,219.87126c0.01551,-0.01979 0.03105,-0.03964 0.06207,-0.07923c-0.16321,-0.23576 -0.37295,-0.41209 -0.58268,-0.58838c-0.11606,0.06358 -0.16077,0.14177 -0.1633,0.29299c0.22154,0.11895 0.44494,0.25666 0.68391,0.37463zM291.56982,225.29287c-0.27184,-0.09707 -0.52813,-0.21392 -0.82172,-0.17753c-0.0174,0.00101 -0.04467,0.07821 -0.04098,0.11574c0.00932,0.09385 0.08625,0.16481 0.17313,0.15957c0.23149,0.04283 0.45372,-0.00821 0.68956,-0.09781zM295.04365,225.59538c0.09501,-0.10007 0.18999,-0.20019 0.2465,-0.33575c-0.013,-0.13142 -0.05705,-0.22321 -0.18797,-0.30981c-0.09127,0.13765 -0.19994,0.27632 -0.27382,0.41291c0.04589,0.11052 0.10548,0.18252 0.21533,0.23263zM285.14838,225.41198c0.00865,0.26386 0.0135,0.49018 0.15746,0.70819c0.15082,-0.06565 0.20737,-0.20121 0.24464,-0.35452c-0.11914,-0.14395 -0.21902,-0.27018 -0.40213,-0.35367zM287.94038,218.29581c0.12101,0.16275 0.14019,0.18048 0.19236,0.17738c0.17564,0.00842 0.32279,-0.0948 0.4525,-0.19698c0.04841,-0.04065 0.05647,-0.13558 -0.05336,-0.18568c-0.14526,0.12197 -0.37867,0.06035 -0.59154,0.20529zM293.45079,220.62945c0.22341,0.13777 0.43133,0.2953 0.72861,0.29639c-0.14766,-0.25554 -0.36924,-0.37454 -0.55602,-0.49553c-0.08504,0.02393 -0.11418,0.08234 -0.17255,0.19914zM285.37386,221.50833c-0.06143,-0.09076 -0.10548,-0.18256 -0.16691,-0.2733c-0.14715,0.10321 -0.25764,0.22313 -0.18505,0.42651c0.02294,0.0553 0.04591,0.11055 0.11728,0.12519c0.10053,-0.04376 0.1608,-0.1418 0.23467,-0.2784zM291.27888,227.65198c0.01675,0.16897 0.05889,0.24197 0.19606,0.21491c0.11984,-0.02603 0.23962,-0.0521 0.35755,-0.09691c0.05025,-0.02189 0.0987,-0.06255 0.07389,-0.13661c-0.21413,-0.04386 -0.40528,-0.03244 -0.6275,0.0186zM290.92037,220.49727c-0.23338,-0.06164 -0.46302,-0.08564 -0.68336,-0.01585c-0.0174,0.00104 -0.04467,0.07824 -0.04284,0.09697c0.00371,0.03752 0.05955,0.07199 0.09433,0.0699c0.22407,-0.03225 0.43635,-0.00717 0.63191,-0.15104zM290.2403,219.63147c0.16821,-0.06669 0.35941,-0.07811 0.53944,-0.20213c-0.23521,-0.08036 -0.43012,-0.10649 -0.5288,-0.04395c-0.10053,0.04376 -0.09315,0.11886 -0.01061,0.2461zM285.53717,227.22056c0.07445,0.22218 0.10047,0.48503 0.32203,0.60397c0.10557,-0.34622 -0.11598,-0.46516 -0.32203,-0.60397zM288.67407,226.76882c0.00372,0.03752 0.02297,0.05534 0.02668,0.09285c0.1719,-0.02916 0.33576,0.03659 0.48289,-0.06662c0.00625,-0.11367 -0.01672,-0.16896 -0.10919,-0.22008c-0.11606,0.06358 -0.24953,0.12821 -0.40039,0.1939zM291.08686,222.88568c-0.24887,-0.04178 -0.44377,-0.06791 -0.65046,-0.03669c-0.03476,0.00207 -0.06579,0.04167 -0.06022,0.09801c0.00187,0.0188 0.02295,0.05528 0.04221,0.07303c0.23338,0.06164 0.4419,0.04917 0.66848,-0.13432zM286.30337,219.77208c-0.04591,-0.11053 -0.0862,-0.1648 -0.13466,-0.12414c-0.11606,0.06358 -0.23029,0.14594 -0.34452,0.22831c-0.06394,0.06046 -0.05838,0.11677 0.01671,0.16895c0.18561,-0.06772 0.33644,-0.1334 0.46245,-0.2731zM295.31013,224.57863c0.05955,0.072 0.10177,0.14499 0.16132,0.217c0.01923,0.01775 0.05399,0.01566 0.108,0.03134c-0.02228,-0.22526 0.00939,-0.43487 -0.08427,-0.67482c-0.09127,0.13765 -0.15149,0.23568 -0.18505,0.42651zM288.41881,221.89301c-0.17192,0.02913 -0.32652,0.05728 -0.53319,0.08849c0.19239,0.17736 0.35434,0.22435 0.52626,0.19518c0.04285,-0.09698 0.05467,-0.15434 0.00692,-0.28369zM289.43667,227.7619c-0.11425,0.08237 -0.30907,0.05622 -0.39293,0.26897c0.42268,0.03141 0.50953,0.02622 0.53504,-0.06975c-0.00932,-0.09385 -0.04964,-0.14813 -0.1421,-0.19925zM290.94058,221.76133c-0.28296,-0.20974 -0.49149,-0.19724 -0.74478,-0.10661c0.23458,0.25038 0.46297,0.08562 0.74478,0.10661zM292.22709,228.57738c-0.26373,-0.19198 -0.45494,-0.18057 -0.65975,-0.13056c-0.01739,0.00104 -0.03102,0.03964 -0.02733,0.07717c0.00556,0.05632 0.04405,0.09178 0.0788,0.08971c0.17561,0.00842 0.34756,-0.02073 0.60825,-0.03632zM289.78657,228.64758c-0.15082,0.06565 -0.32278,0.09483 -0.4258,0.28978c0.17937,0.04594 0.33392,0.01781 0.47108,-0.00924c0.041,-0.11575 0.01617,-0.18979 -0.04528,-0.28055zM293.24369,228.78105c0.14341,-0.14077 0.33457,-0.15216 0.38552,-0.34405c-0.24887,-0.04178 -0.24888,-0.04178 -0.47174,0.17924c0.02111,0.03651 0.04219,0.07303 0.08622,0.16482zM286.39555,227.41483c0.07817,0.25971 0.24756,0.38181 0.43251,0.48407c0.09868,-0.06253 0.09129,-0.13766 0.03359,-0.19083c-0.14833,-0.08553 -0.29852,-0.18991 -0.46607,-0.29318zM294.75054,226.51939c0.02851,0.11164 0.05518,0.20444 0.16503,0.2545c0.07945,-0.08027 0.15894,-0.16056 0.16515,-0.2742c-0.02665,-0.09283 -0.06701,-0.14707 -0.14026,-0.18049c-0.08315,0.04276 -0.12973,0.10218 -0.18995,0.2002zM288.31022,224.50561c0.14459,0.04802 0.25263,0.07936 0.35318,0.03558c0.0329,-0.02084 0.04657,-0.05942 0.06024,-0.09803c-0.00556,-0.05632 -0.04775,-0.12937 -0.09801,-0.10747c-0.10431,0.00623 -0.22594,0.01349 -0.31537,0.16992zM295.39234,223.28959c0.03542,-0.17209 -0.06637,-0.31709 -0.11599,-0.46519c-0.20364,0.23878 -0.19989,0.27633 0.11599,0.46519zM290.15365,218.5791c0.26812,0.05953 0.26812,0.05953 0.35568,-0.11567c-0.108,-0.03134 -0.23339,-0.06161 -0.35568,0.11567zM288.89283,225.6227c0.04469,-0.07825 0.03912,-0.13452 0.00253,-0.15122c-0.14833,-0.08553 -0.1986,-0.06367 -0.33829,0.11464c0.12721,0.04907 0.23151,0.04284 0.33579,0.03661zM292.16605,229.37412c-0.0962,-0.08865 -0.19054,-0.15856 -0.30845,-0.11379c0.08189,0.29726 0.11845,0.31395 0.30845,0.11379zM290.72287,218.14859c-0.13284,-0.10539 -0.27369,-0.11588 -0.39718,-0.12736c-0.06949,0.00412 -0.11608,0.0636 -0.03542,0.17209c0.1235,0.01149 0.26443,0.022 0.43262,-0.04469zM294.13266,228.04815c-0.1775,-0.02717 -0.25885,0.03433 -0.27874,0.18661c0,0 0.02111,0.03651 0.03849,0.03547c0.10614,0.01253 0.1645,-0.10421 0.24028,-0.22207zM288.32476,223.23945c0.04591,0.11053 0.11915,0.14397 0.18677,0.12104c0.03476,-0.00207 0.06581,-0.04171 0.07947,-0.08029c0.01364,-0.0386 -0.02666,-0.09279 -0.06144,-0.09072c-0.054,-0.01568 -0.1235,-0.01153 -0.20484,0.04998zM295.30926,225.80623c-0.11423,0.08236 -0.15895,0.16057 -0.07452,0.3066c0.12973,-0.10218 0.15707,-0.17933 0.07452,-0.3066z" fill="#000000"/><path d="M282.18513,223.37941c0.04206,0.60178 0.08414,1.20363 0.14362,1.80438c0.06689,0.67586 0.20329,1.34755 0.42475,1.99528c0.07258,0.20339 0.17615,0.36717 0.26797,0.58827c-0.2781,0.0166 -0.51947,0.04993 -0.76464,0.04566c-1.46726,0.01207 -2.94262,0.11901 -4.42354,0.16967c-1.32452,0.04129 -2.62978,0.10037 -3.95246,0.16046c-0.90555,0.0352 -1.79378,0.0693 -2.69932,0.10447c-0.85345,0.03206 -1.68577,0.10065 -2.53918,0.13275c-0.06953,0.00413 -0.13905,0.00831 -0.2104,-0.00632c-0.21719,-0.2514 -0.33193,-0.52785 -0.43306,-0.84282c-0.15443,-0.50068 -0.27597,-1.02218 -0.31062,-1.54886c-0.01675,-0.16897 -0.05084,-0.33689 0.02123,-0.49227c0.05149,0.1669 0.01795,0.35772 0.12526,0.55906c0.26506,-0.14798 0.56604,-0.10934 0.84229,-0.1447c0.01739,-0.00104 0.03474,-0.00207 0.0329,-0.02082c0.45437,-0.17819 0.95836,-0.20825 1.43571,-0.3312c0.17005,-0.04791 0.33457,-0.15218 0.51205,-0.12503c0.35129,0.01683 0.66477,-0.17189 1.0161,-0.1551c0.01739,-0.00104 0.05026,-0.0219 0.08505,-0.02393c0.32459,-0.07606 0.63001,-0.16978 0.95834,-0.20827c0.38234,-0.02283 0.71509,-0.19378 1.10113,-0.17906c0.21477,-0.12611 0.4444,-0.10204 0.68586,-0.13534c0.03476,-0.00207 0.05217,-0.00312 0.0869,-0.00518c0.33273,-0.17094 0.70511,-0.11766 1.04527,-0.2135c0.34015,-0.09584 0.70882,-0.08008 1.05083,-0.15717c0.39416,-0.08017 0.76529,-0.21568 1.188,-0.18422c0.03476,-0.00207 0.08693,-0.00518 0.1198,-0.02604c0.18002,-0.12408 0.39414,-0.08016 0.60084,-0.11138c0.10431,-0.00623 0.22777,0.00528 0.32835,-0.0385c0.14898,-0.08441 0.28985,-0.07396 0.44628,-0.08329c0.0869,-0.00518 0.17566,0.00842 0.24144,-0.0333c0.21477,-0.12611 0.46179,-0.10313 0.6877,-0.1166c0.0869,-0.00518 0.17563,0.00838 0.24144,-0.0333c0.18188,-0.10525 0.37489,-0.09795 0.56608,-0.10933c0.31286,-0.01869 0.61264,-0.16875 0.9273,-0.16867c0.05399,0.01565 0.10055,-0.04373 0.15082,-0.06569z" fill="#87d7dc"/><path d="M282.1851,223.37943c-0.05027,0.02188 -0.09685,0.08135 -0.14898,0.08445c-0.31468,-0.00009 -0.61635,0.13122 -0.92731,0.16868c-0.19115,0.0114 -0.38422,0.00405 -0.56608,0.10931c-0.06581,0.0417 -0.15455,0.02814 -0.2414,0.03334c-0.22593,0.01352 -0.47111,0.00922 -0.68777,0.11656c-0.0658,0.04171 -0.15643,0.00935 -0.24145,0.03332c-0.1564,0.00935 -0.29547,0.01764 -0.44629,0.08329c-0.10053,0.04376 -0.22411,0.03226 -0.32837,0.03849c-0.20668,0.03124 -0.42083,-0.01263 -0.60082,0.11142c-0.0329,0.02084 -0.08504,0.02395 -0.11979,0.02604c-0.4053,-0.03245 -0.79389,0.10406 -1.18801,0.18424c-0.35942,0.0781 -0.72805,0.06234 -1.05084,0.15712c-0.34013,0.09585 -0.71254,0.04256 -1.04525,0.21351c-0.01551,0.01978 -0.05214,0.00311 -0.08691,0.00518c-0.22593,0.01352 -0.47108,0.00926 -0.68589,0.13538c-0.38792,-0.03352 -0.72064,0.13747 -1.10111,0.17904c-0.3302,0.0197 -0.63373,0.13226 -0.95835,0.20825c-0.03476,0.00207 -0.05028,0.02194 -0.08504,0.02398c-0.35129,-0.01683 -0.66476,0.17188 -1.0161,0.15509c-0.19302,-0.00736 -0.34015,0.09584 -0.51207,0.12502c-0.47917,0.10415 -0.98132,0.15302 -1.43569,0.33119c-0.01739,0.00104 -0.03289,0.02087 -0.03289,0.02087c-0.27623,0.0354 -0.57725,-0.00332 -0.8423,0.14472c-0.10548,-0.18255 -0.05452,-0.37443 -0.12524,-0.55905c-0.01488,-0.15017 -0.02969,-0.30038 0.06159,-0.43803c0.10431,-0.00623 0.22776,0.00529 0.32831,-0.0385c0.35192,-0.1532 0.71879,-0.15619 1.08004,-0.21554c0.36122,-0.05935 0.71316,-0.21255 1.10107,-0.17906c0.21477,-0.12611 0.44442,-0.10209 0.68588,-0.13539c0.03476,-0.00207 0.08688,-0.00519 0.1198,-0.02605c0.14714,-0.10321 0.32461,-0.07603 0.4792,-0.10413c0.0869,-0.00518 0.17379,-0.01041 0.24144,-0.03331c0.37306,-0.11669 0.7653,-0.2157 1.16504,-0.23955c0.05214,-0.00308 0.12353,0.01155 0.15455,-0.02811c0.16447,-0.10423 0.34012,-0.09586 0.51392,-0.10625c0.19302,0.00736 0.35383,-0.13446 0.56421,-0.12811c0.27992,0.00218 0.53133,-0.10726 0.80566,-0.16141c0.37863,-0.06038 0.73242,-0.1948 1.13214,-0.21864c0.06953,-0.00413 0.15827,0.00944 0.2067,-0.03124c0.13162,-0.08336 0.28984,-0.07399 0.44439,-0.10208c0.13903,-0.00829 0.2762,-0.03536 0.39418,-0.08015c0.21852,-0.08857 0.4407,-0.13963 0.68401,-0.15419c0.36309,-0.04056 0.71506,-0.19379 1.10296,-0.16031c0.03476,-0.00207 0.08504,-0.02392 0.11982,-0.02604c0.35942,-0.0781 0.71689,-0.17502 1.08001,-0.21553c0.38234,-0.02283 0.74982,-0.19585 1.13587,-0.18112c0.05214,-0.00308 0.10054,-0.0438 0.15083,-0.06567c0.2222,-0.05104 0.46366,-0.08434 0.69515,-0.0415c0.02666,0.09284 0.03412,0.1679 0.0589,0.24198c-0.02613,0.26596 -0.03857,0.49331 -0.03179,0.73841z" fill="#b0eef2"/><path d="M291.66198,229.93306c-0.32458,0.07602 -0.58347,0.11034 -0.85158,0.05082c-0.15389,-0.14191 -0.22649,-0.34528 -0.31642,-0.54761c-0.39763,-1.01489 -0.7779,-2.03085 -1.02285,-3.09265c-0.18417,-0.80107 -0.37023,-1.62089 -0.46936,-2.44586c-0.02228,-0.22527 -0.02907,-0.47039 -0.1035,-0.69259c-0.02666,-0.09284 -0.0378,-0.20549 -0.04897,-0.3181c0.02492,-0.45474 -0.05442,-0.90321 -0.08166,-1.35484c-0.04582,-0.63937 -0.02209,-1.28285 0.03639,-1.9284c0.03794,-0.32329 0.05847,-0.64559 0.07715,-0.98661c0.00878,-0.26488 0.09072,-0.49641 0.15533,-0.72689c0.29983,-0.15008 0.4196,-0.17612 0.84042,-0.16348c0.02351,0.41402 -0.04174,0.81453 -0.05302,1.23065c-0.01313,0.39735 -0.02438,0.81348 -0.02013,1.20981c0.0061,0.41509 0.0315,0.84794 0.05496,1.26198c0.00425,0.39631 0.11469,0.80517 0.0668,1.20467c0.12777,0.40786 0.11649,0.82396 0.17477,1.23595c0.05639,0.3932 0.13204,0.80415 0.20583,1.19634c0.07565,0.41094 0.16865,0.82084 0.26351,1.24955c0.09116,0.39113 0.16677,0.80207 0.27535,1.19219c0.11041,0.40886 0.25368,0.79688 0.38145,1.20473c0.12966,0.4266 0.23816,0.81669 0.43546,1.22039z" fill="#d1eaeb"/><path d="M282.20137,222.66082c-0.0248,-0.07405 -0.03224,-0.14918 -0.05892,-0.24196c-0.23152,-0.04282 -0.4574,-0.02935 -0.69515,0.04149c-0.05027,0.02187 -0.09872,0.06256 -0.15085,0.06567c-0.38603,-0.01474 -0.7554,0.13953 -1.13585,0.18113c-0.36496,0.02179 -0.72063,0.13744 -1.08003,0.21553c-0.03476,0.00207 -0.08506,0.02394 -0.11979,0.02603c-0.3879,-0.03351 -0.72062,0.13743 -1.10295,0.16027c-0.22593,0.01352 -0.46552,0.06558 -0.68401,0.15419c-0.13527,0.04584 -0.27248,0.07294 -0.39416,0.08018c-0.1564,0.00935 -0.29728,-0.00114 -0.44441,0.10207c-0.04841,0.04062 -0.13719,0.02705 -0.20671,0.03119c-0.38234,0.02283 -0.7535,0.15833 -1.13212,0.21867c-0.27436,0.05412 -0.52575,0.1636 -0.80568,0.16141c-0.19302,-0.00736 -0.3538,0.13443 -0.5642,0.12811c-0.17564,-0.00839 -0.36867,-0.01577 -0.51394,0.1062c-0.05027,0.02187 -0.1024,0.025 -0.15453,0.02813c-0.3997,0.02387 -0.77459,0.12174 -1.16503,0.23953c-0.08504,0.02393 -0.17378,0.01039 -0.24142,0.03328c-0.1564,0.00935 -0.33206,0.00099 -0.47917,0.10417c-0.0329,0.02084 -0.08503,0.02396 -0.11978,0.02603c-0.22593,0.01352 -0.47109,0.00924 -0.68588,0.13538c-0.38791,-0.03349 -0.73986,0.11971 -1.10107,0.17906c-0.36122,0.05935 -0.74541,0.0634 -1.07998,0.21554c-0.10056,0.04377 -0.22407,0.03224 -0.32834,0.03851c-0.03411,-0.16795 0.05901,-0.2868 0.06336,-0.41926c0.7206,-0.13746 1.40466,-0.2916 2.09051,-0.42696c0.75353,-0.15829 1.49153,-0.29679 2.24689,-0.43633c0.70327,-0.13641 1.40465,-0.29161 2.10604,-0.44678c0.87333,-0.18433 1.7274,-0.38643 2.58333,-0.56972c0.65112,-0.13331 1.30225,-0.26655 1.95149,-0.41866c1.01049,-0.21143 2.04582,-0.34877 3.05258,-0.59775c0.13716,-0.02707 0.27062,-0.09171 0.43261,-0.04471c0.01675,0.16897 -0.01869,0.34101 -0.03673,0.51209c-0.02546,0.09595 0.02603,0.26282 -0.046,0.41825z" fill="#87d7dc"/><path d="M267.3121,225.89154c0.07378,0.39216 0.0762,0.76974 0.16736,1.16084c0.1141,0.44644 0.24561,0.89179 0.48134,1.33094c-1.00799,0.06019 -1.99859,0.11933 -2.97181,0.17745c-0.21161,-0.19509 -0.30527,-0.43501 -0.41446,-0.65511c-0.19916,-0.42245 -0.27663,-0.85218 -0.356,-1.30067c-0.00187,-0.0188 0.01181,-0.05733 0.02731,-0.07717c0.12099,0.16274 0.25444,0.09812 0.38977,0.05225c0.3383,-0.11464 0.67844,-0.21049 1.02787,-0.21245c0.06953,-0.00413 0.13903,-0.0083 0.20666,-0.03123c0.31906,-0.13236 0.66848,-0.13434 0.99313,-0.21039c0.18746,-0.04891 0.32271,-0.09484 0.44877,-0.23453z" fill="#61afb4"/><path d="M284.4849,222.24121c-0.03924,0.66329 0.04317,1.31931 0.0561,1.97951c0.01234,0.3014 0.07686,0.59972 0.14133,0.89803c0.09049,0.56114 0.11334,1.14518 0.27339,1.70216c0.05705,0.22321 0.11408,0.44643 0.18666,0.64982c0.04776,0.12936 0.07816,0.25968 0.09116,0.39114c-0.05025,0.02189 -0.08317,0.04273 -0.11795,0.04479c-0.13902,0.00828 -0.27806,0.01662 -0.41709,0.02493c-0.06144,-0.09074 -0.10359,-0.16379 -0.14767,-0.25556c-0.27542,-0.66337 -0.55275,-1.34557 -0.62521,-2.07778c-0.08057,-0.63727 -0.16296,-1.29327 -0.17401,-1.93473c-0.01544,-0.50899 -0.04821,-1.01691 0.07726,-1.5154c0.04407,0.09177 0.00305,0.20754 0.11476,0.27639c0.19487,0.02613 0.42639,0.06895 0.54125,-0.18341z" fill="#61aeb3"/><path d="M283.36511,222.76128c0.06635,0.31708 -0.0082,0.62367 0.00602,0.94386c0.04953,0.67692 0.09901,1.35378 0.20069,2.02755c0.08862,0.54235 0.24496,1.06182 0.43415,1.56039c0.04776,0.12936 0.09553,0.25866 0.1433,0.38801c-0.24331,0.01453 -0.45187,0.02703 -0.6778,0.04047c-0.23084,-0.21284 -0.3456,-0.48927 -0.4275,-0.78653c-0.10484,-0.35254 -0.2115,-0.72385 -0.26603,-1.09829c-0.1531,-0.84065 -0.20012,-1.66881 -0.26637,-2.51466c-0.01487,-0.15017 -0.02974,-0.30038 0.04415,-0.43699c0.0869,-0.00518 0.17565,0.00836 0.24142,-0.03331c0.16636,-0.08547 0.37678,-0.07917 0.56793,-0.09059z" fill="#61aeb3"/><path d="M267.3121,225.89154c-0.11052,0.11992 -0.24395,0.18451 -0.41589,0.21367c-0.32461,0.07602 -0.6741,0.07799 -0.99311,0.21037c-0.06768,0.02292 -0.13719,0.02711 -0.20672,0.03124c-0.36496,0.0218 -0.6877,0.1166 -1.02785,0.21243c-0.11797,0.04481 -0.26878,0.1105 -0.38977,-0.05224c-0.04524,-0.28058 -0.03652,-0.54548 0.02622,-0.79472c0.23775,-0.07087 0.47363,-0.16046 0.72064,-0.13746c0.03476,-0.00207 0.08506,-0.02395 0.1198,-0.02605c0.34199,-0.07707 0.70139,-0.1552 1.04525,-0.2135c0.15455,-0.02811 0.2936,-0.03638 0.4463,-0.08328c0.1856,-0.0677 0.3923,-0.09897 0.59275,-0.0165c0.02665,0.09283 0.03409,0.16792 0.05889,0.24197c0.01298,0.13141 0.01049,0.28268 0.02351,0.41404z" fill="#87d7dc"/><path d="M292.97938,222.22504c-0.22101,0.23985 -0.48973,0.35028 -0.76042,0.442c-0.06766,0.02292 -0.17196,0.02916 -0.24333,0.01454c-0.51884,-0.12009 -1.03028,-0.16511 -1.53983,-0.19134c-0.01739,0.00104 -0.05398,-0.01566 -0.07325,-0.0334c-0.05955,-0.072 -0.06889,-0.16585 -0.02603,-0.26281c0.03476,-0.00207 0.06768,-0.02295 0.10242,-0.025c0.41893,-0.00609 0.83236,-0.06857 1.21906,-0.22386c0.20299,-0.06877 0.39416,-0.08017 0.61199,0.00124c0.23705,0.09917 0.46858,0.14198 0.70939,0.27869z" fill="#cce5e6"/><path d="M290.2437,221.25532c-0.06331,-0.10951 -0.05334,-0.18564 -0.00678,-0.24509c0.83049,-0.08733 0.83047,-0.08738 1.53064,-0.43131c0.29919,0.0199 0.60761,0.13367 0.89494,0.21097c0.04776,0.12936 -0.05464,0.1543 -0.10307,0.19499c-0.17815,0.14282 -0.33895,0.28462 -0.53822,0.39093c-0.13349,0.06465 -0.25328,0.09065 -0.39598,0.06141c-0.44565,-0.08671 -0.90675,-0.15359 -1.38155,-0.18193z" fill="#cce5e6"/><path d="M267.28674,225.45875c-0.0248,-0.07406 -0.03226,-0.14918 -0.05891,-0.24197c-0.20047,-0.08246 -0.40713,-0.05122 -0.59276,0.01652c-0.15272,0.0469 -0.29172,0.0552 -0.4463,0.08328c-0.34388,0.0583 -0.70325,0.13641 -1.04526,0.21348c-0.03476,0.00207 -0.08506,0.02397 -0.11981,0.02604c-0.26254,-0.00321 -0.48103,0.08535 -0.72061,0.13742c0.01987,-0.15225 0.04165,-0.28578 0.13106,-0.44218c0.48103,-0.08537 0.97577,-0.20935 1.47602,-0.27699c0.48103,-0.08537 0.95465,-0.24582 1.47602,-0.27697c0.01234,0.3014 -0.03486,0.53083 -0.09943,0.76131z" fill="#60adb2"/><path d="M288.98028,225.9763c0.02481,0.07405 0.04775,0.12936 0.07256,0.20341c-0.03102,0.03965 -0.04655,0.05941 -0.06206,0.07921c-0.288,0.09276 -0.55307,0.24078 -0.81624,0.40752c-0.11608,0.06358 -0.2185,0.0886 -0.34571,0.03953c-0.2526,-0.07935 -0.51886,-0.12008 -0.75158,-0.35169c0.20364,-0.23876 0.46868,-0.38678 0.73561,-0.51601c0.05025,-0.02189 0.13903,-0.00827 0.21039,0.00632c0.31837,0.0376 0.63685,0.07527 0.9571,0.1317z" fill="#cce5e6"/><path d="M293.40315,225.9766c-0.16632,0.08547 -0.26507,0.14802 -0.38115,0.2116c-0.21667,0.10736 -0.42332,0.13856 -0.67777,0.04047c-0.43379,-0.14407 -0.87946,-0.23073 -1.31392,-0.20481c-0.13902,0.00828 -0.15825,-0.00944 -0.16321,-0.23576c0.05214,-0.0031 0.10243,-0.02503 0.15458,-0.02811c0.43634,-0.00716 0.84782,-0.08839 1.25378,-0.22593c0.10242,-0.02497 0.18746,-0.04895 0.27809,-0.01665c0.27556,0.13461 0.54739,0.23173 0.84959,0.4592z" fill="#cae2e3"/><path d="M290.44557,223.47162c0.01551,-0.01979 0.04845,-0.0407 0.06581,-0.0417c0.40339,0.01369 0.77832,-0.08423 1.13403,-0.19989c0.34013,-0.09585 0.67035,-0.11557 1.01909,0.05246c0.16571,0.08453 0.35872,0.09187 0.51076,0.21504c-0.33522,0.32217 -0.74489,0.42215 -1.14024,0.31356c-0.48411,-0.12219 -0.95267,-0.26415 -1.45483,-0.21528c-0.05399,-0.01565 -0.12352,-0.01153 -0.13469,-0.12416z" fill="#c9e1e2"/><path d="M293.2557,224.66355c-0.25948,0.20434 -0.49533,0.29396 -0.74859,0.3846c-0.08504,0.02393 -0.17194,0.02912 -0.24518,-0.00427c-0.50335,-0.13991 -1.02031,-0.24123 -1.53358,-0.30502c-0.03476,0.00207 -0.08875,-0.01357 -0.08067,-0.10849c0.12164,-0.00726 0.26066,-0.01557 0.38049,-0.04158c0.34571,-0.03951 0.68957,-0.09783 1.00861,-0.2302c0.23588,-0.08966 0.46367,-0.08432 0.68521,0.03464c0.16571,0.08453 0.31404,0.17007 0.53374,0.27029z" fill="#c9e1e2"/><path d="M289.2711,227.14866c0.09803,0.10749 0.10735,0.20135 0.11663,0.2952c-0.01551,0.01979 -0.04844,0.04068 -0.06395,0.06045c-0.27434,0.05414 -0.5239,0.18239 -0.73307,0.36483c-0.12975,0.10217 -0.26693,0.12921 -0.42892,0.08223c-0.19858,-0.06366 -0.41273,-0.10752 -0.59769,-0.20978c0.13596,-0.21583 0.38989,-0.47654 0.52522,-0.52237c0.08315,-0.04276 0.15639,-0.00937 0.24516,0.00426c0.29357,-0.0364 0.61385,0.01998 0.93659,-0.07479z" fill="#cae3e4"/><path d="M287.48863,220.79663c0.29663,0.17112 0.58772,0.28598 0.89432,0.38097c0.04589,0.11052 0.05335,0.18567 0.0105,0.28266c-0.3035,0.11255 -0.67218,0.09676 -0.97386,0.22809c-0.20045,-0.08248 -0.3196,-0.22642 -0.47166,-0.34951c-0.07693,-0.07092 -0.16939,-0.12203 -0.1998,-0.25242c0.21107,-0.16368 0.49099,-0.16149 0.74052,-0.28972z" fill="#c8e0e1"/><path d="M288.60272,223.75165c-0.00066,0.17 -0.06828,0.19291 -0.13595,0.21583c-0.25329,0.09069 -0.48913,0.18028 -0.74423,0.25218c-0.06768,0.02293 -0.13717,0.02708 -0.21043,-0.00629c-0.20414,-0.11999 -0.41018,-0.2588 -0.60072,-0.41735c0.09499,-0.10007 0.19741,-0.1251 0.29612,-0.18764c0.2961,-0.18762 0.58967,-0.22406 0.89191,0.00338c0.15019,0.10437 0.32769,0.13152 0.50334,0.13988z" fill="#cbe4e5"/><path d="M288.48564,222.56887c0.00932,0.09385 0.01487,0.15017 0.02046,0.20652c-0.0329,0.02084 -0.04658,0.0594 -0.06394,0.06046c-0.18746,0.04891 -0.37677,0.07917 -0.56422,0.12812c-0.10242,0.02497 -0.19119,0.0114 -0.28365,-0.03974c-0.2774,-0.15338 -0.5393,-0.32662 -0.80678,-0.55613c0.1434,-0.14076 0.29795,-0.16887 0.45251,-0.19699c0.0695,-0.00412 0.13903,-0.00826 0.19486,0.02611c0.30223,0.22745 0.66095,0.31936 1.05071,0.37163z" fill="#c8e0e1"/><path d="M283.36514,222.76127c-0.19115,0.0114 -0.40161,0.00507 -0.58348,0.1104c-0.0658,0.04171 -0.15454,0.02809 -0.24142,0.03329c-0.04897,-0.31809 -0.02654,-0.62158 0.06725,-0.91046c0.24702,0.02303 0.48288,-0.06659 0.68769,-0.11659c0.09992,0.12623 0.06076,0.26076 0.10667,0.37129c0.03411,0.16795 0.0353,0.3567 -0.03671,0.51208z" fill="#85d5d9"/><path d="M292.69279,227.45425c-0.26999,-0.07831 -0.53996,-0.15658 -0.82545,-0.2151c-0.24888,-0.04181 -0.51207,0.12498 -0.80061,-0.14108c0.59087,-0.03528 1.09926,-0.19783 1.60762,-0.36035c0.20045,0.08248 0.42017,0.18263 0.59515,0.36105c-0.03102,0.03965 -0.04658,0.05943 -0.06207,0.07924c-0.16449,0.10424 -0.33086,0.18973 -0.51457,0.27623z" fill="#c6dede"/><path d="M293.37047,221.93728c-0.30849,-0.11379 -0.58026,-0.21084 -0.88874,-0.32462c0.08942,-0.1564 0.22286,-0.22106 0.31783,-0.32112c0.11233,-0.10114 0.20367,-0.23878 0.35447,-0.30442c0.12164,-0.00726 0.23335,0.06161 0.3432,0.11167c0.10984,0.05006 0.22154,0.11899 0.33513,0.20661c-0.07826,0.26906 -0.27198,0.43168 -0.46195,0.6319z" fill="#cae3e3"/><path d="M290.09001,220.05588c0.50836,-0.16257 0.92983,-0.31993 1.32274,-0.58888c0.23338,0.06164 0.46485,0.10443 0.71559,0.16501c-0.11487,0.25238 -0.31411,0.35871 -0.49226,0.5015c-0.0329,0.02084 -0.08508,0.02395 -0.1198,0.026c-0.44004,-0.03039 -0.88011,-0.06074 -1.42626,-0.10366z" fill="#cae3e4"/><path d="M287.03406,225.03502c0.25947,-0.20433 0.50529,-0.37012 0.86957,-0.22188c0.25446,0.09811 0.51701,0.10134 0.77955,0.10455c0.10429,-0.00621 0.13094,0.08658 0.10735,0.20133c-0.28175,-0.02092 -0.53319,0.08849 -0.78458,0.19793c-0.18373,0.08651 -0.34384,0.05833 -0.50957,-0.02621c-0.14646,-0.0668 -0.3066,-0.09502 -0.46235,-0.2557z" fill="#c8e0e1"/><path d="M284.48492,222.24121c-0.13225,0.2534 -0.34635,0.2095 -0.55676,0.20318c-0.11167,-0.06885 -0.08811,-0.18357 -0.11479,-0.27636c-0.00677,-0.24509 0.04047,-0.47452 0.12243,-0.70607c0.19302,0.00736 0.37675,-0.07914 0.55983,0.00434c0.02666,0.09284 0.03224,0.14917 0.03968,0.22425c-0.01616,0.18981 -0.03231,0.37962 -0.05039,0.55067z" fill="#85d4d9"/><path d="M287.23246,223.15365c-0.24953,0.1282 -0.46803,0.21679 -0.68466,0.32417c-0.20788,-0.15756 -0.40027,-0.3349 -0.55972,-0.53315c0.02177,-0.13352 0.12229,-0.17726 0.18623,-0.23772c0.06393,-0.06047 0.12789,-0.12092 0.25139,-0.10941c0.22341,0.13777 0.48713,0.32971 0.80677,0.55613z" fill="#c7dfe0"/><path d="M286.67257,226.15189c-0.18682,-0.12107 -0.37172,-0.22332 -0.54675,-0.4017c0.13411,-0.23464 0.33336,-0.34094 0.54628,-0.48583c0.22154,0.11896 0.44311,0.2379 0.68206,0.35586c-0.22472,0.20225 -0.4377,0.34718 -0.68162,0.53169z" fill="#c8e0e1"/><path d="M294.01581,222.80524c-0.1242,0.15849 -0.24836,0.31696 -0.43023,0.42225c-0.25446,-0.09811 -0.51077,-0.21499 -0.78445,-0.33085c-0.00371,-0.03752 -0.00744,-0.07507 0.00996,-0.07611c0.14526,-0.12197 0.30789,-0.24499 0.455,-0.3482c0.06581,-0.0417 0.13347,-0.06466 0.18929,-0.03021c0.2197,0.1002 0.43383,0.14405 0.56043,0.36311z" fill="#c4dcdd"/><path d="M293.76133,225.70977c-0.24077,-0.1367 -0.47972,-0.25462 -0.72054,-0.39134c0.03728,-0.15327 0.17629,-0.16158 0.27501,-0.22414c0.09868,-0.06253 0.21665,-0.10737 0.3327,-0.17095c0.21783,0.08142 0.37539,0.2609 0.56411,0.4007c-0.10119,0.21374 -0.26758,0.29922 -0.45131,0.38571z" fill="#c8e0e1"/><path d="M286.81146,226.67226c0.25631,0.11692 0.49342,0.21607 0.76708,0.33192c-0.12042,0.19603 -0.30234,0.3013 -0.42464,0.4786c-0.25073,-0.0606 -0.42574,-0.23897 -0.64913,-0.37672c0.08569,-0.19395 0.15771,-0.34933 0.30669,-0.43374z" fill="#c6ddde"/><path d="M289.66438,228.29601c-0.27688,0.20538 -0.59775,0.31898 -0.83429,0.57858c-0.21413,-0.04386 -0.40904,-0.07001 -0.61319,-0.19c0.09936,-0.23252 0.24277,-0.37333 0.50714,-0.35134c0.31837,0.03763 0.6275,-0.0186 0.94034,-0.03727z" fill="#b9cfd0"/><path d="M290.22927,218.99005c0.041,-0.11575 0.13347,-0.06467 0.2011,-0.08756c0.15269,-0.04689 0.30722,-0.07502 0.40039,-0.19389c0.17631,-0.16159 0.3693,-0.15426 0.5816,-0.12914c0.08877,0.01362 0.17939,0.04592 0.30475,0.07623c-0.16699,0.25551 -0.32225,0.45361 -0.65985,0.39822c-0.23151,-0.04282 -0.47296,-0.00955 -0.70074,-0.01484c-0.05214,0.00308 -0.10428,0.00622 -0.12723,-0.04906z" fill="#c0d8d8"/><path d="M286.98608,219.95801c0.14714,-0.10321 0.28241,-0.14904 0.42145,-0.15736c0.0695,-0.00412 0.15644,-0.00938 0.21227,0.02508c0.24265,0.1555 0.4971,0.25357 0.75157,0.3517c0.01298,0.13141 -0.05838,0.11677 -0.11053,0.11992c-0.17381,0.01037 -0.36496,0.02181 -0.53503,0.06973c-0.22221,0.05103 -0.38419,0.00404 -0.52445,-0.17643c-0.06143,-0.09076 -0.11915,-0.14397 -0.21529,-0.23263z" fill="#c1d9d9"/><path d="M286.6412,224.77515c-0.2023,-0.1012 -0.35621,-0.24315 -0.54486,-0.38294c0.08382,-0.21272 0.26942,-0.28044 0.4147,-0.40245c0.23894,0.11792 0.41579,0.31507 0.62554,0.49142c-0.1608,0.14178 -0.32903,0.20848 -0.49538,0.29398z" fill="#c3dbdc"/><path d="M292.98767,224.07518c0.23217,-0.1272 0.44884,-0.23453 0.66361,-0.36065c0.16387,0.06572 0.31029,0.13256 0.43132,0.29528c-0.12232,0.17727 -0.28683,0.28149 -0.44945,0.40455c-0.23338,-0.06164 -0.43565,-0.16282 -0.64541,-0.33914z" fill="#c3dadb"/><path d="M285.67641,223.15205c0.175,0.17842 0.33073,0.33906 0.48648,0.49971c-0.10307,0.19501 -0.26757,0.29924 -0.43205,0.40347c-0.16942,-0.12205 -0.30595,-0.26498 -0.42874,-0.44648c0.02919,-0.05839 0.07391,-0.13659 0.10492,-0.17621c0.09498,-0.1001 0.17629,-0.1616 0.26946,-0.28048z" fill="#c4dbdc"/><path d="M288.42308,219.28677c-0.33024,0.0197 -0.59093,0.03527 -0.86897,0.05192c-0.13096,-0.0866 -0.22899,-0.19409 -0.29782,-0.3599c0.07576,-0.11779 0.20112,-0.08754 0.30171,-0.13131c0.10054,-0.04377 0.20296,-0.06876 0.28986,-0.07398c0.19242,0.17738 0.34631,0.31926 0.57527,0.5133z" fill="#c2d9da"/><path d="M294.18676,221.52978c0.14646,0.0668 0.26004,0.15439 0.34069,0.26291c0.03224,0.14915 -0.06465,0.23049 -0.10745,0.32744c-0.0428,0.09696 -0.04906,0.21064 -0.16514,0.27423c-0.1775,-0.02715 -0.3469,-0.14926 -0.55113,-0.26925c0.07761,-0.0991 0.15521,-0.19814 0.21544,-0.29613c0.09499,-0.10007 0.18995,-0.20021 0.26756,-0.29927z" fill="#c5ddde"/><path d="M285.80068,225.46745c-0.18311,-0.08351 -0.25011,-0.23057 -0.36553,-0.33698c0.06648,-0.2117 0.20987,-0.35246 0.36878,-0.51305c0.15206,0.1231 0.30409,0.24624 0.45429,0.35061c-0.09938,0.23253 -0.29862,0.33888 -0.45752,0.49943z" fill="#c3dbdc"/><path d="M292.17044,220.23382c0.04469,-0.07825 0.07571,-0.11783 0.10674,-0.15746c0.07945,-0.08027 0.17631,-0.16162 0.27129,-0.26171c0.25631,0.11692 0.50705,0.17745 0.71867,0.37256c-0.02177,0.13352 -0.10307,0.19502 -0.2173,0.27738c-0.26812,-0.05953 -0.57283,-0.13579 -0.87944,-0.23073z" fill="#c7dfe0"/><path d="M286.37363,222.07177c-0.1576,-0.17943 -0.3425,-0.28169 -0.44986,-0.483c0.08758,-0.17518 0.27684,-0.20539 0.3681,-0.34302c0.24264,0.15551 0.40029,0.33488 0.59266,0.51226c-0.13785,0.19708 -0.329,0.20847 -0.51087,0.31382z" fill="#c7dee0"/><path d="M283.41923,222.24823c-0.04591,-0.11053 -0.00674,-0.2451 -0.10668,-0.3713c-0.22221,0.05103 -0.45992,0.12186 -0.68772,0.11659c0.00995,-0.07615 0.01805,-0.17104 0.04533,-0.24819c0.041,-0.11575 0.12045,-0.19602 0.24212,-0.20332c0.20666,-0.03123 0.39597,-0.06144 0.6027,-0.09264c0.02416,0.24407 0.01793,0.35775 -0.09575,0.79887z" fill="#61acb1"/><path d="M293.69094,226.94141c-0.18682,-0.12107 -0.33693,-0.22538 -0.52562,-0.36521c0.21477,-0.12614 0.41214,-0.25122 0.62879,-0.35859c0.14832,0.08552 0.27926,0.17217 0.39656,0.29735c-0.13785,0.19708 -0.30231,0.30131 -0.49971,0.42641z" fill="#c2dada"/><path d="M286.61301,220.07468c0.18682,0.12107 0.30593,0.26499 0.46169,0.42569c-0.23586,0.08965 -0.437,0.17717 -0.63814,0.26471c-0.16386,-0.06573 -0.22899,-0.19406 -0.33074,-0.33906c0.10491,-0.17622 0.29055,-0.24399 0.50715,-0.35133z" fill="#c1d9d9"/><path d="M293.99307,224.695c0.15708,-0.17934 0.28495,-0.30024 0.411,-0.43999c0.17937,0.04594 0.31588,0.18888 0.45239,0.33182c-0.07018,0.17412 -0.15958,0.33053 -0.32223,0.45358c-0.21413,-0.04386 -0.31959,-0.22646 -0.54116,-0.34537z" fill="#c6dedf"/><path d="M286.16408,226.84318c-0.16942,-0.12205 -0.32333,-0.26398 -0.47535,-0.38709c0.00066,-0.17 0.059,-0.28679 0.16954,-0.40672c0.23338,0.06164 0.3754,0.26089 0.57962,0.38087c-0.05277,0.17314 -0.16516,0.27423 -0.2738,0.41293z" fill="#c0d7d7"/><path d="M292.39784,219.35163c-0.19858,-0.06366 -0.40902,-0.07002 -0.59956,-0.22858c0.11052,-0.11992 0.20367,-0.2388 0.29678,-0.35764c0.20853,-0.01243 0.39161,0.07105 0.54549,0.21293c-0.03728,0.1533 -0.11487,0.25233 -0.24271,0.37328z" fill="#c3dadb"/><path d="M284.53715,221.70929c-0.00742,-0.0751 -0.03226,-0.14917 -0.03972,-0.22427c-0.18311,-0.08351 -0.3668,0.00297 -0.55982,-0.00433c-0.03039,-0.13037 0.06647,-0.21172 0.07082,-0.34414c0.21848,-0.08857 0.4326,-0.04474 0.64552,-0.18964c0.03594,0.18669 -0.00502,0.30243 -0.04415,0.437c-0.02544,0.09596 0.02227,0.22531 -0.07269,0.32536z" fill="#5aa0a4"/><path d="M288.40669,229.54205c-0.19858,-0.06366 -0.40904,-0.07001 -0.5803,-0.21084c0.02177,-0.13352 0.08386,-0.21277 0.17694,-0.33164c0.19491,0.02615 0.39349,0.08981 0.56106,0.1931c-0.02177,0.13352 -0.06646,0.2117 -0.15773,0.34933z" fill="#bdd3d4"/><path d="M285.12883,223.97791c0.11728,0.12519 0.2327,0.23162 0.34812,0.33801c-0.07019,0.17415 -0.18069,0.29407 -0.30856,0.41501c-0.14459,-0.04802 -0.19242,-0.17738 -0.2054,-0.30875c-0.01677,-0.16897 -0.03346,-0.3379 0.16581,-0.44425z" fill="#bdd4d5"/><path d="M292.76274,228.33764c-0.21781,-0.08143 -0.4183,-0.16388 -0.63611,-0.24527c0.34634,-0.20953 0.66727,-0.32309 0.99987,0.03474c-0.07576,0.11779 -0.21293,0.14489 -0.36374,0.21054z" fill="#bbd2d3"/><path d="M285.35571,222.20812c0.05466,-0.15432 0.15152,-0.23567 0.24838,-0.31695c0.12164,-0.00726 0.16572,0.08455 0.24264,0.1555c0.0577,0.0532 0.13276,0.10536 0.16129,0.21698c-0.05466,0.15432 -0.22841,0.16471 -0.30045,0.3201c-0.16757,-0.10329 -0.26747,-0.2295 -0.35187,-0.37552z" fill="#c3dadb"/><path d="M290.55782,223.89922c0.31654,0.01891 0.63305,0.03775 0.95703,0.13172c-0.00624,0.11366 -0.09128,0.13768 -0.17818,0.14281c-0.22407,0.03225 -0.44995,0.04574 -0.6585,0.05819c-0.1564,0.00935 -0.20234,-0.10123 -0.12034,-0.33272z" fill="#b1c6c7"/><path d="M286.23525,227.91532c0.14272,0.02922 0.20602,0.13877 0.30036,0.20866c0.18683,0.12105 0.22091,0.28897 0.15629,0.51948c-0.25445,-0.09812 -0.43314,-0.31408 -0.59077,-0.49349c0.00439,-0.13245 0.03356,-0.19087 0.13411,-0.23465z" fill="#bbd2d3"/><path d="M290.98061,226.40451c0.32278,-0.09482 0.6312,0.01898 0.95519,0.11292c-0.23217,0.1272 -0.49284,0.14271 -0.73428,0.17603c-0.15456,0.02812 -0.19493,-0.02612 -0.2209,-0.28895z" fill="#bad1d2"/><path d="M289.50218,229.30663c-0.12603,0.13969 -0.21731,0.27733 -0.34332,0.41705c-0.08875,-0.01359 -0.216,-0.06263 -0.34136,-0.09292c0.05344,-0.34312 0.07084,-0.34416 0.29865,-0.33888c0.12165,-0.00725 0.24517,0.00427 0.38604,0.01473z" fill="#b5cbcc"/><path d="M295.24763,223.77038c-0.03358,0.19082 -0.10929,0.3087 -0.18505,0.4265c-0.16201,-0.04699 -0.24636,-0.19304 -0.36366,-0.31821c0.07385,-0.13663 0.14966,-0.2544 0.22353,-0.39102c0.15825,0.00943 0.20977,0.17629 0.3252,0.28275z" fill="#c0d7d8"/><path d="M288.01587,228.24335c-0.02364,0.1147 -0.10305,0.19501 -0.19991,0.27636c-0.23149,-0.04283 -0.43568,-0.16282 -0.60881,-0.32246c-0.03039,-0.13037 0.01803,-0.17104 0.10118,-0.21375c0.23523,0.08033 0.47045,0.16075 0.70751,0.25991z" fill="#bdd4d4"/><path d="M294.00868,227.14911c0.14526,-0.12197 0.30974,-0.22622 0.45502,-0.3482c0.09431,0.06992 0.13839,0.16171 0.14955,0.27433c-0.02362,0.1147 -0.10676,0.15746 -0.18808,0.21894c-0.06581,0.0417 -0.13159,0.08339 -0.19741,0.1251c-0.10986,-0.05008 -0.18681,-0.12104 -0.21906,-0.27021z" fill="#b6cccc"/><path d="M293.99021,223.42996c0.12605,-0.13968 0.23652,-0.2596 0.36071,-0.41812c0.10612,0.01253 0.21601,0.06262 0.28487,0.22849c-0.07385,0.13663 -0.16515,0.27425 -0.25456,0.43064c-0.14646,-0.0668 -0.2737,-0.11583 -0.39098,-0.24106z" fill="#c1d9d9"/><path d="M293.54425,227.93212c-0.14646,-0.0668 -0.25818,-0.13566 -0.35805,-0.26189c0.12603,-0.13969 0.29613,-0.18761 0.42957,-0.25224c0.14272,0.02922 0.18865,0.1398 0.25008,0.23056c-0.0118,0.05737 -0.0081,0.0949 -0.02544,0.09595c-0.09871,0.06251 -0.19738,0.1251 -0.29614,0.18763z" fill="#b7cdce"/><path d="M292.14815,229.01646c0.17632,-0.16159 0.33272,-0.17094 0.48543,-0.21783c0.16823,-0.06671 0.24887,0.0418 0.34877,0.168c-0.12603,0.13969 -0.27873,0.18659 -0.41034,0.27c-0.1775,-0.02719 -0.24824,-0.21179 -0.42388,-0.22018z" fill="#b6cccc"/><path d="M287.46206,229.18287c-0.14832,-0.08556 -0.26002,-0.15442 -0.38911,-0.22226c-0.03411,-0.16795 -0.04524,-0.28058 0.02864,-0.41717c0.16757,0.1033 0.33327,0.18784 0.48158,0.27337c0.06889,0.16582 -0.028,0.24714 -0.03418,0.36083c-0.03476,0.00207 -0.06767,0.02294 -0.08691,0.00521z" fill="#c2dada"/><path d="M294.83819,222.81281c-0.12721,-0.04907 -0.18493,-0.10225 -0.22902,-0.19405c-0.02851,-0.11164 0.03355,-0.19083 0.07639,-0.28782c0.04471,-0.07825 0.04906,-0.21066 0.16886,-0.23671c0.11353,0.08765 0.21159,0.19509 0.26309,0.36199c-0.09126,0.13765 -0.18625,0.23774 -0.27939,0.35662z" fill="#bbd2d3"/><path d="M285.77502,220.61567c0.0999,0.12623 0.17872,0.21596 0.25939,0.32442c-0.10865,0.1387 -0.24026,0.22206 -0.37002,0.32426c-0.11169,-0.06886 -0.19056,-0.15859 -0.2035,-0.29001c0.01364,-0.0386 0.02735,-0.07715 0.06025,-0.09804c0.06205,-0.07922 0.14158,-0.15954 0.25391,-0.26067z" fill="#bbd2d3"/><path d="M289.56973,229.81243c0.16888,-0.2367 0.16888,-0.23673 0.45501,-0.34819c0.14834,0.08557 0.18054,0.23474 0.24939,0.40057c-0.23776,0.07086 -0.47294,-0.0095 -0.70445,-0.05236z" fill="#adc2c3"/><path d="M285.14399,222.54183c0.11169,0.06886 0.19239,0.17739 0.22274,0.30774c-0.10865,0.1387 -0.20171,0.25757 -0.31225,0.37743c-0.20539,-0.30877 -0.20728,-0.32754 0.08947,-0.68519z" fill="#b5cbcc"/><path d="M294.49668,226.25128c-0.13097,-0.08659 -0.22527,-0.15653 -0.32517,-0.28276c0.07202,-0.15534 0.22288,-0.22102 0.35078,-0.34198c0.05587,0.03444 0.0943,0.0699 0.13281,0.10535c0.03849,0.03546 0.06144,0.09074 0.10179,0.145c-0.03542,0.17207 -0.13037,0.27214 -0.26015,0.37436z" fill="#bbd1d2"/><path d="M286.48032,219.4405c0.10309,-0.19501 0.30975,-0.22622 0.43948,-0.32841c0.12907,0.06785 0.15949,0.19822 0.24016,0.30675c-0.17814,0.14285 -0.34824,0.19074 -0.54498,0.14583c-0.05214,0.00308 -0.09431,-0.0699 -0.13466,-0.12414z" fill="#b6cccd"/><path d="M293.49816,219.87125c-0.23894,-0.11792 -0.46234,-0.25567 -0.6839,-0.37462c0.00438,-0.13247 0.04905,-0.21066 0.16327,-0.29302c0.20977,0.1763 0.4195,0.35264 0.5827,0.58839c-0.03106,0.03966 -0.04658,0.05944 -0.06207,0.07925z" fill="#acc1c2"/><path d="M291.56982,225.29287c-0.22037,0.06982 -0.44259,0.12087 -0.6722,0.09677c-0.08877,-0.01362 -0.16385,-0.06575 -0.17314,-0.1596c-0.00371,-0.03751 0.02364,-0.11469 0.04102,-0.11574c0.25882,-0.03433 0.5325,0.0815 0.80433,0.17856z" fill="#a7bbbb"/><path d="M295.04365,225.59538c-0.108,-0.03134 -0.16942,-0.12205 -0.23269,-0.23159c0.09126,-0.13765 0.18254,-0.27526 0.27379,-0.41294c0.14646,0.0668 0.17497,0.1784 0.18799,0.30979c-0.041,0.11575 -0.13409,0.23465 -0.22911,0.33471z" fill="#b7cdcd"/><path d="M285.14839,225.41197c0.18311,0.08351 0.28295,0.20974 0.38473,0.35473c-0.03728,0.1533 -0.09563,0.2701 -0.24461,0.35453c-0.12657,-0.21905 -0.13146,-0.44539 -0.14014,-0.70924z" fill="#b7cece"/><path d="M287.94038,218.29581c0.19554,-0.14387 0.42889,-0.08226 0.59338,-0.18652c0.11167,0.06885 0.10176,0.14499 0.05333,0.18567c-0.12975,0.10217 -0.27873,0.18662 -0.4525,0.19696c-0.054,-0.01565 -0.07137,-0.01463 -0.19425,-0.19613z" fill="#b4cacb"/><path d="M293.45079,220.62943c0.04097,-0.11574 0.08755,-0.17518 0.1707,-0.21794c0.18683,0.12105 0.39097,0.24105 0.55603,0.49557c-0.29357,0.0364 -0.48409,-0.12218 -0.72674,-0.27765z" fill="#b2c8c9"/><path d="M285.37386,221.50833c-0.07385,0.13663 -0.1341,0.23461 -0.23467,0.27839c-0.07137,-0.01462 -0.09434,-0.06992 -0.1173,-0.12521c-0.09181,-0.2211 0.02057,-0.32226 0.18504,-0.42649c0.04407,0.09177 0.1055,0.18255 0.16692,0.2733z" fill="#b5cbcb"/><path d="M291.27888,227.65198c0.22405,-0.03226 0.4152,-0.04368 0.62931,0.0002c0.02665,0.09283 -0.02175,0.13348 -0.07387,0.1366c-0.11981,0.02603 -0.23777,0.07085 -0.35753,0.09688c-0.13902,0.00828 -0.1812,-0.06473 -0.19789,-0.23368z" fill="#91a3a3"/><path d="M290.92035,220.49729c-0.19554,0.14387 -0.42332,0.13859 -0.63187,0.15102c-0.03476,0.00207 -0.07325,-0.0334 -0.09432,-0.06991c-0.00371,-0.03752 0.02544,-0.09595 0.04284,-0.097c0.23776,-0.07086 0.46738,-0.04678 0.68336,0.01586z" fill="#99abac"/><path d="M290.24028,219.63149c-0.08253,-0.12726 -0.09179,-0.22113 -0.00862,-0.26389c0.11797,-0.04481 0.29542,-0.0176 0.52879,0.04397c-0.16078,0.14182 -0.35193,0.1532 -0.52014,0.21989z" fill="#93a5a6"/><path d="M285.53717,227.22056c0.20601,0.13879 0.42758,0.25773 0.32203,0.60397c-0.22339,-0.13778 -0.24757,-0.38179 -0.32203,-0.60397z" fill="#9aadad"/><path d="M288.67411,226.76881c0.13347,-0.06465 0.28427,-0.13029 0.40039,-0.19386c0.09247,0.05115 0.11543,0.1064 0.10919,0.2201c-0.14713,0.10324 -0.32835,0.03852 -0.48289,0.06663c-0.00371,-0.03752 -0.00555,-0.05634 -0.02668,-0.09287z" fill="#c5dddd"/><path d="M291.08686,222.8857c-0.2092,0.18245 -0.43516,0.19592 -0.66849,0.13434c-0.01739,0.00104 -0.0385,-0.03549 -0.04221,-0.07302c-0.02294,-0.0553 0.02543,-0.09595 0.06022,-0.09801c0.18928,-0.03023 0.40346,0.01368 0.65048,0.0367z" fill="#aec2c3"/><path d="M286.30339,219.7721c-0.12603,0.13969 -0.29422,0.20641 -0.44509,0.27208c-0.09247,-0.05112 -0.08253,-0.1273 -0.01673,-0.16898c0.11423,-0.08236 0.21107,-0.16367 0.34454,-0.22827c0.03106,-0.03966 0.08874,0.01358 0.11727,0.1252z" fill="#9caeaf"/><path d="M295.31013,224.57863c0.03542,-0.17209 0.09377,-0.28884 0.18505,-0.42651c0.09366,0.23989 0.062,0.44953 0.08427,0.67481c-0.05401,-0.01567 -0.08878,-0.01361 -0.10798,-0.03133c-0.05955,-0.072 -0.10174,-0.14498 -0.16134,-0.21695z" fill="#a9bebf"/><path d="M288.41881,221.89301c0.04776,0.12936 0.03781,0.20545 -0.00693,0.28371c-0.17192,0.02912 -0.33391,-0.01786 -0.5263,-0.19521c0.20485,-0.05 0.36126,-0.05932 0.53319,-0.0885z" fill="#b9cfd0"/><path d="M289.43673,227.76191c0.09247,0.05114 0.11726,0.12521 0.14209,0.19925c-0.02547,0.09594 -0.11234,0.10114 -0.53504,0.06971c0.08197,-0.23152 0.27873,-0.1866 0.39295,-0.26897z" fill="#869797"/><path d="M290.94058,221.76133c-0.28362,-0.03973 -0.51024,0.14378 -0.74478,-0.10661c0.25326,-0.09068 0.46365,-0.08437 0.74478,0.10661z" fill="#93a4a5"/><path d="M292.22709,228.57738c-0.26066,0.01556 -0.43448,0.02593 -0.60825,0.0363c-0.03476,0.00207 -0.07327,-0.03341 -0.07878,-0.08971c-0.00187,-0.0188 0.01182,-0.05734 0.02731,-0.07717c0.20481,-0.05004 0.39604,-0.06145 0.65973,0.13053z" fill="#94a5a6"/><path d="M289.78657,228.64758c0.08064,0.10852 0.10362,0.16375 0.04341,0.26179c-0.13716,0.02707 -0.29174,0.05518 -0.4711,0.00924c0.1031,-0.19499 0.27685,-0.20535 0.42767,-0.27104z" fill="#abbfc0"/><path d="M293.24369,228.78105c-0.04407,-0.09178 -0.06513,-0.1283 -0.06886,-0.16587c0.22285,-0.22106 0.22284,-0.221 0.4717,-0.17921c-0.08569,0.19395 -0.25944,0.20435 -0.40286,0.34506z" fill="#acc0c1"/><path d="M286.39555,227.41483c0.15019,0.10437 0.31589,0.18887 0.46793,0.31199c0.0577,0.0532 0.06511,0.12831 -0.03355,0.19083c-0.18682,-0.12107 -0.35622,-0.24311 -0.43435,-0.50283z" fill="#9fb2b2"/><path d="M294.75054,226.51939c0.06025,-0.09804 0.1068,-0.15745 0.18994,-0.20019c0.07325,0.03339 0.11359,0.08763 0.14026,0.18048c-0.00625,0.11367 -0.08571,0.19393 -0.16517,0.27421c-0.108,-0.03134 -0.13651,-0.14292 -0.16501,-0.2545z" fill="#aec2c3"/><path d="M288.31027,224.50559c0.07202,-0.15534 0.19369,-0.16264 0.31348,-0.18868c0.05214,-0.00308 0.09245,0.05112 0.09802,0.10745c0.00371,0.03752 -0.02546,0.09597 -0.06022,0.09803c-0.09868,0.06253 -0.20671,0.03123 -0.35129,-0.01682z" fill="#91a2a3"/><path d="M295.39234,223.28959c-0.31589,-0.18888 -0.33515,-0.20657 -0.11599,-0.46519c0.04962,0.14812 0.14954,0.27435 0.11599,0.46519z" fill="#869696"/><path d="M290.15365,218.5791c0.12232,-0.17726 0.23214,-0.12718 0.35568,-0.11567c-0.07019,0.17415 -0.07019,0.17414 -0.35568,0.11567z" fill="#555f5f"/><path d="M288.89282,225.62272c-0.0869,0.00519 -0.20853,0.01245 -0.33578,-0.03661c0.1397,-0.17829 0.2092,-0.18243 0.33827,-0.11464c0.03663,0.01672 0.0422,0.07302 -0.00254,0.15121z" fill="#93a5a6"/><path d="M292.16605,229.37412c-0.18996,0.2002 -0.22659,0.18352 -0.30845,-0.11379c0.11797,-0.0448 0.21227,0.02508 0.30845,0.11379z" fill="#8b9b9c"/><path d="M290.72287,218.14859c-0.16823,0.0667 -0.30908,0.05621 -0.45002,0.04572c-0.06331,-0.10951 -0.03409,-0.16794 0.03544,-0.17206c0.13902,-0.0083 0.27994,0.00217 0.41458,0.1263z" fill="#9aacad"/><path d="M294.13266,228.04815c-0.07576,0.11779 -0.11675,0.23359 -0.25763,0.22313c-0.0174,0.00101 -0.03662,-0.01668 -0.03849,-0.03547c0.01804,-0.17105 0.11861,-0.21482 0.29612,-0.18764z" fill="#5f6a6b"/><path d="M288.32476,223.23945c0.06393,-0.06047 0.13349,-0.06465 0.20486,-0.04999c0.03663,0.01672 0.07507,0.05216 0.06141,0.09075c-0.01364,0.0386 -0.0447,0.07825 -0.07947,0.08027c-0.0695,0.00412 -0.14087,-0.01048 -0.18678,-0.12105z" fill="#636e6f"/><path d="M295.30926,225.80623c0.06513,0.12831 0.05707,0.2232 -0.07452,0.3066c-0.08436,-0.14604 -0.03971,-0.22424 0.07452,-0.3066z" fill="#4a5354"/></g><g data-paper-data="{&quot;index&quot;:null}" fill="#000000" fill-rule="nonzero" stroke="#000000" stroke-width="1.2" stroke-linecap="butt" stroke-linejoin="miter"><path d="M254.33825,197.75507c-1.60008,-0.96017 -2.43401,-4.20178 -3.82305,-6.02867c-1.49548,-1.96692 -3.39993,-2.42732 -3.54165,-4.063c-0.09899,-1.14251 1.02927,-2.26038 1.6891,-2.76205c1.60445,-1.21992 4.96427,0.49938 7.50434,3.84016c2.54008,3.34077 3.29857,7.03794 1.69413,8.25784c-0.72705,0.55281 -2.19692,1.55138 -3.52285,0.75574z"/><path d="M258.45502,197.33877c-2.21886,-1.35906 -5.01557,-6.66902 -5.01557,-6.66902c0,0 -3.16666,-2.32443 -3.21785,-2.39428c-3.26269,-4.44958 -0.52119,-6.61073 2.63813,-9.01284c1.50362,-1.14326 4.27931,-2.29157 6.14644,-1.5416c2.11755,0.85053 3.31684,3.37767 5.18178,5.83049c3.50931,4.61554 4.58907,9.98565 1.38017,12.42546c-1.41255,1.074 -4.14959,3.17693 -7.11311,1.36176z"/></g><path d="M226.18838,192.58324l-7.15937,12.03766" fill="none" fill-rule="nonzero" stroke="#000000" stroke-width="4.5" stroke-linecap="round" stroke-linejoin="miter"/><path d="M195.93568,191.25949l18.16666,0.66666" fill="none" fill-rule="nonzero" stroke="#000000" stroke-width="4.5" stroke-linecap="round" stroke-linejoin="miter"/><path d="M204.10234,182.42615l2,20.33334" fill="none" fill-rule="nonzero" stroke="#000000" stroke-width="4.5" stroke-linecap="round" stroke-linejoin="miter"/><path d="M212.26901,176.42615l19.16667,0.5" fill="none" fill-rule="nonzero" stroke="#000000" stroke-width="4.5" stroke-linecap="round" stroke-linejoin="miter"/><path d="M220.26901,170.75949l-0.5,15.83333" fill="none" fill-rule="nonzero" stroke="#000000" stroke-width="4.5" stroke-linecap="round" stroke-linejoin="miter"/><g stroke-linejoin="miter"><path d="M308.55097,185.09136c-6.86967,11.56448 -22.23581,15.11953 -34.32123,7.94039c-12.0854,-7.17911 -16.3136,-22.37383 -9.44392,-33.93831c6.86967,-11.56448 22.23581,-15.11953 34.32123,-7.94039c12.0854,7.17911 16.3136,22.37383 9.44392,33.93831z" fill="none" fill-rule="nonzero" stroke="#ff0000" stroke-width="4.5" stroke-linecap="butt"/><g stroke-linecap="butt"><g fill-rule="nonzero"><path d="M281.73437,150.85881l0.0057,0.01283" data-paper-data="{&quot;index&quot;:null}" fill="#ffab19" stroke="#ff0000" stroke-width="5"/><g data-paper-data="{&quot;index&quot;:null}" fill="none" stroke="none" stroke-width="1" font-family="sans-serif" font-weight="normal" font-size="12" text-anchor="start"/></g><path d="M281.73437,150.85881l0.0057,0.01283" data-paper-data="{&quot;index&quot;:null}" fill="#ffab19" fill-rule="nonzero" stroke="#ff0000" stroke-width="5"/><path d="M285.79348,172.99515" fill="#001026" fill-rule="evenodd" stroke="#ff0000" stroke-width="5"/><g data-paper-data="{&quot;index&quot;:null}" fill="none" fill-rule="nonzero" stroke="none" stroke-width="1" font-family="sans-serif" font-weight="normal" font-size="12" text-anchor="start"/><g data-paper-data="{&quot;index&quot;:null}" fill="none" fill-rule="nonzero" stroke="none" stroke-width="1" font-family="sans-serif" font-weight="normal" font-size="12" text-anchor="start"/></g><path d="M268.80365,190.82459l-25.19824,-15.24038c0,0 -1.89384,-1.51969 -1.13532,-2.11767c1.73931,-1.3712 11.36075,-5.94364 11.36075,-5.94364l-8.01755,-9.38392c0,0 -1.36911,-1.86455 -1.0823,-2.97276c0.26681,-1.0309 14.84296,-3.26036 14.84296,-3.26036c0,0 -5.26402,-7.32551 -6.17759,-10.17236c-0.35874,-1.1179 14.34233,-1.28337 23.69916,-0.06192c4.57857,0.59768 10.95444,1.18939 15.36012,2.95709c7.30491,2.93096 11.29129,7.96464 11.29129,7.96464" fill="none" fill-rule="nonzero" stroke="#ff0000" stroke-width="3" stroke-linecap="round"/><path d="M241.99794,174.62932c0,0 0.26118,-1.47774 2.30536,-2.51161c2.56042,-1.29494 8.81206,-1.36239 8.5962,-4.23729c-0.27961,-3.72416 -11.35434,-9.77084 -8.05458,-12.28526c2.7095,-2.06463 13.4702,-2.02777 14.5281,-3.80867c1.05558,-1.77696 -3.51376,-3.02887 -4.3609,-6.73194c-1.20482,-5.26656 0.34402,-4.35299 0.34402,-4.35299c0,0 13.89308,-0.43848 20.03976,0.36686c5.76695,0.75559 15.7738,4.32546 15.7738,4.32546c0,0 -19.8609,4.19153 -25.80419,10.02273c-6.58822,6.46398 -0.98843,31.41933 -0.98843,31.41933z" data-paper-data="{&quot;index&quot;:null}" fill="#ff0000" fill-rule="nonzero" stroke="#ff0000" stroke-width="0" stroke-linecap="butt"/></g><path d="M272.04472,193.32772l-28.02963,12.74074" fill="none" fill-rule="nonzero" stroke="#ff0000" stroke-width="5.5" stroke-linecap="round" stroke-linejoin="miter"/><path d="M306.32889,186.60988c0,0 -3.35053,15.15948 -9.76983,16.19613c-5.98164,0.96598 -27.52579,-10.17324 -27.52579,-10.17324" fill="none" fill-rule="nonzero" stroke="#ff0000" stroke-width="5.5" stroke-linecap="round" stroke-linejoin="miter"/><path d="M241.89314,182.36546c-1.52265,-0.29583 -5.25793,-0.87677 -5.1789,-2.71024c0.02546,-0.59074 2.13483,-2.07177 5.85333,-0.54906c9.81801,4.02042 28.08725,15.14816 28.08725,15.14816" fill="none" fill-rule="nonzero" stroke="#ff0000" stroke-width="5.5" stroke-linecap="round" stroke-linejoin="miter"/><path d="M269.95986,184.89981l5.79125,4.40134" fill="none" fill-rule="nonzero" stroke="#ff0000" stroke-width="2.5" stroke-linecap="round" stroke-linejoin="miter"/><g fill="#ff0000" fill-rule="nonzero" stroke="none" stroke-linecap="butt" stroke-linejoin="miter"><path d="M266.08932,207.20351c1.20014,-0.06461 2.33756,0.7369 2.5405,1.79022c0.20294,1.05331 -0.60546,1.95957 -1.8056,2.02418c-1.20014,0.06461 -2.33757,-0.73689 -2.54051,-1.79021c-0.20294,-1.05331 0.60547,-1.95959 1.80561,-2.02419z" stroke-width="NaN"/><path d="M270.2932,204.4079c1.10413,-0.05944 2.14546,0.65136 2.32583,1.58765c0.18038,0.93628 -0.56846,1.74348 -1.6726,1.80291c-1.10413,0.05944 -2.14546,-0.65138 -2.32585,-1.58767c-0.18038,-0.93628 0.56846,-1.74347 1.67259,-1.80291z" stroke-width="0"/><path d="M274.80351,207.30537c1.15214,-0.06203 2.23239,0.64669 2.41276,1.58297c0.18038,0.93628 -0.60738,1.74558 -1.75953,1.80759c-1.15214,0.06203 -2.23238,-0.6467 -2.41276,-1.58298c-0.18038,-0.93628 0.60738,-1.74556 1.75951,-1.80758z" stroke-width="0"/><path d="M258.69208,202.9604c-0.13464,0.77007 -1.09556,1.23884 -2.14633,1.04703c-1.05077,-0.19182 -1.79343,-0.97158 -1.65878,-1.74165c0.13464,-0.77007 1.09557,-1.23885 2.14634,-1.04704c1.05077,0.19182 1.79343,0.97159 1.65877,1.74166z" stroke-width="NaN"/><path d="M260.70225,206.43523c-0.12387,0.70846 -0.98142,1.14459 -1.91543,0.97409c-0.93401,-0.1705 -1.59076,-0.88305 -1.46689,-1.59152c0.12387,-0.70846 0.98143,-1.14457 1.91544,-0.97408c0.93401,0.1705 1.59076,0.88304 1.46688,1.59151z" stroke-width="0"/><path d="M263.11405,204.28558c-0.14001,0.80088 -0.97915,1.31766 -1.87423,1.15426c-0.89508,-0.1634 -1.50718,-0.9451 -1.36716,-1.74598c0.14001,-0.80088 0.97915,-1.31765 1.87423,-1.15425c0.89508,0.1634 1.50718,0.94508 1.36717,1.74596z" stroke-width="0"/><path d="M263.02311,217.37254c1.19865,0.24391 1.9977,1.27033 1.78474,2.29257c-0.21297,1.02223 -1.35734,1.65317 -2.55599,1.40925c-1.19865,-0.24391 -1.99769,-1.27033 -1.78472,-2.29255c0.21297,-1.02223 1.35733,-1.65319 2.55598,-1.40926z" stroke-width="NaN"/><path d="M268.22524,215.85867c1.10276,0.22441 1.84326,1.14292 1.65395,2.05157c-0.18931,0.90864 -1.23674,1.46333 -2.3395,1.23892c-1.10276,-0.22441 -1.84327,-1.14293 -1.65396,-2.05156c0.18931,-0.90864 1.23675,-1.46332 2.33952,-1.23892z" stroke-width="0"/><path d="M257.0012,212.24403c-0.4324,0.67578 -1.55504,0.8649 -2.50747,0.4224c-0.95244,-0.44251 -1.37399,-1.34905 -0.94159,-2.02484c0.4324,-0.67578 1.55504,-0.8649 2.50747,-0.42239c0.95243,0.44251 1.37399,1.34904 0.94158,2.02482z" stroke-width="NaN"/><path d="M253.3898,216.85216c-0.41512,0.64875 -1.43793,0.85579 -2.28454,0.46247c-0.84662,-0.39333 -1.19641,-1.23812 -0.7813,-1.88686c0.41512,-0.64875 1.43793,-0.85581 2.28455,-0.46248c0.84662,0.39333 1.1964,1.23813 0.7813,1.88688z" stroke-width="0"/><path d="M260.80714,214.58373c-0.4497,0.70281 -1.47197,0.96697 -2.2833,0.59004c-0.81133,-0.37694 -1.10451,-1.25226 -0.65481,-1.95507c0.4497,-0.70281 1.47198,-0.96698 2.28331,-0.59005c0.81133,0.37694 1.10449,1.25227 0.65479,1.95509z" stroke-width="0"/></g><text transform="translate(319.52103,227.61415) rotate(-180) scale(0.59017,-0.59017)" font-size="40" xml:space="preserve" data-paper-data="{&quot;index&quot;:null}" fill="#9966ff" fill-rule="nonzero" stroke="none" stroke-width="1" stroke-linecap="butt" stroke-linejoin="miter" stroke-miterlimit="10" stroke-dasharray="" stroke-dashoffset="0" font-family="Marker" font-weight="normal" text-anchor="start" style="mix-blend-mode: normal"><tspan x="0" dy="0">Y to restart</tspan></text><path d="M289.02324,184.39617l-0.60298,-14.17003l13.26556,-1.80894" fill="none" fill-rule="nonzero" stroke="#ff0000" stroke-width="4.5" stroke-linecap="round" stroke-linejoin="miter"/><path d="M271.23534,162.08591l10.25066,9.0447l0.30149,14.17003" fill="none" fill-rule="nonzero" stroke="#ff0000" stroke-width="4.5" stroke-linecap="round" stroke-linejoin="miter"/></g></g></svg>