<svg version="1.1" xmlns="http://www.w3.org/2000/svg" xmlns:xlink="http://www.w3.org/1999/xlink" width="67.95836" height="118.48534" viewBox="0,0,67.95836,118.48534"><defs><linearGradient x1="220.77165" y1="178.16451" x2="232.73443" y2="182.99117" gradientUnits="userSpaceOnUse" id="color-1"><stop offset="0" stop-color="#bebebe"/><stop offset="1" stop-color="#737373"/></linearGradient></defs><g transform="translate(-200.23236,-125.54901)"><g data-paper-data="{&quot;isPaintingLayer&quot;:true}" stroke-miterlimit="10" stroke-dasharray="" stroke-dashoffset="0" style="mix-blend-mode: normal"><g stroke-width="1.2"><g><path d="M241.43898,192.68938l4.14453,34.64918c0,0 6.7776,1.97786 5.43561,10.59877c-0.07652,0.49147 -0.50368,2.89345 -3.42851,2.99318c-2.80138,0.09553 -8.06311,-2.08247 -9.98367,-2.89304c-0.89201,-0.37649 -2.18156,-1.45828 -2.89152,-2.98773c-0.7148,-1.53994 -0.35102,-3.47715 -0.20035,-4.57856c0.06136,-0.4486 -2.93197,-35.96356 -2.93197,-35.96356" fill="#ffffff" fill-rule="evenodd" stroke="#9b9b9b" stroke-linecap="round" stroke-linejoin="round"/><path d="M242.13375,191.93494c0.53951,3.37026 3.43936,22.13192 3.43936,22.13192c0,0 1.68986,6.20623 1.74765,7.88215c0.06655,1.93017 0.25869,3.32802 0.25869,3.32802l-0.79076,-1.66496c0,0 0.51357,1.15224 0.69219,1.81219c0.55647,2.05595 0.98476,3.60947 0.98476,3.60947c0,0 -6.82842,-2.04838 -9.89464,0.13909c-3.06622,2.18747 -2.44307,7.68242 -2.44307,7.68242c0,0 -4.98109,-2.09079 -4.90755,-5.72837c0.01812,-0.89676 1.16628,-3.32963 1.16628,-3.32963c0,0 -0.605,0.02125 -0.54142,-0.58868c0.0151,-0.14491 -1.19771,-31.40021 -1.09191,-32.07987c0,0 11.25628,-3.96947 11.38045,-3.19378z" fill="#9b9b9b" fill-rule="nonzero" stroke="#767676" stroke-linecap="butt" stroke-linejoin="miter"/></g><g fill-rule="evenodd" stroke-linecap="round" stroke-linejoin="round"><g fill="#ffab19" stroke="#001026" font-family="&quot;Helvetica Neue&quot;, Helvetica, Arial, sans-serif" font-weight="400" font-size="16" text-anchor="start"/><path d="M229.51618,202.82473c-1.5598,-0.3371 -3.40104,-1.07966 -4.2776,-2.22657c-1.13081,-1.47955 -1.10024,-3.52325 -1.44056,-5.09872c6.4085,1.47872 14.04872,0.23412 19.66062,-2.53509c-0.14474,1.08435 0.21724,5.91734 -2.07917,7.62786c-1.52798,1.13815 -6.26863,2.87172 -7.47712,3.11932c-2.34542,0.48059 -4.03307,-0.81053 -4.38614,-0.88683z" fill="#9b9b9b" stroke="#767676"/></g><g><g fill-rule="evenodd" stroke-linecap="round" stroke-linejoin="round"><path d="M233.20556,200.41572c0,0 -3.07939,36.01866 -3.64132,36.13755c-1.61258,0.34115 -10.44965,-2.71383 -10.44965,-2.71383l5.68045,-36.2134" data-paper-data="{&quot;index&quot;:null}" fill="#ffab19" stroke="#001026"/><path d="M234.5664,199.83504c0,0 -0.71935,7.61662 -0.93182,11.65509c-0.20378,3.87351 -0.31804,12.10163 -0.31804,12.10163c0,0 0.86384,5.97877 0.01929,7.45312c-0.39117,0.68288 -0.69939,-3.3755 -0.69939,-3.3755c0,0 0.3441,4.57521 0.37798,4.97848c0.2364,2.81365 -0.84244,6.50855 -3.66947,6.85957c-3.1039,0.3854 -8.24969,0.82069 -10.90239,-1.40535c-1.12868,-0.94715 -2.65754,-3.73525 -2.24605,-6.70529c0.46404,-3.34946 2.95604,-6.85837 2.95604,-6.85837l-2.28984,3.82492c0,0 -0.02387,-1.90984 0.34871,-3.31081c0.41841,-1.57328 2.0403,-5.67206 2.0403,-5.67206l4.91665,-23.06715" data-paper-data="{&quot;index&quot;:null}" fill="#9b9b9b" stroke="#767676"/></g><path d="M232.60402,236.56288c-0.08407,2.21065 -0.76992,4.77911 -2.25858,6.11284c-1.49417,1.33866 -10.4742,0.80815 -11.86246,-0.82787c-1.31839,-1.55369 -1.85542,-4.42531 -1.77337,-6.58288c0.16847,-4.42949 3.86311,-7.72978 8.25225,-7.37137c4.38911,0.3584 7.81064,4.2398 7.64215,8.66931z" fill="#ffffff" fill-rule="nonzero" stroke="#9b9b9b" stroke-linecap="butt" stroke-linejoin="miter"/></g><g fill="#004fd9" fill-rule="nonzero" stroke="#001026" stroke-linecap="butt" stroke-linejoin="miter" font-family="&quot;Helvetica Neue&quot;, Helvetica, Arial, sans-serif" font-weight="400" font-size="16" text-anchor="start"/></g><path d="M216.96594,197.71091c1.19295,-1.67619 17.41984,-17.29332 17.41984,-17.29332l19.17352,15.68678" fill="none" fill-rule="nonzero" stroke="#000000" stroke-width="6" stroke-linecap="round" stroke-linejoin="miter"/><path d="M224.24648,194.56079c0,0 3.17788,-6.1786 2.57337,-7.94683c-0.14785,-0.43249 -2.60746,7.18262 -3.13833,6.80088c-2.53154,-1.8204 -8.44362,-3.00603 -8.44362,-3.00603c0,0 8.69551,-6.86273 12.35166,-9.94845c1.0095,-0.852 5.57577,-1.15252 5.85567,-1.41037c0.36148,-0.33302 17.00453,7.96528 17.00453,7.96528c0,0 -4.60502,3.64469 -4.39651,6.78233c0.00148,0.0223 -4.61583,-8.75421 -4.59259,-8.40469c0.13915,2.09397 1.47874,7.66561 1.47874,7.66561c0,0 -5.53532,1.62661 -8.33355,1.8986c-3.08477,0.29984 -10.35936,-0.39627 -10.35936,-0.39627z" fill="#ffffff" fill-rule="nonzero" stroke="#9b9b9b" stroke-width="2.5" stroke-linecap="butt" stroke-linejoin="miter"/><path d="M243.51895,187.80432c0,0 -14.65603,-5.35375 -16.78298,-7.37047c-0.98843,-0.93721 2.98357,-1.05239 2.98357,-1.05239c0,0 -1.72643,0.51005 1.11745,0.89118c1.69981,0.22781 5.79097,1.01549 7.22915,0.94263c4.59688,-0.23286 6.16677,0.65984 6.16677,0.65984z" fill="#767676" fill-rule="nonzero" stroke="#191919" stroke-width="1.5" stroke-linecap="butt" stroke-linejoin="miter"/><path d="M219.68124,141.25182c0.34607,4.30829 -3.39138,8.12359 -8.34782,8.52173c-4.95645,0.39813 -9.25498,-2.77168 -9.60104,-7.07997c-0.34607,-4.30829 3.39139,-8.1236 8.34783,-8.52173c4.95645,-0.39813 9.25497,2.77169 9.60104,7.07998z" fill="#000000" fill-rule="nonzero" stroke="#191919" stroke-width="3" stroke-linecap="butt" stroke-linejoin="miter"/><g stroke-linejoin="miter"><g data-paper-data="{&quot;index&quot;:null}" stroke-linecap="butt"><path d="M265.94073,160.75398c-3.11075,12.96386 -17.41313,21.1516 -31.94528,18.28786c-14.53213,-2.86375 -23.79099,-15.69455 -20.68021,-28.65842c3.11076,-12.96386 17.41313,-21.1516 31.94528,-18.28786c14.53213,2.86375 23.79099,15.69455 20.68021,28.65842z" fill="none" fill-rule="nonzero" stroke="#000000" stroke-width="4.5"/><g><g fill-rule="nonzero"><path d="M227.67076,137.32948l0.00995,0.01014" data-paper-data="{&quot;index&quot;:null}" fill="#ffab19" stroke="#000000" stroke-width="5"/><g data-paper-data="{&quot;index&quot;:null}" fill="none" stroke="none" stroke-width="1" font-family="sans-serif" font-weight="normal" font-size="12" text-anchor="start"/></g><path d="M227.67076,137.32948l0.00995,0.01014" data-paper-data="{&quot;index&quot;:null}" fill="#ffab19" fill-rule="nonzero" stroke="#000000" stroke-width="5"/><path d="M239.04422,156.68806" fill="#001026" fill-rule="evenodd" stroke="#000000" stroke-width="5"/><g data-paper-data="{&quot;index&quot;:null}" fill="none" fill-rule="nonzero" stroke="none" stroke-width="1" font-family="sans-serif" font-weight="normal" font-size="12" text-anchor="start"/><g data-paper-data="{&quot;index&quot;:null}" fill="none" fill-rule="nonzero" stroke="none" stroke-width="1" font-family="sans-serif" font-weight="normal" font-size="12" text-anchor="start"/></g></g><path d="M254.79589,138.95231l-38.66045,11.71372l-3.54818,13.46723c0,0 -6.0199,-19.19935 1.69729,-25.02734c2.94307,-2.2226 17.8839,-14.85633 28.50033,-11.49012c14.95326,4.74132 19.49297,13.20148 19.49297,13.20148z" fill="#000000" fill-rule="nonzero" stroke="#191919" stroke-width="3" stroke-linecap="round"/></g><g fill-rule="nonzero" stroke-linejoin="miter"><path d="M242.55323,154.75889c0,0 1.61561,3.39611 0.23175,7.5366c-0.13822,0.41357 -1.80686,2.93019 -3.19927,3.00018c-2.0635,0.10372 -4.07361,-2.41053 -4.08595,-2.75006c-0.0468,-1.2886 0.25591,-2.65688 -0.34531,-5.25281c-0.43548,-1.88037 7.39879,-2.53391 7.39879,-2.53391z" data-paper-data="{&quot;index&quot;:null}" fill="#000000" stroke="none" stroke-width="0" stroke-linecap="butt"/><path d="M233.42198,155.71449l8.12711,-0.82002" fill="none" stroke="#000000" stroke-width="2.5" stroke-linecap="round"/></g><g fill-rule="nonzero" stroke-linejoin="miter"><path d="M259.60049,152.92537c0,0 1.61562,3.39612 0.23175,7.5366c-0.13822,0.41357 -1.80686,2.93019 -3.19927,3.00018c-2.0635,0.10372 -4.07361,-2.41053 -4.08595,-2.75006c-0.0468,-1.2886 0.2559,-2.65688 -0.34532,-5.25281c-0.43548,-1.88037 7.39879,-2.53391 7.39879,-2.53391z" data-paper-data="{&quot;index&quot;:null}" fill="#000000" stroke="none" stroke-width="0" stroke-linecap="butt"/><path d="M258.59635,153.06095l-8.1271,0.82002" fill="none" stroke="#000000" stroke-width="2.5" stroke-linecap="round"/></g><path d="M238.99618,167.96214c0.11326,9.00606 -5.12016,10.34815 -7.11353,11.37091c-1.99337,1.02276 -6.73594,-1.20023 -6.8492,-10.20629c-0.00601,-0.47789 13.96094,-1.30656 13.96273,-1.16462z" fill="#ff0000" fill-rule="nonzero" stroke="#000000" stroke-width="1.5" stroke-linecap="butt" stroke-linejoin="miter"/><g fill-rule="nonzero" stroke-linecap="butt" stroke-linejoin="miter"><g data-paper-data="{&quot;index&quot;:null}" stroke="none" stroke-width="1"><path d="M220.62378,184.09536c-0.16141,-0.15622 -0.1424,-0.30545 -0.08884,-0.47425c0.10623,-0.25791 0.26362,-0.48541 0.38698,-0.73313c-0.02489,-0.075 -0.04973,-0.15 -0.08338,-0.21013c-0.65452,-1.31242 -0.67333,-2.60794 -0.46004,-3.9059c0.04626,-0.27349 0.07546,-0.5572 0.21581,-0.79478c0.02634,-0.04454 0.04435,-0.11411 0.02774,-0.16413c-0.09123,-0.27501 0.0228,-0.46808 0.12857,-0.68614c0.08819,-0.18835 0.21052,-0.35643 0.3158,-0.53463c0.06141,-0.10395 0.15694,-0.18761 0.30321,-0.201c0.14624,-0.01334 0.26764,-0.10171 0.3802,-0.17523c0.59029,-0.49177 1.2737,-0.86798 2.03319,-1.13874c0.43143,-0.14477 0.87895,-0.19971 1.34352,-0.24447c1.36794,-0.12964 2.71403,0.12909 4.03094,0.67146c0.58994,0.25054 1.1531,0.58546 1.68116,0.97976c0.40028,0.29828 0.70506,0.68024 0.98403,1.06687c0.88756,1.23027 1.27539,2.56464 1.28443,3.95471c0.00539,0.26411 -0.0579,0.52746 -0.12122,0.79083c-0.03651,0.17894 -0.04719,0.35323 0.0708,0.54382c0.10969,0.16559 0.09903,0.33983 0.04545,0.50862c-0.10623,0.25791 -0.24659,0.49552 -0.38698,0.73314c-0.04388,0.07426 -0.11309,0.11338 -0.18233,0.15247c-0.27639,0.11657 -0.45919,0.30889 -0.61659,0.53637c-0.31533,0.4948 -0.78376,0.85836 -1.23514,1.23207c-0.17356,0.13762 -0.3641,0.26509 -0.58005,0.35742c-0.69122,0.31135 -1.382,0.58286 -2.1737,0.67391c-0.13158,0.22274 -0.28902,0.45022 -0.42935,0.68785c-0.05265,0.08911 -0.11404,0.19306 -0.25151,0.19154c-0.1204,0.00865 -0.156,0.10792 -0.20861,0.19702c-0.36793,0.58388 -0.71884,1.17791 -1.08679,1.76179c-0.79783,1.31156 -1.60437,2.638 -2.4363,3.92927c-0.8144,1.26157 -1.57754,2.55362 -2.35782,3.83548c-0.12281,0.20792 -0.27099,0.38066 -0.39378,0.58857c-0.59652,1.00986 -1.19305,2.01971 -1.80662,3.01943c-0.10526,0.1782 -0.17642,0.3767 -0.3753,0.47914c-0.06923,0.03913 -0.09601,0.12349 -0.13989,0.19774c-0.43858,0.74257 -0.90307,1.48981 -1.34168,2.23236c-0.01755,0.0297 -0.04388,0.07423 -0.0614,0.10394c-0.12328,0.24778 -0.31293,0.29552 -0.61325,0.2574c-1.00382,-0.13543 -1.89263,-0.54363 -2.66649,-1.22457c-0.19553,-0.1765 -0.3735,-0.38268 -0.51689,-0.60843c-0.10969,-0.1656 -0.1078,-0.325 -0.03716,-0.48364c0.212,-0.47597 0.40689,-0.96209 0.62764,-1.45291c0.15887,-0.34704 0.36064,-0.68861 0.46829,-1.06607c0.23336,-0.82448 0.68026,-1.54203 0.96478,-2.33605c0.16857,-0.44156 0.29428,-0.88861 0.47992,-1.32005c0.20319,-0.46111 0.36351,-0.92769 0.54083,-1.3841c0.32793,-0.82844 0.69879,-1.65144 1.00964,-2.49002c0.38297,-1.11676 0.83418,-2.19303 1.2854,-3.2692c0.15059,-0.37204 0.30109,-0.74402 0.45169,-1.11605c0.24752,-0.57525 0.50386,-1.16529 0.7514,-1.74049c0.1413,-0.31734 0.23974,-0.64009 0.38102,-0.95741c0.13305,-0.34236 0.29969,-0.62446 0.45857,-0.9715zM221.17321,184.14117c0.15214,0.21089 0.32182,0.3921 0.53487,0.5389c0.36476,0.39753 0.80796,0.70127 1.25118,1.00499c0.55391,0.38962 1.15995,0.72998 1.74896,1.0602c0.67432,0.38096 1.38515,0.58299 2.12186,0.78031c0.08581,0.01089 0.17161,0.02178 0.30029,0.03812c0.0702,-0.11879 0.14033,-0.23762 0.21051,-0.35641c0.01755,-0.0297 0.01803,-0.06955 0.02727,-0.12425c-0.11945,-0.07106 -0.24768,-0.12724 -0.38469,-0.16859c-0.2311,-0.07722 -0.42757,-0.17404 -0.65866,-0.25128c-0.56458,-0.21537 -1.06734,-0.57453 -1.60559,-0.83445c-0.28182,-0.14752 -0.58114,-0.26539 -0.84542,-0.44261c-0.57099,-0.39977 -1.18579,-0.7253 -1.72163,-1.18445c-0.13604,-0.12106 -0.28916,-0.25221 -0.42521,-0.3733c-0.01561,-0.12972 -0.16971,-0.18119 -0.23748,-0.26166c-0.07606,-0.10545 -0.15217,-0.21091 -0.34862,-0.30766c0.00539,0.26411 -0.15983,0.42672 -0.19684,0.64551c0.07656,0.06562 0.09219,0.1953 0.2292,0.23664zM221.55748,185.05201c-0.31354,-0.36711 -0.40716,-0.44281 -0.64656,-0.54507c-0.08819,0.18835 -0.16763,0.36188 -0.25584,0.55023c-0.06141,0.10395 -0.03705,0.2188 0.03907,0.32428c0.05075,0.07034 0.13604,0.12104 0.18676,0.19134c0.19457,0.25623 0.45838,0.47329 0.74017,0.62081c0.07563,0.14528 0.21209,0.2265 0.34864,0.3077c0.75914,0.47155 1.49251,0.94781 2.29551,1.34515c0.35886,0.17329 0.72648,0.33174 1.08579,0.46515c0.2911,0.09285 0.59921,0.19582 0.90927,0.1394c0.11404,-0.19308 0.22804,-0.38613 0.34211,-0.57921c-0.15405,-0.05149 -0.29108,-0.09286 -0.41097,-0.12404c-0.54799,-0.16539 -1.07845,-0.36044 -1.57384,-0.61494c-0.64065,-0.32083 -1.23745,-0.7159 -1.84303,-1.09611c-0.29013,-0.17255 -0.51055,-0.42402 -0.8094,-0.58171c-0.09219,-0.19529 -0.25406,-0.31166 -0.40763,-0.40299zM213.91006,202.83952c0.18627,0.23119 0.41639,0.38814 0.66406,0.51537c0.00828,0.02498 0.03365,0.06016 0.05075,0.07031c0.41833,0.22874 0.85422,0.42777 1.30861,0.51739c0.26575,0.05771 0.52265,0.13023 0.78976,0.06834c0.49126,-0.83166 0.98246,-1.66329 1.50008,-2.5395c-0.50604,-0.08024 -0.95953,-0.24954 -1.40413,-0.43373c-0.39347,-0.15374 -0.70845,-0.40128 -1.08436,-0.58471c-0.13652,-0.08118 -0.24722,-0.16707 -0.38374,-0.24827c-0.1609,-0.19603 -0.35645,-0.37253 -0.60363,-0.53963c-0.26316,0.44555 -0.37226,0.94255 -0.58376,1.37869c-0.20319,0.46113 -0.38934,0.93241 -0.58374,1.37867c0.09218,0.19529 0.21114,0.3062 0.33014,0.41709zM215.24664,199.60079c0.07565,0.14527 0.20336,0.24135 0.33986,0.32251c0.10143,0.14062 0.26381,0.21712 0.4086,0.3233c0.46907,0.29903 0.98199,0.52381 1.49536,0.70872c0.30811,0.10297 0.63381,0.17624 0.96042,0.16981c0.0351,-0.0594 0.08724,-0.10865 0.12231,-0.16807c0.42989,-0.7277 0.85093,-1.44049 1.29782,-2.15806c0.47322,-0.76209 0.93767,-1.50934 1.4109,-2.27143c0.68374,-1.11854 1.37584,-2.21202 2.05956,-3.33057c0.77978,-1.24202 1.49957,-2.49966 2.31349,-3.72137c0.13988,-0.19775 0.25437,-0.43068 0.38599,-0.65344c-0.22278,-0.05222 -0.44606,-0.06459 -0.65132,-0.14655c-0.67623,-0.22156 -1.31689,-0.54239 -1.94002,-0.8929c-0.54606,-0.32477 -1.08338,-0.66441 -1.6207,-1.00405c-0.20432,-0.16165 -0.40031,-0.29827 -0.60462,-0.45992c-0.08387,-0.17029 -0.25502,-0.23194 -0.374,-0.34284c-0.13604,-0.12106 -0.23746,-0.26165 -0.4169,-0.34829c-0.12186,0.12822 -0.15792,0.26734 -0.20224,0.38142c-0.32985,0.98787 -0.805,1.90936 -1.18604,2.86675c-0.24802,0.6151 -0.49606,1.23016 -0.72697,1.8554c-0.32793,0.82844 -0.63002,1.65216 -0.94917,2.46575c-0.25724,0.66978 -0.51454,1.33956 -0.78889,1.99918c-0.28361,0.71433 -0.5755,1.40365 -0.87614,2.10786c-0.26556,0.64478 -0.53988,1.30443 -0.79716,1.9742c0.14479,0.10617 0.19457,0.25619 0.33985,0.32253zM232.70118,183.09042c-0.45435,-0.08963 -0.84786,-0.24338 -1.25007,-0.38223c-0.41931,-0.14903 -0.8303,-0.27302 -1.2408,-0.43692c-0.39348,-0.15375 -0.78647,-0.34733 -1.17113,-0.51594c-0.40177,-0.17875 -0.80352,-0.35746 -1.21354,-0.56116c-0.37589,-0.18344 -0.76011,-0.39189 -1.13603,-0.57533c-0.3842,-0.20844 -0.73333,-0.47627 -1.15263,-0.6253c-0.3057,-0.3022 -0.71624,-0.4661 -1.06587,-0.69408c-0.35785,-0.25298 -0.75041,-0.48642 -1.10829,-0.73941c-0.34079,-0.24284 -0.68991,-0.5107 -1.02196,-0.76837c-0.34912,-0.26786 -0.64606,-0.58496 -1.02148,-0.80818c-0.24467,0.33613 -0.30607,0.44007 -0.32745,0.78858c0.1609,0.19603 0.32183,0.39211 0.53442,0.57871c0.26379,0.2171 0.52755,0.43418 0.79966,0.67629c0.5188,0.44905 1.02935,0.87305 1.62662,1.22828c0.40957,0.24359 0.82792,0.47231 1.20239,0.77533c0.07656,0.06562 0.17894,0.12648 0.29885,0.15767c0.23111,0.07721 0.44418,0.22405 0.64896,0.3458c0.75087,0.44658 1.55436,0.80404 2.3496,1.13648c1.04292,0.45971 2.11308,0.79515 3.20957,1.086c0.21402,0.06707 0.42805,0.13418 0.64349,0.08168c0.16574,-0.20246 0.28026,-0.4354 0.39573,-0.74797zM226.85077,177.22293c-0.25054,0.11188 -0.43287,0.26434 -0.63223,0.40666c-0.18183,0.11259 -0.30415,0.28067 -0.34116,0.49948c-0.09938,0.40246 -0.2587,0.78934 -0.48633,1.1356c-0.01755,0.0297 -0.02682,0.08438 -0.03559,0.09924c0.05901,0.09527 0.12727,0.13586 0.23893,0.14209c0.02582,-0.00468 0.06044,-0.02426 0.06922,-0.03912c0.3056,-0.40024 0.64532,-0.78013 1.01918,-1.13978c0.05217,-0.04925 0.12185,-0.12821 0.1228,-0.20792c0.07211,-0.27821 0.14419,-0.55642 0.04515,-0.8963zM224.50224,178.85641c0.28804,-0.37052 0.60146,-0.70588 0.92316,-1.01626c0.10426,-0.09851 0.14865,-0.21261 0.16761,-0.36187c0.01992,-0.22894 -0.0118,-0.44852 -0.03475,-0.68293c0.00096,-0.0797 0.01071,-0.17423 -0.10925,-0.20545c-0.23447,0.20173 -0.47721,0.37847 -0.67754,0.60045c-0.07832,0.79629 -0.07833,0.79625 -0.48231,1.51923c0.02487,0.07501 0.08438,0.13044 0.21308,0.14678zM227.83178,182.82333c-0.22618,0.22672 -0.43528,0.46362 -0.64437,0.70048c-0.05218,0.04925 -0.1043,0.09851 -0.12232,0.16805c-0.02091,0.30863 -0.05884,0.60718 0.03187,0.92204c0.31006,-0.05641 0.49284,-0.24873 0.71805,-0.39576c0.11258,-0.07349 0.14816,-0.17278 0.15836,-0.30718c0.00385,-0.31879 0.04181,-0.61733 0.10563,-0.92048c0.00878,-0.01485 -0.01655,-0.04999 -0.03315,-0.09998c-0.05996,-0.0156 -0.13706,-0.04136 -0.21404,-0.06708zM230.29002,179.20814c-0.3622,0.10568 -0.5962,0.26755 -0.84722,0.41927c-0.08678,0.0688 -0.11354,0.15321 -0.14034,0.23762c-0.10813,0.41733 -0.26752,0.80418 -0.50388,1.16532c-0.02633,0.04454 -0.0356,0.09925 -0.06187,0.1438c0.17895,0.1265 0.22185,0.13196 0.29201,0.01314c0.22809,-0.38616 0.53272,-0.70665 0.90512,-0.94673c0.22521,-0.14702 0.31342,-0.33538 0.34214,-0.57919c-0.00684,-0.14458 -0.00538,-0.26412 0.01407,-0.45321zM226.50714,180.06887c0.08533,0.05072 0.13748,0.00144 0.17258,-0.05794c0.24563,-0.4158 0.61897,-0.73561 0.99238,-1.05539c0.29537,-0.26583 0.42889,-0.64799 0.3659,-1.12694c-0.1984,0.06261 -0.30319,0.20098 -0.46747,0.28389c-0.33732,0.18067 -0.50397,0.46283 -0.6112,0.80045c-0.12472,0.36731 -0.23242,0.74479 -0.45952,1.05121c-0.00922,0.0547 -0.00097,0.07973 0.00734,0.10472zM229.08681,178.51261c-0.20766,0.1173 -0.36319,0.18535 -0.50161,0.26358c-0.23348,0.12205 -0.35583,0.2901 -0.41039,0.53858c-0.06429,0.34306 -0.20559,0.66039 -0.36395,0.96755c-0.04435,0.11413 -0.11454,0.2329 -0.17593,0.33685c0.07656,0.06562 0.11992,0.03121 0.13747,0.0015c0.33971,-0.37995 0.69649,-0.74971 1.11281,-1.06403c0.06092,-0.06411 0.11307,-0.11336 0.13986,-0.19776c0.03749,-0.25866 0.09205,-0.50716 0.06175,-0.84625zM228.99458,183.31422c-0.09841,0.32277 -0.30751,0.55962 -0.49956,0.80665c-0.04386,0.07425 -0.13016,0.10321 -0.13987,0.19775c-0.01898,0.14928 0.04546,0.50867 0.15421,0.75399c0.20721,-0.07746 0.34657,-0.23537 0.51136,-0.35813c0.13016,-0.10323 0.18326,-0.23217 0.16811,-0.40171c-0.01369,-0.28908 0.00672,-0.55792 0.09589,-0.82598c0.0088,-0.01485 -0.00784,-0.06485 -0.01611,-0.08983c-0.0595,-0.05545 -0.12776,-0.09606 -0.27401,-0.08267zM222.57944,180.8234c-0.02041,0.2688 -0.18663,0.51113 -0.14709,0.79554c0.12822,0.0562 0.2233,0.0124 0.32665,-0.00642c0.18965,-0.04779 0.37877,-0.05567 0.56059,-0.16828c0.05553,-0.32821 0.26509,-0.60495 0.34643,-0.93784c-0.05901,-0.09527 -0.14432,-0.14606 -0.24721,-0.16708c-0.25152,0.19159 -0.5284,0.34802 -0.8394,0.48412zM225.7221,181.74927c-0.12186,0.12822 -0.24373,0.25641 -0.39044,0.30962c-0.35389,0.13065 -0.48595,0.39332 -0.49855,0.72696c-0.00145,0.11953 -0.05409,0.20865 -0.00435,0.35868c0.2584,-0.04703 0.47434,-0.13933 0.69027,-0.23168c0.06046,-0.02425 0.09551,-0.08367 0.12231,-0.16806c0.0633,-0.26338 0.13492,-0.50173 0.19827,-0.76507c0.02634,-0.04454 0.02726,-0.12426 -0.11756,-0.23046zM224.64702,181.1099c-0.26125,0.28613 -0.53911,0.52222 -0.90131,0.62792c-0.07749,0.01411 -0.09552,0.08366 -0.13059,0.14307c-0.06188,0.1438 -0.10672,0.29779 -0.08326,0.4923c0.36175,-0.06582 0.63815,-0.18242 0.9233,-0.31384c0.09504,-0.04379 0.15599,-0.10788 0.19155,-0.20717c0.06241,-0.18363 0.1418,-0.35719 0.20416,-0.54084c0.0088,-0.01485 -0.00783,-0.06487 -0.01611,-0.08985c-0.05119,-0.03045 -0.1024,-0.0609 -0.1877,-0.11161zM231.15716,180.70721c0.01944,-0.1891 0.04772,-0.39307 0.06719,-0.58219c-0.00828,-0.02498 -0.01659,-0.05002 -0.03317,-0.09999c-0.26668,0.022 -0.47434,0.13933 -0.6391,0.26207c-0.15248,0.53144 -0.28742,1.03313 -0.58569,1.53808c0.37927,-0.09553 0.40014,-0.40419 0.56538,-0.56679c0.19155,-0.20718 0.40843,-0.37917 0.62534,-0.5512zM226.82234,176.72439c-0.06539,-0.27969 -0.09667,-0.53913 -0.27415,-0.78514c-0.12966,0.06334 -0.25885,0.08687 -0.36267,0.14556c-0.10381,0.05868 -0.2247,0.10716 -0.28609,0.21115c-0.02773,0.16409 0.03907,0.32426 0.063,0.47896c0.02396,0.15469 0.00494,0.30398 0.09758,0.4594c0.25982,-0.1666 0.49378,-0.32842 0.76237,-0.50986zM223.39257,178.2366c0.3314,-0.40493 0.6019,-0.74579 0.87241,-1.08657c0.01755,-0.0297 0.06097,-0.0641 0.04435,-0.11411c-0.02297,-0.2344 0.00574,-0.47822 -0.15468,-0.71409c-0.19108,0.1673 -0.37339,0.31979 -0.53862,0.48242c0.02008,0.47352 -0.07976,0.91581 -0.22347,1.43239zM225.94629,183.82922c0.215,-0.01262 0.33685,-0.14084 0.47529,-0.21903c0.16429,-0.0829 0.27734,-0.19625 0.30557,-0.40022c0.04627,-0.27349 0.09253,-0.54702 0.26702,-0.76438c-0.10193,-0.10076 -0.17894,-0.1265 -0.23158,-0.03739c-0.14863,0.2126 -0.30608,0.44007 -0.52249,0.57224c-0.3032,0.20097 -0.2983,0.50498 -0.2938,0.84878zM224.44991,182.49774c-0.37097,0.12053 -0.67272,0.20196 -0.95741,0.29351c-0.06141,0.10395 -0.04531,0.19382 -0.04625,0.27349c0.0161,0.08985 -0.00239,0.19921 0.0995,0.29997c0.25793,-0.00716 0.51625,-0.05417 0.76635,-0.12615c0.06284,-0.22349 0.09985,-0.44231 0.13783,-0.74082zM226.69921,184.81883c-0.02198,-0.3141 -0.0445,-0.58836 -0.05818,-0.87744c-0.2335,0.12202 -0.45824,0.22921 -0.68295,0.33635c0.00539,0.26411 -0.01455,0.49307 0.11131,0.74847c0.23252,-0.0423 0.42264,-0.12994 0.62982,-0.20739zM227.92222,176.73631c-0.25741,-0.0327 -0.42265,0.12994 -0.61276,0.21752c-0.06046,0.02425 -0.08725,0.10864 -0.07942,0.17351c0.01466,0.20942 0.02103,0.39381 0.04443,0.58836c-0.00878,0.01485 0.02538,0.03515 0.0595,0.05547c0.24229,-0.13684 0.47619,-0.29876 0.7185,-0.4356c0.00241,-0.19923 -0.06394,-0.39923 -0.1303,-0.59924zM230.2613,178.74956c0.02821,-0.20396 0.04771,-0.39305 -0.07859,-0.60866c-0.21548,0.05249 -0.46508,0.08464 -0.65568,0.2121c-0.01021,0.1344 -0.05455,0.2485 -0.03893,0.37819c-0.00146,0.11952 -0.08872,0.22821 0.03858,0.3641c0.25056,-0.11186 0.5011,-0.22374 0.73465,-0.34575zM227.2208,185.02871c-0.01069,0.17425 0.09905,0.33984 0.19998,0.52029c0.24181,-0.09698 0.49139,-0.12921 0.68248,-0.29648c-0.06635,-0.20003 -0.05518,-0.41409 -0.17272,-0.64455c-0.24229,0.13684 -0.46749,0.28387 -0.70974,0.42075zM230.19296,183.70588c-0.17496,0.25716 -0.29042,0.56981 -0.49956,0.80667c-0.16572,0.20247 -0.1164,0.3923 0.01818,0.6329c0.21591,-0.09231 0.34657,-0.23538 0.50302,-0.38315c-0.0815,-0.36953 -0.00016,-0.70248 -0.02167,-1.05642zM222.55975,177.46033c0.07703,0.02576 0.10333,-0.0188 0.12966,-0.06334c0.1311,-0.1829 0.25392,-0.39082 0.4021,-0.56359c0.23492,-0.24158 0.152,-0.49157 0.02664,-0.78688c-0.09555,0.08369 -0.17351,0.13762 -0.23444,0.20172c-0.15644,0.14778 -0.27002,0.30095 -0.21294,0.55568c0.02394,0.15469 -0.02093,0.30866 -0.05693,0.4478c-0.05218,0.04925 -0.13013,0.10321 -0.05408,0.20864zM221.58393,180.71298c0.1204,-0.00865 0.20671,-0.03761 0.28421,-0.05171c0.24081,-0.0173 0.371,-0.12054 0.44212,-0.31905c0.05362,-0.16878 0.16718,-0.32201 0.23783,-0.48067c0.02635,-0.04455 0.0697,-0.07895 -0.04099,-0.16486c-0.20818,0.15715 -0.45042,0.29406 -0.71805,0.39576c-0.06046,0.02425 -0.10428,0.09849 -0.13939,0.15788c-0.03605,0.13908 -0.06334,0.26337 -0.06571,0.46261zM225.50606,183.98881c0.01947,-0.18909 0.06477,-0.38289 0.02423,-0.58762c-0.26714,0.06189 -0.5338,0.08389 -0.76731,0.20588c0.01468,0.20941 -0.02187,0.38834 0.11321,0.58911c0.2155,-0.05247 0.43927,-0.07991 0.62982,-0.2074zM228.43536,178.36599c0.26712,-0.06189 0.4748,-0.17921 0.64829,-0.31682c-0.01466,-0.2094 -0.02106,-0.39379 -0.0957,-0.61881c-0.18918,0.00791 -0.34467,0.07599 -0.49187,0.16905c-0.01164,0.25394 -0.04035,0.49777 -0.06079,0.76657zM223.58376,183.76867c0.041,0.16488 0.04832,0.26954 0.09858,0.37969c0.02489,0.075 0.05851,0.13515 0.0922,0.19531c0.21449,0.02724 0.4295,0.01462 0.61963,-0.07298c0.00241,-0.19923 0.00477,-0.39849 -0.10449,-0.60395c-0.23252,0.0423 -0.44753,0.05494 -0.70588,0.10195zM221.80932,179.12117c-0.29299,0.0666 -0.49966,0.10417 -0.74098,0.16134c-0.05217,0.04925 -0.0965,0.16332 -0.09793,0.2829c-0.0185,0.10939 -0.11403,0.19305 -0.05552,0.32822c0.17991,0.04678 0.32615,0.03343 0.47289,-0.01976c0.12329,-0.24777 0.25491,-0.47053 0.42158,-0.75268zM226.92804,175.80386c0.04149,0.12502 0.08295,0.25004 0.12438,0.37503c0.04149,0.12503 0.09173,0.23515 0.13317,0.36014c0.21594,-0.09229 0.4056,-0.14006 0.53621,-0.28311c0.00144,-0.11953 -0.0834,-0.21014 -0.14238,-0.30544c-0.05901,-0.09527 -0.09173,-0.23515 -0.21992,-0.29134c-0.16383,0.04308 -0.31003,0.05641 -0.43144,0.14478zM225.63014,185.10615c-0.04881,-0.22969 -0.02884,-0.45868 -0.16349,-0.69928c-0.18963,0.04779 -0.36219,0.10568 -0.55186,0.15344c0.0488,0.22969 0.07221,0.42426 0.23317,0.62031c0.16331,-0.00322 0.3091,0.0233 0.48215,-0.07447zM224.70068,176.6466c0.26031,-0.2064 0.48597,-0.39327 0.71162,-0.58012c-0.01561,-0.12972 -0.01416,-0.24927 -0.11608,-0.35c-0.28423,0.05174 -0.49233,0.20887 -0.71753,0.3559c0.01562,0.12973 0.03123,0.25941 0.07269,0.3844c-0.01805,0.06957 0.00734,0.10469 0.04926,0.18983zM223.04882,182.52739c-0.00593,-0.22428 0.09937,-0.40248 0.03302,-0.60249c-0.27543,0.03689 -0.52502,0.06905 -0.76686,0.16607c0.05807,0.17503 -0.02969,0.3235 0.08834,0.5141c0.21448,0.02722 0.39588,-0.04552 0.64548,-0.07767zM231.19576,178.92404c-0.1721,0.01806 -0.33588,0.06114 -0.47433,0.13936c-0.00286,0.23913 -0.02282,0.46805 -0.04323,0.73685c0.19886,-0.10245 0.37145,-0.16037 0.59571,-0.22767c0.00287,-0.23912 0.01406,-0.45322 -0.07814,-0.64854zM221.47628,181.09046c-0.0458,0.23365 -0.09107,0.42747 0.00938,0.64777c0.18037,0.00692 0.33491,0.0186 0.47338,-0.05962c0.03701,-0.21881 0.09106,-0.42742 0.12856,-0.68611c-0.215,0.01262 -0.41293,0.03539 -0.61133,0.09799zM229.52342,177.92945c0.22472,-0.10716 0.4651,-0.08465 0.59573,-0.22772c-0.01466,-0.2094 -0.09855,-0.37971 -0.20828,-0.54532c-0.19792,0.02277 -0.3871,0.03066 -0.53479,0.16356c0.04926,0.18984 0.08153,0.36955 0.14737,0.6094zM227.00697,185.66411c-0.05806,-0.17502 -0.08197,-0.32969 -0.20048,-0.48044c-0.21591,0.09231 -0.46508,0.08461 -0.6474,0.23709c0.04099,0.16488 0.10829,0.28518 0.25311,0.39137c0.20669,-0.03761 0.4051,-0.1002 0.59472,-0.14801zM224.07368,175.91243c-0.03221,-0.17971 -0.08245,-0.28981 -0.17558,-0.40549c-0.18965,0.04779 -0.37977,0.13536 -0.48499,0.31359c0.04977,0.15 0.0995,0.29996 0.14048,0.46486c0.23304,-0.08216 0.35534,-0.25021 0.5201,-0.37299zM230.55814,185.50837c-0.0585,-0.13513 -0.10878,-0.24532 -0.20237,-0.32104c-0.1901,0.08758 -0.34608,0.19556 -0.47671,0.33861c0.03266,0.13984 0.08291,0.25 0.18483,0.35074c0.20721,-0.07746 0.32951,-0.24553 0.49425,-0.3683zM223.98476,184.72959c-0.00288,0.23909 0.12487,0.33514 0.28723,0.41164c0.11944,0.07105 0.25646,0.11239 0.37785,0.02401c-0.03221,-0.17971 -0.07318,-0.34454 -0.18292,-0.51015c-0.1721,0.01806 -0.32712,0.04627 -0.48214,0.07447zM231.95042,181.19903c0.02775,-0.1641 0.09793,-0.28289 0.02234,-0.42818c-0.49042,0.04949 -0.57182,0.38238 -0.58534,0.79573c0.1906,-0.12745 0.37246,-0.24008 0.56301,-0.36754zM222.59942,183.44418c0.18867,0.03197 0.33491,0.01859 0.51627,-0.05418c-0.07563,-0.14528 -0.00498,-0.30397 -0.1064,-0.44455c-0.11118,-0.04608 -0.18037,-0.00695 -0.27495,-0.00301c-0.10331,0.0188 -0.20622,-0.00224 -0.26764,0.1017c0.01562,0.12973 0.03126,0.25944 0.13269,0.40002zM226.93469,180.24289c0.13506,0.20073 0.25502,0.23196 0.35101,0.10844c0.13111,-0.1829 0.22809,-0.38612 0.31628,-0.57449c0.0351,-0.05937 0.06185,-0.14382 -0.02298,-0.23441c-0.24323,0.21657 -0.45229,0.45342 -0.64435,0.70044zM227.96214,186.27231c-0.01851,0.10939 0.02344,0.19456 0.11705,0.27032c0.24962,-0.03216 0.52459,-0.02916 0.74979,-0.17618c-0.15215,-0.21089 -0.32331,-0.27258 -0.53046,-0.1951c-0.10333,0.01881 -0.23209,0.00247 -0.33638,0.10095zM229.30915,181.45436c0.23889,0.14208 0.30767,0.14278 0.3866,0.00918c0.10574,-0.21806 0.22026,-0.45096 0.25775,-0.70963c-0.29443,0.18613 -0.56302,0.36755 -0.64436,0.70045zM230.96594,184.46658c-0.08724,0.10863 -0.14863,0.21264 -0.22711,0.3064c-0.13992,0.19775 -0.13987,0.19777 0.12342,0.45473c0.09555,-0.08369 0.21693,-0.17203 0.26906,-0.22127c-0.06633,-0.20003 -0.10732,-0.36484 -0.16538,-0.53984zM229.43106,176.32926c-0.14627,0.01334 -0.31739,-0.04826 -0.4139,0.11508c0.05851,0.13515 0.1429,0.2656 0.20972,0.42574c0.17211,-0.01806 0.35248,-0.01107 0.47384,-0.09946c-0.07565,-0.14529 -0.12535,-0.29533 -0.26968,-0.44137zM229.23184,185.02068c-0.19933,0.14234 -0.41579,0.27446 -0.61514,0.4168c-0.0097,0.09454 0.00635,0.18437 0.12627,0.21557c0.23252,-0.0423 0.44853,-0.13462 0.61373,-0.29725c-0.01561,-0.12972 -0.0488,-0.22969 -0.12491,-0.33516zM231.62788,179.44195c0.12822,0.0562 0.24866,0.04756 0.36955,-0.00097c0.00096,-0.07971 0.00191,-0.1594 0.00285,-0.23911c-0.00731,-0.10468 0.00239,-0.19926 -0.08247,-0.28984c-0.10238,-0.0609 -0.20523,-0.08196 -0.31737,-0.04827c0.00639,0.18443 0.02108,0.39382 0.0274,0.57819zM228.44151,177.14552c0.17211,-0.01806 0.30178,-0.08143 0.42315,-0.16978c-0.08387,-0.17029 -0.15073,-0.33043 -0.2263,-0.47571c-0.16287,-0.03661 -0.28374,0.01188 -0.35345,0.09082c0.04926,0.18984 0.09857,0.37969 0.15657,0.55471zM232.03846,180.30821c0.00144,-0.11953 0.00288,-0.23909 -0.01272,-0.36882c-0.00829,-0.02497 -0.04244,-0.0453 -0.06782,-0.08048c-0.09457,0.00395 -0.2145,-0.02725 -0.33588,0.06113c-0.01896,0.14929 -0.07253,0.31806 -0.02329,0.50791c0.18035,0.00691 0.30125,-0.04162 0.4397,-0.1198zM232.18864,182.12336c0.11355,-0.15321 0.31883,-0.07129 0.40654,-0.21977c0.0019,-0.15937 0.06383,-0.30317 -0.00254,-0.50319c-0.16331,0.00322 -0.3096,0.01658 -0.3373,0.18067c-0.02776,0.1641 -0.12376,0.28759 -0.0667,0.5423zM229.32037,186.23724c0.12966,-0.06336 0.27639,-0.11658 0.39727,-0.16506c0.02584,-0.00469 0.02634,-0.04457 0.04385,-0.07426c-0.06779,-0.08045 -0.10922,-0.20546 -0.28915,-0.25222c-0.15547,0.06808 -0.31979,0.15096 -0.50114,0.22375c0.08435,0.13045 0.178,0.20619 0.34912,0.26786zM228.38575,176.06881c-0.04975,-0.15 -0.09074,-0.31485 -0.13221,-0.43983c-0.1799,-0.0468 -0.32617,-0.03346 -0.45534,-0.00992c-0.04434,0.11414 0.06634,0.19997 0.10829,0.28516c0.04198,0.08516 0.07512,0.18515 0.20336,0.24135c0.08581,0.01089 0.1804,0.00693 0.27594,-0.07673zM221.47257,182.11171c0.02396,0.15469 0.04832,0.26958 0.07271,0.3844c-0.0005,0.03985 0.04195,0.08517 0.05026,0.11016c0.11944,0.07105 0.23988,0.06241 0.36076,0.01388c-0.01516,-0.16956 -0.01325,-0.32897 -0.07122,-0.50395c-0.1287,-0.01632 -0.24912,-0.00768 -0.41244,-0.00447zM231.43538,184.72571c0.18233,-0.15246 0.36459,-0.30493 0.43623,-0.54328c-0.17989,-0.04678 -0.32524,-0.11315 -0.48071,-0.04509c-0.06383,0.30319 -0.06382,0.30321 0.04447,0.58835zM222.76665,183.82459c0.12343,0.45474 0.14048,0.46483 0.53543,0.499c-0.041,-0.16488 -0.10781,-0.32497 -0.14876,-0.48986c-0.12822,-0.0562 -0.24863,-0.04753 -0.38661,-0.0092zM231.13237,178.48499c-0.01515,-0.16954 -0.04785,-0.30942 -0.14927,-0.45004c-0.04291,-0.00545 -0.11166,-0.0062 -0.18041,-0.00696c-0.05168,0.00941 -0.11214,0.03366 -0.16377,0.04305c0.01517,0.16954 0.00448,0.34382 0.09713,0.49927c0.12868,0.01633 0.26668,-0.02199 0.39631,-0.08539zM220.86093,180.80477c0.06873,0.00072 0.16332,-0.00323 0.20672,-0.03761c0.14772,-0.13291 0.20125,-0.30169 0.1783,-0.53614c-0.13748,-0.00152 -0.29153,-0.05299 -0.39539,0.00569c-0.01947,0.18909 -0.09888,0.36261 0.01036,0.56805zM225.12895,175.33598c-0.00826,-0.02498 -0.01658,-0.04999 -0.03317,-0.09999c-0.29205,-0.01312 -0.55919,0.04874 -0.82631,0.11062c-0.01021,0.1344 0.03174,0.21953 0.15947,0.31558c0.22472,-0.10716 0.46647,-0.20419 0.70002,-0.3262zM228.68729,180.28182c-0.23398,0.16188 -0.4762,0.29874 -0.60828,0.56135c-0.0088,0.01485 0.04198,0.08514 0.07609,0.10543c0.08534,0.05071 0.18867,0.03192 0.2325,-0.04235c0.16524,-0.16261 0.24516,-0.37599 0.2997,-0.62445zM230.87625,177.63025c-0.03265,-0.13986 -0.06538,-0.27971 -0.14974,-0.41017c-0.11945,-0.07106 -0.22233,-0.0921 -0.36904,-0.0389c0.06683,0.16017 0.12486,0.33516 0.20045,0.48045c0.1199,0.03118 0.21449,0.02722 0.31834,-0.03142zM225.2203,185.60489c0.23014,0.15693 0.42613,0.29362 0.69232,0.31144c0.02774,-0.16409 -0.05659,-0.29455 -0.1668,-0.42031c-0.18915,0.00792 -0.35247,0.01111 -0.52554,0.1089zM220.69484,178.89985c0.20623,0.00224 0.23204,-0.00243 0.2584,-0.047c0.10479,-0.13833 0.09842,-0.32278 0.08326,-0.4923c-0.00781,-0.06482 -0.0844,-0.13043 -0.18822,-0.07178c0.02343,0.19456 -0.1589,0.34704 -0.15342,0.61113zM225.7501,175.84589c0.24181,-0.09698 0.49189,-0.16903 0.65805,-0.41137c-0.30029,-0.03812 -0.52507,0.06904 -0.7322,0.14652c-0.02683,0.08439 0.00686,0.14453 0.07418,0.26484zM222.01187,182.99437c-0.11164,-0.00618 -0.21451,-0.02722 -0.32614,-0.03341c0.00636,0.18444 0.04736,0.34927 0.2614,0.41634c0.05997,0.0156 0.1199,0.03117 0.17209,-0.01807c0.0185,-0.10939 -0.03174,-0.21956 -0.10733,-0.36484zM230.54025,181.98588c0.15361,0.09132 0.23937,0.10226 0.29248,-0.02669c0.04435,-0.11413 0.08868,-0.22823 0.11595,-0.35249c0.00922,-0.0547 0.00145,-0.11957 -0.07559,-0.14531c-0.15645,0.14776 -0.25294,0.31113 -0.33285,0.52448zM224.23094,177.83216c-0.18233,0.15247 -0.33047,0.32525 -0.39332,0.54874c-0.00878,0.01486 0.04198,0.08514 0.05901,0.09528c0.03411,0.02029 0.09458,-0.00396 0.11213,-0.03368c0.09698,-0.2032 0.23638,-0.36114 0.22219,-0.61042zM223.11366,177.84999c0.03653,-0.17894 0.13304,-0.34235 0.12718,-0.56658c-0.19934,0.14232 -0.32997,0.28538 -0.33141,0.40493c-0.0185,0.10939 0.04974,0.15001 0.20427,0.16163zM226.98083,186.41112c0.2311,0.07722 0.47004,0.21932 0.69475,0.11216c-0.237,-0.30147 -0.4617,-0.1943 -0.69475,-0.11216zM228.3384,183.56619c0.03411,0.02028 0.06002,0.01562 0.09412,0.0359c0.07064,-0.15865 0.21785,-0.25173 0.21146,-0.43614c-0.0936,-0.07576 -0.15359,-0.09134 -0.24865,-0.04753c-0.01021,0.1344 -0.0292,0.28365 -0.05693,0.4478zM226.36316,179.18049c-0.17399,0.17747 -0.30462,0.32054 -0.39284,0.50889c-0.01755,0.0297 -0.00096,0.07969 0.05023,0.11014c0.0171,0.01015 0.05997,0.0156 0.08581,0.01089c0.18233,-0.15246 0.28756,-0.33067 0.25678,-0.62992zM221.04578,181.1555c-0.11991,-0.03117 -0.18865,-0.03195 -0.18085,0.03292c-0.01021,0.1344 -0.00334,0.27896 0.0035,0.42352c0.0161,0.08984 0.06728,0.12029 0.15357,0.09134c0.04533,-0.19379 0.07306,-0.35793 0.02379,-0.54776zM230.15605,176.7805c0.09457,-0.00395 0.18039,0.00692 0.27496,0.00298c0.02584,-0.00467 0.04337,-0.0344 0.08678,-0.06879c-0.20473,-0.1218 -0.36615,-0.27796 -0.6231,-0.35052c0.06683,0.16017 0.11706,0.2703 0.26139,0.41633zM224.03264,180.74447c-0.07066,0.15865 -0.13255,0.30248 -0.22075,0.49084c0.2584,-0.04704 0.38852,-0.15021 0.45916,-0.30888c-0.05901,-0.09528 -0.10142,-0.1406 -0.23843,-0.18196zM229.61032,183.56001c0.00684,0.14458 -0.12376,0.28757 0.0113,0.48834c0.26171,-0.32599 0.30557,-0.40021 0.23779,-0.48068c-0.08534,-0.05071 -0.15408,-0.05151 -0.24912,-0.00769zM225.32167,178.60128c-0.33638,0.10094 -0.4416,0.27918 -0.50495,0.54254c0.34418,-0.03614 0.33043,-0.32522 0.50495,-0.54254zM231.85751,181.78592c-0.31053,0.09626 -0.40704,0.25966 -0.47817,0.45816c-0.00878,0.01485 0.01658,0.05 0.05071,0.07029c0.05119,0.03047 0.10288,0.02104 0.1204,-0.00867c0.1048,-0.13833 0.17544,-0.29698 0.30702,-0.51975zM230.56111,183.82448c-0.02775,0.1641 -0.09841,0.32277 0.01083,0.52816c0.13893,-0.11807 0.2008,-0.26188 0.25392,-0.39081c-0.07606,-0.10545 -0.15308,-0.13117 -0.26475,-0.13738zM232.59646,181.08152c-0.04051,-0.20472 0.05599,-0.36807 -0.07958,-0.52897c-0.17399,0.17747 -0.17399,0.17746 -0.10911,0.49701c0.04291,0.00545 0.0858,0.01089 0.18867,0.03194zM227.62379,185.83021c0.26522,0.09752 0.46364,0.03493 0.65375,-0.05269c0.00144,-0.11953 -0.06683,-0.16017 -0.14432,-0.14605c-0.15548,0.06808 -0.32809,0.12599 -0.5094,0.19875zM231.50241,178.44413c0.11119,0.04606 0.20526,0.08195 0.30907,0.02329c-0.02439,-0.11483 -0.04878,-0.22971 -0.14238,-0.30542c-0.09409,-0.03591 -0.16285,-0.03662 -0.23209,0.00247c-0.00971,0.09454 0.01516,0.16955 0.0654,0.27969zM226.20344,182.45699c0.12137,-0.08834 0.20817,-0.15717 0.22665,-0.26658c0.0005,-0.03985 -0.02487,-0.07501 -0.05025,-0.11016c-0.05119,-0.03047 -0.13701,-0.04136 -0.14625,0.01333c-0.05265,0.08912 -0.11405,0.19307 -0.03015,0.36341zM229.1009,175.91214c-0.12728,-0.13591 -0.30767,-0.14283 -0.46173,-0.1943c0.09073,0.31486 0.12489,0.33514 0.46173,0.1943zM222.1668,177.26676c0.19985,-0.18218 0.19985,-0.18216 0.0989,-0.36264c-0.08678,0.0688 -0.18231,0.15249 -0.0989,0.36264zM227.48121,182.67504c-0.04198,-0.08516 -0.09316,-0.11559 -0.12774,-0.09604c-0.15548,0.06808 -0.16475,0.12277 -0.0901,0.34777c0.11261,-0.07348 0.16527,-0.16261 0.2179,-0.25172zM232.50402,182.331c-0.12919,0.02355 -0.2413,0.0572 -0.26859,0.1814c0.29935,0.11781 0.33393,0.0983 0.26859,-0.1814zM222.11546,176.53388c-0.16383,0.04308 -0.25107,0.1517 -0.3295,0.2455c-0.0351,0.05938 -0.01022,0.13442 0.12727,0.13592c0.07844,-0.09381 0.16573,-0.20247 0.20225,-0.38141zM232.46456,179.89934c-0.12186,0.12822 -0.11454,0.23291 0.00446,0.34382c0,0 0.04291,0.00544 0.05167,-0.00942c0.06968,-0.07897 0.00244,-0.19923 -0.05611,-0.33443zM225.13022,181.65815c0.11991,0.03117 0.18917,-0.0079 0.20717,-0.07745c0.01755,-0.0297 0.00096,-0.07971 -0.02438,-0.11486c-0.02537,-0.03514 -0.09407,-0.0359 -0.1116,-0.00618c-0.04339,0.03441 -0.07847,0.0938 -0.07116,0.1985zM231.20393,177.5442c0.00684,0.14457 0.04878,0.22971 0.22042,0.25147c-0.01517,-0.16954 -0.06585,-0.23986 -0.22042,-0.25147z" fill="#767676"/><path d="M221.83767,186.76384c0.5373,0.33963 1.07464,0.67929 1.62073,1.00405c0.61436,0.36539 1.26378,0.67134 1.94002,0.89291c0.21402,0.06708 0.41144,0.08418 0.65131,0.14656c-0.14038,0.23764 -0.24607,0.45567 -0.38596,0.65342c-0.80514,1.20687 -1.53373,2.47932 -2.31349,3.72135c-0.70084,1.10835 -1.3758,2.21204 -2.05957,3.33056c-0.47322,0.7621 -0.93769,1.50934 -1.41092,2.27141c-0.44692,0.71756 -0.8509,1.44052 -1.29779,2.15808c-0.0351,0.0594 -0.07019,0.11882 -0.12233,0.16807c-0.3354,0.02131 -0.63525,-0.05673 -0.96043,-0.16983c-0.51341,-0.18493 -1.02631,-0.4097 -1.49534,-0.70871c-0.15361,-0.09132 -0.31594,-0.16782 -0.40858,-0.32328c0.17115,0.06164 0.31546,0.20766 0.54703,0.24507c0.02093,-0.30862 0.22122,-0.53066 0.34453,-0.77845c0.00878,-0.01485 0.01755,-0.02968 0.00051,-0.03984c0.10035,-0.48215 0.35476,-0.91284 0.51505,-1.37942c0.0536,-0.16879 0.05598,-0.36807 0.17781,-0.49627c0.20961,-0.2767 0.22265,-0.65023 0.43225,-0.92698c0.00878,-0.01485 0.00924,-0.05471 0.02681,-0.08441c0.11545,-0.31259 0.20515,-0.6205 0.35473,-0.91281c0.19298,-0.32672 0.23193,-0.70496 0.45903,-1.01137c0.01164,-0.25394 0.15984,-0.4267 0.26558,-0.64476c0.01755,-0.0297 0.02632,-0.04459 0.04387,-0.07424c0.03893,-0.37822 0.29139,-0.64948 0.3986,-0.98711c0.10718,-0.33761 0.32552,-0.62918 0.44977,-0.95665c0.15059,-0.37203 0.24114,-0.75962 0.50291,-1.0856c0.01755,-0.0297 0.04388,-0.07426 0.04435,-0.11411c-0.00593,-0.22428 0.15058,-0.37201 0.23879,-0.56036c0.05265,-0.08912 0.13108,-0.18289 0.1496,-0.29232c0.01072,-0.17424 0.09794,-0.2829 0.1769,-0.41657c0.04387,-0.07426 0.10481,-0.13837 0.10573,-0.21805c0.01164,-0.25394 0.16858,-0.44156 0.28262,-0.63461c0.04387,-0.07426 0.10477,-0.13835 0.10575,-0.21806c0.0112,-0.21408 0.12472,-0.36731 0.22125,-0.53067c0.1579,-0.26735 0.19636,-0.60567 0.37132,-0.86282c0.04337,-0.03441 0.01852,-0.10938 0.02774,-0.16411z" fill="#87d7dc"/><path d="M221.83765,186.76387c-0.00925,0.05469 0.01564,0.12971 -0.01068,0.17427c-0.17495,0.25718 -0.23048,0.58537 -0.37131,0.86283c-0.09652,0.16335 -0.21008,0.31659 -0.22125,0.53066c-0.00096,0.07971 -0.06189,0.14382 -0.10571,0.21805c-0.11401,0.19307 -0.25394,0.39081 -0.28267,0.63461c-0.00096,0.0797 -0.07895,0.13368 -0.10573,0.21806c-0.07895,0.13365 -0.14914,0.25248 -0.1769,0.41658c-0.0185,0.10939 -0.097,0.20323 -0.14963,0.29233c-0.08819,0.18835 -0.24465,0.33614 -0.23877,0.56037c-0.0005,0.03985 -0.0268,0.0844 -0.04434,0.11411c-0.25296,0.31113 -0.35233,0.71361 -0.50289,1.08562c-0.13305,0.34234 -0.35137,0.63387 -0.44982,0.95663c-0.10717,0.33759 -0.35965,0.60889 -0.39858,0.9871c0.00826,0.02499 -0.02634,0.04456 -0.04389,0.07426c-0.11401,0.19307 -0.2539,0.39082 -0.26556,0.64479c-0.24419,0.29628 -0.2831,0.6745 -0.45905,1.01135c-0.16669,0.28215 -0.23925,0.60022 -0.35475,0.91282c-0.01755,0.0297 -0.00922,0.05475 -0.02678,0.08442c-0.20961,0.2767 -0.22265,0.65022 -0.43225,0.92697c-0.11355,0.15321 -0.10721,0.33761 -0.17783,0.49626c-0.17736,0.45641 -0.41469,0.89726 -0.51505,1.3794c-0.00878,0.01485 -0.00045,0.03987 -0.00045,0.03987c-0.12329,0.24778 -0.32364,0.4698 -0.34453,0.77845c-0.21451,-0.02723 -0.35007,-0.18815 -0.54703,-0.24508c-0.1365,-0.08117 -0.27301,-0.16241 -0.33985,-0.32259c0.05265,-0.08912 0.13109,-0.1829 0.14958,-0.2923c0.06475,-0.38289 0.26609,-0.68462 0.41617,-1.01681c0.15007,-0.33214 0.21483,-0.71508 0.45901,-1.01133c0.01164,-0.25394 0.15981,-0.42673 0.26556,-0.64478c0.01755,-0.0297 0.04386,-0.07425 0.04434,-0.11411c-0.00637,-0.18442 0.11548,-0.31259 0.17738,-0.45643c0.04387,-0.07426 0.0877,-0.14853 0.10574,-0.21805c0.10765,-0.37748 0.24113,-0.75962 0.44291,-1.10121c0.02635,-0.04455 0.07851,-0.0938 0.06188,-0.14381c0.00241,-0.19922 0.10717,-0.33761 0.19489,-0.48612c0.11355,-0.15321 0.08181,-0.37279 0.20416,-0.54083c0.15743,-0.22746 0.20368,-0.50097 0.3099,-0.75888c0.15886,-0.34704 0.24069,-0.71976 0.44248,-1.06133c0.0351,-0.0594 0.09602,-0.12351 0.08819,-0.18837c0.00196,-0.1594 0.0979,-0.28291 0.15981,-0.4267c0.07019,-0.1188 0.12329,-0.24774 0.15061,-0.37202c0.0458,-0.23365 0.12567,-0.44702 0.24847,-0.65496c0.16715,-0.322 0.23191,-0.70494 0.47608,-1.00119c0.01755,-0.0297 0.02682,-0.08438 0.04436,-0.11412c0.13305,-0.34234 0.24894,-0.69479 0.41615,-1.01676c0.19298,-0.32672 0.24946,-0.73464 0.4766,-1.04105c0.02635,-0.04455 0.01848,-0.1094 0.02775,-0.16411c0.0799,-0.21336 0.18566,-0.43142 0.35089,-0.59402c0.0941,0.03591 0.16235,0.07646 0.23938,0.10225c0.21261,0.18666 0.39982,0.33813 0.61291,0.48495z" fill="#b0eef2"/><path d="M232.70117,183.09044c-0.11547,0.31257 -0.23001,0.54551 -0.42986,0.72769c-0.20672,0.0376 -0.42073,-0.02945 -0.64351,-0.08168c-1.0877,-0.30573 -2.16664,-0.62634 -3.20956,-1.08603c-0.78644,-0.34733 -1.58997,-0.70478 -2.3496,-1.13647c-0.20476,-0.12179 -0.41788,-0.26857 -0.64896,-0.34585c-0.0941,-0.03591 -0.19651,-0.09681 -0.29886,-0.15768c-0.37448,-0.30299 -0.80158,-0.51687 -1.20239,-0.77531c-0.57146,-0.35991 -1.10784,-0.77925 -1.62663,-1.22828c-0.25501,-0.23193 -0.51882,-0.44904 -0.79969,-0.67625c-0.22134,-0.1718 -0.3735,-0.38267 -0.53443,-0.57873c0.03847,-0.33837 0.08278,-0.45245 0.32746,-0.78857c0.36664,0.23809 0.6724,0.54036 1.02148,0.80819c0.33204,0.25769 0.68114,0.52551 1.02197,0.76836c0.35786,0.25298 0.74164,0.50128 1.10827,0.7394c0.34079,0.24284 0.75135,0.40668 1.06589,0.69411c0.41931,0.14903 0.7684,0.41687 1.15263,0.62532c0.36714,0.1983 0.76011,0.39185 1.13604,0.57531c0.39299,0.19359 0.79471,0.3723 1.21355,0.56122c0.38469,0.16859 0.77766,0.36217 1.17115,0.51589c0.41052,0.16387 0.82152,0.28792 1.24083,0.43696c0.43636,0.15918 0.82981,0.31291 1.28421,0.40252z" fill="url(#color-1)"/><path d="M221.23297,186.30393c-0.07702,-0.02575 -0.1453,-0.06635 -0.23938,-0.10223c-0.16523,0.16263 -0.27925,0.35566 -0.35089,0.59403c-0.00926,0.0547 -0.00145,0.11955 -0.02775,0.16409c-0.22713,0.30641 -0.30066,0.70422 -0.47659,1.04106c-0.18422,0.31187 -0.28312,0.67448 -0.41618,1.01676c-0.01755,0.0297 -0.02681,0.08441 -0.04434,0.1141c-0.24421,0.29626 -0.28313,0.67445 -0.47611,1.00119c-0.11401,0.19307 -0.20272,0.42129 -0.24847,0.65495c-0.03604,0.13906 -0.08914,0.26806 -0.15058,0.37202c-0.07895,0.13365 -0.16618,0.24231 -0.15981,0.42673c0.0078,0.06483 -0.05313,0.12896 -0.08822,0.18837c-0.19298,0.32672 -0.28356,0.71433 -0.44244,1.06133c-0.10625,0.2579 -0.15247,0.53142 -0.30991,0.75887c-0.11355,0.15321 -0.08181,0.37277 -0.20416,0.54083c-0.10479,0.13835 -0.21834,0.29156 -0.19493,0.48613c-0.00926,0.0547 -0.03557,0.09924 -0.06186,0.1438c-0.20176,0.34154 -0.32652,0.70883 -0.44291,1.1012c-0.02683,0.08439 -0.08769,0.14851 -0.10574,0.21803c-0.07895,0.13365 -0.1837,0.27204 -0.17733,0.45642c-0.0005,0.03985 -0.02679,0.08441 -0.04434,0.1141c-0.11401,0.19307 -0.25391,0.39082 -0.26556,0.64478c-0.24419,0.29627 -0.30896,0.67919 -0.45901,1.01134c-0.15007,0.33214 -0.36013,0.64872 -0.41615,1.01676c-0.01851,0.10939 -0.097,0.20319 -0.14961,0.29232c-0.16237,-0.0765 -0.21211,-0.22647 -0.32282,-0.31238c0.2831,-0.67447 0.53161,-1.32942 0.79718,-1.97418c0.2836,-0.71433 0.57547,-1.40366 0.8761,-2.10784c0.27435,-0.65965 0.5316,-1.32943 0.78889,-1.9992c0.32793,-0.82844 0.63002,-1.65217 0.94916,-2.46577c0.24803,-0.6151 0.49608,-1.23014 0.72699,-1.85538c0.38103,-0.9574 0.83912,-1.88907 1.186,-2.86675c0.0531,-0.12894 0.07209,-0.27821 0.20224,-0.38141c0.15361,0.09132 0.28084,0.22724 0.4169,0.3483c0.0678,0.08044 0.23891,0.14207 0.33159,0.29754z" fill="#87d7dc"/><path d="M215.71729,200.48271c0.37591,0.18343 0.69969,0.41612 1.08436,0.58468c0.44466,0.18419 0.89809,0.3535 1.40412,0.43374c-0.50878,0.86136 -1.0088,1.70784 -1.50004,2.5395c-0.28421,0.05174 -0.54115,-0.02083 -0.7898,-0.06836c-0.47144,-0.09977 -0.88148,-0.30351 -1.3086,-0.51739c-0.0171,-0.01015 -0.04242,-0.04529 -0.05075,-0.0703c0.20621,0.00225 0.22519,-0.147 0.26123,-0.28614c0.09011,-0.34778 0.19728,-0.68537 0.38981,-0.97223c0.0351,-0.0594 0.07018,-0.11881 0.08818,-0.18836c0.06429,-0.34309 0.25679,-0.62992 0.37226,-0.94255c0.06241,-0.18363 0.09835,-0.32273 0.04911,-0.5126z" fill="#61afb4"/><path d="M222.14371,184.17654c0.54464,0.44433 1.15068,0.78468 1.72165,1.18445c0.26425,0.17724 0.55487,0.30992 0.84547,0.44262c0.52952,0.2748 1.04096,0.61909 1.60557,0.83444c0.22233,0.0921 0.44464,0.1842 0.65868,0.2513c0.13702,0.04136 0.26521,0.09751 0.38469,0.16858c-0.00922,0.0547 -0.00974,0.09455 -0.0273,0.12427c-0.0702,0.11879 -0.14033,0.23762 -0.2105,0.35644c-0.11163,-0.00618 -0.19744,-0.01713 -0.30031,-0.03814c-0.71958,-0.18714 -1.45631,-0.38446 -2.12187,-0.78029c-0.58901,-0.33021 -1.19501,-0.67058 -1.74896,-1.06021c-0.44326,-0.30374 -0.89522,-0.59261 -1.25119,-1.00498c0.10287,0.02101 0.17894,0.12647 0.29982,0.07796c0.13062,-0.14306 0.29586,-0.30567 0.14419,-0.5564z" fill="#767676"/><path d="M221.96553,185.4151c0.30766,0.14285 0.52805,0.39434 0.80938,0.58172c0.6056,0.38023 1.21116,0.76048 1.84306,1.09613c0.51242,0.26463 1.0429,0.45968 1.57384,0.61492c0.13702,0.04136 0.27399,0.08267 0.411,0.12402c-0.12281,0.20792 -0.22805,0.38616 -0.34212,0.57919c-0.31006,0.05641 -0.6099,-0.02161 -0.90927,-0.1394c-0.35933,-0.13341 -0.73569,-0.27702 -1.08576,-0.46515c-0.80301,-0.39733 -1.53636,-0.87359 -2.29554,-1.34515c-0.13651,-0.08119 -0.27306,-0.1624 -0.34865,-0.30769c0.04387,-0.07426 0.10476,-0.13837 0.10573,-0.21805c0.01946,-0.1891 0.1418,-0.3572 0.23826,-0.52052z" fill="#767676"/><path d="M215.71729,200.48271c0.041,0.16488 0.02198,0.3141 -0.04866,0.47277c-0.11547,0.31259 -0.30801,0.59948 -0.37226,0.94253c-0.01803,0.06956 -0.05311,0.12899 -0.08821,0.18839c-0.1842,0.31189 -0.28263,0.63461 -0.38981,0.97223c-0.0273,0.12427 -0.05502,0.28838 -0.26125,0.28614c-0.26476,-0.1374 -0.48612,-0.30916 -0.66411,-0.51536c0.07162,-0.23839 0.12619,-0.48688 0.28311,-0.6745c0.01755,-0.0297 0.02681,-0.08438 0.04434,-0.11411c0.12423,-0.32745 0.25727,-0.66978 0.39858,-0.98711c0.06188,-0.1438 0.13209,-0.2626 0.17691,-0.41657c0.04533,-0.19378 0.13352,-0.38219 0.31534,-0.4948c0.09409,0.03591 0.16236,0.07649 0.23937,0.10226c0.11944,0.07105 0.24722,0.16709 0.36665,0.23811z" fill="#87d7dc"/><path d="M226.85077,177.22293c0.082,0.32971 0.02698,0.61802 -0.04515,0.89629c-0.01803,0.06956 -0.07067,0.15866 -0.12281,0.20791c-0.39091,0.34948 -0.71359,0.73956 -1.01917,1.13978c-0.00878,0.01485 -0.04337,0.03439 -0.06922,0.03912c-0.09457,0.00395 -0.17992,-0.04677 -0.23892,-0.14207c0.01755,-0.0297 0.01801,-0.06958 0.03557,-0.09927c0.22762,-0.34623 0.40402,-0.72298 0.48633,-1.13559c0.05408,-0.20865 0.15059,-0.37204 0.34118,-0.4995c0.21643,-0.13215 0.38165,-0.29477 0.63224,-0.40666z" fill="#cce5e6"/><path d="M224.50224,178.85641c-0.1287,-0.01632 -0.18819,-0.07177 -0.21308,-0.14678c0.38696,-0.73314 0.38693,-0.73314 0.48232,-1.51925c0.18327,-0.23218 0.45183,-0.41359 0.67754,-0.60043c0.13702,0.04136 0.1014,0.14058 0.10923,0.20544c0.02297,0.2344 0.05469,0.45396 0.03474,0.68293c-0.01898,0.14928 -0.06336,0.26335 -0.16762,0.36184c-0.32172,0.31039 -0.63509,0.64576 -0.92315,1.01626z" fill="#cce5e6"/><path d="M215.33358,200.23444c-0.07703,-0.02576 -0.14532,-0.06636 -0.23938,-0.10225c-0.18184,0.11261 -0.27002,0.30095 -0.31533,0.4948c-0.04481,0.15399 -0.11497,0.27278 -0.17692,0.41659c-0.14131,0.31733 -0.27434,0.65961 -0.39858,0.98708c-0.01755,0.0297 -0.0268,0.08443 -0.04436,0.11411c-0.14864,0.21261 -0.19444,0.44625 -0.28313,0.67445c-0.11899,-0.11087 -0.22089,-0.21167 -0.30478,-0.38197c0.19443,-0.44627 0.36351,-0.92772 0.58376,-1.3787c0.19443,-0.44627 0.3206,-0.93313 0.58374,-1.37867c0.26425,0.17723 0.43397,0.35841 0.59491,0.55444z" fill="#60adb2"/><path d="M227.83178,182.82333c0.07702,0.02575 0.13702,0.04137 0.21403,0.0671c0.0166,0.05001 0.02487,0.075 0.03316,0.09998c-0.08086,0.29307 -0.10175,0.60174 -0.10562,0.9205c-0.01021,0.1344 -0.04579,0.23369 -0.15838,0.30718c-0.20815,0.15716 -0.39089,0.34949 -0.71802,0.39575c-0.09071,-0.31484 -0.06985,-0.62352 -0.03185,-0.92202c0.00922,-0.0547 0.0702,-0.11878 0.12232,-0.16805c0.20905,-0.23686 0.41822,-0.47377 0.64438,-0.70048z" fill="#cce5e6"/><path d="M230.2901,179.20816c-0.01944,0.18909 -0.02092,0.30867 -0.03114,0.44308c-0.02873,0.24382 -0.11691,0.43215 -0.34212,0.57919c-0.36412,0.26505 -0.68581,0.5755 -0.90511,0.94673c-0.07019,0.1188 -0.09602,0.12349 -0.29205,-0.01311c0.02633,-0.04456 0.03555,-0.09926 0.0619,-0.14382c0.23637,-0.36112 0.39571,-0.74797 0.50385,-1.1653c0.0356,-0.09925 0.06238,-0.18366 0.14034,-0.23766c0.26811,-0.14159 0.50208,-0.30342 0.86431,-0.40907z" fill="#cae2e3"/><path d="M226.50713,180.06889c-0.00826,-0.02498 -0.00782,-0.0649 0.00097,-0.07971c0.23587,-0.32125 0.36061,-0.68857 0.45953,-1.05121c0.10717,-0.33759 0.27387,-0.6198 0.61119,-0.80043c0.16429,-0.0829 0.27781,-0.23614 0.46748,-0.28387c0.08884,0.47425 -0.05347,0.87127 -0.36591,1.12694c-0.37338,0.31978 -0.75502,0.61455 -0.99238,1.0554c-0.04337,0.03441 -0.07849,0.09378 -0.18087,0.03292z" fill="#c9e1e2"/><path d="M229.08681,178.51261c0.03029,0.3391 -0.02425,0.5876 -0.08759,0.85095c-0.02683,0.08439 -0.07067,0.15864 -0.13989,0.19777c-0.39922,0.32449 -0.77305,0.6841 -1.11278,1.06401c-0.01755,0.0297 -0.06091,0.06411 -0.13747,-0.0015c0.06141,-0.10395 0.13158,-0.22274 0.17593,-0.33685c0.15839,-0.30715 0.29969,-0.62448 0.36395,-0.96756c0.05453,-0.24853 0.18567,-0.4314 0.41039,-0.53857c0.16429,-0.0829 0.31976,-0.151 0.52744,-0.26832z" fill="#c9e1e2"/><path d="M228.99458,183.31422c0.14628,-0.01333 0.23161,0.03741 0.31691,0.08814c0.00829,0.02497 0.00784,0.06488 0.01608,0.08984c-0.10623,0.25791 -0.13541,0.54159 -0.09584,0.82597c0.01514,0.16954 -0.03798,0.29851 -0.16813,0.40171c-0.16474,0.12276 -0.32119,0.27054 -0.51132,0.35817c-0.10876,-0.24528 -0.19028,-0.61489 -0.15421,-0.75398c0.00971,-0.09454 0.07893,-0.13366 0.1399,-0.19776c0.13207,-0.2626 0.35823,-0.48935 0.45664,-0.81206z" fill="#cae3e4"/><path d="M222.57943,180.82342c0.31098,-0.13612 0.57084,-0.30265 0.82236,-0.49425c0.1199,0.03118 0.18823,0.07179 0.24723,0.16708c-0.07255,0.31803 -0.29095,0.60961 -0.34645,0.93783c-0.18183,0.11259 -0.37098,0.12052 -0.5606,0.16832c-0.10331,0.0188 -0.19836,0.06261 -0.32663,0.00642c-0.02247,-0.27426 0.13495,-0.5017 0.16414,-0.78537z" fill="#c8e0e1"/><path d="M225.7221,181.7493c0.1448,0.10618 0.12678,0.17575 0.10877,0.24528c-0.06331,0.26338 -0.11787,0.51185 -0.19825,0.76507c-0.01802,0.06957 -0.05311,0.12897 -0.12232,0.16808c-0.21594,0.09229 -0.44896,0.17446 -0.69026,0.23166c-0.03266,-0.13984 0.00287,-0.23912 0.00432,-0.35867c0.00433,-0.35864 0.13638,-0.62126 0.49857,-0.72696c0.17258,-0.05791 0.29444,-0.18613 0.3992,-0.3245z" fill="#cbe4e5"/><path d="M224.64702,181.1099c0.08534,0.05071 0.13653,0.08117 0.18773,0.11162c-0.0005,0.03985 0.02486,0.07502 0.0161,0.08984c-0.06241,0.18363 -0.14179,0.35719 -0.20415,0.54084c-0.0356,0.09927 -0.09653,0.16336 -0.19158,0.20716c-0.28516,0.13143 -0.57865,0.23783 -0.9233,0.31383c-0.04053,-0.2047 0.02137,-0.34849 0.08325,-0.49229c0.0351,-0.05937 0.07021,-0.1188 0.13059,-0.14306c0.3622,-0.10568 0.64005,-0.34181 0.90132,-0.62792z" fill="#c8e0e1"/><path d="M221.96554,185.41509c-0.09652,0.16335 -0.21885,0.33143 -0.23,0.54555c-0.00096,0.0797 -0.06189,0.14377 -0.10573,0.21804c-0.29887,-0.15768 -0.5456,-0.36462 -0.74016,-0.62083c0.15696,-0.18761 0.2115,-0.4361 0.28262,-0.6346c0.16331,-0.00322 0.25646,0.11239 0.37637,0.14356c0.16237,0.0765 0.32425,0.19286 0.41691,0.34828z" fill="#85d5d9"/><path d="M231.15716,180.70721c-0.21693,0.17202 -0.4338,0.34406 -0.64245,0.54105c-0.17401,0.17746 -0.17784,0.49626 -0.56542,0.56676c0.29823,-0.50492 0.44197,-1.0215 0.58569,-1.53806c0.18183,-0.11259 0.38948,-0.22995 0.63909,-0.26208c0.0166,0.05001 0.02488,0.07501 0.03317,0.09998c-0.0024,0.19923 -0.02184,0.38838 -0.05007,0.59229z" fill="#c6dede"/><path d="M226.82234,176.72439c-0.26861,0.18143 -0.50252,0.34328 -0.77114,0.52472c-0.08387,-0.17029 -0.0649,-0.31957 -0.09759,-0.4594c-0.02396,-0.15469 -0.09074,-0.31488 -0.06298,-0.47895c0.06141,-0.10395 0.1823,-0.15248 0.2861,-0.21113c0.10381,-0.05866 0.22474,-0.10713 0.3627,-0.14553c0.18627,0.23119 0.2175,0.4906 0.2829,0.77033z" fill="#cae3e3"/><path d="M223.39257,178.2366c0.1437,-0.51658 0.24354,-0.9589 0.23222,-1.44723c0.18233,-0.15247 0.34754,-0.31507 0.53862,-0.48238c0.15168,0.25075 0.13174,0.47971 0.15468,0.71407c-0.0005,0.03985 -0.02681,0.08441 -0.04436,0.11409c-0.27049,0.34081 -0.54099,0.68167 -0.88117,1.10142z" fill="#cae3e4"/><path d="M225.9463,183.8292c-0.03029,-0.3391 -0.03525,-0.64306 0.29379,-0.84871c0.22521,-0.14703 0.37388,-0.35965 0.52251,-0.57225c0.05265,-0.08911 0.14671,-0.05323 0.23159,0.03739c-0.17445,0.21732 -0.22075,0.49085 -0.267,0.76435c-0.02822,0.20395 -0.14128,0.31733 -0.30559,0.40025c-0.13844,0.0782 -0.25154,0.19155 -0.47533,0.21902z" fill="#c8e0e1"/><path d="M222.14372,184.17652c0.1429,0.2656 -0.01358,0.41333 -0.13592,0.5814c-0.12087,0.0485 -0.20572,-0.04207 -0.2998,-0.07795c-0.21306,-0.14677 -0.38275,-0.328 -0.53493,-0.53892c0.11355,-0.15321 0.14181,-0.35715 0.31483,-0.45493c0.0941,0.03591 0.14531,0.06636 0.21355,0.10694c0.15312,0.13119 0.30623,0.26235 0.44226,0.38343z" fill="#767676"/><path d="M224.44992,182.49774c-0.0292,0.28366 -0.07496,0.51731 -0.10367,0.76113c-0.25009,0.072 -0.50843,0.11906 -0.76636,0.12618c-0.10194,-0.10075 -0.0834,-0.21015 -0.09952,-0.29999c-0.0161,-0.08985 -0.03221,-0.17968 0.04628,-0.27349c0.24181,-0.09698 0.5523,-0.19327 0.92329,-0.31383z" fill="#c7dfe0"/><path d="M226.69921,184.81883c-0.20721,0.07746 -0.39729,0.16505 -0.6469,0.19726c-0.12585,-0.25545 -0.10589,-0.48439 -0.1113,-0.74849c0.22472,-0.10716 0.44944,-0.21436 0.68297,-0.33637c0.04782,0.3094 0.05323,0.57356 0.07524,0.88763z" fill="#c8e0e1"/><path d="M227.92223,176.7363c0.06633,0.20003 0.13265,0.4 0.1215,0.61411c-0.22521,0.14703 -0.46747,0.28388 -0.7185,0.4356c-0.03411,-0.02029 -0.06824,-0.0406 -0.05946,-0.05545c-0.02344,-0.19457 -0.0381,-0.40392 -0.04448,-0.58834c0.00096,-0.07971 0.01897,-0.14929 0.0794,-0.17353c0.20766,-0.1173 0.36412,-0.26506 0.62157,-0.23242z" fill="#c4dcdd"/><path d="M230.2613,178.74956c-0.25056,0.11186 -0.48405,0.23387 -0.73464,0.34575c-0.11017,-0.12575 -0.04,-0.24453 -0.03857,-0.36411c0.00144,-0.11953 0.02871,-0.24382 0.03892,-0.37821c0.19059,-0.12746 0.43143,-0.14471 0.6557,-0.21208c0.12629,0.21555 0.10682,0.4047 0.07857,0.60864z" fill="#c8e0e1"/><path d="M227.2208,185.02871c0.24229,-0.13684 0.45875,-0.26904 0.70977,-0.42073c0.1005,0.22028 0.08927,0.43441 0.17271,0.64457c-0.19109,0.16729 -0.44069,0.19948 -0.68247,0.29647c-0.11802,-0.19059 -0.21068,-0.34604 -0.19996,-0.52029z" fill="#c6ddde"/><path d="M230.19297,183.70586c0.02152,0.35397 -0.0598,0.68688 0.03045,1.04158c-0.15644,0.14777 -0.28711,0.29084 -0.50305,0.38314c-0.14336,-0.22574 -0.1839,-0.43046 -0.01818,-0.6329c0.20908,-0.23684 0.33286,-0.52448 0.49077,-0.7918z" fill="#b9cfd0"/><path d="M222.55975,177.46033c-0.07606,-0.10545 0.01896,-0.14928 0.03699,-0.2188c0.04484,-0.15396 0.10668,-0.29774 0.05693,-0.44779c-0.04003,-0.24456 0.0735,-0.39775 0.21294,-0.55567c0.06096,-0.0641 0.13892,-0.11808 0.23445,-0.20173c0.12538,0.29531 0.20827,0.54532 -0.02663,0.78687c-0.16522,0.16263 -0.27101,0.38068 -0.4021,0.56358c-0.02634,0.04454 -0.05264,0.08911 -0.11259,0.07351z" fill="#c0d8d8"/><path d="M221.58397,180.713c-0.00637,-0.18442 0.02969,-0.32349 0.09984,-0.44231c0.0351,-0.05937 0.07892,-0.13369 0.13937,-0.15793c0.26764,-0.10172 0.49283,-0.24874 0.71805,-0.39575c0.11944,0.07107 0.06729,0.12028 0.04098,0.16488c-0.08773,0.14851 -0.1842,0.31189 -0.23781,0.48069c-0.07991,0.21335 -0.21006,0.31656 -0.44213,0.31904c-0.11164,-0.00618 -0.18915,0.00791 -0.3183,0.03142z" fill="#c1d9d9"/><path d="M225.50606,183.98881c-0.19886,0.10245 -0.40562,0.14005 -0.62984,0.20738c-0.13508,-0.20073 -0.08974,-0.39452 -0.11321,-0.5891c0.2335,-0.12202 0.50015,-0.14406 0.76731,-0.2059c0.03172,0.21956 -0.0048,0.39853 -0.02425,0.58764z" fill="#c3dbdc"/><path d="M228.43535,178.36601c0.0204,-0.26883 0.04916,-0.51265 0.0608,-0.76659c0.14721,-0.0931 0.28565,-0.17126 0.49187,-0.16905c0.0834,0.21017 0.08099,0.4094 0.0957,0.61882c-0.18233,0.15246 -0.38114,0.25493 -0.6483,0.3168z" fill="#c3dadb"/><path d="M223.58376,183.76867c0.24962,-0.03216 0.47336,-0.05961 0.69711,-0.08709c0.10925,0.20544 0.10685,0.4047 0.10446,0.60393c-0.1984,0.06262 -0.39631,0.08541 -0.61957,0.07297c-0.03364,-0.06015 -0.07558,-0.14533 -0.09218,-0.19529c-0.03268,-0.13985 -0.04003,-0.24454 -0.08978,-0.39456z" fill="#c4dbdc"/><path d="M221.80935,179.12119c-0.1667,0.28218 -0.2983,0.50496 -0.43859,0.74258c-0.14674,0.05322 -0.293,0.06655 -0.47286,0.01976c-0.05849,-0.13514 0.03701,-0.21881 0.05553,-0.32822c0.0185,-0.10939 0.05408,-0.20864 0.09791,-0.28293c0.25841,-0.04705 0.4651,-0.08466 0.75807,-0.15121z" fill="#c2d9da"/><path d="M226.92803,175.80388c0.13844,-0.0782 0.27637,-0.11661 0.41386,-0.11508c0.14529,0.06635 0.16091,0.1961 0.21993,0.29135c0.05901,0.09525 0.15261,0.17103 0.1424,0.30543c-0.12186,0.12822 -0.32026,0.19081 -0.53622,0.28319c-0.04149,-0.12502 -0.08295,-0.25003 -0.13316,-0.36017c-0.03266,-0.13984 -0.0654,-0.2797 -0.10686,-0.40472z" fill="#c5ddde"/><path d="M225.63014,185.10615c-0.17307,0.09777 -0.3359,0.06114 -0.49091,0.08935c-0.14383,-0.1859 -0.18435,-0.39062 -0.23319,-0.62032c0.18962,-0.04778 0.37929,-0.09551 0.55189,-0.15343c0.14335,0.22574 0.12344,0.45473 0.17222,0.68439z" fill="#c3dbdc"/><path d="M224.70068,176.6466c-0.04198,-0.08516 -0.05856,-0.13513 -0.07515,-0.18511c-0.02439,-0.11483 -0.04004,-0.24456 -0.07272,-0.38441c0.24229,-0.13684 0.43335,-0.30418 0.71758,-0.35591c0.10194,0.10075 0.10927,0.20546 0.1161,0.35001c-0.19984,0.18216 -0.43431,0.38385 -0.6858,0.57547z" fill="#c7dfe0"/><path d="M223.04872,182.52736c-0.24081,0.01731 -0.43093,0.1049 -0.66251,0.06752c-0.10093,-0.18047 -0.02154,-0.35394 -0.08835,-0.51409c0.26764,-0.10171 0.50845,-0.11905 0.76684,-0.16606c0.0917,0.23518 -0.00479,0.3985 -0.01594,0.61264z" fill="#c7dee0"/><path d="M221.55749,185.05199c-0.11991,-0.03117 -0.21306,-0.14679 -0.37639,-0.14355c-0.07991,0.21335 -0.15153,0.45169 -0.28262,0.6346c-0.0595,-0.05545 -0.13604,-0.12106 -0.18677,-0.19132c-0.07606,-0.10545 -0.10045,-0.22028 -0.03906,-0.32428c0.08818,-0.18834 0.16761,-0.36186 0.25585,-0.55024c0.22187,0.13193 0.31547,0.2077 0.62902,0.5748z" fill="#61acb1"/><path d="M231.27397,179.57257c-0.20721,0.07746 -0.37971,0.13535 -0.60399,0.20267c0.01164,-0.25395 0.01452,-0.49303 0.04322,-0.73685c0.15547,-0.06808 0.30225,-0.12126 0.47432,-0.13935c0.0917,0.23516 0.0893,0.43439 0.08643,0.6735z" fill="#c2dada"/><path d="M221.47628,181.09046c0.20721,-0.07746 0.39633,-0.08537 0.62014,-0.11281c-0.05453,0.24853 -0.09155,0.46733 -0.12858,0.68616c-0.14721,0.09309 -0.29299,0.06658 -0.47337,0.05962c-0.09219,-0.19529 -0.04687,-0.38915 -0.01817,-0.6329z" fill="#c1d9d9"/><path d="M229.52343,177.92943c-0.06584,-0.23987 -0.09807,-0.41955 -0.14734,-0.60942c0.13893,-0.11807 0.33685,-0.14082 0.5348,-0.16357c0.1097,0.16559 0.19359,0.33589 0.20827,0.54531c-0.15645,0.14776 -0.371,0.12052 -0.59571,0.22772z" fill="#c6dedf"/><path d="M227.00697,185.66411c-0.19839,0.06261 -0.40511,0.10021 -0.59473,0.14799c-0.1448,-0.10618 -0.21212,-0.22647 -0.25312,-0.39136c0.18233,-0.15246 0.43143,-0.14472 0.64739,-0.23709c0.11853,0.15074 0.14239,0.30543 0.20047,0.48043z" fill="#c0d7d7"/><path d="M224.07373,175.91244c-0.16474,0.12276 -0.2871,0.2908 -0.52839,0.34802c-0.041,-0.16488 -0.09072,-0.3149 -0.14049,-0.46485c0.10528,-0.17818 0.27831,-0.27595 0.485,-0.31356c0.11019,0.12574 0.15165,0.25073 0.1839,0.43042z" fill="#c3dadb"/><path d="M221.7185,183.80324c-0.06826,-0.04061 -0.14531,-0.06634 -0.21359,-0.10693c-0.17308,0.09778 -0.2013,0.30169 -0.31484,0.45493c-0.12822,-0.0562 -0.14385,-0.18591 -0.25452,-0.27178c0.04578,-0.23365 0.20222,-0.38144 0.19681,-0.64553c0.17941,0.08666 0.25548,0.19206 0.34866,0.3077c0.0678,0.08044 0.20478,0.12182 0.23745,0.26164z" fill="#767676"/><path d="M230.55814,185.50837c-0.16474,0.12276 -0.28713,0.29084 -0.50257,0.3433c-0.10194,-0.10075 -0.13509,-0.20078 -0.18487,-0.35075c0.13064,-0.14308 0.29539,-0.26583 0.47672,-0.33861c0.10193,0.10076 0.14386,0.18591 0.21067,0.34605z" fill="#bdd3d4"/><path d="M223.98475,184.72956c0.17211,-0.01806 0.32712,-0.04625 0.48212,-0.07447c0.10971,0.1656 0.15072,0.33046 0.18293,0.51014c-0.12137,0.08834 -0.25841,0.04705 -0.37784,-0.02401c-0.1536,-0.09131 -0.30716,-0.18265 -0.28724,-0.41164z" fill="#bdd4d5"/><path d="M231.9505,181.19907c-0.19059,0.12745 -0.37243,0.24008 -0.56298,0.36754c0.01354,-0.41333 0.09493,-0.74625 0.58535,-0.79574c0.05849,0.13514 0.00539,0.26411 -0.02236,0.42819z" fill="#bbd2d3"/><path d="M222.59943,183.44415c-0.1014,-0.14059 -0.11705,-0.27031 -0.13264,-0.40001c0.06141,-0.10395 0.16429,-0.08291 0.26764,-0.1017c0.0775,-0.01411 0.16377,-0.04306 0.27496,0.00301c0.1014,0.14059 0.01373,0.28909 0.10638,0.44454c-0.18134,0.0728 -0.34464,0.07599 -0.51624,0.05423z" fill="#c3dadb"/><path d="M226.93469,180.24289c0.19207,-0.24699 0.38405,-0.49402 0.64436,-0.70043c0.09359,0.07575 0.06685,0.16018 0.02295,0.23439c-0.09698,0.2032 -0.21098,0.39623 -0.31626,0.57446c-0.07895,0.13365 -0.19891,0.10247 -0.35103,-0.10843z" fill="#b1c6c7"/><path d="M227.96214,186.27231c0.10426,-0.09851 0.23301,-0.08219 0.34512,-0.11583c0.2072,-0.07747 0.36955,-0.00098 0.53048,0.19511c-0.22521,0.14702 -0.50897,0.15887 -0.74976,0.1762c-0.11069,-0.08589 -0.14435,-0.14606 -0.12585,-0.25545z" fill="#bbd2d3"/><path d="M229.30915,181.45436c0.09841,-0.32277 0.36699,-0.50418 0.62729,-0.71062c-0.0204,0.26882 -0.15202,0.49157 -0.25775,0.70963c-0.06188,0.1438 -0.13064,0.1431 -0.36954,0.00097z" fill="#bad1d2"/><path d="M230.96593,184.4666c0.04926,0.18986 0.11609,0.35001 0.16538,0.53983c-0.06094,0.06411 -0.17354,0.13762 -0.26907,0.22127c-0.26332,-0.25694 -0.25454,-0.27178 -0.12344,-0.45473c0.06143,-0.10394 0.1399,-0.19776 0.22713,-0.30641z" fill="#b5cbcc"/><path d="M229.43106,176.32926c0.14432,0.14605 0.2029,0.28121 0.2614,0.41634c-0.13016,0.10323 -0.30176,0.0814 -0.47385,0.09948c-0.07563,-0.14528 -0.13408,-0.28043 -0.2097,-0.42573c0.09601,-0.12351 0.26712,-0.06189 0.42219,-0.09008z" fill="#c0d7d8"/><path d="M229.23184,185.02068c0.08481,0.09061 0.10927,0.20543 0.12491,0.33515c-0.16524,0.16261 -0.38117,0.25495 -0.61373,0.29722c-0.12822,-0.0562 -0.13604,-0.12104 -0.12629,-0.21555c0.19933,-0.14234 0.39872,-0.28464 0.61516,-0.4168z" fill="#bdd4d4"/><path d="M231.62788,179.44192c-0.02344,-0.19457 -0.02105,-0.39379 -0.04448,-0.58836c0.11213,-0.03365 0.21501,-0.01262 0.31739,0.04825c0.08481,0.09059 0.07514,0.18513 0.08246,0.28983c-0.00096,0.07971 -0.00192,0.1594 -0.00288,0.23911c-0.10385,0.05867 -0.2072,0.07748 -0.35251,0.01112z" fill="#b6cccc"/><path d="M228.44151,177.14552c-0.04925,-0.18985 -0.09026,-0.35469 -0.15662,-0.55472c0.06968,-0.07896 0.17353,-0.13765 0.35345,-0.09085c0.07564,0.14529 0.14242,0.30544 0.22631,0.47572c-0.13844,0.0782 -0.25105,0.15173 -0.42314,0.16978z" fill="#c1d9d9"/><path d="M232.03846,180.3082c-0.13844,0.0782 -0.25934,0.12674 -0.42265,0.12993c-0.04926,-0.18986 0.00435,-0.35867 0.02332,-0.50791c0.10426,-0.09851 0.22422,-0.0673 0.33587,-0.06113c0.04241,0.0453 0.07655,0.06559 0.0678,0.08044c-0.00147,0.11953 -0.00288,0.23909 -0.00434,0.35867z" fill="#b7cdce"/><path d="M232.18865,182.12337c-0.04001,-0.24457 0.03892,-0.37822 0.08373,-0.53217c0.03652,-0.17896 0.17401,-0.17746 0.33732,-0.18068c0.04926,0.18986 0.00445,0.3438 0.00253,0.50322c-0.12186,0.12821 -0.31883,0.07127 -0.42362,0.20963z" fill="#b6cccc"/><path d="M229.7264,186.05729c-0.15549,0.06807 -0.27638,0.11658 -0.40605,0.17995c-0.16237,-0.0765 -0.26476,-0.1374 -0.34035,-0.28268c0.18135,-0.07277 0.34563,-0.15568 0.50111,-0.22375c0.17989,0.04676 0.19549,0.1765 0.28914,0.25222c-0.01755,0.0297 -0.01802,0.06957 -0.04384,0.07428z" fill="#c2dada"/><path d="M228.38576,176.06879c-0.11261,0.07348 -0.19011,0.08762 -0.29299,0.0666c-0.11119,-0.04606 -0.14432,-0.14604 -0.20335,-0.24133c-0.04197,-0.08516 -0.15264,-0.17104 -0.10829,-0.28516c0.13796,-0.03834 0.2842,-0.05172 0.45535,0.00993c0.06682,0.16015 0.09951,0.30001 0.14927,0.45002z" fill="#bbd2d3"/><path d="M221.47257,182.11171c0.1633,-0.00321 0.28373,-0.01187 0.42121,-0.01039c0.05808,0.17501 0.05611,0.33439 0.07128,0.50398c-0.12087,0.0485 -0.24132,0.0572 -0.36074,-0.0139c-0.02537,-0.03514 -0.0507,-0.07029 -0.05025,-0.11016c-0.03316,-0.09998 -0.05756,-0.21488 -0.08149,-0.36956z" fill="#bbd2d3"/><path d="M231.43538,184.72571c-0.10829,-0.28517 -0.1083,-0.28517 -0.04447,-0.58834c0.15551,-0.06806 0.30079,-0.00171 0.48067,0.0451c-0.07162,0.23838 -0.27097,0.38067 -0.43622,0.54328z" fill="#adc2c3"/><path d="M222.76674,183.82463c0.12087,-0.0485 0.25842,-0.047 0.38659,0.0092c0.05808,0.17501 0.10784,0.32495 0.14877,0.4898c-0.37784,-0.02401 -0.3949,-0.03414 -0.53543,-0.499z" fill="#b5cbcc"/><path d="M231.13236,178.48499c-0.14674,0.05324 -0.25887,0.08685 -0.42219,0.09006c-0.09264,-0.15541 -0.06488,-0.31956 -0.0971,-0.49927c0.06046,-0.02425 0.1121,-0.03364 0.16377,-0.04307c0.05168,-0.00941 0.11163,0.00618 0.1804,0.00693c0.12727,0.1359 0.15994,0.27572 0.17512,0.44532z" fill="#bbd1d2"/><path d="M220.86095,180.80478c-0.10924,-0.20546 -0.02105,-0.39379 -0.03621,-0.56335c0.12966,-0.06334 0.25793,-0.00718 0.39542,-0.00567c0.02299,0.23439 -0.03063,0.40321 -0.17834,0.53611c-0.02633,0.04455 -0.11211,0.03366 -0.18084,0.03292z" fill="#b6cccd"/><path d="M225.12894,175.33595c-0.2335,0.12202 -0.4753,0.21902 -0.70001,0.32618c-0.11069,-0.08591 -0.15263,-0.17103 -0.1595,-0.31558c0.26712,-0.06189 0.53428,-0.12374 0.8263,-0.11062c0.01659,0.05003 0.02488,0.07501 0.03317,0.09999z" fill="#acc1c2"/><path d="M228.68729,180.28182c-0.06285,0.22351 -0.14276,0.43688 -0.29093,0.60961c-0.06096,0.0641 -0.14721,0.09306 -0.23252,0.04234c-0.0341,-0.02029 -0.08482,-0.0906 -0.07606,-0.10547c0.11452,-0.2329 0.36554,-0.38463 0.59951,-0.5465z" fill="#a7bbbb"/><path d="M230.87625,177.63025c-0.08678,0.06882 -0.1984,0.06262 -0.3271,0.04628c-0.06682,-0.16015 -0.13365,-0.3203 -0.20047,-0.48045c0.13844,-0.0782 0.24959,-0.03216 0.36904,0.03887c0.07606,0.10545 0.12585,0.25544 0.15851,0.39533z" fill="#b7cdcd"/><path d="M225.2203,185.60488c0.17308,-0.09778 0.33638,-0.10094 0.51676,-0.09404c0.11019,0.12574 0.17751,0.24605 0.16681,0.4203c-0.25741,-0.0327 -0.45342,-0.16935 -0.68356,-0.32625z" fill="#b7cece"/><path d="M220.69484,178.89985c-0.0142,-0.24926 0.1681,-0.40171 0.17047,-0.60097c0.12087,-0.0485 0.18037,0.00695 0.18821,0.07181c0.01516,0.16956 0.00446,0.34384 -0.08328,0.4923c-0.04338,0.03442 -0.05217,0.04925 -0.27545,0.03688z" fill="#b4cacb"/><path d="M225.7501,175.84587c-0.07606,-0.10543 -0.10094,-0.18044 -0.09125,-0.27499c0.2072,-0.07747 0.42314,-0.16977 0.73223,-0.1465c-0.13207,0.2626 -0.37338,0.31976 -0.641,0.4215z" fill="#b2c8c9"/><path d="M222.01187,182.99437c0.07563,0.14528 0.12583,0.25545 0.10732,0.36485c-0.05215,0.04926 -0.11213,0.03368 -0.17211,0.01807c-0.23985,-0.06238 -0.26378,-0.21711 -0.26138,-0.41633c0.10287,0.02101 0.21454,0.02722 0.32616,0.03342z" fill="#b5cbcb"/><path d="M230.54025,181.98588c0.09697,-0.2032 0.19345,-0.36656 0.34991,-0.5143c0.09408,0.03591 0.10191,0.10074 0.0756,0.14529c-0.04435,0.11413 -0.07163,0.23839 -0.11596,0.35247c-0.07019,0.1188 -0.15597,0.10788 -0.30954,0.01653z" fill="#91a3a3"/><path d="M224.23094,177.83219c0.0142,0.24926 -0.11691,0.43216 -0.2222,0.61036c-0.01755,0.0297 -0.06923,0.03912 -0.11212,0.03364c-0.03411,-0.02029 -0.0678,-0.08044 -0.05902,-0.09531c0.07162,-0.23838 0.21977,-0.41112 0.3933,-0.54873z" fill="#767676"/><path d="M223.11366,177.85c-0.15455,-0.01163 -0.23986,-0.0624 -0.23013,-0.15696c0.0273,-0.12427 0.14914,-0.25244 0.33141,-0.40492c0.03177,0.21957 -0.06475,0.3829 -0.10128,0.56185z" fill="#93a5a6"/><path d="M226.98083,186.41112c0.23303,-0.08214 0.45774,-0.18934 0.69475,0.11216c-0.24181,0.09697 -0.46363,-0.03492 -0.69475,-0.11216z" fill="#9aadad"/><path d="M228.33842,183.56614c0.01898,-0.14927 0.04672,-0.31335 0.05696,-0.44778c0.09507,-0.04379 0.15503,-0.02822 0.24865,0.04756c0.00638,0.18444 -0.14959,0.29235 -0.21147,0.43615c-0.03411,-0.02029 -0.05118,-0.03047 -0.09412,-0.03591z" fill="#c5dddd"/><path d="M226.36315,179.1805c0.03955,0.28439 -0.07452,0.47747 -0.25679,0.62994c-0.00878,0.01485 -0.05169,0.00942 -0.08582,-0.01089c-0.05997,-0.0156 -0.06781,-0.08044 -0.05024,-0.11014c0.07939,-0.17352 0.23591,-0.32128 0.39284,-0.5089z" fill="#aec2c3"/><path d="M221.04579,181.1555c0.04926,0.18986 0.01276,0.36879 -0.01503,0.53292c-0.09504,0.04381 -0.15457,-0.01165 -0.15361,-0.09134c-0.00686,-0.14458 -0.02246,-0.27425 -0.00347,-0.4235c-0.01659,-0.05003 0.0609,-0.0641 0.17208,-0.01806z" fill="#767676"/><path d="M230.15605,176.7805c-0.12727,-0.13592 -0.19457,-0.25618 -0.26139,-0.41635c0.25693,0.07253 0.41834,0.22872 0.6231,0.35052c-0.0434,0.03441 -0.06096,0.06411 -0.08677,0.06878c-0.09457,0.00395 -0.18036,-0.00695 -0.27493,-0.00296z" fill="#a9bebf"/><path d="M224.03264,180.74447c0.13702,0.04136 0.19648,0.09677 0.23844,0.18197c-0.07068,0.15865 -0.20082,0.26184 -0.45921,0.30888c0.07115,-0.19853 0.1501,-0.33216 0.22074,-0.49084z" fill="#b9cfd0"/><path d="M229.61032,183.55999c0.09506,-0.04379 0.1721,-0.01803 0.24912,0.00769c0.06778,0.08046 0.02394,0.15469 -0.23782,0.48067c-0.15215,-0.21089 -0.00447,-0.34382 -0.0113,-0.48837z" fill="#869797"/><path d="M225.32167,178.60128c-0.19155,0.20718 -0.16079,0.50644 -0.50495,0.54254c0.0633,-0.26338 0.18562,-0.43141 0.50495,-0.54254z" fill="#93a4a5"/><path d="M231.85751,181.78592c-0.13158,0.22274 -0.21932,0.37127 -0.30703,0.51978c-0.01755,0.0297 -0.06923,0.03912 -0.1204,0.00865c-0.0171,-0.01015 -0.04242,-0.0453 -0.05074,-0.0703c0.0711,-0.19851 0.16764,-0.36192 0.47814,-0.45815z" fill="#94a5a6"/><path d="M230.56111,183.82448c0.13747,0.00152 0.19744,0.01708 0.24769,0.12723c-0.0531,0.12894 -0.115,0.27276 -0.25393,0.39083c-0.10922,-0.20548 -0.02151,-0.35393 0.00622,-0.51803z" fill="#abbfc0"/><path d="M232.59646,181.08152c-0.10286,-0.02103 -0.14577,-0.02648 -0.17992,-0.04681c-0.06491,-0.31956 -0.06489,-0.31952 0.1091,-0.49697c0.11802,0.19059 0.03033,0.33908 0.07079,0.54377z" fill="#acc0c1"/><path d="M227.62379,185.83021c0.17258,-0.05791 0.33684,-0.14084 0.52648,-0.18859c0.0775,-0.01411 0.14577,0.02653 0.14432,0.14605c-0.20721,0.07746 -0.40558,0.14007 -0.67079,0.04253z" fill="#9fb2b2"/><path d="M231.50241,178.44413c-0.05024,-0.11019 -0.07509,-0.18517 -0.06538,-0.2797c0.06923,-0.03913 0.13796,-0.03838 0.23206,-0.00248c0.0936,0.07576 0.11799,0.1906 0.14239,0.30544c-0.08678,0.06882 -0.19791,0.02276 -0.30905,-0.02329z" fill="#aec2c3"/><path d="M226.20345,182.45696c-0.09265,-0.1554 -0.03123,-0.25943 0.0131,-0.37352c0.02634,-0.04454 0.09502,-0.04378 0.14624,-0.01334c0.03411,0.02029 0.06781,0.08046 0.05024,0.11015c-0.00144,0.11953 -0.08821,0.18838 -0.20959,0.2767z" fill="#91a2a3"/><path d="M229.1009,175.91214c-0.33686,0.14083 -0.36267,0.14557 -0.46173,-0.1943c0.15406,0.05151 0.31738,0.04827 0.46173,0.1943z" fill="#869696"/><path d="M222.1668,177.26676c-0.0834,-0.21016 0.0204,-0.2688 0.0989,-0.36264c0.10969,0.1656 0.1097,0.1656 -0.0989,0.36264z" fill="#555f5f"/><path d="M227.4812,182.67505c-0.04386,0.07426 -0.10525,0.17819 -0.21786,0.25173c-0.07464,-0.22501 -0.03954,-0.28439 0.09008,-0.34777c0.03462,-0.01954 0.08582,0.01089 0.12774,0.09605z" fill="#93a5a6"/><path d="M232.50402,182.331c0.06539,0.2797 0.03081,0.29927 -0.26859,0.1814c0.02729,-0.12428 0.13937,-0.15794 0.26859,-0.1814z" fill="#8b9b9c"/><path d="M222.11546,176.53388c-0.03653,0.17896 -0.12376,0.28758 -0.21104,0.39627c-0.1287,-0.01632 -0.16236,-0.07652 -0.12725,-0.13591c0.07017,-0.11881 0.15742,-0.22745 0.33825,-0.26036z" fill="#767676"/><path d="M232.46456,179.89934c0.05849,0.13514 0.13459,0.24061 0.04737,0.34927c-0.0088,0.01485 -0.03461,0.01957 -0.05168,0.00942c-0.13604,-0.12106 -0.11754,-0.23047 0.00433,-0.35867z" fill="#5f6a6b"/><path d="M225.13021,181.65817c-0.0161,-0.08985 0.01898,-0.14928 0.07116,-0.19852c0.03462,-0.01954 0.08629,-0.02896 0.11163,0.0062c0.02537,0.03514 0.04198,0.08516 0.02438,0.11485c-0.0351,0.05937 -0.08725,0.10863 -0.20719,0.07745z" fill="#636e6f"/><path d="M231.20393,177.5442c0.14577,0.02651 0.22233,0.09208 0.22042,0.25147c-0.17159,-0.02179 -0.21357,-0.10692 -0.22042,-0.25147z" fill="#4a5354"/></g><g data-paper-data="{&quot;index&quot;:null}" fill="#000000" stroke="#000000" stroke-width="1.2"><path d="M207.2148,193.06569c0.49589,-1.8084 3.44117,-3.31964 4.84531,-5.09561c1.51178,-1.91208 1.43311,-3.92288 2.99693,-4.40478c1.09232,-0.33658 2.50197,0.56615 3.17729,1.12564c1.64219,1.36047 0.89188,5.09613 -1.67584,8.34378c-2.56771,3.24767 -5.98051,4.77755 -7.62267,3.41708c-0.74415,-0.61649 -2.13194,-1.88755 -1.72104,-3.3861z"/><path d="M208.76838,197.11951c0.71469,-2.51344 5.14114,-6.42777 5.14114,-6.42777c0,0 1.39717,-3.66695 1.45138,-3.73291c3.45347,-4.20444 6.33461,-1.89572 9.56821,0.7832c1.53899,1.27498 3.43689,3.82821 3.22135,5.86156c-0.24445,2.30606 -2.38775,4.03652 -4.27299,6.42095c-3.54751,4.48689 -8.51066,6.68697 -11.79503,3.96602c-1.44575,-1.19776 -4.26861,-3.51404 -3.31406,-6.87104z"/></g></g></g></g></svg>