<svg version="1.1" xmlns="http://www.w3.org/2000/svg" xmlns:xlink="http://www.w3.org/1999/xlink" width="137.75831" height="106.51825" viewBox="0,0,137.75831,106.51825"><defs><linearGradient x1="200.42185" y1="198.6712" x2="189.43886" y2="218.23556" gradientUnits="userSpaceOnUse" id="color-1"><stop offset="0" stop-color="#000000"/><stop offset="1" stop-color="#000000" stop-opacity="0"/></linearGradient></defs><g transform="translate(-176.18111,-125.36385)"><g stroke-miterlimit="10"><path d="M268.97681,185.80602l-15.81549,-1.60347" fill="none" fill-rule="nonzero" stroke="#000000" stroke-width="6" stroke-linecap="round" stroke-linejoin="miter"/><path d="M249.39558,209.64936c0,0 -7.51787,2.31705 -8.37397,1.59357c-1.55013,-1.30998 -9.35157,-14.8582 -9.35157,-14.8582c0,0 11.18903,-4.95685 13.29721,-6.86012c0.35347,-0.31912 8.9885,-8.93836 8.9885,-8.93836" fill="none" fill-rule="nonzero" stroke="#000000" stroke-width="6" stroke-linecap="round" stroke-linejoin="miter"/><g><g><g stroke="#001026" stroke-width="1.2"><path d="M269.13948,192.58846l24.00271,-10.38162c0,0 -1.66707,-6.87548 5.1734,-8.78757c0.38998,-0.10901 2.32019,-0.59336 3.72823,2.02748c1.3486,2.51023 2.17871,8.0813 2.47042,10.12045c0.13549,0.94709 -0.05692,2.5115 -0.83747,3.71197c-0.7859,1.20868 -2.35145,1.58183 -3.2159,1.845c-0.35208,0.10719 -27.42332,10.54361 -27.42332,10.54361" fill="#bf0000" fill-rule="evenodd" stroke-linecap="round" stroke-linejoin="round"/><path d="M278.69376,200.124c-7.01037,1.95958 -8.69143,-3.11712 -9.44152,-5.80056c-0.32617,-1.16686 -2.13859,-0.44257 2.99229,-3.12922c1.13003,-0.5917 5.91665,-2.53761 9.81651,-4.76505c2.67048,-1.52527 4.83164,-3.51708 5.4899,-3.96688c1.55533,-1.06275 3.19038,-1.31984 3.19038,-1.31984l-0.84152,1.3231c0,0 0.59776,-0.88505 0.99291,-1.28702c1.23098,-1.25227 2.15756,-2.20561 2.15756,-2.20561c0,0 1.63934,6.94728 4.62008,8.93827c2.98074,1.99099 6.66549,-0.57095 6.66549,-0.57095c0,0 0.76491,5.28447 -1.89635,6.53888c-0.65607,0.30925 -2.93795,0.14985 -2.93795,0.14985c0,0 0.29171,0.54189 -0.17793,0.70567c-0.2394,0.0835 -4.07009,0.40718 -8.1663,1.46949c-5.39237,1.39846 -11.45348,3.63755 -12.46354,3.91989z" fill="#000000" fill-rule="nonzero" stroke-linecap="butt" stroke-linejoin="miter"/></g><path d="M276.39589,210.29289c-0.20143,0.07177 0.04815,-1.26799 -0.68164,-3.9085c-0.96276,-3.48351 -2.98876,-8.65009 -3.65315,-10.074c-1.72288,-3.69242 -3.37329,-3.90256 -2.83933,-4.09283c1.97598,-0.70412 6.35457,0.34552 7.90547,4.69784c0.68156,1.91263 2.56368,5.67568 2.54383,8.13799c-0.02532,3.14079 -2.16759,4.84482 -3.2752,5.23952z" fill="#004fd9" fill-rule="nonzero" stroke="#001026" stroke-width="1.2" stroke-linecap="butt" stroke-linejoin="miter"/><g fill-rule="nonzero" stroke-linecap="butt" stroke-linejoin="miter"><g fill="none" stroke="none" stroke-width="1" font-family="sans-serif" font-weight="normal" font-size="12" text-anchor="start"/><path d="M275.23453,211.15634c0,0 -1.26893,-8.67677 -2.44942,-12.48168c-1.18047,-3.80491 -3.45297,-6.54291 -3.45297,-6.54291c0,0 1.95264,-0.62872 4.38056,0.4878c1.87935,0.86427 4.18188,2.92491 5.21156,6.18237c0.93806,2.96764 1.32626,6.47939 0.54479,8.51485c-1.1845,3.08515 -4.23452,3.83956 -4.23452,3.83956z" fill="#000000" stroke="#001026" stroke-width="1.2"/></g><g stroke="#001026" stroke-width="1.2"><path d="M277.41129,200.47879c0,0 29.90261,-5.58846 30.17828,-5.02702c0.79111,1.61117 1.1731,11.64697 1.1731,11.64697l-30.89325,2.90259" fill="#ffab19" fill-rule="evenodd" stroke-linecap="round" stroke-linejoin="round"/><path d="M276.50859,199.19078c0,0 6.34516,-1.11009 9.65531,-1.87625c3.17493,-0.73486 9.81691,-2.63072 9.81691,-2.63072c0,0 4.52253,-2.37267 5.977,-1.84632c0.67366,0.24378 -2.48544,1.56205 -2.48544,1.56205c0,0 3.56251,-1.48257 3.87537,-1.61698c2.18291,-0.93779 5.49512,-0.70926 6.68367,2.17579c1.30496,3.16761 3.30489,8.46894 2.36873,11.80218c-0.39833,1.41824 -2.14616,3.70809 -4.66244,4.00332c-2.83769,0.33295 -6.4539,-1.42632 -6.4539,-1.42632l3.80501,1.46939c0,0 -1.52553,0.493 -2.76969,0.44468c-1.39721,-0.05427 -5.20781,-0.75458 -5.20781,-0.75458l-20.09476,0.48442" fill="#000000" fill-rule="evenodd" stroke-linecap="round" stroke-linejoin="round"/><path d="M305.10457,193.76648c1.64851,-0.41374 3.73842,-0.32243 5.1598,0.8264c1.42663,1.15308 3.70243,10.00538 2.91294,11.72222c-0.74975,1.63042 -2.69935,2.79639 -4.30827,3.20018c-3.30313,0.82901 -6.82357,-2.02443 -7.86309,-6.37335c-1.03952,-4.34889 0.7955,-8.54643 4.09866,-9.37542z" fill="#ff0000" fill-rule="nonzero" stroke-linecap="butt" stroke-linejoin="miter"/></g></g><g fill="#000000" fill-rule="nonzero" stroke="#001026" stroke-width="1.2" stroke-linecap="butt" stroke-linejoin="miter"><path d="M285.86236,206.54383c0,0 1.28953,2.65381 1.29834,3.58327c0.0027,0.28612 -0.67726,1.25969 -1.63278,1.94312c-1.1926,0.85299 -2.81298,1.41211 -4.05387,1.44547c-3.19259,0.0858 -7.68485,-3.13057 -7.70518,-5.27535c-0.00882,-0.92953 1.70335,-3.89091 1.70885,-3.89442"/></g></g><g fill-rule="nonzero" stroke-linecap="butt" stroke-linejoin="miter"><g stroke="none" stroke-width="1"><path d="M264.4646,191.47819c-0.14666,0.15312 -0.29295,0.12908 -0.45958,0.07035c-0.25546,-0.11374 -0.48309,-0.27667 -0.72924,-0.4069c-0.0723,0.02179 -0.14459,0.04353 -0.20205,0.07446c-1.2572,0.59656 -2.52068,0.56854 -3.79485,0.31219c-0.26853,-0.05529 -0.54642,-0.09421 -0.78326,-0.24079c-0.0444,-0.02751 -0.11293,-0.04771 -0.16115,-0.03317c-0.26509,0.07985 -0.45756,-0.03923 -0.67415,-0.15106c-0.18696,-0.09349 -0.35533,-0.21984 -0.53298,-0.32976c-0.10362,-0.06411 -0.18869,-0.16107 -0.20699,-0.3054c-0.01825,-0.1443 -0.10883,-0.26685 -0.1846,-0.38018c-0.50101,-0.59816 -0.89257,-1.28376 -1.18397,-2.04037c-0.15671,-0.42947 -0.22634,-0.87154 -0.28666,-1.33003c-0.17547,-1.34993 0.02879,-2.66443 0.51087,-3.94005c0.22335,-0.57118 0.53,-1.11298 0.89585,-1.61813c0.27672,-0.38295 0.63852,-0.66897 1.00582,-0.92942c1.16869,-0.82868 2.45689,-1.1622 3.81298,-1.12119c0.25751,0.00417 0.51676,0.07587 0.77601,0.1476c0.17593,0.04232 0.34636,0.05911 0.52812,-0.0501c0.15766,-0.10193 0.32807,-0.08518 0.4947,-0.02643c0.25546,0.11374 0.49235,0.2603 0.72924,0.40688c0.07404,0.04581 0.11468,0.1153 0.15531,0.18479c0.12364,0.27598 0.31785,0.46265 0.54546,0.62562c0.49411,0.32786 0.86564,0.8016 1.24647,1.2589c0.14049,0.17561 0.2717,0.36759 0.36953,0.58327c0.32856,0.69095 0.61823,1.38003 0.73543,2.16187c0.22207,0.1374 0.44967,0.30039 0.68657,0.44692c0.08885,0.05497 0.19247,0.11909 0.19591,0.25423c0.01275,0.11871 0.11089,0.1573 0.19971,0.21223c0.58292,0.3828 1.17513,0.74921 1.75805,1.13203c1.30838,0.8317 2.63158,1.67248 3.92138,2.53698c1.26019,0.8462 2.54826,1.64308 3.82702,2.45645c0.20729,0.12824 0.38115,0.28016 0.58842,0.40838c1.00676,0.62288 2.01353,1.24578 3.011,1.88507c0.17765,0.10991 0.3739,0.18702 0.48099,0.38628c0.04067,0.0695 0.12394,0.09886 0.19796,0.14468c0.7403,0.45799 1.48606,0.94158 2.22634,1.39958c0.02961,0.01833 0.07401,0.04582 0.10362,0.06411c0.24619,0.13013 0.29958,0.31836 0.27312,0.61233c-0.09621,0.98233 -0.46271,1.84176 -1.09945,2.57834c-0.16522,0.18595 -0.36004,0.35357 -0.57518,0.48649c-0.15767,0.10194 -0.31327,0.09436 -0.4706,0.01919c-0.47203,-0.22557 -0.95336,-0.43468 -1.44022,-0.66941c-0.34432,-0.1687 -0.68484,-0.37937 -1.05702,-0.49879c-0.81285,-0.25909 -1.52904,-0.72435 -2.31403,-1.03265c-0.43691,-0.18163 -0.87763,-0.32129 -1.30527,-0.51936c-0.45722,-0.21639 -0.91825,-0.39079 -1.36995,-0.58155c-0.82012,-0.35225 -1.63647,-0.74648 -2.46588,-1.0823c-1.10344,-0.41671 -2.1698,-0.8991 -3.23607,-1.38146c-0.36843,-0.16145 -0.73678,-0.32281 -1.1052,-0.48427c-0.57019,-0.26407 -1.15512,-0.53733 -1.72525,-0.80143c-0.31471,-0.15036 -0.63317,-0.25875 -0.94787,-0.40908c-0.33883,-0.14312 -0.62009,-0.31713 -0.96442,-0.48584zM264.48963,190.9395c0.20035,-0.14205 0.37109,-0.30241 0.5067,-0.50666c0.37485,-0.34445 0.65536,-0.76939 0.93584,-1.19438c0.36037,-0.53075 0.67078,-1.11453 0.97191,-1.68191c0.34759,-0.64947 0.51927,-1.34128 0.68544,-2.05869c0.00756,-0.084 0.01512,-0.16798 0.02645,-0.29395c-0.11841,-0.0733 -0.2369,-0.14653 -0.35532,-0.21981c-0.02961,-0.01833 -0.06851,-0.02024 -0.12222,-0.03128c-0.06505,0.11492 -0.1153,0.23901 -0.15074,0.37226c-0.06708,0.22451 -0.15452,0.41424 -0.22162,0.63872c-0.18994,0.54749 -0.5224,1.02904 -0.75676,1.54903c-0.13384,0.27186 -0.23815,0.56198 -0.40162,0.81552c-0.36965,0.54717 -0.66528,1.1401 -1.09413,1.65058c-0.11325,0.12945 -0.23575,0.27531 -0.34903,0.40476c-0.12602,0.0107 -0.17071,0.16039 -0.24681,0.22416c-0.10017,0.07102 -0.20035,0.14207 -0.28772,0.33181c0.25751,0.00417 0.42212,0.1725 0.63694,0.21675c0.06128,-0.07293 0.18725,-0.08365 0.2227,-0.2169zM265.36469,190.59426c-0.347,0.29516 -0.41751,0.38451 -0.50873,0.61628c0.18696,0.09349 0.35913,0.17783 0.54607,0.27135c0.10362,0.06411 0.21482,0.04429 0.31502,-0.02677c0.06682,-0.04738 0.11323,-0.12944 0.18002,-0.17679c0.24305,-0.18214 0.44542,-0.43379 0.57929,-0.70563c0.13906,-0.06915 0.21342,-0.20044 0.28776,-0.33182c0.43295,-0.72963 0.87143,-1.43375 1.23038,-2.20919c0.15625,-0.34668 0.2977,-0.70255 0.415,-1.05111c0.08018,-0.28295 0.16963,-0.58226 0.10346,-0.88919c-0.19248,-0.11909 -0.38495,-0.23812 -0.57742,-0.35724c-0.04475,0.14964 -0.08019,0.28294 -0.10633,0.39971c-0.14177,0.53297 -0.3131,1.04765 -0.54369,1.52568c-0.29013,0.61851 -0.65427,1.19126 -1.00358,1.77315c-0.15798,0.27913 -0.39546,0.48686 -0.53864,0.77511c-0.18725,0.08365 -0.295,0.23867 -0.37863,0.38641zM282.99529,198.75354c0.21893,-0.17489 0.36384,-0.39556 0.47911,-0.63457c0.02408,-0.00724 0.0575,-0.03094 0.06679,-0.04738c0.20822,-0.40319 0.38683,-0.8247 0.45801,-1.26835c0.04679,-0.25927 0.10836,-0.50932 0.03842,-0.77423c-0.82911,-0.51298 -1.6582,-1.02589 -2.53172,-1.56639c-0.06018,0.49477 -0.20914,0.93467 -0.37295,1.36528c-0.13593,0.38144 -0.36619,0.6823 -0.53172,1.04541c-0.07432,0.13134 -0.15417,0.23713 -0.22851,0.36848c-0.18553,0.15119 -0.35076,0.33717 -0.50495,0.57425c0.44418,0.27481 0.93307,0.39994 1.3662,0.62357c0.45723,0.21639 0.92378,0.41636 1.3662,0.62357c0.18725,-0.08364 0.29124,-0.19665 0.39517,-0.3097zM279.78712,197.32284c0.13905,-0.06918 0.22824,-0.19132 0.30253,-0.32265c0.13359,-0.09469 0.20242,-0.25163 0.30085,-0.39021c0.27499,-0.45058 0.47597,-0.9469 0.63802,-1.44513c0.08945,-0.2993 0.14928,-0.61699 0.13132,-0.93842c-0.05922,-0.03666 -0.10915,-0.0897 -0.16839,-0.12632c-0.72549,-0.44889 -1.43609,-0.88854 -2.15229,-1.35378c-0.76058,-0.49273 -1.50638,-0.97631 -2.26695,-1.46906c-1.11594,-0.71258 -2.20772,-1.43244 -3.32366,-2.145c-1.23987,-0.81144 -2.49282,-1.56446 -3.71409,-2.40876c-0.19796,-0.14467 -0.42937,-0.2656 -0.65144,-0.40305c-0.04298,0.21722 -0.04706,0.43635 -0.11968,0.63527c-0.19198,0.65708 -0.4821,1.27559 -0.80181,1.87581c-0.29736,0.52536 -0.60952,1.04157 -0.92171,1.55781c-0.15042,0.19513 -0.27672,0.38297 -0.42714,0.57809c-0.16317,0.07636 -0.21719,0.24247 -0.32113,0.3555c-0.11325,0.12945 -0.2468,0.22414 -0.32493,0.39749c0.12947,0.12443 0.26652,0.16489 0.37942,0.21259c0.97576,0.35985 1.89195,0.8602 2.8398,1.2693c0.60909,0.26599 1.21815,0.53201 1.83651,0.78153c0.82012,0.35225 1.63471,0.6789 2.44003,1.02197c0.66277,0.27703 1.32555,0.55411 1.97903,0.84758c0.70718,0.30456 1.39027,0.61635 2.08819,0.9373c0.63867,0.2843 1.29216,0.57776 1.95494,0.85482c0.09842,-0.13859 0.24302,-0.18216 0.30255,-0.32264zM263.05158,179.5648c-0.07119,0.44361 -0.20712,0.82507 -0.32821,1.21563c-0.13041,0.40702 -0.23668,0.80674 -0.38191,1.20457c-0.13593,0.38144 -0.31076,0.76097 -0.46152,1.13321c-0.16004,0.3887 -0.32003,0.77737 -0.50413,1.17329c-0.16554,0.36308 -0.35519,0.73345 -0.52072,1.09655c-0.18963,0.37033 -0.43848,0.70408 -0.56889,1.11108c-0.28394,0.2898 -0.42918,0.68764 -0.63911,1.02329c-0.23405,0.34284 -0.44777,0.72051 -0.68181,1.06337c-0.22475,0.32643 -0.47362,0.66016 -0.71316,0.97745c-0.24888,0.33373 -0.54766,0.61436 -0.75206,0.97555c0.33675,0.25269 0.44036,0.3168 0.78121,0.35034c0.18553,-0.15119 0.3711,-0.30242 0.54557,-0.50479c0.20239,-0.25163 0.40479,-0.50323 0.63128,-0.76212c0.4196,-0.49408 0.81505,-0.98094 1.14031,-1.55557c0.22302,-0.39404 0.43123,-0.79725 0.7135,-1.15464c0.06128,-0.07293 0.11702,-0.17145 0.14315,-0.28823c0.06708,-0.2245 0.20272,-0.42878 0.31419,-0.62579c0.40888,-0.7224 0.72892,-1.49975 1.02485,-2.26987c0.41124,-1.00914 0.70024,-2.04952 0.94479,-3.1174c0.05779,-0.20807 0.1156,-0.41614 0.05666,-0.6299c-0.2035,-0.17025 -0.43489,-0.29125 -0.74403,-0.41603zM257.53564,185.10762c0.11815,0.25041 0.27344,0.43518 0.41945,0.63634c0.11638,0.18286 0.28476,0.30919 0.49961,0.35345c0.39627,0.11217 0.7795,0.28275 1.12552,0.51903c0.02961,0.01833 0.08331,0.02942 0.0981,0.03856c0.09085,-0.05462 0.12801,-0.12028 0.1301,-0.22986c-0.00549,-0.02556 -0.02583,-0.06033 -0.04065,-0.06949c-0.40149,-0.31491 -0.78436,-0.66262 -1.14868,-1.04321c-0.04992,-0.05307 -0.12946,-0.12443 -0.20729,-0.12823c-0.27406,-0.0809 -0.5481,-0.16177 -0.8762,-0.07658zM259.21366,187.47587c-0.37188,-0.29656 -0.71033,-0.61682 -1.02469,-0.94435c-0.09985,-0.10608 -0.21278,-0.15381 -0.35911,-0.17782c-0.2241,-0.02782 -0.43724,-0.00449 -0.66515,0.00965c-0.07782,-0.0038 -0.1704,-0.01677 -0.19655,0.10006c0.20524,0.23782 0.38639,0.4829 0.61017,0.68787c0.77981,0.1056 0.77978,0.10562 1.49972,0.52887c0.0723,-0.02176 0.12428,-0.0783 0.13561,-0.20428zM262.96531,184.34392c0.22933,0.23056 0.46797,0.44471 0.70659,0.65885c0.04992,0.05307 0.09986,0.10611 0.16836,0.12633c0.30191,0.03165 0.59458,0.07966 0.89856,0.00175c-0.06615,-0.30693 -0.26037,-0.49357 -0.41189,-0.72034c-0.07573,-0.11337 -0.17388,-0.1519 -0.30541,-0.16677c-0.31122,-0.01523 -0.6039,-0.06328 -0.90198,-0.13693c-0.01481,-0.00917 -0.04819,0.01447 -0.09637,0.02902c-0.01307,0.0584 -0.03545,0.13329 -0.0578,0.20809zM259.34964,181.79663c0.11608,0.36 0.28242,0.59592 0.43945,0.84822c0.07024,0.08781 0.15355,0.11717 0.23687,0.14655c0.41109,0.12131 0.7943,0.29196 1.15514,0.53736c0.0444,0.02749 0.0981,0.03856 0.14253,0.06601c0.11704,-0.17144 0.12081,-0.21343 0.00237,-0.2867c-0.38498,-0.23817 -0.70862,-0.54928 -0.95622,-0.92412c-0.15152,-0.22675 -0.33848,-0.32027 -0.57743,-0.35726c-0.14083,0.00154 -0.25753,-0.00418 -0.44274,-0.03011zM260.32497,185.54773c0.04644,-0.08209 -0.00352,-0.13515 -0.06272,-0.1718c-0.41453,-0.25649 -0.73994,-0.63513 -1.06536,-1.01384c-0.26996,-0.30001 -0.64766,-0.44503 -1.11275,-0.40028c0.0682,0.19736 0.20698,0.30539 0.29376,0.46991c0.18838,0.33822 0.46968,0.51225 0.80296,0.62981c0.36289,0.13584 0.73508,0.25531 1.04223,0.48964c0.0537,0.01103 0.07783,0.00382 0.10192,-0.00346zM258.71402,182.95497c0.1219,0.20843 0.19387,0.36382 0.27515,0.50276c0.12744,0.23399 0.2958,0.36035 0.54023,0.42293c0.33705,0.07553 0.65176,0.22589 0.95714,0.39266c0.11294,0.04772 0.23138,0.12099 0.335,0.18509c0.06128,-0.07293 0.02616,-0.1168 -0.00346,-0.13513c-0.38293,-0.34771 -0.75648,-0.71187 -1.07812,-1.13256c-0.06473,-0.06222 -0.11467,-0.11526 -0.19797,-0.14465c-0.25374,-0.04616 -0.49817,-0.10872 -0.82797,-0.09111zM263.40269,183.21801c0.3185,0.10837 0.55708,0.3225 0.80501,0.52024c0.07402,0.0458 0.10538,0.1317 0.19797,0.14466c0.14635,0.02403 0.49472,-0.02642 0.73021,-0.12458c-0.08299,-0.20656 -0.24208,-0.34928 -0.36778,-0.51575c-0.10538,-0.13171 -0.23311,-0.18856 -0.398,-0.17974c-0.28159,0.00308 -0.54465,-0.02663 -0.80942,-0.12395c-0.0148,-0.00919 -0.063,0.00537 -0.08707,0.01262c-0.05199,0.05653 -0.08917,0.12218 -0.07086,0.26649zM261.20183,189.43747c0.26302,0.02972 0.50543,0.20189 0.78154,0.1732c0.05024,-0.12407 0.0041,-0.21916 -0.01795,-0.32146c-0.05341,-0.18822 -0.06788,-0.37448 -0.18428,-0.55735c-0.32225,-0.0664 -0.59979,-0.2824 -0.92754,-0.37435c-0.09085,0.05462 -0.13735,0.13668 -0.15418,0.23712c0.19596,0.25424 0.35851,0.53214 0.50247,0.84287zM261.99279,186.38007c0.12947,0.12443 0.25893,0.24887 0.3161,0.39507c0.14016,0.35272 0.40118,0.49203 0.72721,0.5164c0.11669,0.00572 0.20553,0.0607 0.35014,0.01716c-0.05515,-0.2558 -0.15294,-0.47149 -0.2508,-0.68715c-0.02583,-0.06033 -0.08506,-0.09694 -0.16836,-0.12632c-0.25928,-0.07173 -0.4944,-0.15071 -0.75364,-0.22244c-0.0444,-0.02751 -0.12224,-0.03128 -0.22067,0.10734zM261.40737,187.41445c0.28856,0.26719 0.52887,0.54891 0.64497,0.9089c0.01654,0.07672 0.08506,0.09695 0.14428,0.13358c0.14255,0.06602 0.29439,0.11564 0.48337,0.09955c-0.07717,-0.35812 -0.20085,-0.63412 -0.3393,-0.91927c-0.04614,-0.09505 -0.11086,-0.15729 -0.20901,-0.19582c-0.18143,-0.06798 -0.35362,-0.15227 -0.53506,-0.22019c-0.0148,-0.00919 -0.06301,0.00536 -0.0871,0.01261c-0.02788,0.04925 -0.05576,0.09852 -0.10218,0.18058zM260.78136,180.99768c-0.18521,-0.02591 -0.38526,-0.06105 -0.5705,-0.08698c-0.02408,0.00724 -0.04821,0.01451 -0.09637,0.02903c0.03101,0.26305 0.15294,0.47149 0.27861,0.63792c0.52404,0.16904 1.01841,0.31975 1.52181,0.63119c-0.1068,-0.37643 -0.40873,-0.40801 -0.57332,-0.57636c-0.20901,-0.19582 -0.38462,-0.41528 -0.56025,-0.63476zM257.05019,185.11769c-0.27058,0.05426 -0.52261,0.07571 -0.75632,0.24142c0.06644,0.1298 0.09402,0.25769 0.15502,0.36189c0.06096,0.1042 0.11261,0.22483 0.21628,0.28893c0.16111,0.03316 0.31501,-0.02678 0.46509,-0.04476c0.15009,-0.018 0.29643,0.00607 0.44479,-0.07947c-0.17187,-0.26148 -0.33814,-0.49739 -0.5248,-0.76806zM258.64856,188.54495c-0.40698,-0.34045 -0.74928,-0.6187 -1.09149,-0.89696c-0.02961,-0.01833 -0.06472,-0.06225 -0.11293,-0.04771c-0.22789,0.01418 -0.46684,-0.02282 -0.69127,0.12648c0.1701,0.19392 0.32542,0.37868 0.49003,0.54702c0.46133,-0.00274 0.89648,0.11131 1.40571,0.27119zM264.01436,186.23426c-0.02,-0.2119 -0.14948,-0.33632 -0.23075,-0.47527c-0.08678,-0.16454 -0.20143,-0.2798 -0.40146,-0.31488c-0.26853,-0.05531 -0.53709,-0.11063 -0.75541,-0.29002c-0.09467,0.09662 -0.11704,0.17144 -0.0282,0.22641c0.21278,0.15379 0.44037,0.3168 0.57709,0.53439c0.20698,0.30539 0.50342,0.31149 0.83874,0.3194zM262.76868,187.65811c0.1309,0.36915 0.22116,0.66883 0.32068,0.95207c0.10362,0.06411 0.19075,0.05153 0.26852,0.0553c0.0871,-0.01261 0.19448,0.0095 0.28914,-0.08707c-0.01622,-0.25392 -0.07135,-0.50964 -0.15055,-0.75818c-0.22033,-0.06981 -0.43518,-0.11408 -0.72782,-0.16213zM264.95304,185.52935c-0.3057,0.01035 -0.57252,0.02265 -0.85411,0.02572c0.12744,0.23401 0.24006,0.45887 0.35267,0.68371c0.25751,0.00417 0.48165,0.03201 0.72637,-0.0826c-0.0496,-0.23018 -0.14192,-0.4203 -0.22493,-0.62683zM257.02244,184.03647c-0.02269,0.25197 0.14192,0.4203 0.2342,0.61042c0.02583,0.06033 0.10913,0.08971 0.17216,0.08434c0.20382,-0.0069 0.38353,-0.00654 0.57252,-0.02258c0.01481,0.00917 0.03339,-0.02371 0.052,-0.05653c-0.14221,-0.2432 -0.30857,-0.47903 -0.45079,-0.72222c-0.19448,-0.00952 -0.38729,0.04854 -0.58007,0.10662zM258.90316,181.80846c-0.20001,-0.03507 -0.38523,-0.06103 -0.59111,0.05543c0.05893,0.2138 0.09924,0.46041 0.23044,0.65244c0.13151,0.01489 0.24444,0.06257 0.37043,0.05186c0.11669,0.00574 0.22586,0.09544 0.3539,-0.02487c-0.11813,-0.25042 -0.23627,-0.50082 -0.3637,-0.73489zM265.13916,185.02394c0.17041,0.01676 0.32808,-0.0852 0.50053,-0.17799c-0.10329,-0.24128 -0.14368,-0.48788 -0.31374,-0.68181c-0.1928,0.05807 -0.40209,0.0394 -0.62276,0.14672c0.14221,0.2432 0.29373,0.46993 0.43597,0.71309zM263.74195,182.05354c0.25721,0.1813 0.56641,0.30606 0.80501,0.52025c0.20351,0.17023 0.38696,0.12855 0.61693,0.00484c-0.09781,-0.21566 -0.24208,-0.34928 -0.39187,-0.50843c-0.35766,0.06689 -0.68547,-0.02505 -1.03007,-0.0166zM257.92092,189.3361c0.02238,-0.07484 -0.02205,-0.10229 -0.06644,-0.1298c-0.18316,-0.13549 -0.39045,-0.26374 -0.56434,-0.41567c-0.24414,-0.2397 -0.48512,-0.16712 -0.7688,-0.05444c0.08508,0.09697 0.1405,0.17556 0.20522,0.23779c0.14981,0.15915 0.30334,0.27635 0.54985,0.22936c0.15008,-0.01799 0.30194,0.03166 0.43898,0.07206c0.04992,0.05307 0.10537,0.13169 0.20552,0.06068zM261.12975,190.41251c-0.01275,-0.11871 -0.0441,-0.20463 -0.06064,-0.28135c-0.0255,-0.23745 -0.13089,-0.36917 -0.32714,-0.44625c-0.16661,-0.05878 -0.3202,-0.17597 -0.47754,-0.25114c-0.04441,-0.02751 -0.07954,-0.07138 -0.15941,0.03439c0.16079,0.21036 0.30307,0.45351 0.41189,0.72036c0.02583,0.06033 0.09983,0.10609 0.15905,0.14275c0.137,0.04044 0.25927,0.07175 0.45376,0.08124zM264.18584,186.67294c-0.18521,-0.02593 -0.37594,-0.07743 -0.57427,-0.04493c0.06996,0.26494 0.10097,0.52798 0.22839,0.76198c0.20381,-0.00692 0.37972,0.03545 0.5708,-0.09019c-0.05892,-0.2138 -0.0937,-0.43486 -0.22493,-0.62684zM258.59429,183.59032c-0.06996,-0.26493 -0.19187,-0.47336 -0.33236,-0.64893c-0.2038,0.0069 -0.3835,0.00657 -0.60041,0.07188c0.0145,0.18632 0.08649,0.34169 0.18257,0.48979c0.24821,0.02057 0.48716,0.05755 0.75019,0.08731zM264.03987,188.55548c0.15942,-0.03439 0.26128,-0.03783 0.36697,-0.08331c0.0723,-0.02179 0.12979,-0.0527 0.18727,-0.08366c0.0189,-0.20997 -0.0011,-0.42186 -0.0934,-0.61198c-0.19448,-0.00952 -0.38901,-0.019 -0.5856,0.08107c0.0496,0.23018 0.06963,0.44208 0.12475,0.69785zM259.5684,190.13371c0.07547,0.29052 0.11954,0.49512 0.18396,0.7345c0.04992,0.05307 0.16282,0.10077 0.27956,0.10647c0.1074,0.02211 0.19247,0.11907 0.32226,0.06637c0.03921,-0.17525 0.02094,-0.31955 -0.03623,-0.46578c-0.24619,-0.13014 -0.46826,-0.26758 -0.74955,-0.4416zM256.14814,184.98072c0.12052,-0.03631 0.24101,-0.07259 0.36148,-0.10884c0.12051,-0.03633 0.22617,-0.08177 0.34665,-0.11804c-0.09779,-0.21567 -0.1512,-0.40391 -0.29546,-0.53751c-0.1167,-0.00571 -0.20207,0.07448 -0.29295,0.12906c-0.09085,0.05462 -0.22617,0.08177 -0.2764,0.20581c0.0479,0.16266 0.06615,0.30693 0.15673,0.42948zM265.27169,186.59101c-0.22239,0.03976 -0.44654,0.01189 -0.67649,0.13568c0.05343,0.18819 0.11609,0.36 0.16948,0.54821c0.22238,-0.03975 0.41141,-0.0558 0.59693,-0.20703c-0.00898,-0.16072 0.01166,-0.30314 -0.08993,-0.47685zM257.05024,187.2014c-0.21072,-0.2634 -0.40115,-0.49204 -0.59156,-0.72066c-0.12602,0.0107 -0.24273,0.00497 -0.33737,0.1016c0.06065,0.28137 0.22143,0.49169 0.37297,0.71843c0.12603,-0.01071 0.25201,-0.0214 0.37249,-0.05769c0.06852,0.02024 0.10189,-0.00346 0.18347,-0.04163zM262.84777,189.03703c-0.21863,-0.00223 -0.39631,-0.11218 -0.58909,-0.0541c0.04584,0.27219 0.08618,0.51881 0.1895,0.76011c0.16871,-0.05082 0.31672,0.04081 0.4985,-0.06842c0.01889,-0.20995 -0.05861,-0.39096 -0.09891,-0.63757zM259.03997,180.89569c0.02379,0.16988 0.07168,0.3325 0.15296,0.47147c0.23343,0.01139 0.45754,0.03925 0.72057,0.06896c-0.10709,-0.19924 -0.16979,-0.37105 -0.24348,-0.59401c-0.23344,-0.01141 -0.44275,-0.03009 -0.63004,0.05357zM261.50193,190.53194c0.22964,0.05343 0.42039,0.10491 0.63175,0.01403c0.0003,-0.17714 0.00617,-0.3287 -0.07512,-0.46768c-0.21482,-0.04426 -0.42035,-0.1049 -0.6741,-0.15106c0.02,0.2119 0.04932,0.40735 0.11751,0.60471zM258.12936,182.50463c-0.11261,-0.22483 -0.09926,-0.46044 -0.24353,-0.59403c-0.2038,0.0069 -0.36698,0.08329 -0.52466,0.18526c0.02931,0.19546 0.04378,0.38177 0.17874,0.53179c0.18348,-0.04164 0.35768,-0.06691 0.58937,-0.12304zM265.76684,185.25704c-0.1687,0.05082 -0.31877,0.06878 -0.46164,0.17991c0.09781,0.21566 0.09922,0.46041 0.25453,0.64518c0.15942,-0.03438 0.27439,-0.09626 0.37283,-0.23487c-0.0441,-0.20462 -0.11229,-0.40199 -0.16571,-0.59018zM256.35628,187.7917c-0.17421,0.02522 -0.27984,0.07068 -0.38937,0.15811c0.05341,0.18822 0.14568,0.37833 0.32336,0.48821c0.14459,-0.04356 0.28914,-0.08709 0.44857,-0.12148c-0.08851,-0.23211 -0.25688,-0.35843 -0.38258,-0.52487zM265.4877,181.75915c-0.12976,0.05269 -0.23548,0.09816 -0.30602,0.18749c0.09227,0.19008 0.20321,0.34736 0.34748,0.48097c0.13528,-0.02709 0.24097,-0.07257 0.33563,-0.16918c-0.08299,-0.20656 -0.25139,-0.33286 -0.37707,-0.49928zM264.96313,188.19565c0.2334,0.01142 0.32255,-0.11077 0.3914,-0.26769c0.06506,-0.1149 0.10049,-0.24818 0.00991,-0.37071c-0.17421,0.02522 -0.33359,0.0596 -0.49125,0.16157c0.02379,0.16988 0.05686,0.32335 0.08993,0.47683zM261.23286,180.23521c-0.16111,-0.03318 -0.27953,-0.10645 -0.41861,-0.03734c0.06585,0.48408 0.3936,0.57607 0.79743,0.60421c-0.13118,-0.19201 -0.24761,-0.37489 -0.37879,-0.56688zM263.75846,189.51186c0.02444,-0.1844 0.00615,-0.3287 -0.07135,-0.50966c-0.13906,0.06915 -0.29644,-0.00603 -0.42998,0.08867c-0.04097,0.10769 -0.00033,0.17713 0.00691,0.27029c0.02205,0.10227 0.0052,0.20271 0.10883,0.26685c0.12603,-0.01071 0.25204,-0.02143 0.38559,-0.11614zM260.47947,185.13351c0.19103,-0.12563 0.21721,-0.24246 0.09324,-0.34129c-0.18316,-0.1355 -0.38494,-0.23818 -0.5719,-0.33166c-0.05919,-0.03665 -0.14256,-0.06599 -0.22791,0.01416c0.22005,0.24696 0.45865,0.46108 0.70655,0.65882zM266.3261,184.33954c0.10741,0.02213 0.18901,-0.01607 0.2596,-0.10541c-0.04032,-0.24664 -0.04724,-0.51695 -0.19876,-0.7437c-0.20034,0.14207 -0.25441,0.30816 -0.17138,0.51467c0.02205,0.1023 0.01071,0.22834 0.11056,0.33444zM261.57659,182.84188c0.13008,-0.22982 0.12831,-0.29745 -0.00488,-0.37987c-0.21657,-0.11182 -0.44794,-0.23282 -0.70167,-0.27895c0.19216,0.29623 0.37881,0.56688 0.70657,0.65883zM264.45653,181.32071c0.10912,0.08969 0.21282,0.15381 0.30712,0.23435c0.19797,0.14469 0.19799,0.14465 0.4393,-0.10506c-0.08508,-0.09697 -0.17564,-0.21952 -0.22555,-0.27253c-0.1928,0.05805 -0.35217,0.09246 -0.52085,0.14326zM256.5712,182.53804c0.01825,0.14432 -0.03573,0.31041 0.12712,0.41117c0.12979,-0.0527 0.25405,-0.131 0.40793,-0.19096c-0.02379,-0.1699 -0.02343,-0.34702 -0.11402,-0.46956c-0.13907,0.06918 -0.28368,0.11268 -0.42103,0.24937zM265.05931,183.04594c0.14602,0.20114 0.28271,0.41877 0.42874,0.61991c0.0926,0.01293 0.17969,0.00037 0.20583,-0.11644c-0.0496,-0.23018 -0.14742,-0.44592 -0.31202,-0.61424c-0.12602,0.0107 -0.22238,0.03975 -0.32257,0.1108zM259.52985,180.48937c0.05024,-0.12407 0.03751,-0.24283 -0.01418,-0.36345c-0.07782,-0.00382 -0.1556,-0.0076 -0.23342,-0.0114c-0.10189,0.00342 -0.19452,-0.00949 -0.27986,0.0707c-0.05577,0.09851 -0.07262,0.19888 -0.03574,0.31039c0.17973,0.00034 0.38353,-0.00658 0.56321,-0.00618zM257.40314,183.54046c-0.02379,-0.1699 -0.09026,-0.2997 -0.18081,-0.42223c-0.16317,0.07636 -0.31704,0.13636 -0.4561,0.20546c-0.0299,0.15885 0.02175,0.27947 0.10129,0.35086c0.18348,-0.04162 0.36697,-0.0833 0.53569,-0.13407zM260.36047,180.11666c-0.1167,-0.00571 -0.2334,-0.01142 -0.35943,-0.00073c-0.02407,0.00725 -0.04269,0.04011 -0.07609,0.06381c0.00723,0.09315 -0.01891,0.20996 0.07168,0.33251c0.14635,0.024 0.31297,0.08275 0.49645,0.04112c0.00029,-0.17713 -0.05138,-0.29775 -0.13264,-0.43671zM262.12627,180.03415c-0.15357,-0.11718 -0.08098,-0.31611 -0.22902,-0.4077c-0.15557,-0.00759 -0.29813,-0.07366 -0.49092,-0.01557c0.00898,0.16072 0.02727,0.30506 0.18839,0.3382c0.16112,0.03318 0.28505,0.13203 0.53156,0.08506zM266.24326,183.00255c-0.06646,-0.12978 -0.12366,-0.276 -0.17529,-0.39662c-0.0055,-0.02558 -0.04442,-0.0275 -0.07404,-0.04579c-0.07607,0.06378 -0.19657,0.10004 -0.23575,0.27531c0.07199,0.15534 0.15875,0.31992 0.23628,0.50086c0.12427,-0.07827 0.19483,-0.16765 0.24888,-0.33373zM256.3545,183.55668c-0.14459,0.04353 -0.30398,0.07793 -0.42445,0.11423c-0.03922,0.17524 -0.02097,0.31958 0.00662,0.44745c0.11296,0.04771 0.19275,-0.05807 0.27438,-0.09627c0.0816,-0.03822 0.17798,-0.06723 0.22822,-0.19133c0.00756,-0.084 0.0003,-0.17716 -0.08475,-0.27413zM262.49858,190.57226c0.15009,-0.018 0.26132,-0.03784 0.37249,-0.05771c0.03891,0.00191 0.0816,-0.03819 0.1057,-0.04546c0.06506,-0.1149 0.05231,-0.23366 0.00061,-0.35429c-0.1649,0.00882 -0.32053,0.00122 -0.48919,0.05195c-0.01133,0.12598 0.00142,0.24473 0.0104,0.40545zM264.69259,180.86831c-0.15529,-0.18479 -0.3106,-0.36949 -0.54574,-0.44851c-0.0392,0.17523 -0.09876,0.31578 -0.02678,0.47113c0.29813,0.07366 0.29815,0.07365 0.57251,-0.02262zM264.12368,189.36107c0.43931,-0.10507 0.44855,-0.12147 0.46774,-0.50865c-0.15942,0.03439 -0.31325,0.09435 -0.47267,0.12871c-0.05024,0.12407 -0.03747,0.2428 0.00487,0.37987zM258.61382,180.94228c-0.1649,0.00881 -0.30021,0.03596 -0.43379,0.13065c-0.00378,0.042 -0.00206,0.10958 -0.00032,0.17716c0.01104,0.05116 0.03686,0.1115 0.04788,0.16261c0.16491,-0.00883 0.33534,0.00794 0.48371,-0.0776c0.01133,-0.12597 -0.03101,-0.26305 -0.09751,-0.39282zM261.2452,191.12683c-0.00175,-0.06756 -0.00901,-0.16072 -0.04411,-0.20464c-0.13499,-0.15004 -0.30158,-0.20874 -0.52953,-0.19459c0.00344,0.13515 -0.04126,0.2848 0.01971,0.38903c0.18521,0.02593 0.35737,0.11027 0.55393,0.01021zM255.75601,186.73319c-0.02408,0.00724 -0.04819,0.01451 -0.09637,0.02903c-0.00234,0.28674 0.06757,0.55167 0.13753,0.81659c0.1315,0.01486 0.21308,-0.02333 0.30224,-0.1455c-0.11261,-0.22483 -0.21595,-0.46607 -0.34338,-0.70012zM260.4547,183.41135c0.16633,0.23591 0.30856,0.47904 0.56953,0.61835c0.0148,0.00919 0.08156,-0.03821 0.10015,-0.07103c0.04643,-0.0821 0.0244,-0.1844 -0.04965,-0.23015c-0.16459,-0.16835 -0.37566,-0.25458 -0.62006,-0.31715zM257.78895,181.16351c-0.1353,0.0271 -0.2706,0.05425 -0.39487,0.13253c-0.06505,0.11492 -0.0819,0.21533 -0.02475,0.36153c0.15389,-0.05997 0.32258,-0.11076 0.46163,-0.17988c0.02614,-0.11679 0.01888,-0.20996 -0.04207,-0.31418zM265.77301,187.01202c0.14489,-0.2207 0.27124,-0.40853 0.2791,-0.66966c-0.16111,-0.03317 -0.28539,0.04508 -0.40416,0.14896c0.01451,0.18631 0.02346,0.34703 0.12508,0.52073zM259.39234,191.2218c-0.0052,-0.20274 -0.01068,-0.22828 -0.05512,-0.2558c-0.13874,-0.10803 -0.31848,-0.10838 -0.48337,-0.09955c-0.06298,0.00535 -0.12425,0.07832 -0.0633,0.18252c0.189,-0.01605 0.34432,0.16871 0.60183,0.17282zM256.23134,186.14062c-0.10329,-0.24128 -0.18256,-0.48981 -0.42497,-0.66191c-0.02645,0.29395 0.08617,0.51883 0.16919,0.72533c0.08331,0.0294 0.14078,-0.00156 0.25576,-0.06344zM263.3406,190.07352c-0.00204,0.10957 -0.01888,0.20997 -0.02094,0.31954c0.17974,0.00036 0.33912,-0.03404 0.39691,-0.24212c0.01309,-0.05842 0.02613,-0.1168 -0.02379,-0.16988c-0.1074,-0.02212 -0.21311,0.02333 -0.35217,0.09246zM262.05116,181.65026c0.08362,-0.14779 0.09121,-0.23173 -0.03653,-0.28859c-0.11294,-0.04772 -0.22588,-0.09541 -0.34811,-0.12668c-0.05369,-0.01103 -0.11673,-0.00572 -0.13909,0.06912c0.14978,0.15917 0.31265,0.25993 0.52371,0.34616zM258.22392,187.70592c0.15531,0.18479 0.32921,0.33667 0.54955,0.4065c0.01482,0.00917 0.08157,-0.03823 0.09085,-0.05462c0.01858,-0.0328 -0.00723,-0.09315 -0.03687,-0.11147c-0.20175,-0.10267 -0.36087,-0.24543 -0.60359,-0.24043zM258.2813,188.80538c-0.17593,-0.04235 -0.33882,-0.14312 -0.55741,-0.1454c0.14601,0.20115 0.2903,0.33476 0.40699,0.34045c0.1074,0.02212 0.14461,-0.04354 0.1504,-0.1951zM266.49669,185.30955c0.06708,-0.22451 0.19718,-0.45439 0.08456,-0.67921c-0.28568,0.22224 -0.17307,0.44707 -0.08456,0.67921zM263.67203,183.87235c0.01857,-0.03281 0.0131,-0.05847 0.03167,-0.09128c-0.15734,-0.07516 -0.25343,-0.22328 -0.43314,-0.22362c-0.07058,0.08933 -0.08362,0.14777 -0.03747,0.24281c0.1315,0.01486 0.27782,0.03889 0.43899,0.07207zM259.46326,185.65743c0.17941,0.17749 0.32368,0.31108 0.51063,0.4046c0.02961,0.01833 0.07779,0.00382 0.10567,-0.04544c0.00931,-0.01644 0.01307,-0.05841 0.00755,-0.084c-0.15529,-0.18479 -0.33296,-0.29467 -0.62386,-0.27514zM261.58082,190.95766c-0.02613,0.11681 -0.02442,0.18437 0.0386,0.17904c0.1315,0.01486 0.27232,0.0133 0.41314,0.01177c0.0871,-0.01261 0.11498,-0.06184 0.08362,-0.14775c-0.19073,-0.05154 -0.35188,-0.0847 -0.53535,-0.04305zM256.98556,181.84126c-0.00723,-0.09315 0.0003,-0.17716 -0.00692,-0.27031c-0.00548,-0.02557 -0.03514,-0.04389 -0.07024,-0.08781c-0.11152,0.19698 -0.25812,0.35011 -0.31973,0.6002c0.15389,-0.05997 0.25957,-0.10542 0.3969,-0.24212zM261.07282,188.00548c0.15733,0.07518 0.29991,0.14121 0.48686,0.23472c-0.05515,-0.25579 -0.16049,-0.38748 -0.31784,-0.46265c-0.09087,0.05462 -0.13357,0.0947 -0.16903,0.22795zM263.62048,182.62129c0.14083,-0.00154 0.28504,0.13204 0.47612,0.0064c-0.32746,-0.26908 -0.40145,-0.31488 -0.47757,-0.25111c-0.04643,0.0821 -0.04473,0.14968 0.00142,0.24473zM258.93535,186.66087c0.11055,0.33442 0.28824,0.4443 0.54748,0.51606c-0.04758,-0.33978 -0.32919,-0.33663 -0.54748,-0.51606zM261.80888,180.34765c0.10505,0.30884 0.26793,0.40963 0.46418,0.48669c0.01481,0.00917 0.04819,-0.01452 0.06677,-0.04735c0.02789,-0.04926 0.01684,-0.10041 -0.01276,-0.11871c-0.13873,-0.10803 -0.29607,-0.1832 -0.51817,-0.32059zM263.84449,181.69574c0.16111,0.03318 0.3185,0.10837 0.51499,0.00832c-0.12019,-0.14086 -0.26272,-0.20687 -0.39044,-0.26374c-0.10017,0.07102 -0.12252,0.14583 -0.12457,0.25543zM261.09506,179.5957c-0.19832,0.03249 -0.36116,-0.06828 -0.51332,0.05926c0.17941,0.17749 0.17939,0.17748 0.48889,0.12514c0.00378,-0.042 0.00756,-0.084 0.02442,-0.18439zM265.90684,184.65639c0.08567,-0.25733 0.01748,-0.45471 -0.07483,-0.64481c-0.1167,-0.00571 -0.15389,0.05997 -0.13735,0.13668c0.07201,0.15534 0.13469,0.32717 0.21218,0.5081zM258.56071,180.57692c0.04097,-0.10769 0.07262,-0.19891 0.01165,-0.30311c-0.11118,0.01987 -0.22242,0.03973 -0.29294,0.12905c-0.03167,0.09123 -0.02991,0.15883 0.01072,0.22833c0.09261,0.01293 0.1649,-0.00882 0.27058,-0.05427zM262.66614,185.93212c-0.09055,-0.12253 -0.16083,-0.21036 -0.26824,-0.23247c-0.03891,-0.00191 -0.0723,0.02176 -0.1057,0.04545c-0.02789,0.04926 -0.03545,0.13326 0.01824,0.14431c0.08885,0.05497 0.19248,0.11908 0.35568,0.04269zM256.17601,182.84775c-0.12805,0.12029 -0.12835,0.29745 -0.17307,0.4471c0.304,-0.07793 0.32255,-0.11079 0.17307,-0.4471zM257.74608,189.7156c-0.18492,-0.20307 -0.18491,-0.20307 -0.35739,-0.11027c0.07024,0.08781 0.15532,0.18477 0.35739,0.11027zM262.83316,184.68335c-0.0816,0.03822 -0.10946,0.08745 -0.08915,0.12217c0.07201,0.15534 0.12569,0.16643 0.34258,0.10109c-0.07573,-0.11337 -0.1646,-0.16837 -0.25344,-0.22332zM262.3176,179.73143c0.02759,0.12789 0.06445,0.23936 0.18663,0.27066c0.10424,-0.29018 0.08396,-0.32487 -0.18663,-0.27066zM257.03281,189.73976c0.0479,0.16266 0.15701,0.25234 0.25134,0.33285c0.0592,0.03665 0.13153,0.01487 0.12806,-0.12029c-0.09434,-0.08051 -0.20351,-0.17026 -0.37941,-0.21259zM259.94623,179.68293c0.12947,0.12443 0.23137,0.121 0.33533,0.00797c0,0 0.00378,-0.042 -0.01104,-0.05116c-0.07956,-0.07137 -0.19449,-0.00954 -0.32432,0.04316zM261.92507,186.95888c0.02613,-0.11681 -0.0145,-0.18632 -0.08299,-0.20652c-0.02961,-0.01833 -0.07782,-0.0038 -0.1112,0.01986c-0.03338,0.0237 -0.03165,0.09123 -0.00203,0.10954c0.03512,0.04391 0.09432,0.08054 0.19624,0.07711zM257.69324,180.83819c0.14082,-0.00154 0.22241,-0.03973 0.2375,-0.20774c-0.16491,0.00883 -0.23169,0.05616 -0.2375,0.20774z" fill="#000000"/><path d="M267.02501,190.38019c0.31218,-0.5162 0.62436,-1.03245 0.92171,-1.55783c0.33454,-0.59107 0.60984,-1.21874 0.80182,-1.87582c0.05779,-0.20808 0.06742,-0.40161 0.11971,-0.63525c0.23692,0.14657 0.45344,0.25834 0.65142,0.40302c1.20649,0.83512 2.47421,1.59732 3.71408,2.40875c1.10661,0.72902 2.20773,1.43242 3.32366,2.145c0.76058,0.49273 1.50638,0.97634 2.26694,1.46908c0.71619,0.46527 1.43611,0.88852 2.15229,1.35375c0.05922,0.03666 0.11845,0.0733 0.16837,0.12634c0.03279,0.33061 -0.03262,0.62268 -0.13132,0.93842c-0.16208,0.49826 -0.36304,0.99459 -0.63803,1.44512c-0.08362,0.14779 -0.15244,0.30468 -0.30083,0.39021c0.05402,-0.1661 0.19133,-0.30278 0.21955,-0.52917c-0.3019,-0.03166 -0.52572,-0.2366 -0.77193,-0.36675c-0.01481,-0.00917 -0.02959,-0.01832 -0.0389,-0.00192c-0.47406,-0.116 -0.90342,-0.38164 -1.36447,-0.55603c-0.16662,-0.05876 -0.36116,-0.06826 -0.49062,-0.19268c-0.27751,-0.21606 -0.64246,-0.24231 -0.92001,-0.45837c-0.01481,-0.00917 -0.05371,-0.01105 -0.08333,-0.02941c-0.30915,-0.12475 -0.61282,-0.22402 -0.90341,-0.38162c-0.32572,-0.20151 -0.69619,-0.2534 -1.00331,-0.48773c-0.24821,-0.02057 -0.42209,-0.17252 -0.63865,-0.28433c-0.02961,-0.01833 -0.04444,-0.02749 -0.07401,-0.04581c-0.37046,-0.05186 -0.6442,-0.30988 -0.97749,-0.42742c-0.33326,-0.11753 -0.62561,-0.34272 -0.9496,-0.47666c-0.36841,-0.16145 -0.74985,-0.26441 -1.07731,-0.53355c-0.02961,-0.01833 -0.07403,-0.04582 -0.11294,-0.04772c-0.21863,-0.00223 -0.36839,-0.16144 -0.55535,-0.25496c-0.08885,-0.05497 -0.18315,-0.13549 -0.2906,-0.15762c-0.1704,-0.0168 -0.27956,-0.10647 -0.41282,-0.18892c-0.07403,-0.04581 -0.13877,-0.10804 -0.21657,-0.11181c-0.24821,-0.02057 -0.43691,-0.18164 -0.62937,-0.30071c-0.07403,-0.04581 -0.13877,-0.10799 -0.21657,-0.11183c-0.2093,-0.0187 -0.36289,-0.13584 -0.52575,-0.23664c-0.26653,-0.16488 -0.59803,-0.21484 -0.85523,-0.39614c-0.03514,-0.04389 -0.1074,-0.02215 -0.16112,-0.03317z" fill="#87d7dc"/><path d="M267.02504,190.3802c0.05369,0.01107 0.12601,-0.01072 0.17043,0.01677c0.25722,0.18128 0.57945,0.24767 0.85524,0.39613c0.16285,0.10076 0.31644,0.21795 0.52574,0.23663c0.07782,0.00382 0.14256,0.06602 0.21656,0.11178c0.19248,0.11906 0.39044,0.26376 0.62938,0.30077c0.07782,0.0038 0.13327,0.08244 0.21658,0.1118c0.13324,0.08243 0.2517,0.15573 0.41282,0.18892c0.1074,0.02212 0.20179,0.10269 0.29061,0.15763c0.18696,0.09349 0.33676,0.25267 0.55536,0.25493c0.03891,0.00191 0.08332,0.02939 0.11293,0.0477c0.31265,0.25993 0.70895,0.37212 1.07734,0.53354c0.33882,0.14312 0.63111,0.3683 0.94958,0.4767c0.33325,0.11751 0.60703,0.37555 0.97746,0.42741c0.02409,-0.00722 0.04442,0.0275 0.07404,0.04581c0.19248,0.11906 0.39044,0.26372 0.6387,0.28432c0.29784,0.2508 0.6683,0.30261 1.00329,0.48775c0.2813,0.17404 0.59426,0.25682 0.90341,0.38164c0.02961,0.01833 0.05374,0.01103 0.08334,0.02937c0.27751,0.21606 0.64245,0.2423 0.92,0.45836c0.15357,0.11717 0.33328,0.11755 0.49063,0.19268c0.45172,0.19081 0.89039,0.44004 1.36445,0.55603c0.01481,0.00917 0.03892,0.00188 0.03892,0.00188c0.2462,0.13014 0.47001,0.33514 0.77195,0.36675c-0.01889,0.20997 -0.17106,0.33751 -0.21957,0.52917c-0.07432,0.13134 -0.14869,0.26266 -0.3026,0.32263c-0.08885,-0.05497 -0.18315,-0.13549 -0.29058,-0.15759c-0.37594,-0.07742 -0.67758,-0.28626 -1.0071,-0.44577c-0.32947,-0.15951 -0.70544,-0.23694 -1.00328,-0.48772c-0.24821,-0.02057 -0.42212,-0.17248 -0.63868,-0.2843c-0.02961,-0.01833 -0.07402,-0.0458 -0.11293,-0.0477c-0.17974,-0.00036 -0.30916,-0.12479 -0.45174,-0.19083c-0.07403,-0.04581 -0.14807,-0.09157 -0.21656,-0.11181c-0.3722,-0.11943 -0.74987,-0.2644 -1.09041,-0.47511c-0.04441,-0.02751 -0.09435,-0.08058 -0.14254,-0.06602c-0.19448,-0.00951 -0.33327,-0.11751 -0.48133,-0.20911c-0.15357,-0.11717 -0.36669,-0.09383 -0.53503,-0.2202c-0.22759,-0.16298 -0.49615,-0.21828 -0.75161,-0.33201c-0.34432,-0.16869 -0.71096,-0.26254 -1.05147,-0.47324c-0.05922,-0.03666 -0.12397,-0.09887 -0.18697,-0.09349c-0.15561,-0.00764 -0.27956,-0.10643 -0.42209,-0.17249c-0.11843,-0.07329 -0.24616,-0.13014 -0.3684,-0.16146c-0.22964,-0.05343 -0.4407,-0.13965 -0.648,-0.26787c-0.32019,-0.17594 -0.69617,-0.25337 -0.99401,-0.50413c-0.02961,-0.01833 -0.08329,-0.02942 -0.11294,-0.04772c-0.33882,-0.14312 -0.68688,-0.26977 -1.00706,-0.44575c-0.32572,-0.20151 -0.72579,-0.2717 -1.03291,-0.50607c-0.04441,-0.02751 -0.10741,-0.0221 -0.16112,-0.03317c-0.21105,-0.08624 -0.42762,-0.19806 -0.59221,-0.3664c0.03166,-0.09125 0.0688,-0.15692 0.09119,-0.23174c0.17452,-0.20238 0.31563,-0.38107 0.45124,-0.58535z" fill="#b0eef2"/><path d="M263.05159,179.56481c0.30914,0.12477 0.54054,0.24579 0.72546,0.44887c0.0441,0.20464 -0.01367,0.41271 -0.05667,0.62991c-0.25939,1.05871 -0.53359,2.10825 -0.94479,3.11739c-0.31076,0.76095 -0.63077,1.53833 -1.02483,2.26987c-0.11152,0.19699 -0.24711,0.4013 -0.31423,0.6258c-0.03166,0.09125 -0.08744,0.18976 -0.14316,0.28824c-0.28225,0.3574 -0.47565,0.76975 -0.71348,1.15464c-0.33074,0.54908 -0.72072,1.0615 -1.14029,1.55557c-0.21719,0.24246 -0.41959,0.49411 -0.63124,0.76215c-0.15971,0.2115 -0.36004,0.35358 -0.54559,0.5048c-0.33156,-0.04998 -0.44446,-0.09766 -0.7812,-0.35035c0.21921,-0.35202 0.50319,-0.64185 0.75206,-0.97555c0.23956,-0.31729 0.48839,-0.651 0.71317,-0.97746c0.23406,-0.34285 0.46259,-0.71135 0.68182,-1.06335c0.22475,-0.32643 0.36993,-0.72431 0.63915,-1.02332c0.13042,-0.40702 0.37927,-0.7407 0.56889,-1.11108c0.18034,-0.35394 0.35515,-0.73345 0.52069,-1.09658c0.17483,-0.37952 0.33482,-0.76819 0.50418,-1.17329c0.15073,-0.37227 0.32556,-0.75176 0.46147,-1.13323c0.1452,-0.39784 0.25152,-0.79756 0.38194,-1.20458c0.13969,-0.42342 0.27562,-0.80483 0.34681,-1.24849z" fill="#d1eaeb"/><path d="M266.59791,190.95832c-0.02237,0.07483 -0.05954,0.14051 -0.09117,0.23175c0.16461,0.16834 0.35705,0.2874 0.59221,0.3664c0.0537,0.01107 0.11671,0.00571 0.16111,0.03318c0.30711,0.23435 0.69794,0.32096 1.03291,0.50606c0.31092,0.19236 0.66827,0.30264 1.00706,0.44579c0.02961,0.01833 0.08333,0.0294 0.11293,0.0477c0.29783,0.25079 0.66827,0.30265 0.99399,0.50417c0.19248,0.11906 0.41833,0.21447 0.64799,0.26786c0.13698,0.04044 0.26476,0.09729 0.3684,0.16143c0.13324,0.08243 0.24239,0.17213 0.42211,0.17248c0.06297,-0.00534 0.12774,0.05688 0.18695,0.09353c0.32572,0.20151 0.70718,0.30449 1.05148,0.47322c0.25547,0.11375 0.52402,0.16901 0.75161,0.33202c0.15357,0.11717 0.36666,0.09385 0.53503,0.2202c0.13876,0.10802 0.29232,0.22519 0.48133,0.20915c0.0537,0.01107 0.09811,0.03853 0.14253,0.06598c0.34051,0.21068 0.70337,0.34656 1.0904,0.47511c0.08331,0.0294 0.14806,0.09158 0.21653,0.11182c0.13324,0.08243 0.27203,0.19043 0.45172,0.19078c0.03891,0.00191 0.08332,0.02938 0.11292,0.04771c0.19248,0.11906 0.39045,0.26374 0.63868,0.28432c0.29784,0.25078 0.6738,0.32821 1.00328,0.48771c0.32947,0.15951 0.6459,0.37745 1.00705,0.44575c0.10741,0.02213 0.20175,0.10269 0.2906,0.15762c-0.06884,0.15693 -0.2134,0.20047 -0.29324,0.30626c-0.66827,-0.30261 -1.31627,-0.57053 -1.95493,-0.85485c-0.70719,-0.30455 -1.39029,-0.61632 -2.08818,-0.93725c-0.6535,-0.29348 -1.31628,-0.57052 -1.97904,-0.84758c-0.82012,-0.35225 -1.63472,-0.67888 -2.44005,-1.02196c-0.60908,-0.266 -1.21813,-0.53202 -1.83649,-0.78156c-0.94786,-0.40908 -1.87338,-0.89303 -2.83981,-1.26927c-0.12772,-0.05686 -0.27405,-0.08087 -0.37941,-0.21257c0.08362,-0.14779 0.21167,-0.26803 0.32492,-0.39751c0.07606,-0.06378 0.13008,-0.22985 0.27847,-0.31543z" fill="#87d7dc"/><path d="M280.63085,196.89165c0.16553,-0.3631 0.38099,-0.67316 0.53168,-1.0454c0.16381,-0.43068 0.31278,-0.87052 0.37296,-1.36529c0.85872,0.53128 1.70262,1.05339 2.53173,1.56636c0.06066,0.28135 -0.00096,0.53142 -0.03843,0.77426c-0.08047,0.46006 -0.2646,0.85599 -0.45801,1.26835c-0.00931,0.01644 -0.04268,0.04008 -0.06677,0.04737c-0.00519,-0.20272 -0.1515,-0.22673 -0.28855,-0.26717c-0.34259,-0.10111 -0.67585,-0.21861 -0.96265,-0.41826c-0.05922,-0.03666 -0.11845,-0.07328 -0.18695,-0.09348c-0.33708,-0.07553 -0.62386,-0.27514 -0.93307,-0.39994c-0.18143,-0.06798 -0.31845,-0.10831 -0.50195,-0.0667z" fill="#61afb4"/><path d="M264.48942,189.9863c0.41407,-0.51966 0.72449,-1.10343 1.09412,-1.6506c0.16349,-0.25351 0.28254,-0.53456 0.40162,-0.81557c0.24918,-0.51086 0.56684,-1.00148 0.75675,-1.54901c0.08192,-0.21534 0.16382,-0.43067 0.22163,-0.63875c0.03544,-0.13326 0.08565,-0.25732 0.15073,-0.37227c0.05369,0.01103 0.09261,0.01297 0.12223,0.03131c0.11841,0.0733 0.23688,0.14654 0.35533,0.2198c-0.00203,0.10957 -0.00963,0.19357 -0.02646,0.29396c-0.15685,0.70094 -0.32302,1.41837 -0.68544,2.0587c-0.30114,0.5674 -0.61153,1.15114 -0.97192,1.68192c-0.28051,0.425 -0.54621,0.85911 -0.93586,1.19438c0.01682,-0.10041 0.11702,-0.17145 0.06534,-0.29204c-0.14427,-0.13359 -0.30887,-0.30194 -0.5481,-0.16177z" fill="#61aeb3"/><path d="M265.70437,190.20599c0.12837,-0.29743 0.36588,-0.50513 0.53865,-0.77509c0.34933,-0.58192 0.69869,-1.16378 1.00359,-1.77316c0.23987,-0.49442 0.41121,-1.00914 0.54368,-1.52569c0.03544,-0.13326 0.07086,-0.26647 0.10629,-0.39974c0.20729,0.12824 0.38498,0.23813 0.57743,0.35724c0.06615,0.30693 0.00076,0.59901 -0.10346,0.88919c-0.11731,0.3486 -0.24396,0.71356 -0.41501,1.05109c-0.35897,0.77544 -0.79744,1.47954 -1.23039,2.2092c-0.07433,0.13133 -0.14868,0.26271 -0.28776,0.33183c-0.07403,-0.04581 -0.13878,-0.10799 -0.21657,-0.11181c-0.18522,-0.02594 -0.35362,-0.15227 -0.51645,-0.253z" fill="#61aeb3"/><path d="M280.63085,196.89166c0.15942,-0.03439 0.3057,-0.01035 0.46305,0.06483c0.30915,0.12479 0.596,0.32443 0.93304,0.39992c0.06853,0.02023 0.12776,0.05685 0.18698,0.09351c0.31093,0.19235 0.62937,0.30072 0.96264,0.41824c0.12224,0.03131 0.28336,0.06445 0.28856,0.26719c-0.12459,0.25543 -0.28428,0.46696 -0.47911,0.6346c-0.23518,-0.07898 -0.47961,-0.14158 -0.6683,-0.30262c-0.02961,-0.01833 -0.08332,-0.0294 -0.11293,-0.0477c-0.32397,-0.13393 -0.66278,-0.27704 -0.97748,-0.42742c-0.14254,-0.06602 -0.26097,-0.13933 -0.41282,-0.18892c-0.19072,-0.05153 -0.37771,-0.14501 -0.49409,-0.32787c0.03167,-0.09123 0.06883,-0.15691 0.09121,-0.23173c0.06506,-0.1149 0.1542,-0.23713 0.21921,-0.35203z" fill="#87d7dc"/><path d="M257.53563,185.10767c0.3188,-0.0688 0.6021,-0.00434 0.8762,0.07658c0.06851,0.02022 0.15735,0.07519 0.20729,0.12824c0.35501,0.39698 0.7472,0.72833 1.14867,1.04319c0.01481,0.00917 0.03511,0.04389 0.04066,0.06948c0.00723,0.09315 -0.03919,0.17527 -0.13007,0.22986c-0.02961,-0.01833 -0.06854,-0.02021 -0.09813,-0.03853c-0.34599,-0.23628 -0.71994,-0.42329 -1.12552,-0.51904c-0.20554,-0.06068 -0.36843,-0.16145 -0.49961,-0.35344c-0.13669,-0.21759 -0.3013,-0.3859 -0.41945,-0.63637z" fill="#cce5e6"/><path d="M259.21366,187.47587c-0.01133,0.12598 -0.06331,0.1825 -0.1356,0.20427c-0.72924,-0.40686 -0.72924,-0.40684 -1.49974,-0.52887c-0.23313,-0.18857 -0.41975,-0.45919 -0.61014,-0.68786c0.03544,-0.13326 0.13354,-0.09468 0.19655,-0.10004c0.22789,-0.01418 0.44101,-0.03748 0.66515,-0.00964c0.14635,0.02403 0.25925,0.07176 0.35909,0.17783c0.3144,0.32753 0.65285,0.64775 1.0247,0.94434z" fill="#cce5e6"/><path d="M280.40233,197.26009c-0.02238,0.07484 -0.05955,0.14053 -0.09119,0.23173c0.11639,0.18286 0.30334,0.27635 0.49411,0.32786c0.15186,0.0496 0.27028,0.12287 0.41282,0.18894c0.3147,0.15037 0.65348,0.29346 0.97747,0.42741c0.02961,0.01833 0.08334,0.02939 0.11294,0.04772c0.21279,0.1538 0.44241,0.20725 0.66826,0.30264c-0.10393,0.11303 -0.19864,0.20964 -0.3618,0.28601c-0.44243,-0.20724 -0.91828,-0.39078 -1.36621,-0.62358c-0.44243,-0.20724 -0.92201,-0.34879 -1.36618,-0.62358c0.16348,-0.25351 0.3342,-0.4139 0.51972,-0.56514z" fill="#60adb2"/><path d="M262.96531,184.34392c0.02236,-0.07483 0.03547,-0.13326 0.05781,-0.20808c0.0482,-0.01454 0.07228,-0.02175 0.09637,-0.02902c0.28885,0.09004 0.59081,0.12168 0.90199,0.13692c0.13151,0.01488 0.22967,0.05341 0.3054,0.16678c0.16082,0.21034 0.35503,0.39696 0.41188,0.72034c-0.30397,0.07792 -0.60592,0.0463 -0.89855,-0.00177c-0.05369,-0.01103 -0.11842,-0.07332 -0.16836,-0.12633c-0.23861,-0.21408 -0.47727,-0.42829 -0.70659,-0.65885z" fill="#cce5e6"/><path d="M259.34965,181.79658c0.1852,0.02591 0.30194,0.03166 0.43346,0.04653c0.23895,0.037 0.42587,0.1305 0.57742,0.35724c0.27167,0.3676 0.58611,0.6951 0.95622,0.92411c0.11843,0.0733 0.12394,0.09886 -0.00234,0.28674c-0.04442,-0.02749 -0.09813,-0.03852 -0.14256,-0.06604c-0.36084,-0.24542 -0.74403,-0.416 -1.15512,-0.53734c-0.09812,-0.03857 -0.18144,-0.06793 -0.23692,-0.14654c-0.14776,-0.26875 -0.31406,-0.50467 -0.43012,-0.86467z" fill="#cae2e3"/><path d="M260.32499,185.54773c-0.02408,0.00724 -0.06305,0.00537 -0.07782,-0.00382c-0.32191,-0.24349 -0.68481,-0.37935 -1.04221,-0.48965c-0.33325,-0.11751 -0.6146,-0.29157 -0.80293,-0.6298c-0.08678,-0.16454 -0.24036,-0.28168 -0.29374,-0.46992c0.45958,-0.07035 0.85209,0.08386 1.11276,0.40029c0.32541,0.37868 0.6267,0.76458 1.06538,1.01382c0.03514,0.04389 0.09434,0.08056 0.0386,0.17906z" fill="#c9e1e2"/><path d="M258.71402,182.95497c0.32981,-0.01761 0.57423,0.04494 0.83348,0.11668c0.08331,0.0294 0.15733,0.07519 0.19798,0.14467c0.33093,0.40426 0.69522,0.78481 1.07809,1.13253c0.02961,0.01833 0.06473,0.06219 0.00346,0.13514c-0.10362,-0.06411 -0.22206,-0.13739 -0.33501,-0.18511c-0.30538,-0.16679 -0.62009,-0.31713 -0.95714,-0.39266c-0.24447,-0.06253 -0.42761,-0.19807 -0.54023,-0.42292c-0.08678,-0.16454 -0.15879,-0.31989 -0.28069,-0.52834z" fill="#c9e1e2"/><path d="M263.40269,183.21801c-0.01825,-0.14433 0.02821,-0.22642 0.07466,-0.3085c0.02407,-0.00725 0.06303,-0.00537 0.08708,-0.0126c0.25546,0.11374 0.53332,0.15261 0.80941,0.12391c0.1649,-0.00881 0.29263,0.04807 0.398,0.17978c0.12569,0.1664 0.2755,0.32558 0.36781,0.5157c-0.23545,0.09814 -0.59318,0.16505 -0.7302,0.12459c-0.09261,-0.01293 -0.13326,-0.08242 -0.19798,-0.14468c-0.26096,-0.13931 -0.49033,-0.36985 -0.80875,-0.47823z" fill="#cae3e4"/><path d="M261.20186,189.43748c-0.14397,-0.31072 -0.31577,-0.57224 -0.51173,-0.82647c0.02614,-0.11679 0.06332,-0.18253 0.15419,-0.23714c0.31294,0.08278 0.60525,0.30801 0.92751,0.37438c0.11638,0.18286 0.1309,0.36915 0.1843,0.55735c0.02205,0.10227 0.0682,0.19733 0.01796,0.32143c-0.26682,0.01226 -0.49438,-0.15072 -0.77223,-0.18961z" fill="#c8e0e1"/><path d="M261.99281,186.38007c0.09843,-0.13859 0.16695,-0.11837 0.23546,-0.09816c0.25928,0.07172 0.50368,0.13429 0.75365,0.22242c0.06853,0.02022 0.12774,0.05686 0.1684,0.12634c0.09779,0.21567 0.18631,0.44779 0.25076,0.68715c-0.13528,0.02711 -0.23343,-0.01142 -0.35015,-0.01714c-0.35011,-0.01714 -0.6111,-0.15642 -0.72721,-0.51639c-0.06269,-0.17181 -0.19216,-0.29623 -0.33095,-0.40423z" fill="#cbe4e5"/><path d="M261.40737,187.41445c0.04643,-0.0821 0.07432,-0.13134 0.10219,-0.18061c0.03891,0.00191 0.0723,-0.02174 0.0871,-0.01261c0.18143,0.06798 0.35362,0.15225 0.53506,0.22019c0.09813,0.03857 0.16286,0.10078 0.20901,0.19584c0.13845,0.28515 0.25279,0.57761 0.33928,0.91927c-0.19829,0.0325 -0.34082,-0.03353 -0.48336,-0.09956c-0.05919,-0.03665 -0.11844,-0.0733 -0.14427,-0.13356c-0.11609,-0.36 -0.35645,-0.64173 -0.64498,-0.90892z" fill="#c8e0e1"/><path d="M265.70436,190.20598c0.16285,0.10076 0.33125,0.22712 0.54057,0.24577c0.07782,0.0038 0.1425,0.06604 0.21654,0.11182c-0.14316,0.28825 -0.33625,0.52347 -0.5793,0.70561c-0.18868,-0.16109 -0.4331,-0.22365 -0.62936,-0.30071c-0.00898,-0.16072 0.10049,-0.24818 0.12661,-0.36498c0.06884,-0.15693 0.17659,-0.31195 0.32492,-0.3975z" fill="#85d5d9"/><path d="M260.78136,180.99768c0.17563,0.2195 0.35125,0.43896 0.55095,0.65122c0.17939,0.17751 0.49062,0.19271 0.57328,0.5764c-0.50336,-0.31141 -1.0126,-0.47132 -1.52179,-0.63119c-0.11638,-0.18286 -0.23831,-0.39126 -0.27861,-0.63791c0.0482,-0.01454 0.0723,-0.02177 0.09637,-0.02903c0.1945,0.00951 0.37976,0.03543 0.57974,0.07051z" fill="#c6dede"/><path d="M257.05019,185.11769c0.18666,0.27068 0.35296,0.50653 0.53963,0.7772c-0.16317,0.07636 -0.30951,0.05237 -0.44478,0.07949c-0.15009,0.018 -0.304,0.07792 -0.46511,0.04473c-0.10362,-0.06411 -0.1553,-0.18475 -0.21627,-0.28893c-0.06096,-0.10419 -0.11259,-0.22486 -0.155,-0.36191c0.21893,-0.17489 0.47093,-0.19628 0.74154,-0.25057z" fill="#cae3e3"/><path d="M258.64856,188.54495c-0.50922,-0.15985 -0.94441,-0.27394 -1.4205,-0.28032c-0.15531,-0.18479 -0.31988,-0.35309 -0.48999,-0.54701c0.23925,-0.14017 0.46337,-0.11234 0.69125,-0.12649c0.03891,0.00191 0.08334,0.02941 0.11292,0.04772c0.34225,0.27825 0.68453,0.5565 1.10631,0.90612z" fill="#cae3e4"/><path d="M264.01432,186.23426c-0.3298,0.01763 -0.62623,0.01158 -0.83869,-0.31939c-0.15152,-0.22676 -0.36432,-0.38058 -0.5771,-0.5344c-0.08885,-0.05497 -0.0572,-0.1462 0.02818,-0.22642c0.2183,0.17936 0.48686,0.23472 0.75541,0.29001c0.20002,0.03507 0.3147,0.15034 0.40148,0.31488c0.08126,0.13894 0.19592,0.25425 0.23074,0.47532z" fill="#c8e0e1"/><path d="M264.4894,189.98629c0.25405,-0.131 0.4038,0.0282 0.57219,0.15452c0.05165,0.1206 -0.03368,0.20081 -0.06532,0.29203c-0.13561,0.20425 -0.30635,0.36463 -0.50672,0.50672c-0.15357,-0.11717 -0.35358,-0.15227 -0.45519,-0.32594c0.03166,-0.09125 0.05954,-0.14052 0.0967,-0.20618c0.12253,-0.14588 0.24504,-0.29175 0.35831,-0.42117z" fill="#85d4d9"/><path d="M262.76866,187.65809c0.27783,0.0389 0.50748,0.09229 0.74641,0.12927c0.07922,0.24852 0.13437,0.50428 0.15056,0.7582c-0.09466,0.09663 -0.20208,0.07447 -0.28916,0.0871c-0.0871,0.01261 -0.17417,0.02522 -0.26852,-0.05532c-0.10329,-0.24128 -0.20837,-0.55007 -0.33928,-0.91926z" fill="#c7dfe0"/><path d="M264.95304,185.52935c0.08299,0.20656 0.17528,0.39664 0.21564,0.64326c-0.24476,0.1146 -0.46887,0.08675 -0.72638,0.08259c-0.11261,-0.22484 -0.22525,-0.44968 -0.35267,-0.68372c0.3002,-0.03593 0.55777,-0.03177 0.86344,-0.04214z" fill="#c8e0e1"/><path d="M257.02243,184.03645c0.1928,-0.05805 0.38556,-0.11609 0.59489,-0.09744c0.15152,0.22676 0.29374,0.46991 0.45077,0.72223c-0.01858,0.0328 -0.03717,0.06565 -0.05198,0.05649c-0.18901,0.01607 -0.39279,0.02297 -0.5725,0.02262c-0.07782,-0.00382 -0.14634,-0.02401 -0.17216,-0.08432c-0.1219,-0.20843 -0.27169,-0.3676 -0.24904,-0.6196z" fill="#c4dcdd"/><path d="M258.90316,181.80846c0.11813,0.25042 0.24554,0.48444 0.36368,0.73489c-0.11876,0.10384 -0.23718,0.03056 -0.35391,0.02485c-0.1167,-0.00571 -0.23896,-0.03698 -0.37044,-0.05184c-0.13118,-0.19201 -0.15666,-0.42948 -0.23042,-0.65246c0.20582,-0.11646 0.39107,-0.09053 0.59109,-0.05542z" fill="#c8e0e1"/><path d="M265.13916,185.02394c-0.14221,-0.2432 -0.27895,-0.4608 -0.43596,-0.71311c0.21135,-0.09092 0.4207,-0.0722 0.62279,-0.14671c0.17008,0.19393 0.21042,0.44055 0.31373,0.6818c-0.18175,0.10921 -0.33011,0.19476 -0.50052,0.17797z" fill="#c6ddde"/><path d="M263.74193,182.05353c0.34464,-0.00847 0.67238,0.08346 1.01526,0.00744c0.1498,0.15916 0.29408,0.29279 0.39188,0.50846c-0.21514,0.13287 -0.41347,0.1654 -0.61693,-0.00484c-0.23861,-0.21411 -0.5237,-0.34617 -0.79021,-0.51105z" fill="#b9cfd0"/><path d="M257.92092,189.3361c-0.10017,0.07102 -0.14636,-0.024 -0.21482,-0.04423c-0.15184,-0.04961 -0.29435,-0.1156 -0.43899,-0.07207c-0.23721,0.03057 -0.39077,-0.08656 -0.54985,-0.22936c-0.06474,-0.06225 -0.12019,-0.14085 -0.20523,-0.23781c0.28366,-0.11271 0.52466,-0.18525 0.76878,0.05445c0.16461,0.16833 0.38116,0.28018 0.56433,0.41566c0.0444,0.02751 0.08884,0.05497 0.07576,0.11338z" fill="#c0d8d8"/><path d="M261.12977,190.41248c-0.17974,-0.00036 -0.31672,-0.04079 -0.43517,-0.11406c-0.05919,-0.03665 -0.13328,-0.08241 -0.15909,-0.14273c-0.10883,-0.26686 -0.26036,-0.49358 -0.41189,-0.72035c0.06506,-0.1149 0.11497,-0.06186 0.15942,-0.03438c0.14806,0.0916 0.31093,0.19235 0.47756,0.25111c0.21106,0.08625 0.31642,0.21794 0.32715,0.44625c-0.00204,0.10957 0.01449,0.18631 0.04204,0.31417z" fill="#c1d9d9"/><path d="M264.18584,186.67294c0.10709,0.19924 0.15119,0.40391 0.22491,0.62685c-0.19104,0.12563 -0.38176,0.0741 -0.57078,0.09019c-0.12744,-0.23401 -0.15847,-0.49703 -0.22839,-0.76199c0.21311,-0.02331 0.38906,0.01904 0.57429,0.04493z" fill="#c3dbdc"/><path d="M258.59431,183.59033c-0.26306,-0.0297 -0.50199,-0.06674 -0.75021,-0.08731c-0.09612,-0.14811 -0.17734,-0.28707 -0.18257,-0.48979c0.20209,-0.07448 0.39659,-0.06496 0.60041,-0.07191c0.15529,0.18479 0.2624,0.38399 0.33233,0.64894z" fill="#c3dadb"/><path d="M264.03987,188.55548c-0.04032,-0.24664 -0.07513,-0.46766 -0.10994,-0.68868c0.19655,-0.10006 0.39107,-0.09055 0.58557,-0.08104c0.06822,0.19736 0.09751,0.39281 0.0934,0.61192c-0.0575,0.03092 -0.13909,0.06911 -0.18725,0.08364c-0.13529,0.02712 -0.23718,0.03059 -0.3818,0.07412z" fill="#c4dbdc"/><path d="M259.56842,190.1337c0.28133,0.17406 0.50341,0.31148 0.7403,0.45797c0.05719,0.14623 0.07543,0.29054 0.03622,0.46573c-0.12977,0.05267 -0.21483,-0.04426 -0.32225,-0.0664c-0.1074,-0.02211 -0.20554,-0.06068 -0.27958,-0.10645c-0.05516,-0.25582 -0.09926,-0.46044 -0.17469,-0.75093z" fill="#c2d9da"/><path d="M256.14816,184.98073c-0.08126,-0.13894 -0.12368,-0.27597 -0.12712,-0.41114c0.05954,-0.1405 0.18558,-0.1512 0.27641,-0.20582c0.09082,-0.05461 0.16142,-0.14395 0.29292,-0.12908c0.12948,0.12443 0.19766,0.3218 0.29552,0.53751c-0.12052,0.03631 -0.24101,0.07261 -0.34668,0.11802c-0.13528,0.02711 -0.27058,0.05427 -0.39108,0.09056z" fill="#c5ddde"/><path d="M265.27169,186.59101c0.10161,0.17372 0.07168,0.33253 0.10476,0.48599c-0.17626,0.13477 -0.37456,0.16729 -0.59694,0.20706c-0.05341,-0.18819 -0.10678,-0.37643 -0.16948,-0.54825c0.21514,-0.13287 0.43929,-0.10507 0.66166,-0.1448z" fill="#c3dbdc"/><path d="M257.05024,187.2014c-0.0816,0.03822 -0.12975,0.05273 -0.17793,0.06726c-0.11118,0.01987 -0.23721,0.03058 -0.37249,0.05771c-0.14221,-0.2432 -0.31233,-0.43707 -0.37298,-0.71845c0.09466,-0.09663 0.19657,-0.10008 0.33738,-0.10162c0.18491,0.20307 0.39012,0.4409 0.5861,0.69509z" fill="#c7dfe0"/><path d="M262.84776,189.03712c0.02552,0.23746 0.11779,0.42755 0.08961,0.65395c-0.17248,0.09279 -0.3446,0.00848 -0.49849,0.06844c-0.10882,-0.26687 -0.13437,-0.5043 -0.18949,-0.76009c0.22619,-0.08174 0.38902,0.01902 0.59837,0.03765z" fill="#c7dee0"/><path d="M265.36467,190.59424c-0.02613,0.11681 -0.13563,0.20425 -0.12661,0.36498c0.21106,0.08625 0.44619,0.16525 0.62937,0.30072c-0.05199,0.05653 -0.11325,0.12944 -0.18,0.1768c-0.10017,0.07102 -0.21136,0.09088 -0.31504,0.02678c-0.18694,-0.09348 -0.3591,-0.17781 -0.54607,-0.27136c0.1208,-0.21345 0.19137,-0.30279 0.53834,-0.59796z" fill="#61acb1"/><path d="M259.66999,180.8421c0.08299,0.20656 0.14567,0.37829 0.21939,0.60127c-0.24822,-0.02057 -0.48161,-0.03198 -0.72057,-0.06896c-0.07199,-0.15534 -0.12914,-0.30158 -0.15295,-0.47148c0.22619,-0.08174 0.42067,-0.07222 0.6541,-0.06082z" fill="#c2dada"/><path d="M261.50193,190.53194c-0.08299,-0.20656 -0.0975,-0.39284 -0.13229,-0.6139c0.24446,0.06254 0.45929,0.10682 0.67414,0.15108c0.09611,0.1481 0.07545,0.29053 0.07513,0.46766c-0.18725,0.08365 -0.37805,0.03215 -0.61693,-0.00484z" fill="#c1d9d9"/><path d="M258.12933,182.50462c-0.2317,0.05615 -0.40588,0.08137 -0.5894,0.12302c-0.12018,-0.14085 -0.14948,-0.33632 -0.17875,-0.53181c0.15765,-0.10193 0.32082,-0.17832 0.52464,-0.18524c0.14978,0.15917 0.13087,0.36918 0.24352,0.59401z" fill="#c6dedf"/><path d="M265.76684,185.25704c0.06821,0.19735 0.1123,0.402 0.1657,0.5902c-0.09843,0.13859 -0.2134,0.20047 -0.37283,0.23487c-0.15529,-0.18479 -0.15667,-0.42948 -0.25452,-0.64517c0.14285,-0.11116 0.29294,-0.12907 0.46163,-0.1799z" fill="#c0d7d7"/><path d="M256.3563,187.79166c0.12569,0.16642 0.29405,0.29278 0.35851,0.53214c-0.15942,0.03439 -0.30402,0.07792 -0.44858,0.12147c-0.17764,-0.10993 -0.27923,-0.2836 -0.32332,-0.48822c0.11875,-0.10384 0.23923,-0.14013 0.4134,-0.16539z" fill="#c3dadb"/><path d="M264.14036,190.39107c-0.03717,0.06567 -0.05953,0.14053 -0.09669,0.20622c0.10161,0.17372 0.30159,0.2088 0.45519,0.32594c-0.05024,0.12407 -0.17627,0.1348 -0.2561,0.24056c-0.22963,-0.05341 -0.37944,-0.21256 -0.63694,-0.21671c0.07814,-0.17332 0.17827,-0.24435 0.28775,-0.33183c0.07606,-0.0638 0.11155,-0.19702 0.24679,-0.22413z" fill="#5aa0a4"/><path d="M265.4877,181.75915c0.12567,0.16641 0.29408,0.2928 0.35298,0.50657c-0.09466,0.09663 -0.19108,0.12564 -0.33564,0.16922c-0.14429,-0.13361 -0.26997,-0.30003 -0.34749,-0.48097c0.09467,-0.09662 0.17625,-0.13479 0.33013,-0.19475z" fill="#bdd3d4"/><path d="M264.96312,188.19566c-0.02379,-0.1699 -0.05685,-0.32337 -0.08993,-0.47681c0.15767,-0.10194 0.31707,-0.13636 0.49125,-0.1616c0.09055,0.12253 0.05516,0.25582 -0.00989,0.37072c-0.0836,0.14778 -0.16723,0.29551 -0.39139,0.2677z" fill="#bdd4d5"/><path d="M261.2329,180.23518c0.13117,0.192 0.24761,0.37488 0.3788,0.56684c-0.40382,-0.02817 -0.73158,-0.12015 -0.79742,-0.60422c0.12977,-0.05267 0.25751,0.00417 0.41863,0.03735z" fill="#bbd2d3"/><path d="M263.75845,189.51186c-0.13355,0.09468 -0.25958,0.1054 -0.38558,0.11609c-0.10362,-0.06411 -0.08678,-0.16455 -0.10881,-0.26686c-0.01653,-0.07672 -0.04787,-0.16259 -0.00691,-0.27029c0.13355,-0.09468 0.28159,-0.00313 0.42997,-0.08867c0.07752,0.18094 0.0865,0.34166 0.0714,0.50963z" fill="#c3dadb"/><path d="M260.47947,185.13351c-0.24789,-0.19775 -0.49581,-0.39542 -0.70655,-0.65883c0.07056,-0.08932 0.15391,-0.05999 0.22791,-0.01415c0.20175,0.10267 0.3942,0.22171 0.57187,0.33164c0.13324,0.08243 0.10713,0.19929 -0.09323,0.34131z" fill="#b1c6c7"/><path d="M266.3261,184.33954c-0.09985,-0.10608 -0.08852,-0.2321 -0.12538,-0.34356c-0.08301,-0.20655 -0.01419,-0.36346 0.17137,-0.5147c0.15152,0.22675 0.17324,0.50622 0.19877,0.74367c-0.07986,0.10577 -0.13735,0.13672 -0.24476,0.1146z" fill="#bbd2d3"/><path d="M261.57659,182.84188c-0.3185,-0.10837 -0.50509,-0.379 -0.71587,-0.6424c0.26305,0.02971 0.4851,0.16716 0.70167,0.27895c0.14255,0.06602 0.14431,0.13361 0.01418,0.36344z" fill="#bad1d2"/><path d="M264.45655,181.32072c0.18349,-0.04162 0.33738,-0.10158 0.52084,-0.14325c0.06474,0.06223 0.1405,0.17561 0.22555,0.27255c-0.2413,0.24973 -0.2561,0.24057 -0.43929,0.10507c-0.10362,-0.06413 -0.19799,-0.14468 -0.30712,-0.23437z" fill="#b5cbcc"/><path d="M256.5712,182.53804c0.13735,-0.13668 0.26713,-0.18944 0.3969,-0.24212c0.10538,0.13171 0.09023,0.29969 0.11405,0.46957c-0.13906,0.06915 -0.26884,0.12179 -0.40792,0.19094c-0.12394,-0.09886 -0.06996,-0.26493 -0.10303,-0.41843z" fill="#c0d7d8"/><path d="M265.05931,183.04594c0.08537,-0.08016 0.19656,-0.10008 0.32258,-0.11081c0.16459,0.16835 0.26242,0.38401 0.31202,0.61422c-0.05024,0.12407 -0.11325,0.12944 -0.20582,0.11646c-0.14602,-0.20114 -0.29203,-0.40234 -0.42873,-0.61993z" fill="#bdd4d4"/><path d="M259.52985,180.48932c-0.18901,0.01607 -0.3835,0.00657 -0.57251,0.02264c-0.03685,-0.11148 -0.02,-0.2119 0.03573,-0.3104c0.08536,-0.08016 0.17795,-0.06724 0.27984,-0.07068c0.07782,0.00382 0.1556,0.0076 0.23342,0.01141c0.06098,0.10422 0.08302,0.20654 0.02347,0.34706z" fill="#b6cccc"/><path d="M257.40314,183.54046c-0.18349,0.04162 -0.34286,0.07603 -0.53569,0.13409c-0.07954,-0.07136 -0.14052,-0.1756 -0.10129,-0.35085c0.13905,-0.06917 0.29294,-0.12911 0.45609,-0.20548c0.08126,0.13894 0.15706,0.25233 0.18082,0.42223z" fill="#c1d9d9"/><path d="M260.36045,180.11665c0.08126,0.13894 0.13296,0.2596 0.14192,0.42031c-0.18349,0.04162 -0.35014,-0.01716 -0.49645,-0.04116c-0.09985,-0.10608 -0.07371,-0.22293 -0.07167,-0.33251c0.04268,-0.04009 0.06128,-0.07293 0.07606,-0.0638c0.11669,0.00574 0.2334,0.01142 0.35014,0.01716z" fill="#b7cdce"/><path d="M262.12628,180.03416c-0.23721,0.03056 -0.37045,-0.05185 -0.52229,-0.10145c-0.17594,-0.04233 -0.17941,-0.1775 -0.1884,-0.33821c0.18349,-0.04162 0.33533,0.00797 0.49095,0.01558c0.12946,0.12444 0.08097,0.31611 0.21973,0.42412z" fill="#b6cccc"/><path d="M266.05313,182.59679c0.07198,0.15536 0.12365,0.27598 0.19011,0.40578c-0.06884,0.15693 -0.12459,0.25543 -0.26365,0.32455c-0.0775,-0.18096 -0.16429,-0.34549 -0.23628,-0.50083c0.03918,-0.17524 0.16521,-0.18592 0.23575,-0.2753c0.02961,0.01833 0.06853,0.02023 0.07406,0.04579z" fill="#c2dada"/><path d="M256.35447,183.55666c0.07573,0.11337 0.09229,0.1901 0.07547,0.29052c-0.04097,0.10769 -0.13734,0.13669 -0.2282,0.19132c-0.08159,0.03821 -0.16143,0.14396 -0.27436,0.09626c-0.04234,-0.13704 -0.06064,-0.28134 -0.00661,-0.44745c0.15389,-0.05997 0.28918,-0.0871 0.43378,-0.13065z" fill="#bbd2d3"/><path d="M262.49858,190.57226c-0.00898,-0.16073 -0.02174,-0.27947 -0.02522,-0.4146c0.1687,-0.05083 0.3243,-0.04318 0.48923,-0.05201c0.05166,0.12062 0.06444,0.23938 -0.00065,0.35427c-0.03338,0.0237 -0.06679,0.04734 -0.1057,0.04546c-0.09637,0.02903 -0.20763,0.04889 -0.3577,0.06687z" fill="#bbd2d3"/><path d="M264.69259,180.86831c-0.27437,0.09626 -0.27439,0.09627 -0.57251,0.02262c-0.07198,-0.15538 -0.01243,-0.29588 0.02679,-0.47111c0.23519,0.07899 0.38116,0.28014 0.54575,0.44849z" fill="#adc2c3"/><path d="M264.12371,189.36098c-0.05166,-0.12062 -0.05512,-0.25581 -0.00487,-0.37986c0.1687,-0.05083 0.31323,-0.09439 0.47263,-0.12873c-0.0099,0.37072 -0.01917,0.38713 -0.46774,0.50865z" fill="#b5cbcc"/><path d="M258.61383,180.9423c0.0572,0.14621 0.09402,0.2577 0.10298,0.41843c-0.14834,0.08552 -0.30949,0.05234 -0.48371,0.07757c-0.02583,-0.06033 -0.03684,-0.11145 -0.04789,-0.16261c-0.01104,-0.05116 0.00203,-0.10957 0.0003,-0.17716c0.12805,-0.12029 0.26331,-0.1474 0.42826,-0.15623z" fill="#bbd1d2"/><path d="M261.2452,191.12682c-0.19657,0.10006 -0.3835,0.00656 -0.54841,0.0154c-0.06644,-0.1298 -0.01624,-0.25391 -0.01968,-0.38907c0.22789,-0.01418 0.39454,0.04461 0.52951,0.19463c0.0444,0.0275 0.03686,0.11147 0.0386,0.17904z" fill="#b6cccd"/><path d="M255.75599,186.73319c0.12744,0.23401 0.23073,0.47528 0.34335,0.70011c-0.07987,0.10577 -0.1614,0.14396 -0.30223,0.14552c-0.06996,-0.26493 -0.13987,-0.52986 -0.13753,-0.81659c0.04822,-0.01453 0.0723,-0.02177 0.09637,-0.02904z" fill="#acc1c2"/><path d="M260.4547,183.41135c0.22036,0.06982 0.43142,0.15608 0.60527,0.308c0.06474,0.06225 0.09608,0.14811 0.04963,0.23019c-0.01857,0.0328 -0.08538,0.08017 -0.10018,0.07101c-0.23136,-0.12098 -0.38841,-0.3733 -0.55473,-0.60919z" fill="#a7bbbb"/><path d="M257.78895,181.16351c0.07025,0.08781 0.06822,0.19736 0.05686,0.32334c-0.15389,0.05997 -0.30776,0.11992 -0.46164,0.1799c-0.08126,-0.13894 -0.04031,-0.24661 0.02473,-0.36153c0.10017,-0.07102 0.24474,-0.1146 0.38007,-0.1417z" fill="#b7cdcd"/><path d="M265.773,187.01202c-0.10161,-0.17372 -0.11055,-0.33442 -0.11026,-0.51156c0.11875,-0.10384 0.23373,-0.16574 0.40414,-0.14895c-0.02268,0.25197 -0.14901,0.43983 -0.29387,0.66053z" fill="#b7cece"/><path d="M259.39234,191.2218c-0.24271,0.00501 -0.39799,-0.17974 -0.59252,-0.18923c-0.05165,-0.1206 0.00033,-0.17715 0.06333,-0.18251c0.1649,-0.00882 0.33535,0.00795 0.48336,0.09957c0.03514,0.04391 0.04992,0.05307 0.04585,0.2722z" fill="#b4cacb"/><path d="M256.23133,186.14061c-0.10016,0.07101 -0.17246,0.09281 -0.26506,0.07987c-0.08301,-0.20655 -0.18082,-0.42222 -0.16917,-0.72536c0.26096,0.13931 0.32539,0.37867 0.43423,0.64551z" fill="#b2c8c9"/><path d="M263.3406,190.07352c0.13906,-0.06915 0.24476,-0.11459 0.35217,-0.09246c0.04993,0.05305 0.03688,0.11149 0.02379,0.1699c-0.05228,0.23364 -0.20241,0.25161 -0.39689,0.2421c0.01682,-0.10041 0.01888,-0.20999 0.02093,-0.31956z" fill="#b5cbcb"/><path d="M262.05116,181.65026c-0.20176,-0.10267 -0.3646,-0.2034 -0.51438,-0.36257c0.03168,-0.09124 0.09465,-0.09661 0.13906,-0.06914c0.11294,0.04772 0.23518,0.07901 0.34809,0.1267c0.11843,0.0733 0.11086,0.15727 0.02722,0.305z" fill="#91a3a3"/><path d="M258.22394,187.70592c0.24271,-0.00501 0.42589,0.13049 0.60355,0.24043c0.02961,0.01833 0.04065,0.06949 0.03685,0.11147c-0.01858,0.0328 -0.07605,0.06379 -0.09088,0.05462c-0.23519,-0.07899 -0.40904,-0.2309 -0.54954,-0.4065z" fill="#99abac"/><path d="M258.2813,188.80537c-0.00582,0.15157 -0.0523,0.23365 -0.14492,0.2207c-0.12224,-0.03131 -0.25167,-0.15573 -0.40698,-0.34047c0.21312,-0.02335 0.37594,0.07742 0.55187,0.11978z" fill="#93a5a6"/><path d="M266.49669,185.30955c-0.0885,-0.23211 -0.20114,-0.45695 0.08456,-0.67921c0.10328,0.24128 -0.01749,0.45469 -0.08456,0.67921z" fill="#9aadad"/><path d="M263.672,183.87235c-0.14635,-0.02403 -0.30743,-0.0572 -0.43898,-0.0721c-0.04614,-0.09506 -0.03308,-0.15347 0.03749,-0.24282c0.17974,0.00034 0.29062,0.15761 0.43317,0.22363c-0.01858,0.0328 -0.02789,0.04926 -0.03167,0.09128z" fill="#c5dddd"/><path d="M259.46329,185.65744c0.2761,-0.02868 0.46858,0.09044 0.62388,0.27515c0.01481,0.00917 0.01105,0.05118 -0.00754,0.08401c-0.01309,0.05842 -0.07605,0.06379 -0.10567,0.04545c-0.17216,-0.0843 -0.32195,-0.24353 -0.51066,-0.40461z" fill="#aec2c3"/><path d="M261.58082,190.95762c0.18349,-0.04162 0.35941,0.00069 0.52055,0.0339c0.04615,0.09505 -0.00584,0.15159 -0.08362,0.14779c-0.14082,0.00155 -0.26681,0.01224 -0.41312,-0.0118c-0.04822,0.01453 -0.06473,-0.06219 -0.02378,-0.16989z" fill="#9caeaf"/><path d="M256.98556,181.84126c-0.12806,0.12029 -0.243,0.18214 -0.3969,0.24211c0.06157,-0.25008 0.2082,-0.40319 0.31973,-0.6002c0.03513,0.04391 0.06474,0.06225 0.07021,0.0878c0.00723,0.09315 -0.00031,0.17712 0.00695,0.27028z" fill="#a9bebf"/><path d="M261.07282,188.00548c0.03544,-0.13326 0.08739,-0.18973 0.16904,-0.22795c0.15733,0.07521 0.26269,0.20689 0.31784,0.46267c-0.19626,-0.07709 -0.32949,-0.15954 -0.48687,-0.23469z" fill="#b9cfd0"/><path d="M263.62046,182.62128c-0.04613,-0.09505 -0.02376,-0.1699 -0.00141,-0.24472c0.07608,-0.06377 0.15008,-0.01799 0.47754,0.25114c-0.20034,0.14207 -0.33533,-0.00795 -0.47614,-0.00642z" fill="#869797"/><path d="M258.93535,186.66087c0.20901,0.19582 0.49993,0.1763 0.54748,0.51606c-0.25928,-0.07173 -0.42763,-0.19803 -0.54748,-0.51606z" fill="#93a4a5"/><path d="M261.80888,180.34765c0.22206,0.13739 0.37012,0.22902 0.51818,0.3206c0.02961,0.01833 0.04065,0.06949 0.01275,0.11871c-0.00931,0.01644 -0.0427,0.04009 -0.06678,0.04737c-0.19625,-0.07705 -0.35916,-0.17785 -0.46417,-0.48666z" fill="#94a5a6"/><path d="M263.84449,181.69574c-0.00343,-0.13516 0.00958,-0.19354 0.11527,-0.23901c0.12772,0.05686 0.27029,0.12289 0.39047,0.26374c-0.19658,0.10003 -0.34459,0.00845 -0.50571,-0.02472z" fill="#abbfc0"/><path d="M261.09506,179.5957c-0.01684,0.10041 -0.02063,0.1424 -0.03922,0.17527c-0.30949,0.05237 -0.30945,0.05235 -0.48884,-0.12514c0.18175,-0.10921 0.3298,-0.01765 0.52807,-0.0501z" fill="#acc0c1"/><path d="M265.90684,184.65639c-0.06269,-0.17181 -0.14948,-0.33632 -0.20287,-0.52453c-0.01653,-0.07672 0.02066,-0.14241 0.13734,-0.13669c0.08299,0.20656 0.15121,0.40389 0.06551,0.66121z" fill="#9fb2b2"/><path d="M258.56071,180.57692c-0.10572,0.04546 -0.17799,0.0672 -0.27057,0.05426c-0.04067,-0.06948 -0.04239,-0.13704 -0.01073,-0.2283c0.07058,-0.08933 0.18175,-0.1092 0.29295,-0.12907c0.07025,0.08781 0.0293,0.19546 -0.01166,0.3031z" fill="#aec2c3"/><path d="M262.66611,185.93212c-0.14832,0.08553 -0.25203,0.02141 -0.36494,-0.02628c-0.0444,-0.02751 -0.04613,-0.09502 -0.01826,-0.14429c0.01858,-0.0328 0.07608,-0.06381 0.10568,-0.04546c0.1167,0.00571 0.18698,0.09352 0.27751,0.21605z" fill="#91a2a3"/><path d="M256.17601,182.84775c0.14948,0.33634 0.15504,0.36189 -0.17307,0.4471c0.04474,-0.14966 0.03575,-0.3104 0.17307,-0.4471z" fill="#869696"/><path d="M257.74608,189.7156c-0.20209,0.07446 -0.26302,-0.02972 -0.35739,-0.11027c0.15767,-0.10194 0.15767,-0.10194 0.35739,0.11027z" fill="#555f5f"/><path d="M262.83317,184.68336c0.07403,0.0458 0.17764,0.10991 0.25343,0.2233c-0.21689,0.06532 -0.27609,0.02867 -0.34257,-0.10108c-0.02032,-0.03474 0.00755,-0.08402 0.08916,-0.12218z" fill="#93a5a6"/><path d="M262.3176,179.73143c0.27059,-0.05427 0.29092,-0.01955 0.18663,0.27066c-0.12224,-0.0313 -0.1591,-0.14274 -0.18663,-0.27066z" fill="#8b9b9c"/><path d="M257.03281,189.73976c0.17594,0.04235 0.28504,0.13204 0.39423,0.22178c-0.01133,0.12598 -0.06885,0.15692 -0.12806,0.12026c-0.11844,-0.07328 -0.22759,-0.16299 -0.26619,-0.34199z" fill="#9aacad"/><path d="M259.94623,179.68293c0.12977,-0.05267 0.22996,-0.12372 0.33912,-0.03404c0.0148,0.00919 0.02033,0.03474 0.01104,0.05116c-0.11325,0.12945 -0.22069,0.10731 -0.35015,-0.01714z" fill="#5f6a6b"/><path d="M261.92508,186.95889c-0.0871,0.01261 -0.14635,-0.02403 -0.19626,-0.07711c-0.02032,-0.03474 -0.03133,-0.08589 0.00206,-0.10956c0.03338,-0.0237 0.08159,-0.03821 0.1112,-0.01985c0.05919,0.03665 0.10913,0.0897 0.08299,0.20653z" fill="#636e6f"/><path d="M257.69324,180.83819c0.02065,-0.1424 0.08189,-0.21533 0.2375,-0.20774c-0.01513,0.16798 -0.09668,0.20619 -0.2375,0.20774z" fill="#4a5354"/></g><g fill="#000000" stroke="#000000" stroke-width="1.2"><path d="M273.69784,204.98699c-1.78237,-0.55259 -3.36247,-3.50332 -5.14572,-4.94794c-1.91991,-1.55537 -3.87921,-1.5502 -4.40542,-3.10538c-0.36755,-1.08629 0.46286,-2.44018 0.98463,-3.08422c1.26873,-1.56614 4.94079,-0.69417 8.20176,1.94759c3.26097,2.64175 4.876,6.05291 3.60727,7.61903c-0.57492,0.70969 -1.7655,2.02885 -3.24248,1.57096z"/><path d="M277.59789,203.60466c-2.47818,-0.79308 -6.45622,-5.28669 -6.45622,-5.28669c0,0 -3.62819,-1.50566 -3.69449,-1.56134c-4.22629,-3.54716 -2.07663,-6.29769 0.42165,-9.38153c1.189,-1.46771 3.61246,-3.24252 5.6043,-2.95755c2.25898,0.32317 4.02427,2.49309 6.41848,4.43267c4.50527,3.64979 6.82979,8.60969 4.29232,11.74194c-1.11699,1.3788 -3.27613,4.07173 -6.58602,3.0125z"/></g></g><path d="M229.52873,171.74301c2.25644,-0.1927 4.34722,4.96029 4.66988,11.50955c0.32266,6.54926 -1.24499,12.0147 -3.50142,12.20741c-2.25644,0.1927 -4.34722,-4.96029 -4.66988,-11.50955c-0.32266,-6.54926 1.24499,-12.0147 3.50142,-12.20741z" fill="none" fill-rule="nonzero" stroke="#000000" stroke-width="4.5" stroke-linecap="butt" stroke-linejoin="miter"/><g fill="#ff0000" fill-rule="nonzero" stroke="none" stroke-linecap="butt" stroke-linejoin="miter"><path d="M290.39479,189.39704c1.08287,-0.52145 2.44113,-0.21936 3.03376,0.67477c0.59263,0.89411 0.19521,2.04167 -0.88765,2.56312c-1.08287,0.52145 -2.44113,0.21936 -3.03377,-0.67476c-0.59263,-0.89411 -0.19521,-2.04168 0.88765,-2.56313z" stroke-width="NaN"/><path d="M293.19918,185.19903c0.99625,-0.47974 2.23091,-0.22437 2.75768,0.5704c0.52679,0.79477 0.14623,1.82798 -0.85003,2.30771c-0.99625,0.47974 -2.23091,0.22435 -2.75769,-0.57042c-0.52679,-0.79477 -0.14622,-1.82796 0.85003,-2.3077z" stroke-width="0"/><path d="M298.47715,186.13778c1.03955,-0.50059 2.30934,-0.26213 2.83611,0.53264c0.52679,0.79477 0.1111,1.84488 -0.92847,2.34548c-1.03955,0.50059 -2.30933,0.26214 -2.83611,-0.53264c-0.52679,-0.79477 -0.1111,-1.84488 0.92846,-2.34547z" stroke-width="0"/><path d="M281.93437,188.32716c0.17206,0.76259 -0.53449,1.56504 -1.57814,1.79233c-1.04367,0.2273 -2.0292,-0.20664 -2.20125,-0.96922c-0.17206,-0.76259 0.53449,-1.56504 1.57816,-1.79234c1.04367,-0.2273 2.02918,0.20665 2.20124,0.96923z" stroke-width="NaN"/><path d="M285.1269,190.7609c0.15829,0.70158 -0.4654,1.4341 -1.3931,1.63615c-0.92769,0.20204 -1.80806,-0.20292 -1.96635,-0.9045c-0.15829,-0.70158 0.46542,-1.43411 1.39311,-1.63614c0.92769,-0.20204 1.80806,0.20292 1.96635,0.9045z" stroke-width="0"/><path d="M286.52579,187.8487c0.17895,0.79309 -0.3967,1.59297 -1.28573,1.78659c-0.88904,0.19362 -1.75481,-0.29235 -1.93375,-1.08544c-0.17895,-0.79309 0.3967,-1.59297 1.28574,-1.78659c0.88904,-0.19362 1.7548,0.29234 1.93374,1.08543z" stroke-width="0"/><path d="M291.47778,199.96293c1.20022,-0.23612 2.3327,0.40379 2.5295,1.42925c0.19678,1.02547 -0.61667,2.04818 -1.81689,2.2843c-1.20022,0.23612 -2.3327,-0.40377 -2.52949,-1.42925c-0.19678,-1.02547 0.61666,-2.04819 1.81688,-2.2843z" stroke-width="NaN"/><path d="M295.69679,196.56381c1.10419,-0.21721 2.14112,0.34562 2.31603,1.25714c0.17491,0.91152 -0.57842,1.82655 -1.68262,2.04377c-1.10419,0.21721 -2.14112,-0.34561 -2.31605,-1.25714c-0.17491,-0.91152 0.57842,-1.82655 1.68262,-2.04378z" stroke-width="0"/><path d="M283.9461,197.54659c-0.13905,0.79013 -1.10248,1.39669 -2.15184,1.35475c-1.04938,-0.04193 -1.78731,-0.71646 -1.64826,-1.5066c0.13905,-0.79013 1.10248,-1.39668 2.15184,-1.35475c1.04938,0.04193 1.78731,0.71645 1.64826,1.50658z" stroke-width="NaN"/><path d="M282.38601,203.18957c-0.13351,0.75854 -0.99789,1.34322 -1.93067,1.30597c-0.93278,-0.03726 -1.58072,-0.68238 -1.44722,-1.44093c0.13351,-0.75854 0.99789,-1.34324 1.93066,-1.30597c0.93278,0.03726 1.58072,0.68239 1.44722,1.44093z" stroke-width="0"/><path d="M288.3593,198.24158c-0.14463,0.82174 -0.98653,1.45894 -1.88043,1.42323c-0.89391,-0.03571 -1.50133,-0.73082 -1.35671,-1.55255c0.14463,-0.82174 0.98654,-1.45895 1.88044,-1.42324c0.89391,0.03571 1.50132,0.73082 1.35671,1.55258z" stroke-width="0"/></g><path d="M254.11005,127.36385c27.5132,1.07211 48.9231,24.88235 47.82036,53.18162c-1.10274,28.29927 -24.30053,50.37128 -51.81374,49.29916c-27.5132,-1.07211 -48.9231,-24.88235 -47.82036,-53.18162c1.10274,-28.29927 24.30053,-50.37128 51.81374,-49.29916z" fill="#000000" fill-rule="nonzero" stroke="#7d7d7d" stroke-width="4" stroke-linecap="butt" stroke-linejoin="miter"/><path d="M227.29729,135.73735c7.66339,-5.65579 18.01703,-4.62949 23.12547,2.29228c5.10845,6.92178 3.03725,17.11791 -4.62614,22.77369c-7.66339,5.65579 -18.01703,4.62949 -23.12547,-2.29228c-5.10845,-6.92178 -3.03725,-17.11791 4.62614,-22.77369z" fill="#888888" fill-rule="nonzero" stroke="none" stroke-width="0" stroke-linecap="butt" stroke-linejoin="miter"/><g stroke-linejoin="miter"><path d="M220.84311,154.20245c11.72919,6.58451 15.65935,21.85901 8.77823,34.11656c-6.88111,12.25753 -21.96775,16.85644 -33.69694,10.27193c-11.72919,-6.58451 -15.65935,-21.85901 -8.77823,-34.11656c6.88111,-12.25753 21.96775,-16.85644 33.69694,-10.27193z" fill="none" fill-rule="nonzero" stroke="#000000" stroke-width="4.5" stroke-linecap="butt"/><g stroke-linecap="butt"><g fill-rule="nonzero"><path d="M187.27731,181.84906l0.01267,-0.00602" fill="#ffab19" stroke="#000000" stroke-width="5"/><g fill="none" stroke="none" stroke-width="1" font-family="sans-serif" font-weight="normal" font-size="12" text-anchor="start"/></g><path d="M187.27731,181.84906l0.01267,-0.00602" fill="#ffab19" fill-rule="nonzero" stroke="#000000" stroke-width="5"/><path d="M209.30764,177.24925" fill="#001026" fill-rule="evenodd" stroke="#000000" stroke-width="5"/><g fill="none" fill-rule="nonzero" stroke="none" stroke-width="1" font-family="sans-serif" font-weight="normal" font-size="12" text-anchor="start"/><g fill="none" fill-rule="nonzero" stroke="none" stroke-width="1" font-family="sans-serif" font-weight="normal" font-size="12" text-anchor="start"/></g><path d="M227.54766,193.79752l-14.61896,25.56379c0,0 -1.47287,1.93047 -2.08925,1.18682c-1.41338,-1.70523 -6.21997,-11.21184 -6.21997,-11.21184l-9.18482,8.24487c0,0 -1.83049,1.41435 -2.94538,1.15475c-1.03713,-0.24149 -3.62275,-14.75871 -3.62275,-14.75871c0,0 -7.19444,5.44177 -10.01807,6.42476c-1.10877,0.386 -1.63408,-14.30659 -0.64206,-23.69054c0.48542,-4.59183 0.92085,-10.98028 2.58016,-15.4279c2.75125,-7.37448 7.68584,-11.4829 7.68584,-11.4829" fill="none" fill-rule="nonzero" stroke="#000000" stroke-width="3" stroke-linecap="round"/><path d="M212.01346,220.99166c0,0 -1.48369,-0.22492 -2.56728,-2.24319c-1.35722,-2.52794 -1.57769,-8.77606 -4.44646,-8.48988c-3.7162,0.37071 -9.48995,11.59013 -12.08439,8.35292c-2.13034,-2.65814 -2.35692,-13.41652 -4.16319,-14.43051c-1.80227,-1.01177 -2.94195,3.58685 -6.62317,4.52437c-5.23549,1.33339 -4.36011,-0.23736 -4.36011,-0.23736c0,0 -0.77845,-13.8782 -0.12384,-20.04274c0.61418,-5.78373 3.938,-15.87497 3.938,-15.87497c0,0 4.67649,19.75234 10.65143,25.55109c6.62333,6.428 31.43411,0.21896 31.43411,0.21896z" fill="url(#color-1)" fill-rule="nonzero" stroke="none" stroke-width="0" stroke-linecap="butt"/></g><path d="M204.97296,177.9154c3.07787,-0.20251 5.78117,2.79785 6.03801,6.70148c0.25684,3.90363 -2.03006,7.23232 -5.10792,7.43482c-3.07787,0.20251 -5.78117,-2.79785 -6.03801,-6.70148c-0.25684,-3.90363 2.03006,-7.23232 5.10792,-7.43482z" fill="none" fill-rule="nonzero" stroke="#000000" stroke-width="4.5" stroke-linecap="butt" stroke-linejoin="miter"/><path d="M215.15293,195.45002c0,0 -0.62741,-2.4755 1.0998,-4.95996c1.60087,-2.30276 8.91319,-9.44311 8.91319,-9.44311" fill="none" fill-rule="nonzero" stroke="#000000" stroke-width="3" stroke-linecap="round" stroke-linejoin="miter"/></g></g></svg>