<svg version="1.1" xmlns="http://www.w3.org/2000/svg" xmlns:xlink="http://www.w3.org/1999/xlink" width="61.99721" height="44.5184" viewBox="0,0,61.99721,44.5184"><g transform="translate(-209.75045,-158.07626)"><g data-paper-data="{&quot;isPaintingLayer&quot;:true}" fill-rule="nonzero" stroke-linejoin="miter" stroke-miterlimit="10" stroke-dasharray="" stroke-dashoffset="0" style="mix-blend-mode: normal"><path d="M240.1735,197.68173c-0.08397,0 -1.59625,-2.23289 -1.68754,-4.56208c-0.09914,-2.52963 1.2236,-5.17284 1.15801,-5.19265c-0.00078,-0.00024 -17.40767,1.98073 -17.40775,1.98068c-0.08826,-0.04964 -10.6657,-6.04728 -10.48344,-10.57784c0.16446,-4.0879 10.06793,-11.95012 10.06793,-12.02108c0,-0.02377 16.31507,3.42892 16.31631,3.42873c0.11434,-0.01786 -2.20099,-2.6532 -2.37519,-5.22169c-0.17639,-2.60076 1.78679,-5.1368 1.6554,-5.43954c-0.01245,-0.02866 9.36606,2.72226 16.87205,6.92655c7.22692,4.04798 12.59167,9.55396 12.59213,9.59352c0.00045,0.03951 -4.3729,7.45603 -11.15437,12.80213c-6.5628,5.17371 -15.54066,8.28327 -15.55355,8.28327z" fill="#000000" stroke="#000000" stroke-width="4" stroke-linecap="butt"/><path d="M242.49953,201.22881c0,0 0.18057,0.11528 -0.35901,-0.13397c-0.45582,-0.21055 -1.61794,-0.76654 -1.87589,-1.00221c-0.11874,-0.10848 -0.78586,-1.17008 -0.98333,-1.51535c-0.64275,-1.1238 -1.03637,-2.28058 -1.03637,-2.28058" fill="#000000" stroke="#000000" stroke-width="2" stroke-linecap="round"/><path d="M221.71938,166.05441l2.34813,2.59108" fill="none" stroke="#292929" stroke-width="1" stroke-linecap="round"/><path d="M234.15451,168.33889l4.73758,5.06604" fill="none" stroke="#292929" stroke-width="0.5" stroke-linecap="round"/><path d="M236.88296,158.74457l2.39773,2.50553" fill="none" stroke="#292929" stroke-width="1" stroke-linecap="round"/><path d="M210.25234,180.12257l3.51392,3.31829" fill="none" stroke="#292929" stroke-width="1" stroke-linecap="round"/><path d="M243.03975,200.59466c-0.08397,0 -1.59625,-2.23289 -1.68754,-4.56208c-0.09914,-2.52963 1.2236,-5.17284 1.15801,-5.19265c-0.00078,-0.00024 -17.40767,1.98073 -17.40775,1.98068c-0.08826,-0.04964 -10.6657,-6.04728 -10.48344,-10.57784c0.16446,-4.0879 10.06793,-11.95012 10.06793,-12.02108c0,-0.02377 16.31507,3.42892 16.31631,3.42873c0.11434,-0.01786 -2.20099,-2.6532 -2.37519,-5.22169c-0.17639,-2.60076 1.78679,-5.1368 1.6554,-5.43954c-0.01245,-0.02866 9.36606,2.72226 16.87205,6.92655c7.22692,4.04798 12.59167,9.55396 12.59213,9.59352c0.00045,0.03951 -4.3729,7.45603 -11.15437,12.80213c-6.5628,5.17371 -15.54066,8.28327 -15.55355,8.28327z" fill="#7a7a7a" stroke="#292929" stroke-width="4" stroke-linecap="butt"/></g></g></svg>