<svg version="1.1" xmlns="http://www.w3.org/2000/svg" xmlns:xlink="http://www.w3.org/1999/xlink" width="41.05282" height="44.08282" viewBox="0,0,41.05282,44.08282"><g transform="translate(-219.74745,-159.40149)"><g data-paper-data="{&quot;isPaintingLayer&quot;:true}" fill="#ff6666" fill-rule="nonzero" stroke="none" stroke-width="0" stroke-linecap="butt" stroke-linejoin="miter" stroke-miterlimit="10" stroke-dasharray="" stroke-dashoffset="0" style="mix-blend-mode: normal"><path d="M249.98819,163.48021c-0.92517,1.97099 -3.16964,3.87839 -3.16964,3.87839c0,0 0.16393,-2.86278 1.0891,-4.83377c0.92517,-1.97099 2.14091,-3.35492 2.71544,-3.09109c0.57453,0.26382 0.29028,2.0755 -0.63489,4.04648z"/><path d="M257.9291,190.24735c-1.39265,-0.63565 -2.61937,-2.01364 -2.61937,-2.01364c0,0 1.8828,-0.09191 3.27544,0.54374c1.39265,0.63565 2.37474,1.48 2.19358,1.8859c-0.18117,0.4059 -1.457,0.21965 -2.84965,-0.416z"/><path d="M222.6508,170.1376c1.4066,0.64776 2.62171,2.19518 2.62171,2.19518c0,0 -1.8838,-0.06276 -3.29039,-0.71051c-1.4066,-0.64776 -2.39717,-1.50523 -2.21252,-1.9152c0.18466,-0.40998 1.47461,-0.21722 2.8812,0.43054z"/><path d="M229.24932,200.30064c0.67855,-1.55292 2.59008,-3.23967 2.59008,-3.23967c0,0 -0.27274,2.38652 -0.95129,3.93944c-0.67855,1.55292 -1.59547,2.65515 -2.048,2.46192c-0.45254,-0.19324 -0.26933,-1.60877 0.40922,-3.16169z"/><path d="M233.24213,182.73826c0,0 -0.50309,0.44953 -0.74288,0.4761c-0.23979,0.02656 -0.44838,-0.08003 -0.46588,-0.23807c-0.01751,-0.15805 0.16269,-0.3077 0.40248,-0.33426c0.23979,-0.02656 0.80627,0.09624 0.80627,0.09624z"/><path d="M246.96825,178.92383c0,0 0.47006,-0.45351 0.72181,-0.52811c0.25174,-0.07459 0.49567,-0.00056 0.54484,0.16536c0.04916,0.16592 -0.11505,0.36089 -0.36679,0.43549c-0.25174,0.07459 -0.89984,-0.07274 -0.89984,-0.07274z"/></g></g></svg>