<svg version="1.1" xmlns="http://www.w3.org/2000/svg" xmlns:xlink="http://www.w3.org/1999/xlink" width="984.98498" height="681.68168" viewBox="0,0,984.98498,681.68168"><defs><linearGradient x1="337.065" y1="175.46814" x2="359.25543" y2="172.15484" gradientUnits="userSpaceOnUse" id="color-1"><stop offset="0" stop-color="#000000"/><stop offset="1" stop-color="#000000" stop-opacity="0"/></linearGradient><linearGradient x1="212.63539" y1="164.91458" x2="190.22199" y2="163.89972" gradientUnits="userSpaceOnUse" id="color-2"><stop offset="0" stop-color="#000000"/><stop offset="1" stop-color="#000000" stop-opacity="0"/></linearGradient><linearGradient x1="136.75957" y1="177.33131" x2="114.35494" y2="176.13834" gradientUnits="userSpaceOnUse" id="color-3"><stop offset="0" stop-color="#000000"/><stop offset="1" stop-color="#000000" stop-opacity="0"/></linearGradient></defs><g transform="translate(122.10263,91.80211)"><g data-paper-data="{&quot;isPaintingLayer&quot;:true}" stroke-miterlimit="10" stroke-dasharray="" stroke-dashoffset="0" style="mix-blend-mode: normal"><path d="M-122.10263,589.87958v-681.68168h984.98498v681.68168z" fill="#66fff4" fill-rule="nonzero" stroke="none" stroke-width="0" stroke-linecap="butt" stroke-linejoin="miter"/><path d="M207.51928,272.81014v-162.65602h212.04333v162.65602z" data-paper-data="{&quot;index&quot;:null}" fill="none" fill-rule="nonzero" stroke="none" stroke-width="NaN" stroke-linecap="butt" stroke-linejoin="miter"/><g data-paper-data="{&quot;index&quot;:null}" stroke-linejoin="miter"><path d="M309.81841,150.90621c13.90281,-2.07585 26.78353,7.02599 28.76989,20.32954c1.9864,13.30354 -7.67379,25.771 -21.57658,27.84685c-13.90281,2.07585 -26.78353,-7.02599 -28.76989,-20.32954c-1.9864,-13.30354 7.67379,-25.771 21.57658,-27.84685z" fill="none" fill-rule="nonzero" stroke="#000000" stroke-width="4.5" stroke-linecap="butt"/><g stroke-linecap="butt"><g fill-rule="nonzero"><path d="M326.01232,157.2034l-0.01013,0.00971" data-paper-data="{&quot;index&quot;:null}" fill="#ffab19" stroke="#000000" stroke-width="5"/><g data-paper-data="{&quot;index&quot;:null}" fill="none" stroke="none" stroke-width="1" font-family="sans-serif" font-weight="normal" font-size="12" text-anchor="start"/></g><path d="M326.01232,157.2034l-0.01013,0.00971" data-paper-data="{&quot;index&quot;:null}" fill="#ffab19" fill-rule="nonzero" stroke="#000000" stroke-width="5"/><path d="M313.88365,176.16096" fill="#001026" fill-rule="evenodd" stroke="#000000" stroke-width="5"/><g data-paper-data="{&quot;index&quot;:null}" fill="none" fill-rule="nonzero" stroke="none" stroke-width="1" font-family="sans-serif" font-weight="normal" font-size="12" text-anchor="start"/><g data-paper-data="{&quot;index&quot;:null}" fill="none" fill-rule="nonzero" stroke="none" stroke-width="1" font-family="sans-serif" font-weight="normal" font-size="12" text-anchor="start"/></g><path d="M304.97846,150.48489c0,0 5.59387,-3.15241 13.46469,-3.10333c4.74699,0.02961 10.87315,1.89291 15.33775,3.07103c9.12391,2.4076 22.67072,8.12007 21.91589,9.01929c-1.92228,2.28997 -9.56559,7.08089 -9.56559,7.08089c0,0 12.65069,7.57594 12.50784,8.6312c-0.15356,1.13435 -2.1261,2.34273 -2.1261,2.34273l-10.97077,5.65519c0,0 7.17787,7.87129 8.2695,9.79841c0.47604,0.84042 -1.85184,1.5311 -1.85184,1.5311l-29.09032,4.57982" fill="none" fill-rule="nonzero" stroke="#000000" stroke-width="3" stroke-linecap="round"/><path d="M328.47574,197.07264c0,0 14.62097,-20.98463 10.96637,-29.45998c-3.29686,-7.64568 -20.09788,-19.03646 -20.09788,-19.03646c0,0 10.61373,0.47938 16.23817,1.96071c5.99478,1.57886 18.69039,7.23853 18.69039,7.23853c0,0 1.77928,-0.26003 -1.32764,4.15984c-2.18456,3.10774 -6.888,2.53878 -6.58278,4.58296c0.30587,2.04871 10.28145,6.08382 12.00899,9.01974c2.10387,3.57553 -10.43505,4.98523 -12.10221,8.3271c-1.287,2.57979 4.4749,5.00633 6.3555,7.17332c1.50144,1.73011 1.18441,3.19689 1.18441,3.19689z" data-paper-data="{&quot;index&quot;:null}" fill="url(#color-1)" fill-rule="nonzero" stroke="none" stroke-width="0" stroke-linecap="butt"/></g><path d="M309.2428,182.23552c-0.10492,-0.80441 -0.26752,-15.3251 -0.26752,-15.3251" data-paper-data="{&quot;index&quot;:null}" fill="none" fill-rule="nonzero" stroke="#000000" stroke-width="4.5" stroke-linecap="round" stroke-linejoin="miter"/><path d="M296.61307,181.64441c-0.10056,-0.77096 -0.15333,-15.3029 -0.15333,-15.3029" data-paper-data="{&quot;index&quot;:null}" fill="none" fill-rule="nonzero" stroke="#000000" stroke-width="4.5" stroke-linecap="round" stroke-linejoin="miter"/><path d="M317.503,156.36157l-12.50434,12.84878" data-paper-data="{&quot;index&quot;:null}" fill="none" fill-rule="nonzero" stroke="#000000" stroke-width="4.5" stroke-linecap="round" stroke-linejoin="miter"/><path d="M299.87306,168.90154l-11.09333,-13.93777" data-paper-data="{&quot;index&quot;:null}" fill="none" fill-rule="nonzero" stroke="#000000" stroke-width="4.5" stroke-linecap="round" stroke-linejoin="miter"/><path d="M322.18455,201.60917c4.09278,-1.83987 11.48233,-0.07804 14.2846,6.15558c2.80227,6.23362 1.47038,13.63561 -2.6224,15.47549c-2.23006,1.00251 -5.09421,0.51735 -7.17254,-1.40039c-1.73598,-1.60184 -2.75096,-4.28956 -4.02633,-7.12662c-1.21867,-2.7109 -2.77622,-12.06432 -0.46333,-13.10406z" data-paper-data="{&quot;index&quot;:null}" fill="#000000" fill-rule="nonzero" stroke="#001026" stroke-width="1.2" stroke-linecap="butt" stroke-linejoin="miter"/><path d="M313.48033,205.36817l0.01344,14.03316" data-paper-data="{&quot;index&quot;:null}" fill="none" fill-rule="nonzero" stroke="#000000" stroke-width="6" stroke-linecap="round" stroke-linejoin="miter"/><path d="M295.70565,225.99176c0,0 8.94894,-8.29286 9.28158,-8.63364c1.98391,-2.03247 8.06122,-17.44072 8.06122,-17.44072c0,0 4.00364,9.47278 7.86302,12.97464c2.81639,2.55548 5.40448,0.6941 5.93125,1.36909" data-paper-data="{&quot;index&quot;:null}" fill="none" fill-rule="nonzero" stroke="#000000" stroke-width="6" stroke-linecap="round" stroke-linejoin="miter"/><g data-paper-data="{&quot;index&quot;:null}" fill-rule="nonzero" stroke-linecap="butt" stroke-linejoin="miter"><g data-paper-data="{&quot;index&quot;:null}" stroke="none" stroke-width="1"><path d="M294.23416,212.6554c0.21192,0.31957 0.4209,0.5759 0.60672,0.89333c0.18984,0.29256 0.33858,0.59431 0.52844,0.88687c0.33574,0.53112 0.68248,1.07571 1.01822,1.60687c0.20784,0.34438 0.41559,0.68873 0.6234,1.03313c0.61646,0.99479 1.23295,1.98965 1.78913,3.02979c0.44044,0.77892 0.93714,1.53729 1.39268,2.30486c0.24768,0.42318 0.48036,0.85771 0.75417,1.28305c0.25182,0.39836 0.4474,0.81726 0.68411,1.22696c0.4074,0.73844 0.96155,1.3883 1.32377,2.16073c0.16663,0.35354 0.41965,0.66391 0.63154,0.98347c0.29581,0.45232 0.56553,0.90249 0.85037,1.34132c0.0949,0.14625 0.12259,0.29957 0.04194,0.46911c-0.10391,0.23055 -0.24488,0.44544 -0.40785,0.63337c-0.64787,0.72683 -1.45257,1.20158 -2.41415,1.42427c-0.28807,0.06433 -0.48161,0.03577 -0.64255,-0.19148c-0.02199,-0.027 -0.055,-0.06746 -0.07701,-0.09444c-0.55009,-0.67467 -1.12623,-1.35149 -1.67628,-2.02621c-0.05503,-0.06747 -0.09492,-0.14623 -0.1691,-0.17755c-0.21145,-0.08036 -0.31335,-0.26495 -0.44535,-0.42687c-0.76314,-0.90624 -1.51124,-1.8238 -2.25933,-2.74137c-0.154,-0.18893 -0.32719,-0.34163 -0.48119,-0.53056c-0.97221,-1.16261 -1.92928,-2.33656 -2.93163,-3.47648c-1.02434,-1.16689 -2.02948,-2.37002 -3.0237,-3.55959c-0.45511,-0.52841 -0.89517,-1.06816 -1.35028,-1.59656c-0.06597,-0.08094 -0.11695,-0.17326 -0.23631,-0.17052c-0.13445,0.01411 -0.21145,-0.08036 -0.27747,-0.16132c-0.17599,-0.21592 -0.36712,-0.42048 -0.53212,-0.62288c-0.79045,-0.01489 -1.51124,-0.21283 -2.23894,-0.44909c-0.22653,-0.06908 -0.43388,-0.17429 -0.62623,-0.29085c-0.50283,-0.31835 -1.02069,-0.62538 -1.40981,-1.07283c-0.19109,-0.20458 -0.40134,-0.37296 -0.69103,-0.4598c-0.07416,-0.03127 -0.1483,-0.06258 -0.20334,-0.13005c-0.17603,-0.21589 -0.35207,-0.43178 -0.49794,-0.67037c-0.07983,-0.15762 -0.11852,-0.32442 -0.03788,-0.49396c0.08473,-0.19437 0.04601,-0.36121 -0.01876,-0.53016c-0.10472,-0.24777 -0.20942,-0.49554 -0.24691,-0.75034c-0.2164,-1.33933 -0.05261,-2.65988 0.61766,-3.9261c0.21066,-0.39792 0.44738,-0.79373 0.79125,-1.11775c0.4535,-0.42823 0.951,-0.80248 1.48841,-1.09796c1.2024,-0.6433 2.47933,-1.01617 3.84063,-1.01709c0.46243,0.00041 0.90979,0.01216 1.35596,0.11191c0.788,0.19091 1.51856,0.49033 2.17659,0.90961c0.12222,0.06043 0.25547,0.13438 0.40091,0.13377c0.14549,-0.00056 0.25265,0.07123 0.32966,0.16567c0.13203,0.16191 0.27913,0.3125 0.39605,0.48576c0.13897,0.20025 0.28198,0.37568 0.23715,0.64888c-0.00819,0.04968 0.02074,0.11501 0.05377,0.15547c0.17601,0.21587 0.2506,0.48636 0.34023,0.74546c0.4193,1.23021 0.6108,2.4794 0.18216,3.80331c-0.02322,0.06099 -0.03542,0.13549 -0.04765,0.21c0.16102,0.22721 0.35208,0.43179 0.49795,0.67038c0.07982,0.15762 0.12261,0.29957 -0.01021,0.46483zM293.70311,212.74999c0.12755,-0.05243 0.12185,-0.17872 0.18622,-0.24894c-0.07173,-0.20727 -0.25997,-0.34867 -0.29746,-0.60347c-0.17682,0.11123 -0.23429,0.21978 -0.29173,0.32831c-0.05336,0.08372 -0.19602,0.14743 -0.19029,0.27379c-0.11369,0.1291 -0.24244,0.26946 -0.35612,0.39854c-0.4506,0.49139 -1.00025,0.86135 -1.49489,1.29878c-0.23022,0.19493 -0.50439,0.33596 -0.75661,0.5039c-0.48525,0.29975 -0.91964,0.69181 -1.43791,0.95109c-0.21389,0.09562 -0.3907,0.2069 -0.60461,0.30251c-0.12752,0.05244 -0.24406,0.11832 -0.34958,0.19772c0.01791,0.05182 0.02484,0.09014 0.04685,0.11712c0.08802,0.10793 0.17598,0.2159 0.264,0.32384c0.12345,-0.02756 0.20573,-0.04595 0.28805,-0.06432c0.68983,-0.25773 1.35356,-0.51759 1.95251,-0.94641c0.52359,-0.37211 1.06223,-0.75556 1.5418,-1.18165c0.38505,-0.33322 0.77007,-0.66641 1.06304,-1.08272c0.18496,-0.16093 0.32185,-0.35101 0.43674,-0.56808zM293.47416,213.66238c-0.13565,0.10208 -0.27541,0.229 -0.33408,0.42551c-0.26726,0.1793 -0.44248,0.4417 -0.69878,0.63453c-0.53171,0.42178 -1.05246,0.85706 -1.62815,1.22488c-0.44412,0.29059 -0.93225,0.52716 -1.44236,0.7368c-0.1124,0.04104 -0.23999,0.09348 -0.38256,0.15722c0.14305,0.17545 0.28602,0.35084 0.42904,0.52629c0.31292,0.02585 0.59811,-0.10164 0.86829,-0.2178c0.33043,-0.16147 0.66495,-0.34784 0.98847,-0.54771c0.72238,-0.45638 1.36375,-0.98241 2.03113,-1.50626c0.12065,-0.09074 0.24115,-0.18149 0.29173,-0.32834c0.25221,-0.16796 0.47552,-0.40122 0.62463,-0.66583c0.0383,-0.07235 0.11366,-0.12902 0.15198,-0.20141c0.05748,-0.10858 0.06274,-0.2214 -0.01427,-0.31584c-0.11694,-0.17326 -0.22289,-0.33306 -0.33981,-0.50632c-0.21799,0.12046 -0.29745,0.20197 -0.54516,0.58429zM303.84902,230.08726c0.09864,-0.11769 0.19722,-0.23546 0.25589,-0.43196c-0.26278,-0.41182 -0.52152,-0.84853 -0.79533,-1.27387c-0.27788,-0.4005 -0.4653,-0.86906 -0.79534,-1.27389c-0.2151,0.1836 -0.3781,0.37153 -0.50398,0.57509c-0.12061,0.09073 -0.21515,0.18362 -0.33576,0.27432c-0.33859,0.21119 -0.60708,0.4785 -0.9677,0.6627c-0.40576,0.21821 -0.82264,0.42292 -1.30545,0.5467c0.64914,0.79612 1.26515,1.55175 1.88123,2.30741c0.27175,0.03503 0.5117,-0.05843 0.76273,-0.13841c0.43068,-0.12807 0.8255,-0.35978 1.19831,-0.61849c0.0151,-0.01135 0.03427,-0.04757 0.03833,-0.07238c0.22205,-0.14528 0.42208,-0.31754 0.56713,-0.55729zM302.01484,227.09136c0.13158,-0.07724 0.15605,-0.22626 0.28071,-0.34181c-0.3606,-0.62129 -0.73626,-1.23123 -1.10092,-1.82769c-0.40867,-0.65046 -0.80634,-1.28737 -1.19997,-1.94914c-0.37568,-0.60993 -0.7363,-1.23122 -1.09687,-1.85251c-0.44453,-0.75409 -0.87397,-1.51947 -1.32951,-2.28704c-0.32755,-0.58082 -0.67024,-1.15026 -1.01291,-1.71975c-0.52846,-0.88685 -1.14328,-1.73049 -1.62655,-2.65139c-0.06191,-0.10578 -0.11979,-0.23642 -0.25995,-0.34868c-0.16176,0.09992 -0.23835,0.2446 -0.35203,0.37368c-0.09862,0.11773 -0.25632,0.1928 -0.3109,0.3645c-0.17399,0.17444 -0.34389,0.32401 -0.51788,0.49845c-0.47143,0.37643 -0.94285,0.75288 -1.42525,1.11579c-0.55373,0.39478 -1.12945,0.76259 -1.75611,1.0381c-0.18785,0.0978 -0.4046,0.13024 -0.61442,0.201c0.16505,0.20238 0.31496,0.41617 0.48406,0.59372c0.99541,1.10159 1.90442,2.24639 2.86968,3.37067c0.85116,1.0142 1.70644,2.0035 2.5576,3.01771c0.58713,0.69032 1.16329,1.36718 1.75041,2.0575c0.55413,0.64988 1.08215,1.29755 1.62126,1.95874c0.04398,0.054 0.10304,0.09664 0.14706,0.1506c0.32106,-0.02383 0.62829,-0.12432 0.9135,-0.2518c0.47302,-0.22524 0.93914,-0.48883 1.35028,-0.81988c0.12466,-0.11555 0.27136,-0.20413 0.34795,-0.34887c0.12059,-0.09071 0.23015,-0.19495 0.28073,-0.34179zM282.23812,212.79793c0.1638,0.29036 0.31373,0.50412 0.50893,0.68384c0.21958,0.03074 0.41842,-0.05356 0.61725,-0.13782c1.0272,-0.38085 2.02136,-0.80222 2.9687,-1.34075c0.7253,-0.39322 1.45461,-0.81127 2.11794,-1.31031c0.18093,-0.13606 0.36589,-0.29703 0.57981,-0.39263c0.11244,-0.04106 0.20289,-0.10907 0.26726,-0.17929c0.31779,-0.3262 0.69065,-0.5849 1.05246,-0.8571c0.52764,-0.39696 0.95915,-0.85216 1.3947,-1.33225c0.22737,-0.25814 0.45062,-0.49142 0.6739,-0.72472c0.17805,-0.19923 0.30396,-0.40282 0.42984,-0.60638c-0.07743,-0.33362 -0.15441,-0.42807 -0.44861,-0.72923c-0.33165,0.24946 -0.5712,0.58209 -0.86987,0.87211c-0.2836,0.27862 -0.58226,0.56864 -0.87682,0.83379c-0.30965,0.27651 -0.65646,0.53736 -0.96608,0.81386c-0.30561,0.25166 -0.68127,0.44723 -0.93184,0.76632c-0.38666,0.18204 -0.68536,0.47203 -1.028,0.70805c-0.3386,0.21118 -0.68128,0.44722 -1.01984,0.65841c-0.36872,0.23384 -0.73338,0.44286 -1.09807,0.65191c-0.34957,0.19771 -0.70325,0.42025 -1.06386,0.60446c-0.37565,0.19556 -0.75824,0.35272 -1.14491,0.53478c-0.37157,0.17068 -0.73221,0.3549 -1.16285,0.48297zM287.0195,206.61025c-0.04196,0.33637 0.07375,0.59761 0.18947,0.85888c0.01383,0.07668 0.0949,0.14631 0.15399,0.18893c0.42457,0.31195 0.81897,0.64654 1.18325,1.00384c0.01102,0.01352 0.04811,0.02919 0.07417,0.03131c0.10838,-0.01627 0.16869,-0.06163 0.21107,-0.15879c-0.01098,-0.01348 -0.02893,-0.0653 -0.05094,-0.09228c-0.27914,-0.3125 -0.49792,-0.67039 -0.6605,-1.04879c-0.07171,-0.20729 -0.21881,-0.3579 -0.4152,-0.4496c-0.21837,-0.11872 -0.42172,-0.24875 -0.68532,-0.33347zM289.58518,207.96728c0.12343,-0.02757 0.17277,-0.08642 0.18498,-0.16093c-0.51296,-0.65903 -0.51297,-0.65901 -0.71873,-1.41855c-0.23224,-0.19535 -0.49873,-0.34321 -0.76113,-0.5159c-0.11247,0.04108 -0.08761,0.13119 -0.07376,0.20786c0.01551,0.22782 0.02,0.44217 0.07662,0.66079c0.04278,0.14197 0.10474,0.24777 0.22287,0.33304c0.36551,0.26929 0.72693,0.56338 1.06918,0.89369zM286.96574,212.09316c-0.07124,0.03185 -0.14261,0.06375 -0.19883,0.08427c-0.00816,0.04965 -0.02729,0.08581 -0.01628,0.09931c0.11163,0.28605 0.19721,0.57004 0.25264,0.87665c0.0318,0.12849 0.08274,0.22082 0.20495,0.28123c0.2445,0.12088 0.45472,0.28926 0.76764,0.31508c0.03787,-0.31152 -0.04766,-0.59552 -0.11817,-0.89077c-0.02891,-0.06531 -0.08798,-0.10795 -0.14707,-0.15057c-0.24325,-0.20885 -0.48652,-0.41773 -0.74485,-0.61526zM283.97148,208.83794c0.04971,0.18031 0.07051,0.29529 0.08722,0.43513c0.06764,0.23214 0.18459,0.40541 0.42907,0.52627c0.40377,0.19695 0.75418,0.47755 1.04023,0.82842c0.08799,0.10796 0.12915,0.09875 0.28397,-0.0395c-0.033,-0.04049 -0.05094,-0.09231 -0.08394,-0.13277c-0.29008,-0.32599 -0.50893,-0.68386 -0.6825,-1.07577c-0.03995,-0.0788 -0.07984,-0.15761 -0.17602,-0.21588c-0.27051,-0.12301 -0.526,-0.25737 -0.89801,-0.32583zM287.8173,209.3191c0.00408,-0.02483 0.0081,-0.04969 -0.00979,-0.10151c-0.27215,-0.27416 -0.43884,-0.62775 -0.62055,-0.96998c-0.15974,-0.31523 -0.36875,-0.57161 -0.72853,-0.71458c-0.17438,-0.06473 -0.29948,-0.18834 -0.50402,-0.2304c0.01589,0.46698 0.20864,0.82269 0.5411,1.05151c0.41767,0.27359 0.83529,0.54722 1.14332,0.92501c0.04402,0.05395 0.10309,0.09662 0.17848,0.03993zM285.03765,208.05766c0.02526,0.32929 0.11898,0.56355 0.19763,0.80918c0.03994,0.0788 0.09901,0.12143 0.16908,0.17756c0.45884,0.26439 0.86831,0.58764 1.26272,0.92227c0.02201,0.02699 0.07007,0.05613 0.13444,-0.01409c-0.077,-0.09446 -0.16499,-0.20238 -0.22695,-0.30819c-0.20493,-0.28119 -0.39481,-0.57375 -0.51337,-0.89818c-0.09373,-0.23427 -0.24083,-0.38483 -0.48937,-0.48089c-0.14829,-0.0626 -0.31169,-0.11383 -0.53417,-0.20769zM285.90603,212.67278c-0.14548,0.00054 -0.20576,0.04592 -0.25507,0.10479c-0.00408,0.02482 -0.01226,0.07448 -0.00124,0.08798c0.13082,0.24992 0.19436,0.50692 0.22779,0.78653c0.01264,0.16463 0.08556,0.28392 0.22981,0.37135c0.18136,0.10306 0.34349,0.24231 0.55906,0.29785c0.06679,-0.24621 0.0717,-0.5982 0.02891,-0.7402c-0.02484,-0.09014 -0.11408,-0.11009 -0.16909,-0.17756c-0.22819,-0.22022 -0.47146,-0.42906 -0.62017,-0.73082zM291.78797,209.68456c-0.32677,-0.10247 -0.62339,-0.22763 -0.90087,-0.389c-0.09741,0.02971 -0.17277,0.08644 -0.21515,0.1836c0.13367,0.31307 0.38379,0.56028 0.49139,0.87121c0.1964,0.09172 0.38296,0.08193 0.57652,0.11051c0.10431,0.00861 0.20458,0.04204 0.32109,-0.02385c-0.00733,-0.2775 -0.20946,-0.49556 -0.27301,-0.75251zM288.85882,210.86493c-0.12469,0.11558 -0.11087,0.19226 -0.07784,0.23272c0.10472,0.24775 0.21353,0.47065 0.31822,0.71845c0.03992,0.07878 0.0839,0.13277 0.14706,0.15057c0.22653,0.06908 0.45307,0.13809 0.71385,0.15964c0.02443,-0.14905 -0.04159,-0.23002 -0.06238,-0.34498c-0.0664,-0.3201 -0.23836,-0.56088 -0.60627,-0.65415c-0.15237,-0.03774 -0.29254,-0.14997 -0.4327,-0.26223zM289.8085,210.15047c-0.07537,0.05666 -0.12061,0.0907 -0.16583,0.12473c-0.00408,0.02481 -0.01225,0.0745 -0.00123,0.088c0.09086,0.1711 0.19675,0.33091 0.28766,0.502c0.05093,0.09233 0.12102,0.14844 0.22125,0.18188c0.30067,0.10032 0.59037,0.1872 0.95547,0.21732c-0.00853,-0.18946 -0.07741,-0.3336 -0.16134,-0.46639c-0.044,-0.05396 -0.07291,-0.11929 -0.15114,-0.12575c-0.37201,-0.06848 -0.68248,-0.27027 -0.98481,-0.52178zM283.3648,210.36116c0.24039,0.14569 0.48077,0.29138 0.70202,0.47326c0.18825,0.14138 0.25872,0.43669 0.64579,0.4938c-0.37405,-0.4588 -0.58756,-0.92947 -0.82306,-1.42719c-0.18132,-0.10304 -0.4038,-0.19693 -0.66864,-0.1936c-0.00815,0.04963 -0.01223,0.07452 -0.01629,0.09933c0.04971,0.18031 0.11047,0.37411 0.16016,0.55441zM286.96657,206.12764c0.29257,0.15002 0.54803,0.28434 0.82958,0.42087c0.06558,-0.15818 0.02276,-0.30017 0.02116,-0.45133c-0.00163,-0.15114 0.03785,-0.31152 -0.01589,-0.46697c-0.077,-0.09448 -0.20329,-0.13004 -0.31452,-0.17701c-0.11124,-0.047 -0.24162,-0.05777 -0.37893,-0.10683c-0.13404,0.25322 -0.12266,0.50588 -0.14139,0.78122zM290.57216,207.26847c-0.22453,-0.48422 -0.39398,-0.90093 -0.45105,-1.35872c-0.18825,-0.14141 -0.39159,-0.27148 -0.60591,-0.41502c-0.11897,0.24188 -0.05133,0.474 -0.03585,0.70182c-0.00815,0.04967 0.03995,0.07881 0.06196,0.10579c0.32025,0.30327 0.6405,0.60663 1.03083,0.96607zM288.97618,212.88839c-0.05129,-0.33146 -0.09574,-0.62461 -0.42538,-0.79028c-0.23346,-0.10736 -0.42458,-0.31192 -0.60466,-0.50298c-0.06602,-0.08095 -0.13731,-0.04909 -0.22084,0.0573c0.20617,0.19324 0.29582,0.45236 0.38546,0.71146c0.06068,0.19382 0.18984,0.29257 0.36424,0.35729c0.14831,0.06257 0.28846,0.17483 0.50116,0.16721zM290.22657,211.46869c0.08557,0.28394 0.1573,0.49123 0.25507,0.70067c0.25671,0.04631 0.51743,0.06785 0.7713,0.05103c0.0835,-0.10638 0.04765,-0.20998 0.04888,-0.29798c-0.01381,-0.07664 -0.01261,-0.16465 -0.08962,-0.25909c-0.29374,-0.06199 -0.6026,-0.11266 -0.9856,-0.19461zM288.39878,213.91052c0.21555,0.05555 0.41603,0.12245 0.6507,0.14181c0.08194,-0.2575 0.02527,-0.47614 -0.01222,-0.73094c-0.23753,-0.08253 -0.47511,-0.16508 -0.72365,-0.26111c0.03345,0.27961 0.05583,0.54576 0.08518,0.85023zM285.89095,206.24021c-0.03262,0.19868 -0.06521,0.39736 -0.03057,0.58899c0.25955,0.1095 0.51499,0.24391 0.77454,0.35341c0.03014,-0.0227 0.06032,-0.04538 0.04931,-0.05888c-0.00859,-0.18949 -0.03223,-0.36763 -0.0518,-0.57062c-0.00283,-0.0632 -0.04277,-0.14197 -0.10593,-0.15977c-0.20046,-0.06687 -0.38872,-0.20828 -0.63561,-0.15313zM283.92537,208.39377c0.2486,0.09602 0.51218,0.18071 0.77581,0.26539c0.10269,-0.14256 -0.0004,-0.23919 -0.0212,-0.35414c-0.00569,-0.12632 -0.06762,-0.23214 -0.09941,-0.3606c-0.20742,-0.10523 -0.45718,-0.11325 -0.6768,-0.14397c-0.08882,0.21923 -0.03907,0.39951 0.02162,0.59331zM287.9217,214.16053c-0.25953,-0.10952 -0.50402,-0.23039 -0.76357,-0.33989c-0.07781,0.23271 -0.0322,0.43783 -0.06478,0.63652c0.21433,0.14352 0.46408,0.15159 0.71672,0.22275c0.06968,-0.18302 0.15034,-0.35257 0.11164,-0.51937zM284.79542,213.16002c0.03628,0.34278 0.16992,0.65591 0.14993,1.01923c0.17722,0.1279 0.32841,0.25364 0.55492,0.32269c0.09286,-0.24406 0.11044,-0.43138 -0.08474,-0.61111c-0.24328,-0.20887 -0.40706,-0.49928 -0.62016,-0.73083zM291.26214,206.44452c0.05744,-0.1085 -0.02771,-0.15331 -0.0868,-0.19593c-0.05782,-0.13067 -0.12672,-0.2748 -0.12833,-0.42596c0.01464,-0.25052 -0.12146,-0.38757 -0.29868,-0.51549c-0.07007,-0.05612 -0.15519,-0.1009 -0.26237,-0.17269c-0.07496,0.29587 -0.11572,0.54422 0.1536,0.75524c0.17316,0.15273 0.3272,0.34165 0.48528,0.50572c0.03302,0.04044 0.066,0.08095 0.13731,0.04906zM292.74514,209.48676c-0.03461,-0.19163 -0.08149,-0.30881 -0.13934,-0.43942c-0.04404,-0.05397 -0.099,-0.12142 -0.16216,-0.13922c-0.27869,-0.07333 -0.53822,-0.18289 -0.76765,-0.31508c-0.09452,0.09291 -0.04646,0.12205 -0.01344,0.16252c0.0949,0.14626 0.231,0.2834 0.31088,0.44098c0.10185,0.18462 0.24612,0.27204 0.48487,0.26657c0.07822,0.00647 0.16749,0.02642 0.28685,0.02368zM289.43339,213.00156c0.20737,0.10524 0.43105,0.1111 0.6507,0.14182c0.09983,-0.20575 0.03501,-0.37469 0.01547,-0.57768c-0.24855,-0.09602 -0.51337,-0.09269 -0.78515,-0.12772c-0.00654,0.20088 0.06924,0.38333 0.11895,0.56361zM285.65225,207.85659c-0.06361,-0.25695 -0.13124,-0.4891 -0.18379,-0.73255c-0.15931,-0.07608 -0.32267,-0.12733 -0.50931,-0.11756c-0.03665,0.22352 -0.01303,0.40168 0.00652,0.60465c0.19228,0.11656 0.41476,0.21044 0.68652,0.24548zM291.28108,212.61288c-0.26074,-0.02153 -0.47346,-0.01391 -0.70813,-0.03327c-0.07377,0.20791 -0.03916,0.39954 -0.00452,0.59117c0.20047,0.06688 0.41318,0.05926 0.61893,0.01332c0.02326,-0.06103 0.04646,-0.12203 0.05869,-0.19654c0.0314,-0.11069 0.02162,-0.21213 0.03506,-0.37467zM292.26639,207.97471c0.209,0.25638 0.37408,0.45876 0.53501,0.686c0.1524,0.03774 0.29785,0.03716 0.46654,-0.02443c0.03543,-0.13551 -0.07172,-0.2073 -0.10757,-0.31093c-0.02077,-0.11501 -0.0827,-0.22078 -0.14179,-0.2634c-0.24571,-0.03287 -0.4543,-0.05005 -0.75215,-0.08724zM286.71387,205.25096c-0.13325,-0.07394 -0.27865,-0.07335 -0.44616,-0.09977c-0.11648,0.06588 -0.12588,0.20358 -0.16826,0.30074c-0.04234,0.09719 -0.11078,0.19224 -0.09001,0.3072c0.15116,0.12575 0.34472,0.1543 0.57125,0.22333c0.02035,-0.12416 0.05174,-0.23481 0.07213,-0.35902c0.02032,-0.12415 0.04068,-0.24832 0.06107,-0.37253zM289.49276,214.08888c0.18539,0.07822 0.32394,0.0393 0.48447,0.02738c0.12594,-0.20357 0.11734,-0.39308 0.12794,-0.61874c-0.19355,-0.02855 -0.37201,-0.06844 -0.56555,-0.09702c-0.09296,0.24406 -0.03628,0.46272 -0.04689,0.68838zM289.0327,205.85769c0.02727,-0.08585 0.04645,-0.12201 0.0175,-0.18733c0.02038,-0.12417 0.01467,-0.25048 0.00895,-0.37683c-0.24447,-0.12088 -0.47383,-0.25304 -0.7607,-0.27673c-0.08354,0.10635 -0.06275,0.22132 -0.05702,0.34768c0.25136,0.15918 0.50274,0.31838 0.79124,0.49319zM291.60414,211.36847c0.24975,0.00801 0.43928,0.0614 0.64501,0.01546c0.08475,-0.19439 -0.02529,-0.32928 0.00325,-0.50316c-0.25267,-0.0712 -0.50241,-0.07923 -0.77826,-0.08943c-0.03261,0.19868 0.09945,0.3606 0.12997,0.57711zM283.03803,208.64767c-0.0587,0.19655 -0.01305,0.40169 0.02851,0.63168c0.23063,0.04418 0.40912,0.08408 0.62056,0.16446c-0.06354,-0.25696 -0.1202,-0.47558 -0.16174,-0.70556c-0.14835,-0.0626 -0.3158,-0.089 -0.48734,-0.09058zM292.91184,209.84037c-0.20454,-0.04205 -0.40214,-0.04579 -0.61484,-0.03817c0.07867,0.24563 0.16541,0.44154 0.23713,0.64883c0.14834,0.0626 0.29786,0.03714 0.47347,0.0139c0.06274,-0.22137 -0.01302,-0.40383 -0.09576,-0.62461zM284.51534,207.53616c0.02565,-0.23701 0.02812,-0.41302 0.04564,-0.60035c-0.16625,-0.11437 -0.35286,-0.10459 -0.55048,-0.10832c-0.08069,0.16956 -0.13527,0.34127 -0.11572,0.54424c0.15119,0.12575 0.38306,0.08198 0.62059,0.16451zM288.23425,214.75275c0.19352,0.02859 0.39806,0.07062 0.60668,0.08784c0.12469,-0.11557 0.17115,-0.23759 0.18458,-0.40012c-0.20334,-0.13006 -0.44621,-0.09973 -0.67272,-0.16878c-0.09169,0.15606 -0.09005,0.30718 -0.11858,0.48105zM289.52797,205.09314c0.18132,0.10308 0.3284,0.25365 0.57002,0.31134c0.01343,-0.16254 0.03787,-0.31149 0.06232,-0.46052c-0.13198,-0.16192 -0.33244,-0.22878 -0.526,-0.25736c-0.0725,0.11993 -0.10389,0.23056 -0.10632,0.40657zM284.72965,214.92917c0.18131,0.10305 0.32836,0.25365 0.54393,0.30919c0.08353,-0.10638 0.11493,-0.21707 0.12427,-0.35472c-0.15119,-0.12575 -0.32152,-0.21536 -0.52195,-0.28223c-0.07942,0.08152 -0.11084,0.19225 -0.14625,0.32774zM291.04391,213.57499c-0.15646,-0.01291 -0.31292,-0.02581 -0.48446,-0.02739c-0.08066,0.16956 -0.09411,0.33204 -0.09654,0.50805c0.13324,0.07394 0.2608,0.02153 0.36631,-0.05786c0.14668,-0.08858 0.25628,-0.19282 0.21472,-0.42278zM282.6672,210.9077c0.20737,0.1052 0.40378,0.19694 0.61119,0.30215c-0.08022,-0.39676 -0.2139,-0.70983 -0.70243,-0.71241c-0.05051,0.14684 0.0375,0.25479 0.09127,0.41023zM292.19288,212.20993c0.0766,-0.14469 0.07091,-0.27103 0.06519,-0.39738c-0.077,-0.09445 -0.17441,-0.06472 -0.27869,-0.07334c-0.0933,0.00492 -0.16742,-0.02639 -0.26889,0.02819c-0.0766,0.14469 0.01837,0.291 -0.03221,0.43785c0.18947,0.0534 0.33493,0.05285 0.5146,0.00472zM287.42668,209.52594c-0.22819,-0.22022 -0.47141,-0.42906 -0.74483,-0.61524c-0.06841,0.09501 -0.0285,0.17387 0.01549,0.22781c0.11691,0.17326 0.24488,0.36003 0.40297,0.5241c0.11407,0.11011 0.22653,0.06902 0.32634,-0.13668zM287.39691,215.4262c-0.11814,-0.08527 -0.24164,-0.05769 -0.34594,-0.0663c-0.21553,-0.05557 -0.37321,0.01955 -0.48812,0.23662c0.24445,0.12087 0.51339,0.0927 0.76318,0.10072c0.07944,-0.08158 0.10674,-0.16743 0.07088,-0.27107zM285.29648,210.91074c-0.13365,-0.31308 -0.4262,-0.46309 -0.74483,-0.61524c0.07861,0.24563 0.22859,0.45936 0.36752,0.65961c0.09895,0.1214 0.16625,0.1144 0.37728,-0.04437zM284.16137,213.96351c-0.02854,0.17384 -0.042,0.33632 -0.07458,0.53502c0.05904,0.04263 0.19228,0.11655 0.29946,0.18834c0.21633,-0.27165 0.21638,-0.27166 0.04725,-0.44922c-0.09208,-0.08305 -0.16908,-0.17758 -0.27216,-0.27415zM284.34671,205.98688c-0.11775,0.1539 -0.14214,0.30292 -0.19272,0.44979c0.13323,0.07397 0.30881,0.05066 0.48037,0.05223c0.0395,-0.16035 0.10105,-0.29373 0.13648,-0.42924c-0.121,-0.14841 -0.27871,-0.07337 -0.42417,-0.07276zM285.95013,214.33761c-0.05748,0.10856 -0.07381,0.20786 -0.06808,0.33422c0.18821,0.14141 0.41481,0.21044 0.64948,0.2298c0.11245,-0.04108 0.11363,-0.12904 0.0888,-0.21919c-0.21837,-0.11872 -0.45187,-0.22607 -0.67023,-0.34479zM282.69867,209.18606c-0.02367,-0.17812 -0.04321,-0.38109 -0.06684,-0.55927c-0.11535,-0.02214 -0.2127,0.00759 -0.30315,0.07565c-0.06846,0.09502 -0.04365,0.18518 -0.03385,0.28667c0.01383,0.07666 0.02767,0.1533 0.04153,0.22997c0.12628,0.03564 0.24571,0.03287 0.36222,-0.03302zM285.44843,206.68207c0.02848,-0.17388 0.04602,-0.36122 0.06352,-0.54855c-0.08109,-0.06964 -0.20739,-0.10521 -0.36103,-0.05498c-0.05052,0.14682 -0.09006,0.30716 -0.14464,0.47886c0.13324,0.07391 0.27055,0.12301 0.44211,0.12458zM282.43658,210.05793c0.14831,0.06259 0.27462,0.09819 0.45021,0.07496c0.01749,-0.18733 -0.06233,-0.34492 -0.1051,-0.48694c-0.13326,-0.07394 -0.24568,-0.03291 -0.339,-0.02799c-0.01916,0.03619 -0.04934,0.05891 -0.0534,0.08371c0.00573,0.12635 0.02652,0.24135 0.04729,0.35631zM282.5836,211.81961c0.01463,-0.25051 -0.09944,-0.36061 -0.15321,-0.51606c-0.05374,-0.15547 -0.19923,-0.1549 -0.35976,-0.14298c-0.03262,0.19869 0.05136,0.33147 0.07905,0.48476c0.11,0.13491 0.29785,0.03718 0.43394,0.17426zM286.06043,215.51729c0.15768,-0.07511 0.23715,-0.15667 0.29867,-0.29002c-0.18947,-0.05342 -0.36391,-0.11811 -0.52726,-0.16938c-0.16871,0.06157 -0.18906,0.18574 -0.24243,0.26944c0.022,0.027 0.02893,0.06534 0.05501,0.06748c0.12629,0.03558 0.27869,0.07335 0.41599,0.12243zM285.32856,205.64003c0.10717,0.07176 0.20048,0.06688 0.2828,0.04851c0.11654,-0.06588 0.13282,-0.16521 0.16014,-0.25107c0.02731,-0.08588 0.12185,-0.1787 0.0599,-0.28453c-0.13036,-0.01077 -0.27585,-0.01018 -0.44453,0.05142c-0.02039,0.12414 -0.03384,0.28665 -0.05827,0.43566zM293.08092,210.8234c-0.16051,0.01192 -0.27991,0.01468 -0.40337,0.04223c-0.02845,0.17382 -0.00074,0.32714 0.01187,0.4918c0.12631,0.03562 0.2457,0.03287 0.35121,-0.04652c0.0041,-0.02483 0.03834,-0.07236 0.03139,-0.1107c0.00531,-0.11283 0.01057,-0.22568 0.00897,-0.37684zM283.74327,214.25619c0.05989,-0.28451 0.05992,-0.28453 -0.05176,-0.57061c-0.16335,-0.05125 -0.295,0.02602 -0.46368,0.0876c0.1088,0.22292 0.31209,0.35298 0.51544,0.48302zM292.09056,212.59161c-0.1414,-0.02423 -0.26078,-0.0215 -0.37729,0.04439c-0.0134,0.16253 -0.05294,0.32282 -0.06638,0.48536c0.38144,-0.06919 0.3965,-0.08047 0.44376,-0.5297zM283.02898,208.21908c0.13731,0.04913 0.2787,0.07336 0.40215,0.0458c0.06559,-0.15821 0.02687,-0.32502 0.01427,-0.48969c-0.05213,-0.00431 -0.11529,-0.0221 -0.16746,-0.02641c-0.06723,0.00703 -0.13446,0.01409 -0.17562,0.02327c-0.07657,0.14473 -0.08595,0.2824 -0.07333,0.44706zM293.46849,209.50866c0.07373,-0.20786 -0.03219,-0.36765 -0.0819,-0.54793c-0.11128,-0.04696 -0.25385,0.01676 -0.38832,0.03086c0.0155,0.22787 0.09531,0.38547 0.26157,0.49987c0.04807,0.02911 0.14142,0.02424 0.20863,0.01721zM288.40076,204.63503c0.2486,0.09603 0.50118,0.16723 0.73871,0.24976c0.10958,-0.10422 0.13688,-0.19007 0.10511,-0.31854c-0.27175,-0.03504 -0.54351,-0.07005 -0.82753,-0.03056c-0.00813,0.04965 -0.01224,0.07452 -0.01629,0.09933zM285.71578,209.72453c0.09369,0.23423 0.20657,0.43238 0.39482,0.57375c0.05495,0.06748 0.15926,0.07608 0.23465,0.0194c0.03013,-0.02268 0.06848,-0.09502 0.05746,-0.10852c-0.17194,-0.24072 -0.43146,-0.35025 -0.68693,-0.48461zM283.14153,207.37245c0.11125,0.04692 0.20458,0.04206 0.31699,0.001c0.05053,-0.14684 0.07903,-0.32069 0.11855,-0.48106c-0.15238,-0.03773 -0.24976,-0.00802 -0.35528,0.07138c-0.06154,0.13335 -0.07092,0.27104 -0.08026,0.40871zM289.9752,214.53143c-0.18541,-0.07826 -0.34594,-0.06631 -0.53255,-0.05655c-0.08763,0.13122 -0.14909,0.2646 -0.09534,0.42005c0.25792,-0.04163 0.42779,-0.19125 0.62785,-0.36352zM293.32257,207.65919c-0.03743,-0.2548 -0.24077,-0.38487 -0.24934,-0.57436c-0.11123,-0.04693 -0.17564,0.02328 -0.17279,0.08643c0.01262,0.16464 0.03626,0.34282 0.16134,0.46639c0.03304,0.0405 0.05907,0.04263 0.26078,0.02151zM287.87476,205.18307c0.04646,-0.12203 0.06972,-0.18302 0.02977,-0.26182c-0.21552,-0.05553 -0.4531,-0.13808 -0.74114,-0.07376c0.20207,0.21808 0.45876,0.26447 0.7114,0.33563zM292.69563,211.72287c-0.05052,0.14683 -0.0819,0.25755 -0.04604,0.36118c0.05911,0.04263 0.11532,0.02211 0.17154,0.00158c0.19882,-0.08427 0.21229,-0.24677 0.18864,-0.42494c-0.10836,0.01624 -0.20575,0.04595 -0.31413,0.06217zM284.17636,211.5357c-0.11287,-0.1981 -0.23387,-0.34655 -0.41111,-0.47445c-0.0713,0.03186 -0.0684,0.09506 -0.05051,0.14687c0.04686,0.11715 0.10876,0.22293 0.17072,0.32875c0.07294,0.1193 0.15521,0.10088 0.29091,-0.00117zM289.68505,206.95602c0.02648,0.24132 0.18866,0.38059 0.31661,0.56734c0.02199,0.02704 0.0852,0.04479 0.11531,0.02212c0.01504,-0.01133 0.0534,-0.08365 0.04238,-0.09716c-0.09779,-0.20943 -0.27095,-0.36219 -0.47429,-0.49224zM290.78263,206.87056c0.14953,-0.0254 0.20982,-0.07079 0.17396,-0.17442c-0.02079,-0.11496 -0.17196,-0.24075 -0.39033,-0.35945c0.03057,0.21646 0.1516,0.36493 0.21639,0.53388zM287.71835,215.64149c0.23753,0.08254 0.44862,-0.07625 0.66253,-0.17186c-0.24166,-0.05767 -0.47918,-0.14022 -0.66253,0.17186zM286.58977,212.85501c-0.05377,-0.15549 -0.09657,-0.29746 -0.12834,-0.42593c-0.10023,-0.03346 -0.15647,-0.01293 -0.23591,0.06862c0.02363,0.17814 0.18296,0.25423 0.27786,0.40051c0.03011,-0.02265 0.05628,-0.02056 0.0864,-0.04322zM287.81444,208.45035c0.01833,0.29099 0.15032,0.45292 0.35367,0.58296c0.0261,0.00216 0.06721,-0.00701 0.08232,-0.01836c0.04523,-0.03401 0.05337,-0.08368 0.03136,-0.11066c-0.11695,-0.17324 -0.26812,-0.29898 -0.46735,-0.45389zM293.34416,209.86345c-0.01753,0.1873 0.03623,0.34281 0.11205,0.52525c0.08925,0.01996 0.13444,-0.01407 0.13566,-0.10206c-0.01673,-0.13984 -0.03343,-0.27967 -0.0652,-0.40814c-0.00286,-0.06316 -0.07009,-0.05613 -0.18252,-0.01507zM283.70937,206.48807c0.11775,-0.15387 0.14913,-0.26455 0.18865,-0.42492c-0.24001,0.09349 -0.37285,0.25868 -0.55372,0.39479c0.04811,0.02912 0.07011,0.05614 0.09618,0.05827c0.0933,-0.00491 0.17561,-0.02324 0.26893,-0.02816zM290.35128,209.74216c-0.12755,0.05241 -0.16177,0.09996 -0.20414,0.19713c0.09491,0.14628 0.23916,0.23367 0.49993,0.25522c-0.11693,-0.17325 -0.20089,-0.30607 -0.29582,-0.45234zM285.34259,212.9659c-0.10025,-0.03344 -0.16747,-0.02637 -0.24286,0.03031c-0.05337,0.08373 0.00164,0.15118 0.31087,0.44101c0.09982,-0.20572 -0.05133,-0.33143 -0.06804,-0.47127zM289.32367,208.27292c-0.10475,-0.24777 -0.23672,-0.40973 -0.58265,-0.47601c0.20621,0.19322 0.23958,0.47284 0.58265,0.47601zM282.85344,211.46428c0.16501,0.20242 0.25993,0.34869 0.38503,0.47225c0.02198,0.02699 0.07414,0.03131 0.11936,-0.00273c0.03013,-0.02266 0.04931,-0.05884 0.0383,-0.07234c-0.10186,-0.18459 -0.22289,-0.33305 -0.54274,-0.3972zM284.45385,213.30797c-0.10841,0.01624 -0.17969,0.04809 -0.23713,0.15662c0.07297,0.11927 0.15689,0.25206 0.31213,0.35298c0.07373,-0.2078 -0.02121,-0.35412 -0.07498,-0.50956zM282.01531,210.85388c0.09735,-0.02974 0.13851,-0.03893 0.17967,-0.04811c0.0118,-0.31364 0.0118,-0.31363 -0.18743,-0.46854c-0.10676,0.16739 0.01426,0.31582 0.00774,0.51667zM287.65675,214.96939c-0.18947,-0.05342 -0.36795,-0.0933 -0.53132,-0.14457c-0.07822,-0.00648 -0.13851,0.03893 -0.11774,0.15389c0.20047,0.06691 0.40502,0.10895 0.64907,-0.00935zM282.65981,208.21378c0.03137,-0.11067 0.04359,-0.18518 0.01876,-0.27533c-0.07419,-0.0313 -0.14143,-0.02429 -0.2278,0.01893c-0.07943,0.0815 -0.08472,0.19438 -0.09001,0.30719c0.11122,0.04695 0.19757,0.00374 0.29905,-0.05083zM288.50183,211.59065c0.0546,-0.17171 -0.02239,-0.26616 -0.08842,-0.34714c-0.0179,-0.05181 -0.10022,-0.03342 -0.14544,0.00062c-0.01917,0.03618 -0.03833,0.07235 -0.03138,0.11069c0.03583,0.10364 0.13202,0.16195 0.26526,0.23586zM285.0234,205.32535c-0.14259,0.06373 -0.31822,0.08698 -0.4209,0.22954c0.35284,0.10465 0.38302,0.08199 0.4209,-0.22954zM291.46009,205.88186c-0.06967,0.18304 -0.06967,0.18303 0.15565,0.34008c0.04767,-0.21001 -0.05947,-0.28181 -0.15565,-0.34008zM287.2852,211.91812c0.06598,0.08098 0.13205,0.16197 0.25427,0.22237c0.03669,-0.22353 0.01874,-0.27533 -0.14463,-0.3266c-0.03706,-0.01564 -0.08227,0.01837 -0.10959,0.10423zM282.6008,212.19853c-0.04685,-0.11709 -0.16216,-0.13919 -0.29255,-0.14998c-0.0187,0.27533 0.01833,0.29093 0.29255,0.14998zM291.54731,205.51152c0.06477,0.16892 0.16789,0.26555 0.25996,0.34866c0.13448,-0.01408 0.14669,-0.08863 0.10269,-0.14257c-0.09206,-0.08311 -0.19511,-0.17968 -0.36262,-0.2061zM281.95286,209.70339c-0.03545,0.13559 -0.08188,0.25756 -0.0008,0.32719c0.011,0.01351 0.05216,0.00433 0.05216,0.00433c0.09861,-0.11775 0.08881,-0.21923 -0.05135,-0.33149zM289.42393,210.72286c-0.0098,-0.10149 -0.0538,-0.15544 -0.10189,-0.18459c-0.022,-0.02703 -0.08919,-0.02 -0.10835,0.01619c-0.01913,0.03616 -0.02729,0.08585 -0.00528,0.11283c0.0289,0.06531 0.10311,0.0966 0.21554,0.05554zM282.63124,207.58214c0.16464,-0.03674 0.19194,-0.12259 0.17522,-0.26242c-0.14955,0.02542 -0.18782,0.09775 -0.17522,0.26242z" fill="#000000"/><path d="M293.47711,215.33658c0.01788,0.05183 0.00569,0.12631 0.05376,0.15546c0.2131,0.23155 0.30559,0.55378 0.50362,0.79669c0.12104,0.14843 0.2571,0.28555 0.30276,0.49066c0.01386,0.07667 0.08392,0.13278 0.13893,0.20025c0.14302,0.17541 0.32719,0.34165 0.37974,0.5851c0.0138,0.07663 0.0839,0.13278 0.13891,0.20025c0.09904,0.12146 0.2021,0.21807 0.24083,0.38486c0.03588,0.10367 0.12791,0.18674 0.19394,0.26772c0.11696,0.17326 0.29425,0.30112 0.32477,0.51763c0.00693,0.03833 0.03994,0.07882 0.06195,0.1058c0.3093,0.28982 0.46081,0.65471 0.66863,0.99909c0.17481,0.3039 0.43598,0.5646 0.59569,0.87982c0.15972,0.31525 0.45105,0.55325 0.55047,0.91386c0.02198,0.02695 0.03298,0.04047 0.05499,0.06745c0.13892,0.20026 0.31212,0.35298 0.36467,0.59643c0.27216,0.27416 0.37159,0.63479 0.61361,0.93165c0.19391,0.26772 0.3317,0.55597 0.49546,0.84635c0.02203,0.02699 0.02894,0.06531 0.03995,0.07881c0.2502,0.24721 0.32351,0.60568 0.57371,0.85286c0.14014,0.11225 0.17476,0.30391 0.25463,0.46151c0.23265,0.43455 0.55169,0.82588 0.72814,1.28091c-0.01506,0.01136 -0.00406,0.02483 0.00695,0.03833c0.16094,0.22727 0.39318,0.42266 0.46368,0.7179c0.22082,-0.05733 0.33857,-0.21118 0.49626,-0.28628c-0.06556,0.15823 -0.21223,0.24681 -0.34793,0.34886c-0.41111,0.33102 -0.87721,0.59463 -1.35027,0.81989c-0.3003,0.13878 -0.58143,0.24147 -0.9135,0.25181c-0.05907,-0.04265 -0.10308,-0.09664 -0.1471,-0.1506c-0.55412,-0.64987 -1.06707,-1.30889 -1.62123,-1.95874c-0.58713,-0.69031 -1.16333,-1.36713 -1.75044,-2.05747c-0.85118,-1.01418 -1.69134,-2.01489 -2.5576,-3.01771c-0.96524,-1.12428 -1.88527,-2.28256 -2.86968,-3.37066c-0.16911,-0.17756 -0.308,-0.37779 -0.48403,-0.59371c0.22491,-0.08212 0.41557,-0.11674 0.61439,-0.20101c0.62666,-0.27549 1.21336,-0.62979 1.7561,-1.03811c0.48243,-0.36291 0.95387,-0.73936 1.42526,-1.11579z" fill="#87d7dc"/><path d="M293.47734,215.33652c0.18498,-0.16094 0.34388,-0.32401 0.52194,-0.52329c0.07129,-0.03192 0.1316,-0.07725 0.21798,-0.12046c0.18826,0.14136 0.32718,0.34163 0.44005,0.53973c0.01792,0.05182 0.02074,0.11499 0.05376,0.15546c0.27217,0.27415 0.39361,0.66176 0.63563,0.95862c0.21599,0.29467 0.38667,0.62339 0.57249,0.94081c0.02201,0.02701 0.03995,0.07882 0.06196,0.1058c0.28724,0.26282 0.41272,0.6256 0.62868,0.9203c0.15401,0.18893 0.26684,0.38703 0.34958,0.60781c0.04689,0.11716 0.11981,0.23643 0.20782,0.34438c0.08395,0.13276 0.19797,0.24286 0.22571,0.39618c0.00282,0.06319 0.07291,0.11932 0.11693,0.17328c0.25304,0.31036 0.39361,0.66173 0.60549,0.98129c0.14588,0.23858 0.23551,0.49769 0.42661,0.70225c0.14712,0.15055 0.15159,0.3649 0.28767,0.50199c0.11003,0.13495 0.2351,0.25857 0.26972,0.45018c-0.0082,0.04969 0.0509,0.09232 0.08392,0.13279c0.25307,0.31038 0.44574,0.66607 0.61239,1.01966c0.02894,0.06529 0.08392,0.13278 0.13893,0.20025c0.08395,0.13282 0.2241,0.24503 0.24774,0.4232c0.00694,0.03832 0.03994,0.07881 0.06195,0.10579c0.13894,0.20025 0.31211,0.35302 0.36466,0.59647c0.28727,0.26283 0.41277,0.62558 0.61362,0.93162c0.20088,0.30608 0.44703,0.57812 0.5725,0.94086c0.03586,0.10365 0.12789,0.18672 0.19392,0.2677c-0.03953,0.16038 -0.1601,0.25116 -0.2807,0.34186c-0.18375,0.07291 -0.2905,0.24034 -0.49625,0.28628c-0.07046,-0.29528 -0.30273,-0.49065 -0.46368,-0.71791c0,0 0.00409,-0.02483 -0.00692,-0.03833c-0.17645,-0.45502 -0.48042,-0.8577 -0.72814,-1.28089c-0.0949,-0.14627 -0.11856,-0.32442 -0.25464,-0.46151c-0.25021,-0.24722 -0.32351,-0.60568 -0.57371,-0.85286c-0.022,-0.02698 -0.0179,-0.05186 -0.03991,-0.07884c-0.16384,-0.29037 -0.28646,-0.58998 -0.49549,-0.84635c-0.22696,-0.30818 -0.32636,-0.6688 -0.61364,-0.93163c-0.05257,-0.2435 -0.22168,-0.42105 -0.36467,-0.59648c-0.02203,-0.027 -0.0591,-0.04265 -0.05505,-0.06748c-0.09941,-0.3606 -0.39076,-0.59863 -0.55046,-0.91384c-0.14877,-0.30173 -0.40992,-0.56238 -0.59574,-0.8798c-0.20779,-0.34436 -0.37038,-0.72278 -0.66863,-0.99912c-0.02201,-0.02698 -0.05499,-0.06746 -0.06194,-0.1058c-0.03055,-0.21647 -0.20781,-0.34438 -0.32473,-0.51764c-0.066,-0.08096 -0.1581,-0.16411 -0.19396,-0.26774c-0.0538,-0.15546 -0.14182,-0.26342 -0.24083,-0.38486c-0.0399,-0.07879 -0.12507,-0.12359 -0.13892,-0.20026c-0.06765,-0.23212 -0.23679,-0.40966 -0.37978,-0.58509c-0.05496,-0.06745 -0.12503,-0.12358 -0.13889,-0.20025c-0.04567,-0.20512 -0.18176,-0.34222 -0.30278,-0.49064c-0.18293,-0.25425 -0.29053,-0.56516 -0.50361,-0.79671c-0.03301,-0.04049 -0.02077,-0.11501 -0.0387,-0.16682z" fill="#b0eef2"/><path d="M282.23809,212.79806c0.43069,-0.12808 0.79127,-0.31229 1.19303,-0.50567c0.38668,-0.18206 0.76928,-0.33929 1.14493,-0.53481c0.36064,-0.18419 0.7143,-0.4067 1.06389,-0.60441c0.37976,-0.22041 0.74439,-0.42942 1.09807,-0.65195c0.33861,-0.2112 0.69228,-0.4337 1.01987,-0.65839c0.34269,-0.23602 0.64132,-0.526 1.028,-0.70806c0.26161,-0.30567 0.63731,-0.50119 0.93187,-0.76634c0.32064,-0.263 0.65641,-0.53735 0.96605,-0.81386c0.29462,-0.26518 0.59324,-0.55517 0.87683,-0.83381c0.29862,-0.28999 0.54922,-0.60915 0.86987,-0.87211c0.2942,0.30117 0.35611,0.40696 0.44862,0.72923c-0.12591,0.20359 -0.24083,0.42064 -0.42986,0.6064c-0.23835,0.2446 -0.46166,0.47791 -0.67393,0.72468c-0.43552,0.48005 -0.8931,0.93314 -1.3947,1.33224c-0.35084,0.2857 -0.73465,0.5309 -1.05246,0.85708c-0.09043,0.06801 -0.18087,0.13609 -0.26725,0.1793c-0.21388,0.09565 -0.3989,0.25658 -0.57979,0.39268c-0.67432,0.48551 -1.40368,0.90357 -2.11794,1.3103c-0.94735,0.5385 -1.95251,0.94637 -2.96868,1.34076c-0.20982,0.07076 -0.40863,0.15501 -0.61727,0.13781c-0.22532,-0.15705 -0.3753,-0.37081 -0.53908,-0.66118z" fill="#d1eaeb"/><path d="M293.99503,214.83798c0.06562,-0.15822 0.22329,-0.23331 0.27668,-0.31699c0.1137,-0.12908 0.21635,-0.27165 0.35205,-0.3737c0.14425,0.08741 0.18702,0.22939 0.25995,0.34867c0.49826,0.90952 1.09807,1.76453 1.62652,2.6514c0.32756,0.58083 0.67025,1.15026 1.01293,1.71974c0.44452,0.75408 0.87396,1.51949 1.3295,2.28706c0.3606,0.62127 0.72118,1.24257 1.09686,1.85252c0.40863,0.65043 0.8063,1.28737 1.19991,1.94913c0.36469,0.59643 0.7143,1.20426 1.10096,1.82768c-0.09454,0.09288 -0.11898,0.24187 -0.26567,0.33046c-0.06597,-0.08097 -0.15807,-0.16408 -0.19393,-0.26772c-0.11452,-0.34926 -0.37162,-0.63476 -0.57247,-0.9408c-0.20085,-0.30604 -0.32635,-0.6688 -0.61361,-0.93163c-0.05255,-0.24347 -0.22168,-0.42103 -0.36467,-0.59646c-0.02201,-0.02698 -0.05498,-0.06746 -0.06193,-0.1058c-0.02363,-0.17814 -0.14869,-0.30176 -0.2477,-0.4232c-0.02894,-0.06526 -0.09897,-0.1214 -0.13892,-0.2002c-0.17761,-0.36711 -0.35936,-0.70931 -0.61239,-1.01965c-0.03299,-0.04048 -0.06598,-0.08097 -0.08391,-0.13278c-0.00858,-0.1895 -0.14467,-0.32658 -0.26976,-0.45017c-0.1471,-0.15057 -0.15159,-0.3649 -0.28767,-0.50199c-0.19113,-0.20453 -0.28072,-0.46366 -0.42661,-0.70224c-0.21191,-0.31953 -0.36345,-0.68444 -0.60547,-0.9813c-0.044,-0.05396 -0.11411,-0.11012 -0.11697,-0.17326c-0.02363,-0.17816 -0.12671,-0.27477 -0.22572,-0.39621c-0.07702,-0.09445 -0.14995,-0.21379 -0.2078,-0.34438c-0.0827,-0.2208 -0.20658,-0.43239 -0.34957,-0.60782c-0.24203,-0.29688 -0.34143,-0.65747 -0.62871,-0.92029c-0.022,-0.02698 -0.03993,-0.07882 -0.06194,-0.1058c-0.18584,-0.31739 -0.34151,-0.65744 -0.57252,-0.94081c-0.22695,-0.30818 -0.36347,-0.68449 -0.63564,-0.95864c-0.03298,-0.04045 -0.03584,-0.10363 -0.05377,-0.15544c-0.10879,-0.22295 -0.25179,-0.39834 -0.44004,-0.53975c-0.08636,0.04319 -0.14668,0.08855 -0.21798,0.12043z" fill="#87d7dc"/><path d="M301.69667,227.98393c-0.01748,0.18734 0.04027,0.31799 0.13118,0.48908c0.16379,0.29043 0.39889,0.54894 0.51746,0.87339c0.02891,0.0653 0.07289,0.11929 0.11691,0.17325c0.2351,0.25851 0.39481,0.57374 0.53945,0.90034c0.05787,0.13065 0.10063,0.27261 0.30232,0.2515c-0.00411,0.02485 -0.02321,0.061 -0.03832,0.07235c-0.38382,0.24521 -0.75256,0.47908 -1.19831,0.61849c-0.23591,0.06862 -0.47589,0.16212 -0.76274,0.13842c-0.61607,-0.75563 -1.24313,-1.52477 -1.8812,-2.30742c0.4828,-0.12379 0.89963,-0.32849 1.30546,-0.54673c0.3496,-0.19766 0.62912,-0.45149 0.96771,-0.66267z" fill="#61afb4"/><path d="M292.75809,212.87325c-0.10798,0.25538 0.08027,0.39679 0.23142,0.52252c0.12631,0.0356 0.18375,-0.07293 0.28113,-0.10263c-0.28196,0.4298 -0.67798,0.74951 -1.06305,1.08273c-0.47961,0.42612 -1.0182,0.80955 -1.54181,1.18166c-0.58797,0.44235 -1.27782,0.70007 -1.95253,0.94642c-0.09737,0.0297 -0.17968,0.04811 -0.28806,0.06432c-0.08799,-0.10795 -0.17597,-0.21591 -0.26399,-0.32385c-0.02203,-0.027 -0.029,-0.06534 -0.04689,-0.11715c0.10555,-0.07942 0.22205,-0.14528 0.3496,-0.1977c0.19883,-0.08429 0.40173,-0.1934 0.60464,-0.30252c0.51831,-0.25926 0.96363,-0.63782 1.4379,-0.95109c0.26323,-0.15449 0.52647,-0.30896 0.75666,-0.50392c0.49465,-0.43742 1.03328,-0.82087 1.49491,-1.29878z" fill="#61aeb3"/><path d="M293.13338,214.04953c0.12099,0.14841 0.26808,0.29903 0.31779,0.47932c0.01384,0.07663 0.0839,0.13278 0.13891,0.20025c-0.05053,0.14687 -0.17115,0.23764 -0.29175,0.32834c-0.66744,0.52383 -1.30878,1.04985 -2.03116,1.50627c-0.31251,0.21333 -0.65798,0.38619 -0.98845,0.54769c-0.27422,0.14094 -0.55537,0.24362 -0.86829,0.2178c-0.14303,-0.17541 -0.27505,-0.33736 -0.42905,-0.52629c0.12754,-0.05238 0.25504,-0.10476 0.38259,-0.15718c0.49505,-0.19828 0.98321,-0.43486 1.44239,-0.73678c0.56473,-0.38128 1.09641,-0.80309 1.62816,-1.22488c0.24529,-0.20626 0.42046,-0.4687 0.69876,-0.63452z" fill="#61aeb3"/><path d="M301.69655,227.98393c0.10549,-0.07935 0.21515,-0.18358 0.32066,-0.26297c0.07129,-0.03189 0.1316,-0.07725 0.21797,-0.12047c0.19639,0.09172 0.31332,0.26501 0.38913,0.44745c0.06886,0.14414 0.15692,0.25207 0.24084,0.38486c0.18987,0.29256 0.37568,0.60997 0.55047,0.91385c0.02201,0.02698 0.03994,0.07881 0.06195,0.10579c0.18417,0.16622 0.27789,0.40047 0.38668,0.62344c-0.14097,0.21491 -0.33004,0.40065 -0.56717,0.55729c-0.2017,0.02111 -0.25546,-0.13437 -0.30233,-0.25151c-0.15971,-0.31523 -0.30844,-0.61694 -0.53946,-0.90033c-0.04403,-0.05395 -0.088,-0.10797 -0.11695,-0.17328c-0.11854,-0.32443 -0.35368,-0.58297 -0.51746,-0.87336c-0.09493,-0.14629 -0.13772,-0.28822 -0.12428,-0.45076z" fill="#87d7dc"/><path d="M287.01953,206.61027c0.26366,0.0847 0.45188,0.22612 0.68534,0.33346c0.20739,0.1052 0.32839,0.25366 0.4152,0.4496c0.14751,0.38973 0.38139,0.7363 0.66051,1.04877c0.02202,0.02698 0.02892,0.06535 0.05093,0.09233c-0.04236,0.0972 -0.11774,0.15385 -0.21106,0.15877c-0.02609,-0.00218 -0.06315,-0.01781 -0.07416,-0.03131c-0.36424,-0.3573 -0.74361,-0.70324 -1.18325,-1.00383c-0.05905,-0.04264 -0.12506,-0.12362 -0.154,-0.18893c-0.11575,-0.26129 -0.21639,-0.53386 -0.18947,-0.85888z" fill="#cce5e6"/><path d="M289.58525,207.96729c-0.34229,-0.33029 -0.70366,-0.62439 -1.06917,-0.8937c-0.11811,-0.08524 -0.18007,-0.19101 -0.22286,-0.33301c-0.05666,-0.21866 -0.06115,-0.43299 -0.07663,-0.66081c-0.00284,-0.06316 -0.05381,-0.15543 0.07374,-0.20785c0.25141,0.15917 0.54394,0.30914 0.76112,0.51588c0.22086,0.74818 0.22082,0.74818 0.71875,1.41856c-0.01223,0.07449 -0.06152,0.13336 -0.18498,0.16091z" fill="#cce5e6"/><path d="M302.03229,227.70949c0.12592,-0.20356 0.26285,-0.39361 0.49303,-0.58857c0.33001,0.40482 0.53251,0.86203 0.79533,1.27387c0.28887,0.41399 0.53253,0.86206 0.79535,1.2739c-0.05458,0.1717 -0.13812,0.27812 -0.23673,0.39582c-0.12385,-0.21159 -0.20659,-0.43234 -0.38667,-0.62341c-0.02201,-0.02696 -0.03994,-0.07882 -0.06195,-0.1058c-0.17481,-0.3039 -0.3606,-0.62127 -0.55047,-0.91384c-0.08397,-0.13279 -0.17195,-0.24072 -0.24082,-0.38487c-0.0758,-0.18248 -0.19273,-0.35573 -0.38912,-0.44745c-0.08634,0.0432 -0.14665,0.08857 -0.21796,0.12046z" fill="#60adb2"/><path d="M286.96578,212.09306c0.25831,0.19751 0.50165,0.40641 0.74485,0.61526c0.05904,0.04265 0.12918,0.09876 0.14707,0.15057c0.08557,0.28394 0.15603,0.57924 0.11817,0.89075c-0.32801,-0.01447 -0.53823,-0.18287 -0.76763,-0.31507c-0.12222,-0.06041 -0.17317,-0.15274 -0.20495,-0.28122c-0.05543,-0.30659 -0.12592,-0.60189 -0.25263,-0.87665c0.00408,-0.02481 0.00811,-0.04962 0.01628,-0.09931c0.07129,-0.03185 0.12754,-0.05241 0.19884,-0.08428z" fill="#cce5e6"/><path d="M283.97155,208.83807c0.372,0.06843 0.62748,0.20274 0.91311,0.31444c0.08514,0.04481 0.12507,0.12362 0.17601,0.21592c0.17356,0.39191 0.39236,0.74978 0.68247,1.07577c0.03304,0.04049 0.05094,0.09233 0.08394,0.1328c-0.16995,0.14957 -0.19599,0.14742 -0.28402,0.03949c-0.27505,-0.33732 -0.64051,-0.60668 -1.04023,-0.82843c-0.24447,-0.1209 -0.36139,-0.29414 -0.42905,-0.52628c-0.03178,-0.12849 -0.0526,-0.24349 -0.10229,-0.42378z" fill="#cae2e3"/><path d="M287.81734,209.3191c-0.09044,0.06803 -0.13447,0.01408 -0.18254,-0.01507c-0.30399,-0.40267 -0.72569,-0.65142 -1.14334,-0.92502c-0.34755,-0.21745 -0.55132,-0.58667 -0.54111,-1.0515c0.19356,0.02853 0.32962,0.16565 0.50402,0.23037c0.35978,0.14293 0.56883,0.39935 0.72853,0.71456c0.1557,0.34009 0.33742,0.68232 0.62057,0.96998c0.01102,0.01346 0.01791,0.05186 0.01386,0.07667z" fill="#c9e1e2"/><path d="M285.03765,208.05758c0.22247,0.09386 0.38584,0.14515 0.56024,0.20987c0.23755,0.08253 0.39566,0.24658 0.48935,0.48088c0.11855,0.32441 0.30843,0.61698 0.51337,0.89819c0.06196,0.10581 0.14995,0.21376 0.22696,0.3082c-0.06438,0.07019 -0.11243,0.04105 -0.13444,0.01407c-0.39441,-0.33459 -0.81894,-0.64651 -1.26267,-0.92226c-0.07416,-0.0313 -0.12915,-0.09877 -0.1691,-0.17757c-0.10472,-0.24776 -0.19843,-0.48203 -0.2237,-0.81134z" fill="#c9e1e2"/><path d="M285.90601,212.67274c0.14871,0.3017 0.40704,0.49927 0.57899,0.73997c0.07012,0.05612 0.14428,0.08742 0.16911,0.17757c0.05789,0.13062 0.03789,0.49399 -0.02892,0.74018c-0.20049,-0.06692 -0.37771,-0.19483 -0.55901,-0.2979c-0.14426,-0.08743 -0.2172,-0.20671 -0.22983,-0.37136c-0.00732,-0.27747 -0.08188,-0.54793 -0.22775,-0.78652c0.00403,-0.02478 -0.00286,-0.06318 0.0012,-0.08798c0.07536,-0.0567 0.15076,-0.11339 0.29623,-0.114z" fill="#cae3e4"/><path d="M291.78785,209.6846c0.07457,0.27047 0.26568,0.47501 0.28809,0.74116c-0.11656,0.06589 -0.21678,0.03246 -0.32106,0.02384c-0.19353,-0.02859 -0.38014,-0.01884 -0.57653,-0.11054c-0.10756,-0.31095 -0.36879,-0.57163 -0.4914,-0.87119c0.04237,-0.09718 0.10276,-0.14255 0.21517,-0.18361c0.2775,0.16134 0.55907,0.29782 0.88582,0.40031z" fill="#c8e0e1"/><path d="M288.85875,210.86502c0.12509,0.12359 0.26523,0.23586 0.44372,0.27575c0.37198,0.06847 0.5439,0.30921 0.60626,0.65415c0.02078,0.11499 0.0717,0.20732 0.06236,0.34498c-0.2457,-0.0329 -0.48732,-0.09058 -0.71385,-0.15961c-0.07415,-0.03133 -0.11816,-0.08529 -0.14709,-0.15062c-0.11977,-0.23645 -0.2135,-0.47069 -0.3182,-0.71848c-0.02893,-0.06532 -0.05784,-0.13063 0.06682,-0.2462z" fill="#cbe4e5"/><path d="M289.80857,210.15046c0.30233,0.2515 0.61282,0.45331 0.98483,0.52178c0.0631,0.01781 0.10714,0.07181 0.15113,0.12575c0.08392,0.13278 0.16787,0.26555 0.16134,0.46638c-0.35001,-0.04149 -0.6548,-0.11697 -0.95548,-0.21731c-0.10026,-0.03343 -0.17031,-0.08955 -0.22128,-0.18186c-0.09087,-0.1711 -0.19675,-0.33091 -0.28766,-0.502c-0.01098,-0.01348 0.00817,-0.04965 0.00122,-0.08799c0.04525,-0.03404 0.09047,-0.06805 0.16586,-0.12473z" fill="#c8e0e1"/><path d="M293.13329,214.04947c0.0656,-0.15819 0.20535,-0.2851 0.35204,-0.37369c0.11242,-0.04102 0.18496,-0.1609 0.34549,-0.17282c0.10187,0.18464 0.19555,0.41888 0.37973,0.5851c-0.14912,0.2646 -0.35734,0.48653 -0.6246,0.66584c-0.05497,-0.06748 -0.12508,-0.12356 -0.13893,-0.20023c-0.04561,-0.20515 -0.19271,-0.35575 -0.31373,-0.50417z" fill="#85d5d9"/><path d="M283.36481,210.36112c-0.06071,-0.19375 -0.11042,-0.3741 -0.14505,-0.56572c0.00407,-0.02481 0.00812,-0.04963 0.01629,-0.09932c0.24978,0.008 0.47224,0.1019 0.66863,0.1936c0.22449,0.4842 0.44904,0.96842 0.82305,1.42719c-0.39117,-0.03227 -0.44658,-0.33889 -0.64583,-0.49377c-0.23635,-0.1705 -0.47672,-0.31621 -0.71712,-0.46192z" fill="#c6dede"/><path d="M286.9666,206.12763c0.01876,-0.27534 0.00732,-0.528 0.15237,-0.76775c0.1414,0.02428 0.26774,0.05984 0.37895,0.10679c0.11122,0.04695 0.23751,0.08256 0.31452,0.177c0.05379,0.15544 0.01431,0.31582 0.01591,0.46698c-0.00939,0.13765 0.03338,0.27962 -0.0212,0.45132c-0.29258,-0.15004 -0.54799,-0.28437 -0.84056,-0.43438z" fill="#cae3e3"/><path d="M290.57214,207.26837c-0.40131,-0.3729 -0.72158,-0.67626 -1.04182,-0.97956c-0.022,-0.02696 -0.055,-0.06744 -0.06195,-0.10578c-0.0155,-0.22778 -0.07212,-0.44641 0.03586,-0.7018c0.21432,0.14354 0.40256,0.28493 0.6059,0.41498c0.06802,0.47126 0.23752,0.88797 0.46201,1.3722z" fill="#cae3e4"/><path d="M288.97609,212.88836c-0.2237,-0.00587 -0.35289,-0.10464 -0.5012,-0.1672c-0.17441,-0.06475 -0.30355,-0.16351 -0.36426,-0.3573c-0.08963,-0.25912 -0.1793,-0.51824 -0.38545,-0.71146c0.06848,-0.09504 0.15483,-0.13823 0.22085,-0.05727c0.18009,0.19107 0.3602,0.38213 0.60467,0.503c0.35571,0.16777 0.4001,0.46093 0.42537,0.79023z" fill="#c8e0e1"/><path d="M292.75802,212.87324c0.11366,-0.12909 0.24242,-0.26945 0.37119,-0.40986c0.06028,-0.04535 0.10552,-0.07939 0.1919,-0.1226c0.18537,0.07826 0.24611,0.27203 0.38219,0.40912c-0.11493,0.21709 -0.25183,0.40717 -0.43679,0.5681c-0.08637,0.04319 -0.15484,0.1382 -0.28112,0.10261c-0.1471,-0.15061 -0.32435,-0.27846 -0.22737,-0.54735z" fill="#85d4d9"/><path d="M290.22659,211.46878c0.38303,0.08198 0.70283,0.14615 0.95547,0.21731c0.09209,0.0831 0.09088,0.17108 0.08965,0.25908c-0.00123,0.08796 0.03465,0.19159 -0.0489,0.29798c-0.25386,0.01684 -0.51462,-0.00472 -0.77132,-0.05106c-0.06763,-0.23214 -0.15033,-0.45293 -0.2249,-0.72338z" fill="#c7dfe0"/><path d="M288.39878,213.91052c-0.02933,-0.30441 -0.06684,-0.55928 -0.0701,-0.86161c0.24859,0.09602 0.48612,0.17858 0.72366,0.26111c0.0375,0.25482 0.09414,0.47342 0.01223,0.73096c-0.24977,-0.00805 -0.45021,-0.07493 -0.66578,-0.13047z" fill="#c8e0e1"/><path d="M285.89079,206.24018c0.24693,-0.05512 0.42418,0.07278 0.64666,0.16664c0.06314,0.01777 0.09205,0.08311 0.10591,0.15978c0.02363,0.17816 0.04319,0.38113 0.05175,0.57062c0.01099,0.01349 -0.01917,0.03619 -0.04928,0.05886c-0.27053,-0.123 -0.53008,-0.23252 -0.77455,-0.35339c-0.04563,-0.20514 -0.01304,-0.4038 0.01954,-0.6025z" fill="#c4dcdd"/><path d="M283.92539,208.39375c-0.06073,-0.19377 -0.11044,-0.3741 -0.02163,-0.59328c0.23065,0.04423 0.46942,0.03874 0.67681,0.14393c0.03177,0.12848 0.07864,0.24565 0.09941,0.36061c0.02077,0.11499 0.10879,0.22292 0.02121,0.35413c-0.26363,-0.08469 -0.51218,-0.18071 -0.77581,-0.26539z" fill="#c8e0e1"/><path d="M287.92168,214.16058c0.03871,0.16679 -0.02687,0.32498 -0.11162,0.51935c-0.25262,-0.07117 -0.50239,-0.07922 -0.71672,-0.22274c0.04769,-0.21002 0.00201,-0.41518 0.06478,-0.63654c0.27052,0.12299 0.50404,0.23038 0.76359,0.33988z" fill="#c6ddde"/><path d="M284.79528,213.15997c0.19803,0.24289 0.36591,0.50848 0.60914,0.71733c0.19516,0.17971 0.18861,0.38057 0.08474,0.61111c-0.22651,-0.06903 -0.37772,-0.19477 -0.55495,-0.32269c0.03096,-0.34984 -0.10266,-0.66292 -0.13893,-1.00574z" fill="#b9cfd0"/><path d="M291.26219,206.44445c-0.05622,0.02052 -0.08921,-0.01997 -0.12224,-0.06043c-0.15809,-0.16406 -0.29703,-0.3643 -0.48528,-0.50571c-0.2693,-0.21099 -0.22859,-0.45937 -0.15359,-0.75523c0.10716,0.07177 0.19229,0.11657 0.26239,0.17269c0.1622,0.13924 0.29824,0.27633 0.29866,0.51549c-0.02442,0.14904 0.05946,0.28181 0.12834,0.42593c0.02893,0.06527 0.12913,0.09875 0.07169,0.20728z" fill="#c0d8d8"/><path d="M292.74512,209.48681c-0.13034,-0.01075 -0.20858,-0.0172 -0.31696,-0.00098c-0.2278,0.01894 -0.37201,-0.06847 -0.48489,-0.26657c-0.07986,-0.15761 -0.20086,-0.30605 -0.31088,-0.441c-0.03301,-0.04053 -0.09208,-0.08313 0.01343,-0.16253c0.24451,0.12087 0.48896,0.24174 0.76766,0.31507c0.06316,0.01779 0.11816,0.08532 0.16215,0.13926c0.088,0.10795 0.14585,0.23855 0.16949,0.41672z" fill="#c1d9d9"/><path d="M289.43334,213.0016c-0.04969,-0.18031 -0.11448,-0.34929 -0.11897,-0.56362c0.27178,0.035 0.53662,0.0317 0.78516,0.12773c0.00853,0.18954 0.08436,0.37198 -0.01547,0.57767c-0.23059,-0.04422 -0.43926,-0.06141 -0.6507,-0.14179z" fill="#c3dbdc"/><path d="M285.65213,207.8566c-0.27178,-0.03501 -0.48318,-0.11541 -0.68653,-0.24545c-0.01953,-0.203 -0.05416,-0.39463 -0.00649,-0.60467c0.20168,-0.02109 0.34999,0.04145 0.50931,0.11756c0.05257,0.24346 0.12023,0.47558 0.18378,0.73257z" fill="#c3dadb"/><path d="M291.28108,212.61288c-0.02442,0.14905 -0.01466,0.25052 -0.02402,0.38819c-0.00817,0.04963 -0.03546,0.13548 -0.05867,0.1965c-0.21673,0.03248 -0.41434,0.02875 -0.61887,-0.01332c-0.03463,-0.19163 -0.06928,-0.38327 0.00448,-0.59113c0.22368,0.00588 0.44733,0.01176 0.69712,0.01978z" fill="#c4dbdc"/><path d="M292.2664,207.97473c0.29783,0.03715 0.50643,0.05436 0.76723,0.07591c0.05495,0.0675 0.10591,0.15981 0.14176,0.26344c0.03588,0.10363 0.14301,0.17543 0.1076,0.31093c-0.16863,0.06159 -0.3141,0.0622 -0.4665,0.02444c-0.17595,-0.21591 -0.34097,-0.41833 -0.55003,-0.67472z" fill="#c2d9da"/><path d="M286.71396,205.25094c-0.02037,0.12417 -0.02978,0.26185 -0.03912,0.39951c-0.03137,0.11067 -0.05174,0.23484 -0.07213,0.35905c-0.22656,-0.06908 -0.43111,-0.11113 -0.57126,-0.22339c-0.0318,-0.12848 0.04765,-0.21004 0.09003,-0.30719c0.04239,-0.09715 0.03667,-0.22352 0.16827,-0.30076c0.13446,-0.0141 0.27583,0.01022 0.42414,0.07278z" fill="#c5ddde"/><path d="M289.49273,214.0889c0.01059,-0.22565 -0.04603,-0.44433 0.05784,-0.67486c0.17851,0.03989 0.37206,0.06842 0.56559,0.097c-0.01063,0.22568 -0.01717,0.42651 -0.12797,0.61875c-0.15644,-0.01293 -0.31005,0.03732 -0.49546,-0.04091z" fill="#c3dbdc"/><path d="M289.0327,205.85774c-0.27746,-0.16138 -0.53986,-0.33405 -0.76518,-0.49109c-0.01675,-0.13984 -0.02652,-0.24132 0.05703,-0.34771c0.28686,0.02368 0.50117,0.16724 0.76072,0.27674c-0.00936,0.13767 -0.00366,0.26403 -0.00895,0.37684c-0.00818,0.04965 -0.01633,0.09929 -0.04365,0.18515z" fill="#c7dfe0"/><path d="M291.60416,211.36842c-0.0456,-0.20516 -0.16662,-0.35355 -0.11487,-0.58844c0.26078,0.0215 0.49953,0.01607 0.77824,0.08941c-0.03952,0.16035 0.06637,0.32011 -0.00328,0.50315c-0.22084,0.05729 -0.4213,-0.00958 -0.66005,-0.00412z" fill="#c7dee0"/><path d="M293.4742,213.66239c0.24774,-0.3823 0.32718,-0.46386 0.52318,-0.61129c0.11699,0.17327 0.22291,0.33305 0.33983,0.5063c0.077,0.0945 0.07172,0.20732 0.01428,0.31585c-0.03831,0.07231 -0.10268,0.14252 -0.15199,0.20139c-0.15809,-0.16408 -0.26687,-0.387 -0.37975,-0.5851c-0.16054,0.01189 -0.23307,0.13177 -0.3455,0.17283z" fill="#61acb1"/><path d="M283.06654,209.2793c-0.04155,-0.22997 -0.07619,-0.42159 -0.02445,-0.65646c0.17154,0.00159 0.32396,0.03929 0.48731,0.09056c0.06764,0.23214 0.10917,0.4621 0.16174,0.70556c-0.23068,-0.0442 -0.40907,-0.08409 -0.62464,-0.13963z" fill="#c2dada"/><path d="M292.91182,209.84037c0.06763,0.23209 0.14341,0.4146 0.08474,0.61111c-0.17559,0.02326 -0.31414,0.0622 -0.47344,-0.0139c-0.07173,-0.20731 -0.14346,-0.41458 -0.23716,-0.64888c0.2237,0.00586 0.4103,-0.00391 0.62587,0.05163z" fill="#c1d9d9"/><path d="M284.51536,207.53626c-0.23754,-0.08256 -0.44333,-0.0366 -0.62057,-0.1645c-0.01954,-0.203 0.03507,-0.3747 0.11571,-0.54423c0.19762,0.00372 0.39525,0.00744 0.55048,0.10835c-0.01751,0.18738 -0.01995,0.36336 -0.0456,0.60037z" fill="#c6dedf"/><path d="M288.2342,214.75273c0.02855,-0.17385 0.02686,-0.325 0.11857,-0.48105c0.22656,0.06908 0.46937,0.03874 0.67272,0.16878c-0.01345,0.16254 -0.05992,0.28455 -0.18458,0.40012c-0.19354,-0.02856 -0.40217,-0.04577 -0.6067,-0.08783z" fill="#c0d7d7"/><path d="M289.52797,205.0932c0.00247,-0.17599 0.02284,-0.30013 0.11043,-0.43135c0.2086,0.01718 0.394,0.09543 0.52601,0.25732c-0.02445,0.14898 -0.04888,0.29799 -0.06232,0.46053c-0.24568,-0.0329 -0.39279,-0.18348 -0.5741,-0.28654z" fill="#c3dadb"/><path d="M293.11417,212.47473c0.00935,-0.13764 0.13686,-0.19009 0.19026,-0.27376c0.07257,-0.11992 0.13004,-0.2284 0.29176,-0.32834c0.0375,0.2548 0.2147,0.38272 0.29743,0.6035c-0.09453,0.09288 -0.08884,0.21922 -0.20535,0.28511c-0.13607,-0.13714 -0.19678,-0.33088 -0.38219,-0.40912c-0.06032,0.04536 -0.13165,0.07722 -0.19195,0.1226z" fill="#5aa0a4"/><path d="M284.7297,214.92914c0.0395,-0.16035 0.06679,-0.24618 0.15032,-0.35257c0.18949,0.05341 0.37078,0.15648 0.52196,0.28223c-0.02446,0.14898 -0.04075,0.24834 -0.1243,0.35473c-0.2196,-0.03071 -0.36672,-0.18132 -0.54803,-0.28438z" fill="#bdd3d4"/><path d="M291.04397,213.57502c0.05663,0.21867 -0.07903,0.32074 -0.21473,0.42278c-0.1055,0.07939 -0.23306,0.13175 -0.3663,0.05784c0.00245,-0.17596 0.01592,-0.33848 0.09658,-0.50803c0.15643,0.01293 0.31288,0.02582 0.48444,0.02739z" fill="#bdd4d5"/><path d="M282.66726,210.90769c-0.0538,-0.15545 -0.1267,-0.27475 -0.09129,-0.41025c0.4885,0.00255 0.62219,0.31565 0.70244,0.71241c-0.20737,-0.1052 -0.40378,-0.19696 -0.61117,-0.30215z" fill="#bbd2d3"/><path d="M292.19286,212.21004c-0.1646,0.03673 -0.32513,0.04865 -0.51459,-0.00477c0.0656,-0.15821 -0.04438,-0.29313 0.0322,-0.43784c0.10145,-0.05459 0.19068,-0.03463 0.26889,-0.02819c0.1043,0.0086 0.2017,-0.02111 0.27871,0.07333c0.00574,0.12632 0.01143,0.25267 -0.06515,0.39738z" fill="#c3dadb"/><path d="M287.42663,209.52592c-0.11486,0.21707 -0.22735,0.25812 -0.32636,0.13668c-0.13203,-0.16194 -0.275,-0.33734 -0.40295,-0.52409c-0.05504,-0.06742 -0.09494,-0.14627 -0.01551,-0.22781c0.2885,0.17483 0.51663,0.39505 0.74483,0.61523z" fill="#b1c6c7"/><path d="M287.39691,215.42618c0.03586,0.10364 0.01263,0.16465 -0.08191,0.25754c-0.23874,0.00545 -0.51867,0.02013 -0.76315,-0.10073c0.12592,-0.20359 0.27258,-0.29218 0.48815,-0.23663c0.11529,0.02209 0.23878,-0.00547 0.35691,0.0798z" fill="#bbd2d3"/><path d="M285.29645,210.91073c-0.21104,0.1588 -0.27829,0.16582 -0.36222,0.03303c-0.13892,-0.20026 -0.30397,-0.40262 -0.36752,-0.65961c0.28848,0.17486 0.58103,0.32483 0.72974,0.62659z" fill="#bad1d2"/><path d="M284.16136,213.96348c0.10306,0.09659 0.19515,0.17972 0.27217,0.27416c0.15811,0.1641 0.16911,0.17759 -0.04725,0.44921c-0.10715,-0.07177 -0.2294,-0.13221 -0.29949,-0.18833c0.01753,-0.18731 0.05704,-0.34765 0.07455,-0.535z" fill="#b5cbcc"/><path d="M284.34662,205.9869c0.15649,0.0129 0.31417,-0.06215 0.42825,0.04794c-0.05052,0.14687 -0.08588,0.28237 -0.13646,0.42922c-0.17154,-0.0016 -0.33614,0.03519 -0.48039,-0.05224c0.03543,-0.1355 0.07091,-0.27103 0.18865,-0.42492z" fill="#c0d7d8"/><path d="M285.95005,214.33771c0.23346,0.10735 0.45189,0.22607 0.67025,0.34479c0.02487,0.0901 0.0277,0.15329 -0.08881,0.21918c-0.23471,-0.01935 -0.46123,-0.08843 -0.64948,-0.2298c-0.00571,-0.12635 -0.00035,-0.23918 0.06807,-0.33422z" fill="#bdd4d4"/><path d="M282.69847,209.18602c-0.13161,0.07723 -0.23592,0.06865 -0.34717,0.02169c-0.01385,-0.07667 -0.02769,-0.15331 -0.04155,-0.22998c-0.00978,-0.1015 -0.03461,-0.19163 0.03383,-0.28666c0.09046,-0.06802 0.18785,-0.09773 0.30316,-0.07564c0.00856,0.18952 0.04318,0.38114 0.05174,0.57063z" fill="#b6cccc"/><path d="M285.44838,206.68191c-0.17154,-0.00157 -0.29379,-0.06204 -0.4421,-0.1246c0.0546,-0.17167 0.09406,-0.33202 0.14465,-0.47887c0.16869,-0.06159 0.27995,-0.01462 0.36101,0.05499c-0.0326,0.19872 -0.04605,0.3612 -0.06355,0.54854z" fill="#c1d9d9"/><path d="M282.43658,210.05795c-0.02082,-0.11502 -0.04158,-0.23002 -0.06238,-0.34498c-0.01098,-0.01347 0.01919,-0.03615 0.0534,-0.08367c0.10839,-0.01621 0.22086,-0.05729 0.33899,0.02798c0.04276,0.14196 0.12265,0.29959 0.10514,0.48694c-0.16052,0.01196 -0.28684,-0.02369 -0.43515,-0.08625z" fill="#b7cdce"/><path d="M282.58367,211.81955c-0.12508,-0.12359 -0.30886,-0.05067 -0.44902,-0.16292c-0.02771,-0.1533 -0.09658,-0.29742 -0.07907,-0.48477c0.16053,-0.01192 0.29499,-0.02598 0.35976,0.14299c0.06887,0.14412 0.16785,0.26558 0.16828,0.50474z" fill="#b6cccc"/><path d="M285.63351,215.3813c-0.02607,-0.00216 -0.03299,-0.04052 -0.055,-0.0675c0.07948,-0.08153 0.07374,-0.20789 0.24242,-0.26944c0.16338,0.05124 0.33777,0.11597 0.52723,0.16938c-0.05053,0.14684 -0.14097,0.21489 -0.28766,0.30348c-0.13732,-0.0491 -0.26363,-0.08468 -0.427,-0.13594z" fill="#c2dada"/><path d="M285.32862,205.6401c0.02445,-0.14903 0.03381,-0.28669 0.07334,-0.44705c0.15769,-0.0751 0.30315,-0.07568 0.44453,-0.05143c0.06193,0.1058 -0.03258,0.19867 -0.05989,0.28453c-0.04242,0.09718 -0.05867,0.19649 -0.16015,0.25106c-0.09739,0.0297 -0.17563,0.02321 -0.29785,-0.03719z" fill="#bbd2d3"/><path d="M293.08097,210.82333c0.00162,0.15115 -0.00367,0.26404 -0.01996,0.36336c0.00689,0.03835 -0.01223,0.07451 -0.03139,0.1107c-0.10548,0.07943 -0.22491,0.08215 -0.3512,0.04655c-0.01261,-0.16468 -0.04036,-0.31798 -0.01182,-0.49184c0.13445,-0.01405 0.25386,-0.0168 0.41438,-0.02872z" fill="#bbd2d3"/><path d="M283.74329,214.25621c-0.18826,-0.14137 -0.40664,-0.26005 -0.51543,-0.48302c0.16867,-0.06159 0.30027,-0.13885 0.46366,-0.08761c0.11165,0.28606 0.11164,0.28607 0.05175,0.57061z" fill="#adc2c3"/><path d="M292.09065,212.59169c-0.06237,0.46053 -0.07746,0.47185 -0.44376,0.5297c0.01337,-0.1625 0.03785,-0.31147 0.06639,-0.48533c0.1165,-0.06588 0.251,-0.07998 0.37729,-0.04438z" fill="#b5cbcc"/><path d="M283.02898,208.21905c-0.01263,-0.1647 -0.00325,-0.30233 0.09942,-0.44489c0.06725,-0.00704 0.12346,-0.02756 0.17563,-0.02325c0.05217,0.00434 0.10429,0.00863 0.16745,0.02643c-0.00246,0.17601 0.05134,0.33151 -0.01424,0.48968c-0.16054,0.01192 -0.27584,-0.01013 -0.42824,-0.04791z" fill="#bbd1d2"/><path d="M293.46831,209.5087c-0.06722,0.00704 -0.14951,0.02539 -0.18252,-0.01507c-0.16625,-0.1144 -0.24613,-0.27201 -0.2616,-0.49983c0.13448,-0.0141 0.25104,-0.07995 0.38835,-0.03089c0.01263,0.16467 0.12957,0.33792 0.05581,0.54579z" fill="#b6cccd"/><path d="M288.40078,204.63496c0.00408,-0.0248 0.00816,-0.04961 0.0163,-0.09931c0.284,-0.03947 0.55577,-0.00448 0.82753,0.03056c0.0167,0.13983 -0.01061,0.22563 -0.10514,0.31853c-0.23753,-0.08253 -0.49017,-0.15371 -0.73871,-0.24974z" fill="#acc1c2"/><path d="M285.71576,209.72452c0.25547,0.13435 0.52602,0.25737 0.67595,0.47111c0.01099,0.0135 -0.02734,0.08588 -0.05744,0.10855c-0.07537,0.05669 -0.16457,0.03673 -0.23467,-0.01939c-0.17317,-0.1527 -0.28604,-0.35079 -0.38383,-0.56025z" fill="#a7bbbb"/><path d="M283.14158,207.3725c0.00933,-0.13771 0.03381,-0.28671 0.09125,-0.39524c0.1055,-0.07936 0.20695,-0.13391 0.35526,-0.07135c-0.03953,0.16036 -0.07904,0.3207 -0.11857,0.48106c-0.12346,0.02758 -0.23181,0.04379 -0.32799,-0.01449z" fill="#b7cdcd"/><path d="M289.97517,214.53143c-0.20008,0.17224 -0.36999,0.32184 -0.6169,0.37698c-0.0387,-0.16682 0.00775,-0.28882 0.09534,-0.42004c0.17562,-0.02323 0.33614,-0.03519 0.52155,0.04305z" fill="#b7cece"/><path d="M293.32264,207.65919c-0.21678,0.03242 -0.22779,0.01895 -0.27587,-0.0102c-0.11003,-0.13489 -0.14876,-0.30173 -0.16137,-0.46639c-0.00284,-0.06317 0.04648,-0.12204 0.17276,-0.08645c0.03459,0.19167 0.23792,0.32169 0.2644,0.56301z" fill="#b4cacb"/><path d="M287.87478,205.18314c-0.27867,-0.07335 -0.52437,-0.10623 -0.69632,-0.34693c0.29906,-0.05084 0.52559,0.0182 0.74116,0.07375c0.02485,0.09014 0.01262,0.16465 -0.04483,0.27317z" fill="#b2c8c9"/><path d="M292.69566,211.72286c0.10835,-0.01622 0.21676,-0.03246 0.31414,-0.06216c0.03463,0.19162 0.03626,0.34281 -0.18863,0.42492c-0.05625,0.02055 -0.11248,0.04105 -0.17157,-0.00158c-0.03587,-0.10365 -0.00454,-0.21433 0.04604,-0.36118z" fill="#b5cbcb"/><path d="M284.17636,211.53572c-0.13567,0.10206 -0.21793,0.12045 -0.30596,0.01252c-0.06193,-0.10577 -0.10878,-0.22293 -0.17074,-0.32874c-0.03299,-0.04048 -0.03582,-0.10362 0.05054,-0.14685c0.17724,0.12789 0.29823,0.27632 0.42617,0.46306z" fill="#91a3a3"/><path d="M289.68516,206.95605c0.19231,0.11655 0.36548,0.26925 0.47427,0.49222c0.01101,0.01354 -0.01227,0.07454 -0.04238,0.09721c-0.04113,0.00922 -0.09329,0.00489 -0.1153,-0.02209c-0.13203,-0.16191 -0.29013,-0.32598 -0.31661,-0.5673z" fill="#99abac"/><path d="M290.78263,206.87053c-0.0648,-0.16895 -0.18581,-0.31735 -0.19027,-0.53169c0.20332,0.13008 0.34347,0.2423 0.39034,0.35944c0.02484,0.09017 -0.05052,0.14687 -0.20006,0.17229z" fill="#93a5a6"/><path d="M287.71835,215.64149c0.18338,-0.3121 0.42091,-0.22954 0.66253,-0.17186c-0.21394,0.09559 -0.40989,0.24301 -0.66253,0.17186z" fill="#9aadad"/><path d="M286.58973,212.85498c-0.04118,0.00918 -0.05629,0.02055 -0.0864,0.04322c-0.08392,-0.13279 -0.25422,-0.22234 -0.27785,-0.40053c0.07946,-0.08157 0.13567,-0.10208 0.23592,-0.06864c0.0318,0.1285 0.08558,0.28394 0.12836,0.42593z" fill="#c5dddd"/><path d="M287.81446,208.4504c0.18417,0.16624 0.36146,0.29414 0.46736,0.45392c0.02201,0.027 0.02484,0.09014 -0.03138,0.11067c-0.03015,0.0227 -0.07132,0.03188 -0.08233,0.01838c-0.20327,-0.13005 -0.34632,-0.30549 -0.35366,-0.58297z" fill="#aec2c3"/><path d="M293.34416,209.86347c0.10148,-0.05456 0.17968,-0.04813 0.17154,0.00157c0.0428,0.14197 0.04853,0.26826 0.06523,0.40811c0.01385,0.07663 -0.03546,0.13551 -0.1357,0.10206c-0.05382,-0.1555 -0.11859,-0.32443 -0.10108,-0.51178z" fill="#9caeaf"/><path d="M283.70937,206.48803c-0.0933,0.00487 -0.17557,0.02321 -0.26889,0.02813c-0.02606,-0.00213 -0.04805,-0.0291 -0.09616,-0.05825c0.1809,-0.13609 0.31374,-0.30134 0.55372,-0.39479c-0.03952,0.16038 -0.08594,0.28236 -0.18863,0.42493z" fill="#a9bebf"/><path d="M290.35127,209.74219c0.09492,0.14629 0.19394,0.26772 0.29581,0.45234c-0.26078,-0.02155 -0.40502,-0.10895 -0.49996,-0.25522c0.02732,-0.08588 0.07658,-0.14472 0.20413,-0.19714z" fill="#b9cfd0"/><path d="M285.34252,212.96594c0.01672,0.13981 0.18297,0.25423 0.06806,0.4713c-0.30927,-0.28982 -0.36425,-0.35728 -0.31088,-0.44098c0.07131,-0.03185 0.14261,-0.06374 0.24285,-0.03031z" fill="#869797"/><path d="M289.32367,208.27292c-0.34305,-0.00314 -0.3614,-0.29413 -0.58265,-0.47601c0.33089,0.07765 0.47796,0.22821 0.58265,0.47601z" fill="#93a4a5"/><path d="M282.85339,211.46424c0.31984,0.06411 0.4409,0.21259 0.54272,0.39719c-0.0041,0.02482 -0.0232,0.06101 -0.03831,0.07236c-0.04519,0.03405 -0.09735,0.02972 -0.11936,0.00274c-0.11001,-0.13493 -0.22005,-0.26988 -0.38505,-0.47227z" fill="#94a5a6"/><path d="M284.45389,213.30804c0.05376,0.15546 0.16375,0.29035 0.09004,0.49824c-0.15525,-0.10091 -0.23919,-0.23372 -0.31212,-0.353c0.03138,-0.11069 0.08759,-0.13115 0.22206,-0.14526z" fill="#abbfc0"/><path d="M282.01529,210.85389c0.00648,-0.2008 -0.1035,-0.33574 -0.01875,-0.53011c0.19926,0.1549 0.19926,0.15486 0.18744,0.46852c-0.03018,0.02269 -0.07132,0.03189 -0.1687,0.0616z" fill="#acc0c1"/><path d="M287.65678,214.96933c-0.24405,0.11828 -0.44856,0.07624 -0.66413,0.0207c-0.02079,-0.11494 0.03952,-0.16032 0.11773,-0.15388c0.19354,0.02856 0.3679,0.09331 0.54639,0.1332z" fill="#9fb2b2"/><path d="M282.65979,208.2137c-0.10143,0.05456 -0.20285,0.10913 -0.29903,0.05085c0.00529,-0.11283 0.01058,-0.22565 0.09002,-0.3072c0.0864,-0.04323 0.1536,-0.05026 0.22777,-0.01894c0.02483,0.09013 0.01264,0.16462 -0.01874,0.27533z" fill="#aec2c3"/><path d="M288.50185,211.59063c-0.13323,-0.07391 -0.22942,-0.13222 -0.25019,-0.24718c-0.02201,-0.02698 0.00128,-0.088 0.03139,-0.11067c0.04524,-0.03401 0.11241,-0.04105 0.14544,-0.00059c0.06193,0.10579 0.13892,0.2003 0.07335,0.35846z" fill="#91a2a3"/><path d="M285.0234,205.32535c-0.04197,0.33638 -0.06803,0.33417 -0.4209,0.22954c0.11775,-0.15388 0.27831,-0.16577 0.4209,-0.22954z" fill="#869696"/><path d="M291.46009,205.88186c0.0921,0.08313 0.20331,0.13004 0.15565,0.34008c-0.2363,-0.17054 -0.2363,-0.17054 -0.15565,-0.34008z" fill="#555f5f"/><path d="M287.28529,211.91811c0.02726,-0.08585 0.07253,-0.11988 0.1096,-0.10423c0.13726,0.04911 0.18127,0.10307 0.14461,0.32659c-0.12224,-0.06044 -0.19922,-0.15487 -0.25424,-0.22235z" fill="#93a5a6"/><path d="M282.6008,212.19853c-0.27423,0.14103 -0.31129,0.12536 -0.29255,-0.14998c0.13041,0.01071 0.24566,0.03282 0.29255,0.14998z" fill="#8b9b9c"/><path d="M291.54738,205.51152c0.1825,0.01506 0.28559,0.11167 0.37359,0.21961c0.04403,0.05396 0.02081,0.11501 -0.10265,0.14256c-0.10312,-0.09663 -0.20619,-0.19322 -0.27098,-0.36218z" fill="#9aacad"/><path d="M281.95286,209.70346c0.14018,0.11224 0.17604,0.2159 0.06236,0.34498c-0.01508,0.01132 -0.04114,0.00916 -0.05216,-0.00434c-0.10307,-0.09661 -0.04559,-0.20517 -0.01018,-0.34067z" fill="#5f6a6b"/><path d="M289.42395,210.72281c-0.11245,0.04105 -0.17155,-0.00159 -0.21554,-0.05553c-0.02204,-0.02697 -0.01389,-0.07664 0.00527,-0.11283c0.01914,-0.03619 0.0713,-0.03189 0.10837,-0.01624c0.0591,0.04262 0.10312,0.09662 0.10189,0.18462z" fill="#636e6f"/><path d="M282.63124,207.58214c-0.02769,-0.15332 0.03669,-0.22349 0.17522,-0.26242c0.01671,0.13984 -0.01062,0.22565 -0.17522,0.26242z" fill="#4a5354"/></g><g data-paper-data="{&quot;index&quot;:null}" fill="#000000" stroke="#001026" stroke-width="1.2"><path d="M308.82531,220.06047c0.64541,1.40519 -0.50836,2.75667 -1.13757,3.4187c-1.3885,1.46096 -4.98017,0.30155 -8.02219,-2.58963c-3.042,-2.89118 -4.38242,-6.41931 -2.99389,-7.88027c0.57103,-0.60081 1.8059,-1.59967 2.93067,-1.37597c1.61027,0.32028 1.85901,2.2637 3.65004,3.96591c1.66352,1.58103 4.79409,2.76547 5.57298,4.46121z"/><path d="M307.95997,224.10675c1.47918,3.14475 -0.91127,5.63461 -2.13372,6.92084c-2.77706,2.92193 -7.99634,1.25969 -12.19913,-2.73468c-2.23346,-2.12271 -4.61381,-3.59196 -5.22697,-5.79001c-0.54066,-1.93814 0.90518,-4.57113 2.20645,-5.94028c2.73414,-2.87681 5.18293,-5.36475 9.24781,-1.63371c0.06379,0.05855 2.02688,3.46104 2.02688,3.46104c0,0 4.97118,3.36224 6.07868,5.71677z"/></g></g><g data-paper-data="{&quot;index&quot;:null}"><g stroke="#001026" stroke-width="1.2"><path d="M314.41995,218.34755c0,0 -1.99874,29.56935 -1.9985,29.94541c0.00061,0.9233 0.0968,2.5646 -0.79377,3.69317c-0.88454,1.12089 -2.26861,1.77553 -3.17721,1.92561c-1.95629,0.32312 -7.31027,1.17353 -9.99608,0.60427c-2.80416,-0.59436 -2.90044,-2.62522 -2.90965,-3.03885c-0.16143,-7.25546 6.62641,-7.67697 6.62641,-7.67697l2.80923,-26.55416" fill="#ff0000" fill-rule="evenodd" stroke-linecap="round" stroke-linejoin="round"/><path d="M314.58767,224.3358c0.02384,1.07135 -0.33398,7.66267 -0.10668,13.3497c0.17266,4.32006 0.94979,8.1603 0.94021,8.41917c-0.01879,0.50782 -0.59876,0.38437 -0.59876,0.38437c0,0 0.78669,2.18253 0.68648,2.91594c-0.40648,2.975 -5.47871,3.80363 -5.47871,3.80363c0,0 1.32126,-4.36522 -1.34515,-6.68443c-2.66641,-2.31921 -9.51246,-1.84918 -9.51246,-1.84918c0,0 0.61638,-1.18989 1.42216,-2.76643c0.25865,-0.50608 0.90452,-1.35424 0.90452,-1.35424l-0.98014,1.21704c0,0 -0.22237,-1.67461 0.3182,-3.5116c0.2288,-0.77748 1.45342,-3.48367 2.10631,-6.54844c0.95345,-4.47568 1.39932,-9.73401 1.6262,-11.01486c1.03019,-5.81571 0.87287,-3.82842 2.03699,-3.85769c2.67712,-0.06732 7.81538,0.06136 7.98081,7.49702z" fill="#004fd9" fill-rule="nonzero" stroke-linecap="butt" stroke-linejoin="miter"/></g><path d="M323.29051,219.05704c-0.05208,1.20019 -1.01748,3.80207 -3.89747,4.76361c-2.25784,0.75382 -6.24498,0.03683 -8.19433,-0.05877c-4.43586,-0.21754 -6.62912,-4.18363 -6.53622,-6.32475c0.02511,-0.57859 0.68128,0.97167 4.55881,1.5541c1.49529,0.2246 6.81293,0.66358 10.28518,0.56546c2.63198,-0.07437 3.79351,-0.71789 3.78404,-0.49962z" fill="#004fd9" fill-rule="nonzero" stroke="#001026" stroke-width="1.2" stroke-linecap="butt" stroke-linejoin="miter"/><g fill-rule="nonzero" stroke-linecap="butt" stroke-linejoin="miter"><g fill="none" stroke="none" stroke-width="1" font-family="sans-serif" font-weight="normal" font-size="12" text-anchor="start"/><path d="M323.75845,217.66452c0,0 0.16219,3.20579 -2.34146,5.28359c-1.65181,1.37084 -4.98883,2.03888 -7.97993,2.00727c-3.28322,-0.0347 -5.82338,-1.67032 -7.14509,-3.24922c-1.7075,-2.03976 -1.67736,-4.13559 -1.67736,-4.13559c0,0 3.15439,1.40424 6.98315,1.42303c3.82876,0.01879 12.16069,-1.32907 12.16069,-1.32907z" fill="#004fd9" stroke="#001026" stroke-width="1.2"/></g><g stroke="#001026" stroke-width="1.2"><path d="M323.43586,220.58409l5.99882,31.05749c0,0 -9.33237,2.62002 -11.03534,2.32743c-0.59342,-0.10196 -3.8454,-30.99241 -3.8454,-30.99241" data-paper-data="{&quot;index&quot;:null}" fill="#ffab19" fill-rule="evenodd" stroke-linecap="round" stroke-linejoin="round"/><path d="M324.09758,219.45824l5.19221,19.78294c0,0 1.71279,3.5152 2.15466,4.86449c0.39347,1.2015 0.36826,2.83943 0.36826,2.83943l-2.41819,-3.28034c0,0 2.63167,3.00935 3.12172,5.88192c0.43455,2.54719 -1.18,4.93832 -2.37194,5.75062c-2.80138,1.90911 -8.23558,1.53579 -11.51344,1.20526c-2.98547,-0.30105 -4.12477,-3.46987 -3.87513,-5.88293c0.03578,-0.34585 0.39916,-4.26966 0.39916,-4.26966c0,0 -0.32551,3.48056 -0.73859,2.89491c-0.89188,-1.26445 0.02037,-6.39198 0.02037,-6.39198c0,0 -0.12065,-7.05662 -0.33586,-10.37865c-0.22439,-3.4635 -0.98406,-9.99568 -0.98406,-9.99568" data-paper-data="{&quot;index&quot;:null}" fill="#004fd9" fill-rule="evenodd" stroke-linecap="round" stroke-linejoin="round"/><path d="M316.15308,252.04313c-0.16466,-3.47541 3.17904,-6.52075 7.4683,-6.80196c4.28929,-0.28122 7.89989,2.30819 8.06452,5.78358c0.08019,1.69284 -0.44464,3.94594 -1.73303,5.16496c-1.35668,1.28362 -10.13242,1.69985 -11.59261,0.64954c-1.45478,-1.04644 -2.12504,-3.06165 -2.2072,-4.79614z" fill="#ff0000" fill-rule="nonzero" stroke-linecap="butt" stroke-linejoin="miter"/></g></g><g data-paper-data="{&quot;index&quot;:null}" fill="#000000" fill-rule="nonzero" stroke="#001026" stroke-width="1.2" stroke-linecap="butt" stroke-linejoin="miter"><path d="M342.2018,211.02793c-2.46955,3.52358 -6.36632,-1.38292 -7.58338,-1.49801c-1.56822,-0.14828 -2.74004,-0.68061 -3.2002,-3.57581c-0.28524,-1.79469 -0.77813,-8.09571 0.30915,-12.284c0.67255,-2.59067 2.42937,-4.70522 3.25323,-5.36228c2.20484,-1.75843 5.32687,-1.34228 6.28757,-0.78088c1.43444,0.83822 1.12185,3.44615 0.74789,6.35624c-0.35264,2.74403 2.06304,7.06622 2.02804,7.43634c-0.32005,3.38461 0.62729,6.18486 -1.84229,9.70842z" data-paper-data="{&quot;index&quot;:null}"/><path d="M342.61842,204.88518c0.798,2.57354 -0.51989,4.31182 -1.46924,7.32129c-1.03125,3.26911 -2.87062,6.64718 -5.08193,8.06585c-2.29009,1.46923 -7.69836,0.04907 -7.69836,0.04907c0,0 -2.77966,-0.39689 -3.7912,-1.12248c-1.37413,-0.98568 -2.34759,-2.2486 -2.44215,-4.62853c-0.14589,-3.67196 1.13965,-8.62613 1.13965,-8.62613c0,0 -0.47996,-1.05539 -0.6256,-1.91453c-0.13431,-0.79238 0.30938,-2.19331 0.65683,-2.77056c2.42054,-4.02146 7.8614,-5.44977 11.97264,-4.15285c2.92574,0.92293 6.3728,4.66167 7.33937,7.77886z"/></g><path d="M307.7138,192.37067c1.58551,-0.48872 17.19038,-2.69097 17.19038,-0.16753c0,3.45607 -2.04179,9.10222 -5.26222,9.10222c-3.22044,0 -12.82862,-8.65713 -11.92816,-8.93469z" data-paper-data="{&quot;index&quot;:null}" fill="#ff0000" fill-rule="nonzero" stroke="#000000" stroke-width="3" stroke-linecap="butt" stroke-linejoin="miter"/><path d="M261.53765,163.16373c-0.60842,13.43725 -12.48536,23.81485 -26.5279,23.17902c-14.04253,-0.63583 -24.93303,-12.04431 -24.3246,-25.48156c0.60842,-13.43725 12.48536,-23.81485 26.5279,-23.17902c14.04253,0.63583 24.93303,12.04431 24.3246,25.48156z" fill="none" fill-rule="nonzero" stroke="#000000" stroke-width="4.5" stroke-linecap="butt" stroke-linejoin="miter"/><path d="M229.18384,186.95345l-29.40699,-1.56546c0,0 -2.38655,-0.44775 -1.9994,-1.33264c0.88777,-2.02911 7.21856,-10.59651 7.21856,-10.59651l-11.49393,-4.4976c0,0 -2.0863,-0.99922 -2.35564,-2.11178c-0.25056,-1.03498 11.55441,-9.87113 11.55441,-9.87113c0,0 -8.09526,-3.97991 -10.24274,-6.06017c-0.84326,-0.81687 12.04462,-7.89151 20.87275,-11.22418c4.31986,-1.63077 10.22205,-4.11391 14.94085,-4.63128c7.82409,-0.85784 13.71237,1.7029 13.71237,1.7029" fill="none" fill-rule="nonzero" stroke="#000000" stroke-width="3" stroke-linecap="round" stroke-linejoin="miter"/><path d="M197.90908,185.30341c0,0 -0.46612,-1.42642 0.84953,-3.30169c1.64789,-2.34882 7.12986,-5.35475 5.58452,-7.7886c-2.00183,-3.15281 -14.61925,-3.26621 -12.89402,-7.03904c1.41661,-3.09794 10.9246,-8.13703 11.01829,-10.20633c0.09349,-2.06473 -4.52655,-1.01532 -7.01898,-3.88206c-3.54477,-4.07711 -1.74818,-4.00135 -1.74818,-4.00135c0,0 12.04662,-6.93463 17.84736,-9.12132c5.44239,-2.0516 15.95062,-3.61939 15.95062,-3.61939c0,0 -15.54121,13.05738 -18.03472,21.00143c-2.76409,8.80611 13.93638,28.17674 13.93638,28.17674z" data-paper-data="{&quot;index&quot;:null}" fill="url(#color-2)" fill-rule="nonzero" stroke="none" stroke-width="0" stroke-linecap="butt" stroke-linejoin="miter"/><path d="M235.57453,189.53538l-0.98643,15.86593" fill="none" fill-rule="nonzero" stroke="#000000" stroke-width="6" stroke-linecap="round" stroke-linejoin="miter"/><path d="M191.14258,174.8856c0.76273,-0.97734 44.37939,16.25248 44.37939,16.25248c0,0 6.35362,5.27408 9.24559,6.61526c1.81613,0.84225 5.03497,-0.14324 5.03497,-0.14324" fill="none" fill-rule="nonzero" stroke="#000000" stroke-width="6" stroke-linecap="round" stroke-linejoin="miter"/><path d="M243.71916,204.1031l2.92297,25.98777c0,0 7.06267,0.41252 6.89471,7.51322c-0.00958,0.40481 -0.10976,2.39235 -3.02746,2.97403c-2.79456,0.55712 -8.36532,-0.27515 -10.40081,-0.59138c-0.94539,-0.14688 -2.3855,-0.78756 -3.30585,-1.88454c-0.92663,-1.1045 -0.82654,-2.71079 -0.82591,-3.6144c0.00025,-0.36804 -2.07942,-29.30669 -2.07942,-29.30669" fill="#000000" fill-rule="evenodd" stroke="#001026" stroke-width="1.2" stroke-linecap="round" stroke-linejoin="round"/><path d="M233.7579,209.71143c0,0 -3.38365,30.23157 -4.0011,30.33136c-1.77192,0.28635 -11.48215,-2.27779 -11.48215,-2.27779l6.24171,-30.39505" data-paper-data="{&quot;index&quot;:null}" fill="#000000" fill-rule="evenodd" stroke="#001026" stroke-width="1.2" stroke-linecap="round" stroke-linejoin="round"/><path d="M232.09407,238.15796c-0.02471,0.4906 -0.78326,4.37077 -2.69077,7.11812c-1.4878,2.14285 -4.06623,3.2049 -4.98327,3.98929c-1.09796,0.93914 -4.37918,-1.08183 -5.95259,-4.45725c-1.25725,-2.69714 -0.97219,-6.71096 -0.93513,-7.44681c0.1713,-3.40126 1.92809,0.46456 6.39105,0.73978c4.46293,0.27521 8.34201,-3.3444 8.17069,0.05688z" fill="#ff0000" fill-rule="nonzero" stroke="#001026" stroke-width="1.2" stroke-linecap="butt" stroke-linejoin="miter"/><g data-paper-data="{&quot;index&quot;:null}" fill="#000000" fill-rule="nonzero" stroke="#000000" stroke-width="1.2" stroke-linecap="butt" stroke-linejoin="miter"><path d="M259.53618,204.82149c-1.39652,0.63085 -3.97454,-0.32259 -5.85733,-0.2396c-2.0271,0.08933 -3.22867,1.15938 -4.39897,0.48993c-0.81744,-0.46761 -1.04419,-1.75203 -1.07416,-2.43204c-0.07289,-1.65355 2.65915,-3.11704 6.10215,-3.26879c3.44301,-0.15176 6.29321,1.0657 6.36609,2.71924c0.03303,0.7493 0.01947,2.20849 -1.13776,2.73126z"/><path d="M261.18084,201.84814c-1.95519,0.8619 -6.84736,0.26575 -6.84736,0.26575c0,0 -3.05012,1.05006 -3.1212,1.05195c-4.52941,0.12082 -4.70571,-2.74047 -4.84921,-5.99647c-0.06831,-1.54964 0.455,-3.96023 1.83456,-4.86965c1.56458,-1.03139 3.83127,-0.65876 6.35913,-0.77017c4.75678,-0.20964 8.88642,1.5735 9.03218,4.8806c0.06416,1.45577 0.20327,4.28681 -2.40811,5.43798z"/></g><path d="M235.3301,171.58004c0,3.05539 -4.63399,16.88893 -6,16.88893c-1.35928,0 -5.33333,-18.93442 -5.33333,-22.00679c0,-3.25051 11.33333,1.86736 11.33333,5.11787z" fill="#ff0000" fill-rule="nonzero" stroke="#000000" stroke-width="2.5" stroke-linecap="butt" stroke-linejoin="miter"/><path d="M220.90157,215.87092c0,0 7.23416,-26.78691 9.1924,-28.46357c0.57497,-0.49229 10.92189,-0.04146 10.92189,-0.04146l7.91429,39.22487z" fill="#f11111" fill-rule="nonzero" stroke="#000000" stroke-width="1" stroke-linecap="butt" stroke-linejoin="miter"/><path d="M236.49385,240.21611c-1.60575,-1.19302 -2.25986,-3.39806 -2.15991,-5.05479c0.03057,-0.50678 7.68604,-0.66832 11.11866,-2.06752c2.71266,-1.10573 1.28615,-3.62809 1.82152,-3.22762c0.11104,0.08306 2.41338,0.33854 5.06018,2.71517c1.71769,1.54236 4.07661,5.4665 4.38914,5.75655c0.5514,0.51174 0.17694,2.66529 -3.97455,3.1422c-5.47186,0.62859 -15.2936,-0.54968 -16.25503,-1.26399z" fill="#ff0000" fill-rule="nonzero" stroke="#001026" stroke-width="1.2" stroke-linecap="butt" stroke-linejoin="miter"/><path d="M244.72257,204.9814l-0.15355,-6l23.8,-0.4v6.6" fill="none" fill-rule="nonzero" stroke="#000000" stroke-width="1" stroke-linecap="round" stroke-linejoin="miter"/><path d="M239.96904,219.9814v-15.8h34.4v15.8z" fill="#f11111" fill-rule="nonzero" stroke="#000000" stroke-width="1" stroke-linecap="butt" stroke-linejoin="miter"/><path d="M252.36904,212.1814c0,2.76142 -2.28335,5 -5.1,5c-2.81665,0 -5.1,-2.23858 -5.1,-5c0,-2.76142 2.28335,-5 5.1,-5c2.81665,0 5.1,2.23858 5.1,5z" fill="#8e8888" fill-rule="nonzero" stroke="#000000" stroke-width="1" stroke-linecap="butt" stroke-linejoin="miter"/><path d="M271.76903,212.1814c0,2.76142 -2.14903,5 -4.8,5c-2.65097,0 -4.8,-2.23858 -4.8,-5c0,-2.76142 2.14903,-5 4.8,-5c2.65097,0 4.8,2.23858 4.8,5z" fill="#8e8888" fill-rule="nonzero" stroke="#000000" stroke-width="1" stroke-linecap="butt" stroke-linejoin="miter"/><path d="M261.36904,215.8814c0,0.71797 -1.79086,1.3 -4,1.3c-2.20914,0 -4,-0.58203 -4,-1.3c0,-0.71797 1.79086,-1.3 4,-1.3c2.20914,0 4,0.58203 4,1.3z" fill="#8e8888" fill-rule="nonzero" stroke="#000000" stroke-width="1" stroke-linecap="butt" stroke-linejoin="miter"/><path d="M229.9558,226.08156c0,0 -2.49763,1.0461 -3.50879,0.77033c-1.07959,-0.29444 -2.77692,-2.48462 -2.77692,-2.48462" fill="none" fill-rule="nonzero" stroke="#001026" stroke-width="1" stroke-linecap="round" stroke-linejoin="miter"/><path d="M244.67009,225.36727c0,0 -2.58743,1.64272 -3.85496,1.74213c-1.14948,0.09015 -3.43075,-1.1707 -3.43075,-1.1707" fill="none" fill-rule="nonzero" stroke="#001026" stroke-width="1" stroke-linecap="round" stroke-linejoin="miter"/><path d="M235.77463,156.05262c-2.34082,0.87781 -3.21863,-1.46301 -3.21863,-1.46301l-0.39688,-1.38116c-0.88616,-1.14349 -1.27624,-2.88204 -2.59366,-3.47974c-0.88039,-0.39942 -1.74101,0.89127 -2.4573,1.54055c-1.85875,1.68487 -2.88224,3.36603 -3.98788,5.59877c0,0 -1.11803,2.23607 -3.3541,1.11803c-2.23607,-1.11803 -1.11803,-3.3541 -1.11803,-3.3541c2.06747,-4.10117 6.61005,-11.30304 12.40815,-9.67582c1.59961,0.44893 4.00266,3.84093 5.04958,5.1826l1.13177,2.69524c0,0 0.87781,2.34082 -1.46301,3.21863z" fill="#000000" fill-rule="nonzero" stroke="none" stroke-width="0.5" stroke-linecap="butt" stroke-linejoin="miter"/><path d="M253.75015,158.50477c-2.5,0 -2.5,-2.5 -2.5,-2.5l0.04855,-0.01926c-0.37407,-2.0114 -0.16897,-2.20149 -1.32784,-3.82552c-0.30303,-0.42466 -0.71611,-0.75887 -1.06952,-1.14262c-0.16252,-0.17647 -0.32081,-0.71903 -0.47816,-0.53793c-1.83869,2.11632 -2.96925,4.76347 -4.6397,7.01495c0,0 -1.48962,2.00775 -3.49736,0.51813c-2.00775,-1.48962 -0.51813,-3.49736 -0.51813,-3.49736c0.93957,-1.26637 6.02697,-8.32516 7.07994,-8.78109c5.37704,-2.32824 8.64227,5.89043 9.35367,9.27087l0.04855,0.99984c0,0 0,2.5 -2.5,2.5z" fill="#000000" fill-rule="nonzero" stroke="none" stroke-width="0.5" stroke-linecap="butt" stroke-linejoin="miter"/><path d="M158.58807,215.40131l0.98643,-15.86593" fill="none" fill-rule="nonzero" stroke="#000000" stroke-width="6" stroke-linecap="round" stroke-linejoin="miter"/><path d="M133.97247,220.59443c0.76273,-0.97734 25.54948,-19.45635 25.54948,-19.45635c0,0 18.68695,20.27408 21.57892,21.61526" fill="none" fill-rule="nonzero" stroke="#000000" stroke-width="6" stroke-linecap="round" stroke-linejoin="miter"/><path d="M167.71914,214.1031l2.92297,25.98777c0,0 7.06267,0.41252 6.89471,7.51322c-0.00958,0.40481 -0.10976,2.39235 -3.02746,2.97403c-2.79456,0.55712 -8.36532,-0.27515 -10.40081,-0.59138c-0.94539,-0.14688 -2.3855,-0.78756 -3.30585,-1.88454c-0.92663,-1.1045 -0.82654,-2.71079 -0.82591,-3.6144c0.00025,-0.36804 -2.07942,-29.30669 -2.07942,-29.30669" fill="#000000" fill-rule="evenodd" stroke="#001026" stroke-width="1.2" stroke-linecap="round" stroke-linejoin="round"/><path d="M157.75788,219.71143c0,0 -3.38365,30.23157 -4.0011,30.33136c-1.77192,0.28635 -11.48215,-2.27779 -11.48215,-2.27779l6.24171,-30.39505" data-paper-data="{&quot;index&quot;:null}" fill="#000000" fill-rule="evenodd" stroke="#001026" stroke-width="1.2" stroke-linecap="round" stroke-linejoin="round"/><path d="M156.09405,248.15795c-0.02471,0.4906 -0.78326,4.37077 -2.69077,7.11812c-1.4878,2.14285 -4.06623,3.2049 -4.98327,3.98929c-1.09796,0.93914 -4.37918,-1.08183 -5.95259,-4.45725c-1.25725,-2.69714 -0.97219,-6.71096 -0.93513,-7.44681c0.1713,-3.40126 1.92809,0.46456 6.39105,0.73978c4.46293,0.27521 8.34201,-3.3444 8.17069,0.05688z" fill="#004eff" fill-rule="nonzero" stroke="#001026" stroke-width="1.2" stroke-linecap="butt" stroke-linejoin="miter"/><path d="M144.90155,226.53362c0,0 7.23416,-25.13095 9.1924,-26.70396c0.57497,-0.46186 10.92189,-0.0389 10.92189,-0.0389l7.91429,36.8z" fill="#f2c311" fill-rule="nonzero" stroke="#000000" stroke-width="1" stroke-linecap="butt" stroke-linejoin="miter"/><path d="M160.49383,250.21611c-1.60575,-1.19302 -2.25986,-3.39806 -2.15991,-5.05479c0.03057,-0.50678 7.68604,-0.66832 11.11866,-2.06752c2.71266,-1.10573 1.28615,-3.62809 1.82152,-3.22762c0.11104,0.08306 2.41338,0.33854 5.06018,2.71517c1.71769,1.54236 4.07661,5.4665 4.38914,5.75655c0.5514,0.51174 0.17694,2.66529 -3.97455,3.1422c-5.47186,0.62859 -15.2936,-0.54968 -16.25503,-1.26399z" fill="#004eff" fill-rule="nonzero" stroke="#001026" stroke-width="1.2" stroke-linecap="butt" stroke-linejoin="miter"/><path d="M153.95578,236.08156c0,0 -2.49763,1.0461 -3.50879,0.77033c-1.07959,-0.29444 -2.77692,-2.48462 -2.77692,-2.48462" fill="none" fill-rule="nonzero" stroke="#001026" stroke-width="1" stroke-linecap="round" stroke-linejoin="miter"/><path d="M168.67007,235.36727c0,0 -2.58743,1.64272 -3.85496,1.74213c-1.14948,0.09015 -3.43075,-1.1707 -3.43075,-1.1707" fill="none" fill-rule="nonzero" stroke="#001026" stroke-width="1" stroke-linecap="round" stroke-linejoin="miter"/><g fill-rule="nonzero" stroke-linejoin="miter"><path d="M185.6742,175.96921c-0.7152,13.43199 -12.67426,23.71486 -26.7113,22.96743c-14.03703,-0.74743 -24.8365,-12.24211 -24.12129,-25.6741c0.7152,-13.43199 12.67426,-23.71486 26.7113,-22.96743c14.03703,0.74743 24.8365,12.24211 24.12129,25.6741z" fill="none" stroke="#000000" stroke-width="4.5" stroke-linecap="butt"/><path d="M153.13232,199.50102l-29.39362,-1.79915c0,0 -2.38292,-0.4667 -1.98874,-1.3485c0.90387,-2.02199 7.30256,-10.53879 7.30256,-10.53879l-11.45782,-4.58882c0,0 -2.07829,-1.01576 -2.33878,-2.13043c-0.24233,-1.03694 11.63251,-9.77897 11.63251,-9.77897c0,0 -8.06337,-4.04413 -10.19424,-6.14139c-0.83674,-0.82355 12.10697,-7.79552 20.96131,-11.05792c4.33268,-1.59638 10.25443,-4.03253 14.97718,-4.51238c7.83067,-0.79562 13.6984,1.81184 13.6984,1.81184" fill="none" stroke="#000000" stroke-width="3" stroke-linecap="round"/><path d="M121.87166,197.60244c0,0 -0.45477,-1.43008 0.87575,-3.29483c1.66651,-2.33565 7.17219,-5.2979 5.64626,-7.74396c-1.97671,-3.16862 -14.59283,-3.3823 -12.83767,-7.1413c1.44119,-3.08658 10.98894,-8.04994 11.09907,-10.11843c0.10989,-2.06392 -4.51834,-1.05127 -6.9879,-3.93773c-3.51226,-4.10515 -1.71632,-4.01512 -1.71632,-4.01512c0,0 12.10136,-6.83866 17.9193,-8.97917c5.45853,-2.00827 15.97888,-3.49249 15.97888,-3.49249c0,0 -15.6445,12.93344 -18.20108,20.85742c-2.834,8.78386 13.71197,28.28662 13.71197,28.28662z" data-paper-data="{&quot;index&quot;:null}" fill="url(#color-3)" stroke="none" stroke-width="0" stroke-linecap="butt"/><path d="M158.14959,176.21495c-0.02195,2.76134 -1.31314,4.98971 -3.7063,4.9707c-2.39316,-0.01902 -2.64879,-2.25971 -2.62684,-5.02104c0.02195,-2.76134 0.31316,-4.99767 2.70634,-4.97865c2.39316,0.01902 3.64876,2.26766 3.62681,5.02899z" fill="#070606" stroke="#000000" stroke-width="5" stroke-linecap="butt"/><path d="M172.31714,176.16089c-0.01976,2.48521 -1.15992,4.49093 -3.36899,4.47337c-2.20907,-0.01755 -2.81855,-1.87051 -2.7988,-4.35572c0.01976,-2.48521 0.66126,-4.66156 2.87033,-4.644c2.20907,0.01755 3.31721,2.04115 3.29746,4.52635z" fill="#070606" stroke="#000000" stroke-width="5" stroke-linecap="butt"/></g><path d="M149.48616,165.54868l7.66667,6.33333" fill="none" fill-rule="nonzero" stroke="#000000" stroke-width="5" stroke-linecap="round" stroke-linejoin="miter"/><path d="M166.15283,170.88201l11.33333,-1.33333" fill="none" fill-rule="nonzero" stroke="#000000" stroke-width="5" stroke-linecap="round" stroke-linejoin="miter"/><path d="M152.15283,190.54868l-7.33333,-4.66667" fill="none" fill-rule="nonzero" stroke="#000000" stroke-width="2.5" stroke-linecap="round" stroke-linejoin="miter"/><text transform="translate(189.83965,72.90773) scale(1.1253,1.1253)" font-size="40" xml:space="preserve" fill="#9966ff" fill-rule="nonzero" stroke="none" stroke-width="1" stroke-linecap="butt" stroke-linejoin="miter" stroke-miterlimit="10" stroke-dasharray="" stroke-dashoffset="0" font-family="Marker" font-weight="normal" text-anchor="start" style="mix-blend-mode: normal"><tspan x="0" dy="0">Jay </tspan><tspan x="0" dy="46.15px">Beta</tspan></text></g></g></svg>