<svg version="1.1" xmlns="http://www.w3.org/2000/svg" xmlns:xlink="http://www.w3.org/1999/xlink" width="970.59935" height="65.5" viewBox="0,0,970.59935,65.5"><g transform="translate(253.75,-226.25)"><g data-paper-data="{&quot;isPaintingLayer&quot;:true}" fill="none" fill-rule="nonzero" stroke="#747474" stroke-width="8.5" stroke-linecap="round" stroke-linejoin="miter" stroke-miterlimit="10" stroke-dasharray="" stroke-dashoffset="0" style="mix-blend-mode: normal"><path d="M233.5,287.5l2,-52l477,3l-1,43"/><path d="M274.5,235.5l-1,51"/><path d="M332.5,236.5v50"/><path d="M393.5,237.5v47"/><path d="M471.5,239.5l1,45"/><path d="M554.5,236.5l1,43"/><path d="M644.5,233.5l2,44"/><path d="M-249.5,284.5l2,-52l477,3l-1,43"/><path d="M-207.5,230.5l-1,51"/><path d="M-149.5,231.5v50"/><path d="M-89.5,231.5v47"/><path d="M-11.5,236.5l1,45"/><path d="M71.5,236.5l1,43"/><path d="M160.5,232.5l2,44"/></g></g></svg>