<svg version="1.1" xmlns="http://www.w3.org/2000/svg" xmlns:xlink="http://www.w3.org/1999/xlink" width="67.13499" height="132.77703" viewBox="0,0,67.13499,132.77703"><defs><linearGradient x1="203.471" y1="145.44762" x2="256.99998" y2="152.7586" gradientUnits="userSpaceOnUse" id="color-1"><stop offset="0" stop-color="#66ff81" stop-opacity="0"/><stop offset="1" stop-color="#66ff81"/></linearGradient><linearGradient x1="232.42397" y1="221.6931" x2="250.44832" y2="221.6931" gradientUnits="userSpaceOnUse" id="color-2"><stop offset="0" stop-color="#2a801c"/><stop offset="1" stop-color="#62f67a"/></linearGradient><linearGradient x1="232.42397" y1="221.6931" x2="250.44832" y2="221.6931" gradientUnits="userSpaceOnUse" id="color-3"><stop offset="0" stop-color="#2a801c"/><stop offset="1" stop-color="#62f67a"/></linearGradient><linearGradient x1="223.85259" y1="208.07232" x2="244.39754" y2="208.07232" gradientUnits="userSpaceOnUse" id="color-4"><stop offset="0" stop-color="#42ff00"/><stop offset="1" stop-color="#66ff81"/></linearGradient><linearGradient x1="223.33436" y1="208.58077" x2="244.44731" y2="208.58077" gradientUnits="userSpaceOnUse" id="color-5"><stop offset="0" stop-color="#195d00"/><stop offset="1" stop-color="#66ff81"/></linearGradient><linearGradient x1="223.33435" y1="208.58076" x2="244.44731" y2="208.58076" gradientUnits="userSpaceOnUse" id="color-6"><stop offset="0" stop-color="#2a801c"/><stop offset="1" stop-color="#62f67a"/></linearGradient><linearGradient x1="213.59929" y1="224.81813" x2="235.07161" y2="224.81813" gradientUnits="userSpaceOnUse" id="color-7"><stop offset="0" stop-color="#2a801c"/><stop offset="1" stop-color="#62f67a"/></linearGradient><linearGradient x1="213.59929" y1="224.81813" x2="235.07161" y2="224.81813" gradientUnits="userSpaceOnUse" id="color-8"><stop offset="0" stop-color="#2a801c"/><stop offset="1" stop-color="#62f67a"/></linearGradient></defs><g transform="translate(-204.27791,-110.68375)"><g data-paper-data="{&quot;isPaintingLayer&quot;:true}" stroke-miterlimit="10" stroke-dasharray="" stroke-dashoffset="0" style="mix-blend-mode: normal"><path d="M237.14008,194.78906l-3.3684,9.14279" fill="none" fill-rule="nonzero" stroke="#66ff81" stroke-width="7" stroke-linecap="round" stroke-linejoin="miter"/><path d="M240.74908,194.78905l11.78939,12.02999" fill="none" fill-rule="nonzero" stroke="#66ff81" stroke-width="7" stroke-linecap="round" stroke-linejoin="miter"/><path d="M233.60236,194.82114l-16.5025,8.14622" fill="none" fill-rule="nonzero" stroke="#66ff81" stroke-width="7" stroke-linecap="round" stroke-linejoin="miter"/><g stroke-linejoin="miter"><g><g data-paper-data="{&quot;index&quot;:null}" stroke-linecap="butt"><path d="M264.34639,177.47507c-4.39898,12.71137 -18.73383,19.28924 -32.01779,14.6921c-13.28395,-4.59715 -20.48663,-18.62845 -16.08764,-31.33982c4.39898,-12.71137 18.73383,-19.28924 32.01779,-14.69209c13.28395,4.59715 20.48664,18.62845 16.08764,31.33982z" fill="none" fill-rule="nonzero" stroke="#66ff81" stroke-width="4.5"/><g><g fill-rule="nonzero"><path d="M231.19126,149.35843l-0.00818,-0.0114" data-paper-data="{&quot;index&quot;:null}" fill="#ffab19" stroke="#000000" stroke-width="5"/><g data-paper-data="{&quot;index&quot;:null}" fill="none" stroke="none" stroke-width="1" font-family="sans-serif" font-weight="normal" font-size="12" text-anchor="start"/></g><path d="M231.19126,149.35843l-0.00818,-0.0114" data-paper-data="{&quot;index&quot;:null}" fill="#ffab19" fill-rule="nonzero" stroke="#000000" stroke-width="5"/><path d="M239.61862,170.21171" fill="#001026" fill-rule="evenodd" stroke="#000000" stroke-width="5"/><g data-paper-data="{&quot;index&quot;:null}" fill="none" fill-rule="nonzero" stroke="none" stroke-width="1" font-family="sans-serif" font-weight="normal" font-size="12" text-anchor="start"/><g data-paper-data="{&quot;index&quot;:null}" fill="none" fill-rule="nonzero" stroke="none" stroke-width="1" font-family="sans-serif" font-weight="normal" font-size="12" text-anchor="start"/></g></g><path d="M214.19821,173.04209c0,0 -0.84382,-1.78756 -1.24964,-4.5044c-1.24535,-8.33711 -6.77201,-54.60576 -6.77201,-54.60576l46.66564,34.14998c0,0 -16.63449,-6.58598 -24.13719,-2.07841c-2.90295,1.74407 -9.65452,8.55182 -11.65179,12.85061c-2.81806,6.06541 -2.85499,14.18798 -2.85499,14.18798z" fill="url(#color-1)" fill-rule="nonzero" stroke="#66ff81" stroke-width="3" stroke-linecap="round"/><path d="M223.28138,157.19501l20.70571,10.9555l-1.77474,5.99273" fill="none" fill-rule="nonzero" stroke="#66ff81" stroke-width="5" stroke-linecap="round"/><path d="M248.91083,175.73589l1.89458,-5.95724l18.10749,-12.2804" fill="none" fill-rule="nonzero" stroke="#66ff81" stroke-width="5" stroke-linecap="round"/></g><path d="M222.34889,173.37281l9.65925,5.69134" fill="none" fill-rule="nonzero" stroke="#66ff81" stroke-width="3" stroke-linecap="round"/></g><g stroke-width="1.2"><path d="M244.04391,204.70964l3.09783,25.587c0,0 7.48518,0.40616 7.30717,7.39735c-0.01015,0.39857 -0.11633,2.35546 -3.20857,2.92817c-2.96174,0.54853 -8.86576,-0.27091 -11.02302,-0.58226c-1.00195,-0.14461 -2.52821,-0.77541 -3.50362,-1.85548c-0.98206,-1.08747 -0.87599,-2.66899 -0.87532,-3.55866c0.00026,-0.36236 -2.20382,-28.85474 -2.20382,-28.85474" fill="#44ff00" fill-rule="evenodd" stroke="#44ff00" stroke-linecap="round" stroke-linejoin="round"/><path d="M233.44963,211.54116c0.18243,-7.16484 5.84856,-7.28883 8.80072,-7.22396c1.28371,0.02821 1.11023,-1.88671 2.24626,3.71719c0.25019,1.2342 0.74187,6.30101 1.79326,10.61368c0.71996,2.95314 2.0704,5.56077 2.3227,6.30993c0.59611,1.77009 0.35089,3.3837 0.35089,3.3837l-1.08084,-1.17271c0,0 0.71222,0.81727 0.99744,1.30491c0.88857,1.51912 1.56826,2.66567 1.56826,2.66567c0,0 -7.54937,-0.45291 -10.48972,1.78183c-2.94034,2.23474 -1.48334,6.44096 -1.48334,6.44096c0,0 -5.59332,-0.79845 -6.04156,-3.66509c-0.11051,-0.7067 0.75701,-2.80973 0.75701,-2.80973c0,0 -0.63955,0.11896 -0.66027,-0.37037c-0.01057,-0.24944 0.84641,-3.94981 1.0368,-8.11252c0.25065,-5.4799 -0.14392,-11.83115 -0.11764,-12.86348z" fill="url(#color-2)" fill-rule="nonzero" stroke="url(#color-3)" stroke-linecap="butt" stroke-linejoin="miter"/></g><path d="M223.85265,206.45469c-0.01044,-0.21032 1.27042,0.40976 4.17279,0.48142c3.82897,0.09455 9.69292,-0.32845 11.34183,-0.54487c4.27589,-0.56122 4.99947,-2.05501 5.02715,-1.49749c0.10244,2.06313 -2.31614,5.88478 -7.20772,6.09439c-2.14962,0.09212 -6.54637,0.783 -9.03617,0.05663c-3.17587,-0.92652 -4.24045,-3.43363 -4.29788,-4.5901z" fill="#004fd9" fill-rule="nonzero" stroke="url(#color-4)" stroke-width="1.2" stroke-linecap="butt" stroke-linejoin="miter"/><g fill-rule="nonzero" stroke-linecap="butt" stroke-linejoin="miter"><g fill="none" stroke="none" stroke-width="1" font-family="sans-serif" font-weight="normal" font-size="12" text-anchor="start"/><path d="M223.33669,205.11287c0,0 9.1879,1.29877 13.41002,1.28066c4.2221,-0.01811 7.70056,-1.3712 7.70056,-1.3712c0,0 0.03324,2.0195 -1.84968,3.98496c-1.45749,1.52139 -4.25861,3.09744 -7.87914,3.13088c-3.29839,0.03046 -6.97824,-0.61325 -8.79974,-1.93417c-2.76086,-2.00212 -2.582,-5.09115 -2.582,-5.09115z" fill="url(#color-5)" stroke="url(#color-6)" stroke-width="1.2"/></g><g stroke-width="1.2"><path d="M233.48675,210.23148c0,0 -3.58607,29.76535 -4.24046,29.8636c-1.87792,0.28193 -12.16905,-2.24266 -12.16905,-2.24266l6.61511,-29.92631" data-paper-data="{&quot;index&quot;:null}" fill="#ffab19" fill-rule="evenodd" stroke="#001026" stroke-linecap="round" stroke-linejoin="round"/><path d="M235.07161,209.75159c0,0 -0.83772,6.29426 -1.08515,9.63162c-0.23732,3.20103 -0.37037,10.00064 -0.37037,10.00064c0,0 1.00597,4.94077 0.02246,6.15917c-0.45552,0.56432 -0.81447,-2.78947 -0.81447,-2.78947c0,0 0.40071,3.7809 0.44017,4.11415c0.27529,2.32517 -0.98106,5.37857 -4.27324,5.66866c-3.61461,0.31849 -9.6071,0.67822 -12.69627,-1.16136c-1.31439,-0.78271 -3.09481,-3.08675 -2.61562,-5.54117c0.54039,-2.76795 3.44243,-5.66769 3.44243,-5.66769l-2.66662,3.16086c0,0 -0.0278,-1.57827 0.40609,-2.73602c0.48726,-1.30015 2.37602,-4.68731 2.37602,-4.68731l5.72563,-19.0624" data-paper-data="{&quot;index&quot;:null}" fill="url(#color-7)" fill-rule="evenodd" stroke="url(#color-8)" stroke-linecap="round" stroke-linejoin="round"/><path d="M231.72337,238.23932c-0.0906,1.67131 -0.82971,3.61313 -2.43396,4.62145c-1.6102,1.01206 -11.28752,0.61099 -12.78358,-0.62589c-1.42076,-1.17462 -1.9995,-3.34566 -1.91107,-4.97684c0.18155,-3.34881 4.16308,-5.84391 8.89303,-5.57293c4.72992,0.27097 8.41713,3.20539 8.23556,6.55422z" fill="#44ff00" fill-rule="nonzero" stroke="#44ff00" stroke-linecap="butt" stroke-linejoin="miter"/></g></g></g></svg>