<svg version="1.1" xmlns="http://www.w3.org/2000/svg" xmlns:xlink="http://www.w3.org/1999/xlink" width="72.44728" height="132.01284" viewBox="0,0,72.44728,132.01284"><defs><linearGradient x1="208.0467" y1="146.38504" x2="262.06923" y2="146.99338" gradientUnits="userSpaceOnUse" id="color-1"><stop offset="0" stop-color="#66ff81" stop-opacity="0"/><stop offset="1" stop-color="#66ff81"/></linearGradient><linearGradient x1="233.54649" y1="220.85382" x2="251.15123" y2="220.85382" gradientUnits="userSpaceOnUse" id="color-2"><stop offset="0" stop-color="#2a801c"/><stop offset="1" stop-color="#62f67a"/></linearGradient><linearGradient x1="233.54649" y1="220.85382" x2="251.15123" y2="220.85382" gradientUnits="userSpaceOnUse" id="color-3"><stop offset="0" stop-color="#2a801c"/><stop offset="1" stop-color="#62f67a"/></linearGradient><linearGradient x1="230.14791" y1="207.17457" x2="249.9857" y2="207.17457" gradientUnits="userSpaceOnUse" id="color-4"><stop offset="0" stop-color="#2a801c"/><stop offset="1" stop-color="#62f67a"/></linearGradient><linearGradient x1="230.14791" y1="207.17457" x2="249.9857" y2="207.17457" gradientUnits="userSpaceOnUse" id="color-5"><stop offset="0" stop-color="#2a801c"/><stop offset="1" stop-color="#62f67a"/></linearGradient><linearGradient x1="215.80586" y1="224.45475" x2="240.42296" y2="224.45475" gradientUnits="userSpaceOnUse" id="color-6"><stop offset="0" stop-color="#2a801c"/><stop offset="1" stop-color="#62f67a"/></linearGradient><linearGradient x1="215.80586" y1="224.45475" x2="240.42296" y2="224.45475" gradientUnits="userSpaceOnUse" id="color-7"><stop offset="0" stop-color="#2a801c"/><stop offset="1" stop-color="#62f67a"/></linearGradient></defs><g transform="translate(-204.53114,-111.78998)"><g data-paper-data="{&quot;isPaintingLayer&quot;:true}" stroke-miterlimit="10" stroke-dasharray="" stroke-dashoffset="0" style="mix-blend-mode: normal"><path d="M243.68076,191.45392l-2.65577,12.96524" fill="none" fill-rule="nonzero" stroke="#66ff81" stroke-width="7" stroke-linecap="round" stroke-linejoin="miter"/><path d="M248.80811,191.66203l21.53554,1.56066" fill="none" fill-rule="nonzero" stroke="#66ff81" stroke-width="7" stroke-linecap="round" stroke-linejoin="miter"/><path d="M241.4539,190.16967l-15.32041,11.87133" fill="none" fill-rule="nonzero" stroke="#66ff81" stroke-width="7" stroke-linecap="round" stroke-linejoin="miter"/><g stroke-linejoin="miter"><g data-paper-data="{&quot;index&quot;:null}" stroke-linecap="butt"><path d="M272.42755,170.60648c-2.78672,13.15918 -16.19395,21.46596 -29.9459,18.5537c-13.75194,-2.91227 -22.641,-15.94072 -19.85426,-29.0999c2.78672,-13.15918 16.19395,-21.46596 29.9459,-18.55369c13.75194,2.91227 22.641,15.94072 19.85426,29.0999z" fill="none" fill-rule="nonzero" stroke="#66ff81" stroke-width="4.5"/><g><g fill-rule="nonzero"><path d="M236.03804,146.82388l-0.00953,-0.01029" data-paper-data="{&quot;index&quot;:null}" fill="#ffab19" stroke="#000000" stroke-width="5"/><g data-paper-data="{&quot;index&quot;:null}" fill="none" stroke="none" stroke-width="1" font-family="sans-serif" font-weight="normal" font-size="12" text-anchor="start"/></g><path d="M236.03804,146.82388l-0.00953,-0.01029" data-paper-data="{&quot;index&quot;:null}" fill="#ffab19" fill-rule="nonzero" stroke="#000000" stroke-width="5"/><path d="M246.98929,166.46949" fill="#001026" fill-rule="evenodd" stroke="#000000" stroke-width="5"/><g data-paper-data="{&quot;index&quot;:null}" fill="none" fill-rule="nonzero" stroke="none" stroke-width="1" font-family="sans-serif" font-weight="normal" font-size="12" text-anchor="start"/><g data-paper-data="{&quot;index&quot;:null}" fill="none" fill-rule="nonzero" stroke="none" stroke-width="1" font-family="sans-serif" font-weight="normal" font-size="12" text-anchor="start"/></g></g><path d="M222.117,172.43413c0,0 -1.05923,-1.66897 -1.79923,-4.3144c-2.27084,-8.11798 -13.49938,-53.34244 -13.49938,-53.34244l50.54458,28.0918c0,0 -17.32349,-4.46971 -24.20847,0.93451c-2.66395,2.09101 -8.51804,9.68434 -9.96612,14.19785c-2.04318,6.36836 -1.07134,14.43267 -1.07134,14.43267z" fill="url(#color-1)" fill-rule="nonzero" stroke="#66ff81" stroke-width="3" stroke-linecap="round"/><path d="M229.16233,155.58191l21.90571,8.29994l-1.01696,6.16671" fill="none" fill-rule="nonzero" stroke="#66ff81" stroke-width="5" stroke-linecap="round"/><path d="M256.89548,170.79722l1.14028,-6.14638l16.44266,-14.43358" fill="none" fill-rule="nonzero" stroke="#66ff81" stroke-width="5" stroke-linecap="round"/></g><path d="M245.90144,184.82039c0,0.12385 -18.51768,-0.90238 -18.51768,-1.94923c0,-4.26126 7.92752,-9.82737 11.69538,-9.82737c3.76785,0 6.8223,7.51533 6.8223,11.7766z" fill="#ff0000" fill-rule="nonzero" stroke="#66ff81" stroke-width="3" stroke-linecap="butt" stroke-linejoin="miter"/><g stroke-width="1.2"><path d="M249.66213,203.03876l-1.45655,26.69063c0,0 6.92354,0.28267 5.56854,7.59484c-0.07726,0.41687 -0.50916,2.46467 -3.49529,3.12203c-2.8601,0.62961 -8.23625,-0.1151 -10.19861,-0.39969c-0.91142,-0.13218 -2.22998,-0.7627 -2.95756,-1.87333c-0.73254,-1.11825 -0.36454,-2.77362 -0.21264,-3.70372c0.06186,-0.37883 2.84734,-30.12376 2.84734,-30.12376" fill="#44ff00" fill-rule="evenodd" stroke="#44ff00" stroke-linecap="round" stroke-linejoin="round"/><path d="M238.60348,210.38152c1.38865,-7.49378 6.70299,-7.73086 9.44984,-7.71902c1.19443,0.00515 1.35796,-1.99347 1.46641,3.84346c0.02388,1.28552 -0.37831,6.57318 -0.12938,11.06183c0.17046,3.07365 0.98865,5.77413 1.09698,6.55254c0.25591,1.8392 -0.24753,3.53076 -0.24753,3.53076l-0.81032,-1.20549c0,0 0.5264,0.84089 0.70993,1.34527c0.5718,1.57128 1.01182,2.75703 1.01182,2.75703c0,0 -6.97555,-0.33032 -10.10237,2.06168c-3.12681,2.39201 -2.48087,6.7617 -2.48087,6.7617c0,0 -5.08948,-0.72867 -5.02081,-3.71704c0.01692,-0.73671 1.18492,-2.95173 1.18492,-2.95173c0,0 -0.61769,0.1365 -0.55384,-0.37467c0.03254,-0.26057 1.46229,-4.1453 2.34794,-8.50072c1.16589,-5.73359 1.87718,-12.36589 2.07726,-13.44561z" fill="url(#color-2)" fill-rule="nonzero" stroke="url(#color-3)" stroke-linecap="butt" stroke-linejoin="miter"/></g><path d="M230.50284,205.24594c0.02601,-0.21968 1.11714,0.40429 3.81632,0.42417c3.56091,0.02624 9.1109,-0.52716 10.68809,-0.78469c4.08992,-0.66779 5.01988,-2.24317 4.95094,-1.66085c-0.25509,2.15491 -3.1643,6.19603 -7.76961,6.50792c-2.02382,0.13706 -6.2487,0.9427 -8.45115,0.23055c-2.80933,-0.90838 -3.37757,-3.50921 -3.23459,-4.71713z" fill="#004fd9" fill-rule="nonzero" stroke="#001026" stroke-width="1.2" stroke-linecap="butt" stroke-linejoin="miter"/><g fill-rule="nonzero" stroke-linecap="butt" stroke-linejoin="miter"><g fill="none" stroke="none" stroke-width="1" font-family="sans-serif" font-weight="normal" font-size="12" text-anchor="start"/><path d="M230.24899,203.85295c0,0 8.36244,1.18355 12.30977,1.08456c3.94733,-0.09899 7.42694,-1.57951 7.42694,-1.57951c0,0 -0.31232,2.1106 -2.40551,4.20106c-1.62025,1.61815 -4.50501,3.31891 -7.89296,3.42252c-3.08651,0.09439 -6.41474,-0.50879 -7.89178,-1.85517c-2.23876,-2.04072 -1.54645,-5.27347 -1.54645,-5.27347z" fill="url(#color-4)" stroke="url(#color-5)" stroke-width="1.2"/></g><g stroke-width="1.2"><path d="M238.86082,209.01163c0,0 -8.41104,31.18554 -9.03907,31.30066c-1.80228,0.33035 -10.98691,-2.11379 -10.98691,-2.11379l11.26811,-31.41124" data-paper-data="{&quot;index&quot;:null}" fill="#ffab19" fill-rule="evenodd" stroke="#001026" stroke-linecap="round" stroke-linejoin="round"/><path d="M240.42296,208.47991c0,0 -1.85279,6.59609 -2.65139,10.08975c-0.76596,3.35095 -2.04639,10.46197 -2.04639,10.46197c0,0 0.0997,5.14615 -1.02625,6.43854c-0.52149,0.59859 -1.35107,-2.42319 -1.35107,-2.42319c0,0 0.79595,3.4675 0.77615,3.81514c-0.13817,2.42558 -1.83101,5.64152 -4.95585,6.00721c-3.43089,0.4015 -9.09018,0.8912 -11.66328,-0.97337c-2.32949,-1.68802 -1.77961,-5.63658 -1.165,-7.26585c0.4316,-1.14414 2.27034,-1.79317 2.8502,-3.20078c0.38557,-0.93597 -3.13869,3.35416 -2.42425,2.10233c0.81731,-1.43209 4.2499,-7.82771 4.2499,-7.82771l8.58999,-20.03695" data-paper-data="{&quot;index&quot;:null}" fill="url(#color-6)" fill-rule="evenodd" stroke="url(#color-7)" stroke-linecap="round" stroke-linejoin="round"/><path d="M232.45135,238.32527c-0.36882,1.74896 -1.38944,3.793 -3.05956,4.87755c-1.67631,1.08857 -10.64859,0.85279 -11.83589,-0.41192c-1.12754,-1.20104 -1.29906,-3.45973 -0.9391,-5.16669c0.73899,-3.50439 4.88275,-6.18832 9.25535,-5.99473c4.37258,0.19358 7.3182,3.1914 6.57918,6.6958z" fill="#44ff00" fill-rule="nonzero" stroke="#44ff00" stroke-linecap="butt" stroke-linejoin="miter"/></g></g></g></svg>