<svg version="1.1" xmlns="http://www.w3.org/2000/svg" xmlns:xlink="http://www.w3.org/1999/xlink" width="72.44741" height="109.48465" viewBox="0,0,72.44741,109.48465"><defs><linearGradient x1="200.38699" y1="162.10214" x2="242.87683" y2="162.10214" gradientUnits="userSpaceOnUse" id="color-1"><stop offset="0" stop-color="#000000"/><stop offset="1" stop-color="#000000" stop-opacity="0"/></linearGradient><linearGradient x1="259.7844" y1="149.3777" x2="259.7844" y2="176.60859" gradientUnits="userSpaceOnUse" id="color-2"><stop offset="0" stop-color="#2a0000" stop-opacity="0"/><stop offset="1" stop-color="#2a0000"/></linearGradient><linearGradient x1="234.75342" y1="148.92436" x2="234.75342" y2="176.86205" gradientUnits="userSpaceOnUse" id="color-3"><stop offset="0" stop-color="#2a0000" stop-opacity="0"/><stop offset="1" stop-color="#2a0000"/></linearGradient><linearGradient x1="200.89479" y1="184.01106" x2="220.22176" y2="184.01106" gradientUnits="userSpaceOnUse" id="color-4"><stop offset="0" stop-color="#000000"/><stop offset="1" stop-color="#000000" stop-opacity="0"/></linearGradient></defs><g transform="translate(-198.88699,-133.97612)"><g data-paper-data="{&quot;isPaintingLayer&quot;:true}" stroke-miterlimit="10" stroke-dasharray="" stroke-dashoffset="0" style="mix-blend-mode: normal"><g stroke-width="1.2"><path d="M244.04391,204.70964l3.09783,25.587c0,0 7.48518,0.40616 7.30717,7.39735c-0.01015,0.39857 -0.11633,2.35546 -3.20857,2.92817c-2.96174,0.54853 -8.86576,-0.27091 -11.02302,-0.58226c-1.00195,-0.14461 -2.52821,-0.77541 -3.50362,-1.85548c-0.98206,-1.08747 -0.87599,-2.66899 -0.87532,-3.55866c0.00026,-0.36236 -2.20382,-28.85474 -2.20382,-28.85474" fill="#784200" fill-rule="evenodd" stroke="#4d2a00" stroke-linecap="round" stroke-linejoin="round"/><path d="M233.44963,211.54116c0.18243,-7.16484 5.84856,-7.28883 8.80072,-7.22396c1.28371,0.02821 1.11023,-1.88671 2.24626,3.71719c0.25019,1.2342 0.74187,6.30101 1.79326,10.61368c0.71996,2.95314 2.0704,5.56077 2.3227,6.30993c0.59611,1.77009 0.35089,3.3837 0.35089,3.3837l-1.08084,-1.17271c0,0 0.71222,0.81727 0.99744,1.30491c0.88857,1.51912 1.56826,2.66567 1.56826,2.66567c0,0 -7.54937,-0.45291 -10.48972,1.78183c-2.94034,2.23474 -1.48334,6.44096 -1.48334,6.44096c0,0 -5.59332,-0.79845 -6.04156,-3.66509c-0.11051,-0.7067 0.75701,-2.80973 0.75701,-2.80973c0,0 -0.63955,0.11896 -0.66027,-0.37037c-0.01057,-0.24944 0.84641,-3.94981 1.0368,-8.11252c0.25065,-5.4799 -0.14392,-11.83115 -0.11764,-12.86348z" fill="#ff8d00" fill-rule="nonzero" stroke="#c46c00" stroke-linecap="butt" stroke-linejoin="miter"/></g><path d="M223.85265,206.45469c-0.01044,-0.21032 1.27042,0.40976 4.17279,0.48142c3.82897,0.09455 9.69292,-0.32845 11.34183,-0.54487c4.27589,-0.56122 4.99947,-2.05501 5.02715,-1.49749c0.10244,2.06313 -2.31614,5.88478 -7.20772,6.09439c-2.14962,0.09212 -6.54637,0.783 -9.03617,0.05663c-3.17587,-0.92652 -4.24045,-3.43363 -4.29788,-4.5901z" fill="#004fd9" fill-rule="nonzero" stroke="#001026" stroke-width="1.2" stroke-linecap="butt" stroke-linejoin="miter"/><g fill-rule="nonzero" stroke-linecap="butt" stroke-linejoin="miter"><g fill="none" stroke="none" stroke-width="1" font-family="sans-serif" font-weight="normal" font-size="12" text-anchor="start"/><path d="M223.33669,205.11287c0,0 9.1879,1.29877 13.41002,1.28066c4.2221,-0.01811 7.70056,-1.3712 7.70056,-1.3712c0,0 0.03324,2.0195 -1.84968,3.98496c-1.45749,1.52139 -4.25861,3.09744 -7.87914,3.13088c-3.29839,0.03046 -6.97824,-0.61325 -8.79974,-1.93417c-2.76086,-2.00212 -2.582,-5.09115 -2.582,-5.09115z" fill="#ff8d00" stroke="#c46c00" stroke-width="1.2"/></g><g stroke-width="1.2"><path d="M233.48675,210.23148c0,0 -3.58607,29.76535 -4.24046,29.8636c-1.87792,0.28193 -12.16905,-2.24266 -12.16905,-2.24266l6.61511,-29.92631" data-paper-data="{&quot;index&quot;:null}" fill="#ffab19" fill-rule="evenodd" stroke="#001026" stroke-linecap="round" stroke-linejoin="round"/><path d="M235.07161,209.75159c0,0 -0.83772,6.29426 -1.08515,9.63162c-0.23732,3.20103 -0.37037,10.00064 -0.37037,10.00064c0,0 1.00597,4.94077 0.02246,6.15917c-0.45552,0.56432 -0.81447,-2.78947 -0.81447,-2.78947c0,0 0.40071,3.7809 0.44017,4.11415c0.27529,2.32517 -0.98106,5.37857 -4.27324,5.66866c-3.61461,0.31849 -9.6071,0.67822 -12.69627,-1.16136c-1.31439,-0.78271 -3.09481,-3.08675 -2.61562,-5.54117c0.54039,-2.76795 3.44243,-5.66769 3.44243,-5.66769l-2.66662,3.16086c0,0 -0.0278,-1.57827 0.40609,-2.73602c0.48726,-1.30015 2.37602,-4.68731 2.37602,-4.68731l5.72563,-19.0624" data-paper-data="{&quot;index&quot;:null}" fill="#ff8d00" fill-rule="evenodd" stroke="#c46c00" stroke-linecap="round" stroke-linejoin="round"/><path d="M231.72337,238.23932c-0.0906,1.67131 -0.82971,3.61313 -2.43396,4.62145c-1.6102,1.01206 -11.28752,0.61099 -12.78358,-0.62589c-1.42076,-1.17462 -1.9995,-3.34566 -1.91107,-4.97684c0.18155,-3.34881 4.16308,-5.84391 8.89303,-5.57293c4.72992,0.27097 8.41713,3.20539 8.23556,6.55422z" fill="#784200" fill-rule="nonzero" stroke="#4d2a00" stroke-linecap="butt" stroke-linejoin="miter"/></g><path d="M234.20978,195.76032l6.14304,-6.09754c0,0 3.05643,5.33948 5.08873,7.00098c1.95916,1.60169 6.89369,2.79516 6.89369,2.79516l-3.81889,6.01739c0,0 -2.42292,-0.2029 -4.09418,-1.3379c-2.63952,-1.79257 -10.2124,-8.3781 -10.2124,-8.3781z" fill="#000000" fill-rule="nonzero" stroke="#000000" stroke-width="0.5" stroke-linecap="butt" stroke-linejoin="miter"/><g fill-rule="nonzero" stroke-linecap="butt" stroke-linejoin="miter"><g data-paper-data="{&quot;index&quot;:null}" stroke="none" stroke-width="1"><path d="M255.40398,193.08403c-0.19445,-0.08452 -0.22259,-0.23008 -0.22523,-0.40674c0.01817,-0.27905 0.09215,-0.54903 0.12901,-0.82505c-0.04548,-0.06027 -0.09094,-0.12055 -0.13986,-0.16374c-0.99521,-0.97262 -1.40671,-2.16754 -1.60773,-3.45161c-0.04117,-0.27106 -0.10095,-0.54521 -0.04553,-0.81817c0.01042,-0.05118 0.00563,-0.12246 -0.02472,-0.16265c-0.16675,-0.221 -0.12174,-0.44281 -0.09187,-0.68472c0.02292,-0.20776 0.0831,-0.40949 0.12466,-0.61423c0.02424,-0.11942 0.08572,-0.23281 0.21477,-0.29998c0.12904,-0.06712 0.21261,-0.19455 0.29268,-0.30489c0.38751,-0.67723 0.89497,-1.28209 1.50375,-1.81759c0.34857,-0.29581 0.73913,-0.51431 1.14832,-0.72974c1.20551,-0.63234 2.50935,-0.89619 3.87299,-0.88595c0.61318,0.01161 1.22767,0.11153 1.82829,0.27969c0.45511,0.12689 0.84877,0.36718 1.22035,0.62147c1.18229,0.80917 1.94149,1.902 2.37288,3.1883c0.08531,0.24301 0.10788,0.51103 0.13042,0.77908c0.02125,0.17969 0.06457,0.34538 0.22998,0.47805c0.15024,0.11258 0.19358,0.27823 0.1962,0.45489c-0.01817,0.27905 -0.07358,0.55204 -0.12901,0.82504c-0.01732,0.08533 -0.06841,0.14753 -0.11953,0.20971c-0.21605,0.21161 -0.32387,0.45846 -0.39787,0.72845c-0.13635,0.5771 -0.452,1.08976 -0.74903,1.60545c-0.11606,0.19264 -0.25068,0.38224 -0.4191,0.54874c-0.5343,0.54761 -1.08033,1.05809 -1.77314,1.43894c-0.05194,0.25592 -0.12598,0.52589 -0.18135,0.79889c-0.02078,0.10239 -0.04502,0.22181 -0.1706,0.27187c-0.10694,0.05309 -0.10913,0.15852 -0.12988,0.26087c-0.15711,0.67945 -0.29564,1.36193 -0.45276,2.04138c-0.32684,1.5155 -0.65706,3.04806 -1.02112,4.5575c-0.35714,1.47532 -0.65835,2.95972 -0.97826,4.44109c-0.04847,0.23888 -0.13075,0.45461 -0.1792,0.69347c-0.23546,1.16022 -0.47095,2.32045 -0.72502,3.47764c-0.04155,0.20473 -0.04588,0.41554 -0.1957,0.58503c-0.0511,0.06222 -0.04979,0.15051 -0.06712,0.23583c-0.17311,0.85313 -0.36835,1.72026 -0.54149,2.57337c-0.00693,0.03412 -0.01734,0.0853 -0.02424,0.11942c-0.03677,0.27603 -0.19483,0.39133 -0.47977,0.46837c-0.95481,0.25011 -1.88799,0.20411 -2.79957,-0.13798c-0.23168,-0.09056 -0.45642,-0.21523 -0.65564,-0.37099c-0.15025,-0.11258 -0.19705,-0.26117 -0.18106,-0.4348c0.04804,-0.52095 0.07743,-1.04492 0.12892,-1.58294c0.03894,-0.38144 0.11858,-0.77387 0.10165,-1.16437c-0.03861,-0.85228 0.14968,-1.68531 0.16689,-2.52849c0.01899,-0.47278 -0.0027,-0.93459 0.03493,-1.40436c0.04456,-0.50387 0.04842,-0.99677 0.07086,-1.48659c0.04627,-0.89137 0.13323,-1.79374 0.16085,-2.68813c0.00857,-1.17947 0.09159,-2.34691 0.17463,-3.51427c0.02379,-0.40154 0.04753,-0.80299 0.07133,-1.20453c0.05015,-0.62637 0.10382,-1.26974 0.154,-1.89607c0.032,-0.34731 0.02333,-0.68361 0.05531,-1.03089c0.01686,-0.36743 0.08264,-0.69155 0.12159,-1.07301zM255.91796,192.92086c0.20267,0.13872 0.41226,0.24332 0.65085,0.29976c0.45299,0.23228 0.94881,0.34817 1.44465,0.46404c0.62273,0.15414 1.2779,0.24306 1.91448,0.32894c0.72967,0.10103 1.43811,0.02236 2.16866,-0.07033c0.08141,-0.02202 0.16281,-0.04402 0.28491,-0.07704c0.02772,-0.13648 0.05537,-0.27299 0.08308,-0.40947c0.00693,-0.03412 -0.00476,-0.07128 -0.013,-0.12548c-0.13034,-0.02121 -0.26415,-0.02534 -0.40143,-0.01242c-0.23384,0.01486 -0.44212,-0.00142 -0.67594,0.01342c-0.57939,0.01152 -1.14629,-0.1335 -1.71528,-0.17316c-0.3014,-0.03136 -0.60969,-0.02868 -0.90416,-0.09417c-0.64135,-0.15716 -1.29999,-0.22903 -1.92744,-0.45444c-0.16067,-0.06139 -0.33994,-0.12575 -0.50062,-0.18717c-0.0537,-0.11451 -0.20961,-0.10457 -0.29579,-0.15386c-0.10132,-0.06936 -0.20269,-0.13872 -0.41095,-0.15494c0.08531,0.24301 -0.01555,0.45574 0.01736,0.67258c0.08965,0.03222 0.14335,0.14667 0.28063,0.13375zM256.54501,193.62209c-0.39711,-0.22323 -0.50536,-0.25843 -0.75437,-0.26369c-0.02292,0.20776 -0.04238,0.3985 -0.06533,0.60627c-0.02424,0.11942 0.03289,0.21686 0.13427,0.28623c0.06759,0.04626 0.16066,0.06137 0.22822,0.10761c0.25507,0.16489 0.56125,0.26752 0.86263,0.29891c0.11306,0.10648 0.26197,0.13075 0.41097,0.15497c0.83445,0.15333 1.64688,0.32067 2.49865,0.38871c0.37935,0.02645 0.76217,0.03584 1.12979,0.0251c0.2932,-0.02283 0.60496,-0.04262 0.86996,-0.21104c0.04501,-0.22183 0.08999,-0.44361 0.13503,-0.66544c-0.15587,0.00988 -0.29319,0.02281 -0.41179,0.03876c-0.54908,0.05168 -1.09123,0.06929 -1.61955,0.01862c-0.68072,-0.05784 -1.34416,-0.20098 -2.01104,-0.32704c-0.31658,-0.05148 -0.59373,-0.20228 -0.91373,-0.23671c-0.14335,-0.14667 -0.32609,-0.19403 -0.49366,-0.22129zM254.99999,212.98766c0.23991,0.14477 0.49712,0.20424 0.76126,0.22956c0.01514,0.02008 0.04895,0.04321 0.06759,0.04624c0.45036,0.05562 0.90765,0.07711 1.34847,-0.00983c0.25943,-0.04594 0.51531,-0.07482 0.73958,-0.23223c0.19392,-0.95549 0.38779,-1.91094 0.59215,-2.91763c-0.48497,0.11498 -0.94924,0.12767 -1.40993,0.12321c-0.40491,0.00466 -0.76692,-0.1071 -1.16488,-0.13656c-0.14896,-0.02421 -0.27586,-0.06246 -0.42483,-0.08668c-0.20611,-0.12165 -0.43781,-0.2122 -0.71364,-0.27469c-0.10388,0.51188 -0.05186,1.01384 -0.11158,1.49764c-0.04456,0.50388 -0.07049,1.01082 -0.11157,1.49762c0.14334,0.14667 0.28538,0.20506 0.42744,0.26338zM255.23046,209.4825c0.11307,0.10647 0.25855,0.1478 0.40749,0.172c0.13511,0.0925 0.30619,0.10269 0.47028,0.147c0.51794,0.10184 1.05317,0.11839 1.57668,0.09778c0.31176,-0.0198 0.63049,-0.07375 0.92579,-0.20197c0.01387,-0.06825 0.04632,-0.13346 0.06014,-0.20172c0.16971,-0.83608 0.33591,-1.655 0.52418,-2.48803c0.19867,-0.88419 0.39389,-1.75134 0.59258,-2.63554c0.28177,-1.29371 0.57876,-2.56728 0.86052,-3.86099c0.33158,-1.44422 0.60381,-2.88047 0.97265,-4.31863c0.06711,-0.23583 0.10038,-0.4948 0.15236,-0.75074c-0.21866,0.03495 -0.42563,0.10704 -0.63739,0.10784c-0.68289,0.04758 -1.36362,-0.01026 -2.03743,-0.10219c-0.59584,-0.0969 -1.18825,-0.21087 -1.78067,-0.32485c-0.23516,-0.07349 -0.45512,-0.12689 -0.69028,-0.20038c-0.12817,-0.1266 -0.3027,-0.11973 -0.44475,-0.17807c-0.16067,-0.06139 -0.29577,-0.15385 -0.48545,-0.16707c-0.07187,0.16457 -0.06233,0.30714 -0.06795,0.42957c0.00053,1.04 -0.15138,2.0728 -0.20671,3.10368c-0.03847,0.66352 -0.07698,1.32702 -0.09679,1.99354c-0.04627,0.89137 -0.07043,1.76868 -0.11321,2.64298c-0.03022,0.7177 -0.06049,1.43543 -0.10937,2.15011c-0.04066,0.76891 -0.09646,1.5177 -0.1557,2.2836c-0.0454,0.69762 -0.09425,1.41231 -0.1245,2.13002c0.1641,0.0443 0.25507,0.16485 0.40749,0.17202zM266.08978,187.63069c-0.44079,0.08693 -0.84573,0.09159 -1.25405,0.11332c-0.42698,0.01869 -0.83877,0.0575 -1.26227,0.05911c-0.40491,0.00465 -0.82151,-0.02785 -1.22292,-0.04028c-0.42007,-0.01544 -0.8401,-0.03086 -1.27528,-0.06637c-0.39794,-0.02948 -0.81108,-0.07905 -1.20905,-0.10852c-0.4131,-0.04957 -0.81239,-0.16736 -1.23937,-0.14867c-0.37023,-0.16594 -0.79375,-0.16433 -1.18135,-0.24496c-0.4027,-0.10076 -0.83103,-0.17039 -1.23375,-0.27113c-0.38409,-0.09772 -0.78337,-0.21555 -1.16401,-0.33031c-0.39928,-0.11783 -0.76606,-0.30087 -1.17569,-0.36745c-0.12035,0.40344 -0.14459,0.52285 -0.05795,0.8542c0.20611,0.12165 0.41227,0.24332 0.66255,0.33687c0.30617,0.10267 0.61231,0.20534 0.93365,0.32811c0.60886,0.22241 1.20259,0.42468 1.85431,0.53068c0.44691,0.07268 0.89728,0.12828 1.33033,0.26923c0.08965,0.03222 0.20137,0.05036 0.31998,0.03441c0.23383,-0.01487 0.47245,0.0416 0.69589,0.0779c0.81932,0.13325 1.6594,0.16412 2.48435,0.17487c1.08911,0.03611 2.16518,-0.05327 3.25164,-0.19388c0.2152,-0.01789 0.43042,-0.03575 0.61051,-0.1651c0.0892,-0.24988 0.12252,-0.50886 0.13246,-0.84208zM258.97909,184.37697c-0.19396,0.19759 -0.31348,0.40729 -0.45159,0.61395c-0.13121,0.17253 -0.19137,0.37426 -0.15844,0.59112c0.03208,0.41059 0.00486,0.82918 -0.0969,1.23564c-0.00693,0.03412 0.00127,0.08834 -0.00218,0.10539c0.08271,0.0663 0.15719,0.0784 0.26071,0.04239c0.02208,-0.01401 0.04763,-0.04513 0.0511,-0.06221c0.15629,-0.48573 0.34981,-0.96536 0.58058,-1.43898c0.03249,-0.06521 0.07186,-0.16456 0.04846,-0.23888c-0.01907,-0.28511 -0.03816,-0.5702 -0.23176,-0.84846zM257.33896,186.77162c0.14934,-0.45159 0.3325,-0.88005 0.53081,-1.28843c0.06491,-0.13043 0.07056,-0.2529 0.04238,-0.39848c-0.05156,-0.21986 -0.14728,-0.41171 -0.23952,-0.6206c-0.02339,-0.07431 -0.0433,-0.16565 -0.16197,-0.14971c-0.15198,0.27492 -0.3191,0.52977 -0.43384,0.81071c0.17113,0.76809 0.17111,0.76807 0.02353,1.59007c0.04546,0.06028 0.11651,0.08944 0.23861,0.05643zM261.5768,189.20568c-0.13682,0.29501 -0.25501,0.59307 -0.37321,0.8911c-0.03249,0.06522 -0.06494,0.13044 -0.06017,0.2017c0.07492,0.29417 0.13129,0.58535 0.3097,0.84351c0.265,-0.1684 0.37279,-0.41525 0.53301,-0.63597c0.0801,-0.11032 0.08224,-0.21575 0.05062,-0.34427c-0.09355,-0.29721 -0.14988,-0.58841 -0.18408,-0.89355c0.00347,-0.01707 -0.03028,-0.04019 -0.06061,-0.08034c-0.05932,0.00797 -0.13732,0.01293 -0.21522,0.01788zM262.71352,184.93137c-0.29748,0.23363 -0.46115,0.4714 -0.64342,0.70613c-0.05803,0.09632 -0.0567,0.18464 -0.05539,0.27298c0.02864,0.42766 0.00134,0.84626 -0.10383,1.26978c-0.0104,0.05118 -0.00218,0.10539 -0.01254,0.15657c0.20137,0.05038 0.24207,0.03938 0.26976,-0.09712c0.09003,-0.44365 0.26972,-0.85504 0.53555,-1.21718c0.16021,-0.2207 0.18315,-0.42848 0.13506,-0.66544c-0.05024,-0.13157 -0.08531,-0.24303 -0.12517,-0.42575zM259.53272,187.146c0.0931,0.01512 0.12556,-0.05013 0.13943,-0.11837c0.09697,-0.47772 0.3394,-0.91418 0.58189,-1.35065c0.18789,-0.35719 0.19306,-0.76174 -0.01007,-1.18252c-0.1615,0.13236 -0.21476,0.29997 -0.33902,0.43838c-0.252,0.2939 -0.31778,0.61807 -0.31257,0.97144c-0.00169,0.38747 0.01521,0.77801 -0.09818,1.14731c0.00826,0.0542 0.02338,0.07433 0.03855,0.09441zM261.40671,184.73648c-0.15329,0.18657 -0.27411,0.30792 -0.37627,0.43231c-0.17534,0.20063 -0.23553,0.40234 -0.20954,0.65331c0.04593,0.34235 0.01393,0.68965 -0.03669,1.0339c-0.00563,0.12248 -0.03333,0.25896 -0.05756,0.37838c0.08965,0.03222 0.11863,-0.01593 0.12556,-0.05007c0.1935,-0.47968 0.40565,-0.95628 0.68885,-1.40375c0.03593,-0.08228 0.06839,-0.1475 0.06709,-0.23583c-0.04462,-0.25402 -0.07062,-0.50499 -0.20142,-0.80825zM262.78453,189.22584c0.0087,0.33631 -0.10951,0.63432 -0.20909,0.9354c-0.01731,0.08531 -0.08703,0.14448 -0.0671,0.23583c0.02817,0.14561 0.19621,0.45492 0.36987,0.64181c0.165,-0.14943 0.24376,-0.34811 0.35637,-0.5237c0.08703,-0.14449 0.09611,-0.284 0.03071,-0.43563c-0.10046,-0.26308 -0.16373,-0.52014 -0.16418,-0.80223c0.00348,-0.01707 -0.02687,-0.05723 -0.04201,-0.07731c-0.07104,-0.02918 -0.14551,-0.04131 -0.27454,0.02587zM256.18778,189.3163c0.06326,0.25702 -0.01426,0.54408 0.10832,0.79314c0.1338,0.00414 0.207,-0.07208 0.29533,-0.12823c0.15805,-0.11532 0.32777,-0.19343 0.45897,-0.36598c-0.04937,-0.32529 0.05709,-0.66048 0.02978,-0.99979c-0.08271,-0.0663 -0.1758,-0.08148 -0.27585,-0.06247c-0.17059,0.27191 -0.37496,0.52068 -0.61657,0.76338zM259.32982,188.99891c-0.07187,0.16457 -0.14374,0.32912 -0.26108,0.4334c-0.28231,0.25369 -0.32254,0.54682 -0.23244,0.86108c0.03506,0.11144 0.01428,0.21383 0.10523,0.3344c0.22085,-0.14037 0.38929,-0.30683 0.55768,-0.47335c0.04764,-0.04513 0.06146,-0.11338 0.06016,-0.2017c-0.02256,-0.26806 -0.02994,-0.516 -0.05246,-0.78403c0.01042,-0.05118 -0.01301,-0.1255 -0.17715,-0.16981zM258.15671,188.80815c-0.15066,0.36326 -0.33166,0.68631 -0.62912,0.91995c-0.06624,0.0421 -0.06147,0.11338 -0.07531,0.18162c-0.01254,0.15659 -0.00647,0.31623 0.07409,0.48792c0.30919,-0.19648 0.52525,-0.40813 0.74476,-0.63679c0.07317,-0.07622 0.10913,-0.15849 0.11127,-0.26391c0.0009,-0.19374 0.02031,-0.38447 0.02116,-0.5782c0.00348,-0.01707 -0.02686,-0.05726 -0.04201,-0.07733c-0.05586,-0.00909 -0.11174,-0.01818 -0.20481,-0.03328zM263.95906,185.99758c-0.03987,-0.18272 -0.07622,-0.38254 -0.11608,-0.56529c-0.01514,-0.02008 -0.03032,-0.0402 -0.06062,-0.08035c-0.23601,0.12023 -0.38929,0.30683 -0.50187,0.48238c0.02301,0.55014 0.05293,1.06611 -0.06481,1.64624c0.3161,-0.2306 0.24112,-0.52479 0.34201,-0.7375c0.11127,-0.26391 0.25629,-0.50469 0.40133,-0.74548zM258.80145,183.92507c-0.14465,-0.23502 -0.2521,-0.464 -0.48852,-0.62582c-0.09873,0.1073 -0.20914,0.17749 -0.28576,0.27081c-0.07662,0.0933 -0.17188,0.18353 -0.1961,0.30299c0.02472,0.16262 0.13427,0.28621 0.20314,0.42078c0.06889,0.13455 0.09702,0.28017 0.22866,0.38969c0.18574,-0.25182 0.34942,-0.48954 0.53864,-0.75842zM256.14032,186.61194c0.17835,-0.49974 0.32076,-0.91724 0.46321,-1.33467c0.00693,-0.03412 0.03597,-0.08229 0.00563,-0.12246c-0.09226,-0.20887 -0.14035,-0.44582 -0.35816,-0.60462c-0.12297,0.22675 -0.24247,0.43647 -0.34334,0.64921c0.16242,0.43181 0.20621,0.87952 0.23267,1.41259zM260.16704,190.84472c0.19184,-0.09219 0.26369,-0.25675 0.36589,-0.38112c0.12428,-0.13841 0.19268,-0.28591 0.15627,-0.4857c-0.04116,-0.27106 -0.08232,-0.54215 0.01032,-0.80911c-0.12344,-0.05533 -0.20137,-0.05038 -0.22215,0.052c-0.07054,0.25289 -0.1446,0.52286 -0.30133,0.7265c-0.21476,0.29997 -0.11776,0.58016 -0.009,0.89745zM258.39982,190.16955c-0.30093,0.25069 -0.55077,0.4392 -0.78199,0.6307c-0.02424,0.11942 0.01776,0.19678 0.04117,0.27105c0.04201,0.07733 0.05847,0.18572 0.18187,0.24106c0.23257,-0.10319 0.45335,-0.24352 0.65905,-0.40392c-0.01085,-0.23087 -0.04378,-0.44774 -0.10009,-0.73891zM261.15353,191.48102c-0.11563,-0.28318 -0.21961,-0.52921 -0.32006,-0.79229c-0.17536,0.20062 -0.34727,0.38419 -0.51916,0.56772c0.08531,0.24301 0.13686,0.4629 0.32916,0.65275c0.19874,-0.12629 0.34509,-0.27876 0.51007,-0.42818zM259.80609,183.52441c-0.24422,0.06602 -0.3451,0.27876 -0.49146,0.4312c-0.04764,0.04513 -0.04634,0.13345 -0.01946,0.19071c0.07709,0.18881 0.13902,0.3575 0.21955,0.52923c-0.00347,0.01707 0.03381,0.02311 0.07104,0.02919c0.17885,-0.21766 0.34244,-0.45544 0.5213,-0.67311c-0.05846,-0.18574 -0.17973,-0.34647 -0.30101,-0.50719zM262.54774,184.51666c-0.03641,-0.19978 -0.07623,-0.38252 -0.25681,-0.53529c-0.18013,0.12936 -0.39751,0.25262 -0.53218,0.44223c0.03161,0.12852 0.02601,0.25098 0.07971,0.36545c0.03505,0.11144 -0.01127,0.24493 0.14595,0.32336c0.19398,-0.19758 0.38794,-0.39516 0.56335,-0.59579zM261.69212,191.48049c0.04332,0.16566 0.1936,0.27823 0.34039,0.40785c0.19055,-0.1805 0.40788,-0.30382 0.53087,-0.53054c-0.12127,-0.16074 -0.17628,-0.36353 -0.35341,-0.53335c-0.17885,0.21766 -0.33905,0.43837 -0.51785,0.65604zM263.99441,189.14062c-0.08095,0.30409 -0.09085,0.63736 -0.20909,0.93541c-0.08918,0.24988 0.0135,0.40754 0.20922,0.58039c0.16841,-0.16647 0.24376,-0.34811 0.34116,-0.54377c-0.18667,-0.31233 -0.21401,-0.65168 -0.34133,-0.97201zM255.14606,186.20349c0.07795,-0.00494 0.08831,-0.05613 0.09873,-0.1073c0.06364,-0.21876 0.11212,-0.45765 0.19438,-0.67341c0.14026,-0.31207 -0.01132,-0.51297 -0.21531,-0.74003c-0.06149,0.11341 -0.11601,0.19263 -0.15195,0.27491c-0.09739,0.19567 -0.15412,0.3803 -0.02464,0.59526c0.06888,0.13455 0.07492,0.2942 0.08451,0.43676c-0.03249,0.06522 -0.08702,0.14447 0.01429,0.21382zM255.24814,189.58652c0.10694,-0.05309 0.17668,-0.11227 0.24291,-0.15437c0.2139,-0.1062 0.30095,-0.2507 0.30525,-0.4615c-0.00259,-0.17666 0.05412,-0.36134 0.07011,-0.53498c0.01042,-0.05119 0.0394,-0.09935 -0.08749,-0.13762c-0.14162,0.22372 -0.32041,0.44143 -0.53302,0.63597c-0.04764,0.04513 -0.06492,0.13041 -0.0788,0.19866c0.00953,0.14253 0.02253,0.26807 0.08102,0.4538zM259.81496,191.15758c-0.03985,-0.18272 -0.05762,-0.37948 -0.15684,-0.55426c-0.22429,0.15742 -0.46028,0.27765 -0.63565,0.47825c0.07711,0.18879 0.09832,0.36848 0.28238,0.50419c0.18015,-0.12935 0.37545,-0.23857 0.51007,-0.42819zM260.76921,184.84431c0.22427,-0.15742 0.37756,-0.344 0.49357,-0.53662c-0.07709,-0.18879 -0.13905,-0.35747 -0.27547,-0.5383c-0.16976,0.07816 -0.29055,0.19952 -0.39619,0.34096c0.06671,0.23996 0.11481,0.47692 0.17803,0.73397zM257.99845,191.67293c0.0875,0.13763 0.12602,0.23199 0.2053,0.31537c0.04548,0.06027 0.0944,0.10348 0.14337,0.14669c0.20351,-0.05502 0.39535,-0.14721 0.54171,-0.29966c-0.05846,-0.18574 -0.11696,-0.37149 -0.27895,-0.52123c-0.19874,0.12629 -0.39058,0.21849 -0.6114,0.35882zM254.96869,188.02529c-0.24638,0.17146 -0.42303,0.28369 -0.62526,0.42706c-0.03249,0.06521 -0.03811,0.18765 -0.00301,0.29913c0.01647,0.10841 -0.04501,0.2218 0.0494,0.32529c0.17798,-0.02394 0.30701,-0.09108 0.42437,-0.19537c0.03678,-0.27603 0.08876,-0.53196 0.15454,-0.85612zM258.6174,183.03145c0.07582,0.10047 0.1516,0.20093 0.22735,0.30138c0.07583,0.10047 0.15507,0.18382 0.23084,0.28428c0.16843,-0.16646 0.32649,-0.28178 0.40183,-0.46339c-0.03508,-0.11144 -0.13988,-0.16374 -0.22257,-0.23008c-0.08271,-0.0663 -0.15507,-0.18382 -0.28884,-0.18797c-0.13599,0.1013 -0.26499,0.1684 -0.34857,0.29583zM260.26804,192.14778c-0.11435,-0.19484 -0.16588,-0.41476 -0.36168,-0.58758c-0.15803,0.11532 -0.29747,0.23363 -0.45553,0.34893c0.11434,0.19484 0.19488,0.36659 0.40104,0.48822c0.14765,-0.06412 0.28841,-0.0941 0.41614,-0.24958zM256.84684,184.6471c0.17407,-0.28893 0.32257,-0.54678 0.47105,-0.80461c-0.0537,-0.11451 -0.08877,-0.22597 -0.2122,-0.28127c-0.24293,0.15439 -0.3845,0.37808 -0.54469,0.59879c0.05371,0.11451 0.1074,0.22898 0.18318,0.32943c0.00475,0.07129 0.03854,0.09438 0.10262,0.15768zM257.1337,190.72153c-0.07367,-0.20586 -0.03209,-0.41062 -0.15336,-0.57134c-0.23944,0.13732 -0.45681,0.2606 -0.64737,0.44114c0.10613,0.14065 0.07146,0.31124 0.23691,0.44391c0.20349,-0.05503 0.34643,-0.19044 0.56381,-0.31369zM263.45136,184.32873c-0.15112,0.08118 -0.28707,0.18245 -0.38927,0.30685c0.0702,0.22292 0.12172,0.44279 0.18498,0.69982c0.14979,-0.16949 0.28924,-0.28784 0.47285,-0.43422c-0.07018,-0.22293 -0.12518,-0.42575 -0.26855,-0.57245zM255.26507,189.97703c0.02945,0.23393 0.04725,0.43069 0.20574,0.59748c0.16627,-0.0611 0.31047,-0.10811 0.41268,-0.23251c-0.03292,-0.21685 -0.04725,-0.43065 -0.09187,-0.68468c-0.19184,0.09219 -0.36503,0.18741 -0.52654,0.31976zM261.62656,184.03199c0.17189,-0.18354 0.39752,-0.25264 0.47285,-0.43427c-0.07709,-0.18879 -0.20529,-0.31539 -0.35557,-0.42796c-0.1732,0.09522 -0.34296,0.17335 -0.43692,0.35193c0.10263,0.15769 0.18669,0.31234 0.31963,0.51023zM261.69095,192.15005c-0.10612,-0.14064 -0.17497,-0.27519 -0.32872,-0.3707c-0.16841,0.16647 -0.39751,0.2526 -0.51702,0.46231c0.08749,0.13763 0.18537,0.22404 0.3495,0.26835c0.17667,-0.11227 0.33818,-0.24461 0.4962,-0.35994zM256.05267,184.20067c-0.08402,-0.15468 -0.16326,-0.23801 -0.28323,-0.31047c-0.15805,0.11532 -0.30442,0.26774 -0.34593,0.47248c0.09096,0.12055 0.18187,0.24105 0.26937,0.37869c0.18707,-0.16345 0.24723,-0.36516 0.3598,-0.54074zM264.87546,190.67622c-0.09438,-0.10347 -0.17368,-0.18688 -0.28191,-0.2221c-0.14634,0.15242 -0.25544,0.31098 -0.33077,0.4926c0.07229,0.11751 0.15157,0.2009 0.27499,0.25622c0.165,-0.14943 0.22514,-0.35115 0.3377,-0.52671zM258.6559,192.41433c0.07016,0.2229 0.21567,0.2642 0.38672,0.2744c0.13033,0.02121 0.26762,0.00827 0.35119,-0.11915c-0.08402,-0.15468 -0.17149,-0.29227 -0.32177,-0.40484c-0.15112,0.08118 -0.28362,0.16538 -0.41613,0.24958zM264.83073,186.15693c-0.0247,-0.16263 0.003,-0.29911 -0.11002,-0.40562c-0.43128,0.2295 -0.404,0.56882 -0.29048,0.95738c0.13467,-0.18959 0.26588,-0.36217 0.40051,-0.55175zM257.00381,191.74033c0.18145,-0.04097 0.31047,-0.10813 0.45336,-0.24352c-0.11306,-0.10648 -0.09706,-0.28016 -0.23216,-0.37262c-0.11521,-0.00113 -0.16627,0.06107 -0.25115,0.10013c-0.0883,0.05612 -0.18836,0.07512 -0.21261,0.19455c0.05371,0.11451 0.10743,0.229 0.24254,0.32146zM259.97481,187.1474c0.18403,0.13567 0.3027,0.11974 0.35246,-0.03079c0.06365,-0.21876 0.09005,-0.44362 0.11296,-0.65139c0.01387,-0.06822 0.01251,-0.15659 -0.09226,-0.20888c-0.15543,0.29198 -0.27361,0.58999 -0.3732,0.89106zM262.7454,192.35676c0.01646,0.10842 0.08056,0.17173 0.18883,0.20699c0.21739,-0.12328 0.46856,-0.22343 0.62876,-0.44413c-0.20268,-0.13871 -0.37722,-0.13188 -0.54217,0.01756c-0.08832,0.05613 -0.21048,0.08917 -0.27541,0.21959zM262.50462,187.38254c0.26066,0.0424 0.32348,0.0173 0.35464,-0.1362c0.02985,-0.2419 0.06319,-0.50085 0.01855,-0.75486c-0.2113,0.2829 -0.40051,0.55176 -0.3732,0.89107zM264.92945,189.55702c-0.04633,0.13344 -0.07054,0.25293 -0.11342,0.36929c-0.06714,0.23584 -0.06709,0.23584 0.25076,0.37569c0.06149,-0.11341 0.14506,-0.24081 0.1775,-0.30601c-0.12126,-0.16075 -0.20875,-0.29832 -0.31486,-0.43895zM261.05535,182.58194c-0.12906,0.06713 -0.30356,0.07403 -0.34166,0.26171c0.0944,0.10348 0.21091,0.19293 0.32047,0.31649c0.15114,-0.08118 0.31741,-0.14222 0.40096,-0.26966c-0.11308,-0.10648 -0.20399,-0.22707 -0.37981,-0.30854zM263.51994,190.72023c-0.13808,0.20667 -0.29487,0.41029 -0.43296,0.61697c0.01995,0.09134 0.06191,0.16868 0.18055,0.15273c0.19874,-0.12629 0.36722,-0.29279 0.46807,-0.50552c-0.0537,-0.11451 -0.11434,-0.19483 -0.21571,-0.26419zM264.00226,184.64748c0.1338,0.00414 0.24079,-0.04896 0.33602,-0.13923c-0.02339,-0.07432 -0.04678,-0.1486 -0.07019,-0.22291c-0.03852,-0.09439 -0.0585,-0.18576 -0.16329,-0.23803c-0.11172,-0.01818 -0.21173,0.00078 -0.30354,0.07402c0.06196,0.16872 0.13906,0.35749 0.20095,0.52618zM260.40326,183.70967c0.15114,-0.08118 0.24986,-0.18851 0.33343,-0.31591c-0.12817,-0.1266 -0.23776,-0.25015 -0.35077,-0.35665c-0.15937,0.02699 -0.25462,0.11724 -0.29403,0.21658c0.10262,0.15769 0.20529,0.31538 0.31137,0.45605zM264.63967,185.2975c-0.03508,-0.11144 -0.07016,-0.2229 -0.12386,-0.33742c-0.01514,-0.02007 -0.05242,-0.02614 -0.08622,-0.04927c-0.08488,0.03906 -0.20351,0.05501 -0.28708,0.18245c0.02819,0.14561 0.03082,0.32225 0.13344,0.47995c0.16625,-0.0611 0.2615,-0.15137 0.3637,-0.27575zM265.3289,186.92533c0.05671,-0.18465 0.26847,-0.18549 0.30309,-0.35609c-0.04678,-0.14857 -0.0342,-0.30518 -0.15549,-0.4659c-0.14765,0.06412 -0.27672,0.13128 -0.25198,0.2939c0.0247,0.16264 -0.02508,0.31314 0.10439,0.5281zM263.97086,191.8158c0.09872,-0.10731 0.21605,-0.21163 0.31131,-0.30186c0.02209,-0.01402 0.0104,-0.0512 0.0173,-0.08532c-0.08618,-0.04926 -0.16195,-0.14973 -0.33994,-0.12575c-0.12077,0.12136 -0.24509,0.25977 -0.38797,0.39518c0.11648,0.08944 0.22477,0.12467 0.39928,0.11783zM260.02473,182.7316c-0.09094,-0.12055 -0.17843,-0.25815 -0.25422,-0.35858c-0.17798,0.02393 -0.30704,0.09106 -0.41743,0.16125c-0.00561,0.12249 0.12126,0.1607 0.18537,0.22402c0.06413,0.0633 0.12473,0.14365 0.25855,0.14779c0.08141,-0.02202 0.16629,-0.0611 0.22778,-0.17448zM255.57261,190.92591c0.06889,0.13455 0.12604,0.23202 0.1832,0.32942c0.01168,0.03716 0.0641,0.06332 0.07927,0.0834c0.13033,0.02121 0.23731,-0.03189 0.33255,-0.12218c-0.06541,-0.15163 -0.1122,-0.30025 -0.21823,-0.44089c-0.1221,0.03303 -0.22908,0.08613 -0.37673,0.15024zM265.4356,189.62171c0.11953,-0.2097 0.23899,-0.41938 0.23163,-0.66734c-0.17797,0.02394 -0.33044,0.01677 -0.45122,0.13811c0.0342,0.30519 0.03422,0.3052 0.21958,0.52921zM257.27182,192.03067c0.25077,0.37569 0.26936,0.37868 0.6392,0.26253c-0.0875,-0.13763 -0.19705,-0.26115 -0.28451,-0.39879c-0.1338,-0.00414 -0.24074,0.04897 -0.35465,0.13618zM263.25999,183.94512c-0.0654,-0.15163 -0.13775,-0.26915 -0.27286,-0.36165c-0.04071,0.01101 -0.10351,0.03604 -0.1663,0.06108c-0.04417,0.02808 -0.09182,0.07321 -0.13595,0.10125c0.06542,0.15163 0.10875,0.31732 0.24039,0.42686c0.12209,-0.03302 0.23601,-0.12023 0.3347,-0.22758zM254.6181,189.94232c0.06277,-0.02505 0.14765,-0.06414 0.17668,-0.11228c0.09397,-0.17861 0.09132,-0.35523 -0.00094,-0.56416c-0.12559,0.05006 -0.28145,0.05997 -0.35811,0.15328c0.03985,0.18272 0.02039,0.37344 0.18236,0.52315zM256.83761,183.27082c-0.01513,-0.02008 -0.03031,-0.04018 -0.06062,-0.08035c-0.26979,0.09715 -0.49408,0.25454 -0.71835,0.41195c0.03162,0.12851 0.09572,0.1918 0.2412,0.2331c0.17189,-0.18354 0.36237,-0.36406 0.53778,-0.56469zM261.58171,186.52747c-0.16366,0.23777 -0.34245,0.45543 -0.38271,0.74851c-0.00348,0.01707 0.06411,0.06327 0.10133,0.06934c0.0931,0.01511 0.18143,-0.04101 0.1987,-0.12632c0.10089,-0.21272 0.10865,-0.4406 0.08266,-0.69154zM262.76667,183.24799c-0.0723,-0.11753 -0.14465,-0.23504 -0.26114,-0.32449c-0.13034,-0.02121 -0.23037,-0.00222 -0.34771,0.10205c0.10958,0.12358 0.21567,0.26422 0.32869,0.37071c0.11861,-0.01595 0.20349,-0.05504 0.28015,-0.14832zM260.04684,192.76392c0.25723,0.05945 0.4772,0.11289 0.72489,0.02979c-0.02471,-0.16262 -0.14117,-0.25209 -0.27976,-0.32751c-0.16974,0.07816 -0.3174,0.14225 -0.44514,0.29776zM253.88701,188.23715c0.18838,-0.07512 0.21044,-0.08911 0.22086,-0.14033c0.05326,-0.16757 -0.00868,-0.33631 -0.07409,-0.48792c-0.02684,-0.05722 -0.11652,-0.08942 -0.19315,0.00386c0.08055,0.17173 -0.03896,0.38145 0.04641,0.62443zM257.55816,183.51139c0.19055,-0.1805 0.39621,-0.34096 0.47366,-0.62799c-0.2849,0.07704 -0.45684,0.26061 -0.62178,0.41002c0.00128,0.08834 0.05024,0.13152 0.14813,0.21794zM256.33216,191.54296c-0.10349,0.03605 -0.20351,0.05504 -0.307,0.09108c0.06194,0.16873 0.14943,0.30632 0.36464,0.28843c0.05933,-0.00797 0.11862,-0.01596 0.15112,-0.08118c-0.01646,-0.10841 -0.09573,-0.19183 -0.20875,-0.29832zM263.78687,187.41483c0.1676,0.02723 0.24898,0.00526 0.25806,-0.13426c0.00563,-0.12249 0.01123,-0.24494 -0.00178,-0.37044c-0.00826,-0.05419 -0.03508,-0.11148 -0.11303,-0.10652c-0.09741,0.19566 -0.13549,0.38334 -0.14326,0.61121zM256.78024,185.92289c-0.11953,0.20971 -0.20175,0.42547 -0.19091,0.65635c-0.00347,0.01708 0.06412,0.06327 0.08271,0.0663c0.03721,0.00606 0.08488,-0.03906 0.09179,-0.07321c0.02641,-0.22483 0.1052,-0.42355 0.0164,-0.64951zM255.76878,186.35766c-0.02123,-0.1797 0.01686,-0.36742 -0.05674,-0.57326c-0.1381,0.20666 -0.21344,0.3883 -0.17835,0.49975c0.01646,0.10841 0.09094,0.12056 0.23512,0.07349zM261.89457,192.85289c0.23384,-0.01486 0.49456,0.02753 0.66644,-0.15602c-0.30746,-0.19098 -0.47934,-0.00744 -0.66644,0.15602zM262.26403,189.70523c0.03721,0.00605 0.05939,-0.00798 0.09659,-0.00192c0.01599,-0.17363 0.12163,-0.3151 0.05969,-0.48379c-0.10825,-0.03525 -0.16759,-0.02725 -0.24076,0.04898c0.03162,0.12851 0.05978,0.27409 0.0845,0.43676zM259.13124,186.37568c-0.10433,0.22979 -0.17966,0.41142 -0.20261,0.61919c-0.00693,0.03412 0.02337,0.0743 0.07924,0.08338c0.01865,0.00303 0.05932,-0.00798 0.08141,-0.02203c0.11953,-0.2097 0.16105,-0.41443 0.04194,-0.68055zM254.89309,190.19853c-0.11863,0.01596 -0.18141,0.04098 -0.15457,0.09824c0.03162,0.12851 0.08188,0.26006 0.13211,0.39162c0.042,0.07733 0.09785,0.08642 0.16757,0.02725c-0.01774,-0.19677 -0.04247,-0.35943 -0.14511,-0.5171zM261.85254,182.72921c0.08488,-0.03906 0.16629,-0.0611 0.25116,-0.10015c0.02209,-0.01401 0.029,-0.04817 0.05803,-0.09632c-0.22341,-0.03636 -0.41785,-0.12082 -0.6738,-0.09195c0.10958,0.12358 0.18883,0.20696 0.36464,0.28842zM257.48634,188.6991c-0.01601,0.17364 -0.02855,0.33026 -0.05148,0.53803c0.22084,-0.14037 0.30787,-0.28481 0.32386,-0.45845c-0.08271,-0.06631 -0.13511,-0.09248 -0.2724,-0.07957zM263.41975,189.22339c0.05024,0.13157 -0.02509,0.31314 0.15896,0.44885c0.13895,-0.40041 0.15627,-0.48569 0.07008,-0.53499c-0.0931,-0.01511 -0.15591,0.0099 -0.22908,0.08613zM258.00705,186.22815c-0.2754,0.21957 -0.31691,0.42433 -0.2944,0.69238c0.30224,-0.16237 0.20172,-0.42543 0.2944,-0.69238zM264.92484,186.73622c-0.25331,0.20555 -0.29141,0.39327 -0.29571,0.60406c-0.00347,0.01707 0.03032,0.04017 0.06755,0.04623c0.05586,0.0091 0.10003,-0.01899 0.10694,-0.0531c0.05327,-0.16757 0.06926,-0.34121 0.1212,-0.59715zM264.36558,189.11283c0.0247,0.16263 0.0087,0.33631 0.17063,0.48597c0.09049,-0.16155 0.10302,-0.31813 0.11212,-0.45764c-0.10132,-0.06936 -0.17925,-0.0644 -0.28277,-0.02835zM265.38289,185.80608c-0.09919,-0.17477 -0.06109,-0.36245 -0.23345,-0.46098c-0.10433,0.22979 -0.10433,0.22978 0.052,0.50196c0.04071,-0.01101 0.08141,-0.02202 0.18144,-0.04099zM262.30289,192.07326c0.27107,-0.0088 0.43259,-0.14115 0.57894,-0.29361c-0.03508,-0.11144 -0.10958,-0.12358 -0.1758,-0.08148c-0.12077,0.12137 -0.26024,0.2397 -0.4031,0.37509zM263.58433,183.7687c0.11521,0.00112 0.21175,-0.0008 0.28837,-0.09409c-0.05716,-0.09741 -0.11433,-0.19487 -0.22256,-0.23007c-0.09656,0.00191 -0.15935,0.02698 -0.21047,0.08918c0.01995,0.09135 0.06541,0.15163 0.14467,0.23501zM259.98332,189.47533c0.08357,-0.12739 0.14161,-0.22375 0.12513,-0.33217c-0.01168,-0.03716 -0.04546,-0.06028 -0.07926,-0.0834c-0.05586,-0.0091 -0.13729,0.01291 -0.12905,0.06711c-0.02078,0.1024 -0.04502,0.22182 0.08319,0.34844zM260.62789,182.31854c-0.15721,-0.07844 -0.32349,-0.01734 -0.47937,-0.00743c0.17843,0.25816 0.21569,0.26418 0.47937,0.00743zM254.7295,186.17099c0.12642,-0.24383 0.12642,-0.24382 -0.02039,-0.37346c-0.05803,0.09632 -0.1195,0.20972 0.02039,0.37346zM261.21261,189.19933c-0.06413,-0.0633 -0.11996,-0.07238 -0.14549,-0.0413c-0.12077,0.12137 -0.11257,0.17557 0.02387,0.35639c0.08011,-0.11032 0.10091,-0.21274 0.12167,-0.31511zM265.67916,186.99992c-0.11041,0.0702 -0.2022,0.14339 -0.18923,0.26884c0.30831,-0.00276 0.33384,-0.0338 0.18923,-0.26884zM254.45968,185.51026c-0.13599,0.1013 -0.18231,0.23472 -0.22514,0.35111c-0.01387,0.06823 0.03162,0.12854 0.15721,0.07845c0.04284,-0.1164 0.08919,-0.24989 0.06796,-0.42957zM264.903,184.75864c-0.07187,0.16457 -0.03334,0.25897 0.10872,0.31732c0,0 0.04071,-0.01101 0.04416,-0.02808c0.03938,-0.09936 -0.05844,-0.18575 -0.15287,-0.28928zM258.7634,189.13593c0.11863,-0.01596 0.16976,-0.07816 0.16497,-0.14941c0.00693,-0.03412 -0.02339,-0.07431 -0.05716,-0.09743c-0.0338,-0.02311 -0.09654,0.00191 -0.10346,0.03605c-0.02902,0.04817 -0.04287,0.11639 -0.00434,0.2108zM263.03869,183.04549c0.05024,0.13156 0.11433,0.19486 0.27716,0.15081c-0.06542,-0.15163 -0.13296,-0.19788 -0.27716,-0.15081z" fill="#000000"/><path d="M257.32111,195.1054c0.59238,0.11398 1.18482,0.22796 1.78069,0.32484c0.67037,0.10902 1.35454,0.14978 2.03743,0.1022c0.21521,-0.01788 0.40009,-0.07591 0.63738,-0.10782c-0.05541,0.27302 -0.08523,0.51487 -0.15235,0.75071c-0.36536,1.42111 -0.64109,2.8744 -0.97265,4.31862c-0.30043,1.29066 -0.57873,2.56729 -0.86052,3.86099c-0.19867,0.8842 -0.39392,1.75135 -0.59261,2.63553c-0.1883,0.83303 -0.33588,1.65501 -0.52415,2.48803c-0.01387,0.06825 -0.02772,0.13651 -0.06018,0.20172c-0.29877,0.14531 -0.59541,0.18516 -0.92579,0.20196c-0.52355,0.02061 -1.05877,0.00406 -1.57667,-0.09778c-0.1676,-0.02723 -0.33863,-0.03743 -0.47027,-0.14699c0.17453,-0.00688 0.35032,0.07457 0.57247,0.0226c-0.07491,-0.29417 0.03979,-0.57514 0.07657,-0.85119c0.00347,-0.01707 0.00693,-0.03411 -0.01168,-0.03715c-0.05545,-0.48489 0.04498,-0.9797 0.04882,-1.4726c-0.00261,-0.17666 -0.0611,-0.36244 0.01075,-0.52699c0.10652,-0.33518 0.00469,-0.68662 0.1112,-1.02184c0.00347,-0.01707 -0.00824,-0.05421 -0.00129,-0.08835c0.00991,-0.33323 -0.00219,-0.65248 0.04496,-0.97968c0.07617,-0.37536 -0.00353,-0.74086 0.10988,-1.11015c-0.06671,-0.23996 0.01558,-0.45572 0.04543,-0.69761c0.00693,-0.03412 0.01038,-0.05121 0.01732,-0.0853c-0.07971,-0.36547 0.06748,-0.71166 0.06226,-1.06503c-0.00523,-0.35334 0.10472,-0.7056 0.11811,-1.05593c0.0238,-0.40153 -0.01179,-0.79502 0.12722,-1.19545c0.00693,-0.03412 0.01733,-0.08532 0.00563,-0.12247c-0.07367,-0.20586 0.02379,-0.40151 0.04674,-0.60928c0.02078,-0.1024 0.06363,-0.21875 0.04716,-0.3272c-0.04329,-0.16567 0.00301,-0.29913 0.03418,-0.45271c0.01732,-0.08532 0.05326,-0.16762 0.02984,-0.24189c-0.06671,-0.23996 0.019,-0.47278 0.06402,-0.69458c0.01732,-0.08532 0.05323,-0.16758 0.02986,-0.2419c-0.05498,-0.20281 0.00169,-0.38748 0.03981,-0.57517c0.06232,-0.30715 -0.00568,-0.63542 0.07527,-0.9395c0.029,-0.04817 -0.01644,-0.10842 -0.02471,-0.16263z" fill="#87d7dc"/><path d="M257.32111,195.10543c0.00822,0.0542 0.05372,0.11449 0.04332,0.16568c-0.08093,0.3041 -0.03156,0.62937 -0.07526,0.93952c-0.0381,0.18768 -0.09481,0.37236 -0.03981,0.57516c0.02339,0.07432 -0.01254,0.1566 -0.02982,0.24188c-0.04499,0.22181 -0.11214,0.45764 -0.06407,0.6946c0.02339,0.07431 -0.03116,0.15358 -0.02983,0.2419c-0.03116,0.15355 -0.05887,0.29007 -0.03418,0.45271c0.01646,0.10841 -0.02641,0.22486 -0.04718,0.32723c-0.02292,0.20776 -0.12033,0.40344 -0.04671,0.60928c0.01168,0.03716 0.0013,0.08834 -0.00562,0.12246c-0.1355,0.38335 -0.10343,0.79397 -0.1272,1.19547c-0.01686,0.36742 -0.12682,0.71963 -0.11816,1.05593c0.00524,0.35333 -0.14196,0.69955 -0.06225,1.06501c0.01513,0.02009 -0.01041,0.0512 -0.01733,0.08533c-0.04499,0.22181 -0.1121,0.45764 -0.0454,0.69764c-0.13206,0.36629 -0.05232,0.73176 -0.10991,1.11014c-0.0658,0.32418 -0.03501,0.64643 -0.04498,0.97969c-0.00693,0.03412 0.00827,0.05424 0.00132,0.08835c-0.10652,0.33518 -0.00469,0.68661 -0.1112,1.02183c-0.0567,0.18465 0.00521,0.35336 -0.01076,0.527c-0.02247,0.48985 -0.10427,0.9877 -0.04882,1.47258c-0.00347,0.01707 0.01171,0.03716 0.01171,0.03716c-0.03677,0.27604 -0.15153,0.55702 -0.07657,0.8512c-0.20351,0.05503 -0.37588,-0.04352 -0.57247,-0.02262c-0.14895,-0.02421 -0.29791,-0.04848 -0.4075,-0.17207c0.02078,-0.1024 0.06363,-0.21875 0.04715,-0.32718c-0.05763,-0.37948 0.03375,-0.73479 0.06921,-1.09917c0.03547,-0.36434 -0.02217,-0.74384 0.10988,-1.11012c-0.06671,-0.23996 0.01553,-0.45574 0.0454,-0.69763c0.00693,-0.03412 0.01731,-0.08531 0.00562,-0.12247c-0.06194,-0.16872 0.00994,-0.33324 0.02249,-0.48987c0.01732,-0.08532 0.0346,-0.17063 0.02985,-0.24189c-0.01693,-0.39052 -0.0118,-0.79503 0.06786,-1.18748c0.01042,-0.05119 0.04289,-0.11642 0.01254,-0.15658c-0.05846,-0.18573 -0.00525,-0.35334 0.02938,-0.52397c0.0567,-0.18465 -0.03903,-0.37649 0.02118,-0.57819c0.07403,-0.26997 0.03285,-0.54104 0.05102,-0.82009c0.03893,-0.38144 -0.00006,-0.75788 0.0796,-1.15031c0.01387,-0.06825 0.0498,-0.15054 0.02292,-0.20778c-0.04675,-0.14862 0.00298,-0.29912 0.01555,-0.4557c0.02771,-0.13649 0.03678,-0.276 0.02381,-0.40153c-0.02945,-0.23393 -0.0217,-0.46178 0.02675,-0.70067c0.0541,-0.36132 -0.00354,-0.74084 0.12849,-1.1071c0.00693,-0.03412 -0.00127,-0.08833 0.00564,-0.12248c0.01686,-0.36742 0.01506,-0.7378 0.06921,-1.09912c0.07617,-0.37536 0.00339,-0.77497 0.11683,-1.14427c0.01042,-0.05119 -0.01648,-0.10842 -0.02471,-0.16263c0.00777,-0.22786 0.03763,-0.46976 0.13851,-0.68247c0.09657,-0.00191 0.17104,0.01016 0.24899,0.00525c0.25032,0.09359 0.46682,0.16404 0.70544,0.22048z" fill="#b0eef2"/><path d="M266.08978,187.63071c-0.00993,0.33322 -0.04328,0.59222 -0.1697,0.83605c-0.17669,0.11227 -0.39188,0.13017 -0.61053,0.1651c-1.083,0.12351 -2.16254,0.22995 -3.25164,0.19386c-0.82148,-0.02785 -1.66159,-0.05869 -2.48435,-0.17486c-0.22343,-0.03635 -0.46207,-0.09276 -0.69591,-0.07794c-0.09657,0.00191 -0.2083,-0.01627 -0.31999,-0.03442c-0.43306,-0.14093 -0.88687,-0.17948 -1.33033,-0.26921c-0.62966,-0.12 -1.24547,-0.30827 -1.85431,-0.53067c-0.30269,-0.11972 -0.60888,-0.2224 -0.93366,-0.32807c-0.25374,-0.07654 -0.45642,-0.21522 -0.66257,-0.33688c-0.068,-0.32833 -0.06239,-0.45076 0.05796,-0.8542c0.40617,0.08365 0.77645,0.24963 1.17569,0.36745c0.38064,0.11478 0.77989,0.23258 1.16402,0.33031c0.40271,0.10076 0.82756,0.18746 1.23373,0.27114c0.38409,0.09772 0.80761,0.09605 1.18138,0.24498c0.42699,-0.01869 0.82623,0.09913 1.23937,0.14868c0.3945,0.04654 0.81108,0.07901 1.20906,0.10849c0.41659,0.0325 0.83661,0.04792 1.2753,0.06641c0.40143,0.01241 0.818,0.04491 1.22292,0.04023c0.4235,-0.00164 0.83531,-0.0404 1.2623,-0.05909c0.4456,-0.01567 0.85047,-0.02032 1.29131,-0.10726z" fill="#d1eaeb"/><path d="M256.63079,194.90507c-0.07794,0.00494 -0.15244,-0.00716 -0.24898,-0.00523c-0.10087,0.21274 -0.14588,0.43451 -0.13851,0.68248c0.00822,0.05421 0.03508,0.11146 0.0247,0.16263c-0.11343,0.36929 -0.05925,0.76591 -0.11682,1.14428c-0.07272,0.35831 -0.05234,0.73174 -0.06924,1.09913c-0.00693,0.03412 0.0013,0.08835 -0.00562,0.12246c-0.13207,0.36628 -0.05236,0.73173 -0.12853,1.10711c-0.04499,0.22181 -0.05624,0.46674 -0.02675,0.70066c0.00953,0.14251 0.00047,0.28207 -0.02379,0.40152c-0.03116,0.15355 -0.07748,0.28702 -0.01554,0.45573c0.02683,0.05722 -0.0091,0.13954 -0.02296,0.20778c-0.07617,0.37536 -0.0406,0.76888 -0.07957,1.15031c-0.01819,0.27905 0.02302,0.55012 -0.05103,0.82008c-0.0567,0.18465 0.03901,0.37647 -0.02118,0.57819c-0.05325,0.16759 -0.10996,0.35224 -0.02942,0.52398c0.00822,0.05421 -0.00215,0.10539 -0.01252,0.15657c-0.07965,0.39241 -0.08138,0.77988 -0.06787,1.18747c0.00128,0.08834 -0.0346,0.17061 -0.02986,0.24186c-0.03116,0.15355 -0.08438,0.32116 -0.02245,0.48985c0.01168,0.03716 0.00131,0.08834 -0.00562,0.12245c-0.04499,0.22181 -0.11212,0.45765 -0.04541,0.69763c-0.13205,0.36628 -0.07442,0.74579 -0.10987,1.11012c-0.03547,0.36434 -0.13027,0.73667 -0.06921,1.09911c0.01646,0.10842 -0.02642,0.22484 -0.04716,0.32721c-0.17106,-0.0102 -0.26199,-0.13072 -0.38889,-0.16897c0.05232,-0.73173 0.07912,-1.43241 0.12454,-2.13002c0.04065,-0.7689 0.09643,-1.51771 0.15566,-2.28357c0.04887,-0.7147 0.0791,-1.43241 0.10936,-2.15012c0.04627,-0.89137 0.07042,-1.76869 0.1132,-2.64299c0.03848,-0.66352 0.077,-1.32701 0.09682,-1.99353c0.05532,-1.03089 0.18861,-2.06676 0.20668,-3.10368c0.00908,-0.13951 -0.01909,-0.28509 0.06795,-0.42956c0.1676,0.02723 0.32477,0.10569 0.48546,0.16707c0.08619,0.04925 0.26068,0.04238 0.39237,0.15192z" fill="#87d7dc"/><path d="M255.92728,210.12456c0.39796,0.02946 0.76347,0.12415 1.16487,0.13653c0.46076,0.00444 0.92497,-0.00823 1.40994,-0.1232c-0.20083,0.98961 -0.3982,1.96214 -0.59211,2.91762c-0.24291,0.15439 -0.49884,0.18324 -0.73961,0.23222c-0.45944,0.08392 -0.89464,0.04838 -1.34847,0.00983c-0.01865,-0.00303 -0.05238,-0.02614 -0.06757,-0.04623c0.18836,-0.07511 0.16019,-0.22068 0.15065,-0.36326c-0.02386,-0.3564 -0.0291,-0.70973 0.0588,-1.04794c0.01387,-0.06825 0.0277,-0.1365 0.02291,-0.20776c-0.04594,-0.34237 0.04194,-0.68055 0.05186,-1.01384c0.0009,-0.19374 -0.00874,-0.33625 -0.11135,-0.49397z" fill="#61afb4"/><path d="M256.81203,192.59039c0.63094,0.20836 1.28611,0.29728 1.92746,0.45443c0.29446,0.06552 0.59934,0.07982 0.90421,0.09416c0.56556,0.05674 1.13585,0.18472 1.71526,0.17317c0.23038,0.00223 0.46075,0.00445 0.67597,-0.01342c0.13729,-0.01292 0.27106,-0.00881 0.40144,0.0124c0.00826,0.05419 0.01992,0.09136 0.01298,0.12551c-0.02772,0.13648 -0.05538,0.27298 -0.08307,0.40948c-0.10348,0.03606 -0.18491,0.05803 -0.28492,0.07704c-0.71187,0.09573 -1.44243,0.18845 -2.16867,0.07034c-0.63659,-0.08588 -1.29172,-0.1748 -1.91449,-0.32894c-0.49587,-0.11588 -0.99515,-0.21471 -1.44466,-0.46404c0.10002,-0.01901 0.20137,0.05036 0.2966,-0.0399c0.07533,-0.18162 0.17621,-0.39435 -0.03816,-0.57021z" fill="#61aeb3"/><path d="M257.02691,193.80621c0.32349,0.01736 0.60062,0.16819 0.91371,0.23672c0.66691,0.12607 1.33378,0.25218 2.01105,0.32704c0.54691,0.0537 1.0891,0.03609 1.61956,-0.01863c0.13729,-0.01292 0.27452,-0.02586 0.4118,-0.03879c-0.04847,0.23888 -0.08999,0.44364 -0.13504,0.66544c-0.265,0.1684 -0.56165,0.20826 -0.86996,0.21104c-0.36765,0.01074 -0.75389,0.01839 -1.12977,-0.02511c-0.85178,-0.06805 -1.66419,-0.2354 -2.49867,-0.38871c-0.14895,-0.02422 -0.29795,-0.04845 -0.41098,-0.15496c0.01732,-0.08532 0.05322,-0.1676 0.02984,-0.24189c-0.03985,-0.18273 0.02031,-0.38448 0.05839,-0.57212z" fill="#61aeb3"/><path d="M255.92726,210.12456c0.0875,0.13763 0.11563,0.28318 0.09963,0.45684c-0.00993,0.33324 -0.09783,0.67149 -0.05186,1.01382c0.00476,0.07129 -0.00906,0.13955 -0.02293,0.2078c-0.0727,0.35832 -0.06403,0.69458 -0.0588,1.04793c0.01299,0.12551 0.03772,0.28814 -0.15066,0.36326c-0.28278,-0.02837 -0.53654,-0.10487 -0.76129,-0.22954c-0.0074,-0.24798 -0.03338,-0.49895 0.05232,-0.73175c0.00693,-0.03412 -0.00129,-0.08834 0.00562,-0.12247c0.01339,-0.35031 0.03024,-0.71772 0.06225,-1.06502c0.01254,-0.15658 0.04027,-0.29308 0.03419,-0.45271c-0.01774,-0.19676 0.00516,-0.40456 0.13636,-0.57709c0.09656,-0.00191 0.17104,0.01019 0.24898,0.00526c0.13033,0.02121 0.27587,0.06248 0.40618,0.08366z" fill="#87d7dc"/><path d="M258.97907,184.37697c0.175,0.27521 0.21269,0.56329 0.23176,0.84846c0.00477,0.07128 -0.01602,0.17366 -0.04847,0.23888c-0.24938,0.47057 -0.42431,0.95327 -0.58058,1.43897c-0.00347,0.01707 -0.029,0.04815 -0.05109,0.06221c-0.08488,0.03906 -0.17799,0.02396 -0.26069,-0.04237c0.00693,-0.03412 -0.0048,-0.0713 0.00214,-0.10541c0.10176,-0.40643 0.14761,-0.82201 0.09691,-1.23563c-0.0143,-0.21383 0.02379,-0.40154 0.15844,-0.59113c0.15675,-0.20362 0.2576,-0.41635 0.45161,-0.61396z" fill="#cce5e6"/><path d="M257.33896,186.77162c-0.1221,0.03303 -0.19312,0.00385 -0.2386,-0.05642c0.12899,-0.82504 0.12896,-0.82503 -0.02353,-1.59008c0.09611,-0.28402 0.28531,-0.55285 0.43384,-0.81069c0.13729,-0.01292 0.13509,0.09246 0.16195,0.14971c0.09226,0.20887 0.18797,0.40071 0.23951,0.62061c0.02817,0.14561 0.02251,0.26806 -0.0424,0.39846c-0.19831,0.40841 -0.38142,0.83685 -0.5308,1.28843z" fill="#cce5e6"/><path d="M255.50248,210.03786c-0.07795,0.00494 -0.15246,-0.00717 -0.24898,-0.00525c-0.1312,0.17254 -0.15412,0.3803 -0.13635,0.5771c0.00609,0.15963 -0.02161,0.29611 -0.03419,0.45272c-0.03201,0.34731 -0.04887,0.71468 -0.06226,1.06501c-0.00693,0.03412 0.00131,0.08836 -0.00563,0.12247c-0.07055,0.2529 -0.04112,0.48681 -0.05235,0.73173c-0.14204,-0.05833 -0.26548,-0.11369 -0.39366,-0.24029c0.0411,-0.48682 0.0484,-0.9968 0.11157,-1.49765c0.0411,-0.48682 0.00772,-0.98575 0.11158,-1.49762c0.29445,0.06552 0.50406,0.17009 0.71021,0.29171z" fill="#60adb2"/><path d="M261.5768,189.20568c0.07794,-0.00495 0.1373,-0.01291 0.21522,-0.01787c0.03033,0.04018 0.04545,0.06027 0.06061,0.08034c0.01563,0.30216 0.09057,0.59637 0.1841,0.89356c0.03162,0.12852 0.02947,0.23395 -0.05063,0.34427c-0.14159,0.22373 -0.24936,0.47057 -0.533,0.63596c-0.17841,-0.25815 -0.25338,-0.55234 -0.30968,-0.8435c-0.00826,-0.05419 0.02774,-0.13649 0.06017,-0.2017c0.11815,-0.29801 0.23639,-0.59611 0.37321,-0.8911z" fill="#cce5e6"/><path d="M262.71358,184.93137c0.03987,0.18271 0.07492,0.2942 0.10655,0.42273c0.04808,0.23697 0.02515,0.44471 -0.13504,0.66543c-0.2507,0.38221 -0.44896,0.79065 -0.53554,1.21718c-0.02772,0.13649 -0.04979,0.15051 -0.26979,0.09715c0.0104,-0.05119 0.00213,-0.1054 0.01255,-0.15661c0.10519,-0.42352 0.13243,-0.84208 0.10381,-1.26975c0.00218,-0.10541 0.00086,-0.19374 0.05538,-0.27302c0.2009,-0.23173 0.36459,-0.46946 0.66208,-0.70307z" fill="#cae2e3"/><path d="M259.53272,187.14602c-0.01513,-0.02008 -0.02688,-0.05728 -0.02339,-0.07432c0.11687,-0.38634 0.11857,-0.77383 0.09821,-1.14731c-0.00524,-0.35333 0.06056,-0.67755 0.31257,-0.97141c0.12428,-0.13841 0.18095,-0.32307 0.33904,-0.43836c0.22523,0.40674 0.21658,0.82836 0.01006,1.18252c-0.24247,0.43646 -0.50007,0.8528 -0.58188,1.35066c-0.029,0.04817 -0.04288,0.1164 -0.15459,0.09825z" fill="#c9e1e2"/><path d="M261.40671,184.73648c0.1308,0.30328 0.15681,0.55424 0.17934,0.82228c0.00128,0.08834 -0.01602,0.17364 -0.06711,0.23585c-0.26455,0.4505 -0.4953,0.92408 -0.68883,1.40372c-0.00693,0.03412 -0.03591,0.08227 -0.12557,0.05007c0.02424,-0.11942 0.05194,-0.25591 0.05757,-0.37839c0.05064,-0.34426 0.08264,-0.69156 0.03669,-1.03391c-0.02604,-0.25099 0.03764,-0.46975 0.20954,-0.6533c0.12428,-0.13841 0.24505,-0.2598 0.39835,-0.44637z" fill="#c9e1e2"/><path d="M262.78453,189.22584c0.12907,-0.06712 0.22217,-0.05199 0.31525,-0.03686c0.01514,0.02007 0.02688,0.05726 0.04199,0.07733c-0.01817,0.27905 0.04163,0.55316 0.16421,0.8022c0.06539,0.15163 0.05631,0.29116 -0.03073,0.43564c-0.11255,0.17556 -0.20995,0.37124 -0.35632,0.52371c-0.17365,-0.18686 -0.36036,-0.49924 -0.36988,-0.6418c-0.01995,-0.09135 0.03114,-0.15356 0.06712,-0.23584c0.04026,-0.29307 0.17705,-0.58811 0.16838,-0.92435z" fill="#cae3e4"/><path d="M256.18778,189.31633c0.24159,-0.2427 0.42738,-0.49449 0.59797,-0.76639c0.11861,-0.01595 0.19316,-0.00385 0.27587,0.06247c0.03078,0.32223 -0.07922,0.67448 -0.02981,0.99978c-0.13121,0.17253 -0.30093,0.25069 -0.45896,0.36601c-0.0883,0.05612 -0.16147,0.13234 -0.2953,0.12822c-0.10395,-0.24604 -0.02991,-0.51599 -0.0897,-0.7901z" fill="#c8e0e1"/><path d="M259.32982,188.99893c0.16411,0.04431 0.16889,0.11559 0.17366,0.18686c0.02256,0.26807 0.04854,0.51901 0.05248,0.78403c0.00477,0.07129 -0.00907,0.13953 -0.06016,0.20174c-0.16843,0.16646 -0.3555,0.32992 -0.55769,0.47332c-0.0723,-0.11751 -0.07017,-0.22293 -0.10525,-0.33439c-0.10523,-0.33436 -0.06502,-0.62744 0.23244,-0.86109c0.13945,-0.11834 0.21131,-0.2829 0.26453,-0.4505z" fill="#cbe4e5"/><path d="M258.15671,188.80815c0.0931,0.01511 0.14896,0.0242 0.20483,0.03328c0.01168,0.03716 0.04545,0.06029 0.042,0.07733c-0.0009,0.19374 -0.0203,0.38447 -0.02116,0.5782c-0.00218,0.10542 -0.03811,0.18769 -0.11129,0.26391c-0.21951,0.22868 -0.45423,0.43726 -0.74477,0.63678c-0.0992,-0.17475 -0.08663,-0.33133 -0.07409,-0.48791c0.01387,-0.06822 0.02773,-0.1365 0.0753,-0.18161c0.29748,-0.23364 0.47847,-0.55671 0.62914,-0.91996z" fill="#c8e0e1"/><path d="M257.02691,193.80619c-0.0381,0.18768 -0.09828,0.38942 -0.04324,0.59225c0.02339,0.07431 -0.01257,0.15656 -0.02986,0.24188c-0.32,-0.03442 -0.60755,-0.13404 -0.86262,-0.29893c0.08573,-0.23281 0.05972,-0.48377 0.06402,-0.69457c0.14765,-0.06412 0.26762,0.00827 0.38624,-0.0077c0.17106,0.0102 0.35381,0.05755 0.48546,0.16706z" fill="#85d5d9"/><path d="M263.95906,185.99758c-0.14505,0.2408 -0.29006,0.48159 -0.41998,0.74246c-0.10435,0.22979 -0.01078,0.527 -0.34206,0.73749c0.11771,-0.58009 0.09127,-1.11318 0.06481,-1.64623c0.13121,-0.17253 0.28446,-0.35912 0.50186,-0.48238c0.03033,0.04018 0.04547,0.06028 0.06062,0.08034c0.05847,0.18574 0.09835,0.36851 0.13473,0.56826z" fill="#c6dede"/><path d="M258.80145,183.92507c-0.18923,0.26888 -0.35285,0.5066 -0.54208,0.77549c-0.12817,-0.1266 -0.15636,-0.27219 -0.22868,-0.38968c-0.06889,-0.13455 -0.17843,-0.25817 -0.20312,-0.42079c0.02424,-0.11942 0.11949,-0.2097 0.1961,-0.30298c0.07662,-0.09329 0.17192,-0.18353 0.28579,-0.27079c0.23991,0.14477 0.3473,0.37375 0.49198,0.60879z" fill="#cae3e3"/><path d="M256.14032,186.61194c-0.02648,-0.53307 -0.07026,-0.98082 -0.22923,-1.42964c0.11953,-0.20971 0.22039,-0.42241 0.34335,-0.64917c0.21438,0.17586 0.26594,0.39575 0.35816,0.6046c0.01168,0.03716 0.00129,0.08836 -0.00564,0.12246c-0.14243,0.41745 -0.28485,0.83495 -0.46666,1.35173z" fill="#cae3e4"/><path d="M260.16704,190.84469c-0.1308,-0.30327 -0.22785,-0.58343 0.00901,-0.8974c0.16021,-0.22071 0.23078,-0.47362 0.30133,-0.72651c0.02078,-0.10239 0.11732,-0.10431 0.22215,-0.05202c-0.09262,0.26693 -0.05148,0.53803 -0.01031,0.8091c0.0364,0.19978 -0.03199,0.34729 -0.15627,0.48572c-0.10219,0.12437 -0.17062,0.27188 -0.36592,0.38113z" fill="#c8e0e1"/><path d="M256.81203,192.59037c0.21091,0.19293 0.11347,0.38856 0.0533,0.59029c-0.09524,0.09024 -0.20004,0.03798 -0.29658,0.03991c-0.23859,-0.05643 -0.44819,-0.16103 -0.6509,-0.29975c0.0567,-0.18465 0.02033,-0.38444 0.14804,-0.53992c0.09657,-0.00191 0.15245,0.00717 0.22691,0.01927c0.1793,0.0644 0.35857,0.12877 0.51923,0.19018z" fill="#85d4d9"/><path d="M258.39982,190.16954c0.05978,0.2741 0.08926,0.50801 0.13736,0.74497c-0.20568,0.16042 -0.42649,0.30078 -0.65906,0.40394c-0.12344,-0.05532 -0.13988,-0.16375 -0.18189,-0.24106c-0.04201,-0.07733 -0.08401,-0.15465 -0.04114,-0.27106c0.19055,-0.1805 0.44381,-0.38606 0.74476,-0.63678z" fill="#c7dfe0"/><path d="M261.15353,191.48102c-0.165,0.14943 -0.31133,0.30185 -0.5287,0.42516c-0.1923,-0.18989 -0.24383,-0.40976 -0.32916,-0.65277c0.1719,-0.18354 0.34378,-0.36711 0.51917,-0.56773c0.13772,0.26915 0.22306,0.51221 0.33869,0.79535z" fill="#c8e0e1"/><path d="M259.80609,183.5244c0.12126,0.16075 0.2425,0.32145 0.29753,0.52428c-0.16021,0.22071 -0.33903,0.43837 -0.52131,0.67309c-0.03721,-0.00606 -0.07446,-0.01212 -0.071,-0.02919c-0.08056,-0.17173 -0.15764,-0.3605 -0.21959,-0.5292c-0.02339,-0.07432 -0.02819,-0.1456 0.01944,-0.19071c0.15329,-0.18657 0.2507,-0.38223 0.49494,-0.4483z" fill="#c4dcdd"/><path d="M262.54774,184.51666c-0.19398,0.19758 -0.36935,0.39818 -0.56335,0.59578c-0.13855,-0.07542 -0.11085,-0.2119 -0.14594,-0.32337c-0.03508,-0.11144 -0.0481,-0.23696 -0.07972,-0.36546c0.13466,-0.18959 0.34859,-0.29576 0.5322,-0.44221c0.18056,0.15272 0.22043,0.33548 0.2568,0.53527z" fill="#c8e0e1"/><path d="M261.69212,191.48049c0.17885,-0.21766 0.3356,-0.42133 0.51788,-0.65604c0.15852,0.16676 0.2135,0.36962 0.35341,0.53337c-0.12299,0.22674 -0.34035,0.35004 -0.53087,0.53053c-0.16543,-0.13265 -0.29708,-0.24218 -0.34037,-0.40785z" fill="#c6ddde"/><path d="M263.99441,189.1406c0.12735,0.32035 0.15468,0.65965 0.34479,0.95495c-0.0974,0.19567 -0.17276,0.37731 -0.34119,0.54378c-0.19919,-0.15577 -0.29841,-0.33054 -0.20922,-0.58039c0.11818,-0.29801 0.14327,-0.6112 0.2056,-0.91834z" fill="#b9cfd0"/><path d="M255.14606,186.20349c-0.10132,-0.06936 -0.0282,-0.1456 -0.03294,-0.21684c-0.00607,-0.15962 0.00645,-0.31617 -0.0845,-0.43676c-0.11087,-0.21192 -0.0542,-0.39655 0.02463,-0.59525c0.03596,-0.08229 0.09048,-0.16155 0.15197,-0.27492c0.20401,0.22704 0.35556,0.42797 0.2153,0.74001c-0.10086,0.21274 -0.13075,0.45463 -0.19438,0.6734c-0.01042,0.05118 -0.02078,0.10238 -0.0801,0.11035z" fill="#c0d8d8"/><path d="M255.24818,189.58652c-0.06194,-0.16872 -0.07147,-0.31124 -0.04379,-0.44773c0.01387,-0.06822 0.03113,-0.15358 0.07877,-0.19869c0.21262,-0.19455 0.3728,-0.41525 0.53302,-0.63596c0.13033,0.02122 0.09786,0.08641 0.08749,0.13763c-0.03463,0.17063 -0.0727,0.35832 -0.07009,0.53499c-0.00778,0.22786 -0.0948,0.37234 -0.30526,0.46151c-0.10349,0.03605 -0.16974,0.07815 -0.28013,0.1483z" fill="#c1d9d9"/><path d="M259.81496,191.15758c-0.14979,0.16949 -0.32651,0.28177 -0.51008,0.42817c-0.18405,-0.13567 -0.20178,-0.33243 -0.28238,-0.50418c0.17536,-0.20062 0.41133,-0.32087 0.63565,-0.47826c0.09571,0.19183 0.11695,0.37155 0.15683,0.55428z" fill="#c3dbdc"/><path d="M260.76921,184.84433c-0.06328,-0.25705 -0.11133,-0.49402 -0.17804,-0.73399c0.10563,-0.14148 0.20784,-0.26582 0.39619,-0.34096c0.13989,0.16377 0.19835,0.34951 0.27549,0.53831c-0.11953,0.2097 -0.26928,0.37919 -0.49359,0.5366z" fill="#c3dadb"/><path d="M257.99845,191.67293c0.21739,-0.12328 0.41266,-0.23251 0.60793,-0.34175c0.16197,0.14971 0.22044,0.33547 0.27891,0.52122c-0.1615,0.13237 -0.33469,0.22758 -0.54166,0.29963c-0.04893,-0.04322 -0.11302,-0.10653 -0.14334,-0.14667c-0.07232,-0.11751 -0.11087,-0.21189 -0.20182,-0.33247z" fill="#c4dbdc"/><path d="M254.96873,188.0253c-0.06581,0.32421 -0.11776,0.58015 -0.1731,0.85312c-0.11735,0.10431 -0.24641,0.17143 -0.42434,0.19534c-0.09438,-0.10348 -0.03292,-0.21686 -0.04937,-0.32529c-0.01647,-0.10841 -0.0143,-0.21383 0.00298,-0.29915c0.22086,-0.14038 0.39752,-0.25264 0.64389,-0.42405z" fill="#c2d9da"/><path d="M258.6174,183.03147c0.10219,-0.12437 0.21603,-0.21164 0.34163,-0.2617c0.15242,0.00717 0.20614,0.1217 0.28884,0.18798c0.0827,0.06628 0.19097,0.10154 0.22258,0.23006c-0.07186,0.16457 -0.23338,0.29692 -0.40181,0.46345c-0.07582,-0.10047 -0.15161,-0.20092 -0.23084,-0.28431c-0.0723,-0.11751 -0.14466,-0.23501 -0.22046,-0.33548z" fill="#c5ddde"/><path d="M260.26804,192.14778c-0.12775,0.1555 -0.2871,0.18246 -0.41958,0.26666c-0.1875,-0.11864 -0.2867,-0.29339 -0.40107,-0.48822c0.15803,-0.11531 0.31611,-0.2306 0.45556,-0.34894c0.19918,0.15578 0.25077,0.37568 0.36509,0.5705z" fill="#c3dbdc"/><path d="M256.84684,184.6471c-0.06413,-0.0633 -0.09443,-0.10344 -0.12475,-0.14361c-0.05716,-0.09741 -0.11088,-0.21192 -0.1832,-0.32943c0.17885,-0.21766 0.30178,-0.44443 0.54471,-0.59881c0.12344,0.05532 0.16199,0.14971 0.21222,0.28127c-0.12642,0.24382 -0.27841,0.51872 -0.44896,0.79063z" fill="#c7dfe0"/><path d="M257.13361,190.72154c-0.2139,0.10621 -0.36025,0.25864 -0.58239,0.31065c-0.1468,-0.12965 -0.12735,-0.32032 -0.23692,-0.44389c0.21263,-0.19455 0.4265,-0.30079 0.64735,-0.44112c0.15506,0.18386 0.11695,0.37151 0.172,0.57435z" fill="#c7dee0"/><path d="M256.54501,193.62207c-0.11863,0.01596 -0.23859,-0.05645 -0.38625,0.0077c-0.00778,0.22786 -0.00041,0.4758 -0.06403,0.69458c-0.07104,-0.02918 -0.16066,-0.06139 -0.22822,-0.10759c-0.10132,-0.06936 -0.15848,-0.16678 -0.13427,-0.28624c0.02292,-0.20775 0.04237,-0.39846 0.06534,-0.60626c0.24208,0.03936 0.35034,0.0746 0.74745,0.29781z" fill="#61acb1"/><path d="M263.71993,184.90116c-0.165,0.14943 -0.30438,0.26772 -0.488,0.41414c-0.06671,-0.23997 -0.13688,-0.46286 -0.18498,-0.69982c0.12077,-0.12136 0.23816,-0.22564 0.38927,-0.30683c0.15505,0.18385 0.21351,0.36959 0.28369,0.5925z" fill="#c2dada"/><path d="M255.26507,189.97703c0.165,-0.14943 0.33472,-0.22757 0.53004,-0.3368c0.02603,0.25099 0.05894,0.46785 0.09186,0.68473c-0.10563,0.14147 -0.24639,0.17144 -0.41266,0.23251c-0.14335,-0.14667 -0.16114,-0.34349 -0.20922,-0.58039z" fill="#c1d9d9"/><path d="M261.62656,184.03197c-0.13295,-0.19789 -0.21697,-0.35254 -0.31961,-0.51026c0.09049,-0.16154 0.2637,-0.25675 0.43692,-0.35195c0.15024,0.11257 0.27844,0.23916 0.35555,0.42796c-0.09741,0.19566 -0.30097,0.25069 -0.47284,0.43426z" fill="#c6dedf"/><path d="M261.69095,192.15005c-0.16149,0.13236 -0.33819,0.24463 -0.49622,0.35994c-0.16411,-0.04431 -0.26199,-0.13072 -0.3495,-0.26835c0.11953,-0.2097 0.34859,-0.29577 0.51702,-0.4623c0.15376,0.09549 0.22258,0.23007 0.32871,0.3707z" fill="#c0d7d7"/><path d="M256.05271,184.20066c-0.11256,0.17556 -0.17276,0.37728 -0.37495,0.52068c-0.0875,-0.13763 -0.17843,-0.25819 -0.26938,-0.3787c0.04157,-0.20472 0.16929,-0.3602 0.34595,-0.47246c0.13856,0.07542 0.21434,0.17585 0.29839,0.33049z" fill="#c3dadb"/><path d="M256.3114,192.40321c-0.07449,-0.01212 -0.15245,-0.00715 -0.22695,-0.01925c-0.12775,0.15551 -0.09137,0.35525 -0.14804,0.53992c-0.1338,-0.00414 -0.18752,-0.11864 -0.31439,-0.15688c-0.02946,-0.23392 0.06792,-0.42959 -0.0174,-0.67258c0.18966,0.01324 0.29098,0.08256 0.41099,0.15496c0.0862,0.04924 0.22346,0.03637 0.29576,0.15385z" fill="#5aa0a4"/><path d="M264.87546,190.67622c-0.11256,0.17555 -0.17277,0.37732 -0.35288,0.50664c-0.12344,-0.05532 -0.18407,-0.13571 -0.27503,-0.25621c0.07534,-0.18164 0.1879,-0.3572 0.33078,-0.49261c0.12344,0.05533 0.18752,0.11863 0.29707,0.24219z" fill="#bdd3d4"/><path d="M258.6559,192.41432c0.15114,-0.08118 0.28364,-0.16536 0.41611,-0.24957c0.15026,0.11258 0.23777,0.25018 0.32179,0.40482c-0.08357,0.12739 -0.22086,0.14038 -0.35118,0.11917c-0.16759,-0.02722 -0.33515,-0.05448 -0.38673,-0.27439z" fill="#bdd4d5"/><path d="M264.83079,186.15695c-0.13466,0.18958 -0.26586,0.36216 -0.40049,0.55174c-0.1135,-0.38856 -0.14078,-0.72789 0.29049,-0.95738c0.09438,0.10348 0.08531,0.24301 0.11001,0.40563z" fill="#bbd2d3"/><path d="M257.00381,191.74031c-0.13509,-0.09248 -0.18882,-0.20698 -0.2425,-0.32147c0.02424,-0.11942 0.12429,-0.13842 0.21263,-0.19454c0.06624,-0.04209 0.13594,-0.10125 0.25115,-0.10013c0.13509,0.09248 0.1005,0.26307 0.23215,0.37261c-0.14288,0.13541 -0.29052,0.19952 -0.45333,0.24356z" fill="#c3dadb"/><path d="M259.97481,187.1474c0.09961,-0.30105 0.19914,-0.60211 0.37321,-0.89106c0.10824,0.03524 0.1096,0.12359 0.09224,0.20888c-0.02641,0.22483 -0.07139,0.4466 -0.11295,0.65136c-0.03116,0.15355 -0.14983,0.16954 -0.35248,0.03081z" fill="#b1c6c7"/><path d="M262.7454,192.35676c0.06491,-0.13043 0.18705,-0.16346 0.27884,-0.23665c0.16499,-0.14944 0.33603,-0.13924 0.5422,-0.01757c-0.16021,0.2207 -0.41484,0.33791 -0.62872,0.44413c-0.12689,-0.03826 -0.17584,-0.08147 -0.1923,-0.18989z" fill="#bbd2d3"/><path d="M262.50462,187.38254c-0.0087,-0.33631 0.18051,-0.60513 0.35456,-0.89411c0.06327,0.25705 0.01128,0.51297 -0.01855,0.75486c-0.01254,0.15659 -0.07533,0.18166 -0.33601,0.13923z" fill="#bad1d2"/><path d="M264.92945,189.55704c0.10263,0.1577 0.2122,0.28128 0.31484,0.43894c-0.03594,0.08229 -0.11604,0.19264 -0.17752,0.30601c-0.31787,-0.13982 -0.3144,-0.15688 -0.25077,-0.37568c0.02426,-0.11942 0.06712,-0.23585 0.11343,-0.3693z" fill="#b5cbcc"/><path d="M261.05535,182.58194c0.1758,0.08148 0.27026,0.18494 0.36464,0.28842c-0.08703,0.14449 -0.24986,0.18848 -0.40096,0.26968c-0.11306,-0.10648 -0.2074,-0.20998 -0.32045,-0.31649c0.04978,-0.15052 0.22427,-0.15742 0.35681,-0.24162z" fill="#c0d7d8"/><path d="M263.51994,190.72023c0.10477,0.05231 0.16199,0.1497 0.21571,0.2642c-0.10089,0.21272 -0.2693,0.37922 -0.46807,0.50551c-0.1338,-0.00414 -0.16066,-0.06138 -0.18056,-0.15272c0.13808,-0.20667 0.27623,-0.41335 0.43298,-0.61697z" fill="#bdd4d4"/><path d="M264.00229,184.64746c-0.08056,-0.17173 -0.13904,-0.35747 -0.2196,-0.52921c0.09181,-0.07319 0.19184,-0.09219 0.30355,-0.07404c0.10477,0.0523 0.12473,0.14363 0.16327,0.23802c0.02339,0.07432 0.04678,0.1486 0.07018,0.22292c-0.07664,0.09331 -0.16498,0.14944 -0.31743,0.14227z" fill="#b6cccc"/><path d="M260.40326,183.70967c-0.10262,-0.1577 -0.19012,-0.29529 -0.3114,-0.45604c0.03938,-0.09934 0.11603,-0.19266 0.29402,-0.21659c0.11307,0.10648 0.2226,0.23006 0.35078,0.35665c-0.10219,0.12437 -0.18228,0.23475 -0.33342,0.31592z" fill="#c1d9d9"/><path d="M264.63967,185.29748c-0.10219,0.12437 -0.19744,0.21467 -0.3451,0.27875c-0.10263,-0.1577 -0.10523,-0.3344 -0.1334,-0.47996c0.06491,-0.13043 0.18358,-0.14639 0.28707,-0.18244c0.05239,0.02615 0.08964,0.03221 0.0862,0.04924c0.03505,0.11145 0.07016,0.2229 0.10523,0.3344z" fill="#b7cdce"/><path d="M265.3289,186.92534c-0.11086,-0.21193 -0.07972,-0.36547 -0.0858,-0.52509c-0.02125,-0.17971 0.10434,-0.22979 0.25198,-0.29391c0.10263,0.1577 0.10871,0.31731 0.15549,0.46593c-0.07187,0.16456 -0.26847,0.18548 -0.32171,0.35307z" fill="#b6cccc"/><path d="M264.28561,191.49685c-0.12079,0.12136 -0.21604,0.21161 -0.31477,0.31894c-0.17106,-0.0102 -0.28278,-0.02837 -0.3958,-0.13486c0.14289,-0.1354 0.26716,-0.27382 0.38794,-0.39517c0.17796,-0.02396 0.23165,0.09056 0.33993,0.12576c-0.00693,0.03412 0.00478,0.0713 -0.01729,0.08533z" fill="#c2dada"/><path d="M260.02473,182.73158c-0.08011,0.11032 -0.14634,0.15245 -0.24638,0.17146c-0.11521,-0.00112 -0.1758,-0.08147 -0.25854,-0.14778c-0.06412,-0.0633 -0.19098,-0.10155 -0.18536,-0.22402c0.11388,-0.08721 0.2429,-0.15436 0.41744,-0.16124c0.10958,0.12357 0.1819,0.24109 0.27286,0.36164z" fill="#bbd2d3"/><path d="M255.57261,190.92591c0.14765,-0.06411 0.25462,-0.11723 0.38018,-0.16731c0.10613,0.14064 0.15287,0.28925 0.2183,0.44091c-0.09524,0.09025 -0.20222,0.1434 -0.33255,0.12214c-0.0338,-0.02311 -0.06754,-0.04625 -0.07927,-0.0834c-0.06062,-0.08034 -0.1178,-0.17782 -0.18667,-0.31237z" fill="#bbd2d3"/><path d="M265.4356,189.62171c-0.18537,-0.22403 -0.18538,-0.22403 -0.21958,-0.5292c0.12081,-0.12136 0.27324,-0.11418 0.4512,-0.1381c0.00739,0.24798 -0.13072,0.45462 -0.23161,0.66734z" fill="#adc2c3"/><path d="M257.27191,192.03067c0.09524,-0.09025 0.22087,-0.14034 0.35464,-0.13619c0.10613,0.14064 0.19708,0.26112 0.28451,0.39875c-0.35118,0.11916 -0.36979,0.11615 -0.6392,-0.26253z" fill="#b5cbcc"/><path d="M263.25999,183.94513c-0.11734,0.10432 -0.20916,0.17748 -0.35682,0.24159c-0.13162,-0.10951 -0.15633,-0.27219 -0.24037,-0.42686c0.04764,-0.04513 0.09178,-0.07317 0.13594,-0.10127c0.04417,-0.02808 0.10348,-0.03606 0.16629,-0.0611c0.1572,0.07844 0.2295,0.19593 0.29494,0.3476z" fill="#bbd1d2"/><path d="M254.6181,189.94232c-0.16197,-0.14972 -0.13904,-0.35748 -0.20446,-0.50911c0.09873,-0.1073 0.23255,-0.10321 0.35815,-0.15328c0.09227,0.20886 0.09486,0.38556 0.0009,0.56415c-0.01041,0.05118 -0.09179,0.0732 -0.15457,0.09824z" fill="#b6cccd"/><path d="M256.83761,183.2708c-0.17536,0.20062 -0.3659,0.38112 -0.53778,0.56466c-0.12689,-0.03827 -0.19097,-0.10153 -0.24122,-0.23308c0.22427,-0.15742 0.44858,-0.3148 0.71835,-0.41195c0.03033,0.0402 0.04547,0.06028 0.06063,0.08034z" fill="#acc1c2"/><path d="M261.58171,186.52747c0.01085,0.2309 0.00307,0.45877 -0.0792,0.67449c-0.03596,0.08229 -0.10564,0.14145 -0.19873,0.12632c-0.0372,-0.00606 -0.10478,-0.05231 -0.10133,-0.06937c0.03332,-0.25895 0.21559,-0.49369 0.37925,-0.73145z" fill="#a7bbbb"/><path d="M262.76667,183.24799c-0.05803,0.09633 -0.1615,0.13237 -0.28361,0.16537c-0.10958,-0.12357 -0.21913,-0.24715 -0.32871,-0.37071c0.10219,-0.12437 0.21737,-0.12326 0.3477,-0.10207c0.10132,0.06936 0.1923,0.18988 0.26461,0.30743z" fill="#b7cdcd"/><path d="M260.04684,192.76391c0.12775,-0.15551 0.2754,-0.21957 0.44167,-0.28069c0.13856,0.07542 0.23645,0.16183 0.27976,0.3275c-0.24422,0.06603 -0.46422,0.01262 -0.72144,-0.0468z" fill="#b7cece"/><path d="M253.88701,188.23715c-0.0888,-0.22594 0.03071,-0.43562 -0.0278,-0.62138c0.09524,-0.09024 0.16628,-0.06107 0.19315,-0.00383c0.06541,0.15163 0.10873,0.31733 0.07408,0.48792c-0.02901,0.04817 -0.03249,0.06521 -0.23946,0.13732z" fill="#b4cacb"/><path d="M257.55816,183.51138c-0.10132,-0.06934 -0.14681,-0.12962 -0.16676,-0.22097c0.16499,-0.14944 0.33342,-0.31591 0.62181,-0.41002c-0.04026,0.29307 -0.24247,0.43643 -0.45506,0.631z" fill="#b2c8c9"/><path d="M256.33216,191.54296c0.11306,0.10648 0.19229,0.18989 0.20875,0.29832c-0.03247,0.06522 -0.0918,0.07323 -0.15114,0.08119c-0.23728,0.03191 -0.30616,-0.10269 -0.36462,-0.28842c0.10002,-0.01901 0.20353,-0.05505 0.30701,-0.09109z" fill="#b5cbcb"/><path d="M263.78687,187.41483c0.0264,-0.22483 0.06447,-0.41249 0.16189,-0.60814c0.09656,-0.0019 0.12342,0.05532 0.11304,0.10649c-0.00563,0.12248 0.00738,0.24799 0.00176,0.37043c-0.02772,0.13649 -0.10911,0.15848 -0.27668,0.13121z" fill="#91a3a3"/><path d="M256.78024,185.92291c0.0888,0.22594 0.02516,0.44472 -0.01641,0.64946c-0.00693,0.03412 -0.0511,0.06221 -0.0918,0.07319c-0.03721,-0.00606 -0.08619,-0.04924 -0.08273,-0.06633c-0.00739,-0.24798 0.07487,-0.46371 0.19091,-0.65634z" fill="#99abac"/><path d="M255.7688,186.35767c-0.1442,0.04706 -0.23729,0.0319 -0.25723,-0.05947c-0.01299,-0.12551 0.05888,-0.29004 0.17836,-0.49974c0.09575,0.19183 0.05764,0.37948 0.07886,0.55918z" fill="#93a5a6"/><path d="M261.89457,192.85289c0.18707,-0.16344 0.35895,-0.34701 0.66644,-0.15602c-0.19055,0.18049 -0.43259,0.14114 -0.66644,0.15602z" fill="#9aadad"/><path d="M262.26403,189.70519c-0.02817,-0.1456 -0.05286,-0.30821 -0.08447,-0.43676c0.07319,-0.07622 0.1325,-0.08421 0.24077,-0.04896c0.06196,0.16873 -0.04715,0.32723 -0.05969,0.48381c-0.03721,-0.00606 -0.05586,-0.0091 -0.09659,0.00192z" fill="#c5dddd"/><path d="M259.13124,186.3757c0.12257,0.24905 0.07753,0.47089 -0.04194,0.68057c-0.00347,0.01707 -0.04418,0.02809 -0.08142,0.02203c-0.05933,0.00797 -0.08619,-0.04924 -0.07925,-0.08338c0.01943,-0.1907 0.11689,-0.38639 0.20261,-0.61921z" fill="#aec2c3"/><path d="M254.89309,190.19853c0.10263,0.1577 0.12388,0.33738 0.14856,0.50006c-0.07317,0.07623 -0.14422,0.04705 -0.16761,-0.02724c-0.05025,-0.13157 -0.10393,-0.24604 -0.13208,-0.39162c-0.03033,-0.0402 0.03592,-0.08227 0.15112,-0.08117z" fill="#9caeaf"/><path d="M261.85254,182.72921c-0.15721,-0.07845 -0.25505,-0.16484 -0.36463,-0.28843c0.25592,-0.02889 0.45036,0.0556 0.6738,0.09195c-0.02902,0.04818 -0.03596,0.08229 -0.05803,0.09629c-0.08488,0.03906 -0.16626,0.06108 -0.25112,0.10017z" fill="#a9bebf"/><path d="M257.48634,188.6991c0.13729,-0.01292 0.20826,0.01624 0.2724,0.07958c-0.01603,0.17364 -0.10305,0.3181 -0.32389,0.45847c0.00431,-0.21082 0.03549,-0.36436 0.05147,-0.53802z" fill="#b9cfd0"/><path d="M263.41975,189.22337c0.07318,-0.07621 0.15114,-0.08115 0.22907,-0.08612c0.08618,0.04927 0.06888,0.13455 -0.07011,0.53498c-0.20268,-0.13871 -0.10873,-0.31732 -0.15896,-0.44887z" fill="#869797"/><path d="M258.00705,186.22815c-0.11127,0.26391 0.00784,0.53005 -0.2944,0.69238c-0.02256,-0.26806 0.0376,-0.46975 0.2944,-0.69238z" fill="#93a4a5"/><path d="M264.92484,186.73622c-0.05194,0.25591 -0.08658,0.42655 -0.1212,0.59717c-0.00693,0.03412 -0.0511,0.06221 -0.10694,0.05309c-0.01865,-0.00303 -0.0524,-0.02616 -0.06757,-0.04624c0.00428,-0.21079 0.04239,-0.39853 0.29569,-0.60404z" fill="#94a5a6"/><path d="M264.36558,189.11283c0.12559,-0.05005 0.18488,-0.05807 0.26415,0.02532c-0.00908,0.13951 -0.02162,0.29612 -0.11212,0.45766c-0.16195,-0.14975 -0.12732,-0.32032 -0.15204,-0.48295z" fill="#abbfc0"/><path d="M265.38289,185.80608c-0.10002,0.019 -0.14073,0.02999 -0.178,0.02393c-0.15636,-0.27218 -0.15633,-0.27215 -0.05199,-0.50193c0.16543,0.13265 0.13083,0.30325 0.22996,0.478z" fill="#acc0c1"/><path d="M262.30289,192.07326c0.13945,-0.11834 0.26369,-0.25675 0.42174,-0.37205c0.06624,-0.04209 0.14074,-0.02996 0.1758,0.08147c-0.165,0.14943 -0.32648,0.28178 -0.59755,0.29056z" fill="#9fb2b2"/><path d="M263.58433,183.7687c-0.07927,-0.08342 -0.12471,-0.14368 -0.14465,-0.23501c0.05109,-0.06222 0.11387,-0.08725 0.21045,-0.08917c0.10825,0.03525 0.16541,0.13266 0.22258,0.23008c-0.05803,0.09633 -0.1732,0.0952 -0.28836,0.09408z" fill="#aec2c3"/><path d="M259.98332,189.4753c-0.13162,-0.1095 -0.10741,-0.22899 -0.1018,-0.35144c0.01042,-0.05118 0.07316,-0.0762 0.12903,-0.06712c0.03721,0.00606 0.08621,0.04926 0.07926,0.08338c0.03508,0.11144 -0.02294,0.2078 -0.10651,0.33518z" fill="#91a2a3"/><path d="M260.62789,182.31854c-0.26371,0.25675 -0.28576,0.27082 -0.47937,-0.00743c0.15589,-0.00988 0.30355,-0.07402 0.47937,0.00743z" fill="#869696"/><path d="M254.7295,186.17099c-0.13988,-0.16377 -0.06326,-0.25702 -0.02039,-0.37346c0.15025,0.11258 0.15025,0.11258 0.02039,0.37346z" fill="#555f5f"/><path d="M261.21261,189.19934c-0.01731,0.08532 -0.04155,0.20472 -0.12165,0.3151c-0.13642,-0.18082 -0.12256,-0.24905 -0.02388,-0.35637c0.02555,-0.0311 0.08143,-0.02203 0.1455,0.0413z" fill="#93a5a6"/><path d="M265.67916,186.99992c0.14466,0.23502 0.11914,0.26613 -0.18923,0.26884c-0.01299,-0.12552 0.07876,-0.1987 0.18923,-0.26884z" fill="#8b9b9c"/><path d="M254.45968,185.51026c0.02123,0.17971 -0.02509,0.31314 -0.07144,0.44665c-0.1221,0.03303 -0.17105,-0.01021 -0.15718,-0.07846c0.0277,-0.13649 0.07403,-0.26996 0.22858,-0.36819z" fill="#9aacad"/><path d="M264.903,184.75864c0.09438,0.10348 0.19574,0.17285 0.14943,0.30632c-0.00348,0.01707 -0.02554,0.03111 -0.04416,0.02809c-0.16067,-0.06139 -0.17714,-0.16983 -0.10525,-0.33439z" fill="#5f6a6b"/><path d="M258.7634,189.13594c-0.04201,-0.07733 -0.02817,-0.14561 0.00433,-0.21082c0.02555,-0.0311 0.06971,-0.05916 0.10349,-0.03603c0.0338,0.02311 0.06412,0.0633 0.05715,0.09743c-0.01387,0.06822 -0.04633,0.13345 -0.16498,0.14941z" fill="#636e6f"/><path d="M263.03869,183.04549c0.14074,-0.02997 0.23037,0.0022 0.27716,0.15081c-0.16281,0.04401 -0.22692,-0.01925 -0.27716,-0.15081z" fill="#4a5354"/></g><g data-paper-data="{&quot;index&quot;:null}" fill="#000000" stroke="#000000" stroke-width="1.2"><path d="M245.93122,206.42596c-0.09921,-1.86342 2.12124,-4.36804 2.85851,-6.54137c0.79379,-2.3399 0.11006,-4.17603 1.38659,-5.20851c0.89165,-0.72117 2.4494,-0.4113 3.23434,-0.14502c1.90872,0.64749 2.36309,4.39421 1.01487,8.36851c-1.34821,3.9743 -3.98848,6.67122 -5.89718,6.02372c-0.86493,-0.29341 -2.5149,-0.95317 -2.59713,-2.49731z"/><path d="M248.57923,209.60546c-0.11471,-2.59946 2.7222,-7.88806 2.7222,-7.88806c0,0 0.15527,-3.92513 0.18452,-4.00662c1.86307,-5.19354 5.18805,-4.13007 8.94649,-2.85507c1.78877,0.6068 4.29333,2.26519 4.71617,4.23238c0.47955,2.23102 -0.94429,4.63881 -1.93416,7.55675c-1.86268,5.4908 -5.70992,9.38987 -9.52734,8.09487c-1.68041,-0.57005 -4.95464,-1.66238 -5.10786,-5.13425z"/></g></g><path d="M223.85087,205.77918l1.52272,-16.80929l13.97805,0.80143l5.52987,14.966c0,0 -2.97195,1.91287 -6.31085,2.07828c-3.64452,0.18055 -14.71979,-1.03643 -14.71979,-1.03643z" fill="#000000" fill-rule="nonzero" stroke="#000000" stroke-width="0.5" stroke-linecap="butt" stroke-linejoin="miter"/><path d="M214.95414,209.63204l-6.07339,-5.65119l14.72576,-15.04059l5.51238,5.09019z" fill="#000000" fill-rule="nonzero" stroke="#000000" stroke-width="0.5" stroke-linecap="butt" stroke-linejoin="miter"/><path d="M210.86287,211.95197c-1.38155,-1.2544 -1.5658,-4.59649 -2.57097,-6.65963c-1.08219,-2.22128 -2.85991,-3.04504 -2.67919,-4.67687c0.12624,-1.13982 1.45123,-2.0156 2.19638,-2.37864c1.81194,-0.88279 4.7709,1.46005 6.60901,5.23286c1.83812,3.7728 1.85934,7.54692 0.0474,8.42969c-0.82108,0.40003 -2.45778,1.09206 -3.60262,0.0526z" fill="#000000" fill-rule="nonzero" stroke="#000000" stroke-width="1.2" stroke-linecap="butt" stroke-linejoin="miter"/><path d="M214.98161,212.34835c-1.91041,-1.76654 -3.61532,-7.52073 -3.61532,-7.52073c0,0 -2.65126,-2.89855 -2.68781,-2.97704c-2.33006,-5.00147 0.78098,-6.58509 4.34888,-8.32336c1.69807,-0.82731 4.64467,-1.41095 6.32921,-0.3105c1.91046,1.24803 2.59268,3.96084 3.94222,6.73085c2.53948,5.21244 2.54879,10.69002 -1.07509,12.45557c-1.59521,0.77719 -4.6905,2.3046 -7.24208,-0.05481z" fill="#000000" fill-rule="nonzero" stroke="#000000" stroke-width="1.2" stroke-linecap="butt" stroke-linejoin="miter"/><g fill-rule="nonzero" stroke-linejoin="miter"><path d="M262.43039,164.81094c-0.60842,13.43725 -12.48536,23.81485 -26.5279,23.17902c-14.04253,-0.63583 -24.93303,-12.04431 -24.3246,-25.48156c0.60842,-13.43725 12.48536,-23.81485 26.5279,-23.17902c14.04253,0.63583 24.93303,12.04431 24.3246,25.48156z" fill="none" stroke="#000000" stroke-width="4.5" stroke-linecap="butt"/><path d="M226.0628,141.82463c0,0 -9.41554,4.9038 -13.21722,13.15853c-2.62477,5.69928 -0.39223,15.01557 0.56409,17.17863c3.22278,7.28945 8.69371,12.24282 6.22397,10.02767c-2.74529,-2.4623 -3.34111,-6.43194 -5.49475,-7.24635c-1.26118,-0.47692 -6.15305,1.54927 -11.77413,-5.88793c-1.87938,-2.48659 -4.18241,-14.70111 2.36351,-21.67933c1.62181,-1.72893 14.42187,-9.5207 18.90089,-10.7305c11.55737,-3.1217 18.32141,0.99558 18.32141,0.99558" fill="url(#color-1)" stroke="#000000" stroke-width="3" stroke-linecap="round"/><path d="M260.00153,176.60859c-1.04938,0 -6.64576,-5.59746 -9.30326,-11.90768c-2.06029,-4.89215 -1.57451,-10.65821 -0.78413,-11.74791c0.55746,-0.76857 3.65562,-4.91483 5.93732,-3.13584c2.68619,2.09436 5.40161,7.45411 5.40161,7.45411c0,0 5.13143,-8.137 7.65341,-7.31873c1.22305,0.39683 2.34213,7.24945 0.29648,13.29895c-2.37567,7.02544 -8.14345,13.35709 -9.20143,13.35709z" fill="url(#color-2)" stroke="#cb0000" stroke-width="4.5" stroke-linecap="butt"/><path d="M234.97619,176.86205c-1.07662,0 -6.81826,-5.74276 -9.54473,-12.21677c-2.11376,-5.01913 -1.61538,-10.93484 -0.80449,-12.05282c0.57193,-0.78852 3.75051,-5.04241 6.09144,-3.21724c2.75591,2.14872 5.54181,7.64758 5.54181,7.64758c0,0 5.26462,-8.34819 7.85206,-7.50868c1.25479,0.40713 2.40292,7.43762 0.30417,13.64415c-2.43733,7.2078 -8.35483,13.70378 -9.44025,13.70378z" fill="url(#color-3)" stroke="#cb0000" stroke-width="4.5" stroke-linecap="butt"/><path d="M220.22176,182.94398c0,0.63772 -0.22529,8.41259 -5.56091,11.23346c-3.5035,1.85226 -12.81081,-0.45121 -13.06223,-1.22173c-2.27128,-6.96055 1.27626,-19.81464 6.04147,-19.81464c3.60076,0 4.40428,0.1347 6.86003,2.36156c1.70182,1.5432 5.72164,4.49234 5.72164,7.44134z" fill="url(#color-4)" stroke="#000000" stroke-width="3" stroke-linecap="butt"/><path d="M227.64141,180.05593c0,0 -6.38826,-2.9007 -7.59928,-4.44968c-0.9218,-1.17905 0.9611,-4.04102 0.9611,-4.04102" fill="none" stroke="#000000" stroke-width="3" stroke-linecap="round"/></g></g></g></svg>