<svg version="1.1" xmlns="http://www.w3.org/2000/svg" xmlns:xlink="http://www.w3.org/1999/xlink" width="70.37909" height="52.74737" viewBox="0,0,70.37909,52.74737"><defs><radialGradient cx="240.19652" cy="180.3804" r="35.38604" gradientUnits="userSpaceOnUse" id="color-1"><stop offset="0" stop-color="#ff9494"/><stop offset="1" stop-color="#ff9494" stop-opacity="0"/></radialGradient></defs><g transform="translate(-204.81047,-153.62634)"><g data-paper-data="{&quot;isPaintingLayer&quot;:true}" fill-rule="nonzero" stroke-linecap="butt" stroke-linejoin="miter" stroke-miterlimit="10" stroke-dasharray="" stroke-dashoffset="0" style="mix-blend-mode: normal"><path d="M238.46263,195.85395c-0.08726,0 -1.65883,-2.32378 -1.75369,-4.74778c-0.10303,-2.6326 1.27157,-5.3834 1.2034,-5.40402c-0.00081,-0.00025 -18.09003,2.06136 -18.09011,2.0613c-0.09171,-0.05166 -11.08377,-6.29343 -10.89437,-11.00841c0.17091,-4.25431 10.46258,-12.43655 10.46258,-12.51041c0,-0.02474 16.9546,3.5685 16.95588,3.5683c0.11883,-0.01858 -2.28727,-2.7612 -2.46829,-5.43424c-0.1833,-2.70663 1.85683,-5.3459 1.72029,-5.66096c-0.01293,-0.02983 9.73319,2.83307 17.53341,7.2085c7.51021,4.21276 13.08525,9.94286 13.08572,9.98403c0.00047,0.04111 -4.54431,7.75953 -11.5916,13.32325c-6.82005,5.38431 -16.14983,8.62045 -16.16322,8.62045z" fill="#000000" stroke="#000000" stroke-width="4"/><path d="M240.89121,199.56824c-0.08726,0 -1.65883,-2.32378 -1.75369,-4.74778c-0.10303,-2.6326 1.27157,-5.3834 1.2034,-5.40402c-0.00081,-0.00025 -18.09003,2.06136 -18.09011,2.0613c-0.09171,-0.05166 -11.08377,-6.29343 -10.89437,-11.00841c0.17091,-4.25431 10.46258,-12.43655 10.46258,-12.51041c0,-0.02474 16.9546,3.5685 16.95588,3.5683c0.11883,-0.01858 -2.28727,-2.7612 -2.46829,-5.43424c-0.1833,-2.70663 1.85683,-5.3459 1.72029,-5.66096c-0.01293,-0.02983 9.73319,2.83307 17.53341,7.2085c7.51021,4.21276 13.08525,9.94286 13.08572,9.98403c0.00047,0.04111 -4.54431,7.75953 -11.5916,13.32325c-6.82005,5.38431 -16.14983,8.62045 -16.16322,8.62045z" fill="#ff7b7b" stroke="#520000" stroke-width="4"/><path d="M262.01133,196.8913c-6.38555,4.60999 -12.15422,9.48241 -21.81481,9.48241c-3.93419,0 -1.36948,-7.57222 -4.9047,-8.44267c-5.38195,-1.32516 -12.06094,1.60291 -17.32854,0.06636c-8.46048,-2.4679 -13.1528,-10.55073 -13.1528,-17.61698c0,-6.05137 4.80218,-16.47403 11.48442,-19.23544c4.7499,-1.96288 10.63452,3.33266 15.58914,1.59585c4.61069,-1.61625 0.24889,-9.11449 5.6982,-9.11449c8.67883,0 17.56158,5.59178 23.7175,9.40076c3.63121,2.24681 13.76409,8.1696 13.88833,14.42703c0.14113,7.10782 -9.72255,16.94346 -13.17675,19.43718z" fill="url(#color-1)" stroke="none" stroke-width="0"/></g></g></svg>