<svg version="1.1" xmlns="http://www.w3.org/2000/svg" xmlns:xlink="http://www.w3.org/1999/xlink" width="84.54467" height="114.67859" viewBox="0,0,84.54467,114.67859"><defs><linearGradient x1="213.24401" y1="166.71275" x2="190.82061" y2="165.95021" gradientUnits="userSpaceOnUse" id="color-1"><stop offset="0" stop-color="#000000"/><stop offset="1" stop-color="#000000" stop-opacity="0"/></linearGradient></defs><g transform="translate(-190.32436,-135.18678)"><g data-paper-data="{&quot;isPaintingLayer&quot;:true}" stroke-miterlimit="10" stroke-dasharray="" stroke-dashoffset="0" style="mix-blend-mode: normal"><path d="M235.57452,189.53538l-0.98643,15.86593" fill="none" fill-rule="nonzero" stroke="#000000" stroke-width="6" stroke-linecap="round" stroke-linejoin="miter"/><path d="M209.48636,211.82793c0.35262,-0.45183 16.59812,-18.99142 19.73868,-21.18521c2.8686,-2.00381 6.29691,0.49534 6.29691,0.49534c0,0 6.35362,5.27408 9.24559,6.61526c1.81613,0.84225 5.03497,-0.14324 5.03497,-0.14324" fill="none" fill-rule="nonzero" stroke="#000000" stroke-width="6" stroke-linecap="round" stroke-linejoin="miter"/><path d="M243.71915,204.1031l2.92297,25.98777c0,0 7.06267,0.41252 6.89471,7.51322c-0.00958,0.40481 -0.10976,2.39235 -3.02746,2.97403c-2.79456,0.55712 -8.36532,-0.27515 -10.40081,-0.59138c-0.94539,-0.14688 -2.3855,-0.78756 -3.30585,-1.88454c-0.92663,-1.1045 -0.82654,-2.71079 -0.82591,-3.6144c0.00025,-0.36804 -2.07942,-29.30669 -2.07942,-29.30669" fill="#000000" fill-rule="evenodd" stroke="#001026" stroke-width="1.2" stroke-linecap="round" stroke-linejoin="round"/><path d="M233.75789,209.71143c0,0 -3.38365,30.23157 -4.0011,30.33136c-1.77192,0.28635 -11.48215,-2.27779 -11.48215,-2.27779l6.24171,-30.39505" data-paper-data="{&quot;index&quot;:null}" fill="#000000" fill-rule="evenodd" stroke="#001026" stroke-width="1.2" stroke-linecap="round" stroke-linejoin="round"/><path d="M232.09406,238.15796c-0.02471,0.4906 -0.78326,4.37077 -2.69077,7.11812c-1.4878,2.14285 -4.06623,3.2049 -4.98327,3.98929c-1.09796,0.93914 -4.37918,-1.08183 -5.95259,-4.45725c-1.25725,-2.69714 -0.97219,-6.71096 -0.93513,-7.44681c0.1713,-3.40126 1.92809,0.46456 6.39105,0.73978c4.46293,0.27521 8.34201,-3.3444 8.17069,0.05688z" fill="#92ff66" fill-rule="nonzero" stroke="#001026" stroke-width="1.2" stroke-linecap="butt" stroke-linejoin="miter"/><g data-paper-data="{&quot;index&quot;:null}" fill="#000000" fill-rule="nonzero" stroke="#000000" stroke-width="1.2" stroke-linecap="butt" stroke-linejoin="miter"><path d="M259.53617,204.82149c-1.39652,0.63085 -3.97454,-0.32259 -5.85733,-0.2396c-2.0271,0.08933 -3.22867,1.15938 -4.39897,0.48993c-0.81744,-0.46761 -1.04419,-1.75203 -1.07416,-2.43204c-0.07289,-1.65355 2.65915,-3.11704 6.10215,-3.26879c3.44301,-0.15176 6.29321,1.0657 6.36609,2.71924c0.03303,0.7493 0.01947,2.20849 -1.13776,2.73126z"/><path d="M261.18084,201.84814c-1.95519,0.8619 -6.84736,0.26575 -6.84736,0.26575c0,0 -3.05012,1.05006 -3.1212,1.05195c-4.52941,0.12082 -4.70571,-2.74047 -4.84921,-5.99647c-0.06831,-1.54964 0.455,-3.96023 1.83456,-4.86965c1.56458,-1.03139 3.83127,-0.65876 6.35913,-0.77017c4.75678,-0.20964 8.88642,1.5735 9.03218,4.8806c0.06416,1.45577 0.20327,4.28681 -2.40811,5.43798z"/></g><path d="M220.90157,215.87092c0,0 7.23416,-26.78691 9.1924,-28.46357c0.57497,-0.49229 10.92189,-0.04146 10.92189,-0.04146l7.91429,39.22487z" fill="#92ff66" fill-rule="nonzero" stroke="#000000" stroke-width="1" stroke-linecap="butt" stroke-linejoin="miter"/><path d="M236.49384,240.21611c-1.60575,-1.19302 -2.25986,-3.39806 -2.15991,-5.05479c0.03057,-0.50678 7.68604,-0.66832 11.11866,-2.06752c2.71266,-1.10573 1.28615,-3.62809 1.82152,-3.22762c0.11104,0.08306 2.41338,0.33854 5.06018,2.71517c1.71769,1.54236 4.07661,5.4665 4.38914,5.75655c0.5514,0.51174 0.17694,2.66529 -3.97455,3.1422c-5.47186,0.62859 -15.2936,-0.54968 -16.25503,-1.26399z" fill="#92ff66" fill-rule="nonzero" stroke="#001026" stroke-width="1.2" stroke-linecap="butt" stroke-linejoin="miter"/><path d="M244.72257,204.9814l-0.15355,-6l23.8,-0.4v6.6" fill="none" fill-rule="nonzero" stroke="#000000" stroke-width="1" stroke-linecap="round" stroke-linejoin="miter"/><path d="M239.96903,219.9814v-15.8h34.4v15.8z" fill="#92ff66" fill-rule="nonzero" stroke="#000000" stroke-width="1" stroke-linecap="butt" stroke-linejoin="miter"/><path d="M252.36903,212.1814c0,2.76142 -2.28335,5 -5.1,5c-2.81665,0 -5.1,-2.23858 -5.1,-5c0,-2.76142 2.28335,-5 5.1,-5c2.81665,0 5.1,2.23858 5.1,5z" fill="#8e8888" fill-rule="nonzero" stroke="#000000" stroke-width="1" stroke-linecap="butt" stroke-linejoin="miter"/><path d="M271.76903,212.1814c0,2.76142 -2.14903,5 -4.8,5c-2.65097,0 -4.8,-2.23858 -4.8,-5c0,-2.76142 2.14903,-5 4.8,-5c2.65097,0 4.8,2.23858 4.8,5z" fill="#8e8888" fill-rule="nonzero" stroke="#000000" stroke-width="1" stroke-linecap="butt" stroke-linejoin="miter"/><path d="M261.36903,215.8814c0,0.71797 -1.79086,1.3 -4,1.3c-2.20914,0 -4,-0.58203 -4,-1.3c0,-0.71797 1.79086,-1.3 4,-1.3c2.20914,0 4,0.58203 4,1.3z" fill="#8e8888" fill-rule="nonzero" stroke="#000000" stroke-width="1" stroke-linecap="butt" stroke-linejoin="miter"/><path d="M229.95579,226.08156c0,0 -2.49763,1.0461 -3.50879,0.77033c-1.07959,-0.29444 -2.77692,-2.48462 -2.77692,-2.48462" fill="none" fill-rule="nonzero" stroke="#001026" stroke-width="1" stroke-linecap="round" stroke-linejoin="miter"/><path d="M244.67008,225.36727c0,0 -2.58743,1.64272 -3.85496,1.74213c-1.14948,0.09015 -3.43075,-1.1707 -3.43075,-1.1707" fill="none" fill-rule="nonzero" stroke="#001026" stroke-width="1" stroke-linecap="round" stroke-linejoin="miter"/><g fill-rule="nonzero" stroke-linejoin="miter"><path d="M262.12347,164.41164c-0.45715,13.44325 -12.21655,23.95386 -26.26535,23.47611c-14.0488,-0.47775 -25.067,-11.76294 -24.60984,-25.20618c0.45715,-13.44325 12.21655,-23.95386 26.26535,-23.47611c14.0488,0.47775 25.067,11.76294 24.60984,25.20618z" fill="none" stroke="#000000" stroke-width="4.5" stroke-linecap="butt"/><path d="M230.03945,188.56398l-29.42275,-1.2344c0,0 -2.39144,-0.42086 -2.01428,-1.31005c0.86488,-2.03897 7.09884,-10.67708 7.09884,-10.67708l-11.54382,-4.36795c0,0 -2.09741,-0.97567 -2.37926,-2.08514c-0.26219,-1.03209 11.44259,-10.00055 11.44259,-10.00055c0,0 -8.13954,-3.88855 -10.3103,-5.94451c-0.8524,-0.80733 11.95504,-8.02657 20.74511,-11.45838c4.30123,-1.67929 10.1751,-4.22869 14.88778,-4.79914c7.81394,-0.94584 13.73067,1.54847 13.73067,1.54847" fill="none" stroke="#000000" stroke-width="3" stroke-linecap="round"/><path d="M198.74809,187.26603c0,0 -0.48215,-1.42108 0.81231,-3.31104c1.62135,-2.36722 7.06914,-5.43465 5.49651,-7.85096c-2.03718,-3.13008 -14.65509,-3.10147 -12.97242,-6.89347c1.38165,-3.11369 10.83233,-8.25947 10.90273,-10.32968c0.07025,-2.06565 -4.53769,-0.96431 -7.06222,-3.80282c-3.59043,-4.03696 -1.7931,-3.98142 -1.7931,-3.98142c0,0 11.96781,-7.06977 17.74358,-9.32161c5.41895,-2.11272 15.90888,-3.79868 15.90888,-3.79868c0,0 -15.39328,13.23146 -17.79721,21.20307c-2.66481,8.83666 14.25261,28.01811 14.25261,28.01811z" data-paper-data="{&quot;index&quot;:null}" fill="url(#color-1)" stroke="none" stroke-width="0" stroke-linecap="butt"/><path d="M232.69596,184.97108c-0.54218,0.0061 -3.39339,0.18806 -5.09449,-1.19035c-2.56342,-2.07716 -4.13401,-6.07878 -4.14078,-6.68017c-0.00637,-0.56647 4.2758,1.08797 8.8492,1.66341c3.97231,0.49981 8.35204,-0.12723 7.98965,0.17377c-0.44021,0.36564 -1.88726,3.27312 -3.90419,4.90213c-1.30489,1.05392 -3.44085,1.1283 -3.6994,1.13121z" fill="#ff0000" stroke="#000000" stroke-width="2.5" stroke-linecap="butt"/><path d="M234.60864,165.18586c0.03108,2.76124 -1.21708,3.2306 -3.61017,3.25753c-2.39308,0.02694 -2.69169,-0.425 -2.72277,-3.18625c-0.03108,-2.76124 0.21714,-5.00276 2.61023,-5.02969c2.39308,-0.02694 3.69163,2.19717 3.72271,4.95842z" fill="#070606" stroke="#000000" stroke-width="5" stroke-linecap="butt"/><path d="M248.77254,164.85977c0.02797,2.48512 -1.07348,2.72894 -3.28248,2.75381c-2.209,0.02486 -2.85395,-0.03262 -2.88192,-2.51774c-0.02797,-2.48512 0.57163,-4.6734 2.78063,-4.69826c2.209,-0.02486 3.35579,1.97708 3.38376,4.4622z" fill="#070606" stroke="#000000" stroke-width="5" stroke-linecap="butt"/><path d="M228.80939,160.84247l-4.33305,0.04877" fill="none" stroke="#000000" stroke-width="5" stroke-linecap="round"/><path d="M246.63785,160.30845l6.33856,0.42869" fill="none" stroke="#000000" stroke-width="5" stroke-linecap="round"/></g></g></g></svg>