<svg version="1.1" xmlns="http://www.w3.org/2000/svg" xmlns:xlink="http://www.w3.org/1999/xlink" width="78.06565" height="101.05906" viewBox="0,0,78.06565,101.05906"><defs><linearGradient x1="216.9157" y1="168.44571" x2="195.19809" y2="162.8123" gradientUnits="userSpaceOnUse" id="color-1"><stop offset="0" stop-color="#000000"/><stop offset="1" stop-color="#000000" stop-opacity="0"/></linearGradient></defs><g transform="translate(-195.3946,-142.41557)"><g data-paper-data="{&quot;isPaintingLayer&quot;:true}" stroke-miterlimit="10" stroke-dasharray="" stroke-dashoffset="0" style="mix-blend-mode: normal"><path d="M223.34129,207.83174c0,0 -0.95444,-5.03343 -0.26485,-5.91705c1.24863,-1.59996 14.25155,-5.52131 14.25155,-5.52131c0,0 5.10779,5.42941 8.14332,7.21827c2.83454,1.67041 10.79433,0.6195 10.79433,0.6195" fill="none" fill-rule="nonzero" stroke="#000000" stroke-width="6" stroke-linecap="round" stroke-linejoin="miter"/><path d="M237.04435,197.43585l-2.08882,10.17024" fill="none" fill-rule="nonzero" stroke="#000000" stroke-width="6" stroke-linecap="round" stroke-linejoin="miter"/><g stroke="#001026" stroke-width="1.2"><g><g><path d="M243.85778,205.64601l3.03049,24.96827c0,0 7.32248,0.39634 7.14834,7.21848c-0.00993,0.38893 -0.1138,2.2985 -3.13883,2.85736c-2.89737,0.53526 -8.67304,-0.26436 -10.78342,-0.56818c-0.98017,-0.14112 -2.47325,-0.75666 -3.42746,-1.81061c-0.96072,-1.06117 -0.85695,-2.60445 -0.85629,-3.4726c0.00026,-0.3536 -2.15592,-28.15699 -2.15592,-28.15699" fill="#bf0000" fill-rule="evenodd" stroke-linecap="round" stroke-linejoin="round"/><path d="M233.49379,212.31237c0.17846,-6.99158 5.72143,-7.11258 8.60942,-7.04928c1.25581,0.02752 1.08609,-1.84108 2.19744,3.6273c0.24476,1.20435 0.72574,6.14864 1.75428,10.35702c0.70431,2.88173 2.02539,5.4263 2.27221,6.15735c0.58315,1.72728 0.34326,3.30188 0.34326,3.30188l-1.05734,-1.14436c0,0 0.69674,0.79751 0.97576,1.27336c0.86925,1.48238 1.53417,2.60121 1.53417,2.60121c0,0 -7.38528,-0.44196 -10.2617,1.73874c-2.87643,2.1807 -1.45109,6.28522 -1.45109,6.28522c0,0 -5.47174,-0.77914 -5.91024,-3.57647c-0.10811,-0.68961 0.74056,-2.74179 0.74056,-2.74179c0,0 -0.62565,0.11608 -0.64592,-0.36141c-0.01033,-0.24341 0.82801,-3.8543 1.01427,-7.91635c0.2452,-5.34738 -0.14079,-11.54505 -0.11509,-12.55242z" fill="#000000" fill-rule="nonzero" stroke-linecap="butt" stroke-linejoin="miter"/></g><path d="M224.10543,207.34885c-0.01022,-0.20523 1.2428,0.39985 4.08208,0.46978c3.74575,0.09226 9.48223,-0.3205 11.0953,-0.53169c4.18295,-0.54765 4.8908,-2.00532 4.91788,-1.46129c0.10021,2.01325 -2.26579,5.74247 -7.05105,5.94702c-2.10289,0.08989 -6.40408,0.76406 -8.83975,0.05526c-3.10683,-0.90411 -4.14827,-3.3506 -4.20446,-4.47911z" fill="#004fd9" fill-rule="nonzero" stroke-linecap="butt" stroke-linejoin="miter"/><g fill="#000000"><g fill-rule="evenodd" stroke-linecap="round" stroke-linejoin="round" font-family="&quot;Helvetica Neue&quot;, Helvetica, Arial, sans-serif" font-weight="400" font-size="16" text-anchor="start"/><path d="M223.6007,206.03952c0,0 8.98819,1.26736 13.11853,1.24969c4.13033,-0.01767 7.53318,-1.33804 7.53318,-1.33804c0,0 0.03251,1.97066 -1.80947,3.8886c-1.42581,1.4846 -4.16605,3.02254 -7.70788,3.05517c-3.22669,0.02972 -6.82655,-0.59842 -8.60847,-1.88739c-2.70085,-1.95371 -2.52588,-4.96804 -2.52588,-4.96804z" fill-rule="nonzero" stroke-linecap="butt" stroke-linejoin="miter"/></g><g><path d="M233.53015,211.03434c0,0 -3.50812,29.04559 -4.14828,29.14146c-1.8371,0.27512 -11.90454,-2.18843 -11.90454,-2.18843l6.47132,-29.20265" data-paper-data="{&quot;index&quot;:null}" fill="#ffab19" fill-rule="evenodd" stroke-linecap="round" stroke-linejoin="round"/><path d="M235.08056,210.56606c0,0 -0.81951,6.14206 -1.06157,9.39871c-0.23216,3.12363 -0.36231,9.75881 -0.36231,9.75881c0,0 0.9841,4.8213 0.02197,6.01023c-0.44562,0.55067 -0.79677,-2.72202 -0.79677,-2.72202c0,0 0.392,3.68947 0.4306,4.01466c0.2693,2.26895 -0.95973,5.24852 -4.18036,5.53159c-3.53604,0.31079 -9.39827,0.66181 -12.4203,-1.13328c-1.28582,-0.76379 -3.02754,-3.01211 -2.55877,-5.40718c0.52865,-2.70101 3.36761,-5.53064 3.36761,-5.53064l-2.60866,3.08443c0,0 -0.02719,-1.54011 0.39727,-2.66985c0.47667,-1.26871 2.32437,-4.57397 2.32437,-4.57397l5.60117,-18.60145" data-paper-data="{&quot;index&quot;:null}" fill="#000000" fill-rule="evenodd" stroke-linecap="round" stroke-linejoin="round"/><path d="M231.80504,238.36493c-0.08863,1.6309 -0.81168,3.52576 -2.38105,4.5097c-1.5752,0.98758 -11.04217,0.59621 -12.5057,-0.61075c-1.38988,-1.14622 -1.95604,-3.26476 -1.86953,-4.85649c0.1776,-3.26783 4.07259,-5.70259 8.69972,-5.43817c4.6271,0.26442 8.23416,3.12788 8.05654,6.39573z" fill="#ff0000" fill-rule="nonzero" stroke-linecap="butt" stroke-linejoin="miter"/></g></g><g fill="#000000" fill-rule="nonzero" stroke-linecap="butt" stroke-linejoin="miter"><path d="M224.95815,217.09927c0,0 -3.02186,0.44072 -3.94622,0.18814c-0.28454,-0.07776 -1.04418,-0.97562 -1.4327,-2.04536c-0.48493,-1.33514 -0.54897,-2.98095 -0.20649,-4.13059c0.88114,-2.95781 5.43013,-6.18384 7.56312,-5.601c0.92442,0.25259 3.34284,2.65648 3.34466,2.66251"/></g></g><g stroke-linejoin="miter"><path d="M265.1208,176.85768c-3.37733,13.02012 -17.14553,20.71381 -30.75215,17.18434c-13.60661,-3.52947 -21.89908,-16.94555 -18.52174,-29.96567c3.37733,-13.02012 17.14553,-20.71381 30.75215,-17.18434c13.60661,3.52947 21.89908,16.94555 18.52174,29.96567z" fill="none" fill-rule="nonzero" stroke="#000000" stroke-width="4.5" stroke-linecap="butt"/><g><g fill-rule="nonzero" stroke-linecap="butt"><path d="M229.84076,151.45822l-0.00904,-0.01072" data-paper-data="{&quot;index&quot;:null}" fill="#ffab19" stroke="#000000" stroke-width="5"/><g data-paper-data="{&quot;index&quot;:null}" fill="none" stroke="none" stroke-width="1" font-family="sans-serif" font-weight="normal" font-size="12" text-anchor="start"/></g><path d="M229.84076,151.45822l-0.00904,-0.01072" data-paper-data="{&quot;index&quot;:null}" fill="#ffab19" fill-rule="nonzero" stroke="#000000" stroke-width="5" stroke-linecap="butt"/><path d="M239.89498,171.5777" fill="#001026" fill-rule="evenodd" stroke="#000000" stroke-width="5" stroke-linecap="butt"/><g data-paper-data="{&quot;index&quot;:null}" fill="none" fill-rule="nonzero" stroke="none" stroke-width="1" stroke-linecap="butt" font-family="sans-serif" font-weight="normal" font-size="12" text-anchor="start"/><g data-paper-data="{&quot;index&quot;:null}" fill="none" fill-rule="nonzero" stroke="none" stroke-width="1" stroke-linecap="butt" font-family="sans-serif" font-weight="normal" font-size="12" text-anchor="start"/><path d="M270.96025,156.66766c-2.05208,1.66395 -17.05396,13.3035 -17.05396,13.3035" fill="none" fill-rule="nonzero" stroke="#000000" stroke-width="5" stroke-linecap="round"/><path d="M223.77674,156.25719c0,0 -1.03098,-0.72518 -0.51396,-0.46095c2.67386,1.36658 26.19297,13.58516 26.19297,13.58516" fill="none" fill-rule="nonzero" stroke="#000000" stroke-width="5" stroke-linecap="round"/></g><path d="M244.04374,180.42204l3.4537,-12.38369" fill="none" fill-rule="nonzero" stroke="#000000" stroke-width="4.5" stroke-linecap="round"/><path d="M256.0523,168.56731l-3.62973,13.06236" fill="none" fill-rule="nonzero" stroke="#000000" stroke-width="4.5" stroke-linecap="round"/><path d="M228.54258,193.43328l-28.44567,-7.62006c0,0 -2.24214,-0.93217 -1.68016,-1.71773c1.28864,-1.80133 9.25609,-8.87235 9.25609,-8.87235l-10.31368,-6.77988c0,0 -1.83421,-1.40952 -1.86736,-2.55375c-0.03084,-1.06443 13.3478,-7.26498 13.3478,-7.26498c0,0 -7.09583,-5.56974 -8.76608,-8.04955c-0.65586,-0.97376 13.41752,-5.22675 22.74437,-6.65941c4.56389,-0.70104 10.85231,-1.90836 15.57599,-1.43752c7.83217,0.78068 13.06268,4.50505 13.06268,4.50505" fill="none" fill-rule="nonzero" stroke="#000000" stroke-width="3" stroke-linecap="round"/><path d="M198.28711,185.34377c0,0 -0.16069,-1.49202 1.51471,-3.05426c2.09849,-1.95674 8.08403,-3.76254 7.07609,-6.4636c-1.30568,-3.49896 -13.62623,-6.22225 -11.15724,-9.55614c2.02732,-2.73752 12.3726,-5.69885 12.8927,-7.70392c0.51895,-2.00063 -4.21825,-1.93051 -6.06314,-5.25118c-2.62382,-4.72269 -0.88185,-4.2766 -0.88185,-4.2766c0,0 13.22136,-4.2902 19.34915,-5.2285c5.74923,-0.88034 16.35437,-0.23849 16.35437,-0.23849c0,0 -17.9079,9.55674 -21.99215,16.8124c-4.52745,8.04302 7.8006,30.45164 7.8006,30.45164z" data-paper-data="{&quot;index&quot;:null}" fill="url(#color-1)" fill-rule="nonzero" stroke="none" stroke-width="0" stroke-linecap="butt"/></g><g fill-rule="nonzero" stroke-linecap="butt" stroke-linejoin="miter"><g data-paper-data="{&quot;index&quot;:null}" stroke="none" stroke-width="1"><path d="M255.22329,192.34189c-0.21058,-0.02465 -0.27963,-0.15584 -0.33327,-0.32419c-0.06334,-0.27238 -0.07063,-0.55221 -0.1152,-0.8271c-0.06097,-0.04453 -0.12193,-0.08908 -0.18125,-0.11627c-1.23403,-0.64311 -1.97364,-1.66789 -2.53755,-2.83888c-0.11782,-0.24756 -0.25436,-0.49269 -0.28028,-0.77c-0.00484,-0.05201 -0.03003,-0.11885 -0.07072,-0.14854c-0.22355,-0.16331 -0.24465,-0.38866 -0.28604,-0.62886c-0.03817,-0.20551 -0.03892,-0.41602 -0.05838,-0.62403c-0.01134,-0.12132 0.01469,-0.24765 0.11881,-0.34929c0.10411,-0.10159 0.14724,-0.24774 0.19196,-0.37653c0.17501,-0.76038 0.48578,-1.48618 0.9136,-2.1749c0.24808,-0.38401 0.55873,-0.70614 0.8881,-1.03075c0.97102,-0.95406 2.14277,-1.58383 3.45106,-1.96854c0.59032,-0.16628 1.20744,-0.24841 1.83102,-0.2612c0.47236,-0.0102 0.9187,0.10593 1.34796,0.24184c1.36583,0.43252 2.40873,1.25897 3.1938,2.36547c0.15196,0.20794 0.25111,0.45797 0.35023,0.70804c0.07233,0.16586 0.16173,0.31193 0.35845,0.39108c0.17639,0.0643 0.2658,0.21032 0.31941,0.37867c0.06334,0.27238 0.08928,0.54972 0.1152,0.82709c0.00811,0.08669 -0.0228,0.16101 -0.05375,0.23531c-0.14559,0.26506 -0.17739,0.53255 -0.17011,0.81241c0.03644,0.59187 -0.1174,1.17393 -0.25253,1.7535c-0.05536,0.21797 -0.12938,0.43842 -0.24242,0.64652c-0.35303,0.67877 -0.72802,1.32538 -1.28103,1.89038c0.02432,0.26 0.03155,0.53985 0.05753,0.81719c0.00972,0.10402 0.02107,0.22535 -0.08466,0.3096c-0.08701,0.08176 -0.05861,0.18332 -0.04886,0.28729c0.04618,0.69585 0.11102,1.38923 0.15719,2.08507c0.12558,1.54525 0.25286,3.1078 0.34105,4.65803c0.08495,1.51556 0.22607,3.02362 0.34841,4.5342c0.02271,0.24268 0.00636,0.473 0.02908,0.71566c0.11027,1.17873 0.22051,2.35747 0.31208,3.53868c0.01945,0.20799 0.0763,0.41104 -0.01808,0.61664c-0.03092,0.07434 -0.00412,0.15847 0.00398,0.24516c0.08111,0.86672 0.14509,1.75326 0.22616,2.61998c0.00324,0.03466 0.00808,0.08667 0.01134,0.12132c0.04466,0.27486 -0.07328,0.43097 -0.32375,0.58714c-0.84163,0.51565 -1.7482,0.74159 -2.71977,0.67785c-0.24797,-0.01966 -0.49917,-0.07398 -0.73493,-0.16544c-0.1764,-0.0643 -0.26418,-0.19299 -0.29911,-0.36382c-0.10473,-0.51257 -0.22817,-1.02264 -0.33455,-1.55254c-0.07308,-0.37639 -0.11037,-0.77509 -0.23956,-1.14399c-0.28353,-0.80467 -0.3443,-1.65655 -0.57175,-2.46865c-0.11861,-0.45806 -0.27296,-0.89385 -0.37286,-1.3544c-0.10312,-0.49521 -0.24202,-0.96816 -0.36225,-1.44352c-0.21359,-0.86664 -0.39141,-1.75558 -0.62372,-2.61971c-0.33303,-1.13152 -0.5913,-2.27304 -0.84954,-3.4145c-0.0934,-0.39125 -0.18681,-0.7824 -0.2802,-1.17366c-0.13321,-0.6141 -0.26796,-1.24548 -0.40113,-1.85954c-0.06985,-0.34172 -0.17544,-0.66113 -0.2453,-1.00281c-0.09016,-0.3566 -0.12097,-0.68589 -0.19404,-1.06231zM255.66802,192.037c0.23414,0.07416 0.46503,0.11365 0.70974,0.09865c0.50081,0.09129 1.00896,0.05878 1.51712,0.02625c0.6407,-0.03261 1.29357,-0.13704 1.92778,-0.239c0.72769,-0.11439 1.38308,-0.39465 2.05557,-0.69473c0.07156,-0.04463 0.14311,-0.08924 0.25044,-0.15618c-0.01295,-0.13866 -0.02597,-0.27734 -0.03893,-0.41599c-0.00324,-0.03466 -0.02518,-0.06685 -0.04875,-0.11636c-0.13091,0.0174 -0.26019,0.05216 -0.38786,0.10424c-0.21954,0.08187 -0.42363,0.12655 -0.64316,0.2084c-0.55129,0.17865 -1.13589,0.20383 -1.69203,0.33049c-0.29759,0.05718 -0.59191,0.14893 -0.89274,0.17144c-0.65939,0.03511 -1.31066,0.15686 -1.97649,0.12262c-0.17157,-0.01228 -0.36179,-0.02203 -0.53336,-0.03433c-0.08452,-0.09407 -0.2309,-0.03946 -0.32765,-0.06171c-0.11705,-0.03708 -0.23416,-0.07415 -0.4382,-0.02943c0.15196,0.20794 0.11696,0.44075 0.2112,0.63879c0.09514,0.0049 0.17965,0.09893 0.30732,0.04685zM256.47112,192.5268c-0.44471,-0.0988 -0.55852,-0.10118 -0.7984,-0.03417c0.03817,0.20551 0.07473,0.39371 0.11287,0.59924c0.01134,0.12132 0.09423,0.19807 0.21134,0.23515c0.07808,0.02473 0.17155,0.01227 0.2496,0.03698c0.29187,0.08405 0.61465,0.0937 0.91221,0.03657c0.13903,0.06922 0.2886,0.04937 0.43823,0.02944c0.84313,-0.09463 1.66922,-0.1695 2.50426,-0.35079c0.37078,-0.08443 0.73995,-0.18619 1.08874,-0.30282c0.27406,-0.10667 0.56676,-0.21582 0.7717,-0.4537c-0.02109,-0.22536 -0.0422,-0.45067 -0.06325,-0.67605c-0.14635,0.05456 -0.27406,0.10665 -0.38297,0.15624c-0.51065,0.20832 -1.02452,0.38203 -1.54491,0.48637c-0.66834,0.14156 -1.34482,0.19649 -2.01966,0.26875c-0.31794,0.04231 -0.62686,-0.02185 -0.94314,0.03776c-0.17965,-0.09893 -0.36829,-0.0914 -0.53657,-0.069zM260.5947,211.51124c0.27153,0.06917 0.53495,0.05169 0.79512,-0.00049c0.0203,0.01484 0.05935,0.0272 0.07808,0.02471c0.44719,-0.07705 0.89115,-0.18877 1.28796,-0.39954c0.23504,-0.11904 0.47163,-0.22071 0.64077,-0.43627c-0.0908,-0.97073 -0.18164,-1.94141 -0.27726,-2.96417c-0.43097,0.25037 -0.87171,0.39683 -1.314,0.52585c-0.38625,0.12161 -0.76511,0.11935 -1.15457,0.20628c-0.14959,0.01991 -0.28213,0.02002 -0.43174,0.03993c-0.23249,-0.05681 -0.48047,-0.07646 -0.7626,-0.05648c0.04866,0.52005 0.24367,0.98549 0.32646,1.46588c0.10312,0.49522 0.22496,0.98799 0.32647,1.46586c0.17964,0.09893 0.33249,0.11373 0.48535,0.12846zM259.80127,208.0893c0.13904,0.06921 0.29025,0.06669 0.43983,0.04676c0.15609,0.04946 0.32281,0.00972 0.4927,0.00466c0.52526,-0.05237 1.04239,-0.19136 1.53754,-0.36254c0.2927,-0.10915 0.58218,-0.253 0.82777,-0.46118c-0.00647,-0.06935 0.00573,-0.14115 -0.00079,-0.21049c-0.07944,-0.84942 -0.15725,-1.68141 -0.21804,-2.53328c-0.06562,-0.90385 -0.12963,-1.7904 -0.19525,-2.69427c-0.10456,-1.3199 -0.18872,-2.62493 -0.29329,-3.94483c-0.10042,-1.47839 -0.25534,-2.93198 -0.31835,-4.41535c-0.00399,-0.24515 -0.04706,-0.50268 -0.07135,-0.76271c-0.1992,0.09672 -0.37646,0.2256 -0.57894,0.28763c-0.63991,0.24311 -1.30827,0.38468 -1.97987,0.49162c-0.5984,0.07962 -1.19844,0.14191 -1.79851,0.2042c-0.24637,-0.00231 -0.47238,0.01021 -0.71873,0.00789c-0.15932,-0.08411 -0.3244,-0.02704 -0.47724,-0.04179c-0.17157,-0.01228 -0.32763,-0.0617 -0.51302,-0.01949c-0.02119,0.17833 0.02919,0.31204 0.05923,0.43085c0.30139,0.99537 0.45476,2.02796 0.70005,3.03076c0.15514,0.64628 0.31022,1.29254 0.48409,1.93629c0.21359,0.86664 0.44426,1.71342 0.65626,2.56271c0.17871,0.69575 0.35738,1.39154 0.51735,2.0898c0.18353,0.74779 0.34674,1.4807 0.51162,2.23099c0.15837,0.68092 0.31837,1.37919 0.49705,2.07495c0.1699,-0.00506 0.29186,0.08401 0.43984,0.04678zM263.8744,184.03029c-0.39679,0.21075 -0.78307,0.33235 -1.16763,0.47128c-0.40331,0.14141 -0.78627,0.2977 -1.19119,0.42176c-0.38625,0.1216 -0.79444,0.21101 -1.18227,0.31525c-0.40657,0.10675 -0.81311,0.21351 -1.23995,0.30542c-0.38944,0.08691 -0.79927,0.15898 -1.18874,0.24591c-0.40978,0.07206 -0.82606,0.07482 -1.22938,0.21624c-0.4024,-0.05173 -0.80735,0.07233 -1.2017,0.10729c-0.41463,0.02005 -0.84479,0.07733 -1.25943,0.0974c-0.39594,0.01757 -0.81223,0.0203 -1.20979,0.02057c-0.41629,0.00272 -0.82034,-0.06638 -1.23171,-0.0116c0.00152,0.42101 0.01286,0.54233 0.19165,0.83444c0.23249,0.05681 0.46504,0.11364 0.73167,0.13078c0.32278,0.0097 0.64554,0.01941 0.98865,0.04396c0.64716,0.03675 1.27403,0.0586 1.92854,-0.02848c0.44882,-0.05972 0.89602,-0.13679 1.35133,-0.12716c0.09514,0.0049 0.20733,-0.01004 0.31625,-0.05963c0.21953,-0.08188 0.46427,-0.09686 0.68867,-0.12676c0.82284,-0.10947 1.63592,-0.32297 2.42869,-0.55135c1.05298,-0.28051 2.05717,-0.67739 3.05649,-1.12631c0.20082,-0.07939 0.40167,-0.15875 0.53663,-0.33466c0.01309,-0.265 -0.02994,-0.52255 -0.11683,-0.8444zM256.12656,182.97281c-0.1285,0.24526 -0.18224,0.48057 -0.25466,0.71834c-0.07569,0.20311 -0.07491,0.41362 0.01935,0.61168c0.1495,0.38375 0.24454,0.79232 0.26472,1.21083c0.00324,0.03466 0.02678,0.0842 0.0284,0.10151c0.09835,0.03954 0.17315,0.02957 0.26182,-0.03485c0.01708,-0.0198 0.03254,-0.05697 0.03092,-0.07433c0.00908,-0.51018 0.05557,-1.02528 0.13945,-1.54541c0.01224,-0.07181 0.02118,-0.17832 -0.02272,-0.24268c-0.10074,-0.2674 -0.20149,-0.53478 -0.46731,-0.74513zM255.24934,185.73958c0.0123,-0.47548 0.06367,-0.93861 0.13537,-1.3869c0.02441,-0.14363 -0.00562,-0.2625 -0.07472,-0.39369c-0.11296,-0.19553 -0.26009,-0.35149 -0.40882,-0.52477c-0.04389,-0.06436 -0.08938,-0.14603 -0.19835,-0.09644c-0.06595,0.30713 -0.15218,0.59943 -0.18074,0.90155c0.38603,0.68574 0.386,0.68572 0.48254,1.51527c0.06096,0.04455 0.1374,0.05191 0.24473,-0.01501zM260.01009,186.84351c-0.04562,0.32198 -0.07253,0.64149 -0.09945,0.96096c-0.01224,0.07182 -0.02443,0.14364 0.00076,0.21048c0.15682,0.25991 0.29502,0.52234 0.5405,0.71785c0.20494,-0.23786 0.23671,-0.50534 0.32623,-0.76297c0.04476,-0.12878 0.0163,-0.23031 -0.05115,-0.34419c-0.17553,-0.25744 -0.3137,-0.51988 -0.43472,-0.80208c-0.00161,-0.01734 -0.04061,-0.02971 -0.08126,-0.05936c-0.05448,0.02479 -0.12771,0.0521 -0.20084,0.07938zM259.86163,182.42312c-0.21716,0.30969 -0.30506,0.58466 -0.41163,0.86208c-0.02768,0.10899 -0.00086,0.19314 0.02595,0.27733c0.15114,0.40108 0.24611,0.80969 0.26796,1.24552c0.00486,0.05201 0.0284,0.10151 0.0333,0.1535c0.20733,-0.01002 0.24311,-0.03234 0.23013,-0.17101c-0.04217,-0.45072 0.01081,-0.89651 0.1605,-1.32007c0.08951,-0.25761 0.05135,-0.46314 -0.06323,-0.67606c-0.08615,-0.11141 -0.15197,-0.20796 -0.24299,-0.37133zM257.45759,185.46329c0.0935,-0.01246 0.10568,-0.08431 0.09923,-0.15364c-0.04539,-0.48534 0.06041,-0.97328 0.16626,-1.46123c0.07652,-0.39627 -0.03557,-0.78502 -0.35175,-1.12903c-0.11631,0.17342 -0.11879,0.34927 -0.1977,0.51772c-0.1562,0.35424 -0.12538,0.68358 -0.01815,1.02032c0.11048,0.37138 0.23964,0.74035 0.23795,1.12665c0.02359,0.04949 0.04388,0.06439 0.06421,0.07923zM258.55431,182.61465c-0.09276,0.22294 -0.1733,0.37405 -0.23511,0.52268c-0.1098,0.24278 -0.10906,0.45327 -0.01158,0.68599c0.14301,0.31442 0.21286,0.65613 0.264,1.0003c0.03005,0.11888 0.04301,0.25753 0.05436,0.37885c0.09514,0.0049 0.10895,-0.04957 0.1057,-0.08426c0.04646,-0.51514 0.11164,-1.03274 0.25327,-1.54301c0.01059,-0.08915 0.02279,-0.16098 -0.00401,-0.24516c-0.1162,-0.23025 -0.2137,-0.46296 -0.42664,-0.71542zM261.17199,186.51343c0.10563,0.31942 0.07869,0.63888 0.07046,0.95589c0.00811,0.08667 -0.04152,0.16348 0.004,0.24516c0.06909,0.13124 0.31943,0.3787 0.53973,0.50735c0.11471,-0.19077 0.13263,-0.40375 0.18962,-0.60441c0.04151,-0.16349 0.00984,-0.29966 -0.09663,-0.42589c-0.17227,-0.22277 -0.30721,-0.45053 -0.38925,-0.72042c-0.0016,-0.01734 -0.04227,-0.04701 -0.06258,-0.06185c-0.07645,-0.00737 -0.15123,0.00255 -0.25532,0.10419zM254.88357,188.50852c0.13491,0.22772 0.14376,0.52494 0.33315,0.72788c0.12928,-0.03475 0.17729,-0.12888 0.2456,-0.20819c0.11793,-0.15611 0.25779,-0.27999 0.33347,-0.48311c-0.14136,-0.29709 -0.13643,-0.64875 -0.26073,-0.96565c-0.09835,-0.03954 -0.19185,-0.02714 -0.28213,0.02001c-0.08463,0.30964 -0.20829,0.60689 -0.36935,0.90911zM257.79938,187.29567c-0.02119,0.17833 -0.04238,0.35663 -0.12454,0.4904c-0.19684,0.32451 -0.15056,0.61675 0.02662,0.89151c0.0658,0.09652 0.07553,0.20055 0.19747,0.28965c0.17079,-0.19826 0.28387,-0.40633 0.39688,-0.61445c0.03255,-0.05699 0.02602,-0.12631 -0.00077,-0.21048c-0.09915,-0.25007 -0.17794,-0.48526 -0.27703,-0.73533c-0.00484,-0.05201 -0.04876,-0.11637 -0.21871,-0.1113zM256.6212,187.45248c-0.03913,0.39132 -0.11892,0.75291 -0.33607,1.06263c-0.05123,0.05947 -0.02603,0.12631 -0.01955,0.19564c0.03329,0.15352 0.0853,0.30457 0.21208,0.44561c0.23913,-0.27754 0.38471,-0.54264 0.52869,-0.82502c0.04799,-0.09412 0.05861,-0.18329 0.03017,-0.28481c-0.05519,-0.18572 -0.09178,-0.3739 -0.14702,-0.5596c-0.0016,-0.01734 -0.04227,-0.04704 -0.06258,-0.06187c-0.05611,0.00745 -0.11223,0.01492 -0.20567,0.02739zM261.36235,183.0834c-0.09103,-0.16337 -0.18364,-0.34414 -0.27467,-0.50754c-0.0203,-0.01484 -0.04064,-0.02971 -0.08127,-0.05937c-0.19114,0.18337 -0.28387,0.40633 -0.34085,0.60695c0.18119,0.51996 0.3591,1.00521 0.41423,1.59459c0.23587,-0.31219 0.07898,-0.57211 0.11403,-0.80491c0.03017,-0.28481 0.09932,-0.55726 0.1685,-0.82971zM255.82581,182.59166c-0.20646,-0.18312 -0.37556,-0.37123 -0.64869,-0.45773c-0.06347,0.13127 -0.14885,0.2304 -0.19519,0.3419c-0.04634,0.11148 -0.11143,0.22541 -0.10006,0.34677c0.07071,0.14851 0.21133,0.23513 0.31619,0.34402c0.10487,0.10887 0.17393,0.24012 0.33162,0.30687c0.10494,-0.29479 0.19285,-0.56969 0.29619,-0.88182zM254.05575,185.9335c0.02615,-0.52996 0.04168,-0.97081 0.05727,-1.4116c-0.00324,-0.03466 0.01063,-0.08918 -0.03003,-0.11885c-0.14874,-0.17325 -0.26333,-0.38615 -0.51777,-0.47515c-0.05211,0.25263 -0.10583,0.48795 -0.14083,0.72078c0.2804,0.36635 0.45184,0.78225 0.6314,1.28486zM259.1348,188.82032c0.15697,-0.14374 0.17814,-0.32206 0.23999,-0.47068c0.07892,-0.16845 0.10172,-0.32942 0.00907,-0.51014c-0.11781,-0.24756 -0.23565,-0.49515 -0.2242,-0.77749c-0.13416,-0.01725 -0.20733,0.01002 -0.1976,0.11405c0.00565,0.26248 0.01285,0.54234 -0.07826,0.78261c-0.11879,0.34927 0.05513,0.58942 0.25102,0.86167zM257.2478,188.6853c-0.21554,0.32704 -0.40015,0.57975 -0.56608,0.82997c0.01134,0.12132 0.07394,0.18323 0.11782,0.24755c0.06258,0.06187 0.10971,0.16086 0.24383,0.17814c0.19277,-0.16606 0.36351,-0.36426 0.51401,-0.57731c-0.07718,-0.21785 -0.17143,-0.41592 -0.30958,-0.67835zM260.26313,189.14401c-0.19261,-0.23762 -0.36333,-0.44304 -0.53559,-0.66581c-0.10982,0.24277 -0.22127,0.46822 -0.33272,0.69364c0.15196,0.20794 0.26492,0.40351 0.50393,0.52961c0.1537,-0.17838 0.24969,-0.36668 0.36438,-0.55744zM256.67145,181.91751c-0.21468,0.13385 -0.2497,0.36668 -0.3457,0.55494c-0.03255,0.05699 -0.00575,0.14115 0.03655,0.18819c0.12841,0.15843 0.2365,0.30199 0.36327,0.44309c0.00161,0.01734 0.03904,0.01234 0.07645,0.00738c0.10823,-0.2601 0.19604,-0.53503 0.30428,-0.79514c-0.10969,-0.16089 -0.27228,-0.27965 -0.43488,-0.39842zM259.58288,182.07417c-0.09265,-0.1807 -0.18363,-0.34411 -0.40069,-0.4381c-0.135,0.17594 -0.30743,0.35682 -0.38148,0.57728c0.06744,0.11388 0.0975,0.23273 0.18203,0.32676c0.06579,0.09653 0.06007,0.23772 0.23326,0.26731c0.12853,-0.24525 0.25703,-0.49049 0.36689,-0.73329zM260.77862,188.98767c0.08939,0.14605 0.26581,0.21032 0.44383,0.29193c0.13018,-0.22791 0.30254,-0.40883 0.35468,-0.66144c-0.16259,-0.11878 -0.27392,-0.29699 -0.49259,-0.4083c-0.10823,0.2601 -0.19773,0.51772 -0.30591,0.7778zM262.30548,186.08182c0.01049,0.3145 0.09743,0.63639 0.07047,0.9559c-0.01307,0.265 0.13083,0.38621 0.36819,0.49505c0.11304,-0.20808 0.13263,-0.40375 0.16925,-0.61922c-0.26905,-0.24497 -0.39339,-0.5619 -0.60794,-0.83169zM252.98582,185.83018c0.07318,-0.02728 0.0683,-0.07927 0.06347,-0.13127c-0.00237,-0.22781 -0.02508,-0.47052 -0.00876,-0.70085c0.04397,-0.3393 -0.15924,-0.48776 -0.4202,-0.6461c-0.02605,0.12635 -0.05532,0.21796 -0.06591,0.30712c-0.03662,0.21547 -0.03751,0.40863 0.14863,0.57693c0.10486,0.10887 0.15683,0.25994 0.20725,0.39363c-0.01224,0.07182 -0.04151,0.16347 0.07554,0.20054zM254.06229,189.03902c0.08701,-0.08176 0.13665,-0.15859 0.18787,-0.21805c0.17403,-0.16355 0.21555,-0.32705 0.15868,-0.53007c-0.05358,-0.16835 -0.05273,-0.36155 -0.08766,-0.53239c-0.00484,-0.05201 0.00897,-0.1065 -0.12356,-0.10643c-0.07084,0.25512 -0.17901,0.51525 -0.32624,0.76299c-0.03255,0.05699 -0.02441,0.14361 -0.01795,0.21296c0.05035,0.13368 0.09911,0.25009 0.20884,0.41096zM258.88831,189.22166c-0.09101,-0.16338 -0.16494,-0.34659 -0.31049,-0.48518c-0.16916,0.21557 -0.36027,0.39894 -0.47011,0.6417c0.12843,0.1584 0.20072,0.32428 0.41617,0.40094c0.13502,-0.17594 0.29038,-0.33699 0.36438,-0.55745zM257.97531,182.90229c0.16915,-0.21557 0.26189,-0.43853 0.31721,-0.65646c-0.12841,-0.15841 -0.23652,-0.30195 -0.41942,-0.43559c-0.13988,0.12393 -0.22041,0.27504 -0.2806,0.441c0.13328,0.2104 0.24787,0.42331 0.38275,0.65108zM257.29859,190.24051c0.12357,0.10643 0.18775,0.18561 0.28775,0.24249c0.06097,0.04453 0.1203,0.07175 0.17968,0.09894c0.17889,-0.11154 0.33585,-0.25529 0.43185,-0.44357c-0.10969,-0.16089 -0.21944,-0.32177 -0.41781,-0.41824c-0.1537,0.17838 -0.31067,0.32214 -0.48144,0.52035zM253.34309,187.62539c-0.18624,0.23541 -0.32286,0.39395 -0.47497,0.58969c-0.01224,0.07181 0.01781,0.19065 0.08367,0.28721c0.04713,0.09901 0.02108,0.22534 0.14139,0.29709c0.16344,-0.07441 0.26754,-0.176 0.3497,-0.30979c-0.04464,-0.27487 -0.06894,-0.53489 -0.09975,-0.86422zM255.39109,181.78952c0.10165,0.07424 0.20324,0.14847 0.30481,0.22272c0.10166,0.07424 0.20162,0.13109 0.30321,0.20534c0.11306,-0.20807 0.23101,-0.36418 0.25059,-0.55983c-0.06582,-0.09653 -0.18127,-0.11627 -0.27961,-0.15586c-0.09835,-0.03954 -0.20162,-0.13109 -0.33087,-0.09637c-0.10087,0.13631 -0.20493,0.23786 -0.24808,0.38402zM259.60848,190.03844c-0.16583,-0.15342 -0.27878,-0.34903 -0.5162,-0.45782c-0.11791,0.1561 -0.21716,0.30969 -0.33511,0.46579c0.16582,0.15344 0.2926,0.29454 0.52513,0.35132c0.12278,-0.1041 0.24885,-0.17352 0.32614,-0.35929zM254.16365,183.84828c0.08304,-0.32693 0.15059,-0.61671 0.21813,-0.90648c-0.08452,-0.09407 -0.15035,-0.19062 -0.2845,-0.20786c-0.18788,0.21807 -0.25868,0.47315 -0.34816,0.73076c0.08453,0.09407 0.16906,0.18812 0.27065,0.26235c0.02517,0.06686 0.0642,0.07919 0.14386,0.12125zM256.19545,189.57998c-0.13008,-0.17574 -0.14952,-0.38378 -0.31209,-0.50255c-0.18947,0.20072 -0.36188,0.38162 -0.49205,0.60956c0.14229,0.10393 0.15845,0.27727 0.3552,0.35638c0.17887,-0.11155 0.27652,-0.28251 0.44895,-0.46339zM260.39356,181.63282c-0.12116,0.12143 -0.22201,0.2577 -0.28385,0.40635c0.13169,0.19308 0.24462,0.38864 0.37953,0.61637c0.09435,-0.20557 0.19359,-0.35921 0.32701,-0.55245c-0.13167,-0.1931 -0.243,-0.37133 -0.42268,-0.47028zM254.19141,189.40795c0.09587,0.2154 0.16984,0.3986 0.36979,0.51241c0.14147,-0.10659 0.26591,-0.19331 0.32777,-0.34195c-0.09424,-0.19805 -0.16981,-0.39857 -0.28602,-0.62882c-0.15697,0.14374 -0.29521,0.285 -0.41151,0.45842zM258.56093,181.8767c0.11144,-0.22542 0.30743,-0.35684 0.32699,-0.5525c-0.12841,-0.15841 -0.28775,-0.24251 -0.46417,-0.30679c-0.13825,0.14126 -0.27814,0.26515 -0.31642,0.46328c0.14386,0.12126 0.26907,0.24497 0.45357,0.39594zM260.97121,189.62895c-0.14227,-0.10392 -0.24711,-0.2128 -0.42191,-0.25975c-0.11304,0.20808 -0.30743,0.3568 -0.36116,0.59211c0.12356,0.10644 0.24226,0.16083 0.4122,0.15576c0.13664,-0.15858 0.25295,-0.33199 0.37085,-0.48811zM253.27424,183.65072c-0.12518,-0.12376 -0.22513,-0.1806 -0.36094,-0.21525c-0.11793,0.15611 -0.21394,0.34437 -0.19445,0.55235c0.12195,0.08908 0.24382,0.17812 0.36741,0.28457c0.13178,-0.21058 0.13101,-0.42107 0.18797,-0.62171zM263.59308,187.29686c-0.12029,-0.07174 -0.22032,-0.12864 -0.33411,-0.13104c-0.09598,0.18824 -0.15455,0.37158 -0.17411,0.56722c0.1032,0.09157 0.2032,0.14846 0.33737,0.1657c0.11471,-0.19077 0.11392,-0.40127 0.17088,-0.60188zM258.14234,190.76c0.13165,0.19307 0.28288,0.19052 0.44957,0.15079c0.1309,-0.01741 0.25858,-0.0695 0.3017,-0.21565c-0.12518,-0.12376 -0.24871,-0.23015 -0.42513,-0.29443c-0.12116,0.12143 -0.22365,0.24037 -0.32614,0.35929zM262.24289,182.98377c-0.07069,-0.14852 -0.08366,-0.28719 -0.22266,-0.35644c-0.34645,0.34445 -0.22216,0.66137 -0.00108,1.00047c0.07406,-0.22045 0.14974,-0.4236 0.22376,-0.64403zM256.36598,190.59279c0.16184,-0.09172 0.26592,-0.19333 0.36352,-0.36426c-0.13903,-0.06922 -0.17396,-0.2401 -0.33002,-0.28952c-0.11061,0.03225 -0.14149,0.10656 -0.21144,0.16851c-0.06829,0.07926 -0.15857,0.1264 -0.14724,0.24774c0.08453,0.09407 0.16909,0.18813 0.32517,0.23754zM257.88115,185.33671c0.21541,0.07663 0.3244,0.02705 0.32848,-0.13144c-0.00236,-0.22782 -0.04214,-0.4507 -0.08032,-0.65622c-0.00646,-0.06931 -0.03333,-0.15351 -0.14874,-0.17326c-0.06431,0.32446 -0.09123,0.64392 -0.09945,0.96092zM262.04035,189.52178c0.04712,0.09902 0.1268,0.14108 0.24064,0.14351c0.17243,-0.1809 0.38388,-0.34943 0.47338,-0.60704c-0.23414,-0.07414 -0.39925,-0.0171 -0.51391,0.17366c-0.06831,0.07928 -0.17568,0.14625 -0.20011,0.28988zM260.37082,184.82993c0.26179,-0.03482 0.31465,-0.07702 0.30006,-0.23298c-0.04141,-0.24019 -0.08441,-0.49771 -0.20063,-0.72794c-0.12042,0.33194 -0.22376,0.64404 -0.09944,0.96093zM263.32095,186.20991c-0.00575,0.14113 0.00565,0.26252 -0.00173,0.38631c0.00396,0.24518 0.00401,0.24517 0.34872,0.28708c0.02605,-0.12635 0.06919,-0.27248 0.08139,-0.34428c-0.16257,-0.11879 -0.28613,-0.22517 -0.42839,-0.32909zM257.59461,180.65389c-0.10412,0.1016 -0.26916,0.15869 -0.25134,0.34936c0.1203,0.07175 0.25771,0.12366 0.39833,0.21024c0.12119,-0.12144 0.26269,-0.22797 0.3058,-0.37413c-0.13905,-0.06922 -0.26096,-0.15835 -0.45283,-0.18547zM262.30832,187.73114c-0.07239,0.23778 -0.16356,0.47806 -0.23596,0.71585c0.04553,0.08167 0.10807,0.14355 0.21702,0.09396c0.1537,-0.17838 0.26681,-0.38651 0.3018,-0.61932c-0.08452,-0.09407 -0.16582,-0.15343 -0.28292,-0.19048zM261.01313,181.77853c0.12928,-0.03475 0.21632,-0.11653 0.28137,-0.23049c-0.04389,-0.06437 -0.08777,-0.12871 -0.13168,-0.19308c-0.06418,-0.07921 -0.10974,-0.16089 -0.22517,-0.18062c-0.1122,0.01492 -0.20244,0.062 -0.26914,0.15866c0.10812,0.14357 0.23653,0.30197 0.34457,0.44555zM257.2967,181.92206c0.12119,-0.12144 0.18464,-0.25273 0.22778,-0.39886c-0.15932,-0.08411 -0.29996,-0.17067 -0.43895,-0.23992c-0.14475,0.07194 -0.20981,0.18589 -0.2188,0.29238c0.14385,0.12126 0.28775,0.2425 0.42999,0.34647zM261.81136,182.21637c-0.06582,-0.09653 -0.13165,-0.19307 -0.21619,-0.28716c-0.0203,-0.01483 -0.05774,-0.00986 -0.09679,-0.02222c-0.06994,0.06195 -0.17888,0.11153 -0.22202,0.2577c0.06911,0.13123 0.12273,0.29955 0.26659,0.42082c0.14146,-0.10659 0.20652,-0.22055 0.26838,-0.36918zM262.94201,183.57518c0.00087,-0.19317 0.20332,-0.25522 0.18711,-0.42854c-0.08776,-0.12868 -0.12102,-0.28224 -0.28363,-0.40099c-0.12278,0.1041 -0.22691,0.20572 -0.15618,0.35423c0.0707,0.14854 0.06658,0.30701 0.25271,0.47532zM263.0569,188.64941c0.06345,-0.13129 0.14558,-0.26508 0.21067,-0.37901c0.01709,-0.01982 -0.00485,-0.05202 -0.00812,-0.08668c-0.09675,-0.02221 -0.19834,-0.09647 -0.36179,-0.02203c-0.0805,0.15111 -0.15945,0.31957 -0.25706,0.49053c0.13737,0.05192 0.25123,0.05431 0.41629,-0.00272zM256.65137,181.09531c-0.12193,-0.08908 -0.24548,-0.19549 -0.34709,-0.26969c-0.16344,0.0744 -0.26757,0.17599 -0.35293,0.27512c0.03007,0.11888 0.16257,0.11874 0.24225,0.16081c0.07971,0.04204 0.16095,0.10142 0.29026,0.06668c0.07156,-0.04463 0.14149,-0.10659 0.16756,-0.23292zM254.76036,190.22729c0.10487,0.10887 0.18777,0.18563 0.27067,0.26233c0.02193,0.03219 0.07968,0.04207 0.10001,0.0569c0.1309,-0.01741 0.21794,-0.09918 0.28299,-0.21316c-0.10648,-0.12622 -0.19427,-0.25495 -0.33644,-0.3589c-0.10733,0.06694 -0.19436,0.14872 -0.31716,0.2528zM263.82428,186.12539c0.05375,-0.23531 0.10744,-0.47059 0.02866,-0.70582c-0.16343,0.0744 -0.31145,0.11165 -0.39197,0.26275c0.12103,0.28225 0.12105,0.28224 0.3633,0.44305zM256.70653,190.79317c0.34873,0.28708 0.3674,0.28455 0.68782,0.06638c-0.12357,-0.10643 -0.26417,-0.19297 -0.38771,-0.29943c-0.12928,0.03475 -0.21628,0.11653 -0.30009,0.23295zM260.09945,181.32095c-0.10647,-0.12622 -0.20973,-0.21778 -0.36582,-0.26725c-0.03579,0.02232 -0.08867,0.06444 -0.14152,0.10658c-0.03417,0.03966 -0.06672,0.09665 -0.10085,0.13625c0.10649,0.12622 0.1959,0.27229 0.3536,0.33906c0.10732,-0.06693 0.19114,-0.18337 0.25454,-0.31468zM253.56211,189.56188c0.05284,-0.04213 0.12278,-0.10412 0.13665,-0.1586c0.03828,-0.19815 -0.01536,-0.36645 -0.16412,-0.53976c-0.10573,0.08425 -0.25206,0.13883 -0.29845,0.25033c0.09101,0.16338 0.12757,0.35157 0.32591,0.44802zM253.75669,182.53351c-0.02029,-0.01484 -0.04064,-0.0297 -0.08127,-0.05937c-0.23015,0.17105 -0.39931,0.38659 -0.56845,0.60215c0.06745,0.11387 0.14711,0.1559 0.29832,0.15335c0.11144,-0.22542 0.24155,-0.45332 0.35142,-0.69613zM259.24003,184.27842c-0.08787,0.27495 -0.19605,0.53503 -0.14979,0.82722c0.0016,0.01734 0.07967,0.04202 0.11706,0.03706c0.09349,-0.01247 0.16181,-0.09174 0.15365,-0.17841c0.03503,-0.23282 -0.02347,-0.45319 -0.12094,-0.68588zM259.42546,180.79639c-0.10322,-0.09158 -0.20647,-0.18314 -0.34385,-0.23507c-0.13091,0.0174 -0.22116,0.06452 -0.30331,0.19828c0.14064,0.08659 0.28289,0.19053 0.42188,0.25977c0.10892,-0.04958 0.17887,-0.11156 0.22525,-0.22303zM259.57498,190.69224c0.26343,-0.01752 0.48945,-0.02999 0.70251,-0.1812c-0.07069,-0.14851 -0.20806,-0.20047 -0.36254,-0.23257c-0.13988,0.12391 -0.26268,0.22799 -0.33996,0.41381zM252.36897,188.14115c0.15859,-0.12641 0.17566,-0.14618 0.17082,-0.19822c0.0025,-0.17581 -0.10561,-0.31942 -0.21208,-0.44561c-0.04225,-0.04701 -0.13741,-0.05188 -0.18377,0.05958c0.12679,0.14108 0.07306,0.37641 0.22508,0.5843zM254.516,182.55535c0.13018,-0.22791 0.28062,-0.441 0.27172,-0.73817c-0.25043,0.15617 -0.36191,0.38163 -0.47657,0.57237c0.02678,0.0842 0.08614,0.11136 0.20485,0.16576zM255.66596,190.59817c-0.08863,0.06446 -0.17889,0.11156 -0.26753,0.17601c0.1081,0.14359 0.23166,0.24999 0.43249,0.1706c0.05449,-0.02479 0.10893,-0.04959 0.12116,-0.12143c-0.04712,-0.09901 -0.14713,-0.15594 -0.28613,-0.22517zM261.60749,184.4899c0.16831,-0.02242 0.23986,-0.067 0.20818,-0.20318c-0.03005,-0.11889 -0.06011,-0.23771 -0.10888,-0.35408c-0.02357,-0.04948 -0.06583,-0.09657 -0.13902,-0.06927c-0.03664,0.21547 -0.01879,0.40614 0.03968,0.62652zM254.46897,185.08878c-0.05375,0.23531 -0.07003,0.46564 0.00714,0.68352c0.00162,0.01735 0.07968,0.04202 0.09835,0.03954c0.03737,-0.00496 0.06994,-0.06195 0.06668,-0.09664c-0.03977,-0.22286 -0.02184,-0.43587 -0.1722,-0.62648zM253.62649,185.7976c-0.07231,-0.16588 -0.09016,-0.35659 -0.22016,-0.53233c-0.07241,0.23777 -0.09197,0.43345 -0.02615,0.52997c0.04712,0.09901 0.12193,0.08909 0.24633,0.00232zM261.3694,190.24285c0.21954,-0.08187 0.48138,-0.11673 0.5928,-0.34216c-0.34957,-0.09386 -0.461,0.13156 -0.5928,0.34216zM260.81246,187.12289c0.03737,-0.00497 0.05455,-0.02482 0.0919,-0.02978c-0.03492,-0.17082 0.02527,-0.33682 -0.08283,-0.48036c-0.11382,-0.00242 -0.16831,0.0224 -0.21629,0.11654c0.06745,0.11387 0.13652,0.24507 0.20724,0.39364zM256.8504,184.84207c-0.03339,0.25015 -0.05295,0.44581 -0.01481,0.65134c0.00324,0.03466 0.04387,0.06436 0.09998,0.05689c0.01872,-0.00249 0.05447,-0.0248 0.07155,-0.04464c0.05375,-0.23531 0.03426,-0.44329 -0.15674,-0.66358zM253.89942,189.72758c-0.10895,0.0496 -0.1618,0.09171 -0.11954,0.13876c0.06745,0.11387 0.15362,0.22526 0.23976,0.33665c0.06257,0.06187 0.11867,0.05441 0.16829,-0.0224c-0.07391,-0.18322 -0.14464,-0.33177 -0.28851,-0.453zM258.40031,180.56424c0.06994,-0.06195 0.14149,-0.10659 0.21145,-0.16853c0.0171,-0.01981 0.01382,-0.05451 0.02768,-0.10899c-0.22438,0.02983 -0.43493,0.00523 -0.67159,0.10692c0.14064,0.08659 0.24063,0.14349 0.4325,0.17059zM255.94813,187.54202c0.03491,0.17085 0.06821,0.3244 0.10638,0.52991c0.17078,-0.19826 0.21231,-0.3617 0.17738,-0.53253c-0.09836,-0.03955 -0.15609,-0.04944 -0.28377,0.00264zM261.77934,186.3273c0.08615,0.11141 0.06657,0.30701 0.28201,0.38366c0.01717,-0.42349 0.00908,-0.51013 -0.08769,-0.53239c-0.09349,0.01247 -0.14638,0.05458 -0.19436,0.14872zM255.73161,185.02608c-0.2001,0.28985 -0.18059,0.49787 -0.0815,0.74794c0.24234,-0.24287 0.07001,-0.46559 0.0815,-0.74794zM262.5005,183.51108c-0.18301,0.27004 -0.16517,0.46076 -0.1083,0.66379c0.00161,0.01734 0.04065,0.02968 0.07804,0.02471c0.05611,-0.00744 0.09025,-0.04711 0.08701,-0.08177c0.00251,-0.17582 -0.03241,-0.34666 -0.05674,-0.60668zM262.65272,185.94782c0.07069,0.14852 0.10563,0.31942 0.30393,0.41583c0.03988,-0.18082 0.00658,-0.33433 -0.02506,-0.47051c-0.11705,-0.03708 -0.19022,-0.00979 -0.27888,0.05466zM262.66992,182.48819c-0.14551,-0.1386 -0.16333,-0.32928 -0.35683,-0.37373c-0.03339,0.25015 -0.03339,0.25014 0.195,0.46545c0.03579,-0.02232 0.07156,-0.04463 0.16182,-0.09173zM261.5347,189.37843c0.25693,-0.08685 0.37325,-0.26027 0.46924,-0.44854c-0.06582,-0.09653 -0.14064,-0.08659 -0.19185,-0.02714c-0.08049,0.15112 -0.17976,0.30474 -0.27734,0.47567zM260.35882,181.05827c0.11061,-0.03226 0.20247,-0.06203 0.24882,-0.17349c-0.08289,-0.07671 -0.16582,-0.15347 -0.2796,-0.15585c-0.09188,0.02976 -0.14473,0.07193 -0.17567,0.14626c0.04553,0.08168 0.10648,0.12622 0.20648,0.18311zM258.56273,187.56266c0.04314,-0.14612 0.07082,-0.25516 0.02368,-0.35416c-0.02193,-0.03219 -0.06096,-0.04455 -0.1,-0.05691c-0.05611,0.00744 -0.12769,0.05209 -0.10411,0.10157c0.00974,0.10403 0.02108,0.22536 0.18044,0.30947zM257.10927,180.52545c-0.17318,-0.02961 -0.31468,0.077 -0.46102,0.13158c0.24549,0.19549 0.28289,0.19049 0.46102,-0.13158zM252.57769,185.91961c0.05047,-0.26997 0.05047,-0.26996 -0.12756,-0.35159c-0.02768,0.10899 -0.05371,0.23532 0.12756,0.35159zM259.65963,186.9428c-0.07971,-0.04204 -0.13577,-0.03458 -0.15121,0.00255c-0.08049,0.15112 -0.05696,0.20063 0.12596,0.33424c0.04478,-0.12878 0.03505,-0.23284 0.0253,-0.33683zM263.29884,183.54524c-0.08539,0.09914 -0.15207,0.19575 -0.10336,0.31209c0.29433,-0.09183 0.30978,-0.12894 0.10336,-0.31209zM252.12819,185.36519c-0.10087,0.13631 -0.10661,0.27742 -0.11393,0.40123c0.00645,0.06932 0.06746,0.11389 0.17318,0.02962c0.00733,-0.12382 0.01308,-0.26501 -0.05922,-0.43087zM261.90747,181.6244c-0.02119,0.17833 0.04301,0.25755 0.19587,0.27229c0,0 0.03579,-0.02232 0.03415,-0.03965c0.00895,-0.1065 -0.10968,-0.1609 -0.23002,-0.23268zM257.29681,187.59067c0.10895,-0.0496 0.13988,-0.12393 0.11469,-0.19075c-0.00324,-0.03466 -0.04389,-0.06436 -0.08291,-0.07673c-0.03904,-0.01234 -0.09186,0.02975 -0.08861,0.06444c-0.01384,0.0545 -0.00736,0.12382 0.05683,0.20304zM259.62721,180.52385c0.08615,0.1114 0.16582,0.15346 0.30894,0.06418c-0.10649,-0.12622 -0.18452,-0.15095 -0.30894,-0.06418z" fill="#000000"/><path d="M257.64315,193.72216c0.60003,-0.06227 1.2001,-0.12457 1.79852,-0.20422c0.67325,-0.08958 1.33995,-0.2485 1.97987,-0.49161c0.20083,-0.07937 0.36102,-0.18842 0.57892,-0.2876c0.02594,0.27737 0.06737,0.51751 0.07135,0.76268c0.0614,1.46604 0.21791,2.93695 0.31834,4.41534c0.08581,1.32238 0.18875,2.62494 0.29329,3.94483c0.06563,0.90386 0.1296,1.79041 0.19521,2.69427c0.06075,0.85189 0.15728,1.6814 0.21806,2.53327c0.00647,0.06935 0.01295,0.13869 0.00074,0.21051c-0.24395,0.22554 -0.51638,0.3495 -0.82777,0.46117c-0.4952,0.1712 -1.01231,0.31019 -1.53753,0.36254c-0.16831,0.02242 -0.33498,0.06215 -0.49268,-0.00465c0.16507,-0.05707 0.35691,-0.02996 0.55453,-0.14398c-0.15681,-0.25992 -0.1283,-0.56206 -0.17296,-0.83694c-0.00161,-0.01734 -0.00324,-0.03465 -0.02192,-0.03218c-0.19337,-0.44811 -0.24037,-0.95082 -0.3793,-1.42375c-0.0536,-0.16835 -0.16334,-0.32927 -0.14217,-0.50756c0.005,-0.35166 -0.19415,-0.65861 -0.18918,-1.01031c-0.00161,-0.01734 -0.02357,-0.04951 -0.0268,-0.0842c-0.08692,-0.32185 -0.19086,-0.62394 -0.24039,-0.95079c-0.03568,-0.38134 -0.21771,-0.70816 -0.216,-1.09446c-0.13328,-0.2104 -0.11693,-0.44075 -0.15833,-0.68093c-0.00324,-0.03466 -0.00489,-0.05202 -0.0081,-0.08666c-0.18204,-0.32678 -0.1413,-0.70075 -0.24852,-1.0375c-0.10723,-0.33672 -0.10389,-0.70573 -0.19243,-1.04494c-0.09338,-0.39124 -0.24129,-0.75761 -0.22407,-1.18114c-0.00324,-0.03466 -0.0081,-0.08669 -0.03005,-0.11887c-0.13008,-0.17574 -0.09339,-0.39122 -0.13153,-0.59675c-0.00974,-0.10403 -0.00238,-0.2278 -0.04952,-0.32685c-0.08937,-0.14606 -0.08367,-0.28721 -0.09826,-0.44324c-0.0081,-0.08668 0.00249,-0.17586 -0.04141,-0.24018c-0.13328,-0.2104 -0.1186,-0.45805 -0.13966,-0.6834c-0.0081,-0.08668 0.00247,-0.17581 -0.0414,-0.24019c-0.11131,-0.17823 -0.11048,-0.37139 -0.12829,-0.56209c-0.0292,-0.31204 -0.18927,-0.60661 -0.19975,-0.9211c0.01382,-0.05451 -0.04711,-0.09903 -0.0707,-0.14853z" fill="#87d7dc"/><path d="M257.6432,193.72218c0.02355,0.0495 0.08455,0.09405 0.0894,0.14607c0.01051,0.31452 0.15187,0.61159 0.19977,0.92112c0.01783,0.19067 0.01697,0.38387 0.12829,0.56208c0.04389,0.06437 0.0333,0.15353 0.04143,0.24016c0.02111,0.22534 0.02506,0.47052 0.13962,0.68343c0.04389,0.06436 0.0146,0.15603 0.04142,0.24018c0.01459,0.156 0.02757,0.29469 0.09826,0.44324c0.04712,0.09901 0.03977,0.22289 0.04951,0.32688c0.03817,0.20551 0.00153,0.421 0.13156,0.59674c0.02193,0.03219 0.0268,0.08419 0.03004,0.11885c-0.0188,0.40616 0.1307,0.78994 0.22409,1.18114c0.09016,0.35659 0.0868,0.72555 0.19238,1.04496c0.10723,0.3367 0.0665,0.7107 0.24853,1.03747c0.0203,0.01485 0.00484,0.05202 0.0081,0.0867c0.02111,0.22534 0.02509,0.47049 0.15838,0.68094c-0.02044,0.38884 0.16161,0.71561 0.21596,1.09447c0.0308,0.32936 0.15351,0.62892 0.24037,0.95081c0.00324,0.03466 0.02361,0.04953 0.02683,0.08419c-0.005,0.35166 0.19416,0.6586 0.18917,1.0103c-0.00086,0.19315 0.10723,0.33674 0.14216,0.50757c0.12021,0.47541 0.18594,0.97564 0.37929,1.42373c0.00161,0.01734 0.02196,0.03219 0.02196,0.03219c0.04465,0.27487 0.0161,0.57704 0.17295,0.83695c-0.17889,0.11155 -0.3724,0.06709 -0.55453,0.14396c-0.14958,0.01992 -0.2992,0.03979 -0.43985,-0.04681c-0.00974,-0.10403 -0.00238,-0.2278 -0.04953,-0.32683c-0.16495,-0.34658 -0.18027,-0.71313 -0.25175,-1.07219c-0.07146,-0.35902 -0.23642,-0.70562 -0.21598,-1.09444c-0.13328,-0.2104 -0.11698,-0.44074 -0.15836,-0.68093c-0.00324,-0.03466 -0.00811,-0.08667 -0.03004,-0.11886c-0.1081,-0.14358 -0.08689,-0.32187 -0.1202,-0.47543c-0.0081,-0.08668 -0.01625,-0.17334 -0.0414,-0.24018c-0.12919,-0.36893 -0.2413,-0.75761 -0.27859,-1.15633c-0.00484,-0.05201 0.00738,-0.12385 -0.0333,-0.15351c-0.10969,-0.16088 -0.10725,-0.33671 -0.12347,-0.51006c0.00086,-0.19315 -0.14629,-0.3491 -0.14699,-0.55958c-0.00724,-0.27984 -0.12508,-0.5274 -0.18842,-0.79978c-0.07309,-0.37639 -0.21932,-0.72545 -0.25659,-1.12415c-0.00647,-0.06935 0.00411,-0.15851 -0.03817,-0.20553c-0.08774,-0.12874 -0.08368,-0.28719 -0.11695,-0.44071c-0.01297,-0.13868 -0.04464,-0.27484 -0.09337,-0.39124c-0.09587,-0.2154 -0.15437,-0.43576 -0.17711,-0.67845c-0.05274,-0.36152 -0.21772,-0.70813 -0.1973,-1.09693c-0.00324,-0.03466 -0.02677,-0.08419 -0.03004,-0.11887c-0.09016,-0.35659 -0.19903,-0.71061 -0.25173,-1.07214c-0.03568,-0.38134 -0.22096,-0.74282 -0.21922,-1.12913c-0.00484,-0.05201 -0.04714,-0.09902 -0.0707,-0.14853c-0.05848,-0.22037 -0.09988,-0.46056 -0.06485,-0.69336c0.09189,-0.02976 0.16666,-0.03976 0.23985,-0.06701c0.2667,0.01716 0.49432,0.02197 0.73906,0.00697z" fill="#b0eef2"/><path d="M263.87442,184.03029c0.08689,0.32185 0.12991,0.57941 0.07943,0.84939c-0.13666,0.15859 -0.33747,0.23798 -0.53666,0.33467c-1.00095,0.43155 -2.00354,0.84575 -3.0565,1.12629c-0.79441,0.211 -1.60752,0.42452 -2.4287,0.55136c-0.22439,0.02985 -0.46914,0.04488 -0.6887,0.12672c-0.09189,0.02976 -0.2041,0.04469 -0.31626,0.05963c-0.45531,-0.00962 -0.90087,0.08477 -1.35133,0.12718c-0.63745,0.06729 -1.28139,0.06523 -1.92853,0.02849c-0.32439,-0.02703 -0.64718,-0.03674 -0.98865,-0.04392c-0.26503,0.00014 -0.49917,-0.07397 -0.73171,-0.1308c-0.16008,-0.29462 -0.19013,-0.41344 -0.19164,-0.83444c0.413,-0.03744 0.81546,0.01432 1.23171,0.0116c0.39757,-0.00025 0.81383,-0.00299 1.2098,-0.02057c0.41464,-0.02006 0.8464,-0.05998 1.25941,-0.09738c0.39594,-0.01757 0.80086,-0.14171 1.20173,-0.10727c0.40332,-0.14142 0.81958,-0.14415 1.22938,-0.21623c0.39109,-0.06958 0.79925,-0.15902 1.18875,-0.24594c0.40817,-0.08942 0.8147,-0.19617 1.23997,-0.30537c0.38785,-0.10425 0.79602,-0.19367 1.18227,-0.31529c0.40492,-0.12409 0.78791,-0.28034 1.19122,-0.42175c0.42202,-0.14392 0.80823,-0.26549 1.20506,-0.47625z" fill="#d1eaeb"/><path d="M256.92449,193.73008c-0.07317,0.02728 -0.148,0.03725 -0.23985,0.06703c-0.03501,0.23283 -0.01394,0.45814 0.06486,0.69337c0.02355,0.04951 0.06582,0.09655 0.07069,0.14852c-0.00174,0.38631 0.16486,0.7503 0.21922,1.12915c0.03405,0.36402 0.1616,0.71559 0.2517,1.07216c0.00324,0.03466 0.02681,0.0842 0.03004,0.11885c-0.02045,0.38882 0.16158,0.71558 0.19725,1.09695c0.02111,0.22534 0.08119,0.46305 0.1771,0.67844c0.05035,0.13366 0.08206,0.26988 0.09339,0.39123c0.01459,0.156 0.00888,0.29716 0.11697,0.44073c0.04224,0.04701 0.03167,0.13621 0.03813,0.20553c0.03568,0.38134 0.18358,0.74775 0.25662,1.12414c0.06333,0.27237 0.18119,0.51994 0.18841,0.79977c-0.00086,0.19315 0.14626,0.34909 0.14699,0.55958c-0.00248,0.17583 -0.00335,0.36899 0.12343,0.51009c0.02355,0.04951 0.02843,0.1015 0.03332,0.15349c0.03729,0.39866 0.14772,0.77007 0.27858,1.15633c0.02678,0.0842 0.01624,0.17332 0.04139,0.24015c0.01459,0.156 0.01214,0.33184 0.12023,0.4754c0.02193,0.03219 0.02681,0.08419 0.03005,0.11884c0.02111,0.22534 0.02508,0.47052 0.15835,0.68094c-0.02043,0.38882 0.14453,0.73543 0.21599,1.09443c0.07146,0.35902 0.08842,0.74286 0.25173,1.07213c0.04712,0.09902 0.03976,0.22287 0.04952,0.32686c-0.16669,0.03972 -0.28861,-0.04934 -0.42114,-0.04924c-0.16161,-0.71558 -0.33867,-1.39405 -0.49702,-2.07497c-0.18353,-0.74778 -0.34677,-1.48071 -0.51165,-2.23095c-0.15998,-0.69828 -0.33869,-1.39404 -0.51736,-2.08981c-0.21359,-0.86664 -0.44428,-1.71343 -0.65627,-2.56271c-0.15513,-0.64628 -0.3102,-1.29254 -0.48406,-1.93629c-0.24529,-1.00282 -0.41739,-2.03294 -0.70008,-3.03075c-0.03167,-0.13617 -0.10076,-0.26737 -0.05923,-0.43084c0.16831,-0.02242 0.34146,0.00721 0.51303,0.01948c0.09676,0.02221 0.26179,-0.03485 0.41954,0.03191z" fill="#87d7dc"/><path d="M260.65407,208.50228c0.38947,-0.08693 0.76674,-0.10203 1.15455,-0.20631c0.44234,-0.12905 0.88303,-0.27548 1.31401,-0.52584c0.09405,1.0054 0.18648,1.99344 0.2773,2.96416c-0.18786,0.21806 -0.4245,0.31972 -0.6408,0.43626c-0.41551,0.21325 -0.84238,0.30514 -1.28796,0.39954c-0.01872,0.00249 -0.0577,-0.00987 -0.07806,-0.0247c0.15858,-0.12639 0.08949,-0.25759 0.03912,-0.39132c-0.12595,-0.33426 -0.23319,-0.67096 -0.2469,-1.02014c-0.00647,-0.06935 -0.01298,-0.13868 -0.03818,-0.20551c-0.14302,-0.31444 -0.15674,-0.66358 -0.24367,-0.98549c-0.05519,-0.18572 -0.10565,-0.31935 -0.2495,-0.44063z" fill="#61afb4"/><path d="M256.4283,191.46198c0.66424,0.01692 1.31712,-0.08751 1.9765,-0.12263c0.30083,-0.02246 0.59679,-0.09698 0.89279,-0.17146c0.55779,-0.10931 1.14072,-0.15178 1.69201,-0.33047c0.22117,-0.06451 0.44233,-0.12904 0.64318,-0.20841c0.12768,-0.05208 0.25692,-0.08685 0.38786,-0.10427c0.02357,0.04948 0.04551,0.08168 0.04873,0.11639c0.01295,0.13866 0.02596,0.27733 0.03895,0.416c-0.08862,0.06445 -0.16021,0.10905 -0.25045,0.15618c-0.65373,0.29758 -1.32622,0.59769 -2.05558,0.69474c-0.63421,0.10196 -1.28706,0.20638 -1.92779,0.239c-0.50819,0.03253 -1.0147,0.08238 -1.51713,-0.02625c0.09025,-0.04714 0.20733,-0.01004 0.27237,-0.124c0.01957,-0.19565 0.05459,-0.42847 -0.2015,-0.53479z" fill="#61aeb3"/><path d="M256.9858,192.56361c0.31468,-0.07698 0.6236,-0.01276 0.94311,-0.03775c0.67487,-0.07226 1.34971,-0.14448 2.01967,-0.26875c0.53905,-0.10681 1.05296,-0.28053 1.54492,-0.48638c0.12768,-0.05208 0.2553,-0.10417 0.38297,-0.15627c0.02271,0.24268 0.04221,0.4507 0.06324,0.67605c-0.20494,0.23786 -0.47738,0.36184 -0.7717,0.4537c-0.34882,0.11665 -0.71633,0.23572 -1.08872,0.30282c-0.83503,0.18128 -1.66112,0.25613 -2.50428,0.35079c-0.14959,0.0199 -0.29922,0.03982 -0.43824,-0.02943c-0.0081,-0.08668 0.00245,-0.17583 -0.04141,-0.24018c-0.09101,-0.16339 -0.09179,-0.37391 -0.10962,-0.56454z" fill="#61aeb3"/><path d="M260.65407,208.50228c0.12357,0.10643 0.19261,0.23762 0.22753,0.40848c0.0869,0.32185 0.10062,0.67108 0.24367,0.98547c0.02518,0.06686 0.0317,0.1362 0.03817,0.20555c0.03408,0.36404 0.13965,0.6834 0.24688,1.02013c0.04874,0.11639 0.11947,0.26491 -0.03913,0.39132c-0.27889,0.05465 -0.54394,0.05484 -0.79514,0.00052c-0.07883,-0.23524 -0.1763,-0.46795 -0.16162,-0.7156c-0.00324,-0.03466 -0.02679,-0.08419 -0.03004,-0.11886c-0.08853,-0.33921 -0.1787,-0.69578 -0.24853,-1.03748c-0.0333,-0.15351 -0.04624,-0.29219 -0.09825,-0.44325c-0.0739,-0.18321 -0.1121,-0.38876 -0.03643,-0.59187c0.09188,-0.02976 0.16667,-0.03973 0.23986,-0.067c0.1309,-0.01741 0.28215,-0.02 0.41302,-0.03743z" fill="#87d7dc"/><path d="M256.12647,182.97283c0.24714,0.21281 0.36656,0.47768 0.46731,0.74513c0.02519,0.06685 0.03491,0.17087 0.02271,0.24268c-0.10258,0.52259 -0.13038,1.03526 -0.13945,1.5454c0.00161,0.01734 -0.01383,0.05448 -0.03092,0.07433c-0.06994,0.06195 -0.16344,0.07443 -0.2618,0.03486c-0.00324,-0.03466 -0.02522,-0.06687 -0.02845,-0.10153c-0.02018,-0.41848 -0.09652,-0.82957 -0.2647,-1.21083c-0.07555,-0.20055 -0.0934,-0.39125 -0.01935,-0.61169c0.09114,-0.24026 0.12612,-0.47307 0.25468,-0.71835z" fill="#cce5e6"/><path d="M255.24934,185.73958c-0.10733,0.06694 -0.18376,0.05955 -0.24472,0.01502c-0.11522,-0.82707 -0.11524,-0.82705 -0.48254,-1.51528c0.00983,-0.29968 0.11317,-0.61175 0.18076,-0.90153c0.12768,-0.05208 0.15605,0.04943 0.19834,0.09645c0.14874,0.17325 0.29586,0.32919 0.40882,0.52478c0.06909,0.13124 0.0991,0.25007 0.07468,0.39369c-0.07168,0.44832 -0.123,0.91141 -0.13536,1.38689z" fill="#cce5e6"/><path d="M260.22231,208.5422c-0.07318,0.02728 -0.14802,0.03724 -0.23984,0.06701c-0.07567,0.20312 -0.03751,0.40863 0.03644,0.59187c0.05201,0.15104 0.06497,0.2897 0.09824,0.44326c0.06984,0.34172 0.15998,0.69826 0.24852,1.03748c0.00324,0.03466 0.02682,0.08419 0.03005,0.11887c0.00564,0.26249 0.10147,0.47789 0.16159,0.71558c-0.15284,-0.01474 -0.28701,-0.03202 -0.44634,-0.11612c-0.10149,-0.47789 -0.24205,-0.96817 -0.32648,-1.46589c-0.10149,-0.47789 -0.2778,-0.94583 -0.32646,-1.46586c0.30082,-0.02247 0.53172,0.01699 0.76423,0.07376z" fill="#60adb2"/><path d="M260.01009,186.84351c0.07317,-0.02728 0.1277,-0.05208 0.20084,-0.07937c0.04066,0.02968 0.06093,0.04455 0.08126,0.05936c0.10238,0.28471 0.25923,0.54467 0.43474,0.8021c0.06745,0.11388 0.09589,0.21543 0.05114,0.34419c-0.07081,0.25513 -0.10256,0.52259 -0.32622,0.76296c-0.24546,-0.1955 -0.40234,-0.45542 -0.54047,-0.71783c-0.02357,-0.04948 -0.01293,-0.13868 -0.00076,-0.21048c0.02688,-0.31944 0.05382,-0.639 0.09945,-0.96096z" fill="#cce5e6"/><path d="M259.86168,182.42312c0.09102,0.16336 0.15683,0.25994 0.2243,0.37383c0.11459,0.21293 0.15273,0.41841 0.06324,0.67604c-0.1294,0.43839 -0.20102,0.88672 -0.1605,1.32007c0.01296,0.13867 -0.00412,0.15847 -0.23015,0.17105c-0.00486,-0.05201 -0.02845,-0.10151 -0.03329,-0.15354c-0.02184,-0.43584 -0.11685,-0.84438 -0.26797,-1.24548c-0.02842,-0.10153 -0.05523,-0.18571 -0.02597,-0.27737c0.12527,-0.27995 0.21319,-0.55487 0.43037,-0.86455z" fill="#cae2e3"/><path d="M257.45759,185.46331c-0.02029,-0.01484 -0.0423,-0.04706 -0.04389,-0.06437c0.00011,-0.40363 -0.11038,-0.77505 -0.23792,-1.12667c-0.10723,-0.3367 -0.13804,-0.6661 0.01817,-1.0203c0.07892,-0.16845 0.07975,-0.3616 0.19771,-0.51771c0.33327,0.32419 0.44696,0.73027 0.35174,1.12904c-0.10583,0.48794 -0.23197,0.961 -0.16624,1.46124c-0.01382,0.05451 -0.00737,0.12383 -0.11955,0.13877z" fill="#c9e1e2"/><path d="M258.55431,182.61465c0.21295,0.25247 0.31044,0.48517 0.40956,0.73523c0.02678,0.0842 0.0349,0.17085 0.00399,0.24517c-0.1229,0.50777 -0.20678,1.02785 -0.25327,1.54298c0.00324,0.03466 -0.01057,0.08914 -0.10571,0.08426c-0.01134,-0.12132 -0.02432,-0.25999 -0.05437,-0.37887c-0.05113,-0.34418 -0.12097,-0.6859 -0.264,-1.00031c-0.09754,-0.23273 -0.09987,-0.46055 0.01157,-0.68598c0.07892,-0.16845 0.15941,-0.31959 0.25218,-0.54253z" fill="#c9e1e2"/><path d="M261.17199,186.51345c0.10413,-0.10159 0.19763,-0.11404 0.29111,-0.1265c0.0203,0.01483 0.04229,0.04703 0.06256,0.06188c0.06334,0.27238 0.19988,0.51746 0.38927,0.72039c0.10646,0.12623 0.13814,0.26242 0.09662,0.4259c-0.05696,0.20061 -0.09357,0.41611 -0.18957,0.60439c-0.22028,-0.12863 -0.48939,-0.37364 -0.53974,-0.50734c-0.04553,-0.08168 -0.01462,-0.156 -0.00398,-0.24517c-0.04625,-0.29218 -0.00066,-0.61419 -0.10624,-0.93354z" fill="#cae3e4"/><path d="M254.88357,188.50854c0.16105,-0.30221 0.26604,-0.59699 0.35067,-0.90662c0.10892,-0.04958 0.18378,-0.05957 0.28214,-0.02001c0.12269,0.29955 0.1193,0.66856 0.2607,0.96565c-0.07569,0.20311 -0.21554,0.32704 -0.33345,0.48314c-0.06829,0.07926 -0.11627,0.17339 -0.24558,0.20817c-0.17069,-0.20544 -0.17791,-0.48527 -0.31445,-0.73037z" fill="#c8e0e1"/><path d="M257.79938,187.29569c0.16991,-0.00506 0.19511,0.06179 0.22029,0.12863c0.09914,0.25008 0.19661,0.48277 0.27706,0.73532c0.02519,0.06686 0.03168,0.13619 0.00078,0.21052c-0.11306,0.20807 -0.24484,0.41866 -0.39691,0.61443c-0.10321,-0.09157 -0.13166,-0.1931 -0.19748,-0.28964c-0.19746,-0.28962 -0.24376,-0.58179 -0.02662,-0.89152c0.09925,-0.15362 0.12043,-0.33194 0.12288,-0.50777z" fill="#cbe4e5"/><path d="M256.62122,187.45246c0.09349,-0.01247 0.14959,-0.01992 0.20569,-0.0274c0.02193,0.03219 0.06095,0.04456 0.06257,0.06187c0.05519,0.18572 0.09179,0.3739 0.14702,0.5596c0.02841,0.10154 0.01782,0.19069 -0.03019,0.28482c-0.14397,0.2824 -0.3083,0.54998 -0.5287,0.82501c-0.14551,-0.13858 -0.17879,-0.2921 -0.21208,-0.4456c-0.00646,-0.06931 -0.01294,-0.13868 0.01954,-0.19563c0.21716,-0.3097 0.29696,-0.67133 0.33608,-1.06264z" fill="#c8e0e1"/><path d="M256.98573,192.56361c0.01783,0.19067 0.01859,0.4012 0.12995,0.57943c0.04389,0.06436 0.03326,0.1535 0.04139,0.24017c-0.31627,0.05963 -0.62034,0.04746 -0.91222,-0.03659c0.01471,-0.24766 -0.08279,-0.48037 -0.13967,-0.68339c0.12278,-0.1041 0.25858,-0.0695 0.36749,-0.11912c0.16669,-0.03972 0.35533,-0.04727 0.51303,0.01947z" fill="#85d5d9"/><path d="M261.36235,183.0834c-0.06919,0.27247 -0.13833,0.54491 -0.18722,0.83222c-0.03341,0.25015 0.14215,0.50759 -0.11408,0.80491c-0.05515,-0.58933 -0.23469,-1.09198 -0.41423,-1.59458c0.07569,-0.20311 0.1684,-0.42606 0.34084,-0.60695c0.04066,0.02968 0.06096,0.04454 0.08127,0.05936c0.1097,0.16088 0.20076,0.3243 0.29337,0.50499z" fill="#c6dede"/><path d="M255.82581,182.59166c-0.10334,0.31213 -0.1912,0.58702 -0.29455,0.89915c-0.15932,-0.08411 -0.22842,-0.21531 -0.33163,-0.30685c-0.10487,-0.10887 -0.2455,-0.1955 -0.31617,-0.34403c-0.01134,-0.12132 0.05372,-0.2353 0.10006,-0.34676c0.04635,-0.11147 0.11147,-0.22542 0.19523,-0.34189c0.27153,0.06917 0.44057,0.2573 0.64707,0.44042z" fill="#cae3e3"/><path d="M254.05575,185.93352c-0.17957,-0.50261 -0.35102,-0.91854 -0.63302,-1.30219c0.05375,-0.23531 0.08876,-0.46811 0.14085,-0.72074c0.25609,0.10632 0.36906,0.30189 0.51776,0.47513c0.02193,0.03219 0.0268,0.08421 0.03002,0.11885c-0.01557,0.4408 -0.03111,0.88166 -0.05564,1.42894z" fill="#cae3e4"/><path d="M259.1348,188.8203c-0.21294,-0.25246 -0.38689,-0.49256 -0.251,-0.86163c0.08951,-0.25761 0.0839,-0.52014 0.07826,-0.78262c-0.00972,-0.10402 0.08212,-0.13379 0.1976,-0.11407c-0.01144,0.28231 0.10638,0.52991 0.22421,0.77748c0.09264,0.1807 0.06985,0.3417 -0.00906,0.51016c-0.06184,0.14862 -0.08466,0.30962 -0.24001,0.47069z" fill="#c8e0e1"/><path d="M256.4283,191.46198c0.25771,0.12366 0.22103,0.33912 0.22179,0.54963c-0.06506,0.11393 -0.1805,0.09423 -0.27235,0.124c-0.24471,0.01501 -0.47561,-0.02448 -0.70979,-0.09862c0.00086,-0.19315 -0.09176,-0.37388 -0.01449,-0.55966c0.09189,-0.02976 0.14801,-0.03724 0.22278,-0.0472c0.19026,0.00978 0.38049,0.01953 0.55204,0.03183z" fill="#85d4d9"/><path d="M257.2478,188.6853c0.13652,0.24508 0.23241,0.46046 0.34701,0.67337c-0.15048,0.21306 -0.32123,0.41131 -0.51401,0.57733c-0.13416,-0.01724 -0.18127,-0.11628 -0.24385,-0.17813c-0.06258,-0.06187 -0.12515,-0.12373 -0.1178,-0.24757c0.13018,-0.22791 0.31314,-0.49795 0.52869,-0.82501z" fill="#c7dfe0"/><path d="M260.26313,189.14401c-0.11471,0.19077 -0.2107,0.37901 -0.38309,0.55994c-0.23901,-0.12615 -0.35195,-0.3217 -0.50393,-0.52963c0.11145,-0.22542 0.22287,-0.45087 0.33272,-0.69365c0.2097,0.2178 0.36171,0.42577 0.5543,0.66335z" fill="#c8e0e1"/><path d="M256.6715,181.91747c0.16257,0.11879 0.32512,0.23755 0.43648,0.41578c-0.08951,0.25761 -0.1977,0.51771 -0.30428,0.79512c-0.03737,0.00496 -0.07478,0.00993 -0.0764,-0.00741c-0.1268,-0.14108 -0.25519,-0.29948 -0.36331,-0.44304c-0.04389,-0.06437 -0.06911,-0.13122 -0.03657,-0.18818c0.09276,-0.22294 0.12939,-0.43841 0.34408,-0.57232z" fill="#c4dcdd"/><path d="M259.58288,182.07415c-0.12853,0.24525 -0.23836,0.48801 -0.3669,0.73328c-0.15445,-0.03212 -0.16742,-0.17077 -0.23326,-0.26733c-0.06582,-0.09653 -0.1146,-0.21291 -0.18204,-0.32677c0.07405,-0.22043 0.24812,-0.38395 0.38151,-0.57728c0.21702,0.09395 0.30807,0.25737 0.40067,0.43809z" fill="#c8e0e1"/><path d="M260.77862,188.98767c0.10823,-0.2601 0.19935,-0.5004 0.30594,-0.77782c0.19999,0.11377 0.3113,0.29204 0.49261,0.40832c-0.05214,0.25262 -0.22453,0.43353 -0.35469,0.66143c-0.19673,-0.07911 -0.35444,-0.14588 -0.4438,-0.29194z" fill="#c6ddde"/><path d="M262.30548,186.08182c0.21458,0.26981 0.33891,0.58669 0.60631,0.81436c-0.03663,0.21548 -0.05621,0.41115 -0.16928,0.61923c-0.23573,-0.09149 -0.38128,-0.23008 -0.36819,-0.49505c0.02691,-0.31946 -0.03968,-0.62651 -0.06887,-0.93855z" fill="#b9cfd0"/><path d="M252.98582,185.83018c-0.11705,-0.03708 -0.06912,-0.13122 -0.09426,-0.19804c-0.05199,-0.15104 -0.0853,-0.30451 -0.20724,-0.39364c-0.16744,-0.17079 -0.16661,-0.36391 -0.14863,-0.57692c0.01062,-0.08917 0.03987,-0.18082 0.06594,-0.30712c0.26097,0.1583 0.46417,0.3068 0.42018,0.64608c-0.03499,0.23281 0.00637,0.47302 0.00875,0.70084c0.00484,0.05201 0.00972,0.10401 -0.04476,0.12881z" fill="#c0d8d8"/><path d="M254.06229,189.03902c-0.1081,-0.14358 -0.15845,-0.27725 -0.17145,-0.41592c-0.00646,-0.06931 -0.01463,-0.15601 0.01792,-0.21298c0.14725,-0.24773 0.23672,-0.50534 0.32624,-0.76298c0.1309,-0.0174 0.11868,0.0544 0.12356,0.10644c0.01622,0.17335 0.03408,0.36404 0.08768,0.53239c0.05847,0.22037 0.01697,0.38385 -0.15869,0.53008c-0.08863,0.06446 -0.13988,0.12391 -0.22525,0.223z" fill="#c1d9d9"/><path d="M258.88831,189.22164c-0.09435,0.20557 -0.23104,0.36418 -0.3644,0.55743c-0.21544,-0.07663 -0.28933,-0.25984 -0.41617,-0.40093c0.10982,-0.24277 0.30091,-0.42615 0.47011,-0.64171c0.14712,0.15593 0.21944,0.32183 0.31048,0.48521z" fill="#c3dbdc"/><path d="M257.97533,182.90234c-0.13495,-0.22776 -0.24949,-0.44068 -0.38277,-0.65109c0.06018,-0.16599 0.12205,-0.31459 0.2806,-0.441c0.18129,0.1163 0.29098,0.27718 0.41945,0.43559c-0.05375,0.23531 -0.14806,0.44087 -0.31724,0.65645z" fill="#c3dadb"/><path d="M257.29859,190.24051c0.17243,-0.1809 0.32775,-0.34195 0.48306,-0.50301c0.19835,0.09644 0.30806,0.25734 0.41777,0.41824c-0.1163,0.17343 -0.25454,0.31467 -0.43182,0.44352c-0.05935,-0.02721 -0.139,-0.06927 -0.17964,-0.09893c-0.10322,-0.09156 -0.16743,-0.17076 -0.28938,-0.25987z" fill="#c4dbdc"/><path d="M253.34309,187.62541c0.03079,0.32939 0.05511,0.58942 0.08112,0.86672c-0.08215,0.13379 -0.18628,0.23539 -0.34968,0.30975c-0.12028,-0.07175 -0.09426,-0.19806 -0.14136,-0.29709c-0.04713,-0.09901 -0.07555,-0.20055 -0.0837,-0.28722c0.17081,-0.19827 0.30743,-0.35684 0.49367,-0.5922z" fill="#c2d9da"/><path d="M255.39109,181.78952c0.06184,-0.14862 0.14556,-0.26508 0.25132,-0.34934c0.14797,-0.03723 0.23254,0.05686 0.33087,0.09638c0.09834,0.03952 0.21218,0.04195 0.27962,0.15583c-0.02118,0.17833 -0.13749,0.35174 -0.25055,0.55988c-0.10165,-0.07424 -0.20325,-0.14847 -0.30322,-0.20536c-0.10321,-0.09157 -0.20647,-0.18311 -0.30808,-0.25736z" fill="#c5ddde"/><path d="M259.60848,190.03844c-0.0773,0.18581 -0.22203,0.25772 -0.32449,0.37664c-0.21381,-0.05931 -0.35932,-0.1979 -0.52516,-0.35131c0.11791,-0.15609 0.23588,-0.31219 0.33513,-0.46581c0.23573,0.0915 0.34873,0.28707 0.51453,0.44048z" fill="#c3dbdc"/><path d="M254.16365,183.84828c-0.07971,-0.04204 -0.12031,-0.07169 -0.16096,-0.10138c-0.08289,-0.07671 -0.16745,-0.17078 -0.27067,-0.26234c0.10823,-0.2601 0.1603,-0.51273 0.34817,-0.73078c0.13416,0.01724 0.19837,0.09645 0.28452,0.20785c-0.05047,0.26996 -0.11644,0.57708 -0.20103,0.8867z" fill="#c7dfe0"/><path d="M256.19545,189.58c-0.17402,0.16356 -0.27002,0.3518 -0.46761,0.46585c-0.17804,-0.08163 -0.21458,-0.26978 -0.35521,-0.35636c0.14726,-0.24775 0.32124,-0.41132 0.49204,-0.60954c0.20162,0.13113 0.21943,0.32179 0.33081,0.50003z" fill="#c7dee0"/><path d="M256.47112,192.5268c-0.10895,0.0496 -0.24472,0.01499 -0.3675,0.11912c0.05847,0.22037 0.13726,0.45557 0.13965,0.6834c-0.07645,-0.00737 -0.17155,-0.01229 -0.24958,-0.03695c-0.11705,-0.03708 -0.19996,-0.11381 -0.21134,-0.23516c-0.03816,-0.2055 -0.07471,-0.39367 -0.11285,-0.59924c0.24312,-0.03235 0.35694,-0.02995 0.80165,0.06883z" fill="#61acb1"/><path d="M260.81622,182.10308c-0.11471,0.19077 -0.21392,0.34433 -0.34731,0.53761c-0.13328,-0.21041 -0.26493,-0.40346 -0.37953,-0.61637c0.0805,-0.15111 0.16269,-0.28489 0.28386,-0.40633c0.20161,0.13113 0.3113,0.29202 0.44297,0.48509z" fill="#c2dada"/><path d="M254.19141,189.40792c0.11471,-0.19077 0.25458,-0.31467 0.40994,-0.47574c0.09753,0.23273 0.19177,0.4308 0.28603,0.62887c-0.06019,0.16598 -0.18625,0.23539 -0.32775,0.34195c-0.17965,-0.09893 -0.25362,-0.28219 -0.36819,-0.49505z" fill="#c1d9d9"/><path d="M258.56093,181.87665c-0.18451,-0.15096 -0.30968,-0.27469 -0.45356,-0.39598c0.03989,-0.18081 0.17815,-0.32206 0.31641,-0.46331c0.17638,0.0643 0.33573,0.14838 0.46415,0.3068c-0.03664,0.21547 -0.21557,0.32704 -0.32699,0.55249z" fill="#c6dedf"/><path d="M260.97121,189.62895c-0.1163,0.17342 -0.25296,0.33201 -0.37087,0.4881c-0.16991,0.00506 -0.28861,-0.04934 -0.4122,-0.15576c0.05375,-0.23531 0.24811,-0.38396 0.36116,-0.5921c0.17481,0.04693 0.27962,0.15584 0.4219,0.25975z" fill="#c0d7d7"/><path d="M253.27424,183.65072c-0.05696,0.20062 -0.05622,0.41113 -0.20828,0.60689c-0.12357,-0.10643 -0.2455,-0.19552 -0.36742,-0.28457c-0.01943,-0.208 0.05784,-0.39377 0.19447,-0.55234c0.15446,0.0321 0.25605,0.10632 0.38124,0.23003z" fill="#c3dadb"/><path d="M255.89503,191.4276c-0.07481,0.00995 -0.148,0.03726 -0.22282,0.04723c-0.0773,0.18582 0.01531,0.36649 0.01449,0.55966c-0.12928,0.03475 -0.21383,-0.05932 -0.34633,-0.05922c-0.09588,-0.21539 -0.05927,-0.43087 -0.21123,-0.63878c0.18538,-0.04219 0.30242,-0.00516 0.43825,0.02943c0.09676,0.0222 0.22443,-0.02983 0.32762,0.06171z" fill="#5aa0a4"/><path d="M263.59308,187.29686c-0.05696,0.20061 -0.05623,0.41117 -0.19122,0.58706c-0.13416,-0.01724 -0.21546,-0.07665 -0.33739,-0.16568c0.01957,-0.19567 0.07652,-0.39629 0.17412,-0.56725c0.13416,0.01725 0.21382,0.0593 0.35443,0.14589z" fill="#bdd3d4"/><path d="M258.14234,190.75998c0.12119,-0.12144 0.22367,-0.24034 0.32612,-0.35928c0.17641,0.06429 0.29998,0.1707 0.42514,0.29442c-0.04314,0.14612 -0.17081,0.19827 -0.30168,0.21568c-0.1683,0.02243 -0.33658,0.04481 -0.44957,-0.15077z" fill="#bdd4d5"/><path d="M262.24289,182.98377c-0.07405,0.22042 -0.14972,0.42359 -0.22375,0.64401c-0.22106,-0.33911 -0.34534,-0.65604 0.00109,-1.00048c0.12028,0.07175 0.15196,0.20794 0.22267,0.35645z" fill="#bbd2d3"/><path d="M256.36598,190.59277c-0.15607,-0.04944 -0.24063,-0.14351 -0.32513,-0.23757c-0.01134,-0.12132 0.07892,-0.16846 0.14726,-0.24774c0.05123,-0.05946 0.10084,-0.13625 0.21144,-0.16851c0.15607,0.04944 0.17231,0.22275 0.33002,0.28951c-0.0976,0.17096 -0.22038,0.27504 -0.36349,0.3643z" fill="#c3dadb"/><path d="M257.88115,185.33671c0.00826,-0.317 0.01642,-0.63397 0.09947,-0.96093c0.11381,0.00242 0.14067,0.0866 0.14872,0.17325c0.03977,0.22286 0.06087,0.44816 0.08032,0.65619c0.01459,0.156 -0.09437,0.20564 -0.32849,0.13146z" fill="#b1c6c7"/><path d="M262.04035,189.52178c0.02441,-0.14363 0.13176,-0.21059 0.19845,-0.3072c0.1147,-0.19078 0.28138,-0.23051 0.51393,-0.17368c-0.08951,0.25761 -0.29934,0.44348 -0.47335,0.60702c-0.13253,0.00009 -0.1919,-0.02711 -0.23901,-0.12615z" fill="#bbd2d3"/><path d="M260.37077,184.82991c-0.10563,-0.31942 -0.00228,-0.63148 0.08073,-0.95845c0.13494,0.22776 0.1592,0.48777 0.20063,0.72794c0.03329,0.15352 -0.01955,0.19569 -0.28136,0.23049z" fill="#bad1d2"/><path d="M263.32097,186.20991c0.14386,0.12127 0.28451,0.20786 0.42837,0.32909c-0.01059,0.08917 -0.05534,0.21798 -0.0814,0.34429c-0.34473,-0.04188 -0.34634,-0.05922 -0.34873,-0.28707c-0.01132,-0.12134 -0.00398,-0.24518 0.00174,-0.38632z" fill="#b5cbcc"/><path d="M257.59461,180.65389c0.19185,0.02714 0.31221,0.09884 0.4325,0.17059c-0.04151,0.16349 -0.18464,0.2527 -0.30579,0.37415c-0.13903,-0.06922 -0.25928,-0.141 -0.39831,-0.21025c0.0041,-0.15849 0.16915,-0.21557 0.27166,-0.33452z" fill="#c0d7d8"/><path d="M262.30834,187.73114c0.11542,0.01976 0.19837,0.09644 0.28293,0.19049c-0.03503,0.23282 -0.14807,0.44091 -0.30181,0.6193c-0.12928,0.03475 -0.17154,-0.01228 -0.21702,-0.09395c0.07239,-0.23778 0.14483,-0.47559 0.23597,-0.71585z" fill="#bdd4d4"/><path d="M261.01313,181.77853c-0.1268,-0.14108 -0.23651,-0.30196 -0.36332,-0.44304c0.06671,-0.09662 0.15697,-0.14374 0.26914,-0.15868c0.11542,0.01975 0.16096,0.1014 0.22515,0.18061c0.04389,0.06437 0.08777,0.12871 0.13167,0.19309c-0.04637,0.11149 -0.11469,0.19078 -0.2627,0.22803z" fill="#b6cccc"/><path d="M257.2967,181.92206c-0.14385,-0.12127 -0.26741,-0.22767 -0.43002,-0.34644c0.00896,-0.10648 0.05532,-0.21799 0.21879,-0.29238c0.13904,0.06922 0.27964,0.15582 0.43896,0.23991c-0.06184,0.14862 -0.10656,0.27745 -0.22777,0.39887z" fill="#c1d9d9"/><path d="M261.81136,182.21637c-0.06184,0.14862 -0.12688,0.26261 -0.2497,0.36667c-0.14386,-0.12127 -0.19747,-0.28965 -0.26655,-0.42085c0.02441,-0.14363 0.13337,-0.19325 0.22202,-0.25769c0.05772,0.00988 0.09513,0.0049 0.09676,0.0222c0.06579,0.09654 0.13165,0.19307 0.19747,0.28965z" fill="#b7cdce"/><path d="M262.94201,183.57523c-0.16743,-0.1708 -0.18205,-0.32678 -0.23404,-0.47781c-0.07233,-0.16587 0.0334,-0.25015 0.15618,-0.35424c0.14386,0.12127 0.19586,0.27229 0.28364,0.40102c-0.02119,0.17832 -0.20333,0.25521 -0.20581,0.43105z" fill="#b6cccc"/><path d="M263.2659,188.25305c-0.08052,0.15111 -0.14558,0.26506 -0.20904,0.39637c-0.16669,0.03972 -0.27889,0.05465 -0.41789,-0.01458c0.09761,-0.17095 0.17652,-0.3394 0.25702,-0.4905c0.16342,-0.07442 0.24794,0.01968 0.36178,0.02204c0.00324,0.03466 0.0252,0.06686 0.00813,0.08668z" fill="#c2dada"/><path d="M256.65137,181.09531c-0.04478,0.12878 -0.09598,0.18827 -0.18624,0.23541c-0.11061,0.03226 -0.19185,-0.02714 -0.29024,-0.06666c-0.0797,-0.04205 -0.21219,-0.04195 -0.24225,-0.16082c0.08378,-0.11642 0.18786,-0.21804 0.35294,-0.27511c0.14064,0.08658 0.24386,0.17815 0.36581,0.26724z" fill="#bbd2d3"/><path d="M254.76036,190.22729c0.12279,-0.10409 0.20982,-0.18588 0.31553,-0.27015c0.14228,0.10392 0.23001,0.23265 0.33652,0.35889c-0.06505,0.11395 -0.15208,0.19576 -0.28299,0.21313c-0.03904,-0.01234 -0.07803,-0.02473 -0.10001,-0.0569c-0.08127,-0.05936 -0.16421,-0.13614 -0.26906,-0.24501z" fill="#bbd2d3"/><path d="M263.82426,186.12539c-0.24227,-0.16082 -0.24227,-0.16082 -0.3633,-0.44304c0.08053,-0.15113 0.22852,-0.18835 0.39196,-0.26273c0.07882,0.23524 0.00639,0.473 -0.02864,0.70581z" fill="#adc2c3"/><path d="M256.70655,190.79317c0.06505,-0.11395 0.17082,-0.19823 0.30007,-0.23297c0.14228,0.10392 0.2642,0.19293 0.38771,0.29939c-0.30169,0.21566 -0.32038,0.21816 -0.68782,-0.06638z" fill="#b5cbcc"/><path d="M260.09945,181.32097c-0.08215,0.1338 -0.14887,0.2304 -0.27166,0.33449c-0.15767,-0.06675 -0.22839,-0.21532 -0.35358,-0.33906c0.03255,-0.05699 0.06669,-0.0966 0.10083,-0.13627c0.03417,-0.03966 0.08862,-0.06445 0.14149,-0.10659c0.17317,0.02961 0.27637,0.12115 0.38289,0.24741z" fill="#bbd1d2"/><path d="M253.56211,189.56188c-0.19837,-0.09646 -0.23651,-0.30197 -0.343,-0.42818c0.06347,-0.13127 0.19275,-0.16607 0.29849,-0.25034c0.14875,0.17324 0.20235,0.34163 0.16408,0.53977c0.00485,0.052 -0.06669,0.09663 -0.11954,0.13876z" fill="#b6cccd"/><path d="M253.75669,182.53351c-0.10982,0.24277 -0.24,0.47067 -0.35142,0.6961c-0.13254,0.00008 -0.21218,-0.04194 -0.29834,-0.15332c0.16915,-0.21557 0.33832,-0.43111 0.56845,-0.60215c0.04066,0.0297 0.06096,0.04454 0.08128,0.05936z" fill="#acc1c2"/><path d="M259.24003,184.27842c0.07718,0.21788 0.13566,0.43826 0.11933,0.66855c-0.01062,0.08917 -0.0602,0.16596 -0.15368,0.17841c-0.03736,0.00496 -0.11543,-0.01975 -0.11706,-0.03709c-0.04302,-0.25751 0.06354,-0.53495 0.15141,-0.80989z" fill="#a7bbbb"/><path d="M259.42546,180.79639c-0.02768,0.109 -0.1163,0.17343 -0.22364,0.24035c-0.14064,-0.08658 -0.28127,-0.17318 -0.4219,-0.25976c0.06184,-0.14862 0.17242,-0.18088 0.3033,-0.1983c0.11705,0.03708 0.23902,0.12614 0.34223,0.21774z" fill="#b7cdcd"/><path d="M259.57498,190.69221c0.0773,-0.18582 0.2001,-0.28985 0.34158,-0.39647c0.15446,0.0321 0.27315,0.0865 0.36254,0.23256c-0.21468,0.13386 -0.44071,0.14638 -0.70412,0.16392z" fill="#b7cece"/><path d="M252.36897,188.14115c-0.15037,-0.19058 -0.09662,-0.42587 -0.20638,-0.58676c0.06506,-0.11393 0.1415,-0.10656 0.18379,-0.05955c0.10648,0.12622 0.19588,0.2723 0.21207,0.44563c-0.01383,0.05451 -0.01224,0.07181 -0.18949,0.20072z" fill="#b4cacb"/><path d="M254.516,182.55533c-0.11705,-0.03706 -0.17803,-0.0816 -0.22356,-0.16328c0.1147,-0.19078 0.22777,-0.39886 0.4766,-0.57238c0.04625,0.29218 -0.10583,0.48792 -0.25305,0.73567z" fill="#b2c8c9"/><path d="M255.66596,190.59817c0.13903,0.06922 0.239,0.12614 0.28613,0.22517c-0.01222,0.07183 -0.06669,0.09666 -0.12119,0.12145c-0.2179,0.0992 -0.32278,-0.00972 -0.43247,-0.1706c0.09025,-0.04714 0.1789,-0.11158 0.26753,-0.17602z" fill="#b5cbcb"/><path d="M261.60751,184.4899c-0.03978,-0.22285 -0.05763,-0.4135 -0.02098,-0.62898c0.09188,-0.02975 0.13414,0.01724 0.13902,0.06924c0.03005,0.11888 0.0788,0.23525 0.10886,0.35408c0.01296,0.13867 -0.05859,0.18327 -0.22689,0.20564z" fill="#91a3a3"/><path d="M254.46899,185.0888c0.15037,0.19058 0.15274,0.41842 0.17219,0.62644c0.00324,0.03466 -0.03092,0.07433 -0.0667,0.09662c-0.03737,0.00496 -0.09675,-0.02219 -0.09838,-0.03956c-0.07882,-0.23524 -0.06249,-0.46555 -0.00714,-0.68351z" fill="#99abac"/><path d="M253.62649,185.7976c-0.12442,0.08677 -0.21791,0.09919 -0.26343,0.0175c-0.04874,-0.11639 -0.02755,-0.29467 0.02616,-0.52997c0.14715,0.15593 0.16496,0.34658 0.23726,0.51245z" fill="#93a5a6"/><path d="M261.3694,190.24285c0.13179,-0.21057 0.24321,-0.43602 0.5928,-0.34216c-0.13018,0.2279 -0.37327,0.26026 -0.5928,0.34216z" fill="#9aadad"/><path d="M260.81246,187.12287c-0.06909,-0.13123 -0.13977,-0.27974 -0.20721,-0.39365c0.04801,-0.09413 0.10247,-0.11895 0.21631,-0.11652c0.10812,0.14358 0.04953,0.32687 0.08283,0.48038c-0.03737,0.00496 -0.05611,0.00744 -0.0919,0.02978z" fill="#c5dddd"/><path d="M256.85035,184.84207c0.18937,0.20294 0.21044,0.42832 0.15675,0.6636c0.00161,0.01734 -0.03416,0.03967 -0.07156,0.04465c-0.05449,0.02479 -0.09675,-0.02219 -0.09999,-0.05689c-0.03658,-0.18816 0.00011,-0.40368 0.0148,-0.65135z" fill="#aec2c3"/><path d="M253.8995,189.72756c0.14386,0.12127 0.21619,0.28711 0.28688,0.4357c-0.04798,0.09414 -0.12444,0.08676 -0.16833,0.02242c-0.08616,-0.11141 -0.17067,-0.20545 -0.23973,-0.33666c-0.04066,-0.0297 0.01058,-0.08914 0.12117,-0.12142z" fill="#9caeaf"/><path d="M258.40031,180.56424c-0.17318,-0.02962 -0.29183,-0.084 -0.43248,-0.1706c0.23662,-0.10169 0.44719,-0.07707 0.67159,-0.10692c-0.01384,0.05451 -0.01062,0.08917 -0.02769,0.10896c-0.06994,0.06195 -0.14148,0.10657 -0.21141,0.16853z" fill="#a9bebf"/><path d="M255.94813,187.54202c0.12768,-0.05208 0.20405,-0.0447 0.28378,-0.00263c0.03489,0.17086 -0.00661,0.33431 -0.1774,0.53257c-0.05686,-0.20305 -0.07144,-0.35904 -0.10639,-0.5299z" fill="#b9cfd0"/><path d="M261.77939,186.3273c0.048,-0.09412 0.1212,-0.1214 0.19436,-0.14871c0.09675,0.02222 0.10486,0.10887 0.08766,0.53239c-0.23414,-0.07414 -0.19588,-0.27229 -0.28202,-0.38369z" fill="#869797"/><path d="M255.73161,185.02608c-0.03017,0.28481 0.16085,0.50511 -0.0815,0.74794c-0.09915,-0.25007 -0.09991,-0.46054 0.0815,-0.74794z" fill="#93a4a5"/><path d="M262.5005,183.51108c0.02432,0.25999 0.04052,0.43336 0.05675,0.6067c0.00324,0.03466 -0.03092,0.07433 -0.08701,0.08176c-0.01872,0.00249 -0.05773,-0.00988 -0.07806,-0.02471c-0.05689,-0.20301 -0.07472,-0.39375 0.1083,-0.66376z" fill="#94a5a6"/><path d="M262.65272,185.94782c0.10574,-0.08425 0.16018,-0.10907 0.26017,-0.05218c0.03167,0.13617 0.06497,0.28971 0.02508,0.47053c-0.19835,-0.0965 -0.21455,-0.26978 -0.28526,-0.41832z" fill="#abbfc0"/><path d="M262.66992,182.48819c-0.09024,0.04713 -0.12603,0.06942 -0.16346,0.0744c-0.22842,-0.2153 -0.22838,-0.21528 -0.19498,-0.46542c0.19673,0.07911 0.21296,0.25244 0.35841,0.39103z" fill="#acc0c1"/><path d="M261.5347,189.37843c0.09925,-0.15362 0.17814,-0.32206 0.29607,-0.47815c0.05123,-0.05946 0.12605,-0.0694 0.19185,0.02714c-0.11471,0.19077 -0.231,0.36418 -0.48793,0.45102z" fill="#9fb2b2"/><path d="M260.35882,181.05827c-0.10001,-0.05691 -0.16094,-0.10146 -0.20646,-0.18311c0.03091,-0.07434 0.08376,-0.11646 0.17565,-0.14623c0.11382,0.00242 0.19672,0.07913 0.27962,0.15585c-0.02768,0.109 -0.13825,0.14124 -0.24882,0.17348z" fill="#aec2c3"/><path d="M258.56273,187.56264c-0.15767,-0.06674 -0.16907,-0.18812 -0.19912,-0.30696c-0.00484,-0.05201 0.04798,-0.0941 0.10409,-0.10158c0.03737,-0.00496 0.09678,0.02221 0.1,0.05689c0.06582,0.09653 0.03816,0.20556 -0.00499,0.35166z" fill="#91a2a3"/><path d="M257.10927,180.52545c-0.17815,0.32207 -0.19519,0.34191 -0.46102,0.13158c0.14636,-0.05456 0.26915,-0.15868 0.46102,-0.13158z" fill="#869696"/><path d="M252.57769,185.91961c-0.18128,-0.11631 -0.13491,-0.22772 -0.12756,-0.35159c0.1764,0.0643 0.1764,0.0643 0.12756,0.35159z" fill="#555f5f"/><path d="M259.65968,186.94282c0.00811,0.08668 0.01945,0.20798 -0.02529,0.33682c-0.1829,-0.13362 -0.18937,-0.20294 -0.12595,-0.33421c0.01545,-0.03716 0.07157,-0.04464 0.15123,-0.00256z" fill="#93a5a6"/><path d="M263.29884,183.54524c0.20647,0.18312 0.19104,0.22028 -0.10336,0.31209c-0.04875,-0.11639 0.01791,-0.21299 0.10336,-0.31209z" fill="#8b9b9c"/><path d="M252.12819,185.36519c0.07231,0.16589 0.06657,0.30701 0.06083,0.44822c-0.10733,0.06694 -0.16669,0.03971 -0.17316,-0.02963c-0.01298,-0.13867 -0.00724,-0.27983 0.11229,-0.41857z" fill="#9aacad"/><path d="M261.90747,181.62438c0.12028,0.07175 0.23738,0.10883 0.23166,0.24999c0.0016,0.01734 -0.01544,0.03717 -0.03415,0.03966c-0.17157,-0.01228 -0.2187,-0.11132 -0.19748,-0.28964z" fill="#5f6a6b"/><path d="M257.29681,187.5907c-0.06258,-0.06187 -0.06909,-0.13124 -0.05684,-0.20306c0.01545,-0.03716 0.04962,-0.0768 0.08864,-0.06443c0.03904,0.01234 0.0797,0.04205 0.0829,0.07673c0.00646,0.06931 -0.00573,0.14114 -0.1147,0.19075z" fill="#636e6f"/><path d="M259.62721,180.52385c0.12605,-0.06941 0.22115,-0.06454 0.30894,0.06418c-0.14312,0.08923 -0.22279,0.04722 -0.30894,-0.06418z" fill="#4a5354"/></g><g data-paper-data="{&quot;index&quot;:null}" fill="#000000" stroke="#000000" stroke-width="1.2"><path d="M250.01546,207.85378c-0.63407,-1.75503 0.76683,-4.79493 0.84382,-7.08863c0.0829,-2.46948 -1.10281,-4.02929 -0.17956,-5.38693c0.64488,-0.94829 2.22566,-1.10234 3.05407,-1.07453c2.01441,0.06761 3.5333,3.52264 3.39253,7.71704c-0.14077,4.19439 -1.8879,7.53983 -3.9023,7.47221c-0.91283,-0.03063 -2.68311,-0.18483 -3.20856,-1.63915z"/><path d="M253.47013,210.13122c-0.86184,-2.45512 0.32373,-8.33829 0.32373,-8.33829c0,0 -0.98694,-3.80219 -0.98251,-3.88866c0.28088,-5.51045 3.77134,-5.45438 7.73792,-5.32125c1.88782,0.06336 4.76506,0.92624 5.73894,2.68697c1.10449,1.99687 0.43813,4.71363 0.33477,7.79317c-0.19451,5.79488 -2.7492,10.64024 -6.77802,10.50503c-1.77347,-0.05952 -5.22369,-0.15789 -6.3748,-3.43696z"/></g></g><g fill="#ff0000" fill-rule="nonzero" stroke="none" stroke-linecap="butt" stroke-linejoin="miter"><path d="M239.26096,222.24508c0.36529,0.98006 -0.30897,2.05736 -1.50599,2.40621c-1.19701,0.34884 -2.46351,-0.16286 -2.8288,-1.14293c-0.36529,-0.98006 0.30897,-2.05736 1.50599,-2.4062c1.19701,-0.34884 2.46351,0.16286 2.8288,1.14292z" stroke-width="NaN"/><path d="M243.57944,225.23596c0.33606,0.90166 -0.25405,1.88397 -1.31807,2.19406c-1.06402,0.31008 -2.199,-0.16948 -2.53507,-1.07114c-0.33606,-0.90166 0.25406,-1.88398 1.31808,-2.19406c1.06402,-0.31008 2.19899,0.16948 2.53505,1.07114z" stroke-width="0"/><path d="M241.23793,229.45952c0.35067,0.94086 -0.2276,1.95496 -1.29162,2.26504c-1.06402,0.31008 -2.21084,-0.20126 -2.56151,-1.14213c-0.35067,-0.94086 0.2276,-1.95496 1.29161,-2.26504c1.06402,-0.31008 2.21085,0.20126 2.56152,1.14213z" stroke-width="0"/></g><g fill="#ff0000" fill-rule="nonzero" stroke="none" stroke-linecap="butt" stroke-linejoin="miter"><path d="M242.49927,215.40571c-0.94325,0.02132 -1.72901,-0.69165 -1.75504,-1.59245c-0.02604,-0.9008 0.71752,-1.64832 1.66077,-1.66964c0.94325,-0.02132 1.729,0.69165 1.75504,1.59246c0.02604,0.9008 -0.71751,1.64832 -1.66076,1.66963z" stroke-width="NaN"/><path d="M238.87305,217.66379c-0.86778,0.01961 -1.59003,-0.6136 -1.61318,-1.41431c-0.02314,-0.80071 0.66159,-1.46572 1.52938,-1.48533c0.86778,-0.01961 1.59002,0.6136 1.61317,1.41431c0.02314,0.80071 -0.66159,1.46572 -1.52937,1.48532z" stroke-width="0"/><path d="M241.99616,219.28578c-0.98098,0.02217 -1.79419,-0.58193 -1.81637,-1.34927c-0.02218,-0.76735 0.75509,-1.40738 1.73606,-1.42954c0.98098,-0.02217 1.7942,0.58193 1.81637,1.34928c0.02218,0.76735 -0.75509,1.40737 -1.73607,1.42954z" stroke-width="0"/></g><g fill="#ff0000" fill-rule="nonzero" stroke="none" stroke-linecap="butt" stroke-linejoin="miter"><path d="M226.49502,221.46253c0,1.03192 -1.02172,1.86846 -2.28206,1.86846c-1.26035,0 -2.28207,-0.83654 -2.28207,-1.86846c0,-1.03192 1.02172,-1.86845 2.28207,-1.86845c1.26035,0 2.28206,0.83653 2.28206,1.86845z" stroke-width="NaN"/><path d="M229.53777,225.49839c0,0.94937 -0.90819,1.71898 -2.0285,1.71898c-1.12031,0 -2.0285,-0.76961 -2.0285,-1.71898c0,-0.94937 0.9082,-1.71898 2.0285,-1.71898c1.12031,0 2.0285,0.76961 2.0285,1.71898z" stroke-width="0"/><path d="M225.81885,228.86162c0,0.99064 -0.90819,1.79372 -2.0285,1.79372c-1.12031,0 -2.0285,-0.80307 -2.0285,-1.79372c0,-0.99064 0.90819,-1.79372 2.0285,-1.79372c1.12031,0 2.0285,0.80308 2.0285,1.79372z" stroke-width="0"/></g><g fill="#ff0000" fill-rule="nonzero" stroke="none" stroke-linecap="butt" stroke-linejoin="miter"><path d="M231.1116,215.60668c-0.90339,-0.24083 -1.39729,-1.13546 -1.10314,-1.9982c0.29414,-0.86274 1.26495,-1.36689 2.16834,-1.12606c0.90339,0.24083 1.39728,1.13546 1.10314,1.9982c-0.29414,0.86274 -1.26494,1.36689 -2.16834,1.12606z" stroke-width="NaN"/><path d="M224.79188,213.417c-0.86726,-0.2312 -1.35835,-1.0403 -1.09689,-1.80718c0.26146,-0.76688 1.17647,-1.20113 2.04372,-0.96993c0.86726,0.2312 1.35835,1.0403 1.09689,1.80718c-0.26146,0.76688 -1.17647,1.20113 -2.04373,0.96993z" stroke-width="0"/><path d="M229.26028,219.15252c-0.93953,-0.25047 -1.49804,-1.04929 -1.24747,-1.78421c0.25057,-0.73492 1.21533,-1.12766 2.15486,-0.87719c0.93953,0.25047 1.49805,1.04929 1.24748,1.78422c-0.25057,0.73492 -1.21534,1.12765 -2.15487,0.87719z" stroke-width="0"/></g><path d="M238.0311,187.78378c0,0 -11.44288,-3.073 -13.84873,-4.78612c-2.00692,-1.42904 -2.19711,-5.22578 -2.19711,-5.22578" fill="none" fill-rule="nonzero" stroke="#000000" stroke-width="3" stroke-linecap="round" stroke-linejoin="miter"/></g></g></svg>