<svg version="1.1" xmlns="http://www.w3.org/2000/svg" xmlns:xlink="http://www.w3.org/1999/xlink" width="85.66678" height="123.8335" viewBox="0,0,85.66678,123.8335"><defs><linearGradient x1="203.37105" y1="162.17829" x2="182.11924" y2="169.37219" gradientUnits="userSpaceOnUse" id="color-1"><stop offset="0" stop-color="#000000"/><stop offset="1" stop-color="#000000" stop-opacity="0"/></linearGradient></defs><g transform="translate(-180.48841,-120.20092)"><g data-paper-data="{&quot;isPaintingLayer&quot;:true}" stroke-miterlimit="10" stroke-dasharray="" stroke-dashoffset="0" style="mix-blend-mode: normal"><g stroke-linejoin="miter"><path d="M248.29888,142.78802c4.31287,12.74084 -2.98457,26.72309 -16.29933,31.23024c-13.31475,4.50715 -27.60476,-2.16755 -31.91764,-14.90841c-4.31287,-12.74084 2.98457,-26.72309 16.29933,-31.23024c13.31475,-4.50715 27.60476,2.16755 31.91764,14.90841z" fill="none" fill-rule="nonzero" stroke="#000000" stroke-width="4.5" stroke-linecap="butt"/><g><g fill-rule="nonzero" stroke-linecap="butt"><path d="M204.85512,140.88132l0.01344,0.004" data-paper-data="{&quot;index&quot;:null}" fill="#ffab19" stroke="#000000" stroke-width="5"/><g data-paper-data="{&quot;index&quot;:null}" fill="none" stroke="none" stroke-width="1" font-family="sans-serif" font-weight="normal" font-size="12" text-anchor="start"/></g><path d="M204.85512,140.88132l0.01344,0.004" data-paper-data="{&quot;index&quot;:null}" fill="#ffab19" fill-rule="nonzero" stroke="#000000" stroke-width="5" stroke-linecap="butt"/><path d="M224.30676,152.20068" fill="#001026" fill-rule="evenodd" stroke="#000000" stroke-width="5" stroke-linecap="butt"/><g data-paper-data="{&quot;index&quot;:null}" fill="none" fill-rule="nonzero" stroke="none" stroke-width="1" stroke-linecap="butt" font-family="sans-serif" font-weight="normal" font-size="12" text-anchor="start"/><g data-paper-data="{&quot;index&quot;:null}" fill="none" fill-rule="nonzero" stroke="none" stroke-width="1" stroke-linecap="butt" font-family="sans-serif" font-weight="normal" font-size="12" text-anchor="start"/><path d="M242.11469,122.70092c-0.8041,2.51659 -6.97025,20.47525 -6.97025,20.47525" fill="none" fill-rule="nonzero" stroke="#000000" stroke-width="5" stroke-linecap="round"/><path d="M202.42767,148.2232c0,0 -1.25981,-0.04133 -0.68255,-0.10376c2.98544,-0.32285 29.35385,-2.99677 29.35385,-2.99677" fill="none" fill-rule="nonzero" stroke="#000000" stroke-width="5" stroke-linecap="round"/></g><path d="M228.72485,145.07293l3.90013,12.25041" fill="none" fill-rule="nonzero" stroke="#000000" stroke-width="4.5" stroke-linecap="round"/><path d="M240.29465,153.74015l-4.12495,-12.91453" fill="none" fill-rule="nonzero" stroke="#000000" stroke-width="4.5" stroke-linecap="round"/><path d="M226.79318,176.70295c0,0 -29.68743,11.33679 -29.64807,10.37172c0.09029,-2.21298 2.21093,-14.1612 2.21093,-14.1612l-11.34255,2.98349l3.21915,-17.50538c0,0 -7.9879,4.23161 -10.74423,3.07323c-1.08234,-0.45486 7.3565,-16.72678 14.37167,-23.03788c3.43272,-3.08821 8.03021,-7.54521 12.23898,-9.74091c6.97842,-3.64061 13.39464,-3.39303 13.39464,-3.39303" fill="none" fill-rule="nonzero" stroke="#000000" stroke-width="3" stroke-linecap="round"/><path d="M199.05433,186.52306c0,0 -1.95231,-1.4931 -1.40749,-3.71812c0.6824,-2.7869 3.69851,-7.24507 1.37482,-8.95157c-3.0101,-2.21059 -9.80732,4.59911 -9.56999,0.45733c0.19487,-3.40089 2.2238,-13.88214 1.55962,-15.84418c-0.6627,-1.95771 -5.91956,4.3645 -9.28291,2.5986c-4.78339,-2.51148 6.95726,-17.59596 11.56789,-21.73992c4.3258,-3.88795 13.54729,-9.1648 13.54729,-9.1648c0,0 -9.7384,17.80978 -9.17678,26.11701c0.62257,9.20871 23.21739,21.19208 23.21739,21.19208z" data-paper-data="{&quot;index&quot;:null}" fill="url(#color-1)" fill-rule="nonzero" stroke="none" stroke-width="0" stroke-linecap="butt"/></g><path d="M226.52592,175.24793c-2.4728,0.98864 -6.58217,-1.52143 -7.5467,-1.71461c-0.91938,-0.18414 -4.03858,-2.05368 -5.47736,-4.03964c-2.03686,-2.81149 -3.75187,-4.67618 -3.84755,-5.41343c-0.26955,-2.07702 20.45998,-5.54497 17.8941,-5.21198c0,0 1.65861,15.30774 -1.02249,16.37967z" fill="#ff0000" fill-rule="nonzero" stroke="#000000" stroke-width="2" stroke-linecap="butt" stroke-linejoin="miter"/><path d="M232.04384,175.63766l-0.29912,18.08853" fill="none" fill-rule="nonzero" stroke="#000000" stroke-width="6" stroke-linecap="round" stroke-linejoin="miter"/><path d="M224.12757,201.60585c0,0 -5.40171,-8.493 -4.71211,-9.37662c1.24863,-1.59996 11.6186,-16.40024 11.6186,-16.40024c0,0 5.48682,8.28641 8.52235,10.07527c0.33885,0.19969 12.67829,-6.55656 12.67829,-6.55656" fill="none" fill-rule="nonzero" stroke="#000000" stroke-width="6" stroke-linecap="round" stroke-linejoin="miter"/><g stroke="#001026" stroke-width="1.2"><g><path d="M241.24808,191.06581l3.82649,35.7578c0,0 6.25751,2.04113 5.01849,10.93788c-0.07064,0.50719 -0.46503,2.98602 -3.16541,3.08895c-2.58641,0.09859 -7.44437,-2.1491 -9.21755,-2.98561c-0.82356,-0.38852 -2.01416,-1.50492 -2.66963,-3.08332c-0.65994,-1.58922 -0.32409,-3.58842 -0.18498,-4.72505c0.05665,-0.46296 -2.70698,-37.11422 -2.70698,-37.11422" fill="#bf0000" fill-rule="evenodd" stroke-linecap="round" stroke-linejoin="round"/><path d="M241.88956,190.28727c0.49811,3.4781 3.17544,22.84005 3.17544,22.84005c0,0 1.56019,6.40479 1.61354,8.13435c0.06143,1.99192 0.23884,3.43451 0.23884,3.43451l-0.73008,-1.71822c0,0 0.47416,1.1891 0.63907,1.87018c0.51377,2.12172 0.90919,3.72495 0.90919,3.72495c0,0 -6.30443,-2.11392 -9.13535,0.14353c-2.83093,2.25746 -2.2556,7.92824 -2.2556,7.92824c0,0 -4.59886,-2.15768 -4.53097,-5.91165c0.01673,-0.92545 1.07679,-3.43616 1.07679,-3.43616c0,0 -0.55857,0.02193 -0.49987,-0.60751c0.01394,-0.14956 -1.10581,-32.40488 -1.00812,-33.10628c0,0 10.39251,-4.09648 10.50714,-3.29597z" fill="#000000" fill-rule="nonzero" stroke-linecap="butt" stroke-linejoin="miter"/></g><g fill-rule="evenodd" stroke-linecap="round" stroke-linejoin="round"><g fill="#ffab19" font-family="&quot;Helvetica Neue&quot;, Helvetica, Arial, sans-serif" font-weight="400" font-size="16" text-anchor="start"/><path d="M230.2402,201.52549c-1.4401,-0.34788 -3.14006,-1.1142 -3.94935,-2.29781c-1.04404,-1.52689 -1.0158,-3.636 -1.33001,-5.26186c5.91673,1.52603 12.97065,0.24161 18.15192,-2.6162c-0.13363,1.11904 0.20057,6.10667 -1.91962,7.87192c-1.41073,1.17457 -5.7876,2.9636 -6.90335,3.21913c-2.16543,0.49596 -3.72358,-0.83647 -4.04956,-0.9152z" fill="#000000"/></g><g><g fill-rule="evenodd" stroke-linecap="round" stroke-linejoin="round"><path d="M233.64637,199.03937c0,0 -2.84309,37.1711 -3.36189,37.29378c-1.48883,0.35207 -9.64778,-2.80064 -9.64778,-2.80064l5.24455,-37.37208" data-paper-data="{&quot;index&quot;:null}" fill="#ffab19"/><path d="M234.90299,198.44013c0,0 -0.66415,7.86031 -0.86031,12.028c-0.18814,3.99744 -0.29363,12.48883 -0.29363,12.48883c0,0 0.79756,6.17005 0.01781,7.69158c-0.36114,0.70474 -0.64573,-3.4835 -0.64573,-3.4835c0,0 0.31769,4.7216 0.34897,5.13778c0.21826,2.90368 -0.77779,6.71679 -3.38789,7.07905c-2.86571,0.39773 -7.61663,0.84695 -10.06577,-1.45031c-1.04207,-0.97745 -2.45361,-3.85474 -2.0737,-6.91983c0.42843,-3.45663 2.7292,-7.07781 2.7292,-7.07781l-2.11413,3.9473c0,0 -0.02204,-1.97095 0.32196,-3.41675c0.38631,-1.62362 1.88374,-5.85353 1.88374,-5.85353l4.53936,-23.80519" data-paper-data="{&quot;index&quot;:null}" fill="#000000"/></g><path d="M233.09103,236.34309c-0.07762,2.28139 -0.71084,4.93202 -2.08526,6.30842c-1.37951,1.3815 -9.67044,0.83401 -10.95217,-0.85436c-1.21722,-1.60341 -1.71304,-4.5669 -1.63728,-6.7935c0.15554,-4.57122 3.56667,-7.97711 7.61899,-7.60722c4.05229,0.36988 7.21127,4.37546 7.05572,8.9467z" fill="#ff0000" fill-rule="nonzero" stroke-linecap="butt" stroke-linejoin="miter"/></g><g fill="#000000" fill-rule="nonzero" stroke-linecap="butt" stroke-linejoin="miter"><path d="M225.08717,209.49534c0,0 -2.42247,0.57141 -3.16348,0.24393c-0.22812,-0.10083 -0.83707,-1.26497 -1.14853,-2.65195c-0.38874,-1.73109 -0.44008,-3.86502 -0.16554,-5.35559c0.70637,-3.83502 4.35305,-8.01778 6.06295,-7.2621c0.74105,0.3275 2.67979,3.44431 2.68124,3.45213"/></g></g><g fill-rule="nonzero" stroke-linecap="butt" stroke-linejoin="miter"><path d="M246.73751,183.33911c0,0 -3.14525,-2.12288 -4.04965,-4.50734c-0.74748,-1.97077 0.63703,-4.20576 1.25742,-4.80921c1.09794,-1.06789 2.36222,-1.09874 3.75209,-0.44379c1.40746,0.66324 3.95099,4.33339 3.95099,4.33339c0,0 4.08525,3.38066 4.63542,5.12901c0.3911,1.24293 0.25941,2.35924 -0.65878,3.25234c-1.41945,1.38061 -3.40244,2.5167 -5.73922,1.49873c-1.30111,-0.56682 -3.14826,-4.45312 -3.14826,-4.45312z" data-paper-data="{&quot;index&quot;:null}" fill="#000000" stroke="#000000" stroke-width="1.2"/><g data-paper-data="{&quot;index&quot;:null}" stroke="none" stroke-width="1"><path d="M245.22293,172.79196c-0.21527,0.09734 -0.35123,0.01488 -0.49206,-0.11089c-0.20539,-0.21687 -0.3609,-0.47265 -0.54959,-0.70255c-0.0822,-0.00655 -0.16436,-0.01314 -0.23573,-0.00454c-1.52624,0.10705 -2.7803,-0.42273 -3.94327,-1.18863c-0.24454,-0.1627 -0.50572,-0.31248 -0.67781,-0.5553c-0.03226,-0.04555 -0.09194,-0.09326 -0.14674,-0.09764c-0.30135,-0.02409 -0.44117,-0.22138 -0.60842,-0.42089c-0.14573,-0.16913 -0.25817,-0.36422 -0.38722,-0.54637c-0.07529,-0.10623 -0.11732,-0.23845 -0.07131,-0.39231c0.04604,-0.15378 0.0099,-0.31416 -0.01553,-0.45931c-0.2355,-0.80623 -0.32234,-1.65787 -0.27708,-2.54185c0.03439,-0.49832 0.16167,-0.97492 0.30567,-1.46448c0.426,-1.44057 1.21685,-2.69444 2.26887,-3.79866c0.47856,-0.49144 1.02755,-0.91998 1.61951,-1.28784c0.44813,-0.27911 0.93834,-0.42604 1.42264,-0.54481c1.54102,-0.37787 2.98104,-0.20549 4.32214,0.37425c0.2563,0.1064 0.4842,0.28208 0.71209,0.45777c0.15747,0.11278 0.32084,0.19745 0.55174,0.15865c0.2035,-0.04095 0.36684,0.04364 0.50766,0.16941c0.20539,0.21687 0.37749,0.45968 0.54959,0.70256c0.05378,0.0759 0.06358,0.16259 0.07329,0.24929c0.00091,0.32935 0.11232,0.59597 0.26782,0.8518c0.34912,0.52901 0.51032,1.15752 0.6882,1.77304c0.06254,0.2341 0.10845,0.48111 0.11036,0.73896c0.02128,0.83203 0.00439,1.6468 -0.22671,2.4873c0.16136,0.22763 0.31684,0.48348 0.48897,0.72628c0.06454,0.09107 0.13982,0.1973 0.08304,0.33591c-0.04017,0.12563 0.041,0.20372 0.10557,0.29474c0.41365,0.62005 0.84393,1.22714 1.25758,1.8472c0.94073,1.36375 1.89222,2.74261 2.7997,4.1323c0.88595,1.35935 1.82185,2.67968 2.74105,4.01308c0.15061,0.21248 0.25715,0.43576 0.40775,0.6482c0.73147,1.03202 1.46295,2.06405 2.17781,3.10905c0.1291,0.18211 0.29142,0.33829 0.3099,0.58312c0.00978,0.0867 0.08018,0.14958 0.13396,0.22548c0.53789,0.75881 1.06983,1.54584 1.60767,2.30468c0.02151,0.03034 0.05378,0.0759 0.07529,0.10622c0.18878,0.22984 0.15835,0.44216 0.00074,0.73023c-0.53445,0.95944 -1.28501,1.68682 -2.25173,2.18223c-0.24853,0.12328 -0.51858,0.21623 -0.79349,0.26584c-0.20351,0.04096 -0.3561,-0.02847 -0.48031,-0.16722c-0.37263,-0.41635 -0.76186,-0.8197 -1.14524,-1.25126c-0.26994,-0.30791 -0.51736,-0.65699 -0.83719,-0.92595c-0.6993,-0.58562 -1.2098,-1.34232 -1.85923,-1.96683c-0.357,-0.35782 -0.73652,-0.6745 -1.07687,-1.04533c-0.36185,-0.40113 -0.74623,-0.76119 -1.11399,-1.13415c-0.66506,-0.68312 -1.3076,-1.4074 -1.98931,-2.07749c-0.92032,-0.86099 -1.77415,-1.77397 -2.62793,-2.68691c-0.29734,-0.31014 -0.59464,-0.62016 -0.89197,-0.93031c-0.45384,-0.49441 -0.91834,-1.00402 -1.37209,-1.49842c-0.24842,-0.27755 -0.51935,-0.514 -0.76776,-0.7915c-0.27584,-0.27976 -0.48019,-0.5681 -0.75014,-0.87607zM245.48823,172.25486c0.26418,-0.06476 0.50682,-0.15986 0.73385,-0.31353c0.52933,-0.20108 1.00001,-0.52135 1.47068,-0.84166c0.59788,-0.39601 1.16935,-0.86573 1.72417,-1.32245c0.63803,-0.52164 1.11856,-1.15609 1.60502,-1.81874c0.04503,-0.08233 0.09007,-0.16459 0.15759,-0.28803c-0.08605,-0.1214 -0.17213,-0.24282 -0.25816,-0.36422c-0.0215,-0.03034 -0.05967,-0.04771 -0.10856,-0.08023c-0.11643,0.09088 -0.22213,0.19698 -0.31708,0.31823c-0.16734,0.20139 -0.33961,0.35937 -0.50696,0.56072c-0.43451,0.48065 -0.98249,0.83774 -1.44927,1.27287c-0.25539,0.223 -0.48931,0.47626 -0.76622,0.66889c-0.6145,0.409 -1.17523,0.89387 -1.83274,1.24216c-0.17125,0.08652 -0.35907,0.18608 -0.53039,0.27257c-0.13109,-0.03914 -0.24264,0.09517 -0.34737,0.12972c-0.13207,0.03237 -0.26421,0.06479 -0.43638,0.22277c0.25629,0.1064 0.34625,0.34267 0.54183,0.47285c0.09395,-0.04975 0.225,-0.01065 0.31994,-0.13191zM246.51939,172.25143c-0.47943,0.1621 -0.58998,0.22484 -0.78476,0.42403c0.14573,0.16913 0.28071,0.32308 0.42641,0.49221c0.07529,0.10623 0.1956,0.13021 0.32773,0.0978c0.08808,-0.02159 0.17123,-0.0865 0.25929,-0.1081c0.32484,-0.08853 0.63992,-0.26385 0.89534,-0.48678c0.17022,-0.01506 0.30328,-0.11885 0.43639,-0.22278c0.75934,-0.56922 1.51285,-1.11031 2.21838,-1.75536c0.31123,-0.29008 0.61166,-0.59534 0.88467,-0.90278c0.20654,-0.25552 0.42964,-0.524 0.50019,-0.86196c-0.13985,-0.19732 -0.2797,-0.39457 -0.41954,-0.59189c-0.11156,0.13422 -0.20655,0.25552 -0.28479,0.36374c-0.37977,0.48502 -0.781,0.93969 -1.22529,1.33369c-0.56661,0.513 -1.18702,0.95019 -1.79661,1.40253c-0.28284,0.2208 -0.61351,0.33755 -0.88557,0.57349c-0.22499,0.01067 -0.40213,0.12535 -0.55183,0.24218zM260.55474,187.53281c0.29742,-0.09075 0.54108,-0.25737 0.7632,-0.45435c0.02738,0.00221 0.07142,-0.0086 0.08808,-0.0216c0.38852,-0.32684 0.75548,-0.68406 1.02465,-1.10637c0.1625,-0.24476 0.3357,-0.47423 0.38371,-0.77102c-0.6024,-0.84993 -1.20482,-1.69976 -1.83947,-2.59525c-0.28094,0.47859 -0.62637,0.86622 -0.9826,1.23854c-0.30633,0.33345 -0.67131,0.54763 -0.99912,0.85069c-0.13306,0.10389 -0.26029,0.17965 -0.39336,0.28353c-0.25339,0.07994 -0.50193,0.20325 -0.76221,0.38283c0.32273,0.4553 0.75702,0.77635 1.09146,1.17536c0.36187,0.40118 0.74037,0.78937 1.09147,1.17535c0.22501,-0.01067 0.37962,-0.08414 0.53421,-0.15774zM257.97659,184.80699c0.17022,-0.01506 0.31411,-0.10376 0.44714,-0.20763c0.17613,-0.04317 0.31512,-0.17524 0.47556,-0.27692c0.47654,-0.34847 0.89933,-0.77277 1.28394,-1.21449c0.22312,-0.26849 0.42473,-0.56736 0.55006,-0.90093c-0.04302,-0.06071 -0.06941,-0.1344 -0.11249,-0.1951c-0.52708,-0.74372 -1.04339,-1.47215 -1.55388,-2.22879c-0.54274,-0.80217 -1.07471,-1.58916 -1.61746,-2.39134c-0.80095,-1.16642 -1.5744,-2.33066 -2.37532,-3.49709c-0.88107,-1.316 -1.8013,-2.57789 -2.6491,-3.91984c-0.13395,-0.22545 -0.31198,-0.44008 -0.47332,-0.66777c-0.13995,0.20355 -0.24175,0.42446 -0.40321,0.59767c-0.48541,0.59111 -1.05203,1.10416 -1.64014,1.58688c-0.53232,0.41553 -1.07541,0.81596 -1.61852,1.21634c-0.2378,0.13847 -0.44815,0.27911 -0.68594,0.41761c-0.19762,0.01282 -0.3258,0.16007 -0.48041,0.23362c-0.17125,0.08652 -0.34732,0.12971 -0.50293,0.27475c0.07431,0.17773 0.19365,0.27321 0.28555,0.36644c0.81771,0.7526 1.513,1.62426 2.28075,2.41577c0.49198,0.51179 0.98386,1.02359 1.49247,1.52235c0.66503,0.68314 1.336,1.33806 1.99029,2.00599c0.54088,0.54427 1.08173,1.08864 1.60591,1.64597c0.57311,0.58988 1.11882,1.17752 1.67532,1.78036c0.51346,0.54214 1.03769,1.09943 1.57852,1.64377c0.16042,-0.1017 0.32484,-0.08857 0.44715,-0.20762zM249.11843,160.13256c-0.26916,0.42227 -0.5755,0.75573 -0.87102,1.10432c-0.31219,0.36158 -0.59699,0.72539 -0.91992,1.07177c-0.30633,0.33345 -0.65083,0.64952 -0.9679,0.96773c-0.33375,0.33124 -0.66737,0.66249 -1.0285,0.99153c-0.32785,0.30305 -0.68309,0.60394 -1.01092,0.90702c-0.35523,0.30085 -0.75349,0.54106 -1.06569,0.90266c-0.41384,0.18165 -0.7368,0.52806 -1.09689,0.78565c-0.3875,0.25533 -0.77012,0.55404 -1.15761,0.80939c-0.37084,0.24234 -0.76914,0.48254 -1.15073,0.70973c-0.39828,0.24018 -0.8229,0.40661 -1.18885,0.69235c0.2249,0.39022 0.3002,0.49644 0.62688,0.66572c0.25339,-0.07994 0.50683,-0.15989 0.77196,-0.29617c0.31508,-0.17525 0.63014,-0.35043 0.97263,-0.52352c0.64092,-0.3353 1.25441,-0.67281 1.83668,-1.12734c0.39926,-0.31168 0.78777,-0.63858 1.23007,-0.8895c0.09395,-0.04975 0.19373,-0.12766 0.27203,-0.23592c0.16734,-0.20137 0.3944,-0.355 0.59399,-0.51089c0.73198,-0.5714 1.3994,-1.23385 2.03937,-1.89856c0.86219,-0.8617 1.61578,-1.80356 2.33706,-2.79106c0.1507,-0.18839 0.30149,-0.37676 0.33765,-0.61721c-0.12809,-0.25364 -0.30608,-0.46834 -0.56035,-0.71769zM241.11771,163.5731c0.00678,0.30121 0.08006,0.55047 0.13671,0.81268c0.03512,0.23189 0.14761,0.427 0.34323,0.55717c0.34721,0.27113 0.65532,0.59641 0.89682,0.97366c0.0215,0.03034 0.0704,0.06289 0.08117,0.07806c0.11541,-0.0194 0.18196,-0.07137 0.2329,-0.18182c0.00589,-0.02816 0.001,-0.07152 -0.00978,-0.0867c-0.26207,-0.47912 -0.49082,-0.98415 -0.68633,-1.51519c-0.02638,-0.0737 -0.07429,-0.17774 -0.1506,-0.21248c-0.23866,-0.19089 -0.47729,-0.38176 -0.84419,-0.4254zM241.74378,166.64398c-0.24056,-0.44873 -0.43702,-0.90827 -0.60612,-1.36563c-0.05282,-0.14735 -0.14472,-0.24062 -0.2807,-0.32306c-0.21225,-0.11718 -0.4363,-0.17802 -0.67107,-0.25411c-0.07629,-0.03473 -0.16334,-0.08464 -0.24164,0.02362c0.09968,0.32295 0.17205,0.64372 0.30495,0.94067c0.7346,0.41663 0.7346,0.41663 1.26756,1.13213c0.08217,0.00659 0.15949,-0.03021 0.22702,-0.15364zM246.90111,164.95179c0.12708,0.32513 0.27084,0.63728 0.41455,0.94942c0.02638,0.0737 0.05279,0.14738 0.11244,0.19509c0.28852,0.15193 0.56048,0.31681 0.89994,0.35828c0.07057,-0.33795 -0.0409,-0.60456 -0.0917,-0.89498c-0.02536,-0.14517 -0.10658,-0.22325 -0.2318,-0.29053c-0.30518,-0.13893 -0.57715,-0.30387 -0.84311,-0.49694c-0.01076,-0.01518 -0.05476,-0.00439 -0.10953,-0.00876c-0.03913,0.05415 -0.09498,0.1213 -0.1507,0.1884zM244.4124,160.9303c-0.04415,0.41166 0.01738,0.71726 0.06231,1.03579c0.03126,0.11704 0.10167,0.17991 0.17209,0.24279c0.35801,0.28632 0.66605,0.61164 0.91835,1.00403c0.03225,0.04553 0.08115,0.07808 0.11344,0.1236c0.19375,-0.12767 0.21626,-0.16883 0.13021,-0.29023c-0.2797,-0.39462 -0.46542,-0.83898 -0.54651,-1.31788c-0.05078,-0.29039 -0.19651,-0.45955 -0.41952,-0.59191c-0.14186,-0.05432 -0.2563,-0.10646 -0.43041,-0.20621zM243.71764,165.12675c0.08317,-0.06493 0.05672,-0.13866 0.01374,-0.19939c-0.30116,-0.42498 -0.45858,-0.93859 -0.61592,-1.45229c-0.13684,-0.41178 -0.45078,-0.70892 -0.93697,-0.84801c-0.01965,0.22749 0.07131,0.39227 0.08495,0.59377c0.03803,0.41824 0.2424,0.70658 0.52411,0.95821c0.3032,0.28194 0.62303,0.55089 0.82646,0.91074c0.04892,0.0325 0.07633,0.03477 0.1037,0.03691zM244.04815,162.27547c-0.23378,-0.14753 -0.45089,-0.30806 -0.78933,-0.42102c0.02927,0.26003 0.03211,0.44639 0.05167,0.61976c0.02344,0.28822 0.13586,0.4833 0.35298,0.64387c0.30419,0.21043 0.5526,0.488 0.78438,0.77854c0.09192,0.09327 0.17799,0.21466 0.25326,0.32087c0.09395,-0.04975 0.07832,-0.10821 0.05679,-0.13861c-0.22882,-0.50507 -0.44092,-1.02309 -0.57576,-1.57794c-0.03714,-0.08889 -0.06354,-0.16255 -0.13396,-0.22544zM247.84148,163.98188c0.27095,0.23641 0.41463,0.54858 0.575,0.84773c0.05379,0.07587 0.04689,0.17557 0.13396,0.22545c0.13601,0.08248 0.5077,0.16943 0.78753,0.16322c0.00888,-0.24271 -0.08692,-0.45076 -0.1387,-0.66968c-0.04691,-0.17556 -0.14957,-0.28396 -0.31881,-0.34046c-0.28365,-0.10859 -0.53407,-0.24311 -0.75612,-0.44701c-0.01076,-0.01518 -0.06556,-0.01951 -0.09292,-0.02173c-0.07733,0.03676 -0.14385,0.08872 -0.18986,0.24255zM242.86216,169.42494c0.2504,0.13454 0.41665,0.40558 0.70621,0.48599c0.10569,-0.10608 0.10185,-0.22091 0.12536,-0.3336c0.03038,-0.21235 0.09894,-0.40728 0.06378,-0.63916c-0.2934,-0.19531 -0.47534,-0.52478 -0.76288,-0.74819c-0.11541,0.0194 -0.19863,0.08431 -0.26027,0.17963c0.08305,0.33592 0.12211,0.68266 0.12784,1.05534zM245.01832,166.63378c0.07429,0.17774 0.1486,0.35546 0.14071,0.52664c-0.01677,0.4138 0.18277,0.65887 0.49869,0.81296c0.1144,0.0521 0.17897,0.14318 0.34334,0.15633c0.05876,-0.28168 0.05693,-0.5395 0.05496,-0.79736c0.00099,-0.07152 -0.04202,-0.1322 -0.11245,-0.19507c-0.22793,-0.17571 -0.42843,-0.3492 -0.65628,-0.52495c-0.03224,-0.04552 -0.10859,-0.08027 -0.26908,0.02146zM243.97032,167.45198c0.17013,0.38583 0.28542,0.76732 0.24129,1.17896c-0.01763,0.08447 0.04203,0.13218 0.08507,0.19287c0.11344,0.1236 0.24355,0.23423 0.44015,0.29291c0.08233,-0.3943 0.08141,-0.72368 0.06978,-1.06817c-0.00388,-0.11485 -0.04099,-0.20372 -0.12223,-0.28178c-0.15156,-0.14099 -0.28659,-0.29496 -0.43817,-0.4359c-0.01076,-0.01518 -0.06556,-0.01952 -0.09291,-0.02172c-0.0499,0.03895 -0.09985,0.07792 -0.18297,0.14288zM246.20385,160.68694c-0.17411,-0.09981 -0.35897,-0.21484 -0.5331,-0.31466c-0.02737,-0.00221 -0.05479,-0.0044 -0.10954,-0.00877c-0.0862,0.27945 -0.05691,0.53949 -0.00514,0.7584c0.44993,0.37957 0.8783,0.72879 1.24407,1.24482c0.06079,-0.42465 -0.22779,-0.57651 -0.31772,-0.81279c-0.12223,-0.28178 -0.20039,-0.57436 -0.27855,-0.86691zM240.62658,163.39071c-0.29542,-0.05227 -0.55763,-0.13046 -0.86579,-0.05492c0.00875,0.15818 -0.02064,0.29899 -0.00598,0.42902c0.01467,0.13002 0.01265,0.27303 0.08797,0.37925c0.14672,0.09761 0.32774,0.09779 0.48617,0.13909c0.15848,0.04124 0.29445,0.12375 0.4813,0.09576c-0.05569,-0.33372 -0.11722,-0.63929 -0.18363,-0.98821zM240.7008,167.50545c-0.2562,-0.50724 -0.47524,-0.92561 -0.69422,-1.34398c-0.02153,-0.03038 -0.03715,-0.0889 -0.09192,-0.09327c-0.23478,-0.07602 -0.45781,-0.20841 -0.74934,-0.14584c0.08405,0.26442 0.15735,0.51369 0.24732,0.74995c0.46368,0.18028 0.849,0.46875 1.28821,0.83316zM247.10983,167.28775c0.07441,-0.22313 0.0001,-0.40085 -0.01939,-0.5742c-0.01363,-0.2015 -0.07718,-0.36408 -0.26205,-0.47907c-0.2445,-0.16271 -0.48906,-0.32544 -0.62793,-0.59425c-0.13796,0.06059 -0.19378,0.1277 -0.12922,0.21873c0.14473,0.24062 0.30019,0.49649 0.34022,0.77168c0.07131,0.39228 0.36576,0.51605 0.69838,0.65716zM245.22623,168.23952c-0.0334,0.42682 -0.07652,0.767 -0.10305,1.09414c0.07529,0.10623 0.16824,0.12802 0.24449,0.16271c0.09292,0.02175 0.19073,0.0868 0.32867,0.02627c0.09697,-0.26431 0.15572,-0.54586 0.18715,-0.8297c-0.18973,-0.15832 -0.38537,-0.28851 -0.65729,-0.45347zM248.36511,166.94436c-0.31106,-0.11079 -0.584,-0.20419 -0.86765,-0.31279c0.02341,0.28823 0.03604,0.56129 0.04868,0.83429c0.2563,0.1064 0.46859,0.22363 0.76499,0.20431c0.05289,-0.25345 0.04516,-0.48315 0.05402,-0.72582zM241.08091,162.28167c-0.1351,0.2469 -0.04512,0.48317 -0.0374,0.71285c-0.00099,0.07152 0.06937,0.13441 0.13495,0.15394c0.20739,0.07385 0.38739,0.14551 0.58398,0.20421c0.01076,0.01518 0.04405,-0.01082 0.07735,-0.03676c-0.03412,-0.3034 -0.09573,-0.60892 -0.12987,-0.91234c-0.19071,-0.08683 -0.40986,-0.10436 -0.62902,-0.12188zM243.95958,160.76522c-0.18489,-0.11498 -0.35897,-0.21484 -0.61727,-0.17823c-0.03628,0.24049 -0.10579,0.50695 -0.05989,0.75398c0.12519,0.06731 0.21714,0.16052 0.34821,0.19963c0.11439,0.05208 0.18382,0.18655 0.36582,0.11516c-0.00674,-0.30119 -0.01351,-0.60236 -0.03692,-0.89061zM248.77709,166.50484c0.16335,0.08462 0.36686,0.04365 0.58111,0.01784c0.00405,-0.28603 0.07351,-0.55249 -0.01047,-0.8169c-0.21916,-0.01752 -0.42064,-0.11952 -0.68969,-0.0981c0.03412,0.3034 0.0849,0.59377 0.11907,0.89717zM248.7008,162.93396c0.177,0.28618 0.43134,0.53554 0.575,0.84776c0.12808,0.25363 0.33059,0.28409 0.61626,0.24969c-0.0019,-0.25782 -0.08694,-0.45076 -0.16615,-0.67183c-0.38836,-0.07399 -0.67597,-0.29741 -1.02516,-0.42556zM239.61852,168.02025c0.0558,-0.06713 0.0235,-0.11262 -0.00875,-0.15818c-0.12321,-0.21025 -0.27383,-0.42274 -0.38038,-0.64605c-0.13786,-0.3403 -0.41178,-0.3622 -0.74637,-0.3603c0.04204,0.13224 0.06257,0.23406 0.09971,0.32292c0.0792,0.22107 0.18085,0.401 0.44891,0.45106c0.15847,0.04127 0.28855,0.15194 0.4079,0.24736c0.02639,0.07371 0.04691,0.17554 0.17897,0.14319zM242.35518,170.38659c0.04015,-0.12561 0.04703,-0.22531 0.06465,-0.30979c0.08031,-0.25124 0.03338,-0.42683 -0.12897,-0.58297c-0.1408,-0.12578 -0.24251,-0.30576 -0.36676,-0.44453c-0.03226,-0.04555 -0.04791,-0.10404 -0.17512,-0.02831c0.06741,0.27744 0.1016,0.5808 0.09169,0.89497c-0.00102,0.07149 0.05277,0.14737 0.09581,0.20809c0.1193,0.09542 0.2279,0.17573 0.41863,0.26254zM247.08619,167.80132c-0.17409,-0.09985 -0.34233,-0.22782 -0.55562,-0.27348c-0.04801,0.29681 -0.13419,0.57624 -0.11083,0.86447c0.20741,0.07385 0.36483,0.18666 0.61239,0.13487c0.0363,-0.24049 0.09996,-0.47881 0.05404,-0.72582zM242.85553,162.45217c0.04798,-0.29682 0.01869,-0.55687 -0.04383,-0.79088c-0.20739,-0.07385 -0.38735,-0.14549 -0.6339,-0.1652c-0.06853,0.19497 -0.06565,0.38132 -0.03538,0.56986c0.23967,0.11935 0.46267,0.25175 0.71309,0.38632zM246.10043,169.65518c0.17516,0.02832 0.27877,0.06522 0.405,0.06098c0.0822,0.00655 0.1536,-0.00203 0.22505,-0.01066c0.11257,-0.20575 0.18698,-0.42885 0.1792,-0.65856c-0.19071,-0.08683 -0.38148,-0.17362 -0.62314,-0.15c-0.05289,0.25344 -0.12731,0.4766 -0.18608,0.7582zM240.91436,169.48392c-0.05388,0.32498 -0.10093,0.55024 -0.14307,0.8189c0.02639,0.07371 0.11828,0.16694 0.23276,0.21904c0.09779,0.06507 0.13984,0.19727 0.29344,0.19523c0.11745,-0.16243 0.16344,-0.31623 0.17135,-0.4874c-0.18877,-0.22983 -0.35009,-0.4575 -0.55445,-0.74586zM239.78345,162.89372c0.137,0.01095 0.27398,0.0219 0.41089,0.03286c0.13697,0.01096 0.26316,0.0067 0.40013,0.01769c-0.00185,-0.25784 0.02854,-0.47018 -0.0565,-0.66307c-0.11443,-0.05209 -0.23578,-0.00453 -0.35123,0.01483c-0.11541,0.0194 -0.26318,-0.0067 -0.36883,0.09935c-0.02451,0.18422 -0.07056,0.33795 -0.03437,0.49836zM248.21119,168.14894c-0.24066,-0.04785 -0.45292,-0.16509 -0.73863,-0.13062c-0.03037,0.21231 -0.04413,0.41166 -0.07455,0.62398c0.24067,0.04787 0.43729,0.10658 0.69069,0.02661c0.06263,-0.16679 0.14687,-0.30325 0.12243,-0.51995zM239.6975,165.50681c-0.09377,-0.35113 -0.18273,-0.65887 -0.27169,-0.96658c-0.13109,-0.03914 -0.24552,-0.09123 -0.38349,-0.03068c-0.06464,0.30981 0.00275,0.5872 0.05354,0.8776c0.13111,0.03914 0.26217,0.07825 0.39913,0.08919c0.05965,0.04776 0.1037,0.03691 0.20248,0.03052zM244.69069,169.67134c-0.21819,-0.08901 -0.34723,-0.27116 -0.56636,-0.28866c-0.07539,0.29461 -0.14493,0.56106 -0.14895,0.84714c0.19179,0.01532 0.2993,0.1671 0.53022,0.12832c0.11256,-0.20573 0.11559,-0.42029 0.18513,-0.68672zM245.15917,160.08807c-0.22892,-0.10419 -0.43038,-0.20622 -0.65543,-0.19556c-0.05192,0.18196 -0.07642,0.36612 -0.05689,0.5395c0.22892,0.10417 0.44114,0.22137 0.69156,0.35592c-0.01849,-0.24481 -0.00477,-0.44417 0.02076,-0.69985zM242.67501,170.65555c0.20638,0.14535 0.37462,0.27333 0.62701,0.26489c0.07926,-0.17977 0.15273,-0.3314 0.13322,-0.50477c-0.1956,-0.13017 -0.3746,-0.27332 -0.60837,-0.42087c-0.07441,0.22313 -0.13221,0.43326 -0.15185,0.66075zM242.87353,161.16515c-0.01261,-0.27301 0.10581,-0.50697 0.02076,-0.6999c-0.20739,-0.07385 -0.40502,-0.06102 -0.60853,-0.02001c-0.05777,0.21013 -0.12635,0.4051 -0.05793,0.61102c0.20248,0.03051 0.38837,0.07398 0.64568,0.10889zM249.30234,166.99063c-0.19175,-0.01535 -0.35022,-0.05664 -0.543,-0.00044c0.0019,0.25782 -0.10582,0.50694 -0.03249,0.75621c0.17513,0.02834 0.31799,0.01112 0.47843,-0.0906c0.04705,-0.2253 0.06668,-0.45282 0.09703,-0.66512zM238.73868,165.83101c-0.18586,-0.0435 -0.31203,-0.03924 -0.46081,0.00609c-0.0304,0.21233 -0.02266,0.44199 0.10643,0.62412c0.16438,0.01313 0.32867,0.0263 0.50383,0.05462c0.01476,-0.27084 -0.09769,-0.4659 -0.14946,-0.68484zM250.58207,163.32764c-0.15355,0.00201 -0.27982,0.00626 -0.39035,0.06898c0.00774,0.22967 0.0488,0.43342 0.13389,0.62631c0.1477,0.02615 0.2739,0.02189 0.41186,-0.03864c0.00888,-0.24269 -0.10357,-0.43777 -0.15537,-0.65664zM247.18639,169.65613c0.22887,0.10419 0.37273,0.0155 0.51171,-0.11655c0.11646,-0.09088 0.21139,-0.21217 0.17525,-0.37254c-0.18586,-0.0435 -0.36097,-0.07183 -0.56448,-0.03083c-0.05191,0.18198 -0.08718,0.35093 -0.12248,0.51991zM246.99648,160.09179c-0.1467,-0.09762 -0.23274,-0.21901 -0.40301,-0.204c-0.14984,0.51772 0.13773,0.74121 0.52996,0.92999c-0.04588,-0.24705 -0.08105,-0.47896 -0.12698,-0.726zM245.39188,170.51484c0.10673,-0.17757 0.1527,-0.3314 0.15574,-0.54589c-0.17023,0.01506 -0.29447,-0.12375 -0.47056,-0.08055c-0.08908,0.09309 -0.07929,0.17977 -0.11357,0.27723c-0.02352,0.11262 -0.08519,0.20795 -0.0099,0.31418c0.1311,0.03913 0.2622,0.07823 0.43829,0.03503zM244.05727,164.76734c0.24753,-0.05177 0.32584,-0.16004 0.24565,-0.3096c-0.12319,-0.21027 -0.27967,-0.39462 -0.42542,-0.5637c-0.04298,-0.06069 -0.11347,-0.12358 -0.23478,-0.07604c0.11046,0.33809 0.25418,0.65021 0.41449,0.94941zM250.27208,166.28077c0.09777,0.06507 0.19662,0.05866 0.30721,-0.00406c0.06958,-0.26647 0.18313,-0.54372 0.13237,-0.83411c-0.26418,0.06479 -0.39242,0.21202 -0.40128,0.45468c-0.02351,0.11265 -0.09105,0.23613 -0.03827,0.38351zM246.1787,162.8754c0.23289,-0.18177 0.26126,-0.25115 0.16447,-0.38771c-0.16726,-0.19948 -0.34521,-0.41417 -0.57902,-0.5617c0.06055,0.37709 0.127,0.72599 0.41453,0.94939zM249.74387,162.47323c0.06938,0.13439 0.14475,0.24064 0.20339,0.35985c0.13394,0.22548 0.13398,0.22546 0.4872,0.06762c-0.04206,-0.13221 -0.07815,-0.2926 -0.10458,-0.36625c-0.21916,-0.01755 -0.39424,-0.04583 -0.58601,-0.06115zM241.29663,160.58089c-0.04607,0.15382 -0.17421,0.30106 -0.0559,0.46802c0.15357,-0.00203 0.31307,-0.03224 0.49404,-0.03209c0.05192,-0.18198 0.13124,-0.36173 0.09505,-0.52211c-0.17026,0.01508 -0.33462,0.00188 -0.53326,0.0862zM249.57894,164.46445c0.05669,0.26221 0.09664,0.53747 0.15337,0.79967c0.08707,0.04987 0.17994,0.07165 0.25826,-0.03661c0.0529,-0.25346 0.05105,-0.51136 -0.03892,-0.7476c-0.13109,-0.03914 -0.24067,-0.04786 -0.37277,-0.01547zM245.176,159.67419c0.10569,-0.10608 0.14587,-0.23172 0.14786,-0.37474c-0.07631,-0.03475 -0.15258,-0.06947 -0.22891,-0.10419c-0.10367,-0.03692 -0.19077,-0.08681 -0.31207,-0.03924c-0.09981,0.07792 -0.16149,0.17318 -0.17421,0.30105c0.18003,0.07163 0.38736,0.14549 0.56733,0.21718zM241.6837,161.92898c0.05192,-0.18198 0.04314,-0.34017 0.00701,-0.50055c-0.19762,0.01282 -0.3786,0.01272 -0.54881,0.0277c-0.10079,0.14945 -0.10279,0.29243 -0.05493,0.3965c0.20248,0.03052 0.405,0.061 0.59678,0.0764zM246.17483,159.62523c-0.11442,-0.05208 -0.22889,-0.1042 -0.36001,-0.14333c-0.02737,-0.00221 -0.06068,0.02377 -0.10475,0.03458c-0.03429,0.09745 -0.11257,0.20575 -0.07641,0.36613c0.136,0.08249 0.27682,0.20821 0.47932,0.23874c0.07927,-0.17976 0.08125,-0.32279 0.06175,-0.49613zM247.9816,160.24212c-0.10169,-0.17993 0.05978,-0.35315 -0.04779,-0.5049c-0.15257,-0.06944 -0.26599,-0.1931 -0.48515,-0.2106c-0.06263,0.16679 -0.10868,0.32062 0.03805,0.41821c0.14673,0.09763 0.22689,0.24716 0.49492,0.29728zM250.78506,164.89013c-0.00873,-0.15817 -0.0009,-0.32934 0.00112,-0.47232c0.00588,-0.02816 -0.03227,-0.04554 -0.05381,-0.07587c-0.1047,0.03458 -0.24164,0.0236 -0.35907,0.18608c0.00291,0.18633 0.01652,0.38788 0.01355,0.60238c0.15945,-0.03021 0.27004,-0.09294 0.39828,-0.24018zM240.62515,161.52937c-0.16438,-0.01318 -0.33946,-0.04149 -0.47639,-0.05239c-0.11745,0.16243 -0.16352,0.31622 -0.19289,0.45702c0.09195,0.09324 0.21912,0.01751 0.31797,0.0111c0.09883,-0.00646 0.20839,0.00234 0.31408,-0.10374c0.04503,-0.08231 0.07929,-0.17979 0.03726,-0.31201zM243.65612,171.09194c0.15848,0.04126 0.27883,0.06525 0.39913,0.08917c0.03813,0.01738 0.09883,-0.00639 0.12621,-0.00423c0.11646,-0.09088 0.15661,-0.21653 0.15859,-0.35956c-0.16925,-0.05647 -0.32185,-0.12594 -0.51354,-0.1413c-0.06754,0.12344 -0.1077,0.24909 -0.17035,0.41589zM250.18227,162.10742c-0.07327,-0.24926 -0.14658,-0.4985 -0.34708,-0.67202c-0.11744,0.16239 -0.23982,0.28148 -0.23692,0.46783c0.26602,0.1931 0.26605,0.19309 0.58398,0.20421zM245.82526,170.50655c0.4872,0.06763 0.5038,0.05462 0.69568,-0.33098c-0.17517,-0.02832 -0.35607,-0.02844 -0.53119,-0.05683c-0.10569,0.10607 -0.14583,0.23169 -0.1645,0.38769zM244.05575,159.77073c-0.16923,-0.05649 -0.317,-0.08258 -0.49311,-0.03941c-0.0225,0.04115 -0.05093,0.11048 -0.07932,0.17978c-0.01175,0.05636 -0.01277,0.12786 -0.02449,0.18414c0.16925,0.05645 0.33263,0.14111 0.51949,0.11311c0.06754,-0.12344 0.08619,-0.27945 0.07739,-0.43763zM242.15237,171.15777c0.02837,-0.0693 0.06263,-0.1668 0.04704,-0.22533c-0.06841,-0.20594 -0.20925,-0.33165 -0.44406,-0.40773c-0.0568,0.13863 -0.16837,0.27286 -0.15372,0.4029c0.1741,0.09983 0.30908,0.25375 0.55073,0.23015zM238.60894,164.51786c-0.02734,-0.0022 -0.05477,-0.00436 -0.10956,-0.00875c-0.13019,0.29027 -0.17824,0.58704 -0.22621,0.88385c0.12518,0.06731 0.22404,0.06083 0.36783,-0.02784c-0.01261,-0.27301 -0.00868,-0.55899 -0.03204,-0.84726zM244.80019,163.00857c0.06153,0.30555 0.09574,0.60893 0.29522,0.85397c0.01076,0.01518 0.09883,-0.00644 0.13208,-0.03239c0.08316,-0.06494 0.10667,-0.17758 0.05283,-0.25342c-0.08991,-0.23625 -0.26304,-0.4076 -0.48015,-0.56812zM243.13024,159.66816c-0.1477,-0.02615 -0.29545,-0.05229 -0.45494,-0.02209c-0.11643,0.09088 -0.17812,0.18619 -0.186,0.35732c0.18102,0.00015 0.37273,0.01552 0.54294,0.0005c0.07824,-0.10823 0.11256,-0.20573 0.09791,-0.33579zM248.52602,168.77538c0.24366,-0.16664 0.45404,-0.30728 0.57836,-0.56934c-0.14672,-0.09761 -0.30617,-0.06744 -0.47156,-0.00907c-0.06853,0.19494 -0.13122,0.36173 -0.1068,0.57846zM240.25274,170.51909c0.08519,-0.20796 0.09109,-0.23607 0.05881,-0.28162c-0.09089,-0.16475 -0.27095,-0.23644 -0.44015,-0.29291c-0.06551,-0.01955 -0.15948,0.03025 -0.14485,0.16026c0.19664,0.05872 0.26993,0.30798 0.52623,0.41428zM239.34963,164.10466c0.00403,-0.28603 0.03538,-0.56986 -0.13085,-0.8408c-0.15759,0.28803 -0.14493,0.56109 -0.15382,0.80372c0.07042,0.06288 0.14183,0.05427 0.28467,0.03702zM244.72256,170.91946c-0.05088,0.11045 -0.11254,0.20574 -0.16344,0.31622c0.18001,0.07169 0.35511,0.09996 0.50582,-0.08842c0.03915,-0.05415 0.07826,-0.10824 0.05192,-0.18196c-0.09777,-0.06507 -0.22404,-0.06086 -0.39425,-0.04582zM247.18576,161.85357c0.14972,-0.11691 0.19477,-0.19915 0.09207,-0.30757c-0.09195,-0.09327 -0.18387,-0.18652 -0.29246,-0.26677c-0.04892,-0.0325 -0.11449,-0.05211 -0.17024,0.01502c0.07919,0.22108 0.19752,0.38798 0.37062,0.55933zM240.64923,166.48485c0.0733,0.24931 0.1799,0.47253 0.36963,0.63085c0.01076,0.01518 0.09881,-0.00647 0.11542,-0.01941c0.03325,-0.02595 0.03429,-0.09749 0.01275,-0.12783c-0.15646,-0.18433 -0.25231,-0.39243 -0.49785,-0.48364zM240.21638,167.62426c-0.15747,-0.11281 -0.27583,-0.27978 -0.49393,-0.36882c0.05667,0.2622 0.14177,0.45513 0.2562,0.50725c0.09782,0.06509 0.16438,0.01316 0.23776,-0.13848zM250.01045,167.33361c0.16734,-0.20139 0.40027,-0.38324 0.38762,-0.65627c-0.38547,0.11235 -0.37282,0.38537 -0.38762,0.65627zM247.81971,164.75327c0.03324,-0.02595 0.03921,-0.0542 0.07244,-0.0801c-0.12419,-0.13876 -0.15451,-0.3273 -0.33447,-0.39896c-0.11056,0.06275 -0.14974,0.1169 -0.14583,0.23173c0.1252,0.06729 0.26118,0.14974 0.40792,0.24735zM242.80494,164.89627c0.1007,0.25143 0.18577,0.44434 0.33146,0.61351c0.02153,0.03038 0.07628,0.03476 0.12619,-0.00422c0.01667,-0.013 0.03917,-0.05413 0.04505,-0.08233c-0.07327,-0.24926 -0.2024,-0.43135 -0.50271,-0.52697zM242.56427,171.11912c-0.07829,0.10822 -0.10668,0.17757 -0.04112,0.19715c0.1252,0.06729 0.26707,0.12153 0.40892,0.17585c0.09292,0.02175 0.14282,-0.01717 0.14972,-0.11689c-0.16821,-0.12803 -0.31496,-0.22565 -0.51745,-0.25614zM242.0227,160.03766c0.03429,-0.09749 0.07927,-0.17979 0.11357,-0.27725c0.00589,-0.02816 -0.01563,-0.05853 -0.03124,-0.11704c-0.19964,0.15579 -0.41486,0.25311 -0.58812,0.48268c0.18102,0.00015 0.30722,-0.00404 0.50583,-0.08842zM243.37147,167.91943c0.12421,0.13881 0.23766,0.2624 0.38336,0.43154c0.05876,-0.28167 0.01189,-0.45719 -0.11232,-0.59596c-0.11545,0.0194 -0.1761,0.04317 -0.27107,0.16443zM248.32598,163.46234c0.14186,0.05433 0.22687,0.24719 0.47442,0.1954c-0.20829,-0.4032 -0.26206,-0.47908 -0.36677,-0.4445c-0.08316,0.06494 -0.11158,0.13426 -0.1077,0.2491zM241.82822,165.70582c-0.0383,0.3835 0.09084,0.56562 0.31872,0.74132c0.1038,-0.36395 -0.1799,-0.47246 -0.31872,-0.74132zM247.52369,160.43455c-0.0324,0.35531 0.08595,0.52232 0.24829,0.67844c0.01077,0.01516 0.05479,0.00435 0.08804,-0.0216c0.04992,-0.03895 0.06163,-0.09531 0.04015,-0.12562c-0.0909,-0.16476 -0.21512,-0.30352 -0.37648,-0.53119zM248.96316,162.61126c0.1467,0.09762 0.27095,0.23642 0.51252,0.21277c-0.05768,-0.19077 -0.17114,-0.31431 -0.27382,-0.42275c-0.13207,0.03239 -0.18784,0.09949 -0.23878,0.20995zM247.14341,159.38763c-0.21327,-0.04569 -0.33158,-0.21263 -0.54097,-0.14348c0.1007,0.25143 0.1007,0.25143 0.43427,0.32107c0.0225,-0.04115 0.04503,-0.08233 0.1067,-0.17759zM249.71038,166.43629c0.20059,-0.22735 0.22025,-0.45482 0.21248,-0.68451c-0.11442,-0.05208 -0.18099,-0.00016 -0.1986,0.0843c0.00291,0.18634 -0.01089,0.38573 -0.01384,0.60019zM244.16543,159.37859c0.08908,-0.09309 0.16149,-0.17317 0.14684,-0.30316c-0.12033,-0.02393 -0.24068,-0.04792 -0.35122,0.01486c-0.07241,0.0801 -0.10079,0.14943 -0.09104,0.23611c0.08708,0.04988 0.16923,0.05649 0.29544,0.05224zM245.89305,166.44607c-0.03613,-0.16035 -0.06742,-0.27744 -0.16523,-0.34249c-0.03813,-0.01738 -0.08217,-0.00661 -0.1262,0.00421c-0.0499,0.03895 -0.09495,0.12125 -0.04603,0.1538c0.06456,0.09108 0.13987,0.19731 0.33752,0.18449zM240.76241,160.73861c-0.18202,0.07136 -0.26128,0.25113 -0.37284,0.38538c0.33947,0.04145 0.37274,0.01545 0.37284,-0.38538zM239.27414,168.33632c-0.09482,-0.27961 -0.09483,-0.27959 -0.30909,-0.25378c0.03129,0.11704 0.07332,0.24928 0.30909,0.25378zM246.61726,165.24405c-0.09883,0.00646 -0.14871,0.04536 -0.14384,0.08869c0.00294,0.18633 0.05178,0.2189 0.29834,0.2386c-0.02536,-0.14518 -0.08991,-0.2363 -0.15446,-0.32733zM248.30836,160.01057c-0.02935,0.14085 -0.04213,0.26865 0.06639,0.34891c0.23384,-0.25333 0.22902,-0.29659 -0.06639,-0.34891zM238.54831,168.07785c-0.02451,0.18419 0.04491,0.31855 0.10354,0.43774c0.043,0.06071 0.12522,0.0673 0.18203,-0.07134c-0.05869,-0.11917 -0.12809,-0.25367 -0.28556,-0.36645zM245.95295,159.02047c0.07431,0.17773 0.17799,0.2147 0.33262,0.14116c0,0 0.02251,-0.04115 0.01175,-0.05636c-0.0479,-0.10405 -0.19071,-0.08684 -0.34436,-0.08484zM244.69239,167.19471c0.07826,-0.10826 0.06852,-0.19499 0.00887,-0.24266c-0.02152,-0.03035 -0.07631,-0.03473 -0.12032,-0.02394c-0.04401,0.01083 -0.0724,0.08011 -0.05087,0.11044c0.01563,0.05855 0.05863,0.11921 0.16235,0.15615zM243.17931,159.29978c0.14186,0.05432 0.24064,0.04793 0.33071,-0.11669c-0.16926,-0.05647 -0.25727,-0.0349 -0.33071,0.11669z" fill="#000000"/><path d="M248.27917,172.69272c0.5431,-0.40037 1.08623,-0.80078 1.61853,-1.21641c0.59889,-0.46753 1.1547,-0.99575 1.64014,-1.58686c0.1507,-0.1884 0.24663,-0.38112 0.40324,-0.59765c0.17213,0.24287 0.3394,0.44229 0.47331,0.66777c0.83705,1.32682 1.76801,2.60384 2.64909,3.91985c0.78423,1.17941 1.5744,2.33065 2.37533,3.49708c0.54275,0.80218 1.07471,1.5892 1.61739,2.39138c0.51048,0.75668 1.04344,1.47213 1.55392,2.22877c0.04302,0.06071 0.08605,0.12142 0.11246,0.1951c-0.11454,0.34874 -0.31033,0.61942 -0.55006,0.90091c-0.38462,0.44172 -0.80738,0.86602 -1.28391,1.21445c-0.14972,0.11691 -0.28868,0.24896 -0.47553,0.27695c0.1282,-0.14724 0.3268,-0.23156 0.45605,-0.45031c-0.28851,-0.15194 -0.42148,-0.44887 -0.61026,-0.67874c-0.01076,-0.01518 -0.02148,-0.03036 -0.03813,-0.01735c-0.4235,-0.30591 -0.73547,-0.74604 -1.11984,-1.10605c-0.14082,-0.12579 -0.3316,-0.21259 -0.40591,-0.39035c-0.18187,-0.32953 -0.53597,-0.50098 -0.71788,-0.83052c-0.01077,-0.01516 -0.04891,-0.03253 -0.07043,-0.06289c-0.25428,-0.24937 -0.51442,-0.47062 -0.73544,-0.746c-0.2367,-0.33389 -0.58489,-0.53357 -0.78827,-0.89342c-0.23963,-0.11936 -0.3462,-0.34268 -0.51343,-0.54215c-0.02153,-0.03038 -0.03229,-0.04556 -0.05379,-0.07588c-0.34824,-0.19964 -0.5076,-0.57029 -0.78927,-0.82191c-0.28164,-0.25158 -0.4743,-0.59627 -0.73936,-0.86084c-0.29734,-0.31014 -0.63383,-0.56604 -0.84204,-0.96927c-0.02153,-0.03038 -0.05378,-0.07592 -0.09193,-0.09325c-0.21816,-0.089 -0.29734,-0.31012 -0.44302,-0.47927c-0.06456,-0.09107 -0.12317,-0.21028 -0.22102,-0.27537c-0.16333,-0.08467 -0.23277,-0.21902 -0.32961,-0.35562c-0.05378,-0.07588 -0.09092,-0.16477 -0.1672,-0.19948c-0.23967,-0.11935 -0.35698,-0.3578 -0.49682,-0.55511c-0.05378,-0.0759 -0.09094,-0.16475 -0.16726,-0.19951c-0.20149,-0.10204 -0.30321,-0.28193 -0.4215,-0.44891c-0.19368,-0.2732 -0.50367,-0.45548 -0.68067,-0.7416c-0.01563,-0.05851 -0.0978,-0.06511 -0.14671,-0.09762z" fill="#87d7dc"/><path d="M248.27924,172.69282c0.04889,0.03258 0.13109,0.03912 0.16337,0.08461c0.17701,0.28618 0.47043,0.48143 0.68069,0.74162c0.1183,0.16697 0.22004,0.3469 0.42153,0.44893c0.07631,0.03472 0.11343,0.12361 0.16724,0.19945c0.13984,0.19727 0.27381,0.42277 0.4968,0.55515c0.07629,0.03474 0.09681,0.13659 0.16724,0.19947c0.09683,0.13658 0.18288,0.25803 0.3296,0.35566c0.09777,0.06507 0.15647,0.18434 0.22103,0.27538c0.14573,0.16913 0.22492,0.39026 0.44305,0.47927c0.03813,0.0174 0.07043,0.06292 0.09193,0.09326c0.19752,0.38801 0.54474,0.65922 0.84205,0.96929c0.27582,0.27978 0.46842,0.62444 0.73933,0.86086c0.28167,0.25156 0.44106,0.62222 0.78925,0.82188c0.02734,0.0022 0.03227,0.04555 0.05378,0.0759c0.13984,0.19727 0.27382,0.42273 0.51348,0.54215c0.18674,0.37286 0.53499,0.57247 0.78824,0.89339c0.20438,0.28835 0.48121,0.4966 0.73546,0.74602c0.02153,0.03038 0.04896,0.03252 0.07045,0.06289c0.18187,0.32953 0.53595,0.50098 0.71786,0.83054c0.10169,0.1799 0.28167,0.2516 0.40587,0.39036c0.36772,0.373 0.69635,0.80014 1.11983,1.10606c0.01076,0.01518 0.03817,0.01737 0.03817,0.01737c0.18875,0.22985 0.3217,0.52685 0.61028,0.67875c-0.11255,0.20575 -0.32197,0.27489 -0.45606,0.45032c-0.13306,0.10389 -0.26615,0.20772 -0.4472,0.2076c-0.06456,-0.09108 -0.12318,-0.21026 -0.22099,-0.27536c-0.34233,-0.22779 -0.5516,-0.55953 -0.81077,-0.85228c-0.25912,-0.29271 -0.60153,-0.52052 -0.78826,-0.89337c-0.23968,-0.11935 -0.34626,-0.34264 -0.51347,-0.54215c-0.02151,-0.03034 -0.0538,-0.07586 -0.09197,-0.09326c-0.18001,-0.07169 -0.25423,-0.24939 -0.36775,-0.37304c-0.05378,-0.07589 -0.1076,-0.15171 -0.16721,-0.19948c-0.31984,-0.26896 -0.6338,-0.56604 -0.8812,-0.91513c-0.03226,-0.04555 -0.05865,-0.1193 -0.11345,-0.12361c-0.19072,-0.08682 -0.2817,-0.25156 -0.38927,-0.40334c-0.10169,-0.1799 -0.3257,-0.2408 -0.43814,-0.43592c-0.15545,-0.25582 -0.40002,-0.41853 -0.60539,-0.63537c-0.26993,-0.30792 -0.59564,-0.54872 -0.84302,-0.89778c-0.04303,-0.06072 -0.0802,-0.14957 -0.14573,-0.16913c-0.15255,-0.06951 -0.23278,-0.21901 -0.34621,-0.34265c-0.08606,-0.12139 -0.18874,-0.22984 -0.29732,-0.31014c-0.20637,-0.14537 -0.37948,-0.3167 -0.53013,-0.52912c-0.24251,-0.30574 -0.58491,-0.53354 -0.77163,-0.90636c-0.02153,-0.03038 -0.07041,-0.06293 -0.09194,-0.09326c-0.27584,-0.27978 -0.56827,-0.54652 -0.81074,-0.85226c-0.23668,-0.33385 -0.60642,-0.56391 -0.80977,-0.92376c-0.03227,-0.04554 -0.0978,-0.06506 -0.14672,-0.09761c-0.17311,-0.17132 -0.34036,-0.3708 -0.43027,-0.60707c0.07245,-0.08008 0.13895,-0.13207 0.19479,-0.19917c0.26519,-0.13628 0.48629,-0.26177 0.71335,-0.41542z" fill="#b0eef2"/><path d="M249.11842,160.13252c0.25425,0.24937 0.43226,0.46409 0.52709,0.74369c-0.04704,0.22531 -0.19773,0.41371 -0.33768,0.61724c-0.73209,0.97226 -1.4749,1.92934 -2.33707,2.79103c-0.65082,0.64947 -1.31822,1.31201 -2.03939,1.89855c-0.19963,0.15581 -0.42663,0.30948 -0.59403,0.51085c-0.07239,0.08011 -0.17224,0.15801 -0.27205,0.23592c-0.44229,0.25096 -0.82,0.59301 -1.23003,0.88951c-0.5764,0.42641 -1.19575,0.79204 -1.83665,1.12731c-0.32585,0.16009 -0.64092,0.33531 -0.97262,0.52356c-0.25439,0.1514 -0.51857,0.21622 -0.772,0.2962c-0.31007,-0.18229 -0.40197,-0.2755 -0.62688,-0.66572c0.37667,-0.27054 0.79061,-0.45219 1.18886,-0.69234c0.38163,-0.22719 0.77985,-0.46737 1.15072,-0.70972c0.3875,-0.25533 0.7809,-0.53888 1.15764,-0.80939c0.37084,-0.24234 0.69378,-0.58878 1.09697,-0.78563c0.3122,-0.36161 0.71046,-0.60177 1.06566,-0.90265c0.33861,-0.28792 0.68304,-0.60395 1.01088,-0.90704c0.34449,-0.31608 0.67816,-0.6473 1.02856,-0.9915c0.31706,-0.31824 0.66156,-0.63429 0.96787,-0.96776c0.32295,-0.34642 0.60776,-0.71016 0.91999,-1.0718c0.32881,-0.37459 0.63513,-0.70798 0.9043,-1.13031z" fill="#d1eaeb"/><path d="M247.59335,173.11034c-0.05579,0.06714 -0.12232,0.11906 -0.19472,0.19919c0.08992,0.23625 0.22977,0.43356 0.43029,0.60706c0.04891,0.03256 0.11443,0.0521 0.1467,0.09763c0.20336,0.35985 0.55654,0.60287 0.8098,0.92378c0.22589,0.31871 0.53496,0.57248 0.81072,0.85227c0.02152,0.03035 0.07044,0.06292 0.09194,0.09326c0.18673,0.37286 0.53496,0.57249 0.77161,0.9064c0.13987,0.19727 0.32372,0.3838 0.53015,0.52913c0.11927,0.09541 0.22203,0.20383 0.29733,0.31011c0.09683,0.13658 0.16623,0.27097 0.34623,0.34265c0.06549,0.01955 0.1027,0.10845 0.14571,0.16917c0.2367,0.33389 0.57316,0.58982 0.84305,0.89776c0.20535,0.21687 0.44992,0.37957 0.60536,0.63538c0.10169,0.1799 0.32571,0.24079 0.43814,0.43591c0.09093,0.16477 0.19264,0.34468 0.38923,0.40337c0.04891,0.03256 0.08116,0.07806 0.11343,0.12359c0.24743,0.34908 0.55057,0.63102 0.88121,0.91512c0.07041,0.06289 0.10757,0.15173 0.16722,0.19944c0.0968,0.13657 0.18777,0.30133 0.36774,0.37297c0.03815,0.01738 0.07042,0.06288 0.09193,0.09326c0.13984,0.19727 0.27383,0.42273 0.51348,0.54214c0.18673,0.37286 0.5291,0.60067 0.78825,0.89338c0.25914,0.29271 0.47917,0.63958 0.81074,0.85226c0.09777,0.06507 0.15648,0.18432 0.22104,0.27536c-0.13898,0.13207 -0.3033,0.11891 -0.4305,0.19466c-0.53497,-0.57247 -1.06508,-1.10165 -1.57851,-1.6438c-0.57312,-0.58988 -1.11887,-1.17753 -1.67535,-1.78034c-0.52421,-0.55732 -1.06511,-1.10164 -1.60592,-1.64597c-0.66504,-0.68312 -1.33599,-1.33804 -1.9903,-2.00594c-0.49199,-0.5118 -0.98389,-1.02362 -1.4925,-1.52238c-0.76776,-0.79151 -1.47974,-1.65021 -2.28075,-2.41575c-0.10269,-0.10841 -0.23866,-0.19089 -0.28555,-0.36643c0.14972,-0.11691 0.33168,-0.18823 0.50293,-0.27476c0.1047,-0.03458 0.23289,-0.18181 0.41977,-0.20984z" fill="#87d7dc"/><path d="M259.01466,184.70384c0.32783,-0.30308 0.68205,-0.53245 0.99908,-0.8507c0.35622,-0.37238 0.70167,-0.75998 0.98261,-1.23857c0.62392,0.88026 1.23709,1.74533 1.83946,2.59523c-0.06463,0.30985 -0.23791,0.5393 -0.38373,0.77106c-0.28581,0.43529 -0.6469,0.76433 -1.02464,1.10637c-0.01667,0.01301 -0.06064,0.02377 -0.08807,0.0216c0.08521,-0.20795 -0.05077,-0.29038 -0.17014,-0.38585c-0.29834,-0.23858 -0.58001,-0.49017 -0.77848,-0.80671c-0.04302,-0.06074 -0.08605,-0.1214 -0.14572,-0.16912c-0.30422,-0.21043 -0.50271,-0.52697 -0.75702,-0.77633c-0.15158,-0.14103 -0.27093,-0.23634 -0.47341,-0.26692z" fill="#61afb4"/><path d="M245.91302,171.28671c0.64676,-0.36346 1.21826,-0.83317 1.83276,-1.24217c0.27689,-0.19259 0.52157,-0.43076 0.76625,-0.66891c0.47757,-0.41996 1.01473,-0.79214 1.44927,-1.27287c0.17812,-0.18619 0.35624,-0.37239 0.50697,-0.56075c0.09494,-0.12128 0.20059,-0.22738 0.31708,-0.31825c0.04892,0.0325 0.08704,0.04992 0.10855,0.08029c0.08604,0.12141 0.17213,0.24282 0.25821,0.36421c-0.05088,0.11045 -0.09595,0.19275 -0.1576,0.28806c-0.46975,0.64962 -0.95622,1.31228 -1.60504,1.81875c-0.55487,0.45673 -1.12629,0.92642 -1.72417,1.32247c-0.47067,0.32031 -0.93059,0.65573 -1.47067,0.84164c0.06164,-0.09531 0.19374,-0.12767 0.19573,-0.27069c-0.08508,-0.1929 -0.17502,-0.42915 -0.47731,-0.38177z" fill="#61aeb3"/><path d="M247.03301,171.99183c0.26129,-0.25113 0.59201,-0.36779 0.88557,-0.57344c0.60965,-0.45237 1.21931,-0.90468 1.79663,-1.40256c0.46091,-0.40693 0.86216,-0.86167 1.2253,-1.33371c0.09496,-0.12126 0.18984,-0.24251 0.28477,-0.36379c0.15061,0.21248 0.27973,0.39459 0.41955,0.5919c-0.07054,0.33796 -0.26633,0.60862 -0.50019,0.86197c-0.27303,0.30747 -0.56269,0.62787 -0.88467,0.90279c-0.70559,0.64511 -1.45907,1.18616 -2.21839,1.75538c-0.13307,0.10389 -0.26615,0.20781 -0.43639,0.22284c-0.05378,-0.0759 -0.09096,-0.16474 -0.16721,-0.19947c-0.1741,-0.09982 -0.28659,-0.29496 -0.40488,-0.46185z" fill="#61aeb3"/><path d="M259.01466,184.70384c0.17516,0.02832 0.31105,0.11077 0.43527,0.24957c0.25425,0.24938 0.45279,0.56593 0.75702,0.77634c0.05965,0.04775 0.10272,0.10842 0.14572,0.16915c0.22591,0.31871 0.49682,0.55515 0.77849,0.80672c0.10856,0.08028 0.25532,0.17786 0.17012,0.38584c-0.23876,0.20998 -0.49318,0.36146 -0.7632,0.45439c-0.20055,-0.17355 -0.41766,-0.33405 -0.535,-0.57248c-0.02151,-0.03034 -0.07043,-0.06291 -0.09195,-0.09325c-0.26503,-0.26454 -0.54086,-0.54436 -0.78926,-0.82191c-0.11345,-0.12359 -0.19951,-0.24504 -0.32958,-0.35566c-0.1682,-0.12802 -0.31396,-0.29713 -0.34912,-0.529c0.07243,-0.0801 0.13895,-0.13206 0.19474,-0.19916c0.11646,-0.09089 0.26031,-0.17964 0.37671,-0.27058z" fill="#87d7dc"/><path d="M241.11771,163.57311c0.35024,0.05665 0.6055,0.23448 0.84418,0.42543c0.05967,0.04772 0.12419,0.13879 0.1506,0.21248c0.17887,0.54403 0.42427,1.03612 0.68634,1.51519c0.01076,0.01518 0.01562,0.05851 0.00979,0.08671c-0.03427,0.09748 -0.11743,0.16244 -0.23287,0.18184c-0.02153,-0.03038 -0.0597,-0.04771 -0.0812,-0.07808c-0.24147,-0.37723 -0.53295,-0.71553 -0.89681,-0.97368c-0.17899,-0.14318 -0.29734,-0.31014 -0.34324,-0.55717c-0.03999,-0.27519 -0.12996,-0.51145 -0.13673,-0.81266z" fill="#cce5e6"/><path d="M241.74378,166.64398c-0.06754,0.12344 -0.14484,0.16022 -0.22702,0.15365c-0.5496,-0.70253 -0.54962,-0.70251 -1.26754,-1.13215c-0.14962,-0.28399 -0.21602,-0.63289 -0.30492,-0.94064c0.09494,-0.12128 0.1761,-0.04316 0.24163,-0.02361c0.23477,0.07603 0.45878,0.1369 0.67105,0.25412c0.13601,0.08248 0.22789,0.17575 0.28066,0.32309c0.16915,0.45737 0.36562,0.91686 0.60613,1.36561z" fill="#cce5e6"/><path d="M258.62134,184.98737c-0.0558,0.06713 -0.12234,0.11911 -0.19478,0.19916c0.03514,0.23187 0.18085,0.40102 0.34911,0.529c0.13009,0.11061 0.21615,0.23202 0.3296,0.35564c0.24841,0.27756 0.52421,0.55732 0.78924,0.8219c0.02153,0.03038 0.07043,0.06291 0.09194,0.09325c0.14474,0.24062 0.35109,0.386 0.53493,0.57249c-0.15458,0.07354 -0.29259,0.13412 -0.49022,0.14693c-0.35112,-0.38597 -0.74629,-0.7612 -1.09149,-1.17535c-0.35111,-0.38601 -0.76873,-0.72004 -1.09146,-1.17535c0.27689,-0.19259 0.51958,-0.28775 0.77295,-0.36772z" fill="#60adb2"/><path d="M246.90111,164.95179c0.05577,-0.0671 0.09496,-0.12127 0.15073,-0.1884c0.0548,0.00437 0.08219,0.00658 0.10953,0.00877c0.2494,0.20607 0.538,0.35799 0.84315,0.49693c0.1252,0.06729 0.2064,0.14537 0.23179,0.29054c0.06741,0.27744 0.17889,0.54399 0.0917,0.89496c-0.33944,-0.04149 -0.62801,-0.1934 -0.89991,-0.35829c-0.04892,-0.0325 -0.08604,-0.12143 -0.11244,-0.19508c-0.14375,-0.3121 -0.28749,-0.62432 -0.41452,-0.94942z" fill="#cce5e6"/><path d="M244.41248,160.93028c0.1741,0.09979 0.28854,0.15193 0.41376,0.21923c0.22301,0.1324 0.36873,0.30151 0.41954,0.59189c0.10844,0.4811 0.27757,0.93845 0.54651,1.31787c0.08605,0.1214 0.08015,0.14957 -0.1302,0.29027c-0.03226,-0.04554 -0.08118,-0.07805 -0.11346,-0.12362c-0.25231,-0.39237 -0.5604,-0.71771 -0.91836,-1.004c-0.08116,-0.0781 -0.15159,-0.14097 -0.17215,-0.24281c-0.0283,-0.33155 -0.0898,-0.63711 -0.04563,-1.04879z" fill="#cae2e3"/><path d="M243.71764,165.12667c-0.02734,-0.0022 -0.06557,-0.01956 -0.07629,-0.03474c-0.2141,-0.37502 -0.51732,-0.65696 -0.82641,-0.9108c-0.28167,-0.25156 -0.4861,-0.53994 -0.52408,-0.95815c-0.01363,-0.2015 -0.11534,-0.38141 -0.0849,-0.59377c0.49204,0.11091 0.81677,0.42325 0.93696,0.84801c0.15735,0.51368 0.28732,1.02512 0.61591,1.45229c0.01565,0.05852 0.05864,0.11925 -0.04114,0.19717z" fill="#c9e1e2"/><path d="M243.25875,161.85446c0.33848,0.11296 0.55562,0.27348 0.78349,0.44918c0.07042,0.06288 0.12419,0.1388 0.13394,0.22549c0.1515,0.54183 0.34699,1.07285 0.57575,1.57791c0.02153,0.03038 0.03718,0.08885 -0.05678,0.13862c-0.07529,-0.10623 -0.16136,-0.22763 -0.25329,-0.3209c-0.23177,-0.29055 -0.48017,-0.56811 -0.7844,-0.77854c-0.21716,-0.16053 -0.34036,-0.37081 -0.35298,-0.64387c-0.01363,-0.20151 -0.01655,-0.38786 -0.0458,-0.64792z" fill="#c9e1e2"/><path d="M247.84148,163.98188c0.04609,-0.15382 0.12925,-0.21877 0.21238,-0.28367c0.02737,0.00221 0.06555,0.01956 0.0929,0.02176c0.20539,0.21687 0.46657,0.3666 0.75612,0.44698c0.16922,0.05648 0.27193,0.16492 0.31883,0.34048c0.05179,0.21887 0.13099,0.43996 0.13875,0.66966c-0.27979,0.00627 -0.66823,-0.06772 -0.78755,-0.16317c-0.08708,-0.04988 -0.09684,-0.13656 -0.13395,-0.22545c-0.19951,-0.24502 -0.32664,-0.57015 -0.59747,-0.80654z" fill="#cae3e4"/><path d="M242.86225,169.42497c-0.00577,-0.37268 -0.06142,-0.70641 -0.14448,-1.04235c0.07824,-0.10823 0.14484,-0.16028 0.2603,-0.17966c0.27679,0.20823 0.46941,0.55296 0.76288,0.74824c0.03512,0.23187 -0.03341,0.42681 -0.06377,0.63913c-0.02352,0.11262 -0.01962,0.22744 -0.12531,0.33356c-0.27291,-0.09339 -0.4284,-0.34924 -0.68957,-0.49896z" fill="#c8e0e1"/><path d="M245.01832,166.63377c0.16048,-0.1017 0.22014,-0.05397 0.27978,-0.00625c0.22793,0.17571 0.445,0.33623 0.65631,0.52489c0.05966,0.04774 0.1027,0.10841 0.11249,0.19512c0.00187,0.25785 -0.0129,0.52868 -0.05501,0.79732c-0.1477,-0.02615 -0.22889,-0.10421 -0.34335,-0.15631c-0.34331,-0.15632 -0.54285,-0.40129 -0.49871,-0.81296c0.01374,-0.19936 -0.06055,-0.37708 -0.15147,-0.54182z" fill="#cbe4e5"/><path d="M243.97032,167.45198c0.08317,-0.06494 0.13305,-0.1039 0.18296,-0.14285c0.03814,0.01738 0.08218,0.00659 0.09293,0.02174c0.15156,0.14099 0.28659,0.29494 0.43818,0.4359c0.08117,0.07811 0.11832,0.16695 0.12222,0.28178c0.01163,0.34455 -0.00415,0.68688 -0.0698,1.0682c-0.21326,-0.04565 -0.32669,-0.16927 -0.44015,-0.2929c-0.04299,-0.06071 -0.08604,-0.12143 -0.08507,-0.19288c0.04412,-0.41166 -0.07117,-0.79312 -0.24128,-1.17894z" fill="#c8e0e1"/><path d="M247.03301,171.99183c0.1183,0.16694 0.23078,0.36209 0.43232,0.46411c0.07629,0.03474 0.1134,0.1236 0.1672,0.19947c-0.27206,0.23594 -0.57049,0.39823 -0.89532,0.48675c-0.11732,-0.23843 -0.33443,-0.39897 -0.49681,-0.55511c0.06263,-0.16679 0.21138,-0.21216 0.28965,-0.32044c0.13898,-0.13207 0.31612,-0.24677 0.50296,-0.27479z" fill="#85d5d9"/><path d="M246.20385,160.68694c0.07818,0.29261 0.15638,0.58514 0.26194,0.87994c0.1007,0.25145 0.40587,0.39038 0.31769,0.81281c-0.36574,-0.51599 -0.8049,-0.88039 -1.24405,-1.2448c-0.03512,-0.23187 -0.06443,-0.49191 0.00515,-0.7584c0.0548,0.00437 0.08218,0.00659 0.10955,0.00877c0.19072,0.08683 0.36486,0.18666 0.54968,0.30162z" fill="#c6dede"/><path d="M240.62658,163.39071c0.0664,0.34894 0.12796,0.65446 0.1944,1.00339c-0.19762,0.01282 -0.33362,-0.06961 -0.48129,-0.09573c-0.15847,-0.04127 -0.33949,-0.04148 -0.48619,-0.13911c-0.07529,-0.10623 -0.07331,-0.24923 -0.08796,-0.37924c-0.01467,-0.13001 -0.01262,-0.27303 0.00601,-0.42903c0.29742,-0.09075 0.55961,-0.01249 0.85507,0.03975z" fill="#cae3e3"/><path d="M240.7008,167.50545c-0.43918,-0.3644 -0.82456,-0.65291 -1.29897,-0.84831c-0.07329,-0.24929 -0.16322,-0.48552 -0.24728,-0.74991c0.30233,-0.04741 0.5146,0.06976 0.74934,0.1458c0.03814,0.01736 0.07042,0.06293 0.09192,0.09326c0.21901,0.41837 0.43805,0.83676 0.70498,1.35916z" fill="#cae3e4"/><path d="M247.10975,167.28777c-0.33849,-0.11297 -0.63293,-0.2367 -0.69834,-0.65712c-0.05078,-0.29039 -0.19551,-0.53104 -0.34023,-0.77166c-0.06456,-0.09107 0.00785,-0.17115 0.12919,-0.21873c0.13888,0.26876 0.38339,0.43151 0.62794,0.59422c0.18486,0.11498 0.24843,0.27753 0.26209,0.47911c0.01952,0.17336 0.08306,0.33592 0.01935,0.57424z" fill="#c8e0e1"/><path d="M245.91302,171.28671c0.31308,-0.03224 0.39223,0.18887 0.50469,0.38395c-0.00202,0.14296 -0.12331,0.19057 -0.19569,0.27066c-0.22699,0.15362 -0.46968,0.24876 -0.73386,0.31355c-0.10169,-0.1799 -0.28653,-0.29493 -0.31097,-0.51161c0.07245,-0.08008 0.12236,-0.11909 0.18889,-0.17104c0.18786,-0.09954 0.37571,-0.19905 0.54698,-0.28556z" fill="#85d4d9"/><path d="M245.22623,168.23952c0.26117,0.14973 0.46751,0.29507 0.69056,0.42745c-0.0314,0.28382 -0.09014,0.56546 -0.18715,0.82974c-0.13798,0.06058 -0.23576,-0.00455 -0.32869,-0.0263c-0.09292,-0.02175 -0.18585,-0.04351 -0.24448,-0.16271c0.00405,-0.28603 0.03638,-0.64131 0.06978,-1.06817z" fill="#c7dfe0"/><path d="M248.36511,166.94436c-0.00888,0.24269 -0.00116,0.47236 -0.07066,0.73881c-0.29647,0.01927 -0.50866,-0.09793 -0.76499,-0.20432c-0.01261,-0.27301 -0.02527,-0.54605 -0.04868,-0.83427c0.31695,0.08262 0.57329,0.189 0.88429,0.29977z" fill="#c8e0e1"/><path d="M241.08091,162.28167c0.21918,0.01753 0.43828,0.03506 0.6398,0.13706c0.05078,0.29039 0.08493,0.59379 0.12984,0.91233c-0.03325,0.02595 -0.06651,0.05193 -0.07731,0.03675c-0.19663,-0.05868 -0.40398,-0.13251 -0.58397,-0.20416c-0.07629,-0.03474 -0.13602,-0.08247 -0.13499,-0.15394c-0.02924,-0.26006 -0.10843,-0.48112 0.02665,-0.72806z" fill="#c4dcdd"/><path d="M243.95958,160.76522c0.00674,0.30119 0.03014,0.58938 0.0369,0.89059c-0.16533,0.05832 -0.25135,-0.06307 -0.36584,-0.11517c-0.11442,-0.05208 -0.22306,-0.13237 -0.34823,-0.19965c-0.04591,-0.24707 0.03445,-0.49832 0.05995,-0.75402c0.25824,-0.03661 0.43238,0.06322 0.61722,0.17824z" fill="#c8e0e1"/><path d="M248.77709,166.50484c-0.03412,-0.3034 -0.07414,-0.57863 -0.11907,-0.89717c0.25243,-0.00846 0.45391,0.09358 0.68971,0.0981c0.08401,0.26442 0.0145,0.53088 0.01049,0.81688c-0.23087,0.03881 -0.41776,0.06682 -0.58109,-0.01785z" fill="#c6ddde"/><path d="M248.7008,162.93391c0.34924,0.12813 0.63679,0.35156 1.01439,0.4104c0.07919,0.22108 0.16422,0.41402 0.16611,0.67188c-0.2749,0.04959 -0.48823,0.00391 -0.61627,-0.24971c-0.1437,-0.31211 -0.37063,-0.55934 -0.56427,-0.83253z" fill="#b9cfd0"/><path d="M239.61851,168.02023c-0.13207,0.03237 -0.136,-0.08244 -0.19561,-0.13014c-0.13009,-0.11063 -0.2435,-0.2342 -0.40791,-0.24735c-0.2514,-0.06305 -0.35313,-0.24296 -0.44891,-0.45107c-0.03715,-0.0889 -0.05767,-0.19076 -0.09967,-0.32295c0.33462,-0.0019 0.60853,0.02006 0.74636,0.36033c0.08994,0.23624 0.25717,0.43576 0.38038,0.64603c0.03226,0.04555 0.06454,0.09107 0.02542,0.14517z" fill="#c0d8d8"/><path d="M242.35518,170.38651c-0.18001,-0.07166 -0.2993,-0.16707 -0.38537,-0.28848c-0.04299,-0.06071 -0.09683,-0.13657 -0.0958,-0.20806c0.00992,-0.31418 -0.04093,-0.60454 -0.09171,-0.89498c0.11647,-0.09087 0.14284,-0.01719 0.17514,0.02834c0.10758,0.15175 0.2259,0.31872 0.36676,0.44452c0.17311,0.17132 0.22002,0.34685 0.12896,0.58298c-0.05088,0.11045 -0.06852,0.19494 -0.09792,0.33574z" fill="#c1d9d9"/><path d="M247.08619,167.80125c0.01849,0.24481 -0.02853,0.47017 -0.05405,0.72579c-0.24752,0.0518 -0.41574,-0.07622 -0.6124,-0.13486c-0.02341,-0.28823 0.06277,-0.56763 0.11082,-0.86445c0.22402,0.06087 0.38151,0.1737 0.55562,0.27348z" fill="#c3dbdc"/><path d="M242.85553,162.45224c-0.25045,-0.13452 -0.47345,-0.26694 -0.71309,-0.38632c-0.0303,-0.18855 -0.04977,-0.36193 0.0354,-0.56987c0.23578,0.00453 0.4265,0.09134 0.63393,0.16521c0.07327,0.24926 0.09183,0.49408 0.04379,0.79088z" fill="#c3dadb"/><path d="M246.10043,169.65522c0.06958,-0.26647 0.13321,-0.50473 0.19687,-0.74302c0.24166,-0.02363 0.43238,0.06321 0.62312,0.15003c-0.01963,0.2275 -0.07742,0.43762 -0.17922,0.65852c-0.07142,0.0086 -0.17024,0.01499 -0.22499,0.01067c-0.14772,-0.02615 -0.2514,-0.06304 -0.41579,-0.07621z" fill="#c4dbdc"/><path d="M240.91437,169.48399c0.2044,0.2884 0.36574,0.51605 0.53787,0.75879c-0.00787,0.17122 -0.05394,0.32498 -0.17138,0.48734c-0.15356,0.00201 -0.19561,-0.13018 -0.29341,-0.19529c-0.09777,-0.06507 -0.17899,-0.14317 -0.23279,-0.21903c0.05875,-0.28167 0.1058,-0.50696 0.15969,-0.83192z" fill="#c2d9da"/><path d="M239.78345,162.89376c-0.0195,-0.17335 -0.00094,-0.32934 0.05589,-0.46799c0.12234,-0.11905 0.25346,-0.07993 0.36884,-0.09933c0.1154,-0.01944 0.22599,-0.08215 0.35118,-0.01487c0.07431,0.17773 0.05467,0.40521 0.05656,0.6631c-0.137,-0.01095 -0.27398,-0.02188 -0.40015,-0.01765c-0.14772,-0.02615 -0.29543,-0.05224 -0.43241,-0.06319z" fill="#c5ddde"/><path d="M247.48331,168.03346c0.27491,-0.04956 0.48719,0.06761 0.72785,0.11548c0.02442,0.21674 -0.0764,0.36613 -0.11164,0.5351c-0.23679,0.06693 -0.45003,0.02128 -0.69072,-0.02656c0.03038,-0.21229 0.06079,-0.42468 0.07454,-0.62401z" fill="#c3dbdc"/><path d="M239.6975,165.50681c-0.09886,0.00646 -0.15358,0.00208 -0.2084,-0.00229c-0.12033,-0.02393 -0.25141,-0.06305 -0.39913,-0.08918c-0.03412,-0.3034 -0.1182,-0.56781 -0.05353,-0.87762c0.13798,-0.06058 0.24165,-0.02366 0.38351,0.03068c0.0948,0.27959 0.1945,0.60253 0.2776,0.93847z" fill="#c7dfe0"/><path d="M244.69069,169.67134c-0.08031,0.25129 -0.07255,0.48092 -0.20176,0.69967c-0.21429,0.02578 -0.34922,-0.12812 -0.53023,-0.12831c0.00989,-0.31419 0.09015,-0.56546 0.14894,-0.84709c0.26318,0.00672 0.38147,0.17369 0.58304,0.27566z" fill="#c7dee0"/><path d="M246.51939,172.25143c-0.07829,0.10822 -0.22701,0.15362 -0.28967,0.32042c0.17309,0.17134 0.37357,0.34487 0.49679,0.55511c-0.07735,0.03678 -0.17122,0.08651 -0.25927,0.10812c-0.13207,0.03237 -0.25242,0.00842 -0.32775,-0.09781c-0.14572,-0.16911 -0.28067,-0.32305 -0.42639,-0.49221c0.21626,-0.16884 0.3268,-0.23156 0.80625,-0.39368z" fill="#61acb1"/><path d="M245.15917,160.08802c-0.00888,0.24271 -0.02262,0.44197 -0.04816,0.69766c-0.23965,-0.11935 -0.46854,-0.22357 -0.69156,-0.35592c-0.00291,-0.18634 0.00502,-0.35752 0.05693,-0.53948c0.2632,0.00672 0.4539,0.09355 0.68282,0.19774z" fill="#c2dada"/><path d="M242.67501,170.65555c0.00888,-0.24271 0.07743,-0.43765 0.14111,-0.67595c0.21717,0.1605 0.41277,0.29072 0.60841,0.42089c0.0303,0.18855 -0.05391,0.32497 -0.13321,0.50473c-0.22499,0.01067 -0.39331,-0.11736 -0.61628,-0.24972z" fill="#c1d9d9"/><path d="M242.87353,161.16511c-0.25727,-0.0349 -0.44313,-0.07839 -0.64565,-0.1089c-0.05767,-0.19075 0.00012,-0.40088 0.0579,-0.611c0.20347,-0.04098 0.4011,-0.05382 0.6085,0.02002c0.07919,0.22108 -0.03345,0.42686 -0.02076,0.69988z" fill="#c6dedf"/><path d="M249.30234,166.99063c-0.01963,0.22747 -0.06667,0.45282 -0.09704,0.66511c-0.16043,0.10169 -0.3033,0.11891 -0.47844,0.0906c-0.07327,-0.24926 0.03444,-0.49829 0.03251,-0.75621c0.19279,-0.0562 0.35122,-0.01487 0.54298,0.00043z" fill="#c0d7d7"/><path d="M238.86082,166.51367c-0.17516,-0.02832 -0.33949,-0.0415 -0.50383,-0.05461c-0.12906,-0.18213 -0.15345,-0.39882 -0.10643,-0.6241c0.16536,-0.05833 0.30228,-0.04739 0.48816,-0.00393c0.05179,0.2189 0.16422,0.41398 0.12208,0.68265z" fill="#c3dadb"/><path d="M245.38284,171.55918c-0.06653,0.05195 -0.12234,0.11907 -0.18887,0.17105c0.02442,0.21674 0.20921,0.33168 0.31097,0.51161c-0.10569,0.10607 -0.23681,0.06697 -0.36397,0.14268c-0.20637,-0.14537 -0.2856,-0.3664 -0.54185,-0.47282c0.15559,-0.14501 0.28767,-0.17742 0.43643,-0.22282c0.10468,-0.03461 0.19966,-0.15583 0.34733,-0.12971z" fill="#5aa0a4"/><path d="M250.58207,163.32764c0.05179,0.2189 0.16424,0.41404 0.12798,0.6545c-0.13798,0.06058 -0.24754,0.05179 -0.41188,0.03868c-0.08506,-0.19292 -0.13684,-0.41179 -0.13385,-0.62632c0.13801,-0.06056 0.23681,-0.06698 0.41775,-0.0668z" fill="#bdd3d4"/><path d="M247.18639,169.65613c0.05192,-0.18198 0.0872,-0.35092 0.12245,-0.51994c0.20351,-0.04096 0.37865,-0.01267 0.56448,0.03078c0.03613,0.16035 -0.05875,0.28167 -0.17521,0.37256c-0.14971,0.11692 -0.29942,0.23378 -0.51173,0.11658z" fill="#bdd4d5"/><path d="M246.99647,160.09173c0.04588,0.24704 0.08106,0.47896 0.12696,0.72597c-0.39223,-0.18882 -0.67979,-0.41226 -0.52995,-0.92999c0.15356,-0.00201 0.25628,0.10641 0.40297,0.20405z" fill="#bbd2d3"/><path d="M245.39188,170.51484c-0.1761,0.04317 -0.3072,0.00404 -0.4383,-0.03508c-0.07529,-0.10623 -0.01361,-0.20156 0.00991,-0.31419c0.01763,-0.08447 0.0245,-0.18412 0.11357,-0.27722c0.1761,-0.04317 0.28367,0.10853 0.47055,0.08053c-0.00298,0.21452 -0.06562,0.3813 -0.15568,0.54591z" fill="#c3dadb"/><path d="M244.05727,164.76734c-0.16032,-0.29917 -0.32071,-0.59831 -0.4145,-0.94942c0.11058,-0.06273 0.181,0.00015 0.23477,0.07604c0.15646,0.18433 0.2963,0.38155 0.42539,0.5637c0.0968,0.13657 0.01854,0.24492 -0.24564,0.30964z" fill="#b1c6c7"/><path d="M250.27208,166.28077c-0.05282,-0.14735 0.01474,-0.27084 0.02752,-0.39867c0.00888,-0.24269 0.14783,-0.37473 0.4013,-0.45469c0.05076,0.29039 -0.05207,0.58284 -0.13234,0.83409c-0.1272,0.07572 -0.19864,0.08435 -0.29646,0.01928z" fill="#bbd2d3"/><path d="M246.1787,162.8754c-0.27094,-0.23639 -0.33734,-0.58532 -0.43118,-0.93644c0.25044,0.13454 0.41176,0.36223 0.57902,0.5617c0.11346,0.1236 0.08507,0.19293 -0.14785,0.37475z" fill="#bad1d2"/><path d="M249.74396,162.47321c0.20251,0.03052 0.38349,0.03067 0.586,0.06116c0.03712,0.08887 0.06255,0.2341 0.10458,0.3663c-0.35324,0.15788 -0.36399,0.1427 -0.48721,-0.06762c-0.07527,-0.10623 -0.13395,-0.22549 -0.2034,-0.35987z" fill="#b5cbcc"/><path d="M241.29663,160.58089c0.19861,-0.08431 0.35222,-0.08639 0.50583,-0.0884c0.04691,0.17556 -0.04319,0.34013 -0.09502,0.52209c-0.17023,0.01506 -0.32381,0.01701 -0.49402,0.03206c-0.0802,-0.14958 0.04801,-0.29679 0.08331,-0.46581z" fill="#c0d7d8"/><path d="M249.57894,164.46445c0.12133,-0.04753 0.24165,-0.02365 0.37277,0.01546c0.08991,0.23625 0.09183,0.49411 0.03891,0.74759c-0.10569,0.10607 -0.17123,0.08652 -0.25823,0.03662c-0.05669,-0.26221 -0.11334,-0.52448 -0.15336,-0.79968z" fill="#bdd4d4"/><path d="M245.176,159.67419c-0.19663,-0.05868 -0.38733,-0.1455 -0.58399,-0.20418c0.01278,-0.12785 0.07442,-0.22312 0.17421,-0.30105c0.1213,-0.04751 0.20836,0.00232 0.31206,0.03925c0.07629,0.03474 0.15256,0.06945 0.2289,0.10418c0.01464,0.13004 -0.00885,0.24269 -0.13122,0.36178z" fill="#b6cccc"/><path d="M241.6837,161.92899c-0.20251,-0.03052 -0.37759,-0.05884 -0.59675,-0.07638c-0.04793,-0.10402 -0.06256,-0.23408 0.0549,-0.3965c0.17023,-0.01507 0.35123,-0.01488 0.54882,-0.02774c0.01948,0.17335 0.04495,0.31856 -0.00701,0.50056z" fill="#c1d9d9"/><path d="M246.17483,159.62521c0.0195,0.17335 0.01753,0.31638 -0.04516,0.48316c-0.20251,-0.03052 -0.34337,-0.15637 -0.47931,-0.23877c-0.05279,-0.14736 0.02549,-0.25565 0.07641,-0.36613c0.06065,-0.02377 0.09393,-0.04974 0.1047,-0.0346c0.11442,0.05211 0.22886,0.10419 0.34335,0.15632z" fill="#b7cdce"/><path d="M247.9816,160.24213c-0.2514,-0.06306 -0.34824,-0.19962 -0.47834,-0.31024c-0.15749,-0.1128 -0.10074,-0.25146 -0.03806,-0.41825c0.20251,0.03052 0.33261,0.14116 0.4852,0.21061c0.07429,0.17773 -0.05978,0.35315 0.03113,0.5179z" fill="#b6cccc"/><path d="M250.77539,164.40257c0.0029,0.18633 0.00089,0.32933 0.00965,0.48752c-0.13896,0.13207 -0.23879,0.20997 -0.40898,0.22501c0.00298,-0.21454 -0.01061,-0.41604 -0.01351,-0.60236c0.11744,-0.16239 0.24851,-0.12328 0.35907,-0.18606c0.0215,0.03034 0.05969,0.04773 0.0538,0.07589z" fill="#c2dada"/><path d="M240.62523,161.52933c0.02537,0.14519 0.00776,0.22969 -0.05389,0.32497c-0.0891,0.09312 -0.19862,0.08433 -0.31407,0.10376c-0.09882,0.00644 -0.22599,0.08215 -0.31794,-0.01111c0.01863,-0.15598 0.06466,-0.30979 0.19289,-0.45703c0.18104,0.00015 0.32871,0.02628 0.4931,0.03943z" fill="#bbd2d3"/><path d="M243.65612,171.09187c0.06266,-0.16678 0.1028,-0.29243 0.15958,-0.43105c0.19178,0.01532 0.34431,0.08484 0.51359,0.14131c-0.00201,0.14296 -0.04214,0.26867 -0.15861,0.35951c-0.04401,0.01083 -0.08805,0.02155 -0.12623,0.00422c-0.10955,-0.00876 -0.2299,-0.03274 -0.3884,-0.07398z" fill="#bbd2d3"/><path d="M250.18227,162.10742c-0.31797,-0.01111 -0.31796,-0.0111 -0.58397,-0.20418c-0.0029,-0.18635 0.11946,-0.30545 0.23691,-0.46782c0.20055,0.17355 0.25717,0.43575 0.34711,0.672z" fill="#adc2c3"/><path d="M245.82526,170.50655c0.00201,-0.14296 0.0588,-0.28165 0.16448,-0.3877c0.19178,0.01532 0.35607,0.0284 0.53117,0.05678c-0.1752,0.37254 -0.19184,0.38556 -0.69567,0.33099z" fill="#b5cbcc"/><path d="M244.05576,159.77072c-0.00783,0.17117 -0.02066,0.29898 -0.0833,0.46577c-0.18684,0.02799 -0.33357,-0.06965 -0.51944,-0.11315c0.00102,-0.07149 0.01276,-0.12779 0.02448,-0.18414c0.01175,-0.05634 0.0509,-0.11047 0.07927,-0.17979c0.18197,-0.07136 0.32969,-0.0452 0.49895,0.01125z" fill="#bbd1d2"/><path d="M242.15245,171.15781c-0.24165,0.02361 -0.38736,-0.14552 -0.55661,-0.20195c-0.00875,-0.15818 0.09692,-0.26429 0.15376,-0.40296c0.23477,0.07599 0.3756,0.20184 0.44404,0.40775c0.03222,0.04554 -0.01275,0.12782 -0.04117,0.19713z" fill="#b6cccd"/><path d="M238.60895,164.51785c0.02341,0.28823 0.01939,0.57421 0.03203,0.84723c-0.12722,0.07572 -0.22597,0.08216 -0.36783,0.02787c0.04801,-0.29681 0.09606,-0.59361 0.22623,-0.88385c0.05479,0.00439 0.0822,0.00656 0.10954,0.00877z" fill="#acc1c2"/><path d="M244.80019,163.00857c0.18975,0.15836 0.36288,0.32966 0.46939,0.55294c0.03715,0.0889 0.0303,0.18855 -0.05286,0.25348c-0.03324,0.02593 -0.12133,0.04753 -0.13208,0.03235c-0.17799,-0.21465 -0.22289,-0.53317 -0.28446,-0.83877z" fill="#a7bbbb"/><path d="M243.13017,159.66814c0.03125,0.11705 -0.01964,0.2275 -0.08718,0.35093c-0.18104,-0.00015 -0.36198,-0.00032 -0.54297,-0.00046c-0.01948,-0.17336 0.06953,-0.26644 0.18598,-0.35734c0.13207,-0.03237 0.29641,-0.01925 0.44417,0.00688z" fill="#b7cdcd"/><path d="M248.52593,168.77539c-0.02439,-0.21674 0.0383,-0.38349 0.11755,-0.56327c0.16536,-0.05833 0.30821,-0.07558 0.47156,0.00907c-0.13508,0.24692 -0.34548,0.38754 -0.58912,0.55421z" fill="#b7cece"/><path d="M240.25274,170.51911c-0.24554,-0.0912 -0.31882,-0.34046 -0.50958,-0.42725c0.00201,-0.14295 0.07931,-0.17977 0.14486,-0.16024c0.16925,0.05647 0.33264,0.14113 0.44015,0.29291c0.01563,0.05855 0.02639,0.07372 -0.0754,0.29463z" fill="#b4cacb"/><path d="M239.34963,164.10462c-0.13205,0.03238 -0.21424,0.02582 -0.30134,-0.02407c0.00888,-0.24269 0.00701,-0.50055 0.15386,-0.80376c0.19951,0.24502 0.15733,0.51366 0.14751,0.82785z" fill="#b2c8c9"/><path d="M244.72265,170.91944c0.17023,-0.01507 0.29642,-0.01925 0.39424,0.04583c0.0264,0.07369 -0.01276,0.12784 -0.05193,0.18197c-0.15661,0.21654 -0.3151,0.17522 -0.5058,0.08839c0.06162,-0.0953 0.11254,-0.20577 0.16346,-0.31623z" fill="#b5cbcb"/><path d="M247.18576,161.8535c-0.15648,-0.18431 -0.27479,-0.35124 -0.35394,-0.57231c0.07243,-0.08008 0.13795,-0.06054 0.17021,-0.01503c0.09194,0.09326 0.20052,0.17352 0.29245,0.26677c0.08605,0.1214 0.04099,0.20372 -0.10871,0.32055z" fill="#91a3a3"/><path d="M240.64923,166.4849c0.24554,0.0912 0.36873,0.30149 0.4978,0.48364c0.02153,0.03038 0.00977,0.08669 -0.01277,0.12785c-0.03326,0.02594 -0.10469,0.03458 -0.11545,0.01941c-0.20052,-0.1735 -0.30708,-0.39676 -0.36965,-0.63086z" fill="#99abac"/><path d="M240.21647,167.62425c-0.07343,0.15162 -0.15662,0.21654 -0.24366,0.16662c-0.10856,-0.08028 -0.18286,-0.25801 -0.25618,-0.50723c0.22404,0.06085 0.34232,0.22777 0.49979,0.34059z" fill="#93a5a6"/><path d="M250.01045,167.33361c0.01478,-0.27084 0.00211,-0.54387 0.38762,-0.65627c-0.00403,0.28602 -0.22026,0.45484 -0.38762,0.65627z" fill="#9aadad"/><path d="M247.81971,164.75326c-0.13599,-0.08248 -0.28269,-0.18008 -0.40789,-0.24737c-0.00385,-0.11485 0.03526,-0.16897 0.14587,-0.2317c0.18003,0.07168 0.22105,0.27536 0.33448,0.39894c-0.03325,0.02595 -0.04991,0.03894 -0.07242,0.08011z" fill="#c5dddd"/><path d="M242.80494,164.89628c0.28955,0.08043 0.4294,0.27773 0.50272,0.52698c0.01077,0.01516 -0.01178,0.05636 -0.04504,0.08233c-0.03917,0.05411 -0.10466,0.03459 -0.12619,0.00422c-0.13498,-0.15392 -0.21413,-0.37507 -0.33149,-0.61352z" fill="#aec2c3"/><path d="M242.56427,171.11912c0.20251,0.03052 0.35997,0.1433 0.50672,0.24096c0.00389,0.11485 -0.07343,0.15164 -0.14974,0.11691c-0.14186,-0.05432 -0.27292,-0.09344 -0.40889,-0.1759c-0.05479,-0.00439 -0.03715,-0.08883 0.0519,-0.18194z" fill="#9caeaf"/><path d="M242.0227,160.03766c-0.18201,0.07133 -0.32483,0.08854 -0.50582,0.08838c0.17322,-0.22955 0.38849,-0.32684 0.58812,-0.48268c0.01563,0.05855 0.03716,0.0889 0.03127,0.11702c-0.03427,0.09748 -0.07929,0.17974 -0.11353,0.27723z" fill="#a9bebf"/><path d="M243.37147,167.91943c0.09496,-0.12126 0.1722,-0.158 0.27108,-0.16441c0.12418,0.13879 0.17109,0.31433 0.11233,0.59599c-0.16238,-0.1562 -0.25917,-0.29276 -0.3834,-0.43152z" fill="#b9cfd0"/><path d="M248.43362,163.21314c0.10468,-0.03456 0.15848,0.04128 0.36676,0.44453c-0.26417,0.0648 -0.33263,-0.1411 -0.47444,-0.19542c-0.00387,-0.11484 0.05197,-0.18195 0.10773,-0.24908z" fill="#869797"/><path d="M241.82822,165.70582c0.1222,0.28178 0.42254,0.3774 0.31872,0.74132c-0.22794,-0.1757 -0.34035,-0.37079 -0.31872,-0.74132z" fill="#93a4a5"/><path d="M247.52369,160.43455c0.16136,0.22763 0.26894,0.37942 0.37649,0.53116c0.02153,0.03038 0.00979,0.08672 -0.04015,0.12562c-0.01667,0.01301 -0.06068,0.02377 -0.08809,0.02163c-0.16239,-0.15611 -0.28075,-0.32309 -0.24831,-0.67838z" fill="#94a5a6"/><path d="M248.96316,162.61125c0.05684,-0.13861 0.09595,-0.19277 0.22213,-0.197c0.10269,0.10841 0.21615,0.23206 0.27381,0.42278c-0.24167,0.02361 -0.34916,-0.12817 -0.49592,-0.22575z" fill="#abbfc0"/><path d="M247.1435,159.38761c-0.06164,0.0953 -0.08419,0.13643 -0.11748,0.16245c-0.33359,-0.0696 -0.33354,-0.06964 -0.43424,-0.32106c0.2309,-0.0388 0.33846,0.11294 0.55168,0.15865z" fill="#acc0c1"/><path d="M249.71038,166.43629c0.01377,-0.19937 0.00011,-0.40087 0.03051,-0.61318c0.01763,-0.08447 0.08419,-0.13639 0.19861,-0.0843c-0.00888,0.24271 -0.02853,0.47016 -0.22915,0.69752z" fill="#9fb2b2"/><path d="M244.16543,159.37859c-0.12623,0.00422 -0.20837,-0.00236 -0.29542,-0.05226c-0.00979,-0.08669 0.01858,-0.15599 0.09103,-0.23612c0.11058,-0.06273 0.2309,-0.0388 0.35122,-0.01484c0.03125,0.11705 -0.05779,0.21011 -0.14683,0.30316z" fill="#aec2c3"/><path d="M245.89305,166.44604c-0.18679,0.02801 -0.26219,-0.07825 -0.35413,-0.17146c-0.03223,-0.04555 -0.00386,-0.11483 0.04606,-0.15377c0.03326,-0.02594 0.10471,-0.03462 0.12619,-0.00424c0.11442,0.05208 0.14572,0.16916 0.18185,0.32952z" fill="#91a2a3"/><path d="M240.76241,160.73861c-0.00013,0.40088 -0.00595,0.42903 -0.37284,0.38538c0.11158,-0.13422 0.17421,-0.30105 0.37284,-0.38538z" fill="#869696"/><path d="M239.27414,168.33632c-0.23578,-0.00454 -0.25039,-0.13455 -0.30909,-0.25378c0.20349,-0.04094 0.20351,-0.04096 0.30909,0.25378z" fill="#555f5f"/><path d="M246.61728,165.24409c0.0538,0.07587 0.12906,0.18208 0.15451,0.32729c-0.24653,-0.01973 -0.28954,-0.08042 -0.29832,-0.23859c-0.00487,-0.04333 0.04503,-0.08234 0.14385,-0.0887z" fill="#93a5a6"/><path d="M248.30836,160.01057c0.29543,0.05226 0.30034,0.09558 0.06639,0.34891c-0.10856,-0.08028 -0.09585,-0.20806 -0.06639,-0.34891z" fill="#8b9b9c"/><path d="M238.54831,168.07785c0.15748,0.11281 0.22688,0.24716 0.29629,0.38164c-0.06754,0.12344 -0.139,0.13204 -0.18198,0.07133c-0.08606,-0.12139 -0.15545,-0.25579 -0.11432,-0.45291z" fill="#9aacad"/><path d="M245.95295,159.02046c0.15355,-0.00201 0.28569,-0.03439 0.35515,0.10001c0.01076,0.01518 0.00489,0.04332 -0.01175,0.05633c-0.17125,0.08652 -0.26908,0.02142 -0.34336,-0.15633z" fill="#5f6a6b"/><path d="M244.69239,167.19471c-0.09292,-0.02175 -0.13598,-0.08247 -0.16233,-0.15617c-0.00488,-0.04333 0.00687,-0.09967 0.0509,-0.11046c0.04401,-0.01083 0.09884,-0.00643 0.12032,0.02397c0.04299,0.06071 0.06941,0.13437 -0.00889,0.24268z" fill="#636e6f"/><path d="M243.17931,159.29978c0.08418,-0.1364 0.17813,-0.18617 0.33071,-0.11669c-0.09006,0.16456 -0.18883,0.17102 -0.33071,0.11669z" fill="#4a5354"/></g><path d="M249.52217,181.9568c0,0 -3.80617,-2.14634 -4.31963,-4.84273c-0.44027,-2.31199 2.28815,-5.1488 3.45037,-6.02147c2.20859,-1.65827 4.47629,-3.1703 7.0375,-2.74837c0.88569,0.14593 2.55823,1.12275 3.47708,2.33841c0.63963,0.84621 2.45893,4.13563 3.13868,5.07247c2.55943,3.52737 4.55846,6.54277 2.19594,8.60742c-1.45366,1.27043 -5.4529,4.9715 -7.68747,4.37735c-2.36153,-0.62788 -7.29257,-6.78307 -7.29257,-6.78307z" data-paper-data="{&quot;index&quot;:null}" fill="#000000" stroke="#000000" stroke-width="1.2"/></g><g fill="#ff0000" fill-rule="nonzero" stroke="none" stroke-linecap="butt" stroke-linejoin="miter"><path d="M239.58378,213.17416c0.56323,1.32521 0.31424,3.03392 -0.55613,3.8165c-0.87036,0.78258 -2.03251,0.3427 -2.59574,-0.98251c-0.56323,-1.32521 -0.31425,-3.03393 0.55612,-3.81651c0.87036,-0.78258 2.03252,-0.3427 2.59575,0.98251z" stroke-width="none"/><path d="M243.8878,216.46779c0.51816,1.2192 0.31106,2.77148 -0.4626,3.46711c-0.77366,0.69562 -1.82089,0.2712 -2.33906,-0.948c-0.51816,-1.2192 -0.31106,-2.77148 0.4626,-3.46711c0.77366,-0.69562 1.82089,-0.2712 2.33905,0.948z" stroke-width="0"/><path d="M243.15527,223.0961c0.54069,1.27221 0.35186,2.86746 -0.4218,3.56308c-0.77366,0.69562 -1.83915,0.22822 -2.37985,-1.04399c-0.54069,-1.27221 -0.35186,-2.86746 0.4218,-3.56308c0.77366,-0.69562 1.83915,-0.22822 2.37984,1.04399z" stroke-width="0"/><path d="M240.32342,202.57033c-0.75531,0.25166 -1.58467,-0.59055 -1.85242,-1.88115c-0.26776,-1.2906 0.12747,-2.54085 0.88278,-2.7925c0.75531,-0.25166 1.58467,0.59056 1.85243,1.88116c0.26776,1.2906 -0.12748,2.54084 -0.88279,2.79249z" stroke-width="none"/><path d="M238.01582,206.67033c-0.69488,0.23152 -1.45114,-0.51076 -1.68915,-1.65796c-0.23801,-1.1472 0.13237,-2.26488 0.82725,-2.4964c0.69488,-0.23152 1.45114,0.51077 1.68915,1.65797c0.23801,1.1472 -0.13237,2.26487 -0.82725,2.4964z" stroke-width="0"/><path d="M240.98028,208.27351c-0.78552,0.26173 -1.60721,-0.41735 -1.8353,-1.51673c-0.22809,-1.09938 0.22379,-2.2028 1.00931,-2.46453c0.78552,-0.26173 1.60722,0.41736 1.8353,1.51674c0.22809,1.09938 -0.2238,2.20279 -1.00932,2.46452z" stroke-width="0"/><path d="M229.06806,215.03837c0.28266,1.48544 -0.31265,2.92898 -1.32968,3.22424c-1.01703,0.29527 -2.07064,-0.66957 -2.3533,-2.15501c-0.28266,-1.48544 0.31264,-2.92897 1.32967,-3.22423c1.01703,-0.29527 2.07065,0.66956 2.35331,2.155z" stroke-width="none"/><path d="M232.62889,220.13512c0.26005,1.3666 -0.26198,2.6872 -1.166,2.94966c-0.90403,0.26246 -1.84769,-0.63263 -2.10775,-1.99922c-0.26005,-1.3666 0.26198,-2.68721 1.16601,-2.94967c0.90403,-0.26246 1.84769,0.63263 2.10775,1.99923z" stroke-width="0"/><path d="M231.1893,205.52742c-0.79495,-0.13503 -1.43856,-1.30713 -1.43752,-2.61794c0.00103,-1.31081 0.64632,-2.26396 1.44127,-2.12892c0.79495,0.13503 1.43855,1.30713 1.43752,2.61794c-0.00103,1.31081 -0.64631,2.26395 -1.44126,2.12892z" stroke-width="none"/><path d="M225.48986,203.85594c-0.76316,-0.12963 -1.38106,-1.17928 -1.38015,-2.34445c0.00091,-1.16517 0.62031,-2.00464 1.38347,-1.875c0.76316,0.12963 1.38107,1.17928 1.38016,2.34445c-0.00091,1.16517 -0.62032,2.00463 -1.38348,1.875z" stroke-width="0"/><path d="M230.66669,211.06534c-0.82675,-0.14044 -1.49625,-1.15949 -1.49537,-2.27611c0.00088,-1.11662 0.6718,-1.90798 1.49855,-1.76753c0.82675,0.14044 1.49626,1.15949 1.49538,2.27611c-0.00088,1.11662 -0.67181,1.90797 -1.49856,1.76753z" stroke-width="0"/></g></g></g></svg>