<svg version="1.1" xmlns="http://www.w3.org/2000/svg" xmlns:xlink="http://www.w3.org/1999/xlink" width="75.84863" height="130.14325" viewBox="0,0,75.84863,130.14325"><defs><linearGradient x1="219.59518" y1="187.64706" x2="219.59518" y2="190.65342" gradientUnits="userSpaceOnUse" id="color-1"><stop offset="0" stop-color="#737373"/><stop offset="1" stop-color="#000000"/></linearGradient></defs><g transform="translate(-188.29341,-113.15662)"><g data-paper-data="{&quot;isPaintingLayer&quot;:true}" stroke-miterlimit="10" stroke-dasharray="" stroke-dashoffset="0" style="mix-blend-mode: normal"><g fill="none" fill-rule="nonzero" stroke="none" stroke-width="1" stroke-linecap="butt" stroke-linejoin="miter" font-family="sans-serif" font-weight="normal" font-size="12" text-anchor="start"><g><g data-paper-data="{&quot;index&quot;:null}"/></g><g data-paper-data="{&quot;index&quot;:null}"/><g data-paper-data="{&quot;index&quot;:null}"/></g><g fill="none" fill-rule="nonzero" stroke="none" stroke-width="1" stroke-linecap="butt" stroke-linejoin="miter" font-family="sans-serif" font-weight="normal" font-size="12" text-anchor="start"><g><g/><g><g/></g><g/></g><g/></g><path d="" fill="#2b1900" fill-rule="nonzero" stroke="#150c00" stroke-width="3" stroke-linecap="butt" stroke-linejoin="miter"/><path d="M229.95706,191.0286c0,2.58419 -2.86111,4.67909 -6.39049,4.67909c-1.88023,0 -5.24125,1.76529 -7.30817,0.49646c-1.81289,-1.1129 -2.48219,-5.22484 -2.28521,-5.92054c0.61447,-2.17013 6.85836,-3.13348 8.95159,-3.13348c3.52938,0 7.03228,1.29431 7.03228,3.87849z" fill="#ffffff" fill-rule="nonzero" stroke="#737373" stroke-width="1" stroke-linecap="butt" stroke-linejoin="miter"/><path d="M233.78747,203.6005l0.91731,-16.56448" fill="none" fill-rule="nonzero" stroke="#000000" stroke-width="6" stroke-linecap="round" stroke-linejoin="miter"/><path d="M215.74865,206.90522c0,0 4.984,-7.74873 5.62526,-8.67125c1.16113,-1.67041 13.46796,-10.35991 13.46796,-10.35991c0,0 5.34806,7.31073 7.19295,9.43269c1.74123,2.00272 6.27292,2.96204 6.27292,2.96204" fill="none" fill-rule="nonzero" stroke="#000000" stroke-width="6" stroke-linecap="round" stroke-linejoin="miter"/><g><g><g stroke="#262626" stroke-width="1.2"><path d="M242.2787,202.24514l2.71815,27.13197c0,0 6.56777,0.43068 6.41158,7.84401c-0.00891,0.42264 -0.10207,2.49768 -2.81532,3.10498c-2.59874,0.58165 -7.77915,-0.28727 -9.672,-0.61742c-0.87914,-0.15335 -2.21834,-0.82224 -3.07421,-1.96752c-0.8617,-1.15313 -0.76862,-2.83014 -0.76804,-3.77354c0.00024,-0.38425 -1.93371,-30.59702 -1.93371,-30.59702" fill="#ffffff" fill-rule="evenodd" stroke-linecap="round" stroke-linejoin="round"/><path d="M232.98288,209.48915c0.16007,-7.59746 5.13174,-7.72894 7.72207,-7.66015c1.12638,0.02991 0.97415,-2.00063 1.97096,3.94164c0.21952,1.30872 0.65094,6.68147 1.57347,11.25454c0.63172,3.13146 1.81664,5.89654 2.03802,6.69093c0.52304,1.87696 0.30788,3.58801 0.30788,3.58801l-0.94837,-1.24352c0,0 0.62493,0.86662 0.87519,1.38371c0.77966,1.61084 1.37605,2.82663 1.37605,2.82663c0,0 -6.6241,-0.48025 -9.20406,1.88942c-2.57996,2.36968 -1.30154,6.82988 -1.30154,6.82988c0,0 -4.90779,-0.84667 -5.30109,-3.8864c-0.09697,-0.74937 0.66423,-2.97939 0.66423,-2.97939c0,0 -0.56117,0.12614 -0.57935,-0.39273c-0.00927,-0.2645 0.74266,-4.18831 0.90973,-8.60237c0.21993,-5.81078 -0.12628,-12.54552 -0.10322,-13.64019z" fill="#000000" fill-rule="nonzero" stroke-linecap="butt" stroke-linejoin="miter"/></g><path d="M224.56214,204.09555c-0.00916,-0.22301 1.11472,0.4345 3.66136,0.51049c3.35968,0.10026 8.50493,-0.34827 9.95174,-0.57777c3.75182,-0.59511 4.38672,-2.1791 4.41101,-1.58791c0.08988,2.18771 -2.03226,6.2401 -6.32432,6.46238c-1.88615,0.09768 -5.74402,0.83027 -7.92866,0.06005c-2.78662,-0.98246 -3.72072,-3.64096 -3.77112,-4.86726z" fill="#004fd9" fill-rule="nonzero" stroke="#001026" stroke-width="1.2" stroke-linecap="butt" stroke-linejoin="miter"/><g fill-rule="nonzero" stroke-linecap="butt" stroke-linejoin="miter"><g fill="none" stroke="none" stroke-width="1" font-family="sans-serif" font-weight="normal" font-size="12" text-anchor="start"/><path d="M224.10942,202.67271c0,0 8.0618,1.37719 11.76644,1.35798c3.70463,-0.0192 6.75675,-1.454 6.75675,-1.454c0,0 0.02916,2.14144 -1.62297,4.22558c-1.27886,1.61325 -3.73667,3.28448 -6.91344,3.31992c-2.89413,0.0323 -6.12296,-0.65029 -7.72121,-2.05096c-2.42248,-2.12301 -2.26555,-5.39855 -2.26555,-5.39855z" fill="#000000" stroke="#262626" stroke-width="1.2"/></g><g stroke-width="1.2"><path d="M233.01545,208.10039c0,0 -3.14655,31.56262 -3.72073,31.6668c-1.64776,0.29896 -10.67757,-2.37807 -10.67757,-2.37807l5.80434,-31.7333" data-paper-data="{&quot;index&quot;:null}" fill="#ffab19" fill-rule="evenodd" stroke="#001026" stroke-linecap="round" stroke-linejoin="round"/><path d="M234.40607,207.59152c0,0 -0.73505,6.67431 -0.95215,10.21318c-0.20823,3.39431 -0.32497,10.60449 -0.32497,10.60449c0,0 0.88268,5.23911 0.01971,6.53107c-0.3997,0.59839 -0.71465,-2.9579 -0.71465,-2.9579c0,0 0.35159,4.00919 0.38622,4.36256c0.24154,2.46557 -0.86081,5.70334 -3.7495,6.01095c-3.17159,0.33772 -8.42962,0.71917 -11.14018,-1.23148c-1.1533,-0.82997 -2.7155,-3.27314 -2.29505,-5.87575c0.47416,-2.93508 3.02052,-6.00991 3.02052,-6.00991l-2.33979,3.35172c0,0 -0.02439,-1.67357 0.35632,-2.90122c0.42755,-1.37865 2.08481,-4.97034 2.08481,-4.97034l5.02388,-20.21341" data-paper-data="{&quot;index&quot;:null}" fill="#000000" fill-rule="evenodd" stroke="#262626" stroke-linecap="round" stroke-linejoin="round"/><path d="M231.4682,237.79937c-0.0795,1.77223 -0.72802,3.83129 -2.13564,4.9005c-1.41285,1.07316 -9.90409,0.64788 -11.21678,-0.66368c-1.24662,-1.24555 -1.75444,-3.54768 -1.67684,-5.27734c0.1593,-3.55101 3.65284,-6.19677 7.80307,-5.90943c4.15021,0.28733 7.3855,3.39894 7.22618,6.94997z" fill="#ffffff" fill-rule="nonzero" stroke="#262626" stroke-linecap="butt" stroke-linejoin="miter"/></g></g><g fill="none" fill-rule="nonzero" stroke="none" stroke-width="1" stroke-linecap="butt" stroke-linejoin="miter" font-family="sans-serif" font-weight="normal" font-size="12" text-anchor="start"/></g><g fill-rule="nonzero" stroke-linecap="butt" stroke-linejoin="miter"><g data-paper-data="{&quot;index&quot;:null}" stroke="none" stroke-width="1"><path d="M253.02544,187.66877c-0.18083,-0.08824 -0.207,-0.24022 -0.20945,-0.42465c0.01689,-0.29134 0.0857,-0.57321 0.11997,-0.86137c-0.04229,-0.06292 -0.08457,-0.12586 -0.13006,-0.17095c-0.92548,-1.01544 -1.30814,-2.26297 -1.49507,-3.60358c-0.03828,-0.28299 -0.09388,-0.56921 -0.04234,-0.8542c0.00969,-0.05344 0.00524,-0.12785 -0.02299,-0.16982c-0.15507,-0.23073 -0.11321,-0.46231 -0.08543,-0.71486c0.02131,-0.21691 0.07728,-0.42752 0.11593,-0.64127c0.02255,-0.12468 0.07972,-0.24307 0.19972,-0.31319c0.12,-0.07008 0.19771,-0.20312 0.27217,-0.31832c0.36036,-0.70705 0.83226,-1.33854 1.39838,-1.89761c0.32415,-0.30883 0.68734,-0.53695 1.06786,-0.76187c1.12104,-0.66018 2.33352,-0.93565 3.6016,-0.92496c0.57022,0.01212 1.14164,0.11644 1.70018,0.29201c0.42322,0.13248 0.7893,0.38335 1.13483,0.64883c1.09944,0.8448 1.80545,1.98574 2.2066,3.32868c0.07933,0.25371 0.10032,0.53352 0.12128,0.81338c0.01976,0.18761 0.06005,0.36059 0.21386,0.4991c0.13972,0.11754 0.18002,0.29048 0.18246,0.47492c-0.01689,0.29134 -0.06843,0.57635 -0.11997,0.86136c-0.0161,0.08909 -0.06361,0.15403 -0.11115,0.21894c-0.20091,0.22093 -0.30118,0.47864 -0.36999,0.76052c-0.12679,0.60251 -0.42032,1.13774 -0.69655,1.67614c-0.10792,0.20112 -0.23312,0.39906 -0.38973,0.5729c-0.49686,0.57172 -1.00463,1.10468 -1.64889,1.50229c-0.0483,0.26719 -0.11715,0.54904 -0.16864,0.83406c-0.01932,0.1069 -0.04187,0.23157 -0.15865,0.28384c-0.09945,0.05543 -0.10148,0.1655 -0.12078,0.27236c-0.1461,0.70937 -0.27493,1.42189 -0.42104,2.13126c-0.30393,1.58223 -0.61102,3.18226 -0.94957,4.75816c-0.33211,1.54027 -0.61222,3.09003 -0.90971,4.63663c-0.04507,0.24939 -0.12159,0.47463 -0.16664,0.724c-0.21896,1.2113 -0.43795,2.42262 -0.67422,3.63076c-0.03864,0.21374 -0.04267,0.43383 -0.18199,0.61079c-0.04752,0.06496 -0.04631,0.15714 -0.06242,0.24621c-0.16098,0.89069 -0.34254,1.796 -0.50355,2.68667c-0.00644,0.03562 -0.01612,0.08906 -0.02255,0.12468c-0.03419,0.28819 -0.18118,0.40856 -0.44615,0.48899c-0.8879,0.26112 -1.75569,0.2131 -2.6034,-0.14405c-0.21544,-0.09455 -0.42443,-0.22471 -0.6097,-0.38732c-0.13973,-0.11754 -0.18325,-0.27267 -0.16838,-0.45395c0.04468,-0.54389 0.072,-1.09092 0.11989,-1.65264c0.03621,-0.39824 0.11028,-0.80794 0.09453,-1.21564c-0.0359,-0.8898 0.13919,-1.75952 0.1552,-2.63982c0.01765,-0.4936 -0.00251,-0.97574 0.03248,-1.4662c0.04143,-0.52606 0.04503,-1.04066 0.0659,-1.55204c0.04303,-0.93062 0.12389,-1.87272 0.14958,-2.80648c0.00797,-1.2314 0.08517,-2.45024 0.16239,-3.669c0.02212,-0.41922 0.0442,-0.83835 0.06633,-1.25757c0.04663,-0.65395 0.09654,-1.32564 0.14321,-1.97956c0.02976,-0.3626 0.0217,-0.71371 0.05143,-1.07628c0.01568,-0.38361 0.07685,-0.722 0.11307,-1.12026zM253.5034,187.49842c0.18847,0.14483 0.38338,0.25403 0.60524,0.31296c0.42124,0.24251 0.88232,0.3635 1.34342,0.48447c0.57909,0.16092 1.18835,0.25376 1.78033,0.34342c0.67854,0.10548 1.33734,0.02335 2.0167,-0.07343c0.07571,-0.02298 0.1514,-0.04596 0.26495,-0.08044c0.02578,-0.14249 0.05149,-0.28501 0.07726,-0.4275c0.00644,-0.03562 -0.00443,-0.07442 -0.01209,-0.131c-0.1212,-0.02215 -0.24564,-0.02645 -0.3733,-0.01297c-0.21746,0.01552 -0.41114,-0.00149 -0.62858,0.01401c-0.53879,0.01203 -1.06596,-0.13938 -1.59509,-0.18078c-0.28028,-0.03274 -0.56697,-0.02994 -0.84081,-0.09832c-0.59641,-0.16408 -1.2089,-0.23911 -1.79238,-0.47445c-0.14941,-0.06409 -0.31612,-0.13129 -0.46554,-0.19541c-0.04994,-0.11955 -0.19492,-0.10917 -0.27507,-0.16064c-0.09422,-0.07241 -0.18849,-0.14483 -0.38215,-0.16176c0.07933,0.25371 -0.01446,0.4758 0.01614,0.70219c0.08336,0.03364 0.1333,0.15313 0.26097,0.13964zM254.08653,188.23053c-0.36929,-0.23306 -0.46995,-0.26981 -0.70151,-0.2753c-0.02131,0.21691 -0.03941,0.41605 -0.06075,0.63296c-0.02255,0.12468 0.03059,0.22641 0.12486,0.29883c0.06285,0.04829 0.1494,0.06407 0.21223,0.11235c0.2372,0.17215 0.52193,0.2793 0.80218,0.31207c0.10514,0.11117 0.24361,0.1365 0.38217,0.16179c0.77598,0.16008 1.53148,0.33479 2.32357,0.40583c0.35277,0.02761 0.70877,0.03742 1.05062,0.02621c0.27266,-0.02383 0.56257,-0.04449 0.809,-0.22033c0.04186,-0.23159 0.08368,-0.46315 0.12557,-0.69474c-0.14495,0.01032 -0.27265,0.02381 -0.38293,0.04047c-0.5106,0.05395 -1.01477,0.07234 -1.50607,0.01944c-0.63302,-0.06038 -1.24997,-0.20983 -1.87012,-0.34144c-0.2944,-0.05374 -0.55213,-0.21119 -0.8497,-0.24713c-0.1333,-0.15313 -0.30324,-0.20257 -0.45907,-0.23104zM252.64974,208.44873c0.2231,0.15115 0.46228,0.21323 0.70792,0.23967c0.01408,0.02096 0.04552,0.04511 0.06285,0.04827c0.4188,0.05807 0.84405,0.08051 1.25398,-0.01026c0.24125,-0.04796 0.4792,-0.07811 0.68775,-0.24246c0.18033,-0.99756 0.36061,-1.99507 0.55066,-3.04609c-0.45099,0.12005 -0.88273,0.13329 -1.31113,0.12864c-0.37654,0.00486 -0.71318,-0.11182 -1.08325,-0.14258c-0.13852,-0.02528 -0.25653,-0.06521 -0.39506,-0.09049c-0.19166,-0.12701 -0.40714,-0.22155 -0.66364,-0.28678c-0.0966,0.53441 -0.04822,1.05848 -0.10376,1.56358c-0.04143,0.52607 -0.06555,1.05533 -0.10375,1.56356c0.13329,0.15313 0.26538,0.21409 0.39749,0.27497zM252.86408,204.78925c0.10515,0.11116 0.24043,0.15431 0.37894,0.17957c0.12564,0.09658 0.28474,0.10721 0.43733,0.15347c0.48165,0.10632 0.97937,0.1236 1.4662,0.10209c0.28992,-0.02067 0.58631,-0.077 0.86092,-0.21086c0.0129,-0.07126 0.04307,-0.13933 0.05593,-0.2106c0.15782,-0.87289 0.31237,-1.72787 0.48745,-2.59757c0.18475,-0.92312 0.36629,-1.82845 0.55106,-2.75158c0.26203,-1.35067 0.53821,-2.68031 0.80022,-4.03099c0.30835,-1.50781 0.5615,-3.0073 0.90449,-4.50877c0.06241,-0.24621 0.09334,-0.51658 0.14168,-0.7838c-0.20334,0.03649 -0.3958,0.11175 -0.59272,0.11259c-0.63504,0.04968 -1.26807,-0.01071 -1.89466,-0.10668c-0.55408,-0.10117 -1.10499,-0.22015 -1.6559,-0.33916c-0.21868,-0.07673 -0.42323,-0.13248 -0.64191,-0.20921c-0.11919,-0.13218 -0.28149,-0.125 -0.41359,-0.18591c-0.14941,-0.06409 -0.27505,-0.16063 -0.45144,-0.17443c-0.06684,0.17182 -0.05796,0.32066 -0.06319,0.44848c0.00049,1.08579 -0.14077,2.16406 -0.19223,3.24033c-0.03577,0.69274 -0.07159,1.38545 -0.09001,2.08131c-0.04303,0.93062 -0.06549,1.84655 -0.10528,2.75935c-0.0281,0.7493 -0.05625,1.49863 -0.10171,2.24478c-0.03781,0.80277 -0.0897,1.58452 -0.14479,2.38414c-0.04222,0.72834 -0.08764,1.47449 -0.11578,2.2238c0.1526,0.04625 0.2372,0.17211 0.37894,0.17959zM262.96246,181.97533c-0.4099,0.09076 -0.78647,0.09563 -1.16618,0.11831c-0.39706,0.01952 -0.78,0.06003 -1.17382,0.06172c-0.37654,0.00485 -0.76395,-0.02908 -1.13722,-0.04206c-0.39064,-0.01612 -0.78123,-0.03222 -1.18592,-0.0693c-0.37006,-0.03078 -0.75424,-0.08253 -1.12433,-0.1133c-0.38416,-0.05175 -0.75547,-0.17473 -1.15253,-0.15521c-0.34429,-0.17324 -0.73813,-0.17156 -1.09857,-0.25574c-0.37448,-0.1052 -0.7728,-0.17789 -1.1473,-0.28307c-0.35717,-0.10203 -0.72848,-0.22504 -1.08244,-0.34486c-0.3713,-0.12302 -0.71238,-0.31412 -1.09331,-0.38363c-0.11192,0.4212 -0.13446,0.54587 -0.05389,0.89181c0.19166,0.12701 0.38339,0.25403 0.61613,0.3517c0.28472,0.10719 0.56941,0.21438 0.86822,0.34255c0.5662,0.2322 1.11832,0.44338 1.72437,0.55404c0.41559,0.07588 0.83441,0.13392 1.23711,0.28108c0.08336,0.03364 0.18726,0.05258 0.29756,0.03592c0.21745,-0.01553 0.43934,0.04343 0.64713,0.08133c0.76191,0.13912 1.54312,0.17134 2.31027,0.18257c1.01279,0.0377 2.01346,-0.05561 3.02379,-0.20241c0.20012,-0.01868 0.40026,-0.03733 0.56773,-0.17237c0.08295,-0.26088 0.11393,-0.53126 0.12318,-0.87915zM256.35005,178.57835c-0.18037,0.20629 -0.29152,0.42522 -0.41995,0.64098c-0.12201,0.18013 -0.17796,0.39074 -0.14733,0.61714c0.02984,0.42867 0.00451,0.86569 -0.09011,1.29004c-0.00644,0.03562 0.00119,0.09223 -0.00203,0.11003c0.07691,0.06922 0.14618,0.08185 0.24244,0.04426c0.02053,-0.01463 0.04429,-0.04712 0.04752,-0.06495c0.14534,-0.50711 0.32529,-1.00786 0.5399,-1.50234c0.03021,-0.06808 0.06683,-0.17181 0.04506,-0.24939c-0.01773,-0.29767 -0.03549,-0.5953 -0.21552,-0.88581zM254.82485,181.07843c0.13888,-0.47147 0.3092,-0.91879 0.49361,-1.34516c0.06036,-0.13617 0.06562,-0.26404 0.03941,-0.41603c-0.04795,-0.22954 -0.13696,-0.42983 -0.22273,-0.64792c-0.02175,-0.07759 -0.04027,-0.17294 -0.15062,-0.1563c-0.14133,0.28702 -0.29674,0.55309 -0.40344,0.8464c0.15914,0.80191 0.15912,0.80189 0.02188,1.66008c0.04227,0.06293 0.10835,0.09337 0.22189,0.05892zM258.76573,183.61966c-0.12723,0.308 -0.23714,0.61919 -0.34706,0.93034c-0.03021,0.06809 -0.06039,0.13618 -0.05596,0.21058c0.06967,0.30713 0.12209,0.61112 0.288,0.88065c0.24644,-0.17581 0.34666,-0.43353 0.49566,-0.66397c0.07449,-0.11518 0.07648,-0.22525 0.04708,-0.35942c-0.087,-0.3103 -0.13938,-0.61431 -0.17118,-0.93289c0.00323,-0.01782 -0.02816,-0.04196 -0.05636,-0.08388c-0.05517,0.00832 -0.12769,0.0135 -0.20014,0.01867zM259.82279,179.15717c-0.27664,0.24391 -0.42884,0.49215 -0.59833,0.73722c-0.05396,0.10056 -0.05273,0.19277 -0.05151,0.285c0.02664,0.44649 0.00124,0.88352 -0.09655,1.32569c-0.00967,0.05344 -0.00203,0.11003 -0.01166,0.16346c0.18726,0.0526 0.22511,0.04112 0.25086,-0.1014c0.08372,-0.46319 0.25082,-0.89269 0.49803,-1.27077c0.14898,-0.23042 0.17031,-0.44735 0.1256,-0.69474c-0.04672,-0.13736 -0.07933,-0.25373 -0.1164,-0.4445zM256.86488,181.4693c0.08657,0.01579 0.11677,-0.05234 0.12966,-0.12358c0.09017,-0.49876 0.31562,-0.95443 0.54111,-1.41012c0.17472,-0.37292 0.17953,-0.79528 -0.00937,-1.23458c-0.15018,0.13819 -0.19971,0.31318 -0.31527,0.45768c-0.23434,0.30684 -0.29552,0.64528 -0.29067,1.01421c-0.00157,0.40453 0.01415,0.81226 -0.0913,1.19782c0.00768,0.05658 0.02174,0.07761 0.03585,0.09857zM258.60754,178.95369c-0.14255,0.19478 -0.2549,0.32148 -0.3499,0.45134c-0.16305,0.20947 -0.21903,0.42006 -0.19485,0.68207c0.04271,0.35742 0.01295,0.72002 -0.03412,1.07942c-0.00524,0.12787 -0.03099,0.27037 -0.05353,0.39504c0.08336,0.03364 0.11031,-0.01663 0.11677,-0.05228c0.17994,-0.5008 0.37722,-0.99838 0.64058,-1.46556c0.03341,-0.0859 0.06359,-0.154 0.06239,-0.24621c-0.04149,-0.2652 -0.06567,-0.52723 -0.18731,-0.84384zM259.88882,183.64072c0.00809,0.35111 -0.10184,0.66224 -0.19444,0.97659c-0.01609,0.08907 -0.08093,0.15084 -0.0624,0.24621c0.0262,0.15202 0.18247,0.47495 0.34396,0.67007c0.15344,-0.15601 0.22668,-0.36344 0.3314,-0.54676c0.08093,-0.15085 0.08938,-0.2965 0.02856,-0.45481c-0.09342,-0.27466 -0.15225,-0.54304 -0.15268,-0.83755c0.00324,-0.01782 -0.02499,-0.05975 -0.03906,-0.08072c-0.06606,-0.03046 -0.13531,-0.04313 -0.25531,0.02701zM253.75431,183.73515c0.05882,0.26833 -0.01326,0.56803 0.10073,0.82806c0.12442,0.00433 0.19249,-0.07525 0.27463,-0.13387c0.14698,-0.1204 0.3048,-0.20195 0.42681,-0.38209c-0.04591,-0.33961 0.05309,-0.68956 0.02769,-1.04381c-0.07691,-0.06922 -0.16348,-0.08506 -0.25652,-0.06522c-0.15864,0.28388 -0.34869,0.5436 -0.57337,0.79699zM256.6762,183.40379c-0.06684,0.17182 -0.13367,0.34361 -0.24279,0.45248c-0.26253,0.26486 -0.29994,0.57089 -0.21615,0.89899c0.0326,0.11635 0.01328,0.22324 0.09786,0.34912c0.20538,-0.14655 0.36202,-0.32034 0.51861,-0.49419c0.0443,-0.04712 0.05715,-0.11837 0.05595,-0.21058c-0.02098,-0.27987 -0.02784,-0.53872 -0.04879,-0.81855c0.00969,-0.05344 -0.0121,-0.13102 -0.16474,-0.17729zM255.58528,183.20463c-0.1401,0.37925 -0.30842,0.71653 -0.58504,0.96046c-0.0616,0.04396 -0.05716,0.11837 -0.07004,0.18962c-0.01166,0.16349 -0.00602,0.33015 0.0689,0.5094c0.28752,-0.20513 0.48844,-0.4261 0.69258,-0.66483c0.06804,-0.07958 0.10148,-0.16547 0.10347,-0.27553c0.00084,-0.20227 0.01889,-0.4014 0.01968,-0.60366c0.00324,-0.01782 -0.02498,-0.05979 -0.03906,-0.08074c-0.05195,-0.00949 -0.10391,-0.01898 -0.19046,-0.03475zM260.98105,180.27032c-0.03708,-0.19077 -0.07088,-0.39938 -0.10794,-0.59018c-0.01408,-0.02096 -0.0282,-0.04197 -0.05637,-0.08389c-0.21947,0.12553 -0.36202,0.32034 -0.4667,0.50362c0.0214,0.57436 0.04922,1.11305 -0.06027,1.71872c0.29395,-0.24075 0.22423,-0.5479 0.31804,-0.76997c0.10347,-0.27553 0.23833,-0.52691 0.37321,-0.7783zM256.18486,178.10656c-0.13451,-0.24537 -0.23443,-0.48443 -0.45429,-0.65337c-0.09181,0.11202 -0.19449,0.1853 -0.26574,0.28274c-0.07125,0.09741 -0.15983,0.19161 -0.18236,0.31633c0.02299,0.16978 0.12486,0.29881 0.18891,0.4393c0.06406,0.14047 0.09022,0.2925 0.21264,0.40685c0.17272,-0.26291 0.32494,-0.5111 0.50089,-0.79181zM253.71018,180.91173c0.16585,-0.52174 0.29828,-0.95763 0.43075,-1.39343c0.00644,-0.03562 0.03345,-0.08591 0.00524,-0.12785c-0.08579,-0.21807 -0.13052,-0.46545 -0.33306,-0.63124c-0.11436,0.23674 -0.22548,0.45569 -0.31928,0.67779c0.15104,0.45083 0.19176,0.91825 0.21636,1.47479zM257.45475,185.33087c0.17839,-0.09625 0.24521,-0.26805 0.34025,-0.3979c0.11557,-0.14451 0.17918,-0.2985 0.14532,-0.50708c-0.03827,-0.28299 -0.07655,-0.56602 0.00959,-0.84474c-0.11479,-0.05776 -0.18726,-0.0526 -0.20658,0.05429c-0.0656,0.26403 -0.13447,0.54588 -0.28021,0.75849c-0.19971,0.31318 -0.1095,0.6057 -0.00837,0.93697zM255.81135,184.62598c-0.27985,0.26172 -0.51217,0.45854 -0.72719,0.65846c-0.02255,0.12468 0.01652,0.20545 0.03828,0.28298c0.03906,0.08074 0.05438,0.19389 0.16913,0.25168c0.21627,-0.10774 0.42158,-0.25424 0.61287,-0.42171c-0.01009,-0.24103 -0.04071,-0.46745 -0.09308,-0.77145zM258.37212,185.99518c-0.10753,-0.29564 -0.20422,-0.55251 -0.29763,-0.82718c-0.16307,0.20946 -0.32293,0.40111 -0.48278,0.59271c0.07933,0.25371 0.12727,0.48328 0.3061,0.68149c0.18482,-0.13185 0.32091,-0.29104 0.47433,-0.44703zM257.11909,177.68825c-0.22711,0.06892 -0.32092,0.29104 -0.45702,0.45019c-0.0443,0.04712 -0.04309,0.13932 -0.0181,0.19911c0.07169,0.19713 0.12928,0.37324 0.20417,0.55253c-0.00323,0.01782 0.03144,0.02413 0.06606,0.03047c0.16632,-0.22725 0.31845,-0.47549 0.48477,-0.70274c-0.05437,-0.19392 -0.16713,-0.36173 -0.27992,-0.52952zM259.66862,178.72419c-0.03386,-0.20858 -0.07089,-0.39936 -0.23882,-0.55885c-0.16751,0.13506 -0.36965,0.26375 -0.49489,0.4617c0.02939,0.13418 0.02419,0.26203 0.07413,0.38154c0.03259,0.11635 -0.01048,0.25571 0.13573,0.3376c0.18039,-0.20627 0.36076,-0.41256 0.52387,-0.62203zM258.87297,185.99464c0.04029,0.17295 0.18003,0.29048 0.31654,0.42581c0.1772,-0.18844 0.3793,-0.31719 0.49367,-0.5539c-0.11277,-0.16782 -0.16393,-0.37954 -0.32864,-0.55683c-0.16632,0.22725 -0.3153,0.45767 -0.48156,0.68493zM261.01392,183.55174c-0.07528,0.31748 -0.08448,0.66542 -0.19444,0.9766c-0.08293,0.26088 0.01256,0.42549 0.19456,0.60595c0.15661,-0.1738 0.22668,-0.36344 0.31725,-0.56771c-0.17359,-0.32608 -0.19901,-0.68038 -0.31741,-1.0148zM252.78558,180.48529c0.07249,-0.00515 0.08212,-0.0586 0.09181,-0.11202c0.05918,-0.22839 0.10426,-0.4778 0.18076,-0.70306c0.13043,-0.32581 -0.01053,-0.53556 -0.20022,-0.77261c-0.05718,0.1184 -0.10788,0.20111 -0.14131,0.28701c-0.09057,0.20428 -0.14332,0.39704 -0.02291,0.62147c0.06405,0.14047 0.06967,0.30716 0.07859,0.45599c-0.03021,0.06809 -0.08092,0.15083 0.01329,0.22323zM252.88053,184.01727c0.09945,-0.05543 0.1643,-0.11722 0.22589,-0.16116c0.19891,-0.11088 0.27986,-0.26173 0.28386,-0.48181c-0.00241,-0.18444 0.05033,-0.37725 0.0652,-0.55853c0.00969,-0.05345 0.03664,-0.10372 -0.08136,-0.14368c-0.13169,0.23357 -0.29796,0.46086 -0.49567,0.66397c-0.0443,0.04712 -0.06037,0.13615 -0.07328,0.20741c0.00886,0.1488 0.02095,0.27988 0.07534,0.47378zM257.12734,185.6575c-0.03706,-0.19077 -0.05359,-0.39618 -0.14585,-0.57867c-0.20858,0.16435 -0.42803,0.28987 -0.59111,0.49931c0.07171,0.19711 0.09144,0.3847 0.26259,0.52639c0.16753,-0.13505 0.34914,-0.24907 0.47433,-0.44705zM258.01473,179.06627c0.20856,-0.16435 0.3511,-0.35915 0.45898,-0.56025c-0.07169,-0.19711 -0.1293,-0.37321 -0.25617,-0.562c-0.15787,0.0816 -0.27019,0.20831 -0.36843,0.35598c0.06203,0.25052 0.10677,0.49792 0.16555,0.76628zM255.43812,186.19554c0.08137,0.14369 0.11719,0.24221 0.19091,0.32925c0.04229,0.06292 0.08779,0.10804 0.13332,0.15315c0.18925,-0.05744 0.36765,-0.15369 0.50375,-0.31286c-0.05437,-0.19392 -0.10876,-0.38785 -0.25941,-0.54418c-0.18482,0.13185 -0.36321,0.22811 -0.56856,0.37461zM252.62065,182.38731c-0.22912,0.179 -0.39338,0.29618 -0.58145,0.44586c-0.03021,0.06808 -0.03544,0.19591 -0.0028,0.3123c0.01531,0.11318 -0.04186,0.23156 0.04594,0.33961c0.16551,-0.025 0.2855,-0.09509 0.39464,-0.20397c0.0342,-0.28819 0.08254,-0.55538 0.14371,-0.89382zM256.01368,177.17359c0.07051,0.1049 0.14098,0.20978 0.21142,0.31465c0.07052,0.1049 0.1442,0.19191 0.21466,0.2968c0.15663,-0.17379 0.30361,-0.29419 0.37367,-0.4838c-0.03262,-0.11635 -0.13007,-0.17095 -0.20698,-0.24022c-0.07691,-0.06922 -0.1442,-0.19191 -0.2686,-0.19625c-0.12646,0.10575 -0.24643,0.17581 -0.32415,0.30886zM257.54868,186.69131c-0.10633,-0.20341 -0.15426,-0.43303 -0.33634,-0.61346c-0.14696,0.1204 -0.27663,0.24391 -0.42361,0.36429c0.10632,0.20341 0.18122,0.38273 0.37294,0.50971c0.13731,-0.06694 0.2682,-0.09824 0.38698,-0.26057zM254.36721,178.86038c0.16188,-0.30165 0.29996,-0.57085 0.43804,-0.84004c-0.04994,-0.11955 -0.08255,-0.23592 -0.19733,-0.29365c-0.22591,0.16118 -0.35756,0.39473 -0.50652,0.62515c0.04995,0.11955 0.09987,0.23906 0.17034,0.34394c0.00442,0.07443 0.03584,0.09854 0.09543,0.16462zM254.63395,185.20226c-0.0685,-0.21493 -0.02985,-0.4287 -0.14261,-0.59649c-0.22267,0.14336 -0.4248,0.27207 -0.60201,0.46056c0.0987,0.14684 0.06645,0.32495 0.22031,0.46346c0.18923,-0.05745 0.32215,-0.19882 0.52431,-0.3275zM260.50892,178.528c-0.14053,0.08475 -0.26695,0.19049 -0.362,0.32036c0.06528,0.23274 0.11319,0.46229 0.17202,0.73063c0.13929,-0.17695 0.26897,-0.30052 0.43972,-0.45334c-0.06526,-0.23275 -0.11641,-0.4445 -0.24973,-0.59766zM252.89626,184.42498c0.02739,0.24423 0.04394,0.44965 0.19133,0.62378c0.15461,-0.06379 0.28872,-0.11287 0.38376,-0.24274c-0.03062,-0.2264 -0.04394,-0.44961 -0.08543,-0.71482c-0.17839,0.09625 -0.33945,0.19566 -0.48964,0.33384zM258.812,178.21819c0.15984,-0.19162 0.36966,-0.26377 0.43972,-0.45339c-0.07169,-0.19711 -0.1909,-0.32927 -0.33066,-0.4468c-0.16107,0.09942 -0.31893,0.18099 -0.40631,0.36743c0.09544,0.16463 0.17361,0.32609 0.29724,0.5327zM258.87188,186.69367c-0.09869,-0.14683 -0.16271,-0.28731 -0.30568,-0.38702c-0.15661,0.1738 -0.36965,0.26373 -0.48079,0.48266c0.08136,0.14369 0.17238,0.23391 0.32501,0.28017c0.16429,-0.11722 0.31449,-0.25538 0.46143,-0.37579zM253.62866,178.39429c-0.07814,-0.16149 -0.15182,-0.24849 -0.26338,-0.32414c-0.14698,0.1204 -0.28309,0.27952 -0.32169,0.49329c0.08459,0.12586 0.16913,0.25167 0.2505,0.39537c0.17396,-0.17065 0.22991,-0.38124 0.33459,-0.56454zM261.83322,185.15495c-0.08777,-0.10803 -0.16151,-0.19511 -0.26215,-0.23188c-0.13608,0.15913 -0.23754,0.32467 -0.30759,0.51429c0.06722,0.12268 0.14095,0.20974 0.25572,0.26751c0.15344,-0.15601 0.20937,-0.36661 0.31404,-0.5499zM256.04949,186.96959c0.06524,0.23272 0.20055,0.27583 0.35963,0.28648c0.1212,0.02215 0.24887,0.00863 0.32658,-0.12439c-0.07814,-0.16149 -0.15948,-0.30514 -0.29922,-0.42267c-0.14053,0.08475 -0.26374,0.17267 -0.38697,0.26057zM261.79164,180.43669c-0.02297,-0.16979 0.00279,-0.31228 -0.10231,-0.42347c-0.40106,0.23961 -0.37569,0.59387 -0.27013,0.99953c0.12523,-0.19794 0.24725,-0.37811 0.37245,-0.57605zM254.51318,186.26591c0.16873,-0.04277 0.28872,-0.11289 0.42159,-0.25424c-0.10514,-0.11117 -0.09026,-0.29249 -0.21589,-0.38903c-0.10713,-0.00118 -0.15461,0.06376 -0.23355,0.10454c-0.08211,0.05859 -0.17516,0.07842 -0.19771,0.20312c0.04995,0.11955 0.0999,0.23908 0.22554,0.33561zM257.27599,181.47077c0.17113,0.14165 0.28149,0.12501 0.32776,-0.03214c0.05919,-0.22839 0.08374,-0.46316 0.10505,-0.68007c0.0129,-0.07123 0.01164,-0.16349 -0.08579,-0.21808c-0.14454,0.30483 -0.25444,0.61596 -0.34705,0.9303zM259.85244,186.90949c0.0153,0.11319 0.07492,0.17929 0.1756,0.2161c0.20216,-0.12871 0.43573,-0.23327 0.5847,-0.46368c-0.18848,-0.14482 -0.35078,-0.13768 -0.50418,0.01834c-0.08213,0.0586 -0.19573,0.0931 -0.25611,0.22926zM259.62854,181.71626c0.24239,0.04427 0.30081,0.01806 0.32979,-0.14219c0.02776,-0.25255 0.05876,-0.5229 0.01725,-0.78809c-0.19649,0.29535 -0.37245,0.57606 -0.34705,0.93031zM261.88343,183.98648c-0.04308,0.13931 -0.0656,0.26407 -0.10547,0.38555c-0.06244,0.24622 -0.06239,0.24622 0.23319,0.39223c0.05718,-0.1184 0.1349,-0.25141 0.16506,-0.31948c-0.11277,-0.16783 -0.19412,-0.31145 -0.2928,-0.45827zM258.2808,176.70429c-0.12002,0.07009 -0.28229,0.07729 -0.31772,0.27324c0.08779,0.10804 0.19613,0.20142 0.29802,0.33042c0.14055,-0.08475 0.29517,-0.14848 0.37286,-0.28153c-0.10516,-0.11117 -0.1897,-0.23707 -0.35319,-0.32213zM260.5727,185.2009c-0.1284,0.21577 -0.27421,0.42836 -0.40262,0.64413c0.01855,0.09536 0.05757,0.1761 0.1679,0.15946c0.18482,-0.13185 0.34149,-0.30568 0.43527,-0.52777c-0.04994,-0.11955 -0.10632,-0.2034 -0.20059,-0.27582zM261.02121,178.86078c0.12442,0.00433 0.22392,-0.05111 0.31247,-0.14536c-0.02175,-0.0776 -0.0435,-0.15514 -0.06527,-0.23273c-0.03582,-0.09855 -0.0544,-0.19394 -0.15185,-0.24851c-0.10389,-0.01898 -0.19689,0.00082 -0.28227,0.07728c0.05762,0.17614 0.12931,0.37323 0.18687,0.54934zM257.67442,177.88167c0.14055,-0.08475 0.23235,-0.19681 0.31007,-0.32982c-0.11919,-0.13218 -0.2211,-0.26117 -0.32619,-0.37235c-0.1482,0.02818 -0.23678,0.1224 -0.27343,0.22612c0.09543,0.16463 0.1909,0.32926 0.28955,0.47612zM261.61397,179.53941c-0.03262,-0.11635 -0.06524,-0.23272 -0.11519,-0.35228c-0.01408,-0.02095 -0.04875,-0.02729 -0.08018,-0.05144c-0.07893,0.04078 -0.18925,0.05743 -0.26696,0.19049c0.02621,0.15202 0.02866,0.33644 0.12409,0.50108c0.1546,-0.06379 0.24317,-0.15803 0.33822,-0.28789zM262.25489,181.23891c0.05274,-0.19278 0.24966,-0.19366 0.28185,-0.37176c-0.0435,-0.15511 -0.0318,-0.31862 -0.1446,-0.48641c-0.13731,0.06694 -0.25733,0.13706 -0.23432,0.30684c0.02297,0.1698 -0.02333,0.32693 0.09708,0.55135zM260.99202,186.34471c0.0918,-0.11203 0.20091,-0.22095 0.2895,-0.31515c0.02054,-0.01464 0.00967,-0.05346 0.01608,-0.08908c-0.08014,-0.05143 -0.1506,-0.15632 -0.31612,-0.13129c-0.11231,0.12671 -0.22792,0.2712 -0.36078,0.41258c0.10832,0.09337 0.20902,0.13015 0.3713,0.12302zM257.3224,176.86054c-0.08457,-0.12586 -0.16593,-0.26952 -0.23641,-0.37437c-0.16551,0.02499 -0.28553,0.09507 -0.38818,0.16835c-0.00522,0.12788 0.11277,0.16777 0.17238,0.23389c0.05963,0.06608 0.11599,0.14998 0.24043,0.1543c0.07571,-0.02298 0.15463,-0.06379 0.21182,-0.18216zM253.18224,185.41564c0.06406,0.14047 0.11721,0.24224 0.17036,0.34393c0.01086,0.03879 0.05961,0.0661 0.07371,0.08708c0.1212,0.02215 0.22068,-0.03329 0.30925,-0.12756c-0.06083,-0.1583 -0.10434,-0.31347 -0.20294,-0.46031c-0.11355,0.03449 -0.21303,0.08993 -0.35033,0.15686zM262.35412,184.05401c0.11115,-0.21893 0.22224,-0.43785 0.2154,-0.69672c-0.1655,0.025 -0.30728,0.01751 -0.4196,0.14419c0.0318,0.31863 0.03182,0.31864 0.20419,0.55251zM254.76241,186.56904c0.2332,0.39223 0.25049,0.39536 0.59441,0.27409c-0.08137,-0.14369 -0.18325,-0.27265 -0.26457,-0.41635c-0.12442,-0.00433 -0.22387,0.05112 -0.3298,0.14217zM260.33096,178.1275c-0.06082,-0.1583 -0.1281,-0.281 -0.25374,-0.37758c-0.03786,0.01149 -0.09626,0.03763 -0.15464,0.06377c-0.04108,0.02931 -0.08539,0.07643 -0.12643,0.1057c0.06084,0.1583 0.10113,0.33129 0.22354,0.44565c0.11354,-0.03448 0.21947,-0.12553 0.31124,-0.2376zM252.29461,184.38873c0.05837,-0.02615 0.13731,-0.06696 0.1643,-0.11723c0.08738,-0.18647 0.08492,-0.37087 -0.00087,-0.58899c-0.11679,0.05227 -0.26173,0.06261 -0.33302,0.16003c0.03706,0.19077 0.01896,0.38989 0.16958,0.54618zM254.35862,177.42351c-0.01407,-0.02096 -0.02819,-0.04195 -0.05637,-0.08389c-0.25088,0.10143 -0.45946,0.26575 -0.66801,0.43008c0.0294,0.13417 0.08901,0.20024 0.2243,0.24336c0.15984,-0.19162 0.33698,-0.38009 0.50009,-0.58955zM258.77029,180.82354c-0.15219,0.24824 -0.31846,0.47548 -0.35589,0.78146c-0.00324,0.01782 0.05961,0.06605 0.09423,0.07239c0.08657,0.01578 0.16871,-0.04282 0.18478,-0.13188c0.09382,-0.22208 0.10104,-0.46 0.07687,-0.72199zM259.8722,177.39966c-0.06723,-0.12271 -0.13451,-0.24539 -0.24284,-0.33877c-0.1212,-0.02215 -0.21423,-0.00231 -0.32335,0.10654c0.1019,0.12902 0.20055,0.27585 0.30566,0.38704c0.1103,-0.01666 0.18923,-0.05746 0.26052,-0.15485zM257.34295,187.33457c0.2392,0.06207 0.44376,0.11786 0.67409,0.0311c-0.02298,-0.16978 -0.13128,-0.26319 -0.26016,-0.34193c-0.15785,0.0816 -0.29516,0.14851 -0.41395,0.31087zM251.61476,182.60849c0.17518,-0.07842 0.19569,-0.09303 0.20539,-0.14651c0.04953,-0.17495 -0.00807,-0.35111 -0.0689,-0.5094c-0.02496,-0.05974 -0.10836,-0.09335 -0.17962,0.00403c0.07491,0.17929 -0.03623,0.39825 0.04315,0.65192zM255.02868,177.67467c0.1772,-0.18844 0.36845,-0.35598 0.44047,-0.65564c-0.26494,0.08044 -0.42483,0.27208 -0.57821,0.42807c0.00119,0.09223 0.04672,0.13731 0.13775,0.22754zM253.88859,186.05985c-0.09624,0.03764 -0.18925,0.05746 -0.28549,0.09509c0.0576,0.17616 0.13896,0.31981 0.33909,0.30113c0.05518,-0.00832 0.1103,-0.01667 0.14053,-0.08475c-0.0153,-0.11318 -0.08902,-0.20028 -0.19412,-0.31145zM260.82093,181.74997c0.15586,0.02843 0.23154,0.00549 0.23997,-0.14017c0.00524,-0.12788 0.01044,-0.25572 -0.00166,-0.38675c-0.00768,-0.05657 -0.03262,-0.11639 -0.10511,-0.11121c-0.09059,0.20427 -0.12599,0.40022 -0.13323,0.63812zM254.30527,180.19234c-0.11115,0.21894 -0.18761,0.4442 -0.17754,0.68525c-0.00323,0.01783 0.05962,0.06605 0.07691,0.06922c0.0346,0.00633 0.07893,-0.04078 0.08536,-0.07643c0.02456,-0.23473 0.09783,-0.44219 0.01525,-0.6781zM253.36467,180.64625c-0.01974,-0.18762 0.01568,-0.3836 -0.05277,-0.5985c-0.12842,0.21575 -0.19848,0.40539 -0.16585,0.52175c0.0153,0.11318 0.08457,0.12587 0.21864,0.07673zM259.06123,187.42746c0.21746,-0.01552 0.4599,0.02875 0.61974,-0.16289c-0.28591,-0.19939 -0.44575,-0.00776 -0.61974,0.16289zM259.4048,184.14121c0.0346,0.00632 0.05523,-0.00833 0.08982,-0.002c0.01487,-0.18128 0.11311,-0.32897 0.0555,-0.50509c-0.10066,-0.0368 -0.15585,-0.02845 -0.22389,0.05113c0.0294,0.13417 0.05559,0.28615 0.07858,0.45599zM256.49154,180.66507c-0.09702,0.23991 -0.16707,0.42954 -0.18841,0.64646c-0.00644,0.03562 0.02174,0.07758 0.07369,0.08706c0.01734,0.00316 0.05517,-0.00833 0.07571,-0.023c0.11115,-0.21893 0.14976,-0.43267 0.039,-0.71052zM252.55033,184.65623c-0.11031,0.01667 -0.1687,0.04279 -0.14374,0.10256c0.0294,0.13417 0.07614,0.27151 0.12285,0.40886c0.03905,0.08074 0.09099,0.09023 0.15583,0.02845c-0.0165,-0.20544 -0.0395,-0.37525 -0.13494,-0.53986zM259.02213,176.85804c0.07893,-0.04078 0.15463,-0.06379 0.23356,-0.10456c0.02054,-0.01463 0.02697,-0.05029 0.05396,-0.10056c-0.20776,-0.03796 -0.38857,-0.12614 -0.62659,-0.096c0.1019,0.12902 0.1756,0.21607 0.33909,0.30112zM254.9619,183.09078c-0.01489,0.18129 -0.02655,0.3448 -0.04788,0.56171c0.20537,-0.14655 0.2863,-0.29735 0.30117,-0.47863c-0.07691,-0.06923 -0.12564,-0.09655 -0.25331,-0.08307zM260.47953,183.63815c0.04672,0.13736 -0.02334,0.32693 0.14782,0.46861c0.12921,-0.41804 0.14532,-0.50707 0.06517,-0.55854c-0.08657,-0.01578 -0.14498,0.01034 -0.21303,0.08993zM255.44612,180.51104c-0.2561,0.22924 -0.29471,0.44301 -0.27377,0.72287c0.28106,-0.16952 0.18758,-0.44416 0.27377,-0.72287zM261.87915,181.04148c-0.23556,0.2146 -0.27099,0.41059 -0.27499,0.63066c-0.00323,0.01782 0.0282,0.04194 0.06281,0.04826c0.05195,0.0095 0.09302,-0.01983 0.09945,-0.05544c0.04954,-0.17495 0.0644,-0.35623 0.11271,-0.62344zM261.35909,183.52272c0.02297,0.16979 0.00809,0.35111 0.15868,0.50737c0.08415,-0.16866 0.0958,-0.33213 0.10426,-0.47779c-0.09422,-0.07241 -0.16669,-0.06724 -0.26295,-0.02959zM262.3051,180.07038c-0.09224,-0.18246 -0.05681,-0.3784 -0.21709,-0.48128c-0.09702,0.23991 -0.09702,0.2399 0.04836,0.52406c0.03786,-0.01149 0.07571,-0.02298 0.16872,-0.0428zM259.44094,186.6135c0.25208,-0.00919 0.40227,-0.14737 0.53838,-0.30654c-0.03262,-0.11635 -0.1019,-0.12902 -0.16348,-0.08506c-0.11231,0.12672 -0.24201,0.25025 -0.37485,0.39161zM260.63257,177.94331c0.10713,0.00117 0.19691,-0.00084 0.26816,-0.09823c-0.05315,-0.1017 -0.10632,-0.20345 -0.20697,-0.24019c-0.0898,0.00199 -0.14818,0.02817 -0.19572,0.09311c0.01855,0.09537 0.06083,0.1583 0.13453,0.24536zM257.2839,183.90119c0.07771,-0.13299 0.13168,-0.2336 0.11636,-0.3468c-0.01086,-0.03879 -0.04227,-0.06293 -0.0737,-0.08708c-0.05195,-0.0095 -0.12767,0.01347 -0.12001,0.07007c-0.01932,0.10691 -0.04187,0.23158 0.07736,0.36378zM257.8833,176.42929c-0.1462,-0.08189 -0.30082,-0.0181 -0.44578,-0.00775c0.16593,0.26953 0.20057,0.27581 0.44578,0.00775zM252.39821,180.45136c0.11756,-0.25457 0.11756,-0.25456 -0.01896,-0.38991c-0.05396,0.10056 -0.11113,0.21895 0.01896,0.38991zM258.42706,183.61303c-0.05963,-0.06608 -0.11155,-0.07556 -0.13529,-0.04312c-0.11231,0.12672 -0.10468,0.1833 0.0222,0.37208c0.07449,-0.11518 0.09384,-0.2221 0.11314,-0.32898zM262.58062,181.31679c-0.10268,0.07329 -0.18803,0.1497 -0.17597,0.28068c0.2867,-0.00288 0.31044,-0.03529 0.17597,-0.28068zM252.14731,179.76155c-0.12646,0.10575 -0.16953,0.24506 -0.20937,0.36657c-0.0129,0.07124 0.0294,0.1342 0.1462,0.0819c0.03983,-0.12152 0.08294,-0.2609 0.0632,-0.44848zM261.85884,178.97683c-0.06684,0.17182 -0.031,0.27038 0.1011,0.33129c0,0 0.03786,-0.01149 0.04107,-0.02931c0.03662,-0.10373 -0.05435,-0.19393 -0.14216,-0.30201zM256.14947,183.54685c0.11031,-0.01667 0.15787,-0.0816 0.15341,-0.15599c0.00644,-0.03562 -0.02175,-0.07759 -0.05315,-0.10172c-0.03143,-0.02413 -0.08978,0.00199 -0.09621,0.03764c-0.02699,0.05029 -0.03986,0.12151 -0.00404,0.22008zM260.12516,177.18826c0.04672,0.13735 0.10632,0.20344 0.25774,0.15745c-0.06084,-0.1583 -0.12364,-0.20659 -0.25774,-0.15745z" fill="#000000"/><path d="M254.80823,189.77914c0.55087,0.119 1.1018,0.238 1.65591,0.33914c0.6234,0.11382 1.25962,0.15637 1.89466,0.10669c0.20013,-0.01867 0.37205,-0.07925 0.59271,-0.11257c-0.05153,0.28504 -0.07925,0.53754 -0.14167,0.78377c-0.33976,1.48368 -0.59617,3.00096 -0.90449,4.50876c-0.27937,1.34748 -0.53818,2.68032 -0.80022,4.03099c-0.18475,0.92313 -0.36631,1.82846 -0.55108,2.75157c-0.1751,0.86971 -0.31234,1.72788 -0.48742,2.59757c-0.0129,0.07126 -0.02578,0.14252 -0.05597,0.2106c-0.27783,0.1517 -0.55369,0.19332 -0.86092,0.21085c-0.48686,0.02152 -0.98458,0.00424 -1.46619,-0.10209c-0.15586,-0.02843 -0.3149,-0.03908 -0.43732,-0.15346c0.1623,-0.00719 0.32577,0.07786 0.53236,0.02359c-0.06966,-0.30713 0.037,-0.60047 0.0712,-0.88866c0.00323,-0.01782 0.00644,-0.03561 -0.01086,-0.03878c-0.05156,-0.50623 0.04183,-1.02284 0.0454,-1.53743c-0.00243,-0.18444 -0.05682,-0.37839 0.01,-0.55019c0.09905,-0.34994 0.00436,-0.71685 0.10341,-1.06683c0.00323,-0.01782 -0.00767,-0.05659 -0.0012,-0.09224c0.00922,-0.3479 -0.00204,-0.68121 0.04181,-1.02281c0.07084,-0.39189 -0.00328,-0.77348 0.10218,-1.15903c-0.06203,-0.25052 0.01449,-0.47578 0.04224,-0.72833c0.00644,-0.03562 0.00965,-0.05347 0.0161,-0.08906c-0.07413,-0.38156 0.06275,-0.74299 0.05789,-1.11192c-0.00486,-0.36889 0.09738,-0.73667 0.10983,-1.10243c0.02213,-0.41921 -0.01097,-0.83002 0.11831,-1.24809c0.00644,-0.03562 0.01611,-0.08908 0.00524,-0.12786c-0.0685,-0.21493 0.02212,-0.41919 0.04346,-0.63611c0.01932,-0.10691 0.05917,-0.22838 0.04386,-0.3416c-0.04026,-0.17296 0.0028,-0.3123 0.03178,-0.47264c0.0161,-0.08908 0.04953,-0.175 0.02775,-0.25254c-0.06203,-0.25052 0.01766,-0.4936 0.05953,-0.72516c0.0161,-0.08908 0.0495,-0.17496 0.02777,-0.25255c-0.05113,-0.21174 0.00157,-0.40454 0.03702,-0.6005c0.05795,-0.32067 -0.00529,-0.6634 0.07,-0.98086c0.02697,-0.05029 -0.01528,-0.11319 -0.02298,-0.16979z" fill="#87d7dc"/><path d="M254.80823,189.77917c0.00765,0.05658 0.04995,0.11953 0.04029,0.17297c-0.07526,0.31749 -0.02935,0.65708 -0.06999,0.98088c-0.03543,0.19594 -0.08816,0.38876 -0.03702,0.60049c0.02175,0.0776 -0.01166,0.1635 -0.02773,0.25253c-0.04184,0.23157 -0.10428,0.47779 -0.05958,0.72518c0.02175,0.07759 -0.02898,0.16035 -0.02774,0.25255c-0.02898,0.16032 -0.05474,0.30284 -0.03178,0.47264c0.0153,0.11318 -0.02456,0.23476 -0.04388,0.34163c-0.02131,0.21691 -0.1119,0.4212 -0.04344,0.63611c0.01086,0.03879 0.00121,0.09223 -0.00523,0.12785c-0.126,0.40023 -0.09619,0.82893 -0.11829,1.24811c-0.01568,0.3836 -0.11793,0.75131 -0.10988,1.10243c0.00487,0.36888 -0.13201,0.73035 -0.05788,1.1119c0.01407,0.02097 -0.00968,0.05346 -0.01611,0.08909c-0.04184,0.23157 -0.10425,0.47779 -0.04222,0.72836c-0.1228,0.38242 -0.04866,0.76398 -0.1022,1.15902c-0.06119,0.33845 -0.03255,0.67489 -0.04183,1.02282c-0.00644,0.03562 0.00769,0.05663 0.00123,0.09224c-0.09905,0.34994 -0.00436,0.71684 -0.10341,1.06682c-0.05273,0.19278 0.00484,0.36891 -0.01001,0.5502c-0.0209,0.51142 -0.09697,1.03119 -0.0454,1.53741c-0.00323,0.01782 0.01089,0.03879 0.01089,0.03879c-0.03419,0.2882 -0.14091,0.58155 -0.0712,0.88867c-0.18925,0.05745 -0.34954,-0.04543 -0.53236,-0.02361c-0.13851,-0.02528 -0.27703,-0.05062 -0.37895,-0.17965c0.01932,-0.10691 0.05917,-0.22838 0.04385,-0.34158c-0.05359,-0.39618 0.03139,-0.76714 0.06436,-1.14757c0.03299,-0.38039 -0.02062,-0.77659 0.10218,-1.159c-0.06203,-0.25052 0.01444,-0.4758 0.04222,-0.72835c0.00644,-0.03562 0.01609,-0.08907 0.00523,-0.12786c-0.0576,-0.17614 0.00925,-0.34791 0.02091,-0.51144c0.0161,-0.08908 0.03218,-0.17814 0.02776,-0.25254c-0.01575,-0.40772 -0.01098,-0.83004 0.0631,-1.23977c0.00969,-0.05345 0.03988,-0.12154 0.01166,-0.16348c-0.05437,-0.1939 -0.00488,-0.36889 0.02732,-0.54704c0.05273,-0.19278 -0.0363,-0.39307 0.0197,-0.60365c0.06884,-0.28186 0.03055,-0.56486 0.04744,-0.8562c0.0362,-0.39824 -0.00006,-0.79125 0.07402,-1.20095c0.0129,-0.07126 0.04631,-0.15717 0.02131,-0.21693c-0.04347,-0.15516 0.00277,-0.31229 0.01446,-0.47576c0.02577,-0.1425 0.0342,-0.28815 0.02214,-0.41921c-0.02739,-0.24423 -0.02018,-0.48211 0.02488,-0.73152c0.05031,-0.37723 -0.00329,-0.77346 0.11948,-1.15584c0.00644,-0.03562 -0.00119,-0.09222 0.00525,-0.12787c0.01568,-0.3836 0.01401,-0.77028 0.06436,-1.14752c0.07084,-0.39189 0.00315,-0.80909 0.10865,-1.19465c0.00969,-0.05345 -0.01532,-0.11319 -0.02298,-0.16979c0.00722,-0.23789 0.03499,-0.49045 0.1288,-0.71252c0.08981,-0.00199 0.15905,0.0106 0.23155,0.00548c0.23278,0.09771 0.43411,0.17126 0.65601,0.23019z" fill="#b0eef2"/><path d="M262.96246,181.97535c-0.00924,0.34789 -0.04025,0.6183 -0.15781,0.87286c-0.16431,0.11722 -0.36442,0.13591 -0.56775,0.17237c-1.00711,0.12895 -2.01101,0.24007 -3.02379,0.20239c-0.76392,-0.02908 -1.54516,-0.06127 -2.31027,-0.18256c-0.20778,-0.03795 -0.42969,-0.09684 -0.64715,-0.08138c-0.08981,0.00199 -0.19371,-0.01699 -0.29757,-0.03593c-0.40271,-0.14714 -0.82472,-0.18738 -1.23711,-0.28106c-0.58554,-0.12528 -1.1582,-0.32184 -1.72437,-0.55403c-0.28148,-0.12499 -0.56622,-0.23219 -0.86823,-0.34251c-0.23596,-0.07991 -0.42443,-0.2247 -0.61614,-0.35171c-0.06324,-0.34279 -0.05802,-0.47061 0.0539,-0.89181c0.3777,0.08733 0.72205,0.26062 1.09331,0.38363c0.35396,0.11983 0.72524,0.24282 1.08245,0.34486c0.37449,0.1052 0.76957,0.19571 1.14728,0.28308c0.35717,0.10203 0.75102,0.10028 1.09859,0.25577c0.39707,-0.01952 0.76833,0.10349 1.15253,0.15523c0.36686,0.04859 0.75424,0.08249 1.12434,0.11326c0.3874,0.03393 0.77798,0.05003 1.18594,0.06934c0.3733,0.01296 0.76068,0.04689 1.13722,0.042c0.39383,-0.00171 0.77678,-0.04218 1.17385,-0.0617c0.41438,-0.01636 0.79088,-0.02122 1.20083,-0.11198z" fill="#d1eaeb"/><path d="M254.1663,189.57c-0.07248,0.00515 -0.14176,-0.00748 -0.23154,-0.00546c-0.09381,0.2221 -0.13566,0.45365 -0.1288,0.71253c0.00765,0.05659 0.03262,0.11637 0.02297,0.16979c-0.10548,0.38555 -0.0551,0.79964 -0.10864,1.19466c-0.06763,0.37409 -0.04868,0.76396 -0.06438,1.14753c-0.00644,0.03562 0.00121,0.09224 -0.00523,0.12785c-0.12281,0.38241 -0.04869,0.76395 -0.11952,1.15585c-0.04184,0.23157 -0.0523,0.48729 -0.02488,0.73151c0.00886,0.14878 0.00043,0.29449 -0.02212,0.4192c-0.02898,0.16032 -0.07205,0.29966 -0.01445,0.47579c0.02495,0.05974 -0.00847,0.14568 -0.02135,0.21693c-0.07084,0.39189 -0.03776,0.80273 -0.074,1.20095c-0.01691,0.29134 0.02141,0.57434 -0.04745,0.85619c-0.05273,0.19278 0.03628,0.39304 -0.0197,0.60365c-0.04952,0.17497 -0.10225,0.36775 -0.02736,0.54705c0.00765,0.05659 -0.002,0.11003 -0.01164,0.16346c-0.07407,0.40969 -0.07568,0.81422 -0.06311,1.23976c0.00119,0.09223 -0.03218,0.17812 -0.02777,0.25251c-0.02898,0.16032 -0.07846,0.3353 -0.02088,0.51142c0.01086,0.03879 0.00122,0.09223 -0.00523,0.12784c-0.04184,0.23157 -0.10426,0.4778 -0.04223,0.72835c-0.12279,0.38241 -0.06921,0.77862 -0.10217,1.159c-0.03299,0.38039 -0.12114,0.7691 -0.06436,1.14751c0.0153,0.11319 -0.02457,0.23474 -0.04386,0.34161c-0.15907,-0.01065 -0.24363,-0.13647 -0.36164,-0.17641c0.04866,-0.76395 0.07357,-1.49548 0.11582,-2.2238c0.0378,-0.80275 0.08968,-1.58453 0.14475,-2.38411c0.04545,-0.74617 0.07355,-1.49548 0.1017,-2.24479c0.04303,-0.93062 0.06548,-1.84656 0.10527,-2.75936c0.03578,-0.69274 0.07161,-1.38544 0.09003,-2.0813c0.05144,-1.07628 0.17539,-2.15775 0.1922,-3.24033c0.00845,-0.14565 -0.01775,-0.29765 0.06319,-0.44847c0.15586,0.02843 0.30201,0.11034 0.45145,0.17443c0.08015,0.05142 0.24241,0.04425 0.36487,0.15861z" fill="#87d7dc"/><path d="M253.51207,205.45957c0.37008,0.03076 0.70997,0.12962 1.08324,0.14255c0.42848,0.00464 0.86015,-0.00859 1.31114,-0.12863c-0.18675,1.03318 -0.37029,2.04853 -0.55062,3.04608c-0.22589,0.16118 -0.46388,0.1913 -0.68778,0.24245c-0.42725,0.08761 -0.83195,0.05051 -1.25398,0.01026c-0.01734,-0.00316 -0.04871,-0.02729 -0.06283,-0.04826c0.17516,-0.07841 0.14896,-0.2304 0.14009,-0.37925c-0.02219,-0.37209 -0.02706,-0.74098 0.05468,-1.09408c0.0129,-0.07126 0.02576,-0.14251 0.0213,-0.21691c-0.04272,-0.35744 0.039,-0.71052 0.04822,-1.05848c0.00084,-0.20227 -0.00813,-0.35105 -0.10355,-0.51572z" fill="#61afb4"/><path d="M254.33483,187.1534c0.58673,0.21753 1.19599,0.31037 1.79239,0.47444c0.27383,0.06841 0.55734,0.08334 0.84085,0.09831c0.52593,0.05924 1.05626,0.19285 1.59507,0.18079c0.21424,0.00232 0.42847,0.00465 0.62861,-0.01401c0.12767,-0.01349 0.25207,-0.0092 0.37331,0.01295c0.00768,0.05657 0.01852,0.09538 0.01207,0.13103c-0.02578,0.14249 -0.0515,0.285 -0.07725,0.42751c-0.09623,0.03765 -0.17195,0.06058 -0.26496,0.08044c-0.66199,0.09994 -1.34135,0.19674 -2.01671,0.07344c-0.59198,-0.08966 -1.2012,-0.18249 -1.78034,-0.34342c-0.46113,-0.12099 -0.92542,-0.22416 -1.34343,-0.48447c0.09302,-0.01985 0.18726,0.05258 0.27582,-0.04165c0.07006,-0.18962 0.16386,-0.41171 -0.03549,-0.59531z" fill="#61aeb3"/><path d="M254.53466,188.42275c0.30082,0.01812 0.55853,0.1756 0.84968,0.24714c0.62018,0.13162 1.24032,0.26328 1.87013,0.34144c0.50859,0.05607 1.01278,0.03768 1.50608,-0.01945c0.12767,-0.01349 0.25529,-0.027 0.38294,-0.0405c-0.04507,0.24939 -0.08368,0.46318 -0.12558,0.69474c-0.24644,0.17581 -0.52229,0.21743 -0.809,0.22033c-0.34189,0.01121 -0.70106,0.0192 -1.0506,-0.02622c-0.79209,-0.07105 -1.54758,-0.24576 -2.32358,-0.40583c-0.13851,-0.02529 -0.27707,-0.05059 -0.38218,-0.16178c0.0161,-0.08908 0.04949,-0.17498 0.02775,-0.25254c-0.03706,-0.19078 0.01889,-0.40141 0.0543,-0.59731z" fill="#61aeb3"/><path d="M253.51206,205.45957c0.08137,0.14369 0.10753,0.29564 0.09265,0.47695c-0.00924,0.34791 -0.09097,0.70106 -0.04822,1.05846c0.00443,0.07443 -0.00843,0.14569 -0.02132,0.21695c-0.06761,0.3741 -0.05954,0.72516 -0.05468,1.09407c0.01208,0.13103 0.03507,0.30083 -0.1401,0.37925c-0.26296,-0.02962 -0.49895,-0.10948 -0.70795,-0.23965c-0.00689,-0.25889 -0.03104,-0.52092 0.04866,-0.76397c0.00644,-0.03562 -0.0012,-0.09223 0.00523,-0.12786c0.01245,-0.36573 0.02812,-0.74932 0.05788,-1.11191c0.01166,-0.16348 0.03745,-0.30598 0.03179,-0.47264c-0.0165,-0.20543 0.0048,-0.42237 0.1268,-0.6025c0.0898,-0.00199 0.15905,0.01064 0.23154,0.00549c0.1212,0.02215 0.25654,0.06523 0.37771,0.08734z" fill="#87d7dc"/><path d="M256.35001,178.57835c0.16274,0.28733 0.19779,0.5881 0.21552,0.88581c0.00444,0.07442 -0.0149,0.18131 -0.04507,0.24939c-0.2319,0.49129 -0.39458,0.99525 -0.5399,1.50233c-0.00323,0.01782 -0.02697,0.05027 -0.04751,0.06495c-0.07893,0.04078 -0.16552,0.02502 -0.24242,-0.04423c0.00644,-0.03562 -0.00447,-0.07444 0.00199,-0.11005c0.09463,-0.42432 0.13727,-0.8582 0.09012,-1.29003c-0.0133,-0.22324 0.02212,-0.41922 0.14733,-0.61715c0.14576,-0.21258 0.23955,-0.43468 0.41997,-0.64099z" fill="#cce5e6"/><path d="M254.82485,181.07843c-0.11355,0.03449 -0.17959,0.00402 -0.22188,-0.05891c0.11995,-0.86136 0.11993,-0.86135 -0.02188,-1.66009c0.08938,-0.29652 0.26531,-0.57719 0.40344,-0.84638c0.12767,-0.01349 0.12563,0.09653 0.1506,0.1563c0.08579,0.21807 0.1748,0.41835 0.22272,0.64793c0.0262,0.15202 0.02093,0.27987 -0.03943,0.416c-0.18441,0.4264 -0.3547,0.87369 -0.4936,1.34516z" fill="#cce5e6"/><path d="M253.11703,205.36905c-0.07249,0.00515 -0.14178,-0.00749 -0.23154,-0.00548c-0.122,0.18014 -0.14332,0.39704 -0.12679,0.60251c0.00566,0.16666 -0.02009,0.30915 -0.03179,0.47266c-0.02977,0.3626 -0.04545,0.74615 -0.05789,1.1119c-0.00644,0.03562 0.00122,0.09225 -0.00524,0.12786c-0.06561,0.26404 -0.03824,0.50825 -0.04869,0.76395c-0.13209,-0.0609 -0.24688,-0.11869 -0.36608,-0.25087c0.03822,-0.50826 0.04501,-1.04069 0.10375,-1.56359c0.03822,-0.50826 0.00718,-1.02915 0.10376,-1.56356c0.27382,0.06841 0.46874,0.17758 0.66045,0.30455z" fill="#60adb2"/><path d="M258.76573,183.61966c0.07248,-0.00516 0.12768,-0.01347 0.20014,-0.01866c0.02821,0.04195 0.04226,0.06292 0.05636,0.08388c0.01453,0.31547 0.08422,0.62262 0.1712,0.9329c0.0294,0.13418 0.02741,0.24425 -0.04709,0.35942c-0.13166,0.23358 -0.23188,0.49129 -0.49565,0.66396c-0.16591,-0.26952 -0.23563,-0.57665 -0.28798,-0.88064c-0.00768,-0.05657 0.0258,-0.1425 0.05596,-0.21058c0.10987,-0.31113 0.21983,-0.62236 0.34706,-0.93034z" fill="#cce5e6"/><path d="M259.82284,179.15717c0.03708,0.19076 0.06967,0.30716 0.09908,0.44134c0.04471,0.2474 0.02338,0.46429 -0.12558,0.69473c-0.23314,0.39903 -0.4175,0.82546 -0.49802,1.27077c-0.02578,0.1425 -0.04631,0.15714 -0.25088,0.10143c0.00967,-0.05345 0.00198,-0.11004 0.01167,-0.16351c0.09782,-0.44216 0.12315,-0.87915 0.09653,-1.32565c0.00203,-0.11005 0.0008,-0.20227 0.0515,-0.28504c0.18682,-0.24193 0.33905,-0.49013 0.61568,-0.73403z" fill="#cae2e3"/><path d="M256.86488,181.46932c-0.01407,-0.02096 -0.025,-0.05981 -0.02175,-0.0776c0.10868,-0.40335 0.11027,-0.8079 0.09133,-1.19782c-0.00487,-0.36888 0.05631,-0.70738 0.29067,-1.01418c0.11557,-0.14451 0.16827,-0.3373 0.31529,-0.45766c0.20945,0.42465 0.2014,0.86483 0.00936,1.23458c-0.22548,0.45568 -0.46503,0.89035 -0.5411,1.41013c-0.02697,0.05029 -0.03987,0.12152 -0.14376,0.10257z" fill="#c9e1e2"/><path d="M258.60754,178.95369c0.12164,0.31664 0.14582,0.57864 0.16678,0.85848c0.00119,0.09223 -0.0149,0.18129 -0.06241,0.24624c-0.24601,0.47033 -0.46059,0.96476 -0.64056,1.46553c-0.00644,0.03562 -0.03339,0.08589 -0.11677,0.05228c0.02255,-0.12468 0.0483,-0.26718 0.05354,-0.39505c0.0471,-0.35941 0.07685,-0.72201 0.03412,-1.07943c-0.02421,-0.26204 0.035,-0.49044 0.19485,-0.68206c0.11557,-0.14451 0.22788,-0.27124 0.37043,-0.46603z" fill="#c9e1e2"/><path d="M259.88882,183.64072c0.12003,-0.07008 0.2066,-0.05428 0.29316,-0.03848c0.01408,0.02095 0.025,0.05979 0.03904,0.08074c-0.01689,0.29134 0.03871,0.57751 0.15271,0.83752c0.06081,0.1583 0.05236,0.30398 -0.02858,0.45482c-0.10466,0.18329 -0.19524,0.38758 -0.33135,0.54677c-0.16148,-0.19509 -0.33511,-0.52122 -0.34397,-0.67006c-0.01855,-0.09537 0.02896,-0.16033 0.06242,-0.24622c0.03744,-0.30597 0.16464,-0.614 0.15658,-0.96504z" fill="#cae3e4"/><path d="M253.75431,183.73518c0.22466,-0.25339 0.39743,-0.51626 0.55607,-0.80013c0.1103,-0.01666 0.17963,-0.00402 0.25654,0.06522c0.02862,0.33642 -0.07367,0.70418 -0.02772,1.0438c-0.12201,0.18013 -0.27985,0.26172 -0.4268,0.38212c-0.08211,0.05859 -0.15016,0.13817 -0.27461,0.13386c-0.09666,-0.25687 -0.02781,-0.53871 -0.08341,-0.82488z" fill="#c8e0e1"/><path d="M256.6762,183.40381c0.15261,0.04626 0.15705,0.12068 0.16149,0.19509c0.02098,0.27988 0.04514,0.54186 0.0488,0.81855c0.00444,0.07443 -0.00844,0.14567 -0.05595,0.21062c-0.15663,0.17379 -0.33059,0.34444 -0.51861,0.49416c-0.06723,-0.12268 -0.06525,-0.23275 -0.09788,-0.34911c-0.09786,-0.34908 -0.06046,-0.65507 0.21615,-0.899c0.12968,-0.12355 0.1965,-0.29535 0.24599,-0.47033z" fill="#cbe4e5"/><path d="M255.58528,183.20463c0.08657,0.01578 0.13852,0.02527 0.19048,0.03475c0.01086,0.03879 0.04226,0.06294 0.03905,0.08074c-0.00084,0.20227 -0.01888,0.4014 -0.01968,0.60366c-0.00203,0.11006 -0.03544,0.19595 -0.10349,0.27553c-0.20413,0.23875 -0.4224,0.45652 -0.69259,0.66481c-0.09225,-0.18244 -0.08056,-0.34592 -0.0689,-0.50939c0.0129,-0.07123 0.02579,-0.14251 0.07003,-0.18961c0.27664,-0.24392 0.44494,-0.58122 0.58506,-0.96047z" fill="#c8e0e1"/><path d="M254.53466,188.42273c-0.03543,0.19594 -0.0914,0.40656 -0.04021,0.61833c0.02175,0.07759 -0.01169,0.16345 -0.02777,0.25253c-0.29758,-0.03593 -0.56498,-0.13994 -0.80218,-0.31209c0.07972,-0.24307 0.05553,-0.50507 0.05953,-0.72515c0.13731,-0.06694 0.24887,0.00863 0.35917,-0.00804c0.15907,0.01065 0.32902,0.06008 0.45145,0.17442z" fill="#85d5d9"/><path d="M260.98105,180.27032c-0.13489,0.2514 -0.26973,0.5028 -0.39055,0.77514c-0.09704,0.23991 -0.01003,0.5502 -0.31809,0.76996c0.10947,-0.60563 0.08488,-1.16219 0.06027,-1.71871c0.12201,-0.18013 0.26452,-0.37493 0.46669,-0.50362c0.02821,0.04195 0.04228,0.06293 0.05637,0.08388c0.05438,0.19392 0.09145,0.38473 0.12529,0.59328z" fill="#c6dede"/><path d="M256.18486,178.10656c-0.17597,0.28072 -0.32813,0.52891 -0.50409,0.80963c-0.11919,-0.13218 -0.14541,-0.28417 -0.21266,-0.40684c-0.06406,-0.14047 -0.16593,-0.26954 -0.18889,-0.43931c0.02255,-0.12468 0.11112,-0.21893 0.18236,-0.31632c0.07125,-0.0974 0.15987,-0.19161 0.26576,-0.28272c0.2231,0.15115 0.32296,0.39021 0.4575,0.63559z" fill="#cae3e3"/><path d="M253.71018,180.91173c-0.02462,-0.55654 -0.06533,-1.024 -0.21317,-1.49259c0.11115,-0.21894 0.20495,-0.44101 0.31929,-0.67775c0.19936,0.1836 0.2473,0.41317 0.33306,0.63122c0.01086,0.03879 0.0012,0.09225 -0.00525,0.12785c-0.13245,0.43583 -0.26489,0.87171 -0.43396,1.41124z" fill="#cae3e4"/><path d="M257.45475,185.33084c-0.12164,-0.31662 -0.21189,-0.60912 0.00838,-0.93692c0.14898,-0.23043 0.21461,-0.49447 0.28021,-0.7585c0.01932,-0.1069 0.1091,-0.1089 0.20658,-0.05431c-0.08613,0.27868 -0.04788,0.56171 -0.00958,0.84473c0.03385,0.20858 -0.02975,0.36258 -0.14532,0.5071c-0.09503,0.12984 -0.15867,0.28385 -0.34028,0.39791z" fill="#c8e0e1"/><path d="M254.33483,187.15338c0.19613,0.20142 0.10552,0.40566 0.04957,0.61628c-0.08857,0.09421 -0.18602,0.03965 -0.2758,0.04166c-0.22187,-0.05892 -0.41679,-0.16812 -0.60529,-0.31295c0.05273,-0.19278 0.01891,-0.40137 0.13767,-0.5637c0.08981,-0.00199 0.14177,0.00749 0.21101,0.02011c0.16674,0.06724 0.33344,0.13444 0.48284,0.19855z" fill="#85d4d9"/><path d="M255.81135,184.62597c0.05559,0.28616 0.08301,0.53038 0.12773,0.77777c-0.19127,0.16748 -0.3966,0.31402 -0.61288,0.42173c-0.11479,-0.05775 -0.13007,-0.17096 -0.16915,-0.25168c-0.03906,-0.08074 -0.07813,-0.16146 -0.03825,-0.28299c0.1772,-0.18844 0.41271,-0.40306 0.69258,-0.66481z" fill="#c7dfe0"/><path d="M258.37212,185.99518c-0.15344,0.15601 -0.28951,0.31514 -0.49166,0.44388c-0.17883,-0.19825 -0.22675,-0.4278 -0.3061,-0.68151c0.15985,-0.19162 0.31969,-0.38328 0.48279,-0.59272c0.12807,0.281 0.20743,0.53476 0.31496,0.83037z" fill="#c8e0e1"/><path d="M257.11909,177.68824c0.11277,0.16783 0.22551,0.3356 0.27668,0.54736c-0.14898,0.23043 -0.31528,0.45767 -0.48478,0.70272c-0.0346,-0.00633 -0.06925,-0.01265 -0.06602,-0.03047c-0.07492,-0.17929 -0.14659,-0.37637 -0.2042,-0.5525c-0.02175,-0.0776 -0.02621,-0.15201 0.01808,-0.19911c0.14255,-0.19478 0.23314,-0.39905 0.46026,-0.46804z" fill="#c4dcdd"/><path d="M259.66862,178.72419c-0.18039,0.20627 -0.34347,0.41571 -0.52387,0.62202c-0.12884,-0.07874 -0.10308,-0.22123 -0.13572,-0.33761c-0.03262,-0.11635 -0.04473,-0.24739 -0.07414,-0.38155c0.12522,-0.19794 0.32417,-0.30878 0.49491,-0.46168c0.16791,0.15945 0.20498,0.35026 0.23881,0.55883z" fill="#c8e0e1"/><path d="M258.87297,185.99464c0.16632,-0.22725 0.31208,-0.43988 0.48159,-0.68493c0.14741,0.1741 0.19854,0.38589 0.32864,0.55685c-0.11438,0.23673 -0.3165,0.36545 -0.49367,0.55389c-0.15383,-0.13849 -0.27626,-0.25284 -0.31652,-0.42581z" fill="#c6ddde"/><path d="M261.01392,183.55172c0.11843,0.33446 0.14384,0.6887 0.32063,0.99699c-0.09058,0.20428 -0.16065,0.39392 -0.31728,0.56772c-0.18523,-0.16263 -0.2775,-0.34509 -0.19456,-0.60595c0.1099,-0.31113 0.13323,-0.63811 0.19119,-0.95878z" fill="#b9cfd0"/><path d="M252.78558,180.48529c-0.09422,-0.07241 -0.02622,-0.15201 -0.03064,-0.22639c-0.00564,-0.16665 0.006,-0.33009 -0.07858,-0.45599c-0.1031,-0.22125 -0.05041,-0.41401 0.0229,-0.62146c0.03344,-0.08591 0.08414,-0.16866 0.14132,-0.28702c0.18972,0.23703 0.33065,0.44681 0.20021,0.77259c-0.0938,0.2221 -0.12159,0.47465 -0.18076,0.70305c-0.00969,0.05344 -0.01932,0.10689 -0.07449,0.11521z" fill="#c0d8d8"/><path d="M252.88057,184.01727c-0.0576,-0.17614 -0.06646,-0.32495 -0.04072,-0.46744c0.0129,-0.07123 0.02895,-0.16035 0.07325,-0.20744c0.19772,-0.20312 0.34667,-0.43353 0.49567,-0.66396c0.1212,0.02216 0.091,0.09021 0.08136,0.14369c-0.03221,0.17814 -0.06761,0.3741 -0.06518,0.55854c-0.00723,0.23789 -0.08816,0.38873 -0.28387,0.48183c-0.09624,0.03764 -0.15785,0.08159 -0.2605,0.15483z" fill="#c1d9d9"/><path d="M257.12734,185.6575c-0.13929,0.17695 -0.30363,0.29418 -0.47434,0.44702c-0.17115,-0.14165 -0.18764,-0.34706 -0.26259,-0.52638c0.16307,-0.20946 0.38251,-0.33499 0.59111,-0.49932c0.089,0.20028 0.10875,0.38791 0.14584,0.57869z" fill="#c3dbdc"/><path d="M258.01473,179.06629c-0.05884,-0.26836 -0.10353,-0.51577 -0.16556,-0.76631c0.09823,-0.14771 0.19327,-0.27752 0.36843,-0.35598c0.13008,0.17098 0.18445,0.3649 0.25619,0.56201c-0.11115,0.21893 -0.25041,0.39588 -0.459,0.56023z" fill="#c3dadb"/><path d="M255.43812,186.19554c0.20216,-0.12871 0.38374,-0.24274 0.56533,-0.3568c0.15062,0.1563 0.20499,0.35024 0.25937,0.54417c-0.15018,0.1382 -0.31124,0.2376 -0.50371,0.31282c-0.04551,-0.04512 -0.1051,-0.11122 -0.13329,-0.15313c-0.06725,-0.12268 -0.1031,-0.22122 -0.18768,-0.34711z" fill="#c4dbdc"/><path d="M252.62067,182.38732c-0.06119,0.33848 -0.1095,0.60569 -0.16097,0.89068c-0.10913,0.1089 -0.22915,0.17897 -0.39461,0.20394c-0.08777,-0.10804 -0.03062,-0.22641 -0.04591,-0.33961c-0.01531,-0.11318 -0.0133,-0.22324 0.00277,-0.31232c0.20539,-0.14656 0.36966,-0.26377 0.59877,-0.44272z" fill="#c2d9da"/><path d="M256.01368,177.17361c0.09503,-0.12984 0.20089,-0.22096 0.31769,-0.27323c0.14174,0.00749 0.19169,0.12706 0.2686,0.19626c0.0769,0.0692 0.17758,0.10601 0.20699,0.24018c-0.06683,0.17182 -0.21702,0.31 -0.37365,0.48386c-0.07051,-0.1049 -0.14099,-0.20976 -0.21466,-0.29683c-0.06723,-0.12268 -0.13452,-0.24536 -0.20501,-0.35026z" fill="#c5ddde"/><path d="M257.54868,186.69131c-0.1188,0.16235 -0.26698,0.1905 -0.39018,0.2784c-0.17436,-0.12387 -0.26661,-0.30631 -0.37296,-0.50971c0.14696,-0.12039 0.29396,-0.24075 0.42363,-0.3643c0.18522,0.16264 0.2332,0.39222 0.33951,0.59562z" fill="#c3dbdc"/><path d="M254.36721,178.86038c-0.05963,-0.06608 -0.08781,-0.108 -0.11601,-0.14993c-0.05315,-0.1017 -0.10311,-0.22125 -0.17036,-0.34394c0.16632,-0.22725 0.28064,-0.464 0.50654,-0.62517c0.11479,0.05775 0.15064,0.1563 0.19735,0.29365c-0.11756,0.25456 -0.2589,0.54156 -0.4175,0.82544z" fill="#c7dfe0"/><path d="M254.63387,185.20227c-0.19891,0.11089 -0.33501,0.27003 -0.54158,0.32433c-0.13652,-0.13536 -0.11843,-0.33443 -0.22032,-0.46343c0.19773,-0.20312 0.39661,-0.31403 0.60199,-0.46054c0.14419,0.19195 0.10875,0.38787 0.15995,0.59964z" fill="#c7dee0"/><path d="M254.08653,188.2305c-0.11031,0.01667 -0.22187,-0.05894 -0.35918,0.00804c-0.00723,0.23789 -0.00039,0.49674 -0.05954,0.72516c-0.06606,-0.03046 -0.1494,-0.06409 -0.21223,-0.11232c-0.09422,-0.07241 -0.14737,-0.17412 -0.12486,-0.29884c0.02131,-0.2169 0.0394,-0.416 0.06076,-0.63295c0.22512,0.0411 0.32579,0.07789 0.69507,0.31093z" fill="#61acb1"/><path d="M260.75867,179.12562c-0.15344,0.15601 -0.28305,0.2795 -0.45381,0.43237c-0.06203,-0.25053 -0.12729,-0.48324 -0.17202,-0.73063c0.11231,-0.12671 0.22147,-0.23558 0.362,-0.32034c0.14418,0.19194 0.19855,0.38586 0.26381,0.61859z" fill="#c2dada"/><path d="M252.89626,184.42498c0.15344,-0.15601 0.31126,-0.23759 0.4929,-0.35163c0.0242,0.26204 0.05481,0.48845 0.08542,0.71487c-0.09823,0.1477 -0.22913,0.17898 -0.38374,0.24274c-0.1333,-0.15313 -0.14985,-0.35861 -0.19456,-0.60595z" fill="#c1d9d9"/><path d="M258.812,178.21816c-0.12363,-0.20661 -0.20177,-0.36806 -0.29722,-0.53273c0.08415,-0.16865 0.24522,-0.26805 0.40631,-0.36745c0.13972,0.11753 0.25893,0.24969 0.33064,0.4468c-0.09059,0.20427 -0.27988,0.26172 -0.43971,0.45338z" fill="#c6dedf"/><path d="M258.87188,186.69367c-0.15018,0.13819 -0.3145,0.2554 -0.46145,0.37579c-0.15261,-0.04626 -0.24363,-0.13647 -0.32501,-0.28017c0.11115,-0.21893 0.32417,-0.30879 0.48079,-0.48265c0.14299,0.09969 0.20699,0.24019 0.30567,0.38702z" fill="#c0d7d7"/><path d="M253.6287,178.39428c-0.10467,0.18329 -0.16065,0.39389 -0.34868,0.5436c-0.08137,-0.14369 -0.16593,-0.26956 -0.25051,-0.39538c0.03866,-0.21373 0.15743,-0.37606 0.32171,-0.49327c0.12885,0.07874 0.19932,0.18359 0.27748,0.34504z" fill="#c3dadb"/><path d="M253.86929,186.95798c-0.06927,-0.01265 -0.14177,-0.00747 -0.21105,-0.02009c-0.1188,0.16236 -0.08496,0.3709 -0.13767,0.5637c-0.12442,-0.00433 -0.17438,-0.12387 -0.29236,-0.16378c-0.0274,-0.24422 0.06316,-0.4485 -0.01618,-0.70219c0.17637,0.01383 0.27059,0.0862 0.38219,0.16178c0.08016,0.05141 0.20781,0.03797 0.27504,0.16063z" fill="#5aa0a4"/><path d="M261.83322,185.15495c-0.10467,0.18328 -0.16066,0.39393 -0.32815,0.52895c-0.11479,-0.05775 -0.17117,-0.14169 -0.25576,-0.2675c0.07006,-0.18964 0.17473,-0.37293 0.3076,-0.5143c0.11479,0.05776 0.17438,0.12386 0.27625,0.25285z" fill="#bdd3d4"/><path d="M256.04949,186.96958c0.14055,-0.08475 0.26376,-0.17264 0.38695,-0.26056c0.13973,0.11754 0.22111,0.2612 0.29924,0.42265c-0.07771,0.13299 -0.20539,0.14656 -0.32657,0.12441c-0.15585,-0.02842 -0.31167,-0.05687 -0.35963,-0.28647z" fill="#bdd4d5"/><path d="M261.79169,180.43671c-0.12522,0.19793 -0.24723,0.3781 -0.37243,0.57604c-0.10554,-0.40566 -0.13091,-0.75993 0.27014,-0.99953c0.08777,0.10804 0.07933,0.25371 0.1023,0.42348z" fill="#bbd2d3"/><path d="M254.51318,186.26589c-0.12563,-0.09655 -0.17559,-0.21609 -0.22551,-0.33562c0.02255,-0.12468 0.11558,-0.14452 0.19773,-0.2031c0.0616,-0.04395 0.12642,-0.1057 0.23355,-0.10454c0.12563,0.09655 0.09346,0.27465 0.21588,0.38902c-0.13287,0.14137 -0.27017,0.20831 -0.42156,0.25428z" fill="#c3dadb"/><path d="M257.27599,181.47077c0.09263,-0.3143 0.18518,-0.62862 0.34706,-0.9303c0.10065,0.03679 0.10192,0.12903 0.08577,0.21808c-0.02456,0.23473 -0.06639,0.46626 -0.10504,0.68003c-0.02898,0.16032 -0.13933,0.177 -0.32778,0.03216z" fill="#b1c6c7"/><path d="M259.85244,186.90949c0.06036,-0.13617 0.17394,-0.17066 0.2593,-0.24707c0.15343,-0.15602 0.31248,-0.14537 0.5042,-0.01835c-0.14898,0.23042 -0.38577,0.35279 -0.58466,0.46368c-0.118,-0.03994 -0.16352,-0.08505 -0.17883,-0.19825z" fill="#bbd2d3"/><path d="M259.62854,181.71626c-0.00809,-0.35111 0.16786,-0.63177 0.32972,-0.93348c0.05883,0.26836 0.01049,0.53556 -0.01725,0.78809c-0.01166,0.16349 -0.07006,0.18966 -0.31246,0.14536z" fill="#bad1d2"/><path d="M261.88343,183.9865c0.09544,0.16464 0.19733,0.29366 0.29278,0.45826c-0.03342,0.08591 -0.1079,0.20112 -0.16508,0.31948c-0.2956,-0.14597 -0.29237,-0.16378 -0.2332,-0.39222c0.02256,-0.12468 0.06242,-0.24624 0.10548,-0.38556z" fill="#b5cbcc"/><path d="M258.2808,176.70429c0.16348,0.08506 0.25133,0.19308 0.33909,0.30112c-0.08093,0.15085 -0.23235,0.19678 -0.37286,0.28155c-0.10514,-0.11117 -0.19287,-0.21922 -0.298,-0.33042c0.0463,-0.15715 0.20856,-0.16435 0.3318,-0.25225z" fill="#c0d7d8"/><path d="M260.5727,185.2009c0.09743,0.05461 0.15064,0.15629 0.20059,0.27583c-0.09382,0.22208 -0.25043,0.39592 -0.43527,0.52776c-0.12442,-0.00433 -0.1494,-0.06408 -0.16791,-0.15945c0.1284,-0.21577 0.25688,-0.43155 0.40264,-0.64413z" fill="#bdd4d4"/><path d="M261.02125,178.86076c-0.07492,-0.17929 -0.12929,-0.37321 -0.20421,-0.55251c0.08538,-0.07641 0.17839,-0.09625 0.28228,-0.0773c0.09743,0.0546 0.11599,0.14996 0.15183,0.2485c0.02175,0.0776 0.0435,0.15514 0.06526,0.23274c-0.07127,0.09742 -0.15342,0.15602 -0.29519,0.14853z" fill="#b6cccc"/><path d="M257.67442,177.88167c-0.09543,-0.16464 -0.17679,-0.30829 -0.28958,-0.47611c0.03662,-0.10371 0.1079,-0.20114 0.27342,-0.22613c0.10515,0.11117 0.20701,0.24018 0.3262,0.37235c-0.09503,0.12984 -0.1695,0.24509 -0.31006,0.32983z" fill="#c1d9d9"/><path d="M261.61397,179.53939c-0.09503,0.12984 -0.1836,0.22412 -0.32092,0.29103c-0.09544,-0.16464 -0.09786,-0.34912 -0.12405,-0.50109c0.06036,-0.13617 0.17072,-0.15284 0.26695,-0.19048c0.04872,0.0273 0.08336,0.03363 0.08016,0.05141c0.03259,0.11636 0.06524,0.23272 0.09786,0.34912z" fill="#b7cdce"/><path d="M262.25489,181.23892c-0.10309,-0.22126 -0.07414,-0.38156 -0.07979,-0.54821c-0.01976,-0.18763 0.09703,-0.23991 0.23432,-0.30685c0.09544,0.16464 0.10109,0.33128 0.1446,0.48644c-0.06684,0.17181 -0.24966,0.19365 -0.29916,0.36861z" fill="#b6cccc"/><path d="M261.28472,186.01171c-0.11233,0.12671 -0.2009,0.22093 -0.29271,0.33298c-0.15907,-0.01065 -0.26296,-0.02962 -0.36806,-0.1408c0.13288,-0.14136 0.24844,-0.28588 0.36076,-0.41257c0.16549,-0.02502 0.21541,0.09455 0.31611,0.1313c-0.00644,0.03562 0.00445,0.07444 -0.01607,0.08909z" fill="#c2dada"/><path d="M257.3224,176.86052c-0.07449,0.11518 -0.13608,0.15916 -0.22912,0.179c-0.10713,-0.00117 -0.16348,-0.08505 -0.24042,-0.15429c-0.05962,-0.06608 -0.17759,-0.10602 -0.17237,-0.23389c0.1059,-0.09105 0.22588,-0.16115 0.38819,-0.16834c0.1019,0.12901 0.16916,0.25171 0.25374,0.37757z" fill="#bbd2d3"/><path d="M253.18224,185.41564c0.13731,-0.06693 0.23678,-0.12239 0.35354,-0.17468c0.0987,0.14683 0.14216,0.30198 0.203,0.46033c-0.08857,0.09422 -0.18805,0.14971 -0.30925,0.12752c-0.03143,-0.02413 -0.0628,-0.04828 -0.07371,-0.08708c-0.05637,-0.08388 -0.10954,-0.18564 -0.17359,-0.32612z" fill="#bbd2d3"/><path d="M262.35412,184.05401c-0.17238,-0.2339 -0.17239,-0.2339 -0.20419,-0.5525c0.11234,-0.12671 0.25409,-0.11921 0.41958,-0.14418c0.00688,0.25889 -0.12156,0.47464 -0.21538,0.69672z" fill="#adc2c3"/><path d="M254.76249,186.56904c0.08857,-0.09422 0.2054,-0.14652 0.32979,-0.14218c0.0987,0.14683 0.18327,0.27262 0.26457,0.41631c-0.32657,0.1244 -0.34388,0.12126 -0.59441,-0.27409z" fill="#b5cbcc"/><path d="M260.33096,178.12751c-0.10912,0.10891 -0.19451,0.18529 -0.33181,0.25222c-0.1224,-0.11434 -0.14538,-0.28417 -0.22352,-0.44565c0.0443,-0.04712 0.08535,-0.07639 0.12642,-0.10572c0.04108,-0.02931 0.09623,-0.03765 0.15463,-0.06379c0.14619,0.08189 0.21342,0.20456 0.27428,0.3629z" fill="#bbd1d2"/><path d="M252.29462,184.38873c-0.15062,-0.15631 -0.12929,-0.37322 -0.19013,-0.53152c0.09181,-0.11202 0.21625,-0.10776 0.33305,-0.16003c0.0858,0.21806 0.08821,0.40253 0.00084,0.58898c-0.00968,0.05344 -0.08536,0.07642 -0.14374,0.10256z" fill="#b6cccd"/><path d="M254.35862,177.42348c-0.16307,0.20946 -0.34026,0.3979 -0.50009,0.58952c-0.118,-0.03995 -0.17758,-0.106 -0.22431,-0.24334c0.20856,-0.16435 0.41714,-0.32866 0.66801,-0.43008c0.02821,0.04197 0.04228,0.06293 0.05638,0.08388z" fill="#acc1c2"/><path d="M258.77029,180.82354c0.01009,0.24106 0.00286,0.47896 -0.07365,0.70419c-0.03344,0.08591 -0.09824,0.14768 -0.18481,0.13188c-0.0346,-0.00633 -0.09744,-0.05461 -0.09423,-0.07242c0.03098,-0.27036 0.20049,-0.51542 0.35268,-0.76365z" fill="#a7bbbb"/><path d="M259.8722,177.39966c-0.05396,0.10057 -0.15018,0.1382 -0.26373,0.17265c-0.1019,-0.12901 -0.20378,-0.25803 -0.30567,-0.38704c0.09503,-0.12984 0.20214,-0.12869 0.32334,-0.10656c0.09422,0.07241 0.17883,0.19824 0.24607,0.32096z" fill="#b7cdcd"/><path d="M257.34295,187.33456c0.1188,-0.16236 0.2561,-0.22924 0.41072,-0.29305c0.12885,0.07874 0.21988,0.16896 0.26016,0.34192c-0.22711,0.06893 -0.43169,0.01318 -0.67089,-0.04886z" fill="#b7cece"/><path d="M251.61476,182.60849c-0.08257,-0.23589 0.02856,-0.4548 -0.02585,-0.64874c0.08857,-0.09421 0.15462,-0.06376 0.17962,-0.004c0.06083,0.1583 0.10111,0.3313 0.06889,0.5094c-0.02698,0.05029 -0.03021,0.06808 -0.22268,0.14336z" fill="#b4cacb"/><path d="M255.02868,177.67466c-0.09422,-0.07239 -0.13653,-0.13533 -0.15508,-0.23069c0.15343,-0.15602 0.31006,-0.32982 0.57824,-0.42807c-0.03744,0.30597 -0.22548,0.45565 -0.42317,0.65878z" fill="#b2c8c9"/><path d="M253.88859,186.05985c0.10514,0.11117 0.17882,0.19825 0.19412,0.31145c-0.03019,0.06809 -0.08537,0.07645 -0.14055,0.08476c-0.22065,0.03331 -0.28471,-0.10721 -0.33907,-0.30112c0.09302,-0.01985 0.18927,-0.05747 0.2855,-0.0951z" fill="#b5cbcb"/><path d="M260.82093,181.74997c0.02455,-0.23473 0.05995,-0.43065 0.15054,-0.63491c0.0898,-0.00198 0.11477,0.05775 0.10512,0.11118c-0.00524,0.12787 0.00687,0.2589 0.00164,0.38674c-0.02578,0.1425 -0.10146,0.16546 -0.25729,0.13699z" fill="#91a3a3"/><path d="M254.30527,180.19236c0.08257,0.23589 0.02339,0.4643 -0.01526,0.67805c-0.00644,0.03562 -0.04752,0.06495 -0.08537,0.07641c-0.0346,-0.00633 -0.08015,-0.05141 -0.07693,-0.06925c-0.00688,-0.25889 0.06962,-0.48413 0.17754,-0.68524z" fill="#99abac"/><path d="M253.36468,180.64627c-0.13409,0.04913 -0.22066,0.0333 -0.2392,-0.06209c-0.01208,-0.13103 0.05475,-0.30281 0.16586,-0.52174c0.08904,0.20028 0.0536,0.39618 0.07334,0.5838z" fill="#93a5a6"/><path d="M259.06123,187.42746c0.17396,-0.17063 0.3338,-0.36228 0.61974,-0.16289c-0.1772,0.18843 -0.40227,0.14736 -0.61974,0.16289z" fill="#9aadad"/><path d="M259.4048,184.14117c-0.0262,-0.15201 -0.04916,-0.32178 -0.07855,-0.45599c0.06806,-0.07958 0.12322,-0.08792 0.2239,-0.05111c0.05762,0.17616 -0.04385,0.34163 -0.0555,0.50511c-0.0346,-0.00633 -0.05195,-0.0095 -0.08982,0.002z" fill="#c5dddd"/><path d="M256.49154,180.66509c0.11398,0.26002 0.0721,0.49162 -0.039,0.71054c-0.00323,0.01782 -0.04109,0.02932 -0.07572,0.023c-0.05518,0.00832 -0.08015,-0.05141 -0.0737,-0.08706c0.01807,-0.1991 0.10869,-0.4034 0.18841,-0.64648z" fill="#aec2c3"/><path d="M252.55035,184.65623c0.09544,0.16464 0.1152,0.35224 0.13815,0.52207c-0.06804,0.07959 -0.13411,0.04912 -0.15587,-0.02844c-0.04673,-0.13736 -0.09665,-0.25687 -0.12282,-0.40886c-0.02821,-0.04197 0.0334,-0.08589 0.14053,-0.08474z" fill="#9caeaf"/><path d="M259.02213,176.85804c-0.1462,-0.0819 -0.23718,-0.1721 -0.33908,-0.30113c0.23799,-0.03016 0.4188,0.05805 0.62659,0.096c-0.02699,0.05031 -0.03344,0.08591 -0.05396,0.10053c-0.07893,0.04078 -0.15461,0.06377 -0.23352,0.10458z" fill="#a9bebf"/><path d="M254.9619,183.09078c0.12767,-0.01349 0.19367,0.01695 0.25331,0.08308c-0.01491,0.18129 -0.09583,0.3321 -0.3012,0.47865c0.00401,-0.2201 0.03301,-0.38041 0.04787,-0.5617z" fill="#b9cfd0"/><path d="M260.47953,183.63813c0.06805,-0.07957 0.14055,-0.08472 0.21302,-0.08992c0.08014,0.05144 0.06405,0.14047 -0.0652,0.55853c-0.18848,-0.14482 -0.10111,-0.33129 -0.14782,-0.46863z" fill="#869797"/><path d="M255.44612,180.51104c-0.10347,0.27553 0.00729,0.55339 -0.27377,0.72287c-0.02098,-0.27987 0.03496,-0.49044 0.27377,-0.72287z" fill="#93a4a5"/><path d="M261.87915,181.04148c-0.0483,0.26718 -0.08051,0.44533 -0.11271,0.62346c-0.00644,0.03562 -0.04752,0.06495 -0.09945,0.05543c-0.01734,-0.00316 -0.04873,-0.02731 -0.06283,-0.04827c0.00398,-0.22007 0.03942,-0.41608 0.27497,-0.63064z" fill="#94a5a6"/><path d="M261.35909,183.52272c0.11679,-0.05226 0.17192,-0.06062 0.24564,0.02643c-0.00845,0.14565 -0.0201,0.30916 -0.10426,0.47781c-0.1506,-0.15634 -0.1184,-0.33443 -0.14139,-0.50421z" fill="#abbfc0"/><path d="M262.3051,180.07038c-0.09302,0.01984 -0.13086,0.03131 -0.16553,0.02499c-0.14541,-0.28416 -0.14538,-0.28413 -0.04835,-0.52403c0.15383,0.13849 0.12167,0.3166 0.21384,0.49905z" fill="#acc0c1"/><path d="M259.44094,186.6135c0.12968,-0.12355 0.24521,-0.26805 0.39219,-0.38843c0.0616,-0.04395 0.13087,-0.03128 0.16348,0.08505c-0.15344,0.15601 -0.3036,0.29419 -0.55567,0.30336z" fill="#9fb2b2"/><path d="M260.63257,177.94331c-0.07371,-0.0871 -0.11598,-0.15001 -0.13451,-0.24536c0.04751,-0.06496 0.10589,-0.09109 0.1957,-0.0931c0.10066,0.0368 0.15382,0.1385 0.20699,0.24022c-0.05396,0.10057 -0.16107,0.09939 -0.26815,0.09822z" fill="#aec2c3"/><path d="M257.2839,183.90116c-0.1224,-0.11433 -0.09988,-0.23907 -0.09467,-0.36691c0.00969,-0.05344 0.06803,-0.07956 0.11999,-0.07008c0.0346,0.00633 0.08017,0.05143 0.0737,0.08706c0.03262,0.11635 -0.02133,0.21695 -0.09904,0.34994z" fill="#91a2a3"/><path d="M257.8833,176.42929c-0.24523,0.26805 -0.26574,0.28275 -0.44578,-0.00775c0.14496,-0.01032 0.28228,-0.07728 0.44578,0.00775z" fill="#869696"/><path d="M252.39821,180.45136c-0.13007,-0.17098 -0.05882,-0.26833 -0.01896,-0.38991c0.13973,0.11754 0.13973,0.11754 0.01896,0.38991z" fill="#555f5f"/><path d="M258.42706,183.61304c-0.01609,0.08908 -0.03864,0.21373 -0.11313,0.32897c-0.12686,-0.18878 -0.11397,-0.26002 -0.02221,-0.37206c0.02376,-0.03247 0.07573,-0.023 0.1353,0.04312z" fill="#93a5a6"/><path d="M262.58062,181.31679c0.13452,0.24537 0.11079,0.27785 -0.17597,0.28068c-0.01208,-0.13104 0.07324,-0.20745 0.17597,-0.28068z" fill="#8b9b9c"/><path d="M252.14731,179.76155c0.01974,0.18763 -0.02334,0.32693 -0.06643,0.46632c-0.11355,0.03449 -0.15906,-0.01066 -0.14617,-0.08191c0.02576,-0.1425 0.06884,-0.28185 0.21256,-0.3844z" fill="#9aacad"/><path d="M261.85884,178.97683c0.08777,0.10804 0.18202,0.18046 0.13896,0.31981c-0.00324,0.01782 -0.02375,0.03248 -0.04107,0.02932c-0.14941,-0.06409 -0.16473,-0.17731 -0.09788,-0.34911z" fill="#5f6a6b"/><path d="M256.14947,183.54686c-0.03906,-0.08074 -0.0262,-0.15202 0.00403,-0.2201c0.02376,-0.03247 0.06483,-0.06177 0.09624,-0.03762c0.03143,0.02413 0.05962,0.06608 0.05314,0.10172c-0.0129,0.07123 -0.04308,0.13932 -0.15342,0.15599z" fill="#636e6f"/><path d="M260.12516,177.18826c0.13087,-0.03129 0.21423,0.00229 0.25774,0.15745c-0.1514,0.04595 -0.21102,-0.02009 -0.25774,-0.15745z" fill="#4a5354"/></g><g data-paper-data="{&quot;index&quot;:null}" fill="#000000" stroke="#000000" stroke-width="1.2"><path d="M244.21644,201.59812c-0.09226,-1.94546 1.9726,-4.56036 2.65821,-6.82937c0.73817,-2.44292 0.10235,-4.35989 1.28943,-5.43783c0.82917,-0.75292 2.27777,-0.42941 3.00771,-0.1514c1.77497,0.676 2.19751,4.58768 0.94375,8.73696c-1.25374,4.14928 -3.709,6.96494 -5.48395,6.28893c-0.80432,-0.30633 -2.33867,-0.99513 -2.41514,-2.60726z"/><path d="M246.6789,204.91761c-0.10667,-2.71391 2.53145,-8.23536 2.53145,-8.23536c0,0 0.14439,-4.09795 0.17159,-4.18302c1.73252,-5.4222 4.82451,-4.31191 8.31959,-2.98078c1.66343,0.63352 3.99249,2.36492 4.38569,4.41872c0.44594,2.32925 -0.87812,4.84305 -1.79863,7.88946c-1.73216,5.73256 -5.30982,9.80329 -8.85974,8.45127c-1.56266,-0.59515 -4.60746,-1.73557 -4.74994,-5.36031z"/></g></g><path d="M225.08542,202.5467c0,0 3.25036,-6.19207 2.84124,-8.09129c-0.10007,-0.46453 -2.81709,7.28953 -3.2596,6.84589c-2.11017,-2.11556 -7.25604,-3.8514 -7.25604,-3.8514c0,0 4.94715,-6.72785 8.40084,-9.64657c0.9536,-0.80589 3.33335,-0.16876 3.59928,-0.41481c0.34345,-0.31778 8.66818,0.28631 8.98642,0.47635c3.80671,2.27335 7.03519,7.50964 7.03519,7.50964c0,0 -2.19236,2.83206 -2.23086,6.12956c-0.00027,0.02343 -2.04907,-5.25189 -2.05335,-4.88455c-0.0257,2.20066 0.58033,5.92637 0.58033,5.92637c0,0 -5.01241,1.2356 -7.50719,1.28497c-2.75025,0.05442 -9.13625,-1.28412 -9.13625,-1.28412z" fill="#ffffff" fill-rule="nonzero" stroke="#737373" stroke-width="2.5" stroke-linecap="butt" stroke-linejoin="miter"/><path d="M222.25384,190.5664c0,0 -5.45037,0.55897 -6.71014,0.53876c-0.55023,-0.00882 -0.94856,-0.44244 -0.91494,-0.93516c0.03581,-0.52473 0.52274,-1.11028 0.52274,-1.11028" fill="none" fill-rule="nonzero" stroke="#737373" stroke-width="1" stroke-linecap="round" stroke-linejoin="miter"/><path d="M217.03217,189.25947l0.1215,-0.09174c0.08173,-0.03754 0.16348,-0.07509 0.2452,-0.11263c1.07564,-0.19266 6.10934,-1.94994 4.4694,0.51226c-0.92125,0.2171 -5.27342,0.92286 -5.12067,-0.13319c0,0 0.06714,-0.24498 0.28459,-0.17471z" fill="#000000" fill-rule="nonzero" stroke="none" stroke-width="0.5" stroke-linecap="butt" stroke-linejoin="miter"/><path d="M224.11081,187.68586c0,0 -1.94975,2.07595 -2.37247,2.46001c-0.22911,0.20814 -3.11052,0.31715 -3.5087,0.34639c-1.75834,0.12912 -3.15002,0.32791 -3.15002,-0.09575c0,-0.14385 -0.01402,-0.80412 0.42219,-1.06932c1.13942,-0.69274 3.81389,-1.35962 5.46654,-1.53651c2.26251,-0.24219 3.14246,-0.10479 3.14246,-0.10479z" fill="url(#color-1)" fill-rule="nonzero" stroke="#737373" stroke-width="0" stroke-linecap="butt" stroke-linejoin="miter"/><g stroke-linejoin="miter"><g stroke-linecap="butt"><path d="M253.90005,156.54109c1.88564,13.88245 -7.08289,26.77431 -20.03178,28.79476c-12.94888,2.02046 -24.97464,-7.59558 -26.86028,-21.47803c-1.88564,-13.88245 7.08288,-26.77432 20.03178,-28.79477c12.94888,-2.02046 24.97464,7.59558 26.86029,21.47804z" fill="none" fill-rule="nonzero" stroke="#000000" stroke-width="4.5"/><g><g fill-rule="nonzero"><path d="M214.36256,146.13419l-0.01168,-0.00671" data-paper-data="{&quot;index&quot;:null}" fill="#ffab19" stroke="#000000" stroke-width="5"/><g data-paper-data="{&quot;index&quot;:null}" fill="none" stroke="none" stroke-width="1" font-family="sans-serif" font-weight="normal" font-size="12" text-anchor="start"/></g><path d="M214.36256,146.13419l-0.01168,-0.00671" data-paper-data="{&quot;index&quot;:null}" fill="#ffab19" fill-rule="nonzero" stroke="#000000" stroke-width="5"/><path d="M230.35723,161.50349" fill="#001026" fill-rule="evenodd" stroke="#000000" stroke-width="5"/><g data-paper-data="{&quot;index&quot;:null}" fill="none" fill-rule="nonzero" stroke="none" stroke-width="1" font-family="sans-serif" font-weight="normal" font-size="12" text-anchor="start"/><g data-paper-data="{&quot;index&quot;:null}" fill="none" fill-rule="nonzero" stroke="none" stroke-width="1" font-family="sans-serif" font-weight="normal" font-size="12" text-anchor="start"/></g></g><path d="M210.8532,160.56202l23.16846,-0.47566l0.82586,4.65643" fill="none" fill-rule="nonzero" stroke="#000000" stroke-width="4.5" stroke-linecap="round"/><path d="M241.64879,163.62854l-0.9033,-5.09298l16.82937,-10.59551" fill="none" fill-rule="nonzero" stroke="#000000" stroke-width="4.5" stroke-linecap="round"/><path d="M201.65824,152.31105l-4.49562,-4.15253l-3.11976,-5.61135l9.72589,1.87379l1.6011,-0.69758l-1.40566,-3.30258l-2.81838,-1.92316l7.07074,1.40731l-3.7406,-3.90857l-2.58441,-6.94554l6.03471,4.1504l3.76728,0.65036l-2.88765,-4.69298l6.12282,3.09252l-1.60972,-5.12342l-0.05885,-4.2713l5.99391,3.78622l2.58531,0.5924l1.96055,2.01044l-0.32332,-7.88007l3.5216,6.20017l0.38305,-8.56978l4.49403,6.6359l1.54226,-4.96887l2.02432,7.65368l2.94557,-4.43441l0.04005,-4.8873l3.63619,6.72319l-0.19153,4.28488l4.94067,-5.11268l2.80822,-1.41447l-4.04595,5.1048l1.56422,-0.77697l-0.96776,5.1005l4.83786,-4.78141l-3.33722,7.18321l8.34693,-4.68696l-4.47448,7.77417l4.11422,-2.74736l-3.85366,6.07138l2.54448,0.22824l-9.20282,2.03355l-33.50765,15.31385l-8.44877,6.86135l2.61002,-5.20151l-6.92085,1.67845l3.98786,-4.12461l-9.32013,-1.00021l6.04338,-3.01494l2.08222,-2.14852l2.16872,-0.02815" fill="#ffffff" fill-rule="nonzero" stroke="#e2e2e2" stroke-width="3" stroke-linecap="round"/></g><path d="M222.22399,183.4639c-3.24598,0 -6.55988,-9.66852 -6.55988,-12.1066c0,-1.21904 16.65518,-0.40516 16.65518,0.8139c0,0 -6.84933,11.29271 -10.0953,11.29271z" fill="#ff0000" fill-rule="nonzero" stroke="#000000" stroke-width="3" stroke-linecap="butt" stroke-linejoin="miter"/></g></g></svg>