<svg version="1.1" xmlns="http://www.w3.org/2000/svg" xmlns:xlink="http://www.w3.org/1999/xlink" width="82.71385" height="123.44466" viewBox="0,0,82.71385,123.44466"><defs><linearGradient x1="219.28023" y1="189.40236" x2="219.28023" y2="192.31392" gradientUnits="userSpaceOnUse" id="color-1"><stop offset="0" stop-color="#737373"/><stop offset="1" stop-color="#000000"/></linearGradient><linearGradient x1="226.58444" y1="165.13658" x2="227.17629" y2="165.13658" gradientUnits="userSpaceOnUse" id="color-2"><stop offset="0" stop-color="#d0c9ff"/><stop offset="1" stop-color="#d0c9ff" stop-opacity="0"/></linearGradient><linearGradient x1="225.29503" y1="165.11544" x2="228.55025" y2="165.11544" gradientUnits="userSpaceOnUse" id="color-3"><stop offset="0" stop-color="#d0c9ff"/><stop offset="1" stop-color="#d0c9ff" stop-opacity="0"/></linearGradient><linearGradient x1="227.26085" y1="165.60161" x2="227.8527" y2="165.60161" gradientUnits="userSpaceOnUse" id="color-4"><stop offset="0" stop-color="#d0c9ff" stop-opacity="0"/><stop offset="1" stop-color="#d0c9ff"/></linearGradient><linearGradient x1="225.97144" y1="165.58047" x2="229.22666" y2="165.58047" gradientUnits="userSpaceOnUse" id="color-5"><stop offset="0" stop-color="#d0c9ff" stop-opacity="0"/><stop offset="1" stop-color="#d0c9ff"/></linearGradient></defs><g transform="translate(-193.84688,-119.87442)"><g data-paper-data="{&quot;isPaintingLayer&quot;:true}" stroke-miterlimit="10" stroke-dasharray="" stroke-dashoffset="0" style="mix-blend-mode: normal"><g fill="none" fill-rule="nonzero" stroke="none" stroke-width="1" stroke-linecap="butt" stroke-linejoin="miter" font-family="sans-serif" font-weight="normal" font-size="12" text-anchor="start"><g><g data-paper-data="{&quot;index&quot;:null}"/></g><g data-paper-data="{&quot;index&quot;:null}"/><g data-paper-data="{&quot;index&quot;:null}"/></g><g fill="none" fill-rule="nonzero" stroke="none" stroke-width="1" stroke-linecap="butt" stroke-linejoin="miter" font-family="sans-serif" font-weight="normal" font-size="12" text-anchor="start"><g><g/><g><g/></g><g/></g><g/></g><path d="" fill="#2b1900" fill-rule="nonzero" stroke="#150c00" stroke-width="3" stroke-linecap="butt" stroke-linejoin="miter"/><path d="M230.29656,192.67727c0,2.5027 -3.04182,4.53153 -6.79411,4.53153c-1.99898,0 -5.57228,1.70962 -7.76975,0.4808c-1.92739,-1.0778 -2.63896,-5.06007 -2.42954,-5.73384c0.65328,-2.10169 7.29153,-3.03467 9.51697,-3.03467c3.75229,0 7.47643,1.25349 7.47643,3.75618z" fill="#ffffff" fill-rule="nonzero" stroke="#737373" stroke-width="1" stroke-linecap="butt" stroke-linejoin="miter"/><path d="M234.36889,204.85271l0.97525,-16.04212" fill="none" fill-rule="nonzero" stroke="#000000" stroke-width="6" stroke-linecap="round" stroke-linejoin="miter"/><path d="M216.59076,206.65322c0,0 4.09878,-6.30437 4.78055,-7.1978c1.23447,-1.61773 14.31859,-10.03321 14.31859,-10.03321c0,0 5.68584,7.08019 7.64725,9.13523c1.8512,1.93956 6.66911,2.86863 6.66911,2.86863" fill="none" fill-rule="nonzero" stroke="#000000" stroke-width="6" stroke-linecap="round" stroke-linejoin="miter"/><g><g><g stroke="#262626" stroke-width="1.2"><path d="M243.39642,203.54009l2.88983,26.27636c0,0 6.98259,0.4171 6.81653,7.59665c-0.00947,0.40931 -0.10852,2.41892 -2.99313,3.00706c-2.76287,0.56331 -8.27047,-0.27821 -10.28288,-0.59795c-0.93467,-0.14851 -2.35845,-0.79631 -3.26837,-1.90547c-0.91612,-1.11677 -0.81717,-2.74089 -0.81655,-3.65454c0.00025,-0.37213 -2.05584,-29.63214 -2.05584,-29.63214" fill="#ffffff" fill-rule="evenodd" stroke-linecap="round" stroke-linejoin="round"/><path d="M233.51348,210.55566c0.17018,-7.35787 5.45586,-7.48521 8.20979,-7.41859c1.19752,0.02897 1.03568,-1.93754 2.09544,3.81734c0.23339,1.26745 0.69205,6.47077 1.67285,10.89963c0.67162,3.03271 1.93138,5.71059 2.16674,6.47993c0.55608,1.81777 0.32733,3.47486 0.32733,3.47486l-1.00827,-1.20431c0,0 0.6644,0.83929 0.93047,1.34007c0.8289,1.56004 1.46296,2.73749 1.46296,2.73749c0,0 -7.04247,-0.46511 -9.78538,1.82984c-2.74291,2.29495 -1.38374,6.6145 -1.38374,6.6145c0,0 -5.21776,-0.81997 -5.6359,-3.76384c-0.10309,-0.72574 0.70618,-2.88543 0.70618,-2.88543c0,0 -0.59661,0.12216 -0.61594,-0.38035c-0.00986,-0.25616 0.78957,-4.05623 0.96719,-8.33109c0.23382,-5.62754 -0.13426,-12.1499 -0.10974,-13.21005z" fill="#000000" fill-rule="nonzero" stroke-linecap="butt" stroke-linejoin="miter"/></g><path d="M224.5609,205.33215c-0.00974,-0.21598 1.18512,0.4208 3.89261,0.49439c3.57187,0.0971 9.04209,-0.33729 10.58028,-0.55955c3.98878,-0.57634 4.66378,-2.11038 4.68961,-1.53784c0.09556,2.11872 -2.16062,6.04332 -6.72376,6.25859c-2.00528,0.0946 -6.10681,0.80409 -8.42943,0.05816c-2.96262,-0.95148 -3.95572,-3.52614 -4.0093,-4.71377z" fill="#004fd9" fill-rule="nonzero" stroke="#001026" stroke-width="1.2" stroke-linecap="butt" stroke-linejoin="miter"/><g fill-rule="nonzero" stroke-linecap="butt" stroke-linejoin="miter"><g fill="none" stroke="none" stroke-width="1" font-family="sans-serif" font-weight="normal" font-size="12" text-anchor="start"/><path d="M224.07958,203.95418c0,0 8.57098,1.33376 12.5096,1.31516c3.93861,-0.01859 7.1835,-1.40815 7.1835,-1.40815c0,0 0.031,2.07391 -1.72548,4.09233c-1.35963,1.56238 -3.97267,3.1809 -7.35009,3.21523c-3.07692,0.03128 -6.50968,-0.62978 -8.20888,-1.98628c-2.57548,-2.05606 -2.40864,-5.22831 -2.40864,-5.22831z" fill="#000000" stroke="#262626" stroke-width="1.2"/></g><g stroke-width="1.2"><path d="M233.54811,209.2107c0,0 -3.34528,30.56729 -3.95573,30.66819c-1.75183,0.28953 -11.35196,-2.30308 -11.35196,-2.30308l6.17094,-30.73259" data-paper-data="{&quot;index&quot;:null}" fill="#ffab19" fill-rule="evenodd" stroke="#001026" stroke-linecap="round" stroke-linejoin="round"/><path d="M235.02656,208.71787c0,0 -0.78147,6.46384 -1.01229,9.89111c-0.22138,3.28727 -0.3455,10.27008 -0.3455,10.27008c0,0 0.93843,5.07389 0.02095,6.32511c-0.42494,0.57952 -0.75979,-2.86462 -0.75979,-2.86462c0,0 0.3738,3.88276 0.41061,4.22499c0.2568,2.38782 -0.91518,5.52348 -3.98631,5.82139c-3.37191,0.32707 -8.96203,0.69649 -11.84378,-1.19265c-1.22614,-0.8038 -2.88701,-3.16992 -2.44,-5.69046c0.50411,-2.84252 3.21129,-5.82039 3.21129,-5.82039l-2.48757,3.24602c0,0 -0.02593,-1.62079 0.37883,-2.80973c0.45455,-1.33517 2.21648,-4.8136 2.21648,-4.8136l5.34118,-19.57598" data-paper-data="{&quot;index&quot;:null}" fill="#000000" fill-rule="evenodd" stroke="#262626" stroke-linecap="round" stroke-linejoin="round"/><path d="M231.90314,237.97312c-0.08452,1.71634 -0.774,3.71047 -2.27053,4.74596c-1.50208,1.03932 -10.52962,0.62745 -11.92522,-0.64275c-1.32536,-1.20627 -1.86525,-3.4358 -1.78275,-5.11092c0.16936,-3.43903 3.88355,-6.00135 8.29591,-5.72308c4.41233,0.27827 7.85196,3.29175 7.68258,6.7308z" fill="#ffffff" fill-rule="nonzero" stroke="#262626" stroke-linecap="butt" stroke-linejoin="miter"/></g></g><g fill="none" fill-rule="nonzero" stroke="none" stroke-width="1" stroke-linecap="butt" stroke-linejoin="miter" font-family="sans-serif" font-weight="normal" font-size="12" text-anchor="start"/></g><path d="M225.11723,203.83214c0,0 3.45565,-5.9968 3.02069,-7.83613c-0.10639,-0.44988 -2.99502,7.05965 -3.46547,6.63c-2.24345,-2.04885 -7.71433,-3.72995 -7.71433,-3.72995c0,0 5.25961,-6.51569 8.93143,-9.34236c1.01383,-0.78048 3.54388,-0.16344 3.82661,-0.40173c0.36514,-0.30776 9.21566,0.27728 9.55399,0.46133c4.04714,2.20166 7.47953,7.27282 7.47953,7.27282c0,0 -2.33083,2.74275 -2.37176,5.93626c-0.00029,0.02269 -2.17849,-5.08627 -2.18304,-4.73052c-0.02732,2.13126 0.61698,5.73948 0.61698,5.73948c0,0 -5.32899,1.19664 -7.98134,1.24445c-2.92395,0.0527 -9.71329,-1.24363 -9.71329,-1.24363z" fill="#ffffff" fill-rule="nonzero" stroke="#737373" stroke-width="2.5" stroke-linecap="butt" stroke-linejoin="miter"/><path d="M222.10681,192.22964c0,0 -5.79461,0.54134 -7.13395,0.52177c-0.58498,-0.00854 -1.00847,-0.42849 -0.97273,-0.90567c0.03807,-0.50818 0.55576,-1.07527 0.55576,-1.07527" fill="none" fill-rule="nonzero" stroke="#737373" stroke-width="1" stroke-linecap="round" stroke-linejoin="miter"/><path d="M216.55534,190.96393l0.12917,-0.08885c0.08689,-0.03636 0.1738,-0.07272 0.26069,-0.10908c1.14358,-0.18658 6.4952,-1.88845 4.75168,0.49611c-0.97944,0.21025 -5.60648,0.89376 -5.44409,-0.12899c0,0 0.07138,-0.23725 0.30256,-0.1692z" fill="#000000" fill-rule="nonzero" stroke="none" stroke-width="0.5" stroke-linecap="butt" stroke-linejoin="miter"/><path d="M224.08106,189.43994c0,0 -2.07289,2.01048 -2.52231,2.38243c-0.24358,0.20158 -3.30698,0.30715 -3.73031,0.33547c-1.86939,0.12505 -3.34897,0.31757 -3.34897,-0.09273c0,-0.13931 -0.01491,-0.77876 0.44885,-1.0356c1.21138,-0.67089 4.05477,-1.31674 5.8118,-1.48806c2.40541,-0.23455 3.34093,-0.10149 3.34093,-0.10149z" fill="url(#color-1)" fill-rule="nonzero" stroke="#737373" stroke-width="0" stroke-linecap="butt" stroke-linejoin="miter"/><g stroke-linejoin="miter"><g stroke-linecap="butt"><path d="M262.17086,166.55726c-1.24713,13.53598 -13.47557,23.39823 -27.31298,22.02796c-13.83741,-1.37027 -24.04385,-13.45417 -22.79671,-26.99015c1.24713,-13.53598 13.47557,-23.39824 27.31298,-22.02797c13.83741,1.37027 24.04385,13.45417 22.79672,26.99016z" fill="none" fill-rule="nonzero" stroke="#000000" stroke-width="4.5"/><g><g fill-rule="nonzero"><path d="M223.72416,146.77047l0.01052,0.00926" data-paper-data="{&quot;index&quot;:null}" fill="#ffab19" stroke="#000000" stroke-width="5"/><g data-paper-data="{&quot;index&quot;:null}" fill="none" stroke="none" stroke-width="1" font-family="sans-serif" font-weight="normal" font-size="12" text-anchor="start"/></g><path d="M223.72416,146.77047l0.01052,0.00926" data-paper-data="{&quot;index&quot;:null}" fill="#ffab19" fill-rule="nonzero" stroke="#000000" stroke-width="5"/><path d="M236.716,165.27847" fill="#001026" fill-rule="evenodd" stroke="#000000" stroke-width="5"/><g data-paper-data="{&quot;index&quot;:null}" fill="none" fill-rule="nonzero" stroke="none" stroke-width="1" font-family="sans-serif" font-weight="normal" font-size="12" text-anchor="start"/><g data-paper-data="{&quot;index&quot;:null}" fill="none" fill-rule="nonzero" stroke="none" stroke-width="1" font-family="sans-serif" font-weight="normal" font-size="12" text-anchor="start"/></g></g><path d="M236.02414,182.08978c0,0 -11.53429,-2.12681 -14.05054,-3.64894c-2.09901,-1.26974 -2.61077,-5.07874 -2.61077,-5.07874" fill="none" fill-rule="nonzero" stroke="#000000" stroke-width="3" stroke-linecap="round"/><path d="M218.00402,162.80986l22.82237,4.86112l-0.2186,1.78907" fill="none" fill-rule="nonzero" stroke="#000000" stroke-width="4.5" stroke-linecap="round"/><path d="M247.88796,170.1299l-0.36091,-1.0193l20.41803,-9.71631" fill="none" fill-rule="nonzero" stroke="#000000" stroke-width="4.5" stroke-linecap="round"/><path d="M209.19342,149.38129l-3.68716,-5.04204l-1.9306,-6.06685l9.61288,4.21956l1.814,-0.25178l-0.6917,-3.46192l-2.46805,-2.52112l6.97821,3.11002l-2.96357,-4.62181l-1.07073,-7.18673l5.27709,5.42882l3.74087,1.56345l-1.90222,-5.14428l5.61151,4.4559l-0.48344,-5.22638l0.92208,-4.03301l5.31875,5.07592l2.53357,1.21036l1.56207,2.38653l1.47936,-7.4947l2.2101,6.72227l2.36755,-7.9651l3.11407,7.37782l2.7361,-4.28479l0.32937,7.71141l4.06232,-3.42752l1.16597,-4.58752l2.20808,7.24324l-1.18378,3.98254l6.27876,-3.5616l3.22557,-0.62125l-5.35297,3.78021l1.79418,-0.33579l-2.17308,4.55374l6.09636,-3.27595l-5.09931,5.91447l9.69849,-2.30067l-6.40975,6.18312l4.881,-1.54524l-5.37679,4.73808l2.57521,0.85747l-9.97181,-0.41167l-38.12764,5.94195l-10.30401,4.32047l3.89231,-4.23391l-7.53348,-0.16928l5.06742,-2.87279l-9.39486,-3.29526l6.93484,-1.30964l2.64473,-1.4952l2.24614,0.52135" fill="#ffffff" fill-rule="nonzero" stroke="#e2e2e2" stroke-width="3" stroke-linecap="round"/></g><g data-paper-data="{&quot;index&quot;:null}" fill-rule="nonzero" stroke="none" stroke-width="1" stroke-linecap="butt" stroke-linejoin="miter"><path d="M267.02785,182.35024c0.14901,-0.14852 0.29634,-0.12143 0.46388,-0.05949c0.25671,0.11845 0.48497,0.28506 0.73217,0.41963c0.07305,-0.01998 0.14609,-0.03994 0.20426,-0.06931c1.27194,-0.56338 2.54558,-0.50741 3.82828,-0.22487c0.27032,0.06081 0.55018,0.10557 0.78788,0.25617c0.04455,0.02827 0.11349,0.04982 0.16221,0.03647c0.26785,-0.07325 0.46102,0.04909 0.67853,0.1648c0.18779,0.09684 0.35661,0.22586 0.53488,0.3388c0.10399,0.06587 0.18903,0.1639 0.2064,0.30737c0.01733,0.14347 0.10772,0.26697 0.18328,0.38102c0.50066,0.60417 0.89032,1.29256 1.17846,2.04915c0.15479,0.42926 0.22169,0.86906 0.27907,1.32493c0.16684,1.34217 -0.04889,2.64075 -0.54443,3.89458c-0.22945,0.56125 -0.54263,1.09153 -0.91524,1.58416c-0.28185,0.37348 -0.64876,0.64896 -1.02099,0.89896c-1.18446,0.79545 -2.48567,1.09737 -3.85256,1.02644c-0.25961,-0.00989 -0.52043,-0.08673 -0.78126,-0.16362c-0.17706,-0.04589 -0.34875,-0.06631 -0.53281,0.03789c-0.15971,0.09753 -0.33139,0.07713 -0.49895,0.01517c-0.25671,-0.11845 -0.49443,-0.26902 -0.73217,-0.41962c-0.07431,-0.04706 -0.11477,-0.11684 -0.1552,-0.18665c-0.1226,-0.27635 -0.317,-0.46574 -0.54527,-0.63237c-0.49572,-0.33604 -0.86675,-0.81397 -1.24729,-1.27582c-0.14033,-0.17723 -0.27117,-0.37048 -0.3682,-0.58648c-0.32609,-0.6923 -0.61299,-1.38188 -0.72533,-2.15958c-0.22287,-0.14116 -0.45111,-0.30782 -0.68886,-0.45836c-0.08917,-0.05648 -0.19315,-0.12234 -0.19562,-0.25641c-0.01196,-0.11797 -0.11063,-0.15841 -0.19977,-0.21486c-0.58485,-0.3925 -1.17916,-0.76895 -1.76401,-1.16145c-1.3129,-0.85368 -2.64066,-1.7167 -3.93457,-2.6025c-1.26419,-0.86699 -2.55688,-1.6857 -3.84006,-2.52055c-0.20803,-0.13176 -0.38218,-0.28625 -0.59019,-0.41797c-1.01037,-0.63993 -2.02073,-1.27992 -3.0216,-1.9359c-0.17828,-0.11292 -0.37556,-0.19373 -0.48204,-0.39367c-0.04048,-0.0698 -0.12421,-0.10077 -0.19851,-0.14785c-0.74294,-0.47054 -1.49122,-0.96658 -2.23415,-1.43714c-0.02971,-0.01882 -0.07427,-0.04707 -0.10399,-0.06587c-0.24725,-0.13449 -0.29966,-0.32228 -0.27079,-0.61313c0.10432,-0.97168 0.48022,-1.8155 1.12769,-2.53153c0.16797,-0.18065 0.36561,-0.34249 0.58352,-0.46946c0.15972,-0.09754 0.31653,-0.08655 0.47459,-0.00854c0.47423,0.23415 0.95793,0.45219 1.44702,0.69573c0.34588,0.17492 0.68762,0.39136 1.06195,0.51805c0.81759,0.27498 1.53617,0.75219 2.32528,1.07532c0.43914,0.18979 0.88242,0.33809 1.31209,0.54398c0.45935,0.22472 0.92284,0.4079 1.37682,0.60708c0.82421,0.3675 1.64429,0.77654 2.478,1.12793c1.10936,0.43772 2.18086,0.93969 3.25228,1.44168c0.37024,0.16826 0.74041,0.33646 1.11063,0.50473c0.57291,0.2745 1.16057,0.55844 1.73341,0.83296c0.31617,0.15608 0.63644,0.27063 0.95258,0.42668c0.34054,0.14944 0.62281,0.32824 0.96869,0.50315zM266.9986,182.88369c-0.20305,0.13636 -0.37638,0.29153 -0.51462,0.49097c-0.38049,0.3331 -0.66646,0.74812 -0.95242,1.16318c-0.36726,0.51812 -0.6846,1.08991 -0.99242,1.64569c-0.35529,0.63611 -0.53351,1.31809 -0.70642,2.02561c-0.00825,0.08312 -0.01649,0.1662 -0.02885,0.29083c0.11884,0.0753 0.23774,0.15054 0.35658,0.22584c0.02971,0.01882 0.06893,0.02158 0.12296,0.03375c0.06645,-0.11247 0.11802,-0.23437 0.15476,-0.36569c0.0693,-0.22107 0.15888,-0.40722 0.22821,-0.62825c0.19558,-0.53852 0.53435,-1.00848 0.77451,-1.51877c0.13698,-0.26653 0.2443,-0.55182 0.41099,-0.79951c0.37676,-0.5342 0.67923,-1.11542 1.1154,-1.61192c0.11515,-0.1258 0.23974,-0.26768 0.3549,-0.39346c0.12713,-0.00779 0.1733,-0.1552 0.25052,-0.21671c0.10152,-0.06817 0.20306,-0.13638 0.29256,-0.32252c-0.25961,-0.00989 -0.42429,-0.18042 -0.64052,-0.2291c-0.06234,0.07093 -0.18942,0.07875 -0.22616,0.21006zM266.1138,183.20645c0.35203,-0.28486 0.4238,-0.37188 0.5175,-0.59961c-0.18779,-0.09684 -0.36076,-0.1843 -0.54853,-0.28118c-0.10399,-0.06587 -0.21624,-0.04869 -0.3178,0.01953c-0.06771,0.04547 -0.11512,0.12581 -0.18282,0.17125c-0.2464,0.17514 -0.45231,0.42011 -0.5893,0.68661c-0.14071,0.06546 -0.21667,0.19395 -0.29259,0.32254c-0.44195,0.71368 -0.88926,1.40193 -1.25694,2.16266c-0.16011,0.34021 -0.3054,0.68983 -0.42625,1.03276c-0.08295,0.27871 -0.17536,0.57344 -0.11094,0.8792c0.19318,0.12234 0.38632,0.24465 0.57949,0.36702c0.04622,-0.14734 0.08296,-0.27871 0.11017,-0.39389c0.14691,-0.5252 0.32349,-1.03159 0.55952,-1.50037c0.2971,-0.60669 0.66852,-1.16637 1.02502,-1.73544c0.16136,-0.27319 0.40234,-0.47383 0.54885,-0.75639c0.18942,-0.07875 0.29919,-0.23002 0.38461,-0.37461zM248.39965,174.72455c-0.22203,0.16849 -0.36977,0.38401 -0.48776,0.61839c-0.02433,0.00665 -0.0582,0.0294 -0.0677,0.04549c-0.21293,0.39506 -0.39615,0.80895 -0.47121,1.24717c-0.04912,0.25599 -0.11307,0.5025 -0.04451,0.76668c0.83209,0.52702 1.66414,1.05398 2.54078,1.60931c0.06436,-0.48915 0.21782,-0.92194 0.38618,-1.34517c0.13988,-0.37511 0.37428,-0.66824 0.54387,-1.02451c0.07592,-0.12854 0.1572,-0.23165 0.23313,-0.3602c0.18818,-0.14574 0.35615,-0.32644 0.51337,-0.55802c-0.44576,-0.28234 -0.93773,-0.41728 -1.37274,-0.64865c-0.45938,-0.22472 -0.92824,-0.43336 -1.37272,-0.64863c-0.1894,0.07873 -0.2951,0.18845 -0.40073,0.29821zM251.62341,176.21442c-0.14071,0.06549 -0.23153,0.18458 -0.30743,0.31311c-0.13538,0.0909 -0.20597,0.24495 -0.30621,0.38015c-0.28061,0.44055 -0.4869,0.92812 -0.65402,1.41841c-0.09241,0.29474 -0.1551,0.60833 -0.1394,0.92738c0.05944,0.03766 0.10937,0.09135 0.16883,0.12897c0.72808,0.46119 1.44124,0.91288 2.15983,1.39007c0.76313,0.50543 1.51143,1.00146 2.27457,1.50691c1.11977,0.7313 2.21512,1.46929 3.33488,2.20057c1.24398,0.83208 2.50158,1.60651 3.72655,2.47075c0.1985,0.14783 0.43089,0.27288 0.65378,0.41408c0.04495,-0.21438 0.0507,-0.43153 0.12539,-0.62712c0.19845,-0.64711 0.49556,-1.25382 0.82237,-1.84172c0.30371,-0.51418 0.62227,-1.01898 0.94089,-1.52379c0.15311,-0.19009 0.28186,-0.37348 0.43496,-0.56356c0.16507,-0.07207 0.22078,-0.23552 0.32643,-0.34526c0.11515,-0.1258 0.25049,-0.21669 0.33055,-0.38681c-0.1296,-0.12625 -0.26746,-0.1694 -0.38094,-0.2192c-0.98106,-0.37851 -1.90103,-0.89496 -2.85359,-1.32164c-0.61208,-0.27726 -1.22415,-0.55458 -1.84573,-0.81573c-0.82421,-0.3675 -1.64305,-0.70948 -2.4524,-1.06754c-0.66613,-0.28941 -1.33227,-0.57886 -1.98891,-0.88439c-0.71072,-0.31769 -1.39705,-0.64202 -2.0983,-0.97576c-0.64179,-0.2961 -1.29844,-0.60157 -1.96457,-0.89101c-0.10024,0.13519 -0.24636,0.17516 -0.30744,0.31311zM268.36358,194.19212c0.07507,-0.43819 0.21498,-0.81332 0.33996,-1.1978c0.13451,-0.40058 0.24464,-0.79448 0.39403,-1.18563c0.13989,-0.37511 0.319,-0.74746 0.47374,-1.11311c0.16425,-0.38177 0.32845,-0.76351 0.51701,-1.1519c0.16959,-0.35624 0.36355,-0.71919 0.53317,-1.07546c0.19395,-0.36291 0.44733,-0.68821 0.58184,-1.0888c0.28843,-0.28097 0.4378,-0.67213 0.65197,-1.0002c0.23852,-0.33465 0.45682,-0.7043 0.69533,-1.03899c0.22902,-0.31859 0.48242,-0.64388 0.72628,-0.95311c0.2534,-0.32528 0.55672,-0.59683 0.76548,-0.95033c-0.33762,-0.25801 -0.4416,-0.32388 -0.78499,-0.36473c-0.18818,0.14574 -0.37638,0.29155 -0.5538,0.48826c-0.20593,0.24494 -0.41185,0.48984 -0.64213,0.74145c-0.42672,0.48047 -0.82905,0.95429 -1.16124,1.51669c-0.2278,0.38565 -0.4407,0.78076 -0.72796,1.12875c-0.06234,0.07093 -0.11926,0.16735 -0.14647,0.28254c-0.06929,0.22107 -0.20757,0.42055 -0.32144,0.61339c-0.41762,0.70703 -0.74607,1.47052 -1.05015,2.2274c-0.42214,0.99124 -0.72126,2.01617 -0.97577,3.06936c-0.05981,0.20499 -0.11966,0.40999 -0.06183,0.62319c0.20389,0.17333 0.43627,0.29841 0.747,0.42901zM273.96604,188.82023c-0.11724,-0.25088 -0.27242,-0.43752 -0.41814,-0.64019c-0.11596,-0.18388 -0.2848,-0.31286 -0.50107,-0.36152c-0.39868,-0.12005 -0.78377,-0.2977 -1.13087,-0.53965c-0.02971,-0.01882 -0.08377,-0.031 -0.09862,-0.04041c-0.09201,0.05212 -0.12995,0.11639 -0.13287,0.22498c0.00535,0.02547 0.0256,0.06036 0.04047,0.06979c0.40242,0.32114 0.78583,0.67439 1.15031,1.0598c0.04992,0.05373 0.12959,0.12625 0.20803,0.13175c0.2757,0.08632 0.55138,0.17257 0.8828,0.09545zM272.29194,186.43504c0.37269,0.30228 0.71153,0.62733 1.02605,0.95903c0.09989,0.10739 0.21339,0.15723 0.36075,0.18429c0.22574,0.03257 0.44077,0.0142 0.67066,0.00527c0.07841,0.00551 0.17166,0.02044 0.19891,-0.09481c-0.20515,-0.24034 -0.38596,-0.48734 -0.61004,-0.69553c-0.78541,-0.12208 -0.78537,-0.12209 -1.50806,-0.55775c-0.07305,0.01996 -0.12587,0.07486 -0.13824,0.19949zM268.48621,189.45625c-0.22949,-0.23369 -0.4685,-0.4513 -0.70746,-0.66891c-0.04993,-0.05372 -0.0999,-0.10742 -0.1688,-0.12898c-0.30415,-0.03812 -0.59886,-0.09223 -0.90591,-0.02178c0.06441,0.30576 0.25881,0.49511 0.40988,0.7233c0.07551,0.11408 0.17419,0.15448 0.30666,0.17213c0.31365,0.02203 0.60837,0.0762 0.90835,0.15586c0.01486,0.00941 0.0487,-0.01328 0.09736,-0.02662c0.01362,-0.05761 0.03675,-0.13135 0.05982,-0.205zM272.1125,192.06216c-0.11435,-0.35948 -0.28027,-0.59707 -0.43672,-0.8507c-0.07016,-0.08861 -0.15393,-0.11958 -0.23773,-0.15056c-0.41356,-0.12943 -0.79863,-0.30717 -1.16061,-0.55848c-0.04456,-0.02824 -0.09861,-0.04042 -0.14319,-0.06862c-0.11927,0.16735 -0.12339,0.2089 -0.00452,0.28417c0.38635,0.24469 0.71033,0.56032 0.95715,0.93745c0.15107,0.22818 0.33886,0.32505 0.57949,0.36705c0.14199,0.00162 0.25961,0.00989 0.44616,0.03971zM271.15715,188.32173c-0.04744,0.08035 0.00255,0.13407 0.06196,0.17172c0.41602,0.26352 0.74127,0.64614 1.06653,1.02882c0.26992,0.30344 0.64964,0.45562 1.11887,0.42164c-0.0673,-0.19717 -0.20639,-0.30735 -0.29266,-0.47241c-0.1874,-0.33951 -0.46971,-0.5183 -0.80485,-0.64227c-0.36484,-0.14276 -0.73919,-0.26948 -1.0471,-0.50863c-0.05406,-0.01212 -0.07845,-0.00552 -0.10278,0.00115zM272.76197,190.92801c-0.12134,-0.20935 -0.19276,-0.36499 -0.27368,-0.50453c-0.12675,-0.23481 -0.29554,-0.36383 -0.5415,-0.43131c-0.33925,-0.08239 -0.65541,-0.23847 -0.96205,-0.4106c-0.11351,-0.04983 -0.23236,-0.12509 -0.33635,-0.19097c-0.06234,0.07093 -0.02724,0.11521 0.0025,0.13405c0.38347,0.35325 0.75738,0.72258 1.07849,1.14681c0.06481,0.06311 0.11475,0.11682 0.19852,0.14782c0.25547,0.05143 0.50145,0.11888 0.83409,0.10878zM268.03686,190.56268c-0.32028,-0.11453 -0.55922,-0.33215 -0.80772,-0.5337c-0.07429,-0.04706 -0.10526,-0.1329 -0.19852,-0.14782c-0.14738,-0.02709 -0.49897,0.01517 -0.73712,0.10722c0.08215,0.20662 0.24148,0.35166 0.36695,0.5195c0.10526,0.1329 0.2336,0.19212 0.39991,0.18707c0.28392,0.00323 0.54892,0.03856 0.81513,0.14094c0.01487,0.00943 0.06356,-0.00392 0.08789,-0.01057c0.05284,-0.05488 0.09079,-0.11913 0.07343,-0.26263zM270.30212,184.44606c-0.26494,-0.03532 -0.50808,-0.21142 -0.78665,-0.18915c-0.05159,0.12188 -0.00578,0.21716 0.01571,0.31908c0.05244,0.18778 0.06564,0.37276 0.18163,0.55663c0.32439,0.07301 0.60258,0.29333 0.93235,0.3918c0.09201,-0.05212 0.13948,-0.13245 0.1572,-0.23164c-0.19566,-0.25641 -0.35746,-0.53554 -0.50029,-0.84681zM269.48188,187.4594c-0.1296,-0.12625 -0.25918,-0.25248 -0.31573,-0.39872c-0.13869,-0.35279 -0.40081,-0.49672 -0.7293,-0.52815c-0.11761,-0.00828 -0.20676,-0.06475 -0.35288,-0.02481c0.05369,0.25483 0.15067,0.47082 0.24773,0.6868c0.02558,0.06037 0.08504,0.098 0.1688,0.12898c0.26086,0.07689 0.49734,0.16042 0.75816,0.23732c0.04455,0.02827 0.12301,0.03374 0.22328,-0.10148zM270.07979,186.44703c-0.28893,-0.27131 -0.52911,-0.55597 -0.64349,-0.91544c-0.0161,-0.07644 -0.08503,-0.09799 -0.14447,-0.13564c-0.14322,-0.06863 -0.29595,-0.1212 -0.4866,-0.10948c0.07515,0.35673 0.19778,0.63313 0.33521,0.91889c0.04582,0.09527 0.11059,0.15839 0.20926,0.19878c0.18241,0.07142 0.35537,0.15883 0.53778,0.23021c0.01487,0.00943 0.06359,-0.0039 0.0879,-0.01055c0.02849,-0.04821 0.05696,-0.09643 0.10437,-0.17676zM270.66309,192.82227c0.18655,0.02981 0.38797,0.0691 0.57452,0.09896c0.02433,-0.00665 0.04872,-0.01332 0.09738,-0.02663c-0.02931,-0.26147 -0.15068,-0.47082 -0.27614,-0.63862c-0.52705,-0.17926 -1.02436,-0.3397 -1.52956,-0.65969c0.10484,0.37556 0.40903,0.41361 0.5737,0.58416c0.20925,0.19879 0.38468,0.42026 0.56011,0.64177zM274.45556,188.8211c0.27321,-0.04776 0.52744,-0.06341 0.76432,-0.22247c-0.06601,-0.13015 -0.09288,-0.25756 -0.15359,-0.36221c-0.06069,-0.10465 -0.11184,-0.22541 -0.21588,-0.29127c-0.16219,-0.03646 -0.31779,0.01954 -0.46923,0.03401c-0.15145,0.01451 -0.29883,-0.01262 -0.44902,0.06887c0.17133,0.26306 0.33722,0.50064 0.52338,0.77312zM272.86965,185.3878c0.40778,0.34659 0.75079,0.63005 1.09374,0.91355c0.02971,0.01882 0.06479,0.06316 0.11349,0.04982c0.22987,-0.00897 0.47049,0.03303 0.69787,-0.10998c-0.17004,-0.19604 -0.32527,-0.38266 -0.48996,-0.55322c-0.46515,-0.00757 -0.90298,-0.13033 -1.41521,-0.30019zM267.44267,187.55885c0.01859,0.2105 0.14819,0.33673 0.22908,0.4763c0.08626,0.16505 0.20101,0.28188 0.40241,0.3211c0.27031,0.06083 0.54067,0.12165 0.75945,0.30437c0.09616,-0.09368 0.11927,-0.16734 0.0301,-0.22382c-0.21339,-0.15721 -0.44162,-0.32389 -0.57784,-0.54263c-0.20639,-0.30737 -0.50522,-0.32002 -0.84323,-0.33535zM268.70916,186.17511c-0.1292,-0.36888 -0.21798,-0.66797 -0.3162,-0.95099c-0.10399,-0.06587 -0.19191,-0.05533 -0.2703,-0.06082c-0.0879,0.01056 -0.19599,-0.01376 -0.29217,0.07988c0.01446,0.25209 0.06813,0.50682 0.14613,0.75498c0.22161,0.07412 0.43789,0.12278 0.73258,0.17695zM266.49104,188.23675c0.30828,-0.00345 0.57737,-0.00967 0.8613,-0.00645c-0.12674,-0.23482 -0.23861,-0.46026 -0.35045,-0.68566c-0.25961,-0.00989 -0.48535,-0.04245 -0.73293,0.06569c0.04829,0.2293 0.13995,0.41985 0.22208,0.62645zM274.47547,189.89359c0.02476,-0.24928 -0.13995,-0.41985 -0.23158,-0.61038c-0.02558,-0.06037 -0.10935,-0.09136 -0.17293,-0.08744c-0.20554,0.00229 -0.3867,-0.00207 -0.57738,0.00961c-0.01486,-0.00941 -0.03385,0.02276 -0.05284,0.05487c0.14155,0.24426 0.30754,0.48177 0.4491,0.72605c0.19601,0.01376 0.39081,-0.03948 0.58561,-0.09277zM272.56271,192.06038c0.2014,0.03922 0.38793,0.06908 0.59636,-0.04178c-0.05783,-0.21325 -0.09662,-0.45864 -0.22746,-0.65193c-0.13248,-0.01768 -0.24598,-0.06747 -0.37307,-0.05966c-0.11759,-0.00828 -0.22698,-0.09964 -0.35698,0.01677c0.11722,0.2509 0.23445,0.50176 0.36119,0.73663zM266.29962,188.73364c-0.17168,-0.02042 -0.3314,0.07713 -0.50595,0.16529c0.10234,0.2415 0.14121,0.48688 0.31122,0.68293c0.19482,-0.05326 0.40568,-0.03009 0.62895,-0.13156c-0.14155,-0.24426 -0.29263,-0.47245 -0.43423,-0.71665zM267.68613,191.70951c-0.25796,-0.18547 -0.56876,-0.31605 -0.80774,-0.53369c-0.2039,-0.17331 -0.38918,-0.13606 -0.62194,-0.01855c0.09701,0.21598 0.24146,0.35166 0.3913,0.51277c0.36109,-0.05833 0.6909,0.04012 1.03838,0.03943zM273.60916,184.61973c-0.02312,0.07369 0.02147,0.1019 0.06603,0.13015c0.18365,0.1384 0.39168,0.27017 0.56587,0.42466c0.24437,0.24307 0.48785,0.1765 0.77468,0.07112c-0.08506,-0.09805 -0.14035,-0.17718 -0.20515,-0.24032c-0.14984,-0.16112 -0.30376,-0.28071 -0.55263,-0.23965c-0.15145,0.01449 -0.30419,-0.03812 -0.44206,-0.08122c-0.04993,-0.05372 -0.10525,-0.13289 -0.20676,-0.06474zM270.38207,183.48107c0.01196,0.11797 0.04293,0.20384 0.05903,0.28026c0.02395,0.23597 0.12921,0.36891 0.32649,0.44969c0.16754,0.06199 0.32152,0.18159 0.47959,0.25962c0.04457,0.02825 0.07965,0.07253 0.16098,-0.03054c-0.16054,-0.21212 -0.30216,-0.45636 -0.40988,-0.72333c-0.02558,-0.06037 -0.09987,-0.10739 -0.1593,-0.14506c-0.13783,-0.04314 -0.26085,-0.07692 -0.45687,-0.09065zM267.27305,187.12015c0.18654,0.02984 0.37843,0.08514 0.57864,0.05735c-0.06856,-0.2642 -0.09787,-0.52566 -0.22458,-0.76049c-0.20554,0.00231 -0.38257,-0.04361 -0.57615,0.07668c0.05781,0.21327 0.09123,0.43319 0.22211,0.62645zM272.8874,190.30081c0.06856,0.2642 0.18992,0.47354 0.33026,0.65072c0.20554,-0.0023 0.3867,0.00202 0.60587,-0.05788c-0.01323,-0.18504 -0.08466,-0.34067 -0.1804,-0.48963c-0.25009,-0.02593 -0.49073,-0.06792 -0.75568,-0.1033zM267.43426,185.25714c-0.16098,0.03053 -0.26372,0.03168 -0.37059,0.07441c-0.07305,0.01998 -0.13124,0.04934 -0.18944,0.07875c-0.02063,0.20772 -0.00203,0.41825 0.08961,0.60879c0.19601,0.01376 0.39204,0.02751 0.591,-0.06732c-0.04829,-0.2293 -0.0669,-0.43982 -0.12056,-0.6946zM271.95411,183.79225c-0.07391,-0.2897 -0.11683,-0.4935 -0.17999,-0.73225c-0.04992,-0.05373 -0.16339,-0.10353 -0.28105,-0.11179c-0.10811,-0.02431 -0.19315,-0.12234 -0.32441,-0.07298c-0.04083,0.17287 -0.0235,0.31632 0.03305,0.46256c0.24724,0.13451 0.47011,0.27571 0.7524,0.45451zM275.36397,188.97697c-0.12178,0.03331 -0.24353,0.06659 -0.36526,0.09983c-0.12178,0.03332 -0.22861,0.07602 -0.35037,0.10928c0.09697,0.216 0.14942,0.40378 0.29386,0.53943c0.11761,0.00827 0.20427,-0.06932 0.29631,-0.1214c0.09201,-0.05212 0.22863,-0.07603 0.28022,-0.19788c-0.04708,-0.16231 -0.06441,-0.30576 -0.15482,-0.42927zM266.17769,187.17715c0.2245,-0.03446 0.45031,-0.00183 0.68307,-0.11943c-0.05245,-0.18775 -0.11437,-0.35947 -0.1668,-0.54723c-0.22451,0.03444 -0.41517,0.04613 -0.60335,0.19192c0.00786,0.15953 -0.01403,0.30027 0.08712,0.47471zM274.47104,186.75541c0.21048,0.26583 0.40076,0.49672 0.59102,0.72762c0.12713,-0.00779 0.24474,0.0005 0.34089,-0.09319c-0.05905,-0.28029 -0.21958,-0.49237 -0.37067,-0.72052c-0.12714,0.00781 -0.25423,0.0156 -0.37597,0.04888c-0.06893,-0.0216 -0.10275,0.00114 -0.18528,0.03717zM268.63973,184.80634c0.2204,0.00708 0.39871,0.12004 0.59349,0.06676c-0.04418,-0.27086 -0.083,-0.51624 -0.18538,-0.75778c-0.17047,0.04663 -0.31902,-0.04751 -0.50308,0.05672c-0.02061,0.20772 0.05616,0.38888 0.09494,0.63426zM272.41798,192.9622c-0.02272,-0.16896 -0.0698,-0.33122 -0.15071,-0.47081c-0.23526,-0.0165 -0.46099,-0.04912 -0.72595,-0.08445c0.10648,0.1999 0.16841,0.37163 0.24104,0.5943c0.23527,0.01652 0.44617,0.03971 0.6356,-0.03905zM270.00772,183.35436c-0.23111,-0.05807 -0.42304,-0.11337 -0.63683,-0.02798c-0.00162,0.1756 -0.00867,0.32571 0.07225,0.4653c0.21626,0.04866 0.42299,0.11336 0.67849,0.16478c-0.01859,-0.2105 -0.04668,-0.40493 -0.11396,-0.60211zM273.34805,191.3875c0.11186,0.2254 0.09663,0.45866 0.24109,0.59432c0.20554,-0.0023 0.3706,-0.0744 0.53032,-0.17197c-0.0281,-0.19442 -0.04131,-0.37946 -0.17625,-0.53119c-0.1853,0.03719 -0.36111,0.05835 -0.59512,0.10884zM265.66856,188.48855c0.17046,-0.04661 0.32189,-0.06108 0.46677,-0.16807c-0.09701,-0.21598 -0.0966,-0.45864 -0.25181,-0.64527c-0.16098,0.03053 -0.27736,0.08931 -0.37762,0.22454c0.04293,0.20384 0.11021,0.40102 0.16268,0.58876zM275.17509,186.18565c0.17582,-0.02112 0.28265,-0.06382 0.39374,-0.14806c-0.05244,-0.18778 -0.14405,-0.37831 -0.32236,-0.4912c-0.1461,0.03995 -0.29217,0.07988 -0.45314,0.11042c0.08751,0.23208 0.25632,0.36108 0.38179,0.52887zM265.92389,191.96243c0.13123,-0.04933 0.23814,-0.09206 0.30993,-0.17905c-0.0916,-0.19051 -0.20227,-0.3489 -0.34674,-0.48455c-0.13659,0.02386 -0.24348,0.06657 -0.33964,0.16022c0.08215,0.20662 0.25096,0.3356 0.37643,0.50338zM266.50074,185.59326c-0.23523,-0.01653 -0.32602,0.10262 -0.3966,0.25666c-0.06645,0.11246 -0.10317,0.2438 -0.01276,0.36729c0.17582,-0.02112 0.33677,-0.05165 0.49647,-0.14921c-0.02272,-0.16896 -0.05491,-0.32184 -0.08712,-0.47471zM270.2022,193.56807c0.1622,0.03648 0.28105,0.11176 0.42177,0.04633c-0.06278,-0.48137 -0.39255,-0.57986 -0.79945,-0.61677c0.13082,0.19328 0.24684,0.37719 0.37767,0.57043zM267.7251,184.31531c-0.02602,0.18226 -0.00864,0.32573 0.06813,0.50684c0.14071,-0.06546 0.29881,0.01257 0.43417,-0.07833c0.04211,-0.10583 0.00165,-0.17558 -0.00495,-0.26809c-0.02146,-0.10188 -0.00374,-0.20108 -0.10773,-0.26698c-0.12714,0.00781 -0.25427,0.01563 -0.38961,0.10654zM270.9983,188.72892c-0.19353,0.12027 -0.2208,0.23552 -0.09656,0.33625c0.18363,0.13842 0.38632,0.24471 0.57412,0.34155c0.05941,0.03766 0.14323,0.06861 0.22988,-0.00895c-0.21999,-0.24974 -0.45895,-0.46734 -0.70744,-0.66889zM265.09785,189.38566c-0.10812,-0.02433 -0.19067,0.0117 -0.26251,0.0987c0.03881,0.24541 0.04377,0.51354 0.19484,0.74171c0.20305,-0.13636 0.25879,-0.29982 0.17663,-0.50639c-0.02146,-0.1019 -0.00911,-0.22661 -0.10897,-0.33401zM269.87511,190.97628c-0.13287,0.22493 -0.13158,0.29202 0.00209,0.37669c0.21751,0.11568 0.44987,0.24079 0.70534,0.29218c-0.19152,-0.29796 -0.3777,-0.57043 -0.70743,-0.6689zM266.96022,192.42007c-0.10934,-0.09134 -0.21342,-0.15723 -0.30788,-0.23917c-0.19851,-0.14786 -0.19852,-0.14782 -0.44368,0.09435c0.08506,0.09805 0.17542,0.22153 0.22537,0.27521c0.19484,-0.05325 0.35574,-0.08379 0.52618,-0.1304zM274.91921,191.38911c-0.01732,-0.14349 0.03836,-0.30694 -0.12509,-0.41047c-0.13123,0.04934 -0.25711,0.1242 -0.41269,0.18021c0.02271,0.16897 0.02104,0.34456 0.11145,0.46804c0.14072,-0.06548 0.28686,-0.10538 0.42633,-0.23783zM266.36538,190.69633c-0.14573,-0.20265 -0.2819,-0.42146 -0.42762,-0.62412c-0.09324,-0.01489 -0.18115,-0.00437 -0.20839,0.11084c0.04829,0.2293 0.1453,0.44536 0.31,0.61588c0.12713,-0.00779 0.22448,-0.03446 0.32603,-0.10265zM271.92104,193.35408c-0.05159,0.12188 -0.03962,0.23989 0.01159,0.36062c0.07843,0.00551 0.15683,0.011 0.23525,0.01651c0.10274,-0.00111 0.19604,0.01376 0.28268,-0.06384c0.05696,-0.09641 0.07473,-0.19554 0.03836,-0.3069c-0.18121,-0.00434 -0.38672,-0.00204 -0.56787,-0.00643zM274.08795,190.3768c0.02271,0.16897 0.08876,0.29912 0.17914,0.42261c0.16507,-0.07207 0.32065,-0.1281 0.46136,-0.19351c0.03132,-0.15681 -0.01985,-0.27755 -0.09952,-0.35009c-0.18528,0.03719 -0.3706,0.0744 -0.54107,0.12096zM271.08086,193.70507c0.11761,0.00827 0.23523,0.01653 0.36238,0.00873c0.02432,-0.00665 0.04334,-0.03882 0.0772,-0.06156c-0.0066,-0.09252 0.02063,-0.20771 -0.06979,-0.33123c-0.14738,-0.02707 -0.31492,-0.08902 -0.50022,-0.05184c-0.00161,0.17559 0.04958,0.29632 0.13047,0.4359zM269.29998,193.74747c0.15395,0.11958 0.07929,0.31518 0.22786,0.40927c0.15679,0.011 0.30001,0.07968 0.49481,0.02638c-0.00786,-0.15953 -0.02521,-0.30305 -0.1874,-0.33947c-0.1622,-0.03648 -0.2864,-0.13724 -0.53527,-0.09617zM265.17142,190.71293c0.06603,0.13014 0.12261,0.27636 0.17377,0.39708c0.00535,0.02548 0.0446,0.02824 0.07431,0.04704c0.07717,-0.06152 0.19891,-0.09478 0.23973,-0.26767c-0.07143,-0.15561 -0.15767,-0.32068 -0.23448,-0.5018c-0.12585,0.07483 -0.19767,0.16185 -0.25339,0.32529zM275.1453,190.38411c0.14611,-0.03994 0.30705,-0.07048 0.42878,-0.10377c0.04084,-0.17285 0.02352,-0.31634 -0.00335,-0.44372c-0.11352,-0.04982 -0.19477,0.05327 -0.27734,0.0893c-0.08255,0.03607 -0.17992,0.06267 -0.2315,0.1846c-0.00825,0.08312 -0.00163,0.17561 0.08339,0.27364zM269.0032,183.29218c-0.15145,0.01451 -0.26374,0.03169 -0.37597,0.0489c-0.03921,-0.00277 -0.08256,0.03604 -0.10692,0.04271c-0.06645,0.11246 -0.05448,0.23048 -0.00325,0.35121c0.16631,-0.00507 0.32316,0.00593 0.49359,-0.04059c0.01236,-0.12465 0.00039,-0.24266 -0.00747,-0.40217zM266.71887,192.86329c0.15518,0.18664 0.31038,0.37323 0.54687,0.45679c0.04083,-0.17285 0.10192,-0.31085 0.03052,-0.46646c-0.30003,-0.07968 -0.30005,-0.07966 -0.57736,0.00964zM267.35577,184.45666c-0.44368,0.09437 -0.45314,0.11041 -0.47537,0.49382c0.16098,-0.03053 0.31653,-0.08656 0.47751,-0.11705c0.05159,-0.12188 0.03958,-0.23986 -0.00208,-0.3767zM272.84797,192.92551c0.16632,-0.00506 0.30294,-0.02896 0.43832,-0.11984c0.00413,-0.04156 0.00289,-0.10859 0.00164,-0.17563c-0.01074,-0.05096 -0.03633,-0.11135 -0.04706,-0.16226c-0.16631,0.00509 -0.33803,-0.01534 -0.48825,0.06614c-0.01235,0.12464 0.02932,0.26146 0.09538,0.3916zM270.271,182.77034c0.00126,0.06702 0.00789,0.15955 0.04294,0.20386c0.13497,0.15174 0.30248,0.21366 0.53242,0.20471c-0.00246,-0.13407 0.04373,-0.28141 -0.01696,-0.38611c-0.18654,-0.02984 -0.35948,-0.11729 -0.55839,-0.02247zM275.77237,187.24842c0.02434,-0.00665 0.0487,-0.01332 0.09738,-0.02663c0.0045,-0.2842 -0.06402,-0.54842 -0.13256,-0.81259c-0.13247,-0.01767 -0.215,0.01839 -0.3058,0.1375c0.11186,0.2254 0.21424,0.46684 0.34096,0.70171zM271.01042,190.43675c-0.16593,-0.23757 -0.30751,-0.48178 -0.56959,-0.62568c-0.01487,-0.00943 -0.08251,0.03606 -0.10151,0.06818c-0.04743,0.08035 -0.02597,0.18226 0.04833,0.22928c0.16466,0.17056 0.37683,0.26076 0.62278,0.32824zM273.68126,192.72459c0.13662,-0.02384 0.27321,-0.04775 0.39908,-0.12258c0.06645,-0.11247 0.08418,-0.21164 0.02766,-0.35784c-0.15561,0.05603 -0.32604,0.1026 -0.46675,0.16803c-0.02722,0.1152 -0.02059,0.20772 0.04006,0.3124zM265.67541,186.74861c-0.14772,0.21555 -0.2765,0.39895 -0.28639,0.65765c0.16218,0.03647 0.28807,-0.03833 0.40858,-0.13865c-0.01324,-0.18502 -0.02108,-0.34456 -0.12223,-0.51902zM272.13972,182.71752c0.00372,0.20109 0.00907,0.22653 0.05366,0.25482c0.13906,0.11018 0.32028,0.11456 0.48657,0.10949c0.06354,-0.0039 0.12586,-0.07488 0.06518,-0.17953c-0.19067,0.01172 -0.34588,-0.17493 -0.60546,-0.18474zM275.28872,187.82526c0.10234,0.2415 0.18039,0.48963 0.4235,0.66566c0.02885,-0.29081 -0.08302,-0.51627 -0.16515,-0.72283c-0.08377,-0.031 -0.14195,-0.0016 -0.25834,0.0572zM268.15057,183.76782c0.00287,-0.10858 0.0206,-0.20774 0.02349,-0.31631c-0.18121,-0.00436 -0.34215,0.02618 -0.40196,0.23117c-0.01361,0.05762 -0.02722,0.11521 0.02271,0.16896c0.10811,0.02433 0.21503,-0.01838 0.35574,-0.0838zM269.38775,192.147c-0.0854,0.14465 -0.09367,0.2277 0.03468,0.28691c0.11352,0.04983 0.22702,0.09961 0.35002,0.13334c0.05404,0.01213 0.11764,0.00827 0.14074,-0.06543c-0.14983,-0.16112 -0.31329,-0.26464 -0.52542,-0.35485zM273.2915,186.22907c-0.1552,-0.18665 -0.3294,-0.34111 -0.55101,-0.41527c-0.01488,-0.00943 -0.08252,0.03607 -0.09201,0.05211c-0.01898,0.0321 0.00659,0.09253 0.03634,0.11134c0.20264,0.10629 0.362,0.25137 0.60675,0.2518zM273.24185,185.13782c0.17707,0.04591 0.34054,0.14944 0.5609,0.15658c-0.1457,-0.20266 -0.29018,-0.33833 -0.4078,-0.34659c-0.10811,-0.02433 -0.14611,0.03994 -0.15308,0.19005zM264.9331,188.42021c-0.0693,0.22107 -0.20219,0.44604 -0.09033,0.67144c0.28967,-0.21394 0.17782,-0.43934 0.09033,-0.67144zM267.77019,189.90798c-0.01897,0.03211 -0.01364,0.05769 -0.0326,0.08976c0.15806,0.07801 0.25386,0.22699 0.43502,0.23136c0.07183,-0.08699 0.08542,-0.14462 0.03959,-0.23988c-0.13247,-0.01767 -0.27981,-0.04476 -0.44204,-0.08123zM272.02674,188.23219c-0.17955,-0.17995 -0.32401,-0.31561 -0.5118,-0.41249c-0.02971,-0.01882 -0.07841,-0.00551 -0.10688,0.0427c-0.0095,0.01609 -0.01361,0.05762 -0.00824,0.0831c0.15518,0.18664 0.3335,0.29953 0.62693,0.28666zM269.93137,182.93058c0.02722,-0.11521 0.02599,-0.18224 -0.03758,-0.17836c-0.13247,-0.01767 -0.27445,-0.01926 -0.41642,-0.02088c-0.0879,0.01055 -0.11639,0.05874 -0.08541,0.1446c0.19191,0.05535 0.35413,0.09182 0.53941,0.05462zM274.49627,192.07062c0.0066,0.09252 -0.00162,0.17563 0.00495,0.26812c0.00535,0.02548 0.03509,0.0443 0.07016,0.08862c0.1139,-0.1928 0.26285,-0.34132 0.32682,-0.58789c-0.15561,0.05603 -0.26249,0.09872 -0.40196,0.23117zM270.42152,185.86855c-0.15806,-0.07804 -0.30132,-0.14668 -0.48911,-0.24354c0.0537,0.25482 0.15891,0.38771 0.31699,0.46574c0.09202,-0.05211 0.13538,-0.0909 0.17209,-0.22222zM267.81283,191.14939c-0.14199,-0.00162 -0.2864,-0.13725 -0.47997,-0.01697c0.32814,0.27405 0.40237,0.32111 0.47959,0.25959c0.04743,-0.08035 0.04623,-0.14739 0.00039,-0.24264zM272.56646,187.2492c-0.10895,-0.33398 -0.28728,-0.44688 -0.54811,-0.52381c0.04545,0.33791 0.32936,0.34106 0.54811,0.52381zM269.62231,193.44376c-0.10359,-0.30852 -0.26708,-0.41207 -0.46436,-0.49284c-0.01486,-0.00941 -0.0487,0.01332 -0.06767,0.04545c-0.02849,0.04819 -0.01773,0.09918 0.01197,0.11798c0.13905,0.1102 0.29713,0.18819 0.52002,0.32938zM267.58008,192.06195c-0.1622,-0.03648 -0.32029,-0.11454 -0.51915,-0.01974c0.12012,0.14231 0.26334,0.21093 0.39167,0.27017c0.10152,-0.06817 0.12462,-0.14184 0.12749,-0.25043zM270.33637,194.20513c0.20018,-0.02779 0.36362,0.07574 0.51796,-0.04731c-0.17955,-0.17995 -0.17955,-0.17995 -0.49195,-0.13497c-0.00413,0.04156 -0.00824,0.0831 -0.02598,0.18227zM265.52292,189.08087c-0.08828,0.25319 -0.021,0.45039 0.07063,0.64091c0.11761,0.00827 0.15561,-0.05603 0.13948,-0.13243c-0.07144,-0.15559 -0.13334,-0.32734 -0.21014,-0.50844zM272.89878,193.28891c-0.0421,0.10582 -0.07468,0.19557 -0.014,0.30023c0.11225,-0.01721 0.22452,-0.03442 0.29628,-0.12141c0.0326,-0.08975 0.03134,-0.15679 -0.00911,-0.22659c-0.09326,-0.01489 -0.16632,0.00508 -0.27321,0.04777zM268.79968,187.88845c0.09036,0.12349 0.16057,0.21214 0.2687,0.23644c0.03921,0.00277 0.07305,-0.01996 0.1069,-0.0427c0.02849,-0.04819 0.03675,-0.1313 -0.01731,-0.14347c-0.08917,-0.05648 -0.19316,-0.12235 -0.35827,-0.05025zM275.31996,191.09088c0.12999,-0.1164 0.13161,-0.29201 0.17782,-0.43936c-0.30707,0.07048 -0.32601,0.10264 -0.17782,0.43936zM273.78824,184.24741c0.18493,0.20545 0.18492,0.20545 0.3595,0.1173c-0.07016,-0.08861 -0.15523,-0.18664 -0.3595,-0.1173zM268.62197,189.1227c0.08255,-0.03607 0.111,-0.08425 0.09078,-0.11911c-0.07144,-0.15559 -0.12548,-0.1678 -0.34463,-0.10786c0.07552,0.11408 0.16469,0.1706 0.25386,0.22704zM269.10481,194.04332c-0.02686,-0.12741 -0.06319,-0.23872 -0.18612,-0.27247c-0.10725,0.28533 -0.08707,0.32019 0.18612,0.27247zM274.50754,184.23936c-0.04708,-0.16231 -0.15641,-0.25366 -0.25093,-0.33558c-0.05942,-0.03766 -0.13249,-0.01768 -0.13,0.1164c0.09452,0.08192 0.20389,0.17331 0.38094,0.2192zM271.49524,194.14428c-0.1296,-0.12625 -0.23237,-0.12512 -0.33803,-0.01537c0,0 -0.00412,0.04156 0.01075,0.05096c0.07968,0.07251 0.19601,0.0138 0.3273,-0.03557zM269.55447,186.8871c-0.02722,0.11521 0.01323,0.18504 0.08214,0.20659c0.02971,0.01882 0.07841,0.00551 0.11225,-0.01721c0.03385,-0.02275 0.0326,-0.08973 0.00287,-0.10855c-0.03509,-0.04431 -0.0945,-0.08195 -0.19728,-0.08082zM273.7753,193.04925c-0.14199,-0.00162 -0.22451,0.03443 -0.24098,0.20065c0.16631,-0.00509 0.23401,-0.0505 0.24098,-0.20065z" fill="#000000"/><path d="M264.43826,183.38163c-0.31858,0.50477 -0.63719,1.00959 -0.94088,1.52381c-0.34168,0.5785 -0.62392,1.1946 -0.82237,1.84172c-0.05983,0.20499 -0.07098,0.39663 -0.12543,0.62708c-0.23776,-0.15059 -0.45524,-0.26621 -0.65374,-0.41406c-1.21014,-0.85481 -2.48256,-1.63869 -3.72655,-2.47075c-1.11024,-0.74739 -2.21514,-1.46926 -3.33488,-2.20057c-0.76315,-0.50543 -1.51143,-1.0015 -2.27455,-1.50693c-0.71858,-0.47722 -1.44124,-0.91286 -2.15983,-1.39005c-0.05944,-0.03766 -0.11888,-0.07531 -0.16882,-0.129c-0.03058,-0.32848 0.03753,-0.61658 0.1394,-0.92737c0.16712,-0.49034 0.37343,-0.97789 0.65403,-1.41839c0.0854,-0.14465 0.15596,-0.29865 0.30621,-0.38013c-0.0557,0.16346 -0.19516,0.2959 -0.2253,0.51971c0.30414,0.03812 0.52828,0.24627 0.77553,0.3808c0.01486,0.00941 0.0297,0.01882 0.0392,0.00276c0.47708,0.12556 0.90798,0.3985 1.3715,0.58166c0.16754,0.06197 0.36361,0.07573 0.4932,0.20196c0.27816,0.22037 0.64591,0.25453 0.92414,0.47491c0.01486,0.00941 0.05408,0.01216 0.0838,0.03101c0.31075,0.13059 0.61617,0.23574 0.90796,0.39847c0.32688,0.20703 0.7,0.26672 1.0079,0.50587c0.25009,0.02593 0.42426,0.18044 0.64176,0.29611c0.02971,0.01882 0.04461,0.02822 0.07429,0.04705c0.3731,0.05968 0.64716,0.32156 0.98231,0.44553c0.33511,0.12394 0.62817,0.35371 0.95382,0.49371c0.37023,0.16827 0.75404,0.27884 1.08216,0.55296c0.02971,0.01882 0.0743,0.04707 0.11351,0.04982c0.2204,0.00708 0.37021,0.16826 0.558,0.26514c0.08917,0.05648 0.18362,0.1384 0.29179,0.16273c0.17167,0.02044 0.28106,0.11178 0.4148,0.1965c0.0743,0.04707 0.13911,0.1102 0.21751,0.11567c0.25009,0.02593 0.43913,0.18981 0.63227,0.31214c0.0743,0.04707 0.13909,0.11016 0.21752,0.11568c0.21088,0.02321 0.36485,0.14277 0.52829,0.24631c0.26748,0.1694 0.60134,0.22631 0.85927,0.41177c0.03509,0.04429 0.1081,0.02435 0.1622,0.03648z" fill="#87d7dc"/><path d="M264.43824,183.38162c-0.05406,-0.01217 -0.12712,0.00783 -0.1717,-0.02043c-0.25798,-0.18545 -0.58235,-0.25846 -0.85928,-0.41178c-0.16342,-0.10354 -0.31741,-0.22313 -0.52828,-0.24631c-0.07843,-0.00551 -0.14323,-0.06864 -0.21751,-0.11565c-0.19317,-0.12232 -0.39166,-0.27019 -0.63227,-0.31221c-0.07841,-0.00551 -0.13375,-0.0847 -0.21752,-0.11565c-0.13372,-0.08469 -0.25261,-0.15999 -0.4148,-0.1965c-0.10811,-0.02433 -0.20267,-0.10631 -0.2918,-0.16276c-0.18779,-0.09684 -0.33763,-0.25799 -0.558,-0.26511c-0.03921,-0.00277 -0.08379,-0.03099 -0.11349,-0.04981c-0.31329,-0.26466 -0.71198,-0.38472 -1.08219,-0.55294c-0.34053,-0.14943 -0.63352,-0.3792 -0.95381,-0.49377c-0.33511,-0.12391 -0.6092,-0.38585 -0.9823,-0.4455c-0.02434,0.00663 -0.04458,-0.02825 -0.0743,-0.04707c-0.19317,-0.12232 -0.39169,-0.27016 -0.6418,-0.29611c-0.29842,-0.25527 -0.67152,-0.31492 -1.00786,-0.5059c-0.28231,-0.1788 -0.59722,-0.26787 -0.90798,-0.39849c-0.02971,-0.01882 -0.0541,-0.01213 -0.0838,-0.03097c-0.27816,-0.22037 -0.6459,-0.25453 -0.92412,-0.47491c-0.15395,-0.11958 -0.33513,-0.12396 -0.4932,-0.20198c-0.45401,-0.19924 -0.8944,-0.45609 -1.37147,-0.58165c-0.01486,-0.00941 -0.03922,-0.00274 -0.03922,-0.00274c-0.24725,-0.1345 -0.47138,-0.34273 -0.77554,-0.38079c0.02062,-0.20773 0.17498,-0.33079 0.22531,-0.51969c0.07592,-0.12854 0.15187,-0.25707 0.30749,-0.3131c0.08917,0.05648 0.18365,0.1384 0.29177,0.16272c0.37845,0.08513 0.68099,0.2989 1.01203,0.46438c0.33099,0.16548 0.70945,0.25062 1.00786,0.50587c0.25009,0.02593 0.4243,0.18039 0.6418,0.29609c0.02971,0.01882 0.0743,0.04704 0.11351,0.0498c0.1812,0.00435 0.31075,0.1306 0.45401,0.19925c0.0743,0.04707 0.1486,0.09409 0.21751,0.11568c0.37436,0.1267 0.75405,0.27884 1.0958,0.49531c0.04457,0.02825 0.09451,0.08197 0.14321,0.06863c0.196,0.01378 0.33511,0.12391 0.48371,0.21804c0.15395,0.11958 0.369,0.1012 0.53778,0.23023c0.22826,0.16665 0.49858,0.22746 0.7553,0.3459c0.34589,0.17492 0.71482,0.27612 1.05655,0.49259c0.05944,0.03766 0.12424,0.10078 0.18781,0.09686c0.15683,0.01105 0.28104,0.11174 0.42426,0.18039c0.11885,0.0753 0.2472,0.13451 0.37022,0.16828c0.23111,0.05807 0.44327,0.14827 0.65131,0.28c0.32151,0.18156 0.69999,0.2667 0.99837,0.52193c0.02971,0.01882 0.08376,0.03102 0.1135,0.04984c0.34053,0.14943 0.69049,0.28275 1.01198,0.46436c0.32688,0.20703 0.72971,0.28555 1.0376,0.52474c0.04457,0.02825 0.10811,0.02431 0.16219,0.03648c0.21213,0.0902 0.42965,0.20589 0.59432,0.37644c-0.03261,0.08976 -0.07053,0.15403 -0.09367,0.2277c-0.17746,0.19674 -0.32106,0.37074 -0.45931,0.57023z" fill="#b0eef2"/><path d="M268.36358,194.19213c-0.31073,-0.13058 -0.54314,-0.25573 -0.72804,-0.46118c-0.04293,-0.20387 0.01687,-0.40883 0.06183,-0.62321c0.26941,-1.04378 0.55369,-2.07811 0.97579,-3.06935c0.31898,-0.74744 0.64741,-1.51097 1.05015,-2.2274c0.11389,-0.19282 0.25214,-0.39233 0.32149,-0.61337c0.03261,-0.08976 0.08957,-0.18618 0.14649,-0.28256c0.28723,-0.34801 0.48528,-0.75248 0.72792,-1.12876c0.33754,-0.53695 0.73453,-1.03627 1.16124,-1.5167c0.22076,-0.23552 0.42672,-0.48047 0.64211,-0.74149c0.1626,-0.2061 0.36562,-0.34248 0.55381,-0.48826c0.3339,0.05695 0.44737,0.10672 0.78499,0.36472c-0.22362,0.34409 -0.51211,0.62508 -0.76548,0.95033c-0.24388,0.3092 -0.49726,0.63448 -0.7263,0.95311c-0.23852,0.33466 -0.47169,0.69488 -0.69533,1.03896c-0.22902,0.31859 -0.37836,0.70978 -0.652,1.00021c-0.13453,0.40059 -0.3879,0.72584 -0.58185,1.08878c-0.18446,0.34686 -0.36351,0.7192 -0.53313,1.07549c-0.17909,0.37235 -0.3433,0.75407 -0.51706,1.1519c-0.15475,0.36568 -0.33384,0.738 -0.47369,1.11313c-0.14935,0.39116 -0.25953,0.78505 -0.39405,1.18566c-0.14399,0.41665 -0.28388,0.79172 -0.35897,1.22995z" fill="#d1eaeb"/><path d="M264.87318,182.81802c0.02312,-0.07368 0.06107,-0.13798 0.09365,-0.22771c-0.1647,-0.17055 -0.35783,-0.29288 -0.59432,-0.37645c-0.05405,-0.01218 -0.11763,-0.00827 -0.1622,-0.03648c-0.30788,-0.23917 -0.70126,-0.33375 -1.0376,-0.52473c-0.31202,-0.19763 -0.6715,-0.31493 -1.01198,-0.46438c-0.02971,-0.01882 -0.08379,-0.031 -0.11349,-0.04981c-0.29841,-0.25528 -0.67149,-0.31494 -0.99838,-0.52197c-0.19317,-0.12232 -0.42016,-0.22193 -0.65129,-0.27999c-0.1378,-0.04314 -0.26619,-0.10236 -0.37021,-0.16826c-0.13372,-0.08469 -0.2431,-0.17605 -0.42428,-0.1804c-0.06353,0.00391 -0.12836,-0.05925 -0.18779,-0.09689c-0.32688,-0.20703 -0.71071,-0.31763 -1.05657,-0.49257c-0.25671,-0.11845 -0.52706,-0.17923 -0.75528,-0.34591c-0.15395,-0.11958 -0.36897,-0.1012 -0.53778,-0.23023c-0.13909,-0.11019 -0.29303,-0.22977 -0.4837,-0.21809c-0.05405,-0.01218 -0.09864,-0.04039 -0.14321,-0.06861c-0.34172,-0.21647 -0.70655,-0.35924 -1.0958,-0.49531c-0.08377,-0.031 -0.14858,-0.09409 -0.21747,-0.11569c-0.13372,-0.08469 -0.27285,-0.19485 -0.454,-0.19922c-0.03921,-0.00277 -0.08377,-0.03097 -0.11349,-0.04981c-0.19317,-0.12232 -0.39169,-0.27017 -0.6418,-0.29611c-0.29841,-0.25525 -0.67688,-0.3404 -1.00788,-0.50587c-0.33099,-0.16548 -0.64837,-0.38859 -1.01198,-0.46436c-0.10812,-0.02433 -0.20265,-0.10631 -0.29179,-0.16275c0.07057,-0.15404 0.21664,-0.19396 0.29793,-0.29706c0.67149,0.31491 1.32281,0.59494 1.96456,0.89105c0.7107,0.31769 1.39706,0.64202 2.09828,0.97571c0.65666,0.30552 1.3228,0.59492 1.98893,0.88437c0.82421,0.3675 1.64307,0.70948 2.45241,1.06753c0.61209,0.27728 1.22413,0.55459 1.84571,0.81576c0.95257,0.42668 1.88206,0.92709 2.85359,1.32163c0.12834,0.05922 0.27569,0.08629 0.38093,0.2192c-0.0854,0.14465 -0.21541,0.261 -0.33057,0.38683c-0.07717,0.06154 -0.13285,0.22495 -0.2831,0.30648z" fill="#87d7dc"/><path d="M250.76956,176.62307c-0.16959,0.35627 -0.38913,0.65884 -0.54385,1.02451c-0.16836,0.42332 -0.32182,0.85601 -0.3862,1.34517c-0.8618,-0.54583 -1.70871,-1.08225 -2.54079,-1.60927c-0.05906,-0.28028 0.00493,-0.52682 0.04453,-0.76671c0.08458,-0.45429 0.27315,-0.84267 0.47123,-1.24715c0.0095,-0.01609 0.04332,-0.03879 0.06768,-0.04547c0.00372,0.20106 0.15105,0.22813 0.28891,0.2713c0.34464,0.10787 0.67975,0.2318 0.96743,0.43611c0.05944,0.03766 0.11886,0.07528 0.18779,0.09684c0.33928,0.08239 0.62692,0.28667 0.93773,0.41728c0.18241,0.07142 0.32024,0.1145 0.50558,0.07731z" fill="#61afb4"/><path d="M266.99172,183.82866c-0.42133,0.50595 -0.73866,1.07775 -1.11541,1.61194c-0.16671,0.24767 -0.28884,0.52362 -0.411,0.79957c-0.25504,0.5009 -0.57895,0.98018 -0.77451,1.51873c-0.08418,0.21164 -0.16838,0.42329 -0.22821,0.62828c-0.03674,0.13131 -0.08827,0.2532 -0.15473,0.36571c-0.05404,-0.01213 -0.09328,-0.01492 -0.12301,-0.03377c-0.11884,-0.0753 -0.23772,-0.15055 -0.35659,-0.22583c0.00286,-0.10857 0.01116,-0.19168 0.02886,-0.29085c0.16337,-0.69138 0.33623,-1.3989 0.70641,-2.02562c0.30783,-0.55578 0.62513,-1.12754 0.99242,-1.64569c0.28599,-0.41507 0.5571,-0.83951 0.95242,-1.16319c-0.01771,0.09917 -0.11926,0.16735 -0.06805,0.28808c0.14445,0.13565 0.30915,0.30621 0.55139,0.1726z" fill="#61aeb3"/><path d="M265.76843,183.58378c-0.13164,0.29199 -0.37264,0.49259 -0.54883,0.75638c-0.35653,0.5691 -0.7131,1.13815 -1.02504,1.73545c-0.24552,0.4848 -0.42211,0.99125 -0.55952,1.50039c-0.03674,0.13131 -0.07342,0.26259 -0.11015,0.3939c-0.20803,-0.13176 -0.38636,-0.24465 -0.57949,-0.36702c-0.06441,-0.30576 0.0037,-0.59386 0.11094,-0.8792c0.12086,-0.34296 0.2513,-0.70195 0.42625,-1.03275c0.3677,-0.76072 0.815,-1.44897 1.25695,-2.16267c0.07591,-0.12854 0.15186,-0.25712 0.29259,-0.32253c0.0743,0.04707 0.13911,0.11016 0.21752,0.11567c0.18656,0.02984 0.35539,0.15883 0.51878,0.26233z" fill="#61aeb3"/><path d="M250.76957,176.62306c-0.16098,0.03053 -0.30829,0.00343 -0.46636,-0.0746c-0.31075,-0.1306 -0.59846,-0.33491 -0.93772,-0.41728c-0.06893,-0.02158 -0.12838,-0.05921 -0.18783,-0.09686c-0.31205,-0.19761 -0.63227,-0.31216 -0.9674,-0.4361c-0.123,-0.03375 -0.2852,-0.07021 -0.28893,-0.27131c0.12751,-0.25044 0.29008,-0.4566 0.48776,-0.61844c0.23652,0.08353 0.48247,0.15104 0.67151,0.31492c0.02971,0.01882 0.08379,0.031 0.1135,0.04983c0.32562,0.14 0.66615,0.28944 0.9823,0.4455c0.14322,0.06863 0.26207,0.14393 0.4148,0.1965c0.19189,0.05534 0.37971,0.15219 0.4957,0.33605c-0.0326,0.08975 -0.07054,0.15403 -0.09367,0.2277c-0.06645,0.11246 -0.15723,0.23164 -0.22365,0.34409z" fill="#87d7dc"/><path d="M273.96607,188.82019c-0.32192,0.06109 -0.60706,-0.00913 -0.88282,-0.09545c-0.06893,-0.02157 -0.15808,-0.07806 -0.20803,-0.13176c-0.35496,-0.40145 -0.7479,-0.73869 -1.1503,-1.0598c-0.01486,-0.00941 -0.03508,-0.04429 -0.04047,-0.06979c-0.0066,-0.09252 0.04082,-0.17287 0.13285,-0.22498c0.02971,0.01882 0.06895,0.02155 0.09865,0.04039c0.34706,0.24195 0.72268,0.43568 1.13086,0.53963c0.20678,0.06473 0.37024,0.16827 0.50107,0.36153c0.13619,0.21876 0.30089,0.38928 0.41814,0.64022z" fill="#cce5e6"/><path d="M272.29194,186.43504c0.01236,-0.12465 0.06519,-0.17949 0.13823,-0.19947c0.73217,0.41961 0.73218,0.41957 1.50807,0.55775c0.23362,0.19214 0.41975,0.46457 0.61,0.69551c-0.03674,0.13131 -0.13536,0.0909 -0.1989,0.09481c-0.22987,0.00897 -0.4449,0.02733 -0.67066,-0.00529c-0.14738,-0.02709 -0.26086,-0.07693 -0.3607,-0.1843c-0.31454,-0.33172 -0.65336,-0.6567 -1.02605,-0.95903z" fill="#cce5e6"/><path d="M251.00271,176.2629c0.02312,-0.07369 0.06109,-0.138 0.09367,-0.22771c-0.11598,-0.18387 -0.30376,-0.28071 -0.49571,-0.33604c-0.15272,-0.05255 -0.27159,-0.12784 -0.4148,-0.19651c-0.31615,-0.15608 -0.65665,-0.30551 -0.98229,-0.44552c-0.02971,-0.01882 -0.0838,-0.03099 -0.1135,-0.04983c-0.21339,-0.15723 -0.44448,-0.21531 -0.67147,-0.31493c0.10563,-0.10973 0.20182,-0.2034 0.3669,-0.27548c0.4445,0.2153 0.92291,0.40787 1.37276,0.64864c0.4445,0.2153 0.92696,0.36634 1.37272,0.64866c-0.16673,0.24767 -0.34003,0.40287 -0.5282,0.54866z" fill="#60adb2"/><path d="M268.48621,189.45625c-0.0231,0.07368 -0.03675,0.13132 -0.05983,0.205c-0.0487,0.01332 -0.07304,0.01994 -0.09737,0.02661c-0.29055,-0.09571 -0.59473,-0.13379 -0.90836,-0.15583c-0.13248,-0.01767 -0.23115,-0.05808 -0.30666,-0.17214c-0.16055,-0.21209 -0.35498,-0.40145 -0.40988,-0.7233c0.30705,-0.07046 0.61121,-0.03239 0.90591,0.02178c0.05404,0.01213 0.11885,0.07532 0.16879,0.12899c0.23897,0.21756 0.478,0.43525 0.70748,0.66893z" fill="#cce5e6"/><path d="M272.11247,192.0622c-0.18653,-0.02982 -0.30418,-0.03813 -0.43666,-0.05578c-0.24062,-0.04201 -0.4284,-0.13886 -0.57949,-0.36702c-0.27114,-0.37048 -0.58573,-0.70215 -0.95716,-0.93744c-0.11885,-0.07531 -0.12421,-0.10077 0.0045,-0.28421c0.04458,0.02824 0.09864,0.04039 0.14324,0.06865c0.36196,0.25135 0.74701,0.42899 1.16057,0.55844c0.09864,0.04041 0.18243,0.07138 0.23776,0.15056c0.14698,0.26971 0.31285,0.50731 0.42719,0.86679z" fill="#cae2e3"/><path d="M271.15713,188.32172c0.02434,-0.00665 0.06362,-0.00392 0.07843,0.00551c0.32274,0.24856 0.68758,0.39135 1.0471,0.50867c0.33511,0.12391 0.61743,0.30275 0.8048,0.64226c0.08626,0.16505 0.24023,0.28461 0.29263,0.47241c-0.46387,0.0595 -0.85845,-0.10214 -1.11888,-0.42165c-0.32526,-0.38266 -0.62613,-0.77194 -1.06653,-1.02881c-0.03509,-0.04429 -0.0945,-0.08195 -0.03759,-0.17836z" fill="#c9e1e2"/><path d="M272.76197,190.92801c-0.33265,0.01011 -0.57861,-0.05735 -0.83945,-0.13425c-0.08377,-0.031 -0.15806,-0.07807 -0.19853,-0.14783c-0.33061,-0.40814 -0.69507,-0.79353 -1.07849,-1.14679c-0.02971,-0.01882 -0.06479,-0.0631 -0.00248,-0.13405c0.10399,0.06587 0.22286,0.14115 0.33636,0.19099c0.30664,0.17216 0.62281,0.32824 0.96207,0.4106c0.246,0.06746 0.42964,0.20589 0.54149,0.4313c0.08626,0.16505 0.15771,0.32065 0.27905,0.53002z" fill="#c9e1e2"/><path d="M268.03686,190.56268c0.01732,0.14349 -0.03012,0.22384 -0.07756,0.30416c-0.02432,0.00665 -0.06358,0.00393 -0.08789,0.01054c-0.25671,-0.11845 -0.53656,-0.16318 -0.8151,-0.14089c-0.1663,0.00505 -0.29468,-0.05418 -0.39993,-0.18709c-0.12548,-0.16777 -0.27532,-0.32889 -0.36698,-0.51945c0.23812,-0.09204 0.59926,-0.1504 0.73712,-0.10723c0.09326,0.01489 0.13375,0.08469 0.19851,0.14785c0.26206,0.14393 0.4916,0.37759 0.81179,0.49213z" fill="#cae3e4"/><path d="M270.30209,184.44605c0.14283,0.31124 0.3141,0.57434 0.50975,0.83074c-0.02722,0.1152 -0.0652,0.17955 -0.15721,0.23165c-0.31488,-0.08904 -0.60791,-0.31885 -0.93231,-0.39183c-0.11596,-0.18388 -0.1292,-0.36888 -0.18166,-0.55664c-0.02146,-0.10188 -0.06728,-0.19714 -0.01571,-0.31906c0.26909,-0.00619 0.49731,0.16046 0.77715,0.20519z" fill="#c8e0e1"/><path d="M269.48185,187.45938c-0.10027,0.13521 -0.1692,0.11363 -0.23812,0.09207c-0.26087,-0.0769 -0.50679,-0.14437 -0.75816,-0.23732c-0.06893,-0.02158 -0.12837,-0.05922 -0.16883,-0.12899c-0.09697,-0.216 -0.18448,-0.44808 -0.24769,-0.68679c0.13658,-0.02385 0.23527,0.01653 0.35288,0.02479c0.35284,0.02479 0.61494,0.16867 0.72932,0.52813c0.06191,0.17173 0.19152,0.29796 0.33062,0.40812z" fill="#cbe4e5"/><path d="M270.07979,186.44703c-0.04743,0.08035 -0.0759,0.12856 -0.10437,0.17677c-0.03921,-0.00277 -0.07306,0.01995 -0.0879,0.01055c-0.18241,-0.07142 -0.35539,-0.15883 -0.53778,-0.23021c-0.09865,-0.04042 -0.16344,-0.10354 -0.20925,-0.19881c-0.13747,-0.28576 -0.25057,-0.57824 -0.33521,-0.9189c0.20015,-0.0278 0.34336,0.04084 0.48657,0.10948c0.05941,0.03766 0.11888,0.07531 0.14446,0.13563c0.11435,0.35948 0.35457,0.64412 0.64349,0.91546z" fill="#c8e0e1"/><path d="M265.76845,183.58378c-0.16342,-0.10354 -0.33228,-0.23254 -0.54318,-0.25569c-0.07841,-0.00551 -0.14318,-0.06864 -0.21749,-0.11568c0.14647,-0.28257 0.34292,-0.51143 0.58931,-0.6866c0.18903,0.16391 0.43498,0.23136 0.63226,0.31215c0.00786,0.15953 -0.10315,0.24379 -0.13036,0.35899c-0.07057,0.15404 -0.18036,0.30532 -0.33055,0.38682z" fill="#85d5d9"/><path d="M270.66309,192.82227c-0.17543,-0.22152 -0.35086,-0.44301 -0.5506,-0.65787c-0.17954,-0.17998 -0.49321,-0.202 -0.57368,-0.5842c0.50517,0.31996 1.01738,0.48984 1.52954,0.65969c0.11596,0.18388 0.23735,0.3932 0.27614,0.63862c-0.0487,0.01332 -0.07305,0.01996 -0.09736,0.02663c-0.19601,-0.01376 -0.38259,-0.04359 -0.58396,-0.08283z" fill="#c6dede"/><path d="M274.45556,188.8211c-0.18618,-0.27248 -0.35208,-0.51001 -0.53825,-0.78251c0.16507,-0.07207 0.31242,-0.04502 0.44901,-0.06889c0.15145,-0.01451 0.30707,-0.07047 0.46925,-0.03398c0.10399,0.06587 0.1552,0.18661 0.21588,0.29126c0.06069,0.10465 0.11184,0.22542 0.15357,0.36223c-0.22203,0.16849 -0.47626,0.18409 -0.74949,0.23186z" fill="#cae3e3"/><path d="M272.86965,185.3878c0.51221,0.16983 0.95011,0.29263 1.43005,0.30957c0.1552,0.18665 0.31986,0.35717 0.48993,0.55321c-0.24225,0.13362 -0.46801,0.10105 -0.69785,0.10999c-0.03921,-0.00277 -0.08381,-0.03101 -0.11349,-0.04983c-0.34297,-0.28348 -0.68598,-0.56696 -1.1086,-0.92296z" fill="#cae3e4"/><path d="M267.4427,187.55887c0.33264,-0.01012 0.63145,0.00248 0.84318,0.33533c0.15108,0.22817 0.36447,0.38542 0.57785,0.54264c0.08917,0.05648 0.05657,0.1462 -0.03011,0.22383c-0.21875,-0.18269 -0.48909,-0.24354 -0.75942,-0.30435c-0.2014,-0.03924 -0.31616,-0.15607 -0.40243,-0.32112c-0.08089,-0.13956 -0.19562,-0.25643 -0.22907,-0.47635z" fill="#c8e0e1"/><path d="M266.99172,183.82867c-0.25711,0.1242 -0.4069,-0.03696 -0.57572,-0.16595c-0.05118,-0.1207 0.03546,-0.19831 0.06804,-0.28805c0.13824,-0.19946 0.3116,-0.35465 0.51465,-0.49104c0.15395,0.11958 0.35534,0.15885 0.45648,0.33328c-0.03261,0.08976 -0.06109,0.13798 -0.09903,0.20224c-0.12464,0.14189 -0.24921,0.28375 -0.36436,0.40954z" fill="#85d4d9"/><path d="M268.70916,186.17513c-0.27981,-0.04476 -0.51094,-0.10281 -0.75156,-0.14481c-0.07802,-0.24815 -0.13172,-0.50293 -0.14614,-0.755c0.09616,-0.09368 0.20428,-0.06933 0.29218,-0.0799c0.0879,-0.01056 0.17579,-0.02111 0.27031,0.06084c0.10234,0.2415 0.20598,0.54998 0.33521,0.91889z" fill="#c7dfe0"/><path d="M266.49104,188.23675c-0.08215,-0.20662 -0.17375,-0.3971 -0.21261,-0.64251c0.24761,-0.10816 0.47334,-0.07556 0.73295,-0.0657c0.11186,0.2254 0.22375,0.45081 0.35046,0.68566c-0.30292,0.02893 -0.56257,0.01906 -0.87083,0.02252z" fill="#c8e0e1"/><path d="M274.47547,189.89359c-0.19484,0.05325 -0.38959,0.10649 -0.60048,0.08333c-0.15108,-0.22817 -0.29266,-0.47241 -0.44907,-0.72604c0.01898,-0.0321 0.03797,-0.06427 0.05283,-0.05483c0.19067,-0.01172 0.39617,-0.01401 0.57737,-0.00966c0.07843,0.00551 0.14736,0.02705 0.17295,0.08742c0.12134,0.20935 0.27117,0.37049 0.24645,0.61982z" fill="#c4dcdd"/><path d="M272.56271,192.06038c-0.11722,-0.2509 -0.24394,-0.48572 -0.36118,-0.73665c0.12051,-0.10029 0.23935,-0.02501 0.35698,-0.01676c0.11761,0.00827 0.24062,0.042 0.37309,0.05966c0.13083,0.19328 0.15474,0.42926 0.22744,0.65196c-0.20838,0.11086 -0.39495,0.08103 -0.59634,0.04177z" fill="#c8e0e1"/><path d="M266.29962,188.73364c0.14155,0.24426 0.2778,0.46303 0.43422,0.71666c-0.21377,0.08542 -0.42467,0.0622 -0.62898,0.13155c-0.17002,-0.19606 -0.20888,-0.44144 -0.3112,-0.6829c0.18405,-0.10422 0.33428,-0.18571 0.50595,-0.16527z" fill="#c6ddde"/><path d="M267.68615,191.70952c-0.34752,0.0007 -0.67727,-0.09772 -1.02351,-0.03002c-0.14984,-0.16113 -0.2943,-0.29682 -0.39129,-0.51281c0.21789,-0.12694 0.41809,-0.15474 0.62194,0.01855c0.23896,0.21758 0.52542,0.35486 0.79288,0.52427z" fill="#b9cfd0"/><path d="M273.60916,184.61973c0.10152,-0.06817 0.14738,0.02704 0.21627,0.04864c0.15271,0.05258 0.2959,0.12116 0.44204,0.08123c0.23938,-0.02502 0.39331,0.09453 0.55263,0.23963c0.0648,0.06315 0.12012,0.14231 0.20514,0.24034c-0.28682,0.10541 -0.53035,0.17195 -0.77466,-0.07111c-0.16471,-0.17054 -0.3822,-0.28625 -0.56585,-0.42466c-0.04455,-0.02827 -0.08915,-0.05647 -0.07555,-0.11408z" fill="#c0d8d8"/><path d="M270.38205,183.48111c0.1812,0.00435 0.31903,0.04751 0.43788,0.12278c0.05941,0.03766 0.13377,0.08467 0.15933,0.14506c0.10774,0.26698 0.25881,0.49513 0.40988,0.72332c-0.06645,0.11246 -0.11637,0.05877 -0.16098,0.03053c-0.14859,-0.09412 -0.31205,-0.19763 -0.4796,-0.25961c-0.21214,-0.0902 -0.31739,-0.22312 -0.32651,-0.4497c0.00287,-0.10858 -0.01323,-0.18501 -0.04006,-0.31237z" fill="#c1d9d9"/><path d="M267.27305,187.12015c-0.10648,-0.1999 -0.14942,-0.4038 -0.22207,-0.62644c0.19354,-0.12029 0.38542,-0.06495 0.57613,-0.07669c0.12674,0.23482 0.15607,0.49625 0.22458,0.76049c-0.21503,0.01836 -0.3921,-0.02754 -0.57866,-0.05734z" fill="#c3dbdc"/><path d="M272.8874,190.30079c0.26498,0.03532 0.50562,0.07737 0.75571,0.10328c0.09579,0.14897 0.17665,0.28854 0.18041,0.48962c-0.20432,0.06932 -0.40032,0.05557 -0.60588,0.05791c-0.15518,-0.18664 -0.26167,-0.38653 -0.33022,-0.65074z" fill="#c3dadb"/><path d="M267.43426,185.25714c0.03881,0.24541 0.07225,0.46529 0.10571,0.68519c-0.19891,0.09481 -0.39496,0.08105 -0.59098,0.06728c-0.0673,-0.19717 -0.09539,-0.3916 -0.08958,-0.60872c0.0582,-0.02938 0.14074,-0.06541 0.1894,-0.07873c0.13659,-0.02387 0.23935,-0.02502 0.38548,-0.06498z" fill="#c4dbdc"/><path d="M271.9541,183.79229c-0.28233,-0.17883 -0.50522,-0.32001 -0.74293,-0.47053c-0.05656,-0.14624 -0.07388,-0.28973 -0.03302,-0.46252c0.13122,-0.04934 0.21626,0.04867 0.32438,0.07302c0.10811,0.02431 0.20678,0.06473 0.28109,0.11177c0.0537,0.25485 0.09662,0.45866 0.17051,0.74834z" fill="#c2d9da"/><path d="M275.36395,188.97698c0.08089,0.13956 0.12263,0.27635 0.12509,0.41044c-0.06108,0.13796 -0.18823,0.14575 -0.28021,0.19786c-0.09198,0.05212 -0.16382,0.13911 -0.29628,0.12144c-0.12962,-0.12625 -0.19689,-0.32343 -0.29394,-0.53944c0.12178,-0.03331 0.24352,-0.06661 0.3504,-0.10927c0.13658,-0.02385 0.27319,-0.04777 0.39497,-0.08106z" fill="#c5ddde"/><path d="M266.17769,187.17715c-0.10115,-0.17448 -0.06979,-0.33125 -0.10199,-0.48413c0.1787,-0.12968 0.37887,-0.15749 0.60338,-0.19196c0.05245,0.18776 0.10486,0.37554 0.16678,0.54728c-0.21788,0.12692 -0.44368,0.09437 -0.66817,0.1288z" fill="#c3dbdc"/><path d="M274.47104,186.75541c0.08255,-0.03607 0.1312,-0.04939 0.17989,-0.06272c0.11225,-0.01721 0.23938,-0.02502 0.37598,-0.0489c0.14155,0.24426 0.31163,0.44027 0.37067,0.72055c-0.09616,0.09368 -0.19891,0.09483 -0.34089,0.09322c-0.18492,-0.20543 -0.39003,-0.44579 -0.58571,-0.70217z" fill="#c7dfe0"/><path d="M268.63973,184.80624c-0.02395,-0.23596 -0.11556,-0.42648 -0.08546,-0.6503c0.17459,-0.08814 0.34748,-0.00072 0.50307,-0.05673c0.10773,0.26699 0.13172,0.50294 0.18538,0.75775c-0.22866,0.07599 -0.39208,-0.02754 -0.603,-0.05069z" fill="#c7dee0"/><path d="M266.11382,183.20647c0.02722,-0.11521 0.13825,-0.19946 0.13036,-0.35901c-0.21214,-0.0902 -0.44861,-0.17377 -0.63229,-0.31215c0.05284,-0.05488 0.11515,-0.12581 0.18279,-0.17127c0.10152,-0.06817 0.21376,-0.08537 0.3178,-0.01951c0.18778,0.09684 0.36071,0.18427 0.54851,0.28119c-0.12339,0.2089 -0.1952,0.2959 -0.54721,0.58077z" fill="#61acb1"/><path d="M271.7824,193.0013c-0.08215,-0.20662 -0.14405,-0.37827 -0.21672,-0.60096c0.25009,0.02593 0.48532,0.04244 0.72595,0.08442c0.07143,0.15561 0.12795,0.30187 0.15069,0.47082c-0.22865,0.07599 -0.42466,0.06223 -0.6599,0.04571z" fill="#c2dada"/><path d="M270.00772,183.35436c0.08215,0.20662 0.09538,0.39162 0.1288,0.61155c-0.24599,-0.06746 -0.46226,-0.11614 -0.67853,-0.1648c-0.09578,-0.14896 -0.0739,-0.28969 -0.07226,-0.46529c0.18942,-0.07875 0.38138,-0.02343 0.62196,0.01854z" fill="#c1d9d9"/><path d="M273.34808,191.38748c0.23401,-0.0505 0.4098,-0.07162 0.59514,-0.1088c0.12012,0.1423 0.14818,0.33675 0.17626,0.53119c-0.15971,0.09753 -0.32479,0.16963 -0.53032,0.17194c-0.14983,-0.16112 -0.1292,-0.36892 -0.24109,-0.59432z" fill="#c6dedf"/><path d="M265.66856,188.48855c-0.06729,-0.19717 -0.11022,-0.40103 -0.16266,-0.58878c0.10027,-0.13521 0.21664,-0.19398 0.37763,-0.22453c0.15518,0.18664 0.15474,0.42925 0.25179,0.64526c-0.14485,0.10701 -0.29629,0.12144 -0.46675,0.16804z" fill="#c0d7d7"/><path d="M275.17508,186.1857c-0.12548,-0.16778 -0.29428,-0.29681 -0.35748,-0.53554c0.16098,-0.03053 0.3071,-0.07047 0.45315,-0.11043c0.17827,0.11295 0.27941,0.28738 0.32233,0.49121c-0.12051,0.10029 -0.24222,0.13358 -0.41802,0.15475z" fill="#c3dadb"/><path d="M267.34663,183.43519c0.03797,-0.06429 0.06105,-0.13799 0.09902,-0.20228c-0.10116,-0.17447 -0.3025,-0.21372 -0.45648,-0.33328c0.05159,-0.12188 0.17872,-0.1297 0.25999,-0.23278c0.23112,0.05806 0.38096,0.21919 0.64054,0.22905c-0.08007,0.17007 -0.18155,0.23826 -0.29259,0.32256c-0.07716,0.06154 -0.11392,0.19282 -0.25049,0.21669z" fill="#5aa0a4"/><path d="M265.92389,191.96243c-0.12546,-0.16776 -0.29432,-0.29682 -0.35209,-0.51006c0.09616,-0.09368 0.1936,-0.12028 0.33964,-0.16026c0.14447,0.13568 0.26995,0.30346 0.34675,0.48457c-0.09616,0.09368 -0.17872,0.1297 -0.33428,0.1857z" fill="#bdd3d4"/><path d="M266.50076,185.59326c0.02271,0.16897 0.05489,0.32183 0.08711,0.47468c-0.15973,0.09755 -0.32069,0.12811 -0.49649,0.14924c-0.09036,-0.12349 -0.0537,-0.25483 0.01275,-0.36729c0.08539,-0.14464 0.1708,-0.28923 0.39661,-0.25666z" fill="#bdd4d5"/><path d="M270.20217,193.5681c-0.13083,-0.19328 -0.24684,-0.37716 -0.37767,-0.5704c0.40691,0.03694 0.73667,0.13544 0.79945,0.61678c-0.13122,0.04934 -0.25958,-0.00989 -0.42175,-0.04636z" fill="#bbd2d3"/><path d="M267.72512,184.31531c0.13537,-0.09088 0.26249,-0.09871 0.38961,-0.10649c0.10399,0.06587 0.08627,0.16506 0.10772,0.26698c0.0161,0.07643 0.04704,0.16226 0.00495,0.26809c-0.13537,0.09088 -0.28394,-0.00318 -0.43414,0.07831c-0.0768,-0.18111 -0.08468,-0.34064 -0.06818,-0.50683z" fill="#c3dadb"/><path d="M270.9983,188.72892c0.24843,0.20157 0.49693,0.40307 0.70743,0.6689c-0.07181,0.08698 -0.15561,0.05604 -0.22987,0.00894c-0.20264,-0.10629 -0.39577,-0.22858 -0.57408,-0.34153c-0.13372,-0.08469 -0.10651,-0.19995 0.09654,-0.33629z" fill="#b1c6c7"/><path d="M265.09785,189.38566c0.09989,0.10739 0.08752,0.23207 0.12385,0.34339c0.08216,0.20661 0.01159,0.36063 -0.17663,0.50642c-0.15107,-0.22818 -0.17088,-0.50571 -0.19486,-0.74167c0.08129,-0.10308 0.1395,-0.13248 0.24762,-0.10814z" fill="#bbd2d3"/><path d="M269.87511,190.97628c0.32028,0.11453 0.50641,0.38699 0.71694,0.65281c-0.26498,-0.03533 -0.48782,-0.17654 -0.70533,-0.29219c-0.14322,-0.06863 -0.14448,-0.13567 -0.01158,-0.36061z" fill="#bad1d2"/><path d="M266.96019,192.42007c-0.1853,0.03719 -0.34089,0.09319 -0.52618,0.13039c-0.0648,-0.06313 -0.14035,-0.17721 -0.22536,-0.27522c0.24513,-0.2422 0.25999,-0.23278 0.44368,-0.09436c0.10398,0.06589 0.19853,0.14784 0.30788,0.23919z" fill="#b5cbcc"/><path d="M274.91921,191.38911c-0.13948,0.13243 -0.27072,0.18183 -0.40195,0.23117c-0.10526,-0.1329 -0.08874,-0.29911 -0.11147,-0.46804c0.14071,-0.06546 0.27194,-0.11475 0.41267,-0.1802c0.12423,0.10076 0.06857,0.2642 0.10076,0.41711z" fill="#c0d7d8"/><path d="M266.36538,190.69633c-0.08667,0.07756 -0.19891,0.09483 -0.32604,0.10265c-0.16466,-0.17056 -0.26171,-0.38655 -0.31,-0.61587c0.05159,-0.12188 0.11514,-0.12579 0.20837,-0.11086c0.14573,0.20265 0.29142,0.40536 0.42761,0.62413z" fill="#bdd4d4"/><path d="M271.92105,193.35413c0.19067,-0.01172 0.38669,0.00205 0.57737,-0.00967c0.03631,0.11133 0.01859,0.2105 -0.03834,0.30692c-0.08667,0.07756 -0.17991,0.0627 -0.28266,0.06383c-0.07843,-0.00551 -0.15683,-0.011 -0.23526,-0.01652c-0.0607,-0.10469 -0.08217,-0.20661 -0.02108,-0.34458z" fill="#b6cccc"/><path d="M274.08795,190.3768c0.18531,-0.03718 0.34625,-0.06773 0.54107,-0.121c0.07966,0.07251 0.14037,0.1772 0.09951,0.35009c-0.14072,0.06547 -0.2963,0.12144 -0.46137,0.19352c-0.08089,-0.13956 -0.15645,-0.25365 -0.17915,-0.4226z" fill="#c1d9d9"/><path d="M271.08088,193.70507c-0.08089,-0.13956 -0.13212,-0.26031 -0.13994,-0.41984c0.1853,-0.03719 0.35288,0.02482 0.50021,0.05188c0.09989,0.10739 0.07266,0.22265 0.06978,0.33122c-0.04333,0.03879 -0.06232,0.07091 -0.07716,0.06154c-0.11761,-0.0083 -0.23524,-0.01652 -0.35289,-0.0248z" fill="#b7cdce"/><path d="M269.29997,193.74747c0.23939,-0.02501 0.3731,0.05966 0.52581,0.11222c0.17707,0.04589 0.17955,0.17996 0.18743,0.33946c-0.1853,0.03719 -0.33801,-0.01537 -0.49485,-0.02639c-0.12959,-0.12625 -0.07928,-0.31519 -0.21837,-0.42534z" fill="#b6cccc"/><path d="M265.36008,191.11944c-0.07142,-0.15563 -0.1226,-0.27635 -0.18865,-0.40652c0.07057,-0.15404 0.12751,-0.25044 0.26822,-0.31586c0.07678,0.18111 0.16307,0.34615 0.23448,0.50177c-0.04081,0.17285 -0.16796,0.18063 -0.23974,0.26766c-0.02971,-0.01882 -0.06894,-0.02157 -0.07431,-0.04704z" fill="#c2dada"/><path d="M275.14531,190.38413c-0.07552,-0.11408 -0.09165,-0.1905 -0.07391,-0.2897c0.0421,-0.10582 0.13948,-0.13244 0.23151,-0.18458c0.08255,-0.03606 0.16383,-0.13912 0.27734,-0.0893c0.04167,0.1368 0.05904,0.28026 0.00333,0.44373c-0.15561,0.05603 -0.2922,0.07988 -0.43831,0.11985z" fill="#bbd2d3"/><path d="M269.0032,183.29218c0.00786,0.15952 0.01983,0.27753 0.02233,0.41158c-0.17045,0.04662 -0.32728,0.03559 -0.49363,0.04063c-0.05118,-0.12071 -0.06319,-0.23875 0.0033,-0.3512c0.03385,-0.02275 0.06768,-0.04543 0.10691,-0.04271c0.09736,-0.02663 0.20968,-0.04383 0.36112,-0.05831z" fill="#bbd2d3"/><path d="M266.71887,192.86329c0.27735,-0.08933 0.27735,-0.08933 0.57735,-0.00966c0.07141,0.15564 0.01032,0.29359 -0.03052,0.46642c-0.23652,-0.08354 -0.3822,-0.28623 -0.54688,-0.45678z" fill="#adc2c3"/><path d="M267.35573,184.45675c0.05118,0.12071 0.05367,0.25484 0.00209,0.37668c-0.17045,0.04662 -0.31651,0.08659 -0.47747,0.11708c0.01275,-0.36729 0.02222,-0.38336 0.47538,-0.4938z" fill="#b5cbcc"/><path d="M272.84795,192.92551c-0.05658,-0.14623 -0.09287,-0.25758 -0.10072,-0.4171c0.15019,-0.08148 0.31242,-0.04497 0.48825,-0.06612c0.02558,0.06037 0.03629,0.11131 0.04706,0.16227c0.01074,0.05096 -0.00287,0.10857 -0.00163,0.17561c-0.12999,0.11639 -0.26657,0.14025 -0.43294,0.14533z" fill="#bbd1d2"/><path d="M270.27099,182.77036c0.19892,-0.09481 0.38671,0.00204 0.55302,-0.00304c0.06601,0.13015 0.01448,0.25208 0.01696,0.38616c-0.22987,0.00898 -0.39745,-0.05303 -0.5324,-0.20474c-0.04457,-0.02825 -0.03633,-0.11132 -0.03758,-0.17836z" fill="#b6cccd"/><path d="M275.77239,187.24842c-0.12674,-0.23482 -0.22908,-0.47631 -0.34094,-0.70171c0.08131,-0.10307 0.16381,-0.13911 0.30578,-0.13752c0.06856,0.2642 0.13706,0.5284 0.13256,0.81258c-0.04872,0.01332 -0.07305,0.01996 -0.09738,0.02663z" fill="#acc1c2"/><path d="M271.01042,190.43675c-0.22163,-0.07412 -0.43379,-0.16433 -0.60793,-0.31882c-0.0648,-0.06315 -0.09578,-0.14896 -0.04832,-0.22931c0.01897,-0.0321 0.08668,-0.07756 0.10154,-0.06818c0.23236,0.12509 0.38879,0.37874 0.55473,0.6163z" fill="#a7bbbb"/><path d="M273.68126,192.72459c-0.07018,-0.08861 -0.0673,-0.19716 -0.05493,-0.32181c0.15561,-0.05603 0.31119,-0.11202 0.46677,-0.16804c0.08089,0.13956 0.03881,0.24539 -0.02763,0.35784c-0.10152,0.06817 -0.24761,0.10815 -0.38423,0.132z" fill="#b7cdcd"/><path d="M265.67542,186.74861c0.10116,0.17447 0.10896,0.33398 0.10736,0.50961c-0.12051,0.10029 -0.23689,0.15909 -0.40858,0.13866c0.02474,-0.24928 0.15351,-0.43271 0.3012,-0.64827z" fill="#b7cece"/><path d="M272.13972,182.71752c0.24474,0.00045 0.39993,0.18707 0.59597,0.2008c0.05118,0.1207 -0.00165,0.17561 -0.06522,0.17952c-0.16631,0.00507 -0.33803,-0.01536 -0.48657,-0.10949c-0.0351,-0.04431 -0.04991,-0.05374 -0.04419,-0.27088z" fill="#b4cacb"/><path d="M275.28873,187.82524c0.10148,-0.06817 0.17456,-0.08815 0.26783,-0.07326c0.08216,0.20661 0.17913,0.42261 0.16514,0.72286c-0.26206,-0.14393 -0.32522,-0.38266 -0.43298,-0.64961z" fill="#b2c8c9"/><path d="M268.15057,183.76782c-0.14071,0.06546 -0.24761,0.10814 -0.35574,0.0838c-0.04994,-0.05372 -0.03635,-0.11135 -0.02272,-0.16898c0.05446,-0.23044 0.20594,-0.24493 0.40195,-0.23117c-0.01771,0.09917 -0.0206,0.20777 -0.02348,0.31633z" fill="#b5cbcb"/><path d="M269.38775,192.147c0.20266,0.10628 0.36607,0.20977 0.51588,0.3709c-0.03262,0.08975 -0.09616,0.09366 -0.14072,0.06546c-0.11351,-0.04983 -0.23652,-0.08356 -0.34999,-0.13335c-0.11885,-0.07531 -0.11059,-0.15837 -0.02517,-0.30298z" fill="#91a3a3"/><path d="M273.29148,186.22905c-0.24474,-0.00045 -0.42841,-0.13886 -0.60668,-0.2518c-0.02971,-0.01882 -0.04047,-0.06979 -0.03633,-0.11133c0.01898,-0.0321 0.07716,-0.06154 0.09204,-0.05213c0.23652,0.08354 0.41067,0.23803 0.551,0.41526z" fill="#99abac"/><path d="M273.24184,185.13782c0.007,-0.15013 0.05447,-0.23046 0.14774,-0.21554c0.123,0.03375 0.25257,0.15997 0.40777,0.3466c-0.21505,0.0184 -0.37845,-0.08513 -0.55548,-0.13104z" fill="#93a5a6"/><path d="M264.9331,188.42021c0.08749,0.23209 0.19937,0.45749 -0.09033,0.67144c-0.10233,-0.2415 0.02102,-0.45037 0.09033,-0.67144z" fill="#9aadad"/><path d="M267.77021,189.908c0.14735,0.02708 0.30953,0.06356 0.44203,0.08125c0.04581,0.09527 0.03222,0.15289 -0.03962,0.23988c-0.18122,-0.00434 -0.29183,-0.16273 -0.43504,-0.23135c0.01898,-0.0321 0.02849,-0.0482 0.0326,-0.08976z" fill="#c5dddd"/><path d="M272.02671,188.23218c-0.27858,0.02227 -0.47175,-0.10011 -0.62693,-0.28669c-0.01486,-0.00941 -0.01074,-0.05098 0.00823,-0.08311c0.01361,-0.05762 0.07714,-0.06154 0.10688,-0.0427c0.17295,0.08741 0.32277,0.2486 0.51182,0.4125z" fill="#aec2c3"/><path d="M269.93135,182.93059c-0.1853,0.03719 -0.36236,-0.0087 -0.52457,-0.04522c-0.04584,-0.09525 0.00702,-0.15014 0.08542,-0.14464c0.14199,0.0016 0.26909,-0.00619 0.41642,0.02091c0.04872,-0.01332 0.06479,0.0631 0.02271,0.16894z" fill="#9caeaf"/><path d="M274.49627,192.07062c0.13,-0.1164 0.24635,-0.17514 0.40195,-0.23116c-0.06395,0.24654 -0.21291,0.39506 -0.32681,0.58788c-0.03511,-0.04432 -0.0648,-0.06315 -0.07013,-0.08862c-0.0066,-0.09252 0.00162,-0.17558 -0.005,-0.2681z" fill="#a9bebf"/><path d="M270.42152,185.86855c-0.03674,0.13131 -0.08953,0.18615 -0.17212,0.22221c-0.15806,-0.07807 -0.26329,-0.21095 -0.317,-0.46576c0.1973,0.0808 0.331,0.16552 0.48908,0.24354z" fill="#b9cfd0"/><path d="M267.81285,191.1494c0.0458,0.09525 0.02269,0.16895 -0.0004,0.24264c-0.07717,0.06151 -0.15144,0.0145 -0.47959,-0.25961c0.20305,-0.13636 0.33803,0.01537 0.47999,0.01698z" fill="#869797"/><path d="M272.56646,187.2492c-0.20925,-0.19879 -0.5027,-0.18593 -0.54811,-0.52381c0.26086,0.07689 0.42964,0.20584 0.54811,0.52381z" fill="#93a4a5"/><path d="M269.62231,193.44376c-0.22286,-0.14115 -0.37145,-0.2353 -0.52003,-0.3294c-0.02971,-0.01882 -0.04047,-0.06979 -0.01196,-0.11797c0.0095,-0.01609 0.04336,-0.03879 0.06769,-0.04546c0.19729,0.08076 0.36077,0.18433 0.46434,0.49281z" fill="#94a5a6"/><path d="M267.58008,192.06195c0.00246,0.13405 -0.0111,0.19166 -0.118,0.23437c-0.12834,-0.05922 -0.27159,-0.12784 -0.39169,-0.27018c0.19894,-0.09478 0.34747,-0.0007 0.50965,0.03577z" fill="#abbfc0"/><path d="M270.33637,194.20513c0.01771,-0.09917 0.02185,-0.14071 0.04084,-0.17288c0.31241,-0.04502 0.31238,-0.04499 0.49192,0.13496c-0.18405,0.10422 -0.33263,0.01014 -0.53278,0.03788z" fill="#acc0c1"/><path d="M265.52292,189.08087c0.06191,0.17173 0.1482,0.33674 0.20064,0.52452c0.0161,0.07643 -0.0219,0.14071 -0.13948,0.13245c-0.08215,-0.20662 -0.14942,-0.40378 -0.06112,-0.65696z" fill="#9fb2b2"/><path d="M272.89878,193.28891c0.10693,-0.0427 0.17997,-0.06265 0.27319,-0.04774c0.04047,0.06979 0.04172,0.13681 0.00912,0.22657c-0.07183,0.08699 -0.18406,0.1042 -0.29632,0.12143c-0.07018,-0.08861 -0.02806,-0.19443 0.01403,-0.30022z" fill="#aec2c3"/><path d="M268.79971,187.88847c0.15018,-0.08148 0.25425,-0.01558 0.36772,0.03419c0.04455,0.02827 0.0458,0.09523 0.01733,0.14345c-0.01898,0.0321 -0.07719,0.06156 -0.10688,0.04271c-0.11761,-0.00827 -0.18782,-0.09688 -0.27816,-0.22037z" fill="#91a2a3"/><path d="M275.31996,191.09088c-0.14818,-0.33676 -0.15361,-0.36223 0.17782,-0.43936c-0.04623,0.14737 -0.03835,0.30691 -0.17782,0.43936z" fill="#869696"/><path d="M273.78824,184.24741c0.2043,-0.06932 0.26493,0.03534 0.3595,0.1173c-0.15972,0.09754 -0.15971,0.09753 -0.3595,-0.1173z" fill="#555f5f"/><path d="M268.62196,189.1227c-0.0743,-0.04705 -0.17827,-0.11292 -0.25384,-0.22702c0.21914,-0.05991 0.27857,-0.02227 0.34462,0.10783c0.02024,0.0349 -0.00825,0.08312 -0.09079,0.11913z" fill="#93a5a6"/><path d="M269.10481,194.04332c-0.27321,0.04777 -0.29346,0.0129 -0.18612,-0.27247c0.123,0.03376 0.15934,0.14504 0.18612,0.27247z" fill="#8b9b9c"/><path d="M274.50754,184.23936c-0.17707,-0.04592 -0.2864,-0.13725 -0.39581,-0.22864c0.01236,-0.12465 0.07058,-0.15404 0.13001,-0.11637c0.11886,0.0753 0.22824,0.16665 0.2658,0.34497z" fill="#9aacad"/><path d="M271.49524,194.14428c-0.13122,0.04934 -0.23277,0.11753 -0.34216,0.02619c-0.01487,-0.00943 -0.02025,-0.0349 -0.01076,-0.05096c0.11515,-0.1258 0.22331,-0.10148 0.35288,0.02478z" fill="#5f6a6b"/><path d="M269.55446,186.8871c0.0879,-0.01056 0.14739,0.02709 0.1973,0.08082c0.02024,0.0349 0.03097,0.08584 -0.00289,0.10856c-0.03385,0.02275 -0.08254,0.03608 -0.11225,0.01721c-0.05941,-0.03766 -0.10937,-0.09136 -0.08214,-0.2066z" fill="#636e6f"/><path d="M273.7753,193.04925c-0.02189,0.14071 -0.08414,0.21165 -0.24098,0.20065c0.0165,-0.16619 0.099,-0.20226 0.24098,-0.20065z" fill="#4a5354"/></g><g data-paper-data="{&quot;index&quot;:null}" fill="#000000" fill-rule="nonzero" stroke="#000000" stroke-width="1.2" stroke-linecap="butt" stroke-linejoin="miter"><path d="M242.85655,202.71348c-0.09809,-1.88411 2.09719,-4.41655 2.8261,-6.61401c0.78479,-2.36588 0.10881,-4.2224 1.37087,-5.26635c0.88154,-0.72918 2.42163,-0.41587 3.19767,-0.14663c1.88708,0.65468 2.3363,4.44301 1.00336,8.46144c-1.33292,4.01843 -3.94326,6.7453 -5.83031,6.09061c-0.85512,-0.29667 -2.48638,-0.96375 -2.56768,-2.52504z"/><path d="M245.47453,205.92829c-0.11341,-2.62833 2.69133,-7.97566 2.69133,-7.97566c0,0 0.15351,-3.96872 0.18243,-4.05111c1.84194,-5.25121 5.12922,-4.17593 8.84505,-2.88678c1.76849,0.61354 4.24465,2.29034 4.66269,4.27938c0.47411,2.2558 -0.93358,4.69032 -1.91223,7.64067c-1.84156,5.55178 -5.64518,9.49414 -9.41931,8.18476c-1.66136,-0.57638 -4.89846,-1.68084 -5.04994,-5.19127z"/></g><g fill="none" fill-rule="nonzero" stroke-width="2" stroke-linecap="round" stroke-linejoin="miter"><path d="M227.19743,162.66346l-0.04228,5.45354" stroke="#004eff"/><path d="M225.37959,165.74958l3.25521,-0.59185" stroke="#2100ff"/><g><path d="M226.9015,162.40982l-0.04228,5.45354" stroke="url(#color-2)"/><path d="M225.29503,165.41137l3.25522,-0.59186" stroke="url(#color-3)"/></g><g><path d="M227.57791,162.87484l-0.04227,5.45354" stroke="url(#color-4)"/><path d="M225.97144,165.8764l3.25522,-0.59185" stroke="url(#color-5)"/></g></g></g></g></svg>