<svg version="1.1" xmlns="http://www.w3.org/2000/svg" xmlns:xlink="http://www.w3.org/1999/xlink" width="75.89417" height="97.25263" viewBox="0,0,75.89417,97.25263"><defs><linearGradient x1="219.05347" y1="209.08983" x2="237.10087" y2="209.08983" gradientUnits="userSpaceOnUse" id="color-1"><stop offset="0" stop-color="#bebebe"/><stop offset="1" stop-color="#737373"/></linearGradient><linearGradient x1="239.67765" y1="230.21774" x2="272.09582" y2="230.21774" gradientUnits="userSpaceOnUse" id="color-2"><stop offset="0" stop-color="#bebebe"/><stop offset="1" stop-color="#737373"/></linearGradient><linearGradient x1="239.67765" y1="230.21774" x2="272.09582" y2="230.21774" gradientUnits="userSpaceOnUse" id="color-3"><stop offset="0" stop-color="#bebebe"/><stop offset="1" stop-color="#737373"/></linearGradient><linearGradient x1="240.12316" y1="229.90488" x2="268.81516" y2="229.90488" gradientUnits="userSpaceOnUse" id="color-4"><stop offset="0" stop-color="#ffd166"/><stop offset="1" stop-color="#ac880b"/></linearGradient><linearGradient x1="226.8909" y1="220.65092" x2="254.95672" y2="220.65092" gradientUnits="userSpaceOnUse" id="color-5"><stop offset="0" stop-color="#ffd166"/><stop offset="1" stop-color="#ac880b"/></linearGradient><linearGradient x1="226.81398" y1="220.70577" x2="255.46628" y2="220.70577" gradientUnits="userSpaceOnUse" id="color-6"><stop offset="0" stop-color="#ffd166"/><stop offset="1" stop-color="#ac880b"/></linearGradient><linearGradient x1="212.90776" y1="231.44012" x2="240.84505" y2="231.44012" gradientUnits="userSpaceOnUse" id="color-7"><stop offset="0" stop-color="#ffd166"/><stop offset="1" stop-color="#ac880b"/></linearGradient><linearGradient x1="214.14654" y1="239.64291" x2="236.05069" y2="239.64291" gradientUnits="userSpaceOnUse" id="color-8"><stop offset="0" stop-color="#bebebe"/><stop offset="1" stop-color="#737373"/></linearGradient><linearGradient x1="214.14654" y1="239.64291" x2="236.05069" y2="239.64291" gradientUnits="userSpaceOnUse" id="color-9"><stop offset="0" stop-color="#bebebe"/><stop offset="1" stop-color="#737373"/></linearGradient><linearGradient x1="223.19206" y1="211.89565" x2="254.76585" y2="211.89565" gradientUnits="userSpaceOnUse" id="color-10"><stop offset="0" stop-color="#bebebe"/><stop offset="1" stop-color="#737373"/></linearGradient><linearGradient x1="266.43517" y1="208.25691" x2="279.57345" y2="204.22594" gradientUnits="userSpaceOnUse" id="color-11"><stop offset="0" stop-color="#bb951b"/><stop offset="1" stop-color="#d6ad39"/></linearGradient><linearGradient x1="263.17576" y1="198.47414" x2="275.50816" y2="194.69043" gradientUnits="userSpaceOnUse" id="color-12"><stop offset="0" stop-color="#bebebe"/><stop offset="1" stop-color="#737373"/></linearGradient><linearGradient x1="268.0257" y1="203.0435" x2="273.91202" y2="201.23751" gradientUnits="userSpaceOnUse" id="color-13"><stop offset="0" stop-color="#bb951b"/><stop offset="1" stop-color="#d6ad39"/></linearGradient><linearGradient x1="268.82523" y1="204.03411" x2="273.85972" y2="202.48946" gradientUnits="userSpaceOnUse" id="color-14"><stop offset="0" stop-color="#bb951b"/><stop offset="1" stop-color="#d6ad39"/></linearGradient><linearGradient x1="267.21125" y1="202.7576" x2="268.23237" y2="202.44431" gradientUnits="userSpaceOnUse" id="color-15"><stop offset="0" stop-color="#bb951b"/><stop offset="1" stop-color="#d6ad39"/></linearGradient><linearGradient x1="266.64759" y1="202.61884" x2="267.64564" y2="202.31263" gradientUnits="userSpaceOnUse" id="color-16"><stop offset="0" stop-color="#bb951b"/><stop offset="1" stop-color="#d6ad39"/></linearGradient></defs><g transform="translate(-204.12756,-147.01346)"><g data-paper-data="{&quot;isPaintingLayer&quot;:true}" stroke-miterlimit="10" stroke-dasharray="" stroke-dashoffset="0" style="mix-blend-mode: normal"><path d="M240.34748,206.17716c0,0 11.77698,1.82089 16.28993,2.8477c3.51344,0.79939 14.31233,3.39849 14.31233,3.39849" fill="none" fill-rule="nonzero" stroke="#000000" stroke-width="6" stroke-linecap="round" stroke-linejoin="miter"/><path d="M237.10087,208.25269c0,2.4641 -3.22379,4.46165 -7.20056,4.46165c-2.11857,0 -5.90563,1.68326 -8.23456,0.47339c-2.04269,-1.06118 -7.80147,-3.57448 -7.57952,-4.23786c0.69236,-2.06928 12.73237,-4.39543 15.09095,-4.39543c3.97676,0 7.92369,1.23416 7.92369,3.69825z" fill="url(#color-1)" fill-rule="nonzero" stroke="#737373" stroke-width="1" stroke-linecap="butt" stroke-linejoin="miter"/><g><g><g stroke-width="1.2"><path d="M253.70784,218.71846c0,0 9.31693,7.88173 10.69853,10.88193c0.94272,2.04714 -3.0297,5.37288 -3.0297,5.37288c0,0 10.05817,-0.12212 10.71013,4.37445c0.03716,0.25635 0.14297,1.5179 -3.99199,2.04649c-3.96044,0.50627 -12.09998,0.2877 -15.0756,0.20017c-1.38203,-0.04065 -3.53979,-0.36608 -5.00535,-1.00853c-1.47557,-0.64686 -1.5335,-1.66748 -1.64639,-2.23855c-0.01498,-0.07578 4.21694,-6.65634 3.90633,-7.51095c-0.15624,-0.42985 -10.59616,-10.89469 -10.59616,-10.89469" fill="url(#color-2)" fill-rule="evenodd" stroke="url(#color-3)" stroke-linecap="round" stroke-linejoin="round"/><path d="M240.164,223.65481c-0.66816,-4.60824 7.02697,-4.98283 11.05283,-5.09488c1.7506,-0.04873 3.26733,-1.62263 7.1308,2.824c1.01235,1.16515 7.43537,8.35789 7.34846,9.77254c-0.03055,0.49707 -1.83864,2.82956 -1.83864,2.82956c0,0 3.47241,0.20467 3.96353,0.67689c0.50691,0.48742 -6.04359,-1.71236 -6.04359,-1.71236l4.02672,2.39848c0,0 -10.3318,0.10235 -14.04745,1.6898c-3.71565,1.58745 -1.19483,4.21136 -1.19483,4.21136c0,0 -7.71403,-0.22128 -8.69069,-2.0379c-0.24078,-0.44784 0.67084,-1.84284 0.67084,-1.84284c0,0 -0.85514,0.10965 -0.94593,-0.20335c-0.02945,-0.10151 3.68124,-3.50495 5.72372,-5.3053c1.16773,-1.02931 1.1786,-0.92185 1.1786,-0.92185c0,0 -8.2381,-6.62017 -8.33438,-7.28414z" fill="url(#color-4)" fill-rule="nonzero" stroke="#caa551" stroke-linecap="butt" stroke-linejoin="miter"/></g><path d="M226.891,219.60869c-0.01426,-0.13551 1.73548,0.26401 5.70032,0.31018c5.23064,0.06092 13.24118,-0.21161 15.4937,-0.35105c5.84115,-0.36159 6.82962,-1.32403 6.86744,-0.96482c0.13994,1.32926 -3.16401,3.79151 -9.84624,3.92657c-2.93652,0.05935 -8.94279,0.50448 -12.34402,0.03649c-4.33844,-0.59695 -5.79274,-2.21226 -5.8712,-2.95737z" fill="url(#color-5)" fill-rule="nonzero" stroke="#caa551" stroke-width="1.2" stroke-linecap="butt" stroke-linejoin="miter"/><g fill-rule="nonzero" stroke-linecap="butt" stroke-linejoin="miter"><g fill="none" stroke="none" stroke-width="1" font-family="sans-serif" font-weight="normal" font-size="12" text-anchor="start"/><path d="M226.9329,217.92392c0,0 12.12392,1.65069 17.83059,2.01751c5.70665,0.36681 10.70279,-0.18344 10.70279,-0.18344c0,0 -0.3997,1.28946 -3.3756,2.37279c-2.30353,0.83856 -6.43388,1.59154 -11.33139,1.28841c-4.46175,-0.27616 -9.2903,-1.01599 -11.45976,-2.02067c-3.28825,-1.52281 -2.36663,-3.47458 -2.36663,-3.47458z" fill="url(#color-6)" stroke="#caa551" stroke-width="1.2"/></g><g stroke-width="1.2"><path d="M238.29546,222.04205c0,0 -4.58184,19.17755 -5.41792,19.24085c-2.39937,0.18165 -15.54809,-1.44493 -15.54809,-1.44493l8.45195,-19.28125" data-paper-data="{&quot;index&quot;:null}" fill="#ffab19" fill-rule="evenodd" stroke="#001026" stroke-linecap="round" stroke-linejoin="round"/><path d="M240.32045,221.73289c0,0 -3.14577,4.79132 -3.46191,6.94155c-0.19391,1.31896 0.93698,6.27769 0.93698,6.27769c0,0 1.14692,3.11497 0.69394,3.39794c-0.58201,0.36359 -2.39474,-1.5153 -2.39474,-1.5153c0,0 1.86608,2.15407 1.9165,2.36878c0.35173,1.49809 -1.25347,3.46536 -5.45981,3.65227c-4.6183,0.2052 -12.27475,0.43697 -16.22172,-0.74825c-3.57326,-1.07299 -3.69995,-3.50763 -3.22019,-4.50735c0.3369,-0.70205 2.71519,-1.08028 3.19674,-1.94337c0.3202,-0.5739 -3.55839,2.0346 -2.8574,1.26951c0.20381,-0.22244 3.06543,-3.72556 3.06543,-3.72556c0,0 0.42469,-3.25399 1.2255,-4.45898c3.21572,-4.83877 7.10939,-8.88401 7.10939,-8.88401" data-paper-data="{&quot;index&quot;:null}" fill="url(#color-7)" fill-rule="evenodd" stroke="#caa551" stroke-linecap="round" stroke-linejoin="round"/><path d="M236.04251,240.08725c-0.11577,1.07681 -1.06011,2.3279 -3.10981,2.97756c-2.05732,0.65206 -14.42179,0.39366 -16.33326,-0.40325c-1.81526,-0.7568 -2.55471,-2.15558 -2.44173,-3.20653c0.23196,-2.1576 5.31907,-3.76518 11.36241,-3.59059c6.0433,0.17458 10.75435,2.06521 10.52237,4.22283z" fill="url(#color-8)" fill-rule="nonzero" stroke="url(#color-9)" stroke-linecap="butt" stroke-linejoin="miter"/></g></g><g fill="none" fill-rule="nonzero" stroke="none" stroke-width="1" stroke-linecap="butt" stroke-linejoin="miter" font-family="sans-serif" font-weight="normal" font-size="12" text-anchor="start"/></g><path d="M207.12756,241.26609l23.76805,-29.33098" fill="none" fill-rule="nonzero" stroke="#000000" stroke-width="6" stroke-linecap="round" stroke-linejoin="miter"/><path d="M231.83928,218.5528c0,0 3.66238,-5.90432 3.2014,-7.71528c-0.11275,-0.44294 -3.17419,6.95078 -3.67279,6.52776c-2.37766,-2.01725 -11.14734,-3.67243 -11.14734,-3.67243c0,0 5.1508,-5.51889 9.04228,-8.30197c1.07448,-0.76844 3.61701,0.86156 3.91665,0.62695c0.38698,-0.30301 24.40627,-0.05153 24.40627,-0.05153c0,0 0.95049,2.13227 0.90711,5.27653c-0.00031,0.02234 -8.75581,-0.80047 -8.76064,-0.45021c-0.02895,2.09839 0.86022,7.7594 0.86022,7.7594c0,0 -5.64779,1.17819 -8.45881,1.22526c-3.09887,0.05189 -10.29437,-1.22445 -10.29437,-1.22445z" fill="url(#color-10)" fill-rule="nonzero" stroke="#737373" stroke-width="2.5" stroke-linecap="butt" stroke-linejoin="miter"/><g stroke-linejoin="miter"><g data-paper-data="{&quot;index&quot;:null}" stroke-linecap="butt"><path d="M272.46523,186.37225c-4.13875,12.67317 -19.05078,19.68947 -33.30698,15.67137c-14.25618,-4.01811 -22.45798,-17.54905 -18.31921,-30.22223c4.13875,-12.67317 19.05078,-19.68947 33.30698,-15.67137c14.25618,4.01811 22.45798,17.54905 18.31921,30.22223z" fill="none" fill-rule="nonzero" stroke="#000000" stroke-width="4.5"/><g><g fill-rule="nonzero"><path d="M236.19366,159.95877l0.00911,0.0109" data-paper-data="{&quot;index&quot;:null}" fill="#ffab19" stroke="#000000" stroke-width="5"/><g data-paper-data="{&quot;index&quot;:null}" fill="none" stroke="none" stroke-width="1" font-family="sans-serif" font-weight="normal" font-size="12" text-anchor="start"/></g><path d="M236.19366,159.95877l0.00911,0.0109" data-paper-data="{&quot;index&quot;:null}" fill="#ffab19" fill-rule="nonzero" stroke="#000000" stroke-width="5"/><path d="M245.98061,180.16585" fill="#001026" fill-rule="evenodd" stroke="#000000" stroke-width="5"/><g data-paper-data="{&quot;index&quot;:null}" fill="none" fill-rule="nonzero" stroke="none" stroke-width="1" font-family="sans-serif" font-weight="normal" font-size="12" text-anchor="start"/><g data-paper-data="{&quot;index&quot;:null}" fill="none" fill-rule="nonzero" stroke="none" stroke-width="1" font-family="sans-serif" font-weight="normal" font-size="12" text-anchor="start"/></g></g><path d="M243.23467,190.16243c-0.52354,1.91021 -14.08847,2.92959 -18.27178,1.94008c-4.18329,-0.9895 -0.8394,-8.25604 -0.31586,-10.16625c0.06771,-0.24709 18.6508,7.9957 18.58763,8.22616z" fill="#ffffff" fill-rule="nonzero" stroke="#000000" stroke-width="3" stroke-linecap="butt"/><path d="M263.10177,163.74823l-39.47422,8.58067l-4.61507,13.1399l-5.08157,-34.79953c0,0 1.88873,0.57403 4.86713,0.24483c7.36336,-0.81388 39.28957,-2.36224 39.28957,-2.36224l12.32277,17.65442z" fill="#000000" fill-rule="nonzero" stroke="#191919" stroke-width="3" stroke-linecap="round"/><path d="M220.48313,172.04649l30.0395,5.92547l-0.85241,4.71219" fill="none" fill-rule="nonzero" stroke="#000000" stroke-width="5" stroke-linecap="round"/><path d="M257.92405,184.62211l-0.11397,-5.3074l13.82588,-13.86483" fill="none" fill-rule="nonzero" stroke="#000000" stroke-width="5" stroke-linecap="round"/></g><g fill-rule="nonzero" stroke-linecap="butt" stroke-linejoin="miter"><g data-paper-data="{&quot;index&quot;:null}" stroke="none" stroke-width="1"><path d="M266.79565,203.17449c-0.22376,-0.01971 -0.30297,-0.1476 -0.36766,-0.31246c-0.07989,-0.26725 -0.10089,-0.54308 -0.16105,-0.8132c-0.06656,-0.04259 -0.1331,-0.0852 -0.1971,-0.11073c-1.33489,-0.60735 -2.16531,-1.60191 -2.81698,-2.74451c-0.1363,-0.24159 -0.29226,-0.48037 -0.33284,-0.75331c-0.00758,-0.05119 -0.0374,-0.11656 -0.08181,-0.14496c-0.24405,-0.15618 -0.27705,-0.37798 -0.33221,-0.61398c-0.0501,-0.20185 -0.06091,-0.40945 -0.09134,-0.61418c-0.01776,-0.11941 0.00377,-0.24457 0.10898,-0.34707c0.1052,-0.10246 0.14386,-0.24754 0.185,-0.37554c0.14887,-0.75373 0.44285,-1.47634 0.86235,-2.16493c0.24398,-0.38414 0.55702,-0.70863 0.88973,-1.03596c0.98102,-0.96212 2.18961,-1.60879 3.55416,-2.01674c0.61604,-0.17687 1.26442,-0.27133 1.92294,-0.29755c0.49878,-0.02036 0.97608,0.08443 1.43625,0.20912c1.46419,0.39679 2.60576,1.18913 3.48813,2.26329c0.1705,0.20177 0.28716,0.44619 0.40383,0.69066c0.08432,0.162 0.18577,0.30411 0.39745,0.37787c0.18948,0.05956 0.29093,0.20163 0.3556,0.3665c0.07989,0.26725 0.12048,0.54022 0.16105,0.8132c0.01268,0.08532 -0.01645,0.15929 -0.04563,0.23326c-0.14129,0.26459 -0.16219,0.52911 -0.14122,0.80495c0.06663,0.58294 -0.06832,1.16033 -0.18363,1.73489c-0.04816,0.21619 -0.11591,0.43521 -0.22552,0.64292c-0.3409,0.67714 -0.70654,1.32305 -1.26421,1.89232c0.03805,0.25589 0.05899,0.53174 0.09962,0.80471c0.01522,0.10237 0.03297,0.2218 -0.07477,0.30718c-0.08808,0.08253 -0.05323,0.18207 -0.03798,0.28441c0.08186,0.68527 0.18334,1.3677 0.26519,2.05297c0.20613,1.52126 0.4149,3.05956 0.58176,4.58653c0.16179,1.49286 0.38257,2.97712 0.58365,4.46425c0.03553,0.23885 0.02919,0.46636 0.06474,0.70518c0.17255,1.16013 0.34506,2.32024 0.49796,3.48322c0.03045,0.20472 0.10017,0.40373 0.01019,0.60854c-0.02914,0.07399 0.00318,0.15638 0.01585,0.2417c0.12691,0.85304 0.23664,1.72599 0.36351,2.57903c0.00507,0.03411 0.01266,0.0853 0.01776,0.11941c0.06027,0.27011 -0.05699,0.42663 -0.3143,0.58612c-0.86508,0.52692 -1.81258,0.76952 -2.84253,0.72786c-0.26304,-0.01398 -0.53113,-0.06208 -0.78467,-0.14714c-0.18949,-0.05957 -0.2884,-0.18457 -0.33343,-0.3523c-0.13505,-0.50325 -0.28977,-1.0036 -0.42736,-1.5239c-0.09512,-0.36963 -0.15348,-0.76203 -0.30754,-1.12303c-0.33791,-0.78742 -0.44259,-1.62627 -0.72159,-2.42224c-0.14712,-0.44917 -0.33097,-0.87561 -0.45844,-1.32766c-0.13252,-0.48616 -0.30179,-0.94956 -0.45147,-1.41577c-0.26693,-0.85006 -0.4971,-1.72291 -0.7837,-2.57009c-0.40575,-1.10869 -0.73297,-2.2289 -1.06014,-3.34904c-0.1173,-0.38384 -0.23463,-0.76757 -0.35192,-1.15141c-0.16996,-0.60274 -0.3424,-1.22252 -0.51232,-1.82523c-0.09007,-0.33549 -0.21684,-0.6482 -0.30691,-0.98367c-0.11224,-0.34973 -0.16043,-0.67381 -0.25555,-1.04345zM267.25129,202.86409c0.25099,0.06802 0.49691,0.10194 0.75486,0.08181c0.53368,0.07911 1.06924,0.03598 1.60481,-0.00719c0.67564,-0.04614 1.36076,-0.16337 2.02626,-0.27775c0.76373,-0.12869 1.44314,-0.41938 2.13969,-0.73001c0.07351,-0.04558 0.14703,-0.09114 0.25729,-0.15948c-0.02027,-0.13648 -0.04063,-0.27296 -0.06091,-0.40943c-0.00507,-0.03411 -0.02979,-0.06538 -0.05706,-0.11368c-0.13753,0.02002 -0.27253,0.05712 -0.405,0.11128c-0.22815,0.08555 -0.44174,0.13405 -0.6699,0.21956c-0.57421,0.18821 -1.19093,0.22582 -1.77273,0.36286c-0.31182,0.06288 -0.61857,0.1598 -0.93546,0.18855c-0.6953,0.04902 -1.37788,0.18328 -2.08328,0.16403c-0.18192,-0.00838 -0.38345,-0.01384 -0.56539,-0.02223c-0.09382,-0.09094 -0.24592,-0.03388 -0.34925,-0.05372c-0.1255,-0.03401 -0.25102,-0.06801 -0.46456,-0.01946c0.1705,0.20177 0.14456,0.43214 0.25358,0.6254c0.10079,0.00277 0.19459,0.09365 0.32706,0.03949zM268.12339,203.32966c-0.47474,-0.08774 -0.59514,-0.08759 -0.8455,-0.01628c0.0501,0.20185 0.09767,0.38669 0.14775,0.58855c0.01776,0.11941 0.109,0.19329 0.23456,0.22731c0.08371,0.02268 0.18189,0.00837 0.26556,0.03103c0.3125,0.07652 0.65412,0.07901 0.96592,0.01616c0.15024,0.06524 0.30739,0.0424 0.46459,0.01949c0.88667,-0.11173 1.75627,-0.20357 2.63027,-0.40059c0.3879,-0.09137 0.77325,-0.19977 1.13638,-0.3224c0.2846,-0.11119 0.58879,-0.22521 0.79412,-0.46429c-0.03299,-0.22181 -0.06601,-0.44356 -0.09897,-0.66537c-0.15209,0.057 -0.28459,0.11117 -0.39736,0.16244c-0.52984,0.2166 -1.06474,0.39912 -1.60982,0.51338c-0.69969,0.1542 -1.4121,0.22312 -2.12196,0.3091c-0.33404,0.04867 -0.66361,-0.00788 -0.99508,0.05781c-0.19459,-0.09365 -0.3936,-0.08212 -0.57043,-0.05636zM273.3838,221.96314c0.29028,0.06229 0.56788,0.03931 0.8404,-0.01782c0.02217,0.01419 0.06403,0.02553 0.0837,0.02266c0.46901,-0.08574 0.93295,-0.20561 1.34236,-0.42213c0.24278,-0.12252 0.48802,-0.22796 0.65654,-0.44424c-0.1421,-0.95541 -0.28421,-1.91076 -0.43387,-2.91738c-0.44363,0.25633 -0.90253,0.41039 -1.36388,0.54728c-0.40247,0.12836 -0.80304,0.1344 -1.21056,0.22863c-0.15716,0.02291 -0.29725,0.0259 -0.45444,0.04879c-0.24844,-0.05097 -0.51149,-0.06493 -0.80872,-0.03908c0.07614,0.51183 0.30436,0.96662 0.41471,1.4386c0.13253,0.48617 0.28471,0.9695 0.41471,1.43858c0.19458,0.09365 0.35685,0.10491 0.51911,0.11611zM272.38261,218.60555c0.15024,0.06522 0.30996,0.05943 0.46711,0.03653c0.16734,0.04537 0.34166,0.00255 0.52099,-0.00615c0.55268,-0.06309 1.09269,-0.21146 1.60792,-0.3911c0.30419,-0.11403 0.60335,-0.26222 0.85301,-0.47289c-0.01014,-0.06825 -0.00065,-0.13934 -0.01083,-0.20759c-0.1243,-0.836 -0.24608,-1.65486 -0.3508,-2.49369c-0.1123,-0.89001 -0.22206,-1.76296 -0.33434,-2.65297c-0.17322,-1.29948 -0.32416,-2.58473 -0.4974,-3.88421c-0.17637,-1.45587 -0.40917,-2.8861 -0.54623,-4.3477c-0.01586,-0.2417 -0.07362,-0.49475 -0.11165,-0.75067c-0.20595,0.09973 -0.3872,0.23072 -0.59825,0.29631c-0.66483,0.25372 -1.36454,0.40792 -2.06932,0.52804c-0.62871,0.09158 -1.25999,0.1661 -1.89127,0.24062c-0.26052,0.00309 -0.4988,0.02036 -0.7593,0.02345c-0.17238,-0.07947 -0.34416,-0.01958 -0.50643,-0.03081c-0.18192,-0.00838 -0.34922,-0.05371 -0.54317,-0.00803c-0.01392,0.17633 0.04567,0.30711 0.08309,0.42364c0.36584,0.97512 0.57701,1.99016 0.8839,2.97383c0.19467,0.634 0.3893,1.268 0.60365,1.8991c0.26693,0.85006 0.55097,1.68017 0.81539,2.51316c0.22195,0.6823 0.44384,1.36462 0.6461,2.04979c0.22951,0.73351 0.43684,1.45279 0.64674,2.18916c0.19973,0.6681 0.40203,1.35328 0.62393,2.03558c0.17934,-0.00871 0.31248,0.07648 0.46711,0.03655zM275.54483,194.78847c-0.40939,0.21649 -0.8119,0.34486 -1.21178,0.49027c-0.41957,0.14828 -0.81693,0.31076 -1.23902,0.44194c-0.40248,0.12835 -0.82968,0.22543 -1.23466,0.33669c-0.42467,0.11414 -0.84929,0.22829 -1.29608,0.32827c-0.40751,0.09421 -0.83725,0.17422 -1.24479,0.26845c-0.42971,0.08002 -0.86958,0.09181 -1.28915,0.24008c-0.42779,-0.04225 -0.84991,0.08895 -1.26507,0.13202c-0.43729,0.02883 -0.88924,0.09468 -1.32656,0.12353c-0.41765,0.02597 -0.85753,0.03773 -1.27774,0.04667c-0.43988,0.01177 -0.87024,-0.04758 -1.30244,0.01543c0.0216,0.41519 0.03935,0.53459 0.24221,0.81879c0.24844,0.05097 0.49693,0.10194 0.77957,0.11303c0.34163,0.00253 0.68323,0.00507 1.04707,0.0218c0.68579,0.02214 1.34939,0.03001 2.03707,-0.07015c0.47156,-0.06869 0.94057,-0.15446 1.42228,-0.15488c0.10079,0.00277 0.21866,-0.01443 0.33144,-0.06571c0.22814,-0.08556 0.48613,-0.10565 0.72188,-0.14003c0.86451,-0.12592 1.71378,-0.35422 2.54088,-0.59674c1.09966,-0.29964 2.14221,-0.71295 3.17713,-1.17749c0.20849,-0.08268 0.41702,-0.16532 0.55131,-0.34177c0.00126,-0.26164 -0.05646,-0.51471 -0.16359,-0.83024zM267.30524,193.91457c-0.12418,0.24468 -0.16981,0.47794 -0.23504,0.71403c-0.07035,0.20196 -0.05954,0.40957 0.04951,0.60286c0.17624,0.37521 0.29611,0.77608 0.33731,1.18841c0.00507,0.03411 0.03229,0.08245 0.03485,0.0995c0.10584,0.03685 0.18442,0.02538 0.27509,-0.04009c0.01711,-0.0199 0.03168,-0.0569 0.02914,-0.07398c-0.01464,-0.50335 0.01003,-1.01239 0.07398,-1.5272c0.00951,-0.07111 0.01392,-0.17632 -0.03554,-0.23886c-0.11918,-0.26153 -0.23837,-0.52303 -0.52933,-0.72469zM266.50948,196.66241c-0.00957,-0.46921 0.02272,-0.92709 0.07718,-1.37078c0.01897,-0.14219 -0.0184,-0.25877 -0.09768,-0.38667c-0.12868,-0.19039 -0.2916,-0.34099 -0.45705,-0.50863c-0.04945,-0.06251 -0.1014,-0.14208 -0.21424,-0.0908c-0.05511,0.30436 -0.13238,0.59451 -0.14822,0.89309c0.4406,0.66789 0.44057,0.66788 0.58201,1.48391c0.06654,0.04261 0.14769,0.0482 0.25796,-0.02015zM271.59397,197.64733c-0.03293,0.31855 -0.04619,0.63425 -0.05947,0.94992c-0.00951,0.07112 -0.01899,0.1422 0.0108,0.20758c0.1781,0.25292 0.33664,0.50873 0.60539,0.69619c0.20533,-0.23907 0.2262,-0.50357 0.30857,-0.75961c0.04118,-0.12798 0.0063,-0.22752 -0.07042,-0.33834c-0.19776,-0.25007 -0.35627,-0.5059 -0.49759,-0.78157c-0.00252,-0.01707 -0.04434,-0.02842 -0.08871,-0.05678c-0.0564,0.02564 -0.13251,0.05417 -0.20851,0.08268zM271.22705,193.29097c-0.21482,0.31018 -0.29466,0.58326 -0.39412,0.85921c-0.02409,0.10809 0.00828,0.19051 0.04061,0.27296c0.1788,0.39228 0.2986,0.79318 0.3424,1.22256c0.0076,0.05118 0.03485,0.0995 0.04249,0.15067c0.21867,-0.01442 0.25543,-0.03719 0.23511,-0.17368c-0.06599,-0.44361 -0.03115,-0.88441 0.10696,-1.30542c0.08237,-0.25603 0.03227,-0.4579 -0.09894,-0.66538c-0.09636,-0.10801 -0.17051,-0.20179 -0.27447,-0.36093zM268.83043,196.34175c0.09822,-0.01433 0.10771,-0.08545 0.09758,-0.15369c-0.07102,-0.47768 0.01761,-0.96122 0.10631,-1.44477c0.06205,-0.3925 -0.07488,-0.77345 -0.42542,-1.10585c-0.11469,0.17357 -0.10897,0.34706 -0.18437,0.51491c-0.14827,0.35277 -0.10004,0.6769 0.02927,1.00669c0.13442,0.36387 0.28847,0.72493 0.30501,1.10597c0.02728,0.04829 0.04945,0.06254 0.07163,0.07672zM269.85438,193.50835c-0.08745,0.22189 -0.16541,0.37269 -0.22368,0.52062c-0.10452,0.24184 -0.09374,0.44943 0.02035,0.67681c0.16609,0.30698 0.25615,0.64247 0.32655,0.98079c0.03741,0.11658 0.05769,0.25305 0.07546,0.37246c0.10079,0.00277 0.1128,-0.05127 0.10773,-0.0854c0.02463,-0.50907 0.06895,-1.02098 0.19442,-1.52732c0.00696,-0.08816 0.01645,-0.15926 -0.01588,-0.2417c-0.13376,-0.22454 -0.24786,-0.45194 -0.48493,-0.69627zM272.8064,197.29643c0.1268,0.31271 0.11351,0.62838 0.11988,0.94121c0.01268,0.0853 -0.03611,0.16213 0.01587,0.2417c0.07926,0.12793 0.35562,0.36652 0.59459,0.4886c0.11218,-0.19066 0.121,-0.40109 0.17172,-0.60023c0.0361,-0.16214 -0.00383,-0.29575 -0.12238,-0.41792c-0.19267,-0.21594 -0.34611,-0.43763 -0.44564,-0.70202c-0.00251,-0.01708 -0.04692,-0.04544 -0.06908,-0.05963c-0.08115,-0.0056 -0.15974,0.00582 -0.26492,0.10832zM266.25444,199.40122c0.15341,0.22165 0.17688,0.51459 0.3867,0.71062c0.135,-0.0371 0.18127,-0.13098 0.24971,-0.21067c0.11722,-0.15654 0.25918,-0.28176 0.32951,-0.48374c-0.16354,-0.28993 -0.17502,-0.63686 -0.32147,-0.94669c-0.10584,-0.03685 -0.20409,-0.02258 -0.29724,0.02588c-0.07474,0.30722 -0.19132,0.60309 -0.34721,0.90466zM269.27879,198.14148c-0.01392,0.17633 -0.02786,0.35266 -0.10833,0.48638c-0.19264,0.32435 -0.12982,0.61155 0.07048,0.87867c0.07414,0.09377 0.08937,0.19615 0.22249,0.28136c0.17111,-0.19926 0.28074,-0.40694 0.39032,-0.61466c0.0317,-0.05691 0.02151,-0.12515 -0.01081,-0.20758c-0.11669,-0.24446 -0.21114,-0.47472 -0.32775,-0.71917c-0.00758,-0.05119 -0.05707,-0.11371 -0.23645,-0.105zM268.04101,198.32181c-0.02276,0.38679 -0.08994,0.74515 -0.30475,1.05534c-0.05132,0.05976 -0.02152,0.12514 -0.01135,0.19338c0.04248,0.15069 0.10463,0.29853 0.24533,0.43486c0.23957,-0.27893 0.38086,-0.54357 0.51962,-0.82521c0.04625,-0.09387 0.05325,-0.18204 0.01834,-0.28157c-0.06715,-0.18195 -0.11478,-0.36676 -0.18199,-0.54869c-0.00251,-0.01708 -0.04692,-0.04547 -0.06909,-0.05965c-0.05894,0.00858 -0.1179,0.01717 -0.21611,0.03151zM272.84465,193.90943c-0.10397,-0.15914 -0.21044,-0.3354 -0.31442,-0.49457c-0.02217,-0.01419 -0.04439,-0.02841 -0.08873,-0.05678c-0.19332,0.18501 -0.28074,0.40694 -0.33145,0.60604c0.21621,0.50885 0.42731,0.98356 0.51358,1.56364c0.23447,-0.31304 0.05631,-0.56596 0.08228,-0.79633c0.01834,-0.28157 0.07851,-0.55175 0.13867,-0.82198zM266.9692,193.54519c-0.22692,-0.17609 -0.41459,-0.35794 -0.70738,-0.43729c-0.06084,0.13086 -0.14637,0.23049 -0.19008,0.34145c-0.04369,0.11095 -0.10707,0.22474 -0.08928,0.34418c0.08179,0.14493 0.23455,0.22728 0.35054,0.3324c0.11602,0.10508 0.19526,0.23302 0.36509,0.29543c0.09692,-0.29303 0.17677,-0.56607 0.27118,-0.87615zM265.25713,196.8797c0.00245,-0.52325 -0.00206,-0.95838 -0.00652,-1.39345c-0.00507,-0.03411 0.007,-0.08818 -0.0374,-0.11656c-0.16545,-0.16762 -0.29668,-0.37511 -0.56983,-0.45732c-0.04308,0.25029 -0.08868,0.48355 -0.11463,0.71393c0.31378,0.3552 0.51474,0.76165 0.7284,1.25344zM270.76271,199.61606c0.15908,-0.1452 0.17298,-0.32151 0.23129,-0.46944c0.07542,-0.16785 0.09187,-0.3271 -0.01465,-0.50332c-0.13629,-0.24159 -0.27259,-0.4832 -0.27392,-0.76193c-0.14263,-0.01409 -0.21867,0.01442 -0.20344,0.11679c0.01842,0.25875 0.03934,0.5346 -0.04554,0.77356c-0.10897,0.34706 0.08626,0.58012 0.30626,0.84435zM268.76183,199.52404c-0.21228,0.32724 -0.39542,0.58051 -0.55891,0.8309c0.01776,0.11941 0.08685,0.1791 0.1363,0.24158c0.06909,0.05965 0.12359,0.15627 0.26619,0.17037c0.19586,-0.16798 0.36692,-0.36719 0.51587,-0.58058c-0.09193,-0.21318 -0.20097,-0.40648 -0.35944,-0.66228zM271.97077,199.91069c-0.21487,-0.23015 -0.40508,-0.42903 -0.59774,-0.64498c-0.10455,0.24183 -0.21163,0.46661 -0.31872,0.69136c0.1705,0.20177 0.2992,0.39219 0.5578,0.51134c0.15399,-0.17928 0.2465,-0.36708 0.35866,-0.55772zM267.83113,192.86184c-0.22055,0.1367 -0.24651,0.36709 -0.33904,0.55485c-0.0317,0.05691 0.00063,0.13934 0.04758,0.1848c0.14325,0.15345 0.26433,0.29269 0.40502,0.42907c0.00252,0.01707 0.04186,0.01132 0.08116,0.00562c0.10204,-0.25887 0.18178,-0.53195 0.28384,-0.79084c-0.12359,-0.15629 -0.30107,-0.26987 -0.47858,-0.38345zM270.91596,192.95283c-0.10652,-0.17621 -0.21045,-0.33537 -0.44433,-0.42333c-0.13434,0.17647 -0.30799,0.35863 -0.3758,0.57766c0.07669,0.11084 0.11411,0.22739 0.20792,0.3183c0.07413,0.09377 0.07479,0.23315 0.25925,0.25854c0.1242,-0.24468 0.24837,-0.48936 0.35296,-0.73121zM272.50811,199.74526c0.10143,0.14209 0.29095,0.20163 0.48299,0.27824c0.12677,-0.22762 0.30035,-0.4098 0.34346,-0.66008c-0.1775,-0.1136 -0.30363,-0.28693 -0.54006,-0.39195c-0.10204,0.25887 -0.1844,0.5149 -0.2864,0.77378zM273.98396,196.84605c0.02603,0.30995 0.13321,0.62551 0.1199,0.94122c-0.00124,0.26164 0.15662,0.37805 0.41267,0.48021c0.1096,-0.20767 0.121,-0.40109 0.14948,-0.6144c-0.29602,-0.23574 -0.4425,-0.5456 -0.68208,-0.807zM264.12137,196.80112c0.07606,-0.0285 0.06842,-0.07968 0.06084,-0.13086c-0.01332,-0.22464 -0.04885,-0.4635 -0.04255,-0.69102c0.03037,-0.3356 -0.19149,-0.47758 -0.47482,-0.62804c-0.02153,0.12518 -0.04812,0.21617 -0.05509,0.30433c-0.02846,0.21332 -0.02024,0.40383 0.18451,0.56576c0.11601,0.10509 0.17812,0.25295 0.23777,0.3837c-0.00951,0.07112 -0.0361,0.16212 0.08937,0.19614zM265.41158,199.94235c0.08808,-0.08253 0.13689,-0.15939 0.18822,-0.21915c0.17617,-0.16509 0.2123,-0.32726 0.14253,-0.52625c-0.06463,-0.16488 -0.07291,-0.35543 -0.11794,-0.52316c-0.00758,-0.0512 0.00443,-0.10522 -0.13566,-0.10226c-0.06275,0.25317 -0.16473,0.51207 -0.30858,0.75961c-0.0317,0.05691 -0.01899,0.14217 -0.00886,0.21042c0.05958,0.13073 0.11664,0.24449 0.24027,0.40075zM270.52122,200.01726c-0.10394,-0.15915 -0.1908,-0.33823 -0.35122,-0.47173c-0.16855,0.2163 -0.36185,0.40131 -0.46641,0.64313c0.14327,0.15343 0.22756,0.31544 0.45892,0.38635c0.13436,-0.17647 0.29091,-0.33869 0.35865,-0.55773zM269.25598,193.80468c0.16853,-0.21629 0.25598,-0.4382 0.3041,-0.65436c-0.14324,-0.15344 -0.26434,-0.29265 -0.46402,-0.42045c-0.14197,0.12527 -0.2199,0.27608 -0.27564,0.44106c0.15087,0.20461 0.28211,0.41209 0.43549,0.63377zM268.88931,201.05676c0.13567,0.10227 0.20727,0.17896 0.31568,0.23288c0.06656,0.04259 0.13055,0.06814 0.19461,0.09366c0.18378,-0.11391 0.34286,-0.2591 0.43539,-0.44688c-0.12359,-0.15629 -0.24723,-0.31256 -0.46149,-0.40337c-0.15399,0.17928 -0.31306,0.32449 -0.48415,0.52371zM264.58427,198.56385c-0.18567,0.23624 -0.32254,0.39557 -0.47402,0.59194c-0.00951,0.07111 0.02788,0.18764 0.10207,0.28144c0.05451,0.09662 0.033,0.22178 0.16356,0.28992c0.16922,-0.07695 0.2744,-0.17942 0.35491,-0.31314c-0.06026,-0.27011 -0.09827,-0.52603 -0.14648,-0.85016zM266.47165,192.76354c0.11096,0.071 0.22189,0.14201 0.33278,0.21301c0.11097,0.071 0.21933,0.1249 0.33024,0.19591c0.10963,-0.20767 0.22688,-0.36422 0.23826,-0.55759c-0.07415,-0.09376 -0.19712,-0.11072 -0.30295,-0.14761c-0.10584,-0.03685 -0.21933,-0.1249 -0.35429,-0.08782c-0.10014,0.13663 -0.20531,0.23906 -0.24398,0.38416zM271.32123,200.8071c-0.18256,-0.1477 -0.31124,-0.33815 -0.56736,-0.44027c-0.11721,0.15653 -0.21481,0.31017 -0.33208,0.46671c0.18255,0.1477 0.32327,0.28411 0.57175,0.33504c0.12484,-0.10534 0.25478,-0.17655 0.32765,-0.36148zM265.27207,194.82081c0.07224,-0.32425 0.12987,-0.61153 0.18749,-0.89878c-0.09382,-0.09094 -0.16797,-0.18472 -0.31058,-0.19878c-0.18822,0.21918 -0.25093,0.47228 -0.33329,0.72832c0.09383,0.09094 0.18762,0.18185 0.29854,0.25283c0.02979,0.0654 0.07162,0.0767 0.15781,0.11645zM267.6921,200.42935c-0.14584,-0.17048 -0.17625,-0.37524 -0.35375,-0.48883c-0.19073,0.2021 -0.36437,0.38426 -0.49115,0.61192c0.15533,0.09939 0.18066,0.27 0.39237,0.34374c0.18376,-0.11391 0.27886,-0.28467 0.45251,-0.46681zM271.75175,192.49991c-0.12231,0.1224 -0.22242,0.259 -0.28071,0.40695c0.14836,0.18755 0.27702,0.37796 0.43044,0.59963c0.08995,-0.2048 0.18757,-0.35848 0.3194,-0.55199c-0.14835,-0.18756 -0.27448,-0.36093 -0.4691,-0.45459zM265.56565,200.30336c0.11156,0.21035 0.19845,0.38942 0.4152,0.4973c0.14448,-0.10821 0.27189,-0.19645 0.33019,-0.34441c-0.10903,-0.19328 -0.19843,-0.38938 -0.33219,-0.61394c-0.15908,0.1452 -0.29849,0.28752 -0.41319,0.46109zM269.82631,192.78038c0.10708,-0.22475 0.308,-0.35865 0.31938,-0.55204c-0.14324,-0.15344 -0.31566,-0.2329 -0.5052,-0.29246c-0.13941,0.14233 -0.28139,0.26758 -0.31244,0.46382c0.15782,0.11646 0.29605,0.23574 0.49823,0.3806zM272.74214,200.37351c-0.15532,-0.09939 -0.27129,-0.20448 -0.45829,-0.24696c-0.1096,0.20767 -0.308,0.35861 -0.35361,0.59186c0.13566,0.10227 0.26371,0.15334 0.44307,0.14463c0.13688,-0.15938 0.25159,-0.33294 0.36879,-0.48948zM264.32269,194.64532c-0.13819,-0.11933 -0.24655,-0.17321 -0.39174,-0.20443c-0.11722,0.15654 -0.20977,0.34429 -0.17928,0.54901c0.13312,0.08519 0.26618,0.17036 0.40186,0.27265c0.1293,-0.21057 0.11849,-0.41813 0.16914,-0.61727zM275.4027,198.01629c-0.13054,-0.06813 -0.23898,-0.12206 -0.35936,-0.12195c-0.09252,0.18775 -0.14569,0.36985 -0.1571,0.56323c0.11343,0.08806 0.22184,0.14199 0.36445,0.15607c0.11218,-0.19066 0.10135,-0.39823 0.15202,-0.59734zM269.80592,201.5507c0.14831,0.18755 0.30805,0.18171 0.48235,0.1389c0.13752,-0.02002 0.27,-0.07418 0.30865,-0.21927c-0.13819,-0.11933 -0.27382,-0.22156 -0.46334,-0.28112c-0.12231,0.1224 -0.22497,0.24194 -0.32764,0.36147zM273.77058,193.79195c-0.08178,-0.14495 -0.10207,-0.28142 -0.25228,-0.3467c-0.34981,0.34728 -0.20341,0.65714 0.04638,0.98675c0.0678,-0.21903 0.13814,-0.42105 0.20591,-0.64005zM267.92031,201.42454c0.1667,-0.09398 0.27188,-0.19647 0.36693,-0.36719c-0.15024,-0.06524 -0.19529,-0.23301 -0.3626,-0.27834c-0.11539,0.03422 -0.14449,0.10819 -0.21548,0.17081c-0.06841,0.07967 -0.1616,0.12812 -0.14386,0.24754c0.09383,0.09094 0.18765,0.18185 0.35497,0.22719zM269.27215,196.2077c0.23132,0.07088 0.34417,0.01959 0.34096,-0.1368c-0.01332,-0.22463 -0.06596,-0.44358 -0.11607,-0.64545c-0.01012,-0.06822 -0.04252,-0.15067 -0.16546,-0.16762c-0.05257,0.32141 -0.06583,0.63705 -0.05947,0.94988zM273.86712,200.24449c0.05451,0.09663 0.14072,0.13639 0.26116,0.13628c0.17366,-0.18218 0.38915,-0.35299 0.47151,-0.60901c-0.25099,-0.06801 -0.4228,-0.00816 -0.53493,0.18247c-0.06842,0.07969 -0.17875,0.14807 -0.19774,0.29025zM271.87956,195.65355c0.27504,-0.04005 0.32891,-0.08282 0.3061,-0.23632c-0.05518,-0.23599 -0.11287,-0.48902 -0.24665,-0.71357c-0.11151,0.32999 -0.20591,0.64006 -0.05947,0.94989zM275.06346,196.95021c0.00063,0.13933 0.01844,0.25878 0.01652,0.38104c0.01584,0.24172 0.01588,0.24171 0.38224,0.27553c0.02153,-0.12518 0.06019,-0.27023 0.06967,-0.34132c-0.17749,-0.11362 -0.31312,-0.21584 -0.46842,-0.31521zM268.74691,191.59549c-0.10523,0.10248 -0.27695,0.16237 -0.24906,0.35004c0.13055,0.06814 0.27826,0.11634 0.431,0.19866c0.12233,-0.12241 0.26684,-0.23056 0.30546,-0.37566c-0.15026,-0.06523 -0.28335,-0.15048 -0.48743,-0.17304zM274.06528,198.47264c-0.06522,0.23609 -0.15017,0.47504 -0.21539,0.71115c0.05199,0.07954 0.12104,0.13922 0.23384,0.08795c0.15399,-0.17928 0.26365,-0.38703 0.28958,-0.61738c-0.09382,-0.09094 -0.18255,-0.1477 -0.30808,-0.1817zM272.41355,192.63012c0.135,-0.0371 0.22311,-0.11964 0.28646,-0.23347c-0.04945,-0.06252 -0.09889,-0.12504 -0.14835,-0.18754c-0.07159,-0.07672 -0.12363,-0.15629 -0.24658,-0.17322c-0.11788,0.01717 -0.21105,0.06556 -0.27694,0.16236c0.1211,0.13925 0.26437,0.29266 0.38538,0.4319zM268.49221,192.85271c0.12233,-0.12241 0.18315,-0.25329 0.2218,-0.39835c-0.17238,-0.07947 -0.32517,-0.16178 -0.47535,-0.22705c-0.14957,0.07412 -0.21294,0.18791 -0.21737,0.29313c0.15781,0.11646 0.31567,0.23289 0.47095,0.33232zM273.27801,193.04451c-0.07415,-0.09376 -0.14831,-0.18755 -0.24214,-0.2785c-0.02217,-0.01418 -0.0615,-0.00846 -0.10336,-0.0198c-0.07099,0.06263 -0.18379,0.11391 -0.22243,0.259c0.07928,0.12792 0.14395,0.29275 0.30176,0.40922c0.14446,-0.1082 0.20781,-0.22203 0.26613,-0.36995zM274.53771,194.35999c-0.00827,-0.19053 0.20278,-0.25615 0.17742,-0.42672c-0.09889,-0.125 -0.14133,-0.27571 -0.31884,-0.38929c-0.12484,0.10534 -0.23007,0.20785 -0.14825,0.35277c0.08178,0.14496 0.08496,0.30134 0.28969,0.46327zM274.90015,199.36194c0.06083,-0.13087 0.14129,-0.26461 0.20466,-0.37839c0.01712,-0.01992 -0.0076,-0.0512 -0.0127,-0.0853c-0.10332,-0.0198 -0.21422,-0.09083 -0.38345,-0.01384c-0.0779,0.15079 -0.15336,0.31864 -0.2484,0.48938c0.14767,0.04822 0.26812,0.04808 0.43988,-0.01177zM267.77088,192.05141c-0.1331,-0.0852 -0.26876,-0.18744 -0.37968,-0.25842c-0.16922,0.07694 -0.27444,0.17941 -0.35997,0.27903c0.03743,0.11659 0.17747,0.11357 0.2637,0.15332c0.08625,0.03973 0.17494,0.09652 0.30995,0.05942c0.07351,-0.04558 0.1445,-0.10822 0.16605,-0.23337zM266.20587,201.09904c0.11602,0.10508 0.20729,0.17898 0.29856,0.25283c0.02471,0.03128 0.08621,0.03976 0.10841,0.05394c0.13752,-0.02002 0.22564,-0.10257 0.28898,-0.2164c-0.11855,-0.12217 -0.21744,-0.24721 -0.37267,-0.34663c-0.11026,0.06836 -0.19837,0.15092 -0.32322,0.25624zM275.59129,196.85589c0.04564,-0.23325 0.0912,-0.46646 -0.00324,-0.69674c-0.16921,0.07694 -0.3239,0.11691 -0.40181,0.26768c0.14134,0.27572 0.14136,0.27572 0.40503,0.42904zM268.28977,201.61474c0.38224,0.27553 0.40184,0.27264 0.73016,0.05047c-0.13567,-0.10227 -0.28839,-0.18455 -0.42403,-0.28685c-0.135,0.0371 -0.22307,0.11964 -0.30612,0.2363zM271.42602,192.19876c-0.11854,-0.12217 -0.23201,-0.21022 -0.39935,-0.25559c-0.03677,0.02279 -0.09065,0.06549 -0.14452,0.1082c-0.03422,0.03986 -0.06592,0.09677 -0.10011,0.13657c0.11855,0.12216 0.22,0.26427 0.38985,0.32668c0.11025,-0.06835 0.19332,-0.18501 0.25409,-0.3159zM264.90774,200.46893c0.05384,-0.04271 0.12483,-0.10536 0.13689,-0.1594c0.03106,-0.19627 -0.03364,-0.36109 -0.1991,-0.52876c-0.10776,0.0854 -0.25983,0.14243 -0.30357,0.25341c0.10394,0.15915 0.15153,0.34395 0.36576,0.43475zM264.77943,193.53301c-0.02215,-0.0142 -0.04436,-0.0284 -0.08873,-0.05678c-0.23513,0.17372 -0.40369,0.39 -0.57223,0.60628c0.0767,0.11083 0.1629,0.15055 0.3226,0.14473c0.10708,-0.22475 0.23378,-0.45237 0.33837,-0.69422zM270.65812,195.13431c-0.07983,0.27308 -0.1818,0.53194 -0.11903,0.81912c0.00251,0.01708 0.08622,0.03971 0.1255,0.034c0.09822,-0.01434 0.16667,-0.09402 0.15395,-0.1793c0.02598,-0.23037 -0.04633,-0.44645 -0.16041,-0.67381zM270.68882,191.69607c-0.11344,-0.08808 -0.22693,-0.17611 -0.37461,-0.22433c-0.13753,0.02002 -0.2307,0.06846 -0.31118,0.20216c0.15278,0.08234 0.30806,0.18174 0.45826,0.24699c0.11277,-0.05128 0.18376,-0.11392 0.22751,-0.22487zM271.31692,201.45262c0.2776,-0.02301 0.51592,-0.04025 0.73393,-0.19403c-0.08178,-0.14494 -0.22945,-0.19317 -0.39425,-0.22146c-0.14195,0.12526 -0.26681,0.23059 -0.33966,0.41554zM263.57915,199.09374c0.16162,-0.12813 0.17872,-0.14801 0.17113,-0.19923c-0.0057,-0.17344 -0.12679,-0.31272 -0.24533,-0.43486c-0.04689,-0.04543 -0.1477,-0.04818 -0.19142,0.06276c0.14071,0.13639 0.09511,0.36965 0.26566,0.57136zM265.58306,193.53796c0.12677,-0.22762 0.27566,-0.44106 0.25214,-0.73394c-0.25728,0.15948 -0.3644,0.38428 -0.47652,0.5749c0.0323,0.08245 0.09634,0.10795 0.22439,0.15902zM267.18065,201.44511c-0.09062,0.0655 -0.18378,0.11393 -0.27439,0.17942c0.12108,0.13926 0.25673,0.2415 0.46524,0.15882c0.05641,-0.02564 0.11277,-0.05129 0.12231,-0.1224c-0.05451,-0.09662 -0.16292,-0.15057 -0.31312,-0.21584zM273.17063,195.29121c0.17684,-0.02579 0.25034,-0.0713 0.21039,-0.20492c-0.03741,-0.11658 -0.07483,-0.23314 -0.13189,-0.34684c-0.02728,-0.04828 -0.07417,-0.09381 -0.15021,-0.06529c-0.02849,0.21331 -0.00057,0.40098 0.07171,0.61704zM265.65374,196.03759c-0.04563,0.23326 -0.05189,0.46077 0.04001,0.67396c0.00253,0.01708 0.08622,0.03971 0.10584,0.03685c0.03927,-0.00572 0.07099,-0.06263 0.0659,-0.09676c-0.05262,-0.21893 -0.04378,-0.4294 -0.21179,-0.61412zM264.79702,196.75501c-0.0843,-0.16202 -0.11223,-0.34972 -0.25799,-0.52022c-0.06524,0.23609 -0.07662,0.42949 -0.00246,0.52326c0.05451,0.09662 0.13311,0.08521 0.26046,-0.00307zM273.19223,200.97027c0.22815,-0.08555 0.50325,-0.12561 0.61033,-0.35038c-0.37394,-0.08494 -0.48102,0.13981 -0.61033,0.35038zM272.45532,197.90537c0.03926,-0.00572 0.05647,-0.02566 0.09573,-0.03137c-0.04502,-0.16773 0.01072,-0.33274 -0.11037,-0.47196c-0.12042,0.00009 -0.17682,0.02577 -0.22309,0.11965c0.0767,0.11083 0.15594,0.23873 0.23776,0.3837zM268.15916,195.7423c-0.02341,0.24743 -0.03479,0.44083 0.01528,0.6427c0.00507,0.03411 0.04943,0.06251 0.10837,0.05393c0.01967,-0.00288 0.0564,-0.02564 0.07351,-0.04558c0.04564,-0.23325 0.01517,-0.43795 -0.1972,-0.65104zM265.27219,200.62499c-0.11278,0.0513 -0.16666,0.09398 -0.11975,0.13945c0.0767,0.11083 0.17306,0.2188 0.26941,0.3268c0.06908,0.05965 0.12802,0.05107 0.17681,-0.02576c-0.08682,-0.17908 -0.16865,-0.32406 -0.32645,-0.44049zM269.59425,191.48949c0.07099,-0.06263 0.1445,-0.10822 0.21548,-0.17083c0.01713,-0.01991 0.01203,-0.05404 0.02409,-0.10809c-0.23574,0.03431 -0.45947,0.01465 -0.70476,0.12009c0.15278,0.08234 0.26115,0.13625 0.46523,0.15881zM267.33362,198.42481c0.04501,0.16774 0.08751,0.31845 0.1376,0.52032c0.1711,-0.19926 0.20723,-0.36135 0.16218,-0.52909c-0.10585,-0.03686 -0.16733,-0.04536 -0.29982,0.00879zM273.4395,197.09962c0.09636,0.10801 0.08495,0.30134 0.3163,0.37225c-0.00198,-0.41804 -0.01465,-0.50331 -0.11797,-0.52316c-0.09822,0.01434 -0.15213,0.05701 -0.19837,0.15092zM266.98537,195.94819c-0.19774,0.29024 -0.16724,0.49496 -0.05061,0.73944c0.24462,-0.24481 0.05189,-0.46073 0.05061,-0.73944zM274.06798,194.30637c-0.18061,0.27033 -0.15269,0.45803 -0.08295,0.65701c0.00252,0.01707 0.04436,0.02839 0.08365,0.02266c0.05895,-0.00857 0.09316,-0.04844 0.08808,-0.08254c-0.00569,-0.17345 -0.05073,-0.34119 -0.0888,-0.5971zM274.34463,196.70633c0.08178,0.14495 0.1268,0.31271 0.34101,0.40347c0.03357,-0.1792 -0.00892,-0.32988 -0.04884,-0.46349c-0.1255,-0.03401 -0.20151,-0.0055 -0.29217,0.06zM274.19844,193.29385c-0.16039,-0.13352 -0.18829,-0.32119 -0.39492,-0.3608c-0.02341,0.24743 -0.02341,0.24743 0.22821,0.4548c0.03677,-0.02279 0.07351,-0.04558 0.16668,-0.09401zM273.3259,200.11412c0.26744,-0.09125 0.38216,-0.26483 0.47467,-0.45261c-0.07415,-0.09376 -0.15278,-0.08234 -0.20409,-0.02258c-0.0779,0.1508 -0.17553,0.30447 -0.27055,0.47518zM271.68774,191.934c0.11538,-0.03423 0.21106,-0.06559 0.25475,-0.17653c-0.09126,-0.07384 -0.18255,-0.14774 -0.30293,-0.1476c-0.0957,0.03136 -0.14956,0.0741 -0.17874,0.14807c0.05199,0.07955 0.11855,0.12217 0.22694,0.17608zM270.09835,198.38815c0.03866,-0.14505 0.06275,-0.25319 0.0082,-0.34981c-0.02471,-0.03128 -0.06654,-0.04261 -0.1084,-0.05394c-0.05895,0.00857 -0.13248,0.05414 -0.10522,0.10246c0.01522,0.10238 0.03298,0.22181 0.20542,0.30128zM268.22776,191.47936c-0.18446,-0.02543 -0.32895,0.08279 -0.48104,0.13983c0.26876,0.18745 0.30806,0.1817 0.48104,-0.13983zM263.69421,196.89819c0.04053,-0.26737 0.04054,-0.26735 -0.15153,-0.34398c-0.02409,0.10809 -0.0456,0.23326 0.15153,0.34398zM271.22826,197.7529c-0.08625,-0.03973 -0.14516,-0.03114 -0.15972,0.00582c-0.0779,0.1508 -0.05068,0.19912 0.14901,0.32691c0.0412,-0.12799 0.02599,-0.23039 0.01075,-0.33277zM274.91346,194.32269c-0.08553,0.09964 -0.15143,0.19638 -0.09442,0.31005c0.30673,-0.09699 0.32131,-0.13391 0.09442,-0.31005zM263.19284,196.36121c-0.10014,0.13663 -0.09951,0.27594 -0.10137,0.3982c0.01013,0.06823 0.07671,0.11086 0.18447,0.02544c0.00186,-0.12227 0.00125,-0.26165 -0.08307,-0.42365zM273.35154,192.45856c-0.01392,0.17633 0.05768,0.25307 0.21998,0.26429c0,0 0.03677,-0.02279 0.0342,-0.03985c0.00441,-0.10522 -0.12357,-0.1563 -0.25419,-0.22447zM268.7616,198.44342c0.11278,-0.0513 0.14197,-0.12527 0.11216,-0.19063c-0.00507,-0.03411 -0.04945,-0.06251 -0.09126,-0.07386c-0.04185,-0.01132 -0.09568,0.03135 -0.0906,0.06548c-0.01204,0.05405 -0.00189,0.12227 0.06972,0.199zM270.88917,191.42287c0.09635,0.108 0.18255,0.14773 0.32958,0.05655c-0.11855,-0.12216 -0.2022,-0.14486 -0.32958,-0.05655z" fill="url(#color-11)"/><path d="M269.41902,204.48302c0.63125,-0.07451 1.26256,-0.14903 1.89129,-0.24064c0.70734,-0.10304 1.40448,-0.27431 2.06932,-0.52803c0.2085,-0.08267 0.37263,-0.19369 0.59825,-0.29629c0.04061,0.273 0.09579,0.50893 0.11165,0.75064c0.13454,1.44454 0.36983,2.89181 0.54622,4.34768c0.15352,1.30233 0.32421,2.58473 0.4974,3.88421c0.11231,0.89002 0.22203,1.76297 0.33431,2.65297c0.10468,0.83884 0.24612,1.65485 0.35084,2.49369c0.01014,0.06825 0.02029,0.1365 0.0108,0.2076c-0.24713,0.22775 -0.52921,0.35596 -0.85303,0.47287c-0.51529,0.17964 -1.05526,0.32802 -1.60791,0.3911c-0.17684,0.02579 -0.35112,0.06859 -0.52097,0.00615c0.17177,-0.05989 0.37582,-0.03734 0.57928,-0.1541c-0.17808,-0.25293 -0.16232,-0.55154 -0.22256,-0.82167c-0.00252,-0.01707 -0.00506,-0.0341 -0.0247,-0.03127c-0.22567,-0.43774 -0.29924,-0.93251 -0.46854,-1.3959c-0.06465,-0.16487 -0.18829,-0.32118 -0.17438,-0.49748c-0.01142,-0.34694 -0.23651,-0.64533 -0.24795,-0.9923c-0.00252,-0.01707 -0.02727,-0.04831 -0.03232,-0.08245c-0.10715,-0.31553 -0.23138,-0.6112 -0.29925,-0.93248c-0.05582,-0.37532 -0.26376,-0.69368 -0.28029,-1.07471c-0.15087,-0.20461 -0.14453,-0.43213 -0.1997,-0.6681c-0.00507,-0.03411 -0.00763,-0.0512 -0.01267,-0.0853c-0.20793,-0.31833 -0.18264,-0.68802 -0.31196,-1.01782c-0.12934,-0.32975 -0.14333,-0.69375 -0.25303,-1.02638c-0.11729,-0.38383 -0.29103,-0.74194 -0.29294,-1.16001c-0.00507,-0.03411 -0.01267,-0.08532 -0.0374,-0.11657c-0.14584,-0.17048 -0.11729,-0.38381 -0.16737,-0.58568c-0.01522,-0.10238 -0.01334,-0.22463 -0.06786,-0.32128c-0.10139,-0.1421 -0.10207,-0.28144 -0.12491,-0.435c-0.01268,-0.08531 -0.00572,-0.17349 -0.05518,-0.23597c-0.15087,-0.20461 -0.14711,-0.44918 -0.18008,-0.67095c-0.01268,-0.08531 -0.00573,-0.17345 -0.05517,-0.23599c-0.12611,-0.17335 -0.13441,-0.36388 -0.16229,-0.55157c-0.04569,-0.30712 -0.22887,-0.59414 -0.25488,-0.90408c0.01203,-0.05404 -0.05449,-0.09664 -0.08179,-0.14495z" fill="#87d7dc"/><path d="M269.41902,204.48305c0.02725,0.04831 0.09383,0.09091 0.10144,0.1421c0.02605,0.30995 0.18957,0.59987 0.2549,0.90409c0.02789,0.18767 0.03617,0.37822 0.16229,0.55156c0.04945,0.06252 0.04249,0.1507 0.05519,0.23596c0.03302,0.22178 0.04882,0.4635 0.18004,0.67099c0.04945,0.06251 0.02285,0.15357 0.05519,0.23598c0.02284,0.15353 0.04313,0.29005 0.12491,0.435c0.05451,0.09662 0.05262,0.21896 0.06785,0.32131c0.0501,0.20185 0.02162,0.41518 0.1674,0.58567c0.02471,0.03128 0.03232,0.08244 0.03742,0.11655c-0.00058,0.40099 0.17567,0.77623 0.29297,1.16001c0.11223,0.34972 0.12621,0.71367 0.25298,1.02639c0.12934,0.32973 0.10403,0.69948 0.31197,1.0178c0.02215,0.01421 0.00759,0.0512 0.01267,0.08533c0.03302,0.22178 0.04887,0.46348 0.19974,0.66812c-0.00313,0.38393 0.20483,0.70224 0.28026,1.07471c0.04819,0.32415 0.19212,0.61692 0.29924,0.9325c0.00507,0.03411 0.0273,0.04834 0.03234,0.08244c0.01142,0.34694 0.2365,0.64531 0.24795,0.99229c0.00828,0.19052 0.12933,0.32977 0.17437,0.49749c0.14963,0.46624 0.24287,0.95815 0.46853,1.39589c0.00252,0.01707 0.02475,0.03126 0.02475,0.03126c0.06027,0.27012 0.04444,0.56876 0.22257,0.82167c-0.18378,0.11392 -0.39043,0.07429 -0.57929,0.15409c-0.15715,0.02291 -0.31436,0.04576 -0.46715,-0.03658c-0.01522,-0.10238 -0.01334,-0.22463 -0.06786,-0.32125c-0.19081,-0.33822 -0.22442,-0.69939 -0.31702,-1.05196c-0.09258,-0.35252 -0.2834,-0.69077 -0.28027,-1.07468c-0.15087,-0.20461 -0.14458,-0.43213 -0.19974,-0.66811c-0.00507,-0.03411 -0.01268,-0.0853 -0.03741,-0.11656c-0.12108,-0.13925 -0.10713,-0.31554 -0.14963,-0.46627c-0.01268,-0.08531 -0.0254,-0.17061 -0.05517,-0.23598c-0.15408,-0.36103 -0.29104,-0.74194 -0.34939,-1.13436c-0.00758,-0.0512 0.00192,-0.1223 -0.04249,-0.15068c-0.12358,-0.15627 -0.12936,-0.32976 -0.15473,-0.50036c-0.00828,-0.19052 -0.1712,-0.34111 -0.18197,-0.54869c-0.02095,-0.27584 -0.15726,-0.51743 -0.23715,-0.78467c-0.09513,-0.36962 -0.26628,-0.7107 -0.32461,-1.10309c-0.01014,-0.06825 -0.00318,-0.15642 -0.05011,-0.20187c-0.09886,-0.12505 -0.10209,-0.28142 -0.14455,-0.4321c-0.02029,-0.13648 -0.06024,-0.27009 -0.11728,-0.38383c-0.11156,-0.21035 -0.18386,-0.42639 -0.21941,-0.66526c-0.07293,-0.3554 -0.26376,-0.69366 -0.26064,-1.07755c-0.00507,-0.03411 -0.0323,-0.08244 -0.0374,-0.11658c-0.11223,-0.34972 -0.24413,-0.69649 -0.317,-1.0519c-0.05582,-0.37532 -0.26883,-0.72778 -0.28534,-1.10884c-0.00758,-0.0512 -0.05453,-0.09663 -0.08179,-0.14495c-0.07229,-0.21606 -0.12745,-0.45206 -0.10149,-0.68241c0.09571,-0.03136 0.17427,-0.04285 0.25035,-0.07132c0.2827,0.01111 0.52351,0.01089 0.7815,-0.00925z" fill="#b0eef2"/><path d="M275.54484,194.78849c0.10713,0.31552 0.16484,0.56862 0.12431,0.83597c-0.1369,0.15939 -0.34537,0.24208 -0.55132,0.34177c-1.03748,0.44745 -2.07751,0.87782 -3.17715,1.17747c-0.82965,0.22542 -1.67894,0.45375 -2.54088,0.59674c-0.23576,0.03432 -0.49374,0.05451 -0.72192,0.14c-0.09571,0.03136 -0.21361,0.04853 -0.33145,0.0657c-0.48171,0.00045 -0.94817,0.10326 -1.42228,0.1549c-0.67057,0.08027 -1.3513,0.09229 -2.03707,0.07016c-0.34415,-0.01958 -0.6858,-0.02212 -1.04707,-0.02176c-0.28012,0.00592 -0.53113,-0.06207 -0.77959,-0.11303c-0.1832,-0.28707 -0.22061,-0.40361 -0.2422,-0.81879c0.43475,-0.04592 0.86261,-0.00366 1.30244,-0.01543c0.42021,-0.00892 0.86005,-0.0207 1.27776,-0.04668c0.4373,-0.02883 0.89179,-0.07761 1.32654,-0.12352c0.41765,-0.02597 0.83976,-0.15723 1.2651,-0.13202c0.41958,-0.14828 0.85942,-0.16003 1.28916,-0.24007c0.41008,-0.07716 0.83723,-0.17427 1.24478,-0.26848c0.42719,-0.09709 0.8518,-0.21124 1.29613,-0.32822c0.405,-0.11128 0.83217,-0.20837 1.23464,-0.33674c0.42209,-0.13121 0.81948,-0.29366 1.23906,-0.44194c0.43922,-0.15113 0.84166,-0.27948 1.25109,-0.496z" fill="url(#color-12)"/><path d="M268.65966,204.50653c-0.07605,0.0285 -0.15466,0.03996 -0.25033,0.07133c-0.02595,0.23039 0.00703,0.45213 0.10149,0.68242c0.02724,0.04832 0.07416,0.09378 0.08178,0.14495c0.01651,0.38105 0.2099,0.73639 0.28535,1.10884c0.05328,0.35828 0.2048,0.70223 0.31697,1.05192c0.00507,0.03411 0.03233,0.08245 0.03742,0.11655c-0.00315,0.38393 0.20477,0.70223 0.26061,1.07756c0.03302,0.22178 0.10781,0.45493 0.21941,0.66525c0.05957,0.13072 0.09955,0.26436 0.11729,0.38382c0.02284,0.15353 0.02349,0.29289 0.14457,0.43213c0.04688,0.04544 0.03993,0.13364 0.05008,0.20188c0.05582,0.37532 0.22955,0.73347 0.32464,1.10308c0.07987,0.26725 0.21622,0.50883 0.23714,0.78467c0.00828,0.19052 0.17118,0.3411 0.18197,0.54869c0.00572,0.17346 0.01399,0.36398 0.1547,0.50039c0.02724,0.04832 0.03487,0.09949 0.0425,0.15066c0.05835,0.39237 0.19272,0.75626 0.34938,1.13435c0.0323,0.08245 0.02539,0.17059 0.05515,0.23596c0.02284,0.15353 0.02861,0.327 0.14966,0.46624c0.02471,0.03128 0.03234,0.08243 0.03741,0.11654c0.03302,0.22178 0.04885,0.4635 0.19973,0.66812c-0.00313,0.38392 0.18769,0.72217 0.28028,1.07468c0.09258,0.35252 0.12875,0.73071 0.317,1.0519c0.05451,0.09663 0.0526,0.21893 0.06786,0.32129c-0.17431,0.04281 -0.30739,-0.04236 -0.44749,-0.03938c-0.20481,-0.70222 -0.42419,-1.3675 -0.6239,-2.03559c-0.22952,-0.73351 -0.43687,-1.45278 -0.64677,-2.18912c-0.20226,-0.68518 -0.4242,-1.36749 -0.6461,-2.0498c-0.26693,-0.85006 -0.55099,-1.68018 -0.81541,-2.51317c-0.19467,-0.63401 -0.38927,-1.268 -0.60362,-1.89911c-0.3069,-0.98368 -0.53773,-1.99589 -0.88392,-2.97381c-0.03995,-0.13361 -0.11919,-0.26151 -0.08308,-0.42363c0.17684,-0.02579 0.36126,-0.00033 0.54318,0.00803c0.10332,0.0198 0.27506,-0.04008 0.44495,0.02233z" fill="#87d7dc"/><path d="M273.30359,218.99428c0.40753,-0.09423 0.80557,-0.11735 1.21054,-0.22865c0.46141,-0.13693 0.92026,-0.29094 1.36389,-0.54727c0.14717,0.98951 0.2918,1.96196 0.4339,2.91735c-0.1882,0.21917 -0.4335,0.32459 -0.65658,0.44425c-0.42905,0.21938 -0.87589,0.31932 -1.34236,0.42213c-0.01967,0.00288 -0.06147,-0.00847 -0.08368,-0.02266c0.16161,-0.12811 0.08236,-0.256 0.02275,-0.38678c-0.14901,-0.32692 -0.27833,-0.65665 -0.30942,-1.00074c-0.01014,-0.06825 -0.0203,-0.13648 -0.05011,-0.20184c-0.1661,-0.30699 -0.1972,-0.65104 -0.30436,-0.96662c-0.06715,-0.18195 -0.12683,-0.31265 -0.28464,-0.42913z" fill="#61afb4"/><path d="M268.0275,202.28042c0.70289,0.00219 1.388,-0.11505 2.08329,-0.16404c0.31689,-0.02872 0.62619,-0.10866 0.93551,-0.18857c0.58439,-0.11997 1.1985,-0.17458 1.77271,-0.36284c0.23071,-0.06846 0.46139,-0.13692 0.66993,-0.21957c0.13249,-0.05415 0.26742,-0.09126 0.405,-0.11129c0.02728,0.04828 0.05196,0.07958 0.05704,0.11372c0.02027,0.13648 0.04062,0.27295 0.06093,0.40944c-0.09061,0.0655 -0.16415,0.11104 -0.2573,0.15949c-0.67684,0.30776 -1.3734,0.61841 -2.13969,0.73003c-0.6655,0.1144 -1.35059,0.2316 -2.02627,0.27776c-0.5356,0.04318 -1.06861,0.10337 -1.60482,0.0072c0.09313,-0.04845 0.21866,-0.01443 0.28201,-0.12824c0.01138,-0.19339 0.03734,-0.42376 -0.23837,-0.52303z" fill="url(#color-13)"/><path d="M268.66901,203.35476c0.32895,-0.08277 0.65852,-0.02619 0.99507,-0.05779c0.70989,-0.08598 1.41974,-0.17192 2.12198,-0.30911c0.56471,-0.1171 1.09963,-0.29965 1.60983,-0.51339c0.13249,-0.05415 0.26489,-0.10831 0.39738,-0.16247c0.03553,0.23885 0.06602,0.44359 0.09896,0.66537c-0.20533,0.23907 -0.4874,0.36728 -0.79412,0.46429c-0.36315,0.12264 -0.74594,0.24809 -1.13636,0.3224c-0.874,0.19701 -1.7436,0.28883 -2.63029,0.40059c-0.15716,0.0229 -0.31438,0.0458 -0.46459,-0.01947c-0.01268,-0.08531 -0.00575,-0.17346 -0.05518,-0.23597c-0.10395,-0.15916 -0.11478,-0.36677 -0.14269,-0.55439z" fill="url(#color-14)"/><path d="M273.30358,218.99428c0.13567,0.10227 0.21487,0.23015 0.25991,0.3979c0.10714,0.31554 0.13823,0.65965 0.30435,0.9666c0.0298,0.06539 0.03997,0.13364 0.05011,0.20189c0.05331,0.35828 0.18007,0.67095 0.30941,1.00072c0.05705,0.11371 0.13886,0.25866 -0.02276,0.38679c-0.29219,0.05999 -0.57231,0.06595 -0.84043,0.01786c-0.09449,-0.23028 -0.20857,-0.45768 -0.20482,-0.70224c-0.00507,-0.03411 -0.03231,-0.08244 -0.03741,-0.11656c-0.10969,-0.3326 -0.22193,-0.68231 -0.31196,-1.01781c-0.04249,-0.15068 -0.06275,-0.28718 -0.1249,-0.43501c-0.08682,-0.17907 -0.13695,-0.38096 -0.06662,-0.58294c0.0957,-0.03136 0.17429,-0.04283 0.25034,-0.0713c0.13752,-0.02002 0.29727,-0.02588 0.43477,-0.04592z" fill="#87d7dc"/><path d="M267.30524,193.91457c0.27132,0.20449 0.41014,0.46311 0.52933,0.72469c0.0298,0.06538 0.04501,0.16776 0.03553,0.23885c-0.08359,0.51765 -0.08863,1.02387 -0.07398,1.52719c0.00252,0.01707 -0.01203,0.05403 -0.02913,0.07398c-0.07099,0.06263 -0.16922,0.07697 -0.27507,0.04009c-0.00507,-0.03411 -0.02984,-0.06539 -0.03489,-0.09952c-0.0412,-0.4123 -0.14142,-0.81605 -0.3373,-1.18841c-0.08938,-0.19614 -0.1173,-0.38384 -0.04951,-0.60287c0.08492,-0.23895 0.11084,-0.46932 0.23505,-0.71404z" fill="#cce5e6"/><path d="M266.50948,196.66241c-0.11026,0.06836 -0.19138,0.06275 -0.25795,0.02015c-0.16107,-0.81319 -0.16109,-0.81318 -0.58202,-1.48392c-0.00384,-0.29577 0.09055,-0.60581 0.14823,-0.89308c0.13249,-0.05415 0.1673,0.04534 0.21422,0.09081c0.16545,0.16762 0.32836,0.31822 0.45704,0.50864c0.07926,0.12793 0.11661,0.24449 0.09765,0.38664c-0.05446,0.44372 -0.08671,0.90157 -0.07717,1.37078z" fill="#cce5e6"/><path d="M272.84916,219.04304c-0.07606,0.0285 -0.15468,0.03995 -0.25034,0.07131c-0.07035,0.20197 -0.02024,0.40383 0.06663,0.58294c0.06215,0.14784 0.08245,0.28429 0.1249,0.43502c0.09006,0.33549 0.20227,0.68516 0.31196,1.0178c0.00507,0.03411 0.03234,0.08245 0.0374,0.11657c0.01842,0.25876 0.12996,0.4691 0.20477,0.70222c-0.16224,-0.0112 -0.30488,-0.02532 -0.47729,-0.1048c-0.12998,-0.46911 -0.30182,-0.94959 -0.41472,-1.43861c-0.12998,-0.46911 -0.33855,-0.92676 -0.4147,-1.43858c0.31688,-0.02872 0.56281,0.00516 0.81127,0.05608z" fill="#60adb2"/><path d="M271.59397,197.64733c0.07605,-0.0285 0.1325,-0.05415 0.20852,-0.08266c0.04439,0.02839 0.06653,0.0426 0.08871,0.05678c0.12174,0.27857 0.29988,0.53152 0.49761,0.78157c0.07671,0.11084 0.11159,0.21036 0.0704,0.33835c-0.06272,0.25316 -0.08358,0.51764 -0.30857,0.75959c-0.26874,-0.18745 -0.4469,-0.44037 -0.60535,-0.69619c-0.02728,-0.04828 -0.02026,-0.13649 -0.0108,-0.20758c0.01324,-0.31564 0.02654,-0.6314 0.05947,-0.94992z" fill="#cce5e6"/><path d="M271.22713,193.29093c0.10397,0.15913 0.17812,0.25295 0.25482,0.36381c0.13122,0.20749 0.18132,0.40933 0.09896,0.66537c-0.11595,0.43519 -0.17035,0.87893 -0.10694,1.30541c0.02028,0.13648 0.00318,0.15638 -0.23513,0.17372c-0.0076,-0.05119 -0.03489,-0.0995 -0.04248,-0.15071c-0.04379,-0.42938 -0.16362,-0.83023 -0.34241,-1.22252c-0.03484,-0.09951 -0.06719,-0.18195 -0.04064,-0.27299c0.11911,-0.27882 0.19896,-0.55188 0.41382,-0.86204z" fill="#cae2e3"/><path d="M268.83043,196.34177c-0.02215,-0.0142 -0.04694,-0.04549 -0.04945,-0.06252c-0.01907,-0.39809 -0.15348,-0.76198 -0.30499,-1.10598c-0.12934,-0.32973 -0.17756,-0.65393 -0.02926,-1.00666c0.07542,-0.16785 0.06711,-0.35837 0.18439,-0.51489c0.36766,0.31246 0.50712,0.71048 0.42541,1.10585c-0.08868,0.48354 -0.19953,0.95285 -0.1063,1.44478c-0.01203,0.05404 -0.00191,0.12228 -0.11977,0.13947z" fill="#c9e1e2"/><path d="M269.85438,193.50835c0.23707,0.24434 0.35119,0.47172 0.46782,0.71619c0.0323,0.08245 0.045,0.16774 0.01587,0.24172c-0.10579,0.50347 -0.16974,1.01823 -0.19442,1.52729c0.00507,0.03411 -0.00694,0.08815 -0.10774,0.0854c-0.01776,-0.11941 -0.03805,-0.25589 -0.07545,-0.37246c-0.07038,-0.33834 -0.16044,-0.67382 -0.32656,-0.9808c-0.11414,-0.22739 -0.12745,-0.45205 -0.02035,-0.6768c0.07542,-0.16785 0.15331,-0.31866 0.24077,-0.54057z" fill="#c9e1e2"/><path d="M272.8064,197.29643c0.10524,-0.10247 0.20347,-0.11678 0.30169,-0.13109c0.02217,0.01418 0.04693,0.04547 0.06907,0.05966c0.07989,0.26725 0.23585,0.50598 0.44568,0.70199c0.11853,0.12218 0.15847,0.2558 0.12236,0.41793c-0.05066,0.19911 -0.07915,0.41242 -0.17166,0.60022c-0.23894,-0.12206 -0.53502,-0.35783 -0.59459,-0.48859c-0.05199,-0.07955 -0.02286,-0.15354 -0.01586,-0.24171c-0.06277,-0.28716 -0.02988,-0.60573 -0.15664,-0.91839z" fill="#cae3e4"/><path d="M266.25445,199.40125c0.15586,-0.30157 0.25284,-0.59457 0.32759,-0.9018c0.11277,-0.05128 0.19143,-0.06276 0.29726,-0.02589c0.1439,0.29274 0.15787,0.65677 0.32144,0.94669c-0.07035,0.20196 -0.21228,0.32724 -0.32949,0.48377c-0.06841,0.07967 -0.11466,0.17354 -0.24968,0.21067c-0.19017,-0.1989 -0.21111,-0.47472 -0.36705,-0.71346z" fill="#c8e0e1"/><path d="M269.27879,198.14149c0.17935,-0.00871 0.20916,0.05669 0.23895,0.12205c0.11667,0.24447 0.23076,0.47185 0.32777,0.71916c0.02981,0.06539 0.03996,0.13363 0.01083,0.2076c-0.10963,0.20767 -0.2389,0.41824 -0.39034,0.61463c-0.11343,-0.08806 -0.14834,-0.18757 -0.2225,-0.28135c-0.22247,-0.28133 -0.28528,-0.56848 -0.07048,-0.87868c0.0976,-0.15367 0.11152,-0.32999 0.10577,-0.50346z" fill="#cbe4e5"/><path d="M268.04101,198.32181c0.09822,-0.01434 0.15716,-0.02292 0.21612,-0.03151c0.02471,0.03128 0.06654,0.04262 0.06908,0.05965c0.06715,0.18195 0.11478,0.36676 0.18199,0.54869c0.03485,0.09953 0.02789,0.18768 -0.01836,0.28156c-0.13876,0.28166 -0.29975,0.54914 -0.51963,0.82521c-0.16039,-0.1335 -0.20284,-0.28417 -0.24533,-0.43485c-0.01012,-0.06822 -0.02027,-0.1365 0.01135,-0.19337c0.21482,-0.31018 0.28198,-0.66858 0.30476,-1.05536z" fill="#c8e0e1"/><path d="M268.66902,203.35475c0.02789,0.18767 0.0387,0.39528 0.16488,0.56863c0.04945,0.06251 0.04245,0.15066 0.05516,0.23597c-0.33146,0.0657 -0.65345,0.06033 -0.96593,-0.01618c0.00378,-0.24458 -0.11032,-0.47195 -0.18007,-0.67094c0.12484,-0.10534 0.27,-0.07418 0.38278,-0.12548c0.17431,-0.04281 0.37332,-0.05437 0.54318,0.00802z" fill="#85d5d9"/><path d="M272.84465,193.90943c-0.06019,0.27022 -0.12032,0.54043 -0.15835,0.82485c-0.02342,0.24744 0.17436,0.4975 -0.08233,0.79633c-0.08628,-0.58003 -0.29993,-1.07185 -0.51357,-1.56363c0.07035,-0.20196 0.15776,-0.42389 0.33144,-0.60603c0.04439,0.02839 0.06655,0.0426 0.08872,0.05677c0.1236,0.15628 0.2276,0.31546 0.33407,0.49163z" fill="#c6dede"/><path d="M266.9692,193.54519c-0.09441,0.31009 -0.17421,0.58311 -0.26861,0.89321c-0.17238,-0.07947 -0.25165,-0.20737 -0.3651,-0.29541c-0.11602,-0.10508 -0.26877,-0.18746 -0.35052,-0.3324c-0.01776,-0.11941 0.0456,-0.23324 0.0893,-0.34417c0.04371,-0.11094 0.10711,-0.22475 0.19011,-0.34145c0.29028,0.06229 0.4779,0.24414 0.70485,0.42026z" fill="#cae3e3"/><path d="M265.25713,196.8797c-0.21367,-0.49178 -0.41465,-0.89826 -0.73095,-1.27048c0.04563,-0.23326 0.07157,-0.4636 0.11465,-0.7139c0.27573,0.09927 0.40442,0.28969 0.56982,0.4573c0.02471,0.03128 0.03232,0.08246 0.03738,0.11656c0.00449,0.43508 0.00901,0.87021 0.00907,1.4105z" fill="#cae3e4"/><path d="M270.7627,199.61604c-0.23707,-0.24434 -0.43233,-0.47736 -0.30623,-0.84431c0.08236,-0.25604 0.06396,-0.51482 0.04554,-0.77357c-0.01522,-0.10237 0.08045,-0.13374 0.20345,-0.11679c0.00133,0.27868 0.1376,0.52032 0.27392,0.76191c0.10651,0.17621 0.09007,0.33546 0.01465,0.50334c-0.0583,0.14792 -0.07478,0.3072 -0.23132,0.46946z" fill="#c8e0e1"/><path d="M268.02749,202.2804c0.27826,0.11634 0.24973,0.32963 0.26053,0.53724c-0.06336,0.11378 -0.1863,0.09687 -0.28199,0.12824c-0.25794,0.02015 -0.50387,-0.01377 -0.7549,-0.08179c-0.00828,-0.19052 -0.11474,-0.36674 -0.0419,-0.55166c0.09571,-0.03136 0.15467,-0.03996 0.23323,-0.0514c0.20156,0.00549 0.4031,0.01096 0.58502,0.01936z" fill="url(#color-15)"/><path d="M268.76183,199.52403c0.15595,0.23874 0.26752,0.44906 0.39877,0.65655c-0.14894,0.21342 -0.31999,0.41265 -0.51587,0.5806c-0.14263,-0.01408 -0.19712,-0.11073 -0.26621,-0.17037c-0.06909,-0.05965 -0.13817,-0.1193 -0.13628,-0.2416c0.12677,-0.22762 0.30733,-0.49793 0.51961,-0.8252z" fill="#c7dfe0"/><path d="M271.97077,199.91069c-0.11218,0.19066 -0.20469,0.37839 -0.37831,0.56059c-0.25862,-0.11918 -0.38729,-0.3096 -0.55781,-0.51136c0.10708,-0.22475 0.21415,-0.44953 0.31873,-0.69137c0.23198,0.21023 0.40253,0.41203 0.6174,0.64215z" fill="#c8e0e1"/><path d="M267.83113,192.86183c0.17749,0.11362 0.35493,0.22719 0.4811,0.40055c-0.08236,0.25604 -0.18438,0.5149 -0.28385,0.79083c-0.03927,0.00572 -0.07857,0.01144 -0.08111,-0.00563c-0.14072,-0.13639 -0.28396,-0.28979 -0.40505,-0.42902c-0.04945,-0.06252 -0.07927,-0.12792 -0.0476,-0.1848c0.08745,-0.22189 0.11594,-0.43521 0.3365,-0.57195z" fill="#c4dcdd"/><path d="M270.91596,192.95283c-0.1242,0.24468 -0.22875,0.48649 -0.35296,0.7312c-0.16477,-0.0283 -0.18506,-0.16477 -0.25925,-0.25856c-0.07415,-0.09376 -0.13125,-0.20748 -0.20794,-0.31831c0.06779,-0.21903 0.24402,-0.3841 0.37582,-0.57765c0.23385,0.08793 0.33784,0.24711 0.44431,0.42332z" fill="#c8e0e1"/><path d="M272.50811,199.74526c0.10204,-0.25887 0.18694,-0.49787 0.28642,-0.77379c0.21679,0.10783 0.34292,0.28124 0.54007,0.39196c-0.0431,0.25029 -0.21672,0.43247 -0.34347,0.66007c-0.21169,-0.07374 -0.38157,-0.13615 -0.48297,-0.27825z" fill="#c6ddde"/><path d="M273.98395,196.84603c0.23963,0.26142 0.38609,0.57123 0.67955,0.78994c-0.02847,0.21332 -0.03989,0.40673 -0.14951,0.61442c-0.25353,-0.08509 -0.41393,-0.21859 -0.41267,-0.48021c0.01327,-0.31565 -0.0717,-0.61704 -0.11738,-0.92414z" fill="#b9cfd0"/><path d="M264.12137,196.80112c-0.1255,-0.03401 -0.07929,-0.12791 -0.10904,-0.19327c-0.06212,-0.14784 -0.10462,-0.29847 -0.23776,-0.3837c-0.1851,-0.16477 -0.19338,-0.35528 -0.18451,-0.56575c0.00699,-0.08818 0.03356,-0.1792 0.0551,-0.30435c0.28336,0.15045 0.50519,0.29247 0.47481,0.62803c-0.02594,0.23038 0.0292,0.46638 0.04255,0.69101c0.00758,0.05119 0.01523,0.10236 -0.04118,0.12801z" fill="#c0d8d8"/><path d="M265.41162,199.94233c-0.12108,-0.13925 -0.18066,-0.26999 -0.20098,-0.40647c-0.01012,-0.06822 -0.02287,-0.15356 0.00882,-0.21045c0.14386,-0.24755 0.2262,-0.50357 0.30858,-0.7596c0.13753,-0.02001 0.12802,0.05106 0.13566,0.10227c0.02537,0.1706 0.05331,0.35828 0.11796,0.52316c0.07228,0.21606 0.03617,0.37819 -0.14254,0.52626c-0.09062,0.0655 -0.14196,0.12526 -0.22748,0.22484z" fill="#c1d9d9"/><path d="M270.52122,200.01726c-0.08995,0.2048 -0.2269,0.36422 -0.35868,0.55771c-0.23133,-0.07087 -0.31816,-0.24995 -0.45892,-0.38634c0.10455,-0.24183 0.29782,-0.42685 0.4664,-0.64314c0.16291,0.15058 0.24724,0.31261 0.35121,0.47176z" fill="#c3dbdc"/><path d="M269.256,193.80471c-0.15344,-0.22167 -0.28464,-0.42919 -0.43551,-0.63379c0.05573,-0.16502 0.11406,-0.31292 0.27564,-0.44106c0.19714,0.11074 0.32072,0.26703 0.46404,0.42045c-0.04564,0.23325 -0.13555,0.43805 -0.30413,0.65434z" fill="#c3dadb"/><path d="M268.88931,201.05676c0.17366,-0.18218 0.33018,-0.3444 0.48669,-0.50664c0.21424,0.0908 0.33785,0.2471 0.46145,0.40337c-0.11469,0.17358 -0.25408,0.3159 -0.43535,0.44684c-0.06401,-0.02554 -0.15021,-0.0653 -0.19458,-0.09365c-0.11345,-0.08805 -0.18509,-0.16476 -0.31821,-0.24998z" fill="#c4dbdc"/><path d="M264.58431,198.56386c0.0482,0.32418 0.08625,0.58011 0.12691,0.85304c-0.08047,0.13375 -0.1857,0.23621 -0.3549,0.31311c-0.13053,-0.06814 -0.10903,-0.19328 -0.16354,-0.28993c-0.05451,-0.09662 -0.08938,-0.19614 -0.10211,-0.28144c0.17112,-0.19928 0.308,-0.35865 0.49367,-0.59483z" fill="#c2d9da"/><path d="M266.47165,192.76356c0.0583,-0.14792 0.14127,-0.26462 0.24903,-0.35001c0.15465,-0.03995 0.24847,0.05101 0.3543,0.08783c0.10583,0.03683 0.22625,0.03675 0.30295,0.14759c-0.01392,0.17633 -0.12863,0.3499 -0.23822,0.55765c-0.11096,-0.071 -0.22189,-0.142 -0.33025,-0.19594c-0.11343,-0.08806 -0.22693,-0.17608 -0.33787,-0.2471z" fill="#c5ddde"/><path d="M271.32123,200.8071c-0.07287,0.18494 -0.22244,0.25902 -0.32509,0.37855c-0.22881,-0.05384 -0.38919,-0.18735 -0.57178,-0.33503c0.11721,-0.15652 0.2345,-0.31305 0.3321,-0.46673c0.25351,0.0851 0.38225,0.27552 0.56477,0.4232z" fill="#c3dbdc"/><path d="M265.27207,194.82081c-0.08625,-0.03973 -0.13058,-0.0681 -0.17495,-0.09647c-0.09126,-0.07384 -0.18511,-0.16477 -0.29856,-0.25284c0.10204,-0.25887 0.14508,-0.50918 0.3333,-0.72835c0.14263,0.01408 0.21427,0.09079 0.3106,0.19878c-0.04054,0.26735 -0.09566,0.57168 -0.17036,0.87891z" fill="#c7dfe0"/><path d="M267.69201,200.42939c-0.17617,0.1651 -0.26869,0.35285 -0.47213,0.46964c-0.19205,-0.07664 -0.23962,-0.26139 -0.39237,-0.34373c0.14387,-0.24755 0.32,-0.41266 0.49112,-0.61189c0.21934,0.12494 0.24722,0.31258 0.37341,0.48594z" fill="#c7dee0"/><path d="M268.12339,203.32964c-0.11278,0.0513 -0.25795,0.02012 -0.38278,0.12549c0.07228,0.21606 0.16673,0.44631 0.18007,0.67095c-0.08115,-0.0056 -0.18191,-0.00838 -0.26556,-0.03101c-0.1255,-0.03401 -0.21675,-0.10787 -0.23455,-0.22732c-0.0501,-0.20184 -0.09767,-0.38663 -0.14774,-0.58855c0.25543,-0.03722 0.37585,-0.03733 0.85059,0.0504z" fill="#61acb1"/><path d="M272.2209,192.95445c-0.11218,0.19066 -0.20974,0.34426 -0.34157,0.53779c-0.15088,-0.20461 -0.29919,-0.39214 -0.43044,-0.59963c0.0779,-0.15079 0.15844,-0.28453 0.28072,-0.40693c0.21932,0.12493 0.34291,0.28121 0.49125,0.46876z" fill="#c2dada"/><path d="M265.56565,200.30336c0.11218,-0.19066 0.25412,-0.3159 0.4107,-0.47814c0.11414,0.22739 0.22316,0.42069 0.33221,0.61399c-0.05573,0.16501 -0.18568,0.23621 -0.33018,0.3444c-0.19459,-0.09365 -0.28147,-0.27277 -0.41267,-0.48021z" fill="#c1d9d9"/><path d="M269.82631,192.78037c-0.2022,-0.14487 -0.34037,-0.26416 -0.49821,-0.38063c0.03357,-0.1792 0.17299,-0.32151 0.31244,-0.46384c0.1895,0.05956 0.36189,0.13901 0.50518,0.29246c-0.02849,0.21331 -0.21232,0.32726 -0.31936,0.55202z" fill="#c6dedf"/><path d="M272.74214,200.37351c-0.11468,0.17357 -0.2516,0.33297 -0.36881,0.48949c-0.17935,0.00871 -0.30739,-0.04236 -0.44307,-0.14463c0.04564,-0.23325 0.24401,-0.38411 0.35361,-0.59185c0.18699,0.04246 0.30295,0.14759 0.45828,0.24697z" fill="#c0d7d7"/><path d="M264.32272,194.6453c-0.05067,0.1991 -0.03991,0.4067 -0.19131,0.60309c-0.13567,-0.10227 -0.26877,-0.18749 -0.40187,-0.27265c-0.03042,-0.20471 0.04243,-0.38963 0.17931,-0.549c0.16479,0.0283 0.27569,0.09928 0.4139,0.21856z" fill="#c3dadb"/><path d="M267.4621,202.25818c-0.0786,0.01144 -0.15466,0.03997 -0.23326,0.05144c-0.07288,0.18495 0.03361,0.36112 0.0419,0.55166c-0.135,0.0371 -0.22883,-0.05383 -0.36886,-0.05085c-0.11158,-0.21034 -0.08311,-0.42366 -0.25361,-0.62541c0.19393,-0.04565 0.31941,-0.01168 0.4646,0.01947c0.10332,0.01979 0.2358,-0.03432 0.34921,0.05372z" fill="url(#color-16)"/><path d="M275.4027,198.01629c-0.05067,0.1991 -0.0399,0.40674 -0.17423,0.58316c-0.14263,-0.01408 -0.23138,-0.0709 -0.36449,-0.15605c0.01139,-0.1934 0.06206,-0.39252 0.1571,-0.56324c0.14263,0.01409 0.22883,0.05383 0.38157,0.13616z" fill="#bdd3d4"/><path d="M269.8059,201.55069c0.12233,-0.12241 0.22499,-0.24193 0.32762,-0.36145c0.18951,0.05956 0.32518,0.1618 0.46336,0.28109c-0.03866,0.14505 -0.17112,0.19928 -0.30864,0.21928c-0.17683,0.0258 -0.35363,0.05154 -0.48235,-0.13889z" fill="#bdd4d5"/><path d="M273.77067,193.79194c-0.0678,0.21902 -0.13813,0.42103 -0.2059,0.64003c-0.24977,-0.32962 -0.39618,-0.63949 -0.04637,-0.98675c0.13053,0.06814 0.1705,0.20177 0.25227,0.3467z" fill="#bbd2d3"/><path d="M267.9203,201.42452c-0.16731,-0.04536 -0.26115,-0.13627 -0.35494,-0.22722c-0.01776,-0.11941 0.07543,-0.16787 0.14388,-0.24754c0.05133,-0.05976 0.1001,-0.13657 0.21548,-0.17081c0.16731,0.04536 0.1927,0.21592 0.36257,0.27833c-0.09504,0.17074 -0.21987,0.27606 -0.36689,0.36722z" fill="#c3dadb"/><path d="M269.27215,196.2077c-0.00633,-0.31282 -0.01275,-0.62562 0.05948,-0.94989c0.1204,-0.0001 0.1528,0.08234 0.16543,0.16763c0.05262,0.21893 0.08562,0.44066 0.11607,0.64541c0.02284,0.15353 -0.08999,0.20486 -0.34097,0.13682z" fill="#b1c6c7"/><path d="M273.86712,200.24449c0.01897,-0.14219 0.12926,-0.21057 0.19516,-0.3073c0.11217,-0.19066 0.28646,-0.23347 0.53496,-0.18249c-0.08237,0.25603 -0.29533,0.44391 -0.47147,0.60901c-0.14008,0.00297 -0.20412,-0.02256 -0.25862,-0.11918z" fill="#bbd2d3"/><path d="M271.87956,195.65355c-0.1268,-0.31271 -0.0324,-0.62275 0.0398,-0.94703c0.15343,0.22167 0.19146,0.47759 0.24665,0.71357c0.04248,0.15069 -0.01137,0.19343 -0.28645,0.23346z" fill="#bad1d2"/><path d="M275.06345,196.95023c0.15783,0.11647 0.31059,0.1988 0.4684,0.31521c-0.00697,0.08818 -0.04814,0.21618 -0.06968,0.34133c-0.36635,-0.03378 -0.36887,-0.05084 -0.38225,-0.27552c-0.01773,-0.11942 -0.01586,-0.24172 -0.01651,-0.38106z" fill="#b5cbcc"/><path d="M268.74691,191.59549c0.20409,0.02258 0.33469,0.09068 0.46523,0.15881c-0.0361,0.16214 -0.18316,0.25326 -0.30545,0.37568c-0.15024,-0.06524 -0.28075,-0.13341 -0.43098,-0.19867c-0.00319,-0.1564 0.16853,-0.21629 0.27124,-0.33584z" fill="#c0d7d8"/><path d="M274.06528,198.47264c0.12294,0.01697 0.21426,0.09078 0.30808,0.1817c-0.02598,0.23037 -0.13555,0.43809 -0.28959,0.61737c-0.135,0.0371 -0.18189,-0.00837 -0.23385,-0.08793c0.06522,-0.23609 0.13049,-0.4722 0.2154,-0.71116z" fill="#bdd4d4"/><path d="M272.41354,192.6301c-0.14072,-0.13639 -0.26433,-0.29265 -0.40505,-0.42903c0.06592,-0.09675 0.15908,-0.1452 0.27694,-0.16239c0.12293,0.01696 0.17494,0.0965 0.24657,0.17321c0.04945,0.06252 0.09889,0.12504 0.14834,0.18756c-0.04372,0.11097 -0.11216,0.19066 -0.26683,0.23061z" fill="#b6cccc"/><path d="M268.49221,192.85271c-0.15782,-0.11647 -0.29347,-0.2187 -0.47098,-0.3323c0.00441,-0.10521 0.04812,-0.2162 0.21736,-0.29314c0.15025,0.06523 0.30297,0.14758 0.47536,0.22704c-0.0583,0.14792 -0.09947,0.27595 -0.22179,0.39835z" fill="#c1d9d9"/><path d="M273.278,193.0445c-0.0583,0.14792 -0.12165,0.26176 -0.24651,0.36708c-0.15783,-0.11647 -0.22249,-0.28136 -0.30173,-0.40924c0.01897,-0.14219 0.1318,-0.19348 0.22242,-0.25899c0.06147,0.00848 0.10078,0.00274 0.10332,0.01979c0.07413,0.09378 0.14831,0.18755 0.22249,0.28136z" fill="#b7cdce"/><path d="M274.53772,194.35999c-0.18509,-0.16479 -0.20794,-0.31832 -0.27008,-0.46613c-0.08432,-0.16202 0.02342,-0.24744 0.14825,-0.35278c0.15783,0.11647 0.21996,0.26427 0.31885,0.38932c-0.01393,0.17632 -0.20279,0.25614 -0.19706,0.4296z" fill="#b6cccc"/><path d="M275.10225,198.96647c-0.07792,0.15079 -0.14128,0.26459 -0.20212,0.39548c-0.17431,0.04281 -0.29219,0.05999 -0.4424,-0.00527c0.09506,-0.17073 0.17045,-0.33858 0.24837,-0.48937c0.16919,-0.07696 0.26301,0.014 0.38344,0.01385c0.00507,0.03411 0.02982,0.0654 0.01271,0.08532z" fill="#c2dada"/><path d="M267.77088,192.05139c-0.0412,0.12799 -0.0925,0.18778 -0.18567,0.23624c-0.11538,0.03423 -0.20408,-0.02258 -0.30993,-0.05942c-0.08624,-0.03973 -0.22627,-0.03676 -0.26369,-0.15332c0.08303,-0.11666 0.1882,-0.21914 0.35998,-0.27903c0.15276,0.08232 0.26623,0.17039 0.39934,0.25558z" fill="#bbd2d3"/><path d="M266.20587,201.09904c0.12484,-0.10533 0.21294,-0.1879 0.32066,-0.27332c0.15532,0.09938 0.25417,0.22444 0.37274,0.34661c-0.06336,0.11379 -0.15145,0.19639 -0.28899,0.21637c-0.04185,-0.01132 -0.08365,-0.02268 -0.10841,-0.05394c-0.08872,-0.05677 -0.18002,-0.13068 -0.29602,-0.23578z" fill="#bbd2d3"/><path d="M275.59129,196.85589c-0.2637,-0.15332 -0.26371,-0.15333 -0.40503,-0.42903c0.07794,-0.1508 0.2326,-0.19075 0.4018,-0.26766c0.09448,0.23028 0.02922,0.46635 0.00326,0.69673z" fill="#adc2c3"/><path d="M268.28986,201.61472c0.06336,-0.11379 0.17114,-0.19925 0.30611,-0.2363c0.15532,0.09938 0.28841,0.18451 0.42401,0.28681c-0.30864,0.21927 -0.32827,0.22216 -0.73016,-0.05047z" fill="#b5cbcc"/><path d="M271.42602,192.19877c-0.08046,0.13376 -0.1464,0.23049 -0.27126,0.33582c-0.16983,-0.06239 -0.25163,-0.20738 -0.38983,-0.32669c0.0317,-0.05691 0.0659,-0.09672 0.1001,-0.13659c0.03422,-0.03986 0.09061,-0.0655 0.1445,-0.10822c0.18445,0.02543 0.29788,0.11347 0.41646,0.23565z" fill="#bbd1d2"/><path d="M264.90776,200.46892c-0.21424,-0.09081 -0.26434,-0.29266 -0.38288,-0.41481c0.06084,-0.13086 0.19584,-0.16799 0.30361,-0.2534c0.16546,0.1676 0.23011,0.33252 0.19906,0.52877c0.00759,0.05119 -0.0659,0.09675 -0.11975,0.13945z" fill="#b6cccd"/><path d="M264.77942,193.53298c-0.10455,0.24183 -0.2313,0.46944 -0.33838,0.69418c-0.14009,0.00296 -0.22626,-0.03674 -0.32263,-0.14471c0.16853,-0.21629 0.33713,-0.43257 0.57223,-0.60628c0.0444,0.02842 0.06655,0.0426 0.08873,0.05677z" fill="#acc1c2"/><path d="M270.65812,195.13431c0.09193,0.21321 0.16421,0.42928 0.15789,0.65676c-0.00699,0.08818 -0.05575,0.16499 -0.15397,0.17931c-0.03926,0.00571 -0.12294,-0.01696 -0.12549,-0.03402c-0.0577,-0.25304 0.04175,-0.52898 0.12158,-0.80206z" fill="#a7bbbb"/><path d="M270.68882,191.69607c-0.02408,0.1081 -0.11469,0.17358 -0.22496,0.24193c-0.15276,-0.08232 -0.30552,-0.16467 -0.45828,-0.24698c0.0583,-0.14792 0.17365,-0.18215 0.31116,-0.20219c0.1255,0.03401 0.25862,0.11917 0.37208,0.20728z" fill="#b7cdcd"/><path d="M271.31691,201.45261c0.07288,-0.18495 0.19774,-0.29024 0.34222,-0.39847c0.16479,0.0283 0.29284,0.07935 0.39425,0.22145c-0.22055,0.1367 -0.45887,0.15398 -0.73645,0.17702z" fill="#b7cece"/><path d="M263.57915,199.09374c-0.16798,-0.18469 -0.12238,-0.41791 -0.24601,-0.57419c0.06336,-0.11378 0.1445,-0.10819 0.19143,-0.06273c0.11855,0.12217 0.21999,0.26429 0.24532,0.43487c-0.01203,0.05405 -0.00951,0.07111 -0.19076,0.20211z" fill="#b4cacb"/><path d="M265.58305,193.53795c-0.12549,-0.034 -0.19204,-0.07661 -0.24405,-0.15615c0.11217,-0.19066 0.2218,-0.39834 0.47656,-0.57491c0.06277,0.28716 -0.0887,0.48352 -0.23251,0.73107z" fill="#b2c8c9"/><path d="M267.18065,201.44511c0.15024,0.06524 0.25861,0.11919 0.31312,0.21584c-0.00949,0.07111 -0.0659,0.09678 -0.12232,0.12242c-0.2256,0.10258 -0.34163,-0.00255 -0.46522,-0.15882c0.09313,-0.04845 0.1838,-0.11395 0.27441,-0.17943z" fill="#b5cbcb"/><path d="M273.17063,195.29121c-0.05264,-0.21892 -0.08055,-0.40656 -0.05204,-0.61987c0.0957,-0.03135 0.1426,0.01407 0.15023,0.06526c0.03741,0.11658 0.09448,0.2303 0.13187,0.34683c0.02028,0.13648 -0.05323,0.18202 -0.23005,0.20777z" fill="#91a3a3"/><path d="M265.65375,196.03761c0.16798,0.18469 0.18133,0.40934 0.21175,0.61406c0.00507,0.03411 -0.02914,0.07398 -0.06591,0.09674c-0.03927,0.00572 -0.10332,-0.01979 -0.10588,-0.03687c-0.09448,-0.23028 -0.08816,-0.45776 -0.04001,-0.67395z" fill="#99abac"/><path d="M264.79703,196.75502c-0.12738,0.08829 -0.22562,0.10257 -0.27761,0.02299c-0.05705,-0.11371 -0.04311,-0.29003 0.00246,-0.52325c0.16295,0.15057 0.19082,0.33822 0.27513,0.50023z" fill="#93a5a6"/><path d="M273.19223,200.97027c0.1293,-0.21056 0.23635,-0.43533 0.61033,-0.35038c-0.12678,0.22761 -0.38216,0.26482 -0.61033,0.35038z" fill="#9aadad"/><path d="M272.4553,197.90533c-0.07925,-0.12791 -0.16103,-0.27284 -0.23772,-0.38372c0.04627,-0.09388 0.10266,-0.11955 0.2231,-0.11963c0.1211,0.13926 0.06789,0.32131 0.11038,0.47198c-0.03927,0.00572 -0.05895,0.00857 -0.09573,0.03137z" fill="#c5dddd"/><path d="M268.15917,195.74232c0.20981,0.19602 0.24278,0.41785 0.1972,0.65105c0.00252,0.01707 -0.03422,0.03987 -0.07352,0.04559c-0.05641,0.02564 -0.10332,-0.01979 -0.10838,-0.05392c-0.0476,-0.18479 -0.01906,-0.39814 -0.0153,-0.64271z" fill="#aec2c3"/><path d="M265.2722,200.62499c0.15783,0.11647 0.24214,0.27845 0.32392,0.42345c-0.04625,0.09388 -0.12741,0.08828 -0.17685,0.02578c-0.09636,-0.108 -0.19015,-0.19891 -0.26938,-0.3268c-0.0444,-0.02842 0.00695,-0.08815 0.12231,-0.12239z" fill="#9caeaf"/><path d="M269.59425,191.48949c-0.18447,-0.02544 -0.31246,-0.07648 -0.46523,-0.15883c0.24526,-0.10545 0.469,-0.08576 0.70476,-0.12009c-0.01204,0.05406 -0.00699,0.08818 -0.02409,0.10807c-0.07099,0.06263 -0.14448,0.10819 -0.21543,0.17083z" fill="#a9bebf"/><path d="M267.33362,198.42481c0.13249,-0.05415 0.21356,-0.04855 0.29982,-0.00879c0.04499,0.16774 0.00888,0.32987 -0.16221,0.52912c-0.06975,-0.19902 -0.09256,-0.35255 -0.13761,-0.5203z" fill="#b9cfd0"/><path d="M273.43949,197.09961c0.04626,-0.09387 0.12234,-0.12238 0.19837,-0.15091c0.10332,0.01981 0.11601,0.10509 0.11794,0.52316c-0.25099,-0.06801 -0.21999,-0.26428 -0.31632,-0.37227z" fill="#869797"/><path d="M266.98537,195.94819c-0.01834,0.28157 0.19401,0.49466 -0.05061,0.73944c-0.11669,-0.24446 -0.12748,-0.45203 0.05061,-0.73944z" fill="#93a4a5"/><path d="M274.06798,194.30637c0.03805,0.25589 0.06342,0.42652 0.0888,0.59712c0.00507,0.03411 -0.02914,0.07398 -0.08808,0.08253c-0.01967,0.00288 -0.06148,-0.00848 -0.08368,-0.02267c-0.06977,-0.19898 -0.09768,-0.38672 0.08293,-0.65699z" fill="#94a5a6"/><path d="M274.34463,196.70633c0.10775,-0.08539 0.16412,-0.11107 0.27252,-0.05714c0.03995,0.13361 0.08243,0.28431 0.04885,0.46351c-0.21423,-0.09084 -0.23959,-0.26139 -0.32139,-0.40633z" fill="#abbfc0"/><path d="M274.19844,193.29385c-0.09314,0.04844 -0.12992,0.07122 -0.16925,0.07694c-0.25165,-0.20736 -0.25162,-0.20735 -0.22819,-0.45477c0.21169,0.07374 0.23709,0.24431 0.39741,0.37784z" fill="#acc0c1"/><path d="M273.3259,200.11412c0.0976,-0.15367 0.17298,-0.32151 0.29022,-0.47803c0.05133,-0.05976 0.12993,-0.07119 0.20408,0.02258c-0.11218,0.19066 -0.22687,0.36421 -0.49431,0.45545z" fill="#9fb2b2"/><path d="M271.68774,191.934c-0.10842,-0.05396 -0.17493,-0.09655 -0.22692,-0.17609c0.02914,-0.07399 0.083,-0.11669 0.17871,-0.14806c0.12042,-0.00009 0.21168,0.07376 0.30295,0.1476c-0.02408,0.1081 -0.13941,0.14231 -0.25474,0.17652z" fill="#aec2c3"/><path d="M270.09834,198.38812c-0.16983,-0.06238 -0.18763,-0.18185 -0.22504,-0.2984c-0.00758,-0.05119 0.04625,-0.09385 0.1052,-0.10246c0.03927,-0.00572 0.10334,0.0198 0.10839,0.05393c0.07415,0.09376 0.0501,0.20189 0.01143,0.34694z" fill="#91a2a3"/><path d="M268.22776,191.47936c-0.173,0.32152 -0.19007,0.34147 -0.48104,0.13983c0.15211,-0.057 0.27695,-0.16236 0.48104,-0.13983z" fill="#869696"/><path d="M263.69421,196.89819c-0.19713,-0.11074 -0.15341,-0.22165 -0.15153,-0.34398c0.18949,0.05957 0.18949,0.05957 0.15153,0.34398z" fill="#555f5f"/><path d="M271.22826,197.75291c0.01269,0.08531 0.03044,0.20471 -0.01073,0.33275c-0.19967,-0.12779 -0.2098,-0.19602 -0.14901,-0.32689c0.01458,-0.03698 0.07353,-0.04559 0.15972,-0.00582z" fill="#93a5a6"/><path d="M274.91346,194.32269c0.22693,0.17609 0.21238,0.21309 -0.09442,0.31005c-0.05706,-0.11374 0.00881,-0.21045 0.09442,-0.31005z" fill="#8b9b9c"/><path d="M263.19284,196.36121c0.08431,0.16203 0.08495,0.30134 0.0856,0.44072c-0.11026,0.06836 -0.1743,0.04279 -0.18443,-0.02545c-0.0203,-0.13648 -0.02095,-0.27583 0.0988,-0.41526z" fill="#9aacad"/><path d="M273.35154,192.45856c0.13053,0.06814 0.25607,0.10216 0.25673,0.2415c0.00251,0.01708 -0.01455,0.03699 -0.0342,0.03986c-0.18192,-0.00838 -0.23645,-0.10502 -0.2225,-0.28135z" fill="#5f6a6b"/><path d="M268.76161,198.44343c-0.06909,-0.05965 -0.07926,-0.12793 -0.06974,-0.19903c0.01458,-0.03698 0.04879,-0.07683 0.09062,-0.06548c0.04185,0.01132 0.08624,0.03973 0.09125,0.07386c0.01012,0.06822 0.00063,0.13934 -0.11217,0.19063z" fill="#636e6f"/><path d="M270.88917,191.42287c0.12993,-0.0712 0.23069,-0.06847 0.32958,0.05655c-0.14703,0.09113 -0.23323,0.05143 -0.32958,-0.05655z" fill="#4a5354"/></g><g data-paper-data="{&quot;index&quot;:null}" fill="#000000" stroke="#000000" stroke-width="1.2"><path d="M262.028,218.58673c-0.75356,-1.71708 0.58275,-4.74573 0.55516,-7.00957c-0.02969,-2.43734 -1.35703,-3.94985 -0.44568,-5.30896c0.63658,-0.94931 2.30011,-1.13573 3.17703,-1.12637c2.1324,0.02273 3.90196,3.39716 3.9524,7.53694c0.05046,4.1398 -1.63729,7.47734 -3.76968,7.45459c-0.96629,-0.0103 -2.84476,-0.12377 -3.46923,-1.54663z"/><path d="M265.75608,220.49723c-1.02757,-2.40256 -0.05393,-8.23072 -0.05393,-8.23072c0,0 -1.22379,-3.72839 -1.22322,-3.81378c0.03512,-5.44082 3.7271,-5.46166 7.926,-5.41687c1.9984,0.0213 5.08056,0.80957 6.19355,2.52486c1.26228,1.94533 0.687,4.63927 0.72403,7.67872c0.06969,5.71945 -2.40038,10.55392 -6.66518,10.50844c-1.87734,-0.02003 -5.52882,-0.04178 -6.90126,-3.25066z"/></g></g></g></g></svg>