<svg version="1.1" xmlns="http://www.w3.org/2000/svg" xmlns:xlink="http://www.w3.org/1999/xlink" width="82.71385" height="123.44466" viewBox="0,0,82.71385,123.44466"><defs><linearGradient x1="219.28023" y1="189.40235" x2="219.28023" y2="192.31391" gradientUnits="userSpaceOnUse" id="color-1"><stop offset="0" stop-color="#737373"/><stop offset="1" stop-color="#000000"/></linearGradient></defs><g transform="translate(-193.84688,-119.87441)"><g data-paper-data="{&quot;isPaintingLayer&quot;:true}" stroke-miterlimit="10" stroke-dasharray="" stroke-dashoffset="0" style="mix-blend-mode: normal"><g fill="none" fill-rule="nonzero" stroke="none" stroke-width="1" stroke-linecap="butt" stroke-linejoin="miter" font-family="sans-serif" font-weight="normal" font-size="12" text-anchor="start"><g><g data-paper-data="{&quot;index&quot;:null}"/></g><g data-paper-data="{&quot;index&quot;:null}"/><g data-paper-data="{&quot;index&quot;:null}"/></g><g fill="none" fill-rule="nonzero" stroke="none" stroke-width="1" stroke-linecap="butt" stroke-linejoin="miter" font-family="sans-serif" font-weight="normal" font-size="12" text-anchor="start"><g><g/><g><g/></g><g/></g><g/></g><path d="" fill="#2b1900" fill-rule="nonzero" stroke="#150c00" stroke-width="3" stroke-linecap="butt" stroke-linejoin="miter"/><path d="M230.29656,192.67726c0,2.5027 -3.04182,4.53153 -6.79411,4.53153c-1.99898,0 -5.57228,1.70962 -7.76975,0.4808c-1.92739,-1.0778 -2.63896,-5.06007 -2.42954,-5.73384c0.65328,-2.10169 7.29153,-3.03467 9.51697,-3.03467c3.75229,0 7.47643,1.25349 7.47643,3.75618z" fill="#ffffff" fill-rule="nonzero" stroke="#737373" stroke-width="1" stroke-linecap="butt" stroke-linejoin="miter"/><path d="M235.34414,188.81058l-0.97525,16.04212" fill="none" fill-rule="nonzero" stroke="#000000" stroke-width="6" stroke-linecap="round" stroke-linejoin="miter"/><path d="M215.19076,208.05321c0,0 5.29878,-7.50437 5.98055,-8.3978c1.23447,-1.61773 14.31859,-10.03321 14.31859,-10.03321c0,0 5.68584,7.08019 7.64725,9.13523c1.8512,1.93956 6.66911,2.86863 6.66911,2.86863" fill="none" fill-rule="nonzero" stroke="#000000" stroke-width="6" stroke-linecap="round" stroke-linejoin="miter"/><g><g><g stroke="#262626" stroke-width="1.2"><path d="M243.39642,203.54008l2.88983,26.27636c0,0 6.98259,0.4171 6.81653,7.59665c-0.00947,0.40931 -0.10852,2.41892 -2.99313,3.00706c-2.76287,0.56331 -8.27047,-0.27821 -10.28288,-0.59795c-0.93467,-0.14851 -2.35845,-0.79631 -3.26837,-1.90547c-0.91612,-1.11677 -0.81717,-2.74089 -0.81655,-3.65454c0.00025,-0.37213 -2.05584,-29.63214 -2.05584,-29.63214" fill="#ffffff" fill-rule="evenodd" stroke-linecap="round" stroke-linejoin="round"/><path d="M233.51348,210.55565c0.17018,-7.35787 5.45586,-7.48521 8.20979,-7.41859c1.19752,0.02897 1.03568,-1.93754 2.09544,3.81734c0.23339,1.26745 0.69205,6.47077 1.67285,10.89963c0.67162,3.03271 1.93138,5.71059 2.16674,6.47993c0.55608,1.81777 0.32733,3.47486 0.32733,3.47486l-1.00827,-1.20431c0,0 0.6644,0.83929 0.93047,1.34007c0.8289,1.56004 1.46296,2.73749 1.46296,2.73749c0,0 -7.04247,-0.46511 -9.78538,1.82984c-2.74291,2.29495 -1.38374,6.6145 -1.38374,6.6145c0,0 -5.21776,-0.81997 -5.6359,-3.76384c-0.10309,-0.72574 0.70618,-2.88543 0.70618,-2.88543c0,0 -0.59661,0.12216 -0.61594,-0.38035c-0.00986,-0.25616 0.78957,-4.05623 0.96719,-8.33109c0.23382,-5.62754 -0.13426,-12.1499 -0.10974,-13.21005z" fill="#000000" fill-rule="nonzero" stroke-linecap="butt" stroke-linejoin="miter"/></g><path d="M224.5609,205.33214c-0.00974,-0.21598 1.18512,0.4208 3.89261,0.49439c3.57187,0.0971 9.04209,-0.33729 10.58028,-0.55955c3.98878,-0.57634 4.66378,-2.11038 4.68961,-1.53784c0.09556,2.11872 -2.16062,6.04332 -6.72376,6.25859c-2.00528,0.0946 -6.10681,0.80409 -8.42943,0.05816c-2.96262,-0.95148 -3.95572,-3.52614 -4.0093,-4.71377z" fill="#004fd9" fill-rule="nonzero" stroke="#001026" stroke-width="1.2" stroke-linecap="butt" stroke-linejoin="miter"/><g fill-rule="nonzero" stroke-linecap="butt" stroke-linejoin="miter"><g fill="none" stroke="none" stroke-width="1" font-family="sans-serif" font-weight="normal" font-size="12" text-anchor="start"/><path d="M224.07958,203.95417c0,0 8.57098,1.33376 12.5096,1.31516c3.93861,-0.01859 7.1835,-1.40815 7.1835,-1.40815c0,0 0.031,2.07391 -1.72548,4.09233c-1.35963,1.56238 -3.97267,3.1809 -7.35009,3.21523c-3.07692,0.03128 -6.50968,-0.62978 -8.20888,-1.98628c-2.57548,-2.05606 -2.40864,-5.22831 -2.40864,-5.22831z" fill="#000000" stroke="#262626" stroke-width="1.2"/></g><g stroke-width="1.2"><path d="M233.54811,209.21069c0,0 -3.34528,30.56729 -3.95573,30.66819c-1.75183,0.28953 -11.35196,-2.30308 -11.35196,-2.30308l6.17094,-30.73259" data-paper-data="{&quot;index&quot;:null}" fill="#ffab19" fill-rule="evenodd" stroke="#001026" stroke-linecap="round" stroke-linejoin="round"/><path d="M235.02656,208.71786c0,0 -0.78147,6.46384 -1.01229,9.89111c-0.22138,3.28727 -0.3455,10.27008 -0.3455,10.27008c0,0 0.93843,5.07389 0.02095,6.32511c-0.42494,0.57952 -0.75979,-2.86462 -0.75979,-2.86462c0,0 0.3738,3.88276 0.41061,4.22499c0.2568,2.38782 -0.91518,5.52348 -3.98631,5.82139c-3.37191,0.32707 -8.96203,0.69649 -11.84378,-1.19265c-1.22614,-0.8038 -2.88701,-3.16992 -2.44,-5.69046c0.50411,-2.84252 3.21129,-5.82039 3.21129,-5.82039l-2.48757,3.24602c0,0 -0.02593,-1.62079 0.37883,-2.80973c0.45455,-1.33517 2.21648,-4.8136 2.21648,-4.8136l5.34118,-19.57598" data-paper-data="{&quot;index&quot;:null}" fill="#000000" fill-rule="evenodd" stroke="#262626" stroke-linecap="round" stroke-linejoin="round"/><path d="M231.90314,237.97311c-0.08452,1.71634 -0.774,3.71047 -2.27053,4.74596c-1.50208,1.03932 -10.52962,0.62745 -11.92522,-0.64275c-1.32536,-1.20627 -1.86525,-3.4358 -1.78275,-5.11092c0.16936,-3.43903 3.88355,-6.00135 8.29591,-5.72308c4.41233,0.27827 7.85196,3.29175 7.68258,6.7308z" fill="#ffffff" fill-rule="nonzero" stroke="#262626" stroke-linecap="butt" stroke-linejoin="miter"/></g></g><g fill="none" fill-rule="nonzero" stroke="none" stroke-width="1" stroke-linecap="butt" stroke-linejoin="miter" font-family="sans-serif" font-weight="normal" font-size="12" text-anchor="start"/></g><g data-paper-data="{&quot;index&quot;:null}" fill="#000000" fill-rule="nonzero" stroke="#000000" stroke-width="1.2" stroke-linecap="butt" stroke-linejoin="miter"><path d="M245.45655,202.91347c-0.09809,-1.88411 2.09719,-4.41655 2.8261,-6.61401c0.78479,-2.36588 0.10881,-4.2224 1.37087,-5.26635c0.88154,-0.72918 2.42163,-0.41587 3.19767,-0.14663c1.88708,0.65468 2.3363,4.44301 1.00336,8.46144c-1.33292,4.01843 -3.94326,6.7453 -5.83031,6.09061c-0.85512,-0.29667 -2.48638,-0.96375 -2.56768,-2.52504z"/><path d="M248.07453,206.12828c-0.11341,-2.62833 2.69133,-7.97566 2.69133,-7.97566c0,0 0.15351,-3.96872 0.18243,-4.05111c1.84194,-5.25121 5.12922,-4.17593 8.84505,-2.88678c1.76849,0.61354 4.24465,2.29034 4.66269,4.27938c0.47411,2.2558 -0.93358,4.69032 -1.91223,7.64067c-1.84156,5.55178 -5.64518,9.49414 -9.41931,8.18476c-1.66136,-0.57638 -4.89846,-1.68084 -5.04994,-5.19127z"/></g><path d="M225.11723,203.83213c0,0 3.45565,-5.9968 3.02069,-7.83613c-0.10639,-0.44988 -2.99502,7.05965 -3.46547,6.63c-2.24345,-2.04885 -7.71433,-3.72995 -7.71433,-3.72995c0,0 5.25961,-6.51569 8.93143,-9.34236c1.01383,-0.78048 3.54388,-0.16344 3.82661,-0.40173c0.36514,-0.30776 9.21566,0.27728 9.55399,0.46133c4.04714,2.20166 7.47953,7.27282 7.47953,7.27282c0,0 -2.33083,2.74275 -2.37176,5.93626c-0.00029,0.02269 -2.17849,-5.08627 -2.18304,-4.73052c-0.02732,2.13126 0.61698,5.73948 0.61698,5.73948c0,0 -5.32899,1.19664 -7.98134,1.24445c-2.92395,0.0527 -9.71329,-1.24363 -9.71329,-1.24363z" fill="#ffffff" fill-rule="nonzero" stroke="#737373" stroke-width="2.5" stroke-linecap="butt" stroke-linejoin="miter"/><path d="M222.10681,192.22963c0,0 -5.79461,0.54134 -7.13395,0.52177c-0.58498,-0.00854 -1.00847,-0.42849 -0.97273,-0.90567c0.03807,-0.50818 0.55576,-1.07527 0.55576,-1.07527" fill="none" fill-rule="nonzero" stroke="#737373" stroke-width="1" stroke-linecap="round" stroke-linejoin="miter"/><path d="M216.55534,190.96392l0.12917,-0.08885c0.08689,-0.03636 0.1738,-0.07272 0.26069,-0.10908c1.14358,-0.18658 6.4952,-1.88845 4.75168,0.49611c-0.97944,0.21025 -5.60648,0.89376 -5.44409,-0.12899c0,0 0.07138,-0.23725 0.30256,-0.1692z" fill="#000000" fill-rule="nonzero" stroke="none" stroke-width="0.5" stroke-linecap="butt" stroke-linejoin="miter"/><path d="M224.08106,189.43993c0,0 -2.07289,2.01048 -2.52231,2.38243c-0.24358,0.20158 -3.30698,0.30715 -3.73031,0.33547c-1.86939,0.12505 -3.34897,0.31757 -3.34897,-0.09273c0,-0.13931 -0.01491,-0.77876 0.44885,-1.0356c1.21138,-0.67089 4.05477,-1.31674 5.8118,-1.48806c2.40541,-0.23455 3.34093,-0.10149 3.34093,-0.10149z" fill="url(#color-1)" fill-rule="nonzero" stroke="#737373" stroke-width="0" stroke-linecap="butt" stroke-linejoin="miter"/><g stroke-linejoin="miter"><g stroke-linecap="butt"><path d="M262.17086,166.55725c-1.24713,13.53598 -13.47557,23.39823 -27.31298,22.02796c-13.83741,-1.37027 -24.04385,-13.45417 -22.79671,-26.99015c1.24713,-13.53598 13.47557,-23.39824 27.31298,-22.02797c13.83741,1.37027 24.04385,13.45417 22.79672,26.99016z" fill="none" fill-rule="nonzero" stroke="#000000" stroke-width="4.5"/><g><g fill-rule="nonzero"><path d="M223.72416,146.77046l0.01052,0.00926" data-paper-data="{&quot;index&quot;:null}" fill="#ffab19" stroke="#000000" stroke-width="5"/><g data-paper-data="{&quot;index&quot;:null}" fill="none" stroke="none" stroke-width="1" font-family="sans-serif" font-weight="normal" font-size="12" text-anchor="start"/></g><path d="M223.72416,146.77046l0.01052,0.00926" data-paper-data="{&quot;index&quot;:null}" fill="#ffab19" fill-rule="nonzero" stroke="#000000" stroke-width="5"/><path d="M236.716,165.27846" fill="#001026" fill-rule="evenodd" stroke="#000000" stroke-width="5"/><g data-paper-data="{&quot;index&quot;:null}" fill="none" fill-rule="nonzero" stroke="none" stroke-width="1" font-family="sans-serif" font-weight="normal" font-size="12" text-anchor="start"/><g data-paper-data="{&quot;index&quot;:null}" fill="none" fill-rule="nonzero" stroke="none" stroke-width="1" font-family="sans-serif" font-weight="normal" font-size="12" text-anchor="start"/></g></g><path d="M236.02414,182.08977c0,0 -11.53429,-2.12681 -14.05054,-3.64894c-2.09901,-1.26974 -2.61077,-5.07874 -2.61077,-5.07874" fill="none" fill-rule="nonzero" stroke="#000000" stroke-width="3" stroke-linecap="round"/><path d="M218.00402,162.80985l22.82237,4.86112l-0.2186,1.78907" fill="none" fill-rule="nonzero" stroke="#000000" stroke-width="4.5" stroke-linecap="round"/><path d="M247.88796,170.12989l-0.36091,-1.0193l20.41803,-9.71631" fill="none" fill-rule="nonzero" stroke="#000000" stroke-width="4.5" stroke-linecap="round"/><path d="M209.19342,149.38128l-3.68716,-5.04204l-1.9306,-6.06685l9.61288,4.21956l1.814,-0.25178l-0.6917,-3.46192l-2.46805,-2.52112l6.97821,3.11002l-2.96357,-4.62181l-1.07073,-7.18673l5.27709,5.42882l3.74087,1.56345l-1.90222,-5.14428l5.61151,4.4559l-0.48344,-5.22638l0.92208,-4.03301l5.31875,5.07592l2.53357,1.21036l1.56207,2.38653l1.47936,-7.4947l2.2101,6.72227l2.36755,-7.9651l3.11407,7.37782l2.7361,-4.28479l0.32937,7.71141l4.06232,-3.42752l1.16597,-4.58752l2.20808,7.24324l-1.18378,3.98254l6.27876,-3.5616l3.22557,-0.62125l-5.35297,3.78021l1.79418,-0.33579l-2.17308,4.55374l6.09636,-3.27595l-5.09931,5.91447l9.69849,-2.30067l-6.40975,6.18312l4.881,-1.54524l-5.37679,4.73808l2.57521,0.85747l-9.97181,-0.41167l-38.12764,5.94195l-10.30401,4.32047l3.89231,-4.23391l-7.53348,-0.16928l5.06742,-2.87279l-9.39486,-3.29526l6.93484,-1.30964l2.64473,-1.4952l2.24614,0.52135" fill="#ffffff" fill-rule="nonzero" stroke="#e2e2e2" stroke-width="3" stroke-linecap="round"/></g><g data-paper-data="{&quot;index&quot;:null}" fill-rule="nonzero" stroke="none" stroke-width="1" stroke-linecap="butt" stroke-linejoin="miter"><path d="M257.21846,176.88894c-0.14355,0.01084 -0.20488,-0.15141 -0.26023,-0.36691c-0.07389,-0.35358 -0.11119,-0.72893 -0.17283,-1.08981c-0.04589,-0.04723 -0.09178,-0.09448 -0.13456,-0.11869c-0.89896,-0.60806 -1.51185,-1.83352 -2.02431,-3.29267c-0.10741,-0.30877 -0.22705,-0.61033 -0.2765,-0.97842c-0.00926,-0.06903 -0.03385,-0.15378 -0.06446,-0.18527c-0.16828,-0.17318 -0.20849,-0.47227 -0.26398,-0.7871c-0.04932,-0.26879 -0.07423,-0.55214 -0.11133,-0.82821c-0.02164,-0.16104 -0.01889,-0.33661 0.03888,-0.49524c0.05777,-0.15859 0.06964,-0.36443 0.08459,-0.54724c0.02879,-1.06065 0.15226,-2.10311 0.35824,-3.12012c0.12123,-0.56903 0.29141,-1.06785 0.47382,-1.57388c0.53812,-1.48793 1.24792,-2.58112 2.07734,-3.3728c0.37509,-0.34739 0.77785,-0.58704 1.19297,-0.73466c0.31438,-0.11251 0.62603,-0.04945 0.92855,0.04383c0.9626,0.29691 1.75512,1.19185 2.40785,2.51788c0.12563,0.24827 0.22085,0.56425 0.31605,0.88031c0.06755,0.20826 0.1442,0.38628 0.2848,0.45173c0.12529,0.04971 0.20195,0.22768 0.25729,0.44319c0.07389,0.35358 0.12336,0.72168 0.17283,1.08979c0.01547,0.11505 0.00343,0.22162 -0.00862,0.32817c-0.06654,0.38742 -0.05677,0.75432 -0.01947,1.12969c0.09295,0.78948 0.05765,1.60554 0.03454,2.41434c-0.01172,0.30514 -0.03561,0.6175 -0.08701,0.9214c-0.15716,0.98795 -0.33273,1.93722 -0.63668,2.81377c0.04639,0.34507 0.08365,0.72045 0.13316,1.08853c0.01856,0.13807 0.0402,0.29908 -0.02067,0.43466c-0.04865,0.1283 -0.0179,0.25913 0.00066,0.39712c0.11151,0.9275 0.23519,1.84772 0.3467,2.77522c0.26302,2.05481 0.52916,4.1326 0.76778,6.20192c0.23243,2.02331 0.5015,4.02482 0.75833,6.03362c0.0433,0.32209 0.05907,0.63569 0.10238,0.95774c0.2103,1.5644 0.42058,3.12883 0.61868,4.70049c0.03711,0.27605 0.09861,0.53761 0.0594,0.83424c-0.01204,0.10659 0.01562,0.21429 0.03107,0.32934c0.15465,1.15032 0.30015,2.33088 0.45478,3.48119c0.00618,0.04601 0.01544,0.11504 0.02164,0.16104c0.0617,0.36085 0.001,0.59573 -0.14823,0.85844c-0.50248,0.87045 -1.08195,1.36431 -1.73841,1.48164c-0.16794,0.02537 -0.34205,0.00474 -0.51016,-0.06913c-0.1253,-0.04971 -0.19886,-0.20467 -0.242,-0.42743c-0.12938,-0.66842 -0.27098,-1.32952 -0.40346,-2.02096c-0.09245,-0.49164 -0.16357,-1.02077 -0.29264,-1.49059c-0.28269,-1.02439 -0.42203,-2.15898 -0.66812,-3.20512c-0.13233,-0.59209 -0.28597,-1.14672 -0.40609,-1.7461c-0.12629,-0.64537 -0.27391,-1.25327 -0.40933,-1.86833c-0.24315,-1.1225 -0.46498,-2.28249 -0.72034,-3.39769c-0.35364,-1.45424 -0.6585,-2.9376 -0.96333,-4.42088c-0.10774,-0.5074 -0.21549,-1.01465 -0.32324,-1.52205c-0.16017,-0.79919 -0.32339,-1.62133 -0.48353,-2.42048c-0.08627,-0.44561 -0.19384,-0.85369 -0.28012,-1.29925c-0.10156,-0.4614 -0.16032,-0.89843 -0.25277,-1.3901zM257.48026,176.38532c0.16501,0.05091 0.32384,0.05581 0.48559,-0.01555c0.34516,0.01823 0.68087,-0.13181 1.01658,-0.2819c0.42424,-0.17789 0.8483,-0.45505 1.26017,-0.72499c0.47289,-0.30622 0.87824,-0.82071 1.29273,-1.36548c0.04263,-0.07506 0.08526,-0.15011 0.1492,-0.2627c-0.02472,-0.18405 -0.0495,-0.36807 -0.07423,-0.55211c-0.00618,-0.04601 -0.02457,-0.08477 -0.04605,-0.1465c-0.08544,0.0508 -0.16777,0.12466 -0.24703,0.22149c-0.13718,0.15618 -0.26834,0.25901 -0.40551,0.41516c-0.34758,0.35588 -0.73522,0.51204 -1.09207,0.79891c-0.19218,0.13923 -0.37817,0.32435 -0.57654,0.41755c-0.43645,0.18516 -0.85742,0.48532 -1.30621,0.57843c-0.11604,0.01933 -0.24425,0.04599 -0.3603,0.06529c-0.06738,-0.10903 -0.15883,-0.00486 -0.22605,-0.01459c-0.08249,-0.02546 -0.16502,-0.0509 -0.29616,0.05201c0.12563,0.24827 0.12923,0.56913 0.21514,0.81614c0.06413,-0.01328 0.13148,0.09567 0.21074,-0.00118zM258.07358,176.87707c-0.30855,-0.04007 -0.38485,-0.01947 -0.53734,0.12093c0.04932,0.26879 0.09556,0.51463 0.14486,0.78343c0.02164,0.16104 0.08591,0.24705 0.16844,0.27249c0.05503,0.01698 0.11603,-0.01936 0.17103,-0.00238c0.20473,0.05216 0.42148,-0.00233 0.61366,-0.1415c0.1009,0.06414 0.19852,0.00613 0.29618,-0.05198c0.55229,-0.30376 1.09551,-0.57732 1.63234,-0.99609c0.23792,-0.19124 0.47275,-0.40549 0.69225,-0.6355c0.17072,-0.20097 0.35361,-0.40916 0.46296,-0.77239c-0.04021,-0.2991 -0.08043,-0.59814 -0.12063,-0.89725c-0.09145,0.10407 -0.17072,0.20094 -0.23774,0.29049c-0.317,0.38734 -0.64016,0.72873 -0.97572,0.97808c-0.43009,0.33041 -0.87565,0.54584 -1.31811,0.78427c-0.2075,0.12347 -0.42132,0.10164 -0.6257,0.24807c-0.13148,-0.09567 -0.25662,-0.04607 -0.36646,0.01926zM263.02896,201.58225c0.18942,0.03637 0.36337,-0.04225 0.53114,-0.16693c0.01528,0.01574 0.0428,0.02422 0.05502,0.01695c0.28982,-0.19728 0.57346,-0.44058 0.81413,-0.80739c0.14323,-0.20946 0.28949,-0.39585 0.3775,-0.72153c-0.17318,-1.28835 -0.34638,-2.57663 -0.52882,-3.93406c-0.25889,0.42731 -0.53636,0.71672 -0.81688,0.98296c-0.24394,0.24453 -0.49731,0.32073 -0.74742,0.51924c-0.09763,0.0581 -0.18616,0.08596 -0.2838,0.14406c-0.1619,-0.0279 -0.32986,-0.0025 -0.51601,0.0834c0.09278,0.69019 0.27702,1.27627 0.38802,1.90592c0.1263,0.64538 0.26481,1.28355 0.38802,1.90588c0.13148,0.09567 0.23531,0.08365 0.33914,0.0715zM262.10225,197.13963c0.10091,0.06413 0.20164,0.0291 0.29925,-0.029c0.11002,0.03396 0.21678,-0.05442 0.3297,-0.09676c0.34483,-0.18036 0.67419,-0.47569 0.98515,-0.80976c0.18289,-0.2082 0.35962,-0.46247 0.49955,-0.79417c-0.01236,-0.09204 -0.01254,-0.19129 -0.02493,-0.28332c-0.15152,-1.12736 -0.29995,-2.23157 -0.4393,-3.36613c-0.14861,-1.20356 -0.29414,-2.38413 -0.44274,-3.58772c-0.22285,-1.75574 -0.43034,-3.49569 -0.6532,-5.25143c-0.23846,-1.97004 -0.51045,-3.89528 -0.72448,-5.87985c-0.03108,-0.32934 -0.0897,-0.66715 -0.13608,-1.01228c-0.12186,0.17191 -0.22535,0.38255 -0.35342,0.50843c-0.39933,0.46122 -0.82942,0.79165 -1.26569,1.07611c-0.39053,0.23235 -0.78418,0.44173 -1.17784,0.65109c-0.16485,0.0484 -0.31439,0.11252 -0.47925,0.16092c-0.11618,-0.07996 -0.21985,0.03142 -0.32368,0.04352c-0.11604,0.01933 -0.22604,-0.01459 -0.345,0.08103c0.00651,0.2446 0.05567,0.41413 0.08951,0.56788c0.31672,1.27751 0.53889,2.63607 0.81898,3.93532c0.17855,0.83793 0.35708,1.67588 0.54785,2.50649c0.24315,1.1225 0.49541,2.21466 0.73547,3.31413c0.20004,0.89964 0.40005,1.79934 0.58786,2.70629c0.20929,0.96872 0.40328,1.92165 0.6004,2.89762c0.18473,0.88393 0.37256,1.79085 0.57258,2.69052c0.11292,-0.04236 0.20472,0.0521 0.29926,-0.02898zM262.03454,163.88617c-0.24065,0.36679 -0.48461,0.61134 -0.72543,0.87887c-0.25305,0.2748 -0.49076,0.56535 -0.7469,0.81711c-0.24394,0.24452 -0.50628,0.4503 -0.75329,0.67177c-0.25925,0.22879 -0.51845,0.45757 -0.79296,0.6706c-0.2501,0.19848 -0.51553,0.38123 -0.76565,0.57974c-0.2654,0.18274 -0.5432,0.2735 -0.79624,0.54831c-0.27483,0.01447 -0.53097,0.26625 -0.79037,0.39577c-0.27467,0.1137 -0.55541,0.28079 -0.83009,0.39453c-0.26247,0.10646 -0.54027,0.1972 -0.80583,0.28068c-0.2778,0.09071 -0.55573,0.08214 -0.82421,0.24194c0.04981,0.56668 0.07145,0.72769 0.22477,1.08371c0.1619,0.0279 0.32384,0.0558 0.50397,0.02313c0.21676,-0.05443 0.43351,-0.10884 0.66557,-0.14753c0.43661,-0.08584 0.85792,-0.18748 1.28508,-0.44162c0.29292,-0.17428 0.58274,-0.37161 0.88804,-0.45383c0.06413,-0.01328 0.13735,-0.0569 0.20436,-0.14644c0.13716,-0.15619 0.29894,-0.22753 0.44538,-0.31471c0.53702,-0.3195 1.05546,-0.77706 1.55862,-1.2504c0.67094,-0.59799 1.29581,-1.34246 1.91138,-2.156c0.12496,-0.14891 0.24994,-0.29779 0.31972,-0.56293c-0.02197,-0.35963 -0.08057,-0.69749 -0.17592,-1.11276zM256.73587,164.08224c-0.05742,0.35716 -0.06605,0.68532 -0.08686,1.02069c-0.02702,0.28937 -0.0021,0.57271 0.08383,0.81973c0.14435,0.48556 0.2552,1.01593 0.3172,1.57534c0.00618,0.04601 0.02765,0.10778 0.03074,0.13078c0.07029,0.03268 0.1191,0.00361 0.17087,-0.10168c0.00912,-0.03024 0.01513,-0.08354 0.01204,-0.10658c-0.05307,-0.68897 -0.08172,-1.39243 -0.08598,-2.11046c-0.00015,-0.09928 -0.00652,-0.24458 -0.04331,-0.32209c-0.09829,-0.33906 -0.1966,-0.67807 -0.39856,-0.90578zM256.47055,167.99182c-0.04689,-0.64293 -0.06626,-1.27739 -0.07033,-1.89613c-0.00035,-0.19854 -0.03419,-0.35234 -0.09555,-0.5146c-0.09814,-0.23972 -0.2145,-0.41899 -0.33394,-0.62125c-0.03678,-0.07751 -0.07664,-0.17799 -0.14369,-0.08841c-0.00846,0.42742 -0.03219,0.83911 -0.01624,1.25197c0.33738,0.84279 0.33736,0.84279 0.49801,1.9398c0.04588,0.04726 0.09781,0.04117 0.16175,-0.07139zM259.77903,168.48302c0.00684,0.44318 0.0259,0.8791 0.04495,1.315c0.00016,0.09929 0.00033,0.19856 0.0249,0.28332c0.1349,0.31726 0.25763,0.64177 0.44429,0.85375c0.10935,-0.3632 0.09956,-0.73007 0.1295,-1.09576c0.01497,-0.18279 -0.01581,-0.3136 -0.07406,-0.45284c-0.14711,-0.31 -0.26984,-0.63457 -0.38339,-0.98931c-0.00309,-0.02303 -0.03058,-0.03153 -0.06116,-0.06296c-0.03352,0.04478 -0.07928,0.09687 -0.12498,0.14891zM259.16745,162.56089c-0.10918,0.46251 -0.13602,0.85117 -0.17506,1.24708c-0.00586,0.15258 0.02181,0.26031 0.04949,0.36807c0.14747,0.50856 0.25827,1.03899 0.32339,1.62138c0.00927,0.06901 0.03074,0.13078 0.04003,0.19977c0.13735,-0.05687 0.15867,-0.09438 0.13391,-0.27843c-0.08042,-0.59821 -0.0967,-1.20965 -0.04578,-1.81139c0.02993,-0.36565 -0.01938,-0.63448 -0.12061,-0.89727c-0.07047,-0.13203 -0.12563,-0.2483 -0.20537,-0.44928zM257.91377,167.15794c0.06101,-0.03633 0.06084,-0.13566 0.04848,-0.22767c-0.08658,-0.64416 -0.07246,-1.3234 -0.05831,-2.00269c0.00518,-0.54969 -0.11476,-1.04979 -0.36586,-1.44698c-0.05759,0.25788 -0.03887,0.49523 -0.07207,0.73859c-0.06329,0.50973 -0.00453,0.94683 0.10614,1.37794c0.11686,0.47706 0.24591,0.94695 0.28955,1.46757c0.02149,0.06172 0.03678,0.07754 0.05208,0.09327zM258.31628,163.09218c-0.03613,0.31964 -0.07242,0.54 -0.09648,0.75308c-0.04521,0.34992 -0.02032,0.63327 0.07179,0.92628c0.13198,0.39354 0.21825,0.83914 0.29231,1.29196c0.03385,0.15381 0.05859,0.33783 0.08023,0.49886c0.06413,-0.01328 0.06704,-0.08953 0.06085,-0.13557c-0.02868,-0.7035 -0.04513,-1.41421 -0.00965,-2.13103c-0.00326,-0.12228 -0.00343,-0.22156 -0.03109,-0.32933c-0.10432,-0.2858 -0.19643,-0.57882 -0.36795,-0.87428zM260.51699,167.7955c0.10759,0.40808 0.12662,0.84396 0.15788,1.27262c0.01547,0.11502 -0.00878,0.22884 0.03109,0.32933c0.06137,0.1623 0.2573,0.44322 0.41939,0.57043c0.05452,-0.28092 0.04181,-0.57148 0.05662,-0.85365c0.00878,-0.22886 -0.02816,-0.40563 -0.11392,-0.55336c-0.14091,-0.26399 -0.25746,-0.54253 -0.34355,-0.88885c-0.00309,-0.02303 -0.0337,-0.05447 -0.04898,-0.07022c-0.05192,0.00605 -0.10074,0.03506 -0.15849,0.19372zM256.54714,171.79736c0.11652,0.27849 0.15688,0.67691 0.30694,0.91063c0.08234,-0.07382 0.1035,-0.21065 0.13995,-0.33173c0.06069,-0.23491 0.13977,-0.43098 0.16678,-0.72036c-0.12888,-0.37055 -0.16635,-0.84518 -0.28612,-1.24597c-0.07029,-0.03268 -0.13132,0.00359 -0.18615,0.08595c-0.02065,0.4347 -0.0688,0.86089 -0.14137,1.30159zM258.35454,169.55423c0.00651,0.2446 0.01303,0.48915 -0.02635,0.68648c-0.09389,0.47821 -0.02909,0.86208 0.12112,1.19507c0.05515,0.11624 0.07371,0.25429 0.1655,0.3488c0.09112,-0.30273 0.14255,-0.6066 0.19392,-0.91052c0.01514,-0.08355 0.00274,-0.17555 -0.02491,-0.2833c-0.09522,-0.31606 -0.17513,-0.61633 -0.27032,-0.93238c-0.00926,-0.06903 -0.04606,-0.14653 -0.15901,-0.10417zM257.58564,170.01176c0.01922,0.53518 0.00782,1.03887 -0.10135,1.50137c-0.02733,0.09079 -0.00275,0.17556 0.00962,0.26757c0.04004,0.19979 0.09229,0.39236 0.19334,0.55579c0.12758,-0.42377 0.19412,-0.81124 0.25757,-1.22166c0.02115,-0.13681 0.01791,-0.2591 -0.01286,-0.38988c-0.0584,-0.23858 -0.10466,-0.48437 -0.16308,-0.7229c-0.00309,-0.02303 -0.0337,-0.05451 -0.04898,-0.07024c-0.03662,0.02178 -0.07324,0.04356 -0.13424,0.07991zM260.24657,163.1363c-0.07975,-0.20099 -0.16257,-0.42507 -0.24232,-0.62609c-0.01528,-0.01574 -0.03061,-0.03151 -0.06118,-0.06297c-0.10643,0.28692 -0.14255,0.6066 -0.15735,0.88868c0.18131,0.66237 0.35642,1.27869 0.46156,2.06092c0.12139,-0.46977 -0.01355,-0.78701 -0.01713,-1.10786c-0.01286,-0.38988 0.00175,-0.77125 0.01639,-1.15266zM256.49075,163.63177c-0.15915,-0.20345 -0.29392,-0.42141 -0.48642,-0.4808c-0.02718,0.19006 -0.07274,0.34142 -0.09077,0.50128c-0.01804,0.15983 -0.04831,0.32687 -0.02666,0.48793c0.06445,0.18523 0.16844,0.27246 0.25111,0.39718c0.08268,0.12468 0.14403,0.28701 0.25712,0.34394c0.03593,-0.41896 0.0628,-0.80757 0.09566,-1.24953zM255.69563,168.50259c-0.04396,-0.71921 -0.08469,-1.31617 -0.12536,-1.91307c-0.00618,-0.04601 -0.00324,-0.12232 -0.03385,-0.15378c-0.11945,-0.20222 -0.22068,-0.46499 -0.40097,-0.53163c-0.00553,0.35114 -0.01414,0.67929 -0.01054,1.00016c0.22979,0.43476 0.39253,0.95902 0.57075,1.59838zM259.42342,171.32835c0.0882,-0.22641 0.08167,-0.47098 0.10576,-0.68407c0.0332,-0.24336 0.02978,-0.46495 -0.05307,-0.68893c-0.1074,-0.30877 -0.21482,-0.61756 -0.23991,-1.00022c-0.09163,0.00483 -0.13735,0.05687 -0.11879,0.19492c0.03419,0.35233 0.07145,0.72771 0.03843,1.07035c-0.03887,0.49523 0.10515,0.78227 0.26758,1.10799zM258.14713,171.54109c-0.10608,0.4855 -0.20012,0.86447 -0.28198,1.23613c0.02164,0.16104 0.07063,0.23131 0.10741,0.30875c0.04898,0.07024 0.09194,0.1937 0.18355,0.18892c0.10953,-0.26396 0.20063,-0.56658 0.27647,-0.88499c-0.07681,-0.27725 -0.16274,-0.52431 -0.28546,-0.84884zM260.21478,171.52832c-0.15622,-0.27973 -0.29408,-0.52071 -0.43498,-0.78469c-0.04523,0.34992 -0.09355,0.67687 -0.14187,1.00374c0.12563,0.24827 0.22376,0.48803 0.39805,0.60788c0.08201,-0.27238 0.1243,-0.54605 0.17882,-0.82693zM256.97762,162.54697c-0.12791,0.22515 -0.12431,0.54605 -0.16662,0.81967c-0.01514,0.08355 0.01252,0.19129 0.04623,0.24581c0.10416,0.18651 0.193,0.35726 0.29405,0.52076c0.00309,0.02303 0.02752,0.00846 0.05193,-0.00604c0.04216,-0.37292 0.06895,-0.76156 0.11111,-1.13448c-0.09194,-0.19373 -0.21432,-0.31969 -0.33671,-0.44563zM258.94082,162.14911c-0.08284,-0.22399 -0.16257,-0.42502 -0.31847,-0.50622c-0.06979,0.26519 -0.16402,0.54484 -0.18794,0.85724c0.05826,0.13927 0.09212,0.29304 0.15948,0.40201c0.05514,0.11626 0.06768,0.30759 0.18682,0.31122c0.05744,-0.35716 0.11486,-0.71433 0.16011,-1.06429zM260.54098,171.21002c0.07665,0.17799 0.20196,0.22767 0.33034,0.30036c0.06056,-0.33415 0.15473,-0.61385 0.16028,-0.96497c-0.12238,-0.12598 -0.21742,-0.34269 -0.37641,-0.44687c-0.04216,0.37292 -0.07209,0.73859 -0.11421,1.11149zM261.2242,166.97721c0.04347,0.42137 0.13886,0.83669 0.15788,1.27264c0.02198,0.35961 0.13217,0.49278 0.30335,0.58972c0.05141,-0.30387 0.04181,-0.57148 0.04129,-0.86933c-0.20813,-0.27365 -0.32794,-0.67449 -0.50255,-0.99296zM254.96888,168.58714c0.04573,-0.05204 0.03644,-0.12105 0.02718,-0.19006c-0.02799,-0.30632 -0.07129,-0.62843 -0.08708,-0.94205c-0.00995,-0.46616 -0.16292,-0.6236 -0.35561,-0.78227c-0.00276,0.1756 -0.01169,0.3051 -0.00844,0.42739c0.00051,0.29786 0.02231,0.55816 0.16617,0.74591c0.08267,0.12469 0.1349,0.3173 0.18409,0.48679c0.00016,0.09929 -0.00878,0.22882 0.07371,0.25428zM256.05997,172.68355c0.04865,-0.1283 0.07291,-0.24215 0.10023,-0.33293c0.0973,-0.25664 0.1061,-0.48552 0.04457,-0.74706c-0.05531,-0.21552 -0.07713,-0.47588 -0.12027,-0.69866c-0.00926,-0.06904 -0.00635,-0.14529 -0.09489,-0.11749c-0.01775,0.3584 -0.05986,0.73134 -0.12951,1.09578c-0.01514,0.08355 0.00034,0.19852 0.01269,0.29057c0.04913,0.1695 0.09521,0.31609 0.18716,0.50979zM259.30525,171.9204c-0.07974,-0.201 -0.15037,-0.43227 -0.26366,-0.58851c-0.08802,0.3257 -0.19444,0.61261 -0.23968,0.96252c0.10417,0.18649 0.17169,0.39474 0.3245,0.45294c0.06981,-0.26519 0.15492,-0.51456 0.17881,-0.82694zM257.96279,163.60065c0.08801,-0.32569 0.12413,-0.64534 0.13583,-0.95043c-0.10415,-0.1865 -0.19301,-0.3572 -0.33069,-0.49892c-0.07909,0.19617 -0.11536,0.41651 -0.13635,0.6526c0.11342,0.25549 0.21467,0.51827 0.33118,0.79681zM258.36131,173.62495c0.09489,0.1175 0.14694,0.21072 0.22035,0.2664c0.04589,0.04723 0.08869,0.07146 0.1315,0.09568c0.10658,-0.18762 0.19478,-0.41405 0.23709,-0.68769c-0.09194,-0.19373 -0.18389,-0.38746 -0.32761,-0.4759c-0.08201,0.27238 -0.1702,0.49882 -0.26132,0.80147zM255.41566,170.93014c-0.09714,0.35597 -0.17003,0.59806 -0.24896,0.89349c0.00015,0.09928 0.034,0.25304 0.08918,0.36931c0.04296,0.12349 0.0402,0.29906 0.1289,0.37054c0.10056,-0.13438 0.15833,-0.29298 0.19771,-0.49034c-0.0617,-0.36085 -0.10806,-0.70596 -0.16681,-1.14305zM256.10734,162.64238c0.07651,0.07873 0.15299,0.15746 0.22946,0.23621c0.07652,0.07873 0.14989,0.1344 0.22636,0.21314c0.05142,-0.30387 0.11211,-0.53878 0.10251,-0.80635c-0.05516,-0.11624 -0.13458,-0.11869 -0.20487,-0.15143c-0.07029,-0.03268 -0.14989,-0.1344 -0.23221,-0.06061c-0.05159,0.20467 -0.10934,0.3632 -0.12122,0.56907zM259.88106,172.86981c-0.12857,-0.17195 -0.2267,-0.41177 -0.39793,-0.50863c-0.06068,0.2349 -0.10918,0.4625 -0.16988,0.69738c0.12856,0.17195 0.22962,0.33548 0.39154,0.36334c0.06996,-0.16587 0.14614,-0.28571 0.17623,-0.55208zM255.52599,165.67173c0.01758,-0.45766 0.02911,-0.86206 0.04065,-1.26642c-0.06738,-0.10903 -0.12254,-0.22528 -0.21416,-0.22044c-0.10024,0.33297 -0.11796,0.69131 -0.14788,1.05696c0.06738,0.10901 0.13474,0.218 0.21122,0.29673c0.02457,0.08478 0.05207,0.09323 0.11015,0.13321zM257.54785,172.96603c-0.10727,-0.20949 -0.14437,-0.48559 -0.26675,-0.61154c-0.10332,0.30993 -0.19753,0.58961 -0.25807,0.92383c0.1071,0.11022 0.13799,0.34027 0.27861,0.40569c0.10656,-0.18762 0.15199,-0.4383 0.24621,-0.71795zM259.43121,161.38527c-0.06688,0.18887 -0.11844,0.39348 -0.14253,0.60661c0.11036,0.2325 0.20847,0.47226 0.325,0.75076c0.03921,-0.29658 0.0877,-0.52425 0.15443,-0.81239c-0.11034,-0.23253 -0.20538,-0.44928 -0.33689,-0.54498zM256.18903,173.15338c0.08901,0.27005 0.15966,0.50131 0.30644,0.61276c0.08216,-0.17314 0.15524,-0.31594 0.17933,-0.52907c-0.08592,-0.24703 -0.15965,-0.50127 -0.26397,-0.78706c-0.0882,0.22641 -0.16418,0.44556 -0.22178,0.70343zM258.23518,162.09692c0.04832,-0.32689 0.16402,-0.54487 0.15441,-0.81246c-0.10415,-0.1865 -0.22035,-0.26642 -0.34566,-0.31611c-0.07599,0.21915 -0.15508,0.41526 -0.15769,0.69011c0.11017,0.13322 0.20815,0.27365 0.34892,0.43839zM260.74397,172.03338c-0.10709,-0.11021 -0.18975,-0.23492 -0.31197,-0.26159c-0.05141,0.30387 -0.16403,0.54481 -0.17265,0.87295c0.09489,0.1175 0.18049,0.16594 0.29343,0.12358c0.0729,-0.24215 0.13051,-0.50001 0.19117,-0.7349zM254.90892,165.59162c-0.09797,-0.1405 -0.17134,-0.19614 -0.26608,-0.21441c-0.06069,0.23491 -0.10301,0.50851 -0.06587,0.78456c0.09179,0.09448 0.18355,0.18891 0.27844,0.30641c0.06363,-0.31116 0.03872,-0.59448 0.05352,-0.8766zM262.22526,168.34432c-0.08867,-0.07146 -0.1621,-0.12718 -0.23839,-0.10663c-0.04231,0.27359 -0.06017,0.53274 -0.05057,0.80033c0.07955,0.10174 0.15296,0.15745 0.24459,0.15263c0.05452,-0.28092 0.0296,-0.56424 0.04439,-0.84633zM258.98524,174.14815c0.11032,0.2325 0.21106,0.19741 0.31782,0.10907c0.08543,-0.0508 0.16469,-0.14769 0.17656,-0.35352c-0.09797,-0.1405 -0.19284,-0.25796 -0.31814,-0.30764c-0.06688,0.18887 -0.12154,0.37047 -0.17623,0.55208zM260.82325,162.81798c-0.06445,-0.18526 -0.08918,-0.36928 -0.19007,-0.43349c-0.19151,0.53635 -0.07175,0.93717 0.11524,1.34763c0.02392,-0.31237 0.05094,-0.60181 0.07483,-0.91415zM257.7791,174.2944c0.09749,-0.15736 0.15524,-0.31597 0.20064,-0.5666c-0.1009,-0.06414 -0.14405,-0.28697 -0.25404,-0.3209c-0.07016,0.06656 -0.08217,0.1731 -0.12173,0.27115c-0.03643,0.12102 -0.09128,0.20338 -0.06964,0.36443c0.06738,0.10901 0.13477,0.218 0.24477,0.25193zM258.18209,166.89892c0.15279,0.05816 0.21986,-0.03141 0.20421,-0.2457c-0.02798,-0.30633 -0.0804,-0.59818 -0.12972,-0.86696c-0.01235,-0.092 -0.04006,-0.19978 -0.11945,-0.20223c-0.00536,0.45042 0.0137,0.88628 0.04495,1.31494zM261.44581,171.66545c0.04295,0.1235 0.10107,0.16349 0.1774,0.14295c0.09422,-0.27969 0.21596,-0.55088 0.24588,-0.91653c-0.16502,-0.05089 -0.2687,0.06044 -0.32319,0.34135c-0.03645,0.12105 -0.10041,0.23369 -0.10008,0.43224zM259.7866,165.69577c0.17085,-0.10164 0.20128,-0.16953 0.17346,-0.37651c-0.05551,-0.31482 -0.11409,-0.65265 -0.21841,-0.93841c-0.04197,0.47222 -0.07483,0.91415 0.04495,1.31496zM261.91748,166.93737c0.01252,0.19128 0.03421,0.35237 0.04362,0.52062c0.03107,0.32937 0.03109,0.32934 0.26625,0.3137c0.00276,-0.1756 0.01465,-0.38144 0.01446,-0.48068c-0.12239,-0.12599 -0.21725,-0.24341 -0.32434,-0.35362zM257.44789,160.65219c-0.05778,0.1586 -0.16142,0.27 -0.12741,0.52307c0.08869,0.07146 0.1865,0.11266 0.29048,0.19985c0.06689,-0.18888 0.14907,-0.36194 0.16093,-0.5678c-0.10092,-0.06413 -0.1927,-0.15868 -0.32401,-0.15509zM261.41726,169.19788c-0.02079,0.33537 -0.05386,0.67803 -0.07466,1.0134c0.03987,0.10046 0.08883,0.17073 0.15587,0.08117c0.08201,-0.27238 0.13345,-0.57633 0.12984,-0.89717c-0.06738,-0.10903 -0.12855,-0.17195 -0.21108,-0.19737zM259.862,161.45201c0.08234,-0.07382 0.13101,-0.20216 0.16125,-0.36925c-0.03678,-0.07753 -0.07356,-0.15499 -0.11034,-0.2325c-0.05206,-0.09326 -0.09196,-0.19373 -0.17137,-0.19615c-0.07323,0.04355 -0.12806,0.12584 -0.16142,0.26997c0.08888,0.17076 0.19302,0.35722 0.28185,0.52797zM257.39585,162.42239c0.06689,-0.18888 0.09406,-0.37899 0.10593,-0.5848c-0.11618,-0.07996 -0.22018,-0.16713 -0.32106,-0.23132c-0.08836,0.12715 -0.11862,0.29422 -0.11228,0.43954c0.11016,0.13322 0.22034,0.26642 0.32742,0.37668zM260.446,161.8747c-0.05516,-0.11624 -0.11032,-0.2325 -0.17771,-0.34153c-0.01528,-0.01573 -0.03972,-0.00119 -0.06723,-0.00969c-0.03955,0.09805 -0.10658,0.18761 -0.11845,0.3935c0.06138,0.16228 0.11672,0.37777 0.22688,0.511c0.08215,-0.17313 0.11241,-0.34021 0.1365,-0.55332zM261.35889,163.46828c-0.02181,-0.26032 0.10625,-0.38625 0.07532,-0.61628c-0.07355,-0.15496 -0.11357,-0.35479 -0.23596,-0.48073c-0.06996,0.16587 -0.12774,0.32451 -0.06327,0.50971c0.06445,0.18527 0.08007,0.39955 0.22392,0.58728zM262.02381,170.27802c0.02717,-0.19007 0.06653,-0.38745 0.09681,-0.55449c0.00912,-0.03026 -0.00928,-0.06904 -0.01548,-0.11504c-0.06721,-0.00971 -0.14368,-0.08845 -0.24425,0.04599c-0.03626,0.22034 -0.06949,0.46371 -0.11486,0.71437c0.0978,0.04119 0.17413,0.0206 0.2778,-0.09071zM256.86891,161.44393c-0.09178,-0.09448 -0.18666,-0.21195 -0.26314,-0.29064c-0.10057,0.13438 -0.15835,0.29297 -0.20389,0.44432c0.03387,0.15381 0.12237,0.12592 0.18048,0.16592c0.05812,0.03995 0.11929,0.10294 0.20163,0.02909c0.04263,-0.07506 0.08217,-0.17315 0.08495,-0.34873zM256.66407,174.13787c0.08268,0.12468 0.14696,0.21075 0.21123,0.29671c0.01838,0.03877 0.0581,0.03999 0.07341,0.05572c0.08543,-0.0508 0.1341,-0.17914 0.16434,-0.34625c-0.08576,-0.14772 -0.15933,-0.30273 -0.26637,-0.413c-0.06394,0.1126 -0.1126,0.24093 -0.18258,0.40679zM262.24387,166.71831c0.00863,-0.32815 0.01723,-0.65624 -0.06267,-0.95655c-0.10055,0.13438 -0.19513,0.2155 -0.2314,0.43581c0.11357,0.35481 0.11359,0.35481 0.29406,0.52072zM258.02984,174.49307c0.26626,0.3137 0.27843,0.30641 0.4672,-0.05442c-0.09489,-0.1175 -0.19885,-0.20464 -0.29373,-0.32218c-0.08234,0.07382 -0.13098,0.20215 -0.17347,0.37649zM259.19854,161.02681c-0.08576,-0.14773 -0.16536,-0.24945 -0.27537,-0.28343c-0.02132,0.03754 -0.05176,0.10533 -0.08219,0.17313c-0.01822,0.06055 -0.03337,0.1441 -0.05158,0.20459c0.08577,0.14772 0.16244,0.32573 0.27553,0.38269c0.06394,-0.11259 0.10643,-0.28692 0.13357,-0.47702zM255.78642,173.49233c0.03042,-0.06781 0.06996,-0.16588 0.0729,-0.24217c0.0026,-0.27487 -0.05274,-0.49031 -0.1722,-0.69261c-0.06088,0.13559 -0.1523,0.23969 -0.17037,0.39953c0.07974,0.201 0.12597,0.44681 0.26966,0.53523zM255.10169,163.98618c-0.01527,-0.01574 -0.0306,-0.03149 -0.06118,-0.06297c-0.13393,0.27849 -0.22195,0.60416 -0.30996,0.92982c0.05826,0.13926 0.11635,0.1792 0.21708,0.14414c0.04832,-0.32689 0.10882,-0.66103 0.15408,-1.01099zM258.9672,165.1895c-0.02683,0.38866 -0.06895,0.76156 -0.00419,1.14539c0.00309,0.02303 0.05809,0.03992 0.08249,0.02544c0.06101,-0.03633 0.09746,-0.1574 0.08198,-0.27239c-0.00358,-0.32087 -0.0682,-0.60543 -0.1603,-0.89843zM258.68751,160.46123c-0.07957,-0.10177 -0.15916,-0.20348 -0.25696,-0.24467c-0.08544,0.0508 -0.14027,0.13315 -0.17965,0.33045c0.104,0.08721 0.21107,0.19744 0.31196,0.26163c0.06702,-0.08956 0.10656,-0.18764 0.12464,-0.34747zM259.93445,173.75732c0.17395,-0.07866 0.32351,-0.14275 0.44832,-0.39094c-0.06445,-0.18524 -0.16224,-0.22648 -0.26917,-0.2374c-0.07908,0.19615 -0.14905,0.36198 -0.17915,0.62839zM254.82465,171.82842c0.0913,-0.2034 0.1004,-0.2336 0.09114,-0.30269c-0.0187,-0.23731 -0.10757,-0.40809 -0.19334,-0.55579c-0.03367,-0.05447 -0.09781,-0.04114 -0.11587,0.11865c0.10106,0.16349 0.09244,0.49165 0.21809,0.73984zM255.61151,163.85678c0.06056,-0.33415 0.13636,-0.65261 0.09597,-1.05095c-0.1492,0.26269 -0.19754,0.58964 -0.25204,0.87049c0.02765,0.10778 0.07046,0.13196 0.15606,0.18041zM257.31206,174.44803c-0.05175,0.10533 -0.10658,0.18765 -0.15832,0.29297c0.08886,0.17077 0.18374,0.28823 0.30871,0.13932c0.03353,-0.04479 0.06702,-0.08958 0.06688,-0.18887c-0.04295,-0.12349 -0.11637,-0.17923 -0.21725,-0.24341zM260.5734,164.97918c0.10984,-0.0654 0.15247,-0.14038 0.11553,-0.31716c-0.03385,-0.15382 -0.06772,-0.30758 -0.11378,-0.45409c-0.02149,-0.0617 -0.05517,-0.11628 -0.1009,-0.06421c0.0005,0.29786 0.03453,0.55091 0.09914,0.83547zM255.87377,167.27853c-0.00862,0.32817 0.00719,0.64174 0.084,0.91903c0.00309,0.02303 0.0581,0.03992 0.07029,0.03268c0.0244,-0.0145 0.03955,-0.09805 0.03335,-0.14409c-0.0524,-0.29182 -0.06511,-0.58245 -0.18766,-0.80771zM255.39313,168.40929c-0.06753,-0.20828 -0.10156,-0.46139 -0.20879,-0.67089c-0.02081,0.33536 -0.0112,0.60297 0.04396,0.71921c0.04295,0.12349 0.09179,0.09449 0.16483,-0.04837zM261.08118,172.77685c0.13718,-0.15618 0.30806,-0.25786 0.35637,-0.58475c-0.24441,-0.05331 -0.29272,0.27357 -0.35637,0.58475zM260.34744,168.6915c0.02439,-0.01451 0.03356,-0.04483 0.05794,-0.05932c-0.04313,-0.22277 -0.02216,-0.45889 -0.11101,-0.62962c-0.07631,0.02054 -0.10984,0.06537 -0.13099,0.20218c0.05826,0.13926 0.11961,0.30151 0.18408,0.48679zM257.43614,166.44826c0.00668,0.34387 0.0163,0.61146 0.06561,0.88028c0.00618,0.04601 0.03677,0.07751 0.07339,0.05572c0.01222,-0.00728 0.03352,-0.04479 0.04263,-0.07508c0.00863,-0.32815 -0.02849,-0.60418 -0.18163,-0.86091zM256.031,173.64494c-0.06703,0.08958 -0.09745,0.15736 -0.06378,0.21187c0.05826,0.13926 0.12873,0.27124 0.1992,0.40326c0.04898,0.07024 0.08559,0.04848 0.10983,-0.06536c-0.07061,-0.23131 -0.13509,-0.41656 -0.24524,-0.54976zM257.97575,160.36296c0.03955,-0.09805 0.08217,-0.17315 0.12173,-0.27118c0.00912,-0.03024 0.00292,-0.07628 0.00586,-0.15258c-0.14644,0.0871 -0.28996,0.098 -0.43627,0.28443c0.104,0.08721 0.17739,0.14291 0.30871,0.13931zM257.14625,170.27313c0.04312,0.22279 0.08318,0.42263 0.13249,0.69142c0.09112,-0.30272 0.09991,-0.53151 0.05677,-0.75429c-0.07029,-0.03269 -0.11001,-0.03394 -0.18927,0.06289zM260.90116,167.41784c0.07047,0.13203 0.08006,0.39955 0.23288,0.45773c-0.03762,-0.57392 -0.05307,-0.68892 -0.12029,-0.69866c-0.06101,0.03633 -0.09146,0.10411 -0.1126,0.24093zM256.71004,166.93005c-0.10008,0.43221 -0.06295,0.70828 0.03225,1.02434c0.13374,-0.37775 -0.0072,-0.64169 -0.03225,-1.02434zM261.05651,163.47424c-0.09096,0.40196 -0.05694,0.65507 0.00458,0.9166c0.00309,0.02303 0.0306,0.03147 0.05499,0.01696c0.03662,-0.02177 0.05484,-0.08233 0.04865,-0.12832c-0.01869,-0.23731 -0.06184,-0.46009 -0.10823,-0.80519zM261.44066,166.72415c0.06445,0.18526 0.10759,0.40808 0.25124,0.49646c0.00568,-0.25186 -0.03436,-0.45164 -0.07129,-0.62842c-0.08249,-0.02546 -0.12821,0.02659 -0.17997,0.13195zM261.05109,162.06125c-0.11328,-0.15623 -0.14729,-0.40929 -0.2817,-0.42871c0.00668,0.34387 0.00668,0.34386 0.18422,0.58608c0.02132,-0.03754 0.04263,-0.07506 0.09747,-0.15738zM261.09142,171.57811c0.16158,-0.17069 0.21919,-0.42857 0.26149,-0.70221c-0.05516,-0.11624 -0.104,-0.08721 -0.13132,0.00359c-0.03626,0.22036 -0.08477,0.448 -0.13015,0.69861zM259.3414,160.61876c0.07015,-0.06658 0.12807,-0.12587 0.14612,-0.28567c-0.06427,-0.08597 -0.12856,-0.172 -0.20486,-0.15141c-0.05793,0.05929 -0.08835,0.12713 -0.1004,0.2337c0.03987,0.10047 0.08576,0.14772 0.15916,0.20342zM258.89548,169.75417c0.01189,-0.2058 0.01774,-0.35842 -0.02524,-0.48193c-0.01838,-0.03877 -0.04588,-0.04726 -0.0734,-0.05573c-0.03662,0.02177 -0.07926,0.09683 -0.05778,0.15857c0.01856,0.13808 0.0402,0.29909 0.15642,0.37905zM257.10873,160.58066c-0.11913,-0.00366 -0.2013,0.16948 -0.29274,0.2736c0.18667,0.21196 0.21107,0.19737 0.29274,-0.2736zM254.70657,168.79289c0.00242,-0.37415 0.00243,-0.37414 -0.12597,-0.44683c-0.00586,0.15258 -0.00861,0.32817 0.12597,0.44683zM259.55641,168.69002c-0.05812,-0.03995 -0.09471,-0.01818 -0.10072,0.03506c-0.03626,0.22036 -0.0148,0.28211 0.12289,0.42381c0.01498,-0.18281 -0.00357,-0.3209 -0.02214,-0.45892zM261.59382,163.35335c-0.04555,0.15137 -0.0789,0.29543 -0.03287,0.44192c0.18598,-0.18523 0.19201,-0.23843 0.03287,-0.44192zM254.34206,168.14021c-0.05159,0.20467 -0.03906,0.39592 -0.02961,0.56419c0.01236,0.09201 0.05827,0.13928 0.11913,0.00367c-0.00946,-0.16828 -0.02198,-0.35964 -0.08951,-0.56788zM260.44163,161.05732c0.00651,0.2446 0.05859,0.33786 0.16242,0.32576c0,0 0.02132,-0.03754 0.01822,-0.06054c-0.00636,-0.14531 -0.09192,-0.19376 -0.18064,-0.26526zM258.053,170.05665c0.06703,-0.08958 0.07909,-0.19617 0.05451,-0.28088c-0.00618,-0.04601 -0.03678,-0.07751 -0.06428,-0.086c-0.02752,-0.00846 -0.05792,0.05929 -0.05173,0.10532c-0.00293,0.0763 0.00944,0.16828 0.06151,0.26156zM258.79074,160.05198c0.07047,0.13201 0.12856,0.17199 0.21383,0.02182c-0.08577,-0.14772 -0.14077,-0.16472 -0.21383,-0.02182z" fill="#000000"/><path d="M258.99512,178.24184c0.39363,-0.20932 0.78731,-0.41872 1.17786,-0.65111c0.43938,-0.26143 0.86636,-0.61487 1.2657,-1.07609c0.12497,-0.14889 0.21934,-0.32924 0.35342,-0.5084c0.04949,0.36813 0.105,0.68288 0.13607,1.01224c0.21095,1.96157 0.48601,3.9098 0.72447,5.87983c0.21061,1.76298 0.43037,3.49569 0.6532,5.25143c0.14861,1.20357 0.29412,2.38417 0.44272,3.58772c0.13934,1.13457 0.29998,2.23157 0.43932,3.36611c0.01236,0.09204 0.02473,0.18408 0.0249,0.28335c-0.13684,0.35474 -0.30446,0.57867 -0.49955,0.79416c-0.31098,0.33411 -0.64033,0.62945 -0.98515,0.80976c-0.10984,0.0654 -0.21659,0.15373 -0.32968,0.09676c0.10366,-0.1114 0.23497,-0.115 0.35377,-0.30988c-0.13489,-0.31726 -0.15087,-0.73012 -0.21256,-1.09098c-0.00309,-0.02303 -0.00618,-0.046 -0.01838,-0.03876c-0.18112,-0.56306 -0.2708,-1.23025 -0.41842,-1.83814c-0.05533,-0.21551 -0.14729,-0.40928 -0.15381,-0.65384c-0.03742,-0.47465 -0.20604,-0.84639 -0.24349,-1.3211c-0.00309,-0.02303 -0.02149,-0.06174 -0.02767,-0.10778c-0.09537,-0.41528 -0.19984,-0.8004 -0.27081,-1.23023c-0.06804,-0.50613 -0.22753,-0.90819 -0.27116,-1.42882c-0.11342,-0.25549 -0.1292,-0.56911 -0.18471,-0.88393c-0.00618,-0.04601 -0.00929,-0.06904 -0.01546,-0.11502c-0.15949,-0.40203 -0.17562,-0.91419 -0.28629,-1.34529c-0.11067,-0.43105 -0.15122,-0.92871 -0.24968,-1.36706c-0.10774,-0.50738 -0.24902,-0.96987 -0.28661,-1.54385c-0.00618,-0.04601 -0.01546,-0.11505 -0.03385,-0.1538c-0.10727,-0.20949 -0.10774,-0.50736 -0.15704,-0.77618c-0.01856,-0.13808 -0.02799,-0.3063 -0.07096,-0.42983c-0.07664,-0.17803 -0.08918,-0.36931 -0.11702,-0.5764c-0.01547,-0.11505 -0.01872,-0.23736 -0.05551,-0.31481c-0.11342,-0.25549 -0.13232,-0.5921 -0.17252,-0.89116c-0.01547,-0.11505 -0.01873,-0.23729 -0.0555,-0.31483c-0.09502,-0.21676 -0.11686,-0.47708 -0.15086,-0.73018c-0.05568,-0.41414 -0.19676,-0.77737 -0.24021,-1.19873c0.00292,-0.07628 -0.04294,-0.12351 -0.06445,-0.18526z" fill="#87d7dc"/><path d="M258.99513,178.24188c0.02147,0.06174 0.06738,0.10899 0.07666,0.17801c0.04348,0.42137 0.17236,0.79191 0.24022,1.19875c0.03401,0.25306 0.05584,0.51344 0.15086,0.73017c0.03678,0.07753 0.04005,0.19981 0.05552,0.31478c0.04022,0.29906 0.07128,0.62843 0.1725,0.89122c0.03678,0.07751 0.02784,0.20709 0.05552,0.31482c0.02783,0.20705 0.05257,0.39111 0.11702,0.5764c0.04295,0.12349 0.05241,0.29186 0.07096,0.42988c0.04932,0.26879 0.04982,0.56666 0.15706,0.77616c0.01838,0.03877 0.02767,0.10777 0.03385,0.15378c0.03452,0.55093 0.17888,1.03654 0.28662,1.54387c0.10156,0.46139 0.14209,0.95898 0.24965,1.36709c0.11067,0.43104 0.12681,0.94324 0.28629,1.34526c0.01528,0.01576 0.00927,0.06905 0.01547,0.11507c0.04022,0.29906 0.0713,0.62841 0.18473,0.88395c0.03141,0.52793 0.19092,0.92996 0.27114,1.42882c0.05875,0.43711 0.17545,0.81489 0.2708,1.23025c0.00618,0.04601 0.02151,0.06176 0.02768,0.10777c0.03742,0.47465 0.20604,0.84638 0.24349,1.32109c0.02181,0.26032 0.11066,0.43109 0.15381,0.65386c0.13541,0.61513 0.23731,1.27506 0.41842,1.83811c0.00309,0.02303 0.0184,0.03874 0.0184,0.03874c0.0617,0.36086 0.07765,0.77377 0.21256,1.091c-0.10658,0.18764 -0.24101,0.16823 -0.35378,0.30985c-0.09762,0.0581 -0.19527,0.11613 -0.29928,0.02893c-0.01856,-0.13808 -0.02799,-0.3063 -0.07096,-0.4298c-0.15037,-0.43225 -0.20309,-0.92272 -0.29246,-1.39134c-0.08935,-0.46857 -0.23973,-0.90085 -0.27115,-1.42878c-0.11342,-0.25549 -0.12924,-0.56911 -0.18473,-0.88395c-0.00618,-0.04601 -0.01547,-0.11502 -0.03385,-0.1538c-0.08886,-0.17076 -0.09536,-0.41531 -0.13541,-0.61515c-0.01547,-0.11505 -0.03094,-0.23005 -0.0555,-0.31482c-0.12907,-0.46983 -0.24902,-0.96987 -0.32015,-1.49905c-0.00926,-0.06904 -0.00943,-0.16833 -0.04004,-0.19978c-0.09193,-0.19372 -0.11068,-0.43104 -0.1416,-0.66111c-0.02181,-0.26032 -0.1382,-0.43956 -0.16307,-0.7229c-0.03727,-0.37537 -0.1447,-0.68414 -0.21859,-1.03771c-0.09246,-0.49163 -0.23061,-0.93115 -0.30172,-1.4603c-0.01236,-0.09204 -0.01562,-0.21433 -0.04932,-0.26882c-0.07354,-0.15503 -0.08919,-0.36928 -0.12922,-0.56907c-0.02473,-0.18405 -0.06168,-0.3608 -0.10773,-0.5074c-0.08901,-0.27005 -0.15363,-0.55459 -0.19696,-0.87668c-0.07714,-0.47586 -0.22753,-0.90816 -0.25895,-1.43604c-0.00618,-0.04601 -0.02765,-0.10778 -0.03385,-0.15382c-0.10156,-0.46139 -0.21534,-0.91539 -0.29245,-1.39129c-0.06804,-0.50613 -0.23372,-0.95419 -0.27733,-1.47484c-0.00926,-0.06904 -0.04297,-0.12349 -0.06445,-0.18526c-0.06461,-0.28455 -0.12012,-0.59938 -0.1237,-0.92023c0.05794,-0.05931 0.10673,-0.0884 0.15248,-0.14041c0.18016,-0.03264 0.33278,-0.07378 0.49455,-0.14516z" fill="#b0eef2"/><path d="M262.03455,163.8862c0.09536,0.41528 0.15395,0.75318 0.15152,1.12732c-0.07291,0.24217 -0.19786,0.39107 -0.31973,0.56294c-0.61868,0.7905 -1.24045,1.55797 -1.91138,2.15598c-0.50626,0.45029 -1.02471,0.90788 -1.55862,1.25041c-0.14645,0.08712 -0.30822,0.15855 -0.44541,0.31467c-0.05794,0.05931 -0.13117,0.10287 -0.20437,0.14644c-0.30529,0.08225 -0.59201,0.30255 -0.88804,0.45385c-0.41805,0.22393 -0.84849,0.35581 -1.28508,0.44163c-0.21984,0.03143 -0.43662,0.08585 -0.66556,0.14758c-0.17704,0.05561 -0.34205,0.00475 -0.50398,-0.02313c-0.1411,-0.36331 -0.17494,-0.51705 -0.22476,-1.08371c0.27157,-0.13678 0.54645,-0.15124 0.82421,-0.24194c0.26557,-0.08347 0.54334,-0.17421 0.80584,-0.28068c0.27468,-0.11371 0.5585,-0.25776 0.83008,-0.3945c0.26247,-0.10646 0.5186,-0.3583 0.7904,-0.39577c0.25305,-0.2748 0.53082,-0.3655 0.79624,-0.54829c0.25321,-0.1755 0.51552,-0.38129 0.76565,-0.57979c0.26233,-0.20578 0.52153,-0.43456 0.79298,-0.67056c0.24703,-0.22151 0.50934,-0.42727 0.75328,-0.67183c0.25613,-0.25179 0.49387,-0.5423 0.74692,-0.8171c0.26525,-0.28206 0.50917,-0.52658 0.74985,-0.8934z" fill="#d1eaeb"/><path d="M258.51588,178.40283c-0.04573,0.05204 -0.09455,0.08111 -0.15247,0.14042c0.0036,0.32088 0.04379,0.61992 0.1237,0.92024c0.02147,0.06176 0.05517,0.11626 0.06445,0.18526c0.04362,0.52064 0.19711,0.976 0.27733,1.47486c0.06494,0.48314 0.1909,0.92995 0.29244,1.3913c0.00618,0.04601 0.02767,0.10778 0.03385,0.15378c0.03141,0.52793 0.19089,0.92995 0.25893,1.43607c0.04022,0.29906 0.10792,0.60664 0.19695,0.87666c0.04913,0.16947 0.0861,0.34629 0.10774,0.50737c0.02783,0.20705 0.04037,0.39836 0.12923,0.5691c0.03367,0.05449 0.03694,0.17682 0.0493,0.26883c0.06804,0.50613 0.20931,0.96865 0.30174,1.46028c0.07388,0.35359 0.18131,0.66234 0.21857,1.03771c0.02181,0.26032 0.13817,0.43955 0.16307,0.7229c0.01872,0.23732 0.04053,0.49764 0.14158,0.66115c0.02147,0.06176 0.03076,0.13076 0.04005,0.19975c0.07112,0.52913 0.18795,1.00621 0.32014,1.49905c0.02765,0.10778 0.03094,0.23002 0.05549,0.31478c0.02783,0.20705 0.04658,0.44437 0.13542,0.61511c0.01838,0.03877 0.02767,0.10777 0.03385,0.15377c0.04022,0.29906 0.07129,0.62843 0.18472,0.88395c0.03142,0.52792 0.1818,0.96023 0.27116,1.42878c0.08935,0.46857 0.14518,0.98196 0.29244,1.39128c0.04295,0.1235 0.0524,0.29185 0.07097,0.42984c-0.10676,0.08836 -0.19853,-0.00609 -0.28706,0.02175c-0.19091,-0.92992 -0.38784,-1.80662 -0.57255,-2.69054c-0.20929,-0.9687 -0.4033,-1.92163 -0.60041,-2.89757c-0.18782,-0.90696 -0.38786,-1.80661 -0.58787,-2.7063c-0.24315,-1.1225 -0.49542,-2.21467 -0.73549,-3.31413c-0.17855,-0.83795 -0.35706,-1.67588 -0.54783,-2.50649c-0.28011,-1.29925 -0.51448,-2.65061 -0.819,-3.93531c-0.03694,-0.17677 -0.0983,-0.33902 -0.08951,-0.56787c0.10984,-0.0654 0.22895,-0.06169 0.345,-0.08105c0.06721,0.00968 0.17085,-0.10168 0.28398,-0.04475z" fill="#87d7dc"/><path d="M262.71982,197.51753c0.25011,-0.19851 0.5004,-0.29775 0.7474,-0.51927c0.28056,-0.2663 0.55799,-0.55564 0.81688,-0.98294c0.17938,1.33435 0.35566,2.64568 0.52884,3.93402c-0.10023,0.33296 -0.24653,0.51935 -0.37752,0.72154c-0.25287,0.37408 -0.5274,0.5871 -0.81413,0.80739c-0.01222,0.00728 -0.0397,-0.00122 -0.05501,-0.01695c0.09129,-0.20337 0.02993,-0.36562 -0.01923,-0.53518c-0.12289,-0.42383 -0.23355,-0.85486 -0.28319,-1.32225c-0.01236,-0.09204 -0.02474,-0.18406 -0.04932,-0.26878c-0.132,-0.39356 -0.18163,-0.86091 -0.27702,-1.27627c-0.0584,-0.23858 -0.10759,-0.40798 -0.21776,-0.54125z" fill="#61afb4"/><path d="M257.9215,175.45196c0.44571,-0.11612 0.86978,-0.39328 1.30621,-0.57845c0.19836,-0.09316 0.38746,-0.2554 0.57656,-0.41761c0.35997,-0.26385 0.74448,-0.44296 1.09206,-0.79888c0.14028,-0.13314 0.28056,-0.26628 0.40553,-0.41517c0.07926,-0.09684 0.16157,-0.1707 0.24703,-0.22153c0.02149,0.0617 0.03986,0.1005 0.04605,0.14655c0.02472,0.18405 0.04949,0.36806 0.07424,0.55211c-0.05173,0.10533 -0.09439,0.18036 -0.14921,0.2627c-0.40224,0.53748 -0.81672,1.08227 -1.29273,1.36549c-0.41188,0.26994 -0.8359,0.54708 -1.26018,0.72499c-0.33573,0.15009 -0.66834,0.32313 -1.01658,0.2819c0.05483,-0.08235 0.13735,-0.0569 0.16759,-0.22396c-0.00961,-0.26759 -0.0132,-0.58846 -0.1966,-0.67809z" fill="#61aeb3"/><path d="M258.4216,176.81906c0.2013,-0.16946 0.41512,-0.14758 0.62569,-0.24804c0.44248,-0.23844 0.88494,-0.4768 1.31811,-0.78429c0.34774,-0.25658 0.67093,-0.598 0.97573,-0.9781c0.07926,-0.09684 0.15848,-0.19369 0.23773,-0.29053c0.0433,0.32209 0.08044,0.59816 0.12062,0.89725c-0.10935,0.3632 -0.27698,0.58713 -0.46296,0.77239c-0.21951,0.23004 -0.45123,0.46723 -0.69223,0.63547c-0.53685,0.41876 -1.08005,0.6923 -1.63235,0.9961c-0.09762,0.05809 -0.19528,0.1162 -0.29618,0.052c-0.01547,-0.11505 -0.01874,-0.23732 -0.05551,-0.31481c-0.07974,-0.20101 -0.10466,-0.48439 -0.13867,-0.73738z" fill="#61aeb3"/><path d="M262.71982,197.51753c0.09489,0.1175 0.15622,0.27973 0.19936,0.50254c0.09536,0.41531 0.14501,0.88274 0.27701,1.27624c0.02457,0.08478 0.03697,0.17681 0.04932,0.26885c0.06496,0.48314 0.17251,0.89118 0.28318,1.32224c0.04605,0.14655 0.11052,0.33178 0.01922,0.53518c-0.17998,0.13192 -0.35703,0.1876 -0.53114,0.16698c-0.07993,-0.30032 -0.17202,-0.59336 -0.19092,-0.92995c-0.00618,-0.04601 -0.02766,-0.10778 -0.03385,-0.1538c-0.09846,-0.43832 -0.20003,-0.89968 -0.2863,-1.34528c-0.04004,-0.19978 -0.06476,-0.38384 -0.11702,-0.5764c-0.07061,-0.2313 -0.11995,-0.50012 -0.09294,-0.78947c0.05793,-0.05929 0.10674,-0.08836 0.15247,-0.14038c0.08543,-0.0508 0.18617,-0.08595 0.27158,-0.13677z" fill="#87d7dc"/><path d="M256.73585,164.08227c0.18977,0.23494 0.30025,0.56666 0.39856,0.90578c0.02458,0.08476 0.04312,0.22282 0.0433,0.32209c-0.00795,0.72526 0.0329,1.42152 0.08597,2.11045c0.00309,0.02303 -0.00292,0.07625 -0.01203,0.10656c-0.03955,0.09805 -0.10056,0.13442 -0.17085,0.10169c-0.00618,-0.04601 -0.0246,-0.08477 -0.03077,-0.13078c-0.06198,-0.55938 -0.16063,-1.09705 -0.31719,-1.57534c-0.07372,-0.25428 -0.10774,-0.5074 -0.08383,-0.81974c0.03303,-0.34262 0.02943,-0.66348 0.08687,-1.02071z" fill="#cce5e6"/><path d="M256.47055,167.99182c-0.06394,0.1126 -0.11585,0.11863 -0.16174,0.07139c-0.17284,-1.08978 -0.17285,-1.08975 -0.49801,-1.93981c-0.02816,-0.40565 0.00469,-0.84755 0.01625,-1.25194c0.07926,-0.09684 0.10999,0.03394 0.14368,0.08842c0.11945,0.20222 0.23581,0.38148 0.33394,0.62126c0.06137,0.1623 0.09519,0.31609 0.09553,0.51457c0.00408,0.61877 0.02347,1.25317 0.07034,1.89612z" fill="#cce5e6"/><path d="M262.43603,197.66154c-0.04573,0.05204 -0.09457,0.08111 -0.15247,0.14039c-0.027,0.28938 0.02231,0.55816 0.09295,0.78948c0.05225,0.19254 0.077,0.37656 0.11702,0.57641c0.08626,0.44561 0.18781,0.90693 0.28628,1.34526c0.00618,0.04601 0.02768,0.10778 0.03385,0.1538c0.03419,0.35234 0.12319,0.62238 0.19089,0.92993c-0.10382,0.0121 -0.19546,0.01689 -0.31165,-0.06306c-0.1232,-0.62238 -0.27393,-1.25328 -0.38803,-1.90592c-0.1232,-0.62238 -0.29522,-1.21571 -0.38801,-1.90589c0.19836,-0.09316 0.35718,-0.0883 0.51911,-0.06046z" fill="#60adb2"/><path d="M259.77903,168.48302c0.04573,-0.05205 0.07927,-0.09683 0.12498,-0.14889c0.03061,0.03149 0.04588,0.04724 0.06116,0.06296c0.1014,0.36205 0.23631,0.67932 0.3834,0.98931c0.05826,0.13927 0.08903,0.27007 0.07405,0.45286c-0.01773,0.3584 -0.00793,0.72525 -0.1295,1.09575c-0.18665,-0.21196 -0.32158,-0.52919 -0.44427,-0.85375c-0.02149,-0.0617 -0.02472,-0.18406 -0.0249,-0.28332c-0.01907,-0.43584 -0.03811,-0.87184 -0.04495,-1.315z" fill="#cce5e6"/><path d="M259.16748,162.56086c0.07975,0.20097 0.1349,0.3173 0.19317,0.45655c0.10122,0.2628 0.15053,0.53158 0.12061,0.89724c-0.03563,0.61747 -0.03151,1.23624 0.04579,1.81137c0.02472,0.18406 0.01562,0.21429 -0.13393,0.27849c-0.00927,-0.06903 -0.03077,-0.13076 -0.04004,-0.19982c-0.0651,-0.58241 -0.17594,-1.11275 -0.32339,-1.62133c-0.03075,-0.1308 -0.05842,-0.23855 -0.0495,-0.36811c0.05124,-0.4032 0.0781,-0.79184 0.18729,-1.25434z" fill="#cae2e3"/><path d="M257.91378,167.15797c-0.01527,-0.01574 -0.03372,-0.05453 -0.03678,-0.07753c-0.04672,-0.54361 -0.16357,-1.02071 -0.28953,-1.46759c-0.11067,-0.43104 -0.16943,-0.8682 -0.10613,-1.3779c0.0332,-0.24336 0.01136,-0.50368 0.07208,-0.73857c0.26023,0.36691 0.38325,0.89005 0.36586,1.447c-0.01414,0.67928 -0.04358,1.34275 0.05832,2.00271c-0.00292,0.07628 0.00943,0.16831 -0.06379,0.2119z" fill="#c9e1e2"/><path d="M258.31628,163.09218c0.17153,0.29549 0.26364,0.58849 0.35884,0.90454c0.02765,0.10778 0.04312,0.22279 0.03109,0.32937c-0.02325,0.70955 -0.019,1.42752 0.00965,2.13099c0.00618,0.04601 0.00327,0.12225 -0.06086,0.13559c-0.02164,-0.16104 -0.04638,-0.34506 -0.08023,-0.49887c-0.07405,-0.45284 -0.16032,-0.89844 -0.29232,-1.29197c-0.09213,-0.29304 -0.12011,-0.59937 -0.07178,-0.92626c0.0332,-0.24336 0.06945,-0.46374 0.10558,-0.78339z" fill="#c9e1e2"/><path d="M260.51699,167.7955c0.05779,-0.1586 0.11881,-0.19492 0.17982,-0.23123c0.01528,0.01573 0.03372,0.0545 0.04897,0.07026c0.07389,0.35358 0.19351,0.65509 0.34356,0.88879c0.08575,0.14773 0.1227,0.32453 0.11392,0.55338c-0.01479,0.28209 -0.01428,0.57996 -0.05658,0.85362c-0.16207,-0.12718 -0.37025,-0.40086 -0.41939,-0.57041c-0.03987,-0.10047 -0.02785,-0.20705 -0.03108,-0.32936c-0.06477,-0.38382 -0.07164,-0.82701 -0.17918,-1.23503z" fill="#cae3e4"/><path d="M256.54715,171.7974c0.07255,-0.44069 0.10854,-0.85963 0.12918,-1.29432c0.06702,-0.08956 0.11588,-0.11865 0.18617,-0.08596c0.11668,0.37777 0.1572,0.87543 0.2861,1.24598c-0.02702,0.28937 -0.10608,0.4855 -0.16676,0.72039c-0.03643,0.12102 -0.05759,0.25784 -0.13993,0.3317c-0.13784,-0.24099 -0.17511,-0.61634 -0.29472,-0.91787z" fill="#c8e0e1"/><path d="M258.35455,169.55426c0.11293,-0.04236 0.13751,0.04241 0.16208,0.12717c0.09522,0.31606 0.18731,0.60906 0.27033,0.93237c0.02458,0.08477 0.03695,0.17679 0.02492,0.28336c-0.05142,0.30387 -0.11505,0.61503 -0.19394,0.91048c-0.07956,-0.10173 -0.11034,-0.23253 -0.16551,-0.34877c-0.16549,-0.34874 -0.23028,-0.73257 -0.12113,-1.19508c0.0485,-0.22764 0.04198,-0.47222 0.02324,-0.70953z" fill="#cbe4e5"/><path d="M257.58564,170.01176c0.06101,-0.03633 0.09762,-0.05811 0.13424,-0.07992c0.01838,0.03877 0.04588,0.04727 0.04898,0.07024c0.0584,0.23858 0.10466,0.48436 0.16308,0.7229c0.03075,0.13081 0.034,0.25308 0.01285,0.3899c-0.06344,0.41043 -0.14222,0.80516 -0.25757,1.22166c-0.11328,-0.1562 -0.1533,-0.356 -0.19334,-0.55578c-0.01235,-0.092 -0.02472,-0.18408 -0.00962,-0.26756c0.10918,-0.46251 0.12057,-0.96621 0.10135,-1.5014z" fill="#c8e0e1"/><path d="M258.4216,176.81903c0.03401,0.25306 0.05892,0.53644 0.15398,0.75319c0.03678,0.07751 0.04001,0.19978 0.0555,0.31481c-0.20438,0.14644 -0.40893,0.19363 -0.61366,0.14148c-0.01888,-0.33661 -0.11099,-0.62961 -0.17252,-0.89115c0.06996,-0.16587 0.16469,-0.14769 0.2317,-0.23727c0.10676,-0.08836 0.23191,-0.13797 0.345,-0.08106z" fill="#85d5d9"/><path d="M260.24657,163.1363c-0.01464,0.38141 -0.02925,0.76279 -0.02862,1.15994c0.00668,0.34388 0.1538,0.65387 0.0171,1.10788c-0.10515,-0.78216 -0.28336,-1.42156 -0.46156,-2.0609c0.02702,-0.28937 0.06311,-0.60901 0.15735,-0.88868c0.03061,0.03149 0.04589,0.04724 0.06117,0.06296c0.09194,0.19373 0.17171,0.39477 0.25452,0.61874z" fill="#c6dede"/><path d="M256.49075,163.63177c-0.03286,0.44197 -0.05969,0.83056 -0.09255,1.27253c-0.11618,-0.07996 -0.17756,-0.24221 -0.25713,-0.34391c-0.08268,-0.12468 -0.18667,-0.21198 -0.2511,-0.39721c-0.02164,-0.16104 0.00861,-0.32813 0.02666,-0.48792c0.01805,-0.15982 0.04834,-0.32689 0.0908,-0.50127c0.18942,0.03637 0.32416,0.25438 0.48334,0.45784z" fill="#cae3e3"/><path d="M255.69563,168.50259c-0.17822,-0.63934 -0.34097,-1.16366 -0.57385,-1.62137c0.00862,-0.32817 0.00504,-0.64898 0.01056,-1.00012c0.18341,0.08963 0.28155,0.3294 0.40097,0.5316c0.01838,0.03877 0.02767,0.1078 0.03384,0.1538c0.04069,0.59692 0.08141,1.19388 0.12846,1.93607z" fill="#cae3e4"/><path d="M259.42341,171.32831c-0.17153,-0.29547 -0.31557,-0.58246 -0.26756,-1.10793c0.02993,-0.36566 -0.00425,-0.71804 -0.03843,-1.07037c-0.01856,-0.13807 0.03936,-0.19736 0.11878,-0.19493c0.02509,0.38259 0.13249,0.69142 0.23991,1.0002c0.08284,0.224 0.08627,0.44557 0.05307,0.68896c-0.02409,0.21307 -0.02067,0.43469 -0.10578,0.6841z" fill="#c8e0e1"/><path d="M257.92149,175.45193c0.1865,0.11266 0.18697,0.41049 0.21189,0.69384c-0.03026,0.16705 -0.10966,0.16464 -0.16758,0.22396c-0.16174,0.07138 -0.32058,0.06648 -0.48562,0.01559c-0.02181,-0.26032 -0.10464,-0.48434 -0.07456,-0.7507c0.05794,-0.05931 0.09456,-0.0811 0.14336,-0.11017c0.12825,-0.02661 0.25645,-0.05327 0.37249,-0.07257z" fill="#85d4d9"/><path d="M258.14713,171.54107c0.11961,0.30151 0.20865,0.57152 0.30987,0.83431c-0.07583,0.31841 -0.16693,0.6211 -0.27647,0.88503c-0.09163,0.00483 -0.13458,-0.11869 -0.18356,-0.18891c-0.04898,-0.07024 -0.09796,-0.14046 -0.1074,-0.30878c0.06056,-0.33415 0.15148,-0.73611 0.25757,-1.22164z" fill="#c7dfe0"/><path d="M260.21478,171.52832c-0.05452,0.28092 -0.09682,0.55449 -0.19103,0.83421c-0.17429,-0.1199 -0.27242,-0.35965 -0.39806,-0.6079c0.04833,-0.32689 0.09663,-0.65382 0.14188,-1.00375c0.16534,0.24948 0.291,0.49779 0.4472,0.77746z" fill="#c8e0e1"/><path d="M256.97762,162.54696c0.12239,0.12599 0.24474,0.25193 0.33979,0.46868c-0.02993,0.36566 -0.07207,0.73857 -0.11112,1.13446c-0.0244,0.0145 -0.04881,0.02904 -0.0519,0.00601c-0.10107,-0.16349 -0.2052,-0.34996 -0.29406,-0.52071c-0.03678,-0.07753 -0.06138,-0.16227 -0.04624,-0.24579c0.03613,-0.31964 0.03563,-0.6175 0.16353,-0.84273z" fill="#c4dcdd"/><path d="M258.94082,162.14911c-0.05744,0.35716 -0.10267,0.70707 -0.16011,1.06427c-0.1069,-0.01095 -0.13163,-0.19498 -0.18682,-0.31123c-0.05516,-0.11624 -0.10124,-0.26278 -0.15949,-0.40201c0.02392,-0.31237 0.12126,-0.56898 0.18796,-0.85722c0.15587,0.08116 0.23564,0.28219 0.31846,0.50621z" fill="#c8e0e1"/><path d="M260.54098,171.21002c0.04216,-0.37292 0.07517,-0.71561 0.11422,-1.11151c0.14679,0.1114 0.24182,0.32822 0.37642,0.4469c-0.00555,0.35114 -0.09974,0.63083 -0.16028,0.96495c-0.1406,-0.06541 -0.2537,-0.12235 -0.33033,-0.30036z" fill="#c6ddde"/><path d="M261.22419,166.97718c0.17464,0.3185 0.29442,0.71927 0.49946,0.96996c0.00051,0.29786 0.01011,0.56549 -0.04131,0.86935c-0.16809,-0.07391 -0.28139,-0.23012 -0.30335,-0.58972c-0.01905,-0.43585 -0.09913,-0.83547 -0.1548,-1.2496z" fill="#b9cfd0"/><path d="M254.96888,168.58714c-0.08249,-0.02546 -0.06138,-0.16227 -0.08594,-0.247c-0.05224,-0.19254 -0.09228,-0.39228 -0.18408,-0.48679c-0.13165,-0.19499 -0.15349,-0.45525 -0.16617,-0.7459c-0.00324,-0.12231 0.00567,-0.25184 0.00845,-0.42742c0.1927,0.15863 0.34566,0.31612 0.3556,0.78224c0.00361,0.32087 0.05908,0.6357 0.08708,0.94203c0.00926,0.06903 0.01856,0.13805 -0.01496,0.18283z" fill="#c0d8d8"/><path d="M256.06,172.68352c-0.08886,-0.17076 -0.138,-0.34027 -0.16275,-0.52429c-0.01235,-0.092 -0.02786,-0.20706 -0.01271,-0.29059c0.06965,-0.36445 0.09957,-0.73008 0.12951,-1.09576c0.08543,-0.05079 0.08559,0.04845 0.09489,0.1175c0.03092,0.23006 0.06496,0.48314 0.12029,0.69866c0.06461,0.28455 0.05583,0.5134 -0.04457,0.74709c-0.05175,0.10533 -0.07908,0.19614 -0.12463,0.34743z" fill="#c1d9d9"/><path d="M259.30525,171.9204c-0.03921,0.29658 -0.11213,0.53878 -0.17883,0.82691c-0.1528,-0.05814 -0.22341,-0.28944 -0.3245,-0.45292c0.04523,-0.34992 0.15163,-0.63684 0.23968,-0.96253c0.11635,0.17924 0.1839,0.38754 0.26366,0.58854z" fill="#c3dbdc"/><path d="M257.96279,163.60067c-0.11654,-0.2785 -0.21776,-0.54134 -0.33118,-0.79682c0.02096,-0.23613 0.04507,-0.44919 0.13635,-0.6526c0.13459,0.11872 0.22652,0.31245 0.33071,0.49892c-0.00863,0.32815 -0.04782,0.62472 -0.13584,0.95041z" fill="#c3dadb"/><path d="M258.36131,173.62495c0.09422,-0.27969 0.17932,-0.52906 0.26441,-0.77847c0.14369,0.08841 0.23564,0.28218 0.32758,0.47591c-0.05759,0.2579 -0.13357,0.47702 -0.23707,0.68762c-0.0428,-0.02424 -0.10089,-0.06423 -0.13148,-0.09567c-0.07957,-0.10172 -0.13164,-0.19495 -0.22344,-0.28946z" fill="#c4dbdc"/><path d="M255.41567,170.93014c0.05876,0.43715 0.10514,0.78226 0.15465,1.15029c-0.03938,0.19737 -0.09717,0.35596 -0.19771,0.49029c-0.08867,-0.07148 -0.08593,-0.24704 -0.12888,-0.37055c-0.04296,-0.12349 -0.07372,-0.25428 -0.08921,-0.36932c0.09112,-0.30274 0.16402,-0.54487 0.26116,-0.90079z" fill="#c2d9da"/><path d="M256.10734,162.64239c0.02409,-0.21307 0.06652,-0.38745 0.1274,-0.52305c0.09454,-0.08109 0.16194,0.02795 0.23221,0.06062c0.07028,0.03267 0.14661,0.01213 0.20487,0.15139c0.00652,0.24459 -0.05109,0.50247 -0.10248,0.80642c-0.07651,-0.07873 -0.153,-0.15745 -0.22638,-0.21318c-0.07956,-0.10173 -0.15916,-0.20344 -0.23566,-0.28218z" fill="#c5ddde"/><path d="M259.88106,172.86981c-0.0301,0.26641 -0.11846,0.39351 -0.17312,0.5751c-0.14971,-0.03518 -0.26299,-0.19139 -0.39156,-0.36331c0.06068,-0.23488 0.1214,-0.46978 0.16989,-0.69741c0.16809,0.07393 0.26625,0.31368 0.39479,0.48563z" fill="#c3dbdc"/><path d="M255.52599,165.67173c-0.05812,-0.03995 -0.08869,-0.07139 -0.11928,-0.10287c-0.06427,-0.08597 -0.13166,-0.19498 -0.21123,-0.29672c0.04216,-0.37292 0.04766,-0.72405 0.14789,-1.05701c0.09163,-0.00483 0.14371,0.0884 0.21416,0.22042c-0.00243,0.37414 -0.01089,0.80153 -0.03152,1.23622z" fill="#c7dfe0"/><path d="M257.5478,172.9661c-0.0973,0.25665 -0.13962,0.53026 -0.2584,0.72518c-0.1284,-0.07271 -0.17462,-0.31846 -0.27861,-0.40567c0.06966,-0.36445 0.16693,-0.62111 0.25806,-0.9238c0.14989,0.13445 0.18389,0.3875 0.27896,0.60424z" fill="#c7dee0"/><path d="M258.07357,176.87704c-0.06703,0.08958 -0.16174,0.07135 -0.23171,0.23728c0.06461,0.28455 0.1445,0.58484 0.17251,0.89118c-0.05192,0.00605 -0.11603,0.01933 -0.17102,0.00241c-0.08249,-0.02546 -0.14677,-0.11145 -0.16845,-0.2725c-0.04932,-0.26878 -0.09555,-0.51456 -0.14485,-0.78343c0.15867,-0.09442 0.23499,-0.11497 0.54352,-0.07493z" fill="#61acb1"/><path d="M259.7681,161.93019c-0.05452,0.28092 -0.103,0.50845 -0.16971,0.79666c-0.11342,-0.2555 -0.22376,-0.48797 -0.325,-0.75076c0.03626,-0.22034 0.07567,-0.4177 0.14254,-0.60658c0.14988,0.13444 0.24182,0.32817 0.35216,0.56067z" fill="#c2dada"/><path d="M256.18903,173.15338c0.05452,-0.28092 0.13359,-0.47702 0.21872,-0.72643c0.09213,0.29304 0.17805,0.54008 0.26398,0.78713c-0.02097,0.23611 -0.09715,0.35596 -0.17932,0.52906c-0.13148,-0.09567 -0.20214,-0.32699 -0.30335,-0.58972z" fill="#c1d9d9"/><path d="M258.23517,162.09689c-0.14076,-0.16473 -0.23873,-0.30518 -0.34891,-0.43844c0.00569,-0.25184 0.08168,-0.47098 0.15768,-0.69012c0.12529,0.04969 0.24148,0.12963 0.34565,0.31612c0.0005,0.29786 -0.10611,0.48552 -0.1544,0.81244z" fill="#c6dedf"/><path d="M260.74397,172.03338c-0.05759,0.25787 -0.13051,0.50003 -0.19118,0.73492c-0.11293,0.04236 -0.19853,-0.00609 -0.29343,-0.12358c0.00863,-0.32815 0.12125,-0.56899 0.17265,-0.87294c0.12223,0.02664 0.20487,0.1514 0.31196,0.2616z" fill="#c0d7d7"/><path d="M254.90895,165.59158c-0.0148,0.28209 0.0101,0.56545 -0.0688,0.86088c-0.09489,-0.1175 -0.18667,-0.21199 -0.27845,-0.30643c-0.03709,-0.27605 -0.007,-0.54242 0.0659,-0.78454c0.10691,0.01095 0.18338,0.08964 0.28136,0.23008z" fill="#c3dadb"/><path d="M257.5612,175.51724c-0.04883,0.02905 -0.09455,0.08113 -0.14338,0.11021c-0.0301,0.26642 0.05272,0.49038 0.07456,0.7507c-0.08234,0.07382 -0.14972,-0.03518 -0.23824,-0.00732c-0.08902,-0.27004 -0.08954,-0.56788 -0.21517,-0.81613c0.11895,-0.09559 0.20144,-0.07018 0.29618,-0.05201c0.06721,0.00967 0.14647,-0.08711 0.22603,0.01459z" fill="#5aa0a4"/><path d="M262.22526,168.34432c-0.0148,0.28207 0.0101,0.5655 -0.0597,0.83062c-0.09163,0.00483 -0.15283,-0.05818 -0.24461,-0.15259c-0.00961,-0.26762 0.00519,-0.5497 0.05057,-0.80034c0.09163,-0.00483 0.14972,0.03517 0.2537,0.12236z" fill="#bdd3d4"/><path d="M258.98524,174.14813c0.06689,-0.18888 0.12156,-0.37047 0.17622,-0.55206c0.1253,0.04969 0.22019,0.16716 0.31815,0.3076c-0.01189,0.2058 -0.09112,0.30274 -0.17655,0.35354c-0.10983,0.0654 -0.21966,0.13074 -0.31782,-0.10906z" fill="#bdd4d5"/><path d="M260.82328,162.81798c-0.02392,0.31236 -0.05092,0.60178 -0.07483,0.91412c-0.18699,-0.41047 -0.30675,-0.81131 -0.11524,-1.34763c0.08867,0.07148 0.12563,0.24827 0.19007,0.4335z" fill="#bbd2d3"/><path d="M257.77909,174.29437c-0.11,-0.03395 -0.17739,-0.14295 -0.24474,-0.25195c-0.02164,-0.16104 0.0332,-0.24338 0.06966,-0.36443c0.02733,-0.09078 0.05157,-0.20457 0.12173,-0.27115c0.11,0.03395 0.14093,0.26395 0.25404,0.3209c-0.04538,0.25064 -0.11534,0.4165 -0.2006,0.56662z" fill="#c3dadb"/><path d="M258.18209,166.89892c-0.03123,-0.42864 -0.06252,-0.85725 -0.04494,-1.31494c0.07631,-0.02054 0.10402,0.08721 0.11944,0.20224c0.0524,0.29182 0.09261,0.59083 0.12972,0.86692c0.02783,0.20705 -0.03921,0.29668 -0.20421,0.24574z" fill="#b1c6c7"/><path d="M261.44581,171.66545c-0.00035,-0.19854 0.06361,-0.31116 0.09697,-0.45523c0.05451,-0.28092 0.16126,-0.36928 0.3232,-0.34138c-0.02993,0.36565 -0.14857,0.65985 -0.24586,0.9165c-0.08853,0.02783 -0.13134,0.00361 -0.17429,-0.1199z" fill="#bbd2d3"/><path d="M259.7866,165.69577c-0.10759,-0.40808 -0.07472,-0.84997 -0.05717,-1.30769c0.11654,0.27851 0.1629,0.62363 0.21841,0.93841c0.04004,0.19979 0.00962,0.26763 -0.16125,0.36925z" fill="#bad1d2"/><path d="M261.91748,166.93738c0.11017,0.13323 0.21416,0.22044 0.32432,0.35362c0.00326,0.12229 -0.0117,0.30513 -0.01448,0.48069c-0.23516,0.01569 -0.23824,-0.00732 -0.26625,-0.31368c-0.02164,-0.16104 -0.03108,-0.32937 -0.04362,-0.52065z" fill="#b5cbcc"/><path d="M257.44789,160.65219c0.13132,-0.00359 0.22003,0.06782 0.30871,0.13931c-0.00878,0.22886 -0.09407,0.37894 -0.16092,0.56783c-0.1009,-0.06414 -0.18956,-0.13567 -0.29047,-0.19986c-0.01562,-0.21431 0.08801,-0.32569 0.1427,-0.5073z" fill="#c0d7d8"/><path d="M261.41726,169.19788c0.0794,0.00248 0.1437,0.0884 0.21109,0.19738c0.00358,0.32087 -0.04782,0.62477 -0.12984,0.89716c-0.08234,0.07382 -0.11603,0.01934 -0.15587,-0.08116c0.02079,-0.33537 0.04163,-0.67079 0.07467,-1.01342z" fill="#bdd4d4"/><path d="M259.86201,161.45195c-0.10107,-0.16349 -0.193,-0.35722 -0.29407,-0.52071c0.03337,-0.14408 0.0882,-0.22641 0.16142,-0.27c0.07939,0.00246 0.11928,0.10291 0.17135,0.19615c0.03678,0.07753 0.07356,0.15499 0.11034,0.23251c-0.01805,0.15986 -0.05451,0.28092 -0.14907,0.36202z" fill="#b6cccc"/><path d="M257.39585,162.42239c-0.11016,-0.13323 -0.20504,-0.25068 -0.32744,-0.37666c-0.00636,-0.14528 0.0117,-0.30515 0.11227,-0.43954c0.10091,0.06414 0.20488,0.15137 0.32106,0.23132c-0.02409,0.21307 -0.03903,0.39593 -0.10593,0.58482z" fill="#c1d9d9"/><path d="M260.446,161.87468c-0.02409,0.21307 -0.05433,0.3802 -0.12431,0.54603c-0.11017,-0.13323 -0.1655,-0.3488 -0.22685,-0.51104c-0.00035,-0.19854 0.06671,-0.28815 0.11844,-0.39347c0.0397,0.00123 0.06411,-0.01329 0.06721,0.00967c0.05514,0.11627 0.11032,0.2325 0.1655,0.3488z" fill="#b7cdce"/><path d="M261.35889,163.46829c-0.13165,-0.195 -0.1595,-0.40203 -0.21174,-0.59455c-0.06755,-0.20828 -0.00668,-0.34387 0.06327,-0.50973c0.11017,0.13323 0.16241,0.32574 0.23597,0.48076c0.00651,0.24459 -0.10625,0.38624 -0.08753,0.62355z" fill="#b6cccc"/><path d="M262.1175,169.7005c-0.03627,0.22036 -0.06653,0.38742 -0.09371,0.57752c-0.10676,0.08836 -0.17998,0.13192 -0.28087,0.06774c0.04539,-0.25064 0.07858,-0.494 0.11485,-0.71434c0.10055,-0.1344 0.16792,-0.02536 0.24425,-0.04597c0.00618,0.04601 0.02459,0.08478 0.01549,0.11504z" fill="#c2dada"/><path d="M256.8689,161.4439c-0.01498,0.18281 -0.0423,0.27361 -0.09714,0.35597c-0.07015,0.06658 -0.13131,0.00359 -0.20163,-0.02909c-0.05811,-0.03996 -0.14662,-0.01214 -0.18047,-0.16592c0.04248,-0.17432 0.10023,-0.33292 0.2039,-0.44432c0.10399,0.08719 0.18357,0.18894 0.27537,0.28341z" fill="#bbd2d3"/><path d="M256.66407,174.13787c0.06997,-0.16586 0.11862,-0.2942 0.17947,-0.4298c0.1071,0.11021 0.18063,0.26523 0.26642,0.41299c-0.03025,0.16706 -0.07892,0.29546 -0.16435,0.34621c-0.02752,-0.00846 -0.05499,-0.01699 -0.07341,-0.05572c-0.06117,-0.06296 -0.12548,-0.149 -0.20815,-0.27371z" fill="#bbd2d3"/><path d="M262.24387,166.71831c-0.18049,-0.16592 -0.18049,-0.16592 -0.29405,-0.52071c0.03628,-0.22037 0.13084,-0.30144 0.2314,-0.43579c0.07992,0.30032 0.05909,0.63568 0.06268,0.95655z" fill="#adc2c3"/><path d="M258.02989,174.49302c0.03025,-0.16706 0.09114,-0.3027 0.17347,-0.37649c0.1071,0.11021 0.19887,0.20459 0.29371,0.32213c-0.17655,0.35354 -0.18874,0.3608 -0.4672,0.05442z" fill="#b5cbcc"/><path d="M259.19854,161.02682c-0.03936,0.19738 -0.07275,0.34142 -0.14272,0.50728c-0.11308,-0.05692 -0.17754,-0.24222 -0.27552,-0.38271c0.01514,-0.08355 0.03335,-0.14403 0.05156,-0.2046c0.01822,-0.06055 0.05173,-0.10533 0.08217,-0.17315c0.11913,0.00366 0.19868,0.10539 0.28447,0.25313z" fill="#bbd1d2"/><path d="M255.78643,173.49231c-0.14369,-0.08842 -0.19301,-0.35722 -0.27878,-0.50493c0.02718,-0.19006 0.10951,-0.26397 0.1704,-0.39956c0.11945,0.2022 0.17478,0.41778 0.17218,0.69261c0.00927,0.06903 -0.03335,0.14408 -0.06378,0.21187z" fill="#b6cccd"/><path d="M255.10169,163.98616c-0.04523,0.34992 -0.10577,0.68407 -0.15408,1.01095c-0.08853,0.02782 -0.14661,-0.01212 -0.21708,-0.14412c0.08801,-0.32569 0.17605,-0.65135 0.30996,-0.92982c0.03061,0.0315 0.04589,0.04724 0.06118,0.06295z" fill="#acc1c2"/><path d="M258.9672,165.1895c0.07682,0.27729 0.14143,0.56186 0.15721,0.87543c0.00324,0.12231 -0.02098,0.2361 -0.082,0.27241c-0.02439,0.0145 -0.07941,-0.00248 -0.08251,-0.02546c-0.05859,-0.33782 -0.01955,-0.73374 0.00728,-1.12239z" fill="#a7bbbb"/><path d="M258.68751,160.46123c-0.00586,0.15258 -0.05759,0.2579 -0.12154,0.37046c-0.10399,-0.08719 -0.20798,-0.17441 -0.31196,-0.26162c0.02409,-0.21307 0.09422,-0.27965 0.17964,-0.33048c0.08249,0.02546 0.17429,0.11988 0.25387,0.22166z" fill="#b7cdcd"/><path d="M259.93445,173.7573c0.0301,-0.26642 0.10008,-0.43221 0.18223,-0.60537c0.10691,0.01095 0.19252,0.05939 0.26916,0.23739c-0.1279,0.22516 -0.27746,0.2893 -0.4514,0.36799z" fill="#b7cece"/><path d="M254.82465,171.82842c-0.12255,-0.22523 -0.11392,-0.55334 -0.20589,-0.74707c0.03026,-0.16705 0.08217,-0.1731 0.11588,-0.11863c0.08576,0.14772 0.16243,0.32576 0.19333,0.55581c-0.00292,0.07628 0.00015,0.09928 -0.10333,0.30995z" fill="#b4cacb"/><path d="M255.61151,163.85677c-0.08249,-0.02544 -0.1284,-0.07267 -0.16827,-0.17314c0.05451,-0.28092 0.10593,-0.5848 0.25205,-0.87052c0.06477,0.38382 -0.01415,0.67924 -0.08378,1.04368z" fill="#b2c8c9"/><path d="M257.31206,174.44803c0.1009,0.06414 0.17429,0.1199 0.21725,0.24341c0.00016,0.09928 -0.03335,0.14412 -0.06689,0.1889c-0.13408,0.17915 -0.21676,0.05441 -0.30869,-0.13932c0.05483,-0.08235 0.10658,-0.18768 0.15832,-0.293z" fill="#b5cbcb"/><path d="M260.5734,164.97918c-0.0524,-0.29182 -0.08643,-0.54484 -0.08692,-0.84269c0.05793,-0.05929 0.09162,-0.00483 0.10089,0.06417c0.03385,0.15381 0.07992,0.30033 0.11377,0.45409c0.02472,0.18406 -0.0179,0.25907 -0.12774,0.3244z" fill="#91a3a3"/><path d="M255.87378,167.27856c0.12255,0.22523 0.15054,0.53158 0.18764,0.80765c0.00618,0.04601 -0.01204,0.10658 -0.03336,0.14406c-0.0244,0.0145 -0.06721,-0.00967 -0.07031,-0.03271c-0.07992,-0.30032 -0.09571,-0.61391 -0.084,-0.91902z" fill="#99abac"/><path d="M255.39314,168.4093c-0.07306,0.14286 -0.13409,0.17914 -0.17396,0.07864c-0.04605,-0.14655 -0.05256,-0.39109 -0.04396,-0.71921c0.11638,0.17923 0.15038,0.43225 0.21791,0.64054z" fill="#93a5a6"/><path d="M261.08118,172.77685c0.06364,-0.31114 0.11194,-0.63806 0.35637,-0.58475c-0.06056,0.33414 -0.21919,0.42856 -0.35637,0.58475z" fill="#9aadad"/><path d="M260.34742,168.69144c-0.06137,-0.16228 -0.1258,-0.34751 -0.18406,-0.48682c0.02116,-0.13682 0.05467,-0.18163 0.13101,-0.20215c0.08888,0.17077 0.07098,0.42987 0.11102,0.62964c-0.0244,0.0145 -0.03662,0.02177 -0.05794,0.05932z" fill="#c5dddd"/><path d="M257.43615,166.44829c0.15004,0.23372 0.19024,0.53285 0.18164,0.86093c0.00309,0.02303 -0.01822,0.06057 -0.04264,0.07509c-0.03353,0.04479 -0.06721,-0.00967 -0.07339,-0.05571c-0.04624,-0.24577 -0.04672,-0.54368 -0.06562,-0.88031z" fill="#aec2c3"/><path d="M256.03102,173.64493c0.11017,0.13323 0.17771,0.34147 0.24216,0.52678c-0.02115,0.13682 -0.07308,0.14286 -0.10985,0.06538c-0.07048,-0.13201 -0.13783,-0.241 -0.19917,-0.40327c-0.03061,-0.0315 -0.00326,-0.12227 0.06688,-0.18886z" fill="#9caeaf"/><path d="M257.97575,160.36296c-0.11913,-0.00367 -0.2047,-0.0521 -0.3087,-0.13932c0.14629,-0.18643 0.28981,-0.1973 0.43627,-0.28443c-0.00292,0.07632 0.00324,0.12231 -0.00587,0.15254c-0.03955,0.09805 -0.08216,0.1731 -0.12169,0.27118z" fill="#a9bebf"/><path d="M257.14625,170.27313c0.07926,-0.09684 0.13114,-0.10288 0.18927,-0.06288c0.04311,0.22281 0.03433,0.45161 -0.05679,0.75434c-0.06153,-0.26156 -0.08934,-0.46861 -0.13249,-0.69141z" fill="#b9cfd0"/><path d="M260.90116,167.41782c0.02116,-0.13681 0.0669,-0.18884 0.1126,-0.24092c0.06721,0.00972 0.08267,0.12469 0.12027,0.69866c-0.16502,-0.05089 -0.16243,-0.32574 -0.23288,-0.45776z" fill="#869797"/><path d="M256.71004,166.93005c0.01286,0.38988 0.16601,0.64664 0.03225,1.02434c-0.09522,-0.31606 -0.12013,-0.59934 -0.03225,-1.02434z" fill="#93a4a5"/><path d="M261.05651,163.47424c0.04638,0.34506 0.0773,0.57517 0.10823,0.80521c0.00618,0.04601 -0.01204,0.10658 -0.04865,0.1283c-0.01222,0.00728 -0.03971,-0.00123 -0.05501,-0.01696c-0.06154,-0.26151 -0.09556,-0.51467 -0.00459,-0.91657z" fill="#94a5a6"/><path d="M261.44066,166.72415c0.06088,-0.13557 0.09436,-0.18038 0.16777,-0.12468c0.03694,0.17677 0.07699,0.37659 0.0713,0.62843c-0.14369,-0.08848 -0.17461,-0.31847 -0.23906,-0.5037z" fill="#abbfc0"/><path d="M261.05109,162.06125c-0.05483,0.08233 -0.07615,0.11984 -0.10058,0.13438c-0.17756,-0.24219 -0.17753,-0.24218 -0.18421,-0.58604c0.1406,0.06541 0.17154,0.29543 0.28477,0.45168z" fill="#acc0c1"/><path d="M261.09142,171.57811c0.0485,-0.22764 0.08167,-0.47098 0.14237,-0.70587c0.02733,-0.09078 0.07616,-0.11982 0.13131,-0.00359c-0.05452,0.28092 -0.11211,0.53878 -0.27369,0.70944z" fill="#9fb2b2"/><path d="M259.3414,160.61876c-0.07341,-0.05575 -0.11928,-0.10299 -0.15915,-0.20344c0.01203,-0.10658 0.04246,-0.17436 0.1004,-0.23368c0.07631,-0.02054 0.14059,0.06544 0.20488,0.15143c-0.00586,0.15258 -0.07599,0.21913 -0.14612,0.28566z" fill="#aec2c3"/><path d="M258.89547,169.75413c-0.11308,-0.05691 -0.13475,-0.218 -0.16861,-0.37176c-0.00926,-0.06903 0.02115,-0.13678 0.05777,-0.15857c0.0244,-0.0145 0.06723,0.00968 0.07339,0.05571c0.05516,0.11624 0.04932,0.26885 0.03743,0.47464z" fill="#91a2a3"/><path d="M257.10873,160.58066c-0.08169,0.471 -0.09077,0.50129 -0.29274,0.2736c0.09146,-0.10409 0.16142,-0.26997 0.29274,-0.2736z" fill="#869696"/><path d="M254.70657,168.79289c-0.13458,-0.11872 -0.11652,-0.27849 -0.12597,-0.44683c0.1253,0.04971 0.1253,0.04971 0.12597,0.44683z" fill="#555f5f"/><path d="M259.55642,168.69003c0.01547,0.11504 0.0371,0.27604 0.02215,0.45891c-0.13768,-0.14171 -0.15003,-0.23372 -0.12289,-0.42378c0.00602,-0.05328 0.04265,-0.07509 0.10073,-0.03507z" fill="#93a5a6"/><path d="M261.59382,163.35335c0.15916,0.20345 0.15316,0.25672 -0.03287,0.44192c-0.04605,-0.14655 -0.01273,-0.2906 0.03287,-0.44192z" fill="#8b9b9c"/><path d="M254.34206,168.14021c0.06754,0.20828 0.08006,0.39955 0.09259,0.59092c-0.06394,0.1126 -0.10675,0.08834 -0.11912,-0.0037c-0.02474,-0.18405 -0.03727,-0.37536 0.0265,-0.5872z" fill="#9aacad"/><path d="M260.44163,161.05732c0.08867,0.07148 0.17119,0.09693 0.18374,0.28823c0.00309,0.02303 -0.00601,0.0533 -0.01822,0.06055c-0.11604,0.01933 -0.15901,-0.1042 -0.16551,-0.34877z" fill="#5f6a6b"/><path d="M258.053,170.05666c-0.04898,-0.07024 -0.06137,-0.1623 -0.06151,-0.26158c0.00602,-0.05328 0.02425,-0.11381 0.05175,-0.10531c0.02752,0.00846 0.05811,0.03996 0.06427,0.086c0.01235,0.092 0.01253,0.19128 -0.05451,0.28088z" fill="#636e6f"/><path d="M258.79074,160.05198c0.07616,-0.11983 0.14026,-0.13318 0.21383,0.02182c-0.08527,0.1501 -0.14336,0.11019 -0.21383,-0.02182z" fill="#4a5354"/></g></g></g></svg>