<svg version="1.1" xmlns="http://www.w3.org/2000/svg" xmlns:xlink="http://www.w3.org/1999/xlink" width="54.00477" height="55.52273" viewBox="0,0,54.00477,55.52273"><g transform="translate(-212.99763,-152.23862)"><g data-paper-data="{&quot;isPaintingLayer&quot;:true}" fill="#e4d6ff" fill-rule="nonzero" stroke="none" stroke-width="0.5" stroke-linecap="butt" stroke-linejoin="miter" stroke-miterlimit="10" stroke-dasharray="" stroke-dashoffset="0" style="mix-blend-mode: normal"><path d="M257.51905,174.83257l0.12358,-0.01766l0.10204,-0.02551h0.07654l0.12077,-0.01725l0.04277,-0.00951l0.0042,0.0028l0.58885,-0.08413l0.03595,-0.03216l0.12298,0.00946l0.11847,-0.01692l0.9816,0.10154l0.98394,0.07569l0.11353,0.03784l0.12269,0.01269l0.02962,0.03809l0.30681,0.10227l0.2608,0.16597l0.30178,0.06706l0.38176,0.19088l0.64331,0.55141l0.32204,0.06442l0.29628,0.46558l0.41899,0.35913l0.0182,0.3279l0.31001,0.48718l0.01929,0.01104l0.00794,0.03178l0.11763,0.18486l0.19089,0.57264l0.05294,0.68836l0.04313,0.17253l0.47657,1.42969l0.00991,0.12877l0.06282,0.11284l1.33618,4.96294l0.0102,0.5667l0.13746,0.54986v0.04393l0.06265,0.25059v0.52871l0.12823,0.51293v1.14529l-0.12823,0.51293v0.52872l-0.38176,1.52706l-0.15346,0.28776l-0.04867,0.32246l-0.95442,2.29059l-0.25006,0.33602l-0.14087,0.39446l-0.38175,0.57263l-0.43682,0.3971l-0.34166,0.48144l-1.33618,1.14529l-0.67021,0.3351l-0.61683,0.42539l-1.52706,0.57264l-0.88009,0.10059l-0.27119,0.19157l-0.52082,-0.10106l-0.52711,0.06024l-0.25546,-0.21208l-0.86958,-0.16871l-1.0216,-0.47675l-0.80382,0.04465l-0.66334,0.59351l-1.41897,-0.10916l-0.05574,0.1561l-0.38176,0.57264l-0.0526,0.04782l-0.02607,0.06615l-0.95442,1.33618l-0.27326,0.23278l-0.18468,0.3078l-0.57264,0.57264l-0.26508,0.15905l-0.19494,0.2399l-0.76352,0.57264l-0.11248,0.04736l-0.08208,0.0903l-0.2188,0.14587l-1.03545,1.03545l-0.36681,0.22008l-0.28776,0.31654l-0.47346,0.31564l-0.66815,0.50112l-0.63629,0.26792l-0.58246,0.37066l-1.14529,0.38176l-2.207,0.16976l-0.12639,-0.11307l-0.16362,0.04462l-1.89806,-1.13885l-1.14529,-1.14529l-0.40416,-0.67359l-0.48361,-0.61902l-0.76353,-1.71795l-0.03052,-0.17442l-0.4232,0.36273l-0.51289,0.25643l-0.02393,0.04188l-0.11967,0.02993l-0.10704,0.05351l-0.96334,0.21407l-0.95738,0.23934h-0.11968l-0.12041,0.02676l-0.04013,-0.02676h-0.86507l-0.16763,-0.04192l-0.13015,0.06507l-0.91108,-0.32537l-0.93854,-0.23465l-0.07218,-0.12634l-0.16274,-0.05812l-0.33949,-0.22631h-0.04824l-0.08534,-0.08906l-0.09957,-0.06639l-0.66381,-0.73021l-0.68279,-0.71248l-0.05938,-0.1039l-0.08298,-0.09127l0.00332,-0.04813l-0.62448,-1.09287l-0.03304,-0.11748l-0.07941,-0.09264l-0.38176,-0.76352l-0.10261,-0.46172l-0.22258,-0.41734l-0.12292,-0.49169l-0.03571,-0.03246l-0.00325,-0.12331l-0.02904,-0.1161v-0.8951c0.7544,0.87105 1.57266,1.66322 2.44527,2.3559c4.81223,3.81993 15.91366,0.12075 20.51124,-2.10088c7.72861,-3.73458 10.8796,-13.30295 8.99345,-21.43015z"/><path d="M221.38163,170.20215l-0.02676,-0.04013l0.02676,-0.12041v-0.11968l0.23934,-0.95738l0.21407,-0.96334l0.05352,-0.10704l0.02992,-0.11967l0.04188,-0.02393l0.25644,-0.51289l0.22821,-0.26625l0.01188,-0.21394l0.64639,-0.55406l0.55406,-0.64639l0.21394,-0.01188l0.26624,-0.22821l0.51289,-0.25643l0.02393,-0.04188l0.11968,-0.02992l0.10704,-0.05352l0.68446,-0.15211l0.02362,-0.03037l0.21159,-0.02189l0.04367,-0.00971l0.95738,-0.23934h0.11968l0.12041,-0.02676l0.04013,0.02676h0.10153l0.2999,0.07497l0.30749,-0.03181l1.03401,0.14771h0.50839l0.26941,-2.15521l0.12093,-0.3124l0.01116,-0.33479l0.38176,-1.33618l0.06049,-0.10486l0.0136,-0.05438l0.21406,-0.96334l0.05352,-0.10704l0.02992,-0.11968l0.04188,-0.02393l0.7492,-1.49839l0.1915,-0.47876l-0.06418,-0.23531l0.28392,-0.4732l0.13385,-0.53538l0.28514,-0.16294l0.43592,-0.72655l0.08106,-0.08106l0.14587,-0.2188l0.31654,-0.28775l0.03436,-0.05726l0.00307,-0.05529l0.06199,-0.05311l0.12069,-0.20114l0.38176,-0.38176l0.59201,-0.3552l0.5242,-0.44931l0.13112,-0.06555l0.02393,-0.04188l0.11968,-0.02992l0.10704,-0.05352l0.25575,-0.05682l0.14436,-0.08661l0.11019,0.03005l0.45306,-0.10066l0.95738,-0.23934h0.10153l0.04013,-0.02676l0.04921,0.01095l0.04921,-0.01095l0.04013,0.02676h0.10153l0.95738,0.23934l0.96334,0.21406l0.10704,0.05352l0.11968,0.02992l0.02393,0.04188l0.13112,0.06555l0.1312,0.11245h0.14552l0.66938,0.69848l0.73454,0.62961l0.00808,0.14528l0.11956,0.12476l0.76353,1.33619l0.2123,0.75482l0.30363,0.72295l0.38176,2.48146l-0.03063,0.33079l0.08057,0.32229v1.06878l0.04233,0.33867c-4.57181,-0.28483 -9.06215,1.69653 -13.40169,4.30026c-0.99881,0.5759 -1.88303,1.32827 -2.61007,2.21453c-7.75418,4.30788 -8.68466,13.44032 -5.74431,20.99629h-2.15272l-0.04013,0.02676l-0.12041,-0.02676h-0.11968l-0.95738,-0.23934l-0.76904,-0.1709l-0.0135,-0.00102l-0.01766,-0.00588l-0.16313,-0.03626l-0.10704,-0.05351l-0.11968,-0.02992l-0.00725,-0.01268l-0.15789,-0.05264l-0.71484,-0.45489l-0.3279,-0.0182l-0.35913,-0.41899l-0.46558,-0.29628l-0.06441,-0.32205l-0.55141,-0.64332l-0.07129,-0.14259l-0.23346,-0.35017l-0.17873,-0.50043l-0.00531,-0.00246l-0.01708,-0.05015l-0.29981,-0.47114l-0.19088,-0.57264l-0.03334,-0.43359l-0.01933,-0.05411l0.01311,-0.0262l-0.16598,-0.48757l-0.19089,-2.29058l0.06082,-0.37253l-0.05802,-0.37299l0.19088,-2.0997l0.16446,-0.47146l0.03829,-0.49786l0.19088,-0.57263l0.16597,-0.26081l0.06705,-0.30178l0.19088,-0.38176l0.68729,-0.80185l0.07717,-0.12126l0.03231,-0.00647l0.30309,-0.35361l0.08425,-0.21262l0.15059,-0.06135l0.10583,-0.12346l0.22835,-0.01267l1.56516,-0.63768l1.33618,-0.19089l0.54184,0.05606l0.53983,-0.07294l1.71795,0.19089l0.27623,0.1026l-0.01078,-0.02152l-0.32013,-1.44055l-0.16005,-0.24008l0.05336,-0.24008l-0.05336,-0.24008l0.16005,-0.24007l0.05759,-0.25912z"/><path d="M246.84957,162.22767l0.20578,-0.08108l0.1597,-0.15303l1.33618,-0.76353l0.24029,-0.06759l0.19874,-0.15104l1.22016,-0.52292l0.01823,-0.00912l0.02393,-0.04188l0.11968,-0.02992l0.10704,-0.05352l0.96334,-0.21407l0.3877,-0.09693l0.10259,-0.09179l0.20232,0.01556l0.26478,-0.06619h0.11967l0.12042,-0.02676l0.04013,0.02676h0.10153l0.66978,0.16745l0.68837,0.05294l0.57264,0.19089l0.14725,0.09371l0.01519,-0.00414l0.14436,0.08661l0.25574,0.05682l0.38175,0.19089l0.5242,0.44931l0.59202,0.3552l0.38175,0.38175l0.12069,0.20114l0.03559,0.03051l0.16052,0.1223l0.76352,0.95443l0.26356,0.57506l0.37039,0.51284l0.38176,0.95443l0.1099,0.80595l0.19729,0.78911v0.95442l-0.12824,0.51293v0.52871l-0.19088,0.76353l-0.0115,0.02154l0.02063,0.07566l-0.54881,0.91469l-0.50198,0.94121l-0.07549,0.02123l-0.01256,0.02092l-0.76353,0.76352l-0.20737,0.12443l-0.14657,0.19237l-0.11999,0.096c-1.16082,-3.29969 -3.22398,-6.23234 -6.22391,-8.25277c-1.40781,-0.94815 -2.81146,-1.60787 -4.20904,-2.02514z"/></g></g></svg>