<svg version="1.1" xmlns="http://www.w3.org/2000/svg" xmlns:xlink="http://www.w3.org/1999/xlink" width="62.19946" height="118.13337" viewBox="0,0,62.19946,118.13337"><defs><linearGradient x1="151.31683" y1="196.22426" x2="151.31683" y2="199.38829" gradientUnits="userSpaceOnUse" id="color-1"><stop offset="0" stop-color="#676370"/><stop offset="1" stop-color="#000000"/></linearGradient></defs><g transform="translate(-128.10774,-136.63124)"><g data-paper-data="{&quot;isPaintingLayer&quot;:true}" stroke-miterlimit="10" stroke-dasharray="" stroke-dashoffset="0" style="mix-blend-mode: normal"><g fill="none" fill-rule="nonzero" stroke="none" stroke-width="1" stroke-linecap="butt" stroke-linejoin="miter" font-family="sans-serif" font-weight="normal" font-size="12" text-anchor="start"><g><g data-paper-data="{&quot;index&quot;:null}"/></g><g data-paper-data="{&quot;index&quot;:null}"/><g data-paper-data="{&quot;index&quot;:null}"/></g><g fill="none" fill-rule="nonzero" stroke="none" stroke-width="1" stroke-linecap="butt" stroke-linejoin="miter" font-family="sans-serif" font-weight="normal" font-size="12" text-anchor="start"><g><g/><g><g/></g><g/></g><g/></g><path d="" fill="#2b1900" fill-rule="nonzero" stroke="#150c00" stroke-width="3" stroke-linecap="butt" stroke-linejoin="miter"/><path d="M160.54513,199.78317c0,2.71973 -2.54812,4.92451 -5.69139,4.92451c-1.67453,0 -4.66787,1.85788 -6.50868,0.5225c-1.61456,-1.17127 -2.21064,-5.49888 -2.03521,-6.23108c0.54725,-2.28395 6.10807,-3.29784 7.97231,-3.29784c3.14327,0 6.26296,1.36219 6.26296,4.08192z" fill="#676370" fill-rule="nonzero" stroke="#36343b" stroke-width="1" stroke-linecap="butt" stroke-linejoin="miter"/><path d="M163.95649,213.01446l0.81696,-17.4333" fill="none" fill-rule="nonzero" stroke="#000000" stroke-width="6" stroke-linecap="round" stroke-linejoin="miter"/><path d="M147.89109,216.49252c0,0 4.43876,-8.15515 5.00987,-9.12606c1.03411,-1.75802 11.9946,-10.90329 11.9946,-10.90329c0,0 4.763,7.69419 6.40606,9.92744c1.55074,2.10776 5.58668,3.1174 5.58668,3.1174" fill="none" fill-rule="nonzero" stroke="#000000" stroke-width="6" stroke-linecap="round" stroke-linejoin="miter"/><g><g><g stroke-width="1.2"><path d="M171.51882,211.588l2.42079,28.55505c0,0 5.84928,0.45327 5.71017,8.25543c-0.00793,0.44481 -0.09091,2.62869 -2.50733,3.26783c-2.31444,0.61216 -6.92813,-0.30234 -8.61391,-0.6498c-0.78297,-0.16139 -1.97566,-0.86537 -2.7379,-2.07071c-0.76743,-1.21362 -0.68454,-2.97858 -0.68402,-3.97146c0.00021,-0.4044 -1.72217,-32.20185 -1.72217,-32.20185" fill="#220606" fill-rule="evenodd" stroke="#340000" stroke-linecap="round" stroke-linejoin="round"/><path d="M163.23993,219.21197c0.14256,-7.99595 4.57034,-8.13433 6.8773,-8.06193c1.00316,0.03148 0.86758,-2.10556 1.75534,4.14838c0.19551,1.37736 0.57973,7.03192 1.40134,11.84485c0.56261,3.29571 1.61791,6.20581 1.81507,7.04187c0.46583,1.97541 0.2742,3.7762 0.2742,3.7762l-0.84462,-1.30875c0,0 0.55656,0.91207 0.77945,1.45628c0.69437,1.69533 1.22551,2.97489 1.22551,2.97489c0,0 -5.89944,-0.50544 -8.19716,1.98852c-2.29772,2.49397 -1.15915,7.18811 -1.15915,7.18811c0,0 -4.37089,-0.89108 -4.72116,-4.09024c-0.08636,-0.78868 0.59156,-3.13566 0.59156,-3.13566c0,0 -0.49978,0.13275 -0.51597,-0.41333c-0.00826,-0.27837 0.66142,-4.40799 0.81021,-9.05356c0.19587,-6.11556 -0.11247,-13.20354 -0.09193,-14.35563z" fill="#676370" fill-rule="nonzero" stroke="#36343b" stroke-linecap="butt" stroke-linejoin="miter"/></g><path d="M155.74041,213.53548c-0.00816,-0.23471 0.99277,0.45729 3.26082,0.53726c2.99214,0.10552 7.57451,-0.36654 8.86304,-0.60807c3.34138,-0.62632 3.90682,-2.29339 3.92846,-1.6712c0.08005,2.30246 -1.80994,6.5674 -5.63246,6.80134c-1.67981,0.1028 -5.11564,0.87382 -7.06129,0.0632c-2.48177,-1.03399 -3.31369,-3.83193 -3.35857,-5.12255z" fill="#004fd9" fill-rule="nonzero" stroke="#001026" stroke-width="1.2" stroke-linecap="butt" stroke-linejoin="miter"/><g fill-rule="nonzero" stroke-linecap="butt" stroke-linejoin="miter"><g fill="none" stroke="none" stroke-width="1" font-family="sans-serif" font-weight="normal" font-size="12" text-anchor="start"/><path d="M155.33721,212.03801c0,0 7.17986,1.44942 10.47922,1.42921c3.29935,-0.0202 6.01758,-1.53027 6.01758,-1.53027c0,0 0.02597,2.25376 -1.44543,4.44722c-1.13895,1.69787 -3.32788,3.45675 -6.15713,3.49406c-2.57752,0.03399 -5.45312,-0.68439 -6.87653,-2.15853c-2.15747,-2.23436 -2.0177,-5.68171 -2.0177,-5.68171z" fill="#676370" stroke="#36343b" stroke-width="1.2"/></g><g stroke-width="1.2"><path d="M163.26894,217.75037c0,0 -2.80232,33.21809 -3.31369,33.32774c-1.4675,0.31464 -9.50947,-2.5028 -9.50947,-2.5028l5.16936,-33.39773" data-paper-data="{&quot;index&quot;:null}" fill="#ffab19" fill-rule="evenodd" stroke="#001026" stroke-linecap="round" stroke-linejoin="round"/><path d="M164.50744,217.21481c0,0 -0.65463,7.02439 -0.84799,10.74887c-0.18545,3.57234 -0.28942,11.1607 -0.28942,11.1607c0,0 0.78612,5.5139 0.01755,6.87362c-0.35597,0.62978 -0.63647,-3.11304 -0.63647,-3.11304c0,0 0.31313,4.21947 0.34397,4.59138c0.21512,2.59489 -0.76664,6.00248 -3.33931,6.32622c-2.82463,0.35543 -7.50744,0.75689 -9.92147,-1.29608c-1.02713,-0.87351 -2.41843,-3.44482 -2.04397,-6.18394c0.42229,-3.08902 2.69008,-6.32514 2.69008,-6.32514l-2.08382,3.52752c0,0 -0.02172,-1.76135 0.31734,-3.05339c0.38077,-1.45096 1.85673,-5.23104 1.85673,-5.23104l4.47428,-21.27361" data-paper-data="{&quot;index&quot;:null}" fill="#676370" fill-rule="evenodd" stroke="#36343b" stroke-linecap="round" stroke-linejoin="round"/><path d="M161.89097,249.00708c-0.0708,1.86518 -0.64838,4.03224 -1.90201,5.15753c-1.25828,1.12945 -8.82061,0.68186 -9.98969,-0.69849c-1.11025,-1.31088 -1.56251,-3.73375 -1.4934,-5.55414c0.14187,-3.73726 3.25323,-6.52179 6.94944,-6.21939c3.69618,0.3024 6.57754,3.57721 6.43566,7.3145z" fill="#220606" fill-rule="nonzero" stroke="#340000" stroke-linecap="butt" stroke-linejoin="miter"/></g></g><g fill="none" fill-rule="nonzero" stroke="none" stroke-width="1" stroke-linecap="butt" stroke-linejoin="miter" font-family="sans-serif" font-weight="normal" font-size="12" text-anchor="start"/></g><g fill-rule="nonzero" stroke-linecap="butt" stroke-linejoin="miter"><g data-paper-data="{&quot;index&quot;:null}" stroke="none" stroke-width="1"><path d="M181.0899,196.24711c-0.16105,-0.09287 -0.18435,-0.25281 -0.18654,-0.44692c0.01504,-0.30662 0.07632,-0.60327 0.10685,-0.90655c-0.03766,-0.06622 -0.07532,-0.13246 -0.11583,-0.17992c-0.82423,-1.0687 -1.16503,-2.38167 -1.33152,-3.79259c-0.03409,-0.29784 -0.08361,-0.59907 -0.0377,-0.899c0.00863,-0.05624 0.00467,-0.13456 -0.02047,-0.17872c-0.1381,-0.24283 -0.10082,-0.48656 -0.07609,-0.75236c0.01898,-0.22829 0.06882,-0.44995 0.10325,-0.67491c0.02008,-0.13122 0.07099,-0.25581 0.17787,-0.32961c0.10687,-0.07376 0.17608,-0.21377 0.2424,-0.33501c0.32094,-0.74413 0.74121,-1.40875 1.2454,-1.99714c0.28869,-0.32503 0.61215,-0.56512 0.95103,-0.80183c0.9984,-0.69481 2.07824,-0.98472 3.20759,-0.97347c0.50784,0.01276 1.01675,0.12255 1.51418,0.30732c0.37692,0.13943 0.70295,0.40346 1.01069,0.68286c0.97916,0.88911 1.60794,2.08989 1.96521,3.50327c0.07065,0.26702 0.08935,0.56151 0.10801,0.85604c0.0176,0.19745 0.05348,0.3795 0.19047,0.52528c0.12443,0.1237 0.16033,0.30572 0.1625,0.49983c-0.01504,0.30662 -0.06094,0.60657 -0.10685,0.90654c-0.01434,0.09376 -0.05665,0.16211 -0.09899,0.23043c-0.17893,0.23251 -0.26823,0.50375 -0.32952,0.80041c-0.11292,0.63411 -0.37434,1.19741 -0.62035,1.76405c-0.09612,0.21167 -0.20761,0.42 -0.3471,0.60294c-0.4425,0.60171 -0.89472,1.16262 -1.4685,1.58109c-0.04302,0.2812 -0.10433,0.57784 -0.15019,0.87781c-0.01721,0.11251 -0.03729,0.24372 -0.14129,0.29873c-0.08857,0.05834 -0.09038,0.17418 -0.10757,0.28664c-0.13012,0.74658 -0.24485,1.49647 -0.37498,2.24304c-0.27068,1.66521 -0.54417,3.34917 -0.84569,5.00773c-0.29578,1.62106 -0.54525,3.25211 -0.81019,4.87982c-0.04014,0.26248 -0.10829,0.49952 -0.14841,0.76198c-0.19501,1.27483 -0.39004,2.54968 -0.60046,3.82119c-0.03441,0.22495 -0.038,0.45659 -0.16208,0.64283c-0.04232,0.06837 -0.04124,0.16538 -0.05559,0.25913c-0.14337,0.9374 -0.30506,1.8902 -0.44846,2.82759c-0.00574,0.03749 -0.01436,0.09373 -0.02008,0.13122c-0.03045,0.3033 -0.16136,0.42999 -0.39734,0.51464c-0.79077,0.27482 -1.56362,0.22428 -2.3186,-0.15161c-0.19187,-0.09951 -0.378,-0.23649 -0.543,-0.40764c-0.12444,-0.1237 -0.1632,-0.28697 -0.14996,-0.47775c0.03979,-0.57242 0.06413,-1.14814 0.10677,-1.73932c0.03225,-0.41913 0.09821,-0.85032 0.08419,-1.2794c-0.03197,-0.93647 0.12396,-1.8518 0.13822,-2.77828c0.01572,-0.51948 -0.00224,-1.02692 0.02893,-1.5431c0.0369,-0.55365 0.0401,-1.09524 0.05869,-1.63345c0.03832,-0.97943 0.11034,-1.97094 0.13322,-2.95368c0.0071,-1.29599 0.07585,-2.57875 0.14463,-3.86144c0.0197,-0.44121 0.03936,-0.88232 0.05907,-1.32353c0.04153,-0.68825 0.08598,-1.39517 0.12754,-2.08338c0.0265,-0.38162 0.01933,-0.75114 0.04581,-1.13273c0.01396,-0.40373 0.06844,-0.75987 0.1007,-1.17902zM181.51557,196.06782c0.16785,0.15242 0.34144,0.26735 0.53903,0.32937c0.37516,0.25523 0.7858,0.38257 1.19645,0.50988c0.51574,0.16937 1.05835,0.26707 1.58556,0.36143c0.60431,0.11101 1.19103,0.02457 1.79608,-0.07728c0.06743,-0.02419 0.13484,-0.04837 0.23596,-0.08466c0.02296,-0.14997 0.04586,-0.29996 0.06881,-0.44992c0.00574,-0.03749 -0.00395,-0.07832 -0.01076,-0.13787c-0.10795,-0.02331 -0.21876,-0.02784 -0.33246,-0.01365c-0.19367,0.01633 -0.36616,-0.00156 -0.55981,0.01475c-0.47985,0.01266 -0.94935,-0.14669 -1.42059,-0.19026c-0.24962,-0.03446 -0.50495,-0.03151 -0.74882,-0.10348c-0.53117,-0.17269 -1.07665,-0.25165 -1.5963,-0.49934c-0.13307,-0.06745 -0.28154,-0.13818 -0.41461,-0.20566c-0.04447,-0.12582 -0.1736,-0.1149 -0.24498,-0.16906c-0.08391,-0.07621 -0.16787,-0.15242 -0.34035,-0.17025c0.07065,0.26702 -0.01288,0.50076 0.01437,0.73902c0.07424,0.03541 0.11872,0.16116 0.23242,0.14697zM182.03491,196.83833c-0.32889,-0.24528 -0.41854,-0.28396 -0.62477,-0.28974c-0.01898,0.22829 -0.0351,0.43787 -0.05411,0.66616c-0.02008,0.13122 0.02724,0.23829 0.1112,0.31451c0.05597,0.05083 0.13306,0.06743 0.18901,0.11825c0.21125,0.18118 0.46483,0.29395 0.71443,0.32844c0.09364,0.117 0.21696,0.14366 0.34036,0.17028c0.69109,0.16847 1.36394,0.35235 2.06937,0.42711c0.31418,0.02906 0.63123,0.03938 0.93569,0.02758c0.24283,-0.02508 0.50103,-0.04683 0.7205,-0.23188c0.03728,-0.24374 0.07453,-0.48744 0.11183,-0.73118c-0.12909,0.01086 -0.24282,0.02506 -0.34104,0.04259c-0.45474,0.05678 -0.90376,0.07614 -1.34131,0.02046c-0.56377,-0.06355 -1.11323,-0.22083 -1.66554,-0.35935c-0.26219,-0.05656 -0.49173,-0.22227 -0.75675,-0.2601c-0.11872,-0.16116 -0.27006,-0.21319 -0.40885,-0.24315zM180.7553,218.11698c0.19869,0.15907 0.41171,0.22442 0.63047,0.25224c0.01254,0.02206 0.04054,0.04748 0.05597,0.0508c0.37298,0.06112 0.75171,0.08473 1.1168,-0.0108c0.21486,-0.05048 0.42678,-0.08221 0.61251,-0.25517c0.1606,-1.04988 0.32116,-2.09972 0.49042,-3.20586c-0.40165,0.12634 -0.78616,0.14028 -1.1677,0.13538c-0.33535,0.00512 -0.63516,-0.11768 -0.96475,-0.15005c-0.12337,-0.0266 -0.22846,-0.06863 -0.35184,-0.09524c-0.1707,-0.13367 -0.3626,-0.23317 -0.59104,-0.30183c-0.08603,0.56244 -0.04295,1.114 -0.09241,1.64559c-0.0369,0.55366 -0.05838,1.11068 -0.0924,1.64557c0.11871,0.16116 0.23635,0.22532 0.354,0.28939zM180.94618,214.26555c0.09365,0.11699 0.21413,0.1624 0.33748,0.18899c0.1119,0.10164 0.25359,0.11283 0.38949,0.16152c0.42896,0.1119 0.87223,0.13008 1.3058,0.10744c0.2582,-0.02176 0.52217,-0.08104 0.76673,-0.22192c0.01148,-0.07499 0.03836,-0.14664 0.04981,-0.22165c0.14056,-0.91867 0.2782,-1.8185 0.43413,-2.73382c0.16454,-0.97154 0.32622,-1.92435 0.49077,-2.8959c0.23336,-1.42152 0.47933,-2.8209 0.71268,-4.24241c0.27461,-1.58689 0.50007,-3.16503 0.80554,-4.74526c0.05558,-0.25913 0.08313,-0.54368 0.12618,-0.82491c-0.18109,0.0384 -0.3525,0.11762 -0.52788,0.1185c-0.56557,0.05228 -1.12935,-0.01127 -1.68739,-0.11228c-0.49347,-0.10648 -0.98411,-0.2317 -1.47474,-0.35694c-0.19476,-0.08075 -0.37693,-0.13943 -0.57168,-0.22018c-0.10615,-0.13911 -0.2507,-0.13156 -0.36834,-0.19566c-0.13307,-0.06745 -0.24496,-0.16905 -0.40205,-0.18358c-0.05953,0.18083 -0.05162,0.33748 -0.05628,0.47201c0.00044,1.14274 -0.12537,2.27757 -0.1712,3.41029c-0.03186,0.72907 -0.06376,1.45812 -0.08016,2.19048c-0.03832,0.97943 -0.05833,1.9434 -0.09376,2.90408c-0.02503,0.7886 -0.05009,1.57723 -0.09058,2.36252c-0.03368,0.84487 -0.07989,1.66763 -0.12895,2.50919c-0.0376,0.76654 -0.07806,1.55183 -0.10311,2.34044c0.13591,0.04867 0.21125,0.18113 0.33748,0.18901zM189.93984,190.25504c-0.36506,0.09552 -0.70043,0.10064 -1.0386,0.12452c-0.35362,0.02054 -0.69467,0.06318 -1.04541,0.06495c-0.33535,0.00511 -0.68038,-0.0306 -1.01281,-0.04426c-0.3479,-0.01696 -0.69576,-0.03391 -1.05618,-0.07293c-0.32957,-0.0324 -0.67173,-0.08686 -1.00133,-0.11925c-0.34213,-0.05447 -0.67282,-0.18389 -1.02644,-0.16336c-0.30662,-0.18233 -0.65738,-0.18056 -0.97839,-0.26916c-0.33351,-0.11072 -0.68826,-0.18722 -1.02179,-0.29791c-0.3181,-0.10738 -0.64879,-0.23684 -0.96403,-0.36294c-0.33068,-0.12947 -0.63444,-0.33059 -0.9737,-0.40375c-0.09968,0.44329 -0.11975,0.57451 -0.04799,0.93859c0.1707,0.13367 0.34144,0.26735 0.54872,0.37015c0.25357,0.11281 0.50712,0.22562 0.77324,0.36052c0.50426,0.24438 0.99598,0.46664 1.53573,0.5831c0.37013,0.07986 0.74313,0.14095 1.10178,0.29583c0.07424,0.03541 0.16678,0.05534 0.265,0.03781c0.19366,-0.01634 0.39128,0.04571 0.57633,0.0856c0.67856,0.14641 1.3743,0.18033 2.05753,0.19214c0.902,0.03968 1.79319,-0.05853 2.693,-0.21303c0.17823,-0.01966 0.35647,-0.03928 0.50562,-0.18141c0.07388,-0.27456 0.10147,-0.55913 0.1097,-0.92527zM184.0508,186.67989c-0.16064,0.2171 -0.25963,0.44752 -0.37401,0.6746c-0.10867,0.18958 -0.15849,0.41124 -0.13122,0.64951c0.02657,0.45115 0.00402,0.9111 -0.08025,1.3577c-0.00574,0.03749 0.00106,0.09707 -0.00181,0.1158c0.0685,0.07285 0.13019,0.08614 0.21592,0.04658c0.01829,-0.0154 0.03945,-0.04959 0.04232,-0.06835c0.12944,-0.53371 0.28971,-1.06073 0.48084,-1.58113c0.02691,-0.07165 0.05952,-0.18082 0.04013,-0.26248c-0.01579,-0.31328 -0.03161,-0.62653 -0.19194,-0.93228zM182.69245,189.31111c0.12369,-0.4962 0.27538,-0.96699 0.43961,-1.41571c0.05375,-0.14332 0.05844,-0.27789 0.0351,-0.43785c-0.04271,-0.24158 -0.12198,-0.45238 -0.19837,-0.68191c-0.01937,-0.08166 -0.03586,-0.18201 -0.13414,-0.1645c-0.12587,0.30208 -0.26428,0.5821 -0.3593,0.8908c0.14173,0.84397 0.14171,0.84395 0.01948,1.74715c0.03765,0.06624 0.09649,0.09827 0.19761,0.06201zM186.20221,191.98562c-0.11331,0.32416 -0.2112,0.65166 -0.30909,0.97913c-0.02691,0.07166 -0.05378,0.14333 -0.04983,0.22163c0.06205,0.32323 0.10873,0.64318 0.25649,0.92684c0.21948,-0.18504 0.30874,-0.45627 0.44144,-0.69879c0.06634,-0.12122 0.06811,-0.23707 0.04193,-0.37828c-0.07748,-0.32657 -0.12413,-0.64653 -0.15245,-0.98182c0.00287,-0.01876 -0.02508,-0.04416 -0.05019,-0.08827c-0.04913,0.00876 -0.11373,0.0142 -0.17824,0.01965zM187.14363,187.28907c-0.24637,0.25671 -0.38192,0.51796 -0.53287,0.77589c-0.04806,0.10584 -0.04696,0.20288 -0.04587,0.29995c0.02372,0.46991 0.00111,0.92986 -0.08599,1.39522c-0.00861,0.05624 -0.00181,0.1158 -0.01039,0.17204c0.16678,0.05536 0.20049,0.04327 0.22341,-0.10672c0.07456,-0.48748 0.22338,-0.93951 0.44354,-1.33743c0.13268,-0.2425 0.15168,-0.47081 0.11186,-0.73118c-0.04161,-0.14457 -0.07065,-0.26704 -0.10366,-0.46781zM184.50931,189.72247c0.0771,0.01662 0.10399,-0.05509 0.11548,-0.13006c0.08031,-0.52492 0.28109,-1.00449 0.48192,-1.48408c0.15561,-0.39248 0.15989,-0.83699 -0.00834,-1.29934c-0.13375,0.14544 -0.17786,0.3296 -0.28078,0.48169c-0.2087,0.32293 -0.26319,0.67912 -0.25887,1.06741c-0.0014,0.42574 0.0126,0.85487 -0.08132,1.26065c0.00684,0.05955 0.01936,0.08168 0.03192,0.10374zM186.06133,187.07492c-0.12695,0.205 -0.22702,0.33834 -0.31162,0.47502c-0.14521,0.22045 -0.19507,0.44209 -0.17354,0.71784c0.03804,0.37617 0.01154,0.75778 -0.03038,1.13604c-0.00467,0.13458 -0.0276,0.28455 -0.04767,0.41576c0.07424,0.03541 0.09824,-0.01751 0.10399,-0.05502c0.16026,-0.52707 0.33596,-1.05075 0.5705,-1.54243c0.02975,-0.0904 0.05664,-0.16207 0.05556,-0.25913c-0.03695,-0.27911 -0.05849,-0.55488 -0.16682,-0.8881zM187.20244,192.00778c0.0072,0.36953 -0.0907,0.69698 -0.17317,1.02781c-0.01433,0.09374 -0.07208,0.15875 -0.05557,0.25913c0.02333,0.16 0.1625,0.49986 0.30633,0.70522c0.13665,-0.16419 0.20188,-0.3825 0.29514,-0.57544c0.07208,-0.15876 0.0796,-0.31205 0.02543,-0.47867c-0.0832,-0.28907 -0.1356,-0.57153 -0.13597,-0.88148c0.00288,-0.01876 -0.02226,-0.06289 -0.03479,-0.08495c-0.05883,-0.03206 -0.12051,-0.04539 -0.22738,0.02843zM181.73903,192.10717c0.05239,0.28241 -0.01181,0.59783 0.08971,0.8715c0.11081,0.00455 0.17143,-0.0792 0.24459,-0.14089c0.1309,-0.12671 0.27145,-0.21254 0.38012,-0.40213c-0.04089,-0.35742 0.04728,-0.72572 0.02466,-1.09855c-0.0685,-0.07285 -0.1456,-0.08952 -0.22846,-0.06864c-0.14129,0.29877 -0.31054,0.57211 -0.51064,0.8388zM184.34127,191.75843c-0.05953,0.18083 -0.11904,0.36163 -0.21623,0.47621c-0.23381,0.27875 -0.26712,0.60084 -0.1925,0.94614c0.02903,0.12245 0.01183,0.23495 0.08715,0.36743c0.18291,-0.15424 0.32241,-0.33714 0.46187,-0.52012c0.03946,-0.04959 0.0509,-0.12458 0.04983,-0.22163c-0.01868,-0.29454 -0.0248,-0.56697 -0.04345,-0.86149c0.00863,-0.05624 -0.01077,-0.13789 -0.14671,-0.18659zM183.36969,191.54883c-0.12477,0.39914 -0.27468,0.75411 -0.52104,1.01083c-0.05486,0.04626 -0.05091,0.12458 -0.06237,0.19957c-0.01039,0.17206 -0.00536,0.34747 0.06136,0.53612c0.25607,-0.21589 0.43501,-0.44845 0.61681,-0.6997c0.0606,-0.08375 0.09038,-0.17415 0.09215,-0.28998c0.00075,-0.21288 0.01682,-0.42245 0.01752,-0.63532c0.00288,-0.01876 -0.02225,-0.06292 -0.03479,-0.08497c-0.04627,-0.00999 -0.09254,-0.01997 -0.16962,-0.03657zM188.17518,188.46061c-0.03302,-0.20077 -0.06313,-0.42033 -0.09613,-0.62114c-0.01254,-0.02206 -0.02511,-0.04418 -0.0502,-0.08829c-0.19546,0.13211 -0.32241,0.33714 -0.41565,0.53004c0.01906,0.60449 0.04384,1.17143 -0.05368,1.80887c0.2618,-0.25338 0.1997,-0.57664 0.28325,-0.81036c0.09215,-0.28998 0.21226,-0.55454 0.33238,-0.81913zM183.90368,186.18335c-0.1198,-0.25824 -0.20879,-0.50983 -0.40459,-0.68764c-0.08177,0.1179 -0.17321,0.19502 -0.23667,0.29757c-0.06346,0.10252 -0.14235,0.20166 -0.16241,0.33292c0.02047,0.17869 0.1112,0.31449 0.16824,0.46235c0.05706,0.14784 0.08035,0.30785 0.18938,0.42819c0.15383,-0.2767 0.28939,-0.5379 0.4461,-0.83334zM181.69973,189.13565c0.14771,-0.54911 0.26565,-1.00786 0.38363,-1.46652c0.00574,-0.03749 0.02979,-0.09042 0.00467,-0.13456c-0.07641,-0.2295 -0.11624,-0.48986 -0.29663,-0.66434c-0.10185,0.24915 -0.20081,0.47959 -0.28436,0.71334c0.13452,0.47447 0.17078,0.96641 0.19269,1.55214zM185.03466,193.78658c0.15888,-0.10129 0.21839,-0.28211 0.30303,-0.41877c0.10293,-0.15209 0.15958,-0.31416 0.12942,-0.53368c-0.03409,-0.29784 -0.06818,-0.59571 0.00854,-0.88905c-0.10223,-0.06079 -0.16678,-0.05536 -0.18398,0.05714c-0.05842,0.27787 -0.11976,0.57452 -0.24956,0.79827c-0.17786,0.3296 -0.09752,0.63747 -0.00746,0.98611zM183.57104,193.04472c-0.24923,0.27545 -0.45614,0.48259 -0.64764,0.693c-0.02008,0.13122 0.01471,0.21622 0.03409,0.29783c0.03479,0.08497 0.04843,0.20406 0.15063,0.26488c0.19261,-0.11339 0.37546,-0.26757 0.54583,-0.44383c-0.00899,-0.25367 -0.03626,-0.49197 -0.0829,-0.81191zM185.85166,194.48574c-0.09577,-0.31115 -0.18188,-0.58149 -0.26507,-0.87056c-0.14523,0.22044 -0.28761,0.42215 -0.42996,0.6238c0.07065,0.26702 0.11335,0.50863 0.27261,0.71724c0.1646,-0.13876 0.2858,-0.3063 0.42244,-0.47047zM184.73572,185.74311c-0.20226,0.07254 -0.28581,0.3063 -0.40703,0.4738c-0.03946,0.04959 -0.03837,0.14663 -0.01612,0.20955c0.06385,0.20747 0.11513,0.39282 0.18183,0.58151c-0.00287,0.01876 0.028,0.0254 0.05883,0.03207c0.14812,-0.23917 0.28361,-0.50043 0.43174,-0.7396c-0.04842,-0.20409 -0.14885,-0.3807 -0.2493,-0.55729zM187.00632,186.83338c-0.03016,-0.21952 -0.06314,-0.42031 -0.21269,-0.58817c-0.14919,0.14214 -0.32921,0.27758 -0.44075,0.48592c0.02618,0.14122 0.02155,0.27578 0.06602,0.40155c0.02903,0.12245 -0.00933,0.26913 0.12088,0.3553c0.16065,-0.21709 0.32129,-0.4342 0.46656,-0.65465zM186.29772,194.48515c0.03588,0.18203 0.16033,0.30572 0.28191,0.44814c0.15781,-0.19833 0.33781,-0.33383 0.43966,-0.58295c-0.10043,-0.17662 -0.14599,-0.39945 -0.29269,-0.58604c-0.14812,0.23917 -0.2808,0.48168 -0.42888,0.72085zM188.20446,191.91414c-0.06704,0.33413 -0.07524,0.70033 -0.17317,1.02782c-0.07386,0.27456 0.01118,0.4478 0.17328,0.63773c0.13948,-0.18292 0.20188,-0.3825 0.28255,-0.59749c-0.1546,-0.34319 -0.17724,-0.71606 -0.28269,-1.06803zM180.87628,188.68685c0.06456,-0.00542 0.07314,-0.06167 0.08177,-0.1179c0.05271,-0.24037 0.09286,-0.50286 0.16099,-0.73994c0.11616,-0.3429 -0.00937,-0.56365 -0.17832,-0.81314c-0.05092,0.12461 -0.09608,0.21166 -0.12585,0.30206c-0.08066,0.215 -0.12764,0.41787 -0.02041,0.65406c0.05705,0.14784 0.06205,0.32327 0.06999,0.47991c-0.02691,0.07166 -0.07207,0.15874 0.01184,0.23494zM180.96083,192.40408c0.08857,-0.05834 0.14633,-0.12336 0.20118,-0.16962c0.17715,-0.11669 0.24925,-0.27546 0.25281,-0.50709c-0.00214,-0.19411 0.04483,-0.39703 0.05807,-0.58783c0.00863,-0.05625 0.03263,-0.10916 -0.07246,-0.15122c-0.11729,0.24582 -0.26536,0.48504 -0.44145,0.69879c-0.03946,0.04959 -0.05376,0.14329 -0.06526,0.21829c0.00789,0.15661 0.01866,0.29456 0.0671,0.49863zM184.74306,194.13035c-0.03301,-0.20077 -0.04772,-0.41696 -0.12989,-0.60902c-0.18576,0.17297 -0.3812,0.30507 -0.52644,0.52549c0.06387,0.20744 0.08143,0.40488 0.23387,0.554c0.1492,-0.14213 0.31094,-0.26214 0.42244,-0.4705zM185.53337,187.1934c0.18574,-0.17297 0.31269,-0.37798 0.40877,-0.58963c-0.06385,-0.20744 -0.11516,-0.39278 -0.22815,-0.59148c-0.1406,0.08588 -0.24064,0.21923 -0.32812,0.37465c0.05525,0.26366 0.09509,0.52404 0.14744,0.80648zM183.23864,194.69661c0.07247,0.15123 0.10437,0.25491 0.17003,0.34652c0.03766,0.06622 0.07818,0.1137 0.11873,0.16118c0.16854,-0.06045 0.32743,-0.16175 0.44864,-0.32927c-0.04842,-0.20409 -0.09686,-0.40819 -0.23103,-0.57272c-0.1646,0.13876 -0.32348,0.24008 -0.50636,0.39426zM180.72938,190.68862c-0.20405,0.18839 -0.35035,0.31171 -0.51784,0.46925c-0.02691,0.07165 -0.03156,0.20618 -0.0025,0.32868c0.01364,0.11912 -0.03728,0.24371 0.04091,0.35742c0.1474,-0.02631 0.25427,-0.10008 0.35146,-0.21467c0.03046,-0.3033 0.07351,-0.58451 0.12799,-0.9407zM183.75123,185.20146c0.06279,0.1104 0.12555,0.22078 0.18829,0.33116c0.0628,0.1104 0.12843,0.20198 0.19118,0.31237c0.13949,-0.18291 0.2704,-0.30962 0.33279,-0.50917c-0.02905,-0.12245 -0.11584,-0.17992 -0.18433,-0.25281c-0.0685,-0.07285 -0.12843,-0.20198 -0.23921,-0.20654c-0.11263,0.1113 -0.21947,0.18504 -0.28869,0.32506zM185.1183,195.21836c-0.0947,-0.21408 -0.13738,-0.45574 -0.29954,-0.64563c-0.13088,0.12671 -0.24637,0.25671 -0.37726,0.38339c0.09469,0.21408 0.1614,0.4028 0.33214,0.53645c0.12229,-0.07045 0.23886,-0.10339 0.34464,-0.27423zM182.28487,186.97671c0.14417,-0.31747 0.26715,-0.60079 0.39012,-0.8841c-0.04447,-0.12582 -0.07352,-0.24829 -0.17574,-0.30905c-0.2012,0.16964 -0.31844,0.41543 -0.45111,0.65794c0.04448,0.12582 0.08895,0.2516 0.15171,0.36198c0.00394,0.07833 0.03192,0.10371 0.08499,0.17326zM182.52244,193.65122c-0.06101,-0.2262 -0.02658,-0.45118 -0.12701,-0.62778c-0.19831,0.15088 -0.37833,0.28634 -0.53615,0.48472c0.0879,0.15454 0.05918,0.34199 0.1962,0.48776c0.16853,-0.06047 0.28691,-0.20925 0.46695,-0.34468zM187.75471,186.62688c-0.12516,0.0892 -0.23775,0.20048 -0.3224,0.33717c0.05814,0.24495 0.10081,0.48654 0.1532,0.76895c0.12405,-0.18623 0.23955,-0.31628 0.39161,-0.47711c-0.05812,-0.24496 -0.10367,-0.46781 -0.22241,-0.629zM180.97485,192.83318c0.02439,0.25704 0.03913,0.47323 0.1704,0.6565c0.1377,-0.06714 0.25713,-0.11879 0.34178,-0.25548c-0.02727,-0.23827 -0.03913,-0.47319 -0.07609,-0.75231c-0.15888,0.10129 -0.30232,0.20592 -0.43608,0.35135zM186.24343,186.30084c0.14236,-0.20167 0.32922,-0.2776 0.39161,-0.47717c-0.06385,-0.20744 -0.17002,-0.34654 -0.29448,-0.47023c-0.14345,0.10463 -0.28404,0.19048 -0.36186,0.3867c0.085,0.17327 0.15461,0.3432 0.26472,0.56064zM186.29675,195.22086c-0.08789,-0.15453 -0.14491,-0.30238 -0.27224,-0.40732c-0.13948,0.18292 -0.32921,0.27756 -0.4282,0.50798c0.07246,0.15123 0.15352,0.24617 0.28946,0.29486c0.14632,-0.12336 0.28008,-0.26878 0.41095,-0.3955zM181.62713,186.48618c-0.06959,-0.16996 -0.13521,-0.26152 -0.23457,-0.34114c-0.1309,0.12671 -0.25212,0.29419 -0.2865,0.51916c0.07533,0.13246 0.15063,0.26487 0.22309,0.41611c0.15493,-0.1796 0.20476,-0.40124 0.29798,-0.59415zM188.93413,193.60143c-0.07817,-0.11369 -0.14384,-0.20535 -0.23347,-0.24404c-0.1212,0.16747 -0.21155,0.3417 -0.27394,0.54126c0.05987,0.12911 0.12553,0.22075 0.22774,0.28154c0.13665,-0.16419 0.18646,-0.38584 0.27968,-0.57874zM183.78312,195.51125c0.0581,0.24493 0.17861,0.2903 0.32028,0.30151c0.10794,0.02331 0.22165,0.00908 0.29086,-0.13092c-0.06959,-0.16996 -0.14203,-0.32115 -0.26649,-0.44484c-0.12516,0.0892 -0.23489,0.18172 -0.34464,0.27423zM188.8971,188.6357c-0.02046,-0.1787 0.00249,-0.32866 -0.09112,-0.44569c-0.35718,0.25217 -0.33459,0.62502 -0.24058,1.05196c0.11153,-0.20832 0.2202,-0.39795 0.3317,-0.60626zM182.41488,194.77067c0.15027,-0.04501 0.25713,-0.11881 0.37547,-0.26757c-0.09364,-0.117 -0.08039,-0.30784 -0.19228,-0.40943c-0.09541,-0.00124 -0.1377,0.0671 -0.208,0.11002c-0.07313,0.06166 -0.156,0.08254 -0.17608,0.21377c0.04448,0.12582 0.08897,0.25162 0.20087,0.35322zM184.87545,189.724c0.15241,0.14908 0.2507,0.13157 0.2919,-0.03383c0.05272,-0.24037 0.07458,-0.48745 0.09355,-0.71574c0.01148,-0.07496 0.01036,-0.17206 -0.07641,-0.22952c-0.12873,0.32082 -0.2266,0.64827 -0.30908,0.97909zM187.17003,195.44799c0.01363,0.11913 0.06672,0.1887 0.15639,0.22744c0.18005,-0.13546 0.38806,-0.2455 0.52074,-0.488c-0.16786,-0.15241 -0.31241,-0.1449 -0.44902,0.0193c-0.07315,0.06167 -0.17432,0.09798 -0.2281,0.24128zM186.97063,189.98238c0.21587,0.04659 0.2679,0.01901 0.29371,-0.14965c0.02472,-0.2658 0.05233,-0.55033 0.01536,-0.82943c-0.17499,0.31085 -0.3317,0.60627 -0.30908,0.9791zM188.97885,192.37167c-0.03837,0.14662 -0.05842,0.27792 -0.09393,0.40577c-0.05561,0.25914 -0.05556,0.25914 0.20768,0.4128c0.05092,-0.12461 0.12014,-0.26459 0.14701,-0.33624c-0.10043,-0.17664 -0.17288,-0.32779 -0.26077,-0.48231zM185.77034,184.70754c-0.10689,0.07377 -0.25141,0.08134 -0.28296,0.28757c0.07818,0.1137 0.17468,0.21199 0.26542,0.34775c0.12518,-0.0892 0.26288,-0.15627 0.33207,-0.29629c-0.09365,-0.117 -0.16895,-0.2495 -0.31455,-0.33902zM187.81151,193.64979c-0.11435,0.22709 -0.24421,0.45083 -0.35858,0.67792c0.01652,0.10036 0.05128,0.18534 0.14953,0.16782c0.1646,-0.13876 0.30413,-0.32171 0.38765,-0.55546c-0.04447,-0.12582 -0.09469,-0.21407 -0.17865,-0.29028zM188.21095,186.97712c0.11081,0.00455 0.19942,-0.05379 0.27829,-0.15299c-0.01937,-0.08167 -0.03874,-0.16328 -0.05813,-0.24494c-0.0319,-0.10372 -0.04845,-0.20411 -0.13524,-0.26154c-0.09252,-0.01997 -0.17535,0.00086 -0.25139,0.08133c0.05132,0.18538 0.11517,0.39281 0.16642,0.57816zM185.23029,185.94667c0.12518,-0.0892 0.20694,-0.20713 0.27615,-0.34712c-0.10615,-0.13911 -0.19691,-0.27486 -0.2905,-0.39188c-0.13199,0.02966 -0.21087,0.12882 -0.24352,0.23798c0.08499,0.17327 0.17002,0.34653 0.25788,0.5011zM188.73886,187.69136c-0.02905,-0.12245 -0.0581,-0.24493 -0.10258,-0.37076c-0.01254,-0.02205 -0.04342,-0.02872 -0.07141,-0.05414c-0.0703,0.04291 -0.16854,0.06044 -0.23775,0.20048c0.02335,0.16 0.02552,0.35409 0.11052,0.52736c0.13768,-0.06714 0.21657,-0.16632 0.30122,-0.30299zM189.30967,189.48c0.04697,-0.20289 0.22235,-0.20381 0.25102,-0.39126c-0.03874,-0.16325 -0.02832,-0.33533 -0.12878,-0.51192c-0.12229,0.07045 -0.22918,0.14425 -0.20869,0.32293c0.02046,0.17871 -0.02077,0.34408 0.08646,0.58027zM188.18496,194.8536c0.08176,-0.11791 0.17893,-0.23254 0.25783,-0.33168c0.0183,-0.01541 0.00861,-0.05626 0.01432,-0.09375c-0.07137,-0.05413 -0.13412,-0.16452 -0.28154,-0.13818c-0.10002,0.13335 -0.20298,0.28543 -0.32131,0.43422c0.09647,0.09827 0.18615,0.13698 0.33068,0.12947zM184.91678,184.87198c-0.07532,-0.13246 -0.14778,-0.28366 -0.21055,-0.394c-0.1474,0.0263 -0.25429,0.10005 -0.34572,0.17718c-0.00465,0.13459 0.10043,0.17657 0.15352,0.24615c0.05311,0.06955 0.1033,0.15785 0.21413,0.16239c0.06743,-0.02419 0.13772,-0.06714 0.18865,-0.19172zM181.22954,193.87579c0.05706,0.14784 0.10439,0.25494 0.15172,0.36196c0.00968,0.04083 0.05308,0.06957 0.06565,0.09164c0.10794,0.02331 0.19654,-0.03504 0.27542,-0.13425c-0.05417,-0.16661 -0.09293,-0.32991 -0.18074,-0.48445c-0.10113,0.0363 -0.18972,0.09464 -0.31201,0.16508zM189.39805,192.44275c0.09899,-0.23042 0.19793,-0.46081 0.19183,-0.73326c-0.14739,0.02631 -0.27367,0.01843 -0.3737,0.15175c0.02832,0.33534 0.02834,0.33535 0.18186,0.58149zM182.63685,195.08969c0.20769,0.4128 0.22309,0.41609 0.52938,0.28847c-0.07247,-0.15123 -0.1632,-0.28695 -0.23563,-0.43819c-0.11081,-0.00455 -0.19938,0.0538 -0.29372,0.14963zM187.59622,186.20538c-0.05417,-0.16661 -0.11409,-0.29574 -0.22598,-0.39738c-0.03372,0.0121 -0.08573,0.0396 -0.13773,0.06712c-0.03658,0.03085 -0.07605,0.08044 -0.11259,0.11125c0.05418,0.16661 0.09007,0.34866 0.19909,0.46903c0.10112,-0.03629 0.19546,-0.13211 0.27719,-0.25007zM180.43902,192.79503c0.05199,-0.02753 0.12229,-0.07047 0.14633,-0.12338c0.07782,-0.19625 0.07563,-0.39032 -0.00078,-0.61989c-0.10402,0.05501 -0.2331,0.0659 -0.29659,0.16842c0.03301,0.20077 0.01689,0.41033 0.15103,0.57483zM182.27724,185.46447c-0.01253,-0.02206 -0.02511,-0.04415 -0.0502,-0.08829c-0.22344,0.10675 -0.4092,0.27969 -0.59493,0.45264c0.02619,0.14121 0.07927,0.21075 0.19977,0.25613c0.14236,-0.20167 0.30011,-0.40002 0.44539,-0.62047zM186.20628,189.04284c-0.13554,0.26126 -0.28362,0.50042 -0.31696,0.82245c-0.00288,0.01876 0.05309,0.06952 0.08392,0.07619c0.0771,0.01661 0.15026,-0.04507 0.16457,-0.1388c0.08356,-0.23373 0.08999,-0.48412 0.06846,-0.75986zM187.18764,185.43938c-0.05988,-0.12915 -0.1198,-0.25826 -0.21628,-0.35654c-0.10795,-0.02331 -0.19079,-0.00243 -0.28797,0.11213c0.09076,0.13579 0.17861,0.29032 0.27222,0.40734c0.09824,-0.01753 0.16853,-0.06048 0.23202,-0.16298zM184.93509,195.89538c0.21303,0.06532 0.39522,0.12404 0.60035,0.03273c-0.02046,-0.17869 -0.11692,-0.27699 -0.2317,-0.35987c-0.14058,0.08588 -0.26287,0.1563 -0.36866,0.32718zM179.83355,190.92142c0.15601,-0.08254 0.17428,-0.09791 0.18292,-0.15419c0.04411,-0.18412 -0.00719,-0.36953 -0.06136,-0.53612c-0.02223,-0.06288 -0.0965,-0.09825 -0.15997,0.00424c0.06671,0.1887 -0.03227,0.41914 0.03843,0.68611zM182.87399,185.72881c0.15781,-0.19833 0.32814,-0.37465 0.39228,-0.69002c-0.23595,0.08466 -0.37835,0.28635 -0.51496,0.45052c0.00106,0.09707 0.04161,0.14451 0.12268,0.23947zM181.85862,194.5538c-0.08571,0.03961 -0.16854,0.06048 -0.25426,0.10008c0.0513,0.18539 0.12376,0.33658 0.302,0.31692c0.04914,-0.00876 0.09824,-0.01754 0.12516,-0.0892c-0.01363,-0.11912 -0.07928,-0.21078 -0.17288,-0.32779zM188.03257,190.01785c0.13881,0.02992 0.20621,0.00578 0.21372,-0.14752c0.00467,-0.13459 0.0093,-0.26914 -0.00147,-0.40703c-0.00684,-0.05954 -0.02905,-0.1225 -0.09361,-0.11704c-0.08068,0.21499 -0.11221,0.42121 -0.11865,0.67159zM182.22972,188.37854c-0.09899,0.23043 -0.16709,0.4675 -0.15811,0.72119c-0.00287,0.01877 0.0531,0.06952 0.0685,0.07285c0.03082,0.00666 0.0703,-0.04291 0.07602,-0.08044c0.02187,-0.24704 0.08713,-0.46539 0.01358,-0.71367zM181.39202,188.85625c-0.01758,-0.19746 0.01396,-0.40372 -0.04699,-0.6299c-0.11437,0.22707 -0.17677,0.42666 -0.14771,0.54912c0.01363,0.11912 0.07532,0.13247 0.19472,0.08075zM186.46539,195.99313c0.19367,-0.01633 0.40959,0.03025 0.55194,-0.17143c-0.25463,-0.20985 -0.39698,-0.00817 -0.55194,0.17143zM186.77137,192.53452c0.03082,0.00665 0.04919,-0.00877 0.07999,-0.00211c0.01324,-0.19078 0.10073,-0.34623 0.04943,-0.53158c-0.08965,-0.03873 -0.1388,-0.02994 -0.1994,0.05381c0.02619,0.14121 0.04951,0.30116 0.06998,0.47991zM184.17681,188.87605c-0.08641,0.25249 -0.14879,0.45206 -0.1678,0.68036c-0.00574,0.03749 0.01936,0.08165 0.06562,0.09162c0.01545,0.00333 0.04913,-0.00877 0.06743,-0.0242c0.09899,-0.23042 0.13338,-0.45537 0.03473,-0.74778zM180.66677,193.07656c-0.09824,0.01754 -0.15024,0.04503 -0.12802,0.10794c0.02619,0.14121 0.06781,0.28575 0.10941,0.43031c0.03478,0.08497 0.08104,0.09496 0.13878,0.02994c-0.01469,-0.21621 -0.03517,-0.39494 -0.12018,-0.56818zM186.43057,184.86935c0.0703,-0.04291 0.13772,-0.06714 0.20801,-0.11004c0.0183,-0.0154 0.02402,-0.05292 0.04806,-0.10584c-0.18503,-0.03995 -0.34606,-0.13275 -0.55804,-0.10103c0.09076,0.13579 0.15639,0.22741 0.302,0.31691zM182.81451,191.429c-0.01326,0.1908 -0.02365,0.36289 -0.04264,0.59118c0.1829,-0.15424 0.25498,-0.31294 0.26822,-0.50374c-0.0685,-0.07286 -0.1119,-0.10162 -0.2256,-0.08743zM187.72853,192.00508c0.04161,0.14457 -0.02078,0.34408 0.13165,0.49319c0.11507,-0.43997 0.12942,-0.53367 0.05804,-0.58784c-0.0771,-0.01661 -0.12912,0.01088 -0.18972,0.09464zM183.24576,188.71395c-0.22809,0.24126 -0.26247,0.46625 -0.24382,0.76078c0.25031,-0.17841 0.16706,-0.46745 0.24382,-0.76078zM188.97504,189.27221c-0.20979,0.22585 -0.24135,0.43212 -0.24491,0.66374c-0.00287,0.01876 0.02511,0.04414 0.05594,0.05079c0.04627,0.01 0.08285,-0.02087 0.08857,-0.05835c0.04412,-0.18412 0.05736,-0.37492 0.10038,-0.65614zM188.51186,191.8836c0.02046,0.1787 0.0072,0.36953 0.14132,0.53398c0.07494,-0.1775 0.08532,-0.34955 0.09286,-0.50285c-0.08391,-0.07621 -0.14846,-0.07077 -0.23419,-0.03115zM189.35439,188.25018c-0.08215,-0.19203 -0.0506,-0.39825 -0.19334,-0.50652c-0.08641,0.25249 -0.08641,0.25248 0.04307,0.55154c0.03372,-0.0121 0.06743,-0.02419 0.15027,-0.04504zM186.80356,195.13649c0.2245,-0.00967 0.35827,-0.1551 0.47948,-0.32261c-0.02905,-0.12245 -0.09076,-0.13579 -0.1456,-0.08952c-0.10002,0.13336 -0.21553,0.26338 -0.33385,0.41215zM187.86483,186.01153c0.09541,0.00123 0.17537,-0.00088 0.23883,-0.10338c-0.04734,-0.10703 -0.09468,-0.21412 -0.18433,-0.25279c-0.07997,0.0021 -0.13197,0.02965 -0.17431,0.09799c0.01652,0.10037 0.05417,0.16661 0.11982,0.25823zM184.8825,192.28192c0.06921,-0.13997 0.11728,-0.24585 0.10363,-0.36499c-0.00968,-0.04083 -0.03765,-0.06624 -0.06564,-0.09164c-0.04627,-0.01 -0.1137,0.01418 -0.10688,0.07374c-0.01721,0.11252 -0.03729,0.24373 0.0689,0.38286zM185.41631,184.41812c-0.1302,-0.08619 -0.26791,-0.01905 -0.39701,-0.00816c0.14778,0.28367 0.17863,0.29027 0.39701,0.00816zM180.53128,188.65114c0.1047,-0.26792 0.1047,-0.26791 -0.01689,-0.41036c-0.04806,0.10584 -0.09897,0.23044 0.01689,0.41036zM185.90059,191.97864c-0.05311,-0.06955 -0.09935,-0.07953 -0.12049,-0.04538c-0.10002,0.13336 -0.09323,0.19291 0.01977,0.3916c0.06635,-0.12122 0.08358,-0.23375 0.10077,-0.34624zM189.59977,189.56196c-0.09144,0.07714 -0.16746,0.15755 -0.15672,0.2954c0.25534,-0.00303 0.27648,-0.03714 0.15672,-0.2954zM180.30782,187.92514c-0.11263,0.1113 -0.15099,0.25791 -0.18646,0.3858c-0.01148,0.07497 0.02619,0.14124 0.1302,0.0862c0.03548,-0.1279 0.07387,-0.27458 0.05628,-0.47201zM188.95695,187.09927c-0.05953,0.18083 -0.02761,0.28456 0.09004,0.34866c0,0 0.03372,-0.0121 0.03657,-0.03085c0.03261,-0.10917 -0.0484,-0.2041 -0.12661,-0.31785zM183.87216,191.90899c0.09824,-0.01754 0.1406,-0.08588 0.13663,-0.16417c0.00574,-0.03749 -0.01937,-0.08166 -0.04734,-0.10705c-0.028,-0.0254 -0.07996,0.0021 -0.08569,0.03961c-0.02403,0.05292 -0.0355,0.12789 -0.00359,0.23162zM187.41293,185.21688c0.04161,0.14456 0.09468,0.21411 0.22955,0.1657c-0.05418,-0.16661 -0.11011,-0.21743 -0.22955,-0.1657z" fill="#000000"/><path d="M182.67765,198.46817c0.4906,0.12524 0.98127,0.25048 1.47476,0.35693c0.5552,0.11979 1.12182,0.16457 1.68739,0.11229c0.17824,-0.01965 0.33135,-0.08341 0.52787,-0.11847c-0.04589,0.29999 -0.07058,0.56574 -0.12617,0.82487c-0.30259,1.5615 -0.53095,3.15836 -0.80554,4.74525c-0.24881,1.41816 -0.4793,2.82091 -0.71268,4.24241c-0.16454,0.97155 -0.32624,1.92436 -0.4908,2.89589c-0.15595,0.91532 -0.27817,1.81851 -0.4341,2.73382c-0.01148,0.07499 -0.02296,0.15 -0.04984,0.22165c-0.24744,0.15966 -0.49312,0.20346 -0.76673,0.22191c-0.4336,0.02265 -0.87687,0.00447 -1.30579,-0.10744c-0.13881,-0.02992 -0.28045,-0.04113 -0.38948,-0.16151c0.14454,-0.00756 0.29014,0.08194 0.47412,0.02483c-0.06204,-0.32323 0.03295,-0.63196 0.06341,-0.93527c0.00287,-0.01876 0.00574,-0.03748 -0.00968,-0.04082c-0.04592,-0.53279 0.03725,-1.07648 0.04044,-1.61807c-0.00216,-0.19411 -0.05061,-0.39824 0.0089,-0.57905c0.08822,-0.36829 0.00389,-0.75444 0.0921,-1.12279c0.00287,-0.01876 -0.00683,-0.05956 -0.00107,-0.09708c0.00821,-0.36615 -0.00182,-0.71694 0.03724,-1.07646c0.06309,-0.41244 -0.00292,-0.81405 0.091,-1.21982c-0.05525,-0.26366 0.0129,-0.50074 0.03762,-0.76653c0.00574,-0.03749 0.00859,-0.05627 0.01434,-0.09373c-0.06602,-0.40158 0.05588,-0.78196 0.05156,-1.17025c-0.00433,-0.38824 0.08673,-0.77531 0.09782,-1.16025c0.01971,-0.4412 -0.00977,-0.87356 0.10537,-1.31355c0.00574,-0.03749 0.01435,-0.09375 0.00467,-0.13457c-0.06101,-0.2262 0.0197,-0.44118 0.03871,-0.66947c0.01721,-0.11252 0.0527,-0.24036 0.03906,-0.35952c-0.03585,-0.18204 0.0025,-0.32868 0.02831,-0.49744c0.01434,-0.09375 0.04411,-0.18418 0.02471,-0.26579c-0.05525,-0.26366 0.01573,-0.51948 0.05302,-0.76319c0.01434,-0.09375 0.04409,-0.18413 0.02473,-0.2658c-0.04554,-0.22284 0.0014,-0.42576 0.03297,-0.63199c0.05161,-0.33749 -0.00471,-0.6982 0.06234,-1.03231c0.02402,-0.05292 -0.01361,-0.11913 -0.02046,-0.1787z" fill="#87d7dc"/><path d="M182.67765,198.4682c0.00681,0.05955 0.04449,0.1258 0.03588,0.18205c-0.06702,0.33414 -0.02614,0.69155 -0.06233,1.03233c-0.03156,0.20622 -0.07852,0.40915 -0.03297,0.63198c0.01937,0.08167 -0.01039,0.17207 -0.0247,0.26578c-0.03726,0.24372 -0.09288,0.50285 -0.05306,0.76321c0.01937,0.08166 -0.02581,0.16876 -0.0247,0.2658c-0.02581,0.16872 -0.04875,0.31872 -0.02831,0.49744c0.01363,0.11912 -0.02187,0.24708 -0.03908,0.35955c-0.01898,0.22829 -0.09966,0.44329 -0.03868,0.66947c0.00968,0.04083 0.00108,0.09707 -0.00466,0.13456c-0.11222,0.42122 -0.08566,0.87241 -0.10535,1.31357c-0.01396,0.40372 -0.10503,0.79072 -0.09786,1.16025c0.00434,0.38823 -0.11757,0.76866 -0.05155,1.17022c0.01253,0.02207 -0.00862,0.05626 -0.01435,0.09376c-0.03726,0.24372 -0.09284,0.50285 -0.0376,0.76656c-0.10937,0.40248 -0.04333,0.80405 -0.09102,1.21981c-0.05449,0.35621 -0.02899,0.71029 -0.03725,1.07647c-0.00574,0.03749 0.00685,0.0596 0.0011,0.09708c-0.08822,0.36829 -0.00389,0.75443 -0.0921,1.12278c-0.04696,0.20289 0.00431,0.38826 -0.00891,0.57906c-0.01861,0.53824 -0.08636,1.08527 -0.04044,1.61805c-0.00287,0.01876 0.0097,0.04083 0.0097,0.04083c-0.03045,0.30331 -0.1255,0.61205 -0.06341,0.93529c-0.16854,0.06047 -0.3113,-0.04782 -0.47412,-0.02485c-0.12336,-0.0266 -0.24673,-0.05327 -0.33749,-0.18907c0.01721,-0.11252 0.0527,-0.24036 0.03905,-0.3595c-0.04773,-0.41696 0.02795,-0.80738 0.05732,-1.20776c0.02938,-0.40034 -0.01836,-0.81732 0.091,-1.21979c-0.05525,-0.26366 0.01286,-0.50076 0.0376,-0.76655c0.00574,-0.03749 0.01433,-0.09374 0.00466,-0.13457c-0.0513,-0.18538 0.00823,-0.36616 0.01862,-0.53826c0.01434,-0.09375 0.02866,-0.18748 0.02472,-0.26579c-0.01402,-0.4291 -0.00978,-0.87357 0.0562,-1.30479c0.00863,-0.05625 0.03552,-0.12792 0.01039,-0.17205c-0.04842,-0.20408 -0.00435,-0.38824 0.02434,-0.57573c0.04696,-0.20289 -0.03233,-0.41368 0.01754,-0.63531c0.06131,-0.29664 0.02721,-0.59449 0.04225,-0.90111c0.03224,-0.41913 -0.00005,-0.83275 0.06593,-1.26394c0.01148,-0.07499 0.04125,-0.16541 0.01898,-0.22831c-0.03872,-0.1633 0.00247,-0.32867 0.01288,-0.50072c0.02295,-0.14998 0.03046,-0.30326 0.01972,-0.4412c-0.02439,-0.25704 -0.01797,-0.5074 0.02216,-0.76989c0.04481,-0.39701 -0.00293,-0.81403 0.10641,-1.21646c0.00574,-0.03749 -0.00106,-0.09705 0.00467,-0.13458c0.01396,-0.40372 0.01247,-0.81068 0.05732,-1.2077c0.06309,-0.41244 0.00281,-0.85153 0.09676,-1.25731c0.00863,-0.05625 -0.01365,-0.11913 -0.02046,-0.1787c0.00643,-0.25037 0.03116,-0.51617 0.11471,-0.74989c0.07998,-0.0021 0.14165,0.01116 0.20622,0.00577c0.20731,0.10284 0.38662,0.18024 0.58424,0.24226z" fill="#b0eef2"/><path d="M189.93984,190.25506c-0.00823,0.36614 -0.03584,0.65073 -0.14055,0.91864c-0.14634,0.12336 -0.32456,0.14303 -0.50564,0.18141c-0.89694,0.13571 -1.79101,0.25266 -2.693,0.21301c-0.68035,-0.0306 -1.37612,-0.06449 -2.05753,-0.19213c-0.18505,-0.03994 -0.38268,-0.10192 -0.57635,-0.08564c-0.07998,0.0021 -0.17251,-0.01788 -0.26501,-0.03782c-0.35866,-0.15486 -0.7345,-0.19721 -1.10178,-0.29581c-0.52148,-0.13185 -1.0315,-0.33872 -1.53573,-0.58309c-0.25069,-0.13155 -0.50428,-0.24437 -0.77325,-0.36048c-0.21014,-0.0841 -0.378,-0.23648 -0.54874,-0.37016c-0.05632,-0.36077 -0.05167,-0.49529 0.048,-0.93859c0.33638,0.09191 0.64306,0.27429 0.9737,0.40375c0.31524,0.12611 0.6459,0.25555 0.96404,0.36294c0.33352,0.11072 0.68538,0.20598 1.02177,0.29792c0.3181,0.10738 0.66886,0.10554 0.97841,0.26918c0.35363,-0.02054 0.68428,0.10892 1.02644,0.16337c0.32673,0.05114 0.67173,0.08682 1.00134,0.1192c0.34502,0.03571 0.69287,0.05265 1.0562,0.07297c0.33246,0.01364 0.67746,0.04935 1.01281,0.04421c0.35074,-0.0018 0.6918,-0.04439 1.04543,-0.06493c0.36905,-0.01721 0.70436,-0.02233 1.06946,-0.11785z" fill="#d1eaeb"/><path d="M182.10594,198.24804c-0.06455,0.00542 -0.12625,-0.00787 -0.20621,-0.00575c-0.08354,0.23375 -0.12082,0.47744 -0.11471,0.7499c0.00681,0.05956 0.02905,0.12247 0.02046,0.1787c-0.09394,0.40577 -0.04907,0.84158 -0.09675,1.25732c-0.06023,0.39371 -0.04335,0.80403 -0.05734,1.20772c-0.00574,0.03749 0.00108,0.09708 -0.00466,0.13456c-0.10938,0.40247 -0.04337,0.80402 -0.10645,1.21647c-0.03726,0.24372 -0.04658,0.51285 -0.02216,0.76988c0.00789,0.15659 0.00039,0.30993 -0.0197,0.44119c-0.02581,0.16872 -0.06417,0.31538 -0.01287,0.50075c0.02222,0.06288 -0.00754,0.15333 -0.01902,0.22831c-0.06309,0.41244 -0.03363,0.84484 -0.0659,1.26394c-0.01506,0.30662 0.01907,0.60447 -0.04226,0.9011c-0.04696,0.20289 0.03231,0.41366 -0.01754,0.63531c-0.0441,0.18414 -0.09107,0.38704 -0.02437,0.57574c0.00681,0.05956 -0.00178,0.1158 -0.01037,0.17204c-0.06597,0.43118 -0.0674,0.85692 -0.05621,1.30478c0.00106,0.09707 -0.02866,0.18746 -0.02473,0.26576c-0.02581,0.16872 -0.06988,0.35289 -0.0186,0.53824c0.00968,0.04083 0.00109,0.09707 -0.00466,0.13455c-0.03726,0.24372 -0.09286,0.50286 -0.03761,0.76655c-0.10936,0.40247 -0.06164,0.81946 -0.09099,1.21979c-0.02938,0.40034 -0.10789,0.80944 -0.05732,1.20769c0.01363,0.11913 -0.02188,0.24705 -0.03906,0.35953c-0.14167,-0.0112 -0.21698,-0.14363 -0.32208,-0.18567c0.04333,-0.80402 0.06552,-1.57392 0.10315,-2.34044c0.03367,-0.84486 0.07987,-1.66764 0.12891,-2.50916c0.04048,-0.78531 0.06551,-1.57392 0.09057,-2.36253c0.03832,-0.97943 0.05832,-1.94341 0.09375,-2.90409c0.03187,-0.72907 0.06377,-1.45811 0.08018,-2.19047c0.04581,-1.13273 0.1562,-2.27093 0.17117,-3.41029c0.00752,-0.15329 -0.01581,-0.31326 0.05628,-0.472c0.13881,0.02992 0.26898,0.11613 0.40206,0.18358c0.07138,0.05412 0.21589,0.04657 0.32496,0.16693z" fill="#87d7dc"/><path d="M181.52328,214.97104c0.32959,0.03237 0.6323,0.13642 0.96474,0.15002c0.3816,0.00488 0.76605,-0.00904 1.1677,-0.13537c-0.16632,1.08737 -0.32978,2.15598 -0.49039,3.20585c-0.20118,0.16964 -0.41313,0.20134 -0.61254,0.25516c-0.38051,0.09221 -0.74094,0.05316 -1.1168,0.0108c-0.01545,-0.00333 -0.04338,-0.02872 -0.05596,-0.05079c0.156,-0.08253 0.13267,-0.24248 0.12477,-0.39914c-0.01976,-0.39161 -0.0241,-0.77984 0.0487,-1.15147c0.01148,-0.07499 0.02294,-0.14999 0.01897,-0.22829c-0.03805,-0.37619 0.03473,-0.74778 0.04295,-1.114c0.00075,-0.21288 -0.00724,-0.36946 -0.09222,-0.54277z" fill="#61afb4"/><path d="M182.25605,195.7047c0.52255,0.22894 1.06515,0.32665 1.59631,0.49933c0.24387,0.072 0.49637,0.08771 0.74887,0.10347c0.4684,0.06235 0.94071,0.20297 1.42057,0.19027c0.1908,0.00245 0.38159,0.00489 0.55984,-0.01475c0.1137,-0.01419 0.22449,-0.00968 0.33247,0.01363c0.00684,0.05954 0.01649,0.10038 0.01075,0.1379c-0.02296,0.14997 -0.04586,0.29995 -0.0688,0.44993c-0.0857,0.03962 -0.15314,0.06376 -0.23597,0.08466c-0.58957,0.10518 -1.19461,0.20706 -1.79608,0.07729c-0.52722,-0.09436 -1.06979,-0.19207 -1.58557,-0.36143c-0.41068,-0.12733 -0.82418,-0.23592 -1.19646,-0.50988c0.08284,-0.02089 0.16678,0.05534 0.24565,-0.04384c0.06239,-0.19957 0.14593,-0.43331 -0.03161,-0.62654z" fill="#61aeb3"/><path d="M182.43401,197.04063c0.26791,0.01907 0.49743,0.18481 0.75673,0.26011c0.55233,0.13852 1.10463,0.27709 1.66555,0.35935c0.45295,0.05901 0.90199,0.03965 1.34132,-0.02047c0.1137,-0.01419 0.22736,-0.02842 0.34105,-0.04262c-0.04014,0.26248 -0.07453,0.48747 -0.11184,0.73118c-0.21948,0.18504 -0.46516,0.22883 -0.7205,0.23188c-0.30449,0.0118 -0.62437,0.0202 -0.93567,-0.02759c-0.70544,-0.07478 -1.37828,-0.25865 -2.06939,-0.42711c-0.12336,-0.02661 -0.24676,-0.05324 -0.34037,-0.17027c0.01434,-0.09375 0.04408,-0.18416 0.02471,-0.26579c-0.03301,-0.20078 0.01682,-0.42246 0.04836,-0.62864z" fill="#61aeb3"/><path d="M181.52328,214.97104c0.07247,0.15123 0.09577,0.31115 0.08251,0.50197c-0.00823,0.36616 -0.08102,0.73783 -0.04295,1.11398c0.00395,0.07833 -0.00751,0.15334 -0.01899,0.22833c-0.06021,0.39372 -0.05303,0.76319 -0.0487,1.15146c0.01076,0.1379 0.03124,0.31661 -0.12477,0.39914c-0.23419,-0.03118 -0.44436,-0.11522 -0.6305,-0.25222c-0.00613,-0.27247 -0.02764,-0.54824 0.04333,-0.80404c0.00574,-0.03749 -0.00107,-0.09707 0.00466,-0.13457c0.01109,-0.38492 0.02505,-0.78862 0.05155,-1.17023c0.01039,-0.17205 0.03335,-0.32203 0.02831,-0.49744c-0.01469,-0.2162 0.00427,-0.44452 0.11293,-0.6341c0.07997,-0.0021 0.14165,0.01119 0.20621,0.00578c0.10794,0.02331 0.22847,0.06865 0.33639,0.09193z" fill="#87d7dc"/><path d="M184.05077,186.67989c0.14494,0.3024 0.17615,0.61894 0.19194,0.93228c0.00395,0.07832 -0.01327,0.19082 -0.04014,0.26248c-0.20653,0.51706 -0.35141,1.04745 -0.48084,1.58112c-0.00287,0.01876 -0.02402,0.0529 -0.04231,0.06835c-0.0703,0.04291 -0.14741,0.02633 -0.2159,-0.04656c0.00574,-0.03749 -0.00398,-0.07834 0.00178,-0.11582c0.08428,-0.44658 0.12225,-0.90322 0.08026,-1.35769c-0.01185,-0.23495 0.0197,-0.44121 0.13122,-0.64952c0.12982,-0.22373 0.21334,-0.45748 0.37402,-0.67461z" fill="#cce5e6"/><path d="M182.69245,189.31111c-0.10113,0.0363 -0.15994,0.00423 -0.1976,-0.062c0.10683,-0.90654 0.10681,-0.90653 -0.01948,-1.74716c0.0796,-0.31207 0.23629,-0.60747 0.3593,-0.89077c0.1137,-0.01419 0.11188,0.1016 0.13412,0.1645c0.07641,0.2295 0.15568,0.4403 0.19836,0.68192c0.02333,0.16 0.01864,0.29454 -0.03512,0.43782c-0.16424,0.44876 -0.31589,0.91952 -0.43961,1.41571z" fill="#cce5e6"/><path d="M181.17147,214.87577c-0.06456,0.00542 -0.12627,-0.00788 -0.20621,-0.00577c-0.10866,0.18959 -0.12764,0.41787 -0.11292,0.63411c0.00504,0.1754 -0.01789,0.32536 -0.02831,0.49745c-0.02651,0.38162 -0.04048,0.78529 -0.05156,1.17022c-0.00574,0.03749 0.00109,0.09709 -0.00467,0.13457c-0.05843,0.27789 -0.03405,0.53491 -0.04336,0.80402c-0.11764,-0.06409 -0.21987,-0.12492 -0.32603,-0.26403c0.03404,-0.53492 0.04008,-1.09527 0.0924,-1.6456c0.03404,-0.53492 0.00639,-1.08313 0.09241,-1.64557c0.24386,0.072 0.41746,0.18689 0.5882,0.32053z" fill="#60adb2"/><path d="M186.20221,191.98562c0.06455,-0.00543 0.11371,-0.01418 0.17824,-0.01964c0.02512,0.04415 0.03764,0.06622 0.05019,0.08827c0.01294,0.33201 0.07501,0.65528 0.15247,0.98183c0.02619,0.14122 0.02441,0.25706 -0.04193,0.37828c-0.11726,0.24583 -0.20652,0.51706 -0.44143,0.69878c-0.14776,-0.28366 -0.20985,-0.6069 -0.25648,-0.92683c-0.00684,-0.05954 0.02298,-0.14998 0.04983,-0.22163c0.09785,-0.32745 0.19578,-0.655 0.30909,-0.97913z" fill="#cce5e6"/><path d="M187.14367,187.28907c0.03302,0.20076 0.06205,0.32327 0.08824,0.46449c0.03982,0.26038 0.02083,0.48864 -0.11184,0.73117c-0.20763,0.41996 -0.37183,0.86876 -0.44353,1.33743c-0.02296,0.14998 -0.04124,0.16538 -0.22344,0.10675c0.00861,-0.05625 0.00177,-0.11581 0.0104,-0.17208c0.08712,-0.46536 0.10968,-0.92527 0.08597,-1.39519c0.00181,-0.11582 0.00071,-0.21288 0.04586,-0.29999c0.16638,-0.25462 0.30196,-0.51583 0.54833,-0.77253z" fill="#cae2e3"/><path d="M184.50931,189.72249c-0.01253,-0.02206 -0.02227,-0.06294 -0.01937,-0.08167c0.09679,-0.42451 0.0982,-0.85027 0.08134,-1.26065c-0.00434,-0.38823 0.05015,-0.74448 0.25887,-1.06738c0.10293,-0.15209 0.14986,-0.35499 0.2808,-0.48167c0.18654,0.44692 0.17937,0.91019 0.00834,1.29934c-0.20081,0.47958 -0.41416,0.93705 -0.48191,1.48409c-0.02402,0.05292 -0.03551,0.1279 -0.12803,0.10795z" fill="#c9e1e2"/><path d="M186.06133,187.07492c0.10833,0.33324 0.12987,0.60899 0.14853,0.90351c0.00106,0.09707 -0.01327,0.1908 -0.05558,0.25915c-0.2191,0.495 -0.4102,1.01537 -0.57049,1.54239c-0.00574,0.03749 -0.02974,0.09039 -0.104,0.05502c0.02008,-0.13122 0.04302,-0.28119 0.04768,-0.41577c0.04194,-0.37827 0.06844,-0.75988 0.03038,-1.13605c-0.02156,-0.27579 0.03117,-0.51616 0.17354,-0.71783c0.10293,-0.15209 0.20295,-0.28547 0.32991,-0.49047z" fill="#c9e1e2"/><path d="M187.20244,192.00778c0.1069,-0.07376 0.184,-0.05713 0.26109,-0.0405c0.01254,0.02205 0.02227,0.06292 0.03477,0.08497c-0.01504,0.30662 0.03448,0.6078 0.136,0.88145c0.05416,0.16661 0.04663,0.31992 -0.02545,0.47868c-0.09321,0.1929 -0.17388,0.40791 -0.2951,0.57545c-0.14382,-0.20532 -0.29845,-0.54855 -0.30634,-0.70521c-0.01652,-0.10037 0.02579,-0.16874 0.05559,-0.25914c0.03334,-0.32202 0.14663,-0.64621 0.13945,-1.01566z" fill="#cae3e4"/><path d="M181.73903,192.1072c0.20008,-0.26668 0.35395,-0.54334 0.49524,-0.8421c0.09824,-0.01753 0.15997,-0.00423 0.22847,0.06864c0.02549,0.35406 -0.06561,0.74111 -0.02469,1.09854c-0.10867,0.18958 -0.24923,0.27545 -0.38011,0.40216c-0.07313,0.06166 -0.13373,0.14541 -0.24456,0.14088c-0.08609,-0.27034 -0.02477,-0.56696 -0.07429,-0.86815z" fill="#c8e0e1"/><path d="M184.34127,191.75845c0.13592,0.04869 0.13987,0.127 0.14382,0.20532c0.01868,0.29456 0.0402,0.57028 0.04346,0.86149c0.00395,0.07833 -0.00751,0.15331 -0.04983,0.22167c-0.13949,0.18291 -0.29442,0.36251 -0.46188,0.52008c-0.05988,-0.12911 -0.05811,-0.24496 -0.08717,-0.36742c-0.08715,-0.36739 -0.05385,-0.68943 0.1925,-0.94615c0.11549,-0.13003 0.175,-0.31085 0.21908,-0.495z" fill="#cbe4e5"/><path d="M183.36969,191.54883c0.0771,0.01661 0.12337,0.02659 0.16964,0.03657c0.00968,0.04083 0.03764,0.06625 0.03478,0.08497c-0.00075,0.21288 -0.01681,0.42245 -0.01752,0.63532c-0.00181,0.11583 -0.03156,0.20623 -0.09217,0.28998c-0.1818,0.25127 -0.37619,0.48046 -0.61682,0.69968c-0.08216,-0.19201 -0.07175,-0.36406 -0.06136,-0.53611c0.01148,-0.07496 0.02297,-0.14999 0.06237,-0.19955c0.24637,-0.25672 0.39626,-0.6117 0.52105,-1.01085z" fill="#c8e0e1"/><path d="M182.43401,197.04061c-0.03156,0.20622 -0.0814,0.42789 -0.03581,0.65076c0.01937,0.08166 -0.01041,0.17203 -0.02473,0.26578c-0.26502,-0.03782 -0.50317,-0.14728 -0.71442,-0.32846c0.071,-0.25581 0.04946,-0.53156 0.05302,-0.76318c0.12229,-0.07045 0.22165,0.00908 0.31988,-0.00847c0.14167,0.0112 0.29303,0.06324 0.40206,0.18357z" fill="#85d5d9"/><path d="M188.17518,188.46061c-0.12013,0.26458 -0.24023,0.52917 -0.34783,0.8158c-0.08642,0.25249 -0.00893,0.57906 -0.28329,0.81035c0.09749,-0.63739 0.07559,-1.22315 0.05368,-1.80886c0.10867,-0.18958 0.23558,-0.3946 0.41564,-0.53004c0.02512,0.04415 0.03765,0.06624 0.0502,0.08827c0.04843,0.20409 0.08145,0.40491 0.11158,0.6244z" fill="#c6dede"/><path d="M183.90368,186.18335c-0.15672,0.29545 -0.29223,0.55665 -0.44895,0.8521c-0.10615,-0.13911 -0.1295,-0.29908 -0.18939,-0.42818c-0.05706,-0.14784 -0.14778,-0.28368 -0.16823,-0.46236c0.02008,-0.13122 0.09897,-0.23042 0.16241,-0.33291c0.06346,-0.10251 0.14238,-0.20166 0.23669,-0.29754c0.19869,0.15907 0.28763,0.41067 0.40745,0.66893z" fill="#cae3e3"/><path d="M181.69973,189.13565c-0.02193,-0.58573 -0.05819,-1.07771 -0.18985,-1.57088c0.09899,-0.23043 0.18253,-0.46414 0.28436,-0.7133c0.17755,0.19323 0.22025,0.43484 0.29663,0.66432c0.00968,0.04083 0.00107,0.09709 -0.00467,0.13456c-0.11796,0.45869 -0.23591,0.91743 -0.38649,1.48526z" fill="#cae3e4"/><path d="M185.03466,193.78655c-0.10833,-0.33323 -0.18871,-0.64107 0.00746,-0.98606c0.13268,-0.24251 0.19113,-0.52041 0.24956,-0.79828c0.01721,-0.11251 0.09716,-0.11462 0.18398,-0.05716c-0.07671,0.29329 -0.04264,0.59118 -0.00854,0.88903c0.03015,0.21952 -0.0265,0.3816 -0.12942,0.5337c-0.08463,0.13666 -0.14131,0.29874 -0.30305,0.41878z" fill="#c8e0e1"/><path d="M182.25605,195.70468c0.17468,0.21199 0.09397,0.42694 0.04415,0.64861c-0.07888,0.09915 -0.16567,0.04173 -0.24563,0.04385c-0.1976,-0.06201 -0.37119,-0.17694 -0.53907,-0.32936c0.04696,-0.20289 0.01684,-0.42242 0.1226,-0.59326c0.07998,-0.0021 0.12626,0.00788 0.18793,0.02117c0.1485,0.07077 0.29696,0.14149 0.43002,0.20897z" fill="#85d4d9"/><path d="M183.57104,193.04471c0.04951,0.30117 0.07393,0.55819 0.11376,0.81856c-0.17035,0.17627 -0.35321,0.33049 -0.54583,0.44385c-0.10223,-0.06078 -0.11584,-0.17993 -0.15064,-0.26488c-0.03479,-0.08497 -0.06958,-0.16993 -0.03407,-0.29784c0.15781,-0.19833 0.36756,-0.4242 0.61681,-0.69968z" fill="#c7dfe0"/><path d="M185.85166,194.48574c-0.13665,0.16419 -0.25784,0.33167 -0.43787,0.46716c-0.15926,-0.20865 -0.20194,-0.45024 -0.27261,-0.71726c0.14237,-0.20167 0.28472,-0.40338 0.42997,-0.62381c0.11406,0.29574 0.18474,0.56281 0.2805,0.87392z" fill="#c8e0e1"/><path d="M184.73572,185.7431c0.10043,0.17664 0.20084,0.35321 0.24642,0.57607c-0.13268,0.24251 -0.28079,0.48168 -0.43175,0.73958c-0.03082,-0.00666 -0.06167,-0.01331 -0.0588,-0.03207c-0.06672,-0.1887 -0.13055,-0.39611 -0.18186,-0.58148c-0.01937,-0.08167 -0.02335,-0.15999 0.0161,-0.20955c0.12695,-0.205 0.20763,-0.41998 0.40991,-0.49259z" fill="#c4dcdd"/><path d="M187.00632,186.83338c-0.16065,0.21709 -0.30589,0.43751 -0.46656,0.65464c-0.11475,-0.08287 -0.0918,-0.23283 -0.12087,-0.35531c-0.02905,-0.12245 -0.03983,-0.26037 -0.06603,-0.40156c0.11152,-0.20832 0.2887,-0.32497 0.44077,-0.48589c0.14954,0.16781 0.18256,0.36863 0.21268,0.58814z" fill="#c8e0e1"/><path d="M186.29772,194.48515c0.14812,-0.23917 0.27794,-0.46295 0.42891,-0.72085c0.13128,0.18323 0.17682,0.40613 0.29269,0.58606c-0.10186,0.24914 -0.28188,0.38462 -0.43966,0.58294c-0.137,-0.14575 -0.24604,-0.26611 -0.28189,-0.44814z" fill="#c6ddde"/><path d="M188.20446,191.91412c0.10547,0.352 0.12811,0.72482 0.28555,1.04928c-0.08067,0.215 -0.14308,0.41458 -0.28257,0.5975c-0.16497,-0.17116 -0.24715,-0.36319 -0.17328,-0.63773c0.09788,-0.32745 0.11866,-0.67158 0.17028,-1.00906z" fill="#b9cfd0"/><path d="M180.87628,188.68685c-0.08391,-0.07621 -0.02335,-0.15999 -0.02728,-0.23826c-0.00503,-0.17539 0.00534,-0.3474 -0.06998,-0.47991c-0.09182,-0.23285 -0.04489,-0.43572 0.0204,-0.65405c0.02978,-0.09042 0.07493,-0.1775 0.12586,-0.30208c0.16896,0.24947 0.29447,0.47025 0.17831,0.81312c-0.08353,0.23375 -0.10829,0.49954 -0.16099,0.73993c-0.00863,0.05624 -0.01721,0.1125 -0.06634,0.12126z" fill="#c0d8d8"/><path d="M180.96087,192.40408c-0.0513,-0.18538 -0.05919,-0.34199 -0.03626,-0.49196c0.01148,-0.07496 0.02578,-0.16876 0.06524,-0.21832c0.17609,-0.21377 0.30875,-0.45627 0.44145,-0.69878c0.10794,0.02332 0.08105,0.09495 0.07246,0.15123c-0.02868,0.18748 -0.06021,0.39372 -0.05805,0.58784c-0.00644,0.25037 -0.07852,0.40912 -0.25282,0.50711c-0.08571,0.03961 -0.14058,0.08587 -0.232,0.16295z" fill="#c1d9d9"/><path d="M184.74306,194.13035c-0.12405,0.18623 -0.27042,0.30961 -0.42245,0.47046c-0.15243,-0.14908 -0.16711,-0.36527 -0.23387,-0.55399c0.14523,-0.22044 0.34067,-0.35256 0.52644,-0.52551c0.07926,0.21078 0.09685,0.40826 0.12988,0.60904z" fill="#c3dbdc"/><path d="M185.53337,187.19342c-0.05241,-0.28244 -0.09221,-0.54283 -0.14745,-0.8065c0.08748,-0.15546 0.17213,-0.29208 0.32812,-0.37465c0.11585,0.17995 0.16427,0.38404 0.22816,0.59149c-0.09899,0.23042 -0.22302,0.41665 -0.40879,0.58961z" fill="#c3dadb"/><path d="M183.23864,194.69661c0.18005,-0.13546 0.34176,-0.25548 0.50349,-0.37552c0.13414,0.1645 0.18257,0.36862 0.23099,0.57271c-0.13375,0.14545 -0.27719,0.25007 -0.4486,0.32923c-0.04053,-0.04749 -0.0936,-0.11705 -0.11871,-0.16116c-0.0599,-0.12911 -0.09182,-0.23282 -0.16715,-0.36531z" fill="#c4dbdc"/><path d="M180.72941,190.68863c-0.0545,0.35624 -0.09752,0.63746 -0.14336,0.93739c-0.09719,0.11462 -0.20408,0.18836 -0.35144,0.21464c-0.07817,-0.1137 -0.02727,-0.23829 -0.04089,-0.35742c-0.01364,-0.11912 -0.01185,-0.23495 0.00247,-0.3287c0.18292,-0.15425 0.32922,-0.2776 0.53327,-0.46594z" fill="#c2d9da"/><path d="M183.75123,185.20148c0.08463,-0.13666 0.17891,-0.23255 0.28294,-0.28756c0.12623,0.00788 0.17072,0.13372 0.23921,0.20655c0.06849,0.07283 0.15816,0.11157 0.18434,0.25278c-0.05952,0.18083 -0.19328,0.32626 -0.33277,0.50924c-0.06279,-0.1104 -0.12556,-0.22077 -0.19118,-0.3124c-0.05988,-0.12911 -0.11981,-0.25823 -0.18258,-0.36863z" fill="#c5ddde"/><path d="M185.1183,195.21836c-0.1058,0.17087 -0.23777,0.20049 -0.34749,0.293c-0.15528,-0.13036 -0.23744,-0.32238 -0.33216,-0.53645c0.13088,-0.1267 0.2618,-0.25338 0.37729,-0.38341c0.16496,0.17117 0.20769,0.41279 0.30237,0.62686z" fill="#c3dbdc"/><path d="M182.28487,186.97671c-0.05311,-0.06955 -0.07821,-0.11366 -0.10332,-0.15779c-0.04734,-0.10703 -0.09183,-0.23285 -0.15172,-0.36198c0.14812,-0.23917 0.24993,-0.48834 0.45112,-0.65797c0.10223,0.06078 0.13416,0.1645 0.17576,0.30905c-0.1047,0.26791 -0.23058,0.56996 -0.37183,0.86874z" fill="#c7dfe0"/><path d="M182.52236,193.65123c-0.17715,0.1167 -0.29836,0.28419 -0.48234,0.34134c-0.12158,-0.14246 -0.10547,-0.35197 -0.19621,-0.48774c0.1761,-0.21377 0.35322,-0.3305 0.53613,-0.4847c0.12842,0.20202 0.09685,0.40822 0.14245,0.63109z" fill="#c7dee0"/><path d="M182.03491,196.83831c-0.09824,0.01754 -0.1976,-0.06203 -0.31989,0.00847c-0.00644,0.25037 -0.00034,0.5228 -0.05303,0.76319c-0.05883,-0.03206 -0.13306,-0.06745 -0.18901,-0.11821c-0.08391,-0.07621 -0.13125,-0.18325 -0.1112,-0.31452c0.01898,-0.22828 0.03509,-0.43782 0.05412,-0.66615c0.20049,0.04325 0.29015,0.08197 0.61903,0.32723z" fill="#61acb1"/><path d="M187.97713,187.25587c-0.13665,0.16419 -0.25209,0.29416 -0.40416,0.45505c-0.05525,-0.26367 -0.11337,-0.50859 -0.1532,-0.76895c0.10002,-0.13335 0.19724,-0.24794 0.3224,-0.33714c0.12841,0.20201 0.17683,0.4061 0.23495,0.65103z" fill="#c2dada"/><path d="M180.97485,192.83318c0.13665,-0.16419 0.27721,-0.25005 0.43898,-0.37007c0.02155,0.27579 0.04881,0.51407 0.07608,0.75237c-0.08748,0.15544 -0.20406,0.18837 -0.34176,0.25548c-0.11872,-0.16116 -0.13345,-0.37742 -0.17328,-0.63773z" fill="#c1d9d9"/><path d="M186.24343,186.30081c-0.11011,-0.21744 -0.17969,-0.38736 -0.2647,-0.56067c0.07494,-0.17749 0.2184,-0.28211 0.36186,-0.38672c0.12443,0.12369 0.2306,0.26279 0.29447,0.47023c-0.08068,0.21499 -0.24926,0.27545 -0.39161,0.47716z" fill="#c6dedf"/><path d="M186.29675,195.22086c-0.13375,0.14544 -0.28009,0.2688 -0.41096,0.3955c-0.13592,-0.04869 -0.21698,-0.14363 -0.28946,-0.29486c0.09899,-0.23042 0.2887,-0.32498 0.4282,-0.50797c0.12735,0.10492 0.18434,0.25279 0.27223,0.40732z" fill="#c0d7d7"/><path d="M181.62717,186.48617c-0.09322,0.1929 -0.14308,0.41455 -0.31053,0.57211c-0.07247,-0.15123 -0.14778,-0.2837 -0.2231,-0.41612c0.03443,-0.22494 0.1402,-0.39578 0.28652,-0.51914c0.11476,0.08287 0.17752,0.19322 0.24713,0.36314z" fill="#c3dadb"/><path d="M181.84143,195.49903c-0.0617,-0.01331 -0.12626,-0.00786 -0.18796,-0.02115c-0.1058,0.17088 -0.07567,0.39035 -0.1226,0.59326c-0.11081,-0.00455 -0.1553,-0.13036 -0.26038,-0.17238c-0.0244,-0.25703 0.05625,-0.47203 -0.01441,-0.73902c0.15708,0.01455 0.24099,0.09072 0.34038,0.17027c0.07139,0.05411 0.18507,0.03996 0.24495,0.16905z" fill="#5aa0a4"/><path d="M188.93413,193.60143c-0.09322,0.19289 -0.14309,0.41459 -0.29225,0.55669c-0.10223,-0.06078 -0.15244,-0.14912 -0.22778,-0.28153c0.0624,-0.19959 0.15562,-0.39249 0.27395,-0.54127c0.10223,0.06079 0.1553,0.13035 0.24603,0.26612z" fill="#bdd3d4"/><path d="M183.78312,195.51124c0.12518,-0.0892 0.23491,-0.1817 0.34462,-0.27422c0.12445,0.1237 0.19692,0.2749 0.2665,0.44482c-0.06921,0.13997 -0.18292,0.15425 -0.29085,0.13094c-0.1388,-0.02991 -0.27757,-0.05986 -0.32028,-0.3015z" fill="#bdd4d5"/><path d="M188.89714,188.63572c-0.11152,0.20831 -0.22019,0.39794 -0.33169,0.60625c-0.094,-0.42694 -0.11659,-0.79979 0.24059,-1.05196c0.07817,0.1137 0.07065,0.26702 0.09111,0.4457z" fill="#bbd2d3"/><path d="M182.41488,194.77065c-0.11188,-0.10162 -0.15638,-0.22743 -0.20084,-0.35323c0.02008,-0.13122 0.10294,-0.1521 0.1761,-0.21376c0.05486,-0.04625 0.11259,-0.11125 0.208,-0.11002c0.11188,0.10162 0.08323,0.28906 0.19227,0.40942c-0.11833,0.14878 -0.24061,0.21923 -0.37545,0.26762z" fill="#c3dadb"/><path d="M184.87545,189.724c0.0825,-0.33079 0.16493,-0.6616 0.30909,-0.97909c0.08964,0.03872 0.09077,0.1358 0.07639,0.22952c-0.02187,0.24704 -0.05912,0.49072 -0.09355,0.7157c-0.02581,0.16872 -0.12409,0.18629 -0.29192,0.03385z" fill="#b1c6c7"/><path d="M187.17003,195.44799c0.05375,-0.14332 0.15491,-0.17961 0.23094,-0.26003c0.13664,-0.1642 0.2783,-0.153 0.44905,-0.01931c-0.13268,0.2425 -0.34357,0.37129 -0.5207,0.488c-0.10509,-0.04203 -0.14563,-0.08951 -0.15926,-0.20865z" fill="#bbd2d3"/><path d="M186.97063,189.98238c-0.0072,-0.36953 0.14949,-0.66491 0.29365,-0.98244c0.0524,0.28244 0.00934,0.56365 -0.01536,0.82943c-0.01039,0.17206 -0.06239,0.19961 -0.27828,0.15299z" fill="#bad1d2"/><path d="M188.97885,192.37169c0.085,0.17328 0.17574,0.30906 0.26075,0.4823c-0.02976,0.09042 -0.0961,0.21167 -0.14702,0.33624c-0.26326,-0.15363 -0.26039,-0.17238 -0.20769,-0.41279c0.02009,-0.13122 0.05559,-0.25915 0.09394,-0.40578z" fill="#b5cbcc"/><path d="M185.77034,184.70754c0.1456,0.08952 0.22383,0.20321 0.302,0.31691c-0.07208,0.15876 -0.20694,0.2071 -0.33207,0.29632c-0.09364,-0.117 -0.17177,-0.23072 -0.2654,-0.34775c0.04123,-0.16539 0.18574,-0.17297 0.29551,-0.26549z" fill="#c0d7d8"/><path d="M187.81151,193.64979c0.08677,0.05748 0.13416,0.16449 0.17865,0.2903c-0.08356,0.23373 -0.22304,0.41668 -0.38765,0.55544c-0.11081,-0.00455 -0.13306,-0.06744 -0.14954,-0.16781c0.11435,-0.22709 0.22877,-0.45418 0.35859,-0.67792z" fill="#bdd4d4"/><path d="M188.21099,186.9771c-0.06672,-0.1887 -0.11515,-0.39278 -0.18187,-0.58149c0.07604,-0.08042 0.15888,-0.10129 0.2514,-0.08135c0.08677,0.05747 0.1033,0.15782 0.13522,0.26153c0.01937,0.08167 0.03874,0.16328 0.05812,0.24495c-0.06347,0.10253 -0.13664,0.1642 -0.26289,0.15632z" fill="#b6cccc"/><path d="M185.23029,185.94667c-0.08499,-0.17328 -0.15745,-0.32446 -0.2579,-0.50109c0.03261,-0.10915 0.09609,-0.21169 0.24351,-0.23799c0.09365,0.117 0.18436,0.25278 0.29051,0.39188c-0.08463,0.13666 -0.15096,0.25794 -0.27614,0.34713z" fill="#c1d9d9"/><path d="M188.73886,187.69134c-0.08463,0.13666 -0.16352,0.23587 -0.28581,0.30629c-0.085,-0.17328 -0.08715,-0.36743 -0.11048,-0.52737c0.05375,-0.14332 0.15204,-0.16086 0.23775,-0.20047c0.04339,0.02873 0.07424,0.03539 0.07139,0.05411c0.02903,0.12246 0.0581,0.24493 0.08715,0.36743z" fill="#b7cdce"/><path d="M189.30967,189.48001c-0.09181,-0.23286 -0.06603,-0.40158 -0.07106,-0.57696c-0.0176,-0.19747 0.08642,-0.25249 0.20869,-0.32294c0.085,0.17328 0.09004,0.34865 0.12878,0.51195c-0.05953,0.18082 -0.22235,0.2038 -0.26644,0.38795z" fill="#b6cccc"/><path d="M188.44563,194.50313c-0.10004,0.13335 -0.17892,0.23251 -0.26069,0.35045c-0.14167,-0.0112 -0.23419,-0.03118 -0.3278,-0.14819c0.11834,-0.14877 0.22126,-0.30087 0.32129,-0.43421c0.14738,-0.02633 0.19185,0.09951 0.28153,0.13819c-0.00574,0.03749 0.00396,0.07834 -0.01432,0.09376z" fill="#c2dada"/><path d="M184.91678,184.87196c-0.06635,0.12122 -0.1212,0.16751 -0.20405,0.18839c-0.09541,-0.00123 -0.1456,-0.08951 -0.21412,-0.16238c-0.0531,-0.06955 -0.15817,-0.11158 -0.15352,-0.24615c0.09432,-0.09583 0.20117,-0.1696 0.34572,-0.17717c0.09076,0.13577 0.15065,0.26491 0.22598,0.39737z" fill="#bbd2d3"/><path d="M181.22954,193.87579c0.12229,-0.07044 0.21087,-0.12881 0.31486,-0.18384c0.0879,0.15453 0.12661,0.31782 0.18079,0.48447c-0.07888,0.09916 -0.16748,0.15756 -0.27542,0.13421c-0.028,-0.0254 -0.05593,-0.05082 -0.06565,-0.09164c-0.0502,-0.08827 -0.09756,-0.19538 -0.1546,-0.34323z" fill="#bbd2d3"/><path d="M189.39805,192.44275c-0.15352,-0.24616 -0.15353,-0.24616 -0.18186,-0.58148c0.10005,-0.13335 0.22629,-0.12546 0.37368,-0.15174c0.00612,0.27247 -0.10826,0.49953 -0.19182,0.73326z" fill="#adc2c3"/><path d="M182.63692,195.08969c0.07888,-0.09916 0.18293,-0.15421 0.29371,-0.14964c0.0879,0.15453 0.16322,0.28692 0.23563,0.43814c-0.29085,0.13093 -0.30626,0.12762 -0.52938,-0.28847z" fill="#b5cbcc"/><path d="M187.59622,186.20539c-0.09718,0.11463 -0.17323,0.19501 -0.29551,0.26545c-0.10901,-0.12033 -0.12947,-0.29908 -0.19907,-0.46903c0.03946,-0.04959 0.07601,-0.0804 0.11259,-0.11127c0.03658,-0.03085 0.0857,-0.03962 0.13772,-0.06714c0.13019,0.08619 0.19007,0.21529 0.24427,0.38194z" fill="#bbd1d2"/><path d="M180.43903,192.79503c-0.13414,-0.16451 -0.11515,-0.3928 -0.16933,-0.5594c0.08177,-0.1179 0.19259,-0.11341 0.29662,-0.16842c0.07641,0.22949 0.07856,0.42365 0.00075,0.61988c-0.00862,0.05624 -0.07602,0.08043 -0.12802,0.10794z" fill="#b6cccd"/><path d="M182.27724,185.46444c-0.14523,0.22044 -0.30304,0.41877 -0.44539,0.62044c-0.10509,-0.04205 -0.15816,-0.11156 -0.19977,-0.25611c0.18574,-0.17297 0.37151,-0.3459 0.59493,-0.45264c0.02512,0.04418 0.03765,0.06624 0.05021,0.08827z" fill="#acc1c2"/><path d="M186.20628,189.04284c0.00899,0.25371 0.00255,0.50409 -0.06559,0.74112c-0.02978,0.09042 -0.08749,0.15542 -0.16459,0.1388c-0.03081,-0.00666 -0.08678,-0.05748 -0.08392,-0.07622c0.02759,-0.28454 0.17855,-0.54246 0.31409,-0.80371z" fill="#a7bbbb"/><path d="M187.18764,185.43938c-0.04806,0.10585 -0.13375,0.14545 -0.23488,0.18171c-0.09076,-0.13577 -0.18149,-0.27156 -0.27223,-0.40734c0.08463,-0.13666 0.18003,-0.13544 0.28797,-0.11215c0.08391,0.07621 0.15926,0.20864 0.21915,0.3378z" fill="#b7cdcd"/><path d="M184.93509,195.89537c0.1058,-0.17088 0.22809,-0.24126 0.36579,-0.30842c0.11476,0.08287 0.19583,0.17782 0.2317,0.35986c-0.20226,0.07255 -0.38447,0.01387 -0.59749,-0.05142z" fill="#b7cece"/><path d="M179.83355,190.92142c-0.07354,-0.24826 0.02543,-0.47866 -0.02302,-0.68276c0.07888,-0.09915 0.13771,-0.0671 0.15997,-0.00421c0.05417,0.16661 0.09005,0.34867 0.06135,0.53612c-0.02403,0.05292 -0.02691,0.07165 -0.19832,0.15088z" fill="#b4cacb"/><path d="M182.87399,185.7288c-0.08391,-0.07619 -0.12159,-0.14243 -0.13811,-0.2428c0.13664,-0.1642 0.27614,-0.34712 0.51498,-0.45052c-0.03334,0.32202 -0.20081,0.47955 -0.37688,0.69334z" fill="#b2c8c9"/><path d="M181.85862,194.5538c0.09364,0.117 0.15925,0.20865 0.17288,0.32779c-0.02689,0.07166 -0.07603,0.08046 -0.12518,0.08921c-0.19651,0.03506 -0.25356,-0.11283 -0.30198,-0.31691c0.08284,-0.02089 0.16856,-0.06049 0.25427,-0.10009z" fill="#b5cbcb"/><path d="M188.03257,190.01785c0.02186,-0.24704 0.05339,-0.45324 0.13407,-0.66821c0.07997,-0.00209 0.10222,0.06078 0.09362,0.11701c-0.00467,0.13458 0.00612,0.27248 0.00146,0.40702c-0.02296,0.14998 -0.09036,0.17414 -0.22914,0.14418z" fill="#91a3a3"/><path d="M182.22972,188.37856c0.07354,0.24826 0.02083,0.48865 -0.01359,0.71362c-0.00574,0.03749 -0.04232,0.06835 -0.07603,0.08042c-0.03082,-0.00666 -0.07138,-0.05411 -0.06852,-0.07289c-0.00612,-0.27247 0.06201,-0.50952 0.15811,-0.72118z" fill="#99abac"/><path d="M181.39203,188.85626c-0.11942,0.05171 -0.19652,0.03505 -0.21303,-0.06534c-0.01076,-0.1379 0.04876,-0.31869 0.14772,-0.54911c0.0793,0.21078 0.04774,0.41696 0.06532,0.61442z" fill="#93a5a6"/><path d="M186.46539,195.99313c0.15493,-0.17958 0.29728,-0.38129 0.55194,-0.17143c-0.15781,0.19832 -0.35827,0.15509 -0.55194,0.17143z" fill="#9aadad"/><path d="M186.77137,192.53448c-0.02333,-0.15999 -0.04378,-0.33865 -0.06996,-0.47991c0.06062,-0.08375 0.10974,-0.09253 0.1994,-0.05379c0.05132,0.18539 -0.03905,0.35955 -0.04943,0.5316c-0.03082,-0.00666 -0.04627,-0.01 -0.07999,0.00211z" fill="#c5dddd"/><path d="M184.17681,188.87607c0.10151,0.27366 0.06421,0.51741 -0.03473,0.7478c-0.00287,0.01876 -0.03659,0.03086 -0.06743,0.0242c-0.04914,0.00876 -0.07138,-0.05411 -0.06563,-0.09162c0.01609,-0.20954 0.0968,-0.42456 0.1678,-0.68038z" fill="#aec2c3"/><path d="M180.66678,193.07656c0.085,0.17328 0.1026,0.37071 0.12304,0.54946c-0.0606,0.08376 -0.11944,0.0517 -0.13881,-0.02993c-0.04162,-0.14457 -0.08607,-0.27034 -0.10939,-0.43031c-0.02512,-0.04418 0.02975,-0.09039 0.12516,-0.08919z" fill="#9caeaf"/><path d="M186.43057,184.86935c-0.1302,-0.0862 -0.21123,-0.18112 -0.30199,-0.31692c0.21195,-0.03174 0.37298,0.0611 0.55804,0.10103c-0.02403,0.05295 -0.02978,0.09042 -0.04806,0.1058c-0.0703,0.04291 -0.13769,0.06712 -0.20797,0.11006z" fill="#a9bebf"/><path d="M182.81451,191.429c0.1137,-0.01419 0.17248,0.01784 0.2256,0.08744c-0.01328,0.1908 -0.08534,0.34952 -0.26825,0.50376c0.00357,-0.23165 0.02939,-0.40036 0.04263,-0.59116z" fill="#b9cfd0"/><path d="M187.72853,192.00506c0.06061,-0.08374 0.12518,-0.08917 0.18971,-0.09463c0.07137,0.05414 0.05705,0.14784 -0.05807,0.58783c-0.16786,-0.15241 -0.09005,-0.34866 -0.13165,-0.49321z" fill="#869797"/><path d="M183.24576,188.71395c-0.09215,0.28998 0.00649,0.58242 -0.24382,0.76078c-0.01868,-0.29454 0.03114,-0.51616 0.24382,-0.76078z" fill="#93a4a5"/><path d="M188.97504,189.27221c-0.04302,0.28119 -0.07171,0.46869 -0.10038,0.65616c-0.00574,0.03749 -0.04232,0.06835 -0.08857,0.05834c-0.01545,-0.00333 -0.0434,-0.02874 -0.05596,-0.0508c0.00354,-0.23161 0.03511,-0.4379 0.24489,-0.66371z" fill="#94a5a6"/><path d="M188.51186,191.8836c0.10402,-0.055 0.15311,-0.0638 0.21876,0.02782c-0.00752,0.15329 -0.0179,0.32537 -0.09286,0.50287c-0.13412,-0.16454 -0.10545,-0.35197 -0.12592,-0.53066z" fill="#abbfc0"/><path d="M189.35439,188.25018c-0.08284,0.02088 -0.11655,0.03295 -0.14742,0.0263c-0.1295,-0.29907 -0.12947,-0.29903 -0.04306,-0.55151c0.137,0.14575 0.10836,0.33321 0.19045,0.52522z" fill="#acc0c1"/><path d="M186.80356,195.13649c0.11549,-0.13003 0.21839,-0.28211 0.34929,-0.4088c0.05486,-0.04625 0.11656,-0.03292 0.1456,0.08951c-0.13665,0.16419 -0.27039,0.30962 -0.49488,0.31927z" fill="#9fb2b2"/><path d="M187.86483,186.01153c-0.06565,-0.09166 -0.10329,-0.15788 -0.1198,-0.25823c0.04231,-0.06837 0.09431,-0.09587 0.17429,-0.09798c0.08965,0.03873 0.13699,0.14576 0.18434,0.25281c-0.04806,0.10585 -0.14345,0.10461 -0.23882,0.10337z" fill="#aec2c3"/><path d="M184.8825,192.28188c-0.10901,-0.12032 -0.08895,-0.25161 -0.08431,-0.38616c0.00863,-0.05624 0.06059,-0.08373 0.10686,-0.07376c0.03082,0.00666 0.0714,0.05413 0.06564,0.09162c0.02905,0.12245 -0.019,0.22833 -0.08821,0.36829z" fill="#91a2a3"/><path d="M185.41631,184.41812c-0.2184,0.28211 -0.23667,0.29758 -0.39701,-0.00816c0.12911,-0.01086 0.2514,-0.08133 0.39701,0.00816z" fill="#869696"/><path d="M180.53128,188.65114c-0.11584,-0.17995 -0.05239,-0.28241 -0.01689,-0.41036c0.12444,0.1237 0.12444,0.1237 0.01689,0.41036z" fill="#555f5f"/><path d="M185.90059,191.97866c-0.01433,0.09375 -0.03441,0.22494 -0.10075,0.34623c-0.11298,-0.19869 -0.1015,-0.27366 -0.01978,-0.39158c0.02116,-0.03418 0.06744,-0.0242 0.1205,0.04538z" fill="#93a5a6"/><path d="M189.59977,189.56196c0.11981,0.25824 0.09867,0.29243 -0.15672,0.2954c-0.01076,-0.13792 0.06523,-0.21833 0.15672,-0.2954z" fill="#8b9b9c"/><path d="M180.30782,187.92514c0.01758,0.19747 -0.02078,0.34408 -0.05917,0.49077c-0.10113,0.0363 -0.14166,-0.01121 -0.13018,-0.08621c0.02294,-0.14998 0.06131,-0.29663 0.18931,-0.40456z" fill="#9aacad"/><path d="M188.95695,187.09927c0.07817,0.1137 0.16211,0.18993 0.12376,0.33658c-0.00288,0.01876 -0.02115,0.03419 -0.03657,0.03086c-0.13307,-0.06745 -0.14671,-0.18661 -0.08717,-0.36742z" fill="#5f6a6b"/><path d="M183.87216,191.909c-0.03479,-0.08497 -0.02333,-0.16 0.00359,-0.23165c0.02116,-0.03418 0.05773,-0.06501 0.08571,-0.03959c0.028,0.0254 0.0531,0.06955 0.04733,0.10705c-0.01148,0.07496 -0.03837,0.14663 -0.13664,0.16417z" fill="#636e6f"/><path d="M187.41293,185.21688c0.11656,-0.03293 0.19079,0.00241 0.22955,0.1657c-0.13484,0.04836 -0.18794,-0.02115 -0.22955,-0.1657z" fill="#4a5354"/></g><g data-paper-data="{&quot;index&quot;:null}" fill="#000000" stroke="#000000" stroke-width="1.2"><path d="M173.24458,210.90706c-0.08217,-2.0475 1.7568,-4.79955 2.36741,-7.18758c0.65741,-2.57105 0.09115,-4.58857 1.14837,-5.72305c0.73846,-0.79241 2.02859,-0.45193 2.67867,-0.15935c1.5808,0.71145 1.95711,4.82831 0.84051,9.19522c-1.11658,4.36691 -3.30325,7.33025 -4.88402,6.61879c-0.71633,-0.3224 -2.08283,-1.04733 -2.15093,-2.74401z"/><path d="M175.43765,214.40066c-0.095,-2.85626 2.25451,-8.66731 2.25451,-8.66731c0,0 0.12859,-4.31289 0.15282,-4.40242c1.54298,-5.7066 4.29672,-4.53807 7.40945,-3.13712c1.48145,0.66675 3.55572,2.48896 3.90591,4.65049c0.39716,2.45142 -0.78205,5.09707 -1.60186,8.30327c-1.54266,6.03323 -4.72894,10.31747 -7.8905,8.89454c-1.39171,-0.62636 -4.10341,-1.8266 -4.23031,-5.64146z"/></g></g><path d="M156.20644,211.90539c0,0 2.89478,-6.51684 2.53042,-8.51568c-0.08912,-0.48889 -2.50891,7.67186 -2.90301,7.20496c-1.87933,-2.22653 -6.46225,-4.05341 -6.46225,-4.05341c0,0 4.40595,-7.08073 7.48181,-10.15253c0.84928,-0.84816 2.96869,-0.17761 3.20553,-0.43657c0.30588,-0.33445 7.71991,0.30133 8.00333,0.50134c3.39027,2.39259 6.26556,7.90352 6.26556,7.90352c0,0 -1.95252,2.9806 -1.98681,6.45105c-0.00024,0.02466 -1.82491,-5.52735 -1.82872,-5.14075c-0.02289,2.31608 0.51684,6.23721 0.51684,6.23721c0,0 -4.46407,1.30041 -6.68592,1.35237c-2.44938,0.05727 -8.13677,-1.35148 -8.13677,-1.35148z" fill="#676370" fill-rule="nonzero" stroke="#36343b" stroke-width="2.5" stroke-linecap="butt" stroke-linejoin="miter"/><path d="M153.68462,199.29672c0,0 -4.85411,0.58829 -5.97607,0.56702c-0.49003,-0.00928 -0.84479,-0.46565 -0.81485,-0.98421c0.03189,-0.55225 0.46556,-1.16852 0.46556,-1.16852" fill="none" fill-rule="nonzero" stroke="#36343b" stroke-width="1" stroke-linecap="round" stroke-linejoin="miter"/><path d="M149.0342,197.92124l0.10821,-0.09656c0.07279,-0.03951 0.14559,-0.07903 0.21838,-0.11854c0.95797,-0.20276 5.44099,-2.05222 3.98046,0.53913c-0.82047,0.22848 -4.69652,0.97127 -4.56048,-0.14018c0,0 0.05979,-0.25782 0.25345,-0.18387z" fill="#000000" fill-rule="nonzero" stroke="none" stroke-width="0.5" stroke-linecap="butt" stroke-linejoin="miter"/><path d="M155.33845,196.26509c0,0 -1.73645,2.18483 -2.11293,2.58903c-0.20405,0.21906 -2.77024,0.33379 -3.12486,0.36456c-1.56598,0.13589 -2.80541,0.34511 -2.80541,-0.10077c0,-0.15139 -0.01249,-0.84629 0.376,-1.12541c1.01477,-0.72907 3.39666,-1.43093 4.86851,-1.6171c2.015,-0.25489 2.79868,-0.11029 2.79868,-0.11029z" fill="url(#color-1)" fill-rule="nonzero" stroke="#737373" stroke-width="0" stroke-linecap="butt" stroke-linejoin="miter"/><g stroke-linejoin="miter"><path d="M135.38072,170.15923c2.65441,-1.27288 5.16426,-1.04863 5.60589,0.50086c0.44164,1.54949 -1.35216,3.83745 -4.00658,5.11033c-2.65441,1.27288 -5.16427,1.04864 -5.6059,-0.50085c-0.44164,-1.54949 1.35217,-3.83745 4.00659,-5.11032z" fill="#000000" fill-rule="nonzero" stroke="#454545" stroke-width="3" stroke-linecap="butt"/><path d="M135.10125,163.55517c2.87612,0.48657 5.08309,2.32619 4.92941,4.10893c-0.15369,1.78274 -2.60983,2.83348 -5.48595,2.34691c-2.87612,-0.48657 -5.08309,-2.32619 -4.92941,-4.10893c0.15369,-1.78274 2.60983,-2.83348 5.48595,-2.34691z" fill="#000000" fill-rule="nonzero" stroke="#454545" stroke-width="3" stroke-linecap="butt"/><g stroke-linecap="butt"><path d="M181.2864,161.56947c2.47909,14.41921 -4.73916,28.70054 -16.12244,31.89823c-11.38326,3.1977 -22.62091,-5.89912 -25.09999,-20.31832c-2.47909,-14.4192 4.73916,-28.70054 16.12244,-31.89825c11.38326,-3.1977 22.6209,5.89912 25.09998,20.31833z" fill="none" fill-rule="nonzero" stroke="#000000" stroke-width="4.5"/><g><g fill-rule="nonzero"><path d="M145.56885,153.92909l-0.01076,-0.00607" data-paper-data="{&quot;index&quot;:null}" fill="#ffab19" stroke="#000000" stroke-width="5"/><g data-paper-data="{&quot;index&quot;:null}" fill="none" stroke="none" stroke-width="1" font-family="sans-serif" font-weight="normal" font-size="12" text-anchor="start"/></g><path d="M145.56885,153.92909l-0.01076,-0.00607" data-paper-data="{&quot;index&quot;:null}" fill="#ffab19" fill-rule="nonzero" stroke="#000000" stroke-width="5"/><path d="M160.66479,168.73664" fill="#001026" fill-rule="evenodd" stroke="#000000" stroke-width="5"/><g data-paper-data="{&quot;index&quot;:null}" fill="none" fill-rule="nonzero" stroke="none" stroke-width="1" font-family="sans-serif" font-weight="normal" font-size="12" text-anchor="start"/><g data-paper-data="{&quot;index&quot;:null}" fill="none" fill-rule="nonzero" stroke="none" stroke-width="1" font-family="sans-serif" font-weight="normal" font-size="12" text-anchor="start"/></g></g><path d="M176.13446,146.9288c1.06249,5.10487 -37.33342,25.64203 -38.39592,20.53715c-1.06249,-5.10487 3.46785,-24.0395 15.17412,-28.07115c11.70627,-4.03165 22.15929,2.42912 23.22179,7.53399z" fill="#000000" fill-rule="nonzero" stroke="#454545" stroke-width="3" stroke-linecap="butt"/><path d="M162.84395,167.27491c0.65302,3.1375 -0.75056,10.40545 -4.30326,11.629c-3.55272,1.22355 -7.90923,-4.06062 -8.56225,-7.19812c-0.65302,-3.1375 12.2125,-7.56839 12.86552,-4.43088z" fill="#02004b" fill-rule="nonzero" stroke="#1500ff" stroke-width="4.5" stroke-linecap="butt"/><path d="M180.31308,161.07894c0.65302,3.1375 -0.75054,10.40544 -4.30325,11.629c-3.55272,1.22355 -7.90924,-4.06061 -8.56226,-7.19811c-0.65302,-3.1375 12.21249,-7.56839 12.86551,-4.43088z" fill="#02004b" fill-rule="nonzero" stroke="#1500ff" stroke-width="4.5" stroke-linecap="butt"/><path d="M162.60971,166.84565l5.17777,-1.78323" fill="none" fill-rule="nonzero" stroke="#1500ff" stroke-width="4.5" stroke-linecap="round"/><path d="M138.00139,177.29978l0.76258,-3.51387l11.01114,-1.9546" fill="none" fill-rule="nonzero" stroke="#1500ff" stroke-width="4.5" stroke-linecap="round"/></g><path d="M165.82667,185.23034c0,4.1879 -3.9513,15.37071 -6.94718,15.37071c-2.99587,0 -3.90184,-11.18281 -3.90184,-15.37071c0,-0.47338 10.84902,-0.56068 10.84902,0z" fill="#ff0000" fill-rule="nonzero" stroke="#000000" stroke-width="3" stroke-linecap="butt" stroke-linejoin="miter"/></g></g></svg>