<svg version="1.1" xmlns="http://www.w3.org/2000/svg" xmlns:xlink="http://www.w3.org/1999/xlink" width="20.75361" height="17.73082" viewBox="0,0,20.75361,17.73082"><g transform="translate(-229.70924,-170.82051)"><g data-paper-data="{&quot;isPaintingLayer&quot;:true}" fill-rule="nonzero" stroke-linecap="butt" stroke-linejoin="miter" stroke-miterlimit="10" stroke-dasharray="" stroke-dashoffset="0" style="mix-blend-mode: normal"><path d="" fill="#a76901" stroke="none" stroke-width="0"/><path d="" fill="#a76901" stroke="none" stroke-width="0"/><path d="M246.82962,174.41314c-0.45845,0.10272 -4.56313,0.30211 -4.97679,0.08736c-0.15159,-0.07869 -0.25899,-1.78679 0.03506,-1.91199c0.47366,-0.20166 4.50739,-0.22025 4.96753,-0.11581c0.29364,0.06665 0.23929,1.88103 -0.02581,1.94043z" fill="#9b7547" stroke="#7d5e39" stroke-width="0.5"/><path d="M248.81181,172.32901c0,0.6202 -0.60679,1.12297 -1.35531,1.12297c-0.74852,0 -1.35531,-0.50277 -1.35531,-1.12297c0,-0.6202 0.60679,-1.12297 1.35531,-1.12297c0.74852,0 1.35531,0.50277 1.35531,1.12297z" fill="#9b7547" stroke="#7d5e39" stroke-width="0.5"/><path d="M248.78806,174.58991c0,0.6202 -0.60679,1.12297 -1.35531,1.12297c-0.74852,0 -1.35531,-0.50277 -1.35531,-1.12297c0,-0.6202 0.60679,-1.12297 1.35531,-1.12297c0.74852,0 1.35531,0.50277 1.35531,1.12297z" fill="#9b7547" stroke="#7d5e39" stroke-width="0.5"/><path d="M242.83753,172.21284c0,0.63089 -0.58079,1.14233 -1.29723,1.14233c-0.71644,0 -1.29723,-0.51144 -1.29723,-1.14233c0,-0.63089 0.58079,-1.14233 1.29723,-1.14233c0.71644,0 1.29723,0.51144 1.29723,1.14233z" fill="#9b7547" stroke="#7d5e39" stroke-width="0.5"/><path d="M242.81817,174.67176c0,0.64159 -0.60679,1.16169 -1.35531,1.16169c-0.74852,0 -1.35531,-0.52011 -1.35531,-1.16169c0,-0.64159 0.60679,-1.16169 1.35531,-1.16169c0.74852,0 1.35531,0.52011 1.35531,1.16169z" fill="#9b7547" stroke="#7d5e39" stroke-width="0.5"/><path d="M243.93345,178.38956c-0.45845,0.10272 -4.56313,0.30211 -4.97679,0.08736c-0.15159,-0.0787 -0.25899,-1.78679 0.03506,-1.91199c0.47366,-0.20166 4.50739,-0.22025 4.96754,-0.11581c0.29364,0.06665 0.23929,1.88103 -0.02581,1.94043z" fill="#9b7547" stroke="#7d5e39" stroke-width="0.5"/><path d="M245.91564,176.30543c0,0.6202 -0.60679,1.12297 -1.35531,1.12297c-0.74851,0 -1.35531,-0.50277 -1.35531,-1.12297c0,-0.6202 0.60679,-1.12297 1.35531,-1.12297c0.74851,0 1.35531,0.50277 1.35531,1.12297z" fill="#9b7547" stroke="#7d5e39" stroke-width="0.5"/><path d="M245.89188,178.56634c0,0.6202 -0.60679,1.12297 -1.35531,1.12297c-0.74851,0 -1.35531,-0.50277 -1.35531,-1.12297c0,-0.6202 0.60679,-1.12297 1.35531,-1.12297c0.74851,0 1.35531,0.50277 1.35531,1.12297z" fill="#9b7547" stroke="#7d5e39" stroke-width="0.5"/><path d="M239.94136,176.18926c0,0.6309 -0.58078,1.14233 -1.29722,1.14233c-0.71643,0 -1.29723,-0.51144 -1.29723,-1.14233c0,-0.6309 0.58079,-1.14233 1.29723,-1.14233c0.71643,0 1.29722,0.51144 1.29722,1.14233z" fill="#9b7547" stroke="#7d5e39" stroke-width="0.5"/><path d="M239.92199,178.64818c0,0.64158 -0.60678,1.1617 -1.3553,1.1617c-0.74851,0 -1.35532,-0.52011 -1.35532,-1.1617c0,-0.64158 0.6068,-1.16169 1.35532,-1.16169c0.74851,0 1.3553,0.5201 1.3553,1.16169z" fill="#9b7547" stroke="#7d5e39" stroke-width="0.5"/><path d="M238.55145,178.41789c-0.45845,0.10272 -4.56313,0.30211 -4.97679,0.08737c-0.15159,-0.0787 -0.25899,-1.7868 0.03506,-1.91199c0.47366,-0.20166 4.50739,-0.22025 4.96753,-0.1158c0.29364,0.06665 0.23929,1.88103 -0.0258,1.94043z" fill="#9b7547" stroke="#7d5e39" stroke-width="0.5"/><path d="M240.53364,176.33376c0,0.6202 -0.6068,1.12297 -1.35532,1.12297c-0.74851,0 -1.35531,-0.50277 -1.35531,-1.12297c0,-0.6202 0.60679,-1.12297 1.35531,-1.12297c0.74851,0 1.35532,0.50277 1.35532,1.12297z" fill="#9b7547" stroke="#7d5e39" stroke-width="0.5"/><path d="M240.50988,178.59467c0,0.6202 -0.60679,1.12297 -1.35531,1.12297c-0.74851,0 -1.35531,-0.50277 -1.35531,-1.12297c0,-0.6202 0.60679,-1.12297 1.35531,-1.12297c0.74851,0 1.35531,0.50277 1.35531,1.12297z" fill="#9b7547" stroke="#7d5e39" stroke-width="0.5"/><path d="M234.55936,176.21759c0,0.6309 -0.58078,1.14234 -1.29722,1.14234c-0.71643,0 -1.29723,-0.51145 -1.29723,-1.14234c0,-0.6309 0.58079,-1.14233 1.29723,-1.14233c0.71643,0 1.29722,0.51144 1.29722,1.14233z" fill="#9b7547" stroke="#7d5e39" stroke-width="0.5"/><path d="M234.53999,178.67651c0,0.64158 -0.60679,1.1617 -1.35531,1.1617c-0.74851,0 -1.35531,-0.52011 -1.35531,-1.1617c0,-0.64158 0.60679,-1.1617 1.35531,-1.1617c0.74851,0 1.35531,0.52011 1.35531,1.1617z" fill="#9b7547" stroke="#7d5e39" stroke-width="0.5"/><path d="M248.23066,180.20094c-0.45845,0.10272 -4.56313,0.30211 -4.97679,0.08737c-0.15159,-0.0787 -0.25899,-1.7868 0.03506,-1.91199c0.47366,-0.20166 4.50739,-0.22025 4.96753,-0.1158c0.29364,0.06665 0.23929,1.88103 -0.02581,1.94043z" fill="#9b7547" stroke="#7d5e39" stroke-width="0.5"/><path d="M250.21285,178.11681c0,0.6202 -0.60679,1.12297 -1.35531,1.12297c-0.74851,0 -1.35531,-0.50277 -1.35531,-1.12297c0,-0.6202 0.60679,-1.12297 1.35531,-1.12297c0.74851,0 1.35531,0.50277 1.35531,1.12297z" fill="#9b7547" stroke="#7d5e39" stroke-width="0.5"/><path d="M250.18909,180.37772c0,0.6202 -0.60679,1.12297 -1.35531,1.12297c-0.74851,0 -1.35531,-0.50277 -1.35531,-1.12297c0,-0.6202 0.60679,-1.12297 1.35531,-1.12297c0.74851,0 1.35531,0.50277 1.35531,1.12297z" fill="#9b7547" stroke="#7d5e39" stroke-width="0.5"/><path d="M244.23857,178.00064c0,0.6309 -0.58078,1.14234 -1.29722,1.14234c-0.71643,0 -1.29723,-0.51145 -1.29723,-1.14234c0,-0.6309 0.58079,-1.14233 1.29723,-1.14233c0.71643,0 1.29722,0.51144 1.29722,1.14233z" fill="#9b7547" stroke="#7d5e39" stroke-width="0.5"/><path d="M244.2192,180.45956c0,0.64158 -0.60678,1.1617 -1.3553,1.1617c-0.74851,0 -1.35531,-0.52011 -1.35531,-1.1617c0,-0.64158 0.60679,-1.1617 1.35531,-1.1617c0.74851,0 1.3553,0.52011 1.3553,1.1617z" fill="#9b7547" stroke="#7d5e39" stroke-width="0.5"/><path d="M236.85342,184.46981c-0.45845,0.10272 -4.56313,0.30211 -4.97679,0.08737c-0.15159,-0.0787 -0.25899,-1.7868 0.03506,-1.91199c0.47366,-0.20166 4.50739,-0.22025 4.96753,-0.1158c0.29364,0.06665 0.23929,1.88103 -0.0258,1.94043z" fill="#9b7547" stroke="#7d5e39" stroke-width="0.5"/><path d="M238.83561,182.38568c0,0.6202 -0.60679,1.12297 -1.35531,1.12297c-0.74851,0 -1.35531,-0.50277 -1.35531,-1.12297c0,-0.6202 0.60679,-1.12297 1.35531,-1.12297c0.74851,0 1.35531,0.50277 1.35531,1.12297z" fill="#9b7547" stroke="#7d5e39" stroke-width="0.5"/><path d="M238.81185,184.64659c0,0.6202 -0.60679,1.12297 -1.35531,1.12297c-0.74851,0 -1.35531,-0.50277 -1.35531,-1.12297c0,-0.6202 0.60679,-1.12297 1.35531,-1.12297c0.74851,0 1.35531,0.50277 1.35531,1.12297z" fill="#9b7547" stroke="#7d5e39" stroke-width="0.5"/><path d="M232.86132,182.26951c0,0.6309 -0.58078,1.14234 -1.29722,1.14234c-0.71643,0 -1.29723,-0.51145 -1.29723,-1.14234c0,-0.6309 0.58079,-1.14233 1.29723,-1.14233c0.71643,0 1.29722,0.51144 1.29722,1.14233z" fill="#9b7547" stroke="#7d5e39" stroke-width="0.5"/><path d="M232.84196,184.72843c0,0.64158 -0.60678,1.1617 -1.3553,1.1617c-0.74851,0 -1.35532,-0.52011 -1.35532,-1.1617c0,-0.64158 0.6068,-1.1617 1.35532,-1.1617c0.74851,0 1.3553,0.52011 1.3553,1.1617z" fill="#9b7547" stroke="#7d5e39" stroke-width="0.5"/><path d="M247.26375,186.25285c-0.45845,0.10272 -4.56313,0.30211 -4.97679,0.08737c-0.15159,-0.0787 -0.25899,-1.7868 0.03506,-1.91199c0.47366,-0.20166 4.50739,-0.22025 4.96753,-0.1158c0.29364,0.06665 0.23929,1.88103 -0.0258,1.94043z" fill="#9b7547" stroke="#7d5e39" stroke-width="0.5"/><path d="M249.24594,184.16872c0,0.6202 -0.60679,1.12297 -1.35531,1.12297c-0.74851,0 -1.35531,-0.50277 -1.35531,-1.12297c0,-0.6202 0.60679,-1.12297 1.35531,-1.12297c0.74851,0 1.35531,0.50277 1.35531,1.12297z" fill="#9b7547" stroke="#7d5e39" stroke-width="0.5"/><path d="M249.22218,186.42963c0,0.6202 -0.60679,1.12297 -1.35531,1.12297c-0.74851,0 -1.35531,-0.50277 -1.35531,-1.12297c0,-0.6202 0.60679,-1.12297 1.35531,-1.12297c0.74851,0 1.35531,0.50277 1.35531,1.12297z" fill="#9b7547" stroke="#7d5e39" stroke-width="0.5"/><path d="M243.27166,184.05255c0,0.6309 -0.58078,1.14234 -1.29722,1.14234c-0.71643,0 -1.29723,-0.51145 -1.29723,-1.14234c0,-0.6309 0.58079,-1.14233 1.29723,-1.14233c0.71643,0 1.29722,0.51144 1.29722,1.14233z" fill="#9b7547" stroke="#7d5e39" stroke-width="0.5"/><path d="M243.25229,186.51147c0,0.64158 -0.60679,1.1617 -1.35531,1.1617c-0.74851,0 -1.35531,-0.52011 -1.35531,-1.1617c0,-0.64158 0.60679,-1.1617 1.35531,-1.1617c0.74851,0 1.35531,0.52011 1.35531,1.1617z" fill="#9b7547" stroke="#7d5e39" stroke-width="0.5"/><path d="M240.74483,174.46981c-0.45845,0.10272 -4.56313,0.30211 -4.97679,0.08737c-0.15159,-0.0787 -0.25899,-1.7868 0.03506,-1.91199c0.47366,-0.20166 4.50739,-0.22025 4.96753,-0.1158c0.29364,0.06665 0.23929,1.88103 -0.0258,1.94043z" fill="#9b7547" stroke="#7d5e39" stroke-width="0.5"/><path d="M242.72702,172.38568c0,0.6202 -0.6068,1.12297 -1.35532,1.12297c-0.74851,0 -1.35531,-0.50277 -1.35531,-1.12297c0,-0.6202 0.60679,-1.12297 1.35531,-1.12297c0.74851,0 1.35532,0.50277 1.35532,1.12297z" fill="#9b7547" stroke="#7d5e39" stroke-width="0.5"/><path d="M242.70326,174.64659c0,0.6202 -0.60679,1.12297 -1.35531,1.12297c-0.74851,0 -1.35531,-0.50277 -1.35531,-1.12297c0,-0.6202 0.60679,-1.12297 1.35531,-1.12297c0.74851,0 1.35531,0.50277 1.35531,1.12297z" fill="#9b7547" stroke="#7d5e39" stroke-width="0.5"/><path d="M236.75274,172.26951c0,0.6309 -0.58078,1.14234 -1.29722,1.14234c-0.71643,0 -1.29723,-0.51145 -1.29723,-1.14234c0,-0.6309 0.58079,-1.14233 1.29723,-1.14233c0.71643,0 1.29722,0.51144 1.29722,1.14233z" fill="#9b7547" stroke="#7d5e39" stroke-width="0.5"/><path d="M236.73337,174.72843c0,0.64158 -0.60679,1.16169 -1.35531,1.16169c-0.74851,0 -1.35531,-0.5201 -1.35531,-1.16169c0,-0.64158 0.60679,-1.1617 1.35531,-1.1617c0.74851,0 1.35531,0.52011 1.35531,1.1617z" fill="#9b7547" stroke="#7d5e39" stroke-width="0.5"/><path d="M246.65753,184.9587c0.2651,0.0594 0.31945,1.87378 0.02581,1.94043c-0.46015,0.10444 -4.49388,0.08585 -4.96754,-0.11581c-0.29405,-0.12519 -0.18665,-1.83329 -0.03506,-1.91199c0.41366,-0.21474 4.51834,-0.01536 4.97679,0.08736z" data-paper-data="{&quot;index&quot;:null}" fill="#9b7547" stroke="#7d5e39" stroke-width="0.5"/><path d="M247.28441,188.1658c-0.74852,0 -1.35531,-0.50277 -1.35531,-1.12297c0,-0.6202 0.6068,-1.12297 1.35531,-1.12297c0.74852,0 1.35531,0.50277 1.35531,1.12297c0,0.6202 -0.6068,1.12297 -1.35531,1.12297z" data-paper-data="{&quot;index&quot;:null}" fill="#9b7547" stroke="#7d5e39" stroke-width="0.5"/><path d="M247.26065,185.9049c-0.74852,0 -1.35531,-0.50277 -1.35531,-1.12297c0,-0.6202 0.6068,-1.12297 1.35531,-1.12297c0.74852,0 1.35531,0.50277 1.35531,1.12297c0,0.6202 -0.6068,1.12297 -1.35531,1.12297z" data-paper-data="{&quot;index&quot;:null}" fill="#9b7547" stroke="#7d5e39" stroke-width="0.5"/><path d="M241.36821,188.30133c-0.71644,0 -1.29723,-0.51144 -1.29723,-1.14233c0,-0.63089 0.58079,-1.14233 1.29723,-1.14233c0.71644,0 1.29722,0.51144 1.29722,1.14233c0,0.63089 -0.58079,1.14233 -1.29722,1.14233z" data-paper-data="{&quot;index&quot;:null}" fill="#9b7547" stroke="#7d5e39" stroke-width="0.5"/><path d="M241.29077,185.86177c-0.74852,0 -1.35532,-0.52011 -1.35532,-1.16169c0,-0.64159 0.6068,-1.1617 1.35532,-1.1617c0.74852,0 1.3553,0.52011 1.3553,1.1617c0,0.64159 -0.60679,1.16169 -1.3553,1.16169z" data-paper-data="{&quot;index&quot;:null}" fill="#9b7547" stroke="#7d5e39" stroke-width="0.5"/><path d="M243.76136,180.98228c0.2651,0.0594 0.31945,1.87378 0.0258,1.94043c-0.46015,0.10444 -4.49388,0.08586 -4.96753,-0.1158c-0.29405,-0.12519 -0.18665,-1.83329 -0.03506,-1.91199c0.41366,-0.21474 4.51834,-0.01535 4.97679,0.08737z" data-paper-data="{&quot;index&quot;:null}" fill="#9b7547" stroke="#7d5e39" stroke-width="0.5"/><path d="M244.38824,184.18938c-0.74852,0 -1.35531,-0.50277 -1.35531,-1.12297c0,-0.6202 0.6068,-1.12297 1.35531,-1.12297c0.74852,0 1.35532,0.50277 1.35532,1.12297c0,0.6202 -0.6068,1.12297 -1.35532,1.12297z" data-paper-data="{&quot;index&quot;:null}" fill="#9b7547" stroke="#7d5e39" stroke-width="0.5"/><path d="M244.36448,181.92848c-0.74852,0 -1.35531,-0.50277 -1.35531,-1.12297c0,-0.6202 0.6068,-1.12297 1.35531,-1.12297c0.74852,0 1.35531,0.50277 1.35531,1.12297c0,0.6202 -0.6068,1.12297 -1.35531,1.12297z" data-paper-data="{&quot;index&quot;:null}" fill="#9b7547" stroke="#7d5e39" stroke-width="0.5"/><path d="M238.47204,184.32491c-0.71644,0 -1.29723,-0.51144 -1.29723,-1.14233c0,-0.63089 0.5808,-1.14234 1.29723,-1.14234c0.71644,0 1.29722,0.51144 1.29722,1.14234c0,0.63089 -0.58079,1.14233 -1.29722,1.14233z" data-paper-data="{&quot;index&quot;:null}" fill="#9b7547" stroke="#7d5e39" stroke-width="0.5"/><path d="M238.3946,181.88536c-0.74852,0 -1.35531,-0.52011 -1.35531,-1.1617c0,-0.64159 0.6068,-1.16169 1.35531,-1.16169c0.74852,0 1.35531,0.52011 1.35531,1.16169c0,0.64159 -0.60679,1.1617 -1.35531,1.1617z" data-paper-data="{&quot;index&quot;:null}" fill="#9b7547" stroke="#7d5e39" stroke-width="0.5"/><path d="M238.37936,180.95394c0.2651,0.0594 0.31945,1.87378 0.02581,1.94043c-0.46015,0.10444 -4.49388,0.08586 -4.96753,-0.1158c-0.29405,-0.12519 -0.18665,-1.83329 -0.03506,-1.91199c0.41366,-0.21474 4.51834,-0.01535 4.97679,0.08737z" data-paper-data="{&quot;index&quot;:null}" fill="#9b7547" stroke="#7d5e39" stroke-width="0.5"/><path d="M239.00623,184.16104c-0.74852,0 -1.35531,-0.50277 -1.35531,-1.12297c0,-0.6202 0.6068,-1.12297 1.35531,-1.12297c0.74852,0 1.35531,0.50277 1.35531,1.12297c0,0.6202 -0.6068,1.12297 -1.35531,1.12297z" data-paper-data="{&quot;index&quot;:null}" fill="#9b7547" stroke="#7d5e39" stroke-width="0.5"/><path d="M238.98248,181.90013c-0.74852,0 -1.35531,-0.50277 -1.35531,-1.12297c0,-0.6202 0.6068,-1.12297 1.35531,-1.12297c0.74852,0 1.35531,0.50277 1.35531,1.12297c0,0.6202 -0.6068,1.12297 -1.35531,1.12297z" data-paper-data="{&quot;index&quot;:null}" fill="#9b7547" stroke="#7d5e39" stroke-width="0.5"/><path d="M233.09004,184.29657c-0.71644,0 -1.29723,-0.51143 -1.29723,-1.14233c0,-0.63089 0.5808,-1.14234 1.29723,-1.14234c0.71644,0 1.29722,0.51144 1.29722,1.14234c0,0.63089 -0.58079,1.14233 -1.29722,1.14233z" data-paper-data="{&quot;index&quot;:null}" fill="#9b7547" stroke="#7d5e39" stroke-width="0.5"/><path d="M233.01259,181.85702c-0.74852,0 -1.35531,-0.52011 -1.35531,-1.1617c0,-0.64159 0.6068,-1.1617 1.35531,-1.1617c0.74852,0 1.3553,0.52011 1.3553,1.1617c0,0.64159 -0.60679,1.1617 -1.3553,1.1617z" data-paper-data="{&quot;index&quot;:null}" fill="#9b7547" stroke="#7d5e39" stroke-width="0.5"/><path d="M248.05857,179.1709c0.2651,0.0594 0.31945,1.87378 0.0258,1.94043c-0.46015,0.10444 -4.49388,0.08586 -4.96753,-0.1158c-0.29405,-0.12519 -0.18665,-1.83329 -0.03506,-1.91199c0.41366,-0.21474 4.51834,-0.01535 4.97679,0.08737z" data-paper-data="{&quot;index&quot;:null}" fill="#9b7547" stroke="#7d5e39" stroke-width="0.5"/><path d="M248.68544,182.378c-0.74852,0 -1.35531,-0.50277 -1.35531,-1.12297c0,-0.6202 0.6068,-1.12297 1.35531,-1.12297c0.74852,0 1.35531,0.50277 1.35531,1.12297c0,0.6202 -0.6068,1.12297 -1.35531,1.12297z" data-paper-data="{&quot;index&quot;:null}" fill="#9b7547" stroke="#7d5e39" stroke-width="0.5"/><path d="M248.66169,180.11709c-0.74852,0 -1.35531,-0.50277 -1.35531,-1.12297c0,-0.6202 0.6068,-1.12297 1.35531,-1.12297c0.74852,0 1.35531,0.50277 1.35531,1.12297c0,0.6202 -0.6068,1.12297 -1.35531,1.12297z" data-paper-data="{&quot;index&quot;:null}" fill="#9b7547" stroke="#7d5e39" stroke-width="0.5"/><path d="M242.76925,182.51353c-0.71644,0 -1.29723,-0.51143 -1.29723,-1.14233c0,-0.63089 0.58079,-1.14234 1.29723,-1.14234c0.71644,0 1.29722,0.51144 1.29722,1.14234c0,0.63089 -0.58079,1.14233 -1.29722,1.14233z" data-paper-data="{&quot;index&quot;:null}" fill="#9b7547" stroke="#7d5e39" stroke-width="0.5"/><path d="M242.6918,180.07398c-0.74852,0 -1.35532,-0.52011 -1.35532,-1.1617c0,-0.64159 0.6068,-1.1617 1.35532,-1.1617c0.74852,0 1.3553,0.52011 1.3553,1.1617c0,0.64159 -0.60679,1.1617 -1.3553,1.1617z" data-paper-data="{&quot;index&quot;:null}" fill="#9b7547" stroke="#7d5e39" stroke-width="0.5"/><path d="M236.68132,174.90203c0.2651,0.0594 0.31945,1.87378 0.0258,1.94043c-0.46015,0.10444 -4.49388,0.08586 -4.96753,-0.1158c-0.29405,-0.12519 -0.18665,-1.83329 -0.03506,-1.91199c0.41366,-0.21474 4.51834,-0.01535 4.97679,0.08737z" data-paper-data="{&quot;index&quot;:null}" fill="#9b7547" stroke="#7d5e39" stroke-width="0.5"/><path d="M237.3082,178.10913c-0.74852,0 -1.35531,-0.50277 -1.35531,-1.12297c0,-0.6202 0.6068,-1.12297 1.35531,-1.12297c0.74852,0 1.35531,0.50277 1.35531,1.12297c0,0.6202 -0.6068,1.12297 -1.35531,1.12297z" data-paper-data="{&quot;index&quot;:null}" fill="#9b7547" stroke="#7d5e39" stroke-width="0.5"/><path d="M237.28444,175.84822c-0.74852,0 -1.35531,-0.50277 -1.35531,-1.12297c0,-0.6202 0.6068,-1.12297 1.35531,-1.12297c0.74852,0 1.35531,0.50277 1.35531,1.12297c0,0.6202 -0.6068,1.12297 -1.35531,1.12297z" data-paper-data="{&quot;index&quot;:null}" fill="#9b7547" stroke="#7d5e39" stroke-width="0.5"/><path d="M231.392,178.24465c-0.71644,0 -1.29723,-0.51143 -1.29723,-1.14233c0,-0.63089 0.5808,-1.14234 1.29723,-1.14234c0.71644,0 1.29722,0.51144 1.29722,1.14234c0,0.63089 -0.58079,1.14233 -1.29722,1.14233z" data-paper-data="{&quot;index&quot;:null}" fill="#9b7547" stroke="#7d5e39" stroke-width="0.5"/><path d="M231.31456,175.8051c-0.74852,0 -1.35531,-0.52011 -1.35531,-1.1617c0,-0.64159 0.6068,-1.1617 1.35531,-1.1617c0.74852,0 1.35531,0.52011 1.35531,1.1617c0,0.64159 -0.60679,1.1617 -1.35531,1.1617z" data-paper-data="{&quot;index&quot;:null}" fill="#9b7547" stroke="#7d5e39" stroke-width="0.5"/><path d="M247.09166,173.11898c0.2651,0.0594 0.31945,1.87378 0.0258,1.94043c-0.46015,0.10444 -4.49388,0.08586 -4.96753,-0.1158c-0.29405,-0.12519 -0.18665,-1.83329 -0.03506,-1.91199c0.41366,-0.21474 4.51834,-0.01535 4.97679,0.08737z" data-paper-data="{&quot;index&quot;:null}" fill="#9b7547" stroke="#7d5e39" stroke-width="0.5"/><path d="M247.71854,176.32608c-0.74852,0 -1.35531,-0.50277 -1.35531,-1.12297c0,-0.6202 0.60679,-1.12297 1.35531,-1.12297c0.74852,0 1.35532,0.50277 1.35532,1.12297c0,0.6202 -0.6068,1.12297 -1.35532,1.12297z" data-paper-data="{&quot;index&quot;:null}" fill="#9b7547" stroke="#7d5e39" stroke-width="0.5"/><path d="M247.69478,174.06518c-0.74852,0 -1.35531,-0.50277 -1.35531,-1.12297c0,-0.6202 0.6068,-1.12297 1.35531,-1.12297c0.74852,0 1.35531,0.50277 1.35531,1.12297c0,0.6202 -0.6068,1.12297 -1.35531,1.12297z" data-paper-data="{&quot;index&quot;:null}" fill="#9b7547" stroke="#7d5e39" stroke-width="0.5"/><path d="M241.80234,176.46162c-0.71644,0 -1.29723,-0.51143 -1.29723,-1.14233c0,-0.63089 0.5808,-1.14234 1.29723,-1.14234c0.71644,0 1.29722,0.51144 1.29722,1.14234c0,0.63089 -0.58079,1.14233 -1.29722,1.14233z" data-paper-data="{&quot;index&quot;:null}" fill="#9b7547" stroke="#7d5e39" stroke-width="0.5"/><path d="M241.7249,174.02206c-0.74852,0 -1.35531,-0.52011 -1.35531,-1.1617c0,-0.64159 0.6068,-1.1617 1.35531,-1.1617c0.74852,0 1.35531,0.52011 1.35531,1.1617c0,0.64159 -0.60679,1.1617 -1.35531,1.1617z" data-paper-data="{&quot;index&quot;:null}" fill="#9b7547" stroke="#7d5e39" stroke-width="0.5"/><path d="M240.57274,184.90203c0.2651,0.0594 0.31945,1.87378 0.0258,1.94043c-0.46015,0.10444 -4.49388,0.08585 -4.96753,-0.11581c-0.29405,-0.12519 -0.18665,-1.83329 -0.03506,-1.91199c0.41366,-0.21474 4.51834,-0.01535 4.97679,0.08737z" data-paper-data="{&quot;index&quot;:null}" fill="#9b7547" stroke="#7d5e39" stroke-width="0.5"/><path d="M241.19962,188.10913c-0.74852,0 -1.35531,-0.50277 -1.35531,-1.12297c0,-0.6202 0.6068,-1.12297 1.35531,-1.12297c0.74852,0 1.35531,0.50277 1.35531,1.12297c0,0.6202 -0.6068,1.12297 -1.35531,1.12297z" data-paper-data="{&quot;index&quot;:null}" fill="#9b7547" stroke="#7d5e39" stroke-width="0.5"/><path d="M241.17586,185.84823c-0.74852,0 -1.35531,-0.50277 -1.35531,-1.12297c0,-0.6202 0.6068,-1.12297 1.35531,-1.12297c0.74852,0 1.35531,0.50277 1.35531,1.12297c0,0.6202 -0.60679,1.12297 -1.35531,1.12297z" data-paper-data="{&quot;index&quot;:null}" fill="#9b7547" stroke="#7d5e39" stroke-width="0.5"/><path d="M235.28342,188.24466c-0.71644,0 -1.29723,-0.51144 -1.29723,-1.14233c0,-0.63089 0.58079,-1.14234 1.29723,-1.14234c0.71644,0 1.29722,0.51144 1.29722,1.14234c0,0.63089 -0.58079,1.14233 -1.29722,1.14233z" data-paper-data="{&quot;index&quot;:null}" fill="#9b7547" stroke="#7d5e39" stroke-width="0.5"/><path d="M235.20598,185.8051c-0.74852,0 -1.35532,-0.52011 -1.35532,-1.16169c0,-0.64159 0.6068,-1.1617 1.35532,-1.1617c0.74852,0 1.3553,0.52011 1.3553,1.1617c0,0.64159 -0.60679,1.16169 -1.3553,1.16169z" data-paper-data="{&quot;index&quot;:null}" fill="#9b7547" stroke="#7d5e39" stroke-width="0.5"/></g></g></svg>