<svg version="1.1" xmlns="http://www.w3.org/2000/svg" xmlns:xlink="http://www.w3.org/1999/xlink" width="69.89916" height="131.86035" viewBox="0,0,69.89916,131.86035"><defs><linearGradient x1="200.69234" y1="146.3389" x2="254.57033" y2="150.33462" gradientUnits="userSpaceOnUse" id="color-1"><stop offset="0" stop-color="#66ff81" stop-opacity="0"/><stop offset="1" stop-color="#66ff81"/></linearGradient><linearGradient x1="232.75515" y1="221.35256" x2="249.76209" y2="221.35256" gradientUnits="userSpaceOnUse" id="color-2"><stop offset="0" stop-color="#2a801c"/><stop offset="1" stop-color="#62f67a"/></linearGradient><linearGradient x1="232.75515" y1="221.35256" x2="249.76209" y2="221.35256" gradientUnits="userSpaceOnUse" id="color-3"><stop offset="0" stop-color="#2a801c"/><stop offset="1" stop-color="#62f67a"/></linearGradient><linearGradient x1="224.17859" y1="208.03485" x2="244.09979" y2="208.03485" gradientUnits="userSpaceOnUse" id="color-4"><stop offset="0" stop-color="#2a801c"/><stop offset="1" stop-color="#62f67a"/></linearGradient><linearGradient x1="224.17859" y1="208.03485" x2="244.09979" y2="208.03485" gradientUnits="userSpaceOnUse" id="color-5"><stop offset="0" stop-color="#2a801c"/><stop offset="1" stop-color="#62f67a"/></linearGradient><linearGradient x1="214.99304" y1="224.52654" x2="235.25333" y2="224.52654" gradientUnits="userSpaceOnUse" id="color-6"><stop offset="0" stop-color="#2a801c"/><stop offset="1" stop-color="#62f67a"/></linearGradient><linearGradient x1="214.99304" y1="224.52654" x2="235.25333" y2="224.52654" gradientUnits="userSpaceOnUse" id="color-7"><stop offset="0" stop-color="#2a801c"/><stop offset="1" stop-color="#62f67a"/></linearGradient></defs><g transform="translate(-199.3537,-111.59144)"><g data-paper-data="{&quot;isPaintingLayer&quot;:true}" stroke-miterlimit="10" stroke-dasharray="" stroke-dashoffset="0" style="mix-blend-mode: normal"><path d="M234.80956,193.3549l-1.03787,10.57696" fill="none" fill-rule="nonzero" stroke="#66ff81" stroke-width="7" stroke-linecap="round" stroke-linejoin="miter"/><path d="M240.74909,193.56301l11.78939,13.25604" fill="none" fill-rule="nonzero" stroke="#66ff81" stroke-width="7" stroke-linecap="round" stroke-linejoin="miter"/><path d="M232.25783,193.20771l-15.15797,9.75966" fill="none" fill-rule="nonzero" stroke="#66ff81" stroke-width="7" stroke-linecap="round" stroke-linejoin="miter"/><g stroke-linejoin="miter"><g><g data-paper-data="{&quot;index&quot;:null}" stroke-linecap="butt"><path d="M263.42711,174.55097c-3.60665,12.95847 -17.50853,20.40791 -31.05072,16.63879c-13.54219,-3.76913 -21.59652,-17.3295 -17.98986,-30.28797c3.60665,-12.95847 17.50853,-20.40791 31.05072,-16.63878c13.54219,3.76913 21.59653,17.3295 17.98986,30.28797z" fill="none" fill-rule="nonzero" stroke="#66ff81" stroke-width="4.5"/><g><g fill-rule="nonzero"><path d="M228.60103,148.53265l-0.00887,-0.01087" data-paper-data="{&quot;index&quot;:null}" fill="#ffab19" stroke="#000000" stroke-width="5"/><g data-paper-data="{&quot;index&quot;:null}" fill="none" stroke="none" stroke-width="1" font-family="sans-serif" font-weight="normal" font-size="12" text-anchor="start"/></g><path d="M228.60103,148.53265l-0.00887,-0.01087" data-paper-data="{&quot;index&quot;:null}" fill="#ffab19" fill-rule="nonzero" stroke="#000000" stroke-width="5"/><path d="M238.29844,168.82649" fill="#001026" fill-rule="evenodd" stroke="#000000" stroke-width="5"/><g data-paper-data="{&quot;index&quot;:null}" fill="none" fill-rule="nonzero" stroke="none" stroke-width="1" font-family="sans-serif" font-weight="normal" font-size="12" text-anchor="start"/><g data-paper-data="{&quot;index&quot;:null}" fill="none" fill-rule="nonzero" stroke="none" stroke-width="1" font-family="sans-serif" font-weight="normal" font-size="12" text-anchor="start"/></g></g><path d="M213.10099,173.21926c0,0 -0.95246,-1.73212 -1.52506,-4.41876c-1.75716,-8.24443 -10.12686,-54.08415 -10.12686,-54.08415l48.68297,31.20692c0,0 -17.00901,-5.54753 -24.21942,-0.58582c-2.78986,1.91979 -9.10872,9.13097 -10.83706,13.54476c-2.43862,6.22766 -1.97453,14.33705 -1.97453,14.33705z" fill="url(#color-1)" fill-rule="nonzero" stroke="#66ff81" stroke-width="3" stroke-linecap="round"/><path d="M221.18951,156.84214l21.34196,9.65764l-1.40177,6.09078" fill="none" fill-rule="nonzero" stroke="#66ff81" stroke-width="5" stroke-linecap="round"/><path d="M247.91366,173.76707l1.52357,-6.06275l17.31564,-13.37378" fill="none" fill-rule="nonzero" stroke="#66ff81" stroke-width="5" stroke-linecap="round"/></g><path d="M231.24842,178.13144l-9.99187,-5.08478" fill="none" fill-rule="nonzero" stroke="#66ff81" stroke-width="3" stroke-linecap="round"/></g><g stroke-width="1.2"><path d="M243.71918,204.10309l2.92297,25.98777c0,0 7.06267,0.41252 6.89471,7.51322c-0.00958,0.40481 -0.10976,2.39235 -3.02746,2.97403c-2.79456,0.55712 -8.36532,-0.27515 -10.40081,-0.59138c-0.94539,-0.14688 -2.3855,-0.78756 -3.30585,-1.88454c-0.92663,-1.1045 -0.82654,-2.71079 -0.82591,-3.6144c0.00025,-0.36804 -2.07942,-29.30669 -2.07942,-29.30669" fill="#44ff00" fill-rule="evenodd" stroke="#44ff00" stroke-linecap="round" stroke-linejoin="round"/><path d="M233.72291,211.04161c0.17213,-7.27706 5.51843,-7.403 8.30395,-7.33711c1.21125,0.02865 1.04756,-1.91626 2.11947,3.77541c0.23607,1.25353 0.69999,6.3997 1.69204,10.77992c0.67932,2.9994 1.95353,5.64787 2.19159,6.40876c0.56246,1.79781 0.33108,3.4367 0.33108,3.4367l-1.01983,-1.19108c0,0 0.67202,0.83007 0.94114,1.32535c0.83841,1.54291 1.47974,2.70742 1.47974,2.70742c0,0 -7.12324,-0.46 -9.89761,1.80974c-2.77437,2.26974 -1.39961,6.54185 -1.39961,6.54185c0,0 -5.2776,-0.81096 -5.70054,-3.7225c-0.10427,-0.71777 0.71428,-2.85374 0.71428,-2.85374c0,0 -0.60345,0.12082 -0.623,-0.37617c-0.00997,-0.25335 0.79863,-4.01168 0.97828,-8.23959c0.2365,-5.56573 -0.1358,-12.01646 -0.111,-13.06496z" fill="url(#color-2)" fill-rule="nonzero" stroke="url(#color-3)" stroke-linecap="butt" stroke-linejoin="miter"/></g><path d="M224.66764,205.87547c-0.00985,-0.21361 1.19871,0.41618 3.93725,0.48896c3.61284,0.09603 9.14579,-0.33359 10.70162,-0.5534c4.03453,-0.57001 4.71727,-2.0872 4.74339,-1.52095c0.09666,2.09545 -2.1854,5.97695 -6.80087,6.18985c-2.02828,0.09356 -6.17685,0.79526 -8.52611,0.05752c-2.9966,-0.94103 -4.00109,-3.48741 -4.05528,-4.662z" fill="#004fd9" fill-rule="nonzero" stroke="#001026" stroke-width="1.2" stroke-linecap="butt" stroke-linejoin="miter"/><g fill-rule="nonzero" stroke-linecap="butt" stroke-linejoin="miter"><g fill="none" stroke="none" stroke-width="1" font-family="sans-serif" font-weight="normal" font-size="12" text-anchor="start"/><path d="M224.1808,204.51264c0,0 8.66928,1.31911 12.65307,1.30072c3.98378,-0.01839 7.26589,-1.39268 7.26589,-1.39268c0,0 0.03136,2.05113 -1.74527,4.04738c-1.37522,1.54522 -4.01823,3.14596 -7.43439,3.17992c-3.11221,0.03094 -6.58434,-0.62286 -8.30303,-1.96446c-2.60502,-2.03348 -2.43626,-5.17089 -2.43626,-5.17089z" fill="url(#color-4)" stroke="url(#color-5)" stroke-width="1.2"/></g><g stroke-width="1.2"><path d="M233.75793,209.71142c0,0 -3.38365,30.23157 -4.0011,30.33136c-1.77192,0.28635 -11.48215,-2.27779 -11.48215,-2.27779l6.24171,-30.39505" data-paper-data="{&quot;index&quot;:null}" fill="#ffab19" fill-rule="evenodd" stroke="#001026" stroke-linecap="round" stroke-linejoin="round"/><path d="M235.25333,209.22401c0,0 -0.79043,6.39285 -1.0239,9.78248c-0.22392,3.25117 -0.34946,10.15728 -0.34946,10.15728c0,0 0.94919,5.01816 0.02119,6.25564c-0.42981,0.57316 -0.7685,-2.83316 -0.7685,-2.83316c0,0 0.37809,3.84012 0.41532,4.17859c0.25975,2.36159 -0.92568,5.46282 -4.03203,5.75745c-3.41058,0.32348 -9.06481,0.68884 -11.97961,-1.17955c-1.2402,-0.79497 -2.92012,-3.1351 -2.46798,-5.62796c0.50989,-2.8113 3.24812,-5.75646 3.24812,-5.75646l-2.5161,3.21037c0,0 -0.02623,-1.60299 0.38317,-2.77887c0.45976,-1.32051 2.2419,-4.76073 2.2419,-4.76073l5.40244,-19.36098" data-paper-data="{&quot;index&quot;:null}" fill="url(#color-6)" fill-rule="evenodd" stroke="url(#color-7)" stroke-linecap="round" stroke-linejoin="round"/><path d="M232.09409,238.15795c-0.08549,1.69749 -0.78288,3.66972 -2.29657,4.69384c-1.51931,1.02791 -10.65038,0.62056 -12.06199,-0.63569c-1.34056,-1.19302 -1.88664,-3.39806 -1.8032,-5.05479c0.1713,-3.40126 3.92809,-5.93544 8.39105,-5.66022c4.46293,0.27521 7.94201,3.2556 7.77069,6.65688z" fill="#44ff00" fill-rule="nonzero" stroke="#44ff00" stroke-linecap="butt" stroke-linejoin="miter"/></g></g></g></svg>