<svg version="1.1" xmlns="http://www.w3.org/2000/svg" xmlns:xlink="http://www.w3.org/1999/xlink" width="143.6291" height="113.08913" viewBox="0,0,143.6291,113.08913"><g transform="translate(-183.48988,-127.04561)"><g data-paper-data="{&quot;isPaintingLayer&quot;:true}" fill-rule="nonzero" stroke="none" stroke-width="1" stroke-linecap="butt" stroke-linejoin="miter" stroke-miterlimit="10" stroke-dasharray="" stroke-dashoffset="0" style="mix-blend-mode: normal"><path d="M300.34749,180.30194l0.73908,0.38074l-0.37579,1.24829l-0.90601,-0.42148z" fill="#ffffff"/><path d="M302.20939,184.4511l1.36298,0.39101l-0.2323,1.41333l-1.48887,-0.46905z" fill="#ffffff"/><path d="M268.89892,127.14641c2.08695,4.69045 1.7691,7.88958 6.68043,10.56816c3.23632,1.76386 17.33693,7.22681 20.42203,9.15596c5.60183,3.50364 11.47296,11.13198 12.22246,17.90114c1.71739,0.48298 10.58993,2.22592 11.21485,2.59811c1.46722,0.87359 2.24599,3.94453 1.94658,5.56589c-3.52515,-0.40801 -7.03232,-0.96411 -10.57833,-1.20899c-0.52484,0.73782 -0.53777,1.29914 -0.27184,1.75557c7.34316,3.72545 14.70294,12.55766 14.90772,15.62564c-1.59373,-0.21591 -11.2318,-3.73486 -13.76689,-4.70276c-0.47888,1.75252 -1.35241,3.32336 -2.23375,4.89752c-2.06385,-2.10301 -3.15624,-5.02599 -5.54766,-6.8216c-0.60688,-0.45661 -1.34436,-0.97699 -2.02437,-1.39959c0,0 -0.22574,1.32534 -0.63631,1.4383c-0.69469,0.19086 -2.14905,-0.65592 -2.17065,-0.98841c-0.02253,-0.33288 0.68144,-1.55488 0.68144,-1.55488c-1.74896,-0.75369 -3.83346,-1.27876 -5.70248,-0.97827c0.55961,3.30795 3.75761,5.27533 7.02767,6.51439c0.15162,0.05719 0.74067,-1.74345 0.91337,-1.85793c0.17455,-0.11372 1.99662,0.38257 2.13352,0.68091c0.14191,0.29929 -0.19998,2.09982 -0.07535,2.13312c0.54838,0.15122 1.07714,0.28692 1.56976,0.40798c2.46088,3.78457 4.03807,8.82185 6.33861,12.70109c-6.00978,-0.71551 -18.08853,-8.73925 -21.77731,-13.16005l-0.69987,1.1028c2.52905,2.97805 11.75276,13.62931 11.51716,13.96538c-0.48856,0.1137 -1.38949,0.55759 -1.78068,0.92337c2.00324,3.07448 3.71434,1.5272 5.88549,4.13453c2.54733,-0.86599 4.99138,-1.03574 6.36763,1.70887c2.85063,-0.87677 4.59239,1.12905 7.14104,1.40641c2.93432,0.32157 6.53764,-0.87577 8.17059,2.69922c0.37817,0.82355 0.46166,1.91065 0.17048,2.79075c-0.54062,1.6174 -3.47434,2.70435 -4.99364,2.80244c-3.94769,0.25586 -7.08679,-4.24304 -11.46669,-1.36538c-1.31743,0.05804 -2.79128,-0.06498 -3.78996,-1.02153c-1.70884,0.81546 -2.54432,-0.06193 -3.04637,1.9499c-0.2123,0.85058 -1.18446,1.04976 -3.47176,0.60431c-0.66397,0.86268 -2.62498,1.25427 -4.31319,-0.42334c-0.47807,-0.47882 -0.93186,-1.1798 -0.77735,-1.90922c-0.92159,-0.08247 -2.08662,0.13992 -2.70555,-0.73921c-1.30103,-0.75654 0.20779,-2.48622 -2.27481,-1.79578c1.55878,2.74958 5.48489,3.83713 4.4169,7.74961c-0.95878,3.52621 -2.87277,6.81602 -5.19656,9.60506c1.12762,0.86748 4.87894,3.11758 5.29569,4.10139c-1.34175,2.42984 -3.64676,4.40636 -6.40256,4.79929c-2.26166,-1.90267 -4.02439,-4.63894 -6.32798,-6.62445c-3.0836,-2.6591 -5.71375,-5.81091 -8.60062,-8.67834c-1.26388,5.01791 -5.27658,8.75676 -10.27338,9.64893c0.10686,1.89408 0.40823,3.81417 1.21272,5.52612c-1.26457,1.82985 -8.30377,-0.091 -9.80598,-1.25611c-0.01114,-0.8797 0.69114,-1.44843 1.10721,-2.1203c1.30187,-2.09206 0.81808,-6.06313 0.77794,-8.46756c-0.02541,-1.91931 -1.35467,-3.40169 -1.85471,-5.17251c-1.30194,-0.11049 -4.47364,0.03604 -4.47364,0.03604c-0.48326,-0.482 -0.4332,-1.53651 -0.46289,-2.18958c-0.24749,-5.32774 -0.67049,-9.61626 -3.92629,-14.02436c-2.19314,0.20031 -3.45488,-0.11835 -5.15986,-1.47794c-2.31061,-1.84052 -6.06592,1.05633 -7.99095,-1.90765c-0.60474,-0.09207 -1.26753,-0.39221 -1.76751,0.15929c-2.02059,2.22246 -2.6797,3.61589 -6.02067,3.97757c-1.70411,0.18393 -3.50597,-0.42071 -4.76961,-1.57539c-1.5345,0.81928 -3.32639,0.95357 -4.8609,0.13147c-6.40536,4.7237 -16.88152,6.87559 -24.21201,3.63766c-2.43967,-1.07811 -6.34519,-2.54366 -7.21913,-5.28953c-0.65534,-2.06368 2.17966,-1.78456 0.52136,-4.00148c-2.08245,-2.7861 2.80094,-4.52931 2.27521,-6.47351c-0.34093,-1.26384 -0.91425,-2.93382 0.11615,-4.11189c1.22816,-1.40757 2.8695,-0.89934 3.04764,-3.43751c0.10811,-1.53816 0.0746,-3.05177 1.5061,-3.9603c1.40021,-0.88993 3.53992,-0.26155 3.65594,-2.47097c0.08092,-1.51899 0.66697,-2.82011 2.05598,-3.58401c1.07769,-0.59234 2.44325,-0.08267 3.36695,-0.89396c0.21549,-1.89066 2.64999,-5.64162 4.59885,-3.68346c3.8264,3.84208 -1.12418,14.11238 11.82902,18.61565c1.99403,-0.69115 5.13077,-0.79143 6.18815,1.53678c3.63972,-0.6592 6.60019,0.12729 8.43585,3.52444c3.11426,-1.36443 3.6743,2.08613 6.2304,1.555c-6.28831,-6.26735 -2.25506,-9.88133 2.95133,-14.92949c-4.01142,-4.13619 -14.44392,-8.83855 -14.44392,-8.83855c7.35927,-2.65653 18.42916,-1.33449 26.35486,-1.01915c-2.50974,-3.81843 -3.03991,-10.01624 -7.88414,-11.6737c-0.21924,-0.35872 0.02325,-0.77295 0.30701,-1.00425c13.4857,-0.29981 8.29991,6.01176 18.02002,9.15822c-0.44955,-3.18021 -1.79624,-6.42866 -0.78575,-9.66733c0.56462,-0.28787 11.24449,1.65511 12.90761,1.38333c0.19127,-1.91344 0.80005,-3.79994 0.6761,-5.7344c-1.18259,-0.63618 -2.71633,-0.54502 -3.77703,-1.42852c-0.08253,-1.62952 1.04604,-2.14512 1.50645,-3.34397c0.20086,-0.52176 -0.37732,-0.92141 -0.72821,-1.16841c-3.27283,-2.31501 -8.14536,-5.06525 -6.49819,-11.88201c1.46922,-2.97814 1.14915,-6.05726 2.18724,-8.97287c0.13881,-0.36347 0.40475,-0.33006 0.6878,-0.18718z" fill="#272525"/><path d="M305.25009,164.07906c-9.1951,-1.85221 -18.42423,-2.43404 -27.68759,-3.73227c0.1802,-1.62008 1.22995,-6.63421 1.06736,-7.68325c-0.10643,-0.68203 -2.76796,-0.04798 -4.0385,-0.66156c-0.76659,-2.13794 2.43602,-1.80467 2.58559,-3.16306c-2.82668,-3.82721 -11.17296,-2.92752 -8.73496,-13.40445c5.34934,9.03972 30.46593,10.01973 36.25942,25.80187c0.29522,0.81256 0.48456,1.9739 0.54868,2.84272z" fill="#5b76df"/><path d="M318.74862,171.0449c-4.75396,-0.1694 -32.02562,-3.24303 -53.04419,-0.71537c-0.65771,-2.99162 -1.04171,-6.05676 -1.00076,-9.13727c13.06399,0.80898 48.25132,6.2259 52.38231,7.53468c1.58565,0.50183 1.71535,0.75408 1.66263,2.31796z" fill="#5b76df"/><path d="M308.17766,172.25727c0.15404,-0.37974 0.57929,-0.56574 0.94981,-0.41544c0.37054,0.1503 0.54603,0.57998 0.39199,0.95973c-0.15404,0.37974 -0.57927,0.56574 -0.94981,0.41544c-0.37054,-0.1503 -0.54604,-0.57999 -0.39199,-0.95973z" fill="#272525"/><path d="M308.99086,172.63353l-2.53775,-1.2992c0.6714,0.32415 3.41796,-0.50096 2.53775,1.2992z" fill="#ffffff"/><path d="M304.23299,171.24204c0,0 13.70087,8.51016 18.10434,14.66475c-4.72824,-1.1453 -9.2416,-3.40561 -13.55436,-5.6018c1.46954,-0.29203 4.30943,-0.87099 4.30943,-0.87099c-3.06801,-0.89918 -6.28932,-1.50552 -9.50518,-1.13302c-0.18589,1.4559 5.66372,4.71579 6.48471,5.24846c-0.2639,1.039 -0.45881,2.09411 -0.85492,3.09458c-3.64137,-4.66272 -8.19791,-9.81213 -16.30196,-9.07859c-0.36427,7.1019 5.0939,10.13503 11.36188,10.25923c1.66934,2.80954 2.80545,5.90673 4.04181,8.93235c-8.16945,-4.34875 -14.29337,-8.44618 -19.73193,-16.16993c2.64199,-2.23263 3.83622,-5.79391 4.16244,-9.14936l1.76674,-0.15744c-0.66771,6.2245 8.04948,7.67996 8.81066,1.36604c0.05866,-0.49311 0.0201,-0.92746 0.13139,-1.43591z" fill="#9ed400"/><path d="M299.41026,175.10231c-2.36934,0.46444 -2.52507,-1.61779 -2.76175,-3.77712c1.66616,-0.43889 3.36662,-0.02322 5.04792,-0.21207c0.23798,2.42748 -0.75363,3.68819 -2.28617,3.9892z" fill="#ffffff"/><path d="M266.21849,189.18236c1.59797,-3.7957 2.60331,-5.77927 6.74901,-6.50733c4.16504,-0.73316 9.13682,-5.23225 11.05022,-8.97553c-0.31688,-1.39762 -1.53583,0.75075 -1.84764,1.09909c-2.46163,2.75903 -13.69471,10.80464 -25.02767,3.92191c-1.93409,-1.17519 -4.24095,-1.64693 -6.4855,-1.29589c5.9172,-3.4325 9.37569,-0.50044 14.78628,0.09071c3.01339,0.32883 8.02433,-2.09862 10.14082,-4.25952l0.22534,-0.93593c4.83134,0.10368 9.62261,-0.86972 14.44597,-0.91928c-0.1742,2.94877 -2.35357,6.09208 -4.4648,8.05116c-4.88689,4.52921 -16.22696,4.46916 -19.57203,9.73064z" fill="#ffffff"/><path d="M299.76098,172.55104c0.26946,-0.66429 1.01399,-0.98941 1.66292,-0.72618c0.64893,0.26323 0.95656,1.01515 0.6871,1.67944c-0.26946,0.66429 -1.01398,0.98942 -1.66292,0.72618c-0.64893,-0.26323 -0.95656,-1.01515 -0.6871,-1.67944z" fill="#272525"/><path d="M254.59837,165.97877c2.07551,1.91997 5.30123,3.22845 8.17132,3.31462c0.83113,1.15944 0.75712,2.82367 1.89438,3.8483c3.07072,-0.65583 6.15909,-0.73797 9.21082,-0.73244c-2.88711,2.42456 -6.9227,3.61276 -10.53506,3.37982c-11.23597,-2.64445 -10.50454,-12.47118 -16.08497,-15.41037c6.27656,0.95969 4.89581,3.73307 7.34352,5.60007z" fill="#ffffff"/><path d="M288.57869,185.05252c-0.49688,1.59737 -1.87049,2.63191 -2.62516,4.12255c-1.21228,-1.82664 -2.52019,-3.53993 -3.90719,-5.18062l4.07972,-1.78647z" fill="#5b76df"/><path d="M280.85116,184.84454c3.61011,5.44211 7.3077,10.83879 11.43411,15.88602c-0.67692,0.24017 -5.22388,1.72596 -5.59342,1.68721c-0.92652,-0.09957 -8.60806,-14.18283 -9.62472,-16.02617l-0.51616,-0.20937l-0.26839,0.66163c1.32932,3.07845 2.94888,6.00808 4.40086,9.0262c-0.83299,1.59593 -1.69921,3.23124 -3.01482,4.47924c-10.22286,-1.52665 -21.52958,-8.53255 -29.46186,-15.03295c-4.53471,-3.71609 -8.28825,-8.33905 -13.58577,-10.95412c6.33643,-0.81603 12.72558,-0.8229 19.08881,-0.88561c-3.96,0.84223 -7.40997,3.26834 -8.80595,7.26575c4.05327,-1.65476 10.22381,-1.19456 14.52572,1.4753c2.3213,1.4391 5.904,1.35138 8.56034,1.36594c-2.8788,2.35887 -4.50921,6.56443 -4.25812,10.49724c1.74077,-1.38632 2.88971,-3.53502 4.73442,-4.75724c3.62923,-2.3998 8.48321,-3.78587 12.59919,-5.00728z" fill="#5b76df"/><path d="M297.84104,200.98242c-0.56627,0.28397 -0.99168,0.47075 -1.67693,0.55323c-2.93578,-3.50239 -6.03608,-6.96899 -8.92033,-10.60373l1.16464,-1.63405c3.19288,3.86351 6.22446,7.86665 9.43261,11.68456z" fill="#5b76df"/><path d="M324.92053,214.22669c-0.61367,1.13776 -1.72906,1.91877 -3.00843,1.86168c-2.92653,-0.93137 -6.37073,-2.94359 -9.57967,-1.93374c-1.30966,0.75185 -2.84551,-0.02439 -3.87874,-0.4435c1.13725,-1.0797 2.36493,-2.12163 2.92211,-3.74526c3.34927,-0.8504 5.88751,2.64505 9.20677,1.62924c1.68563,-0.08783 4.00693,0.85379 4.33794,2.63159z" fill="#a16520"/><path d="M307.12119,212.55333c-2.13343,-0.85138 -0.94997,-2.53715 0.5705,-3.26068c-1.65101,-0.69454 -1.81651,0.80955 -2.54854,0.35289c0.29129,-0.5984 0.47873,-1.26265 0.43313,-1.92971c1.09364,-0.16609 2.11661,-0.50652 2.92849,0.37317c1.93075,2.09326 1.10053,2.92952 -1.38357,4.46432z" fill="#9ed400"/><path d="M299.50842,205.15088c0.00548,0.36158 -0.57938,0.68873 -0.97785,0.68141c-0.92846,-0.42733 -1.55387,-1.34902 -2.02904,-2.15688c1.2484,-0.9839 2.14893,0.8717 3.0069,1.47547z" fill="#9ed400"/><path d="M301.01652,208.58673c-0.95786,2.14852 -0.75844,6.40028 1.46211,7.63017c-0.12401,0.52919 -0.78197,0.65079 -1.19427,0.85046c-1.67284,-0.48109 -1.76059,-1.87426 -2.41456,-3.18845c-0.23041,-0.46685 -1.04709,-0.3956 -1.15945,0.14479c-0.14279,0.68453 0.82213,2.51444 1.11567,3.17416c-2.17134,1.06707 -2.69899,-2.31966 -2.44915,-3.71508c0,0 -2.06804,1.78343 -3.09568,0.59499c-0.22912,-3.25806 2.42578,-4.86278 0.60035,-6.53995l-3.8619,-3.56835c1.44876,0.00926 3.11186,-0.82908 3.8622,-0.73946c1.53577,1.13557 3.35252,3.30237 4.82144,4.51766c1.13202,-1.45521 2.60916,-1.66753 4.1167,-1.25781c0.27445,0.34766 1.10973,0.65087 1.08183,1.15862c-0.07183,1.25719 -2.09772,0.39873 -2.88528,0.93825z" fill="#9ed400"/><path d="M285.49826,205.11817c0.65929,0.21564 1.36136,-0.27008 2.06242,-0.39685c0.75244,0.61386 1.56777,1.20035 2.24095,1.88457c-2.48207,1.92088 -4.28298,-1.78808 -6.83258,-1.17984c-0.44747,-0.12863 -0.90024,-0.00473 -1.33986,-0.02767c-1.63499,-1.2794 -3.50848,-0.8588 -5.25063,-1.25684c-0.68162,0.44329 -1.09661,-0.75239 -1.54788,-1.24407c1.01298,-0.15349 3.02511,1.43323 3.95197,0.01027c1.15222,-1.4837 1.81053,-3.47638 3.05677,-4.81943c1.27604,2.15899 2.581,4.7441 3.65885,7.02988z" fill="#ffffff"/><path d="M270.78746,201.87245c3.76384,3.68506 6.03881,8.81651 8.18494,13.90111c0.65861,1.96249 1.34632,4.09002 1.63067,6.1079c-2.45385,0.23915 -4.92941,0.05295 -7.34908,0.09878c0.20391,-3.10183 -3.85374,-9.26829 -4.38478,-9.43299c-0.66431,2.99709 -2.90089,6.18301 -4.73108,8.20213c-4.01098,0.6327 -8.02402,-0.22464 -12.04058,-0.31506c-0.20881,-5.5322 -1.3853,-12.01486 -5.20325,-16.18372c-2.40942,-3.44319 -10.62999,-10.95946 -9.68129,-13.01888c1.49613,-3.24671 3.82933,-5.02403 6.35824,-7.18276c5.09664,3.71417 16.91582,14.25603 27.21622,17.8235z" fill="#5b76df"/><path d="M306.13969,213.49117c-0.1567,0.75874 -1.1262,1.28922 -1.93186,1.42644c-1.33254,-0.54054 -1.46819,-2.54988 -1.80614,-3.81575c0.22846,-0.31848 0.63627,-0.20377 0.98111,-0.31965c1.29851,0.62709 1.8095,1.70847 2.75691,2.70897z" fill="#9ed400"/><path d="M291.64018,211.20635c-0.99987,-0.25128 -1.95234,-1.35634 -3.3454,-0.63832c-1.47069,-0.08291 -2.57018,-1.19797 -4.07581,-0.3195c-1.85347,0.12119 -3.38295,-1.1683 -5.08649,-1.29171c-0.99987,-0.25128 -0.96134,-1.57269 -1.50942,-2.20617c2.00446,-0.00922 4.57853,-0.29997 6.27874,1.31346c2.30204,0.01005 4.58212,1.29538 6.89829,0.53634c0.6488,0.00742 1.27056,0.56827 1.91695,0.57364z" fill="#a16520"/><path d="M214.07648,191.55561c-3.36276,2.7086 -2.79999,9.11605 -0.80724,12.36001c-0.11902,0.45568 -0.96035,0.5957 -1.34221,0.84008c-3.80786,2.43849 -9.66304,4.76304 -14.14381,4.12496c-2.991,-0.42658 -8.47184,-2.03904 -10.48204,-4.40734c-1.81966,-2.14101 0.26946,-1.60869 0.55667,-3.47133c0.35006,-2.26232 -3.22258,-2.18347 -1.13041,-4.00244c1.13551,-0.98759 3.55019,-1.15415 3.4419,-3.17506c-0.0837,-1.54152 -2.29462,-2.03691 -1.59612,-3.47157c4.66522,-1.8997 1.8027,-4.92561 3.22133,-6.08973c1.00604,-0.82537 3.08368,0.30986 4.77149,-1.14543c1.76147,-1.51714 -1.03779,-5.25768 2.36246,-5.20682c0.80809,0.01376 1.38443,0.10402 2.20617,-0.13135c1.46459,-0.41814 1.54638,-5.25943 3.38812,-2.42529c0.69599,1.07225 0.3818,4.78115 0.98459,6.46092c0.88606,2.46591 2.02402,4.76313 3.58341,6.84605c1.3216,1.762 3.11881,2.0216 4.98566,2.89434z" fill="#e7c45e"/><path d="M286.09967,213.01322c-0.2579,2.67093 1.63683,5.75752 -0.81531,7.93982c-0.96029,0.85363 -1.34918,2.00919 -2.22701,2.89629l-0.91004,-0.47274c1.77532,-2.03814 -1.12206,-9.74009 -2.23541,-11.90107c1.65924,0.10759 3.56625,0.28008 4.77183,1.57522c0.47094,-0.04098 0.95121,-0.20337 1.41594,-0.03752z" fill="#ffffff"/><path d="M295.56315,221.3628c0.07963,2.45605 -0.31447,3.88252 -0.26463,6.35347c0.05993,2.87972 1.44842,4.71094 0.37074,7.36768c-0.93823,2.31296 -2.73354,3.03829 -5.04064,3.87871c-1.66998,0.61324 -4.5389,-0.97893 -3.6831,-2.56991c0.91488,-1.67277 3.62829,-3.50953 2.23933,-4.74633c-1.41267,-1.2475 -2.18144,-1.09747 -3.54722,-2.13602c2.03427,-3.96944 4.41031,-5.24053 4.71575,-9.28966c0.19244,-2.61332 -1.15856,-3.94371 -2.2739,-6.30729c3.70195,-1.62137 7.35097,3.49336 7.48367,7.44936z" fill="#7e4094"/><path d="M290.55675,232.15111c0.17253,0.60955 -1.07234,1.47833 -1.44181,2.00076c-0.80631,1.07257 -1.4794,2.09342 -2.66722,2.68858c-0.49947,0.25495 -0.62817,-0.65949 -0.91226,-1.12436l2.95024,-3.64968c0.48227,0.30355 1.91937,-0.4592 2.07104,0.08471z" fill="#272525"/><path d="M292.16966,234.84172c-0.812,1.13717 -2.4451,1.80314 -3.68928,2.30313c-4.35513,-4.17743 -8.232,-8.83422 -12.441,-13.16171c2.72144,-0.12198 5.43762,0.18664 7.09764,2.6201c2.4167,-0.35243 2.96149,-3.02029 3.99647,-4.7976c1.4286,-2.45504 1.70186,-3.88953 1.11321,-6.68695c0.74994,0.97651 1.93641,4.37255 1.59036,5.57679c-0.11888,0.42875 -4.35817,6.43685 -5.10265,7.8917c0.13254,0.54585 2.03416,2.1363 2.03416,2.1363c0.11661,-0.18904 0.32815,-0.80897 0.72063,-1.32423c-0.05266,-0.32244 -0.79008,-0.66474 -0.69103,-0.83175c1.47419,-2.35994 4.12834,-6.63908 4.46771,-7.80825c0.42827,-1.46549 -0.93662,-4.52275 -1.58911,-5.83528c0.78935,1.23315 3.13781,3.27571 3.12819,4.75995c-0.01481,3.39652 -5.69555,9.76308 -6.00606,10.99144c-0.17472,0.72338 4.19081,2.94638 5.37076,4.16638z" fill="#9e73bf"/><path d="M200.86571,179.05719c0.68322,5.31241 5.68482,12.99597 11.10439,14.10767c0.24445,0.52002 -0.29471,0.96067 -0.64792,1.22747c-5.23732,0.59388 -12.79948,-10.57799 -10.75671,-15.45693z" fill="#272525"/><path d="M228.83244,195.17684c-2.88634,-1.36829 -5.90256,2.52116 -5.12432,5.47103c0.52957,1.99864 2.98232,1.98566 4.60507,2.22845c-5.26778,6.94738 -15.86729,-5.28174 -6.3749,-9.46976c2.12074,-0.93436 5.64294,-0.26099 6.89415,1.7703z" fill="#e7c45e"/><path d="M244.14343,203.85452c-1.92173,0.60069 -2.95797,-1.7211 -4.8168,-1.95389c-2.85561,-0.35331 -3.21526,0.90044 -6.02348,-0.95308c-2.04209,-1.34527 -5.68312,2.33932 -7.61385,-0.98309c0.26089,-5.54348 4.14068,-0.5747 6.44809,-2.93225c1.47302,-0.16759 1.7894,1.64097 3.49079,1.51961c4.64368,-0.33289 6.23374,1.24881 8.51523,5.3027z" fill="#a16520"/><path d="M220.21768,192.09349c-2.25284,1.90379 -4.47471,4.96297 -3.77542,8.07289c0.30685,1.36116 1.16572,2.42826 1.77595,3.6481c-4.29325,1.32324 -7.11938,-9.58182 0.62756,-11.91706c0.68765,-0.08041 0.94498,-0.18538 1.37192,0.19607z" fill="#dc511b"/><path d="M198.68989,189.73111c3.24774,2.24116 7.34361,3.74829 10.87374,5.5407c0.17561,0.43166 0.83114,0.54218 0.72707,1.17119c-0.81812,0.90483 -1.95256,-0.12404 -2.92019,-0.21008c-6.03747,-1.78321 -11.91132,-4.83172 -14.58361,-10.59054l0.1793,-0.44202c1.8811,1.53464 3.41389,3.43842 5.72368,4.53076z" fill="#272525"/><path d="M266.07866,225.95239c-1.56966,1.52049 -3.69991,2.19629 -5.80639,2.83211c0,0 0.99108,2.86679 0.5576,4.18016l-2.65456,0.00234c0.66818,-3.37645 -0.00712,-7.1414 -1.65025,-10.37736c1.16288,0.2192 2.25395,0.12328 2.99853,0.09942c0.5265,1.29055 1.61663,4.44787 3.19015,2.6678c2.87469,-2.27421 4.54619,-5.65266 6.2341,-9.0795c0.29382,3.35661 -0.86753,6.83948 -2.86919,9.67502z" fill="#9e73bf"/><path d="M262.59461,231.57512l-0.21093,-1.5737c3.63841,-0.96189 6.96028,-3.20794 7.93923,-7.10042c0.50543,-2.02016 -0.00024,-4.04579 -0.03755,-6.07676c3.37651,7.69665 0.275,13.01483 -7.69076,14.75089z" fill="#7e4094"/><path d="M190.43421,195.26791c0,0 9.60493,2.73608 14.18588,2.93026c1.41622,0.05756 5.28681,-1.14684 6.07032,0.71524c0.33742,0.80162 -0.51132,0.93863 -1.03525,1.07035c-5.28532,1.33737 -16.23209,0.47535 -19.22095,-4.71585z" fill="#272525"/><path d="M262.07592,223.96828c-0.45679,-0.23601 -0.62165,-0.81655 -0.94505,-1.25637c0.55644,-0.13472 1.09663,0.13512 1.62373,0.19246z" fill="#ffffff"/><path d="M211.20045,202.71601c-2.55342,3.99627 -17.82327,4.672 -22.01272,2.78373l-0.03493,-0.53108c3.23877,-0.53803 6.36645,-0.11321 9.6692,-0.75045c1.80909,-0.34962 10.33723,-2.64207 11.22392,-2.4842c0.45161,0.07851 1.10192,0.45993 1.15454,0.982z" fill="#272525"/><path d="M261.73124,237.90154c-1.65323,0.33514 -3.21368,-0.22878 -4.684,-0.92448c0.49821,-0.87705 0.11766,-2.58861 1.63794,-2.31402c0.86833,0.15259 1.9346,0.03798 2.70589,0.48034c0.16461,0.59448 0.50885,2.13483 0.34018,2.75815z" fill="#7e4094"/></g></g></svg>