<svg version="1.1" xmlns="http://www.w3.org/2000/svg" xmlns:xlink="http://www.w3.org/1999/xlink" width="59.44193" height="102.6884" viewBox="0,0,59.44193,102.6884"><g transform="translate(-211.40445,-140.47851)"><g stroke-miterlimit="10"><path d="M234.36662,205.98784l1.04544,-15.62125" fill="none" fill-rule="nonzero" stroke="#ffffff" stroke-width="6" stroke-linecap="round"/><path d="M216.81978,206.99994c1.32333,-1.57529 18.74854,-15.84303 18.74854,-15.84303l17.85596,17.17159" fill="none" fill-rule="nonzero" stroke="#ffffff" stroke-width="6" stroke-linecap="round"/><g stroke-linecap="butt"><g><path d="M268.59638,174.08295c-4.13875,12.67317 -19.05078,19.68947 -33.30698,15.67137c-14.25618,-4.01811 -22.45798,-17.54905 -18.31921,-30.22223c4.13875,-12.67317 19.05078,-19.68947 33.30698,-15.67137c14.25618,4.01811 22.45798,17.54905 18.31921,30.22223z" fill="none" fill-rule="nonzero" stroke="#ffffff" stroke-width="4.5"/><g><g fill-rule="nonzero"><path d="M232.32482,147.66947l0.00911,0.0109" fill="#ffab19" stroke="#ffffff" stroke-width="5"/><g fill="none" stroke="none" stroke-width="1" font-family="sans-serif" font-weight="normal" font-size="12" text-anchor="start"/></g><path d="M232.32482,147.66947l0.00911,0.0109" fill="#ffab19" fill-rule="nonzero" stroke="#ffffff" stroke-width="5"/><path d="M242.11177,167.87655" fill="#001026" fill-rule="evenodd" stroke="#ffffff" stroke-width="5"/><g fill="none" fill-rule="nonzero" stroke="none" stroke-width="1" font-family="sans-serif" font-weight="normal" font-size="12" text-anchor="start"/><g fill="none" fill-rule="nonzero" stroke="none" stroke-width="1" font-family="sans-serif" font-weight="normal" font-size="12" text-anchor="start"/></g></g></g><path d="M234.77945,207.66692l12.625,32.5h7.75" fill="none" fill-rule="nonzero" stroke="#ffffff" stroke-width="6" stroke-linecap="round"/><path d="M234.02945,207.04192l-14,28.625l-5.625,0.875" fill="none" fill-rule="nonzero" stroke="#ffffff" stroke-width="6" stroke-linecap="round"/></g></g></svg>