<svg version="1.1" xmlns="http://www.w3.org/2000/svg" xmlns:xlink="http://www.w3.org/1999/xlink" width="81.58622" height="109.36067" viewBox="0,0,81.58622,109.36067"><defs><linearGradient x1="202.07614" y1="170.32899" x2="179.93097" y2="173.93204" gradientUnits="userSpaceOnUse" id="color-1"><stop offset="0" stop-color="#000000"/><stop offset="1" stop-color="#000000" stop-opacity="0"/></linearGradient></defs><g transform="translate(-178.65688,-135.25656)"><g data-paper-data="{&quot;isPaintingLayer&quot;:true}" stroke-miterlimit="10" stroke-dasharray="" stroke-dashoffset="0" style="mix-blend-mode: normal"><g stroke-linejoin="miter"><path d="M249.58004,158.58692c2.1601,13.27644 -7.33628,25.8691 -21.21077,28.1265c-13.87448,2.2574 -26.87307,-6.6753 -29.03316,-19.95174c-2.1601,-13.27644 7.33628,-25.8691 21.21077,-28.1265c13.87448,-2.2574 26.87307,6.6753 29.03316,19.95174z" fill="none" fill-rule="nonzero" stroke="#000000" stroke-width="4.5" stroke-linecap="butt"/><g><g fill-rule="nonzero" stroke-linecap="butt"><path d="M207.04049,149.56559l0.0126,0.00616" data-paper-data="{&quot;index&quot;:null}" fill="#ffab19" stroke="#000000" stroke-width="5"/><g data-paper-data="{&quot;index&quot;:null}" fill="none" stroke="none" stroke-width="1" font-family="sans-serif" font-weight="normal" font-size="12" text-anchor="start"/></g><path d="M207.04049,149.56559l0.0126,0.00616" data-paper-data="{&quot;index&quot;:null}" fill="#ffab19" fill-rule="nonzero" stroke="#000000" stroke-width="5" stroke-linecap="butt"/><path d="M224.36708,163.92815" fill="#001026" fill-rule="evenodd" stroke="#000000" stroke-width="5" stroke-linecap="butt"/><g data-paper-data="{&quot;index&quot;:null}" fill="none" fill-rule="nonzero" stroke="none" stroke-width="1" stroke-linecap="butt" font-family="sans-serif" font-weight="normal" font-size="12" text-anchor="start"/><g data-paper-data="{&quot;index&quot;:null}" fill="none" fill-rule="nonzero" stroke="none" stroke-width="1" stroke-linecap="butt" font-family="sans-serif" font-weight="normal" font-size="12" text-anchor="start"/><path d="M246.78155,137.75656c-1.2068,2.3502 -10.24085,19.05113 -10.24085,19.05113" fill="none" fill-rule="nonzero" stroke="#000000" stroke-width="5" stroke-linecap="round"/><path d="M203.43929,156.40865c0,0 -1.23588,-0.24783 -0.65621,-0.21454c2.9979,0.17224 29.44718,1.86868 29.44718,1.86868" fill="none" fill-rule="nonzero" stroke="#000000" stroke-width="5" stroke-linecap="round"/></g><path d="M229.89663,157.62351l1.83356,12.72485" fill="none" fill-rule="nonzero" stroke="#000000" stroke-width="4.5" stroke-linecap="round"/><path d="M239.88449,168.07452l-1.94616,-13.41689" fill="none" fill-rule="nonzero" stroke="#000000" stroke-width="4.5" stroke-linecap="round"/><path d="M222.79242,188.50587l-29.10304,4.49833c0,0 -2.42765,0.05118 -2.23019,-0.8943c0.45279,-2.16804 4.89211,-11.85162 4.89211,-11.85162l-12.17198,-2.04494c0,0 -2.24687,-0.55014 -2.73864,-1.58383c-0.45748,-0.9616 9.28457,-12.03081 9.28457,-12.03081c0,0 -8.73938,-2.23522 -11.26782,-3.83089c-0.99285,-0.62658 10.17032,-10.19379 18.12739,-15.26603c3.89363,-2.48199 9.16116,-6.12272 13.67357,-7.59678c7.48189,-2.4441 13.77016,-1.1453 13.77016,-1.1453" fill="none" fill-rule="nonzero" stroke="#000000" stroke-width="3" stroke-linecap="round"/><path d="M191.84396,193.30443c0,0 -0.74873,-1.30052 0.15439,-3.40573c1.13119,-2.63683 5.88023,-6.70307 3.86862,-8.76829c-2.60583,-2.67529 -14.97835,-0.19881 -14.06349,-4.24525c0.75121,-3.32261 9.02375,-10.20441 8.6911,-12.24895c-0.33191,-2.04002 -4.63856,-0.06548 -7.6659,-2.36017c-4.30553,-3.26353 -2.53159,-3.55781 -2.53159,-3.55781c0,0 10.3685,-9.25766 15.59754,-12.58744c4.906,-3.12407 14.86939,-6.81347 14.86939,-6.81347c0,0 -12.53323,15.96692 -13.34465,24.25348c-0.89947,9.18579 19.41842,24.71996 19.41842,24.71996z" data-paper-data="{&quot;index&quot;:null}" fill="url(#color-1)" fill-rule="nonzero" stroke="none" stroke-width="0" stroke-linecap="butt"/></g><path d="M231.75575,204.23155l-2.28817,-15.73102" fill="none" fill-rule="nonzero" stroke="#000000" stroke-width="6" stroke-linecap="round" stroke-linejoin="miter"/><path d="M202.66224,197.14647c0.47471,-0.96749 9.46499,4.72164 16.6399,3.07511c6.3371,-1.45427 10.98762,-10.31803 10.98762,-10.31803c0,0 7.06482,5.67424 9.42336,7.25667c2.22601,1.49351 7.18405,1.3935 7.18405,1.3935" fill="none" fill-rule="nonzero" stroke="#000000" stroke-width="6" stroke-linecap="round" stroke-linejoin="miter"/><g><g><g stroke="#001026" stroke-width="1.2"><path d="M240.42653,201.08842l8.19018,24.83604c0,0 6.99716,-1.04459 8.28892,5.93964c0.07364,0.39817 0.38317,2.36401 -2.35323,3.53167c-2.62092,1.11836 -8.24396,1.44618 -10.30104,1.55409c-0.95542,0.05011 -2.49631,-0.28163 -3.62206,-1.16655c-1.13344,-0.891 -1.36488,-2.48368 -1.54956,-3.36821c-0.07523,-0.36027 -8.04517,-28.25741 -8.04517,-28.25741" fill="#bf0000" fill-rule="evenodd" stroke-linecap="round" stroke-linejoin="round"/><path d="M232.06558,209.92942c-1.32384,-7.1577 3.88301,-8.37733 6.62284,-8.88407c1.19138,-0.22035 0.63233,-2.09036 2.84865,3.26053c0.48812,1.17848 1.9975,6.12014 3.86673,10.20383c1.27997,2.79635 3.07023,5.12722 3.45926,5.82312c0.91918,1.64426 1.02881,3.29577 1.02881,3.29577l-1.24241,-0.95663c0,0 0.82796,0.67462 1.19293,1.10418c1.137,1.33819 2.0035,2.34643 2.0035,2.34643c0,0 -7.06618,1.01054 -9.31613,3.80099c-2.24995,2.79044 -0.02832,6.68984 -0.02832,6.68984c0,0 -5.33174,0.28856 -6.34276,-2.47437c-0.24925,-0.68113 0.11388,-2.93957 0.11388,-2.93957c0,0 -0.56585,0.242 -0.6869,-0.24042c-0.06171,-0.24592 -0.04102,-4.0902 -0.73221,-8.26509c-0.9099,-5.49594 -2.59714,-11.73323 -2.78788,-12.76453z" fill="#000000" fill-rule="nonzero" stroke-linecap="butt" stroke-linejoin="miter"/></g><path d="M222.14335,206.73005c-0.05345,-0.20705 1.25858,0.16151 3.95384,-0.32885c3.55575,-0.6469 8.88301,-2.20203 10.36069,-2.73623c3.83189,-1.38526 4.18899,-3.01022 4.33068,-2.46136c0.52432,2.03109 -0.91326,6.29808 -5.38697,7.45296c-1.96599,0.50751 -5.88249,2.04505 -8.33311,1.80475c-3.12589,-0.30652 -4.63122,-2.59279 -4.92513,-3.7313z" fill="#004fd9" fill-rule="nonzero" stroke="#001026" stroke-width="1.2" stroke-linecap="butt" stroke-linejoin="miter"/><g fill-rule="nonzero" stroke-linecap="butt" stroke-linejoin="miter"><g fill="none" stroke="none" stroke-width="1" font-family="sans-serif" font-weight="normal" font-size="12" text-anchor="start"/><path d="M221.38738,205.49602c0,0 8.75554,-0.48674 12.6509,-1.3217c3.89534,-0.83496 6.82587,-2.8531 6.82587,-2.8531c0,0 0.45132,2.00111 -0.87818,4.31927c-1.02911,1.7944 -3.28769,3.90312 -6.62428,4.63691c-3.03972,0.66851 -6.57213,0.74063 -8.52942,-0.22c-2.96666,-1.45605 -3.44488,-4.56139 -3.44488,-4.56139z" fill="#000000" stroke="#001026" stroke-width="1.2"/></g><g stroke="#001026" stroke-width="1.2"><path d="M231.82708,208.62032c0,0 2.88787,30.28295 2.30401,30.50724c-1.67554,0.64363 -11.70523,0.12527 -11.70523,0.12527l-0.12408,-31.02906" data-paper-data="{&quot;index&quot;:null}" fill="#ffab19" fill-rule="evenodd" stroke-linecap="round" stroke-linejoin="round"/><path d="M233.19075,207.8366c0,0 0.53736,6.41908 1.00396,9.78455c0.44756,3.22799 1.74093,10.01307 1.74093,10.01307c0,0 1.9581,4.71686 1.30359,6.11834c-0.30314,0.64912 -1.33317,-2.61535 -1.33317,-2.61535c0,0 1.15755,3.68097 1.2634,4.00461c0.73852,2.25813 0.21426,5.53655 -2.76565,6.46194c-3.27176,1.01602 -8.7309,2.53313 -11.9669,1.30219c-1.37687,-0.52375 -3.50098,-2.46964 -3.56966,-5.00224c-0.07746,-2.85612 1.99861,-6.30021 1.99861,-6.30021l-1.80427,3.65812c0,0 -0.3544,-1.56354 -0.19484,-2.79839c0.17919,-1.38673 1.21797,-5.1193 1.21797,-5.1193l1.31725,-20.05739" data-paper-data="{&quot;index&quot;:null}" fill="#000000" fill-rule="evenodd" stroke-linecap="round" stroke-linejoin="round"/><path d="M236.03216,236.80348c0.26443,1.67894 -0.01369,3.75227 -1.28519,5.06504c-1.27623,1.31763 -10.29677,2.79145 -11.936,1.85138c-1.55672,-0.89276 -2.54339,-2.93895 -2.80147,-4.57758c-0.52984,-3.3641 2.62742,-6.61483 7.05197,-7.26068c4.42452,-0.64586 8.44085,1.55773 8.97067,4.92186z" fill="#ff0000" fill-rule="nonzero" stroke-linecap="butt" stroke-linejoin="miter"/></g></g><g fill="#000000" fill-rule="nonzero" stroke="#001026" stroke-width="1.2" stroke-linecap="butt" stroke-linejoin="miter"><path d="M225.02952,216.49423c0,0 -2.75863,1.04667 -3.68515,0.9722c-0.28522,-0.02294 -1.19397,-0.78735 -1.78907,-1.80024c-0.74276,-1.2642 -1.1545,-2.92815 -1.07659,-4.16703c0.20048,-3.18743 3.80626,-7.37359 5.94423,-7.20175c0.92658,0.07447 3.72273,2.04499 3.72572,2.05077"/></g></g><g fill-rule="nonzero" stroke-linecap="butt" stroke-linejoin="miter"><g data-paper-data="{&quot;index&quot;:null}" stroke="none" stroke-width="1"><path d="M248.87433,185.05359c-0.20765,-0.04285 -0.26504,-0.17954 -0.30385,-0.35191c-0.03944,-0.27685 -0.0224,-0.55626 -0.04293,-0.83397c-0.05687,-0.04966 -0.11373,-0.09934 -0.17047,-0.13158c-1.17351,-0.74786 -1.82131,-1.833 -2.28139,-3.04855c-0.09588,-0.25686 -0.21061,-0.51292 -0.21235,-0.79144c-0.0003,-0.05223 -0.0196,-0.12101 -0.05755,-0.15412c-0.20853,-0.18211 -0.20996,-0.40843 -0.23033,-0.65133c-0.02017,-0.20804 -0.00264,-0.41783 -0.00395,-0.62674c-0.00076,-0.12185 0.03616,-0.24544 0.14869,-0.33765c0.11253,-0.09216 0.16819,-0.23402 0.22394,-0.35843c0.24039,-0.7423 0.61303,-1.43837 1.09906,-2.08734c0.2805,-0.361 0.61795,-0.65495 0.97427,-0.94972c1.05021,-0.86612 2.27224,-1.39174 3.609,-1.66136c0.60253,-0.11438 1.22445,-0.1426 1.84679,-0.10118c0.47146,0.03086 0.90603,0.18532 1.32186,0.358c1.3231,0.54952 2.29027,1.46343 2.97628,2.63393c0.13333,0.22035 0.21038,0.47805 0.28741,0.73578c0.05765,0.17151 0.13403,0.3248 0.32313,0.42073c0.17013,0.07938 0.24652,0.23262 0.28531,0.40499c0.03944,0.27685 0.04119,0.5554 0.04292,0.83396c0.00055,0.08707 -0.0367,0.15842 -0.07398,0.22977c-0.16806,0.25142 -0.22297,0.51513 -0.24003,0.79456c-0.01511,0.5928 -0.21892,1.15929 -0.40388,1.72493c-0.07409,0.21235 -0.16697,0.42552 -0.29766,0.62302c-0.41065,0.64554 -0.84039,1.25715 -1.44037,1.77198c0.00165,0.26113 -0.01546,0.54055 -0.01367,0.8191c0.00066,0.10448 0.00142,0.22633 -0.11122,0.30108c-0.09378,0.07389 -0.0743,0.17753 -0.07362,0.28196c-0.01444,0.69723 -0.01006,1.39361 -0.02451,2.09084c-0.00911,1.55032 -0.01803,3.11802 -0.06481,4.67004c-0.047,1.5172 -0.03741,3.03183 -0.04673,4.54732c0.00155,0.24374 -0.03474,0.47176 -0.03318,0.71548c0.00747,1.18385 0.01492,2.36771 0.00355,3.55241c0.00132,0.2089 0.04031,0.41612 -0.07157,0.61273c-0.03725,0.07138 -0.01787,0.15752 -0.01733,0.24458c0.00552,0.8705 -0.00775,1.75924 -0.00226,2.62972c0.00021,0.03482 0.00052,0.08704 0.00076,0.12185c0.02062,0.2777 -0.11044,0.42297 -0.37352,0.5568c-0.88323,0.4406 -1.80601,0.58694 -2.76837,0.43906c-0.24533,-0.04112 -0.49086,-0.11706 -0.71778,-0.22865c-0.17014,-0.07938 -0.24642,-0.21521 -0.26638,-0.38843c-0.05981,-0.51973 -0.1385,-1.03859 -0.19843,-1.57574c-0.04011,-0.38132 -0.04264,-0.78174 -0.13929,-1.16047c-0.21257,-0.82625 -0.19911,-1.68019 -0.35518,-2.50898c-0.07837,-0.46663 -0.1943,-0.91417 -0.25381,-1.38168c-0.05972,-0.5023 -0.15702,-0.98552 -0.2355,-1.46953c-0.13751,-0.88191 -0.23745,-1.78294 -0.39383,-2.66399c-0.23349,-1.15616 -0.39164,-2.31581 -0.54976,-3.47539c-0.05906,-0.39788 -0.11815,-0.79567 -0.1772,-1.19356c-0.07937,-0.62334 -0.15877,-1.26404 -0.2381,-1.88735c-0.0399,-0.34649 -0.11735,-0.67387 -0.15727,-1.02032c-0.05885,-0.36308 -0.06093,-0.6938 -0.10104,-1.07514zM249.34391,184.78848c0.22681,0.09421 0.4534,0.15361 0.69849,0.15992c0.491,0.13445 1.00004,0.1462 1.50911,0.15792c0.6411,0.02316 1.30059,-0.02417 1.94125,-0.07065c0.73488,-0.05075 1.41213,-0.27303 2.10815,-0.51356c0.07516,-0.03825 0.15032,-0.07647 0.26306,-0.13383c-0.00086,-0.13926 -0.00179,-0.27854 -0.00266,-0.4178c-0.00021,-0.03482 -0.01928,-0.06879 -0.03846,-0.12015c-0.13192,0.00597 -0.26373,0.02937 -0.39545,0.07017c-0.22582,0.0625 -0.43301,0.08928 -0.65882,0.15175c-0.56471,0.13009 -1.14931,0.10441 -1.71434,0.18227c-0.30143,0.03111 -0.60261,0.09696 -0.90426,0.09325c-0.65995,-0.0223 -1.31933,0.04243 -1.97967,-0.04952c-0.16984,-0.02714 -0.3585,-0.05337 -0.52836,-0.08053c-0.07604,-0.10106 -0.2266,-0.05936 -0.32106,-0.08993c-0.11339,-0.04711 -0.22683,-0.09421 -0.43399,-0.06737c0.13333,0.22035 0.07824,0.44924 0.15492,0.65473c0.09435,0.01315 0.17038,0.11416 0.30209,0.07336zM250.10146,185.34622c-0.43445,-0.13705 -0.54762,-0.1493 -0.79241,-0.10339c0.02017,0.20804 0.04024,0.39872 0.06039,0.60678c0.00076,0.12185 0.07666,0.20551 0.19011,0.25261c0.07564,0.03142 0.16983,0.02712 0.24544,0.05852c0.28346,0.10908 0.60418,0.14674 0.90559,0.11566c0.13249,0.08103 0.28322,0.07425 0.43402,0.0674c0.84816,-0.02105 1.67764,-0.02387 2.52526,-0.13195c0.37671,-0.05191 0.75332,-0.12122 1.11093,-0.20712c0.28229,-0.08247 0.58336,-0.16577 0.80819,-0.38496c-0.00144,-0.22635 -0.00289,-0.45264 -0.0043,-0.67899c-0.15053,0.04163 -0.28228,0.08245 -0.39509,0.12238c-0.52681,0.16318 -1.05383,0.2916 -1.58131,0.35035c-0.67811,0.08299 -1.35681,0.07894 -2.03537,0.09232c-0.32041,0.01454 -0.62259,-0.07622 -0.94285,-0.0443c-0.17038,-0.11416 -0.35895,-0.12303 -0.52855,-0.11535zM252.56056,204.61706c0.2645,0.09249 0.52844,0.09795 0.79216,0.06857c0.01894,0.01655 0.05677,0.03225 0.07564,0.0314c0.45219,-0.03792 0.90417,-0.11066 1.3178,-0.28615c0.2445,-0.09817 0.48901,-0.1789 0.67624,-0.37896c-0.00614,-0.97495 -0.01233,-1.94985 -0.01876,-2.97705c-0.45108,0.21199 -0.90288,0.31962 -1.3547,0.40973c-0.39535,0.0876 -0.77258,0.05245 -1.16813,0.10523c-0.15076,0.00685 -0.28281,-0.00456 -0.43358,0.00228c-0.22668,-0.0768 -0.47202,-0.11791 -0.7548,-0.12251c0.0033,0.5223 0.15715,1.00293 0.19791,1.48869c0.05972,0.50231 0.1383,1.00379 0.19792,1.48867c0.17037,0.11416 0.32137,0.14218 0.47237,0.17013zM252.06733,201.13913c0.1325,0.08102 0.28336,0.09164 0.4341,0.08478c0.15121,0.06283 0.32074,0.03772 0.49043,0.04744c0.52782,-0.00654 1.05507,-0.1001 1.56322,-0.22763c0.30107,-0.08331 0.60197,-0.20148 0.8647,-0.38753c-0.00042,-0.06964 0.01797,-0.14012 0.01749,-0.20977c-0.00535,-0.85311 -0.01062,-1.68871 0.00282,-2.54265c0.01313,-0.90614 0.02637,-1.79489 0.03951,-2.70105c0.01048,-1.324 0.03999,-2.6314 0.05046,-3.9554c0.02837,-1.48152 0.00028,-2.94308 0.06635,-4.42631c0.01732,-0.24458 -0.00322,-0.50487 -0.00483,-0.76603c-0.20685,0.07905 -0.39463,0.19205 -0.60173,0.23626c-0.65862,0.18661 -1.33674,0.2696 -2.01508,0.3178c-0.60305,0.02735 -1.20624,0.03729 -1.80944,0.04722c-0.24523,-0.0237 -0.47147,-0.03086 -0.7167,-0.05457c-0.15141,-0.09763 -0.32082,-0.05511 -0.47181,-0.08308c-0.16984,-0.02714 -0.32103,-0.08993 -0.50939,-0.06397c-0.03659,0.17581 0.00198,0.31339 0.02159,0.43437c0.21379,1.01779 0.27691,2.05979 0.43416,3.08011c0.09842,0.65731 0.19679,1.3146 0.31408,1.97102c0.13751,0.88191 0.29377,1.74553 0.43119,2.61003c0.1176,0.70864 0.23516,1.41733 0.33388,2.12684c0.11789,0.76091 0.21683,1.50523 0.31591,2.267c0.09863,0.6921 0.19738,1.40162 0.31495,2.11028c0.1697,0.00971 0.28345,0.10904 0.43411,0.0848zM258.2147,177.5248c-0.4136,0.17548 -0.80897,0.26308 -1.20416,0.36808c-0.41407,0.10585 -0.80915,0.22829 -1.22332,0.31671c-0.39535,0.08759 -0.80976,0.14121 -1.20519,0.21136c-0.41431,0.07103 -0.82857,0.14208 -1.26179,0.19656c-0.39553,0.05275 -0.81005,0.08896 -1.20561,0.14173c-0.41449,0.0362 -0.82945,0.00279 -1.24352,0.10865c-0.39639,-0.08649 -0.81058,0.00194 -1.20648,0.00251c-0.4148,-0.01604 -0.84831,0.00365 -1.26313,-0.01236c-0.39597,-0.01688 -0.81092,-0.05032 -1.20701,-0.08459c-0.41496,-0.03345 -0.81148,-0.13738 -1.22606,-0.11854c-0.03506,0.41955 -0.0343,0.54139 0.11845,0.84793c0.22668,0.0768 0.45341,0.1536 0.71755,0.19384c0.32072,0.0377 0.64141,0.07541 0.98109,0.12967c0.64153,0.09282 1.26412,0.16904 1.92373,0.13914c0.45232,-0.02051 0.90452,-0.05845 1.35727,-0.0093c0.09435,0.01315 0.20742,0.00799 0.32024,-0.03194c0.22581,-0.06251 0.47094,-0.05617 0.69708,-0.06646c0.82923,-0.0376 1.65779,-0.17966 2.46741,-0.33831c1.07337,-0.188 2.10824,-0.49615 3.14277,-0.85658c0.20696,-0.06164 0.41394,-0.12326 0.56368,-0.28679c0.03606,-0.26286 0.01556,-0.52317 -0.04304,-0.85135zM250.5879,175.79842c-0.14932,0.23317 -0.22329,0.46292 -0.31609,0.69351c-0.09304,0.19577 -0.11055,0.40555 -0.03385,0.61105c0.1156,0.39529 0.1748,0.81056 0.15855,1.22925c0.00021,0.03482 0.01936,0.0862 0.01948,0.1036c0.09455,0.04793 0.16993,0.0445 0.26386,-0.01197c0.01874,-0.01824 0.03736,-0.05394 0.03726,-0.07137c0.05336,-0.50746 0.14441,-1.01658 0.27315,-1.52746c0.01843,-0.07049 0.03659,-0.1758 -0.00156,-0.24374c-0.07713,-0.27514 -0.15428,-0.55026 -0.40083,-0.7829zM249.4737,178.47852c0.05356,-0.47262 0.14496,-0.92953 0.25531,-1.3699c0.03678,-0.14097 0.0172,-0.26199 -0.04024,-0.3987c-0.09555,-0.20461 -0.22858,-0.37276 -0.3617,-0.55829c-0.03813,-0.06793 -0.07635,-0.15325 -0.18923,-0.11331c-0.09237,0.30024 -0.20368,0.58395 -0.25837,0.88245c0.32501,0.71667 0.32498,0.71666 0.34911,1.55145c0.05686,0.04968 0.13238,0.06365 0.24511,0.0063zM254.12063,179.99179c-0.07341,0.3168 -0.12797,0.63276 -0.18254,0.9487c-0.01842,0.0705 -0.03681,0.14099 -0.01753,0.20975c0.13365,0.27255 0.24854,0.54599 0.4761,0.76207c0.22483,-0.21916 0.27971,-0.48287 0.39126,-0.73176c0.05577,-0.1244 0.03625,-0.22803 -0.02106,-0.34733c-0.15251,-0.27171 -0.26736,-0.54517 -0.36341,-0.83681c-0.0001,-0.01742 -0.03788,-0.03313 -0.0758,-0.0662c-0.05642,0.01997 -0.13175,0.04082 -0.20698,0.06164zM254.35665,175.57522c-0.24325,0.28967 -0.35468,0.55595 -0.48494,0.82307c-0.03704,0.10617 -0.01763,0.19234 0.00177,0.27854c0.11573,0.4127 0.17485,0.828 0.15877,1.26409c0.00032,0.05223 0.01948,0.1036 0.01983,0.15581c0.20742,0.00801 0.245,-0.0111 0.24411,-0.15038c-0.00286,-0.45268 0.08864,-0.89218 0.27456,-1.30114c0.11155,-0.24886 0.09139,-0.45693 -0.00427,-0.67899c-0.07615,-0.11847 -0.13334,-0.22037 -0.20982,-0.39103zM251.69762,178.39507c0.09422,-0.00429 0.11261,-0.07481 0.11219,-0.14445c-0.00306,-0.48745 0.14472,-0.96435 0.29254,-1.44127c0.11065,-0.38813 0.03275,-0.78514 -0.25236,-1.15532c-0.13092,0.16267 -0.14868,0.33764 -0.24192,0.49859c-0.18637,0.33933 -0.18428,0.6701 -0.10671,1.01489c0.0778,0.37958 0.17443,0.75836 0.13919,1.14306c0.0192,0.05135 0.03813,0.06796 0.05709,0.0845zM253.03764,175.65246c-0.11177,0.21404 -0.20514,0.35759 -0.27962,0.50028c-0.13047,0.23232 -0.14802,0.44209 -0.07111,0.6824c0.11516,0.32566 0.15506,0.67214 0.17611,1.01945c0.01961,0.12103 0.02048,0.26029 0.02126,0.38214c0.09435,0.01315 0.11284,-0.03992 0.11262,-0.07475c0.09102,-0.50917 0.20092,-1.01914 0.38634,-1.51518c0.01829,-0.0879 0.03669,-0.15839 0.0173,-0.24458c-0.09576,-0.23947 -0.17268,-0.47978 -0.36289,-0.74977zM255.30682,179.76386c0.07748,0.32738 0.0229,0.6433 -0.01282,0.9584c0.00055,0.08705 -0.05555,0.15926 -0.01731,0.24458c0.05743,0.13674 0.28533,0.40501 0.49363,0.55232c0.13085,-0.18009 0.16719,-0.3907 0.2414,-0.58565c0.05555,-0.15927 0.03583,-0.29767 -0.05928,-0.43267c-0.15227,-0.23689 -0.26692,-0.47551 -0.3252,-0.75151c-0.00009,-0.01742 -0.03804,-0.0505 -0.05697,-0.06705c-0.07551,-0.01399 -0.15089,-0.01059 -0.2634,0.08162zM248.86881,181.2052c0.11462,0.23858 0.09762,0.53544 0.26867,0.75407c0.13181,-0.02339 0.18782,-0.113 0.26276,-0.18607c0.13104,-0.14528 0.28114,-0.25654 0.37416,-0.45232c-0.11503,-0.30825 -0.07957,-0.65815 -0.17588,-0.98465c-0.09455,-0.04793 -0.18877,-0.0437 -0.2828,-0.00457c-0.1112,0.30111 -0.26021,0.58651 -0.44692,0.8736zM251.87901,180.25021c-0.03659,0.17581 -0.07319,0.3516 -0.16665,0.47773c-0.22429,0.30619 -0.20355,0.60134 -0.05092,0.89045c0.05717,0.10188 0.05783,0.20636 0.17157,0.30571c0.18737,-0.18268 0.31809,-0.38014 0.44876,-0.57765c0.03737,-0.05394 0.0369,-0.12357 0.01752,-0.20975c-0.07705,-0.25774 -0.13512,-0.49889 -0.21213,-0.75661c-0.0003,-0.05223 -0.03847,-0.12016 -0.20821,-0.12987zM250.69169,180.30408c-0.07296,0.38644 -0.18387,0.73974 -0.42709,1.02941c-0.0562,0.05479 -0.03691,0.12358 -0.03646,0.1932c0.01984,0.15583 0.05852,0.31084 0.17257,0.46236c0.26233,-0.25571 0.43039,-0.50717 0.59834,-0.77598c0.05598,-0.08961 0.07431,-0.1775 0.05478,-0.28112c-0.03885,-0.18981 -0.05897,-0.38046 -0.09786,-0.57025c-0.00009,-0.01742 -0.03803,-0.05053 -0.05698,-0.06707c-0.05654,0.00256 -0.11309,0.00512 -0.20728,0.00943zM255.79437,176.36335c-0.07649,-0.17066 -0.15305,-0.35878 -0.22954,-0.52947c-0.01894,-0.01655 -0.03792,-0.03313 -0.07581,-0.06621c-0.20634,0.16607 -0.31809,0.38014 -0.39228,0.57505c0.13534,0.53373 0.27043,1.0326 0.27416,1.62454c0.26209,-0.29052 0.12838,-0.56308 0.1835,-0.79196c0.05478,-0.28112 0.14735,-0.54652 0.23992,-0.81194zM250.32137,175.39256c-0.18977,-0.20036 -0.3419,-0.40244 -0.60647,-0.51234c-0.07463,0.12527 -0.1683,0.21661 -0.22415,0.32366c-0.05586,0.10703 -0.13059,0.21488 -0.1298,0.33676c0.05754,0.15409 0.19011,0.25259 0.28511,0.37018c0.09502,0.11756 0.15241,0.25432 0.30371,0.33452c0.13015,-0.28456 0.2416,-0.55079 0.37166,-0.85276zM248.26777,178.56805c0.07208,-0.52569 0.12584,-0.96352 0.17966,-1.4013c-0.00021,-0.03482 0.01833,-0.08792 -0.0196,-0.12101c-0.13313,-0.18551 -0.22879,-0.40756 -0.47454,-0.51832c-0.07386,0.24715 -0.14781,0.47692 -0.20291,0.70582c0.24752,0.38933 0.38219,0.81854 0.51741,1.33485zM253.07695,181.8851c0.16886,-0.12957 0.20543,-0.30537 0.27996,-0.44805c0.09325,-0.16095 0.12995,-0.31935 0.05335,-0.50742c-0.09587,-0.25686 -0.19175,-0.51375 -0.15582,-0.79403c-0.13216,-0.02884 -0.20742,-0.00801 -0.20676,0.09645c-0.01718,0.26198 -0.0343,0.5414 -0.14594,0.77285c-0.14868,0.33764 0.00372,0.59198 0.17523,0.88022zM251.20881,181.58669c-0.24313,0.30707 -0.449,0.54281 -0.63603,0.77766c0.00076,0.12185 0.05774,0.18896 0.09588,0.25685c0.05698,0.06707 0.09531,0.16978 0.22744,0.19864c0.20647,-0.14869 0.39378,-0.33131 0.56221,-0.53049c-0.05796,-0.22374 -0.13467,-0.42925 -0.24949,-0.70268zM254.17296,182.30558c-0.17124,-0.25345 -0.32347,-0.47293 -0.47573,-0.70982c-0.13049,0.23232 -0.2611,0.44724 -0.3917,0.66212c0.13333,0.22035 0.22888,0.425 0.45602,0.57138c0.16862,-0.16436 0.28059,-0.3436 0.41142,-0.52368zM251.22249,174.79439c-0.22549,0.1147 -0.2806,0.34361 -0.39259,0.52282c-0.03737,0.05394 -0.01799,0.14012 0.02006,0.19065c0.11417,0.16899 0.20938,0.32139 0.32341,0.47296c0.0001,0.01742 0.03783,0.01569 0.07552,0.014c0.13041,-0.24971 0.24176,-0.51599 0.37219,-0.76571c-0.09531,-0.1698 -0.24696,-0.30225 -0.39862,-0.43468zM254.10934,175.20332c-0.07661,-0.18807 -0.15305,-0.35876 -0.36112,-0.47125c-0.14977,0.16355 -0.33726,0.32877 -0.43018,0.54197c0.05729,0.11931 0.07693,0.24031 0.15296,0.34134c0.05716,0.10188 0.0392,0.24204 0.20916,0.28656c0.14934,-0.23316 0.29866,-0.46632 0.4292,-0.69865zM254.7,182.19461c0.07637,0.15326 0.24654,0.23262 0.41679,0.32938c0.14948,-0.21574 0.33691,-0.38101 0.41079,-0.62813c-0.15166,-0.13245 -0.24708,-0.31965 -0.45527,-0.44954c-0.13041,0.24971 -0.24195,0.49858 -0.37231,0.74829zM256.47351,179.43234c-0.01687,0.31423 0.04178,0.64244 -0.01282,0.95841c-0.03604,0.26286 0.09679,0.39611 0.32379,0.52515c0.13069,-0.19747 0.16719,-0.3907 0.2224,-0.60218c-0.24675,-0.26741 -0.3431,-0.59394 -0.53341,-0.88136zM247.21088,178.37217c0.07528,-0.02082 0.07492,-0.07305 0.07463,-0.12527c0.01743,-0.22716 0.01589,-0.47092 0.05215,-0.69896c0.07328,-0.3342 -0.11627,-0.49975 -0.36249,-0.68015c-0.03693,0.12361 -0.07404,0.21233 -0.09234,0.30023c-0.05519,0.21148 -0.07286,0.40382 0.09795,0.58766c0.09501,0.11757 0.13366,0.27258 0.17228,0.41015c-0.01842,0.0705 -0.05554,0.15924 0.05783,0.20635zM248.00456,181.66237c0.09378,-0.07389 0.1499,-0.14612 0.20609,-0.2009c0.18758,-0.14781 0.24314,-0.30709 0.20412,-0.51429c-0.03876,-0.17237 -0.02113,-0.36476 -0.04109,-0.53799c-0.0003,-0.05224 0.01819,-0.10532 -0.11385,-0.11675c-0.09273,0.24801 -0.22308,0.49776 -0.39127,0.73176c-0.03737,0.05394 -0.0368,0.14095 -0.03639,0.2106c0.03856,0.13755 0.07702,0.25775 0.17236,0.42754zM252.79651,182.26351c-0.07647,-0.17066 -0.13422,-0.3596 -0.26717,-0.51032c-0.18724,0.20007 -0.39356,0.36614 -0.52407,0.59844c0.11419,0.16896 0.17179,0.34049 0.37977,0.43557c0.1498,-0.16354 0.31855,-0.31049 0.41142,-0.52369zM252.43582,175.88873c0.18722,-0.20007 0.29899,-0.41412 0.37304,-0.62643c-0.11417,-0.16897 -0.2094,-0.32136 -0.38001,-0.47037c-0.15012,0.11131 -0.24346,0.25486 -0.31785,0.41496c0.1145,0.22118 0.21017,0.44324 0.32476,0.68186zM251.12429,183.14042c0.11386,0.11676 0.17092,0.20122 0.26561,0.26657c0.05687,0.04966 0.11361,0.08192 0.1704,0.11417c0.1879,-0.09558 0.35676,-0.22516 0.46875,-0.40438c-0.09531,-0.1698 -0.19066,-0.33961 -0.37991,-0.45295c-0.16862,0.16436 -0.33747,0.29394 -0.52482,0.47657zM247.41088,180.19163c-0.20598,0.21834 -0.35586,0.36441 -0.52439,0.54621c-0.01843,0.07049 0.00118,0.19148 0.0584,0.29339c0.03835,0.10273 0.00143,0.22632 0.11506,0.30825c0.16929,-0.05993 0.28181,-0.1521 0.37529,-0.27824c-0.02061,-0.27771 -0.02222,-0.53886 -0.02431,-0.86962zM249.95795,174.55568c0.09481,0.08279 0.18958,0.16557 0.28432,0.24835c0.09482,0.08278 0.18947,0.14811 0.28423,0.2309c0.13071,-0.19746 0.26177,-0.34274 0.29826,-0.53595c-0.05719,-0.10188 -0.17049,-0.13157 -0.26502,-0.17955c-0.09455,-0.04793 -0.18947,-0.14811 -0.32125,-0.12474c-0.11233,0.12703 -0.22482,0.21916 -0.2805,0.36102zM253.44303,183.13975c-0.15188,-0.16725 -0.24741,-0.37193 -0.47449,-0.50092c-0.13102,0.14528 -0.24324,0.28967 -0.37429,0.43493c0.15187,0.16725 0.26592,0.31883 0.49264,0.3956c0.13136,-0.09304 0.26298,-0.15124 0.35611,-0.32961zM248.55637,176.50007c0.11112,-0.31849 0.20359,-0.60131 0.29604,-0.88411c-0.07604,-0.10106 -0.13322,-0.20296 -0.26537,-0.23178c-0.20611,0.20093 -0.2988,0.44889 -0.41032,0.69776c0.07605,0.10106 0.15207,0.20209 0.24684,0.28486c0.01927,0.0688 0.05708,0.08447 0.13277,0.13328zM250.0828,182.38658c-0.11432,-0.18638 -0.11561,-0.39531 -0.26727,-0.52775c-0.20619,0.1835 -0.39366,0.34874 -0.54315,0.56452c0.13272,0.1159 0.13377,0.28997 0.32291,0.38589c0.18788,-0.09559 0.30001,-0.25744 0.4875,-0.42264zM254.95522,174.83408c-0.13126,0.11044 -0.24355,0.23744 -0.31807,0.38016c0.11442,0.20379 0.20994,0.40842 0.32456,0.64701c0.11185,-0.19661 0.22407,-0.34104 0.37375,-0.52196c-0.1144,-0.2038 -0.20983,-0.39103 -0.38024,-0.50521zM248.10122,182.0411c0.0768,0.22292 0.13457,0.41185 0.32389,0.54259c0.15021,-0.0939 0.2817,-0.16948 0.35623,-0.3122c-0.07669,-0.20549 -0.13456,-0.41181 -0.23033,-0.65129c-0.16886,0.12957 -0.31884,0.25828 -0.44978,0.42094zM253.10836,174.91786c0.1306,-0.21489 0.33726,-0.32879 0.37374,-0.52201c-0.11417,-0.16897 -0.2656,-0.26659 -0.43578,-0.34595c-0.14999,0.12871 -0.30012,0.24 -0.35546,0.43405c0.13279,0.13329 0.24677,0.26742 0.41747,0.43384zM254.83616,182.85018c-0.13271,-0.11589 -0.22768,-0.23346 -0.39775,-0.29541c-0.13069,0.19747 -0.33726,0.32875 -0.41123,0.55851c0.11385,0.11676 0.22737,0.18126 0.3971,0.19097c0.14989,-0.14611 0.28083,-0.30876 0.41184,-0.45405zM247.6875,176.226c-0.11395,-0.13416 -0.2086,-0.19947 -0.34088,-0.24579c-0.13104,0.14528 -0.24304,0.32448 -0.24169,0.53338c0.11375,0.09933 0.22744,0.19863 0.3413,0.3154c0.14958,-0.19834 0.16709,-0.4081 0.24126,-0.60303zM257.65073,180.75463c-0.11359,-0.08192 -0.20831,-0.14729 -0.32146,-0.15957c-0.11197,0.17919 -0.18624,0.35675 -0.22272,0.54996c0.09485,0.10019 0.18955,0.16555 0.32169,0.19438c0.13085,-0.18009 0.14834,-0.38986 0.22251,-0.58477zM251.91979,183.73125c0.11438,0.20377 0.26527,0.21436 0.43477,0.18926c0.13191,-0.00597 0.26363,-0.04679 0.31929,-0.18864c-0.11395,-0.13416 -0.22778,-0.25089 -0.39795,-0.33025c-0.13126,0.11044 -0.24368,0.22003 -0.3561,0.32961zM256.68019,176.34056c-0.05753,-0.15411 -0.0584,-0.29337 -0.19086,-0.37444c-0.37505,0.31307 -0.27877,0.63958 -0.08798,0.9966c0.09293,-0.21318 0.18596,-0.409 0.27885,-0.62216zM250.16461,183.41036c0.16919,-0.07731 0.2817,-0.1695 0.39379,-0.33132c-0.13249,-0.08103 -0.15245,-0.2543 -0.30364,-0.31709c-0.11299,0.02252 -0.15021,0.09387 -0.22528,0.14951c-0.07491,0.07304 -0.16895,0.11215 -0.16819,0.23402c0.07605,0.10106 0.15211,0.2021 0.30331,0.26489zM252.1306,178.30578c0.20794,0.09505 0.32082,0.05512 0.33866,-0.10241c0.01744,-0.22716 -0.00284,-0.45266 -0.02302,-0.66071c-0.00041,-0.06961 -0.01987,-0.15583 -0.13313,-0.18552c-0.09225,0.31765 -0.14681,0.63356 -0.18254,0.94865zM255.91058,182.83626c0.03834,0.10274 0.11406,0.15156 0.22726,0.16387c0.18749,-0.16524 0.41278,-0.31477 0.52432,-0.56363c-0.22682,-0.0942 -0.39625,-0.05172 -0.52705,0.12837c-0.07493,0.07305 -0.18772,0.13044 -0.22453,0.2714zM254.65486,178.01713c0.26382,-0.01195 0.32015,-0.0494 0.31917,-0.20603c-0.02039,-0.24288 -0.04086,-0.50316 -0.13664,-0.74262c-0.14879,0.32022 -0.27885,0.62217 -0.18254,0.94866zM257.47406,179.64814c-0.01798,0.1401 -0.01717,0.26202 -0.03528,0.3847c-0.01735,0.2446 -0.0173,0.24459 0.32247,0.31628c0.03693,-0.12361 0.09259,-0.26544 0.11097,-0.33591c-0.15165,-0.13247 -0.26549,-0.24917 -0.39818,-0.36505zM252.25191,173.61577c-0.11255,0.09217 -0.28193,0.13471 -0.28073,0.32621c0.11361,0.08192 0.24599,0.14558 0.37856,0.24404c0.13128,-0.11045 0.2815,-0.20429 0.33714,-0.34615c-0.13251,-0.08103 -0.24622,-0.18041 -0.43501,-0.22409zM256.33306,181.07568c-0.09276,0.23059 -0.20446,0.46204 -0.29724,0.69265c0.03826,0.08531 0.09519,0.1524 0.20803,0.11246c0.16862,-0.16436 0.29937,-0.36187 0.35445,-0.59076c-0.07604,-0.10106 -0.15186,-0.16724 -0.2653,-0.21434zM255.55977,175.03308c0.13181,-0.02339 0.22563,-0.0973 0.30033,-0.20518c-0.03813,-0.06794 -0.07626,-0.13585 -0.11441,-0.20378c-0.05706,-0.08448 -0.09535,-0.16982 -0.20863,-0.19949c-0.11307,0.00512 -0.20707,0.04418 -0.28191,0.13469c0.09524,0.15243 0.20942,0.32138 0.30458,0.47379zM251.84496,174.85325c0.13128,-0.11045 0.20589,-0.23574 0.26156,-0.37757c-0.15141,-0.09763 -0.28401,-0.19608 -0.41645,-0.27714c-0.15045,0.0591 -0.22517,0.16696 -0.24337,0.27227c0.13278,0.13329 0.2656,0.26658 0.39828,0.3825zM256.31694,175.53857c-0.05719,-0.10188 -0.11438,-0.20377 -0.19042,-0.30485c-0.01893,-0.01654 -0.05667,-0.01483 -0.09449,-0.03054c-0.07507,0.05564 -0.1879,0.09557 -0.24356,0.23744c0.05745,0.13673 0.09625,0.30908 0.22903,0.44239c0.15019,-0.09389 0.2249,-0.20178 0.29942,-0.34447zM257.32534,176.99047c0.01764,-0.19236 0.22473,-0.2366 0.22362,-0.41068c-0.07625,-0.13582 -0.09606,-0.29168 -0.24773,-0.42411c-0.13136,0.09304 -0.24392,0.18524 -0.18635,0.33933c0.05753,0.15412 0.03967,0.31163 0.21047,0.49547zM256.99906,182.05549c0.07462,-0.12527 0.16806,-0.25144 0.24279,-0.35929c0.01875,-0.01825 -0.00032,-0.05224 -0.00056,-0.08705c-0.09445,-0.03054 -0.18921,-0.11334 -0.3585,-0.05337c-0.09332,0.14355 -0.18661,0.30451 -0.29868,0.46634c0.13235,0.06365 0.24556,0.07593 0.41496,0.03345zM251.27388,173.9736c-0.11373,-0.09934 -0.22758,-0.21607 -0.32235,-0.29883c-0.16929,0.05992 -0.28184,0.15209 -0.37549,0.24343c0.01963,0.12104 0.15164,0.13242 0.22737,0.18124c0.07575,0.0488 0.15154,0.11502 0.28336,0.09163c0.07516,-0.03825 0.15023,-0.0939 0.18716,-0.21748zM248.59679,182.90675c0.09502,0.11756 0.17094,0.20124 0.24686,0.28485c0.01905,0.03398 0.07572,0.04883 0.09469,0.06537c0.13191,-0.00597 0.22573,-0.07988 0.30043,-0.18778c-0.09511,-0.13499 -0.17139,-0.27086 -0.30401,-0.38677c-0.11273,0.05737 -0.20655,0.13128 -0.33791,0.2243zM257.98273,179.60766c0.07399,-0.22976 0.14791,-0.45948 0.08986,-0.70066c-0.16928,0.05993 -0.31998,0.08418 -0.41331,0.22771c0.09606,0.29169 0.09608,0.2917 0.32344,0.47293zM250.48647,183.63957c0.32248,0.31628 0.34129,0.31539 0.67945,0.12587c-0.11386,-0.11676 -0.24642,-0.21519 -0.36024,-0.33197c-0.13181,0.02339 -0.22558,0.0973 -0.31919,0.20601zM254.68925,174.49787c-0.0951,-0.135 -0.19002,-0.23518 -0.34122,-0.29801c-0.03759,0.01912 -0.09392,0.0565 -0.15024,0.09389c-0.03747,0.03654 -0.07486,0.09048 -0.1123,0.12698c0.09512,0.13499 0.17151,0.28827 0.32282,0.36849c0.11272,-0.05736 0.20634,-0.16607 0.28092,-0.29138zM247.46086,182.13981c0.0563,-0.03739 0.13136,-0.09306 0.1499,-0.14613c0.05535,-0.19408 0.01653,-0.36641 -0.11661,-0.55198c-0.11266,0.07475 -0.26317,0.11641 -0.31907,0.22346c0.07647,0.17066 0.09654,0.36132 0.28577,0.47463zM248.2651,175.15494c-0.01893,-0.01655 -0.03791,-0.03311 -0.07581,-0.06621c-0.24413,0.15041 -0.43138,0.35045 -0.6186,0.55051c0.0573,0.11929 0.13302,0.16809 0.28388,0.17868c0.1306,-0.21489 0.28001,-0.43063 0.41055,-0.66297zM253.57622,177.3695c-0.11142,0.26628 -0.24178,0.51598 -0.22108,0.81108c0.00009,0.01742 0.07572,0.04878 0.1134,0.04709c0.09422,-0.0043 0.16916,-0.07734 0.16857,-0.16438c0.05512,-0.22889 0.01599,-0.45352 -0.06091,-0.69379zM254.06345,173.91672c-0.09487,-0.10021 -0.18978,-0.20038 -0.32213,-0.26404c-0.13192,0.00597 -0.22593,0.04507 -0.31939,0.17119c0.13259,0.09848 0.26527,0.21438 0.39773,0.29543c0.11282,-0.03993 0.18788,-0.0956 0.24378,-0.20262zM253.35286,183.78817c0.26395,0.00544 0.49021,0.01263 0.71559,-0.1195c-0.05753,-0.1541 -0.18987,-0.21778 -0.34098,-0.26318c-0.1501,0.11131 -0.28148,0.20432 -0.37462,0.38272zM246.39564,180.6208c0.16897,-0.11215 0.18769,-0.13037 0.18739,-0.18264c0.01776,-0.17493 -0.07746,-0.32738 -0.17257,-0.46236c-0.038,-0.0505 -0.13238,-0.06362 -0.18825,0.04339c0.11405,0.15156 0.04009,0.38133 0.17348,0.60164zM249.01967,175.24263c0.14948,-0.21574 0.31787,-0.41496 0.33481,-0.71178c-0.26305,0.13383 -0.39369,0.34876 -0.52448,0.52881c0.01937,0.0862 0.07614,0.11842 0.18967,0.18293zM249.46676,183.35492c-0.0939,0.05651 -0.1879,0.0956 -0.2818,0.1521c0.09523,0.15244 0.20907,0.26917 0.41604,0.20752c0.05643,-0.01997 0.11283,-0.03995 0.13126,-0.11044c-0.03834,-0.10273 -0.13303,-0.16812 -0.26549,-0.24917zM255.91647,177.78579c0.16962,-0.00772 0.24477,-0.04591 0.22504,-0.18433c-0.01961,-0.12104 -0.03924,-0.24204 -0.07771,-0.3622c-0.0192,-0.05134 -0.0572,-0.10192 -0.13247,-0.08108c-0.05522,0.21148 -0.054,0.40298 -0.01487,0.6276zM248.75281,177.76241c-0.07398,0.22977 -0.11021,0.4578 -0.05225,0.68155c0.00011,0.01743 0.07573,0.04878 0.09455,0.04793c0.03766,-0.0017 0.07507,-0.05564 0.07483,-0.09048c-0.02026,-0.22547 0.01611,-0.43612 -0.11714,-0.63907zM247.85198,178.39536c-0.05763,-0.17153 -0.05885,-0.36307 -0.17309,-0.54944c-0.09279,0.23059 -0.12927,0.42382 -0.07208,0.5257c0.03834,0.10273 0.11373,0.09935 0.24519,0.02371zM255.17959,183.49633c0.22582,-0.0625 0.48969,-0.07447 0.62028,-0.28937c-0.34009,-0.12387 -0.47068,0.09102 -0.62028,0.28937zM254.8957,180.3398c0.03766,-0.00171 0.05649,-0.01999 0.09414,-0.02169c-0.01996,-0.17322 0.05443,-0.33335 -0.04079,-0.48575c-0.11318,-0.0123 -0.16962,0.0077 -0.2256,0.09731c0.0573,0.11929 0.11472,0.25601 0.17227,0.41015zM251.1467,177.72345c-0.05499,0.2463 -0.09147,0.43952 -0.07133,0.64758c0.00021,0.03482 0.03811,0.06793 0.09465,0.06536c0.01887,-0.00086 0.05642,-0.01998 0.07516,-0.03826c0.07399,-0.22976 0.07264,-0.43865 -0.09851,-0.67469zM247.78255,182.33418c-0.11284,0.03995 -0.16915,0.07731 -0.13114,0.12785c0.0573,0.11929 0.13347,0.23774 0.20961,0.35621c0.05697,0.06707 0.11349,0.06452 0.1696,-0.00769c-0.05771,-0.18895 -0.11528,-0.34308 -0.24807,-0.47635zM253.06236,173.59643c0.07507,-0.05564 0.15023,-0.0939 0.22528,-0.14953c0.01875,-0.01824 0.01851,-0.05309 0.03704,-0.10617c-0.22612,0.01023 -0.43375,-0.03256 -0.67834,0.04818c0.13259,0.09848 0.22726,0.16384 0.41604,0.20751zM250.01322,180.33481c0.01994,0.17323 0.03978,0.3291 0.05995,0.53715c0.18736,-0.18267 0.24292,-0.34189 0.22296,-0.51512c-0.09455,-0.04794 -0.1512,-0.06281 -0.28293,-0.02202zM255.92804,179.63119c0.07615,0.11847 0.03966,0.31163 0.24763,0.40671c0.05388,-0.42039 0.05335,-0.50741 -0.04112,-0.53799c-0.09422,0.0043 -0.15057,0.04166 -0.20655,0.13128zM250.01615,177.8096c-0.22452,0.27138 -0.22316,0.4803 -0.14616,0.73804c0.26252,-0.2209 0.11019,-0.45776 0.14616,-0.73804zM256.89109,176.88823c-0.20577,0.25313 -0.20457,0.44467 -0.16555,0.65186c0.0001,0.01742 0.03791,0.0331 0.07559,0.03139c0.05654,-0.00255 0.09401,-0.0391 0.09378,-0.0739c0.01777,-0.17493 -0.00218,-0.34816 -0.00383,-0.60931zM256.83109,179.32902c0.05753,0.15411 0.07748,0.32738 0.26666,0.44065c0.05544,-0.17667 0.03559,-0.3325 0.01589,-0.47091c-0.11339,-0.04711 -0.18865,-0.02627 -0.28257,0.03024zM257.14865,175.88393c-0.13292,-0.15071 -0.13412,-0.34222 -0.32302,-0.40331c-0.05499,0.2463 -0.05499,0.24629 0.15383,0.48063c0.03759,-0.01912 0.07516,-0.03825 0.16918,-0.07733zM255.41935,182.64953c0.2635,-0.0642 0.39445,-0.22686 0.50643,-0.40609c-0.05719,-0.10188 -0.13259,-0.09848 -0.18877,-0.0437c-0.09331,0.14356 -0.20555,0.28797 -0.31761,0.44978zM254.97052,174.25868c0.11299,-0.02253 0.20709,-0.04421 0.26295,-0.15123c-0.07592,-0.08362 -0.15186,-0.16728 -0.26501,-0.17954c-0.09412,0.02167 -0.15043,0.05908 -0.18771,0.13045c0.03826,0.08532 0.09511,0.13499 0.18979,0.20035zM252.61632,180.58249c0.05567,-0.14182 0.09272,-0.24803 0.05435,-0.35077c-0.01905,-0.03398 -0.05686,-0.04968 -0.09468,-0.06537c-0.05654,0.00255 -0.13172,0.04079 -0.11255,0.09215c0.00066,0.10449 0.00143,0.22634 0.15288,0.32397zM251.77952,173.44562c-0.16995,-0.04453 -0.32017,0.04937 -0.47071,0.09103c0.22758,0.21608 0.26528,0.21433 0.47071,-0.09103zM246.7965,178.42579c0.07373,-0.26457 0.07373,-0.26456 -0.09654,-0.36134c-0.03704,0.10617 -0.07395,0.22977 0.09654,0.36134zM253.76288,180.06026c-0.07575,-0.0488 -0.13225,-0.04624 -0.15087,-0.01059c-0.09331,0.14356 -0.07417,0.19492 0.09645,0.34392c0.05578,-0.1244 0.05514,-0.22891 0.05446,-0.33336zM257.68346,176.99164c-0.09367,0.09135 -0.1685,0.18181 -0.13008,0.30193c0.30119,-0.06593 0.31981,-0.10154 0.13008,-0.30193zM246.39693,177.83443c-0.11233,0.12703 -0.1303,0.26712 -0.14835,0.38982c0.00042,0.06962 0.05731,0.11932 0.16996,0.04454c0.01806,-0.12271 0.03605,-0.26287 -0.02158,-0.43438zM256.46417,174.95716c-0.03659,0.17581 0.02048,0.2603 0.17148,0.28828c0,0 0.03759,-0.01912 0.03746,-0.03654c0.01817,-0.10532 -0.09529,-0.16982 -0.20894,-0.25178zM251.35272,180.50047c0.11284,-0.03995 0.15012,-0.11131 0.13082,-0.18007c-0.00021,-0.03482 -0.03813,-0.06793 -0.07593,-0.08364c-0.03782,-0.01569 -0.0941,0.02167 -0.09387,0.0565c-0.01852,0.0531 -0.01809,0.12271 0.03898,0.20721zM254.28816,173.66274c0.07615,0.11846 0.15186,0.16727 0.3022,0.09077c-0.09512,-0.13499 -0.17071,-0.16641 -0.3022,-0.09077z" fill="#000000"/><path d="M251.16523,186.63885c0.60316,-0.00992 1.20639,-0.01986 1.80946,-0.04723c0.67848,-0.03077 1.35647,-0.13118 2.01509,-0.31779c0.20697,-0.06163 0.37602,-0.15634 0.60172,-0.23624c0.00176,0.27858 0.02217,0.52141 0.00484,0.766c-0.06617,1.46583 -0.03801,2.94478 -0.06636,4.4263c-0.02937,1.32484 -0.03995,2.63141 -0.05046,3.9554c-0.01312,0.90615 -0.0264,1.79491 -0.03955,2.70104c-0.01347,0.85394 0.01065,1.68872 -0.00279,2.54264c0.00042,0.06964 0.00086,0.13929 -0.01753,0.20977c-0.26262,0.20349 -0.54478,0.30333 -0.8647,0.38752c-0.5082,0.12754 -1.03544,0.2211 -1.56321,0.22763c-0.16962,0.00772 -0.33911,0.03281 -0.49042,-0.04743c0.16941,-0.04252 0.35817,0.00114 0.56494,-0.09528c-0.13364,-0.27256 -0.079,-0.57108 -0.09961,-0.8488c-0.0001,-0.01742 -0.00021,-0.03481 -0.01905,-0.03397c-0.15371,-0.46321 -0.15688,-0.9681 -0.2542,-1.45131c-0.03878,-0.17237 -0.13413,-0.34221 -0.09755,-0.51799c0.03552,-0.3499 -0.13622,-0.67299 -0.10071,-1.02293c-0.0001,-0.01742 -0.01918,-0.05137 -0.01938,-0.08621c-0.05864,-0.32818 -0.13595,-0.63816 -0.1569,-0.96808c-0.00242,-0.383 -0.15538,-0.72439 -0.12011,-1.10909c-0.1145,-0.22118 -0.07821,-0.44923 -0.09859,-0.6921c-0.00021,-0.03482 -0.00034,-0.05225 -0.00054,-0.08704c-0.15296,-0.34136 -0.07989,-0.71037 -0.15747,-1.05516c-0.07758,-0.34476 -0.0422,-0.71208 -0.10094,-1.05771c-0.05905,-0.39788 -0.17457,-0.77571 -0.12064,-1.19613c-0.00021,-0.03482 -0.00053,-0.08706 -0.0196,-0.12102c-0.11432,-0.18638 -0.05905,-0.39786 -0.0792,-0.60592c-0.00066,-0.10449 0.01742,-0.22715 -0.02094,-0.32992c-0.07634,-0.15327 -0.0584,-0.29339 -0.05938,-0.4501c-0.00054,-0.08706 0.01775,-0.17498 -0.0204,-0.24287c-0.1145,-0.22118 -0.07836,-0.46663 -0.07978,-0.69295c-0.00054,-0.08706 0.01773,-0.17493 -0.02038,-0.24288c-0.0954,-0.18722 -0.07781,-0.37959 -0.07899,-0.57111c-0.00199,-0.3134 -0.13587,-0.62075 -0.11899,-0.93497c0.01851,-0.05309 -0.03832,-0.10274 -0.05754,-0.15411z" fill="#87d7dc"/><path d="M251.16524,186.63888c0.01916,0.05136 0.07606,0.10104 0.07638,0.15328c-0.01685,0.31423 0.09818,0.62247 0.11901,0.93499c0.0012,0.1915 -0.01643,0.38389 0.07898,0.5711c0.03813,0.06794 0.01984,0.15584 0.02042,0.24285c0.00145,0.22632 -0.01591,0.47091 0.07973,0.69298c0.03813,0.06793 0.001,0.15671 0.02041,0.24288c0.00099,0.15668 0.00187,0.29598 0.05938,0.4501c0.03834,0.10273 0.02026,0.2255 0.02093,0.32995c0.02017,0.20804 -0.03504,0.41954 0.07923,0.60591c0.01905,0.03398 0.01939,0.0862 0.01961,0.12101c-0.05401,0.40299 0.06159,0.79831 0.12066,1.19615c0.05885,0.36307 0.02345,0.73034 0.10089,1.05772c0.07759,0.34475 0.00451,0.71379 0.15748,1.05514c0.01893,0.01656 0.00031,0.05225 0.00054,0.08707c0.00145,0.22632 -0.01587,0.4709 0.09863,0.69212c-0.05414,0.38559 0.09885,0.72694 0.12008,1.10909c0.00208,0.33078 0.0983,0.63987 0.15688,0.96809c0.00021,0.03482 0.01922,0.05139 0.01941,0.0862c-0.03552,0.3499 0.13621,0.67298 0.10071,1.02292c-0.01763,0.19235 0.07756,0.34478 0.09754,0.51801c0.07846,0.48405 0.10049,0.98809 0.2542,1.4513c0.0001,0.01742 0.01908,0.03397 0.01908,0.03397c0.02062,0.27771 -0.03408,0.57626 0.09961,0.84881c-0.1879,0.09559 -0.37682,0.03449 -0.56494,0.09526c-0.15075,0.00685 -0.30152,0.01364 -0.43413,-0.08485c-0.00066,-0.10449 0.01742,-0.22715 -0.02095,-0.3299c-0.13423,-0.3596 -0.11765,-0.72609 -0.15767,-1.09c-0.04,-0.36387 -0.17424,-0.72348 -0.12011,-1.10906c-0.1145,-0.22118 -0.07826,-0.44924 -0.09863,-0.69211c-0.00021,-0.03482 -0.00055,-0.08705 -0.01961,-0.12102c-0.09522,-0.15243 -0.05861,-0.3282 -0.07845,-0.48407c-0.00054,-0.08706 -0.00113,-0.1741 -0.02039,-0.24287c-0.09665,-0.37875 -0.17459,-0.77571 -0.1771,-1.17616c-0.0003,-0.05224 0.0181,-0.12274 -0.01984,-0.15582c-0.09531,-0.16979 -0.0776,-0.34475 -0.0787,-0.51886c0.01763,-0.19235 -0.11541,-0.36048 -0.09784,-0.57025c0.01709,-0.27941 -0.0788,-0.53628 -0.11824,-0.81312c-0.04012,-0.38132 -0.15548,-0.74176 -0.15799,-1.14219c-0.00042,-0.06964 0.01787,-0.15755 -0.02018,-0.20806c-0.07623,-0.13587 -0.05842,-0.29337 -0.07823,-0.4492c-0.00087,-0.13927 -0.0206,-0.27768 -0.05904,-0.39788c-0.0768,-0.22292 -0.11594,-0.44752 -0.11751,-0.69126c-0.02115,-0.36474 -0.15539,-0.72437 -0.10127,-1.10992c-0.00021,-0.03482 -0.01936,-0.08619 -0.0196,-0.12103c-0.05885,-0.36307 -0.13656,-0.72521 -0.15766,-1.08995c-0.00242,-0.383 -0.15561,-0.75919 -0.12031,-1.14391c-0.0003,-0.05224 -0.03836,-0.10274 -0.05754,-0.15411c-0.03912,-0.22461 -0.0595,-0.46749 -0.00439,-0.69637c0.09413,-0.02167 0.16949,-0.02513 0.24477,-0.04592c0.26419,0.04027 0.49054,0.06482 0.73566,0.07113z" fill="#b0eef2"/><path d="M258.21471,177.52482c0.05861,0.32817 0.07909,0.58851 0.00536,0.85308c-0.14991,0.14612 -0.35686,0.20777 -0.5637,0.28679c-1.03465,0.34298 -2.06942,0.66854 -3.14278,0.85656c-0.80973,0.1412 -1.63831,0.2833 -2.46741,0.33832c-0.22614,0.01024 -0.47127,0.00397 -0.6971,0.06643c-0.09413,0.02167 -0.20721,0.02679 -0.32025,0.03193c-0.45276,-0.04913 -0.90483,0.00621 -1.35726,0.00932c-0.64089,0.01168 -1.28222,-0.04631 -1.92373,-0.13913c-0.32081,-0.0551 -0.64155,-0.09281 -0.98109,-0.12963c-0.26404,-0.02288 -0.49086,-0.11705 -0.71757,-0.19385c-0.13389,-0.30741 -0.1535,-0.42839 -0.11844,-0.84793c0.41469,-0.00142 0.81114,0.0851 1.22606,0.11854c0.39609,0.03428 0.81101,0.0677 1.20702,0.08458c0.41481,0.01603 0.84841,0.01377 1.26311,0.01238c0.39597,0.01688 0.81014,-0.07161 1.20651,-0.00249c0.41408,-0.10586 0.829,-0.07241 1.24352,-0.10864c0.39566,-0.03535 0.81004,-0.089 1.20561,-0.14176c0.4144,-0.05362 0.82866,-0.12466 1.26181,-0.19653c0.39544,-0.07018 0.80982,-0.12379 1.20518,-0.21141c0.41416,-0.08845 0.80927,-0.21084 1.22335,-0.3167c0.43292,-0.10672 0.82823,-0.19429 1.24187,-0.36979z" fill="#d1eaeb"/><path d="M250.44852,186.58434c-0.07527,0.02082 -0.15067,0.02425 -0.24476,0.04594c-0.0551,0.2289 -0.05367,0.45519 0.00439,0.69638c0.01916,0.05137 0.05719,0.1019 0.05753,0.15411c-0.03529,0.3847 0.09908,0.76178 0.12032,1.14392c0.0023,0.36561 0.09883,0.72692 0.15763,1.08997c0.00021,0.03482 0.01939,0.08621 0.01961,0.12101c-0.05415,0.38558 0.09881,0.72692 0.10124,1.10994c0.00145,0.22632 0.04067,0.46835 0.1175,0.69125c0.03855,0.13753 0.0583,0.27598 0.05906,0.39787c0.00099,0.15668 -0.01697,0.29681 0.07825,0.44923c0.03799,0.0505 0.01971,0.13844 0.02014,0.20807c0.00242,0.383 0.11794,0.76086 0.15802,1.14218c0.03942,0.27685 0.13534,0.53371 0.11823,0.81312c-0.01763,0.19235 0.11538,0.36047 0.09784,0.57025c-0.01775,0.17495 -0.03539,0.3673 0.07866,0.51888c0.01916,0.05137 0.01951,0.10359 0.01985,0.15581c0.00251,0.4004 0.08028,0.77999 0.17709,1.17615c0.01937,0.0862 0.00112,0.17408 0.02037,0.24284c0.00099,0.15668 -0.01673,0.33164 0.07848,0.48404c0.01905,0.03398 0.0194,0.08619 0.01961,0.121c0.00145,0.22632 -0.01589,0.47092 0.09862,0.69212c-0.05413,0.38558 0.0801,0.7452 0.12012,1.10906c0.04,0.36387 0.02357,0.74773 0.15766,1.08994c0.03834,0.10274 0.02025,0.22548 0.02094,0.32993c-0.16952,0.0251 -0.28323,-0.07422 -0.41528,-0.08563c-0.09885,-0.72691 -0.21631,-1.41819 -0.31491,-2.11029c-0.11789,-0.76089 -0.21686,-1.50523 -0.31594,-2.26696c-0.09873,-0.70953 -0.21633,-1.41819 -0.33389,-2.12685c-0.13751,-0.88191 -0.29378,-1.74554 -0.43121,-2.61003c-0.09841,-0.65731 -0.19677,-1.3146 -0.31405,-1.97102c-0.15726,-1.02033 -0.23923,-2.06151 -0.43419,-3.0801c-0.01972,-0.13841 -0.07715,-0.27512 -0.02158,-0.43437c0.16962,-0.00772 0.33954,0.03684 0.5094,0.06397c0.09446,0.03053 0.26383,-0.01198 0.41519,0.06823z" fill="#87d7dc"/><path d="M252.88101,201.62464c0.39554,-0.05278 0.7727,-0.03505 1.16811,-0.10525c0.45188,-0.09014 0.90362,-0.19774 1.35471,-0.40972c0.00638,1.00976 0.01264,2.0021 0.01879,2.97704c-0.20609,0.20092 -0.45066,0.28164 -0.67627,0.37896c-0.43247,0.17635 -0.86571,0.23082 -1.3178,0.28615c-0.01887,0.00086 -0.05663,-0.01484 -0.07561,-0.03139c0.16895,-0.11214 0.11153,-0.24884 0.07295,-0.38643c-0.09644,-0.34393 -0.17403,-0.68868 -0.15735,-1.03773c-0.00042,-0.06964 -0.00088,-0.13928 -0.02018,-0.20804c-0.11517,-0.32567 -0.09851,-0.67469 -0.15715,-1.00293c-0.03885,-0.18981 -0.07751,-0.32731 -0.21028,-0.46064z" fill="#61afb4"/><path d="M250.15123,184.28168c0.66026,0.07454 1.31974,0.02722 1.97969,0.04951c0.30164,0.00374 0.60297,-0.04478 0.9043,-0.09327c0.56518,-0.06045 1.14959,-0.05214 1.71432,-0.18226c0.22594,-0.04506 0.45187,-0.09013 0.65885,-0.15176c0.13172,-0.0408 0.26349,-0.06421 0.39545,-0.07019c0.0192,0.05134 0.03823,0.08533 0.03844,0.12018c0.00086,0.13926 0.00178,0.27854 0.00267,0.41781c-0.09389,0.05651 -0.16908,0.09472 -0.26307,0.13383c-0.67711,0.23968 -1.37313,0.48025 -2.10815,0.51358c-0.64067,0.04649 -1.30011,0.09381 -1.94126,0.07066c-0.50909,-0.01173 -1.01803,-0.00607 -1.50912,-0.15792c0.094,-0.03912 0.20742,0.00799 0.28211,-0.09988c0.03648,-0.19321 0.0916,-0.4221 -0.15428,-0.55027z" fill="#61aeb3"/><path d="M250.61088,185.4276c0.32017,-0.04935 0.62235,0.04145 0.94284,0.04431c0.67859,-0.01337 1.35715,-0.0267 2.03538,-0.09232c0.5463,-0.0596 1.07335,-0.18802 1.58132,-0.35036c0.13172,-0.0408 0.26338,-0.08161 0.39509,-0.12241c0.00155,0.24374 0.0029,0.45267 0.00429,0.67899c-0.22483,0.21916 -0.50701,0.31901 -0.80819,0.38496c-0.35763,0.08591 -0.7341,0.1726 -1.11091,0.20711c-0.84763,0.10807 -1.67709,0.11088 -2.52528,0.13196c-0.15075,0.00684 -0.30155,0.01368 -0.43402,-0.06739c-0.00054,-0.08706 0.01772,-0.17495 -0.0204,-0.24287c-0.07648,-0.17067 -0.05897,-0.38047 -0.06018,-0.57193z" fill="#61aeb3"/><path d="M252.881,201.62465c0.11386,0.11676 0.17124,0.25345 0.1912,0.4267c0.05862,0.32819 0.04195,0.67728 0.15715,1.00291c0.01928,0.0688 0.01975,0.13844 0.02017,0.20809c0.00233,0.36561 0.07977,0.69295 0.15735,1.03772c0.03845,0.12018 0.09601,0.27428 -0.07296,0.38644c-0.28259,0.03022 -0.54664,0.00739 -0.79218,-0.06854c-0.0581,-0.24119 -0.13499,-0.4815 -0.09885,-0.72693c-0.00021,-0.03482 -0.01938,-0.0862 -0.01961,-0.12102c-0.05873,-0.34561 -0.11759,-0.70867 -0.15748,-1.05515c-0.01984,-0.15582 -0.02069,-0.29511 -0.05937,-0.4501c-0.05771,-0.18894 -0.07791,-0.39702 0.01512,-0.59279c0.09412,-0.02167 0.16949,-0.0251 0.24477,-0.04591c0.13191,-0.00597 0.28282,0.00458 0.4147,-0.00141z" fill="#87d7dc"/><path d="M250.58786,175.79843c0.22772,0.23347 0.32368,0.5077 0.40083,0.7829c0.01929,0.06879 0.01993,0.17325 0.00155,0.24374c-0.14758,0.51171 -0.2198,1.02002 -0.27315,1.52745c0.0001,0.01742 -0.01851,0.05307 -0.03725,0.07136c-0.07507,0.05564 -0.16929,0.05995 -0.26384,0.01199c-0.00021,-0.03482 -0.01932,-0.0688 -0.01952,-0.10361c0.01625,-0.41866 -0.0241,-0.83481 -0.15854,-1.22924c-0.05785,-0.20635 -0.05906,-0.39788 0.03385,-0.61106c0.11166,-0.23144 0.16674,-0.46033 0.31611,-0.69352z" fill="#cce5e6"/><path d="M249.4737,178.47852c-0.11273,0.05737 -0.18823,0.04337 -0.2451,-0.00629c-0.04294,-0.83396 -0.04297,-0.83394 -0.34911,-1.55146c0.03582,-0.29769 0.16587,-0.59961 0.25837,-0.88243c0.13172,-0.0408 0.15118,0.06279 0.18921,0.11332c0.13313,0.18551 0.26615,0.35365 0.36169,0.5583c0.05743,0.13674 0.077,0.25775 0.04021,0.39869c-0.11034,0.4404 -0.2017,0.89728 -0.2553,1.3699z" fill="#cce5e6"/><path d="M252.44746,201.6269c-0.07528,0.02082 -0.15069,0.02425 -0.24477,0.04592c-0.09303,0.19578 -0.07286,0.40382 -0.01511,0.5928c0.0387,0.15499 0.03957,0.29425 0.05938,0.45011c0.03989,0.34649 0.09873,0.70951 0.15747,1.05514c0.00021,0.03482 0.0194,0.08621 0.0196,0.12102c-0.01719,0.26199 0.05958,0.4849 0.09882,0.72691c-0.15098,-0.02796 -0.28315,-0.05683 -0.43457,-0.15445c-0.05961,-0.4849 -0.15704,-0.98554 -0.19793,-1.4887c-0.05961,-0.4849 -0.19459,-0.96638 -0.19791,-1.48867c0.30163,0.00374 0.52823,0.06311 0.75494,0.13987z" fill="#60adb2"/><path d="M254.12063,179.99179c0.07527,-0.02083 0.13173,-0.04079 0.20698,-0.06163c0.03793,0.03311 0.05684,0.04967 0.0758,0.0662c0.07726,0.29253 0.21094,0.56512 0.36343,0.83682c0.0573,0.1193 0.07682,0.22293 0.02105,0.34734c-0.0927,0.24801 -0.14756,0.51171 -0.39126,0.73175c-0.22756,-0.21608 -0.36126,-0.48864 -0.47608,-0.76207c-0.0192,-0.05134 -0.00084,-0.13928 0.01753,-0.20975c0.05453,-0.31591 0.10912,-0.63192 0.18254,-0.9487z" fill="#cce5e6"/><path d="M254.3567,175.57521c0.07649,0.17065 0.13366,0.27258 0.19098,0.3919c0.09565,0.22207 0.11581,0.4301 0.00429,0.67898c-0.16699,0.4255 -0.27728,0.86592 -0.27455,1.30114c0.00086,0.13927 -0.01787,0.15752 -0.24413,0.15041c-0.00032,-0.05223 -0.01953,-0.1036 -0.01983,-0.15586c0.0161,-0.43609 -0.04307,-0.85134 -0.15878,-1.26405c-0.01948,-0.10362 -0.03889,-0.1898 -0.00179,-0.27857c0.14911,-0.268 0.26057,-0.53425 0.50383,-0.8239z" fill="#cae2e3"/><path d="M251.69762,178.39509c-0.01893,-0.01655 -0.03806,-0.05055 -0.03813,-0.06794c0.03516,-0.4021 -0.04264,-0.7817 -0.13916,-1.14307c-0.07759,-0.34475 -0.07967,-0.67557 0.10672,-1.01486c0.09325,-0.16095 0.11085,-0.35331 0.24194,-0.49857c0.30385,0.35191 0.38185,0.76634 0.25235,1.15533c-0.14781,0.47691 -0.31456,0.93723 -0.29253,1.44128c-0.01851,0.05309 -0.0181,0.12272 -0.13116,0.12786z" fill="#c9e1e2"/><path d="M253.03764,175.65246c0.19021,0.27001 0.26714,0.5103 0.34415,0.76803c0.01937,0.0862 0.01993,0.17323 -0.01732,0.2446c-0.16654,0.49518 -0.29527,1.00601 -0.38633,1.51515c0.00021,0.03482 -0.01828,0.08789 -0.11263,0.07476c-0.00076,-0.12185 -0.00164,-0.26112 -0.02125,-0.38215c-0.02103,-0.34733 -0.06094,-0.69381 -0.17611,-1.01946c-0.07696,-0.24032 -0.05949,-0.46749 0.07111,-0.68239c0.09325,-0.16095 0.18656,-0.30453 0.29835,-0.51857z" fill="#c9e1e2"/><path d="M255.30682,179.76386c0.11256,-0.09216 0.20679,-0.09645 0.30099,-0.10073c0.01893,0.01654 0.03805,0.05053 0.05696,0.06708c0.03944,0.27685 0.15418,0.53287 0.32523,0.75148c0.0951,0.135 0.11482,0.27342 0.05926,0.43268c-0.07416,0.19491 -0.12936,0.4064 -0.24135,0.58565c-0.20828,-0.14728 -0.45508,-0.41473 -0.49363,-0.55231c-0.03826,-0.08532 -0.00101,-0.15668 0.01733,-0.24459c-0.0207,-0.2951 0.05268,-0.61192 -0.02476,-0.93923z" fill="#cae3e4"/><path d="M248.86882,181.20523c0.18668,-0.28708 0.31689,-0.57162 0.4281,-0.87273c0.11282,-0.03993 0.18827,-0.04338 0.28282,0.00457c0.09621,0.30907 0.06078,0.67639 0.17585,0.98464c-0.09304,0.19577 -0.24313,0.30707 -0.37415,0.45235c-0.07491,0.07304 -0.1309,0.16264 -0.26273,0.18605c-0.1522,-0.21949 -0.13509,-0.49889 -0.24982,-0.75491z" fill="#c8e0e1"/><path d="M251.87901,180.25023c0.16971,0.00971 0.189,0.0785 0.20829,0.14728c0.07705,0.25775 0.15394,0.49803 0.21215,0.75661c0.01929,0.0688 0.01974,0.13842 -0.01751,0.20979c-0.13071,0.19746 -0.28029,0.39581 -0.44877,0.57763c-0.09486,-0.10019 -0.1144,-0.2038 -0.17159,-0.3057c-0.17156,-0.30567 -0.19231,-0.60077 0.05092,-0.89046c0.11222,-0.14442 0.1488,-0.32022 0.16652,-0.49517z" fill="#cbe4e5"/><path d="M250.69169,180.30408c0.09422,-0.0043 0.15076,-0.00686 0.2073,-0.00943c0.01905,0.03398 0.05685,0.04969 0.05697,0.06707c0.03885,0.18981 0.05898,0.38046 0.09786,0.57025c0.01948,0.10363 0.00119,0.19152 -0.0548,0.28112c-0.16795,0.26883 -0.35491,0.52112 -0.59836,0.77598c-0.13293,-0.15069 -0.15273,-0.30652 -0.17257,-0.46235c-0.00041,-0.06961 -0.00085,-0.13929 0.03646,-0.19319c0.24324,-0.28968 0.35414,-0.643 0.42711,-1.02943z" fill="#c8e0e1"/><path d="M250.61087,185.42758c0.0012,0.1915 -0.01633,0.4013 0.07913,0.58853c0.03813,0.06793 0.0198,0.15581 0.02038,0.24286c-0.32026,0.03193 -0.62213,-0.0066 -0.90559,-0.11568c0.03617,-0.24544 -0.04076,-0.48574 -0.07978,-0.69294c0.13136,-0.09304 0.26363,-0.04679 0.37645,-0.08674c0.16952,-0.0251 0.35809,-0.01623 0.5094,0.06396z" fill="#85d5d9"/><path d="M255.79437,176.36335c-0.09259,0.26543 -0.18514,0.53084 -0.2588,0.81281c-0.05501,0.24631 0.09752,0.51801 -0.18355,0.79196c-0.00375,-0.5919 -0.13895,-1.10824 -0.27416,-1.62453c0.09304,-0.19577 0.20477,-0.40982 0.39227,-0.57504c0.03793,0.03311 0.05687,0.04967 0.07581,0.0662c0.09532,0.1698 0.17183,0.34051 0.2484,0.52855z" fill="#c6dede"/><path d="M250.32137,175.39256c-0.13007,0.30197 -0.24146,0.56819 -0.37153,0.87017c-0.15141,-0.09763 -0.20886,-0.23434 -0.30373,-0.3345c-0.09502,-0.11756 -0.22758,-0.21609 -0.28509,-0.37019c-0.00076,-0.12185 0.07395,-0.22975 0.1298,-0.33676c0.05586,-0.10702 0.13063,-0.21489 0.22419,-0.32364c0.2645,0.09249 0.41656,0.29459 0.60637,0.49496z" fill="#cae3e3"/><path d="M248.26777,178.56805c-0.13523,-0.51631 -0.2699,-0.94557 -0.51754,-1.35225c0.07398,-0.22977 0.12908,-0.45863 0.20293,-0.70578c0.24589,0.12816 0.34144,0.3328 0.47453,0.5183c0.01905,0.03398 0.01938,0.08622 0.01959,0.12101c-0.0538,0.43779 -0.10757,0.87562 -0.17954,1.4187z" fill="#cae3e4"/><path d="M253.07695,181.88507c-0.19021,-0.27 -0.34265,-0.52431 -0.17521,-0.88018c0.11154,-0.24887 0.12875,-0.51088 0.14594,-0.77286c-0.00066,-0.10448 0.09344,-0.12615 0.20676,-0.09647c-0.03591,0.28025 0.05995,0.53715 0.15583,0.79402c0.0766,0.18807 0.03991,0.34647 -0.05334,0.50744c-0.07451,0.14268 -0.11124,0.30109 -0.27998,0.44807z" fill="#c8e0e1"/><path d="M250.15123,184.28167c0.24599,0.14558 0.19074,0.35703 0.17322,0.56681c-0.07471,0.10785 -0.188,0.0782 -0.28209,0.09988c-0.24509,-0.0063 -0.47169,-0.0657 -0.69854,-0.1599c0.01763,-0.19235 -0.05894,-0.38044 0.03417,-0.5588c0.09413,-0.02167 0.15068,-0.02425 0.22604,-0.02767c0.1887,0.02626 0.37736,0.0525 0.5472,0.07966z" fill="#85d4d9"/><path d="M251.20881,181.58668c0.11472,0.25602 0.19154,0.47891 0.28721,0.70097c-0.16841,0.19919 -0.35574,0.38185 -0.56222,0.53051c-0.13216,-0.02883 -0.17049,-0.13158 -0.22746,-0.19864c-0.05698,-0.06707 -0.11394,-0.13414 -0.09585,-0.25686c0.14948,-0.21574 0.35521,-0.46887 0.59835,-0.77598z" fill="#c7dfe0"/><path d="M254.17296,182.30558c-0.13085,0.18009 -0.24281,0.35928 -0.43028,0.52455c-0.22715,-0.14642 -0.32268,-0.35105 -0.45603,-0.5714c0.13061,-0.21489 0.26119,-0.42981 0.39171,-0.66213c0.18999,0.23519 0.32336,0.45558 0.49459,0.70899z" fill="#c8e0e1"/><path d="M251.22249,174.79438c0.15165,0.13247 0.30327,0.26489 0.39872,0.45212c-0.11154,0.24887 -0.24193,0.49858 -0.3722,0.76569c-0.03766,0.0017 -0.07536,0.00341 -0.07548,-0.01401c-0.11406,-0.15156 -0.22822,-0.32051 -0.32345,-0.47292c-0.03813,-0.06794 -0.05745,-0.13672 -0.02008,-0.19064c0.11177,-0.21404 0.16699,-0.42552 0.39249,-0.54027z" fill="#c4dcdd"/><path d="M254.10934,175.20332c-0.14934,0.23316 -0.27985,0.46546 -0.4292,0.69864c-0.15107,-0.0454 -0.15195,-0.18466 -0.20915,-0.28657c-0.05719,-0.10188 -0.09567,-0.22206 -0.15297,-0.34134c0.09292,-0.21318 0.28053,-0.36096 0.4302,-0.54195c0.20804,0.11245 0.28454,0.28315 0.36111,0.47123z" fill="#c8e0e1"/><path d="M254.7,182.19461c0.13041,-0.24971 0.24207,-0.4812 0.37234,-0.7483c0.18935,0.13071 0.28476,0.31798 0.45528,0.44956c-0.07388,0.24714 -0.26133,0.4124 -0.41079,0.62812c-0.18912,-0.09591 -0.34043,-0.17611 -0.41677,-0.32938z" fill="#c6ddde"/><path d="M256.47351,179.43232c0.19034,0.28743 0.28667,0.61391 0.53329,0.86395c-0.0552,0.21149 -0.09171,0.40472 -0.22243,0.60219c-0.2269,-0.11161 -0.35985,-0.26232 -0.32379,-0.52515c0.05456,-0.31591 0.01489,-0.62759 0.01291,-0.94099z" fill="#b9cfd0"/><path d="M247.21088,178.37217c-0.11339,-0.04711 -0.05746,-0.13672 -0.07671,-0.20548c-0.03867,-0.15498 -0.05852,-0.31077 -0.17227,-0.41015c-0.15197,-0.18468 -0.13437,-0.37701 -0.09796,-0.58765c0.01832,-0.08792 0.05543,-0.17667 0.09236,-0.30024c0.24623,0.18038 0.43577,0.34596 0.36248,0.68013c-0.05509,0.2289 -0.03474,0.47178 -0.05215,0.69895c0.0003,0.05223 0.00066,0.10447 -0.05577,0.12443z" fill="#c0d8d8"/><path d="M248.0046,181.66236c-0.09522,-0.15243 -0.13378,-0.28997 -0.13468,-0.42923c-0.00041,-0.06961 -0.00103,-0.1567 0.03635,-0.21062c0.1682,-0.23402 0.27972,-0.48288 0.39127,-0.73175c0.13191,-0.00596 0.1135,0.06451 0.11385,0.11676c0.0011,0.17411 0.00233,0.36561 0.04111,0.53799c0.03911,0.22461 -0.01643,0.38387 -0.20413,0.5143c-0.0939,0.05651 -0.15011,0.1113 -0.24376,0.20259z" fill="#c1d9d9"/><path d="M252.79651,182.26351c-0.11185,0.19661 -0.26179,0.34274 -0.41143,0.52367c-0.20796,-0.09504 -0.26566,-0.28399 -0.37977,-0.43556c0.13049,-0.23232 0.33679,-0.3984 0.52406,-0.59845c0.13301,0.16813 0.19066,0.33967 0.26716,0.51034z" fill="#c3dbdc"/><path d="M252.43582,175.88875c-0.11465,-0.23861 -0.21027,-0.46069 -0.32478,-0.68188c0.07437,-0.16013 0.14891,-0.30279 0.31785,-0.41496c0.1705,0.1316 0.26581,0.30141 0.38003,0.47037c-0.07399,0.22976 -0.1858,0.42635 -0.37306,0.62642z" fill="#c3dadb"/><path d="M251.12429,183.14042c0.18749,-0.16524 0.35621,-0.31219 0.52493,-0.45916c0.18923,0.11331 0.28455,0.28313 0.37987,0.45295c-0.13092,0.16268 -0.28091,0.29138 -0.4687,0.40434c-0.05675,-0.03227 -0.13246,-0.08109 -0.17037,-0.11416c-0.09488,-0.10018 -0.15197,-0.18465 -0.26571,-0.28402z" fill="#c4dbdc"/><path d="M247.41091,180.19163c0.00207,0.33082 0.00371,0.59197 0.00553,0.87049c-0.09347,0.12616 -0.20602,0.21832 -0.37526,0.27821c-0.11359,-0.08193 -0.07669,-0.2055 -0.11503,-0.30825c-0.03835,-0.10273 -0.05785,-0.20635 -0.05843,-0.2934c0.18738,-0.18269 0.33726,-0.32879 0.54325,-0.54708z" fill="#c2d9da"/><path d="M249.95796,174.55569c0.07451,-0.14268 0.16804,-0.25144 0.2807,-0.3262c0.15065,-0.02424 0.22672,0.07684 0.32125,0.12475c0.09453,0.04791 0.20773,0.06022 0.26503,0.17953c-0.03658,0.17581 -0.16753,0.33847 -0.29823,0.536c-0.09481,-0.08279 -0.18959,-0.16556 -0.28424,-0.23093c-0.09486,-0.10019 -0.18978,-0.20035 -0.28457,-0.28314z" fill="#c5ddde"/><path d="M253.44303,183.13975c-0.09315,0.17839 -0.24358,0.23746 -0.35598,0.34704c-0.20784,-0.07767 -0.34077,-0.22836 -0.49267,-0.3956c0.13102,-0.14527 0.2621,-0.29052 0.37432,-0.43495c0.22689,0.11162 0.32248,0.31627 0.47432,0.48351z" fill="#c3dbdc"/><path d="M248.55637,176.50007c-0.07575,-0.0488 -0.11364,-0.08188 -0.15155,-0.11498c-0.07592,-0.08362 -0.15198,-0.18468 -0.24686,-0.28486c0.13041,-0.24971 0.20423,-0.49687 0.41033,-0.69779c0.13216,0.02883 0.18925,0.11331 0.26539,0.23177c-0.07373,0.26456 -0.16612,0.56479 -0.27728,0.8659z" fill="#c7dfe0"/><path d="M250.08271,182.38661c-0.18757,0.14782 -0.29955,0.32702 -0.50631,0.42348c-0.17027,-0.09679 -0.19033,-0.2874 -0.32291,-0.38587c0.16821,-0.23402 0.35575,-0.38186 0.54313,-0.5645c0.18947,0.14815 0.19065,0.33963 0.28613,0.52687z" fill="#c7dee0"/><path d="M250.10146,185.3462c-0.11284,0.03995 -0.2451,-0.00632 -0.37646,0.08674c0.03911,0.22461 0.09717,0.46577 0.07977,0.69295c-0.07551,-0.01399 -0.16983,-0.02714 -0.24543,-0.0585c-0.11339,-0.04711 -0.18931,-0.13074 -0.19012,-0.25262c-0.02017,-0.20803 -0.04024,-0.39868 -0.06037,-0.60677c0.24501,-0.01112 0.35819,0.00117 0.79264,0.1382z" fill="#61acb1"/><path d="M255.33546,175.33927c-0.13085,0.18009 -0.24301,0.32445 -0.3927,0.50541c-0.1145,-0.22119 -0.22889,-0.42495 -0.32456,-0.64701c0.09332,-0.14355 0.18683,-0.26968 0.31808,-0.38014c0.18946,0.14815 0.28476,0.31795 0.39917,0.52173z" fill="#c2dada"/><path d="M248.10122,182.0411c0.13085,-0.18009 0.28094,-0.29137 0.44971,-0.43834c0.07695,0.24032 0.15363,0.44582 0.23033,0.65134c-0.07437,0.16012 -0.206,0.21832 -0.35621,0.31219c-0.17038,-0.11416 -0.22816,-0.30314 -0.32379,-0.52515z" fill="#c1d9d9"/><path d="M253.10836,174.91784c-0.17071,-0.16642 -0.28465,-0.30055 -0.41746,-0.43387c0.05544,-0.17666 0.20544,-0.30537 0.35546,-0.43407c0.17013,0.07937 0.32157,0.17698 0.43576,0.34595c-0.05522,0.21148 -0.24316,0.30708 -0.37374,0.522z" fill="#c6dedf"/><path d="M254.83616,182.85018c-0.13091,0.16266 -0.28084,0.30878 -0.41186,0.45405c-0.16971,-0.00971 -0.28323,-0.07422 -0.3971,-0.19097c0.07399,-0.22976 0.28053,-0.36097 0.41123,-0.5585c0.17007,0.06193 0.26503,0.17954 0.39774,0.29541z" fill="#c0d7d7"/><path d="M247.68754,176.22598c-0.07417,0.19491 -0.09172,0.40469 -0.2602,0.58651c-0.11386,-0.11676 -0.22759,-0.21611 -0.34132,-0.31541c-0.0013,-0.20889 0.09183,-0.38726 0.24171,-0.53336c0.15108,0.0454 0.24585,0.12816 0.35982,0.26228z" fill="#c3dadb"/><path d="M249.62286,184.20115c-0.07539,0.00341 -0.15068,0.02427 -0.22607,0.0277c-0.09314,0.1784 -0.01658,0.36644 -0.03417,0.5588c-0.13181,0.02339 -0.20786,-0.07766 -0.33988,-0.08907c-0.0768,-0.22291 -0.02162,-0.43439 -0.15496,-0.65472c0.18834,-0.02594 0.30173,0.02113 0.43403,0.06738c0.09447,0.03052 0.22617,-0.01023 0.32102,0.08993z" fill="#5aa0a4"/><path d="M257.65073,180.75463c-0.07417,0.1949 -0.09172,0.40473 -0.24148,0.56824c-0.13216,-0.02883 -0.20799,-0.09508 -0.32173,-0.19436c0.03649,-0.19323 0.11066,-0.38814 0.22273,-0.54997c0.13216,0.02884 0.20786,0.07765 0.34042,0.17612z" fill="#bdd3d4"/><path d="M251.91979,183.73124c0.13128,-0.11045 0.2437,-0.22001 0.35609,-0.3296c0.17015,0.07937 0.28402,0.1961 0.39797,0.33023c-0.05567,0.14182 -0.18738,0.18269 -0.31928,0.18865c-0.16961,0.00773 -0.3392,0.01541 -0.43478,-0.18925z" fill="#bdd4d5"/><path d="M256.68024,176.34056c-0.09292,0.21317 -0.18594,0.40898 -0.27883,0.62214c-0.19077,-0.35703 -0.28706,-0.68355 0.08799,-0.9966c0.11359,0.08193 0.13333,0.22035 0.19085,0.37445z" fill="#bbd2d3"/><path d="M250.16461,183.41034c-0.15118,-0.06281 -0.22725,-0.16386 -0.30327,-0.26491c-0.00076,-0.12185 0.09326,-0.16097 0.16822,-0.23401c0.0562,-0.05478 0.11229,-0.12698 0.22528,-0.14951c0.15118,0.06281 0.15231,0.23687 0.30363,0.31708c-0.11207,0.16183 -0.24343,0.25486 -0.39375,0.33135z" fill="#c3dadb"/><path d="M252.1306,178.30578c0.03576,-0.31508 0.07143,-0.63015 0.18255,-0.94866c0.11317,0.01229 0.13262,0.09849 0.13311,0.18552c0.02026,0.22547 0.02171,0.45175 0.02303,0.66068c0.00099,0.15668 -0.11188,0.19666 -0.33867,0.10244z" fill="#b1c6c7"/><path d="M255.91058,182.83626c0.03678,-0.14097 0.14955,-0.19834 0.22438,-0.2888c0.13084,-0.1801 0.30033,-0.20519 0.52707,-0.12839c-0.11155,0.24886 -0.33673,0.4158 -0.52428,0.56362c-0.13204,-0.01143 -0.18881,-0.04368 -0.22715,-0.14642z" fill="#bbd2d3"/><path d="M254.65486,178.01713c-0.07748,-0.32738 0.05258,-0.62929 0.16367,-0.94782c0.11464,0.23861 0.11624,0.49975 0.13664,0.74262c0.01984,0.15583 -0.03648,0.19325 -0.30032,0.20518z" fill="#bad1d2"/><path d="M257.47406,179.64816c0.13279,0.1333 0.26537,0.23179 0.39816,0.36505c-0.0183,0.08791 -0.07407,0.21234 -0.11099,0.33591c-0.33979,-0.07166 -0.33989,-0.08907 -0.32248,-0.31627c-0.00075,-0.12186 0.01733,-0.2446 0.03529,-0.38471z" fill="#b5cbcc"/><path d="M252.25191,173.61577c0.18877,0.0437 0.30244,0.12559 0.41604,0.20751c-0.05555,0.15927 -0.2059,0.23571 -0.33713,0.34617c-0.13249,-0.08103 -0.24605,-0.16299 -0.37854,-0.24405c0.01785,-0.15753 0.18722,-0.20007 0.29968,-0.30966z" fill="#c0d7d8"/><path d="M256.33306,181.07568c0.11327,0.02971 0.18925,0.1133 0.26531,0.21435c-0.05512,0.22889 -0.18581,0.42639 -0.35446,0.59075c-0.13181,0.02339 -0.16983,-0.02713 -0.20804,-0.11245c0.09276,-0.23059 0.18559,-0.46121 0.29726,-0.69265z" fill="#bdd4d4"/><path d="M255.55981,175.03305c-0.11406,-0.15156 -0.20939,-0.32136 -0.32346,-0.47293c0.07485,-0.09046 0.16886,-0.12957 0.28192,-0.13472c0.11327,0.0297 0.15153,0.115 0.20861,0.19948c0.03813,0.06794 0.07626,0.13585 0.1144,0.20379c-0.05588,0.10704 -0.13083,0.1801 -0.28151,0.20434z" fill="#b6cccc"/><path d="M251.84496,174.85325c-0.13278,-0.1333 -0.24663,-0.25003 -0.3983,-0.38249c0.01817,-0.1053 0.07406,-0.21236 0.24335,-0.27228c0.1325,0.08103 0.26505,0.17952 0.41646,0.27714c-0.07451,0.14268 -0.13027,0.26714 -0.26155,0.37758z" fill="#c1d9d9"/><path d="M256.31694,175.53855c-0.07451,0.14268 -0.14922,0.2506 -0.2806,0.3436c-0.13279,-0.1333 -0.17157,-0.30571 -0.22899,-0.4424c0.03678,-0.14097 0.14966,-0.18093 0.24356,-0.23743c0.05664,0.01485 0.09434,0.01314 0.09447,0.03052c0.05716,0.10189 0.11438,0.20377 0.17157,0.30571z" fill="#b7cdce"/><path d="M257.32534,176.99048c-0.15196,-0.18469 -0.15297,-0.34135 -0.19166,-0.49634c-0.05765,-0.17153 0.055,-0.2463 0.18635,-0.33934c0.13279,0.1333 0.17147,0.28827 0.24773,0.42414c-0.0366,0.1758 -0.22473,0.23659 -0.24247,0.41154z" fill="#b6cccc"/><path d="M257.24172,181.67877c-0.09334,0.14355 -0.16805,0.25142 -0.24267,0.37671c-0.16952,0.0251 -0.28259,0.03022 -0.41504,-0.05083c0.11209,-0.16182 0.20533,-0.32279 0.29866,-0.46633c0.16926,-0.05995 0.2453,0.04113 0.3585,0.05338c0.00021,0.03482 0.0193,0.0688 0.00058,0.08706z" fill="#c2dada"/><path d="M251.27388,173.97358c-0.05578,0.1244 -0.11197,0.17922 -0.20598,0.21834c-0.11299,0.02253 -0.18877,-0.04369 -0.28335,-0.09162c-0.07574,-0.04881 -0.20775,-0.06023 -0.22736,-0.18125c0.09358,-0.10871 0.20608,-0.20089 0.3755,-0.24342c0.13259,0.09847 0.22747,0.19866 0.34122,0.298z" fill="#bbd2d3"/><path d="M248.59679,182.90675c0.13136,-0.09303 0.22517,-0.16695 0.33779,-0.24172c0.13272,0.11589 0.20894,0.25175 0.30408,0.38677c-0.07471,0.10786 -0.16852,0.18182 -0.30044,0.18774c-0.03782,-0.01569 -0.07559,-0.03142 -0.09469,-0.06537c-0.07581,-0.0662 -0.15176,-0.14988 -0.24676,-0.26745z" fill="#bbd2d3"/><path d="M257.98273,179.60766c-0.22737,-0.18125 -0.22738,-0.18125 -0.32344,-0.47292c0.09336,-0.14356 0.24402,-0.16779 0.41329,-0.22769c0.05809,0.24119 -0.03471,0.47176 -0.08984,0.70065z" fill="#adc2c3"/><path d="M250.48656,183.63955c0.07471,-0.10786 0.1874,-0.18265 0.31917,-0.20602c0.13272,0.11589 0.24644,0.21516 0.36024,0.33193c-0.31928,0.18864 -0.33811,0.18951 -0.67945,-0.12587z" fill="#b5cbcc"/><path d="M254.68926,174.49788c-0.09345,0.12617 -0.16832,0.2166 -0.29969,0.30963c-0.15128,-0.08019 -0.20883,-0.23435 -0.3228,-0.3685c0.03737,-0.05394 0.07482,-0.09044 0.11228,-0.127c0.03747,-0.03654 0.09389,-0.05651 0.15023,-0.0939c0.16994,0.04454 0.2648,0.1447 0.35995,0.27973z" fill="#bbd1d2"/><path d="M247.46087,182.13981c-0.18923,-0.11332 -0.20939,-0.32137 -0.30452,-0.45636c0.07463,-0.12527 0.20644,-0.14871 0.31911,-0.22347c0.13314,0.1855 0.17191,0.35791 0.11657,0.55198c0.00031,0.05223 -0.07483,0.09047 -0.13114,0.12785z" fill="#b6cccd"/><path d="M248.26509,175.15492c-0.13049,0.23232 -0.27997,0.44806 -0.41056,0.66294c-0.13204,-0.01144 -0.20773,-0.06021 -0.28389,-0.17866c0.18722,-0.20007 0.37449,-0.4001 0.6186,-0.55051c0.03793,0.03313 0.05687,0.04967 0.07582,0.0662z" fill="#acc1c2"/><path d="M253.57622,177.3695c0.05797,0.22377 0.09709,0.44839 0.0608,0.6764c-0.01832,0.08792 -0.07439,0.16011 -0.1686,0.16439c-0.03765,0.0017 -0.11328,-0.02971 -0.1134,-0.04712c-0.02049,-0.26028 0.10977,-0.52741 0.22119,-0.79368z" fill="#a7bbbb"/><path d="M254.06345,173.91672c-0.03704,0.10618 -0.13092,0.16268 -0.24367,0.22002c-0.13259,-0.09847 -0.26516,-0.19696 -0.39775,-0.29542c0.07451,-0.14268 0.18747,-0.16522 0.31938,-0.1712c0.11339,0.04711 0.22715,0.14641 0.32203,0.24663z" fill="#b7cdcd"/><path d="M253.35286,183.78816c0.09314,-0.1784 0.22452,-0.27138 0.37472,-0.3653c0.15108,0.0454 0.26461,0.1099 0.34097,0.26317c-0.22549,0.11471 -0.45177,0.10755 -0.7157,0.10214z" fill="#b7cece"/><path d="M246.39564,180.6208c-0.13325,-0.20293 -0.05928,-0.43266 -0.15464,-0.60247c0.07471,-0.10785 0.15022,-0.09387 0.18826,-0.04336c0.09511,0.13499 0.17149,0.28829 0.17256,0.46236c-0.01852,0.0531 -0.01843,0.07049 -0.20621,0.18351z" fill="#b4cacb"/><path d="M249.01967,175.24262c-0.11339,-0.04709 -0.17027,-0.09676 -0.20853,-0.18208c0.13084,-0.1801 0.26155,-0.37757 0.52451,-0.52882c0.0207,0.2951 -0.14782,0.47688 -0.31599,0.71091z" fill="#b2c8c9"/><path d="M249.46676,183.35492c0.13249,0.08103 0.22714,0.14642 0.26549,0.24917c-0.01841,0.07049 -0.07483,0.0905 -0.13128,0.11046c-0.22569,0.07989 -0.32071,-0.03772 -0.41602,-0.20752c0.094,-0.03912 0.18792,-0.09562 0.28181,-0.15211z" fill="#b5cbcb"/><path d="M255.91647,177.78579c-0.02027,-0.22547 -0.02149,-0.41694 0.03374,-0.62841c0.09412,-0.02166 0.13214,0.02883 0.13248,0.08105c0.01961,0.12103 0.05808,0.24121 0.07769,0.3622c0.00086,0.13927 -0.07429,0.17749 -0.24389,0.18516z" fill="#91a3a3"/><path d="M248.75281,177.76243c0.13325,0.20293 0.11582,0.43011 0.11712,0.63902c0.00021,0.03482 -0.03726,0.07137 -0.07484,0.09046c-0.03766,0.0017 -0.09446,-0.03052 -0.09457,-0.04795c-0.05809,-0.24119 -0.02181,-0.46921 0.05226,-0.68154z" fill="#99abac"/><path d="M247.852,178.39537c-0.13148,0.07563 -0.22571,0.07988 -0.26396,-0.00546c-0.03845,-0.12018 -0.00185,-0.29595 0.07209,-0.5257c0.13305,0.16812 0.13424,0.35959 0.19186,0.53112z" fill="#93a5a6"/><path d="M255.17959,183.49633c0.14958,-0.19833 0.28016,-0.41325 0.62028,-0.28937c-0.14949,0.21573 -0.39445,0.22685 -0.62028,0.28937z" fill="#9aadad"/><path d="M254.89569,180.33976c-0.05743,-0.13673 -0.11494,-0.29082 -0.17224,-0.41016c0.056,-0.08961 0.11241,-0.10959 0.22561,-0.09729c0.09524,0.15244 0.02096,0.32994 0.04079,0.48577c-0.03766,0.0017 -0.05654,0.00255 -0.09414,0.02169z" fill="#c5dddd"/><path d="M251.1467,177.72347c0.17104,0.21862 0.17245,0.44498 0.09852,0.67471c0.0001,0.01742 -0.03748,0.03655 -0.07517,0.03826c-0.05643,0.01997 -0.09446,-0.03052 -0.09466,-0.06536c-0.02009,-0.19063 0.03517,-0.40215 0.07132,-0.6476z" fill="#aec2c3"/><path d="M247.78257,182.33418c0.13279,0.1333 0.19043,0.30481 0.24795,0.45897c-0.05598,0.08961 -0.13151,0.07563 -0.16963,0.00771c-0.07616,-0.11847 -0.15218,-0.2195 -0.20958,-0.35621c-0.03793,-0.03313 0.01829,-0.08789 0.13126,-0.11044z" fill="#9caeaf"/><path d="M253.06236,173.59643c-0.16996,-0.04454 -0.28343,-0.10903 -0.41603,-0.20753c0.24456,-0.08076 0.45219,-0.03794 0.67834,-0.04818c-0.01852,0.05311 -0.01832,0.08792 -0.03705,0.10614c-0.07507,0.05564 -0.1502,0.09388 -0.22524,0.14954z" fill="#a9bebf"/><path d="M250.01322,180.33481c0.13172,-0.0408 0.20716,-0.02681 0.28293,0.02203c0.01992,0.17324 -0.03563,0.33247 -0.22299,0.51515c-0.03901,-0.20722 -0.03998,-0.36389 -0.05996,-0.53714z" fill="#b9cfd0"/><path d="M255.92803,179.63118c0.056,-0.0896 0.13129,-0.11042 0.20654,-0.13127c0.09445,0.03055 0.09501,0.11757 0.04109,0.53799c-0.22682,-0.0942 -0.17149,-0.28828 -0.24763,-0.40673z" fill="#869797"/><path d="M250.01615,177.8096c-0.05478,0.28112 0.11637,0.51718 -0.14616,0.73804c-0.07705,-0.25774 -0.05953,-0.46748 0.14616,-0.73804z" fill="#93a4a5"/><path d="M256.89109,176.88823c0.00164,0.26112 0.00273,0.43524 0.00384,0.60933c0.00021,0.03482 -0.03726,0.07137 -0.09378,0.07389c-0.01887,0.00086 -0.05665,-0.01486 -0.07562,-0.0314c-0.03904,-0.20719 -0.04024,-0.39875 0.16553,-0.65184z" fill="#94a5a6"/><path d="M256.83109,179.32902c0.11266,-0.07474 0.16904,-0.09475 0.26373,-0.02939c0.01972,0.13841 0.03957,0.29426 -0.01588,0.47093c-0.18922,-0.11336 -0.1903,-0.2874 -0.24785,-0.44151z" fill="#abbfc0"/><path d="M257.14865,175.88393c-0.094,0.03911 -0.13159,0.05821 -0.16931,0.05992c-0.20885,-0.23433 -0.20882,-0.23431 -0.15382,-0.4806c0.18912,0.09591 0.19024,0.26998 0.3231,0.42068z" fill="#acc0c1"/><path d="M255.41935,182.64953c0.11222,-0.14442 0.20543,-0.30537 0.33648,-0.45063c0.0562,-0.05478 0.1316,-0.05818 0.18877,0.04369c-0.13085,0.18009 -0.26176,0.34274 -0.52526,0.40692z" fill="#9fb2b2"/><path d="M254.97052,174.25868c-0.09469,-0.06539 -0.15152,-0.11505 -0.18977,-0.20035c0.03724,-0.07137 0.09356,-0.10875 0.18769,-0.13043c0.11318,0.0123 0.1891,0.09592 0.26503,0.17955c-0.03704,0.10618 -0.15,0.12869 -0.26294,0.15121z" fill="#aec2c3"/><path d="M252.61631,180.58246c-0.15128,-0.08018 -0.15209,-0.2021 -0.17171,-0.32309c-0.0003,-0.05223 0.05598,-0.08958 0.11252,-0.09215c0.03766,-0.0017 0.09448,0.03053 0.09467,0.06535c0.05719,0.10188 0.02016,0.20809 -0.03551,0.3499z" fill="#91a2a3"/><path d="M251.77952,173.44562c-0.20545,0.30537 -0.22415,0.32367 -0.47071,0.09103c0.15055,-0.04164 0.28192,-0.1347 0.47071,-0.09103z" fill="#869696"/><path d="M246.7965,178.42579c-0.17049,-0.1316 -0.11462,-0.23858 -0.09654,-0.36134c0.17014,0.07938 0.17014,0.07938 0.09654,0.36134z" fill="#555f5f"/><path d="M253.76288,180.06027c0.00055,0.08706 0.00132,0.20889 -0.05445,0.33335c-0.1706,-0.149 -0.17103,-0.21862 -0.09645,-0.3439c0.01863,-0.03568 0.07518,-0.03826 0.15088,0.01058z" fill="#93a5a6"/><path d="M257.68346,176.99164c0.18978,0.20036 0.17118,0.23604 -0.13008,0.30193c-0.03845,-0.12019 0.03634,-0.21063 0.13008,-0.30193z" fill="#8b9b9c"/><path d="M246.39693,177.83443c0.05763,0.17154 0.03966,0.31163 0.02167,0.45181c-0.11273,0.05737 -0.16951,0.02508 -0.16993,-0.04456c-0.00088,-0.13927 0.0171,-0.2794 0.14822,-0.40724z" fill="#9aacad"/><path d="M256.46417,174.95716c0.11359,0.08193 0.22703,0.12904 0.20907,0.26917c0.00009,0.01742 -0.01862,0.03569 -0.03746,0.03655c-0.16984,-0.02714 -0.2082,-0.12989 -0.17159,-0.3057z" fill="#5f6a6b"/><path d="M251.35272,180.50048c-0.05698,-0.06707 -0.05743,-0.13674 -0.039,-0.20723c0.01863,-0.03568 0.0561,-0.0722 0.0939,-0.05649c0.03782,0.01569 0.07574,0.04881 0.07592,0.08364c0.00041,0.06961 -0.01798,0.14011 -0.13083,0.18007z" fill="#636e6f"/><path d="M254.28816,173.66274c0.1316,-0.05819 0.22593,-0.04509 0.3022,0.09077c-0.15032,0.07646 -0.22604,0.02769 -0.3022,-0.09077z" fill="#4a5354"/></g><g data-paper-data="{&quot;index&quot;:null}" fill="#000000" stroke="#000000" stroke-width="1.2"><path d="M242.33891,200.05455c-0.47923,-1.80347 1.1804,-4.71021 1.45631,-6.98854c0.29707,-2.45295 -0.74866,-4.10985 0.28901,-5.38216c0.72481,-0.88869 2.313,-0.90486 3.13586,-0.80521c2.00094,0.24231 3.21399,3.81622 2.70944,7.98254c-0.50454,4.16631 -2.53564,7.34736 -4.53656,7.10504c-0.90672,-0.1098 -2.65692,-0.41718 -3.05406,-1.91164z"/><path d="M245.58267,202.62345c-0.64535,-2.52069 1.04673,-8.27866 1.04673,-8.27866c0,0 -0.65296,-3.87355 -0.64104,-3.95931c0.75843,-5.46522 4.23083,-5.10621 8.17086,-4.62906c1.87519,0.22708 4.66661,1.33661 5.48388,3.17528c0.92688,2.08526 0.02706,4.73387 -0.34338,7.79279c-0.69709,5.75609 -3.66298,10.36125 -7.66484,9.87661c-1.7616,-0.21333 -5.19025,-0.611 -6.05219,-3.97766z"/></g></g><path d="M227.88801,180.19608c0,0 -11.81103,0.93935 -14.65186,0.13153c-2.36976,-0.67386 -3.8213,-4.18733 -3.8213,-4.18733" fill="none" fill-rule="nonzero" stroke="#000000" stroke-width="3" stroke-linecap="round" stroke-linejoin="miter"/><g fill="#ff0000" fill-rule="nonzero" stroke="none" stroke-linecap="butt" stroke-linejoin="miter"><path d="M239.52663,218.53306c0.58481,1.00987 0.17473,2.34057 -0.91595,2.97216c-1.09067,0.6316 -2.44892,0.32493 -3.03374,-0.68496c-0.58482,-1.00988 -0.17472,-2.34056 0.91595,-2.97216c1.09067,-0.6316 2.44892,-0.32493 3.03374,0.68495z" stroke-width="NaN"/><path d="M244.44695,220.95794c0.53802,0.92909 0.18827,2.13739 -0.78123,2.6988c-0.96949,0.56142 -2.19157,0.26336 -2.7296,-0.66573c-0.53802,-0.92909 -0.18826,-2.13739 0.78124,-2.69882c0.96949,-0.56142 2.19156,-0.26335 2.72958,0.66573z" stroke-width="0"/><path d="M243.1347,226.11299c0.56142,0.96949 0.23062,2.21053 -0.73888,2.77194c-0.96949,0.56142 -2.21053,0.23062 -2.77194,-0.73888c-0.56142,-0.96949 -0.23062,-2.21054 0.73887,-2.77195c0.96949,-0.56142 2.21054,-0.23061 2.77195,0.73888z" stroke-width="0"/></g><g fill="#ff0000" fill-rule="nonzero" stroke="none" stroke-linecap="butt" stroke-linejoin="miter"><path d="M241.10998,210.29877c-0.91826,0.21702 -1.85267,-0.41099 -2.08705,-1.40271c-0.23439,-0.99172 0.32,-1.97161 1.23826,-2.18863c0.91826,-0.21702 1.85266,0.411 2.08705,1.40272c0.23439,0.99172 -0.31999,1.97159 -1.23826,2.18861z" stroke-width="NaN"/><path d="M238.0845,213.54178c-0.84479,0.19966 -1.69854,-0.35309 -1.90689,-1.23462c-0.20834,-0.88153 0.30761,-1.75801 1.15241,-1.95767c0.84479,-0.19966 1.69853,0.35311 1.90688,1.23462c0.20834,0.88153 -0.30761,1.75801 -1.1524,1.95767z" stroke-width="0"/><path d="M241.5174,214.69663c-0.95499,0.22571 -1.89102,-0.27618 -2.09068,-1.12097c-0.19966,-0.84479 0.41265,-1.71261 1.36763,-1.93832c0.95499,-0.22571 1.89103,0.27618 2.09068,1.12098c0.19966,0.84479 -0.41266,1.7126 -1.36765,1.93831z" stroke-width="0"/></g><g fill="#ff0000" fill-rule="nonzero" stroke="none" stroke-linecap="butt" stroke-linejoin="miter"><path d="M226.85051,220.2848c0.23932,1.14219 -0.56669,2.27764 -1.80024,2.5361c-1.23356,0.25846 -2.42757,-0.45794 -2.66689,-1.60013c-0.23932,-1.14219 0.56669,-2.27764 1.80025,-2.5361c1.23356,-0.25846 2.42756,0.45794 2.66688,1.60013z" stroke-width="NaN"/><path d="M230.76457,224.12795c0.22017,1.05081 -0.49023,2.08891 -1.58674,2.31865c-1.0965,0.22974 -2.16387,-0.43587 -2.38404,-1.48668c-0.22017,-1.05081 0.49024,-2.08891 1.58674,-2.31865c1.0965,-0.22974 2.16387,0.43587 2.38404,1.48668z" stroke-width="0"/><path d="M227.90466,228.6132c0.22974,1.0965 -0.4729,2.17163 -1.5694,2.40137c-1.0965,0.22974 -2.17163,-0.4729 -2.40137,-1.5694c-0.22974,-1.0965 0.4729,-2.17163 1.5694,-2.40137c1.0965,-0.22974 2.17163,0.47291 2.40137,1.5694z" stroke-width="0"/></g><g fill="#ff0000" fill-rule="nonzero" stroke="none" stroke-linecap="butt" stroke-linejoin="miter"><path d="M230.01093,212.8565c-0.94004,-0.08131 -1.63092,-0.97025 -1.5431,-1.9855c0.08781,-1.01524 0.92107,-1.77236 1.86111,-1.69105c0.94004,0.08131 1.63091,0.97025 1.5431,1.9855c-0.08781,1.01524 -0.92106,1.77236 -1.86111,1.69105z" stroke-width="NaN"/><path d="M223.31771,211.72883c-0.90245,-0.07805 -1.57074,-0.87291 -1.49269,-1.77535c0.07805,-0.90245 0.87291,-1.57074 1.77534,-1.49269c0.90245,0.07805 1.57074,0.87291 1.49269,1.77535c-0.07805,0.90245 -0.87291,1.57074 -1.77535,1.49269z" stroke-width="0"/><path d="M229.02129,217.16089c-0.97765,-0.08456 -1.70955,-0.85421 -1.63474,-1.71905c0.07481,-0.86484 0.92798,-1.49739 1.90563,-1.41283c0.97765,0.08456 1.70956,0.85421 1.63475,1.71906c-0.07481,0.86484 -0.92799,1.49738 -1.90564,1.41282z" stroke-width="0"/></g></g></g></svg>