<svg version="1.1" xmlns="http://www.w3.org/2000/svg" xmlns:xlink="http://www.w3.org/1999/xlink" width="43.97482" height="43.20871" viewBox="0,0,43.97482,43.20871"><g transform="translate(-218.01259,-158.39565)"><g data-paper-data="{&quot;isPaintingLayer&quot;:true}" fill="#fff287" fill-rule="nonzero" stroke="#eaff00" stroke-width="1" stroke-linecap="butt" stroke-linejoin="miter" stroke-miterlimit="10" stroke-dasharray="" stroke-dashoffset="0" style="mix-blend-mode: normal"><path d="M261.48741,179.24201c0,0.62779 -0.02892,1.13672 -0.06461,1.13672c-0.03569,0 -0.52635,-0.65676 -0.52635,-0.65676c0,0 0.49065,-1.61667 0.52635,-1.61667c0.03569,0 0.06461,0.50893 0.06461,1.13672z"/><path d="M240.25965,201.10434c-0.62756,-0.00111 -1.11864,-0.04567 -1.09685,-0.09956c0.02179,-0.05388 0.97793,-0.79346 0.97793,-0.79346c0,0 1.31648,0.74361 1.29471,0.79749c-0.02179,0.05388 -0.54821,0.09666 -1.17577,0.09555z"/><path d="M218.51259,180.75802c0,-0.62779 0.06659,-1.13672 0.14875,-1.13672c0.08214,0 1.21156,0.65676 1.21156,0.65676c0,0 -1.12943,1.61667 -1.21156,1.61667c-0.08214,0 -0.14875,-0.50893 -0.14875,-1.13672z" data-paper-data="{&quot;index&quot;:null}"/><path d="M239.74035,158.89566c0.62756,0.00121 1.11865,0.0498 1.09686,0.10851c-0.02179,0.05872 -0.97793,0.86485 -0.97793,0.86485c0,0 -1.31648,-0.81049 -1.29471,-0.86921c0.02179,-0.05872 0.54821,-0.10536 1.17577,-0.10416z" data-paper-data="{&quot;index&quot;:null}"/><path d="M257.34721,194.0956c-0.02888,0.03474 -0.08892,0.03246 -0.13407,-0.00511c-0.04516,-0.03757 -0.63582,-0.59023 -0.63582,-0.59023c0,0 0.69527,0.42689 0.74043,0.46443c0.04516,0.03757 0.05835,0.09616 0.02947,0.1309z"/><path d="M226.57326,197.21146c-0.066,-0.05794 -0.05845,-0.17446 0.01687,-0.26028c0.07533,-0.08581 1.17998,-1.20493 1.17998,-1.20493c0,0 -0.86562,1.32894 -0.94095,1.41476c-0.07533,0.08581 -0.18989,0.10841 -0.2559,0.05045z"/><path d="M222.96446,167.18565c0.0734,-0.08827 0.22592,-0.08246 0.34067,0.01295c0.11475,0.09543 1.61547,1.49964 1.61547,1.49964c0,0 -1.76652,-1.0846 -1.88127,-1.18001c-0.11475,-0.09543 -0.14827,-0.24432 -0.07486,-0.33259z" data-paper-data="{&quot;index&quot;:null}"/><path d="M253.7556,164.00271c0.00612,0.00538 0.00542,0.01619 -0.00156,0.02416c-0.00698,0.00796 -0.10955,0.11186 -0.10955,0.11186c0,0 0.08036,-0.12337 0.08736,-0.13133c0.00698,-0.00796 0.01763,-0.01007 0.02375,-0.00468z" data-paper-data="{&quot;index&quot;:null}"/></g></g></svg>