<svg version="1.1" xmlns="http://www.w3.org/2000/svg" xmlns:xlink="http://www.w3.org/1999/xlink" width="76.34454" height="113.99333" viewBox="0,0,76.34454,113.99333"><defs><linearGradient x1="233.10789" y1="225.63755" x2="260.34098" y2="225.63755" gradientUnits="userSpaceOnUse" id="color-1"><stop offset="0" stop-color="#bebebe"/><stop offset="1" stop-color="#737373"/></linearGradient><linearGradient x1="233.10789" y1="225.63755" x2="260.34098" y2="225.63755" gradientUnits="userSpaceOnUse" id="color-2"><stop offset="0" stop-color="#bebebe"/><stop offset="1" stop-color="#737373"/></linearGradient><linearGradient x1="233.48215" y1="225.21629" x2="257.58502" y2="225.21629" gradientUnits="userSpaceOnUse" id="color-3"><stop offset="0" stop-color="#ffd166"/><stop offset="1" stop-color="#ac880b"/></linearGradient><linearGradient x1="222.3016" y1="212.82926" x2="246.37113" y2="212.82926" gradientUnits="userSpaceOnUse" id="color-4"><stop offset="0" stop-color="#ffd166"/><stop offset="1" stop-color="#ac880b"/></linearGradient><linearGradient x1="210.61964" y1="227.28357" x2="234.08853" y2="227.28357" gradientUnits="userSpaceOnUse" id="color-5"><stop offset="0" stop-color="#ffd166"/><stop offset="1" stop-color="#ac880b"/></linearGradient><linearGradient x1="211.66028" y1="238.32899" x2="230.06102" y2="238.32899" gradientUnits="userSpaceOnUse" id="color-6"><stop offset="0" stop-color="#bebebe"/><stop offset="1" stop-color="#737373"/></linearGradient><linearGradient x1="211.66028" y1="238.32899" x2="230.06102" y2="238.32899" gradientUnits="userSpaceOnUse" id="color-7"><stop offset="0" stop-color="#bebebe"/><stop offset="1" stop-color="#737373"/></linearGradient><linearGradient x1="211.58128" y1="199.41755" x2="229.62868" y2="199.41755" gradientUnits="userSpaceOnUse" id="color-8"><stop offset="0" stop-color="#bebebe"/><stop offset="1" stop-color="#737373"/></linearGradient><linearGradient x1="215.49229" y1="202.90611" x2="247.06608" y2="202.90611" gradientUnits="userSpaceOnUse" id="color-9"><stop offset="0" stop-color="#bebebe"/><stop offset="1" stop-color="#737373"/></linearGradient><linearGradient x1="225.83308" y1="200.45557" x2="234.49205" y2="200.45557" gradientUnits="userSpaceOnUse" id="color-10"><stop offset="0" stop-color="#bebebe"/><stop offset="1" stop-color="#737373"/></linearGradient></defs><g transform="translate(-207.85012,-129.54342)"><g data-paper-data="{&quot;isPaintingLayer&quot;:true}" stroke-miterlimit="10" stroke-dasharray="" stroke-dashoffset="0" style="mix-blend-mode: normal"><path d="M235.22241,195.48698l-1.04544,15.62125" fill="none" fill-rule="nonzero" stroke="#000000" stroke-width="6" stroke-linecap="round" stroke-linejoin="miter"/><g><g><g stroke-width="1.2"><path d="M244.89404,210.15325c0,0 7.82676,10.61312 8.98737,14.65302c0.79194,2.75656 -2.54513,7.23483 -2.54513,7.23483c0,0 8.44944,-0.16443 8.99712,5.89039c0.03122,0.34518 0.12011,2.04392 -3.3535,2.75568c-3.32699,0.68172 -10.16467,0.3874 -12.66436,0.26954c-1.16098,-0.05474 -2.97362,-0.49293 -4.20478,-1.35803c-1.23957,-0.87102 -1.28823,-2.24533 -1.38306,-3.01431c-0.01259,-0.10203 3.54246,-8.96307 3.28155,-10.11383c-0.13124,-0.57882 -8.90137,-14.6702 -8.90137,-14.6702" fill="url(#color-1)" fill-rule="evenodd" stroke="url(#color-2)" stroke-linecap="round" stroke-linejoin="round"/><path d="M233.51645,216.80028c-0.56129,-6.20521 5.90306,-6.7096 9.285,-6.86049c1.4706,-0.06561 9.70792,7.08115 12.95346,13.06873c0.85043,1.56892 0.59676,5.56826 0.52374,7.47315c-0.02566,0.66932 -0.88766,-0.19114 -0.88766,-0.19114c0,0 0.9463,0.69678 1.35888,1.33264c0.42584,0.65634 0.83518,1.6955 0.83518,1.6955l-2.52947,-0.77161c0,0 -8.6793,0.13782 -11.80066,2.27539c-3.12136,2.13757 -1.00373,5.67079 -1.00373,5.67079c0,0 -6.48023,-0.29796 -7.30067,-2.74412c-0.20227,-0.60304 0.56354,-2.48146 0.56354,-2.48146c0,0 -0.71837,0.14766 -0.79463,-0.27382c-0.02474,-0.13669 3.09245,-4.71958 4.80825,-7.14382c0.98096,-1.38601 0.99009,-1.24131 0.99009,-1.24131c0,0 -6.92048,-8.91436 -7.00135,-9.80843z" fill="url(#color-3)" fill-rule="nonzero" stroke="#caa551" stroke-linecap="butt" stroke-linejoin="miter"/></g><path d="M222.36637,211.35199c-0.01198,-0.18247 1.4579,0.3555 4.78859,0.41767c4.39404,0.08203 11.12335,-0.28494 13.01559,-0.47271c4.9069,-0.48689 5.73727,-1.78287 5.76905,-1.29918c0.11756,1.78991 -2.65795,5.10544 -8.27141,5.2873c-2.46685,0.07991 -7.51245,0.6793 -10.36968,0.04913c-3.64454,-0.80382 -4.86623,-2.97891 -4.93214,-3.98223z" fill="#004fd9" fill-rule="nonzero" stroke="#caa551" stroke-width="1.2" stroke-linecap="butt" stroke-linejoin="miter"/><g fill-rule="nonzero" stroke-linecap="butt" stroke-linejoin="miter"><g fill="none" stroke="none" stroke-width="1" font-family="sans-serif" font-weight="normal" font-size="12" text-anchor="start"/><path d="M222.40147,209.08336c0,0 10.18479,2.22273 14.9787,2.71666c4.79392,0.49393 8.99096,-0.24701 8.99096,-0.24701c0,0 -0.33577,1.73632 -2.83569,3.19507c-1.93509,1.12916 -5.40483,2.14308 -9.51901,1.7349c-3.74813,-0.37186 -7.80438,-1.36808 -9.62685,-2.72092c-2.76232,-2.05054 -1.98811,-4.67868 -1.98811,-4.67868z" fill="url(#color-4)" stroke="#caa551" stroke-width="1.2"/></g><g stroke-width="1.2"><path d="M231.94671,214.62862c0,0 -3.84901,25.82344 -4.55136,25.90868c-2.01561,0.2446 -13.06129,-1.94566 -13.06129,-1.94566l7.10012,-25.96308" data-paper-data="{&quot;index&quot;:null}" fill="#ffab19" fill-rule="evenodd" stroke="#001026" stroke-linecap="round" stroke-linejoin="round"/><path d="M233.64782,214.21234c0,0 0.6419,7.08351 0.37632,9.9789c-0.1629,1.77604 -2.4974,7.82141 -2.4974,7.82141c0,0 0.96348,4.19445 0.58295,4.57548c-0.48893,0.48959 -2.01172,-2.04042 -2.01172,-2.04042c0,0 1.56761,2.90055 1.60997,3.18966c0.29547,2.01724 -1.05299,4.66627 -4.58655,4.91795c-3.87964,0.27631 -10.3115,0.5884 -13.62716,-1.00756c-3.00174,-1.44484 -3.10817,-4.72318 -2.70515,-6.06935c0.28302,-0.94535 2.28091,-1.45464 2.68544,-2.61684c0.26898,-0.77278 -2.98925,2.73968 -2.40038,1.70946c0.17121,-0.29951 2.57514,-5.01664 2.57514,-5.01664c0,0 0.35676,-4.38165 1.02949,-6.00422c2.70139,-6.51563 5.97229,-11.96272 5.97229,-11.96272" data-paper-data="{&quot;index&quot;:null}" fill="url(#color-5)" fill-rule="evenodd" stroke="#caa551" stroke-linecap="round" stroke-linejoin="round"/><path d="M230.05414,238.92732c-0.09725,1.44997 -0.89056,3.13463 -2.61242,4.00943c-1.72826,0.87802 -12.11512,0.53007 -13.72087,-0.543c-1.52493,-1.01907 -2.1461,-2.90259 -2.05119,-4.31773c0.19486,-2.90531 4.46832,-5.06999 9.54507,-4.8349c5.07671,0.23509 9.03427,2.7809 8.83939,5.68623z" fill="url(#color-6)" fill-rule="nonzero" stroke="url(#color-7)" stroke-linecap="butt" stroke-linejoin="miter"/></g></g><g fill="none" fill-rule="nonzero" stroke="none" stroke-width="1" stroke-linecap="butt" stroke-linejoin="miter" font-family="sans-serif" font-weight="normal" font-size="12" text-anchor="start"/></g><path d="M216.35198,182.53382l8.23402,-0.07574l-1.3044,0.90884" fill="none" fill-rule="nonzero" stroke="#000000" stroke-width="1" stroke-linecap="round" stroke-linejoin="miter"/><path d="M229.62868,198.58041c0,2.4641 -3.22379,4.46165 -7.20056,4.46165c-2.11857,0 -2.16121,2.15131 -4.49014,0.94144c-2.04269,-1.06118 -1.86073,-6.85425 -1.63878,-7.51763c0.69236,-2.06928 6.5576,-2.28579 8.91618,-2.28579c3.97676,0 4.4133,1.93624 4.4133,4.40033z" fill="url(#color-8)" fill-rule="nonzero" stroke="#737373" stroke-width="1" stroke-linecap="butt" stroke-linejoin="miter"/><path d="M224.13951,209.56326c0,0 3.66238,-5.90432 3.2014,-7.71528c-0.11275,-0.44294 2.20841,-1.94222 1.70981,-2.36524c-2.37766,-2.01725 -4.43141,-0.63009 -4.43141,-0.63009c0,0 0.09005,-0.29381 3.98153,-3.07689c1.07448,-0.76844 5.65015,-0.70239 5.94979,-0.937c0.38698,-0.30301 20.96558,-0.20793 20.96558,-0.20793c0,0 -4.67973,4.4782 -4.72311,7.62246c-0.00031,0.02234 -8.75581,-0.80047 -8.76064,-0.45021c-0.02895,2.09839 0.86022,7.7594 0.86022,7.7594c0,0 -5.64779,1.17819 -8.45881,1.22526c-3.09887,0.05189 -10.29437,-1.22445 -10.29437,-1.22445z" fill="url(#color-9)" fill-rule="nonzero" stroke="#737373" stroke-width="2.5" stroke-linecap="butt" stroke-linejoin="miter"/><g stroke-linejoin="miter"><g data-paper-data="{&quot;index&quot;:null}" stroke-linecap="butt"><path d="M268.40673,179.20334c-4.13875,12.67317 -19.05078,19.68947 -33.30698,15.67137c-14.25618,-4.01811 -22.45798,-17.54905 -18.31921,-30.22223c4.13875,-12.67317 19.05078,-19.68947 33.30698,-15.67137c14.25618,4.01811 22.45798,17.54905 18.31921,30.22223z" fill="none" fill-rule="nonzero" stroke="#000000" stroke-width="4.5"/><g><g fill-rule="nonzero"><path d="M232.13516,152.78986l0.00911,0.0109" data-paper-data="{&quot;index&quot;:null}" fill="#ffab19" stroke="#000000" stroke-width="5"/><g data-paper-data="{&quot;index&quot;:null}" fill="none" stroke="none" stroke-width="1" font-family="sans-serif" font-weight="normal" font-size="12" text-anchor="start"/></g><path d="M232.13516,152.78986l0.00911,0.0109" data-paper-data="{&quot;index&quot;:null}" fill="#ffab19" fill-rule="nonzero" stroke="#000000" stroke-width="5"/><path d="M241.92211,172.99694" fill="#001026" fill-rule="evenodd" stroke="#000000" stroke-width="5"/><g data-paper-data="{&quot;index&quot;:null}" fill="none" fill-rule="nonzero" stroke="none" stroke-width="1" font-family="sans-serif" font-weight="normal" font-size="12" text-anchor="start"/><g data-paper-data="{&quot;index&quot;:null}" fill="none" fill-rule="nonzero" stroke="none" stroke-width="1" font-family="sans-serif" font-weight="normal" font-size="12" text-anchor="start"/></g></g><path d="M244.55877,182.99351c0.06317,-0.23046 -18.51992,0.81933 -18.58763,1.06642c-0.52354,1.91021 -3.2985,-9.7877 0.88479,-8.7982c4.18331,0.98951 17.36895,8.31449 17.89249,6.40428z" fill="#ffffff" fill-rule="nonzero" stroke="#000000" stroke-width="3" stroke-linecap="butt"/><path d="M259.04327,156.57932l-39.47422,8.58067l-4.61507,13.1399l-5.39437,-34.79953l71.83863,-11.9703l-15.04636,27.50731z" fill="#000000" fill-rule="nonzero" stroke="#191919" stroke-width="3" stroke-linecap="round"/><path d="M232.01671,152.6566l17.25574,18.14645l-1.63439,5.96335" fill="none" fill-rule="nonzero" stroke="#000000" stroke-width="5" stroke-linecap="round"/><path d="M255.26518,178.07878l1.76277,-5.93298l16.96733,-15.23544" fill="none" fill-rule="nonzero" stroke="#000000" stroke-width="5" stroke-linecap="round"/></g><g data-paper-data="{&quot;index&quot;:null}" fill="#000000" fill-rule="nonzero" stroke="#000000" stroke-width="1.2" stroke-linecap="butt" stroke-linejoin="miter"><path d="M254.04052,211.47655c-1.0132,-1.57786 -0.16775,-4.77844 -0.54957,-7.01001c-0.41107,-2.40261 -1.95893,-3.68855 -1.2717,-5.17363c0.48004,-1.0373 2.09383,-1.48197 2.9614,-1.61007c2.10964,-0.31154 4.38588,2.74408 5.0841,6.82488c0.69823,4.0808 -0.44594,7.6415 -2.55557,7.95302c-0.95598,0.14117 -2.82904,0.32332 -3.66865,-0.98417z"/><path d="M258.09375,213.03169c-1.39119,-2.21196 -1.3424,-8.12069 -1.3424,-8.12069c0,0 -1.79264,-3.4907 -1.80545,-3.57512c-0.81748,-5.37917 2.82567,-5.97801 6.97976,-6.59143c1.97707,-0.29196 5.14465,0.00384 6.51257,1.52363c1.55139,1.72362 1.40515,4.47441 1.91778,7.47055c0.96464,5.63795 -0.71774,10.79962 -4.93703,11.42268c-1.85731,0.27426 -5.46712,0.82469 -7.32523,-2.12963z"/></g><g data-paper-data="{&quot;index&quot;:null}" fill="#000000" fill-rule="nonzero" stroke="#000000" stroke-width="1.2" stroke-linecap="butt" stroke-linejoin="miter"><path d="M242.65504,213.24851c-1.0132,-1.57786 -0.16775,-4.77844 -0.54957,-7.01001c-0.41107,-2.40261 -1.95893,-3.68855 -1.2717,-5.17363c0.48004,-1.0373 2.09383,-1.48197 2.9614,-1.61007c2.10964,-0.31154 4.38588,2.74408 5.0841,6.82488c0.69823,4.0808 -0.44594,7.6415 -2.55557,7.95302c-0.95598,0.14117 -2.82904,0.32332 -3.66865,-0.98417z"/><path d="M246.70827,214.80365c-1.39119,-2.21196 -1.3424,-8.12069 -1.3424,-8.12069c0,0 -1.79264,-3.4907 -1.80545,-3.57512c-0.81748,-5.37917 2.82567,-5.97801 6.97976,-6.59143c1.97707,-0.29196 5.14465,0.00384 6.51257,1.52363c1.55139,1.72362 1.40515,4.47441 1.91778,7.47055c0.96464,5.63795 -0.71774,10.79962 -4.93703,11.42268c-1.85731,0.27426 -5.46712,0.82469 -7.32523,-2.12963z"/></g><path d="M264.21339,201.74271c0,0 -12.7992,0.9361 -19.26816,0.9361c-6.43809,0 -16.30383,-2.80831 -16.30383,-2.80831" fill="none" fill-rule="nonzero" stroke="#000000" stroke-width="6" stroke-linecap="round" stroke-linejoin="miter"/><path d="M223.25879,203.14687l2.57429,-7.25481l2.34026,-1.63818l8.42494,2.57429z" fill="url(#color-10)" fill-rule="nonzero" stroke="#737373" stroke-width="2.5" stroke-linecap="butt" stroke-linejoin="miter"/></g></g></svg>