<svg version="1.1" xmlns="http://www.w3.org/2000/svg" xmlns:xlink="http://www.w3.org/1999/xlink" width="66.50455" height="108.51047" viewBox="0,0,66.50455,108.51047"><defs><linearGradient x1="204.84675" y1="186.12183" x2="216.38466" y2="191.89083" gradientUnits="userSpaceOnUse" id="color-1"><stop offset="0" stop-color="#bebebe"/><stop offset="1" stop-color="#737373"/></linearGradient></defs><g transform="translate(-187.20866,-135.07374)"><g data-paper-data="{&quot;isPaintingLayer&quot;:true}" stroke-miterlimit="10" stroke-dasharray="" stroke-dashoffset="0" style="mix-blend-mode: normal"><path d="M217.03507,204.28867l1.04544,-15.62125" fill="none" fill-rule="nonzero" stroke="#000000" stroke-width="6" stroke-linecap="round" stroke-linejoin="miter"/><g><g><g stroke-width="1.2"><path d="M226.16919,203.61969l16.05943,25.911c0,0 7.49393,0.13101 10.88459,7.24935c0.19331,0.40581 1.08751,2.40042 -1.63085,3.09956c-2.60367,0.66962 -8.769,0.05862 -11.02783,-0.17678c-1.04912,-0.10933 -2.85652,-0.69348 -4.35668,-1.75537c-1.51041,-1.06919 -2.21337,-2.68194 -2.66625,-3.58696c-0.18446,-0.36863 -16.85492,-29.26873 -16.85492,-29.26873" fill="#ffffff" fill-rule="evenodd" stroke="#9b9b9b" stroke-linecap="round" stroke-linejoin="round"/><path d="M219.33807,210.96826c-3.47486,-7.29514 1.97794,-7.63485 4.88496,-7.68015c1.26409,-0.0197 0.11902,-1.96108 4.08168,3.69655c0.87275,1.24603 3.93433,6.38159 7.15637,10.72892c2.20632,2.97687 4.85029,5.57852 5.47782,6.33107c1.48267,1.77811 2.06652,3.42877 2.06652,3.42877l-1.65002,-1.15218c0,0 1.10997,0.80451 1.63622,1.28981c1.63943,1.51178 2.88561,2.65247 2.88561,2.65247c0,0 -7.58025,-0.17613 -9.30349,2.20793c-1.72324,2.38406 1.8394,6.60786 1.8394,6.60786c0,0 -5.85217,-0.60138 -7.74988,-3.5005c-0.46784,-0.71471 -0.69538,-2.88667 -0.69538,-2.88667c0,0 -0.56196,0.14511 -0.8316,-0.35188c-0.13745,-0.25333 -1.18953,-4.04976 -3.12622,-8.29134c-2.54952,-5.58374 -6.17136,-12.02953 -6.67203,-13.08065z" fill="#9b9b9b" fill-rule="nonzero" stroke="#767676" stroke-linecap="butt" stroke-linejoin="miter"/></g><path d="M207.40236,206.15594c-0.11739,-0.21355 1.44566,0.36893 4.30766,0.33241c3.77572,-0.04816 9.26871,-0.69947 10.76362,-0.98179c3.87652,-0.73205 3.81943,-2.27886 4.13059,-1.71278c1.15148,2.09482 0.74513,6.07346 -3.91001,6.47107c-2.04572,0.17473 -5.97378,1.04326 -8.76792,0.39823c-3.56404,-0.82277 -5.8785,-3.33293 -6.52396,-4.50716z" fill="#004fd9" fill-rule="nonzero" stroke="#001026" stroke-width="1.2" stroke-linecap="butt" stroke-linejoin="miter"/><g fill-rule="nonzero" stroke-linecap="butt" stroke-linejoin="miter"><g fill="none" stroke="none" stroke-width="1" font-family="sans-serif" font-weight="normal" font-size="12" text-anchor="start"/><path d="M206.21602,204.81046c0,0 9.60659,0.97481 13.70764,0.79724c4.10101,-0.17756 6.79756,-1.68512 6.79756,-1.68512c0,0 1.06185,2.05304 0.23075,4.12334c-0.64331,1.60253 -2.5668,3.31134 -6.07438,3.48183c-3.19548,0.15533 -7.106,-0.36078 -9.5526,-1.63579c-3.70837,-1.93254 -5.10896,-5.08152 -5.10896,-5.08152z" fill="#9b9b9b" stroke="#767676" stroke-width="1.2"/></g><g stroke-width="1.2"><path d="M218.70655,209.63462c0,0 11.68263,30.4133 11.09565,30.53791c-1.68446,0.35759 -12.98994,-1.82258 -12.98994,-1.82258l-8.81589,-30.6912" data-paper-data="{&quot;index&quot;:null}" fill="#ffab19" fill-rule="evenodd" stroke="#001026" stroke-linecap="round" stroke-linejoin="round"/><path d="M220.0048,209.08673c0,0 2.39315,6.43427 3.85357,9.83845c1.40079,3.26511 4.73754,10.18688 4.73754,10.18688c0,0 3.49802,4.98795 3.16167,6.26442c-0.15577,0.5912 -3.02358,-2.32175 -3.02358,-2.32175c0,0 3.12619,3.34586 3.33448,3.68337c1.45332,2.35485 1.78681,5.5082 -1.27029,5.92739c-3.3565,0.46023 -9.00686,1.05205 -12.95198,-0.70278c-3.57158,-1.58865 -5.59444,-5.4288 -6.01989,-7.02135c-0.29878,-1.11836 1.21406,-1.78569 0.89807,-3.16257c-0.21011,-0.91554 -1.10144,3.31727 -1.17269,2.08866c-0.0815,-1.40554 -0.67506,-7.67809 -0.67506,-7.67809l-4.14362,-19.60661" data-paper-data="{&quot;index&quot;:null}" fill="#9b9b9b" fill-rule="evenodd" stroke="#767676" stroke-linecap="round" stroke-linejoin="round"/><path d="M231.26769,238.1914c0.76379,1.70352 1.03415,3.70663 -0.01357,4.79281c-1.05163,1.09019 -10.67703,1.047 -12.76398,-0.1548c-1.98191,-1.1413 -3.65207,-3.32792 -4.39753,-4.99053c-1.53041,-3.41332 1.0737,-6.1015 5.8165,-6.00415c4.74275,0.09734 9.8282,2.94333 11.35858,6.35669z" fill="#ffffff" fill-rule="nonzero" stroke="#9b9b9b" stroke-linecap="butt" stroke-linejoin="miter"/></g></g><g fill="none" fill-rule="nonzero" stroke="none" stroke-width="1" stroke-linecap="butt" stroke-linejoin="miter" font-family="sans-serif" font-weight="normal" font-size="12" text-anchor="start"/></g><path d="M199.48823,205.30077c1.32333,-1.57529 18.74854,-15.84303 18.74854,-15.84303l17.85596,17.17159" fill="none" fill-rule="nonzero" stroke="#000000" stroke-width="6" stroke-linecap="round" stroke-linejoin="miter"/><path d="M206.99762,202.7437c0,0 3.66238,-5.90432 3.2014,-7.71528c-0.11275,-0.44294 -3.17419,6.95078 -3.67279,6.52776c-2.37766,-2.01725 -8.17583,-3.67243 -8.17583,-3.67243c0,0 9.21707,-6.14447 13.10855,-8.92755c1.07448,-0.76844 5.65015,-0.70239 5.94979,-0.937c0.38698,-0.30301 16.31217,9.30122 16.31217,9.30122c0,0 -4.88205,3.26427 -4.92543,6.40853c-0.00031,0.02234 -3.90008,-9.09568 -3.90491,-8.74542c-0.02895,2.09839 0.86022,7.7594 0.86022,7.7594c0,0 -5.64779,1.17819 -8.45881,1.22526c-3.09887,0.05189 -10.29437,-1.22445 -10.29437,-1.22445z" fill="#ffffff" fill-rule="nonzero" stroke="#9b9b9b" stroke-width="2.5" stroke-linecap="butt" stroke-linejoin="miter"/><path d="M226.74919,197.55202c0,0 -14.18032,-6.51003 -16.13896,-8.69058c-0.91021,-1.01334 3.05825,-0.81013 3.05825,-0.81013c0,0 -1.76172,0.37018 1.04251,0.97779c1.67611,0.36318 5.69107,1.4759 7.13046,1.51843c4.60076,0.13595 6.09414,1.15148 6.09414,1.15148z" fill="#767676" fill-rule="nonzero" stroke="#191919" stroke-width="1.5" stroke-linecap="butt" stroke-linejoin="miter"/><path d="M206.71535,149.24035c0,4.32217 -4.03093,7.82598 -9.00334,7.82598c-4.97241,0 -9.00334,-3.50381 -9.00334,-7.82598c0,-4.32217 4.03093,-7.82598 9.00334,-7.82598c4.97241,0 9.00334,3.50381 9.00334,7.82598z" fill="#000000" fill-rule="nonzero" stroke="#191919" stroke-width="3" stroke-linecap="butt" stroke-linejoin="miter"/><g stroke-linejoin="miter"><g data-paper-data="{&quot;index&quot;:null}" stroke-linecap="butt"><path d="M251.26483,172.38378c-4.13875,12.67317 -19.05078,19.68947 -33.30698,15.67137c-14.25618,-4.01811 -22.45798,-17.54905 -18.31921,-30.22223c4.13875,-12.67317 19.05078,-19.68947 33.30698,-15.67137c14.25618,4.01811 22.45798,17.54905 18.31921,30.22223z" fill="none" fill-rule="nonzero" stroke="#000000" stroke-width="4.5"/><g><g fill-rule="nonzero"><path d="M214.99327,145.9703l0.00911,0.0109" data-paper-data="{&quot;index&quot;:null}" fill="#ffab19" stroke="#000000" stroke-width="5"/><g data-paper-data="{&quot;index&quot;:null}" fill="none" stroke="none" stroke-width="1" font-family="sans-serif" font-weight="normal" font-size="12" text-anchor="start"/></g><path d="M214.99327,145.9703l0.00911,0.0109" data-paper-data="{&quot;index&quot;:null}" fill="#ffab19" fill-rule="nonzero" stroke="#000000" stroke-width="5"/><path d="M224.78022,166.17738" fill="#001026" fill-rule="evenodd" stroke="#000000" stroke-width="5"/><g data-paper-data="{&quot;index&quot;:null}" fill="none" fill-rule="nonzero" stroke="none" stroke-width="1" font-family="sans-serif" font-weight="normal" font-size="12" text-anchor="start"/><g data-paper-data="{&quot;index&quot;:null}" fill="none" fill-rule="nonzero" stroke="none" stroke-width="1" font-family="sans-serif" font-weight="normal" font-size="12" text-anchor="start"/></g></g><path d="M241.90138,149.75976l-39.47422,8.58067l-4.61507,13.1399c0,0 -4.46333,-19.61971 3.69572,-24.81109c3.11158,-1.97982 19.01599,-13.37672 29.32881,-9.17128c14.52562,5.92337 18.37338,14.71985 18.37338,14.71985z" fill="#000000" fill-rule="nonzero" stroke="#191919" stroke-width="3" stroke-linecap="round"/></g><g fill-rule="nonzero" stroke-linejoin="miter"><path d="M228.43243,164.53536c0,0 1.33851,3.51457 -0.37243,7.53096c-0.17089,0.40117 -2.03567,2.77611 -3.42922,2.73439c-2.06518,-0.06183 -3.86753,-2.72895 -3.85264,-3.06838c0.05653,-1.28821 0.46781,-2.62786 0.07637,-5.2636c-0.28353,-1.9092 7.57792,-1.93337 7.57792,-1.93337z" data-paper-data="{&quot;index&quot;:null}" fill="#000000" stroke="none" stroke-width="0" stroke-linecap="butt"/><path d="M219.25399,164.75677l8.16667,-0.16667" fill="none" stroke="#000000" stroke-width="2.5" stroke-linecap="round"/></g><g fill-rule="nonzero" stroke-linejoin="miter"><path d="M245.57177,164.07266c0,0 1.33851,3.51457 -0.37243,7.53096c-0.17089,0.40117 -2.03567,2.77611 -3.42922,2.73439c-2.06518,-0.06183 -3.86753,-2.72895 -3.85264,-3.06838c0.05653,-1.28821 0.46781,-2.62786 0.07637,-5.2636c-0.28353,-1.9092 7.57792,-1.93337 7.57792,-1.93337z" data-paper-data="{&quot;index&quot;:null}" fill="#000000" stroke="none" stroke-width="0" stroke-linecap="butt"/><path d="M244.56,164.1274l-8.16667,0.16667" fill="none" stroke="#000000" stroke-width="2.5" stroke-linecap="round"/></g><path d="M231.11236,180.22706c0,2.72144 -14.93017,4.49549 -18.77772,4.49549c-3.84755,0 -6.96661,-2.20616 -6.96661,-4.9276c0,-0.14441 25.74432,0.38922 25.74432,0.43211z" fill="#ff0000" fill-rule="nonzero" stroke="#000000" stroke-width="1.5" stroke-linecap="butt" stroke-linejoin="miter"/><g fill-rule="nonzero" stroke-linecap="butt" stroke-linejoin="miter"><g data-paper-data="{&quot;index&quot;:null}" stroke="none" stroke-width="1"><path d="M204.22449,192.0218c-0.14838,-0.16863 -0.11749,-0.31587 -0.05059,-0.47984c0.12654,-0.24858 0.30164,-0.46274 0.44444,-0.69979c-0.0188,-0.07675 -0.03757,-0.1535 -0.06629,-0.21613c-0.54733,-1.36061 -0.46235,-2.65347 -0.14582,-3.93019c0.06801,-0.26892 0.11984,-0.54937 0.27876,-0.77495c0.02982,-0.04229 0.05334,-0.11019 0.04079,-0.16138c-0.06892,-0.28143 0.06021,-0.46476 0.18309,-0.67365c0.10298,-0.18069 0.23839,-0.33843 0.35759,-0.50762c0.06953,-0.0987 0.17146,-0.17444 0.31833,-0.17607c0.14684,-0.00159 0.27492,-0.07995 0.39301,-0.14422c0.62777,-0.44293 1.33911,-0.76321 2.11784,-0.97229c0.44164,-0.10975 0.89212,-0.1287 1.35878,-0.13612c1.37393,-0.01969 2.69498,0.34598 3.96423,0.99205c0.56799,0.29697 1.10252,0.6759 1.59731,1.11122c0.37512,0.32937 0.64834,0.73451 0.89544,1.14224c0.7862,1.29738 1.06596,2.65853 0.96367,4.04486c-0.01577,0.26369 -0.09994,0.52112 -0.18415,0.77858c-0.05072,0.17545 -0.07532,0.34831 0.02702,0.54775c0.09608,0.17385 0.0715,0.34668 0.00457,0.51064c-0.12654,0.24858 -0.28548,0.47418 -0.44444,0.69979c-0.04968,0.07051 -0.12181,0.10397 -0.19396,0.13738c-0.28483,0.09406 -0.48244,0.27113 -0.65756,0.48528c-0.35393,0.46796 -0.84997,0.79285 -1.32982,1.12922c-0.18402,0.12328 -0.38416,0.23508 -0.60681,0.30983c-0.71393,0.255 -1.42423,0.47033 -2.22068,0.4977c-0.14899,0.21149 -0.32414,0.42563 -0.48304,0.65126c-0.05961,0.08461 -0.12914,0.18331 -0.26605,0.17079c-0.1207,-0.00102 -0.16415,0.09508 -0.22371,0.17968c-0.4135,0.55255 -0.81085,1.11657 -1.22436,1.66912c-0.90029,1.24347 -1.81043,2.50108 -2.74308,3.72159c-0.9128,1.19231 -1.77694,2.4191 -2.65735,3.63437c-0.13906,0.19742 -0.3006,0.35774 -0.43964,0.55515c-0.67546,0.95886 -1.35093,1.9177 -2.04258,2.86508c-0.11919,0.1692 -0.20602,0.36137 -0.41246,0.44756c-0.07214,0.03346 -0.10559,0.1154 -0.15528,0.18591c-0.49663,0.70507 -1.01945,1.41272 -1.51611,2.11776c-0.01987,0.02819 -0.04968,0.07048 -0.06953,0.0987c-0.14272,0.23712 -0.33559,0.26952 -0.63189,0.20747c-0.98976,-0.21537 -1.84303,-0.69342 -2.55988,-1.43414c-0.18077,-0.19159 -0.34166,-0.41135 -0.46651,-0.64786c-0.09609,-0.17385 -0.08144,-0.33258 0.00168,-0.48506c0.24942,-0.45747 0.48261,-0.92643 0.74196,-1.398c0.18615,-0.3332 0.41461,-0.65752 0.55214,-1.02514c0.29862,-0.80315 0.80155,-1.48261 1.14872,-2.2513c0.20338,-0.42665 0.36448,-0.8622 0.58407,-1.27738c0.23946,-0.44336 0.43662,-0.89561 0.64991,-1.33636c0.39322,-0.79952 0.82877,-1.59018 1.20576,-2.40118c0.47115,-1.08251 1.0071,-2.1192 1.54304,-3.15579c0.17989,-0.35879 0.3597,-0.71752 0.5396,-1.0763c0.29279,-0.55359 0.59554,-1.12121 0.88834,-1.67474c0.16626,-0.305 0.29022,-0.61884 0.45645,-0.92382c0.16003,-0.33061 0.34872,-0.59846 0.53488,-0.93167zM204.76848,192.11145c0.13477,0.2224 0.2894,0.41661 0.49001,0.58c0.33176,0.42546 0.74922,0.76371 1.1667,1.10194c0.52094,0.43273 1.09777,0.82052 1.65845,1.19684c0.64165,0.43373 1.33403,0.69202 2.05257,0.9477c0.08466,0.01772 0.16931,0.03546 0.29628,0.06205c0.07948,-0.11279 0.1589,-0.22563 0.23837,-0.33842c0.01987,-0.02819 0.02354,-0.06788 0.03713,-0.12166c-0.11337,-0.08039 -0.23669,-0.14667 -0.36995,-0.19885c-0.22418,-0.09548 -0.41226,-0.20772 -0.63642,-0.30321c-0.54552,-0.25989 -1.01791,-0.65814 -1.53363,-0.96032c-0.26911,-0.16961 -0.55803,-0.31106 -0.80727,-0.50887c-0.53715,-0.4442 -1.12391,-0.81791 -1.62127,-1.3185c-0.12592,-0.13157 -0.26803,-0.27455 -0.39395,-0.40615c-0.00518,-0.13055 -0.15466,-0.19419 -0.21577,-0.27984c-0.06738,-0.1112 -0.1348,-0.22242 -0.32288,-0.33459c-0.01577,0.26369 -0.19348,0.41256 -0.24789,0.62769c0.07106,0.07153 0.07626,0.20205 0.20952,0.25423zM205.07859,193.05013c-0.28314,-0.39103 -0.37039,-0.47399 -0.60084,-0.59509c-0.10298,0.18069 -0.19606,0.3473 -0.29908,0.52799c-0.06953,0.0987 -0.05445,0.21513 0.01298,0.32636c0.04495,0.07417 0.12591,0.13154 0.17084,0.20568c0.17343,0.27098 0.41902,0.50847 0.68808,0.67809c0.06375,0.15087 0.19327,0.24275 0.32288,0.33463c0.71895,0.53082 1.41183,1.06427 2.18044,1.52462c0.34383,0.20147 0.69759,0.38884 1.04506,0.55059c0.28273,0.11585 0.5816,0.24317 0.89518,0.21175c0.12914,-0.18333 0.25822,-0.36663 0.38739,-0.54995c-0.14943,-0.06367 -0.28271,-0.11586 -0.39972,-0.15655c-0.53299,-0.20874 -1.04613,-0.44563 -1.51954,-0.73897c-0.6129,-0.37109 -1.17616,-0.81269 -1.74936,-1.24017c-0.27538,-0.19522 -0.47496,-0.46353 -0.76023,-0.64465c-0.07626,-0.20205 -0.22829,-0.33099 -0.37405,-0.43433zM196.03152,210.16822c0.16716,0.24536 0.38398,0.42024 0.62067,0.56688c0.00626,0.02556 0.02874,0.06266 0.04496,0.07415c0.39867,0.2615 0.81722,0.49479 1.26298,0.6205c0.26027,0.0788 0.51055,0.17166 0.78176,0.13135c0.55627,-0.78966 1.11248,-1.57929 1.6986,-2.41124c-0.49799,-0.1205 -0.93647,-0.32556 -1.36489,-0.54476c-0.37991,-0.18474 -0.67405,-0.45671 -1.03406,-0.66965c-0.12958,-0.09185 -0.23306,-0.18632 -0.36264,-0.27819c-0.14468,-0.20829 -0.32547,-0.39987 -0.55848,-0.58622c-0.298,0.42304 -0.44654,0.90972 -0.69227,1.32752c-0.23947,0.44337 -0.46275,0.89825 -0.69226,1.32751c0.07625,0.20204 0.18595,0.32213 0.29569,0.44218zM197.62313,207.04691c0.06377,0.15086 0.18339,0.25687 0.31295,0.34869c0.08984,0.14829 0.24557,0.23755 0.3814,0.35498c0.44362,0.33562 0.9369,0.60076 1.43381,0.82617c0.29888,0.12731 0.61767,0.22642 0.94374,0.24616c0.03975,-0.0564 0.09566,-0.10132 0.13537,-0.15775c0.48677,-0.69095 0.96353,-1.36774 1.46644,-2.04722c0.53271,-0.72176 1.0555,-1.42943 1.58823,-2.15117c0.77111,-1.06021 1.54853,-2.09475 2.31962,-3.15496c0.87672,-1.1756 1.6949,-2.37156 2.60403,-3.52418c0.15527,-0.18591 0.28803,-0.40894 0.43706,-0.62044c-0.21789,-0.06989 -0.43946,-0.10011 -0.6375,-0.19823c-0.65632,-0.27499 -1.26923,-0.64609 -1.86229,-1.04536c-0.5183,-0.36744 -1.02671,-0.74901 -1.53511,-1.13059c-0.19072,-0.1775 -0.37513,-0.32937 -0.56585,-0.50686c-0.06996,-0.17645 -0.23563,-0.25161 -0.34535,-0.37168c-0.12592,-0.13157 -0.21575,-0.27981 -0.38768,-0.38054c-0.13173,0.11805 -0.17881,0.25383 -0.23212,0.364c-0.40789,0.95829 -0.95529,1.83877 -1.41176,2.76258c-0.29647,0.59327 -0.59297,1.1865 -0.87319,1.79124c-0.39322,0.79952 -0.76029,1.59641 -1.14355,2.38183c-0.31004,0.64704 -0.62014,1.29407 -0.94643,1.9296c-0.3399,0.68933 -0.68604,1.35306 -1.0421,2.03094c-0.31633,0.62144 -0.64259,1.25701 -0.95267,1.90403c0.13583,0.11742 0.17344,0.27094 0.31294,0.34871zM216.34357,191.98709c-0.44572,-0.12572 -0.82565,-0.31048 -1.21545,-0.48109c-0.40603,-0.18212 -0.80578,-0.33863 -1.20183,-0.53487c-0.3799,-0.18476 -0.75614,-0.4092 -1.12606,-0.60806c-0.38617,-0.21035 -0.77231,-0.42065 -1.16471,-0.65653c-0.36,-0.21295 -0.72629,-0.45149 -1.08632,-0.66444c-0.36627,-0.23853 -0.69284,-0.53346 -1.09886,-0.71558c-0.28053,-0.32571 -0.67663,-0.52196 -1.00687,-0.7772c-0.33645,-0.28082 -0.70905,-0.54494 -1.04553,-0.82577c-0.32026,-0.26934 -0.64681,-0.56429 -0.95717,-0.84772c-0.32655,-0.29495 -0.59715,-0.63482 -0.95349,-0.88738c-0.2708,0.31546 -0.34032,0.41415 -0.38954,0.75983c0.14468,0.20829 0.28941,0.41663 0.48637,0.61965c0.24556,0.23752 0.4911,0.47503 0.74295,0.73815c0.48118,0.48914 0.95614,0.95266 1.52305,1.35458c0.38875,0.2756 0.78745,0.53708 1.13645,0.86911c0.07106,0.07153 0.16824,0.14041 0.28527,0.18109c0.22418,0.09546 0.42481,0.2589 0.61919,0.39665c0.7127,0.50527 1.485,0.92591 2.25106,1.32095c1.00277,0.54174 2.04263,0.96178 3.11231,1.33949c0.20797,0.08399 0.41594,0.16802 0.63489,0.13294c0.18141,-0.18854 0.31423,-0.41156 0.45435,-0.71388zM210.98174,185.67001c-0.2587,0.09146 -0.45265,0.22883 -0.66276,0.35474c-0.19026,0.09767 -0.32566,0.25542 -0.38007,0.47057c-0.13128,0.39321 -0.32106,0.7661 -0.57569,1.09302c-0.01987,0.02819 -0.0335,0.08196 -0.04342,0.09607c0.05119,0.09969 0.11599,0.14561 0.22679,0.16076c0.02612,-0.00259 0.06219,-0.01933 0.07214,-0.03345c0.33666,-0.37449 0.70571,-0.72596 1.10716,-1.05452c0.05594,-0.04491 0.13172,-0.11804 0.13906,-0.19743c0.09416,-0.27155 0.18828,-0.54308 0.11677,-0.8898zM208.50996,187.11021c0.31677,-0.34627 0.65604,-0.65546 1.00157,-0.93907c0.11182,-0.08985 0.1652,-0.20002 0.19605,-0.34729c0.03819,-0.2266 0.02415,-0.44802 0.02004,-0.68352c0.00733,-0.07937 0.02462,-0.17281 -0.09245,-0.21353c-0.24987,0.18231 -0.50598,0.33905 -0.72344,0.54427c-0.14182,0.78746 -0.14183,0.78743 -0.60241,1.47574c0.01878,0.07676 0.07367,0.13678 0.20065,0.16337zM211.51119,191.33098c-0.2436,0.20788 -0.47101,0.42728 -0.69839,0.64663c-0.05595,0.04492 -0.11185,0.08984 -0.13538,0.15772c-0.04555,0.30596 -0.10727,0.60052 -0.04205,0.92164c0.31357,-0.03141 0.51116,-0.20848 0.74743,-0.337c0.1181,-0.06423 0.16151,-0.16036 0.18245,-0.29351c0.02936,-0.31746 0.09111,-0.61201 0.17899,-0.90907c0.00994,-0.0141 -0.01249,-0.05116 -0.02504,-0.10231c-0.05852,-0.02035 -0.1333,-0.0522 -0.20798,-0.084zM214.251,187.92422c-0.36951,0.07634 -0.6157,0.21895 -0.87807,0.35009c-0.09201,0.06163 -0.12544,0.14362 -0.15892,0.22561c-0.14119,0.40733 -0.33105,0.78019 -0.59557,1.12124c-0.02981,0.04229 -0.04342,0.09607 -0.07319,0.13838c0.16824,0.14042 0.21057,0.14929 0.29002,0.03648c0.25828,-0.36666 0.5876,-0.66173 0.97803,-0.87122c0.23627,-0.12851 0.33927,-0.30921 0.38741,-0.54994c0.00475,-0.14467 0.01578,-0.26371 0.05031,-0.45063zM210.41135,188.47931c0.081,0.05739 0.13692,0.01244 0.17667,-0.04394c0.27814,-0.39479 0.67588,-0.68369 1.0737,-0.97254c0.3157,-0.24132 0.47939,-0.61157 0.45496,-1.09403c-0.20277,0.04652 -0.31832,0.17606 -0.4887,0.24555c-0.35071,0.15308 -0.53942,0.421 -0.67333,0.74895c-0.15373,0.35615 -0.2913,0.7238 -0.5422,1.01105c-0.01357,0.05379 -0.00736,0.07939 -0.00108,0.10497zM213.10734,187.13459c-0.21639,0.1003 -0.37686,0.15568 -0.5211,0.22256c-0.2425,0.10296 -0.37791,0.26067 -0.45219,0.50399c-0.09155,0.33681 -0.25781,0.6418 -0.44025,0.93529c-0.05335,0.11021 -0.13281,0.22299 -0.20233,0.32169c0.07106,0.07153 0.11703,0.04071 0.1369,0.0125c0.36904,-0.35153 0.75428,-0.69153 1.19443,-0.97151c0.06585,-0.05902 0.12179,-0.10395 0.15525,-0.18592c0.05808,-0.25483 0.13236,-0.49816 0.12931,-0.83859zM212.63096,191.9134c-0.12394,0.31386 -0.35134,0.5332 -0.56255,0.76405c-0.04966,0.0705 -0.138,0.09246 -0.15526,0.18592c-0.03087,0.14729 0.00458,0.51067 0.09334,0.76391c0.21275,-0.06062 0.3643,-0.20687 0.5384,-0.31604c0.138,-0.09247 0.20126,-0.21674 0.19974,-0.38696c0.0095,-0.28925 0.05137,-0.55558 0.16172,-0.81565c0.00996,-0.0141 -0.00262,-0.06527 -0.00887,-0.09083c-0.05487,-0.06004 -0.11965,-0.10598 -0.26651,-0.10435zM206.43585,188.91692c-0.04186,0.2663 -0.22696,0.49455 -0.21031,0.78121c0.12332,0.06628 0.22159,0.03024 0.32611,0.01976c0.19286,-0.03245 0.38201,-0.02516 0.57227,-0.12286c0.08164,-0.32271 0.31267,-0.58178 0.4204,-0.90709c-0.05119,-0.09969 -0.13216,-0.15714 -0.23303,-0.18633c-0.26605,0.17083 -0.55457,0.30459 -0.87547,0.41536zM209.49428,190.09146c-0.13173,0.11805 -0.26347,0.23607 -0.41397,0.27736c-0.36322,0.1019 -0.51589,0.35314 -0.55516,0.6847c-0.01102,0.11903 -0.07063,0.20365 -0.03305,0.35717c0.26134,-0.0262 0.48398,-0.10091 0.7066,-0.17567c0.0622,-0.01933 0.10191,-0.07576 0.13538,-0.15772c0.08419,-0.25747 0.17466,-0.48931 0.25889,-0.74673c0.02982,-0.04229 0.03713,-0.12169 -0.09873,-0.23914zM208.47385,189.36806c-0.28332,0.2643 -0.57918,0.47737 -0.94868,0.55373c-0.07837,0.00786 -0.10191,0.07575 -0.14163,0.13215c-0.0732,0.13839 -0.13022,0.28829 -0.12241,0.48405c0.36586,-0.03665 0.65071,-0.13074 0.94546,-0.2389c0.09825,-0.03605 0.16413,-0.09504 0.20753,-0.19117c0.07692,-0.17804 0.16994,-0.34469 0.2468,-0.52276c0.00996,-0.0141 -0.0026,-0.06529 -0.00886,-0.09085c-0.04858,-0.03446 -0.0972,-0.06891 -0.17817,-0.12628zM214.99533,189.48791c0.03453,-0.18693 0.07905,-0.38798 0.11359,-0.57494c-0.00626,-0.02556 -0.01253,-0.05119 -0.02505,-0.10232c-0.26758,0.00057 -0.48398,0.10091 -0.65804,0.21006c-0.19454,0.51753 -0.36921,1.00681 -0.70696,1.48625c0.3857,-0.06485 0.43122,-0.37086 0.60895,-0.51971c0.20753,-0.19117 0.43748,-0.34526 0.66746,-0.49937zM210.99332,185.1708c-0.04278,-0.28403 -0.05319,-0.54514 -0.2104,-0.80457c-0.13432,0.05276 -0.26498,0.06587 -0.37316,0.11605c-0.10817,0.05018 -0.23256,0.08883 -0.30208,0.18756c-0.04078,0.16134 0.01299,0.32634 0.02444,0.48246c0.0115,0.15611 -0.01942,0.30339 0.06048,0.46574c0.27232,-0.14526 0.5185,-0.28783 0.80076,-0.44717zM207.45348,186.40353c0.36277,-0.37709 0.65969,-0.6952 0.95661,-1.01323c0.01987,-0.02819 0.0659,-0.05901 0.05334,-0.11019c-0.00413,-0.23549 0.04401,-0.47622 -0.09701,-0.72418c-0.20386,0.15146 -0.39779,0.28887 -0.57552,0.43775c-0.0179,0.47361 -0.15283,0.90648 -0.33744,1.40989zM209.55122,192.18268c0.21533,0.00464 0.34703,-0.11341 0.4913,-0.18026c0.1704,-0.06948 0.29217,-0.17342 0.33664,-0.37447c0.06801,-0.26891 0.13602,-0.53785 0.32736,-0.74054c-0.09354,-0.1086 -0.16824,-0.14042 -0.22784,-0.05581c-0.16517,0.20002 -0.34034,0.41415 -0.56664,0.52857c-0.31832,0.17606 -0.33778,0.47947 -0.36081,0.82253zM208.16625,190.73566c-0.37944,0.09044 -0.68674,0.14745 -0.97784,0.21591c-0.06953,0.0987 -0.06068,0.18957 -0.068,0.26891c0.00886,0.09085 -0.01834,0.19839 0.07516,0.30698c0.25768,0.01351 0.51893,-0.01267 0.77399,-0.0644c0.08053,-0.21774 0.13494,-0.4329 0.1967,-0.7274zM210.22248,193.22939c0.00324,-0.31484 0.00275,-0.59004 0.01226,-0.87928c-0.24252,0.10294 -0.47512,0.19178 -0.70769,0.28059c-0.01577,0.26369 -0.05398,0.49032 0.05103,0.75498c0.23516,-0.02355 0.43169,-0.09568 0.6444,-0.1563zM212.08872,185.27074c-0.25396,-0.0532 -0.4317,0.09568 -0.62822,0.16776c-0.0622,0.01933 -0.09567,0.10131 -0.09306,0.1666c-0.00216,0.20991 -0.01058,0.39423 -0.00282,0.59003c-0.00994,0.0141 0.02248,0.03707 0.05487,0.06005c0.25247,-0.117 0.49859,-0.25968 0.75107,-0.37668c0.01835,-0.1984 -0.03177,-0.40307 -0.08191,-0.60775zM214.25909,187.46482c0.04446,-0.20104 0.07902,-0.38797 -0.0296,-0.613c-0.21899,0.03507 -0.47037,0.04713 -0.67057,0.15892c-0.02095,0.13315 -0.07427,0.24334 -0.06908,0.37387c-0.01103,0.11902 -0.1067,0.22037 0.0093,0.36602c0.25871,-0.09144 0.5174,-0.1829 0.75997,-0.28582zM210.7256,193.48036c-0.0246,0.17283 0.07152,0.34669 0.15768,0.53463c0.2488,-0.07731 0.50015,-0.08945 0.70402,-0.24089c-0.05012,-0.20469 -0.02185,-0.41718 -0.12055,-0.65631c-0.25247,0.117 -0.48872,0.24552 -0.74116,0.36256zM213.79412,192.39976c-0.19499,0.24233 -0.33511,0.54472 -0.56254,0.76407c-0.18139,0.18855 -0.14743,0.38172 -0.03255,0.63232c0.22262,-0.07473 0.3643,-0.20687 0.53209,-0.34164c-0.05166,-0.37487 0.05608,-0.70024 0.06298,-1.05476zM206.68549,185.56309c0.07472,0.03184 0.1045,-0.01047 0.13432,-0.05276c0.14533,-0.17182 0.2844,-0.36924 0.44593,-0.52959c0.25351,-0.22199 0.19086,-0.47782 0.08955,-0.78222c-0.10195,0.07577 -0.18397,0.12329 -0.24983,0.1823c-0.16777,0.13479 -0.29325,0.27837 -0.25675,0.53685c0.01148,0.15611 -0.04557,0.306 -0.0926,0.4418c-0.05595,0.04492 -0.13798,0.09246 -0.07062,0.20364zM205.45237,188.72716c0.1207,0.00102 0.20906,-0.02094 0.28744,-0.02879c0.24142,0.00203 0.37946,-0.09044 0.46624,-0.28262c0.06696,-0.16395 0.19243,-0.3076 0.27554,-0.46009c0.02983,-0.0423 0.0758,-0.07312 -0.02766,-0.16762c-0.22009,0.13997 -0.47252,0.25705 -0.74743,0.337c-0.0622,0.01933 -0.11182,0.08982 -0.15158,0.14622c-0.04706,0.13574 -0.08423,0.25746 -0.10254,0.45587zM209.09962,192.30651c0.03455,-0.18692 0.09522,-0.37648 0.07119,-0.5838c-0.27124,0.0403 -0.5388,0.04088 -0.78133,0.14379c-0.00214,0.20991 -0.05289,0.38535 0.06568,0.59629c0.219,-0.03505 0.44426,-0.04449 0.64441,-0.15631zM212.46972,186.93628c0.27122,-0.04031 0.48762,-0.14062 0.67158,-0.2639c0.00216,-0.2099 0.01054,-0.39421 -0.04584,-0.62449c-0.1892,-0.00726 -0.34965,0.04815 -0.50383,0.12912c-0.03194,0.2522 -0.08008,0.49294 -0.12198,0.75924zM207.20112,191.93316c0.02766,0.16764 0.02658,0.27255 0.06786,0.38636c0.0188,0.07675 0.0475,0.1394 0.07627,0.20206c0.21163,0.04433 0.42695,0.04896 0.62348,-0.02313c0.01835,-0.1984 0.03666,-0.39683 -0.05579,-0.61038c-0.23516,0.02355 -0.45049,0.01893 -0.71178,0.0451zM205.80449,187.15851c-0.29738,0.04293 -0.5064,0.06384 -0.75152,0.10149c-0.05594,0.04491 -0.10927,0.15507 -0.12028,0.27415c-0.0272,0.10755 -0.12912,0.18331 -0.08162,0.32272c0.17558,0.06104 0.32242,0.05943 0.47296,0.01816c0.14273,-0.23711 0.29177,-0.4486 0.48049,-0.7165zM211.17239,184.26169c0.03135,0.12794 0.06266,0.25588 0.09394,0.38378c0.03135,0.12795 0.07261,0.24174 0.10391,0.36965c0.22263,-0.0747 0.41551,-0.10714 0.55716,-0.23927c0.01101,-0.11903 -0.06631,-0.21614 -0.11747,-0.31586c-0.05119,-0.09969 -0.07261,-0.24174 -0.19589,-0.30801c-0.16675,0.02983 -0.31356,0.03141 -0.44165,0.10978zM209.13385,193.4302c-0.03026,-0.23287 0.00798,-0.45951 -0.10698,-0.71013c-0.19284,0.03245 -0.36949,0.07634 -0.56237,0.10876c0.03026,0.23286 0.03801,0.42868 0.18276,0.63698c0.16304,0.00987 0.30625,0.04797 0.48657,-0.03563zM208.8847,184.92338c0.276,-0.1849 0.51591,-0.35309 0.75579,-0.52128c-0.00518,-0.13055 0.00584,-0.2496 -0.08769,-0.35817c-0.28746,0.02881 -0.50748,0.16878 -0.74373,0.2973c0.00518,0.13056 0.01036,0.26108 0.04168,0.38899c-0.02356,0.06789 -0.00107,0.10494 0.03391,0.19317zM206.76728,190.65304c0.01204,-0.22403 0.13128,-0.39323 0.08116,-0.59791c-0.2775,0.01471 -0.52887,0.02679 -0.7777,0.10414c0.04387,0.17911 -0.05549,0.32008 0.04689,0.51952c0.21161,0.04431 0.39826,-0.01369 0.64963,-0.02575zM215.17658,187.71355c-0.17299,0.00423 -0.3397,0.03405 -0.48397,0.10094c-0.02199,0.23813 -0.06022,0.46473 -0.10208,0.73103c0.20642,-0.0862 0.3831,-0.13011 0.61203,-0.17924c0.022,-0.23813 0.0503,-0.45064 -0.02596,-0.65271zM205.31485,189.0948c-0.06436,0.22924 -0.125,0.41881 -0.04251,0.64645c0.17924,0.02135 0.33235,0.04536 0.47663,-0.02152c0.05441,-0.21514 0.12499,-0.41876 0.18307,-0.67361c-0.21533,-0.00464 -0.41443,0.00221 -0.61721,0.04873zM213.58925,186.58825c0.23257,-0.08882 0.47039,-0.04714 0.61205,-0.17929c0.00216,-0.2099 -0.06784,-0.38637 -0.16395,-0.56025c-0.19912,0.00685 -0.3883,-0.00043 -0.54617,0.12021c0.0339,0.19318 0.05167,0.37489 0.0981,0.61925zM210.46158,194.0966c-0.04387,-0.17911 -0.05532,-0.33519 -0.16138,-0.49495c-0.22262,0.07473 -0.47036,0.04711 -0.66431,0.1845c0.02765,0.16763 0.08512,0.29293 0.22097,0.41038c0.20904,-0.02094 0.41182,-0.06744 0.60466,-0.09992zM208.3185,184.14137c-0.01771,-0.18172 -0.05898,-0.29548 -0.14255,-0.41824c-0.19286,0.03245 -0.38938,0.10452 -0.50854,0.27375c0.03759,0.15351 0.07516,0.30697 0.10281,0.47461c0.23887,-0.06323 0.37424,-0.22095 0.5483,-0.33015zM214.01382,194.22569c-0.04749,-0.13938 -0.08879,-0.25324 -0.17601,-0.33621c-0.1965,0.07208 -0.36062,0.16722 -0.50229,0.29935c0.02136,0.142 0.06263,0.25583 0.15616,0.36441c0.21275,-0.06062 0.34811,-0.21836 0.52215,-0.32755zM207.52389,192.92309c-0.02202,0.23809 0.09764,0.34407 0.25335,0.43332c0.11336,0.08039 0.24664,0.13257 0.37471,0.0542c-0.01771,-0.18172 -0.04537,-0.3493 -0.14148,-0.52317c-0.17299,0.00423 -0.32977,0.01994 -0.48655,0.03563zM215.74666,190.04166c0.0408,-0.16135 0.12026,-0.27414 0.05655,-0.42502c-0.49282,0.01007 -0.6006,0.33538 -0.64717,0.74631c0.20019,-0.11178 0.39048,-0.2095 0.59063,-0.32128zM206.24592,191.53089c0.18551,0.04697 0.33235,0.04535 0.51895,-0.01267c-0.06375,-0.15087 0.01938,-0.3034 -0.07047,-0.45165c-0.10714,-0.05483 -0.17923,-0.02137 -0.27383,-0.02501c-0.10449,0.01048 -0.20537,-0.01874 -0.27492,0.07995c0.00518,0.13056 0.01038,0.26111 0.10023,0.40936zM210.82359,188.687c0.11856,0.2109 0.23563,0.25163 0.3412,0.13619c0.14533,-0.17181 0.25828,-0.36662 0.36127,-0.54732c0.03974,-0.05636 0.07317,-0.1384 -0.00413,-0.23549c-0.25979,0.1964 -0.48715,0.41575 -0.69837,0.6466zM211.36498,194.77932c-0.02721,0.10756 0.00778,0.19582 0.09503,0.27883c0.2514,-0.01208 0.52524,0.01294 0.76149,-0.11558c-0.13478,-0.22239 -0.30044,-0.2976 -0.51313,-0.23695c-0.10451,0.01048 -0.23155,-0.01613 -0.34339,0.07369zM213.09344,190.08469c0.22674,0.16075 0.29524,0.16696 0.38462,0.04011c0.12286,-0.2089 0.25567,-0.43188 0.31374,-0.68671c-0.30839,0.16196 -0.59063,0.32129 -0.69837,0.64661zM214.50372,193.2199c-0.09566,0.1013 -0.16518,0.20006 -0.25092,0.28724c-0.1553,0.18591 -0.15526,0.18593 0.08662,0.46316c0.10195,-0.07577 0.23001,-0.1541 0.28591,-0.19902c-0.0501,-0.2047 -0.07777,-0.37227 -0.12163,-0.55135zM213.62531,184.98582c-0.14687,0.00158 -0.31251,-0.07352 -0.42179,0.08157c0.0475,0.1394 0.12118,0.27619 0.17496,0.44116c0.17301,-0.00422 0.35223,0.01718 0.48028,-0.06121c-0.06377,-0.15088 -0.10131,-0.30441 -0.23348,-0.46154zM212.73082,193.63337c-0.21009,0.12592 -0.43644,0.24029 -0.64654,0.36621c-0.01724,0.09345 -0.00843,0.18429 0.10861,0.22499c0.23516,-0.02355 0.45786,-0.09828 0.63556,-0.24715c-0.00518,-0.13055 -0.03026,-0.23286 -0.09767,-0.34408zM215.56584,188.26439c0.12332,0.06628 0.24405,0.06731 0.36844,0.02862c0.00734,-0.07938 0.01467,-0.15873 0.02199,-0.23811c0.0011,-0.10493 0.01833,-0.19843 -0.059,-0.29551c-0.09718,-0.0689 -0.19801,-0.09814 -0.31249,-0.07352c-0.0084,0.18435 -0.01053,0.39424 -0.01899,0.57853zM212.57357,185.72021c0.17301,-0.00422 0.30733,-0.057 0.43538,-0.13535c-0.06996,-0.17645 -0.12378,-0.34144 -0.18748,-0.49231c-0.15941,-0.04954 -0.28379,-0.01088 -0.35959,0.06224c0.0339,0.19317 0.06785,0.38637 0.11165,0.56547zM215.90574,189.16076c0.01101,-0.11903 0.02202,-0.23809 0.01685,-0.36866c-0.00626,-0.02555 -0.03867,-0.04855 -0.06116,-0.08565c-0.09459,-0.00364 -0.21163,-0.04433 -0.3397,0.03404c-0.03085,0.1473 -0.09776,0.31124 -0.06387,0.50442c0.17922,0.02134 0.30361,-0.01736 0.44788,-0.08421zM215.91011,190.9821c0.12546,-0.14363 0.32351,-0.04553 0.42283,-0.18651c0.01466,-0.15871 0.0879,-0.29709 0.03776,-0.50178c-0.16304,-0.00987 -0.30993,-0.00826 -0.35069,0.15309c-0.04081,0.16135 -0.14639,0.27675 -0.1099,0.53522zM212.72166,194.85312c0.13432,-0.05277 0.28484,-0.09408 0.40921,-0.13273c0.02613,-0.0026 0.02982,-0.04231 0.04965,-0.07052c-0.06113,-0.08562 -0.09242,-0.21354 -0.26803,-0.27455c-0.16042,0.05542 -0.33085,0.12487 -0.51744,0.1829c0.07364,0.13678 0.16093,0.21978 0.32655,0.29495zM212.6042,184.6425c-0.03757,-0.1535 -0.06524,-0.32111 -0.09657,-0.449c-0.17558,-0.06105 -0.32245,-0.05946 -0.45309,-0.04634c-0.05334,0.11023 0.05012,0.20465 0.08512,0.29292c0.03502,0.08826 0.06005,0.19056 0.18339,0.25685c0.08466,0.01772 0.17926,0.02136 0.28119,-0.05438zM205.22937,190.11248c0.0115,0.15611 0.02658,0.27258 0.04171,0.38899c-0.00369,0.03969 0.03499,0.08826 0.04127,0.11384c0.11336,0.08039 0.23411,0.08141 0.35849,0.04271c-0.00154,-0.17022 0.01314,-0.32897 -0.03064,-0.50803c-0.12698,-0.02658 -0.24771,-0.0276 -0.41076,-0.03748zM214.95091,193.51578c0.19396,-0.13737 0.38783,-0.27475 0.47833,-0.5066c-0.17557,-0.06104 -0.31513,-0.13882 -0.47555,-0.08343c-0.0879,0.29711 -0.08789,0.29712 -0.00279,0.59002zM206.38216,191.92348c0.08662,0.46317 0.10281,0.47459 0.49375,0.54026c-0.02766,-0.16764 -0.08145,-0.33256 -0.10906,-0.5002c-0.12332,-0.06628 -0.24402,-0.06729 -0.38462,-0.04013zM215.14854,187.27083c-0.00153,-0.17022 -0.02293,-0.31225 -0.11277,-0.46054c-0.04234,-0.00886 -0.1108,-0.01513 -0.17927,-0.02138c-0.05228,0.00524 -0.11448,0.02457 -0.1667,0.0298c0.00155,0.17022 -0.02306,0.34308 0.05684,0.50545c0.12696,0.02658 0.26758,-0.00057 0.40188,-0.05339zM204.72435,188.76076c0.06845,0.00623 0.16305,0.00985 0.20907,-0.02095c0.15788,-0.12066 0.22476,-0.2846 0.22066,-0.52013c-0.13692,-0.01252 -0.28635,-0.07616 -0.39457,-0.02599c-0.03455,0.18692 -0.1276,0.35353 -0.03516,0.56706zM209.41653,183.65126c-0.00624,-0.02556 -0.01252,-0.05116 -0.02505,-0.10232c-0.29006,-0.03646 -0.56129,0.00381 -0.83251,0.04411c-0.02094,0.13314 0.01406,0.22137 0.13368,0.32734c0.23257,-0.08882 0.48132,-0.16619 0.72389,-0.26911zM212.56744,188.86613c-0.24619,0.14262 -0.49859,0.25965 -0.65127,0.51085c-0.00996,0.0141 0.03502,0.08822 0.06739,0.11119c0.081,0.05739 0.18552,0.04693 0.23514,-0.02359c0.17774,-0.14885 0.27447,-0.35515 0.34873,-0.59845zM214.96169,186.39833c-0.02135,-0.14202 -0.04277,-0.28405 -0.11642,-0.42084c-0.11337,-0.08039 -0.21424,-0.1096 -0.36474,-0.06833c0.0538,0.16501 0.09763,0.34409 0.16134,0.49495c0.11702,0.04068 0.21162,0.04431 0.31983,-0.00583zM208.68538,193.89452c0.21684,0.17485 0.40125,0.32679 0.66516,0.36587c0.04079,-0.16134 -0.03283,-0.29813 -0.13261,-0.43231c-0.18918,-0.00725 -0.35223,-0.01715 -0.53257,0.06648zM204.71131,186.84866c0.20539,0.01875 0.23149,0.01616 0.26133,-0.02615c0.11553,-0.12949 0.12395,-0.31386 0.12241,-0.48405c-0.0026,-0.06524 -0.07368,-0.13677 -0.18187,-0.08662c0.00778,0.19581 -0.18617,0.33321 -0.20187,0.59689zM209.99486,184.20927c0.2488,-0.07731 0.50384,-0.12911 0.68887,-0.35736c-0.29627,-0.06204 -0.52891,0.02678 -0.74158,0.08742c-0.03349,0.08197 -0.00473,0.14461 0.05273,0.26992zM205.69627,191.03549c-0.11078,-0.0151 -0.21164,-0.04431 -0.32242,-0.05942c-0.00842,0.18435 0.01925,0.35194 0.22722,0.43593c0.05853,0.02036 0.11702,0.04067 0.17299,-0.00423c0.0272,-0.10755 -0.01406,-0.2214 -0.07777,-0.37227zM214.27802,190.71308c0.1458,0.10332 0.23041,0.12109 0.29368,-0.00319c0.05335,-0.11021 0.10667,-0.22039 0.1438,-0.34207c0.01356,-0.05378 0.01103,-0.11907 -0.06371,-0.15089c-0.16779,0.13476 -0.27705,0.28988 -0.37378,0.49615zM208.32155,186.06752c-0.19396,0.13738 -0.35545,0.29775 -0.43599,0.51549c-0.00995,0.01411 0.03502,0.08822 0.05119,0.09969c0.03237,0.02295 0.09459,0.00364 0.11446,-0.02458c0.11294,-0.19478 0.26454,-0.34105 0.27036,-0.59067zM207.20642,185.99583c0.05074,-0.17544 0.16003,-0.3306 0.17214,-0.55457c-0.2101,0.1259 -0.35177,0.25805 -0.36277,0.3771c-0.0272,0.10755 0.03757,0.15351 0.19067,0.17747zM210.37571,194.83912c0.22418,0.09548 0.45097,0.25626 0.68354,0.16743c-0.21209,-0.31947 -0.44466,-0.23064 -0.68354,-0.16743zM211.95671,192.11201c0.03237,0.02294 0.05858,0.02038 0.09094,0.04333c0.08312,-0.15248 0.23731,-0.23348 0.24571,-0.4178c-0.08724,-0.08301 -0.14578,-0.10334 -0.24404,-0.06728c-0.02094,0.13314 -0.05182,0.2804 -0.0926,0.44179zM210.33896,187.58225c-0.18765,0.16296 -0.32931,0.29513 -0.43233,0.4758c-0.01987,0.02819 -0.00735,0.07935 0.04125,0.1138c0.01622,0.01149 0.05852,0.02035 0.08466,0.01772c0.19396,-0.13737 0.31312,-0.30658 0.3064,-0.60734zM204.88051,189.12517c-0.11704,-0.04068 -0.18548,-0.04694 -0.1829,0.01834c-0.02094,0.13314 -0.02567,0.27779 -0.03043,0.42244c0.00885,0.09084 0.05744,0.12529 0.14577,0.10334c0.0607,-0.18954 0.10148,-0.35093 0.06756,-0.54409zM214.31183,185.49365c0.09459,0.00364 0.17926,0.02136 0.27385,0.025c0.02613,-0.00259 0.04599,-0.03083 0.09201,-0.06163c-0.19433,-0.1378 -0.34272,-0.30639 -0.59304,-0.39928c0.0538,0.16501 0.09505,0.2788 0.22722,0.43592zM207.8907,188.95461c-0.08314,0.15248 -0.15634,0.2909 -0.25935,0.47159c0.26133,-0.0262 0.39931,-0.11862 0.48242,-0.27112c-0.05119,-0.09971 -0.08984,-0.14828 -0.2231,-0.20048zM213.22504,192.2077c-0.00475,0.14467 -0.14639,0.27675 -0.02784,0.48769c0.28697,-0.30399 0.33663,-0.37446 0.27552,-0.46011c-0.081,-0.05739 -0.14946,-0.06368 -0.24771,-0.0276zM209.3472,186.9215c-0.34338,0.07369 -0.46253,0.24293 -0.54677,0.50037c0.34597,-0.00846 0.35542,-0.29773 0.54677,-0.50037zM215.60706,190.61924c-0.31724,0.07109 -0.42653,0.22623 -0.51332,0.41839c-0.00994,0.0141 0.01253,0.05116 0.04492,0.07412c0.04858,0.03447 0.10086,0.02921 0.12071,0.00101c0.11554,-0.12949 0.19866,-0.28198 0.34765,-0.4935zM214.15161,192.54744c-0.0408,0.16135 -0.12394,0.31386 -0.03149,0.52733c0.14793,-0.10657 0.22112,-0.24496 0.2844,-0.36923c-0.06738,-0.1112 -0.14208,-0.14301 -0.2529,-0.15814zM216.40004,189.97626c-0.02399,-0.20731 0.08528,-0.36241 -0.03697,-0.53365c-0.18765,0.16296 -0.18765,0.16296 -0.14856,0.48668c0.04234,0.00886 0.08466,0.01772 0.18551,0.04694zM211.06312,194.31155c0.25656,0.11845 0.45935,0.07193 0.65587,-0.00018c0.01101,-0.11903 -0.0538,-0.16501 -0.13216,-0.15714c-0.16043,0.05542 -0.33712,0.09932 -0.52368,0.15733zM215.52067,187.25973c0.10714,0.05482 0.19804,0.09812 0.3062,0.04796c-0.01512,-0.11642 -0.03023,-0.23289 -0.11747,-0.31584c-0.09091,-0.04332 -0.15939,-0.04954 -0.23154,-0.01612c-0.01725,0.09346 0.00154,0.17022 0.0428,0.28404zM209.91741,190.83544c0.12806,-0.07834 0.22009,-0.14 0.24727,-0.24758c0.00369,-0.03969 -0.01878,-0.07676 -0.04126,-0.11383c-0.04858,-0.03447 -0.13326,-0.0522 -0.14686,0.00157c-0.05962,0.08462 -0.12914,0.18332 -0.05914,0.35982zM213.3296,184.54359c-0.11599,-0.14566 -0.29524,-0.16701 -0.44469,-0.23065c0.06523,0.32112 0.09766,0.34406 0.44469,0.23065zM206.3093,185.33867c0.21379,-0.16559 0.21379,-0.16557 0.12761,-0.35355c-0.09201,0.06163 -0.19393,0.1374 -0.12761,0.35355zM211.17362,191.1551c-0.03502,-0.08826 -0.0836,-0.12268 -0.11964,-0.10597c-0.16043,0.05542 -0.17405,0.10919 -0.11766,0.33945c0.11813,-0.06422 0.17776,-0.14886 0.23735,-0.23347zM216.20785,191.21433c-0.13066,0.01312 -0.24511,0.03769 -0.28225,0.15931c0.28896,0.14139 0.32499,0.12473 0.28225,-0.15931zM206.31681,184.60404c-0.16675,0.02983 -0.2624,0.13111 -0.3481,0.21833c-0.03974,0.05638 -0.02094,0.13317 0.11599,0.14567c0.0857,-0.08723 0.18141,-0.18855 0.23214,-0.36399zM216.36322,188.78731c-0.13173,0.11805 -0.13283,0.223 -0.02309,0.34308c0,0 0.04234,0.00886 0.05226,-0.00525c0.07579,-0.07314 0.01838,-0.1984 -0.02916,-0.33786zM208.91159,189.95324c0.11704,0.04068 0.1892,0.00726 0.21271,-0.06062c0.01987,-0.02819 0.00733,-0.07937 -0.01511,-0.11644c-0.02248,-0.03706 -0.09089,-0.04331 -0.11076,-0.0151c-0.046,0.03083 -0.08573,0.08721 -0.08682,0.19216zM215.2952,186.3388c-0.00475,0.14465 0.03023,0.23288 0.19957,0.26831c-0.00155,-0.17022 -0.04644,-0.24436 -0.19957,-0.26831z" fill="#767676"/><path d="M205.22082,194.77891c0.50837,0.38156 1.0168,0.76315 1.53514,1.13059c0.58313,0.4134 1.20596,0.77037 1.86229,1.04537c0.20796,0.084 0.40339,0.11686 0.63748,0.19824c-0.15895,0.22564 -0.28176,0.4345 -0.43704,0.62042c-0.89919,1.13853 -1.72732,2.34856 -2.60403,3.52417c-0.78734,1.04868 -1.54849,2.09478 -2.31962,3.15496c-0.53272,0.72177 -1.05553,1.42941 -1.58826,2.15115c-0.50294,0.67947 -0.9635,1.36777 -1.46641,2.04724c-0.03975,0.0564 -0.07948,0.11281 -0.1354,0.15773c-0.33603,-0.00562 -0.62867,-0.10741 -0.94375,-0.24619c-0.49695,-0.22545 -0.99021,-0.49056 -1.4338,-0.82617c-0.1458,-0.10332 -0.3015,-0.19258 -0.38139,-0.35496c0.16567,0.07515 0.29782,0.23225 0.52566,0.28808c0.04557,-0.30595 0.263,-0.51125 0.40575,-0.74836c0.00994,-0.0141 0.01986,-0.02818 0.00369,-0.03967c0.13863,-0.47257 0.42671,-0.88149 0.62385,-1.33375c0.06694,-0.16396 0.08527,-0.3624 0.21697,-0.48044c0.23108,-0.25903 0.274,-0.63032 0.50509,-0.8894c0.00994,-0.0141 0.01359,-0.05379 0.03348,-0.08199c0.14011,-0.30234 0.25417,-0.60208 0.42668,-0.88148c0.21852,-0.31021 0.28762,-0.68412 0.53853,-0.97136c0.03194,-0.2522 0.1935,-0.41253 0.31635,-0.62142c0.01987,-0.02819 0.0298,-0.04234 0.04967,-0.07049c0.06909,-0.37389 0.34246,-0.62407 0.47635,-0.95203c0.13387,-0.32794 0.37486,-0.6011 0.52492,-0.91757c0.17989,-0.35877 0.30118,-0.73787 0.58822,-1.04185c0.01987,-0.02819 0.04969,-0.07051 0.05335,-0.1102c0.01204,-0.22403 0.17988,-0.35876 0.28289,-0.53945c0.05962,-0.08462 0.14531,-0.1718 0.17253,-0.27939c0.02464,-0.17282 0.12028,-0.27415 0.20968,-0.40108c0.04967,-0.07051 0.11556,-0.12954 0.12284,-0.20889c0.03194,-0.2522 0.20339,-0.42665 0.33252,-0.60995c0.04967,-0.07051 0.11551,-0.12952 0.12287,-0.20889c0.0283,-0.21249 0.15374,-0.35615 0.26304,-0.51125c0.1788,-0.25385 0.24421,-0.588 0.43921,-0.83031c0.04599,-0.03083 0.02723,-0.10755 0.04079,-0.16135z" fill="#87d7dc"/><path d="M205.2208,194.77894c-0.01361,0.05377 0.00521,0.13054 -0.0246,0.17285c-0.19498,0.24235 -0.27661,0.56504 -0.4392,0.83034c-0.10929,0.1551 -0.23475,0.29875 -0.26303,0.51124c-0.00734,0.07938 -0.0732,0.1384 -0.12283,0.20889c-0.12911,0.18332 -0.28442,0.36922 -0.33258,0.60994c-0.00733,0.07937 -0.0894,0.12693 -0.12285,0.2089c-0.08939,0.1269 -0.16888,0.23972 -0.20968,0.40108c-0.0272,0.10755 -0.11296,0.19481 -0.17255,0.27941c-0.10298,0.18069 -0.27078,0.31547 -0.28287,0.53946c-0.00369,0.03969 -0.03347,0.08198 -0.05333,0.11019c-0.27706,0.28988 -0.40834,0.68311 -0.5882,1.04187c-0.16003,0.3306 -0.401,0.60371 -0.52496,0.91755c-0.13385,0.32793 -0.40725,0.57813 -0.47633,0.95202c0.00624,0.02557 -0.02983,0.0423 -0.04969,0.07051c-0.12911,0.18332 -0.28438,0.36924 -0.31634,0.62146c-0.26714,0.27577 -0.33619,0.64967 -0.53855,0.97134c-0.18874,0.2679 -0.28654,0.57914 -0.4267,0.88149c-0.01987,0.02819 -0.01358,0.05383 -0.03346,0.082c-0.23108,0.25903 -0.274,0.63031 -0.50508,0.88939c-0.12545,0.14362 -0.13389,0.32795 -0.21699,0.48044c-0.21334,0.44075 -0.48521,0.86118 -0.62384,1.33374c-0.00994,0.0141 -0.00365,0.03971 -0.00365,0.03971c-0.14273,0.23712 -0.36022,0.44239 -0.40574,0.74837c-0.21163,-0.04432 -0.33388,-0.21557 -0.52566,-0.2881c-0.12957,-0.09184 -0.25913,-0.18375 -0.31294,-0.34876c0.05962,-0.08462 0.14531,-0.1718 0.17251,-0.27938c0.09521,-0.37648 0.32005,-0.66112 0.49625,-0.98023c0.17618,-0.31906 0.27139,-0.69557 0.53851,-0.97133c0.03194,-0.2522 0.19346,-0.41257 0.31633,-0.62145c0.01987,-0.02819 0.04966,-0.0705 0.05334,-0.1102c0.00842,-0.18434 0.14014,-0.30233 0.21336,-0.44076c0.04967,-0.07051 0.09931,-0.14103 0.12286,-0.20889c0.13753,-0.36765 0.30118,-0.73788 0.52966,-1.06222c0.02983,-0.0423 0.08576,-0.08721 0.07319,-0.13838c0.01835,-0.19838 0.13385,-0.32795 0.23318,-0.46896c0.12545,-0.14362 0.11139,-0.36504 0.24681,-0.52274c0.17513,-0.21413 0.24313,-0.48306 0.36966,-0.73164c0.18613,-0.3332 0.29755,-0.69818 0.52603,-1.02249c0.03975,-0.0564 0.10561,-0.11543 0.10299,-0.18071c0.01471,-0.15874 0.12025,-0.27416 0.19346,-0.41253c0.07947,-0.1128 0.14272,-0.23708 0.17991,-0.35877c0.06436,-0.22924 0.16106,-0.43552 0.30012,-0.63296c0.1924,-0.30759 0.28761,-0.68411 0.55471,-0.95986c0.01987,-0.02819 0.03349,-0.08196 0.05336,-0.1102c0.16003,-0.3306 0.30378,-0.67263 0.49622,-0.98018c0.21852,-0.31021 0.30748,-0.71231 0.55842,-0.99955c0.02983,-0.0423 0.02719,-0.10757 0.04079,-0.16135c0.09673,-0.20627 0.21961,-0.41517 0.39732,-0.56402c0.09092,0.04333 0.15571,0.08921 0.23043,0.12109c0.19698,0.20308 0.37146,0.36905 0.57212,0.53246z" fill="#b0eef2"/><path d="M216.34356,191.98711c-0.14012,0.30232 -0.27296,0.52534 -0.48675,0.69093c-0.20906,0.02093 -0.41703,-0.06304 -0.6349,-0.13294c-1.05973,-0.39184 -2.10954,-0.7978 -3.1123,-1.33952c-0.75611,-0.40918 -1.52844,-0.82982 -2.25106,-1.32095c-0.19435,-0.1378 -0.39503,-0.30117 -0.61919,-0.3967c-0.09092,-0.04333 -0.18812,-0.11223 -0.28527,-0.1811c-0.34902,-0.332 -0.75763,-0.57939 -1.13646,-0.86909c-0.54081,-0.40451 -1.04189,-0.86545 -1.52306,-1.35457c-0.23562,-0.2516 -0.4812,-0.48914 -0.74297,-0.73811c-0.20687,-0.18897 -0.34167,-0.41135 -0.48638,-0.61966c0.06543,-0.3342 0.11874,-0.44437 0.38955,-0.75982c0.3464,0.26669 0.62698,0.59246 0.95349,0.88738c0.31035,0.28345 0.63688,0.57836 0.95718,0.84772c0.33645,0.28083 0.69911,0.55905 1.04551,0.82576c0.32026,0.26934 0.71638,0.46553 1.00689,0.77722c0.40603,0.18213 0.73255,0.47706 1.09886,0.7156c0.35009,0.22706 0.72631,0.45144 1.08633,0.66442c0.37623,0.22443 0.76235,0.43474 1.16472,0.65658c0.36995,0.19885 0.74616,0.42327 1.12608,0.608c0.39608,0.19621 0.79583,0.35277 1.20186,0.5349c0.42222,0.19361 0.80209,0.37834 1.24786,0.50406z" fill="url(#color-1)"/><path d="M204.65489,194.27206c-0.07472,-0.03184 -0.13953,-0.07777 -0.23043,-0.12106c-0.17773,0.14888 -0.30683,0.33215 -0.39733,0.56403c-0.01361,0.05378 -0.01102,0.11905 -0.0408,0.16135c-0.25093,0.28724 -0.35608,0.67788 -0.55841,0.99956c-0.2086,0.29612 -0.33621,0.64964 -0.49625,0.98017c-0.01987,0.02819 -0.03348,0.082 -0.05333,0.11019c-0.26715,0.27575 -0.33623,0.64962 -0.55475,0.95986c-0.12911,0.18332 -0.2358,0.40371 -0.30011,0.63295c-0.04706,0.13573 -0.11032,0.26006 -0.17989,0.35877c-0.08939,0.1269 -0.18505,0.22823 -0.19346,0.41256c0.00259,0.06524 -0.06329,0.12429 -0.10303,0.18069c-0.21852,0.31021 -0.33984,0.68933 -0.526,1.0225c-0.12656,0.24856 -0.19452,0.51751 -0.36967,0.73163c-0.12545,0.14362 -0.1114,0.36501 -0.24681,0.52274c-0.11553,0.12952 -0.24099,0.27314 -0.23323,0.46896c-0.01361,0.05378 -0.0434,0.09608 -0.07317,0.13838c-0.22846,0.32429 -0.38223,0.68042 -0.52966,1.06221c-0.03349,0.08197 -0.0993,0.14101 -0.12286,0.20886c-0.08939,0.1269 -0.20489,0.25646 -0.21331,0.44076c-0.00369,0.03969 -0.03346,0.08198 -0.05333,0.11018c-0.12911,0.18332 -0.2844,0.36924 -0.31634,0.62145c-0.26713,0.27576 -0.36235,0.65228 -0.53851,0.97134c-0.17618,0.31906 -0.41091,0.6178 -0.49622,0.98018c-0.02721,0.10756 -0.11296,0.19478 -0.17253,0.27941c-0.15572,-0.08926 -0.1933,-0.24273 -0.29678,-0.33722c0.33619,-0.64964 0.63635,-1.28259 0.95269,-1.90401c0.33989,-0.68933 0.68601,-1.35308 1.04206,-2.03093c0.32628,-0.63556 0.63634,-1.28259 0.94643,-1.92962c0.39322,-0.79952 0.76028,-1.59643 1.14354,-2.38185c0.29648,-0.59327 0.59299,-1.18648 0.87322,-1.79122c0.45647,-0.92382 0.98768,-1.81582 1.41173,-2.76258c0.06326,-0.12428 0.09413,-0.27154 0.23212,-0.36398c0.1458,0.10332 0.26175,0.24899 0.38768,0.38055c0.06114,0.08561 0.22677,0.16074 0.3067,0.32313z" fill="#87d7dc"/><path d="M198.02165,207.96369c0.36002,0.21294 0.66412,0.47081 1.03407,0.66962c0.42848,0.21921 0.8669,0.42426 1.36489,0.54477c-0.57612,0.81785 -1.14231,1.62159 -1.69855,2.41124c-0.28744,0.02882 -0.53775,-0.0641 -0.78179,-0.13138c-0.46194,-0.13719 -0.85435,-0.37311 -1.26298,-0.6205c-0.01622,-0.01149 -0.03865,-0.04853 -0.04495,-0.07413c0.20537,0.01875 0.23624,-0.1285 0.28331,-0.2643c0.11767,-0.33945 0.25153,-0.66738 0.46641,-0.93791c0.03975,-0.0564 0.07946,-0.11281 0.10297,-0.18069c0.09155,-0.33683 0.3064,-0.60734 0.44654,-0.90972c0.07692,-0.17804 0.12388,-0.31382 0.09,-0.50702z" fill="#61afb4"/><path d="M205.73304,192.22441c0.50731,0.48651 1.08415,0.87429 1.62129,1.31849c0.24921,0.19783 0.52828,0.35335 0.80732,0.50889c0.50581,0.31631 0.98804,0.70046 1.5336,0.96032c0.21424,0.10961 0.42847,0.2192 0.63645,0.30323c0.13327,0.0522 0.25655,0.11843 0.36996,0.19884c-0.01356,0.05378 -0.01728,0.09346 -0.03717,0.12168c-0.07948,0.11279 -0.1589,0.22562 -0.23836,0.33843c-0.11078,-0.0151 -0.19544,-0.03287 -0.29629,-0.06205c-0.70229,-0.24416 -1.42085,-0.49983 -2.05259,-0.94768c-0.56069,-0.37631 -1.13748,-0.7641 -1.65846,-1.19683c-0.41751,-0.33826 -0.84489,-0.66239 -1.16671,-1.10194c0.10085,0.02918 0.16824,0.14041 0.29261,0.10172c0.14165,-0.13214 0.31938,-0.281 0.18828,-0.54308z" fill="#767676"/><path d="M205.45626,193.44473c0.29523,0.16703 0.49478,0.43535 0.76021,0.64465c0.57322,0.4275 1.14637,0.85501 1.74937,1.24017c0.48959,0.30481 1.00276,0.54171 1.51956,0.73896c0.13327,0.0522 0.26648,0.10434 0.39975,0.15653c-0.13906,0.19742 -0.25824,0.36666 -0.38739,0.54995c-0.31357,0.03141 -0.60621,-0.07038 -0.89518,-0.21175c-0.3475,-0.16175 -0.71115,-0.33503 -1.04504,-0.55058c-0.76862,-0.46035 -1.46147,-0.99381 -2.18046,-1.52463c-0.12957,-0.09185 -0.25918,-0.18374 -0.32289,-0.33461c0.04967,-0.07051 0.11551,-0.12954 0.12284,-0.20889c0.03455,-0.18693 0.16994,-0.3447 0.27918,-0.49977z" fill="#767676"/><path d="M198.02165,207.96369c0.02766,0.16764 -0.00324,0.31484 -0.08636,0.46735c-0.14013,0.30234 -0.35502,0.5729 -0.44653,0.9097c-0.02355,0.06789 -0.06326,0.12432 -0.10301,0.18072c-0.20858,0.29614 -0.33253,0.60994 -0.46641,0.93789c-0.03715,0.12168 -0.07793,0.28305 -0.28332,0.2643c-0.2529,-0.15816 -0.45981,-0.34709 -0.62072,-0.56688c0.09047,-0.23189 0.16476,-0.47521 0.3362,-0.64966c0.01987,-0.02819 0.03348,-0.08197 0.05334,-0.1102c0.15006,-0.31645 0.31007,-0.64703 0.47634,-0.95202c0.07319,-0.13838 0.15269,-0.25118 0.2097,-0.40107c0.0607,-0.18953 0.16368,-0.37026 0.35394,-0.46796c0.09091,0.04332 0.15571,0.08924 0.23041,0.12109c0.11336,0.08039 0.23305,0.18635 0.34641,0.2667z" fill="#87d7dc"/><path d="M210.98174,185.67001c0.05534,0.33521 -0.02259,0.6182 -0.11677,0.8898c-0.02354,0.06789 -0.08315,0.1525 -0.13906,0.19742c-0.41763,0.31706 -0.77052,0.68004 -1.10716,1.05451c-0.00994,0.0141 -0.04599,0.03081 -0.07213,0.03345c-0.09459,-0.00364 -0.1756,-0.06103 -0.22678,-0.16074c0.01987,-0.02819 0.02351,-0.06792 0.0434,-0.0961c0.25461,-0.32689 0.46061,-0.68831 0.5757,-1.09301c0.07061,-0.20365 0.17989,-0.35879 0.38007,-0.47057c0.22632,-0.1144 0.40402,-0.26327 0.66277,-0.35473z" fill="#cce5e6"/><path d="M208.50996,187.11021c-0.12698,-0.02658 -0.18183,-0.08661 -0.20064,-0.16337c0.44442,-0.6998 0.44439,-0.69981 0.60241,-1.47576c0.20127,-0.21676 0.4835,-0.37608 0.72344,-0.54425c0.13327,0.0522 0.08983,0.14825 0.09243,0.21352c0.00413,0.23549 0.01816,0.45689 -0.02006,0.68352c-0.03087,0.14729 -0.08425,0.25744 -0.19606,0.34726c-0.34554,0.28364 -0.68475,0.59283 -1.00156,0.93908z" fill="#cce5e6"/><path d="M197.65905,207.68549c-0.07472,-0.03184 -0.13954,-0.07779 -0.23042,-0.12108c-0.19026,0.09768 -0.29325,0.27837 -0.35393,0.46796c-0.057,0.1499 -0.13645,0.26268 -0.20971,0.40108c-0.16627,0.305 -0.32627,0.63554 -0.47634,0.95201c-0.01987,0.02819 -0.03347,0.082 -0.05335,0.1102c-0.16518,0.20003 -0.22955,0.42925 -0.33622,0.64961c-0.10973,-0.12004 -0.20324,-0.22867 -0.27322,-0.40515c0.22954,-0.42926 0.43662,-0.89564 0.69227,-1.32753c0.22954,-0.42926 0.39429,-0.90446 0.69226,-1.3275c0.24921,0.19782 0.40387,0.39201 0.5486,0.60029z" fill="#60adb2"/><path d="M211.51119,191.33098c0.07472,0.03184 0.13328,0.05221 0.20798,0.08402c0.01255,0.05118 0.01878,0.07674 0.02504,0.10231c-0.10406,0.28565 -0.1496,0.59166 -0.17898,0.90909c-0.02093,0.13315 -0.06435,0.22927 -0.18246,0.29351c-0.22006,0.13999 -0.41762,0.31706 -0.74741,0.33699c-0.06522,-0.3211 -0.01971,-0.6271 0.04208,-0.9216c0.01356,-0.05378 0.07949,-0.11278 0.13538,-0.15772c0.22734,-0.21936 0.45481,-0.43876 0.69839,-0.64663z" fill="#cce5e6"/><path d="M214.25108,187.92425c-0.03452,0.18692 -0.04557,0.306 -0.06652,0.43916c-0.04816,0.24074 -0.15114,0.42141 -0.38739,0.54995c-0.38417,0.23504 -0.72969,0.51874 -0.97801,0.87122c-0.07947,0.11279 -0.10559,0.1154 -0.29006,-0.03646c0.02981,-0.04231 0.04338,-0.09609 0.07322,-0.1384c0.26453,-0.34104 0.45432,-0.71388 0.59554,-1.12122c0.04343,-0.09608 0.07689,-0.17807 0.15892,-0.22566c0.27859,-0.11967 0.52477,-0.26225 0.89429,-0.33855z" fill="#cae2e3"/><path d="M210.41134,188.47932c-0.00624,-0.02556 -0.0026,-0.06531 0.00734,-0.07938c0.26084,-0.30133 0.41458,-0.65749 0.54222,-1.01104c0.13385,-0.32793 0.32261,-0.59588 0.67331,-0.74892c0.1704,-0.06948 0.29582,-0.21313 0.48871,-0.24553c0.05059,0.47984 -0.12305,0.86419 -0.45496,1.09402c-0.39779,0.28886 -0.80181,0.55212 -1.0737,0.97255c-0.04599,0.03083 -0.08575,0.0872 -0.18293,0.01833z" fill="#c9e1e2"/><path d="M213.10734,187.13459c0.00305,0.34044 -0.07121,0.58377 -0.15544,0.8412c-0.03349,0.08197 -0.08314,0.15248 -0.15527,0.18593c-0.42392,0.29148 -0.82535,0.62001 -1.19441,0.9715c-0.01987,0.02819 -0.06584,0.05902 -0.13691,-0.0125c0.06953,-0.0987 0.14899,-0.21149 0.20234,-0.32169c0.18247,-0.29348 0.34872,-0.59848 0.44025,-0.93531c0.07425,-0.24336 0.2196,-0.41516 0.45219,-0.50399c0.1704,-0.06948 0.33083,-0.12491 0.54723,-0.22522z" fill="#c9e1e2"/><path d="M212.63096,191.9134c0.14688,-0.00158 0.22786,0.05583 0.30884,0.11323c0.00626,0.02555 0.00261,0.06529 0.00884,0.09084c-0.12654,0.24858 -0.17834,0.529 -0.16167,0.81564c0.00152,0.17021 -0.06175,0.2945 -0.19975,0.38696c-0.17403,0.10918 -0.34182,0.24396 -0.53836,0.31608c-0.08876,-0.25321 -0.14044,-0.62814 -0.09335,-0.76391c0.01725,-0.09346 0.08938,-0.12691 0.15528,-0.18592c0.15267,-0.25118 0.39626,-0.4591 0.5202,-0.7729z" fill="#cae3e4"/><path d="M206.43583,188.91695c0.32088,-0.11078 0.59323,-0.25598 0.85929,-0.42682c0.11702,0.04068 0.18188,0.08663 0.23305,0.18634c-0.09779,0.3112 -0.33883,0.58435 -0.42043,0.90707c-0.19026,0.09767 -0.37944,0.09044 -0.57227,0.1229c-0.10449,0.01048 -0.20273,0.04652 -0.32609,-0.01976c-0.00044,-0.27518 0.17468,-0.48929 0.22649,-0.76971z" fill="#c8e0e1"/><path d="M209.49429,190.09148c0.13584,0.11743 0.1123,0.18533 0.08878,0.25321c-0.08419,0.25747 -0.15848,0.50077 -0.25887,0.74674c-0.02354,0.0679 -0.06326,0.12431 -0.13538,0.15775c-0.22263,0.0747 -0.46149,0.13795 -0.7066,0.17565c-0.02136,-0.142 0.02202,-0.23812 0.03303,-0.35717c0.03304,-0.35714 0.18568,-0.60835 0.55517,-0.68471c0.17667,-0.04391 0.30839,-0.16195 0.4239,-0.29149z" fill="#cbe4e5"/><path d="M208.47385,189.36806c0.081,0.05739 0.12959,0.09184 0.17818,0.12628c-0.00369,0.03969 0.01877,0.07676 0.00885,0.09084c-0.07692,0.17804 -0.16994,0.34469 -0.2468,0.52276c-0.04343,0.09609 -0.10929,0.15511 -0.20755,0.19116c-0.29477,0.10817 -0.59584,0.19073 -0.94547,0.23889c-0.02401,-0.20729 0.04921,-0.34566 0.12241,-0.48404c0.03974,-0.05636 0.0795,-0.1128 0.14162,-0.13215c0.36951,-0.07634 0.66537,-0.28946 0.94871,-0.55374z" fill="#c8e0e1"/><path d="M205.45627,193.44473c-0.10929,0.1551 -0.24469,0.31284 -0.27294,0.52539c-0.00733,0.07937 -0.07321,0.13835 -0.12286,0.20887c-0.28528,-0.18111 -0.51465,-0.40713 -0.68807,-0.67811c0.17147,-0.17444 0.24574,-0.41776 0.33252,-0.60994c0.16304,0.00987 0.24664,0.13257 0.36367,0.17324c0.15572,0.08926 0.30776,0.2182 0.38768,0.38054z" fill="#85d5d9"/><path d="M214.99533,189.48791c-0.23,0.1541 -0.45994,0.30822 -0.6837,0.48787c-0.18766,0.16296 -0.217,0.48044 -0.60899,0.51967c0.3377,-0.47942 0.52234,-0.98284 0.70696,-1.48624c0.19026,-0.09767 0.40664,-0.19802 0.65802,-0.21006c0.01255,0.05118 0.01879,0.07676 0.02506,0.10231c-0.01834,0.1984 -0.05287,0.38539 -0.09734,0.58637z" fill="#c6dede"/><path d="M210.99332,185.1708c-0.28228,0.15934 -0.5284,0.30193 -0.81068,0.46129c-0.06996,-0.17645 -0.03911,-0.32374 -0.0605,-0.46574c-0.0115,-0.15611 -0.06523,-0.32113 -0.02442,-0.48245c0.06953,-0.0987 0.19391,-0.13739 0.30209,-0.18754c0.10818,-0.05016 0.23259,-0.0888 0.37318,-0.11603c0.16716,0.24536 0.17752,0.50644 0.22032,0.7905z" fill="#cae3e3"/><path d="M207.45348,186.40353c0.1846,-0.50342 0.31954,-0.93632 0.34735,-1.42399c0.19396,-0.13738 0.37165,-0.28623 0.57551,-0.43771c0.13112,0.26209 0.09291,0.48872 0.09701,0.72417c-0.00369,0.03969 -0.03349,0.08199 -0.05335,0.11017c-0.29691,0.31806 -0.59384,0.63617 -0.96653,1.02733z" fill="#cae3e4"/><path d="M209.55123,192.18266c-0.00305,-0.34044 0.01636,-0.64382 0.36081,-0.82247c0.23627,-0.12852 0.40147,-0.32855 0.56665,-0.52857c0.05961,-0.08461 0.15051,-0.04131 0.22785,0.0558c-0.1913,0.20265 -0.25935,0.47159 -0.32734,0.74052c-0.04446,0.20104 -0.16624,0.30499 -0.33665,0.37449c-0.14426,0.06686 -0.26607,0.1708 -0.49134,0.18026z" fill="#c8e0e1"/><path d="M205.73305,192.22439c0.12118,0.27619 -0.04663,0.41091 -0.18204,0.56865c-0.12436,0.03866 -0.20169,-0.05841 -0.2926,-0.10171c-0.20063,-0.16336 -0.35526,-0.35759 -0.49006,-0.58001c0.12545,-0.14362 0.16995,-0.34465 0.35025,-0.42826c0.09092,0.04333 0.13953,0.07778 0.2043,0.12369c0.14213,0.14303 0.28425,0.28603 0.41015,0.41761z" fill="#767676"/><path d="M208.16626,190.73566c-0.05182,0.28041 -0.11614,0.50965 -0.16428,0.75039c-0.25505,0.05175 -0.51633,0.07796 -0.774,0.06441c-0.09355,-0.10859 -0.0663,-0.21615 -0.07518,-0.30699c-0.00886,-0.09085 -0.01772,-0.18168 0.06803,-0.26891c0.2488,-0.07731 0.566,-0.14843 0.94545,-0.23889z" fill="#c7dfe0"/><path d="M210.22248,193.22939c-0.21275,0.06062 -0.40923,0.1327 -0.66062,0.14482c-0.10499,-0.2647 -0.06677,-0.49131 -0.05102,-0.755c0.23257,-0.08882 0.46515,-0.17768 0.70771,-0.2806c0.0229,0.31223 0.00715,0.57597 0.00393,0.8908z" fill="#c8e0e1"/><path d="M212.08873,185.27074c0.0501,0.2047 0.1002,0.40934 0.07194,0.62187c-0.23627,0.12852 -0.4887,0.24553 -0.75107,0.37667c-0.03237,-0.02295 -0.06477,-0.04593 -0.05483,-0.06003c-0.00778,-0.19582 -0.00563,-0.40568 0.00277,-0.59001c0.00734,-0.07938 0.03086,-0.14729 0.09304,-0.16661c0.21639,-0.1003 0.38418,-0.23506 0.63818,-0.1819z" fill="#c4dcdd"/><path d="M214.25909,187.46482c-0.25871,0.09144 -0.50123,0.19437 -0.75996,0.28582c-0.09975,-0.13417 -0.02029,-0.24695 -0.00928,-0.36603c0.01101,-0.11903 0.04814,-0.24074 0.06907,-0.37388c0.20019,-0.11179 0.44163,-0.1097 0.67057,-0.15889c0.10863,0.22498 0.07409,0.41195 0.02959,0.61298z" fill="#c8e0e1"/><path d="M210.7256,193.48036c0.25247,-0.117 0.47881,-0.23144 0.74118,-0.36255c0.08254,0.22762 0.05421,0.44017 0.12055,0.65633c-0.20388,0.15145 -0.45525,0.16356 -0.70402,0.24087c-0.10238,-0.19943 -0.18229,-0.3618 -0.15766,-0.53463z" fill="#c6ddde"/><path d="M213.79413,192.39974c-0.00689,0.35456 -0.1146,0.67988 -0.05304,1.04067c-0.16777,0.13478 -0.30948,0.26692 -0.53211,0.34164c-0.12483,-0.2365 -0.14885,-0.44381 0.03255,-0.63232c0.22737,-0.21934 0.37378,-0.49614 0.55259,-0.74997z" fill="#b9cfd0"/><path d="M206.68549,185.56309c-0.06738,-0.1112 0.03085,-0.14729 0.05439,-0.21514c0.05702,-0.14988 0.13018,-0.28824 0.0926,-0.44179c-0.02032,-0.24698 0.10511,-0.3906 0.25674,-0.53684c0.0659,-0.05902 0.14793,-0.10657 0.24985,-0.18231c0.10134,0.3044 0.16394,0.56024 -0.08955,0.78221c-0.17771,0.14888 -0.30061,0.35776 -0.44593,0.52958c-0.02982,0.04229 -0.0596,0.08461 -0.11812,0.06426z" fill="#c0d8d8"/><path d="M205.45241,188.72718c0.00842,-0.18434 0.05549,-0.32008 0.13493,-0.4329c0.03974,-0.05636 0.08938,-0.12694 0.15157,-0.14626c0.27493,-0.07996 0.51116,-0.20848 0.74742,-0.33699c0.11336,0.0804 0.05745,0.12529 0.02765,0.16763c-0.09934,0.14101 -0.20858,0.29614 -0.27553,0.46011c-0.09674,0.20627 -0.23473,0.29873 -0.46625,0.28262c-0.11078,-0.0151 -0.18918,-0.00726 -0.3198,0.00583z" fill="#c1d9d9"/><path d="M209.09962,192.30651c-0.20642,0.0862 -0.41552,0.10713 -0.64442,0.15628c-0.11857,-0.2109 -0.05787,-0.40044 -0.06569,-0.59628c0.24252,-0.10294 0.51007,-0.10354 0.78133,-0.1438c0.01404,0.2214 -0.03669,0.39687 -0.07122,0.58381z" fill="#c3dbdc"/><path d="M212.46971,186.9363c0.04186,-0.26634 0.09004,-0.50707 0.12198,-0.75926c0.15418,-0.08102 0.29845,-0.14784 0.50383,-0.12912c0.06631,0.21617 0.04795,0.41457 0.04585,0.6245c-0.19396,0.13737 -0.40033,0.22359 -0.67159,0.26387z" fill="#c3dadb"/><path d="M207.20112,191.93316c0.2514,-0.01208 0.47662,-0.02153 0.70184,-0.03099c0.09245,0.21353 0.0741,0.41195 0.05576,0.61036c-0.20277,0.04654 -0.40187,0.05339 -0.62342,0.02313c-0.02872,-0.06265 -0.0637,-0.1509 -0.07625,-0.20204c-0.02138,-0.14201 -0.02032,-0.24696 -0.0579,-0.40049z" fill="#c4dbdc"/><path d="M205.80452,187.15852c-0.18876,0.26793 -0.33777,0.47945 -0.49663,0.70507c-0.15053,0.0413 -0.29739,0.04288 -0.47293,-0.01817c-0.04748,-0.13939 0.05441,-0.21514 0.08164,-0.32271c0.0272,-0.10755 0.07061,-0.20365 0.12025,-0.27419c0.26135,-0.02621 0.47039,-0.04714 0.76774,-0.09002z" fill="#c2d9da"/><path d="M211.17237,184.2617c0.14426,-0.06686 0.28483,-0.0941 0.42175,-0.08157c0.1395,0.07777 0.14469,0.20835 0.19589,0.30802c0.0512,0.09967 0.13843,0.1827 0.11749,0.31585c-0.13173,0.11805 -0.33451,0.16456 -0.55717,0.23934c-0.03135,-0.12794 -0.06266,-0.25587 -0.1039,-0.36967c-0.02136,-0.142 -0.0428,-0.28403 -0.07411,-0.41197z" fill="#c5ddde"/><path d="M209.13385,193.4302c-0.18034,0.0836 -0.33972,0.03404 -0.49649,0.04975c-0.12849,-0.19682 -0.15249,-0.40412 -0.18278,-0.63699c0.19284,-0.03244 0.38572,-0.06484 0.5624,-0.10875c0.12481,0.2365 0.08663,0.46316 0.11688,0.69599z" fill="#c3dbdc"/><path d="M208.8847,184.92338c-0.03502,-0.08826 -0.04755,-0.13938 -0.06009,-0.19053c-0.01512,-0.11642 -0.02032,-0.24699 -0.0417,-0.389c0.25247,-0.117 0.45631,-0.26851 0.74376,-0.29731c0.09355,0.10859 0.09247,0.21354 0.08771,0.35818c-0.21379,0.16557 -0.46365,0.34785 -0.72968,0.51872z" fill="#c7dfe0"/><path d="M206.76719,190.65299c-0.24143,-0.00203 -0.43794,0.07006 -0.66579,0.01427c-0.08615,-0.18797 0.00687,-0.35453 -0.0469,-0.51952c0.27493,-0.07995 0.51635,-0.07796 0.77767,-0.10413c0.07258,0.24177 -0.03668,0.39684 -0.06494,0.60939z" fill="#c7dee0"/><path d="M205.0786,193.05011c-0.11704,-0.04068 -0.20062,-0.16339 -0.36368,-0.17323c-0.09674,0.20627 -0.18721,0.43811 -0.33253,0.60994c-0.05487,-0.06004 -0.12591,-0.13156 -0.17085,-0.20565c-0.06738,-0.1112 -0.08249,-0.22762 -0.01297,-0.32637c0.10298,-0.18068 0.19604,-0.34727 0.29908,-0.52798c0.21059,0.14928 0.29783,0.23228 0.58098,0.62331z" fill="#61acb1"/><path d="M215.20261,188.36626c-0.21275,0.06062 -0.38933,0.10451 -0.61828,0.15367c0.03194,-0.2522 0.05395,-0.49029 0.10208,-0.73103c0.16042,-0.05542 0.31099,-0.09666 0.48396,-0.10092c0.07258,0.24175 0.05423,0.44014 0.03223,0.67825z" fill="#c2dada"/><path d="M205.31485,189.0948c0.21275,-0.06062 0.4019,-0.05336 0.62718,-0.0628c-0.07425,0.24336 -0.12868,0.4585 -0.1831,0.67366c-0.15418,0.081 -0.29738,0.0429 -0.47662,0.02153c-0.07626,-0.20205 -0.01558,-0.39165 0.03255,-0.63232z" fill="#c1d9d9"/><path d="M213.58925,186.58824c-0.04643,-0.24436 -0.06416,-0.42605 -0.09807,-0.61926c0.14793,-0.10657 0.34704,-0.1134 0.54618,-0.12023c0.09609,0.17384 0.16607,0.3503 0.16393,0.56024c-0.16779,0.13476 -0.37947,0.09043 -0.61203,0.17929z" fill="#c6dedf"/><path d="M210.46158,194.0966c-0.20276,0.04653 -0.41184,0.06746 -0.60468,0.09991c-0.13584,-0.11743 -0.1933,-0.24273 -0.22097,-0.41038c0.19396,-0.13737 0.44163,-0.10971 0.6643,-0.18449c0.10607,0.15975 0.11749,0.31585 0.16136,0.49495z" fill="#c0d7d7"/><path d="M208.31854,184.14138c-0.17404,0.10917 -0.30947,0.26689 -0.55456,0.3046c-0.02766,-0.16764 -0.06522,-0.32115 -0.10282,-0.47462c0.11921,-0.16918 0.29951,-0.25278 0.50855,-0.27372c0.09976,0.13417 0.13109,0.26207 0.14884,0.44376z" fill="#c3dadb"/><path d="M205.33909,191.81827c-0.06479,-0.04595 -0.13953,-0.07776 -0.20435,-0.12369c-0.18035,0.08361 -0.22481,0.2846 -0.35025,0.42826c-0.12332,-0.06628 -0.12851,-0.19683 -0.23194,-0.29129c0.06434,-0.22924 0.23211,-0.36403 0.24787,-0.6277c0.17189,0.10074 0.23928,0.21189 0.3229,0.33462c0.06115,0.08561 0.19437,0.13783 0.21574,0.27981z" fill="#767676"/><path d="M214.01382,194.22569c-0.17404,0.10917 -0.30949,0.26692 -0.52844,0.30196c-0.09355,-0.10859 -0.11858,-0.21096 -0.15619,-0.36443c0.14167,-0.13215 0.31572,-0.24133 0.5023,-0.29935c0.09354,0.1086 0.12851,0.19683 0.18229,0.3618z" fill="#bdd3d4"/><path d="M207.52389,192.92307c0.17301,-0.00422 0.32978,-0.01991 0.48653,-0.03563c0.0961,0.17386 0.12378,0.34147 0.1415,0.52315c-0.12806,0.07834 -0.26135,0.02621 -0.37471,-0.05418c-0.1458,-0.10332 -0.29155,-0.20666 -0.25336,-0.43332z" fill="#bdd4d5"/><path d="M215.74674,190.04171c-0.20019,0.11178 -0.39046,0.20949 -0.5906,0.32128c0.04659,-0.41093 0.15438,-0.73625 0.64719,-0.74631c0.04748,0.13939 -0.01577,0.26369 -0.05657,0.42502z" fill="#bbd2d3"/><path d="M206.24593,191.53087c-0.08982,-0.14827 -0.09503,-0.27882 -0.10019,-0.40936c0.06953,-0.0987 0.17041,-0.06949 0.27493,-0.07994c0.07838,-0.00785 0.16669,-0.02981 0.27383,0.02501c0.08982,0.14827 -0.00946,0.28925 0.07045,0.45162c-0.18659,0.05804 -0.34962,0.04815 -0.51893,0.01272z" fill="#c3dadb"/><path d="M210.82359,188.687c0.21123,-0.23082 0.42238,-0.46169 0.69838,-0.6466c0.08722,0.083 0.05381,0.16502 0.00411,0.23548c-0.11294,0.19478 -0.24202,0.37807 -0.36123,0.5473c-0.08939,0.1269 -0.20648,0.08622 -0.34122,-0.13618z" fill="#b1c6c7"/><path d="M211.36498,194.77932c0.11182,-0.08985 0.23884,-0.06326 0.35329,-0.08782c0.21274,-0.06063 0.36845,0.02862 0.51316,0.23695c-0.23627,0.12851 -0.52005,0.1176 -0.76146,0.1156c-0.10346,-0.09448 -0.1322,-0.15715 -0.10499,-0.2647z" fill="#bbd2d3"/><path d="M213.09344,190.08469c0.12394,-0.31386 0.40618,-0.47317 0.68217,-0.65811c-0.04186,0.26633 -0.19089,0.47781 -0.31374,0.68671c-0.0732,0.13839 -0.14167,0.13218 -0.36842,-0.02862z" fill="#bad1d2"/><path d="M214.50371,193.21992c0.0339,0.1932 0.08769,0.35818 0.12162,0.55133c-0.06588,0.05903 -0.184,0.12329 -0.28592,0.19902c-0.24189,-0.2772 -0.23196,-0.29129 -0.08663,-0.46316c0.06955,-0.09869 0.15529,-0.18593 0.25094,-0.28724z" fill="#b5cbcc"/><path d="M213.62531,184.98582c0.13216,0.15714 0.17972,0.29654 0.22722,0.43592c-0.138,0.09247 -0.30731,0.05698 -0.48029,0.06123c-0.06375,-0.15087 -0.1112,-0.29026 -0.17494,-0.44115c0.10559,-0.11542 0.27122,-0.04031 0.42805,-0.05599z" fill="#c0d7d8"/><path d="M212.73082,193.63337c0.07729,0.0971 0.09247,0.21353 0.09767,0.34408c-0.17774,0.14885 -0.40036,0.22361 -0.63556,0.24714c-0.12332,-0.06628 -0.12591,-0.13154 -0.10863,-0.22498c0.21009,-0.12592 0.42023,-0.25181 0.64656,-0.36621z" fill="#bdd4d4"/><path d="M215.56585,188.26437c-0.00778,-0.19582 0.01054,-0.3942 0.00277,-0.59003c0.11447,-0.02456 0.21533,0.00464 0.31251,0.07351c0.07729,0.09709 0.06007,0.19055 0.05899,0.2955c-0.00734,0.07938 -0.01467,0.15873 -0.02201,0.23812c-0.10821,0.05017 -0.21274,0.06064 -0.35226,-0.01714z" fill="#b6cccc"/><path d="M212.57357,185.72021c-0.0339,-0.19319 -0.06156,-0.36078 -0.11169,-0.56548c0.07578,-0.07312 0.18399,-0.12331 0.35959,-0.06225c0.06377,0.15087 0.11751,0.31586 0.18749,0.49231c-0.14426,0.06686 -0.26239,0.13114 -0.43537,0.13536z" fill="#c1d9d9"/><path d="M215.90574,189.16074c-0.14426,0.06686 -0.26866,0.10557 -0.4317,0.09567c-0.0339,-0.1932 0.03305,-0.35717 0.06391,-0.50441c0.11182,-0.08985 0.2289,-0.04914 0.33969,-0.03404c0.03865,0.04855 0.07106,0.07151 0.06115,0.08561c-0.01104,0.11903 -0.02202,0.23809 -0.03305,0.35717z" fill="#b7cdce"/><path d="M215.91012,190.98211c-0.0203,-0.24699 0.06908,-0.37389 0.12607,-0.52376c0.05073,-0.17546 0.18766,-0.16296 0.3507,-0.1531c0.0339,0.1932 -0.02309,0.34305 -0.03778,0.50181c-0.13173,0.11803 -0.32351,0.04552 -0.43904,0.17505z" fill="#b6cccc"/><path d="M213.1408,194.70625c-0.16044,0.05541 -0.28482,0.09407 -0.41916,0.14686c-0.15572,-0.08926 -0.2529,-0.15816 -0.31662,-0.30902c0.1866,-0.05802 0.35698,-0.12751 0.51741,-0.18291c0.17557,0.06101 0.18074,0.19158 0.26802,0.27455c-0.01987,0.02819 -0.02353,0.06791 -0.04965,0.07053z" fill="#c2dada"/><path d="M212.60421,184.64248c-0.11813,0.06422 -0.19651,0.07212 -0.29738,0.04293c-0.10714,-0.05482 -0.13216,-0.15713 -0.18338,-0.25684c-0.03502,-0.08825 -0.13845,-0.18271 -0.08511,-0.29291c0.14058,-0.02717 0.28742,-0.0288 0.45309,0.04635c0.05379,0.16498 0.07517,0.30702 0.11277,0.46053z" fill="#bbd2d3"/><path d="M205.22937,190.11248c0.16304,0.00988 0.28378,0.01088 0.42069,0.02337c0.04387,0.1791 0.02915,0.33782 0.0307,0.50807c-0.12437,0.03867 -0.24513,0.03769 -0.35848,-0.04275c-0.02248,-0.03706 -0.04491,-0.07413 -0.04127,-0.11384c-0.02506,-0.10231 -0.04017,-0.2188 -0.05164,-0.37491z" fill="#bbd2d3"/><path d="M214.95091,193.51578c-0.08512,-0.29292 -0.08512,-0.29293 0.00278,-0.59001c0.16046,-0.0554 0.29997,0.02239 0.47553,0.08344c-0.09047,0.23188 -0.30058,0.35776 -0.47831,0.50661z" fill="#adc2c3"/><path d="M206.38224,191.92352c0.12437,-0.03867 0.26135,-0.02617 0.38462,0.04012c0.04387,0.1791 0.08148,0.33255 0.10908,0.50015c-0.3747,-0.05419 -0.3909,-0.06565 -0.49375,-0.54026z" fill="#b5cbcc"/><path d="M215.14854,187.27084c-0.15053,0.04132 -0.26499,0.06584 -0.42804,0.05596c-0.0799,-0.16232 -0.03909,-0.32373 -0.05682,-0.50544c0.0622,-0.01933 0.11444,-0.02455 0.16669,-0.02982c0.05228,-0.00524 0.11078,0.0151 0.17926,0.02136c0.11598,0.14565 0.13736,0.28764 0.1389,0.45791z" fill="#bbd1d2"/><path d="M204.72437,188.76077c-0.09244,-0.21354 0.01055,-0.39422 0.00901,-0.56444c0.13432,-0.05276 0.25766,0.0135 0.39461,0.02601c0.00415,0.23548 -0.06282,0.39946 -0.22069,0.52011c-0.02982,0.0423 -0.11445,0.02458 -0.1829,0.01834z" fill="#b6cccd"/><path d="M209.41653,183.65122c-0.24252,0.10294 -0.49131,0.18026 -0.72388,0.26908c-0.10345,-0.0945 -0.13844,-0.18269 -0.13372,-0.32733c0.27122,-0.04031 0.54247,-0.08056 0.83251,-0.04411c0.01254,0.0512 0.01879,0.07676 0.02506,0.10232z" fill="#acc1c2"/><path d="M212.56744,188.86613c-0.08054,0.21777 -0.17728,0.42405 -0.33881,0.58436c-0.0659,0.05902 -0.15419,0.08098 -0.23516,0.02358c-0.03236,-0.02295 -0.07729,-0.0971 -0.06738,-0.11121c0.1328,-0.22298 0.39516,-0.35413 0.64134,-0.49674z" fill="#a7bbbb"/><path d="M214.96169,186.39833c-0.09201,0.06164 -0.20277,0.04654 -0.32976,0.01994c-0.05379,-0.16498 -0.10757,-0.32998 -0.16135,-0.49495c0.14426,-0.06686 0.25137,-0.01207 0.36474,0.0683c0.06738,0.1112 0.105,0.26469 0.12635,0.40674z" fill="#b7cdcd"/><path d="M208.68539,193.89451c0.18035,-0.08361 0.34338,-0.07369 0.52263,-0.05236c0.09976,0.13417 0.15724,0.25947 0.13262,0.4323c-0.25396,-0.0532 -0.43841,-0.2051 -0.65525,-0.37993z" fill="#b7cece"/><path d="M204.71131,186.84866c0.00581,-0.24959 0.19973,-0.38696 0.21805,-0.58539c0.12436,-0.03866 0.17924,0.02137 0.18185,0.08665c0.00154,0.17022 -0.02308,0.34308 -0.12243,0.48405c-0.046,0.03083 -0.05594,0.04491 -0.27752,0.0147z" fill="#b4cacb"/><path d="M209.99486,184.20925c-0.06738,-0.11119 -0.08617,-0.18794 -0.06894,-0.28141c0.21274,-0.06063 0.43537,-0.13534 0.74161,-0.0874c-0.15267,0.25118 -0.39778,0.28883 -0.67268,0.36882z" fill="#b2c8c9"/><path d="M205.69627,191.03549c0.06375,0.15087 0.10498,0.2647 0.07777,0.37227c-0.05593,0.04493 -0.11448,0.0246 -0.17301,0.00423c-0.23409,-0.08138 -0.24555,-0.23753 -0.22721,-0.43592c0.10085,0.02918 0.21166,0.04431 0.32243,0.05943z" fill="#b5cbcb"/><path d="M214.27802,190.71308c0.11293,-0.19479 0.22217,-0.34989 0.38996,-0.48463c0.09091,0.04333 0.09352,0.10857 0.06373,0.15088c-0.05335,0.11021 -0.09049,0.23189 -0.14381,0.34206c-0.07947,0.11279 -0.16411,0.09505 -0.30987,-0.00831z" fill="#91a3a3"/><path d="M208.32154,186.06755c-0.00581,0.24959 -0.15113,0.42142 -0.27035,0.59061c-0.01987,0.02819 -0.07214,0.03345 -0.11446,0.02456c-0.03237,-0.02295 -0.06115,-0.08561 -0.05121,-0.09973c0.09047,-0.23188 0.25199,-0.3922 0.43598,-0.51548z" fill="#767676"/><path d="M207.20642,185.99585c-0.15312,-0.02397 -0.2341,-0.0814 -0.21683,-0.17487c0.03715,-0.12168 0.16887,-0.2397 0.36277,-0.37709c0.01408,0.22142 -0.0952,0.37649 -0.14594,0.55193z" fill="#93a5a6"/><path d="M210.37571,194.83912c0.23886,-0.06323 0.47143,-0.15209 0.68354,0.16743c-0.2488,0.0773 -0.45935,-0.07194 -0.68354,-0.16743z" fill="#9aadad"/><path d="M211.95673,192.11197c0.03087,-0.14727 0.07166,-0.3086 0.09264,-0.44178c0.09827,-0.03604 0.15679,-0.01572 0.24404,0.06731c-0.0084,0.18436 -0.17252,0.27944 -0.24572,0.41782c-0.03237,-0.02295 -0.04858,-0.03447 -0.09094,-0.04333z" fill="#c5dddd"/><path d="M210.33895,187.58226c0.01665,0.28665 -0.11252,0.46997 -0.3064,0.60735c-0.00994,0.0141 -0.05228,0.00525 -0.08468,-0.01773c-0.05853,-0.02036 -0.06115,-0.08561 -0.04126,-0.11381c0.09303,-0.1666 0.26088,-0.30136 0.43232,-0.47582z" fill="#aec2c3"/><path d="M204.88053,189.12517c0.0339,0.1932 -0.01681,0.36863 -0.05765,0.53001c-0.09825,0.03606 -0.15314,-0.02399 -0.14581,-0.10335c0.00475,-0.14466 -0.00043,-0.27518 0.03046,-0.42242c-0.01254,-0.0512 0.06585,-0.05902 0.17298,-0.00422z" fill="#767676"/><path d="M214.31183,185.49365c-0.11599,-0.14567 -0.17343,-0.27093 -0.22721,-0.43593c0.2503,0.09287 0.39868,0.26148 0.59304,0.39928c-0.04601,0.03083 -0.0659,0.05902 -0.092,0.06161c-0.09459,-0.00364 -0.17923,-0.02136 -0.27381,-0.02496z" fill="#a9bebf"/><path d="M207.8907,188.95461c0.13327,0.0522 0.18809,0.11219 0.2231,0.20048c-0.08316,0.15247 -0.22114,0.24492 -0.48246,0.27112c0.08681,-0.19219 0.17621,-0.31907 0.25933,-0.47159z" fill="#b9cfd0"/><path d="M213.22504,192.20768c0.09825,-0.03604 0.17299,-0.00419 0.2477,0.02761c0.06112,0.08563 0.01148,0.15611 -0.27554,0.46009c-0.13478,-0.22239 0.02308,-0.34308 0.02784,-0.48771z" fill="#869797"/><path d="M209.3472,186.9215c-0.20753,0.19117 -0.20082,0.49194 -0.54677,0.50037c0.08419,-0.25747 0.21957,-0.41517 0.54677,-0.50037z" fill="#93a4a5"/><path d="M215.60706,190.61924c-0.14899,0.21149 -0.24834,0.35251 -0.34766,0.49352c-0.01987,0.02819 -0.07214,0.03345 -0.1207,-0.00102c-0.01622,-0.01149 -0.03865,-0.04856 -0.04494,-0.07414c0.08677,-0.19218 0.19608,-0.34733 0.51328,-0.41839z" fill="#94a5a6"/><path d="M214.15161,192.54744c0.13691,0.01253 0.19543,0.03283 0.2367,0.14665c-0.06326,0.12428 -0.13647,0.26269 -0.28441,0.36925c-0.09242,-0.21356 0.00689,-0.35451 0.04767,-0.51587z" fill="#abbfc0"/><path d="M216.40004,189.97626c-0.10085,-0.0292 -0.14318,-0.03807 -0.1756,-0.06107c-0.03912,-0.32373 -0.0391,-0.32369 0.14854,-0.48664c0.10238,0.19943 0.00308,0.34043 0.02702,0.5477z" fill="#acc0c1"/><path d="M211.06312,194.31155c0.17667,-0.04391 0.34703,-0.11341 0.53989,-0.14583c0.07838,-0.00785 0.14317,0.03811 0.13216,0.15713c-0.21275,0.06062 -0.4155,0.10714 -0.67205,-0.01131z" fill="#9fb2b2"/><path d="M215.52067,187.25973c-0.04126,-0.11386 -0.06003,-0.19058 -0.04278,-0.28403c0.07214,-0.03346 0.14059,-0.02721 0.23151,0.01611c0.08724,0.08301 0.10235,0.19943 0.11748,0.31585c-0.09201,0.06164 -0.1991,0.00684 -0.30619,-0.04796z" fill="#aec2c3"/><path d="M209.91743,190.83541c-0.0799,-0.16232 -0.01037,-0.26109 0.04296,-0.37127c0.02982,-0.04229 0.09823,-0.03603 0.14684,-0.00159c0.03237,0.02295 0.06115,0.08563 0.04127,0.11381c-0.01101,0.11903 -0.10302,0.18071 -0.23107,0.25904z" fill="#91a2a3"/><path d="M213.3296,184.54359c-0.34705,0.1134 -0.37317,0.11606 -0.44469,-0.23065c0.14944,0.06368 0.3125,0.07353 0.44469,0.23065z" fill="#869696"/><path d="M206.3093,185.33867c-0.0663,-0.21616 0.04186,-0.2663 0.12761,-0.35355c0.09609,0.17385 0.09609,0.17385 -0.12761,0.35355z" fill="#555f5f"/><path d="M211.17362,191.15511c-0.04967,0.07052 -0.11919,0.16919 -0.23733,0.23348c-0.05638,-0.23026 -0.01664,-0.28664 0.11764,-0.33944c0.03607,-0.01671 0.08468,0.01773 0.11964,0.10597z" fill="#93a5a6"/><path d="M216.20785,191.21433c0.04279,0.28404 0.00674,0.30078 -0.28225,0.15931c0.03716,-0.1217 0.15156,-0.14627 0.28225,-0.15931z" fill="#8b9b9c"/><path d="M206.31681,184.60404c-0.05075,0.17546 -0.14639,0.27675 -0.24209,0.3781c-0.12698,-0.02658 -0.15571,-0.08927 -0.11595,-0.14566c0.07946,-0.11281 0.17513,-0.21412 0.35801,-0.23245z" fill="#767676"/><path d="M216.36322,188.78731c0.04748,0.13939 0.11489,0.25061 0.01925,0.35194c-0.00996,0.0141 -0.03606,0.01674 -0.05226,0.00526c-0.12592,-0.13157 -0.09872,-0.23915 0.03303,-0.35717z" fill="#5f6a6b"/><path d="M208.91159,189.95325c-0.00886,-0.09085 0.03087,-0.14729 0.08683,-0.19219c0.03607,-0.01671 0.08832,-0.02195 0.11077,0.01512c0.02248,0.03706 0.03502,0.08825 0.0151,0.11643c-0.03974,0.05636 -0.09567,0.10131 -0.21272,0.06061z" fill="#636e6f"/><path d="M215.2952,186.3388c0.14318,0.0381 0.21424,0.10958 0.19957,0.26831c-0.1693,-0.03547 -0.20433,-0.12367 -0.19957,-0.26831z" fill="#4a5354"/></g><g data-paper-data="{&quot;index&quot;:null}" fill="#000000" stroke="#000000" stroke-width="1.2"><path d="M190.14032,199.8897c0.63909,-1.76289 3.69591,-3.03345 5.23775,-4.6913c1.66002,-1.7849 1.74261,-3.79554 3.33999,-4.15068c1.11575,-0.24804 2.4486,0.76466 3.07696,1.37643c1.52798,1.48758 0.48099,5.15117 -2.33852,8.18281c-2.8195,3.03165 -6.34383,4.28337 -7.87179,2.79578c-0.6924,-0.6741 -1.97396,-2.05219 -1.4444,-3.51302z"/><path d="M191.36434,204.0549c0.91364,-2.44815 5.63929,-5.9955 5.63929,-5.9955c0,0 1.68629,-3.5433 1.74561,-3.60472c3.77902,-3.91443 6.46606,-1.38244 9.47478,1.54678c1.43196,1.3941 3.11934,4.09111 2.74169,6.10067c-0.4283,2.27909 -2.70328,3.83237 -4.77337,6.05821c-3.89537,4.18845 -9.01875,5.98408 -12.0747,3.00889c-1.34521,-1.30967 -3.97354,-3.84454 -2.75328,-7.11434z"/></g></g></g></g></svg>