<svg version="1.1" xmlns="http://www.w3.org/2000/svg" xmlns:xlink="http://www.w3.org/1999/xlink" width="71.64811" height="122.96716" viewBox="0,0,71.64811,122.96716"><defs><linearGradient x1="298.66552" y1="174.89272" x2="298.66552" y2="177.98282" gradientUnits="userSpaceOnUse" id="color-1"><stop offset="0" stop-color="#202020"/><stop offset="1" stop-color="#000000"/></linearGradient></defs><g transform="translate(-272.82794,-109.51626)"><g data-paper-data="{&quot;isPaintingLayer&quot;:true}" stroke-miterlimit="10" stroke-dasharray="" stroke-dashoffset="0" style="mix-blend-mode: normal"><g fill="none" fill-rule="nonzero" stroke="none" stroke-width="1" stroke-linecap="butt" stroke-linejoin="miter" font-family="sans-serif" font-weight="normal" font-size="12" text-anchor="start"><g><g data-paper-data="{&quot;index&quot;:null}"/></g><g data-paper-data="{&quot;index&quot;:null}"/><g data-paper-data="{&quot;index&quot;:null}"/></g><g fill="none" fill-rule="nonzero" stroke="none" stroke-width="1" stroke-linecap="butt" stroke-linejoin="miter" font-family="sans-serif" font-weight="normal" font-size="12" text-anchor="start"><g><g/><g><g/></g><g/></g><g/></g><path d="" fill="#2b1900" fill-rule="nonzero" stroke="#150c00" stroke-width="3" stroke-linecap="butt" stroke-linejoin="miter"/><path d="M308.77952,178.36845c0,2.65618 -2.79267,4.80942 -6.23762,4.80942c-1.83525,0 -5.11587,1.81446 -7.13335,0.51028c-1.76952,-1.14389 -2.42281,-5.37037 -2.23054,-6.08546c0.59977,-2.23057 6.6943,-3.22077 8.73746,-3.22077c3.44495,0 6.86406,1.33036 6.86406,3.98652z" fill="#000000" fill-rule="nonzero" stroke="#202020" stroke-width="1" stroke-linecap="butt" stroke-linejoin="miter"/><path d="M301.26058,177.89338c0,0 -5.31999,0.57454 -6.54963,0.55377c-0.53707,-0.00906 -0.92587,-0.45477 -0.89306,-0.96121c0.03495,-0.53934 0.51024,-1.14121 0.51024,-1.14121" fill="#202020" fill-rule="nonzero" stroke="#202020" stroke-width="1" stroke-linecap="round" stroke-linejoin="miter"/><path d="M303.07313,174.93261c0,0 -1.90311,2.13377 -2.31571,2.52853c-0.22363,0.21394 -3.03611,0.32599 -3.42477,0.35604c-1.71627,0.13272 -3.07466,0.33704 -3.07466,-0.09842c0,-0.14785 -0.01369,-0.82652 0.41209,-1.09911c1.11216,-0.71203 3.72265,-1.39749 5.33577,-1.57931c2.20839,-0.24893 3.06728,-0.10771 3.06728,-0.10771z" fill="url(#color-1)" fill-rule="nonzero" stroke="#737373" stroke-width="0" stroke-linecap="butt" stroke-linejoin="miter"/><path d="M312.51465,174.66905l-0.89537,17.02588" fill="none" fill-rule="nonzero" stroke="#000000" stroke-width="6" stroke-linecap="round" stroke-linejoin="miter"/><path d="M292.81045,185.59591c0,0 5.56711,1.30157 6.99982,-0.04363c2.14241,-2.01153 12.83821,-10.02184 12.83821,-10.02184c0,0 5.22013,7.51437 7.02088,9.69544c1.69957,2.0585 6.12286,3.04455 6.12286,3.04455" fill="none" fill-rule="nonzero" stroke="#000000" stroke-width="6" stroke-linecap="round" stroke-linejoin="miter"/><g><g><g stroke-width="1.2"><path d="M319.9074,190.30182l2.65313,27.88773c0,0 6.41066,0.44268 6.25821,8.06251c-0.00869,0.43441 -0.09963,2.56726 -2.74797,3.19146c-2.53657,0.59785 -7.59306,-0.29527 -9.44064,-0.63462c-0.85811,-0.15762 -2.16528,-0.84514 -3.00067,-2.02232c-0.84108,-1.18525 -0.75024,-2.90897 -0.74967,-3.87865c0.00023,-0.39495 -1.88745,-31.4493 -1.88745,-31.4493" fill="#ababab" fill-rule="evenodd" stroke="#202020" stroke-linecap="round" stroke-linejoin="round"/><path d="M310.83395,197.74761c0.15624,-7.80908 5.00899,-7.94423 7.53735,-7.87353c1.09943,0.03075 0.95085,-2.05636 1.92381,4.05143c0.21427,1.34517 0.63537,6.86758 1.53583,11.56804c0.61661,3.21869 1.77319,6.06079 1.98927,6.8773c0.51053,1.92924 0.30052,3.68795 0.30052,3.68795l-0.92569,-1.27816c0,0 0.60998,0.89076 0.85426,1.42225c0.76101,1.65571 1.34313,2.90536 1.34313,2.90536c0,0 -6.46564,-0.49363 -8.98389,1.94205c-2.51825,2.43569 -1.2704,7.02013 -1.2704,7.02013c0,0 -4.79039,-0.87025 -5.17428,-3.99465c-0.09465,-0.77025 0.64834,-3.06238 0.64834,-3.06238c0,0 -0.54774,0.12965 -0.56549,-0.40367c-0.00905,-0.27187 0.7249,-4.30497 0.88797,-8.84198c0.21467,-5.97264 -0.12326,-12.89498 -0.10075,-14.02014z" fill="#0006bf" fill-rule="nonzero" stroke="#001026" stroke-linecap="butt" stroke-linejoin="miter"/></g><path d="M302.61463,192.20378c-0.00894,-0.22922 1.08805,0.44661 3.57378,0.52471c3.27931,0.10305 8.30148,-0.35797 9.71368,-0.59386c3.66207,-0.61168 4.28178,-2.2398 4.3055,-1.63215c0.08773,2.24865 -1.98365,6.41392 -6.17303,6.64239c-1.84103,0.1004 -5.60662,0.8534 -7.739,0.06173c-2.71996,-1.00983 -3.63172,-3.74238 -3.68091,-5.00284z" fill="#004fd9" fill-rule="nonzero" stroke="#001026" stroke-width="1.2" stroke-linecap="butt" stroke-linejoin="miter"/><g fill-rule="nonzero" stroke-linecap="butt" stroke-linejoin="miter"><g fill="none" stroke="none" stroke-width="1" font-family="sans-serif" font-weight="normal" font-size="12" text-anchor="start"/><path d="M302.17275,190.7413c0,0 7.86895,1.41555 11.48497,1.39581c3.61601,-0.01973 6.59512,-1.4945 6.59512,-1.4945c0,0 0.02846,2.20109 -1.58415,4.34329c-1.24827,1.65819 -3.64728,3.37597 -6.74806,3.4124c-2.8249,0.0332 -5.97649,-0.6684 -7.53651,-2.10809c-2.36453,-2.18215 -2.21135,-5.54893 -2.21135,-5.54893z" fill="#004fd9" stroke="#001026" stroke-width="1.2"/></g><g stroke-width="1.2"><path d="M310.86573,196.32017c0,0 -3.07128,32.44179 -3.63173,32.54888c-1.60834,0.30729 -10.42215,-2.44431 -10.42215,-2.44431l5.66549,-32.61723" data-paper-data="{&quot;index&quot;:null}" fill="#ffab19" fill-rule="evenodd" stroke="#001026" stroke-linecap="round" stroke-linejoin="round"/><path d="M312.22308,195.79712c0,0 -0.71746,6.86023 -0.92938,10.49767c-0.20325,3.48886 -0.3172,10.89988 -0.3172,10.89988c0,0 0.86157,5.38504 0.01923,6.71299c-0.39013,0.61506 -0.69756,-3.04029 -0.69756,-3.04029c0,0 0.34318,4.12087 0.37698,4.48408c0.23577,2.53425 -0.84022,5.8622 -3.6598,6.17838c-3.09573,0.34713 -8.22797,0.7392 -10.87369,-1.26579c-1.12571,-0.85309 -2.65054,-3.36431 -2.24015,-6.03942c0.46282,-3.01683 2.94826,-6.17732 2.94826,-6.17732l-2.28382,3.44508c0,0 -0.02381,-1.72018 0.3478,-2.98203c0.41732,-1.41705 2.03493,-5.10879 2.03493,-5.10879l4.9037,-20.77645" data-paper-data="{&quot;index&quot;:null}" fill="#004fd9" fill-rule="evenodd" stroke="#001026" stroke-linecap="round" stroke-linejoin="round"/><path d="M309.3555,226.84642c-0.0776,1.82159 -0.7106,3.93801 -2.08456,5.037c-1.37905,1.10306 -9.66717,0.66593 -10.94846,-0.68217c-1.2168,-1.28024 -1.71247,-3.6465 -1.63673,-5.42434c0.15549,-3.64992 3.56546,-6.36938 7.61641,-6.07404c4.05093,0.29533 7.20883,3.49361 7.05332,7.14356z" fill="#ababab" fill-rule="nonzero" stroke="#202020" stroke-linecap="butt" stroke-linejoin="miter"/></g></g><g fill="none" fill-rule="nonzero" stroke="none" stroke-width="1" stroke-linecap="butt" stroke-linejoin="miter" font-family="sans-serif" font-weight="normal" font-size="12" text-anchor="start"/></g><g fill-rule="nonzero" stroke-linecap="butt" stroke-linejoin="miter"><g data-paper-data="{&quot;index&quot;:null}" stroke="none" stroke-width="1"><path d="M330.39706,175.31943c-0.1765,-0.0907 -0.20204,-0.24691 -0.20444,-0.43648c0.01649,-0.29945 0.08365,-0.58917 0.1171,-0.88537c-0.04128,-0.06468 -0.08255,-0.12936 -0.12694,-0.17571c-0.90334,-1.04373 -1.27685,-2.32601 -1.45931,-3.70396c-0.03737,-0.29088 -0.09163,-0.58507 -0.04132,-0.87799c0.00946,-0.05492 0.00511,-0.13141 -0.02244,-0.17455c-0.15136,-0.23715 -0.1105,-0.47519 -0.08339,-0.73478c0.0208,-0.22295 0.07543,-0.43943 0.11315,-0.65914c0.02201,-0.12815 0.07781,-0.24984 0.19494,-0.32191c0.11713,-0.07203 0.19298,-0.20877 0.26566,-0.32718c0.35174,-0.72674 0.81235,-1.37583 1.36493,-1.95047c0.31639,-0.31743 0.6709,-0.55191 1.04231,-0.78309c1.09422,-0.67857 2.2777,-0.96171 3.51544,-0.95072c0.55658,0.01246 1.11434,0.11969 1.65951,0.30014c0.4131,0.13617 0.77042,0.39403 1.10769,0.6669c1.07314,0.86833 1.76226,2.04105 2.15382,3.4214c0.07743,0.26078 0.09792,0.54839 0.11838,0.83604c0.01929,0.19283 0.05861,0.37064 0.20875,0.513c0.13637,0.12081 0.17571,0.29857 0.17809,0.48815c-0.01649,0.29945 -0.06679,0.5924 -0.1171,0.88536c-0.01572,0.09157 -0.06209,0.15832 -0.10849,0.22504c-0.1961,0.22708 -0.29397,0.49198 -0.36114,0.78171c-0.12376,0.61929 -0.41027,1.16943 -0.67988,1.72283c-0.10534,0.20672 -0.22754,0.41018 -0.38041,0.58885c-0.48497,0.58764 -0.9806,1.13545 -1.60944,1.54414c-0.04714,0.27463 -0.11435,0.56434 -0.1646,0.85729c-0.01886,0.10988 -0.04086,0.23802 -0.15485,0.29175c-0.09707,0.05697 -0.09905,0.17011 -0.11789,0.27995c-0.14261,0.72913 -0.26835,1.4615 -0.41097,2.19063c-0.29666,1.6263 -0.5964,3.2709 -0.92685,4.8907c-0.32417,1.58318 -0.59758,3.17611 -0.88795,4.76578c-0.044,0.25634 -0.11868,0.48785 -0.16266,0.74417c-0.21372,1.24504 -0.42747,2.4901 -0.65809,3.73189c-0.03772,0.21969 -0.04164,0.44592 -0.17763,0.6278c-0.04638,0.06677 -0.0452,0.16151 -0.06092,0.25307c-0.15713,0.9155 -0.33434,1.84602 -0.4915,2.76151c-0.00629,0.03662 -0.01574,0.09154 -0.02201,0.12815c-0.03337,0.29622 -0.17684,0.41994 -0.43548,0.50261c-0.86666,0.2684 -1.71369,0.21904 -2.54112,-0.14807c-0.21029,-0.09719 -0.41428,-0.23097 -0.59512,-0.39811c-0.13638,-0.12081 -0.17886,-0.28026 -0.16435,-0.46659c0.04361,-0.55904 0.07028,-1.12131 0.11702,-1.69867c0.03535,-0.40933 0.10764,-0.83044 0.09227,-1.2495c-0.03504,-0.91459 0.13586,-1.80853 0.15149,-2.71335c0.01723,-0.50734 -0.00245,-1.00292 0.0317,-1.50704c0.04044,-0.54071 0.04395,-1.06964 0.06432,-1.59528c0.042,-0.95654 0.12093,-1.92488 0.146,-2.88466c0.00778,-1.2657 0.08313,-2.51849 0.15851,-3.7712c0.02159,-0.4309 0.04314,-0.8617 0.06474,-1.2926c0.04552,-0.67217 0.09423,-1.36257 0.13978,-2.0347c0.02905,-0.37271 0.02118,-0.73359 0.0502,-1.10626c0.0153,-0.39429 0.07501,-0.74211 0.11036,-1.15146zM330.86357,175.14433c0.18396,0.14886 0.37421,0.26111 0.59077,0.32168c0.41117,0.24926 0.86122,0.37363 1.31128,0.49796c0.56524,0.16541 1.15993,0.26083 1.73774,0.35299c0.66231,0.10841 1.30534,0.024 1.96846,-0.07547c0.0739,-0.02363 0.14778,-0.04724 0.25861,-0.08268c0.02516,-0.14646 0.05026,-0.29295 0.07541,-0.43941c0.00629,-0.03662 -0.00432,-0.07649 -0.0118,-0.13465c-0.11831,-0.02277 -0.23976,-0.02719 -0.36437,-0.01333c-0.21225,0.01595 -0.40131,-0.00153 -0.61354,0.0144c-0.5259,0.01236 -1.04047,-0.14326 -1.55693,-0.18582c-0.27357,-0.03365 -0.55341,-0.03078 -0.82069,-0.10106c-0.58214,-0.16865 -1.17998,-0.24577 -1.74951,-0.48767c-0.14584,-0.06588 -0.30856,-0.13495 -0.4544,-0.20086c-0.04874,-0.12288 -0.19026,-0.11221 -0.26849,-0.16511c-0.09197,-0.07443 -0.18398,-0.14886 -0.37301,-0.16627c0.07743,0.26078 -0.01411,0.48906 0.01575,0.72175c0.08137,0.03458 0.13011,0.15739 0.25472,0.14353zM331.43275,175.89683c-0.36045,-0.23955 -0.45871,-0.27732 -0.68473,-0.28297c-0.0208,0.22295 -0.03847,0.42764 -0.0593,0.65059c-0.02201,0.12815 0.02986,0.23272 0.12188,0.30716c0.06135,0.04964 0.14583,0.06586 0.20715,0.11548c0.23152,0.17694 0.50944,0.28708 0.783,0.32076c0.10262,0.11426 0.23779,0.14031 0.37303,0.1663c0.75742,0.16454 1.49485,0.34411 2.26798,0.41713c0.34433,0.02838 0.69181,0.03846 1.02549,0.02694c0.26614,-0.0245 0.54911,-0.04573 0.78965,-0.22647c0.04086,-0.23804 0.08168,-0.47605 0.12257,-0.71409c-0.14148,0.0106 -0.26613,0.02447 -0.37377,0.04159c-0.49839,0.05545 -0.99049,0.07436 -1.47004,0.01998c-0.61788,-0.06207 -1.22007,-0.21567 -1.82539,-0.35095c-0.28735,-0.05524 -0.53892,-0.21707 -0.82938,-0.25402c-0.13011,-0.15739 -0.29598,-0.20821 -0.44808,-0.23747zM330.03034,196.67821c0.21776,0.15536 0.45122,0.21917 0.69098,0.24634c0.01374,0.02154 0.04443,0.04637 0.06135,0.04962c0.40878,0.05969 0.82386,0.08275 1.22398,-0.01055c0.23548,-0.0493 0.46774,-0.08029 0.6713,-0.24921c0.17602,-1.02534 0.35199,-2.05065 0.53749,-3.13094c-0.4402,0.12339 -0.86161,0.13701 -1.27977,0.13222c-0.36753,0.005 -0.69612,-0.11493 -1.05734,-0.14655c-0.13521,-0.02598 -0.25039,-0.06702 -0.38561,-0.09301c-0.18708,-0.13054 -0.3974,-0.22772 -0.64776,-0.29477c-0.09429,0.5493 -0.04707,1.08796 -0.10127,1.60713c-0.04044,0.54072 -0.06398,1.08473 -0.10127,1.60711c0.1301,0.15739 0.25903,0.22005 0.38798,0.28263zM330.23955,192.91679c0.10263,0.11425 0.23468,0.1586 0.36987,0.18457c0.12264,0.09927 0.27793,0.1102 0.42687,0.15774c0.47013,0.10928 0.95595,0.12704 1.43112,0.10493c0.28298,-0.02125 0.57228,-0.07914 0.84032,-0.21673c0.01259,-0.07324 0.04204,-0.14322 0.05459,-0.21647c0.15405,-0.8972 0.3049,-1.776 0.47579,-2.66993c0.18033,-0.94883 0.35752,-1.87938 0.53787,-2.82823c0.25576,-1.3883 0.52533,-2.75497 0.78108,-4.14327c0.30097,-1.54981 0.54806,-3.09106 0.88286,-4.63437c0.06092,-0.25307 0.09111,-0.53097 0.13829,-0.80563c-0.19847,0.03751 -0.38633,0.11487 -0.57855,0.11573c-0.61985,0.05106 -1.23774,-0.01101 -1.84934,-0.10966c-0.54083,-0.10399 -1.07856,-0.22628 -1.61628,-0.3486c-0.21345,-0.07887 -0.4131,-0.13617 -0.62655,-0.21503c-0.11634,-0.13586 -0.27476,-0.12848 -0.40369,-0.19109c-0.14584,-0.06588 -0.26847,-0.1651 -0.44064,-0.17929c-0.06524,0.1766 -0.05657,0.32959 -0.06168,0.46098c0.00048,1.11604 -0.1374,2.22434 -0.18763,3.33059c-0.03492,0.71203 -0.06988,1.42404 -0.08785,2.13929c-0.042,0.95654 -0.06393,1.89799 -0.10276,2.83621c-0.02743,0.77017 -0.0549,1.54037 -0.09927,2.30731c-0.03691,0.82513 -0.08756,1.62865 -0.14132,2.45055c-0.04121,0.74863 -0.08555,1.51556 -0.11301,2.28574c0.14895,0.04754 0.23152,0.1769 0.36987,0.1846zM340.09638,169.4674c-0.4001,0.09329 -0.76765,0.09829 -1.13828,0.12161c-0.38756,0.02006 -0.76134,0.06171 -1.14574,0.06344c-0.36753,0.00499 -0.74567,-0.02989 -1.11002,-0.04323c-0.38129,-0.01657 -0.76254,-0.03311 -1.15755,-0.07123c-0.36121,-0.03164 -0.7362,-0.08483 -1.09743,-0.11646c-0.37497,-0.05319 -0.73739,-0.1796 -1.12496,-0.15954c-0.33605,-0.17807 -0.72047,-0.17634 -1.07229,-0.26287c-0.36552,-0.10813 -0.75431,-0.18284 -1.11985,-0.29095c-0.34863,-0.10487 -0.71105,-0.2313 -1.05655,-0.35446c-0.36242,-0.12645 -0.69534,-0.32287 -1.06715,-0.39431c-0.10924,0.43294 -0.13124,0.56108 -0.0526,0.91665c0.18708,0.13054 0.37421,0.26111 0.60139,0.3615c0.27791,0.11018 0.55579,0.22035 0.84745,0.35209c0.55266,0.23867 1.09157,0.45573 1.68312,0.56947c0.40565,0.078 0.81445,0.13765 1.20752,0.28891c0.08137,0.03458 0.18278,0.05404 0.29044,0.03692c0.21224,-0.01596 0.42883,0.04464 0.63165,0.0836c0.74368,0.14299 1.5062,0.17612 2.255,0.18765c0.98857,0.03875 1.9653,-0.05716 2.95146,-0.20805c0.19533,-0.0192 0.39069,-0.03837 0.55415,-0.17717c0.08097,-0.26814 0.11121,-0.54606 0.12023,-0.90364zM333.64214,165.9758c-0.17605,0.21203 -0.28454,0.43706 -0.4099,0.65884c-0.11909,0.18515 -0.1737,0.40163 -0.14381,0.63433c0.02912,0.44061 0.00441,0.8898 -0.08795,1.32598c-0.00629,0.03662 0.00116,0.0948 -0.00198,0.11309c0.07507,0.07115 0.14268,0.08413 0.23664,0.04549c0.02004,-0.01504 0.04323,-0.04843 0.04638,-0.06676c0.14186,-0.52124 0.31751,-1.03594 0.52699,-1.54418c0.02949,-0.06997 0.06523,-0.17659 0.04399,-0.25634c-0.01731,-0.30596 -0.03464,-0.61189 -0.21036,-0.91049zM332.15342,168.54552c0.13556,-0.4846 0.3018,-0.94439 0.48181,-1.38263c0.05891,-0.13997 0.06405,-0.27139 0.03847,-0.42762c-0.0468,-0.23593 -0.13368,-0.44181 -0.2174,-0.66597c-0.02123,-0.07975 -0.0393,-0.17776 -0.14701,-0.16065c-0.13795,0.29502 -0.28964,0.5685 -0.39379,0.86998c0.15533,0.82425 0.15531,0.82422 0.02135,1.70632c0.04126,0.06469 0.10576,0.09598 0.21658,0.06056zM336.00004,171.15753c-0.12419,0.31658 -0.23147,0.63643 -0.33876,0.95625c-0.02949,0.06998 -0.05894,0.13998 -0.05462,0.21645c0.068,0.31568 0.11917,0.62814 0.28111,0.90518c0.24054,-0.18071 0.33837,-0.44561 0.48381,-0.68246c0.0727,-0.11839 0.07465,-0.23153 0.04595,-0.36944c-0.08491,-0.31894 -0.13604,-0.63142 -0.16708,-0.95887c0.00315,-0.01832 -0.02749,-0.04313 -0.05501,-0.08621c-0.05385,0.00855 -0.12464,0.01387 -0.19535,0.01919zM337.03181,166.57074c-0.27002,0.25071 -0.41858,0.50586 -0.58402,0.75775c-0.05267,0.10336 -0.05147,0.19814 -0.05027,0.29294c0.026,0.45893 0.00121,0.90813 -0.09424,1.36261c-0.00944,0.05492 -0.00198,0.11309 -0.01138,0.16802c0.18278,0.05406 0.21973,0.04226 0.24486,-0.10422c0.08172,-0.47609 0.24482,-0.91756 0.48611,-1.30617c0.14542,-0.23683 0.16624,-0.45981 0.12259,-0.71409c-0.0456,-0.14119 -0.07743,-0.2608 -0.11361,-0.45688zM334.14466,168.94727c0.0845,0.01623 0.11397,-0.0538 0.12656,-0.12702c0.08802,-0.51265 0.30807,-0.98101 0.52817,-1.4494c0.17054,-0.38331 0.17524,-0.81743 -0.00914,-1.26897c-0.14659,0.14204 -0.19493,0.3219 -0.30773,0.47043c-0.22873,0.31538 -0.28845,0.66325 -0.28372,1.04246c-0.00153,0.41579 0.01381,0.83489 -0.08912,1.23119c0.0075,0.05816 0.02122,0.07977 0.03499,0.10131zM335.84563,166.36159c-0.13914,0.20021 -0.2488,0.33043 -0.34153,0.46392c-0.15915,0.2153 -0.21379,0.43176 -0.19019,0.70107c0.04169,0.36738 0.01264,0.74007 -0.0333,1.10949c-0.00511,0.13143 -0.03025,0.2779 -0.05225,0.40604c0.08137,0.03458 0.10767,-0.0171 0.11397,-0.05373c0.17564,-0.51475 0.3682,-1.02619 0.62526,-1.50638c0.03261,-0.08829 0.06207,-0.15829 0.0609,-0.25307c-0.0405,-0.27259 -0.0641,-0.54191 -0.18283,-0.86735zM337.09626,171.17917c0.0079,0.36089 -0.0994,0.68069 -0.18979,1.00379c-0.01571,0.09155 -0.07899,0.15504 -0.06091,0.25307c0.02557,0.15626 0.1781,0.48818 0.33573,0.68874c0.14977,-0.16036 0.22126,-0.37356 0.32347,-0.56199c0.07899,-0.15505 0.08724,-0.30476 0.02787,-0.46748c-0.09118,-0.28231 -0.14861,-0.55817 -0.14902,-0.86088c0.00316,-0.01832 -0.02439,-0.06142 -0.03813,-0.08296c-0.06448,-0.03131 -0.13208,-0.04433 -0.2492,0.02776zM331.10849,171.27624c0.05742,0.27581 -0.01295,0.58386 0.09832,0.85113c0.12145,0.00445 0.18789,-0.07735 0.26806,-0.1376c0.14346,-0.12375 0.29751,-0.20757 0.4166,-0.39273c-0.04481,-0.34907 0.05182,-0.70876 0.02703,-1.07288c-0.07507,-0.07115 -0.15957,-0.08743 -0.25038,-0.06703c-0.15485,0.29179 -0.34035,0.55874 -0.55965,0.81919zM333.96049,170.93565c-0.06524,0.1766 -0.13047,0.35318 -0.23698,0.46508c-0.25625,0.27224 -0.29276,0.5868 -0.21098,0.92403c0.03182,0.11959 0.01296,0.22946 0.09552,0.35884c0.20047,-0.15063 0.35336,-0.32927 0.5062,-0.50796c0.04324,-0.04843 0.05578,-0.12167 0.05461,-0.21645c-0.02047,-0.28766 -0.02718,-0.55372 -0.04762,-0.84135c0.00946,-0.05492 -0.01181,-0.13467 -0.16079,-0.18223zM332.89566,170.73094c-0.13675,0.38981 -0.30104,0.73648 -0.57104,0.98721c-0.06013,0.04518 -0.05579,0.12167 -0.06836,0.1949c-0.01138,0.16804 -0.00588,0.33935 0.06725,0.52359c0.28064,-0.21084 0.47676,-0.43797 0.67601,-0.68334c0.06641,-0.0818 0.09905,-0.17008 0.101,-0.2832c0.00082,-0.2079 0.01844,-0.41258 0.01921,-0.62047c0.00316,-0.01832 -0.02438,-0.06145 -0.03813,-0.08298c-0.05071,-0.00975 -0.10142,-0.01951 -0.1859,-0.03571zM338.16236,167.7149c-0.03619,-0.19608 -0.06919,-0.41051 -0.10536,-0.60662c-0.01374,-0.02154 -0.02752,-0.04314 -0.05502,-0.08622c-0.21422,0.12903 -0.35336,0.32927 -0.45554,0.51765c0.02089,0.59036 0.04804,1.14405 -0.05883,1.76659c0.28692,-0.24746 0.21886,-0.56316 0.31043,-0.79142c0.101,-0.2832 0.23263,-0.54158 0.36428,-0.79998zM333.4809,165.49086c-0.1313,-0.2522 -0.22883,-0.49792 -0.44342,-0.67157c-0.08962,0.11514 -0.18983,0.19047 -0.25938,0.29061c-0.06955,0.10013 -0.15601,0.19695 -0.178,0.32514c0.02244,0.17451 0.12188,0.30714 0.18439,0.45154c0.06253,0.14438 0.08806,0.30065 0.20755,0.41818c0.16859,-0.27023 0.31716,-0.52533 0.48891,-0.81387zM331.06542,168.37417c0.16189,-0.53628 0.29115,-0.9843 0.42045,-1.43225c0.00629,-0.03662 0.03265,-0.0883 0.00511,-0.13141c-0.08374,-0.22414 -0.12739,-0.47841 -0.3251,-0.64882c-0.11162,0.24333 -0.22009,0.46838 -0.31165,0.69667c0.14743,0.46338 0.18717,0.94382 0.21119,1.51587zM334.72042,172.9164c0.17413,-0.09893 0.23935,-0.27552 0.33211,-0.40898c0.11281,-0.14853 0.1749,-0.30682 0.14185,-0.52121c-0.03736,-0.29088 -0.07472,-0.58179 0.00936,-0.86827c-0.11204,-0.05937 -0.18278,-0.05406 -0.20164,0.0558c-0.06403,0.27138 -0.13125,0.56109 -0.27351,0.77962c-0.19493,0.3219 -0.10688,0.62257 -0.00817,0.96307zM333.11633,172.19188c-0.27315,0.26901 -0.49992,0.47131 -0.7098,0.67681c-0.02201,0.12815 0.01612,0.21117 0.03737,0.29087c0.03813,0.08298 0.05307,0.1993 0.16508,0.25869c0.2111,-0.11074 0.4115,-0.26132 0.59821,-0.43346c-0.00985,-0.24774 -0.03974,-0.48047 -0.09085,-0.79294zM335.61584,173.59923c-0.10496,-0.30388 -0.19934,-0.5679 -0.29051,-0.85022c-0.15917,0.21529 -0.31521,0.41228 -0.47123,0.60922c0.07743,0.26078 0.12423,0.49674 0.29877,0.70047c0.1804,-0.13552 0.31323,-0.29914 0.46298,-0.45948zM334.3928,165.06091c-0.22167,0.07084 -0.31324,0.29914 -0.44609,0.46273c-0.04324,0.04843 -0.04206,0.1432 -0.01766,0.20466c0.06998,0.20262 0.12618,0.38364 0.19928,0.56793c-0.00315,0.01832 0.03069,0.0248 0.06448,0.03132c0.16234,-0.23358 0.31083,-0.48874 0.47318,-0.72232c-0.05307,-0.19932 -0.16314,-0.3718 -0.27322,-0.54427zM336.88132,166.1257c-0.03305,-0.21439 -0.0692,-0.41049 -0.2331,-0.57442c-0.1635,0.13882 -0.36081,0.27109 -0.48305,0.47456c0.02869,0.13792 0.02361,0.26933 0.07235,0.39217c0.03181,0.11959 -0.01023,0.26284 0.13248,0.347c0.17607,-0.21202 0.35213,-0.42405 0.51134,-0.63935zM336.10471,173.59865c0.03932,0.17777 0.17572,0.29857 0.30897,0.43767c0.17296,-0.19369 0.37023,-0.32603 0.48186,-0.56933c-0.11007,-0.1725 -0.16001,-0.39011 -0.32078,-0.57234c-0.16234,0.23358 -0.30775,0.47042 -0.47005,0.70401zM338.19445,171.08772c-0.07347,0.32633 -0.08246,0.68396 -0.18979,1.0038c-0.08095,0.26814 0.01226,0.43734 0.18991,0.62283c0.15286,-0.17864 0.22126,-0.37356 0.30966,-0.58353c-0.16943,-0.33517 -0.19425,-0.69933 -0.30982,-1.04307zM330.16295,167.93585c0.07076,-0.0053 0.08016,-0.06023 0.08962,-0.11514c0.05777,-0.23475 0.10177,-0.49111 0.17644,-0.72264c0.12731,-0.33489 -0.01027,-0.55048 -0.19543,-0.79414c-0.05581,0.1217 -0.1053,0.20671 -0.13793,0.29501c-0.0884,0.20997 -0.13989,0.4081 -0.02236,0.63878c0.06252,0.14438 0.068,0.31571 0.07671,0.46869c-0.02949,0.06998 -0.07898,0.15503 0.01297,0.22945zM330.25561,171.56622c0.09707,-0.05697 0.16037,-0.12048 0.22049,-0.16565c0.19415,-0.11396 0.27317,-0.26902 0.27707,-0.49523c-0.00235,-0.18957 0.04913,-0.38775 0.06364,-0.57409c0.00946,-0.05493 0.03576,-0.10661 -0.07942,-0.14768c-0.12854,0.24007 -0.29083,0.4737 -0.48382,0.68246c-0.04324,0.04843 -0.05892,0.13995 -0.07153,0.21319c0.00865,0.15295 0.02045,0.28767 0.07354,0.48698zM334.40085,173.25214c-0.03617,-0.19608 -0.0523,-0.40722 -0.14236,-0.59479c-0.20359,0.16893 -0.41779,0.29795 -0.57697,0.51321c0.07,0.2026 0.08925,0.39542 0.25631,0.54105c0.16352,-0.13881 0.34079,-0.25601 0.46298,-0.4595zM335.267,166.47731c0.20357,-0.16893 0.34271,-0.36915 0.448,-0.57585c-0.06998,-0.2026 -0.12621,-0.3836 -0.25004,-0.57766c-0.15409,0.08388 -0.26373,0.21411 -0.35962,0.36589c0.06055,0.2575 0.10421,0.51179 0.16159,0.78763zM332.75203,173.80516c0.07942,0.14769 0.11439,0.24895 0.18635,0.33842c0.04128,0.06468 0.08569,0.11105 0.13013,0.15742c0.18472,-0.05904 0.35885,-0.15797 0.4917,-0.32157c-0.05307,-0.19932 -0.10616,-0.39865 -0.2532,-0.55934c-0.1804,0.13552 -0.35452,0.23447 -0.55496,0.38505zM330.00195,169.89085c-0.22364,0.18399 -0.38397,0.30443 -0.56754,0.45828c-0.02949,0.06997 -0.03459,0.20136 -0.00274,0.321c0.01495,0.11633 -0.04086,0.23801 0.04484,0.34907c0.16155,-0.02569 0.27867,-0.09774 0.38519,-0.20965c0.03338,-0.29622 0.08056,-0.57085 0.14028,-0.91871zM333.31383,164.53191c0.06882,0.10782 0.1376,0.21562 0.20636,0.32342c0.06883,0.10782 0.14075,0.19726 0.20953,0.30507c0.15288,-0.17863 0.29635,-0.30238 0.36473,-0.49727c-0.03184,-0.11959 -0.12696,-0.17571 -0.20203,-0.24691c-0.07507,-0.07115 -0.14075,-0.19726 -0.26217,-0.20172c-0.12344,0.1087 -0.24053,0.18071 -0.31639,0.31746zM334.8121,174.31474c-0.10379,-0.20908 -0.15057,-0.44509 -0.32829,-0.63054c-0.14344,0.12375 -0.27001,0.25071 -0.41347,0.37444c0.10378,0.20908 0.17689,0.39339 0.36401,0.52391c0.13402,-0.06881 0.26178,-0.10097 0.37772,-0.26783zM331.70672,166.26568c0.158,-0.31006 0.29279,-0.58675 0.42756,-0.86344c-0.04874,-0.12288 -0.08057,-0.24249 -0.19261,-0.30183c-0.22051,0.16567 -0.349,0.40572 -0.4944,0.64257c0.04875,0.12288 0.09748,0.24572 0.16627,0.35352c0.00432,0.0765 0.03498,0.10128 0.09315,0.16921zM331.96709,172.78421c-0.06686,-0.22091 -0.02913,-0.44064 -0.1392,-0.61311c-0.21734,0.14735 -0.41464,0.27965 -0.58761,0.47339c0.09634,0.15093 0.06486,0.334 0.21504,0.47636c0.1847,-0.05905 0.31445,-0.20436 0.51176,-0.33662zM337.70153,165.92404c-0.13717,0.08711 -0.26056,0.19579 -0.35334,0.32929c0.06372,0.23922 0.11048,0.47517 0.1679,0.75098c0.13596,-0.18188 0.26254,-0.30889 0.4292,-0.46596c-0.0637,-0.23923 -0.11362,-0.45688 -0.24375,-0.6143zM330.27098,171.98528c0.02673,0.25103 0.04288,0.46217 0.18675,0.64116c0.15092,-0.06557 0.28181,-0.11601 0.37458,-0.24951c-0.02988,-0.23271 -0.04288,-0.46213 -0.08339,-0.73473c-0.17413,0.09893 -0.33133,0.20111 -0.47793,0.34314zM336.0452,165.6056c0.15602,-0.19696 0.36082,-0.27112 0.4292,-0.46602c-0.06998,-0.2026 -0.18634,-0.33845 -0.32275,-0.45925c-0.15721,0.10218 -0.3113,0.18603 -0.39659,0.37766c0.09316,0.16922 0.16945,0.33518 0.29013,0.54754zM336.10364,174.31717c-0.09633,-0.15092 -0.15882,-0.29531 -0.29837,-0.39781c-0.15286,0.17864 -0.36081,0.27107 -0.46929,0.49611c0.07942,0.14769 0.16826,0.24042 0.31724,0.28797c0.16036,-0.12048 0.30696,-0.2625 0.45039,-0.38626zM330.98585,165.78661c-0.07627,-0.16599 -0.14819,-0.25541 -0.25708,-0.33317c-0.14346,0.12375 -0.27632,0.28731 -0.314,0.50703c0.08256,0.12936 0.16508,0.25868 0.24451,0.40638c0.1698,-0.1754 0.22441,-0.39186 0.32658,-0.58027zM338.99416,172.73558c-0.08567,-0.11104 -0.15765,-0.20055 -0.25588,-0.23834c-0.13283,0.16356 -0.23186,0.33371 -0.30023,0.52861c0.06562,0.1261 0.13758,0.21559 0.2496,0.27496c0.14977,-0.16036 0.20436,-0.37682 0.30652,-0.56522zM333.34877,174.60078c0.06368,0.2392 0.19576,0.28351 0.35102,0.29446c0.1183,0.02277 0.24292,0.00887 0.31877,-0.12786c-0.07627,-0.16599 -0.15566,-0.31364 -0.29206,-0.43444c-0.13717,0.08711 -0.25743,0.17747 -0.37771,0.26783zM338.95356,167.8859c-0.02242,-0.17452 0.00273,-0.32098 -0.09986,-0.43527c-0.39147,0.24628 -0.3667,0.61041 -0.26367,1.02737c0.12223,-0.20346 0.24134,-0.38865 0.36354,-0.59209zM331.8492,173.87749c0.1647,-0.04396 0.28181,-0.11603 0.41151,-0.26132c-0.10262,-0.11426 -0.0881,-0.30064 -0.21073,-0.39986c-0.10457,-0.00121 -0.15092,0.06554 -0.22796,0.10745c-0.08015,0.06022 -0.17097,0.08061 -0.19298,0.20877c0.04875,0.12288 0.09751,0.24574 0.22015,0.34496zM334.54593,168.94878c0.16704,0.14559 0.27476,0.12849 0.31992,-0.03304c0.05778,-0.23475 0.08174,-0.47606 0.10253,-0.69901c0.01259,-0.07321 0.01136,-0.16804 -0.08374,-0.22415c-0.14108,0.31332 -0.24835,0.63312 -0.33875,0.95621zM337.06075,174.539c0.01494,0.11634 0.07313,0.18429 0.1714,0.22212c0.19733,-0.13229 0.42531,-0.23976 0.57071,-0.4766c-0.18397,-0.14885 -0.34239,-0.14152 -0.49212,0.01885c-0.08017,0.06023 -0.19105,0.09569 -0.24999,0.23565zM336.8422,169.20111c0.23659,0.0455 0.29362,0.01856 0.3219,-0.14615c0.02709,-0.25959 0.05735,-0.53747 0.01684,-0.81004c-0.19179,0.30358 -0.36354,0.5921 -0.33875,0.95622zM339.04316,171.53456c-0.04205,0.14319 -0.06403,0.27142 -0.10295,0.39629c-0.06094,0.25308 -0.0609,0.25308 0.22761,0.40315c0.05581,-0.1217 0.13167,-0.25841 0.16112,-0.32838c-0.11007,-0.17251 -0.18948,-0.32013 -0.28579,-0.47104zM335.5267,164.04954c-0.11715,0.07204 -0.27554,0.07944 -0.31012,0.28085c0.08569,0.11105 0.19144,0.20703 0.29089,0.33962c0.13719,-0.08711 0.28811,-0.15262 0.36394,-0.28937c-0.10264,-0.11426 -0.18516,-0.24367 -0.34474,-0.3311zM337.76378,172.78281c-0.12533,0.22178 -0.26765,0.44029 -0.39299,0.66208c0.0181,0.09801 0.0562,0.18101 0.16388,0.1639c0.1804,-0.13552 0.33332,-0.31419 0.42486,-0.54247c-0.04874,-0.12288 -0.10378,-0.20907 -0.19579,-0.2835zM338.20157,166.26608c0.12145,0.00445 0.21856,-0.05254 0.305,-0.14941c-0.02123,-0.07976 -0.04246,-0.15946 -0.06371,-0.23921c-0.03496,-0.10129 -0.0531,-0.19934 -0.14822,-0.25543c-0.1014,-0.01951 -0.19218,0.00084 -0.27552,0.07943c0.05624,0.18105 0.12622,0.38363 0.1824,0.56465zM334.93484,165.25971c0.13719,-0.08711 0.2268,-0.20229 0.30265,-0.33901c-0.11634,-0.13586 -0.21581,-0.26844 -0.31839,-0.38272c-0.14465,0.02896 -0.23111,0.12581 -0.26689,0.23242c0.09315,0.16922 0.18634,0.33843 0.28263,0.48939zM338.78014,166.96363c-0.03184,-0.11959 -0.06368,-0.2392 -0.11243,-0.36209c-0.01374,-0.02153 -0.04758,-0.02805 -0.07826,-0.05288c-0.07705,0.04191 -0.18472,0.05903 -0.26057,0.19579c0.02559,0.15626 0.02797,0.34581 0.12112,0.51504c0.1509,-0.06557 0.23735,-0.16244 0.33013,-0.29591zM339.40573,168.71047c0.05148,-0.19815 0.24369,-0.19905 0.27511,-0.38212c-0.04246,-0.15943 -0.03104,-0.32749 -0.14114,-0.49996c-0.13402,0.06881 -0.25117,0.14088 -0.22872,0.31538c0.02242,0.17453 -0.02277,0.33604 0.09476,0.5667zM338.17307,173.95848c0.08961,-0.11515 0.1961,-0.2271 0.28257,-0.32393c0.02005,-0.01505 0.00944,-0.05494 0.0157,-0.09156c-0.07822,-0.05286 -0.147,-0.16067 -0.30856,-0.13495c-0.10962,0.13024 -0.22246,0.27876 -0.35215,0.42407c0.10573,0.09598 0.20402,0.13378 0.36242,0.12645zM334.59123,164.21014c-0.08255,-0.12936 -0.16196,-0.27703 -0.23075,-0.38479c-0.16155,0.02568 -0.2787,0.09772 -0.3789,0.17304c-0.0051,0.13144 0.11007,0.17244 0.16826,0.2404c0.05821,0.06792 0.11322,0.15416 0.23468,0.15859c0.0739,-0.02363 0.15093,-0.06557 0.20675,-0.18724zM330.55011,173.00354c0.06253,0.14438 0.1144,0.24899 0.16628,0.35351c0.0106,0.03987 0.05818,0.06795 0.07195,0.0895c0.1183,0.02277 0.2154,-0.03422 0.30185,-0.13112c-0.05937,-0.16271 -0.10184,-0.3222 -0.19809,-0.47313c-0.11083,0.03545 -0.20793,0.09243 -0.34195,0.16123zM339.50259,171.60398c0.10849,-0.22503 0.21693,-0.45004 0.21024,-0.71613c-0.16154,0.02569 -0.29993,0.018 -0.40956,0.1482c0.03104,0.3275 0.03106,0.32751 0.19931,0.5679zM332.09248,174.18906c0.22762,0.40315 0.2445,0.40637 0.58019,0.28173c-0.07942,-0.14769 -0.17886,-0.28024 -0.25824,-0.42795c-0.12145,-0.00445 -0.21852,0.05255 -0.32191,0.14613zM337.52782,165.51238c-0.05936,-0.16271 -0.12504,-0.28883 -0.24767,-0.38809c-0.03695,0.01181 -0.09396,0.03867 -0.15094,0.06555c-0.04009,0.03013 -0.08334,0.07856 -0.1234,0.10865c0.05938,0.16271 0.09871,0.34052 0.21819,0.45807c0.11082,-0.03544 0.21422,-0.12903 0.3038,-0.24422zM329.68371,171.94803c0.05698,-0.02688 0.13402,-0.06883 0.16037,-0.12049c0.08529,-0.19166 0.08289,-0.3812 -0.00085,-0.6054c-0.114,0.05372 -0.25547,0.06436 -0.32505,0.16448c0.03617,0.19608 0.01851,0.40075 0.16552,0.5614zM331.69835,164.78878c-0.01373,-0.02154 -0.02752,-0.04312 -0.05502,-0.08622c-0.24488,0.10425 -0.44847,0.27315 -0.65203,0.44206c0.0287,0.13791 0.08688,0.20582 0.21894,0.25014c0.15602,-0.19696 0.32892,-0.39067 0.48813,-0.60597zM336.00449,168.28352c-0.14855,0.25515 -0.31084,0.48873 -0.34738,0.80323c-0.00316,0.01832 0.05819,0.06789 0.09197,0.07441c0.0845,0.01622 0.16468,-0.04401 0.18036,-0.13555c0.09158,-0.22827 0.09862,-0.47281 0.07503,-0.7421zM337.08004,164.76428c-0.06563,-0.12613 -0.1313,-0.25222 -0.23703,-0.34821c-0.11831,-0.02277 -0.2091,-0.00238 -0.31561,0.10951c0.09947,0.13261 0.19576,0.28353 0.29834,0.39782c0.10766,-0.01712 0.1847,-0.05906 0.25428,-0.15917zM334.6113,174.97592c0.23348,0.0638 0.43315,0.12114 0.65797,0.03197c-0.02243,-0.17451 -0.12814,-0.27052 -0.25394,-0.35146c-0.15407,0.08388 -0.2881,0.15265 -0.40404,0.31953zM329.02013,170.1182c0.17099,-0.08061 0.19101,-0.09563 0.20047,-0.15059c0.04835,-0.17982 -0.00788,-0.36089 -0.06725,-0.52359c-0.02437,-0.06141 -0.10576,-0.09595 -0.17532,0.00414c0.07312,0.18429 -0.03536,0.40934 0.04212,0.67008zM332.35239,165.04694c0.17296,-0.19369 0.35964,-0.36589 0.42993,-0.6739c-0.2586,0.08268 -0.41467,0.27966 -0.56438,0.43999c0.00117,0.0948 0.0456,0.14113 0.13445,0.23387zM331.23956,173.6657c-0.09394,0.03869 -0.18472,0.05906 -0.27866,0.09774c0.05622,0.18106 0.13564,0.32871 0.33098,0.30951c0.05386,-0.00855 0.10766,-0.01713 0.13717,-0.08711c-0.01494,-0.11633 -0.08689,-0.20585 -0.18948,-0.32013zM338.00607,169.23576c0.15213,0.02922 0.226,0.00565 0.23423,-0.14407c0.00511,-0.13144 0.01019,-0.26285 -0.00162,-0.39752c-0.0075,-0.05815 -0.03184,-0.11963 -0.1026,-0.1143c-0.08842,0.20996 -0.12298,0.41137 -0.13004,0.6559zM331.64628,167.63474c-0.10849,0.22504 -0.18312,0.45657 -0.17329,0.70434c-0.00315,0.01833 0.0582,0.06789 0.07507,0.07115c0.03378,0.00651 0.07705,-0.04191 0.08332,-0.07856c0.02397,-0.24127 0.09549,-0.45451 0.01488,-0.69699zM330.72817,168.1013c-0.01927,-0.19284 0.0153,-0.39428 -0.05151,-0.61518c-0.12535,0.22176 -0.19374,0.41669 -0.16189,0.53629c0.01494,0.11633 0.08255,0.12938 0.21341,0.07887zM336.28847,175.0714c0.21225,-0.01595 0.4489,0.02955 0.60491,-0.16742c-0.27907,-0.20494 -0.43508,-0.00798 -0.60491,0.16742zM336.62382,171.69361c0.03378,0.0065 0.05391,-0.00856 0.08767,-0.00206c0.01452,-0.18633 0.1104,-0.33814 0.05418,-0.51916c-0.09825,-0.03783 -0.15212,-0.02924 -0.21853,0.05256c0.0287,0.13791 0.05426,0.29412 0.0767,0.46869zM333.78024,168.12064c-0.0947,0.24659 -0.16307,0.4415 -0.1839,0.66446c-0.00629,0.03662 0.02122,0.07974 0.07192,0.08948c0.01693,0.00325 0.05385,-0.00856 0.0739,-0.02364c0.10849,-0.22503 0.14618,-0.44473 0.03806,-0.73031zM329.93332,172.22297c-0.10767,0.01713 -0.16466,0.04398 -0.1403,0.10542c0.0287,0.13791 0.07432,0.27908 0.11991,0.42025c0.03812,0.08298 0.08882,0.09274 0.1521,0.02924c-0.0161,-0.21116 -0.03855,-0.38571 -0.13171,-0.5549zM336.2503,164.20757c0.07705,-0.04191 0.15093,-0.06557 0.22797,-0.10747c0.02005,-0.01504 0.02632,-0.05169 0.05267,-0.10336c-0.20279,-0.03901 -0.37927,-0.12965 -0.6116,-0.09867c0.09947,0.13261 0.1714,0.22209 0.33098,0.3095zM332.2872,170.61392c-0.01453,0.18634 -0.02592,0.35441 -0.04673,0.57736c0.20046,-0.15063 0.27945,-0.30563 0.29396,-0.49197c-0.07507,-0.07116 -0.12264,-0.09924 -0.24725,-0.08538zM337.67284,171.17654c0.0456,0.14119 -0.02278,0.33604 0.14429,0.48166c0.12612,-0.42969 0.14185,-0.52119 0.06361,-0.5741c-0.0845,-0.01622 -0.14151,0.01062 -0.20793,0.09243zM332.75984,167.96232c-0.24998,0.23562 -0.28766,0.45535 -0.26722,0.743c0.27434,-0.17424 0.1831,-0.45653 0.26722,-0.743zM339.03899,168.50753c-0.22993,0.22057 -0.26451,0.42202 -0.26841,0.64822c-0.00315,0.01832 0.02752,0.04311 0.06131,0.04961c0.05071,0.00976 0.0908,-0.02038 0.09707,-0.05698c0.04836,-0.17982 0.06286,-0.36616 0.11002,-0.64081zM338.53136,171.0579c0.02242,0.17452 0.0079,0.36089 0.15488,0.5215c0.08213,-0.17336 0.09351,-0.34139 0.10177,-0.4911c-0.09197,-0.07443 -0.1627,-0.06911 -0.25666,-0.03042zM339.45474,167.50939c-0.09004,-0.18755 -0.05545,-0.38894 -0.2119,-0.49468c-0.0947,0.24659 -0.0947,0.24658 0.0472,0.53865c0.03695,-0.01181 0.0739,-0.02363 0.16469,-0.04399zM336.6591,174.23477c0.24605,-0.00945 0.39265,-0.15147 0.5255,-0.31508c-0.03184,-0.11959 -0.09947,-0.13261 -0.15957,-0.08743c-0.10962,0.13025 -0.23622,0.25722 -0.36589,0.40252zM337.82223,165.32306c0.10457,0.0012 0.1922,-0.00086 0.26175,-0.10096c-0.05188,-0.10453 -0.10377,-0.20911 -0.20202,-0.24689c-0.08765,0.00205 -0.14464,0.02895 -0.19104,0.0957c0.0181,0.09802 0.05937,0.16271 0.13131,0.25219zM334.55366,171.4469c0.07585,-0.1367 0.12853,-0.2401 0.11358,-0.35646c-0.0106,-0.03987 -0.04126,-0.06469 -0.07194,-0.0895c-0.05071,-0.00976 -0.12461,0.01385 -0.11714,0.07202c-0.01886,0.10989 -0.04086,0.23803 0.07551,0.37392zM335.13871,163.76688c-0.1427,-0.08417 -0.29362,-0.01861 -0.43511,-0.00797c0.16196,0.27704 0.19577,0.28349 0.43511,0.00797zM329.78482,167.90098c0.11475,-0.26166 0.11475,-0.26165 -0.01851,-0.40077c-0.05267,0.10336 -0.10847,0.22505 0.01851,0.40077zM335.66947,171.15072c-0.05821,-0.06792 -0.10889,-0.07767 -0.13206,-0.04432c-0.10962,0.13025 -0.10217,0.18841 0.02167,0.38245c0.07271,-0.11839 0.0916,-0.22829 0.11044,-0.33815zM339.72366,168.79052c-0.10022,0.07533 -0.18354,0.15387 -0.17176,0.2885c0.27984,-0.00296 0.30302,-0.03628 0.17176,-0.2885zM329.53992,167.19195c-0.12344,0.1087 -0.16548,0.25188 -0.20436,0.37678c-0.01259,0.07322 0.0287,0.13794 0.1427,0.08418c0.03888,-0.12491 0.08096,-0.26816 0.06169,-0.46098zM339.01916,166.38538c-0.06524,0.1766 -0.03026,0.27791 0.09869,0.34052c0,0 0.03695,-0.01181 0.04008,-0.03013c0.03574,-0.10662 -0.05305,-0.19933 -0.13876,-0.31043zM333.44636,171.08269c0.10767,-0.01713 0.15409,-0.08388 0.14974,-0.16033c0.00629,-0.03662 -0.02123,-0.07975 -0.05188,-0.10455c-0.03068,-0.0248 -0.08763,0.00205 -0.09391,0.03869c-0.02634,0.05169 -0.03891,0.1249 -0.00394,0.22621zM337.32695,164.54697c0.0456,0.14118 0.10377,0.2091 0.25158,0.16183c-0.05938,-0.16271 -0.12068,-0.21235 -0.25158,-0.16183z" fill="#000000"/><path d="M332.1372,177.48858c0.53769,0.12232 1.07544,0.24462 1.6163,0.34859c0.60848,0.11699 1.22949,0.16073 1.84934,0.10967c0.19534,-0.01919 0.36315,-0.08146 0.57854,-0.11571c-0.05029,0.29298 -0.07736,0.55251 -0.13828,0.8056c-0.33163,1.52501 -0.58191,3.08455 -0.88286,4.63436c-0.27269,1.38502 -0.52531,2.75498 -0.78108,4.14327c-0.18033,0.94884 -0.35755,1.87939 -0.5379,2.82822c-0.17091,0.89393 -0.30487,1.77601 -0.47576,2.66993c-0.01259,0.07324 -0.02516,0.14649 -0.05463,0.21647c-0.27119,0.15593 -0.54044,0.1987 -0.84032,0.21672c-0.47521,0.02212 -0.96102,0.00436 -1.43111,-0.10493c-0.15213,-0.02922 -0.30737,-0.04017 -0.42686,-0.15773c0.15842,-0.00739 0.31798,0.08002 0.51962,0.02425c-0.06799,-0.31568 0.03612,-0.61719 0.0695,-0.91342c0.00315,-0.01832 0.00629,-0.03661 -0.0106,-0.03986c-0.05033,-0.52034 0.04083,-1.05133 0.04432,-1.58026c-0.00237,-0.18957 -0.05546,-0.38893 0.00976,-0.56552c0.09668,-0.35968 0.00426,-0.73681 0.10094,-1.09655c0.00315,-0.01832 -0.00748,-0.05817 -0.00118,-0.09481c0.009,-0.35759 -0.00199,-0.70019 0.04081,-1.0513c0.06914,-0.4028 -0.0032,-0.79503 0.09973,-1.19131c-0.06055,-0.2575 0.01414,-0.48904 0.04123,-0.74862c0.00629,-0.03662 0.00942,-0.05496 0.01572,-0.09154c-0.07235,-0.39219 0.06125,-0.76369 0.05651,-1.1429c-0.00475,-0.37917 0.09505,-0.75719 0.10721,-1.13313c0.0216,-0.43089 -0.0107,-0.85315 0.11548,-1.28285c0.00629,-0.03662 0.01573,-0.09156 0.00511,-0.13142c-0.06686,-0.22091 0.02159,-0.43087 0.04243,-0.65383c0.01886,-0.10989 0.05776,-0.23474 0.04281,-0.35112c-0.03929,-0.17778 0.00274,-0.321 0.03102,-0.48581c0.01572,-0.09156 0.04835,-0.17987 0.02708,-0.25958c-0.06055,-0.2575 0.01724,-0.50734 0.05811,-0.74536c0.01572,-0.09156 0.04832,-0.17983 0.0271,-0.25959c-0.04991,-0.21764 0.00153,-0.41581 0.03614,-0.61722c0.05656,-0.3296 -0.00516,-0.68188 0.06832,-1.00818c0.02632,-0.05169 -0.01492,-0.11634 -0.02243,-0.17452z" fill="#87d7dc"/><path d="M332.1372,177.48862c0.00746,0.05816 0.04876,0.12286 0.03932,0.17779c-0.07346,0.32634 -0.02864,0.67538 -0.06832,1.0082c-0.03458,0.2014 -0.08605,0.39959 -0.03614,0.61721c0.02123,0.07976 -0.01138,0.16805 -0.02707,0.25957c-0.04084,0.23802 -0.10179,0.4911 -0.05815,0.74538c0.02123,0.07975 -0.02829,0.16481 -0.02707,0.25959c-0.02829,0.16478 -0.05343,0.31128 -0.03102,0.48581c0.01494,0.11633 -0.02397,0.2413 -0.04283,0.35115c-0.0208,0.22295 -0.10923,0.43294 -0.0424,0.65383c0.0106,0.03987 0.00118,0.0948 -0.0051,0.13141c-0.12299,0.41138 -0.09388,0.85202 -0.11546,1.28288c-0.0153,0.39428 -0.11511,0.77224 -0.10725,1.13313c0.00476,0.37916 -0.12885,0.7507 -0.0565,1.14288c0.01373,0.02156 -0.00945,0.05494 -0.01573,0.09157c-0.04084,0.23802 -0.10175,0.4911 -0.04121,0.74865c-0.11987,0.39307 -0.04749,0.78526 -0.09976,1.1913c-0.05972,0.34788 -0.03178,0.69369 -0.04083,1.05132c-0.00629,0.03662 0.00751,0.0582 0.0012,0.09481c-0.09668,0.35968 -0.00426,0.7368 -0.10094,1.09654c-0.05147,0.19815 0.00473,0.37919 -0.00977,0.56553c-0.0204,0.52566 -0.09465,1.05991 -0.04432,1.58024c-0.00315,0.01832 0.01063,0.03987 0.01063,0.03987c-0.03337,0.29623 -0.13754,0.59775 -0.0695,0.91343c-0.18472,0.05905 -0.34118,-0.0467 -0.51962,-0.02427c-0.1352,-0.02598 -0.27041,-0.05203 -0.36988,-0.18465c0.01886,-0.10989 0.05776,-0.23474 0.0428,-0.3511c-0.05231,-0.40722 0.03064,-0.78851 0.06283,-1.17953c0.0322,-0.39098 -0.02012,-0.79822 0.09973,-1.19128c-0.06055,-0.2575 0.01409,-0.48906 0.04121,-0.74864c0.00629,-0.03662 0.01571,-0.09155 0.0051,-0.13142c-0.05622,-0.18105 0.00902,-0.3576 0.02041,-0.52568c0.01572,-0.09156 0.03141,-0.1831 0.02709,-0.25958c-0.01537,-0.41907 -0.01071,-0.85316 0.06159,-1.2743c0.00946,-0.05493 0.03893,-0.12493 0.01138,-0.16803c-0.05307,-0.19931 -0.00476,-0.37917 0.02667,-0.56228c0.05147,-0.19815 -0.03543,-0.40401 0.01922,-0.62046c0.0672,-0.28971 0.02982,-0.5806 0.04631,-0.88005c0.03534,-0.40933 -0.00006,-0.81329 0.07225,-1.2344c0.01259,-0.07324 0.04521,-0.16154 0.0208,-0.22297c-0.04243,-0.15949 0.00271,-0.32099 0.01411,-0.48902c0.02516,-0.14647 0.03338,-0.29617 0.02161,-0.43089c-0.02673,-0.25103 -0.01969,-0.49554 0.02428,-0.75189c0.04911,-0.38773 -0.00321,-0.79501 0.11663,-1.18804c0.00629,-0.03662 -0.00116,-0.09479 0.00512,-0.13143c0.0153,-0.39428 0.01367,-0.79174 0.06283,-1.17948c0.06914,-0.4028 0.00308,-0.83163 0.10605,-1.22793c0.00946,-0.05493 -0.01496,-0.11634 -0.02243,-0.17452c0.00705,-0.24452 0.03415,-0.50411 0.12572,-0.73237c0.08766,-0.00205 0.15525,0.0109 0.22601,0.00564c0.22721,0.10043 0.42373,0.17603 0.64031,0.2366z" fill="#b0eef2"/><path d="M340.09638,169.46742c-0.00902,0.35758 -0.03929,0.63552 -0.15404,0.89717c-0.16038,0.12048 -0.35571,0.13969 -0.55417,0.17717c-0.98302,0.13254 -1.9629,0.24676 -2.95146,0.20803c-0.74565,-0.02989 -1.5082,-0.06298 -2.255,-0.18764c-0.20281,-0.039 -0.41941,-0.09954 -0.63167,-0.08364c-0.08766,0.00205 -0.18907,-0.01746 -0.29045,-0.03693c-0.39308,-0.15124 -0.80499,-0.1926 -1.20752,-0.28889c-0.57153,-0.12877 -1.13049,-0.3308 -1.68312,-0.56946c-0.27475,-0.12847 -0.55267,-0.23866 -0.84746,-0.35205c-0.23031,-0.08214 -0.41428,-0.23095 -0.60141,-0.36151c-0.06172,-0.35234 -0.05663,-0.48372 0.05261,-0.91665c0.36867,0.08977 0.70477,0.26788 1.06715,0.39431c0.3455,0.12317 0.7079,0.24958 1.05656,0.35446c0.36553,0.10813 0.75117,0.20116 1.11983,0.29096c0.34863,0.10487 0.73305,0.10308 1.07231,0.26289c0.38757,-0.02006 0.74995,0.10638 1.12496,0.15955c0.35808,0.04995 0.7362,0.08479 1.09744,0.11642c0.37813,0.03488 0.75937,0.05142 1.15757,0.07127c0.36437,0.01332 0.74248,0.04819 1.11002,0.04317c0.38441,-0.00176 0.7582,-0.04336 1.14577,-0.06341c0.40447,-0.01681 0.77196,-0.02181 1.1721,-0.1151z" fill="#d1eaeb"/><path d="M331.51062,177.2736c-0.07075,0.0053 -0.13837,-0.00768 -0.226,-0.00561c-0.09156,0.22829 -0.13242,0.46628 -0.12572,0.73238c0.00746,0.05817 0.03184,0.11961 0.02242,0.17452c-0.10295,0.39629 -0.05378,0.82191 -0.10604,1.22794c-0.06601,0.38451 -0.04751,0.78524 -0.06284,1.17949c-0.00629,0.03662 0.00118,0.09481 -0.0051,0.13141c-0.11988,0.39306 -0.04753,0.78523 -0.11666,1.18805c-0.04084,0.23802 -0.05105,0.50086 -0.02428,0.75188c0.00865,0.15293 0.00042,0.30269 -0.02159,0.43088c-0.02829,0.16478 -0.07033,0.30801 -0.0141,0.48905c0.02436,0.06141 -0.00826,0.14974 -0.02084,0.22297c-0.06914,0.4028 -0.03685,0.82509 -0.07223,1.2344c-0.01651,0.29945 0.0209,0.59034 -0.04632,0.88004c-0.05147,0.19815 0.03541,0.40399 -0.01922,0.62046c-0.04834,0.17984 -0.09981,0.37799 -0.02671,0.56229c0.00746,0.05817 -0.00196,0.11309 -0.01137,0.16802c-0.0723,0.4211 -0.07387,0.8369 -0.0616,1.27429c0.00117,0.0948 -0.03141,0.18308 -0.0271,0.25955c-0.02829,0.16478 -0.07659,0.34464 -0.02038,0.52566c0.0106,0.03987 0.00119,0.0948 -0.0051,0.1314c-0.04084,0.23802 -0.10177,0.49111 -0.04122,0.74864c-0.11986,0.39306 -0.06755,0.80031 -0.09972,1.19128c-0.0322,0.39098 -0.11824,0.79053 -0.06283,1.17947c0.01494,0.11634 -0.02398,0.24128 -0.04281,0.35113c-0.15527,-0.01094 -0.2378,-0.14028 -0.35299,-0.18133c0.04749,-0.78523 0.07181,-1.53714 0.11304,-2.28574c0.0369,-0.82512 0.08753,-1.62867 0.14129,-2.45052c0.04436,-0.76696 0.07179,-1.53714 0.09926,-2.30732c0.042,-0.95654 0.06392,-1.898 0.10275,-2.83622c0.03492,-0.71203 0.06989,-1.42403 0.08788,-2.13928c0.05021,-1.10626 0.1712,-2.21786 0.1876,-3.33059c0.00824,-0.14971 -0.01732,-0.30594 0.06168,-0.46096c0.15213,0.02922 0.29479,0.11341 0.44065,0.17929c0.07823,0.05285 0.23661,0.04548 0.35615,0.16303z" fill="#87d7dc"/><path d="M330.87204,193.6058c0.36122,0.03162 0.69299,0.13323 1.05733,0.14652c0.41823,0.00477 0.83958,-0.00883 1.27978,-0.13221c-0.18229,1.06196 -0.36143,2.10559 -0.53745,3.13093c-0.22049,0.16567 -0.45278,0.19663 -0.67133,0.2492c-0.41703,0.09005 -0.81205,0.05192 -1.22398,0.01055c-0.01693,-0.00325 -0.04755,-0.02805 -0.06133,-0.04961c0.17097,-0.0806 0.1454,-0.23681 0.13674,-0.38981c-0.02166,-0.38246 -0.02641,-0.76162 0.05337,-1.12456c0.01259,-0.07324 0.02515,-0.14648 0.02079,-0.22295c-0.0417,-0.3674 0.03806,-0.73031 0.04707,-1.08796c0.00082,-0.2079 -0.00793,-0.36083 -0.10107,-0.53009z" fill="#61afb4"/><path d="M331.67514,174.7897c0.5727,0.22359 1.16738,0.31901 1.74952,0.48766c0.26728,0.07031 0.54401,0.08566 0.82074,0.10105c0.51335,0.06089 1.03099,0.19822 1.55691,0.18583c0.20911,0.00239 0.41822,0.00478 0.61357,-0.0144c0.12461,-0.01386 0.24604,-0.00946 0.36438,0.01331c0.0075,0.05815 0.01808,0.09803 0.01178,0.13468c-0.02516,0.14646 -0.05027,0.29294 -0.0754,0.43942c-0.09393,0.0387 -0.16784,0.06227 -0.25862,0.08268c-0.64615,0.10273 -1.30926,0.20222 -1.96846,0.07548c-0.57782,-0.09215 -1.17247,-0.18758 -1.73775,-0.35299c-0.45009,-0.12436 -0.90328,-0.2304 -1.31129,-0.49796c0.09079,-0.0204 0.18278,0.05404 0.26922,-0.04281c0.06838,-0.1949 0.15994,-0.42318 -0.03464,-0.6119z" fill="#61aeb3"/><path d="M331.87017,176.09441c0.29362,0.01863 0.54517,0.18049 0.82936,0.25403c0.60534,0.13529 1.21065,0.27062 1.8254,0.35095c0.49642,0.05763 0.98856,0.03873 1.47005,-0.02c0.12461,-0.01386 0.24918,-0.02775 0.37378,-0.04163c-0.044,0.25634 -0.08168,0.47608 -0.12257,0.71409c-0.24054,0.18071 -0.5098,0.22348 -0.78965,0.22647c-0.33371,0.01153 -0.68429,0.01973 -1.02547,-0.02695c-0.77314,-0.07303 -1.51056,-0.25261 -2.268,-0.41713c-0.1352,-0.02599 -0.27044,-0.05199 -0.37304,-0.16629c0.01572,-0.09156 0.04831,-0.17985 0.02708,-0.25958c-0.03617,-0.19609 0.01844,-0.41259 0.053,-0.61394z" fill="#61aeb3"/><path d="M330.87204,193.6058c0.07942,0.14769 0.10496,0.30388 0.09043,0.49024c-0.00902,0.3576 -0.0888,0.72059 -0.04707,1.08794c0.00432,0.0765 -0.00823,0.14975 -0.02081,0.22299c-0.06599,0.38452 -0.05812,0.74536 -0.05337,1.12455c0.01179,0.13468 0.03424,0.30921 -0.13675,0.38981c-0.25667,-0.03045 -0.48701,-0.11253 -0.69101,-0.24632c-0.00672,-0.26611 -0.0303,-0.53543 0.04749,-0.78525c0.00629,-0.03662 -0.00118,-0.0948 0.0051,-0.13142c0.01216,-0.37592 0.02745,-0.77019 0.0565,-1.14289c0.01138,-0.16803 0.03655,-0.3145 0.03103,-0.48581c-0.0161,-0.21115 0.00468,-0.43413 0.12377,-0.61928c0.08765,-0.00205 0.15525,0.01093 0.226,0.00565c0.1183,0.02277 0.2504,0.06704 0.36868,0.08978z" fill="#87d7dc"/><path d="M333.6421,165.9758c0.15885,0.29533 0.19306,0.60448 0.21036,0.91049c0.00433,0.07649 -0.01454,0.18636 -0.044,0.25634c-0.22636,0.50498 -0.38514,1.02297 -0.52699,1.54417c-0.00315,0.01832 -0.02632,0.05167 -0.04637,0.06676c-0.07705,0.04191 -0.16156,0.02572 -0.23662,-0.04547c0.00629,-0.03662 -0.00436,-0.07651 0.00195,-0.11312c0.09237,-0.43614 0.13399,-0.88211 0.08796,-1.32596c-0.01298,-0.22946 0.02159,-0.4309 0.14381,-0.63434c0.14228,-0.21851 0.23382,-0.44679 0.40992,-0.65885z" fill="#cce5e6"/><path d="M332.15342,168.54552c-0.11083,0.03545 -0.17529,0.00413 -0.21657,-0.06055c0.11708,-0.88536 0.11706,-0.88535 -0.02135,-1.70633c0.08724,-0.30478 0.25897,-0.59327 0.39379,-0.86996c0.12461,-0.01386 0.12262,0.09922 0.147,0.16065c0.08374,0.22414 0.17062,0.43001 0.2174,0.66598c0.02557,0.15626 0.02043,0.28766 -0.03849,0.42759c-0.18,0.43827 -0.34621,0.89803 -0.4818,1.38263z" fill="#cce5e6"/><path d="M330.48646,193.51275c-0.07076,0.0053 -0.13838,-0.00769 -0.226,-0.00564c-0.11909,0.18516 -0.13989,0.4081 -0.12376,0.61929c0.00553,0.1713 -0.01961,0.31776 -0.03103,0.48582c-0.02906,0.37271 -0.04436,0.76693 -0.05651,1.14288c-0.00629,0.03662 0.00119,0.09482 -0.00511,0.13142c-0.06404,0.27139 -0.03732,0.5224 -0.04752,0.78523c-0.12893,-0.0626 -0.24097,-0.122 -0.35732,-0.25786c0.0373,-0.52242 0.04393,-1.06968 0.10127,-1.60714c0.0373,-0.52242 0.00701,-1.05782 0.10127,-1.60711c0.26727,0.07031 0.45752,0.18253 0.64465,0.31304z" fill="#60adb2"/><path d="M336.00004,171.15753c0.07075,-0.00531 0.12462,-0.01385 0.19535,-0.01918c0.02753,0.04312 0.04125,0.06468 0.05501,0.08621c0.01418,0.32426 0.08221,0.63997 0.1671,0.95888c0.0287,0.13792 0.02675,0.25106 -0.04596,0.36944c-0.12851,0.24008 -0.22634,0.50498 -0.4838,0.68245c-0.16194,-0.27703 -0.22999,-0.59272 -0.28109,-0.90517c-0.0075,-0.05815 0.02518,-0.14647 0.05462,-0.21645c0.10724,-0.3198 0.21457,-0.63969 0.33876,-0.95625z" fill="#cce5e6"/><path d="M337.03185,166.57074c0.03619,0.19607 0.068,0.31571 0.09671,0.45363c0.04364,0.25429 0.02282,0.47722 -0.12257,0.71408c-0.22756,0.41015 -0.40751,0.84845 -0.4861,1.30617c-0.02516,0.14647 -0.0452,0.16151 -0.24488,0.10425c0.00944,-0.05493 0.00194,-0.11311 0.01139,-0.16806c0.09548,-0.45448 0.12021,-0.90364 0.09422,-1.36258c0.00198,-0.11312 0.00078,-0.2079 0.05027,-0.29298c0.18235,-0.24867 0.33094,-0.50378 0.60096,-0.75447z" fill="#cae2e3"/><path d="M334.14466,168.94729c-0.01373,-0.02154 -0.0244,-0.06147 -0.02123,-0.07976c0.10608,-0.41458 0.10763,-0.8304 0.08915,-1.23119c-0.00476,-0.37916 0.05497,-0.72708 0.28372,-1.04243c0.11281,-0.14853 0.16425,-0.34669 0.30774,-0.47041c0.20444,0.43648 0.19658,0.88892 0.00914,1.26897c-0.22009,0.46837 -0.45391,0.91515 -0.52816,1.44941c-0.02632,0.05169 -0.03892,0.12491 -0.14032,0.10543z" fill="#c9e1e2"/><path d="M335.84563,166.36159c0.11873,0.32545 0.14233,0.59476 0.16279,0.8824c0.00117,0.0948 -0.01454,0.18634 -0.06092,0.25309c-0.24013,0.48343 -0.44957,0.99164 -0.62524,1.50635c-0.00629,0.03662 -0.03259,0.08828 -0.11398,0.05373c0.02201,-0.12815 0.04714,-0.27462 0.05226,-0.40605c0.04597,-0.36943 0.07501,-0.74212 0.0333,-1.1095c-0.02363,-0.26934 0.03416,-0.5041 0.19019,-0.70106c0.11281,-0.14853 0.22243,-0.2788 0.36157,-0.47901z" fill="#c9e1e2"/><path d="M337.09626,171.17917c0.11716,-0.07203 0.20166,-0.05579 0.28615,-0.03956c0.01374,0.02153 0.0244,0.06145 0.03811,0.08298c-0.01649,0.29945 0.03779,0.5936 0.14905,0.86085c0.05935,0.16271 0.05111,0.31244 -0.02789,0.46749c-0.10216,0.1884 -0.19057,0.39838 -0.32343,0.562c-0.15762,-0.20053 -0.32709,-0.53574 -0.33574,-0.68872c-0.0181,-0.09802 0.02827,-0.16479 0.06092,-0.25308c0.03654,-0.31449 0.1607,-0.63111 0.15283,-0.99192z" fill="#cae3e4"/><path d="M331.10849,171.27627c0.21929,-0.26045 0.38792,-0.53064 0.54277,-0.82242c0.10766,-0.01712 0.17533,-0.00413 0.2504,0.06703c0.02794,0.34579 -0.07191,0.72379 -0.02706,1.07287c-0.11909,0.18515 -0.27315,0.26901 -0.41659,0.39276c-0.08015,0.06022 -0.14656,0.14202 -0.26804,0.13759c-0.09435,-0.26403 -0.02715,-0.55371 -0.08142,-0.84786z" fill="#c8e0e1"/><path d="M333.96049,170.93567c0.14896,0.04755 0.15329,0.12404 0.15763,0.20053c0.02047,0.28767 0.04406,0.55695 0.04763,0.84135c0.00433,0.0765 -0.00824,0.14973 -0.05461,0.21649c-0.15288,0.17863 -0.32268,0.35404 -0.50621,0.50793c-0.06563,-0.1261 -0.06369,-0.23923 -0.09554,-0.35883c-0.09552,-0.3588 -0.05901,-0.67331 0.21098,-0.92404c0.12658,-0.12699 0.1918,-0.30358 0.24011,-0.48343z" fill="#cbe4e5"/><path d="M332.89566,170.73094c0.0845,0.01622 0.13521,0.02597 0.18592,0.03571c0.0106,0.03987 0.04125,0.0647 0.03812,0.08298c-0.00082,0.2079 -0.01843,0.41258 -0.01921,0.62047c-0.00198,0.11313 -0.03459,0.20141 -0.10102,0.2832c-0.19924,0.2454 -0.4123,0.46923 -0.67602,0.68333c-0.09005,-0.18753 -0.07863,-0.35555 -0.06725,-0.52358c0.01259,-0.07321 0.02517,-0.14648 0.06835,-0.19489c0.27002,-0.25072 0.43429,-0.59741 0.57106,-0.98722z" fill="#c8e0e1"/><path d="M331.87017,176.09439c-0.03458,0.2014 -0.08921,0.41789 -0.03925,0.63555c0.02123,0.07975 -0.01141,0.16801 -0.0271,0.25957c-0.29046,-0.03693 -0.55146,-0.14384 -0.78299,-0.32079c0.07782,-0.24984 0.0542,-0.51914 0.05811,-0.74535c0.13402,-0.06881 0.24292,0.00887 0.35058,-0.00827c0.15527,0.01094 0.32115,0.06176 0.44065,0.17928z" fill="#85d5d9"/><path d="M338.16236,167.7149c-0.13166,0.2584 -0.26328,0.5168 -0.38121,0.79674c-0.09472,0.24659 -0.00979,0.56553 -0.31048,0.79141c0.10685,-0.6225 0.08285,-1.19456 0.05883,-1.76658c0.11909,-0.18515 0.2582,-0.38538 0.45553,-0.51765c0.02753,0.04312 0.04127,0.06469 0.05502,0.08621c0.05307,0.19932 0.08927,0.39545 0.12229,0.6098z" fill="#c6dede"/><path d="M333.4809,165.49086c-0.17176,0.28854 -0.32028,0.54364 -0.49203,0.83218c-0.11634,-0.13586 -0.14193,-0.29209 -0.20757,-0.41817c-0.06253,-0.14438 -0.16196,-0.27705 -0.18437,-0.45155c0.02201,-0.12815 0.10846,-0.22503 0.178,-0.32513c0.06955,-0.10011 0.15605,-0.19695 0.25941,-0.29059c0.21776,0.15536 0.31524,0.40107 0.44656,0.6533z" fill="#cae3e3"/><path d="M331.06542,168.37417c-0.02404,-0.57204 -0.06377,-1.05253 -0.20807,-1.53416c0.10849,-0.22504 0.20004,-0.45329 0.31166,-0.69663c0.19459,0.18871 0.24138,0.42468 0.3251,0.6488c0.0106,0.03987 0.00118,0.09482 -0.00512,0.13141c-0.12929,0.44797 -0.25855,0.89599 -0.42358,1.45055z" fill="#cae3e4"/><path d="M334.72042,172.91637c-0.11873,-0.32544 -0.20682,-0.62609 0.00818,-0.96301c0.14542,-0.23685 0.20947,-0.50825 0.27351,-0.77963c0.01886,-0.10988 0.10649,-0.11194 0.20164,-0.05583c-0.08407,0.28644 -0.04673,0.57736 -0.00936,0.86826c0.03304,0.21439 -0.02904,0.37268 -0.14185,0.52123c-0.09275,0.13346 -0.15487,0.29176 -0.33214,0.40899z" fill="#c8e0e1"/><path d="M331.67514,174.78968c0.19144,0.20703 0.10299,0.41696 0.04838,0.63345c-0.08645,0.09684 -0.18157,0.04075 -0.2692,0.04282c-0.21656,-0.06056 -0.40682,-0.1728 -0.59081,-0.32167c0.05147,-0.19815 0.01845,-0.41255 0.13437,-0.5794c0.08766,-0.00205 0.13837,0.00769 0.20596,0.02067c0.16275,0.06911 0.32546,0.13818 0.47129,0.20408z" fill="#85d4d9"/><path d="M333.11633,172.19187c0.05426,0.29414 0.08102,0.54515 0.12468,0.79943c-0.18669,0.17215 -0.38711,0.32277 -0.59822,0.43348c-0.11204,-0.05936 -0.12696,-0.17572 -0.1651,-0.25869c-0.03813,-0.08298 -0.07626,-0.16596 -0.03734,-0.29088c0.17296,-0.19369 0.40284,-0.41429 0.67601,-0.68333z" fill="#c7dfe0"/><path d="M335.61584,173.59923c-0.14977,0.16036 -0.28259,0.32392 -0.4799,0.45624c-0.17455,-0.20377 -0.22132,-0.43972 -0.29877,-0.70049c0.15603,-0.19696 0.31204,-0.39395 0.47124,-0.60923c0.12501,0.28883 0.20247,0.54966 0.30742,0.8535z" fill="#c8e0e1"/><path d="M334.3928,165.0609c0.11007,0.17251 0.22011,0.34495 0.27007,0.56261c-0.14542,0.23685 -0.30774,0.47042 -0.47318,0.72229c-0.03378,-0.00651 -0.06759,-0.013 -0.06444,-0.03132c-0.07313,-0.18429 -0.14308,-0.38685 -0.19932,-0.56789c-0.02123,-0.07976 -0.02559,-0.15625 0.01765,-0.20466c0.13914,-0.20021 0.22756,-0.41017 0.44925,-0.48108z" fill="#c4dcdd"/><path d="M336.88132,166.1257c-0.17607,0.21202 -0.33525,0.42729 -0.51134,0.63934c-0.12576,-0.08094 -0.10061,-0.22739 -0.13247,-0.34701c-0.03184,-0.11959 -0.04366,-0.25428 -0.07236,-0.39218c0.12223,-0.20346 0.31641,-0.31738 0.48307,-0.47454c0.16389,0.16389 0.20008,0.36001 0.23309,0.5744z" fill="#c8e0e1"/><path d="M336.10471,173.59865c0.16234,-0.23358 0.30461,-0.45213 0.47007,-0.70401c0.14388,0.17895 0.19379,0.39664 0.32078,0.57236c-0.11164,0.24332 -0.30893,0.37563 -0.48186,0.56932c-0.15015,-0.14234 -0.26965,-0.25989 -0.30895,-0.43767z" fill="#c6ddde"/><path d="M338.19445,171.0877c0.1156,0.34377 0.1404,0.70788 0.31296,1.02476c-0.08841,0.20997 -0.15681,0.4049 -0.30969,0.58354c-0.1808,-0.16716 -0.27086,-0.35471 -0.18991,-0.62283c0.10727,-0.3198 0.13005,-0.65589 0.18662,-0.98548z" fill="#b9cfd0"/><path d="M330.16295,167.93585c-0.09197,-0.07443 -0.0256,-0.15625 -0.0299,-0.2327c-0.00551,-0.17129 0.00586,-0.33928 -0.0767,-0.46869c-0.10063,-0.22741 -0.0492,-0.42554 0.02236,-0.63877c0.03264,-0.0883 0.08212,-0.17336 0.13794,-0.29502c0.18518,0.24364 0.32274,0.45926 0.19543,0.79411c-0.09155,0.22829 -0.11868,0.48787 -0.17644,0.72263c-0.00946,0.05492 -0.01886,0.10987 -0.0727,0.11842z" fill="#c0d8d8"/><path d="M330.25565,171.56622c-0.05622,-0.18105 -0.06487,-0.334 -0.03974,-0.48046c0.01259,-0.07321 0.02826,-0.16481 0.0715,-0.21322c0.19299,-0.20877 0.33838,-0.44561 0.48382,-0.68245c0.1183,0.02278 0.08883,0.09273 0.07942,0.14769c-0.03144,0.1831 -0.06599,0.38452 -0.06362,0.5741c-0.00706,0.24452 -0.08605,0.39956 -0.27708,0.49526c-0.09394,0.03869 -0.15407,0.08387 -0.25427,0.15915z" fill="#c1d9d9"/><path d="M334.40085,173.25214c-0.13596,0.18188 -0.29637,0.30237 -0.46299,0.45947c-0.16706,-0.14559 -0.18315,-0.35673 -0.25631,-0.54104c0.15917,-0.21529 0.37336,-0.34433 0.57697,-0.51322c0.08687,0.20585 0.10615,0.39872 0.14235,0.59481z" fill="#c3dbdc"/><path d="M335.267,166.47733c-0.05744,-0.27584 -0.10105,-0.53014 -0.1616,-0.78765c0.09588,-0.15182 0.18865,-0.28525 0.35962,-0.36589c0.12697,0.17574 0.18004,0.37506 0.25006,0.57767c-0.10849,0.22503 -0.24442,0.40691 -0.44802,0.57583z" fill="#c3dadb"/><path d="M332.75203,173.80516c0.19733,-0.13229 0.37456,-0.24951 0.55181,-0.36674c0.14701,0.16065 0.20009,0.36 0.25316,0.55933c-0.14659,0.14205 -0.3038,0.24422 -0.49166,0.32154c-0.04442,-0.04638 -0.10259,-0.11432 -0.1301,-0.15739c-0.06564,-0.1261 -0.10063,-0.22738 -0.18319,-0.35677z" fill="#c4dbdc"/><path d="M330.00198,169.89086c-0.05973,0.34791 -0.10688,0.62256 -0.15712,0.91549c-0.10652,0.11194 -0.22367,0.18396 -0.38517,0.20962c-0.08567,-0.11105 -0.02988,-0.23272 -0.04481,-0.34907c-0.01495,-0.11633 -0.01298,-0.22946 0.00271,-0.32102c0.20047,-0.15064 0.36082,-0.27112 0.58445,-0.45505z" fill="#c2d9da"/><path d="M333.31383,164.53193c0.09275,-0.13346 0.19609,-0.22711 0.31009,-0.28084c0.13835,0.00769 0.18711,0.1306 0.26217,0.20173c0.07506,0.07113 0.17334,0.10897 0.20204,0.24687c-0.06523,0.1766 -0.21183,0.31863 -0.36471,0.49734c-0.06882,-0.10782 -0.13761,-0.21561 -0.20953,-0.3051c-0.06563,-0.1261 -0.13131,-0.25219 -0.20011,-0.36001z" fill="#c5ddde"/><path d="M334.8121,174.31474c-0.11596,0.16687 -0.26059,0.1958 -0.38084,0.28615c-0.17019,-0.12732 -0.26023,-0.31484 -0.36404,-0.52391c0.14344,-0.12374 0.28693,-0.24746 0.4135,-0.37445c0.18079,0.16717 0.22762,0.40314 0.33139,0.61221z" fill="#c3dbdc"/><path d="M331.70672,166.26568c-0.05821,-0.06792 -0.08571,-0.111 -0.11324,-0.1541c-0.05188,-0.10453 -0.10064,-0.22741 -0.16628,-0.35352c0.16234,-0.23358 0.27392,-0.47693 0.49442,-0.64259c0.11204,0.05936 0.14703,0.16065 0.19263,0.30183c-0.11475,0.26165 -0.25271,0.55664 -0.40751,0.84843z" fill="#c7dfe0"/><path d="M331.96701,172.78422c-0.19415,0.11398 -0.327,0.27755 -0.52863,0.33336c-0.13325,-0.13913 -0.1156,-0.34374 -0.21504,-0.47634c0.193,-0.20877 0.38712,-0.32278 0.58759,-0.47337c0.14074,0.1973 0.10615,0.39868 0.15612,0.61634z" fill="#c7dee0"/><path d="M331.43275,175.89681c-0.10767,0.01713 -0.21656,-0.06058 -0.35059,0.00827c-0.00706,0.24452 -0.00038,0.51058 -0.05812,0.74536c-0.06448,-0.03131 -0.14583,-0.06588 -0.20715,-0.11545c-0.09197,-0.07443 -0.14385,-0.17897 -0.12188,-0.30717c0.0208,-0.22294 0.03846,-0.42759 0.05931,-0.65058c0.21974,0.04224 0.318,0.08006 0.67844,0.31959z" fill="#61acb1"/><path d="M337.9453,166.53831c-0.14977,0.16036 -0.27628,0.28729 -0.44295,0.44442c-0.06055,-0.25751 -0.12425,-0.4967 -0.1679,-0.75098c0.10962,-0.13024 0.21617,-0.24214 0.35334,-0.32927c0.14073,0.19729 0.1938,0.39661 0.2575,0.63582z" fill="#c2dada"/><path d="M330.27098,171.98528c0.14977,-0.16036 0.30382,-0.24421 0.48111,-0.36142c0.02362,0.26934 0.0535,0.50206 0.08338,0.73479c-0.09588,0.15181 -0.22365,0.18397 -0.37456,0.24951c-0.13011,-0.15739 -0.14626,-0.3686 -0.18991,-0.62283z" fill="#c1d9d9"/><path d="M336.0452,165.60558c-0.12067,-0.21236 -0.19694,-0.37831 -0.29011,-0.54757c0.08213,-0.17335 0.23936,-0.27552 0.39659,-0.37768c0.13637,0.1208 0.25273,0.25665 0.32273,0.45925c-0.08842,0.20996 -0.27319,0.26901 -0.42919,0.46601z" fill="#c6dedf"/><path d="M336.10364,174.31717c-0.14658,0.14204 -0.30697,0.26252 -0.45041,0.38626c-0.14896,-0.04755 -0.2378,-0.14028 -0.31724,-0.28797c0.10849,-0.22503 0.31641,-0.31739 0.46929,-0.49609c0.13957,0.10247 0.20204,0.24689 0.29836,0.39781z" fill="#c0d7d7"/><path d="M330.98589,165.7866c-0.10217,0.1884 -0.15681,0.40486 -0.34034,0.55874c-0.07942,-0.14769 -0.16196,-0.27707 -0.24452,-0.40639c0.03773,-0.21968 0.15366,-0.38653 0.31402,-0.50701c0.12577,0.08094 0.19455,0.1887 0.27085,0.35465z" fill="#c3dadb"/><path d="M331.22071,174.58884c-0.06762,-0.013 -0.13837,-0.00767 -0.206,-0.02065c-0.11596,0.16688 -0.08293,0.38123 -0.13437,0.5794c-0.12145,-0.00445 -0.17021,-0.12732 -0.28537,-0.16835c-0.02674,-0.25102 0.06165,-0.461 -0.01579,-0.72175c0.17215,0.01421 0.26412,0.0886 0.37305,0.16629c0.07824,0.05284 0.20283,0.03902 0.26846,0.1651z" fill="#5aa0a4"/><path d="M338.99416,172.73558c-0.10217,0.18838 -0.15682,0.40491 -0.3203,0.54368c-0.11204,-0.05936 -0.16707,-0.14563 -0.24964,-0.27495c0.06839,-0.19492 0.17055,-0.38332 0.30024,-0.52862c0.11204,0.05937 0.17021,0.12731 0.26964,0.2599z" fill="#bdd3d4"/><path d="M333.34877,174.60076c0.13719,-0.08711 0.25745,-0.17745 0.37769,-0.26781c0.13639,0.12081 0.21582,0.26847 0.29208,0.43442c-0.07585,0.1367 -0.20047,0.15064 -0.31876,0.12788c-0.15212,-0.02921 -0.30421,-0.05846 -0.35102,-0.29445z" fill="#bdd4d5"/><path d="M338.9536,167.88592c-0.12223,0.20345 -0.24132,0.38864 -0.36352,0.59208c-0.10302,-0.41696 -0.12778,-0.7811 0.26368,-1.02737c0.08567,0.11105 0.07743,0.26078 0.09985,0.43528z" fill="#bbd2d3"/><path d="M331.8492,173.87747c-0.12262,-0.09924 -0.17139,-0.22211 -0.22011,-0.34497c0.02201,-0.12815 0.11282,-0.14854 0.193,-0.20876c0.06013,-0.04517 0.12339,-0.10865 0.22796,-0.10745c0.12262,0.09924 0.09122,0.2823 0.21072,0.39985c-0.12969,0.14531 -0.2637,0.21411 -0.41148,0.26136z" fill="#c3dadb"/><path d="M334.54593,168.94878c0.09041,-0.32306 0.18075,-0.64613 0.33876,-0.95621c0.09825,0.03781 0.09948,0.13262 0.08372,0.22415c-0.02397,0.24127 -0.0648,0.47925 -0.10252,0.69898c-0.02829,0.16478 -0.136,0.18193 -0.31994,0.03306z" fill="#b1c6c7"/><path d="M337.06075,174.539c0.05891,-0.13997 0.16978,-0.17542 0.2531,-0.25395c0.14976,-0.16037 0.30501,-0.14942 0.49214,-0.01886c-0.14542,0.23683 -0.37655,0.36261 -0.57068,0.4766c-0.11517,-0.04105 -0.15961,-0.08742 -0.17455,-0.20377z" fill="#bbd2d3"/><path d="M336.8422,169.20111c-0.0079,-0.36089 0.16384,-0.64937 0.32183,-0.95948c0.05743,0.27584 0.01024,0.55048 -0.01684,0.81004c-0.01138,0.16804 -0.06838,0.19494 -0.30499,0.14941z" fill="#bad1d2"/><path d="M339.04316,171.53459c0.09316,0.16923 0.19261,0.30184 0.28577,0.47103c-0.03262,0.0883 -0.10532,0.20672 -0.16113,0.32838c-0.28853,-0.15004 -0.28538,-0.16835 -0.22762,-0.40314c0.02202,-0.12815 0.06092,-0.25309 0.10295,-0.3963z" fill="#b5cbcc"/><path d="M335.5267,164.04954c0.15957,0.08743 0.24531,0.19846 0.33098,0.3095c-0.07899,0.15505 -0.2268,0.20226 -0.36394,0.28939c-0.10262,-0.11426 -0.18825,-0.22533 -0.29087,-0.33962c0.04519,-0.16152 0.20357,-0.16893 0.32387,-0.25928z" fill="#c0d7d8"/><path d="M337.76378,172.78281c0.0951,0.05613 0.14703,0.16064 0.19579,0.28351c-0.09158,0.22827 -0.24444,0.40694 -0.42486,0.54246c-0.12145,-0.00445 -0.14583,-0.06587 -0.16389,-0.16389c0.12533,-0.22178 0.25073,-0.44357 0.39301,-0.66208z" fill="#bdd4d4"/><path d="M338.2016,166.26606c-0.07313,-0.18429 -0.1262,-0.3836 -0.19933,-0.5679c0.08334,-0.07854 0.17413,-0.09893 0.27553,-0.07945c0.0951,0.05612 0.11322,0.15414 0.1482,0.25542c0.02123,0.07976 0.04246,0.15946 0.0637,0.23922c-0.06956,0.10014 -0.14975,0.16037 -0.28813,0.15267z" fill="#b6cccc"/><path d="M334.93484,165.25971c-0.09315,-0.16923 -0.17256,-0.31688 -0.28265,-0.48938c0.03574,-0.1066 0.10531,-0.20675 0.26688,-0.23243c0.10263,0.11426 0.20205,0.24687 0.31839,0.38272c-0.09275,0.13346 -0.16545,0.25192 -0.30264,0.33902z" fill="#c1d9d9"/><path d="M338.78014,166.96361c-0.09275,0.13346 -0.17921,0.23036 -0.31324,0.29913c-0.09316,-0.16923 -0.09552,-0.35884 -0.12109,-0.51505c0.05891,-0.13997 0.16663,-0.1571 0.26056,-0.19578c0.04756,0.02806 0.08136,0.03457 0.07824,0.05284c0.03181,0.1196 0.06368,0.2392 0.09552,0.35884z" fill="#b7cdce"/><path d="M339.40573,168.71048c-0.10062,-0.22742 -0.07236,-0.39219 -0.07788,-0.56348c-0.01929,-0.19285 0.09471,-0.24659 0.22872,-0.31539c0.09316,0.16923 0.09868,0.3405 0.14114,0.49999c-0.06524,0.17659 -0.24369,0.19904 -0.29201,0.37888z" fill="#b6cccc"/><path d="M338.45876,173.61622c-0.10964,0.13024 -0.1961,0.22708 -0.28571,0.34226c-0.15527,-0.01094 -0.25667,-0.03045 -0.35926,-0.14472c0.1297,-0.1453 0.2425,-0.29384 0.35213,-0.42406c0.16153,-0.02572 0.21026,0.09719 0.30855,0.13496c-0.00629,0.03662 0.00434,0.07651 -0.01569,0.09157z" fill="#c2dada"/><path d="M334.59123,164.21012c-0.07271,0.11839 -0.13283,0.16359 -0.22364,0.18399c-0.10457,-0.0012 -0.15957,-0.08742 -0.23467,-0.15858c-0.0582,-0.06792 -0.17335,-0.10898 -0.16825,-0.2404c0.10337,-0.09359 0.22048,-0.16564 0.37891,-0.17303c0.09947,0.1326 0.16511,0.25872 0.24767,0.38808z" fill="#bbd2d3"/><path d="M330.55011,173.00354c0.13402,-0.0688 0.23111,-0.1258 0.34508,-0.17954c0.09634,0.15092 0.13876,0.31039 0.19814,0.47315c-0.08645,0.09685 -0.18355,0.15388 -0.30185,0.13107c-0.03068,-0.0248 -0.0613,-0.04963 -0.07195,-0.0895c-0.05502,-0.08621 -0.10692,-0.19082 -0.16943,-0.33521z" fill="#bbd2d3"/><path d="M339.50259,171.60398c-0.16826,-0.24041 -0.16827,-0.24041 -0.19931,-0.56789c0.10966,-0.13024 0.24801,-0.12253 0.40954,-0.14819c0.00671,0.26611 -0.11865,0.48786 -0.21022,0.71613z" fill="#adc2c3"/><path d="M332.09256,174.18906c0.08645,-0.09685 0.20048,-0.1506 0.3219,-0.14614c0.09634,0.15092 0.17889,0.28021 0.25824,0.4279c-0.31876,0.12787 -0.33565,0.12464 -0.58019,-0.28173z" fill="#b5cbcc"/><path d="M337.52782,165.51239c-0.10651,0.11195 -0.18985,0.19045 -0.32388,0.25925c-0.11947,-0.11752 -0.1419,-0.29209 -0.21818,-0.45807c0.04324,-0.04843 0.08331,-0.07852 0.12339,-0.10867c0.04009,-0.03013 0.09393,-0.0387 0.15093,-0.06557c0.14269,0.08417 0.20832,0.21026 0.26772,0.37301z" fill="#bbd1d2"/><path d="M329.68372,171.94803c-0.14701,-0.16066 -0.1262,-0.38362 -0.18558,-0.54633c0.08962,-0.11514 0.21108,-0.11076 0.32509,-0.16448c0.08375,0.22413 0.0861,0.41375 0.00082,0.60539c-0.00945,0.05492 -0.08332,0.07855 -0.1403,0.10542z" fill="#b6cccd"/><path d="M331.69835,164.78876c-0.15917,0.21529 -0.33212,0.40898 -0.48813,0.60594c-0.11517,-0.04106 -0.17334,-0.10896 -0.21895,-0.25012c0.20357,-0.16893 0.40716,-0.33782 0.65203,-0.44206c0.02753,0.04314 0.04127,0.06469 0.05503,0.08621z" fill="#acc1c2"/><path d="M336.00449,168.28352c0.00985,0.24778 0.00279,0.49231 -0.07189,0.7238c-0.03264,0.0883 -0.09589,0.15179 -0.18039,0.13555c-0.03377,-0.00651 -0.09511,-0.05613 -0.09197,-0.07444c0.03024,-0.27789 0.19569,-0.52978 0.34424,-0.78492z" fill="#a7bbbb"/><path d="M337.08004,164.76428c-0.05267,0.10337 -0.14659,0.14205 -0.25742,0.17746c-0.09947,-0.1326 -0.1989,-0.26521 -0.29836,-0.39782c0.09275,-0.13346 0.19731,-0.13227 0.3156,-0.10953c0.09197,0.07443 0.17455,0.20376 0.24018,0.3299z" fill="#b7cdcd"/><path d="M334.6113,174.97591c0.11596,-0.16688 0.24998,-0.23562 0.40089,-0.30121c0.12577,0.08094 0.21462,0.17366 0.25394,0.35145c-0.22167,0.07085 -0.42137,0.01354 -0.65484,-0.05022z" fill="#b7cece"/><path d="M329.02013,170.1182c-0.0806,-0.24246 0.02787,-0.46747 -0.02523,-0.66681c0.08645,-0.09684 0.15093,-0.06554 0.17532,-0.00411c0.05937,0.16271 0.09869,0.34053 0.06724,0.52359c-0.02633,0.05169 -0.02949,0.06997 -0.21735,0.14735z" fill="#b4cacb"/><path d="M332.35239,165.04693c-0.09197,-0.07441 -0.13326,-0.1391 -0.15137,-0.23712c0.14976,-0.16037 0.30264,-0.33901 0.56441,-0.43999c-0.03654,0.31449 -0.22009,0.46834 -0.41305,0.67714z" fill="#b2c8c9"/><path d="M331.23956,173.6657c0.10262,0.11426 0.17454,0.20377 0.18948,0.32013c-0.02947,0.06998 -0.08333,0.07858 -0.13719,0.08712c-0.21538,0.03424 -0.2779,-0.1102 -0.33096,-0.3095c0.09079,-0.0204 0.18474,-0.05907 0.27867,-0.09775z" fill="#b5cbcb"/><path d="M338.00607,169.23576c0.02396,-0.24127 0.05852,-0.44265 0.14694,-0.6526c0.08765,-0.00204 0.11203,0.05936 0.10261,0.11427c-0.00511,0.13143 0.0067,0.26612 0.0016,0.39751c-0.02516,0.14647 -0.09903,0.17007 -0.25114,0.14081z" fill="#91a3a3"/><path d="M331.64628,167.63477c0.0806,0.24246 0.02283,0.47723 -0.01489,0.69694c-0.00629,0.03662 -0.04638,0.06676 -0.08333,0.07854c-0.03378,-0.00651 -0.07823,-0.05284 -0.07509,-0.07118c-0.00671,-0.26611 0.06796,-0.49761 0.17329,-0.70433z" fill="#99abac"/><path d="M330.72819,168.10131c-0.13088,0.0505 -0.21538,0.03423 -0.23348,-0.06382c-0.01179,-0.13468 0.05344,-0.31124 0.1619,-0.53628c0.08691,0.20585 0.05232,0.40722 0.07158,0.60006z" fill="#93a5a6"/><path d="M336.28847,175.0714c0.1698,-0.17538 0.32581,-0.37238 0.60491,-0.16742c-0.17296,0.19368 -0.39265,0.15146 -0.60491,0.16742z" fill="#9aadad"/><path d="M336.62382,171.69357c-0.02557,-0.15625 -0.04798,-0.33074 -0.07667,-0.46869c0.06643,-0.0818 0.12027,-0.09037 0.21854,-0.05254c0.05624,0.18106 -0.0428,0.35115 -0.05418,0.51918c-0.03378,-0.00651 -0.05071,-0.00976 -0.08767,0.00206z" fill="#c5dddd"/><path d="M333.78024,168.12066c0.11125,0.26726 0.07037,0.50532 -0.03806,0.73033c-0.00315,0.01832 -0.0401,0.03014 -0.07391,0.02364c-0.05386,0.00855 -0.07823,-0.05284 -0.07193,-0.08948c0.01764,-0.20464 0.10609,-0.41464 0.1839,-0.66448z" fill="#aec2c3"/><path d="M329.93333,172.22297c0.09316,0.16923 0.11245,0.36205 0.13485,0.53662c-0.06641,0.08181 -0.1309,0.05049 -0.15214,-0.02923c-0.04561,-0.14119 -0.09433,-0.26403 -0.11988,-0.42025c-0.02753,-0.04314 0.0326,-0.08828 0.13717,-0.0871z" fill="#9caeaf"/><path d="M336.2503,164.20757c-0.1427,-0.08418 -0.23151,-0.17689 -0.33097,-0.30951c0.2323,-0.031 0.40878,0.05967 0.6116,0.09867c-0.02634,0.05171 -0.03264,0.0883 -0.05267,0.10333c-0.07705,0.04191 -0.15091,0.06555 -0.22793,0.10749z" fill="#a9bebf"/><path d="M332.2872,170.61392c0.12461,-0.01386 0.18904,0.01743 0.24725,0.08539c-0.01455,0.18634 -0.09354,0.34135 -0.29399,0.49199c0.00391,-0.22623 0.03222,-0.391 0.04672,-0.57735z" fill="#b9cfd0"/><path d="M337.67284,171.17652c0.06642,-0.08179 0.13719,-0.08708 0.20792,-0.09242c0.07822,0.05288 0.06252,0.14438 -0.06364,0.57409c-0.18397,-0.14885 -0.09869,-0.34052 -0.14429,-0.48168z" fill="#869797"/><path d="M332.75984,167.96232c-0.101,0.2832 0.00712,0.56881 -0.26722,0.743c-0.02047,-0.28766 0.03413,-0.5041 0.26722,-0.743z" fill="#93a4a5"/><path d="M339.03899,168.50753c-0.04714,0.27462 -0.07859,0.45774 -0.11002,0.64083c-0.00629,0.03662 -0.04638,0.06676 -0.09707,0.05697c-0.01693,-0.00325 -0.04757,-0.02807 -0.06133,-0.04962c0.00388,-0.2262 0.03848,-0.42767 0.2684,-0.6482z" fill="#94a5a6"/><path d="M338.53136,171.0579c0.114,-0.05371 0.16781,-0.06231 0.23976,0.02717c-0.00824,0.14971 -0.01962,0.31777 -0.10177,0.49112c-0.147,-0.1607 -0.11557,-0.34374 -0.13801,-0.51826z" fill="#abbfc0"/><path d="M339.45474,167.50939c-0.09079,0.02039 -0.12773,0.03218 -0.16157,0.02568c-0.14193,-0.29208 -0.1419,-0.29204 -0.04719,-0.53862c0.15015,0.14234 0.11876,0.32542 0.20873,0.51295z" fill="#acc0c1"/><path d="M336.6591,174.23477c0.12658,-0.12699 0.23935,-0.27552 0.38281,-0.39925c0.06013,-0.04517 0.12774,-0.03215 0.15957,0.08742c-0.14977,0.16036 -0.29634,0.30238 -0.54238,0.31181z" fill="#9fb2b2"/><path d="M337.82223,165.32306c-0.07195,-0.08952 -0.1132,-0.15419 -0.1313,-0.25219c0.04637,-0.06677 0.10336,-0.09363 0.19102,-0.09569c0.09825,0.03783 0.15014,0.14236 0.20204,0.24691c-0.05267,0.10337 -0.15721,0.10216 -0.26174,0.10095z" fill="#aec2c3"/><path d="M334.55366,171.44687c-0.11947,-0.11751 -0.09749,-0.24573 -0.09241,-0.37713c0.00946,-0.05492 0.06641,-0.08178 0.11712,-0.07203c0.03378,0.00651 0.07825,0.05286 0.07194,0.08948c0.03184,0.11959 -0.02082,0.22299 -0.09668,0.35968z" fill="#91a2a3"/><path d="M335.13871,163.76688c-0.23937,0.27552 -0.25938,0.29062 -0.43511,-0.00797c0.1415,-0.0106 0.27553,-0.07943 0.43511,0.00797z" fill="#869696"/><path d="M329.78482,167.90098c-0.12696,-0.17574 -0.05742,-0.27581 -0.01851,-0.40077c0.13638,0.12081 0.13638,0.12081 0.01851,0.40077z" fill="#555f5f"/><path d="M335.66947,171.15073c-0.01571,0.09156 -0.03772,0.21968 -0.11042,0.33814c-0.12382,-0.19404 -0.11125,-0.26726 -0.02168,-0.38243c0.02319,-0.03338 0.07392,-0.02364 0.13207,0.04432z" fill="#93a5a6"/><path d="M339.72366,168.79052c0.13131,0.2522 0.10814,0.28559 -0.17176,0.2885c-0.01179,-0.13469 0.07149,-0.21323 0.17176,-0.2885z" fill="#8b9b9c"/><path d="M329.53992,167.19195c0.01927,0.19285 -0.02278,0.33604 -0.06484,0.4793c-0.11083,0.03545 -0.15526,-0.01095 -0.14267,-0.08419c0.02515,-0.14647 0.0672,-0.2897 0.20748,-0.39511z" fill="#9aacad"/><path d="M339.01916,166.38538c0.08567,0.11105 0.17767,0.18549 0.13564,0.32871c-0.00316,0.01832 -0.02318,0.03339 -0.04008,0.03014c-0.14584,-0.06588 -0.16079,-0.18225 -0.09554,-0.35883z" fill="#5f6a6b"/><path d="M333.44636,171.0827c-0.03813,-0.08298 -0.02557,-0.15626 0.00393,-0.22623c0.02319,-0.03338 0.06327,-0.06349 0.09394,-0.03866c0.03068,0.0248 0.0582,0.06792 0.05187,0.10455c-0.01259,0.07321 -0.04205,0.1432 -0.14975,0.16033z" fill="#636e6f"/><path d="M337.32695,164.54697c0.12774,-0.03216 0.2091,0.00236 0.25158,0.16183c-0.14778,0.04723 -0.20597,-0.02065 -0.25158,-0.16183z" fill="#4a5354"/></g><g data-paper-data="{&quot;index&quot;:null}" fill="#000000" stroke="#000000" stroke-width="1.2"><path d="M321.79879,189.63678c-0.09006,-1.99965 1.92541,-4.68739 2.59462,-7.01961c0.72051,-2.51096 0.0999,-4.48133 1.25859,-5.5893c0.80934,-0.7739 2.22328,-0.44137 2.93576,-0.15562c1.73251,0.69483 2.14494,4.71547 0.92118,8.98033c-1.22374,4.26486 -3.62028,7.15895 -5.35277,6.46411c-0.78508,-0.31486 -2.28273,-1.02285 -2.35737,-2.67989z"/><path d="M324.20234,193.04874c-0.10412,-2.78951 2.47089,-8.46476 2.47089,-8.46476c0,0 0.14094,-4.2121 0.16749,-4.29954c1.69107,-5.57323 4.7091,-4.43201 8.12058,-3.06381c1.62364,0.65116 3.89698,2.43079 4.28078,4.54181c0.43528,2.39413 -0.85711,4.97795 -1.7556,8.10923c-1.69072,5.89224 -5.1828,10.07636 -8.6478,8.68668c-1.52528,-0.61173 -4.49724,-1.78392 -4.63631,-5.50962z"/></g></g><path d="M306.64744,181.53542c-0.09768,-0.47747 -4.93586,6.51221 -5.36779,6.05621c-2.0597,-2.17449 -4.97169,-5.11729 -4.97169,-5.11729c0,0 4.9042,-4.7763 8.27527,-7.7763c0.93079,-0.82834 3.25361,-0.17346 3.51318,-0.42637c0.33523,-0.32663 8.46083,0.29428 8.77145,0.48962c3.71565,2.33667 6.11306,8.52092 6.11306,8.52092c0,0 -1.68761,2.10884 -1.72519,5.49819c-0.00027,0.02408 -1.69851,-5.39818 -1.70269,-5.02061c-0.02508,2.26196 0.64183,6.98268 0.64183,6.98268c0,0 -4.96789,1.35914 -7.40299,1.40988c-2.68446,0.05593 -10.04847,-2.12201 -10.04847,-2.12201c0,0 4.30338,-6.54281 3.90404,-8.49493z" fill="#000000" fill-rule="nonzero" stroke="#202020" stroke-width="2.5" stroke-linecap="butt" stroke-linejoin="miter"/><g stroke-linejoin="miter"><g stroke-linecap="butt"><path d="M335.55048,146.52579c0.70784,14.4041 -9.05406,26.68005 -21.80384,27.41912c-12.74976,0.73906 -23.6593,-10.33862 -24.36713,-24.74272c-0.70784,-14.4041 9.05406,-26.68005 21.80384,-27.41912c12.74976,-0.73906 23.6593,10.33862 24.36713,24.74272z" fill="none" fill-rule="nonzero" stroke="#000000" stroke-width="4.5"/><g><g fill-rule="nonzero"><path d="M297.95343,131.80657l0.01082,0.00807" data-paper-data="{&quot;index&quot;:null}" fill="#ffab19" stroke="#000000" stroke-width="5"/><g data-paper-data="{&quot;index&quot;:null}" fill="none" stroke="none" stroke-width="1" font-family="sans-serif" font-weight="normal" font-size="12" text-anchor="start"/></g><path d="M297.95343,131.80657l0.01082,0.00807" data-paper-data="{&quot;index&quot;:null}" fill="#ffab19" fill-rule="nonzero" stroke="#000000" stroke-width="5"/><path d="M312.26526,149.18891" fill="#001026" fill-rule="evenodd" stroke="#000000" stroke-width="5"/><g data-paper-data="{&quot;index&quot;:null}" fill="none" fill-rule="nonzero" stroke="none" stroke-width="1" font-family="sans-serif" font-weight="normal" font-size="12" text-anchor="start"/><g data-paper-data="{&quot;index&quot;:null}" fill="none" fill-rule="nonzero" stroke="none" stroke-width="1" font-family="sans-serif" font-weight="normal" font-size="12" text-anchor="start"/></g></g><path d="M318.36487,146.46927c0.37608,4.28889 -2.58978,8.13112 -6.62445,8.58185c-4.03467,0.45074 -7.61026,-2.66066 -7.98635,-6.94956c-0.37608,-4.28889 2.58978,-8.13113 6.62445,-8.58186c4.03467,-0.45074 7.61027,2.66068 7.98636,6.94957z" fill="#ffffff" fill-rule="nonzero" stroke="#000000" stroke-width="1.5" stroke-linecap="butt"/><path d="M335.04323,143.56086c0.37608,4.28889 -2.58978,8.13113 -6.62445,8.58186c-4.03467,0.45074 -7.61027,-2.66068 -7.98636,-6.94957c-0.37608,-4.28889 2.58978,-8.13113 6.62445,-8.58186c4.03467,-0.45074 7.61027,2.66068 7.98636,6.94957z" fill="#ffffff" fill-rule="nonzero" stroke="#000000" stroke-width="1.5" stroke-linecap="butt"/><path d="M318.59547,146.51052l1.56183,-0.30853" fill="none" fill-rule="nonzero" stroke="#000000" stroke-width="1.5" stroke-linecap="round"/><path d="M288.73805,147.7014l15.10693,-1.15154" fill="none" fill-rule="nonzero" stroke="#000000" stroke-width="1.5" stroke-linecap="round"/><path d="M286.75206,133.83895l-3.88756,-2.27899l-2.78507,-3.15176l8.18315,0.84053l1.31497,-0.44035l-1.2796,-1.86548l-2.41545,-1.03751l5.9506,0.63699l-3.24916,-2.15708l-2.38058,-3.93232l5.17298,2.24021l3.1673,0.28217l-2.56184,-2.62913l5.21276,1.62952l-1.50823,-2.90793l-0.18568,-2.45561l5.12725,2.03171l2.17823,0.27768l1.70175,1.10865l-0.52194,-4.52507l3.13951,3.48066l0.046,-4.93906l3.96563,3.70759l1.12929,-2.89596l1.9354,4.35333l2.31844,-2.62275l-0.12278,-2.81238l3.25193,3.77873l-0.023,2.46953l3.96311,-3.06162l2.30025,-0.8822l-3.21607,3.03526l1.28163,-0.48512l-0.64524,2.95765l3.88783,-2.86856l-2.5577,4.21355l6.8217,-2.89987l-3.48867,4.58126l3.34844,-1.68081l-3.02457,3.58657l2.13249,0.06919l-7.62135,1.3944l-27.49672,9.62699l-6.83725,4.15315l2.01366,-3.05583l-5.72678,1.13444l3.1989,-2.46999l-7.81632,-0.34791l4.95117,-1.88182l1.67043,-1.28675l1.81046,-0.06911" fill="#979797" fill-rule="nonzero" stroke="#919191" stroke-width="3" stroke-linecap="round"/></g><path d="M311.72886,165.74703c0,2.68365 -4.71688,9.84969 -8.29321,9.84969c-3.57633,0 -4.65783,-7.16604 -4.65783,-9.84969c0,-0.30334 12.95105,-0.35929 12.95105,0z" fill="#ff0000" fill-rule="nonzero" stroke="#000000" stroke-width="3" stroke-linecap="butt" stroke-linejoin="miter"/></g></g></svg>