<svg version="1.1" xmlns="http://www.w3.org/2000/svg" xmlns:xlink="http://www.w3.org/1999/xlink" width="72.44728" height="144.60077" viewBox="0,0,72.44728,144.60077"><defs><linearGradient x1="231.3764" y1="213.41422" x2="247.73556" y2="213.41422" gradientUnits="userSpaceOnUse" id="color-1"><stop offset="0" stop-color="#2a801c"/><stop offset="1" stop-color="#62f67a"/></linearGradient><linearGradient x1="231.3764" y1="213.41422" x2="247.73556" y2="213.41422" gradientUnits="userSpaceOnUse" id="color-2"><stop offset="0" stop-color="#2a801c"/><stop offset="1" stop-color="#62f67a"/></linearGradient><linearGradient x1="224.96084" y1="196.95031" x2="243.11276" y2="196.95031" gradientUnits="userSpaceOnUse" id="color-3"><stop offset="0" stop-color="#2a801c"/><stop offset="1" stop-color="#62f67a"/></linearGradient><linearGradient x1="224.96084" y1="196.95031" x2="243.11276" y2="196.95031" gradientUnits="userSpaceOnUse" id="color-4"><stop offset="0" stop-color="#2a801c"/><stop offset="1" stop-color="#62f67a"/></linearGradient><linearGradient x1="217.87945" y1="217.2553" x2="234.90299" y2="217.2553" gradientUnits="userSpaceOnUse" id="color-5"><stop offset="0" stop-color="#2a801c"/><stop offset="1" stop-color="#62f67a"/></linearGradient><linearGradient x1="217.87945" y1="217.2553" x2="234.90299" y2="217.2553" gradientUnits="userSpaceOnUse" id="color-6"><stop offset="0" stop-color="#2a801c"/><stop offset="1" stop-color="#62f67a"/></linearGradient><linearGradient x1="197.90818" y1="134.02872" x2="251.93071" y2="134.63706" gradientUnits="userSpaceOnUse" id="color-7"><stop offset="0" stop-color="#66ff81" stop-opacity="0"/><stop offset="1" stop-color="#66ff81"/></linearGradient></defs><g transform="translate(-194.39262,-99.43366)"><g data-paper-data="{&quot;isPaintingLayer&quot;:true}" stroke-miterlimit="10" stroke-dasharray="" stroke-dashoffset="0" style="mix-blend-mode: normal"><path d="M233.54224,179.0976l-1.07162,12.96525" fill="none" fill-rule="nonzero" stroke="#66ff81" stroke-width="7" stroke-linecap="round" stroke-linejoin="miter"/><g stroke-width="1.2"><path d="M241.24808,191.06581l3.82649,35.7578c0,0 6.25751,2.04113 5.01849,10.93788c-0.07064,0.50719 -0.46503,2.98602 -3.16541,3.08895c-2.58641,0.09859 -7.44437,-2.1491 -9.21755,-2.98561c-0.82356,-0.38852 -2.01416,-1.50492 -2.66963,-3.08332c-0.65994,-1.58922 -0.32409,-3.58842 -0.18498,-4.72505c0.05665,-0.46296 -2.70698,-37.11422 -2.70698,-37.11422" fill="#44ff00" fill-rule="evenodd" stroke="#44ff00" stroke-linecap="round" stroke-linejoin="round"/><path d="M241.88956,190.28727c0.49811,3.4781 3.17544,22.84005 3.17544,22.84005c0,0 1.56019,6.40479 1.61354,8.13435c0.06143,1.99192 0.23884,3.43451 0.23884,3.43451l-0.73008,-1.71822c0,0 0.47416,1.1891 0.63907,1.87018c0.51377,2.12172 0.90919,3.72495 0.90919,3.72495c0,0 -6.30443,-2.11392 -9.13535,0.14353c-2.83093,2.25746 -2.2556,7.92824 -2.2556,7.92824c0,0 -4.59886,-2.15768 -4.53097,-5.91165c0.01673,-0.92545 1.07679,-3.43616 1.07679,-3.43616c0,0 -0.55857,0.02193 -0.49987,-0.60751c0.01394,-0.14956 -1.10581,-32.40488 -1.00812,-33.10628c0,0 10.39251,-4.09648 10.50714,-3.29597z" fill="url(#color-1)" fill-rule="nonzero" stroke="url(#color-2)" stroke-linecap="butt" stroke-linejoin="miter"/></g><g fill-rule="evenodd" stroke-width="1.2" stroke-linecap="round" stroke-linejoin="round"><g fill="#ffab19" stroke="#001026" font-family="&quot;Helvetica Neue&quot;, Helvetica, Arial, sans-serif" font-weight="400" font-size="16" text-anchor="start"/><path d="M230.2402,201.52549c-1.4401,-0.34788 -3.14006,-1.1142 -3.94935,-2.29781c-1.04404,-1.52689 -1.0158,-3.636 -1.33001,-5.26186c5.91673,1.52603 12.97065,0.24161 18.15192,-2.6162c-0.13363,1.11904 0.20057,6.10667 -1.91962,7.87192c-1.41073,1.17457 -5.7876,2.9636 -6.90335,3.21913c-2.16543,0.49596 -3.72358,-0.83647 -4.04956,-0.9152z" fill="url(#color-3)" stroke="url(#color-4)"/></g><g stroke-width="1.2"><g fill-rule="evenodd" stroke-linecap="round" stroke-linejoin="round"><path d="M233.64637,199.03937c0,0 -2.84309,37.1711 -3.36189,37.29378c-1.48883,0.35207 -9.64778,-2.80064 -9.64778,-2.80064l5.24455,-37.37208" data-paper-data="{&quot;index&quot;:null}" fill="#ffab19" stroke="#001026"/><path d="M234.90299,198.44013c0,0 -0.66415,7.86031 -0.86031,12.028c-0.18814,3.99744 -0.29363,12.48883 -0.29363,12.48883c0,0 0.79756,6.17005 0.01781,7.69158c-0.36114,0.70474 -0.64573,-3.4835 -0.64573,-3.4835c0,0 0.31769,4.7216 0.34897,5.13778c0.21826,2.90368 -0.77779,6.71679 -3.38789,7.07905c-2.86571,0.39773 -7.61663,0.84695 -10.06577,-1.45031c-1.04207,-0.97745 -2.45361,-3.85474 -2.0737,-6.91983c0.42843,-3.45663 2.7292,-7.07781 2.7292,-7.07781l-2.11413,3.9473c0,0 -0.02204,-1.97095 0.32196,-3.41675c0.38631,-1.62362 1.88374,-5.85353 1.88374,-5.85353l4.53936,-23.80519" data-paper-data="{&quot;index&quot;:null}" fill="url(#color-5)" stroke="url(#color-6)"/></g><path d="M233.09103,236.34309c-0.07762,2.28139 -0.71084,4.93202 -2.08526,6.30842c-1.37951,1.3815 -9.67044,0.83401 -10.95217,-0.85436c-1.21722,-1.60341 -1.71304,-4.5669 -1.63728,-6.7935c0.15554,-4.57122 3.56667,-7.97711 7.61899,-7.60722c4.05229,0.36988 7.21127,4.37546 7.05572,8.9467z" fill="#44ff00" fill-rule="nonzero" stroke="#44ff00" stroke-linecap="butt" stroke-linejoin="miter"/></g><path d="M238.66959,179.30571l15.19896,13.60016" fill="none" fill-rule="nonzero" stroke="#66ff81" stroke-width="7" stroke-linecap="round" stroke-linejoin="miter"/><path d="M231.31538,177.81335l-15.32041,11.87133" fill="none" fill-rule="nonzero" stroke="#66ff81" stroke-width="7" stroke-linecap="round" stroke-linejoin="miter"/><g stroke-linejoin="miter"><g data-paper-data="{&quot;index&quot;:null}" stroke-linecap="butt"><path d="M262.28903,158.25016c-2.78672,13.15918 -16.19395,21.46596 -29.9459,18.5537c-13.75194,-2.91227 -22.641,-15.94072 -19.85426,-29.0999c2.78672,-13.15918 16.19395,-21.46596 29.9459,-18.55369c13.75194,2.91227 22.641,15.94072 19.85426,29.0999z" fill="none" fill-rule="nonzero" stroke="#66ff81" stroke-width="4.5"/><g><g fill-rule="nonzero"><path d="M225.89952,134.46756l-0.00953,-0.01029" data-paper-data="{&quot;index&quot;:null}" fill="#ffab19" stroke="#000000" stroke-width="5"/><g data-paper-data="{&quot;index&quot;:null}" fill="none" stroke="none" stroke-width="1" font-family="sans-serif" font-weight="normal" font-size="12" text-anchor="start"/></g><path d="M225.89952,134.46756l-0.00953,-0.01029" data-paper-data="{&quot;index&quot;:null}" fill="#ffab19" fill-rule="nonzero" stroke="#000000" stroke-width="5"/><path d="M236.85077,154.11317" fill="#001026" fill-rule="evenodd" stroke="#000000" stroke-width="5"/><g data-paper-data="{&quot;index&quot;:null}" fill="none" fill-rule="nonzero" stroke="none" stroke-width="1" font-family="sans-serif" font-weight="normal" font-size="12" text-anchor="start"/><g data-paper-data="{&quot;index&quot;:null}" fill="none" fill-rule="nonzero" stroke="none" stroke-width="1" font-family="sans-serif" font-weight="normal" font-size="12" text-anchor="start"/></g></g><path d="M211.97848,160.07781c0,0 -1.05923,-1.66897 -1.79923,-4.3144c-2.27084,-8.11798 -13.49938,-53.34244 -13.49938,-53.34244l50.54458,28.0918c0,0 -17.32349,-4.46971 -24.20847,0.93451c-2.66395,2.09101 -8.51804,9.68434 -9.96612,14.19785c-2.04318,6.36836 -1.07134,14.43267 -1.07134,14.43267z" fill="url(#color-7)" fill-rule="nonzero" stroke="#66ff81" stroke-width="3" stroke-linecap="round"/><path d="M219.02381,143.22559l21.90571,8.29994l-1.01696,6.16671" fill="none" fill-rule="nonzero" stroke="#66ff81" stroke-width="5" stroke-linecap="round"/><path d="M246.75696,158.4409l1.14028,-6.14638l16.44266,-14.43358" fill="none" fill-rule="nonzero" stroke="#66ff81" stroke-width="5" stroke-linecap="round"/></g><path d="M235.76292,172.46407c0,0.12385 -18.51768,-0.90238 -18.51768,-1.94923c0,-4.26126 7.92752,-9.82737 11.69538,-9.82737c3.76785,0 6.8223,7.51533 6.8223,11.7766z" fill="#ff0000" fill-rule="nonzero" stroke="#66ff81" stroke-width="3" stroke-linecap="butt" stroke-linejoin="miter"/></g></g></svg>