<svg version="1.1" xmlns="http://www.w3.org/2000/svg" xmlns:xlink="http://www.w3.org/1999/xlink" width="72.44728" height="130.62168" viewBox="0,0,72.44728,130.62168"><defs><linearGradient x1="227.62119" y1="221.17338" x2="248.66373" y2="221.17338" gradientUnits="userSpaceOnUse" id="color-1"><stop offset="0" stop-color="#2a801c"/><stop offset="1" stop-color="#62f67a"/></linearGradient><linearGradient x1="227.62119" y1="221.17338" x2="248.66373" y2="221.17338" gradientUnits="userSpaceOnUse" id="color-2"><stop offset="0" stop-color="#2a801c"/><stop offset="1" stop-color="#62f67a"/></linearGradient><linearGradient x1="216.62281" y1="207.4919" x2="237.14857" y2="207.4919" gradientUnits="userSpaceOnUse" id="color-3"><stop offset="0" stop-color="#2a801c"/><stop offset="1" stop-color="#62f67a"/></linearGradient><linearGradient x1="216.62281" y1="207.4919" x2="237.14857" y2="207.4919" gradientUnits="userSpaceOnUse" id="color-4"><stop offset="0" stop-color="#2a801c"/><stop offset="1" stop-color="#62f67a"/></linearGradient><linearGradient x1="213.82565" y1="224.07075" x2="233.59005" y2="224.07075" gradientUnits="userSpaceOnUse" id="color-5"><stop offset="0" stop-color="#2a801c"/><stop offset="1" stop-color="#62f67a"/></linearGradient><linearGradient x1="213.82565" y1="224.07075" x2="233.59005" y2="224.07075" gradientUnits="userSpaceOnUse" id="color-6"><stop offset="0" stop-color="#2a801c"/><stop offset="1" stop-color="#62f67a"/></linearGradient><linearGradient x1="188.40332" y1="147.33553" x2="242.42585" y2="147.94387" gradientUnits="userSpaceOnUse" id="color-7"><stop offset="0" stop-color="#66ff81" stop-opacity="0"/><stop offset="1" stop-color="#66ff81"/></linearGradient></defs><g transform="translate(-184.88777,-112.74047)"><g data-paper-data="{&quot;isPaintingLayer&quot;:true}" stroke-miterlimit="10" stroke-dasharray="" stroke-dashoffset="0" style="mix-blend-mode: normal"><path d="M228.03503,203.46868l-3.99765,-11.06427" fill="none" fill-rule="nonzero" stroke="#66ff81" stroke-width="7" stroke-linecap="round" stroke-linejoin="miter"/><g stroke-width="1.2"><path d="M236.60868,203.73788l8.66297,26.4148c0,0 7.34651,0.55792 8.72035,7.7562c0.07832,0.41037 0.40825,2.42417 -2.46292,2.95647c-2.75,0.50982 -8.65503,-0.44433 -10.8153,-0.80527c-1.00334,-0.16764 -2.62255,-0.84589 -3.80708,-1.97664c-1.19262,-1.13851 -1.43961,-2.76564 -1.63575,-3.68207c-0.07989,-0.37327 -8.51906,-29.76421 -8.51906,-29.76421" fill="#44ff00" fill-rule="evenodd" stroke="#44ff00" stroke-linecap="round" stroke-linejoin="round"/><path d="M227.84891,210.57751c-1.40796,-7.37706 4.05777,-7.39916 6.93415,-7.2773c1.25077,0.05299 0.65901,-1.9228 2.99991,3.87093c0.51556,1.276 2.11297,6.50447 4.08621,10.96653c1.3512,3.05544 3.2372,5.76672 3.64751,6.54313c0.96945,1.83447 1.08863,3.49207 1.08863,3.49207l-1.30724,-1.22815c0,0 0.87125,0.85514 1.25563,1.36278c1.19746,1.58139 2.11002,2.77513 2.11002,2.77513c0,0 -7.41908,-0.60728 -9.77535,1.6399c-2.35627,2.24718 -0.01336,6.60716 -0.01336,6.60716c0,0 -5.59918,-0.92676 -6.66782,-3.88803c-0.26345,-0.73003 0.1124,-2.88017 0.1124,-2.88017c0,0 -0.59371,0.11061 -0.72204,-0.39383c-0.06542,-0.25715 -0.05311,-4.05291 -0.78929,-8.33734c-0.96913,-5.64014 -2.75652,-12.18989 -2.95938,-13.2528z" fill="url(#color-1)" fill-rule="nonzero" stroke="url(#color-2)" stroke-linecap="butt" stroke-linejoin="miter"/></g><path d="M217.41982,205.15901c-0.05665,-0.21684 1.32228,0.44578 4.15189,0.5737c3.73299,0.16878 9.32437,-0.15763 10.87507,-0.34983c4.02122,-0.49839 4.39229,-2.02366 4.54245,-1.44884c0.55567,2.12714 -0.94376,6.0187 -5.63964,6.14343c-2.06362,0.05481 -6.17333,0.68453 -8.74779,-0.11011c-3.28385,-1.01361 -4.8705,-3.61602 -5.18198,-4.80837z" fill="#004fd9" fill-rule="nonzero" stroke="#001026" stroke-width="1.2" stroke-linecap="butt" stroke-linejoin="miter"/><g fill-rule="nonzero" stroke-linecap="butt" stroke-linejoin="miter"><g fill="none" stroke="none" stroke-width="1" font-family="sans-serif" font-weight="normal" font-size="12" text-anchor="start"/><path d="M216.62281,203.7672c0,0 9.1947,1.50914 13.28392,1.5692c4.0892,0.06006 7.16218,-1.26892 7.16218,-1.26892c0,0 0.47892,2.0809 -0.91177,4.07041c-1.07647,1.54001 -3.44347,3.11127 -6.94608,3.07822c-3.19096,-0.03011 -6.90085,-0.7618 -8.95892,-2.15642c-3.11944,-2.11384 -3.62932,-5.2925 -3.62932,-5.2925z" fill="url(#color-3)" stroke="url(#color-4)" stroke-width="1.2"/></g><g stroke-width="1.2"><path d="M227.59524,209.2291c0,0 3.10735,30.5943 2.49466,30.68331c-1.75824,0.25541 -12.29362,-2.53702 -12.29362,-2.53702l-0.20638,-30.70363" data-paper-data="{&quot;index&quot;:null}" fill="#ffab19" fill-rule="evenodd" stroke="#001026" stroke-linecap="round" stroke-linejoin="round"/><path d="M229.02557,208.76431c0,0 0.58012,6.46808 1.07844,9.90126c0.47798,3.29294 1.85303,10.2947 1.85303,10.2947c0,0 2.06814,5.10822 1.38415,6.34495c-0.31679,0.57281 -2.3373,-2.45761 -2.3373,-2.45761c0,0 2.15547,3.47116 2.26743,3.81518c0.7812,2.40028 0.23861,5.52215 -2.88891,5.7596c-3.43382,0.26069 -9.1638,0.51953 -12.56557,-1.433c-3.07969,-1.76765 -4.01167,-5.66201 -3.99085,-7.25337c0.01461,-1.11752 1.68935,-1.68754 1.75842,-3.06043c0.04593,-0.91288 -2.00152,3.201 -1.73229,1.98801c0.30799,-1.38767 1.45609,-7.59357 1.45609,-7.59357l1.33434,-19.52935" data-paper-data="{&quot;index&quot;:null}" fill="url(#color-5)" fill-rule="evenodd" stroke="url(#color-6)" stroke-linecap="round" stroke-linejoin="round"/><path d="M232.08088,238.04698c0.28185,1.71992 -0.00518,3.70639 -1.33741,4.71516c-1.33719,1.0125 -10.80779,0.41895 -12.53176,-0.88304c-1.6372,-1.23646 -2.67851,-3.48362 -2.95359,-5.16224c-0.56473,-3.4462 2.74335,-5.94217 7.38885,-5.57486c4.64545,0.3673 8.86919,3.45878 9.4339,6.905z" fill="#44ff00" fill-rule="nonzero" stroke="#44ff00" stroke-linecap="butt" stroke-linejoin="miter"/></g><path d="M250.70027,194.17318l-21.53554,-1.56066" fill="none" fill-rule="nonzero" stroke="#66ff81" stroke-width="7" stroke-linecap="round" stroke-linejoin="miter"/><path d="M221.81052,191.12016l-15.32041,11.87133" fill="none" fill-rule="nonzero" stroke="#66ff81" stroke-width="7" stroke-linecap="round" stroke-linejoin="miter"/><g stroke-linejoin="miter"><g data-paper-data="{&quot;index&quot;:null}" stroke-linecap="butt"><path d="M252.78417,171.55697c-2.78672,13.15918 -16.19395,21.46596 -29.9459,18.5537c-13.75194,-2.91227 -22.641,-15.94072 -19.85426,-29.0999c2.78672,-13.15918 16.19395,-21.46596 29.9459,-18.55369c13.75194,2.91227 22.641,15.94072 19.85426,29.0999z" fill="none" fill-rule="nonzero" stroke="#66ff81" stroke-width="4.5"/><g><g fill-rule="nonzero"><path d="M216.38513,147.76408l0.00953,0.01029" data-paper-data="{&quot;index&quot;:null}" fill="#ffab19" stroke="#000000" stroke-width="5"/><g data-paper-data="{&quot;index&quot;:null}" fill="none" stroke="none" stroke-width="1" font-family="sans-serif" font-weight="normal" font-size="12" text-anchor="start"/></g><path d="M216.38513,147.76408l0.00953,0.01029" data-paper-data="{&quot;index&quot;:null}" fill="#ffab19" fill-rule="nonzero" stroke="#000000" stroke-width="5"/><path d="M227.34591,167.41998" fill="#001026" fill-rule="evenodd" stroke="#000000" stroke-width="5"/><g data-paper-data="{&quot;index&quot;:null}" fill="none" fill-rule="nonzero" stroke="none" stroke-width="1" font-family="sans-serif" font-weight="normal" font-size="12" text-anchor="start"/><g data-paper-data="{&quot;index&quot;:null}" fill="none" fill-rule="nonzero" stroke="none" stroke-width="1" font-family="sans-serif" font-weight="normal" font-size="12" text-anchor="start"/></g></g><path d="M202.47362,173.38462c0,0 -1.05923,-1.66897 -1.79923,-4.3144c-2.27084,-8.11798 -13.49938,-53.34244 -13.49938,-53.34244l50.54458,28.0918c0,0 -17.32349,-4.46971 -24.20847,0.93451c-2.66395,2.09101 -8.51804,9.68434 -9.96612,14.19785c-2.04318,6.36836 -1.07134,14.43267 -1.07134,14.43267z" fill="url(#color-7)" fill-rule="nonzero" stroke="#66ff81" stroke-width="3" stroke-linecap="round"/><path d="M209.51895,156.5324l21.90571,8.29994l-1.01696,6.16671" fill="none" fill-rule="nonzero" stroke="#66ff81" stroke-width="5" stroke-linecap="round"/><path d="M237.2521,171.74771l1.14028,-6.14638l16.44266,-14.43358" fill="none" fill-rule="nonzero" stroke="#66ff81" stroke-width="5" stroke-linecap="round"/></g><path d="M224.35709,185.45706c0,0.08723 -13.04237,-0.63556 -13.04237,-1.37288c0,-3.0013 5.58351,-6.92161 8.23728,-6.92161c2.65377,0 4.80509,5.2932 4.80509,8.29449z" fill="#ff0000" fill-rule="nonzero" stroke="#66ff81" stroke-width="3" stroke-linecap="butt" stroke-linejoin="miter"/></g></g></svg>