<svg version="1.1" xmlns="http://www.w3.org/2000/svg" xmlns:xlink="http://www.w3.org/1999/xlink" width="146.87624" height="66.327" viewBox="0,0,146.87624,66.327"><g transform="translate(-156.86792,-146.8365)"><g stroke-miterlimit="10"><path d="M283.10473,180.00001c0,17.07305 -19.29865,30.9135 -43.10473,30.9135c-23.80608,0 -43.10473,-13.84045 -43.10473,-30.9135c0,-17.07305 19.29864,-30.9135 43.10473,-30.9135c23.80608,0 43.10473,13.84045 43.10473,30.9135z" fill="#ff666e" stroke="#ffffff" stroke-width="4.5" stroke-linecap="butt"/><path d="M274.93468,197.68178c0,0 -89.77267,-21.80717 -75.3285,-22.03169" fill="none" stroke="#ffffff" stroke-width="4.5" stroke-linecap="round"/><path d="M301.49416,204.21281c0,0 -11.04193,-0.07247 -14.07155,-3.29968c-1.46811,-1.56386 4.22811,-7.08139 3.24222,-10.46752c-1.4051,-4.82592 -9.19913,-7.56747 -9.19913,-7.56747" fill="none" stroke="#ffffff" stroke-width="4.5" stroke-linecap="round"/><path d="M267.96826,156.75406l-50.07116,49.20035" fill="none" stroke="#ffffff" stroke-width="4.5" stroke-linecap="round"/><path d="M275.80548,204.21279l-73.14742,-44.41092" fill="none" stroke="#ffffff" stroke-width="4.5" stroke-linecap="round"/><path d="M159.11792,209.00222c0,0 2.9196,0.58955 6.11542,-2.21516c3.26517,-2.86557 6.83778,-9.1597 9.69811,-12.33397c6.19301,-6.87273 27.72661,-8.96254 27.72661,-8.96254" fill="none" stroke="#ffffff" stroke-width="4.5" stroke-linecap="round"/><path d="M280.5949,169.8161c0,0 -19.26955,17.54857 -27.16611,19.219c-7.11594,1.50529 -8.10139,-7.46316 -8.10139,-7.46316" fill="none" stroke="#ffffff" stroke-width="4.5" stroke-linecap="round"/><g fill="#ffffff" stroke-linecap="butt"><g stroke="none" stroke-width="1"><path d="M241.9757,182.79331c-0.14467,0.17183 -0.29486,0.1632 -0.46696,0.12145c-0.26465,-0.08813 -0.50249,-0.22939 -0.75815,-0.33532c-0.0731,0.03002 -0.1462,0.06 -0.20386,0.09772c-1.26397,0.74376 -2.55509,0.85217 -3.86471,0.72922c-0.27605,-0.02722 -0.56109,-0.03672 -0.80781,-0.1603c-0.04626,-0.0232 -0.11689,-0.03634 -0.16565,-0.01631c-0.26803,0.11005 -0.46854,0.00964 -0.6934,-0.08078c-0.194,-0.07494 -0.37014,-0.18535 -0.5552,-0.27805c-0.10794,-0.05406 -0.19802,-0.14358 -0.22149,-0.28858c-0.02344,-0.14497 -0.11998,-0.25995 -0.20112,-0.36716c-0.53144,-0.55484 -0.95404,-1.21058 -1.2767,-1.94952c-0.17428,-0.42038 -0.26006,-0.86302 -0.33687,-1.32339c-0.22398,-1.35569 -0.05903,-2.71645 0.39092,-4.06774c0.20911,-0.60586 0.50426,-1.19084 0.86108,-1.74493c0.26986,-0.41997 0.62982,-0.75046 0.99623,-1.0555c1.1659,-0.97056 2.47023,-1.44982 3.85635,-1.55501c0.2631,-0.02365 0.53018,0.02126 0.79731,0.0662c0.18104,0.02404 0.35564,0.02264 0.53762,-0.10826c0.1576,-0.12088 0.33217,-0.12231 0.50427,-0.08054c0.26465,0.08813 0.5114,0.21171 0.75815,0.33532c0.07712,0.03863 0.12094,0.10497 0.16472,0.17135c0.13541,0.26765 0.33993,0.43671 0.57776,0.578c0.51543,0.28033 0.91053,0.72248 1.31459,1.14692c0.14929,0.16361 0.28965,0.34488 0.3967,0.55392c0.35843,0.66802 0.67709,1.33836 0.82271,2.12185c0.23131,0.11585 0.46914,0.25717 0.71591,0.38072c0.09254,0.04635 0.20049,0.10043 0.20849,0.23766c0.01696,0.11951 0.11845,0.14816 0.21098,0.19447c0.60794,0.32665 1.22483,0.63561 1.83277,0.96227c1.36362,0.70517 2.74271,1.41796 4.08844,2.15855c1.3149,0.72515 2.65665,1.39707 3.98944,2.08676c0.21592,0.10813 0.3985,0.24401 0.61441,0.3521c1.04873,0.5252 2.09743,1.05042 3.1372,1.59334c0.18506,0.09268 0.38801,0.14993 0.50397,0.34124c0.04382,0.06636 0.12983,0.08723 0.20695,0.12587c0.77115,0.38615 1.54873,0.7978 2.31985,1.18398c0.03083,0.01544 0.07709,0.03864 0.10794,0.05406c0.25572,0.10583 0.31647,0.29173 0.29921,0.59396c-0.06564,1.01079 -0.41136,1.92572 -1.03712,2.74484c-0.16255,0.20728 -0.35592,0.39909 -0.5712,0.55776c-0.15761,0.12088 -0.31675,0.13004 -0.47991,0.07055c-0.48951,-0.17855 -0.98794,-0.33933 -1.49287,-0.5256c-0.3572,-0.13448 -0.71192,-0.31212 -1.09591,-0.39339c-0.83865,-0.17574 -1.58541,-0.57194 -2.39721,-0.80081c-0.45218,-0.1376 -0.90685,-0.23208 -1.35009,-0.38743c-0.47407,-0.1708 -0.95061,-0.29845 -1.41821,-0.44375c-0.84915,-0.26983 -1.69583,-0.58283 -2.55391,-0.83491c-1.14059,-0.30477 -2.2455,-0.68043 -3.35032,-1.0561c-0.38157,-0.12448 -0.76307,-0.24888 -1.14463,-0.37337c-0.591,-0.20713 -1.19737,-0.42201 -1.78832,-0.62915c-0.32635,-0.119 -0.65514,-0.19487 -0.98148,-0.31385c-0.35074,-0.10903 -0.6437,-0.25575 -1.0009,-0.39023zM241.98337,182.24204c0.19986,-0.16637 0.36889,-0.34818 0.5006,-0.57089c0.37133,-0.39139 0.64368,-0.85454 0.916,-1.31773c0.35036,-0.57954 0.64797,-1.20768 0.93664,-1.81813c0.33339,-0.69907 0.48574,-1.42218 0.63161,-2.17077c0.00492,-0.08635 0.00986,-0.17271 0.01726,-0.30222c-0.12336,-0.06181 -0.24677,-0.12355 -0.37012,-0.18534c-0.03083,-0.01544 -0.07063,-0.01317 -0.12583,-0.0186c-0.06262,0.12407 -0.1098,0.25589 -0.14157,0.39543c-0.06104,0.23589 -0.14403,0.43859 -0.20511,0.67447c-0.1758,0.57813 -0.49929,1.10454 -0.72133,1.65949c-0.12766,0.29136 -0.22454,0.59812 -0.38304,0.87402c-0.35929,0.59729 -0.6415,1.23313 -1.06248,1.79947c-0.11136,0.14409 -0.2316,0.30592 -0.34299,0.45002c-0.12833,0.02455 -0.169,0.18183 -0.2446,0.25501c-0.09993,0.08319 -0.19987,0.1664 -0.2828,0.36908c0.2631,-0.02365 0.43677,0.12992 0.65758,0.1517c0.06017,-0.08091 0.18844,-0.10548 0.2202,-0.24503zM242.86544,181.79564c-0.34453,0.33819 -0.41358,0.43683 -0.49903,0.68272c0.194,0.07494 0.37263,0.14219 0.56663,0.21715c0.10794,0.05406 0.22083,0.02182 0.32081,-0.06142c0.06665,-0.05549 0.11134,-0.14408 0.17795,-0.19955c0.24215,-0.21184 0.44043,-0.49003 0.5681,-0.78136c0.13971,-0.0855 0.21129,-0.22725 0.28284,-0.36909c0.41789,-0.78996 0.84226,-1.55452 1.18307,-2.3831c0.14804,-0.37 0.28068,-0.74769 0.3889,-1.11537c0.07248,-0.29683 0.15389,-0.61132 0.07615,-0.91673c-0.20051,-0.10042 -0.40099,-0.20077 -0.60148,-0.30121c-0.04071,0.15724 -0.07249,0.29681 -0.0953,0.41857c-0.12707,0.55812 -0.28495,1.10081 -0.50454,1.61261c-0.27572,0.6613 -0.62855,1.28403 -0.96595,1.91447c-0.15205,0.30138 -0.38766,0.53866 -0.52431,0.84772c-0.18844,0.10548 -0.29332,0.275 -0.37382,0.43454zM261.1395,188.19384c0.21774,-0.20182 0.3584,-0.44225 0.46818,-0.69814c0.02435,-0.01 0.05768,-0.03775 0.06663,-0.05549c0.19924,-0.43316 0.36764,-0.88177 0.42559,-1.34127c0.03918,-0.26911 0.09375,-0.53042 0.01352,-0.7926c-0.86367,-0.43252 -1.72729,-0.865 -2.63722,-1.32076c-0.04503,0.51038 -0.18254,0.9745 -0.33551,1.43077c-0.12613,0.40317 -0.3513,0.73453 -0.50827,1.12223c-0.07153,0.1418 -0.14956,0.25819 -0.22112,0.4c-0.18444,0.17408 -0.34697,0.38137 -0.49656,0.63952c0.46269,0.2317 0.96606,0.30615 1.41578,0.48695c0.47408,0.1708 0.95712,0.32389 1.41576,0.48694c0.18843,-0.10547 0.29087,-0.23183 0.39324,-0.35821zM257.81605,187.08458c0.13969,-0.08551 0.2267,-0.21957 0.29823,-0.36136c0.13327,-0.11091 0.19835,-0.2782 0.29425,-0.42998c0.26585,-0.48863 0.45461,-1.01588 0.60354,-1.54081c0.0814,-0.3145 0.13196,-0.6445 0.10294,-0.96987c-0.06169,-0.03091 -0.11443,-0.07951 -0.17614,-0.11039c-0.7557,-0.3785 -1.49593,-0.74921 -2.2427,-1.14536c-0.79302,-0.41935 -1.57061,-0.83097 -2.36362,-1.25033c-1.16318,-0.6047 -2.30191,-1.21947 -3.46511,-1.82415c-1.293,-0.69196 -2.59743,-1.32301 -3.87254,-2.05044c-0.20695,-0.12586 -0.44726,-0.22395 -0.67859,-0.33983c-0.03668,0.22587 -0.03357,0.44948 -0.10113,0.65991c-0.17423,0.68994 -0.44997,1.35126 -0.7565,1.99715c-0.2862,0.56723 -0.58784,1.12677 -0.88949,1.6863c-0.14713,0.21502 -0.26987,0.41998 -0.41699,0.63499c-0.16407,0.09545 -0.21373,0.27046 -0.31614,0.39683c-0.11136,0.14409 -0.24457,0.255 -0.3186,0.43999c0.13634,0.11269 0.27762,0.13904 0.3945,0.17535c1.00833,0.26071 1.96049,0.67095 2.94195,0.98482c0.63078,0.20486 1.26154,0.40975 1.90125,0.59683c0.84915,0.26983 1.69179,0.51419 2.52552,0.77626c0.68599,0.21027 1.37196,0.42061 2.04898,0.64865c0.73225,0.2335 1.44011,0.47699 2.16343,0.72819c0.6616,0.2203 1.33866,0.44832 2.02462,0.65863c0.09589,-0.1518 0.24211,-0.21184 0.29825,-0.36135zM240.13741,170.8144c-0.05797,0.45946 -0.18412,0.86268 -0.29481,1.27352c-0.11965,0.42861 -0.21492,0.84721 -0.35001,1.26806c-0.12615,0.40318 -0.29209,0.80862 -0.43366,1.20403c-0.15052,0.41318 -0.30101,0.82632 -0.47583,1.24947c-0.15698,0.38768 -0.33835,0.7854 -0.49534,1.17312c-0.18135,0.3977 -0.42438,0.76452 -0.54404,1.19313c-0.28033,0.32589 -0.41542,0.74678 -0.61866,1.11135c-0.2276,0.3745 -0.43333,0.78227 -0.66093,1.1568c-0.21866,0.35678 -0.46173,0.7236 -0.6958,1.07269c-0.24306,0.36682 -0.53886,0.68499 -0.73556,1.07496c0.35226,0.22083 0.46019,0.27489 0.80935,0.2721c0.18444,-0.17408 0.3689,-0.3482 0.54035,-0.57318c0.19832,-0.27818 0.39663,-0.55634 0.61934,-0.84454c0.41208,-0.54863 0.79972,-1.08729 1.11278,-1.70772c0.21466,-0.42545 0.41388,-0.85862 0.69026,-1.25316c0.06017,-0.08091 0.1138,-0.18727 0.13661,-0.30904c0.06102,-0.23589 0.19278,-0.45861 0.30007,-0.67133c0.39355,-0.77997 0.69454,-1.60628 0.97116,-2.42261c0.38644,-1.07224 0.64702,-2.16304 0.86129,-3.27701c0.05209,-0.21815 0.10424,-0.43632 0.03695,-0.6476c-0.21344,-0.15133 -0.45374,-0.24946 -0.77356,-0.34303zM234.68884,177.05681c0.12894,0.2422 0.29366,0.41355 0.44944,0.60257c0.1249,0.1736 0.30105,0.28401 0.5219,0.30579c0.40837,0.07128 0.80535,0.20344 1.16653,0.40658c0.03083,0.01544 0.08604,0.02093 0.10146,0.02863c0.09096,-0.06547 0.12671,-0.13638 0.12521,-0.2482c-0.00646,-0.02544 -0.02838,-0.05862 -0.04382,-0.06635c-0.42042,-0.27717 -0.82292,-0.58978 -1.20757,-0.93786c-0.05274,-0.04863 -0.13633,-0.11268 -0.21593,-0.10812c-0.28254,-0.05268 -0.56505,-0.10534 -0.89726,0.01698zM236.48092,179.28667c-0.38956,-0.26171 -0.74581,-0.55117 -1.0777,-0.85062c-0.10549,-0.09721 -0.22238,-0.13359 -0.37262,-0.14217c-0.22976,-0.00404 -0.44662,0.0428 -0.67889,0.08193c-0.07957,0.00457 -0.17455,0.00138 -0.19739,0.1232c0.21747,0.21995 0.41058,0.44988 0.64588,0.63436c0.7998,0.02302 0.79977,0.02304 1.54897,0.37604c0.0731,-0.02999 0.12429,-0.0932 0.13169,-0.22273zM240.20792,175.69061c0.24183,0.20995 0.49262,0.40215 0.74338,0.59436c0.05275,0.04864 0.10549,0.09723 0.17612,0.1104c0.30933,-0.00049 0.6098,0.01669 0.91763,-0.09561c-0.07774,-0.3054 -0.28225,-0.47443 -0.44451,-0.68894c-0.0811,-0.10723 -0.18261,-0.13586 -0.3174,-0.13672c-0.3183,0.01822 -0.61876,0.00101 -0.92559,-0.04168c-0.01542,-0.00774 -0.04873,0.01997 -0.09744,0.04c-0.01141,0.06089 -0.03178,0.13958 -0.0521,0.21817zM236.43129,173.48843c0.13049,0.35402 0.30815,0.57625 0.47689,0.81618c0.07464,0.08181 0.1607,0.10266 0.24676,0.12356c0.42381,0.07899 0.82078,0.21123 1.1974,0.42203c0.04626,0.02318 0.10146,0.02863 0.14774,0.05177c0.11381,-0.18727 0.11629,-0.23044 -0.0071,-0.29222c-0.40102,-0.20082 -0.74182,-0.48255 -1.00709,-0.83745c-0.16225,-0.2145 -0.35627,-0.28946 -0.60148,-0.30124c-0.14376,0.01683 -0.26312,0.02365 -0.4531,0.01733zM237.55173,177.20268c0.04469,-0.08863 -0.00807,-0.13725 -0.06975,-0.16816c-0.4318,-0.21627 -0.77668,-0.56659 -1.12153,-0.91697c-0.28563,-0.27626 -0.67611,-0.38302 -1.14956,-0.28704c0.07619,0.19359 0.22148,0.28857 0.31556,0.44671c0.20358,0.32401 0.4966,0.47073 0.84083,0.55434c0.37506,0.099 0.7591,0.18031 1.08049,0.38566c0.0552,0.00541 0.0796,-0.00455 0.10395,-0.01456zM235.82069,174.73689c0.13139,0.19905 0.21004,0.34949 0.29765,0.48216c0.13791,0.22448 0.31403,0.33491 0.56568,0.37214c0.34669,0.04039 0.67303,0.1594 0.9904,0.29612c0.11692,0.03635 0.24027,0.09814 0.34822,0.15219c0.06017,-0.08091 0.02283,-0.12178 -0.00802,-0.13724c-0.40254,-0.3126 -0.7961,-0.64294 -1.13848,-1.03651c-0.06816,-0.05634 -0.12091,-0.10495 -0.20696,-0.12585c-0.26063,-0.0195 -0.51231,-0.05674 -0.84849,-0.00304zM240.61717,174.49662c0.32881,0.07585 0.57956,0.26806 0.83928,0.44255c0.07711,0.03862 0.11197,0.12269 0.20696,0.12585c0.15025,0.00861 0.5043,-0.08054 0.7415,-0.20602c-0.09162,-0.20135 -0.2588,-0.32945 -0.39267,-0.48536c-0.11198,-0.12269 -0.24428,-0.16676 -0.41238,-0.1399c-0.28743,0.03366 -0.55704,0.03191 -0.83063,-0.0385c-0.01542,-0.00776 -0.06415,0.0123 -0.08849,0.02229c-0.0512,0.06321 -0.087,0.1341 -0.06352,0.27907zM238.57624,181.06875c0.26956,0.00176 0.52282,0.15082 0.80381,0.09169c0.04718,-0.13181 -0.00308,-0.22362 -0.02899,-0.32542c-0.0608,-0.18587 -0.08174,-0.37401 -0.20667,-0.5476c-0.33126,-0.03269 -0.62183,-0.22259 -0.95957,-0.28069c-0.09096,0.06547 -0.13572,0.15408 -0.14957,0.25817c0.20854,0.23766 0.38375,0.50305 0.54104,0.80389zM239.28244,177.86954c0.13634,0.11269 0.27266,0.22539 0.33589,0.36807c0.15483,0.34401 0.426,0.45757 0.75971,0.44706c0.11934,-0.00682 0.2119,0.03953 0.35811,-0.02049c-0.06481,-0.25453 -0.17182,-0.46356 -0.2789,-0.67258c-0.02837,-0.05864 -0.09008,-0.0895 -0.17612,-0.1104c-0.26713,-0.04492 -0.50987,-0.09988 -0.77694,-0.14485c-0.04626,-0.0232 -0.12586,-0.01861 -0.22178,0.13323zM238.719,178.9863c0.30353,0.24082 0.55827,0.50167 0.68877,0.85569c0.01943,0.07634 0.09007,0.0895 0.15177,0.12038c0.14775,0.05179 0.30446,0.08585 0.49688,0.04899c-0.09069,-0.35633 -0.22615,-0.624 -0.37697,-0.89937c-0.05027,-0.09178 -0.11842,-0.14816 -0.21994,-0.17676c-0.18751,-0.04956 -0.36614,-0.11673 -0.55367,-0.16623c-0.01542,-0.00776 -0.06417,0.01229 -0.08851,0.02229c-0.02684,0.05317 -0.05367,0.10637 -0.09835,0.195zM237.86676,172.51964c-0.18999,-0.00631 -0.39543,-0.02042 -0.58544,-0.02674c-0.02435,0.01 -0.04875,0.02001 -0.09745,0.04001c0.04038,0.26452 0.17182,0.46356 0.30566,0.61945c0.54072,0.11533 1.05055,0.21524 1.57493,0.47785c-0.12154,-0.37175 -0.43091,-0.37121 -0.60456,-0.5248c-0.21994,-0.17676 -0.40653,-0.38122 -0.59316,-0.58569zM234.19345,177.11968c-0.27449,0.08459 -0.53115,0.13374 -0.76429,0.32782c0.07216,0.12497 0.10458,0.25221 0.1703,0.35173c0.06572,0.0995 0.12245,0.21674 0.23044,0.27079c0.16562,0.01631 0.32078,-0.06143 0.47345,-0.09598c0.15266,-0.0346 0.3029,-0.02597 0.45155,-0.12913c-0.18418,-0.24766 -0.3618,-0.46987 -0.56138,-0.72528zM235.93937,180.43659c-0.42689,-0.30259 -0.78565,-0.54886 -1.14434,-0.79513c-0.03083,-0.01544 -0.06816,-0.05638 -0.11689,-0.03634c-0.23225,0.03914 -0.47747,0.02736 -0.70167,0.20372c0.18012,0.17904 0.34486,0.35036 0.51853,0.50395c0.471,-0.0528 0.91913,0.0162 1.44442,0.12382zM241.34188,177.50197c-0.02747,-0.21362 -0.1638,-0.32628 -0.25139,-0.45899c-0.09407,-0.15816 -0.21497,-0.2631 -0.4204,-0.27714c-0.27604,-0.02722 -0.55211,-0.05445 -0.78102,-0.21348c-0.09347,0.10865 -0.11381,0.18727 -0.02127,0.23361c0.22238,0.13356 0.46019,0.2749 0.60703,0.48165c0.22148,0.28857 0.5244,0.26264 0.86706,0.23435zM240.11715,179.08691c0.14591,0.36174 0.24802,0.65714 0.35906,0.9348c0.10794,0.05406 0.19649,0.03179 0.27604,0.02721c0.08851,-0.02229 0.19891,-0.01139 0.29237,-0.12002c-0.02499,-0.25682 -0.08978,-0.51127 -0.17888,-0.75577c-0.22731,-0.04721 -0.44817,-0.069 -0.74858,-0.08623zM242.27702,176.68238c-0.31182,0.04367 -0.58388,0.08512 -0.87131,0.11876c0.13789,0.2245 0.26037,0.44127 0.38282,0.65804c0.2631,-0.02365 0.4929,-0.01961 0.73898,-0.16284c-0.05829,-0.22903 -0.15887,-0.41264 -0.25048,-0.61396zM234.12924,176.0216c-0.0148,0.25906 0.15887,0.41265 0.2594,0.59625c0.02837,0.05864 0.11442,0.07953 0.1786,0.06721c0.20789,-0.02911 0.39142,-0.04823 0.58387,-0.08504c0.01542,0.00774 0.03331,-0.02776 0.05122,-0.0632c-0.15328,-0.23223 -0.331,-0.45437 -0.48428,-0.68663c-0.19893,0.01138 -0.39385,0.09141 -0.58879,0.17146zM235.9758,173.54882c-0.20543,-0.01403 -0.39541,-0.02039 -0.60176,0.12052c0.06728,0.21134 0.11663,0.45812 0.25696,0.63944c0.13478,0.0009 0.25168,0.03722 0.37998,0.01266c0.11934,-0.00681 0.23381,0.07272 0.36055,-0.06369c-0.12893,-0.24222 -0.25788,-0.48441 -0.39576,-0.70896zM242.45028,176.14751c0.17457,-0.0014 0.33218,-0.12233 0.5052,-0.23551c-0.11349,-0.23452 -0.1629,-0.48126 -0.343,-0.66032c-0.19495,0.08003 -0.40928,0.08371 -0.63106,0.2169c0.15328,0.23223 0.31554,0.44672 0.46885,0.67893zM240.92497,173.27402c0.26866,0.15674 0.58853,0.25029 0.8393,0.44254c0.21345,0.15131 0.39942,0.08897 0.63013,-0.06193c-0.10703,-0.20901 -0.2588,-0.32945 -0.41704,-0.4753c-0.36301,0.10688 -0.70079,0.04878 -1.05238,0.09473zM235.22261,181.32111c0.02036,-0.07863 -0.02592,-0.10178 -0.07216,-0.12497c-0.19153,-0.11814 -0.40745,-0.22627 -0.59007,-0.36213c-0.25726,-0.21765 -0.50092,-0.11761 -0.78684,0.02788c0.0901,0.08953 0.1493,0.16357 0.21746,0.21992c0.15826,0.14584 0.31892,0.24855 0.56909,0.17397c0.15266,-0.03459 0.30937,-0.00049 0.45066,0.02579c0.05275,0.04864 0.11196,0.12268 0.21189,0.03952zM238.53499,182.06951c-0.01696,-0.11951 -0.05183,-0.20361 -0.07126,-0.27996c-0.03393,-0.23904 -0.14592,-0.36177 -0.34888,-0.41897c-0.17209,-0.04181 -0.33282,-0.1445 -0.49598,-0.20399c-0.04626,-0.02321 -0.08358,-0.06407 -0.16163,0.0523c0.17118,0.1968 0.32452,0.429 0.44451,0.68894c0.02837,0.05864 0.10546,0.09721 0.16715,0.12813c0.14123,0.02633 0.26713,0.04497 0.46605,0.03354zM241.53155,177.93011c-0.18998,-0.00635 -0.38646,-0.03812 -0.58789,0.0165c0.08023,0.26222 0.12062,0.52672 0.2585,0.75122c0.20789,-0.02913 0.38892,-0.00506 0.57987,-0.1537c-0.06726,-0.21135 -0.11012,-0.43268 -0.2505,-0.61396zM235.7195,175.39693c-0.08023,-0.2622 -0.21164,-0.46125 -0.36093,-0.62482c-0.20788,0.0291 -0.3914,0.04826 -0.61071,0.13829c0.02098,0.18817 0.09966,0.33859 0.20268,0.47899c0.25415,-0.00595 0.49937,0.00581 0.76893,0.00761zM241.44497,179.86303c0.16165,-0.0523 0.26555,-0.06685 0.37196,-0.12462c0.0731,-0.03002 0.13077,-0.06772 0.18846,-0.10549c0.01233,-0.21587 -0.01513,-0.42948 -0.11568,-0.61309c-0.19893,0.01138 -0.39786,0.02282 -0.59528,0.14603c0.05829,0.22903 0.08577,0.44266 0.15056,0.69714zM236.93138,181.95481c0.08671,0.28769 0.13851,0.49125 0.21222,0.72804c0.05274,0.04863 0.16961,0.08497 0.289,0.07813c0.1104,0.01089 0.20049,0.10039 0.33127,0.03267c0.03422,-0.18272 0.01077,-0.32768 -0.05244,-0.47039c-0.25571,-0.10584 -0.48703,-0.22174 -0.78003,-0.36848zM233.26782,177.07792c0.12186,-0.05004 0.24371,-0.10005 0.36552,-0.15003c0.12186,-0.05005 0.22823,-0.10778 0.35007,-0.15777c-0.10701,-0.20903 -0.1678,-0.39494 -0.31954,-0.51533c-0.11934,0.00683 -0.20386,0.09775 -0.29485,0.16318c-0.09096,0.06547 -0.22823,0.10778 -0.27541,0.23955c0.05431,0.16046 0.07774,0.30538 0.17429,0.42039zM242.63763,177.729c-0.22577,0.06459 -0.45558,0.06051 -0.6863,0.21149c0.06079,0.18586 0.13049,0.35401 0.19126,0.53992c0.22576,-0.06458 0.41826,-0.1014 0.60269,-0.27553c-0.01451,-0.1627 0.00185,-0.30997 -0.10767,-0.47585zM234.26267,179.24163c-0.22391,-0.2454 -0.42596,-0.4576 -0.62798,-0.66977c-0.12833,0.02455 -0.24769,0.03138 -0.34112,0.14003c0.07128,0.27997 0.24243,0.4767 0.4047,0.6912c0.12834,-0.02456 0.25663,-0.04911 0.37845,-0.09913c0.07065,0.01318 0.10392,-0.01456 0.18597,-0.06228zM240.24367,180.48258c-0.22332,0.02144 -0.4084,-0.07129 -0.60334,0.00875c0.05586,0.27222 0.10522,0.51899 0.21874,0.75354c0.17058,-0.07005 0.32479,0.00723 0.50676,-0.12371c0.01232,-0.21585 -0.07282,-0.39179 -0.12216,-0.63856zM236.08519,172.60452c0.02993,0.17043 0.08423,0.33084 0.17185,0.46355c0.23874,-0.0137 0.46851,-0.00963 0.73809,-0.00787c-0.11596,-0.19128 -0.18568,-0.35946 -0.26834,-0.57853c-0.23874,0.01369 -0.45311,0.01734 -0.64157,0.12284zM238.919,182.15078c0.23627,0.02952 0.43276,0.06126 0.64557,-0.05418c-0.00558,-0.18042 -0.00461,-0.3354 -0.09223,-0.46812c-0.22084,-0.02178 -0.43271,-0.06126 -0.69336,-0.08077c0.02747,0.21362 0.06388,0.40949 0.14006,0.60309zM235.2087,174.34168c-0.12245,-0.21676 -0.11664,-0.45814 -0.2684,-0.57855c-0.20788,0.0291 -0.37197,0.12459 -0.5296,0.24552c0.03642,0.19587 0.05738,0.38404 0.20017,0.52219c0.18599,-0.06228 0.36303,-0.10691 0.59774,-0.18918zM243.09897,176.31685c-0.17058,0.07004 -0.32322,0.1046 -0.46541,0.23326c0.10703,0.20901 0.1166,0.45811 0.28133,0.62944c0.16164,-0.05229 0.277,-0.12777 0.37291,-0.27959c-0.05183,-0.2036 -0.128,-0.39719 -0.18881,-0.58305zM233.57365,179.91792c-0.17706,0.04456 -0.28341,0.10231 -0.39237,0.20322c0.0608,0.18587 0.16131,0.36948 0.3464,0.46213c0.1462,-0.06003 0.29235,-0.12001 0.45402,-0.17231c-0.09808,-0.2268 -0.27419,-0.33718 -0.4081,-0.49304zM242.69786,172.78497c-0.13076,0.06771 -0.23719,0.1255 -0.30626,0.2241c0.10053,0.18358 0.21904,0.33171 0.37078,0.45214c0.13724,-0.04226 0.24366,-0.10002 0.33711,-0.20866c-0.09162,-0.20135 -0.26775,-0.31172 -0.40162,-0.46758zM242.37582,179.3965c0.23871,-0.01366 0.3257,-0.14777 0.39078,-0.31503c0.06261,-0.12407 0.09438,-0.26362 -0.00218,-0.3786c-0.17706,0.04456 -0.33865,0.09686 -0.49627,0.21777c0.02993,0.17043 0.0688,0.32313 0.10766,0.47583zM238.3025,171.69424c-0.16563,-0.01633 -0.28899,-0.07811 -0.42871,0.00734c0.08331,0.48583 0.42104,0.54399 0.83434,0.52888c-0.14034,-0.18132 -0.26529,-0.35495 -0.40562,-0.53622zM241.18936,180.86747c0.01883,-0.19044 -0.00464,-0.33541 -0.08978,-0.51128c-0.13971,0.0855 -0.30291,0.026 -0.43613,0.13691c-0.03828,0.11411 0.00556,0.18042 0.01603,0.2745c0.02591,0.10176 0.01204,0.20587 0.11998,0.25995c0.12834,-0.02456 0.25665,-0.04913 0.38988,-0.16005zM237.69575,176.76411c0.1909,-0.14863 0.21374,-0.27046 0.08389,-0.35767c-0.19152,-0.11814 -0.40098,-0.20082 -0.595,-0.27577c-0.06165,-0.03091 -0.14775,-0.05175 -0.23225,0.03915c0.23289,0.22767 0.48363,0.41984 0.74335,0.59434zM243.63961,175.3219c0.11041,0.01089 0.19248,-0.03684 0.26157,-0.13548c-0.04936,-0.2468 -0.06539,-0.52131 -0.22764,-0.7358c-0.19985,0.16638 -0.24956,0.34139 -0.15793,0.54268c0.02593,0.10178 0.01852,0.23137 0.12399,0.32859zM238.73999,174.31151c0.12521,-0.24814 0.12115,-0.3168 -0.0176,-0.38631c-0.22487,-0.0904 -0.46512,-0.18853 -0.72577,-0.20802c0.20605,0.28084 0.40563,0.53623 0.74336,0.59434zM241.63035,172.45024c0.11441,0.07952 0.22241,0.13356 0.32139,0.20537c0.20696,0.12589 0.20697,0.12585 0.44511,-0.1546c-0.0901,-0.08953 -0.18662,-0.2045 -0.23936,-0.2531c-0.19496,0.08001 -0.35655,0.13231 -0.5271,0.20235zM233.61875,174.54454c0.02343,0.145 -0.02619,0.31997 0.14345,0.40495c0.13077,-0.06772 0.25508,-0.16093 0.4102,-0.23867c-0.02992,-0.17045 -0.03544,-0.35086 -0.13202,-0.46583c-0.13971,0.08552 -0.28594,0.14549 -0.42165,0.29958zM242.30311,174.14185c0.15578,0.18901 0.30257,0.39581 0.45837,0.58483c0.09497,0.00314 0.18349,-0.0191 0.20632,-0.14088c-0.05829,-0.22903 -0.16534,-0.43814 -0.339,-0.59169c-0.12833,0.02455 -0.22576,0.06458 -0.32571,0.1478zM236.57195,172.13761c0.04718,-0.13181 0.03024,-0.25135 -0.02655,-0.3686c-0.07958,0.00456 -0.15916,0.00912 -0.23873,0.0137c-0.10392,0.01453 -0.19895,0.01141 -0.28344,0.10233c-0.05366,0.10635 -0.06757,0.21041 -0.02619,0.31995c0.18355,-0.01913 0.39142,-0.04828 0.57491,-0.06734zM234.50152,175.47524c-0.02992,-0.17045 -0.10212,-0.29542 -0.19865,-0.41038c-0.16407,0.09545 -0.31922,0.17323 -0.45891,0.25866c-0.02525,0.16501 0.03149,0.28224 0.11507,0.34631c0.18598,-0.06227 0.37197,-0.1246 0.54255,-0.19459zM237.40773,171.66806c-0.11934,0.00683 -0.23871,0.01366 -0.36706,0.03822c-0.02434,0.01 -0.04225,0.04548 -0.07558,0.07323c0.01048,0.09409 -0.01234,0.21587 0.08423,0.33085c0.15025,0.00859 0.32232,0.05034 0.50831,-0.01192c-0.00558,-0.1804 -0.06236,-0.29765 -0.14994,-0.43036zM239.20814,171.39263c-0.16071,-0.10268 -0.09318,-0.31313 -0.24737,-0.39036c-0.15912,0.00914 -0.30687,-0.0427 -0.50181,0.03735c0.01451,0.1627 0.03797,0.30772 0.20359,0.324c0.16563,0.01633 0.29546,0.10356 0.54562,0.029zM243.51063,173.96934c-0.07218,-0.12497 -0.13543,-0.26766 -0.19216,-0.38489c-0.00647,-0.02546 -0.04627,-0.02319 -0.07712,-0.03861c-0.07556,0.0732 -0.19741,0.12317 -0.2316,0.30592c0.07868,0.15039 0.17272,0.30857 0.25788,0.48445c0.1243,-0.09317 0.19338,-0.19185 0.24306,-0.36682zM233.43126,175.60537c-0.1462,0.06 -0.30782,0.11231 -0.42963,0.16233c-0.03423,0.18271 -0.0108,0.3277 0.02161,0.45494c0.11694,0.03634 0.19491,-0.08003 0.27698,-0.12777c0.08207,-0.04778 0.1795,-0.08775 0.22669,-0.21957c0.00492,-0.08635 -0.00557,-0.18045 -0.09563,-0.26998zM239.93807,182.08382c0.15266,-0.0346 0.26558,-0.06686 0.37846,-0.09914c0.0398,-0.00226 0.08207,-0.04773 0.10643,-0.05775c0.06261,-0.12407 0.04566,-0.24362 -0.01113,-0.36085c-0.1681,0.02686 -0.32726,0.03597 -0.49781,0.10592c-0.00738,0.12952 0.00958,0.24907 0.02407,0.41177zM241.85636,171.96401c-0.16471,-0.17135 -0.32943,-0.34261 -0.57217,-0.39759c-0.03422,0.1827 -0.09037,0.33228 -0.01171,0.48267c0.30688,0.0427 0.30689,0.04268 0.58386,-0.08507zM241.55729,180.67431c0.44511,-0.1546 0.454,-0.1723 0.46075,-0.56867c-0.16165,0.0523 -0.31673,0.13004 -0.47838,0.1823c-0.04718,0.13181 -0.03021,0.25132 0.01757,0.38631zM235.65158,172.69814c-0.1681,0.02685 -0.30535,0.06915 -0.43862,0.18006c-0.00247,0.04319 0.00153,0.11182 0.00555,0.18045c0.01297,0.05091 0.04134,0.10955 0.05428,0.1604c0.16809,-0.02686 0.34269,-0.02827 0.49135,-0.13144c0.00739,-0.12951 -0.04038,-0.26452 -0.11261,-0.38945zM238.67658,182.78442c-0.00403,-0.0686 -0.01453,-0.1627 -0.05184,-0.20362c-0.14281,-0.13817 -0.31489,-0.17989 -0.54718,-0.14078c0.008,0.13726 -0.03268,0.2945 0.03304,0.39406c0.18998,0.00635 0.36858,0.07355 0.56597,-0.04965zM232.92556,178.90509c-0.02435,0.00997 -0.04873,0.02 -0.09745,0.04001c0.00713,0.29226 0.08733,0.55447 0.16754,0.81667c0.13478,0.00088 0.21681,-0.04686 0.30379,-0.18092c-0.12245,-0.21676 -0.23599,-0.45122 -0.37387,-0.67577zM237.61331,175.01303c0.17767,0.22222 0.33098,0.45438 0.6021,0.56798c0.01542,0.00776 0.08203,-0.04776 0.09992,-0.0832c0.04468,-0.08863 0.01879,-0.19044 -0.05833,-0.22901c-0.17364,-0.1536 -0.39205,-0.21854 -0.64369,-0.25577zM234.81662,173.0128c-0.13726,0.04226 -0.27451,0.08458 -0.39882,0.17777c-0.06262,0.12407 -0.07649,0.22816 -0.01328,0.37084c0.15516,-0.07776 0.32573,-0.14776 0.46542,-0.23322c0.02281,-0.12176 0.01231,-0.21586 -0.05337,-0.3154zM243.16354,178.10334c0.14063,-0.24044 0.26343,-0.44542 0.26279,-0.71221c-0.16562,-0.01632 -0.28993,0.07685 -0.40775,0.19549c0.02099,0.18815 0.03548,0.35086 0.14502,0.51673zM236.78773,183.08194c-0.01204,-0.2059 -0.01849,-0.23131 -0.06477,-0.25452c-0.14524,-0.09497 -0.32881,-0.07586 -0.49688,-0.04899c-0.06412,0.01228 -0.12428,0.09322 -0.05859,0.19274c0.19247,-0.03683 0.35721,0.1345 0.62029,0.11077zM233.39126,178.25013c-0.11349,-0.23452 -0.20267,-0.47901 -0.45592,-0.628c-0.01725,0.30221 0.10522,0.51903 0.19684,0.7203c0.08604,0.02092 0.1437,-0.01685 0.25907,-0.09232zM240.7813,181.48473c0.00156,0.1118 -0.01232,0.21588 -0.01076,0.32767c0.18354,-0.01911 0.34516,-0.07141 0.39726,-0.28958c0.01142,-0.0609 0.0228,-0.12177 -0.02993,-0.17043c-0.1104,-0.01089 -0.21684,0.04686 -0.35655,0.13231zM239.18506,173.04658c0.08048,-0.15957 0.08545,-0.24587 -0.04688,-0.28993c-0.11692,-0.03635 -0.23382,-0.07268 -0.35967,-0.09129c-0.05519,-0.0054 -0.11939,0.00682 -0.13973,0.08545c0.15824,0.14586 0.32789,0.23081 0.54626,0.29576zM235.4779,179.6282c0.16472,0.17135 0.34735,0.30716 0.57465,0.35441c0.01543,0.00774 0.08203,-0.04776 0.09096,-0.06547c0.01788,-0.03543 -0.01048,-0.09409 -0.04135,-0.10953c-0.20943,-0.08269 -0.37663,-0.21083 -0.62434,-0.17942zM235.57299,180.74158c-0.18105,-0.02407 -0.35073,-0.10903 -0.57402,-0.08767c0.15577,0.18902 0.30754,0.30944 0.4269,0.3026c0.1104,0.01089 0.14621,-0.06001 0.14711,-0.21496zM243.84599,176.29125c0.06104,-0.23589 0.18628,-0.48409 0.06381,-0.70085c-0.28434,0.25729 -0.16188,0.47405 -0.06381,0.70085zM240.91394,175.1338c0.01787,-0.03542 0.01144,-0.06096 0.02931,-0.09638c-0.16316,-0.0595 -0.2662,-0.19992 -0.44972,-0.18078c-0.0691,0.09862 -0.08048,0.15954 -0.03022,0.25134c0.13478,0.00088 0.28499,0.0095 0.45065,0.0258zM236.67544,177.40779c0.18908,0.1613 0.34085,0.28171 0.53485,0.35669c0.03083,0.01544 0.07956,-0.00455 0.1064,-0.05772c0.00894,-0.01776 0.01141,-0.06089 0.00492,-0.08635c-0.16471,-0.17135 -0.34976,-0.264 -0.64618,-0.21258zM239.01368,182.57575c-0.0228,0.12178 -0.01881,0.1904 0.04535,0.17813c0.13478,0.00088 0.27851,-0.01597 0.42226,-0.03279c0.08851,-0.02228 0.11534,-0.07545 0.08048,-0.15952c-0.19646,-0.03181 -0.36214,-0.04811 -0.54809,0.01417zM234.01875,173.79007c-0.01048,-0.09409 -0.00557,-0.18045 -0.01605,-0.27451c-0.00646,-0.02546 -0.03732,-0.04089 -0.07464,-0.08181c-0.10734,0.21267 -0.25195,0.38451 -0.30655,0.64586c0.15516,-0.07776 0.26154,-0.13549 0.39724,-0.28958zM238.39695,179.6245c0.16316,0.05952 0.31093,0.1113 0.50495,0.18627c-0.06481,-0.25452 -0.17673,-0.3772 -0.33992,-0.43669c-0.09098,0.06547 -0.13325,0.11091 -0.16504,0.25046zM240.81976,173.86534c0.14376,-0.01683 0.29546,0.10357 0.4864,-0.04506c-0.34332,-0.23852 -0.42039,-0.27714 -0.49599,-0.20397c-0.04468,0.08863 -0.04073,0.15727 0.00958,0.24907zM236.16968,178.48685c0.12398,0.32859 0.30907,0.42122 0.57619,0.4662c-0.05986,-0.34086 -0.34732,-0.30714 -0.57619,-0.4662zM238.89441,171.74632c0.11752,0.30313 0.2872,0.3881 0.49014,0.44532c0.01542,0.00774 0.04872,-0.02 0.0666,-0.05545c0.02685,-0.05318 0.01387,-0.10408 -0.01696,-0.11951c-0.14524,-0.09498 -0.30842,-0.15447 -0.53976,-0.27032zM241.01779,172.89853c0.16563,0.01633 0.32881,0.07585 0.52615,-0.04736c-0.1274,-0.13042 -0.27514,-0.1822 -0.40744,-0.22628c-0.09993,0.08319 -0.12026,0.16178 -0.11873,0.27362zM238.14057,171.05789c-0.20143,0.05458 -0.37107,-0.03039 -0.52219,0.11599c0.18908,0.1613 0.18908,0.1613 0.50337,0.07446c0.00247,-0.04319 0.00492,-0.08635 0.0188,-0.19044zM243.22199,175.69001c0.07894,-0.27133 0.00276,-0.46494 -0.0978,-0.64854c-0.11934,0.00683 -0.15516,0.07776 -0.13572,0.15408c0.07869,0.15039 0.14839,0.31858 0.23353,0.49442zM235.5852,172.33182c0.03826,-0.11411 0.06756,-0.21044 0.00185,-0.30993c-0.11287,0.03228 -0.2258,0.06455 -0.29484,0.16317c-0.02931,0.09635 -0.02526,0.16499 0.01852,0.23136c0.09498,0.00314 0.1681,-0.02686 0.27449,-0.08461zM239.95514,177.3404c-0.09652,-0.11497 -0.1712,-0.19681 -0.28162,-0.20766c-0.0398,0.00226 -0.0731,0.02999 -0.10642,0.05774c-0.02685,0.05318 -0.03179,0.13954 0.02342,0.14498c0.09255,0.04635 0.20051,0.10042 0.36461,0.00493zM233.22547,174.90278c-0.12678,0.13638 -0.1212,0.31682 -0.16188,0.47408c0.30782,-0.11231 0.32569,-0.14778 0.16188,-0.47408zM235.05668,181.72652c-0.19557,-0.18677 -0.19555,-0.18676 -0.36861,-0.07357c0.07464,0.08181 0.16474,0.17132 0.36861,0.07357zM240.08425,176.0506c-0.08207,0.04778 -0.10888,0.10093 -0.08699,0.13408c0.07869,0.15039 0.13387,0.15587 0.35319,0.06582c-0.0811,-0.10725 -0.17365,-0.15362 -0.26621,-0.19996zM239.39346,171.06364c0.03243,0.12725 0.07376,0.23676 0.19955,0.2554c0.09681,-0.30679 0.07497,-0.33993 -0.19955,-0.2554zM234.32913,181.82844c0.05431,0.16046 0.1687,0.23997 0.26771,0.31172c0.06167,0.0309 0.13481,0.00089 0.12679,-0.13638c-0.09901,-0.07176 -0.21345,-0.15133 -0.39449,-0.17537zM236.97035,171.27127c0.13634,0.11269 0.24028,0.09816 0.3427,-0.02824c0,0 0.00247,-0.04319 -0.01297,-0.05089c-0.08359,-0.06405 -0.19892,0.01136 -0.32976,0.07912zM239.23248,178.46633c0.0228,-0.12178 -0.02098,-0.18817 -0.09161,-0.20132c-0.03083,-0.01544 -0.07957,0.00457 -0.11288,0.03227c-0.03331,0.02775 -0.0293,0.09633 0.00155,0.11177c0.03733,0.0409 0.099,0.07179 0.20294,0.05725zM234.70808,172.69186c0.14375,-0.01683 0.22579,-0.06456 0.23562,-0.23729c-0.16809,0.02686 -0.23473,0.08229 -0.23562,0.23729z"/><path d="M244.55378,181.39767c0.30163,-0.5595 0.60329,-1.11906 0.88948,-1.68633c0.32199,-0.63818 0.58227,-1.3072 0.75651,-1.99715c0.0521,-0.21816 0.05552,-0.41628 0.10114,-0.65989c0.24679,0.12358 0.47161,0.21395 0.67857,0.33982c1.2597,0.71969 2.57951,1.35849 3.87252,2.05043c1.1542,0.62246 2.30194,1.21943 3.46511,1.82415c0.79303,0.41934 1.5706,0.831 2.3636,1.25036c0.74676,0.39619 1.49594,0.74917 2.24272,1.14533c0.06169,0.03091 0.12339,0.0618 0.17613,0.11042c0.04446,0.33312 -0.01264,0.63766 -0.10296,0.96988c-0.14897,0.52498 -0.3377,1.0522 -0.60354,1.5408c-0.08048,0.15957 -0.14556,0.32681 -0.29424,0.42997c0.04965,-0.175 0.18533,-0.32907 0.20663,-0.56269c-0.30933,0.00047 -0.5447,-0.18397 -0.80042,-0.28984c-0.01542,-0.00774 -0.03082,-0.01545 -0.03978,0.00225c-0.48794,-0.06674 -0.93519,-0.29074 -1.41175,-0.41836c-0.17209,-0.04179 -0.37106,-0.03038 -0.50738,-0.14304c-0.29054,-0.18995 -0.66409,-0.17712 -0.95467,-0.36707c-0.01542,-0.00774 -0.05521,-0.00543 -0.08605,-0.02091c-0.31983,-0.09355 -0.63321,-0.16171 -0.93518,-0.29072c-0.33928,-0.16991 -0.71932,-0.18259 -1.0407,-0.38794c-0.25415,0.00595 -0.43674,-0.12993 -0.66158,-0.22033c-0.03083,-0.01544 -0.04629,-0.02317 -0.0771,-0.03863c-0.38001,-0.01267 -0.66809,-0.24574 -1.01233,-0.32934c-0.34421,-0.08356 -0.6502,-0.28121 -0.98548,-0.38249c-0.38156,-0.12449 -0.77449,-0.18799 -1.11779,-0.42659c-0.03083,-0.01544 -0.07712,-0.03864 -0.1169,-0.03635c-0.22332,0.02144 -0.38154,-0.12447 -0.57555,-0.19945c-0.09255,-0.04635 -0.19153,-0.11812 -0.30196,-0.12901c-0.17456,0.00136 -0.289,-0.07813 -0.42782,-0.14764c-0.07711,-0.03863 -0.14529,-0.09498 -0.22485,-0.09039c-0.25415,0.00595 -0.45218,-0.13762 -0.65265,-0.23803c-0.07711,-0.03863 -0.14527,-0.09495 -0.22486,-0.09041c-0.21434,0.00364 -0.37506,-0.09901 -0.54471,-0.18401c-0.27764,-0.13903 -0.6178,-0.15397 -0.88644,-0.31072c-0.03732,-0.04089 -0.11041,-0.01091 -0.16563,-0.01632z"/><path d="M244.55381,181.39769c0.0552,0.00545 0.12831,-0.02458 0.17459,-0.0014c0.26867,0.15673 0.59992,0.18943 0.88646,0.31071c0.16964,0.08498 0.33037,0.18766 0.5447,0.184c0.07958,-0.00456 0.14776,0.05179 0.22485,0.09037c0.2005,0.10037 0.40744,0.2263 0.65266,0.23808c0.07957,-0.00457 0.13883,0.06952 0.22486,0.09038c0.13879,0.0695 0.26219,0.13132 0.42782,0.14764c0.1104,0.01089 0.20945,0.08271 0.30198,0.12904c0.194,0.07494 0.35226,0.2208 0.57556,0.19942c0.0398,-0.00226 0.08605,0.0209 0.1169,0.03632c0.32789,0.23082 0.73629,0.30211 1.11781,0.42656c0.35073,0.10903 0.65667,0.30666 0.98546,0.38254c0.3442,0.08354 0.63231,0.31667 1.01232,0.32932c0.02436,-0.00997 0.04627,0.0232 0.07712,0.03865c0.2005,0.10037 0.40745,0.22625 0.66162,0.22031c0.31246,0.22311 0.69248,0.23574 1.04069,0.38797c0.29301,0.14676 0.61534,0.19713 0.93519,0.29074c0.03083,0.01544 0.05525,0.00542 0.08606,0.02089c0.29054,0.18995 0.66407,0.17712 0.95466,0.36707c0.1607,0.10267 0.34422,0.08358 0.50738,0.14306c0.46759,0.14535 0.9238,0.35161 1.41174,0.41836c0.01542,0.00774 0.03981,-0.0023 0.03981,-0.0023c0.25573,0.10584 0.49108,0.29035 0.80042,0.28983c-0.01232,0.21587 -0.16347,0.36226 -0.20665,0.56269c-0.07152,0.14179 -0.14313,0.2836 -0.2983,0.36137c-0.09255,-0.04635 -0.19153,-0.11812 -0.30194,-0.129c-0.38646,-0.03811 -0.7014,-0.21807 -1.04318,-0.34481c-0.34173,-0.12673 -0.72822,-0.16484 -1.04067,-0.38794c-0.25415,0.00595 -0.43677,-0.12989 -0.66161,-0.2203c-0.03083,-0.01544 -0.07711,-0.03862 -0.1169,-0.03634c-0.18354,0.01912 -0.31982,-0.09357 -0.46762,-0.14537c-0.07711,-0.03863 -0.15424,-0.07722 -0.22485,-0.0904c-0.38403,-0.08127 -0.77449,-0.18798 -1.12922,-0.36565c-0.04626,-0.02321 -0.099,-0.07183 -0.14775,-0.05178c-0.1989,0.01139 -0.34423,-0.08355 -0.49845,-0.16078c-0.1607,-0.10267 -0.37756,-0.05582 -0.55366,-0.16625c-0.23782,-0.14131 -0.51387,-0.16852 -0.77851,-0.25664c-0.3572,-0.13446 -0.7347,-0.1903 -1.08939,-0.36797c-0.06169,-0.03091 -0.12986,-0.08725 -0.19402,-0.07495c-0.15915,0.00909 -0.289,-0.0781 -0.43673,-0.1299c-0.12337,-0.06179 -0.25568,-0.10585 -0.38155,-0.12449c-0.23627,-0.02952 -0.45464,-0.09444 -0.67058,-0.20256c-0.3328,-0.14446 -0.7193,-0.18258 -1.03174,-0.40566c-0.03083,-0.01544 -0.08604,-0.02092 -0.11691,-0.03636c-0.35073,-0.10903 -0.71034,-0.20027 -1.04312,-0.34479c-0.33928,-0.16991 -0.75015,-0.19803 -1.07154,-0.40341c-0.04626,-0.02321 -0.11042,-0.01087 -0.16563,-0.01632c-0.21838,-0.06494 -0.44324,-0.15536 -0.61688,-0.30894c0.02931,-0.09636 0.06504,-0.16726 0.08544,-0.24589c0.17149,-0.22502 0.30965,-0.42226 0.44136,-0.645z"/><path d="M240.13743,170.81441c0.31981,0.09356 0.56013,0.19172 0.75568,0.37847c0.05182,0.20362 -0.00025,0.42176 -0.03696,0.64761c-0.22973,1.10626 -0.4749,2.20479 -0.86132,3.27702c-0.29208,0.80859 -0.59306,1.63493 -0.97116,2.42261c-0.10734,0.21269 -0.23901,0.43546 -0.30011,0.67134c-0.02931,0.09636 -0.08299,0.20273 -0.13662,0.30905c-0.27635,0.39456 -0.46016,0.83543 -0.69024,1.25317c-0.31951,0.595 -0.70071,1.15911 -1.11277,1.70772c-0.21372,0.27045 -0.41207,0.54865 -0.6193,0.84457c-0.15607,0.23269 -0.35592,0.39909 -0.54036,0.57319c-0.34022,-0.01495 -0.4571,-0.05128 -0.80934,-0.27211c0.21216,-0.38224 0.49253,-0.70818 0.73556,-1.07496c0.23409,-0.34908 0.47711,-0.71587 0.6958,-1.07271c0.22761,-0.37451 0.44876,-0.77455 0.66093,-1.15678c0.21866,-0.35678 0.3537,-0.7777 0.61868,-1.11137c0.11966,-0.42862 0.36271,-0.7954 0.54405,-1.19314c0.17241,-0.37999 0.3383,-0.78541 0.49531,-1.17313c0.16593,-0.40544 0.31641,-0.81858 0.4759,-1.24948c0.14157,-0.39543 0.30748,-0.80086 0.43361,-1.20404c0.13507,-0.42087 0.23038,-0.83947 0.35004,-1.26809c0.12861,-0.44634 0.25473,-0.84948 0.3127,-1.30899z"/><path d="M244.13681,182.03274c-0.02036,0.07862 -0.05614,0.14955 -0.08542,0.24588c0.17368,0.15359 0.37412,0.25397 0.61689,0.30894c0.0552,0.00546 0.11936,-0.00683 0.16563,0.01633c0.32139,0.20538 0.72334,0.25121 1.07155,0.40341c0.32387,0.1622 0.69245,0.23576 1.04312,0.34483c0.03083,0.01544 0.08606,0.0209 0.1169,0.03632c0.31245,0.22313 0.69243,0.23579 1.03173,0.40569c0.2005,0.10037 0.43431,0.17309 0.67057,0.20256c0.14122,0.02633 0.27358,0.07038 0.38155,0.12448c0.13879,0.0695 0.25324,0.14902 0.43676,0.1299c0.06412,-0.01227 0.13233,0.04409 0.19402,0.07498c0.33928,0.16991 0.73224,0.23345 1.0894,0.36794c0.26464,0.08815 0.5407,0.11531 0.77851,0.25665c0.1607,0.10267 0.37754,0.05583 0.55366,0.16625c0.14527,0.09496 0.30597,0.19764 0.49846,0.16082c0.0552,0.00546 0.10147,0.02861 0.14774,0.05176c0.35469,0.17764 0.72974,0.27669 1.12921,0.36565c0.08604,0.02092 0.15422,0.07721 0.22482,0.09041c0.13879,0.0695 0.2841,0.16443 0.46761,0.14533c0.0398,-0.00226 0.08605,0.02088 0.11688,0.03633c0.2005,0.10037 0.40745,0.22627 0.66162,0.22032c0.31246,0.22311 0.69894,0.26122 1.04067,0.38793c0.34173,0.12673 0.67207,0.31437 1.04312,0.34479c0.11041,0.01089 0.20942,0.08271 0.30197,0.12902c-0.06509,0.16727 -0.21125,0.22728 -0.2893,0.34367c-0.69245,-0.23575 -1.36303,-0.43835 -2.02461,-0.65866c-0.73225,-0.2335 -1.44012,-0.47696 -2.16342,-0.72814c-0.67703,-0.22805 -1.36303,-0.43833 -2.04899,-0.64865c-0.84915,-0.26983 -1.69181,-0.51418 -2.52554,-0.77625c-0.63079,-0.20486 -1.26152,-0.40977 -1.90124,-0.59686c-0.98148,-0.31387 -1.94261,-0.70639 -2.94195,-0.98479c-0.13231,-0.04405 -0.28252,-0.05266 -0.39448,-0.17535c0.08048,-0.15957 0.20726,-0.29589 0.3186,-0.44c0.07556,-0.0732 0.1252,-0.24817 0.27388,-0.35138z"/><path d="M258.6633,186.55403c0.15698,-0.38771 0.36671,-0.7268 0.50824,-1.12222c0.15298,-0.45634 0.2905,-0.9204 0.33553,-1.43078c0.89449,0.44796 1.77356,0.8882 2.63722,1.32071c0.07129,0.27995 0.01666,0.5413 -0.01354,0.79264c-0.0669,0.47722 -0.24178,0.90038 -0.42559,1.34127c-0.00894,0.01776 -0.04224,0.04545 -0.06662,0.05548c-0.01203,-0.20588 -0.16223,-0.21447 -0.30353,-0.24081c-0.3532,-0.06583 -0.69738,-0.14939 -0.99689,-0.32161c-0.06169,-0.03091 -0.12338,-0.06178 -0.194,-0.07493c-0.3467,-0.04039 -0.64618,-0.21258 -0.96606,-0.30615c-0.18751,-0.04956 -0.32877,-0.07579 -0.51477,-0.01353z"/><path d="M241.95151,181.27139c0.40557,-0.57408 0.70317,-1.20222 1.06248,-1.79949c0.15853,-0.27588 0.27077,-0.57498 0.38305,-0.87408c0.2375,-0.54726 0.54558,-1.08131 0.72134,-1.65946c0.07649,-0.22817 0.15297,-0.45632 0.20512,-0.6745c0.03179,-0.13955 0.07892,-0.27132 0.14156,-0.39544c0.05519,0.0054 0.09499,0.00318 0.12585,0.01864c0.12336,0.06181 0.24675,0.12355 0.37014,0.18533c0.00156,0.11179 -0.00341,0.19815 -0.01726,0.30223c-0.1369,0.73081 -0.28276,1.47943 -0.63159,2.17079c-0.28866,0.61045 -0.58628,1.23855 -0.93664,1.81814c-0.27233,0.46321 -0.52925,0.93408 -0.916,1.31774c0.01384,-0.10406 0.1138,-0.18727 0.05703,-0.3045c-0.15176,-0.12041 -0.32541,-0.27399 -0.56505,-0.10534z"/><path d="M243.19941,181.36345c0.12122,-0.31681 0.35685,-0.55407 0.52432,-0.8477c0.33742,-0.63046 0.67485,-1.26087 0.96596,-1.91449c0.22855,-0.5295 0.38641,-1.07222 0.50454,-1.61263c0.03179,-0.13955 0.06351,-0.27904 0.09529,-0.4186c0.21592,0.10813 0.40102,0.20078 0.60148,0.30122c0.07774,0.3054 0.02064,0.60994 -0.07615,0.91673c-0.10823,0.3677 -0.22544,0.7531 -0.38889,1.11536c-0.34081,0.82858 -0.7652,1.59312 -1.18308,2.38311c-0.07154,0.1418 -0.14311,0.28364 -0.28282,0.3691c-0.07711,-0.03863 -0.14529,-0.09494 -0.22485,-0.09039c-0.18999,-0.00634 -0.36615,-0.11674 -0.53576,-0.20167z"/><path d="M258.6633,186.55404c0.16165,-0.0523 0.31182,-0.04367 0.475,0.01583c0.31983,0.09356 0.61936,0.26579 0.96603,0.30614c0.07064,0.01317 0.13235,0.04405 0.19404,0.07496c0.32389,0.16218 0.65264,0.23803 0.99687,0.3216c0.12585,0.01862 0.29149,0.03493 0.30353,0.24082c-0.11875,0.27363 -0.27478,0.50634 -0.46817,0.69818c-0.24277,-0.05494 -0.49444,-0.09219 -0.69247,-0.23575c-0.03083,-0.01544 -0.08604,-0.02091 -0.1169,-0.03634c-0.33526,-0.10128 -0.68598,-0.2103 -1.01232,-0.32933c-0.14775,-0.05178 -0.27111,-0.11361 -0.42782,-0.14766c-0.19645,-0.0318 -0.3905,-0.10674 -0.51543,-0.28034c0.02931,-0.09635 0.06506,-0.16727 0.08545,-0.24587c0.06261,-0.12407 0.14958,-0.25819 0.21217,-0.38225z"/><path d="M234.68884,177.05681c0.32324,-0.10462 0.61468,-0.06968 0.89726,-0.01698c0.07063,0.01317 0.16317,0.05953 0.21592,0.10813c0.3757,0.36579 0.78716,0.66071 1.20757,0.93785c0.01542,0.00774 0.03731,0.04088 0.04382,0.06634c0.01048,0.09409 -0.03421,0.18273 -0.1252,0.24819c-0.03083,-0.01544 -0.07067,-0.01314 -0.1015,-0.02861c-0.36115,-0.20312 -0.74921,-0.35302 -1.16652,-0.40659c-0.21189,-0.03951 -0.38157,-0.12448 -0.52191,-0.30579c-0.14681,-0.20678 -0.32048,-0.36033 -0.44944,-0.60258z"/><path d="M236.48092,179.28667c-0.00738,0.12952 -0.05858,0.1927 -0.13169,0.22272c-0.75815,-0.3353 -0.75816,-0.33527 -1.54899,-0.37604c-0.2443,-0.16676 -0.44386,-0.42213 -0.64587,-0.63436c0.03179,-0.13955 0.13322,-0.1109 0.19739,-0.12318c0.23225,-0.03914 0.4491,-0.08597 0.67889,-0.08192c0.15025,0.00861 0.26711,0.045 0.37257,0.14218c0.33192,0.29947 0.68816,0.58888 1.07771,0.85061z"/><path d="M258.44217,186.95401c-0.02036,0.07863 -0.05616,0.14956 -0.08544,0.24588c0.12491,0.17361 0.31892,0.24855 0.51543,0.28033c0.15671,0.03405 0.28007,0.09582 0.42783,0.14766c0.32635,0.11901 0.67702,0.22803 1.01231,0.32933c0.03083,0.01544 0.08607,0.02089 0.1169,0.03635c0.22239,0.13357 0.45863,0.1631 0.69242,0.23578c-0.10237,0.12637 -0.19586,0.23501 -0.35996,0.33048c-0.45865,-0.16309 -0.95066,-0.29844 -1.41579,-0.48695c-0.45865,-0.16309 -0.95307,-0.25526 -1.41576,-0.48695c0.15852,-0.27588 0.32753,-0.45772 0.51194,-0.63184z"/><path d="M240.20792,175.69061c0.02036,-0.07862 0.03179,-0.13956 0.05212,-0.21817c0.04874,-0.02003 0.07309,-0.02999 0.09744,-0.04c0.29795,0.06038 0.60734,0.05987 0.9256,0.04166c0.13479,0.00088 0.23629,0.0295 0.31739,0.13674c0.17119,0.19677 0.3757,0.36577 0.44449,0.68892c-0.30781,0.11229 -0.61718,0.11283 -0.9176,0.09557c-0.05519,-0.0054 -0.12336,-0.06182 -0.17612,-0.1104c-0.25076,-0.19216 -0.50158,-0.38443 -0.74338,-0.59436z"/><path d="M236.4313,173.48834c0.18998,0.00631 0.30937,-0.00049 0.44417,0.00041c0.24522,0.01178 0.43921,0.08672 0.60148,0.30122c0.28961,0.34491 0.62158,0.64434 1.0071,0.83743c0.12336,0.0618 0.12983,0.08723 0.00713,0.29226c-0.04627,-0.02319 -0.10149,-0.0286 -0.14776,-0.0518c-0.37662,-0.21081 -0.77357,-0.343 -1.19738,-0.422c-0.10147,-0.02865 -0.18753,-0.04952 -0.2468,-0.12355c-0.1598,-0.25766 -0.33744,-0.47989 -0.46789,-0.83393z"/><path d="M237.55174,177.20269c-0.02435,0.00997 -0.0642,0.01229 -0.07958,0.00456c-0.33681,-0.21307 -0.71188,-0.31209 -1.08049,-0.38569c-0.3442,-0.08354 -0.63727,-0.23031 -0.8408,-0.55433c-0.09407,-0.15816 -0.25479,-0.2608 -0.31553,-0.44671c0.46696,-0.12145 0.87287,-0.00696 1.14956,0.28704c0.34485,0.35036 0.66532,0.71069 1.12154,0.91697c0.03732,0.04089 0.09899,0.07181 0.04536,0.17816z"/><path d="M235.82069,174.73689c0.33619,-0.05369 0.58786,-0.01648 0.85497,0.02849c0.08604,0.02092 0.16315,0.05952 0.20697,0.12587c0.35134,0.37581 0.73595,0.72386 1.13846,1.0365c0.03083,0.01544 0.06817,0.05632 0.00801,0.13725c-0.10794,-0.05406 -0.23131,-0.11585 -0.34822,-0.1522c-0.31737,-0.13675 -0.64371,-0.25575 -0.99042,-0.29612c-0.2517,-0.0372 -0.44323,-0.15536 -0.56568,-0.37213c-0.09407,-0.15816 -0.17277,-0.30855 -0.30417,-0.50761z"/><path d="M240.61717,174.49662c-0.02342,-0.14501 0.02129,-0.23363 0.066,-0.32225c0.02434,-0.01 0.06418,-0.01229 0.08851,-0.02226c0.26465,0.08813 0.54965,0.09761 0.83063,0.03845c0.1681,-0.02683 0.30042,0.01723 0.41238,0.13992c0.13388,0.15585 0.29211,0.3017 0.39269,0.48531c-0.23717,0.12546 -0.60024,0.23238 -0.74149,0.20602c-0.09498,-0.00314 -0.13881,-0.06949 -0.20696,-0.12587c-0.27111,-0.11358 -0.51298,-0.32351 -0.84172,-0.39936z"/><path d="M238.57627,181.06876c-0.15731,-0.30081 -0.34143,-0.54851 -0.54997,-0.78619c0.02281,-0.12176 0.0586,-0.19275 0.14957,-0.25819c0.32228,0.05038 0.62828,0.24806 0.95955,0.28072c0.1249,0.1736 0.14591,0.36174 0.20671,0.5476c0.02591,0.10176 0.07618,0.19354 0.02901,0.32539c-0.27205,0.0414 -0.50985,-0.0999 -0.79485,-0.1094z"/><path d="M239.28244,177.86955c0.0959,-0.15181 0.16656,-0.13864 0.23717,-0.12548c0.26713,0.04494 0.51879,0.08217 0.77695,0.14483c0.07065,0.01316 0.13234,0.04406 0.17615,0.11039c0.10701,0.20903 0.20511,0.43581 0.27887,0.67258c-0.13724,0.04226 -0.23875,0.01367 -0.35811,0.0205c-0.35808,0.02049 -0.6292,-0.09305 -0.75972,-0.44707c-0.06972,-0.16817 -0.20605,-0.28085 -0.35134,-0.37579z"/><path d="M238.719,178.9863c0.04468,-0.08863 0.07152,-0.14181 0.09836,-0.195c0.0398,-0.00226 0.07311,-0.02998 0.08851,-0.02228c0.18751,0.04956 0.36614,0.11673 0.55367,0.16623c0.10149,0.02865 0.16964,0.08498 0.21992,0.17677c0.15084,0.27538 0.2773,0.56081 0.37696,0.89938c-0.20141,0.0546 -0.34913,0.00279 -0.49687,-0.04899c-0.06165,-0.03091 -0.12337,-0.06182 -0.15176,-0.12037c-0.13049,-0.35402 -0.38527,-0.61488 -0.68878,-0.85571z"/><path d="M243.19941,181.36343c0.16964,0.08498 0.34578,0.19539 0.56016,0.19169c0.07957,-0.00457 0.14771,0.0518 0.22484,0.0904c-0.13663,0.30905 -0.32599,0.56953 -0.56812,0.78136c-0.19803,-0.14359 -0.44968,-0.18081 -0.65263,-0.23803c-0.01451,-0.1627 0.09438,-0.26362 0.11718,-0.3854c0.06509,-0.16727 0.16995,-0.33681 0.3186,-0.44001z"/><path d="M237.86676,172.51964c0.18661,0.2045 0.37324,0.40894 0.58421,0.60345c0.18909,0.16131 0.50738,0.14307 0.60453,0.52484c-0.52434,-0.26258 -1.04965,-0.37022 -1.57491,-0.47785c-0.1249,-0.1736 -0.25634,-0.37264 -0.30566,-0.61943c0.04874,-0.02003 0.0731,-0.03 0.09743,-0.04001c0.19892,-0.0114 0.38896,-0.00508 0.59433,0.00897z"/><path d="M234.19345,177.11968c0.19959,0.25541 0.37722,0.47757 0.57682,0.73297c-0.16407,0.09545 -0.3143,0.08686 -0.45154,0.12915c-0.15266,0.0346 -0.30784,0.11231 -0.47344,0.09597c-0.10794,-0.05406 -0.16472,-0.17131 -0.23042,-0.2708c-0.0657,-0.09951 -0.12244,-0.21678 -0.17028,-0.35176c0.21774,-0.20182 0.47437,-0.25093 0.7489,-0.33553z"/><path d="M235.93937,180.43659c-0.52528,-0.10761 -0.97346,-0.1766 -1.45983,-0.13152c-0.16472,-0.17135 -0.33836,-0.3249 -0.51849,-0.50395c0.23965,-0.16867 0.46944,-0.16462 0.70165,-0.20372c0.0398,-0.00226 0.08606,0.02091 0.11688,0.03636c0.35871,0.24626 0.71748,0.49252 1.15976,0.80284z"/><path d="M241.34186,177.50197c-0.33619,0.05369 -0.63909,0.07966 -0.86701,-0.23435c-0.16227,-0.2145 -0.38466,-0.34809 -0.60704,-0.48166c-0.09254,-0.04635 -0.06326,-0.14268 0.02128,-0.23362c0.22887,0.159 0.50495,0.18627 0.78101,0.21347c0.20542,0.01404 0.32633,0.11898 0.42042,0.27715c0.08759,0.13269 0.2085,0.23768 0.25139,0.45903z"/><path d="M241.95149,181.27139c0.25508,-0.16093 0.41327,-0.01506 0.58941,0.09537c0.05674,0.11722 -0.02773,0.20814 -0.05702,0.30449c-0.13168,0.22271 -0.30072,0.40453 -0.5006,0.57093c-0.1607,-0.10267 -0.3661,-0.11676 -0.47562,-0.28261c0.02931,-0.09636 0.05614,-0.14956 0.09191,-0.22043c0.12028,-0.16183 0.24053,-0.32366 0.35191,-0.46774z"/><path d="M240.11714,179.0869c0.285,0.00949 0.52125,0.03899 0.76649,0.05075c0.08913,0.24451 0.15395,0.49897 0.1789,0.75579c-0.09346,0.10866 -0.20387,0.09774 -0.29238,0.12003c-0.08851,0.02229 -0.17702,0.04457 -0.27605,-0.02724c-0.11349,-0.23452 -0.23103,-0.5376 -0.37697,-0.89936z"/><path d="M242.27702,176.68238c0.09162,0.20135 0.19214,0.38491 0.24154,0.63169c-0.24612,0.14323 -0.4759,0.13916 -0.739,0.16284c-0.12245,-0.21676 -0.24494,-0.43352 -0.38282,-0.65805c0.30534,-0.06912 0.5685,-0.09279 0.88029,-0.13648z"/><path d="M234.12923,176.0216c0.19496,-0.08001 0.38985,-0.16001 0.60423,-0.1637c0.16227,0.2145 0.31555,0.44671 0.48427,0.68664c-0.01788,0.03543 -0.03577,0.07088 -0.0512,0.06316c-0.19248,0.03684 -0.40033,0.06596 -0.58385,0.0851c-0.07958,0.00456 -0.15024,-0.0086 -0.17861,-0.0672c-0.13139,-0.19905 -0.28963,-0.34491 -0.27486,-0.604z"/><path d="M235.9758,173.54882c0.12893,0.24222 0.2668,0.46671 0.39576,0.70895c-0.11782,0.11861 -0.24118,0.05683 -0.36057,0.06368c-0.11934,0.00683 -0.24523,-0.01175 -0.38,-0.01265c-0.14034,-0.18131 -0.17422,-0.42039 -0.25694,-0.63946c0.20631,-0.1409 0.39634,-0.13458 0.60174,-0.12051z"/><path d="M242.45028,176.14751c-0.15328,-0.23223 -0.30014,-0.43902 -0.46884,-0.67895c0.2128,-0.11551 0.4272,-0.11913 0.63108,-0.21691c0.18011,0.17906 0.2295,0.42583 0.34299,0.66032c-0.18196,0.13092 -0.33064,0.23412 -0.5052,0.23549z"/><path d="M240.92495,173.27401c0.35164,-0.04597 0.68936,0.01212 1.03697,-0.10245c0.15826,0.14585 0.31001,0.2663 0.41704,0.47533c-0.21529,0.15864 -0.41671,0.21325 -0.63013,0.06193c-0.25075,-0.19219 -0.54626,-0.29577 -0.82387,-0.43479z"/><path d="M235.22261,181.32111c-0.09993,0.08319 -0.15025,-0.00858 -0.22084,-0.02177c-0.1567,-0.03408 -0.30441,-0.08582 -0.45065,-0.0258c-0.2412,0.05686 -0.4019,-0.0458 -0.56908,-0.17397c-0.06816,-0.05638 -0.1274,-0.13041 -0.21747,-0.21994c0.28593,-0.14551 0.52961,-0.24551 0.78682,-0.02788c0.17367,0.15358 0.39852,0.24401 0.59006,0.36212c0.04626,0.0232 0.09253,0.04633 0.08113,0.10724z"/><path d="M238.535,182.06947c-0.18354,0.01912 -0.32478,-0.00722 -0.44816,-0.06899c-0.06165,-0.03091 -0.13883,-0.06949 -0.16719,-0.12811c-0.11999,-0.25996 -0.28225,-0.47443 -0.4445,-0.68894c0.06263,-0.12407 0.11534,-0.07546 0.16164,-0.05229c0.15422,0.07724 0.32389,0.16218 0.49599,0.20398c0.21837,0.06495 0.33034,0.18765 0.34888,0.41899c0.00156,0.1118 0.02098,0.18816 0.05336,0.31536z"/><path d="M241.53155,177.93011c0.11596,0.19128 0.16778,0.39495 0.25046,0.61397c-0.1909,0.14864 -0.38736,0.11684 -0.57986,0.15371c-0.13789,-0.2245 -0.17831,-0.48898 -0.25851,-0.75122c0.21684,-0.04685 0.39791,-0.0228 0.58791,-0.01648z"/><path d="M235.71953,175.39693c-0.26959,-0.00174 -0.51482,-0.01356 -0.76896,-0.0076c-0.10306,-0.14041 -0.19061,-0.27312 -0.20268,-0.47899c0.20389,-0.09775 0.40281,-0.10913 0.61072,-0.13831c0.16471,0.17135 0.28069,0.36259 0.36089,0.62483z"/><path d="M241.44497,179.86303c-0.04936,-0.2468 -0.09223,-0.46811 -0.13512,-0.68941c0.19739,-0.1232 0.39634,-0.1346 0.59525,-0.146c0.0762,0.19359 0.11262,0.38944 0.11567,0.61304c-0.05768,0.03772 -0.13974,0.08544 -0.18843,0.10547c-0.13724,0.04228 -0.24119,0.05686 -0.38741,0.11687z"/><path d="M236.93142,181.95479c0.29304,0.14677 0.52439,0.26265 0.77115,0.38615c0.06325,0.1427 0.08667,0.28769 0.05242,0.47037c-0.13076,0.0677 -0.22084,-0.02178 -0.33126,-0.03269c-0.1104,-0.01089 -0.21189,-0.03951 -0.28903,-0.07809c-0.06482,-0.25455 -0.11664,-0.45814 -0.2033,-0.74579z"/><path d="M233.26784,177.07793c-0.08759,-0.13269 -0.13545,-0.26765 -0.14344,-0.4049c0.05614,-0.14954 0.18449,-0.17408 0.27542,-0.23955c0.09094,-0.06547 0.16005,-0.16408 0.29484,-0.16319c0.13634,0.11269 0.21251,0.30629 0.31961,0.51534c-0.12186,0.05004 -0.2437,0.10005 -0.3501,0.15776c-0.13724,0.04226 -0.27449,0.0846 -0.39635,0.13461z"/><path d="M242.63763,177.729c0.10952,0.16589 0.08424,0.33087 0.12311,0.48356c-0.17551,0.15636 -0.37692,0.21094 -0.6027,0.27556c-0.06079,-0.18585 -0.12153,-0.37178 -0.19126,-0.53995c0.21529,-0.15862 0.44511,-0.15461 0.67084,-0.21918z"/><path d="M234.26267,179.24163c-0.08207,0.04778 -0.13075,0.06776 -0.17946,0.08779c-0.11287,0.03228 -0.24121,0.05687 -0.37847,0.09914c-0.15328,-0.23223 -0.33344,-0.41125 -0.40472,-0.69122c0.09346,-0.10866 0.1974,-0.12323 0.34113,-0.14005c0.19555,0.18676 0.41299,0.4067 0.62156,0.64434z"/><path d="M240.24365,180.48267c0.03394,0.23904 0.13447,0.42263 0.1132,0.65624c-0.17306,0.11317 -0.35161,0.04598 -0.50675,0.12371c-0.11998,-0.25997 -0.15395,-0.49899 -0.21873,-0.7535c0.22827,-0.10777 0.39787,-0.0228 0.61227,-0.0265z"/><path d="M242.86542,181.79563c-0.0228,0.12178 -0.13171,0.2227 -0.11717,0.38541c0.21837,0.06495 0.4611,0.11991 0.65264,0.23803c-0.0512,0.06321 -0.11136,0.14409 -0.17793,0.19956c-0.09993,0.08319 -0.21281,0.11545 -0.32081,0.0614c-0.19399,-0.07494 -0.37258,-0.14215 -0.56662,-0.21716c0.11627,-0.23046 0.18535,-0.32909 0.52988,-0.66729z"/><path d="M236.72676,172.48161c0.09162,0.20135 0.1613,0.36944 0.24399,0.58852c-0.25415,0.00596 -0.49285,0.01963 -0.73809,0.00787c-0.07868,-0.15039 -0.14188,-0.29314 -0.17183,-0.46354c0.22825,-0.10776 0.42717,-0.11914 0.6659,-0.13283z"/><path d="M238.919,182.15078c-0.09162,-0.20135 -0.1126,-0.38948 -0.15545,-0.61084c0.2517,0.0372 0.47255,0.059 0.69341,0.08078c0.10305,0.14041 0.08668,0.28768 0.09223,0.46811c-0.18844,0.10548 -0.38496,0.0737 -0.63013,0.06193z"/><path d="M235.20869,174.34167c-0.23474,0.08229 -0.41175,0.12686 -0.59776,0.18915c-0.1274,-0.13042 -0.16379,-0.32629 -0.20019,-0.5222c0.15761,-0.1209 0.32167,-0.21637 0.52959,-0.2455c0.15824,0.14586 0.14591,0.36179 0.26839,0.57852z"/><path d="M243.09897,176.31685c0.0762,0.19358 0.12802,0.39722 0.1888,0.58307c-0.0959,0.15181 -0.21125,0.22728 -0.37291,0.27959c-0.16471,-0.17135 -0.17424,-0.42038 -0.28132,-0.62943c0.14217,-0.12867 0.29484,-0.16319 0.46541,-0.23325z"/><path d="M233.57365,179.91788c0.13386,0.15585 0.30997,0.2663 0.38375,0.50304c-0.16165,0.0523 -0.30786,0.11229 -0.45403,0.17232c-0.18504,-0.0927 -0.29455,-0.25855 -0.34637,-0.46215c0.11783,-0.11863 0.23964,-0.16863 0.41667,-0.21324z"/><path d="M241.60851,181.72142c-0.03579,0.07091 -0.05613,0.14956 -0.09189,0.22048c0.10952,0.1659 0.3149,0.17994 0.47562,0.28261c-0.04718,0.13181 -0.17551,0.15638 -0.25352,0.27272c-0.23627,-0.0295 -0.39452,-0.17534 -0.65761,-0.15168c0.07404,-0.18496 0.17393,-0.26816 0.28283,-0.36911c0.07555,-0.0732 0.10736,-0.21273 0.24458,-0.25498z"/><path d="M242.69786,172.78497c0.13386,0.15585 0.31001,0.26631 0.37725,0.47761c-0.09346,0.10866 -0.19095,0.14866 -0.33711,0.20871c-0.15176,-0.12042 -0.28564,-0.27628 -0.37079,-0.45215c0.09347,-0.10865 0.17551,-0.15638 0.33065,-0.23411z"/><path d="M242.3758,179.39651c-0.02992,-0.17045 -0.06878,-0.32314 -0.10766,-0.47581c0.15762,-0.12091 0.31924,-0.17323 0.49626,-0.2178c0.09652,0.11497 0.06482,0.25455 0.00219,0.3786c-0.08046,0.15956 -0.16096,0.31907 -0.39077,0.31504z"/><path d="M238.30254,171.69416c0.14033,0.18131 0.26528,0.35493 0.40561,0.5362c-0.41329,0.0151 -0.75103,-0.04307 -0.83433,-0.52889c0.13076,-0.0677 0.2631,-0.02365 0.4287,-0.00733z"/><path d="M241.18934,180.86747c-0.13324,0.11089 -0.26156,0.13548 -0.38988,0.16c-0.10794,-0.05406 -0.09408,-0.15818 -0.11997,-0.25997c-0.01943,-0.07634 -0.05429,-0.16039 -0.01603,-0.2745c0.13324,-0.11089 0.28744,-0.0337 0.4361,-0.13689c0.08516,0.17588 0.09966,0.33856 0.08982,0.51126z"/><path d="M237.69575,176.76411c-0.25969,-0.17452 -0.51942,-0.34895 -0.74335,-0.59435c0.06908,-0.09861 0.15517,-0.07777 0.23224,-0.03912c0.20943,0.08269 0.40988,0.18305 0.59497,0.27575c0.13879,0.0695 0.11599,0.19134 -0.08388,0.35769z"/><path d="M243.63961,175.3219c-0.10549,-0.09721 -0.09811,-0.22677 -0.13943,-0.33628c-0.09163,-0.20134 -0.02655,-0.3686 0.15793,-0.54272c0.16225,0.2145 0.1937,0.49674 0.22766,0.73576c-0.07804,0.11637 -0.13572,0.15412 -0.24612,0.14323z"/><path d="M238.73999,174.31151c-0.32881,-0.07585 -0.52836,-0.33122 -0.75232,-0.5766c0.26958,0.00175 0.50091,0.11764 0.72577,0.20802c0.14775,0.05179 0.1518,0.12042 0.02654,0.36858z"/><path d="M241.63036,172.45026c0.186,-0.06228 0.34114,-0.14003 0.52708,-0.20233c0.06817,0.05636 0.1493,0.16359 0.23936,0.25311c-0.2381,0.28047 -0.25351,0.27273 -0.44511,0.15461c-0.10793,-0.05409 -0.20697,-0.12587 -0.3214,-0.20539z"/><path d="M233.61875,174.54454c0.13572,-0.15408 0.26649,-0.22187 0.39724,-0.28958c0.11198,0.12269 0.10209,0.29541 0.13204,0.46583c-0.13971,0.0855 -0.27048,0.15317 -0.4102,0.23865c-0.12985,-0.08723 -0.08023,-0.2622 -0.11908,-0.41494z"/><path d="M242.30311,174.14185c0.08451,-0.09088 0.19739,-0.12323 0.32571,-0.1478c0.17364,0.1536 0.28073,0.36261 0.33899,0.59169c-0.04718,0.13181 -0.11134,0.14408 -0.20631,0.1409c-0.15578,-0.18901 -0.31155,-0.37807 -0.45837,-0.58484z"/><path d="M236.57193,172.1376c-0.19248,0.03684 -0.39139,0.04825 -0.58386,0.08509c-0.04133,-0.10954 -0.02747,-0.21362 0.02617,-0.31997c0.0845,-0.09088 0.17948,-0.08776 0.28342,-0.10233c0.07958,-0.00456 0.15916,-0.00912 0.23874,-0.01368c0.06572,0.09953 0.09163,0.20133 0.03548,0.35088z"/><path d="M234.50152,175.47524c-0.186,0.06228 -0.3476,0.11458 -0.54256,0.19462c-0.08359,-0.06405 -0.14933,-0.16358 -0.11508,-0.34631c0.1397,-0.08551 0.29484,-0.16321 0.45891,-0.25868c0.08759,0.13269 0.16873,0.23994 0.19866,0.41038z"/><path d="M237.40772,171.66806c0.08759,0.13269 0.14438,0.24994 0.15886,0.41265c-0.186,0.06228 -0.35811,0.02049 -0.50831,0.01189c-0.10549,-0.09721 -0.08266,-0.21903 -0.08422,-0.33084c0.04225,-0.04544 0.06014,-0.08092 0.07555,-0.0732c0.11935,-0.00681 0.23871,-0.01366 0.35811,-0.02049z"/><path d="M239.20815,171.39262c-0.24121,0.05684 -0.38001,-0.01265 -0.53669,-0.0467c-0.18106,-0.02405 -0.18909,-0.16131 -0.2036,-0.324c0.186,-0.06228 0.34267,-0.02824 0.50184,-0.03735c0.13632,0.11269 0.09317,0.31313 0.23844,0.40809z"/><path d="M243.30302,173.57673c0.07867,0.1504 0.13542,0.26764 0.20761,0.39263c-0.06509,0.16727 -0.11875,0.27363 -0.25845,0.35909c-0.08514,-0.17589 -0.17923,-0.33402 -0.25789,-0.48442c0.0342,-0.1827 0.16255,-0.20724 0.2316,-0.3059c0.03083,0.01544 0.07066,0.01316 0.07714,0.03861z"/><path d="M233.43124,175.60536c0.0811,0.10725 0.10057,0.18359 0.08671,0.28769c-0.03826,0.11411 -0.13572,0.15408 -0.22668,0.21956c-0.08206,0.04777 -0.16007,0.16409 -0.27698,0.12777c-0.04779,-0.13498 -0.07126,-0.27993 -0.02161,-0.45495c0.15514,-0.07775 0.29241,-0.12004 0.4386,-0.18006z"/><path d="M239.93807,182.08382c-0.0145,-0.16269 -0.03148,-0.28224 -0.03952,-0.41948c0.17057,-0.07005 0.32972,-0.07912 0.49783,-0.10599c0.05674,0.11723 0.07375,0.23678 0.0111,0.36084c-0.03331,0.02775 -0.06662,0.05544 -0.10643,0.05775c-0.09743,0.04001 -0.21038,0.07228 -0.36304,0.10686z"/><path d="M241.85636,171.96401c-0.27698,0.12777 -0.277,0.12778 -0.58385,0.08508c-0.07866,-0.15042 -0.02252,-0.29997 0.01173,-0.48265c0.24277,0.05495 0.39851,0.24398 0.57217,0.39757z"/><path d="M241.55732,180.67423c-0.05674,-0.11723 -0.06478,-0.25454 -0.01757,-0.38631c0.17057,-0.07005 0.31671,-0.13008 0.47834,-0.18231c0.00218,0.37859 -0.00673,0.39632 -0.46075,0.56867z"/><path d="M235.65158,172.69815c0.06327,0.1427 0.10457,0.25224 0.11906,0.41495c-0.14863,0.10317 -0.3143,0.08684 -0.49135,0.13142c-0.02837,-0.05864 -0.04131,-0.1095 -0.0543,-0.1604c-0.01297,-0.05091 -0.00156,-0.11179 -0.00557,-0.18045c0.12677,-0.13637 0.264,-0.17864 0.43212,-0.20552z"/><path d="M238.67659,182.7844c-0.1974,0.1232 -0.3914,0.04825 -0.55948,0.07511c-0.07216,-0.12497 -0.02501,-0.2568 -0.03301,-0.39408c0.23224,-0.03916 0.40437,0.00266 0.54717,0.14081c0.04626,0.02319 0.04134,0.10952 0.04535,0.17813z"/><path d="M232.92553,178.90508c0.13789,0.2245 0.25138,0.459 0.37383,0.67575c-0.07805,0.11637 -0.16005,0.1641 -0.30379,0.18096c-0.08023,-0.2622 -0.16041,-0.52444 -0.16754,-0.81667c0.04877,-0.02002 0.0731,-0.03 0.09744,-0.04002z"/><path d="M237.61331,175.01303c0.22733,0.04723 0.44571,0.11219 0.62828,0.24804c0.06816,0.05638 0.10302,0.14041 0.05832,0.22904c-0.01788,0.03542 -0.08451,0.09089 -0.09993,0.08318c-0.24027,-0.09813 -0.40901,-0.33805 -0.58667,-0.56026z"/><path d="M234.81662,173.0128c0.07465,0.08181 0.0762,0.19359 0.0688,0.32312c-0.15514,0.07775 -0.3103,0.15548 -0.46542,0.23324c-0.08759,-0.13269 -0.04934,-0.24678 0.01325,-0.37084c0.09993,-0.08319 0.24611,-0.14323 0.38341,-0.18549z"/><path d="M243.16352,178.10335c-0.10952,-0.1659 -0.12398,-0.32859 -0.12957,-0.50902c0.11783,-0.11863 0.23317,-0.19412 0.40774,-0.1955c-0.0148,0.25906 -0.13756,0.46406 -0.27816,0.7045z"/><path d="M236.78773,183.08194c-0.24767,0.0314 -0.41238,-0.1399 -0.61132,-0.12848c-0.05674,-0.11722 -0.00555,-0.18043 0.05862,-0.19273c0.1681,-0.02686 0.34271,-0.02825 0.49688,0.04901c0.03733,0.0409 0.05274,0.04863 0.05585,0.27225z"/><path d="M233.39125,178.25014c-0.09992,0.08319 -0.17303,0.11318 -0.26801,0.11006c-0.09163,-0.20134 -0.19864,-0.41038 -0.19682,-0.72034c0.27111,0.11358 0.34483,0.35036 0.46484,0.61028z"/><path d="M240.7813,181.48473c0.13971,-0.0855 0.24612,-0.14321 0.35655,-0.13231c0.05275,0.04862 0.04136,0.10954 0.02994,0.17045c-0.04563,0.24359 -0.19834,0.27817 -0.39725,0.28957c0.01384,-0.10406 0.01231,-0.21591 0.01077,-0.32769z"/><path d="M239.18506,173.04658c-0.20943,-0.08267 -0.37906,-0.16762 -0.53728,-0.31349c0.02931,-0.09634 0.09343,-0.10864 0.13972,-0.08548c0.11692,0.03635 0.24278,0.05496 0.35965,0.0913c0.12336,0.0618 0.11841,0.14813 0.03791,0.30766z"/><path d="M235.47793,179.6282c0.24767,-0.0314 0.43923,0.08672 0.62427,0.17942c0.03083,0.01544 0.04382,0.06635 0.04132,0.10952c-0.01788,0.03543 -0.07555,0.0732 -0.091,0.06549c-0.24277,-0.05495 -0.42534,-0.1908 -0.57464,-0.3544z"/><path d="M235.57301,180.74158c-0.00091,0.15498 -0.04565,0.2436 -0.14066,0.24044c-0.12585,-0.01862 -0.26217,-0.13132 -0.42689,-0.3026c0.21685,-0.04689 0.38646,0.0381 0.56751,0.06215z"/><path d="M243.84599,176.29125c-0.09807,-0.22679 -0.22056,-0.44354 0.06381,-0.70085c0.11348,0.23453 -0.00277,0.46494 -0.06381,0.70085z"/><path d="M240.91389,175.13379c-0.15022,-0.00861 -0.31583,-0.02492 -0.45065,-0.02585c-0.05026,-0.0918 -0.03888,-0.15271 0.03024,-0.25134c0.18356,-0.01913 0.302,0.12901 0.44974,0.18078c-0.01788,0.03543 -0.02685,0.05318 -0.02931,0.09638z"/><path d="M236.67546,177.40779c0.28098,-0.05913 0.48149,0.04131 0.64619,0.21258c0.01542,0.00774 0.01298,0.05091 -0.00492,0.08637c-0.01142,0.0609 -0.07555,0.0732 -0.10639,0.05774c-0.1786,-0.06719 -0.33684,-0.21311 -0.53487,-0.35668z"/><path d="M239.01369,182.57574c0.186,-0.06228 0.36702,-0.03824 0.53269,-0.02189c0.05028,0.09179 -0.00093,0.155 -0.08049,0.15957c-0.14376,0.01683 -0.27205,0.04138 -0.42224,0.03277c-0.04877,0.02002 -0.06816,-0.05633 -0.02992,-0.17042z"/><path d="M234.01875,173.79007c-0.12679,0.13638 -0.2421,0.21183 -0.39726,0.28957c0.05458,-0.26133 0.19922,-0.43316 0.30655,-0.64586c0.03733,0.04091 0.06816,0.05638 0.07462,0.0818c0.01048,0.09409 0.00556,0.18041 0.01608,0.27447z"/><path d="M238.39695,179.6245c0.03179,-0.13955 0.08294,-0.2027 0.16504,-0.25046c0.16315,0.05953 0.27511,0.18223 0.33992,0.43673c-0.20297,-0.05723 -0.34175,-0.12676 -0.50494,-0.18625z"/><path d="M240.81975,173.86534c-0.05026,-0.09179 -0.02989,-0.17044 -0.00957,-0.24906c0.07557,-0.07319 0.15266,-0.03459 0.49598,0.20399c-0.19985,0.16638 -0.3427,0.02825 -0.48643,0.04507z"/><path d="M236.16968,178.48685c0.21994,0.17676 0.51635,0.12535 0.57619,0.4662c-0.26713,-0.04492 -0.44323,-0.15532 -0.57619,-0.4662z"/><path d="M238.89441,171.74632c0.23131,0.11585 0.38555,0.1931 0.53978,0.27033c0.03083,0.01544 0.04382,0.06635 0.01696,0.11951c-0.00894,0.01776 -0.04226,0.04545 -0.06663,0.05547c-0.20295,-0.0572 -0.37266,-0.1422 -0.49013,-0.44529z"/><path d="M241.01779,172.89853c-0.008,-0.13725 0.00336,-0.19814 0.10978,-0.25589c0.13231,0.04405 0.28007,0.09585 0.40746,0.22628c-0.19742,0.12317 -0.35159,0.04596 -0.51722,0.02965z"/><path d="M238.14057,171.05789c-0.01385,0.10407 -0.01634,0.14726 -0.03425,0.18274c-0.31429,0.08687 -0.31427,0.08685 -0.50333,-0.07446c0.18196,-0.13092 0.33617,-0.05372 0.53757,-0.10824z"/><path d="M243.22199,175.69001c-0.06972,-0.16817 -0.1638,-0.32628 -0.22457,-0.51216c-0.01943,-0.07634 0.01637,-0.14725 0.13572,-0.15408c0.09162,0.20135 0.16779,0.39492 0.08885,0.66625z"/><path d="M235.5852,172.33182c-0.10645,0.05775 -0.17952,0.08772 -0.27449,0.08459c-0.04382,-0.06636 -0.04784,-0.13497 -0.01853,-0.23133c0.0691,-0.09862 0.18198,-0.1309 0.29485,-0.16319c0.07465,0.08181 0.0364,0.19586 -0.00185,0.30992z"/><path d="M239.95511,177.34039c-0.14862,0.10318 -0.25664,0.04912 -0.37353,0.01279c-0.04626,-0.0232 -0.05025,-0.09177 -0.02344,-0.14497c0.01788,-0.03543 0.07557,-0.07321 0.10641,-0.05774c0.11934,-0.00683 0.19403,0.07497 0.29055,0.18994z"/><path d="M233.22547,174.90278c0.1638,0.3263 0.17032,0.35174 -0.16188,0.47408c0.04072,-0.15725 0.0262,-0.31996 0.16188,-0.47408z"/><path d="M235.05668,181.72652c-0.20389,0.09774 -0.26956,-0.00176 -0.36861,-0.07357c0.15761,-0.12088 0.15761,-0.12088 0.36861,0.07357z"/><path d="M240.08425,176.05061c0.07712,0.03862 0.18505,0.09268 0.2662,0.19993c-0.2193,0.09003 -0.28097,0.05913 -0.35317,-0.06581c-0.02189,-0.03318 0.00492,-0.08638 0.08699,-0.13408z"/><path d="M239.39346,171.06364c0.2745,-0.0846 0.29642,-0.05143 0.19955,0.2554c-0.12588,-0.01863 -0.1672,-0.1281 -0.19955,-0.2554z"/><path d="M234.32913,181.82844c0.18106,0.02407 0.29546,0.10357 0.40992,0.18311c-0.00738,0.12952 -0.0651,0.16725 -0.12678,0.13634c-0.12338,-0.06178 -0.23781,-0.1413 -0.28315,-0.31942z"/><path d="M236.97035,171.27127c0.13076,-0.0677 0.23072,-0.15092 0.34516,-0.07141c0.01542,0.00776 0.02192,0.03316 0.01298,0.05089c-0.11136,0.14409 -0.22179,0.13321 -0.35811,0.0205z"/><path d="M239.2325,178.46633c-0.08851,0.02229 -0.15025,-0.00861 -0.20298,-0.05725c-0.02189,-0.03318 -0.03486,-0.08407 -0.00154,-0.11179c0.03331,-0.02775 0.08206,-0.04777 0.11288,-0.03226c0.06165,0.03091 0.11442,0.07953 0.0916,0.20132z"/><path d="M234.70808,172.69186c0.01636,-0.14725 0.07648,-0.22816 0.23562,-0.23729c-0.00987,0.1727 -0.09188,0.22045 -0.23562,0.23729z"/></g><g stroke="#000000" stroke-width="1.2"><path d="M251.85242,195.54941c-1.83838,-0.36956 -3.5498,-3.2032 -5.41869,-4.48108c-2.01211,-1.37583 -4.01265,-1.15822 -4.60161,-2.68494c-0.41136,-1.0664 0.39167,-2.53515 0.90308,-3.24757c1.24357,-1.73239 5.02219,-1.2424 8.43974,1.09442c3.41757,2.33681 5.17994,5.63556 3.93636,7.36793c-0.56352,0.78503 -1.73549,2.25744 -3.25888,1.95123z"/><path d="M255.55784,193.59532c-2.55688,-0.53905 -6.76814,-4.68401 -6.76814,-4.68401c0,0 -3.75484,-1.14006 -3.82441,-1.18958c-4.43334,-3.15424 -2.32954,-6.18824 0.11919,-9.59947c1.16542,-1.62353 3.5812,-3.69357 5.62459,-3.61924c2.31745,0.08428 4.19207,2.1027 6.70125,3.81841c4.72162,3.22851 7.25988,8.02753 4.77273,11.4923c-1.09484,1.52517 -3.21024,4.50155 -6.62523,3.78159z"/></g></g></g></g></svg>