<svg version="1.1" xmlns="http://www.w3.org/2000/svg" xmlns:xlink="http://www.w3.org/1999/xlink" width="118.29657" height="70.43237" viewBox="0,0,118.29657,70.43237"><defs><linearGradient x1="197.225" y1="205.09771" x2="176.96098" y2="214.72891" gradientUnits="userSpaceOnUse" id="color-1"><stop offset="0" stop-color="#000000"/><stop offset="1" stop-color="#000000" stop-opacity="0"/></linearGradient></defs><g transform="translate(-172.82485,-164.69288)"><g data-paper-data="{&quot;isPaintingLayer&quot;:true}" stroke-miterlimit="10" stroke-dasharray="" stroke-dashoffset="0" style="mix-blend-mode: normal"><g stroke-linejoin="miter"><path d="M239.57534,180.58353c5.77408,12.14865 0.16285,26.88875 -12.53306,32.92292c-12.69588,6.03417 -27.66877,1.07741 -33.44285,-11.07124c-5.77408,-12.14865 -0.16285,-26.88875 12.53306,-32.92292c12.69588,-6.03417 27.66877,-1.07741 33.44285,11.07124z" fill="none" fill-rule="nonzero" stroke="#000000" stroke-width="4.5" stroke-linecap="butt"/><g stroke-linecap="butt"><g fill-rule="nonzero"><path d="M196.20689,183.77339l0.01383,0.00241" data-paper-data="{&quot;index&quot;:null}" fill="#ffab19" stroke="#000000" stroke-width="5"/><g data-paper-data="{&quot;index&quot;:null}" fill="none" stroke="none" stroke-width="1" font-family="sans-serif" font-weight="normal" font-size="12" text-anchor="start"/></g><path d="M196.20689,183.77339l0.01383,0.00241" data-paper-data="{&quot;index&quot;:null}" fill="#ffab19" fill-rule="nonzero" stroke="#000000" stroke-width="5"/><path d="M216.8494,192.73892" fill="#001026" fill-rule="evenodd" stroke="#000000" stroke-width="5"/><g data-paper-data="{&quot;index&quot;:null}" fill="none" fill-rule="nonzero" stroke="none" stroke-width="1" font-family="sans-serif" font-weight="normal" font-size="12" text-anchor="start"/><g data-paper-data="{&quot;index&quot;:null}" fill="none" fill-rule="nonzero" stroke="none" stroke-width="1" font-family="sans-serif" font-weight="normal" font-size="12" text-anchor="start"/></g><path d="M222.1858,216.78192l-26.6968,12.42986c0,0 -2.31723,0.72564 -2.39105,-0.23742c-0.16928,-2.20833 1.39583,-12.7454 1.39583,-12.7454l-12.2597,1.42784c0,0 -2.31116,0.09775 -3.07151,-0.75797c-0.70731,-0.79603 5.56437,-14.14147 5.56437,-14.14147c0,0 -9.01608,0.28858 -11.88901,-0.53932c-1.12814,-0.32509 6.92693,-12.62406 13.15543,-19.71265c3.04777,-3.46866 7.09217,-8.433 11.0151,-11.10608c6.50448,-4.43215 12.9056,-4.93705 12.9056,-4.93705" fill="none" fill-rule="nonzero" stroke="#000000" stroke-width="3" stroke-linecap="round"/><path d="M193.80033,230.01438c0,0 -1.08147,-1.04037 -0.80075,-3.31386c0.35162,-2.84762 3.77947,-8.07615 1.27206,-9.49901c-3.2481,-1.8432 -14.44047,3.98286 -14.68941,-0.15825c-0.2044,-3.40033 5.82283,-12.31474 4.93363,-14.18559c-0.88722,-1.86673 -4.47308,1.22968 -8.01994,-0.13053c-5.0444,-1.9345 -3.42271,-2.71144 -3.42271,-2.71144c0,0 7.37812,-11.78021 11.47218,-16.43519c3.84115,-4.36741 12.38184,-10.68703 12.38184,-10.68703c0,0 -7.58754,18.82694 -6.05774,27.01139c1.69582,9.07259 25.53762,18.3298 25.53762,18.3298z" data-paper-data="{&quot;index&quot;:null}" fill="url(#color-1)" fill-rule="nonzero" stroke="none" stroke-width="0" stroke-linecap="butt"/></g><path d="M235.22898,209.30894l13.54053,-2.39351" fill="none" fill-rule="nonzero" stroke="#000000" stroke-width="6" stroke-linecap="round" stroke-linejoin="miter"/><path d="M248.07967,218.60756c0,0 -7.85309,0.46487 -8.51283,-0.44126c-1.19457,-1.64071 -4.3534,-9.84418 -4.3534,-9.84418c0,0 10.84531,-8.96721 13.34525,-10.31521c0.41916,-0.22602 10.8545,-6.54732 10.8545,-6.54732" fill="none" fill-rule="nonzero" stroke="#000000" stroke-width="6" stroke-linecap="round" stroke-linejoin="miter"/><g><g><g stroke="#001026" stroke-width="1.2"><path d="M250.0342,197.77967l25.78874,4.34149c0,0 2.34018,-6.67646 9.1205,-4.56093c0.38654,0.12061 2.26978,0.76388 2.02608,3.729c-0.23343,2.83998 -2.56659,7.96661 -3.43076,9.83649c-0.40137,0.86847 -1.41362,2.07666 -2.72152,2.65961c-1.31685,0.58691 -2.83358,0.04864 -3.70213,-0.20063c-0.35376,-0.10153 -28.74739,-6.0658 -28.74739,-6.0658" fill="#bf0000" fill-rule="evenodd" stroke-linecap="round" stroke-linejoin="round"/><path d="M253.95394,209.2994c-6.94873,-2.16807 -5.59855,-7.3426 -4.76865,-10.00244c0.36087,-1.1566 -1.55399,-1.53445 4.2129,-0.99867c1.2701,0.118 6.34523,1.08818 10.82933,1.33983c3.07054,0.17232 5.9674,-0.32386 6.76443,-0.34334c1.88318,-0.046 3.39512,0.62746 3.39512,0.62746l-1.42574,0.65267c0,0 0.98295,-0.41764 1.53317,-0.54008c1.71406,-0.38144 3.01009,-0.67755 3.01009,-0.67755c0,0 -2.40249,6.72161 -0.98387,10.01348c1.41862,3.29186 5.9041,3.14583 5.9041,3.14583c0,0 -2.23199,4.85066 -5.14751,4.45604c-0.71875,-0.09728 -2.547,-1.47202 -2.547,-1.47202c0,0 -0.0499,0.6134 -0.53309,0.49542c-0.24631,-0.06014 -3.63701,-1.87177 -7.65225,-3.20797c-5.28575,-1.75901 -11.58986,-3.17626 -12.59106,-3.48864z" fill="#000000" fill-rule="nonzero" stroke-linecap="butt" stroke-linejoin="miter"/></g><path d="M246.49534,216.58337c-0.20807,-0.04932 0.72998,-1.0379 1.55358,-3.65068c1.08654,-3.44692 2.19613,-8.88447 2.41296,-10.44071c0.56226,-4.03562 -0.70846,-5.10951 -0.15688,-4.9788c2.04115,0.48372 5.14478,3.74583 4.07932,8.24168c-0.46821,1.97571 -0.93526,6.1572 -2.29102,8.21274c-1.72933,2.62193 -4.45382,2.8869 -5.59797,2.61576z" fill="#004fd9" fill-rule="nonzero" stroke="#001026" stroke-width="1.2" stroke-linecap="butt" stroke-linejoin="miter"/><g fill-rule="nonzero" stroke-linecap="butt" stroke-linejoin="miter"><g fill="none" stroke="none" stroke-width="1" font-family="sans-serif" font-weight="normal" font-size="12" text-anchor="start"/><path d="M245.05116,216.67636c0,0 3.65388,-7.97155 4.73251,-11.80659c1.07862,-3.83502 0.6606,-7.3686 0.6606,-7.3686c0,0 1.98057,0.5343 3.41083,2.79169c1.10711,1.74735 1.91871,4.72883 1.01126,8.02244c-0.82671,3.00056 -2.41076,6.15871 -4.17353,7.44185c-2.67185,1.94484 -5.64168,0.91921 -5.64168,0.91921z" fill="#000000" stroke="#001026" stroke-width="1.2"/></g><g stroke="#001026" stroke-width="1.2"><path d="M252.68475,208.89968c0,0 28.13316,11.57246 28.05919,12.19353c-0.21232,1.7823 -5.34962,10.41199 -5.34962,10.41199l-27.50382,-14.36516" data-paper-data="{&quot;index&quot;:null}" fill="#ffab19" fill-rule="evenodd" stroke-linecap="round" stroke-linejoin="round"/><path d="M252.62768,207.32788c0,0 5.9285,2.51916 9.12301,3.67641c3.06401,1.10996 9.66893,3.13116 9.66893,3.13116c0,0 5.08562,0.46841 6.01994,1.70112c0.43276,0.57095 -2.93526,-0.04083 -2.93526,-0.04083c0,0 3.7959,0.69328 4.13155,0.75062c2.34188,0.40017 4.99716,2.39326 4.42558,5.46075c-0.62758,3.36791 -1.83231,8.90438 -4.43069,11.19247c-1.10557,0.97355 -3.81764,1.94463 -6.08982,0.82393c-2.56244,-1.26385 -4.64034,-4.70684 -4.64034,-4.70684l2.39401,3.30243c0,0 -1.54832,-0.41592 -2.56613,-1.13309c-1.14301,-0.8054 -3.95996,-3.46545 -3.95996,-3.46545l-17.12674,-10.52182" data-paper-data="{&quot;index&quot;:null}" fill="#000000" fill-rule="evenodd" stroke-linecap="round" stroke-linejoin="round"/><path d="M279.57507,218.3275c1.60843,0.54932 3.31258,1.76253 3.88061,3.49961c0.57012,1.74352 -2.33428,10.40994 -3.9305,11.42133c-1.51586,0.96049 -3.78605,0.87868 -5.35584,0.34255c-3.2228,-1.10068 -4.6253,-5.4098 -3.13254,-9.62471c1.49275,-4.21488 5.31547,-6.73945 8.53828,-5.63875z" fill="#ff0000" fill-rule="nonzero" stroke-linecap="butt" stroke-linejoin="miter"/></g></g><g fill="#000000" fill-rule="nonzero" stroke="#001026" stroke-width="1.2" stroke-linecap="butt" stroke-linejoin="miter"><path d="M256.47838,218.58543c0,0 -0.36109,2.92833 -0.85918,3.71312c-0.15334,0.24158 -1.2534,0.6888 -2.42695,0.74267c-1.46471,0.06725 -3.12859,-0.34478 -4.18807,-0.99163c-2.72584,-1.66425 -4.74651,-6.80647 -3.59715,-8.6174c0.49811,-0.78485 3.54547,-2.33886 3.55198,-2.33882"/></g></g><g data-paper-data="{&quot;index&quot;:null}" fill="#000000" fill-rule="nonzero" stroke="#000000" stroke-width="1.2" stroke-linecap="butt" stroke-linejoin="miter"><path d="M254.33825,197.75507c-1.60008,-0.96017 -2.43401,-4.20178 -3.82305,-6.02867c-1.49548,-1.96692 -3.39993,-2.42732 -3.54165,-4.063c-0.09899,-1.14251 1.02927,-2.26038 1.6891,-2.76205c1.60445,-1.21992 4.96427,0.49938 7.50434,3.84016c2.54008,3.34077 3.29857,7.03794 1.69413,8.25784c-0.72705,0.55281 -2.19692,1.55138 -3.52285,0.75574z"/><path d="M258.45502,197.33877c-2.21886,-1.35906 -5.01557,-6.66902 -5.01557,-6.66902c0,0 -3.16666,-2.32443 -3.21785,-2.39428c-3.26269,-4.44958 -0.52119,-6.61073 2.63813,-9.01284c1.50362,-1.14326 4.27931,-2.29157 6.14644,-1.5416c2.11755,0.85053 3.31684,3.37767 5.18178,5.83049c3.50931,4.61554 4.58907,9.98565 1.38017,12.42546c-1.41255,1.074 -4.14959,3.17693 -7.11311,1.36176z"/></g><path d="M219.02901,204.6209l7.15937,-12.03766" fill="none" fill-rule="nonzero" stroke="#000000" stroke-width="4.5" stroke-linecap="round" stroke-linejoin="miter"/><path d="M214.10234,191.92615l-18.16666,-0.66666" fill="none" fill-rule="nonzero" stroke="#000000" stroke-width="4.5" stroke-linecap="round" stroke-linejoin="miter"/><path d="M204.10234,182.42615l2,20.33334" fill="none" fill-rule="nonzero" stroke="#000000" stroke-width="4.5" stroke-linecap="round" stroke-linejoin="miter"/><path d="M212.26901,176.42615l19.16667,0.5" fill="none" fill-rule="nonzero" stroke="#000000" stroke-width="4.5" stroke-linecap="round" stroke-linejoin="miter"/><path d="M219.76901,186.59282l0.5,-15.83333" fill="none" fill-rule="nonzero" stroke="#000000" stroke-width="4.5" stroke-linecap="round" stroke-linejoin="miter"/><g fill="#ff0000" fill-rule="nonzero" stroke="none" stroke-linecap="butt" stroke-linejoin="miter"><path d="M266.08932,207.20351c1.20014,-0.06461 2.33756,0.7369 2.5405,1.79022c0.20294,1.05331 -0.60546,1.95957 -1.8056,2.02418c-1.20014,0.06461 -2.33757,-0.73689 -2.54051,-1.79021c-0.20294,-1.05331 0.60547,-1.95959 1.80561,-2.02419z" stroke-width="NaN"/><path d="M270.2932,204.4079c1.10413,-0.05944 2.14546,0.65136 2.32583,1.58765c0.18038,0.93628 -0.56846,1.74348 -1.6726,1.80291c-1.10413,0.05944 -2.14546,-0.65138 -2.32585,-1.58767c-0.18038,-0.93628 0.56846,-1.74347 1.67259,-1.80291z" stroke-width="0"/><path d="M274.80351,207.30537c1.15214,-0.06203 2.23239,0.64669 2.41276,1.58297c0.18038,0.93628 -0.60738,1.74558 -1.75953,1.80759c-1.15214,0.06203 -2.23238,-0.6467 -2.41276,-1.58298c-0.18038,-0.93628 0.60738,-1.74556 1.75951,-1.80758z" stroke-width="0"/><path d="M258.69208,202.9604c-0.13464,0.77007 -1.09556,1.23884 -2.14633,1.04703c-1.05077,-0.19182 -1.79343,-0.97158 -1.65878,-1.74165c0.13464,-0.77007 1.09557,-1.23885 2.14634,-1.04704c1.05077,0.19182 1.79343,0.97159 1.65877,1.74166z" stroke-width="NaN"/><path d="M260.70225,206.43523c-0.12387,0.70846 -0.98142,1.14459 -1.91543,0.97409c-0.93401,-0.1705 -1.59076,-0.88305 -1.46689,-1.59152c0.12387,-0.70846 0.98143,-1.14457 1.91544,-0.97408c0.93401,0.1705 1.59076,0.88304 1.46688,1.59151z" stroke-width="0"/><path d="M263.11405,204.28558c-0.14001,0.80088 -0.97915,1.31766 -1.87423,1.15426c-0.89508,-0.1634 -1.50718,-0.9451 -1.36716,-1.74598c0.14001,-0.80088 0.97915,-1.31765 1.87423,-1.15425c0.89508,0.1634 1.50718,0.94508 1.36717,1.74596z" stroke-width="0"/><path d="M263.02311,217.37254c1.19865,0.24391 1.9977,1.27033 1.78474,2.29257c-0.21297,1.02223 -1.35734,1.65317 -2.55599,1.40925c-1.19865,-0.24391 -1.99769,-1.27033 -1.78472,-2.29255c0.21297,-1.02223 1.35733,-1.65319 2.55598,-1.40926z" stroke-width="NaN"/><path d="M268.22524,215.85867c1.10276,0.22441 1.84326,1.14292 1.65395,2.05157c-0.18931,0.90864 -1.23674,1.46333 -2.3395,1.23892c-1.10276,-0.22441 -1.84327,-1.14293 -1.65396,-2.05156c0.18931,-0.90864 1.23675,-1.46332 2.33952,-1.23892z" stroke-width="0"/><path d="M257.0012,212.24403c-0.4324,0.67578 -1.55504,0.8649 -2.50747,0.4224c-0.95244,-0.44251 -1.37399,-1.34905 -0.94159,-2.02484c0.4324,-0.67578 1.55504,-0.8649 2.50747,-0.42239c0.95243,0.44251 1.37399,1.34904 0.94158,2.02482z" stroke-width="NaN"/><path d="M253.3898,216.85216c-0.41512,0.64875 -1.43793,0.85579 -2.28454,0.46247c-0.84662,-0.39333 -1.19641,-1.23812 -0.7813,-1.88686c0.41512,-0.64875 1.43793,-0.85581 2.28455,-0.46248c0.84662,0.39333 1.1964,1.23813 0.7813,1.88688z" stroke-width="0"/><path d="M260.80714,214.58373c-0.4497,0.70281 -1.47197,0.96697 -2.2833,0.59004c-0.81133,-0.37694 -1.10451,-1.25226 -0.65481,-1.95507c0.4497,-0.70281 1.47198,-0.96698 2.28331,-0.59005c0.81133,0.37694 1.10449,1.25227 0.65479,1.95509z" stroke-width="0"/></g><g data-paper-data="{&quot;index&quot;:null}" fill-rule="nonzero" stroke="none" stroke-width="1" stroke-linecap="butt" stroke-linejoin="miter"><path d="M277.97827,202.15926c-0.05098,-0.20581 0.04758,-0.31658 0.1863,-0.42599c0.2327,-0.15507 0.4921,-0.26029 0.73376,-0.39868c0.02026,-0.07274 0.04053,-0.14548 0.04512,-0.21056c0.16809,-1.38137 0.86732,-2.43409 1.76525,-3.37377c0.19032,-0.19736 0.37178,-0.41137 0.62228,-0.53314c0.04699,-0.02281 0.1007,-0.06991 0.1142,-0.11843c0.07426,-0.26671 0.27781,-0.36569 0.48811,-0.48891c0.17897,-0.108 0.37575,-0.18273 0.56365,-0.27406c0.10958,-0.05329 0.23701,-0.07333 0.36875,-0.01162c0.1317,0.06173 0.28369,0.05071 0.41997,0.04729c0.77336,-0.10355 1.56209,-0.06785 2.35727,0.09045c0.44671,0.09721 0.85752,0.27475 1.27722,0.46891c1.23459,0.57352 2.23619,1.44898 3.05637,2.53841c0.36324,0.49414 0.65713,1.04296 0.88839,1.62223c0.17565,0.4386 0.2239,0.89728 0.24761,1.34692c0.07539,1.43069 -0.33155,2.69761 -1.09131,3.82163c-0.14121,0.21538 -0.34042,0.39612 -0.53965,0.57684c-0.12984,0.12603 -0.23513,0.26108 -0.24005,0.47307c0.00184,0.18771 -0.10343,0.32276 -0.24218,0.43216c-0.2327,0.15507 -0.48322,0.27688 -0.73374,0.39868c-0.07831,0.03808 -0.15876,0.03527 -0.23921,0.03244c-0.29933,-0.04308 -0.56091,0.02121 -0.82032,0.12641c-0.54126,0.24224 -1.14024,0.30291 -1.7303,0.38021c-0.22352,0.02481 -0.45591,0.03306 -0.69048,0.00041c-0.75955,-0.0918 -1.49675,-0.21545 -2.22012,-0.53446c-0.23485,0.1142 -0.49428,0.21938 -0.74479,0.34121c-0.09396,0.04568 -0.20355,0.09898 -0.3196,0.02963c-0.10712,-0.0527 -0.1922,0.0096 -0.28611,0.05529c-0.63517,0.28792 -1.26145,0.59244 -1.89664,0.88034c-1.40241,0.66094 -2.8204,1.32955 -4.24061,1.95725c-1.38889,0.61246 -2.75101,1.27487 -4.12208,1.92058c-0.2192,0.1066 -0.44054,0.17228 -0.65973,0.2789c-1.06466,0.51772 -2.12937,1.03541 -3.20293,1.53651c-0.18787,0.09136 -0.35796,0.21596 -0.5836,0.1999c-0.08047,-0.00281 -0.1498,0.05188 -0.22811,0.08993c-0.78284,0.38072 -1.59027,0.75234 -2.37312,1.13302c-0.03132,0.01522 -0.07829,0.03804 -0.10959,0.05329c-0.24161,0.13846 -0.4292,0.08293 -0.66348,-0.09661c-0.77868,-0.60655 -1.30898,-1.37576 -1.59095,-2.30768c-0.06878,-0.23906 -0.10628,-0.49331 -0.10357,-0.74618c-0.00185,-0.18775 0.08776,-0.31519 0.2354,-0.40794c0.443,-0.27827 0.87708,-0.57322 1.33575,-0.85913c0.32667,-0.20077 0.68677,-0.37587 0.98669,-0.62653c0.65355,-0.54837 1.42967,-0.90482 2.10993,-1.40333c0.38709,-0.27208 0.74078,-0.56984 1.13679,-0.82532c0.42734,-0.27067 0.82122,-0.567 1.22394,-0.84672c0.73618,-0.5047 1.50582,-0.98376 2.23308,-1.50511c0.94214,-0.70965 1.91994,-1.35283 2.8977,-1.99597c0.33342,-0.22501 0.66674,-0.45001 1.00017,-0.67502c0.52802,-0.34064 1.0717,-0.68882 1.59973,-1.02941c0.29532,-0.18554 0.5572,-0.39671 0.85251,-0.58225c0.30211,-0.20979 0.59954,-0.35442 0.92622,-0.55521zM278.4201,202.46843c0.01291,0.24526 0.05714,0.47528 0.15723,0.6991c0.09064,0.50093 0.29977,0.9652 0.50892,1.42945c0.25583,0.58831 0.58317,1.16278 0.90163,1.72061c0.36298,0.64099 0.8558,1.15597 1.37319,1.68c0.06694,0.0513 0.13387,0.10258 0.23427,0.17951c0.12525,-0.06088 0.25048,-0.12184 0.37574,-0.18273c0.03132,-0.01522 0.05374,-0.04708 0.09178,-0.08654c-0.06233,-0.11642 -0.14032,-0.22523 -0.23398,-0.32642c-0.15386,-0.17673 -0.26743,-0.35206 -0.42124,-0.52879c-0.36109,-0.45324 -0.59026,-0.99167 -0.90437,-1.46774c-0.15816,-0.25847 -0.34756,-0.50174 -0.47441,-0.77544c-0.26474,-0.60495 -0.60772,-1.17179 -0.80981,-1.80715c-0.04884,-0.16492 -0.10659,-0.34642 -0.15542,-0.51136c0.05834,-0.11222 -0.04427,-0.23002 -0.05746,-0.32842c-0.00645,-0.12262 -0.01293,-0.24527 -0.12656,-0.42056c-0.14121,0.21538 -0.37147,0.26448 -0.52372,0.42235c0.02886,0.09078 -0.02943,0.20296 0.06421,0.30417zM278.24397,203.39251c-0.06389,-0.45105 -0.1017,-0.55842 -0.24877,-0.75942c-0.17897,0.108 -0.3423,0.20839 -0.5213,0.31637c-0.10958,0.05329 -0.15229,0.15786 -0.14582,0.28053c0.00431,0.08179 0.04883,0.16489 0.05314,0.24666c0.02395,0.30277 0.12842,0.60834 0.28655,0.86682c-0.0159,0.15449 0.05527,0.28752 0.12654,0.4206c0.38508,0.75601 0.74564,1.50303 1.20898,2.22097c0.20942,0.31742 0.43451,0.62723 0.66634,0.91272c0.19623,0.21906 0.40134,0.45467 0.6961,0.56288c0.20355,-0.099 0.40704,-0.19799 0.61062,-0.29695c-0.10253,-0.11782 -0.1962,-0.21905 -0.2809,-0.30358c-0.37459,-0.40478 -0.71789,-0.82475 -0.99858,-1.2752c-0.36754,-0.57588 -0.65684,-1.18985 -0.96178,-1.79617c-0.1514,-0.28275 -0.19996,-0.59451 -0.367,-0.86964c0.02943,-0.20296 -0.04395,-0.37689 -0.1241,-0.52657zM261.92206,213.92851c0.03073,0.27852 0.13973,0.51897 0.28007,0.74417c-0.00676,0.02422 -0.00458,0.06513 0.00432,0.08178c0.22939,0.39155 0.49006,0.76784 0.82691,1.06521c0.19408,0.17817 0.37246,0.36389 0.63372,0.44645c0.8768,-0.42636 1.75356,-0.85272 2.67737,-1.30188c-0.38592,-0.3154 -0.67803,-0.6765 -0.95432,-1.04516c-0.24966,-0.31882 -0.38077,-0.67427 -0.59912,-1.0083c-0.07124,-0.13303 -0.11794,-0.25707 -0.1892,-0.39012c-0.02857,-0.23762 -0.09738,-0.47668 -0.21528,-0.73375c-0.46972,0.22841 -0.83686,0.57465 -1.25745,0.82109c-0.42734,0.27067 -0.84578,0.55801 -1.25744,0.82107c-0.02945,0.20296 0.01045,0.35126 0.05043,0.49953zM264.84644,211.98244c-0.0159,0.1545 0.03964,0.29516 0.1109,0.42817c0.00858,0.16351 0.10442,0.30561 0.16889,0.46287c0.23372,0.4733 0.54568,0.90852 0.88006,1.31186c0.2051,0.23564 0.44156,0.45604 0.7228,0.61274c0.06265,-0.03044 0.13415,-0.04427 0.19677,-0.07476c0.76725,-0.37304 1.51871,-0.73846 2.29483,-1.09493c0.82306,-0.37927 1.63047,-0.75093 2.45354,-1.13019c1.19884,-0.56202 2.39092,-1.09972 3.58976,-1.66175c1.34865,-0.61387 2.65494,-1.27006 4.0214,-1.85066c0.2281,-0.08995 0.45402,-0.22082 0.6889,-0.33499c-0.16058,-0.15247 -0.34356,-0.27309 -0.47284,-0.44082c-0.45261,-0.51356 -0.82016,-1.08945 -1.15644,-1.68054c-0.28497,-0.53219 -0.55428,-1.07199 -0.82359,-1.61183c-0.08446,-0.23145 -0.17566,-0.43861 -0.26011,-0.67006c0.02272,-0.17872 -0.08877,-0.31318 -0.12871,-0.46146c-0.04884,-0.16492 -0.05744,-0.32841 -0.16216,-0.48711c-0.17438,0.04287 -0.28185,0.13706 -0.38252,0.20697c-0.82582,0.63215 -1.73852,1.13885 -2.59103,1.72108c-0.55045,0.37249 -1.10089,0.74493 -1.64238,1.13406c-0.73618,0.5047 -1.44776,1.01841 -2.16826,1.51551c-0.58847,0.41195 -1.17701,0.82388 -1.77443,1.21918c-0.63549,0.43476 -1.26421,0.84528 -1.90861,1.26345c-0.58175,0.38769 -1.17914,0.78303 -1.76765,1.19496c0.06448,0.15726 0.02398,0.30276 0.11087,0.42819zM288.80118,207.33515c-0.3368,-0.29735 -0.58648,-0.61618 -0.85177,-0.92735c-0.27421,-0.32783 -0.55518,-0.63136 -0.81371,-0.96681c-0.24965,-0.31882 -0.47687,-0.6695 -0.71085,-0.99591c-0.2429,-0.34308 -0.4858,-0.6861 -0.72194,-1.05337c-0.2183,-0.33402 -0.42986,-0.69232 -0.64821,-1.02636c-0.21156,-0.35825 -0.36055,-0.74699 -0.63475,-1.0748c-0.09308,-0.3949 -0.35161,-0.73037 -0.52301,-1.08724c-0.16458,-0.3811 -0.36946,-0.76364 -0.53405,-1.14474c-0.15568,-0.36448 -0.30462,-0.75322 -0.44468,-1.1253c-0.14893,-0.38875 -0.22633,-0.7913 -0.42227,-1.15715c-0.39358,0.14946 -0.50318,0.20273 -0.71376,0.47283c0.02857,0.23762 0.05715,0.4753 0.13486,0.73094c0.10442,0.30558 0.20882,0.61113 0.30649,0.94097c0.19317,0.61875 0.39316,1.21327 0.70482,1.79536c0.21374,0.39916 0.44313,0.79069 0.59421,1.22031c0.02886,0.09078 0.0823,0.19056 0.16703,0.2751c0.15385,0.17671 0.25394,0.40056 0.36082,0.60011c0.39184,0.73178 0.87761,1.41788 1.37017,2.07972c0.63288,0.88709 1.35753,1.6876 2.12918,2.46524c0.14494,0.16009 0.28985,0.32019 0.502,0.38468c0.25267,-0.08092 0.47864,-0.21178 0.74937,-0.40629zM287.06653,199.71023c-0.27479,-0.03405 -0.51397,-0.00161 -0.76201,0.01422c-0.21675,0.00057 -0.41355,0.07532 -0.56581,0.23321c-0.30667,0.27488 -0.65572,0.50753 -1.04041,0.6736c-0.03132,0.01522 -0.0694,0.05467 -0.08504,0.06229c-0.00244,0.10597 0.03321,0.1725 0.12469,0.23285c0.02453,0.00902 0.0648,0.01042 0.08045,0.0028c0.48079,-0.17091 0.97934,-0.30852 1.49575,-0.4129c0.07153,-0.0138 0.17438,-0.04286 0.2192,-0.10659c0.2149,-0.18834 0.42977,-0.37668 0.5332,-0.69951zM284.16804,199.86196c0.44945,-0.15569 0.90106,-0.27046 1.34593,-0.36098c0.14303,-0.02766 0.24376,-0.09756 0.34229,-0.20838c0.14333,-0.17452 0.23759,-0.36709 0.3475,-0.56725c0.04481,-0.06373 0.10527,-0.13502 0.02052,-0.2196c-0.31071,0.04627 -0.61466,0.06831 -0.90753,0.14782c-0.5062,0.6025 -0.50619,0.60246 -1.2488,0.98455c-0.02027,0.07273 -0.00028,0.14689 0.1001,0.22382zM284.80872,204.7069c-0.31745,0.07051 -0.62602,0.15767 -0.93457,0.24483c-0.07155,0.0138 -0.14306,0.02765 -0.19678,0.07472c-0.18818,0.23821 -0.38523,0.45986 -0.48194,0.75839c0.29474,0.10822 0.55631,0.0439 0.82895,0.03709c0.13629,-0.00339 0.22133,-0.06573 0.30422,-0.16891c0.17926,-0.25485 0.37636,-0.47648 0.59799,-0.68901c0.01567,-0.00762 0.01354,-0.04845 0.02701,-0.09694c-0.04237,-0.04228 -0.09369,-0.10124 -0.14495,-0.16011zM288.89456,203.01349c-0.36628,-0.09439 -0.65459,-0.07997 -0.95176,-0.08217c-0.11177,0.01241 -0.18111,0.06711 -0.2505,0.1218c-0.32232,0.28253 -0.67143,0.51512 -1.07173,0.68883c-0.04697,0.02282 -0.08505,0.06228 -0.132,0.08515c0.08232,0.19056 0.11577,0.21621 0.24102,0.1553c0.40711,-0.19798 0.84306,-0.30513 1.2922,-0.31394c0.27263,-0.00679 0.45161,-0.11479 0.61067,-0.29693c0.074,-0.11983 0.14124,-0.21539 0.26216,-0.35805zM285.20321,201.83203c0.04454,0.08314 0.11609,0.06929 0.17872,0.03885c0.43839,-0.21315 0.93235,-0.2857 1.42637,-0.35819c0.39787,-0.06771 0.72238,-0.30935 0.93324,-0.7263c-0.20325,-0.04789 -0.36875,0.01162 -0.55417,-0.00302c-0.38654,-0.02165 -0.68402,0.12302 -0.96154,0.3418c-0.30883,0.23402 -0.6088,0.48467 -0.97104,0.61893c-0.03803,0.03948 -0.04485,0.06373 -0.05159,0.08798zM288.25558,201.85702c-0.24132,-0.00844 -0.41111,-0.03071 -0.57196,-0.0363c-0.26588,-0.01741 -0.46267,0.0573 -0.64626,0.23039c-0.24405,0.24445 -0.53937,0.42998 -0.84358,0.59887c-0.10071,0.06993 -0.22594,0.13083 -0.33553,0.18412c0.02886,0.09078 0.08472,0.08456 0.11604,0.06933c0.49857,-0.13766 1.00605,-0.25863 1.53351,-0.30549c0.08719,-0.02143 0.15871,-0.03526 0.22809,-0.08995c0.17467,-0.18974 0.35825,-0.36286 0.5197,-0.65097zM285.52631,205.67853c-0.26187,0.2112 -0.5704,0.29832 -0.87006,0.40211c-0.07828,0.03806 -0.16763,0.01862 -0.22809,0.08994c-0.09856,0.11084 -0.2422,0.43221 -0.28516,0.68367c0.21894,0.04031 0.4246,-0.01781 0.63249,-0.03502c0.16765,-0.01863 0.28398,-0.09616 0.3647,-0.24022c0.14796,-0.2396 0.31373,-0.44601 0.53754,-0.61773c0.01568,-0.0076 0.02914,-0.0561 0.03589,-0.08032c-0.01997,-0.07416 -0.05558,-0.14068 -0.18732,-0.20238zM281.44733,200.49321c-0.16574,0.20639 -0.44086,0.31916 -0.56425,0.56783c0.07799,0.1088 0.183,0.12065 0.28126,0.15671c0.18762,0.0555 0.35275,0.14286 0.56952,0.14229c0.22842,-0.23681 0.55934,-0.35585 0.8123,-0.58366c0.00244,-0.10597 -0.04205,-0.18915 -0.11793,-0.25708c-0.3196,0.02966 -0.64139,0.01842 -0.98093,-0.02607zM283.60807,202.79638c-0.17438,0.04287 -0.34874,0.08574 -0.50287,0.05587c-0.37302,-0.07017 -0.6303,0.07595 -0.82521,0.33842c-0.06723,0.09554 -0.16119,0.14123 -0.20172,0.28672c0.24565,0.09017 0.48022,0.12286 0.71477,0.15547c0.0648,0.01042 0.12739,-0.02004 0.19676,-0.07473c0.19923,-0.18075 0.39171,-0.33721 0.59094,-0.51793c0.04699,-0.02281 0.0918,-0.08657 0.02729,-0.24387zM283.04699,201.7486c-0.38007,0.10097 -0.74664,0.15344 -1.11294,0.05906c-0.07368,-0.02703 -0.1274,0.02004 -0.19002,0.05049c-0.13201,0.08516 -0.25514,0.18696 -0.34259,0.35525c0.34389,0.12626 0.64325,0.16932 0.95824,0.2048c0.105,0.01183 0.19219,-0.00958 0.27722,-0.07191c0.15444,-0.11696 0.31775,-0.2174 0.47216,-0.33441c0.01568,-0.0076 0.02916,-0.05612 0.03589,-0.08036c-0.02671,-0.04989 -0.05343,-0.09979 -0.09797,-0.1829zM288.80421,204.65057c0.12093,-0.14265 0.25758,-0.29291 0.37854,-0.43557c0.00676,-0.02422 0.01351,-0.04851 0.02701,-0.09696c-0.23886,-0.11444 -0.48022,-0.12286 -0.68803,-0.10566c-0.42304,0.35245 -0.81473,0.68966 -1.34707,0.94852c0.37519,0.11102 0.56333,-0.12725 0.7936,-0.17631c0.27721,-0.07191 0.55659,-0.10298 0.83597,-0.13403zM287.31762,199.29462c0.09882,-0.25766 0.21545,-0.48211 0.20039,-0.76823c-0.14521,-0.01326 -0.26803,-0.05832 -0.38872,-0.06248c-0.12065,-0.00419 -0.25021,-0.02505 -0.3598,0.02826c-0.11417,0.11841 -0.1458,0.28052 -0.21085,0.41696c-0.06504,0.13645 -0.16362,0.24726 -0.17066,0.41836c0.31286,-0.00543 0.60113,-0.0198 0.92965,-0.0328zM283.56676,198.8128c0.50531,-0.16187 0.92347,-0.30236 1.34159,-0.44277c0.03132,-0.01522 0.08722,-0.02141 0.1007,-0.06992c0.10988,-0.20015 0.2689,-0.38231 0.26274,-0.65179c-0.25483,0.04005 -0.494,0.07253 -0.72427,0.12162c-0.24435,0.39132 -0.57341,0.69805 -0.98079,1.04289zM282.65038,204.58264c0.18976,0.0964 0.36412,0.05352 0.52501,0.05914c0.18546,0.01463 0.34416,-0.02061 0.48075,-0.17088c0.19032,-0.19735 0.38066,-0.39472 0.649,-0.48329c-0.03103,-0.13168 -0.08232,-0.19056 -0.17624,-0.14488c-0.24373,0.09759 -0.50318,0.20274 -0.76014,0.20193c-0.36875,0.01161 -0.53239,0.25887 -0.71838,0.53799zM282.11323,202.76868c-0.38194,-0.08678 -0.68345,-0.17072 -0.97601,-0.23807c-0.10958,0.05329 -0.14554,0.13364 -0.19031,0.19734c-0.0359,0.08034 -0.11201,0.15926 -0.08102,0.29088c0.22324,0.12205 0.46883,0.21221 0.72119,0.27818c0.1768,-0.14885 0.32907,-0.30675 0.52617,-0.52835zM282.74415,205.75279c0.15471,-0.26386 0.28698,-0.49591 0.43495,-0.73551c-0.26588,-0.01743 -0.51614,-0.04249 -0.76634,-0.06755c-0.14121,0.21538 -0.28458,0.38991 -0.31856,0.65798c0.22103,0.08117 0.43106,0.1048 0.64997,0.14509zM288.24615,199.8493c-0.2008,-0.15389 -0.43106,-0.10482 -0.64105,-0.12849c-0.0648,-0.01042 -0.13417,0.04427 -0.16332,0.10039c-0.10316,0.17593 -0.19953,0.3276 -0.28703,0.49588c-0.01567,0.00762 0.00217,0.04089 0.01997,0.07416c0.28155,0.00986 0.56981,-0.00462 0.85136,0.00523c0.11204,-0.15925 0.16605,-0.35324 0.22007,-0.5472zM289.12329,202.62989c0.13658,-0.15028 0.25755,-0.29291 0.26923,-0.52915c-0.21218,-0.06452 -0.44213,-0.16232 -0.67456,-0.15412c-0.08289,0.10316 -0.18358,0.17312 -0.24188,0.28531c-0.06725,0.09553 -0.20142,0.13982 -0.16821,0.31235c0.27477,0.03408 0.54955,0.06813 0.81549,0.0856zM283.07172,206.18032c-0.10528,0.13504 -0.10341,0.3228 -0.11722,0.51814c0.25914,0.04172 0.4891,0.13947 0.74392,0.09944c0.054,-0.19397 0.1817,-0.36087 0.209,-0.60472c-0.28155,-0.00986 -0.55416,-0.00305 -0.83569,-0.01285zM286.32894,206.58784c-0.29074,0.1204 -0.56148,0.315 -0.87006,0.40211c-0.25267,0.08096 -0.31553,0.25827 -0.33396,0.51874c0.23453,0.03266 0.42461,-0.0178 0.63919,-0.0593c0.13471,-0.33801 0.38769,-0.56587 0.5648,-0.86158zM283.28728,197.77488c0.05127,0.05892 0.09824,0.03605 0.1452,0.01325c0.21243,-0.08234 0.43165,-0.18893 0.653,-0.25464c0.33309,-0.07815 0.40061,-0.3206 0.45708,-0.62056c-0.12744,0.02004 -0.22348,0.02485 -0.31067,0.04629c-0.2146,0.04149 -0.39571,0.10858 -0.48782,0.34202c-0.06504,0.13645 -0.1882,0.23823 -0.29561,0.33244c-0.07155,0.0138 -0.16762,0.01865 -0.16117,0.14123zM280.66192,199.91094c0.10712,0.0527 0.19651,0.07215 0.27019,0.09919c0.21428,0.10542 0.38196,0.08678 0.55202,-0.03785c0.13876,-0.10937 0.31992,-0.17649 0.46757,-0.26927c0.04699,-0.02282 0.10285,-0.02904 0.05617,-0.15309c-0.26373,0.0234 -0.5453,0.01361 -0.82898,-0.0371c-0.0648,-0.01042 -0.14303,0.02764 -0.20567,0.05808c-0.10744,0.09415 -0.19926,0.18074 -0.31127,0.34001zM282.18798,204.493c0.12094,-0.14264 0.26646,-0.27628 0.34503,-0.46127c-0.2613,-0.08255 -0.50013,-0.19697 -0.76602,-0.21443c-0.10314,0.17593 -0.23299,0.30193 -0.22898,0.53057c0.21218,0.06452 0.41758,0.15335 0.64998,0.14509zM287.78269,201.41611c0.26129,0.08253 0.5026,0.09096 0.72607,0.06611c0.10315,-0.17592 0.19951,-0.32758 0.26028,-0.5458c-0.16521,-0.08737 -0.33498,-0.10962 -0.5115,-0.10762c-0.15011,0.19875 -0.30912,0.3809 -0.4749,0.58725zM280.67519,203.36307c-0.05618,0.1531 -0.10773,0.24102 -0.1258,0.35466c-0.02026,0.07274 -0.02486,0.13785 -0.02943,0.20299c0.16732,0.12823 0.35709,0.22464 0.56708,0.24829c0.11204,-0.15925 0.22405,-0.31856 0.24461,-0.53819c-0.22103,-0.08117 -0.41082,-0.17753 -0.65643,-0.26772zM281.73237,198.7406c-0.28587,-0.09156 -0.48232,-0.16371 -0.71905,-0.23727c-0.07153,0.0138 -0.17221,0.08372 -0.23944,0.17933c-0.07612,0.07894 -0.20354,0.09898 -0.2284,0.23684c0.12713,0.12684 0.25885,0.18854 0.41297,0.21842c0.24162,-0.13845 0.47649,-0.25263 0.77394,-0.39727zM287.91567,198.60558c-0.03375,0.12126 -0.06753,0.24246 -0.10131,0.36365c-0.03375,0.12126 -0.05183,0.23486 -0.0856,0.35605c0.23452,0.03267 0.42216,0.08818 0.61219,0.03771c0.06721,-0.09555 0.0451,-0.21057 0.04759,-0.31655c0.00244,-0.10597 0.05183,-0.23485 -0.02613,-0.34363c-0.16307,-0.0465 -0.29476,-0.10821 -0.44673,-0.09719zM281.67662,205.4544c0.08531,-0.20918 0.22872,-0.38371 0.24706,-0.64423c-0.1876,-0.05548 -0.3663,-0.09438 -0.55389,-0.1499c-0.08531,0.20918 -0.17282,0.37749 -0.14423,0.61514c0.14063,0.07835 0.24994,0.17193 0.45104,0.17896zM285.55676,198.18051c0.33526,-0.03723 0.6303,-0.0759 0.92528,-0.11456c0.05834,-0.11222 0.12559,-0.20778 0.09454,-0.33942c-0.27021,-0.0992 -0.53389,-0.07576 -0.80653,-0.06895c-0.05834,0.11222 -0.11665,0.22439 -0.1504,0.34562c-0.05375,0.04708 -0.05156,0.08796 -0.06293,0.1773zM280.90567,202.09821c0.11879,-0.18356 0.3067,-0.2749 0.36069,-0.46888c-0.25453,-0.10679 -0.4845,-0.20459 -0.74367,-0.24628c-0.04726,0.16974 -0.20383,0.24582 -0.20873,0.45784c0.16731,0.12822 0.36172,0.15951 0.59168,0.25732zM289.82149,203.23354c-0.15628,-0.07074 -0.31931,-0.1172 -0.48021,-0.12282c-0.13444,0.19117 -0.2778,0.36566 -0.44355,0.57204c0.22564,0.01603 0.40434,0.05491 0.63216,0.11186c0.13445,-0.19116 0.26217,-0.35805 0.29161,-0.56105zM280.36199,200.16161c-0.16794,0.1655 -0.31343,0.29916 -0.34966,0.52636c0.14955,0.09497 0.27446,0.18096 0.43537,0.18658c0.15226,-0.15787 0.3134,-0.29912 0.48808,-0.48888c-0.18976,-0.0964 -0.3706,-0.17613 -0.57384,-0.22403zM288.94876,201.60375c0.25021,0.02505 0.44216,0.16232 0.63221,0.11183c0.10315,-0.17592 0.12584,-0.35466 0.12396,-0.54242c-0.18084,-0.07975 -0.34603,-0.16714 -0.54497,-0.1333c-0.06292,0.17731 -0.13472,0.33802 -0.21115,0.56383zM282.53914,206.5861c0.04726,-0.16973 0.11232,-0.30616 0.0948,-0.48631c-0.23453,-0.03266 -0.44213,-0.16234 -0.68131,-0.12988c-0.05618,0.1531 -0.06537,0.28334 -0.00087,0.44065c0.1965,0.07214 0.39973,0.12005 0.58735,0.17552zM285.42897,197.27846c0.07182,-0.16071 0.08989,-0.27426 0.07458,-0.41356c-0.18762,-0.0555 -0.39761,-0.07917 -0.58546,0.01221c-0.04052,0.14548 -0.08099,0.29089 -0.13719,0.44402c0.24346,0.04932 0.44024,-0.02543 0.6481,-0.04266zM285.64429,208.22051c0.02486,-0.13782 0.04296,-0.25148 0.00519,-0.35885c-0.20996,-0.02366 -0.4022,-0.01401 -0.59224,0.03646c-0.04944,0.1288 -0.0675,0.24243 -0.03648,0.37409c0.21894,0.04031 0.41569,-0.03445 0.62353,-0.05169zM280.4856,204.33567c-0.13444,0.19114 -0.07887,0.33179 0.01694,0.47387c0.06231,0.11642 0.15599,0.21761 0.30796,0.2066c0.07182,-0.16071 0.12801,-0.31376 0.12616,-0.50151c-0.15628,-0.07074 -0.30365,-0.12484 -0.45103,-0.17896zM289.20709,205.43978c0.11418,-0.11841 0.23942,-0.17931 0.25538,-0.33379c-0.44427,-0.20318 -0.69725,0.02459 -0.93696,0.3508c0.23241,-0.0082 0.44919,-0.00879 0.68157,-0.01699zM280.01747,202.61391c0.14276,0.11925 0.27449,0.18093 0.46885,0.21222c0.0159,-0.15449 0.1636,-0.24727 0.15497,-0.41075c-0.06909,-0.09221 -0.14951,-0.09499 -0.2321,-0.13868c-0.09822,-0.03606 -0.17407,-0.10399 -0.2837,-0.0507c-0.05834,0.11222 -0.11665,0.22444 -0.10803,0.38793zM285.47065,202.18405c0.00401,0.2286 0.08875,0.31319 0.23856,0.26129c0.21244,-0.08231 0.40708,-0.19793 0.58605,-0.30594c0.06262,-0.03041 0.13199,-0.08518 0.10988,-0.20017c-0.32634,0.05389 -0.63488,0.14103 -0.93451,0.24481zM283.01543,207.54927c-0.07614,0.07893 -0.08749,0.1683 -0.04971,0.27573c0.22999,0.0978 0.46209,0.23649 0.73472,0.22967c-0.01292,-0.24526 -0.12439,-0.37976 -0.34329,-0.42001c-0.09825,-0.03605 -0.19868,-0.11303 -0.34173,-0.08539zM286.82055,204.33649c0.12466,0.23282 0.18276,0.26747 0.32362,0.19898c0.21028,-0.12322 0.43625,-0.25404 0.61092,-0.44379c-0.35307,0.00399 -0.68159,0.01699 -0.93455,0.24481zM286.56612,207.58354c-0.13415,0.04426 -0.24376,0.09762 -0.36223,0.13422c-0.22813,0.08992 -0.2281,0.08996 -0.14612,0.4274c0.12744,-0.02004 0.27941,-0.03105 0.3509,-0.04489c0.05404,-0.19397 0.11017,-0.34703 0.15743,-0.51676zM289.75365,200.26917c-0.13171,-0.06174 -0.2432,-0.19616 -0.41543,-0.11243c-0.02487,0.13785 -0.02515,0.28473 -0.05676,0.44683c0.15628,0.07074 0.30579,0.16575 0.45777,0.15471c0.01591,-0.1545 0.05647,-0.29997 0.0144,-0.48913zM284.78594,207.17045c-0.24805,0.01587 -0.50505,0.01501 -0.7531,0.03085c-0.06043,0.07132 -0.09639,0.15164 -0.01165,0.2362c0.22103,0.08117 0.45564,0.11384 0.6859,0.06476c0.05834,-0.11222 0.08531,-0.20917 0.07884,-0.33183zM289.90291,203.86477c0.07799,0.1088 0.18516,0.16154 0.31472,0.18235c0.04483,-0.06372 0.08963,-0.12744 0.13444,-0.19116c0.05159,-0.08793 0.11203,-0.15929 0.0899,-0.2743c-0.05343,-0.09979 -0.12923,-0.16771 -0.24317,-0.19616c-0.09638,0.1517 -0.1995,0.32762 -0.29591,0.47924zM288.46173,200.4362c0.15628,0.07074 0.30152,0.08397 0.45347,0.07297c0.02272,-0.17872 0.05429,-0.34082 0.07024,-0.49529c-0.11824,-0.1102 -0.24779,-0.13105 -0.35065,-0.10201c-0.06292,0.17731 -0.12582,0.35464 -0.17313,0.52437zM289.77375,204.76595c0.06721,-0.09555 0.13443,-0.19113 0.1928,-0.30335c0.00676,-0.02422 -0.01109,-0.05753 -0.01323,-0.09842c-0.08258,-0.04372 -0.16732,-0.12823 -0.3193,-0.11722c-0.09855,0.11085 -0.23726,0.22022 -0.3002,0.39755c0.14952,0.09495 0.27908,0.11577 0.43997,0.12141zM288.89932,206.30227c0.18112,-0.06711 0.31042,0.10059 0.46697,0.02446c0.0896,-0.1274 0.22166,-0.21255 0.27564,-0.40653c-0.14063,-0.07835 -0.27238,-0.14007 -0.38653,-0.02164c-0.11419,0.11842 -0.26398,0.1703 -0.35609,0.40372zM284.18955,208.19415c0.1452,0.01323 0.29936,0.04308 0.42889,0.06393c0.02456,0.00903 0.04698,-0.02284 0.07827,-0.03808c-0.01322,-0.09839 0.02058,-0.2196 -0.10659,-0.34642c-0.16977,-0.02221 -0.35523,-0.03691 -0.54958,-0.06814c-0.0003,0.14686 0.03748,0.25429 0.14892,0.38876zM289.00872,199.54137c0.04053,-0.14547 0.09669,-0.29856 0.13042,-0.41976c-0.12713,-0.12684 -0.25882,-0.1886 -0.38165,-0.23366c-0.10071,0.06995 -0.054,0.19394 -0.06537,0.28334c-0.01133,0.0894 -0.03833,0.18634 0.03967,0.29517c0.06694,0.0513 0.14953,0.09498 0.27697,0.07495zM279.79503,200.98226c-0.06504,0.13645 -0.10774,0.24106 -0.15039,0.34564c-0.02242,0.03184 -0.01136,0.08939 -0.0181,0.11364c0.06231,0.11642 0.16949,0.16913 0.29906,0.18994c0.08073,-0.14406 0.17036,-0.27152 0.21767,-0.44117c-0.10042,-0.07692 -0.20758,-0.12967 -0.34819,-0.208zM286.82222,208.02491c0.2392,-0.03242 0.47832,-0.06489 0.67081,-0.22136c-0.12712,-0.12683 -0.21404,-0.2523 -0.3838,-0.27454c-0.22166,0.21257 -0.22165,0.21256 -0.287,0.49589zM279.94963,203.00317c-0.14612,0.42741 -0.13719,0.444 0.17972,0.66723c0.05618,-0.1531 0.08776,-0.31516 0.14397,-0.46825c-0.07799,-0.1088 -0.18514,-0.16148 -0.32361,-0.199zM290.00996,202.84852c0.08073,-0.14406 0.13014,-0.27292 0.12154,-0.43642c-0.03348,-0.02564 -0.0915,-0.06034 -0.14953,-0.09501c-0.04914,-0.01802 -0.11393,-0.02847 -0.16301,-0.04648c-0.08071,0.14407 -0.186,0.27915 -0.19305,0.45025c0.1004,0.07693 0.23886,0.11445 0.38409,0.12763zM279.99657,199.62658c0.05804,0.03464 0.14064,0.07833 0.19652,0.07215c0.19897,-0.03386 0.33765,-0.14325 0.44758,-0.34343c-0.11606,-0.06936 -0.21861,-0.18714 -0.33929,-0.19135c-0.12094,0.14264 -0.28427,0.24303 -0.30481,0.46264zM286.64442,197.33718c0.00676,-0.02422 0.0135,-0.0485 0.027,-0.09696c-0.24105,-0.15529 -0.50232,-0.23787 -0.76358,-0.3204c-0.08286,0.10318 -0.09423,0.19253 -0.03866,0.3332c0.25021,0.02505 0.50932,0.06672 0.77525,0.08418zM286.93919,203.08395c-0.28829,0.01442 -0.56979,0.00463 -0.82706,0.15067c-0.01568,0.0076 -0.01132,0.08934 0.00647,0.1226c0.04454,0.08314 0.14278,0.11922 0.22103,0.08112c0.23026,-0.04907 0.416,-0.18133 0.59955,-0.3544zM290.26407,202.03317c0.04944,-0.12882 0.09884,-0.25768 0.09914,-0.40455c-0.06233,-0.11642 -0.13817,-0.18435 -0.29228,-0.21422c-0.0316,0.16211 -0.07889,0.33182 -0.09483,0.48629c0.08471,0.08453 0.16732,0.12822 0.28799,0.13245zM281.05281,205.65294c0.10903,0.24043 0.20018,0.44765 0.41665,0.59392c0.11418,-0.11841 0.11451,-0.26528 0.09023,-0.42118c-0.16518,-0.08735 -0.3058,-0.16572 -0.50692,-0.17273zM280.907,198.01004c0.17411,0.104 0.19861,0.11304 0.24562,0.0902c0.16548,-0.05948 0.26188,-0.21118 0.34258,-0.35524c0.02915,-0.05608 0.00025,-0.14688 -0.12039,-0.15109c-0.08749,0.1683 -0.32669,0.20076 -0.46784,0.41616zM286.89101,198.05571c0.25914,0.04172 0.51153,0.10763 0.78658,-0.0052c-0.23426,-0.17951 -0.48452,-0.2046 -0.70339,-0.24485c-0.06939,0.05467 -0.07395,0.11978 -0.08314,0.25004zM279.76628,201.96048c-0.0915,-0.06031 -0.16735,-0.12824 -0.25884,-0.18854c-0.09641,0.15169 -0.15256,0.30477 -0.00762,0.46486c0.04237,0.0423 0.08474,0.08454 0.15628,0.07074c0.07611,-0.07892 0.09424,-0.19257 0.11017,-0.34704zM287.57378,205.37465c0.08017,0.14968 0.14706,0.20098 0.26341,0.12345c0.10073,-0.06993 0.2014,-0.13988 0.29319,-0.22644c0.03804,-0.03947 0.06722,-0.09558 0.01595,-0.15449c-0.2146,0.04148 -0.38681,0.12522 -0.57254,0.25747zM284.50285,198.90257c-0.2392,0.03242 -0.46052,0.09819 -0.63734,0.24704c-0.01567,0.00762 -0.01131,0.08937 -0.00244,0.10598c0.01779,0.03324 0.08258,0.0437 0.11391,0.02846c0.19464,-0.11559 0.40036,-0.17371 0.52592,-0.38151zM283.54308,198.36319c0.12986,-0.12602 0.3021,-0.20979 0.42092,-0.3933c-0.24806,0.01583 -0.43811,0.06633 -0.50532,0.16189c-0.07611,0.07892 -0.04052,0.14547 0.08444,0.23141zM282.10452,207.17478c0.15386,0.17673 0.27855,0.40959 0.52876,0.43462c-0.03505,-0.36025 -0.28526,-0.38529 -0.52876,-0.43462zM284.82933,205.55627c0.0178,0.03323 0.04242,0.04232 0.0602,0.07555c0.14763,-0.09276 0.32418,-0.09477 0.42057,-0.24645c-0.03775,-0.1074 -0.08016,-0.14968 -0.18515,-0.1615c-0.08286,0.10318 -0.18141,0.21399 -0.29562,0.33244zM285.57125,201.04519c-0.24591,0.0567 -0.43595,0.10719 -0.61494,0.21518c-0.03132,0.01522 -0.04482,0.06369 -0.0181,0.11359c0.00892,0.01665 0.04237,0.04228 0.06696,0.0513c0.2392,-0.03242 0.42704,-0.1238 0.56609,-0.38007zM279.96008,200.00064c-0.08474,-0.08452 -0.14274,-0.11923 -0.17194,-0.06311c-0.08286,0.10318 -0.15685,0.223 -0.23084,0.34283c-0.03591,0.08034 -0.00921,0.13022 0.08014,0.14967c0.14552,-0.13363 0.25972,-0.25207 0.32263,-0.42937zM290.12089,200.99188c0.08258,0.04372 0.14953,0.09497 0.23212,0.13868c0.02456,0.00903 0.05588,-0.00622 0.11177,-0.01241c-0.10684,-0.19956 -0.15785,-0.40533 -0.33626,-0.59111c-0.0316,0.16211 -0.0497,0.27572 -0.00762,0.46486zM282.72643,201.14985c-0.14766,0.09275 -0.2797,0.17794 -0.45866,0.28592c0.24564,0.09016 0.41324,0.07156 0.56088,-0.02121c0.00245,-0.10599 -0.0086,-0.16351 -0.10224,-0.26472zM285.9141,206.18163c-0.074,0.11983 -0.26399,0.17028 -0.25998,0.39892c0.40249,-0.13285 0.48073,-0.17089 0.46754,-0.26931c-0.04454,-0.08314 -0.10258,-0.11782 -0.20757,-0.12965zM285.00557,200.06254c-0.3417,-0.0854 -0.52956,0.006 -0.72883,0.18671c0.31258,0.14147 0.46047,-0.09818 0.72883,-0.18671zM288.80408,205.86643c-0.31714,-0.07636 -0.4894,0.0074 -0.65946,0.13203c-0.01567,0.00762 -0.01348,0.04849 0.0043,0.08175c0.0267,0.0499 0.07584,0.06791 0.10715,0.05269c0.16546,-0.05947 0.31313,-0.15224 0.54798,-0.26646zM286.57647,206.86582c-0.11418,0.11841 -0.26187,0.2112 -0.28239,0.43075c0.18329,-0.02625 0.31529,-0.11142 0.43164,-0.18893c-0.00645,-0.12262 -0.05773,-0.18152 -0.14926,-0.24183zM289.82119,205.66528c0.07857,-0.18495 0.2508,-0.26869 0.22439,-0.46546c-0.24591,0.0567 -0.24591,0.05671 -0.36715,0.34622c0.03348,0.02564 0.06694,0.05131 0.14276,0.11924zM282.97186,207.02555c0.17166,0.20999 0.37489,0.2579 0.5849,0.28155c0.06721,-0.09555 0.03161,-0.16213 -0.04205,-0.18915c-0.16978,-0.02221 -0.34849,-0.06112 -0.54281,-0.09236zM290.34712,202.99899c0.06909,0.09221 0.12926,0.16772 0.24991,0.17191c0.04265,-0.10458 0.08535,-0.20919 0.04757,-0.31655c-0.06016,-0.07554 -0.11822,-0.1102 -0.19868,-0.11302c-0.06044,0.07134 -0.08072,0.14406 -0.09881,0.25767zM283.62657,203.60489c0.15196,-0.011 0.26376,-0.02343 0.33988,-0.10238c0.02242,-0.03184 0.02026,-0.07273 0.01811,-0.11362c-0.0267,-0.0499 -0.09365,-0.10122 -0.13169,-0.06176c-0.09397,0.04569 -0.20356,0.09898 -0.22626,0.27774zM289.70324,199.76961c-0.03318,-0.17254 -0.18274,-0.26751 -0.28529,-0.38531c-0.09668,0.29856 -0.07884,0.33181 0.28529,0.38531zM283.06005,197.42421c0.27048,-0.04767 0.27048,-0.04768 0.28427,-0.24305c-0.11177,0.01241 -0.23919,0.03245 -0.28427,0.24305zM284.59254,204.41374c0.01133,-0.0894 -0.01537,-0.13926 -0.05557,-0.14066c-0.16978,-0.02221 -0.20784,0.01723 -0.26861,0.23545c0.1363,-0.00338 0.23027,-0.04908 0.32422,-0.09477zM289.0528,206.6258c-0.12282,-0.04506 -0.23674,-0.07351 -0.32852,0.013c0.18947,0.24324 0.22964,0.24466 0.32852,-0.013zM283.42103,196.80854c-0.16307,-0.0465 -0.29719,-0.00225 -0.41568,0.03444c-0.06262,0.03042 -0.08288,0.1032 0.03318,0.17253c0.11849,-0.03668 0.2527,-0.08094 0.38253,-0.20695zM290.36176,204.64782c-0.17438,0.04287 -0.22597,0.13083 -0.18603,0.27913c0,0 0.03348,0.02564 0.04913,0.01803c0.10285,-0.02907 0.11205,-0.15926 0.13693,-0.29715zM283.15515,202.42967c0.08474,0.08452 0.16521,0.08737 0.21889,0.0403c0.03132,-0.01522 0.04481,-0.06373 0.04266,-0.1046c-0.00218,-0.04089 -0.06016,-0.07552 -0.09149,-0.06028c-0.05589,0.0062 -0.11849,0.03664 -0.17009,0.12461zM290.59017,202.12624c-0.07399,0.11983 -0.08534,0.20919 0.04856,0.31177c0.08071,-0.14407 0.07643,-0.22582 -0.04856,-0.31177z" fill="#000000"/><path d="M277.53709,204.91001c0.26929,0.5398 0.53863,1.07967 0.82361,1.61185c0.32061,0.59873 0.70382,1.167 1.15643,1.68055c0.14493,0.1601 0.30332,0.27172 0.47281,0.44082c-0.25054,0.12183 -0.46076,0.24505 -0.68887,0.33499c-1.3508,0.57301 -2.67275,1.23675 -4.0214,1.85063c-1.20775,0.54534 -2.39091,1.09974 -3.58975,1.66174c-0.82305,0.37928 -1.63052,0.75092 -2.45356,1.13016c-0.77612,0.35643 -1.51872,0.7385 -2.2948,1.09495c-0.06265,0.03044 -0.12527,0.06092 -0.19678,0.07473c-0.29691,-0.14907 -0.50876,-0.3605 -0.72279,-0.61274c-0.33439,-0.40338 -0.64636,-0.83859 -0.88005,-1.31186c-0.08017,-0.14968 -0.17597,-0.29174 -0.16889,-0.46287c0.11148,0.13446 0.15356,0.32358 0.32979,0.46849c0.18818,-0.2382 0.48103,-0.31777 0.72268,-0.45622c0.01567,-0.00762 0.0313,-0.01521 0.02242,-0.03183c0.3515,-0.33859 0.80556,-0.55936 1.19945,-0.85573c0.13874,-0.10938 0.2508,-0.26869 0.42515,-0.31158c0.33096,-0.11898 0.54828,-0.41334 0.87926,-0.53237c0.01567,-0.00762 0.03804,-0.03948 0.0694,-0.05468c0.27072,-0.19455 0.51698,-0.39809 0.80554,-0.55937c0.34445,-0.16751 0.58638,-0.45284 0.94862,-0.58706c0.15011,-0.19875 0.37146,-0.26443 0.58176,-0.38766c0.03132,-0.01522 0.04699,-0.02286 0.07829,-0.03806c0.24191,-0.28532 0.60631,-0.3787 0.88385,-0.59749c0.27752,-0.21879 0.62412,-0.34541 0.91055,-0.54759c0.33341,-0.22499 0.62437,-0.49229 1.0269,-0.6251c0.03132,-0.01522 0.07831,-0.03807 0.1007,-0.06993c0.11879,-0.18356 0.3334,-0.22498 0.51239,-0.33297c0.09397,-0.04569 0.21243,-0.08234 0.28857,-0.1613c0.1053,-0.13502 0.23945,-0.17932 0.38038,-0.24784c0.07829,-0.03806 0.16549,-0.05949 0.21028,-0.12321c0.15011,-0.19875 0.3871,-0.2721 0.59063,-0.37106c0.07829,-0.03806 0.16545,-0.05952 0.21029,-0.12321c0.12772,-0.16688 0.30882,-0.23404 0.48107,-0.31777c0.28186,-0.13707 0.50132,-0.39048 0.79203,-0.51091c0.05587,-0.00623 0.07613,-0.0789 0.11417,-0.11843z" fill="#87d7dc"/><path d="M277.53707,204.91004c-0.03806,0.03946 -0.05831,0.11223 -0.10529,0.13506c-0.29072,0.12042 -0.51912,0.35724 -0.79204,0.51092c-0.17222,0.08373 -0.35338,0.15087 -0.48107,0.31775c-0.04483,0.06372 -0.13201,0.08517 -0.21024,0.12324c-0.20353,0.099 -0.43167,0.18891 -0.59071,0.37104c-0.04481,0.06373 -0.14093,0.06854 -0.21029,0.12325c-0.1409,0.06853 -0.26619,0.12944 -0.38038,0.24784c-0.07611,0.07892 -0.19467,0.11562 -0.28861,0.1613c-0.17897,0.108 -0.39359,0.14948 -0.51236,0.333c-0.02242,0.03184 -0.06939,0.05469 -0.10069,0.06992c-0.38684,0.12523 -0.69353,0.40013 -1.0269,0.62512c-0.30211,0.20978 -0.64869,0.33639 -0.91058,0.54754c-0.2775,0.21879 -0.64193,0.31216 -0.88382,0.59749c-0.00676,0.02422 -0.04698,0.02284 -0.07831,0.03807c-0.20353,0.099 -0.43162,0.18894 -0.58177,0.38771c-0.3712,0.11758 -0.61307,0.40295 -0.94863,0.58704c-0.29749,0.14464 -0.53478,0.36485 -0.80556,0.55936c-0.03132,0.01522 -0.03805,0.03952 -0.06938,0.05472c-0.33096,0.11898 -0.54828,0.41334 -0.87926,0.53236c-0.18112,0.06711 -0.27753,0.21879 -0.42516,0.31157c-0.40277,0.2797 -0.84793,0.51713 -1.19944,0.85571c-0.01567,0.00762 -0.02239,0.03188 -0.02239,0.03188c-0.24161,0.13848 -0.53452,0.21798 -0.72268,0.45623c-0.16734,-0.12824 -0.19374,-0.32501 -0.32977,-0.46848c-0.07124,-0.13303 -0.14245,-0.26611 -0.11084,-0.42823c0.09397,-0.04569 0.21243,-0.08232 0.28854,-0.16128c0.26644,-0.27628 0.60419,-0.41953 0.91518,-0.6127c0.31097,-0.19315 0.57741,-0.46944 0.94858,-0.58704c0.15011,-0.19875 0.37145,-0.26449 0.58175,-0.38771c0.03132,-0.01522 0.07827,-0.03807 0.10069,-0.06994c0.09641,-0.15169 0.27075,-0.19454 0.4028,-0.2797c0.07829,-0.03806 0.15656,-0.07616 0.21028,-0.12322c0.29993,-0.25065 0.62437,-0.49232 0.98451,-0.66742c0.04699,-0.02282 0.11854,-0.03663 0.13201,-0.08515c0.11202,-0.15926 0.27749,-0.2188 0.43407,-0.29495c0.18112,-0.06711 0.27538,-0.2597 0.47215,-0.3344c0.25942,-0.10517 0.44975,-0.30255 0.68244,-0.45762c0.32665,-0.20077 0.602,-0.46041 0.96213,-0.6355c0.06265,-0.03044 0.14983,-0.05189 0.17898,-0.10801c0.08966,-0.12741 0.23941,-0.17934 0.37143,-0.26447c0.12526,-0.0609 0.2416,-0.13842 0.33344,-0.22498c0.16794,-0.1655 0.35364,-0.29776 0.57283,-0.40438c0.31988,-0.17651 0.58635,-0.45283 0.9575,-0.57044c0.03132,-0.01522 0.0694,-0.05466 0.10071,-0.06993c0.30211,-0.20978 0.59522,-0.4362 0.91515,-0.61267c0.34445,-0.16751 0.61766,-0.46805 0.97994,-0.60227c0.04699,-0.02282 0.07611,-0.07895 0.11419,-0.11842c0.18572,-0.13223 0.39602,-0.25546 0.62627,-0.30453c0.06018,0.07556 0.09581,0.14203 0.14708,0.20098c0.07771,0.2557 0.15326,0.47048 0.25339,0.6943z" fill="#b0eef2"/><path d="M288.80117,207.33517c-0.27073,0.19451 -0.49674,0.32536 -0.76721,0.37303c-0.1965,-0.07216 -0.34145,-0.23223 -0.502,-0.3847c-0.75595,-0.78527 -1.49628,-1.57817 -2.12916,-2.46524c-0.47689,-0.66948 -0.9627,-1.35557 -1.37017,-2.0797c-0.10685,-0.19957 -0.20698,-0.4234 -0.36082,-0.60017c-0.06018,-0.07556 -0.11361,-0.17535 -0.16705,-0.2751c-0.15111,-0.42962 -0.39614,-0.81353 -0.59424,-1.22031c-0.28716,-0.57309 -0.51166,-1.17661 -0.70482,-1.79535c-0.08875,-0.31318 -0.1932,-0.61877 -0.30653,-0.94095c-0.09332,-0.24805 -0.10629,-0.49331 -0.13486,-0.73097c0.21951,-0.25345 0.32017,-0.32337 0.71376,-0.47284c0.18026,0.37346 0.27334,0.76842 0.42228,1.15715c0.14003,0.37209 0.28898,0.76081 0.44468,1.1253c0.16458,0.38111 0.3538,0.77125 0.53402,1.14474c0.15568,0.36448 0.41428,0.69988 0.52302,1.08727c0.27421,0.32784 0.42313,0.71655 0.63472,1.07482c0.20266,0.34164 0.42991,0.6923 0.64825,1.02633c0.22724,0.35065 0.47012,0.6937 0.72191,1.0534c0.23398,0.32641 0.4612,0.67708 0.71089,0.99588c0.25855,0.33542 0.5395,0.639 0.81371,0.96684c0.28313,0.34444 0.53274,0.66324 0.86959,0.96062z" fill="#d1eaeb"/><path d="M277.27692,204.23997c-0.05127,-0.05891 -0.0869,-0.12545 -0.14708,-0.20095c-0.23027,0.04909 -0.43377,0.14805 -0.62628,0.30453c-0.03807,0.03946 -0.06724,0.09558 -0.1142,0.11842c-0.36225,0.13421 -0.6444,0.41816 -0.97992,0.60227c-0.32881,0.15989 -0.61307,0.40291 -0.91518,0.61267c-0.03132,0.01522 -0.06941,0.05469 -0.10069,0.06992c-0.37117,0.11758 -0.61307,0.4029 -0.95751,0.5704c-0.20353,0.099 -0.40492,0.23884 -0.57283,0.40436c-0.10741,0.09415 -0.22378,0.17171 -0.33341,0.225c-0.1409,0.06853 -0.27505,0.11279 -0.37146,0.26447c-0.02916,0.05606 -0.11637,0.07752 -0.17901,0.10797c-0.34445,0.16751 -0.63543,0.43479 -0.96209,0.63552c-0.23272,0.15506 -0.42302,0.35246 -0.68245,0.45762c-0.18112,0.06711 -0.27536,0.25967 -0.47215,0.3344c-0.16547,0.0595 -0.34661,0.12661 -0.4341,0.2949c-0.03807,0.03946 -0.08502,0.06231 -0.13198,0.08516c-0.36009,0.1751 -0.66893,0.40908 -0.98451,0.6674c-0.06939,0.05467 -0.15655,0.07615 -0.21026,0.12319c-0.1409,0.06853 -0.30637,0.12806 -0.40275,0.27972c-0.02242,0.03184 -0.06938,0.05469 -0.10068,0.06992c-0.20353,0.099 -0.43165,0.18893 -0.58176,0.3877c-0.37117,0.1176 -0.63763,0.3939 -0.94858,0.58704c-0.31097,0.19315 -0.66431,0.34401 -0.91512,0.61266c-0.07614,0.07893 -0.19465,0.11558 -0.28857,0.1613c-0.09582,-0.14209 -0.05531,-0.28753 -0.10202,-0.41156c0.61304,-0.40292 1.18593,-0.80726 1.76767,-1.19494c0.63548,-0.43477 1.2642,-0.84532 1.90855,-1.26347c0.59743,-0.39532 1.18592,-0.80726 1.77443,-1.21919c0.73618,-0.5047 1.44775,-1.01844 2.16826,-1.51552c0.55045,-0.37248 1.10091,-0.7449 1.64242,-1.13403c0.85251,-0.58226 1.75633,-1.10559 2.59101,-1.72111c0.11634,-0.07753 0.21487,-0.18834 0.38251,-0.20696c0.08017,0.14968 0.11332,0.32218 0.16217,0.48712c0.01323,0.09839 0.12468,0.23282 0.11766,0.40398z" fill="#87d7dc"/><path d="M264.75969,212.92598c0.21833,0.33402 0.36515,0.68189 0.59912,1.00827c0.27636,0.36872 0.56839,0.72976 0.95431,1.04517c-0.90811,0.44159 -1.80056,0.87556 -2.67735,1.30192c-0.27019,-0.09918 -0.44857,-0.28496 -0.63373,-0.44647c-0.34574,-0.31398 -0.58187,-0.68129 -0.82693,-1.0652c-0.00892,-0.01665 -0.01104,-0.05749 -0.00432,-0.08175c0.17408,0.104 0.27262,-0.00679 0.38007,-0.10099c0.26861,-0.23545 0.54612,-0.45424 0.86817,-0.58986c0.06265,-0.03044 0.12526,-0.06091 0.17896,-0.108c0.24406,-0.24446 0.56608,-0.38008 0.83686,-0.57465c0.15444,-0.11696 0.2618,-0.21119 0.32476,-0.38851z" fill="#61afb4"/><path d="M279.22572,202.97792c0.21774,0.62775 0.54508,1.20222 0.80983,1.80714c0.12682,0.2737 0.30066,0.52458 0.47445,0.77546c0.29848,0.48372 0.54323,1.01449 0.90435,1.46772c0.13817,0.18435 0.27633,0.36872 0.42126,0.52881c0.09366,0.10121 0.17164,0.20997 0.23399,0.32643c-0.03804,0.03947 -0.06047,0.07132 -0.09181,0.08654c-0.12525,0.06088 -0.25049,0.12183 -0.37575,0.18275c-0.0915,-0.06029 -0.15841,-0.11164 -0.23427,-0.17953c-0.50846,-0.50734 -1.02588,-1.03134 -1.3732,-1.68c-0.31846,-0.55784 -0.64577,-1.13228 -0.90161,-1.72062c-0.20916,-0.46429 -0.43394,-0.92094 -0.50892,-1.42948c0.07585,0.0679 0.08229,0.19055 0.21185,0.21137c0.19002,-0.05049 0.4203,-0.09957 0.42977,-0.37668z" fill="#61aeb3"/><path d="M278.39043,203.88715c0.18271,0.26751 0.23124,0.57927 0.36699,0.86961c0.30497,0.60635 0.60987,1.21268 0.9618,1.79616c0.28955,0.46707 0.63289,0.88708 0.99858,1.27521c0.09366,0.10121 0.1873,0.20236 0.28096,0.30356c-0.2192,0.1066 -0.40708,0.198 -0.61064,0.29694c-0.29474,-0.10822 -0.50661,-0.31964 -0.6961,-0.56287c-0.23185,-0.28552 -0.47256,-0.58769 -0.66632,-0.91271c-0.46333,-0.71796 -0.8239,-1.46498 -1.209,-2.22099c-0.07124,-0.13303 -0.1425,-0.2661 -0.12656,-0.42059c0.07829,-0.03806 0.16546,-0.05954 0.21027,-0.12322c0.12096,-0.14266 0.31775,-0.21741 0.48994,-0.30116z" fill="#61aeb3"/><path d="M264.75968,212.92598c-0.05618,0.1531 -0.1547,0.26386 -0.30237,0.35664c-0.27076,0.19453 -0.59286,0.33018 -0.83686,0.57463c-0.05374,0.04708 -0.11635,0.07757 -0.179,0.10801c-0.32879,0.1599 -0.59064,0.37105 -0.86816,0.58983c-0.09182,0.08657 -0.20598,0.205 -0.38007,0.101c-0.14924,-0.24187 -0.24261,-0.48992 -0.2801,-0.74419c0.19248,-0.15651 0.37608,-0.3296 0.61307,-0.40294c0.03132,-0.01522 0.0694,-0.05469 0.10069,-0.06994c0.28641,-0.20215 0.5885,-0.41195 0.88383,-0.59748c0.132,-0.08515 0.25728,-0.14604 0.38039,-0.24783c0.14553,-0.13361 0.3245,-0.24164 0.54125,-0.24222c0.06016,0.07554 0.09579,0.14206 0.14706,0.20097c0.06231,0.11642 0.11794,0.25711 0.18027,0.37348z" fill="#87d7dc"/><path d="M287.06653,199.7102c-0.11232,0.3062 -0.31827,0.51112 -0.53321,0.6995c-0.05373,0.04708 -0.14768,0.09278 -0.21921,0.1066c-0.52529,0.08774 -1.01497,0.242 -1.49573,0.41289c-0.01567,0.00762 -0.05587,0.00621 -0.08046,-0.0028c-0.08258,-0.04372 -0.12715,-0.12683 -0.12469,-0.23281c0.03132,-0.01522 0.05373,-0.04711 0.08504,-0.06232c0.38467,-0.16605 0.74265,-0.38207 1.04041,-0.67361c0.16118,-0.14125 0.33341,-0.225 0.56582,-0.23321c0.25696,0.00084 0.48723,-0.04828 0.76204,-0.0142z" fill="#cce5e6"/><path d="M284.16804,199.86196c-0.10042,-0.07692 -0.12037,-0.15107 -0.10011,-0.22382c0.73375,-0.3987 0.73371,-0.39872 1.24882,-0.98456c0.28401,-0.09618 0.61247,-0.10919 0.90751,-0.14781c0.09366,0.10121 0.0086,0.16346 -0.02055,0.21959c-0.10988,0.20015 -0.20412,0.39272 -0.34749,0.56723c-0.09856,0.11084 -0.19926,0.18072 -0.34228,0.20836c-0.44489,0.09055 -0.89646,0.20533 -1.34591,0.36098z" fill="#cce5e6"/><path d="M264.57053,212.53588c-0.05127,-0.05892 -0.08692,-0.12545 -0.14707,-0.20096c-0.21676,0.00059 -0.39571,0.10858 -0.54125,0.24225c-0.12312,0.1018 -0.24834,0.1627 -0.38039,0.24784c-0.29535,0.18554 -0.59741,0.39531 -0.88384,0.59747c-0.03132,0.01522 -0.0694,0.05472 -0.10071,0.06993c-0.24376,0.09757 -0.41168,0.26304 -0.61306,0.40288c-0.03995,-0.14826 -0.07095,-0.27995 -0.04825,-0.45866c0.41168,-0.26306 0.82123,-0.56704 1.25745,-0.82109c0.41168,-0.26306 0.78774,-0.59264 1.25744,-0.82107c0.12682,0.2737 0.17107,0.50373 0.19968,0.74136z" fill="#60adb2"/><path d="M284.80872,204.7069c0.05128,0.05891 0.09364,0.10121 0.14492,0.16011c-0.01347,0.0485 -0.02026,0.07272 -0.027,0.09694c-0.23053,0.19597 -0.41871,0.43421 -0.59797,0.68902c-0.08289,0.10319 -0.16793,0.16551 -0.30423,0.1689c-0.26374,0.02342 -0.52528,0.08776 -0.82896,-0.03709c0.09669,-0.29854 0.28484,-0.53677 0.48194,-0.75836c0.03804,-0.03947 0.12527,-0.06088 0.19678,-0.07472c0.3085,-0.08718 0.61713,-0.17433 0.93457,-0.24484z" fill="#cce5e6"/><path d="M288.89459,203.01353c-0.12091,0.14264 -0.18819,0.23823 -0.27107,0.34142c-0.15904,0.18215 -0.33798,0.2901 -0.61061,0.29693c-0.4559,0.03302 -0.90078,0.12362 -1.29219,0.31394c-0.12525,0.06088 -0.14981,0.05188 -0.24105,-0.15529c0.04698,-0.02283 0.08503,-0.06234 0.13203,-0.08515c0.40034,-0.1737 0.74936,-0.40631 1.07171,-0.68882c0.08506,-0.06229 0.15444,-0.117 0.25052,-0.12186c0.30611,0.01883 0.5944,0.00445 0.96067,0.09886z" fill="#cae2e3"/><path d="M285.20321,201.83203c0.00676,-0.02422 0.02918,-0.05615 0.04483,-0.06372c0.37789,-0.14183 0.68673,-0.37585 0.97104,-0.61891c0.2775,-0.21879 0.57501,-0.36346 0.96151,-0.34178c0.18546,0.01463 0.36656,-0.0525 0.55417,0.00306c-0.1863,0.42598 -0.52646,0.67522 -0.93325,0.7263c-0.494,0.07251 -0.98121,0.12078 -1.42638,0.35822c-0.05587,0.00623 -0.11852,0.03665 -0.17197,-0.06312z" fill="#c9e1e2"/><path d="M288.25558,201.85702c-0.16146,0.28813 -0.34501,0.46123 -0.54425,0.64194c-0.06939,0.05467 -0.14768,0.09275 -0.22813,0.08995c-0.51856,0.0635 -1.03491,0.16786 -1.53349,0.30548c-0.03132,0.01522 -0.08717,0.02144 -0.11606,-0.06934c0.10958,-0.05329 0.23483,-0.1142 0.33556,-0.18411c0.30424,-0.16889 0.59954,-0.35443 0.84358,-0.59888c0.18356,-0.17316 0.39603,-0.25545 0.64624,-0.2304c0.18546,0.01463 0.35523,0.03685 0.59657,0.0453z" fill="#c9e1e2"/><path d="M285.52631,205.67853c0.13172,0.06176 0.17626,0.1449 0.22078,0.22804c-0.00676,0.02422 -0.02917,0.05613 -0.03593,0.08033c-0.2327,0.15507 -0.41412,0.3691 -0.53748,0.61773c-0.08073,0.14406 -0.19709,0.22158 -0.36473,0.24021c-0.20783,0.01723 -0.42243,0.05873 -0.63246,0.03508c0.04295,-0.25144 0.17769,-0.58952 0.28515,-0.68368c0.06044,-0.07134 0.14089,-0.06854 0.22811,-0.08994c0.25725,-0.14604 0.57471,-0.21661 0.83656,-0.42774z" fill="#cae3e4"/><path d="M281.44732,200.49323c0.33955,0.04449 0.65243,0.03913 0.97203,0.00947c0.08471,0.08453 0.12039,0.15109 0.11794,0.25709c-0.23727,0.22019 -0.58389,0.34678 -0.81229,0.58363c-0.21675,0.00057 -0.38194,-0.08678 -0.56955,-0.14226c-0.09822,-0.03606 -0.20321,-0.04787 -0.28122,-0.15667c0.1323,-0.23203 0.39172,-0.33719 0.57313,-0.5512z" fill="#c8e0e1"/><path d="M283.60806,202.79639c0.06448,0.15729 0.01079,0.20436 -0.04295,0.25145c-0.19925,0.18076 -0.38281,0.35384 -0.59093,0.51795c-0.05373,0.0471 -0.11635,0.07755 -0.1968,0.07476c-0.23452,-0.03267 -0.47802,-0.082 -0.71474,-0.15551c0.04943,-0.12881 0.13445,-0.19116 0.2017,-0.28673c0.20169,-0.2867 0.45892,-0.43278 0.82521,-0.33841c0.17871,0.0389 0.35308,-0.00399 0.51854,-0.06353z" fill="#cbe4e5"/><path d="M283.04699,201.7486c0.04454,0.08314 0.07125,0.13303 0.09798,0.18294c-0.02242,0.03184 -0.02028,0.07272 -0.03591,0.08034c-0.15444,0.11696 -0.31774,0.21742 -0.47216,0.33442c-0.08506,0.06229 -0.17225,0.08374 -0.27724,0.07191c-0.31499,-0.03547 -0.62326,-0.09522 -0.95824,-0.2048c0.07858,-0.18494 0.21057,-0.27009 0.34258,-0.35525c0.06262,-0.03041 0.12528,-0.06087 0.19001,-0.0505c0.36629,0.09438 0.73287,0.04191 1.11294,-0.05904z" fill="#c8e0e1"/><path d="M278.39045,203.88713c-0.17222,0.08373 -0.36905,0.15847 -0.49673,0.32542c-0.04481,0.06373 -0.132,0.08512 -0.21027,0.1232c-0.16704,-0.2751 -0.26255,-0.56404 -0.28652,-0.86682c0.23701,-0.07331 0.42057,-0.24641 0.59063,-0.37104c0.14063,0.07835 0.15599,0.21761 0.24072,0.30214c0.09582,0.14209 0.1692,0.316 0.16217,0.48711z" fill="#85d5d9"/><path d="M288.80421,204.65057c-0.27939,0.03105 -0.55876,0.06212 -0.8449,0.11739c-0.24592,0.05668 -0.42518,0.31155 -0.79361,0.17625c0.53232,-0.25885 0.93971,-0.60369 1.34709,-0.94849c0.21675,-0.00057 0.45807,0.00781 0.68804,0.10564c-0.01347,0.0485 -0.02027,0.07273 -0.02699,0.09696c-0.11204,0.15928 -0.23299,0.30197 -0.36957,0.45221z" fill="#c6dede"/><path d="M287.31762,199.29462c-0.32854,0.01301 -0.61676,0.02743 -0.9453,0.04045c0.02272,-0.17872 0.12123,-0.28955 0.17064,-0.41835c0.06504,-0.13645 0.0967,-0.29856 0.21088,-0.41696c0.10958,-0.05329 0.23915,-0.03245 0.3598,-0.02827c0.12064,0.00419 0.25022,0.02509 0.38871,0.06254c0.03073,0.27852 -0.08594,0.50292 -0.18476,0.76062z" fill="#cae3e3"/><path d="M283.56676,198.8128c0.40736,-0.34484 0.73644,-0.65161 0.99642,-1.05051c0.2392,-0.03242 0.46942,-0.08153 0.72424,-0.12158c-0.00947,0.27713 -0.15282,0.45165 -0.26271,0.65177c-0.02242,0.03184 -0.06942,0.0547 -0.1007,0.06989c-0.41813,0.14043 -0.83628,0.28091 -1.35723,0.4504z" fill="#cae3e4"/><path d="M282.6504,204.58263c0.16145,-0.28812 0.32505,-0.5354 0.71833,-0.53796c0.27264,-0.00681 0.51641,-0.10437 0.76016,-0.20194c0.09396,-0.04568 0.15412,0.02984 0.17626,0.14487c-0.26829,0.08857 -0.45867,0.28592 -0.64899,0.48329c-0.13659,0.15027 -0.2953,0.18555 -0.48076,0.17092c-0.16088,-0.00563 -0.31961,0.02962 -0.52502,-0.05916z" fill="#c8e0e1"/><path d="M279.22573,202.97791c-0.02514,0.28473 -0.23973,0.32616 -0.43652,0.4009c-0.12952,-0.02083 -0.15168,-0.13584 -0.21186,-0.21134c-0.1001,-0.22382 -0.14432,-0.45386 -0.15728,-0.69914c0.18112,-0.06711 0.31773,-0.21737 0.51882,-0.21037c0.06018,0.07556 0.08691,0.12545 0.12253,0.19196c0.05776,0.18153 0.11552,0.36306 0.16432,0.52799z" fill="#85d4d9"/><path d="M282.11325,202.76868c-0.18142,0.21398 -0.34933,0.37949 -0.50834,0.56164c-0.25236,-0.06594 -0.498,-0.15609 -0.72122,-0.27818c-0.03103,-0.13168 0.0451,-0.21057 0.081,-0.29091c0.0359,-0.08034 0.07183,-0.16068 0.19033,-0.19734c0.25914,0.04172 0.57626,0.11805 0.95824,0.2048z" fill="#c7dfe0"/><path d="M282.74415,205.75279c-0.21894,-0.04031 -0.42891,-0.06395 -0.6589,-0.16171c0.03404,-0.26811 0.1774,-0.4426 0.3186,-0.65798c0.25021,0.02506 0.50043,0.05009 0.76634,0.06756c-0.13015,0.27289 -0.27139,0.48833 -0.42607,0.75218z" fill="#c8e0e1"/><path d="M288.24615,199.84929c-0.05404,0.19397 -0.10805,0.3879 -0.23575,0.55482c-0.27264,0.00681 -0.55416,-0.00302 -0.85134,-0.00525c-0.01779,-0.03324 -0.03561,-0.06651 -0.01994,-0.07413c0.08749,-0.1683 0.19061,-0.34421 0.28698,-0.49589c0.04483,-0.06372 0.09854,-0.11084 0.1633,-0.10039c0.24132,0.00844 0.45592,-0.03305 0.65676,0.12083z" fill="#c4dcdd"/><path d="M289.12329,202.62989c-0.27477,-0.03408 -0.54066,-0.05152 -0.81548,-0.0856c-0.02425,-0.15586 0.10099,-0.21676 0.16823,-0.31236c0.06721,-0.09555 0.15902,-0.18215 0.24188,-0.28533c0.23241,-0.0082 0.44668,0.09727 0.67455,0.15415c-0.01163,0.2362 -0.1326,0.37887 -0.26921,0.52913z" fill="#c8e0e1"/><path d="M283.07172,206.18032c0.28155,0.00986 0.53855,0.01066 0.83571,0.01288c-0.03618,0.22721 -0.16392,0.39411 -0.209,0.60473c-0.25482,0.04004 -0.4848,-0.05772 -0.74391,-0.09944c0.00489,-0.21198 0.01192,-0.38309 0.11723,-0.51812z" fill="#c6ddde"/><path d="M286.32896,206.58784c-0.17713,0.29574 -0.43004,0.52356 -0.54914,0.85396c-0.2146,0.04148 -0.40467,0.09196 -0.63921,0.05929c0.00275,-0.25284 0.08131,-0.43784 0.33395,-0.51875c0.30851,-0.08715 0.57255,-0.25746 0.85439,-0.39451z" fill="#b9cfd0"/><path d="M283.28728,197.77488c-0.00645,-0.12262 0.09854,-0.11086 0.15224,-0.15789c0.1231,-0.10178 0.25507,-0.18694 0.29562,-0.33243c0.10099,-0.21679 0.28209,-0.28392 0.48783,-0.34201c0.08722,-0.02141 0.18329,-0.02627 0.3107,-0.04627c-0.05643,0.29998 -0.12398,0.54242 -0.45706,0.62054c-0.23025,0.0491 -0.44056,0.17229 -0.65301,0.25463c-0.04699,0.02281 -0.09395,0.04567 -0.13632,0.00339z" fill="#c0d8d8"/><path d="M280.66195,199.91097c0.09641,-0.15169 0.20381,-0.24583 0.32907,-0.30675c0.06262,-0.03041 0.14092,-0.06857 0.20569,-0.05812c0.2837,0.05073 0.55631,0.04389 0.82896,0.0371c0.06231,0.11642 -0.00921,0.13023 -0.05619,0.1531c-0.15658,0.07614 -0.3288,0.1599 -0.46755,0.26929c-0.18573,0.13223 -0.35336,0.15086 -0.55204,0.03785c-0.0915,-0.06031 -0.16519,-0.08737 -0.28796,-0.13246z" fill="#c1d9d9"/><path d="M282.18798,204.493c-0.22564,-0.01603 -0.42217,-0.08821 -0.64997,-0.1451c-0.00403,-0.2286 0.1415,-0.36224 0.22898,-0.53058c0.26588,0.01743 0.50474,0.13183 0.76603,0.21443c-0.09425,0.19255 -0.22411,0.31859 -0.34504,0.46127z" fill="#c3dbdc"/><path d="M287.78267,201.41614c0.16576,-0.20641 0.32481,-0.38852 0.47492,-0.58728c0.17654,-0.00204 0.3374,0.00364 0.51151,0.1076c-0.04512,0.2106 -0.15717,0.36988 -0.26028,0.54583c-0.2392,0.03242 -0.46479,0.01642 -0.72609,-0.06614z" fill="#c3dadb"/><path d="M280.67519,203.36307c0.22999,0.0978 0.43536,0.18657 0.64075,0.27534c-0.02054,0.21961 -0.13259,0.37889 -0.24461,0.53816c-0.20325,-0.04788 -0.38409,-0.12762 -0.56703,-0.24827c0.00461,-0.06512 0.01597,-0.15448 0.02944,-0.20296c0.04941,-0.12884 0.10097,-0.21679 0.14151,-0.36228z" fill="#c4dbdc"/><path d="M281.73238,198.74063c-0.29753,0.14465 -0.53238,0.25886 -0.78285,0.38071c-0.15414,-0.02985 -0.28586,-0.0916 -0.41294,-0.21842c0.02488,-0.13783 0.15227,-0.15788 0.22842,-0.23683c0.07612,-0.07894 0.16116,-0.14124 0.23944,-0.17934c0.24567,0.09018 0.44216,0.16232 0.72797,0.25389z" fill="#c2d9da"/><path d="M287.91565,198.60559c0.16088,0.00563 0.29935,0.04304 0.4154,0.11241c0.0869,0.12544 0.02853,0.23768 0.02612,0.34363c-0.00242,0.10595 0.03535,0.21337 -0.04754,0.31656c-0.17437,0.04288 -0.37762,-0.00504 -0.61222,-0.03768c0.03375,-0.12126 0.06751,-0.24248 0.08562,-0.35606c0.04943,-0.12881 0.09881,-0.25768 0.13257,-0.37891z" fill="#c5ddde"/><path d="M281.67662,205.4544c-0.20113,-0.00702 -0.31934,-0.11723 -0.46671,-0.17132c-0.01966,-0.22103 0.05891,-0.40597 0.14421,-0.61517c0.18761,0.05549 0.37521,0.11103 0.55392,0.14992c-0.00277,0.25286 -0.1461,0.4274 -0.23141,0.63656z" fill="#c3dbdc"/><path d="M285.55676,198.18051c0.01133,-0.0894 0.02482,-0.13784 0.03831,-0.18633c0.04265,-0.10458 0.10097,-0.21681 0.15039,-0.34564c0.28155,0.00986 0.53636,-0.03024 0.80656,0.06896c0.03103,0.13168 -0.02053,0.21962 -0.09452,0.33944c-0.27048,0.04767 -0.58117,0.09392 -0.90076,0.12362z" fill="#c7dfe0"/><path d="M280.9056,202.09814c-0.21429,-0.1054 -0.42427,-0.12906 -0.60053,-0.27391c0.01382,-0.19537 0.17709,-0.29575 0.20869,-0.45784c0.2837,0.05074 0.49802,0.15608 0.74364,0.24628c-0.05187,0.23485 -0.22409,0.31856 -0.35176,0.48552z" fill="#c7dee0"/><path d="M278.24396,203.39248c-0.08474,-0.08452 -0.10009,-0.22384 -0.24073,-0.30214c-0.18573,0.13223 -0.37821,0.28869 -0.59066,0.37106c-0.01997,-0.07416 -0.04882,-0.16493 -0.05316,-0.24664c-0.00645,-0.12262 0.03621,-0.2272 0.14582,-0.28053c0.17895,-0.10798 0.34226,-0.20839 0.52129,-0.31637c0.11578,0.21621 0.15355,0.32362 0.21747,0.77465z" fill="#61acb1"/><path d="M289.5299,203.79459c-0.21894,-0.04031 -0.39756,-0.07918 -0.62541,-0.1361c0.1501,-0.19877 0.28453,-0.38989 0.44355,-0.57204c0.16977,0.02221 0.3239,0.05212 0.48019,0.12284c-0.05187,0.23485 -0.1639,0.3941 -0.29834,0.58526z" fill="#c2dada"/><path d="M280.36199,200.16161c0.21894,0.04031 0.38408,0.12765 0.58951,0.21645c-0.18356,0.17313 -0.33584,0.33101 -0.48813,0.4889c-0.17655,0.00203 -0.28586,-0.09159 -0.43537,-0.18657c0.02943,-0.20296 0.17497,-0.33665 0.33396,-0.51875z" fill="#c1d9d9"/><path d="M288.94878,201.60372c0.07644,-0.22582 0.14825,-0.38648 0.21119,-0.56384c0.18329,-0.02625 0.36414,0.05352 0.54497,0.13329c0.00184,0.18772 -0.02084,0.36644 -0.12398,0.5424c-0.2146,0.04148 -0.38196,-0.08682 -0.63217,-0.11182z" fill="#c6dedf"/><path d="M282.53914,206.5861c-0.20324,-0.04788 -0.39976,-0.12005 -0.58734,-0.17556c-0.06448,-0.15729 -0.05532,-0.28752 0.00087,-0.44064c0.2392,-0.03242 0.44669,0.09726 0.68129,0.12989c0.01755,0.18015 -0.04757,0.31657 -0.09481,0.4863z" fill="#c0d7d7"/><path d="M285.429,197.27849c-0.20783,0.01723 -0.40465,0.09194 -0.64139,0.01844c0.05618,-0.1531 0.0967,-0.29858 0.13721,-0.44402c0.18788,-0.09133 0.38896,-0.08432 0.58545,-0.01218c0.02426,0.15589 -0.00949,0.27709 -0.08128,0.43777z" fill="#c3dadb"/><path d="M279.07029,202.46653c-0.03561,-0.06653 -0.08692,-0.12545 -0.12257,-0.19197c-0.20113,-0.00702 -0.33771,0.14321 -0.51882,0.21037c-0.07799,-0.1088 -0.01966,-0.22103 -0.06636,-0.34503c0.16791,-0.16549 0.3825,-0.20699 0.5237,-0.42237c0.10469,0.1587 0.11117,0.2813 0.12656,0.4206c0.01325,0.09839 0.10685,0.19961 0.05744,0.32839z" fill="#5aa0a4"/><path d="M285.64429,208.22051c-0.20782,0.01723 -0.40467,0.09196 -0.61681,0.02744c-0.03103,-0.13168 -0.004,-0.22866 0.03646,-0.37411c0.19007,-0.05048 0.39789,-0.06771 0.59224,-0.03647c0.03103,0.13168 0.01967,0.22102 -0.01194,0.3831z" fill="#bdd3d4"/><path d="M280.4856,204.33566c0.15628,0.07074 0.30365,0.12486 0.45101,0.17895c0.00185,0.18775 -0.0543,0.34085 -0.12611,0.50154c-0.15196,0.011 -0.24568,-0.09018 -0.30798,-0.20657c-0.08019,-0.14967 -0.16031,-0.29932 -0.01695,-0.47388z" fill="#bdd4d5"/><path d="M289.2071,205.43984c-0.23239,0.00819 -0.44917,0.00879 -0.68155,0.017c0.2397,-0.32619 0.49269,-0.55398 0.93696,-0.35079c-0.02488,0.13783 -0.14122,0.21539 -0.2554,0.33378z" fill="#bbd2d3"/><path d="M280.01748,202.61389c-0.0086,-0.16349 0.04972,-0.27572 0.10807,-0.38791c0.10958,-0.05329 0.18546,0.01465 0.28368,0.05073c0.07368,0.02705 0.16299,0.04649 0.23209,0.13868c0.0086,0.16349 -0.14793,0.23962 -0.15497,0.41075c-0.19436,-0.03124 -0.33497,-0.10959 -0.46885,-0.21215z" fill="#c3dadb"/><path d="M285.47065,202.18405c0.29965,-0.10374 0.59925,-0.20754 0.93452,-0.24479c0.03775,0.10739 -0.0316,0.16213 -0.10991,0.20015c-0.19464,0.11559 -0.39813,0.21456 -0.58603,0.30592c-0.1409,0.06853 -0.22568,-0.01604 -0.23857,-0.26128z" fill="#b1c6c7"/><path d="M283.01543,207.54927c0.14303,-0.02766 0.24346,0.04931 0.35737,0.07774c0.21894,0.04028 0.31473,0.18235 0.34331,0.42003c-0.27263,0.00679 -0.5204,-0.12428 -0.73472,-0.22965c-0.04667,-0.12404 -0.04209,-0.18917 0.03404,-0.26812z" fill="#bbd2d3"/><path d="M286.82055,204.33649c0.26187,-0.2112 0.59036,-0.22418 0.92562,-0.26146c-0.16576,0.20641 -0.40063,0.32055 -0.61091,0.44379c-0.13201,0.08516 -0.19007,0.05051 -0.31471,-0.18234z" fill="#bad1d2"/><path d="M286.56612,207.58353c-0.06293,0.17731 -0.09454,0.33942 -0.15744,0.51674c-0.08719,0.02143 -0.22352,0.02485 -0.35092,0.04487c-0.08202,-0.33743 -0.06636,-0.34506 0.14612,-0.42741c0.1096,-0.05328 0.22813,-0.08994 0.36226,-0.13422z" fill="#b5cbcc"/><path d="M289.75365,200.26917c0.04205,0.18914 0.01725,0.32702 -0.00762,0.46485c-0.16765,0.01863 -0.3015,-0.084 -0.45779,-0.1547c0.0159,-0.15449 0.04083,-0.29231 0.05676,-0.4468c0.1498,-0.05189 0.26128,0.08253 0.40869,0.13667z" fill="#c0d7d8"/><path d="M284.78594,207.17045c0.02209,0.11501 -0.02052,0.21961 -0.07884,0.33184c-0.23026,0.04907 -0.46482,0.01642 -0.68588,-0.06475c-0.07799,-0.1088 -0.04883,-0.1649 0.01163,-0.2362c0.24805,-0.01587 0.49615,-0.03165 0.7531,-0.03082z" fill="#bdd4d4"/><path d="M289.90295,203.86479c0.08749,-0.1683 0.1995,-0.32759 0.28699,-0.4959c0.1139,0.02847 0.18976,0.09639 0.2432,0.19615c0.02211,0.115 -0.03833,0.18634 -0.0899,0.27427c-0.04483,0.06372 -0.08962,0.12743 -0.13445,0.19116c-0.12067,-0.0042 -0.21892,-0.04029 -0.30583,-0.16573z" fill="#b6cccc"/><path d="M288.46173,200.4362c0.06295,-0.1773 0.11909,-0.33038 0.17311,-0.52438c0.10283,-0.02906 0.22352,-0.02486 0.35066,0.10199c-0.0159,0.1545 -0.04754,0.31659 -0.07025,0.4953c-0.16088,-0.00563 -0.29719,-0.0022 -0.45348,-0.07297z" fill="#c1d9d9"/><path d="M289.77376,204.76597c-0.16088,-0.00563 -0.29045,-0.02645 -0.43105,-0.10481c0.06293,-0.17731 0.20171,-0.28672 0.30023,-0.39752c0.14303,-0.02766 0.2278,0.0569 0.3193,0.11722c0.01107,0.05751 0.02886,0.09077 0.01325,0.09839c-0.06724,0.09555 -0.13444,0.19113 -0.20172,0.28672z" fill="#b7cdce"/><path d="M288.8993,206.30226c0.10101,-0.21679 0.2419,-0.28531 0.36501,-0.38711c0.12986,-0.12605 0.2459,-0.05669 0.38652,0.02164c-0.06293,0.17731 -0.18603,0.2791 -0.27567,0.40655c-0.17437,0.04286 -0.31042,-0.10059 -0.47588,-0.04108z" fill="#b6cccc"/><path d="M284.63411,208.25043c-0.16978,-0.02224 -0.29933,-0.04308 -0.44456,-0.05631c-0.09582,-0.14209 -0.14924,-0.24187 -0.13329,-0.39634c0.19435,0.03126 0.3798,0.0459 0.54956,0.06812c0.12713,0.12681 0.06877,0.23903 0.1066,0.34641c-0.03132,0.01522 -0.05374,0.04711 -0.0783,0.0381z" fill="#c2dada"/><path d="M289.00874,199.54137c-0.1363,0.00338 -0.21,-0.02364 -0.28587,-0.09156c-0.06909,-0.09221 -0.04208,-0.18914 -0.03966,-0.29514c0.01134,-0.0894 -0.03534,-0.2134 0.06535,-0.28333c0.13844,0.0375 0.27017,0.09919 0.38165,0.23365c-0.03159,0.16211 -0.08102,0.29094 -0.12154,0.43642z" fill="#bbd2d3"/><path d="M279.79503,200.98226c0.14062,0.07836 0.2478,0.13106 0.36384,0.20036c-0.04725,0.16973 -0.13691,0.29713 -0.21765,0.44124c-0.12955,-0.02083 -0.23677,-0.07353 -0.29904,-0.18998c-0.00218,-0.04089 -0.00428,-0.08174 0.01811,-0.11364c0.02699,-0.09695 0.06969,-0.2016 0.13473,-0.33803z" fill="#bbd2d3"/><path d="M286.82222,208.02491c0.06536,-0.28333 0.06536,-0.28335 0.287,-0.49588c0.1698,0.02224 0.25667,0.1477 0.38377,0.27454c-0.1925,0.15651 -0.44053,0.17232 -0.67081,0.22138z" fill="#adc2c3"/><path d="M279.94968,203.00324c0.12955,0.02083 0.24565,0.0902 0.32361,0.19898c-0.04725,0.16973 -0.08771,0.31518 -0.14392,0.46823c-0.30798,-0.20659 -0.3169,-0.2232 -0.17972,-0.66723z" fill="#b5cbcc"/><path d="M290.00995,202.84852c-0.15415,-0.02985 -0.26804,-0.05833 -0.40866,-0.13669c0.00704,-0.17108 0.12126,-0.28952 0.19309,-0.45024c0.0648,0.01042 0.11388,0.02846 0.16302,0.04646c0.04914,0.01802 0.09151,0.0603 0.14956,0.09497c0.03317,0.17251 -0.01622,0.30132 -0.09696,0.44544z" fill="#bbd1d2"/><path d="M279.99657,199.62658c0.02055,-0.21962 0.19951,-0.32759 0.28022,-0.47167c0.14521,0.01326 0.22324,0.12204 0.33932,0.19141c-0.10986,0.20018 -0.24865,0.30955 -0.44759,0.3434c-0.04699,0.02282 -0.11389,-0.02846 -0.17194,-0.06311z" fill="#b6cccd"/><path d="M286.64444,197.33716c-0.26588,-0.01743 -0.52501,-0.05914 -0.77523,-0.08418c-0.04668,-0.12405 -0.03535,-0.21338 0.03862,-0.33321c0.26129,0.08253 0.52256,0.16512 0.76358,0.32041c-0.01351,0.04853 -0.02027,0.07274 -0.02699,0.09698z" fill="#acc1c2"/><path d="M286.93919,203.08395c-0.17683,0.14888 -0.36257,0.28113 -0.58391,0.34679c-0.08722,0.02141 -0.17654,0.002 -0.22106,-0.08114c-0.01778,-0.03323 -0.02208,-0.115 -0.00643,-0.12262c0.22594,-0.13082 0.52312,-0.12862 0.8114,-0.14305z" fill="#a7bbbb"/><path d="M290.26407,202.03317c-0.11176,0.01241 -0.20324,-0.04787 -0.30364,-0.12484c0.03159,-0.16211 0.06323,-0.32419 0.0948,-0.48631c0.16088,0.00563 0.22994,0.09781 0.29228,0.2142c0.00645,0.12262 -0.03402,0.2681 -0.08348,0.39693z" fill="#b7cdcd"/><path d="M281.05281,205.65292c0.20113,0.00702 0.3417,0.0854 0.49124,0.18036c0.02426,0.15589 0.01509,0.28613 -0.0902,0.42117c-0.2008,-0.15389 -0.292,-0.3611 -0.40106,-0.60152z" fill="#b7cece"/><path d="M280.907,198.01004c0.12554,-0.20778 0.3647,-0.24023 0.47673,-0.39953c0.12952,0.02083 0.14952,0.09498 0.12036,0.15109c-0.08073,0.14406 -0.18602,0.27914 -0.34259,0.35523c-0.05588,0.00622 -0.07152,0.01381 -0.25454,-0.1068z" fill="#b4cacb"/><path d="M286.89101,198.0557c-0.00647,-0.1226 0.01379,-0.19536 0.07423,-0.2667c0.21894,0.04028 0.45347,0.07295 0.70342,0.24487c-0.25725,0.14604 -0.49398,0.0725 -0.77766,0.02181z" fill="#b2c8c9"/><path d="M279.76628,201.96048c-0.0159,0.15449 -0.03403,0.26808 -0.11017,0.34703c-0.07153,0.01382 -0.11393,-0.02845 -0.15631,-0.07075c-0.16949,-0.1691 -0.1044,-0.30558 0.00762,-0.46484c0.07585,0.0679 0.16736,0.12823 0.25885,0.18855z" fill="#b5cbcb"/><path d="M287.57378,205.37465c0.19462,-0.11559 0.36683,-0.19934 0.58143,-0.2408c0.06016,0.07554 0.03102,0.13164 -0.01594,0.15448c-0.10071,0.06993 -0.19251,0.1565 -0.29318,0.22641c-0.12525,0.06088 -0.19218,0.00959 -0.27229,-0.14009z" fill="#91a3a3"/><path d="M284.50285,198.90261c-0.12554,0.20778 -0.33799,0.29013 -0.52588,0.38146c-0.03132,0.01522 -0.08046,-0.00281 -0.1139,-0.02846c-0.01779,-0.03324 -0.01324,-0.09837 0.00243,-0.10601c0.1925,-0.15651 0.41384,-0.22219 0.63735,-0.24704z" fill="#99abac"/><path d="M283.54308,198.36321c-0.12497,-0.08595 -0.16946,-0.16913 -0.10901,-0.24047c0.09182,-0.08657 0.26615,-0.12939 0.50531,-0.16187c-0.09423,0.19258 -0.26643,0.27628 -0.39629,0.4023z" fill="#93a5a6"/><path d="M282.10452,207.17478c0.24346,0.04932 0.49369,0.07435 0.52876,0.43462c-0.25912,-0.04173 -0.3749,-0.25788 -0.52876,-0.43462z" fill="#9aadad"/><path d="M284.82938,205.55623c0.09855,-0.11083 0.21271,-0.22921 0.29563,-0.33241c0.10501,0.01184 0.14738,0.0541 0.18516,0.16151c-0.09639,0.15171 -0.28858,0.16131 -0.42058,0.24647c-0.01779,-0.03324 -0.0267,-0.04991 -0.06021,-0.07557z" fill="#c5dddd"/><path d="M285.57126,201.04519c-0.12339,0.24865 -0.32697,0.34762 -0.5661,0.38009c-0.01567,0.00762 -0.04915,-0.01804 -0.06695,-0.05129c-0.04237,-0.0423 -0.01325,-0.09837 0.0181,-0.1136c0.16328,-0.1004 0.37794,-0.14186 0.61495,-0.21519z" fill="#aec2c3"/><path d="M279.9601,200.00066c-0.06293,0.17731 -0.19275,0.30334 -0.30698,0.42178c-0.10499,-0.01182 -0.12498,-0.08599 -0.08016,-0.14969c0.07399,-0.11983 0.13231,-0.23202 0.23086,-0.34281c0.01351,-0.04853 0.08717,-0.02144 0.15628,0.07074z" fill="#9caeaf"/><path d="M290.12089,200.99188c-0.03318,-0.17254 -0.02398,-0.30273 0.00762,-0.46486c0.17839,0.18574 0.22941,0.39153 0.33625,0.59111c-0.0559,0.00621 -0.08722,0.02143 -0.11174,0.01241c-0.08258,-0.04372 -0.14951,-0.09497 -0.23212,-0.13864z" fill="#a9bebf"/><path d="M282.72643,201.14985c0.09366,0.10121 0.1136,0.1753 0.10225,0.26473c-0.14767,0.09274 -0.3153,0.11136 -0.56095,0.02121c0.17009,-0.12463 0.31101,-0.19313 0.45866,-0.28592z" fill="#b9cfd0"/><path d="M285.91414,206.18162c0.105,0.01184 0.15627,0.07077 0.20756,0.12965c0.0132,0.09839 -0.06505,0.13645 -0.46757,0.26928c-0.01292,-0.24526 0.18603,-0.27911 0.26,-0.39894z" fill="#869797"/><path d="M285.00557,200.06254c-0.27721,0.07191 -0.41629,0.32821 -0.72883,0.18671c0.19923,-0.18075 0.396,-0.25548 0.72883,-0.18671z" fill="#93a4a5"/><path d="M288.80408,205.86643c-0.23483,0.11419 -0.39143,0.19033 -0.54798,0.26646c-0.03132,0.01522 -0.08047,-0.0028 -0.10712,-0.0527c-0.00892,-0.01665 -0.01104,-0.0575 -0.00432,-0.08175c0.17004,-0.12465 0.34232,-0.20842 0.65942,-0.13204z" fill="#94a5a6"/><path d="M286.57647,206.86582c0.11605,0.06937 0.15843,0.11159 0.14035,0.22521c-0.11634,0.07753 -0.24837,0.1627 -0.43165,0.18894c0.02058,-0.21961 0.17711,-0.29571 0.29128,-0.41415z" fill="#abbfc0"/><path d="M289.82119,205.66528c-0.07585,-0.06791 -0.10929,-0.09358 -0.12713,-0.12686c0.12122,-0.28955 0.12123,-0.28949 0.36712,-0.34618c-0.00489,0.21198 -0.16142,0.28813 -0.24002,0.47303z" fill="#acc0c1"/><path d="M282.97186,207.02555c0.17871,0.0389 0.36414,0.05351 0.55173,0.10902c0.07368,0.02705 0.10928,0.0936 0.04208,0.18913c-0.21894,-0.04031 -0.42216,-0.08817 -0.59378,-0.29818z" fill="#9fb2b2"/><path d="M290.34712,202.99899c0.01811,-0.11364 0.03838,-0.18635 0.09881,-0.25767c0.08045,0.0028 0.13848,0.03745 0.19867,0.11301c0.03775,0.1074 -0.00492,0.21197 -0.04757,0.31657c-0.11176,0.01241 -0.18083,-0.07976 -0.24989,-0.17191z" fill="#aec2c3"/><path d="M283.6266,203.60486c0.00704,-0.17108 0.11665,-0.22441 0.21734,-0.29434c0.04699,-0.02281 0.10498,0.01182 0.13169,0.06173c0.01779,0.03324 0.01324,0.09841 -0.01808,0.11361c-0.06721,0.09555 -0.17901,0.10801 -0.33096,0.11899z" fill="#91a2a3"/><path d="M289.70324,199.76961c-0.36414,-0.05352 -0.38871,-0.06249 -0.28529,-0.38531c0.10255,0.11783 0.2432,0.19617 0.28529,0.38531z" fill="#869696"/><path d="M283.06005,197.42421c0.04512,-0.21059 0.16574,-0.20637 0.28427,-0.24305c0.00185,0.18775 0.00184,0.18774 -0.28427,0.24305z" fill="#555f5f"/><path d="M284.59253,204.41376c-0.07828,0.03807 -0.18786,0.09135 -0.3242,0.09476c0.06078,-0.2182 0.1234,-0.24863 0.26858,-0.23544c0.04024,0.00141 0.06696,0.05129 0.05557,0.14066z" fill="#93a5a6"/><path d="M289.0528,206.6258c-0.09882,0.25768 -0.13905,0.2563 -0.32852,0.013c0.09182,-0.08657 0.20569,-0.05812 0.32852,-0.013z" fill="#8b9b9c"/><path d="M283.42103,196.80854c-0.12987,0.12603 -0.264,0.17028 -0.39821,0.21456c-0.10042,-0.07692 -0.0958,-0.14208 -0.03315,-0.17251c0.12525,-0.0609 0.25943,-0.10518 0.43134,-0.04208z" fill="#9aacad"/><path d="M290.36176,204.64782c-0.02488,0.13783 -0.01841,0.26049 -0.15256,0.30478c-0.01568,0.0076 -0.04022,-0.00139 -0.04914,-0.01803c-0.04884,-0.16492 0.02731,-0.24387 0.2017,-0.28673z" fill="#5f6a6b"/><path d="M283.15515,202.42967c0.0359,-0.08034 0.09856,-0.11084 0.1701,-0.12462c0.04024,0.00141 0.08932,0.01944 0.09148,0.06032c0.00218,0.04089 -0.01133,0.0894 -0.04267,0.10458c-0.06262,0.03041 -0.13415,0.04427 -0.2189,-0.04029z" fill="#636e6f"/><path d="M290.59017,202.12624c0.1093,0.0936 0.13819,0.18433 0.04856,0.31177c-0.13386,-0.1026 -0.12255,-0.19195 -0.04856,-0.31177z" fill="#4a5354"/></g></g></g></svg>