<svg version="1.1" xmlns="http://www.w3.org/2000/svg" xmlns:xlink="http://www.w3.org/1999/xlink" width="33.99476" height="28.90208" viewBox="0,0,33.99476,28.90208"><g transform="translate(-223.00262,-165.59582)"><g data-paper-data="{&quot;isPaintingLayer&quot;:true}" fill="#9b7547" fill-rule="nonzero" stroke="#7d5e39" stroke-width="0.5" stroke-linecap="butt" stroke-linejoin="miter" stroke-miterlimit="10" stroke-dasharray="" stroke-dashoffset="0" style="mix-blend-mode: normal"><path d=""/><path d=""/><path d=""/><path d=""/><path d=""/><path d=""/><path d=""/><path d=""/><path d=""/><path d=""/><path d=""/><path d=""/><path d=""/><path d="" data-paper-data="{&quot;index&quot;:null}"/><path d="" data-paper-data="{&quot;index&quot;:null}"/><path d="" data-paper-data="{&quot;index&quot;:null}"/><path d="" data-paper-data="{&quot;index&quot;:null}"/><path d="" data-paper-data="{&quot;index&quot;:null}"/><path d="" data-paper-data="{&quot;index&quot;:null}"/><path d="" data-paper-data="{&quot;index&quot;:null}"/><path d="" data-paper-data="{&quot;index&quot;:null}"/><path d="" data-paper-data="{&quot;index&quot;:null}"/><path d="" data-paper-data="{&quot;index&quot;:null}"/><path d="" data-paper-data="{&quot;index&quot;:null}"/><path d="" data-paper-data="{&quot;index&quot;:null}"/><path d="" data-paper-data="{&quot;index&quot;:null}"/><path d="" data-paper-data="{&quot;index&quot;:null}"/><path d="M251.19499,168.07101c0.32236,0.07317 0.39112,1.42005 0.27268,2.34606c-0.74104,-0.91261 -1.58747,-1.7353 -2.51499,-2.44687c1.10603,0.00934 1.99254,0.04411 2.24231,0.10081z"/><path d="M254.4304,167.83337c0,1.02567 -1.0035,1.85713 -2.24138,1.85713c-1.23787,0 -2.24136,-0.83146 -2.24136,-1.85713c0,-1.02567 1.00348,-1.85713 2.24136,-1.85713c1.23787,0 2.24138,0.83146 2.24138,1.85713z"/><path d="M254.3911,171.57239c0,0.695 -0.46075,1.30083 -1.14297,1.61922c-0.58013,-1.178 -1.31781,-2.26972 -2.17991,-3.24625c0.32067,-0.14665 0.68933,-0.23011 1.08152,-0.23011c1.23787,0 2.24136,0.83147 2.24136,1.85714z"/><path d=""/><path d=""/><path d="M226.56951,174.2642c0,-0.94753 0.79216,-1.73211 1.82509,-1.86825c-0.50043,1.06168 -0.49568,2.37974 -0.49446,3.61642c-0.78081,-0.28247 -1.33063,-0.95879 -1.33063,-1.74818z"/><path d="M226.34537,178.33067c0,-0.85546 0.65232,-1.58034 1.55387,-1.82911c-0.00382,0.52834 -0.02127,1.03254 -0.09478,1.48442c-0.11567,0.71099 -0.15306,1.41373 -0.11969,2.10397c-0.7887,-0.29752 -1.33939,-0.97327 -1.33939,-1.75928z"/><path d=""/><path d="M256.74738,177.40505c0,0.97515 -0.90709,1.77476 -2.06028,1.85116c-0.00431,-1.27142 -0.18715,-2.50796 -0.52243,-3.68689c0.11129,-0.01409 0.22528,-0.0214 0.34133,-0.0214c1.23787,0 2.24138,0.83146 2.24138,1.85713z"/><path d="M256.70809,181.14407c0,1.02567 -1.00348,1.85713 -2.24136,1.85713c-0.09544,0 -0.18949,-0.00494 -0.2818,-0.01454c0.3428,-1.24849 0.50282,-2.48523 0.50225,-3.69086c1.1344,0.09176 2.02091,0.88423 2.02091,1.84827z"/><path d="M226.42352,188.05593c-0.25069,-0.13015 -0.42832,-2.95494 0.05798,-3.16199c0.27488,-0.11703 1.27479,-0.19678 2.4899,-0.24354c0.67281,1.27348 1.57834,2.44907 2.64775,3.48789c-2.18297,0.09732 -4.78562,0.13048 -5.19564,-0.08236z"/><path d=""/><path d="M228.05198,184.27267c0,1.04336 -0.96048,1.88916 -2.14531,1.88916c-1.18481,0 -2.14531,-0.84582 -2.14531,-1.88916c0,-1.04336 0.9605,-1.88915 2.14531,-1.88915c1.18481,0 2.14531,0.8458 2.14531,1.88915z"/><path d="M228.01995,188.33914c0,1.06103 -1.00348,1.92118 -2.24136,1.92118c-1.23787,0 -2.24138,-0.86013 -2.24138,-1.92118c0,-1.06103 1.0035,-1.92118 2.24138,-1.92118c1.23787,0 2.24136,0.86013 2.24136,1.92118z"/><path d="M251.87028,190.86018c-0.31382,0.07031 -1.66075,0.16802 -3.18029,0.23321c0.98233,-0.63883 1.88444,-1.46925 2.67125,-2.51106c0.222,-0.29395 0.43188,-0.58886 0.62993,-0.88447c0.39589,0.39951 0.29227,3.06975 -0.12089,3.16233z"/><path d="M255.14834,187.41352c0,1.02567 -1.0035,1.85713 -2.24138,1.85713c-0.64118,0 -1.21948,-0.22308 -1.62802,-0.58067c0.02757,-0.03563 0.055,-0.07151 0.08229,-0.10765c0.7517,-0.99532 1.36443,-2.00165 1.84966,-3.009c1.09411,0.1229 1.93745,0.89994 1.93745,1.8402z"/><path d="M255.10905,191.15253c0,1.02567 -1.00348,1.85713 -2.24136,1.85713c-1.23787,0 -2.24136,-0.83146 -2.24136,-1.85713c0,-1.02567 1.00348,-1.85714 2.24136,-1.85714c1.23787,0 2.24136,0.83147 2.24136,1.85714z"/><path d="M242.99488,193.20906c-0.55495,0 -1.0628,-0.17287 -1.45425,-0.45922c1.02294,0.08572 2.04257,0.05683 3.03516,-0.10008c-0.40529,0.34567 -0.96399,0.5593 -1.58091,0.5593z"/><path d=""/><path d=""/><path d="M230.19687,167.73497c0,-1.04336 0.9605,-1.88915 2.14531,-1.88915c0.77691,0 1.45738,0.36368 1.83382,0.90825c-1.28476,0.70392 -2.20252,1.48946 -3.15316,2.47067c-0.50274,-0.34575 -0.82597,-0.88453 -0.82597,-1.48977z"/><path d=""/><path d="M250.91039,191.92897c-0.37547,0.08522 -2.18967,0.12091 -4.02554,0.09514c1.55247,-0.61376 2.97809,-1.61036 4.16799,-3.05127c0.2673,0.74409 0.26427,2.86381 -0.14245,2.95612z" data-paper-data="{&quot;index&quot;:null}"/><path d="M251.90442,194.02376c-1.23788,0 -2.24136,-0.83146 -2.24136,-1.85713c0,-1.02567 1.0035,-1.85713 2.24136,-1.85713c1.23788,0 2.24138,0.83146 2.24138,1.85713c0,1.02567 -1.00351,1.85713 -2.24138,1.85713z" data-paper-data="{&quot;index&quot;:null}"/><path d="M251.86513,190.28475c-0.59808,0 -1.14143,-0.19409 -1.54334,-0.5104c0.36476,-0.3617 0.71208,-0.75857 1.03945,-1.19203c0.47619,-0.63052 0.89661,-1.26546 1.26418,-1.90228c0.86366,0.258 1.48108,0.94303 1.48108,1.74756c0,1.02567 -1.0035,1.85714 -2.24136,1.85714z" data-paper-data="{&quot;index&quot;:null}"/><path d="M242.1204,194.2479c-1.11828,0 -2.0367,-0.75344 -2.13635,-1.71532c1.42007,0.27642 2.85707,0.34394 4.24697,0.16642c-0.18196,0.88094 -1.05771,1.54889 -2.11061,1.54889z" data-paper-data="{&quot;index&quot;:null}"/><path d="M229.00506,185.11452c-0.17434,-0.07423 -0.26336,-0.48492 -0.29426,-0.98728c0.16832,0.35943 0.35516,0.71177 0.55906,1.05619c-0.11715,-0.02135 -0.20699,-0.04431 -0.26478,-0.06892z" data-paper-data="{&quot;index&quot;:null}"/><path d="M228.43023,187.62495c-1.18483,0 -2.14531,-0.84579 -2.14531,-1.88915c0,-1.04334 0.9605,-1.88916 2.14531,-1.88916c0.05237,0 0.1043,0.00165 0.15572,0.0049c0.43658,0.99794 1.01597,1.94388 1.70788,2.82073c-0.36961,0.56914 -1.06574,0.95269 -1.8636,0.95269z" data-paper-data="{&quot;index&quot;:null}"/><path d="M228.30215,183.59049c-1.23788,0 -2.24138,-0.86015 -2.24138,-1.92118c0,-0.87458 0.68181,-1.61267 1.61467,-1.84507c0.02848,1.30541 0.31117,2.56845 0.79781,3.76073c-0.05647,0.00365 -0.11353,0.00551 -0.1711,0.00551z" data-paper-data="{&quot;index&quot;:null}"/><path d="" data-paper-data="{&quot;index&quot;:null}"/><path d="M254.22141,184.45208c-0.17336,0 -0.34212,-0.01631 -0.50417,-0.04717c0.47195,-1.22337 0.76214,-2.44252 0.89114,-3.63951c1.05346,0.15191 1.85441,0.91323 1.85441,1.82955c0,1.02567 -1.00351,1.85713 -2.24138,1.85713z" data-paper-data="{&quot;index&quot;:null}"/><path d="M256.42349,178.85593c0,0.90224 -0.7765,1.6542 -1.80598,1.82213c0.12687,-1.25215 0.07757,-2.47953 -0.12426,-3.66151c1.09062,0.12548 1.93024,0.90119 1.93024,1.83938z" data-paper-data="{&quot;index&quot;:null}"/><path d="M226.1969,175.10606c-0.4863,-0.20704 -0.30868,-3.03184 -0.05798,-3.16199c0.25133,-0.13047 1.32654,-0.16851 2.62395,-0.15599c-0.73534,0.95848 -0.84502,2.25101 -0.86046,3.52474c-0.84534,-0.0479 -1.49269,-0.11616 -1.7055,-0.20677z" data-paper-data="{&quot;index&quot;:null}"/><path d="M225.62207,177.61648c-1.18483,0 -2.14531,-0.84579 -2.14531,-1.88915c0,-1.04334 0.9605,-1.88916 2.14531,-1.88916c1.18483,0 2.14531,0.8458 2.14531,1.88916c0,1.04334 -0.9605,1.88915 -2.14531,1.88915z" data-paper-data="{&quot;index&quot;:null}"/><path d="M225.494,173.58202c-1.23788,0 -2.24138,-0.86015 -2.24138,-1.92118c0,-1.06104 1.00351,-1.92118 2.24138,-1.92118c1.23788,0 2.24136,0.86015 2.24136,1.92118c0,1.06104 -1.00348,1.92118 -2.24136,1.92118z" data-paper-data="{&quot;index&quot;:null}"/><path d="M251.58568,169.13981c0.24853,0.05569 0.38506,1.04408 0.36823,1.90988c-0.53584,-0.73718 -1.13815,-1.42333 -1.79563,-2.04862c0.71253,0.04765 1.24482,0.09783 1.42741,0.13874z" data-paper-data="{&quot;index&quot;:null}"/><path d="M252.62237,170.72936c1.23788,0 2.24138,0.83146 2.24138,1.85713c0,0.70105 -0.46881,1.31136 -1.16084,1.62747c-0.48,-1.20429 -1.12147,-2.33309 -1.89289,-3.35886c0.25187,-0.08119 0.52583,-0.12573 0.81235,-0.12573z" data-paper-data="{&quot;index&quot;:null}"/><path d="M252.58309,170.7046c-0.38422,0 -0.74586,-0.0801 -1.06192,-0.22126c-0.35413,-0.44124 -0.73281,-0.86177 -1.13332,-1.25924c-0.03024,-0.12163 -0.04612,-0.2476 -0.04612,-0.37665c0,-1.02567 1.0035,-1.85713 2.24136,-1.85713c1.23788,0 2.24136,0.83146 2.24136,1.85713c0,1.02567 -1.0035,1.85714 -2.24136,1.85714z" data-paper-data="{&quot;index&quot;:null}"/><path d="" data-paper-data="{&quot;index&quot;:null}"/><path d="M232.6324,191.64374c-0.38365,-0.16334 -0.35408,-1.95598 -0.2014,-2.76937c1.57076,1.32987 3.41812,2.38463 5.3645,3.06403c-2.14904,-0.00506 -4.69725,-0.09632 -5.1631,-0.29465z" data-paper-data="{&quot;index&quot;:null}"/><path d="M241.84159,193.93004c-1.07612,0 -1.9751,-0.62836 -2.19167,-1.46641c1.42869,0.31155 2.8797,0.41362 4.28741,0.26918c-0.32119,0.69988 -1.13838,1.19723 -2.09575,1.19723z" data-paper-data="{&quot;index&quot;:null}"/><path d="M232.05758,194.15418c-1.18483,0 -2.14531,-0.84579 -2.14531,-1.88915c0,-1.04334 0.9605,-1.88916 2.14531,-1.88916c1.18483,0 2.14531,0.8458 2.14531,1.88916c0,1.04334 -0.9605,1.88915 -2.14531,1.88915z" data-paper-data="{&quot;index&quot;:null}"/><path d="M231.92951,190.11972c-1.23788,0 -2.24138,-0.86015 -2.24138,-1.92118c0,-0.55199 0.27159,-1.0496 0.70648,-1.40002c0.85778,1.06221 1.88106,2.02023 3.01475,2.84295c-0.39478,0.2977 -0.91271,0.47824 -1.47985,0.47824z" data-paper-data="{&quot;index&quot;:null}"/></g></g></svg>