<svg version="1.1" xmlns="http://www.w3.org/2000/svg" xmlns:xlink="http://www.w3.org/1999/xlink" width="41.05283" height="44.08282" viewBox="0,0,41.05283,44.08282"><g transform="translate(-219.74746,-159.40148)"><g data-paper-data="{&quot;isPaintingLayer&quot;:true}" fill="#ff6666" fill-rule="nonzero" stroke="none" stroke-width="0" stroke-linecap="butt" stroke-linejoin="miter" stroke-miterlimit="10" stroke-dasharray="" stroke-dashoffset="0" style="mix-blend-mode: normal"><path d="M248.72185,169.0228c-2.18238,4.64937 -7.47688,9.14873 -7.47688,9.14873c0,0 0.38669,-6.75303 2.56907,-11.40239c2.18238,-4.64937 5.0502,-7.91392 6.40545,-7.29159c1.35525,0.62233 0.68474,4.89589 -1.49764,9.54525z"/><path d="M251.16736,188.76176c-4.67239,-2.13264 -8.7881,-6.75585 -8.7881,-6.75585c0,0 6.31687,-0.30837 10.98926,1.82427c4.67239,2.13264 7.96736,4.96546 7.35953,6.32728c-0.60783,1.36182 -4.8883,0.73694 -9.56069,-1.3957z"/><path d="M229.37683,171.63391c4.66517,2.1484 8.69528,7.28065 8.69528,7.28065c0,0 -6.2479,-0.20812 -10.91307,-2.35652c-4.66517,-2.1484 -7.95056,-4.99232 -7.33814,-6.35208c0.61243,-1.35976 4.89076,-0.72045 9.55593,1.42795z"/><path d="M230.5846,193.83559c2.05646,-4.70642 7.84975,-9.81848 7.84975,-9.81848c0,0 -0.8266,7.23282 -2.88306,11.93924c-2.05646,4.70642 -4.83537,8.04697 -6.20689,7.46134c-1.37151,-0.58563 -0.81626,-4.87568 1.2402,-9.5821z"/><path d="M238.12567,180.80026c0,0 -2.53363,2.26392 -3.74127,2.3977c-1.20764,0.13378 -2.2581,-0.40302 -2.34627,-1.19896c-0.08817,-0.79594 0.81934,-1.54963 2.02698,-1.68341c1.20764,-0.13378 4.06056,0.48467 4.06056,0.48467z"/><path d="M242.34178,179.76965c0,0 2.17529,-2.09866 3.34025,-2.44386c1.16496,-0.3452 2.29378,-0.00261 2.5213,0.76521c0.22752,0.76781 -0.53243,1.67009 -1.69739,2.01529c-1.16496,0.3452 -4.16416,-0.33664 -4.16416,-0.33664z"/></g></g></svg>