<svg version="1.1" xmlns="http://www.w3.org/2000/svg" xmlns:xlink="http://www.w3.org/1999/xlink" width="82.68601" height="106.89143" viewBox="0,0,82.68601,106.89143"><defs><linearGradient x1="189.57141" y1="164.26648" x2="167.82442" y2="158.74741" gradientUnits="userSpaceOnUse" id="color-1"><stop offset="0" stop-color="#000000"/><stop offset="1" stop-color="#000000" stop-opacity="0"/></linearGradient></defs><g transform="translate(-171.02721,-136.69279)"><g stroke-miterlimit="10"><g stroke-linejoin="miter"><path d="M237.82011,172.42466c-3.30878,13.0377 -17.03629,20.80375 -30.66129,17.34593c-13.62499,-3.45782 -21.98795,-16.83007 -18.67917,-29.86779c3.30878,-13.0377 17.03629,-20.80375 30.66129,-17.34593c13.62499,3.45782 21.98795,16.83007 18.67917,29.86779z" fill="none" fill-rule="nonzero" stroke="#000000" stroke-width="4.5" stroke-linecap="butt"/><g><g fill-rule="nonzero" stroke-linecap="butt"><path d="M202.39782,147.20053l0.0091,0.01067" fill="#ffab19" stroke="#000000" stroke-width="5"/><g fill="none" stroke="none" stroke-width="1" font-family="sans-serif" font-weight="normal" font-size="12" text-anchor="start"/></g><path d="M202.39782,147.20053l0.0091,0.01067" fill="#ffab19" fill-rule="nonzero" stroke="#000000" stroke-width="5" stroke-linecap="butt"/><path d="M212.56686,167.27749" fill="#001026" fill-rule="evenodd" stroke="#000000" stroke-width="5" stroke-linecap="butt"/><g fill="none" fill-rule="nonzero" stroke="none" stroke-width="1" stroke-linecap="butt" font-family="sans-serif" font-weight="normal" font-size="12" text-anchor="start"/><g fill="none" fill-rule="nonzero" stroke="none" stroke-width="1" stroke-linecap="butt" font-family="sans-serif" font-weight="normal" font-size="12" text-anchor="start"/><path d="M245.26989,172.80442c-2.0433,1.67473 -16.33995,-10.21138 -16.33995,-10.21138" fill="none" fill-rule="nonzero" stroke="#000000" stroke-width="5" stroke-linecap="round"/><path d="M194.56433,168.32146c2.68102,1.35249 26.2641,-6.29473 26.2641,-6.29473" fill="none" fill-rule="nonzero" stroke="#000000" stroke-width="5" stroke-linecap="round"/></g><path d="M220.15059,163.69819l-3.38848,12.40169" fill="none" fill-rule="nonzero" stroke="#000000" stroke-width="4.5" stroke-linecap="round"/><path d="M228.70811,164.18213l-3.56094,13.08128" fill="none" fill-rule="nonzero" stroke="#000000" stroke-width="4.5" stroke-linecap="round"/><path d="M201.3296,189.19251l-28.48538,-7.47027c0,0 -0.60911,-2.55826 -0.05128,-3.34676c1.27915,-1.80809 7.57137,-7.28304 7.57137,-7.28304l-6.4778,-7.91672c0,0 -2.13941,-2.14434 -2.17858,-3.28838c-0.03644,-1.06425 9.73577,-5.3994 9.73577,-5.3994c0,0 -1.602,-9.58255 -3.28528,-12.05354c-0.66098,-0.97029 7.86678,-1.24706 17.18596,-2.72877c4.56014,-0.72505 10.84212,-1.96544 15.56821,-1.51947c7.83617,0.73945 13.0862,4.43626 13.0862,4.43626" fill="none" fill-rule="nonzero" stroke="#000000" stroke-width="3" stroke-linecap="round"/><path d="M171.03198,181.26232c0,0 -0.16854,-1.49116 1.49862,-3.06219c2.08816,-1.96776 8.06412,-3.80502 7.04198,-6.50075c-1.32408,-3.49203 -9.19177,-8.08617 -6.74037,-11.43301c0.52824,-0.72119 0.58692,-2.35421 1.93288,-3.0892c3.78293,-2.06576 6.07628,-1.26587 6.45209,-2.74675c0.50842,-2.00333 2.39929,-2.64468 0.53695,-5.9556c-2.64864,-4.70882 -0.16794,-6.48111 -0.16794,-6.48111c0,0 5.83454,-1.41409 11.95732,-2.38463c5.74452,-0.91057 16.3529,-0.32455 16.3529,-0.32455c0,0 -17.85737,9.65085 -21.90337,16.92789c-4.48506,8.06673 7.96074,30.41017 7.96074,30.41017z" fill="url(#color-1)" fill-rule="nonzero" stroke="none" stroke-width="0" stroke-linecap="butt"/></g><path d="M207.03769,186.49869c-0.5422,-0.41151 -0.26631,-3.20368 -1.38414,-3.11605c-2.34429,0.18377 -0.13261,-11.4629 -2.07439,-12.12092c-2.14521,-0.72696 -11.92634,3.75123 -11.92634,3.75123c0,0 2.61706,5.86429 7.59024,8.50303c4.80486,2.54943 8.12031,3.2299 7.79463,2.98271z" fill="#ff0000" fill-rule="nonzero" stroke="#000000" stroke-width="2" stroke-linecap="butt" stroke-linejoin="miter"/><path d="M213.75935,196.37957l4.76483,9.44888" fill="none" fill-rule="nonzero" stroke="#000000" stroke-width="6" stroke-linecap="round" stroke-linejoin="miter"/><path d="M190.03118,200.79449c0,0 13.89853,-1.34942 14.58812,-2.23304c1.24863,-1.59996 9.1159,-5.70603 9.1159,-5.70603c0,0 35.61892,-1.49279 35.61892,-1.49279" fill="none" fill-rule="nonzero" stroke="#000000" stroke-width="6" stroke-linecap="round" stroke-linejoin="miter"/><g><g><g stroke="#001026" stroke-width="1.2"><path d="M226.1692,203.6197l16.05943,25.911c0,0 7.49393,0.13101 10.88459,7.24935c0.19331,0.40581 1.08751,2.40042 -1.63085,3.09956c-2.60367,0.66962 -8.769,0.05862 -11.02783,-0.17678c-1.04912,-0.10933 -2.85652,-0.69348 -4.35668,-1.75537c-1.51041,-1.06919 -2.21337,-2.68194 -2.66625,-3.58696c-0.18446,-0.36863 -16.85492,-29.26873 -16.85492,-29.26873" fill="#bf0000" fill-rule="evenodd" stroke-linecap="round" stroke-linejoin="round"/><path d="M219.33808,210.96827c-3.47486,-7.29514 1.97794,-7.63485 4.88496,-7.68015c1.26409,-0.0197 0.11902,-1.96108 4.08168,3.69655c0.87275,1.24603 3.93433,6.38159 7.15637,10.72892c2.20632,2.97687 4.85029,5.57852 5.47782,6.33107c1.48267,1.77811 2.06652,3.42877 2.06652,3.42877l-1.65002,-1.15218c0,0 1.10997,0.80451 1.63622,1.28981c1.63943,1.51178 2.88561,2.65247 2.88561,2.65247c0,0 -7.58025,-0.17613 -9.30349,2.20793c-1.72324,2.38406 1.8394,6.60786 1.8394,6.60786c0,0 -5.85217,-0.60138 -7.74988,-3.5005c-0.46784,-0.71471 -0.69538,-2.88667 -0.69538,-2.88667c0,0 -0.56196,0.14511 -0.8316,-0.35188c-0.13745,-0.25333 -1.18953,-4.04976 -3.12622,-8.29134c-2.54952,-5.58374 -6.17136,-12.02953 -6.67203,-13.08065z" fill="#000000" fill-rule="nonzero" stroke-linecap="butt" stroke-linejoin="miter"/></g><path d="M207.40237,206.15595c-0.11739,-0.21355 1.44566,0.36893 4.30766,0.33241c3.77572,-0.04816 9.26871,-0.69947 10.76362,-0.98179c3.87652,-0.73205 3.81943,-2.27886 4.13059,-1.71278c1.15148,2.09482 0.74513,6.07346 -3.91001,6.47107c-2.04572,0.17473 -5.97378,1.04326 -8.76792,0.39823c-3.56404,-0.82277 -5.8785,-3.33293 -6.52396,-4.50716z" fill="#004fd9" fill-rule="nonzero" stroke="#001026" stroke-width="1.2" stroke-linecap="butt" stroke-linejoin="miter"/><g fill-rule="nonzero" stroke-linecap="butt" stroke-linejoin="miter"><g fill="none" stroke="none" stroke-width="1" font-family="sans-serif" font-weight="normal" font-size="12" text-anchor="start"/><path d="M206.21603,204.81047c0,0 9.60659,0.97481 13.70764,0.79724c4.10101,-0.17756 6.79756,-1.68512 6.79756,-1.68512c0,0 1.06185,2.05304 0.23075,4.12334c-0.64331,1.60253 -2.5668,3.31134 -6.07438,3.48183c-3.19548,0.15533 -7.106,-0.36078 -9.5526,-1.63579c-3.70837,-1.93254 -5.10896,-5.08152 -5.10896,-5.08152z" fill="#000000" stroke="#001026" stroke-width="1.2"/></g><g stroke="#001026" stroke-width="1.2"><path d="M218.70656,209.63463c0,0 11.68263,30.4133 11.09565,30.53791c-1.68446,0.35759 -12.98994,-1.82258 -12.98994,-1.82258l-8.81589,-30.6912" fill="#ffab19" fill-rule="evenodd" stroke-linecap="round" stroke-linejoin="round"/><path d="M220.00481,209.08674c0,0 2.39315,6.43427 3.85357,9.83845c1.40079,3.26511 4.73754,10.18688 4.73754,10.18688c0,0 3.49802,4.98795 3.16167,6.26442c-0.15577,0.5912 -3.02358,-2.32175 -3.02358,-2.32175c0,0 3.12619,3.34586 3.33448,3.68337c1.45332,2.35485 1.78681,5.5082 -1.27029,5.92739c-3.3565,0.46023 -9.00686,1.05205 -12.95198,-0.70278c-3.57158,-1.58865 -5.59444,-5.4288 -6.01989,-7.02135c-0.29878,-1.11836 1.21406,-1.78569 0.89807,-3.16257c-0.21011,-0.91554 -1.10144,3.31727 -1.17269,2.08866c-0.0815,-1.40554 -0.67506,-7.67809 -0.67506,-7.67809l-4.14362,-19.60661" fill="#000000" fill-rule="evenodd" stroke-linecap="round" stroke-linejoin="round"/><path d="M231.2677,238.19141c0.76379,1.70352 1.03415,3.70663 -0.01357,4.79281c-1.05163,1.09019 -10.67703,1.047 -12.76398,-0.1548c-1.98191,-1.1413 -3.65207,-3.32792 -4.39753,-4.99053c-1.53041,-3.41332 1.0737,-6.1015 5.8165,-6.00415c4.74275,0.09734 9.8282,2.94333 11.35858,6.35669z" fill="#ff0000" fill-rule="nonzero" stroke-linecap="butt" stroke-linejoin="miter"/></g></g><g fill="#000000" fill-rule="nonzero" stroke="#001026" stroke-width="1.2" stroke-linecap="butt" stroke-linejoin="miter"><path d="M213.34471,216.28723c0,0 -2.77693,0.57586 -3.82875,0.3482c-0.32378,-0.07009 -1.5488,-0.97679 -2.49428,-2.07694c-1.18005,-1.37311 -2.10356,-3.08631 -2.36334,-4.29792c-0.66834,-3.11728 2.17325,-6.65548 4.60034,-6.1301c1.05189,0.22769 4.71436,2.6404 4.71932,2.64661"/></g></g><g fill-rule="nonzero" stroke-linecap="butt" stroke-linejoin="miter"><path d="M186.80216,194.27224c0,0 2.76494,-2.59893 5.29024,-2.95453c2.08717,-0.29391 3.96132,1.5499 4.4129,2.28821c0.79914,1.30663 0.55006,2.54651 -0.39559,3.75748c-0.95763,1.2263 -5.09878,2.89672 -5.09878,2.89672c0,0 -4.19921,3.23803 -6.02589,3.3886c-1.29859,0.10701 -2.35828,-0.26789 -3.02663,-1.36062c-1.03316,-1.68926 -1.70338,-3.87412 -0.19459,-5.92849c0.84011,-1.14384 5.03834,-2.08736 5.03834,-2.08736z" fill="#000000" stroke="#000000" stroke-width="1.2"/><g stroke="none" stroke-width="1"><path d="M197.4234,195.12379c-0.04739,-0.23146 0.06304,-0.34585 0.2168,-0.45545c0.25686,-0.15242 0.54067,-0.24764 0.80656,-0.3809c0.02454,-0.07872 0.04913,-0.15741 0.05647,-0.22892c0.23258,-1.5122 1.02617,-2.61836 2.02993,-3.58351c0.21267,-0.20258 0.41643,-0.42424 0.69124,-0.53848c0.05154,-0.0214 0.11126,-0.06908 0.12761,-0.12157c0.09004,-0.28859 0.31333,-0.38141 0.54485,-0.50046c0.19713,-0.1048 0.41223,-0.17139 0.61837,-0.25704c0.12022,-0.04997 0.25847,-0.06178 0.39835,0.01706c0.13982,0.07885 0.30425,0.07902 0.45142,0.08629c0.83835,-0.05169 1.68812,0.05165 2.5403,0.29098c0.47843,0.14355 0.91515,0.37294 1.36085,0.62146c1.31096,0.73356 2.35929,1.78173 3.20395,3.05159c0.37366,0.57525 0.6704,1.2053 0.89848,1.86388c0.17329,0.4987 0.20835,1.00926 0.21726,1.50783c0.02831,1.58643 -0.45777,2.95285 -1.31929,4.13286c-0.16035,0.22648 -0.38202,0.40995 -0.60371,0.59342c-0.14476,0.12868 -0.26342,0.26934 -0.27656,0.5031c-0.00497,0.20752 -0.12355,0.34816 -0.27732,0.45774c-0.25686,0.15242 -0.53169,0.26667 -0.80655,0.38091c-0.08591,0.03571 -0.1726,0.02609 -0.25932,0.01643c-0.32142,-0.07185 -0.60605,-0.02202 -0.8899,0.07314c-0.59303,0.2237 -1.24163,0.24217 -1.88123,0.27974c-0.24213,0.0093 -0.49319,-0.00046 -0.7451,-0.05552c-0.81621,-0.16294 -1.60714,-0.35928 -2.37586,-0.77028c-0.25763,0.10711 -0.54149,0.20225 -0.81631,0.31654c-0.10308,0.04284 -0.22332,0.09282 -0.34595,0.00684c-0.11365,-0.06691 -0.20776,-0.00498 -0.31079,0.0379c-0.69607,0.26655 -1.38316,0.55216 -2.07927,0.8187c-1.53779,0.61642 -3.0927,1.23999 -4.64847,1.81823c-1.5214,0.56395 -3.01581,1.18524 -4.51925,1.78736c-0.24049,0.09998 -0.48177,0.1546 -0.72222,0.25458c-1.16805,0.48557 -2.33613,0.97112 -3.51317,1.43761c-0.20612,0.08571 -0.39428,0.20955 -0.63716,0.17352c-0.08672,-0.0096 -0.16358,0.04517 -0.24948,0.08087c-0.85885,0.35707 -1.7439,0.70212 -2.60277,1.05916c-0.03436,0.01428 -0.08591,0.0357 -0.12022,0.04997c-0.26583,0.13337 -0.46621,0.05683 -0.71236,-0.16049c-0.81776,-0.73309 -1.36147,-1.62573 -1.63123,-2.67797c-0.06538,-0.26962 -0.0964,-0.55352 -0.08409,-0.8326c0.00499,-0.20753 0.1064,-0.34103 0.26914,-0.43152c0.48836,-0.2715 0.9677,-0.56208 1.47325,-0.84072c0.35992,-0.19529 0.755,-0.35954 1.08794,-0.61207c0.72557,-0.55275 1.5763,-0.88358 2.32879,-1.37909c0.42781,-0.26919 0.82046,-0.56941 1.25729,-0.81948c0.47113,-0.26436 0.90717,-0.55974 1.35213,-0.83608c0.81312,-0.49782 1.66137,-0.96461 2.46544,-1.48153c1.04294,-0.70751 2.1219,-1.3387 3.20081,-1.96985c0.36814,-0.22152 0.73614,-0.44303 1.10429,-0.66455c0.58241,-0.33348 1.182,-0.67401 1.76438,-1.0074c0.32557,-0.18102 0.61597,-0.39305 0.9415,-0.57406c0.33378,-0.20726 0.6601,-0.34292 1.02007,-0.5382zM197.88867,195.50112c0.00485,0.27197 0.04401,0.52962 0.14377,0.78497c0.07923,0.56067 0.28769,1.09044 0.49618,1.62021c0.25424,0.67057 0.58619,1.33165 0.90915,1.97361c0.3679,0.73745 0.88061,1.34622 1.41949,1.96698c0.07035,0.06209 0.14066,0.12418 0.24613,0.21728c0.13742,-0.05712 0.27483,-0.11427 0.41223,-0.17137c0.03435,-0.01427 0.05971,-0.04767 0.10222,-0.08817c-0.06294,-0.13364 -0.1431,-0.26015 -0.24037,-0.37952c-0.15947,-0.20768 -0.27553,-0.41057 -0.43496,-0.61825c-0.37284,-0.5299 -0.60015,-1.14322 -0.92147,-1.69453c-0.16113,-0.29834 -0.35646,-0.58238 -0.48319,-0.895c-0.26325,-0.68964 -0.61233,-1.3436 -0.80685,-2.06177c-0.04657,-0.18614 -0.1022,-0.39129 -0.14874,-0.57747c0.06712,-0.11921 -0.03924,-0.25765 -0.04981,-0.36744c-0.0024,-0.13595 -0.00486,-0.27198 -0.12094,-0.4748c-0.16036,0.22646 -0.41066,0.26204 -0.58082,0.42405c0.02779,0.10262 -0.03928,0.2218 0.05802,0.34117zM197.66437,196.50759c-0.05225,-0.5034 -0.08902,-0.62506 -0.24029,-0.85901c-0.19713,0.1048 -0.37708,0.20246 -0.57423,0.30719c-0.12022,0.04997 -0.17017,0.16202 -0.16775,0.29806c0.0016,0.09066 0.04658,0.18613 0.0482,0.27676c0.01462,0.33639 0.11605,0.68237 0.27707,0.98071c-0.02289,0.16935 0.04897,0.32206 0.12094,0.47482c0.38751,0.86628 0.74888,1.72065 1.22226,2.5512c0.21421,0.36759 0.4456,0.72801 0.68518,1.06216c0.20362,0.25786 0.41622,0.53473 0.73026,0.67816c0.22334,-0.09283 0.44657,-0.18568 0.66991,-0.2785c-0.10628,-0.13844 -0.20361,-0.25786 -0.29189,-0.35806c-0.38921,-0.47748 -0.74406,-0.96918 -1.03025,-1.48951c-0.37525,-0.66589 -0.66467,-1.36751 -0.97126,-2.06195c-0.15291,-0.3246 -0.19375,-0.6729 -0.36379,-0.99033c0.03927,-0.22179 -0.03345,-0.41987 -0.11437,-0.59167zM179.66123,206.82257c0.02284,0.31013 0.13155,0.58456 0.27463,0.84469c-0.0082,0.0262 -0.00738,0.07155 0.00163,0.09065c0.233,0.45108 0.50038,0.88787 0.85282,1.24363c0.20283,0.21254 0.38841,0.43213 0.66727,0.54449c0.96196,-0.39987 1.92383,-0.79979 2.93734,-1.22106c-0.40474,-0.37968 -0.70656,-0.80219 -0.99103,-1.23182c-0.25759,-0.37239 -0.3859,-0.77564 -0.60911,-1.16229c-0.07196,-0.15271 -0.11775,-0.29355 -0.18969,-0.44627c-0.02202,-0.26477 -0.0874,-0.53442 -0.2051,-0.82793c-0.51533,0.21424 -0.92433,0.56694 -1.38735,0.80502c-0.47117,0.26436 -0.93333,0.54782 -1.38731,0.80503c-0.03928,0.2218 -0.00176,0.38882 0.03588,0.55584zM182.88903,204.90998c-0.02289,0.16935 0.03186,0.32925 0.10378,0.48193c0.00322,0.18131 0.10134,0.34604 0.16509,0.52498c0.23466,0.54173 0.55513,1.04775 0.90104,1.52039c0.21258,0.27691 0.45959,0.53952 0.75724,0.7354c0.06871,-0.02856 0.14641,-0.03803 0.21512,-0.06664c0.84173,-0.34989 1.66617,-0.69261 2.51687,-1.02345c0.9022,-0.35222 1.78724,-0.69731 2.68946,-1.04955c1.31447,-0.52363 2.62077,-1.02095 3.93524,-1.54457c1.47806,-0.56876 2.91196,-1.18769 4.408,-1.71826c0.24947,-0.08086 0.49811,-0.2071 0.7558,-0.3142c-0.16763,-0.18144 -0.36062,-0.32949 -0.4939,-0.52522c-0.46934,-0.60394 -0.84463,-1.26985 -1.18557,-1.95003c-0.28776,-0.61092 -0.55839,-1.22902 -0.82897,-1.84713c-0.08257,-0.26249 -0.17328,-0.49873 -0.25585,-0.76121c0.03113,-0.19556 -0.08418,-0.35312 -0.12178,-0.52013c-0.04657,-0.18614 -0.04983,-0.36739 -0.15692,-0.55117c-0.18975,0.03323 -0.30921,0.12855 -0.42045,0.19761c-0.91456,0.63136 -1.91822,1.11702 -2.85973,1.69106c-0.60778,0.36684 -1.21556,0.7336 -1.8143,1.11953c-0.81311,0.49779 -1.60001,1.00758 -2.39592,1.49826c-0.65026,0.40736 -1.3006,0.81467 -1.95991,1.20286c-0.70186,0.42873 -1.3955,0.83122 -2.10633,1.2409c-0.64213,0.38109 -1.30141,0.76935 -1.95173,1.17664c0.06376,0.17892 0.01466,0.33638 0.10378,0.48194zM208.91026,201.71821c-0.35241,-0.35575 -0.61001,-0.72815 -0.88474,-1.09336c-0.28373,-0.38432 -0.57566,-0.74242 -0.84222,-1.13385c-0.25759,-0.37239 -0.48979,-0.77819 -0.73013,-1.15768c-0.24937,-0.39864 -0.49878,-0.79721 -0.73998,-1.22204c-0.22317,-0.38665 -0.43821,-0.79956 -0.66143,-1.18622c-0.21499,-0.41288 -0.36134,-0.85435 -0.64508,-1.23869c-0.0858,-0.44375 -0.35234,-0.83521 -0.52407,-1.2433c-0.16347,-0.43431 -0.37033,-0.87345 -0.53384,-1.30775c-0.15449,-0.4152 -0.30082,-0.85669 -0.43814,-1.27904c-0.14632,-0.44147 -0.2149,-0.89239 -0.41276,-1.31235c-0.43024,0.13318 -0.55047,0.18317 -0.78772,0.46443c0.02202,0.26477 0.04405,0.52963 0.11843,0.81832c0.10136,0.346 0.20265,0.69196 0.29585,1.0642c0.18553,0.69915 0.37925,1.37203 0.694,2.04024c0.21585,0.45823 0.44886,0.90931 0.59597,1.3961c0.02779,0.10262 0.08176,0.21715 0.17005,0.31742c0.15945,0.20768 0.25916,0.46306 0.36712,0.69213c0.39569,0.84007 0.89445,1.63727 1.40142,2.40823c0.65004,1.03117 1.40231,1.97411 2.20618,2.89562c0.15047,0.18856 0.30091,0.37721 0.52742,0.46559c0.27567,-0.06891 0.52436,-0.19513 0.82369,-0.38805zM207.32116,193.15526c-0.29525,-0.05988 -0.55456,-0.04345 -0.82281,-0.04608c-0.23392,-0.01694 -0.44904,0.04967 -0.61919,0.21173c-0.34112,0.27879 -0.72638,0.50746 -1.14766,0.65972c-0.03434,0.01427 -0.07689,0.05478 -0.09406,0.06192c-0.00654,0.11686 0.02943,0.19322 0.12591,0.26729c0.02616,0.01196 0.06953,0.01677 0.08672,0.00961c0.52514,-0.14982 1.06823,-0.2614 1.62933,-0.33486c0.07771,-0.00946 0.18974,-0.03323 0.24049,-0.09998c0.23887,-0.19062 0.47773,-0.38121 0.60129,-0.72942zM204.1878,193.08796c0.49076,-0.13555 0.98234,-0.2257 1.46575,-0.28964c0.15537,-0.01898 0.26665,-0.08802 0.37706,-0.20246c0.16117,-0.18114 0.26999,-0.38623 0.39602,-0.5984c0.05073,-0.06673 0.11862,-0.14061 0.03032,-0.24089c-0.33699,0.02593 -0.66581,0.02567 -0.98477,0.08974c-0.56855,0.62448 -0.56855,0.62448 -1.38404,0.98632c-0.02457,0.07869 -0.00576,0.16224 0.09971,0.25535zM204.69956,198.49158c-0.34517,0.05216 -0.68135,0.12344 -1.01751,0.19467c-0.07771,0.00946 -0.1554,0.01895 -0.21511,0.06658c-0.2119,0.24788 -0.43276,0.4767 -0.54815,0.79865c0.31403,0.14343 0.59866,0.09359 0.89314,0.10818c0.14719,0.00731 0.24128,-0.05466 0.33455,-0.16193c0.20288,-0.26697 0.42379,-0.49582 0.67083,-0.7126c0.01719,-0.00714 0.01639,-0.05244 0.03273,-0.10489c-0.04417,-0.05012 -0.09734,-0.11941 -0.15047,-0.18858zM209.1713,196.95221c-0.39176,-0.13396 -0.70338,-0.14142 -1.02399,-0.16793c-0.12105,0.00464 -0.19791,0.05946 -0.2748,0.11425c-0.35829,0.28596 -0.74361,0.51457 -1.18202,0.67401c-0.05152,0.02141 -0.09407,0.06191 -0.14559,0.08336c0.08174,0.21717 0.1169,0.2482 0.25432,0.19106c0.44664,-0.18568 0.92103,-0.26869 1.40602,-0.24204c0.29444,0.01457 0.49161,-0.09018 0.66992,-0.27846c0.08431,-0.12636 0.16041,-0.22647 0.29616,-0.37426zM205.2318,195.34805c0.04497,0.09545 0.1227,0.08594 0.19143,0.05742c0.48098,-0.19991 1.01669,-0.24002 1.55244,-0.28005c0.43185,-0.04255 0.79096,-0.28313 1.03395,-0.72663c-0.21754,-0.06939 -0.39832,-0.01706 -0.59786,-0.04825c-0.41632,-0.05525 -0.74267,0.08041 -1.05027,0.2996c-0.34191,0.23346 -0.67487,0.48602 -1.07074,0.60497c-0.04251,0.04053 -0.05077,0.06676 -0.05891,0.09298zM207.93971,196.29993c0.19552,-0.19544 0.4,-0.37176 0.58491,-0.67689c-0.26009,-0.02887 -0.44246,-0.06722 -0.61587,-0.08644c-0.28627,-0.04078 -0.50136,0.02579 -0.7059,0.20211c-0.27242,0.25023 -0.59797,0.43124 -0.93251,0.59314c-0.11126,0.06906 -0.24866,0.12619 -0.36888,0.17617c0.02779,0.10262 0.08824,0.10027 0.12266,0.08598c0.54312,-0.11165 1.0952,-0.20414 1.66611,-0.21315c0.09489,-0.01661 0.17257,-0.02608 0.24945,-0.08088zM205.43787,199.62294c-0.29039,0.21207 -0.62659,0.28328 -0.95377,0.37363c-0.08587,0.0357 -0.18159,0.00698 -0.24946,0.08088c-0.11046,0.11444 -0.27736,0.45776 -0.33308,0.73205c0.23474,0.06226 0.45884,0.01474 0.6838,0.01259c0.18159,-0.007 0.30997,-0.0832 0.40245,-0.23579c0.16853,-0.25267 0.35506,-0.46722 0.60294,-0.63877c0.01719,-0.00714 0.03352,-0.05962 0.0417,-0.08581c-0.01879,-0.08353 -0.05476,-0.15986 -0.19465,-0.23871zM201.22856,193.56474c-0.1865,0.21452 -0.48756,0.3168 -0.62992,0.58149c0.08013,0.12651 0.19298,0.14809 0.29769,0.1959c0.20038,0.07652 0.37537,0.18641 0.60929,0.20332c0.25526,-0.24306 0.61677,-0.34774 0.89816,-0.57885c0.00654,-0.11686 -0.03838,-0.21234 -0.11773,-0.29351c-0.34597,0.00683 -0.69277,-0.03163 -1.05753,-0.10831zM203.47478,196.28387c-0.18975,0.03323 -0.37951,0.06646 -0.5447,0.02095c-0.39989,-0.10772 -0.68296,0.03279 -0.90301,0.3069c-0.07607,0.10008 -0.17915,0.14295 -0.22828,0.30036c0.26176,0.11952 0.51362,0.17465 0.76555,0.22966c0.06953,0.01677 0.13821,-0.01181 0.21509,-0.06661c0.2217,-0.18351 0.43519,-0.34074 0.65689,-0.52418c0.05152,-0.0214 0.10226,-0.08818 0.03847,-0.26717zM202.90819,195.08107c-0.41388,0.08073 -0.81139,0.10897 -1.20313,-0.02498c-0.07848,-0.03585 -0.13821,0.01182 -0.2069,0.04039c-0.14561,0.08336 -0.28223,0.18582 -0.38285,0.36463c0.36641,0.16735 0.68786,0.23918 1.0264,0.30388c0.11287,0.02156 0.20774,0.00498 0.30182,-0.05699c0.17099,-0.1167 0.35094,-0.21438 0.52188,-0.33112c0.01717,-0.00713 0.03354,-0.05962 0.04172,-0.08583c-0.02696,-0.05729 -0.05395,-0.11458 -0.09895,-0.20999zM209.01311,198.75313c0.13577,-0.14778 0.2888,-0.30268 0.42462,-0.45047c0.0082,-0.02619 0.01637,-0.05247 0.03273,-0.10491c-0.25351,-0.14577 -0.51361,-0.17463 -0.73854,-0.17246c-0.46954,0.35502 -0.9047,0.69574 -1.48876,0.93852c0.40075,0.15304 0.61258,-0.09488 0.86287,-0.13044c0.30182,-0.05699 0.60443,-0.06863 0.90704,-0.08028zM207.60746,192.71657c0.1162,-0.27658 0.25037,-0.51508 0.24471,-0.8323c-0.1562,-0.02641 -0.28706,-0.08613 -0.41713,-0.10055c-0.13004,-0.0144 -0.26908,-0.04795 -0.38932,0.00206c-0.12759,0.12155 -0.16773,0.29806 -0.24301,0.44346c-0.07522,0.14546 -0.18573,0.25986 -0.19967,0.44828c0.33778,0.01937 0.6494,0.02682 1.00438,0.03909zM203.57788,191.88038c0.55129,-0.13788 1.0077,-0.25913 1.46408,-0.38035c0.03437,-0.01429 0.09491,-0.01659 0.11126,-0.06906c0.12598,-0.2122 0.30434,-0.4005 0.30767,-0.69866c-0.27646,0.02359 -0.53575,0.04005 -0.78604,0.07564c-0.27821,0.41244 -0.64464,0.72456 -1.09703,1.07246zM202.37517,198.17937c0.2012,0.12185 0.39093,0.08859 0.56432,0.10786c0.19954,0.03119 0.37213,0.00511 0.52511,-0.14981c0.21267,-0.20256 0.42539,-0.40514 0.71823,-0.48123c-0.02863,-0.14794 -0.08177,-0.21717 -0.1848,-0.17433c-0.26664,0.08803 -0.55049,0.18315 -0.82774,0.16144c-0.39834,-0.01708 -0.58409,0.24278 -0.79515,0.53604zM201.86276,196.13208c-0.40892,-0.12682 -0.73116,-0.24397 -1.04438,-0.34208c-0.12022,0.04997 -0.162,0.13581 -0.21267,0.20255c-0.04172,0.08582 -0.12676,0.16685 -0.09819,0.31475c0.23637,0.15293 0.49802,0.27241 0.7679,0.36573c0.19632,-0.1501 0.36647,-0.31216 0.58741,-0.54095zM202.43291,199.47943c0.17673,-0.27891 0.32807,-0.52451 0.49662,-0.77718c-0.28628,-0.04081 -0.55539,-0.08878 -0.82445,-0.13673c-0.16035,0.22648 -0.32155,0.40763 -0.36818,0.701c0.23552,0.10755 0.46126,0.15071 0.69598,0.21295zM208.58883,193.40453c-0.21097,-0.18628 -0.46128,-0.15069 -0.687,-0.19387c-0.06953,-0.01677 -0.14641,0.03799 -0.17994,0.09764c-0.11781,0.18595 -0.22746,0.3457 -0.32811,0.52448c-0.01719,0.00714 0.00081,0.04536 0.01878,0.08356c0.30344,0.0337 0.61502,0.04109 0.9185,0.07479c0.12681,-0.16684 0.19228,-0.37669 0.25776,-0.58658zM209.43227,196.54691c0.15297,-0.15493 0.28879,-0.30269 0.31013,-0.56268c-0.22655,-0.08847 -0.47107,-0.21511 -0.72217,-0.2249c-0.09328,0.10724 -0.2045,0.17634 -0.27159,0.29553c-0.07606,0.10007 -0.22252,0.13811 -0.19307,0.33137c0.29525,0.05991 0.59049,0.11981 0.87679,0.16062zM202.7706,199.9783c-0.11861,0.14064 -0.12356,0.34817 -0.1457,0.56283c0.27807,0.0671 0.52261,0.19368 0.79904,0.17013c0.06548,-0.20987 0.20947,-0.38386 0.24795,-0.65102c-0.30343,-0.0337 -0.59788,-0.04829 -0.90132,-0.08194zM206.27025,200.69239c-0.31819,0.10944 -0.61755,0.30244 -0.95378,0.37364c-0.27563,0.06894 -0.35008,0.2597 -0.3796,0.54592c0.25187,0.05507 0.45884,0.01474 0.69193,-0.0137c0.1579,-0.36244 0.43931,-0.59362 0.64139,-0.9059zM203.31473,190.71122c0.05315,0.06925 0.10465,0.04779 0.15621,0.02642c0.23228,-0.07374 0.47278,-0.17373 0.71409,-0.22836c0.36233,-0.05933 0.44417,-0.32165 0.5162,-0.64839c-0.13825,0.0118 -0.24209,0.00935 -0.33696,0.02594c-0.23311,0.02843 -0.43103,0.08784 -0.53905,0.33824c-0.07524,0.14544 -0.2119,0.2479 -0.3313,0.34325c-0.0777,0.00946 -0.18157,0.007 -0.17917,0.14295zM200.40259,192.85788c0.11364,0.06689 0.20938,0.09562 0.28786,0.13146c0.22732,0.1338 0.40895,0.1268 0.59708,0.0029c0.15378,-0.10956 0.35174,-0.16902 0.51452,-0.25955c0.05154,-0.0214 0.11204,-0.02375 0.06628,-0.16454c-0.28549,0.00447 -0.5889,-0.02915 -0.89314,-0.10818c-0.06951,-0.01679 -0.15538,0.01894 -0.2241,0.04748c-0.11941,0.09528 -0.22172,0.18347 -0.34849,0.35033zM201.87954,198.0429c0.13581,-0.14776 0.29777,-0.28358 0.38939,-0.48153c-0.27888,-0.11236 -0.53239,-0.25813 -0.81865,-0.29895c-0.11782,0.18598 -0.26261,0.31463 -0.26676,0.56752c0.22655,0.08849 0.44492,0.20321 0.69599,0.21296zM208.03072,195.09766c0.2789,0.11233 0.539,0.1412 0.78104,0.13187c0.11781,-0.18595 0.22742,-0.34567 0.30109,-0.58179c-0.17504,-0.1099 -0.35741,-0.14823 -0.54797,-0.16033c-0.16932,0.2074 -0.34768,0.39567 -0.53422,0.6102zM200.28905,196.67216c-0.0663,0.16457 -0.12518,0.2575 -0.14892,0.38155c-0.02454,0.07872 -0.03194,0.15026 -0.03932,0.22186c0.17582,0.15523 0.37699,0.27705 0.60274,0.32021c0.12681,-0.16684 0.25358,-0.33374 0.28389,-0.57465c-0.23552,-0.10754 -0.43672,-0.2294 -0.69841,-0.3489zM201.6011,191.6519c-0.30506,-0.1243 -0.51438,-0.21992 -0.76711,-0.32036c-0.0777,0.00946 -0.18894,0.07852 -0.26502,0.17867c-0.08507,0.081 -0.22328,0.09283 -0.25521,0.24309c0.13251,0.15041 0.27233,0.22923 0.43754,0.27472c0.26583,-0.13337 0.52352,-0.24044 0.84986,-0.37609zM208.27834,192.00397c-0.04093,0.13121 -0.08186,0.26238 -0.12278,0.3935c-0.04092,0.13119 -0.06464,0.2552 -0.10558,0.38636c0.25187,0.05512 0.45226,0.13163 0.65917,0.09129c0.07607,-0.10012 0.05648,-0.22896 0.06308,-0.34583c0.00654,-0.11686 0.06464,-0.25522 -0.01546,-0.38167c-0.17426,-0.06458 -0.31403,-0.14343 -0.47847,-0.14356zM201.29212,199.06335c0.09981,-0.22414 0.26102,-0.40532 0.29048,-0.69158c-0.20036,-0.0765 -0.39175,-0.13393 -0.59212,-0.21046c-0.09983,0.22415 -0.2005,0.40297 -0.17844,0.66777c0.14885,0.0979 0.26333,0.21019 0.48008,0.23421zM205.74866,191.34323c0.36316,-0.01394 0.68296,-0.03275 1.00271,-0.05157c0.06712,-0.11921 0.1432,-0.21934 0.11458,-0.36726c-0.28789,-0.13144 -0.57332,-0.12696 -0.86777,-0.14155c-0.06712,0.11925 -0.1342,0.23843 -0.17512,0.36959c-0.05976,0.04764 -0.0589,0.09297 -0.07449,0.19074zM200.58455,195.29362c0.135,-0.19313 0.34114,-0.27881 0.40659,-0.48866c-0.27071,-0.13858 -0.51522,-0.26523 -0.79335,-0.33232c-0.05728,0.18367 -0.22907,0.25502 -0.24222,0.4888c0.1758,0.15519 0.3844,0.20554 0.62891,0.33218zM209.82784,197.86643c0.15217,-0.20026 0.29615,-0.37423 0.33546,-0.59608c-0.16601,-0.09081 -0.34021,-0.15536 -0.51364,-0.1746c-0.15214,0.20026 -0.31331,0.38138 -0.49984,0.59591c0.24285,0.03601 0.43428,0.09342 0.67798,0.17478zM200.06964,193.11045c-0.18734,0.1692 -0.3493,0.30503 -0.3968,0.55305c0.15785,0.11701 0.28949,0.22212 0.46289,0.24139c0.17013,-0.16204 0.34927,-0.30503 0.54481,-0.50043c-0.20119,-0.12184 -0.39337,-0.22459 -0.61092,-0.29399zM209.28199,195.39943c0.26906,0.04796 0.47109,0.21513 0.67803,0.17476c0.11781,-0.18595 0.14895,-0.38155 0.15388,-0.58908c-0.19219,-0.10274 -0.3672,-0.21267 -0.58314,-0.19139c-0.07447,0.19075 -0.15791,0.36245 -0.24875,0.6057zM202.18086,200.38335c0.05729,-0.18364 0.13257,-0.32909 0.12031,-0.52949c-0.25187,-0.05507 -0.47107,-0.21515 -0.73037,-0.19865c-0.0663,0.16455 -0.08106,0.30768 -0.01727,0.48663c0.20936,0.09562 0.42692,0.16501 0.62729,0.24148zM205.6442,190.33643c0.08347,-0.17168 0.10716,-0.29568 0.09579,-0.45079c-0.20039,-0.07653 -0.42611,-0.1197 -0.63221,-0.03399c-0.0491,0.15741 -0.0982,0.31476 -0.16451,0.47934c0.26089,0.07419 0.47599,0.00759 0.70095,0.00542zM205.47092,202.44025c0.03194,-0.15022 0.05569,-0.27429 0.01891,-0.39594c-0.22569,-0.04317 -0.43349,-0.04809 -0.64041,-0.00771c-0.05812,0.13827 -0.08184,0.26231 -0.05325,0.41025c0.23474,0.06224 0.44984,-0.00437 0.67475,-0.00657zM200.04832,197.73106c-0.15216,0.20022 -0.09741,0.36011 0.00069,0.52482c0.06292,0.13364 0.16025,0.25302 0.32466,0.25318c0.08347,-0.17168 0.14975,-0.3362 0.1547,-0.54374c-0.16603,-0.09079 -0.32304,-0.16251 -0.48005,-0.23424zM209.41856,199.65759c0.1276,-0.12152 0.265,-0.17864 0.28794,-0.34801c-0.47188,-0.26044 -0.75332,-0.02933 -1.02406,0.31155c0.25108,0.00981 0.48504,0.02671 0.73611,0.03646zM199.60701,195.79128c0.14962,0.1433 0.28949,0.22211 0.49803,0.27242c0.02289,-0.16935 0.18572,-0.25988 0.18246,-0.44115c-0.07112,-0.10744 -0.15783,-0.11704 -0.2453,-0.17198c-0.10465,-0.04779 -0.18398,-0.12901 -0.30423,-0.07903c-0.06711,0.11922 -0.1342,0.23846 -0.13094,0.41974zM205.50737,195.75854c-0.00415,0.25284 0.08417,0.35313 0.24773,0.30794c0.23229,-0.07372 0.44664,-0.18565 0.64374,-0.29047c0.06869,-0.02853 0.14559,-0.08339 0.126,-0.21218c-0.35414,0.03308 -0.6903,0.10436 -1.0175,0.19464zM202.65913,201.48583c-0.08506,0.08099 -0.10063,0.17883 -0.06387,0.30055c0.24453,0.12669 0.48986,0.29868 0.7843,0.31325c-0.00487,-0.27195 -0.12013,-0.42955 -0.35486,-0.49175c-0.10467,-0.0478 -0.21021,-0.14096 -0.36561,-0.122zM206.88421,198.24547c0.12588,0.26728 0.18727,0.31026 0.34182,0.24602c0.23149,-0.11909 0.48017,-0.24525 0.67568,-0.44071c-0.38115,-0.02421 -0.73611,-0.03643 -1.01749,0.19466zM206.48928,201.81139c-0.14639,0.038 -0.26666,0.08805 -0.39587,0.11892c-0.2495,0.08085 -0.24947,0.0809 -0.17351,0.46025c0.13825,-0.01183 0.30264,-0.01163 0.38029,-0.02113c0.06551,-0.20987 0.13174,-0.37439 0.18901,-0.55804zM210.20002,193.99044c-0.13984,-0.07888 -0.25515,-0.23639 -0.44412,-0.15785c-0.03193,0.15024 -0.03769,0.31246 -0.07778,0.48894c0.16602,0.09083 0.32381,0.20787 0.48824,0.20799c0.02288,-0.16939 0.07205,-0.32678 0.03366,-0.53913zM204.58364,201.21089c-0.26826,-0.00259 -0.54553,-0.0244 -0.81379,-0.02698c-0.06788,0.07391 -0.10962,0.15969 -0.02132,0.25996c0.23553,0.10756 0.48747,0.1627 0.73774,0.12712c0.06712,-0.11921 0.09982,-0.22415 0.09739,-0.36016zM210.22779,197.97424c0.08013,0.12651 0.1938,0.19343 0.33284,0.22694c0.05074,-0.06675 0.10143,-0.13348 0.15216,-0.20025c0.05891,-0.09297 0.12679,-0.1669 0.10718,-0.29571c-0.05396,-0.11456 -0.13325,-0.19574 -0.25515,-0.23638c-0.10963,0.15976 -0.22742,0.34569 -0.33708,0.50539zM208.79975,194.07028c0.16602,0.09083 0.32226,0.11718 0.48665,0.11735c0.03113,-0.19556 0.07119,-0.37205 0.09416,-0.54137c-0.12351,-0.13132 -0.26252,-0.16483 -0.37458,-0.1411c-0.07448,0.19075 -0.14892,0.38154 -0.20627,0.56517zM210.05505,198.9592c0.07609,-0.1001 0.15216,-0.20022 0.21929,-0.31946c0.0082,-0.02619 -0.00981,-0.06443 -0.0106,-0.10979c-0.08747,-0.05496 -0.17582,-0.15523 -0.34021,-0.15536c-0.11047,0.11444 -0.2642,0.22401 -0.33868,0.41477c0.15782,0.11701 0.29687,0.15052 0.47025,0.16976zM209.05445,200.58521c0.19793,-0.05944 0.33124,0.13629 0.50301,0.06487c0.1014,-0.13347 0.24706,-0.2168 0.31252,-0.42669c-0.14885,-0.0979 -0.28871,-0.17679 -0.41628,-0.05522c-0.12761,0.12154 -0.29116,0.16671 -0.39921,0.41706zM203.90214,202.29331c0.15619,0.0264 0.32142,0.07185 0.46043,0.10538c0.02615,0.01195 0.05156,-0.02141 0.08589,-0.03573c-0.01062,-0.10973 0.03034,-0.24088 -0.10219,-0.3913c-0.18238,-0.0383 -0.38194,-0.06954 -0.59052,-0.11979c-0.00574,0.1622 0.03102,0.28391 0.14632,0.44147zM209.42317,193.12612c0.04914,-0.15741 0.1154,-0.32192 0.15629,-0.45308c-0.13251,-0.15041 -0.27232,-0.2293 -0.40316,-0.28902c-0.11126,0.06911 -0.06544,0.20985 -0.08103,0.30768c-0.01554,0.09782 -0.0483,0.20272 0.03186,0.32923c0.07034,0.06209 0.15784,0.11705 0.29609,0.10525zM199.42744,193.97097c-0.07523,0.14544 -0.12521,0.25755 -0.1751,0.3696c-0.02539,0.03336 -0.01558,0.09779 -0.02373,0.12403c0.06292,0.13364 0.17661,0.20058 0.31566,0.23406c0.09245,-0.1526 0.19389,-0.28611 0.25121,-0.46967c-0.10549,-0.09313 -0.21917,-0.16005 -0.36802,-0.25798zM206.74927,202.31976c0.25929,-0.01643 0.51854,-0.0329 0.73207,-0.19014c-0.13247,-0.15039 -0.2216,-0.29603 -0.40398,-0.33435c-0.24708,0.21682 -0.24707,0.21684 -0.3281,0.52449zM199.51944,196.21584c-0.17352,0.46024 -0.1645,0.4793 0.16921,0.7516c0.0663,-0.16459 0.10636,-0.34102 0.1727,-0.50553c-0.08011,-0.1265 -0.19379,-0.19338 -0.3418,-0.24603zM210.38103,196.86033c0.09246,-0.15259 0.15053,-0.29095 0.14733,-0.47224c-0.03516,-0.03103 -0.09652,-0.07405 -0.15784,-0.11705c-0.05235,-0.02389 -0.12187,-0.04069 -0.17417,-0.06455c-0.09242,0.15261 -0.21105,0.29326 -0.225,0.4817c0.10548,0.09312 0.25351,0.14577 0.40973,0.1721zM199.69523,192.48983c0.06132,0.04298 0.14887,0.09791 0.20939,0.09562c0.21595,-0.02127 0.36965,-0.13085 0.49569,-0.34306c-0.12267,-0.08602 -0.22895,-0.22446 -0.35902,-0.23889c-0.1358,0.14777 -0.31574,0.24542 -0.34606,0.48632zM206.95361,190.49988c0.00819,-0.02619 0.01635,-0.05245 0.03273,-0.10491c-0.25436,-0.19108 -0.53322,-0.30345 -0.81211,-0.41578c-0.09327,0.10723 -0.10881,0.20506 -0.05405,0.36492c0.26906,0.04796 0.54712,0.11496 0.83342,0.15583zM207.05871,196.87155c-0.3116,-0.00744 -0.61503,-0.04109 -0.89807,0.09937c-0.01719,0.00714 -0.01555,0.0978 0.00242,0.13597c0.04497,0.09544 0.14965,0.14324 0.23551,0.10749c0.25027,-0.03554 0.45561,-0.16656 0.6601,-0.34288zM210.68538,195.98034c0.05812,-0.13827 0.11623,-0.27661 0.12198,-0.43882c-0.06294,-0.13364 -0.14225,-0.21484 -0.30745,-0.26031c-0.0401,0.17653 -0.09742,0.36012 -0.12036,0.52944c0.08828,0.10023 0.17579,0.15518 0.30588,0.16962zM200.61157,199.23209c0.10873,0.27443 0.19945,0.51069 0.4276,0.6898c0.12759,-0.12155 0.13338,-0.28372 0.11297,-0.45791c-0.17501,-0.10989 -0.32382,-0.20784 -0.54061,-0.23189zM200.73756,190.77804c0.184,0.129 0.21015,0.14097 0.2617,0.11955c0.18075,-0.05228 0.29043,-0.21205 0.38285,-0.36463c0.03352,-0.05958 0.00571,-0.16223 -0.12431,-0.17665c-0.10068,0.17882 -0.35996,0.19528 -0.52025,0.42177zM207.19306,191.31356c0.27808,0.06708 0.54797,0.16033 0.84896,0.05802c-0.24613,-0.21728 -0.51525,-0.26523 -0.74994,-0.32749c-0.07689,0.0548 -0.08426,0.12635 -0.09897,0.26946zM199.36014,195.04919c-0.09649,-0.07402 -0.17582,-0.15518 -0.27232,-0.22922c-0.10967,0.15974 -0.1759,0.32427 -0.02543,0.51286c0.04416,0.05015 0.08829,0.10024 0.16601,0.09081c0.08506,-0.08099 0.10883,-0.20508 0.13175,-0.37439zM207.65846,199.45325c0.08096,0.17182 0.15122,0.23392 0.27965,0.1577c0.11127,-0.06909 0.2225,-0.13814 0.32476,-0.22634c0.0425,-0.04051 0.07611,-0.10015 0.02294,-0.16935c-0.2331,0.02841 -0.42202,0.10697 -0.62736,0.23798zM204.58472,192.05543c-0.25932,0.01643 -0.5006,0.07113 -0.6969,0.22122c-0.01719,0.00714 -0.01552,0.0978 -0.00653,0.11687c0.01797,0.03817 0.0875,0.05496 0.12185,0.04066c0.21432,-0.11189 0.43844,-0.15942 0.58163,-0.37879zM203.56899,191.3818c0.1448,-0.12868 0.33377,-0.20724 0.46877,-0.40029c-0.26826,-0.00262 -0.4752,0.03776 -0.55129,0.13787c-0.08508,0.08103 -0.04913,0.15742 0.08256,0.26247zM201.69004,200.9983c0.15947,0.20768 0.28539,0.47501 0.55449,0.52295c-0.02446,-0.40077 -0.29354,-0.44871 -0.55449,-0.52295zM204.69035,199.43134c0.01798,0.03816 0.04421,0.0502 0.06214,0.08835c0.16276,-0.09049 0.35334,-0.07843 0.46296,-0.23815c-0.03679,-0.12169 -0.08096,-0.17184 -0.19382,-0.19339c-0.09327,0.10724 -0.2037,0.22167 -0.33131,0.34324zM205.65815,194.50865c-0.26745,0.0427 -0.4744,0.08308 -0.67153,0.18785c-0.03437,0.01429 -0.05075,0.0667 -0.02374,0.12401c0.00899,0.01913 0.04413,0.05015 0.07035,0.0621c0.25929,-0.01643 0.46539,-0.10216 0.62495,-0.37395zM199.64193,192.90009c-0.08829,-0.10026 -0.14963,-0.14326 -0.18319,-0.08364c-0.09327,0.10724 -0.1775,0.23364 -0.26179,0.36c-0.04172,0.08582 -0.01478,0.1431 0.08095,0.17183c0.16201,-0.1358 0.28962,-0.25737 0.36407,-0.44813zM210.56946,194.81853c0.0875,0.05496 0.15785,0.11702 0.24533,0.17198c0.02616,0.01196 0.06053,-0.0023 0.12104,-0.00464c-0.10787,-0.22909 -0.15529,-0.46049 -0.34092,-0.68016c-0.0401,0.17653 -0.06387,0.30053 -0.02544,0.51287zM202.58448,194.39372c-0.16281,0.0905 -0.3084,0.17386 -0.50553,0.27864c0.26175,0.11951 0.44328,0.11253 0.60605,0.02203c0.00657,-0.11689 -0.00324,-0.1813 -0.10052,-0.30068zM205.83773,200.21007c-0.08432,0.12636 -0.29119,0.1667 -0.29534,0.41957c0.43923,-0.11412 0.52511,-0.14981 0.51452,-0.25957c-0.04497,-0.09544 -0.10631,-0.13847 -0.21917,-0.16005zM205.08419,193.3774c-0.36557,-0.12203 -0.5717,-0.03629 -0.79339,0.14718c0.33205,0.18161 0.50053,-0.07115 0.79339,-0.14718zM208.96787,200.09614c-0.33938,-0.11005 -0.5284,-0.03149 -0.71653,0.09238c-0.01716,0.00714 -0.01634,0.05248 0.00162,0.09064c0.02696,0.0573 0.07932,0.08116 0.11365,0.06691c0.18076,-0.05228 0.34353,-0.14279 0.6012,-0.24991zM206.52706,201.01948c-0.1276,0.12152 -0.29039,0.21207 -0.32068,0.45289c0.19877,-0.01413 0.34434,-0.0975 0.47277,-0.17371c-0.00241,-0.13595 -0.05556,-0.20516 -0.15206,-0.27923zM210.07288,199.95641c0.09165,-0.19793 0.28058,-0.27646 0.25938,-0.49595c-0.26747,0.04271 -0.26745,0.0427 -0.40902,0.35267c0.03516,0.03103 0.07035,0.06209 0.14964,0.14328zM202.63145,200.9038c0.17745,0.24585 0.39498,0.31524 0.62072,0.35837c0.07608,-0.10011 0.04011,-0.17649 -0.03837,-0.21233c-0.18237,-0.03832 -0.37381,-0.09579 -0.58231,-0.14602zM210.73924,197.05387c0.07113,0.10744 0.13325,0.19575 0.26326,0.21015c0.0499,-0.11208 0.09988,-0.22416 0.06306,-0.34581c-0.06214,-0.08831 -0.12348,-0.1313 -0.21019,-0.14092c-0.06788,0.07392 -0.09247,0.15258 -0.11618,0.27662zM203.46473,197.17842c0.16437,0.00016 0.28548,-0.00449 0.37054,-0.08554c0.02539,-0.03336 0.02457,-0.07869 0.02375,-0.12402c-0.02696,-0.05729 -0.09729,-0.11939 -0.13984,-0.07886c-0.10308,0.04287 -0.22332,0.09286 -0.25445,0.28846zM210.16415,193.43454c-0.02941,-0.19326 -0.18725,-0.31029 -0.29354,-0.44873c-0.11539,0.32195 -0.09737,0.36013 0.29354,0.44873zM203.08257,190.30547c0.29364,-0.03074 0.29362,-0.03075 0.31576,-0.24543c-0.12105,0.00466 -0.25933,0.01647 -0.31576,0.24543zM204.47715,198.15021c0.01552,-0.09782 -0.01141,-0.15506 -0.05474,-0.15987c-0.18238,-0.03829 -0.22492,0.00217 -0.29858,0.2383c0.1472,0.00732 0.25032,-0.03552 0.35336,-0.07838zM209.2081,200.95506c-0.1309,-0.05974 -0.25272,-0.10041 -0.35495,-0.0123c0.19545,0.28401 0.23872,0.28886 0.35495,0.0123zM203.49486,189.65466c-0.17423,-0.06458 -0.32062,-0.02655 -0.44981,0.00434c-0.06871,0.02854 -0.09328,0.10726 0.02938,0.19328c0.1292,-0.03093 0.27567,-0.06891 0.42045,-0.19761zM210.69388,198.8763c-0.18975,0.03323 -0.2487,0.12619 -0.2111,0.29325c0,0 0.03515,0.03105 0.05235,0.02389c0.11205,-0.02376 0.12682,-0.16684 0.15878,-0.31714zM202.9997,195.84212c0.08829,0.10024 0.17505,0.10987 0.23471,0.06223c0.03435,-0.01429 0.05073,-0.06675 0.04993,-0.11206c-0.00083,-0.04532 -0.06213,-0.0883 -0.09649,-0.074c-0.06055,0.00231 -0.12921,0.03088 -0.18814,0.12386zM211.03383,196.1095c-0.08431,0.12636 -0.09986,0.22413 0.04081,0.34831c0.09245,-0.15262 0.09084,-0.24323 -0.04081,-0.34831z" fill="#000000"/><path d="M196.84541,198.12646c0.27058,0.61808 0.54119,1.23622 0.82901,1.84715c0.32376,0.68734 0.71624,1.34604 1.18556,1.95002c0.15047,0.18858 0.31726,0.32469 0.49386,0.52525c-0.27488,0.11426 -0.5063,0.23337 -0.75578,0.31419c-1.47889,0.52344 -2.92994,1.14947 -4.408,1.71826c-1.32347,0.50449 -2.62075,1.02094 -3.93524,1.54457c-0.90221,0.35224 -1.78727,0.69731 -2.68946,1.04949c-0.8507,0.33082 -1.66618,0.69264 -2.51685,1.02347c-0.06871,0.02856 -0.13743,0.05711 -0.21513,0.0666c-0.31485,-0.18872 -0.53563,-0.43944 -0.75722,-0.7354c-0.34589,-0.47266 -0.66639,-0.97866 -0.90102,-1.52037c-0.08096,-0.17182 -0.17907,-0.33651 -0.16511,-0.52493c0.11529,0.15755 0.15369,0.36987 0.3385,0.54421c0.21188,-0.24786 0.53087,-0.31197 0.79672,-0.44534c0.01719,-0.00714 0.03434,-0.01425 0.02536,-0.03336c0.39187,-0.34552 0.89,-0.55258 1.32601,-0.848c0.15379,-0.10957 0.28057,-0.27649 0.47033,-0.30971c0.36156,-0.10462 0.60694,-0.41213 0.96852,-0.51678c0.01716,-0.00714 0.04252,-0.04051 0.07689,-0.0548c0.29936,-0.19295 0.57259,-0.39782 0.88996,-0.5526c0.37792,-0.15712 0.64954,-0.45268 1.0454,-0.57157c0.16933,-0.20737 0.41067,-0.262 0.64214,-0.38106c0.03437,-0.01429 0.05157,-0.02143 0.08589,-0.03571c0.27161,-0.29556 0.6683,-0.36916 0.9759,-0.58835c0.30755,-0.21915 0.68626,-0.33094 1.00284,-0.53105c0.36814,-0.22152 0.69201,-0.4932 1.13128,-0.60726c0.03437,-0.01429 0.08591,-0.03569 0.11126,-0.06907c0.13497,-0.19313 0.36811,-0.22152 0.56526,-0.32627c0.10308,-0.04284 0.23228,-0.07372 0.31737,-0.15476c0.11864,-0.1406 0.26501,-0.17865 0.41963,-0.24294c0.08588,-0.0357 0.18078,-0.05231 0.23147,-0.11904c0.16932,-0.2074 0.42781,-0.26918 0.65111,-0.36199c0.08591,-0.03571 0.18075,-0.05231 0.23151,-0.11907c0.144,-0.17398 0.34191,-0.23346 0.5309,-0.31199c0.30921,-0.12856 0.55544,-0.3907 0.87359,-0.50013c0.06051,-0.00233 0.0851,-0.08101 0.12761,-0.12153z" fill="#87d7dc"/><path d="M196.84535,198.12653c-0.04255,0.0405 -0.0671,0.11922 -0.11862,0.14065c-0.31818,0.10945 -0.5734,0.35252 -0.8736,0.50015c-0.18896,0.07853 -0.38694,0.13801 -0.53091,0.31201c-0.05072,0.06675 -0.14561,0.08335 -0.23144,0.11908c-0.2233,0.09286 -0.47279,0.1737 -0.65113,0.36196c-0.05074,0.06674 -0.15461,0.06427 -0.23146,0.11906c-0.15458,0.06427 -0.29203,0.12141 -0.41966,0.24293c-0.08506,0.08099 -0.21434,0.1119 -0.31739,0.15477c-0.19713,0.1048 -0.43026,0.1332 -0.56523,0.3263c-0.0254,0.03337 -0.07692,0.0548 -0.11126,0.06907c-0.42205,0.10697 -0.76322,0.38577 -1.13129,0.60727c-0.33376,0.20723 -0.71245,0.31899 -1.00285,0.53103c-0.30754,0.21917 -0.70428,0.29279 -0.97588,0.58832c-0.00819,0.02619 -0.05156,0.02141 -0.08591,0.0357c-0.2233,0.09286 -0.47275,0.17373 -0.64215,0.38111c-0.40488,0.0998 -0.67646,0.39539 -1.04538,0.57154c-0.32635,0.13568 -0.59059,0.35969 -0.88998,0.5526c-0.03437,0.01429 -0.04256,0.04056 -0.07691,0.05481c-0.36156,0.10462 -0.60694,0.41213 -0.96852,0.51678c-0.19792,0.05946 -0.30759,0.21917 -0.47034,0.30968c-0.44499,0.27629 -0.93415,0.50249 -1.32601,0.84799c-0.01719,0.00714 -0.02536,0.03339 -0.02536,0.03339c-0.26585,0.13336 -0.58487,0.19743 -0.79674,0.44535c-0.17581,-0.15519 -0.19702,-0.37473 -0.33851,-0.54423c-0.07196,-0.15271 -0.14383,-0.30546 -0.10374,-0.48198c0.10308,-0.04287 0.23226,-0.07372 0.31733,-0.15475c0.29775,-0.28359 0.66751,-0.41446 1.01027,-0.60258c0.34269,-0.18811 0.64049,-0.47176 1.04536,-0.57156c0.16932,-0.2074 0.41063,-0.26206 0.64213,-0.38109c0.03435,-0.01429 0.08587,-0.0357 0.11126,-0.06911c0.10966,-0.15973 0.29936,-0.19292 0.44502,-0.27632c0.0859,-0.03571 0.17174,-0.07145 0.23147,-0.11904c0.33294,-0.25256 0.69202,-0.49318 1.08711,-0.65741c0.05154,-0.0214 0.12928,-0.03088 0.1456,-0.08337c0.1268,-0.16684 0.30756,-0.21919 0.47935,-0.29059c0.19792,-0.05946 0.30676,-0.26452 0.52189,-0.33108c0.28383,-0.09514 0.49651,-0.29774 0.75336,-0.45015c0.35991,-0.19529 0.66667,-0.45978 1.06175,-0.624c0.06872,-0.02856 0.16359,-0.04519 0.19713,-0.10479c0.10146,-0.13345 0.26499,-0.17868 0.41064,-0.262c0.13741,-0.05713 0.26583,-0.13333 0.36813,-0.22148c0.18735,-0.16918 0.39266,-0.30019 0.6331,-0.40021c0.35174,-0.16902 0.64951,-0.45267 1.05438,-0.55248c0.03437,-0.01429 0.07691,-0.05477 0.11126,-0.06907c0.33378,-0.20725 0.65848,-0.43358 1.01023,-0.60257c0.37787,-0.15712 0.68387,-0.46696 1.07975,-0.58584c0.05156,-0.02141 0.08506,-0.08102 0.1276,-0.12152c0.20531,-0.13099 0.4368,-0.2501 0.68709,-0.28562c0.06213,0.08834 0.09813,0.16467 0.15125,0.23394c0.07437,0.28874 0.14795,0.5321 0.24767,0.78746z" fill="#b0eef2"/><path d="M208.91028,201.71822c-0.29934,0.19293 -0.54808,0.31913 -0.84171,0.34987c-0.20938,-0.09562 -0.35985,-0.28419 -0.52745,-0.46562c-0.78661,-0.92867 -1.55608,-1.86449 -2.20614,-2.89561c-0.48976,-0.77815 -0.98858,-1.57536 -1.40142,-2.40824c-0.10789,-0.2291 -0.20765,-0.48444 -0.36708,-0.69216c-0.06216,-0.08831 -0.11609,-0.20287 -0.17004,-0.31742c-0.14713,-0.48679 -0.39731,-0.93069 -0.59599,-1.39608c-0.28862,-0.65631 -0.50849,-1.34113 -0.69399,-2.04022c-0.08418,-0.35313 -0.18554,-0.69914 -0.29589,-1.06421c-0.0915,-0.28155 -0.09639,-0.5535 -0.11844,-0.81834c0.24625,-0.26218 0.35746,-0.33123 0.78772,-0.46443c0.18069,0.42711 0.26647,0.87094 0.41276,1.31237c0.13732,0.42236 0.28364,0.86378 0.43813,1.27903c0.16346,0.43432 0.35316,0.88059 0.53382,1.30777c0.15449,0.4152 0.42108,0.80664 0.52405,1.24335c0.28374,0.38435 0.43004,0.82578 0.64507,1.23867c0.20603,0.39381 0.43823,0.79954 0.66146,1.18621c0.2322,0.40577 0.4816,0.80435 0.73995,1.22209c0.24038,0.3795 0.47257,0.78528 0.73018,1.15766c0.26656,0.39145 0.55845,0.74956 0.84221,1.13393c0.29273,0.4034 0.55028,0.77578 0.90275,1.13156z" fill="#d1eaeb"/><path d="M196.58948,197.36541c-0.05315,-0.06924 -0.08913,-0.14558 -0.15126,-0.23389c-0.25029,0.03556 -0.47358,0.12838 -0.68708,0.28564c-0.04256,0.0405 -0.07608,0.10011 -0.1276,0.12152c-0.39587,0.1189 -0.71087,0.40969 -1.07977,0.58584c-0.36073,0.14995 -0.67647,0.39536 -1.01026,0.60256c-0.03435,0.01429 -0.07691,0.05481 -0.11125,0.06909c-0.40488,0.09979 -0.67646,0.39533 -1.0544,0.55244c-0.22328,0.09287 -0.4458,0.23099 -0.63313,0.40022c-0.1194,0.09527 -0.24784,0.17154 -0.36811,0.22152c-0.15458,0.06427 -0.301,0.1023 -0.41065,0.26202c-0.03353,0.05956 -0.12844,0.07622 -0.19716,0.10476c-0.37792,0.15712 -0.70181,0.42877 -1.06174,0.62402c-0.25688,0.15241 -0.46954,0.35502 -0.75336,0.45013c-0.19792,0.05946 -0.30677,0.26452 -0.52189,0.33108c-0.18078,0.05231 -0.3787,0.11176 -0.47935,0.29057c-0.04256,0.0405 -0.09405,0.06191 -0.14559,0.08336c-0.39508,0.16423 -0.73701,0.39765 -1.0871,0.65742c-0.07689,0.05478 -0.17173,0.07142 -0.23144,0.11905c-0.15456,0.06426 -0.33534,0.11661 -0.44496,0.27632c-0.02537,0.03337 -0.07689,0.0548 -0.11126,0.06907c-0.2233,0.09286 -0.47277,0.17373 -0.64213,0.38109c-0.40488,0.09979 -0.70265,0.38342 -1.04536,0.57156c-0.3427,0.18812 -0.72961,0.32613 -1.01023,0.60256c-0.08506,0.08099 -0.21433,0.1119 -0.31738,0.15478c-0.09812,-0.1647 -0.04901,-0.32207 -0.09481,-0.46285c0.67646,-0.39538 1.30964,-0.79555 1.95175,-1.17661c0.70186,-0.42873 1.3955,-0.83126 2.10632,-1.24092c0.65929,-0.38822 1.30962,-0.79559 1.95991,-1.20286c0.81311,-0.49781 1.59999,-1.0076 2.3959,-1.49829c0.60779,-0.36683 1.21558,-0.7336 1.81435,-1.11953c0.94151,-0.57405 1.93619,-1.07888 2.85971,-1.69109c0.12841,-0.07621 0.23887,-0.19062 0.42044,-0.19761c0.08096,0.17182 0.11036,0.36506 0.15694,0.5512c0.01062,0.10973 0.1259,0.26728 0.11198,0.45574z" fill="#87d7dc"/><path d="M182.76041,205.94521c0.22322,0.38665 0.36875,0.78279 0.60913,1.16226c0.28455,0.42965 0.58628,0.85215 0.99104,1.23183c-0.99628,0.41417 -1.97537,0.82121 -2.93731,1.22106c-0.28791,-0.13145 -0.47347,-0.35111 -0.66728,-0.54452c-0.36145,-0.37486 -0.60265,-0.7997 -0.85282,-1.24363c-0.00899,-0.01911 -0.00979,-0.06439 -0.00162,-0.09065c0.18401,0.12901 0.29443,0.01459 0.41388,-0.08075c0.29857,-0.2383 0.60613,-0.45748 0.95868,-0.58116c0.06873,-0.02855 0.13742,-0.05712 0.19713,-0.1048c0.27242,-0.25026 0.62495,-0.37395 0.92431,-0.56693c0.17101,-0.11671 0.29034,-0.21206 0.36484,-0.4028z" fill="#61afb4"/><path d="M198.73916,196.12921c0.21169,0.71107 0.54362,1.37215 0.80687,2.06177c0.12671,0.31258 0.30499,0.60381 0.48323,0.89503c0.30415,0.5585 0.54857,1.1646 0.92147,1.69453c0.14225,0.21484 0.28453,0.42967 0.43497,0.61827c0.09732,0.11937 0.17746,0.24584 0.24039,0.37952c-0.0425,0.04051 -0.06791,0.07388 -0.1023,0.08815c-0.13741,0.05711 -0.27483,0.11427 -0.41223,0.17142c-0.09649,-0.07402 -0.16681,-0.13615 -0.24613,-0.21731c-0.52986,-0.60159 -1.06877,-1.22236 -1.41951,-1.96697c-0.32295,-0.64202 -0.65488,-1.30303 -0.90915,-1.97362c-0.20848,-0.52979 -0.4341,-1.05242 -0.49618,-1.62021c0.07933,0.08116 0.08175,0.21715 0.22078,0.25068c0.20692,-0.04039 0.4572,-0.07593 0.47773,-0.38124z" fill="#61aeb3"/><path d="M197.80418,197.06585c0.18724,0.31029 0.22803,0.65861 0.36378,0.99032c0.30659,0.69449 0.61313,1.38895 0.97126,2.06196c0.29513,0.53938 0.65006,1.03113 1.03027,1.48952c0.0973,0.11938 0.19458,0.23871 0.29193,0.35808c-0.24049,0.09998 -0.44659,0.1857 -0.66992,0.27852c-0.31402,-0.14342 -0.53481,-0.39413 -0.73026,-0.67816c-0.23959,-0.33417 -0.48814,-0.68745 -0.68519,-1.06216c-0.47338,-0.83062 -0.83474,-1.68496 -1.22225,-2.55122c-0.07196,-0.15271 -0.14392,-0.30546 -0.12099,-0.47483c0.08591,-0.03571 0.18077,-0.05236 0.23147,-0.11906c0.13579,-0.14778 0.35095,-0.21439 0.53985,-0.29293z" fill="#61aeb3"/><path d="M182.76041,205.94521c-0.0663,0.16457 -0.17673,0.27891 -0.33952,0.36945c-0.29936,0.19293 -0.65193,0.31665 -0.92432,0.56692c-0.05974,0.04764 -0.12843,0.07626 -0.19713,0.10478c-0.36072,0.14996 -0.65114,0.36199 -0.95868,0.58116c-0.10226,0.08817 -0.22986,0.20974 -0.41388,0.08073c-0.15208,-0.27926 -0.24364,-0.56081 -0.27467,-0.8447c0.21352,-0.15728 0.41802,-0.3336 0.67647,-0.39538c0.03435,-0.01429 0.07691,-0.0548 0.11125,-0.0691c0.31654,-0.20008 0.65033,-0.40732 0.97588,-0.58832c0.14559,-0.08336 0.28304,-0.14048 0.41964,-0.24294c0.162,-0.13579 0.35912,-0.2406 0.59303,-0.2237c0.06214,0.08832 0.09812,0.16466 0.15124,0.23391c0.06293,0.13364 0.11772,0.29356 0.1807,0.42715z" fill="#87d7dc"/><path d="M207.32118,193.15524c-0.13257,0.3291 -0.36237,0.53878 -0.60131,0.7294c-0.05972,0.04767 -0.16281,0.0905 -0.24049,0.09998c-0.5701,0.05434 -1.10423,0.18503 -1.62933,0.33486c-0.01719,0.00714 -0.06052,0.00233 -0.08671,-0.00959c-0.0875,-0.05495 -0.13252,-0.1504 -0.12593,-0.26727c0.03437,-0.01429 0.05972,-0.0477 0.09408,-0.06196c0.42124,-0.15223 0.81554,-0.36181 1.14765,-0.6597c0.17916,-0.14297 0.36813,-0.22152 0.6192,-0.21176c0.27723,0.02176 0.52752,-0.01383 0.82281,0.04607z" fill="#cce5e6"/><path d="M204.18779,193.08797c-0.10548,-0.09312 -0.12428,-0.17664 -0.09972,-0.25533c0.80653,-0.38093 0.80652,-0.38094 1.38406,-0.9863c0.31003,-0.08323 0.66496,-0.07097 0.98476,-0.08971c0.09732,0.11937 0.00322,0.18127 -0.03032,0.2409c-0.12598,0.21218 -0.23483,0.41724 -0.39601,0.59839c-0.11046,0.11444 -0.22174,0.18347 -0.37708,0.2024c-0.48343,0.06397 -0.97496,0.15416 -1.46573,0.28966z" fill="#cce5e6"/><path d="M182.57072,205.49895c-0.05315,-0.06925 -0.08915,-0.14563 -0.15124,-0.23393c-0.23391,-0.01692 -0.43104,0.08784 -0.59302,0.22371c-0.13661,0.10247 -0.27401,0.15958 -0.41964,0.24294c-0.32556,0.18101 -0.65929,0.38822 -0.97588,0.58832c-0.03437,0.01429 -0.07691,0.05481 -0.11126,0.06908c-0.26663,0.08804 -0.45398,0.2572 -0.67646,0.39533c-0.03761,-0.16701 -0.06621,-0.31498 -0.03507,-0.51056c0.45398,-0.25724 0.9072,-0.5598 1.38732,-0.80504c0.45401,-0.25721 0.872,-0.59078 1.38733,-0.80502c0.12671,0.31258 0.16592,0.57028 0.18801,0.83507z" fill="#60adb2"/><path d="M204.69956,198.49158c0.05312,0.06922 0.0973,0.1194 0.15044,0.18862c-0.01636,0.05249 -0.02456,0.0787 -0.03274,0.10489c-0.25604,0.19775 -0.46793,0.44568 -0.67083,0.71262c-0.09327,0.10724 -0.18736,0.16921 -0.33455,0.16191c-0.28548,0.00448 -0.57007,0.05436 -0.89312,-0.10817c0.1154,-0.3219 0.32729,-0.56983 0.54815,-0.79862c0.0425,-0.04051 0.13743,-0.0571 0.2151,-0.0666c0.33613,-0.07129 0.67238,-0.14254 1.01752,-0.19467z" fill="#cce5e6"/><path d="M209.17131,196.95223c-0.13577,0.14777 -0.2119,0.24789 -0.30518,0.35515c-0.17837,0.18829 -0.37548,0.29306 -0.66992,0.27848c-0.49317,-0.00046 -0.97657,0.06354 -1.40602,0.24205c-0.13742,0.05712 -0.16358,0.04516 -0.25436,-0.19108c0.05154,-0.02141 0.09405,-0.06194 0.14562,-0.08336c0.43841,-0.15944 0.82373,-0.38809 1.18198,-0.67403c0.09409,-0.06193 0.17096,-0.11673 0.27483,-0.1143c0.32962,0.0456 0.64122,0.05309 1.03298,0.18707z" fill="#cae2e3"/><path d="M205.23186,195.34798c0.00819,-0.02619 0.03356,-0.05965 0.05074,-0.06674c0.41305,-0.12602 0.75496,-0.3595 1.07078,-0.60493c0.30754,-0.21917 0.63393,-0.35489 1.05021,-0.29959c0.19954,0.03119 0.39748,-0.02829 0.59788,0.04829c-0.21681,0.45542 -0.59313,0.70316 -1.03395,0.72661c-0.53575,0.04005 -1.06325,0.05389 -1.55244,0.28005c-0.06054,0.00233 -0.12926,0.03087 -0.18322,-0.08365z" fill="#c9e1e2"/><path d="M208.52461,195.62301c-0.18491,0.30518 -0.38939,0.4815 -0.61108,0.66498c-0.07689,0.0548 -0.16281,0.0905 -0.2495,0.08085c-0.56192,0.02812 -1.123,0.10156 -1.6661,0.21316c-0.03437,0.01429 -0.09485,0.01663 -0.12266,-0.08598c0.12022,-0.04997 0.25763,-0.10711 0.36891,-0.17617c0.33455,-0.16189 0.66008,-0.34291 0.93251,-0.59315c0.20451,-0.17638 0.43682,-0.25008 0.70591,-0.2021c0.19956,0.03121 0.38194,0.0695 0.64204,0.09838z" fill="#c9e1e2"/><path d="M205.43787,199.62294c0.13983,0.0789 0.18483,0.17435 0.22977,0.26978c-0.0082,0.02619 -0.03356,0.05963 -0.04174,0.08581c-0.25686,0.15242 -0.46056,0.37411 -0.6029,0.63877c-0.09245,0.15258 -0.22088,0.2288 -0.40247,0.23578c-0.22489,0.00219 -0.45802,0.03063 -0.68377,-0.01253c0.05566,-0.27426 0.21358,-0.63678 0.33304,-0.73207c0.06788,-0.07392 0.15458,-0.06427 0.24948,-0.08086c0.28301,-0.14048 0.62819,-0.19269 0.91854,-0.40467z" fill="#cae3e4"/><path d="M201.22854,193.56472c0.36476,0.07666 0.70255,0.09606 1.04853,0.08924c0.08828,0.10023 0.12432,0.17666 0.11774,0.29355c-0.26421,0.22399 -0.64295,0.33573 -0.89819,0.57884c-0.23391,-0.01694 -0.40892,-0.12682 -0.60928,-0.20331c-0.10465,-0.04779 -0.21751,-0.06936 -0.29766,-0.19587c0.15136,-0.24556 0.4352,-0.3407 0.63888,-0.56239z" fill="#c8e0e1"/><path d="M203.4748,196.28389c0.06376,0.17896 0.00404,0.22663 -0.05566,0.27425c-0.2217,0.18351 -0.42618,0.35979 -0.65685,0.52421c-0.05973,0.04765 -0.12842,0.07623 -0.21515,0.06664c-0.25189,-0.05511 -0.51279,-0.12931 -0.7655,-0.22969c0.05812,-0.13827 0.15217,-0.20023 0.22826,-0.30035c0.22826,-0.30033 0.51126,-0.44086 0.90302,-0.30692c0.1914,0.05743 0.38115,0.02421 0.5619,-0.02811z" fill="#cbe4e5"/><path d="M202.9082,195.08109c0.04497,0.09546 0.07197,0.15271 0.09893,0.20999c-0.02538,0.03337 -0.02457,0.07869 -0.04172,0.08583c-0.17099,0.1167 -0.35094,0.21439 -0.5219,0.33112c-0.09411,0.06192 -0.18896,0.07854 -0.30182,0.05697c-0.33861,-0.06471 -0.66901,-0.15569 -1.02642,-0.30393c0.09161,-0.19792 0.23723,-0.28126 0.38284,-0.36461c0.06868,-0.02855 0.13743,-0.05711 0.20691,-0.04038c0.39175,0.13392 0.78928,0.10571 1.20313,0.02499z" fill="#c8e0e1"/><path d="M197.80418,197.06585c-0.18894,0.07853 -0.4041,0.14512 -0.54808,0.31917c-0.05074,0.06674 -0.14559,0.08332 -0.23146,0.11904c-0.17005,-0.31743 -0.26245,-0.64433 -0.27706,-0.98069c0.25845,-0.06177 0.46296,-0.2381 0.65111,-0.36198c0.14885,0.0979 0.16025,0.25302 0.24858,0.35326c0.09812,0.1647 0.17087,0.36281 0.15695,0.5512z" fill="#85d5d9"/><path d="M209.01311,198.75313c-0.30264,0.01164 -0.60524,0.02332 -0.91606,0.06118c-0.26748,0.04269 -0.47035,0.30968 -0.86291,0.13038c0.584,-0.24282 1.03639,-0.59064 1.48875,-0.9385c0.23391,0.01694 0.49399,0.04578 0.73854,0.17246c-0.01636,0.05249 -0.02458,0.07869 -0.03274,0.10491c-0.1268,0.16685 -0.26262,0.31464 -0.41555,0.46953z" fill="#c6dede"/><path d="M207.60748,192.71658c-0.35499,-0.01227 -0.66656,-0.01969 -1.02156,-0.03194c0.03113,-0.19556 0.14156,-0.31001 0.19966,-0.44828c0.07524,-0.14544 0.1154,-0.32194 0.24301,-0.44348c0.12022,-0.04997 0.25929,-0.01647 0.38932,-0.00204c0.13003,0.01441 0.26907,0.04797 0.4171,0.10058c0.02283,0.31013 -0.11138,0.54855 -0.22755,0.82518z" fill="#cae3e3"/><path d="M203.57788,191.88038c0.45239,-0.3479 0.81886,-0.66005 1.11416,-1.07961c0.25932,-0.01644 0.50958,-0.052 0.78602,-0.07559c-0.0205,0.30534 -0.18166,0.48649 -0.30765,0.69865c-0.02536,0.03336 -0.07692,0.05478 -0.11125,0.06906c-0.45642,0.12122 -0.91284,0.24249 -1.48128,0.3875z" fill="#cae3e4"/><path d="M202.37516,198.17936c0.18489,-0.30519 0.37059,-0.56504 0.79509,-0.536c0.29444,0.01457 0.5611,-0.07344 0.82774,-0.16147c0.10308,-0.04284 0.1652,0.04545 0.1848,0.17431c-0.29279,0.0761 -0.5055,0.27865 -0.71822,0.48124c-0.15295,0.15489 -0.32553,0.18102 -0.52513,0.14982c-0.17339,-0.01924 -0.34597,0.00683 -0.56435,-0.1079z" fill="#c8e0e1"/><path d="M198.73916,196.12921c-0.03769,0.31249 -0.2708,0.34085 -0.48589,0.40746c-0.13899,-0.03353 -0.15865,-0.16233 -0.22077,-0.25061c-0.09972,-0.25532 -0.13893,-0.51301 -0.14379,-0.78498c0.19792,-0.05946 0.35092,-0.21434 0.56766,-0.19033c0.06213,0.08834 0.08913,0.14563 0.12511,0.22198c0.0556,0.2052 0.11119,0.41039 0.15775,0.59654z" fill="#85d4d9"/><path d="M201.86276,196.13208c-0.2037,0.22166 -0.39101,0.39086 -0.56938,0.57914c-0.2699,-0.09328 -0.53158,-0.21277 -0.76792,-0.36572c-0.02862,-0.14795 0.05648,-0.22896 0.09822,-0.31479c0.04172,-0.08582 0.08347,-0.17164 0.21268,-0.20253c0.27807,0.0671 0.61744,0.17709 1.0264,0.30388z" fill="#c7dfe0"/><path d="M202.43294,199.47947c-0.23474,-0.06224 -0.46044,-0.10541 -0.70499,-0.23203c0.04665,-0.2934 0.20784,-0.47449 0.36818,-0.701c0.26906,0.04796 0.53815,0.0959 0.82444,0.13673c-0.15056,0.29087 -0.31093,0.5174 -0.48763,0.79628z" fill="#c8e0e1"/><path d="M208.58888,193.40448c-0.06551,0.20989 -0.13098,0.41971 -0.27494,0.59374c-0.29444,-0.01457 -0.59789,-0.04827 -0.91847,-0.0748c-0.01797,-0.03817 -0.03595,-0.07634 -0.01877,-0.0835c0.10064,-0.17881 0.21844,-0.36475 0.32806,-0.5245c0.05074,-0.06674 0.11046,-0.11443 0.17994,-0.09767c0.2601,0.02889 0.49319,0.00048 0.70422,0.18673z" fill="#c4dcdd"/><path d="M209.43227,196.54691c-0.29525,-0.05991 -0.5815,-0.10073 -0.87677,-0.16064c-0.02038,-0.17413 0.11702,-0.23123 0.19309,-0.33139c0.07608,-0.10011 0.17834,-0.18831 0.27161,-0.29554c0.25109,0.00977 0.47841,0.14363 0.72217,0.22495c-0.02131,0.25994 -0.15713,0.40776 -0.31011,0.56263z" fill="#c8e0e1"/><path d="M202.7706,199.9783c0.30343,0.0337 0.58071,0.05544 0.90132,0.08195c-0.04748,0.24805 -0.1915,0.42205 -0.24796,0.65105c-0.27645,0.02357 -0.521,-0.10307 -0.79904,-0.17013c0.01311,-0.23374 0.02707,-0.4222 0.14571,-0.56281z" fill="#c6ddde"/><path d="M206.27026,200.6924c-0.20209,0.31232 -0.48348,0.54345 -0.62423,0.89876c-0.2331,0.02841 -0.44007,0.06875 -0.69196,0.01367c0.01233,-0.27906 0.10399,-0.47704 0.3796,-0.54594c0.33615,-0.07123 0.62736,-0.23797 0.93656,-0.36652z" fill="#b9cfd0"/><path d="M203.31475,190.71123c-0.0024,-0.13595 0.11043,-0.11445 0.17012,-0.16206c0.13663,-0.10244 0.28218,-0.18579 0.33131,-0.34324c0.11701,-0.23129 0.31492,-0.29078 0.53906,-0.33823c0.09491,-0.0166 0.19877,-0.01413 0.33698,-0.02592c-0.07203,0.32679 -0.1539,0.58909 -0.51621,0.64838c-0.25028,0.03557 -0.48179,0.1546 -0.71408,0.22835c-0.05154,0.0214 -0.10308,0.04283 -0.1472,-0.00727z" fill="#c0d8d8"/><path d="M200.40263,192.85792c0.10964,-0.15975 0.22903,-0.25501 0.36645,-0.31216c0.06868,-0.02855 0.1546,-0.06431 0.22409,-0.04751c0.30423,0.07903 0.59866,0.09356 0.89314,0.10817c0.06291,0.13365 -0.01476,0.14311 -0.06631,0.16455c-0.17177,0.07141 -0.36072,0.14996 -0.51452,0.25957c-0.20531,0.13099 -0.38687,0.13802 -0.59706,-0.00293c-0.09649,-0.07402 -0.17501,-0.10988 -0.30583,-0.16962z" fill="#c1d9d9"/><path d="M201.87955,198.04292c-0.24285,-0.03601 -0.45227,-0.13163 -0.69597,-0.21296c0.00413,-0.25284 0.16613,-0.38864 0.26676,-0.56752c0.28628,0.04081 0.53976,0.18654 0.81865,0.29894c-0.10884,0.20505 -0.25364,0.33375 -0.38941,0.48153z" fill="#c3dbdc"/><path d="M208.03068,195.09765c0.1865,-0.21455 0.36488,-0.40284 0.53423,-0.61021c0.19059,0.01206 0.36397,0.03136 0.54797,0.16033c-0.05649,0.22897 -0.18326,0.39581 -0.3011,0.58182c-0.25929,0.01643 -0.50214,-0.01952 -0.78103,-0.13191z" fill="#c3dadb"/><path d="M200.28899,196.67223c0.24453,0.12668 0.46286,0.24135 0.68122,0.35605c-0.0303,0.24092 -0.15712,0.40777 -0.2839,0.57462c-0.21755,-0.06937 -0.40972,-0.17212 -0.60269,-0.32019c0.00739,-0.07154 0.02296,-0.16936 0.03927,-0.22179c0.0581,-0.1383 0.11699,-0.23128 0.16612,-0.3887z" fill="#c4dbdc"/><path d="M201.60107,191.65188c-0.32642,0.13567 -0.58407,0.24278 -0.85884,0.35706c-0.16524,-0.04546 -0.30507,-0.12437 -0.43749,-0.27476c0.03193,-0.15023 0.17015,-0.16205 0.25525,-0.24306c0.08506,-0.08099 0.17915,-0.14295 0.26502,-0.17869c0.26176,0.1195 0.47109,0.21512 0.77612,0.33943z" fill="#c2d9da"/><path d="M208.2783,192.00394c0.17338,0.01924 0.32141,0.07181 0.4441,0.15783c0.0891,0.1456 0.022,0.26486 0.01545,0.38167c-0.00652,0.11685 0.03023,0.23855 -0.06303,0.3458c-0.18975,0.03323 -0.40728,-0.03615 -0.65922,-0.09123c0.04093,-0.13121 0.08185,-0.26239 0.10558,-0.38638c0.05811,-0.13831 0.11617,-0.27661 0.1571,-0.40779z" fill="#c5ddde"/><path d="M201.56542,198.37896c-0.01235,0.27908 -0.17351,0.46025 -0.27333,0.68439c-0.21677,-0.02403 -0.34022,-0.15536 -0.49724,-0.22704c-0.01299,-0.24571 0.07862,-0.44363 0.1784,-0.6678c0.20034,0.07649 0.40077,0.15305 0.59213,0.21048z" fill="#c3dbdc"/><path d="M205.74866,191.34323c0.01552,-0.09783 0.0319,-0.15025 0.04826,-0.20275c0.0499,-0.11208 0.11701,-0.2313 0.17511,-0.36959c0.30344,0.0337 0.57989,0.01008 0.86778,0.14157c0.02862,0.14795 -0.03028,0.24092 -0.11458,0.36727c-0.29362,0.03074 -0.63059,0.05667 -0.97658,0.06354z" fill="#c7dfe0"/><path d="M200.58453,195.29361c-0.22735,-0.1338 -0.45303,-0.17696 -0.63787,-0.35126c0.02216,-0.21469 0.20206,-0.31233 0.24221,-0.48879c0.30428,0.07903 0.5316,0.21278 0.79329,0.3323c-0.06466,0.25521 -0.25361,0.33371 -0.39759,0.50778z" fill="#c7dee0"/><path d="M197.66437,196.50759c-0.08829,-0.10026 -0.0997,-0.25533 -0.24857,-0.35327c-0.20532,0.13101 -0.41882,0.28823 -0.65109,0.36196c-0.01878,-0.08354 -0.04657,-0.18611 -0.04821,-0.27674c-0.0024,-0.13595 0.04752,-0.24804 0.16776,-0.29806c0.1971,-0.10478 0.37704,-0.20242 0.57422,-0.30719c0.11693,0.2482 0.15368,0.36987 0.20595,0.87328z" fill="#61acb1"/><path d="M209.82788,197.86647c-0.23474,-0.06226 -0.42608,-0.11967 -0.66981,-0.201c0.16934,-0.20739 0.3215,-0.40761 0.49984,-0.59591c0.18237,0.03832 0.34759,0.08383 0.5136,0.17464c-0.06466,0.25522 -0.19148,0.42204 -0.34364,0.6223z" fill="#c2dada"/><path d="M200.06964,193.11045c0.23474,0.06226 0.40973,0.17214 0.62812,0.28687c-0.20449,0.17637 -0.37466,0.33841 -0.54484,0.50047c-0.19058,-0.01208 -0.30505,-0.12432 -0.46286,-0.24136c0.03927,-0.22179 0.20129,-0.35768 0.37962,-0.54594z" fill="#c1d9d9"/><path d="M209.28205,195.39937c0.09084,-0.24322 0.17431,-0.4149 0.24878,-0.60568c0.19876,-0.01414 0.39097,0.08864 0.58315,0.19138c-0.00496,0.20749 -0.03608,0.40309 -0.15388,0.58906c-0.2331,0.02841 -0.40895,-0.12686 -0.67802,-0.17476z" fill="#c6dedf"/><path d="M202.18086,200.38335c-0.21753,-0.06938 -0.42693,-0.16501 -0.62727,-0.24151c-0.06375,-0.17893 -0.04901,-0.32207 0.01727,-0.48663c0.25929,-0.01643 0.47841,0.14361 0.73035,0.19868c0.01225,0.20044 -0.06305,0.34582 -0.1203,0.52947z" fill="#c0d7d7"/><path d="M204.95145,190.30484c0.0663,-0.16457 0.11542,-0.32194 0.16449,-0.47933c0.20614,-0.08565 0.42286,-0.06161 0.63221,0.03401c0.02039,0.17415 -0.02053,0.3053 -0.10394,0.47697c-0.2249,0.00218 -0.44003,0.06876 -0.69276,-0.03165z" fill="#c3dadb"/><path d="M198.59048,195.55181c-0.03597,-0.07636 -0.08913,-0.14563 -0.12514,-0.22198c-0.21677,-0.02403 -0.36972,0.13082 -0.56766,0.19033c-0.08011,-0.1265 -0.01303,-0.24575 -0.0588,-0.38649c0.18735,-0.16918 0.42041,-0.19765 0.58078,-0.42408c0.10707,0.18377 0.10953,0.31974 0.12096,0.47484c0.01063,0.10975 0.10788,0.22914 0.04982,0.36741z" fill="#5aa0a4"/><path d="M205.47092,202.44025c-0.2249,0.00218 -0.44009,0.06876 -0.66662,-0.01968c-0.02862,-0.14794 0.00414,-0.25287 0.05321,-0.41027c0.20693,-0.04036 0.43187,-0.04254 0.64043,0.00774c0.0286,0.14796 0.01303,0.24575 -0.02709,0.42218z" fill="#bdd3d4"/><path d="M200.04832,197.73106c0.16602,0.09083 0.32301,0.16252 0.48006,0.23422c-0.00499,0.20753 -0.07125,0.37209 -0.15466,0.54374c-0.16437,-0.00016 -0.26174,-0.1195 -0.32466,-0.25313c-0.08097,-0.17182 -0.1619,-0.34364 -0.00074,-0.52482z" fill="#bdd4d5"/><path d="M209.4186,199.65762c-0.25107,-0.00979 -0.48503,-0.02669 -0.73609,-0.03647c0.27076,-0.34087 0.55217,-0.57201 1.02406,-0.31156c-0.03193,0.15023 -0.16036,0.22646 -0.28797,0.34798z" fill="#bbd2d3"/><path d="M199.60703,195.7913c-0.00323,-0.18128 0.06387,-0.30052 0.13099,-0.41972c0.12022,-0.04997 0.19959,0.03123 0.30423,0.07905c0.07848,0.03585 0.17417,0.06455 0.2453,0.17198c0.00323,0.18128 -0.16849,0.25271 -0.18245,0.44115c-0.20857,-0.05028 -0.3574,-0.14818 -0.49807,-0.27235z" fill="#c3dadb"/><path d="M205.50737,195.75854c0.32719,-0.09032 0.65435,-0.18071 1.01749,-0.19465c0.03677,0.12169 -0.04012,0.17651 -0.12601,0.21218c-0.21432,0.11189 -0.43755,0.20475 -0.6437,0.29043c-0.15456,0.06426 -0.24296,-0.03601 -0.24777,-0.30794z" fill="#b1c6c7"/><path d="M202.65913,201.48583c0.15537,-0.01898 0.26088,0.07418 0.38275,0.11486c0.23474,0.06224 0.33285,0.22692 0.35488,0.49178c-0.29444,-0.01459 -0.55697,-0.17945 -0.78429,-0.31323c-0.04578,-0.14079 -0.03839,-0.21238 0.04666,-0.29339z" fill="#bbd2d3"/><path d="M206.8842,198.24547c0.29039,-0.21206 0.64536,-0.19979 1.00852,-0.21379c-0.18652,0.21455 -0.44421,0.32162 -0.67568,0.44071c-0.1456,0.08338 -0.20695,0.04037 -0.33284,-0.22694z" fill="#bad1d2"/><path d="M206.48929,201.81141c-0.07448,0.19077 -0.11458,0.36726 -0.18904,0.55801c-0.09486,0.01658 -0.24212,0.00933 -0.38033,0.02113c-0.076,-0.37939 -0.05881,-0.38652 0.1735,-0.46026c0.12023,-0.04995 0.2495,-0.08085 0.39587,-0.11892z" fill="#b5cbcc"/><path d="M210.19999,193.9904c0.03838,0.21234 0.00649,0.36261 -0.02544,0.51287c-0.18159,0.007 -0.32221,-0.11722 -0.48824,-0.20796c0.02289,-0.16935 0.05489,-0.31956 0.07779,-0.48892c0.16359,-0.04519 0.27888,0.11236 0.43592,0.1841z" fill="#c0d7d8"/><path d="M204.58365,201.2109c0.01959,0.12882 -0.03028,0.24092 -0.09739,0.36016c-0.25027,0.03554 -0.50219,-0.01953 -0.73773,-0.12712c-0.08011,-0.1265 -0.04658,-0.18613 0.02131,-0.25994c0.26826,0.00259 0.53656,0.00525 0.8138,0.02699z" fill="#bdd4d4"/><path d="M210.22784,197.97418c0.10064,-0.17881 0.22742,-0.34567 0.32808,-0.52451c0.12187,0.04069 0.20118,0.12185 0.25515,0.23638c0.01956,0.1288 -0.04827,0.20271 -0.10718,0.29567c-0.05074,0.06674 -0.10141,0.13348 -0.15215,0.20026c-0.13005,-0.01443 -0.23474,-0.06222 -0.32387,-0.20787z" fill="#b6cccc"/><path d="M208.79971,194.07025c0.07448,-0.19075 0.14074,-0.3553 0.20624,-0.56518c0.11203,-0.02378 0.24211,-0.00935 0.37459,0.14109c-0.02289,0.16937 -0.06304,0.34584 -0.09413,0.54139c-0.17337,-0.01927 -0.32062,-0.0265 -0.48663,-0.11735z" fill="#c1d9d9"/><path d="M210.05506,198.9592c-0.17338,-0.01924 -0.31245,-0.05275 -0.46127,-0.1507c0.07448,-0.19077 0.22832,-0.30037 0.3387,-0.41475c0.15538,-0.01895 0.24371,0.08132 0.34021,0.15536c0.00978,0.0644 0.02778,0.10261 0.01063,0.10976c-0.07611,0.10008 -0.15216,0.20021 -0.22828,0.30036z" fill="#b7cdce"/><path d="M209.0544,200.58527c0.11702,-0.23128 0.27158,-0.29558 0.4082,-0.39804c0.14479,-0.1287 0.26749,-0.0427 0.41631,0.05523c-0.07448,0.19077 -0.2111,0.29325 -0.31254,0.42673c-0.18974,0.03323 -0.33123,-0.1363 -0.51199,-0.08399z" fill="#b6cccc"/><path d="M204.37978,202.39148c-0.18237,-0.03833 -0.3214,-0.07185 -0.47761,-0.09822c-0.09812,-0.16469 -0.15206,-0.27926 -0.12916,-0.44857c0.20859,0.05029 0.40812,0.0815 0.59049,0.11981c0.13248,0.15039 0.06534,0.2696 0.10217,0.39129c-0.03435,0.01427 -0.05974,0.04769 -0.0859,0.03573z" fill="#c2dada"/><path d="M209.42316,193.12621c-0.14722,-0.00731 -0.22573,-0.04315 -0.30506,-0.1243c-0.07115,-0.10746 -0.0384,-0.21234 -0.03185,-0.32923c0.01555,-0.09781 -0.03022,-0.23855 0.08102,-0.30766c0.14802,0.05262 0.28786,0.13146 0.40317,0.28903c-0.04011,0.17653 -0.09822,0.31479 -0.14731,0.47221z" fill="#bbd2d3"/><path d="M199.42745,193.97099c0.14884,0.09794 0.26252,0.16484 0.38519,0.2508c-0.05727,0.18366 -0.15877,0.3171 -0.2512,0.46973c-0.139,-0.03352 -0.25275,-0.10042 -0.31562,-0.23408c-0.00083,-0.04532 -0.0016,-0.09063 0.02375,-0.12404c0.03273,-0.10491 0.08268,-0.21702 0.15792,-0.36247z" fill="#bbd2d3"/><path d="M206.74927,202.31976c0.08104,-0.30768 0.08103,-0.30768 0.32806,-0.52449c0.18238,0.03833 0.27152,0.18396 0.40396,0.33434c-0.21352,0.15728 -0.48177,0.15463 -0.73204,0.19017z" fill="#adc2c3"/><path d="M199.51945,196.21586c0.139,0.03352 0.26172,0.11953 0.34182,0.24602c-0.05727,0.18366 -0.10633,0.34102 -0.17267,0.50553c-0.32465,-0.25313 -0.33367,-0.27223 -0.16922,-0.75159z" fill="#b5cbcc"/><path d="M210.38098,196.86039c-0.16521,-0.04544 -0.28705,-0.08615 -0.43589,-0.18409c0.01395,-0.1884 0.14158,-0.30996 0.22502,-0.48166c0.06951,0.01679 0.12182,0.04065 0.17418,0.06454c0.05236,0.0239 0.0965,0.07403 0.15786,0.11701c0.02942,0.19324 -0.02868,0.33154 -0.12114,0.48415z" fill="#bbd1d2"/><path d="M199.69519,192.48988c0.03034,-0.24088 0.22744,-0.34568 0.31988,-0.49828c0.1562,0.02641 0.23636,0.15289 0.35907,0.23894c-0.12596,0.2122 -0.27978,0.32176 -0.49571,0.34304c-0.05154,0.02138 -0.12185,-0.04066 -0.18319,-0.08366z" fill="#b6cccd"/><path d="M206.95362,190.49989c-0.28628,-0.04081 -0.56432,-0.10787 -0.83338,-0.15581c-0.04577,-0.1408 -0.03023,-0.23855 0.05402,-0.36492c0.27888,0.11236 0.55778,0.22475 0.8121,0.41579c-0.01637,0.05247 -0.02455,0.07871 -0.03273,0.1049z" fill="#acc1c2"/><path d="M207.05869,196.87153c-0.19634,0.1501 -0.40164,0.28114 -0.64292,0.33575c-0.09491,0.0166 -0.19059,-0.0121 -0.23555,-0.10754c-0.01795,-0.03814 -0.01959,-0.12882 -0.00239,-0.13596c0.24866,-0.12621 0.56925,-0.0997 0.88089,-0.09226z" fill="#a7bbbb"/><path d="M210.68543,195.98029c-0.12106,0.00465 -0.21755,-0.06938 -0.32303,-0.16252c0.04011,-0.17653 0.08025,-0.35298 0.12033,-0.52946c0.17338,0.01927 0.24452,0.12666 0.30746,0.26029c0.0024,0.13595 -0.04667,0.29335 -0.10478,0.43169z" fill="#b7cdcd"/><path d="M200.61157,199.23209c0.21677,0.02407 0.36557,0.12202 0.52341,0.23902c0.02039,0.17415 0.00567,0.31728 -0.11297,0.45791c-0.21099,-0.18627 -0.3017,-0.42252 -0.41046,-0.69694z" fill="#b7cece"/><path d="M200.73756,190.77804c0.14317,-0.21933 0.40246,-0.23578 0.52922,-0.40267c0.13897,0.03353 0.15782,0.11704 0.12428,0.17667c-0.09245,0.1526 -0.2111,0.29326 -0.38285,0.36463c-0.06055,0.00231 -0.07771,0.00946 -0.27072,-0.13861z" fill="#b4cacb"/><path d="M207.19313,191.31352c-0.00241,-0.13595 0.02212,-0.21467 0.08999,-0.28857c0.23474,0.06224 0.48664,0.11735 0.74995,0.32751c-0.28301,0.14048 -0.53573,0.04003 -0.83998,-0.03892z" fill="#b2c8c9"/><path d="M199.36017,195.04922c-0.02289,0.16937 -0.04667,0.29335 -0.13175,0.37439c-0.07768,0.00948 -0.12187,-0.04066 -0.16602,-0.09083c-0.17661,-0.20056 -0.10133,-0.34603 0.02546,-0.51283c0.07933,0.08114 0.17584,0.15522 0.27234,0.22924z" fill="#b5cbcb"/><path d="M207.65853,199.45321c0.21431,-0.11192 0.40324,-0.19045 0.63632,-0.21886c0.06212,0.08832 0.02859,0.14792 -0.02291,0.16933c-0.11126,0.06908 -0.21354,0.15726 -0.32476,0.22633c-0.13742,0.05712 -0.20773,-0.00499 -0.28864,-0.17678z" fill="#91a3a3"/><path d="M204.58468,192.0554c-0.14317,0.21933 -0.37547,0.29307 -0.58162,0.37874c-0.03437,0.01429 -0.08672,-0.0096 -0.12186,-0.04068c-0.01795,-0.03817 -0.01062,-0.10974 0.00657,-0.1169c0.2135,-0.15727 0.45477,-0.2119 0.6969,-0.22124z" fill="#99abac"/><path d="M203.56899,191.3818c-0.13166,-0.10509 -0.1766,-0.20057 -0.10873,-0.27444c0.10226,-0.08817 0.29201,-0.12138 0.55127,-0.13786c-0.10883,0.20507 -0.29774,0.28359 -0.44255,0.41225z" fill="#93a5a6"/><path d="M201.69004,200.9983c0.26088,0.07421 0.52998,0.12213 0.55449,0.52295c-0.27806,-0.06709 -0.39496,-0.31525 -0.55449,-0.52295z" fill="#9aadad"/><path d="M204.69038,199.43135c0.11046,-0.11443 0.23805,-0.23594 0.33132,-0.34322c0.11287,0.02159 0.15702,0.07172 0.19377,0.19343c-0.10965,0.15976 -0.31736,0.1548 -0.46295,0.23816c-0.01797,-0.03817 -0.02696,-0.0573 -0.06215,-0.08834z" fill="#c5dddd"/><path d="M205.65807,194.50871c-0.14237,0.26463 -0.3657,0.35748 -0.62496,0.37395c-0.01716,0.00714 -0.05237,-0.02391 -0.07035,-0.06209c-0.04413,-0.05013 -0.01063,-0.10972 0.02375,-0.12402c0.17992,-0.09767 0.41307,-0.12604 0.67155,-0.18784z" fill="#aec2c3"/><path d="M199.642,192.90006c-0.07448,0.19077 -0.21925,0.31945 -0.34689,0.44103c-0.11287,-0.02156 -0.13169,-0.10511 -0.08096,-0.17185c0.08431,-0.12636 0.15138,-0.24556 0.26183,-0.35995c0.01637,-0.05247 0.09486,-0.01663 0.166,0.09079z" fill="#9caeaf"/><path d="M210.56948,194.81854c-0.02939,-0.19327 -0.01464,-0.33635 0.02546,-0.51285c0.18564,0.21964 0.23302,0.45106 0.34092,0.68016c-0.06055,0.00231 -0.09492,0.0166 -0.12104,0.00467c-0.0875,-0.05495 -0.1578,-0.117 -0.24533,-0.17194z" fill="#a9bebf"/><path d="M202.58448,194.3937c0.0973,0.11938 0.11608,0.20282 0.10052,0.30069c-0.16279,0.09048 -0.34435,0.09747 -0.60608,-0.02202c0.18818,-0.12388 0.34276,-0.18815 0.50552,-0.27867z" fill="#b9cfd0"/><path d="M206.05692,200.37013c0.0106,0.10974 -0.07525,0.14544 -0.51452,0.25955c-0.00487,-0.27194 0.21105,-0.29326 0.29535,-0.41958c0.11285,0.02158 0.16598,0.09084 0.21915,0.16005z" fill="#869797"/><path d="M205.08419,193.3774c-0.3018,0.05696 -0.46139,0.32877 -0.79339,0.14718c0.22169,-0.18352 0.43679,-0.25009 0.79339,-0.14718z" fill="#93a4a5"/><path d="M208.96787,200.09614c-0.25763,0.10711 -0.42945,0.17854 -0.60118,0.24992c-0.03437,0.01429 -0.08672,-0.00961 -0.11365,-0.06691c-0.00899,-0.01913 -0.00979,-0.06442 -0.00163,-0.09066c0.18811,-0.12391 0.37711,-0.20248 0.71645,-0.0924z" fill="#94a5a6"/><path d="M206.52706,201.01948c0.12265,0.08605 0.16683,0.13612 0.1431,0.26013c-0.12841,0.07621 -0.27406,0.15958 -0.47282,0.17371c0.03034,-0.24093 0.20209,-0.31228 0.32968,-0.43383z" fill="#abbfc0"/><path d="M210.07289,199.95641c-0.07933,-0.08117 -0.11449,-0.11223 -0.13249,-0.15045c0.14155,-0.30999 0.14155,-0.30995 0.40901,-0.35264c-0.01314,0.23375 -0.18486,0.30518 -0.27654,0.50305z" fill="#acc0c1"/><path d="M202.63145,200.9038c0.19141,0.05744 0.39095,0.08862 0.59131,0.16513c0.07848,0.03585 0.11445,0.11225 0.03838,0.21233c-0.23474,-0.06226 -0.45226,-0.13163 -0.6297,-0.37748z" fill="#9fb2b2"/><path d="M210.73926,197.05385c0.02375,-0.12405 0.04832,-0.20273 0.11618,-0.27659c0.08671,0.00958 0.14804,0.05258 0.21019,0.14092c0.03677,0.12169 -0.01316,0.23376 -0.06306,0.34582c-0.12106,0.00465 -0.19218,-0.10275 -0.26326,-0.21015z" fill="#aec2c3"/><path d="M203.46475,197.17843c0.01394,-0.18838 0.13422,-0.23845 0.24542,-0.30751c0.05154,-0.02139 0.11285,0.02158 0.13982,0.07887c0.01795,0.03817 0.01062,0.10977 -0.02373,0.12401c-0.07608,0.10011 -0.19716,0.10478 -0.36154,0.10463z" fill="#91a2a3"/><path d="M210.16415,193.43454c-0.39096,-0.08862 -0.41713,-0.10053 -0.29354,-0.44873c0.10628,0.13846 0.25515,0.2364 0.29354,0.44873z" fill="#869696"/><path d="M203.08257,190.30547c0.0565,-0.22896 0.1865,-0.21452 0.31576,-0.24543c-0.00498,0.20751 -0.00499,0.20753 -0.31576,0.24543z" fill="#555f5f"/><path d="M204.47716,198.15021c-0.08588,0.03572 -0.20609,0.08566 -0.35334,0.07843c0.07367,-0.23609 0.14237,-0.26463 0.29856,-0.23829c0.04333,0.00482 0.07036,0.0621 0.05475,0.15988z" fill="#93a5a6"/><path d="M209.2081,200.95506c-0.11618,0.2766 -0.15954,0.27183 -0.35495,-0.0123c0.10226,-0.08817 0.22409,-0.04755 0.35495,0.0123z" fill="#8b9b9c"/><path d="M203.49486,189.65466c-0.1448,0.12869 -0.29116,0.1667 -0.43763,0.20473c-0.10548,-0.09312 -0.0981,-0.16471 -0.0294,-0.19324c0.13741,-0.05713 0.2838,-0.09515 0.46697,-0.01152z" fill="#9aacad"/><path d="M210.69389,198.87631c-0.03194,0.15022 -0.02955,0.28625 -0.17595,0.32429c-0.01719,0.00714 -0.04333,-0.0048 -0.05235,-0.0239c-0.04657,-0.18614 0.03851,-0.26715 0.22827,-0.30038z" fill="#5f6a6b"/><path d="M202.99967,195.84208c0.04172,-0.08582 0.11046,-0.11442 0.18815,-0.12385c0.04334,0.0048 0.09568,0.02871 0.09649,0.07404c0.00083,0.04532 -0.01554,0.09782 -0.04994,0.11205c-0.06868,0.02854 -0.14639,0.03803 -0.23472,-0.06224z" fill="#636e6f"/><path d="M211.03383,196.1095c0.11446,0.11223 0.14224,0.21482 0.04081,0.34831c-0.14063,-0.12417 -0.12511,-0.22195 -0.04081,-0.34831z" fill="#4a5354"/></g><path d="M187.53555,197.29337c0,0 2.93373,-3.23834 5.67695,-3.14381c2.35215,0.08105 4.51653,3.36849 5.11106,4.69471c1.12973,2.5202 2.10375,5.06579 1.12674,7.47063c-0.33788,0.83161 -1.65987,2.24721 -3.0484,2.87499c-0.96656,0.437 -4.57646,1.48516 -5.64027,1.9413c-4.00543,1.71746 -7.38776,3.00138 -8.87986,0.24131c-0.91813,-1.6983 -3.64485,-6.41598 -2.57201,-8.46423c1.13377,-2.16462 8.22581,-5.61496 8.22581,-5.61496z" fill="#000000" stroke="#000000" stroke-width="1.2"/></g><g fill="#ff0000" fill-rule="nonzero" stroke="none" stroke-linecap="butt" stroke-linejoin="miter"><path d="M229.10426,218.775c0.84914,0.80051 0.83664,2.1929 -0.02792,3.10997c-0.86456,0.91707 -2.25378,1.01155 -3.10292,0.21104c-0.84914,-0.80051 -0.83664,-2.1929 0.02792,-3.10997c0.86456,-0.91707 2.25379,-1.01155 3.10293,-0.21104z" stroke-width="NaN"/><path d="M234.51249,219.69184c0.78121,0.73648 0.79152,1.99434 0.02302,2.80951c-0.7685,0.81517 -2.02479,0.87897 -2.80599,0.1425c-0.7812,-0.73648 -0.79151,-1.99434 -0.02301,-2.80951c0.7685,-0.81517 2.02478,-0.87897 2.80598,-0.14249z" stroke-width="0"/><path d="M234.72893,225.00689c0.81517,0.7685 0.85302,2.05231 0.08452,2.86748c-0.7685,0.81517 -2.05232,0.85301 -2.86749,0.08452c-0.81517,-0.7685 -0.85302,-2.05232 -0.08452,-2.86749c0.7685,-0.81517 2.05232,-0.85301 2.86749,-0.08451z" stroke-width="0"/></g><g fill="#ff0000" fill-rule="nonzero" stroke="none" stroke-linecap="butt" stroke-linejoin="miter"><path d="M228.26718,210.43174c-0.81787,0.47051 -1.89283,0.13588 -2.40098,-0.74742c-0.50815,-0.88331 -0.25707,-1.9808 0.5608,-2.4513c0.81787,-0.47051 1.89283,-0.13587 2.40099,0.74743c0.50815,0.88331 0.25707,1.98078 -0.56081,2.45129z" stroke-width="NaN"/><path d="M226.29524,214.4044c-0.75244,0.43286 -1.72858,0.14729 -2.18028,-0.63787c-0.4517,-0.78516 -0.20788,-1.77258 0.54456,-2.20544c0.75244,-0.43286 1.72859,-0.14728 2.18028,0.63788c0.4517,0.78516 0.20788,1.77257 -0.54457,2.20544z" stroke-width="0"/><path d="M229.91501,214.52952c-0.85059,0.48934 -1.89104,0.27603 -2.3239,-0.47641c-0.43286,-0.75244 -0.09425,-1.7591 0.75635,-2.24844c0.85059,-0.48934 1.89104,-0.27603 2.32391,0.47642c0.43286,0.75244 0.09424,1.75909 -0.75635,2.24843z" stroke-width="0"/></g><g fill="#ff0000" fill-rule="nonzero" stroke="none" stroke-linecap="butt" stroke-linejoin="miter"><path d="M217.45816,224.07792c0.55589,1.02608 0.10819,2.34458 -0.99998,2.94495c-1.10817,0.60037 -2.45717,0.25526 -3.01306,-0.77083c-0.55589,-1.02608 -0.10819,-2.34458 0.99998,-2.94495c1.10817,-0.60037 2.45717,-0.25526 3.01306,0.77082z" stroke-width="NaN"/><path d="M222.30764,226.64155c0.51143,0.944 0.12749,2.14187 -0.85755,2.67553c-0.98504,0.53366 -2.19816,0.20102 -2.70959,-0.74298c-0.51143,-0.944 -0.12749,-2.14187 0.85755,-2.67553c0.98504,-0.53366 2.19816,-0.20101 2.70959,0.74298z" stroke-width="0"/></g><g fill="#ff0000" fill-rule="nonzero" stroke="none" stroke-linecap="butt" stroke-linejoin="miter"><path d="M218.36277,216.0561c-0.92405,0.19087 -1.84024,-0.46344 -2.04637,-1.46141c-0.20613,-0.99797 0.37587,-1.96171 1.29992,-2.15257c0.92405,-0.19087 1.84024,0.46343 2.04637,1.46141c0.20613,0.99797 -0.37587,1.96171 -1.29991,2.15258z" stroke-width="NaN"/><path d="M211.62654,216.88921c-0.88709,0.18323 -1.75474,-0.38737 -1.93797,-1.27446c-0.18323,-0.88709 0.38736,-1.75474 1.27445,-1.93797c0.88709,-0.18323 1.75475,0.38736 1.93798,1.27445c0.18323,0.88709 -0.38737,1.75475 -1.27446,1.93798z" stroke-width="0"/><path d="M218.64513,220.46376c-0.96102,0.1985 -1.88241,-0.32976 -2.058,-1.17988c-0.17559,-0.85012 0.46111,-1.70021 1.42212,-1.8987c0.96102,-0.1985 1.88242,0.32976 2.05801,1.17989c0.17559,0.85012 -0.46112,1.7002 -1.42213,1.8987z" stroke-width="0"/></g><path d="M203.58478,154.64205c0.71151,0.23717 0.47434,0.94868 0.47434,0.94868l-0.30206,0.82261c-0.85407,1.28111 -1.86525,3.07169 -3.32482,3.70323c-2.01503,0.87189 -4.471,-0.27683 -4.69885,-2.55575c-0.21383,-2.13864 1.09015,-4.56965 2.00793,-6.40522c0,0 0.33541,-0.67082 1.00623,-0.33541c0.67082,0.33541 0.33541,1.00623 0.33541,1.00623c-0.82463,1.64926 -1.93846,3.69988 -1.85461,5.61158c0.05629,1.28329 1.56853,1.74025 2.59706,1.30679c1.12575,-0.47442 2.01973,-2.16775 2.68358,-3.16351l0.12711,-0.4649c0,0 0.23717,-0.71151 0.94868,-0.47434z" fill="#000000" fill-rule="nonzero" stroke="none" stroke-width="0.5" stroke-linecap="butt" stroke-linejoin="miter"/></g></g></svg>