<svg version="1.1" xmlns="http://www.w3.org/2000/svg" xmlns:xlink="http://www.w3.org/1999/xlink" width="114.76635" height="70.43237" viewBox="0,0,114.76635,70.43237"><defs><linearGradient x1="197.225" y1="205.09771" x2="176.96098" y2="214.72891" gradientUnits="userSpaceOnUse" id="color-1"><stop offset="0" stop-color="#000000"/><stop offset="1" stop-color="#000000" stop-opacity="0"/></linearGradient></defs><g transform="translate(-172.82485,-164.69288)"><g data-paper-data="{&quot;isPaintingLayer&quot;:true}" stroke-miterlimit="10" stroke-dasharray="" stroke-dashoffset="0" style="mix-blend-mode: normal"><g stroke-linejoin="miter"><path d="M239.57534,180.58353c5.77408,12.14865 0.16285,26.88875 -12.53306,32.92292c-12.69588,6.03417 -27.66877,1.07741 -33.44285,-11.07124c-5.77408,-12.14865 -0.16285,-26.88875 12.53306,-32.92292c12.69588,-6.03417 27.66877,-1.07741 33.44285,11.07124z" fill="none" fill-rule="nonzero" stroke="#000000" stroke-width="4.5" stroke-linecap="butt"/><g stroke-linecap="butt"><g fill-rule="nonzero"><path d="M196.20689,183.77339l0.01383,0.00241" data-paper-data="{&quot;index&quot;:null}" fill="#ffab19" stroke="#000000" stroke-width="5"/><g data-paper-data="{&quot;index&quot;:null}" fill="none" stroke="none" stroke-width="1" font-family="sans-serif" font-weight="normal" font-size="12" text-anchor="start"/></g><path d="M196.20689,183.77339l0.01383,0.00241" data-paper-data="{&quot;index&quot;:null}" fill="#ffab19" fill-rule="nonzero" stroke="#000000" stroke-width="5"/><path d="M216.8494,192.73892" fill="#001026" fill-rule="evenodd" stroke="#000000" stroke-width="5"/><g data-paper-data="{&quot;index&quot;:null}" fill="none" fill-rule="nonzero" stroke="none" stroke-width="1" font-family="sans-serif" font-weight="normal" font-size="12" text-anchor="start"/><g data-paper-data="{&quot;index&quot;:null}" fill="none" fill-rule="nonzero" stroke="none" stroke-width="1" font-family="sans-serif" font-weight="normal" font-size="12" text-anchor="start"/></g><path d="M222.1858,216.78192l-26.6968,12.42986c0,0 -2.31723,0.72564 -2.39105,-0.23742c-0.16928,-2.20833 1.39583,-12.7454 1.39583,-12.7454l-12.2597,1.42784c0,0 -2.31116,0.09775 -3.07151,-0.75797c-0.70731,-0.79603 5.56437,-14.14147 5.56437,-14.14147c0,0 -9.01608,0.28858 -11.88901,-0.53932c-1.12814,-0.32509 6.92693,-12.62406 13.15543,-19.71265c3.04777,-3.46866 7.09217,-8.433 11.0151,-11.10608c6.50448,-4.43215 12.9056,-4.93705 12.9056,-4.93705" fill="none" fill-rule="nonzero" stroke="#000000" stroke-width="3" stroke-linecap="round"/><path d="M193.80033,230.01438c0,0 -1.08147,-1.04037 -0.80075,-3.31386c0.35162,-2.84762 3.77947,-8.07615 1.27206,-9.49901c-3.2481,-1.8432 -14.44047,3.98286 -14.68941,-0.15825c-0.2044,-3.40033 5.82283,-12.31474 4.93363,-14.18559c-0.88722,-1.86673 -4.47308,1.22968 -8.01994,-0.13053c-5.0444,-1.9345 -3.42271,-2.71144 -3.42271,-2.71144c0,0 7.37812,-11.78021 11.47218,-16.43519c3.84115,-4.36741 12.38184,-10.68703 12.38184,-10.68703c0,0 -7.58754,18.82694 -6.05774,27.01139c1.69582,9.07259 25.53762,18.3298 25.53762,18.3298z" data-paper-data="{&quot;index&quot;:null}" fill="url(#color-1)" fill-rule="nonzero" stroke="none" stroke-width="0" stroke-linecap="butt"/></g><path d="M235.22898,209.30894l13.54053,-2.39351" fill="none" fill-rule="nonzero" stroke="#000000" stroke-width="6" stroke-linecap="round" stroke-linejoin="miter"/><path d="M248.07967,218.60756c0,0 -7.85309,0.46487 -8.51283,-0.44126c-1.19457,-1.64071 -4.3534,-9.84418 -4.3534,-9.84418c0,0 10.84531,-8.96721 13.34525,-10.31521c0.41916,-0.22602 10.8545,-6.54732 10.8545,-6.54732" fill="none" fill-rule="nonzero" stroke="#000000" stroke-width="6" stroke-linecap="round" stroke-linejoin="miter"/><g><g><g stroke="#001026" stroke-width="1.2"><path d="M250.0342,197.77967l25.78874,4.34149c0,0 2.34018,-6.67646 9.1205,-4.56093c0.38654,0.12061 2.26978,0.76388 2.02608,3.729c-0.23343,2.83998 -2.56659,7.96661 -3.43076,9.83649c-0.40137,0.86847 -1.41362,2.07666 -2.72152,2.65961c-1.31685,0.58691 -2.83358,0.04864 -3.70213,-0.20063c-0.35376,-0.10153 -28.74739,-6.0658 -28.74739,-6.0658" fill="#bf0000" fill-rule="evenodd" stroke-linecap="round" stroke-linejoin="round"/><path d="M253.95394,209.2994c-6.94873,-2.16807 -5.59855,-7.3426 -4.76865,-10.00244c0.36087,-1.1566 -1.55399,-1.53445 4.2129,-0.99867c1.2701,0.118 6.34523,1.08818 10.82933,1.33983c3.07054,0.17232 5.9674,-0.32386 6.76443,-0.34334c1.88318,-0.046 3.39512,0.62746 3.39512,0.62746l-1.42574,0.65267c0,0 0.98295,-0.41764 1.53317,-0.54008c1.71406,-0.38144 3.01009,-0.67755 3.01009,-0.67755c0,0 -2.40249,6.72161 -0.98387,10.01348c1.41862,3.29186 5.9041,3.14583 5.9041,3.14583c0,0 -2.23199,4.85066 -5.14751,4.45604c-0.71875,-0.09728 -2.547,-1.47202 -2.547,-1.47202c0,0 -0.0499,0.6134 -0.53309,0.49542c-0.24631,-0.06014 -3.63701,-1.87177 -7.65225,-3.20797c-5.28575,-1.75901 -11.58986,-3.17626 -12.59106,-3.48864z" fill="#000000" fill-rule="nonzero" stroke-linecap="butt" stroke-linejoin="miter"/></g><path d="M246.49534,216.58337c-0.20807,-0.04932 0.72998,-1.0379 1.55358,-3.65068c1.08654,-3.44692 2.19613,-8.88447 2.41296,-10.44071c0.56226,-4.03562 -0.70846,-5.10951 -0.15688,-4.9788c2.04115,0.48372 5.14478,3.74583 4.07932,8.24168c-0.46821,1.97571 -0.93526,6.1572 -2.29102,8.21274c-1.72933,2.62193 -4.45382,2.8869 -5.59797,2.61576z" fill="#004fd9" fill-rule="nonzero" stroke="#001026" stroke-width="1.2" stroke-linecap="butt" stroke-linejoin="miter"/><g fill-rule="nonzero" stroke-linecap="butt" stroke-linejoin="miter"><g fill="none" stroke="none" stroke-width="1" font-family="sans-serif" font-weight="normal" font-size="12" text-anchor="start"/><path d="M245.05116,216.67636c0,0 3.65388,-7.97155 4.73251,-11.80659c1.07862,-3.83502 0.6606,-7.3686 0.6606,-7.3686c0,0 1.98057,0.5343 3.41083,2.79169c1.10711,1.74735 1.91871,4.72883 1.01126,8.02244c-0.82671,3.00056 -2.41076,6.15871 -4.17353,7.44185c-2.67185,1.94484 -5.64168,0.91921 -5.64168,0.91921z" fill="#000000" stroke="#001026" stroke-width="1.2"/></g><g stroke="#001026" stroke-width="1.2"><path d="M252.68475,208.89968c0,0 28.13316,11.57246 28.05919,12.19353c-0.21232,1.7823 -5.34962,10.41199 -5.34962,10.41199l-27.50382,-14.36516" data-paper-data="{&quot;index&quot;:null}" fill="#ffab19" fill-rule="evenodd" stroke-linecap="round" stroke-linejoin="round"/><path d="M252.62768,207.32788c0,0 5.9285,2.51916 9.12301,3.67641c3.06401,1.10996 9.66893,3.13116 9.66893,3.13116c0,0 5.08562,0.46841 6.01994,1.70112c0.43276,0.57095 -2.93526,-0.04083 -2.93526,-0.04083c0,0 3.7959,0.69328 4.13155,0.75062c2.34188,0.40017 4.99716,2.39326 4.42558,5.46075c-0.62758,3.36791 -1.83231,8.90438 -4.43069,11.19247c-1.10557,0.97355 -3.81764,1.94463 -6.08982,0.82393c-2.56244,-1.26385 -4.64034,-4.70684 -4.64034,-4.70684l2.39401,3.30243c0,0 -1.54832,-0.41592 -2.56613,-1.13309c-1.14301,-0.8054 -3.95996,-3.46545 -3.95996,-3.46545l-17.12674,-10.52182" data-paper-data="{&quot;index&quot;:null}" fill="#000000" fill-rule="evenodd" stroke-linecap="round" stroke-linejoin="round"/><path d="M279.57507,218.3275c1.60843,0.54932 3.31258,1.76253 3.88061,3.49961c0.57012,1.74352 -2.33428,10.40994 -3.9305,11.42133c-1.51586,0.96049 -3.78605,0.87868 -5.35584,0.34255c-3.2228,-1.10068 -4.6253,-5.4098 -3.13254,-9.62471c1.49275,-4.21488 5.31547,-6.73945 8.53828,-5.63875z" fill="#ff0000" fill-rule="nonzero" stroke-linecap="butt" stroke-linejoin="miter"/></g></g><g fill="#000000" fill-rule="nonzero" stroke="#001026" stroke-width="1.2" stroke-linecap="butt" stroke-linejoin="miter"><path d="M256.47838,218.58543c0,0 -0.36109,2.92833 -0.85918,3.71312c-0.15334,0.24158 -1.2534,0.6888 -2.42695,0.74267c-1.46471,0.06725 -3.12859,-0.34478 -4.18807,-0.99163c-2.72584,-1.66425 -4.74651,-6.80647 -3.59715,-8.6174c0.49811,-0.78485 3.54547,-2.33886 3.55198,-2.33882"/></g></g><g data-paper-data="{&quot;index&quot;:null}" fill-rule="nonzero" stroke="none" stroke-width="1" stroke-linecap="butt" stroke-linejoin="miter"><path d="M264.86858,186.18346c-0.183,-0.10707 -0.19361,-0.25496 -0.17519,-0.43067c0.05127,-0.27489 0.15687,-0.53414 0.22634,-0.80382c-0.03798,-0.06526 -0.07594,-0.13053 -0.11937,-0.17923c-0.87231,-1.08421 -1.1386,-2.31962 -1.18528,-3.6185c-0.0086,-0.27404 -0.03531,-0.55335 0.05223,-0.81777c0.01644,-0.04958 0.02017,-0.12092 -0.00516,-0.16444c-0.13925,-0.23929 -0.06814,-0.45416 -0.00968,-0.69079c0.0475,-0.20356 0.13126,-0.39668 0.19692,-0.59501c0.03829,-0.11568 0.11283,-0.22095 0.24895,-0.27227c0.13612,-0.05128 0.23426,-0.16785 0.3269,-0.26786c0.4654,-0.62627 1.04127,-1.1664 1.70948,-1.6256c0.38131,-0.25219 0.79512,-0.42262 1.22705,-0.58782c1.27224,-0.4843 2.59823,-0.59101 3.95093,-0.41846c0.60743,0.08455 1.20565,0.25692 1.78198,0.49541c0.43676,0.18019 0.79902,0.46564 1.13767,0.76237c1.07752,0.9442 1.70119,2.11966 1.97634,3.44818c0.05577,0.25143 0.04626,0.52025 0.03672,0.78906c-0.0003,0.18095 0.02298,0.3506 0.17141,0.50203c0.13576,0.12965 0.15906,0.29929 0.14063,0.47502c-0.05127,0.27489 -0.13879,0.53935 -0.22633,0.8038c-0.02736,0.08266 -0.0855,0.13834 -0.14366,0.19399c-0.23971,0.18437 -0.37616,0.41663 -0.48178,0.67586c-0.2041,0.55676 -0.57855,1.02819 -0.93486,1.50484c-0.13817,0.17744 -0.29442,0.34967 -0.48146,0.49493c-0.59571,0.48008 -1.19864,0.92193 -1.93187,1.21756c-0.08205,0.24792 -0.1877,0.50716 -0.2752,0.77162c-0.03284,0.09919 -0.07112,0.21488 -0.20176,0.24963c-0.11249,0.03997 -0.12722,0.14439 -0.16001,0.24355c-0.2369,0.65591 -0.45571,1.31703 -0.69263,1.97294c-0.50499,1.4658 -1.01534,2.94812 -1.55655,4.40349c-0.53028,1.42229 -1.0061,2.86026 -1.50014,4.293c-0.07657,0.23141 -0.18395,0.4358 -0.2605,0.66721c-0.37194,1.12392 -0.74392,2.24786 -1.13398,3.36655c-0.06563,0.19833 -0.09504,0.40712 -0.26397,0.55756c-0.05815,0.05569 -0.06736,0.14351 -0.09473,0.22616c-0.27345,0.82644 -0.57058,1.66416 -0.84407,2.49058c-0.01095,0.03306 -0.02737,0.08263 -0.03828,0.11569c-0.06938,0.26968 -0.24004,0.36534 -0.53213,0.40791c-0.97781,0.13464 -1.89886,-0.02215 -2.7632,-0.47036c-0.21925,-0.11752 -0.42755,-0.26804 -0.60681,-0.44642c-0.13579,-0.12967 -0.16456,-0.28279 -0.128,-0.45327c0.10974,-0.51151 0.2013,-1.02826 0.3165,-1.55632c0.08409,-0.37409 0.20989,-0.75424 0.23959,-1.14399c0.06315,-0.8508 0.3493,-1.65549 0.46679,-2.49063c0.07516,-0.46714 0.10862,-0.92826 0.2019,-1.39021c0.10425,-0.49499 0.16678,-0.98392 0.24738,-1.46758c0.15208,-0.87952 0.34588,-1.76512 0.4798,-2.64986c0.14895,-1.17006 0.3704,-2.3193 0.59186,-3.46847c0.07144,-0.39585 0.14281,-0.79162 0.21425,-1.18747c0.12438,-0.61593 0.25427,-1.24833 0.37869,-1.86424c0.07313,-0.34102 0.10457,-0.67596 0.17768,-1.01697c0.06049,-0.3628 0.1644,-0.67679 0.24849,-1.0509zM265.39833,186.08265c0.18471,0.16187 0.38034,0.29067 0.61052,0.37513c0.4221,0.28457 0.90061,0.45868 1.37911,0.63275c0.59995,0.2272 1.23987,0.3935 1.86169,0.55457c0.71245,0.18719 1.42521,0.19345 2.16161,0.18842c0.08346,-0.01217 0.16689,-0.02433 0.29204,-0.04258c0.04378,-0.13221 0.08748,-0.26445 0.13125,-0.39667c0.01095,-0.03306 0.00376,-0.07135 0.00204,-0.12613c-0.12688,-0.03657 -0.25926,-0.05662 -0.39709,-0.06013c-0.23396,-0.01309 -0.4388,-0.05405 -0.67272,-0.06718c-0.57663,-0.05755 -1.12224,-0.26904 -1.68245,-0.37618c-0.29552,-0.06703 -0.60194,-0.10108 -0.88651,-0.20117c-0.61808,-0.23242 -1.26346,-0.3822 -1.85962,-0.68073c-0.15222,-0.08008 -0.32255,-0.16534 -0.47477,-0.24544c-0.03969,-0.12009 -0.19566,-0.12877 -0.27537,-0.18798c-0.09234,-0.08093 -0.18473,-0.16187 -0.38958,-0.20277c0.05577,0.25143 -0.06971,0.45065 -0.06284,0.66987c0.08516,0.04266 0.12486,0.16269 0.2627,0.16622zM265.93744,186.85357c-0.3677,-0.26893 -0.471,-0.31676 -0.71761,-0.35164c-0.0475,0.20356 -0.08954,0.39061 -0.13707,0.59418c-0.03829,0.11568 0.00683,0.21923 0.09922,0.30019c0.06161,0.05398 0.15219,0.08007 0.21378,0.13403c0.23361,0.19409 0.5254,0.33244 0.8209,0.3995c0.09958,0.11918 0.24454,0.16101 0.3896,0.20281c0.81027,0.2516 1.59698,0.5145 2.43458,0.68349c0.37351,0.07143 0.75249,0.12635 1.11876,0.15946c0.29385,0.01226 0.60573,0.02972 0.88891,-0.10595c0.0711,-0.21489 0.14217,-0.42973 0.21331,-0.64462c-0.15594,-0.00876 -0.29382,-0.01227 -0.41347,-0.01057c-0.55133,-0.01407 -1.09172,-0.06115 -1.61025,-0.17436c-0.66899,-0.13849 -1.31066,-0.35961 -1.95779,-0.56419c-0.30819,-0.08881 -0.56541,-0.27154 -0.87905,-0.34384c-0.12486,-0.16269 -0.30066,-0.23148 -0.46381,-0.2785zM262.09735,205.89735c0.22097,0.1723 0.46927,0.26199 0.72852,0.31858c0.01263,0.02174 0.04346,0.04873 0.0616,0.05396c0.44054,0.10885 0.89199,0.18466 1.34004,0.15082c0.26305,-0.01473 0.52056,-0.01293 0.76198,-0.1425c0.30631,-0.9256 0.61259,-1.85117 0.93537,-2.82635c-0.49521,0.05641 -0.9577,0.01373 -1.41457,-0.04556c-0.40259,-0.04359 -0.7487,-0.19766 -1.14034,-0.2743c-0.14501,-0.04178 -0.26645,-0.09486 -0.41149,-0.13665c-0.19016,-0.14532 -0.40943,-0.26282 -0.67585,-0.35772c-0.16409,0.49587 -0.17221,1.00046 -0.28912,1.4737c-0.10425,0.49499 -0.19036,0.99524 -0.28912,1.47368c0.12486,0.1627 0.25893,0.23758 0.39304,0.3124zM262.74358,202.44459c0.09958,0.11919 0.2391,0.17754 0.38411,0.2193c0.12313,0.10793 0.29178,0.13842 0.44943,0.20195c0.50213,0.16279 1.03157,0.24296 1.55382,0.28484c0.3119,0.01747 0.63478,0.00186 0.94325,-0.09029c0.02191,-0.06612 0.06189,-0.127 0.08373,-0.19312c0.26807,-0.80992 0.53059,-1.60322 0.81673,-2.40792c0.30256,-0.85424 0.59963,-1.69197 0.9022,-2.54622c0.43382,-1.25095 0.88034,-2.4801 1.31415,-3.73106c0.50119,-1.39446 0.94252,-2.78808 1.47998,-4.17207c0.09471,-0.22616 0.15858,-0.47932 0.24067,-0.72725c-0.22126,0.00865 -0.43534,0.05559 -0.6457,0.03117c-0.6837,-0.03407 -1.3527,-0.17257 -2.01077,-0.34408c-0.58007,-0.16716 -1.15469,-0.35086 -1.72932,-0.53458c-0.22474,-0.10098 -0.43677,-0.18017 -0.66149,-0.28116c-0.11218,-0.14097 -0.28629,-0.15492 -0.42038,-0.22976c-0.15222,-0.08008 -0.27535,-0.18798 -0.4621,-0.22369c-0.09095,0.15483 -0.09846,0.29754 -0.11862,0.41843c-0.12331,1.03266 -0.39713,2.04003 -0.57482,3.05699c-0.1172,0.65422 -0.23445,1.30841 -0.33348,1.96782c-0.15208,0.87952 -0.28054,1.7477 -0.42713,2.61069c-0.11546,0.70899 -0.23099,1.41802 -0.36462,2.1218c-0.13193,0.75859 -0.2765,1.49542 -0.42653,2.24881c-0.12816,0.68724 -0.26175,1.39104 -0.37725,2.10004c0.15765,0.06353 0.23362,0.19406 0.3841,0.21932zM276.12772,182.04136c-0.44801,0.03381 -0.85062,-0.00977 -1.25863,-0.03682c-0.42617,-0.03229 -0.83965,-0.04278 -1.26034,-0.09162c-0.40258,-0.0436 -0.81233,-0.12548 -1.20942,-0.18561c-0.41525,-0.06536 -0.83045,-0.13068 -1.25832,-0.21776c-0.39159,-0.07666 -0.79589,-0.17509 -1.18753,-0.25173c-0.40425,-0.0984 -0.78668,-0.26289 -1.21284,-0.29518c-0.34784,-0.20885 -0.76854,-0.25769 -1.14379,-0.3839c-0.38784,-0.14799 -0.80483,-0.26812 -1.19268,-0.4161c-0.36972,-0.14277 -0.75214,-0.3073 -1.1164,-0.46657c-0.3824,-0.16454 -0.72479,-0.38995 -1.12358,-0.50484c-0.16754,0.38623 -0.20583,0.50191 -0.15926,0.84123c0.19016,0.14532 0.38037,0.29068 0.61773,0.41336c0.29177,0.13839 0.5835,0.27679 0.88794,0.43695c0.57804,0.29332 1.14347,0.56485 1.77792,0.74772c0.43508,0.12538 0.87561,0.23422 1.2888,0.42573c0.08516,0.04266 0.19394,0.07399 0.31361,0.07228c0.23393,0.01308 0.46414,0.09756 0.68166,0.16022c0.79762,0.22986 1.62806,0.36056 2.44586,0.46947c1.07707,0.16554 2.15613,0.20493 3.2516,0.1947c0.2158,0.00787 0.43161,0.01575 0.62583,-0.09122c0.11832,-0.23747 0.18224,-0.49065 0.23178,-0.82031zM269.45508,177.96408c-0.21612,0.1731 -0.35975,0.36707 -0.52148,0.55581c-0.15082,0.15567 -0.23458,0.34881 -0.2277,0.56805c-0.01705,0.41148 -0.09391,0.82386 -0.24334,1.21531c-0.01095,0.03306 -0.00925,0.08786 -0.01471,0.10438c0.07422,0.07568 0.14674,0.09657 0.25381,0.07314c0.02359,-0.01128 0.05268,-0.03915 0.05814,-0.05569c0.21301,-0.46367 0.46227,-0.91684 0.7478,-1.35961c0.04002,-0.06087 0.09095,-0.15483 0.07657,-0.2314c0.01502,-0.28536 0.03001,-0.57069 -0.12909,-0.87003zM267.54148,180.14637c0.20205,-0.4306 0.43493,-0.8342 0.68047,-1.21606c0.07998,-0.12176 0.10018,-0.24269 0.08954,-0.39059c-0.02502,-0.22445 -0.09721,-0.42632 -0.16392,-0.64472c-0.01439,-0.07657 -0.02328,-0.16962 -0.143,-0.16792c-0.18364,0.25487 -0.37991,0.488 -0.52729,0.75328c0.07844,0.783 0.07843,0.78297 -0.16598,1.58155c0.03796,0.06527 0.10504,0.10268 0.23018,0.08445zM271.45932,183.06775c-0.17098,0.27661 -0.32383,0.55849 -0.47666,0.84033c-0.04003,0.06089 -0.08,0.12177 -0.08376,0.1931c0.03935,0.301 0.06066,0.59683 0.20705,0.87439c0.28317,-0.13564 0.41958,-0.3679 0.60494,-0.56797c0.09266,-0.1 0.10734,-0.20442 0.09125,-0.33579c-0.0575,-0.30623 -0.07875,-0.60207 -0.07637,-0.90912c0.00548,-0.01654 -0.02526,-0.0435 -0.0506,-0.08699c-0.05984,0.00086 -0.13789,-0.00351 -0.21583,-0.00787zM273.09691,178.95921c-0.32318,0.19654 -0.51399,0.41315 -0.72291,0.6245c-0.0691,0.08873 -0.0783,0.17657 -0.08752,0.26444c-0.02248,0.42802 -0.09944,0.84041 -0.25428,1.24837c-0.01642,0.04957 -0.01472,0.10437 -0.0311,0.15396c0.19395,0.07399 0.23566,0.06792 0.27941,-0.06431c0.14221,-0.42978 0.36962,-0.81684 0.67668,-1.14475c0.18535,-0.20004 0.23286,-0.40362 0.21335,-0.64464c-0.03422,-0.13662 -0.05576,-0.25146 -0.07358,-0.43762zM269.67505,180.77933c0.09063,0.02609 0.13063,-0.03483 0.15253,-0.10093c0.15317,-0.46277 0.44583,-0.86726 0.73859,-1.27174c0.22909,-0.33227 0.2824,-0.73334 0.13083,-1.1753c-0.17612,0.11219 -0.24896,0.27227 -0.38882,0.3949c-0.2852,0.2618 -0.38912,0.57585 -0.42602,0.92731c-0.04783,0.38451 -0.07755,0.77429 -0.23411,1.12747c0.00175,0.05479 0.01436,0.07659 0.02704,0.09834zM271.82262,178.6101c-0.17441,0.16699 -0.30884,0.27308 -0.42507,0.38442c-0.19798,0.17833 -0.28176,0.37143 -0.28585,0.62371c0.00485,0.34538 -0.06829,0.6864 -0.15955,1.02217c-0.02017,0.12094 -0.06392,0.25314 -0.10221,0.36883c0.08516,0.04266 0.11969,-0.00168 0.13063,-0.03475c0.24923,-0.45322 0.51664,-0.90117 0.85109,-1.31173c0.04548,-0.07741 0.08547,-0.1383 0.0947,-0.22617c-0.01405,-0.25752 -0.00998,-0.50981 -0.10374,-0.82648zM272.65605,183.23159c-0.03141,0.33495 -0.18426,0.61676 -0.31898,0.90385c-0.02735,0.08263 -0.10362,0.13308 -0.09471,0.22616c0.01064,0.14794 0.14065,0.47506 0.29081,0.68128c0.18163,-0.12872 0.28349,-0.3166 0.4162,-0.47754c0.10362,-0.1331 0.12924,-0.27053 0.08236,-0.42887c-0.06842,-0.27317 -0.10062,-0.53594 -0.06748,-0.81607c0.0055,-0.01653 -0.01986,-0.06002 -0.03251,-0.08175c-0.06706,-0.03744 -0.13955,-0.05834 -0.27567,-0.00701zM266.09544,182.53587c0.03222,0.26273 -0.07895,0.5385 0.01311,0.80039c0.13235,0.02004 0.2141,-0.04692 0.3085,-0.09215c0.17066,-0.09569 0.34847,-0.15303 0.49929,-0.30872c-0.01028,-0.32886 0.13533,-0.64898 0.14862,-0.98914c-0.07422,-0.07568 -0.16484,-0.10184 -0.26645,-0.09487c-0.20174,0.24965 -0.4343,0.47233 -0.70307,0.68453zM269.25295,182.59489c-0.09095,0.15483 -0.1819,0.30966 -0.31083,0.39924c-0.31052,0.21827 -0.38536,0.50452 -0.33332,0.82728c0.02154,0.11482 -0.01129,0.21402 0.06466,0.34456c0.23599,-0.11307 0.42307,-0.2583 0.61008,-0.40358c0.05268,-0.03915 0.07453,-0.10525 0.08375,-0.1931c0.00952,-0.26883 0.03173,-0.51589 0.04126,-0.7847c0.01644,-0.04958 0.00203,-0.12616 -0.15566,-0.1897zM268.11087,182.26579c-0.19284,0.34273 -0.41102,0.64194 -0.7342,0.8385c-0.07077,0.03392 -0.07453,0.10525 -0.0964,0.17136c-0.0311,0.15398 -0.04409,0.31322 0.01547,0.49328c0.33039,-0.15826 0.5701,-0.34267 0.81529,-0.54358c0.08173,-0.06697 0.12722,-0.14436 0.1419,-0.24877c0.02397,-0.19225 0.06595,-0.37931 0.08986,-0.57157c0.0055,-0.01653 -0.01986,-0.06005 -0.03253,-0.08178c-0.05437,-0.01568 -0.10877,-0.03134 -0.19938,-0.05743zM274.20664,180.16614c-0.01782,-0.18617 -0.03012,-0.38889 -0.04793,-0.57509c-0.01263,-0.02174 -0.02532,-0.04352 -0.05062,-0.087c-0.24865,0.09127 -0.42307,0.2583 -0.55574,0.41917c-0.04267,0.54897 -0.07438,1.06483 -0.26036,1.62681c0.34131,-0.19133 0.30189,-0.49233 0.4274,-0.69153c0.1419,-0.24877 0.31456,-0.47058 0.48724,-0.69239zM269.33253,177.49423c-0.11563,-0.25057 -0.19506,-0.49072 -0.41053,-0.67956c-0.11081,0.09478 -0.22879,0.15132 -0.31597,0.23487c-0.08719,0.08351 -0.19252,0.16177 -0.23079,0.27748c0.00517,0.1644 0.09923,0.30017 0.15159,0.44197c0.05237,0.14179 0.06297,0.28972 0.18064,0.41415c0.2144,-0.22792 0.40523,-0.44446 0.62512,-0.68888zM266.37036,179.84511c0.2366,-0.47494 0.42771,-0.87251 0.61885,-1.27001c0.01095,-0.03306 0.04552,-0.07743 0.02017,-0.12092c-0.06672,-0.21837 -0.08626,-0.45937 -0.28361,-0.64298c-0.14911,0.2105 -0.29271,0.40449 -0.4182,0.6037c0.10985,0.44807 0.1,0.89782 0.06281,1.43025zM269.86442,184.52725c0.20145,-0.06868 0.29238,-0.22351 0.40867,-0.33484c0.13987,-0.12264 0.22536,-0.26093 0.213,-0.46363c-0.0086,-0.27403 -0.01718,-0.5481 0.10658,-0.80213c-0.11598,-0.06964 -0.19395,-0.07399 -0.22676,0.02517c-0.10014,0.24269 -0.20583,0.50192 -0.38569,0.68544c-0.24896,0.27226 -0.18601,0.562 -0.11581,0.89zM268.19014,183.64645c-0.32864,0.21307 -0.59915,0.3705 -0.85152,0.53309c-0.03829,0.11568 -0.00581,0.1975 0.00859,0.27402c0.03251,0.08178 0.03594,0.19136 0.15186,0.26099c0.24319,-0.07477 0.47913,-0.1878 0.70247,-0.32255c0.01671,-0.23051 0.00984,-0.44977 -0.01139,-0.74557zM270.76811,185.2765c-0.08108,-0.29492 -0.15504,-0.55158 -0.22345,-0.82476c-0.198,0.17831 -0.39055,0.34011 -0.58307,0.50186c0.05577,0.25143 0.08077,0.47592 0.2491,0.6873c0.21236,-0.10172 0.37583,-0.23568 0.55742,-0.36439zM270.37773,177.21605c-0.25035,0.03647 -0.37584,0.23567 -0.53931,0.3696c-0.05268,0.03915 -0.06189,0.127 -0.04203,0.18704c0.05406,0.19665 0.09546,0.3715 0.15497,0.55159c-0.00548,0.01654 0.03081,0.02698 0.06706,0.03744c0.2035,-0.19481 0.39425,-0.41143 0.59775,-0.60625c-0.03592,-0.19138 -0.1372,-0.36541 -0.23846,-0.53944zM272.98169,178.52772c-0.01237,-0.2027 -0.03015,-0.38887 -0.19123,-0.56206c-0.19427,0.10698 -0.42476,0.20348 -0.58105,0.37572c0.01607,0.13136 -0.00407,0.2523 0.03562,0.37234c0.02152,0.11482 -0.04036,0.24185 0.10641,0.33843c0.21612,-0.17306 0.43223,-0.34616 0.63029,-0.52448zM271.30293,185.34012c0.02328,0.16964 0.1591,0.2993 0.28941,0.44548c0.21069,-0.15653 0.44116,-0.25306 0.59027,-0.46354c-0.10127,-0.17402 -0.13174,-0.38195 -0.28739,-0.57164c-0.2035,0.19481 -0.38883,0.39487 -0.59227,0.5897zM273.86746,183.29103c-0.1166,0.29229 -0.16609,0.62202 -0.31898,0.90385c-0.11829,0.23749 -0.03513,0.40624 0.13861,0.60117c0.18704,-0.14523 0.28349,-0.31659 0.40349,-0.49927c-0.14815,-0.33234 -0.13489,-0.67254 -0.22316,-1.00574zM265.43181,179.32117c0.07798,0.00438 0.09437,-0.04522 0.11081,-0.09478c0.08923,-0.20963 0.16581,-0.44105 0.27318,-0.64546c0.17642,-0.29315 0.04983,-0.51068 -0.12566,-0.76041c-0.07456,0.10527 -0.13812,0.17743 -0.1836,0.25486c-0.12001,0.18268 -0.1983,0.35924 -0.09534,0.5881c0.05237,0.14179 0.03936,0.30104 0.0319,0.44372c-0.04003,0.06089 -0.10358,0.13309 -0.01127,0.214zM265.13032,182.69227c0.11249,-0.03997 0.18879,-0.09043 0.25957,-0.12435c0.22502,-0.07996 0.32867,-0.21308 0.35804,-0.42187c0.01847,-0.17572 0.09677,-0.35232 0.13332,-0.52283c0.01644,-0.04958 0.05096,-0.09394 -0.07048,-0.14705c-0.16725,0.20526 -0.37071,0.40015 -0.60496,0.56798c-0.05268,0.03915 -0.08,0.12174 -0.10189,0.18786c-0.00752,0.14265 -0.00954,0.26885 0.0264,0.46022zM269.47758,184.79597c-0.01781,-0.18617 -0.01202,-0.38365 -0.08971,-0.569c-0.24145,0.12959 -0.49006,0.22086 -0.68807,0.39916c0.05407,0.19663 0.05375,0.37757 0.22033,0.53422c0.19427,-0.10698 0.4012,-0.19215 0.55744,-0.3644zM271.17681,178.64124c0.24143,-0.1296 0.41584,-0.29659 0.55395,-0.47402c-0.05406,-0.19663 -0.09548,-0.37148 -0.2094,-0.56727c-0.17786,0.05739 -0.31225,0.16349 -0.43397,0.29135c0.03765,0.2462 0.05719,0.4872 0.08936,0.74994zM267.61263,185.09134c0.07049,0.14706 0.09749,0.24533 0.16629,0.33756c0.03798,0.06526 0.08141,0.11399 0.12489,0.16271c0.20861,-0.0304 0.41007,-0.09908 0.57353,-0.23302c-0.03592,-0.19138 -0.07189,-0.38277 -0.21489,-0.55073c-0.21236,0.10172 -0.41381,0.17043 -0.64979,0.28346zM265.03877,181.10887c-0.26505,0.14091 -0.4538,0.2313 -0.67166,0.34957c-0.04002,0.06087 -0.06018,0.18178 -0.0386,0.29665c0.00344,0.1096 -0.0711,0.21487 0.01031,0.32886c0.17956,-0.00257 0.31567,-0.05389 0.44461,-0.14345c0.0694,-0.2697 0.15147,-0.51762 0.25538,-0.83162zM269.25617,176.58504c0.06332,0.10878 0.12658,0.21755 0.18983,0.3263c0.06332,0.10878 0.13209,0.20099 0.19535,0.30974c0.18704,-0.14522 0.35772,-0.2409 0.45414,-0.41225c-0.02156,-0.11481 -0.11939,-0.17923 -0.19358,-0.25495c-0.07422,-0.07568 -0.13208,-0.20098 -0.2644,-0.22103c-0.14709,0.08438 -0.28317,0.13566 -0.38131,0.25222zM269.80954,185.83307c-0.09034,-0.20706 -0.11531,-0.43157 -0.28914,-0.62647c-0.17063,0.09568 -0.32318,0.19656 -0.49384,0.29222c0.09033,0.20706 0.14985,0.38718 0.34005,0.53251c0.15425,-0.04608 0.29755,-0.05909 0.4429,-0.19826zM267.30583,177.97836c0.20724,-0.26615 0.38539,-0.50448 0.56351,-0.74279c-0.03969,-0.12009 -0.06122,-0.23493 -0.17719,-0.30455c-0.25959,0.12436 -0.42677,0.32961 -0.61212,0.52968c0.03969,0.12009 0.07937,0.24013 0.14266,0.34889c-0.00377,0.07135 0.02703,0.0983 0.08311,0.16878zM266.86731,184.04373c-0.04862,-0.21316 0.01705,-0.41151 -0.08424,-0.58553c-0.25409,0.10783 -0.4846,0.20434 -0.69529,0.36092c0.08863,0.15228 0.03389,0.31753 0.18235,0.46897c0.20859,-0.0304 0.36664,-0.14784 0.59715,-0.24433zM273.90127,178.44871c-0.15971,0.0626 -0.30674,0.14697 -0.42303,0.25832c0.04315,0.22969 0.06812,0.45414 0.10033,0.71688c0.1689,-0.15046 0.32145,-0.25134 0.5212,-0.37482c-0.04313,-0.22969 -0.07359,-0.43763 -0.19847,-0.60036zM265.10063,183.08203c0.00139,0.23578 -0.00437,0.43326 0.13312,0.61774c0.17237,-0.04087 0.32113,-0.07036 0.43742,-0.18172c-0.00686,-0.21923 0.00437,-0.43322 -0.00969,-0.69075c-0.20145,0.06868 -0.38475,0.14261 -0.56086,0.25478zM272.1248,177.9368c0.19251,-0.16177 0.42478,-0.20351 0.52121,-0.37488c-0.05406,-0.19663 -0.16626,-0.3376 -0.30209,-0.46725c-0.18331,0.07391 -0.36116,0.13127 -0.47572,0.2974c0.08312,0.16878 0.14817,0.33235 0.2566,0.54465zM271.22205,186.00477c-0.08862,-0.15228 -0.14096,-0.29407 -0.28224,-0.40721c-0.18704,0.14523 -0.42477,0.20347 -0.56839,0.39746c0.07048,0.14707 0.15737,0.24452 0.31507,0.30806c0.18878,-0.09043 0.36489,-0.2026 0.53554,-0.29831zM266.57047,177.44054c-0.06501,-0.16358 -0.13376,-0.25575 -0.24424,-0.34198c-0.17066,0.09569 -0.33413,0.22959 -0.39973,0.42794c0.07595,0.13053 0.15188,0.26098 0.22237,0.40808c0.2052,-0.14 0.28894,-0.33312 0.42163,-0.49405zM274.55939,184.92063c-0.08139,-0.11397 -0.15018,-0.20623 -0.25345,-0.25409c-0.16344,0.13391 -0.29065,0.27836 -0.38709,0.44971c0.05778,0.12528 0.12657,0.2175 0.24253,0.28714c0.18163,-0.12872 0.26535,-0.32183 0.39801,-0.48275zM268.17711,185.90576c0.04313,0.22967 0.18266,0.28799 0.35129,0.31849c0.12688,0.03659 0.26473,0.04009 0.36287,-0.07648c-0.06501,-0.16358 -0.13546,-0.31061 -0.27126,-0.44028c-0.15971,0.0626 -0.30129,0.13042 -0.44289,0.19824zM275.05311,180.42816c-0.00516,-0.16441 0.0386,-0.29662 -0.06094,-0.41583c-0.45553,0.17651 -0.46886,0.51665 -0.40241,0.91598c0.15628,-0.17221 0.30711,-0.32793 0.46336,-0.50012zM266.61704,185.03982c0.18504,-0.01907 0.32113,-0.0704 0.47914,-0.1878c-0.09958,-0.11918 -0.06299,-0.28972 -0.18613,-0.3976c-0.11426,-0.01484 -0.17237,0.04083 -0.26128,0.06951c-0.09436,0.04521 -0.19595,0.05215 -0.23426,0.16786c0.03969,0.12009 0.0794,0.24016 0.20253,0.34805zM270.11383,180.83335c0.16657,0.15662 0.28628,0.15492 0.35363,0.0114c0.08925,-0.20962 0.14223,-0.42972 0.18972,-0.63329c0.0219,-0.06608 0.03107,-0.15399 -0.06673,-0.21837c-0.18908,0.27139 -0.34193,0.55322 -0.47664,0.84028zM272.24436,186.33557c0.00343,0.10961 0.05953,0.1801 0.16285,0.22799c0.23053,-0.09652 0.49182,-0.16604 0.67715,-0.3661c-0.18472,-0.16186 -0.35883,-0.17585 -0.5404,-0.04712c-0.09438,0.04523 -0.2196,0.06347 -0.2996,0.18523zM272.59764,181.36806c0.25376,0.07313 0.31913,0.05569 0.36834,-0.093c0.05844,-0.23662 0.12238,-0.48977 0.10831,-0.74729c-0.24348,0.25573 -0.46337,0.50013 -0.47666,0.8403zM274.74625,183.81582c-0.06189,0.12698 -0.10014,0.24274 -0.15658,0.35315c-0.09474,0.22616 -0.0947,0.22617 0.20424,0.40287c0.07456,-0.10527 0.1727,-0.22182 0.21267,-0.2827c-0.10125,-0.17404 -0.17174,-0.32105 -0.26035,-0.47333zM271.73031,176.42905c-0.13613,0.05128 -0.31021,0.03736 -0.37039,0.21916c0.0814,0.11399 0.18644,0.21667 0.2805,0.35241c0.15972,-0.0626 0.33208,-0.10341 0.43022,-0.22c-0.09958,-0.1192 -0.1755,-0.24974 -0.34036,-0.35158zM273.20827,184.8029c-0.1617,0.18877 -0.34163,0.37228 -0.50335,0.56103c0.00893,0.09306 0.04138,0.17486 0.16108,0.17314c0.21236,-0.10172 0.39946,-0.24698 0.52495,-0.44618c-0.03969,-0.12009 -0.09032,-0.20705 -0.18271,-0.288zM274.41028,178.83079c0.13235,0.02004 0.24491,-0.01993 0.35022,-0.09823c-0.01437,-0.07657 -0.02876,-0.15312 -0.04315,-0.22968c-0.027,-0.09831 -0.03595,-0.1914 -0.13378,-0.25579c-0.10877,-0.03135 -0.21031,-0.02444 -0.31019,0.03734c0.04143,0.17488 0.09551,0.37151 0.13686,0.54635zM270.94858,177.4711c0.15972,-0.0626 0.27054,-0.15742 0.36867,-0.27395c-0.11218,-0.14097 -0.20628,-0.27668 -0.30581,-0.39589c-0.16145,0.00782 -0.26676,0.08608 -0.31773,0.18003c0.08312,0.16878 0.16627,0.33757 0.25486,0.48989zM274.96575,179.55209c-0.02156,-0.11481 -0.04313,-0.22966 -0.0828,-0.34977c-0.01263,-0.02174 -0.04895,-0.0322 -0.07973,-0.05919c-0.08893,0.02866 -0.2086,0.03039 -0.30675,0.14696c0.01065,0.14793 -0.00778,0.32362 0.07534,0.49243c0.17235,-0.04087 0.27766,-0.11916 0.39395,-0.23048zM275.45626,181.25041c0.0783,-0.17658 0.28864,-0.1522 0.34333,-0.31747c-0.02876,-0.15307 0.00239,-0.30708 -0.09891,-0.4811c-0.15425,0.04608 -0.29038,0.09739 -0.28519,0.2618c0.00516,0.16442 -0.06218,0.30793 0.04077,0.53677zM273.52553,185.94439c0.11079,-0.09479 0.23972,-0.1844 0.34504,-0.26265c0.0236,-0.01129 0.01642,-0.0496 0.02733,-0.08264c-0.0797,-0.05917 -0.14296,-0.16796 -0.32255,-0.16534c-0.13436,0.10612 -0.27428,0.22873 -0.43226,0.34617c0.10499,0.10268 0.20833,0.15056 0.3824,0.16454zM270.68919,176.45491c-0.07594,-0.13053 -0.14643,-0.27757 -0.20972,-0.3863c-0.17956,0.00257 -0.31569,0.05383 -0.43367,0.11038c-0.02016,0.12095 0.10126,0.17399 0.15737,0.24451c0.05613,0.07048 0.10674,0.15747 0.23913,0.17752c0.08346,-0.01217 0.17237,-0.04086 0.24694,-0.14612zM265.29296,184.06077c0.05237,0.14179 0.09751,0.24538 0.14267,0.34889c0.00717,0.03827 0.05612,0.07051 0.06878,0.09226c0.12688,0.03659 0.23941,-0.00342 0.34472,-0.08171c-0.04688,-0.15835 -0.07566,-0.31148 -0.16418,-0.46374c-0.12517,0.01827 -0.23772,0.05823 -0.39194,0.10431zM275.24112,183.94031c0.14366,-0.19398 0.28723,-0.38794 0.30945,-0.63501c-0.17954,0.00257 -0.33009,-0.0227 -0.46446,0.0834c-0.00238,0.3071 -0.00237,0.30709 0.15501,0.55159zM266.84857,185.36001c0.20425,0.40288 0.22235,0.40806 0.60339,0.33678c-0.07049,-0.14706 -0.16455,-0.28276 -0.235,-0.42984c-0.13235,-0.02004 -0.24486,0.01996 -0.36834,0.09299zM273.75695,178.04506c-0.04688,-0.15835 -0.10472,-0.28364 -0.22784,-0.39156c-0.04173,0.00609 -0.10706,0.02346 -0.17238,0.04083c-0.04719,0.02263 -0.09989,0.06175 -0.14703,0.08434c0.0469,0.15834 0.0702,0.32801 0.18786,0.45245c0.12515,-0.01825 0.24865,-0.09127 0.35941,-0.1861zM264.46239,182.97051c0.0653,-0.01741 0.15424,-0.0461 0.1888,-0.09044c0.11457,-0.16616 0.13296,-0.34183 0.06625,-0.56025c-0.13067,0.03475 -0.28659,0.02603 -0.37381,0.10955c0.01781,0.18617 -0.02423,0.37321 0.11876,0.54115zM267.46056,176.61078c-0.01263,-0.02174 -0.02532,-0.04351 -0.05062,-0.08699c-0.27943,0.06434 -0.52088,0.1939 -0.76229,0.32347c0.0161,0.13135 0.07218,0.20183 0.21173,0.26016c0.19251,-0.16177 0.40315,-0.31832 0.6012,-0.49664zM271.78311,180.40918c-0.19081,0.21659 -0.39424,0.41141 -0.46911,0.69761c-0.0055,0.01653 0.05611,0.07045 0.09235,0.0809c0.09063,0.02609 0.18502,-0.01911 0.21233,-0.10175c0.1255,-0.19919 0.16034,-0.42452 0.16442,-0.67677zM273.35013,177.29414c-0.05779,-0.1253 -0.11563,-0.25059 -0.22064,-0.35327c-0.12688,-0.03657 -0.22847,-0.02964 -0.35739,0.05992c0.09409,0.13575 0.18267,0.28803 0.2822,0.40723c0.11966,-0.00171 0.2086,-0.03041 0.29582,-0.1139zM269.51653,186.41848c0.24831,0.08964 0.46035,0.16892 0.71617,0.1159c-0.00516,-0.16441 -0.11015,-0.26711 -0.23878,-0.35849c-0.17783,0.05739 -0.33208,0.10344 -0.47742,0.24262zM263.93955,181.19043c0.19598,-0.05217 0.21955,-0.06342 0.23599,-0.11303c0.07284,-0.16005 0.03143,-0.33494 -0.01547,-0.49327c-0.01984,-0.06001 -0.10505,-0.10266 -0.19224,-0.01917c0.05953,0.1801 -0.08411,0.3741 -0.02828,0.62551zM268.14735,176.93544c0.21069,-0.15653 0.434,-0.29136 0.54507,-0.56712c-0.29204,0.04257 -0.48463,0.20435 -0.66617,0.33306c-0.00925,0.08786 0.03421,0.13656 0.12112,0.23402zM265.97369,184.76388c-0.10705,0.02347 -0.20863,0.03041 -0.31566,0.05388c0.0414,0.1749 0.11189,0.32194 0.32771,0.3298c0.05986,-0.00085 0.11968,-0.00172 0.15971,-0.0626c-0.00343,-0.10959 -0.0722,-0.20187 -0.17175,-0.32105zM273.86689,181.5528c0.16317,0.047 0.24658,0.03487 0.27221,-0.10258c0.02019,-0.12095 0.04032,-0.24187 0.04234,-0.36802c-0.00173,-0.05479 -0.02157,-0.11485 -0.09955,-0.11922c-0.12001,0.18267 -0.18017,0.36448 -0.21502,0.5898zM267.08779,179.23714c-0.14366,0.19398 -0.25097,0.39842 -0.26771,0.62894c-0.00547,0.01655 0.05613,0.07045 0.07422,0.07568c0.03623,0.01045 0.08892,-0.02867 0.09986,-0.06174c0.05299,-0.22009 0.15489,-0.40801 0.09363,-0.64293zM266.03174,179.54838c0.00033,-0.18095 0.06049,-0.36279 0.01193,-0.57594c-0.16173,0.18875 -0.25816,0.36013 -0.23659,0.47495c0.00343,0.10959 0.07594,0.13053 0.2247,0.10096zM271.34053,186.72685c0.23396,0.01309 0.48777,0.08623 0.68028,-0.07555c-0.28253,-0.22624 -0.47505,-0.06447 -0.68028,0.07555zM272.08217,183.64559c0.03622,0.01043 0.05992,-0.00086 0.09613,0.00959c0.03655,-0.17049 0.15829,-0.29836 0.11688,-0.47324c-0.10328,-0.04789 -0.16316,-0.04702 -0.24487,0.01995c0.0161,0.13135 0.02672,0.27926 0.03189,0.44372zM269.36815,179.96668c-0.13095,0.21572 -0.22738,0.38709 -0.27489,0.59067c-0.01095,0.03306 0.01436,0.07655 0.06875,0.09223c0.01815,0.00523 0.05985,-0.00086 0.08347,-0.01218c0.14366,-0.19398 0.20926,-0.3923 0.12269,-0.67071zM264.7049,183.25765c-0.11968,0.00173 -0.185,0.01908 -0.16517,0.07914c0.0161,0.13135 0.05032,0.26795 0.08454,0.40457c0.0325,0.08178 0.08685,0.09746 0.16313,0.04701c0.0058,-0.19749 0.00063,-0.36193 -0.08249,-0.5307zM272.50428,176.6702c0.08893,-0.02866 0.17237,-0.04086 0.2613,-0.06953c0.0236,-0.01129 0.03453,-0.04437 0.0691,-0.08873c-0.2175,-0.06269 -0.4005,-0.16971 -0.65807,-0.17153c0.09409,0.13575 0.16284,0.22797 0.3277,0.32979zM267.45828,182.07769c-0.03658,0.17049 -0.06768,0.32452 -0.11519,0.52806c0.23598,-0.11306 0.33959,-0.24611 0.37614,-0.41661c-0.07423,-0.0757 -0.12313,-0.10792 -0.26098,-0.11145zM273.28702,183.3048c0.03422,0.13662 -0.0622,0.30792 0.10439,0.46458c0.18565,-0.38102 0.21299,-0.46362 0.13328,-0.52283c-0.09063,-0.02609 -0.15598,-0.00872 -0.23771,0.05824zM268.26952,179.68633c-0.29959,0.18521 -0.36518,0.38355 -0.37475,0.65239c0.31943,-0.12523 0.25094,-0.39837 0.37475,-0.65239zM275.07758,181.01455c-0.27598,0.17391 -0.33617,0.35577 -0.36553,0.56454c-0.00548,0.01654 0.02533,0.04349 0.06157,0.05395c0.05438,0.01569 0.10157,-0.00695 0.11251,-0.04c0.07284,-0.16002 0.10941,-0.33054 0.19144,-0.57847zM274.23931,183.30766c0.00516,0.16441 -0.0314,0.33495 0.11156,0.50283c0.10908,-0.14962 0.14016,-0.3036 0.16581,-0.44103c-0.09234,-0.08093 -0.17031,-0.08529 -0.27738,-0.06181zM275.64312,180.14557c-0.07767,-0.18533 -0.0175,-0.36714 -0.17689,-0.48551c-0.13095,0.21572 -0.13094,0.21573 -0.00814,0.50459c0.04173,-0.00609 0.08346,-0.01216 0.18503,-0.01908zM271.83878,186.00138c0.2702,0.02354 0.44632,-0.08863 0.60979,-0.22258c-0.02156,-0.11481 -0.09409,-0.13576 -0.16484,-0.10184c-0.13437,0.10613 -0.28693,0.20701 -0.44489,0.32442zM274.09998,177.90851c0.11426,0.01484 0.21034,0.02442 0.29752,-0.05908c-0.04516,-0.10351 -0.09031,-0.2071 -0.19358,-0.25494c-0.0961,-0.00961 -0.16143,0.0078 -0.21959,0.06347c0.00894,0.09307 0.04689,0.15834 0.11565,0.25057zM269.84507,183.14574c0.09814,-0.11654 0.16724,-0.20529 0.1638,-0.31491c-0.00717,-0.03827 -0.03796,-0.06526 -0.06876,-0.09225c-0.05438,-0.01569 -0.13786,-0.00353 -0.13612,0.05126c-0.03283,0.09919 -0.07111,0.21488 0.0411,0.35587zM271.33726,176.11661c-0.14675,-0.09661 -0.31913,-0.05573 -0.47508,-0.06446c0.14643,0.27757 0.1827,0.28798 0.47508,0.06446zM265.02207,179.23928c0.15456,-0.22703 0.15456,-0.22703 0.02422,-0.37322c-0.0691,0.08873 -0.14364,0.19399 -0.02422,0.37322zM271.09848,183.01808c-0.05613,-0.07048 -0.11049,-0.08615 -0.13954,-0.05833c-0.13437,0.10613 -0.13268,0.16092 -0.01874,0.3567c0.09268,-0.1 0.12551,-0.19921 0.15833,-0.29839zM275.79511,181.36619c-0.11797,0.05655 -0.21783,0.11831 -0.2199,0.24441c0.30645,0.03397 0.33549,0.00619 0.2199,-0.24441zM264.83287,178.55113c-0.14709,0.08438 -0.20897,0.21134 -0.26535,0.32181c-0.02189,0.06609 0.0161,0.13137 0.14675,0.09661c0.0564,-0.11047 0.11832,-0.2375 0.11864,-0.41842zM275.2914,179.04842c-0.09095,0.15483 -0.06394,0.25317 0.07016,0.32802c0,0 0.04173,-0.00609 0.04719,-0.02262c0.05093,-0.09396 -0.03591,-0.19139 -0.11734,-0.30542zM268.67424,182.6635c0.11968,-0.00173 0.17786,-0.05739 0.18159,-0.12869c0.01095,-0.03306 -0.01439,-0.07657 -0.04516,-0.10354c-0.03081,-0.02696 -0.09607,-0.00959 -0.10702,0.02348c-0.03456,0.04437 -0.05643,0.11046 -0.02941,0.20879zM273.64433,177.12547c0.03422,0.13661 0.09032,0.20709 0.25723,0.18274c-0.0469,-0.15834 -0.10845,-0.21231 -0.25723,-0.18274z" fill="#000000"/><path d="M266.53136,188.41873c0.57459,0.18371 1.14926,0.36742 1.72934,0.53457c0.65261,0.18807 1.32708,0.31001 2.01077,0.34408c0.21581,0.00787 0.40629,-0.02771 0.64568,-0.03115c-0.08752,0.26449 -0.14593,0.50105 -0.24065,0.72722c-0.53197,1.36749 -0.9788,2.7776 -1.47999,4.17207c-0.45198,1.2457 -0.88032,2.4801 -1.31416,3.73105c-0.30254,0.85425 -0.59968,1.69199 -0.90224,2.54621c-0.28616,0.80469 -0.53057,1.60325 -0.81669,2.40791c-0.02191,0.06612 -0.04376,0.13224 -0.08376,0.19311c-0.31394,0.1087 -0.61322,0.11294 -0.94325,0.09028c-0.52228,-0.04189 -1.05172,-0.12204 -1.55381,-0.28484c-0.16317,-0.047 -0.33177,-0.07749 -0.44943,-0.20196c0.17411,0.01395 0.33895,0.11576 0.56571,0.09061c-0.03934,-0.30101 0.10798,-0.56632 0.1774,-0.83602c0.00548,-0.01654 0.01094,-0.03303 -0.00717,-0.03827c0.00268,-0.48805 0.16133,-0.96736 0.22384,-1.45631c0.01844,-0.17571 -0.0175,-0.36714 0.07342,-0.52196c0.14568,-0.3201 0.08642,-0.68118 0.23208,-1.00133c0.00548,-0.01654 -0.00174,-0.0548 0.00926,-0.08786c0.04951,-0.32968 0.07552,-0.64811 0.16131,-0.96735c0.12033,-0.36363 0.08471,-0.73602 0.2413,-1.08917c-0.03765,-0.2462 0.06974,-0.4506 0.12818,-0.68723c0.01095,-0.03306 0.01641,-0.04961 0.02735,-0.08264c-0.03562,-0.37237 0.15174,-0.69857 0.18864,-1.05004c0.03688,-0.35146 0.188,-0.68811 0.24301,-1.03436c0.07145,-0.39583 0.08296,-0.79076 0.26867,-1.17179c0.01095,-0.03306 0.02736,-0.08266 0.02016,-0.12093c-0.04862,-0.21316 0.07144,-0.39582 0.11896,-0.59938c0.03283,-0.09919 0.08923,-0.20963 0.08579,-0.31927c-0.02326,-0.16964 0.0386,-0.29665 0.08784,-0.44542c0.02736,-0.08265 0.07285,-0.16006 0.05845,-0.23661c-0.03765,-0.2462 0.07516,-0.46716 0.14627,-0.68201c0.02736,-0.08265 0.0728,-0.16005 0.05845,-0.23661c-0.03044,-0.20793 0.04781,-0.38452 0.10801,-0.56634c0.09846,-0.29755 0.07003,-0.63158 0.1866,-0.92386c0.03452,-0.04437 -0.0034,-0.10959 -0.00518,-0.16442z" fill="#87d7dc"/><path d="M266.53137,188.41877c0.00172,0.05479 0.03971,0.12008 0.02329,0.16966c-0.11657,0.29229 -0.10627,0.62114 -0.1866,0.92387c-0.06018,0.1818 -0.13847,0.35842 -0.10802,0.56633c0.01437,0.07657 -0.03109,0.15399 -0.0584,0.2366c-0.07108,0.21488 -0.16585,0.44104 -0.14634,0.68204c0.01439,0.07657 -0.04922,0.14878 -0.05843,0.23663c-0.04921,0.14875 -0.09299,0.281 -0.08784,0.44542c0.00343,0.10959 -0.053,0.22012 -0.08581,0.31929c-0.0475,0.20356 -0.16752,0.38625 -0.11892,0.59938c0.00717,0.03827 -0.00923,0.08787 -0.02016,0.12092c-0.18018,0.36449 -0.19723,0.77601 -0.26865,1.17181c-0.0605,0.36279 -0.21161,0.6994 -0.24307,1.03434c-0.03687,0.35145 -0.22425,0.67767 -0.18862,1.05003c0.01263,0.02174 -0.01642,0.04959 -0.02736,0.08266c-0.07108,0.21488 -0.16579,0.44104 -0.12815,0.68728c-0.17475,0.34795 -0.13908,0.72033 -0.24132,1.08916c-0.10394,0.31403 -0.11174,0.63767 -0.16132,0.96736c-0.01095,0.03306 0.00176,0.05483 -0.00921,0.08788c-0.14568,0.3201 -0.08643,0.68117 -0.23209,1.00132c-0.0783,0.17658 -0.0369,0.35146 -0.07344,0.52197c-0.08064,0.48369 -0.22114,0.96825 -0.22383,1.45629c-0.00548,0.01654 0.00721,0.03828 0.00721,0.03828c-0.06937,0.2697 -0.21678,0.535 -0.17738,0.83603c-0.20862,0.0304 -0.36802,-0.08797 -0.5657,-0.09062c-0.14501,-0.04178 -0.29002,-0.08362 -0.3841,-0.21937c0.03283,-0.09919 0.08923,-0.20962 0.08577,-0.31924c-0.01202,-0.38364 0.12101,-0.72554 0.1996,-1.0831c0.0786,-0.35753 0.06656,-0.74117 0.24128,-1.08913c-0.03765,-0.2462 0.06969,-0.45064 0.12815,-0.68726c0.01095,-0.03306 0.02735,-0.08263 0.02015,-0.12093c-0.0414,-0.1749 0.04955,-0.3297 0.08067,-0.48371c0.02736,-0.08265 0.05467,-0.16529 0.05844,-0.23661c0.0297,-0.38975 0.08294,-0.79078 0.20877,-1.17095c0.01644,-0.04958 0.05646,-0.11048 0.0311,-0.15397c-0.03593,-0.19136 0.03686,-0.35145 0.09155,-0.51674c0.0783,-0.17658 0.00609,-0.37847 0.08987,-0.57156c0.10566,-0.25923 0.09706,-0.53328 0.14831,-0.80817c0.08408,-0.37409 0.09019,-0.7525 0.21602,-1.13265c0.02191,-0.06612 0.06736,-0.14354 0.0475,-0.20358c-0.02871,-0.15313 0.03857,-0.29663 0.06969,-0.4506c0.04377,-0.13223 0.0694,-0.26965 0.07146,-0.39583c-0.00139,-0.23578 0.03343,-0.46109 0.10998,-0.6925c0.09674,-0.35231 0.0847,-0.73599 0.2594,-1.08394c0.01095,-0.03306 0.00926,-0.08785 0.02017,-0.12094c0.0605,-0.36279 0.1028,-0.73075 0.1996,-1.08306c0.12033,-0.36363 0.09565,-0.76905 0.25225,-1.12223c0.01644,-0.04958 -0.00345,-0.10961 -0.00516,-0.16442c0.03485,-0.22531 0.0933,-0.46194 0.21879,-0.66112c0.09611,0.00961 0.1686,0.03046 0.2466,0.03486c0.2374,0.12273 0.44397,0.21846 0.67417,0.3029z" fill="#b0eef2"/><path d="M276.12772,182.04138c-0.04955,0.32966 -0.11349,0.58286 -0.26805,0.80989c-0.1888,0.09042 -0.4046,0.08258 -0.62584,0.09122c-1.08999,-0.00633 -2.17454,-0.02919 -3.25159,-0.19472c-0.81233,-0.12547 -1.64279,-0.25613 -2.44584,-0.46945c-0.21752,-0.06269 -0.44773,-0.14713 -0.68169,-0.16025c-0.09611,-0.00961 -0.20488,-0.04095 -0.31362,-0.07227c-0.4132,-0.19149 -0.85919,-0.28381 -1.28881,-0.42571c-0.61091,-0.19413 -1.1999,-0.45439 -1.77792,-0.7477c-0.28628,-0.15492 -0.57807,-0.29332 -0.88795,-0.43691c-0.24282,-0.10621 -0.42755,-0.26804 -0.61774,-0.41339c-0.02841,-0.33409 -0.00827,-0.45499 0.15926,-0.84123c0.39331,0.13142 0.7412,0.34032 1.12358,0.50484c0.36426,0.15929 0.74666,0.3238 1.1164,0.46657c0.38785,0.148 0.79936,0.28466 1.19267,0.41613c0.36972,0.14277 0.79042,0.19153 1.14381,0.38391c0.42618,0.03229 0.80854,0.19682 1.21284,0.2952c0.38615,0.09318 0.7959,0.17504 1.18754,0.25168c0.40975,0.08187 0.82495,0.14721 1.25832,0.2178c0.39709,0.06012 0.80683,0.14201 1.20942,0.18556c0.42069,0.0488 0.83418,0.05935 1.26036,0.09165c0.44429,0.03749 0.84683,0.0811 1.2949,0.04727z" fill="#d1eaeb"/><path d="M265.86983,188.13762c-0.07797,-0.00437 -0.15051,-0.02527 -0.24658,-0.03483c-0.12549,0.19922 -0.19658,0.41404 -0.21879,0.66112c0.00171,0.0548 0.02157,0.11485 0.00516,0.16443c-0.1566,0.35316 -0.15004,0.75339 -0.25224,1.12221c-0.11487,0.34711 -0.13911,0.72031 -0.19962,1.08308c-0.01095,0.03306 -0.00924,0.08788 -0.02016,0.12092c-0.17473,0.34794 -0.13911,0.7203 -0.25943,1.08392c-0.07108,0.21488 -0.11142,0.45672 -0.10999,0.69249c-0.0075,0.14263 -0.03312,0.28012 -0.07144,0.39584c-0.04921,0.14875 -0.11111,0.27574 -0.06971,0.45063c0.01982,0.06 -0.02566,0.13746 -0.04754,0.20356c-0.12033,0.36363 -0.13187,0.75857 -0.21598,1.13264c-0.05128,0.27491 -0.04264,0.54895 -0.14832,0.80818c-0.0783,0.17658 -0.0061,0.37844 -0.08986,0.57156c-0.07282,0.16006 -0.15113,0.33664 -0.09161,0.51674c0.00171,0.0548 -0.01468,0.10438 -0.03107,0.15396c-0.1258,0.38013 -0.17366,0.76463 -0.20879,1.17094c-0.00925,0.08786 -0.05468,0.16528 -0.05845,0.23658c-0.04921,0.14875 -0.12202,0.30883 -0.08062,0.48368c0.00717,0.03827 -0.00922,0.08786 -0.02016,0.12091c-0.07108,0.21488 -0.16581,0.44105 -0.12815,0.68727c-0.17472,0.34795 -0.16269,0.73162 -0.24128,1.08913c-0.0786,0.35753 -0.21706,0.71591 -0.19959,1.08303c0.00343,0.10961 -0.053,0.22009 -0.08578,0.31927c-0.16864,-0.0305 -0.24456,-0.16098 -0.36601,-0.21406c0.13908,-0.72029 0.24913,-1.41281 0.37728,-2.10004c0.13192,-0.75859 0.27647,-1.49543 0.42648,-2.24879c0.13363,-0.7038 0.24912,-1.41281 0.36462,-2.12181c0.15208,-0.87952 0.28052,-1.74772 0.42712,-2.6107c0.11721,-0.65422 0.23448,-1.3084 0.33353,-1.96782c0.17768,-1.01697 0.43338,-2.02958 0.57479,-3.05698c0.02563,-0.13744 0.01499,-0.28534 0.11862,-0.41842c0.16317,0.047 0.30987,0.14361 0.46212,0.22369c0.07971,0.05916 0.25377,0.07312 0.3715,0.19757z" fill="#87d7dc"/><path d="M263.35899,203.16505c0.39161,0.07664 0.74325,0.21417 1.14032,0.27428c0.45696,0.05928 0.91936,0.10197 1.41457,0.04557c-0.31725,0.95866 -0.62902,1.90077 -0.93533,2.82637c-0.25957,0.12436 -0.51711,0.12254 -0.762,0.14249c-0.46616,0.02862 -0.89404,-0.0585 -1.34005,-0.1508c-0.01815,-0.00523 -0.04889,-0.0322 -0.06157,-0.05394c0.19597,-0.05214 0.18533,-0.20004 0.19283,-0.34273c0.01874,-0.3567 0.05563,-0.70816 0.18317,-1.03349c0.02191,-0.06612 0.04376,-0.13223 0.04749,-0.20355c-0.00484,-0.3454 0.12268,-0.67071 0.17222,-1.00045c0.02397,-0.19225 0.03136,-0.3349 -0.05174,-0.50371z" fill="#61afb4"/><path d="M266.32541,185.861c0.60163,0.282 1.24155,0.44831 1.85963,0.68071c0.28456,0.10012 0.58557,0.15061 0.88656,0.20115c0.55478,0.12367 1.10577,0.31867 1.68243,0.37618c0.22847,0.02964 0.45694,0.0593 0.67275,0.06717c0.13785,0.00352 0.27018,0.02354 0.39711,0.06013c0.00173,0.05479 0.0089,0.09308 -0.00206,0.12616c-0.04378,0.13221 -0.0875,0.26444 -0.13124,0.39668c-0.10703,0.02348 -0.1905,0.0356 -0.29207,0.04257c-0.7182,0.01027 -1.4546,0.01535 -2.16162,-0.18841c-0.62182,-0.16108 -1.26172,-0.32738 -1.86169,-0.55458c-0.47854,-0.17409 -0.9625,-0.33168 -1.37913,-0.63278c0.10156,-0.00697 0.19393,0.07399 0.29924,-0.00429c0.09641,-0.17135 0.22191,-0.37057 0.03,-0.5707z" fill="#61aeb3"/><path d="M266.39398,187.09376c0.31912,0.05576 0.57631,0.2385 0.87903,0.34383c0.64716,0.20458 1.29425,0.4092 1.95779,0.56418c0.53662,0.11845 1.07707,0.16553 1.61025,0.17435c0.13785,0.00352 0.27564,0.00701 0.41349,0.01052c-0.07657,0.23141 -0.14218,0.42977 -0.21333,0.64463c-0.28317,0.13564 -0.58245,0.13991 -0.8889,0.10595c-0.36631,-0.03312 -0.75073,-0.0715 -1.11875,-0.15946c-0.83761,-0.16899 -1.62432,-0.4319 -2.4346,-0.68349c-0.14501,-0.04178 -0.29006,-0.08358 -0.38961,-0.20278c0.02736,-0.08265 0.07279,-0.16008 0.05843,-0.23661c-0.01781,-0.18618 0.06595,-0.37932 0.12609,-0.5611z" fill="#61aeb3"/><path d="M263.35898,203.16506c0.07049,0.14706 0.08109,0.29493 0.04452,0.46544c-0.04954,0.32969 -0.1771,0.65507 -0.17222,1.00043c-0.00376,0.07135 -0.02561,0.13748 -0.04751,0.2036c-0.11485,0.34711 -0.14628,0.68201 -0.18318,1.03347c-0.00205,0.12617 0.00314,0.29059 -0.19283,0.34274c-0.27739,-0.06185 -0.52024,-0.16802 -0.72855,-0.31857c0.02218,-0.24709 0.02627,-0.49938 0.13908,-0.72032c0.01095,-0.03306 0.00924,-0.08787 0.02015,-0.12093c0.05501,-0.34622 0.11548,-0.70901 0.18862,-1.05003c0.0311,-0.15397 0.07489,-0.2862 0.08786,-0.44542c0.00582,-0.19748 0.05329,-0.40106 0.20411,-0.55675c0.0961,0.00961 0.1686,0.03049 0.24657,0.03487c0.12688,0.03659 0.26648,0.09489 0.39333,0.13143z" fill="#87d7dc"/><path d="M269.45506,177.96405c0.14099,0.2941 0.1441,0.58461 0.12908,0.87003c-0.00376,0.07134 -0.03657,0.17053 -0.07657,0.23141c-0.30363,0.43752 -0.53479,0.89595 -0.74779,1.35959c-0.00548,0.01654 -0.03452,0.04436 -0.05814,0.05569c-0.08893,0.02866 -0.17958,0.0026 -0.25378,-0.07311c0.01095,-0.03306 0.00374,-0.07137 0.01469,-0.1044c0.14943,-0.39142 0.24445,-0.7986 0.24334,-1.21531c0.01127,-0.21402 0.07143,-0.39584 0.2277,-0.56806c0.17988,-0.1835 0.30536,-0.38272 0.52151,-0.55582z" fill="#cce5e6"/><path d="M267.54148,180.14637c-0.12517,0.01827 -0.19221,-0.01917 -0.23019,-0.08443c0.22632,-0.80382 0.22628,-0.80381 0.16598,-1.58157c0.12925,-0.27056 0.34911,-0.51495 0.52729,-0.75326c0.13785,0.00352 0.1231,0.10789 0.14297,0.16793c0.06672,0.21837 0.13892,0.42024 0.16391,0.6447c0.01064,0.14794 -0.00955,0.26883 -0.08954,0.39058c-0.24553,0.38189 -0.47836,0.78547 -0.68045,1.21605z" fill="#cce5e6"/><path d="M262.94755,203.02839c-0.07798,-0.00438 -0.15052,-0.02527 -0.24658,-0.03486c-0.15081,0.15569 -0.1983,0.35924 -0.20409,0.55676c-0.01297,0.15922 -0.05672,0.29143 -0.08786,0.44543c-0.07315,0.34103 -0.13362,0.70379 -0.18864,1.05003c-0.01095,0.03306 -0.00922,0.08789 -0.02016,0.12093c-0.10017,0.2427 -0.09879,0.47844 -0.13911,0.72028c-0.13409,-0.07483 -0.25005,-0.1445 -0.36225,-0.28544c0.09878,-0.47846 0.16676,-0.98395 0.28911,-1.4737c0.09878,-0.47846 0.12505,-0.97782 0.28912,-1.47368c0.28456,0.10012 0.48022,0.2289 0.67042,0.3742z" fill="#60adb2"/><path d="M271.45932,183.06775c0.07798,0.00437 0.13785,0.00354 0.21582,0.00789c0.02534,0.04349 0.03795,0.06525 0.05061,0.08698c-0.02046,0.30187 0.01893,0.60291 0.0764,0.90911c0.01609,0.13137 0.00141,0.23579 -0.09127,0.33579c-0.16723,0.20527 -0.30362,0.43753 -0.60494,0.56797c-0.14641,-0.27756 -0.1858,-0.57857 -0.20703,-0.87437c-0.00173,-0.05479 0.04379,-0.13222 0.08376,-0.1931c0.15279,-0.28183 0.30569,-0.56373 0.47666,-0.84033z" fill="#cce5e6"/><path d="M273.09696,178.95922c0.01783,0.18615 0.03936,0.30104 0.05545,0.4324c0.01953,0.24102 -0.02799,0.44453 -0.21331,0.6446c-0.29443,0.34964 -0.53992,0.73156 -0.67667,1.14475c-0.04378,0.13221 -0.06736,0.14351 -0.27943,0.06433c0.01642,-0.04958 0.01468,-0.1044 0.03112,-0.15399c0.15489,-0.40799 0.23176,-0.82031 0.25428,-1.24835c0.01472,-0.10439 0.02394,-0.19227 0.08749,-0.26449c0.22706,-0.20616 0.4179,-0.42271 0.74108,-0.61924z" fill="#cae2e3"/><path d="M269.67505,180.77933c-0.01263,-0.02174 -0.01987,-0.06008 -0.01436,-0.07657c0.16205,-0.36967 0.20989,-0.75419 0.23413,-1.12745c0.03687,-0.35145 0.14081,-0.66552 0.42601,-0.92728c0.13987,-0.12264 0.21813,-0.29923 0.38884,-0.39487c0.17519,0.43067 0.1164,0.84825 -0.13083,1.17531c-0.29272,0.40449 -0.59806,0.78719 -0.73857,1.27177c-0.03452,0.04437 -0.05643,0.11048 -0.16519,0.07916z" fill="#c9e1e2"/><path d="M271.82262,178.6101c0.09376,0.3167 0.0897,0.56896 0.08014,0.83778c-0.00925,0.08786 -0.03659,0.1705 -0.09473,0.22618c-0.31631,0.41579 -0.60181,0.85852 -0.85108,1.31171c-0.01095,0.03306 -0.04546,0.07741 -0.13064,0.03477c0.03829,-0.11568 0.08203,-0.2479 0.10222,-0.36885c0.09128,-0.33578 0.1644,-0.6768 0.15955,-1.02217c0.00403,-0.25231 0.09331,-0.46194 0.28584,-0.6237c0.13987,-0.12264 0.27424,-0.22876 0.44868,-0.39576z" fill="#c9e1e2"/><path d="M272.65605,183.23159c0.13614,-0.05127 0.22678,-0.02518 0.3174,0.00094c0.01263,0.02174 0.01986,0.06006 0.03248,0.08178c-0.05127,0.27489 -0.02452,0.55419 0.06753,0.81604c0.04688,0.15835 0.02123,0.2958 -0.08239,0.42889c-0.13266,0.16091 -0.25267,0.3436 -0.41614,0.47756c-0.15016,-0.2062 -0.29835,-0.5386 -0.29083,-0.68128c-0.00894,-0.09307 0.0492,-0.14876 0.09472,-0.22617c0.07486,-0.28619 0.2458,-0.56284 0.27725,-0.89774z" fill="#cae3e4"/><path d="M266.09544,182.5359c0.26878,-0.2122 0.48324,-0.44009 0.68498,-0.68974c0.11966,-0.00171 0.19224,0.01917 0.26647,0.09488c-0.00781,0.3236 -0.15897,0.66025 -0.14864,0.98912c-0.15082,0.15567 -0.32864,0.21307 -0.49928,0.30876c-0.09436,0.04521 -0.17608,0.11218 -0.30846,0.09215c-0.07391,-0.25667 0.03175,-0.51589 0.00501,-0.79516z" fill="#c8e0e1"/><path d="M269.25295,182.59491c0.15767,0.06355 0.15393,0.13486 0.15017,0.20621c-0.00952,0.26886 -0.0136,0.52111 -0.04125,0.7847c-0.00375,0.07135 -0.02563,0.13745 -0.08376,0.19315c-0.18704,0.14522 -0.39226,0.28524 -0.61008,0.40354c-0.05779,-0.12529 -0.04313,-0.22969 -0.06468,-0.34454c-0.06467,-0.34452 0.01015,-0.63071 0.33332,-0.82728c0.15255,-0.10088 0.2435,-0.25573 0.31628,-0.4158z" fill="#cbe4e5"/><path d="M268.11087,182.26579c0.09063,0.02609 0.14501,0.04178 0.19941,0.05745c0.00717,0.03827 0.03794,0.06526 0.0325,0.08178c-0.02397,0.19225 -0.06593,0.37931 -0.08986,0.57157c-0.01472,0.10439 -0.06019,0.18182 -0.14192,0.24879c-0.24518,0.20091 -0.50307,0.38005 -0.81529,0.54357c-0.07767,-0.18532 -0.04657,-0.33929 -0.01547,-0.49327c0.0219,-0.06608 0.0438,-0.13221 0.09639,-0.17135c0.32318,-0.19656 0.54135,-0.49577 0.73421,-0.83848z" fill="#c8e0e1"/><path d="M266.39398,187.09373c-0.06018,0.1818 -0.14396,0.37495 -0.11345,0.58289c0.01439,0.07657 -0.03112,0.15395 -0.05845,0.2366c-0.31362,-0.07227 -0.58725,-0.20545 -0.82088,-0.39953c0.11285,-0.22094 0.11691,-0.47322 0.14628,-0.68199c0.15425,-0.04608 0.26473,0.04009 0.3844,0.03836c0.16864,0.0305 0.34442,0.09927 0.46211,0.22368z" fill="#85d5d9"/><path d="M274.20664,180.16614c-0.17269,0.22181 -0.34535,0.44363 -0.5054,0.68717c-0.13098,0.21572 -0.07346,0.52196 -0.42745,0.6915c0.18597,-0.56195 0.22318,-1.09439 0.26039,-1.6268c0.15082,-0.15567 0.3252,-0.3227 0.55573,-0.4192c0.02534,0.04349 0.03796,0.06526 0.05063,0.08698c0.03593,0.19139 0.05378,0.37759 0.06611,0.58027z" fill="#c6dede"/><path d="M269.33253,177.49423c-0.2199,0.24444 -0.41067,0.46097 -0.63057,0.70542c-0.11218,-0.14097 -0.12285,-0.28886 -0.18064,-0.41412c-0.05237,-0.14179 -0.14641,-0.27758 -0.15156,-0.44198c0.03829,-0.11568 0.14361,-0.19396 0.23079,-0.27748c0.08718,-0.0835 0.19254,-0.16175 0.316,-0.23483c0.22097,0.1723 0.30032,0.41245 0.41599,0.66305z" fill="#cae3e3"/><path d="M266.37036,179.84511c0.03718,-0.53242 0.04702,-0.9822 -0.05736,-1.44676c0.14366,-0.19398 0.26911,-0.39316 0.41821,-0.60366c0.19192,0.20014 0.21693,0.4246 0.28362,0.64295c0.00717,0.03827 -0.00924,0.08789 -0.02019,0.12091c-0.19113,0.39752 -0.38224,0.79509 -0.62429,1.28655z" fill="#cae3e4"/><path d="M269.86442,184.52723c-0.09376,-0.31668 -0.15676,-0.60642 0.1158,-0.88994c0.18535,-0.20006 0.28553,-0.44276 0.38571,-0.68546c0.03284,-0.09919 0.12891,-0.0896 0.22677,-0.02519c-0.12374,0.25399 -0.11519,0.52807 -0.10659,0.80212c0.01235,0.2027 -0.07311,0.34101 -0.21299,0.46366c-0.11628,0.11132 -0.20178,0.24964 -0.40869,0.33484z" fill="#c8e0e1"/><path d="M266.32541,185.86098c0.18644,0.21667 0.06639,0.39931 -0.01737,0.59243c-0.10529,0.07825 -0.20314,0.01389 -0.29922,0.00432c-0.23018,-0.08444 -0.42583,-0.21327 -0.61059,-0.37512c0.0783,-0.17658 0.06596,-0.37928 0.21128,-0.51845c0.09611,0.00961 0.15051,0.02527 0.22301,0.04615c0.17035,0.08528 0.34069,0.17056 0.49289,0.25067z" fill="#85d4d9"/><path d="M268.19017,183.64644c0.02671,0.27926 0.02812,0.51503 0.04767,0.75602c-0.22332,0.13478 -0.45928,0.24785 -0.70248,0.32258c-0.11598,-0.06964 -0.11939,-0.17923 -0.15189,-0.261c-0.03251,-0.08178 -0.06499,-0.16356 -0.00857,-0.27403c0.21069,-0.15653 0.48663,-0.33046 0.81529,-0.54357z" fill="#c7dfe0"/><path d="M270.76811,185.2765c-0.18163,0.12872 -0.34507,0.26264 -0.57557,0.35919c-0.16831,-0.21145 -0.1933,-0.43589 -0.24908,-0.68732c0.19253,-0.16177 0.38505,-0.32356 0.58308,-0.50186c0.10468,0.28363 0.16048,0.53513 0.24158,0.83003z" fill="#c8e0e1"/><path d="M270.37773,177.21604c0.10125,0.17404 0.2025,0.34805 0.23298,0.55599c-0.18535,0.20006 -0.38881,0.39489 -0.59775,0.60623c-0.03623,-0.01045 -0.07249,-0.02089 -0.06702,-0.03743c-0.05953,-0.1801 -0.1136,-0.37671 -0.15502,-0.55158c-0.01437,-0.07657 -0.01065,-0.14792 0.04201,-0.18703c0.17441,-0.16699 0.29442,-0.34967 0.54478,-0.38618z" fill="#c4dcdd"/><path d="M272.98169,178.52772c-0.21612,0.17306 -0.41413,0.35137 -0.63029,0.52447c-0.12858,-0.09137 -0.08483,-0.22358 -0.1064,-0.33845c-0.02156,-0.11481 -0.01954,-0.24101 -0.03564,-0.37235c0.15628,-0.17221 0.38133,-0.25213 0.58107,-0.37568c0.1611,0.17313 0.17891,0.35934 0.19123,0.56204z" fill="#c8e0e1"/><path d="M271.30293,185.34012c0.2035,-0.19481 0.38339,-0.37837 0.59231,-0.5897c0.13753,0.18444 0.16797,0.39241 0.28739,0.57165c-0.14911,0.21049 -0.3796,0.30703 -0.59027,0.46354c-0.14845,-0.1514 -0.26612,-0.27583 -0.28938,-0.44548z" fill="#c6ddde"/><path d="M273.86748,183.29101c0.08828,0.33324 0.07503,0.67337 0.22862,0.98921c-0.12001,0.18267 -0.21646,0.35406 -0.4035,0.49928c-0.17921,-0.17838 -0.25693,-0.36373 -0.13862,-0.60118c0.15282,-0.28182 0.21502,-0.58979 0.31349,-0.88732z" fill="#b9cfd0"/><path d="M265.43181,179.32117c-0.09234,-0.08093 -0.01066,-0.14793 -0.00689,-0.21922c0.01297,-0.1592 0.04404,-0.31316 -0.03189,-0.44372c-0.08484,-0.2236 -0.00658,-0.40018 0.09535,-0.58809c0.04552,-0.07743 0.10907,-0.14964 0.18363,-0.25487c0.17553,0.24972 0.30208,0.46727 0.12565,0.76039c-0.12548,0.1992 -0.18395,0.43583 -0.27319,0.64546c-0.01644,0.04958 -0.03284,0.09917 -0.09268,0.10002z" fill="#c0d8d8"/><path d="M265.13037,182.69228c-0.0414,-0.1749 -0.03391,-0.31753 0.00984,-0.44976c0.0219,-0.06608 0.0492,-0.14879 0.10187,-0.1879c0.23428,-0.16784 0.41959,-0.36791 0.60495,-0.56797c0.12688,0.03659 0.08687,0.09746 0.07048,0.14707c-0.0547,0.16529 -0.11485,0.34711 -0.1333,0.52283c-0.03486,0.22531 -0.13847,0.3584 -0.35805,0.42188c-0.10705,0.02347 -0.17784,0.05738 -0.2958,0.11387z" fill="#c1d9d9"/><path d="M269.47758,184.79597c-0.1689,0.15046 -0.35774,0.2409 -0.55744,0.36439c-0.16658,-0.15661 -0.16078,-0.35411 -0.22034,-0.53423c0.198,-0.17831 0.44661,-0.2696 0.68808,-0.39917c0.07218,0.20186 0.07187,0.38283 0.08971,0.56901z" fill="#c3dbdc"/><path d="M271.17682,178.64128c-0.03221,-0.26276 -0.05171,-0.50376 -0.08936,-0.74998c0.12172,-0.1279 0.23801,-0.23916 0.43397,-0.29136c0.11939,0.17926 0.15531,0.37066 0.20943,0.56728c-0.14366,0.19398 -0.31253,0.34441 -0.55398,0.474z" fill="#c3dadb"/><path d="M267.61263,185.09134c0.23053,-0.09652 0.43741,-0.18171 0.6443,-0.26693c0.143,0.16794 0.17893,0.35934 0.21486,0.55071c-0.17611,0.1122 -0.35941,0.18611 -0.57348,0.233c-0.04343,-0.04873 -0.09953,-0.11923 -0.12486,-0.1627c-0.05783,-0.12529 -0.08486,-0.22358 -0.1608,-0.35414z" fill="#c4dbdc"/><path d="M265.03879,181.10889c-0.10396,0.31407 -0.186,0.56199 -0.27346,0.82644c-0.12893,0.08959 -0.26506,0.14088 -0.44459,0.14343c-0.08138,-0.11398 -0.00687,-0.21923 -0.01029,-0.32887c-0.00344,-0.1096 0.01127,-0.214 0.03858,-0.29666c0.23601,-0.11308 0.42478,-0.20351 0.68979,-0.34436z" fill="#c2d9da"/><path d="M269.25617,176.58506c0.11628,-0.11132 0.23969,-0.18441 0.37036,-0.21916c0.15049,0.02527 0.19018,0.14539 0.2644,0.22104c0.07421,0.07565 0.17752,0.12355 0.1936,0.25492c-0.09094,0.15484 -0.26707,0.26701 -0.45414,0.4123c-0.06332,-0.10878 -0.12661,-0.21755 -0.19534,-0.30977c-0.05779,-0.12529 -0.11565,-0.25057 -0.17895,-0.35934z" fill="#c5ddde"/><path d="M269.80954,185.83307c-0.14536,0.13918 -0.30678,0.14697 -0.44836,0.21481c-0.17205,-0.14013 -0.24973,-0.32545 -0.34008,-0.53251c0.17065,-0.09568 0.34133,-0.19133 0.49388,-0.29222c0.17921,0.1784 0.20425,0.40287 0.29456,0.60991z" fill="#c3dbdc"/><path d="M267.30583,177.97836c-0.05613,-0.07048 -0.08143,-0.11396 -0.10675,-0.15744c-0.04516,-0.10351 -0.08487,-0.2236 -0.14268,-0.34889c0.2035,-0.19481 0.35256,-0.40533 0.61215,-0.52969c0.11598,0.06964 0.143,0.16794 0.17722,0.30454c-0.15456,0.22703 -0.3382,0.48187 -0.5399,0.73154z" fill="#c7dfe0"/><path d="M266.86722,184.04373c-0.22502,0.07998 -0.38848,0.21389 -0.61523,0.2391c-0.13031,-0.14621 -0.08831,-0.33321 -0.18238,-0.46894c0.23429,-0.16784 0.45929,-0.24787 0.69527,-0.3609c0.13205,0.20102 0.07187,0.38279 0.10239,0.59074z" fill="#c7dee0"/><path d="M265.93742,186.85355c-0.11968,0.00173 -0.23018,-0.08447 -0.38441,-0.03835c-0.03486,0.22531 -0.05707,0.47236 -0.14629,0.68202c-0.06706,-0.03744 -0.15222,-0.08009 -0.21378,-0.13399c-0.09234,-0.08093 -0.13749,-0.18446 -0.09923,-0.30019c0.04749,-0.20354 0.08952,-0.39058 0.13707,-0.59417c0.23568,0.06791 0.33897,0.11578 0.70667,0.38469z" fill="#61acb1"/><path d="M274.09976,179.04905c-0.18163,0.12872 -0.33411,0.22956 -0.53385,0.35308c-0.03767,-0.24621 -0.08079,-0.47587 -0.10033,-0.71687c0.13436,-0.10612 0.26332,-0.19567 0.42303,-0.25829c0.13205,0.20101 0.16798,0.39238 0.21112,0.62206z" fill="#c2dada"/><path d="M265.10063,183.08203c0.18163,-0.12872 0.35942,-0.18609 0.56637,-0.2713c-0.00404,0.2523 0.00281,0.47154 0.00967,0.6908c-0.12172,0.12789 -0.26506,0.14088 -0.43741,0.18172c-0.12486,-0.16269 -0.11909,-0.36023 -0.13862,-0.60118z" fill="#c1d9d9"/><path d="M272.1248,177.93677c-0.10844,-0.21232 -0.17343,-0.37586 -0.25658,-0.54469c0.10908,-0.14962 0.29241,-0.22352 0.47572,-0.29741c0.13576,0.12965 0.24797,0.27061 0.30206,0.46725c-0.12001,0.18267 -0.32869,0.21306 -0.52118,0.37486z" fill="#c6dedf"/><path d="M271.22205,186.00477c-0.1761,0.11219 -0.36492,0.20263 -0.53556,0.29827c-0.15767,-0.06355 -0.24458,-0.16098 -0.31507,-0.30806c0.14366,-0.19398 0.38133,-0.25215 0.56838,-0.39744c0.1413,0.11312 0.1936,0.25495 0.28223,0.40721z" fill="#c0d7d7"/><path d="M266.57051,177.44054c-0.13266,0.16091 -0.21646,0.35403 -0.43429,0.47234c-0.07049,-0.14706 -0.14643,-0.2776 -0.22236,-0.40809c0.06565,-0.19832 0.21097,-0.33748 0.39974,-0.4279c0.1286,0.09138 0.19188,0.20012 0.25691,0.36366z" fill="#c3dadb"/><path d="M265.85062,185.61554c-0.07251,-0.02091 -0.15051,-0.02526 -0.22304,-0.04613c-0.14536,0.13918 -0.13303,0.34185 -0.21128,0.51845c-0.13235,-0.02004 -0.17206,-0.14013 -0.29347,-0.19319c-0.00139,-0.23576 0.11859,-0.41843 0.06281,-0.66986c0.18673,0.03573 0.27908,0.11662 0.38961,0.20279c0.07973,0.05916 0.21755,0.06272 0.27534,0.18797z" fill="#5aa0a4"/><path d="M274.55939,184.92063c-0.13266,0.1609 -0.21647,0.35405 -0.4107,0.46101c-0.11598,-0.06964 -0.1666,-0.15666 -0.24257,-0.28713c0.09644,-0.17138 0.2291,-0.33228 0.38709,-0.44972c0.11598,0.06964 0.17206,0.14011 0.26612,0.27584z" fill="#bdd3d4"/><path d="M268.1771,185.90575c0.15972,-0.0626 0.30131,-0.13041 0.44287,-0.19824c0.13579,0.12967 0.20629,0.27671 0.2713,0.44026c-0.09814,0.11654 -0.23601,0.11308 -0.36286,0.0765c-0.16317,-0.04698 -0.32628,-0.094 -0.35131,-0.31849z" fill="#bdd4d5"/><path d="M275.05317,180.42819c-0.15628,0.1722 -0.30709,0.32792 -0.46334,0.50012c-0.06643,-0.3993 -0.05311,-0.73947 0.40243,-0.91598c0.08138,0.11398 0.05577,0.25144 0.06092,0.41584z" fill="#bbd2d3"/><path d="M266.61704,185.03981c-0.12312,-0.10791 -0.16283,-0.22799 -0.20249,-0.34806c0.03829,-0.11568 0.13989,-0.12264 0.23427,-0.16783c0.07079,-0.03391 0.14703,-0.08433 0.26128,-0.06951c0.12312,0.10791 0.06846,0.27316 0.18613,0.3976c-0.15798,0.11743 -0.31222,0.16351 -0.47911,0.18786z" fill="#c3dadb"/><path d="M270.11383,180.83335c0.13476,-0.28705 0.26942,-0.5741 0.47665,-0.84027c0.10327,0.04788 0.0941,0.13576 0.0667,0.21838c-0.05299,0.22009 -0.12407,0.43492 -0.18972,0.63327c-0.04921,0.14875 -0.16895,0.15049 -0.35364,-0.01139z" fill="#b1c6c7"/><path d="M272.24436,186.33557c0.07998,-0.12176 0.20519,-0.14001 0.30503,-0.20177c0.18161,-0.12874 0.35022,-0.09824 0.54043,0.04712c-0.18535,0.20004 -0.45211,0.28609 -0.67713,0.36611c-0.12142,-0.05311 -0.16488,-0.10183 -0.16832,-0.21145z" fill="#bbd2d3"/><path d="M272.59764,181.36806c0.03141,-0.33495 0.25129,-0.57933 0.45851,-0.84552c0.03221,0.26276 -0.04988,0.51066 -0.10831,0.74728c-0.0311,0.15398 -0.09643,0.1714 -0.3502,0.09823z" fill="#bad1d2"/><path d="M274.74625,183.81583c0.08311,0.16879 0.17719,0.30454 0.26033,0.47332c-0.04548,0.07741 -0.13815,0.17746 -0.21269,0.28269c-0.29896,-0.17667 -0.29349,-0.19321 -0.20425,-0.40288c0.0383,-0.11569 0.09473,-0.22618 0.1566,-0.35316z" fill="#b5cbcc"/><path d="M271.73031,176.42905c0.16484,0.10184 0.24631,0.21581 0.3277,0.32979c-0.10362,0.1331 -0.27054,0.15738 -0.43023,0.22001c-0.09958,-0.11918 -0.18092,-0.23319 -0.28049,-0.3524c0.06734,-0.14352 0.24142,-0.1296 0.38306,-0.19742z" fill="#c0d7d8"/><path d="M273.20827,184.8029c0.0978,0.06442 0.14301,0.16792 0.18272,0.28801c-0.1255,0.19919 -0.31255,0.34445 -0.52493,0.44618c-0.13235,-0.02004 -0.1522,-0.08008 -0.1611,-0.17313c0.1617,-0.18877 0.32349,-0.37751 0.50337,-0.56101z" fill="#bdd4d4"/><path d="M274.41033,178.83079c-0.05953,-0.1801 -0.09548,-0.37148 -0.15501,-0.55159c0.09987,-0.06174 0.20145,-0.06868 0.3102,-0.03737c0.0978,0.0644 0.10675,0.15746 0.13376,0.25576c0.01437,0.07657 0.02876,0.15312 0.04313,0.22969c-0.0872,0.08351 -0.18161,0.12873 -0.33211,0.10346z" fill="#b6cccc"/><path d="M270.94858,177.4711c-0.0831,-0.16881 -0.15359,-0.31582 -0.25487,-0.48988c0.05093,-0.09394 0.13814,-0.17747 0.31772,-0.18004c0.09958,0.11919 0.19363,0.25494 0.30581,0.39589c-0.11628,0.11132 -0.20893,0.21137 -0.36868,0.27396z" fill="#c1d9d9"/><path d="M274.96577,179.55209c-0.11628,0.11132 -0.2216,0.18962 -0.37583,0.23567c-0.08311,-0.16879 -0.06466,-0.34455 -0.0753,-0.49243c0.07998,-0.12176 0.1997,-0.1235 0.30675,-0.14696c0.04892,0.0322 0.08517,0.04265 0.07973,0.05916c0.02153,0.11484 0.04313,0.22967 0.06466,0.34456z" fill="#b7cdce"/><path d="M275.45624,181.25042c-0.08483,-0.22361 -0.03562,-0.37236 -0.02265,-0.53157c0.00031,-0.18097 0.13095,-0.21572 0.28518,-0.26181c0.08311,0.16879 0.07015,0.328 0.09891,0.48114c-0.09096,0.15482 -0.28864,0.1522 -0.36146,0.31225z" fill="#b6cccc"/><path d="M273.87602,185.66518c-0.13439,0.10611 -0.23971,0.18437 -0.35052,0.27918c-0.16864,-0.0305 -0.27739,-0.06185 -0.37693,-0.18104c0.158,-0.11742 0.29787,-0.24006 0.43223,-0.34617c0.17954,-0.0026 0.21921,0.11751 0.32254,0.16533c-0.01095,0.03306 -0.00375,0.07136 -0.02733,0.08267z" fill="#c2dada"/><path d="M270.68921,176.45489c-0.09268,0.1 -0.16345,0.13395 -0.26505,0.14091c-0.11426,-0.01484 -0.16486,-0.10182 -0.23911,-0.17751c-0.05613,-0.0705 -0.17752,-0.12357 -0.15737,-0.24449c0.12345,-0.07302 0.25956,-0.12434 0.43367,-0.11039c0.09409,0.13574 0.15189,0.26103 0.22784,0.39156z" fill="#bbd2d3"/><path d="M265.29296,184.06077c0.15424,-0.04607 0.26677,-0.08608 0.39739,-0.12086c0.08862,0.15227 0.11734,0.30539 0.16424,0.46377c-0.10531,0.07827 -0.21786,0.11831 -0.34473,0.08168c-0.03081,-0.02696 -0.06155,-0.05396 -0.06878,-0.09225c-0.05062,-0.08698 -0.09579,-0.19058 -0.14815,-0.33237z" fill="#bbd2d3"/><path d="M275.24112,183.94031c-0.15737,-0.24451 -0.15739,-0.24452 -0.15501,-0.55159c0.1344,-0.10612 0.28489,-0.08082 0.46443,-0.08337c-0.02219,0.2471 -0.18391,0.43581 -0.30943,0.63501z" fill="#adc2c3"/><path d="M266.84866,185.36003c0.10531,-0.07827 0.23601,-0.11305 0.36833,-0.09299c0.08862,0.15227 0.1646,0.28273 0.23502,0.42979c-0.36288,0.07649 -0.381,0.07129 -0.60339,-0.33678z" fill="#b5cbcc"/><path d="M273.75694,178.04507c-0.12893,0.0896 -0.2288,0.15132 -0.38304,0.19739c-0.11765,-0.1244 -0.12281,-0.28887 -0.18782,-0.45247c0.05268,-0.03915 0.09984,-0.06172 0.14703,-0.08437c0.04719,-0.02263 0.10704,-0.02348 0.17238,-0.04088c0.14673,0.0966 0.20453,0.22186 0.25145,0.38025z" fill="#bbd1d2"/><path d="M264.46239,182.97051c-0.143,-0.16795 -0.09548,-0.37149 -0.14238,-0.52983c0.11081,-0.09478 0.24319,-0.07477 0.37387,-0.10953c0.06675,0.21836 0.04827,0.3941 -0.06628,0.56024c-0.01644,0.04958 -0.09986,0.06174 -0.16517,0.07914z" fill="#b6cccd"/><path d="M267.46055,176.61076c-0.198,0.17831 -0.40867,0.33485 -0.60119,0.49662c-0.12143,-0.05311 -0.17753,-0.12355 -0.21176,-0.26015c0.24143,-0.1296 0.48288,-0.25914 0.76229,-0.32346c0.02534,0.04353 0.03797,0.06527 0.05064,0.08699z" fill="#acc1c2"/><path d="M271.78311,180.40918c-0.01673,0.23056 -0.05157,0.45588 -0.15896,0.66026c-0.04552,0.07743 -0.12174,0.12787 -0.21236,0.10175c-0.03622,-0.01044 -0.0978,-0.06441 -0.09233,-0.08095c0.06392,-0.25314 0.27284,-0.46449 0.46364,-0.68108z" fill="#a7bbbb"/><path d="M273.35013,177.29414c-0.06909,0.08873 -0.1761,0.1122 -0.30128,0.13043c-0.09409,-0.13574 -0.18813,-0.27148 -0.28224,-0.40721c0.11628,-0.11132 0.2305,-0.09648 0.35737,-0.05993c0.09234,0.08093 0.16833,0.21142 0.22612,0.33674z" fill="#b7cdcd"/><path d="M269.51651,186.41847c0.14536,-0.13918 0.29959,-0.18521 0.47195,-0.22608c0.1286,0.09138 0.2155,0.18883 0.23878,0.35848c-0.25034,0.03648 -0.46242,-0.04276 -0.71074,-0.13238z" fill="#b7cece"/><path d="M263.93955,181.19043c-0.06126,-0.2349 0.08236,-0.42887 0.0464,-0.62028c0.10529,-0.07825 0.17237,-0.04084 0.19222,0.0192c0.04688,0.15835 0.07017,0.32802 0.01545,0.49327c-0.03453,0.04437 -0.04001,0.06087 -0.2541,0.10783z" fill="#b4cacb"/><path d="M268.14734,176.93544c-0.09235,-0.0809 -0.13033,-0.14618 -0.13927,-0.23925c0.18161,-0.12874 0.36865,-0.27396 0.6662,-0.33307c-0.07486,0.28619 -0.29271,0.40446 -0.52696,0.57232z" fill="#b2c8c9"/><path d="M265.97369,184.76388c0.09958,0.11918 0.1683,0.21142 0.17174,0.32105c-0.04,0.06089 -0.09987,0.06177 -0.15974,0.06262c-0.23939,0.00343 -0.29175,-0.13842 -0.32768,-0.32978c0.10156,-0.00697 0.20863,-0.03042 0.31567,-0.05389z" fill="#b5cbcb"/><path d="M273.86689,181.5528c0.05298,-0.22008 0.11313,-0.40187 0.23316,-0.58453c0.0961,0.00961 0.11595,0.06962 0.09955,0.11919c-0.02017,0.12094 -0.0222,0.24711 -0.04236,0.368c-0.04378,0.13221 -0.12721,0.14437 -0.29034,0.09732z" fill="#91a3a3"/><path d="M267.08781,179.23717c0.06126,0.2349 -0.02798,0.44456 -0.09364,0.64289c-0.01095,0.03306 -0.05815,0.05568 -0.09985,0.06173c-0.03623,-0.01045 -0.07971,-0.05915 -0.07425,-0.07571c0.02219,-0.2471 0.12956,-0.4515 0.2677,-0.62895z" fill="#99abac"/><path d="M266.03176,179.54839c-0.14877,0.02955 -0.2394,0.00341 -0.24832,-0.08968c0.00205,-0.12617 0.09301,-0.28095 0.2366,-0.47494c0.07221,0.20187 0.01203,0.38364 0.01171,0.56459z" fill="#93a5a6"/><path d="M271.34053,186.72685c0.2052,-0.14 0.39772,-0.30179 0.68028,-0.07555c-0.21069,0.15651 -0.44631,0.08864 -0.68028,0.07555z" fill="#9aadad"/><path d="M272.08218,183.64553c-0.01064,-0.14793 -0.01579,-0.31231 -0.03186,-0.44372c0.08175,-0.06697 0.14158,-0.06784 0.24489,-0.01995c0.04143,0.1749 -0.08578,0.31929 -0.11688,0.47326c-0.03623,-0.01045 -0.05438,-0.0157 -0.09614,-0.00959z" fill="#c5dddd"/><path d="M269.36816,179.96669c0.09204,0.26188 0.02089,0.47677 -0.12268,0.67074c-0.00548,0.01654 -0.04721,0.02262 -0.08345,0.01217c-0.05986,0.00085 -0.07971,-0.05915 -0.06875,-0.09223c0.04199,-0.18703 0.16207,-0.36973 0.2749,-0.59068z" fill="#aec2c3"/><path d="M264.70493,183.25765c0.08311,0.16879 0.08283,0.34972 0.08797,0.51419c-0.08171,0.06697 -0.14881,0.02954 -0.16317,-0.04701c-0.03422,-0.13661 -0.07389,-0.25666 -0.0845,-0.40456c-0.02534,-0.04353 0.04546,-0.07741 0.15972,-0.0626z" fill="#9caeaf"/><path d="M272.50428,176.6702c-0.14675,-0.09661 -0.2336,-0.19404 -0.3277,-0.3298c0.25753,0.0018 0.44054,0.10883 0.65807,0.17154c-0.03455,0.04437 -0.04551,0.07743 -0.06908,0.08871c-0.08893,0.02866 -0.17235,0.04084 -0.26127,0.06955z" fill="#a9bebf"/><path d="M267.45828,182.07769c0.13785,0.00352 0.20484,0.04093 0.26099,0.11146c-0.03659,0.17049 -0.14021,0.30357 -0.37618,0.41664c0.02939,-0.2088 0.07864,-0.35755 0.11518,-0.52807z" fill="#b9cfd0"/><path d="M273.28704,183.30477c0.08174,-0.06696 0.15972,-0.06256 0.2377,-0.05823c0.07969,0.05918 0.05237,0.1418 -0.13332,0.52283c-0.18472,-0.16186 -0.07016,-0.32801 -0.10439,-0.46461z" fill="#869797"/><path d="M268.26952,179.68633c-0.1419,0.24877 -0.05532,0.52721 -0.37475,0.65239c0.00952,-0.26883 0.09327,-0.46193 0.37475,-0.65239z" fill="#93a4a5"/><path d="M275.07758,181.01455c-0.08204,0.2479 -0.13676,0.41321 -0.19145,0.57848c-0.01095,0.03306 -0.05814,0.0557 -0.11249,0.03997c-0.01815,-0.00523 -0.0489,-0.03221 -0.06158,-0.05394c0.02934,-0.20878 0.08953,-0.39065 0.3655,-0.56453z" fill="#94a5a6"/><path d="M274.23931,183.30766c0.13066,-0.03474 0.19047,-0.03564 0.25926,0.05659c-0.02563,0.13744 -0.05673,0.29144 -0.16582,0.44105c-0.14297,-0.16797 -0.08827,-0.3332 -0.09346,-0.49762z" fill="#abbfc0"/><path d="M275.64312,180.14557c-0.10157,0.00696 -0.14329,0.01301 -0.17958,0.00256c-0.12285,-0.28886 -0.12281,-0.28883 0.00814,-0.50453c0.14845,0.1514 0.09379,0.31667 0.17141,0.50198z" fill="#acc0c1"/><path d="M271.83878,186.00138c0.15255,-0.10088 0.29239,-0.22352 0.46305,-0.31919c0.07079,-0.03391 0.14331,-0.01298 0.16486,0.10182c-0.18163,0.12872 -0.35771,0.24091 -0.6279,0.21733z" fill="#9fb2b2"/><path d="M274.09998,177.90851c-0.06877,-0.09226 -0.10672,-0.15751 -0.11565,-0.25056c0.05814,-0.05569 0.12345,-0.07307 0.21957,-0.06347c0.10328,0.04789 0.14843,0.15142 0.19359,0.25495c-0.06909,0.08873 -0.18331,0.0739 -0.29751,0.05907z" fill="#aec2c3"/><path d="M269.84507,183.1457c-0.11765,-0.1244 -0.07938,-0.24014 -0.05922,-0.36106c0.01644,-0.04958 0.08171,-0.06695 0.1361,-0.05127c0.03623,0.01045 0.07973,0.05918 0.06877,0.09223c0.02156,0.11481 -0.04752,0.2036 -0.14567,0.32011z" fill="#91a2a3"/><path d="M271.33726,176.11661c-0.29241,0.22352 -0.31597,0.23487 -0.47508,-0.06446c0.15596,0.00875 0.31021,-0.03735 0.47508,0.06446z" fill="#869696"/><path d="M265.02207,179.23928c-0.11938,-0.17925 -0.03221,-0.26272 0.02422,-0.37322c0.13579,0.12967 0.13579,0.12967 -0.02422,0.37322z" fill="#555f5f"/><path d="M271.09848,183.01809c-0.02734,0.08265 -0.06563,0.19831 -0.15831,0.29837c-0.11391,-0.19578 -0.09202,-0.26187 0.01873,-0.35667c0.02909,-0.02784 0.08347,-0.01218 0.13954,0.05833z" fill="#93a5a6"/><path d="M275.79511,181.36619c0.11564,0.25057 0.0866,0.27844 -0.2199,0.24441c0.00205,-0.12618 0.10188,-0.18791 0.2199,-0.24441z" fill="#8b9b9c"/><path d="M264.83287,178.55113c-0.00032,0.18097 -0.06221,0.30792 -0.12413,0.43497c-0.12517,0.01827 -0.16862,-0.0305 -0.14671,-0.09662c0.04376,-0.13221 0.10566,-0.25923 0.2708,-0.33836z" fill="#9aacad"/><path d="M275.2914,179.04842c0.08138,0.11398 0.17376,0.19493 0.11189,0.32194c-0.0055,0.01653 -0.02906,0.02785 -0.0472,0.02263c-0.15222,-0.08008 -0.15565,-0.18971 -0.06468,-0.34454z" fill="#5f6a6b"/><path d="M268.67424,182.6635c-0.03251,-0.08178 -0.01064,-0.14794 0.0294,-0.20881c0.02909,-0.02784 0.07625,-0.05043 0.10704,-0.02345c0.03081,0.02696 0.05614,0.07048 0.04515,0.10354c-0.0219,0.06608 -0.06189,0.12698 -0.1816,0.1287z" fill="#636e6f"/><path d="M273.64433,177.12547c0.14331,-0.013 0.22847,0.02962 0.25723,0.18274c-0.1669,0.0243 -0.22301,-0.04613 -0.25723,-0.18274z" fill="#4a5354"/></g><g data-paper-data="{&quot;index&quot;:null}" fill="#000000" fill-rule="nonzero" stroke="#000000" stroke-width="1.2" stroke-linecap="butt" stroke-linejoin="miter"><path d="M254.33825,197.75507c-1.60008,-0.96017 -2.43401,-4.20178 -3.82305,-6.02867c-1.49548,-1.96692 -3.39993,-2.42732 -3.54165,-4.063c-0.09899,-1.14251 1.02927,-2.26038 1.6891,-2.76205c1.60445,-1.21992 4.96427,0.49938 7.50434,3.84016c2.54008,3.34077 3.29857,7.03794 1.69413,8.25784c-0.72705,0.55281 -2.19692,1.55138 -3.52285,0.75574z"/><path d="M258.45502,197.33877c-2.21886,-1.35906 -5.01557,-6.66902 -5.01557,-6.66902c0,0 -3.16666,-2.32443 -3.21785,-2.39428c-3.26269,-4.44958 -0.52119,-6.61073 2.63813,-9.01284c1.50362,-1.14326 4.27931,-2.29157 6.14644,-1.5416c2.11755,0.85053 3.31684,3.37767 5.18178,5.83049c3.50931,4.61554 4.58907,9.98565 1.38017,12.42546c-1.41255,1.074 -4.14959,3.17693 -7.11311,1.36176z"/></g><path d="M219.02901,204.6209l7.15937,-12.03766" fill="none" fill-rule="nonzero" stroke="#000000" stroke-width="4.5" stroke-linecap="round" stroke-linejoin="miter"/><path d="M214.10234,191.92615l-18.16666,-0.66666" fill="none" fill-rule="nonzero" stroke="#000000" stroke-width="4.5" stroke-linecap="round" stroke-linejoin="miter"/><path d="M204.10234,182.42615l2,20.33334" fill="none" fill-rule="nonzero" stroke="#000000" stroke-width="4.5" stroke-linecap="round" stroke-linejoin="miter"/><path d="M212.26901,176.42615l19.16667,0.5" fill="none" fill-rule="nonzero" stroke="#000000" stroke-width="4.5" stroke-linecap="round" stroke-linejoin="miter"/><path d="M219.76901,186.59282l0.5,-15.83333" fill="none" fill-rule="nonzero" stroke="#000000" stroke-width="4.5" stroke-linecap="round" stroke-linejoin="miter"/><g fill="#ff0000" fill-rule="nonzero" stroke="none" stroke-linecap="butt" stroke-linejoin="miter"><path d="M266.08932,207.20351c1.20014,-0.06461 2.33756,0.7369 2.5405,1.79022c0.20294,1.05331 -0.60546,1.95957 -1.8056,2.02418c-1.20014,0.06461 -2.33757,-0.73689 -2.54051,-1.79021c-0.20294,-1.05331 0.60547,-1.95959 1.80561,-2.02419z" stroke-width="NaN"/><path d="M270.2932,204.4079c1.10413,-0.05944 2.14546,0.65136 2.32583,1.58765c0.18038,0.93628 -0.56846,1.74348 -1.6726,1.80291c-1.10413,0.05944 -2.14546,-0.65138 -2.32585,-1.58767c-0.18038,-0.93628 0.56846,-1.74347 1.67259,-1.80291z" stroke-width="0"/><path d="M274.80351,207.30537c1.15214,-0.06203 2.23239,0.64669 2.41276,1.58297c0.18038,0.93628 -0.60738,1.74558 -1.75953,1.80759c-1.15214,0.06203 -2.23238,-0.6467 -2.41276,-1.58298c-0.18038,-0.93628 0.60738,-1.74556 1.75951,-1.80758z" stroke-width="0"/><path d="M258.69208,202.9604c-0.13464,0.77007 -1.09556,1.23884 -2.14633,1.04703c-1.05077,-0.19182 -1.79343,-0.97158 -1.65878,-1.74165c0.13464,-0.77007 1.09557,-1.23885 2.14634,-1.04704c1.05077,0.19182 1.79343,0.97159 1.65877,1.74166z" stroke-width="NaN"/><path d="M260.70225,206.43523c-0.12387,0.70846 -0.98142,1.14459 -1.91543,0.97409c-0.93401,-0.1705 -1.59076,-0.88305 -1.46689,-1.59152c0.12387,-0.70846 0.98143,-1.14457 1.91544,-0.97408c0.93401,0.1705 1.59076,0.88304 1.46688,1.59151z" stroke-width="0"/><path d="M263.11405,204.28558c-0.14001,0.80088 -0.97915,1.31766 -1.87423,1.15426c-0.89508,-0.1634 -1.50718,-0.9451 -1.36716,-1.74598c0.14001,-0.80088 0.97915,-1.31765 1.87423,-1.15425c0.89508,0.1634 1.50718,0.94508 1.36717,1.74596z" stroke-width="0"/><path d="M263.02311,217.37254c1.19865,0.24391 1.9977,1.27033 1.78474,2.29257c-0.21297,1.02223 -1.35734,1.65317 -2.55599,1.40925c-1.19865,-0.24391 -1.99769,-1.27033 -1.78472,-2.29255c0.21297,-1.02223 1.35733,-1.65319 2.55598,-1.40926z" stroke-width="NaN"/><path d="M268.22524,215.85867c1.10276,0.22441 1.84326,1.14292 1.65395,2.05157c-0.18931,0.90864 -1.23674,1.46333 -2.3395,1.23892c-1.10276,-0.22441 -1.84327,-1.14293 -1.65396,-2.05156c0.18931,-0.90864 1.23675,-1.46332 2.33952,-1.23892z" stroke-width="0"/><path d="M257.0012,212.24403c-0.4324,0.67578 -1.55504,0.8649 -2.50747,0.4224c-0.95244,-0.44251 -1.37399,-1.34905 -0.94159,-2.02484c0.4324,-0.67578 1.55504,-0.8649 2.50747,-0.42239c0.95243,0.44251 1.37399,1.34904 0.94158,2.02482z" stroke-width="NaN"/><path d="M253.3898,216.85216c-0.41512,0.64875 -1.43793,0.85579 -2.28454,0.46247c-0.84662,-0.39333 -1.19641,-1.23812 -0.7813,-1.88686c0.41512,-0.64875 1.43793,-0.85581 2.28455,-0.46248c0.84662,0.39333 1.1964,1.23813 0.7813,1.88688z" stroke-width="0"/><path d="M260.80714,214.58373c-0.4497,0.70281 -1.47197,0.96697 -2.2833,0.59004c-0.81133,-0.37694 -1.10451,-1.25226 -0.65481,-1.95507c0.4497,-0.70281 1.47198,-0.96698 2.28331,-0.59005c0.81133,0.37694 1.10449,1.25227 0.65479,1.95509z" stroke-width="0"/></g></g></g></svg>