<svg version="1.1" xmlns="http://www.w3.org/2000/svg" xmlns:xlink="http://www.w3.org/1999/xlink" width="72.44728" height="139.53137" viewBox="0,0,72.44728,139.53137"><defs><linearGradient x1="230.67841" y1="215.54711" x2="249.50727" y2="215.54711" gradientUnits="userSpaceOnUse" id="color-1"><stop offset="0" stop-color="#2a801c"/><stop offset="1" stop-color="#62f67a"/></linearGradient><linearGradient x1="230.67841" y1="215.54711" x2="249.50727" y2="215.54711" gradientUnits="userSpaceOnUse" id="color-2"><stop offset="0" stop-color="#2a801c"/><stop offset="1" stop-color="#62f67a"/></linearGradient><linearGradient x1="223.29438" y1="200.2531" x2="244.18663" y2="200.2531" gradientUnits="userSpaceOnUse" id="color-3"><stop offset="0" stop-color="#2a801c"/><stop offset="1" stop-color="#62f67a"/></linearGradient><linearGradient x1="223.29438" y1="200.2531" x2="244.18663" y2="200.2531" gradientUnits="userSpaceOnUse" id="color-4"><stop offset="0" stop-color="#2a801c"/><stop offset="1" stop-color="#62f67a"/></linearGradient><linearGradient x1="215.14385" y1="219.11535" x2="234.73735" y2="219.11535" gradientUnits="userSpaceOnUse" id="color-5"><stop offset="0" stop-color="#2a801c"/><stop offset="1" stop-color="#62f67a"/></linearGradient><linearGradient x1="215.14385" y1="219.11535" x2="234.73735" y2="219.11535" gradientUnits="userSpaceOnUse" id="color-6"><stop offset="0" stop-color="#2a801c"/><stop offset="1" stop-color="#62f67a"/></linearGradient><linearGradient x1="198.54183" y1="139.09798" x2="252.56436" y2="139.70632" gradientUnits="userSpaceOnUse" id="color-7"><stop offset="0" stop-color="#66ff81" stop-opacity="0"/><stop offset="1" stop-color="#66ff81"/></linearGradient></defs><g transform="translate(-195.02627,-104.50292)"><g data-paper-data="{&quot;isPaintingLayer&quot;:true}" stroke-miterlimit="10" stroke-dasharray="" stroke-dashoffset="0" style="mix-blend-mode: normal"><path d="M234.17589,184.16686l-1.07162,12.96524" fill="none" fill-rule="nonzero" stroke="#66ff81" stroke-width="7" stroke-linecap="round" stroke-linejoin="miter"/><g stroke-width="1.2"><path d="M242.04045,194.78673l4.40416,33.21705c0,0 7.20218,1.89612 5.77612,10.1607c-0.08131,0.47115 -0.53524,2.77385 -3.64329,2.86947c-2.97687,0.09158 -8.56822,-1.9964 -10.60909,-2.77348c-0.94789,-0.36093 -2.31822,-1.39799 -3.07266,-2.86423c-0.75958,-1.4763 -0.37301,-3.33344 -0.21291,-4.3893c0.06521,-0.43007 -3.11564,-34.4771 -3.11564,-34.4771" fill="#44ff00" fill-rule="evenodd" stroke="#44ff00" stroke-linecap="round" stroke-linejoin="round"/><path d="M242.77872,194.06348c0.57331,3.23096 3.65482,21.21716 3.65482,21.21716c0,0 1.79572,5.9497 1.85713,7.55635c0.07071,1.85039 0.2749,3.19046 0.2749,3.19046l-0.8403,-1.59614c0,0 0.54573,1.1046 0.73555,1.7373c0.59133,1.97097 1.04645,3.46028 1.04645,3.46028c0,0 -7.25618,-1.96371 -10.51449,0.13334c-3.2583,2.09706 -2.59612,7.36489 -2.59612,7.36489c0,0 -5.29314,-2.00437 -5.21499,-5.49161c0.01925,-0.85969 1.23934,-3.19201 1.23934,-3.19201c0,0 -0.6429,0.02037 -0.57534,-0.56435c0.01605,-0.13893 -1.27274,-30.10237 -1.16031,-30.75395c0,0 11.96144,-3.8054 12.09337,-3.06177z" fill="url(#color-1)" fill-rule="nonzero" stroke="url(#color-2)" stroke-linecap="butt" stroke-linejoin="miter"/></g><g fill-rule="evenodd" stroke-width="1.2" stroke-linecap="round" stroke-linejoin="round"><g fill="#ffab19" stroke="#001026" font-family="&quot;Helvetica Neue&quot;, Helvetica, Arial, sans-serif" font-weight="400" font-size="16" text-anchor="start"/><path d="M229.37077,204.50319c-1.65751,-0.32316 -3.61409,-1.03503 -4.54557,-2.13453c-1.20166,-1.41841 -1.16917,-3.37764 -1.53082,-4.88799c6.80996,1.4176 14.92879,0.22445 20.89225,-2.43031c-0.1538,1.03952 0.23084,5.67276 -2.20942,7.31258c-1.62371,1.09112 -6.66132,2.75302 -7.94552,2.9904c-2.49235,0.46073 -4.28572,-0.77703 -4.66091,-0.85016z" fill="url(#color-3)" stroke="url(#color-4)"/></g><g stroke-width="1.2"><g fill-rule="evenodd" stroke-linecap="round" stroke-linejoin="round"><path d="M233.29125,202.19373c0,0 -3.2723,34.52993 -3.86943,34.6439c-1.71359,0.32706 -11.10426,-2.60164 -11.10426,-2.60164l6.03629,-34.71663" data-paper-data="{&quot;index&quot;:null}" fill="#ffab19" stroke="#001026"/><path d="M234.73735,201.63707c0,0 -0.76441,7.3018 -0.99019,11.17336c-0.21655,3.71341 -0.33797,11.60145 -0.33797,11.60145c0,0 0.91795,5.73165 0.0205,7.14507c-0.41568,0.65465 -0.74321,-3.23598 -0.74321,-3.23598c0,0 0.36566,4.3861 0.40166,4.77271c0.2512,2.69735 -0.89522,6.23954 -3.89934,6.57605c-3.29833,0.36948 -8.76649,0.78677 -11.58536,-1.34726c-1.19939,-0.908 -2.82402,-3.58085 -2.38675,-6.42814c0.49311,-3.21102 3.14122,-6.57491 3.14122,-6.57491l-2.4333,3.66683c0,0 -0.02536,-1.83092 0.37057,-3.17398c0.44462,-1.50826 2.16811,-5.4376 2.16811,-5.4376l5.22466,-22.11374" data-paper-data="{&quot;index&quot;:null}" fill="url(#color-5)" stroke="url(#color-6)"/></g><path d="M232.65202,236.84683c-0.08934,2.11928 -0.81816,4.58157 -2.40007,5.86018c-1.58777,1.28333 -11.13035,0.77475 -12.60558,-0.79367c-1.40098,-1.48947 -1.97166,-4.2424 -1.88446,-6.3108c0.17901,-4.24642 4.10511,-7.41029 8.76921,-7.0667c4.66406,0.34359 8.29992,4.06454 8.12089,8.31099z" fill="#44ff00" fill-rule="nonzero" stroke="#44ff00" stroke-linecap="butt" stroke-linejoin="miter"/></g><path d="M239.30324,184.37497l15.19897,13.60016" fill="none" fill-rule="nonzero" stroke="#66ff81" stroke-width="7" stroke-linecap="round" stroke-linejoin="miter"/><path d="M231.94903,182.88261l-15.32041,11.87133" fill="none" fill-rule="nonzero" stroke="#66ff81" stroke-width="7" stroke-linecap="round" stroke-linejoin="miter"/><g stroke-linejoin="miter"><g data-paper-data="{&quot;index&quot;:null}" stroke-linecap="butt"><path d="M262.92268,163.31942c-2.78672,13.15918 -16.19395,21.46596 -29.9459,18.5537c-13.75194,-2.91227 -22.641,-15.94072 -19.85426,-29.0999c2.78672,-13.15918 16.19395,-21.46596 29.9459,-18.55369c13.75194,2.91227 22.641,15.94072 19.85426,29.0999z" fill="none" fill-rule="nonzero" stroke="#66ff81" stroke-width="4.5"/><g><g fill-rule="nonzero"><path d="M226.53317,139.53682l-0.00953,-0.01029" data-paper-data="{&quot;index&quot;:null}" fill="#ffab19" stroke="#000000" stroke-width="5"/><g data-paper-data="{&quot;index&quot;:null}" fill="none" stroke="none" stroke-width="1" font-family="sans-serif" font-weight="normal" font-size="12" text-anchor="start"/></g><path d="M226.53317,139.53682l-0.00953,-0.01029" data-paper-data="{&quot;index&quot;:null}" fill="#ffab19" fill-rule="nonzero" stroke="#000000" stroke-width="5"/><path d="M237.48442,159.18243" fill="#001026" fill-rule="evenodd" stroke="#000000" stroke-width="5"/><g data-paper-data="{&quot;index&quot;:null}" fill="none" fill-rule="nonzero" stroke="none" stroke-width="1" font-family="sans-serif" font-weight="normal" font-size="12" text-anchor="start"/><g data-paper-data="{&quot;index&quot;:null}" fill="none" fill-rule="nonzero" stroke="none" stroke-width="1" font-family="sans-serif" font-weight="normal" font-size="12" text-anchor="start"/></g></g><path d="M212.61213,165.14707c0,0 -1.05923,-1.66897 -1.79923,-4.3144c-2.27084,-8.11798 -13.49938,-53.34244 -13.49938,-53.34244l50.54458,28.0918c0,0 -17.32349,-4.46971 -24.20847,0.93451c-2.66395,2.09101 -8.51804,9.68434 -9.96612,14.19785c-2.04318,6.36836 -1.07134,14.43267 -1.07134,14.43267z" fill="url(#color-7)" fill-rule="nonzero" stroke="#66ff81" stroke-width="3" stroke-linecap="round"/><path d="M219.65746,148.29485l21.90571,8.29994l-1.01696,6.16671" fill="none" fill-rule="nonzero" stroke="#66ff81" stroke-width="5" stroke-linecap="round"/><path d="M247.39061,163.51016l1.14028,-6.14638l16.44266,-14.43358" fill="none" fill-rule="nonzero" stroke="#66ff81" stroke-width="5" stroke-linecap="round"/></g><path d="M236.39657,177.53333c0,0.12385 -18.51768,-0.90238 -18.51768,-1.94923c0,-4.26126 7.92752,-9.82737 11.69538,-9.82737c3.76785,0 6.8223,7.51533 6.8223,11.7766z" fill="#ff0000" fill-rule="nonzero" stroke="#66ff81" stroke-width="3" stroke-linecap="butt" stroke-linejoin="miter"/></g></g></svg>