<svg version="1.1" xmlns="http://www.w3.org/2000/svg" xmlns:xlink="http://www.w3.org/1999/xlink" width="1183.29915" height="370.16658" viewBox="0,0,1183.29915,370.16658"><g transform="translate(202.88051,-82.07724)"><g data-paper-data="{&quot;isPaintingLayer&quot;:true}" fill-rule="nonzero" stroke-linejoin="miter" stroke-miterlimit="10" stroke-dasharray="" stroke-dashoffset="0" style="mix-blend-mode: normal"><path d="M400.57415,256.59467v-90.0901h88.58859v90.0901z" fill="#000000" stroke="#000000" stroke-width="2" stroke-linecap="butt"/><path d="M387.90124,166.09235l58,-60.5l56,60z" fill="#000000" stroke="#000000" stroke-width="2" stroke-linecap="butt"/><path d="M-48.87029,260.60368v-90.09009h88.58859v90.09009z" fill="#000000" stroke="#000000" stroke-width="2" stroke-linecap="butt"/><path d="M-61.5432,170.10136l58,-60.5l56,60z" fill="#000000" stroke="#000000" stroke-width="2" stroke-linecap="butt"/><path d="M75.25884,260.10818v-90.09009h88.58859v90.09009z" fill="#000000" stroke="#000000" stroke-width="2" stroke-linecap="butt"/><path d="M10.69428,264.61269v-27.02703h439.93994v27.02703z" fill="#00c754" stroke="#000000" stroke-width="2" stroke-linecap="butt"/><path d="M-92.15131,295.69102l84.5,-44l466.5,-5.5l40.5,27z" fill="#3e3e3e" stroke="#000000" stroke-width="2" stroke-linecap="butt"/><path d="M5.20874,353.45188l18.34419,-205.79966c0.07074,0.07524 0.14264,0.14938 0.21566,0.2224l0.57296,0.57297c0.00376,0.17274 0.00751,0.3455 0.01127,0.51825c0.88911,2.07791 0.42921,4.55796 1.24804,6.66455c0.46655,1.20029 1.49501,2.08499 2.38202,3.03886c0.08142,1.6706 0.03111,3.40145 0.61798,4.96114c0.4428,1.17681 1.92676,1.73605 2.42205,2.89175c0.54475,1.27109 0.0849,2.81623 0.57795,4.10825c1.14698,3.00562 2.94209,5.73066 4.72545,8.41634c0.01555,0.54639 0.07519,1.08176 0.27455,1.58366c0.49292,1.24095 1.93314,1.90914 2.53679,3.10016c0.38623,0.76202 0.03592,1.7379 0.32315,2.54247c1.38256,3.87277 3.914,7.54323 4.45378,11.75238c0.15563,1.21365 -0.18915,2.48166 0.10551,3.66924c0.66268,2.67079 2.53448,4.99033 2.94869,7.71075c0.52157,3.42555 -0.44143,7.56816 1.75845,10.24528c2.3646,2.87757 5.34638,4.22084 8.55449,4.82276c0.79986,0.21103 1.63897,0.32543 2.50406,0.33c2.17207,0.18046 4.39885,0.12752 6.5687,0.06762l-5.39832,60.5626z" fill="#fcef36" stroke="none" stroke-width="0" stroke-linecap="butt"/><path d="M77.65868,98.05139l-0.04388,0.49228c-0.11298,-0.04578 -0.22666,-0.08991 -0.34109,-0.13237c0.12758,-0.12081 0.25588,-0.24082 0.38497,-0.35991z" fill="#fcef36" stroke="none" stroke-width="0" stroke-linecap="butt"/><path d="M-120.60113,450.23994v-181.68168h722.22223v181.68168z" fill="#bca470" stroke="none" stroke-width="0" stroke-linecap="butt"/><path d="M-118.4985,450.00001l-0.60113,-185.94625l268.76877,1.5015l-223.72372,184.68468z" fill="#a3a3a3" stroke="#7a7a7a" stroke-width="4" stroke-linecap="round"/><path d="M651.07175,319.49649l-27.47866,-34.50199l209.66674,15.15235l27.47866,34.50198z" fill="#bca470" stroke="#9d895e" stroke-width="2.5" stroke-linecap="butt"/><path d="M710.00622,276.44844l-27.47866,-34.50199l209.66674,15.15235l27.47866,34.50198z" fill="#bca470" stroke="#9d895e" stroke-width="2.5" stroke-linecap="butt"/><path d="M-202.88051,188.2562l79.51,-33.41482c3.31791,4.91547 9.85414,3.8261 9.85414,3.8261c9.05421,-1.51429 17.818,-3.47988 26.55017,-6.3878c2.50909,-0.83555 4.83649,-2.23361 7.41466,-2.82244c6.1916,-1.41412 12.52719,-2.10062 18.78887,-3.16227c13.14572,-2.22883 26.28631,-4.4879 39.42945,-6.73186c6.57157,-1.12197 13.14496,-2.23345 19.71473,-3.36593c2.25851,-0.38932 2.98752,-0.74255 5.47275,-0.44231c1.6874,0.20386 3.31072,0.8123 5,1c2.40198,0.26689 6.86525,-0.4051 9.05839,0.75066c0.34998,0.18444 0.28212,0.77945 0.5871,1.03142c0.74791,0.61789 1.53753,1.20713 2.35166,1.77716c-0.00782,0.16216 -0.01177,0.32533 -0.01177,0.48942c0,2.34471 0.80696,4.50093 2.1583,6.20612l-139.68384,58.70343z" fill="#fcef36" stroke="none" stroke-width="0" stroke-linecap="butt"/><path d="" fill="#fcef36" stroke="none" stroke-width="0" stroke-linecap="butt"/><path d="" fill="#fcef36" stroke="none" stroke-width="0" stroke-linecap="butt"/><path d="M111.00234,231.11101c8.49654,17.3625 -15.58084,35.59077 -53.77834,54.28315c-38.1975,18.69239 -76.05049,30.77049 -84.54703,13.40798c-8.49654,-17.3625 15.58084,-46.59076 53.77834,-65.28315c9.07455,-4.44074 18.12967,-7.88734 26.77634,-10.32873c1.2848,0.61411 2.64576,1.01966 4.05007,1.28313c0.79986,0.21103 1.63897,0.32543 2.50406,0.33c3.35804,0.27899 6.84682,0.00014 10.05388,0.00014c7.14357,-0.20045 13.75193,-2.07351 20.60182,-4.12912c2.12676,-0.63823 4.28506,-0.52155 6.45862,-0.03964c6.69988,1.95295 11.63688,5.4383 14.10224,10.47623z" fill="#fcef36" stroke="none" stroke-width="0" stroke-linecap="butt"/><path d="M-121,350.95658l1.83965,-180h150.88864c1.14986,2.8772 2.87939,5.50194 4.59802,8.09013c0.01555,0.54639 0.07519,1.08176 0.27455,1.58366c0.24843,0.62544 0.73748,1.10539 1.23879,1.5801v110.7461z" fill="#fcef36" stroke="none" stroke-width="0" stroke-linecap="butt"/><path d="M-44.16035,185.95658v-42.48955c4.8917,-0.83605 9.78314,-1.67364 14.67471,-2.51045h50.32645c0.04051,2.70068 1.15163,5.14187 2.92779,6.91803l0.57296,0.57297c0.00376,0.17274 0.00751,0.3455 0.01127,0.51825c0.88911,2.07791 0.42921,4.55796 1.24804,6.66455c0.46655,1.20029 1.49501,2.08499 2.38202,3.03886c0.08142,1.6706 0.03111,3.40145 0.61798,4.96114c0.4428,1.17681 1.92676,1.73605 2.42205,2.89175c0.54475,1.27109 0.0849,2.81623 0.57795,4.10825c0.82575,2.16385 1.98742,4.18226 3.23879,6.14526v9.18095z" fill="#fcef36" stroke="none" stroke-width="0" stroke-linecap="butt"/><path d="M-86.16035,332.80354c0,21.53911 -16.56547,39 -37,39c-20.43453,0 -37,-17.46089 -37,-39c0,-21.53911 16.56547,-39 37,-39c20.43453,0 37,17.46089 37,39z" fill="#7e7e7e" stroke="none" stroke-width="0" stroke-linecap="butt"/><path d="M6.85157,251.31957c1.00407,1.36129 0.40771,2.48088 -0.08301,3.06264c0.36903,1.15419 0.79906,2.27069 1.31687,3.32295c0.90664,1.8424 3.07166,2.89681 3.88083,4.78405c0.38698,0.90258 0.88373,1.90109 1.15391,2.8931c0.91431,-0.22816 1.81728,-0.48821 2.68385,-0.85419c0.86339,-0.36463 1.47148,-1.17328 2.28576,-1.63734c3.37829,-1.9253 7.19404,-3.61101 10.65146,-5.33303c0.87127,-0.43395 1.94922,-0.38036 2.78406,-0.88083c0.75165,-0.4506 1.12195,-1.37188 1.83154,-1.88618c2.15726,-1.56355 4.65439,-2.59573 6.94425,-3.95772c2.76883,-2.68407 5.78733,-3.48583 9.32281,-5.03446c0.89956,-0.39403 2.18549,-0.30911 2.71955,-1.13327c0.31177,-0.48112 -1.29971,-0.07915 -1.63045,-0.54742c-0.7187,-1.01754 -0.84007,-2.34569 -1.24509,-3.52376c-0.83138,-2.41822 -1.33688,-4.93938 -2.14558,-7.36528c-5.2045,-15.61209 -11.32969,-30.72267 -17.81097,-45.84476c-2.10591,-4.91678 -4.20847,-9.7379 -6.83401,-14.32571c-1.62678,-2.84259 -3.04369,-6.82979 -5.35521,-9.26805c-2.07579,-2.18962 -4.86017,2.35514 -6.16818,3.13986c-0.97332,0.58392 -2.2012,0.61064 -3.21595,1.11917c-1.87992,0.9421 -3.51436,2.35265 -5.44579,3.18407c-2.39367,1.03039 -5.11452,1.33795 -7.33825,2.69677c-0.83097,0.50777 -1.212,1.6125 -2.08258,2.04888c-1.80218,0.90334 -4.09955,1.10827 -5.46398,2.59226c0,0 -0.18285,0.18286 -0.48974,0.37214c-0.21231,0.47188 -0.55151,0.78003 -0.90398,0.98128c2.00856,7.73399 4.31142,15.59924 6.98263,23.04449c1.49132,4.15663 3.87502,8.68725 4.94455,12.9518c0.28612,1.14086 -0.01793,2.36373 0.17298,3.52433c1.28398,7.80572 3.4664,16.2029 5.93634,23.69541c0.51327,2.30317 0.92748,4.7999 1.47132,7.26336c0.38365,0.14842 0.77221,0.43029 1.13007,0.91547zM-35.62434,265.2454c0,0 -0.0479,0.01051 -0.13174,0.02189c0.73089,3.4241 1.43299,6.85978 1.83179,10.41822c0.53637,1.08587 3.9868,-0.92482 4.97336,-1.25367c2.75971,-0.9199 6.09726,-1.56539 8.69219,-2.87408c1.10134,-0.55543 1.9478,-1.56753 3.087,-2.0405c4.50453,-1.8702 8.09575,-0.678 12.70731,-1.19515c3.88259,-0.43541 7.69849,-2.28256 11.51351,-2.89027c0.21572,-0.03436 0.43886,0.04263 0.6601,0.12811c0.19161,-0.08431 0.37945,-0.1409 0.54527,-0.17888c-0.20442,-0.08104 -0.43052,-0.16875 -0.54142,-0.26319c-0.6347,-0.5405 -1.29005,-1.07511 -1.80673,-1.72936c-0.86431,-1.09445 -1.68274,-2.24227 -2.31244,-3.48659c-0.48242,-0.95329 -0.89565,-1.95539 -1.25736,-2.98938c-12.65361,2.77762 -25.30722,5.55524 -37.96083,8.33287zM-36.69637,260.36168c12.5634,-2.75782 25.1268,-5.51564 37.69021,-8.27346c-0.58298,-2.57911 -1.02684,-5.19414 -1.56473,-7.62188c-1.20785,-3.67507 -2.34134,-7.55302 -3.34081,-11.47462c-0.62455,0.31182 -1.24865,0.31182 -1.24865,0.31182l-1.63057,-0.02745c-2.31319,0.34256 -4.60569,0.83747 -6.86943,1.43247c0,0.92219 0,1.84437 0,2.76656c0.7922,-0.10293 1.61729,-0.1632 2.5,-0.17158c1,0 2,0 3,0h3c0,0 2.5,0 2.5,2.5c0,2.5 -2.5,2.5 -2.5,2.5c-1,0 -5,0 -6,0c-3.79678,-0.04715 -7.32818,1.47585 -10.90162,2.74579c-1.7682,0.62839 -3.59417,2.7867 -5.27802,1.95839c-1.11628,-0.54911 -1.38672,-1.87564 -1.39884,-3.33484c-1.13556,0.19906 -2.41798,-0.01472 -3.88329,-0.84124c-1.51243,-0.85309 -0.84136,-3.9998 -2.37753,-4.67328c-0.07327,-0.02538 -0.14653,-0.05075 -0.2198,-0.07613c-1.20995,-0.33116 -2.86455,0.4077 -3.70866,-0.51093c-0.08144,-0.08862 -0.15203,-0.18231 -0.21319,-0.28042l-1.01904,0.01265c0,0 -0.36827,0 -0.82212,-0.14134c0.09009,0.73794 0.18442,1.48338 0.28984,2.24089c0.33249,2.38925 1.56317,4.58336 1.99266,6.9571c0.5468,3.02208 0.5603,6.12063 1.02927,9.15575c0.25339,1.63991 0.55726,3.25935 0.88342,4.86975c0.05775,-0.01673 0.09092,-0.02401 0.09092,-0.02401zM-7.52979,228.33099l2.36943,-0.02745c0,0 0.04588,0 0.12522,0.00622c-0.61671,-2.74358 -1.15661,-5.47763 -1.59942,-8.14801c-0.17411,-1.04996 0.14413,-2.15816 -0.11311,-3.19091c-0.38971,-1.56456 -0.98018,-3.17499 -1.63946,-4.78932c0.70024,2.6916 0.80985,5.58508 0.72677,8.62202c-0.03611,1.31993 0.28923,2.72643 -0.1903,3.95671c-0.42893,1.10045 -1.64901,1.69769 -2.37634,2.62826c-0.43485,0.55636 -0.87484,1.12456 -1.33061,1.68217c1.33537,-0.28715 2.67844,-0.53643 4.02783,-0.7397zM-20.92812,195.03577c1.76777,-1.76777 3.53553,0 3.53553,0l1,1c0.84731,0.93702 2.04875,1.64799 2.54193,2.81106c0.67448,1.59064 0.59041,3.51336 0.66807,5.33448c0.28466,0.3193 0.5499,0.60915 0.79,0.85446c0.81647,0.83419 1.4992,1.70383 2.06846,2.60597c-0.43237,-1.01978 -0.84174,-2.02481 -1.1929,-3.00387c-2.81117,-7.83766 -5.21829,-16.13623 -7.31604,-24.26679c-2.70442,0.15138 -5.27392,0.53134 -8.02183,0.91374c-2.37216,0.33011 -4.52942,1.68202 -6.90501,1.98645c-4.08254,0.52318 -9.10437,0.70478 -13.24511,1.02745c-1.99944,0.1558 -4.68577,0.01619 -6.81143,0.52395c-0.23557,0.51437 -0.64857,0.86033 -0.98953,1.07353c0.62759,0.67697 1.61478,1.09529 1.95531,1.95064c0.39865,1.00134 -0.24345,2.20512 0.08303,3.23225c0.72812,2.29076 2.71661,3.96759 4,6c0.04823,2.1377 0.72424,4.21473 1.07499,6.32401c0.541,3.2533 0.47447,6.74791 1,10c0.03559,0.22022 0.07462,0.44063 0.11679,0.6612c0.4365,-1.76075 2.41549,-1.76075 2.41549,-1.76075c0.58039,0 1.28499,-0.03991 2.05512,-0.09065c1.849,-1.849 3.73137,-3.73137 5.56168,-5.56168c0.7284,-1.34156 1.60777,-2.56737 2.61543,-3.61543l1,-1c0,0 0.76171,-0.76171 1.78512,-0.78512c0.41446,-0.41446 0.81989,-0.81989 1.21488,-1.21488c0,0 0.80193,-0.80193 1.86568,-0.78542c0.05077,-0.04612 0.10027,-0.09072 0.14834,-0.13364l-0.56075,-1.36812c0,0 -0.94505,-2.31449 1.36945,-3.25954c2.31449,-0.94505 3.25954,1.36945 3.25954,1.36945l0.99287,2.44012c0.54121,-0.01639 1.09394,-0.06888 1.63953,-0.08366c-0.41447,-0.6047 -1.0019,-1.89194 0.28534,-3.17918zM-14.92812,212.57131c-0.84731,-0.93702 -2.04875,-1.64799 -2.54193,-2.81106c-0.42291,-0.99735 -0.5476,-2.12524 -0.60092,-3.27679c-0.63175,-0.6252 -1.25474,-1.2589 -1.85715,-1.91215c-0.42514,-0.46102 -0.60512,-1.22908 -1.18894,-1.45807c-0.09736,-0.03819 -0.19672,-0.06025 -0.29764,-0.07022c0.55599,2.03409 1.11142,4.06833 1.66626,6.10273c0,0 0.65779,2.41191 -1.75412,3.0697c-2.41191,0.65779 -3.0697,-1.75412 -3.0697,-1.75412c-0.59377,-2.17714 -1.18686,-4.35447 -1.77922,-6.532c-0.73999,0.7867 -1.27354,1.87442 -2.0411,2.64197c0,0 -0.76171,0.76171 -1.78512,0.78512c-0.81351,0.81351 -1.62702,1.62702 -2.44053,2.44053c-0.42534,0.92907 -0.75739,1.93793 -0.98319,2.97603c5.64961,2.87686 5.14157,10.30955 6.81279,15.23997c0.142,0.41893 0.28915,0.84488 0.43897,1.27633c1.24959,0.14009 3.01582,0.01639 3.18932,0.01424c2.65073,0.03292 5.23139,-0.18326 7.23223,-2.26777c0.2139,-0.22284 0.39505,-0.47122 0.5602,-0.73223h-0.79243c-1.24149,-0.03576 -2.54071,0.26865 -3.72446,-0.10727c-2.15296,-0.68371 -3.9176,-2.32346 -6.06611,-3.02102c0,0 -2.37171,-0.79057 -1.58114,-3.16228c0.79057,-2.37171 3.16228,-1.58114 3.16228,-1.58114c3.07224,1.04574 5.02836,3.02167 8.20943,2.87171h1c0,0 2.08078,0 2.4457,1.89832c0.10235,-0.10247 0.18717,-0.21819 0.2446,-0.35503c0.26473,-0.63074 -0.16451,-1.35973 -0.1903,-2.04329c-0.09917,-2.62813 -0.00352,-5.14025 -0.56747,-7.45075c-0.9804,-0.06158 -1.7003,-0.78149 -1.7003,-0.78149zM-40.16035,232.30354l0.24213,0.0023c-0.27158,-0.69323 -0.60521,-1.36943 -0.70984,-2.10184c-0.2659,-1.86133 1.02947,-4.30317 -0.30005,-5.63269c-0.2597,-0.2597 -1.45359,-0.31675 -2.50739,-0.31441c0.32305,0.99203 0.62036,1.97879 0.86532,2.95779c0.47051,1.88042 0.77949,3.68147 1.02927,5.47141c0.66534,-0.38256 1.38057,-0.38256 1.38057,-0.38256zM-21.7037,234.30862l-0.06392,2.21938c-0.54713,0.85883 -1.13201,1.85285 -1.78328,2.82328c0.03307,0.26601 0.05837,0.53341 0.06953,0.79975c1.0942,-0.46544 2.35278,-0.65933 2.53044,-0.71921c0.79787,-0.2689 1.55409,-0.52535 2.29057,-0.76116c0,-1.34992 0,-3.07566 0,-4.58397c-0.9879,0.24653 -1.82098,0.23596 -3.04335,0.22192zM-35.04232,230.03961l0.25367,1.5545c0,0 -0.01417,0.0425 -0.04439,0.11422c0.07298,0.22625 0.12499,0.45673 0.1404,0.69476c0.01117,0.17241 -0.08444,0.35342 -0.2136,0.53202c0.33098,0.107 0.66195,0.21401 0.99293,0.32101c-0.40244,-1.06062 -0.78799,-2.12842 -1.12902,-3.21651zM-50.66035,221.80354c0,-0.62376 0.22844,-1.19417 0.60622,-1.63212c-0.65052,-1.98702 -1.23409,-3.97976 -1.57395,-5.96742c-0.55468,-3.24411 -0.45833,-6.75752 -1,-10c-0.31585,-1.89076 -0.9787,-3.75979 -0.92501,-5.67599c-0.90031,-1.24728 -3.62622,-4.92204 -4,-6c-0.30238,-0.87206 0.42735,-1.91138 0.08303,-2.76775c-0.35171,-0.87475 -1.78724,-1.08151 -2,-2c-0.00863,-0.03728 -0.01721,-0.07473 -0.02571,-0.11233c-9.49758,3.60567 -18.53882,8.40877 -28.14297,11.83499c-4.1834,1.49239 -8.41968,2.56098 -12.67806,3.67401c-0.58652,0.1533 -1.30383,-0.21681 -1.81545,0.10839c-0.25086,0.15945 0.20356,0.56395 0.36463,0.81377c0.58052,0.90044 1.36956,1.67004 1.85306,2.62608c3.03118,5.99359 6.04347,12.07769 9.06391,18.14167c3.94983,11.80168 6.40903,23.85476 9.8315,35.76083c1.3024,4.53076 3.69718,8.89722 5.22336,13.38419c0.6983,2.05298 0.75818,4.27037 1.10316,6.41124c0.33539,2.08134 1.74227,3.90763 2,6c0.08101,0.65766 -0.72762,1.34191 -0.43962,1.93868c0.19882,0.41199 0.9149,-0.00518 1.37235,-0.00594c0.73303,-0.00122 1.47782,0.1308 2.19909,0c2.44097,-0.44267 4.42124,-2.3562 6.82608,-2.9654c1.2925,-0.32742 2.66667,0 4,0c2.42343,-1.25709 4.4375,-2.55127 7.17393,-3.0346c0.98475,-0.17393 2.01273,0.15909 3,0c2.08134,-0.33539 3.92215,-1.64362 6,-2c1.60525,-0.27533 3.27443,-0.28719 4.8486,-0.67926c0.00995,-0.25394 0.06724,-0.52213 0.19346,-0.79737c-0.28099,-0.3335 -0.56756,-0.65686 -0.87768,-0.93762c-1.20376,-7.26882 -3.08014,-14.40364 -4.21473,-21.63623c-0.46982,-2.99492 -0.47586,-6.05424 -1.00957,-9.03844c-0.42976,-2.403 -1.65409,-4.62748 -2.00735,-7.04291c-0.19295,-1.3193 0.18617,-2.67973 0,-4c-0.36658,-2.59967 -1.13021,-5.12839 -1.76643,-7.67553c-0.3538,-1.41646 -0.80411,-2.84401 -1.28311,-4.2785c-1.13251,-0.23826 -1.98273,-1.24305 -1.98273,-2.44642zM-38.38671,220.26472c-0.0493,-0.18618 -0.0951,-0.3735 -0.13744,-0.56184c-0.10284,0.10284 -0.20567,0.20567 -0.30851,0.30851c0.15391,0.08048 0.30289,0.16507 0.44595,0.25333zM-35.69248,225.31808c0.00029,0.17503 -0.00329,0.35091 -0.00917,0.52777c0.18348,0.0252 0.36737,0.0494 0.55113,0.07392c-0.18225,-0.19966 -0.36376,-0.39966 -0.54196,-0.60169zM-35.36978,284.17525c-2.05635,0.66481 -4.2565,0.75219 -6.39012,1.09601c-2.08134,0.33539 -3.92216,1.64362 -6,2c-0.98561,0.16905 -2.01175,-0.15285 -3,0c-1.68844,0.26115 -5.98277,2.55678 -6.82607,2.9654c-1.33333,0 -2.70537,-0.31892 -4,0c-1.31904,0.32494 -2.36653,1.34734 -3.61767,1.87658c-3.27949,1.38723 -9.2009,2.48538 -11.98482,-0.84793c-0.87287,-1.04512 -0.17076,-2.72644 -0.43961,-4.06132c-0.41624,-2.06669 -1.64361,-3.92215 -2,-6c-0.31895,-1.8596 -0.27262,-3.80826 -0.89684,-5.58876c-1.59175,-4.54021 -3.96715,-9.02152 -5.29837,-13.6218c-0.47786,-1.65133 -0.5229,-3.40061 -0.89393,-5.07918c-2.24448,-10.15436 -5.47672,-20.28273 -8.75285,-30.15401c-2.99919,-5.97342 -5.99661,-11.91627 -8.93609,-17.85833c-1.44244,-2.91583 -4.36588,-4.54051 -1.78232,-8.56015c0.82765,-1.2877 2.77349,-1.29823 4.18455,-1.89161c2.60265,-1.09448 5.48094,-1.35911 8.2144,-2.06616c12.16262,-3.14603 22.99175,-9.93052 34.71695,-14.20994c0.89625,-1.17996 2.78405,-1.27608 4.21324,-1.77082c2.40109,-0.83118 5.0104,-0.89761 7.54362,-1.09487c4.0682,-0.3168 8.73857,-0.485 12.75489,-0.97255c2.44048,-0.29625 4.66247,-1.65779 7.09499,-2.01355c2.7946,-0.40872 5.41131,-0.75047 8.16555,-0.91477c0.27201,-0.43863 0.74085,-0.83113 1.53357,-1.02931c0.97097,-0.24275 1.65041,0.00042 2.11611,0.37933c0.7196,-0.75637 1.34056,-1.65089 2.25849,-2.12948c1.21867,-0.63539 2.7701,-0.38663 4,-1c0.81601,-0.40696 1.13223,-1.48748 1.91742,-1.95112c2.43976,-1.44062 5.34028,-1.90569 7.94651,-3.01713c1.87487,-0.79955 3.44554,-2.19221 5.26944,-3.10203c0.871,-0.43448 1.94944,-0.38 2.78406,-0.88083c0.75878,-0.45532 1.09773,-1.43962 1.85255,-1.90148c3.77374,-2.30909 5.97052,-3.77959 9.97926,-0.95866c0.28654,0.20164 4.30304,6.13488 4.64479,6.73195c3.49335,6.10324 6.32555,12.38373 9.10518,18.86574c6.53668,15.25316 12.71497,30.50086 17.96375,46.24856c1.00545,3.01659 1.38325,6.95678 2.89542,9.82619c0.65076,1.23485 2.79192,2.12219 2.36955,3.45258c-2.01111,6.33465 -10.12888,5.8567 -13.95764,9.83227c-2.31966,1.40223 -4.86642,2.44419 -7.05575,4.04229c-0.81532,0.59515 -1.30304,1.5942 -2.16845,2.11382c-0.9731,0.58429 -2.20147,0.6101 -3.21595,1.11917c-3.35243,1.68225 -7.01228,3.2594 -10.29281,5.13911c-0.96993,0.55576 -1.74089,1.45387 -2.76996,1.89052c-0.73897,0.31355 -1.50156,0.55939 -2.27498,0.77472c1.72014,1.83362 2.93161,3.85506 2.73938,6.94986c-0.092,1.48105 0.27007,3.26398 -0.51146,4.47634c0.32375,0.46509 0.43681,0.91732 0.43681,0.91732c1.13884,4.56421 3.29548,9.14949 3.93117,13.8066c0.21267,1.55802 0.57699,3.26713 -0.03099,4.71731c-2.35072,5.60708 -9.11104,3.19101 -13.71643,4.22628c-1.43998,0.3237 -2.76351,1.11636 -4.2244,1.32638c-1.64451,0.23642 -3.33564,-0.20847 -4.98424,-0.00251c-1.04596,0.13067 -1.96025,0.82671 -3,1c-3.0777,0.51295 -5.43365,0.55677 -8.44374,1.84198c-3.38631,1.44585 -7.43317,3.70218 -10.49493,5.7184c-0.94329,0.62118 -1.40003,2.048 -2.50507,2.2816c-1.87525,0.39641 -3.81631,-0.36129 -5.72447,-0.54194c-0.9613,-6.2593 -0.75528,-12.5174 -0.73389,-18.83652c-0.18587,-0.14842 -0.36197,-0.30525 -0.52645,-0.46947c-0.96361,-0.9621 -0.16885,-2.72683 -0.43962,-4.06132c-0.54767,-2.6992 -1.15683,-6.42684 -2.54422,-9.18896zM8.83965,271.30354c0,0 -0.93285,0 -1.65889,-0.56984c-2.18862,0.73726 -4.1096,0.91759 -6.69691,1.48982c-1.4542,0.32162 -2.86003,0.89571 -4.34013,1.06146c-3.69697,0.41401 -7.73413,-0.78007 -11.29269,0.80485c-1.06901,0.47612 -1.86463,1.43953 -2.913,1.9595c-3.64646,1.80858 -8.38178,3.02704 -12.30781,4.12592c-0.36762,0.10289 -0.7378,0.24861 -1.10922,0.40194c2.08874,3.46332 3.12986,7.94032 3.32034,11.89164c0.56309,0.20956 0.91456,0.59135 1.13394,0.98632c0.47631,-0.666 1.02331,-1.42608 1.46281,-1.72178c2.99365,-2.01415 8.45694,-3.75884 11.75567,-5.40196c4.19054,-2.08734 9.56451,-4.19272 14.24545,-4.99559c0.98561,-0.16905 2.01274,0.15909 3,0c3.14206,-0.50632 6.07016,-2.26682 8.676,-3.92501c0.65223,0.20832 1.34329,0.92918 1.95669,0.62496c0.42804,-0.21229 -0.65424,-0.76085 -0.73223,-1.23224c-0.11166,-0.67487 0.44007,-1.40648 0.1903,-2.04329c-0.22899,-0.58382 -0.99704,-0.7638 -1.45806,-1.18894c-0.81321,-0.74993 -1.59005,-1.53773 -2.36252,-2.33008zM-26.66035,305.80354c0,2.31984 0.49036,4.77181 -0.52866,6.8555c1.37013,-2.38301 3.13359,-2.50323 5.77385,-4.01778c4.37932,-2.51214 8.73338,-5.42711 13.85436,-6.30544c3.65443,-0.6268 7.32968,-0.47938 11.01576,-1.0025c1.34505,-0.19088 2.54925,-0.9678 3.87611,-1.25941c3.11548,-0.68468 6.37415,-0.30246 9.55188,-0.58007c0.29099,-0.02542 0.59239,-0.31835 0.63118,-0.60787c0.18149,-1.35435 -1.43394,-6.44326 -1.48701,-6.61768c-0.89612,-2.94526 -1.86486,-5.87208 -2.61282,-8.85841c0,0 -0.12231,-0.48925 -0.03733,-1.0832c-6.43858,4.43012 -14.43007,4.17395 -21.66995,6.82158c-2.73765,1.00117 -5.18227,2.67294 -7.8155,3.92323c-0.91006,0.43211 -6.60739,2.77487 -6.6503,2.80223c-1.43194,0.91303 -2.14712,3.11501 -3.82718,3.36295c-0.02475,0.00365 -0.04954,0.00713 -0.07438,0.01041c0,2.33474 0,4.79166 0,6.55647z" fill="#000000" stroke="none" stroke-width="0.5" stroke-linecap="butt"/><path d="M105.83965,273.80354c0,21.53911 -16.56547,39 -37,39c-20.43453,0 -37,-17.46089 -37,-39c0,-21.53911 16.56547,-39 37,-39c20.43453,0 37,17.46089 37,39z" fill="#7e7e7e" stroke="none" stroke-width="0" stroke-linecap="butt"/><path d="M62.58593,169.60586l58,-60.5l56,60z" fill="#000000" stroke="#000000" stroke-width="2" stroke-linecap="butt"/><path d="M183.04466,89.95716l3,39l-133,27l-10,-46l144,-21l4,162" fill="none" stroke="#000000" stroke-width="4" stroke-linecap="round"/><path d="M48.08681,153.48492l-5.14851,-41.52729l149.06421,-27.52825l5.14851,41.52729z" fill="#000000" stroke="#000000" stroke-width="4" stroke-linecap="butt"/><path d="M64.04466,167.95716v-58h31v58z" fill="#fff700" stroke="#000000" stroke-width="4" stroke-linecap="butt"/><path d="M108.04467,160.95716v-58h31v58z" fill="#fff700" stroke="#000000" stroke-width="4" stroke-linecap="butt"/><path d="M153.04467,155.95716v-58h31v58z" fill="#fff700" stroke="#000000" stroke-width="4" stroke-linecap="butt"/><path d="M192.04466,249.95716v-123h5v123z" fill="#000000" stroke="#000000" stroke-width="4" stroke-linecap="butt"/><path d="M87.04466,159.45716c0,4.14214 -3.35786,7.5 -7.5,7.5c-4.14214,0 -7.5,-3.35786 -7.5,-7.5c0,-4.14214 3.35786,-7.5 7.5,-7.5c4.14214,0 7.5,3.35786 7.5,7.5z" fill="#003c00" stroke="#000000" stroke-width="4" stroke-linecap="butt"/><path d="M132.04466,151.95716c0,3.86599 -3.35786,7 -7.5,7c-4.14214,0 -7.5,-3.13401 -7.5,-7c0,-3.86599 3.35786,-7 7.5,-7c4.14214,0 7.5,3.13401 7.5,7z" fill="#003c00" stroke="#000000" stroke-width="4" stroke-linecap="butt"/><path d="M177.04466,147.45716c0,4.14214 -2.91015,7.5 -6.5,7.5c-3.58985,0 -6.5,-3.35786 -6.5,-7.5c0,-4.14214 2.91015,-7.5 6.5,-7.5c3.58985,0 6.5,3.35786 6.5,7.5z" fill="#003c00" stroke="#000000" stroke-width="4" stroke-linecap="butt"/><path d="M86.71133,127.45716c0,4.14214 -2.91015,7.5 -6.5,7.5c-3.58985,0 -6.5,-3.35786 -6.5,-7.5c0,-4.14214 2.91015,-7.5 6.5,-7.5c3.58985,0 6.5,3.35786 6.5,7.5z" fill="#35ff00" stroke="#000000" stroke-width="4" stroke-linecap="butt"/><path d="M131.04466,121.79049c0,4.32623 -3.05939,7.83333 -6.83333,7.83333c-3.77395,0 -6.83333,-3.5071 -6.83333,-7.83333c0,-4.32623 3.05939,-7.83333 6.83333,-7.83333c3.77395,0 6.83333,3.5071 6.83333,7.83333z" fill="#35ff00" stroke="#000000" stroke-width="4" stroke-linecap="butt"/><path d="M177.378,115.79049c0,3.77395 -3.35786,6.83333 -7.5,6.83333c-4.14214,0 -7.5,-3.05939 -7.5,-6.83333c0,-3.77395 3.35786,-6.83333 7.5,-6.83333c4.14214,0 7.5,3.05939 7.5,6.83333z" fill="#35ff00" stroke="#000000" stroke-width="4" stroke-linecap="butt"/><path d="M86.378,143.95716c0,3.6819 -3.13401,6.66667 -7,6.66667c-3.86599,0 -7,-2.98477 -7,-6.66667c0,-3.6819 3.13401,-6.66667 7,-6.66667c3.86599,0 7,2.98477 7,6.66667z" fill="#003c00" stroke="#000000" stroke-width="4" stroke-linecap="butt"/><path d="M132.04466,137.95716c0,3.6819 -3.35786,6.66667 -7.5,6.66667c-4.14214,0 -7.5,-2.98477 -7.5,-6.66667c0,-3.6819 3.35786,-6.66667 7.5,-6.66667c4.14214,0 7.5,2.98477 7.5,6.66667z" fill="#003c00" stroke="#000000" stroke-width="4" stroke-linecap="butt"/><path d="M177.04466,131.29049c0,3.86599 -3.35786,7 -7.5,7c-4.14214,0 -7.5,-3.13401 -7.5,-7c0,-3.86599 3.35786,-7 7.5,-7c4.14214,0 7.5,3.13401 7.5,7z" fill="#003c00" stroke="#000000" stroke-width="4" stroke-linecap="butt"/><path d="" fill="#fcef36" stroke="none" stroke-width="0" stroke-linecap="butt"/><path d="" fill="#fcef36" stroke="none" stroke-width="0" stroke-linecap="butt"/><g><path d="M484.22922,196.82082l-5.00473,-11.99803l141.20757,-58.90181l5.00473,11.99803z" fill="#555555" stroke="#9e9e9e" stroke-width="2.5" stroke-linecap="butt"/><path d="M379.16262,290.75738l-8.58243,-9.76431l114.91846,-101.00865l8.58244,9.76432z" fill="#555555" stroke="#9e9e9e" stroke-width="2.5" stroke-linecap="butt"/><path d="M622.36393,377.78367l-217.35312,-84.2235l82.15688,-11.45779l274.07124,102.38885z" fill="#bca470" stroke="#9d895e" stroke-width="2.5" stroke-linecap="butt"/><path d="M626.72344,408.3393l-214.58365,-83.15936l-6.27381,-30.74365l201.86994,78.96368z" fill="#bca470" stroke="#9d895e" stroke-width="2.5" stroke-linecap="butt"/><path d="M633.49217,408.09109l-27.47866,-34.50199l209.66674,15.15235l27.47866,34.50199z" fill="#bca470" stroke="#9d895e" stroke-width="2.5" stroke-linecap="butt"/><path d="M697.9345,334.73562l-233.35312,-88.2235l97.15688,-3.45779l275.07123,98.38885z" fill="#bca470" stroke="#9d895e" stroke-width="2.5" stroke-linecap="butt"/><path d="M702.29402,365.29124l-227.58366,-81.15935l-10.27381,-37.74365l218.86994,83.96368z" fill="#bca470" stroke="#9d895e" stroke-width="2.5" stroke-linecap="butt"/><path d="M709.06274,365.04304l-27.47866,-34.50199l209.66674,15.15235l27.47866,34.50198z" fill="#bca470" stroke="#9d895e" stroke-width="2.5" stroke-linecap="butt"/><path d="M756.86897,291.68757l-232.35312,-90.2235l97.15688,-5.45779l274.07124,102.38885z" fill="#bca470" stroke="#9d895e" stroke-width="2.5" stroke-linecap="butt"/><path d="M761.22848,322.2432l-230.58365,-80.15935l-7.27381,-40.74365l218.86994,85.96368z" fill="#bca470" stroke="#9d895e" stroke-width="2.5" stroke-linecap="butt"/><path d="M767.99721,321.99499l-27.47866,-34.50199l209.66674,15.15235l27.47866,34.50198z" fill="#bca470" stroke="#9d895e" stroke-width="2.5" stroke-linecap="butt"/><path d="M621.51874,195.21507l35.85667,0.80596l56.84653,29.7663l-31.47176,32.22708z" fill="#bca470" stroke="#9d895e" stroke-width="2.5" stroke-linecap="butt"/><path d="M386.83064,282.8709l-1,32l-18,-1l1,-32z" fill="#555555" stroke="#9e9e9e" stroke-width="2.5" stroke-linecap="round"/><path d="M370.31229,286.99953l1.16373,-7.4515l15.61349,1.30579l-1.16374,7.4515z" fill="#555555" stroke="none" stroke-width="0" stroke-linecap="butt"/><path d="M484.00878,184.35012l4.03996,-4.43209l9.78353,7.71385l-4.03996,4.43209z" fill="#555555" stroke="none" stroke-width="0" stroke-linecap="butt"/><path d="M480.98608,196.99052c-1.76776,-1.76776 0,-3.53553 0,-3.53553l1.80366,-1.66763c3.80012,-2.08586 7.75037,-2.75883 11.06784,-5.69604c0,0 1.88145,-1.64626 3.52771,0.23518c1.64626,1.88144 -0.23518,3.5277 -0.23518,3.5277c-3.69107,3.1986 -7.82694,3.98933 -11.93215,6.30396l-0.69634,0.83237c0,0 -1.76777,1.76776 -3.53553,0z" fill="#555555" stroke="none" stroke-width="0.5" stroke-linecap="butt"/><path d="M497.25385,180.22275c0,2.5 -2.5,2.5 -2.5,2.5l-0.13196,-0.26393c-3.24599,1.62212 -6.09806,3.72074 -9.43956,5.08512c0,0 -2.32119,0.92847 -3.24967,-1.39272c-0.92847,-2.32119 1.39272,-3.24966 1.39272,-3.24966c3.18804,-1.24158 5.96676,-3.36724 9.06044,-4.91488l2.36804,-0.26393c0,0 2.5,0 2.5,2.5z" fill="#555555" stroke="none" stroke-width="0.5" stroke-linecap="butt"/><path d="M373.19888,291.16461c-2.39456,0.71837 -3.11294,-1.6762 -3.11294,-1.6762l-0.75,-2.5c-0.25263,-1.30329 -1.18549,-2.65307 -0.75789,-3.90987c1.15312,-3.38923 5.32672,-3.77138 7.93836,-5.24389c0,0 2.18539,-1.21411 3.3995,0.97128c1.21411,2.18539 -0.97129,3.3995 -0.97129,3.3995c-0.83074,0.45598 -1.61886,1.00012 -2.49222,1.36796c-0.72171,0.30397 -1.5098,0.41674 -2.26205,0.63441c-0.27098,0.07841 -0.79368,-0.02803 -0.80737,0.25374c-0.02132,0.43906 0.49474,0.72675 0.74211,1.09013l0.75,2.5c0,0 0.71837,2.39457 -1.6762,3.11294z" fill="#555555" stroke="none" stroke-width="0.5" stroke-linecap="butt"/><path d="M381.8527,292.11086c-2.34082,-0.87781 -1.46302,-3.21863 -1.46302,-3.21863l0.49439,-1.31835c1.28431,-3.40723 2.01532,-5.57345 2.35885,-9.05259c0,0 0.24875,-2.48759 2.73635,-2.23883c2.48759,0.24876 2.23883,2.73635 2.23883,2.73635c-0.39104,3.86617 -1.25968,6.57907 -2.65238,10.3107l-0.49439,1.31835c0,0 -0.8778,2.34083 -3.21863,1.46302z" fill="#555555" stroke="none" stroke-width="0.5" stroke-linecap="butt"/><path d="M620.57589,193.96207v-69.5h13.5v69.5z" fill="#555555" stroke="none" stroke-width="0" stroke-linecap="butt"/></g></g></g></svg>