<svg version="1.1" xmlns="http://www.w3.org/2000/svg" xmlns:xlink="http://www.w3.org/1999/xlink" width="82.71385" height="123.44466" viewBox="0,0,82.71385,123.44466"><defs><linearGradient x1="219.28023" y1="189.40236" x2="219.28023" y2="192.31392" gradientUnits="userSpaceOnUse" id="color-1"><stop offset="0" stop-color="#737373"/><stop offset="1" stop-color="#000000"/></linearGradient></defs><g transform="translate(-193.84688,-119.87442)"><g data-paper-data="{&quot;isPaintingLayer&quot;:true}" stroke-miterlimit="10" stroke-dasharray="" stroke-dashoffset="0" style="mix-blend-mode: normal"><g fill="none" fill-rule="nonzero" stroke="none" stroke-width="1" stroke-linecap="butt" stroke-linejoin="miter" font-family="sans-serif" font-weight="normal" font-size="12" text-anchor="start"><g><g data-paper-data="{&quot;index&quot;:null}"/></g><g data-paper-data="{&quot;index&quot;:null}"/><g data-paper-data="{&quot;index&quot;:null}"/></g><g fill="none" fill-rule="nonzero" stroke="none" stroke-width="1" stroke-linecap="butt" stroke-linejoin="miter" font-family="sans-serif" font-weight="normal" font-size="12" text-anchor="start"><g><g/><g><g/></g><g/></g><g/></g><path d="" fill="#2b1900" fill-rule="nonzero" stroke="#150c00" stroke-width="3" stroke-linecap="butt" stroke-linejoin="miter"/><path d="M230.29656,192.67727c0,2.5027 -3.04182,4.53153 -6.79411,4.53153c-1.99898,0 -5.57228,1.70962 -7.76975,0.4808c-1.92739,-1.0778 -2.63896,-5.06007 -2.42954,-5.73384c0.65328,-2.10169 7.29153,-3.03467 9.51697,-3.03467c3.75229,0 7.47643,1.25349 7.47643,3.75618z" fill="#ffffff" fill-rule="nonzero" stroke="#737373" stroke-width="1" stroke-linecap="butt" stroke-linejoin="miter"/><path d="M234.36889,204.85271l0.97525,-16.04212" fill="none" fill-rule="nonzero" stroke="#000000" stroke-width="6" stroke-linecap="round" stroke-linejoin="miter"/><path d="M216.79076,206.45322c0,0 3.89878,-6.10437 4.58055,-6.9978c1.23447,-1.61773 14.31859,-10.03321 14.31859,-10.03321c0,0 5.68584,7.08019 7.64725,9.13523c1.8512,1.93956 6.66911,2.86863 6.66911,2.86863" fill="none" fill-rule="nonzero" stroke="#000000" stroke-width="6" stroke-linecap="round" stroke-linejoin="miter"/><g><g><g stroke="#262626" stroke-width="1.2"><path d="M243.39642,203.54009l2.88983,26.27636c0,0 6.98259,0.4171 6.81653,7.59665c-0.00947,0.40931 -0.10852,2.41892 -2.99313,3.00706c-2.76287,0.56331 -8.27047,-0.27821 -10.28288,-0.59795c-0.93467,-0.14851 -2.35845,-0.79631 -3.26837,-1.90547c-0.91612,-1.11677 -0.81717,-2.74089 -0.81655,-3.65454c0.00025,-0.37213 -2.05584,-29.63214 -2.05584,-29.63214" fill="#ffffff" fill-rule="evenodd" stroke-linecap="round" stroke-linejoin="round"/><path d="M233.51348,210.55566c0.17018,-7.35787 5.45586,-7.48521 8.20979,-7.41859c1.19752,0.02897 1.03568,-1.93754 2.09544,3.81734c0.23339,1.26745 0.69205,6.47077 1.67285,10.89963c0.67162,3.03271 1.93138,5.71059 2.16674,6.47993c0.55608,1.81777 0.32733,3.47486 0.32733,3.47486l-1.00827,-1.20431c0,0 0.6644,0.83929 0.93047,1.34007c0.8289,1.56004 1.46296,2.73749 1.46296,2.73749c0,0 -7.04247,-0.46511 -9.78538,1.82984c-2.74291,2.29495 -1.38374,6.6145 -1.38374,6.6145c0,0 -5.21776,-0.81997 -5.6359,-3.76384c-0.10309,-0.72574 0.70618,-2.88543 0.70618,-2.88543c0,0 -0.59661,0.12216 -0.61594,-0.38035c-0.00986,-0.25616 0.78957,-4.05623 0.96719,-8.33109c0.23382,-5.62754 -0.13426,-12.1499 -0.10974,-13.21005z" fill="#000000" fill-rule="nonzero" stroke-linecap="butt" stroke-linejoin="miter"/></g><path d="M224.5609,205.33215c-0.00974,-0.21598 1.18512,0.4208 3.89261,0.49439c3.57187,0.0971 9.04209,-0.33729 10.58028,-0.55955c3.98878,-0.57634 4.66378,-2.11038 4.68961,-1.53784c0.09556,2.11872 -2.16062,6.04332 -6.72376,6.25859c-2.00528,0.0946 -6.10681,0.80409 -8.42943,0.05816c-2.96262,-0.95148 -3.95572,-3.52614 -4.0093,-4.71377z" fill="#004fd9" fill-rule="nonzero" stroke="#001026" stroke-width="1.2" stroke-linecap="butt" stroke-linejoin="miter"/><g fill-rule="nonzero" stroke-linecap="butt" stroke-linejoin="miter"><g fill="none" stroke="none" stroke-width="1" font-family="sans-serif" font-weight="normal" font-size="12" text-anchor="start"/><path d="M224.07958,203.95418c0,0 8.57098,1.33376 12.5096,1.31516c3.93861,-0.01859 7.1835,-1.40815 7.1835,-1.40815c0,0 0.031,2.07391 -1.72548,4.09233c-1.35963,1.56238 -3.97267,3.1809 -7.35009,3.21523c-3.07692,0.03128 -6.50968,-0.62978 -8.20888,-1.98628c-2.57548,-2.05606 -2.40864,-5.22831 -2.40864,-5.22831z" fill="#000000" stroke="#262626" stroke-width="1.2"/></g><g stroke-width="1.2"><path d="M233.54811,209.2107c0,0 -3.34528,30.56729 -3.95573,30.66819c-1.75183,0.28953 -11.35196,-2.30308 -11.35196,-2.30308l6.17094,-30.73259" data-paper-data="{&quot;index&quot;:null}" fill="#ffab19" fill-rule="evenodd" stroke="#001026" stroke-linecap="round" stroke-linejoin="round"/><path d="M235.02656,208.71787c0,0 -0.78147,6.46384 -1.01229,9.89111c-0.22138,3.28727 -0.3455,10.27008 -0.3455,10.27008c0,0 0.93843,5.07389 0.02095,6.32511c-0.42494,0.57952 -0.75979,-2.86462 -0.75979,-2.86462c0,0 0.3738,3.88276 0.41061,4.22499c0.2568,2.38782 -0.91518,5.52348 -3.98631,5.82139c-3.37191,0.32707 -8.96203,0.69649 -11.84378,-1.19265c-1.22614,-0.8038 -2.88701,-3.16992 -2.44,-5.69046c0.50411,-2.84252 3.21129,-5.82039 3.21129,-5.82039l-2.48757,3.24602c0,0 -0.02593,-1.62079 0.37883,-2.80973c0.45455,-1.33517 2.21648,-4.8136 2.21648,-4.8136l5.34118,-19.57598" data-paper-data="{&quot;index&quot;:null}" fill="#000000" fill-rule="evenodd" stroke="#262626" stroke-linecap="round" stroke-linejoin="round"/><path d="M231.90314,237.97312c-0.08452,1.71634 -0.774,3.71047 -2.27053,4.74596c-1.50208,1.03932 -10.52962,0.62745 -11.92522,-0.64275c-1.32536,-1.20627 -1.86525,-3.4358 -1.78275,-5.11092c0.16936,-3.43903 3.88355,-6.00135 8.29591,-5.72308c4.41233,0.27827 7.85196,3.29175 7.68258,6.7308z" fill="#ffffff" fill-rule="nonzero" stroke="#262626" stroke-linecap="butt" stroke-linejoin="miter"/></g></g><g fill="none" fill-rule="nonzero" stroke="none" stroke-width="1" stroke-linecap="butt" stroke-linejoin="miter" font-family="sans-serif" font-weight="normal" font-size="12" text-anchor="start"/></g><path d="M225.11723,203.83214c0,0 3.45565,-5.9968 3.02069,-7.83613c-0.10639,-0.44988 -2.99502,7.05965 -3.46547,6.63c-2.24345,-2.04885 -7.71433,-3.72995 -7.71433,-3.72995c0,0 5.25961,-6.51569 8.93143,-9.34236c1.01383,-0.78048 3.54388,-0.16344 3.82661,-0.40173c0.36514,-0.30776 9.21566,0.27728 9.55399,0.46133c4.04714,2.20166 7.47953,7.27282 7.47953,7.27282c0,0 -2.33083,2.74275 -2.37176,5.93626c-0.00029,0.02269 -2.17849,-5.08627 -2.18304,-4.73052c-0.02732,2.13126 0.61698,5.73948 0.61698,5.73948c0,0 -5.32899,1.19664 -7.98134,1.24445c-2.92395,0.0527 -9.71329,-1.24363 -9.71329,-1.24363z" fill="#ffffff" fill-rule="nonzero" stroke="#737373" stroke-width="2.5" stroke-linecap="butt" stroke-linejoin="miter"/><path d="M222.10681,192.22964c0,0 -5.79461,0.54134 -7.13395,0.52177c-0.58498,-0.00854 -1.00847,-0.42849 -0.97273,-0.90567c0.03807,-0.50818 0.55576,-1.07527 0.55576,-1.07527" fill="none" fill-rule="nonzero" stroke="#737373" stroke-width="1" stroke-linecap="round" stroke-linejoin="miter"/><path d="M216.55534,190.96393l0.12917,-0.08885c0.08689,-0.03636 0.1738,-0.07272 0.26069,-0.10908c1.14358,-0.18658 6.4952,-1.88845 4.75168,0.49611c-0.97944,0.21025 -5.60648,0.89376 -5.44409,-0.12899c0,0 0.07138,-0.23725 0.30256,-0.1692z" fill="#000000" fill-rule="nonzero" stroke="none" stroke-width="0.5" stroke-linecap="butt" stroke-linejoin="miter"/><path d="M224.08106,189.43994c0,0 -2.07289,2.01048 -2.52231,2.38243c-0.24358,0.20158 -3.30698,0.30715 -3.73031,0.33547c-1.86939,0.12505 -3.34897,0.31757 -3.34897,-0.09273c0,-0.13931 -0.01491,-0.77876 0.44885,-1.0356c1.21138,-0.67089 4.05477,-1.31674 5.8118,-1.48806c2.40541,-0.23455 3.34093,-0.10149 3.34093,-0.10149z" fill="url(#color-1)" fill-rule="nonzero" stroke="#737373" stroke-width="0" stroke-linecap="butt" stroke-linejoin="miter"/><g stroke-linejoin="miter"><g stroke-linecap="butt"><path d="M262.17086,166.55726c-1.24713,13.53598 -13.47557,23.39823 -27.31298,22.02796c-13.83741,-1.37027 -24.04385,-13.45417 -22.79671,-26.99015c1.24713,-13.53598 13.47557,-23.39824 27.31298,-22.02797c13.83741,1.37027 24.04385,13.45417 22.79672,26.99016z" fill="none" fill-rule="nonzero" stroke="#000000" stroke-width="4.5"/><g><g fill-rule="nonzero"><path d="M223.72416,146.77047l0.01052,0.00926" data-paper-data="{&quot;index&quot;:null}" fill="#ffab19" stroke="#000000" stroke-width="5"/><g data-paper-data="{&quot;index&quot;:null}" fill="none" stroke="none" stroke-width="1" font-family="sans-serif" font-weight="normal" font-size="12" text-anchor="start"/></g><path d="M223.72416,146.77047l0.01052,0.00926" data-paper-data="{&quot;index&quot;:null}" fill="#ffab19" fill-rule="nonzero" stroke="#000000" stroke-width="5"/><path d="M236.716,165.27847" fill="#001026" fill-rule="evenodd" stroke="#000000" stroke-width="5"/><g data-paper-data="{&quot;index&quot;:null}" fill="none" fill-rule="nonzero" stroke="none" stroke-width="1" font-family="sans-serif" font-weight="normal" font-size="12" text-anchor="start"/><g data-paper-data="{&quot;index&quot;:null}" fill="none" fill-rule="nonzero" stroke="none" stroke-width="1" font-family="sans-serif" font-weight="normal" font-size="12" text-anchor="start"/></g></g><path d="M236.02414,182.08978c0,0 -11.53429,-2.12681 -14.05054,-3.64894c-2.09901,-1.26974 -2.61077,-5.07874 -2.61077,-5.07874" fill="none" fill-rule="nonzero" stroke="#000000" stroke-width="3" stroke-linecap="round"/><path d="M218.00402,162.80986l22.82237,1.86112l-0.2186,4.78907" fill="none" fill-rule="nonzero" stroke="#000000" stroke-width="4.5" stroke-linecap="round"/><path d="M247.88796,170.1299l0.03909,-5.4193l20.01803,-5.31631" fill="none" fill-rule="nonzero" stroke="#000000" stroke-width="4.5" stroke-linecap="round"/><path d="M209.19342,149.38129l-3.68716,-5.04204l-1.9306,-6.06685l9.61288,4.21956l1.814,-0.25178l-0.6917,-3.46192l-2.46805,-2.52112l6.97821,3.11002l-2.96357,-4.62181l-1.07073,-7.18673l5.27709,5.42882l3.74087,1.56345l-1.90222,-5.14428l5.61151,4.4559l-0.48344,-5.22638l0.92208,-4.03301l5.31875,5.07592l2.53357,1.21036l1.56207,2.38653l1.47936,-7.4947l2.2101,6.72227l2.36755,-7.9651l3.11407,7.37782l2.7361,-4.28479l0.32937,7.71141l4.06232,-3.42752l1.16597,-4.58752l2.20808,7.24324l-1.18378,3.98254l6.27876,-3.5616l3.22557,-0.62125l-5.35297,3.78021l1.79418,-0.33579l-2.17308,4.55374l6.09636,-3.27595l-5.09931,5.91447l9.69849,-2.30067l-6.40975,6.18312l4.881,-1.54524l-5.37679,4.73808l2.57521,0.85747l-9.97181,-0.41167l-38.12764,5.94195l-10.30401,4.32047l3.89231,-4.23391l-7.53348,-0.16928l5.06742,-2.87279l-9.39486,-3.29526l6.93484,-1.30964l2.64473,-1.4952l2.24614,0.52135" fill="#ffffff" fill-rule="nonzero" stroke="#e2e2e2" stroke-width="3" stroke-linecap="round"/></g><g data-paper-data="{&quot;index&quot;:null}" fill-rule="nonzero" stroke="none" stroke-width="1" stroke-linecap="butt" stroke-linejoin="miter"><path d="M252.76193,190.90715c-0.20584,-0.1146 -0.19472,-0.24659 -0.14366,-0.40004c0.1073,-0.23766 0.27832,-0.45557 0.40697,-0.68663c-0.03572,-0.06186 -0.07141,-0.12372 -0.11646,-0.17152c-0.88784,-1.05386 -1.01165,-2.17582 -0.85721,-3.33008c0.03409,-0.24338 0.04696,-0.4934 0.1968,-0.71787c0.02814,-0.04207 0.0443,-0.10479 0.02044,-0.14605c-0.13097,-0.22681 -0.00923,-0.40922 0.10062,-0.61223c0.09107,-0.17495 0.22471,-0.33674 0.33708,-0.50507c0.06553,-0.0982 0.17363,-0.18325 0.34805,-0.21388c0.17442,-0.03061 0.31315,-0.12309 0.44244,-0.20155c0.66975,-0.50363 1.46024,-0.91905 2.35025,-1.25285c0.50627,-0.18178 1.03888,-0.28768 1.59275,-0.38697c1.63101,-0.2905 3.26617,-0.2411 4.88848,0.05828c0.72736,0.1407 1.42916,0.35808 2.0935,0.63159c0.50356,0.20679 0.8991,0.49866 1.26395,0.79792c1.16097,0.95228 1.73059,2.05991 1.85007,3.26517c0.0271,0.22854 -0.02822,0.46532 -0.08361,0.70211c-0.02981,0.16007 -0.02902,0.3127 0.12744,0.46276c0.14453,0.12945 0.14535,0.28207 0.09427,0.43554c-0.1073,0.23766 -0.25711,0.46213 -0.40695,0.68663c-0.04682,0.07016 -0.1268,0.11312 -0.20682,0.15604c-0.32246,0.13714 -0.52673,0.32782 -0.6978,0.54575c-0.33962,0.47047 -0.87322,0.84695 -1.38552,1.23002c-0.19746,0.14201 -0.41612,0.27743 -0.66798,0.38566c-0.80493,0.36015 -1.61246,0.68568 -2.55514,0.86771c-0.14045,0.21045 -0.31156,0.42835 -0.46131,0.65286c-0.05618,0.0842 -0.12173,0.18239 -0.2868,0.19897c-0.14376,0.02316 -0.17872,0.11396 -0.23488,0.19814c-0.39579,0.55463 -0.77034,1.11583 -1.16614,1.67047c-0.85466,1.24212 -1.7186,2.49826 -2.61574,3.7272c-0.87844,1.20088 -1.69301,2.42153 -2.52893,3.63558c-0.13109,0.19644 -0.29537,0.36564 -0.42641,0.56206c-0.63669,0.95407 -1.27347,1.90814 -1.93139,2.85561c-0.11236,0.16835 -0.18219,0.34988 -0.4128,0.46469c-0.08001,0.04298 -0.10556,0.11967 -0.15239,0.18983c-0.46816,0.70154 -0.96697,1.41049 -1.43515,2.11203c-0.01872,0.02804 -0.04685,0.07013 -0.06553,0.0982c-0.12852,0.2311 -0.35232,0.2972 -0.71561,0.30318c-1.21488,0.01306 -2.3131,-0.22556 -3.29476,-0.71588c-0.24837,-0.12775 -0.47801,-0.28351 -0.6677,-0.46079c-0.14454,-0.12946 -0.15474,-0.26804 -0.08239,-0.4149c0.21713,-0.44069 0.41296,-0.88794 0.63942,-1.34265c0.16348,-0.32186 0.37883,-0.64456 0.47848,-0.98616c0.21552,-0.74592 0.69559,-1.42683 0.97486,-2.15299c0.16771,-0.40516 0.28358,-0.80951 0.47259,-1.20812c0.20774,-0.42662 0.36361,-0.85243 0.54067,-1.27162c0.3287,-0.76167 0.70927,-1.52418 1.01666,-2.29244c0.37217,-1.01907 0.82936,-2.01186 1.28658,-3.00458c0.15158,-0.34249 0.30309,-0.6849 0.45466,-1.02738c0.25198,-0.53149 0.51339,-1.07691 0.76541,-1.60834c0.14473,-0.29381 0.23758,-0.58674 0.3823,-0.88051c0.13285,-0.31444 0.31075,-0.58099 0.4742,-0.90284zM253.42466,190.87542c0.19901,0.16325 0.41675,0.29842 0.68381,0.39811c0.46867,0.29756 1.02413,0.50349 1.57963,0.70943c0.69499,0.26608 1.44865,0.48264 2.18112,0.6926c0.83878,0.2429 1.70736,0.32573 2.60663,0.40116c0.10383,-0.00171 0.20759,-0.00343 0.36326,-0.00599c0.07492,-0.11222 0.14978,-0.22448 0.2247,-0.33671c0.01872,-0.02804 0.01619,-0.06271 0.02303,-0.11137c-0.14886,-0.04612 -0.30709,-0.0782 -0.47471,-0.09627c-0.28331,-0.03695 -0.52657,-0.09543 -0.80983,-0.1324c-0.69416,-0.11346 -1.32542,-0.35976 -1.99149,-0.51531c-0.34964,-0.09136 -0.71795,-0.15472 -1.04886,-0.27414c-0.71627,-0.27267 -1.47931,-0.4752 -2.15807,-0.80398c-0.17267,-0.08737 -0.36662,-0.18127 -0.53929,-0.26865c-0.02886,-0.11055 -0.21777,-0.13516 -0.30536,-0.19619c-0.09949,-0.08162 -0.19904,-0.16326 -0.4423,-0.22167c0.0271,0.22854 -0.15838,0.39115 -0.18572,0.58584c0.09698,0.047 0.12586,0.1575 0.29347,0.17557zM253.95693,191.61596c-0.40484,-0.27781 -0.52308,-0.33134 -0.81829,-0.38896c-0.09107,0.17495 -0.17279,0.3359 -0.26393,0.51084c-0.06553,0.0982 -0.02733,0.19471 0.07222,0.27635c0.06637,0.05444 0.17269,0.08734 0.23901,0.14177c0.25344,0.19706 0.58692,0.35114 0.93653,0.44251c0.1021,0.11625 0.27214,0.16898 0.44232,0.22168c0.94763,0.31049 1.86468,0.62841 2.85913,0.86878c0.44407,0.10371 0.89752,0.19341 1.33901,0.26242c0.3565,0.04271 0.73419,0.09199 1.10176,0.00267c0.12172,-0.18241 0.2434,-0.36479 0.36515,-0.5472c-0.18881,-0.02466 -0.35649,-0.04272 -0.50275,-0.05418c-0.67037,-0.07225 -1.322,-0.17252 -1.93623,-0.32892c-0.79367,-0.19508 -1.54057,-0.46034 -2.2968,-0.71151c-0.36156,-0.112 -0.64565,-0.30157 -1.01651,-0.39956c-0.12586,-0.1575 -0.32916,-0.23741 -0.52053,-0.29671zM246.1725,208.04868c0.24155,0.17642 0.52988,0.2827 0.83698,0.36088c0.01189,0.0206 0.04509,0.04783 0.06638,0.05443c0.51977,0.14409 1.05826,0.26012 1.61041,0.27877c0.32334,0.01552 0.63722,0.04504 0.95286,-0.04343c0.52436,-0.78573 1.04864,-1.57141 1.60118,-2.39921c-0.61338,-0.0038 -1.17069,-0.09172 -1.71846,-0.19373c-0.48409,-0.08223 -0.8813,-0.25609 -1.34664,-0.36637c-0.17012,-0.0527 -0.30967,-0.11283 -0.47981,-0.16553c-0.20834,-0.14921 -0.45677,-0.27695 -0.76636,-0.38981c-0.28092,0.42092 -0.37294,0.86648 -0.59258,1.27251c-0.20774,0.42665 -0.39421,0.8599 -0.59256,1.27249c0.12585,0.15747 0.27724,0.2383 0.42869,0.31904zM247.52287,205.06389c0.10214,0.11625 0.26283,0.18301 0.43294,0.23569c0.13268,0.10884 0.33346,0.15413 0.51549,0.22742c0.58615,0.1985 1.21906,0.32682 1.8494,0.42053c0.3777,0.04928 0.77418,0.07049 1.16552,0.02242c0.03749,-0.05613 0.09617,-0.10565 0.13358,-0.16179c0.45887,-0.68751 0.90827,-1.36095 1.38833,-2.04186c0.50814,-0.72298 1.00696,-1.43196 1.51513,-2.15495c0.73288,-1.05975 1.47771,-2.09882 2.21057,-3.15855c0.83844,-1.17941 1.60365,-2.36456 2.48466,-3.53077c0.15238,-0.18982 0.2715,-0.40688 0.41199,-0.61735c-0.27136,-0.01633 -0.5402,0.00199 -0.79287,-0.04244c-0.82861,-0.1043 -1.62229,-0.29938 -2.39727,-0.52253c-0.6805,-0.21082 -1.35168,-0.43566 -2.02288,-0.66055c-0.25776,-0.11372 -0.50357,-0.20681 -0.76131,-0.32051c-0.11393,-0.13688 -0.32406,-0.16811 -0.4755,-0.24888c-0.17267,-0.08737 -0.30534,-0.19618 -0.52739,-0.24804c-0.13616,0.12713 -0.16854,0.25255 -0.21281,0.35734c-0.31853,0.90027 -0.81654,1.76186 -1.19883,2.64236c-0.24945,0.5661 -0.49899,1.1322 -0.72714,1.70489c-0.3287,0.76167 -0.62672,1.51589 -0.94601,2.26352c-0.25627,0.61476 -0.5126,1.22955 -0.79018,1.83773c-0.2844,0.65688 -0.5807,1.2931 -0.88636,1.94339c-0.2682,0.59416 -0.54573,1.20234 -0.80202,1.81712c0.182,0.07329 0.25346,0.19702 0.43294,0.23571zM267.17292,188.46359c-0.55212,-0.01866 -1.03621,-0.10092 -1.5296,-0.16908c-0.5147,-0.07478 -1.01746,-0.12892 -1.52277,-0.21777c-0.48409,-0.08225 -0.97071,-0.19914 -1.44536,-0.2954c-0.49598,-0.10287 -0.99193,-0.20569 -1.49977,-0.32914c-0.4653,-0.11029 -0.94255,-0.2412 -1.4079,-0.35152c-0.47721,-0.13092 -0.91701,-0.31795 -1.43172,-0.39273c-0.39039,-0.2225 -0.89573,-0.31133 -1.33302,-0.4637c-0.44909,-0.173 -0.93831,-0.32453 -1.38743,-0.49752c-0.42784,-0.16641 -0.86763,-0.35345 -1.28614,-0.53388c-0.43978,-0.18705 -0.82081,-0.42361 -1.28866,-0.56852c-0.26728,0.32355 -0.33282,0.42174 -0.33121,0.72701c0.20834,0.14921 0.41676,0.29843 0.68638,0.43273c0.33344,0.15409 0.66684,0.30819 1.01221,0.4829c0.65754,0.32222 1.30315,0.62379 2.04751,0.85438c0.51039,0.15813 1.03023,0.30218 1.50315,0.51646c0.09698,0.047 0.22456,0.0865 0.37085,0.09796c0.28331,0.03694 0.5504,0.13665 0.80561,0.21569c0.93574,0.28989 1.92764,0.49559 2.90771,0.68064c1.28715,0.2633 2.59724,0.41518 3.93545,0.52493c0.26202,0.03036 0.52406,0.06076 0.7784,-0.01284c0.18302,-0.19728 0.30218,-0.41434 0.41629,-0.70063zM259.69544,184.13241c-0.29185,0.1297 -0.49866,0.28573 -0.72669,0.4352c-0.20934,0.12138 -0.34295,0.28317 -0.37025,0.47789c-0.08776,0.36223 -0.24868,0.71873 -0.49468,1.04887c-0.01872,0.02804 -0.02556,0.07674 -0.03494,0.09075c0.07825,0.07501 0.16331,0.10134 0.29775,0.09223c0.03062,-0.00742 0.07061,-0.02892 0.07999,-0.04296c0.33535,-0.38712 0.71322,-0.76104 1.13364,-1.12183c0.05876,-0.04952 0.13618,-0.12712 0.13108,-0.19644c0.06478,-0.25085 0.12946,-0.50167 -0.01589,-0.78375zM257.00556,185.85568c0.31658,-0.35904 0.6664,-0.69088 1.0281,-1.00213c0.1174,-0.09907 0.16171,-0.20387 0.1728,-0.3359c0.00602,-0.20129 -0.04923,-0.38772 -0.09506,-0.58819c-0.00507,-0.06929 -0.00077,-0.1526 -0.14712,-0.16409c-0.26553,0.20558 -0.54296,0.39056 -0.76593,0.60929c-0.03172,0.70128 -0.03173,0.70125 -0.45992,1.3813c0.03568,0.06185 0.11145,0.10223 0.26711,0.09968zM261.31013,188.86534c-0.25363,0.2262 -0.48598,0.45901 -0.71833,0.69179c-0.05873,0.04952 -0.11744,0.09908 -0.1336,0.16177c-0.00098,0.27059 -0.02313,0.53463 0.1103,0.79608c0.36757,-0.08931 0.57179,-0.28 0.83052,-0.4369c0.12934,-0.07842 0.16426,-0.16923 0.16598,-0.28719c-0.02032,-0.27717 0.00191,-0.54123 0.05477,-0.81263c0.00936,-0.01403 -0.02376,-0.04123 -0.04758,-0.08244c-0.07316,-0.00574 -0.16766,-0.01808 -0.26204,-0.03037zM263.97677,185.40788c-0.4263,0.13885 -0.69438,0.30976 -0.98365,0.47411c-0.09872,0.071 -0.12427,0.14774 -0.1498,0.22447c-0.09709,0.37627 -0.25812,0.73276 -0.51343,1.07695c-0.0281,0.04208 -0.03495,0.09074 -0.06298,0.13284c0.22458,0.08651 0.27648,0.08565 0.35135,-0.02659c0.24345,-0.36482 0.58389,-0.68262 1.01189,-0.93943c0.2587,-0.1569 0.34981,-0.33185 0.36519,-0.5472c-0.01949,-0.12459 -0.0271,-0.22854 -0.01855,-0.39519zM259.50565,186.6471c0.10634,0.03293 0.16506,-0.01665 0.20253,-0.07276c0.26218,-0.39284 0.68511,-0.71896 1.10809,-1.0451c0.33359,-0.26912 0.46387,-0.61819 0.35089,-1.02566c-0.23312,0.08017 -0.34802,0.21388 -0.53865,0.30721c-0.39058,0.20069 -0.56847,0.46728 -0.6707,0.77424c-0.12092,0.33501 -0.22062,0.67664 -0.4691,0.97214c-0.00676,0.04867 0.00507,0.06933 0.01698,0.08993zM262.47885,184.96077c-0.23997,0.12882 -0.42123,0.20813 -0.58116,0.29404c-0.27058,0.13631 -0.40422,0.29807 -0.45026,0.52082c-0.05029,0.3061 -0.19503,0.5999 -0.361,0.88707c-0.04431,0.10482 -0.11918,0.21704 -0.18473,0.31523c0.09698,0.047 0.1463,0.01148 0.16505,-0.0166c0.37786,-0.37397 0.77698,-0.74129 1.25188,-1.06825c0.06807,-0.06357 0.12678,-0.1131 0.15235,-0.18983c0.02478,-0.22937 0.07077,-0.45214 0.00793,-0.74252zM262.74356,189.14008c-0.09284,0.29294 -0.32521,0.52569 -0.53629,0.76509c-0.04682,0.07015 -0.14806,0.10651 -0.15235,0.18983c-0.01111,0.13205 0.09428,0.43556 0.24393,0.63432c0.24253,-0.09419 0.39739,-0.24939 0.5855,-0.37737c0.14806,-0.10651 0.20171,-0.22533 0.17029,-0.37052c-0.03901,-0.24912 -0.03553,-0.4851 0.05048,-0.72936c0.00939,-0.01404 -0.01446,-0.05527 -0.02636,-0.07587c-0.07573,-0.04039 -0.16076,-0.06674 -0.33522,-0.0361zM254.85242,187.81297c-0.00347,0.23593 -0.18396,0.46789 -0.1143,0.70958c0.15822,0.03209 0.26886,-0.01828 0.39139,-0.04807c0.22379,-0.06614 0.45007,-0.0976 0.65939,-0.21899c0.04098,-0.29207 0.27073,-0.55951 0.3423,-0.85903c-0.07825,-0.07501 -0.18458,-0.10797 -0.30967,-0.11283c-0.28678,0.199 -0.60674,0.37077 -0.96923,0.52939zM258.69518,188.20765c-0.13616,0.12713 -0.27232,0.25423 -0.44421,0.31951c-0.41435,0.15945 -0.55227,0.40458 -0.54132,0.69578c0.00758,0.10394 -0.0486,0.18811 0.02283,0.31186c0.30633,-0.07443 0.5582,-0.18263 0.81001,-0.2909c0.07062,-0.0289 0.10807,-0.08504 0.1336,-0.16177c0.05538,-0.23682 0.12265,-0.45301 0.17804,-0.6898c0.02814,-0.04207 0.02301,-0.11141 -0.15904,-0.18472zM257.35535,187.79263c-0.29105,0.28233 -0.60595,0.52337 -1.03224,0.66223c-0.09189,0.02232 -0.10805,0.08504 -0.1455,0.14115c-0.063,0.13287 -0.10475,0.27234 -0.06141,0.43812c0.42885,-0.1042 0.75136,-0.24136 1.08318,-0.3925c0.11063,-0.05039 0.17872,-0.11392 0.21361,-0.20472c0.0605,-0.1675 0.14218,-0.32845 0.20266,-0.49594c0.00939,-0.01404 -0.01445,-0.0553 -0.02633,-0.07588c-0.06381,-0.01977 -0.12761,-0.03954 -0.23394,-0.07245zM265.13426,186.59609c0.00853,-0.16665 0.02652,-0.34736 0.03512,-0.51403c-0.01189,-0.0206 -0.02381,-0.04126 -0.04762,-0.08247c-0.31822,0.05379 -0.55819,0.18265 -0.74626,0.31061c-0.1414,0.48106 -0.26407,0.93406 -0.58246,1.41109c0.44757,-0.13224 0.44847,-0.40285 0.63399,-0.56547c0.21363,-0.20471 0.46035,-0.38223 0.70716,-0.55976zM259.6224,183.70341c-0.10031,-0.23425 -0.15812,-0.45531 -0.39028,-0.64576c-0.15061,0.07183 -0.30377,0.10907 -0.42372,0.17352c-0.11996,0.06443 -0.26123,0.12222 -0.32675,0.22047c-0.02043,0.14602 0.07224,0.27634 0.11301,0.40747c0.04083,0.13113 0.02968,0.26318 0.15299,0.38602c0.29868,-0.1784 0.56674,-0.3493 0.8748,-0.5417zM255.62575,185.46209c0.36596,-0.39455 0.66382,-0.72557 0.96172,-1.05653c0.01872,-0.02804 0.06813,-0.06356 0.0443,-0.10479c-0.04589,-0.20044 -0.03049,-0.41579 -0.2414,-0.59963c-0.21616,0.17006 -0.42295,0.32613 -0.60849,0.48878c0.0611,0.40837 -0.02409,0.80518 -0.15614,1.27226zM259.12671,189.98368c0.25696,-0.03892 0.3931,-0.16605 0.55308,-0.25193c0.19062,-0.09333 0.31741,-0.20643 0.3353,-0.3871c0.03413,-0.24338 0.06824,-0.48681 0.26059,-0.69813c-0.13016,-0.07419 -0.22456,-0.0865 -0.28076,-0.00231c-0.16168,0.20387 -0.33282,0.42176 -0.58212,0.56463c-0.34803,0.21388 -0.31841,0.47707 -0.28614,0.77487zM257.22734,189.02278c-0.43564,0.15286 -0.79129,0.26281 -1.12566,0.37929c-0.06553,0.0982 -0.03923,0.1741 -0.03413,0.24337c0.02635,0.07588 0.01271,0.1732 0.14282,0.2474c0.30891,-0.03978 0.61512,-0.11418 0.90953,-0.2092c0.05791,-0.20215 0.08521,-0.39687 0.10743,-0.6609zM260.10738,190.74458c-0.05095,-0.26973 -0.09938,-0.50485 -0.13839,-0.75397c-0.27058,0.1363 -0.53184,0.25855 -0.79307,0.38078c0.0271,0.22854 0.02111,0.42981 0.19205,0.63512c0.27565,-0.06697 0.4969,-0.16776 0.73943,-0.26194zM260.94285,183.57065c-0.31137,0.00511 -0.4969,0.16776 -0.71816,0.26853c-0.07062,0.0289 -0.09619,0.10564 -0.08172,0.16092c0.03394,0.17984 0.05601,0.33904 0.09929,0.50485c-0.00936,0.01403 0.03321,0.02721 0.07572,0.04039c0.28,-0.15028 0.54795,-0.32126 0.82797,-0.47156c-0.01269,-0.17322 -0.1079,-0.33817 -0.20315,-0.50312zM263.90639,185.0136c0.0179,-0.18068 0.02649,-0.34733 -0.14186,-0.51802c-0.25439,0.07359 -0.55135,0.13398 -0.77006,0.26939c-0.00177,0.11798 -0.046,0.22278 -0.01713,0.33329c0.00758,0.10393 -0.08858,0.20959 0.07476,0.31097c0.29187,-0.12968 0.58369,-0.25938 0.85434,-0.39567zM260.74954,190.85888c0.00081,0.15262 0.14537,0.28207 0.28059,0.42553c0.28251,-0.11563 0.57945,-0.17607 0.79563,-0.34611c-0.09524,-0.16497 -0.09857,-0.35221 -0.2576,-0.53693c-0.28,0.15028 -0.5387,0.30719 -0.81862,0.45752zM264.21189,189.32408c-0.18981,0.24596 -0.3039,0.53232 -0.53628,0.76511c-0.183,0.19729 -0.10897,0.35562 0.07129,0.54693c0.25184,-0.10822 0.39739,-0.24938 0.57353,-0.39798c-0.12667,-0.3101 -0.05511,-0.60966 -0.10859,-0.91405zM254.56594,184.89675c0.09444,0.01233 0.1225,-0.02977 0.15061,-0.07185c0.14298,-0.17579 0.2741,-0.37223 0.43836,-0.54145c0.26296,-0.24025 0.14394,-0.44642 -0.02954,-0.6864c-0.10813,0.08507 -0.19738,0.14202 -0.26549,0.20559c-0.17614,0.14861 -0.3004,0.29634 -0.21204,0.50997c0.04082,0.13114 -0.00097,0.27063 -0.0333,0.39605c-0.05873,0.04952 -0.14805,0.1065 -0.04858,0.18811zM253.64948,187.84667c0.14376,-0.02316 0.24504,-0.05953 0.33691,-0.08186c0.28757,-0.04636 0.43567,-0.15287 0.50548,-0.3344c0.05112,-0.15346 0.17542,-0.30124 0.24776,-0.44812c0.02811,-0.04209 0.07744,-0.07758 -0.06208,-0.13777c-0.23746,0.16347 -0.51741,0.31382 -0.83053,0.4369c-0.07062,0.0289 -0.1174,0.09905 -0.15488,0.15517c-0.03236,0.1254 -0.05543,0.23682 -0.04267,0.41005zM258.61103,190.17945c0.00858,-0.16665 0.04775,-0.34072 -0.01685,-0.51316c-0.31565,0.08848 -0.63387,0.14226 -0.90445,0.27853c0.03398,0.17984 0.0041,0.33989 0.18187,0.49656c0.25444,-0.07359 0.52075,-0.12651 0.73942,-0.26197zM261.68587,184.9183c0.31565,-0.08848 0.5556,-0.21732 0.753,-0.35932c-0.03397,-0.17984 -0.05606,-0.33903 -0.16317,-0.52463c-0.22634,0.03149 -0.40759,0.1108 -0.57689,0.21071c0.00587,0.22191 -0.00951,0.43727 -0.01304,0.67321zM256.2876,190.23852c0.06205,0.13776 0.07902,0.22766 0.14794,0.3167c0.03572,0.06186 0.08076,0.10968 0.12587,0.15753c0.25946,-0.00425 0.51644,-0.04319 0.73769,-0.14397c-0.01269,-0.17322 -0.02543,-0.34645 -0.17257,-0.51057c-0.27565,0.06697 -0.53262,0.10591 -0.83891,0.18031zM253.79543,186.43583c-0.34631,0.09591 -0.5913,0.15542 -0.87637,0.23644c-0.05876,0.04952 -0.10301,0.15429 -0.0954,0.25827c-0.01363,0.09733 -0.12173,0.18239 -0.04093,0.29208c0.21951,0.01719 0.39391,-0.01342 0.56581,-0.07869c0.12856,-0.23109 0.26905,-0.44154 0.44695,-0.70811zM259.67719,182.89072c0.05955,0.10312 0.11906,0.20622 0.17851,0.3093c0.05955,0.10311 0.12842,0.19213 0.18791,0.29524c0.25187,-0.10818 0.47566,-0.17433 0.62117,-0.31547c-0.00761,-0.10394 -0.11648,-0.17153 -0.19467,-0.24656c-0.07825,-0.07501 -0.12844,-0.19215 -0.28663,-0.22425c-0.19317,0.0587 -0.36757,0.08931 -0.50629,0.1818zM258.84724,191.13306c-0.07652,-0.193 -0.07044,-0.39435 -0.25081,-0.58565c-0.22374,0.06614 -0.42627,0.13886 -0.65004,0.20499c0.07649,0.193 0.1198,0.3588 0.3282,0.50801c0.19567,-0.02404 0.37266,-0.01999 0.57261,-0.12736zM257.07092,183.91195c0.29618,-0.213 0.55229,-0.40454 0.80841,-0.59608c-0.02886,-0.11055 -0.03644,-0.21448 -0.16663,-0.28866c-0.33694,0.08188 -0.57435,0.24533 -0.833,0.40224c0.02888,0.11056 0.05775,0.22108 0.11725,0.32415c-0.01621,0.06272 0.01697,0.0899 0.07391,0.15834zM255.54876,189.23078c-0.02463,-0.19387 0.08775,-0.36225 -0.00748,-0.52718c-0.32756,0.06783 -0.62448,0.12823 -0.90705,0.2439c0.08336,0.14435 -0.01032,0.28463 0.14617,0.43469c0.25945,-0.00428 0.47138,-0.09102 0.76833,-0.15138zM265.04119,185.04345c-0.20506,0.03806 -0.39816,0.09677 -0.55817,0.18267c0.01526,0.20791 0.00919,0.40919 0.00572,0.64514c0.23056,-0.11478 0.43311,-0.18751 0.69689,-0.27509c-0.01524,-0.20791 -0.01856,-0.3952 -0.14443,-0.55271zM253.54982,188.18829c-0.03665,0.20874 -0.07584,0.38286 0.06192,0.56099c0.21694,-0.01745 0.40325,-0.02743 0.56326,-0.11334c0.0273,-0.19471 0.07583,-0.3828 0.10059,-0.6122c-0.25696,0.03892 -0.49264,0.08444 -0.72576,0.16459zM262.95713,184.39785c0.26121,-0.12224 0.55137,-0.13398 0.6969,-0.27514c-0.03397,-0.17984 -0.14794,-0.31671 -0.29253,-0.44616c-0.23567,0.04552 -0.46201,0.07699 -0.62882,0.21154c0.07395,0.15837 0.12669,0.31013 0.22443,0.50974zM260.54265,191.43816c-0.08334,-0.14434 -0.12412,-0.27546 -0.27809,-0.3909c-0.25184,0.10822 -0.55135,0.13395 -0.75814,0.29001c0.06205,0.13776 0.15222,0.23342 0.33427,0.30672c0.24504,-0.05953 0.47818,-0.13968 0.70191,-0.20584zM256.2612,183.35634c-0.05268,-0.15178 -0.12156,-0.2408 -0.24234,-0.32906c-0.22379,0.06614 -0.44503,0.16688 -0.55734,0.33526c0.07141,0.12372 0.14282,0.2474 0.20487,0.38516c0.27315,-0.10163 0.40677,-0.2634 0.59484,-0.39138zM264.79085,190.84093c-0.08075,-0.10968 -0.14967,-0.19876 -0.26788,-0.25229c-0.22122,0.10074 -0.39993,0.21474 -0.54546,0.35591c0.05013,0.11711 0.11902,0.20618 0.24915,0.28036c0.24253,-0.09419 0.37613,-0.25597 0.56419,-0.38394zM256.84375,191.02031c0.01523,0.20788 0.176,0.27461 0.37679,0.3199c0.14885,0.04612 0.31648,0.06418 0.45518,-0.02831c-0.05268,-0.15178 -0.11474,-0.28952 -0.25931,-0.41895c-0.20506,0.03806 -0.38885,0.08272 -0.57261,0.12736zM266.12439,186.91973c0.02045,-0.14603 0.09536,-0.25827 -0.0067,-0.37452c-0.58451,0.10676 -0.65612,0.40629 -0.64004,0.76677c0.21869,-0.13541 0.42808,-0.25683 0.64673,-0.39224zM255.08131,190.08495c0.22885,0.0032 0.40327,-0.02744 0.61514,-0.11419c-0.1021,-0.11625 -0.02974,-0.26316 -0.16241,-0.37198c-0.13697,-0.02552 -0.21692,0.01744 -0.33008,0.03316c-0.12248,0.02976 -0.24759,0.02489 -0.31315,0.1231c0.02888,0.11056 0.0578,0.2211 0.19047,0.3299zM260.03218,186.7425c0.17772,0.15664 0.32408,0.16814 0.42957,0.04845c0.143,-0.17577 0.24347,-0.3648 0.33454,-0.53976c0.03749,-0.05611 0.06297,-0.13287 -0.04585,-0.20046c-0.27488,0.2196 -0.50721,0.45237 -0.71831,0.69176zM261.73612,191.84173c-0.01366,0.09735 0.0433,0.1658 0.16155,0.21939c0.29696,-0.06039 0.62709,-0.09356 0.88579,-0.25046c-0.19901,-0.16325 -0.40918,-0.19451 -0.65166,-0.10032c-0.12251,0.02977 -0.27826,0.03234 -0.39568,0.13139zM262.97557,187.48498c0.29769,0.09223 0.38028,0.08389 0.46453,-0.04233c0.10982,-0.20302 0.22901,-0.42006 0.25376,-0.64942c-0.3387,0.19985 -0.64673,0.39226 -0.71831,0.69175zM265.19867,189.88371c-0.09616,0.10562 -0.16171,0.20389 -0.24852,0.29547c-0.1524,0.18984 -0.15235,0.18983 0.18362,0.37859c0.10813,-0.08507 0.24682,-0.17752 0.30549,-0.22705c-0.09521,-0.16499 -0.15728,-0.30268 -0.24059,-0.44701zM262.72119,183.02106c-0.17445,0.0306 -0.38459,-0.00061 -0.48759,0.15374c0.08075,0.10968 0.1922,0.21191 0.28489,0.34221c0.20507,-0.03807 0.42201,-0.05548 0.56071,-0.14798c-0.10212,-0.11626 -0.17348,-0.24 -0.35805,-0.34797zM263.16159,190.59023c-0.22801,0.14949 -0.47741,0.29231 -0.70543,0.44177c-0.00425,0.08329 0.02203,0.15919 0.16833,0.17067c0.27565,-0.06697 0.52759,-0.17519 0.71308,-0.33784c-0.02886,-0.11055 -0.07651,-0.19299 -0.17605,-0.27462zM265.60004,185.43672c0.15822,0.03209 0.30202,0.00892 0.44327,-0.04893c-0.00509,-0.06931 -0.01018,-0.13859 -0.01526,-0.2079c-0.01693,-0.0899 -0.01271,-0.17325 -0.12159,-0.24081c-0.1276,-0.03954 -0.25262,-0.04446 -0.38454,-0.00061c0.02208,0.15924 0.05605,0.33906 0.07805,0.49825zM261.59783,183.85823c0.20507,-0.03807 0.35568,-0.10993 0.49438,-0.2024c-0.11393,-0.13688 -0.20663,-0.26716 -0.30867,-0.38344c-0.19825,-0.01058 -0.33949,0.04724 -0.41696,0.12483c0.07394,0.15834 0.14794,0.31671 0.2312,0.46106zM266.16039,186.13513c-0.00761,-0.10394 -0.01523,-0.20788 -0.04409,-0.31844c-0.01189,-0.02059 -0.05447,-0.0338 -0.08766,-0.06102c-0.11318,0.01573 -0.25945,0.00425 -0.39818,0.09676c-0.01109,0.13204 -0.06216,0.2855 0.01177,0.44386c0.21693,-0.01747 0.35815,-0.0753 0.51817,-0.16117zM266.48241,187.69094c0.12425,-0.14775 0.37693,-0.10335 0.47055,-0.24366c-0.01017,-0.13856 0.0529,-0.27143 -0.04238,-0.43638c-0.19567,0.02404 -0.37015,0.05467 -0.39053,0.20069c-0.02045,0.14603 -0.12599,0.2657 -0.03761,0.47933zM263.36289,191.63457c0.15061,-0.07186 0.32246,-0.13714 0.46368,-0.19495c0.03063,-0.00743 0.0281,-0.04212 0.04681,-0.07017c-0.0876,-0.061 -0.14708,-0.16409 -0.36661,-0.18126c-0.18121,0.07932 -0.37185,0.17263 -0.58374,0.2594c0.1114,0.10222 0.22967,0.15579 0.4398,0.18704zM261.44675,182.93102c-0.07141,-0.12373 -0.13347,-0.26145 -0.19298,-0.36453c-0.21949,-0.0172 -0.39394,0.01341 -0.54706,0.05064c-0.04429,0.10482 0.09524,0.16492 0.1522,0.2334c0.057,0.06845 0.10457,0.15091 0.26286,0.18299c0.10383,-0.00171 0.21695,-0.01745 0.32505,-0.10249zM253.6252,189.07511c0.04083,0.13113 0.07905,0.22768 0.11728,0.32416c0.00252,0.03465 0.05697,0.06847 0.0689,0.08908c0.14885,0.04612 0.29267,0.02296 0.43389,-0.03491c-0.03143,-0.14517 -0.04161,-0.28379 -0.12484,-0.42811c-0.1557,0.00257 -0.29951,0.02575 -0.49515,0.04979zM265.78215,190.04752c0.20683,-0.15603 0.41358,-0.31208 0.48088,-0.52827c-0.21949,-0.0172 -0.39903,-0.05588 -0.58023,0.02341c-0.05289,0.27145 -0.05286,0.27145 0.09933,0.50484zM255.31168,190.39335c0.18363,0.37859 0.20487,0.38516 0.68137,0.36341c-0.06205,-0.13776 -0.15475,-0.26803 -0.21675,-0.4058c-0.15822,-0.03209 -0.30198,-0.00889 -0.46453,0.04232zM264.9308,184.67065c-0.03142,-0.14518 -0.08161,-0.26232 -0.21427,-0.37117c-0.05191,0.00086 -0.13444,0.00914 -0.21698,0.01745c-0.06126,0.01489 -0.1319,0.0438 -0.19312,0.05869c0.03146,0.14518 0.03226,0.29783 0.15555,0.42069c0.15568,-0.00258 0.31822,-0.05379 0.46881,-0.12569zM252.78925,188.0204c0.08252,-0.00832 0.19571,-0.02406 0.24506,-0.05954c0.16681,-0.13457 0.21785,-0.288 0.172,-0.48851c-0.16507,0.01657 -0.35389,-0.00805 -0.47392,0.05637c-0.00858,0.16665 -0.0903,0.32758 0.05683,0.49167zM257.48226,182.71874c-0.0119,-0.02061 -0.02381,-0.04124 -0.04762,-0.08247c-0.35139,0.02662 -0.66707,0.11506 -0.98269,0.20352c-0.00175,0.11797 0.05526,0.18641 0.21598,0.25315c0.26121,-0.12224 0.54365,-0.2379 0.8143,-0.37419zM262.13786,186.54826c-0.26803,0.17094 -0.54797,0.32122 -0.68585,0.56634c-0.00939,0.01404 0.05699,0.06841 0.09951,0.08161c0.10634,0.03291 0.22885,0.00317 0.27561,-0.06699c0.18554,-0.16261 0.26472,-0.35821 0.31075,-0.58096zM264.55668,183.96214c-0.0501,-0.11714 -0.1003,-0.23425 -0.21169,-0.33649c-0.14886,-0.04612 -0.27392,-0.05101 -0.44577,0.01424c0.09271,0.13032 0.17599,0.27463 0.27804,0.39089c0.14629,0.01146 0.25945,-0.00429 0.37944,-0.0687zM258.39446,191.61923c0.28837,0.10626 0.53419,0.19937 0.85493,0.18021c0.02044,-0.14602 -0.09092,-0.24827 -0.23298,-0.34308c-0.22632,0.0315 -0.42201,0.05552 -0.62198,0.1629zM252.44108,186.38874c0.24759,-0.02488 0.27817,-0.0323 0.30633,-0.07441c0.11492,-0.13369 0.09287,-0.29294 0.06143,-0.43809c-0.01443,-0.05525 -0.11147,-0.10222 -0.23141,-0.0378c0.04333,0.1658 -0.16349,0.32186 -0.13629,0.55035zM258.26732,183.08049c0.28251,-0.11563 0.5769,-0.2107 0.75732,-0.44263c-0.36324,0.00599 -0.62453,0.12825 -0.86698,0.22243c-0.02556,0.07674 0.01952,0.12454 0.10971,0.2202zM254.34127,189.77103c-0.13442,0.00916 -0.25949,0.00429 -0.3939,0.01343c0.02206,0.15924 0.08412,0.29697 0.34614,0.32733c0.07317,0.00573 0.1463,0.01146 0.20508,-0.03806c0.01365,-0.09734 -0.05524,-0.18643 -0.15729,-0.30268zM264.49409,187.78612c0.19143,0.05927 0.29518,0.05759 0.3488,-0.06124c0.04431,-0.10483 0.08855,-0.20962 0.11154,-0.32102c0.00678,-0.04866 -0.00761,-0.10395 -0.10206,-0.11628c-0.17615,0.14859 -0.27913,0.30295 -0.35833,0.49852zM256.60002,185.00202c-0.20682,0.15604 -0.37106,0.32528 -0.42901,0.52744c-0.00937,0.01405 0.057,0.06842 0.07824,0.07502c0.04248,0.01317 0.11319,-0.01572 0.13189,-0.0438c0.10048,-0.18898 0.25538,-0.3442 0.21884,-0.55869zM255.2609,185.16286c0.02984,-0.16008 0.13285,-0.31444 0.10829,-0.50828c-0.22802,0.14945 -0.37356,0.29064 -0.36595,0.39457c-0.01365,0.09734 0.07141,0.12373 0.2577,0.11369zM260.56968,192.08989c0.28331,0.03695 0.58104,0.1292 0.84225,0.00695c-0.30788,-0.2308 -0.56909,-0.10856 -0.84225,-0.00695zM261.97601,189.44414c0.0425,0.01317 0.07325,0.00575 0.1157,0.01891c0.07232,-0.14687 0.24167,-0.24683 0.21964,-0.40603c-0.11821,-0.05358 -0.1914,-0.05929 -0.30203,-0.00889c-0.00175,0.11797 -0.01286,0.24997 -0.03331,0.39604zM259.26346,185.89482c-0.19489,0.17666 -0.3404,0.31783 -0.43152,0.49278c-0.01872,0.02804 0.00507,0.06929 0.06888,0.08905c0.0213,0.00659 0.07317,0.00573 0.10379,-0.00172c0.20683,-0.15603 0.31913,-0.32441 0.25882,-0.58012zM253.03842,188.30076c-0.1463,-0.01146 -0.22884,-0.00318 -0.21442,0.05211c-0.00175,0.11797 0.01779,0.24254 0.03729,0.3671c0.02633,0.07588 0.0901,0.09567 0.19138,0.05929c0.03925,-0.1741 0.05968,-0.32016 -0.01429,-0.4785zM263.62624,183.31836c0.11318,-0.01573 0.21698,-0.01746 0.33012,-0.03316c0.03063,-0.00743 0.04935,-0.03551 0.09874,-0.071c-0.25517,-0.07907 -0.461,-0.1936 -0.77497,-0.22315c0.09271,0.13032 0.16159,0.21937 0.34614,0.32733zM256.58974,187.55541c-0.07237,0.14689 -0.13538,0.27978 -0.22646,0.45474c0.30633,-0.07444 0.45438,-0.18092 0.52674,-0.32782c-0.07824,-0.07502 -0.13268,-0.10884 -0.30029,-0.12689zM263.50149,189.27329c0.01949,0.12459 -0.12601,0.26569 0.05175,0.42236c0.28849,-0.31698 0.33533,-0.38708 0.24773,-0.44812c-0.10634,-0.03291 -0.18887,-0.02466 -0.29948,0.02574zM257.96869,185.5276c-0.39565,0.13137 -0.50796,0.29976 -0.5634,0.53656c0.4101,-0.07615 0.371,-0.32525 0.5634,-0.53656zM266.05881,187.44118c-0.36503,0.12394 -0.46807,0.27831 -0.53786,0.45985c-0.00936,0.01403 0.02381,0.04124 0.06634,0.0544c0.06378,0.01978 0.12507,0.00487 0.14377,-0.02317c0.11494,-0.13368 0.18724,-0.28057 0.32771,-0.49104zM264.66286,189.37911c-0.02045,0.14603 -0.09284,0.29295 0.05426,0.45699c0.15743,-0.12055 0.22041,-0.25341 0.27408,-0.37222c-0.09949,-0.08162 -0.1939,-0.09394 -0.32835,-0.08478zM266.89023,186.73368c-0.0646,-0.1724 0.03841,-0.32674 -0.13681,-0.44874c-0.19489,0.17666 -0.19489,0.17666 -0.09207,0.44555c0.05191,-0.00086 0.10379,-0.00172 0.22886,0.00316zM261.29562,191.50206c0.32582,0.05012 0.55897,-0.03002 0.7802,-0.13079c-0.00761,-0.10394 -0.09271,-0.13032 -0.18454,-0.10797c-0.1812,0.07933 -0.38375,0.15204 -0.59561,0.23879zM265.37156,184.58706c0.13696,0.02551 0.25265,0.0444 0.37261,-0.02001c-0.03823,-0.0965 -0.07649,-0.19302 -0.1947,-0.24654c-0.11568,-0.01892 -0.19823,-0.0106 -0.27824,0.03234c-0.00426,0.08331 0.03147,0.14519 0.10032,0.23425zM259.32796,188.75924c0.1387,-0.09245 0.23747,-0.16349 0.25108,-0.26085c-0.00252,-0.03465 -0.03568,-0.06185 -0.06888,-0.08908c-0.06378,-0.01978 -0.1676,-0.01809 -0.17442,0.0306c-0.05618,0.0842 -0.12174,0.18239 -0.00777,0.31932zM262.29248,182.70201c-0.16333,-0.10138 -0.38028,-0.08391 -0.56911,-0.10856c0.13348,0.26146 0.17602,0.27461 0.56911,0.10856zM254.07937,184.77986c0.22552,-0.18412 0.22553,-0.18411 0.09031,-0.3276c-0.09872,0.071 -0.20681,0.15607 -0.09031,0.3276zM260.87797,188.78225c-0.057,-0.06845 -0.12079,-0.0882 -0.16073,-0.06673c-0.1812,0.07933 -0.18807,0.12799 -0.08091,0.31354c0.12934,-0.07843 0.18557,-0.16264 0.24174,-0.24683zM266.87705,187.83014c-0.15316,0.03723 -0.28501,0.08103 -0.30806,0.19238c0.36835,0.06328 0.40831,0.04187 0.30806,-0.19238zM253.96051,184.15049c-0.19317,0.0587 -0.28935,0.16431 -0.37612,0.25594c-0.03747,0.05611 -0.00177,0.11799 0.16333,0.10139c0.08677,-0.09162 0.183,-0.19728 0.21281,-0.35734zM266.63966,185.72484c-0.13616,0.12713 -0.11922,0.21705 0.03224,0.29783c0,0 0.05189,-0.00086 0.06126,-0.01489c0.07742,-0.07761 -0.01266,-0.17321 -0.09346,-0.28295zM257.97795,188.20559c0.1463,0.01146 0.22634,-0.03149 0.24249,-0.09418c0.01872,-0.02804 -0.00507,-0.06929 -0.03823,-0.0965c-0.03321,-0.02722 -0.11566,-0.01892 -0.13439,0.00916c-0.04937,0.0355 -0.08682,0.09161 -0.06985,0.18154zM264.94308,183.84483c0.01949,0.12459 0.07649,0.193 0.2841,0.18956c-0.03146,-0.14518 -0.09776,-0.19961 -0.2841,-0.18956z" fill="#000000"/><path d="M254.42686,193.0652c0.67114,0.22485 1.34237,0.44974 2.0229,0.66054c0.76563,0.23717 1.56866,0.41823 2.39727,0.52253c0.26202,0.03038 0.5002,0.01954 0.79283,0.04248c-0.14983,0.22451 -0.25956,0.42749 -0.41196,0.61732c-0.87161,1.15221 -1.64626,2.35136 -2.48466,3.53077c-0.75418,1.05313 -1.47767,2.09883 -2.21057,3.15855c-0.50816,0.723 -1.00701,1.43196 -1.51516,2.15494c-0.48008,0.68092 -0.90825,1.36093 -1.38829,2.04185c-0.03749,0.05613 -0.07493,0.11225 -0.13363,0.16179c-0.40074,0.06211 -0.76656,0.03342 -1.16551,-0.02243c-0.63041,-0.0937 -1.26329,-0.22205 -1.84938,-0.42054c-0.19143,-0.05927 -0.39216,-0.10454 -0.51545,-0.22742c0.21015,0.03123 0.39471,0.13917 0.67545,0.14152c0.00098,-0.27058 0.2239,-0.48935 0.35248,-0.72045c0.00936,-0.01403 0.01872,-0.02804 -0.00254,-0.03464c0.08269,-0.43151 0.35426,-0.83839 0.5101,-1.26421c0.05111,-0.15347 0.03839,-0.32673 0.17455,-0.45384c0.22982,-0.26741 0.21628,-0.5933 0.4461,-0.86078c0.00936,-0.01403 0.00681,-0.04868 0.02559,-0.07676c0.1141,-0.28631 0.19761,-0.56522 0.35423,-0.83838c0.20598,-0.30865 0.22315,-0.64201 0.47163,-0.93748c-0.00587,-0.22191 0.15842,-0.39113 0.26823,-0.59413c0.01872,-0.02804 0.02806,-0.04212 0.04681,-0.07014c0.01714,-0.33332 0.29882,-0.6016 0.40105,-0.90859c0.1022,-0.30694 0.34137,-0.58842 0.46482,-0.8888c0.15158,-0.34248 0.22992,-0.69066 0.5185,-1.00762c0.01872,-0.02804 0.04683,-0.07016 0.04429,-0.10481c-0.02463,-0.19387 0.15158,-0.34246 0.24269,-0.51742c0.05618,-0.0842 0.14299,-0.17576 0.15663,-0.27316c-0.00077,-0.15261 0.09537,-0.25828 0.17968,-0.38456c0.04683,-0.07016 0.11493,-0.13374 0.10981,-0.20302c-0.00587,-0.22191 0.16773,-0.40516 0.28945,-0.58754c0.04683,-0.07016 0.11487,-0.13371 0.10982,-0.20303c-0.00328,-0.18726 0.12093,-0.33502 0.22394,-0.48936c0.16854,-0.25258 0.18821,-0.55122 0.37802,-0.79714c0.04935,-0.03551 0.01369,-0.09733 0.02045,-0.14603z" fill="#87d7dc"/><path d="M254.42685,193.06522c-0.00684,0.04867 0.02891,0.11054 0.00078,0.15264c-0.18979,0.24598 -0.23077,0.53803 -0.37803,0.79716c-0.10303,0.15432 -0.22729,0.30209 -0.22395,0.48935c0.00509,0.06931 -0.06301,0.13288 -0.10978,0.20302c-0.12169,0.1824 -0.27411,0.37221 -0.28952,0.58755c0.00507,0.06929 -0.08427,0.1263 -0.10978,0.20302c-0.08427,0.12627 -0.15918,0.23854 -0.17968,0.38456c-0.01365,0.09734 -0.10051,0.18901 -0.15667,0.27317c-0.09107,0.17495 -0.26723,0.32356 -0.24265,0.51741c0.00252,0.03465 -0.02555,0.07675 -0.04427,0.10479c-0.27916,0.30296 -0.36694,0.66519 -0.51848,1.00764c-0.13285,0.31444 -0.372,0.59585 -0.4649,0.8888c-0.10216,0.30693 -0.3839,0.57526 -0.40102,0.90857c0.01186,0.0206 -0.02811,0.0421 -0.04683,0.07016c-0.12169,0.1824 -0.27408,0.37224 -0.26821,0.59417c-0.26982,0.28892 -0.28693,0.62222 -0.47168,0.93745c-0.17789,0.26658 -0.24012,0.55206 -0.35425,0.8384c-0.01872,0.02804 -0.00679,0.04871 -0.02554,0.07676c-0.22982,0.26741 -0.21628,0.59329 -0.44612,0.86075c-0.12425,0.14775 -0.10222,0.30696 -0.17457,0.45385c-0.17712,0.41922 -0.42741,0.83269 -0.51008,1.26419c-0.00936,0.01403 0.00256,0.03467 0.00256,0.03467c-0.12853,0.2311 -0.35155,0.44987 -0.35246,0.72045c-0.25947,0.00427 -0.4347,-0.11774 -0.67544,-0.14154c-0.17012,-0.0527 -0.34024,-0.10542 -0.43294,-0.23576c0.05618,-0.0842 0.14298,-0.17579 0.15662,-0.27314c0.04774,-0.34074 0.26573,-0.6288 0.41981,-0.93666c0.15408,-0.3078 0.20184,-0.64856 0.47164,-0.93745c-0.00587,-0.22191 0.15835,-0.39116 0.2682,-0.59417c0.01872,-0.02804 0.0468,-0.07016 0.04427,-0.10481c-0.02207,-0.15923 0.11411,-0.28631 0.17713,-0.41922c0.04683,-0.07016 0.09359,-0.14032 0.10982,-0.20302c0.09966,-0.34162 0.2299,-0.69066 0.4453,-1.01337c0.02811,-0.04209 0.08684,-0.09162 0.063,-0.13286c-0.01268,-0.17321 0.10216,-0.30693 0.19582,-0.44725c0.12425,-0.14775 0.069,-0.33419 0.20267,-0.49595c0.17108,-0.21792 0.20519,-0.4613 0.31246,-0.69896c0.16349,-0.32186 0.23249,-0.656 0.44787,-0.97869c0.03749,-0.05613 0.10554,-0.11968 0.0911,-0.17497c-0.01011,-0.1386 0.09534,-0.25825 0.15837,-0.39112c0.07492,-0.11223 0.12856,-0.23105 0.15161,-0.34247c0.03665,-0.20874 0.11585,-0.40433 0.24689,-0.60077c0.17537,-0.30122 0.22311,-0.64199 0.49289,-0.93086c0.01872,-0.02804 0.02559,-0.07673 0.04431,-0.10481c0.13285,-0.31444 0.24436,-0.6354 0.4198,-0.9366c0.20598,-0.30865 0.24188,-0.67005 0.49043,-0.96554c0.02811,-0.04209 0.01363,-0.09733 0.02045,-0.14603c0.0792,-0.19556 0.18902,-0.39859 0.37454,-0.5612c0.11571,0.01893 0.20075,0.04523 0.29518,0.05759c0.26966,0.13433 0.50612,0.24145 0.77324,0.34113z" fill="#b0eef2"/><path d="M267.17293,188.4636c-0.11408,0.28629 -0.23334,0.50338 -0.45887,0.68748c-0.24508,0.05953 -0.50706,0.02917 -0.77842,0.01283c-1.32885,-0.12383 -2.64829,-0.26169 -3.93543,-0.52495c-0.97067,-0.19911 -1.96263,-0.40479 -2.90771,-0.68064c-0.2552,-0.07906 -0.52232,-0.17873 -0.8056,-0.21574c-0.11571,-0.01893 -0.24331,-0.05846 -0.37086,-0.09797c-0.47296,-0.21425 -1.00207,-0.34428 -1.50316,-0.51644c-0.71372,-0.23802 -1.39002,-0.53217 -2.04751,-0.85438c-0.32406,-0.1681 -0.65754,-0.32222 -1.01226,-0.48288c-0.27897,-0.12031 -0.47799,-0.28353 -0.68639,-0.43274c0.01972,-0.29868 0.06395,-0.40345 0.3312,-0.727c0.45849,0.15893 0.8489,0.38149 1.28866,0.56852c0.41849,0.18043 0.85828,0.36747 1.28617,0.53389c0.4491,0.173 0.92893,0.33857 1.38741,0.49753c0.42784,0.16641 0.93319,0.25519 1.33302,0.46373c0.51472,0.0748 0.95445,0.26182 1.43171,0.39274c0.45598,0.12433 0.94256,0.24118 1.40792,0.35148c0.48661,0.11688 0.98255,0.21972 1.49978,0.32919c0.4747,0.09627 0.96127,0.21316 1.44537,0.29535c0.50532,0.0888 1.00807,0.14299 1.52282,0.21778c0.53597,0.08135 1.01999,0.16361 1.57215,0.18228z" fill="#d1eaeb"/><path d="M253.66547,192.74473c-0.09443,-0.01234 -0.17952,-0.03866 -0.29518,-0.05757c-0.18552,0.16265 -0.30723,0.34501 -0.37455,0.56121c-0.00684,0.04867 0.00761,0.10395 -0.02045,0.14603c-0.24852,0.29547 -0.30566,0.65031 -0.49041,0.96554c-0.19663,0.29463 -0.28695,0.62222 -0.41981,0.9366c-0.01872,0.02804 -0.02556,0.07675 -0.04427,0.10479c-0.26983,0.28891 -0.28695,0.62222 -0.49294,0.93089c-0.12169,0.1824 -0.21024,0.392 -0.24689,0.60075c-0.03236,0.12538 -0.08601,0.24423 -0.15158,0.34246c-0.08427,0.12627 -0.18044,0.23193 -0.15838,0.39114c0.01445,0.05524 -0.05369,0.11884 -0.09112,0.17495c-0.20598,0.30865 -0.28435,0.65686 -0.44784,0.97871c-0.1073,0.23766 -0.14136,0.48107 -0.3125,0.69895c-0.12425,0.14775 -0.069,0.33417 -0.20267,0.49595c-0.11492,0.13373 -0.23917,0.28145 -0.19588,0.44725c-0.00684,0.04867 -0.0349,0.09076 -0.06298,0.13285c-0.21539,0.32268 -0.33632,0.65769 -0.4453,1.01337c-0.02556,0.07674 -0.09362,0.1403 -0.10984,0.20298c-0.08427,0.12627 -0.19912,0.26002 -0.17709,0.41921c0.00252,0.03465 -0.02552,0.07673 -0.04427,0.10479c-0.12169,0.1824 -0.27408,0.37224 -0.26821,0.59417c-0.26979,0.2889 -0.31757,0.62967 -0.47163,0.93747c-0.15408,0.3078 -0.38134,0.60987 -0.4198,0.9366c-0.01366,0.09735 -0.10049,0.18899 -0.15665,0.27316c-0.20078,-0.04527 -0.27217,-0.16896 -0.41169,-0.2291c0.28693,-0.62221 0.53387,-1.22299 0.80209,-1.81711c0.28443,-0.65686 0.58071,-1.2931 0.88631,-1.94337c0.27758,-0.6082 0.53383,-1.22298 0.79016,-1.83775c0.3287,-0.76167 0.6267,-1.5159 0.94599,-2.26352c0.24948,-0.56612 0.49901,-1.13219 0.72717,-1.70487c0.38229,-0.8805 0.85906,-1.7487 1.1988,-2.64236c0.05365,-0.11883 0.06474,-0.25083 0.21281,-0.35734c0.19143,0.05927 0.35471,0.16067 0.52742,0.24805c0.08761,0.061 0.29772,0.09221 0.42108,0.21509z" fill="#87d7dc"/><path d="M248.15646,205.76809c0.46534,0.11028 0.87195,0.27011 1.34663,0.36635c0.54788,0.102 1.10508,0.18992 1.71846,0.19375c-0.54307,0.81378 -1.07677,1.6135 -1.60113,2.39921c-0.33693,0.08188 -0.65086,0.05233 -0.95288,0.04343c-0.57342,-0.02526 -1.08124,-0.14873 -1.61038,-0.27879c-0.0213,-0.00659 -0.05443,-0.03378 -0.06637,-0.05441c0.24755,-0.02488 0.25865,-0.15688 0.29104,-0.2823c0.08093,-0.31357 0.18312,-0.62051 0.39167,-0.89453c0.03749,-0.05613 0.0749,-0.11223 0.09107,-0.17495c0.0503,-0.30613 0.25883,-0.58011 0.37294,-0.86648c0.0605,-0.1675 0.0928,-0.2929 0.01884,-0.45129z" fill="#61afb4"/><path d="M254.59183,190.77984c0.68816,0.31476 1.44183,0.53132 2.1581,0.80399c0.33088,0.11944 0.6899,0.19678 1.04895,0.27414c0.65674,0.1696 1.29725,0.40187 1.99145,0.51532c0.27392,0.05101 0.54785,0.10202 0.80987,0.1324c0.1676,0.01808 0.32583,0.05011 0.47472,0.09626c-0.00678,0.04866 -0.00429,0.08332 -0.02304,0.1114c-0.07492,0.11222 -0.14979,0.22447 -0.22467,0.33672c-0.13441,0.00917 -0.23823,0.01083 -0.36329,0.00599c-0.87791,-0.06881 -1.77721,-0.1442 -2.60665,-0.40115c-0.73246,-0.20995 -1.48609,-0.42649 -2.18112,-0.6926c-0.55551,-0.20595 -1.12035,-0.39786 -1.57965,-0.70942c0.12506,0.00486 0.22456,0.0865 0.3658,0.02865c0.14553,-0.14115 0.33105,-0.30379 0.12949,-0.50167z" fill="#61aeb3"/><path d="M254.47489,191.878c0.38025,0.08395 0.6643,0.27354 1.0165,0.39955c0.75628,0.2512 1.5125,0.50244 2.29681,0.71152c0.63544,0.16299 1.28715,0.26325 1.93625,0.32892c0.1676,0.01808 0.33517,0.03609 0.50276,0.05416c-0.13109,0.19644 -0.2434,0.36483 -0.36515,0.5472c-0.36757,0.08931 -0.7334,0.06061 -1.10176,-0.00267c-0.44153,-0.06902 -0.90429,-0.14471 -1.339,-0.26242c-0.99443,-0.24038 -1.91149,-0.5583 -2.85914,-0.86879c-0.17012,-0.05269 -0.3403,-0.10541 -0.44232,-0.22169c0.04683,-0.07016 0.11488,-0.13373 0.10981,-0.20302c0.00857,-0.16667 0.14218,-0.32846 0.24516,-0.48276z" fill="#61aeb3"/><path d="M248.15644,205.76807c0.06205,0.13776 0.05091,0.26975 -0.02143,0.41664c-0.11411,0.28631 -0.32266,0.56036 -0.37294,0.86647c-0.01619,0.06271 -0.05362,0.11884 -0.09108,0.17499c-0.1966,0.29466 -0.28947,0.58754 -0.39167,0.8945c-0.02301,0.1114 -0.04345,0.25744 -0.29105,0.28233c-0.32836,-0.0848 -0.6074,-0.20506 -0.83704,-0.36087c0.06726,-0.21622 0.11331,-0.43897 0.28693,-0.62222c0.01872,-0.02804 0.02556,-0.07675 0.0443,-0.1048c0.12346,-0.30036 0.25632,-0.61478 0.40102,-0.90857c0.063,-0.13287 0.13793,-0.24509 0.17968,-0.38456c0.03923,-0.17408 0.13032,-0.34906 0.33962,-0.47045c0.11568,0.01892 0.20077,0.04524 0.29518,0.05759c0.14885,0.04612 0.30967,0.11286 0.45849,0.15896z" fill="#87d7dc"/><path d="M259.69539,184.13239c0.12414,0.27549 0.08066,0.53288 0.0159,0.78377c-0.01619,0.06272 -0.07238,0.1469 -0.13109,0.19644c-0.44164,0.35417 -0.79832,0.73471 -1.13363,1.12183c-0.00936,0.01403 -0.04935,0.0355 -0.07999,0.04296c-0.11318,0.01573 -0.21951,-0.01719 -0.29775,-0.09221c0.01872,-0.02804 0.01616,-0.06273 0.0349,-0.09078c0.24602,-0.3301 0.42821,-0.68004 0.49468,-1.04886c0.04856,-0.18814 0.15158,-0.34249 0.37026,-0.47789c0.24933,-0.14285 0.43482,-0.30549 0.72674,-0.4352z" fill="#cce5e6"/><path d="M257.00556,185.85568c-0.1557,0.00257 -0.23135,-0.03782 -0.26707,-0.09967c0.40693,-0.68663 0.40689,-0.68663 0.45992,-1.38131c0.20174,-0.22535 0.50972,-0.41773 0.7659,-0.60925c0.1676,0.01808 0.13267,0.10883 0.14711,0.16408c0.04589,0.20044 0.1011,0.38687 0.09504,0.58819c-0.01111,0.13205 -0.05544,0.23683 -0.1728,0.33585c-0.36172,0.31126 -0.71146,0.64308 -1.0281,1.00213z" fill="#cce5e6"/><path d="M247.67668,205.60252c-0.09444,-0.01233 -0.17956,-0.03869 -0.29518,-0.05758c-0.20934,0.1214 -0.3004,0.29634 -0.3396,0.47045c-0.04171,0.13946 -0.11663,0.25171 -0.17968,0.38457c-0.14473,0.29379 -0.27758,0.60819 -0.40103,0.90855c-0.01872,0.02804 -0.02555,0.07676 -0.0443,0.1048c-0.16171,0.20387 -0.19839,0.4126 -0.28695,0.6222c-0.15141,-0.08075 -0.28155,-0.15496 -0.3955,-0.29186c0.19837,-0.41261 0.36356,-0.85249 0.59255,-1.27253c0.19837,-0.41261 0.3117,-0.85157 0.5926,-1.27249c0.33088,0.11945 0.54864,0.25461 0.75705,0.40381z" fill="#60adb2"/><path d="M261.31013,188.86534c0.09442,0.01231 0.16762,0.01808 0.26202,0.03038c0.02381,0.04124 0.03567,0.06185 0.04757,0.08245c-0.07411,0.26486 -0.07504,0.53548 -0.05474,0.81264c-0.00174,0.11798 -0.03666,0.20878 -0.16599,0.2872c-0.23741,0.16347 -0.44164,0.35419 -0.83052,0.4369c-0.13344,-0.26145 -0.13252,-0.53204 -0.1103,-0.79608c0.00678,-0.04866 0.07495,-0.11222 0.13363,-0.16176c0.23228,-0.23277 0.46472,-0.46561 0.71835,-0.6918z" fill="#cce5e6"/><path d="M263.97682,185.40789c-0.00855,0.16665 -0.00099,0.27062 -0.00271,0.38859c-0.0154,0.21534 -0.10649,0.39029 -0.36515,0.5472c-0.41613,0.2774 -0.77779,0.5887 -1.01189,0.93943c-0.07493,0.11223 -0.10556,0.11967 -0.3514,0.02661c0.0281,-0.04211 0.0349,-0.09076 0.06303,-0.13289c0.25536,-0.34418 0.41627,-0.70065 0.51339,-1.07691c0.03494,-0.09077 0.06046,-0.16752 0.14979,-0.2245c0.31057,-0.15778 0.57866,-0.32867 1.00495,-0.4675z" fill="#cae2e3"/><path d="M259.50563,186.64711c-0.0119,-0.02061 -0.01446,-0.05532 -0.00509,-0.06931c0.25786,-0.3095 0.37882,-0.64452 0.46914,-0.97214c0.10216,-0.30693 0.2801,-0.57353 0.6707,-0.7742c0.19062,-0.09333 0.31484,-0.24109 0.53865,-0.3072c0.14366,0.40004 0.00397,0.76314 -0.35089,1.02567c-0.42297,0.32612 -0.85778,0.63161 -1.10808,1.04509c-0.04935,0.03551 -0.08682,0.09161 -0.2144,0.05211z" fill="#c9e1e2"/><path d="M262.47885,184.96077c0.06285,0.29037 0.01685,0.51313 -0.03855,0.74993c-0.02556,0.07674 -0.0724,0.14688 -0.15236,0.18984c-0.45359,0.33357 -0.87399,0.69433 -1.25185,1.06825c-0.01872,0.02804 -0.06807,0.06355 -0.16505,0.01659c0.06553,-0.0982 0.14044,-0.21045 0.18475,-0.31526c0.16602,-0.28719 0.31075,-0.58099 0.361,-0.88709c0.046,-0.22279 0.189,-0.39858 0.45024,-0.52081c0.19062,-0.09333 0.37181,-0.17266 0.6118,-0.30149z" fill="#c9e1e2"/><path d="M262.74356,189.14008c0.17445,-0.0306 0.28078,0.00232 0.38707,0.03525c0.01189,0.02059 0.01448,0.05529 0.02632,0.07587c-0.1073,0.23766 -0.12011,0.48767 -0.05043,0.72932c0.03141,0.14516 -0.02224,0.26401 -0.17031,0.37053c-0.18803,0.12798 -0.36417,0.27658 -0.58545,0.37739c-0.14964,-0.19874 -0.27635,-0.50889 -0.24396,-0.63432c0.00426,-0.08331 0.08426,-0.1263 0.15239,-0.18983c0.13793,-0.24509 0.39151,-0.47133 0.48437,-0.76419z" fill="#cae3e4"/><path d="M254.8524,187.81299c0.36246,-0.15861 0.66118,-0.33696 0.94796,-0.53595c0.14629,0.01146 0.23145,0.03783 0.30968,0.11283c-0.0622,0.28546 -0.30141,0.56692 -0.34235,0.859c-0.20934,0.12138 -0.43564,0.15286 -0.6594,0.21902c-0.12248,0.02976 -0.23309,0.08014 -0.39135,0.04807c-0.04839,-0.23511 0.12271,-0.45299 0.13553,-0.70299z" fill="#c8e0e1"/><path d="M258.69518,188.20767c0.18204,0.07332 0.16585,0.13603 0.14967,0.19874c-0.05539,0.23684 -0.10141,0.45956 -0.17804,0.6898c-0.01619,0.06271 -0.05365,0.11884 -0.13362,0.1618c-0.25187,0.10818 -0.52502,0.20981 -0.81001,0.29086c-0.05012,-0.1171 -0.01523,-0.20791 -0.02285,-0.31185c-0.02284,-0.31181 0.11504,-0.55693 0.54129,-0.6958c0.20254,-0.07271 0.3387,-0.19985 0.45356,-0.33357z" fill="#cbe4e5"/><path d="M257.35535,187.79263c0.10634,0.03291 0.17014,0.05268 0.23395,0.07244c0.00252,0.03465 0.03568,0.06187 0.02633,0.07588c-0.0605,0.1675 -0.14218,0.32846 -0.20266,0.49594c-0.03494,0.09078 -0.10302,0.15434 -0.21366,0.20472c-0.33181,0.15117 -0.67561,0.28172 -1.08319,0.39251c-0.06463,-0.17238 -0.00159,-0.30523 0.06143,-0.43809c0.03749,-0.05611 0.07493,-0.11225 0.1455,-0.14115c0.4263,-0.13885 0.74117,-0.37992 1.03226,-0.66224z" fill="#c8e0e1"/><path d="M254.47489,191.87798c-0.10303,0.15432 -0.23665,0.31613 -0.23328,0.50342c0.00507,0.06929 -0.06302,0.13284 -0.10982,0.203c-0.37089,-0.09796 -0.68306,-0.24547 -0.93652,-0.44251c0.17365,-0.18325 0.21963,-0.40599 0.28946,-0.58754c0.19567,-0.02404 0.31647,0.06417 0.46275,0.07563c0.20078,0.04527 0.40408,0.1252 0.5274,0.24804z" fill="#85d5d9"/><path d="M265.13426,186.59609c-0.24681,0.17752 -0.49355,0.35505 -0.72845,0.55316c-0.19491,0.17666 -0.17459,0.45386 -0.63405,0.56546c0.31833,-0.47702 0.45042,-0.94408 0.58247,-1.41108c0.20934,-0.12138 0.44927,-0.25023 0.74626,-0.31061c0.02381,0.04124 0.03568,0.06185 0.04761,0.08244c0.01269,0.17322 0.00415,0.33989 -0.01379,0.52057z" fill="#c6dede"/><path d="M259.6224,183.70341c-0.30805,0.19242 -0.57606,0.36332 -0.88413,0.55574c-0.11393,-0.13688 -0.10287,-0.2689 -0.15301,-0.386c-0.04083,-0.13113 -0.13347,-0.26147 -0.11299,-0.4075c0.06553,-0.0982 0.20677,-0.15605 0.32674,-0.22047c0.11996,-0.06443 0.26124,-0.12223 0.42375,-0.1735c0.24155,0.17642 0.29928,0.39749 0.39962,0.63175z" fill="#cae3e3"/><path d="M255.62575,185.46209c0.132,-0.46705 0.21724,-0.86393 0.16547,-1.28626c0.20682,-0.15604 0.39233,-0.31866 0.60849,-0.48874c0.20157,0.19789 0.19558,0.39919 0.24141,0.59962c0.00252,0.03465 -0.02557,0.07676 -0.0443,0.10479c-0.29788,0.33099 -0.59576,0.66199 -0.97108,1.07057z" fill="#cae3e4"/><path d="M259.12673,189.98365c-0.06286,-0.29036 -0.09256,-0.55353 0.28612,-0.77483c0.25869,-0.15691 0.42042,-0.36078 0.58214,-0.56465c0.05618,-0.0842 0.17185,-0.06528 0.28077,0.00232c-0.19231,0.2113 -0.22648,0.45471 -0.26058,0.69811c-0.01793,0.18067 -0.14472,0.29379 -0.33533,0.38713c-0.15997,0.08588 -0.28683,0.19896 -0.55314,0.25193z" fill="#c8e0e1"/><path d="M254.59184,190.77985c0.1922,0.21191 0.01601,0.3605 -0.1176,0.52227c-0.1412,0.05782 -0.25009,-0.00975 -0.36576,-0.02865c-0.26707,-0.09967 -0.48483,-0.23489 -0.68388,-0.39814c0.12425,-0.14775 0.14222,-0.32842 0.34215,-0.4358c0.11571,0.01893 0.17953,0.03869 0.26457,0.06501c0.19398,0.09394 0.38789,0.18784 0.56056,0.27522z" fill="#85d4d9"/><path d="M257.22736,189.02278c-0.01286,0.24997 -0.0495,0.45874 -0.0649,0.67407c-0.29441,0.09505 -0.60068,0.16949 -0.90956,0.20922c-0.13016,-0.07419 -0.11648,-0.17153 -0.14284,-0.24741c-0.02635,-0.07588 -0.05268,-0.15174 0.03414,-0.24338c0.28251,-0.11563 0.64749,-0.23961 1.08318,-0.3925z" fill="#c7dfe0"/><path d="M260.10738,190.74458c-0.24253,0.09419 -0.46372,0.19494 -0.76068,0.25537c-0.17096,-0.20533 -0.16491,-0.4066 -0.19208,-0.63513c0.26121,-0.12224 0.52243,-0.24451 0.79306,-0.38078c0.08157,0.2623 0.10871,0.49086 0.15966,0.76058z" fill="#c8e0e1"/><path d="M260.94285,183.57065c0.09521,0.16499 0.19041,0.32989 0.19377,0.51717c-0.25869,0.15691 -0.53865,0.30721 -0.82796,0.47154c-0.04248,-0.01317 -0.08507,-0.02636 -0.07567,-0.04039c-0.04333,-0.1658 -0.07728,-0.34561 -0.09935,-0.50485c-0.00509,-0.06931 0.01107,-0.13202 0.0817,-0.16093c0.23997,-0.12882 0.41613,-0.27743 0.72756,-0.28258z" fill="#c4dcdd"/><path d="M263.90639,185.0136c-0.29187,0.12968 -0.56245,0.26596 -0.85436,0.39566c-0.14201,-0.09481 -0.06711,-0.20702 -0.07475,-0.31098c-0.00761,-0.10394 0.01538,-0.21534 0.01712,-0.33331c0.21871,-0.13541 0.50629,-0.18174 0.77009,-0.26938c0.16837,0.17066 0.1598,0.33733 0.14185,0.51801z" fill="#c8e0e1"/><path d="M260.74954,190.85888c0.28,-0.15028 0.52933,-0.29319 0.81863,-0.45751c0.13779,0.17811 0.14106,0.3654 0.25758,0.53696c-0.2162,0.17004 -0.51312,0.23049 -0.79559,0.3461c-0.15648,-0.15007 -0.27979,-0.27292 -0.28057,-0.42553z" fill="#c6ddde"/><path d="M264.21189,189.32406c0.05349,0.30442 -0.01803,0.60393 0.11794,0.90001c-0.17615,0.14861 -0.32171,0.28978 -0.57357,0.39798c-0.18964,-0.17726 -0.25426,-0.34968 -0.07129,-0.54693c0.23231,-0.23276 0.35834,-0.49852 0.52691,-0.75108z" fill="#b9cfd0"/><path d="M254.56594,184.89675c-0.09949,-0.08162 0.01105,-0.13204 0.02728,-0.19472c0.04175,-0.13946 0.10471,-0.27228 0.03331,-0.39604c-0.06713,-0.20705 0.05709,-0.35478 0.21203,-0.50997c0.06812,-0.06357 0.15743,-0.12055 0.26552,-0.20558c0.17351,0.23997 0.2925,0.4462 0.02957,0.68639c-0.1855,0.16265 -0.29536,0.36564 -0.43836,0.54144c-0.02814,0.04207 -0.05618,0.08418 -0.12934,0.07846z" fill="#c0d8d8"/><path d="M253.64954,187.84668c-0.02207,-0.15923 0.01032,-0.28464 0.0852,-0.39687c0.03749,-0.05611 0.08423,-0.1263 0.15488,-0.1552c0.31315,-0.12311 0.57181,-0.28 0.83053,-0.4369c0.14885,0.04612 0.09015,0.09564 0.06205,0.13776c-0.09363,0.14031 -0.19663,0.29465 -0.24774,0.44813c-0.07918,0.19557 -0.22727,0.30208 -0.5055,0.33443c-0.13442,0.00916 -0.2263,0.03148 -0.3794,0.06869z" fill="#c1d9d9"/><path d="M258.61103,190.17945c-0.23056,0.11478 -0.47567,0.17433 -0.73942,0.26192c-0.17775,-0.15664 -0.13851,-0.33071 -0.18188,-0.49655c0.27058,-0.1363 0.58876,-0.1901 0.90445,-0.27853c0.05523,0.18643 0.0254,0.34651 0.01687,0.51317z" fill="#c3dbdc"/><path d="M261.68583,184.91831c0.00346,-0.23597 0.01891,-0.45133 0.01302,-0.67325c0.16932,-0.09995 0.32931,-0.1858 0.57689,-0.21071c0.11648,0.17156 0.1292,0.34478 0.16321,0.52463c-0.20683,0.15603 -0.43736,0.27084 -0.75302,0.3593z" fill="#c3dadb"/><path d="M256.2876,190.23852c0.29696,-0.06039 0.56323,-0.11334 0.82955,-0.16629c0.14712,0.16409 0.15984,0.33734 0.17252,0.51057c-0.23312,0.08017 -0.46879,0.12568 -0.73762,0.14393c-0.04507,-0.04784 -0.10202,-0.11628 -0.12585,-0.15747c-0.05013,-0.11711 -0.06711,-0.20702 -0.13855,-0.33077z" fill="#c4dbdc"/><path d="M253.79549,186.43582c-0.17793,0.2666 -0.31839,0.47707 -0.46814,0.70153c-0.17191,0.06528 -0.34634,0.09588 -0.56576,0.07866c-0.08076,-0.10967 0.02732,-0.19472 0.04099,-0.29207c0.01363,-0.09733 0.04856,-0.18814 0.09536,-0.25831c0.30636,-0.07445 0.55137,-0.13397 0.89765,-0.22986z" fill="#c2d9da"/><path d="M259.6772,182.89074c0.15997,-0.08588 0.32246,-0.13716 0.48756,-0.15372c0.17949,0.03868 0.20836,0.14925 0.28659,0.22424c0.07824,0.07498 0.19646,0.12857 0.19472,0.24653c-0.13618,0.12715 -0.36931,0.20729 -0.62117,0.31555c-0.05955,-0.10312 -0.11907,-0.2062 -0.18791,-0.29527c-0.05012,-0.1171 -0.10032,-0.23422 -0.15984,-0.33734z" fill="#c5ddde"/><path d="M258.84724,191.13306c-0.20001,0.10739 -0.39821,0.09677 -0.582,0.14143c-0.18709,-0.14263 -0.25173,-0.31503 -0.32825,-0.50802c0.22377,-0.06614 0.44755,-0.13225 0.6501,-0.20497c0.18963,0.17725 0.18363,0.37859 0.26012,0.57158z" fill="#c3dbdc"/><path d="M257.07092,183.91195c-0.057,-0.06845 -0.08083,-0.10965 -0.10464,-0.15087c-0.03823,-0.0965 -0.06713,-0.20705 -0.11728,-0.32416c0.28,-0.15028 0.49612,-0.32038 0.83304,-0.40224c0.13016,0.07419 0.14714,0.16408 0.16666,0.28866c-0.22551,0.18411 -0.49105,0.38966 -0.77781,0.58869z" fill="#c7dfe0"/><path d="M255.54863,189.23079c-0.28755,0.04635 -0.50879,0.14711 -0.78956,0.14479c-0.13521,-0.1435 -0.05351,-0.30437 -0.14619,-0.43468c0.31317,-0.1231 0.60069,-0.16949 0.90702,-0.2439c0.12839,0.19217 0.02538,0.3465 0.02876,0.53379z" fill="#c7dee0"/><path d="M253.95697,191.61594c-0.1463,-0.01146 -0.26708,-0.09969 -0.46278,-0.07562c-0.07918,0.19557 -0.1465,0.41174 -0.28945,0.58756c-0.07573,-0.04039 -0.17269,-0.08737 -0.23903,-0.14174c-0.09949,-0.08162 -0.13773,-0.17811 -0.0722,-0.27635c0.09106,-0.17494 0.17277,-0.33586 0.26393,-0.51083c0.27648,0.08565 0.39471,0.13921 0.79956,0.417z" fill="#61acb1"/><path d="M265.1857,185.59612c-0.24253,0.09419 -0.44499,0.16688 -0.70879,0.2545c-0.00587,-0.22191 -0.02111,-0.42979 -0.00576,-0.64514c0.18121,-0.07932 0.35313,-0.14457 0.55819,-0.18266c0.12839,0.19217 0.14109,0.36539 0.15634,0.57328z" fill="#c2dada"/><path d="M253.54982,188.18829c0.24253,-0.09419 0.46883,-0.12568 0.73516,-0.1786c-0.046,0.22279 -0.07333,0.41751 -0.10062,0.61223c-0.16932,0.09994 -0.34629,0.0959 -0.56325,0.11335c-0.12586,-0.1575 -0.08667,-0.33163 -0.0713,-0.54694z" fill="#c1d9d9"/><path d="M262.95708,184.39783c-0.09776,-0.19961 -0.15044,-0.35136 -0.22439,-0.50975c0.15743,-0.12055 0.39313,-0.16604 0.62881,-0.21155c0.14453,0.12945 0.25852,0.26633 0.2925,0.44617c-0.17615,0.14859 -0.4357,0.15287 -0.6969,0.27514z" fill="#c6dedf"/><path d="M260.54265,191.43816c-0.23312,0.08015 -0.47819,0.13969 -0.70195,0.20582c-0.18204,-0.07332 -0.27218,-0.16896 -0.33427,-0.30673c0.20683,-0.15603 0.50627,-0.18173 0.75816,-0.28999c0.15398,0.11542 0.19472,0.24654 0.27805,0.39089z" fill="#c0d7d7"/><path d="M256.26127,183.35634c-0.18803,0.12797 -0.32171,0.28975 -0.60674,0.3708c-0.06205,-0.13776 -0.13347,-0.2615 -0.20489,-0.38517c0.11239,-0.16834 0.31233,-0.27572 0.55735,-0.33523c0.14201,0.09481 0.20152,0.19786 0.25426,0.34963z" fill="#c3dadb"/><path d="M254.05253,190.51119c-0.08509,-0.02637 -0.17953,-0.03866 -0.26462,-0.06501c-0.19997,0.1074 -0.21792,0.28802 -0.34215,0.4358c-0.15822,-0.03209 -0.18711,-0.14265 -0.32662,-0.20277c0.03665,-0.20874 0.21279,-0.35736 0.18566,-0.58585c0.22199,0.05187 0.32151,0.13345 0.44235,0.22169c0.08763,0.06099 0.2552,0.07909 0.30534,0.19618z" fill="#5aa0a4"/><path d="M264.79085,190.84093c-0.18803,0.12796 -0.32171,0.28979 -0.57611,0.36334c-0.13016,-0.07419 -0.17774,-0.1567 -0.24918,-0.28035c0.14555,-0.14117 0.3336,-0.26915 0.54547,-0.35592c0.13016,0.07419 0.18711,0.14265 0.27978,0.27292z" fill="#bdd3d4"/><path d="M256.84376,191.02029c0.20507,-0.03807 0.38884,-0.08269 0.57257,-0.12736c0.14456,0.12946 0.20666,0.26721 0.25935,0.41897c-0.1387,0.09245 -0.30633,0.07445 -0.45518,0.02831c-0.19143,-0.05927 -0.38278,-0.11855 -0.37679,-0.31991z" fill="#bdd4d5"/><path d="M266.12444,186.91975c-0.21871,0.13541 -0.42805,0.25683 -0.6467,0.39223c-0.01604,-0.3605 0.05557,-0.66002 0.64007,-0.76678c0.08076,0.10967 0.0271,0.2285 0.00665,0.37451z" fill="#bbd2d3"/><path d="M255.0813,190.08494c-0.13265,-0.10883 -0.16155,-0.21937 -0.19041,-0.32992c0.06553,-0.0982 0.19062,-0.09334 0.31315,-0.12309c0.09188,-0.02232 0.19311,-0.05867 0.33008,-0.03316c0.13265,0.10883 0.03908,0.24912 0.16239,0.37196c-0.21187,0.08677 -0.40754,0.11083 -0.61513,0.11423z" fill="#c3dadb"/><path d="M260.03218,186.7425c0.21111,-0.23935 0.42215,-0.47873 0.71831,-0.69175c0.11821,0.05357 0.09272,0.13031 0.04585,0.20045c-0.10048,0.18898 -0.22214,0.37135 -0.33453,0.53971c-0.08427,0.12627 -0.23062,0.11482 -0.42962,-0.04844z" fill="#b1c6c7"/><path d="M261.73612,191.84173c0.1174,-0.09907 0.27314,-0.10165 0.405,-0.14544c0.24252,-0.0942 0.44327,-0.04893 0.65169,0.10031c-0.2587,0.1569 -0.59817,0.20409 -0.88574,0.25047c-0.13951,-0.06014 -0.18462,-0.10798 -0.17094,-0.20533z" fill="#bbd2d3"/><path d="M262.97557,187.48498c0.09284,-0.29294 0.40087,-0.48531 0.69702,-0.69836c-0.00347,0.23597 -0.14399,0.44641 -0.25376,0.64941c-0.063,0.13287 -0.14554,0.14118 -0.44324,0.04892z" fill="#bad1d2"/><path d="M265.19868,189.88373c0.07395,0.15837 0.16663,0.28866 0.24058,0.44702c-0.06809,0.06356 -0.19743,0.14203 -0.30549,0.22705c-0.33601,-0.18874 -0.32662,-0.20277 -0.18363,-0.37859c0.06557,-0.09819 0.15236,-0.18984 0.24855,-0.29547z" fill="#b5cbcc"/><path d="M262.72119,183.02106c0.18454,0.10797 0.26538,0.21765 0.34614,0.32732c-0.14806,0.10651 -0.35567,0.10991 -0.56069,0.14799c-0.1021,-0.11625 -0.18279,-0.22593 -0.28486,-0.3422c0.10552,-0.11968 0.31565,-0.08848 0.49948,-0.13314z" fill="#c0d7d8"/><path d="M263.16159,190.59023c0.10882,0.0676 0.14714,0.16408 0.17605,0.27463c-0.18554,0.16261 -0.43739,0.27086 -0.71305,0.33783c-0.15822,-0.03209 -0.17267,-0.08736 -0.16835,-0.17065c0.22801,-0.14949 0.4561,-0.29892 0.70543,-0.44177z" fill="#bdd4d4"/><path d="M265.6001,185.43672c-0.04333,-0.1658 -0.05603,-0.33903 -0.09938,-0.50485c0.13189,-0.04378 0.25696,-0.03892 0.38455,0.00059c0.10882,0.0676 0.10462,0.1509 0.12157,0.2408c0.00509,0.06931 0.01018,0.13859 0.01524,0.20791c-0.11999,0.06443 -0.24252,0.09421 -0.42202,0.05553z" fill="#b6cccc"/><path d="M261.59783,183.85823c-0.07394,-0.15837 -0.13602,-0.29609 -0.23126,-0.46107c0.07742,-0.07758 0.19742,-0.14204 0.41696,-0.12482c0.1021,0.11626 0.19472,0.24654 0.30867,0.38344c-0.15997,0.08588 -0.28933,0.16435 -0.49438,0.20241z" fill="#c1d9d9"/><path d="M266.1604,186.13512c-0.15997,0.08588 -0.30122,0.14375 -0.4969,0.16775c-0.07395,-0.15837 -0.02281,-0.31186 -0.01172,-0.44385c0.1174,-0.09907 0.26375,-0.0876 0.39818,-0.09675c0.05442,0.0338 0.09694,0.04698 0.08763,0.06099c0.00757,0.10394 0.01523,0.20789 0.02284,0.31186z" fill="#b7cdce"/><path d="M266.48241,187.69095c-0.06711,-0.20706 0.01713,-0.33332 0.05884,-0.47277c0.02981,-0.16008 0.19489,-0.17667 0.39052,-0.20072c0.07395,0.15837 0.03221,0.2978 0.04237,0.43641c-0.13618,0.12712 -0.37694,0.10334 -0.49182,0.23705z" fill="#b6cccc"/><path d="M263.83596,191.42556c-0.18123,0.07931 -0.32246,0.13714 -0.4731,0.209c-0.20078,-0.04527 -0.32836,-0.0848 -0.43039,-0.20106c0.21187,-0.08675 0.40246,-0.1801 0.58369,-0.2594c0.21948,0.01717 0.24835,0.12774 0.36661,0.18127c-0.01872,0.02804 -0.01618,0.06272 -0.04681,0.07017z" fill="#c2dada"/><path d="M261.44677,182.93102c-0.12934,0.07843 -0.22122,0.10078 -0.34631,0.09591c-0.13696,-0.02551 -0.18457,-0.10797 -0.26283,-0.183c-0.057,-0.06846 -0.19649,-0.12859 -0.1522,-0.2334c0.16251,-0.05122 0.33691,-0.08187 0.54707,-0.05063c0.09271,0.13032 0.14283,0.24743 0.21428,0.37115z" fill="#bbd2d3"/><path d="M253.6252,189.07511c0.19566,-0.02404 0.33948,-0.04721 0.50451,-0.06381c0.08335,0.14434 0.09348,0.28293 0.12489,0.42814c-0.14121,0.05782 -0.28506,0.08104 -0.43389,0.03486c-0.03321,-0.02722 -0.06632,-0.05442 -0.0689,-0.08908c-0.04761,-0.08244 -0.08584,-0.17901 -0.12664,-0.31014z" fill="#bbd2d3"/><path d="M265.78215,190.04752c-0.15224,-0.2334 -0.15224,-0.2334 -0.09935,-0.50482c0.18125,-0.0793 0.36074,-0.04062 0.58021,-0.02341c-0.06727,0.21622 -0.29534,0.36564 -0.48087,0.52828z" fill="#adc2c3"/><path d="M255.31178,190.39337c0.14121,-0.05782 0.30635,-0.07442 0.46452,-0.04234c0.08335,0.14434 0.15479,0.268 0.21679,0.40577c-0.45518,0.02831 -0.47644,0.02174 -0.68136,-0.36342z" fill="#b5cbcc"/><path d="M264.93081,184.67066c-0.17188,0.0653 -0.30381,0.10907 -0.49945,0.13309c-0.12328,-0.12283 -0.10281,-0.26889 -0.15552,-0.42068c0.07062,-0.0289 0.13188,-0.04377 0.19312,-0.05868c0.06126,-0.01489 0.13441,-0.00915 0.21695,-0.01745c0.16331,0.10138 0.21345,0.21848 0.2449,0.36371z" fill="#bbd1d2"/><path d="M252.78927,188.02041c-0.14713,-0.16409 -0.05605,-0.33906 -0.0875,-0.48422c0.15061,-0.07183 0.30888,-0.03979 0.47398,-0.05638c0.04589,0.20045 -0.00526,0.35394 -0.17202,0.48849c-0.02811,0.04209 -0.13186,0.0438 -0.21442,0.05211z" fill="#b6cccd"/><path d="M257.48225,182.71873c-0.27058,0.1363 -0.55309,0.25193 -0.8143,0.37417c-0.13951,-0.06016 -0.19646,-0.12857 -0.21601,-0.25314c0.31565,-0.08848 0.63132,-0.1769 0.98268,-0.20351c0.02381,0.04126 0.03568,0.06185 0.04762,0.08247z" fill="#acc1c2"/><path d="M262.13786,186.54826c-0.05791,0.20216 -0.13711,0.39775 -0.30137,0.56693c-0.06812,0.06357 -0.16932,0.09994 -0.27565,0.06699c-0.04248,-0.01317 -0.10884,-0.06761 -0.09951,-0.08164c0.11918,-0.21704 0.40849,-0.38137 0.67654,-0.55231z" fill="#a7bbbb"/><path d="M264.55668,183.96214c-0.09872,0.07103 -0.2331,0.08015 -0.3888,0.08273c-0.09271,-0.13032 -0.18536,-0.26061 -0.27806,-0.39091c0.15997,-0.08588 0.29693,-0.06039 0.44577,-0.01426c0.09949,0.08162 0.17095,0.20532 0.22107,0.32246z" fill="#b7cdcd"/><path d="M258.39446,191.61921c0.19997,-0.1074 0.39564,-0.13137 0.61261,-0.14886c0.14201,0.09481 0.2322,0.19045 0.23298,0.34307c-0.31137,0.00512 -0.55722,-0.08797 -0.8456,-0.19421z" fill="#b7cece"/><path d="M252.44108,186.38874c-0.0365,-0.21449 0.17028,-0.37053 0.15755,-0.54376c0.1412,-0.05782 0.21697,-0.01744 0.23141,0.03784c0.03143,0.14517 0.03224,0.29783 -0.06143,0.43809c-0.04936,0.03552 -0.05876,0.04951 -0.32758,0.06784z" fill="#b4cacb"/><path d="M258.2673,183.08049c-0.09949,-0.08158 -0.13521,-0.14347 -0.13096,-0.2268c0.24252,-0.0942 0.49439,-0.20239 0.86703,-0.22241c-0.13793,0.24509 -0.42297,0.32609 -0.73608,0.44921z" fill="#b2c8c9"/><path d="M254.34127,189.77103c0.1021,0.11625 0.17095,0.20532 0.15729,0.30268c-0.05873,0.04953 -0.13191,0.04383 -0.20508,0.03808c-0.29262,-0.02294 -0.33344,-0.1541 -0.34614,-0.32732c0.12506,0.00486 0.25951,-0.00429 0.39391,-0.01344z" fill="#b5cbcb"/><path d="M264.49409,187.78612c0.10047,-0.18901 0.20343,-0.34329 0.37959,-0.49189c0.1157,0.01893 0.13015,0.07418 0.10209,0.11626c-0.04431,0.10482 -0.0673,0.21621 -0.11156,0.32099c-0.07493,0.11223 -0.17869,0.11392 -0.37008,0.05462z" fill="#91a3a3"/><path d="M256.6,185.00205c0.0365,0.21449 -0.10649,0.3903 -0.21886,0.55863c-0.01872,0.02804 -0.07999,0.04296 -0.13188,0.0438c-0.04248,-0.01317 -0.08763,-0.06099 -0.07826,-0.07503c0.06727,-0.21622 0.23155,-0.38541 0.429,-0.52742z" fill="#99abac"/><path d="M255.26092,185.16287c-0.18632,0.01001 -0.29265,-0.02295 -0.28834,-0.10627c0.02301,-0.1114 0.15917,-0.23849 0.36597,-0.39455c0.05528,0.18645 -0.04774,0.34074 -0.07759,0.50079z" fill="#93a5a6"/><path d="M260.56968,192.08989c0.27315,-0.10161 0.53437,-0.22387 0.84225,0.00695c-0.28254,0.11562 -0.55896,0.03 -0.84225,-0.00695z" fill="#9aadad"/><path d="M261.97603,189.4441c0.01111,-0.13202 0.03157,-0.27804 0.03333,-0.39604c0.11063,-0.05038 0.18381,-0.04467 0.30202,0.00892c0.02208,0.15925 -0.15663,0.27319 -0.2196,0.40605c-0.04248,-0.01317 -0.06379,-0.01977 -0.1157,-0.01891z" fill="#c5dddd"/><path d="M259.26343,185.89484c0.06966,0.24169 -0.05211,0.4241 -0.25885,0.58013c-0.00936,0.01403 -0.06128,0.01488 -0.1038,0.00173c-0.07317,-0.00573 -0.08763,-0.06098 -0.06888,-0.08905c0.08168,-0.16093 0.2579,-0.30953 0.43153,-0.4928z" fill="#aec2c3"/><path d="M253.03842,188.30077c0.07395,0.15837 0.04414,0.31843 0.02363,0.46448c-0.1106,0.05041 -0.18634,0.00999 -0.19143,-0.05929c-0.01953,-0.12457 -0.04839,-0.23511 -0.03725,-0.36711c-0.02381,-0.04126 0.06807,-0.06355 0.20503,-0.03806z" fill="#9caeaf"/><path d="M263.62624,183.31836c-0.16333,-0.10139 -0.25343,-0.19702 -0.34613,-0.32733c0.31392,0.02952 0.51976,0.14407 0.77495,0.22314c-0.04937,0.03553 -0.06812,0.06357 -0.09874,0.07097c-0.11318,0.01573 -0.21692,0.01746 -0.33009,0.03321z" fill="#a9bebf"/><path d="M256.58974,187.55541c0.1676,0.01808 0.24326,0.05843 0.30028,0.12691c-0.0724,0.14688 -0.22045,0.25338 -0.52676,0.32784c0.06984,-0.18156 0.15413,-0.30781 0.22646,-0.45471z" fill="#b9cfd0"/><path d="M263.5015,189.27328c0.1106,-0.05037 0.20506,-0.03805 0.29948,-0.02574c0.08759,0.061 0.04083,0.13112 -0.24774,0.44812c-0.19901,-0.16325 -0.03224,-0.29783 -0.05173,-0.42238z" fill="#869797"/><path d="M257.96869,185.5276c-0.21363,0.20471 -0.15331,0.46044 -0.5634,0.53656c0.05538,-0.23682 0.18895,-0.39858 0.5634,-0.53656z" fill="#93a4a5"/><path d="M266.05881,187.44118c-0.14044,0.21045 -0.23411,0.35076 -0.32774,0.49106c-0.01872,0.02804 -0.07999,0.04296 -0.14376,0.02316c-0.0213,-0.00659 -0.05443,-0.03382 -0.06635,-0.05442c0.06979,-0.18154 0.17283,-0.33591 0.53783,-0.45983z" fill="#94a5a6"/><path d="M264.66286,189.37911c0.16505,-0.01657 0.23819,-0.01088 0.30709,0.07819c-0.05365,0.11883 -0.11663,0.25171 -0.2741,0.37224c-0.14708,-0.16411 -0.05349,-0.30437 -0.03305,-0.45039z" fill="#abbfc0"/><path d="M266.89023,186.73368c-0.12506,-0.00486 -0.17694,-0.00401 -0.21953,-0.0172c-0.10286,-0.26889 -0.10282,-0.26886 0.09204,-0.44552c0.15648,0.15007 0.06289,0.29035 0.12742,0.46274z" fill="#acc0c1"/><path d="M261.29562,191.50206c0.20254,-0.07271 0.39309,-0.16606 0.61688,-0.23219c0.09188,-0.02232 0.17696,0.00406 0.18458,0.10797c-0.24253,0.09419 -0.47566,0.17433 -0.80146,0.12419z" fill="#9fb2b2"/><path d="M265.37156,184.58706c-0.06889,-0.0891 -0.10457,-0.15094 -0.10028,-0.23423c0.07999,-0.04296 0.16251,-0.05126 0.27821,-0.03234c0.11821,0.05358 0.15646,0.15007 0.19472,0.24657c-0.09872,0.07103 -0.23568,0.0455 -0.37259,0.01999z" fill="#aec2c3"/><path d="M259.32797,188.75922c-0.12328,-0.12283 -0.05773,-0.2211 -0.01348,-0.32587c0.02814,-0.04207 0.11058,-0.05036 0.1744,-0.0306c0.04248,0.01317 0.08765,0.06102 0.06889,0.08905c0.00761,0.10394 -0.09111,0.17499 -0.22982,0.26741z" fill="#91a2a3"/><path d="M262.29248,182.70201c-0.39313,0.16605 -0.42374,0.17354 -0.56911,-0.10856c0.18886,0.02466 0.38455,0.0006 0.56911,0.10856z" fill="#869696"/><path d="M254.07937,184.77986c-0.1165,-0.17155 0.00348,-0.23592 0.09031,-0.3276c0.14454,0.12946 0.14453,0.12945 -0.09031,0.3276z" fill="#555f5f"/><path d="M260.87795,188.78225c-0.04681,0.07016 -0.11236,0.16833 -0.24171,0.24682c-0.10711,-0.18557 -0.06966,-0.24168 0.08088,-0.31354c0.04001,-0.02149 0.10383,-0.00171 0.16076,0.06674z" fill="#93a5a6"/><path d="M266.87705,187.83014c0.10032,0.23425 0.06036,0.25574 -0.30806,0.19238c0.02304,-0.1114 0.15485,-0.1552 0.30806,-0.19238z" fill="#8b9b9c"/><path d="M253.96051,184.15049c-0.02984,0.16008 -0.12601,0.26569 -0.2222,0.37138c-0.1557,0.00257 -0.20078,-0.04528 -0.16328,-0.10139c0.07492,-0.11223 0.17109,-0.2179 0.38546,-0.26999z" fill="#9aacad"/><path d="M266.63966,185.72484c0.08076,0.10967 0.18028,0.19131 0.08413,0.29698c-0.00939,0.01404 -0.04,0.02149 -0.06126,0.01491c-0.17267,-0.08737 -0.15904,-0.18474 -0.02286,-0.31185z" fill="#5f6a6b"/><path d="M257.97796,188.20559c-0.02635,-0.07588 0.01111,-0.13205 0.06985,-0.18156c0.04001,-0.02149 0.10124,-0.03636 0.1344,-0.00914c0.03321,0.02722 0.05702,0.06844 0.03823,0.0965c-0.03749,0.05611 -0.09619,0.10565 -0.2425,0.09418z" fill="#636e6f"/><path d="M264.94308,183.84483c0.17696,0.00405 0.27392,0.05096 0.2841,0.18956c-0.20759,0.00341 -0.26458,-0.065 -0.2841,-0.18956z" fill="#4a5354"/></g><g data-paper-data="{&quot;index&quot;:null}" fill="#000000" fill-rule="nonzero" stroke="#000000" stroke-width="1.2" stroke-linecap="butt" stroke-linejoin="miter"><path d="M242.85655,202.71348c-0.09809,-1.88411 2.09719,-4.41655 2.8261,-6.61401c0.78479,-2.36588 0.10881,-4.2224 1.37087,-5.26635c0.88154,-0.72918 2.42163,-0.41587 3.19767,-0.14663c1.88708,0.65468 2.3363,4.44301 1.00336,8.46144c-1.33292,4.01843 -3.94326,6.7453 -5.83031,6.09061c-0.85512,-0.29667 -2.48638,-0.96375 -2.56768,-2.52504z"/><path d="M245.47453,205.92829c-0.11341,-2.62833 2.69133,-7.97566 2.69133,-7.97566c0,0 0.15351,-3.96872 0.18243,-4.05111c1.84194,-5.25121 5.12922,-4.17593 8.84505,-2.88678c1.76849,0.61354 4.24465,2.29034 4.66269,4.27938c0.47411,2.2558 -0.93358,4.69032 -1.91223,7.64067c-1.84156,5.55178 -5.64518,9.49414 -9.41931,8.18476c-1.66136,-0.57638 -4.89846,-1.68084 -5.04994,-5.19127z"/></g></g></g></svg>