<svg version="1.1" xmlns="http://www.w3.org/2000/svg" xmlns:xlink="http://www.w3.org/1999/xlink" width="142.65311" height="113.75454" viewBox="0,0,142.65311,113.75454"><g transform="translate(-159.92473,-153.60759)"><g data-paper-data="{&quot;isPaintingLayer&quot;:true}" fill-rule="nonzero" stroke="none" stroke-width="1" stroke-linecap="butt" stroke-linejoin="miter" stroke-miterlimit="10" stroke-dasharray="" stroke-dashoffset="0" style="mix-blend-mode: normal"><path d="M278.35243,209.45158l0.70279,0.44418l-0.48397,1.21046l-0.8655,-0.49942z" fill="#ffffff"/><path d="M279.84273,213.74824l1.32337,0.50921l-0.35553,1.38747l-1.44192,-0.59801z" fill="#ffffff"/><path d="M251.69403,153.73935c1.66692,4.85562 1.06933,8.01448 5.72642,11.11406c3.06889,2.04129 16.6352,8.72158 19.53894,10.91423c5.27246,3.9821 10.45091,12.09663 10.60297,18.90545c1.66834,0.63195 10.3535,3.14742 10.94332,3.57307c1.38483,0.99908 1.89087,4.12655 1.45021,5.71535c-3.4757,-0.71604 -6.92048,-1.57802 -10.43127,-2.1334c-0.58761,0.68888 -0.6498,1.24688 -0.42498,1.72491c6.98757,4.356 13.54318,13.80049 13.47772,16.87459c-1.5686,-0.35504 -10.86036,-4.7069 -13.30064,-5.89372c-0.63095,1.70369 -1.63907,3.19174 -2.65527,4.6824c-1.87117,-2.27615 -2.70261,-5.28378 -4.92708,-7.28248c-0.56442,-0.50814 -1.25335,-1.09128 -1.89362,-1.57198c0,0 -0.34127,1.30039 -0.76018,1.37685c-0.70877,0.12912 -2.08314,-0.84213 -2.07545,-1.17525c0.0068,-0.33357 0.81537,-1.48902 0.81537,-1.48902c-1.676,-0.90439 -3.70634,-1.6105 -5.59452,-1.47533c0.26691,3.34431 3.27976,5.58498 6.42836,7.10646c0.14601,0.07028 0.89093,-1.67166 1.07302,-1.77053c0.18386,-0.09796 1.9553,0.55645 2.06547,0.86566c0.11507,0.3106 -0.38363,2.07415 -0.26241,2.11825c0.53297,0.1988 1.04778,0.38043 1.52786,0.54428c2.11897,3.98609 3.24765,9.14242 5.19858,13.20873c-5.92372,-1.24058 -17.25107,-10.29419 -20.53731,-15.02188l-0.79402,1.03707c2.25771,3.18867 10.51028,14.60887 10.24606,14.92296c-0.49666,0.07034 -1.4331,0.4334 -1.8549,0.76341c1.72547,3.23854 3.56585,1.84752 5.49961,4.63546c2.61355,-0.63891 5.06306,-0.59334 6.19293,2.26153c2.91662,-0.62301 4.47548,1.52803 6.98992,2.02817c2.89473,0.57805 6.5893,-0.29819 7.90194,3.4064c0.30438,0.85358 0.29206,1.94382 -0.07529,2.79494c-0.68058,1.56367 -3.69844,2.38875 -5.22048,2.35303c-3.9549,-0.09185 -6.68674,-4.84908 -11.30246,-2.36722c-1.31744,-0.05789 -2.77478,-0.30989 -3.68559,-1.35045c-1.77386,0.66222 -2.52904,-0.28516 -3.20585,1.6748c-0.28618,0.82865 -1.27208,0.94167 -3.51142,0.29705c-0.73717,0.80103 -2.725,1.01888 -4.25933,-0.80053c-0.43417,-0.51896 -0.82464,-1.25709 -0.60666,-1.97011c-0.91078,-0.16309 -2.09084,-0.04389 -2.63017,-0.97398c-1.22957,-0.86788 0.42535,-2.45837 -2.10829,-1.98864c1.31125,2.87586 5.12668,4.30404 3.71919,8.1076c-1.26479,3.42836 -3.46031,6.53736 -6.02009,9.11152c1.04707,0.96317 4.58626,3.53405 4.915,4.55066c-1.54999,2.3026 -4.01967,4.06904 -6.79934,4.21841c-2.08581,-2.09397 -3.6014,-4.97448 -5.72171,-7.15464c-2.83814,-2.91967 -5.1813,-6.29029 -7.80516,-9.4002c-1.69972,4.88751 -6.02528,8.25949 -11.08114,8.70934c-0.0599,1.89614 0.07165,3.83528 0.72267,5.61127c-1.4204,1.71172 -8.26368,-0.81996 -9.65776,-2.11251c0.06616,-0.87728 0.81568,-1.38213 1.28915,-2.01487c1.48058,-1.96964 1.34745,-5.96786 1.51864,-8.36651c0.14326,-1.91412 -1.05068,-3.50752 -1.39324,-5.31542c-1.28721,-0.22442 -4.45951,-0.35702 -4.45951,-0.35702c-0.43906,-0.52258 -0.29658,-1.56863 -0.2688,-2.22177c0.2214,-5.3289 0.17669,-9.63799 -2.67936,-14.31501c-2.20225,0.00691 -3.43114,-0.42133 -5.01011,-1.92542c-2.14003,-2.03635 -6.13526,0.51948 -7.79253,-2.60211c-0.59432,-0.14483 -1.22818,-0.50203 -1.77466,0.00344c-2.20798,2.03641 -2.98694,3.36656 -6.34676,3.43341c-1.71368,0.03354 -3.45547,-0.72702 -4.61281,-1.98822c-1.60052,0.68134 -3.39728,0.65773 -4.85366,-0.29597c-6.79548,4.14286 -17.42016,5.36633 -24.43793,1.49708c-2.33554,-1.28822 -6.09727,-3.09112 -6.72665,-5.90315c-0.47155,-2.11326 2.32796,-1.58622 0.87079,-3.94023c-1.8297,-2.95823 3.18793,-4.2658 2.83498,-6.24867c-0.22861,-1.2889 -0.65304,-3.00278 0.47685,-4.0858c1.34704,-1.29426 2.93739,-0.64383 3.33778,-3.15655c0.24279,-1.52273 0.34235,-3.03342 1.84811,-3.81272c1.47296,-0.76352 3.54921,0.05037 3.85883,-2.14033c0.21401,-1.50601 0.91208,-2.75063 2.36282,-3.38958c1.12555,-0.4954 2.44107,0.13225 3.43245,-0.59478c0.38071,-1.86442 3.13525,-5.38708 4.90459,-3.26531c3.47417,4.16331 -2.35932,13.95911 10.1483,19.58265c2.04703,-0.51334 5.18045,-0.33773 6.02926,2.07435c3.68355,-0.33698 6.5635,0.7065 8.0937,4.25174c3.22207,-1.08563 3.47688,2.40078 6.06975,2.09621c-5.71355,-6.79544 -1.37847,-10.0412 4.25117,-14.61259c-3.63264,-4.47253 -13.61182,-10.073 -13.61182,-10.073c7.56415,-1.9999 18.47514,0.2893 26.34253,1.29953c-2.16467,-4.0241 -2.14844,-10.24452 -6.82838,-12.32105c-0.18689,-0.37659 0.09105,-0.76792 0.39402,-0.9734c13.45991,0.88579 7.73983,6.7175 17.14602,10.70553c-0.1685,-3.2074 -1.22468,-6.56157 0.06637,-9.69898c0.58772,-0.23717 11.05567,2.6363 12.73624,2.51165c0.35859,-1.88923 1.1307,-3.71499 1.17714,-5.65286c-1.12215,-0.73759 -2.65797,-0.78149 -3.63696,-1.75473c0.06091,-1.63048 1.23041,-2.04495 1.79433,-3.19874c0.24591,-0.50211 -0.29494,-0.95098 -0.62277,-1.22786c-3.05685,-2.59351 -7.66901,-5.76108 -5.42949,-12.40683c1.7251,-2.83759 1.67672,-5.93292 2.96687,-8.74609c0.1702,-0.34988 0.43218,-0.29324 0.70159,-0.12605z" fill="#272525"/><path d="M284.66094,193.72199c-8.9969,-2.65265 -18.13926,-4.04282 -27.25278,-6.14964c0.32178,-1.59799 1.80787,-6.50054 1.73805,-7.55982c-0.04612,-0.68874 -2.75305,-0.2909 -3.96478,-1.0137c-0.57585,-2.19701 2.5851,-1.58374 2.85341,-2.92375c-2.47962,-4.06068 -10.87265,-3.89753 -7.5239,-14.11983c4.53471,9.47462 29.46817,12.65682 33.85313,28.88681c0.22271,0.83535 0.30932,2.00883 0.29689,2.87993z" fill="#5b76df"/><path d="M297.49549,201.84649c-4.72071,-0.58629 -31.61703,-6.04329 -52.77636,-5.37146c-0.39241,-3.03783 -0.50572,-6.12484 -0.19437,-9.18986c12.94244,1.95326 47.51804,10.43974 51.51811,12.10629c1.53545,0.63916 1.64248,0.90183 1.45262,2.45503z" fill="#5b76df"/><path d="M286.8589,202.12572c0.1868,-0.36475 0.62673,-0.51268 0.98263,-0.33041c0.3559,0.18227 0.49298,0.62571 0.30618,0.99045c-0.1868,0.36475 -0.62673,0.51268 -0.98263,0.33041c-0.3559,-0.18227 -0.49298,-0.6257 -0.30618,-0.99045z" fill="#272525"/><path d="M287.63591,202.57196l-2.41384,-1.51707c0.64033,0.38186 3.44876,-0.19882 2.41384,1.51707z" fill="#ffffff"/><path d="M283.01864,200.76796c0,0 12.90048,9.68062 16.74638,16.19818c-4.60938,-1.55616 -8.90678,-4.20413 -13.00997,-6.77063c1.48951,-0.16183 4.36928,-0.48913 4.36928,-0.48913c-2.97717,-1.16517 -6.13279,-2.05209 -9.36894,-1.96348c-0.31305,1.43394 5.22765,5.19501 5.99868,5.79773c-0.35414,1.0118 -0.64096,2.04572 -1.12342,3.00754c-3.21777,-4.96451 -7.30443,-10.49422 -15.4416,-10.47529c-0.98662,7.04247 4.18405,10.54325 10.41691,11.21749c1.41613,2.9453 2.27582,6.1303 3.24166,9.25283c-7.75593,-5.04948 -13.49631,-9.66893 -18.23547,-17.84049c2.82787,-1.99196 4.33027,-5.43458 4.94993,-8.74841l1.77375,-0.00166c-1.21182,6.1418 7.34385,8.35727 8.65663,2.1346c0.10174,-0.48606 0.10148,-0.92211 0.25699,-1.41883z" fill="#9ed400"/><path d="M277.8755,204.18974c-2.40098,0.25455 -2.37321,-1.83332 -2.41933,-4.00509c1.69827,-0.29085 3.35565,0.27256 5.04704,0.2321c0.02386,2.439 -1.07465,3.60775 -2.62771,3.77299z" fill="#ffffff"/><path d="M243.57537,215.30015c1.92516,-3.64068 3.10083,-5.52829 7.29446,-5.88942c4.21334,-0.36451 9.56107,-4.40955 11.79584,-7.97032c-0.19291,-1.42004 -1.59584,0.61296 -1.93703,0.93256c-2.69444,2.53217 -14.59075,9.56008 -25.2754,1.70858c-1.8234,-1.34053 -4.07991,-2.01304 -6.34663,-1.8605c6.19581,-2.89953 9.38342,0.32495 14.72117,1.38903c2.97286,0.59222 8.17764,-1.38573 10.47574,-3.3524l0.30667,-0.91253c4.80357,0.5276 9.66181,-0.0212 14.47089,0.35305c-0.43251,2.92208 -2.87954,5.86183 -5.15468,7.6279c-5.2658,4.0825 -16.55677,3.02668 -20.35102,7.97403z" fill="#ffffff"/><path d="M278.44895,201.67913c0.32677,-0.63806 1.09697,-0.89653 1.72027,-0.57732c0.62331,0.31921 0.86371,1.09524 0.53694,1.7333c-0.32677,0.63806 -1.09696,0.89653 -1.72027,0.57732c-0.62331,-0.31921 -0.86371,-1.09524 -0.53694,-1.7333z" fill="#272525"/><path d="M234.03811,191.16564c1.89886,2.09484 4.99718,3.68158 7.84862,4.01949c0.72608,1.22796 0.5062,2.87926 1.54906,3.99982c3.11646,-0.3836 6.2001,-0.19416 9.23954,0.07937c-3.0889,2.16162 -7.21325,2.99078 -10.79119,2.44147c-10.9603,-3.62109 -9.36861,-13.34559 -14.66933,-16.76355c6.16802,1.50725 4.54902,4.14864 6.8233,6.22341z" fill="#ffffff"/><path d="M266.21188,213.15017c-0.63526,1.54756 -2.09442,2.45746 -2.9771,3.87606c-1.04716,-1.92606 -2.19954,-3.74759 -3.43708,-5.50376l4.22086,-1.42126z" fill="#5b76df"/><path d="M258.53247,212.26429c3.11817,5.73816 6.32749,11.43874 9.99465,16.82888c-0.6954,0.17978 -5.35528,1.26048 -5.71998,1.18942c-0.91419,-0.18056 -7.32913,-14.88406 -8.17996,-16.80957l-0.49577,-0.2539l-0.32546,0.63551c1.05381,3.1833 2.40979,6.24385 3.59109,9.37785c-0.96994,1.5166 -1.97645,3.06952 -3.39657,4.19715c-10.04926,-2.41862 -20.69697,-10.39052 -28.02766,-17.56249c-4.1908,-4.10001 -7.5238,-9.03478 -12.57116,-12.10503c6.38362,-0.25635 12.74867,0.29796 19.09282,0.79438c-4.01867,0.49117 -7.66839,2.60489 -9.41006,6.46426c4.18294,-1.29237 10.28921,-0.29198 14.34,2.74539c2.18593,1.63741 5.7625,1.8647 8.40729,2.11251c-3.07486,2.09691 -5.06834,6.14302 -5.16362,10.08269c1.85581,-1.22808 3.18902,-3.26756 5.13395,-4.32304c3.82597,-2.07177 8.78294,-3.02616 12.99028,-3.88135z" fill="#5b76df"/><path d="M274.03931,229.832c-0.58902,0.23314 -1.0292,0.38184 -1.71904,0.4038c-2.61682,-3.7467 -5.40066,-7.47221 -7.95453,-11.34622l1.30366,-1.52545c2.84122,4.12902 5.50949,8.38294 8.36992,12.46787z" fill="#5b76df"/><path d="M299.85092,245.40348c-0.71124,1.07947 -1.8909,1.7595 -3.16031,1.59026c-2.83342,-1.1848 -6.08758,-3.49175 -9.3728,-2.76764c-1.37063,0.63391 -2.83237,-0.27422 -3.8248,-0.78247c1.22769,-0.97564 2.54214,-1.90572 3.23977,-3.47414c3.41103,-0.55294 5.63245,3.15193 9.0281,2.43157c1.68683,0.06056 3.91645,1.20241 4.09004,3.00242z" fill="#a16520"/><path d="M282.26733,242.17328c-2.05041,-1.03547 -0.72346,-2.61078 0.85468,-3.19797c-1.58363,-0.83686 -1.88061,0.64688 -2.5697,0.1277c0.34272,-0.57049 0.58778,-1.21572 0.60094,-1.88421c1.104,-0.0694 2.15293,-0.31866 2.8844,0.62893c1.73944,2.25476 0.83897,3.01486 -1.77033,4.32555z" fill="#9ed400"/><path d="M275.33414,234.1308c-0.02629,0.36066 -0.63763,0.63518 -1.03392,0.59289c-0.88734,-0.50723 -1.42938,-1.48028 -1.83177,-2.32676c1.32998,-0.87045 2.06407,1.05707 2.86568,1.73387z" fill="#9ed400"/><path d="M276.53463,237.68583c-1.14286,2.05608 -1.31764,6.30894 0.7863,7.72909c-0.17001,0.51626 -0.83611,0.57959 -1.26434,0.74228c-1.62412,-0.62616 -1.58918,-2.02164 -2.12519,-3.38819c-0.18852,-0.48528 -1.00829,-0.48604 -1.16769,0.04239c-0.20235,0.66935 0.59812,2.57693 0.83258,3.25988c-2.25667,0.87223 -2.48483,-2.54774 -2.11339,-3.91582c0,0 -2.21669,1.5949 -3.13597,0.3208c0.05792,-3.26559 2.84351,-4.63094 1.17243,-6.46195l-3.53357,-3.89375c1.44236,0.13647 3.17265,-0.55256 3.91222,-0.39739c1.43011,1.26606 3.04952,3.58406 4.40602,4.92366c1.25545,-1.35015 2.74553,-1.43192 4.21127,-0.89138c0.24285,0.37042 1.04827,0.74582 0.97588,1.24916c-0.18198,1.24603 -2.12463,0.21294 -2.95654,0.68121z" fill="#9ed400"/><path d="M261.38099,232.86771c0.63781,0.27271 1.37982,-0.14947 2.08931,-0.21418c0.69562,0.67757 1.45629,1.3334 2.06677,2.0741c-2.64119,1.69546 -4.10938,-2.15733 -6.70256,-1.77539c-0.43444,-0.16744 -0.89634,-0.08379 -1.33225,-0.14524c-1.5163,-1.41806 -3.4195,-1.16363 -5.11995,-1.71315c-0.71792,0.38171 -1.02629,-0.84579 -1.43263,-1.37521c1.02255,-0.06392 2.88754,1.69338 3.93579,0.35733c1.27807,-1.37677 2.10886,-3.30393 3.46824,-4.53233c1.08148,2.26271 2.15436,4.95246 3.02728,7.32407z" fill="#ffffff"/><path d="M247.01211,228.34249c3.42564,4.00139 5.24112,9.31283 6.93237,14.56628c0.4837,2.01275 0.9819,4.19246 1.08792,6.22751c-2.46538,0.02271 -4.91501,-0.3802 -7.32936,-0.54707c0.47555,-3.07193 -3.02481,-9.57095 -3.53933,-9.78165c-0.92497,2.92716 -3.43273,5.90434 -5.43319,7.75491c-4.05105,0.27797 -7.97328,-0.92852 -11.96638,-1.37137c0.2779,-5.52916 -0.32469,-12.09009 -3.76173,-16.57818c-2.0977,-3.64151 -9.62634,-11.85074 -8.50043,-13.81888c1.77551,-3.10276 4.25579,-4.66829 6.96452,-6.59655c4.75073,4.14746 15.59835,15.68664 25.54562,20.14501z" fill="#5b76df"/><path d="M281.20725,243.02128c-0.22273,0.74205 -1.23508,1.18532 -2.04968,1.25125c-1.27992,-0.65548 -1.23856,-2.66898 -1.46403,-3.95964c0.25556,-0.29718 0.6517,-0.14711 1.00539,-0.23225c1.23842,0.73871 1.65245,1.8608 2.50832,2.94063z" fill="#9ed400"/><path d="M266.96446,239.47181c-0.97394,-0.33812 -1.82567,-1.52257 -3.27641,-0.92968c-1.45773,-0.21175 -2.45503,-1.41908 -4.032,-0.67624c-1.85696,-0.04208 -3.26725,-1.46091 -4.95338,-1.73345c-0.97394,-0.33812 -0.81949,-1.65105 -1.30981,-2.33022c1.99753,0.16687 4.58718,0.10333 6.13912,1.85984c2.29226,0.21221 4.45063,1.69282 6.82452,1.14015c0.64563,0.06437 1.21575,0.67767 1.85917,0.73979z" fill="#a16520"/><path d="M191.42641,213.08462c-3.58766,2.40279 -3.58983,8.83489 -1.88969,12.24134c-0.15858,0.44347 -1.00896,0.50905 -1.41081,0.71895c-4.00732,2.09462 -10.04404,3.89593 -14.45144,2.86678c-2.94198,-0.68763 -8.26001,-2.77524 -10.05443,-5.31094c-1.62458,-2.29256 0.4097,-1.57881 0.8594,-3.40902c0.54741,-2.22284 -3.01836,-2.45807 -0.77451,-4.08626c1.21786,-0.88405 3.63784,-0.83788 3.70746,-2.86049c0.05202,-1.5429 -2.10685,-2.23058 -1.28505,-3.59833c4.81404,-1.48261 2.22835,-4.74824 3.74373,-5.78327c1.07463,-0.73382 3.04454,0.57949 4.85365,-0.72193c1.8879,-1.35657 -0.572,-5.32851 2.81064,-4.9792c0.80376,0.08468 1.36994,0.22522 2.20918,0.06292c1.49565,-0.28789 2.00235,-5.10329 3.58804,-2.11834c0.59912,1.12924 -0.0396,4.79621 0.41333,6.52243c0.66606,2.5342 1.59785,4.92248 2.96828,7.13432c1.16174,1.87127 2.92921,2.28771 4.7122,3.32104z" fill="#e7c45e"/><path d="M261.28666,240.78508c-0.49149,2.63796 1.12483,5.87902 -1.50951,7.83752c-1.03156,0.76599 -1.52044,1.88294 -2.47279,2.6895l-0.865,-0.55085c1.94747,-1.87434 -0.26226,-9.80099 -1.18151,-12.05141c1.64338,0.2529 3.52788,0.59221 4.61505,1.98824c0.47272,0.00054 0.96539,-0.11904 1.41376,0.087z" fill="#ffffff"/><path d="M269.98022,249.93357c-0.13639,2.45355 -0.65426,3.8399 -0.82163,6.30568c-0.19322,2.87385 1.02906,4.81994 -0.2778,7.37177c-1.13775,2.22161 -2.98983,2.78647 -5.36183,3.421c-1.71739,0.46419 -4.43538,-1.37379 -3.44315,-2.88347c1.05826,-1.58596 3.92251,-3.1773 2.64755,-4.53131c-1.29765,-1.36676 -2.07663,-1.28483 -3.34591,-2.43932c2.37504,-3.77543 4.85354,-4.83291 5.51343,-8.83958c0.42122,-2.58631 -0.8077,-4.03023 -1.71114,-6.48264c3.83005,-1.28996 7.01574,4.1255 6.80047,8.07787z" fill="#7e4094"/><path d="M264.04564,260.24048c0.11832,0.62235 -1.19803,1.37844 -1.61196,1.8664c-0.89739,0.99761 -1.65755,1.95541 -2.89305,2.44393c-0.51993,0.2101 -0.56782,-0.71211 -0.80998,-1.20015l3.2594,-3.37646c0.45375,0.34473 1.95228,-0.28885 2.0556,0.26627z" fill="#272525"/><path d="M265.416,263.06234c-0.90874,1.06146 -2.59402,1.58142 -3.87731,1.9702c-3.9714,-4.54379 -7.42427,-9.52309 -11.23693,-14.20354c2.72163,0.11751 5.40021,0.66351 6.84009,3.23336c2.43832,-0.1388 3.21532,-2.74852 4.4024,-4.42805c1.63871,-2.32008 2.03689,-3.72503 1.69622,-6.56334c0.66127,1.0386 1.54488,4.52572 1.09441,5.69492c-0.15608,0.41666 -4.90668,6.0292 -5.77605,7.41305c0.08408,0.55538 1.83867,2.3067 1.83867,2.3067c0.13276,-0.17806 0.39794,-0.77703 0.83414,-1.25583c-0.02414,-0.32582 -0.72864,-0.73156 -0.61531,-0.88923c1.67577,-2.22133 4.69549,-6.25083 5.13624,-7.38568c0.55533,-1.42221 -0.53577,-4.58754 -1.07045,-5.95229c0.678,1.29771 2.83797,3.53864 2.69803,5.01629c-0.31307,3.38209 -6.53104,9.22511 -6.94823,10.42145c-0.23758,0.70523 3.91585,3.30307 4.98408,4.62199z" fill="#9e73bf"/><path d="M179.36443,199.4742c0.21398,5.35188 4.52142,13.44504 9.82241,15.02844c0.19784,0.53949 -0.37796,0.93107 -0.75322,1.16582c-5.26925,0.1316 -11.82096,-11.66128 -9.35757,-16.34196z" fill="#272525"/><path d="M205.8073,217.98787c-2.75501,-1.61652 -6.10118,1.993 -5.58504,4.99982c0.35198,2.03742 2.7964,2.23992 4.39155,2.62429c-5.85762,6.45786 -15.34208,-6.65495 -5.51854,-9.99307c2.19461,-0.74448 5.64406,0.23563 6.71203,2.36896z" fill="#e7c45e"/><path d="M220.29696,227.97677c-1.96706,0.42958 -2.79538,-1.97425 -4.62657,-2.3694c-2.81355,-0.60276 -3.28193,0.61457 -5.9165,-1.47844c-1.91604,-1.51942 -5.86661,1.83113 -7.49807,-1.648c0.74676,-5.49914 4.17516,-0.2088 6.68071,-2.35459c1.48205,-0.03757 1.63836,1.79179 3.34384,1.82033c4.65497,0.07625 6.09998,1.79148 8.0166,6.03009z" fill="#a16520"/><path d="M197.49663,214.1598c-2.41134,1.69857 -4.8933,4.55077 -4.46986,7.7101c0.18611,1.38286 0.94794,2.52127 1.44867,3.78999c-4.39288,0.94105 -6.2503,-10.17008 1.6718,-11.81589c0.69206,-0.0197 0.95762,-0.10167 1.34939,0.31581z" fill="#dc511b"/><path d="M176.25954,209.91577c3.03835,2.51775 6.98601,4.37879 10.34508,6.47432c0.13703,0.44543 0.78032,0.61309 0.6214,1.23053c-0.89443,0.82948 -1.93412,-0.29507 -2.89045,-0.46575c-5.85752,-2.30659 -11.44093,-5.85922 -13.59709,-11.83049l0.21743,-0.42456c1.73904,1.69392 3.0987,3.72497 5.30362,5.01596z" fill="#272525"/><path d="M240.20657,251.91581c-1.69713,1.37675 -3.87851,1.86285 -6.0327,2.3112c0,0 0.73546,2.94275 0.18831,4.21298l-2.6445,-0.23081c0.96216,-3.30472 0.62013,-7.11443 -0.73244,-10.4822c1.13914,0.32049 2.23442,0.32077 2.97821,0.36239c0.41112,1.33181 1.21973,4.57267 2.94351,2.93768c3.06331,-2.01294 5.0251,-5.23153 7.00747,-8.49688c-0.00212,3.36944 -1.46489,6.73686 -3.70785,9.38564z" fill="#9e73bf"/><path d="M236.24215,257.2108l-0.0719,-1.58614c3.70882,-0.63862 7.21514,-2.58422 8.53218,-6.37568c0.68091,-1.96797 0.35511,-4.03018 0.49632,-6.05658c2.68747,7.96347 -0.86916,12.98869 -8.9566,14.0184z" fill="#7e4094"/><path d="M167.54946,214.70608c0,0 9.3275,3.5691 13.8737,4.16488c1.40569,0.18173 5.3671,-0.67807 5.98405,1.24563c0.26571,0.82816 -0.59179,0.8901 -1.12527,0.97529c-5.38235,0.86799 -16.21111,-0.95215 -18.73248,-6.3858z" fill="#272525"/><path d="M236.39357,249.58781c-0.43429,-0.27522 -0.54753,-0.868 -0.83105,-1.33452c0.56613,-0.08532 1.08052,0.23092 1.60055,0.33433z" fill="#ffffff"/><path d="M187.58129,223.94928c-2.89455,3.75655 -18.16473,3.08853 -22.17215,0.8396l0.01185,-0.53209c3.2735,-0.25149 6.35179,0.4464 9.69774,0.10169c1.83281,-0.18937 10.52934,-1.72395 11.39873,-1.4888c0.44297,0.11787 1.05727,0.55494 1.06383,1.07961z" fill="#272525"/><path d="M234.82646,263.43695c-1.67627,0.18865 -3.18117,-0.51015 -4.58471,-1.3323c0.57332,-0.8299 0.34457,-2.56827 1.83485,-2.16121c0.85157,0.22826 1.92379,0.20776 2.65324,0.71615c0.11177,0.60663 0.31938,2.17128 0.09662,2.77736z" fill="#7e4094"/></g></g></svg>