<svg version="1.1" xmlns="http://www.w3.org/2000/svg" xmlns:xlink="http://www.w3.org/1999/xlink" width="610.59624" height="239" viewBox="0,0,610.59624,239"><defs><linearGradient x1="318.5" y1="218" x2="530.5" y2="218" gradientUnits="userSpaceOnUse" id="color-1"><stop offset="0" stop-color="#ffea66"/><stop offset="1" stop-color="#ffea66" stop-opacity="0"/></linearGradient><linearGradient x1="130.63537" y1="172.13284" x2="108.22197" y2="171.11799" gradientUnits="userSpaceOnUse" id="color-2"><stop offset="0" stop-color="#000000"/><stop offset="1" stop-color="#000000" stop-opacity="0"/></linearGradient></defs><g transform="translate(80.09624,-98.5)"><g data-paper-data="{&quot;isPaintingLayer&quot;:true}" fill-rule="nonzero" stroke-linejoin="miter" stroke-miterlimit="10" stroke-dasharray="" stroke-dashoffset="0" style="mix-blend-mode: normal"><path d="M336.5,199c0,6.48829 -15.02266,44.59042 -24.11527,43.3321c-13.56115,-1.87671 -26.944,-46.00403 -62.40712,-48.34381c-29.61161,-1.95371 7.82017,38.39709 -29.62619,50.50659c-7.392,2.39044 -90.47266,-2.08581 -97.7257,-1.8791c-14.29931,0.40752 -74.65412,2.18394 -87.90443,-4.88084c-25.63955,-13.67046 -2.50387,-41.23492 -22.36256,-41.23492c-66.45997,0 -86.19612,38.66771 -91.06186,42.42539c-3.51381,2.71362 0.7274,-25.21939 0.7274,-39.92539c0,-35.07008 92.78355,-63.5 207.23786,-63.5c56.68013,0 50.92239,32.97225 88.33668,44.27039c38.13647,11.51622 118.90118,1.52695 118.90118,19.22961z" fill="#9966ff" stroke="none" stroke-width="NaN" stroke-linecap="butt"/><path d="M187.5,189.5c0,17.12083 -21.01318,9 -42,9c-20.98682,0 -44,8.12083 -44,-9c0,-17.12083 23.01318,-53 44,-53c20.98682,0 42,35.87917 42,53z" fill="#5c3e9a" stroke="none" stroke-width="none" stroke-linecap="butt"/><path d="M39.5,234c0,24.57667 -22.60962,44.5 -50.5,44.5c-27.89038,0 -50.5,-19.92333 -50.5,-44.5c0,-24.57667 22.60962,-44.5 50.5,-44.5c27.89038,0 50.5,19.92333 50.5,44.5z" fill="#1d1431" stroke="none" stroke-width="0" stroke-linecap="butt"/><path d="M320.5,231c0,24.57667 -22.60962,44.5 -50.5,44.5c-27.89038,0 -50.5,-19.92333 -50.5,-44.5c0,-24.57667 19.60962,-39.5 47.5,-39.5c27.89038,0 53.5,14.92333 53.5,39.5z" fill="#1d1431" stroke="none" stroke-width="0" stroke-linecap="butt"/><path d="M323.5,231.5l-13,-45l193,-88l27,239z" fill="url(#color-1)" stroke="none" stroke-width="0" stroke-linecap="butt"/><path d="M179.53764,170.38199c-0.60842,13.43725 -12.48536,23.81485 -26.5279,23.17902c-14.04253,-0.63583 -24.93303,-12.04431 -24.3246,-25.48156c0.60842,-13.43725 12.48536,-23.81485 26.5279,-23.17902c14.04253,0.63583 24.93303,12.04431 24.3246,25.48156z" fill="none" stroke="#000000" stroke-width="4.5" stroke-linecap="butt"/><path d="M147.18383,194.17171l-29.40699,-1.56546c0,0 -2.38655,-0.44775 -1.9994,-1.33264c0.88777,-2.02911 7.21856,-10.59651 7.21856,-10.59651l-11.49393,-4.4976c0,0 -2.0863,-0.99922 -2.35564,-2.11178c-0.25056,-1.03498 11.55441,-9.87113 11.55441,-9.87113c0,0 -8.09526,-3.97991 -10.24274,-6.06017c-0.84326,-0.81687 12.04462,-7.89151 20.87275,-11.22418c4.31986,-1.63077 10.22205,-4.11391 14.94085,-4.63128c7.82409,-0.85784 13.71237,1.7029 13.71237,1.7029" fill="none" stroke="#000000" stroke-width="3" stroke-linecap="round"/><path d="M115.90907,192.52167c0,0 -0.46612,-1.42642 0.84953,-3.30169c1.64789,-2.34882 7.12986,-5.35475 5.58452,-7.7886c-2.00183,-3.15281 -14.61925,-3.26621 -12.89402,-7.03904c1.41661,-3.09794 10.9246,-8.13703 11.01829,-10.20633c0.09349,-2.06473 -4.52655,-1.01532 -7.01898,-3.88206c-3.54477,-4.07711 -1.74818,-4.00135 -1.74818,-4.00135c0,0 12.04662,-6.93463 17.84736,-9.12132c5.44239,-2.0516 15.95062,-3.61939 15.95062,-3.61939c0,0 -15.54121,13.05738 -18.03472,21.00143c-2.76409,8.80611 13.93638,28.17674 13.93638,28.17674z" data-paper-data="{&quot;index&quot;:null}" fill="url(#color-2)" stroke="none" stroke-width="0" stroke-linecap="butt"/><path d="M154.34918,185.3465c0,0.99501 -4.63399,5.5 -6,5.5c-1.35928,0 -5.33333,-6.16613 -5.33333,-7.16667c0,-1.05855 11.33333,0.60812 11.33333,1.66667z" fill="#ff0000" stroke="#000000" stroke-width="2.5" stroke-linecap="butt"/><path d="M152.01585,170.8465c0,2.76142 -1.27343,5 -3.66667,5c-2.39323,0 -2.66667,-2.23858 -2.66667,-5c0,-2.76142 0.27343,-5 2.66667,-5c2.39323,0 3.66667,2.23858 3.66667,5z" fill="#070606" stroke="#000000" stroke-width="5" stroke-linecap="butt"/><path d="M166.18252,170.67983c0,2.48528 -1.12419,4.5 -3.33333,4.5c-2.20914,0 -2.83333,-1.84805 -2.83333,-4.33333c0,-2.48528 0.62419,-4.66667 2.83333,-4.66667c2.20914,0 3.33333,2.01472 3.33333,4.5z" fill="#070606" stroke="#000000" stroke-width="5" stroke-linecap="butt"/><path d="M146.26585,166.43811h-4.33333" fill="none" stroke="#000000" stroke-width="5" stroke-linecap="round"/><path d="M164.09918,166.10478l6.33333,0.5" fill="none" stroke="#000000" stroke-width="5" stroke-linecap="round"/></g></g></svg>