<svg version="1.1" xmlns="http://www.w3.org/2000/svg" xmlns:xlink="http://www.w3.org/1999/xlink" width="44.66683" height="37.95152" viewBox="0,0,44.66683,37.95152"><g transform="translate(-217.66659,-161.08603)"><g data-paper-data="{&quot;isPaintingLayer&quot;:true}" fill="#9b7547" fill-rule="nonzero" stroke="#7d5e39" stroke-width="0.5" stroke-linecap="butt" stroke-linejoin="miter" stroke-miterlimit="10" stroke-dasharray="" stroke-dashoffset="0" style="mix-blend-mode: normal"><path d=""/><path d="M259.02821,163.95685c0,0.67618 -0.33076,1.28835 -0.86553,1.73149l-0.10401,-0.22693l-0.00967,-0.01209l-0.0123,-0.03443l-0.20328,-0.30492l-1.19018,-1.08198l-1.0143,-1.24837l-1.16784,-0.87588c0.46352,-0.25029 1.01704,-0.39574 1.61157,-0.39574c1.63227,0 2.95553,1.09638 2.95553,2.44885z"/><path d=""/><path d=""/><path d=""/><path d="M222.29029,172.43666c0,-1.07061 0.76696,-1.98346 1.84343,-2.33576l-0.08207,0.09575l-0.30492,0.60983l-0.11005,0.49523l-0.28802,0.41763l-0.30492,0.81311l-0.07228,0.63246l-0.28071,0.5502c-0.25429,-0.37374 -0.40046,-0.81107 -0.40046,-1.27845z"/><path d=""/><path d=""/><path d="M262.08341,176.57826c0,0.4146 -0.12435,0.80513 -0.34383,1.1474l-0.04952,-0.53483l0.17822,-0.71287v-0.81311l-0.0028,-0.01122c0.1405,0.2853 0.21794,0.59747 0.21794,0.92464z"/><path d="M262.03161,181.5086c0,0.75797 -0.4156,1.43551 -1.0683,1.8847l0.06054,-1.30156l0.43788,-1.75151v-0.26471l0.00227,-0.01022c0.35693,0.40474 0.56762,0.90363 0.56762,1.4433z"/><path d="M222.09778,190.62271c-0.33057,-0.17161 -0.56478,-3.89645 0.07645,-4.16946c0.05865,-0.02497 0.14232,-0.04865 0.24818,-0.07107l0.20095,1.00473l0.49558,1.04622l0.22416,1.13575l0.58858,1.25072c-0.93005,-0.02349 -1.61626,-0.0839 -1.83391,-0.19689z"/><path d=""/><path d="M221.41626,188.1251c-1.56232,0 -2.82885,-1.11531 -2.82885,-2.49108c0,-1.37579 1.26653,-2.49107 2.82885,-2.49107c0.1908,0 0.37719,0.01663 0.5574,0.04835l0.07864,0.26681l-0.04826,0.39814l0.10164,0.81311l0.12799,0.33063l-0.01686,0.35414l0.40656,2.03278l0.19481,0.41126c-0.41324,0.20803 -0.89181,0.32692 -1.4019,0.32692z"/><path d="M221.24737,193.52946c-1.63227,0 -2.95552,-1.13419 -2.95552,-2.5333c0,-1.3991 1.32323,-2.53331 2.95552,-2.53331c0.77675,0 1.48352,0.25684 2.01102,0.67686l0.08471,0.42918l0.81311,1.72786l0.02216,0.02714c-0.18751,1.24429 -1.42827,2.20558 -2.931,2.20558z"/><path d="M255.65238,194.32043c-0.19995,0.0448 -0.71796,0.09803 -1.42602,0.15078l0.045,-0.05375l0.2504,-0.11811l1.11803,-0.91475l0.28811,-0.38689l0.17166,-0.103c-0.06878,0.7531 -0.22361,1.37563 -0.44718,1.42572z"/><path d="M259.9749,189.77561c0,1.35247 -1.32322,2.44885 -2.95552,2.44885c-0.06619,0 -0.13186,-0.0018 -0.19697,-0.00535l0.71139,-1.18565l0.14992,-0.1749l0.04084,-0.01265l0.04199,-0.08397l0.7611,-0.88795l0.60983,-1.21967l0.10364,-0.46638l0.01045,-0.01742c0.45058,0.42982 0.72333,0.99106 0.72333,1.60509z"/><path d="M259.9231,194.70594c0,1.35247 -1.32321,2.44885 -2.95551,2.44885c-1.63227,0 -2.95551,-1.09638 -2.95551,-2.44885c0,-0.00565 0.00002,-0.01129 0.00007,-0.01693l0.08149,-0.05926l0.17773,-0.21228l0.2504,-0.11811l1.11803,-0.91475l0.28811,-0.38689l0.41364,-0.24819l0.40656,-0.40656l0.04913,-0.08188c0.05638,-0.00265 0.11318,-0.004 0.17036,-0.004c1.63227,0 2.95551,1.09639 2.95551,2.44886z"/><path d=""/><path d=""/><path d=""/><path d="M227.0734,163.82709c0,-1.37579 1.26652,-2.49106 2.82884,-2.49106c0.64719,0 1.24363,0.19139 1.7203,0.51339l-0.03262,0.02175l-1.17425,0.72261l-0.12387,0.12668l-0.16686,0.05959l-0.30492,0.20328l-0.09453,0.10399c-0.0924,0.05664 -0.18375,0.11481 -0.27403,0.17448l-0.06179,0.02602l-0.31811,0.23858c-0.60298,0.44211 -1.15187,0.95365 -1.6349,1.52283c-0.2313,-0.36107 -0.36327,-0.77803 -0.36327,-1.22214z"/><path d=""/><path d="M254.38665,195.72978c-0.28909,0.06562 -1.22502,0.10896 -2.43577,0.12691l1.02472,-0.41383l1.11803,-0.81311l0.17773,-0.21228l0.2504,-0.11811l0.29322,-0.23991c-0.02048,0.85476 -0.15555,1.6084 -0.42835,1.67032z" data-paper-data="{&quot;index&quot;:null}"/><path d="M255.6974,198.492c-1.6323,0 -2.95551,-1.09638 -2.95551,-2.44885c0,-0.18355 0.02437,-0.36239 0.07058,-0.53441l0.16313,-0.06588l1.11803,-0.81311l0.17773,-0.21228l0.2504,-0.11811l0.84298,-0.68971c0.1092,-0.01013 0.22019,-0.01534 0.33266,-0.01534c1.6323,0 2.95552,1.09638 2.95552,2.44885c0,1.35247 -1.32325,2.44885 -2.95552,2.44885z" data-paper-data="{&quot;index&quot;:null}"/><path d="M255.6456,193.56167c-0.07212,0 -0.14364,-0.00214 -0.21447,-0.00635l0.20866,-0.17072l0.28811,-0.38689l0.41364,-0.24819l0.40656,-0.40656l0.7857,-1.3095l0.14992,-0.1749l0.04084,-0.01265l0.04199,-0.08397l0.56943,-0.66433c0.17027,0.30929 0.26514,0.65307 0.26514,1.01521c0,1.35247 -1.32324,2.44886 -2.95551,2.44886z" data-paper-data="{&quot;index&quot;:null}"/><path d="M242.79601,198.78755c-0.0368,0 -0.07344,-0.00062 -0.1099,-0.00185l0.75246,-0.0627c-0.20643,0.04222 -0.42153,0.06454 -0.64254,0.06454z" data-paper-data="{&quot;index&quot;:null}"/><path d="" data-paper-data="{&quot;index&quot;:null}"/><path d="M221.91503,187.56334c0,-0.5078 0.17254,-0.98011 0.46882,-1.37395l0.23951,1.19753l0.49558,1.04622l0.22416,1.13575l0.09678,0.20566c-0.90606,-0.41519 -1.52484,-1.24956 -1.52484,-2.2112z" data-paper-data="{&quot;index&quot;:null}"/><path d="M221.61946,182.20119c0,-0.35674 0.08603,-0.69625 0.24127,-1.00414l0.07818,1.87636l0.11338,0.3847l-0.00659,0.05438c-0.27051,-0.38253 -0.42624,-0.83132 -0.42624,-1.3113z" data-paper-data="{&quot;index&quot;:null}"/><path d="" data-paper-data="{&quot;index&quot;:null}"/><path d="M261.70815,183.42175c0,0.88845 -0.57103,1.66639 -1.42556,2.09562l0.04181,-0.10035l0.07462,-0.49433l0.2555,-0.42971l0.30492,-1.01639l0.06441,-1.38485l0.04723,-0.18892c0.3989,0.41744 0.63707,0.94514 0.63707,1.51893z" data-paper-data="{&quot;index&quot;:null}"/><path d="M261.65341,178.60112c-0.00733,0.13771 -0.02838,0.27247 -0.06205,0.40335z" data-paper-data="{&quot;index&quot;:null}"/><path d="M221.79897,173.54675c-0.64124,-0.27301 -0.40704,-3.99785 -0.07645,-4.16946c0.30826,-0.16003 1.55646,-0.2146 3.10609,-0.20815l-0.11925,0.26018l-0.65772,0.76734l-0.30492,0.60983l-0.11005,0.49523l-0.28802,0.41763l-0.30492,0.81311l-0.07228,0.63246l-0.27984,0.54848c-0.42935,-0.0474 -0.74275,-0.10281 -0.89265,-0.16663z" data-paper-data="{&quot;index&quot;:null}"/><path d="M221.04098,176.85704c-1.56233,0 -2.82885,-1.11528 -2.82885,-2.49107c0,-1.37578 1.26653,-2.49108 2.82885,-2.49108c0.7785,0 1.48355,0.27693 1.99505,0.72502l-0.06457,0.56501l-0.28931,0.56704l-0.30492,1.32131l0.00241,0.13255l-0.16285,0.34379l-0.10164,0.50819l0.01284,0.26962l-0.10184,0.24998l-0.02163,0.15141c-0.30074,0.09593 -0.62521,0.14824 -0.96355,0.14824z" data-paper-data="{&quot;index&quot;:null}"/><path d="M220.87211,171.53713c-1.6323,0 -2.95552,-1.13421 -2.95552,-2.5333c0,-1.39911 1.32325,-2.5333 2.95552,-2.5333c1.6323,0 2.9555,1.13421 2.9555,2.5333c0,1.39911 -1.32321,2.5333 -2.9555,2.5333z" data-paper-data="{&quot;index&quot;:null}"/><path d="" data-paper-data="{&quot;index&quot;:null}"/><path d="" data-paper-data="{&quot;index&quot;:null}"/><path d="M256.59231,162.84518c1.6323,0 2.95551,1.09638 2.95551,2.44885c0,0.61023 -0.26938,1.16832 -0.71498,1.5971l-0.06379,-0.08025l-0.03813,-0.1716l-0.01755,-0.03509l0.00307,-0.02457l-0.03993,-0.04914l-0.04723,-0.09447l-0.26633,-0.31072l-0.30428,-0.66388l-0.00967,-0.01209l-0.0123,-0.03443l-0.20328,-0.30492l-1.19018,-1.08198l-0.88141,-1.08481c0.26345,-0.06379 0.54214,-0.098 0.83047,-0.098z" data-paper-data="{&quot;index&quot;:null}"/><path d="" data-paper-data="{&quot;index&quot;:null}"/><path d="" data-paper-data="{&quot;index&quot;:null}"/><path d="" data-paper-data="{&quot;index&quot;:null}"/><path d="M229.52696,198.66397c-1.56233,0 -2.82885,-1.11527 -2.82885,-2.49106c0,-0.43276 0.12532,-0.83974 0.34573,-1.19435l0.00701,0.00701l0.58633,0.3518l0.43118,0.53069l0.81311,0.60983l1.24885,0.52583l1.11548,0.7693l0.3252,0.12195c-0.51499,0.47388 -1.24039,0.769 -2.04405,0.769z" data-paper-data="{&quot;index&quot;:null}"/><path d="" data-paper-data="{&quot;index&quot;:null}"/></g></g></svg>