<svg version="1.1" xmlns="http://www.w3.org/2000/svg" xmlns:xlink="http://www.w3.org/1999/xlink" width="75.19219" height="126.92042" viewBox="0,0,75.19219,126.92042"><defs><linearGradient x1="232.14851" y1="215.95971" x2="250.25545" y2="215.95971" gradientUnits="userSpaceOnUse" id="color-1"><stop offset="0" stop-color="#bebebe"/><stop offset="1" stop-color="#737373"/></linearGradient><linearGradient x1="232.14851" y1="215.95971" x2="250.25545" y2="215.95971" gradientUnits="userSpaceOnUse" id="color-2"><stop offset="0" stop-color="#bebebe"/><stop offset="1" stop-color="#737373"/></linearGradient><linearGradient x1="231.3764" y1="213.41423" x2="247.73556" y2="213.41423" gradientUnits="userSpaceOnUse" id="color-3"><stop offset="0" stop-color="#ffd166"/><stop offset="1" stop-color="#ac880b"/></linearGradient><linearGradient x1="224.96084" y1="196.95031" x2="243.11276" y2="196.95031" gradientUnits="userSpaceOnUse" id="color-4"><stop offset="0" stop-color="#ffd166"/><stop offset="1" stop-color="#ac880b"/></linearGradient><linearGradient x1="217.87945" y1="217.25531" x2="234.90299" y2="217.25531" gradientUnits="userSpaceOnUse" id="color-5"><stop offset="0" stop-color="#ffd166"/><stop offset="1" stop-color="#ac880b"/></linearGradient><linearGradient x1="218.40883" y1="235.40169" x2="233.09653" y2="235.40169" gradientUnits="userSpaceOnUse" id="color-6"><stop offset="0" stop-color="#bebebe"/><stop offset="1" stop-color="#737373"/></linearGradient><linearGradient x1="218.40883" y1="235.40169" x2="233.09653" y2="235.40169" gradientUnits="userSpaceOnUse" id="color-7"><stop offset="0" stop-color="#bebebe"/><stop offset="1" stop-color="#737373"/></linearGradient><linearGradient x1="218.67382" y1="181.5352" x2="236.09036" y2="181.5352" gradientUnits="userSpaceOnUse" id="color-8"><stop offset="0" stop-color="#bebebe"/><stop offset="1" stop-color="#737373"/></linearGradient><linearGradient x1="216.14102" y1="185.18317" x2="246.61113" y2="185.18317" gradientUnits="userSpaceOnUse" id="color-9"><stop offset="0" stop-color="#bebebe"/><stop offset="1" stop-color="#737373"/></linearGradient><linearGradient x1="218.93823" y1="182.73068" x2="230.56709" y2="189.33817" gradientUnits="userSpaceOnUse" id="color-10"><stop offset="0" stop-color="#bb951b"/><stop offset="1" stop-color="#d6ad39"/></linearGradient><linearGradient x1="223.51263" y1="173.57329" x2="234.42818" y2="179.7755" gradientUnits="userSpaceOnUse" id="color-11"><stop offset="0" stop-color="#bebebe"/><stop offset="1" stop-color="#737373"/></linearGradient><linearGradient x1="223.61499" y1="180.23585" x2="228.82505" y2="183.19619" gradientUnits="userSpaceOnUse" id="color-12"><stop offset="0" stop-color="#bb951b"/><stop offset="1" stop-color="#d6ad39"/></linearGradient><linearGradient x1="223.46769" y1="181.49967" x2="227.92377" y2="184.0316" gradientUnits="userSpaceOnUse" id="color-13"><stop offset="0" stop-color="#bb951b"/><stop offset="1" stop-color="#d6ad39"/></linearGradient><linearGradient x1="223.26476" y1="179.45268" x2="224.16857" y2="179.96622" gradientUnits="userSpaceOnUse" id="color-14"><stop offset="0" stop-color="#bb951b"/><stop offset="1" stop-color="#d6ad39"/></linearGradient><linearGradient x1="222.98148" y1="178.95188" x2="223.86486" y2="179.45382" gradientUnits="userSpaceOnUse" id="color-15"><stop offset="0" stop-color="#bb951b"/><stop offset="1" stop-color="#d6ad39"/></linearGradient></defs><g transform="translate(-208.22683,-117.114)"><g data-paper-data="{&quot;isPaintingLayer&quot;:true}" stroke-miterlimit="10" stroke-dasharray="" stroke-dashoffset="0" style="mix-blend-mode: normal"><path d="M234.17257,193.38529l1.0089,-15.62125" fill="none" fill-rule="nonzero" stroke="#000000" stroke-width="6" stroke-linecap="round" stroke-linejoin="miter"/><g><g stroke-width="1.2"><path d="M241.24808,191.06582l3.82649,35.7578c0,0 6.25751,2.04113 5.01849,10.93788c-0.07064,0.50719 -0.46503,2.98602 -3.16541,3.08895c-2.58641,0.09859 -7.44437,-2.1491 -9.21755,-2.98561c-0.82356,-0.38852 -2.01416,-1.50492 -2.66963,-3.08332c-0.65994,-1.58922 -0.32409,-3.58842 -0.18498,-4.72505c0.05665,-0.46296 -2.70698,-37.11422 -2.70698,-37.11422" fill="url(#color-1)" fill-rule="evenodd" stroke="url(#color-2)" stroke-linecap="round" stroke-linejoin="round"/><path d="M241.88956,190.28728c0.49811,3.4781 3.17544,22.84005 3.17544,22.84005c0,0 1.56019,6.40479 1.61354,8.13435c0.06143,1.99192 0.23884,3.43451 0.23884,3.43451l-0.73008,-1.71822c0,0 0.47416,1.1891 0.63907,1.87018c0.51377,2.12172 0.90919,3.72495 0.90919,3.72495c0,0 -6.30443,-2.11392 -9.13535,0.14353c-2.83093,2.25746 -2.2556,7.92824 -2.2556,7.92824c0,0 -4.59886,-2.15768 -4.53097,-5.91165c0.01673,-0.92545 1.07679,-3.43616 1.07679,-3.43616c0,0 -0.55857,0.02193 -0.49987,-0.60751c0.01394,-0.14956 -1.10581,-32.40488 -1.00812,-33.10628c0,0 10.39251,-4.09648 10.50714,-3.29597z" fill="url(#color-3)" fill-rule="nonzero" stroke="#caa551" stroke-linecap="butt" stroke-linejoin="miter"/></g><g><g fill="none" fill-rule="nonzero" stroke="none" stroke-width="1" stroke-linecap="butt" stroke-linejoin="miter" font-family="sans-serif" font-weight="normal" font-size="12" text-anchor="start"/><path d="M230.2402,201.5255c-1.4401,-0.34788 -3.14006,-1.1142 -3.94935,-2.29781c-1.04404,-1.52689 -1.0158,-3.636 -1.33001,-5.26186c5.91673,1.52603 12.97065,0.24161 18.15192,-2.6162c-0.13363,1.11904 0.20057,6.10667 -1.91962,7.87192c-1.41073,1.17457 -5.7876,2.9636 -6.90335,3.21913c-2.16543,0.49596 -3.72358,-0.83647 -4.04956,-0.9152z" fill="url(#color-4)" fill-rule="evenodd" stroke="#caa551" stroke-width="1.2" stroke-linecap="round" stroke-linejoin="round"/></g><g stroke-width="1.2"><g fill-rule="evenodd" stroke-linecap="round" stroke-linejoin="round"><path d="M233.64637,199.03938c0,0 -2.84309,37.1711 -3.36189,37.29378c-1.48883,0.35207 -9.64778,-2.80064 -9.64778,-2.80064l5.24455,-37.37208" data-paper-data="{&quot;index&quot;:null}" fill="#ffab19" stroke="#001026"/><path d="M234.90299,198.44014c0,0 -0.66415,7.86031 -0.86031,12.028c-0.18814,3.99744 -0.29363,12.48883 -0.29363,12.48883c0,0 0.79756,6.17005 0.01781,7.69158c-0.36114,0.70474 -0.64573,-3.4835 -0.64573,-3.4835c0,0 0.31769,4.7216 0.34897,5.13778c0.21826,2.90368 -0.77779,6.71679 -3.38789,7.07905c-2.86571,0.39773 -7.61663,0.84695 -10.06577,-1.45031c-1.04207,-0.97745 -2.45361,-3.85474 -2.0737,-6.91983c0.42843,-3.45663 2.7292,-7.07781 2.7292,-7.07781l-2.11413,3.9473c0,0 -0.02204,-1.97095 0.32196,-3.41675c0.38631,-1.62362 1.88374,-5.85353 1.88374,-5.85353l4.53936,-23.80519" data-paper-data="{&quot;index&quot;:null}" fill="url(#color-5)" stroke="#caa551"/></g><path d="M233.09103,236.3431c-0.07762,2.28139 -0.71084,4.93202 -2.08526,6.30842c-1.37951,1.3815 -9.67044,0.83401 -10.95217,-0.85436c-1.21722,-1.60341 -1.71304,-4.5669 -1.63728,-6.7935c0.15554,-4.57122 3.56667,-7.97711 7.61899,-7.60722c4.05229,0.36988 7.21127,4.37546 7.05572,8.9467z" fill="url(#color-6)" fill-rule="nonzero" stroke="url(#color-7)" stroke-linecap="butt" stroke-linejoin="miter"/></g><g fill="none" fill-rule="nonzero" stroke="none" stroke-width="1" stroke-linecap="butt" stroke-linejoin="miter" font-family="sans-serif" font-weight="normal" font-size="12" text-anchor="start"/></g><path d="M217.23908,194.39739c1.27707,-1.57529 18.09317,-15.84303 18.09317,-15.84303c0,0 11.36531,1.82089 15.72051,2.8477c3.39063,0.79939 13.81203,3.39849 13.81203,3.39849" fill="none" fill-rule="nonzero" stroke="#000000" stroke-width="6" stroke-linecap="round" stroke-linejoin="miter"/><path d="M216.97066,164.81088l7.9462,-0.07574l-1.2588,0.90884" fill="none" fill-rule="nonzero" stroke="#000000" stroke-width="1" stroke-linecap="round" stroke-linejoin="miter"/><path d="M236.09036,180.69806c0,2.4641 -3.1111,4.46165 -6.94886,4.46165c-2.04451,0 -5.6992,1.68326 -7.94672,0.47339c-1.97129,-1.06118 -2.69907,-4.98204 -2.48487,-5.64542c0.66816,-2.06928 7.4576,-2.98787 9.73374,-2.98787c3.83775,0 7.64671,1.23416 7.64671,3.69825z" fill="url(#color-8)" fill-rule="nonzero" stroke="#737373" stroke-width="1" stroke-linecap="butt" stroke-linejoin="miter"/><path d="M227.57547,184.12504c-0.10881,-0.44294 -3.06323,6.95078 -3.54441,6.52776c-2.29455,-2.01725 -7.89004,-3.67243 -7.89004,-3.67243c0,0 12.43301,-6.46328 16.18846,-9.24636c1.03692,-0.76844 5.76031,-0.22418 6.04948,-0.45879c0.37345,-0.30301 17.77141,0.90789 17.77141,0.90789c0,0 -3.90082,3.68118 -3.94268,6.82544c-0.0003,0.02234 -10.44956,-1.27868 -10.45422,-0.92842c-0.02794,2.09839 0.83015,7.7594 0.83015,7.7594c0,0 -5.45037,1.17819 -8.16313,1.22526c-2.99055,0.05189 -9.93452,0.15435 -9.93452,0.15435c0,0 3.53437,-7.28314 3.0895,-9.0941z" fill="url(#color-9)" fill-rule="nonzero" stroke="#737373" stroke-width="2.5" stroke-linecap="butt" stroke-linejoin="miter"/><g stroke-linejoin="miter"><g data-paper-data="{&quot;index&quot;:null}" stroke-linecap="butt"><path d="M267.20581,161.48039c-3.99408,12.67317 -18.38485,19.68947 -32.14272,15.67137c-13.75785,-4.01811 -21.67295,-17.54905 -17.67885,-30.22223c3.99408,-12.67317 18.38485,-19.68947 32.14272,-15.67137c13.75785,4.01811 21.67295,17.54905 17.67885,30.22223z" fill="none" fill-rule="nonzero" stroke="#000000" stroke-width="4.5"/><g><g fill-rule="nonzero"><path d="M232.21092,135.07781l-0.00879,-0.0109" data-paper-data="{&quot;index&quot;:null}" fill="#ffab19" stroke="#000000" stroke-width="5"/><g data-paper-data="{&quot;index&quot;:null}" fill="none" stroke="none" stroke-width="1" font-family="sans-serif" font-weight="normal" font-size="12" text-anchor="start"/></g><path d="M232.21092,135.07781l-0.00879,-0.0109" data-paper-data="{&quot;index&quot;:null}" fill="#ffab19" fill-rule="nonzero" stroke="#000000" stroke-width="5"/><path d="M241.64697,155.274" fill="#001026" fill-rule="evenodd" stroke="#000000" stroke-width="5"/><g data-paper-data="{&quot;index&quot;:null}" fill="none" fill-rule="nonzero" stroke="none" stroke-width="1" font-family="sans-serif" font-weight="normal" font-size="12" text-anchor="start"/><g data-paper-data="{&quot;index&quot;:null}" fill="none" fill-rule="nonzero" stroke="none" stroke-width="1" font-family="sans-serif" font-weight="normal" font-size="12" text-anchor="start"/></g></g><path d="M228.9884,179.9286c-4.03706,-0.9895 -6.36105,-22.34046 -5.85581,-24.25067c0.06534,-0.24709 18.54053,10.95621 18.47956,11.18667c0,0 -8.58667,14.05352 -12.62375,13.06401z" fill="#ff0000" fill-rule="nonzero" stroke="#000000" stroke-width="3" stroke-linecap="butt"/><path d="M258.16965,138.85638l-38.09438,8.58067l-4.45375,13.1399l-5.20581,-34.79953c0,0 48.32299,-7.50673 59.76426,-8.66341c4.55892,-0.4609 10.03122,1.60726 10.03122,1.60726c0,0 -4.30755,2.97263 -6.20551,5.83357c-2.76453,4.16719 -8.78292,16.7596 -8.78292,16.7596z" fill="#000000" fill-rule="nonzero" stroke="#191919" stroke-width="3" stroke-linecap="round"/><path d="M224.43626,143.08837l21.59397,9.99174l-1.57726,5.96335" fill="none" fill-rule="nonzero" stroke="#000000" stroke-width="5" stroke-linecap="round"/><path d="M251.36179,160.35584l1.70115,-5.93298l18.02136,-12.77006" fill="none" fill-rule="nonzero" stroke="#000000" stroke-width="5" stroke-linecap="round"/></g><g fill-rule="nonzero" stroke-linecap="butt" stroke-linejoin="miter"><g data-paper-data="{&quot;index&quot;:null}" stroke="none" stroke-width="1"><path d="M222.69673,179.44542c-0.13692,-0.17414 -0.10174,-0.3201 -0.03123,-0.48141c0.13112,-0.24361 0.30781,-0.45097 0.45419,-0.68244c-0.01532,-0.07741 -0.03061,-0.15481 -0.05602,-0.21849c-0.47804,-1.38038 -0.3488,-2.66909 0.00315,-3.9329c0.07542,-0.26614 0.13567,-0.54443 0.29717,-0.76382c0.03031,-0.04113 0.05547,-0.10809 0.04524,-0.15972c-0.05617,-0.28384 0.07506,-0.46214 0.20121,-0.66623c0.10592,-0.17666 0.24226,-0.32915 0.36341,-0.49371c0.07066,-0.09599 0.17172,-0.16781 0.31343,-0.16387c0.14167,0.00398 0.26805,-0.06947 0.38428,-0.12922c0.62159,-0.41881 1.31928,-0.7119 2.0779,-0.89131c0.42991,-0.09294 0.86502,-0.09479 1.31533,-0.08451c1.32567,0.03241 2.58625,0.44789 3.78662,1.14161c0.53687,0.31829 1.03848,0.71721 1.49972,1.17097c0.3497,0.34336 0.59837,0.75856 0.82174,1.17536c0.71072,1.32625 0.93071,2.69702 0.78134,4.07848c-0.02485,0.2629 -0.11544,0.51696 -0.20607,0.77104c-0.05533,0.1734 -0.08539,0.3452 0.00602,0.54837c0.08629,0.17737 0.05627,0.34914 -0.01426,0.51045c-0.13112,0.24361 -0.29265,0.46302 -0.4542,0.68244c-0.05048,0.06858 -0.12127,0.09927 -0.19206,0.12993c-0.27812,0.0832 -0.47516,0.25265 -0.65187,0.46001c-0.35844,0.45421 -0.84867,0.76005 -1.32372,1.078c-0.18197,0.11621 -0.37906,0.22035 -0.5965,0.28661c-0.6978,0.22776 -1.39066,0.416 -2.15972,0.41316c-0.15142,0.20569 -0.32815,0.41304 -0.48964,0.63249c-0.06058,0.08229 -0.13124,0.17828 -0.26281,0.16058c-0.11637,-0.00559 -0.16177,0.08879 -0.22231,0.17107c-0.41897,0.53647 -0.82279,1.08503 -1.24177,1.6215c-0.91368,1.20845 -1.83738,2.43066 -2.78143,3.61494c-0.92388,1.15686 -1.80209,2.35001 -2.69558,3.53102c-0.14132,0.192 -0.30298,0.34609 -0.44427,0.53809c-0.68646,0.93257 -1.37292,1.86511 -2.07457,2.7856c-0.12113,0.16457 -0.21189,0.35331 -0.41413,0.4316c-0.07079,0.0307 -0.10605,0.11132 -0.15654,0.17989c-0.50473,0.68574 -1.0348,1.37306 -1.53954,2.05877c-0.02019,0.02742 -0.05048,0.06855 -0.07066,0.09599c-0.1463,0.23154 -0.33348,0.25661 -0.61695,0.18337c-0.94659,-0.25273 -1.75196,-0.76279 -2.41616,-1.53015c-0.16731,-0.19831 -0.31443,-0.42401 -0.42618,-0.66508c-0.0863,-0.17737 -0.06636,-0.33543 0.01937,-0.48465c0.25726,-0.44769 0.49929,-0.90746 0.76665,-1.36887c0.1917,-0.32591 0.42389,-0.64133 0.56996,-1.00348c0.31736,-0.79125 0.82721,-1.45117 1.19012,-2.20614c0.21173,-0.41863 0.38303,-0.84776 0.60998,-1.25432c0.24714,-0.43397 0.45382,-0.87841 0.67564,-1.31076c0.40845,-0.78404 0.8574,-1.55763 1.25062,-2.35375c0.49395,-1.06387 1.04872,-2.0795 1.60347,-3.09503c0.18661,-0.35171 0.37312,-0.70336 0.55974,-1.05507c0.30261,-0.54209 0.61533,-1.09783 0.91794,-1.63986c0.17149,-0.29848 0.30251,-0.60739 0.47398,-0.90586c0.16642,-0.32431 0.35819,-0.58482 0.54989,-0.91073zM223.21804,179.55563c0.12183,0.22735 0.26383,0.42729 0.45132,0.59816c0.30437,0.43773 0.69457,0.79156 1.0848,1.14537c0.48653,0.45216 1.02862,0.86155 1.55555,1.25885c0.6029,0.45774 1.26116,0.74209 1.94473,1.02482c0.081,0.02092 0.16197,0.04185 0.28344,0.07324c0.08077,-0.10969 0.16149,-0.21945 0.24225,-0.32914c0.02019,-0.02742 0.02519,-0.06694 0.04026,-0.12017c-0.10639,-0.08463 -0.2229,-0.15553 -0.34949,-0.21273c-0.21269,-0.1039 -0.38996,-0.2232 -0.60264,-0.32712c-0.51657,-0.28038 -0.95755,-0.69626 -1.44382,-1.01777c-0.25331,-0.17969 -0.52676,-0.33199 -0.75988,-0.53911c-0.50176,-0.46425 -1.05393,-0.85993 -1.51524,-1.37901c-0.11662,-0.13625 -0.24844,-0.28451 -0.36506,-0.42079c-0.00022,-0.13065 -0.14204,-0.19992 -0.19784,-0.28781c-0.06091,-0.11368 -0.12185,-0.22737 -0.29913,-0.34659c-0.02485,0.2629 -0.20167,0.40493 -0.26202,0.61784c0.06591,0.07417 0.06615,0.20479 0.19275,0.26199zM223.48276,180.5054c-0.25874,-0.40149 -0.33985,-0.4877 -0.55765,-0.61745c-0.10592,0.17666 -0.20178,0.33962 -0.30772,0.51627c-0.07066,0.09599 -0.06038,0.21291 0.00058,0.32662c0.04064,0.07582 0.1166,0.13622 0.15723,0.212c0.15733,0.27736 0.38548,0.52399 0.63875,0.70368c0.05596,0.15318 0.1775,0.24991 0.29913,0.34663c0.6739,0.55769 1.32255,1.11702 2.04694,1.60618c0.32421,0.21436 0.6585,0.41501 0.98767,0.58981c0.26841,0.12649 0.55198,0.26504 0.85553,0.24554c0.13124,-0.1783 0.26242,-0.35658 0.39369,-0.53487c-0.14177,-0.06929 -0.2684,-0.1265 -0.37974,-0.17159c-0.50635,-0.22879 -0.99254,-0.48497 -1.43834,-0.79604c-0.57748,-0.39406 -1.1045,-0.85669 -1.64163,-1.30559c-0.25843,-0.20552 -0.44106,-0.4812 -0.70954,-0.673c-0.06615,-0.20479 -0.20804,-0.33941 -0.34483,-0.4482zM214.132,197.26824c0.15224,0.25152 0.35491,0.43449 0.5778,0.59c0.0051,0.02578 0.02542,0.0637 0.04064,0.07581c0.37489,0.27642 0.76999,0.52541 1.19526,0.66793c0.24811,0.08861 0.48606,0.19089 0.74909,0.1609c0.56532,-0.768 1.13059,-1.53599 1.72625,-2.34512c-0.47583,-0.13929 -0.89118,-0.36083 -1.29631,-0.5961c-0.3596,-0.19901 -0.63331,-0.48193 -0.97271,-0.70837c-0.1216,-0.0967 -0.21794,-0.19502 -0.33953,-0.29174c-0.1319,-0.21363 -0.29924,-0.41193 -0.51712,-0.60697c-0.30285,0.41144 -0.4639,0.89214 -0.71616,1.30033c-0.24715,0.43398 -0.47912,0.88006 -0.71614,1.30031c0.06613,0.20478 0.16753,0.32895 0.26897,0.45308zM215.78105,194.2095c0.05598,0.15317 0.16744,0.26363 0.28903,0.3603c0.08122,0.15159 0.22814,0.24669 0.35482,0.36918c0.41553,0.35219 0.88152,0.63584 1.35248,0.87993c0.28357,0.13855 0.58736,0.24967 0.90109,0.28176c0.04039,-0.05485 0.09595,-0.09762 0.13632,-0.1525c0.4947,-0.672 0.97922,-1.33024 1.48905,-1.99016c0.54013,-0.70104 1.07016,-1.38838 1.6103,-2.08942c0.7824,-1.03021 1.56996,-2.03454 2.35234,-3.06476c0.88848,-1.14152 1.72123,-2.30561 2.64012,-3.42294c0.15654,-0.17989 0.29272,-0.39772 0.44417,-0.60342c-0.20756,-0.0781 -0.42013,-0.1167 -0.60752,-0.22226c-0.62286,-0.29968 -1.20034,-0.69374 -1.75766,-1.1152c-0.48639,-0.38682 -0.96271,-0.7874 -1.43903,-1.18797c-0.17742,-0.1846 -0.34971,-0.34336 -0.52714,-0.52795c-0.06101,-0.17898 -0.21802,-0.26036 -0.31944,-0.38451c-0.11662,-0.13625 -0.19782,-0.28779 -0.35993,-0.39497c-0.13135,0.11297 -0.18173,0.24687 -0.23717,0.35494c-0.4284,0.94214 -0.9885,1.80124 -1.4625,2.70708c-0.30761,0.5816 -0.61524,1.16317 -0.90759,1.75685c-0.40845,0.78404 -0.79159,1.56644 -1.18991,2.33677c-0.32266,0.63482 -0.64537,1.26963 -0.98327,1.89234c-0.353,0.67595 -0.71108,1.32608 -1.07925,1.98997c-0.32779,0.609 -0.66567,1.23175 -0.98836,1.86655c0.12669,0.12249 0.15734,0.27732 0.28902,0.36032zM234.38504,179.87013c-0.42523,-0.14252 -0.78486,-0.34155 -1.15452,-0.52681c-0.38489,-0.19738 -0.76466,-0.36893 -1.13943,-0.58004c-0.35959,-0.19903 -0.71421,-0.43757 -1.06367,-0.65031c-0.36471,-0.22484 -0.72939,-0.44962 -1.09918,-0.70021c-0.33937,-0.22644 -0.68388,-0.4787 -1.02328,-0.70514c-0.34449,-0.25224 -0.64863,-0.55933 -1.0335,-0.75672c-0.25861,-0.33611 -0.63341,-0.54724 -0.94255,-0.81481c-0.31418,-0.29337 -0.66384,-0.57143 -0.97804,-0.86481c-0.29898,-0.28128 -0.6031,-0.5884 -0.89203,-0.88339c-0.30412,-0.30712 -0.55264,-0.65699 -0.88704,-0.92289c-0.27269,0.30497 -0.34333,0.40095 -0.40345,0.74452c0.1319,0.21363 0.26385,0.4273 0.44636,0.63764c0.22813,0.24666 0.45622,0.4933 0.68946,0.76578c0.44613,0.50704 0.8872,0.98822 1.4192,1.41134c0.36482,0.29014 0.73974,0.56654 1.06414,0.91156c0.06591,0.07417 0.15711,0.14668 0.26848,0.19178c0.2127,0.10389 0.40019,0.27482 0.58261,0.41984c0.66881,0.53192 1.39819,0.98153 2.12249,1.40533c0.9472,0.57936 1.93463,1.03853 2.95235,1.45651c0.19748,0.09181 0.39497,0.18367 0.60739,0.15691c0.18184,-0.18152 0.31808,-0.39935 0.46427,-0.69615zM229.44546,173.35436c-0.25282,0.08158 -0.44489,0.21151 -0.65211,0.32935c-0.18705,0.09038 -0.32339,0.2429 -0.38373,0.45583c-0.14098,0.38795 -0.33764,0.75338 -0.59515,1.0704c-0.02019,0.02742 -0.03531,0.08064 -0.04539,0.09436c0.04571,0.10156 0.10653,0.1499 0.21283,0.16924c0.02528,-0.0016 0.06067,-0.01696 0.07079,-0.03069c0.33836,-0.36146 0.70711,-0.69869 1.10627,-1.01179c0.05559,-0.04276 0.13134,-0.11296 0.14132,-0.19201c0.10074,-0.26779 0.20143,-0.53556 0.14515,-0.88474zM227.0091,174.69982c0.31815,-0.33401 0.65664,-0.63012 1.00021,-0.90043c0.11112,-0.08554 0.16662,-0.19361 0.20176,-0.33961c0.04512,-0.225 0.03968,-0.44678 0.04433,-0.68227c0.00997,-0.07904 0.03006,-0.17176 -0.08134,-0.21689c-0.24763,0.17271 -0.50035,0.31962 -0.71756,0.51645c-0.16557,0.78152 -0.16557,0.78149 -0.63492,1.45184c0.0153,0.07742 0.06603,0.13948 0.18751,0.17086zM229.74893,179.03132c-0.24253,0.1985 -0.46984,0.40911 -0.69715,0.61969c-0.0556,0.04277 -0.11114,0.08554 -0.13632,0.15247c-0.05512,0.30401 -0.12542,0.59603 -0.07427,0.91938c0.30355,-0.0195 0.50057,-0.18896 0.73312,-0.30843c0.11624,-0.05971 0.16163,-0.15412 0.18668,-0.28638c0.03992,-0.31612 0.11024,-0.60811 0.20586,-0.90163c0.0101,-0.01371 -0.01017,-0.05159 -0.0204,-0.10318c-0.05568,-0.02256 -0.12664,-0.05722 -0.19749,-0.09183zM232.5157,175.73086c-0.35912,0.06227 -0.60176,0.19545 -0.85957,0.31655c-0.09098,0.0581 -0.12622,0.13876 -0.1615,0.21943c-0.15106,0.40168 -0.34779,0.76708 -0.61535,1.09786c-0.03029,0.04113 -0.0454,0.09436 -0.07564,0.1355c0.15711,0.14669 0.1976,0.15717 0.27835,0.04744c0.26248,-0.3566 0.59086,-0.63898 0.97503,-0.83352c0.23254,-0.11946 0.33848,-0.29613 0.39372,-0.53486c0.00987,-0.14438 0.02486,-0.26292 0.065,-0.44839zM228.79262,176.14c0.07601,0.06042 0.13158,0.01763 0.17197,-0.03722c0.28266,-0.38396 0.6768,-0.65757 1.07101,-0.93114c0.31327,-0.22918 0.48467,-0.59296 0.47876,-1.076c-0.19725,0.0388 -0.31341,0.16386 -0.48026,0.22684c-0.34381,0.13968 -0.53558,0.40025 -0.67672,0.72289c-0.16128,0.35006 -0.30739,0.71223 -0.55986,0.98977c-0.01505,0.05324 -0.01001,0.07906 -0.00487,0.10485zM231.4417,174.89844c-0.21234,0.09202 -0.36912,0.14128 -0.51066,0.20265c-0.23762,0.09369 -0.37398,0.24616 -0.45452,0.48649c-0.10061,0.3331 -0.27209,0.63157 -0.45876,0.91794c-0.05548,0.10811 -0.13624,0.2178 -0.20689,0.31379c0.06591,0.07417 0.11137,0.04512 0.13156,0.01768c0.36873,-0.33729 0.7527,-0.66244 1.18739,-0.92554c0.06567,-0.05649 0.12124,-0.09926 0.15651,-0.17991c0.06532,-0.25244 0.14587,-0.49279 0.15538,-0.83309zM230.80748,179.65577c-0.131,0.30893 -0.35832,0.5195 -0.57044,0.74218c-0.05047,0.06857 -0.13646,0.08716 -0.15652,0.17989c-0.03517,0.14601 -0.01427,0.51048 0.06206,0.76691c0.20739,-0.05251 0.35888,-0.19292 0.53076,-0.29541c0.13646,-0.08718 0.20201,-0.20896 0.20677,-0.37911c0.01974,-0.28868 0.06987,-0.55324 0.18579,-0.80893c0.01011,-0.01371 -0.00014,-0.06531 -0.00523,-0.0911c-0.05072,-0.06207 -0.1115,-0.11044 -0.25319,-0.11437zM224.94284,176.4266c-0.05011,0.26452 -0.23696,0.48559 -0.23139,0.77267c0.11649,0.07091 0.21258,0.03862 0.31376,0.03211c0.18717,-0.02511 0.3693,-0.01067 0.55636,-0.10108c0.09053,-0.31938 0.32281,-0.5695 0.4386,-0.8905c-0.04571,-0.10156 -0.1217,-0.16204 -0.21791,-0.19503c-0.26281,0.16063 -0.54594,0.28335 -0.85946,0.38187zM227.84927,177.71624c-0.13135,0.11297 -0.2627,0.22592 -0.40935,0.26147c-0.35401,0.08806 -0.51042,0.33333 -0.56041,0.66317c-0.01498,0.11853 -0.07555,0.20083 -0.04493,0.35566c0.25298,-0.01627 0.47042,-0.08248 0.68784,-0.14876c0.06069,-0.01696 0.10105,-0.07184 0.13632,-0.15248c0.09061,-0.25409 0.18633,-0.48234 0.27697,-0.73638c0.03031,-0.04113 0.04025,-0.12019 -0.08647,-0.24271zM226.89168,176.95467c-0.28289,0.25337 -0.576,0.45507 -0.93512,0.51737c-0.07587,0.00489 -0.10105,0.07183 -0.14142,0.12669c-0.07566,0.13551 -0.13612,0.28314 -0.13576,0.47906c0.35415,-0.02275 0.63229,-0.10598 0.92049,-0.20289c0.09607,-0.0323 0.16176,-0.08875 0.20713,-0.18317c0.08069,-0.175 0.17649,-0.338 0.25713,-0.51302c0.01011,-0.01371 -0.00012,-0.06535 -0.00521,-0.09113c-0.04559,-0.03627 -0.09122,-0.07254 -0.1672,-0.13294zM233.17629,177.32164c0.04013,-0.18548 0.09042,-0.38471 0.13057,-0.57022c-0.0051,-0.02578 -0.01022,-0.05163 -0.02042,-0.1032c-0.25806,-0.00958 -0.47042,0.08249 -0.64227,0.18496c-0.20654,0.50978 -0.39289,0.99209 -0.73613,1.45838c0.37433,-0.05018 0.42942,-0.35425 0.60626,-0.49625c0.20713,-0.18317 0.43451,-0.32842 0.66193,-0.4737zM229.47488,172.85593c-0.03086,-0.28545 -0.03136,-0.54676 -0.17348,-0.81196c-0.13146,0.04763 -0.25794,0.05577 -0.36411,0.10182c-0.10615,0.04604 -0.22752,0.07994 -0.29818,0.17598c-0.04522,0.15968 0.0006,0.3266 0.00593,0.48304c0.00538,0.15643 -0.02983,0.30244 0.04128,0.4677c0.26793,-0.13483 0.51054,-0.26797 0.78858,-0.4165zM226.01613,173.9536c0.36363,-0.36307 0.66161,-0.66969 0.95957,-0.97624c0.02019,-0.02742 0.06571,-0.05647 0.05547,-0.10809c0.00463,-0.23547 0.05987,-0.47421 -0.06706,-0.72734c-0.20214,0.14363 -0.39418,0.27358 -0.57102,0.41562c-0.03459,0.47259 -0.18054,0.90003 -0.37699,1.39608zM227.82768,179.8081c0.20747,0.0128 0.33882,-0.10017 0.48038,-0.16151c0.16686,-0.06296 0.28809,-0.16222 0.33833,-0.36144c0.07543,-0.26613 0.15086,-0.53231 0.34278,-0.7276c-0.08624,-0.11207 -0.15711,-0.14669 -0.21768,-0.0644c-0.16661,0.19361 -0.34335,0.40095 -0.56577,0.50671c-0.31342,0.16386 -0.34328,0.46632 -0.37805,0.80826zM226.54501,178.30963c-0.36922,0.07599 -0.66765,0.1213 -0.95088,0.17869c-0.07066,0.09599 -0.06545,0.18713 -0.07542,0.26614c0.00521,0.09112 -0.02494,0.19755 0.06125,0.30961c0.248,0.02327 0.5009,0.00701 0.74875,-0.03501c0.08562,-0.21453 0.14597,-0.42747 0.21631,-0.71942zM228.43672,180.87952c0.01464,-0.31449 0.02423,-0.58951 0.04399,-0.87819c-0.23763,0.09367 -0.46519,0.17363 -0.69273,0.25356c-0.02485,0.2629 -0.06999,0.48792 0.02159,0.75637c0.22763,-0.01461 0.4198,-0.07925 0.62715,-0.13176zM230.52757,172.99733c-0.24297,-0.06279 -0.41981,0.07925 -0.61195,0.14383c-0.06069,0.01696 -0.09597,0.0976 -0.09584,0.16295c-0.00977,0.20968 -0.02462,0.39354 -0.0243,0.58949c-0.0101,0.01371 0.02033,0.0379 0.05072,0.06209c0.24775,-0.10735 0.49031,-0.24059 0.73808,-0.34794c0.02496,-0.19756 -0.01589,-0.40399 -0.05675,-0.61042zM232.5403,175.27209c0.05022,-0.19922 0.0904,-0.3847 -0.00612,-0.61368c-0.21247,0.02674 -0.45533,0.02927 -0.65248,0.13339c-0.02507,0.13226 -0.08052,0.24034 -0.08029,0.37098c-0.01499,0.11852 -0.11096,0.21617 -0.00442,0.36611c0.25283,-0.08157 0.50565,-0.16315 0.74334,-0.25681zM228.91271,181.14937c-0.03005,0.17177 0.05629,0.34915 0.1325,0.54022c0.24276,-0.06782 0.4856,-0.07043 0.68774,-0.21403c-0.04085,-0.20645 -0.00581,-0.4177 -0.09224,-0.66041c-0.24775,0.10735 -0.48028,0.22682 -0.728,0.3342zM231.91138,180.18587c-0.19691,0.23477 -0.34308,0.53163 -0.57044,0.74221c-0.18182,0.18154 -0.15614,0.37586 -0.05453,0.63063c0.21741,-0.06624 0.35888,-0.19291 0.52561,-0.32122c-0.0361,-0.37655 0.0797,-0.69761 0.09932,-1.05161zM225.30627,173.08464c0.07089,0.03465 0.10116,-0.00651 0.13146,-0.04763c0.14644,-0.16619 0.28777,-0.35819 0.44941,-0.5123c0.25259,-0.21222 0.20153,-0.47025 0.11498,-0.77827c-0.10109,0.07184 -0.18192,0.11623 -0.24759,0.17271c-0.16671,0.12833 -0.29297,0.26705 -0.26724,0.52673c0.00536,0.15643 -0.05513,0.30405 -0.10545,0.43797c-0.0556,0.04277 -0.13645,0.08717 -0.07555,0.20083zM224.00136,176.1997c0.11637,0.00559 0.20237,-0.013 0.27824,-0.01788c0.23274,0.01119 0.36924,-0.076 0.45996,-0.26475c0.07057,-0.16129 0.19682,-0.30008 0.28256,-0.44932c0.03032,-0.04113 0.07577,-0.07019 -0.02055,-0.16854c-0.21736,0.13153 -0.46507,0.23895 -0.73311,0.30842c-0.06069,0.01696 -0.11112,0.08552 -0.15153,0.14037c-0.05036,0.13386 -0.09065,0.25408 -0.11556,0.45165zM227.38765,179.91472c0.04016,-0.18547 0.1056,-0.3726 0.09001,-0.58068c-0.26304,0.02999 -0.52109,0.02043 -0.75874,0.11407c-0.00975,0.20968 -0.0651,0.38307 0.04153,0.59835c0.21248,-0.02672 0.43004,-0.02761 0.62715,-0.13178zM230.83406,174.67611c0.26302,-0.03 0.47538,-0.12203 0.65729,-0.23825c0.00977,-0.20967 0.02459,-0.39353 -0.02136,-0.62577c-0.18218,-0.01443 -0.33894,0.03486 -0.49059,0.10993c-0.04003,0.25081 -0.09525,0.48955 -0.1454,0.75406zM225.57048,179.46968c0.02055,0.16857 0.01566,0.27336 0.05131,0.38866c0.01532,0.07741 0.04072,0.1411 0.06616,0.20481c0.20247,0.05231 0.40994,0.06511 0.6021,0.00052c0.02496,-0.19756 0.04987,-0.39516 -0.03148,-0.61206c-0.22763,0.01461 -0.43512,0.00184 -0.68806,0.01809zM224.39831,174.64552c-0.28836,0.03162 -0.49068,0.04459 -0.72844,0.07293c-0.05559,0.04276 -0.11106,0.15082 -0.12602,0.2694c-0.03016,0.10644 -0.13122,0.17828 -0.09051,0.31939c0.1671,0.06766 0.30876,0.07161 0.45543,0.03607c0.14631,-0.23153 0.29777,-0.43721 0.48957,-0.69777zM229.68082,171.95427c0.02555,0.12904 0.05107,0.25807 0.07656,0.38707c0.02555,0.12905 0.06117,0.24431 0.08668,0.37332c0.21742,-0.06621 0.40462,-0.09131 0.54606,-0.21798c0.01497,-0.11853 -0.05604,-0.2185 -0.10173,-0.32009c-0.04571,-0.10156 -0.06117,-0.24432 -0.17764,-0.31521c-0.1619,0.02348 -0.30354,0.01951 -0.42992,0.09296zM227.37955,181.03891c-0.02066,-0.23385 0.0245,-0.45888 -0.07718,-0.71367c-0.18716,0.02511 -0.35911,0.06228 -0.5463,0.08736c0.02065,0.23384 0.02097,0.42982 0.15294,0.64345c0.15687,0.01604 0.29358,0.05955 0.47053,-0.01716zM227.45049,172.52877c0.27292,-0.1743 0.51043,-0.33328 0.74792,-0.49226c-0.00022,-0.13065 0.01477,-0.24921 -0.07146,-0.36124c-0.27827,0.01789 -0.49556,0.14943 -0.72809,0.2689c0.00022,0.13066 0.00044,0.26129 0.02596,0.39029c-0.02521,0.06695 -0.00487,0.10482 0.02563,0.19431zM225.19894,178.17403c0.01981,-0.22341 0.14099,-0.38798 0.10014,-0.59441c-0.26815,0.00419 -0.511,0.00672 -0.75379,0.07458c0.03575,0.18065 -0.06523,0.31775 0.02621,0.52093c0.20246,0.0523 0.38456,0.00141 0.62741,-0.00111zM233.416,175.55544c-0.16697,-0.00233 -0.32883,0.02114 -0.47041,0.08252c-0.02992,0.23712 -0.07507,0.46211 -0.12519,0.72663c0.20221,-0.07832 0.3742,-0.1155 0.59676,-0.15591c0.02993,-0.23712 0.06499,-0.44841 -0.00116,-0.65323zM223.85529,176.56186c-0.07045,0.22663 -0.13587,0.41377 -0.06465,0.64437c0.17207,0.02812 0.31884,0.05793 0.46042,-0.00344c0.06034,-0.21293 0.13585,-0.41372 0.20119,-0.66619c-0.20747,-0.0128 -0.39974,-0.0135 -0.597,0.02529zM231.9264,174.37077c0.22753,-0.07995 0.45534,-0.02927 0.59678,-0.15596c0.00977,-0.20967 -0.05129,-0.38867 -0.13762,-0.56606c-0.19227,-0.0007 -0.37444,-0.01515 -0.53108,0.09942c0.02563,0.19432 0.03611,0.37658 0.07194,0.62252zM228.63557,181.75516c-0.03575,-0.18064 -0.04108,-0.33704 -0.13751,-0.50071c-0.21741,0.06624 -0.45533,0.02925 -0.64738,0.15918c0.02054,0.16856 0.07137,0.29595 0.19808,0.41846c0.20236,-0.013 0.39961,-0.05178 0.58676,-0.07692zM226.93307,171.72585c-0.01043,-0.18225 -0.04606,-0.29751 -0.12216,-0.42335c-0.18717,0.02511 -0.37933,0.08969 -0.50043,0.25428c0.03064,0.15482 0.06126,0.3096 0.08179,0.47816c0.23267,-0.05413 0.36898,-0.2066 0.54083,-0.30913zM232.05646,182.01882c-0.0407,-0.14109 -0.07636,-0.25642 -0.15745,-0.34264c-0.19213,0.06458 -0.35388,0.15343 -0.49533,0.28009c0.0154,0.14271 0.05104,0.25802 0.13726,0.37007c0.20739,-0.05251 0.34368,-0.205 0.51552,-0.30752zM225.84554,180.47114c-0.02995,0.23708 0.08157,0.34752 0.22846,0.44262c0.10638,0.08462 0.23299,0.14182 0.35936,0.06836c-0.01043,-0.18225 -0.03096,-0.35076 -0.11729,-0.52815c-0.16697,-0.00233 -0.31874,0.00743 -0.47052,0.01717zM233.88058,177.90348c0.04525,-0.15968 0.126,-0.26939 0.07008,-0.42257c-0.47561,-0.00862 -0.59146,0.31237 -0.6514,0.72124c0.19714,-0.10412 0.38422,-0.19455 0.58132,-0.29866zM224.66405,179.03149c0.17717,0.05397 0.31885,0.05791 0.50092,0.00701c-0.05596,-0.15318 0.02979,-0.30245 -0.05143,-0.454c-0.10131,-0.05885 -0.17207,-0.02814 -0.26316,-0.03537c-0.10115,0.00651 -0.19736,-0.02651 -0.26804,0.06948c0.00022,0.13066 0.00046,0.26131 0.08168,0.41286zM229.18257,176.36317c0.10662,0.21524 0.21802,0.26038 0.32405,0.14902c0.14645,-0.16618 0.26249,-0.35657 0.36841,-0.53323c0.04038,-0.05482 0.07562,-0.13553 0.00463,-0.23548c-0.25771,0.18641 -0.485,0.39698 -0.69712,0.61966zM229.48179,182.47163c-0.03017,0.10645 0.00035,0.19597 0.08145,0.28223c0.24288,-0.00254 0.50604,0.03284 0.73858,-0.08662c-0.12184,-0.22735 -0.27885,-0.30877 -0.48618,-0.25623c-0.10117,0.00651 -0.2227,-0.0249 -0.33384,0.06062zM231.32036,177.8459c0.21277,0.16923 0.27861,0.17803 0.36944,0.05466c0.12612,-0.20409 0.26236,-0.42187 0.32768,-0.67433c-0.30331,0.15015 -0.58133,0.29867 -0.69714,0.61967zM232.56568,181.03231c-0.09595,0.0976 -0.16661,0.19365 -0.25248,0.27752c-0.15657,0.17989 -0.15652,0.17992 0.06659,0.46611c0.10109,-0.07184 0.22744,-0.14527 0.28299,-0.18804c-0.04082,-0.20645 -0.06138,-0.37494 -0.09712,-0.55557zM232.0198,172.77085c-0.1417,-0.00399 -0.29868,-0.08532 -0.40974,0.06552c0.04071,0.1411 0.10675,0.28059 0.15258,0.44747c0.167,0.00234 0.33905,0.03052 0.4654,-0.04296c-0.05598,-0.15319 -0.08656,-0.30803 -0.20828,-0.47006zM230.84086,181.37828c-0.2072,0.11786 -0.42967,0.22358 -0.63689,0.34144c-0.02004,0.09273 -0.01488,0.18383 0.0965,0.22894c0.22763,-0.01461 0.44514,-0.08085 0.62194,-0.22288c-0.00022,-0.13065 -0.02066,-0.23384 -0.0816,-0.34753zM233.77122,176.12063c0.11649,0.07091 0.23288,0.07652 0.35426,0.04256c0.00999,-0.07904 0.01997,-0.15806 0.02992,-0.23711c0.0049,-0.10482 0.02494,-0.19759 -0.04609,-0.29753c-0.0912,-0.07253 -0.18735,-0.10557 -0.29865,-0.08532c-0.01484,0.1839 -0.02457,0.39356 -0.03947,0.57739zM230.9787,173.46486c0.167,0.00234 0.29846,-0.04531 0.42481,-0.11874c-0.06101,-0.17898 -0.10689,-0.34589 -0.16279,-0.49906c-0.15192,-0.05554 -0.27327,-0.02163 -0.34905,0.04856c0.02562,0.19432 0.0513,0.38867 0.08699,0.5693zM234.06621,177.02924c0.01497,-0.11853 0.02994,-0.23708 0.02973,-0.36776c-0.00511,-0.02577 -0.03551,-0.04998 -0.05585,-0.0879c-0.09108,-0.00722 -0.20248,-0.05232 -0.32884,0.02114c-0.03515,0.14602 -0.10566,0.30731 -0.08005,0.50164c0.17205,0.02812 0.29343,-0.00584 0.435,-0.06717zM234.00379,178.84944c0.12624,-0.13877 0.31365,-0.03323 0.41458,-0.17035c0.01994,-0.15804 0.09564,-0.29355 0.05477,-0.49999c-0.15687,-0.01604 -0.29858,-0.02 -0.34379,0.13969c-0.04526,0.15969 -0.15129,0.27101 -0.12556,0.53066zM230.78741,182.59681c0.13146,-0.04764 0.27813,-0.08322 0.39947,-0.11713c0.02529,-0.00161 0.03031,-0.04115 0.05046,-0.06858c-0.05582,-0.08787 -0.08132,-0.21689 -0.24844,-0.28451c-0.15673,0.0493 -0.32362,0.11223 -0.50568,0.16316c0.06601,0.13948 0.14715,0.22571 0.30412,0.30711zM231.04766,172.38909c-0.03062,-0.15482 -0.05117,-0.32335 -0.0767,-0.45234c-0.16709,-0.06766 -0.30878,-0.07164 -0.43524,-0.06348c-0.05547,0.10813 0.04085,0.2064 0.07137,0.29593c0.03055,0.08952 0.05094,0.1927 0.16745,0.26362c0.081,0.02092 0.1721,0.02814 0.27317,-0.04368zM223.73563,177.57557c0.00538,0.15643 0.01566,0.2734 0.02599,0.3903c-0.00501,0.03951 0.03051,0.08953 0.03564,0.11532c0.10638,0.08462 0.22278,0.09023 0.34414,0.05627c0.00475,-0.17016 0.0247,-0.32824 -0.01097,-0.50883c-0.12149,-0.03137 -0.23786,-0.03697 -0.39474,-0.05302zM232.98611,181.34493c0.19207,-0.12992 0.38406,-0.25985 0.47981,-0.4881c-0.16708,-0.06765 -0.29882,-0.15068 -0.45554,-0.1014c-0.09564,0.29356 -0.09563,0.29358 -0.02428,0.58949zM224.78108,179.42896c0.0666,0.46612 0.08178,0.47814 0.45639,0.55859c-0.02055,-0.16857 -0.06637,-0.33541 -0.08687,-0.50397c-0.11649,-0.07091 -0.23287,-0.07649 -0.36945,-0.05468zM233.40515,175.11197c0.00475,-0.17015 -0.01068,-0.3129 -0.09189,-0.46449c-0.0405,-0.01046 -0.1063,-0.01932 -0.1721,-0.02815c-0.05061,0.00326 -0.1113,0.02022 -0.16185,0.02346c-0.00474,0.17015 -0.03479,0.34196 0.03632,0.50724c0.12146,0.03137 0.25806,0.00957 0.38951,-0.03812zM223.29806,176.20568c0.06578,0.00881 0.15688,0.01603 0.20238,-0.013c0.15667,-0.11459 0.22716,-0.27588 0.23182,-0.51139c-0.13158,-0.0177 -0.27336,-0.08696 -0.37955,-0.04093c-0.04016,0.18547 -0.13598,0.34844 -0.05464,0.56532zM228.00988,171.27771c-0.00509,-0.02578 -0.01021,-0.0516 -0.02042,-0.1032c-0.27839,-0.04743 -0.54143,-0.01747 -0.80444,0.01252c-0.02506,0.13225 0.00546,0.22174 0.11694,0.33217c0.22753,-0.07995 0.47024,-0.14782 0.70793,-0.24148zM230.8577,176.60828c-0.24263,0.13318 -0.49031,0.24057 -0.64674,0.48579c-0.01011,0.01371 0.03055,0.08948 0.06092,0.11366c0.07602,0.06042 0.17719,0.05393 0.22763,-0.01466c0.17684,-0.14201 0.27767,-0.34449 0.35819,-0.5848zM233.25687,174.23301c-0.01539,-0.14273 -0.03085,-0.28547 -0.09687,-0.42495c-0.10639,-0.08463 -0.20259,-0.11764 -0.34924,-0.0821c0.04585,0.16692 0.08157,0.34754 0.13748,0.50071c0.11136,0.04509 0.20246,0.0523 0.30865,0.0063zM226.93009,181.4859c0.20271,0.18295 0.37499,0.34177 0.62806,0.39082c0.04524,-0.15968 -0.02075,-0.29916 -0.11207,-0.43703c-0.18216,-0.01442 -0.33905,-0.03049 -0.51602,0.04624zM223.35544,174.29446c0.19738,0.02652 0.22265,0.02492 0.25298,-0.01623c0.11614,-0.12502 0.13101,-0.30893 0.13575,-0.47906c-0.00012,-0.06529 -0.06605,-0.13947 -0.17221,-0.09345c0.00034,0.19596 -0.19173,0.32591 -0.2165,0.58881zM228.54718,171.85725c0.24276,-0.06782 0.4906,-0.10992 0.67738,-0.331c-0.28343,-0.07323 -0.51103,0.00672 -0.71834,0.05925c-0.03529,0.08065 -0.00985,0.14432 0.04099,0.27172zM224.15213,178.51562c-0.10628,-0.01929 -0.20248,-0.05231 -0.30876,-0.0716c-0.01486,0.1839 0.00569,0.35241 0.20318,0.44423c0.0557,0.02256 0.11137,0.04509 0.16697,0.00233c0.03016,-0.10644 -0.00546,-0.22177 -0.06138,-0.37494zM232.43974,178.51875c0.13682,0.10878 0.21777,0.12974 0.28333,0.00794c0.05548,-0.10811 0.11093,-0.21619 0.15119,-0.33638c0.01505,-0.05322 0.01499,-0.11856 -0.05591,-0.1532c-0.16674,0.12831 -0.27778,0.27917 -0.37861,0.48163zM226.86554,173.65074c-0.19207,0.12993 -0.35367,0.28406 -0.4393,0.49859c-0.01011,0.01372 0.03054,0.08948 0.04571,0.10156c0.03038,0.02417 0.09108,0.00722 0.11128,-0.02023c0.11605,-0.19036 0.2676,-0.33078 0.28232,-0.58zM225.79279,173.53682c0.05535,-0.17339 0.16641,-0.32429 0.18628,-0.54765c-0.20721,0.11785 -0.34867,0.24453 -0.36364,0.36308c-0.03016,0.10644 0.03061,0.15482 0.17738,0.18457zM228.52559,182.49389c0.21269,0.1039 0.42552,0.27316 0.65305,0.19321c-0.19284,-0.32728 -0.42037,-0.24733 -0.65305,-0.19321zM230.15,179.82867c0.03038,0.02416 0.05575,0.02258 0.08612,0.04674c0.08572,-0.14922 0.23739,-0.22431 0.25222,-0.40819c-0.08108,-0.08626 -0.1368,-0.10879 -0.23287,-0.07649c-0.02506,0.13225 -0.06023,0.27823 -0.10546,0.43797zM228.75563,175.24084c-0.18692,0.15573 -0.32837,0.28243 -0.43432,0.45907c-0.02019,0.02742 -0.00999,0.07902 0.03561,0.11529c0.01522,0.0121 0.05568,0.02256 0.081,0.02093c0.19207,-0.12992 0.31317,-0.29449 0.31769,-0.59529zM223.43533,176.57575c-0.11138,-0.04509 -0.17715,-0.05394 -0.17705,0.01139c-0.02506,0.13225 -0.03492,0.27662 -0.0448,0.42098c0.00521,0.09112 0.05081,0.12738 0.1368,0.10879c0.06548,-0.18711 0.11069,-0.34683 0.08506,-0.54114zM232.66328,173.30435c0.09108,0.00722 0.1721,0.02814 0.26317,0.03537c0.02529,-0.0016 0.04547,-0.02907 0.09098,-0.0581c-0.18235,-0.14507 -0.31929,-0.31916 -0.55728,-0.42147c0.04585,0.16692 0.08146,0.28221 0.20317,0.44422zM226.34444,176.51941c-0.08575,0.14922 -0.16141,0.28476 -0.26736,0.46142c0.25298,-0.01628 0.38941,-0.1034 0.47514,-0.25264c-0.04571,-0.10157 -0.08122,-0.15158 -0.20782,-0.2088zM231.36962,179.97237c-0.00987,0.14438 -0.1513,0.271 -0.04469,0.48628c0.28786,-0.29289 0.33833,-0.36143 0.28253,-0.44933c-0.07602,-0.06042 -0.1418,-0.0693 -0.23787,-0.03697zM227.82339,174.54298c-0.33384,0.06062 -0.45493,0.22522 -0.54559,0.47929c0.33394,0.00466 0.35365,-0.28404 0.54559,-0.47929zM233.72483,178.47534c-0.30853,0.05901 -0.4196,0.20989 -0.51033,0.39863c-0.0101,0.01371 0.01021,0.05159 0.04061,0.07577c0.04559,0.03628 0.0962,0.03301 0.11637,0.00558c0.11616,-0.12502 0.2019,-0.27425 0.35331,-0.47997zM232.25072,180.347c-0.04525,0.15968 -0.131,0.30893 -0.04966,0.52576c0.14656,-0.10088 0.2222,-0.2364 0.28777,-0.35818c-0.06091,-0.11368 -0.13179,-0.14829 -0.2381,-0.16761zM234.51306,177.86289c-0.01556,-0.20807 0.09549,-0.35892 -0.01614,-0.53467c-0.18692,0.15573 -0.18692,0.15573 -0.16107,0.48069c0.0405,0.01046 0.081,0.02092 0.17718,0.05394zM229.2078,181.99277c0.24309,0.12808 0.44035,0.08929 0.6325,0.02469c0.01497,-0.11853 -0.04585,-0.16692 -0.1217,-0.16204c-0.15674,0.0493 -0.32873,0.08647 -0.51076,0.13737zM233.76441,175.11498c0.10131,0.05884 0.18739,0.10556 0.29354,0.05954c-0.01032,-0.11691 -0.02063,-0.23387 -0.10173,-0.32006c-0.08608,-0.04674 -0.15189,-0.05555 -0.22269,-0.02489c-0.02005,0.09274 -0.00475,0.17016 0.03088,0.28546zM228.2301,178.47571c0.12635,-0.07343 0.21737,-0.13156 0.24751,-0.23802c0.00501,-0.03951 -0.01531,-0.07741 -0.03563,-0.11531c-0.04559,-0.03628 -0.1266,-0.05722 -0.14168,-0.004c-0.06059,0.0823 -0.13125,0.17829 -0.0702,0.35733zM231.75081,172.31774c-0.10653,-0.14995 -0.27861,-0.17808 -0.42039,-0.24734c0.05116,0.32336 0.08158,0.34752 0.42039,0.24734zM224.9517,172.84612c0.21222,-0.15736 0.21222,-0.15735 0.13599,-0.34846c-0.09098,0.0581 -0.19204,0.12995 -0.13599,0.34846zM229.42983,178.84277c-0.03055,-0.08952 -0.07612,-0.12577 -0.11149,-0.11043c-0.15674,0.0493 -0.17185,0.10251 -0.12589,0.33474c0.11626,-0.0597 0.17687,-0.14201 0.23744,-0.2243zM234.28243,179.09278c-0.12649,0.00816 -0.23775,0.02838 -0.27801,0.1485c0.27349,0.15224 0.30883,0.13695 0.27801,-0.1485zM224.98582,172.11231c-0.1619,0.02348 -0.25785,0.12107 -0.34367,0.20498c-0.04038,0.05483 -0.02507,0.13228 0.10652,0.14996c0.08583,-0.08391 0.18183,-0.18153 0.23718,-0.35493zM234.52105,176.6734c-0.13135,0.11297 -0.13625,0.2178 -0.03482,0.34195c0,0 0.04051,0.01046 0.05059,-0.00327c0.07577,-0.07021 0.02498,-0.19757 -0.01576,-0.33872zM227.29241,177.55602c0.11138,0.04509 0.18219,0.01443 0.20735,-0.05251c0.02019,-0.02742 0.00997,-0.07903 -0.01031,-0.11692c-0.02031,-0.03789 -0.08607,-0.04673 -0.10626,-0.01929c-0.04549,0.02906 -0.08585,0.0839 -0.09075,0.18874zM233.58067,174.18616c-0.00987,0.14437 0.02063,0.23386 0.18264,0.27569c0.00474,-0.17015 -0.03584,-0.24595 -0.18264,-0.27569z" fill="url(#color-10)"/><path d="M223.55668,182.23832c0.4763,0.40055 0.95263,0.80115 1.43905,1.18798c0.54722,0.43521 1.13479,0.81552 1.75765,1.11521c0.19748,0.09183 0.38472,0.13207 0.60751,0.22227c-0.16153,0.21945 -0.2876,0.42351 -0.44415,0.60341c-0.90878,1.10363 -1.75166,2.28139 -2.64011,3.42292c-0.79764,1.01808 -1.56992,2.03457 -2.35234,3.06476c-0.54014,0.70106 -1.07021,1.38837 -1.61034,2.0894c-0.50986,0.65992 -0.97918,1.33026 -1.48902,1.99018c-0.04039,0.05485 -0.08078,0.10971 -0.13635,0.15248c-0.32385,-0.01836 -0.60232,-0.13117 -0.9011,-0.28178c-0.47099,-0.24412 -0.93696,-0.52775 -1.35246,-0.87993c-0.13682,-0.10878 -0.2837,-0.20387 -0.35481,-0.36916c0.15701,0.08137 0.2787,0.24337 0.49638,0.3078c0.05514,-0.304 0.27234,-0.50091 0.41867,-0.73244c0.0101,-0.01371 0.02019,-0.02741 0.00501,-0.0395c0.15097,-0.46697 0.44375,-0.86468 0.6504,-1.30914c0.07054,-0.1613 0.09549,-0.35891 0.22681,-0.47187c0.23232,-0.25009 0.28729,-0.61948 0.51962,-0.86961c0.0101,-0.01371 0.01507,-0.05324 0.03528,-0.08066c0.14618,-0.29681 0.26713,-0.59202 0.44372,-0.86468c0.22208,-0.30171 0.3024,-0.67273 0.55486,-0.95025c0.04003,-0.25081 0.20169,-0.4049 0.32782,-0.60898c0.02019,-0.02742 0.03029,-0.04117 0.05047,-0.06856c0.0803,-0.371 0.35308,-0.61064 0.4942,-0.93329c0.1411,-0.32263 0.38348,-0.58645 0.53978,-0.89701c0.18661,-0.3517 0.31744,-0.72592 0.60536,-1.0188c0.02019,-0.02742 0.05049,-0.06857 0.05548,-0.10809c0.01981,-0.22341 0.18659,-0.35169 0.29253,-0.52833c0.06059,-0.0823 0.14642,-0.16617 0.1766,-0.27265c0.03008,-0.17176 0.12602,-0.2694 0.21688,-0.39284c0.05048,-0.06858 0.11617,-0.12507 0.1261,-0.20408c0.04003,-0.25081 0.21174,-0.41863 0.34298,-0.59691c0.05048,-0.06858 0.11613,-0.12505 0.12613,-0.20408c0.03507,-0.21126 0.16128,-0.35007 0.27235,-0.50091c0.18172,-0.24688 0.25702,-0.57832 0.45393,-0.81307c0.04547,-0.02907 0.03019,-0.10644 0.04524,-0.1597z" fill="#87d7dc"/><path d="M223.55666,182.23834c-0.01509,0.05322 0.00025,0.13065 -0.03005,0.1718c-0.1969,0.23478 -0.28742,0.55414 -0.45392,0.81309c-0.11106,0.15085 -0.23731,0.28963 -0.27235,0.5009c-0.00999,0.07904 -0.07566,0.13553 -0.12609,0.20409c-0.13121,0.17829 -0.28778,0.35816 -0.34303,0.59689c-0.00997,0.07904 -0.09086,0.12345 -0.12611,0.20409c-0.09084,0.12341 -0.17162,0.23315 -0.21688,0.39284c-0.03016,0.10644 -0.11606,0.19038 -0.17662,0.27267c-0.10592,0.17666 -0.27266,0.30498 -0.29251,0.52835c-0.00501,0.03951 -0.03528,0.08066 -0.05546,0.10809c-0.27779,0.27917 -0.41877,0.66714 -0.60534,1.01882c-0.16642,0.32429 -0.40879,0.58807 -0.53982,0.89699c-0.14108,0.32262 -0.41388,0.56228 -0.49418,0.93328c0.00509,0.02579 -0.03031,0.04114 -0.0505,0.06858c-0.13121,0.17829 -0.28774,0.35819 -0.32779,0.60903c-0.2677,0.26544 -0.34798,0.63645 -0.55489,0.95023c-0.19181,0.26056 -0.2975,0.56786 -0.44373,0.86468c-0.02019,0.02742 -0.01506,0.05327 -0.03527,0.08067c-0.23232,0.25009 -0.28728,0.61947 -0.51961,0.8696c-0.12623,0.13877 -0.14112,0.32264 -0.22682,0.47187c-0.22185,0.43234 -0.49941,0.84217 -0.6504,1.30913c-0.0101,0.01371 -0.00497,0.03954 -0.00497,0.03954c-0.14631,0.23154 -0.36356,0.42842 -0.41867,0.73245c-0.20247,-0.05231 -0.31409,-0.22808 -0.49637,-0.30782c-0.12159,-0.09669 -0.24317,-0.19344 -0.28902,-0.36037c0.06059,-0.0823 0.14642,-0.16617 0.17657,-0.27264c0.10559,-0.3726 0.33282,-0.64851 0.51442,-0.96071c0.18157,-0.31215 0.28717,-0.68479 0.55485,-0.95022c0.04003,-0.25081 0.20166,-0.40494 0.32779,-0.60901c0.02019,-0.02742 0.05047,-0.06857 0.05547,-0.1081c0.01486,-0.18389 0.1462,-0.2968 0.22188,-0.43236c0.05048,-0.06858 0.10092,-0.13716 0.12612,-0.20408c0.14608,-0.36217 0.31743,-0.72593 0.54964,-1.04137c0.03032,-0.04113 0.08589,-0.0839 0.07564,-0.13551c0.02496,-0.19754 0.14108,-0.32264 0.24203,-0.45979c0.12623,-0.13877 0.12078,-0.36055 0.25714,-0.51301c0.17672,-0.20734 0.25214,-0.4735 0.38325,-0.7171c0.19169,-0.32591 0.31248,-0.6864 0.54468,-1.00182c0.04039,-0.05485 0.10607,-0.11134 0.10593,-0.17667c0.01999,-0.15806 0.12599,-0.26941 0.20166,-0.40491c0.08076,-0.10971 0.14631,-0.2315 0.18662,-0.3517c0.07045,-0.22663 0.17125,-0.4291 0.31258,-0.62112c0.19678,-0.30007 0.30238,-0.67272 0.57004,-0.93815c0.02019,-0.02742 0.0353,-0.08063 0.05549,-0.1081c0.16642,-0.32429 0.31755,-0.66063 0.51439,-0.96066c0.22208,-0.30171 0.32258,-0.70014 0.57508,-0.97767c0.03032,-0.04113 0.03016,-0.10646 0.04524,-0.15969c0.10083,-0.20246 0.22697,-0.40654 0.40379,-0.54855c0.08609,0.04675 0.14689,0.09506 0.21778,0.12974c0.18253,0.2104 0.34472,0.38287 0.53225,0.55376z" fill="#b0eef2"/><path d="M234.38503,179.87015c-0.14619,0.2968 -0.28245,0.51462 -0.49467,0.67198c-0.20238,0.01299 -0.39986,-0.07879 -0.6074,-0.15691c-1.00762,-0.43173 -2.00515,-0.87719 -2.95235,-1.45654c-0.71419,-0.43755 -1.4436,-0.88717 -2.1225,-1.40534c-0.18238,-0.14506 -0.36993,-0.31592 -0.5826,-0.41988c-0.08609,-0.04675 -0.17731,-0.11929 -0.26849,-0.19179c-0.32444,-0.345 -0.70942,-0.6077 -1.06415,-0.91154c-0.50674,-0.42472 -0.97308,-0.90432 -1.4192,-1.41134c-0.21801,-0.26036 -0.44615,-0.50702 -0.68949,-0.76574c-0.19258,-0.19668 -0.31444,-0.42401 -0.44637,-0.63766c0.07533,-0.33148 0.13076,-0.43955 0.40346,-0.74451c0.3243,0.27963 0.58294,0.6158 0.88703,0.92289c0.28891,0.29501 0.59302,0.60208 0.89205,0.8834c0.31419,0.29338 0.65373,0.58515 0.97802,0.86479c0.29898,0.28128 0.67381,0.49235 0.94257,0.81483c0.38489,0.19739 0.68898,0.50449 1.0335,0.75674c0.3293,0.24016 0.6839,0.47865 1.0233,0.70512c0.35461,0.23853 0.71928,0.46332 1.09918,0.70027c0.34949,0.21273 0.70408,0.45125 1.0637,0.65025c0.37478,0.21108 0.75456,0.38268 1.13945,0.58007c0.40009,0.20947 0.75966,0.40848 1.18494,0.551z" fill="url(#color-11)"/><path d="M223.02946,181.71038c-0.07088,-0.03465 -0.13171,-0.083 -0.21778,-0.12971c-0.17683,0.14204 -0.30804,0.32028 -0.40379,0.54855c-0.0151,0.05322 -0.01498,0.11855 -0.04525,0.15968c-0.25249,0.27752 -0.36819,0.66389 -0.57508,0.97768c-0.21199,0.288 -0.34799,0.63644 -0.51442,0.96066c-0.02019,0.02742 -0.03528,0.08067 -0.05545,0.10809c-0.26771,0.26543 -0.348,0.6364 -0.57008,0.93813c-0.13121,0.17829 -0.24216,0.39448 -0.31257,0.62112c-0.05036,0.13385 -0.11589,0.25569 -0.18659,0.35169c-0.09084,0.12341 -0.1868,0.22105 -0.20167,0.40493c0.00011,0.06529 -0.06558,0.1218 -0.10596,0.17666c-0.22208,0.30171 -0.35294,0.67596 -0.54465,1.00183c-0.13114,0.24359 -0.20653,0.50977 -0.38326,0.71709c-0.12623,0.13877 -0.12078,0.36053 -0.25714,0.51301c-0.11615,0.12505 -0.24238,0.2638 -0.24206,0.45978c-0.0151,0.05322 -0.04536,0.09437 -0.07562,0.13551c-0.23218,0.3154 -0.3935,0.66544 -0.54964,1.04137c-0.03529,0.08065 -0.10091,0.13714 -0.12612,0.20405c-0.09084,0.12341 -0.20696,0.24851 -0.22183,0.43236c-0.00501,0.03951 -0.03527,0.08066 -0.05546,0.10808c-0.13121,0.17829 -0.28777,0.35819 -0.3278,0.60901c-0.26769,0.26544 -0.37329,0.63807 -0.55484,0.95022c-0.18157,0.31215 -0.41886,0.60178 -0.51439,0.96067c-0.03017,0.10645 -0.11606,0.19036 -0.1766,0.27267c-0.1469,-0.09509 -0.17753,-0.24989 -0.27386,-0.34823c0.34798,-0.63643 0.66059,-1.25755 0.98839,-1.86653c0.35299,-0.67595 0.71105,-1.32611 1.0792,-1.98997c0.3379,-0.62274 0.66056,-1.25754 0.98327,-1.89235c0.40845,-0.78404 0.79159,-1.56646 1.18991,-2.33679c0.30762,-0.5816 0.61525,-1.16315 0.90761,-1.75683c0.47399,-0.90586 1.01889,-1.77707 1.46247,-2.70709c0.06555,-0.12179 0.1007,-0.26778 0.23716,-0.35493c0.13682,0.10878 0.24331,0.25874 0.35994,0.39498c0.05583,0.08787 0.2128,0.16922 0.28395,0.33453z" fill="#87d7dc"/><path d="M216.13184,195.14073c0.3394,0.22644 0.62323,0.49564 0.97272,0.70834c0.40518,0.23529 0.82048,0.45683 1.2963,0.59612c-0.5855,0.79542 -1.16091,1.57712 -1.72621,2.34512c-0.27825,0.01791 -0.51624,-0.08444 -0.74912,-0.16092c-0.44046,-0.15461 -0.81025,-0.40522 -1.19526,-0.66793c-0.01522,-0.0121 -0.03549,-0.04996 -0.04063,-0.07578c0.19736,0.02652 0.23252,-0.11945 0.28287,-0.25337c0.12589,-0.33475 0.26697,-0.65736 0.48409,-0.91956c0.04039,-0.05485 0.08075,-0.10971 0.10591,-0.17665c0.10061,-0.33312 0.3177,-0.59529 0.46391,-0.89214c0.08069,-0.175 0.13094,-0.3089 0.10533,-0.50324z" fill="#61afb4"/><path d="M224.14409,179.70508c0.47143,0.50539 1.01352,0.91476 1.51525,1.379c0.23309,0.20713 0.49652,0.37313 0.75992,0.53914c0.47621,0.33526 0.9272,0.7374 1.44379,1.01776c0.2026,0.11765 0.40517,0.23529 0.60267,0.32713c0.12661,0.05721 0.24308,0.12807 0.3495,0.21273c-0.01505,0.05322 -0.02008,0.09274 -0.04029,0.12018c-0.08077,0.10969 -0.16149,0.21943 -0.24224,0.32916c-0.10628,-0.01928 -0.18728,-0.04026 -0.28346,-0.07324c-0.66832,-0.2706 -1.35191,-0.55334 -1.94475,-1.02481c-0.52693,-0.3973 -1.06898,-0.80667 -1.55556,-1.25884c-0.39025,-0.35384 -0.79055,-0.69395 -1.08481,-1.14538c0.09619,0.03298 0.15711,0.14668 0.27846,0.11274c0.14144,-0.12668 0.31828,-0.26869 0.20143,-0.53555z" fill="url(#color-12)"/><path d="M223.83253,180.91402c0.2786,0.1781 0.46121,0.4538 0.70952,0.67301c0.53714,0.44893 1.07423,0.89785 1.64165,1.30559c0.46098,0.32315 0.94719,0.57933 1.43835,0.79603c0.12661,0.05721 0.25317,0.11437 0.37977,0.17157c-0.14132,0.192 -0.26244,0.35661 -0.3937,0.53486c-0.30355,0.0195 -0.58203,-0.09331 -0.85553,-0.24553c-0.3292,-0.17481 -0.67354,-0.36174 -0.98765,-0.5898c-0.72438,-0.48916 -1.37301,-1.0485 -2.04696,-1.6062c-0.12159,-0.0967 -0.24322,-0.19343 -0.29914,-0.34661c0.05048,-0.06858 0.11612,-0.12507 0.1261,-0.20408c0.04016,-0.18549 0.1765,-0.33801 0.28751,-0.48883z" fill="url(#color-13)"/><path d="M216.13183,195.14072c0.02055,0.16857 -0.01464,0.3145 -0.10037,0.46374c-0.14619,0.29681 -0.36332,0.55903 -0.46389,0.89212c-0.02519,0.06696 -0.06557,0.12184 -0.10595,0.17668c-0.21198,0.28803 -0.34299,0.5969 -0.48409,0.91954c-0.04028,0.12018 -0.0855,0.27989 -0.28289,0.25337c-0.2381,-0.16763 -0.43072,-0.36427 -0.57785,-0.59c0.09573,-0.2283 0.17628,-0.46862 0.34798,-0.63645c0.02019,-0.02742 0.03529,-0.08065 0.05547,-0.10809c0.15629,-0.31053 0.32268,-0.63482 0.49418,-0.93329c0.07564,-0.13551 0.15643,-0.24521 0.21689,-0.39283c0.06547,-0.18709 0.17139,-0.3638 0.35845,-0.45421c0.08608,0.04674 0.14689,0.09508 0.21776,0.12974c0.10638,0.08462 0.21793,0.19505 0.3243,0.27964z" fill="#87d7dc"/><path d="M229.44546,173.35436c0.0411,0.33707 -0.0444,0.61689 -0.14516,0.88473c-0.02518,0.06695 -0.08576,0.14924 -0.14133,0.192c-0.41434,0.30101 -0.76792,0.65035 -1.10626,1.01179c-0.0101,0.01371 -0.04547,0.02905 -0.07079,0.0307c-0.09108,-0.00722 -0.16711,-0.06764 -0.21282,-0.16923c0.02019,-0.02742 0.02517,-0.06698 0.04538,-0.09439c0.25749,-0.317 0.46938,-0.67036 0.59515,-1.07039c0.07554,-0.20083 0.1866,-0.35171 0.38373,-0.45583c0.22243,-0.10574 0.39926,-0.24777 0.65213,-0.32936z" fill="#cce5e6"/><path d="M227.0091,174.69982c-0.12149,-0.03137 -0.17218,-0.09344 -0.18752,-0.17085c0.45418,-0.68245 0.45415,-0.68246 0.63492,-1.45186c0.20203,-0.20898 0.48002,-0.35748 0.71756,-0.51644c0.12661,0.05721 0.08121,0.15155 0.08132,0.21688c-0.00463,0.23547 0.0008,0.45724 -0.04434,0.68226c-0.03517,0.14601 -0.09066,0.25406 -0.20177,0.33958c-0.34359,0.27033 -0.68204,0.56645 -1.00021,0.90044z" fill="#cce5e6"/><path d="M215.79233,194.84898c-0.07089,-0.03465 -0.13172,-0.08301 -0.21777,-0.12973c-0.18705,0.0904 -0.29298,0.26705 -0.35844,0.45421c-0.06045,0.14763 -0.1412,0.25732 -0.2169,0.39284c-0.1715,0.29847 -0.33789,0.62271 -0.49418,0.93327c-0.02019,0.02742 -0.03527,0.08068 -0.05548,0.1081c-0.16661,0.19362 -0.23707,0.42023 -0.348,0.6364c-0.10143,-0.12411 -0.18762,-0.23621 -0.24865,-0.41521c0.23706,-0.42025 0.45381,-0.87844 0.71616,-1.30033c0.23706,-0.42025 0.41332,-0.88887 0.71615,-1.30031c0.23309,0.20712 0.37512,0.40704 0.50708,0.62065z" fill="#60adb2"/><path d="M229.74893,179.03132c0.07088,0.03465 0.12661,0.05722 0.19749,0.09184c0.01023,0.05162 0.0153,0.0774 0.0204,0.10318c-0.1108,0.2815 -0.16591,0.58557 -0.20585,0.90165c-0.02506,0.13226 -0.07044,0.22666 -0.1867,0.28638c-0.21734,0.13155 -0.41433,0.30101 -0.7331,0.30841c-0.05115,-0.32334 0.00394,-0.6274 0.07429,-0.91934c0.01505,-0.05322 0.08078,-0.10969 0.13633,-0.15247c0.22726,-0.21059 0.45464,-0.42121 0.69716,-0.61969z" fill="#cce5e6"/><path d="M232.51578,175.7309c-0.04013,0.18548 -0.05513,0.30405 -0.0802,0.43633c-0.05524,0.23873 -0.16116,0.41538 -0.3937,0.53487c-0.37908,0.22031 -0.72265,0.4907 -0.97501,0.83352c-0.08077,0.1097 -0.10605,0.11131 -0.27839,-0.04743c0.0303,-0.04115 0.04535,-0.09437 0.07567,-0.13552c0.26757,-0.33077 0.46424,-0.69615 0.61532,-1.09784c0.0454,-0.09437 0.08066,-0.17503 0.16151,-0.21947c0.27303,-0.10903 0.51565,-0.24216 0.87479,-0.30441z" fill="#cae2e3"/><path d="M228.7926,176.14001c-0.00509,-0.02578 -0.00012,-0.06537 0.00999,-0.07905c0.26257,-0.29123 0.42386,-0.6413 0.55988,-0.98976c0.14108,-0.32262 0.33291,-0.58322 0.67671,-0.72286c0.16686,-0.06296 0.29307,-0.20177 0.48026,-0.22683c0.03123,0.48141 -0.15028,0.8589 -0.47876,1.07599c-0.39417,0.27357 -0.79342,0.52133 -1.071,0.93116c-0.04547,0.02907 -0.08588,0.08388 -0.17708,0.01139z" fill="#c9e1e2"/><path d="M231.4417,174.89844c-0.00952,0.34032 -0.09003,0.58066 -0.18068,0.83471c-0.03529,0.08065 -0.08575,0.14921 -0.15654,0.17991c-0.41947,0.2752 -0.8186,0.58828 -1.18736,0.92552c-0.02019,0.02742 -0.06565,0.05649 -0.13157,-0.01769c0.07066,-0.09599 0.15141,-0.20569 0.20689,-0.31378c0.18671,-0.28635 0.35819,-0.58483 0.45877,-0.91795c0.0805,-0.24037 0.22697,-0.40653 0.45451,-0.48648c0.16686,-0.06296 0.32361,-0.11228 0.53596,-0.20432z" fill="#c9e1e2"/><path d="M230.80748,179.65577c0.1417,0.00399 0.21769,0.06443 0.29368,0.12486c0.00511,0.02577 0.00014,0.06534 0.0052,0.09111c-0.13112,0.24361 -0.19134,0.52185 -0.18574,0.80892c-0.00476,0.17015 -0.07033,0.29196 -0.20679,0.37912c-0.17182,0.10251 -0.33856,0.23083 -0.53073,0.29545c-0.07634,-0.25639 -0.11245,-0.63302 -0.06207,-0.7669c0.02005,-0.09274 0.09084,-0.12343 0.15655,-0.1799c0.15641,-0.24521 0.39893,-0.44375 0.52993,-0.75262z" fill="#cae3e4"/><path d="M224.94282,176.42663c0.31349,-0.09854 0.58145,-0.23331 0.84427,-0.39394c0.11136,0.04509 0.17222,0.09347 0.21793,0.19504c-0.10568,0.30727 -0.34812,0.57109 -0.43862,0.89048c-0.18705,0.09038 -0.36922,0.07599 -0.55637,0.10111c-0.10115,0.00651 -0.19722,0.03881 -0.31375,-0.0321c0.00964,-0.275 0.18635,-0.48231 0.24658,-0.76057z" fill="#c8e0e1"/><path d="M227.84927,177.71625c0.1267,0.12249 0.10152,0.18946 0.07635,0.25639c-0.09062,0.2541 -0.17115,0.4944 -0.27696,0.73639c-0.02518,0.06696 -0.06556,0.12181 -0.13633,0.1525c-0.21742,0.06621 -0.45008,0.12036 -0.68783,0.14874c-0.0154,-0.14271 0.02995,-0.23712 0.04492,-0.35566c0.04492,-0.35563 0.20131,-0.60088 0.56042,-0.66317c0.17198,-0.03718 0.30332,-0.15014 0.41946,-0.27521z" fill="#cbe4e5"/><path d="M226.89168,176.95467c0.07602,0.06042 0.12161,0.09668 0.16721,0.13294c-0.00501,0.03951 0.0153,0.07742 0.00521,0.09112c-0.08069,0.175 -0.17648,0.338 -0.25713,0.51302c-0.0454,0.09438 -0.11108,0.15086 -0.20715,0.18315c-0.28821,0.09692 -0.58157,0.16801 -0.9205,0.20288c-0.01557,-0.20806 0.0601,-0.34355 0.13574,-0.47906c0.04038,-0.05482 0.08079,-0.1097 0.14142,-0.12668c0.35912,-0.06227 0.65223,-0.26403 0.93514,-0.51738z" fill="#c8e0e1"/><path d="M223.83253,180.91402c-0.11106,0.15085 -0.24741,0.30335 -0.28242,0.51467c-0.00997,0.07904 -0.07566,0.13547 -0.12611,0.20407c-0.26849,-0.1918 -0.48141,-0.42636 -0.63874,-0.70371c0.17174,-0.16781 0.25225,-0.40814 0.34298,-0.59689c0.15687,0.01604 0.23299,0.14182 0.34437,0.1869c0.1469,0.09509 0.28881,0.2297 0.35994,0.39496z" fill="#85d5d9"/><path d="M233.17629,177.32164c-0.22743,0.14527 -0.45483,0.29056 -0.67718,0.46161c-0.18693,0.15573 -0.22684,0.47186 -0.60629,0.49621c0.3432,-0.46627 0.53966,-0.96233 0.73613,-1.45837c0.18705,-0.09038 0.39938,-0.18246 0.64225,-0.18497c0.01023,0.05162 0.01532,0.07742 0.02042,0.10318c-0.02495,0.19756 -0.06508,0.38311 -0.11531,0.58226z" fill="#c6dede"/><path d="M229.47488,172.85593c-0.27805,0.14853 -0.5206,0.28169 -0.79865,0.43023c-0.06101,-0.17898 -0.02587,-0.32499 -0.04131,-0.4677c-0.00538,-0.15643 -0.05115,-0.32337 -0.0059,-0.48303c0.07066,-0.09599 0.19202,-0.12994 0.29818,-0.17596c0.10615,-0.04602 0.22755,-0.07992 0.36412,-0.1018c0.15224,0.25152 0.15267,0.51281 0.18355,0.79829z" fill="#cae3e3"/><path d="M226.01613,173.9536c0.19643,-0.49606 0.3424,-0.92353 0.38706,-1.4098c0.19207,-0.12993 0.36888,-0.27193 0.57102,-0.41557c0.11686,0.26687 0.07172,0.49189 0.06706,0.72732c-0.00501,0.03951 -0.03529,0.08067 -0.05548,0.10807c-0.29796,0.30658 -0.59594,0.6132 -0.96966,0.98996z" fill="#cae3e4"/><path d="M227.82769,179.80808c0.00952,-0.34032 0.03933,-0.64274 0.37803,-0.80821c0.23255,-0.11947 0.39917,-0.3131 0.56579,-0.50671c0.06058,-0.08229 0.14665,-0.03558 0.21769,0.0644c-0.19189,0.19526 -0.26736,0.46142 -0.34276,0.72759c-0.05023,0.19921 -0.17146,0.29846 -0.33834,0.36146c-0.14155,0.06135 -0.26283,0.16059 -0.48042,0.16151z" fill="#c8e0e1"/><path d="M224.1441,179.70506c0.10675,0.28059 -0.06,0.40885 -0.19635,0.56134c-0.12134,0.03392 -0.19236,-0.066 -0.27844,-0.11272c-0.1875,-0.17085 -0.32951,-0.3708 -0.45138,-0.59817c0.12623,-0.13877 0.1765,-0.33795 0.35343,-0.41467c0.08609,0.04675 0.13171,0.08301 0.1925,0.13135c0.13183,0.14832 0.26365,0.2966 0.38025,0.43286z" fill="url(#color-14)"/><path d="M226.54502,178.30962c-0.06023,0.27824 -0.13064,0.50488 -0.18587,0.74362c-0.24785,0.04204 -0.50078,0.05833 -0.74877,0.03502c-0.08624,-0.11206 -0.05603,-0.2185 -0.06126,-0.30961c-0.00521,-0.09112 -0.01045,-0.18223 0.07544,-0.26614c0.24276,-0.06782 0.55124,-0.12687 0.92048,-0.20288z" fill="#c7dfe0"/><path d="M228.43672,180.87952c-0.20739,0.05251 -0.3995,0.1171 -0.64237,0.11968c-0.09157,-0.2685 -0.04642,-0.49349 -0.02158,-0.75639c0.22753,-0.07995 0.45507,-0.15991 0.69274,-0.25357c0.01066,0.31287 -0.01418,0.57582 -0.0288,0.8903z" fill="#c8e0e1"/><path d="M230.52758,172.99733c0.04082,0.20645 0.08165,0.41284 0.04663,0.62415c-0.23255,0.11947 -0.48025,0.22683 -0.73807,0.34793c-0.03038,-0.02417 -0.06078,-0.04835 -0.05067,-0.06207c-0.00035,-0.19597 0.00941,-0.40561 0.02425,-0.58948c0.00999,-0.07904 0.03516,-0.14601 0.09582,-0.16296c0.21234,-0.09202 0.37908,-0.22033 0.62208,-0.15758z" fill="#c4dcdd"/><path d="M232.5403,175.27209c-0.25283,0.08157 -0.49046,0.17522 -0.74333,0.2568c-0.09128,-0.13785 -0.01054,-0.24754 0.00443,-0.36611c0.01497,-0.11853 0.05523,-0.23875 0.08029,-0.371c0.19714,-0.10413 0.4299,-0.09288 0.65248,-0.13336c0.09652,0.22893 0.05638,0.41446 0.00612,0.61365z" fill="#c8e0e1"/><path d="M228.91271,181.14937c0.24775,-0.10735 0.47022,-0.21313 0.72802,-0.3342c0.07127,0.23058 0.03618,0.44191 0.09224,0.66043c-0.20215,0.14361 -0.44501,0.14618 -0.68774,0.21401c-0.09143,-0.20316 -0.16256,-0.36845 -0.13248,-0.54022z" fill="#c6ddde"/><path d="M231.9114,180.18585c-0.01961,0.35404 -0.13539,0.67505 -0.08923,1.03791c-0.16672,0.12832 -0.30821,0.255 -0.52564,0.32122c-0.11172,-0.24106 -0.1273,-0.44914 0.05453,-0.63064c0.22729,-0.21057 0.37861,-0.48161 0.56032,-0.72848z" fill="#b9cfd0"/><path d="M225.30627,173.08464c-0.06091,-0.11368 0.03514,-0.14602 0.06032,-0.21292c0.06047,-0.1476 0.13608,-0.28311 0.10546,-0.43797c-0.01056,-0.24757 0.11565,-0.38633 0.26722,-0.52672c0.0657,-0.05648 0.14656,-0.10089 0.24762,-0.17271c0.08658,0.30802 0.13761,0.56606 -0.11497,0.77825c-0.17683,0.14204 -0.30299,0.34611 -0.44941,0.51229c-0.03031,0.04113 -0.06057,0.0823 -0.11626,0.05974z" fill="#c0d8d8"/><path d="M224.0014,176.19972c0.01486,-0.18389 0.06522,-0.31775 0.14595,-0.42747c0.04038,-0.05482 0.09084,-0.12347 0.15151,-0.14041c0.26805,-0.06948 0.50057,-0.18895 0.73312,-0.30841c0.10638,0.08464 0.05082,0.12737 0.02054,0.16856c-0.10095,0.13715 -0.21198,0.28802 -0.28255,0.44933c-0.10084,0.20245 -0.23729,0.28962 -0.45997,0.26475c-0.10628,-0.01929 -0.18217,-0.01443 -0.3086,-0.0063z" fill="#c1d9d9"/><path d="M227.38765,179.91472c-0.20221,0.07832 -0.40463,0.0913 -0.62716,0.13174c-0.10663,-0.21524 -0.04116,-0.40234 -0.04154,-0.59834c0.23763,-0.09367 0.49568,-0.08414 0.75874,-0.11408c0.00544,0.22177 -0.04989,0.3952 -0.09003,0.5807z" fill="#c3dbdc"/><path d="M230.83406,174.67614c0.05011,-0.26456 0.10538,-0.50329 0.14541,-0.7541c0.15166,-0.07511 0.29321,-0.13641 0.49058,-0.10993c0.05603,0.21853 0.03108,0.41609 0.02138,0.62579c-0.19207,0.12992 -0.39424,0.20826 -0.6573,0.23822z" fill="#c3dadb"/><path d="M225.57048,179.46968c0.24288,-0.00254 0.46041,-0.00344 0.67796,-0.00437c0.08134,0.21688 0.05639,0.41447 0.03144,0.61203c-0.19725,0.03882 -0.3895,0.03812 -0.60204,-0.00052c-0.0254,-0.06369 -0.05591,-0.15321 -0.06613,-0.20479c-0.01542,-0.14272 -0.01056,-0.24756 -0.04119,-0.40239z" fill="#c4dbdc"/><path d="M224.39834,174.64554c-0.19183,0.26058 -0.34327,0.46631 -0.50472,0.68574c-0.14667,0.03557 -0.28836,0.03158 -0.4554,-0.03608c-0.0407,-0.14109 0.06034,-0.21292 0.09054,-0.31938c0.03016,-0.10644 0.07553,-0.20083 0.12599,-0.26943c0.253,-0.01629 0.45535,-0.02928 0.74367,-0.06086z" fill="#c2d9da"/><path d="M229.6808,171.95428c0.14155,-0.06135 0.27811,-0.08324 0.4097,-0.06553c0.13169,0.08301 0.13191,0.21368 0.17764,0.31522c0.04572,0.10154 0.12682,0.18782 0.10174,0.32008c-0.13135,0.11297 -0.32861,0.15175 -0.54606,0.21804c-0.02555,-0.12904 -0.05106,-0.25806 -0.08666,-0.37335c-0.0154,-0.14271 -0.03088,-0.28545 -0.05641,-0.41448z" fill="#c5ddde"/><path d="M227.37955,181.03891c-0.17697,0.07671 -0.32887,0.02114 -0.48062,0.0309c-0.11671,-0.20156 -0.13227,-0.40962 -0.15296,-0.64346c0.18715,-0.02511 0.37434,-0.05017 0.54633,-0.08736c0.11171,0.24106 0.0666,0.46611 0.08725,0.69992z" fill="#c3dbdc"/><path d="M227.45049,172.52877c-0.03055,-0.08952 -0.04075,-0.14108 -0.05098,-0.19268c-0.01032,-0.11691 -0.01056,-0.24758 -0.02599,-0.3903c0.24775,-0.10735 0.44987,-0.25102 0.72813,-0.2689c0.08624,0.11206 0.08136,0.21689 0.07147,0.36124c-0.21222,0.15735 -0.45984,0.33002 -0.72263,0.49068z" fill="#c7dfe0"/><path d="M225.19885,178.17399c-0.23275,-0.01118 -0.42489,0.05341 -0.64257,-0.01099c-0.07621,-0.1911 0.01959,-0.35401 -0.02622,-0.52092c0.26805,-0.06947 0.50079,-0.05833 0.75376,-0.07457c0.06115,0.24435 -0.04988,0.39516 -0.08491,0.60649z" fill="#c7dee0"/><path d="M223.48277,180.50538c-0.11138,-0.04509 -0.18749,-0.17087 -0.34437,-0.18689c-0.10084,0.20245 -0.19657,0.4307 -0.34299,0.5969c-0.05072,-0.06207 -0.11661,-0.13624 -0.15724,-0.21198c-0.06091,-0.11368 -0.07122,-0.23059 -0.00057,-0.32663c0.10591,-0.17665 0.20175,-0.33959 0.30773,-0.51626c0.19762,0.15715 0.27871,0.2434 0.53746,0.64488z" fill="#61acb1"/><path d="M233.41721,176.20867c-0.20739,0.05251 -0.37927,0.08968 -0.60186,0.13012c0.04002,-0.25081 0.06996,-0.48789 0.12519,-0.72664c0.15673,-0.0493 0.30344,-0.08481 0.4704,-0.0825c0.06115,0.24433 0.0362,0.44188 0.00627,0.67899z" fill="#c2dada"/><path d="M223.85529,176.56186c0.20739,-0.05251 0.38952,-0.03809 0.60712,-0.03897c-0.0805,0.24037 -0.14086,0.45329 -0.20122,0.66624c-0.15166,0.0751 -0.28835,0.0316 -0.46041,0.00344c-0.06615,-0.20479 -0.00069,-0.39196 0.05453,-0.63064z" fill="#c1d9d9"/><path d="M231.92641,174.37075c-0.03583,-0.24595 -0.04629,-0.42818 -0.07192,-0.62252c0.14656,-0.10088 0.33882,-0.10017 0.5311,-0.09944c0.0863,0.17736 0.14733,0.35635 0.1376,0.56605c-0.16674,0.12831 -0.36925,0.07598 -0.59676,0.15596z" fill="#c6dedf"/><path d="M228.63557,181.75516c-0.19724,0.03881 -0.39962,0.05181 -0.58678,0.07692c-0.1267,-0.12249 -0.17753,-0.24989 -0.19808,-0.41846c0.19207,-0.12992 0.42991,-0.09289 0.64737,-0.15918c0.09645,0.16366 0.10174,0.32008 0.1375,0.50071z" fill="#c0d7d7"/><path d="M226.93311,171.72586c-0.17183,0.1025 -0.3082,0.25496 -0.54593,0.28336c-0.02055,-0.16857 -0.05115,-0.3234 -0.0818,-0.47817c0.12115,-0.16454 0.29808,-0.24125 0.50043,-0.25424c0.0913,0.13786 0.11684,0.26685 0.12731,0.44908z" fill="#c3dadb"/><path d="M223.77903,179.28429c-0.06081,-0.04837 -0.13171,-0.083 -0.19254,-0.13135c-0.17698,0.07671 -0.2272,0.27588 -0.35343,0.41467c-0.11649,-0.07091 -0.11672,-0.20157 -0.21302,-0.29988c0.07044,-0.22663 0.23715,-0.35496 0.26199,-0.61785c0.16208,0.10718 0.223,0.22081 0.29915,0.34662c0.05584,0.08786 0.18239,0.1451 0.19781,0.28779z" fill="url(#color-15)"/><path d="M232.05646,182.01882c-0.17183,0.1025 -0.30823,0.25499 -0.52065,0.2817c-0.08624,-0.11206 -0.10664,-0.2153 -0.1373,-0.37008c0.14146,-0.12669 0.3133,-0.22919 0.49534,-0.2801c0.08624,0.11207 0.11672,0.20156 0.16255,0.36845z" fill="#bdd3d4"/><path d="M225.84553,180.47112c0.167,0.00234 0.31875,-0.0074 0.4705,-0.01716c0.08631,0.17738 0.10687,0.34592 0.11732,0.52814c-0.12635,0.07343 -0.253,0.01628 -0.35937,-0.06835c-0.13681,-0.10877 -0.27359,-0.21756 -0.22846,-0.44261z" fill="#bdd4d5"/><path d="M233.88065,177.90353c-0.19714,0.10411 -0.3842,0.19454 -0.5813,0.29866c0.05997,-0.40886 0.17581,-0.72987 0.65142,-0.72124c0.0407,0.14109 -0.02485,0.2629 -0.0701,0.42257z" fill="#bbd2d3"/><path d="M224.66407,179.03147c-0.0812,-0.15157 -0.08145,-0.28222 -0.08164,-0.41286c0.07066,-0.09599 0.16688,-0.06298 0.26805,-0.06946c0.07587,-0.00487 0.16184,-0.02347 0.26315,0.03537c0.0812,0.15157 -0.0197,0.28869 0.05142,0.45397c-0.18207,0.05093 -0.33891,0.03486 -0.5009,-0.00696z" fill="#c3dadb"/><path d="M229.18257,176.36317c0.21215,-0.22265 0.42421,-0.44534 0.69714,-0.61966c0.08107,0.08624 0.04586,0.16694 -0.00465,0.23546c-0.11605,0.19036 -0.24723,0.36863 -0.36838,0.53321c-0.09084,0.12341 -0.20227,0.07833 -0.32408,-0.14902z" fill="#b1c6c7"/><path d="M229.48179,182.47163c0.11112,-0.08554 0.23264,-0.05417 0.3439,-0.07437c0.20738,-0.05253 0.35427,0.04256 0.4862,0.25624c-0.23254,0.11946 -0.5058,0.0978 -0.73854,0.08665c-0.09631,-0.09833 -0.12174,-0.16204 -0.09157,-0.26849z" fill="#bbd2d3"/><path d="M231.32036,177.8459c0.131,-0.30893 0.40901,-0.45743 0.68192,-0.63178c-0.05011,0.26455 -0.20157,0.47023 -0.32767,0.67433c-0.07566,0.13551 -0.14146,0.12671 -0.35424,-0.04256z" fill="#bad1d2"/><path d="M232.56568,181.03233c0.02563,0.19434 0.07145,0.36125 0.09711,0.55555c-0.06568,0.05649 -0.18196,0.11622 -0.28301,0.18804c-0.22313,-0.28617 -0.21303,-0.29988 -0.0666,-0.46611c0.07068,-0.09598 0.15656,-0.17991 0.2525,-0.27752z" fill="#b5cbcc"/><path d="M232.0198,172.77085c0.1217,0.16204 0.16247,0.30315 0.20317,0.44422c-0.13646,0.08718 -0.29844,0.04528 -0.46541,0.04297c-0.05596,-0.15318 -0.09661,-0.29427 -0.15255,-0.44746c0.10605,-0.11133 0.26302,-0.03 0.41483,-0.03973z" fill="#c0d7d8"/><path d="M230.84086,181.37828c0.07098,0.09996 0.08137,0.21688 0.0816,0.34753c-0.17684,0.14201 -0.39428,0.20828 -0.62194,0.22287c-0.11649,-0.07091 -0.11661,-0.13622 -0.09652,-0.22894c0.2072,-0.11786 0.41446,-0.23569 0.63691,-0.34143z" fill="#bdd4d4"/><path d="M233.77123,176.12061c-0.00035,-0.19597 0.02459,-0.39353 0.02426,-0.5895c0.11129,-0.02021 0.20747,0.01279 0.29868,0.0853c0.07098,0.09995 0.05095,0.1927 0.04608,0.29752c-0.00999,0.07904 -0.01996,0.15806 -0.02994,0.23711c-0.10619,0.04603 -0.20738,0.05253 -0.33908,-0.03048z" fill="#b6cccc"/><path d="M230.9787,173.46486c-0.02562,-0.19433 -0.04617,-0.36285 -0.08702,-0.5693c0.07576,-0.0702 0.18194,-0.11624 0.34905,-0.04857c0.05597,0.15319 0.10176,0.32009 0.1628,0.49906c-0.14155,0.06135 -0.25783,0.1211 -0.4248,0.11875z" fill="#c1d9d9"/><path d="M234.06621,177.02922c-0.14155,0.06135 -0.26294,0.09531 -0.4198,0.07924c-0.02563,-0.19434 0.04493,-0.35566 0.08008,-0.50163c0.11112,-0.08554 0.22253,-0.04042 0.32882,-0.02114c0.03549,0.04998 0.06591,0.07416 0.05584,0.08787c-0.015,0.11852 -0.02995,0.23708 -0.04494,0.35566z" fill="#b7cdce"/><path d="M234.0038,178.84945c-0.01054,-0.24758 0.08028,-0.371 0.14073,-0.5186c0.05534,-0.17341 0.18694,-0.15573 0.3438,-0.1397c0.02563,0.19434 -0.03482,0.34193 -0.05479,0.50002c-0.13135,0.11295 -0.31365,0.03322 -0.42979,0.15827z" fill="#b6cccc"/><path d="M231.19697,182.46593c-0.15675,0.04928 -0.27811,0.08321 -0.40958,0.13087c-0.1469,-0.09509 -0.2381,-0.16763 -0.29403,-0.3208c0.18207,-0.0509 0.34891,-0.11389 0.50565,-0.16317c0.16709,0.06762 0.16728,0.19829 0.24842,0.28451c-0.02019,0.02742 -0.02518,0.06697 -0.05046,0.0686z" fill="#c2dada"/><path d="M231.04767,172.38907c-0.11626,0.0597 -0.19214,0.06462 -0.28835,0.03162c-0.10131,-0.05884 -0.12169,-0.16202 -0.16744,-0.2636c-0.03053,-0.08952 -0.12684,-0.18784 -0.07137,-0.29593c0.13656,-0.02182 0.27823,-0.01789 0.43524,0.06349c0.04584,0.16691 0.06126,0.30965 0.0919,0.46447z" fill="#bbd2d3"/><path d="M223.73563,177.57557c0.15686,0.01605 0.27326,0.02164 0.40485,0.0393c0.03576,0.18063 0.01575,0.33868 0.01101,0.50887c-0.12134,0.03393 -0.23777,0.02836 -0.34413,-0.05631c-0.02031,-0.03789 -0.0406,-0.07577 -0.03563,-0.11531c-0.02042,-0.10318 -0.03074,-0.22017 -0.03608,-0.3766z" fill="#bbd2d3"/><path d="M232.98611,181.34493c-0.07137,-0.29593 -0.07137,-0.29594 0.02427,-0.58948c0.15676,-0.04927 0.28846,0.03374 0.45552,0.1014c-0.09573,0.22828 -0.30296,0.3461 -0.47979,0.48811z" fill="#adc2c3"/><path d="M224.78114,179.429c0.12134,-0.03393 0.253,-0.01624 0.36944,0.05468c0.03576,0.18063 0.06641,0.3354 0.08689,0.50392c-0.35936,-0.06835 -0.37456,-0.08042 -0.45639,-0.55859z" fill="#b5cbcc"/><path d="M233.40514,175.11197c-0.14667,0.03558 -0.25795,0.05576 -0.41483,0.0397c-0.07111,-0.16523 -0.02585,-0.32498 -0.0363,-0.50723c0.06069,-0.01696 0.11126,-0.02019 0.16185,-0.02348c0.05061,-0.00326 0.10628,0.01928 0.1721,0.02813c0.10652,0.14995 0.12193,0.29264 0.11719,0.46284z" fill="#bbd1d2"/><path d="M223.29808,176.20569c-0.08133,-0.21689 0.0246,-0.39353 0.02934,-0.56369c0.13146,-0.04763 0.24799,0.02326 0.37959,0.04095c-0.00461,0.23547 -0.0752,0.39679 -0.23185,0.51137c-0.0303,0.04114 -0.11127,0.02022 -0.17705,0.01139z" fill="#b6cccd"/><path d="M228.00988,171.27768c-0.23763,0.09367 -0.48039,0.16151 -0.70791,0.24145c-0.09631,-0.09835 -0.12683,-0.18781 -0.11698,-0.33217c0.26302,-0.03 0.52607,-0.05994 0.80444,-0.01252c0.01021,0.05164 0.01532,0.07742 0.02043,0.10319z" fill="#acc1c2"/><path d="M230.8577,176.60828c-0.08564,0.21456 -0.18647,0.41702 -0.3481,0.57109c-0.0657,0.05648 -0.15165,0.07508 -0.22763,0.01466c-0.03036,-0.02416 -0.07099,-0.09996 -0.06091,-0.11369c0.13623,-0.21779 0.39404,-0.3389 0.63666,-0.47208z" fill="#a7bbbb"/><path d="M233.25687,174.23301c-0.09098,0.05811 -0.19725,0.03882 -0.31873,0.00742c-0.04584,-0.16691 -0.09166,-0.33382 -0.1375,-0.50071c0.14155,-0.06135 0.24285,-0.00253 0.34924,0.08208c0.06091,0.11368 0.09156,0.26848 0.10697,0.41124z" fill="#b7cdcd"/><path d="M226.93009,181.48589c0.17698,-0.07671 0.33384,-0.06062 0.50592,-0.03252c0.0913,0.13786 0.14214,0.26525 0.11208,0.43702c-0.24297,-0.06279 -0.41528,-0.22158 -0.618,-0.4045z" fill="#b7cece"/><path d="M223.35544,174.29446c0.01473,-0.24919 0.20677,-0.37911 0.23169,-0.57671c0.12134,-0.03392 0.17207,0.02816 0.1722,0.09349c-0.00475,0.17016 -0.03481,0.34196 -0.13577,0.47906c-0.04548,0.02907 -0.0556,0.04276 -0.26817,0.00417z" fill="#b4cacb"/><path d="M228.54719,171.85723c-0.06091,-0.11366 -0.07623,-0.19108 -0.05619,-0.28383c0.20738,-0.05253 0.4248,-0.11874 0.71837,-0.05922c-0.15641,0.24521 -0.39417,0.27354 -0.66219,0.34305z" fill="#b2c8c9"/><path d="M224.15213,178.51562c0.05596,0.15318 0.09154,0.26849 0.06137,0.37494c-0.05558,0.04278 -0.1113,0.02024 -0.167,-0.00233c-0.22276,-0.09019 -0.22811,-0.24667 -0.20316,-0.44422c0.09619,0.03298 0.2025,0.0523 0.30877,0.07161z" fill="#b5cbcb"/><path d="M232.43974,178.51875c0.11603,-0.19037 0.22706,-0.34122 0.3938,-0.4695c0.08608,0.04674 0.08622,0.11204 0.05593,0.15319c-0.05548,0.10811 -0.09575,0.2283 -0.1512,0.33636c-0.08077,0.1097 -0.16173,0.08875 -0.29852,-0.02005z" fill="#91a3a3"/><path d="M226.86553,173.65076c-0.01473,0.24919 -0.16115,0.41539 -0.28231,0.57994c-0.02019,0.02742 -0.07079,0.03068 -0.11128,0.0202c-0.03038,-0.02417 -0.05584,-0.08786 -0.04573,-0.1016c0.09573,-0.22828 0.25736,-0.38237 0.4393,-0.49859z" fill="#99abac"/><path d="M225.79279,173.53684c-0.14679,-0.02975 -0.22277,-0.09022 -0.2027,-0.18297c0.04028,-0.12018 0.17162,-0.23313 0.36364,-0.36307c0.00548,0.22179 -0.10559,0.37261 -0.16093,0.54601z" fill="#93a5a6"/><path d="M228.52559,182.49389c0.23265,-0.05412 0.46019,-0.13411 0.65305,0.19321c-0.24276,0.06781 -0.44034,-0.08929 -0.65305,-0.19321z" fill="#9aadad"/><path d="M230.15002,179.82864c0.03517,-0.14599 0.0804,-0.30567 0.1055,-0.43796c0.09608,-0.03229 0.15177,-0.00976 0.23287,0.07652c-0.01485,0.18391 -0.17659,0.27269 -0.25224,0.40821c-0.03038,-0.02417 -0.04559,-0.03628 -0.08612,-0.04674z" fill="#c5dddd"/><path d="M228.75562,175.24086c0.00557,0.28707 -0.1257,0.46537 -0.3177,0.5953c-0.0101,0.01371 -0.05061,0.00326 -0.08101,-0.02092c-0.0557,-0.02256 -0.05584,-0.08787 -0.03562,-0.11529c0.09581,-0.16296 0.2626,-0.29125 0.43431,-0.45909z" fill="#aec2c3"/><path d="M223.43535,176.57575c0.02563,0.19434 -0.0297,0.36773 -0.07498,0.52744c-0.09607,0.03231 -0.14681,-0.02978 -0.13683,-0.1088c0.00986,-0.14437 0.00966,-0.275 0.04483,-0.42096c-0.01021,-0.05164 0.06566,-0.05648 0.16697,0.00234z" fill="#9caeaf"/><path d="M232.66328,173.30435c-0.10652,-0.14997 -0.15733,-0.27731 -0.20316,-0.44423c0.23798,0.10228 0.37491,0.2764 0.55729,0.42148c-0.0455,0.02907 -0.06571,0.05647 -0.09097,0.05808c-0.09108,-0.00722 -0.17206,-0.02813 -0.26314,-0.03532z" fill="#a9bebf"/><path d="M226.34444,176.51941c0.12661,0.05721 0.17728,0.11924 0.20781,0.20879c-0.08577,0.14921 -0.22221,0.23636 -0.47518,0.25263c0.09074,-0.18876 0.1816,-0.31216 0.26734,-0.46141z" fill="#b9cfd0"/><path d="M231.36962,179.97236c0.09607,-0.03229 0.16697,0.00237 0.23786,0.03698c0.05582,0.08788 0.00537,0.15643 -0.28256,0.44931c-0.12184,-0.22735 0.03481,-0.34195 0.04469,-0.4863z" fill="#869797"/><path d="M227.82339,174.54298c-0.20713,0.18317 -0.21166,0.48397 -0.54559,0.47929c0.09061,-0.25409 0.22694,-0.40654 0.54559,-0.47929z" fill="#93a4a5"/><path d="M233.72483,178.47534c-0.15142,0.20569 -0.25239,0.34284 -0.35332,0.47999c-0.02019,0.02742 -0.07079,0.03069 -0.11637,-0.00559c-0.01522,-0.0121 -0.03549,-0.04998 -0.04062,-0.07579c0.0907,-0.18875 0.20179,-0.33965 0.51029,-0.39864z" fill="#94a5a6"/><path d="M232.25072,180.347c0.13157,0.01771 0.18727,0.04021 0.22291,0.15552c-0.06555,0.12179 -0.14121,0.25733 -0.28778,0.3582c-0.08131,-0.21691 0.01962,-0.354 0.06484,-0.5137z" fill="#abbfc0"/><path d="M234.51306,177.86289c-0.09619,-0.033 -0.13669,-0.04348 -0.16712,-0.06768c-0.02587,-0.32498 -0.02586,-0.32494 0.16106,-0.48066c0.09143,0.20316 -0.00948,0.34029 0.00603,0.54832z" fill="#acc0c1"/><path d="M229.2078,181.99277c0.17198,-0.03718 0.33881,-0.10018 0.52598,-0.12526c0.07587,-0.00487 0.13668,0.04351 0.1217,0.16202c-0.20739,0.05251 -0.4046,0.09132 -0.64768,-0.03678z" fill="#9fb2b2"/><path d="M233.76441,175.11498c-0.03562,-0.11534 -0.05092,-0.19272 -0.03086,-0.28544c0.07079,-0.0307 0.13657,-0.02187 0.22267,0.02487c0.08108,0.08626 0.09141,0.20316 0.10173,0.32008c-0.09098,0.05811 -0.19225,-0.0007 -0.29352,-0.05953z" fill="#aec2c3"/><path d="M228.23012,178.47569c-0.07111,-0.16523 -0.00044,-0.2613 0.05501,-0.36938c0.03031,-0.04113 0.09604,-0.03228 0.14166,0.00398c0.03038,0.02417 0.05584,0.08789 0.03563,0.1153c-0.01497,0.11853 -0.10595,0.17667 -0.23231,0.25009z" fill="#91a2a3"/><path d="M231.75081,172.31774c-0.33883,0.10016 -0.3641,0.10183 -0.42039,-0.24734c0.14178,0.0693 0.29866,0.08532 0.42039,0.24734z" fill="#869696"/><path d="M224.9517,172.84612c-0.05603,-0.21852 0.05011,-0.26452 0.13599,-0.34846c0.0863,0.17737 0.0863,0.17737 -0.13599,0.34846z" fill="#555f5f"/><path d="M229.42982,178.84277c-0.05047,0.06858 -0.12113,0.16455 -0.2374,0.22431c-0.04595,-0.23223 -0.00556,-0.28706 0.12587,-0.33473c0.0354,-0.01533 0.08102,0.02093 0.11149,0.11042z" fill="#93a5a6"/><path d="M234.28243,179.09278c0.03087,0.28546 -0.0045,0.30082 -0.27801,0.1485c0.04028,-0.1202 0.15151,-0.14042 0.27801,-0.1485z" fill="#8b9b9c"/><path d="M224.98582,172.11231c-0.05535,0.17341 -0.1513,0.271 -0.24729,0.36865c-0.12149,-0.03137 -0.1469,-0.0951 -0.10649,-0.14995c0.08075,-0.10971 0.17672,-0.20734 0.35376,-0.21872z" fill="#9aacad"/><path d="M234.52105,176.6734c0.0407,0.14109 0.10163,0.25479 0.00569,0.35241c-0.01011,0.01371 -0.0354,0.01537 -0.0506,0.00328c-0.11662,-0.13625 -0.08645,-0.24272 0.04492,-0.35566z" fill="#5f6a6b"/><path d="M227.2924,177.55603c-0.00521,-0.09112 0.03517,-0.14601 0.09076,-0.18876c0.0354,-0.01533 0.08598,-0.01859 0.10627,0.01931c0.02031,0.03789 0.03054,0.08951 0.01031,0.11692c-0.04038,0.05482 -0.09596,0.09761 -0.20736,0.05251z" fill="#636e6f"/><path d="M233.58067,174.18616c0.13669,0.0435 0.20259,0.11763 0.18264,0.27569c-0.16196,-0.04186 -0.19252,-0.13133 -0.18264,-0.27569z" fill="#4a5354"/></g><g data-paper-data="{&quot;index&quot;:null}" fill="#000000" stroke="#000000" stroke-width="1.2"><path d="M208.82683,186.77379c0.6808,-1.73739 3.67513,-2.89117 5.22265,-4.48938c1.66613,-1.72069 1.81933,-3.72675 3.37275,-4.02108c1.08506,-0.20557 2.33334,0.85692 2.91691,1.49207c1.41909,1.54443 0.2754,5.16571 -2.55449,8.08829c-2.82989,2.92259 -6.27437,4.03982 -7.69345,2.49537c-0.64306,-0.69986 -1.82853,-2.12554 -1.26439,-3.56525z"/><path d="M209.85484,190.98239c0.97063,-2.41175 5.65757,-5.77742 5.65757,-5.77742c0,0 1.7558,-3.47683 1.81525,-3.53596c3.7875,-3.76836 6.28612,-1.13634 9.08042,1.90482c1.32992,1.44738 2.85848,4.20641 2.42078,6.20022c-0.49641,2.26121 -2.74711,3.72714 -4.82483,5.87291c-3.90972,4.03778 -8.91614,5.6379 -11.75432,2.54901c-1.24935,-1.35972 -3.69125,-3.9924 -2.39487,-7.21359z"/></g></g></g></g></svg>