<svg version="1.1" xmlns="http://www.w3.org/2000/svg" xmlns:xlink="http://www.w3.org/1999/xlink" width="47.81763" height="40.49088" viewBox="0,0,47.81763,40.49088"><g transform="translate(-216.09119,-159.75457)"><g data-paper-data="{&quot;isPaintingLayer&quot;:true}" fill="#9b7547" fill-rule="nonzero" stroke="#7d5e39" stroke-width="0.5" stroke-linecap="butt" stroke-linejoin="miter" stroke-miterlimit="10" stroke-dasharray="" stroke-dashoffset="0" style="mix-blend-mode: normal"><path d=""/><path d="M260.38565,162.81235c0,0.52344 -0.18501,1.01108 -0.50381,1.42048l-0.06741,-0.10786l-0.63454,-0.61188l-0.22551,-0.39088l-0.08276,-0.02033l-0.39566,-0.65944l-0.15246,-0.15246l-0.15246,-0.2541l-0.71147,-0.71147l-0.47933,-0.2876l-0.01804,-0.09021l-0.13541,-0.08617l-0.0626,-0.07303l-0.03049,-0.00169l-0.41862,-0.48839c0.28651,-0.07061 0.59001,-0.10853 0.9042,-0.10853c1.74871,0 3.16637,1.17459 3.16637,2.62355z"/><path d=""/><path d=""/><path d=""/><path d=""/><path d=""/><path d=""/><path d="M263.65881,176.33415c0,0.60991 -0.25118,1.17121 -0.6725,1.61675v-2.3877l-0.09777,-0.39108l0.06496,-0.39785l-0.00828,-0.09942c0.44604,0.45211 0.7136,1.02981 0.7136,1.65929z"/><path d="M263.60332,181.61622c0,0.81301 -0.44631,1.53964 -1.147,2.02086l0.05837,-0.15408l0.20328,-1.72786l-0.07215,-0.56113l0.13721,-0.54886v-0.3233l0.05232,-0.41856c0.47857,0.45962 0.76797,1.05828 0.76797,1.71294z"/><path d=""/><path d=""/><path d="M217.05986,186.03594c0,-0.92209 0.53104,-1.73494 1.33849,-2.21435l-0.03119,0.30148l0.10164,0.71147l0.04283,0.10513l-0.00905,0.11316l0.20328,1.21967l0.30046,0.69105l0.05779,0.75132l0.0879,0.26371l0.01315,0.0526l0.01169,0.02192l0.09053,0.2716l0.20669,0.32479c-1.37818,-0.25078 -2.41421,-1.32563 -2.41421,-2.61355z"/><path d="M219.90958,194.49463c-1.74871,0 -3.16637,-1.2151 -3.16637,-2.71402c0,-1.43388 1.2973,-2.60807 2.94074,-2.70725l0.2005,0.90225l0.40656,0.81311l0.3659,0.42688l0.04066,0.18295l0.13698,0.27395l0.04905,0.13734l0.25922,0.38883l-0.00318,0.04606l0.12705,0.13975l0.02346,0.0352l0.04916,0.04469l0.2329,0.25619l0.22569,0.53602l0.30492,0.40656l0.04537,0.03686c-0.57297,0.49097 -1.36441,0.79463 -2.2386,0.79463z"/><path d=""/><path d="M261.39988,190.47299c0,1.10766 -0.82845,2.05498 -1.99995,2.4398l0.09815,-0.16358l0.10846,-0.35636l0.24242,-0.28282l0.10164,-0.20328l0.03049,-0.13721l0.57934,-0.6759l0.20328,-0.40656l0.08745,-0.39352l0.23602,-0.3268l0.14012,-0.35031c0.11185,0.26843 0.17259,0.5566 0.17259,0.85653z"/><path d="M261.34438,195.75504c0,1.44895 -1.41761,2.62355 -3.16635,2.62355c-1.23593,0 -2.30648,-0.58673 -2.82805,-1.44237l0.25591,-0.21935l0.12514,0.00266l0.06465,-0.06465l0.25704,-0.01428l0.35486,-0.41401l0.5438,-0.32628l0.50819,-0.50819l0.32628,-0.5438l0.41401,-0.35486l0.00583,-0.10488l0.02278,-0.0358l0.7845,-0.67243l0.01428,-0.25704l0.15668,-0.15668c1.25561,0.34831 2.16045,1.3308 2.16045,2.4884z"/><path d=""/><path d=""/><path d=""/><path d="M229.18188,160.00457c0.08904,0 0.17719,0.00338 0.26429,0.01001l-0.2169,0.18592l-0.14904,-0.01028l-0.47583,0.43258l-0.53602,0.22569l-0.31842,0.23882l-0.47089,0.16818l-0.30492,0.20328l-0.63649,0.70014l-0.14809,0.08885c0.23142,-1.27165 1.48304,-2.24318 2.99232,-2.24318z"/><path d=""/><path d="" data-paper-data="{&quot;index&quot;:null}"/><path d="M256.81723,199.8112c-1.39973,0 -2.58732,-0.75253 -3.00559,-1.79595l0.67076,-0.33538l1.12349,-0.96299l0.12514,0.00266l0.06465,-0.06465l0.25704,-0.01428l0.35486,-0.41401l0.5438,-0.32628l0.50819,-0.50819l0.32628,-0.5438l0.13909,-0.11922c1.20244,0.37209 2.05865,1.33246 2.05865,2.45853c0,1.44895 -1.41765,2.62355 -3.16636,2.62355z" data-paper-data="{&quot;index&quot;:null}"/><path d="M259.01296,193.68036l0.01428,-0.25704l0.16591,-0.16591l0.30492,-0.50819l0.10846,-0.35636l0.24242,-0.28282l0.07863,-0.15726c-0.01856,0.87179 -0.55033,1.63984 -1.35564,2.10561z" data-paper-data="{&quot;index&quot;:null}"/><path d="" data-paper-data="{&quot;index&quot;:null}"/><path d="" data-paper-data="{&quot;index&quot;:null}"/><path d="" data-paper-data="{&quot;index&quot;:null}"/><path d="" data-paper-data="{&quot;index&quot;:null}"/><path d="" data-paper-data="{&quot;index&quot;:null}"/><path d="M263.25679,183.66585c0,0.80825 -0.44111,1.53113 -1.13474,2.01238l0.17406,-0.69622v-0.66131l0.08037,-0.32147v-0.15136l0.13821,-0.36487l0.15726,-1.33668c0.36827,0.42876 0.58485,0.95319 0.58485,1.51953z" data-paper-data="{&quot;index&quot;:null}"/><path d="M263.20126,178.38379c0,0.41259 -0.11495,0.80294 -0.31976,1.15026l0.03144,-0.25155l-0.07224,-0.59595l0.1456,-0.58238v-0.6725c0.13879,0.29516 0.21495,0.61626 0.21495,0.95211z" data-paper-data="{&quot;index&quot;:null}"/><path d="" data-paper-data="{&quot;index&quot;:null}"/><path d="M216.65781,173.96406c0,-1.28216 1.02678,-2.35316 2.39575,-2.61014l0.01188,0.04355l-0.60927,1.28624l-0.10164,0.50819l0.00487,0.10236l-0.11276,0.28624l0.1274,0.27676l-0.19516,0.46468l-0.20328,1.32131l0.05121,0.55305c-0.82455,-0.47693 -1.36899,-1.29859 -1.36899,-2.23223z" data-paper-data="{&quot;index&quot;:null}"/><path d="M216.34119,168.21938c0,-1.49893 1.41764,-2.71402 3.16636,-2.71402c1.03125,0 1.94735,0.42257 2.52548,1.07671l-0.05449,0.07629l-0.38956,0.43284l-0.02662,0.02662l-0.00532,0.00887l-0.13518,0.1502l-0.28417,0.53555l-0.48448,0.41271l-0.10105,0.03368l-0.07157,0.15108l-0.43938,0.61513l-0.4521,1.14763l-0.23157,0.13233l-0.15401,0.61604c-1.60611,-0.13114 -2.86234,-1.29067 -2.86234,-2.70167z" data-paper-data="{&quot;index&quot;:null}"/><path d="" data-paper-data="{&quot;index&quot;:null}"/><path d="" data-paper-data="{&quot;index&quot;:null}"/><path d="M257.77598,161.62139c1.74874,0 3.16635,1.17459 3.16635,2.62354c0,0.47603 -0.15301,0.92245 -0.42051,1.30734l-0.1992,-0.61419l-0.50819,-0.81311l-0.63454,-0.61188l-0.22551,-0.39088l-0.08276,-0.02033l-0.39566,-0.65944l-0.15246,-0.15246l-0.15246,-0.2541l-0.41445,-0.41445c0.00646,-0.00003 0.01292,-0.00005 0.01938,-0.00005z" data-paper-data="{&quot;index&quot;:null}"/><path d="" data-paper-data="{&quot;index&quot;:null}"/><path d="" data-paper-data="{&quot;index&quot;:null}"/><path d="" data-paper-data="{&quot;index&quot;:null}"/><path d="M228.77983,199.99543c-1.67379,0 -3.03066,-1.19483 -3.03066,-2.66877c0,-0.18597 0.0216,-0.36749 0.06271,-0.54274l0.05636,0.02583l0.37063,0.27797l0.59309,0.24972l0.14218,0.1564l0.30492,0.20328l0.47888,0.17103l0.02932,0.03225l0.30492,0.20328l0.4409,0.15747l0.48743,0.35203l0.50819,0.20328l0.26456,0.03608l0.5644,0.35916l0.34499,0.115l0.05514,0.02206c-0.53084,0.40301 -1.22208,0.64669 -1.97795,0.64669z" data-paper-data="{&quot;index&quot;:null}"/><path d="" data-paper-data="{&quot;index&quot;:null}"/></g></g></svg>