<svg version="1.1" xmlns="http://www.w3.org/2000/svg" xmlns:xlink="http://www.w3.org/1999/xlink" width="50.26466" height="55.08142" viewBox="0,0,50.26466,55.08142"><g transform="translate(-239.79888,-171.83778)"><g data-paper-data="{&quot;isPaintingLayer&quot;:true}" fill-rule="nonzero" stroke-linejoin="miter" stroke-miterlimit="10" stroke-dasharray="" stroke-dashoffset="0" style="mix-blend-mode: normal"><path d="M263.8773,220.94646l-1.52639,-1.97993c-0.84301,-1.09347 -0.63996,-2.66332 0.45352,-3.50633c0.49605,-0.38243 1.09014,-0.54958 1.66991,-0.51599l4.51879,0.23455c0.12741,-0.05135 0.26562,-0.0968 0.41549,-0.13536c2.42111,-0.62305 3.04417,1.79807 3.04417,1.79807c0.30007,1.16631 2.15669,7.46153 1.26661,8.39552c-4.49947,4.72152 -7.86785,-1.72972 -9.84208,-4.29053z" data-paper-data="{&quot;index&quot;:null}" fill="#ce9c52" stroke="none" stroke-width="0.5" stroke-linecap="butt"/><path d="M250.08264,210.62502c-0.38988,-0.44074 -0.72993,-0.92023 -1.01042,-1.44223c-2.14701,-3.99574 -0.48528,-7.92039 2.81249,-9.9362c0.15678,-0.11733 0.31404,-0.23112 0.47005,-0.34161c3.63938,-2.57783 9.48631,-4.08931 12.94235,-0.08281c1.06995,0.27624 1.91086,1.14931 2.7878,1.82921c1.51488,1.1745 3.20797,2.21974 4.35456,3.75584c3.52377,4.72088 1.41526,11.07697 -3.86906,13.2542c-1.379,0.56816 -2.96962,0.34708 -4.46107,0.34446c-5.12959,-0.00905 -11.32201,-2.77122 -14.02672,-7.38086zM253.85728,204.30505c-0.00405,0.01266 -0.00804,0.0253 -0.01197,0.03788c0.15556,-0.25064 0.32394,-0.49642 0.49964,-0.73619c-0.22072,0.19732 -0.39996,0.42342 -0.48765,0.6983z" data-paper-data="{&quot;index&quot;:null}" fill="#000000" stroke="none" stroke-width="0.5" stroke-linecap="butt"/><path d="M256.71861,202.06007l-9.06472,-26.72229" data-paper-data="{&quot;index&quot;:null}" fill="none" stroke="#000000" stroke-width="7" stroke-linecap="round"/><path d="M286.56354,191.57483l-25.64783,11.76601" data-paper-data="{&quot;index&quot;:null}" fill="none" stroke="#000000" stroke-width="7" stroke-linecap="round"/><path d="M265.28579,221.41424l-2.15318,-1.27036c-1.18917,-0.70159 -1.58442,-2.23437 -0.88283,-3.42354c0.31827,-0.53945 0.8076,-0.91554 1.35829,-1.09996l4.28196,-1.46258c0.09919,-0.09505 0.21058,-0.18862 0.33536,-0.28017c2.01582,-1.47866 3.49448,0.53716 3.49448,0.53716c0.71226,0.9711 4.77662,6.12452 4.29767,7.32251c-2.42113,6.05609 -7.94687,1.31998 -10.73176,-0.32308z" data-paper-data="{&quot;index&quot;:null}" fill="#ffc366" stroke="none" stroke-width="0.5" stroke-linecap="butt"/><path d="M269.40687,210.49331c-1.18917,-0.70159 -1.58442,-2.23437 -0.88282,-3.42354c0.70159,-1.18917 2.23437,-1.58442 3.42354,-0.88282c1.18917,0.70159 1.58442,2.23437 0.88283,3.42353c-0.70159,1.18917 -2.23438,1.58442 -3.42355,0.88283z" data-paper-data="{&quot;index&quot;:null}" fill="#ffffff" stroke="none" stroke-width="0.5" stroke-linecap="butt"/><path d="M262.81387,211.82833c-1.18917,-0.70159 -1.58442,-2.23437 -0.88282,-3.42354c0.70159,-1.18917 2.23437,-1.58442 3.42354,-0.88282c1.18917,0.70159 1.58442,2.23437 0.88283,3.42353c-0.70159,1.18917 -2.23437,1.58443 -3.42354,0.88284z" data-paper-data="{&quot;index&quot;:null}" fill="#ffffff" stroke="none" stroke-width="0.5" stroke-linecap="butt"/><path d="M252.82737,200.71158c3.92425,2.31527 5.91112,6.21661 4.43776,8.71385c-1.47335,2.49724 -5.84899,2.64479 -9.77325,0.32952c-3.92425,-2.31527 -5.91111,-6.21661 -4.43776,-8.71386c1.47335,-2.49724 5.84899,-2.64479 9.77326,-0.32951z" data-paper-data="{&quot;index&quot;:null}" fill="#000000" stroke="#000000" stroke-width="7" stroke-linecap="butt"/><path d="M248.54547,221.38964c-2.49942,0.05379 -2.55319,-2.44565 -2.55319,-2.44565l-0.0129,-1.76789c-0.13557,-0.82224 -0.27114,-1.64445 -0.40671,-2.46669c0,0 -0.40671,-2.46669 2.05999,-2.8734c2.4667,-0.40671 2.8734,2.05999 2.8734,2.05999c0.13557,0.82224 0.27114,1.64445 0.40671,2.46669l0.07835,2.47376c0,0 0.05379,2.49942 -2.44564,2.55319z" data-paper-data="{&quot;index&quot;:null}" fill="#ff9400" stroke="none" stroke-width="0.5" stroke-linecap="butt"/><path d="M242.51403,216.92182c-2.48823,-0.24223 -2.246,-2.73047 -2.246,-2.73047l0.04844,-0.49765c0.16476,-1.37466 -0.00868,-2.81081 -0.42283,-4.13193c0,0 -0.6992,-2.40023 1.70103,-3.09944c2.40024,-0.69919 3.09944,1.70103 3.09944,1.70103c0.53589,1.94227 0.76361,4.00671 0.59884,6.0148l-0.04844,0.49765c0,0 -0.24222,2.48823 -2.73045,2.246z" data-paper-data="{&quot;index&quot;:null}" fill="#ff9400" stroke="none" stroke-width="0.5" stroke-linecap="butt"/></g></g></svg>