<svg version="1.1" xmlns="http://www.w3.org/2000/svg" xmlns:xlink="http://www.w3.org/1999/xlink" width="118.11719" height="91.15686" viewBox="0,0,118.11719,91.15686"><defs><linearGradient x1="230.43249" y1="208.40712" x2="248.47989" y2="208.40712" gradientUnits="userSpaceOnUse" id="color-1"><stop offset="0" stop-color="#bebebe"/><stop offset="1" stop-color="#737373"/></linearGradient><linearGradient x1="267.98754" y1="206.35311" x2="274.00402" y2="174.49811" gradientUnits="userSpaceOnUse" id="color-2"><stop offset="0" stop-color="#bebebe"/><stop offset="1" stop-color="#737373"/></linearGradient><linearGradient x1="267.98754" y1="206.35311" x2="274.00402" y2="174.49811" gradientUnits="userSpaceOnUse" id="color-3"><stop offset="0" stop-color="#bebebe"/><stop offset="1" stop-color="#737373"/></linearGradient><linearGradient x1="267.7628" y1="205.85727" x2="273.08773" y2="177.66374" gradientUnits="userSpaceOnUse" id="color-4"><stop offset="0" stop-color="#ffd166"/><stop offset="1" stop-color="#ac880b"/></linearGradient><linearGradient x1="256.21382" y1="217.1422" x2="261.42255" y2="189.56396" gradientUnits="userSpaceOnUse" id="color-5"><stop offset="0" stop-color="#ffd166"/><stop offset="1" stop-color="#ac880b"/></linearGradient><linearGradient x1="256.25344" y1="217.22798" x2="261.57102" y2="189.07345" gradientUnits="userSpaceOnUse" id="color-6"><stop offset="0" stop-color="#ffd166"/><stop offset="1" stop-color="#ac880b"/></linearGradient><linearGradient x1="264.22045" y1="232.88478" x2="269.40534" y2="205.43283" gradientUnits="userSpaceOnUse" id="color-7"><stop offset="0" stop-color="#ffd166"/><stop offset="1" stop-color="#ac880b"/></linearGradient><linearGradient x1="272.51066" y1="233.18989" x2="276.57584" y2="211.66626" gradientUnits="userSpaceOnUse" id="color-8"><stop offset="0" stop-color="#bebebe"/><stop offset="1" stop-color="#737373"/></linearGradient><linearGradient x1="272.51066" y1="233.18989" x2="276.57584" y2="211.66626" gradientUnits="userSpaceOnUse" id="color-9"><stop offset="0" stop-color="#bebebe"/><stop offset="1" stop-color="#737373"/></linearGradient><linearGradient x1="248.44328" y1="219.69362" x2="251.38215" y2="188.2569" gradientUnits="userSpaceOnUse" id="color-10"><stop offset="0" stop-color="#bebebe"/><stop offset="1" stop-color="#737373"/></linearGradient><linearGradient x1="300.85016" y1="168.55919" x2="314.0485" y2="172.38891" gradientUnits="userSpaceOnUse" id="color-11"><stop offset="0" stop-color="#bb951b"/><stop offset="1" stop-color="#d6ad39"/></linearGradient><linearGradient x1="303.486" y1="158.59031" x2="315.87479" y2="162.18513" gradientUnits="userSpaceOnUse" id="color-12"><stop offset="0" stop-color="#bebebe"/><stop offset="1" stop-color="#737373"/></linearGradient><linearGradient x1="305.03801" y1="165.07047" x2="310.95124" y2="166.78627" gradientUnits="userSpaceOnUse" id="color-13"><stop offset="0" stop-color="#bb951b"/><stop offset="1" stop-color="#d6ad39"/></linearGradient><linearGradient x1="305.16379" y1="166.33724" x2="310.22129" y2="167.80475" gradientUnits="userSpaceOnUse" id="color-14"><stop offset="0" stop-color="#bb951b"/><stop offset="1" stop-color="#d6ad39"/></linearGradient><linearGradient x1="304.51351" y1="164.38493" x2="305.5393" y2="164.68256" gradientUnits="userSpaceOnUse" id="color-15"><stop offset="0" stop-color="#bb951b"/><stop offset="1" stop-color="#d6ad39"/></linearGradient><linearGradient x1="304.11812" y1="163.95993" x2="305.12071" y2="164.25083" gradientUnits="userSpaceOnUse" id="color-16"><stop offset="0" stop-color="#bb951b"/><stop offset="1" stop-color="#d6ad39"/></linearGradient></defs><g transform="translate(-198.17858,-143.69994)"><g data-paper-data="{&quot;isPaintingLayer&quot;:true}" stroke-miterlimit="10" stroke-dasharray="" stroke-dashoffset="0" style="mix-blend-mode: normal"><path d="M240.34751,206.17719c0,0 11.77698,1.82089 16.28993,2.8477c3.51344,0.79939 14.31233,3.39849 14.31233,3.39849" fill="none" fill-rule="nonzero" stroke="#000000" stroke-width="6" stroke-linecap="round" stroke-linejoin="miter"/><path d="M248.47989,207.56998c0,2.4641 -3.22379,4.46165 -7.20056,4.46165c-2.11857,0 -5.90563,1.68326 -8.23456,0.47339c-2.04269,-1.06118 -8.27066,-5.13844 -8.04871,-5.80182c0.69236,-2.06928 13.20156,-2.83147 15.56014,-2.83147c2.24413,0 4.47876,0.39301 5.99997,1.17828c1.17449,0.60628 1.92372,1.44639 1.92372,2.51997z" fill="url(#color-1)" fill-rule="nonzero" stroke="#737373" stroke-width="1" stroke-linecap="butt" stroke-linejoin="miter"/><g><g><g stroke-width="1.2"><path d="M259.29189,190.4325c0,0 9.47394,-7.69229 12.67841,-8.49308c2.18653,-0.54641 4.71726,3.97421 4.71726,3.97421c0,0 1.7467,-9.9061 6.28615,-9.71222c0.2588,0.01106 1.51806,0.14123 1.27006,4.30245c-0.23754,3.98559 -1.96294,11.94317 -2.60118,14.85085c-0.29643,1.35048 -1.01667,3.41036 -1.91995,4.73122c-0.90947,1.32989 -1.9231,1.19739 -2.5052,1.20234c-0.07724,0.00067 -5.7581,-5.37903 -6.65549,-5.23243c-0.45139,0.07375 -12.67195,8.39013 -12.67195,8.39013" fill="url(#color-2)" fill-rule="evenodd" stroke="url(#color-3)" stroke-linecap="round" stroke-linejoin="round"/><path d="M261.62889,204.65719c-4.65218,-0.19869 -3.59213,-7.82965 -2.95508,-11.80637c0.27702,-1.72922 7.31211,-10.37954 12.39852,-13.35064c1.33279,-0.77853 4.19522,0.06941 5.56916,0.41736c0.48276,0.12227 -0.33558,1.01196 -0.33558,1.01196c0,0 0.71753,-1.01088 1.27269,-1.40582c0.57303,-0.40764 1.42179,-0.74323 1.42179,-0.74323l-1.1219,2.8524c0,0 -1.81691,10.1713 -0.94664,14.11702c0.87029,3.94571 3.91646,1.95565 3.91646,1.95565c0,0 -1.64909,7.53895 -3.6154,8.16151c-0.48474,0.15348 -1.68632,-1.00121 -1.68632,-1.00121c0,0 -0.05096,0.86064 -0.37537,0.89177c-0.10522,0.0101 -2.76086,-4.26776 -4.15087,-6.6089c-0.79471,-1.33847 -0.68709,-1.32921 -0.68709,-1.32921c0,0 -8.03407,6.86635 -8.70438,6.83772z" fill="url(#color-4)" fill-rule="nonzero" stroke="#caa551" stroke-linecap="butt" stroke-linejoin="miter"/></g><path d="M255.18972,216.94868c-0.1358,-0.01114 0.58151,-1.65633 1.36272,-5.54373c1.03062,-5.12846 2.2495,-13.05043 2.53051,-15.28968c0.72876,-5.80678 -0.03352,-6.95669 0.32646,-6.9272c1.33214,0.1092 3.13844,3.81271 2.03099,10.40392c-0.48667,2.89651 -1.16398,8.88106 -2.25507,12.13635c-1.39175,4.15228 -3.2489,5.28154 -3.99562,5.22034z" fill="url(#color-5)" fill-rule="nonzero" stroke="#caa551" stroke-width="1.2" stroke-linecap="butt" stroke-linejoin="miter"/><g fill-rule="nonzero" stroke-linecap="butt" stroke-linejoin="miter"><g fill="none" stroke="none" stroke-width="1" font-family="sans-serif" font-weight="normal" font-size="12" text-anchor="start"/><path d="M253.54199,216.59484c0,0 3.8721,-11.60694 5.29164,-17.14639c1.41953,-5.53944 1.80607,-10.5509 1.80607,-10.5509c0,0 1.19288,0.63205 1.70509,3.75733c0.39649,2.41914 0.36983,6.61749 -0.83695,11.37365c-1.09941,4.33298 -2.72253,8.94034 -4.11239,10.88566c-2.10663,2.9485 -3.85343,1.68068 -3.85343,1.68068z" fill="url(#color-6)" stroke="#caa551" stroke-width="1.2"/></g><g stroke-width="1.2"><path d="M259.69736,206.19396c0,0 17.99403,8.06139 17.90107,8.8947c-0.2668,2.39139 -4.3054,15.00981 -4.3054,15.00981l-17.37769,-11.88353" data-paper-data="{&quot;index&quot;:null}" fill="#ffab19" fill-rule="evenodd" stroke="#001026" stroke-linecap="round" stroke-linejoin="round"/><path d="M259.76938,204.14675c0,0 5.31093,0.22546 7.36513,0.93517c1.26006,0.43533 5.15585,3.99925 5.15585,3.99925c0,0 3.27371,-0.54889 3.4677,-0.05126c0.24926,0.63938 -1.93342,2.07193 -1.93342,2.07193c0,0 2.46298,-1.43389 2.68331,-1.44357c1.53734,-0.06759 3.17253,1.87483 2.57553,6.04279c-0.65548,4.57615 -1.84869,12.1426 -3.74583,15.80103c-1.71751,3.31205 -4.13336,2.98469 -5.02668,2.32773c-0.62733,-0.46134 -0.5576,-2.86851 -1.31634,-3.50187c-0.5045,-0.42115 1.33885,3.87417 0.71716,3.04336c-0.18074,-0.24153 -3.09192,-3.70359 -3.09192,-3.70359c0,0 -3.11865,-1.02123 -4.15408,-2.03176c-4.15791,-4.05788 -7.41023,-8.63465 -7.41023,-8.63465" data-paper-data="{&quot;index&quot;:null}" fill="url(#color-7)" fill-rule="evenodd" stroke="#caa551" stroke-linecap="round" stroke-linejoin="round"/><path d="M277.01094,211.75678c1.03662,0.31361 2.09071,1.47372 2.34868,3.60837c0.25891,2.14258 -2.28972,14.24431 -3.42753,15.97468c-1.08055,1.64327 -2.59226,2.11028 -3.60399,1.80421c-2.07707,-0.62836 -2.71261,-5.92544 -1.41947,-11.83138c1.29314,-5.90591 4.02524,-10.18425 6.10231,-9.55586z" fill="url(#color-8)" fill-rule="nonzero" stroke="url(#color-9)" stroke-linecap="butt" stroke-linejoin="miter"/></g></g><g fill="none" fill-rule="nonzero" stroke="none" stroke-width="1" stroke-linecap="butt" stroke-linejoin="miter" font-family="sans-serif" font-weight="normal" font-size="12" text-anchor="start"/></g><path d="M252.74329,213.52819c0,0 1.47718,11.49996 -0.84439,16.27667" fill="none" fill-rule="nonzero" stroke="#000000" stroke-width="6" stroke-linecap="round" stroke-linejoin="miter"/><path d="M255.87641,211.70358c0,0 -5.5378,-4.19605 -7.3838,-3.90563c-0.45151,0.07103 6.62515,3.80738 6.15756,4.26444c-2.2298,2.17957 -4.73774,11.22426 -4.73774,11.22426c0,0 -5.07946,-8.31841 -7.48824,-12.45205c-0.66509,-1.14134 -0.03359,-10.54732 -0.23929,-10.86749c-0.26567,-0.4135 2.85605,-12.622 2.85605,-12.622c0,0 2.91155,-3.19568 6.03812,-2.85982c0.02221,0.00239 -1.61198,8.64329 -1.26369,8.6807c2.08659,0.22414 7.41715,2.34265 7.41715,2.34265c0,0 1.03602,3.25604 0.82124,6.05923c-0.23678,3.09025 -2.17733,10.13571 -2.17733,10.13571z" fill="url(#color-10)" fill-rule="nonzero" stroke="#737373" stroke-width="2.5" stroke-linecap="butt" stroke-linejoin="miter"/><g data-paper-data="{&quot;index&quot;:null}" fill-rule="nonzero" stroke="none" stroke-width="1" stroke-linecap="butt" stroke-linejoin="miter"><path d="M303.93739,164.50581c-0.17635,-0.13914 -0.17249,-0.28952 -0.13624,-0.46286c0.07966,-0.26732 0.21329,-0.50954 0.31102,-0.76844c-0.03233,-0.0721 -0.06463,-0.14422 -0.10416,-0.20065c-0.78362,-1.23966 -0.93305,-2.52667 -0.85183,-3.83954c0.01842,-0.27676 0.01886,-0.56197 0.13451,-0.8125c0.02171,-0.04697 0.03261,-0.118 0.01103,-0.16607c-0.11851,-0.26439 -0.02455,-0.468 0.05868,-0.69563c0.06873,-0.19628 0.17348,-0.37585 0.26024,-0.56376c0.0506,-0.10961 0.13719,-0.2025 0.28137,-0.23057c0.14416,-0.02803 0.256,-0.12819 0.36057,-0.2127c0.53765,-0.54883 1.17959,-0.99208 1.90789,-1.33811c0.41462,-0.18756 0.85432,-0.28738 1.31199,-0.3788c1.34789,-0.26701 2.7132,-0.14546 4.07811,0.26125c0.61221,0.18972 1.20628,0.4661 1.77144,0.80511c0.42834,0.25636 0.77013,0.60561 1.08667,0.96213c1.00718,1.13441 1.52769,2.42284 1.67695,3.80491c0.03203,0.2622 -0.00436,0.53059 -0.04079,0.79902c-0.01826,0.18171 -0.0113,0.35618 0.12531,0.5339c0.12584,0.15369 0.13281,0.32812 0.09653,0.50144c-0.07966,0.26732 -0.19533,0.51787 -0.31102,0.76845c-0.03616,0.0783 -0.10108,0.12422 -0.16602,0.17009c-0.2632,0.14386 -0.42566,0.35364 -0.55931,0.59585c-0.26379,0.5241 -0.69315,0.93307 -1.10451,1.35043c-0.15878,0.15443 -0.33549,0.30047 -0.54101,0.41413c-0.65627,0.37951 -1.31612,0.71934 -2.0946,0.88983c-0.10844,0.23488 -0.24211,0.47709 -0.35774,0.72767c-0.04339,0.09398 -0.09399,0.20358 -0.23091,0.21595c-0.11892,0.02076 -0.14432,0.1231 -0.18766,0.21706c-0.30713,0.61803 -0.59632,1.24443 -0.90346,1.86247c-0.66142,1.38538 -1.32996,2.78644 -2.02734,4.15506c-0.68293,1.33732 -1.3118,2.69978 -1.95875,4.05383c-0.10121,0.21926 -0.23119,0.40606 -0.33237,0.6253c-0.49155,1.06491 -0.98315,2.12979 -1.4927,3.18633c-0.08673,0.18791 -0.1375,0.39259 -0.32504,0.51457c-0.06492,0.04591 -0.08307,0.13254 -0.11923,0.21085c-0.36142,0.78304 -0.74812,1.57334 -1.10956,2.35635c-0.01446,0.03132 -0.03616,0.07828 -0.05059,0.10962c-0.09765,0.25896 -0.2815,0.32559 -0.58414,0.31796c-1.01237,-0.03345 -1.93783,-0.34987 -2.77647,-0.94925c-0.21234,-0.15586 -0.41021,-0.34303 -0.57565,-0.55317c-0.12584,-0.15369 -0.14004,-0.31246 -0.08576,-0.47742c0.16287,-0.49493 0.30773,-0.99825 0.47782,-1.50884c0.12304,-0.36129 0.2893,-0.7215 0.35832,-1.10788c0.14897,-0.84383 0.52119,-1.6028 0.72411,-2.42149c0.12315,-0.45632 0.20311,-0.91376 0.34428,-1.36173c0.15563,-0.47927 0.26803,-0.95964 0.39839,-1.43162c0.24266,-0.8573 0.52857,-1.71352 0.75319,-2.5792c0.26831,-1.14971 0.60863,-2.26601 0.94895,-3.38223c0.11228,-0.38533 0.22447,-0.7706 0.33676,-1.15594c0.18821,-0.5973 0.38369,-1.21019 0.57192,-1.80744c0.10856,-0.32997 0.17393,-0.66102 0.28244,-0.99096c0.09781,-0.35404 0.23514,-0.65152 0.35818,-1.01282zM304.48862,164.49592c0.17265,0.19446 0.35974,0.35762 0.58653,0.48217c0.40301,0.35868 0.87459,0.61616 1.34621,0.8736c0.5904,0.33174 1.22769,0.6092 1.84702,0.87831c0.70932,0.31097 1.43691,0.44021 2.18976,0.5622c0.08646,0.00217 0.17293,0.00436 0.30262,0.00762c0.05785,-0.12526 0.11562,-0.25057 0.17346,-0.37584c0.01446,-0.03132 0.01092,-0.07101 0.01459,-0.12636c-0.126,-0.05864 -0.25926,-0.1016 -0.39973,-0.12892c-0.23772,-0.05351 -0.44294,-0.13001 -0.68064,-0.18353c-0.58344,-0.1573 -1.11988,-0.46389 -1.68162,-0.66816c-0.29528,-0.11832 -0.60496,-0.20537 -0.88578,-0.35502c-0.60841,-0.3401 -1.25293,-0.60194 -1.83236,-1.00467c-0.14758,-0.10672 -0.31314,-0.22174 -0.4607,-0.32849c-0.02862,-0.12749 -0.18713,-0.16313 -0.26268,-0.23637c-0.08633,-0.09723 -0.17267,-0.19448 -0.37789,-0.27091c0.03203,0.2622 -0.11595,0.44066 -0.1307,0.66209c0.08277,0.05755 0.11142,0.18499 0.25191,0.2123zM304.96286,165.36334c-0.34898,-0.3336 -0.44975,-0.39946 -0.69827,-0.47704c-0.06873,0.19628 -0.13026,0.37697 -0.19901,0.57325c-0.0506,0.10961 -0.01478,0.22143 0.0716,0.31869c0.05758,0.06486 0.14755,0.10669 0.20512,0.1715c0.21942,0.23527 0.50381,0.42462 0.79904,0.54296c0.08989,0.13691 0.23385,0.20394 0.37791,0.27094c0.80286,0.39253 1.58054,0.79236 2.41955,1.10663c0.37451,0.13619 0.75624,0.25673 1.12719,0.3532c0.29898,0.063 0.61591,0.13436 0.91869,0.04694c0.09396,-0.20361 0.18791,-0.40717 0.28192,-0.61078c-0.15846,-0.03569 -0.29897,-0.063 -0.42141,-0.08194c-0.56189,-0.10925 -1.10932,-0.24977 -1.62785,-0.45296c-0.66975,-0.25453 -1.30338,-0.58739 -1.94424,-0.90454c-0.30607,-0.14239 -0.55073,-0.37033 -0.86398,-0.49706c-0.11141,-0.18499 -0.2842,-0.28442 -0.4462,-0.3598zM299.14948,183.83178c0.20865,0.21121 0.45344,0.34414 0.71268,0.44573c0.01075,0.02401 0.03956,0.05645 0.05759,0.06482c0.43928,0.18536 0.89302,0.33939 1.35414,0.38269c0.2702,0.03059 0.53312,0.07682 0.79263,-0.01171c0.40483,-0.877 0.80958,-1.75395 1.23615,-2.67792c-0.51156,-0.02878 -0.97981,-0.15143 -1.44073,-0.2898c-0.40699,-0.11325 -0.74532,-0.32773 -1.13783,-0.4723c-0.14401,-0.06699 -0.26282,-0.14126 -0.40684,-0.20828c-0.17985,-0.1788 -0.39222,-0.33466 -0.65499,-0.47595c-0.21687,0.46983 -0.27525,0.97531 -0.44165,1.43056c-0.15563,0.47928 -0.29326,0.96694 -0.44163,1.43053c0.11141,0.18499 0.24097,0.28333 0.37055,0.38164zM300.15241,180.47471c0.0899,0.1369 0.22669,0.21959 0.37067,0.28655c0.1151,0.12967 0.28437,0.1894 0.43914,0.28042c0.49685,0.25015 1.02984,0.42204 1.55925,0.55419c0.31693,0.07135 0.64837,0.11139 0.97266,0.07204c0.02892,-0.06264 0.07582,-0.11691 0.10472,-0.17956c0.35427,-0.76738 0.70121,-1.51903 1.07341,-2.27802c0.39389,-0.80596 0.78056,-1.59625 1.17447,-2.40221c0.56737,-1.18183 1.1456,-2.33955 1.71296,-3.52139c0.65046,-1.31437 1.23965,-2.63822 1.92613,-3.93582c0.11922,-0.21085 0.20959,-0.45418 0.31807,-0.68906c-0.22691,-0.02947 -0.4503,-0.01926 -0.66279,-0.08006c-0.69513,-0.15218 -1.36491,-0.40673 -2.02022,-0.69256c-0.57605,-0.26799 -1.1449,-0.55169 -1.71375,-0.83538c-0.21958,-0.14022 -0.42836,-0.25636 -0.64794,-0.39657c-0.10062,-0.16095 -0.27712,-0.20502 -0.40669,-0.30333c-0.14758,-0.10672 -0.26266,-0.23635 -0.44992,-0.30443c-0.10829,0.13986 -0.13013,0.2819 -0.16271,0.39987c-0.22846,1.01612 -0.60823,1.98084 -0.89069,2.97179c-0.18468,0.63698 -0.36939,1.27395 -0.53602,1.91929c-0.24266,0.8573 -0.46008,1.70729 -0.6955,2.54893c-0.18833,0.69233 -0.37673,1.38467 -0.58312,2.0686c-0.21008,0.73931 -0.43091,1.45456 -0.65896,2.1855c-0.19913,0.66828 -0.4055,1.35224 -0.59388,2.04457c0.15478,0.09102 0.21944,0.23525 0.37067,0.28659zM315.85173,162.28722c-0.46107,-0.04333 -0.86809,-0.15658 -1.28226,-0.25414c-0.4322,-0.10595 -0.85362,-0.18784 -1.27855,-0.30948c-0.40699,-0.11325 -0.81752,-0.26619 -1.21722,-0.39512c-0.41776,-0.1373 -0.83549,-0.27456 -1.26397,-0.43584c-0.39247,-0.14457 -0.79577,-0.31319 -1.18829,-0.45775c-0.40325,-0.1686 -0.77765,-0.39984 -1.20985,-0.5058c-0.33465,-0.26981 -0.75963,-0.39145 -1.13047,-0.58297c-0.38155,-0.21558 -0.79566,-0.40822 -1.17724,-0.62379c-0.36356,-0.2072 -0.73793,-0.43847 -1.09431,-0.66131c-0.37436,-0.23125 -0.70179,-0.51677 -1.09781,-0.70097c-0.20949,0.3591 -0.2601,0.46871 -0.24621,0.8176c0.17985,0.1788 0.35977,0.35764 0.5901,0.52183c0.28435,0.18936 0.56868,0.37872 0.86383,0.59214c0.56147,0.39441 1.11221,0.76473 1.74227,1.05787c0.43205,0.20102 0.87136,0.38634 1.27448,0.65003c0.08277,0.05755 0.19079,0.10779 0.31324,0.1267c0.2377,0.05349 0.46452,0.17809 0.68054,0.27855c0.79209,0.36852 1.62758,0.64307 2.45231,0.89356c1.08398,0.35211 2.18253,0.57785 3.30277,0.75656c0.2197,0.04513 0.4394,0.09029 0.64845,0.01632c0.14446,-0.21815 0.23489,-0.46146 0.31823,-0.78408zM309.43907,157.04008c-0.23797,0.13659 -0.404,0.30667 -0.58796,0.46838c-0.16955,0.13036 -0.27428,0.30994 -0.28902,0.53136c-0.05825,0.41043 -0.17771,0.81142 -0.36925,1.17887c-0.01446,0.03132 -0.01818,0.08667 -0.02539,0.10233c0.06832,0.08883 0.14034,0.12231 0.25206,0.11724c0.02521,-0.00726 0.05769,-0.03022 0.06492,-0.04589c0.26365,-0.42903 0.5633,-0.84126 0.89895,-1.23681c0.04694,-0.05426 0.10828,-0.13985 0.1012,-0.21927c0.04367,-0.28407 0.08729,-0.56811 -0.04553,-0.89627zM307.26739,158.90222c0.24917,-0.3977 0.52715,-0.76297 0.81589,-1.10423c0.09378,-0.10854 0.12644,-0.22653 0.13024,-0.37693c-0.00329,-0.22977 -0.05698,-0.44504 -0.10348,-0.67594c-0.00708,-0.0794 -0.00693,-0.17441 -0.12943,-0.19337c-0.2129,0.22436 -0.43659,0.42469 -0.61349,0.66575c0.00244,0.80013 0.00242,0.80011 -0.32653,1.56015c0.03231,0.07212 0.09712,0.12127 0.22681,0.12453zM310.98025,162.51289c-0.20214,0.24838 -0.38629,0.50517 -0.57041,0.76192c-0.04695,0.05427 -0.09381,0.10854 -0.10474,0.17955c0.01034,0.30917 0.00274,0.61001 0.12476,0.91411c0.30277,-0.08741 0.46521,-0.2972 0.67444,-0.46621c0.10459,-0.08447 0.12996,-0.18685 0.12656,-0.3216c-0.02834,-0.31756 -0.0207,-0.61841 0.0122,-0.92645c0.00722,-0.01566 -0.02151,-0.04806 -0.04307,-0.09611c-0.06122,-0.00947 -0.14052,-0.02732 -0.21972,-0.04514zM313.06111,158.66807c-0.3497,0.14169 -0.56615,0.32634 -0.80058,0.50262c-0.07939,0.0772 -0.09751,0.16386 -0.11566,0.25056c-0.06546,0.42611 -0.185,0.82709 -0.38371,1.21023c-0.02169,0.04697 -0.0254,0.10232 -0.04705,0.14929c0.19079,0.10779 0.23403,0.1089 0.29185,-0.01639c0.18796,-0.40721 0.4587,-0.7568 0.80497,-1.03323c0.20922,-0.16899 0.27796,-0.36529 0.28194,-0.61076c-0.0214,-0.14316 -0.03201,-0.26224 -0.03174,-0.45232zM309.38441,159.90616c0.09002,0.04185 0.13692,-0.01244 0.16584,-0.07506c0.20242,-0.43846 0.54158,-0.79432 0.88082,-1.15016c0.26704,-0.29427 0.36129,-0.68796 0.2503,-1.1581c-0.19106,0.08232 -0.28137,0.23055 -0.43644,0.32961c-0.31737,0.21379 -0.45469,0.51133 -0.52729,0.85805c-0.08702,0.37801 -0.15606,0.76445 -0.35108,1.09222c-0.00366,0.05536 0.00707,0.07943 0.01786,0.10344zM311.79385,158.09753c-0.19475,0.13766 -0.34263,0.22105 -0.47245,0.31285c-0.21997,0.14499 -0.32473,0.32451 -0.35395,0.57724c-0.02935,0.3478 -0.13791,0.67776 -0.26444,0.99933c-0.03261,0.11803 -0.09044,0.24328 -0.14102,0.35288c0.08277,0.05755 0.12243,0.01895 0.1369,-0.01238c0.29963,-0.4123 0.61729,-0.81616 0.99976,-1.1709c0.05414,-0.06992 0.10106,-0.12421 0.1192,-0.21087c0.0112,-0.26112 0.04041,-0.51387 -0.02396,-0.84815zM312.18664,162.88394c-0.06534,0.33105 -0.24949,0.58778 -0.41561,0.85294c-0.03614,0.0783 -0.11908,0.11582 -0.1192,0.21085c-0.00381,0.15044 0.09655,0.50149 0.2295,0.73457c0.19834,-0.09798 0.32104,-0.26914 0.47261,-0.4079c0.11907,-0.11583 0.15891,-0.24947 0.12671,-0.41663c-0.04278,-0.28623 -0.0496,-0.55573 0.01204,-0.83142c0.00726,-0.01567 -0.01435,-0.06374 -0.02509,-0.08775c-0.0648,-0.04917 -0.13678,-0.08266 -0.28095,-0.05459zM305.55288,161.05318c0.00683,0.26948 -0.13411,0.52735 -0.06606,0.80631c0.13325,0.04296 0.22342,-0.0102 0.32433,-0.03934c0.18385,-0.06668 0.37121,-0.09361 0.54075,-0.22399c0.02213,-0.33213 0.2027,-0.62861 0.25002,-0.96801c-0.06832,-0.08883 -0.15832,-0.13075 -0.2628,-0.14128c-0.23089,0.216 -0.49059,0.39956 -0.78627,0.56636zM308.77293,161.65721c-0.10829,0.13986 -0.2166,0.2797 -0.35719,0.34743c-0.33891,0.1657 -0.44378,0.44034 -0.42265,0.77355c0.01062,0.11906 -0.03276,0.21304 0.03188,0.35729c0.25233,-0.07287 0.45786,-0.18649 0.66336,-0.30016c0.05771,-0.03023 0.08658,-0.09289 0.10474,-0.17955c0.0364,-0.26843 0.08359,-0.51278 0.12005,-0.78115c0.02171,-0.04697 0.01459,-0.12639 -0.14021,-0.21743zM307.63883,161.12959c-0.23104,0.31103 -0.48366,0.57395 -0.83334,0.71566c-0.07567,0.02185 -0.08658,0.09288 -0.11548,0.15552c-0.04706,0.14932 -0.07612,0.30702 -0.03316,0.49819c0.35325,-0.102 0.61647,-0.24588 0.8869,-0.4054c0.09015,-0.05318 0.1443,-0.12307 0.16966,-0.22544c0.04357,-0.18899 0.10503,-0.36968 0.14854,-0.55868c0.00726,-0.01567 -0.01432,-0.06376 -0.02509,-0.08777c-0.054,-0.02512 -0.10802,-0.05026 -0.19802,-0.09211zM314.07509,160.072c0.00027,-0.19008 0.00782,-0.39588 0.0081,-0.586c-0.01075,-0.02401 -0.02155,-0.0481 -0.0431,-0.09613c-0.2631,0.0488 -0.45787,0.1865 -0.6094,0.32522c-0.09807,0.54411 -0.18169,1.05686 -0.42749,1.58933c0.36769,-0.13331 0.35731,-0.4425 0.50529,-0.62095c0.16966,-0.22545 0.3681,-0.41847 0.56653,-0.6115zM309.36048,156.54693c-0.09327,-0.27167 -0.15059,-0.52662 -0.35198,-0.75347c-0.12261,0.07611 -0.24877,0.11255 -0.34614,0.18141c-0.09736,0.06885 -0.21273,0.1293 -0.26332,0.23895c-0.01103,0.16605 0.07161,0.31866 0.111,0.47014c0.03945,0.15149 0.03557,0.30192 0.14343,0.44721c0.24167,-0.19197 0.45813,-0.37657 0.70705,-0.58418zM306.10081,158.39753c0.28886,-0.43629 0.52358,-0.80272 0.75831,-1.16906c0.01446,-0.03132 0.05418,-0.06992 0.03261,-0.118c-0.04651,-0.23089 -0.04254,-0.47637 -0.22595,-0.69483c-0.17322,0.18573 -0.33921,0.35584 -0.48721,0.53431c0.06775,0.46907 0.01307,0.91918 -0.07778,1.44764zM309.20588,163.70392c0.21263,-0.03425 0.3209,-0.1741 0.45074,-0.26586c0.15508,-0.09906 0.25613,-0.22323 0.26363,-0.42901c0.01842,-0.27676 0.03685,-0.55357 0.18853,-0.78742c-0.11158,-0.08996 -0.1908,-0.10779 -0.23417,-0.01383c-0.12641,0.22652 -0.2601,0.46871 -0.46208,0.62205c-0.28136,0.23055 -0.24583,0.5325 -0.20665,0.87411zM307.58277,162.53023c-0.35693,0.15735 -0.6489,0.26882 -0.9229,0.38863c-0.0506,0.10961 -0.02554,0.19739 -0.01842,0.27675c0.02509,0.08777 0.01773,0.19845 0.12926,0.28841c0.2559,-0.03316 0.50816,-0.106 0.74971,-0.20285c0.03997,-0.22869 0.05469,-0.45014 0.06237,-0.75094zM310.05481,164.61248c-0.05356,-0.31027 -0.10364,-0.58087 -0.14643,-0.86709c-0.21998,0.14496 -0.43277,0.27428 -0.64552,0.40354c0.03203,0.2622 0.03528,0.49203 0.18626,0.73342c0.22706,-0.06555 0.40738,-0.17192 0.60569,-0.26989zM310.45595,156.4478c-0.2594,-0.00655 -0.40738,0.17192 -0.5877,0.27825c-0.05771,0.03023 -0.07584,0.11688 -0.0615,0.18065c0.03571,0.20686 0.06065,0.38968 0.10357,0.58089c-0.00722,0.01566 0.02881,0.03241 0.0648,0.04918c0.22724,-0.16059 0.44361,-0.34529 0.67087,-0.50588c-0.01771,-0.19845 -0.10391,-0.39075 -0.19012,-0.58303zM312.98626,158.21475c0.0075,-0.20577 0.0078,-0.39585 -0.1396,-0.59762c-0.20908,0.07395 -0.45418,0.13113 -0.63093,0.27718c0.00339,0.13474 -0.0292,0.25274 -0.00057,0.3802c0.01061,0.11904 -0.06524,0.23599 0.07514,0.35835c0.238,-0.13658 0.47595,-0.27316 0.69601,-0.41812zM310.59491,164.76864c0.00694,0.17444 0.13284,0.32812 0.25146,0.49745c0.23078,-0.12088 0.47583,-0.17814 0.64907,-0.36384c-0.08619,-0.1923 -0.09668,-0.40641 -0.23688,-0.62384c-0.22724,0.16059 -0.43646,0.3296 -0.66367,0.49022zM313.41841,163.15265c-0.14812,0.27351 -0.23143,0.5962 -0.4156,0.85295c-0.14444,0.21815 -0.07621,0.40205 0.08196,0.62785c0.2055,-0.11363 0.32105,-0.26915 0.46179,-0.43195c-0.11838,-0.35942 -0.07106,-0.69889 -0.12817,-1.04885zM305.19393,157.70928c0.07923,0.01786 0.10089,-0.02914 0.12261,-0.07611c0.11197,-0.1952 0.21319,-0.41446 0.34317,-0.60129c0.20934,-0.26405 0.1016,-0.5044 -0.0529,-0.78555c-0.08663,0.09289 -0.15874,0.15444 -0.21289,0.22434c-0.14073,0.16282 -0.23826,0.32666 -0.15577,0.57434c0.03945,0.15149 0.01033,0.3092 -0.01145,0.45127c-0.04695,0.05427 -0.11906,0.11581 -0.03276,0.21303zM304.55132,161.04381c0.11892,-0.02076 0.20187,-0.05828 0.27754,-0.08013c0.23783,-0.04152 0.35694,-0.15736 0.40766,-0.36206c0.03631,-0.17333 0.13382,-0.33724 0.18809,-0.50222c0.02172,-0.04698 0.06138,-0.08559 -0.05741,-0.15988c-0.19125,0.17735 -0.41845,0.338 -0.67445,0.4662c-0.05771,0.03023 -0.0938,0.10851 -0.12274,0.17114c-0.02182,0.14201 -0.03644,0.26843 -0.01869,0.46689zM308.78399,163.90712c0.00028,-0.19008 0.0258,-0.38748 -0.03521,-0.58707c-0.25953,0.08853 -0.5226,0.13734 -0.74262,0.28227c0.03573,0.20685 0.01743,0.38857 0.17209,0.57468c0.2091,-0.07394 0.42897,-0.12383 0.60568,-0.2699zM311.13093,158.0174c0.25951,-0.08853 0.45429,-0.2262 0.61302,-0.38062c-0.03571,-0.20686 -0.06069,-0.38965 -0.15766,-0.60599c-0.1874,0.02695 -0.33524,0.11039 -0.4723,0.2178c0.01406,0.25382 0.0101,0.49931 0.01688,0.76879zM306.8493,163.88208c0.05743,0.15991 0.07526,0.26329 0.13638,0.3678c0.03233,0.0721 0.07185,0.12855 0.11143,0.185c0.21615,0.00544 0.42878,-0.02879 0.6091,-0.13513c-0.01771,-0.19845 -0.03546,-0.39693 -0.1649,-0.59033c-0.22706,0.06555 -0.4397,0.09982 -0.69199,0.17266zM304.61492,159.43738c-0.28476,0.09584 -0.4866,0.15407 -0.72093,0.23528c-0.04694,0.05426 -0.07953,0.17223 -0.06889,0.29134c-0.00737,0.1107 -0.09397,0.20357 -0.02211,0.33215c0.18371,0.02839 0.32786,0.00033 0.46848,-0.0674c0.09764,-0.25895 0.20613,-0.49384 0.34347,-0.79136zM309.37276,155.62045c0.0539,0.12019 0.10775,0.24039 0.16159,0.36056c0.05391,0.1202 0.11498,0.22471 0.16884,0.34487c0.20552,-0.11361 0.3894,-0.18028 0.50491,-0.33578c-0.01063,-0.11906 -0.1042,-0.20065 -0.17248,-0.28951c-0.06832,-0.08883 -0.11498,-0.22468 -0.2482,-0.26764c-0.15864,0.05939 -0.30276,0.08742 -0.41463,0.18759zM309.0202,165.00623c-0.07174,-0.22358 -0.07498,-0.45342 -0.23323,-0.67921c-0.18384,0.06669 -0.34967,0.14169 -0.53355,0.20835c0.07174,0.22358 0.11466,0.41482 0.29458,0.5936c0.16215,-0.01969 0.30988,-0.00802 0.47218,-0.12276zM307.24182,156.68366c0.23815,-0.23162 0.44381,-0.44031 0.64944,-0.64897c-0.02862,-0.12749 -0.03925,-0.24658 -0.15082,-0.3365c-0.27756,0.08014 -0.46874,0.2575 -0.67796,0.4265c0.02862,0.12749 0.05725,0.25493 0.11111,0.37511c-0.01093,0.07103 0.01786,0.1034 0.06817,0.1839zM306.19183,162.70113c-0.02853,-0.22253 0.05826,-0.41045 -0.02794,-0.60274c-0.2703,0.06449 -0.51538,0.12168 -0.7462,0.24261c0.07544,0.16828 0.00311,0.32484 0.13978,0.50257c0.21614,0.00544 0.38927,-0.08525 0.63434,-0.14242zM313.93356,158.29402c-0.1694,0.03534 -0.328,0.09472 -0.45786,0.18652c0.02129,0.23818 0.02453,0.46796 0.03136,0.73746c0.1875,-0.12201 0.35336,-0.19703 0.5697,-0.28663c-0.02128,-0.23819 -0.03175,-0.45233 -0.14318,-0.63735zM304.48231,161.43021c-0.02199,0.23708 -0.04747,0.43447 0.0747,0.64352c0.18016,-0.01131 0.33508,-0.01529 0.46494,-0.10708c0.01476,-0.22143 0.04745,-0.43444 0.05866,-0.69558c-0.21263,0.03425 -0.40726,0.07688 -0.59831,0.15918zM312.16938,157.47326c0.21276,-0.12929 0.45419,-0.13116 0.5697,-0.28668c-0.03571,-0.20686 -0.13637,-0.36782 -0.26225,-0.52152c-0.19461,0.04264 -0.38201,0.06957 -0.51556,0.21669c0.06817,0.18391 0.1184,0.35943 0.2081,0.59143zM310.44631,165.4224c-0.07542,-0.16827 -0.11483,-0.31973 -0.24795,-0.45776c-0.2055,0.11363 -0.45417,0.13113 -0.62017,0.30122c0.05742,0.15989 0.13652,0.27279 0.29131,0.36382c0.20184,-0.05828 0.39291,-0.14057 0.57674,-0.20726zM306.54392,156.01652c-0.05017,-0.17556 -0.11128,-0.28001 -0.2156,-0.3857c-0.18385,0.06668 -0.36418,0.173 -0.45087,0.36093c0.06464,0.14422 0.12926,0.2884 0.18667,0.44831c0.22356,-0.10525 0.32829,-0.28478 0.47981,-0.42359zM313.96364,164.9091c-0.07183,-0.12853 -0.13298,-0.23308 -0.23372,-0.29898c-0.18029,0.10632 -0.32456,0.22947 -0.44011,0.38497c0.04659,0.13581 0.10772,0.24035 0.21928,0.33029c0.19834,-0.09798 0.30304,-0.27753 0.45455,-0.4163zM307.34521,164.79762c0.02126,0.23815 0.15806,0.32083 0.3273,0.38056c0.126,0.05864 0.2665,0.08594 0.37833,-0.01422c-0.05017,-0.17556 -0.10757,-0.3354 -0.23346,-0.4891c-0.1694,0.03534 -0.32079,0.07906 -0.47216,0.12275zM314.91393,160.48124c0.01105,-0.16606 0.06888,-0.29133 -0.02098,-0.42825c-0.48294,0.09873 -0.53032,0.43814 -0.50205,0.85075c0.17676,-0.14603 0.34632,-0.27645 0.52304,-0.42248zM305.83724,163.65859c0.19094,0.01277 0.33507,-0.01531 0.50816,-0.106c-0.08989,-0.13691 -0.03563,-0.30192 -0.15071,-0.43154c-0.11527,-0.03463 -0.18015,0.01129 -0.27386,0.02476c-0.10089,0.02914 -0.2054,0.01858 -0.25601,0.12819c0.02862,0.12749 0.05727,0.25496 0.17238,0.3846zM309.82734,160.03615c0.15463,0.18608 0.27712,0.20503 0.36016,0.07246c0.11199,-0.1952 0.18796,-0.40716 0.25671,-0.60348c0.02893,-0.06261 0.04702,-0.14934 -0.04652,-0.23089c-0.22013,0.24002 -0.40423,0.49675 -0.57038,0.76189zM311.45797,165.9311c-0.00738,0.11069 0.04296,0.1912 0.14374,0.25713c0.2451,-0.05719 0.51897,-0.08196 0.72819,-0.25094c-0.17266,-0.19445 -0.34915,-0.23856 -0.54744,-0.14057c-0.10091,0.02915 -0.23067,0.02587 -0.32448,0.1344zM312.31193,161.00181c0.252,0.11725 0.3205,0.11101 0.38556,-0.02987c0.0832,-0.22763 0.17364,-0.47089 0.18481,-0.73202c-0.27415,0.21489 -0.52305,0.42249 -0.57039,0.7619zM314.26423,163.83146c-0.07582,0.11688 -0.12642,0.22657 -0.19503,0.32777c-0.11925,0.21086 -0.11921,0.21087 0.16868,0.43997c0.08663,-0.09289 0.19847,-0.19304 0.24535,-0.24729c-0.08617,-0.19232 -0.14359,-0.35216 -0.21902,-0.52041zM311.916,155.89058c-0.14419,0.02804 -0.32064,-0.01599 -0.40017,0.15626c0.07185,0.12854 0.16896,0.24983 0.2516,0.4024c0.16942,-0.03533 0.34956,-0.04659 0.46139,-0.14678c-0.08993,-0.13692 -0.15451,-0.28117 -0.31284,-0.4119zM312.59487,164.55771c-0.18393,0.16172 -0.38598,0.31502 -0.56995,0.47675c-0.00011,0.09503 0.02493,0.18279 0.14738,0.20172c0.22706,-0.06555 0.43264,-0.1792 0.58061,-0.35766c-0.02862,-0.12749 -0.07175,-0.22359 -0.1581,-0.32083zM314.41571,158.76568c0.13325,0.04296 0.2522,0.02224 0.36757,-0.03826c-0.00708,-0.0794 -0.01419,-0.15878 -0.0213,-0.23818c-0.01783,-0.1034 -0.01774,-0.19847 -0.1113,-0.28003c-0.108,-0.05025 -0.21246,-0.06085 -0.32063,-0.01601c0.02497,0.18284 0.06072,0.38969 0.08561,0.57248zM311.01389,156.80253c0.16942,-0.03533 0.29203,-0.11147 0.40385,-0.21161c-0.10062,-0.16095 -0.1833,-0.31354 -0.27314,-0.45045c-0.16573,-0.01999 -0.28109,0.04044 -0.34248,0.12603c0.06815,0.18389 0.13637,0.36781 0.21173,0.53609zM314.91162,159.58609c-0.01063,-0.11906 -0.02125,-0.23815 -0.04987,-0.36564c-0.01076,-0.024 -0.0468,-0.0408 -0.0756,-0.07322c-0.0937,0.01347 -0.21617,-0.00545 -0.32801,0.09471c-0.0038,0.15045 -0.04005,0.32376 0.0281,0.50767c0.18014,-0.01133 0.29551,-0.0718 0.42537,-0.16355zM315.24421,161.3768c0.0975,-0.16389 0.31002,-0.1031 0.38229,-0.25968c-0.01419,-0.15876 0.0329,-0.30808 -0.05331,-0.50038c-0.16215,0.01969 -0.30634,0.04774 -0.31735,0.2138c-0.01105,0.16606 -0.0941,0.2986 -0.01162,0.54626zM312.80574,165.75915c0.1226,-0.07613 0.26321,-0.14389 0.37858,-0.20431c0.02524,-0.00729 0.02171,-0.04699 0.03613,-0.07831c-0.07557,-0.0732 -0.12941,-0.19339 -0.31313,-0.22173c-0.14781,0.08343 -0.30292,0.18244 -0.47601,0.27317c0.09709,0.12127 0.1979,0.18718 0.37436,0.23125zM310.84975,155.73695c-0.06462,-0.14421 -0.12205,-0.3041 -0.17591,-0.42424c-0.1837,-0.02841 -0.32788,-0.00036 -0.45402,0.03609c-0.0326,0.11803 0.0862,0.19225 0.13652,0.27277c0.05036,0.0805 0.09342,0.17661 0.22669,0.2196c0.08646,0.00217 0.18018,-0.0113 0.26679,-0.10417zM304.58168,162.44663c0.03945,0.15149 0.07526,0.26333 0.11113,0.37511c0.00352,0.03971 0.05031,0.08051 0.0611,0.10453c0.126,0.05864 0.24497,0.03788 0.36033,-0.02261c-0.03221,-0.16716 -0.04638,-0.32595 -0.12171,-0.49418c-0.12969,-0.00325 -0.24864,0.0175 -0.41079,0.03716zM314.7574,164.04189c0.16601,-0.17008 0.33195,-0.34016 0.37918,-0.58453c-0.1837,-0.0284 -0.33499,-0.07975 -0.4828,0.00365c-0.0329,0.30808 -0.03289,0.3081 0.10361,0.58086zM306.04201,164.02017c0.16868,0.43997 0.18667,0.44828 0.58305,0.44242c-0.05743,-0.15991 -0.14005,-0.31244 -0.19744,-0.47235c-0.13325,-0.04296 -0.25215,-0.02219 -0.38556,0.02986zM313.82618,157.86361c-0.03219,-0.16714 -0.07883,-0.303 -0.19393,-0.43266c-0.04324,-0.00109 -0.11172,0.0051 -0.18019,0.01129c-0.05047,0.01457 -0.10817,0.04482 -0.15859,0.05935c0.03221,0.16715 0.03917,0.34162 0.14703,0.48692c0.12968,0.00326 0.2631,-0.0488 0.38567,-0.12496zM303.84128,161.20808c0.06845,-0.00621 0.16215,-0.0197 0.20187,-0.05828c0.13354,-0.14713 0.16977,-0.32046 0.12329,-0.55139c-0.13693,0.01237 -0.29539,-0.02329 -0.3928,0.04557c-0.00028,0.19008 -0.06179,0.37074 0.06764,0.56411zM307.53562,155.33652c-0.01075,-0.02401 -0.02155,-0.04806 -0.0431,-0.09613c-0.29189,0.01642 -0.55142,0.10492 -0.81092,0.19344c0.0034,0.13473 0.05374,0.21521 0.1905,0.29787c0.21276,-0.12929 0.44348,-0.25023 0.66352,-0.39518zM311.5749,159.89803c-0.21646,0.18466 -0.44363,0.34526 -0.54854,0.61987c-0.00726,0.01567 0.05035,0.08047 0.08633,0.09722c0.09002,0.04184 0.19094,0.01272 0.22705,-0.06559c0.14799,-0.17845 0.20596,-0.39881 0.23515,-0.6515zM313.4851,157.03908c-0.04659,-0.13586 -0.09326,-0.27169 -0.19037,-0.39296c-0.126,-0.05864 -0.23049,-0.0692 -0.37108,-0.00147c0.08266,0.15259 0.15804,0.32086 0.24791,0.45778c0.12243,0.01893 0.21614,0.00544 0.31353,-0.06338zM308.66277,165.54379c0.2448,0.13291 0.45358,0.24911 0.72021,0.23998c0.01104,-0.16605 -0.08603,-0.28734 -0.20837,-0.40133c-0.18739,0.02697 -0.34954,0.04663 -0.51186,0.16139zM303.4838,159.32966c0.20541,-0.01857 0.23061,-0.02582 0.25234,-0.07282c0.09029,-0.14819 0.06536,-0.33106 0.03317,-0.4982c-0.01431,-0.0637 -0.09713,-0.12126 -0.1945,-0.05242c0.04294,0.1912 -0.12305,0.3613 -0.09097,0.6235zM308.20508,155.78114c0.23078,-0.12088 0.47231,-0.21782 0.61317,-0.47567c-0.3026,-0.0076 -0.51541,0.12167 -0.71368,0.21966c-0.01818,0.08667 0.02142,0.14309 0.10052,0.256zM305.20729,163.27035c-0.1117,0.00511 -0.21616,-0.00543 -0.32785,-0.00034c0.02495,0.18284 0.08236,0.3427 0.30207,0.38783c0.06124,0.00949 0.12243,0.01892 0.1694,-0.03534c0.00737,-0.1107 -0.05373,-0.21525 -0.1436,-0.35215zM313.59038,161.4064c0.16204,0.07535 0.24846,0.07757 0.28829,-0.05608c0.03261,-0.11803 0.0652,-0.236 0.07979,-0.36238c0.00364,-0.05535 -0.01062,-0.11911 -0.08987,-0.13694c-0.14075,0.1628 -0.22026,0.33506 -0.27822,0.55539zM306.89412,157.91058c-0.16602,0.17009 -0.29595,0.35693 -0.33593,0.58562c-0.00724,0.01568 0.05034,0.08046 0.06831,0.08883c0.03599,0.01674 0.09369,-0.01348 0.10816,-0.04482c0.07598,-0.21195 0.19873,-0.38314 0.15945,-0.62973zM305.78433,158.04105c0.01828,-0.18173 0.09782,-0.35402 0.06935,-0.57652c-0.18396,0.16171 -0.2995,0.31722 -0.28886,0.43631c-0.00737,0.1107 0.06462,0.14423 0.21954,0.1402zM310.49568,166.16823c0.23772,0.05351 0.48979,0.17076 0.70252,0.04147c-0.26621,-0.276 -0.47895,-0.14671 -0.70252,-0.04147zM311.55924,163.20082c0.03598,0.01673 0.06129,0.00949 0.09726,0.02623c0.05427,-0.16495 0.19133,-0.27242 0.16637,-0.45523c-0.10076,-0.06592 -0.16201,-0.07538 -0.25216,-0.0222c0.0034,0.13473 -0.00043,0.28514 -0.01144,0.45125zM309.1515,159.03685c-0.1552,0.19412 -0.27072,0.34965 -0.33948,0.54594c-0.01446,0.03132 0.00708,0.07939 0.06109,0.10451c0.01802,0.00838 0.06123,0.00947 0.08646,0.00217c0.16601,-0.17008 0.25272,-0.35799 0.1919,-0.65262zM304.06058,161.53839c-0.12245,-0.01892 -0.19091,-0.01275 -0.1766,0.051c0.0034,0.13473 0.02483,0.27788 0.04622,0.421c0.02508,0.08776 0.07908,0.11288 0.16201,0.07537c0.02554,-0.19738 0.03657,-0.36347 -0.03161,-0.54737zM312.68283,156.26635c0.0937,-0.01347 0.18019,-0.01131 0.27387,-0.02477c0.02523,-0.00726 0.03967,-0.03862 0.07939,-0.0772c-0.21599,-0.10051 -0.39234,-0.2396 -0.65528,-0.28586c0.08266,0.15259 0.14374,0.25711 0.30209,0.38783zM306.99071,160.82803c-0.0543,0.16499 -0.10135,0.31432 -0.1701,0.51061c0.25233,-0.07287 0.37139,-0.18865 0.42565,-0.35364c-0.06832,-0.08885 -0.11509,-0.12965 -0.25558,-0.15698zM312.82405,163.06634c0.0214,0.14316 -0.09411,0.29861 0.06052,0.48472c0.22747,-0.35073 0.26362,-0.42901 0.18807,-0.50225c-0.09002,-0.04184 -0.15849,-0.03569 -0.24864,0.01749zM308.05688,158.56568c-0.32447,0.13438 -0.41116,0.32232 -0.44763,0.59074c0.33878,-0.07068 0.29594,-0.35692 0.44763,-0.59074zM314.8807,161.07451c-0.29925,0.12711 -0.37876,0.2994 -0.42949,0.50406c-0.00722,0.01566 0.02154,0.04807 0.05754,0.06481c0.054,0.02514 0.10447,0.01055 0.1189,-0.02077c0.09031,-0.1482 0.14458,-0.31317 0.253,-0.54808zM313.79668,163.23351c-0.01105,0.16606 -0.06533,0.33106 0.06407,0.52437c0.1263,-0.13149 0.17334,-0.28081 0.21319,-0.41445c-0.08633,-0.09723 -0.16553,-0.11506 -0.27727,-0.10995zM315.54481,160.29914c-0.06096,-0.19958 0.01856,-0.37185 -0.13256,-0.51824c-0.1552,0.19412 -0.1552,0.19412 -0.05841,0.50548c0.04324,0.00109 0.08646,0.00217 0.19094,0.01274zM311.07675,165.52541c0.27372,0.07026 0.4648,-0.01204 0.64509,-0.1184c-0.01063,-0.11906 -0.08266,-0.15259 -0.15833,-0.13074c-0.14782,0.08344 -0.31369,0.15845 -0.48674,0.24915zM314.19022,157.78563c0.11527,0.03462 0.21248,0.06081 0.30983,-0.00802c-0.03587,-0.1118 -0.07169,-0.22363 -0.17247,-0.28949c-0.09724,-0.02623 -0.16572,-0.02001 -0.23066,0.02589c-0.00012,0.09505 0.03219,0.16717 0.0933,0.27167zM309.32324,162.31275c0.11183,-0.10014 0.19126,-0.17739 0.1986,-0.2881c-0.00352,-0.03971 -0.03232,-0.07211 -0.06111,-0.10452c-0.054,-0.02514 -0.14049,-0.02733 -0.14416,0.02802c-0.04339,0.09399 -0.09399,0.20359 0.00668,0.36459zM311.54546,155.50891c-0.14035,-0.12236 -0.32051,-0.11105 -0.47899,-0.14671c0.12204,0.30411 0.15809,0.32081 0.47899,0.14671zM304.78346,157.55635c0.18044,-0.2014 0.18044,-0.20139 0.0618,-0.37076c-0.07939,0.0772 -0.16599,0.1701 -0.0618,0.37076zM310.61648,162.40073c-0.05036,-0.0805 -0.10434,-0.10562 -0.13679,-0.08267c-0.14782,0.08344 -0.15153,0.13877 -0.05455,0.3551c0.10461,-0.08445 0.14802,-0.17845 0.19137,-0.27243zM315.57895,161.55157c-0.12615,0.03645 -0.23431,0.08126 -0.2489,0.20757c0.30971,0.08699 0.34215,0.06411 0.2489,-0.20757zM304.6584,156.8324c-0.15864,0.05939 -0.23448,0.17625 -0.30304,0.27749c-0.02893,0.06262 0.00341,0.13478 0.14035,0.12238c0.06858,-0.10125 0.14445,-0.21817 0.16272,-0.39987zM315.2943,159.1363c-0.10829,0.13986 -0.09047,0.24328 0.03913,0.34162c0,0 0.04324,0.00109 0.05046,-0.01458c0.06135,-0.08561 -0.0177,-0.19847 -0.08958,-0.32707zM308.17488,161.62629c0.12245,0.01892 0.18742,-0.02696 0.19831,-0.09798c0.01446,-0.03132 -0.0071,-0.07941 -0.03586,-0.11181c-0.0288,-0.03241 -0.09721,-0.02622 -0.11166,0.00513c-0.03969,0.03861 -0.06859,0.10123 -0.05075,0.20467zM313.80243,156.92041c0.0214,0.14314 0.07171,0.22362 0.24467,0.22795c-0.03221,-0.16715 -0.08972,-0.23198 -0.24467,-0.22795z" fill="url(#color-11)"/><path d="M305.41437,167.03816c0.56883,0.28367 1.1377,0.56739 1.71378,0.83537c0.6481,0.30152 1.32507,0.54038 2.02022,0.69257c0.21971,0.04514 0.41783,0.04224 0.66278,0.0801c-0.11567,0.25059 -0.19883,0.47818 -0.31806,0.68903c-0.67924,1.28195 -1.27571,2.62144 -1.92615,3.93582c-0.58543,1.17343 -1.14555,2.33959 -1.71296,3.5214c-0.3939,0.80597 -0.78059,1.59625 -1.1745,2.4022c-0.37224,0.75899 -0.70118,1.51903 -1.07339,2.27803c-0.02892,0.06264 -0.05783,0.12529 -0.10476,0.17955c-0.33155,0.05504 -0.63773,0.00766 -0.97266,-0.07205c-0.52946,-0.13218 -1.06242,-0.30404 -1.55923,-0.5542c-0.16204,-0.07535 -0.33128,-0.13508 -0.43911,-0.28041c0.1765,0.04406 0.33481,0.17477 0.56896,0.18861c-0.01032,-0.30915 0.16655,-0.55029 0.26422,-0.80924c0.00722,-0.01566 0.01446,-0.0313 -0.00352,-0.03968c0.05117,-0.48982 0.26084,-0.94397 0.37322,-1.42435c0.03629,-0.17333 0.01854,-0.37184 0.12682,-0.51168c0.18061,-0.29645 0.1559,-0.66939 0.3365,-0.96587c0.00722,-0.01566 0.00368,-0.05537 0.01816,-0.08668c0.08332,-0.32263 0.14148,-0.63804 0.26079,-0.94396c0.15904,-0.34452 0.1596,-0.72476 0.35462,-1.05251c-0.01406,-0.25382 0.11598,-0.44065 0.19917,-0.66827c0.01446,-0.03132 0.02167,-0.047 0.03615,-0.07828c0.00056,-0.38022 0.22436,-0.67558 0.29695,-1.02231c0.07257,-0.3467 0.26037,-0.65881 0.35093,-0.99715c0.11228,-0.38532 0.16324,-0.78008 0.39078,-1.13081c0.01446,-0.03132 0.03617,-0.07831 0.03261,-0.11801c-0.02853,-0.22253 0.11225,-0.38531 0.18102,-0.5816c0.04339,-0.09399 0.11197,-0.19518 0.11934,-0.30591c-0.00692,-0.17443 0.06889,-0.29134 0.13395,-0.4323c0.03614,-0.0783 0.09032,-0.14825 0.08319,-0.22761c-0.01406,-0.25382 0.12315,-0.45631 0.21712,-0.65989c0.03614,-0.0783 0.09027,-0.14822 0.08321,-0.22762c-0.01046,-0.21411 0.08701,-0.37804 0.16657,-0.55029c0.13011,-0.28192 0.13423,-0.6224 0.28234,-0.89588c0.03968,-0.03861 0.00741,-0.11069 0.01105,-0.16606z" fill="#87d7dc"/><path d="M305.41435,167.03819c-0.00369,0.05536 0.02865,0.12747 0.00695,0.17445c-0.1481,0.27353 -0.17024,0.60563 -0.28234,0.89591c-0.07953,0.17225 -0.17704,0.33617 -0.16657,0.55028c0.00708,0.0794 -0.04706,0.14932 -0.08316,0.2276c-0.09395,0.20358 -0.21322,0.41443 -0.21719,0.6599c0.00708,0.0794 -0.06506,0.14096 -0.08317,0.22763c-0.06505,0.14094 -0.12291,0.26624 -0.13395,0.4323c-0.00737,0.1107 -0.07599,0.21198 -0.11936,0.30594c-0.06873,0.19628 -0.20948,0.3591 -0.181,0.5816c0.00352,0.03971 -0.01815,0.08667 -0.0326,0.11799c-0.22028,0.33507 -0.27852,0.74554 -0.39077,1.13083c-0.09782,0.35403 -0.28561,0.66609 -0.35098,0.99714c-0.07254,0.34669 -0.29637,0.64207 -0.29692,1.02227c0.01074,0.02403 -0.02171,0.04699 -0.03617,0.07832c-0.09395,0.20358 -0.21317,0.41445 -0.19914,0.66829c-0.21306,0.31939 -0.21359,0.69963 -0.35465,1.05251c-0.13736,0.29754 -0.17745,0.6213 -0.26083,0.94397c-0.01446,0.03132 -0.00366,0.05539 -0.01813,0.08669c-0.18061,0.29645 -0.1559,0.66937 -0.3365,0.96587c-0.0975,0.16388 -0.07259,0.34673 -0.12683,0.51168c-0.13041,0.47198 -0.32203,0.93452 -0.37321,1.42434c-0.00722,0.01566 0.00357,0.03972 0.00357,0.03972c-0.09765,0.25896 -0.27457,0.50007 -0.26422,0.80925c-0.21615,-0.00544 -0.36727,-0.15186 -0.56898,-0.18862c-0.14401,-0.06699 -0.28801,-0.13403 -0.37067,-0.28665c0.04339,-0.09399 0.11197,-0.1952 0.11933,-0.3059c0.0258,-0.38748 0.19564,-0.70797 0.31143,-1.05361c0.11579,-0.34559 0.14156,-0.7331 0.3546,-1.05249c-0.01406,-0.25382 0.11593,-0.44068 0.19914,-0.6683c0.01446,-0.03132 0.03614,-0.0783 0.0326,-0.118c-0.02496,-0.18283 0.08334,-0.32263 0.13042,-0.472c0.03614,-0.0783 0.07227,-0.15662 0.0832,-0.22762c0.06902,-0.38641 0.16324,-0.78008 0.32953,-1.1403c0.02172,-0.04698 0.06863,-0.10124 0.04704,-0.14931c-0.01771,-0.19844 0.07254,-0.3467 0.14483,-0.50331c0.0975,-0.16388 0.04378,-0.37913 0.14856,-0.55866c0.13367,-0.2422 0.15208,-0.51898 0.23173,-0.78629c0.12301,-0.3613 0.16683,-0.74039 0.33311,-1.10056c0.02892,-0.06264 0.08308,-0.13258 0.06875,-0.19632c-0.01414,-0.15879 0.06886,-0.29134 0.11593,-0.44066c0.05784,-0.12527 0.09766,-0.25892 0.1123,-0.38532c0.02199,-0.23708 0.07992,-0.45741 0.18111,-0.67668c0.1338,-0.33723 0.15959,-0.72473 0.3726,-1.04412c0.01446,-0.03132 0.01817,-0.08666 0.03263,-0.11801c0.09782,-0.35403 0.17757,-0.71637 0.31142,-1.05356c0.15904,-0.34452 0.17404,-0.75608 0.3691,-1.08384c0.02172,-0.04698 0.00735,-0.11068 0.01105,-0.16606c0.05797,-0.22032 0.14118,-0.44795 0.28916,-0.6264c0.09724,0.02624 0.16924,0.05969 0.24849,0.07757c0.23035,0.16425 0.4319,0.29606 0.65872,0.42061z" fill="#b0eef2"/><path d="M315.8517,162.28723c-0.08333,0.32262 -0.17379,0.56594 -0.35422,0.76735c-0.20187,0.05828 -0.42157,0.01317 -0.64847,-0.01633c-1.113,-0.1944 -2.21878,-0.40449 -3.30277,-0.7566c-0.81748,-0.26618 -1.65296,-0.54073 -2.45229,-0.89358c-0.21601,-0.1005 -0.44284,-0.22504 -0.68055,-0.27859c-0.09724,-0.02624 -0.20527,-0.07648 -0.31325,-0.12671c-0.40315,-0.26366 -0.84964,-0.43334 -1.27449,-0.65002c-0.60487,-0.30041 -1.18083,-0.66349 -1.74228,-1.05786c-0.27711,-0.20501 -0.56148,-0.3944 -0.86384,-0.59211c-0.23753,-0.14859 -0.41023,-0.34303 -0.59011,-0.52185c0.00411,-0.34052 0.0367,-0.4585 0.24621,-0.81759c0.3888,0.19988 0.7235,0.46974 1.09782,0.70098c0.35635,0.22287 0.73069,0.45409 1.09431,0.66131c0.38157,0.21557 0.78844,0.42389 1.17723,0.62379c0.36356,0.2072 0.78855,0.32877 1.13048,0.58299c0.43221,0.10595 0.80654,0.33721 1.20984,0.50581c0.38527,0.16022 0.79579,0.31313 1.1883,0.45772c0.41052,0.15293 0.82822,0.2902 1.26399,0.43589c0.39974,0.12891 0.81023,0.28186 1.21723,0.39508c0.42495,0.1216 0.84638,0.20354 1.27859,0.30951c0.4502,0.11433 0.85715,0.22757 1.31828,0.27089z" fill="url(#color-12)"/><path d="M304.76637,166.64163c-0.07923,-0.01786 -0.15127,-0.05134 -0.24849,-0.07755c-0.14797,0.17848 -0.24194,0.38201 -0.28916,0.6264c-0.0037,0.05537 0.01062,0.11908 -0.01105,0.16606c-0.19505,0.32776 -0.22805,0.73095 -0.3691,1.08384c-0.15181,0.32886 -0.2136,0.6996 -0.31145,1.05357c-0.01446,0.03132 -0.01815,0.08669 -0.0326,0.118c-0.21307,0.31939 -0.21364,0.69959 -0.37265,1.04413c-0.09395,0.20358 -0.15917,0.43958 -0.1811,0.67667c-0.02184,0.14199 -0.06165,0.27569 -0.11228,0.38532c-0.06505,0.14094 -0.14088,0.25785 -0.11593,0.44067c0.01431,0.06371 -0.03985,0.13366 -0.06876,0.1963c-0.15904,0.34452 -0.21004,0.73929 -0.33307,1.10057c-0.07968,0.26731 -0.09806,0.5441 -0.23174,0.78628c-0.0975,0.16388 -0.04379,0.37911 -0.14855,0.55867c-0.09029,0.14821 -0.1878,0.31211 -0.14488,0.50333c-0.0037,0.05537 -0.02537,0.10233 -0.04703,0.1493c-0.16626,0.36016 -0.25332,0.73817 -0.32952,1.14028c-0.01818,0.08667 -0.07225,0.15659 -0.08319,0.2276c-0.06505,0.14094 -0.1553,0.28919 -0.13037,0.472c0.00352,0.03971 -0.01814,0.08668 -0.03259,0.11798c-0.09395,0.20358 -0.21319,0.41445 -0.19914,0.66828c-0.21305,0.3194 -0.23883,0.70691 -0.35461,1.05251c-0.11579,0.34559 -0.29283,0.68173 -0.31142,1.05356c-0.00738,0.11069 -0.076,0.21196 -0.11935,0.30594c-0.16926,-0.05973 -0.23387,-0.20392 -0.35269,-0.2782c0.21359,-0.6996 0.39475,-1.37629 0.59388,-2.04456c0.21007,-0.7393 0.43089,-1.45456 0.65892,-2.18549c0.20638,-0.68397 0.39472,-1.37629 0.58312,-2.06861c0.24266,-0.8573 0.46008,-1.70733 0.69548,-2.54896c0.18468,-0.63699 0.36941,-1.27391 0.53606,-1.91928c0.28248,-0.99097 0.6442,-1.9641 0.89066,-2.97179c0.03981,-0.13364 0.04365,-0.28407 0.16271,-0.39986c0.16204,0.07535 0.30234,0.19774 0.44992,0.30444c0.07557,0.07319 0.25203,0.11724 0.35993,0.26256z" fill="#87d7dc"/><path d="M300.70966,181.30464c0.3925,0.14456 0.73811,0.34339 1.13782,0.47228c0.46099,0.13838 0.92917,0.26104 1.44072,0.28982c-0.41927,0.90831 -0.8313,1.80093 -1.23611,2.67792c-0.27754,0.08016 -0.54049,0.03389 -0.79266,0.01169c-0.4791,-0.05167 -0.90761,-0.21301 -1.35414,-0.38269c-0.01802,-0.00838 -0.04677,-0.04078 -0.05759,-0.06482c0.20539,-0.01857 0.2092,-0.16897 0.23103,-0.31103c0.05455,-0.35508 0.12712,-0.70178 0.28972,-1.00662c0.02892,-0.06264 0.05782,-0.12529 0.06872,-0.19629c0.02934,-0.34782 0.1919,-0.65262 0.27524,-0.97531c0.04357,-0.18899 0.06528,-0.33101 -0.00286,-0.51494z" fill="#61afb4"/><path d="M305.45777,164.4332c0.58669,0.38711 1.22399,0.66456 1.83239,1.00466c0.2808,0.14966 0.58331,0.25235 0.88583,0.35505c0.55453,0.21996 1.09811,0.51088 1.68157,0.66816c0.23049,0.06918 0.46095,0.13838 0.68069,0.18354c0.1405,0.02733 0.27369,0.07025 0.39974,0.12891c-0.00364,0.05535 -0.00016,0.09504 -0.01463,0.12638c-0.05785,0.12526 -0.11563,0.25056 -0.17345,0.37585c-0.11169,0.00513 -0.19816,0.00291 -0.30262,-0.00761c-0.7348,-0.11358 -1.48765,-0.23555 -2.18979,-0.5622c-0.61933,-0.26909 -1.25658,-0.54656 -1.84702,-0.87829c-0.47165,-0.25746 -0.95045,-0.49926 -1.34623,-0.8736c0.10445,0.01053 0.1908,0.10778 0.30617,0.04731c0.11551,-0.15551 0.2635,-0.33396 0.0873,-0.56812z" fill="url(#color-13)"/><path d="M305.40547,165.6834c0.32051,0.11107 0.56515,0.33904 0.86395,0.49706c0.64087,0.31719 1.28172,0.63438 1.94426,0.90454c0.53651,0.21156 1.08397,0.35209 1.62786,0.45296c0.1405,0.02733 0.28092,0.05461 0.42141,0.08192c-0.10121,0.21926 -0.18791,0.4072 -0.28192,0.61077c-0.30277,0.08741 -0.60898,0.04004 -0.91868,-0.04693c-0.37096,-0.09646 -0.7599,-0.20136 -1.12718,-0.35321c-0.839,-0.31427 -1.61666,-0.71409 -2.41956,-1.10663c-0.14401,-0.06699 -0.28805,-0.13401 -0.37792,-0.27093c0.03614,-0.0783 0.09026,-0.14824 0.08317,-0.22761c0.00028,-0.19011 0.10503,-0.3697 0.18453,-0.54191z" fill="url(#color-14)"/><path d="M300.70966,181.30465c0.05743,0.15991 0.05356,0.31027 -0.0007,0.47526c-0.08333,0.32264 -0.24594,0.62753 -0.27525,0.9753c-0.01093,0.07102 -0.03981,0.13368 -0.06875,0.19632c-0.15179,0.32889 -0.21714,0.6599 -0.28972,1.00661c-0.01461,0.12639 -0.02564,0.29246 -0.23105,0.31103c-0.27726,-0.10998 -0.51485,-0.25853 -0.71273,-0.44571c0.04719,-0.24441 0.07641,-0.49712 0.2136,-0.69962c0.01446,-0.03132 0.01815,-0.08667 0.0326,-0.118c0.09057,-0.33831 0.18837,-0.69232 0.29694,-1.02229c0.04705,-0.14931 0.10491,-0.27458 0.13398,-0.43231c0.02554,-0.19737 0.09425,-0.39371 0.26378,-0.5241c0.09724,0.02623 0.16924,0.05973 0.24847,0.07757c0.126,0.05864 0.26282,0.1413 0.38881,0.19989z" fill="#87d7dc"/><path d="M309.43907,157.04008c0.11485,0.31975 0.08921,0.61214 0.04553,0.89628c-0.01092,0.07101 -0.05432,0.16499 -0.10121,0.21925c-0.35364,0.38715 -0.63531,0.8078 -0.89894,1.2368c-0.00722,0.01566 -0.03968,0.03859 -0.06491,0.04591c-0.0937,0.01347 -0.18372,-0.02837 -0.25204,-0.11723c0.01446,-0.03132 0.01088,-0.07104 0.02537,-0.10235c0.19152,-0.36743 0.329,-0.76007 0.36925,-1.17888c0.03276,-0.21304 0.11228,-0.38532 0.28901,-0.53138c0.202,-0.15332 0.34996,-0.33179 0.58799,-0.46838z" fill="#cce5e6"/><path d="M307.26739,158.90222c-0.12969,-0.00325 -0.19447,-0.05242 -0.22682,-0.12452c0.31099,-0.76845 0.31097,-0.76844 0.32654,-1.56017c0.15891,-0.2495 0.4078,-0.45709 0.61351,-0.66574c0.1405,0.02733 0.11507,0.12962 0.1294,0.19337c0.04651,0.23089 0.10021,0.44613 0.10347,0.67594c-0.00381,0.15044 -0.03647,0.2684 -0.13025,0.37692c-0.28877,0.34127 -0.56668,0.70654 -0.81589,1.10423z" fill="#cce5e6"/><path d="M300.30285,181.09636c-0.07923,-0.01786 -0.15127,-0.05137 -0.24847,-0.07757c-0.16954,0.13039 -0.23828,0.32667 -0.26379,0.5241c-0.02905,0.15772 -0.08687,0.28297 -0.13399,0.4323c-0.10856,0.32997 -0.20637,0.68394 -0.29695,1.02227c-0.01446,0.03132 -0.01814,0.0867 -0.03261,0.11801c-0.12643,0.22652 -0.14842,0.46359 -0.21363,0.69958c-0.12956,-0.09829 -0.24112,-0.1883 -0.34178,-0.34927c0.1484,-0.4636 0.26803,-0.95968 0.44166,-1.43057c0.1484,-0.4636 0.22479,-0.96072 0.44164,-1.43054c0.28078,0.14966 0.46792,0.31279 0.64783,0.49158z" fill="#60adb2"/><path d="M310.98025,162.51289c0.07923,0.01786 0.1405,0.02734 0.21971,0.04515c0.02156,0.04808 0.03229,0.07211 0.04307,0.09613c-0.05087,0.29973 -0.0405,0.60893 -0.01218,0.92645c0.00341,0.13475 -0.02197,0.23711 -0.12658,0.32159c-0.19121,0.17736 -0.35363,0.38716 -0.67443,0.46619c-0.12203,-0.30409 -0.13242,-0.61328 -0.12472,-0.91409c0.00364,-0.05535 0.05786,-0.12526 0.10474,-0.17953c0.18408,-0.25674 0.36828,-0.51356 0.57041,-0.76192z" fill="#cce5e6"/><path d="M313.06119,158.66811c-0.00026,0.19008 0.01033,0.3092 0.01373,0.44394c-0.00397,0.24547 -0.0727,0.44177 -0.28192,0.61077c-0.33551,0.30044 -0.62424,0.64178 -0.80497,1.03325c-0.05784,0.12527 -0.08305,0.13254 -0.29188,0.01641c0.0217,-0.04698 0.02535,-0.10234 0.04708,-0.14933c0.19872,-0.38313 0.3182,-0.78409 0.38369,-1.21019c0.02539,-0.10233 0.04354,-0.189 0.11565,-0.2506c0.25245,-0.16792 0.4689,-0.35254 0.81861,-0.4942z" fill="#cae2e3"/><path d="M309.38439,159.90617c-0.01075,-0.02401 -0.01434,-0.06378 -0.00708,-0.07939c0.20225,-0.34341 0.28929,-0.72146 0.3511,-1.09222c0.07254,-0.34669 0.20991,-0.64428 0.5273,-0.85802c0.15508,-0.09906 0.25255,-0.26296 0.43645,-0.32958c0.13624,0.46286 0.03474,0.87221 -0.25031,1.15809c-0.3392,0.35584 -0.68916,0.68761 -0.88081,1.15016c-0.03968,0.03861 -0.06863,0.10123 -0.17663,0.051z" fill="#c9e1e2"/><path d="M311.79385,158.09753c0.06435,0.33431 0.03517,0.58703 -0.00127,0.85545c-0.01818,0.08667 -0.0543,0.16496 -0.11921,0.21088c-0.36444,0.36312 -0.70007,0.75863 -0.99973,1.17088c-0.01446,0.03132 -0.05412,0.06993 -0.13692,0.01238c0.0506,-0.10961 0.10844,-0.23487 0.14105,-0.35288c0.12659,-0.32156 0.23514,-0.65153 0.26445,-0.99934c0.02916,-0.25276 0.14118,-0.44794 0.35394,-0.57724c0.15508,-0.09906 0.3029,-0.18251 0.49768,-0.32018z" fill="#c9e1e2"/><path d="M312.18664,162.88394c0.14419,-0.02804 0.2342,0.01385 0.32418,0.0557c0.01076,0.024 0.01434,0.06375 0.02507,0.08776c-0.07966,0.26732 -0.08008,0.55248 -0.01201,0.83142c0.03217,0.16715 -0.00765,0.30081 -0.12673,0.41663c-0.1515,0.13876 -0.29226,0.30158 -0.47256,0.40793c-0.13295,-0.23306 -0.25136,-0.59255 -0.22951,-0.73458c0.00012,-0.09505 0.06503,-0.14094 0.11923,-0.21087c0.10489,-0.27458 0.307,-0.52301 0.37237,-0.854z" fill="#cae3e4"/><path d="M305.55286,161.05322c0.29565,-0.16682 0.53739,-0.35871 0.76828,-0.57472c0.12243,0.01893 0.19452,0.05243 0.26283,0.14129c-0.0401,0.32372 -0.22794,0.63585 -0.25004,0.968c-0.16955,0.13036 -0.35693,0.15735 -0.54075,0.22404c-0.10089,0.02914 -0.19104,0.0823 -0.3243,0.03933c-0.05004,-0.2706 0.08363,-0.51276 0.08405,-0.79792z" fill="#c8e0e1"/><path d="M308.77293,161.65721c0.15478,0.09102 0.14387,0.16206 0.13298,0.23307c-0.03641,0.26844 -0.06562,0.52112 -0.12003,0.78117c-0.01091,0.07104 -0.03982,0.13366 -0.10473,0.17957c-0.20552,0.11361 -0.42906,0.21887 -0.66336,0.30012c-0.04659,-0.13581 -0.02127,-0.2382 -0.03189,-0.35727c-0.03188,-0.35724 0.07298,-0.63186 0.42266,-0.77356c0.16586,-0.07503 0.27415,-0.21488 0.36443,-0.36312z" fill="#cbe4e5"/><path d="M307.63883,161.12959c0.09002,0.04184 0.14403,0.06697 0.19803,0.0921c0.00352,0.03971 0.0323,0.07212 0.02509,0.08776c-0.04357,0.18899 -0.10502,0.36968 -0.14853,0.55868c-0.0254,0.10234 -0.07955,0.17227 -0.1697,0.22544c-0.27045,0.15952 -0.5517,0.29499 -0.88692,0.40539c-0.06098,-0.19958 -0.01389,-0.34886 0.03317,-0.49818c0.02893,-0.06261 0.05786,-0.12529 0.11548,-0.15551c0.3497,-0.14169 0.6023,-0.40464 0.83336,-0.71567z" fill="#c8e0e1"/><path d="M305.40548,165.68339c-0.07953,0.17225 -0.1843,0.35182 -0.17376,0.56598c0.00708,0.0794 -0.04708,0.14926 -0.0832,0.22758c-0.31325,-0.12672 -0.57962,-0.30769 -0.79904,-0.54297c0.13722,-0.2025 0.16641,-0.45522 0.21714,-0.65989c0.16215,-0.01969 0.26648,0.08594 0.38894,0.10485c0.16926,0.05973 0.34206,0.15914 0.44994,0.30442z" fill="#85d5d9"/><path d="M314.07509,160.072c-0.19846,0.19303 -0.39686,0.38607 -0.58458,0.60312c-0.15522,0.19412 -0.12685,0.51167 -0.50534,0.62093c0.24576,-0.53243 0.33661,-1.06091 0.42749,-1.58933c0.16955,-0.13036 0.36428,-0.26806 0.60938,-0.32522c0.02156,0.04808 0.03232,0.07211 0.04309,0.09611c0.01772,0.19844 0.01746,0.38861 0.00995,0.59432z" fill="#c6dede"/><path d="M309.36048,156.54693c-0.24893,0.20761 -0.46531,0.39223 -0.71425,0.59987c-0.10062,-0.16095 -0.09682,-0.31138 -0.14346,-0.4472c-0.03945,-0.15149 -0.12204,-0.30413 -0.11099,-0.47016c0.0506,-0.10961 0.16596,-0.17009 0.26333,-0.23892c0.09737,-0.06883 0.21277,-0.12926 0.34615,-0.18138c0.20865,0.21121 0.2659,0.46615 0.3592,0.73784z" fill="#cae3e3"/><path d="M306.10081,158.39753c0.09083,-0.52845 0.14554,-0.97858 0.08499,-1.46328c0.16602,-0.17009 0.31396,-0.34853 0.48719,-0.53427c0.17621,0.23417 0.17948,0.46396 0.22596,0.69481c0.00352,0.03971 -0.01816,0.08669 -0.03261,0.11798c-0.23471,0.36637 -0.46945,0.73279 -0.76552,1.18472z" fill="#cae3e4"/><path d="M309.20589,163.7039c-0.06435,-0.33431 -0.09995,-0.63623 0.20665,-0.87403c0.20925,-0.169 0.33568,-0.39554 0.4621,-0.62206c0.04339,-0.09398 0.1406,-0.06777 0.23418,0.01383c-0.15163,0.23382 -0.17009,0.51063 -0.18851,0.7874c-0.0075,0.20577 -0.10854,0.32995 -0.26364,0.42904c-0.12983,0.09178 -0.23093,0.21596 -0.4508,0.26588z" fill="#c8e0e1"/><path d="M305.45778,164.43318c0.16897,0.24981 0.02821,0.41259 -0.07656,0.59216c-0.11536,0.06044 -0.20891,-0.0211 -0.30614,-0.04731c-0.22679,-0.12452 -0.4139,-0.28769 -0.58659,-0.48217c0.0975,-0.16388 0.10504,-0.36964 0.26733,-0.48437c0.09724,0.02624 0.15127,0.05136 0.22325,0.08485c0.16557,0.11507 0.33116,0.23011 0.47871,0.33684z" fill="url(#color-15)"/><path d="M307.58277,162.53022c-0.00042,0.28516 -0.02238,0.52223 -0.02633,0.76771c-0.24156,0.09688 -0.49381,0.16976 -0.74972,0.20288c-0.1116,-0.08996 -0.10418,-0.20066 -0.12928,-0.28842c-0.02509,-0.08777 -0.05018,-0.17549 0.01844,-0.27675c0.23078,-0.12088 0.52998,-0.24802 0.8869,-0.4054z" fill="#c7dfe0"/><path d="M310.05481,164.61248c-0.19834,0.09798 -0.37861,0.20429 -0.62368,0.26153c-0.15099,-0.24145 -0.15423,-0.47123 -0.18627,-0.73344c0.21276,-0.12929 0.42551,-0.2586 0.64553,-0.40356c0.0788,0.30299 0.11085,0.56525 0.16443,0.8755z" fill="#c8e0e1"/><path d="M310.45596,156.44781c0.08617,0.19232 0.17233,0.38458 0.18284,0.59872c-0.20925,0.169 -0.43643,0.3296 -0.67086,0.50588c-0.03599,-0.01674 -0.07199,-0.03349 -0.06476,-0.04917c-0.04294,-0.1912 -0.07867,-0.39803 -0.10362,-0.58085c-0.00708,-0.0794 0.00381,-0.15044 0.06148,-0.18065c0.19475,-0.13766 0.33551,-0.30044 0.59494,-0.29395z" fill="#c4dcdd"/><path d="M312.98626,158.21475c-0.238,0.13658 -0.45799,0.28151 -0.696,0.41811c-0.12229,-0.11399 -0.06447,-0.23925 -0.07511,-0.35836c-0.01063,-0.11906 0.00397,-0.24548 0.00055,-0.38021c0.17676,-0.14604 0.41463,-0.1875 0.63093,-0.27716c0.14741,0.20171 0.14713,0.39185 0.13959,0.5976z" fill="#c8e0e1"/><path d="M310.59491,164.76864c0.22724,-0.16059 0.42925,-0.31396 0.66368,-0.49022c0.12221,0.20902 0.13266,0.42318 0.23688,0.62385c-0.17324,0.18573 -0.41833,0.24293 -0.64908,0.36383c-0.13665,-0.17771 -0.24451,-0.32301 -0.25144,-0.49745z" fill="#c6ddde"/><path d="M313.41843,163.15264c0.05714,0.34999 0.00982,0.68939 0.13539,1.03318c-0.14074,0.16282 -0.2563,0.31834 -0.46182,0.43196c-0.16541,-0.21013 -0.22641,-0.4097 -0.08195,-0.62783c0.18411,-0.25673 0.27823,-0.55539 0.40836,-0.8373z" fill="#b9cfd0"/><path d="M305.19393,157.70928c-0.08633,-0.09723 0.00379,-0.15044 0.01472,-0.2214c0.02906,-0.15769 0.07609,-0.30699 0.01145,-0.45125c-0.06449,-0.23927 0.03299,-0.40316 0.15577,-0.57433c0.05418,-0.06994 0.1263,-0.13149 0.2129,-0.22436c0.15455,0.28115 0.26224,0.52152 0.05292,0.78555c-0.14797,0.17846 -0.2312,0.40609 -0.34318,0.60128c-0.02171,0.04697 -0.04338,0.09396 -0.10461,0.0845z" fill="#c0d8d8"/><path d="M304.55136,161.04383c-0.02496,-0.18283 -0.00312,-0.32483 0.05469,-0.45013c0.02893,-0.06261 0.06504,-0.14097 0.12273,-0.17119c0.25601,-0.12819 0.46522,-0.29719 0.67444,-0.46618c0.126,0.05865 0.07909,0.11288 0.05742,0.1599c-0.0723,0.15661 -0.1518,0.32889 -0.18808,0.50223c-0.05797,0.22032 -0.17704,0.33615 -0.40767,0.36204c-0.1117,0.00511 -0.1874,0.02696 -0.31352,0.06336z" fill="#c1d9d9"/><path d="M308.78399,163.90712c-0.1875,0.12201 -0.38941,0.18027 -0.60568,0.26987c-0.15465,-0.18606 -0.12912,-0.38345 -0.1721,-0.57467c0.21998,-0.14496 0.48305,-0.19378 0.74262,-0.28228c0.05371,0.21524 0.03544,0.39699 0.03519,0.5871z" fill="#c3dbdc"/><path d="M311.13093,158.01741c-0.00682,-0.26952 -0.00283,-0.51499 -0.01687,-0.76881c0.13705,-0.10747 0.2669,-0.1992 0.4723,-0.21783c0.10419,0.20069 0.1219,0.39913 0.15767,0.60601c-0.16601,0.17008 -0.35347,0.29209 -0.61303,0.3806z" fill="#c3dadb"/><path d="M306.8493,163.88208c0.2451,-0.05719 0.46492,-0.10709 0.68476,-0.15699c0.12943,0.19337 0.14715,0.39187 0.16487,0.59031c-0.19107,0.08232 -0.38566,0.12496 -0.60904,0.13511c-0.03954,-0.05645 -0.08987,-0.13696 -0.11143,-0.18498c-0.04663,-0.13584 -0.0645,-0.23926 -0.12914,-0.38349z" fill="#c4dbdc"/><path d="M304.61496,159.4374c-0.13736,0.29757 -0.24582,0.53249 -0.3614,0.78305c-0.14061,0.06776 -0.2848,0.09579 -0.46847,0.06738c-0.07182,-0.12855 0.01473,-0.22142 0.02213,-0.33213c0.00737,-0.1107 0.03275,-0.21306 0.06886,-0.29138c0.25234,-0.07289 0.45419,-0.13115 0.73894,-0.22694z" fill="#c2d9da"/><path d="M309.37275,155.62048c0.12983,-0.09178 0.2632,-0.1439 0.40015,-0.15627c0.15123,0.05136 0.17988,0.17886 0.24821,0.26767c0.06834,0.08882 0.16909,0.15475 0.17248,0.28949c-0.10829,0.13986 -0.29936,0.22216 -0.5049,0.33585c-0.0539,-0.12019 -0.10777,-0.24039 -0.16883,-0.34489c-0.04659,-0.13581 -0.09329,-0.27167 -0.14716,-0.39187z" fill="#c5ddde"/><path d="M309.0202,165.00623c-0.16232,0.11475 -0.32803,0.09471 -0.4794,0.13843c-0.16185,-0.17043 -0.22284,-0.37002 -0.29459,-0.59361c0.18383,-0.06667 0.36772,-0.13331 0.53358,-0.20834c0.16539,0.21012 0.1687,0.43996 0.24043,0.66352z" fill="#c3dbdc"/><path d="M307.24182,156.68366c-0.05036,-0.0805 -0.07189,-0.12853 -0.09346,-0.17659c-0.03587,-0.1118 -0.06451,-0.23927 -0.11113,-0.37511c0.22724,-0.16059 0.40043,-0.34638 0.67799,-0.42652c0.1116,0.08996 0.12945,0.19338 0.15084,0.33651c-0.18044,0.20139 -0.39336,0.42573 -0.62423,0.64174z" fill="#c7dfe0"/><path d="M306.19173,162.7011c-0.23784,0.04151 -0.41813,0.14786 -0.65231,0.13404c-0.11862,-0.16936 -0.05715,-0.34997 -0.13977,-0.50256c0.25601,-0.12819 0.49383,-0.16975 0.74617,-0.24259c0.11498,0.22472 0.03545,0.39694 0.04598,0.6111z" fill="#c7dee0"/><path d="M304.96287,165.36333c-0.12245,-0.01892 -0.22677,-0.12454 -0.38896,-0.10485c-0.05797,0.22032 -0.10519,0.46467 -0.21714,0.65989c-0.0648,-0.04917 -0.14757,-0.10671 -0.20513,-0.17148c-0.08633,-0.09723 -0.12218,-0.20902 -0.07159,-0.31868c0.06872,-0.19627 0.13023,-0.37692 0.19901,-0.57324c0.23404,0.10887 0.33483,0.1748 0.68382,0.50839z" fill="#61acb1"/><path d="M314.07682,158.93137c-0.19834,0.09798 -0.36411,0.17296 -0.58047,0.26258c-0.01405,-0.25383 -0.03531,-0.49197 -0.03135,-0.73745c0.14781,-0.08343 0.28846,-0.15114 0.45784,-0.18649c0.11497,0.2247 0.13268,0.42316 0.15396,0.66134z" fill="#c2dada"/><path d="M304.48231,161.43021c0.19834,-0.09798 0.3857,-0.12493 0.60559,-0.17481c-0.02916,0.25276 -0.04392,0.47418 -0.05868,0.69563c-0.13705,0.10747 -0.28478,0.0958 -0.46493,0.10707c-0.11141,-0.18499 -0.08591,-0.38242 -0.08195,-0.62784z" fill="#c1d9d9"/><path d="M312.16939,157.47326c-0.08973,-0.232 -0.1399,-0.40751 -0.20808,-0.59143c0.1263,-0.13149 0.32092,-0.17409 0.51556,-0.21671c0.12585,0.15368 0.22651,0.31464 0.26224,0.52151c-0.14075,0.1628 -0.35697,0.15734 -0.56969,0.28666z" fill="#c6dedf"/><path d="M310.44631,165.4224c-0.19106,0.08232 -0.39294,0.14058 -0.57678,0.20726c-0.15478,-0.09102 -0.23388,-0.20391 -0.29131,-0.36382c0.16601,-0.17008 0.41462,-0.18752 0.62017,-0.30121c0.13313,0.13801 0.17249,0.28949 0.24794,0.45775z" fill="#c0d7d7"/><path d="M306.54396,156.01651c-0.1515,0.13876 -0.2563,0.3183 -0.49056,0.39957c-0.05743,-0.15991 -0.12204,-0.30414 -0.18669,-0.44832c0.08676,-0.18789 0.24905,-0.30263 0.45089,-0.3609c0.12231,0.11399 0.17618,0.23414 0.22639,0.40966z" fill="#c3dadb"/><path d="M304.99705,164.1047c-0.07201,-0.03351 -0.15127,-0.05135 -0.2233,-0.08483c-0.16232,0.11475 -0.16983,0.32046 -0.26733,0.48437c-0.13325,-0.04296 -0.16187,-0.17044 -0.28064,-0.24472c0.02197,-0.23708 0.1627,-0.39989 0.13065,-0.6621c0.18724,0.06811 0.27356,0.16528 0.37794,0.27094c0.07557,0.07318 0.21603,0.10053 0.26263,0.23635z" fill="url(#color-16)"/><path d="M313.96364,164.9091c-0.1515,0.13876 -0.2563,0.31834 -0.46536,0.39227c-0.1116,-0.08996 -0.15466,-0.18613 -0.21931,-0.3303c0.11552,-0.15552 0.26706,-0.29428 0.44011,-0.38499c0.11158,0.08996 0.16189,0.17044 0.24451,0.32302z" fill="#bdd3d4"/><path d="M307.34521,164.79762c0.16942,-0.03533 0.32079,-0.07903 0.47214,-0.12274c0.12586,0.15369 0.1833,0.31358 0.23349,0.48907c-0.11183,0.10014 -0.25236,0.07288 -0.37834,0.01424c-0.16204,-0.07535 -0.32402,-0.15071 -0.3273,-0.38056z" fill="#bdd4d5"/><path d="M314.91403,160.4813c-0.17675,0.14602 -0.34629,0.27643 -0.52303,0.42246c-0.02825,-0.4126 0.01913,-0.75202 0.50206,-0.85075c0.07182,0.12855 0.03203,0.2622 0.02098,0.42825z" fill="#bbd2d3"/><path d="M305.83724,163.65856c-0.11508,-0.12965 -0.14374,-0.25712 -0.17234,-0.3846c0.0506,-0.10961 0.1551,-0.09905 0.25602,-0.12818c0.07569,-0.02186 0.15858,-0.05936 0.27386,-0.02476c0.11508,0.12965 0.04283,0.28623 0.1507,0.43152c-0.17308,0.09072 -0.3352,0.11039 -0.50812,0.10605z" fill="#c3dadb"/><path d="M309.82734,160.03615c0.16615,-0.26513 0.33224,-0.53025 0.57039,-0.76188c0.10075,0.06591 0.08267,0.15261 0.04648,0.23087c-0.07598,0.21195 -0.16991,0.41551 -0.25668,0.60345c-0.06505,0.14094 -0.18755,0.12202 -0.36018,-0.07245z" fill="#b1c6c7"/><path d="M311.45797,165.9311c0.09378,-0.10854 0.22354,-0.10528 0.33167,-0.15006c0.19834,-0.09798 0.36755,-0.03825 0.54747,0.14058c-0.20922,0.16899 -0.49034,0.20942 -0.72815,0.25096c-0.1188,-0.07428 -0.15836,-0.13076 -0.15099,-0.24146z" fill="#bbd2d3"/><path d="M312.31193,161.00181c0.06534,-0.33105 0.31424,-0.53864 0.55237,-0.77029c0.00682,0.26952 -0.10164,0.5044 -0.18483,0.73203c-0.04706,0.14932 -0.11553,0.15556 -0.36755,0.03825z" fill="#bad1d2"/><path d="M314.26422,163.83148c0.06816,0.18392 0.1508,0.33651 0.219,0.52039c-0.05417,0.06993 -0.15876,0.15443 -0.24537,0.2473c-0.2879,-0.22906 -0.28066,-0.24471 -0.1687,-0.43996c0.05063,-0.10961 0.11924,-0.21087 0.19505,-0.32777z" fill="#b5cbcc"/><path d="M311.916,155.89058c0.15833,0.13074 0.23024,0.25928 0.30208,0.38782c-0.11907,0.11583 -0.29201,0.11144 -0.46139,0.14679c-0.08989,-0.13691 -0.1617,-0.26546 -0.25158,-0.40239c0.08306,-0.13257 0.25951,-0.08853 0.41094,-0.13223z" fill="#c0d7d8"/><path d="M312.59487,164.55771c0.09353,0.08157 0.12945,0.19337 0.15811,0.32084c-0.14799,0.17845 -0.35351,0.29212 -0.58061,0.35766c-0.13325,-0.04296 -0.14755,-0.1067 -0.1474,-0.20172c0.18393,-0.16172 0.36795,-0.32342 0.56996,-0.47674z" fill="#bdd4d4"/><path d="M314.41574,158.76567c-0.04294,-0.1912 -0.06069,-0.38964 -0.10362,-0.58086c0.10816,-0.04479 0.21263,-0.03425 0.32065,0.01597c0.09352,0.08157 0.09343,0.17661 0.11128,0.28002c0.00708,0.0794 0.01418,0.15877 0.02127,0.23819c-0.09739,0.06885 -0.19833,0.09799 -0.34958,0.04663z" fill="#b6cccc"/><path d="M311.01389,156.80253c-0.06816,-0.18392 -0.12558,-0.34378 -0.21179,-0.53608c0.06138,-0.08559 0.15875,-0.15445 0.34248,-0.12605c0.08992,0.1369 0.17251,0.28951 0.27315,0.45045c-0.12983,0.09178 -0.23445,0.17629 -0.40384,0.21161z" fill="#c1d9d9"/><path d="M314.91163,159.58608c-0.12983,0.09178 -0.24524,0.15227 -0.40738,0.1719c-0.06816,-0.18392 -0.03187,-0.35728 -0.02805,-0.50768c0.09378,-0.10854 0.21628,-0.08959 0.32799,-0.09471c0.04676,0.0408 0.08279,0.05754 0.07559,0.07319c0.0106,0.11905 0.02125,0.23815 0.03187,0.35728z" fill="#b7cdce"/><path d="M315.24422,161.37683c-0.06449,-0.23929 0.00055,-0.38021 0.02959,-0.53791c0.01827,-0.18174 0.15521,-0.19413 0.31736,-0.21381c0.06816,0.18392 0.03911,0.34159 0.05329,0.5004c-0.1083,0.13984 -0.31001,0.10309 -0.4003,0.25131z" fill="#b6cccc"/><path d="M313.19152,165.53915c-0.14783,0.08342 -0.2632,0.14387 -0.38582,0.22c-0.16926,-0.05973 -0.27726,-0.10999 -0.36713,-0.24691c0.17308,-0.0907 0.32814,-0.18976 0.47596,-0.27317c0.18369,0.02836 0.21231,0.15586 0.31312,0.22173c-0.01446,0.03132 -0.01092,0.07103 -0.03614,0.07833z" fill="#c2dada"/><path d="M310.84977,155.73693c-0.10461,0.08445 -0.18029,0.10636 -0.28477,0.09582c-0.11527,-0.03462 -0.15832,-0.13074 -0.22667,-0.21959c-0.05034,-0.08049 -0.16911,-0.15476 -0.13651,-0.27277c0.13338,-0.05207 0.27753,-0.08013 0.45404,-0.03607c0.08265,0.15258 0.12928,0.28843 0.19392,0.43265z" fill="#bbd2d3"/><path d="M304.58168,162.44663c0.16215,-0.01968 0.28109,-0.04044 0.41801,-0.05284c0.07543,0.16826 0.08957,0.32704 0.12179,0.49422c-0.11537,0.06045 -0.23432,0.08125 -0.36031,0.02257c-0.0288,-0.03241 -0.05753,-0.06482 -0.06111,-0.10453c-0.04309,-0.09611 -0.07895,-0.20797 -0.11836,-0.35946z" fill="#bbd2d3"/><path d="M314.7574,164.04189c-0.13652,-0.27277 -0.13653,-0.27279 -0.10361,-0.58084c0.14785,-0.08342 0.29909,-0.03205 0.48277,-0.00364c-0.0472,0.24439 -0.23118,0.40608 -0.37917,0.58454z" fill="#adc2c3"/><path d="M306.04209,164.0202c0.11537,-0.06045 0.25235,-0.07283 0.38555,-0.02987c0.07543,0.16826 0.14009,0.31241 0.19744,0.47229c-0.37833,0.01423 -0.39633,0.00589 -0.58304,-0.44242z" fill="#b5cbcc"/><path d="M313.82617,157.86361c-0.14061,0.06778 -0.24879,0.11252 -0.41095,0.13221c-0.10785,-0.14525 -0.0968,-0.31138 -0.14699,-0.48691c0.05771,-0.03023 0.10814,-0.04477 0.15859,-0.05938c0.05047,-0.01457 0.11169,-0.00513 0.18017,-0.01132c0.14033,0.12235 0.18696,0.25818 0.21916,0.42537z" fill="#bbd1d2"/><path d="M303.8413,161.2081c-0.12942,-0.19338 -0.06069,-0.38967 -0.09287,-0.55682c0.12261,-0.07611 0.25587,-0.03317 0.39283,-0.04554c0.04653,0.23088 0.01021,0.40425 -0.12332,0.55137c-0.02171,0.04698 -0.10815,0.04481 -0.1766,0.051z" fill="#b6cccd"/><path d="M307.53562,155.33648c-0.21998,0.14496 -0.45077,0.26587 -0.66351,0.39516c-0.1188,-0.07431 -0.16911,-0.15474 -0.19052,-0.29786c0.25951,-0.08853 0.51906,-0.17703 0.81093,-0.19345c0.02156,0.0481 0.03231,0.07212 0.0431,0.09613z" fill="#acc1c2"/><path d="M311.5749,159.89803c-0.03997,0.22871 -0.09795,0.44905 -0.22792,0.63586c-0.05418,0.06994 -0.13706,0.10744 -0.22705,0.06559c-0.03597,-0.01674 -0.09353,-0.08157 -0.08632,-0.09725c0.09043,-0.24327 0.32485,-0.41955 0.5413,-0.60421z" fill="#a7bbbb"/><path d="M313.4851,157.03908c-0.07939,0.07722 -0.19107,0.08232 -0.32077,0.07905c-0.08265,-0.15258 -0.16528,-0.30519 -0.24792,-0.45778c0.12983,-0.09178 0.24508,-0.05718 0.37109,0.00143c0.08633,0.09723 0.15098,0.24143 0.19759,0.37731z" fill="#b7cdcd"/><path d="M308.66279,165.54378c0.16232,-0.11475 0.32447,-0.13438 0.50463,-0.14571c0.12231,0.11399 0.20143,0.22688 0.20836,0.40132c-0.2594,-0.00655 -0.4682,-0.12272 -0.71299,-0.2556z" fill="#b7cece"/><path d="M303.4838,159.32966c-0.03927,-0.24655 0.12671,-0.41662 0.10897,-0.6151c0.11536,-0.06044 0.18016,-0.0113 0.19449,0.05245c0.03221,0.16716 0.03914,0.34163 -0.03318,0.4982c-0.03969,0.03862 -0.04693,0.05427 -0.27032,0.06449z" fill="#b4cacb"/><path d="M308.20507,155.78113c-0.08631,-0.09722 -0.11863,-0.16934 -0.11854,-0.26438c0.19834,-0.09798 0.40385,-0.21159 0.71371,-0.21964c-0.10489,0.27458 -0.3392,0.35579 -0.59519,0.48404z" fill="#b2c8c9"/><path d="M305.20729,163.27035c0.08989,0.13691 0.15098,0.24146 0.14359,0.35216c-0.04692,0.05427 -0.10818,0.04483 -0.16943,0.03535c-0.24492,-0.03785 -0.28435,-0.18938 -0.30207,-0.38783c0.10445,0.01053 0.21619,0.00545 0.32786,0.00035z" fill="#b5cbcb"/><path d="M313.59038,161.4064c0.07596,-0.21195 0.15545,-0.38421 0.29622,-0.54698c0.09723,0.02624 0.11155,0.08994 0.08988,0.13693c-0.03261,0.11803 -0.04721,0.24441 -0.07981,0.36238c-0.05784,0.12527 -0.14429,0.12307 -0.30629,0.04767z" fill="#91a3a3"/><path d="M306.89411,157.9106c0.03927,0.24655 -0.0727,0.44177 -0.15948,0.62967c-0.01446,0.03132 -0.06492,0.04589 -0.10816,0.04479c-0.03599,-0.01674 -0.07558,-0.07319 -0.06835,-0.08887c0.0472,-0.24439 0.17719,-0.4312 0.33592,-0.58562z" fill="#99abac"/><path d="M305.78431,158.04105c-0.15493,0.00404 -0.24493,-0.03788 -0.24479,-0.13294c0.01461,-0.12639 0.12291,-0.26621 0.28887,-0.4363c0.05377,0.21526 -0.02578,0.38748 -0.04407,0.56921z" fill="#93a5a6"/><path d="M310.49568,166.16823c0.22356,-0.10525 0.43629,-0.23457 0.70252,0.04147c-0.2308,0.12086 -0.46478,0.01204 -0.70252,-0.04147z" fill="#9aadad"/><path d="M311.55924,163.20078c0.00382,-0.15042 0.01487,-0.31646 0.01148,-0.45124c0.09016,-0.05317 0.15138,-0.04371 0.25218,0.02223c0.02497,0.18285 -0.11933,0.30595 -0.16638,0.45526c-0.03599,-0.01674 -0.054,-0.02515 -0.09727,-0.02623z" fill="#c5dddd"/><path d="M309.15149,159.03686c0.06804,0.27895 -0.02596,0.48255 -0.19192,0.65262c-0.00722,0.01566 -0.05049,0.0146 -0.08648,-0.00217c-0.06124,-0.00949 -0.07558,-0.07319 -0.0611,-0.10451c0.06148,-0.18065 0.20228,-0.34345 0.33948,-0.54594z" fill="#aec2c3"/><path d="M304.06059,161.53838c0.06816,0.18392 0.04991,0.36563 0.03883,0.53173c-0.09015,0.05318 -0.15495,0.00399 -0.16205,-0.07538c-0.0214,-0.14314 -0.05002,-0.2706 -0.04618,-0.421c-0.02156,-0.0481 0.05413,-0.06992 0.16939,-0.03533z" fill="#9caeaf"/><path d="M312.68283,156.26635c-0.14034,-0.12238 -0.21942,-0.23524 -0.30206,-0.38784c0.26293,0.04623 0.43928,0.18534 0.65529,0.28585c-0.03971,0.03861 -0.05418,0.06994 -0.07938,0.0772c-0.0937,0.01347 -0.18015,0.01129 -0.27384,0.0248z" fill="#a9bebf"/><path d="M306.99071,160.82803c0.1405,0.02733 0.20523,0.07644 0.25559,0.15699c-0.05431,0.16497 -0.17337,0.28078 -0.42569,0.35366c0.05074,-0.2047 0.11582,-0.34561 0.17008,-0.51061z" fill="#b9cfd0"/><path d="M312.82404,163.06631c0.09014,-0.05317 0.1694,-0.03529 0.24864,-0.01749c0.07557,0.0732 0.03944,0.15148 -0.18809,0.50223c-0.17266,-0.19445 -0.03913,-0.34162 -0.06053,-0.48474z" fill="#869797"/><path d="M308.05688,158.56568c-0.16966,0.22545 -0.10886,0.52008 -0.44763,0.59074c0.0364,-0.26843 0.14114,-0.44794 0.44763,-0.59074z" fill="#93a4a5"/><path d="M314.8807,161.07451c-0.10844,0.23488 -0.18073,0.3915 -0.25301,0.5481c-0.01446,0.03132 -0.06492,0.0459 -0.11891,0.02075c-0.01802,-0.00838 -0.04677,-0.0408 -0.05757,-0.06484c0.05071,-0.20468 0.13026,-0.37698 0.42945,-0.50406z" fill="#94a5a6"/><path d="M313.79668,163.23351c0.13693,-0.01236 0.19815,-0.00295 0.25926,0.10157c-0.03981,0.13364 -0.08688,0.28298 -0.21319,0.41446c-0.12939,-0.1934 -0.05712,-0.34995 -0.0461,-0.51601z" fill="#abbfc0"/><path d="M315.54481,160.29914c-0.10447,-0.01054 -0.1477,-0.01165 -0.18373,-0.02841c-0.09682,-0.31138 -0.0968,-0.31135 0.05841,-0.50545c0.13665,0.17771 0.06439,0.3343 0.12531,0.53385z" fill="#acc0c1"/><path d="M311.07675,165.52541c0.16586,-0.07503 0.32091,-0.1741 0.50476,-0.24076c0.07569,-0.02186 0.14769,0.01167 0.15831,0.13073c-0.19834,0.09798 -0.38938,0.18028 -0.66308,0.11001z" fill="#9fb2b2"/><path d="M314.19022,157.78563c-0.06111,-0.10456 -0.09339,-0.17665 -0.09328,-0.27168c0.06492,-0.04591 0.13339,-0.0521 0.23063,-0.02588c0.10076,0.06592 0.13663,0.17772 0.1725,0.28951c-0.07939,0.07722 -0.19462,0.04261 -0.30982,0.00802z" fill="#aec2c3"/><path d="M309.32324,162.3127c-0.10786,-0.14525 -0.05726,-0.25495 -0.02467,-0.37293c0.02171,-0.04697 0.09012,-0.05314 0.14416,-0.02802c0.03599,0.01674 0.07558,0.07319 0.06111,0.10451c0.01063,0.11906 -0.06875,0.19632 -0.1806,0.29644z" fill="#91a2a3"/><path d="M311.54546,155.50891c-0.32093,0.1741 -0.34613,0.18144 -0.47899,-0.14671c0.15848,0.0357 0.32064,0.01599 0.47899,0.14671z" fill="#869696"/><path d="M304.78346,157.55635c-0.10418,-0.20068 -0.00684,-0.26948 0.0618,-0.37076c0.12584,0.15369 0.12585,0.15368 -0.0618,0.37076z" fill="#555f5f"/><path d="M310.61648,162.40074c-0.03614,0.07832 -0.08674,0.1879 -0.19136,0.27242c-0.09697,-0.21632 -0.06803,-0.27894 0.05454,-0.35508c0.03247,-0.02293 0.08648,0.00218 0.13678,0.08266z" fill="#93a5a6"/><path d="M315.57895,161.55157c0.09328,0.27169 0.06084,0.29464 -0.2489,0.20757c0.01461,-0.1264 0.12271,-0.17118 0.2489,-0.20757z" fill="#8b9b9c"/><path d="M304.6584,156.8324c-0.01829,0.18173 -0.09411,0.29859 -0.16997,0.41554c-0.12969,-0.00325 -0.16925,-0.05974 -0.14032,-0.12238c0.05782,-0.12529 0.13367,-0.24219 0.31025,-0.29316z" fill="#9aacad"/><path d="M315.2943,159.1363c0.07182,0.12855 0.15818,0.22581 0.08237,0.34271c-0.00726,0.01567 -0.03246,0.02296 -0.05047,0.01458c-0.14758,-0.10672 -0.14021,-0.21744 -0.03189,-0.35727z" fill="#5f6a6b"/><path d="M308.17487,161.6263c-0.02509,-0.08777 0.00382,-0.15044 0.05076,-0.20469c0.03247,-0.02293 0.08293,-0.0375 0.11169,-0.00509c0.0288,0.03241 0.05035,0.0805 0.03584,0.11181c-0.02893,0.06261 -0.07583,0.1169 -0.19832,0.09796z" fill="#636e6f"/><path d="M313.80243,156.92041c0.1477,0.01168 0.23049,0.06917 0.24467,0.22795c-0.17292,-0.00437 -0.22327,-0.08482 -0.24467,-0.22795z" fill="#4a5354"/></g><g data-paper-data="{&quot;index&quot;:null}" fill="#000000" fill-rule="nonzero" stroke="#000000" stroke-width="1.2" stroke-linecap="butt" stroke-linejoin="miter"><path d="M249.91648,200.34874c-1.27016,-1.37946 -0.9894,-4.67789 -1.7504,-6.81017c-0.8193,-2.2957 -2.56576,-3.2954 -2.14497,-4.87676c0.29394,-1.10455 1.80684,-1.8209 2.63932,-2.09671c2.02429,-0.67073 4.79344,1.94649 6.18504,5.84571c1.3916,3.89922 0.87872,7.6039 -1.14556,8.27461c-0.9173,0.30394 -2.73088,0.80642 -3.78342,-0.33666z"/><path d="M254.06285,200.94554c-1.75186,-1.93886 -2.72291,-7.76745 -2.72291,-7.76745c0,0 -2.36783,-3.1292 -2.39501,-3.21015c-1.73301,-5.15756 1.75225,-6.37579 5.73828,-7.6965c1.89708,-0.62858 5.06822,-0.88355 6.67776,0.37753c1.82542,1.43021 2.15583,4.165 3.17753,7.02782c1.9226,5.38708 1.15569,10.76156 -2.8929,12.10302c-1.78218,0.59049 -5.24295,1.75528 -7.58276,-0.83429z"/></g><g stroke-linejoin="miter"><g data-paper-data="{&quot;index&quot;:null}" stroke-linecap="butt"><path d="M262.49138,191.31851c-6.31492,11.74139 -22.23279,16.0097 -35.55359,9.53356c-13.32079,-6.47615 -19.00017,-21.24438 -12.68523,-32.98578c6.31492,-11.74139 22.23279,-16.0097 35.55359,-9.53356c13.32079,6.47615 19.00017,21.24438 12.68523,32.98578z" fill="none" fill-rule="nonzero" stroke="#000000" stroke-width="4.5"/><g><g fill-rule="nonzero"><path d="M231.46317,158.90634l0.00704,0.01234" data-paper-data="{&quot;index&quot;:null}" fill="#ffab19" stroke="#000000" stroke-width="5"/><g data-paper-data="{&quot;index&quot;:null}" fill="none" stroke="none" stroke-width="1" font-family="sans-serif" font-weight="normal" font-size="12" text-anchor="start"/></g><path d="M231.46317,158.90634l0.00704,0.01234" data-paper-data="{&quot;index&quot;:null}" fill="#ffab19" fill-rule="nonzero" stroke="#000000" stroke-width="5"/><path d="M237.52195,180.52581" fill="#001026" fill-rule="evenodd" stroke="#000000" stroke-width="5"/><g data-paper-data="{&quot;index&quot;:null}" fill="none" fill-rule="nonzero" stroke="none" stroke-width="1" font-family="sans-serif" font-weight="normal" font-size="12" text-anchor="start"/><g data-paper-data="{&quot;index&quot;:null}" fill="none" fill-rule="nonzero" stroke="none" stroke-width="1" font-family="sans-serif" font-weight="normal" font-size="12" text-anchor="start"/></g></g><path d="M257.27687,167.3951l-40.36953,1.46388l-6.86627,12.11652l-9.87074,-35.70054l46.3028,1.71988l17.56241,24.11218z" fill="#000000" fill-rule="nonzero" stroke="#191919" stroke-width="3" stroke-linecap="round"/></g><path d="M240.41046,191.84879c0,3.97323 -4.55133,7.19417 -10.16568,7.19417c-5.61435,0 -10.16568,-3.22094 -10.16568,-7.19417c0,-3.97323 4.55133,-7.19417 10.16568,-7.19417c5.61435,0 10.16568,3.22094 10.16568,7.19417z" fill="#ff0000" fill-rule="nonzero" stroke="#000000" stroke-width="3" stroke-linecap="butt" stroke-linejoin="miter"/><path d="M239.47209,174.25435c0,3.67092 -3.85113,6.64679 -8.60173,6.64679c-4.7506,0 -8.60173,-2.97587 -8.60173,-6.64679c0,-3.67092 3.85113,-6.64679 8.60173,-6.64679c4.7506,0 8.60173,2.97587 8.60173,6.64679z" fill="#ffffff" fill-rule="nonzero" stroke="#000000" stroke-width="3" stroke-linecap="butt" stroke-linejoin="miter"/><path d="M257.77031,176.99126c0,5.0961 -3.01088,9.22731 -6.72499,9.22731c-3.71411,0 -6.72499,-4.13121 -6.72499,-9.22731c0,-5.0961 3.01088,-9.22731 6.72499,-9.22731c3.71411,0 6.72499,4.13121 6.72499,9.22731z" fill="#ffffff" fill-rule="nonzero" stroke="#000000" stroke-width="3" stroke-linecap="butt" stroke-linejoin="miter"/></g></g></svg>