<svg version="1.1" xmlns="http://www.w3.org/2000/svg" xmlns:xlink="http://www.w3.org/1999/xlink" width="61.29201" height="43.13623" viewBox="0,0,61.29201,43.13623"><g transform="translate(-209.354,-158.432)"><g data-paper-data="{&quot;isPaintingLayer&quot;:true}" fill="#bcbcbc" fill-rule="nonzero" stroke="#525252" stroke-width="4" stroke-linecap="butt" stroke-linejoin="miter" stroke-miterlimit="10" stroke-dasharray="" stroke-dashoffset="0" style="mix-blend-mode: normal"><path d="M240.89119,199.56822c-0.08726,0 -1.65883,-2.32378 -1.75369,-4.74778c-0.10303,-2.6326 1.27157,-5.3834 1.2034,-5.40402c-0.00081,-0.00025 -18.09003,2.06136 -18.09011,2.0613c-0.09171,-0.05166 -11.08377,-6.29343 -10.89437,-11.00841c0.17091,-4.25431 10.46258,-12.43655 10.46258,-12.51041c0,-0.02474 16.9546,3.5685 16.95588,3.5683c0.11883,-0.01858 -2.28727,-2.7612 -2.46829,-5.43424c-0.1833,-2.70663 1.85683,-5.3459 1.72029,-5.66096c-0.01293,-0.02983 9.73319,2.83307 17.53341,7.2085c7.51021,4.21276 13.08525,9.94286 13.08572,9.98403c0.00047,0.04111 -4.54431,7.75953 -11.5916,13.32325c-6.82005,5.38431 -16.14983,8.62045 -16.16322,8.62045z"/></g></g></svg>