<svg version="1.1" xmlns="http://www.w3.org/2000/svg" xmlns:xlink="http://www.w3.org/1999/xlink" width="89.11389" height="101.6864" viewBox="0,0,89.11389,101.6864"><defs><linearGradient x1="159.15524" y1="291.04587" x2="186.38833" y2="291.04587" gradientUnits="userSpaceOnUse" id="color-1"><stop offset="0" stop-color="#bebebe"/><stop offset="1" stop-color="#737373"/></linearGradient><linearGradient x1="159.15524" y1="291.04587" x2="186.38833" y2="291.04587" gradientUnits="userSpaceOnUse" id="color-2"><stop offset="0" stop-color="#bebebe"/><stop offset="1" stop-color="#737373"/></linearGradient><linearGradient x1="159.5295" y1="290.62461" x2="183.63236" y2="290.62461" gradientUnits="userSpaceOnUse" id="color-3"><stop offset="0" stop-color="#ffd166"/><stop offset="1" stop-color="#ac880b"/></linearGradient><linearGradient x1="148.34895" y1="278.23758" x2="172.41848" y2="278.23758" gradientUnits="userSpaceOnUse" id="color-4"><stop offset="0" stop-color="#ffd166"/><stop offset="1" stop-color="#ac880b"/></linearGradient><linearGradient x1="136.66699" y1="292.69189" x2="160.13588" y2="292.69189" gradientUnits="userSpaceOnUse" id="color-5"><stop offset="0" stop-color="#ffd166"/><stop offset="1" stop-color="#ac880b"/></linearGradient><linearGradient x1="137.70763" y1="303.73731" x2="156.10837" y2="303.73731" gradientUnits="userSpaceOnUse" id="color-6"><stop offset="0" stop-color="#bebebe"/><stop offset="1" stop-color="#737373"/></linearGradient><linearGradient x1="137.70763" y1="303.73731" x2="156.10837" y2="303.73731" gradientUnits="userSpaceOnUse" id="color-7"><stop offset="0" stop-color="#bebebe"/><stop offset="1" stop-color="#737373"/></linearGradient><linearGradient x1="151.88043" y1="265.86389" x2="160.5394" y2="265.86389" gradientUnits="userSpaceOnUse" id="color-8"><stop offset="0" stop-color="#bebebe"/><stop offset="1" stop-color="#737373"/></linearGradient><linearGradient x1="141.53964" y1="268.31443" x2="173.11343" y2="268.31443" gradientUnits="userSpaceOnUse" id="color-9"><stop offset="0" stop-color="#bebebe"/><stop offset="1" stop-color="#737373"/></linearGradient><linearGradient x1="192.36919" y1="283.55843" x2="206.1084" y2="283.87015" gradientUnits="userSpaceOnUse" id="color-10"><stop offset="0" stop-color="#bb951b"/><stop offset="1" stop-color="#d6ad39"/></linearGradient><linearGradient x1="192.35647" y1="273.24698" x2="205.25294" y2="273.53958" gradientUnits="userSpaceOnUse" id="color-11"><stop offset="0" stop-color="#bebebe"/><stop offset="1" stop-color="#737373"/></linearGradient><linearGradient x1="195.52062" y1="279.1112" x2="201.67618" y2="279.25086" gradientUnits="userSpaceOnUse" id="color-12"><stop offset="0" stop-color="#bb951b"/><stop offset="1" stop-color="#d6ad39"/></linearGradient><linearGradient x1="195.9675" y1="280.30319" x2="201.23226" y2="280.42263" gradientUnits="userSpaceOnUse" id="color-13"><stop offset="0" stop-color="#bb951b"/><stop offset="1" stop-color="#d6ad39"/></linearGradient><linearGradient x1="194.83765" y1="278.58336" x2="195.90548" y2="278.60758" gradientUnits="userSpaceOnUse" id="color-14"><stop offset="0" stop-color="#bb951b"/><stop offset="1" stop-color="#d6ad39"/></linearGradient><linearGradient x1="194.34637" y1="278.27415" x2="195.39007" y2="278.29783" gradientUnits="userSpaceOnUse" id="color-15"><stop offset="0" stop-color="#bb951b"/><stop offset="1" stop-color="#d6ad39"/></linearGradient></defs><g transform="translate(-116.60937,-207.25868)"><g data-paper-data="{&quot;isPaintingLayer&quot;:true}" stroke-miterlimit="10" stroke-dasharray="" stroke-dashoffset="0" style="mix-blend-mode: normal"><path d="M191.43927,286.00749c0,0 -15.63488,-17.05358 -29.92517,-19.12288c-14.98851,-2.1704 -31.03185,22.12992 -31.43913,22.15804" fill="none" fill-rule="nonzero" stroke="#000000" stroke-width="6" stroke-linecap="round" stroke-linejoin="miter"/><g><g><g stroke-width="1.2"><path d="M170.94139,275.56157c0,0 7.82676,10.61312 8.98737,14.65302c0.79194,2.75656 -2.54513,7.23483 -2.54513,7.23483c0,0 8.44944,-0.16443 8.99712,5.89039c0.03122,0.34518 0.12011,2.04392 -3.3535,2.75568c-3.32699,0.68172 -10.16467,0.3874 -12.66436,0.26954c-1.16098,-0.05474 -2.97362,-0.49293 -4.20478,-1.35803c-1.23957,-0.87102 -1.28823,-2.24533 -1.38306,-3.01431c-0.01259,-0.10203 3.54246,-8.96307 3.28155,-10.11383c-0.13124,-0.57882 -8.90137,-14.6702 -8.90137,-14.6702" fill="url(#color-1)" fill-rule="evenodd" stroke="url(#color-2)" stroke-linecap="round" stroke-linejoin="round"/><path d="M159.5638,282.2086c-0.56129,-6.20521 5.90306,-6.7096 9.285,-6.86049c1.4706,-0.06561 9.70792,7.08115 12.95346,13.06873c0.85043,1.56892 0.59676,5.56826 0.52374,7.47315c-0.02566,0.66932 -0.88766,-0.19114 -0.88766,-0.19114c0,0 0.9463,0.69678 1.35888,1.33264c0.42584,0.65634 0.83518,1.6955 0.83518,1.6955l-2.52947,-0.77161c0,0 -8.6793,0.13782 -11.80066,2.27539c-3.12136,2.13757 -1.00373,5.67079 -1.00373,5.67079c0,0 -6.48023,-0.29796 -7.30067,-2.74412c-0.20227,-0.60304 0.56354,-2.48146 0.56354,-2.48146c0,0 -0.71837,0.14766 -0.79463,-0.27382c-0.02474,-0.13669 3.09245,-4.71958 4.80825,-7.14382c0.98096,-1.38601 0.99009,-1.24131 0.99009,-1.24131c0,0 -6.92048,-8.91436 -7.00135,-9.80843z" fill="url(#color-3)" fill-rule="nonzero" stroke="#caa551" stroke-linecap="butt" stroke-linejoin="miter"/></g><path d="M148.41372,276.76031c-0.01198,-0.18247 1.4579,0.3555 4.78859,0.41767c4.39404,0.08203 11.12335,-0.28494 13.01559,-0.47271c4.9069,-0.48689 5.73727,-1.78287 5.76905,-1.29918c0.11756,1.78991 -2.65795,5.10544 -8.27141,5.2873c-2.46685,0.07991 -7.51245,0.6793 -10.36968,0.04913c-3.64454,-0.80382 -4.86623,-2.97891 -4.93214,-3.98223z" fill="#004fd9" fill-rule="nonzero" stroke="#caa551" stroke-width="1.2" stroke-linecap="butt" stroke-linejoin="miter"/><g fill-rule="nonzero" stroke-linecap="butt" stroke-linejoin="miter"><g fill="none" stroke="none" stroke-width="1" font-family="sans-serif" font-weight="normal" font-size="12" text-anchor="start"/><path d="M148.44882,274.49168c0,0 10.18479,2.22273 14.9787,2.71666c4.79392,0.49393 8.99096,-0.24701 8.99096,-0.24701c0,0 -0.33577,1.73632 -2.83569,3.19507c-1.93509,1.12916 -5.40483,2.14308 -9.51901,1.7349c-3.74813,-0.37186 -7.80438,-1.36808 -9.62685,-2.72092c-2.76232,-2.05054 -1.98811,-4.67868 -1.98811,-4.67868z" fill="url(#color-4)" stroke="#caa551" stroke-width="1.2"/></g><g stroke-width="1.2"><path d="M157.99406,280.03694c0,0 -3.84901,25.82344 -4.55136,25.90868c-2.01561,0.2446 -13.06129,-1.94566 -13.06129,-1.94566l7.10012,-25.96308" data-paper-data="{&quot;index&quot;:null}" fill="#ffab19" fill-rule="evenodd" stroke="#001026" stroke-linecap="round" stroke-linejoin="round"/><path d="M159.69517,279.62066c0,0 0.6419,7.08351 0.37632,9.9789c-0.1629,1.77604 -2.4974,7.82141 -2.4974,7.82141c0,0 0.96348,4.19445 0.58295,4.57548c-0.48893,0.48959 -2.01172,-2.04042 -2.01172,-2.04042c0,0 1.56761,2.90055 1.60997,3.18966c0.29547,2.01724 -1.05299,4.66627 -4.58655,4.91795c-3.87964,0.27631 -10.3115,0.5884 -13.62716,-1.00756c-3.00174,-1.44484 -3.10817,-4.72318 -2.70515,-6.06935c0.28302,-0.94535 2.28091,-1.45464 2.68544,-2.61684c0.26898,-0.77278 -2.98925,2.73968 -2.40038,1.70946c0.17121,-0.29951 2.57514,-5.01664 2.57514,-5.01664c0,0 0.35676,-4.38165 1.02949,-6.00422c2.70139,-6.51563 5.97229,-11.96272 5.97229,-11.96272" data-paper-data="{&quot;index&quot;:null}" fill="url(#color-5)" fill-rule="evenodd" stroke="#caa551" stroke-linecap="round" stroke-linejoin="round"/><path d="M156.10149,304.33564c-0.09725,1.44997 -0.89056,3.13463 -2.61242,4.00943c-1.72826,0.87802 -12.11512,0.53007 -13.72087,-0.543c-1.52493,-1.01907 -2.1461,-2.90259 -2.05119,-4.31773c0.19486,-2.90531 4.46832,-5.06999 9.54507,-4.8349c5.07671,0.23509 9.03427,2.7809 8.83939,5.68623z" fill="url(#color-6)" fill-rule="nonzero" stroke="url(#color-7)" stroke-linecap="butt" stroke-linejoin="miter"/></g></g><g fill="none" fill-rule="nonzero" stroke="none" stroke-width="1" stroke-linecap="butt" stroke-linejoin="miter" font-family="sans-serif" font-weight="normal" font-size="12" text-anchor="start"/></g><path d="M140.51994,251.18008l8.0721,1.62666l-1.464,0.61981" fill="none" fill-rule="nonzero" stroke="#000000" stroke-width="1" stroke-linecap="round" stroke-linejoin="miter"/><g data-paper-data="{&quot;index&quot;:null}" fill="#000000" fill-rule="nonzero" stroke="#000000" stroke-width="1.2" stroke-linecap="butt" stroke-linejoin="miter"><path d="M119.20419,292.50453c-1.0132,-1.57786 -0.16775,-4.77844 -0.54957,-7.01001c-0.41107,-2.40261 -1.95893,-3.68855 -1.2717,-5.17363c0.48004,-1.0373 2.09383,-1.48197 2.9614,-1.61007c2.10964,-0.31154 4.38588,2.74408 5.0841,6.82488c0.69823,4.0808 -0.44594,7.6415 -2.55557,7.95302c-0.95598,0.14117 -2.82904,0.32332 -3.66865,-0.98417z"/><path d="M123.25742,294.05967c-1.39119,-2.21196 -1.3424,-8.12069 -1.3424,-8.12069c0,0 -1.79264,-3.4907 -1.80545,-3.57512c-0.81748,-5.37917 2.82567,-5.97801 6.97976,-6.59143c1.97707,-0.29196 5.14465,0.00384 6.51257,1.52363c1.55139,1.72362 1.40515,4.47441 1.91778,7.47055c0.96464,5.63795 -0.71774,10.79962 -4.93703,11.42268c-1.85731,0.27426 -5.46712,0.82469 -7.32523,-2.12963z"/></g><path d="M143.70813,266.49277l14.06494,-4.01386l-2.37385,6.31689l-11.90467,10.82399z" fill="url(#color-8)" fill-rule="nonzero" stroke="#737373" stroke-width="2.5" stroke-linecap="butt" stroke-linejoin="miter"/><path d="M150.18686,274.97158c0,0 3.66238,-5.90432 3.2014,-7.71528c-0.11275,-0.44294 2.20841,-1.94222 1.70981,-2.36524c-2.37766,-2.01725 -4.43141,-0.63009 -4.43141,-0.63009c0,0 0.09005,-0.29381 3.98153,-3.07689c1.07448,-0.76844 5.65015,-0.70239 5.94979,-0.937c0.38698,-0.30301 18.01926,5.97934 18.01926,5.97934c0,0 -4.97436,7.12989 -5.01774,10.27415c-0.00031,0.02234 -4.0417,-6.39848 -4.04653,-6.04822c-0.02895,2.09839 -0.61294,4.51845 -0.61294,4.51845c0,0 -5.64779,1.17819 -8.45881,1.22526c-3.09887,0.05189 -10.29437,-1.22445 -10.29437,-1.22445z" fill="url(#color-9)" fill-rule="nonzero" stroke="#737373" stroke-width="2.5" stroke-linecap="butt" stroke-linejoin="miter"/><g stroke-linejoin="miter"><g data-paper-data="{&quot;index&quot;:null}" stroke-linecap="butt"><path d="M188.54401,256.80084c-6.66719,11.545 -22.70689,15.32986 -35.8257,8.45374c-13.11879,-6.87613 -18.34886,-21.80939 -11.68164,-33.3544c6.66719,-11.545 22.70689,-15.32986 35.8257,-8.45374c13.11879,6.87613 18.34886,21.80939 11.68164,33.3544z" fill="none" fill-rule="nonzero" stroke="#000000" stroke-width="4.5"/><g><g fill-rule="nonzero"><path d="M158.51709,223.47747l-0.00666,-0.01255" data-paper-data="{&quot;index&quot;:null}" fill="#ffab19" stroke="#000000" stroke-width="5"/><g data-paper-data="{&quot;index&quot;:null}" fill="none" stroke="none" stroke-width="1" font-family="sans-serif" font-weight="normal" font-size="12" text-anchor="start"/></g><path d="M158.51709,223.47747l-0.00666,-0.01255" data-paper-data="{&quot;index&quot;:null}" fill="#ffab19" fill-rule="nonzero" stroke="#000000" stroke-width="5"/><path d="M163.91248,245.25778" fill="#001026" fill-rule="evenodd" stroke="#000000" stroke-width="5"/><g data-paper-data="{&quot;index&quot;:null}" fill="none" fill-rule="nonzero" stroke="none" stroke-width="1" font-family="sans-serif" font-weight="normal" font-size="12" text-anchor="start"/><g data-paper-data="{&quot;index&quot;:null}" fill="none" fill-rule="nonzero" stroke="none" stroke-width="1" font-family="sans-serif" font-weight="normal" font-size="12" text-anchor="start"/></g></g><path d="M159.16092,254.4716c-0.90681,1.76088 -14.38977,-0.04361 -18.27848,-1.87586c-3.88869,-1.83224 0.88402,-8.25138 1.79083,-10.01226c0.11729,-0.22778 16.59706,11.67567 16.48765,11.88811z" fill="#ffffff" fill-rule="nonzero" stroke="#000000" stroke-width="3" stroke-linecap="butt"/><path d="M184.05554,232.73064l-40.39534,0.24208l-7.22964,11.90328l-8.78633,-35.98278l46.22958,3.1197l16.825,24.63239z" fill="#000000" fill-rule="nonzero" stroke="#191919" stroke-width="3" stroke-linecap="round"/><path d="M148.97993,229.65122l19.82977,14.39815l-1.80735,4.4345" fill="none" fill-rule="nonzero" stroke="#000000" stroke-width="5" stroke-linecap="round"/><path d="M174.6779,252.0849l0.98475,-5.21649l20.90913,-8.63746" fill="none" fill-rule="nonzero" stroke="#000000" stroke-width="5" stroke-linecap="round"/></g><g fill-rule="nonzero" stroke-linecap="butt" stroke-linejoin="miter"><g data-paper-data="{&quot;index&quot;:null}" stroke="none" stroke-width="1"><path d="M194.31191,278.84814c-0.20616,-0.08917 -0.24107,-0.2355 -0.25055,-0.41235c0.00834,-0.27881 0.07528,-0.54722 0.10325,-0.82254c-0.04976,-0.06139 -0.0995,-0.12278 -0.1522,-0.16717c-1.0757,-0.99684 -1.55065,-2.20231 -1.80933,-3.492c-0.05328,-0.27222 -0.1261,-0.54797 -0.07867,-0.8198c0.00892,-0.05097 0.00121,-0.12241 -0.03199,-0.16335c-0.18244,-0.22509 -0.14392,-0.446 -0.12195,-0.68736c0.01601,-0.20735 0.07114,-0.4078 0.10673,-0.61169c0.02075,-0.11893 0.0806,-0.23093 0.21274,-0.29509c0.13212,-0.06411 0.21449,-0.18964 0.29385,-0.29817c0.37867,-0.66849 0.88526,-1.26175 1.50027,-1.7832c0.35254,-0.28776 0.75184,-0.49715 1.17071,-0.70304c1.2341,-0.60421 2.58485,-0.83737 4.00844,-0.79483c0.6404,0.02613 1.28553,0.14067 1.9188,0.32317c0.47981,0.13776 0.89982,0.38752 1.29731,0.65079c1.26473,0.83771 2.09868,1.94925 2.59787,3.24663c0.09829,0.2452 0.13204,0.51392 0.16577,0.78269c0.02902,0.18031 0.08054,0.34714 0.25822,0.48381c0.16108,0.11621 0.21263,0.283 0.22208,0.45984c-0.00834,0.27881 -0.05578,0.55067 -0.10325,0.82254c-0.01483,0.08497 -0.06578,0.14601 -0.11677,0.20702c-0.21743,0.20663 -0.32057,0.45111 -0.38753,0.71951c-0.12035,0.57426 -0.43027,1.07978 -0.72065,1.58879c-0.1138,0.19002 -0.24707,0.37656 -0.41652,0.53919c-0.5368,0.53532 -1.08725,1.03322 -1.79583,1.3979c-0.04447,0.25485 -0.11147,0.52326 -0.15887,0.79513c-0.0178,0.10196 -0.03855,0.22089 -0.1677,0.26801c-0.10959,0.05059 -0.10786,0.15604 -0.12561,0.25797c-0.13811,0.67618 -0.25671,1.35584 -0.39484,2.03202c-0.28344,1.50877 -0.56975,3.03454 -0.89226,4.53637c-0.31658,1.46785 -0.57446,2.94612 -0.85196,4.4209c-0.0415,0.23788 -0.11916,0.45182 -0.16064,0.68968c-0.20159,1.15543 -0.4032,2.31084 -0.62433,3.46281c-0.03557,0.20389 -0.03207,0.41473 -0.18198,0.58078c-0.05096,0.06105 -0.04623,0.14943 -0.06108,0.2344c-0.14819,0.8496 -0.31896,1.71269 -0.46719,2.56228c-0.00593,0.03397 -0.01485,0.08494 -0.02075,0.11893c-0.02786,0.27535 -0.18845,0.38697 -0.48289,0.45732c-0.987,0.22768 -1.96269,0.15953 -2.92712,-0.20436c-0.24525,-0.09611 -0.48455,-0.22618 -0.6984,-0.38676c-0.16109,-0.11621 -0.2156,-0.26601 -0.20552,-0.43938c0.03031,-0.52017 0.04104,-1.04379 0.0743,-1.58095c0.02613,-0.38078 0.09431,-0.77159 0.06178,-1.16274c-0.07274,-0.85377 0.09208,-1.6829 0.07795,-2.52623c0.00182,-0.47264 -0.03838,-0.93528 -0.017,-1.40448c0.02733,-0.50315 0.0126,-0.99629 0.01737,-1.48591c0.01435,-0.89087 0.07078,-1.79179 0.06556,-2.68612c-0.03595,-1.18006 0.00627,-2.34632 0.04851,-3.51249c0.00955,-0.40125 0.01904,-0.8024 0.0286,-1.20365c0.02851,-0.6256 0.06003,-1.26814 0.08856,-1.8937c0.02017,-0.34679 -0.00167,-0.68351 0.01849,-1.03027c0.00361,-0.36729 0.05993,-0.69005 0.08607,-1.07084zM194.84212,278.69704c0.2168,0.1436 0.43953,0.25324 0.69069,0.31537c0.48161,0.24316 1.0035,0.37088 1.52541,0.49857c0.65579,0.16899 1.34297,0.27348 2.01063,0.3745c0.76539,0.11838 1.50178,0.05644 2.26071,-0.01902c0.08413,-0.02011 0.16825,-0.0402 0.29442,-0.07034c0.02374,-0.13592 0.0474,-0.27187 0.07113,-0.40778c0.00593,-0.03397 -0.00768,-0.07144 -0.01835,-0.12587c-0.13684,-0.02431 -0.27665,-0.03161 -0.41944,-0.02193c-0.24348,0.00934 -0.46148,-0.01189 -0.70496,-0.00258c-0.60426,-0.00219 -1.20145,-0.16072 -1.7968,-0.21388c-0.31576,-0.03852 -0.63742,-0.04313 -0.94724,-0.11564c-0.67535,-0.17245 -1.36549,-0.25998 -2.02893,-0.50039c-0.17003,-0.06524 -0.35958,-0.1339 -0.52962,-0.19916c-0.06041,-0.11585 -0.22274,-0.1096 -0.31457,-0.16097c-0.1084,-0.07181 -0.21683,-0.14361 -0.43479,-0.16478c0.09829,0.2452 0.00111,0.45567 0.04372,0.67344c0.09479,0.03437 0.1552,0.15016 0.29798,0.14048zM195.52322,279.41357c-0.42295,-0.23278 -0.53727,-0.27056 -0.79735,-0.28172c-0.01601,0.20735 -0.02907,0.39777 -0.04511,0.60513c-0.02075,0.11893 0.04258,0.21779 0.15104,0.28961c0.07231,0.04789 0.17,0.06522 0.24228,0.11308c0.2725,0.17103 0.59595,0.28099 0.91168,0.31953c0.12205,0.10923 0.27839,0.13705 0.43481,0.16481c0.87674,0.17319 1.73102,0.35988 2.62259,0.44814c0.39693,0.03544 0.79682,0.05391 1.18009,0.05188c0.30513,-0.01591 0.62975,-0.02833 0.89993,-0.19058c0.03854,-0.22091 0.07704,-0.44178 0.11561,-0.66268c-0.1623,0.0062 -0.30512,0.01589 -0.4283,0.02904c-0.5711,0.03871 -1.13626,0.0435 -1.68958,-0.01972c-0.71265,-0.074 -1.41051,-0.23294 -2.11133,-0.37488c-0.33237,-0.05901 -0.62736,-0.21647 -0.96265,-0.25851c-0.1552,-0.15016 -0.34772,-0.20189 -0.52365,-0.23313zM194.6478,298.75555c0.2559,0.15054 0.5266,0.21615 0.80325,0.24775c0.01657,0.02045 0.05273,0.0444 0.07231,0.04786c0.47215,0.06633 0.95023,0.09866 1.407,0.02209c0.26901,-0.03983 0.53498,-0.06267 0.76304,-0.21488c0.16602,-0.95154 0.332,-1.90304 0.50696,-2.90557c-0.50178,0.10358 -0.98584,0.10527 -1.46683,0.08991c-0.42241,-0.00492 -0.8045,-0.12533 -1.22097,-0.16424c-0.15638,-0.02775 -0.29028,-0.06903 -0.44669,-0.0968c-0.21974,-0.12661 -0.46501,-0.22271 -0.75527,-0.29178c-0.08892,0.50976 -0.01554,1.01328 -0.05945,1.496c-0.02732,0.50316 -0.0351,1.00983 -0.05944,1.49599c0.15519,0.15016 0.30565,0.21195 0.45613,0.27369zM194.75494,295.25349c0.12206,0.10922 0.27547,0.15403 0.43184,0.18177c0.14454,0.09576 0.32347,0.11001 0.49642,0.15824c0.54443,0.11417 1.10369,0.14341 1.64927,0.13517c0.32463,-0.01243 0.65523,-0.05886 0.95853,-0.18019c0.01187,-0.06797 0.04327,-0.13246 0.0551,-0.20044c0.1453,-0.83261 0.28759,-1.64815 0.45238,-2.47728c0.1737,-0.88009 0.34444,-1.74319 0.51816,-2.62327c0.24484,-1.28791 0.50633,-2.5553 0.75115,-3.84321c0.29109,-1.43734 0.52056,-2.8681 0.85076,-4.29849c0.06107,-0.2344 0.08594,-0.49276 0.13044,-0.74764c-0.22688,0.02979 -0.44015,0.09704 -0.66112,0.09283c-0.71091,0.03144 -1.42357,-0.04256 -2.13032,-0.15051c-0.62556,-0.11107 -1.24819,-0.23915 -1.87081,-0.36724c-0.24824,-0.07911 -0.47983,-0.13776 -0.72805,-0.21686c-0.13858,-0.12971 -0.32049,-0.12697 -0.47096,-0.18873c-0.17003,-0.06524 -0.31454,-0.16096 -0.513,-0.17868c-0.06874,0.16298 -0.05337,0.30586 -0.05456,0.42825c0.04014,1.04071 -0.0791,2.07061 -0.09761,3.10087c-0.0149,0.66305 -0.02984,1.32608 -0.02514,1.99257c-0.01435,0.89087 -0.0062,1.76819 -0.01756,2.64207c-0.00422,0.71748 -0.0085,1.43496 -0.03231,2.14896c-0.01317,0.76847 -0.04291,1.51643 -0.07559,2.28144c-0.02083,0.69701 -0.04461,1.41103 -0.04887,2.1285c0.17295,0.04821 0.27249,0.171 0.43184,0.18179zM205.25687,273.64418c-0.45674,0.07655 -0.87919,0.07162 -1.30452,0.0837c-0.44492,0.0086 -0.87323,0.03768 -1.31515,0.02925c-0.42242,-0.00493 -0.85846,-0.04733 -1.27787,-0.06927c-0.43901,-0.0254 -0.87797,-0.05079 -1.33351,-0.09661c-0.41645,-0.03892 -0.84952,-0.09831 -1.26599,-0.13722c-0.43304,-0.05938 -0.85425,-0.18671 -1.29916,-0.17812c-0.39271,-0.17482 -0.83468,-0.18323 -1.24228,-0.2731c-0.42412,-0.11035 -0.87381,-0.19018 -1.29796,-0.30053c-0.40458,-0.10688 -0.82578,-0.23425 -1.22742,-0.3581c-0.4212,-0.12736 -0.81097,-0.31922 -1.24102,-0.39553c-0.11026,0.40087 -0.13101,0.51979 -0.02798,0.8534c0.21974,0.12661 0.43954,0.25325 0.70431,0.35278c0.32345,0.10999 0.64686,0.21998 0.98693,0.35044c0.64392,0.23698 1.27128,0.45344 1.95551,0.57495c0.4692,0.08331 0.94135,0.14961 1.39869,0.30091c0.09479,0.03437 0.21208,0.05516 0.33527,0.04201c0.24348,-0.00936 0.49467,0.05282 0.72925,0.09443c0.86018,0.15274 1.73813,0.20352 2.59952,0.23381c1.13806,0.06192 2.25773,-0.00204 3.38629,-0.11701c0.22392,-0.01281 0.44787,-0.02558 0.63089,-0.15075c0.08359,-0.24793 0.10851,-0.5063 0.10619,-0.83952zM197.71175,270.21989c-0.19492,0.19313 -0.31168,0.40014 -0.44795,0.60368c-0.13038,0.16953 -0.18549,0.36998 -0.14286,0.58777c0.0491,0.41162 0.03663,0.82984 -0.05411,1.23417c-0.00593,0.03397 0.00469,0.08842 0.00174,0.10541c0.08885,0.06831 0.16704,0.08217 0.27371,0.04858c0.02251,-0.0135 0.04799,-0.04403 0.05096,-0.06104c0.14462,-0.48235 0.32835,-0.95772 0.55117,-1.4262c0.03142,-0.0645 0.06874,-0.16297 0.04149,-0.2379c-0.03075,-0.28575 -0.06153,-0.57149 -0.27418,-0.85451zM196.09112,272.5773c0.13868,-0.44835 0.31353,-0.87276 0.50495,-1.27672c0.06278,-0.12898 0.06402,-0.2514 0.02907,-0.39775c-0.06218,-0.22123 -0.16938,-0.41547 -0.27361,-0.62668c-0.02725,-0.07491 -0.05149,-0.16679 -0.17474,-0.15365c-0.14815,0.27151 -0.31287,0.52257 -0.42194,0.80097c0.20785,0.77267 0.20782,0.77265 0.08508,1.59169c0.04974,0.0614 0.125,0.09226 0.25118,0.06211zM200.60672,275.11335c-0.13157,0.29197 -0.24358,0.58744 -0.3556,0.88286c-0.03143,0.06451 -0.06281,0.12899 -0.05512,0.20041c0.08939,0.29614 0.1593,0.58886 0.35534,0.85142c0.27017,-0.16224 0.37328,-0.40671 0.53209,-0.62378c0.07939,-0.1085 0.07763,-0.21396 0.03972,-0.3433c-0.10895,-0.29963 -0.17882,-0.59235 -0.22613,-0.89851c0.00298,-0.017 -0.03313,-0.04094 -0.06632,-0.08183c-0.06161,0.00657 -0.14283,0.00968 -0.22394,0.0128zM201.63039,270.8631c-0.30158,0.22674 -0.46335,0.46079 -0.64465,0.69137c-0.05691,0.095 -0.05214,0.18342 -0.04742,0.27186c0.04616,0.42863 0.03361,0.84685 -0.06004,1.26818c-0.00891,0.05097 0.00174,0.10541 -0.00712,0.15638c0.21208,0.05518 0.25415,0.04514 0.27784,-0.0908c0.07707,-0.44181 0.24896,-0.84922 0.51262,-1.20531c0.15881,-0.21706 0.17484,-0.42444 0.11564,-0.66268c-0.05744,-0.13286 -0.09829,-0.24522 -0.14683,-0.429zM198.39496,273.00389c0.09774,0.01733 0.12914,-0.04718 0.14101,-0.11514c0.08303,-0.47574 0.31942,-0.90676 0.55589,-1.33778c0.1825,-0.35299 0.17251,-0.75768 -0.05551,-1.18356c-0.16351,0.12862 -0.21272,0.29508 -0.33715,0.43064c-0.25182,0.28813 -0.30813,0.61096 -0.28926,0.96469c0.01299,0.38769 0.04549,0.77889 -0.05881,1.14575c0.01068,0.05443 0.02723,0.07493 0.04383,0.09538zM200.25911,270.63713c-0.15288,0.18306 -0.27437,0.30163 -0.37626,0.42369c-0.17536,0.19661 -0.23051,0.39704 -0.19383,0.64878c0.06096,0.34367 0.04078,0.69044 0.00106,1.03372c-0.00121,0.12243 -0.02493,0.25834 -0.04568,0.37727c0.09479,0.03437 0.12321,-0.01314 0.12914,-0.04713c0.1837,-0.47542 0.38698,-0.94732 0.66552,-1.38838c0.03437,-0.08149 0.06577,-0.14598 0.06104,-0.2344c-0.05624,-0.25524 -0.09292,-0.507 -0.24099,-0.81356zM201.86796,275.16212c0.02187,0.33673 -0.09015,0.63215 -0.18263,0.93107c-0.01482,0.08496 -0.08533,0.14251 -0.06105,0.2344c0.03494,0.14638 0.2221,0.45987 0.41046,0.65099c0.16652,-0.14563 0.24116,-0.34257 0.35201,-0.5156c0.08532,-0.14253 0.0895,-0.28191 0.01547,-0.4352c-0.11486,-0.26563 -0.19068,-0.52436 -0.20188,-0.80664c0.00299,-0.017 -0.03022,-0.05791 -0.04679,-0.07835c-0.07525,-0.03087 -0.15344,-0.04478 -0.28555,0.01938zM194.98654,275.09644c0.0758,0.25869 0.00583,0.54411 0.14323,0.79624c0.13981,0.00731 0.2133,-0.06723 0.30335,-0.12131c0.16056,-0.11166 0.33473,-0.1858 0.46509,-0.35536c-0.06391,-0.32668 0.03445,-0.65958 -0.00697,-0.99975c-0.08885,-0.06831 -0.18659,-0.0857 -0.29027,-0.06904c-0.16769,0.26805 -0.37152,0.51215 -0.61445,0.74928zM198.25371,274.85324c-0.06874,0.16298 -0.1375,0.32594 -0.25599,0.42751c-0.28498,0.24718 -0.31581,0.53955 -0.20982,0.85615c0.04084,0.11235 0.02305,0.21431 0.12256,0.33711c0.22515,-0.13523 0.39461,-0.29782 0.56403,-0.46046c0.04801,-0.04403 0.05982,-0.11201 0.05511,-0.20042c-0.03376,-0.26877 -0.05089,-0.51706 -0.08459,-0.78579c0.00892,-0.05097 -0.01836,-0.1259 -0.19135,-0.17413zM197.02213,274.63458c-0.14341,0.35994 -0.32003,0.67891 -0.6216,0.90567c-0.06752,0.04056 -0.05983,0.112 -0.07168,0.17996c-0.00713,0.1564 0.00529,0.31629 0.0959,0.48999c0.31522,-0.18929 0.53267,-0.39597 0.75306,-0.61958c0.07346,-0.07453 0.10787,-0.15601 0.10608,-0.26146c-0.00644,-0.19384 0.00657,-0.38425 0.00007,-0.57808c0.00299,-0.017 -0.03021,-0.05794 -0.04679,-0.07838c-0.05864,-0.01042 -0.11731,-0.02083 -0.21503,-0.03815zM202.97092,271.95951c-0.04857,-0.18378 -0.09411,-0.38461 -0.14267,-0.56843c-0.01657,-0.02045 -0.03318,-0.04095 -0.06633,-0.08184c-0.24175,0.11472 -0.39461,0.29782 -0.50544,0.47082c0.04495,0.55105 0.09582,1.06808 -0.00498,1.64581c0.32113,-0.22327 0.23168,-0.51943 0.32887,-0.7299c0.10608,-0.26146 0.24827,-0.49895 0.39048,-0.73648zM197.50914,269.76348c-0.15992,-0.2386 -0.28077,-0.47029 -0.53368,-0.63781c-0.09895,0.10504 -0.21151,0.17267 -0.28794,0.26422c-0.07641,0.09155 -0.1724,0.17959 -0.19313,0.29855c0.03199,0.16331 0.15104,0.28958 0.22802,0.42588c0.07702,0.13627 0.11193,0.28266 0.25348,0.39537c0.18427,-0.24759 0.34604,-0.4816 0.5333,-0.74617zM194.83406,272.38914c0.16711,-0.49586 0.29986,-0.91026 0.43265,-1.32459c0.00593,-0.03397 0.03441,-0.08149 0.00121,-0.12241c-0.10424,-0.21119 -0.16345,-0.44946 -0.39681,-0.6135c-0.11971,0.22399 -0.23645,0.43102 -0.33363,0.64151c0.18595,0.43594 0.24868,0.88499 0.29659,1.41905zM199.19775,276.72011c0.19671,-0.08771 0.26543,-0.25068 0.36736,-0.37272c0.12444,-0.13556 0.19021,-0.28153 0.14461,-0.48232c-0.05327,-0.27222 -0.10655,-0.54446 -0.02003,-0.80942c-0.13094,-0.05829 -0.21208,-0.05518 -0.22987,0.04678c-0.06401,0.25138 -0.13102,0.51979 -0.28684,0.71985c-0.21272,0.29508 -0.10082,0.57776 0.02477,0.89784zM197.32766,276.00264c-0.30453,0.24374 -0.55812,0.42645 -0.79215,0.61261c-0.02075,0.11893 0.02603,0.19734 0.05328,0.27221c0.04679,0.07838 0.06809,0.18724 0.19899,0.24553c0.23879,-0.09776 0.46388,-0.23295 0.67246,-0.38858c-0.02011,-0.23128 -0.06273,-0.44908 -0.13258,-0.74177zM200.25156,277.3802c-0.13145,-0.28611 -0.24935,-0.53476 -0.3642,-0.80041c-0.17539,0.1966 -0.34781,0.37622 -0.52023,0.5558c0.09829,0.2452 0.16046,0.46646 0.36838,0.66099c0.20262,-0.12166 0.34956,-0.27077 0.51605,-0.41639zM198.54242,269.38634c-0.25238,0.06028 -0.34957,0.27078 -0.49653,0.41984c-0.04801,0.04403 -0.04328,0.13245 -0.01304,0.19038c0.08764,0.19075 0.1587,0.36104 0.24929,0.53479c-0.00298,0.017 0.03616,0.02393 0.07526,0.03089c0.17837,-0.21356 0.34005,-0.44764 0.51845,-0.66121c-0.06808,-0.18726 -0.20077,-0.35095 -0.33347,-0.51465zM201.44162,270.44419c-0.0456,-0.20079 -0.09412,-0.38458 -0.2884,-0.54172c-0.18308,0.12518 -0.40526,0.24339 -0.5386,0.42992c0.03788,0.12936 0.03669,0.25176 0.0971,0.36759c0.04083,0.11235 -0.00244,0.24483 0.16463,0.32703c0.19493,-0.19312 0.38985,-0.38624 0.56528,-0.58285zM200.81365,277.39241c0.05152,0.1668 0.21265,0.283 0.37078,0.41619c0.192,-0.17611 0.41413,-0.29436 0.53386,-0.51833c-0.13269,-0.16372 -0.19782,-0.36795 -0.38915,-0.54208c-0.17837,0.21356 -0.33718,0.43063 -0.51551,0.64421zM203.12744,275.1055c-0.07291,0.30238 -0.07055,0.63564 -0.18261,0.93108c-0.08357,0.24793 0.02959,0.40813 0.24044,0.58573c0.16943,-0.16259 0.24116,-0.34257 0.33537,-0.53606c-0.20671,-0.31696 -0.24816,-0.65719 -0.39322,-0.98074zM193.78084,271.95688c0.08117,-0.00309 0.09003,-0.05408 0.09895,-0.10504c0.0581,-0.21741 0.0996,-0.4553 0.17724,-0.66926c0.13451,-0.30896 -0.03134,-0.51358 -0.25288,-0.74562c-0.05986,0.11203 -0.11375,0.19001 -0.14812,0.27149c-0.09419,0.1935 -0.14638,0.37691 -0.00305,0.59508c0.07701,0.13627 0.0894,0.29617 0.10483,0.43906c-0.03143,0.06451 -0.08532,0.14251 0.02306,0.2143zM194.01614,275.34459c0.10959,-0.05059 0.18012,-0.10817 0.24766,-0.14872c0.2192,-0.10121 0.30456,-0.24375 0.30101,-0.45459c-0.00942,-0.17685 0.04273,-0.36031 0.05281,-0.53368c0.00893,-0.05098 0.03734,-0.09847 -0.09655,-0.13978c-0.13929,0.22053 -0.31761,0.43413 -0.5321,0.62377c-0.04801,0.04403 -0.06279,0.12896 -0.07468,0.19693c0.01538,0.14285 0.03371,0.26878 0.10184,0.45602zM198.8422,277.02484c-0.04853,-0.18378 -0.07457,-0.38111 -0.18479,-0.55833c-0.22809,0.15221 -0.46982,0.26693 -0.64522,0.46352c0.08766,0.19074 0.11664,0.37106 0.3139,0.51121c0.1831,-0.12518 0.38277,-0.22985 0.51605,-0.4164zM199.59784,270.72994c0.22807,-0.15221 0.38096,-0.33529 0.4947,-0.5253c-0.08763,-0.19074 -0.15873,-0.361 -0.30799,-0.54518c-0.1742,0.07418 -0.29565,0.19278 -0.40052,0.33181c0.07875,0.24171 0.13798,0.47997 0.21374,0.73867zM196.96596,277.49752c0.09656,0.13979 0.14037,0.23513 0.22627,0.32044c0.04976,0.06139 0.10245,0.10579 0.15521,0.15018c0.2103,-0.05024 0.40701,-0.13795 0.55397,-0.28703c-0.06808,-0.18726 -0.13621,-0.37451 -0.31098,-0.52818c-0.20262,0.12166 -0.39932,0.20939 -0.62444,0.34459zM193.66506,273.7757c-0.25062,0.16575 -0.43071,0.27387 -0.63631,0.41254c-0.03142,0.0645 -0.03263,0.18687 0.00824,0.29926c0.02131,0.10887 -0.03853,0.22088 0.06393,0.32668c0.18484,-0.01974 0.31694,-0.08387 0.43547,-0.18544c0.02787,-0.27534 0.07239,-0.53022 0.12871,-0.85303zM197.28307,268.86492c0.08295,0.10233 0.16588,0.20466 0.24876,0.30697c0.08296,0.10233 0.16883,0.18762 0.25174,0.28994c0.16946,-0.16258 0.33004,-0.27424 0.40174,-0.45419c-0.04085,-0.11234 -0.15222,-0.16716 -0.24105,-0.23551c-0.08885,-0.06831 -0.16883,-0.18762 -0.30861,-0.19493c-0.13807,0.09814 -0.27015,0.16224 -0.35254,0.28778zM199.35276,278.02644c-0.12676,-0.19768 -0.18891,-0.41896 -0.39984,-0.59654c-0.16055,0.11165 -0.30156,0.22674 -0.46216,0.33838c0.12675,0.19767 0.21734,0.37146 0.43714,0.49805c0.15166,-0.06066 0.29742,-0.08733 0.42481,-0.2399zM195.49664,270.43972c0.17068,-0.285 0.31585,-0.53951 0.461,-0.794c-0.06041,-0.11585 -0.10125,-0.22822 -0.23218,-0.28648c-0.24767,0.14875 -0.38689,0.36923 -0.5457,0.5863c0.06042,0.11586 0.1208,0.23168 0.20372,0.33399c0.00768,0.07145 0.04382,0.09535 0.11311,0.16022zM196.02726,276.52501c-0.08473,-0.20774 -0.04911,-0.41165 -0.1818,-0.57536c-0.24468,0.13175 -0.46684,0.24996 -0.65886,0.4261c0.11612,0.14325 0.08643,0.31316 0.26415,0.44982c0.21028,-0.05024 0.35432,-0.18236 0.5765,-0.30055zM202.37752,270.27753c-0.15463,0.07765 -0.29267,0.17578 -0.39459,0.29784c0.08175,0.22473 0.1439,0.44597 0.21969,0.70467c0.14987,-0.16605 0.29092,-0.28117 0.47698,-0.42331c-0.08173,-0.22474 -0.14684,-0.429 -0.30207,-0.57919zM194.04868,275.73576c0.03964,0.23478 0.06572,0.4321 0.23746,0.60275c0.1712,-0.0572 0.31992,-0.10083 0.42185,-0.2229c-0.04261,-0.21778 -0.0657,-0.43205 -0.12195,-0.68731c-0.19671,0.08771 -0.37384,0.17889 -0.53738,0.3075zM200.46173,269.93737c0.17241,-0.17959 0.40527,-0.2434 0.47698,-0.42337c-0.08763,-0.19074 -0.22626,-0.32046 -0.38739,-0.43668c-0.17714,0.09118 -0.35134,0.16534 -0.44261,0.34182c0.11311,0.16023 0.20674,0.31698 0.35301,0.51814zM200.83791,278.0624c-0.11611,-0.14325 -0.19309,-0.27952 -0.35719,-0.37872c-0.16943,0.16259 -0.40526,0.24336 -0.52201,0.45038c0.09655,0.13979 0.202,0.22858 0.37498,0.27681c0.18011,-0.10816 0.34364,-0.23677 0.50418,-0.34843zM194.65083,269.97418c-0.09358,-0.15678 -0.17945,-0.24204 -0.30742,-0.3174c-0.16056,0.11166 -0.30752,0.26071 -0.34306,0.46461c0.09952,0.12278 0.19899,0.24552 0.29555,0.38533c0.18903,-0.15913 0.24414,-0.35954 0.35493,-0.53259zM204.10545,276.663c-0.10244,-0.10577 -0.18838,-0.19111 -0.30267,-0.22892c-0.14694,0.14906 -0.25476,0.30515 -0.32648,0.4851c0.07992,0.1193 0.16584,0.20463 0.29676,0.2629c0.16652,-0.14563 0.22161,-0.34605 0.3324,-0.51907zM197.68038,278.25499c0.0817,0.22471 0.23515,0.26948 0.41406,0.28374c0.13683,0.02431 0.27963,0.01462 0.362,-0.11092c-0.09358,-0.15678 -0.19011,-0.29652 -0.35123,-0.41274c-0.15463,0.07765 -0.28972,0.15878 -0.4248,0.23989zM203.88673,272.13961c-0.03197,-0.16332 -0.00825,-0.29924 -0.13026,-0.40851c-0.44138,0.21944 -0.40001,0.55964 -0.26673,0.95114c0.13333,-0.18653 0.26371,-0.35612 0.397,-0.54263zM195.93044,277.54142c0.18782,-0.0367 0.31992,-0.10085 0.46389,-0.23295c-0.12205,-0.10923 -0.11197,-0.28265 -0.25649,-0.37837c-0.12029,-0.00386 -0.17121,0.05718 -0.25831,0.09425c-0.09002,0.05408 -0.19373,0.07071 -0.21449,0.18964c0.06042,0.11586 0.12083,0.2317 0.26536,0.32742zM198.85641,273.01576c0.19723,0.14012 0.32049,0.12699 0.36669,-0.02247c0.0581,-0.2174 0.07709,-0.44178 0.09311,-0.64916c0.01188,-0.06794 0.0071,-0.15639 -0.10425,-0.2112c-0.15112,0.28849 -0.26311,0.58391 -0.35559,0.88282zM201.94629,278.29422c0.0213,0.10888 0.09061,0.17377 0.20495,0.2116c0.22219,-0.11822 0.48052,-0.21248 0.63932,-0.42953c-0.2168,-0.14359 -0.39872,-0.1409 -0.56518,0.00472c-0.09004,0.05409 -0.21629,0.08425 -0.27908,0.21321zM201.50567,273.31096c0.27366,0.0486 0.33826,0.02497 0.36495,-0.12789c0.02195,-0.24136 0.04688,-0.49969 -0.00938,-0.75493c-0.20976,0.27808 -0.397,0.54264 -0.35559,0.88283zM204.1192,275.54433c-0.04328,0.13244 -0.06399,0.25142 -0.10432,0.36685c-0.06109,0.23441 -0.06105,0.23441 0.27601,0.38189c0.05986,-0.11203 0.14223,-0.23753 0.17361,-0.30201c-0.13268,-0.16373 -0.22921,-0.30346 -0.34531,-0.44669zM199.81041,268.47283c-0.13214,0.06412 -0.31399,0.06689 -0.34662,0.25379c0.10245,0.10579 0.22746,0.19805 0.34651,0.32428c0.15466,-0.07765 0.32587,-0.1348 0.40822,-0.26035c-0.12207,-0.10923 -0.22154,-0.23205 -0.40814,-0.31774zM202.69236,276.67494c-0.13625,0.20354 -0.29213,0.40358 -0.42839,0.60713c0.02429,0.09187 0.07103,0.17026 0.19424,0.15711c0.20262,-0.12166 0.37212,-0.2843 0.46928,-0.49477c-0.06041,-0.11585 -0.12675,-0.19767 -0.23518,-0.26948zM202.96464,270.60954c0.13981,0.00731 0.24943,-0.04329 0.34541,-0.13137c-0.02724,-0.07492 -0.05448,-0.14982 -0.08174,-0.22472c-0.04379,-0.09536 -0.06812,-0.18727 -0.17948,-0.24207c-0.11729,-0.02083 -0.22096,-0.00424 -0.31398,0.06688c0.07109,0.1703 0.15875,0.36102 0.22976,0.53129zM199.17273,269.58587c0.15466,-0.07765 0.2536,-0.18272 0.33597,-0.30823c-0.13858,-0.12971 -0.25767,-0.25595 -0.37966,-0.3652c-0.1653,0.02324 -0.26128,0.11129 -0.29862,0.20976c0.11311,0.16023 0.22627,0.32045 0.34233,0.46373zM203.65461,271.27508c-0.04085,-0.11234 -0.0817,-0.22471 -0.14211,-0.34059c-0.01657,-0.02044 -0.0557,-0.0274 -0.09187,-0.05134c-0.0871,0.03709 -0.21031,0.05023 -0.29268,0.17577c0.03496,0.14638 0.04444,0.32319 0.15753,0.48343c0.17118,-0.0572 0.26716,-0.14529 0.3691,-0.26732zM204.43594,272.92033c0.05215,-0.18344 0.27313,-0.17926 0.30278,-0.34914c-0.05449,-0.14978 -0.04731,-0.30619 -0.18002,-0.46989c-0.15166,0.06066 -0.28382,0.12482 -0.2518,0.28813c0.03196,0.16333 -0.01426,0.31276 0.12905,0.53093zM203.20469,277.78191c0.09895,-0.10506 0.21744,-0.20665 0.31341,-0.29469c0.02253,-0.01351 0.00891,-0.05099 0.01481,-0.08496c-0.09183,-0.05134 -0.17472,-0.15367 -0.35958,-0.1339c-0.12142,0.11858 -0.2459,0.25413 -0.38988,0.38626c0.12497,0.09227 0.23933,0.13007 0.4212,0.12736zM198.74045,268.59818c-0.0995,-0.12278 -0.19605,-0.26254 -0.27897,-0.36484c-0.18484,0.01973 -0.31698,0.08385 -0.42953,0.15147c-0.00119,0.12244 0.13268,0.16368 0.20199,0.22857c0.06935,0.06487 0.13564,0.1467 0.27547,0.15401c0.08413,-0.02011 0.17123,-0.0572 0.23109,-0.1692zM194.40575,276.69257c0.07702,0.13627 0.14038,0.23516 0.20374,0.33399c0.0136,0.03747 0.06931,0.06488 0.08591,0.08533c0.13683,0.02431 0.24646,-0.02629 0.34243,-0.11438c-0.07405,-0.15329 -0.12853,-0.3031 -0.24454,-0.44635c-0.12618,0.03016 -0.2358,0.08077 -0.38747,0.14142zM204.64989,275.62104c0.11677,-0.20701 0.23346,-0.414 0.21635,-0.6623c-0.18483,0.01973 -0.34423,0.00896 -0.46567,0.12752c0.04731,0.3062 0.04733,0.30621 0.24931,0.53477zM196.22121,277.8383c0.27602,0.38189 0.29553,0.38531 0.67711,0.27784c-0.09656,-0.13979 -0.2156,-0.26598 -0.31212,-0.40579c-0.13981,-0.00731 -0.24939,0.0433 -0.36496,0.12787zM202.1632,269.88912c-0.07404,-0.15328 -0.154,-0.27259 -0.29854,-0.36835c-0.04207,0.01005 -0.10666,0.03361 -0.17124,0.05718c-0.04503,0.02705 -0.09304,0.07109 -0.13803,0.09809c0.07405,0.15328 0.12558,0.3201 0.26713,0.43284c0.12616,-0.03015 0.24175,-0.11472 0.34065,-0.21981zM193.37211,275.68571c0.06455,-0.02358 0.15166,-0.06069 0.18013,-0.10818c0.09129,-0.1765 0.08179,-0.35331 -0.02245,-0.56456c-0.12917,0.04711 -0.29147,0.05335 -0.36792,0.14491c0.04853,0.18378 0.0355,0.37417 0.21024,0.52782zM195.43463,269.0623c-0.01655,-0.02045 -0.03316,-0.04093 -0.06633,-0.08184c-0.27787,0.09083 -0.50597,0.24302 -0.73405,0.39522c0.03789,0.12935 0.1072,0.19419 0.2606,0.23896c0.17241,-0.17959 0.36435,-0.35572 0.53979,-0.55234zM200.5099,272.43347c-0.16177,0.23405 -0.34007,0.44762 -0.37094,0.73995c-0.00299,0.017 0.06933,0.06484 0.10841,0.07179c0.09774,0.01732 0.1878,-0.03674 0.20258,-0.1217c0.0972,-0.21047 0.09663,-0.43833 0.05995,-0.69004zM201.62182,269.17985c-0.07993,-0.11933 -0.15992,-0.23862 -0.2849,-0.33089c-0.13684,-0.02431 -0.24052,-0.00767 -0.35901,0.09388c0.11908,0.12626 0.23515,0.2695 0.35716,0.37874c0.12318,-0.01316 0.21028,-0.05025 0.28675,-0.14178zM199.14538,278.63776c0.27072,0.06558 0.50235,0.12427 0.75769,0.04698c-0.03197,-0.16332 -0.15694,-0.2556 -0.30445,-0.33435c-0.17418,0.07418 -0.32585,0.13483 -0.45324,0.28743zM192.54421,273.96208c0.19375,-0.07071 0.21624,-0.08419 0.22517,-0.13519c0.04921,-0.16641 -0.02186,-0.33674 -0.0959,-0.48999c-0.0302,-0.05789 -0.12501,-0.09224 -0.20144,-0.00071c0.0906,0.17376 -0.02615,0.38079 0.0722,0.62595zM196.1958,269.32009c0.192,-0.17611 0.40054,-0.3318 0.47044,-0.61719c-0.29441,0.07034 -0.46688,0.24996 -0.63333,0.39558c0.00469,0.08843 0.05744,0.1328 0.16289,0.2216zM195.22194,277.32801c-0.10663,0.03363 -0.21031,0.05025 -0.31694,0.08387c0.07107,0.17031 0.16761,0.31006 0.39155,0.29726c0.06162,-0.00657 0.12319,-0.01317 0.15463,-0.07765c-0.02131,-0.10887 -0.10721,-0.19422 -0.22921,-0.30346zM202.84515,273.37365c0.17596,0.03121 0.26006,0.01116 0.26422,-0.12823c0.00121,-0.12243 0.0024,-0.24484 -0.01596,-0.37072c-0.01069,-0.05442 -0.04085,-0.11239 -0.12201,-0.10927c-0.09422,0.19349 -0.12682,0.3804 -0.12626,0.60823zM195.47569,271.71478c-0.11677,0.20702 -0.19436,0.42098 -0.17427,0.65227c-0.00298,0.01701 0.06933,0.06484 0.08885,0.06831c0.03907,0.00694 0.0871,-0.03709 0.09302,-0.07108c0.019,-0.22436 0.09368,-0.42134 -0.00761,-0.64957zM194.43663,272.12589c-0.02899,-0.18032 0.00362,-0.36727 -0.08103,-0.57499c-0.13627,0.20353 -0.20798,0.38351 -0.16713,0.49586c0.02131,0.10887 0.0995,0.12279 0.24818,0.07911zM201.07717,278.77054c0.24348,-0.00934 0.51721,0.03927 0.68961,-0.14034c-0.32816,-0.19838 -0.50057,-0.01879 -0.68961,0.14034zM201.34297,275.62951c0.03906,0.00693 0.06168,-0.00657 0.10074,0.00037c0.01009,-0.17337 0.11496,-0.31243 0.04388,-0.4827c-0.11432,-0.03784 -0.17594,-0.03123 -0.24942,0.04331c0.03789,0.12935 0.07282,0.27569 0.10483,0.43905zM197.94662,272.22354c-0.10014,0.22746 -0.17185,0.40745 -0.1879,0.61481c-0.00593,0.03397 0.02723,0.0749 0.08587,0.08532c0.01958,0.00346 0.06161,-0.00657 0.08413,-0.02011c0.11677,-0.20701 0.15232,-0.41089 0.01787,-0.68002zM193.66887,275.9486c-0.1232,0.01317 -0.18778,0.03671 -0.15757,0.09465c0.03789,0.12935 0.09535,0.26217 0.15278,0.39501c0.04678,0.07837 0.10542,0.08879 0.17593,0.03124c-0.02601,-0.19732 -0.05801,-0.36068 -0.17112,-0.52089zM200.64801,268.63907c0.0871,-0.03709 0.17123,-0.0572 0.25832,-0.09427c0.02253,-0.0135 0.02843,-0.04751 0.05691,-0.095c-0.23455,-0.04168 -0.4407,-0.1308 -0.70672,-0.10797c0.11908,0.12626 0.20496,0.21156 0.39155,0.29724zM196.3183,274.50957c-0.01011,0.17338 -0.01723,0.32981 -0.03326,0.53718c0.22514,-0.13524 0.31048,-0.2777 0.32055,-0.45109c-0.08885,-0.06832 -0.14453,-0.09575 -0.28733,-0.08608zM202.53082,275.17471c0.05744,0.13286 -0.01427,0.31276 0.18298,0.45292c0.12977,-0.39739 0.14461,-0.48232 0.05279,-0.53369c-0.09774,-0.01732 -0.16235,0.0062 -0.2358,0.08077zM196.76772,272.0493c-0.27908,0.2132 -0.3146,0.41711 -0.2809,0.68587c0.30926,-0.15532 0.19435,-0.42095 0.2809,-0.68587zM204.00699,272.72152c-0.25656,0.19969 -0.28917,0.38663 -0.28564,0.59746c-0.00298,0.017 0.03316,0.04092 0.07226,0.04785c0.05865,0.01043 0.10368,-0.01663 0.10959,-0.0506c0.04922,-0.16642 0.0593,-0.3398 0.10376,-0.59468zM203.51376,275.08648c0.03197,0.16332 0.02187,0.33673 0.19659,0.49033c0.0883,-0.15951 0.09542,-0.3159 0.09961,-0.45529c-0.1084,-0.07181 -0.18953,-0.06868 -0.2962,-0.03506zM204.44968,271.8016c-0.11018,-0.17724 -0.07756,-0.36414 -0.2612,-0.46682c-0.10014,0.22746 -0.10014,0.22746 0.07337,0.50353c0.04207,-0.01005 0.08413,-0.02011 0.18781,-0.03673zM201.47366,278.00005c0.28257,-0.00239 0.44611,-0.13101 0.59306,-0.2801c-0.04085,-0.11234 -0.11908,-0.12626 -0.18659,-0.0857c-0.12143,0.11859 -0.26248,0.2337 -0.40643,0.36579zM202.49499,269.72026c0.12029,0.00384 0.22098,0.00421 0.29738,-0.08732c-0.06336,-0.09882 -0.12673,-0.19771 -0.24103,-0.23549c-0.10071,-0.00038 -0.16528,0.02323 -0.21628,0.08425c0.02429,0.09188 0.07405,0.15329 0.15994,0.2386zM198.95389,275.34546c0.08237,-0.1255 0.13929,-0.22055 0.11795,-0.32943c-0.0136,-0.03747 -0.04974,-0.0614 -0.0859,-0.08533c-0.05865,-0.01043 -0.14279,0.00967 -0.13214,0.0641c-0.0178,0.10197 -0.03855,0.22091 0.10009,0.35064zM199.35424,268.19912c-0.16706,-0.08222 -0.33828,-0.02502 -0.5006,-0.01878c0.19605,0.26255 0.23516,0.26947 0.5006,0.01878zM193.34485,271.91449c0.12267,-0.241 0.12267,-0.24098 -0.0355,-0.37419c-0.05691,0.095 -0.11674,0.20703 0.0355,0.37419zM200.22637,275.09837c-0.06935,-0.06487 -0.12797,-0.07527 -0.15342,-0.04477c-0.12143,0.11859 -0.11081,0.17303 0.03848,0.3572c0.07941,-0.1085 0.09722,-0.21048 0.115,-0.31245zM204.80431,273.00327c-0.11256,0.06764 -0.20557,0.1387 -0.18726,0.26454c0.32167,0.00454 0.34714,-0.02591 0.18726,-0.26454zM193.0381,271.24693c-0.13807,0.09814 -0.18134,0.23056 -0.22161,0.34601c-0.01187,0.06795 0.0379,0.12937 0.16707,0.08224c0.04027,-0.11546 0.08358,-0.24794 0.05457,-0.42826zM203.90893,270.7421c-0.06874,0.16298 -0.02495,0.25835 0.12555,0.32011c0,0 0.04207,-0.01005 0.04501,-0.02705c0.03732,-0.09848 -0.06806,-0.18727 -0.17057,-0.2931zM197.66776,274.97694c0.1232,-0.01317 0.1742,-0.07418 0.16649,-0.14561c0.00593,-0.03397 -0.02725,-0.07491 -0.06336,-0.09885c-0.03615,-0.02393 -0.10069,-0.00038 -0.10661,0.03362c-0.02845,0.04751 -0.0403,0.11545 0.0035,0.21084zM201.89802,268.98365c0.05744,0.13285 0.12674,0.1977 0.295,0.15747c-0.07405,-0.15328 -0.14629,-0.20117 -0.295,-0.15747z" fill="url(#color-10)"/><path d="M196.3897,280.91626c0.6226,0.12808 1.24525,0.25617 1.87084,0.36723c0.7038,0.12497 1.4194,0.18196 2.13032,0.15052c0.22392,-0.0128 0.41467,-0.06649 0.66111,-0.09281c-0.04743,0.2719 -0.06936,0.5132 -0.13043,0.74761c-0.32723,1.41341 -0.55969,2.86113 -0.85077,4.29848c-0.26443,1.2844 -0.50628,2.55531 -0.75115,3.84321c-0.1737,0.8801 -0.34447,1.74319 -0.51819,2.62326c-0.16482,0.82913 -0.28755,1.64816 -0.45234,2.47729c-0.01187,0.06797 -0.02373,0.13595 -0.05513,0.20043c-0.30628,0.13833 -0.61438,0.17118 -0.95855,0.18017c-0.54564,0.00823 -1.10487,-0.021 -1.64926,-0.13518c-0.17596,-0.03121 -0.35486,-0.04548 -0.4964,-0.15823c0.1819,-0.00275 0.36846,0.08292 0.59833,0.03617c-0.08937,-0.29614 0.01964,-0.57459 0.04753,-0.84995c0.00298,-0.017 0.00593,-0.03396 -0.01359,-0.03746c-0.07633,-0.48653 0.00966,-0.9793 -0.00509,-1.47243c-0.00944,-0.17685 -0.07756,-0.36413 -0.00884,-0.52709c0.09842,-0.33288 -0.02124,-0.68697 0.07717,-1.0199c0.00298,-0.017 -0.01066,-0.05444 -0.00471,-0.08844c-0.00233,-0.33322 -0.02712,-0.65297 0.00964,-0.97928c0.06522,-0.3738 -0.03188,-0.74144 0.07243,-1.10829c-0.07875,-0.24171 -0.00109,-0.45566 0.02086,-0.697c0.00593,-0.03397 0.00888,-0.051 0.01483,-0.08495c-0.0971,-0.36761 0.04333,-0.71053 0.02445,-1.06427c-0.01891,-0.35371 0.08245,-0.70359 0.08308,-1.05383c0.00955,-0.40124 -0.04256,-0.79584 0.08728,-1.19324c0.00593,-0.03397 0.01484,-0.08497 0.00121,-0.12242c-0.08473,-0.20774 0.00955,-0.40122 0.02559,-0.60859c0.0178,-0.10197 0.05808,-0.2174 0.03678,-0.3263c-0.05148,-0.1668 -0.00824,-0.29926 0.01844,-0.45221c0.01483,-0.08497 0.04921,-0.16647 0.02194,-0.24134c-0.07875,-0.24171 0.00184,-0.47265 0.04038,-0.69352c0.01483,-0.08497 0.04918,-0.16642 0.02196,-0.24135c-0.0651,-0.20425 -0.01297,-0.3877 0.01967,-0.57461c0.05336,-0.30588 -0.03011,-0.63599 0.0428,-0.93835c0.02843,-0.04751 -0.02128,-0.10888 -0.03198,-0.16333z" fill="#87d7dc"/><path d="M196.3897,280.91629c0.01065,0.05443 0.06043,0.11583 0.05152,0.16681c-0.07289,0.30238 -0.00899,0.62905 -0.04279,0.93836c-0.03263,0.18691 -0.08479,0.37036 -0.01966,0.5746c0.02724,0.07492 -0.00713,0.15641 -0.02193,0.24134c-0.03851,0.22089 -0.09963,0.45529 -0.04043,0.69354c0.02725,0.07491 -0.02667,0.15295 -0.02193,0.24135c-0.02668,0.15291 -0.05041,0.28887 -0.01844,0.45221c0.02131,0.10887 -0.01901,0.22439 -0.03679,0.32633c-0.01601,0.20735 -0.11023,0.40087 -0.02556,0.60859c0.0136,0.03747 0.00472,0.08843 -0.00119,0.12241c-0.12683,0.3804 -0.07773,0.79205 -0.08725,1.19325c-0.00362,0.36727 -0.10497,0.7171 -0.08313,1.05384c0.01892,0.35369 -0.12154,0.69665 -0.02444,1.06425c0.01655,0.02046 -0.00892,0.05099 -0.01485,0.08498c-0.03851,0.22089 -0.09958,0.45529 -0.02083,0.69703c-0.12388,0.36341 -0.02675,0.73101 -0.07246,1.10829c-0.05634,0.32283 -0.01194,0.64603 -0.00965,0.97929c-0.00593,0.03397 0.01069,0.05448 0.00474,0.08844c-0.09842,0.33288 0.02124,0.68696 -0.07716,1.01989c-0.05214,0.18343 0.0189,0.35372 0.00883,0.52709c-0.00481,0.48964 -0.07123,0.98589 0.00509,1.47241c-0.00298,0.017 0.01364,0.03747 0.01364,0.03747c-0.02787,0.27536 -0.13694,0.55381 -0.04752,0.84995c-0.2103,0.05025 -0.39396,-0.05245 -0.59834,-0.03618c-0.15637,-0.02775 -0.31278,-0.05557 -0.43186,-0.18184c0.0178,-0.10197 0.05808,-0.2174 0.03676,-0.32627c-0.07458,-0.3811 0.00726,-0.73448 0.0304,-1.09827c0.02315,-0.36374 -0.05144,-0.74487 0.07243,-1.10826c-0.07875,-0.24171 -0.00114,-0.45567 0.02083,-0.69702c0.00593,-0.03397 0.01482,-0.08496 0.0012,-0.12242c-0.07107,-0.1703 -0.00231,-0.33322 0.00482,-0.48966c0.01483,-0.08497 0.02962,-0.16993 0.02195,-0.24135c-0.03254,-0.39118 -0.04257,-0.79584 0.02563,-1.18667c0.00893,-0.05098 0.04033,-0.11547 0.00713,-0.15639c-0.06808,-0.18724 -0.01893,-0.35372 0.01072,-0.52363c0.05214,-0.18343 -0.05506,-0.37766 0.00009,-0.57808c0.06699,-0.2684 0.0137,-0.54062 0.02203,-0.81942c0.02612,-0.38077 -0.02891,-0.75839 0.0393,-1.14919c0.01187,-0.06797 0.04624,-0.14947 0.01601,-0.20738c-0.05445,-0.14982 -0.00827,-0.29925 -0.00112,-0.45564c0.02372,-0.13593 0.02788,-0.27532 0.00956,-0.40124c-0.03964,-0.23478 -0.04023,-0.46259 0.00126,-0.7005c0.04271,-0.36028 -0.03189,-0.74143 0.09197,-1.1048c0.00593,-0.03397 -0.00469,-0.08841 0.00122,-0.12243c0.00362,-0.36727 -0.01237,-0.73793 0.0304,-1.09821c0.06522,-0.3738 -0.02595,-0.77541 0.07838,-1.14227c0.00893,-0.05098 -0.02133,-0.10888 -0.03198,-0.16333c-0.00057,-0.22783 0.0214,-0.46919 0.11858,-0.67965c0.10072,0.00038 0.1789,0.01421 0.26008,0.01115c0.26481,0.09958 0.49345,0.1752 0.74465,0.23733z" fill="#b0eef2"/><path d="M205.25687,273.6442c0.00231,0.3332 -0.02262,0.5916 -0.14528,0.83259c-0.18013,0.10816 -0.40404,0.12099 -0.6309,0.15076c-1.1256,0.09795 -2.24825,0.17889 -3.3863,0.11699c-0.85843,-0.04732 -1.7364,-0.09808 -2.59952,-0.23381c-0.23457,-0.04167 -0.48579,-0.10375 -0.72927,-0.09448c-0.10072,-0.00038 -0.21802,-0.02121 -0.33527,-0.04202c-0.45734,-0.15127 -0.93244,-0.2006 -1.39869,-0.30089c-0.66172,-0.13499 -1.31161,-0.33796 -1.95551,-0.57494c-0.32048,-0.12697 -0.64394,-0.23697 -0.98693,-0.3504c-0.26773,-0.0826 -0.48455,-0.22618 -0.70433,-0.35279c-0.08347,-0.33016 -0.08228,-0.45254 0.02798,-0.8534c0.42709,0.09333 0.81987,0.26818 1.24102,0.39553c0.40164,0.12387 0.82281,0.2512 1.22744,0.3581c0.42413,0.11036 0.87085,0.20719 1.29794,0.30053c0.40458,0.10688 0.84654,0.11523 1.24231,0.27312c0.44493,-0.0086 0.86609,0.11876 1.29917,0.17814c0.41351,0.05591 0.84951,0.09827 1.266,0.13719c0.43602,0.04239 0.87498,0.06776 1.33354,0.09666c0.41944,0.02193 0.85544,0.06431 1.27787,0.06921c0.44193,0.00839 0.87026,-0.02064 1.31519,-0.02924c0.46447,-0.00512 0.88685,-0.0002 1.34363,-0.07676z" fill="url(#color-11)"/><path d="M195.66158,280.69944c-0.08116,0.0031 -0.15937,-0.01078 -0.26006,-0.01113c-0.09718,0.21049 -0.13571,0.43134 -0.11859,0.67966c0.01064,0.05444 0.04085,0.11237 0.03197,0.16332c-0.10433,0.36686 -0.03269,0.76502 -0.07837,1.14228c-0.06226,0.35683 -0.02677,0.731 -0.03043,1.09822c-0.00593,0.03397 0.00472,0.08844 -0.00119,0.12241c-0.1239,0.3634 -0.0268,0.73099 -0.092,1.10481c-0.03851,0.22089 -0.04094,0.46573 -0.00126,0.7005c0.01537,0.14283 0.01123,0.28226 -0.00955,0.40123c-0.02668,0.15291 -0.06994,0.28538 0.00113,0.45567c0.03018,0.05789 -0.00419,0.13942 -0.01605,0.20738c-0.06522,0.3738 -0.01312,0.76844 -0.03926,1.14919c-0.00836,0.2788 0.04497,0.55103 -0.02204,0.81942c-0.05214,0.18343 0.05505,0.37765 -0.00009,0.57808c-0.0492,0.16644 -0.10135,0.34986 -0.01076,0.52364c0.01064,0.05444 0.00176,0.10541 -0.00711,0.15637c-0.06819,0.39078 -0.05526,0.77847 -0.02563,1.18666c0.00469,0.08843 -0.02962,0.1699 -0.02196,0.24132c-0.02668,0.15291 -0.07583,0.31937 -0.00478,0.48965c0.0136,0.03747 0.00473,0.08842 -0.0012,0.12239c-0.03851,0.22089 -0.0996,0.4553 -0.02084,0.69703c-0.12388,0.3634 -0.04929,0.74454 -0.07242,1.10826c-0.02315,0.36374 -0.10792,0.73408 -0.0304,1.09821c0.0213,0.10888 -0.01902,0.22436 -0.03677,0.32631c-0.17892,-0.01426 -0.27841,-0.13701 -0.41232,-0.1783c0.02675,-0.73098 0.02806,-1.4315 0.0489,-2.12849c0.01316,-0.76846 0.04288,-1.51644 0.07555,-2.28141c0.02381,-0.71402 0.02804,-1.4315 0.03231,-2.14898c0.01435,-0.89087 0.00618,-1.76821 0.01755,-2.64209c0.0149,-0.66306 0.02986,-1.32607 0.02517,-1.99257c0.01851,-1.03027 0.11819,-2.06368 0.09758,-3.10086c0.00416,-0.13939 -0.03077,-0.28574 0.05456,-0.42824c0.17596,0.03121 0.34298,0.11346 0.51301,0.17868c0.09183,0.05133 0.27368,0.04858 0.41528,0.16132z" fill="#87d7dc"/><path d="M195.50664,295.91249c0.41646,0.03891 0.80154,0.14231 1.22096,0.16421c0.48105,0.01535 0.96506,0.01367 1.46684,-0.0899c-0.17194,0.98551 -0.34092,1.95402 -0.50693,2.90555c-0.24765,0.14875 -0.51366,0.17155 -0.76308,0.21487c-0.47631,0.0731 -0.93188,0.02723 -1.407,-0.02209c-0.01958,-0.00346 -0.05567,-0.0274 -0.07229,-0.04786c0.19373,-0.07069 0.15879,-0.21704 0.1434,-0.35993c-0.03847,-0.35721 -0.05738,-0.71089 0.02148,-1.04726c0.01187,-0.06797 0.02372,-0.13593 0.016,-0.20735c-0.06097,-0.34368 0.01787,-0.68002 0.01554,-1.01328c-0.00644,-0.19384 -0.02192,-0.33668 -0.13501,-0.49694z" fill="#61afb4"/><path d="M195.76264,278.38751c0.66643,0.22344 1.35361,0.32792 2.02894,0.50038c0.30981,0.07254 0.62855,0.09407 0.94729,0.11564c0.59243,0.07017 1.19249,0.21174 1.79677,0.21389c0.24053,0.00768 0.48104,0.01535 0.70499,0.00258c0.1428,-0.00967 0.28255,-0.0024 0.41944,0.02192c0.01069,0.05442 0.02426,0.0919 0.01833,0.1259c-0.02374,0.13592 -0.0474,0.27185 -0.07111,0.40779c-0.10662,0.03363 -0.19077,0.05369 -0.29443,0.07034c-0.73932,0.07894 -1.49827,0.15442 -2.26072,0.01904c-0.66766,-0.101 -1.3548,-0.20552 -2.01064,-0.37449c-0.52194,-0.12769 -1.04679,-0.23842 -1.52543,-0.49856c0.10365,-0.01666 0.21208,0.05516 0.30804,-0.0329c0.0717,-0.17996 0.16889,-0.39044 -0.06153,-0.57149z" fill="url(#color-12)"/><path d="M196.03317,279.60922c0.33828,0.02504 0.63326,0.18253 0.96263,0.25852c0.70084,0.14195 1.40164,0.28394 2.11135,0.37488c0.57285,0.0667 1.13804,0.0619 1.6896,0.01971c0.1428,-0.00967 0.28552,-0.01937 0.42832,-0.02906c-0.0415,0.23788 -0.07704,0.44181 -0.11561,0.66268c-0.27017,0.16224 -0.57826,0.19509 -0.89993,0.19058c-0.38329,0.00204 -0.78611,0.00055 -1.18007,-0.05187c-0.89157,-0.08826 -1.74584,-0.27497 -2.62261,-0.44814c-0.15638,-0.02776 -0.31281,-0.05554 -0.43482,-0.16479c0.01483,-0.08497 0.04917,-0.16644 0.02194,-0.24134c-0.04854,-0.18379 0.00657,-0.38426 0.03916,-0.57112z" fill="url(#color-13)"/><path d="M195.50663,295.91248c0.09656,0.13979 0.13145,0.28611 0.12137,0.4595c0.00231,0.33322 -0.07654,0.66962 -0.01554,1.01326c0.00769,0.07145 -0.00415,0.13942 -0.01602,0.2074c-0.06223,0.35684 -0.04039,0.69352 -0.02149,1.04725c0.01834,0.1259 0.05033,0.28923 -0.14341,0.35994c-0.29621,-0.03508 -0.56396,-0.11764 -0.80329,-0.24772c-0.01716,-0.24832 -0.05382,-0.50007 0.02675,-0.73101c0.00593,-0.03397 -0.00471,-0.08842 0.0012,-0.12242c0.00063,-0.35022 0.00424,-0.71748 0.02444,-1.06426c0.00713,-0.15639 0.03088,-0.29233 0.01845,-0.45221c-0.026,-0.1973 -0.01001,-0.40471 0.12035,-0.57425c0.10071,0.00038 0.17891,0.01424 0.26006,0.01116c0.13683,0.02431 0.29029,0.06906 0.42711,0.09334z" fill="#87d7dc"/><path d="M197.71175,270.21989c0.19312,0.27953 0.24343,0.56871 0.27418,0.85451c0.00769,0.07144 -0.01012,0.1734 -0.0415,0.23788c-0.24236,0.46499 -0.40656,0.94386 -0.55117,1.42619c-0.00298,0.017 -0.02844,0.04749 -0.05095,0.06104c-0.0871,0.03709 -0.18485,0.01976 -0.2737,-0.04857c0.00593,-0.03397 -0.00773,-0.07146 -0.00177,-0.10544c0.09074,-0.40429 0.12277,-0.81907 0.05412,-1.23416c-0.02306,-0.2143 0.00955,-0.40125 0.14287,-0.58778c0.15585,-0.20005 0.253,-0.41053 0.44796,-0.60368z" fill="#cce5e6"/><path d="M196.09112,272.5773c-0.12618,0.03016 -0.20141,-0.00072 -0.25117,-0.06211c0.10322,-0.82254 0.1032,-0.82253 -0.08508,-1.5917c0.0895,-0.28193 0.27673,-0.54647 0.42195,-0.80096c0.1428,-0.00967 0.14451,0.09572 0.17472,0.15365c0.10424,0.21119 0.21143,0.40544 0.2736,0.62669c0.03494,0.14638 0.03368,0.26877 -0.02908,0.39772c-0.19143,0.40399 -0.36622,0.82839 -0.50494,1.27672z" fill="#cce5e6"/><path d="M195.05998,295.81566c-0.08117,0.00309 -0.15939,-0.01079 -0.26006,-0.01115c-0.13037,0.16954 -0.14638,0.37691 -0.12035,0.57426c0.01243,0.15989 -0.01128,0.29579 -0.01846,0.45222c-0.02018,0.34678 -0.0238,0.714 -0.02445,1.06425c-0.00593,0.03397 0.00473,0.08844 -0.00121,0.12242c-0.06401,0.25139 -0.02438,0.48616 -0.0268,0.73098c-0.15046,-0.06173 -0.28139,-0.12005 -0.42,-0.24978c0.02437,-0.48617 0.01258,-0.99632 0.05944,-1.49602c0.02437,-0.48617 -0.02946,-0.98622 0.05945,-1.49598c0.3098,0.07253 0.53255,0.18214 0.75233,0.30872z" fill="#60adb2"/><path d="M200.60672,275.11335c0.08116,-0.0031 0.14281,-0.00967 0.22394,-0.01279c0.03319,0.04093 0.04973,0.06139 0.06632,0.08183c0.02781,0.30274 0.11723,0.59891 0.22615,0.89851c0.0379,0.12935 0.03967,0.2348 -0.03974,0.34331c-0.13926,0.22053 -0.24234,0.46498 -0.53208,0.62376c-0.19603,-0.26255 -0.28548,-0.5587 -0.3553,-0.8514c-0.01069,-0.05442 0.02376,-0.13592 0.05512,-0.20041c0.11197,-0.29541 0.22403,-0.59091 0.3556,-0.88286z" fill="#cce5e6"/><path d="M201.63048,270.86308c0.04857,0.18378 0.0894,0.29617 0.12728,0.42555c0.0592,0.23826 0.04318,0.4456 -0.11561,0.66268c-0.24711,0.37653 -0.43848,0.78056 -0.5126,1.20531c-0.02373,0.13592 -0.04623,0.14943 -0.27787,0.09083c0.0089,-0.05098 -0.00178,-0.10542 0.00714,-0.15642c0.09366,-0.42133 0.10617,-0.83951 0.06002,-1.26815c-0.00173,-0.10542 -0.00648,-0.19385 0.0474,-0.2719c0.20086,-0.22713 0.36264,-0.46113 0.66424,-0.68786z" fill="#cae2e3"/><path d="M198.39495,273.00391c-0.01655,-0.02045 -0.03023,-0.05796 -0.02724,-0.07492c0.10727,-0.38384 0.0943,-0.77155 0.05883,-1.14575c-0.01892,-0.35369 0.03741,-0.67658 0.28925,-0.96466c0.12444,-0.13556 0.17656,-0.319 0.33716,-0.43062c0.25055,0.41235 0.25757,0.83404 0.0555,1.18355c-0.23644,0.43101 -0.48945,0.84153 -0.55589,1.33779c-0.02843,0.04751 -0.04033,0.11545 -0.1576,0.09466z" fill="#c9e1e2"/><path d="M200.25911,270.63713c0.14806,0.30657 0.18476,0.55832 0.21847,0.82708c0.00469,0.08843 -0.01012,0.17338 -0.06106,0.23441c-0.25897,0.44453 -0.48177,0.91296 -0.66551,1.38835c-0.00593,0.03397 -0.03435,0.08148 -0.12915,0.04712c0.02075,-0.11893 0.04447,-0.25485 0.04569,-0.37727c0.03975,-0.34329 0.05993,-0.69006 -0.00106,-1.03373c-0.03672,-0.25177 0.0214,-0.46918 0.19382,-0.64877c0.12444,-0.13556 0.24586,-0.25416 0.39876,-0.43723z" fill="#c9e1e2"/><path d="M201.86796,275.16212c0.13215,-0.06412 0.22989,-0.04676 0.32762,-0.02941c0.01657,0.02044 0.03023,0.05793 0.04677,0.07838c-0.00834,0.27881 0.0645,0.55451 0.20193,0.80662c0.07402,0.15329 0.06985,0.29269 -0.01548,0.4352c-0.11078,0.17302 -0.205,0.36651 -0.35195,0.51562c-0.18834,-0.1911 -0.39511,-0.50812 -0.41046,-0.65098c-0.02429,-0.09188 0.02666,-0.15292 0.06107,-0.23441c0.03086,-0.29231 0.1624,-0.58432 0.14055,-0.92099z" fill="#cae3e4"/><path d="M194.98653,275.09647c0.2429,-0.23714 0.42722,-0.48469 0.59492,-0.75274c0.12318,-0.01316 0.20146,0.00072 0.29029,0.06904c0.04439,0.32317 -0.057,0.67307 0.00694,0.99975c-0.13038,0.16953 -0.30453,0.24374 -0.46508,0.35539c-0.09002,0.05408 -0.16348,0.1286 -0.30332,0.12132c-0.11785,-0.24867 -0.05086,-0.51705 -0.12369,-0.79275z" fill="#c8e0e1"/><path d="M198.25372,274.85326c0.17296,0.04822 0.18066,0.11967 0.18835,0.19109c0.03375,0.26878 0.07042,0.52051 0.08461,0.78579c0.0077,0.07145 -0.00416,0.13941 -0.0551,0.20045c-0.16946,0.16258 -0.35846,0.32172 -0.56404,0.46043c-0.07992,-0.1193 -0.08172,-0.22474 -0.12257,-0.33711c-0.12255,-0.33708 -0.09173,-0.6294 0.20982,-0.85616c0.14103,-0.11511 0.20977,-0.27808 0.25894,-0.44453z" fill="#cbe4e5"/><path d="M197.02213,274.63458c0.09774,0.01732 0.15638,0.02774 0.21504,0.03815c0.0136,0.03747 0.04973,0.06141 0.04678,0.07837c0.00644,0.19384 -0.00657,0.38425 -0.00007,0.57808c0.00173,0.10544 -0.03263,0.18692 -0.1061,0.26145c-0.2204,0.22363 -0.45744,0.4268 -0.75307,0.61958c-0.11018,-0.17722 -0.10303,-0.33359 -0.0959,-0.48998c0.01188,-0.06794 0.02375,-0.13594 0.07167,-0.17995c0.30158,-0.22674 0.47818,-0.54575 0.62161,-0.90569z" fill="#c8e0e1"/><path d="M196.03318,279.60921c-0.03263,0.18691 -0.08775,0.38736 -0.02259,0.59162c0.02725,0.07491 -0.00716,0.15636 -0.02196,0.24133c-0.33528,-0.04203 -0.6392,-0.14853 -0.91168,-0.31956c0.08061,-0.23094 0.04392,-0.48268 0.04039,-0.69351c0.15166,-0.06066 0.27963,0.01462 0.40282,0.00145c0.17892,0.01426 0.37145,0.06597 0.51302,0.17867z" fill="#85d5d9"/><path d="M202.97092,271.95951c-0.14223,0.23752 -0.2844,0.47504 -0.41006,0.73301c-0.10015,0.22747 0.00881,0.52709 -0.32892,0.72989c0.10077,-0.57769 0.05288,-1.11176 0.00499,-1.6458c0.13038,-0.16953 0.28322,-0.35263 0.50543,-0.47082c0.03319,0.04093 0.04975,0.0614 0.06633,0.08182c0.0681,0.18725 0.11667,0.37108 0.16224,0.57182z" fill="#c6dede"/><path d="M197.50914,269.76348c-0.18726,0.26458 -0.34898,0.49858 -0.53624,0.76317c-0.13858,-0.12971 -0.17354,-0.27607 -0.25349,-0.39536c-0.07702,-0.13627 -0.19605,-0.26257 -0.22801,-0.42587c0.02075,-0.11893 0.11673,-0.20701 0.19314,-0.29853c0.07642,-0.09153 0.17244,-0.17958 0.28796,-0.26421c0.2559,0.15054 0.3767,0.38222 0.53664,0.62085z" fill="#cae3e3"/><path d="M194.83406,272.38914c-0.04792,-0.53405 -0.11066,-0.98314 -0.29365,-1.43603c0.11677,-0.20702 0.21393,-0.41747 0.33365,-0.64147c0.23044,0.18106 0.29261,0.40232 0.39681,0.61348c0.0136,0.03747 0.00471,0.08845 -0.00123,0.1224c-0.13276,0.41435 -0.26551,0.82877 -0.43559,1.34158z" fill="#cae3e4"/><path d="M199.19775,276.72009c-0.14806,-0.30657 -0.26,-0.58922 -0.02475,-0.89779c0.15881,-0.21708 0.22284,-0.46848 0.28684,-0.71986c0.0178,-0.10196 0.11847,-0.1016 0.22988,-0.04678c-0.0865,0.26492 -0.03326,0.53718 0.02004,0.80941c0.04559,0.20078 -0.02016,0.34676 -0.14461,0.48235c-0.10192,0.12203 -0.16772,0.26802 -0.3674,0.37272z" fill="#c8e0e1"/><path d="M195.76264,278.38749c0.22746,0.19805 0.13321,0.39151 0.07808,0.59195c-0.09597,0.08804 -0.20733,0.03327 -0.30803,0.03291c-0.25116,-0.0621 -0.4739,-0.17175 -0.69073,-0.31537c0.05214,-0.18343 0.00659,-0.38421 0.13396,-0.53678c0.10072,0.00038 0.15938,0.01078 0.23755,0.02466c0.18958,0.06869 0.37914,0.13735 0.54915,0.20261z" fill="url(#color-14)"/><path d="M197.32767,276.00263c0.07282,0.2757 0.11249,0.51046 0.17171,0.74873c-0.20857,0.15565 -0.43366,0.29088 -0.67247,0.3886c-0.13094,-0.05828 -0.15222,-0.16717 -0.19901,-0.24554c-0.04679,-0.07838 -0.09357,-0.15674 -0.05326,-0.27222c0.192,-0.17611 0.44851,-0.37581 0.75304,-0.61958z" fill="#c7dfe0"/><path d="M200.25156,277.3802c-0.16652,0.14563 -0.31344,0.29467 -0.53561,0.41293c-0.20793,-0.19456 -0.27008,-0.41581 -0.36838,-0.66101c0.17241,-0.17959 0.34482,-0.35921 0.52025,-0.55582c0.15397,0.27259 0.25229,0.51783 0.38376,0.80391z" fill="#c8e0e1"/><path d="M198.54242,269.38633c0.13268,0.16373 0.26532,0.32741 0.33048,0.53167c-0.15881,0.21708 -0.33716,0.43063 -0.51846,0.6612c-0.03907,-0.00694 -0.07817,-0.01389 -0.07521,-0.03089c-0.09061,-0.17377 -0.17825,-0.36447 -0.24932,-0.53475c-0.02724,-0.07492 -0.03495,-0.14637 0.01302,-0.19039c0.15288,-0.18306 0.2471,-0.37655 0.4995,-0.43688z" fill="#c4dcdd"/><path d="M201.44162,270.44419c-0.19493,0.19312 -0.37032,0.3897 -0.56528,0.58284c-0.14748,-0.07876 -0.12375,-0.21466 -0.16463,-0.32705c-0.04085,-0.11234 -0.05923,-0.23826 -0.09712,-0.3676c0.13332,-0.18654 0.35256,-0.2877 0.53861,-0.4299c0.19426,0.1571 0.24283,0.34093 0.28839,0.54171z" fill="#c8e0e1"/><path d="M200.81365,277.39241c0.17837,-0.21356 0.33422,-0.41367 0.51553,-0.64421c0.1718,0.17062 0.2369,0.37492 0.38915,0.5421c-0.11973,0.22398 -0.34189,0.34222 -0.53387,0.51832c-0.1777,-0.13665 -0.31928,-0.24939 -0.37077,-0.41619z" fill="#c6ddde"/><path d="M203.12744,275.10548c0.14511,0.32358 0.18654,0.66375 0.3962,0.96376c-0.0942,0.1935 -0.16595,0.37347 -0.33539,0.53607c-0.21383,-0.1606 -0.32403,-0.33783 -0.24044,-0.58573c0.112,-0.29541 0.12627,-0.60822 0.17963,-0.91408z" fill="#b9cfd0"/><path d="M193.78084,271.95688c-0.1084,-0.07181 -0.03497,-0.14637 -0.04263,-0.21777c-0.01241,-0.15988 -0.0053,-0.31623 -0.10483,-0.43905c-0.12379,-0.21468 -0.07166,-0.3981 0.00305,-0.59507c0.0344,-0.08149 0.08829,-0.15952 0.14814,-0.27151c0.22156,0.23203 0.38738,0.43668 0.25287,0.74561c-0.09717,0.21049 -0.11916,0.45185 -0.17723,0.66925c-0.00892,0.05097 -0.01778,0.10195 -0.0794,0.10853z" fill="#c0d8d8"/><path d="M194.01619,275.34459c-0.07107,-0.1703 -0.08644,-0.31315 -0.06274,-0.44908c0.01188,-0.06794 0.02665,-0.15295 0.07465,-0.19696c0.2145,-0.18965 0.37328,-0.40671 0.5321,-0.62377c0.13683,0.02432 0.10543,0.08878 0.09655,0.13979c-0.02965,0.16991 -0.06223,0.35684 -0.05279,0.53369c0.00056,0.22783 -0.08477,0.37034 -0.30102,0.45459c-0.10663,0.03363 -0.17419,0.07418 -0.28672,0.14176z" fill="#c1d9d9"/><path d="M198.8422,277.02484c-0.14987,0.16605 -0.33005,0.27423 -0.51607,0.41637c-0.19724,-0.14012 -0.22325,-0.33743 -0.31391,-0.5112c0.17539,-0.1966 0.41709,-0.31134 0.64521,-0.46353c0.1072,0.19422 0.13621,0.37456 0.18477,0.55836z" fill="#c3dbdc"/><path d="M199.59785,270.72996c-0.07582,-0.25872 -0.135,-0.49699 -0.21375,-0.7387c0.10486,-0.13907 0.2068,-0.26108 0.40052,-0.33181c0.15223,0.16719 0.22031,0.35444 0.30801,0.54519c-0.11677,0.20701 -0.26661,0.37307 -0.49472,0.52526z" fill="#c3dadb"/><path d="M196.96596,277.49752c0.22219,-0.11822 0.42184,-0.22289 0.62148,-0.32759c0.17474,0.15365 0.24284,0.34092 0.31094,0.52817c-0.16352,0.12863 -0.34064,0.21981 -0.55392,0.287c-0.05271,-0.0444 -0.12201,-0.10928 -0.15519,-0.15016c-0.07995,-0.1193 -0.12378,-0.21467 -0.22329,-0.33747z" fill="#c4dbdc"/><path d="M193.6651,273.77572c-0.05634,0.32286 -0.10083,0.57775 -0.14819,0.8496c-0.1185,0.1016 -0.25064,0.1657 -0.43545,0.18542c-0.10243,-0.10578 -0.04261,-0.21778 -0.06391,-0.32668c-0.02131,-0.10887 -0.02306,-0.2143 -0.00828,-0.29928c0.22517,-0.13525 0.40527,-0.2434 0.65588,-0.40909z" fill="#c2d9da"/><path d="M197.28306,268.86493c0.10192,-0.12203 0.21742,-0.20666 0.34659,-0.25377c0.15936,0.01079 0.21976,0.12667 0.30861,0.19494c0.08885,0.06829 0.20317,0.10613 0.24105,0.23549c-0.06874,0.16298 -0.23228,0.29159 -0.40172,0.45425c-0.08295,-0.10233 -0.16588,-0.20465 -0.25174,-0.28997c-0.07992,-0.1193 -0.15993,-0.23859 -0.24286,-0.34093z" fill="#c5ddde"/><path d="M199.35276,278.02644c-0.12741,0.15258 -0.29269,0.17579 -0.42777,0.25691c-0.20021,-0.12316 -0.31039,-0.30038 -0.43717,-0.49805c0.16054,-0.11164 0.32115,-0.22327 0.46218,-0.33839c0.21381,0.1606 0.27603,0.38188 0.40276,0.57953z" fill="#c3dbdc"/><path d="M195.49664,270.43972c-0.06935,-0.06487 -0.10249,-0.10575 -0.13567,-0.14666c-0.06336,-0.09882 -0.1238,-0.21468 -0.20374,-0.33399c0.17837,-0.21356 0.29805,-0.43758 0.54572,-0.58632c0.13094,0.05828 0.17477,0.15365 0.2322,0.28648c-0.12267,0.24098 -0.27083,0.51246 -0.43848,0.78054z" fill="#c7dfe0"/><path d="M196.02715,276.52502c-0.2192,0.10122 -0.36614,0.25028 -0.59601,0.29706c-0.15814,-0.13322 -0.14511,-0.32355 -0.26415,-0.44981c0.21451,-0.18964 0.43368,-0.29089 0.65883,-0.42609c0.16883,0.18766 0.13621,0.37453 0.20137,0.57881z" fill="#c7dee0"/><path d="M195.52322,279.41355c-0.1232,0.01317 -0.25116,-0.06213 -0.40282,-0.00144c0.00056,0.22783 0.01769,0.47611 -0.04039,0.69352c-0.07525,-0.03087 -0.17002,-0.06524 -0.24228,-0.11306c-0.1084,-0.07181 -0.17175,-0.17064 -0.15103,-0.28962c0.01601,-0.20735 0.02906,-0.39772 0.04512,-0.60513c0.25416,0.04512 0.36848,0.08294 0.79144,0.31571z" fill="#61acb1"/><path d="M202.67965,270.85669c-0.16652,0.14563 -0.30748,0.26069 -0.49355,0.40286c-0.07876,-0.24171 -0.16047,-0.46641 -0.21969,-0.70467c0.12142,-0.11858 0.23998,-0.22016 0.39459,-0.29782c0.16881,0.18764 0.2369,0.37489 0.31863,0.59961z" fill="#c2dada"/><path d="M194.04868,275.73576c0.16652,-0.14563 0.34068,-0.21979 0.54038,-0.32447c0.03672,0.25177 0.07932,0.46956 0.12194,0.68737c-0.10486,0.13906 -0.25062,0.16571 -0.42184,0.22289c-0.1552,-0.15016 -0.18125,-0.34753 -0.24044,-0.58573z" fill="#c1d9d9"/><path d="M200.46173,269.93735c-0.14629,-0.20118 -0.23986,-0.35791 -0.35299,-0.51816c0.0883,-0.15951 0.26544,-0.25067 0.44261,-0.34184c0.1611,0.1162 0.2997,0.24591 0.38737,0.43668c-0.09422,0.19349 -0.30458,0.24374 -0.47696,0.42336z" fill="#c6dedf"/><path d="M200.83791,278.0624c-0.1635,0.12863 -0.34366,0.23679 -0.5042,0.34843c-0.17296,-0.04822 -0.27841,-0.13701 -0.37498,-0.27681c0.11677,-0.20701 0.35256,-0.28772 0.52201,-0.45037c0.16411,0.09919 0.24105,0.23549 0.35718,0.37873z" fill="#c0d7d7"/><path d="M194.65087,269.97417c-0.11079,0.17302 -0.16595,0.37343 -0.37151,0.51215c-0.09656,-0.13979 -0.19605,-0.26259 -0.29555,-0.38534c0.0356,-0.20388 0.16297,-0.35644 0.34308,-0.46459c0.14749,0.07875 0.2304,0.18105 0.32401,0.33778z" fill="#c3dadb"/><path d="M195.23302,278.18835c-0.0782,-0.0139 -0.15938,-0.01077 -0.23759,-0.02464c-0.12741,0.15259 -0.08183,0.35333 -0.13396,0.53678c-0.13981,-0.00731 -0.20023,-0.12316 -0.33408,-0.16443c-0.03966,-0.23477 0.05454,-0.42827 -0.04375,-0.67345c0.19844,0.01774 0.30683,0.0895 0.43483,0.16479c0.09184,0.05132 0.23461,0.04169 0.31453,0.16096z" fill="url(#color-15)"/><path d="M204.10545,276.663c-0.11079,0.17302 -0.16596,0.37347 -0.34901,0.49862c-0.13094,-0.05828 -0.19728,-0.14016 -0.2968,-0.2629c0.07172,-0.17998 0.18252,-0.353 0.32649,-0.48511c0.13094,0.05829 0.20023,0.12316 0.31927,0.24939z" fill="#bdd3d4"/><path d="M197.68037,278.25498c0.15466,-0.07765 0.28973,-0.15876 0.42478,-0.23988c0.16111,0.11621 0.25768,0.25597 0.35126,0.41271c-0.08237,0.1255 -0.22517,0.13525 -0.36199,0.11093c-0.17595,-0.0312 -0.35187,-0.06245 -0.41406,-0.28373z" fill="#bdd4d5"/><path d="M203.88682,272.13963c-0.13333,0.18653 -0.2637,0.35611 -0.39698,0.54262c-0.13326,-0.3915 -0.17463,-0.73172 0.26674,-0.95115c0.10243,0.10578 0.09829,0.2452 0.13025,0.40851z" fill="#bbd2d3"/><path d="M195.93044,277.5414c-0.14451,-0.09575 -0.20495,-0.21158 -0.26532,-0.32743c0.02075,-0.11893 0.12446,-0.13557 0.21451,-0.18963c0.06753,-0.04056 0.13802,-0.0981 0.25831,-0.09425c0.14451,0.09575 0.1149,0.26562 0.25647,0.37835c-0.14397,0.13212 -0.29563,0.19277 -0.46387,0.23299z" fill="#c3dadb"/><path d="M198.85641,273.01576c0.09251,-0.2989 0.18492,-0.5978 0.3556,-0.88282c0.11431,0.03783 0.11909,0.12627 0.10422,0.2112c-0.019,0.22436 -0.05751,0.44521 -0.09309,0.64912c-0.02668,0.15291 -0.14993,0.1661 -0.36671,0.02248z" fill="#b1c6c7"/><path d="M201.94629,278.29422c0.06278,-0.12898 0.189,-0.15915 0.28201,-0.2302c0.16651,-0.14563 0.34541,-0.13138 0.56521,-0.00473c-0.15881,0.21706 -0.4201,0.32831 -0.63927,0.42954c-0.13389,-0.04129 -0.18663,-0.08569 -0.20793,-0.19456z" fill="#bbd2d3"/><path d="M201.50567,273.31096c-0.02187,-0.33673 0.16537,-0.60126 0.33602,-0.88631c0.07581,0.25871 0.03131,0.51358 0.00938,0.75493c-0.00713,0.1564 -0.07171,0.18 -0.34539,0.13137z" fill="#bad1d2"/><path d="M204.11919,275.54434c0.11312,0.16025 0.23218,0.28649 0.34529,0.44668c-0.03438,0.0815 -0.11377,0.19002 -0.17362,0.30201c-0.33707,-0.14744 -0.33409,-0.16442 -0.27603,-0.38188c0.02078,-0.11893 0.06107,-0.23442 0.10434,-0.36687z" fill="#b5cbcc"/><path d="M199.81041,268.47283c0.18659,0.0857 0.2891,0.19146 0.39155,0.29724c-0.08532,0.14253 -0.25359,0.18269 -0.40822,0.26037c-0.12205,-0.10923 -0.22445,-0.21504 -0.34648,-0.32428c0.04622,-0.14945 0.22807,-0.15221 0.3632,-0.23333z" fill="#c0d7d8"/><path d="M202.69236,276.67494c0.11134,0.05483 0.17477,0.15364 0.23518,0.26948c-0.0972,0.21047 -0.26662,0.37311 -0.46928,0.49476c-0.13981,-0.00731 -0.17,-0.06522 -0.19426,-0.1571c0.13625,-0.20354 0.27256,-0.40708 0.4284,-0.60714z" fill="#bdd4d4"/><path d="M202.96464,270.60952c-0.09061,-0.17377 -0.15872,-0.361 -0.24933,-0.53477c0.09303,-0.07107 0.19671,-0.08771 0.31399,-0.06691c0.11133,0.05481 0.13565,0.14668 0.17947,0.24205c0.02724,0.07492 0.05448,0.14982 0.08172,0.22473c-0.07645,0.09155 -0.1665,0.14564 -0.32588,0.13485z" fill="#b6cccc"/><path d="M199.17273,269.58587c-0.11311,-0.16024 -0.20966,-0.3 -0.34237,-0.46371c0.03732,-0.09847 0.11376,-0.19004 0.29862,-0.20977c0.12206,0.10923 0.24108,0.23549 0.37967,0.36519c-0.10192,0.12203 -0.18131,0.23059 -0.33596,0.30823z" fill="#c1d9d9"/><path d="M203.6546,271.27507c-0.10192,0.12203 -0.1979,0.21013 -0.34957,0.27077c-0.11312,-0.16025 -0.12256,-0.33711 -0.1575,-0.48344c0.06278,-0.12898 0.18603,-0.14213 0.29266,-0.17577c0.05568,0.02741 0.09479,0.03434 0.09184,0.05132c0.04082,0.11235 0.0817,0.22471 0.12256,0.33711z" fill="#b7cdce"/><path d="M204.43595,272.92034c-0.12378,-0.2147 -0.09711,-0.36761 -0.10954,-0.52747c-0.02901,-0.18033 0.10015,-0.22747 0.2518,-0.28814c0.11312,0.16025 0.12554,0.3201 0.18002,0.46992c-0.06875,0.16296 -0.27314,0.17924 -0.32233,0.34569z" fill="#b6cccc"/><path d="M203.52105,277.47021c-0.12144,0.11858 -0.21742,0.20664 -0.31638,0.31171c-0.17892,-0.01426 -0.29621,-0.03508 -0.41823,-0.14432c0.14399,-0.13211 0.26841,-0.26767 0.38985,-0.38625c0.18482,-0.01976 0.24522,0.09611 0.35956,0.1339c-0.00593,0.03397 0.00771,0.07146 -0.0148,0.08498z" fill="#c2dada"/><path d="M198.74046,268.59816c-0.07941,0.1085 -0.14693,0.1491 -0.25062,0.16575c-0.12029,-0.00384 -0.18658,-0.0857 -0.27545,-0.154c-0.06934,-0.06486 -0.20318,-0.10615 -0.20198,-0.22856c0.11554,-0.08457 0.24763,-0.14872 0.42954,-0.15147c0.11907,0.12624 0.19902,0.24557 0.29853,0.36834z" fill="#bbd2d3"/><path d="M194.40575,276.69257c0.15165,-0.06066 0.26128,-0.11128 0.39042,-0.15843c0.11612,0.14324 0.17055,0.29307 0.24461,0.44636c-0.09597,0.08805 -0.20559,0.1387 -0.34242,0.11434c-0.03615,-0.02393 -0.07225,-0.04787 -0.08591,-0.08533c-0.06633,-0.08182 -0.12971,-0.18072 -0.20671,-0.317z" fill="#bbd2d3"/><path d="M204.64989,275.62104c-0.20199,-0.22857 -0.202,-0.22857 -0.24931,-0.53476c0.12147,-0.11858 0.28083,-0.10779 0.46565,-0.1275c0.01715,0.24832 -0.11913,0.45183 -0.21632,0.6623z" fill="#adc2c3"/><path d="M196.2213,277.83831c0.09597,-0.08805 0.22517,-0.13521 0.36495,-0.12788c0.11612,0.14324 0.21562,0.26595 0.31211,0.40574c-0.36199,0.11092 -0.38153,0.10747 -0.67711,-0.27784z" fill="#b5cbcc"/><path d="M202.1632,269.88913c-0.11849,0.10162 -0.21154,0.17265 -0.36321,0.2333c-0.14154,-0.1127 -0.17352,-0.27607 -0.26711,-0.43284c0.04801,-0.04403 0.09301,-0.07104 0.13802,-0.09812c0.04503,-0.02705 0.10662,-0.03363 0.17123,-0.0572c0.16705,0.08222 0.24699,0.20151 0.32106,0.35482z" fill="#bbd1d2"/><path d="M193.37213,275.68571c-0.17474,-0.15366 -0.15872,-0.36101 -0.23276,-0.51429c0.09895,-0.10504 0.23877,-0.09777 0.36796,-0.14489c0.10426,0.21118 0.11368,0.38806 0.02241,0.56455c-0.00891,0.05098 -0.09301,0.07108 -0.15757,0.09465z" fill="#b6cccd"/><path d="M195.43462,269.06227c-0.17539,0.1966 -0.36737,0.37271 -0.53978,0.5523c-0.13389,-0.0413 -0.20317,-0.10612 -0.26064,-0.23895c0.22807,-0.15221 0.4562,-0.30439 0.73405,-0.39522c0.03319,0.04095 0.04975,0.0614 0.06634,0.08183z" fill="#acc1c2"/><path d="M200.5099,272.43347c0.02011,0.23131 0.02066,0.45915 -0.05698,0.67306c-0.0344,0.08149 -0.10487,0.13904 -0.2026,0.1217c-0.03906,-0.00694 -0.11134,-0.05482 -0.10839,-0.07182c0.02493,-0.25833 0.20622,-0.48892 0.36798,-0.72296z" fill="#a7bbbb"/><path d="M201.62182,269.17985c-0.0569,0.09502 -0.16352,0.12863 -0.28971,0.15877c-0.11907,-0.12624 -0.23812,-0.2525 -0.35718,-0.37874c0.10192,-0.12203 0.22217,-0.11819 0.359,-0.09391c0.1084,0.07181 0.20793,0.19456 0.28787,0.31391z" fill="#b7cdcd"/><path d="M199.14537,278.63774c0.12741,-0.15259 0.27908,-0.2132 0.45029,-0.27042c0.14749,0.07875 0.25295,0.16754 0.30445,0.33434c-0.25238,0.06028 -0.48401,0.00163 -0.75473,-0.06391z" fill="#b7cece"/><path d="M192.54421,273.96208c-0.10127,-0.22819 0.01546,-0.43519 -0.05266,-0.62245c0.09597,-0.08804 0.17121,-0.05718 0.20145,0.00075c0.07405,0.15329 0.12556,0.32012 0.09588,0.49c-0.02844,0.04751 -0.03142,0.0645 -0.2447,0.13175z" fill="#b4cacb"/><path d="M196.1958,269.32007c-0.10839,-0.07179 -0.15814,-0.13319 -0.18246,-0.22507c0.16651,-0.14563 0.33596,-0.30822 0.63337,-0.39557c-0.03086,0.29231 -0.23645,0.43098 -0.45092,0.62065z" fill="#b2c8c9"/><path d="M195.22194,277.32801c0.12205,0.10923 0.20791,0.19457 0.22921,0.30346c-0.0314,0.0645 -0.09302,0.0711 -0.15465,0.07767c-0.24643,0.02631 -0.32344,-0.11001 -0.39153,-0.29725c0.10365,-0.01666 0.21033,-0.05026 0.31695,-0.08388z" fill="#b5cbcb"/><path d="M202.84515,273.37365c0.01899,-0.22435 0.05158,-0.41124 0.14582,-0.60471c0.10071,0.00039 0.13091,0.05827 0.12203,0.10925c-0.00121,0.12243 0.01714,0.24833 0.01594,0.37072c-0.02373,0.13592 -0.10784,0.156 -0.28377,0.12475z" fill="#91a3a3"/><path d="M195.47569,271.71481c0.10127,0.22819 0.04319,0.44561 0.00759,0.6495c-0.00593,0.03397 -0.05096,0.06104 -0.09303,0.07106c-0.03907,-0.00694 -0.09184,-0.05132 -0.08888,-0.06833c-0.01715,-0.24832 0.06049,-0.46223 0.17427,-0.65226z" fill="#99abac"/><path d="M194.43664,272.12591c-0.14871,0.04368 -0.24644,0.0263 -0.27072,-0.0656c-0.01834,-0.1259 0.05042,-0.28885 0.16712,-0.49585c0.10724,0.19423 0.07459,0.38111 0.10359,0.56142z" fill="#93a5a6"/><path d="M201.07717,278.77054c0.18903,-0.15913 0.36142,-0.33875 0.68961,-0.14034c-0.19201,0.1761 -0.44611,0.131 -0.68961,0.14034z" fill="#9aadad"/><path d="M201.34297,275.62947c-0.03494,-0.14636 -0.06691,-0.30967 -0.10478,-0.43906c0.07349,-0.07453 0.13509,-0.08114 0.24942,-0.04329c0.07108,0.17031 -0.03675,0.32635 -0.04388,0.48272c-0.03907,-0.00694 -0.05865,-0.01043 -0.10074,-0.00037z" fill="#c5dddd"/><path d="M197.94662,272.22356c0.1374,0.25212 0.09883,0.47304 -0.01786,0.68003c-0.00298,0.017 -0.04504,0.02706 -0.08414,0.02011c-0.06162,0.00657 -0.09184,-0.05132 -0.08588,-0.08531c0.01302,-0.19038 0.10729,-0.38388 0.18788,-0.61482z" fill="#aec2c3"/><path d="M193.66888,275.9486c0.11312,0.16025 0.14213,0.34054 0.17408,0.50391c-0.07346,0.07454 -0.14873,0.04367 -0.17598,-0.03123c-0.05745,-0.13285 -0.11784,-0.24867 -0.15275,-0.39501c-0.03319,-0.04095 0.03436,-0.08148 0.15463,-0.07764z" fill="#9caeaf"/><path d="M200.64801,268.63907c-0.16707,-0.08224 -0.27248,-0.17099 -0.39154,-0.29726c0.26599,-0.02285 0.47214,0.06631 0.70672,0.10797c-0.02845,0.04752 -0.0344,0.08149 -0.0569,0.09498c-0.0871,0.03709 -0.1712,0.05719 -0.25827,0.09429z" fill="#a9bebf"/><path d="M196.3183,274.50957c0.1428,-0.00967 0.21798,0.02118 0.28733,0.08608c-0.01013,0.17338 -0.09545,0.31588 -0.32059,0.45111c-0.00352,-0.21086 0.02317,-0.36376 0.03324,-0.53716z" fill="#b9cfd0"/><path d="M202.53082,275.17469c0.07347,-0.07452 0.15465,-0.07762 0.2358,-0.08076c0.09182,0.05135 0.07701,0.13627 -0.05281,0.53368c-0.2168,-0.14359 -0.12557,-0.32011 -0.18299,-0.45295z" fill="#869797"/><path d="M196.76772,272.0493c-0.10608,0.26146 0.02836,0.53059 -0.2809,0.68587c-0.03376,-0.26877 0.02136,-0.46917 0.2809,-0.68587z" fill="#93a4a5"/><path d="M204.00699,272.72152c-0.04447,0.25485 -0.07413,0.42479 -0.10376,0.5947c-0.00593,0.03397 -0.05096,0.06104 -0.10959,0.05059c-0.01958,-0.00346 -0.05568,-0.02741 -0.07229,-0.04787c-0.00356,-0.21083 0.02908,-0.3978 0.28561,-0.59744z" fill="#94a5a6"/><path d="M203.51376,275.08648c0.12916,-0.04711 0.19075,-0.05373 0.27665,0.03159c-0.00416,0.13939 -0.0113,0.2958 -0.09961,0.45531c-0.17472,-0.15368 -0.14508,-0.32354 -0.17707,-0.48687z" fill="#abbfc0"/><path d="M204.44968,271.8016c-0.10366,0.01664 -0.14573,0.02668 -0.18487,0.01973c-0.17354,-0.27606 -0.17352,-0.27604 -0.07337,-0.50349c0.1777,0.13665 0.14808,0.30654 0.2582,0.48377z" fill="#acc0c1"/><path d="M201.47366,278.00005c0.14103,-0.11511 0.26543,-0.25068 0.426,-0.36231c0.06753,-0.04056 0.14574,-0.02664 0.18658,0.0857c-0.16652,0.14563 -0.33002,0.27423 -0.61259,0.27661z" fill="#9fb2b2"/><path d="M202.49499,269.72026c-0.08591,-0.08536 -0.13563,-0.14673 -0.15992,-0.2386c0.05096,-0.06105 0.11553,-0.08461 0.21624,-0.08424c0.11432,0.03784 0.17768,0.13667 0.24105,0.2355c-0.0569,0.09502 -0.17713,0.09117 -0.29737,0.08731z" fill="#aec2c3"/><path d="M198.9539,275.34543c-0.14154,-0.11269 -0.12081,-0.23169 -0.11961,-0.35408c0.00892,-0.05097 0.07345,-0.07451 0.13212,-0.06411c0.03907,0.00694 0.09185,0.05134 0.08589,0.08532c0.04085,0.11234 -0.01603,0.20739 -0.09841,0.33288z" fill="#91a2a3"/><path d="M199.35424,268.19912c-0.26545,0.25068 -0.28793,0.26423 -0.5006,-0.01878c0.16232,-0.00619 0.31399,-0.06688 0.5006,0.01878z" fill="#869696"/><path d="M193.34485,271.91449c-0.15223,-0.16719 -0.0758,-0.25869 -0.0355,-0.37419c0.16109,0.11621 0.16109,0.11621 0.0355,0.37419z" fill="#555f5f"/><path d="M200.22636,275.09838c-0.01482,0.08497 -0.03557,0.20388 -0.11497,0.31244c-0.14926,-0.18417 -0.13739,-0.25212 -0.03849,-0.35718c0.02548,-0.03051 0.08415,-0.02011 0.15342,0.04477z" fill="#93a5a6"/><path d="M204.80431,273.00327c0.15993,0.2386 0.13447,0.26913 -0.18726,0.26454c-0.01834,-0.12592 0.07464,-0.19697 0.18726,-0.26454z" fill="#8b9b9c"/><path d="M193.0381,271.24693c0.02899,0.18033 -0.01427,0.31276 -0.05755,0.44525c-0.12618,0.03016 -0.17891,-0.01428 -0.16704,-0.08223c0.02372,-0.13593 0.06698,-0.26839 0.22455,-0.36301z" fill="#9aacad"/><path d="M203.90893,270.7421c0.10243,0.10578 0.21087,0.17761 0.16761,0.31006c-0.00299,0.017 -0.02546,0.03053 -0.04502,0.02706c-0.17003,-0.06524 -0.19134,-0.17414 -0.12257,-0.33711z" fill="#5f6a6b"/><path d="M197.66776,274.97695c-0.04679,-0.07838 -0.03494,-0.14638 -0.00351,-0.21086c0.02548,-0.03051 0.0705,-0.05756 0.10663,-0.03361c0.03615,0.02393 0.06934,0.06486 0.06335,0.09884c-0.01188,0.06794 -0.04328,0.13245 -0.1665,0.1456z" fill="#636e6f"/><path d="M201.89802,268.98365c0.14574,-0.02665 0.24052,0.00766 0.295,0.15747c-0.16825,0.04019 -0.23756,-0.02463 -0.295,-0.15747z" fill="#4a5354"/></g><g data-paper-data="{&quot;index&quot;:null}" fill="#000000" stroke="#000000" stroke-width="1.2"><path d="M184.93315,291.9747c-0.17446,-1.86702 2.04765,-4.32073 2.73441,-6.47806c0.7394,-2.32267 -0.04408,-4.17623 1.24892,-5.17917c0.90315,-0.70053 2.54074,-0.35358 3.37009,-0.06852c2.01674,0.69312 2.63356,4.45312 1.37772,8.39815c-1.25584,3.94504 -3.90879,6.58124 -5.92551,5.88811c-0.91388,-0.31408 -2.66103,-1.01336 -2.80563,-2.56048z"/><path d="M187.86986,294.96206c-0.21866,-2.60392 2.54088,-7.8289 2.54088,-7.8289c0,0 0.01265,-3.92408 0.04008,-4.00494c1.74679,-5.15291 5.25747,-4.00999 9.22861,-2.64513c1.89001,0.64957 4.56709,2.36838 5.08326,4.34689c0.58542,2.24387 -0.80898,4.61957 -1.73104,7.51602c-1.73506,5.45037 -5.60194,9.26096 -9.63541,7.8747c-1.77551,-0.61023 -5.23433,-1.78082 -5.52639,-5.25864z"/></g></g></g></g></svg>