<svg version="1.1" xmlns="http://www.w3.org/2000/svg" xmlns:xlink="http://www.w3.org/1999/xlink" width="262.1108" height="114.24015" viewBox="0,0,262.1108,114.24015"><defs><linearGradient x1="224.05348" y1="214.08984" x2="242.10088" y2="214.08984" gradientUnits="userSpaceOnUse" id="color-1"><stop offset="0" stop-color="#bebebe"/><stop offset="1" stop-color="#737373"/></linearGradient><linearGradient x1="244.67766" y1="235.21775" x2="277.09583" y2="235.21775" gradientUnits="userSpaceOnUse" id="color-2"><stop offset="0" stop-color="#bebebe"/><stop offset="1" stop-color="#737373"/></linearGradient><linearGradient x1="244.67766" y1="235.21775" x2="277.09583" y2="235.21775" gradientUnits="userSpaceOnUse" id="color-3"><stop offset="0" stop-color="#bebebe"/><stop offset="1" stop-color="#737373"/></linearGradient><linearGradient x1="245.12317" y1="234.90489" x2="273.81516" y2="234.90489" gradientUnits="userSpaceOnUse" id="color-4"><stop offset="0" stop-color="#ffd166"/><stop offset="1" stop-color="#ac880b"/></linearGradient><linearGradient x1="231.89091" y1="225.65093" x2="259.95673" y2="225.65093" gradientUnits="userSpaceOnUse" id="color-5"><stop offset="0" stop-color="#ffd166"/><stop offset="1" stop-color="#ac880b"/></linearGradient><linearGradient x1="231.81399" y1="225.70578" x2="260.46629" y2="225.70578" gradientUnits="userSpaceOnUse" id="color-6"><stop offset="0" stop-color="#ffd166"/><stop offset="1" stop-color="#ac880b"/></linearGradient><linearGradient x1="217.90777" y1="236.44013" x2="245.84506" y2="236.44013" gradientUnits="userSpaceOnUse" id="color-7"><stop offset="0" stop-color="#ffd166"/><stop offset="1" stop-color="#ac880b"/></linearGradient><linearGradient x1="219.14655" y1="244.64292" x2="241.0507" y2="244.64292" gradientUnits="userSpaceOnUse" id="color-8"><stop offset="0" stop-color="#bebebe"/><stop offset="1" stop-color="#737373"/></linearGradient><linearGradient x1="219.14655" y1="244.64292" x2="241.0507" y2="244.64292" gradientUnits="userSpaceOnUse" id="color-9"><stop offset="0" stop-color="#bebebe"/><stop offset="1" stop-color="#737373"/></linearGradient><linearGradient x1="228.19207" y1="216.89566" x2="259.76586" y2="216.89566" gradientUnits="userSpaceOnUse" id="color-10"><stop offset="0" stop-color="#bebebe"/><stop offset="1" stop-color="#737373"/></linearGradient><linearGradient x1="264.49201" y1="214.07763" x2="272.01725" y2="202.57832" gradientUnits="userSpaceOnUse" id="color-11"><stop offset="0" stop-color="#bb951b"/><stop offset="1" stop-color="#d6ad39"/></linearGradient><linearGradient x1="255.73129" y1="208.63925" x2="262.79492" y2="197.8453" gradientUnits="userSpaceOnUse" id="color-12"><stop offset="0" stop-color="#bebebe"/><stop offset="1" stop-color="#737373"/></linearGradient><linearGradient x1="262.38189" y1="209.05201" x2="265.75341" y2="203.9" gradientUnits="userSpaceOnUse" id="color-13"><stop offset="0" stop-color="#bb951b"/><stop offset="1" stop-color="#d6ad39"/></linearGradient><linearGradient x1="263.63001" y1="209.30254" x2="266.51361" y2="204.8961" gradientUnits="userSpaceOnUse" id="color-14"><stop offset="0" stop-color="#bb951b"/><stop offset="1" stop-color="#d6ad39"/></linearGradient><linearGradient x1="261.57286" y1="209.35288" x2="262.15772" y2="208.45914" gradientUnits="userSpaceOnUse" id="color-15"><stop offset="0" stop-color="#bb951b"/><stop offset="1" stop-color="#d6ad39"/></linearGradient><linearGradient x1="261.05072" y1="209.60656" x2="261.62237" y2="208.73302" gradientUnits="userSpaceOnUse" id="color-16"><stop offset="0" stop-color="#bb951b"/><stop offset="1" stop-color="#d6ad39"/></linearGradient></defs><g transform="translate(-123.68071,-151.1306)"><g data-paper-data="{&quot;isPaintingLayer&quot;:true}" stroke-miterlimit="10" stroke-dasharray="" stroke-dashoffset="0" style="mix-blend-mode: normal"><path d="M245.34749,211.17717c0,0 11.77698,1.82089 16.28993,2.8477c3.51344,0.79939 14.31233,3.39849 14.31233,3.39849" fill="none" fill-rule="nonzero" stroke="#000000" stroke-width="6" stroke-linecap="round" stroke-linejoin="miter"/><path d="M242.10088,213.2527c0,2.4641 -3.22379,4.46165 -7.20056,4.46165c-2.11857,0 -5.90563,1.68326 -8.23456,0.47339c-2.04269,-1.06118 -2.79683,-4.98204 -2.57488,-5.64542c0.69236,-2.06928 7.72773,-2.98787 10.08631,-2.98787c3.97676,0 7.92369,1.23416 7.92369,3.69825z" fill="url(#color-1)" fill-rule="nonzero" stroke="#737373" stroke-width="1" stroke-linecap="butt" stroke-linejoin="miter"/><g><g><g stroke-width="1.2"><path d="M258.70785,223.71847c0,0 9.31693,7.88173 10.69853,10.88193c0.94272,2.04714 -3.0297,5.37288 -3.0297,5.37288c0,0 10.05817,-0.12212 10.71013,4.37445c0.03716,0.25635 0.14297,1.5179 -3.99199,2.04649c-3.96044,0.50627 -12.09998,0.2877 -15.0756,0.20017c-1.38203,-0.04065 -3.53979,-0.36608 -5.00535,-1.00853c-1.47557,-0.64686 -1.5335,-1.66748 -1.64639,-2.23855c-0.01498,-0.07578 4.21694,-6.65634 3.90633,-7.51095c-0.15624,-0.42985 -10.59616,-10.89469 -10.59616,-10.89469" fill="url(#color-2)" fill-rule="evenodd" stroke="url(#color-3)" stroke-linecap="round" stroke-linejoin="round"/><path d="M245.16401,228.65482c-0.66816,-4.60824 7.02697,-4.98283 11.05283,-5.09488c1.7506,-0.04873 11.55627,5.25875 15.41974,9.70538c1.01235,1.16515 0.71038,4.13522 0.62347,5.54987c-0.03055,0.49707 -1.05666,-0.14195 -1.05666,-0.14195c0,0 1.12648,0.51746 1.6176,0.98968c0.50691,0.48742 0.99419,1.25915 0.99419,1.25915l-3.01106,-0.57303c0,0 -10.3318,0.10235 -14.04745,1.6898c-3.71565,1.58745 -1.19483,4.21136 -1.19483,4.21136c0,0 -7.71403,-0.22128 -8.69069,-2.0379c-0.24078,-0.44784 0.67084,-1.84284 0.67084,-1.84284c0,0 -0.85514,0.10965 -0.94593,-0.20335c-0.02945,-0.10151 3.68124,-3.50495 5.72372,-5.3053c1.16773,-1.02931 1.1786,-0.92185 1.1786,-0.92185c0,0 -8.2381,-6.62017 -8.33438,-7.28414z" fill="url(#color-4)" fill-rule="nonzero" stroke="#caa551" stroke-linecap="butt" stroke-linejoin="miter"/></g><path d="M231.89101,224.6087c-0.01426,-0.13551 1.73548,0.26401 5.70032,0.31018c5.23064,0.06092 13.24118,-0.21161 15.4937,-0.35105c5.84115,-0.36159 6.82962,-1.32403 6.86744,-0.96482c0.13994,1.32926 -3.16401,3.79151 -9.84624,3.92657c-2.93652,0.05935 -8.94279,0.50448 -12.34402,0.03649c-4.33844,-0.59695 -5.79274,-2.21226 -5.8712,-2.95737z" fill="url(#color-5)" fill-rule="nonzero" stroke="#caa551" stroke-width="1.2" stroke-linecap="butt" stroke-linejoin="miter"/><g fill-rule="nonzero" stroke-linecap="butt" stroke-linejoin="miter"><g fill="none" stroke="none" stroke-width="1" font-family="sans-serif" font-weight="normal" font-size="12" text-anchor="start"/><path d="M231.93291,222.92393c0,0 12.12392,1.65069 17.83059,2.01751c5.70665,0.36681 10.70279,-0.18344 10.70279,-0.18344c0,0 -0.3997,1.28946 -3.3756,2.37279c-2.30353,0.83856 -6.43388,1.59154 -11.33139,1.28841c-4.46175,-0.27616 -9.2903,-1.01599 -11.45976,-2.02067c-3.28825,-1.52281 -2.36663,-3.47458 -2.36663,-3.47458z" fill="url(#color-6)" stroke="#caa551" stroke-width="1.2"/></g><g stroke-width="1.2"><path d="M243.29547,227.04206c0,0 -4.58184,19.17755 -5.41792,19.24085c-2.39937,0.18165 -15.54809,-1.44493 -15.54809,-1.44493l8.45195,-19.28125" data-paper-data="{&quot;index&quot;:null}" fill="#ffab19" fill-rule="evenodd" stroke="#001026" stroke-linecap="round" stroke-linejoin="round"/><path d="M245.32046,226.7329c0,0 0.76411,5.26051 0.44797,7.41074c-0.19391,1.31896 -2.9729,5.8085 -2.9729,5.8085c0,0 1.14692,3.11497 0.69394,3.39794c-0.58201,0.36359 -2.39474,-1.5153 -2.39474,-1.5153c0,0 1.86608,2.15407 1.9165,2.36878c0.35173,1.49809 -1.25347,3.46536 -5.45981,3.65227c-4.6183,0.2052 -12.27475,0.43697 -16.22172,-0.74825c-3.57326,-1.07299 -3.69995,-3.50763 -3.22019,-4.50735c0.3369,-0.70205 2.71519,-1.08028 3.19674,-1.94337c0.3202,-0.5739 -3.55839,2.0346 -2.8574,1.26951c0.20381,-0.22244 3.06543,-3.72556 3.06543,-3.72556c0,0 0.42469,-3.25399 1.2255,-4.45898c3.21572,-4.83877 7.10939,-8.88401 7.10939,-8.88401" data-paper-data="{&quot;index&quot;:null}" fill="url(#color-7)" fill-rule="evenodd" stroke="#caa551" stroke-linecap="round" stroke-linejoin="round"/><path d="M241.04252,245.08726c-0.11577,1.07681 -1.06011,2.3279 -3.10981,2.97756c-2.05732,0.65206 -14.42179,0.39366 -16.33326,-0.40325c-1.81526,-0.7568 -2.55471,-2.15558 -2.44173,-3.20653c0.23196,-2.1576 5.31907,-3.76518 11.36241,-3.59059c6.0433,0.17458 10.75435,2.06521 10.52237,4.22283z" fill="url(#color-8)" fill-rule="nonzero" stroke="url(#color-9)" stroke-linecap="butt" stroke-linejoin="miter"/></g></g><g fill="none" fill-rule="nonzero" stroke="none" stroke-width="1" stroke-linecap="butt" stroke-linejoin="miter" font-family="sans-serif" font-weight="normal" font-size="12" text-anchor="start"/></g><path d="M212.12757,246.2661l23.76805,-29.33098" fill="none" fill-rule="nonzero" stroke="#000000" stroke-width="6" stroke-linecap="round" stroke-linejoin="miter"/><path d="M236.83929,223.55281c0,0 3.66238,-5.90432 3.2014,-7.71528c-0.11275,-0.44294 -3.17419,6.95078 -3.67279,6.52776c-2.37766,-2.01725 -8.17583,-3.67243 -8.17583,-3.67243c0,0 5.77638,-6.77005 9.66786,-9.55313c1.07448,-0.76844 9.09084,-0.07681 9.39048,-0.31142c0.38698,-0.30301 11.26909,1.51242 11.26909,1.51242c0,0 5.01676,2.75785 4.97338,5.90211c-0.00031,0.02234 -8.75581,-0.80047 -8.76064,-0.45021c-0.02895,2.09839 0.86022,7.7594 0.86022,7.7594c0,0 -5.64779,1.17819 -8.45881,1.22526c-3.09887,0.05189 -10.29437,-1.22445 -10.29437,-1.22445z" fill="url(#color-10)" fill-rule="nonzero" stroke="#737373" stroke-width="2.5" stroke-linecap="butt" stroke-linejoin="miter"/><g stroke-linejoin="miter"><g data-paper-data="{&quot;index&quot;:null}" stroke-linecap="butt"><path d="M266.17874,195.70283c-6.31492,11.74139 -22.23279,16.0097 -35.55359,9.53356c-13.32079,-6.47615 -19.00017,-21.24438 -12.68523,-32.98578c6.31492,-11.74139 22.23279,-16.0097 35.55359,-9.53356c13.32079,6.47615 19.00017,21.24438 12.68523,32.98578z" fill="none" fill-rule="nonzero" stroke="#000000" stroke-width="4.5"/><g><g fill-rule="nonzero"><path d="M235.15053,163.29066l0.00704,0.01234" data-paper-data="{&quot;index&quot;:null}" fill="#ffab19" stroke="#000000" stroke-width="5"/><g data-paper-data="{&quot;index&quot;:null}" fill="none" stroke="none" stroke-width="1" font-family="sans-serif" font-weight="normal" font-size="12" text-anchor="start"/></g><path d="M235.15053,163.29066l0.00704,0.01234" data-paper-data="{&quot;index&quot;:null}" fill="#ffab19" fill-rule="nonzero" stroke="#000000" stroke-width="5"/><path d="M241.20931,184.91013" fill="#001026" fill-rule="evenodd" stroke="#000000" stroke-width="5"/><g data-paper-data="{&quot;index&quot;:null}" fill="none" fill-rule="nonzero" stroke="none" stroke-width="1" font-family="sans-serif" font-weight="normal" font-size="12" text-anchor="start"/><g data-paper-data="{&quot;index&quot;:null}" fill="none" fill-rule="nonzero" stroke="none" stroke-width="1" font-family="sans-serif" font-weight="normal" font-size="12" text-anchor="start"/></g></g><path d="M261.25887,171.77942l-40.36953,1.46388l-6.86627,12.11652l-6.62978,-21.85283l51.31155,-10.65467l9.31271,22.63902z" fill="#000000" fill-rule="nonzero" stroke="#191919" stroke-width="3" stroke-linecap="round"/></g><g fill-rule="nonzero" stroke-linecap="butt" stroke-linejoin="miter"><g data-paper-data="{&quot;index&quot;:null}" stroke="none" stroke-width="1"><path d="M261.51982,209.93914c-0.18466,0.1279 -0.32732,0.08021 -0.48247,-0.0052c-0.23229,-0.15442 -0.42479,-0.35309 -0.64375,-0.52233c-0.07841,0.0098 -0.15681,0.01959 -0.22235,0.04087c-1.41474,0.38644 -2.68912,0.15261 -3.92071,-0.30933c-0.25926,-0.09862 -0.53185,-0.18252 -0.73755,-0.36644c-0.03856,-0.03451 -0.10328,-0.06571 -0.15558,-0.05916c-0.28751,0.03593 -0.45469,-0.11351 -0.64799,-0.25971c-0.16757,-0.12318 -0.30862,-0.2759 -0.4629,-0.41387c-0.09,-0.08047 -0.15345,-0.19046 -0.13809,-0.33655c0.01539,-0.14604 -0.04765,-0.28231 -0.09784,-0.40704c-0.36741,-0.67475 -0.60335,-1.41833 -0.72104,-2.21601c-0.05799,-0.45137 -0.02474,-0.901 0.02182,-1.36541c0.13922,-1.367 0.6551,-2.63694 1.44352,-3.82304c0.36061,-0.52986 0.79878,-1.01703 1.28837,-1.4582c0.37051,-0.33454 0.80451,-0.55912 1.23807,-0.75745c1.37953,-0.63101 2.76389,-0.7516 4.12912,-0.48978c0.26011,0.04613 0.50607,0.15949 0.75208,0.27289c0.16841,0.07065 0.33727,0.11507 0.54719,0.03645c0.18378,-0.07534 0.35262,-0.03097 0.50774,0.05446c0.23229,0.15442 0.43802,0.33836 0.64375,0.52233c0.0643,0.0575 0.08919,0.133 0.11404,0.20853c0.06052,0.29379 0.21357,0.51054 0.40605,0.70924c0.42392,0.40564 0.6893,0.93589 0.96798,1.4514c0.10118,0.19703 0.18912,0.40875 0.23764,0.63855c0.17079,0.73862 0.30259,1.46904 0.23774,2.26331c0.19286,0.17244 0.38533,0.37116 0.59109,0.55507c0.07716,0.06898 0.16715,0.14946 0.1389,0.284c-0.01496,0.11977 0.07548,0.17403 0.15263,0.24297c0.50106,0.47459 1.01539,0.93445 1.51645,1.40904c1.1311,1.03795 2.27512,2.08732 3.37967,3.15477c1.07885,1.04447 2.19755,2.0446 3.30293,3.05954c0.18003,0.16094 0.32061,0.33993 0.50063,0.50084c0.87439,0.78173 1.74874,1.56349 2.60985,2.35998c0.15429,0.13795 0.33514,0.2464 0.39689,0.46141c0.0249,0.07552 0.10242,0.11822 0.16672,0.17572c0.64296,0.57479 1.28545,1.17587 1.92838,1.75068c0.02571,0.02299 0.06427,0.0575 0.09,0.08047c0.21904,0.16916 0.22894,0.36448 0.13306,0.65163c-0.3283,0.95824 -0.90177,1.75055 -1.72035,2.377c-0.21119,0.15742 -0.44809,0.29184 -0.69743,0.38853c-0.18379,0.07535 -0.33976,0.04246 -0.48162,-0.05772c-0.42559,-0.30062 -0.86445,-0.58644 -1.3029,-0.89854c-0.30946,-0.22341 -0.60521,-0.48781 -0.95447,-0.6669c-0.76326,-0.38943 -1.38006,-0.96751 -2.10348,-1.40118c-0.40029,-0.25132 -0.8143,-0.46167 -1.20133,-0.72778c-0.41271,-0.2891 -0.83914,-0.5372 -1.2523,-0.79999c-0.74873,-0.48298 -1.48376,-1.00698 -2.24576,-1.47517c-1.02082,-0.59309 -1.98862,-1.24525 -2.95633,-1.89738c-0.3356,-0.22016 -0.67115,-0.4402 -1.00674,-0.66036c-0.51604,-0.3548 -1.04488,-0.72113 -1.56087,-1.07593c-0.28375,-0.20039 -0.58116,-0.35978 -0.86488,-0.56015c-0.3099,-0.19716 -0.55415,-0.41555 -0.86362,-0.63896zM261.67172,209.40916c0.23649,-0.10817 0.44727,-0.23931 0.63274,-0.41971c0.46094,-0.28037 0.84517,-0.65594 1.22938,-1.03154c0.49003,-0.46744 0.94187,-0.99559 1.38047,-1.50903c0.50498,-0.58723 0.84154,-1.24513 1.17854,-1.9293c0.02738,-0.08204 0.05479,-0.16408 0.09588,-0.28712c-0.10285,-0.09198 -0.20576,-0.18391 -0.3086,-0.27588c-0.02571,-0.02299 -0.06471,-0.03123 -0.11656,-0.05094c-0.09296,0.10332 -0.17303,0.21816 -0.24027,0.34449c-0.12074,0.21165 -0.25396,0.3855 -0.37473,0.59712c-0.32119,0.51183 -0.77136,0.93504 -1.13111,1.41238c-0.19957,0.24771 -0.37347,0.51835 -0.59875,0.74305c-0.50329,0.48222 -0.94232,1.02185 -1.49702,1.45804c-0.14524,0.10987 -0.30369,0.23451 -0.44896,0.34438c-0.13028,-0.00994 -0.21076,0.13117 -0.30289,0.18198c-0.11825,0.05408 -0.23651,0.10819 -0.36966,0.28205c0.26011,0.04613 0.38744,0.23986 0.59483,0.31876c0.07927,-0.06232 0.2095,-0.0524 0.27674,-0.17873zM262.63996,209.2096c-0.42113,0.23605 -0.51362,0.31314 -0.66054,0.52804c0.16757,0.12318 0.32233,0.23489 0.48989,0.35809c0.09,0.08047 0.20739,0.07894 0.32568,0.02482c0.07887,-0.03608 0.14521,-0.10986 0.22404,-0.14592c0.2892,-0.14095 0.55348,-0.35745 0.75305,-0.60512c0.15724,-0.04589 0.26346,-0.16392 0.36969,-0.28205c0.61034,-0.65279 1.2203,-1.27937 1.76638,-1.98964c0.23985,-0.31825 0.46685,-0.64798 0.66767,-0.97443c0.14774,-0.26745 0.30875,-0.54961 0.31378,-0.86472c-0.16718,-0.14946 -0.33434,-0.29886 -0.5015,-0.44834c-0.08051,0.14106 -0.14776,0.26743 -0.20169,0.37895c-0.26893,0.50529 -0.56354,0.98763 -0.90962,1.42397c-0.43943,0.56591 -0.94315,1.07437 -1.43401,1.59432c-0.22573,0.25098 -0.51531,0.41821 -0.72818,0.68064c-0.2095,0.0524 -0.35516,0.1885 -0.47465,0.32136zM278.5979,220.17421c0.26303,-0.13769 0.46179,-0.33284 0.63481,-0.55101c0.02612,-0.00326 0.06556,-0.0213 0.07885,-0.03609c0.30582,-0.36578 0.58592,-0.75457 0.76229,-1.18281c0.10835,-0.24943 0.22951,-0.48729 0.22081,-0.76134c-0.72009,-0.6438 -1.44016,-1.28753 -2.1988,-1.96586c-0.17723,0.48073 -0.4316,0.89257 -0.69883,1.29279c-0.2274,0.35601 -0.53155,0.61676 -0.78467,0.94976c-0.1062,0.1181 -0.21201,0.20996 -0.31824,0.32806c-0.22361,0.11964 -0.43481,0.27709 -0.64684,0.487c0.38578,0.34488 0.85202,0.54867 1.23863,0.84104c0.41273,0.2891 0.83876,0.56345 1.23863,0.84103c0.20949,-0.05239 0.34145,-0.14748 0.47339,-0.24261zM275.68142,218.23257c0.15722,-0.04591 0.27634,-0.15247 0.38252,-0.27056c0.15767,-0.0721 0.26434,-0.21648 0.39667,-0.33782c0.38464,-0.40186 0.70501,-0.8612 0.98633,-1.32873c0.161,-0.28216 0.29629,-0.58737 0.35357,-0.90898c-0.05143,-0.046 -0.08958,-0.10673 -0.14104,-0.15269c-0.63007,-0.56336 -1.24724,-1.11513 -1.86405,-1.69319c-0.65537,-0.61255 -1.29787,-1.21362 -1.95322,-1.82618c-0.964,-0.88846 -1.90177,-1.78023 -2.86577,-2.66867c-1.06641,-1.0067 -2.15981,-1.9576 -3.19965,-2.99383c-0.16672,-0.17571 -0.37292,-0.33336 -0.56578,-0.50583c-0.09461,0.20836 -0.15022,0.42495 -0.27057,0.61032c-0.349,0.62015 -0.78843,1.18606 -1.25357,1.72902c-0.42488,0.47237 -0.86264,0.93328 -1.30041,1.39418c-0.19835,0.16894 -0.37052,0.33456 -0.56885,0.50348c-0.18336,0.0491 -0.27716,0.20498 -0.40911,0.30008c-0.14524,0.10987 -0.30286,0.18198 -0.42279,0.3411c0.10203,0.14449 0.23146,0.20694 0.33474,0.27263c0.90474,0.5159 1.71607,1.16138 2.58093,1.72155c0.55503,0.36304 1.11002,0.72611 1.67833,1.07433c0.74873,0.48298 1.49785,0.93967 2.23373,1.41113c0.60688,0.38274 1.21373,0.76553 1.8073,1.16307c0.64544,0.41728 1.26472,0.83781 1.89691,1.26981c0.58072,0.38603 1.17433,0.78355 1.78118,1.16631c0.13233,-0.12135 0.28918,-0.14097 0.38254,-0.27054zM262.88581,197.89724c-0.17638,0.4282 -0.40381,0.78424 -0.61832,1.15171c-0.22782,0.38226 -0.42948,0.76125 -0.67017,1.13197c-0.22742,0.35601 -0.49384,0.70378 -0.7341,1.04825c-0.25356,0.35927 -0.50708,0.71853 -0.78672,1.08105c-0.25311,0.33298 -0.5324,0.66925 -0.78553,1.00225c-0.27926,0.33625 -0.60995,0.62655 -0.83778,1.0088c-0.35595,0.24101 -0.59664,0.61178 -0.88834,0.91032c-0.31781,0.30175 -0.62323,0.64132 -0.94105,0.9431c-0.30455,0.28699 -0.63526,0.57726 -0.95266,0.85279c-0.33071,0.29029 -0.69957,0.51979 -0.99161,0.84456c0.28206,0.30544 0.37204,0.38591 0.70972,0.47474c0.22361,-0.11964 0.44728,-0.23932 0.6717,-0.4115c0.2643,-0.21647 0.5286,-0.43292 0.81906,-0.65267c0.54147,-0.42143 1.05677,-0.83964 1.52151,-1.35631c0.31867,-0.35431 0.62448,-0.72011 0.99461,-1.02841c0.07927,-0.06232 0.1589,-0.15089 0.21284,-0.26243c0.12072,-0.21165 0.30626,-0.39204 0.46555,-0.5692c0.58424,-0.64953 1.09131,-1.36805 1.57223,-2.08333c0.65399,-0.93345 1.19138,-1.9178 1.69017,-2.93666c0.10746,-0.19687 0.21497,-0.39373 0.20542,-0.61526c-0.16631,-0.20199 -0.37249,-0.35969 -0.6566,-0.53381zM255.99146,202.49314c0.06095,0.26754 0.17499,0.47606 0.27577,0.69931c0.07502,0.20028 0.21607,0.35299 0.4235,0.4319c0.3754,0.17584 0.72386,0.40744 1.01916,0.69814c0.02571,0.02299 0.07754,0.04275 0.09042,0.05423c0.10494,-0.03933 0.15804,-0.09839 0.18589,-0.2067c0.00043,-0.02624 -0.01202,-0.06401 -0.02489,-0.07551c-0.33307,-0.37768 -0.63954,-0.78487 -0.91951,-1.22161c-0.03815,-0.06076 -0.10203,-0.14448 -0.18004,-0.16094c-0.25885,-0.1249 -0.51768,-0.24977 -0.87034,-0.21881zM257.13635,205.11479c-0.30734,-0.35467 -0.57525,-0.72739 -0.81704,-1.10337c-0.07632,-0.12146 -0.17959,-0.18721 -0.32232,-0.23487c-0.22067,-0.06412 -0.44223,-0.07576 -0.67663,-0.09889c-0.07799,-0.01646 -0.1688,-0.04442 -0.22278,0.06715c0.15221,0.26926 0.2783,0.54177 0.45702,0.78149c0.7658,0.23187 0.76577,0.23188 1.39624,0.76891c0.07841,-0.00978 0.14438,-0.05737 0.18547,-0.18042zM261.67566,202.62143c0.17834,0.266 0.36999,0.51722 0.5616,0.76844c0.03816,0.06077 0.07631,0.12149 0.14101,0.1527c0.29865,0.08061 0.5841,0.17594 0.9106,0.14827c0.00504,-0.3151 -0.14802,-0.53182 -0.24837,-0.78136c-0.05016,-0.12474 -0.14062,-0.17897 -0.27047,-0.21514c-0.31194,-0.06585 -0.59738,-0.16122 -0.88229,-0.28285c-0.01286,-0.01151 -0.05226,0.0065 -0.10452,0.01306c-0.02698,0.05578 -0.06726,0.12637 -0.10747,0.19688zM258.60835,199.50629c0.03312,0.37585 0.14633,0.63687 0.24628,0.91264c0.05058,0.09851 0.12816,0.14119 0.20574,0.18392c0.38828,0.18732 0.73671,0.41899 1.04491,0.72115c0.03856,0.0345 0.09041,0.05423 0.12899,0.08869c0.15892,-0.15089 0.17263,-0.19191 0.06975,-0.28386c-0.33435,-0.29891 -0.58939,-0.66013 -0.75236,-1.07215c-0.10035,-0.24954 -0.26794,-0.37273 -0.50148,-0.44837c-0.14315,-0.02144 -0.26012,-0.04614 -0.44179,-0.10205zM258.716,203.38436c0.06637,-0.07381 0.02819,-0.13457 -0.02323,-0.18057c-0.36001,-0.3219 -0.601,-0.75036 -0.84195,-1.17889c-0.20322,-0.34148 -0.55208,-0.54685 -1.03413,-0.57834c0.02278,0.20678 0.1381,0.33653 0.18743,0.51381c0.11154,0.36605 0.35584,0.58445 0.66611,0.75536c0.336,0.19386 0.68529,0.37298 0.94162,0.65541c0.05185,0.0197 0.07801,0.01647 0.10413,0.01319zM257.69184,200.55104c0.07462,0.22653 0.11108,0.39233 0.16085,0.54333c0.07425,0.25278 0.21526,0.40551 0.44836,0.5074c0.32398,0.12986 0.60771,0.33024 0.87815,0.54538c0.1033,0.06572 0.20614,0.15769 0.29615,0.23815c0.07927,-0.06232 0.05396,-0.11153 0.02824,-0.13454c-0.30653,-0.40718 -0.59974,-0.82915 -0.82698,-1.2987c-0.05102,-0.07224 -0.08918,-0.13298 -0.16674,-0.17569c-0.24641,-0.08713 -0.47952,-0.18904 -0.81803,-0.22535zM262.38358,201.57646c0.29743,0.15938 0.48903,0.4106 0.69393,0.64707c0.06429,0.05748 0.07589,0.14776 0.16672,0.1757c0.14273,0.0477 0.50778,0.05446 0.76958,-0.00444c-0.03564,-0.21832 -0.16339,-0.38576 -0.25171,-0.57131c-0.07591,-0.14775 -0.19203,-0.22495 -0.36129,-0.24311c-0.28621,-0.04286 -0.54593,-0.11523 -0.79149,-0.25489c-0.01285,-0.01153 -0.06513,-0.00494 -0.09125,-0.00168c-0.06598,0.04757 -0.1191,0.1066 -0.13444,0.25266zM258.69128,207.38379c0.25968,0.07235 0.465,0.28259 0.75167,0.29918c0.08008,-0.11483 0.05564,-0.21661 0.05732,-0.32164c-0.00995,-0.19531 0.01916,-0.38235 -0.0559,-0.58263c-0.31111,-0.11838 -0.54174,-0.37781 -0.85244,-0.52241c-0.10494,0.03933 -0.17136,0.11312 -0.212,0.20994c0.13894,0.28401 0.23847,0.58605 0.3114,0.91761zM260.21139,204.48157c0.10203,0.14449 0.20405,0.28898 0.22767,0.44324c0.05924,0.37256 0.29116,0.55325 0.61596,0.63057c0.11696,0.02471 0.19413,0.09368 0.35097,0.0741c0.00417,-0.26261 -0.0443,-0.4924 -0.09285,-0.72217c-0.01201,-0.06402 -0.06348,-0.10998 -0.14103,-0.1527c-0.24601,-0.11337 -0.46586,-0.23003 -0.71181,-0.34344c-0.03856,-0.03451 -0.11658,-0.05095 -0.24894,0.07043zM259.37491,205.41158c0.22978,0.31196 0.40725,0.63047 0.4404,1.00632c-0.00125,0.07876 0.06346,0.10998 0.1149,0.15596c0.12901,0.08871 0.27132,0.16266 0.46666,0.17753c0.00588,-0.36764 -0.05467,-0.66147 -0.12804,-0.96674c-0.02445,-0.10175 -0.07543,-0.17402 -0.16591,-0.22823c-0.16796,-0.09697 -0.32274,-0.20863 -0.49073,-0.30555c-0.01285,-0.01153 -0.06516,-0.00496 -0.09127,-0.0017c-0.03983,0.04428 -0.07968,0.08859 -0.14603,0.16239zM260.24757,198.94764c-0.18169,-0.05589 -0.37626,-0.12336 -0.55797,-0.17927c-0.02612,0.00326 -0.0523,0.00653 -0.10453,0.01307c-0.03036,0.26585 0.0443,0.4924 0.13261,0.67791c0.49158,0.25304 0.9574,0.48309 1.3946,0.87398c-0.01984,-0.39061 -0.31855,-0.47119 -0.44586,-0.66493c-0.16591,-0.22823 -0.29239,-0.47445 -0.41889,-0.7207zM255.49691,202.42396c-0.28707,0.00968 -0.54763,-0.01017 -0.8235,0.11602c0.03689,0.13951 0.03481,0.27081 0.07215,0.38407c0.03734,0.11325 0.06136,0.24127 0.1514,0.32173c0.15554,0.05915 0.32566,0.02481 0.48206,0.03148c0.15639,0.00662 0.29912,0.05434 0.46961,-0.00626c-0.11282,-0.28728 -0.22599,-0.54828 -0.35164,-0.84707zM256.31233,206.08254c-0.33265,-0.40391 -0.61432,-0.7356 -0.89589,-1.06729c-0.0257,-0.02299 -0.051,-0.07228 -0.10328,-0.06572c-0.23439,-0.02311 -0.46795,-0.09875 -0.73054,0.01267c0.12689,0.22 0.24096,0.42851 0.3683,0.62224c0.46837,0.07252 0.88274,0.25657 1.36145,0.49812zM262.29517,204.66669c0.02949,-0.21335 -0.07255,-0.35781 -0.12229,-0.50884c-0.04933,-0.17728 -0.13849,-0.31026 -0.33306,-0.37766c-0.25925,-0.09863 -0.51853,-0.19727 -0.69775,-0.41074c-0.11868,0.08035 -0.15892,0.15089 -0.08176,0.21986c0.17959,0.18718 0.37205,0.38591 0.45954,0.62392c0.1381,0.33653 0.43722,0.39092 0.77532,0.45345zM260.6978,205.87516c0.04599,0.38735 0.0671,0.69918 0.10147,0.99624c0.09,0.08047 0.18129,0.08218 0.25925,0.09862c0.09127,0.0017 0.19494,0.04114 0.31361,-0.03918c0.0432,-0.25439 0.04737,-0.51693 0.02548,-0.77625c-0.20698,-0.10514 -0.4144,-0.18407 -0.6998,-0.27944zM263.41245,204.12088c-0.31236,-0.03959 -0.58576,-0.07091 -0.87197,-0.11379c0.07422,0.25279 0.13559,0.4941 0.19693,0.73537c0.26011,0.04613 0.4808,0.11028 0.75583,0.03656c0.00379,-0.2363 -0.04514,-0.43985 -0.08078,-0.65815zM255.72278,201.34745c-0.0822,0.24612 0.04514,0.43987 0.09403,0.6434c0.01201,0.06402 0.08957,0.10674 0.15473,0.11168c0.20826,0.02641 0.39038,0.05606 0.58576,0.07098c0.01286,0.01151 0.03942,-0.01806 0.06599,-0.04757c-0.08704,-0.26429 -0.20032,-0.52525 -0.28736,-0.78957c-0.19495,-0.04116 -0.40404,-0.01502 -0.61314,0.01113zM258.15295,199.44518c-0.19456,-0.06739 -0.37623,-0.12333 -0.61231,-0.04144c0.00952,0.22158 -0.00754,0.47267 0.08035,0.68444c0.12984,0.0362 0.23312,0.10189 0.36338,0.11182c0.11696,0.02471 0.20657,0.13146 0.36464,0.03306c-0.06093,-0.26755 -0.12188,-0.53508 -0.19609,-0.78791zM263.71986,203.65014c0.16883,0.04441 0.35264,-0.03098 0.54928,-0.09484c-0.04805,-0.25607 -0.03105,-0.50713 -0.15792,-0.72714c-0.20911,0.02613 -0.41692,-0.0265 -0.66586,0.0439c0.08704,0.26429 0.18741,0.51381 0.27449,0.77808zM263.00111,200.47729c0.21817,0.22169 0.50235,0.39581 0.69395,0.64707c0.16632,0.20197 0.36212,0.19056 0.62432,0.10541c-0.0485,-0.22976 -0.16339,-0.38577 -0.27787,-0.568c-0.37833,0.00799 -0.68908,-0.13662 -1.04041,-0.18445zM255.38877,206.74826c0.04027,-0.07055 0.00167,-0.10501 -0.03689,-0.13951c-0.15387,-0.16422 -0.3339,-0.32516 -0.47451,-0.50414c-0.19121,-0.27747 -0.45257,-0.2448 -0.76664,-0.17935c0.06348,0.11002 0.1012,0.19698 0.15221,0.26923c0.1145,0.18222 0.24262,0.32345 0.50358,0.31706c0.15639,0.00663 0.29869,0.08062 0.42815,0.14302c0.03815,0.06077 0.0759,0.14774 0.19412,0.09368zM258.38915,208.33875c0.01496,-0.11977 0.00335,-0.21008 0.00462,-0.28885c0.02992,-0.23958 -0.04598,-0.38737 -0.22686,-0.49577c-0.15511,-0.08546 -0.2833,-0.22669 -0.42516,-0.32686c-0.03857,-0.03452 -0.06387,-0.08373 -0.16969,0.00811c0.11361,0.23479 0.20072,0.49905 0.24837,0.78137c0.01201,0.06402 0.0763,0.12146 0.12772,0.16746c0.1294,0.06243 0.246,0.11342 0.44096,0.15454zM262.36598,205.12957c-0.18167,-0.05591 -0.36295,-0.13809 -0.57165,-0.13818c0.00869,0.27408 -0.02167,0.53992 0.05253,0.79271c0.20826,0.02638 0.37666,0.09707 0.59989,0.00367c-0.00951,-0.2216 0.00715,-0.44642 -0.0808,-0.65815zM257.42118,201.16147c-0.0087,-0.27406 -0.08333,-0.5006 -0.18453,-0.69758c-0.20824,-0.02641 -0.39035,-0.05602 -0.6256,-0.02663c-0.02908,0.18709 0.00743,0.35287 0.07004,0.51537c0.24682,0.06088 0.48039,0.13651 0.74005,0.2089zM261.77574,206.97222c0.16971,-0.00811 0.2738,0.0051 0.39162,-0.02275c0.07841,-0.0098 0.14396,-0.03108 0.20952,-0.05241c0.06849,-0.20508 0.09797,-0.41843 0.04907,-0.62198c-0.19495,-0.04116 -0.38993,-0.08227 -0.61275,-0.01511c-0.00379,0.2363 -0.03325,0.44966 -0.03744,0.71223zM256.87169,207.80772c0.00828,0.30035 0.00489,0.51038 0.01396,0.75822c0.03815,0.06076 0.1414,0.12646 0.25842,0.15115c0.10369,0.03945 0.16715,0.14943 0.31112,0.11836c0.08092,-0.16735 0.0963,-0.3134 0.0727,-0.46769c-0.21902,-0.16917 -0.41188,-0.34166 -0.65618,-0.56007zM254.6146,202.14103c0.13071,-0.01635 0.2614,-0.03267 0.39206,-0.04897c0.13072,-0.01635 0.2485,-0.04418 0.37919,-0.0605c-0.04847,-0.22977 -0.0584,-0.42511 -0.17328,-0.58108c-0.11696,-0.02469 -0.22236,0.0409 -0.32731,0.08019c-0.10494,0.03933 -0.24851,0.04418 -0.32858,0.15898c0.01035,0.16908 -0.00503,0.31508 0.05801,0.45137zM263.48609,205.22543c-0.23481,0.00315 -0.45551,-0.06103 -0.71774,0.0242c0.00995,0.1953 0.03313,0.37584 0.04304,0.57118c0.2348,-0.00314 0.43021,0.01178 0.65384,-0.10792c0.02864,-0.16081 0.08303,-0.29865 0.02083,-0.48743zM255.00748,204.48986c-0.15176,-0.29551 -0.29111,-0.55326 -0.43045,-0.81097c-0.13028,-0.00994 -0.24725,-0.03464 -0.3659,0.04572c-0.0046,0.28887 0.10901,0.52357 0.20937,0.7731c0.13028,0.00994 0.26053,0.01988 0.3912,0.00355c0.06472,0.03125 0.10411,0.01319 0.19579,-0.01136zM260.45406,207.2552c-0.22114,-0.03785 -0.37543,-0.17585 -0.58453,-0.14971c-0.01745,0.27734 -0.0345,0.52842 0.01357,0.78453c0.18298,-0.02288 0.31153,0.09211 0.52146,0.01346c0.06847,-0.20507 0.03243,-0.39718 0.0495,-0.64826zM258.50606,198.56256c-0.0158,0.17231 -0.00544,0.34135 0.04433,0.49239c0.23399,0.04936 0.45466,0.11352 0.71434,0.18588c-0.06177,-0.21499 -0.08497,-0.39557 -0.10731,-0.62865c-0.23399,-0.04937 -0.4418,-0.10204 -0.65134,-0.04963zM258.73843,208.51784c0.22027,0.09042 0.40157,0.17256 0.6372,0.11693c0.04191,-0.17558 0.08346,-0.32488 0.0337,-0.47592c-0.2074,-0.07891 -0.40152,-0.17254 -0.64795,-0.25969c-0.02949,0.21335 -0.04569,0.41191 -0.02292,0.61871zM257.20484,200.00922c-0.06135,-0.24128 0.00753,-0.47269 -0.10737,-0.62867c-0.20824,-0.02641 -0.39162,0.02274 -0.57544,0.09812c-0.0162,0.19857 -0.0453,0.38565 0.05629,0.5564c0.19581,-0.01136 0.37836,-0.008 0.62643,-0.02588zM264.30147,203.9836c-0.18297,0.02287 -0.33935,0.01621 -0.51029,0.1031c0.0485,0.22976 -0.00756,0.47266 0.10649,0.68118c0.1697,-0.0081 0.30081,-0.05069 0.43316,-0.17206c0.00335,-0.21006 -0.01941,-0.41685 -0.02937,-0.61216zM254.16529,204.96189c-0.18255,-0.0034 -0.30032,0.02444 -0.43192,0.09325c0.00994,0.19531 0.05882,0.39885 0.21314,0.53677c0.15682,-0.01961 0.31359,-0.03919 0.48332,-0.04727c-0.0352,-0.24457 -0.17623,-0.39727 -0.26459,-0.58277zM264.84019,200.47007c-0.14393,0.03107 -0.26179,0.05893 -0.35429,0.13598c0.0489,0.20352 0.12443,0.37753 0.23929,0.53352c0.14352,-0.00481 0.26136,-0.03265 0.38002,-0.113c-0.03564,-0.21832 -0.17667,-0.37101 -0.26501,-0.55651zM262.79634,206.76599c0.23395,0.04939 0.35304,-0.05722 0.45969,-0.20158c0.09294,-0.10332 0.16019,-0.22967 0.09714,-0.36594c-0.18255,-0.0034 -0.3522,0.00469 -0.53601,0.08007c-0.0158,0.17231 -0.0183,0.32987 -0.02083,0.48741zM260.88444,198.26533c-0.15555,-0.05917 -0.2584,-0.15114 -0.41564,-0.10529c-0.04696,0.49068 0.26372,0.63533 0.66653,0.72908c-0.0879,-0.21177 -0.16298,-0.41208 -0.25088,-0.6238zM261.26579,207.87453c0.0681,-0.17884 0.08345,-0.32489 0.04739,-0.51693c-0.15724,0.04589 -0.29913,-0.05431 -0.45677,0.0178c-0.06685,0.10009 -0.04193,0.17556 -0.05649,0.2691c-0.00167,0.105 -0.04235,0.20183 0.04764,0.28231c0.13029,0.00994 0.26056,0.01986 0.4182,-0.05225zM258.96994,202.99888c0.22319,-0.09339 0.27717,-0.20498 0.17471,-0.32318c-0.15386,-0.16422 -0.33432,-0.29891 -0.50191,-0.42209c-0.0514,-0.04599 -0.12903,-0.08867 -0.2344,-0.02311c0.16506,0.28075 0.35668,0.53194 0.56157,0.76842zM265.08401,203.16514c0.1037,0.03946 0.19541,0.0149 0.28795,-0.06218c0.01706,-0.2511 0.07355,-0.52022 -0.02681,-0.76974c-0.23647,0.10817 -0.33033,0.26403 -0.29467,0.48231c-0.00166,0.10502 -0.04278,0.22814 0.03352,0.3496zM260.62057,200.90576c0.18588,-0.20665 0.19996,-0.27397 0.08429,-0.37741c-0.19331,-0.14618 -0.39944,-0.30387 -0.64586,-0.39099c0.12523,0.32504 0.25088,0.62381 0.56157,0.76842zM263.89775,199.86723c0.08956,0.10673 0.17963,0.18719 0.25632,0.28243c0.16672,0.17574 0.16674,0.1757 0.47007,-0.03251c-0.06348,-0.11002 -0.12649,-0.24627 -0.16465,-0.30699c-0.20911,0.02611 -0.37875,0.03423 -0.5617,0.0571zM255.61732,199.78823c-0.0154,0.14607 -0.10915,0.30192 0.03229,0.42838c0.14396,-0.03107 0.28835,-0.08844 0.45842,-0.1228c0.01581,-0.17234 0.05777,-0.34788 -0.00529,-0.48414c-0.15724,0.04591 -0.31408,0.06545 -0.48544,0.17857zM264.10357,201.67603c0.1008,0.22323 0.18824,0.46129 0.28904,0.68453c0.09083,0.02793 0.18208,0.02967 0.23603,-0.08187c0.00379,-0.2363 -0.04471,-0.46615 -0.17205,-0.65986c-0.13028,-0.00994 -0.23479,0.00314 -0.35305,0.05725zM259.09818,198.23957c0.08008,-0.11483 0.09506,-0.23463 0.07101,-0.36266c-0.07799,-0.01646 -0.15598,-0.03292 -0.23398,-0.04936c-0.1041,-0.01322 -0.19498,-0.04113 -0.30035,0.02445c-0.07966,0.08856 -0.12037,0.18535 -0.10915,0.3019c0.18215,0.02964 0.39039,0.05602 0.57247,0.08571zM256.22526,200.91778c0.01581,-0.17234 -0.02111,-0.31186 -0.08414,-0.44811c-0.18336,0.0491 -0.35346,0.0835 -0.51067,0.12933c-0.06762,0.15261 -0.0436,0.28062 0.02027,0.36436c0.1958,-0.01135 0.39162,-0.02275 0.57459,-0.04556zM260.02781,198.00553c-0.11696,-0.02469 -0.23395,-0.04939 -0.36425,-0.05935c-0.02611,0.00327 -0.0527,0.03281 -0.09214,0.05086c-0.01454,0.09354 -0.06849,0.20509 -0.00545,0.34136c0.14274,0.04767 0.29786,0.13306 0.49367,0.12174c0.0419,-0.17556 0.01784,-0.30359 -0.03189,-0.45462zM261.83747,198.21166c-0.12817,-0.14121 -0.00784,-0.3266 -0.1364,-0.44154c-0.15595,-0.03289 -0.28494,-0.12165 -0.49405,-0.09549c-0.02864,0.16081 -0.04402,0.30691 0.11154,0.36603c0.15555,0.05918 0.25799,0.17739 0.51893,0.17102zM265.31408,201.82608c-0.0369,-0.13952 -0.06053,-0.29381 -0.08455,-0.42181c0.00043,-0.02626 -0.03858,-0.03451 -0.06431,-0.05747c-0.09211,0.05083 -0.22279,0.06713 -0.30369,0.23451c0.0365,0.16574 0.0858,0.34306 0.12188,0.53511c0.14438,-0.05733 0.2369,-0.13445 0.33071,-0.29029zM255.15832,200.76281c-0.15681,0.01959 -0.32649,0.0277 -0.45716,0.04404c-0.08093,0.16735 -0.09633,0.31341 -0.0984,0.44469c0.10332,0.06572 0.20908,-0.02614 0.30079,-0.05069c0.09171,-0.02459 0.19622,-0.03763 0.27633,-0.15247c0.02739,-0.08204 0.04192,-0.1756 -0.02152,-0.28561zM259.7394,208.72035c0.15639,0.00662 0.27382,0.0051 0.39121,0.00353c0.03899,0.00825 0.09171,-0.02455 0.11785,-0.02784c0.09294,-0.10332 0.10792,-0.22313 0.08385,-0.35115c-0.16926,-0.01815 -0.32524,-0.05106 -0.50816,-0.02827c-0.04107,0.12305 -0.05605,0.24286 -0.08471,0.40367zM264.24333,199.45723c-0.11404,-0.20853 -0.2281,-0.41698 -0.44794,-0.53367c-0.08092,0.16734 -0.17431,0.29697 -0.13783,0.46272c0.28496,0.12165 0.28496,0.12163 0.58574,0.07095zM261.67149,207.78456c0.47008,-0.03252 0.48329,-0.04727 0.5937,-0.42801c-0.16971,0.00811 -0.33975,0.04247 -0.50945,0.05053c-0.08008,0.11483 -0.09503,0.2346 -0.0843,0.37741zM258.06305,198.53925c-0.16926,-0.01815 -0.3128,-0.01332 -0.47048,0.05879c-0.0137,0.04103 -0.02783,0.10831 -0.04195,0.17559c-0.00083,0.05253 0.01118,0.11655 0.01033,0.16902c0.16926,0.01814 0.33812,0.06255 0.50863,0.00195c0.04107,-0.12304 0.03035,-0.26586 -0.00659,-0.40536zM258.33839,209.06578c0.01409,-0.06726 0.02862,-0.16082 0.00335,-0.21009c-0.1016,-0.17077 -0.25673,-0.25615 -0.49115,-0.27929c-0.02826,0.13456 -0.10874,0.27564 -0.07141,0.38893c0.18167,0.05591 0.33641,0.1676 0.5592,0.10045zM253.80535,203.81459c-0.02611,0.00324 -0.05226,0.00652 -0.10453,0.01306c-0.06973,0.2839 -0.06108,0.55797 -0.05239,0.83203c0.12984,0.03619 0.22151,0.01161 0.34059,-0.09496c-0.06135,-0.24128 -0.10945,-0.49731 -0.18366,-0.75015zM259.3494,201.28742c0.11321,0.26102 0.20029,0.52525 0.43216,0.70594c0.01285,0.01153 0.09168,-0.02459 0.11823,-0.0541c0.06636,-0.07382 0.06806,-0.17885 0.00374,-0.23629c-0.12731,-0.19375 -0.32106,-0.31367 -0.55413,-0.41555zM257.17481,198.62403c-0.14354,0.0048 -0.28709,0.00967 -0.43147,0.06701c-0.09296,0.10332 -0.13362,0.20014 -0.11002,0.35439c0.17012,-0.03437 0.35306,-0.05721 0.51028,-0.10306c0.05392,-0.11153 0.06846,-0.20508 0.03117,-0.31836zM263.89549,205.72454c0.19874,-0.19518 0.37097,-0.36079 0.44029,-0.61842c-0.15555,-0.05916 -0.29993,-0.00184 -0.44474,0.08177c-0.02907,0.18707 -0.05773,0.34788 0.0045,0.53668zM256.43759,208.85777c0.04236,-0.20185 0.0428,-0.22807 0.00421,-0.2626c-0.11527,-0.12972 -0.29743,-0.15939 -0.46666,-0.17753c-0.0651,-0.00495 -0.14436,0.05738 -0.10706,0.17064c0.1954,0.01491 0.30945,0.22343 0.56955,0.26949zM254.42644,203.30461c-0.04805,-0.25607 -0.07002,-0.51538 -0.27536,-0.72554c-0.09587,0.28712 -0.03452,0.52846 0.00114,0.74671c0.07755,0.04274 0.1431,0.02141 0.27421,-0.02119zM260.7102,208.36324c-0.0278,0.1083 -0.06848,0.2051 -0.09628,0.31339c0.18214,0.02966 0.35181,0.02156 0.45928,-0.17532c0.02699,-0.05578 0.05392,-0.11154 0.0158,-0.17231c-0.10369,-0.03945 -0.22154,-0.01162 -0.37876,0.03423zM261.38165,199.80173c0.11948,-0.13289 0.14691,-0.21488 0.03077,-0.29208c-0.1033,-0.06572 -0.20659,-0.13143 -0.32317,-0.18237c-0.05185,-0.01969 -0.117,-0.02471 -0.15724,0.04584c0.11447,0.18224 0.25592,0.30868 0.44963,0.42861zM256.0789,205.18145c0.11404,0.20854 0.25468,0.38748 0.46165,0.49264c0.01287,0.01152 0.09168,-0.02459 0.10494,-0.03933c0.02654,-0.02951 0.01454,-0.09354 -0.01119,-0.11653c-0.18043,-0.13469 -0.3082,-0.30219 -0.55548,-0.3368zM255.87881,206.28083c-0.16841,-0.07068 -0.30988,-0.19716 -0.53096,-0.23507c0.10077,0.22324 0.21566,0.37924 0.33264,0.40393c0.10369,0.03945 0.15683,-0.01959 0.19831,-0.16889zM265.02909,204.1547c0.12074,-0.21165 0.30666,-0.41834 0.24529,-0.65962c-0.34184,0.17375 -0.28048,0.41504 -0.24529,0.65962zM262.50295,202.26915c0.02653,-0.0295 0.02701,-0.05584 0.05354,-0.08533c-0.14185,-0.10019 -0.20449,-0.2627 -0.3866,-0.29233c-0.09254,0.07706 -0.11949,0.13286 -0.09504,0.23463c0.12984,0.03619 0.27254,0.08387 0.42813,0.14303zM257.81658,203.35259c0.14019,0.20522 0.25509,0.36121 0.42265,0.48442c0.02571,0.02299 0.07798,0.01646 0.11781,-0.02782c0.01328,-0.01479 0.02698,-0.05577 0.02738,-0.08204c-0.11404,-0.20853 -0.26833,-0.34644 -0.56786,-0.37453zM258.7184,208.95277c-0.05392,0.11155 -0.06806,0.17882 -0.00292,0.18379c0.12984,0.03619 0.27296,0.0576 0.41608,0.07904c0.09125,0.0017 0.1311,-0.04258 0.11949,-0.13285c-0.18126,-0.0822 -0.33686,-0.14135 -0.53264,-0.12999zM256.2011,199.16499c0.01454,-0.09354 0.04192,-0.17559 0.05647,-0.26912c0.00045,-0.02626 -0.0253,-0.04924 -0.05058,-0.09852c-0.15933,0.1771 -0.34394,0.30502 -0.46514,0.54292c0.17012,-0.03437 0.28792,-0.06219 0.45926,-0.17532zM258.89682,205.94305c0.14186,0.1002 0.27089,0.18891 0.43847,0.31211c0.00417,-0.26261 -0.07168,-0.41034 -0.21356,-0.51051c-0.10496,0.03932 -0.15767,0.0721 -0.22493,0.19844zM262.74456,201.02037c0.14315,0.02144 0.25798,0.1774 0.48121,0.08401c-0.26879,-0.32018 -0.33305,-0.37765 -0.42518,-0.32685c-0.06636,0.07382 -0.08053,0.14111 -0.05605,0.24287zM257.04566,204.26136c0.03352,0.34959 0.18786,0.48751 0.43383,0.60094c0.03157,-0.34463 -0.25466,-0.38745 -0.43383,-0.60094zM261.44201,198.47074c0.03395,0.32333 0.17543,0.44981 0.35627,0.55823c0.01286,0.01151 0.05226,-0.00654 0.07881,-0.03606c0.03985,-0.04427 0.04067,-0.0968 0.01496,-0.11978c-0.11527,-0.12973 -0.25714,-0.22991 -0.45002,-0.40235zM263.18912,200.13927c0.15555,0.05917 0.29743,0.15938 0.52016,0.09222c-0.08875,-0.15926 -0.21776,-0.24795 -0.33389,-0.32516c-0.11825,0.05408 -0.15846,0.1246 -0.18629,0.23293zM260.89498,197.60878c-0.20869,-0.00012 -0.35012,-0.12659 -0.53434,-0.02495c0.14019,0.20522 0.14019,0.20522 0.46625,0.20381c0.0137,-0.04103 0.02738,-0.08205 0.06806,-0.17885zM264.5845,203.41092c0.1473,-0.24115 0.12453,-0.44797 0.07561,-0.6515c-0.11696,-0.02469 -0.17012,0.03437 -0.17136,0.11312c0.03651,0.16575 0.05969,0.34633 0.09576,0.53834zM258.09503,198.16834c0.06683,-0.10009 0.12035,-0.18537 0.08302,-0.29861c-0.11738,0.00156 -0.23482,0.00311 -0.32729,0.08018c-0.05354,0.0853 -0.06762,0.1526 -0.04277,0.22814c0.09084,0.02794 0.16926,0.01814 0.28708,-0.0097zM260.99928,204.14726c-0.06301,-0.13625 -0.11363,-0.2348 -0.21734,-0.27422c-0.03899,-0.00825 -0.07841,0.00977 -0.11783,0.02783c-0.03985,0.04427 -0.06725,0.12634 -0.01541,0.14606c0.07716,0.069 0.16717,0.14947 0.35057,0.10033zM255.14389,200.03084c-0.15809,0.09838 -0.2,0.27397 -0.28048,0.41506c0.3265,-0.02768 0.35304,-0.05724 0.28048,-0.41506zM255.12238,207.09599c-0.13977,-0.23149 -0.13976,-0.23149 -0.33643,-0.16761c0.05058,0.09851 0.11406,0.20851 0.33643,0.16761zM261.46196,202.93641c-0.09172,0.02459 -0.13152,0.06886 -0.11908,0.10659c0.03651,0.16575 0.08834,0.18551 0.32358,0.1561c-0.05014,-0.12476 -0.12731,-0.19377 -0.20448,-0.26275zM262.10255,197.94275c-0.00206,0.1313 0.00911,0.24782 0.12563,0.29877c0.17384,-0.27068 0.16145,-0.30839 -0.12563,-0.29877zM254.39354,207.00364c0.01035,0.16908 0.0999,0.2758 0.17663,0.37099c0.05141,0.04599 0.12986,0.03619 0.15811,-0.09838c-0.07674,-0.0952 -0.16632,-0.20198 -0.33473,-0.27264zM259.70974,197.50796c0.10203,0.14449 0.20614,0.15771 0.33811,0.06258c0,0 0.0137,-0.04103 0.00082,-0.05251c-0.06388,-0.08373 -0.19495,-0.04119 -0.33897,-0.01009zM260.00674,205.0444c0.05392,-0.11155 0.02908,-0.18709 -0.03563,-0.21829c-0.02571,-0.02299 -0.07799,-0.01645 -0.1174,0.00155c-0.03942,0.01805 -0.05353,0.08528 -0.02779,0.10827c0.0253,0.04925 0.07671,0.09523 0.18084,0.10844zM257.15421,198.28587c0.14313,0.02144 0.23482,-0.00312 0.28958,-0.16723c-0.16926,-0.01814 -0.24809,0.01789 -0.28958,0.16723z" fill="url(#color-11)"/><path d="M264.37359,209.2681c0.43775,-0.46087 0.87554,-0.9218 1.30042,-1.3942c0.47802,-0.53145 0.90456,-1.10886 1.25357,-1.72901c0.10747,-0.19687 0.16269,-0.38718 0.27058,-0.61031c0.20576,0.18395 0.39904,0.33008 0.56576,0.50581c1.02699,1.02473 2.13321,1.98715 3.19964,2.99383c0.95067,0.90324 1.90181,1.78019 2.86578,2.66867c0.65537,0.61255 1.29786,1.21365 1.9532,1.82621c0.6168,0.57808 1.24726,1.1151 1.86407,1.69316c0.05143,0.046 0.10287,0.09199 0.14103,0.15273c-0.04442,0.33312 -0.17935,0.61204 -0.3536,0.90898c-0.28136,0.46758 -0.60171,0.92689 -0.98632,1.32872c-0.11948,0.13289 -0.22613,0.27722 -0.39666,0.33781c0.09379,-0.15588 0.26511,-0.26899 0.3469,-0.48885c-0.29863,-0.08063 -0.47743,-0.32032 -0.69646,-0.48951c-0.01286,-0.01151 -0.0257,-0.02298 -0.03899,-0.00825c-0.45338,-0.19231 -0.82628,-0.52572 -1.25272,-0.77379c-0.15512,-0.08544 -0.35012,-0.12658 -0.45214,-0.27104c-0.23059,-0.25947 -0.59444,-0.345 -0.82508,-0.60448c-0.01286,-0.01151 -0.05185,-0.01972 -0.07756,-0.04274c-0.28412,-0.17412 -0.56867,-0.32205 -0.82628,-0.52569c-0.28288,-0.2529 -0.6463,-0.36476 -0.90262,-0.64717c-0.24682,-0.06088 -0.38741,-0.23987 -0.58069,-0.38604c-0.02571,-0.02299 -0.03861,-0.03449 -0.06429,-0.05749c-0.3634,-0.11183 -0.58031,-0.41228 -0.8906,-0.58318c-0.31027,-0.17086 -0.55374,-0.44181 -0.85075,-0.62744c-0.33558,-0.22015 -0.69813,-0.38443 -0.96689,-0.70467c-0.02571,-0.02299 -0.0643,-0.0575 -0.10329,-0.06572c-0.22114,-0.03785 -0.33558,-0.22013 -0.50314,-0.34333c-0.07716,-0.069 -0.15387,-0.16419 -0.25758,-0.20365c-0.16881,-0.04444 -0.25842,-0.15116 -0.37416,-0.25463c-0.0643,-0.05749 -0.11532,-0.12975 -0.1933,-0.14616c-0.24682,-0.06088 -0.40029,-0.25134 -0.56743,-0.40078c-0.0643,-0.05749 -0.1153,-0.1297 -0.19329,-0.14619c-0.2078,-0.05267 -0.33599,-0.19387 -0.47742,-0.32036c-0.23149,-0.20694 -0.55584,-0.31052 -0.774,-0.53221c-0.02531,-0.04924 -0.10368,-0.03948 -0.15556,-0.05917z" fill="#87d7dc"/><path d="M264.37361,209.26812c0.05183,0.01973 0.13027,0.00991 0.16885,0.04441c0.21819,0.22168 0.52928,0.34006 0.77401,0.53221c0.14144,0.12647 0.26962,0.2677 0.47743,0.32035c0.07799,0.01646 0.12902,0.08871 0.19329,0.14615c0.16718,0.14943 0.33388,0.32518 0.56743,0.40084c0.07799,0.01646 0.11575,0.10347 0.19331,0.14616c0.11572,0.10345 0.2186,0.19545 0.37415,0.25463c0.10369,0.03945 0.18045,0.13471 0.2576,0.20368c0.16757,0.12318 0.28206,0.30543 0.50315,0.34332c0.03899,0.00825 0.07756,0.04273 0.10329,0.0657c0.25592,0.3087 0.63134,0.48455 0.96691,0.70465c0.30989,0.19716 0.55332,0.46806 0.85073,0.62748c0.31027,0.17085 0.5272,0.47134 0.8906,0.58317c0.02612,-0.00324 0.03857,0.03451 0.0643,0.05751c0.16718,0.14943 0.33389,0.32514 0.58074,0.38604c0.24305,0.29721 0.60646,0.40901 0.9026,0.6472c0.2443,0.21843 0.54215,0.35154 0.82628,0.52571c0.02571,0.02299 0.0519,0.01971 0.07758,0.04271c0.23059,0.25947 0.59442,0.345 0.82506,0.60448c0.12817,0.1412 0.31028,0.17088 0.45214,0.27105c0.41314,0.26283 0.79933,0.58148 1.25271,0.77379c0.01286,0.01151 0.03902,0.00822 0.03902,0.00822c0.21904,0.16917 0.3978,0.40892 0.69647,0.4895c-0.06848,0.20509 -0.25272,0.30674 -0.34692,0.48884c-0.1062,0.11809 -0.21246,0.23617 -0.38259,0.27054c-0.07716,-0.069 -0.15387,-0.16419 -0.25757,-0.20363c-0.36295,-0.13808 -0.61971,-0.39431 -0.91631,-0.6062c-0.29656,-0.21187 -0.65955,-0.34996 -0.90259,-0.64716c-0.24682,-0.06088 -0.38745,-0.23984 -0.58074,-0.38603c-0.02571,-0.02299 -0.06429,-0.05748 -0.1033,-0.06571c-0.18213,-0.02966 -0.28411,-0.17414 -0.41315,-0.26286c-0.0643,-0.05749 -0.1286,-0.11495 -0.19329,-0.14617c-0.34929,-0.17909 -0.69814,-0.38443 -0.9939,-0.64887c-0.03857,-0.03452 -0.07672,-0.09527 -0.129,-0.0887c-0.19494,-0.04116 -0.31029,-0.17085 -0.43887,-0.28582c-0.12817,-0.1412 -0.34972,-0.15284 -0.49072,-0.30557c-0.19246,-0.1987 -0.45173,-0.29732 -0.68401,-0.45173c-0.30946,-0.2234 -0.65912,-0.37624 -0.95485,-0.64067c-0.05143,-0.046 -0.10246,-0.11824 -0.1676,-0.12318c-0.15596,-0.03295 -0.25842,-0.15113 -0.38741,-0.23984c-0.10286,-0.09197 -0.219,-0.16916 -0.33558,-0.22016c-0.22027,-0.09042 -0.41398,-0.21032 -0.59403,-0.37126c-0.2833,-0.22665 -0.6463,-0.36474 -0.88933,-0.66191c-0.02571,-0.02299 -0.07754,-0.04274 -0.10329,-0.06573c-0.30989,-0.19716 -0.63302,-0.37946 -0.91627,-0.60617c-0.28288,-0.2529 -0.672,-0.38774 -0.92832,-0.67019c-0.03857,-0.03452 -0.10371,-0.03943 -0.15556,-0.05917c-0.19371,-0.11992 -0.38702,-0.26611 -0.51433,-0.45983c0.05355,-0.08531 0.10661,-0.14437 0.14691,-0.21491c0.22448,-0.17219 0.4095,-0.32632 0.595,-0.50675z" fill="#b0eef2"/><path d="M262.88584,197.89725c0.2841,0.17412 0.49029,0.33184 0.63006,0.56332c-0.00336,0.21008 -0.1108,0.40696 -0.20542,0.61529c-0.51168,1.00735 -1.03623,2.00321 -1.6902,2.93665c-0.49382,0.70376 -1.00088,1.42231 -1.57223,2.08334c-0.15934,0.17712 -0.34481,0.35758 -0.4656,0.56919c-0.05355,0.08531 -0.13322,0.17388 -0.21285,0.26243c-0.37011,0.30832 -0.66306,0.6856 -0.99459,1.02842c-0.4643,0.49043 -0.98005,0.9349 -1.52151,1.35632c-0.27715,0.20497 -0.54147,0.42145 -0.81903,0.6527c-0.2116,0.18365 -0.44808,0.29184 -0.67171,0.41151c-0.32441,-0.10361 -0.42767,-0.1693 -0.70971,-0.47474c0.30494,-0.31326 0.66094,-0.55432 0.99161,-0.84456c0.31741,-0.27551 0.64808,-0.56578 0.95266,-0.85281c0.31783,-0.30175 0.6361,-0.62982 0.94104,-0.94308c0.30455,-0.28699 0.54519,-0.65778 0.88837,-0.91034c0.22783,-0.38227 0.55852,-0.67252 0.83779,-1.0088c0.26599,-0.32151 0.53235,-0.66926 0.7855,-1.00227c0.26641,-0.34777 0.51992,-0.70701 0.78679,-1.08104c0.24027,-0.34449 0.50666,-0.69225 0.73406,-1.04828c0.24066,-0.37074 0.44237,-0.74972 0.6702,-1.13199c0.24111,-0.39702 0.46849,-0.753 0.64489,-1.18125z" fill="url(#color-12)"/><path d="M263.80474,209.77166c-0.04026,0.07054 -0.09337,0.12961 -0.14688,0.2149c0.12734,0.19374 0.29447,0.34316 0.51434,0.45985c0.05185,0.01973 0.11698,0.0247 0.15555,0.05917c0.25631,0.28244 0.63219,0.43203 0.92833,0.67018c0.27004,0.24142 0.60645,0.40903 0.91627,0.60619c0.02571,0.02299 0.07758,0.04273 0.10329,0.06571c0.24304,0.29722 0.60642,0.40904 0.88932,0.66195c0.16718,0.14943 0.37375,0.28088 0.59403,0.37125c0.12939,0.06243 0.24556,0.13963 0.33558,0.22014c0.11572,0.10345 0.20532,0.21019 0.38744,0.23985c0.06509,0.00497 0.11614,0.07723 0.16758,0.12322c0.28288,0.2529 0.64544,0.41722 0.95486,0.64063c0.23228,0.15443 0.49157,0.25302 0.68401,0.45174c0.12817,0.1412 0.34969,0.15284 0.49072,0.30557c0.1153,0.12973 0.24345,0.27093 0.43886,0.28585c0.05185,0.01973 0.09043,0.05421 0.129,0.08868c0.29572,0.2644 0.63169,0.45829 0.99388,0.64886c0.07756,0.04274 0.12859,0.11494 0.19326,0.14617c0.11572,0.10345 0.23106,0.23315 0.41316,0.26282c0.03899,0.00825 0.07757,0.04272 0.10327,0.0657c0.16718,0.14943 0.3339,0.32516 0.58073,0.38604c0.24304,0.2972 0.60604,0.4353 0.9026,0.64715c0.29656,0.21187 0.56616,0.47955 0.91626,0.60617c0.1037,0.03946 0.18042,0.13471 0.2576,0.20366c-0.10665,0.14436 -0.26344,0.16395 -0.36926,0.25581c-0.60643,-0.40901 -1.20046,-0.78031 -1.78116,-1.16634c-0.64544,-0.41727 -1.26474,-0.83778 -1.8969,-1.26977c-0.59359,-0.39754 -1.20047,-0.78029 -1.80732,-1.16307c-0.74873,-0.48298 -1.49787,-0.93968 -2.23375,-1.41113c-0.55503,-0.36305 -1.11,-0.72612 -1.67831,-1.07436c-0.86488,-0.56017 -1.68952,-1.1909 -2.58094,-1.72152c-0.11614,-0.07719 -0.25885,-0.12488 -0.33472,-0.27263c0.11948,-0.13289 0.27757,-0.23122 0.4228,-0.3411c0.09211,-0.05084 0.18587,-0.20667 0.35641,-0.2673z" fill="#87d7dc"/><path d="M276.63812,217.94266c0.25311,-0.333 0.5444,-0.60527 0.78463,-0.94976c0.26725,-0.40028 0.52161,-0.81207 0.69885,-1.29279c0.74579,0.66677 1.47872,1.32205 2.1988,1.96582c-0.00459,0.28885 -0.12581,0.52674 -0.22084,0.76137c-0.18965,0.44299 -0.46934,0.80552 -0.76229,1.18281c-0.01328,0.01479 -0.05268,0.03279 -0.07883,0.03608c0.04237,-0.20183 -0.10035,-0.2495 -0.22979,-0.31196c-0.32358,-0.15611 -0.63383,-0.32696 -0.87772,-0.57167c-0.05143,-0.046 -0.10287,-0.09197 -0.16758,-0.12316c-0.324,-0.12986 -0.56786,-0.37453 -0.85202,-0.54867c-0.16796,-0.09697 -0.29741,-0.15931 -0.49322,-0.14799z" fill="#61afb4"/><path d="M261.89541,208.46411c0.54188,-0.4477 0.99371,-0.97586 1.49701,-1.45806c0.2253,-0.22468 0.41203,-0.4839 0.59878,-0.7431c0.37265,-0.46587 0.80994,-0.90048 1.13111,-1.41235c0.13363,-0.20014 0.26724,-0.40026 0.37475,-0.59714c0.06725,-0.12634 0.14729,-0.24114 0.24027,-0.3445c0.05185,0.01969 0.09084,0.02797 0.11657,0.05097c0.10285,0.09198 0.20574,0.18391 0.30862,0.27587c-0.0278,0.10829 -0.05523,0.19033 -0.09587,0.28714c-0.32368,0.66937 -0.66068,1.35357 -1.17854,1.92932c-0.43858,0.51344 -0.89043,1.04156 -1.38047,1.50904c-0.38423,0.37563 -0.75559,0.76269 -1.22938,1.03156c0.04064,-0.0968 0.15891,-0.1509 0.13486,-0.27891c-0.11489,-0.15597 -0.24222,-0.34971 -0.51769,-0.24977z" fill="url(#color-13)"/><path d="M263.07554,208.88006c0.20002,-0.27396 0.48961,-0.44115 0.72819,-0.68061c0.49088,-0.51997 0.98175,-1.03988 1.43402,-1.59434c0.35935,-0.45108 0.65396,-0.93344 0.90962,-1.42399c0.06725,-0.12634 0.13444,-0.25263 0.20168,-0.37899c0.18003,0.16094 0.33436,0.29888 0.50149,0.44835c-0.00504,0.3151 -0.13996,0.59403 -0.31378,0.86472c-0.20083,0.32647 -0.41496,0.66767 -0.66766,0.97442c-0.54609,0.71027 -1.15605,1.33684 -1.76639,1.98967c-0.1062,0.11809 -0.21246,0.23621 -0.36968,0.28206c-0.0643,-0.05749 -0.11532,-0.1297 -0.19329,-0.14616c-0.18169,-0.05592 -0.32275,-0.20864 -0.46416,-0.33506z" fill="url(#color-14)"/><path d="M276.63811,217.94266c0.16971,-0.00811 0.31236,0.0396 0.45424,0.13979c0.28411,0.17413 0.52803,0.41884 0.852,0.54866c0.06472,0.03123 0.11617,0.0772 0.1676,0.1232c0.27006,0.24141 0.56743,0.40078 0.87772,0.57166c0.11657,0.05096 0.27214,0.11012 0.22978,0.31197c-0.18632,0.23293 -0.3979,0.41661 -0.63481,0.55105c-0.21988,-0.11666 -0.45298,-0.21857 -0.60645,-0.40902c-0.02571,-0.02299 -0.07756,-0.04273 -0.1033,-0.06571c-0.29699,-0.18562 -0.60687,-0.38276 -0.8906,-0.58317c-0.129,-0.0887 -0.23185,-0.18069 -0.37415,-0.25464c-0.18124,-0.08219 -0.34887,-0.20538 -0.42392,-0.40564c0.05354,-0.0853 0.10663,-0.14436 0.14691,-0.21488c0.09294,-0.10332 0.21204,-0.20995 0.30495,-0.31327z" fill="#87d7dc"/><path d="M255.99146,202.49314c0.33937,-0.01623 0.61144,0.09388 0.87033,0.21881c0.06471,0.03123 0.14186,0.10022 0.18003,0.16094c0.26668,0.45147 0.58645,0.84394 0.91951,1.2216c0.01286,0.01151 0.02529,0.04924 0.0249,0.07551c-0.01454,0.09354 -0.08091,0.16736 -0.18588,0.20668c-0.02571,-0.02299 -0.06475,-0.0312 -0.09045,-0.05421c-0.29528,-0.29068 -0.63047,-0.53707 -1.01916,-0.69814c-0.19412,-0.09367 -0.3356,-0.22016 -0.4235,-0.43191c-0.08747,-0.23802 -0.21483,-0.43174 -0.27578,-0.69932z" fill="#cce5e6"/><path d="M257.13635,205.11479c-0.04107,0.12305 -0.10704,0.17061 -0.18546,0.18041c-0.64375,-0.52231 -0.64376,-0.52228 -1.39626,-0.76891c-0.19205,-0.22496 -0.31769,-0.52372 -0.457,-0.78149c0.06725,-0.12634 0.15763,-0.0721 0.22278,-0.06713c0.23439,0.02311 0.45593,0.03475 0.67662,0.09891c0.14273,0.0477 0.24598,0.11344 0.32228,0.23487c0.24181,0.376 0.50973,0.74868 0.81705,1.10337z" fill="#cce5e6"/><path d="M276.31986,218.27069c-0.04027,0.07055 -0.09339,0.12961 -0.14691,0.21489c0.07504,0.20028 0.24262,0.32345 0.42392,0.40564c0.14231,0.07394 0.24516,0.16589 0.37417,0.25465c0.28374,0.20039 0.59358,0.39753 0.89058,0.58317c0.02571,0.02299 0.07758,0.04272 0.10329,0.06572c0.1796,0.18719 0.39984,0.27762 0.60641,0.40904c-0.13191,0.09511 -0.25063,0.17545 -0.43401,0.22456c-0.39986,-0.2776 -0.83918,-0.53719 -1.23864,-0.84105c-0.39986,-0.2776 -0.85284,-0.49616 -1.23861,-0.84103c0.2253,-0.22467 0.43606,-0.35586 0.65966,-0.47555z" fill="#60adb2"/><path d="M261.67566,202.62143c0.04026,-0.07054 0.06727,-0.12635 0.10748,-0.19688c0.05228,-0.00654 0.0784,-0.00978 0.10451,-0.01306c0.27171,0.13637 0.5704,0.21698 0.88232,0.28284c0.12984,0.03618 0.2203,0.09041 0.27046,0.21516c0.11363,0.23477 0.26668,0.45147 0.24836,0.78135c-0.32648,0.02767 -0.62518,-0.05289 -0.91057,-0.1483c-0.05185,-0.01969 -0.10284,-0.092 -0.14101,-0.15271c-0.19162,-0.25117 -0.38327,-0.50246 -0.5616,-0.76844z" fill="#cce5e6"/><path d="M258.60838,199.50621c0.18169,0.05588 0.29868,0.08062 0.42854,0.11682c0.23356,0.07565 0.40112,0.19882 0.50149,0.44835c0.18908,0.40876 0.43094,0.78474 0.75237,1.07213c0.10285,0.09198 0.10242,0.11822 -0.06973,0.2839c-0.03857,-0.0345 -0.09044,-0.05419 -0.12902,-0.08872c-0.3082,-0.30217 -0.6566,-0.53378 -1.04488,-0.72112c-0.09041,-0.05424 -0.168,-0.09694 -0.20578,-0.18393c-0.08668,-0.29055 -0.19985,-0.55156 -0.23294,-0.92741z" fill="#cae2e3"/><path d="M258.71601,203.38437c-0.0261,0.00324 -0.06518,-0.00496 -0.07799,-0.01646c-0.26918,-0.29391 -0.60517,-0.48778 -0.9416,-0.65542c-0.31027,-0.17085 -0.55462,-0.38931 -0.6661,-0.75535c-0.04933,-0.17728 -0.17751,-0.31847 -0.1874,-0.51381c0.48247,0.0052 0.84418,0.2221 1.03411,0.57835c0.24095,0.4285 0.45577,0.86023 0.84197,1.17889c0.02531,0.04924 0.07671,0.09525 -0.00293,0.18381z" fill="#c9e1e2"/><path d="M257.69184,200.55104c0.33851,0.03632 0.57162,0.1382 0.8176,0.25161c0.07756,0.04274 0.14184,0.10021 0.16674,0.17571c0.24054,0.45477 0.52047,0.89146 0.82696,1.29867c0.02571,0.02299 0.05102,0.07222 -0.02824,0.13455c-0.09,-0.08047 -0.19286,-0.17243 -0.29615,-0.23816c-0.27043,-0.21516 -0.55417,-0.41554 -0.87815,-0.54538c-0.23314,-0.10188 -0.38701,-0.26611 -0.44835,-0.5074c-0.04933,-0.17728 -0.08585,-0.34304 -0.16046,-0.56959z" fill="#c9e1e2"/><path d="M262.38358,201.57646c0.0154,-0.14607 0.08179,-0.21988 0.14817,-0.29368c0.02611,-0.00327 0.06516,0.00495 0.09125,0.00171c0.23229,0.15442 0.50484,0.23828 0.79149,0.25484c0.16926,0.01817 0.28539,0.09538 0.36129,0.24313c0.08835,0.18548 0.20282,0.36773 0.25175,0.57128c-0.26176,0.05891 -0.64017,0.0669 -0.76957,0.00444c-0.09084,-0.02794 -0.11574,-0.10344 -0.16673,-0.17572c-0.23185,-0.18068 -0.41024,-0.44666 -0.7076,-0.60603z" fill="#cae3e4"/><path d="M258.6913,207.38382c-0.07296,-0.33154 -0.18572,-0.61883 -0.32466,-0.90286c0.05392,-0.11153 0.10708,-0.17065 0.21202,-0.20995c0.29782,0.13309 0.54128,0.40407 0.85242,0.52243c0.07502,0.20028 0.04599,0.38735 0.05594,0.58265c-0.00167,0.105 0.02278,0.20675 -0.0573,0.32162c-0.27339,-0.03136 -0.46584,-0.23005 -0.73838,-0.31393z" fill="#c8e0e1"/><path d="M260.21139,204.48158c0.13234,-0.12136 0.19707,-0.09014 0.26177,-0.05893c0.24601,0.11339 0.47911,0.21529 0.71182,0.34343c0.06473,0.03123 0.11615,0.0772 0.14105,0.1527c0.04847,0.22977 0.0837,0.47433 0.09282,0.72216c-0.14352,0.00481 -0.23398,-0.04939 -0.35097,-0.07409c-0.35093,-0.07409 -0.58281,-0.25473 -0.61597,-0.63057c-0.02319,-0.18056 -0.12522,-0.32504 -0.24054,-0.45475z" fill="#cbe4e5"/><path d="M259.37491,205.41158c0.06636,-0.07382 0.1062,-0.1181 0.14603,-0.1624c0.03899,0.00825 0.07842,-0.00977 0.09126,0.0017c0.16796,0.09697 0.32274,0.20863 0.49073,0.30555c0.09043,0.05426 0.14144,0.12649 0.16589,0.22825c0.07338,0.30529 0.1206,0.61388 0.12803,0.96674c-0.20868,-0.00011 -0.33765,-0.08882 -0.46666,-0.17751c-0.0514,-0.04599 -0.10285,-0.092 -0.11489,-0.15595c-0.03312,-0.37585 -0.21063,-0.69437 -0.4404,-1.00634z" fill="#c8e0e1"/><path d="M263.07556,208.88004c0.14144,0.12647 0.28247,0.2792 0.49032,0.33183c0.07799,0.01646 0.12896,0.08871 0.19328,0.14617c-0.21286,0.26244 -0.46389,0.46416 -0.75308,0.6051c-0.15346,-0.19048 -0.38656,-0.29236 -0.56742,-0.40077c0.02864,-0.16081 0.16018,-0.22967 0.2141,-0.34121c0.10665,-0.14436 0.2523,-0.28048 0.4228,-0.34111z" fill="#85d5d9"/><path d="M260.24757,198.94764c0.12649,0.24626 0.253,0.49248 0.4056,0.73549c0.14018,0.20523 0.45214,0.27107 0.44582,0.66496c-0.43718,-0.39084 -0.9159,-0.63242 -1.39458,-0.87398c-0.07502,-0.20028 -0.1497,-0.42679 -0.13261,-0.67789c0.05228,-0.00654 0.07842,-0.00979 0.10452,-0.01307c0.19495,0.04114 0.37669,0.09705 0.57119,0.16445z" fill="#c6dede"/><path d="M255.49691,202.42396c0.12566,0.2988 0.23884,0.55975 0.36452,0.85855c-0.18336,0.0491 -0.32608,0.00143 -0.4696,0.00627c-0.15639,-0.00662 -0.32652,0.02769 -0.48204,-0.03149c-0.09,-0.08047 -0.11406,-0.20849 -0.15138,-0.32173c-0.03732,-0.11325 -0.06133,-0.2413 -0.07212,-0.38409c0.26303,-0.13769 0.52356,-0.11781 0.81067,-0.12749z" fill="#cae3e3"/><path d="M256.31233,206.08254c-0.47871,-0.24153 -0.89312,-0.42559 -1.37431,-0.50958c-0.11405,-0.20854 -0.24136,-0.40223 -0.36826,-0.62224c0.27549,-0.09995 0.49619,-0.03581 0.73052,-0.01268c0.03899,0.00825 0.07757,0.04274 0.10326,0.06573c0.28161,0.33167 0.56329,0.66338 0.90876,1.07877z" fill="#cae3e4"/><path d="M262.29514,204.66668c-0.33851,-0.03632 -0.63762,-0.09065 -0.77526,-0.45343c-0.10037,-0.24954 -0.27996,-0.43675 -0.45955,-0.62394c-0.07716,-0.06898 -0.02364,-0.15427 0.08177,-0.21988c0.17919,0.21344 0.43847,0.31211 0.69774,0.41072c0.19455,0.0674 0.28373,0.20037 0.33307,0.37767c0.04974,0.15102 0.13891,0.28402 0.12228,0.50887z" fill="#c8e0e1"/><path d="M261.89538,208.4641c0.28834,-0.08844 0.40277,0.0938 0.5438,0.24653c0.02402,0.12799 -0.08132,0.1936 -0.13484,0.2789c-0.18545,0.18041 -0.39625,0.31155 -0.63276,0.41974c-0.12817,-0.1412 -0.3227,-0.20864 -0.38491,-0.39739c0.05355,-0.08531 0.09338,-0.12961 0.14647,-0.18864c0.1585,-0.12464 0.31697,-0.24928 0.46222,-0.35913z" fill="url(#color-15)"/><path d="M260.6978,205.87515c0.27254,0.08388 0.49281,0.17426 0.72638,0.2499c0.02193,0.25932 0.01778,0.52188 -0.02546,0.77626c-0.11867,0.08037 -0.22237,0.04089 -0.31363,0.0392c-0.09127,-0.0017 -0.18252,-0.00339 -0.25925,-0.09865c-0.04805,-0.25607 -0.08202,-0.57936 -0.12804,-0.96672z" fill="#c7dfe0"/><path d="M263.41245,204.12088c0.03564,0.21832 0.08453,0.42182 0.06751,0.67292c-0.27506,0.0737 -0.49574,0.00955 -0.75585,-0.03657c-0.06135,-0.24128 -0.12273,-0.48257 -0.19693,-0.7354c0.31279,0.01334 0.57294,0.05947 0.88529,0.09904z" fill="#c8e0e1"/><path d="M255.72278,201.34744c0.20911,-0.02611 0.41817,-0.05222 0.62601,0.00041c0.10037,0.24954 0.18741,0.5138 0.28734,0.78957c-0.02654,0.02951 -0.0531,0.05902 -0.06597,0.04752c-0.1954,-0.0149 -0.40362,-0.04128 -0.58574,-0.07092c-0.07799,-0.01646 -0.14273,-0.04769 -0.15474,-0.11167c-0.07462,-0.22653 -0.18909,-0.40877 -0.10693,-0.65492z" fill="#c4dcdd"/><path d="M258.15295,199.44518c0.06093,0.26755 0.13514,0.52033 0.19609,0.7879c-0.14479,0.08358 -0.24764,-0.00839 -0.36466,-0.03307c-0.11696,-0.02469 -0.23356,-0.07563 -0.3634,-0.11181c-0.08791,-0.21176 -0.05793,-0.45135 -0.08033,-0.68444c0.23602,-0.0819 0.41776,-0.02599 0.61229,0.04144z" fill="#c8e0e1"/><path d="M263.71986,203.65014c-0.08704,-0.26429 -0.17456,-0.50235 -0.27447,-0.77811c0.23564,-0.05569 0.44349,-0.00298 0.66587,-0.04389c0.12688,0.22001 0.10986,0.47109 0.15791,0.72714c-0.20992,0.07864 -0.38045,0.13926 -0.54927,0.09483z" fill="#c6ddde"/><path d="M263.00109,200.47728c0.35139,0.04781 0.66208,0.1924 1.02757,0.17294c0.11449,0.18223 0.22936,0.33825 0.27786,0.56803c-0.24935,0.09666 -0.45804,0.09656 -0.62433,-0.10541c-0.1916,-0.25119 -0.44962,-0.42862 -0.68109,-0.63555z" fill="#b9cfd0"/><path d="M255.38877,206.74826c-0.11825,0.05408 -0.14275,-0.04766 -0.20741,-0.07889c-0.14228,-0.07396 -0.27127,-0.16262 -0.42813,-0.14303c-0.24767,-0.00836 -0.37584,-0.14955 -0.50358,-0.31706c-0.05101,-0.07227 -0.08876,-0.15926 -0.15221,-0.26925c0.31407,-0.06548 0.57543,-0.0981 0.76662,0.17935c0.12734,0.19373 0.32063,0.33994 0.47451,0.50413c0.03856,0.03451 0.07715,0.06898 0.05018,0.12476z" fill="#c0d8d8"/><path d="M258.38917,208.33871c-0.18213,-0.02966 -0.31152,-0.0921 -0.4144,-0.18405c-0.0514,-0.04599 -0.11577,-0.10345 -0.12777,-0.16746c-0.04765,-0.28232 -0.14801,-0.53182 -0.24836,-0.78136c0.09296,-0.10331 0.13108,-0.04258 0.1697,-0.0081c0.12858,0.11497 0.27006,0.24141 0.42518,0.32685c0.19371,0.11992 0.2696,0.26768 0.22685,0.49579c-0.0278,0.1083 -0.02908,0.18707 -0.03117,0.31832z" fill="#c1d9d9"/><path d="M262.36598,205.12957c0.06177,0.21499 0.05839,0.42512 0.08077,0.65816c-0.22319,0.09341 -0.40445,0.01121 -0.59988,-0.00366c-0.07422,-0.25279 -0.0439,-0.51862 -0.05255,-0.79271c0.22154,0.01163 0.38998,0.0823 0.57167,0.1382z" fill="#c3dbdc"/><path d="M257.42121,201.16147c-0.25971,-0.07235 -0.49327,-0.14803 -0.74008,-0.2089c-0.06265,-0.16252 -0.11236,-0.31354 -0.07004,-0.51538c0.22239,-0.04089 0.41733,0.00028 0.62561,0.02662c0.11404,0.20853 0.17584,0.42349 0.18449,0.69758z" fill="#c3dadb"/><path d="M261.77574,206.97222c0.01706,-0.2511 0.0337,-0.47591 0.05032,-0.70073c0.22278,-0.06715 0.41776,-0.026 0.61272,0.01514c0.02279,0.20679 0.0066,0.40536 -0.04908,0.62193c-0.06555,0.02129 -0.15725,0.04583 -0.20949,0.05239c-0.14353,0.00483 -0.24766,-0.00835 -0.4045,0.01123z" fill="#c4dbdc"/><path d="M256.87172,207.80769c0.24433,0.21846 0.43721,0.39092 0.64296,0.57479c0.02364,0.15429 0.00822,0.30035 -0.0727,0.46766c-0.14394,0.03106 -0.20741,-0.07891 -0.31112,-0.11838c-0.10369,-0.03945 -0.19412,-0.09367 -0.25844,-0.15113c0.00417,-0.26263 0.00753,-0.47269 -0.0007,-0.773z" fill="#c2d9da"/><path d="M254.61461,202.14105c-0.04975,-0.15102 -0.06055,-0.29379 -0.03229,-0.42835c0.09338,-0.12958 0.22367,-0.11963 0.32859,-0.15898c0.10493,-0.03934 0.19746,-0.1164 0.3273,-0.0802c0.10203,0.14449 0.1248,0.35129 0.17335,0.58109c-0.13071,0.01635 -0.2614,0.03268 -0.37921,0.06048c-0.14352,0.00481 -0.28707,0.0097 -0.41778,0.02601z" fill="#c5ddde"/><path d="M263.48609,205.22543c0.06221,0.1888 -0.00545,0.34138 -0.00795,0.49892c-0.21035,0.10488 -0.41903,0.10476 -0.65385,0.10794c-0.00995,-0.19529 -0.01984,-0.39063 -0.04304,-0.5712c0.24933,-0.09664 0.47007,-0.03253 0.70484,-0.03567z" fill="#c3dbdc"/><path d="M255.00748,204.48986c-0.09171,0.02459 -0.14394,0.03112 -0.1962,0.03768c-0.11738,0.00156 -0.24768,-0.00835 -0.39122,-0.00353c-0.08704,-0.26429 -0.21398,-0.48427 -0.20937,-0.77313c0.11867,-0.08037 0.2228,-0.06718 0.36592,-0.04574c0.13976,0.23149 0.29194,0.50074 0.43092,0.78473z" fill="#c7dfe0"/><path d="M260.45401,207.25529c-0.02991,0.23958 0.01899,0.4431 -0.06277,0.66297c-0.19667,0.06385 -0.35136,-0.04779 -0.52146,-0.01345c-0.04764,-0.28232 -0.01778,-0.5219 -0.01357,-0.78449c0.24854,-0.04415 0.38994,0.08229 0.59781,0.13492z" fill="#c7dee0"/><path d="M262.63995,209.20958c-0.05392,0.11155 -0.18547,0.18039 -0.21409,0.34122c0.19371,0.11992 0.41355,0.23659 0.56743,0.40079c-0.06598,0.04757 -0.14524,0.10986 -0.22402,0.14594c-0.11825,0.05408 -0.23563,0.05563 -0.32568,-0.02483c-0.16757,-0.12317 -0.32229,-0.23485 -0.48989,-0.35809c0.17262,-0.19193 0.26513,-0.26899 0.68626,-0.50505z" fill="#61acb1"/><path d="M259.1574,198.61213c0.03564,0.21832 0.05883,0.39881 0.08119,0.6319c-0.24683,-0.06087 -0.48077,-0.11024 -0.71434,-0.18588c-0.0365,-0.16574 -0.06008,-0.32008 -0.04431,-0.49238c0.24851,-0.04415 0.44346,-0.00301 0.67743,0.04637z" fill="#c2dada"/><path d="M258.73843,208.51784c-0.03564,-0.21832 -0.00657,-0.40538 0.0101,-0.63023c0.23314,0.10188 0.44056,0.18081 0.64799,0.25972c0.06264,0.16251 0.00824,0.30034 -0.0337,0.47591c-0.2095,0.0524 -0.39082,-0.02979 -0.62432,-0.10541z" fill="#c1d9d9"/><path d="M257.20484,200.00922c-0.2481,0.01788 -0.43061,0.01449 -0.62644,0.02585c-0.08875,-0.15926 -0.07254,-0.35782 -0.05631,-0.55641c0.18379,-0.07536 0.36714,-0.12448 0.57543,-0.09809c0.11447,0.18224 0.04597,0.38738 0.10736,0.62865z" fill="#c6dedf"/><path d="M264.30147,203.9836c0.02279,0.20678 0.01941,0.41689 0.02936,0.61218c-0.13234,0.12136 -0.26344,0.16395 -0.43316,0.17206c-0.11404,-0.20853 -0.05795,-0.45136 -0.10649,-0.68117c0.17093,-0.08691 0.3273,-0.0802 0.51028,-0.10309z" fill="#c0d7d7"/><path d="M254.1653,204.96186c0.08834,0.18549 0.22933,0.33823 0.23847,0.58604c-0.16971,0.00811 -0.32653,0.02767 -0.48332,0.04728c-0.15427,-0.13796 -0.21647,-0.32672 -0.21311,-0.53678c0.1448,-0.0836 0.27546,-0.09992 0.45799,-0.09656z" fill="#c3dadb"/><path d="M261.44645,208.80849c-0.05313,0.05904 -0.09337,0.12962 -0.14648,0.18869c0.06221,0.18881 0.25672,0.25618 0.38491,0.39739c-0.08008,0.11483 -0.21037,0.10491 -0.31614,0.19673c-0.22027,-0.0904 -0.33477,-0.27263 -0.59485,-0.31875c0.11993,-0.1591 0.23813,-0.21319 0.36969,-0.28207c0.0921,-0.05085 0.15937,-0.17715 0.30286,-0.18196z" fill="url(#color-16)"/><path d="M264.84019,200.47007c0.08833,0.18549 0.22937,0.33826 0.23887,0.5598c-0.11867,0.08037 -0.22325,0.09341 -0.38004,0.11304c-0.11489,-0.15599 -0.20323,-0.34149 -0.2393,-0.53353c0.11868,-0.08035 0.21037,-0.10491 0.38045,-0.13926z" fill="#bdd3d4"/><path d="M262.79633,206.76599c0.01581,-0.17234 0.01833,-0.32987 0.02083,-0.48739c0.18379,-0.07537 0.35348,-0.08349 0.536,-0.0801c0.06301,0.13625 -0.00417,0.26263 -0.09712,0.36593c-0.11948,0.13288 -0.23896,0.26572 -0.45969,0.20159z" fill="#bdd4d5"/><path d="M260.8845,198.26527c0.0879,0.21176 0.16297,0.41206 0.25088,0.62377c-0.40279,-0.09376 -0.71349,-0.23842 -0.66653,-0.72909c0.14394,-0.03106 0.26011,0.04613 0.41564,0.1053z" fill="#bbd2d3"/><path d="M261.26577,207.87451c-0.15765,0.07208 -0.28793,0.06218 -0.41819,0.05221c-0.09,-0.08047 -0.04932,-0.17731 -0.04762,-0.28233c0.00126,-0.07877 -0.01034,-0.16901 0.05649,-0.2691c0.15765,-0.07208 0.28622,0.04282 0.45673,-0.01779c0.03609,0.19205 0.00743,0.35285 -0.04733,0.51693z" fill="#c3dadb"/><path d="M258.96994,202.99888c-0.20486,-0.23649 -0.40978,-0.4729 -0.56156,-0.76843c0.09252,-0.07706 0.17014,-0.03437 0.23438,0.02313c0.18043,0.13469 0.34757,0.2841 0.50188,0.42207c0.11572,0.10345 0.06178,0.21506 -0.1747,0.3232z" fill="#b1c6c7"/><path d="M265.08401,203.16514c-0.07632,-0.12146 -0.03524,-0.24456 -0.0464,-0.36107c-0.03564,-0.21832 0.071,-0.36267 0.29467,-0.48234c0.10035,0.24954 0.05672,0.53015 0.02684,0.76971c-0.1058,0.09185 -0.17138,0.11315 -0.27506,0.0737z" fill="#bbd2d3"/><path d="M260.62057,200.90576c-0.29743,-0.15938 -0.42305,-0.45813 -0.57486,-0.75365c0.2597,0.07235 0.45256,0.24482 0.64587,0.39099c0.12901,0.08871 0.11492,0.156 -0.07101,0.36265z" fill="#bad1d2"/><path d="M263.89776,199.86724c0.19582,-0.01135 0.36592,-0.04572 0.56169,-0.05709c0.05102,0.07226 0.1012,0.19701 0.16465,0.30701c-0.30329,0.20825 -0.31615,0.19674 -0.47007,0.03252c-0.08999,-0.08049 -0.16674,-0.17573 -0.25632,-0.28245z" fill="#b5cbcc"/><path d="M255.61732,199.78823c0.17136,-0.11312 0.31533,-0.14425 0.45926,-0.17533c0.07591,0.14775 0.02108,0.31184 0.00531,0.48416c-0.15724,0.04589 -0.30118,0.07691 -0.45841,0.12278c-0.10245,-0.11822 -0.00869,-0.27406 -0.00614,-0.43165z" fill="#c0d7d8"/><path d="M264.10357,201.67603c0.10538,-0.06555 0.2228,-0.06718 0.35306,-0.05725c0.12731,0.19375 0.17586,0.42353 0.17203,0.65986c-0.08008,0.11483 -0.14522,0.10986 -0.23603,0.0819c-0.1008,-0.22323 -0.20155,-0.44651 -0.28904,-0.68454z" fill="#bdd4d4"/><path d="M259.09816,198.23956c-0.1954,-0.0149 -0.39035,-0.05603 -0.58576,-0.07093c-0.01117,-0.11653 0.02949,-0.21335 0.10913,-0.30192c0.10537,-0.06555 0.19621,-0.03765 0.30033,-0.02446c0.07799,0.01646 0.15599,0.03293 0.23398,0.04939c0.03733,0.11328 0.03565,0.21832 -0.05774,0.34792z" fill="#b6cccc"/><path d="M256.22526,200.91778c-0.19581,0.01135 -0.36549,0.01945 -0.5746,0.0456c-0.06387,-0.08372 -0.10122,-0.19701 -0.02028,-0.36437c0.15723,-0.04591 0.32732,-0.08022 0.51068,-0.12934c0.04974,0.15102 0.09994,0.27578 0.08414,0.4481z" fill="#c1d9d9"/><path d="M260.0278,198.00553c0.04974,0.15102 0.07381,0.27905 0.04514,0.43986c-0.19582,0.01135 -0.35096,-0.0741 -0.49365,-0.12177c-0.07632,-0.12146 -0.02236,-0.23304 0.00544,-0.34134c0.05269,-0.03278 0.07925,-0.06232 0.0921,-0.05085c0.11696,0.02471 0.23395,0.04939 0.35096,0.0741z" fill="#b7cdce"/><path d="M261.83748,198.21165c-0.24768,-0.00838 -0.36341,-0.11182 -0.50569,-0.18575c-0.16842,-0.07067 -0.14019,-0.20523 -0.11155,-0.36604c0.19582,-0.01135 0.33809,0.06258 0.49408,0.09551c0.10202,0.14449 0.00783,0.3266 0.12314,0.45632z" fill="#b6cccc"/><path d="M265.21665,201.39278c0.03649,0.16576 0.06053,0.29378 0.09743,0.43332c-0.10665,0.14436 -0.18632,0.23293 -0.34354,0.27879c-0.03606,-0.19206 -0.0854,-0.36932 -0.12189,-0.53508c0.08089,-0.16735 0.21118,-0.15739 0.30369,-0.2345c0.02571,0.02299 0.06473,0.03122 0.06432,0.05748z" fill="#c2dada"/><path d="M255.1583,200.76279c0.05014,0.12476 0.04893,0.20353 0.00827,0.30035c-0.06683,0.10009 -0.17136,0.11311 -0.27631,0.15247c-0.09171,0.02459 -0.19749,0.1164 -0.30078,0.05069c-0.01074,-0.14279 0.00461,-0.28883 0.09841,-0.4447c0.17009,-0.03437 0.31365,-0.0392 0.47047,-0.0588z" fill="#bbd2d3"/><path d="M259.7394,208.72035c0.02865,-0.16081 0.0436,-0.28062 0.07182,-0.41517c0.18297,-0.02289 0.33893,0.01008 0.50822,0.02821c0.02403,0.12801 0.0091,0.24784 -0.08389,0.35113c-0.03942,0.01805 -0.07882,0.03604 -0.11784,0.02784c-0.10452,0.01307 -0.22197,0.01461 -0.37836,0.00796z" fill="#bbd2d3"/><path d="M264.24333,199.45723c-0.30079,0.05069 -0.3008,0.0507 -0.58574,-0.07094c-0.03648,-0.16578 0.0569,-0.29538 0.13783,-0.4627c0.21988,0.11667 0.32063,0.33991 0.44795,0.53365z" fill="#adc2c3"/><path d="M261.67154,207.78449c-0.02403,-0.12801 0.00421,-0.26261 0.0843,-0.3774c0.18297,-0.02289 0.33973,-0.04251 0.5094,-0.05055c-0.09713,0.36593 -0.11039,0.3807 -0.5937,0.42802z" fill="#b5cbcc"/><path d="M258.06306,198.53925c0.02365,0.15429 0.03478,0.27083 0.00612,0.43165c-0.17048,0.0606 -0.32608,0.00142 -0.50862,-0.00197c-0.01201,-0.06402 -0.01116,-0.11651 -0.01036,-0.16903c0.00083,-0.05253 0.02779,-0.1083 0.04192,-0.1756c0.15809,-0.09837 0.3016,-0.10319 0.47089,-0.08505z" fill="#bbd1d2"/><path d="M258.3384,209.06576c-0.22279,0.06715 -0.39036,-0.05604 -0.55961,-0.07417c-0.03688,-0.13951 0.04318,-0.25438 0.07144,-0.38896c0.23438,0.02309 0.38952,0.10856 0.49113,0.27932c0.03857,0.0345 0.01118,0.11652 -0.00292,0.18379z" fill="#b6cccd"/><path d="M253.80532,203.81458c0.07422,0.25279 0.12228,0.50885 0.18363,0.75012c-0.10582,0.09184 -0.19746,0.1164 -0.3406,0.095c-0.0087,-0.27406 -0.01733,-0.54815 0.05239,-0.83203c0.0523,-0.00654 0.07841,-0.00979 0.10452,-0.01308z" fill="#acc1c2"/><path d="M259.3494,201.28742c0.207,0.10516 0.40071,0.2251 0.54129,0.40405c0.051,0.07227 0.06262,0.16251 -0.00375,0.23631c-0.02654,0.02949 -0.10537,0.06555 -0.11825,0.05407c-0.20614,-0.15768 -0.3061,-0.43344 -0.4193,-0.69445z" fill="#a7bbbb"/><path d="M257.17481,198.62403c0.05059,0.09852 0.02279,0.20679 -0.0183,0.32986c-0.17009,0.03437 -0.3402,0.06871 -0.51028,0.10308c-0.04974,-0.15102 0.01707,-0.25107 0.10999,-0.3544c0.11825,-0.05408 0.27505,-0.07371 0.41862,-0.0785z" fill="#b7cdcd"/><path d="M263.89547,205.72454c-0.06221,-0.18881 -0.03351,-0.34959 0.00839,-0.52518c0.1448,-0.0836 0.2759,-0.12621 0.44473,-0.08178c-0.0822,0.24612 -0.25439,0.41177 -0.4531,0.60695z" fill="#b7cece"/><path d="M256.43759,208.85777c-0.24725,-0.03462 -0.36129,-0.24311 -0.55627,-0.28423c-0.02402,-0.12799 0.04195,-0.17557 0.1071,-0.17063c0.16927,0.01815 0.33812,0.06257 0.46665,0.17754c0.02531,0.04925 0.03815,0.06076 -0.01746,0.27737z" fill="#b4cacb"/><path d="M254.42643,203.30461c-0.11823,0.05408 -0.19664,0.06388 -0.28749,0.03596c-0.03564,-0.21832 -0.08413,-0.44811 -0.00111,-0.74675c0.23185,0.18068 0.24093,0.4285 0.28861,0.7108z" fill="#b2c8c9"/><path d="M260.7102,208.36324c0.15724,-0.04589 0.27506,-0.07368 0.37876,-0.03422c0.03816,0.06075 0.0112,0.11655 -0.0158,0.17234c-0.10789,0.22311 -0.26432,0.21645 -0.45925,0.17531c0.04064,-0.0968 0.06848,-0.20513 0.09628,-0.3134z" fill="#b5cbcb"/><path d="M261.38165,199.80173c-0.18043,-0.13468 -0.32187,-0.26112 -0.43632,-0.44336c0.05355,-0.08529 0.11865,-0.08035 0.15724,-0.04587c0.1033,0.06572 0.21988,0.11668 0.32314,0.18238c0.10285,0.09198 0.07545,0.17399 -0.04405,0.30684z" fill="#91a3a3"/><path d="M256.07892,205.18146c0.24725,0.03462 0.40113,0.19882 0.55541,0.33679c0.02571,0.02299 0.02489,0.07551 0.01116,0.11652c-0.02654,0.02951 -0.0921,0.05085 -0.10498,0.03934c-0.21988,-0.11667 -0.36045,-0.29563 -0.46164,-0.49264z" fill="#99abac"/><path d="M255.87883,206.28083c-0.04151,0.14933 -0.1079,0.22312 -0.19876,0.19516c-0.11657,-0.05096 -0.21858,-0.19544 -0.33265,-0.40391c0.22156,0.0116 0.36297,0.13807 0.53137,0.20874z" fill="#93a5a6"/><path d="M265.02909,204.1547c-0.03519,-0.24457 -0.09659,-0.48585 0.24529,-0.65962c0.04803,0.25607 -0.12454,0.44796 -0.24529,0.65962z" fill="#9aadad"/><path d="M262.50291,202.26913c-0.14272,-0.04769 -0.29826,-0.10684 -0.42811,-0.14307c-0.02444,-0.10177 0.00251,-0.15756 0.09506,-0.23462c0.18216,0.02965 0.25764,0.20367 0.38663,0.29235c-0.02654,0.02951 -0.03985,0.04427 -0.05355,0.08533z" fill="#c5dddd"/><path d="M257.81661,203.3526c0.28665,0.01659 0.45382,0.16608 0.56788,0.37454c0.01286,0.01151 -0.00083,0.05254 -0.02739,0.08206c-0.02699,0.05578 -0.0921,0.05084 -0.11782,0.02783c-0.15474,-0.11166 -0.2692,-0.29396 -0.42267,-0.48442z" fill="#aec2c3"/><path d="M258.71841,208.95276c0.19582,-0.01135 0.36422,0.0593 0.51979,0.11851c0.02447,0.10175 -0.04152,0.14934 -0.11951,0.13289c-0.14315,-0.02143 -0.27339,-0.03138 -0.41607,-0.07907c-0.0523,0.00654 -0.05101,-0.07223 0.01581,-0.17231z" fill="#9caeaf"/><path d="M256.2011,199.16499c-0.1581,0.09838 -0.28916,0.14096 -0.45928,0.17531c0.12117,-0.2379 0.3058,-0.36579 0.46514,-0.54292c0.02531,0.04926 0.051,0.07227 0.05057,0.0985c-0.01454,0.09354 -0.04192,0.17556 -0.05643,0.26909z" fill="#a9bebf"/><path d="M258.89682,205.94305c0.06725,-0.12634 0.13318,-0.17387 0.22493,-0.19845c0.14184,0.10022 0.21772,0.24796 0.21355,0.51056c-0.18087,-0.10844 -0.29657,-0.2119 -0.43846,-0.31209z" fill="#b9cfd0"/><path d="M262.74456,201.02036c-0.02444,-0.10175 0.01583,-0.17231 0.05605,-0.24286c0.09211,-0.05082 0.15639,0.00664 0.42516,0.32686c-0.23647,0.10817 -0.33812,-0.06257 -0.48124,-0.08402z" fill="#869797"/><path d="M257.04566,204.26136c0.16591,0.22823 0.46544,0.25633 0.43383,0.60094c-0.24601,-0.11337 -0.38702,-0.26608 -0.43383,-0.60094z" fill="#93a4a5"/><path d="M261.44201,198.47074c0.19286,0.17244 0.32146,0.28742 0.45004,0.40237c0.02571,0.02299 0.02489,0.07551 -0.01496,0.11977c-0.01328,0.01479 -0.0527,0.03279 -0.07884,0.03608c-0.18086,-0.1084 -0.32235,-0.23491 -0.35627,-0.5582z" fill="#94a5a6"/><path d="M263.18912,200.13927c0.02826,-0.13455 0.05518,-0.19034 0.17301,-0.21818c0.11614,0.07719 0.24516,0.16591 0.33391,0.32518c-0.2228,0.06712 -0.35135,-0.04782 -0.50691,-0.10697z" fill="#abbfc0"/><path d="M260.89498,197.60878c-0.04065,0.09679 -0.05436,0.13782 -0.08094,0.16737c-0.32608,0.00144 -0.32605,0.00144 -0.46621,-0.20379c0.20992,-0.07864 0.3385,0.03628 0.54715,0.03645z" fill="#acc0c1"/><path d="M264.5845,203.41092c-0.02319,-0.18056 -0.07254,-0.35781 -0.08246,-0.55312c0.00126,-0.07877 0.05439,-0.13781 0.17135,-0.11311c0.03564,0.21832 0.05841,0.42509 -0.08889,0.66624z" fill="#9fb2b2"/><path d="M258.09503,198.16834c-0.11786,0.02783 -0.19624,0.03761 -0.28707,0.00968c-0.0249,-0.07552 -0.01078,-0.1428 0.04275,-0.2281c0.09254,-0.07706 0.20992,-0.07862 0.32731,-0.08019c0.05059,0.09852 -0.0162,0.19855 -0.08302,0.2986z" fill="#aec2c3"/><path d="M260.99924,204.14724c-0.17047,0.06061 -0.26054,-0.01987 -0.36382,-0.08557c-0.03856,-0.03451 -0.02444,-0.10173 0.01539,-0.14604c0.02654,-0.02951 0.09213,-0.05085 0.11782,-0.02783c0.11696,0.02469 0.1676,0.1232 0.23059,0.25946z" fill="#91a2a3"/><path d="M255.14389,200.03084c0.07253,0.35783 0.07217,0.38408 -0.28048,0.41506c0.08052,-0.14108 0.10915,-0.30192 0.28048,-0.41506z" fill="#869696"/><path d="M255.12238,207.09599c-0.22238,0.04088 -0.25967,-0.07235 -0.33643,-0.16761c0.18379,-0.07535 0.18379,-0.07535 0.33643,0.16761z" fill="#555f5f"/><path d="M261.46197,202.93642c0.0643,0.05749 0.15428,0.13795 0.20449,0.26272c-0.23523,0.02939 -0.28664,-0.01659 -0.32357,-0.15608c-0.01243,-0.03776 0.02739,-0.08207 0.11908,-0.10659z" fill="#93a5a6"/><path d="M262.10255,197.94275c0.28708,-0.00968 0.29953,0.02806 0.12563,0.29877c-0.11659,-0.05097 -0.12777,-0.16745 -0.12563,-0.29877z" fill="#8b9b9c"/><path d="M254.39354,207.00364c0.16842,0.07068 0.25797,0.1774 0.34758,0.28416c-0.04108,0.12305 -0.10666,0.14434 -0.15808,0.09835c-0.10287,-0.09197 -0.19245,-0.1987 -0.18952,-0.38247z" fill="#9aacad"/><path d="M259.70974,197.50796c0.14394,-0.03106 0.26222,-0.08516 0.35181,0.02156c0.01285,0.01153 0.01246,0.03775 -0.00082,0.05252c-0.14524,0.10987 -0.24896,0.07041 -0.35096,-0.07409z" fill="#5f6a6b"/><path d="M260.00676,205.0444c-0.09127,-0.0017 -0.14273,-0.0477 -0.18086,-0.10845c-0.01243,-0.03776 -0.0116,-0.09027 0.02782,-0.10829c0.03942,-0.01805 0.09171,-0.02459 0.11739,-0.00155c0.0514,0.04599 0.08957,0.10674 0.03562,0.21829z" fill="#636e6f"/><path d="M257.15421,198.28587c0.05439,-0.13781 0.13361,-0.20014 0.28958,-0.16723c-0.0548,0.16407 -0.14646,0.18866 -0.28958,0.16723z" fill="#4a5354"/></g><g data-paper-data="{&quot;index&quot;:null}" fill="#000000" stroke="#000000" stroke-width="1.2"><path d="M267.70743,224.83817c-1.67722,-0.83853 -2.58603,-4.02169 -4.05459,-5.74478c-1.58111,-1.85515 -3.56874,-2.16954 -3.7369,-3.79727c-0.11744,-1.13694 1.0425,-2.34383 1.72278,-2.89728c1.6542,-1.34584 5.17224,0.1175 7.85775,3.26844c2.68552,3.15095 3.52158,6.79632 1.86739,8.14214c-0.74959,0.60987 -2.26655,1.72359 -3.65641,1.02876z"/><path d="M271.79553,223.92371c-2.32617,-1.19043 -5.30367,-6.29435 -5.30367,-6.29435c0,0 -3.3247,-2.08445 -3.37885,-2.15047c-3.4515,-4.20605 -0.62597,-6.58249 2.63132,-9.23256c1.55025,-1.26127 4.42418,-2.62568 6.37663,-2.01833c2.21432,0.68879 3.49431,3.12803 5.46601,5.44148c3.71024,4.35328 4.90179,9.64985 1.59339,12.34152c-1.45634,1.18485 -4.27796,3.50265 -7.38484,1.9127z"/></g></g><path d="M245.57098,202.12575c0,0.55609 -4.55133,1.0069 -10.16568,1.0069c-5.61435,0 -10.16568,-7.22734 -10.16568,-7.78344c0,-0.55609 4.55133,5.76964 10.16568,5.76964c5.61435,0 10.16568,0.4508 10.16568,1.0069z" fill="#ff0000" fill-rule="nonzero" stroke="#000000" stroke-width="3" stroke-linecap="butt" stroke-linejoin="miter"/><path d="M220.45729,181.82236l18.05086,5.69036v6.25" fill="none" fill-rule="nonzero" stroke="#000000" stroke-width="5" stroke-linecap="round" stroke-linejoin="miter"/><path d="M249.03469,193.82121v-6.25l18.93475,-6.86889" data-paper-data="{&quot;index&quot;:null}" fill="none" fill-rule="nonzero" stroke="#000000" stroke-width="5" stroke-linecap="round" stroke-linejoin="miter"/><g data-paper-data="{&quot;index&quot;:null}" fill-rule="nonzero" stroke="none" stroke-width="1" stroke-linecap="butt" stroke-linejoin="miter"><path d="M376.29151,238.77075c2.6,0 7.8,1.3 7.8,1.3c-3.1,0 -14.8,1.3 -14.8,1.3c6,-1.1 15.8,1 15.8,1c-2,2 -11.1,4.1 -11.1,4.1c4.4,0 11.7,-1.8 11.7,-1.8c-3.1,3.9 -10.6,6.2 -10.6,6.2c4.1,0 8,-1.6 8,-1.6c-7.2,6.7 -27.2,9.6 -27.2,9.6c14.8,0.2 25.4,-4.7 25.4,-4.7c-8.5,6.8 -30.3,7.8 -30.3,7.8c6,1.5 13.5,0.5 13.5,0.5c-35,8.6 -54.2,-6.7 -54.2,-6.7c-17.9,8.1 -26.7,-5.2 -26.2,-11.9c0,0 3.1,-13.3 19.2,-15.6c0,0 -8,2.3 -9.8,5.7c0,0 9.3,-7.3 18.9,0.5c0,0 6.9,-9.2 41.4,-11.8c0,0 -10.8,2 -19.3,5.3c0,0 23.6,-8 43.8,0.8c0,0 -15,-3.1 -20.7,-1c0,0 16.3,-1 25.1,7.3c0,0 -9.9,-1.3 -15.6,-0.3c0,0 13,1.5 15.3,2.3z" fill="#f2c063"/><path d="M310.39151,255.77075c0,0 -0.4,0.2 -1.1,0.6c-0.7,0.4 -1.7,0.8 -3,1.3c-0.6,0.2 -1.4,0.4 -2.1,0.6c-0.8,0.2 -1.6,0.3 -2.4,0.4c-0.9,0.1 -1.7,0.1 -2.6,0.1c-0.9,0 -1.8,-0.1 -2.7,-0.3l-1.3,-0.4c-0.4,-0.2 -0.8,-0.3 -1.3,-0.5c-0.4,-0.2 -0.8,-0.4 -1.2,-0.6c-0.4,-0.2 -0.8,-0.4 -1.1,-0.6c-0.7,-0.5 -1.4,-1 -2,-1.5c-0.6,-0.5 -1.1,-1.1 -1.6,-1.6c-0.5,-0.5 -0.8,-1 -1.1,-1.5c-0.3,-0.5 -0.5,-0.9 -0.7,-1.2c-0.4,-0.7 -0.5,-1.1 -0.5,-1.1c0,0 0.2,0.4 0.6,1.1c0.4,0.7 1.1,1.6 2,2.5c0.5,0.5 1,1 1.6,1.5c0.6,0.5 1.3,0.9 2,1.4c0.4,0.2 0.7,0.4 1.1,0.6c0.4,0.2 0.8,0.3 1.2,0.5c0.4,0.1 0.8,0.3 1.3,0.4l1.3,0.3c0.9,0.2 1.7,0.3 2.6,0.3c0.9,0 1.7,0 2.6,0c1.7,-0.1 3.2,-0.4 4.5,-0.8c2.2,-0.7 3.9,-1.5 3.9,-1.5z" fill="#d18b44"/><path d="M293.49151,233.97075c0,0 0.2,-0.2 0.7,-0.6c0.5,-0.3 1.1,-0.8 2,-1.2c0.4,-0.2 0.9,-0.4 1.4,-0.6c0.5,-0.2 1.1,-0.4 1.7,-0.5c0.6,-0.1 1.2,-0.2 1.8,-0.3c0.6,-0.1 1.3,-0.1 1.9,-0.1c0.6,0 1.3,0.1 1.9,0.2c0.6,0.1 1.2,0.3 1.8,0.4c0.6,0.2 1.1,0.4 1.6,0.6c0.5,0.2 1,0.5 1.4,0.7c0.4,0.2 0.8,0.4 1.1,0.7c0.3,0.2 0.6,0.4 0.8,0.6c0.4,0.3 0.7,0.5 0.7,0.5c0,0 -0.3,-0.1 -0.8,-0.4c-0.2,-0.1 -0.5,-0.3 -0.9,-0.5c-0.3,-0.2 -0.7,-0.4 -1.2,-0.6c-0.4,-0.2 -0.9,-0.4 -1.4,-0.6c-0.5,-0.2 -1,-0.3 -1.6,-0.5c-0.6,-0.1 -1.2,-0.3 -1.8,-0.4c-0.6,0 -1.2,-0.2 -1.8,-0.2c-0.6,0 -1.2,-0.1 -1.8,0c-0.6,0 -1.2,0.1 -1.8,0.2c-0.6,0.1 -1.1,0.3 -1.6,0.4c-0.5,0.2 -1,0.3 -1.4,0.5c-0.9,0.3 -1.6,0.7 -2.1,1c-0.3,0.5 -0.6,0.7 -0.6,0.7z" fill="#d18b44"/><path d="M303.39151,228.27075c0,0 -1.5,0.1 -3.5,0.8c-0.5,0.1 -1.1,0.4 -1.7,0.6c-0.6,0.2 -1.2,0.5 -1.8,0.8c-0.6,0.3 -1.2,0.6 -1.8,1c-0.6,0.3 -1.2,0.8 -1.8,1.2c-0.6,0.4 -1.1,0.9 -1.7,1.3c-0.5,0.5 -1,1 -1.5,1.4c-0.5,0.5 -0.9,1 -1.3,1.4c-0.4,0.4 -0.7,1 -1.1,1.4c-0.3,0.4 -0.6,0.8 -0.9,1.2c-0.2,0.4 -0.4,0.7 -0.6,1c-0.3,0.5 -0.5,0.8 -0.5,0.8c0,0 0.2,-0.3 0.4,-0.9c0.1,-0.3 0.3,-0.6 0.5,-1c0.2,-0.4 0.5,-0.8 0.8,-1.3c0.3,-0.5 0.6,-1 1,-1.5c0.4,-0.5 0.8,-1 1.3,-1.5c0.5,-0.5 1,-1 1.5,-1.5c0.6,-0.5 1.1,-1 1.7,-1.4c0.6,-0.4 1.2,-0.8 1.9,-1.2c0.6,-0.4 1.3,-0.7 1.9,-1c0.6,-0.3 1.3,-0.5 1.9,-0.7c0.6,-0.2 1.2,-0.4 1.7,-0.5c1.1,-0.3 2,-0.4 2.6,-0.4c0.6,0 1,0 1,0z" fill="#d18b44"/><path d="M314.59151,232.77075c0,0 0.2,-0.1 0.4,-0.3c0.2,-0.2 0.6,-0.5 1,-0.8c0.5,-0.3 1,-0.7 1.7,-1.1c0.7,-0.4 1.5,-0.8 2.3,-1.2c0.9,-0.4 1.8,-0.8 2.9,-1.2c1,-0.4 2.1,-0.7 3.3,-1.1c1.2,-0.3 2.4,-0.7 3.6,-1c1.2,-0.3 2.5,-0.6 3.7,-0.9c1.3,-0.2 2.5,-0.5 3.8,-0.7c1.2,-0.2 2.5,-0.4 3.7,-0.6c2.4,-0.4 4.6,-0.5 6.5,-0.8c1.9,-0.2 3.5,-0.3 4.6,-0.4c1.1,-0.1 1.8,-0.1 1.8,-0.1c0,0 -2.5,0.4 -6.4,0.8c-1.9,0.3 -4.1,0.6 -6.5,1c-1.2,0.2 -2.4,0.4 -3.6,0.6c-1.2,0.2 -2.5,0.5 -3.7,0.7c-1.2,0.3 -2.5,0.5 -3.7,0.8c-1.2,0.3 -2.4,0.6 -3.6,0.9c-1.1,0.4 -2.3,0.6 -3.3,1c-1,0.3 -2,0.7 -2.9,1.1c-0.9,0.4 -1.7,0.7 -2.4,1.1c-0.7,0.3 -1.3,0.7 -1.7,1c-0.5,0.3 -0.8,0.6 -1.1,0.8c-0.3,0.3 -0.4,0.4 -0.4,0.4z" fill="#d18b44"/><path d="M287.99151,241.87075c0,0 0.1,-0.2 0.3,-0.6c0.2,-0.4 0.5,-0.9 1,-1.5c0.2,-0.3 0.5,-0.6 0.8,-0.9c0.3,-0.3 0.6,-0.6 1,-0.9c0.4,-0.3 0.8,-0.5 1.2,-0.8c0.4,-0.2 0.9,-0.5 1.3,-0.7c0.5,-0.2 0.9,-0.4 1.4,-0.5c0.5,-0.1 0.9,-0.3 1.4,-0.3c0.5,-0.1 0.9,-0.1 1.3,-0.2c0.4,0 0.8,0 1.2,-0.1c0.7,-0.1 1.4,0.1 1.8,0.1c0.4,0 0.7,0.1 0.7,0.1c0,0 -0.2,0 -0.7,0.1c-0.4,0 -1,0.1 -1.8,0.2c-0.4,0 -0.7,0.1 -1.2,0.2c-0.4,0.1 -0.8,0.2 -1.3,0.3c-0.4,0.1 -0.9,0.2 -1.3,0.4c-0.5,0.1 -0.9,0.3 -1.3,0.5c-0.4,0.2 -0.9,0.4 -1.3,0.6c-0.4,0.2 -0.8,0.5 -1.2,0.7c-0.4,0.3 -0.7,0.5 -1,0.8c-0.3,0.3 -0.6,0.5 -0.9,0.8c-0.5,0.5 -0.9,1 -1.1,1.3c-0.1,0.2 -0.3,0.4 -0.3,0.4z" fill="#d18b44"/><path d="M296.89151,238.67075c0,0 0.3,-0.2 0.8,-0.4c0.5,-0.2 1.3,-0.5 2.2,-0.8c0.5,-0.1 1,-0.2 1.5,-0.3c0.5,-0.1 1.1,-0.2 1.7,-0.2c0.6,0 1.2,-0.1 1.9,0c0.6,0 1.3,0 1.9,0.1c0.3,0.1 0.6,0.1 1,0.2c0.3,0.1 0.6,0.2 0.9,0.2c0.6,0.1 1.2,0.4 1.8,0.6c0.6,0.2 1.1,0.5 1.6,0.8c0.5,0.2 0.9,0.5 1.3,0.8c0.4,0.3 0.8,0.5 1.1,0.8c0.3,0.3 0.5,0.5 0.7,0.7c0.4,0.4 0.6,0.6 0.6,0.6c0,0 -0.3,-0.2 -0.7,-0.5c-0.2,-0.2 -0.5,-0.4 -0.8,-0.6c-0.3,-0.2 -0.7,-0.4 -1.1,-0.7c-0.4,-0.3 -0.8,-0.5 -1.3,-0.7c-0.5,-0.2 -1,-0.5 -1.6,-0.7c-0.6,-0.2 -1.1,-0.4 -1.7,-0.5c-0.3,-0.1 -0.6,-0.1 -0.9,-0.2l-0.9,-0.1c-0.6,-0.1 -1.2,-0.1 -1.9,-0.2c-0.6,0 -1.2,0 -1.8,0c-0.6,0.1 -1.2,0.1 -1.7,0.1c-0.5,0.1 -1,0.1 -1.5,0.2c-0.9,0.2 -1.7,0.4 -2.2,0.5c-0.6,0.2 -0.9,0.3 -0.9,0.3z" fill="#d18b44"/><path d="M312.89151,251.27075c0,0 -0.1,0.2 -0.4,0.5c-0.3,0.3 -0.7,0.8 -1.2,1.2c-0.3,0.2 -0.6,0.4 -1,0.6c-0.3,0.2 -0.7,0.4 -1.1,0.6c-0.4,0.2 -0.8,0.4 -1.3,0.5c-0.4,0.1 -0.9,0.3 -1.4,0.4c-0.5,0.1 -0.9,0.2 -1.4,0.2c-0.5,0.1 -0.9,0.1 -1.4,0.1c-0.4,0 -0.9,0 -1.3,0c-0.4,0 -0.8,0 -1.1,-0.1c-0.7,0 -1.3,-0.2 -1.7,-0.2c-0.4,-0.1 -0.6,-0.1 -0.6,-0.1c0,0 0.2,0 0.6,0c0.4,0 1,0 1.7,0c0.3,0 0.7,0 1.1,0c0.4,0 0.8,-0.1 1.2,-0.1c0.4,0 0.9,-0.1 1.3,-0.2c0.5,-0.1 0.9,-0.1 1.3,-0.2c0.5,-0.1 0.9,-0.2 1.3,-0.3c0.4,-0.1 0.8,-0.3 1.3,-0.4c0.4,-0.2 0.8,-0.3 1.1,-0.5c0.4,-0.2 0.7,-0.3 1,-0.5c1.4,-0.7 2,-1.5 2,-1.5z" fill="#d18b44"/><path d="M288.59151,246.27075c0,0 0.2,0.1 0.6,0.4c0.4,0.2 1,0.5 1.7,0.8c0.7,0.3 1.5,0.6 2.5,0.9c0.9,0.3 1.9,0.5 2.9,0.7c0.5,0.1 1,0.2 1.5,0.2c0.5,0 1,0.1 1.5,0.1c0.5,0 0.9,0 1.4,0c0.4,0 0.9,0 1.2,0c0.8,0 1.4,-0.1 1.9,-0.1c0.5,0 0.7,0 0.7,0c0,0 -0.3,0.1 -0.7,0.2c-0.4,0.1 -1.1,0.3 -1.9,0.4c-0.8,0.1 -1.7,0.2 -2.7,0.2c-0.5,0 -1,0 -1.5,-0.1c-0.5,0 -1,-0.1 -1.6,-0.2c-1,-0.2 -2.1,-0.4 -3,-0.8c-0.5,-0.1 -0.9,-0.3 -1.3,-0.5c-0.4,-0.2 -0.8,-0.4 -1.1,-0.6c-0.7,-0.4 -1.2,-0.8 -1.6,-1.1c-0.3,-0.3 -0.5,-0.5 -0.5,-0.5z" fill="#d18b44"/><path d="M296.49151,246.07075c0,0 1.2,0.1 3.1,0.1c0.9,0 2,0.1 3.1,0.1c1.1,0.1 2.4,0.1 3.6,0.1c1.2,0 2.4,0.1 3.6,0c1.1,0 2.2,-0.1 3.1,-0.2c0.5,-0.1 0.9,-0.1 1.2,-0.2c0.4,-0.1 0.7,-0.1 0.9,-0.2c0.5,-0.1 0.8,-0.2 0.8,-0.2c0,0 -0.3,0.1 -0.8,0.3c-0.2,0.1 -0.6,0.2 -0.9,0.3c-0.4,0.1 -0.8,0.2 -1.2,0.3c-0.9,0.2 -2,0.3 -3.1,0.4c-1.2,0.1 -2.4,0.1 -3.6,0.1c-1.2,0 -2.5,-0.1 -3.6,-0.2c-1.1,-0.1 -2.2,-0.2 -3.1,-0.3c-1.8,-0.1 -3.1,-0.4 -3.1,-0.4z" fill="#d18b44"/><path d="M314.59151,250.27075c0,0 1.6,0.5 3.9,1c1.2,0.3 2.6,0.6 4.1,0.9c1.5,0.3 3.1,0.6 4.7,0.8c0.8,0.1 1.6,0.2 2.4,0.3c0.8,0.1 1.6,0.1 2.3,0.2c0.8,0.1 1.5,0.1 2.2,0.1c0.7,0.1 1.4,0.1 2,0.1c1.2,0 2.2,0 3,0c0.7,0 1.1,0 1.1,0c0,0 -0.4,0 -1.1,0.1c-0.7,0.1 -1.7,0.2 -3,0.2c-0.6,0 -1.3,0 -2,0c-0.7,0 -1.5,0 -2.2,-0.1c-0.8,-0.1 -1.6,-0.1 -2.4,-0.2c-0.8,-0.1 -1.6,-0.1 -2.4,-0.3c-1.6,-0.2 -3.2,-0.5 -4.7,-0.8c-1.5,-0.3 -2.9,-0.7 -4.1,-1.1c-2.3,-0.6 -3.8,-1.2 -3.8,-1.2z" fill="#d18b44"/><path d="M312.19151,257.07075c0,0 0.7,0.5 2,1.1c0.7,0.3 1.5,0.8 2.4,1.2c0.9,0.4 2,0.9 3.2,1.3c1.2,0.5 2.5,0.9 3.9,1.3c1.4,0.4 2.8,0.8 4.4,1.2c0.8,0.2 1.5,0.4 2.3,0.5c0.8,0.1 1.6,0.3 2.4,0.4l1.2,0.2l1.2,0.1c0.8,0.1 1.7,0.2 2.5,0.3c1.7,0.2 3.4,0.2 5,0.3c1.7,0 3.3,0 4.9,-0.1c1.6,-0.1 3.1,-0.2 4.5,-0.4c0.7,0 1.4,-0.1 2.1,-0.2c0.7,-0.1 1.3,-0.2 1.9,-0.3c1.2,-0.2 2.4,-0.3 3.4,-0.6c1,-0.2 1.9,-0.4 2.6,-0.6c1.4,-0.3 2.3,-0.5 2.3,-0.5c0,0 -0.8,0.2 -2.2,0.6c-0.7,0.2 -1.6,0.4 -2.6,0.7c-1,0.3 -2.1,0.5 -3.4,0.7c-0.6,0.1 -1.3,0.2 -2,0.3c-0.7,0.1 -1.4,0.2 -2.1,0.3c-1.4,0.1 -3,0.3 -4.6,0.4c-1.6,0 -3.2,0.1 -4.9,0.1c-1.7,-0.1 -3.4,-0.1 -5.1,-0.3c-0.8,-0.1 -1.7,-0.2 -2.5,-0.3l-1.3,-0.1l-1.2,-0.2c-0.8,-0.1 -1.6,-0.3 -2.4,-0.4c-0.8,-0.2 -1.6,-0.4 -2.4,-0.6c-1.6,-0.3 -3,-0.8 -4.4,-1.3c-1.4,-0.5 -2.7,-0.9 -3.8,-1.4c-0.6,-0.3 -1.1,-0.5 -1.7,-0.7c-0.5,-0.3 -1,-0.5 -1.5,-0.7c-0.9,-0.4 -1.7,-0.9 -2.4,-1.3c-1,-0.5 -1.7,-1 -1.7,-1z" fill="#d18b44"/><path d="M381.39151,254.17075c0,0 -0.6,0.5 -1.7,1.2c-0.6,0.3 -1.3,0.8 -2.1,1.2c-0.8,0.5 -1.8,0.9 -2.8,1.4c-1.1,0.4 -2.2,0.9 -3.5,1.3c-1.2,0.4 -2.6,0.8 -4,1.1c-1.4,0.3 -2.9,0.6 -4.4,0.8c-1.5,0.2 -3,0.4 -4.6,0.5c-0.8,0 -1.5,0.1 -2.3,0.1l-1.1,0.1h-1.1c-1.5,0 -3,0 -4.4,-0.1c-1.4,-0.1 -2.8,-0.2 -4.1,-0.4c-1.3,-0.2 -2.5,-0.4 -3.7,-0.6c-0.6,-0.1 -1.1,-0.2 -1.6,-0.3c-0.5,-0.1 -1,-0.2 -1.5,-0.3c-0.9,-0.2 -1.7,-0.4 -2.4,-0.5c-1.3,-0.3 -2,-0.5 -2,-0.5c0,0 0.8,0.1 2.1,0.4c0.7,0.1 1.5,0.3 2.4,0.4c0.5,0.1 0.9,0.2 1.5,0.2c0.5,0.1 1.1,0.1 1.6,0.2c1.1,0.1 2.4,0.3 3.7,0.5c1.3,0.1 2.7,0.2 4.1,0.3c1.4,0.1 2.9,0 4.4,0.1h1.1l1.1,-0.1c0.8,0 1.5,-0.1 2.3,-0.1c1.5,-0.1 3,-0.3 4.5,-0.4c1.5,-0.3 2.9,-0.5 4.3,-0.8c1.4,-0.3 2.7,-0.6 4,-1c1.3,-0.3 2.4,-0.8 3.5,-1.2c1,-0.4 2,-0.8 2.9,-1.2c0.8,-0.4 1.6,-0.8 2.1,-1.1c1,-0.7 1.7,-1.2 1.7,-1.2z" fill="#d18b44"/><path d="M383.19151,249.27075c0,0 -1.3,0.5 -3.3,1.1c-1,0.3 -2.2,0.6 -3.4,0.9c-1.3,0.3 -2.6,0.6 -4,0.9c-1.4,0.3 -2.7,0.5 -4,0.7c-1.3,0.2 -2.5,0.3 -3.6,0.4c-0.5,0.1 -1,0 -1.4,0.1c-0.4,0 -0.8,0 -1.1,0c-0.6,0 -1,-0.1 -1,-0.1c0,0 0.3,0 1,-0.1c0.3,0 0.7,0 1.1,-0.1c0.4,-0.1 0.9,-0.1 1.4,-0.2c0.5,-0.1 1.1,-0.1 1.7,-0.2c0.6,-0.1 1.2,-0.2 1.8,-0.3c1.3,-0.2 2.6,-0.5 4,-0.8c1.4,-0.3 2.7,-0.6 4,-0.8c1.3,-0.3 2.5,-0.5 3.5,-0.8c1.9,-0.4 3.3,-0.7 3.3,-0.7z" fill="#d18b44"/><path d="M385.79151,244.57075c0,0 -2.1,0.5 -5.2,1.1c-1.6,0.3 -3.4,0.6 -5.3,0.9c-2,0.3 -4.1,0.6 -6.2,0.9c-2.1,0.2 -4.2,0.5 -6.2,0.6c-2,0.2 -3.8,0.2 -5.4,0.3c-0.8,0 -1.5,0 -2.2,0c-0.6,0 -1.2,0 -1.7,-0.1c-0.9,-0.1 -1.5,-0.1 -1.5,-0.1c0,0 0.5,0 1.5,0c0.5,0 1,0 1.7,-0.1c0.6,0 1.4,-0.1 2.2,-0.1c1.6,-0.1 3.4,-0.3 5.4,-0.5c2,-0.2 4.1,-0.4 6.2,-0.7c2.1,-0.2 4.2,-0.5 6.2,-0.8c2,-0.3 3.8,-0.5 5.4,-0.7c3,-0.4 5.1,-0.7 5.1,-0.7z" fill="#d18b44"/><path d="M385.29151,242.27075c0,0 -3.3,-0.5 -8.2,-0.9c-2.5,-0.2 -5.4,-0.4 -8.5,-0.5c-1.6,0 -3.2,-0.1 -4.8,-0.1c-1.6,0 -3.3,0 -4.9,0c-1.7,0 -3.3,0.1 -4.9,0.1c-1.6,0 -3.2,0.2 -4.8,0.3c-1.6,0.1 -3,0.2 -4.5,0.3c-0.7,0.1 -1.4,0.1 -2.1,0.2c-0.7,0.1 -1.3,0.2 -1.9,0.2c-1.2,0.1 -2.4,0.3 -3.4,0.4c-1,0.2 -1.9,0.3 -2.6,0.4c-1.4,0.2 -2.3,0.3 -2.3,0.3c0,0 0.8,-0.2 2.2,-0.4c0.7,-0.1 1.6,-0.3 2.6,-0.5c1,-0.2 2.1,-0.3 3.4,-0.5c0.6,-0.1 1.3,-0.2 1.9,-0.3c0.7,-0.1 1.4,-0.2 2.1,-0.2c1.4,-0.2 2.9,-0.4 4.5,-0.4c1.6,-0.1 3.2,-0.2 4.8,-0.3c1.6,-0.1 3.3,-0.1 5,-0.2c1.7,0 3.3,0 5,0c1.6,0 3.2,0.1 4.8,0.2c3.1,0.2 6,0.4 8.5,0.7c2.5,0.3 4.5,0.6 6,0.8c1.2,0.2 2.1,0.4 2.1,0.4z" fill="#d18b44"/><path d="M382.39151,237.07075c0,0 -2.3,-0.5 -5.8,-1c-1.7,-0.3 -3.8,-0.5 -5.9,-0.7c-2.2,-0.2 -4.5,-0.4 -6.8,-0.5c-1.2,-0.1 -2.3,-0.1 -3.5,-0.1c-1.1,0 -2.3,0 -3.4,0c-1.1,0 -2.2,0.1 -3.2,0.1c-1,0 -2,0.1 -2.8,0.1c-0.9,0.1 -1.7,0.1 -2.4,0.2c-0.7,0.1 -1.3,0.1 -1.8,0.2c-1,0.1 -1.6,0.1 -1.6,0.1c0,0 0.6,-0.1 1.6,-0.3c0.5,-0.1 1.1,-0.2 1.8,-0.3c0.7,-0.1 1.5,-0.2 2.4,-0.3c0.9,-0.1 1.8,-0.2 2.8,-0.3c1,-0.1 2.1,-0.2 3.2,-0.2c1.1,0 2.2,-0.1 3.4,0c1.2,0 2.3,0 3.5,0.1c2.3,0.1 4.7,0.3 6.9,0.6c2.2,0.3 4.2,0.6 5.9,0.9c3.5,0.7 5.7,1.4 5.7,1.4z" fill="#d18b44"/><path d="M382.69151,235.07075c0,0 -0.1,-0.2 -0.4,-0.4c-0.3,-0.3 -0.7,-0.7 -1.3,-1.1c-0.6,-0.5 -1.4,-0.9 -2.3,-1.4c-0.9,-0.4 -2,-1 -3.2,-1.4c-1.2,-0.5 -2.5,-0.8 -3.9,-1.3c-0.7,-0.1 -1.4,-0.3 -2.2,-0.5c-0.4,-0.1 -0.7,-0.2 -1.1,-0.2c-0.4,-0.1 -0.8,-0.1 -1.2,-0.2c-0.8,-0.1 -1.6,-0.2 -2.4,-0.3c-0.8,0 -1.6,-0.1 -2.5,-0.1c-1.7,-0.1 -3.4,0 -5.1,0c-1.7,0 -3.4,0.2 -5.1,0.3c-1.7,0.1 -3.3,0.4 -4.9,0.6c-1.6,0.3 -3.1,0.4 -4.5,0.8c-1.4,0.3 -2.8,0.6 -4,0.8c-1.3,0.2 -2.4,0.6 -3.4,0.8c-1,0.3 -1.9,0.5 -2.6,0.7c-1.4,0.4 -2.3,0.6 -2.3,0.6c0,0 0.8,-0.3 2.2,-0.7c0.7,-0.2 1.6,-0.5 2.6,-0.8c1,-0.3 2.1,-0.7 3.4,-1c1.2,-0.3 2.6,-0.6 4,-1c1.4,-0.4 3,-0.6 4.5,-0.9c1.6,-0.3 3.2,-0.6 4.9,-0.7c1.7,-0.1 3.4,-0.4 5.1,-0.4c1.7,0 3.4,-0.1 5.1,0.1c0.8,0.1 1.7,0.1 2.5,0.2c0.8,0.1 1.6,0.2 2.4,0.3c0.4,0.1 0.8,0.1 1.2,0.2c0.4,0.1 0.8,0.2 1.1,0.3c0.8,0.2 1.5,0.4 2.2,0.5c1.4,0.5 2.7,0.8 3.9,1.4c1.2,0.5 2.2,1.1 3.1,1.6c0.9,0.6 1.6,1.1 2.2,1.5c0.6,0.5 1,0.9 1.3,1.2c0.5,0.3 0.7,0.5 0.7,0.5z" fill="#d18b44"/><path d="M315.49151,237.77075c0,0 0.4,-0.5 1.2,-1c0.8,-0.6 1.9,-1.2 3,-1.7c0.6,-0.2 1.2,-0.5 1.8,-0.6c0.6,-0.2 1.1,-0.3 1.6,-0.3c0.5,-0.1 0.9,-0.1 1.1,-0.1c0.3,0 0.4,0 0.4,0c0,0 -0.2,0.1 -0.4,0.1c-0.3,0.1 -0.6,0.2 -1.1,0.3c-0.9,0.3 -2.1,0.7 -3.2,1.2c-1.1,0.5 -2.3,1 -3.1,1.4c-0.8,0.4 -1.3,0.7 -1.3,0.7z" fill="#d18b44"/><path d="M319.39151,240.47075c0,0 1.1,-0.5 2.8,-1c0.9,-0.3 1.9,-0.6 2.9,-0.9c1.1,-0.3 2.2,-0.6 3.4,-0.9c1.2,-0.3 2.3,-0.5 3.4,-0.8c1.1,-0.2 2.1,-0.4 3,-0.6c1.8,-0.3 3,-0.4 3,-0.4c0,0 -1.2,0.3 -2.9,0.8c-0.9,0.2 -1.9,0.5 -3,0.7c-1.1,0.3 -2.2,0.5 -3.4,0.8c-2.3,0.5 -4.6,1.1 -6.4,1.5c-1.6,0.6 -2.8,0.8 -2.8,0.8z" fill="#d18b44"/><path d="M310.39151,255.77075c4.1,-4.1 8.3,-14.3 2.1,-21.3c8.1,6.9 4.4,16.2 -2.1,21.3z" fill="#db4570"/></g><g data-paper-data="{&quot;index&quot;:null}" fill-rule="nonzero" stroke="none" stroke-width="1" stroke-linecap="butt" stroke-linejoin="miter"><path d="M289.29151,247.87075c0,0 -11.9,1 -28.3,1.3c-32.8,0.6 -82.6,0.6 -88.2,0.3c-7.4,-0.4 -19.1,-0.6 -25.1,-1.1c-6,-0.6 -23.6,-1.1 -23.6,-1.1c0,0 -1.1,-4.6 0.3,-4.8c1.4,-0.3 25.3,1.1 28.2,1.1c2.9,0 17.9,-1.2 22.4,-0.2c2.8,0.6 40.6,-0.3 71,-0.6c6.5,-0.1 9.9,0.7 15.6,0.6c15.6,-0.2 27.1,-0.3 27.1,-0.3c0,0 1.7,2.5 0.6,4.8z" fill="#694932"/><path d="M197.69151,246.37075c0,0 -0.7,0.1 -1.8,0.3c-1.1,0.2 -2.8,0.4 -4.7,0.6c-2,0.2 -4.3,0.5 -6.7,0.7c-2.5,0.2 -5.1,0.5 -7.8,0.4c-5.3,-0.2 -10.5,-0.5 -14.5,-0.7c-3.9,-0.3 -6.6,-0.5 -6.6,-0.5c0,0 10.5,0.4 21.1,0.7c1.3,0 2.6,0 3.9,-0.1c1.3,-0.1 2.6,-0.2 3.8,-0.3c2.5,-0.2 4.8,-0.4 6.7,-0.6c3.9,-0.3 6.6,-0.5 6.6,-0.5z" fill="#4f3726"/><path d="M186.19151,246.37075c0,0 -0.7,0.1 -1.7,0.3c-1,0.1 -2.4,0.2 -3.7,0.2c-1.4,0 -2.7,-0.1 -3.7,-0.3c-1,-0.2 -1.7,-0.4 -1.7,-0.4c0,0 0.7,0 1.7,0.1c1,0 2.3,0.1 3.7,0.1c1.3,0 2.7,0 3.7,0c1,0 1.7,0 1.7,0z" fill="#4f3726"/><path d="M171.19151,245.07075c0,0 -1,0 -2.5,0.1c-0.7,0 -1.6,0 -2.5,0c-0.9,0 -1.9,0 -2.9,0c-3.9,0 -7.9,-0.1 -7.9,-0.1c0,0 1,-0.2 2.5,-0.3c0.7,0 1.6,-0.1 2.5,-0.1c0.9,0 1.9,0 2.9,0c1,0 2,0 2.9,0.1c0.9,0 1.8,0.1 2.5,0.1c1.5,0.1 2.5,0.2 2.5,0.2z" fill="#4f3726"/><path d="M160.09151,245.97075c0,0 -1.8,0.1 -4.5,0.3c-2.7,0.1 -6.4,0.2 -10,0c-1.8,-0.1 -3.6,-0.2 -5.3,-0.3c-1.7,-0.1 -3.3,-0.1 -4.6,-0.2c-2.7,-0.1 -4.5,-0.2 -4.5,-0.2c0,0 1.8,-0.1 4.5,-0.1c2.7,0 6.4,0 10,0.2c1.8,0.1 3.6,0.2 5.3,0.2c1.7,0 3.3,0 4.6,0c2.7,0.1 4.5,0.1 4.5,0.1z" fill="#4f3726"/><path d="M127.39151,243.97075c0,0 1.1,-0.1 2.7,-0.1c0.8,0 1.8,0 2.8,0c1,0 2.1,0 3.2,0c1.1,0 2.2,0.1 3.2,0.1c1,0 2,0.1 2.8,0.2c0.8,0.1 1.5,0.2 2,0.2c0.5,0.1 0.7,0.1 0.7,0.1c0,0 -0.3,0 -0.8,0c-0.5,0 -1.2,0 -2,0c-0.8,0 -1.8,0 -2.8,0c-1,0 -2.1,0 -3.2,-0.1c-1.1,0 -2.2,-0.1 -3.2,-0.1c-1,0 -2,-0.1 -2.8,-0.1c-1.5,-0.1 -2.6,-0.2 -2.6,-0.2z" fill="#4f3726"/><path d="M149.79151,247.27075c0,0 0.2,0 0.6,-0.1c0.3,0 0.8,-0.1 1.2,-0.1c0.5,0 0.9,0 1.2,0.1c0.3,0 0.6,0.1 0.6,0.1c0,0 -0.2,0.1 -0.6,0.1c-0.3,0 -0.8,0.1 -1.2,0.1c-0.5,0 -0.9,0 -1.2,-0.1c-0.4,-0.1 -0.6,-0.1 -0.6,-0.1z" fill="#4f3726"/><path d="M148.09151,244.67075c0,0 0.2,0 0.5,-0.1c0.3,0 0.6,-0.1 1,-0.1c0.4,0 0.7,0 1,0.1c0.3,0 0.5,0.1 0.5,0.1c0,0 -0.2,0.1 -0.5,0.1c-0.3,0 -0.6,0.1 -1,0.1c-0.4,0 -0.7,0 -1,-0.1c-0.3,0 -0.5,-0.1 -0.5,-0.1z" fill="#4f3726"/><path d="M168.59151,246.37075c0,0 0.3,0 0.7,-0.1c0.4,0 1,-0.1 1.6,-0.1c0.6,0 1.2,0 1.6,0.1c0.4,0 0.7,0.1 0.7,0.1c0,0 -0.3,0.1 -0.7,0.1c-0.4,0 -1,0.1 -1.6,0.1c-0.6,0 -1.2,0 -1.6,-0.1c-0.4,-0.1 -0.7,-0.1 -0.7,-0.1z" fill="#4f3726"/><path d="M189.09151,246.17075c0,0 0.2,-0.1 0.4,-0.1c0.2,-0.1 0.5,-0.1 0.9,-0.2c0.3,0 0.6,-0.1 0.9,-0.1c0.2,0 0.4,0 0.4,0c0,0 -0.2,0.1 -0.4,0.1c-0.2,0.1 -0.5,0.1 -0.9,0.2c-0.3,0 -0.6,0.1 -0.9,0.1c-0.2,0 -0.4,0 -0.4,0z" fill="#4f3726"/><path d="M197.99151,245.07075c0,0 -0.2,0.1 -0.5,0.2c-0.3,0.1 -0.7,0.2 -1.2,0.3c-0.4,0.1 -0.9,0.1 -1.2,0.1c-0.3,0 -0.6,0 -0.6,0c0,0 0.2,-0.1 0.5,-0.2c0.3,-0.1 0.7,-0.2 1.2,-0.3c0.4,-0.1 0.9,-0.1 1.2,-0.1c0.4,0 0.6,0 0.6,0z" fill="#4f3726"/><path d="M126.39151,245.77075c0,0 0.1,0 0.4,-0.1c0.1,0 0.4,0 0.7,0c0.3,0 0.6,0 0.8,0.1c0.2,0 0.4,0.1 0.4,0.1c0,0 -0.1,0.1 -0.4,0.1c-0.2,0 -0.5,0.1 -0.8,0.1c-0.3,0 -0.6,0 -0.8,-0.1c-0.2,-0.1 -0.3,-0.2 -0.3,-0.2z" fill="#4f3726"/><path d="M186.59151,245.07075c0,0 -0.9,0.2 -2.2,0.3c-1.3,0.1 -3.1,0.2 -4.9,0.1c-0.9,-0.1 -1.8,-0.2 -2.6,-0.3c-0.8,-0.1 -1.6,-0.3 -2.2,-0.4c-0.7,-0.1 -1.2,-0.3 -1.6,-0.4c-0.4,-0.1 -0.6,-0.2 -0.6,-0.2c0,0 0.2,0 0.6,0.1c0.4,0.1 0.9,0.1 1.6,0.2c1.3,0.2 3.1,0.4 4.8,0.5c1.8,0.1 3.5,0.2 4.8,0.2c1.4,-0.1 2.3,-0.1 2.3,-0.1z" fill="#4f3726"/><path d="M162.49151,243.07075c0,0 -1.6,0.1 -3.9,0.2c-1.2,0 -2.6,0.1 -4,0.1c-1.5,0 -3.1,0 -4.6,0.1c-1.6,0 -3.2,0 -4.6,-0.1c-1.5,0 -2.9,-0.1 -4,-0.2c-0.6,0 -1.1,-0.1 -1.6,-0.2c-0.5,-0.1 -0.9,-0.1 -1.2,-0.2c-0.9,0 -1.3,-0.1 -1.3,-0.1c0,0 0.4,0 1.1,0.1c0.7,0 1.7,0.1 2.8,0.1c1.2,0 2.6,0 4,0.1c1.5,0 3,0 4.6,0c3.1,0 6.3,0 8.7,0c2.4,0.1 4,0.1 4,0.1z" fill="#4f3726"/><path d="M195.89151,248.37075c0,0 0.9,-0.1 2.5,-0.3c1.6,-0.2 3.9,-0.5 6.6,-0.8c2.7,-0.3 5.9,-0.5 9.4,-0.6c1.7,-0.1 3.5,0 5.3,0.1c1.8,0.1 3.6,0.1 5.5,0.1c3.7,0 7.3,-0.1 10.8,-0.1c3.4,-0.1 6.7,-0.1 9.4,-0.2c5.5,-0.1 9.2,-0.2 9.2,-0.2c0,0 -3.7,0.2 -9.2,0.5c-5.5,0.2 -12.8,0.5 -20.2,0.5c-1.8,0 -3.7,0 -5.5,-0.1c-1.8,-0.1 -3.6,-0.2 -5.3,-0.2c-3.4,0.1 -6.6,0.3 -9.4,0.5c-5.5,0.4 -9.1,0.8 -9.1,0.8z" fill="#4f3726"/><path d="M239.39151,245.77075c0,0 2.6,-0.2 6.4,-0.5c3.9,-0.2 9,-0.4 14.2,-0.2c1.3,0.1 2.6,0.2 3.9,0.4c1.3,0.2 2.5,0.7 3.6,0.8c2.4,0.4 4.6,0.4 6.5,0.4c3.9,0 6.4,-0.3 6.4,-0.3c0,0 -0.6,0.1 -1.8,0.2c-1.1,0.1 -2.7,0.3 -4.7,0.3c-1.9,0.1 -4.2,0.1 -6.6,-0.3c-1.2,-0.2 -2.4,-0.6 -3.6,-0.8c-1.2,-0.2 -2.5,-0.3 -3.8,-0.3c-1.3,-0.1 -2.6,-0.1 -3.8,-0.1c-1.3,0 -2.5,0 -3.7,0c-2.4,0 -4.7,0.1 -6.6,0.1c-3.8,0.2 -6.4,0.3 -6.4,0.3z" fill="#4f3726"/><path d="M257.99151,247.17075c0,0 0.5,0 1.2,0c0.4,0 0.8,0 1.3,0c0.5,0 1,0.1 1.4,0.1c0.5,0 1,0.1 1.4,0.1c0.5,0 0.9,0.1 1.3,0.2c0.7,0.1 1.2,0.2 1.2,0.2c0,0 -0.5,0.1 -1.2,0.1c-0.4,0 -0.8,0 -1.3,0c-0.5,0 -1,-0.1 -1.5,-0.1c-0.5,-0.1 -1,-0.1 -1.4,-0.2c-0.5,-0.1 -0.9,-0.1 -1.3,-0.2c-0.6,-0.1 -1.1,-0.2 -1.1,-0.2z" fill="#4f3726"/><path d="M268.89151,244.87075c0,0 1.2,-0.1 3,-0.2c0.9,0 1.9,-0.1 3,-0.1c1.1,0 2.3,0 3.5,0c1.2,0 2.4,0.1 3.5,0.1c1.1,0 2.2,0.1 3,0.2c0.9,0.1 1.6,0.2 2.1,0.3c0.5,0.1 0.8,0.2 0.8,0.2c0,0 -0.3,0 -0.8,-0.1c-0.5,0 -1.3,-0.1 -2.1,-0.1c-0.9,0 -1.9,0 -3,0c-1.1,0 -2.3,0 -3.5,0c-1.2,0 -2.4,0 -3.5,0c-1.1,0 -2.2,0 -3,0c-1.8,-0.2 -3,-0.3 -3,-0.3z" fill="#4f3726"/><path d="M237.59151,243.87075c0,0 -1,0.1 -2.5,0.3c-0.8,0.1 -1.6,0.2 -2.6,0.2c-0.9,0.1 -2,0.1 -3,0.2c-1,0 -2,0.1 -3,0.1c-0.9,0 -1.8,0 -2.6,0c-1.5,0 -2.5,-0.1 -2.5,-0.1c0,0 1,-0.1 2.5,-0.2c0.8,0 1.6,-0.1 2.6,-0.1c0.9,0 2,-0.1 3,-0.1c1,0 2,-0.1 3,-0.1c0.9,0 1.8,0 2.6,-0.1c1.4,-0.1 2.5,-0.1 2.5,-0.1z" fill="#4f3726"/><path d="M222.79151,245.77075c0,0 -1,0 -2.5,-0.1c-0.7,0 -1.6,-0.1 -2.5,-0.1c-0.9,-0.1 -1.9,-0.1 -2.9,-0.1c-1,0 -2,-0.1 -2.9,-0.1c-0.9,0 -1.8,0 -2.5,0c-0.4,0 -0.7,0 -1,0c-0.3,0 -0.6,0 -0.8,0.1c-0.4,0.1 -0.7,0.1 -0.7,0.1c0,0 0.2,-0.1 0.7,-0.2c0.2,-0.1 0.5,-0.1 0.8,-0.1c0.3,-0.1 0.6,-0.1 1,-0.1c0.7,-0.1 1.6,-0.1 2.5,-0.1c0.9,0 1.9,0 2.9,0c1,0.1 2,0.1 2.9,0.2c0.9,0.1 1.8,0.2 2.5,0.3c1.5,0 2.5,0.2 2.5,0.2z" fill="#4f3726"/><path d="M216.19151,244.27075c0,0 0.2,0 0.5,-0.1c0.3,0 0.7,-0.1 1,-0.1c0.4,0 0.8,0 1,0.1c0.3,0 0.5,0.1 0.5,0.1c0,0 -0.2,0 -0.5,0.1c-0.3,0 -0.7,0.1 -1,0.1c-0.4,0 -0.8,0 -1,-0.1c-0.3,-0.1 -0.5,-0.1 -0.5,-0.1z" fill="#4f3726"/><path d="M215.69151,248.57075c0,0 0.2,0 0.5,-0.1c0.3,0 0.7,-0.1 1.1,-0.1c0.4,0 0.8,0 1.1,0.1c0.3,0 0.5,0.1 0.5,0.1c0,0 -0.2,0 -0.5,0.1c-0.3,0 -0.7,0 -1.1,0c-0.4,0 -0.8,0 -1.1,-0.1c-0.3,0 -0.5,0 -0.5,0z" fill="#4f3726"/><path d="M232.69151,245.57075c0,0 0.2,0 0.5,-0.1c0.3,0 0.7,-0.1 1,-0.1c0.4,0 0.8,0 1,0.1c0.3,0 0.5,0.1 0.5,0.1c0,0 -0.2,0 -0.5,0.1c-0.3,0 -0.7,0.1 -1,0.1c-0.4,0 -0.8,0 -1,-0.1c-0.3,-0.1 -0.5,-0.1 -0.5,-0.1z" fill="#4f3726"/><path d="M264.09151,244.57075c0,0 0.2,0 0.5,-0.1c0.3,0 0.7,-0.1 1,-0.1c0.4,0 0.8,0 1,0.1c0.3,0 0.5,0.1 0.5,0.1c0,0 -0.2,0 -0.5,0.1c-0.3,0 -0.7,0.1 -1,0.1c-0.4,0 -0.8,0 -1,-0.1c-0.3,-0.1 -0.5,-0.1 -0.5,-0.1z" fill="#4f3726"/><path d="M235.89151,248.57075c0,0 1.2,-0.2 3,-0.3c0.9,-0.1 1.9,-0.2 3.1,-0.2c1.1,-0.1 2.3,-0.1 3.5,-0.2c1.2,0 2.4,-0.1 3.5,-0.1c1.1,0 2.2,0 3.1,0c1.8,0 3,0.1 3,0.1c0,0 -4.8,0.2 -9.6,0.5c-1.2,0 -2.4,0.1 -3.5,0.1c-1.1,0 -2.2,0.1 -3.1,0.1c-1.8,0 -3,0 -3,0z" fill="#4f3726"/><path d="M199.69151,245.57075c0,0 0.6,-0.3 1.7,-0.5c1,-0.3 2.4,-0.6 3.8,-0.8c0.7,-0.1 1.4,-0.2 2,-0.2c0.7,0 1.3,0 1.8,-0.1c1,0 1.7,0.1 1.7,0.1c0,0 -0.2,0 -0.5,0.1c-0.3,0 -0.7,0.1 -1.3,0.1c-1,0.1 -2.4,0.3 -3.8,0.5c-2.6,0.4 -5.4,0.8 -5.4,0.8z" fill="#4f3726"/><path d="M239.39151,244.57075c0,0 0.7,-0.1 1.7,-0.3c1,-0.1 2.4,-0.3 3.7,-0.3c1.4,-0.1 2.7,-0.1 3.8,0c1,0.1 1.7,0.2 1.7,0.2c0,0 -0.7,0.1 -1.7,0.1c-1,0.1 -2.4,0.2 -3.7,0.2c-1.4,0.1 -2.7,0.1 -3.7,0.1c-1.1,0 -1.8,0 -1.8,0z" fill="#4f3726"/><path d="M277.79151,247.77075c0,0 0.6,-0.2 1.5,-0.3c0.9,-0.2 2,-0.4 3.2,-0.5c1.2,-0.1 2.4,-0.2 3.3,-0.2c0.9,0 1.5,0 1.5,0c0,0 -0.6,0.1 -1.5,0.2c-0.9,0.1 -2,0.3 -3.2,0.4c-1.2,0.1 -2.4,0.2 -3.2,0.3c-1,0.1 -1.6,0.1 -1.6,0.1z" fill="#4f3726"/></g></g></g></svg>