<svg version="1.1" xmlns="http://www.w3.org/2000/svg" xmlns:xlink="http://www.w3.org/1999/xlink" width="86.81213" height="114.19156" viewBox="0,0,86.81213,114.19156"><defs><linearGradient x1="210.90355" y1="167.52601" x2="188.46796" y2="167.34032" gradientUnits="userSpaceOnUse" id="color-1"><stop offset="0" stop-color="#000000"/><stop offset="1" stop-color="#000000" stop-opacity="0"/></linearGradient><linearGradient x1="237.16411" y1="162.62883" x2="237.23803" y2="164.62747" gradientUnits="userSpaceOnUse" id="color-2"><stop offset="0" stop-color="#008cff"/><stop offset="1" stop-color="#008cff" stop-opacity="0"/></linearGradient><linearGradient x1="247.35999" y1="154.98707" x2="247.90687" y2="169.77233" gradientUnits="userSpaceOnUse" id="color-3"><stop offset="0" stop-color="#008cff"/><stop offset="1" stop-color="#008cff" stop-opacity="0"/></linearGradient><linearGradient x1="226.5168" y1="155.90515" x2="227.06368" y2="170.69041" gradientUnits="userSpaceOnUse" id="color-4"><stop offset="0" stop-color="#008cff"/><stop offset="1" stop-color="#008cff" stop-opacity="0"/></linearGradient></defs><g transform="translate(-188.05695,-135.61655)"><g data-paper-data="{&quot;isPaintingLayer&quot;:true}" fill-rule="nonzero" stroke-linejoin="miter" stroke-miterlimit="10" stroke-dasharray="" stroke-dashoffset="0" style="mix-blend-mode: normal"><path d="M235.57457,189.53537l-0.98643,15.86593" fill="none" stroke="#000000" stroke-width="6" stroke-linecap="round"/><path d="M245.68566,194.77705c0,0.22737 -1.49234,0.13517 -1.6382,0.81047c-0.16898,0.78239 -0.37861,2.25048 -0.06526,3.34611c0.31453,1.09976 1.15195,1.82557 0.93679,1.82557c-0.93888,0 -2.96667,-1.71268 -2.96667,-3.8988c0,-2.18613 -1.80555,-4.43453 -0.86667,-4.43453c0.16151,0 4.6,2.16027 4.6,2.35118z" fill="#000000" stroke="#0f0f0f" stroke-width="1" stroke-linecap="butt"/><path d="M222.40162,215.02176c0,0 5.73416,-22.68804 7.6924,-24.20042c0.57497,-0.44406 10.92189,-0.0374 10.92189,-0.0374l5.51429,24.77348z" fill="#000000" stroke="#0f0f0f" stroke-width="1" stroke-linecap="butt"/><g data-paper-data="{&quot;index&quot;:null}" fill="#000000" stroke="#000000" stroke-width="1.2" stroke-linecap="butt"><path d="M259.53622,205.28743c-1.39652,0.61146 -3.97454,-0.31268 -5.85733,-0.23224c-2.0271,0.08659 -3.22867,1.12375 -4.39897,0.47487c-0.81744,-0.45324 -1.04419,-1.69818 -1.07416,-2.35729c-0.07289,-1.60272 2.65915,-3.02123 6.10215,-3.16832c3.44301,-0.1471 6.29321,1.03295 6.36609,2.63566c0.03303,0.72627 0.01947,2.14061 -1.13776,2.64731z"/><path d="M261.18084,202.40547c-1.95519,0.83541 -6.84736,0.25758 -6.84736,0.25758c0,0 -3.05012,1.01779 -3.1212,1.01962c-4.52941,0.11711 -4.70571,-2.65624 -4.84921,-5.81216c-0.06831,-1.50201 0.455,-3.83851 1.83456,-4.71998c1.56458,-0.99969 3.83127,-0.63851 6.35913,-0.74649c4.75678,-0.20319 8.88642,1.52514 9.03218,4.73059c0.06416,1.41102 0.20327,4.15505 -2.40811,5.27084z"/></g><path d="M244.72261,205.44243l-0.15355,-5.81558l23.8,-0.3877v6.39714" fill="none" stroke="#000000" stroke-width="1" stroke-linecap="round"/><path d="M235.09477,234.35764l1.18081,-19.26448l10.14361,-1.51455l1.32336,20.70527c0,0 -5.76547,4.06363 -7.31203,3.98565c-1.47978,-0.07462 -5.33575,-3.9119 -5.33575,-3.9119z" fill="#000000" stroke="#0f0f0f" stroke-width="1" stroke-linecap="butt"/><path d="M219.19797,235.02054l4.68965,-20.28203l10.4719,0.34916l-2.70394,22.06677c0,0 -6.4168,2.99239 -7.92417,2.64586c-1.44229,-0.33158 -4.53345,-4.77975 -4.53345,-4.77975z" fill="#000000" stroke="#0f0f0f" stroke-width="1" stroke-linecap="butt"/><path d="M229.47476,244.53372c-0.76847,1.08029 -3.57421,4.68331 -6.00213,4.67437c-2.27266,-0.00836 -4.17301,-3.53827 -4.93373,-5.13111c-1.25725,-2.63249 0.38264,-9.57264 0.4197,-10.29085c0.01208,-0.23397 0.75915,2.51662 2.13407,4.0359c1.02387,1.13136 4.82042,1.43837 6.07253,0.97827c2.038,-0.74889 5.31771,-3.4392 5.29063,-2.91423c0,0 -1.07356,5.96618 -2.98107,8.64768z" fill="#000000" stroke="#001026" stroke-width="1.2" stroke-linecap="butt"/><path d="M236.49389,240.43164c-1.60575,-1.16442 -1.83129,-4.5715 -1.73134,-6.18853c0.00958,-0.15511 3.31829,0.96946 6.37668,0.82705c0.80439,-0.03746 3.92856,-0.11587 5.18571,-0.87744c1.56114,-0.94571 1.22409,-2.59216 1.52065,-2.37565c0.11104,0.08107 9.05915,4.46546 9.09463,6.80158c0.00573,0.37728 -0.58721,1.48964 -1.62181,2.18408c-0.90442,0.60706 -2.24066,0.82572 -2.56947,0.86259c-5.47186,0.61352 -15.2936,-0.5365 -16.25503,-1.23369z" fill="#000000" stroke="#001026" stroke-width="1.2" stroke-linecap="butt"/><path d="M224.13197,232.07794c0,0.98183 -0.70355,1.77777 -1.57143,1.77777c-0.86787,0 -1.57143,-0.79593 -1.57143,-1.77777c0,-0.98183 0.70356,-1.77777 1.57143,-1.77777c0.86787,0 1.57143,0.79593 1.57143,1.77777z" fill="#ff0000" stroke="#0f0f0f" stroke-width="0" stroke-linecap="butt"/><path d="M228.37482,226.52851c0,0.98183 -0.70355,1.77777 -1.57143,1.77777c-0.86787,0 -1.57143,-0.79594 -1.57143,-1.77777c0,-0.98183 0.70355,-1.77776 1.57143,-1.77776c0.86787,0 1.57143,0.79593 1.57143,1.77776z" fill="#ff0000" stroke="#0f0f0f" stroke-width="0" stroke-linecap="butt"/><path d="M226.98911,220.01699c0,0.98183 -0.70355,1.77777 -1.57143,1.77777c-0.86787,0 -1.57143,-0.79593 -1.57143,-1.77777c0,-0.98183 0.70355,-1.77777 1.57143,-1.77777c0.86787,0 1.57143,0.79593 1.57143,1.77777z" fill="#ff0000" stroke="#0f0f0f" stroke-width="0" stroke-linecap="butt"/><path d="M230.91768,232.07794c0,0.98183 -0.70355,1.77777 -1.57143,1.77777c-0.86787,0 -1.57143,-0.79593 -1.57143,-1.77777c0,-0.98183 0.70355,-1.77777 1.57143,-1.77777c0.86787,0 1.57143,0.79593 1.57143,1.77777z" fill="#ff0000" stroke="#0f0f0f" stroke-width="0" stroke-linecap="butt"/><path d="M232.70339,220.99302c0,0.98183 -0.70355,1.77777 -1.57143,1.77777c-0.86787,0 -1.57143,-0.79593 -1.57143,-1.77777c0,-0.98183 0.70355,-1.77777 1.57143,-1.77777c0.86787,0 1.57143,0.79593 1.57143,1.77777z" fill="#ff0000" stroke="#0f0f0f" stroke-width="0" stroke-linecap="butt"/><path d="M241.18453,226.47914c0,0.97028 -0.76112,1.75685 -1.7,1.75685c-0.93888,0 -1.7,-0.78656 -1.7,-1.75685c0,-0.97028 0.76111,-1.75685 1.7,-1.75685c0.93888,0 1.7,0.78657 1.7,1.75685z" fill="#ff0000" stroke="none" stroke-width="0" stroke-linecap="butt"/><path d="M241.88453,231.5545c0,0.86248 -0.73873,1.56165 -1.65,1.56165c-0.91127,0 -1.65,-0.69917 -1.65,-1.56165c0,-0.86248 0.73873,-1.56165 1.65,-1.56165c0.91127,0 1.65,0.69917 1.65,1.56165z" fill="#ff0000" stroke="none" stroke-width="0" stroke-linecap="butt"/><path d="M239.78453,219.64693c0,0.70076 -0.55964,1.26884 -1.25,1.26884c-0.69036,0 -1.25,-0.56808 -1.25,-1.26884c0,-0.70076 0.55964,-1.26884 1.25,-1.26884c0.69036,0 1.25,0.56808 1.25,1.26884z" fill="#ff0000" stroke="none" stroke-width="0" stroke-linecap="butt"/><path d="M239.96908,219.98139v-15.31438h34.4v15.31438z" fill="#62ffff" stroke="#000000" stroke-width="1" stroke-linecap="butt"/><path d="M253.48019,211.73695c0,3.11389 -2.65645,5.6382 -5.93333,5.6382c-3.27689,0 -5.93333,-2.52432 -5.93333,-5.6382c0,-3.11389 2.65645,-5.6382 5.93333,-5.6382c3.27689,0 5.93333,2.52431 5.93333,5.6382z" fill="#8e8888" stroke="#000000" stroke-width="1" stroke-linecap="butt"/><path d="M272.88016,211.84675c0,3.1722 -2.547,5.7438 -5.68889,5.7438c-3.14189,0 -5.68889,-2.57158 -5.68889,-5.7438c0,-3.1722 2.547,-5.74379 5.68889,-5.74379c3.14189,0 5.68889,2.57158 5.68889,5.74379z" fill="#8e8888" stroke="#000000" stroke-width="1" stroke-linecap="butt"/><path d="M261.36906,216.00741c0,0.69591 -1.79086,1.26004 -4,1.26004c-2.20914,0 -4,-0.56414 -4,-1.26004c0,-0.69591 1.79086,-1.26005 4,-1.26005c2.20914,0 4,0.56414 4,1.26005z" fill="#8e8888" stroke="#000000" stroke-width="1" stroke-linecap="butt"/><path d="M218.6392,212.56109c0.22281,-0.28127 4.67421,-0.01712 4.81742,-1.98206c0.11839,-1.62448 -4.03715,-5.33379 -4.14392,-7.14507c-0.09399,-1.59444 1.86597,-6.09225 5.55047,-8.37078c4.39821,-2.71991 10.65885,-3.11476 10.65885,-3.11476c0,0 6.35362,5.19585 9.24559,6.51714c1.81613,0.82976 5.03497,-0.14112 5.03497,-0.14112" fill="none" stroke="#000000" stroke-width="6" stroke-linecap="round"/><path d="M224.28436,200.19862c0,0 0.514,-0.83854 0.18708,-1.86173c-0.39076,-1.22304 -1.68638,-2.70988 -2.45428,-3.34377c-0.7767,-0.64115 -2.95965,0.91182 -2.95965,0.91182l8.41677,-5.4472c0,0 2.32766,-0.30587 2.76347,0.08543c0.39232,0.35225 -0.26535,2.15754 -0.26535,2.15754z" fill="#000000" stroke="#0f0f0f" stroke-width="1" stroke-linecap="butt"/><path d="M245.58453,223.37096c0,0.91127 -0.76112,1.65 -1.7,1.65c-0.93888,0 -1.7,-0.73873 -1.7,-1.65c0,-0.91127 0.76111,-1.65 1.7,-1.65c0.93888,0 1.7,0.73873 1.7,1.65z" fill="#ff0000" stroke="none" stroke-width="0" stroke-linecap="butt"/><g><path d="M259.70766,163.9688c-0.11133,13.45056 -11.59657,24.26007 -25.65301,24.14373c-14.05644,-0.11634 -25.36118,-11.11449 -25.24985,-24.56504c0.11133,-13.45056 11.59657,-24.26007 25.65301,-24.14373c14.05644,0.11634 25.36118,11.11449 25.24985,24.56504z" fill="none" stroke="#000000" stroke-width="4.5" stroke-linecap="butt"/><path d="M228.25531,188.93814l-29.44476,-0.47743c0,0 -2.40147,-0.35923 -2.04729,-1.25783c0.81216,-2.06054 6.82195,-10.85609 6.82195,-10.85609l-11.65232,-4.06968c0,0 -2.12181,-0.92142 -2.43209,-2.02327c-0.28864,-1.02501 11.18165,-10.29147 11.18165,-10.29147c0,0 -8.23684,-3.67797 -10.45974,-5.67743c-0.87288,-0.78514 11.7447,-8.33132 20.44361,-11.98802c4.25663,-1.78933 10.063,-4.48893 14.75946,-5.18037c7.78704,-1.14645 13.76594,1.19489 13.76594,1.19489" fill="none" stroke="#000000" stroke-width="3" stroke-linecap="round"/><path d="M196.94092,188.44523c0,0 -0.51853,-1.40822 0.72691,-3.33083c1.55995,-2.40813 6.92706,-5.61463 5.29282,-7.9897c-2.117,-3.07666 -14.72999,-2.72361 -13.14539,-6.55763c1.30113,-3.14818 10.61637,-8.53527 10.63351,-10.60662c0.01711,-2.06677 -4.56099,-0.84731 -7.15768,-3.61997c-3.69305,-3.9433 -1.89489,-3.934 -1.89489,-3.934c0,0 11.78206,-7.37517 17.49801,-9.77477c5.36284,-2.25136 15.80594,-4.2065 15.80594,-4.2065c0,0 -15.04795,13.6229 -17.24612,21.65369c-2.4367,8.90226 14.96835,27.64236 14.96835,27.64236z" data-paper-data="{&quot;index&quot;:null}" fill="url(#color-1)" stroke="none" stroke-width="0" stroke-linecap="butt"/><path d="M233.62801,155.85491c0,0 2.16502,-0.61082 3.26408,-0.66752c1.18111,-0.06092 3.59413,0.31378 3.59413,0.31378" fill="url(#color-2)" stroke="#705021" stroke-width="2" stroke-linecap="round"/><g stroke="#705021" stroke-width="2" stroke-linecap="butt"><path d="M254.44775,169.24238c-0.20206,0.15248 -12.95019,0.89014 -13.16538,0.71014c-0.48097,-0.40231 -1.40331,-14.10078 -1.10977,-14.50838c0.2014,-0.27967 14.12208,-0.73679 14.3033,-0.59855c0.45628,0.34806 0.56395,13.94998 -0.02815,14.39679z" fill="url(#color-3)"/><path d="M219.40986,156.28974c0.17053,-0.15126 14.08692,-0.72376 14.30843,-0.45973c0.32284,0.38481 0.415,14.11399 -0.03493,14.55072c-0.2013,0.1954 -12.96908,0.40153 -13.18187,0.26439c-0.6235,-0.40185 -1.52096,-13.97456 -1.09164,-14.35538z" data-paper-data="{&quot;index&quot;:null}" fill="url(#color-4)"/></g><g><path d="M232.00233,159.15386c0,0 1.4675,3.46269 -0.09381,7.53958c-0.15594,0.40721 -1.93167,2.84946 -3.32581,2.85927c-2.06605,0.01455 -3.96576,-2.58413 -3.96342,-2.92388c0.00888,-1.28942 0.37036,-2.64336 -0.11824,-5.26283c-0.35391,-1.89742 7.50128,-2.21215 7.50128,-2.21215z" data-paper-data="{&quot;index&quot;:null}" fill="#000000" stroke="none" stroke-width="0" stroke-linecap="butt"/><path d="M230.99328,159.24596l-8.15493,0.46842" fill="none" stroke="#000000" stroke-width="2.5" stroke-linecap="round"/></g><g data-paper-data="{&quot;index&quot;:null}"><path d="M251.58154,158.22953c0,0 1.46751,3.46269 -0.0938,7.53958c-0.15594,0.40721 -1.93167,2.84946 -3.32581,2.85927c-2.06605,0.01455 -3.96576,-2.58413 -3.96342,-2.92388c0.00888,-1.28942 0.37036,-2.64335 -0.11824,-5.26283c-0.35391,-1.89742 7.50127,-2.21215 7.50127,-2.21215z" data-paper-data="{&quot;index&quot;:null}" fill="#000000" stroke="none" stroke-width="0" stroke-linecap="butt"/><path d="M250.57248,158.32163l-8.15492,0.46841" fill="none" stroke="#000000" stroke-width="2.5" stroke-linecap="round"/></g><path d="M232.63535,179.09605c0,0 -6.9197,1.17124 -8.96911,0.68999c-2.12056,-0.49796 -3.54809,-3.62933 -3.54809,-3.62933" fill="none" stroke="#000000" stroke-width="2.5" stroke-linecap="round"/></g></g></g></svg>