<svg version="1.1" xmlns="http://www.w3.org/2000/svg" xmlns:xlink="http://www.w3.org/1999/xlink" width="67.44193" height="102.83126" viewBox="0,0,67.44193,102.83126"><g transform="translate(-211.40445,-140.33566)"><g stroke-miterlimit="10"><path d="M234.07386,205.84731l9.05953,-12.76876" fill="none" fill-rule="nonzero" stroke="#ffffff" stroke-width="6" stroke-linecap="round"/><path d="M218.53406,214.28566c1.32333,-1.57529 24.17711,-24.2716 24.17711,-24.2716l32.28453,4.88588" fill="none" fill-rule="nonzero" stroke="#ffffff" stroke-width="6" stroke-linecap="round"/><g stroke-linecap="butt"><path d="M276.59638,173.94009c-4.13875,12.67317 -19.05078,19.68947 -33.30698,15.67137c-14.25618,-4.01811 -22.45798,-17.54905 -18.31921,-30.22223c4.13875,-12.67317 19.05078,-19.68947 33.30698,-15.67137c14.25618,4.01811 22.45798,17.54905 18.31921,30.22223z" fill="none" fill-rule="nonzero" stroke="#ffffff" stroke-width="4.5"/><g><g fill-rule="nonzero"><path d="M240.32482,147.52661l0.00911,0.0109" fill="#ffab19" stroke="#ffffff" stroke-width="5"/><g fill="none" stroke="none" stroke-width="1" font-family="sans-serif" font-weight="normal" font-size="12" text-anchor="start"/></g><path d="M240.32482,147.52661l0.00911,0.0109" fill="#ffab19" fill-rule="nonzero" stroke="#ffffff" stroke-width="5"/><path d="M250.11177,167.73369" fill="#001026" fill-rule="evenodd" stroke="#ffffff" stroke-width="5"/><g fill="none" fill-rule="nonzero" stroke="none" stroke-width="1" font-family="sans-serif" font-weight="normal" font-size="12" text-anchor="start"/><g fill="none" fill-rule="nonzero" stroke="none" stroke-width="1" font-family="sans-serif" font-weight="normal" font-size="12" text-anchor="start"/></g></g><path d="M255.15445,240.16692h-7.75l-12.625,-32.5" fill="none" fill-rule="nonzero" stroke="#ffffff" stroke-width="6" stroke-linecap="round"/><path d="M234.02945,207.04192l-14,28.625l-5.625,0.875" fill="none" fill-rule="nonzero" stroke="#ffffff" stroke-width="6" stroke-linecap="round"/></g></g></svg>