<svg version="1.1" xmlns="http://www.w3.org/2000/svg" xmlns:xlink="http://www.w3.org/1999/xlink" width="47.3845" height="46.55759" viewBox="0,0,47.3845,46.55759"><g transform="translate(-216.30775,-156.72122)"><g data-paper-data="{&quot;isPaintingLayer&quot;:true}" fill="#ffec87" fill-rule="nonzero" stroke="#ffe200" stroke-width="1" stroke-linecap="butt" stroke-linejoin="miter" stroke-miterlimit="10" stroke-dasharray="" stroke-dashoffset="0" style="mix-blend-mode: normal"><path d="M263.19225,179.18188c0,0.6776 -0.03122,1.22691 -0.06974,1.22691c-0.03852,0 -0.31237,-0.78194 -0.31237,-0.78194c0,0 0.27385,-1.67187 0.31237,-1.67187c0.03852,0 0.06974,0.5493 0.06974,1.22691z"/><path d="M240.28024,202.7788c-0.67735,-0.0012 -1.20739,-0.0493 -1.18387,-0.10746c0.02352,-0.05815 1.05552,-0.41802 1.05552,-0.41802c0,0 1.42093,0.36421 1.39742,0.42236c-0.02352,0.05815 -0.59171,0.10432 -1.26906,0.10312z"/><path d="M216.80775,180.81818c0,-0.6776 0.07187,-1.22691 0.16055,-1.22691c0.08866,0 0.40571,1.17371 0.40571,1.17371c0,0 -0.31706,1.2801 -0.40571,1.2801c-0.08866,0 -0.16055,-0.5493 -0.16055,-1.22691z" data-paper-data="{&quot;index&quot;:null}"/><path d="M239.71976,157.22122c0.67735,0.00131 1.20741,0.05375 1.18389,0.11712c-0.02352,0.06339 -1.05552,0.15872 -1.05552,0.15872c0,0 -1.42093,-0.10005 -1.39742,-0.16343c0.02352,-0.06339 0.59171,-0.11371 1.26906,-0.11242z" data-paper-data="{&quot;index&quot;:null}"/><path d="M258.72356,195.21398c-0.03117,0.0375 -0.09598,0.03504 -0.14471,-0.00551c-0.04875,-0.04054 -0.24786,-0.30825 -0.24786,-0.30825c0,0 0.31204,0.13195 0.36079,0.17247c0.04875,0.04054 0.06298,0.10379 0.0318,0.14129z"/><path d="M225.50796,198.57706c-0.07124,-0.06253 -0.06309,-0.18831 0.0182,-0.28093c0.08131,-0.09262 0.56814,-0.45399 0.56814,-0.45399c0,0 -0.22884,0.58784 -0.31015,0.68046c-0.08131,0.09262 -0.20496,0.11701 -0.27621,0.05446z"/><path d="M221.61284,166.16895c0.07922,-0.09527 0.24384,-0.08901 0.3677,0.01398c0.12385,0.103 0.54563,0.56169 0.54563,0.56169c0,0 -0.70867,-0.11371 -0.83252,-0.21669c-0.12385,-0.103 -0.16003,-0.2637 -0.0808,-0.35897z" data-paper-data="{&quot;index&quot;:null}"/><path d="M254.84698,162.73347c0.00661,0.00581 0.00585,0.01748 -0.00169,0.02608c-0.00754,0.0086 -0.04517,0.01112 -0.04517,0.01112c0,0 0.01366,-0.02355 0.02122,-0.03215c0.00754,-0.0086 0.01903,-0.01087 0.02564,-0.00505z" data-paper-data="{&quot;index&quot;:null}"/></g></g></svg>