<svg version="1.1" xmlns="http://www.w3.org/2000/svg" xmlns:xlink="http://www.w3.org/1999/xlink" width="95.16667" height="117.40406" viewBox="0,0,95.16667,117.40406"><g transform="translate(-199.08618,-106.94643)"><g data-paper-data="{&quot;isPaintingLayer&quot;:true}" fill-rule="nonzero" stroke-linejoin="miter" stroke-miterlimit="10" stroke-dasharray="" stroke-dashoffset="0" style="mix-blend-mode: normal"><path d="M287.41952,186.61309c0,16.66059 -19.77409,30.16667 -44.16667,30.16667c-24.39258,0 -44.16667,-13.50608 -44.16667,-30.16667c0,-6.86609 19.42137,-9.40481 25.54335,-20.59871c8.73304,-15.96816 6.61663,-40.23462 20.95665,-40.23462c13.37404,0 18.65827,8.94564 26.12387,23.68834c6.15072,12.14613 15.70947,29.61913 15.70947,37.14499z" fill="#858585" stroke="none" stroke-width="0" stroke-linecap="butt"/><g data-paper-data="{&quot;index&quot;:null}" stroke="none" stroke-width="1" stroke-linecap="butt"><path d="M276.14442,214.89024c0.03158,-0.20966 0.16496,-0.27435 0.33498,-0.32242c0.27431,-0.05433 0.55424,-0.05242 0.83044,-0.0879c0.04652,-0.05947 0.09306,-0.11893 0.12218,-0.17732c0.68339,-1.2122 1.73195,-1.91766 2.92088,-2.44271c0.2513,-0.10961 0.5008,-0.23801 0.77882,-0.25478c0.05214,-0.00312 0.11978,-0.02611 0.15079,-0.06579c0.17058,-0.21806 0.39649,-0.23172 0.63794,-0.26518c0.20666,-0.03138 0.41707,-0.02521 0.62561,-0.03779c0.12163,-0.00735 0.24704,0.02285 0.34519,0.13023c0.0981,0.10739 0.24276,0.15531 0.37,0.20424c0.75421,0.19995 1.46938,0.53445 2.14365,0.9847c0.37562,0.26059 0.68737,0.58167 1.00095,0.92154c0.92157,1.00191 1.51243,2.19375 1.85387,3.51399c0.14676,0.59547 0.20852,1.21496 0.20078,1.83863c-0.00535,0.47244 -0.13611,0.91471 -0.28609,1.33927c-0.47725,1.35085 -1.3376,2.36598 -2.46933,3.1142c-0.21282,0.14504 -0.46599,0.2359 -0.71918,0.32674c-0.16815,0.06683 -0.31709,0.15137 -0.40266,0.34538c-0.07007,0.17417 -0.21896,0.25872 -0.38899,0.30677c-0.27431,0.05433 -0.55236,0.07113 -0.83042,0.08791c-0.08691,0.00524 -0.16018,-0.02809 -0.23342,-0.06147c-0.26013,-0.15423 -0.52643,-0.19482 -0.80636,-0.19677c-0.59275,0.01694 -1.16943,-0.15598 -1.74423,-0.31012c-0.21603,-0.06251 -0.43392,-0.14374 -0.63819,-0.26358c-0.66678,-0.37518 -1.30071,-0.77126 -1.84719,-1.34256c-0.26066,0.01575 -0.54059,0.01377 -0.81865,0.0306c-0.10429,0.0063 -0.22592,0.01365 -0.30665,-0.0948c-0.07885,-0.08965 -0.18129,-0.06461 -0.28553,-0.05829c-0.69699,0.02325 -1.39212,0.06523 -2.08911,0.08845c-1.54855,0.07464 -3.11445,0.15041 -4.66673,0.18753c-1.51753,0.03501 -3.02942,0.1264 -4.5432,0.19894c-0.2433,0.01471 -0.47295,-0.00921 -0.71623,0.00551c-1.18171,0.0714 -2.36345,0.14278 -3.54703,0.19542c-0.20853,0.0126 -0.41333,0.06272 -0.6157,-0.03837c-0.07329,-0.03334 -0.15826,-0.00934 -0.24516,-0.0041c-0.86893,0.05253 -1.75708,0.08729 -2.62601,0.13978c-0.03476,0.00209 -0.08689,0.00523 -0.12163,0.00735c-0.27618,0.03558 -0.42832,-0.08744 -0.57617,-0.34291c-0.48766,-0.85814 -0.68363,-1.77167 -0.58795,-2.74061c0.02782,-0.24719 0.09037,-0.49646 0.18955,-0.72909c0.07007,-0.17419 0.20159,-0.25769 0.37348,-0.28697c0.51574,-0.08779 1.0296,-0.1944 1.56272,-0.28325c0.3786,-0.06065 0.7783,-0.0848 1.15125,-0.20176c0.81356,-0.25688 1.66698,-0.28957 2.48613,-0.49017c0.46171,-0.10345 0.90235,-0.24339 1.36595,-0.32807c0.49834,-0.08676 0.9756,-0.21002 1.45466,-0.31454c0.8732,-0.18495 1.76751,-0.3334 2.63883,-0.53713c1.14186,-0.2956 2.29129,-0.51615 3.44063,-0.73667c0.39412,-0.08046 0.78813,-0.16095 1.18225,-0.24141c0.61814,-0.11292 1.25362,-0.22682 1.87173,-0.33969c0.34383,-0.05856 0.66654,-0.15357 1.01034,-0.21215c0.35936,-0.07837 0.6895,-0.09832 1.06811,-0.15896zM276.4345,215.34483c-0.08183,0.23157 -0.12889,0.46102 -0.12196,0.7061c-0.10773,0.49754 -0.09197,1.00648 -0.07618,1.51543c0.0115,0.64142 0.09438,1.29739 0.1754,1.9346c0.09037,0.73107 0.34891,1.39532 0.62668,2.07733c0.04225,0.07299 0.08448,0.14598 0.14785,0.25544c0.13901,-0.00837 0.27804,-0.01683 0.41705,-0.02522c0.03476,-0.00209 0.06765,-0.02296 0.1179,-0.04489c-0.01309,-0.1314 -0.04357,-0.26176 -0.09143,-0.39108c-0.07461,-0.22212 -0.11254,-0.42756 -0.18711,-0.64966c-0.1604,-0.55686 -0.16634,-1.14199 -0.2746,-1.70199c-0.04735,-0.2993 -0.12937,-0.59649 -0.14195,-0.8979c-0.01338,-0.66019 -0.11362,-1.31511 -0.05748,-1.97946c0.01792,-0.17106 0.03393,-0.36086 0.05187,-0.53194c0.09681,-0.08139 0.04703,-0.22947 0.07246,-0.32545c0.04091,-0.11577 0.08182,-0.23158 0.04383,-0.43699c-0.21282,0.14504 -0.44436,0.10239 -0.6454,0.19006c-0.00804,0.09492 -0.10478,0.1763 -0.05694,0.30562zM275.91849,216.13139c0.11339,-0.44122 0.1195,-0.55488 0.06043,-0.79684c-0.20666,0.03138 -0.39596,0.06172 -0.60264,0.09307c-0.12163,0.00735 -0.20106,0.08765 -0.24198,0.20348c-0.02729,0.07723 -0.01791,0.17104 -0.04518,0.24824c-0.09361,0.28894 -0.1139,0.61122 -0.06657,0.91052c-0.07376,0.13667 -0.05884,0.28681 -0.04386,0.43702c0.06683,0.84579 0.11445,1.6739 0.26816,2.51445c0.07218,0.37336 0.16174,0.74568 0.26682,1.09812c0.0976,0.27743 0.19704,0.57356 0.42805,0.78622c0.22594,-0.01366 0.45182,-0.02734 0.67776,-0.04097c-0.04971,-0.14807 -0.09758,-0.27742 -0.14354,-0.38791c-0.1914,-0.51723 -0.34809,-1.03654 -0.43525,-1.56008c-0.11949,-0.67265 -0.1521,-1.35057 -0.20212,-2.02741c-0.03182,-0.31915 0.04248,-0.6258 -0.0067,-0.94387c0.10478,-0.1763 0.10347,-0.36507 0.08664,-0.53401zM256.80861,219.62776c-0.07807,0.26911 -0.06927,0.53296 -0.02568,0.79471c-0.0155,0.0198 -0.02914,0.05843 -0.02726,0.07722c0.06229,0.44948 0.15933,0.89687 0.35692,1.30042c0.11123,0.23883 0.20506,0.47864 0.41493,0.65479c0.9732,-0.0588 1.94634,-0.11763 2.97169,-0.17952c-0.23605,-0.43898 -0.36792,-0.88431 -0.4823,-1.33059c-0.10882,-0.39004 -0.0941,-0.76862 -0.16817,-1.16074c-0.01499,-0.15017 -0.01072,-0.28264 -0.0257,-0.43282c0.06444,-0.23049 0.09224,-0.47771 0.08156,-0.76032c-0.52136,0.03151 -0.99298,0.21109 -1.47583,0.27803c-0.49835,0.08676 -0.99486,0.19231 -1.47581,0.27804c-0.10479,0.17629 -0.12461,0.32858 -0.14436,0.48087zM260.25482,218.9474c-0.07374,0.13668 -0.0762,0.2879 -0.06121,0.43805c-0.05457,0.15438 -0.02034,0.32231 -0.02088,0.49228c0.03504,0.5267 0.15693,1.04812 0.31173,1.54865c0.09945,0.29613 0.2337,0.5902 0.43366,0.8425c0.06952,-0.00418 0.14089,0.01038 0.21041,0.00614c0.85158,-0.05142 1.68567,-0.10182 2.53909,-0.13452c0.90553,-0.03583 1.7937,-0.07062 2.69924,-0.10644c1.32263,-0.06105 2.62973,-0.1022 3.95235,-0.16326c1.48089,-0.0517 2.9388,-0.15868 4.42343,-0.17282c0.24516,0.00409 0.50396,-0.03049 0.76465,-0.0462c-0.0901,-0.20227 -0.21308,-0.38368 -0.26842,-0.58809c-0.22191,-0.64758 -0.3414,-1.32023 -0.42617,-1.99498c-0.05988,-0.6007 -0.10239,-1.20246 -0.14488,-1.80425c0.01043,-0.24616 0.00535,-0.47245 0.01578,-0.7186c0.08931,-0.15646 0.0377,-0.32333 0.05747,-0.47562c0.01792,-0.17106 0.07246,-0.32542 0.03636,-0.5121c-0.17753,-0.02704 -0.31284,0.0189 -0.43258,0.04502c-1.00475,0.26846 -2.04183,0.38776 -3.05217,0.59989c-0.65103,0.13377 -1.30206,0.26751 -1.95118,0.42009c-0.8732,0.18495 -1.72712,0.38762 -2.58292,0.57153c-0.70126,0.1557 -1.40256,0.31137 -2.10571,0.44827c-0.75342,0.15881 -1.49132,0.29781 -2.24662,0.43789c-0.68577,0.13586 -1.38891,0.27279 -2.09019,0.42847c-0.00052,0.16997 -0.09357,0.28893 -0.06123,0.43805zM284.16672,223.81034c-0.19756,-0.40351 -0.30638,-0.79358 -0.43258,-1.18252c-0.12807,-0.40775 -0.27166,-0.79564 -0.38232,-1.20443c-0.10881,-0.39004 -0.18474,-0.80095 -0.27615,-1.19202c-0.09331,-0.40987 -0.18662,-0.81969 -0.26443,-1.24933c-0.07404,-0.3921 -0.13258,-0.80407 -0.20664,-1.1962c-0.05853,-0.41193 -0.04759,-0.82809 -0.17566,-1.23583c0.06495,-0.40049 -0.04571,-0.80929 -0.06767,-1.20458c-0.0064,-0.41507 -0.04947,-0.84687 -0.05588,-1.26195c-0.00453,-0.3963 0.00645,-0.81246 0.01927,-1.20981c0.01098,-0.41616 0.09335,-0.81772 0.05215,-1.23067c-0.42083,-0.01235 -0.54245,-0.00501 -0.8403,0.16408c-0.06444,0.23049 -0.1289,0.46104 -0.1548,0.72698c-0.02032,0.32228 -0.04066,0.64454 -0.07649,0.98666c-0.05804,0.6456 -0.10051,1.2714 -0.03503,1.92844c0.04492,0.45055 0.10722,0.90004 0.08259,1.35478c-0.00804,0.09492 0.00322,0.20755 0.04919,0.31804c0.07461,0.22211 0.08153,0.46722 0.10401,0.69247c0.08234,0.82599 0.26894,1.64567 0.47109,2.44554c0.2457,1.06165 0.6093,2.07837 1.02507,3.09193c0.07273,0.20333 0.14543,0.40668 0.31682,0.54737c0.26443,0.02181 0.52325,-0.01272 0.84778,-0.08896zM285.47864,216.10143c-0.2409,-0.13651 -0.47431,-0.19797 -0.70957,-0.27817c-0.20051,-0.08233 -0.41093,-0.08849 -0.61199,-0.0008c-0.38847,0.13678 -0.79994,0.21832 -1.21889,0.22472c-0.03476,0.00209 -0.08503,0.02399 -0.10239,0.02505c-0.04276,0.097 -0.03526,0.17208 0.02621,0.26283c0.01922,0.01772 0.05588,0.0344 0.07328,0.03334c0.5096,0.02587 1.02289,0.08929 1.53999,0.19025c0.07138,0.0146 0.17751,0.02704 0.2433,-0.01472c0.27058,-0.09188 0.54112,-0.18377 0.76011,-0.44253zM282.74226,215.13361c0.47483,0.02796 0.93601,0.09454 1.38169,0.18095c0.14274,0.02912 0.26254,0.00302 0.39595,-0.06171c0.19916,-0.10646 0.35987,-0.24838 0.53795,-0.39132c0.06577,-0.04175 0.14891,-0.08452 0.10293,-0.19507c-0.3048,-0.07602 -0.5941,-0.17184 -0.89512,-0.21033c-0.69807,0.36324 -0.69806,0.36322 -1.53033,0.4324c-0.04653,0.05946 -0.05641,0.13562 0.00695,0.24509zM281.48218,219.85549c-0.3203,-0.0562 -0.63875,-0.09361 -0.95717,-0.13103c-0.07139,-0.01459 -0.14276,-0.02914 -0.2104,-0.00617c-0.26494,0.14818 -0.53176,0.27766 -0.73524,0.51656c0.23099,0.21266 0.49727,0.25322 0.75182,0.35116c0.12723,0.04897 0.22965,0.02388 0.34569,-0.03979c0.26308,-0.16696 0.52993,-0.29642 0.81596,-0.40808c0.01739,-0.00104 0.03103,-0.03961 0.06201,-0.07926c-0.02299,-0.05526 -0.04787,-0.12935 -0.07273,-0.20335zM285.90506,219.85262c-0.30238,-0.22725 -0.5743,-0.32413 -0.84806,-0.43977c-0.10802,-0.03126 -0.19302,-0.00722 -0.27803,0.01681c-0.40584,0.13786 -0.81735,0.21932 -1.25366,0.22681c-0.05213,0.00313 -0.10239,0.02505 -0.15451,0.02822c0.0032,0.20756 0.02432,0.24404 0.16334,0.23564c0.45187,-0.02731 0.89567,0.04033 1.31407,0.20388c0.25452,0.09794 0.4612,0.06658 0.67778,-0.04094c0.11419,-0.08244 0.21285,-0.14504 0.37913,-0.23063zM282.94571,217.34976c0.00938,0.09385 0.08079,0.1084 0.1503,0.10422c0.48657,-0.02938 0.97076,0.09241 1.45497,0.21427c0.39354,0.08952 0.78577,-0.00971 1.14001,-0.31439c-0.1695,-0.12194 -0.34517,-0.13023 -0.51092,-0.21464c-0.34891,-0.16777 -0.67908,-0.14781 -1.01918,-0.05174c-0.37483,0.09819 -0.74783,0.21514 -1.13388,0.20072c-0.05024,0.02194 -0.0658,0.04174 -0.08129,0.06158zM285.75669,218.5397c-0.21976,-0.10005 -0.36815,-0.18553 -0.51465,-0.25219c-0.23903,-0.11773 -0.44943,-0.12392 -0.68524,-0.03415c-0.31896,0.13258 -0.66278,0.19114 -1.00845,0.23091c-0.11979,0.02611 -0.25881,0.03452 -0.38043,0.04187c-0.00804,0.09492 0.04596,0.11052 0.08072,0.10842c0.51334,0.06338 1.02851,0.14559 1.53384,0.30393c0.08876,0.01352 0.16014,0.02808 0.24516,0.00407c0.23395,-0.10856 0.46975,-0.19834 0.72907,-0.40285zM281.77385,221.02763c-0.32271,0.09505 -0.64112,0.05762 -0.95769,0.03897c-0.08689,0.00525 -0.16202,-0.04687 -0.24515,-0.00408c-0.13344,0.06474 -0.38901,0.30679 -0.52485,0.52274c0.1869,0.12094 0.39916,0.14585 0.59783,0.20942c0.16203,0.04687 0.29917,0.0197 0.42883,-0.08256c0.22832,-0.16484 0.4604,-0.2922 0.73284,-0.36532c0.01739,-0.00103 0.04838,-0.0407 0.06388,-0.06051c0.0099,-0.07616 0.00243,-0.15124 -0.09572,-0.25861zM279.9869,214.67687c-0.23205,0.12734 -0.52938,0.12639 -0.73846,0.309c0.03048,0.13035 0.12298,0.18144 0.19999,0.25232c0.15214,0.123 0.27135,0.26687 0.47187,0.34919c0.30159,-0.13151 0.65289,-0.11501 0.97371,-0.22881c0.04276,-0.097 0.03344,-0.19086 -0.01071,-0.28263c-0.30668,-0.09477 -0.59971,-0.22815 -0.89646,-0.39908zM281.10308,217.6311c-0.17753,-0.02704 -0.35504,-0.05409 -0.48604,-0.14061c-0.31786,-0.20742 -0.61145,-0.17077 -0.8919,-0.00275c-0.09865,0.06259 -0.20294,0.06888 -0.296,0.18783c0.19253,0.17723 0.39677,0.2971 0.60105,0.41691c0.05588,0.0344 0.12538,0.03017 0.21039,0.00617c0.2532,-0.09086 0.49087,-0.16187 0.74405,-0.25269c0.05214,-0.00312 0.11791,-0.0449 0.11843,-0.21492zM280.98515,216.44841c-0.38981,-0.05198 -0.74859,-0.14364 -1.05098,-0.37087c-0.05775,-0.05315 -0.12539,-0.03018 -0.1949,-0.02598c-0.15454,0.02823 -0.30722,0.07522 -0.45236,0.1973c0.2695,0.24814 0.52967,0.40237 0.80717,0.55556c0.0925,0.05107 0.18126,0.06461 0.28366,0.03952c0.18744,-0.04904 0.37672,-0.07943 0.56413,-0.12852c0.01739,-0.00103 0.0484,-0.04071 0.06389,-0.06052c-0.00561,-0.05632 -0.01123,-0.11265 -0.02061,-0.20647zM285.19574,221.3308c0.16628,-0.0856 0.34999,-0.1722 0.5163,-0.2578c0.0155,-0.0198 0.03103,-0.03965 0.06201,-0.07928c-0.17698,-0.19706 -0.39677,-0.2971 -0.59539,-0.36065c-0.52564,0.16397 -1.01649,0.32581 -1.60736,0.36151c0.30426,0.24602 0.56919,0.09778 0.80072,0.14046c0.28366,0.03952 0.55368,0.11761 0.82371,0.19571zM285.8695,215.81336c0.18982,-0.20031 0.38339,-0.36313 0.47883,-0.63327c-0.12912,-0.06775 -0.22538,-0.15636 -0.33529,-0.20634c-0.10989,-0.05 -0.22162,-0.11879 -0.34328,-0.11142c-0.15076,0.06578 -0.24195,0.20347 -0.35423,0.30469c-0.11226,0.10123 -0.24571,0.16592 -0.31763,0.32134c0.29118,0.11459 0.56304,0.2115 0.87159,0.32506zM282.58773,213.93428c0.52881,0.04358 0.96891,0.07362 1.40895,0.10371c0.03476,-0.00209 0.08878,0.01356 0.11978,-0.02611c0.17804,-0.14296 0.39461,-0.25047 0.49194,-0.50184c-0.25078,-0.0604 -0.4842,-0.12183 -0.71575,-0.16449c-0.37539,0.26818 -0.7967,0.42584 -1.30496,0.58875zM279.53528,218.9156c0.1385,0.16162 0.31602,0.18864 0.46252,0.25534c0.16576,0.08443 0.3259,0.11251 0.50956,0.02586c0.2513,-0.10961 0.50264,-0.21922 0.78445,-0.19849c0.02166,-0.13353 -0.0032,-0.20756 -0.10747,-0.20125c-0.26253,-0.003 -0.54246,-0.00501 -0.77961,-0.10398c-0.34517,-0.13023 -0.59092,0.03568 -0.86947,0.22252zM279.73234,217.03406c-0.31976,-0.22618 -0.56627,-0.41902 -0.81088,-0.5931c-0.12163,0.00735 -0.18557,0.06786 -0.25129,0.10961c-0.06389,0.06052 -0.16439,0.10435 -0.18606,0.23783c0.15962,0.19813 0.3521,0.37531 0.56008,0.53274c0.22028,-0.06997 0.42135,-0.15766 0.68818,-0.28708zM279.17461,220.03272c0.24383,-0.18468 0.45476,-0.34854 0.68309,-0.51338c-0.23903,-0.11775 -0.46069,-0.23657 -0.68231,-0.35537c-0.21282,0.14504 -0.41202,0.2515 -0.54591,0.48622c0.17323,0.15949 0.35826,0.26163 0.54514,0.38254zM286.51547,216.68085c-0.12671,-0.21897 -0.35826,-0.26163 -0.54326,-0.36378c-0.05588,-0.0344 -0.14089,-0.01039 -0.18929,0.03033c-0.16257,0.12313 -0.30962,0.22644 -0.4548,0.34848c-0.01739,0.00104 -0.01362,0.03862 -0.0099,0.07617c0.25639,0.11674 0.52828,0.21354 0.78469,0.33028c0.16441,-0.10434 0.28847,-0.26293 0.41252,-0.42152zM286.26306,219.58558c0.18365,-0.08665 0.34996,-0.17221 0.45106,-0.38605c-0.1714,-0.14073 -0.3465,-0.31901 -0.56441,-0.40028c-0.11604,0.06365 -0.23581,0.08979 -0.33258,0.17117c-0.09865,0.06258 -0.23957,0.05222 -0.27484,0.22433c0.24088,0.13653 0.48177,0.27304 0.72082,0.39084zM279.31388,220.553c-0.1489,0.08454 -0.21896,0.25874 -0.30639,0.43397c0.2235,0.13761 0.39865,0.31584 0.64941,0.37626c0.12406,-0.15859 0.30584,-0.26399 0.42429,-0.47889c-0.25639,-0.11674 -0.51092,-0.21466 -0.76732,-0.33135zM282.16791,222.17472c-0.31468,0.00012 -0.63925,0.07643 -0.9577,0.03896c-0.26442,-0.02179 -0.3903,0.11804 -0.50689,0.35169c0.20424,0.11984 0.39916,0.14585 0.61331,0.18955c0.2537,-0.26084 0.57455,-0.37468 0.85126,-0.58023zM282.72624,212.86836c0.02486,0.07405 0.07699,0.07087 0.12912,0.06775c0.22777,0.00513 0.47109,-0.00958 0.70076,0.01433c0.33767,0.05512 0.49274,-0.1431 0.65958,-0.3987c-0.12542,-0.0302 -0.21601,-0.06246 -0.30477,-0.076c-0.21416,-0.04369 -0.40717,-0.05094 -0.58151,0.12955c-0.11227,0.10122 -0.26497,0.14819 -0.40024,0.19418c-0.07139,-0.01459 -0.16201,-0.04686 -0.20292,0.0689zM279.48372,213.83858c0.07885,0.08965 0.154,0.14179 0.21174,0.19494c0.15772,0.17932 0.31977,0.22621 0.52456,0.17605c0.17003,-0.04802 0.36308,-0.0408 0.53498,-0.07008c0.05215,-0.00312 0.10614,0.01247 0.11043,-0.11999c-0.25265,-0.0792 -0.50908,-0.19587 -0.75183,-0.35117c-0.05588,-0.0344 -0.14273,-0.02913 -0.21226,-0.02496c-0.13526,0.04593 -0.25322,0.09083 -0.41761,0.1952zM279.14227,218.65601c0.16629,-0.08558 0.35183,-0.15344 0.49514,-0.29434c-0.2099,-0.17616 -0.38686,-0.37321 -0.62587,-0.49097c-0.16255,0.12315 -0.33071,0.18993 -0.41441,0.40274c0.1714,0.14074 0.32724,0.30132 0.54515,0.38253zM285.48826,217.95153c0.20988,0.17615 0.42966,0.27618 0.64567,0.33865c0.16255,-0.12312 0.30958,-0.22645 0.44916,-0.40485c-0.11926,-0.14389 -0.26765,-0.22934 -0.43153,-0.29497c-0.21467,0.12628 -0.43124,0.2338 -0.66332,0.36112zM278.17632,217.03359c-0.11044,0.12 -0.19169,0.18154 -0.25183,0.27963c-0.04652,0.05947 -0.07567,0.11787 -0.1048,0.17632c0.10559,0.18246 0.24409,0.34408 0.42911,0.44622c0.16441,-0.10434 0.32882,-0.20872 0.43176,-0.40382c-0.17323,-0.15949 -0.31174,-0.3211 -0.50423,-0.49832zM280.92025,213.16633c-0.22915,-0.19389 -0.3831,-0.33566 -0.57373,-0.49413c-0.07138,-0.0146 -0.19113,0.01152 -0.28981,0.07416c-0.1005,0.04385 -0.22591,0.01365 -0.30158,0.13154c0.06898,0.1658 0.1671,0.27318 0.29811,0.35971c0.27619,-0.03558 0.53687,-0.05129 0.86704,-0.07125zM286.68554,215.40528c-0.07754,0.09915 -0.15509,0.19825 -0.23263,0.29732c-0.07754,0.09916 -0.13766,0.1972 -0.21521,0.29629c0.20423,0.11986 0.35638,0.24288 0.55127,0.26888c0.09865,-0.06261 0.12218,-0.17734 0.16497,-0.27433c0.04276,-0.097 0.13766,-0.1972 0.10721,-0.32751c-0.13292,-0.10531 -0.23099,-0.21266 -0.37564,-0.26059zM278.30223,219.3489c0.1588,-0.16069 0.35802,-0.26713 0.47456,-0.50085c-0.15214,-0.12298 -0.30238,-0.22724 -0.45452,-0.35026c-0.1588,0.16068 -0.304,0.28275 -0.36842,0.51328c0.1,0.12615 0.16522,0.25443 0.34837,0.3378zM284.66827,214.11074c0.32403,0.09375 0.61143,0.17081 0.89881,0.24785c0.09681,-0.08139 0.19547,-0.14399 0.2171,-0.2775c-0.21176,-0.19495 -0.46438,-0.27412 -0.71891,-0.37204c-0.0968,0.0814 -0.19358,0.16276 -0.27111,0.26187c-0.06766,0.02296 -0.08127,0.06156 -0.12592,0.13978zM278.87281,215.9529c0.17993,-0.12421 0.38849,-0.13679 0.51254,-0.29539c-0.19437,-0.19598 -0.36949,-0.37425 -0.59303,-0.51186c-0.10856,0.13878 -0.28232,0.14924 -0.36789,0.34328c0.1056,0.18245 0.27327,0.28567 0.44836,0.46396zM286.67746,220.41028c-0.11738,-0.1251 -0.25025,-0.23038 -0.39678,-0.29707c-0.19731,0.12526 -0.39649,0.23169 -0.62854,0.35903c0.20236,0.10107 0.35264,0.20532 0.54139,0.34502c0.19732,-0.12524 0.37913,-0.23064 0.48394,-0.40697zM279.11075,213.95555c-0.21845,0.08872 -0.40398,0.15662 -0.52431,0.35272c0.10187,0.14492 0.18445,0.27214 0.33098,0.33885c0.20105,-0.08767 0.40394,-0.1566 0.6379,-0.26517c-0.1385,-0.16162 -0.27513,-0.30442 -0.44462,-0.42638zM286.49404,218.57065c0.22163,0.1188 0.34653,0.31901 0.54144,0.34501c0.16255,-0.12312 0.25185,-0.27961 0.32191,-0.45383c-0.13663,-0.14282 -0.25585,-0.28672 -0.45261,-0.3315c-0.12592,0.13979 -0.2537,0.26086 -0.41065,0.44029zM278.66662,220.72437c0.10855,-0.13877 0.22082,-0.23996 0.2735,-0.41313c-0.20424,-0.11984 -0.34649,-0.31902 -0.57991,-0.38046c-0.11045,0.11999 -0.16872,0.23683 -0.16925,0.40684c0.154,0.14178 0.32348,0.26374 0.47563,0.38672zM284.89502,213.22835c0.12782,-0.12103 0.18791,-0.21907 0.22702,-0.35365c-0.15214,-0.123 -0.33713,-0.22516 -0.54566,-0.21252c-0.09305,0.11894 -0.18605,0.23784 -0.29651,0.35785c0.20613,0.13864 0.41653,0.1448 0.61518,0.20834zM280.91114,223.42164c0.07566,-0.11785 0.13583,-0.21596 0.14197,-0.32962c-0.18497,-0.10213 -0.36629,-0.1667 -0.56119,-0.1927c-0.09492,0.10012 -0.15506,0.19821 -0.17672,0.33172c0.1869,0.12094 0.3973,0.12707 0.59594,0.1906zM277.62933,217.85984c-0.1973,0.12522 -0.19972,0.27645 -0.16551,0.44436c0.01308,0.13139 0.06095,0.26072 0.20561,0.30863c0.12782,-0.12103 0.23822,-0.241 0.30828,-0.41521c-0.11738,-0.1251 -0.23286,-0.23144 -0.34836,-0.33779zM285.26635,222.2141c0.15077,-0.06576 0.28978,-0.07416 0.36358,-0.21081c-0.33287,-0.35759 -0.6537,-0.24382 -0.9999,-0.03402c0.21788,0.08128 0.41844,0.1636 0.63631,0.24485zM277.85494,216.08989c0.08634,0.16477 0.18447,0.27213 0.3521,0.37532c0.07376,-0.13667 0.2457,-0.16596 0.30023,-0.32033c-0.0286,-0.11161 -0.10184,-0.14493 -0.16146,-0.21687c-0.07697,-0.07086 -0.12111,-0.16265 -0.24276,-0.15531c-0.0968,0.0814 -0.19359,0.1628 -0.24812,0.31717zM283.05826,217.7773c-0.08367,0.21277 -0.03771,0.32333 0.12056,0.33263c0.22777,0.00514 0.45184,-0.02728 0.6585,-0.05868c0.06949,-0.00417 0.15453,-0.02826 0.17806,-0.14296c-0.32217,-0.07495 -0.64057,-0.11237 -0.95713,-0.13103zM278.73855,221.79647c-0.10052,0.04384 -0.14518,0.12208 -0.15135,0.23578c0.17512,0.17829 0.3366,0.39518 0.59113,0.49311c0.08181,-0.23158 0.03024,-0.39846 -0.15665,-0.51934c-0.07699,-0.07088 -0.14039,-0.1804 -0.28314,-0.20954zM283.48283,220.28229c0.02619,0.26278 0.06663,0.31702 0.22297,0.30758c0.24142,-0.03348 0.50023,-0.06798 0.73416,-0.17655c-0.32779,-0.13129 -0.63632,-0.24484 -0.95714,-0.13103zM282.00647,223.18546c-0.14087,-0.01039 -0.26256,-0.00299 -0.38605,-0.01445c-0.24518,-0.00411 -0.24517,-0.00406 -0.2984,0.33909c0.12542,0.0302 0.27006,0.07812 0.34141,0.09267c0.12408,-0.15858 0.23446,-0.27856 0.34301,-0.41732zM287.74798,217.64512c-0.09811,-0.1074 -0.14974,-0.27424 -0.3409,-0.2627c-0.07567,0.11787 -0.13208,0.25349 -0.22324,0.39119c0.11738,0.12512 0.2192,0.27005 0.36385,0.31795c0.07376,-0.1367 0.16685,-0.25561 0.20027,-0.44648zM280.51939,222.12323c-0.23527,-0.08017 -0.47241,-0.17921 -0.70769,-0.25939c-0.08312,0.04281 -0.14703,0.10328 -0.10106,0.2138c0.17323,0.15949 0.37752,0.27939 0.60904,0.32203c0.09681,-0.08139 0.15879,-0.16067 0.1997,-0.27649zM286.5114,221.0247c0.03048,0.13035 0.10934,0.22004 0.2211,0.28881c0.06579,-0.04175 0.13153,-0.08349 0.19731,-0.12525c0.08128,-0.06154 0.16442,-0.10438 0.18793,-0.2191c-0.01122,-0.11264 -0.0553,-0.20438 -0.14972,-0.27423c-0.14706,0.10333 -0.30959,0.22647 -0.45664,0.32973zM286.49032,217.3056c0.11738,0.12512 0.24652,0.19286 0.39114,0.24078c0.08931,-0.15646 0.18045,-0.29418 0.25424,-0.43082c-0.06714,-0.14703 -0.17888,-0.21582 -0.28502,-0.22831c-0.12593,0.13978 -0.25184,0.27961 -0.36044,0.41835zM286.04754,221.80807c0.09865,-0.06261 0.1973,-0.12522 0.29412,-0.20661c0.01549,-0.0198 0.01175,-0.05739 0.02539,-0.096c-0.05961,-0.07195 -0.10559,-0.18247 -0.25025,-0.23038c-0.13343,0.06475 -0.30343,0.1128 -0.42937,0.25259c0.10187,0.1449 0.21363,0.21367 0.36014,0.28038zM284.65223,222.89341c0.19303,0.00722 0.2484,0.21162 0.42216,0.20111c0.1315,-0.08348 0.28607,-0.11167 0.41011,-0.27028c-0.1,-0.12615 -0.19814,-0.23355 -0.34889,-0.16775c-0.15078,0.06577 -0.30904,0.05644 -0.48338,0.23692zM279.57697,222.84119c0.12912,0.06774 0.26014,0.15424 0.37188,0.22303c0.01924,0.01774 0.05215,-0.00314 0.0869,-0.00527c0.02539,-0.09597 0.10295,-0.19506 0.03393,-0.36086c-0.14838,-0.08543 -0.31414,-0.16989 -0.4818,-0.27306c-0.05642,0.13559 -0.06255,0.2493 -0.01098,0.41616zM287.33784,216.68785c0.09306,-0.11893 0.20347,-0.23892 0.28098,-0.33802c-0.06897,-0.16581 -0.16709,-0.27322 -0.26335,-0.3618c-0.1198,0.02614 -0.12403,0.15857 -0.1687,0.23683c-0.04464,0.07827 -0.10667,0.15753 -0.07619,0.2879c0.04225,0.07299 0.10188,0.14494 0.22728,0.17514zM278.27313,214.49714c-0.11226,0.10123 -0.19172,0.18157 -0.2711,0.26188c-0.03289,0.02086 -0.04467,0.07825 -0.06016,0.09808c0.01308,0.13139 0.09196,0.22108 0.20373,0.28985c0.12966,-0.10226 0.26121,-0.18577 0.36978,-0.32446c-0.06337,-0.10947 -0.14224,-0.19915 -0.24223,-0.32531zM282.07437,223.6912c0.23342,0.06147 0.4668,0.12287 0.70449,0.05188c-0.06898,-0.16579 -0.10134,-0.31497 -0.2497,-0.40041c-0.28608,0.11167 -0.28608,0.1117 -0.45477,0.34851zM277.64344,216.42365c-0.2984,0.33909 -0.2965,0.35783 -0.08898,0.68526c0.11044,-0.12 0.20157,-0.25768 0.31203,-0.37765c-0.03048,-0.13035 -0.10934,-0.21999 -0.22295,-0.30759zM286.99881,220.12655c0.12967,-0.10225 0.22458,-0.20244 0.27914,-0.35682c-0.02113,-0.0365 -0.06149,-0.09073 -0.10186,-0.14495c-0.03851,-0.03544 -0.09439,-0.06986 -0.13286,-0.10527c-0.12966,0.10228 -0.27859,0.18683 -0.35052,0.34225c0.06336,0.10946 0.17698,0.19706 0.30613,0.26477zM278.9776,213.32145c0.04038,0.05419 0.10001,0.12614 0.15401,0.14179c0.1968,0.04478 0.36676,-0.00329 0.54487,-0.14625c-0.08072,-0.10846 -0.13046,-0.2565 -0.24037,-0.30653c-0.16629,0.08558 -0.35558,0.11591 -0.45851,0.31098zM285.99571,213.74725c0.0155,-0.0198 0.03101,-0.03964 0.06201,-0.07928c-0.16338,-0.23565 -0.37324,-0.41182 -0.58311,-0.58797c-0.11602,0.06366 -0.16066,0.1419 -0.16309,0.29311c0.22163,0.1188 0.44512,0.25634 0.68418,0.37414zM284.07126,219.17024c-0.2719,-0.09688 -0.52828,-0.21356 -0.82184,-0.17695c-0.01739,0.00103 -0.04462,0.07824 -0.04089,0.11577c0.00938,0.09385 0.08636,0.16474 0.17325,0.15945c0.23154,0.04268 0.45372,-0.00853 0.68949,-0.09829zM287.54531,219.47026c0.09493,-0.10014 0.18983,-0.20032 0.24625,-0.33593c-0.01309,-0.1314 -0.05721,-0.22317 -0.18819,-0.30968c-0.09118,0.13772 -0.19973,0.27646 -0.27351,0.4131c0.04597,0.1105 0.10561,0.18244 0.21549,0.23248zM277.64989,219.29389c0.00883,0.26386 0.01387,0.49018 0.15797,0.70809c0.15077,-0.06577 0.20721,-0.20136 0.24438,-0.3547c-0.11925,-0.14387 -0.21922,-0.27004 -0.40239,-0.3534zM280.43685,212.17574c0.12112,0.16266 0.14032,0.18037 0.19249,0.17725c0.17564,0.00829 0.32272,-0.09503 0.45236,-0.1973c0.04837,-0.04068 0.05638,-0.13563 -0.05349,-0.18564c-0.14518,0.12207 -0.37861,0.06063 -0.59139,0.20572zM285.94891,214.50547c0.2235,0.13761 0.43153,0.295 0.72882,0.29588c-0.14784,-0.25543 -0.36951,-0.37428 -0.55637,-0.49515c-0.08502,0.024 -0.11413,0.08243 -0.17242,0.19928zM277.87261,215.39007c-0.0615,-0.09071 -0.10562,-0.18246 -0.16709,-0.27317c-0.14708,0.10332 -0.25748,0.22331 -0.18475,0.42665c0.02298,0.05527 0.04598,0.1105 0.11738,0.1251c0.10051,-0.04384 0.1607,-0.14192 0.23446,-0.27856zM283.78197,221.52956c0.01687,0.16896 0.05906,0.24193 0.19621,0.21475c0.1198,-0.02611 0.23957,-0.05225 0.35748,-0.09716c0.05023,-0.02194 0.09868,-0.06262 0.07381,-0.13666c-0.21415,-0.04372 -0.40531,-0.03216 -0.62749,0.01904zM283.41839,214.37508c-0.23342,-0.06147 -0.46309,-0.08532 -0.68338,-0.01537c-0.0174,0.00105 -0.04462,0.07826 -0.04276,0.097c0.00373,0.03751 0.05961,0.07195 0.09438,0.06983c0.22405,-0.03241 0.43636,-0.00748 0.63181,-0.15149zM282.73771,213.50976c0.16817,-0.06681 0.35936,-0.07837 0.53929,-0.20252c-0.23526,-0.08019 -0.43018,-0.10619 -0.52882,-0.04357c-0.10051,0.04384 -0.09306,0.11893 -0.01043,0.24611zM278.03997,221.10219c0.07461,0.22212 0.10082,0.48496 0.32245,0.60374c0.10532,-0.34629 -0.1163,-0.46508 -0.32245,-0.60374zM281.17656,220.64823c0.00374,0.03752 0.02301,0.05533 0.02674,0.09284c0.17189,-0.02928 0.3358,0.03635 0.48284,-0.06696c0.00617,-0.11368 -0.01685,-0.16895 -0.10936,-0.22001c-0.11602,0.06366 -0.24943,0.12838 -0.40025,0.19417zM283.58659,216.76338c-0.24891,-0.04161 -0.44381,-0.0676 -0.65049,-0.03624c-0.03476,0.00209 -0.06577,0.04172 -0.06015,0.09804c0.00187,0.0188 0.02299,0.05526 0.04226,0.07299c0.23342,0.06147 0.44193,0.04884 0.66838,-0.13481zM278.80088,213.65317c-0.04599,-0.11051 -0.08633,-0.16473 -0.13475,-0.12405c-0.11602,0.06366 -0.23019,0.14611 -0.34436,0.22855c-0.0639,0.06051 -0.0583,0.11681 0.01684,0.16893c0.18556,-0.06784 0.33635,-0.13364 0.46226,-0.27344zM287.81106,218.45333c0.05961,0.07195 0.10188,0.14494 0.16148,0.21688c0.01923,0.01773 0.05401,0.01561 0.10802,0.03126c-0.02243,-0.22524 0.00909,-0.43487 -0.08475,-0.67475c-0.09118,0.13772 -0.15133,0.23578 -0.18474,0.42664zM280.91782,215.7726c-0.1719,0.02926 -0.32647,0.0575 -0.53313,0.08887c0.19252,0.17722 0.35451,0.2241 0.52641,0.19482c0.04277,-0.09701 0.05455,-0.15438 0.00671,-0.2837zM281.93988,221.64078c-0.11419,0.08244 -0.30903,0.05643 -0.39274,0.26924c0.42269,0.0311 0.50955,0.02587 0.53498,-0.07012c-0.00938,-0.09385 -0.04974,-0.14809 -0.14224,-0.19915zM283.43951,215.63914c-0.28311,-0.20954 -0.49165,-0.19689 -0.74485,-0.10608c0.23476,0.25021 0.46304,0.08531 0.74485,0.10608zM284.73085,222.45428c-0.26387,-0.1918 -0.45507,-0.18026 -0.65985,-0.1301c-0.01739,0.00104 -0.03101,0.03965 -0.02727,0.07718c0.0056,0.05632 0.04412,0.09176 0.07886,0.08965c0.17564,0.0083 0.34753,-0.02098 0.60822,-0.03674zM282.29038,222.52619c-0.15077,0.06576 -0.32271,0.09505 -0.4256,0.29008c0.17941,0.04581 0.33393,0.01758 0.47108,-0.00957c0.04091,-0.11577 0.01605,-0.18979 -0.04546,-0.28053zM285.74761,222.65722c0.14332,-0.14087 0.33447,-0.15241 0.38528,-0.34434c-0.24891,-0.04161 -0.2489,-0.04161 -0.47162,0.17957c0.02113,0.0365 0.04225,0.07299 0.08635,0.16475zM278.89848,221.29587c0.07834,0.25965 0.24784,0.38162 0.43286,0.48375c0.09865,-0.06261 0.09118,-0.13772 0.03344,-0.19086c-0.14839,-0.08542 -0.29866,-0.1897 -0.46628,-0.29286zM287.25283,220.39448c0.0286,0.11161 0.05533,0.2044 0.16521,0.25439c0.07939,-0.08032 0.15884,-0.16068 0.16497,-0.27432c-0.02672,-0.09281 -0.06712,-0.14702 -0.14039,-0.18039c-0.08313,0.04281 -0.12966,0.10226 -0.18981,0.20033zM280.8111,218.38528c0.14462,0.04792 0.25268,0.07918 0.3532,0.03532c0.03289,-0.02086 0.04653,-0.05946 0.06017,-0.09807c-0.0056,-0.05632 -0.04785,-0.12933 -0.09809,-0.10741c-0.1043,0.0063 -0.22593,0.01365 -0.31524,0.17015zM287.89235,217.16423c0.03529,-0.17211 -0.06659,-0.31704 -0.11632,-0.4651c-0.20347,0.23892 -0.19969,0.27647 0.11632,0.4651zM282.65032,212.45747c0.26817,0.05933 0.26816,0.05934 0.3556,-0.11592c-0.10802,-0.03126 -0.23343,-0.06144 -0.3556,0.11592zM281.3945,219.50196c0.04464,-0.07827 0.03903,-0.13456 0.00242,-0.15122c-0.14839,-0.08542 -0.19865,-0.06353 -0.33821,0.11488c0.12724,0.04898 0.23156,0.04269 0.33582,0.03638zM284.6704,223.25107c-0.09627,-0.0886 -0.19065,-0.15843 -0.30852,-0.11358c0.0821,0.29719 0.11867,0.31386 0.30852,0.11358zM283.21923,212.02655c-0.13292,-0.10531 -0.27377,-0.11568 -0.39726,-0.12708c-0.0695,0.00418 -0.11605,0.06367 -0.0353,0.17211c0.12351,0.0114 0.26443,0.0218 0.43258,-0.045zM286.63605,221.92368c-0.17753,-0.02704 -0.25881,0.03451 -0.2786,0.1868c0,0 0.02113,0.0365 0.03851,0.03544c0.10615,0.01245 0.16443,-0.10433 0.24013,-0.22223zM280.82474,217.11909c0.04599,0.11051 0.11926,0.14389 0.18687,0.12091c0.03476,-0.00209 0.06577,-0.04175 0.07941,-0.08033c0.01362,-0.03861 -0.02672,-0.09279 -0.06149,-0.09068c-0.05402,-0.01563 -0.12351,-0.01144 -0.2048,0.05012zM287.81105,219.68092c-0.11417,0.08244 -0.15883,0.16067 -0.07431,0.30666c0.12966,-0.10228 0.15695,-0.17945 0.07431,-0.30666z" fill="#000000"/><path d="M274.68521,217.26343c0.04249,0.60175 0.08499,1.20355 0.1449,1.80427c0.06738,0.67583 0.20425,1.34741 0.42616,1.99498c0.07272,0.20334 0.17643,0.36703 0.26839,0.58808c-0.27808,0.0168 -0.51944,0.0503 -0.76462,0.04621c-1.46727,0.01311 -2.94253,0.1211 -4.42342,0.17281c-1.32449,0.04223 -2.62972,0.10223 -3.95235,0.16326c-0.90554,0.03584 -1.79372,0.07059 -2.69924,0.1064c-0.85342,0.03268 -1.68567,0.10185 -2.53907,0.13455c-0.06952,0.00418 -0.13904,0.00839 -0.21041,-0.00618c-0.21738,-0.25124 -0.33231,-0.52761 -0.43366,-0.84251c-0.1548,-0.50057 -0.2767,-1.02198 -0.31173,-1.54864c-0.01687,-0.16896 -0.05108,-0.33684 0.02087,-0.49227c0.05161,0.16687 0.0182,0.35771 0.12565,0.55896c0.26494,-0.14817 0.56597,-0.10973 0.84219,-0.14531c0.01739,-0.00104 0.03474,-0.0021 0.03289,-0.02086c0.45423,-0.1785 0.95821,-0.20894 1.43546,-0.33223c0.17002,-0.04803 0.33446,-0.15241 0.51197,-0.12538c0.35131,0.01657 0.66465,-0.17236 1.01599,-0.15581c0.01739,-0.00104 0.05026,-0.02193 0.08504,-0.02401c0.32453,-0.07628 0.62989,-0.17022 0.95819,-0.20896c0.38231,-0.02311 0.71494,-0.19428 1.10098,-0.17985c0.21467,-0.12628 0.44435,-0.10236 0.68577,-0.13583c0.03476,-0.00209 0.05216,-0.00316 0.08688,-0.00524c0.3326,-0.17117 0.70502,-0.11815 1.04512,-0.21423c0.34007,-0.09608 0.70876,-0.0806 1.05071,-0.15793c0.39411,-0.08046 0.76514,-0.21621 1.18787,-0.18506c0.03476,-0.00209 0.08691,-0.00524 0.11979,-0.02612c0.17993,-0.12421 0.39408,-0.08045 0.60076,-0.11181c0.1043,-0.0063 0.22776,0.00512 0.32831,-0.03873c0.14892,-0.08451 0.28981,-0.07416 0.44623,-0.08361c0.0869,-0.00525 0.17568,0.00828 0.24142,-0.03349c0.21467,-0.12628 0.46172,-0.10344 0.68762,-0.11709c0.0869,-0.00525 0.17564,0.00825 0.24143,-0.03347c0.1818,-0.10538 0.37484,-0.0982 0.56601,-0.10972c0.31284,-0.01892 0.61251,-0.1692 0.92718,-0.16932c0.05401,0.01561 0.10053,-0.04381 0.15078,-0.06578z" fill="#87d7dc"/><path d="M274.68518,217.26344c-0.05025,0.02191 -0.09679,0.0814 -0.14893,0.08454c-0.31468,0.00015 -0.61625,0.13166 -0.92719,0.16933c-0.19116,0.01154 -0.38422,0.00432 -0.566,0.10971c-0.06579,0.04175 -0.15455,0.02823 -0.24139,0.03351c-0.22591,0.01368 -0.47108,0.00955 -0.68766,0.11705c-0.06577,0.04175 -0.15642,0.00946 -0.24142,0.0335c-0.15639,0.00945 -0.29545,0.01785 -0.44623,0.08361c-0.10051,0.04384 -0.22408,0.03242 -0.32834,0.03872c-0.20666,0.03138 -0.42082,-0.01233 -0.60075,0.11184c-0.03289,0.02086 -0.08502,0.02402 -0.11978,0.02612c-0.40532,-0.03216 -0.79381,0.10461 -1.18788,0.18509c-0.35936,0.07837 -0.72801,0.06287 -1.05072,0.15788c-0.34005,0.0961 -0.71251,0.04306 -1.04509,0.21424c-0.01552,0.01979 -0.05215,0.00314 -0.08691,0.00524c-0.22591,0.01368 -0.47107,0.00959 -0.68579,0.13587c-0.38795,-0.03324 -0.72054,0.13798 -1.10098,0.17981c-0.33018,0.01994 -0.63363,0.13272 -0.9582,0.20894c-0.03476,0.00209 -0.05027,0.02197 -0.08503,0.02404c-0.35131,-0.01657 -0.66464,0.17237 -1.01598,0.15582c-0.19302,-0.00722 -0.34009,0.09607 -0.51198,0.12538c-0.4791,0.10449 -0.98122,0.15372 -1.43545,0.33222c-0.01739,0.00104 -0.03289,0.02089 -0.03289,0.02089c-0.27619,0.03559 -0.57725,-0.00291 -0.84219,0.14532c-0.10561,-0.18246 -0.05479,-0.3744 -0.12563,-0.55897c-0.01498,-0.15016 -0.02991,-0.30034 0.06127,-0.43807c0.1043,-0.0063 0.22776,0.00512 0.32828,-0.03873c0.35182,-0.15345 0.71868,-0.15669 1.07989,-0.21631c0.36118,-0.0596 0.71302,-0.21306 1.10095,-0.17984c0.21467,-0.12628 0.44435,-0.10241 0.68577,-0.13587c0.03476,-0.00209 0.08689,-0.00525 0.11978,-0.02613c0.14707,-0.10332 0.32456,-0.07625 0.47913,-0.10447c0.0869,-0.00525 0.17379,-0.01053 0.24141,-0.03347c0.37297,-0.11697 0.76515,-0.21623 1.16488,-0.24036c0.05215,-0.00312 0.12354,0.01145 0.15453,-0.02822c0.16439,-0.10434 0.34006,-0.0961 0.51385,-0.1066c0.19302,0.00722 0.35373,-0.13471 0.56412,-0.1285c0.27993,0.00198 0.53125,-0.10765 0.80555,-0.16199c0.37859,-0.06066 0.73228,-0.19532 1.13199,-0.21944c0.06952,-0.00418 0.15829,0.00933 0.20667,-0.03139c0.13156,-0.08346 0.28979,-0.07419 0.44433,-0.10238c0.13902,-0.00839 0.27616,-0.03557 0.3941,-0.08044c0.21845,-0.08872 0.4406,-0.13994 0.68391,-0.15467c0.36306,-0.04082 0.71492,-0.19429 1.10283,-0.16108c0.03476,-0.00209 0.08502,-0.02398 0.11979,-0.02611c0.35936,-0.07837 0.71677,-0.17553 1.07985,-0.2163c0.38231,-0.02311 0.74968,-0.19639 1.13574,-0.18192c0.05215,-0.00312 0.10051,-0.04385 0.15078,-0.06578c0.22217,-0.05119 0.46359,-0.08467 0.69512,-0.042c0.02672,0.09281 0.03425,0.16788 0.05908,0.24193c-0.02594,0.26598 -0.03823,0.49333 -0.03129,0.73842z" fill="#b0eef2"/><path d="M284.16669,223.81035c-0.32453,0.07625 -0.58338,0.11076 -0.85155,0.05143c-0.154,-0.1418 -0.22674,-0.34512 -0.31682,-0.54738c-0.39836,-1.01462 -0.77934,-2.03029 -1.02506,-3.09192c-0.18474,-0.80093 -0.37138,-1.62062 -0.4711,-2.44553c-0.02244,-0.22526 -0.02942,-0.47036 -0.10399,-0.6925c-0.02672,-0.09281 -0.03795,-0.20546 -0.04918,-0.31806c0.0246,-0.45475 -0.05507,-0.90317 -0.08262,-1.35478c-0.04627,-0.63932 -0.02301,-1.28285 0.03502,-1.92843c0.0377,-0.32332 0.05802,-0.64563 0.07645,-0.98666c0.00858,-0.26489 0.09036,-0.49646 0.15481,-0.727c0.29973,-0.15029 0.41947,-0.17641 0.8403,-0.16406c0.02381,0.41401 -0.04116,0.81455 -0.05215,1.23067c-0.01284,0.39736 -0.0238,0.81349 -0.01927,1.20982c0.00639,0.41508 0.03208,0.84792 0.05586,1.26194c0.00453,0.3963 0.11527,0.80509 0.06766,1.20462c0.12807,0.40777 0.11708,0.82388 0.17565,1.23584c0.05667,0.39317 0.13262,0.80405 0.20667,1.1962c0.07592,0.4109 0.16924,0.82072 0.26439,1.24936c0.09143,0.39107 0.16735,0.80196 0.2762,1.19201c0.11069,0.40878 0.25424,0.7967 0.38231,1.20447c0.12994,0.42651 0.23875,0.81653 0.43633,1.22008z" fill="#d1eaeb"/><path d="M274.70093,216.54482c-0.02486,-0.07404 -0.03236,-0.14914 -0.05909,-0.24192c-0.23155,-0.04266 -0.45743,-0.02901 -0.69512,0.042c-0.05026,0.02191 -0.09865,0.06261 -0.15077,0.06576c-0.38604,-0.01446 -0.75532,0.14007 -1.13575,0.18193c-0.36495,0.02205 -0.72052,0.13794 -1.07987,0.21627c-0.03476,0.00209 -0.08504,0.02402 -0.11978,0.02612c-0.38794,-0.03324 -0.72052,0.13793 -1.10285,0.16104c-0.22591,0.01368 -0.46547,0.06591 -0.6839,0.15467c-0.13524,0.04592 -0.27243,0.07313 -0.39409,0.08046c-0.15639,0.00945 -0.29729,-0.00092 -0.44435,0.10239c-0.04838,0.04067 -0.13717,0.02716 -0.20668,0.03135c-0.38231,0.02311 -0.75338,0.15886 -1.13198,0.21948c-0.27432,0.05432 -0.52561,0.16398 -0.80555,0.16198c-0.19302,-0.00722 -0.35371,0.13468 -0.56412,0.1285c-0.17565,-0.00827 -0.36868,-0.01549 -0.51387,0.10657c-0.05026,0.02191 -0.10238,0.02508 -0.1545,0.02824c-0.39968,0.02414 -0.77452,0.12229 -1.16487,0.24036c-0.08502,0.024 -0.17377,0.01052 -0.24139,0.03346c-0.15639,0.00945 -0.33206,0.00122 -0.47909,0.10451c-0.03289,0.02086 -0.08502,0.02403 -0.11977,0.02611c-0.22591,0.01368 -0.47109,0.00958 -0.68578,0.13586c-0.38794,-0.03322 -0.73978,0.12023 -1.10095,0.17985c-0.36118,0.0596 -0.74537,0.06392 -1.07984,0.2163c-0.10052,0.04384 -0.22405,0.0324 -0.32832,0.03873c-0.03421,-0.16791 0.05881,-0.28683 0.06307,-0.41929c0.72051,-0.13797 1.40444,-0.29259 2.0902,-0.42844c0.75342,-0.15882 1.49132,-0.29785 2.24659,-0.43792c0.70317,-0.13691 1.40444,-0.29261 2.10571,-0.44828c0.8732,-0.18495 1.72712,-0.38763 2.58294,-0.57155c0.65103,-0.13377 1.30205,-0.26748 1.95118,-0.42005c1.01034,-0.21214 2.04558,-0.35023 3.05216,-0.59992c0.13714,-0.02717 0.27055,-0.0919 0.43257,-0.04502c0.01687,0.16896 -0.01845,0.34103 -0.03636,0.51211c-0.02538,0.09597 0.02621,0.2628 -0.0457,0.41827z" fill="#87d7dc"/><path d="M259.81397,219.78612c0.07406,0.39212 0.07674,0.76968 0.16819,1.16072c0.11442,0.44635 0.24625,0.89162 0.48229,1.3306c-1.00795,0.06091 -1.9985,0.12076 -2.97168,0.17956c-0.21176,-0.19493 -0.30557,-0.43479 -0.41494,-0.65482c-0.19946,-0.42231 -0.27724,-0.85198 -0.35692,-1.30042c-0.00187,-0.0188 0.01176,-0.05735 0.02726,-0.0772c0.1211,0.16265 0.2545,0.09793 0.3898,0.05197c0.33822,-0.11488 0.67827,-0.21097 1.02772,-0.21317c0.06952,-0.00418 0.13903,-0.0084 0.20665,-0.03139c0.31897,-0.13259 0.66838,-0.13481 0.99298,-0.21109c0.18744,-0.04904 0.32265,-0.09507 0.44861,-0.23485z" fill="#61afb4"/><path d="M276.98416,216.12359c-0.03878,0.66332 0.04411,1.31928 0.0575,1.97947c0.01256,0.3014 0.07729,0.59967 0.14198,0.89794c0.09089,0.56108 0.11415,1.1451 0.27459,1.70197c0.0572,0.22318 0.1144,0.44635 0.18712,0.64969c0.04786,0.12932 0.07835,0.25964 0.09144,0.39108c-0.05023,0.02194 -0.08314,0.04279 -0.11793,0.04488c-0.13901,0.00837 -0.27804,0.01682 -0.41706,0.02523c-0.0615,-0.0907 -0.10371,-0.16372 -0.14784,-0.25545c-0.2759,-0.66318 -0.5537,-1.34518 -0.62669,-2.07734c-0.08102,-0.63722 -0.1639,-1.29315 -0.1754,-1.93461c-0.01579,-0.50898 -0.04893,-1.01687 0.07618,-1.51545c0.04414,0.09175 0.00322,0.20755 0.11496,0.2763c0.19489,0.02599 0.42644,0.06867 0.54113,-0.18378z" fill="#61aeb3"/><path d="M275.86475,216.64446c0.06657,0.31704 -0.00777,0.62367 0.00667,0.94385c0.05001,0.67688 0.09996,1.35372 0.20212,2.02742c0.08901,0.54228 0.24572,1.06164 0.43526,1.56008c0.04786,0.12932 0.09571,0.25859 0.14358,0.38791c-0.2433,0.01471 -0.45185,0.02735 -0.67777,0.04096c-0.23099,-0.21266 -0.34593,-0.48903 -0.42805,-0.78622c-0.1051,-0.35247 -0.212,-0.7237 -0.2668,-1.09811c-0.1537,-0.84056 -0.2013,-1.66866 -0.26816,-2.51447c-0.01497,-0.15017 -0.02995,-0.30038 0.04385,-0.43703c0.0869,-0.00525 0.17566,0.00824 0.24142,-0.03349c0.1663,-0.08558 0.37673,-0.07944 0.56785,-0.09098z" fill="#61aeb3"/><path d="M259.81396,219.78611c-0.11044,0.12 -0.24383,0.18468 -0.41575,0.21396c-0.32455,0.07626 -0.67403,0.07847 -0.99295,0.21109c-0.06766,0.02297 -0.13717,0.0272 -0.20669,0.03138c-0.36496,0.02207 -0.68763,0.11708 -1.0277,0.21317c-0.11792,0.04489 -0.2687,0.11069 -0.38981,-0.05198c-0.04544,-0.28054 -0.0369,-0.54544 0.02566,-0.79473c0.2377,-0.07104 0.47351,-0.1608 0.72053,-0.13797c0.03476,-0.00209 0.08503,-0.02401 0.11978,-0.02613c0.34193,-0.07732 0.70128,-0.15569 1.04511,-0.21424c0.15453,-0.02822 0.29356,-0.0366 0.44623,-0.0836c0.18555,-0.06783 0.39223,-0.09924 0.59274,-0.01692c0.02672,0.09281 0.03422,0.16789 0.05906,0.24193c0.01308,0.13139 0.0107,0.28266 0.02381,0.41402z" fill="#87d7dc"/><path d="M285.47862,216.10138c-0.22084,0.24 -0.48948,0.35063 -0.76011,0.44253c-0.06764,0.02297 -0.17192,0.02927 -0.2433,0.01471c-0.51893,-0.11972 -1.03041,-0.16439 -1.53997,-0.19024c-0.01739,0.00104 -0.054,-0.01562 -0.07327,-0.03333c-0.05961,-0.07195 -0.06901,-0.16581 -0.02622,-0.2628c0.03476,-0.00209 0.06766,-0.023 0.1024,-0.02509c0.41893,-0.00638 0.83229,-0.06915 1.21889,-0.22471c0.20293,-0.06891 0.39412,-0.08046 0.61199,0.00079c0.23713,0.099 0.46866,0.14164 0.70958,0.27819z" fill="#cce5e6"/><path d="M282.74226,215.13361c-0.06337,-0.10947 -0.05347,-0.18561 -0.00696,-0.24508c0.83042,-0.08793 0.8304,-0.08795 1.53034,-0.4324c0.2992,0.0197 0.60769,0.13324 0.89509,0.21033c0.04786,0.12932 -0.05454,0.15435 -0.10294,0.19505c-0.17804,0.14296 -0.33875,0.28486 -0.53795,0.39131c-0.13344,0.06474 -0.25321,0.09081 -0.39593,0.06169c-0.44571,-0.08639 -0.90687,-0.15294 -1.38168,-0.18094z" fill="#cce5e6"/><path d="M259.7883,219.35332c-0.02486,-0.07405 -0.03235,-0.14916 -0.05907,-0.24192c-0.20052,-0.08232 -0.40717,-0.05094 -0.59275,0.01694c-0.15268,0.04701 -0.29168,0.05541 -0.44625,0.0836c-0.34383,0.05855 -0.70314,0.13691 -1.0451,0.21423c-0.03476,0.00209 -0.08504,0.02403 -0.11979,0.02612c-0.26254,-0.00301 -0.48097,0.08569 -0.72051,0.13794c0.01977,-0.15227 0.04145,-0.28581 0.13075,-0.44228c0.48098,-0.08571 0.97562,-0.21004 1.47584,-0.27804c0.48098,-0.08571 0.95446,-0.2465 1.47581,-0.27802c0.01255,0.30139 -0.03448,0.53086 -0.09889,0.76139z" fill="#60adb2"/><path d="M281.48218,219.85549c0.02486,0.07403 0.04785,0.12934 0.07272,0.20335c-0.03101,0.03966 -0.04652,0.05944 -0.06201,0.07926c-0.28793,0.09294 -0.55291,0.24116 -0.81596,0.40809c-0.11603,0.06366 -0.21845,0.08875 -0.34569,0.03977c-0.25266,-0.07917 -0.51893,-0.11971 -0.75181,-0.35116c0.20347,-0.2389 0.46842,-0.38713 0.73524,-0.51654c0.05023,-0.02194 0.13903,-0.00836 0.2104,0.00617c0.31839,0.03738 0.63689,0.07483 0.95717,0.13103z" fill="#cce5e6"/><path d="M285.90508,219.85266c-0.16627,0.08559 -0.26497,0.14819 -0.38101,0.21186c-0.21658,0.10751 -0.42321,0.13887 -0.67775,0.04096c-0.4339,-0.14376 -0.87962,-0.23011 -1.31406,-0.20387c-0.13902,0.00838 -0.15826,-0.00934 -0.16338,-0.23565c0.05214,-0.00314 0.10239,-0.0251 0.15456,-0.02822c0.43632,-0.00748 0.84777,-0.08899 1.25363,-0.22682c0.10241,-0.02505 0.18742,-0.04908 0.27807,-0.01683c0.27567,0.13442 0.54755,0.23133 0.84991,0.45859z" fill="#cae2e3"/><path d="M282.94569,217.34977c0.0155,-0.0198 0.04842,-0.04073 0.06579,-0.04175c0.40341,0.01339 0.77825,-0.08479 1.13388,-0.2007c0.34005,-0.0961 0.67028,-0.11604 1.01915,0.05175c0.16576,0.08443 0.35879,0.09161 0.51091,0.21466c-0.33498,0.32242 -0.7446,0.42269 -1.14001,0.31438c-0.4842,-0.12184 -0.95285,-0.26348 -1.45498,-0.21426c-0.05401,-0.01561 -0.12352,-0.01144 -0.13476,-0.12406z" fill="#c9e1e2"/><path d="M285.75669,218.5397c-0.25935,0.20452 -0.49513,0.2943 -0.74832,0.38513c-0.08502,0.024 -0.17191,0.02925 -0.24518,-0.00408c-0.50345,-0.13955 -1.02049,-0.24051 -1.5338,-0.30393c-0.03476,0.00209 -0.08874,-0.0135 -0.08073,-0.10843c0.12163,-0.00735 0.26065,-0.01575 0.38045,-0.04186c0.34569,-0.03976 0.68951,-0.09833 1.00846,-0.23092c0.2358,-0.08982 0.46359,-0.08466 0.68523,0.03415c0.16576,0.08443 0.31416,0.16984 0.53393,0.26991z" fill="#c9e1e2"/><path d="M281.77385,221.02763c0.09811,0.10742 0.10748,0.20128 0.11683,0.29512c-0.01549,0.0198 -0.0484,0.04072 -0.0639,0.0605c-0.27431,0.05433 -0.52376,0.18274 -0.73281,0.36535c-0.12967,0.10225 -0.26682,0.12942 -0.42885,0.08254c-0.19863,-0.06352 -0.4128,-0.10722 -0.59783,-0.20936c0.13581,-0.21593 0.38955,-0.47682 0.52484,-0.52275c0.08313,-0.04281 0.1564,-0.00947 0.24517,0.00409c0.29354,-0.03661 0.61387,0.01955 0.93653,-0.07545z" fill="#cae3e4"/><path d="M279.98687,214.67688c0.29675,0.17091 0.58791,0.28555 0.89458,0.38033c0.04597,0.1105 0.05349,0.18565 0.01071,0.28265c-0.30342,0.11276 -0.67212,0.09722 -0.97371,0.22877c-0.20051,-0.08233 -0.31976,-0.22618 -0.4719,-0.34917c-0.07697,-0.07086 -0.16948,-0.12192 -0.19997,-0.2523c0.21096,-0.16383 0.49086,-0.16184 0.74031,-0.29023z" fill="#c8e0e1"/><path d="M281.10306,217.6311c-0.00054,0.16999 -0.06817,0.19297 -0.13582,0.21594c-0.25321,0.09086 -0.48899,0.18062 -0.74404,0.25271c-0.06765,0.02298 -0.13716,0.02718 -0.21043,-0.00615c-0.20423,-0.11986 -0.41037,-0.2585 -0.60102,-0.41692c0.09491,-0.10013 0.19732,-0.12524 0.29599,-0.18785c0.29596,-0.18782 0.58951,-0.22447 0.89191,0.00274c0.15027,0.10425 0.32779,0.13129 0.50345,0.13953z" fill="#cbe4e5"/><path d="M280.98515,216.44841c0.00938,0.09385 0.015,0.15016 0.02061,0.20649c-0.03289,0.02086 -0.04655,0.05944 -0.0639,0.06051c-0.18744,0.04904 -0.37672,0.07944 -0.56413,0.12852c-0.10242,0.02505 -0.19117,0.01154 -0.28367,-0.03954c-0.27751,-0.15319 -0.53953,-0.32624 -0.80716,-0.55557c0.14329,-0.14087 0.29783,-0.16907 0.45235,-0.19729c0.06949,-0.00417 0.13904,-0.00837 0.19488,0.02597c0.30239,0.22724 0.66119,0.31889 1.05099,0.37089z" fill="#c8e0e1"/><path d="M275.86477,216.64446c-0.19116,0.01154 -0.4016,0.00537 -0.58339,0.11081c-0.06577,0.04175 -0.15451,0.02819 -0.24141,0.03347c-0.04919,-0.31807 -0.02701,-0.62158 0.0666,-0.91052c0.24704,0.02286 0.48283,-0.06693 0.68761,-0.11709c0.1,0.12615 0.06095,0.26072 0.10694,0.37121c0.03421,0.16791 0.03554,0.35669 -0.03635,0.51211z" fill="#85d5d9"/><path d="M285.19574,221.3308c-0.27004,-0.07811 -0.54006,-0.1562 -0.8256,-0.21452c-0.24892,-0.04163 -0.51198,0.12536 -0.80072,-0.14051c0.59083,-0.03571 1.09911,-0.19861 1.60735,-0.36151c0.20051,0.08233 0.42028,0.18233 0.5954,0.36064c-0.03101,0.03966 -0.04653,0.05947 -0.06201,0.07927c-0.16441,0.10435 -0.33073,0.18997 -0.51437,0.27659z" fill="#c6dede"/><path d="M285.8695,215.81336c-0.30856,-0.11357 -0.5804,-0.21043 -0.88897,-0.32399c0.08931,-0.15646 0.22271,-0.22121 0.31761,-0.32135c0.11226,-0.10123 0.20349,-0.23892 0.35426,-0.30467c0.12163,-0.00735 0.2334,0.06143 0.34327,0.11142c0.10987,0.05 0.22163,0.11884 0.33528,0.20637c-0.07807,0.26911 -0.27166,0.43186 -0.46148,0.63222z" fill="#cae3e3"/><path d="M282.58773,213.93428c0.50825,-0.16293 0.92961,-0.32059 1.32232,-0.58982c0.23342,0.06147 0.46493,0.10412 0.71572,0.16451c-0.11469,0.25246 -0.31387,0.35892 -0.49192,0.50184c-0.03289,0.02086 -0.08505,0.02401 -0.11978,0.0261c-0.44006,-0.03007 -0.88015,-0.06012 -1.42633,-0.10265z" fill="#cae3e4"/><path d="M279.5353,218.91559c0.25933,-0.20452 0.50503,-0.37047 0.86943,-0.2225c0.25454,0.09794 0.51709,0.10097 0.77962,0.10399c0.10429,-0.0063 0.13102,0.08649 0.1075,0.20125c-0.28178,-0.02072 -0.53313,0.08887 -0.78444,0.19849c-0.18366,0.08664 -0.34381,0.05857 -0.50958,-0.02585c-0.1465,-0.06669 -0.30666,-0.09481 -0.46254,-0.25538z" fill="#c8e0e1"/><path d="M276.98418,216.12359c-0.13208,0.25349 -0.34621,0.20974 -0.55663,0.20358c-0.11173,-0.06877 -0.08824,-0.1835 -0.11498,-0.27629c-0.00694,-0.24507 0.04013,-0.47455 0.12194,-0.70616c0.19302,0.00722 0.3767,-0.0794 0.55983,0.00393c0.02672,0.09281 0.03235,0.14915 0.03984,0.22422c-0.01603,0.18984 -0.03204,0.37964 -0.04999,0.5507z" fill="#85d4d9"/><path d="M279.73236,217.03407c-0.24945,0.12838 -0.46787,0.21713 -0.68443,0.32465c-0.20799,-0.15741 -0.40051,-0.3346 -0.5601,-0.53274c0.02165,-0.13353 0.12218,-0.17735 0.18606,-0.23785c0.06389,-0.06052 0.12778,-0.12101 0.25131,-0.10958c0.2235,0.13761 0.48737,0.32936 0.80716,0.55556z" fill="#c7dfe0"/><path d="M279.17461,220.03272c-0.1869,-0.12094 -0.37187,-0.22306 -0.54702,-0.40132c0.13394,-0.23473 0.33311,-0.34117 0.54594,-0.48622c0.22163,0.11881 0.44328,0.23759 0.68232,0.35538c-0.22459,0.20241 -0.43745,0.34749 -0.68124,0.53217z" fill="#c8e0e1"/><path d="M286.51549,216.68086c-0.12408,0.15858 -0.24813,0.31713 -0.42993,0.42256c-0.25454,-0.09794 -0.51092,-0.21464 -0.78468,-0.3303c-0.00373,-0.03751 -0.00748,-0.07507 0.00991,-0.07612c0.14518,-0.12208 0.30772,-0.2452 0.45476,-0.34852c0.06579,-0.04175 0.13342,-0.06475 0.18928,-0.03035c0.21976,0.10005 0.43392,0.14376 0.56068,0.36273z" fill="#c4dcdd"/><path d="M286.26306,219.58558c-0.24088,-0.13653 -0.4799,-0.2543 -0.72081,-0.39084c0.03718,-0.1533 0.17619,-0.1617 0.27485,-0.22433c0.09865,-0.06261 0.21657,-0.10753 0.33258,-0.17119c0.21788,0.08128 0.37559,0.26063 0.5644,0.40031c-0.10104,0.21381 -0.26736,0.29942 -0.45104,0.38603z" fill="#c8e0e1"/><path d="M279.31388,220.553c0.25639,0.11674 0.49357,0.21572 0.76732,0.33137c-0.12029,0.19613 -0.30214,0.30152 -0.42432,0.4789c-0.25077,-0.06042 -0.4259,-0.23868 -0.64939,-0.37626c0.08555,-0.19402 0.15747,-0.34945 0.30639,-0.43395z" fill="#c6ddde"/><path d="M282.16793,222.17472c-0.27672,0.20559 -0.59753,0.31941 -0.83388,0.57918c-0.21415,-0.0437 -0.40909,-0.06972 -0.61333,-0.18957c0.0992,-0.23259 0.2425,-0.3735 0.50689,-0.35169c0.3184,0.03741 0.62748,-0.01904 0.9403,-0.03794z" fill="#b9cfd0"/><path d="M282.72624,212.86836c0.04091,-0.11577 0.13342,-0.06476 0.20103,-0.0877c0.15266,-0.04699 0.30716,-0.07523 0.40025,-0.19417c0.1762,-0.16173 0.3692,-0.15453 0.58151,-0.12956c0.08878,0.01355 0.17941,0.0458 0.30479,0.07601c-0.16681,0.25562 -0.32192,0.45382 -0.65957,0.39868c-0.23154,-0.04265 -0.47296,-0.00921 -0.70075,-0.01433c-0.05214,0.00312 -0.10428,0.00629 -0.12726,-0.04897z" fill="#c0d8d8"/><path d="M279.48372,213.83862c0.14707,-0.10332 0.28232,-0.14925 0.42134,-0.15766c0.06949,-0.00417 0.15642,-0.00949 0.21228,0.02492c0.24276,0.15532 0.49728,0.25323 0.75182,0.35118c0.01307,0.1314 -0.05828,0.11682 -0.11045,0.11999c-0.17379,0.0105 -0.36496,0.02207 -0.53499,0.07011c-0.22218,0.05119 -0.38419,0.00433 -0.52458,-0.17605c-0.0615,-0.09071 -0.11924,-0.14388 -0.21547,-0.23247z" fill="#c1d9d9"/><path d="M279.14227,218.65601c-0.20236,-0.10107 -0.35638,-0.24289 -0.54514,-0.38255c0.08367,-0.21279 0.26922,-0.28062 0.41441,-0.40274c0.23903,0.11775 0.41602,0.31477 0.62589,0.49098c-0.1607,0.1419 -0.32888,0.20872 -0.49516,0.29434z" fill="#c3dbdc"/><path d="M285.48824,217.95153c0.23207,-0.12737 0.44866,-0.23485 0.66334,-0.36113c0.16392,0.06561 0.31039,0.13234 0.43153,0.29497c-0.1222,0.17736 -0.28662,0.2817 -0.44916,0.40488c-0.23342,-0.06147 -0.43577,-0.1625 -0.64565,-0.33868z" fill="#c3dadb"/><path d="M278.17632,217.03359c0.17512,0.17829 0.33098,0.33883 0.48684,0.49936c-0.10293,0.19507 -0.26735,0.29943 -0.43176,0.40378c-0.16951,-0.12194 -0.30613,-0.26476 -0.42907,-0.44617c0.02916,-0.05841 0.07381,-0.13665 0.10479,-0.17629c0.09491,-0.10015 0.17617,-0.16172 0.26925,-0.28066z" fill="#c4dbdc"/><path d="M280.92024,213.16636c-0.33022,0.01994 -0.59091,0.03569 -0.86892,0.05254c-0.13103,-0.08652 -0.22913,-0.19393 -0.29807,-0.35968c0.07567,-0.11785 0.20106,-0.08768 0.30159,-0.13151c0.1005,-0.04385 0.20293,-0.06891 0.28982,-0.07419c0.19255,0.17724 0.34653,0.31901 0.57562,0.5129z" fill="#c2d9da"/><path d="M286.68552,215.40528c0.1465,0.06669 0.26015,0.15421 0.34088,0.26267c0.03234,0.14912 -0.06449,0.23053 -0.10722,0.32752c-0.04273,0.09698 -0.04891,0.21068 -0.16495,0.27434c-0.17752,-0.02703 -0.34702,-0.149 -0.55133,-0.26885c0.07754,-0.09915 0.15508,-0.19826 0.21524,-0.29629c0.09491,-0.10013 0.18981,-0.20033 0.26736,-0.29945z" fill="#c5ddde"/><path d="M278.30223,219.3489c-0.18316,-0.08338 -0.25026,-0.2304 -0.36576,-0.33672c0.06633,-0.21174 0.20963,-0.35261 0.36841,-0.51332c0.15213,0.12299 0.30426,0.24603 0.45453,0.35028c-0.09921,0.23259 -0.29839,0.33909 -0.45718,0.49975z" fill="#c3dbdc"/><path d="M284.66827,214.11074c0.04464,-0.07827 0.07562,-0.11789 0.10662,-0.15753c0.07939,-0.08032 0.1762,-0.16174 0.27111,-0.26189c0.25639,0.11674 0.50718,0.17709 0.71893,0.37205c-0.02165,0.13353 -0.10292,0.19509 -0.2171,0.27753c-0.26816,-0.05934 -0.57294,-0.13537 -0.87961,-0.2301z" fill="#c7dfe0"/><path d="M278.87277,215.95282c-0.15773,-0.17932 -0.34272,-0.28146 -0.4502,-0.48269c0.08745,-0.17525 0.27669,-0.20558 0.36787,-0.34328c0.24276,0.15533 0.40052,0.33461 0.59301,0.51185c-0.1377,0.19719 -0.32884,0.20871 -0.51065,0.31417z" fill="#c7dee0"/><path d="M275.91852,216.13139c-0.04599,-0.11051 -0.00692,-0.24508 -0.10695,-0.37122c-0.22218,0.05119 -0.45985,0.12218 -0.68763,0.11708c0.0099,-0.07616 0.01793,-0.17105 0.04516,-0.24824c0.04091,-0.11577 0.12032,-0.1961 0.24198,-0.20348c0.20664,-0.03138 0.39593,-0.06172 0.60263,-0.09306c0.02434,0.24405 0.01818,0.35773 -0.09518,0.79894z" fill="#61acb1"/><path d="M286.19354,220.81726c-0.1869,-0.12094 -0.3371,-0.22513 -0.52588,-0.36483c0.21468,-0.12628 0.41197,-0.2515 0.62854,-0.35903c0.14838,0.08543 0.27938,0.17199 0.39677,0.29708c-0.1377,0.19718 -0.3021,0.30152 -0.49941,0.42676z" fill="#c2dada"/><path d="M279.11075,213.95555c0.1869,0.12094 0.30612,0.26479 0.46199,0.42538c-0.23581,0.08982 -0.43687,0.17749 -0.63795,0.26517c-0.16391,-0.06562 -0.22913,-0.1939 -0.33098,-0.33883c0.10478,-0.1763 0.29038,-0.2442 0.50689,-0.35169z" fill="#c1d9d9"/><path d="M286.49406,218.57064c0.15696,-0.17945 0.28474,-0.30047 0.41069,-0.44029c0.1794,0.04582 0.31602,0.18865 0.45263,0.3315c-0.07006,0.17417 -0.15935,0.33065 -0.32191,0.4538c-0.21415,-0.04372 -0.31976,-0.22622 -0.54142,-0.345z" fill="#c6dedf"/><path d="M278.66662,220.72437c-0.1695,-0.12194 -0.3235,-0.26374 -0.47563,-0.38674c0.00054,-0.16999 0.05881,-0.28683 0.16925,-0.40684c0.23342,0.06147 0.37559,0.26062 0.57989,0.38046c-0.05265,0.17317 -0.16496,0.27434 -0.2735,0.41312z" fill="#c0d7d7"/><path d="M284.89504,213.2284c-0.19864,-0.06353 -0.40906,-0.06973 -0.5997,-0.22815c0.11044,-0.12 0.20351,-0.23893 0.29652,-0.35785c0.20852,-0.01257 0.39165,0.07077 0.54564,0.21255c-0.03717,0.15331 -0.1147,0.25241 -0.24245,0.37346z" fill="#c3dadb"/><path d="M277.03605,215.59163c-0.00748,-0.07509 -0.03237,-0.14914 -0.03987,-0.22425c-0.18317,-0.08337 -0.3668,0.00324 -0.55983,-0.00393c-0.03048,-0.13035 0.06632,-0.21176 0.07058,-0.3442c0.21843,-0.08873 0.43258,-0.04505 0.64539,-0.1901c0.03606,0.18667 -0.00481,0.30242 -0.04384,0.43703c-0.02537,0.09598 0.02243,0.22529 -0.07246,0.32541z" fill="#5aa0a4"/><path d="M280.91114,223.42164c-0.19862,-0.06353 -0.40909,-0.06973 -0.58045,-0.21044c0.02165,-0.13353 0.0837,-0.21282 0.1767,-0.33175c0.19492,0.026 0.39356,0.08953 0.5612,0.1927c-0.02166,0.13353 -0.06631,0.21175 -0.15748,0.34944z" fill="#bdd3d4"/><path d="M277.62934,217.85984c0.11738,0.12512 0.23286,0.23146 0.34835,0.33776c-0.07006,0.1742 -0.18048,0.2942 -0.30825,0.41523c-0.14462,-0.04792 -0.19255,-0.17724 -0.20562,-0.30862c-0.01688,-0.16894 -0.0337,-0.33787 0.16549,-0.44437z" fill="#bdd4d5"/><path d="M285.26633,222.21415c-0.21787,-0.08127 -0.41843,-0.16358 -0.63629,-0.24482c0.34621,-0.20977 0.66705,-0.32356 0.9999,0.03403c-0.07567,0.11785 -0.21282,0.14504 -0.3636,0.2108z" fill="#bbd2d3"/><path d="M277.85495,216.08989c0.05455,-0.15436 0.15135,-0.23577 0.24814,-0.31714c0.12163,-0.00735 0.16577,0.08444 0.24275,0.15533c0.05774,0.05316 0.13285,0.10526 0.16146,0.21687c-0.05455,0.15436 -0.22829,0.16489 -0.30022,0.32031c-0.16765,-0.10317 -0.26764,-0.22931 -0.35213,-0.37527z" fill="#c3dadb"/><path d="M283.05826,217.7773c0.31655,0.01869 0.63309,0.03729 0.95713,0.13104c-0.00617,0.11366 -0.09118,0.13775 -0.17807,0.14294c-0.22405,0.03241 -0.44991,0.04608 -0.65847,0.05868c-0.15639,0.00945 -0.20242,-0.10109 -0.12058,-0.33264z" fill="#b1c6c7"/><path d="M278.73855,221.79647c0.14274,0.02912 0.20613,0.13863 0.3005,0.20846c0.18691,0.12092 0.22112,0.28881 0.15667,0.51936c-0.25452,-0.09794 -0.43338,-0.31377 -0.59112,-0.49308c0.00428,-0.13246 0.03342,-0.19089 0.13394,-0.23473z" fill="#bbd2d3"/><path d="M283.48283,220.28229c0.32271,-0.09505 0.6312,0.01851 0.95527,0.11223c-0.23208,0.12736 -0.49274,0.14306 -0.73416,0.17655c-0.15454,0.02823 -0.19494,-0.02599 -0.2211,-0.2888z" fill="#bad1d2"/><path d="M282.00645,223.18546c-0.12594,0.13979 -0.21712,0.2775 -0.34301,0.4173c-0.08877,-0.01353 -0.21603,-0.0625 -0.34142,-0.09268c0.0532,-0.34316 0.07058,-0.34421 0.29839,-0.33909c0.12164,-0.00733 0.24518,0.00409 0.38606,0.01446z" fill="#b5cbcc"/><path d="M287.74798,217.64512c-0.03344,0.19086 -0.10907,0.30879 -0.18474,0.42664c-0.16203,-0.04687 -0.24649,-0.19287 -0.36388,-0.31795c0.07376,-0.13667 0.14946,-0.2545 0.22324,-0.39117c0.15826,0.00932 0.20988,0.17615 0.3254,0.28252z" fill="#c0d7d8"/><path d="M280.51939,222.12323c-0.02355,0.11471 -0.10292,0.19509 -0.19971,0.2765c-0.23154,-0.04268 -0.43579,-0.16251 -0.60903,-0.32203c-0.03048,-0.13035 0.01792,-0.17105 0.10104,-0.21381c0.23527,0.08017 0.47056,0.16041 0.70769,0.25941z" fill="#bdd4d4"/><path d="M286.51142,221.02474c0.14518,-0.12208 0.30958,-0.22645 0.45477,-0.34853c0.09437,0.06985 0.1385,0.16162 0.14975,0.27423c-0.02355,0.11471 -0.10665,0.15753 -0.18792,0.21908c-0.06579,0.04175 -0.13153,0.08349 -0.19731,0.12524c-0.10991,-0.05001 -0.1869,-0.12091 -0.21925,-0.27006z" fill="#b6cccc"/><path d="M286.49032,217.3056c0.12594,-0.13978 0.23634,-0.25978 0.36042,-0.41838c0.10613,0.01246 0.21605,0.06248 0.28502,0.22829c-0.07375,0.13668 -0.16494,0.27436 -0.25423,0.43082c-0.1465,-0.06669 -0.27379,-0.11564 -0.39116,-0.24077z" fill="#c1d9d9"/><path d="M286.04756,221.80807c-0.1465,-0.06669 -0.25829,-0.13547 -0.35825,-0.26163c0.12594,-0.13979 0.296,-0.18783 0.42939,-0.25256c0.14274,0.02912 0.18875,0.13967 0.25024,0.23038c-0.01177,0.05736 -0.00803,0.09492 -0.02537,0.09598c-0.09866,0.06258 -0.1973,0.12522 -0.296,0.18783z" fill="#b7cdce"/><path d="M284.65222,222.89341c0.17621,-0.16171 0.3326,-0.17118 0.48526,-0.21819c0.16817,-0.06684 0.24892,0.04162 0.34891,0.16776c-0.12594,0.13979 -0.2786,0.18679 -0.41014,0.27029c-0.17752,-0.02705 -0.24839,-0.21162 -0.42404,-0.21989z" fill="#b6cccc"/><path d="M279.96624,223.06313c-0.14838,-0.08545 -0.26013,-0.15422 -0.38927,-0.22198c-0.03421,-0.16791 -0.04544,-0.28054 0.02834,-0.41718c0.16764,0.10318 0.33341,0.1876 0.48178,0.27303c0.069,0.16578 -0.02782,0.24716 -0.03393,0.36085c-0.03476,0.00209 -0.06766,0.02298 -0.08691,0.00527z" fill="#c2dada"/><path d="M287.33787,216.68784c-0.12724,-0.04898 -0.185,-0.10213 -0.22915,-0.19389c-0.0286,-0.11161 0.03343,-0.19086 0.07618,-0.28788c0.04465,-0.07826 0.04892,-0.21069 0.1687,-0.23682c0.1136,0.08757 0.21172,0.19493 0.26334,0.36181c-0.09117,0.13771 -0.18609,0.23787 -0.27913,0.35681z" fill="#bbd2d3"/><path d="M278.27313,214.49714c0.09999,0.12615 0.17887,0.21582 0.25961,0.32424c-0.10854,0.13878 -0.2401,0.22223 -0.36978,0.32453c-0.11174,-0.06877 -0.19066,-0.15845 -0.20369,-0.28986c0.01362,-0.03861 0.02728,-0.07718 0.06016,-0.09808c0.06201,-0.07927 0.14147,-0.15964 0.25373,-0.26084z" fill="#bbd2d3"/><path d="M282.07437,223.6912c0.16871,-0.23682 0.16871,-0.23684 0.45477,-0.34851c0.14839,0.08547 0.18072,0.2346 0.24968,0.40039c-0.23771,0.07103 -0.47295,-0.00918 -0.70448,-0.05186z" fill="#adc2c3"/><path d="M277.64347,216.42374c0.11174,0.06877 0.19251,0.17725 0.22296,0.30758c-0.10854,0.13878 -0.20153,0.2577 -0.31199,0.37764c-0.20561,-0.30863 -0.2075,-0.32738 0.08898,-0.68526z" fill="#b5cbcc"/><path d="M286.9988,220.12655c-0.13103,-0.0865 -0.22538,-0.15637 -0.32536,-0.28254c0.07191,-0.15539 0.22272,-0.22118 0.35053,-0.34223c0.05588,0.0344 0.09435,0.06983 0.13287,0.10526c0.03851,0.03544 0.0615,0.0907 0.10188,0.14494c-0.03529,0.1721 -0.13018,0.27223 -0.25987,0.37454z" fill="#bbd1d2"/><path d="M278.97761,213.32147c0.10293,-0.19508 0.30959,-0.22644 0.43924,-0.32873c0.12912,0.06775 0.15963,0.19811 0.24037,0.30657c-0.17804,0.14297 -0.3481,0.19099 -0.54487,0.14622c-0.05214,0.00313 -0.09438,-0.06984 -0.13475,-0.12405z" fill="#b6cccd"/><path d="M285.99573,213.74724c-0.23903,-0.11775 -0.46252,-0.25536 -0.68415,-0.37414c0.00429,-0.13247 0.0489,-0.21068 0.16307,-0.29313c0.20988,0.17615 0.41975,0.35233 0.58311,0.58797c-0.03103,0.03967 -0.04653,0.05947 -0.06201,0.07929z" fill="#acc1c2"/><path d="M284.07126,219.17024c-0.22031,0.06998 -0.4425,0.12117 -0.67213,0.09724c-0.08878,-0.01355 -0.16389,-0.06563 -0.17325,-0.15948c-0.00373,-0.0375 0.02355,-0.11472 0.04092,-0.11578c0.25879,-0.03452 0.53257,0.08112 0.80446,0.178z" fill="#a7bbbb"/><path d="M287.54531,219.47026c-0.10803,-0.03125 -0.16951,-0.12194 -0.23286,-0.23143c0.09117,-0.13771 0.18235,-0.2754 0.27351,-0.41312c0.1465,0.06669 0.1751,0.17828 0.18821,0.30967c-0.04091,0.11577 -0.13393,0.23473 -0.22887,0.33488z" fill="#b7cdcd"/><path d="M277.6499,219.29389c0.18317,0.08337 0.28311,0.20954 0.385,0.35444c-0.03717,0.15331 -0.09545,0.27016 -0.24437,0.35469c-0.12672,-0.21896 -0.13179,-0.44529 -0.14065,-0.70915z" fill="#b7cece"/><path d="M280.43685,212.17574c0.19543,-0.14401 0.42882,-0.08256 0.59324,-0.18695c0.11173,0.06877 0.10185,0.14493 0.05346,0.18564c-0.12966,0.10226 -0.2786,0.18682 -0.45236,0.19728c-0.05402,-0.01562 -0.07138,-0.0146 -0.19438,-0.19599z" fill="#b4cacb"/><path d="M285.94892,214.50546c0.0409,-0.11576 0.08742,-0.17525 0.17054,-0.21806c0.18691,0.12092 0.39115,0.24077 0.55638,0.49518c-0.29354,0.03661 -0.48417,-0.12184 -0.72694,-0.27713z" fill="#b2c8c9"/><path d="M277.87261,215.39007c-0.07376,0.13667 -0.13394,0.23473 -0.23446,0.27856c-0.07138,-0.01457 -0.09441,-0.06984 -0.11739,-0.12512c-0.09197,-0.22105 0.02035,-0.32228 0.18474,-0.42662c0.04414,0.09175 0.10563,0.18247 0.16711,0.27318z" fill="#b5cbcb"/><path d="M283.78197,221.52956c0.22404,-0.03242 0.41517,-0.04398 0.62932,-0.00025c0.02671,0.09281 -0.02165,0.1335 -0.07377,0.13666c-0.11979,0.02611 -0.23772,0.07102 -0.35747,0.09713c-0.13902,0.00838 -0.18125,-0.0646 -0.19806,-0.23353z" fill="#91a3a3"/><path d="M283.41837,214.37509c-0.19543,0.14401 -0.42323,0.13889 -0.63177,0.15147c-0.03476,0.00209 -0.07328,-0.03334 -0.09437,-0.06984c-0.00373,-0.03751 0.02537,-0.09596 0.04278,-0.09703c0.23771,-0.07103 0.46734,-0.04712 0.68337,0.01536z" fill="#99abac"/><path d="M282.7377,213.50978c-0.08262,-0.1272 -0.09195,-0.22106 -0.00881,-0.26387c0.11792,-0.04489 0.29541,-0.01783 0.52882,0.04359c-0.16069,0.14194 -0.35182,0.15346 -0.51999,0.22026z" fill="#93a5a6"/><path d="M278.03997,221.10219c0.20612,0.13865 0.42777,0.25743 0.32245,0.60374c-0.22349,-0.13762 -0.24783,-0.38162 -0.32245,-0.60374z" fill="#9aadad"/><path d="M281.1766,220.64821c0.13343,-0.06473 0.28419,-0.13048 0.40026,-0.19414c0.09251,0.05108 0.1155,0.10634 0.10934,0.22003c-0.14707,0.10334 -0.32833,0.03874 -0.48286,0.06697c-0.00373,-0.03751 -0.0056,-0.05632 -0.02674,-0.09284z" fill="#c5dddd"/><path d="M283.58657,216.76339c-0.20907,0.1826 -0.43502,0.19623 -0.6684,0.13482c-0.01739,0.00104 -0.03853,-0.03545 -0.04226,-0.073c-0.02298,-0.05527 0.02537,-0.09596 0.06014,-0.09805c0.18927,-0.03036 0.40346,0.0134 0.65051,0.03624z" fill="#aec2c3"/><path d="M278.8009,213.65319c-0.12594,0.13979 -0.29408,0.20662 -0.4449,0.27238c-0.09251,-0.05106 -0.08262,-0.12723 -0.01686,-0.16897c0.11418,-0.08245 0.21096,-0.16381 0.34437,-0.22851c0.03103,-0.03967 0.08874,0.01351 0.11737,0.12511z" fill="#9caeaf"/><path d="M287.81106,218.45333c0.0353,-0.17211 0.09356,-0.28891 0.18475,-0.42664c0.09385,0.23983 0.06231,0.44948 0.08475,0.67475c-0.05402,-0.01563 -0.08878,-0.01355 -0.10799,-0.03127c-0.05961,-0.07195 -0.10185,-0.14491 -0.16149,-0.21684z" fill="#a9bebf"/><path d="M280.91782,215.7726c0.04786,0.12932 0.03796,0.20541 -0.00671,0.28371c-0.17191,0.02925 -0.33392,-0.01762 -0.52644,-0.19483c0.20481,-0.05015 0.3612,-0.05958 0.53312,-0.08889z" fill="#b9cfd0"/><path d="M281.9399,221.64077c0.09249,0.05107 0.11735,0.12513 0.14223,0.19915c-0.02541,0.09596 -0.11227,0.10122 -0.53498,0.07008c0.08181,-0.23158 0.27859,-0.18681 0.39276,-0.26924z" fill="#869797"/><path d="M283.43951,215.63914c-0.28366,-0.03952 -0.51014,0.14414 -0.74485,-0.10608c0.2532,-0.09086 0.46358,-0.0847 0.74485,0.10608z" fill="#93a4a5"/><path d="M284.73085,222.45428c-0.26065,0.01575 -0.43446,0.02623 -0.60823,0.03675c-0.03476,0.00209 -0.07328,-0.03334 -0.07885,-0.08965c-0.00187,-0.0188 0.01178,-0.05737 0.02727,-0.0772c0.20478,-0.05017 0.396,-0.06172 0.65983,0.13008z" fill="#94a5a6"/><path d="M282.29038,222.52619c0.08072,0.10846 0.10374,0.16367 0.04359,0.26175c-0.13714,0.02717 -0.2917,0.0554 -0.4711,0.00958c0.10297,-0.19506 0.2767,-0.20555 0.42747,-0.27134z" fill="#abbfc0"/><path d="M285.74761,222.65722c-0.04413,-0.09175 -0.06523,-0.12825 -0.06898,-0.16582c0.2227,-0.2212 0.22268,-0.22117 0.47159,-0.17955c-0.08555,0.19402 -0.25931,0.20454 -0.40262,0.34535z" fill="#acc0c1"/><path d="M278.89848,221.29587c0.15027,0.10425 0.31602,0.18864 0.46814,0.31165c0.05774,0.05316 0.06521,0.12827 -0.03343,0.19086c-0.1869,-0.12094 -0.35639,-0.24286 -0.4347,-0.50252z" fill="#9fb2b2"/><path d="M287.25283,220.39448c0.06018,-0.09809 0.1067,-0.15752 0.1898,-0.20032c0.07328,0.03334 0.11364,0.08755 0.14038,0.18037c-0.00617,0.11368 -0.08557,0.194 -0.16497,0.27434c-0.10803,-0.03125 -0.13661,-0.14283 -0.1652,-0.25439z" fill="#aec2c3"/><path d="M280.81114,218.38527c0.07189,-0.15539 0.19359,-0.16278 0.31335,-0.1889c0.05214,-0.00312 0.09248,0.05105 0.0981,0.10738c0.00373,0.03751 -0.02539,0.096 -0.06015,0.09807c-0.09865,0.06261 -0.2067,0.03137 -0.3513,-0.01656z" fill="#91a2a3"/><path d="M287.89235,217.16423c-0.31603,-0.18866 -0.3353,-0.20633 -0.11632,-0.4651c0.04972,0.14808 0.14973,0.27423 0.11632,0.4651z" fill="#869696"/><path d="M282.65032,212.45747c0.12221,-0.17735 0.23205,-0.12734 0.3556,-0.11592c-0.07007,0.17419 -0.07007,0.17419 -0.3556,0.11592z" fill="#555f5f"/><path d="M281.39448,219.50196c-0.08689,0.00526 -0.20852,0.0126 -0.3358,-0.03637c0.13957,-0.1784 0.20907,-0.18258 0.33818,-0.11489c0.03664,0.01668 0.04227,0.07301 -0.00242,0.15123z" fill="#93a5a6"/><path d="M284.6704,223.25107c-0.18982,0.20033 -0.22645,0.18368 -0.30852,-0.11358c0.11793,-0.04489 0.21229,0.02491 0.30852,0.11358z" fill="#8b9b9c"/><path d="M283.21923,212.02655c-0.16817,0.06681 -0.30903,0.05643 -0.44998,0.04604c-0.06337,-0.10947 -0.03421,-0.16791 0.03532,-0.17208c0.13902,-0.0084 0.27992,0.00198 0.41465,0.126z" fill="#9aacad"/><path d="M286.63605,221.92368c-0.07567,0.11785 -0.11659,0.23366 -0.25748,0.22331c-0.01739,0.00103 -0.03664,-0.01666 -0.03852,-0.03544c0.01792,-0.17106 0.11846,-0.21491 0.29599,-0.18785z" fill="#5f6a6b"/><path d="M280.82474,217.1191c0.06389,-0.06052 0.13344,-0.06474 0.20482,-0.05013c0.03664,0.01668 0.07512,0.05211 0.06148,0.09071c-0.01362,0.03861 -0.04465,0.07826 -0.07942,0.08033c-0.06949,0.00417 -0.14088,-0.01038 -0.18687,-0.12092z" fill="#636e6f"/><path d="M287.81105,219.68092c0.06522,0.12827 0.05722,0.22316 -0.07431,0.30666c-0.08447,-0.14598 -0.03986,-0.22422 0.07431,-0.30666z" fill="#4a5354"/></g><path d="M226.78517,181.67669c0,0 2.44919,-0.72332 4.99902,0.90583c2.36334,1.50999 9.78301,8.53874 9.78301,8.53874" fill="none" stroke="#000000" stroke-width="3" stroke-linecap="round"/><path d="M221.08618,170.11309l20.66667,1l-0.66667,6.66667" fill="none" stroke="#000000" stroke-width="4.5" stroke-linecap="round"/><path d="M251.41952,178.44643l-0.66667,-6l22.33333,-2.33333" fill="none" stroke="#000000" stroke-width="4.5" stroke-linecap="round"/><path d="M204.25284,131.44643c0,-1.38071 1.11929,-2.5 2.5,-2.5c1.38071,0 2.5,1.11929 2.5,2.5c0,1.38071 -1.11929,2.5 -2.5,2.5c-1.38071,0 -2.5,-1.11929 -2.5,-2.5z" fill="#858585" stroke="none" stroke-width="0.5" stroke-linecap="butt"/><path d="M289.25285,170.44643c0,-1.38071 1.11929,-2.5 2.5,-2.5c1.38071,0 2.5,1.11929 2.5,2.5c0,1.38071 -1.11929,2.5 -2.5,2.5c-1.38071,0 -2.5,-1.11929 -2.5,-2.5z" fill="#858585" stroke="none" stroke-width="0.5" stroke-linecap="butt"/><path d="M238.58618,109.44643c0,-1.38071 1.11929,-2.5 2.5,-2.5c1.38071,0 2.5,1.11929 2.5,2.5c0,1.38071 -1.11929,2.5 -2.5,2.5c-1.38071,0 -2.5,-1.11929 -2.5,-2.5z" fill="#858585" stroke="none" stroke-width="0.5" stroke-linecap="butt"/></g></g></svg>