<svg version="1.1" xmlns="http://www.w3.org/2000/svg" xmlns:xlink="http://www.w3.org/1999/xlink" width="57.40865" height="54.09977" viewBox="0,0,57.40865,54.09977"><g transform="translate(-211.29568,-152.94998)"><g data-paper-data="{&quot;isPaintingLayer&quot;:true}" fill-rule="nonzero" stroke-width="4" stroke-linecap="butt" stroke-linejoin="miter" stroke-miterlimit="10" stroke-dasharray="" stroke-dashoffset="0" style="mix-blend-mode: normal"><path d="M238.14383,154.94998c0.07812,0 1.4851,2.81067 1.57003,5.74255c0.09224,3.18419 -1.1384,6.51135 -1.07737,6.53629c0.00073,0.0003 16.19552,-2.49326 16.19559,-2.4932c0.08211,0.06248 9.92301,7.61206 9.75344,13.31493c-0.15301,5.14568 -9.36687,15.0423 -9.36687,15.13163c0,0.02992 -15.179,-4.31618 -15.18015,-4.31594c-0.10638,0.02248 2.04773,3.33974 2.2098,6.57284c0.16411,3.27373 -1.66237,6.46599 -1.54013,6.84706c0.01158,0.03608 -8.71387,-3.42666 -15.69719,-8.71884c-6.72369,-5.09543 -11.71487,-12.02612 -11.7153,-12.07591c-0.00042,-0.04973 4.0684,-9.38533 10.37765,-16.11478c6.10581,-6.51245 14.45851,-10.42663 14.4705,-10.42663z" data-paper-data="{&quot;index&quot;:null}" fill="#000000" stroke="#000000"/><path d="M240.26047,157.71359c0.07812,0 1.4851,2.81067 1.57003,5.74255c0.09224,3.18419 -1.1384,6.51135 -1.07737,6.53629c0.00073,0.0003 16.19552,-2.49326 16.19559,-2.4932c0.08211,0.06248 9.92301,7.61206 9.75344,13.31493c-0.15301,5.14568 -9.36687,15.0423 -9.36687,15.13163c0,0.02992 -15.179,-4.31618 -15.18015,-4.31594c-0.10638,0.02248 2.04773,3.33974 2.2098,6.57284c0.16411,3.27373 -1.66237,6.46599 -1.54013,6.84706c0.01158,0.03608 -8.71387,-3.42666 -15.69719,-8.71884c-6.72369,-5.09543 -11.71487,-12.02612 -11.7153,-12.07591c-0.00042,-0.04973 4.0684,-9.38533 10.37765,-16.11478c6.10581,-6.51245 14.45851,-10.42663 14.4705,-10.42663z" data-paper-data="{&quot;index&quot;:null}" fill="#ff6b6b" stroke="#520000"/></g></g></svg>