<svg version="1.1" xmlns="http://www.w3.org/2000/svg" xmlns:xlink="http://www.w3.org/1999/xlink" width="31.43578" height="32.31943" viewBox="0,0,31.43578,32.31943"><defs><linearGradient x1="244.52913" y1="179.56943" x2="252.20625" y2="179.56943" gradientUnits="userSpaceOnUse" id="color-1"><stop offset="0" stop-color="#bbc031"/><stop offset="1" stop-color="#fffc42"/></linearGradient><linearGradient x1="239.52402" y1="188.46428" x2="240.81557" y2="188.46428" gradientUnits="userSpaceOnUse" id="color-2"><stop offset="0" stop-color="#bbc031"/><stop offset="1" stop-color="#fffc42"/></linearGradient><linearGradient x1="227.79375" y1="180.43063" x2="235.47087" y2="180.43063" gradientUnits="userSpaceOnUse" id="color-3"><stop offset="0" stop-color="#bbc031"/><stop offset="1" stop-color="#fffc42"/></linearGradient><linearGradient x1="239.18445" y1="171.8523" x2="240.476" y2="171.8523" gradientUnits="userSpaceOnUse" id="color-4"><stop offset="0" stop-color="#bbc031"/><stop offset="1" stop-color="#fffc42"/></linearGradient><linearGradient x1="243.66517" y1="185.57446" x2="249.86307" y2="185.57446" gradientUnits="userSpaceOnUse" id="color-5"><stop offset="0" stop-color="#bbc031"/><stop offset="1" stop-color="#fffc42"/></linearGradient><linearGradient x1="232.34722" y1="186.75559" x2="237.38952" y2="186.75559" gradientUnits="userSpaceOnUse" id="color-6"><stop offset="0" stop-color="#bbc031"/><stop offset="1" stop-color="#fffc42"/></linearGradient><linearGradient x1="230.30062" y1="175.13188" x2="236.49852" y2="175.13188" gradientUnits="userSpaceOnUse" id="color-7"><stop offset="0" stop-color="#bbc031"/><stop offset="1" stop-color="#fffc42"/></linearGradient><linearGradient x1="242.77416" y1="173.95075" x2="247.81646" y2="173.95075" gradientUnits="userSpaceOnUse" id="color-8"><stop offset="0" stop-color="#bbc031"/><stop offset="1" stop-color="#fffc42"/></linearGradient></defs><g transform="translate(-223.91945,-162.74911)"><g data-paper-data="{&quot;isPaintingLayer&quot;:true}" fill-rule="nonzero" stroke-linecap="butt" stroke-linejoin="miter" stroke-miterlimit="10" stroke-dasharray="" stroke-dashoffset="0" style="mix-blend-mode: normal"><path d="M252.20625,179.56943c0,0.35663 -0.37583,0.64573 -0.83945,0.64573c-0.46362,0 -6.83767,-0.37308 -6.83767,-0.37308c0,0 6.37405,-0.91838 6.83767,-0.91838c0.46362,0 0.83945,0.2891 0.83945,0.64573z" fill="url(#color-1)" stroke="#000000" stroke-width="1"/><path d="M240.1475,191.98852c-0.3565,-0.00873 -0.63546,-0.36056 -0.62308,-0.78582c0.01238,-0.42526 0.55553,-6.26282 0.55553,-6.26282c0,0 0.74785,5.8692 0.73547,6.29446c-0.01238,0.42526 -0.31142,0.76292 -0.66792,0.75418z" fill="url(#color-2)" stroke="#000000" stroke-width="1"/><path d="M227.79375,180.43063c0,-0.35663 0.37583,-0.64573 0.83945,-0.64573c0.46362,0 6.83767,0.37308 6.83767,0.37308c0,0 -6.37405,0.91838 -6.83767,0.91838c-0.46362,0 -0.83945,-0.2891 -0.83945,-0.64573z" data-paper-data="{&quot;index&quot;:null}" fill="url(#color-3)" stroke="#000000" stroke-width="1"/><path d="M239.85251,168.01156c0.3565,0.00952 0.63547,0.39294 0.62309,0.8564c-0.01238,0.46345 -0.55553,6.82526 -0.55553,6.82526c0,0 -0.74785,-6.3963 -0.73547,-6.85975c0.01238,-0.46345 0.31142,-0.83144 0.66792,-0.82191z" data-paper-data="{&quot;index&quot;:null}" fill="url(#color-4)" stroke="#000000" stroke-width="1"/><path d="M249.74221,187.82683c-0.22803,0.2742 -0.70185,0.25617 -1.05831,-0.04026c-0.35646,-0.29644 -5.01873,-4.65889 -5.01873,-4.65889c0,0 5.48804,3.36948 5.84449,3.66592c0.35646,0.29644 0.46058,0.75903 0.23255,1.03323z" fill="url(#color-5)" stroke="#000000" stroke-width="1"/><path d="M232.52977,189.66507c-0.26801,-0.23527 -0.23734,-0.70844 0.06851,-1.05686c0.30586,-0.34842 4.79124,-4.89254 4.79124,-4.89254c0,0 -3.51482,5.39611 -3.82067,5.74453c-0.30586,0.34842 -0.77106,0.44015 -1.03907,0.20488z" fill="url(#color-6)" stroke="#000000" stroke-width="1"/><path d="M230.42148,172.87951c0.22803,-0.2742 0.70185,-0.25617 1.05831,0.04026c0.35646,0.29644 5.01873,4.65889 5.01873,4.65889c0,0 -5.48804,-3.36948 -5.84449,-3.66592c-0.35646,-0.29644 -0.46058,-0.75903 -0.23255,-1.03323z" data-paper-data="{&quot;index&quot;:null}" fill="url(#color-7)" stroke="#000000" stroke-width="1"/><path d="M247.63391,171.04127c0.26801,0.23527 0.23734,0.70844 -0.06851,1.05686c-0.30586,0.34842 -4.79124,4.89254 -4.79124,4.89254c0,0 3.51482,-5.39611 3.82067,-5.74453c0.30586,-0.34842 0.77106,-0.44015 1.03907,-0.20488z" data-paper-data="{&quot;index&quot;:null}" fill="url(#color-8)" stroke="#000000" stroke-width="1"/><path d="M228.79971,173.2056l-0.01558,-0.02336l0.01558,-0.07009v-0.06966l0.13932,-0.55728l0.12461,-0.56075l0.03115,-0.06231l0.01742,-0.06966l0.02438,-0.01393l0.14927,-0.29855l0.13284,-0.15498l0.00692,-0.12453l0.37626,-0.32251l0.32251,-0.37626l0.12453,-0.00692l0.15498,-0.13284l0.29855,-0.14927l0.01393,-0.02438l0.06966,-0.01742l0.06231,-0.03115l0.39842,-0.08854l0.01375,-0.01768l0.12316,-0.01274l0.02542,-0.00565l0.55728,-0.13932h0.06966l0.07009,-0.01558l0.02336,0.01558h0.0591l0.17457,0.04364l0.17899,-0.01852l0.60189,0.08598h0.29593l0.15682,-1.25453l0.07039,-0.18184l0.0065,-0.19488l0.22222,-0.77778l0.03521,-0.06104l0.00792,-0.03166l0.12461,-0.56075l0.03115,-0.06231l0.01742,-0.06966l0.02438,-0.01393l0.4361,-0.8722l0.11147,-0.27868l-0.03736,-0.13698l0.16527,-0.27545l0.07791,-0.31164l0.16598,-0.09485l0.25375,-0.42292l0.04718,-0.04718l0.08491,-0.12736l0.18425,-0.1675l0.02,-0.03333l0.00179,-0.03219l0.03608,-0.03092l0.07025,-0.11708l0.22222,-0.22222l0.34461,-0.20676l0.30513,-0.26154l0.07632,-0.03816l0.01393,-0.02438l0.06966,-0.01742l0.06231,-0.03115l0.14887,-0.03308l0.08403,-0.05042l0.06414,0.01749l0.26372,-0.0586l0.55728,-0.13932h0.0591l0.02336,-0.01558l0.02864,0.00637l0.02864,-0.00637l0.02336,0.01558h0.0591l0.55728,0.13932l0.56075,0.12461l0.06231,0.03115l0.06966,0.01742l0.01393,0.02438l0.07632,0.03816l0.07637,0.06546h0.0847l0.38964,0.40658l0.42757,0.36649l0.0047,0.08457l0.0696,0.07262l0.44444,0.77778l0.12358,0.43938l0.17674,0.42082l0.22222,1.44444l-0.01783,0.19255l0.0469,0.1876v0.62213l0.09181,0.73445l-0.01901,0.15683l0.03831,0.15326v0.91667l0.1912,-0.1434l0.65215,-0.65215l0.17917,-0.1075l0.1355,-0.15906l0.77778,-0.55556l0.11979,-0.04719l0.09296,-0.08908l0.77778,-0.44444l0.13987,-0.03934l0.11568,-0.08792l0.71025,-0.30439l0.01061,-0.00531l0.01393,-0.02438l0.06966,-0.01742l0.06231,-0.03115l0.56075,-0.12461l0.22568,-0.05642l0.05971,-0.05343l0.11777,0.00906l0.15412,-0.03853h0.06966l0.07009,-0.01558l0.02336,0.01558h0.0591l0.38988,0.09747l0.40069,0.03082l0.33333,0.11111l0.08572,0.05455l0.00884,-0.00241l0.08403,0.05042l0.14887,0.03308l0.22222,0.11111l0.30513,0.26154l0.34461,0.20676l0.22222,0.22222l0.07025,0.11708l0.02072,0.01776l0.09344,0.07119l0.44444,0.55556l0.15342,0.33474l0.2156,0.29852l0.22222,0.55556l0.06397,0.46914l0.11484,0.45934v0.55556l-0.07464,0.29857v0.30776l-0.11111,0.44444l-0.00669,0.01254l0.01201,0.04404l-0.31946,0.53244l-0.2922,0.54787l-0.04394,0.01236l-0.00731,0.01218l-0.44444,0.44444l-0.12071,0.07243l-0.08532,0.11198l-1.11111,0.88889l-0.24177,0.11081l-0.20193,0.17308l-0.52745,0.26373l-0.20383,0.13589l-0.24627,0.08795l-0.19369,0.13988l-0.15726,0.66834l0.19768,-0.12579l0.59697,-0.19899l0.3908,-0.15632l0.8722,-0.4361l0.01393,-0.02438l0.06966,-0.01742l0.06231,-0.03115l0.56075,-0.12461l0.37699,-0.09425l0.04896,-0.01995l0.07193,-0.01028l0.0594,-0.01485h0.04455l0.0703,-0.01004l0.0249,-0.00553l0.00244,0.00163l0.34277,-0.04897l0.02093,-0.01872l0.07159,0.00551l0.06896,-0.00985l0.57138,0.05911l0.57274,0.04406l0.06609,0.02203l0.07142,0.00739l0.01724,0.02217l0.17859,0.05953l0.15181,0.09661l0.17566,0.03903l0.22222,0.11111l0.37447,0.32097l0.18746,0.03749l0.17246,0.27101l0.24389,0.20905l0.0106,0.19087l0.18046,0.28358l0.01123,0.00642l0.00462,0.0185l0.06847,0.1076l0.11111,0.33333l0.03082,0.40069l0.02511,0.10043l0.2774,0.83221l0.00577,0.07495l0.03657,0.06568l0.77778,2.88889l0.00594,0.32987l0.08002,0.32007v0.02557l0.03647,0.14587v0.30776l0.07464,0.29857v0.66667l-0.07464,0.29857v0.30776l-0.22222,0.88889l-0.08933,0.1675l-0.02833,0.1877l-0.55556,1.33333l-0.14556,0.1956l-0.082,0.22961l-0.22222,0.33333l-0.25427,0.23115l-0.19888,0.28024l-0.77778,0.66667l-0.39012,0.19506l-0.35905,0.24762l-0.88889,0.33333l-0.51229,0.05855l-0.15786,0.11151l-0.30317,-0.05882l-0.30683,0.03507l-0.1487,-0.12345l-0.50618,-0.09821l-0.59466,-0.27751l-0.4679,0.02599l-0.38612,0.34548l-0.82597,-0.06354l-0.03245,0.09087l-0.22222,0.33333l-0.03062,0.02784l-0.01517,0.03851l-0.55556,0.77778l-0.15906,0.1355l-0.1075,0.17917l-0.33333,0.33333l-0.1543,0.09258l-0.11347,0.13965l-0.44444,0.33333l-0.06547,0.02757l-0.04778,0.05256l-0.12736,0.08491l-0.60273,0.60273l-0.21352,0.12811l-0.1675,0.18425l-0.2756,0.18373l-0.38893,0.2917l-0.37038,0.15595l-0.33905,0.21576l-0.66667,0.22222l-1.28468,0.09882l-0.07357,-0.06582l-0.09524,0.02597l-1.10485,-0.66291l-0.66667,-0.66667l-0.23526,-0.39209l-0.28151,-0.36033l-0.44444,-1l-0.01777,-0.10153l-0.24634,0.21114l-0.29855,0.14927l-0.01393,0.02438l-0.06966,0.01742l-0.06231,0.03115l-0.56075,0.12461l-0.55728,0.13932h-0.06966l-0.07009,0.01558l-0.02336,-0.01558h-0.50355l-0.09758,-0.0244l-0.07576,0.03788l-0.53033,-0.1894l-0.54632,-0.13658l-0.04202,-0.07354l-0.09473,-0.03383l-0.19761,-0.13174h-0.02808l-0.04968,-0.05184l-0.05796,-0.03864l-0.3864,-0.42505l-0.39745,-0.41473l-0.03456,-0.06048l-0.0483,-0.05313l0.00193,-0.02801l-0.36351,-0.63615l-0.01923,-0.06838l-0.04623,-0.05393l-0.22222,-0.44444l-0.05973,-0.26876l-0.12956,-0.24293l-0.07155,-0.2862l-0.02078,-0.01889l-0.00189,-0.07178l-0.0169,-0.06758v-0.57443l-0.01511,-0.57423l0.01511,-0.068v-0.0718l0.02027,-0.01943l0.18684,-0.84077l0.05869,-0.11739l0.01007,-0.13086l0.33333,-1l0.09661,-0.15181l0.0139,-0.06255l0.0006,-0.00786l0.00343,-0.01028l0.0211,-0.09496l0.03165,-0.06331l0.08425,-0.25274l-0.00368,-0.01151l0.0195,-0.03596l0.06597,-0.1979l0.28009,-0.44014l0.11404,-0.21025l-0.58671,0.03667l-0.06084,0.01217l-0.01376,0.02408l-0.06966,0.01742l-0.06231,0.03115l-0.44768,0.09949l-0.51965,0.20786l-0.46914,0.06397l-0.45934,0.11484h-2.17021l-0.02336,0.01558l-0.07009,-0.01558h-0.06966l-0.55728,-0.13932l-0.44765,-0.09948l-0.00786,-0.0006l-0.01028,-0.00343l-0.09496,-0.0211l-0.06231,-0.03115l-0.06966,-0.01742l-0.00422,-0.00738l-0.09191,-0.03064l-0.4161,-0.26479l-0.19087,-0.0106l-0.20905,-0.24389l-0.27101,-0.17246l-0.03749,-0.18746l-0.32097,-0.37447l-0.0415,-0.08301l-0.13589,-0.20383l-0.10404,-0.2913l-0.00309,-0.00144l-0.00994,-0.02919l-0.17452,-0.27425l-0.11111,-0.33333l-0.01941,-0.25239l-0.01125,-0.0315l0.00763,-0.01525l-0.09662,-0.28381l-0.11111,-1.33333l0.0354,-0.21685l-0.03377,-0.21711l0.11111,-1.22222l0.09573,-0.27443l0.02229,-0.2898l0.11111,-0.33333l0.09661,-0.15181l0.03903,-0.17566l0.11111,-0.22222l0.40007,-0.46675l0.04492,-0.07059l0.01881,-0.00376l0.17643,-0.20583l0.04904,-0.12377l0.08766,-0.03571l0.0616,-0.07186l0.13292,-0.00738l0.91107,-0.37118l0.77778,-0.11111l0.3154,0.03263l0.31423,-0.04246l1,0.11111l0.16079,0.05972l-0.00627,-0.01253l-0.18634,-0.83853l-0.09317,-0.13975l0.03106,-0.13975l-0.03106,-0.13975l0.09317,-0.13975l0.03352,-0.15083zM239.90818,182.7647h0.0582l0.04205,0.01051l-0.14073,-0.15898zM242.20095,188.32402l-0.0262,-0.0524l-0.02301,-0.10356l-0.00069,-0.00096l-0.08722,0.34889z" fill="#e4d6ff" stroke="none" stroke-width="0.5"/></g></g></svg>