<svg version="1.1" xmlns="http://www.w3.org/2000/svg" xmlns:xlink="http://www.w3.org/1999/xlink" width="59.8705" height="95.6884" viewBox="0,0,59.8705,95.6884"><g transform="translate(-211.40445,-147.47852)"><g stroke-miterlimit="10"><path d="M234.36662,205.98784l1.04544,-7.62125" fill="none" fill-rule="nonzero" stroke="#ffffff" stroke-width="6" stroke-linecap="round"/><path d="M216.81978,207.45311c1.32333,-1.03797 18.74854,-10.43905 18.74854,-10.43905l17.85596,11.31445" fill="none" fill-rule="nonzero" stroke="#ffffff" stroke-width="6" stroke-linecap="round"/><g stroke-linecap="butt"><path d="M269.02495,181.08295c-4.13875,12.67317 -19.05078,19.68947 -33.30698,15.67137c-14.25618,-4.01811 -22.45798,-17.54905 -18.31921,-30.22223c4.13875,-12.67317 19.05078,-19.68947 33.30698,-15.67137c14.25618,4.01811 22.45798,17.54905 18.31921,30.22223z" fill="none" fill-rule="nonzero" stroke="#ffffff" stroke-width="4.5"/><g><g fill-rule="nonzero"><path d="M232.7625,154.68037l-0.00911,-0.0109" fill="#ffab19" stroke="#ffffff" stroke-width="5"/><g fill="none" stroke="none" stroke-width="1" font-family="sans-serif" font-weight="normal" font-size="12" text-anchor="start"/></g><path d="M232.7625,154.68037l-0.00911,-0.0109" fill="#ffab19" fill-rule="nonzero" stroke="#ffffff" stroke-width="5"/><path d="M242.54034,174.87655" fill="#001026" fill-rule="evenodd" stroke="#ffffff" stroke-width="5"/><g fill="none" fill-rule="nonzero" stroke="none" stroke-width="1" font-family="sans-serif" font-weight="normal" font-size="12" text-anchor="start"/><g fill="none" fill-rule="nonzero" stroke="none" stroke-width="1" font-family="sans-serif" font-weight="normal" font-size="12" text-anchor="start"/></g></g><path d="M255.15445,240.16692h-7.75l-12.625,-30.35714" fill="none" fill-rule="nonzero" stroke="#ffffff" stroke-width="6" stroke-linecap="round"/><path d="M234.02945,209.32763l-14,26.40708l-5.625,0.8072" fill="none" fill-rule="nonzero" stroke="#ffffff" stroke-width="6" stroke-linecap="round"/></g></g></svg>