<svg version="1.1" xmlns="http://www.w3.org/2000/svg" xmlns:xlink="http://www.w3.org/1999/xlink" width="114.76635" height="70.43237" viewBox="0,0,114.76635,70.43237"><defs><linearGradient x1="197.22499" y1="205.09771" x2="176.96097" y2="214.72891" gradientUnits="userSpaceOnUse" id="color-1"><stop offset="0" stop-color="#000000"/><stop offset="1" stop-color="#000000" stop-opacity="0"/></linearGradient></defs><g transform="translate(-172.82483,-164.69288)"><g data-paper-data="{&quot;isPaintingLayer&quot;:true}" stroke-miterlimit="10" stroke-dasharray="" stroke-dashoffset="0" style="mix-blend-mode: normal"><g stroke-linejoin="miter"><path d="M239.57533,180.58353c5.77408,12.14865 0.16285,26.88875 -12.53306,32.92292c-12.69588,6.03417 -27.66877,1.07741 -33.44285,-11.07124c-5.77408,-12.14865 -0.16285,-26.88875 12.53306,-32.92292c12.69588,-6.03417 27.66877,-1.07741 33.44285,11.07124z" fill="none" fill-rule="nonzero" stroke="#000000" stroke-width="4.5" stroke-linecap="butt"/><g stroke-linecap="butt"><g fill-rule="nonzero"><path d="M196.20688,183.77339l0.01383,0.00241" data-paper-data="{&quot;index&quot;:null}" fill="#ffab19" stroke="#000000" stroke-width="5"/><g data-paper-data="{&quot;index&quot;:null}" fill="none" stroke="none" stroke-width="1" font-family="sans-serif" font-weight="normal" font-size="12" text-anchor="start"/></g><path d="M196.20688,183.77339l0.01383,0.00241" data-paper-data="{&quot;index&quot;:null}" fill="#ffab19" fill-rule="nonzero" stroke="#000000" stroke-width="5"/><path d="M216.84939,192.73892" fill="#001026" fill-rule="evenodd" stroke="#000000" stroke-width="5"/><g data-paper-data="{&quot;index&quot;:null}" fill="none" fill-rule="nonzero" stroke="none" stroke-width="1" font-family="sans-serif" font-weight="normal" font-size="12" text-anchor="start"/><g data-paper-data="{&quot;index&quot;:null}" fill="none" fill-rule="nonzero" stroke="none" stroke-width="1" font-family="sans-serif" font-weight="normal" font-size="12" text-anchor="start"/></g><path d="M222.18579,216.78192l-26.6968,12.42986c0,0 -2.31723,0.72564 -2.39105,-0.23742c-0.16928,-2.20833 1.39583,-12.7454 1.39583,-12.7454l-12.2597,1.42784c0,0 -2.31116,0.09775 -3.07151,-0.75797c-0.70731,-0.79603 5.56437,-14.14147 5.56437,-14.14147c0,0 -9.01608,0.28858 -11.88901,-0.53932c-1.12814,-0.32509 6.92693,-12.62406 13.15543,-19.71265c3.04777,-3.46866 7.09217,-8.433 11.0151,-11.10608c6.50448,-4.43215 12.9056,-4.93705 12.9056,-4.93705" fill="none" fill-rule="nonzero" stroke="#000000" stroke-width="3" stroke-linecap="round"/><path d="M193.80032,230.01438c0,0 -1.08147,-1.04037 -0.80075,-3.31386c0.35162,-2.84762 3.77947,-8.07615 1.27206,-9.49901c-3.2481,-1.8432 -14.44047,3.98286 -14.68941,-0.15825c-0.2044,-3.40033 5.82283,-12.31474 4.93363,-14.18559c-0.88722,-1.86673 -4.47308,1.22968 -8.01994,-0.13053c-5.0444,-1.9345 -3.42271,-2.71144 -3.42271,-2.71144c0,0 7.37812,-11.78021 11.47218,-16.43519c3.84115,-4.36741 12.38184,-10.68703 12.38184,-10.68703c0,0 -7.58754,18.82694 -6.05774,27.01139c1.69582,9.07259 25.53762,18.3298 25.53762,18.3298z" data-paper-data="{&quot;index&quot;:null}" fill="url(#color-1)" fill-rule="nonzero" stroke="none" stroke-width="0" stroke-linecap="butt"/></g><path d="M235.22897,209.30894l13.54053,-2.39351" fill="none" fill-rule="nonzero" stroke="#000000" stroke-width="6" stroke-linecap="round" stroke-linejoin="miter"/><path d="M248.07966,218.60756c0,0 -7.85309,0.46487 -8.51283,-0.44126c-1.19457,-1.64071 -4.3534,-9.84418 -4.3534,-9.84418c0,0 10.84531,-8.96721 13.34525,-10.31521c0.41916,-0.22602 10.8545,-6.54732 10.8545,-6.54732" fill="none" fill-rule="nonzero" stroke="#000000" stroke-width="6" stroke-linecap="round" stroke-linejoin="miter"/><g><g><g stroke="#001026" stroke-width="1.2"><path d="M250.03419,197.77967l25.78874,4.34149c0,0 2.34018,-6.67646 9.1205,-4.56093c0.38654,0.12061 2.26978,0.76388 2.02608,3.729c-0.23343,2.83998 -2.56659,7.96661 -3.43076,9.83649c-0.40137,0.86847 -1.41362,2.07666 -2.72152,2.65961c-1.31685,0.58691 -2.83358,0.04864 -3.70213,-0.20063c-0.35376,-0.10153 -28.74739,-6.0658 -28.74739,-6.0658" fill="#bf0000" fill-rule="evenodd" stroke-linecap="round" stroke-linejoin="round"/><path d="M253.95393,209.2994c-6.94873,-2.16807 -5.59855,-7.3426 -4.76865,-10.00244c0.36087,-1.1566 -1.55399,-1.53445 4.2129,-0.99867c1.2701,0.118 6.34523,1.08818 10.82933,1.33983c3.07054,0.17232 5.9674,-0.32386 6.76443,-0.34334c1.88318,-0.046 3.39512,0.62746 3.39512,0.62746l-1.42574,0.65267c0,0 0.98295,-0.41764 1.53317,-0.54008c1.71406,-0.38144 3.01009,-0.67755 3.01009,-0.67755c0,0 -2.40249,6.72161 -0.98387,10.01348c1.41862,3.29186 5.9041,3.14583 5.9041,3.14583c0,0 -2.23199,4.85066 -5.14751,4.45604c-0.71875,-0.09728 -2.547,-1.47202 -2.547,-1.47202c0,0 -0.0499,0.6134 -0.53309,0.49542c-0.24631,-0.06014 -3.63701,-1.87177 -7.65225,-3.20797c-5.28575,-1.75901 -11.58986,-3.17626 -12.59106,-3.48864z" fill="#000000" fill-rule="nonzero" stroke-linecap="butt" stroke-linejoin="miter"/></g><path d="M246.49533,216.58337c-0.20807,-0.04932 0.72998,-1.0379 1.55358,-3.65068c1.08654,-3.44692 2.19613,-8.88447 2.41296,-10.44071c0.56226,-4.03562 -0.70846,-5.10951 -0.15688,-4.9788c2.04115,0.48372 5.14478,3.74583 4.07932,8.24168c-0.46821,1.97571 -0.93526,6.1572 -2.29102,8.21274c-1.72933,2.62193 -4.45382,2.8869 -5.59797,2.61576z" fill="#004fd9" fill-rule="nonzero" stroke="#001026" stroke-width="1.2" stroke-linecap="butt" stroke-linejoin="miter"/><g fill-rule="nonzero" stroke-linecap="butt" stroke-linejoin="miter"><g fill="none" stroke="none" stroke-width="1" font-family="sans-serif" font-weight="normal" font-size="12" text-anchor="start"/><path d="M245.05115,216.67636c0,0 3.65388,-7.97155 4.73251,-11.80659c1.07862,-3.83502 0.6606,-7.3686 0.6606,-7.3686c0,0 1.98057,0.5343 3.41083,2.79169c1.10711,1.74735 1.91871,4.72883 1.01126,8.02244c-0.82671,3.00056 -2.41076,6.15871 -4.17353,7.44185c-2.67185,1.94484 -5.64168,0.91921 -5.64168,0.91921z" fill="#000000" stroke="#001026" stroke-width="1.2"/></g><g stroke="#001026" stroke-width="1.2"><path d="M252.68474,208.89968c0,0 28.13316,11.57246 28.05919,12.19353c-0.21232,1.7823 -5.34962,10.41199 -5.34962,10.41199l-27.50382,-14.36516" data-paper-data="{&quot;index&quot;:null}" fill="#ffab19" fill-rule="evenodd" stroke-linecap="round" stroke-linejoin="round"/><path d="M252.62767,207.32788c0,0 5.9285,2.51916 9.12301,3.67641c3.06401,1.10996 9.66893,3.13116 9.66893,3.13116c0,0 5.08562,0.46841 6.01994,1.70112c0.43276,0.57095 -2.93526,-0.04083 -2.93526,-0.04083c0,0 3.7959,0.69328 4.13155,0.75062c2.34188,0.40017 4.99716,2.39326 4.42558,5.46075c-0.62758,3.36791 -1.83231,8.90438 -4.43069,11.19247c-1.10557,0.97355 -3.81764,1.94463 -6.08982,0.82393c-2.56244,-1.26385 -4.64034,-4.70684 -4.64034,-4.70684l2.39401,3.30243c0,0 -1.54832,-0.41592 -2.56613,-1.13309c-1.14301,-0.8054 -3.95996,-3.46545 -3.95996,-3.46545l-17.12674,-10.52182" data-paper-data="{&quot;index&quot;:null}" fill="#000000" fill-rule="evenodd" stroke-linecap="round" stroke-linejoin="round"/><path d="M279.57506,218.3275c1.60843,0.54932 3.31258,1.76253 3.88061,3.49961c0.57012,1.74352 -2.33428,10.40994 -3.9305,11.42133c-1.51586,0.96049 -3.78605,0.87868 -5.35584,0.34255c-3.2228,-1.10068 -4.6253,-5.4098 -3.13254,-9.62471c1.49275,-4.21488 5.31547,-6.73945 8.53828,-5.63875z" fill="#ff0000" fill-rule="nonzero" stroke-linecap="butt" stroke-linejoin="miter"/></g></g><g fill="#000000" fill-rule="nonzero" stroke="#001026" stroke-width="1.2" stroke-linecap="butt" stroke-linejoin="miter"><path d="M256.47837,218.58543c0,0 -0.36109,2.92833 -0.85918,3.71312c-0.15334,0.24158 -1.2534,0.6888 -2.42695,0.74267c-1.46471,0.06725 -3.12859,-0.34478 -4.18807,-0.99163c-2.72584,-1.66425 -4.74651,-6.80647 -3.59715,-8.6174c0.49811,-0.78485 3.54547,-2.33886 3.55198,-2.33882"/></g></g><g data-paper-data="{&quot;index&quot;:null}" fill-rule="nonzero" stroke="none" stroke-width="1" stroke-linecap="butt" stroke-linejoin="miter"><path d="M252.15978,179.08438c-0.20761,0.04304 -0.31452,-0.05968 -0.41852,-0.20251c-0.14602,-0.23848 -0.24122,-0.50173 -0.37023,-0.74852c-0.07191,-0.02303 -0.14381,-0.04608 -0.20867,-0.05316c-1.3739,-0.22099 -2.39901,-0.96012 -3.30353,-1.89345c-0.18991,-0.19775 -0.3968,-0.38729 -0.50887,-0.64228c-0.02099,-0.04783 -0.066,-0.10331 -0.11396,-0.11866c-0.26367,-0.08445 -0.35475,-0.29164 -0.46981,-0.50652c-0.10105,-0.18298 -0.16817,-0.38249 -0.25223,-0.57375c-0.04904,-0.11155 -0.06418,-0.23965 0.00254,-0.36892c0.06674,-0.12924 0.06156,-0.28154 0.06338,-0.41785c-0.07379,-0.77677 -0.00785,-1.56354 0.18086,-2.35206c0.11428,-0.44265 0.30746,-0.84634 0.51759,-1.25828c0.62048,-1.21167 1.53374,-2.17893 2.65385,-2.95669c0.50772,-0.34401 1.06742,-0.61662 1.65514,-0.82547c0.44502,-0.15868 0.90521,-0.1893 1.35543,-0.19573c1.43253,-0.02042 2.68289,0.43485 3.77693,1.23719c0.2098,0.14937 0.38276,0.35537 0.5557,0.56139c0.12096,0.13458 0.25187,0.24498 0.46351,0.25803c0.18765,0.00536 0.31856,0.11574 0.42255,0.25859c0.14602,0.23848 0.25813,0.49349 0.37022,0.74851c0.03504,0.07971 0.02915,0.15999 0.02323,0.24027c-0.05454,0.29745 -0.00033,0.56132 0.09484,0.82457c0.22129,0.55015 0.25892,1.15102 0.31352,1.74362c0.01622,0.22431 0.01553,0.45685 -0.0261,0.68999c-0.12088,0.75547 -0.27274,1.48738 -0.61928,2.19797c0.1051,0.23906 0.20025,0.50233 0.31238,0.75733c0.04204,0.09565 0.09109,0.2072 0.01734,0.3205c-0.05677,0.10502 0.00222,0.19243 0.04427,0.28803c0.26333,0.64575 0.54359,1.28326 0.8069,1.92903c0.60662,1.42674 1.22032,2.86935 1.79305,4.3126c0.5587,1.41137 1.16834,2.79791 1.76095,4.19276c0.09811,0.22313 0.15525,0.44683 0.25337,0.66995c0.47647,1.08375 0.95292,2.16754 1.41244,3.25954c0.08408,0.19124 0.20206,0.36598 0.17736,0.59084c-0.00589,0.0803 0.04609,0.15169 0.08111,0.2314c0.35039,0.79688 0.69075,1.61797 1.0411,2.41486c0.01401,0.03188 0.03501,0.07969 0.04904,0.11155c0.12908,0.24674 0.0664,0.43207 -0.122,0.65929c-0.63599,0.75482 -1.42499,1.25521 -2.36705,1.5012c-0.24152,0.05956 -0.49702,0.08727 -0.7496,0.07485c-0.18768,-0.00536 -0.31159,-0.0998 -0.39861,-0.25089c-0.26106,-0.45336 -0.53913,-0.89843 -0.80722,-1.36774c-0.18808,-0.33413 -0.34924,-0.70069 -0.5882,-1.01001c-0.52288,-0.67412 -0.84928,-1.46335 -1.32131,-2.16224c-0.25703,-0.39725 -0.54099,-0.7621 -0.78108,-1.16763c-0.25407,-0.43741 -0.53507,-0.84238 -0.79912,-1.25554c-0.47607,-0.75501 -0.92523,-1.54247 -1.41828,-2.2892c-0.67297,-0.96868 -1.27816,-1.97045 -1.88329,-2.97217c-0.21205,-0.34181 -0.42409,-0.68352 -0.63613,-1.02534c-0.32012,-0.54071 -0.64717,-1.09734 -0.96724,-1.63806c-0.17407,-0.30223 -0.37504,-0.57202 -0.54911,-0.87423c-0.19804,-0.30994 -0.33115,-0.6127 -0.51925,-0.94685zM252.48568,178.65475c0.24557,-0.00349 0.47712,-0.03885 0.70462,-0.13028c0.50404,-0.07135 0.976,-0.2625 1.44793,-0.45368c0.5977,-0.23306 1.1843,-0.53811 1.75395,-0.83493c0.65445,-0.33811 1.18796,-0.8108 1.73147,-1.3077c0.05383,-0.06493 0.10765,-0.12983 0.18837,-0.2272c-0.05603,-0.1275 -0.11214,-0.25497 -0.16818,-0.38248c-0.01401,-0.03188 -0.04499,-0.05551 -0.08296,-0.09504c-0.11872,0.05781 -0.23045,0.13158 -0.33516,0.22128c-0.18251,0.14696 -0.36207,0.25372 -0.54457,0.40063c-0.46677,0.34343 -1.01359,0.55177 -1.50137,0.84737c-0.26435,0.14813 -0.51472,0.32805 -0.79308,0.4443c-0.61466,0.24132 -1.19425,0.5623 -1.8369,0.73985c-0.16667,0.04247 -0.35026,0.09322 -0.51695,0.13568c-0.1099,-0.0626 -0.23155,0.0354 -0.33039,0.04481c-0.12278,0.00174 -0.24559,0.00351 -0.42511,0.11032c0.2098,0.14937 0.25003,0.38135 0.40194,0.53955c0.09182,-0.02535 0.20168,0.0372 0.30641,-0.05249zM253.40232,178.86622c-0.45317,0.04653 -0.56191,0.08019 -0.76841,0.21944c0.10105,0.18298 0.1951,0.35004 0.29613,0.53305c0.04904,0.11155 0.15189,0.15824 0.27472,0.15648c0.0819,-0.00117 0.16665,-0.04246 0.24852,-0.04363c0.30347,-0.01231 0.61282,-0.10498 0.87718,-0.25307c0.15376,0.02182 0.28943,-0.04419 0.42515,-0.1103c0.77023,-0.35578 1.53053,-0.68741 2.26573,-1.12285c0.32522,-0.19709 0.64344,-0.41011 0.93762,-0.63081c0.22643,-0.18768 0.46974,-0.38359 0.58918,-0.67398c-0.09111,-0.2072 -0.18221,-0.41435 -0.27329,-0.62157c-0.12167,0.09793 -0.22642,0.18766 -0.31414,0.26905c-0.41886,0.35878 -0.8517,0.68571 -1.31259,0.94889c-0.58956,0.34517 -1.21417,0.61069 -1.83176,0.89214c-0.28835,0.14044 -0.60175,0.177 -0.88308,0.33335c-0.20168,-0.0372 -0.3783,0.02945 -0.53095,0.10379zM263.3041,195.58049c0.27949,-0.02002 0.52395,-0.11971 0.75437,-0.2513c0.02394,0.00768 0.06491,0.00708 0.08189,-0.00118c0.40006,-0.21419 0.78609,-0.46023 1.09616,-0.78542c0.18549,-0.1871 0.37792,-0.35822 0.47044,-0.61612c-0.3924,-0.89252 -0.78479,-1.78499 -1.19816,-2.72536c-0.32998,0.37353 -0.70203,0.65156 -1.08102,0.9135c-0.32817,0.23724 -0.68838,0.35461 -1.03055,0.55998c-0.13567,0.06609 -0.26141,0.10799 -0.3971,0.17409c-0.23854,0.01943 -0.48006,0.07901 -0.74147,0.18696c0.21022,0.47814 0.54211,0.8583 0.77222,1.28804c0.25407,0.43741 0.52514,0.86658 0.77221,1.28803c0.20168,0.03721 0.3514,0.00303 0.5011,-0.03122zM261.4717,192.58357c0.15377,0.02182 0.29647,-0.02828 0.43212,-0.09438c0.16372,-0.0023 0.30939,-0.09261 0.46901,-0.151c0.48192,-0.21538 0.92879,-0.51041 1.34467,-0.82906c0.24333,-0.1959 0.47266,-0.42373 0.64003,-0.69874c-0.02801,-0.06377 -0.03909,-0.13576 -0.06715,-0.1995c-0.34332,-0.781 -0.67964,-1.54594 -1.00605,-2.33516c-0.34739,-0.83701 -0.6878,-1.65809 -1.03519,-2.49511c-0.51559,-1.21953 -1.00714,-2.43137 -1.52274,-3.6509c-0.56166,-1.37122 -1.16722,-2.70172 -1.69494,-4.08946c-0.08112,-0.23138 -0.20324,-0.46216 -0.30831,-0.70125c-0.15852,0.1546 -0.28607,0.33283 -0.45864,0.45557c-0.53055,0.43257 -1.12013,0.77774 -1.72369,1.09108c-0.54273,0.26433 -1.09248,0.51273 -1.64226,0.76112c-0.23452,0.07552 -0.44502,0.1587 -0.67954,0.2342c-0.17771,-0.02956 -0.31636,0.07668 -0.46606,0.1109c-0.16667,0.04247 -0.33037,0.0448 -0.49297,0.14335c0.03615,0.17589 0.12614,0.2869 0.19213,0.39018c0.59999,0.84947 1.07128,1.78095 1.62037,2.65518c0.35109,0.56434 0.70213,1.12868 1.07019,1.6847c0.47607,0.75501 0.96209,1.48578 1.43117,2.22483c0.38906,0.60385 0.7781,1.20776 1.15018,1.81991c0.41005,0.65171 0.79614,1.29572 1.18927,1.95569c0.36507,0.5962 0.73719,1.20833 1.12623,1.81221c0.15962,-0.0584 0.30346,-0.01234 0.43213,-0.09436zM257.74726,168.46811c-0.31006,0.32514 -0.63824,0.5624 -0.95936,0.81555c-0.33811,0.26143 -0.6522,0.53054 -0.99733,0.776c-0.32817,0.23723 -0.6873,0.45083 -1.02246,0.6721c-0.35215,0.22955 -0.70424,0.45911 -1.0803,0.68098c-0.34215,0.20532 -0.70831,0.40298 -1.05048,0.60834c-0.36611,0.19765 -0.76028,0.3316 -1.09838,0.59302c-0.39818,0.07785 -0.74332,0.32332 -1.10651,0.48089c-0.38713,0.14983 -0.77725,0.33987 -1.16439,0.48972c-0.37018,0.14158 -0.76436,0.27549 -1.14154,0.40116c-0.39418,0.1339 -0.7994,0.1958 -1.1725,0.37755c0.13424,0.39903 0.18327,0.51058 0.44509,0.73138c0.23854,-0.01943 0.47714,-0.03886 0.73557,-0.10671c0.30936,-0.09262 0.61869,-0.18521 0.95204,-0.27015c0.62571,-0.16928 1.22746,-0.3463 1.82109,-0.63539c0.40707,-0.19826 0.80712,-0.41246 1.24222,-0.54694c0.09182,-0.02535 0.19357,-0.07493 0.2813,-0.15635c0.18249,-0.14695 0.41002,-0.23838 0.61352,-0.33752c0.74628,-0.36346 1.45052,-0.82254 2.13078,-1.28934c0.91073,-0.59837 1.73846,-1.29176 2.54514,-2.03299c0.16553,-0.13868 0.33108,-0.27735 0.40367,-0.48686c-0.07117,-0.25559 -0.19325,-0.48642 -0.37723,-0.76442zM250.06138,169.90882c-0.04457,0.27328 -0.02134,0.51353 -0.01504,0.762c-0.00775,0.21661 0.05939,0.41613 0.21132,0.57434c0.26291,0.317 0.48199,0.67472 0.63317,1.0655c0.01401,0.03188 0.05197,0.07144 0.05898,0.08736c0.1058,0.0065 0.17365,-0.02656 0.23747,-0.11566c0.00996,-0.02417 0.0129,-0.06435 0.00588,-0.08029c-0.15233,-0.48699 -0.2707,-0.99046 -0.35518,-1.5105c-0.01104,-0.07201 -0.03615,-0.17589 -0.09811,-0.22313c-0.17995,-0.22197 -0.3599,-0.44391 -0.67852,-0.55966zM250.10175,172.811c-0.13832,-0.45509 -0.23567,-0.91077 -0.30905,-1.35879c-0.02215,-0.14399 -0.08814,-0.24732 -0.19509,-0.35003c-0.16889,-0.14993 -0.3577,-0.2515 -0.5535,-0.36901c-0.06196,-0.04723 -0.13088,-0.11038 -0.21865,-0.02894c0.03431,0.31226 0.04467,0.61683 0.11288,0.91254c0.58263,0.52895 0.5826,0.52894 0.9359,1.28567c0.0719,0.02305 0.14677,0.00591 0.2275,-0.09144zM254.96771,172.35675c0.05827,0.31993 0.13353,0.63162 0.20878,0.94328c0.01105,0.07202 0.02213,0.14401 0.06711,0.1995c0.23081,0.19718 0.44474,0.4026 0.73934,0.51069c0.11945,-0.29037 0.06521,-0.55421 0.06888,-0.82692c0.00184,-0.13632 -0.05718,-0.22369 -0.15711,-0.31048c-0.24778,-0.18891 -0.46169,-0.39438 -0.66555,-0.624c-0.00701,-0.01595 -0.0479,-0.01539 -0.09584,-0.03071c-0.04387,0.04071 -0.10475,0.08973 -0.16555,0.13869zM253.43237,168.20892c-0.10838,0.36239 -0.10503,0.65104 -0.11864,0.94791c0.00811,0.11217 0.06011,0.18356 0.1121,0.25499c0.26995,0.33292 0.48897,0.69071 0.64719,1.09738c0.021,0.04781 0.05897,0.08737 0.08002,0.13516c0.19358,-0.07494 0.22049,-0.10738 0.16443,-0.23488c-0.18221,-0.41441 -0.27254,-0.85415 -0.26411,-1.3033c0.00368,-0.27269 -0.09737,-0.45569 -0.27327,-0.62161c-0.11691,-0.07854 -0.20981,-0.1494 -0.34772,-0.27571zM252.1101,171.85221c0.08478,-0.04132 0.07369,-0.11335 0.04568,-0.1771c-0.19617,-0.44625 -0.24971,-0.94263 -0.30318,-1.43907c-0.05239,-0.40017 -0.28139,-0.73372 -0.68994,-0.96043c-0.05566,0.20126 -0.00255,0.36892 -0.02429,0.55365c-0.03647,0.38542 0.09667,0.68823 0.30464,0.97395c0.22199,0.31758 0.46095,0.62695 0.5812,0.99408c0.03799,0.03952 0.06196,0.04726 0.08594,0.05492zM252.25223,168.80305c-0.01769,0.24081 -0.04647,0.40963 -0.05823,0.57015c-0.0276,0.26502 0.0395,0.46453 0.20541,0.65462c0.2349,0.25325 0.40897,0.55548 0.56606,0.86595c0.06601,0.10332 0.12206,0.2308 0.1711,0.34235c0.09182,-0.02535 0.08776,-0.08141 0.07374,-0.11329c-0.11843,-0.50349 -0.21983,-1.01523 -0.24641,-1.54411c-0.01807,-0.08795 -0.02915,-0.15995 -0.08114,-0.23138c-0.1829,-0.18183 -0.34883,-0.37192 -0.63053,-0.5443zM255.96617,171.67698c0.20099,0.26978 0.27621,0.58143 0.36842,0.88485c0.03503,0.07968 0.01217,0.16822 0.08112,0.23138c0.10697,0.10274 0.42259,0.25861 0.67222,0.31119c0.04868,-0.21723 -0.0015,-0.42497 -0.01072,-0.63337c-0.01218,-0.16824 -0.08519,-0.28746 -0.22605,-0.37365c-0.23375,-0.15705 -0.43364,-0.33062 -0.59664,-0.56085c-0.00699,-0.01596 -0.05494,-0.03127 -0.07889,-0.03894c-0.07487,0.01711 -0.14271,0.05013 -0.20942,0.17941zM250.62811,175.55393c0.19988,0.17354 0.302,0.45278 0.54575,0.58562c0.11171,-0.07376 0.12758,-0.17823 0.16739,-0.27503c0.06266,-0.18535 0.1563,-0.34701 0.16404,-0.56364c-0.22787,-0.23734 -0.33412,-0.57258 -0.55205,-0.8341c-0.1058,-0.0065 -0.19062,0.03476 -0.26141,0.10798c0.01737,0.32051 -0.00621,0.64162 -0.0637,0.9792zM253.01251,173.48319c0.03615,0.17589 0.07229,0.35178 0.03653,0.50465c-0.08443,0.37005 0.0517,0.63275 0.30649,0.83759c0.09289,0.07085 0.13495,0.1665 0.27877,0.21258c0.09953,-0.24201 0.1412,-0.47515 0.18279,-0.70828c0.0129,-0.06435 -0.01514,-0.12807 -0.06712,-0.19949c-0.17297,-0.20602 -0.32193,-0.40437 -0.49487,-0.61038c-0.02099,-0.04783 -0.08298,-0.09505 -0.24264,-0.03663zM251.94397,174.00364c0.08631,0.38367 0.12467,0.75198 0.0163,1.11438c-0.02984,0.07259 0.01513,0.12808 0.04316,0.19182c0.08003,0.13518 0.17702,0.26213 0.34184,0.35597c0.13937,-0.33879 0.19389,-0.63628 0.24143,-0.94968c0.01585,-0.10447 -0.0022,-0.19241 -0.06122,-0.27977c-0.11095,-0.15882 -0.20505,-0.32586 -0.31605,-0.48465c-0.00699,-0.01596 -0.05496,-0.03129 -0.07892,-0.03895c-0.05088,0.02477 -0.10177,0.04956 -0.18653,0.09087zM255.06477,168.36205c-0.13791,-0.12632 -0.28281,-0.26863 -0.42073,-0.39498c-0.02394,-0.00768 -0.04795,-0.01537 -0.09585,-0.03071c-0.12353,0.2343 -0.1412,0.47515 -0.13199,0.68347c0.33596,0.43626 0.65787,0.8406 0.89611,1.38249c0.12534,-0.37066 -0.10552,-0.5678 -0.14571,-0.79978c-0.06122,-0.27977 -0.08154,-0.56013 -0.10185,-0.8405zM249.65571,169.64197c-0.25368,-0.10864 -0.47349,-0.2338 -0.75997,-0.22973c-0.01882,0.14459 -0.06857,0.2656 -0.07736,0.38603c-0.00882,0.12041 -0.03463,0.24906 0.01444,0.36062c0.11394,0.11863 0.27471,0.15646 0.40856,0.2267c0.13385,0.07023 0.24079,0.17299 0.4115,0.18659c0.00658,-0.31284 0.00329,-0.60145 0.0029,-0.93023zM249.03028,173.37157c-0.14236,-0.51116 -0.26669,-0.93439 -0.39095,-1.3576c-0.01401,-0.03188 -0.01805,-0.08798 -0.066,-0.10331c-0.19579,-0.11748 -0.3717,-0.28337 -0.64122,-0.28756c0.03024,0.25618 0.05351,0.49642 0.09373,0.7284c0.38165,0.25919 0.67552,0.59978 1.00448,1.02009zM254.7607,174.50873c0.10361,-0.18592 0.06745,-0.3618 0.07925,-0.52235c0.02174,-0.18475 -0.00739,-0.3447 -0.15231,-0.48695c-0.1899,-0.19775 -0.37982,-0.39553 -0.45803,-0.66707c-0.13277,0.02595 -0.19358,0.07494 -0.15154,0.17055c0.08816,0.24729 0.18328,0.51059 0.17261,0.76733c-0.00255,0.36892 0.23824,0.54193 0.51002,0.7385zM252.92746,174.97587c-0.10137,0.37832 -0.19683,0.67639 -0.27536,0.96615c0.04904,0.11155 0.12795,0.15056 0.18989,0.19775c0.07891,0.03896 0.15485,0.11804 0.28756,0.09212c0.13053,-0.21839 0.23005,-0.46034 0.30566,-0.70998c-0.14196,-0.18238 -0.2939,-0.3406 -0.50777,-0.54606zM255.93359,174.45995c-0.25772,-0.16472 -0.48453,-0.3058 -0.71828,-0.46286c-0.02763,0.26502 -0.06227,0.51413 -0.09692,0.76318c0.2098,0.14937 0.3787,0.29934 0.64527,0.34359c0.08959,-0.21776 0.12127,-0.42672 0.16993,-0.64392zM250.24562,168.73542c-0.16149,0.19474 -0.12128,0.42672 -0.15299,0.63565c-0.0129,0.06435 0.03908,0.13576 0.09404,0.16705c0.17184,0.10983 0.31969,0.21196 0.48449,0.30585c0.00701,0.01595 0.04095,-0.0006 0.07488,-0.01711c0.02066,-0.28096 0.01725,-0.56956 0.0379,-0.85053c-0.15484,-0.11807 -0.3466,-0.17949 -0.53835,-0.24091zM253.05783,167.96564c-0.14493,-0.14225 -0.28281,-0.2686 -0.51843,-0.28934c-0.07262,0.20955 -0.17917,0.43557 -0.17989,0.66815c0.09991,0.08679 0.16594,0.19009 0.27581,0.25266c0.09288,0.07086 0.13199,0.20663 0.30567,0.18007c0.0446,-0.27326 0.08917,-0.54653 0.11683,-0.8116zM256.37337,174.14902c0.1309,0.11039 0.31859,0.11573 0.51326,0.13702c0.05164,-0.25734 0.15814,-0.48338 0.12792,-0.73955c-0.19175,-0.06141 -0.35362,-0.19542 -0.59625,-0.23206c-0.02066,0.28096 -0.02432,0.55364 -0.04492,0.83458zM256.90561,170.90985c0.10916,0.29515 0.29322,0.57316 0.36842,0.88485c0.0712,0.25559 0.24597,0.32521 0.50554,0.35362c0.04164,-0.23311 -0.00149,-0.42497 -0.03472,-0.64099c-0.33259,-0.14759 -0.55057,-0.40912 -0.83927,-0.59745zM247.9824,173.61101c0.06085,-0.04897 0.0398,-0.09678 0.01882,-0.14459c-0.07412,-0.21543 -0.17223,-0.43858 -0.22939,-0.66229c-0.06531,-0.33585 -0.30499,-0.41262 -0.60256,-0.48056c0.01513,0.12811 0.01625,0.22427 0.03433,0.31222c0.03322,0.21603 0.09331,0.39959 0.32304,0.50059c0.13385,0.07023 0.23083,0.1972 0.32085,0.30815c0.01105,0.07202 0.0122,0.16821 0.13494,0.16647zM250.01612,176.31642c0.05677,-0.10502 0.07964,-0.19359 0.10949,-0.26618c0.11356,-0.21008 0.10138,-0.37835 -0.01663,-0.55307c-0.10396,-0.14286 -0.16409,-0.32645 -0.25113,-0.47755c-0.021,-0.04783 -0.02507,-0.10389 -0.15082,-0.06201c0.01326,0.26444 -0.00732,0.54542 -0.06889,0.82694c-0.0129,0.06435 0.02212,0.14399 0.05014,0.20775c0.08995,0.11097 0.17296,0.20605 0.32781,0.32409zM254.65338,174.96735c-0.1379,-0.12633 -0.26585,-0.27686 -0.44768,-0.36248c-0.09252,0.25794 -0.21602,0.49221 -0.24367,0.75723c0.17184,0.10981 0.29277,0.2444 0.52139,0.24917c0.07262,-0.20955 0.16926,-0.41138 0.16993,-0.64393zM251.79349,169.25867c0.0925,-0.25793 0.11019,-0.49874 0.09393,-0.723c-0.17183,-0.10982 -0.31969,-0.21193 -0.53541,-0.28104c-0.09365,0.16173 -0.12239,0.33053 -0.12716,0.507c0.19284,0.15762 0.36875,0.32351 0.56859,0.49709zM253.46622,176.43566c0.15083,0.06201 0.2367,0.1169 0.34956,0.13932c0.07191,0.02303 0.13679,0.03013 0.20171,0.0372c0.13456,-0.16228 0.23818,-0.3482 0.26987,-0.55714c-0.15484,-0.11807 -0.30973,-0.23611 -0.52841,-0.26508c-0.08959,0.21776 -0.19317,0.4037 -0.29272,0.64567zM248.88773,175.20184c-0.10247,0.28214 -0.1821,0.47568 -0.26469,0.70941c0.01104,0.07201 0.07704,0.1753 0.17,0.24615c0.07596,0.07909 0.0911,0.20719 0.2279,0.23732c0.13163,-0.12216 0.19834,-0.25142 0.23411,-0.40428c-0.12908,-0.24676 -0.23416,-0.48584 -0.36728,-0.78862zM248.99013,169.01791c0.11988,0.03838 0.2397,0.07679 0.3595,0.11519c0.11988,0.03838 0.23269,0.0608 0.3525,0.0992c0.04165,-0.2331 0.10433,-0.41846 0.06118,-0.61029c-0.0929,-0.07083 -0.20869,-0.05315 -0.3145,-0.0597c-0.1058,-0.0065 -0.23268,-0.0608 -0.34437,0.01292c-0.05272,0.16117 -0.11945,0.29038 -0.11427,0.44267zM255.59445,175.51523c-0.20575,-0.09327 -0.37465,-0.24327 -0.63427,-0.2716c-0.06264,0.18533 -0.10837,0.3624 -0.17105,0.54773c0.20575,0.09328 0.37058,0.18718 0.60915,0.16773c0.08369,-0.13752 0.1814,-0.24315 0.19614,-0.44384zM248.47484,171.35877c-0.02434,-0.33644 -0.05165,-0.63274 -0.07896,-0.929c-0.1099,-0.0626 -0.2028,-0.13347 -0.33554,-0.1075c-0.1095,0.2662 -0.0962,0.53059 -0.09986,0.80329c0.1099,0.0626 0.21975,0.12518 0.33959,0.16356c0.04498,0.05551 0.08591,0.0549 0.17475,0.06968zM252.21114,176.1568c-0.17886,-0.12574 -0.26293,-0.31702 -0.45469,-0.37842c-0.11648,0.25024 -0.22304,0.47628 -0.27464,0.73366c0.1678,0.05374 0.23782,0.21311 0.44949,0.22615c0.13455,-0.16227 0.17327,-0.35533 0.27983,-0.58136zM253.68783,167.29113c-0.07668,0.15345 -0.12937,0.31457 -0.14116,0.47514c0.18587,0.14168 0.35473,0.29164 0.5546,0.46519c0.02467,-0.22485 0.0704,-0.40193 0.13604,-0.6274c-0.18586,-0.14169 -0.34773,-0.27572 -0.54945,-0.31293zM250.25509,176.62575c0.15893,0.17417 0.28691,0.32468 0.51256,0.3696c0.10064,-0.14579 0.19136,-0.26731 0.20315,-0.42789c-0.15191,-0.15821 -0.28688,-0.32465 -0.46979,-0.50648c-0.10361,0.18592 -0.19022,0.36357 -0.24589,0.56481zM252.02574,168.10066c0.03463,-0.24906 0.17917,-0.43561 0.13601,-0.62745c-0.17183,-0.10982 -0.34956,-0.13936 -0.53726,-0.14468c-0.08663,0.17765 -0.1803,0.33935 -0.15412,0.53944c0.17476,0.06968 0.33261,0.14759 0.55531,0.23264zM256.75842,174.69679c-0.16779,-0.05374 -0.30162,-0.12399 -0.48231,-0.1134c-0.04164,0.23311 -0.17918,0.43557 -0.15593,0.67582c0.15083,0.06202 0.28062,0.0762 0.44029,0.01778c0.07963,-0.19358 0.1353,-0.39483 0.19793,-0.58018zM247.56855,171.45184c-0.15783,-0.07794 -0.27061,-0.10035 -0.4104,-0.0904c-0.06266,0.18535 -0.09438,0.39427 -0.01027,0.5855c0.14382,0.04607 0.28757,0.0921 0.43843,0.15413c0.05863,-0.24139 -0.00851,-0.44089 -0.01775,-0.64926zM258.5108,171.65666c-0.13677,-0.03013 -0.24965,-0.05258 -0.35839,-0.01896c-0.0317,0.2089 -0.02943,0.40136 0.01371,0.5932c0.12681,0.05434 0.23966,0.07676 0.37241,0.05082c0.04868,-0.21723 -0.01847,-0.41671 -0.02772,-0.62506zM254.43083,176.66244c0.18584,0.14168 0.32852,0.09155 0.47417,0.00127c0.11873,-0.0578 0.22344,-0.14752 0.21826,-0.29981c-0.15783,-0.07794 -0.30861,-0.13996 -0.4963,-0.14531c-0.07668,0.15345 -0.1364,0.29863 -0.19614,0.44382zM255.86886,167.98975c-0.11394,-0.11864 -0.16998,-0.24613 -0.32374,-0.268c-0.22008,0.43615 -0.00219,0.69768 0.31458,0.94973c0.00073,-0.23255 0.00846,-0.4492 0.00918,-0.68172zM252.69236,177.06414c0.12464,-0.13808 0.19134,-0.26734 0.23006,-0.46035c-0.15376,-0.02182 -0.24081,-0.17297 -0.4045,-0.17062c-0.09479,0.0655 -0.10066,0.14575 -0.14748,0.2266c-0.0398,0.09677 -0.1106,0.16996 -0.06156,0.28154c0.1099,0.0626 0.2198,0.12518 0.3835,0.12284zM252.47213,171.59848c0.22859,0.00476 0.31636,-0.07667 0.27025,-0.22836c-0.0741,-0.21544 -0.18216,-0.41438 -0.28322,-0.59736c-0.02799,-0.06374 -0.08005,-0.13516 -0.1958,-0.11748c0.04133,0.32817 0.11656,0.63982 0.20876,0.94322zM257.73916,174.25781c0.07595,0.07911 0.16482,0.09388 0.27362,0.06026c0.10656,-0.22606 0.25405,-0.45268 0.2577,-0.72537c-0.24558,0.0035 -0.38425,0.10972 -0.43288,0.32691c-0.0398,0.09679 -0.12057,0.1942 -0.09844,0.3382zM254.67479,170.33218c0.23743,-0.11563 0.27429,-0.17236 0.21126,-0.31574c-0.11506,-0.21486 -0.23711,-0.44568 -0.42002,-0.6275c-0.00956,0.35297 -0.00918,0.68174 0.20876,0.94326zM257.90968,170.71105c0.03908,0.13575 0.08819,0.24733 0.12022,0.36712c0.0811,0.23141 0.08114,0.23138 0.42148,0.16241c-0.01513,-0.12811 -0.0203,-0.28039 -0.03139,-0.35236c-0.19175,-0.06144 -0.34254,-0.12341 -0.51033,-0.17715zM250.72304,167.24514c-0.06675,0.12925 -0.20535,0.23549 -0.12829,0.41081c0.13679,0.03014 0.28356,0.03605 0.44432,0.07386c0.07669,-0.15345 0.17736,-0.29919 0.17216,-0.45149c-0.15378,-0.02183 -0.29758,-0.06794 -0.48821,-0.03316zM257.42857,172.47407c0.00633,0.24848 -0.00439,0.50525 0.00192,0.75373c0.06895,0.06313 0.14783,0.10214 0.23557,0.02071c0.08959,-0.21776 0.13125,-0.45094 0.09104,-0.68291c-0.1099,-0.0626 -0.20574,-0.09328 -0.32856,-0.09152zM254.32172,167.23399c0.11171,-0.07376 0.16853,-0.17882 0.1943,-0.30749c-0.06195,-0.04724 -0.1239,-0.09445 -0.18586,-0.14167c-0.08589,-0.05493 -0.15488,-0.11807 -0.27065,-0.10037c-0.10177,0.04956 -0.17255,0.1227 -0.20535,0.23547c0.14789,0.10213 0.31973,0.21193 0.46753,0.31408zM250.84036,168.54252c0.07669,-0.15345 0.09549,-0.29808 0.09033,-0.45034c-0.17771,-0.02956 -0.33849,-0.06733 -0.49223,-0.0892c-0.11466,0.11393 -0.14046,0.24258 -0.11539,0.34648c0.17476,0.06968 0.34955,0.13934 0.51734,0.19313zM255.21728,167.39765c-0.0929,-0.07083 -0.18583,-0.14167 -0.29573,-0.2043c-0.02394,-0.00768 -0.05791,0.00887 -0.09885,0.00944c-0.04685,0.08084 -0.13457,0.16227 -0.12939,0.31457c0.10698,0.10273 0.21095,0.24554 0.38573,0.31524c0.10062,-0.14577 0.1264,-0.27444 0.13821,-0.43499zM256.71891,168.3304c-0.06011,-0.18357 0.11243,-0.30633 0.04236,-0.46569c-0.12387,-0.09442 -0.20388,-0.22965 -0.39564,-0.29104c-0.08369,0.13752 -0.15042,0.26679 -0.03646,0.38541c0.11395,0.11865 0.16004,0.27032 0.38975,0.37132zM258.42863,173.10931c0.0188,-0.14459 0.05454,-0.29748 0.08035,-0.42612c0.00997,-0.02419 -0.02102,-0.04783 -0.03505,-0.07968c-0.09882,0.00943 -0.21865,-0.02899 -0.35026,0.09322c-0.02871,0.16879 -0.05051,0.35355 -0.08918,0.54656c0.14674,0.00594 0.25554,-0.0277 0.39418,-0.1339zM249.96719,167.96159c-0.14381,-0.04608 -0.29463,-0.10807 -0.41445,-0.14643c-0.13163,0.12216 -0.19839,0.2514 -0.24813,0.3724c0.06603,0.10332 0.19172,0.0614 0.28062,0.07619c0.08889,0.01475 0.18473,0.04546 0.29647,-0.02831c0.05383,-0.06493 0.10065,-0.14578 0.08553,-0.27389zM251.05338,177.22379c0.13385,0.07023 0.23675,0.11692 0.33961,0.16355c0.03096,0.02362 0.08889,0.01478 0.11286,0.02245c0.11873,-0.0578 0.17551,-0.16287 0.20128,-0.29154c-0.14086,-0.0862 -0.26478,-0.18065 -0.43249,-0.23444c-0.08072,0.09739 -0.13754,0.20244 -0.22121,0.33994zM258.36056,170.47209c-0.02322,-0.24026 -0.0465,-0.48046 -0.19546,-0.67882c-0.13161,0.12215 -0.26033,0.2042 -0.28907,0.37298c0.2039,0.22966 0.2039,0.22964 0.48451,0.30582zM253.07873,177.14687c0.42149,0.16241 0.4384,0.15413 0.67364,-0.15398c-0.15083,-0.06201 -0.31156,-0.09979 -0.46238,-0.16183c-0.11171,0.07376 -0.16847,0.1788 -0.21127,0.31573zM253.31033,167.08801c-0.14086,-0.0862 -0.26772,-0.14051 -0.43143,-0.1382c-0.02691,0.03247 -0.0638,0.08912 -0.10067,0.14577c-0.01989,0.04841 -0.03283,0.11275 -0.05271,0.1611c0.14087,0.08618 0.2718,0.19658 0.44251,0.2102c0.08072,-0.09737 0.12353,-0.2343 0.14228,-0.37891zM249.70643,176.97036c0.03684,-0.05666 0.08367,-0.13753 0.07964,-0.1936c-0.02619,-0.20012 -0.13018,-0.3429 -0.326,-0.46043c-0.07377,0.11331 -0.1954,0.21126 -0.20424,0.33169c0.1379,0.12633 0.23194,0.29339 0.4506,0.32234zM247.67388,170.23954c-0.02394,-0.00768 -0.04794,-0.01535 -0.09585,-0.0307c-0.16443,0.23491 -0.25698,0.49283 -0.34948,0.75072c0.09992,0.08676 0.18877,0.10154 0.33147,0.05141c0.03463,-0.24906 0.08621,-0.50638 0.11387,-0.77144zM253.42773,170.16556c0.00334,0.28863 -0.01725,0.56955 0.11881,0.83224c0.00699,0.01596 0.08885,0.01474 0.12276,-0.00176c0.08478,-0.04132 0.12461,-0.1381 0.08954,-0.21776c-0.0402,-0.23197 -0.16523,-0.42265 -0.33113,-0.61271zM252.50533,166.8028c-0.12683,-0.05435 -0.25369,-0.10866 -0.40044,-0.11459c-0.11872,0.05781 -0.18952,0.13099 -0.22528,0.28384c0.16078,0.0378 0.32855,0.09157 0.48229,0.11343c0.08772,-0.08141 0.13455,-0.16228 0.14341,-0.2827zM255.7689,176.14621c0.24444,-0.09972 0.455,-0.18286 0.60947,-0.39355c-0.11394,-0.11864 -0.26069,-0.1246 -0.41741,-0.10632c-0.09363,0.16171 -0.17734,0.29921 -0.19206,0.49991zM248.12603,175.99856c0.11061,-0.16999 0.12058,-0.19413 0.09956,-0.24198c-0.05309,-0.16764 -0.20097,-0.26979 -0.34183,-0.35596c-0.05492,-0.03128 -0.14676,-0.00589 -0.1556,0.1145c0.16482,0.09388 0.18807,0.33415 0.3979,0.48347zM248.40134,170.02071c0.05164,-0.25734 0.12718,-0.50702 0.02499,-0.7862c-0.18837,0.22719 -0.22305,0.47631 -0.27167,0.69348c0.05197,0.07144 0.11686,0.0785 0.24667,0.09268zM252.02978,177.29007c-0.06378,0.08912 -0.13457,0.1623 -0.19834,0.25141c0.14788,0.10216 0.2987,0.16415 0.46423,0.02546c0.04389,-0.04072 0.08772,-0.08143 0.07668,-0.15345c-0.07594,-0.07909 -0.18881,-0.10156 -0.34255,-0.12341zM255.7411,169.61936c0.15265,-0.07437 0.20647,-0.13924 0.13346,-0.25848c-0.06601,-0.10334 -0.13204,-0.20662 -0.21502,-0.30166c-0.03798,-0.03953 -0.09293,-0.07085 -0.15377,-0.02187c0.03321,0.21603 0.11029,0.39133 0.23531,0.582zM249.15592,172.43961c0.02322,0.24026 0.08044,0.46396 0.22239,0.64636c0.00702,0.01595 0.08887,0.01473 0.1058,0.0065c0.0339,-0.0165 0.04684,-0.08084 0.03281,-0.11273c-0.10804,-0.19893 -0.15822,-0.40673 -0.36104,-0.54017zM248.58009,173.37798c-0.12094,-0.1346 -0.19804,-0.30993 -0.37685,-0.4357c0.0063,0.24848 0.04946,0.44033 0.14237,0.51116c0.07594,0.07909 0.14381,0.04608 0.23448,-0.0755zM257.32998,175.15368c0.18251,-0.14696 0.41998,-0.26262 0.4546,-0.51169c-0.36133,0.0212 -0.39596,0.27026 -0.4546,0.51169zM255.81724,172.36876c0.03389,-0.01651 0.04392,-0.04076 0.07781,-0.05726c-0.08703,-0.15109 -0.08226,-0.32758 -0.23013,-0.42972c-0.10877,0.0336 -0.15265,0.07435 -0.16848,0.17881c0.09992,0.08676 0.20686,0.18949 0.32084,0.30816zM251.33796,171.45424c0.04722,0.2479 0.09038,0.43974 0.19142,0.62274c0.01401,0.03188 0.06193,0.04723 0.11282,0.02245c0.01698,-0.00827 0.04387,-0.04072 0.05383,-0.06494c-0.02322,-0.24026 -0.10732,-0.43148 -0.35806,-0.58026zM250.07882,177.02119c-0.08772,0.08143 -0.12461,0.13806 -0.06966,0.16939c0.09992,0.08676 0.21682,0.16529 0.33372,0.24383c0.0789,0.03897 0.12977,0.01421 0.15263,-0.07433c-0.12795,-0.15055 -0.24191,-0.2692 -0.41667,-0.33887zM251.45932,166.90591c0.04685,-0.08084 0.10065,-0.14578 0.14749,-0.22663c0.00997,-0.02419 -0.00407,-0.05608 -0.00811,-0.11217c-0.20351,0.0991 -0.41108,0.14218 -0.60358,0.31333c0.16078,0.0378 0.2736,0.06025 0.46422,0.02546zM251.33336,174.30098c0.08701,0.15111 0.16707,0.28632 0.2681,0.4693c0.09953,-0.242 0.08737,-0.4102 0.00033,-0.56129c-0.10582,-0.00651 -0.16372,0.00232 -0.26845,0.09201zM256.48378,171.30879c0.11691,0.07854 0.16002,0.27033 0.38865,0.2751c-0.1173,-0.40729 -0.15231,-0.48694 -0.25116,-0.47753c-0.08478,0.04132 -0.12168,0.09798 -0.13753,0.20244zM250.33433,171.98179c-0.09845,0.33818 -0.01433,0.5294 0.1586,0.73546c0.15336,-0.30692 -0.08044,-0.4639 -0.1586,-0.73546zM256.27973,168.40884c-0.08848,0.31398 -0.01139,0.48933 0.10662,0.66404c0.00701,0.01595 0.04793,0.01534 0.08185,-0.00116c0.05089,-0.02477 0.07078,-0.07318 0.05677,-0.10505c-0.05307,-0.16762 -0.14011,-0.31874 -0.24523,-0.5578zM257.19289,170.67317c0.11394,0.11864 0.20099,0.26978 0.41959,0.29871c-0.01919,-0.18416 -0.09923,-0.31933 -0.17222,-0.43857c-0.12278,0.00174 -0.1836,0.05072 -0.24739,0.13986zM256.11777,167.38476c-0.1818,-0.08562 -0.25887,-0.26093 -0.45651,-0.24209c0.04722,0.2479 0.04723,0.2479 0.33188,0.38017c0.02691,-0.03247 0.05384,-0.06492 0.12463,-0.13808zM257.21415,174.28125c0.21642,-0.16347 0.2721,-0.36472 0.30379,-0.57367c-0.0929,-0.07083 -0.16079,-0.03781 -0.19062,0.03476c-0.02871,0.1688 -0.07445,0.34589 -0.11313,0.53887zM253.47363,166.75688c0.09479,-0.0655 0.17256,-0.12273 0.18138,-0.24312c-0.10286,-0.04663 -0.20576,-0.09332 -0.31449,-0.05969c-0.0778,0.05722 -0.11466,0.11391 -0.12057,0.1942c0.06897,0.06313 0.14086,0.08619 0.25369,0.10863zM253.82114,173.49573c-0.00516,-0.15227 -0.01328,-0.26446 -0.08925,-0.34356c-0.03096,-0.02362 -0.0719,-0.02305 -0.11285,-0.02246c-0.05089,0.02477 -0.10474,0.0897 -0.06676,0.12923c0.04205,0.09565 0.0911,0.2072 0.26885,0.23675zM250.22191,167.27634c-0.17368,0.02653 -0.27432,0.17233 -0.39598,0.27029c0.29463,0.10807 0.32854,0.09151 0.39598,-0.27029zM247.62327,173.82461c-0.03726,-0.27211 -0.03726,-0.27211 -0.23196,-0.29339c0.00811,0.11217 0.02325,0.24026 0.23196,0.29339zM254.66647,172.56152c-0.08889,-0.01475 -0.13974,0.01002 -0.14269,0.05013c-0.02871,0.1688 0.00924,0.20836 0.22496,0.27745c0.00186,-0.13633 -0.0402,-0.23199 -0.08225,-0.32762zM257.04809,168.18945c-0.04974,0.121 -0.08254,0.23374 0.00038,0.32877c0.25033,-0.18 0.25329,-0.22008 -0.00038,-0.32877zM247.02191,173.44027c-0.05272,0.16117 -0.01365,0.29689 0.01846,0.41669c0.028,0.06374 0.09994,0.08678 0.17368,-0.02653c-0.0321,-0.11981 -0.07118,-0.25561 -0.19211,-0.39019zM255.12181,166.80553c0.03615,0.17589 0.12206,0.23083 0.27178,0.19661c0,0 0.02691,-0.03247 0.0199,-0.0484c-0.0251,-0.10389 -0.15484,-0.11809 -0.29168,-0.14824zM252.62869,173.9217c0.08772,-0.08143 0.09365,-0.16173 0.04867,-0.21718c-0.01401,-0.03188 -0.06196,-0.04723 -0.10288,-0.04665c-0.04094,0.00061 -0.07777,0.05722 -0.06375,0.08911c0.00405,0.05609 0.03207,0.11982 0.11799,0.17475zM252.61085,166.48051c0.1169,0.07853 0.20576,0.09331 0.31341,-0.03656c-0.14087,-0.08618 -0.22272,-0.08504 -0.31341,0.03656z" fill="#000000"/><path d="M254.89157,179.63082c0.54974,-0.24837 1.09954,-0.49679 1.64227,-0.76114c0.6106,-0.29739 1.19315,-0.65852 1.7237,-1.09108c0.16554,-0.13868 0.28316,-0.29267 0.45864,-0.45554c0.11213,0.25503 0.22718,0.46982 0.3083,0.70122c0.52074,1.3718 1.13326,2.71825 1.69493,4.08947c0.49858,1.22779 1.00716,2.43136 1.52273,3.65089c0.34741,0.837 0.68778,1.65813 1.03515,2.49513c0.32638,0.78923 0.67967,1.54595 1.00607,2.33513c0.02801,0.06377 0.05606,0.12751 0.06712,0.1995c-0.16035,0.29097 -0.37976,0.49455 -0.64003,0.69874c-0.41592,0.31866 -0.86278,0.6137 -1.34467,0.82905c-0.15265,0.07437 -0.29828,0.16464 -0.46901,0.151c0.13864,-0.10624 0.32924,-0.14103 0.4808,-0.31156c-0.2308,-0.19719 -0.29907,-0.49288 -0.42814,-0.73966c-0.00701,-0.01595 -0.014,-0.03186 -0.03095,-0.02362c-0.32485,-0.36424 -0.52803,-0.82644 -0.80906,-1.23141c-0.10398,-0.14284 -0.25887,-0.26093 -0.29503,-0.4368c-0.10619,-0.33528 -0.392,-0.56374 -0.49823,-0.89905c-0.00701,-0.01595 -0.03799,-0.03953 -0.05197,-0.07145c-0.18402,-0.27799 -0.37795,-0.53188 -0.52804,-0.82642c-0.15416,-0.35063 -0.43,-0.60332 -0.55022,-0.97045c-0.19284,-0.15762 -0.24998,-0.38134 -0.36504,-0.59621c-0.01401,-0.03188 -0.02104,-0.04783 -0.03503,-0.07969c-0.27583,-0.25268 -0.35514,-0.6204 -0.56312,-0.90613c-0.20798,-0.28571 -0.32121,-0.63691 -0.51224,-0.93089c-0.21203,-0.34181 -0.46796,-0.6428 -0.58522,-1.05014c-0.01401,-0.03188 -0.03504,-0.07971 -0.06601,-0.10331c-0.17886,-0.12574 -0.21203,-0.34179 -0.31306,-0.52479c-0.04205,-0.09565 -0.07412,-0.21543 -0.1501,-0.29455c-0.13088,-0.11041 -0.17,-0.24615 -0.23306,-0.38961c-0.03503,-0.0797 -0.0531,-0.16766 -0.11506,-0.21486c-0.19284,-0.15762 -0.25703,-0.39726 -0.34811,-0.60444c-0.03503,-0.0797 -0.05312,-0.16761 -0.11505,-0.21486c-0.16185,-0.13403 -0.22201,-0.31758 -0.29907,-0.49292c-0.12615,-0.28691 -0.37096,-0.51593 -0.48013,-0.81105c-0.00408,-0.05607 -0.07592,-0.07911 -0.11396,-0.11864z" fill="#87d7dc"/><path d="M254.8916,179.63084c0.03797,0.03954 0.10991,0.06258 0.13092,0.1104c0.10917,0.29513 0.33705,0.53245 0.48014,0.81106c0.07706,0.17531 0.1372,0.35891 0.29905,0.49291c0.06195,0.04724 0.08004,0.13518 0.11508,0.21482c0.09112,0.20718 0.1722,0.4386 0.34809,0.60451c0.06196,0.04723 0.06308,0.14345 0.11508,0.21486c0.06307,0.14342 0.11913,0.27096 0.23306,0.38961c0.07594,0.07909 0.10806,0.19896 0.1501,0.29458c0.10105,0.18298 0.13427,0.39903 0.31309,0.52476c0.03096,0.02362 0.05199,0.07144 0.06601,0.1033c0.11029,0.39135 0.37322,0.70837 0.58525,1.05014c0.19803,0.30994 0.31124,0.66112 0.51219,0.93092c0.20798,0.28569 0.28729,0.65344 0.56312,0.9061c0.02394,0.00769 0.02102,0.04783 0.03504,0.07971c0.09112,0.20718 0.17224,0.43856 0.3651,0.59622c0.10325,0.37543 0.37912,0.62808 0.5502,0.97046c0.13312,0.30282 0.34406,0.54839 0.52803,0.82643c0.01401,0.03188 0.03803,0.03954 0.05201,0.07143c0.10619,0.33528 0.39199,0.56374 0.49822,0.89904c0.06011,0.18357 0.20797,0.28572 0.29502,0.43681c0.26404,0.41321 0.48421,0.86715 0.80905,1.23139c0.00701,0.01595 0.03099,0.0236 0.03099,0.0236c0.1291,0.24675 0.1973,0.54249 0.42816,0.73966c-0.13457,0.16229 -0.33222,0.18113 -0.4808,0.31155c-0.13567,0.06609 -0.27138,0.13213 -0.43216,0.09432c-0.04205,-0.09565 -0.07411,-0.21543 -0.15009,-0.29452c-0.26585,-0.27685 -0.39603,-0.61985 -0.57712,-0.93802c-0.18107,-0.31815 -0.44693,-0.595 -0.5502,-0.97041c-0.19284,-0.15762 -0.25004,-0.38133 -0.36509,-0.5962c-0.01401,-0.03188 -0.03503,-0.07968 -0.06602,-0.1033c-0.14787,-0.10216 -0.184,-0.27803 -0.26403,-0.41324c-0.03503,-0.0797 -0.0701,-0.15936 -0.11506,-0.21485c-0.23895,-0.30933 -0.46799,-0.64281 -0.62914,-1.00941c-0.021,-0.04783 -0.03206,-0.11985 -0.08002,-0.13517c-0.15484,-0.11805 -0.20799,-0.28569 -0.27807,-0.44507c-0.06011,-0.18357 -0.24894,-0.28514 -0.31603,-0.48464c-0.09514,-0.26327 -0.28506,-0.46103 -0.43109,-0.6995c-0.18808,-0.33412 -0.43697,-0.61923 -0.59811,-0.98581c-0.02801,-0.06377 -0.0461,-0.15171 -0.10106,-0.18299c-0.12387,-0.09449 -0.17001,-0.24612 -0.25001,-0.38131c-0.05604,-0.12751 -0.12905,-0.24673 -0.21202,-0.34182c-0.15893,-0.17417 -0.28396,-0.36481 -0.38209,-0.58793c-0.1641,-0.32642 -0.42999,-0.6033 -0.53327,-0.97869c-0.01401,-0.03188 -0.05195,-0.07144 -0.06601,-0.10332c-0.19803,-0.30994 -0.41304,-0.61153 -0.5771,-0.93799c-0.15416,-0.35063 -0.444,-0.63518 -0.56422,-1.00234c-0.021,-0.04783 -0.07597,-0.07909 -0.11395,-0.11865c-0.12501,-0.19066 -0.24007,-0.40553 -0.28027,-0.63749c0.07781,-0.05723 0.14561,-0.0903 0.20648,-0.13926c0.25849,-0.06784 0.47601,-0.13509 0.70351,-0.22655z" fill="#b0eef2"/><path d="M257.74727,168.46812c0.18397,0.278 0.30606,0.50885 0.34332,0.78096c-0.07965,0.19359 -0.24516,0.33229 -0.40368,0.48687c-0.81371,0.72526 -1.63444,1.4346 -2.54515,2.03297c-0.68729,0.45084 -1.39152,0.90996 -2.13076,1.28934c-0.20352,0.09911 -0.43103,0.19058 -0.61357,0.33752c-0.07781,0.05723 -0.17958,0.1068 -0.28131,0.15636c-0.4351,0.13451 -0.82813,0.36462 -1.24221,0.54696c-0.58369,0.26495 -1.19539,0.46612 -1.82108,0.6354c-0.31635,0.07667 -0.62573,0.16931 -0.95202,0.27019c-0.25145,0.08374 -0.49702,0.08727 -0.7356,0.1067c-0.24484,-0.22908 -0.31084,-0.33235 -0.44509,-0.73138c0.3801,-0.1658 0.77835,-0.24365 1.1725,-0.37755c0.37719,-0.12565 0.77134,-0.25957 1.14154,-0.40116c0.38715,-0.14983 0.78427,-0.32393 1.1644,-0.48969c0.37018,-0.14158 0.71527,-0.38711 1.10654,-0.4809c0.33812,-0.26143 0.73226,-0.39532 1.09839,-0.59301c0.34917,-0.1894 0.70829,-0.40302 1.05046,-0.60838c0.35912,-0.21361 0.71123,-0.44315 1.08033,-0.68095c0.33515,-0.22128 0.69428,-0.43487 1.02243,-0.67214c0.3451,-0.24549 0.65924,-0.51457 0.99736,-0.776c0.35505,-0.2697 0.6832,-0.50689 0.99329,-0.83208z" fill="#d1eaeb"/><path d="M254.21204,179.86508c-0.06083,0.04897 -0.1287,0.08203 -0.20645,0.13927c0.04022,0.23199 0.13129,0.43913 0.28027,0.6375c0.03797,0.03955 0.09293,0.07085 0.11395,0.11865c0.12021,0.36714 0.39312,0.65998 0.56422,1.00232c0.14715,0.3347 0.37908,0.62808 0.57709,0.93802c0.01401,0.03188 0.05199,0.07145 0.06601,0.1033c0.10325,0.37541 0.37907,0.62808 0.53323,0.9787c0.09112,0.20718 0.22312,0.41379 0.38208,0.58793c0.08995,0.11094 0.163,0.23021 0.21204,0.3418c0.06307,0.14342 0.10215,0.27918 0.25002,0.38134c0.0549,0.03129 0.073,0.11926 0.10102,0.18301c0.15416,0.35063 0.41008,0.65165 0.59813,0.98578c0.14602,0.2385 0.33596,0.43623 0.43109,0.69951c0.06011,0.18357 0.24891,0.28513 0.31603,0.48464c0.05311,0.16763 0.11322,0.35121 0.27803,0.4451c0.03797,0.03955 0.059,0.08735 0.08003,0.13515c0.16115,0.36655 0.3831,0.68414 0.62912,1.0094c0.05197,0.07144 0.07008,0.15936 0.11503,0.21484c0.06307,0.14342 0.11621,0.31106 0.26405,0.41319c0.03096,0.02362 0.05199,0.07143 0.066,0.1033c0.09112,0.20718 0.17223,0.43858 0.36509,0.59621c0.10327,0.37541 0.36914,0.65228 0.5502,0.97041c0.18107,0.31815 0.31825,0.67703 0.57708,0.93797c0.07595,0.07911 0.10803,0.19894 0.15011,0.29455c-0.14566,0.09029 -0.28943,0.04423 -0.41517,0.08614c-0.37909,-0.62805 -0.76114,-1.21604 -1.12621,-1.81223c-0.41006,-0.6517 -0.79617,-1.29571 -1.18929,-1.95564c-0.3721,-0.61216 -0.76115,-1.21603 -1.15019,-1.81991c-0.47607,-0.75501 -0.96212,-1.48578 -1.43119,-2.22484c-0.35108,-0.56434 -0.7021,-1.12869 -1.07015,-1.68473c-0.54911,-0.87423 -1.03736,-1.79747 -1.62039,-2.65516c-0.07301,-0.11923 -0.17996,-0.22194 -0.19213,-0.39017c0.15265,-0.07437 0.3263,-0.10087 0.49299,-0.14336c0.09882,-0.00945 0.23743,-0.11565 0.4082,-0.10207z" fill="#87d7dc"/><path d="M262.41122,192.70647c0.34215,-0.20535 0.69539,-0.3387 1.03052,-0.55998c0.37905,-0.262 0.75104,-0.53996 1.08103,-0.91349c0.40641,0.92439 0.8058,1.83283 1.1982,2.72534c-0.10948,0.26619 -0.30196,0.43731 -0.47046,0.61613c-0.32702,0.33344 -0.70313,0.55529 -1.09616,0.78544c-0.01698,0.00827 -0.05787,0.00883 -0.08185,0.00118c0.11061,-0.16996 0.00367,-0.27267 -0.08633,-0.38366c-0.22496,-0.27745 -0.43294,-0.56315 -0.5561,-0.89017c-0.02801,-0.06377 -0.05606,-0.1275 -0.10105,-0.18297c-0.23491,-0.25326 -0.35807,-0.58025 -0.5421,-0.8583c-0.11095,-0.15882 -0.20099,-0.26971 -0.37576,-0.33943z" fill="#61afb4"/><path d="M253.02572,177.86928c0.63565,-0.19349 1.22225,-0.49853 1.83689,-0.73987c0.27837,-0.11622 0.53573,-0.2803 0.7931,-0.44434c0.49482,-0.27969 1.0346,-0.50388 1.50136,-0.84735c0.18952,-0.13099 0.37905,-0.26198 0.54459,-0.40066c0.10473,-0.0897 0.2164,-0.16346 0.33517,-0.22129c0.03798,0.03953 0.06895,0.06316 0.08296,0.09507c0.05603,0.1275 0.11212,0.25498 0.16819,0.38248c-0.06376,0.08912 -0.11763,0.15401 -0.18839,0.22721c-0.52648,0.48861 -1.06996,0.98554 -1.73147,1.30771c-0.56966,0.29681 -1.15624,0.60185 -1.75396,0.83492c-0.47197,0.19119 -0.93691,0.39827 -1.44796,0.45368c0.07076,-0.07319 0.19357,-0.07493 0.21935,-0.20359c-0.04316,-0.19182 -0.08337,-0.42381 -0.35991,-0.44391z" fill="#61aeb3"/><path d="M253.90222,178.73885c0.27433,-0.17231 0.58772,-0.20883 0.88306,-0.33334c0.61761,-0.28147 1.23519,-0.56287 1.83175,-0.89215c0.47784,-0.27141 0.91072,-0.59838 1.31259,-0.9489c0.10473,-0.0897 0.2094,-0.17939 0.31412,-0.2691c0.09811,0.22313 0.18223,0.41438 0.27328,0.62159c-0.11945,0.29037 -0.33885,0.49397 -0.58918,0.67398c-0.29422,0.22072 -0.6054,0.44966 -0.93761,0.6308c-0.73521,0.43544 -1.49552,0.76706 -2.26575,1.12286c-0.13567,0.06608 -0.27138,0.13218 -0.42514,0.11032c-0.03503,-0.0797 -0.05314,-0.16763 -0.11506,-0.21485c-0.13791,-0.12634 -0.20506,-0.32586 -0.28213,-0.50114z" fill="#61aeb3"/><path d="M262.41122,192.70648c0.15083,0.06201 0.25773,0.16472 0.34477,0.31584c0.184,0.27802 0.30718,0.60508 0.54209,0.85829c0.04499,0.05551 0.07305,0.11925 0.10106,0.18302c0.14716,0.33469 0.34811,0.60444 0.55608,0.89016c0.08298,0.09507 0.19694,0.2137 0.08633,0.38367c-0.24742,0.13984 -0.49887,0.22362 -0.75439,0.25132c-0.14901,-0.19835 -0.31492,-0.38845 -0.37911,-0.62808c-0.01401,-0.03188 -0.05199,-0.07144 -0.06602,-0.1033c-0.19101,-0.29396 -0.38906,-0.60388 -0.56312,-0.90611c-0.08002,-0.13517 -0.13605,-0.2627 -0.23305,-0.38962c-0.12793,-0.15055 -0.22901,-0.33353 -0.22127,-0.55015c0.0778,-0.05722 0.14563,-0.09027 0.20646,-0.13924c0.11873,-0.0578 0.26145,-0.10799 0.38012,-0.16581z" fill="#87d7dc"/><path d="M250.06135,169.90882c0.30166,0.12399 0.49853,0.33765 0.67852,0.55967c0.04498,0.0555 0.08704,0.15113 0.09811,0.22313c0.06752,0.52826 0.20286,1.02352 0.35518,1.51048c0.00701,0.01595 0.00407,0.05606 -0.00588,0.08029c-0.04685,0.08084 -0.13162,0.12219 -0.23743,0.11566c-0.01401,-0.03188 -0.04502,-0.0555 -0.05901,-0.08737c-0.15116,-0.39076 -0.35328,-0.75677 -0.63317,-1.0655c-0.13496,-0.16648 -0.21204,-0.3418 -0.21133,-0.57435c0.0107,-0.25674 -0.02954,-0.48872 0.01506,-0.76202z" fill="#cce5e6"/><path d="M250.10175,172.811c-0.08072,0.09739 -0.15558,0.11449 -0.22749,0.09146c-0.37024,-0.74851 -0.37027,-0.74848 -0.93591,-1.28569c-0.08521,-0.28749 -0.0856,-0.61622 -0.11287,-0.91252c0.10473,-0.0897 0.16367,-0.00232 0.21864,0.02897c0.19579,0.11748 0.3846,0.21905 0.55348,0.36901c0.10697,0.10274 0.17294,0.20604 0.19507,0.35002c0.07341,0.44803 0.17078,0.90368 0.30906,1.35878z" fill="#cce5e6"/><path d="M262.01415,192.88052c-0.06085,0.04897 -0.1287,0.08203 -0.20646,0.13925c-0.00773,0.21662 0.09331,0.39959 0.22129,0.55015c0.097,0.12693 0.15305,0.25441 0.23306,0.38963c0.17407,0.30225 0.37209,0.61214 0.56311,0.90612c0.01401,0.03188 0.05201,0.07144 0.06601,0.10331c0.08815,0.24732 0.24705,0.42147 0.37906,0.62807c-0.14969,0.03423 -0.28247,0.06015 -0.46018,0.03062c-0.24707,-0.42147 -0.53511,-0.84239 -0.77223,-1.28804c-0.24707,-0.42147 -0.56197,-0.80991 -0.7722,-1.28803c0.27837,-0.11622 0.50992,-0.15161 0.74848,-0.17108z" fill="#60adb2"/><path d="M254.96771,172.35675c0.06083,-0.04898 0.10474,-0.08969 0.16556,-0.13867c0.04795,0.01533 0.07188,0.02304 0.09583,0.0307c0.18697,0.23788 0.41782,0.43507 0.66556,0.62398c0.09993,0.08679 0.15895,0.17416 0.1571,0.31049c0.01328,0.26444 0.06753,0.52826 -0.06888,0.82692c-0.29461,-0.10808 -0.52545,-0.30524 -0.73931,-0.51069c-0.03798,-0.03953 -0.05602,-0.12752 -0.06711,-0.1995c-0.07527,-0.31162 -0.15051,-0.62336 -0.20878,-0.94328z" fill="#cce5e6"/><path d="M253.43241,168.2089c0.1379,0.1263 0.23083,0.1972 0.33076,0.28398c0.17591,0.16591 0.27692,0.34887 0.27328,0.62156c0.0155,0.45683 0.08896,0.90486 0.26411,1.30329c0.05603,0.1275 0.04609,0.15169 -0.16443,0.23491c-0.02101,-0.04782 -0.05902,-0.08736 -0.08002,-0.1352c-0.1582,-0.40671 -0.37725,-0.7644 -0.64718,-1.09736c-0.05898,-0.08739 -0.11098,-0.15881 -0.11215,-0.25501c0.03056,-0.30516 0.02726,-0.59379 0.13565,-0.95617z" fill="#cae2e3"/><path d="M252.1101,171.85221c-0.02394,-0.00768 -0.05499,-0.03131 -0.06195,-0.04724c-0.12722,-0.38305 -0.34921,-0.70065 -0.58118,-0.99408c-0.20798,-0.28569 -0.34112,-0.58854 -0.30462,-0.97393c0.02174,-0.18475 -0.0384,-0.3683 0.02432,-0.55364c0.41852,0.20251 0.65451,0.55199 0.68994,0.96044c0.0535,0.49642 0.08304,0.98512 0.30321,1.43908c0.00408,0.05607 0.03208,0.11983 -0.06967,0.16941z" fill="#c9e1e2"/><path d="M252.25223,168.80305c0.28172,0.1724 0.44764,0.36246 0.62057,0.56849c0.05197,0.07144 0.08701,0.15112 0.08113,0.23141c0.04355,0.52061 0.12802,1.0406 0.2464,1.54409c0.01401,0.03188 0.01808,0.08793 -0.07374,0.11331c-0.04904,-0.11155 -0.1051,-0.23904 -0.1711,-0.34238c-0.15708,-0.31049 -0.33116,-0.61271 -0.56606,-0.86595c-0.16598,-0.19007 -0.24006,-0.40554 -0.20542,-0.65461c0.02174,-0.18475 0.05046,-0.35355 0.06817,-0.59439z" fill="#c9e1e2"/><path d="M255.96617,171.67698c0.06677,-0.12925 0.15155,-0.17057 0.23634,-0.21186c0.02394,0.00768 0.05497,0.0313 0.07889,0.03898c0.14602,0.23848 0.35293,0.42798 0.59665,0.5608c0.14086,0.0862 0.21386,0.20545 0.22604,0.37368c0.00924,0.20834 0.04247,0.42438 0.01078,0.63334c-0.24961,-0.05257 -0.58227,-0.20018 -0.67223,-0.31118c-0.06897,-0.06313 -0.06308,-0.14342 -0.08112,-0.23139c-0.13606,-0.26267 -0.19439,-0.5826 -0.39532,-0.85236z" fill="#cae3e4"/><path d="M250.62813,175.55395c0.05749,-0.33759 0.06414,-0.65044 0.04677,-0.97095c0.08772,-0.08141 0.1556,-0.11451 0.26143,-0.10799c0.21092,0.24555 0.32411,0.59678 0.55202,0.8341c-0.00775,0.21661 -0.10137,0.37832 -0.16401,0.56366c-0.0398,0.09677 -0.05564,0.20123 -0.16736,0.27501c-0.22678,-0.14111 -0.32191,-0.40438 -0.5288,-0.59387z" fill="#c8e0e1"/><path d="M253.01252,173.4832c0.15965,-0.0584 0.20463,-0.00293 0.24962,0.05257c0.17298,0.20604 0.33888,0.3961 0.49488,0.61037c0.045,0.0555 0.07302,0.11924 0.06715,0.19953c-0.04165,0.2331 -0.10028,0.47452 -0.18282,0.70825c-0.12682,-0.05434 -0.18585,-0.14169 -0.27877,-0.21256c-0.27875,-0.21254 -0.41485,-0.47519 -0.30649,-0.83759c0.04573,-0.17708 0.00957,-0.35298 -0.04358,-0.5206z" fill="#cbe4e5"/><path d="M251.94397,174.00364c0.08478,-0.04132 0.13566,-0.06609 0.18656,-0.09089c0.03096,0.02362 0.07188,0.02306 0.0789,0.03897c0.11095,0.15882 0.20506,0.32585 0.31605,0.48465c0.05898,0.08739 0.07707,0.17533 0.06122,0.2798c-0.04753,0.3134 -0.11908,0.61914 -0.24144,0.94967c-0.18179,-0.08561 -0.2618,-0.22078 -0.34183,-0.35596c-0.02799,-0.06374 -0.05602,-0.12752 -0.04317,-0.19181c0.10837,-0.3624 0.07001,-0.73072 -0.01628,-1.11438z" fill="#c8e0e1"/><path d="M253.9022,178.73883c0.07706,0.17531 0.14419,0.37486 0.30611,0.50885c0.06196,0.04723 0.07999,0.13517 0.11504,0.21485c-0.28131,0.15636 -0.5737,0.24071 -0.87718,0.25304c-0.06416,-0.23965 -0.2301,-0.42972 -0.3481,-0.60443c0.08369,-0.13752 0.22344,-0.14752 0.31116,-0.22895c0.14566,-0.09029 0.32226,-0.15694 0.49297,-0.14336z" fill="#85d5d9"/><path d="M255.06477,168.36205c0.0203,0.28037 0.04063,0.56073 0.08487,0.84878c0.0472,0.24792 0.295,0.43682 0.14566,0.79979c-0.23823,-0.54186 -0.56717,-0.96219 -0.89609,-1.3825c0.00775,-0.21661 0.02539,-0.45743 0.13197,-0.68348c0.04795,0.01533 0.0719,0.02304 0.09585,0.03069c0.15486,0.11807 0.29281,0.2444 0.4377,0.38665z" fill="#c6dede"/><path d="M249.65571,169.64197c0.00039,0.3288 0.00373,0.61736 0.00413,0.94616c-0.17771,-0.02956 -0.28468,-0.13225 -0.41149,-0.18657c-0.13385,-0.07023 -0.29463,-0.10809 -0.40855,-0.22673c-0.04904,-0.11155 -0.02325,-0.24022 -0.01444,-0.36062c0.00882,-0.12039 0.03467,-0.24907 0.07741,-0.38602c0.27949,-0.02002 0.49924,0.10518 0.75297,0.21382z" fill="#cae3e3"/><path d="M249.03028,173.37157c-0.32895,-0.4203 -0.62286,-0.76091 -1.01149,-1.036c-0.02322,-0.24026 -0.06345,-0.4722 -0.09369,-0.72838c0.27656,0.0201 0.44545,0.17005 0.64121,0.28754c0.03096,0.02362 0.052,0.07146 0.06598,0.10331c0.12428,0.42321 0.2486,0.84645 0.39797,1.37352z" fill="#cae3e4"/><path d="M254.76069,174.50871c-0.28171,-0.17239 -0.52253,-0.34536 -0.50999,-0.73845c0.00366,-0.2727 -0.08447,-0.52003 -0.17261,-0.76735c-0.04204,-0.09565 0.03573,-0.15287 0.15153,-0.17057c0.07821,0.27149 0.2681,0.4693 0.45802,0.66706c0.14492,0.14226 0.17408,0.30221 0.15234,0.48697c-0.0118,0.16054 0.01733,0.32052 -0.07927,0.52237z" fill="#c8e0e1"/><path d="M253.02571,177.86927c0.28356,0.03605 0.31672,0.25208 0.38385,0.45159c-0.02579,0.12863 -0.14156,0.14635 -0.21932,0.20359c-0.22749,0.09144 -0.45906,0.1268 -0.70466,0.13033c-0.06011,-0.18357 -0.20502,-0.32584 -0.1903,-0.52651c0.07781,-0.05723 0.12869,-0.08203 0.19652,-0.11507c0.18362,-0.05075 0.36723,-0.1015 0.53391,-0.14393z" fill="#85d4d9"/><path d="M252.92747,174.97585c0.20686,0.1895 0.3658,0.36364 0.54171,0.52952c-0.07558,0.24965 -0.17509,0.49164 -0.30566,0.71001c-0.13277,0.02595 -0.20869,-0.05315 -0.28759,-0.09211c-0.07891,-0.03896 -0.1578,-0.07794 -0.18988,-0.19776c0.05164,-0.25734 0.14008,-0.5713 0.24143,-0.94967z" fill="#c7dfe0"/><path d="M255.93359,174.45995c-0.04868,0.21723 -0.08037,0.42613 -0.18689,0.6522c-0.2666,-0.04431 -0.43546,-0.19425 -0.64527,-0.34362c0.03464,-0.24907 0.06926,-0.49815 0.09692,-0.76318c0.26769,0.14053 0.47755,0.28993 0.73527,0.45462z" fill="#c8e0e1"/><path d="M250.24561,168.73541c0.19175,0.06144 0.38347,0.12286 0.54536,0.25687c-0.00366,0.2727 -0.02429,0.55364 -0.03792,0.85052c-0.0339,0.0165 -0.06782,0.03303 -0.07484,0.01708c-0.16482,-0.09388 -0.33664,-0.20369 -0.48451,-0.30581c-0.06195,-0.04724 -0.10697,-0.10272 -0.09405,-0.16703c0.01769,-0.24081 -0.01553,-0.45685 0.14595,-0.65163z" fill="#c4dcdd"/><path d="M253.05783,167.96564c-0.0446,0.27326 -0.07224,0.53828 -0.11684,0.81159c-0.15668,0.01825 -0.21273,-0.10923 -0.30567,-0.18009c-0.0929,-0.07083 -0.17591,-0.16589 -0.27583,-0.25265c0.00073,-0.23255 0.11434,-0.44262 0.17993,-0.66814c0.23558,0.02069 0.37351,0.14704 0.51841,0.28932z" fill="#c8e0e1"/><path d="M256.37337,174.14902c0.02066,-0.28096 0.03132,-0.53774 0.04495,-0.8346c0.22565,0.04487 0.38753,0.17893 0.59626,0.23206c0.03023,0.25617 -0.07629,0.48223 -0.12792,0.73955c-0.21163,-0.01302 -0.38235,-0.02662 -0.51324,-0.13703z" fill="#c6ddde"/><path d="M256.90561,170.90982c0.28873,0.18835 0.50667,0.44982 0.83225,0.58152c0.03321,0.21603 0.07636,0.4079 0.03471,0.64101c-0.25255,-0.01245 -0.43439,-0.09806 -0.50555,-0.35362c-0.07524,-0.31163 -0.2353,-0.582 -0.36143,-0.8689z" fill="#b9cfd0"/><path d="M247.9824,173.61101c-0.12278,0.00174 -0.10699,-0.10272 -0.15193,-0.15819c-0.09698,-0.12691 -0.17701,-0.26206 -0.32084,-0.30816c-0.21275,-0.10924 -0.27289,-0.29278 -0.32304,-0.50059c-0.01805,-0.08798 -0.01921,-0.18417 -0.03431,-0.31225c0.29759,0.0679 0.53726,0.14471 0.60254,0.48054c0.04022,0.23197 0.15526,0.44685 0.22938,0.6623c0.02099,0.04783 0.04203,0.09564 -0.00184,0.13635z" fill="#c0d8d8"/><path d="M250.01616,176.31639c-0.14787,-0.10216 -0.23783,-0.2131 -0.2939,-0.3406c-0.02799,-0.06374 -0.06311,-0.14344 -0.05018,-0.20776c0.06158,-0.28154 0.06521,-0.55422 0.06889,-0.82693c0.11873,-0.0578 0.12978,0.0142 0.15083,0.06202c0.07007,0.15939 0.14717,0.33469 0.25115,0.47754c0.125,0.19067 0.13719,0.35889 0.01663,0.55309c-0.06378,0.08912 -0.09364,0.16171 -0.14341,0.28266z" fill="#c1d9d9"/><path d="M254.65338,174.96735c-0.02467,0.22485 -0.10434,0.41848 -0.16994,0.64393c-0.22859,-0.00475 -0.35654,-0.1553 -0.5214,-0.24918c0.02763,-0.26502 0.15111,-0.49931 0.24367,-0.75724c0.18879,0.10157 0.30975,0.23617 0.44769,0.36249z" fill="#c3dbdc"/><path d="M251.79352,169.25869c-0.19989,-0.17356 -0.37577,-0.33948 -0.56862,-0.49711c0.00474,-0.17649 0.01659,-0.33701 0.12716,-0.507c0.20871,0.05317 0.36357,0.17125 0.53544,0.28103c0.02322,0.24026 -0.00144,0.46507 -0.09397,0.72301z" fill="#c3dadb"/><path d="M253.46622,176.43566c0.10656,-0.22606 0.20314,-0.42788 0.29972,-0.62972c0.21866,0.02895 0.37352,0.14703 0.52837,0.26509c-0.05564,0.20126 -0.14227,0.37891 -0.26985,0.55709c-0.06489,-0.0071 -0.15376,-0.02189 -0.20168,-0.03721c-0.12685,-0.05432 -0.21275,-0.10921 -0.35658,-0.15531z" fill="#c4dbdc"/><path d="M248.88776,175.20184c0.13313,0.30286 0.23823,0.54192 0.35038,0.79688c-0.03575,0.15288 -0.1025,0.28213 -0.23411,0.40425c-0.13677,-0.03015 -0.15192,-0.15821 -0.22789,-0.23734c-0.07596,-0.07909 -0.13495,-0.16647 -0.17002,-0.24615c0.09954,-0.24203 0.17917,-0.43561 0.28165,-0.71769z" fill="#c2d9da"/><path d="M248.99014,169.01793c0.0118,-0.16054 0.0545,-0.29747 0.12827,-0.41078c0.12868,-0.08202 0.2386,-0.01939 0.34438,-0.01292c0.10578,0.00648 0.21457,-0.02713 0.3145,0.05966c0.03616,0.17589 -0.01952,0.37715 -0.06114,0.61033c-0.11988,-0.03838 -0.23972,-0.07677 -0.35252,-0.09923c-0.12682,-0.05434 -0.25369,-0.10863 -0.37354,-0.14702z" fill="#c5ddde"/><path d="M255.59445,175.51523c-0.01474,0.20071 -0.1294,0.3146 -0.18911,0.45979c-0.22162,0.01116 -0.40341,-0.07445 -0.60918,-0.16771c0.06265,-0.18534 0.12535,-0.37067 0.17107,-0.54776c0.25256,0.01247 0.42148,0.1624 0.62721,0.25567z" fill="#c3dbdc"/><path d="M248.47484,171.35877c-0.08889,-0.01475 -0.13679,-0.03009 -0.18472,-0.04543c-0.10286,-0.04663 -0.21277,-0.10922 -0.33961,-0.16355c0.02066,-0.28096 -0.00963,-0.53712 0.09987,-0.80332c0.13277,-0.02595 0.21866,0.02895 0.33556,0.10748c0.03726,0.27211 0.07155,0.58434 0.08896,0.90484z" fill="#c7dfe0"/><path d="M252.21107,176.15687c-0.11355,0.21009 -0.14526,0.41901 -0.29677,0.58958c-0.19469,-0.02131 -0.28873,-0.18831 -0.44949,-0.22611c0.06159,-0.28154 0.17509,-0.49166 0.27464,-0.73364c0.23269,0.06085 0.30973,0.23614 0.47166,0.37013z" fill="#c7dee0"/><path d="M253.40229,178.86622c-0.08772,0.08143 -0.22751,0.09142 -0.31116,0.22896c0.125,0.19067 0.27396,0.38901 0.34811,0.60446c-0.07487,0.01711 -0.16667,0.04246 -0.24849,0.04366c-0.12278,0.00174 -0.22564,-0.04491 -0.27473,-0.15648c-0.10104,-0.18296 -0.19509,-0.35001 -0.29612,-0.53305c0.2205,-0.1074 0.32927,-0.14102 0.78242,-0.18757z" fill="#61acb1"/><path d="M254.23728,167.60404c-0.04868,0.21723 -0.09438,0.39423 -0.16,0.61972c-0.19286,-0.15762 -0.37868,-0.29929 -0.55459,-0.46518c0.02871,-0.16879 0.06451,-0.32166 0.14118,-0.47512c0.23268,0.06085 0.38752,0.1789 0.57338,0.32058z" fill="#c2dada"/><path d="M250.25509,176.62575c0.04868,-0.21723 0.14229,-0.3789 0.23892,-0.58077c0.16596,0.19007 0.31788,0.3483 0.46981,0.50654c-0.00475,0.17649 -0.1025,0.28213 -0.20314,0.42788c-0.20168,-0.0372 -0.32969,-0.18776 -0.50555,-0.35362z" fill="#c1d9d9"/><path d="M252.02572,168.10064c-0.22272,-0.08505 -0.38051,-0.16298 -0.55532,-0.23267c-0.01919,-0.18416 0.06746,-0.36182 0.15411,-0.53946c0.18765,0.00537 0.36538,0.0349 0.53724,0.14471c0.03321,0.21603 -0.10141,0.37834 -0.136,0.62741z" fill="#c6dedf"/><path d="M256.75842,174.69679c-0.05564,0.20125 -0.1353,0.39486 -0.19797,0.58017c-0.15965,0.0584 -0.28944,0.04424 -0.44029,-0.01778c-0.02322,-0.24026 0.11433,-0.44263 0.15594,-0.6758c0.18069,-0.01062 0.31451,0.05968 0.4823,0.1134z" fill="#c0d7d7"/><path d="M247.56859,171.45181c0.00924,0.20834 0.07634,0.40788 -0.0062,0.64162c-0.15083,-0.06201 -0.29465,-0.10809 -0.43843,-0.15415c-0.08406,-0.19124 -0.06933,-0.39191 0.0103,-0.58548c0.1567,-0.01826 0.27652,0.02012 0.43433,0.09802z" fill="#c3dadb"/><path d="M252.50874,178.00496c-0.06785,0.03303 -0.12869,0.08204 -0.19653,0.11511c-0.01474,0.20071 0.13014,0.34296 0.1903,0.52651c-0.11171,0.07376 -0.22162,0.01116 -0.34732,0.05306c-0.15892,-0.17415 -0.19216,-0.39016 -0.40196,-0.53952c0.1626,-0.09852 0.28536,-0.10029 0.42515,-0.11032c0.09883,-0.00946 0.20356,-0.09911 0.33035,-0.0448z" fill="#5aa0a4"/><path d="M258.5108,171.65666c0.00924,0.20833 0.07635,0.4079 0.00374,0.61741c-0.13277,0.02595 -0.22864,-0.00477 -0.37243,-0.05079c-0.04315,-0.19186 -0.05239,-0.4002 -0.01371,-0.59321c0.13277,-0.02595 0.22161,-0.01118 0.38236,0.02663z" fill="#bdd3d4"/><path d="M254.43082,176.66244c0.07669,-0.15345 0.13643,-0.29864 0.19613,-0.44381c0.18768,0.00536 0.33851,0.06735 0.49632,0.14527c0.00516,0.15227 -0.09954,0.24203 -0.21824,0.29982c-0.15264,0.07438 -0.30526,0.1487 -0.47419,-0.00125z" fill="#bdd4d5"/><path d="M255.86892,167.98974c-0.00074,0.23254 -0.00845,0.44918 -0.00916,0.6817c-0.31674,-0.25205 -0.53466,-0.51359 -0.31457,-0.94974c0.13677,0.03015 0.20981,0.14938 0.32373,0.26802z" fill="#bbd2d3"/><path d="M252.69235,177.06413c-0.1637,0.00232 -0.27361,-0.06027 -0.38347,-0.12288c-0.04904,-0.11155 0.02176,-0.18476 0.06158,-0.28153c0.02986,-0.07259 0.05271,-0.16109 0.14748,-0.2266c0.1637,-0.00232 0.23377,0.15701 0.4045,0.17062c-0.03868,0.19301 -0.12236,0.33052 -0.22999,0.46037z" fill="#c3dadb"/><path d="M252.47213,171.59848c-0.09216,-0.30342 -0.18439,-0.60678 -0.20875,-0.94323c0.10876,-0.0336 0.1608,0.0378 0.19578,0.11751c0.10804,0.19893 0.19913,0.40607 0.28321,0.59734c0.06307,0.14342 -0.02469,0.2249 -0.27025,0.22837z" fill="#b1c6c7"/><path d="M257.73916,174.25781c-0.02215,-0.14399 0.05861,-0.24139 0.0914,-0.35412c0.04865,-0.21723 0.19429,-0.3075 0.4329,-0.32693c-0.00368,0.27269 -0.14416,0.51524 -0.25768,0.72536c-0.12574,0.04188 -0.19064,0.0348 -0.26661,-0.0443z" fill="#bbd2d3"/><path d="M254.67479,170.33218c-0.20099,-0.26978 -0.20136,-0.59852 -0.22574,-0.93497c0.19989,0.17356 0.30494,0.41264 0.42002,0.62749c0.08003,0.13518 0.04317,0.19187 -0.19429,0.30748z" fill="#bad1d2"/><path d="M257.90968,170.71106c0.17476,0.06969 0.33554,0.1075 0.51031,0.17716c0.01807,0.08795 0.01625,0.22431 0.03137,0.35238c-0.34033,0.06901 -0.34735,0.05306 -0.42149,-0.16241c-0.04903,-0.11157 -0.08112,-0.23141 -0.12021,-0.36715z" fill="#b5cbcc"/><path d="M250.72304,167.24514c0.19062,-0.03476 0.32745,-0.00468 0.46422,0.02546c0.01218,0.16824 -0.09551,0.29805 -0.17216,0.45151c-0.15376,-0.02182 -0.29053,-0.05201 -0.4443,-0.07386c-0.0461,-0.15168 0.0925,-0.25792 0.15226,-0.40314z" fill="#c0d7d8"/><path d="M257.42857,172.47407c0.11577,-0.01765 0.21866,0.02893 0.32857,0.09152c0.0402,0.23197 -0.00143,0.46511 -0.09103,0.68289c-0.11171,0.07376 -0.16666,0.04246 -0.23558,-0.02069c-0.00633,-0.24848 -0.01258,-0.497 -0.00189,-0.75373z" fill="#bdd4d4"/><path d="M254.32175,167.23396c-0.16482,-0.09388 -0.31969,-0.21193 -0.48452,-0.30582c0.03282,-0.11273 0.10361,-0.18592 0.20534,-0.23549c0.11576,-0.01767 0.18473,0.04545 0.27062,0.10036c0.06195,0.04724 0.1239,0.09445 0.18586,0.14169c-0.00883,0.12042 -0.04866,0.21722 -0.17735,0.29925z" fill="#b6cccc"/><path d="M250.84036,168.54252c-0.17476,-0.06971 -0.32557,-0.13168 -0.51735,-0.19311c-0.02509,-0.10387 -0.01626,-0.22431 0.11538,-0.34648c0.15377,0.02182 0.31452,0.05965 0.49223,0.0892c-0.0118,0.16054 -0.0136,0.29689 -0.09032,0.45035z" fill="#c1d9d9"/><path d="M255.2173,167.39764c-0.0118,0.16054 -0.03758,0.28923 -0.12128,0.42671c-0.17476,-0.06969 -0.27876,-0.21257 -0.3857,-0.31527c-0.02215,-0.14399 0.0656,-0.22545 0.12939,-0.31457c0.05789,-0.00885 0.09181,-0.02536 0.09882,-0.00946c0.0929,0.07086 0.18584,0.14168 0.27877,0.21258z" fill="#b7cdce"/><path d="M256.7189,168.33042c-0.21275,-0.10925 -0.27582,-0.25267 -0.37281,-0.3796c-0.12097,-0.1346 -0.04722,-0.2479 0.03645,-0.38541c0.17476,0.06969 0.27176,0.1966 0.39567,0.29107c0.03613,0.17589 -0.11243,0.30633 -0.05932,0.47396z" fill="#b6cccc"/><path d="M258.50193,172.66724c-0.02874,0.1688 -0.05454,0.29745 -0.07334,0.44207c-0.14566,0.09029 -0.24742,0.13984 -0.40116,0.11798c0.0387,-0.19301 0.06044,-0.37776 0.08916,-0.54654c0.13159,-0.12217 0.24149,-0.05954 0.35025,-0.09322c0.01401,0.03188 0.045,0.05551 0.03506,0.0797z" fill="#c2dada"/><path d="M249.96719,167.96156c-0.00186,0.13633 -0.03168,0.20894 -0.10247,0.28215c-0.09479,0.0655 -0.19062,0.03479 -0.29645,0.0283c-0.0889,-0.01476 -0.21458,0.02712 -0.2806,-0.07618c0.04278,-0.1369 0.10949,-0.26616 0.24813,-0.3724c0.16078,0.03779 0.28761,0.09213 0.43143,0.1382z" fill="#bbd2d3"/><path d="M251.05338,177.22379c0.08369,-0.13751 0.14047,-0.24258 0.21418,-0.35588c0.16779,0.05373 0.29166,0.14821 0.43256,0.23442c-0.02579,0.12865 -0.08256,0.23376 -0.20131,0.29152c-0.04094,0.00061 -0.08185,0.00115 -0.11286,-0.02245c-0.09584,-0.03069 -0.19877,-0.07738 -0.33261,-0.14761z" fill="#bbd2d3"/><path d="M258.36056,170.47209c-0.28061,-0.07619 -0.28064,-0.07619 -0.48451,-0.30582c0.02874,-0.16882 0.15745,-0.25082 0.28907,-0.37295c0.149,0.19837 0.15528,0.44682 0.19547,0.67881z" fill="#adc2c3"/><path d="M253.07881,177.14682c0.02579,-0.12865 0.09956,-0.24201 0.21126,-0.31573c0.16779,0.05373 0.31158,0.09974 0.46236,0.16179c-0.21826,0.29982 -0.2352,0.3081 -0.67364,0.15398z" fill="#b5cbcc"/><path d="M253.31033,167.08803c-0.03574,0.15289 -0.06858,0.2656 -0.15227,0.40311c-0.17068,-0.0136 -0.28465,-0.13228 -0.4425,-0.21023c0.0129,-0.06435 0.03281,-0.1127 0.05269,-0.16112c0.01989,-0.04841 0.06376,-0.08912 0.10064,-0.1458c0.17366,-0.02653 0.30047,0.02778 0.44139,0.11399z" fill="#bbd1d2"/><path d="M249.70643,176.97036c-0.21867,-0.02896 -0.31969,-0.21194 -0.46056,-0.29811c0.01882,-0.14459 0.13052,-0.21839 0.20429,-0.33172c0.19581,0.11746 0.29978,0.26035 0.32597,0.46044c0.021,0.04783 -0.03281,0.11272 -0.06966,0.16939z" fill="#b6cccd"/><path d="M247.67386,170.23953c-0.02763,0.26502 -0.07925,0.52235 -0.11388,0.77142c-0.12575,0.04188 -0.21458,0.02714 -0.33148,-0.05138c0.0925,-0.25793 0.18505,-0.51583 0.34948,-0.75072c0.04797,0.01536 0.07191,0.02304 0.09587,0.03069z" fill="#acc1c2"/><path d="M253.42773,170.16556c0.14198,0.18242 0.26701,0.37309 0.32413,0.59679c0.01805,0.08798 -0.00478,0.17649 -0.08957,0.21778c-0.03389,0.0165 -0.11576,0.01766 -0.12278,0.00172c-0.12206,-0.2308 -0.10845,-0.52767 -0.1118,-0.81629z" fill="#a7bbbb"/><path d="M252.50533,166.8028c0.00811,0.11216 -0.05564,0.20126 -0.1364,0.29863c-0.16078,-0.03779 -0.32152,-0.07562 -0.48231,-0.1134c0.0118,-0.16054 0.10656,-0.22602 0.22526,-0.28384c0.12278,-0.00174 0.2666,0.04428 0.39344,0.09865z" fill="#b7cdcd"/><path d="M255.76888,176.14621c0.01474,-0.20071 0.09845,-0.33818 0.19908,-0.48396c0.1567,-0.01826 0.2865,-0.00409 0.4174,0.10631c-0.16148,0.19474 -0.37204,0.27792 -0.61647,0.37767z" fill="#b7cece"/><path d="M248.12603,175.99856c-0.20281,-0.13342 -0.22605,-0.37365 -0.38094,-0.49171c0.02579,-0.12863 0.10066,-0.14577 0.15561,-0.11447c0.14086,0.0862 0.27178,0.1966 0.34181,0.35597c0.00407,0.05608 0.01105,0.072 -0.11649,0.25025z" fill="#b4cacb"/><path d="M248.40133,170.02071c-0.12276,0.00176 -0.19468,-0.02128 -0.26365,-0.08441c0.04865,-0.21723 0.0903,-0.45034 0.27169,-0.6935c0.13606,0.26267 0.05349,0.4964 -0.00806,0.77793z" fill="#b2c8c9"/><path d="M252.02978,177.29007c0.15376,0.02182 0.26658,0.0443 0.34255,0.12341c0.01107,0.07201 -0.0328,0.11275 -0.07669,0.15348c-0.17548,0.16287 -0.30936,0.09259 -0.4642,-0.02546c0.07076,-0.07319 0.13456,-0.16231 0.19834,-0.25142z" fill="#b5cbcb"/><path d="M255.7411,169.61936c-0.10804,-0.19892 -0.18512,-0.37421 -0.21831,-0.59024c0.0778,-0.05722 0.13274,-0.02595 0.15375,0.02185c0.06601,0.10332 0.149,0.19838 0.21499,0.30166c0.05603,0.1275 0.00221,0.1924 -0.15044,0.26671z" fill="#91a3a3"/><path d="M249.15595,172.43962c0.20281,0.13342 0.27694,0.34888 0.361,0.54014c0.01401,0.03188 -0.00589,0.08029 -0.03281,0.11272c-0.0339,0.0165 -0.09881,0.00946 -0.10584,-0.0065c-0.149,-0.19837 -0.20615,-0.42206 -0.2224,-0.64636z" fill="#99abac"/><path d="M248.58011,173.37798c-0.09069,0.12158 -0.1755,0.16286 -0.24447,0.0997c-0.08298,-0.09507 -0.11908,-0.27093 -0.14236,-0.51116c0.18882,0.10155 0.26586,0.27684 0.3868,0.41144z" fill="#93a5a6"/><path d="M257.32998,175.15368c0.05863,-0.24139 0.09325,-0.49047 0.4546,-0.51169c-0.05165,0.25733 -0.27209,0.36472 -0.4546,0.51169z" fill="#9aadad"/><path d="M255.81721,172.36871c-0.10697,-0.10273 -0.22088,-0.22136 -0.32082,-0.30818c0.01586,-0.10448 0.05971,-0.14519 0.1685,-0.17882c0.1479,0.10214 0.15012,0.29456 0.23014,0.42973c-0.0339,0.0165 -0.05089,0.02476 -0.07782,0.05726z" fill="#c5dddd"/><path d="M251.33797,171.45424c0.24373,0.13284 0.33481,0.34007 0.35808,0.58027c0.00701,0.01595 -0.01991,0.04842 -0.05382,0.06493c-0.04389,0.04072 -0.09881,0.00946 -0.11282,-0.02245c-0.09407,-0.16701 -0.12725,-0.38311 -0.19143,-0.62276z" fill="#aec2c3"/><path d="M250.07884,177.02117c0.17476,0.06969 0.29572,0.20425 0.40968,0.32294c-0.01583,0.10446 -0.09073,0.12159 -0.15266,0.07436c-0.1169,-0.07853 -0.22676,-0.14112 -0.33369,-0.24385c-0.04797,-0.01536 -0.01808,-0.08793 0.07669,-0.15345z" fill="#9caeaf"/><path d="M251.45932,166.90591c-0.17368,0.02653 -0.30342,0.01234 -0.46423,-0.02546c0.19245,-0.17113 0.40004,-0.21421 0.60358,-0.31332c0.00406,0.05609 0.01806,0.08798 0.00811,0.11214c-0.04685,0.08084 -0.10064,0.14575 -0.14745,0.22662z" fill="#a9bebf"/><path d="M251.33336,174.30098c0.10473,-0.0897 0.17953,-0.10679 0.26846,-0.09201c0.087,0.15112 0.09918,0.31934 -0.00034,0.56134c-0.11801,-0.17475 -0.18105,-0.31819 -0.26811,-0.46929z" fill="#b9cfd0"/><path d="M256.48377,171.30875c0.01586,-0.10447 0.07672,-0.15343 0.13753,-0.20243c0.09882,-0.00942 0.13385,0.07023 0.25113,0.47755c-0.24558,0.0035 -0.27177,-0.1966 -0.38867,-0.27512z" fill="#869797"/><path d="M250.33433,171.98179c0.06122,0.27977 0.31199,0.42858 0.1586,0.73546c-0.17297,-0.20602 -0.24009,-0.40551 -0.1586,-0.73546z" fill="#93a4a5"/><path d="M256.27973,168.40884c0.10509,0.23904 0.17516,0.39845 0.24523,0.55781c0.01401,0.03188 -0.00588,0.0803 -0.05677,0.10502c-0.01698,0.00827 -0.05789,0.00883 -0.08186,0.00118c-0.11803,-0.1747 -0.19512,-0.35007 -0.10663,-0.66401z" fill="#94a5a6"/><path d="M257.19289,170.67317c0.07377,-0.1133 0.11758,-0.15403 0.23043,-0.1316c0.07301,0.11923 0.15305,0.25443 0.17223,0.43859c-0.21866,-0.02899 -0.2887,-0.18833 -0.40266,-0.30696z" fill="#abbfc0"/><path d="M256.11777,167.38476c-0.07077,0.07319 -0.0977,0.10563 -0.13164,0.12217c-0.28468,-0.13225 -0.28463,-0.13225 -0.33184,-0.38014c0.21163,0.01302 0.28172,0.17236 0.46347,0.258z" fill="#acc0c1"/><path d="M257.21415,174.28125c0.04573,-0.17708 0.06745,-0.36181 0.13012,-0.54714c0.02986,-0.07259 0.09773,-0.10561 0.19061,-0.03479c-0.04868,0.21723 -0.10431,0.41846 -0.32075,0.5819z" fill="#9fb2b2"/><path d="M253.47363,166.75688c-0.11286,-0.02246 -0.18473,-0.0455 -0.25368,-0.10863c0.00588,-0.08029 0.04274,-0.13694 0.12055,-0.19418c0.10877,-0.0336 0.21163,0.01305 0.31451,0.05969c0.00811,0.11216 -0.08664,0.17764 -0.18138,0.24311z" fill="#aec2c3"/><path d="M253.82111,173.4957c-0.17068,-0.0136 -0.21977,-0.12518 -0.28578,-0.22848c-0.02099,-0.04783 0.01584,-0.10444 0.06673,-0.12922c0.0339,-0.0165 0.09885,-0.00945 0.11284,0.02243c0.0929,0.07083 0.10106,0.18302 0.1062,0.33528z" fill="#91a2a3"/><path d="M250.22191,167.27634c-0.06746,0.36182 -0.07736,0.38603 -0.39598,0.27029c0.12168,-0.09795 0.20536,-0.23549 0.39598,-0.27029z" fill="#869696"/><path d="M247.62327,173.82461c-0.2087,-0.05317 -0.19986,-0.17354 -0.23196,-0.29339c0.18768,0.00536 0.18768,0.00536 0.23196,0.29339z" fill="#555f5f"/><path d="M254.66648,172.56153c0.03504,0.07969 0.08407,0.19123 0.08225,0.3276c-0.21571,-0.06911 -0.24371,-0.13285 -0.22495,-0.27742c0.00296,-0.04015 0.05383,-0.06494 0.14269,-0.05013z" fill="#93a5a6"/><path d="M257.04809,168.18945c0.25369,0.10864 0.25078,0.14878 0.00038,0.32877c-0.08298,-0.09508 -0.05019,-0.20777 -0.00038,-0.32877z" fill="#8b9b9c"/><path d="M247.02191,173.44027c0.12095,0.13461 0.16002,0.27033 0.19912,0.40615c-0.08072,0.09739 -0.14565,0.09028 -0.17366,0.0265c-0.05605,-0.12749 -0.09514,-0.26327 -0.02549,-0.43263z" fill="#9aacad"/><path d="M255.12181,166.80553c0.13677,0.03015 0.25959,0.0284 0.2987,0.16415c0.00699,0.01596 -0.00293,0.04014 -0.0199,0.04841c-0.16667,0.04247 -0.24264,-0.03665 -0.27877,-0.21256z" fill="#5f6a6b"/><path d="M252.62869,173.9217c-0.07891,-0.03896 -0.10697,-0.10274 -0.118,-0.17476c0.00296,-0.04015 0.02285,-0.08851 0.06378,-0.0891c0.04094,-0.00061 0.08889,0.01475 0.10287,0.04666c0.02799,0.06374 0.03908,0.13575 -0.04867,0.21719z" fill="#636e6f"/><path d="M252.61085,166.48051c0.09772,-0.10562 0.1895,-0.13101 0.31341,-0.03656c-0.10767,0.12982 -0.19651,0.11509 -0.31341,0.03656z" fill="#4a5354"/></g><g data-paper-data="{&quot;index&quot;:null}" fill="#000000" fill-rule="nonzero" stroke="#000000" stroke-width="1.2" stroke-linecap="butt" stroke-linejoin="miter"><path d="M254.33824,197.75507c-1.60008,-0.96017 -2.43401,-4.20178 -3.82305,-6.02867c-1.49548,-1.96692 -3.39993,-2.42732 -3.54165,-4.063c-0.09899,-1.14251 1.02927,-2.26038 1.6891,-2.76205c1.60445,-1.21992 4.96427,0.49938 7.50434,3.84016c2.54008,3.34077 3.29857,7.03794 1.69413,8.25784c-0.72705,0.55281 -2.19692,1.55138 -3.52285,0.75574z"/><path d="M258.45502,197.33877c-2.21886,-1.35906 -5.01557,-6.66902 -5.01557,-6.66902c0,0 -3.16666,-2.32443 -3.21785,-2.39428c-3.26269,-4.44958 -0.52119,-6.61073 2.63813,-9.01284c1.50362,-1.14326 4.27931,-2.29157 6.14644,-1.5416c2.11755,0.85053 3.31684,3.37767 5.18178,5.83049c3.50931,4.61554 4.58907,9.98565 1.38017,12.42546c-1.41255,1.074 -4.14959,3.17693 -7.11311,1.36176z"/></g><path d="M226.18837,192.58324l-7.15937,12.03766" fill="none" fill-rule="nonzero" stroke="#000000" stroke-width="4.5" stroke-linecap="round" stroke-linejoin="miter"/><path d="M215.70583,188.88207c2.23726,2.05463 1.17395,6.85291 -2.37495,10.71726c-3.54891,3.86435 -8.23951,5.33142 -10.47677,3.27679c-2.23726,-2.05463 -1.17395,-6.85291 2.37495,-10.71726c3.54891,-3.86435 8.23951,-5.33142 10.47677,-3.27679z" fill="none" fill-rule="nonzero" stroke="#000000" stroke-width="4.5" stroke-linecap="butt" stroke-linejoin="miter"/><path d="M230.10014,167.47951c1.27117,1.1674 -0.91599,5.61741 -4.88517,9.93939c-3.96917,4.32197 -8.2173,6.87925 -9.48847,5.71185c-1.27117,-1.1674 0.91599,-5.61741 4.88517,-9.93939c3.96917,-4.32197 8.2173,-6.87925 9.48847,-5.71185z" fill="none" fill-rule="nonzero" stroke="#000000" stroke-width="4.5" stroke-linecap="butt" stroke-linejoin="miter"/><g fill="#ff0000" fill-rule="nonzero" stroke="none" stroke-linecap="butt" stroke-linejoin="miter"><path d="M266.08933,207.20351c1.20014,-0.06461 2.33756,0.7369 2.5405,1.79022c0.20294,1.05331 -0.60547,1.95957 -1.80561,2.02418c-1.20014,0.06461 -2.33757,-0.73689 -2.54051,-1.79021c-0.20294,-1.05331 0.60547,-1.95958 1.80562,-2.02418z" stroke-width="NaN"/><path d="M270.2932,204.4079c1.10413,-0.05944 2.14546,0.65136 2.32584,1.58765c0.18038,0.93628 -0.56845,1.74348 -1.67259,1.80291c-1.10413,0.05944 -2.14546,-0.65139 -2.32584,-1.58768c-0.18038,-0.93628 0.56846,-1.74346 1.67259,-1.8029z" stroke-width="0"/><path d="M274.80351,207.30536c1.15214,-0.06202 2.23239,0.64669 2.41276,1.58297c0.18038,0.93628 -0.60738,1.74557 -1.75953,1.80759c-1.15214,0.06202 -2.23238,-0.6467 -2.41276,-1.58298c-0.18038,-0.93628 0.60737,-1.74557 1.75951,-1.80758z" stroke-width="0"/><path d="M258.69208,202.96039c-0.13464,0.77007 -1.09556,1.23885 -2.14633,1.04703c-1.05076,-0.19182 -1.79343,-0.97158 -1.65878,-1.74165c0.13464,-0.77007 1.09557,-1.23885 2.14634,-1.04704c1.05076,0.19182 1.79342,0.97158 1.65877,1.74166z" stroke-width="NaN"/><path d="M260.70225,206.43523c-0.12386,0.70847 -0.98142,1.14459 -1.91543,0.97408c-0.93401,-0.1705 -1.59076,-0.88305 -1.46689,-1.59152c0.12386,-0.70847 0.98143,-1.14457 1.91544,-0.97408c0.93401,0.1705 1.59075,0.88304 1.46688,1.59152z" stroke-width="0"/><path d="M263.11405,204.28558c-0.14001,0.80088 -0.97914,1.31766 -1.87422,1.15426c-0.89508,-0.16339 -1.50718,-0.9451 -1.36716,-1.74598c0.14001,-0.80088 0.97914,-1.31765 1.87423,-1.15425c0.89508,0.16339 1.50717,0.94508 1.36716,1.74596z" stroke-width="0"/><path d="M263.0231,217.37254c1.19865,0.24392 1.99771,1.27033 1.78474,2.29257c-0.21298,1.02223 -1.35734,1.65317 -2.556,1.40925c-1.19865,-0.24392 -1.9977,-1.27032 -1.78473,-2.29255c0.21298,-1.02223 1.35733,-1.65319 2.55599,-1.40926z" stroke-width="NaN"/><path d="M268.22524,215.85867c1.10277,0.22441 1.84326,1.14291 1.65395,2.05157c-0.18931,0.90863 -1.23675,1.46332 -2.3395,1.23892c-1.10277,-0.22441 -1.84327,-1.14293 -1.65396,-2.05156c0.18931,-0.90863 1.23675,-1.46333 2.33952,-1.23892z" stroke-width="0"/><path d="M257.0012,212.24403c-0.4324,0.67579 -1.55505,0.8649 -2.50747,0.4224c-0.95243,-0.4425 -1.37398,-1.34906 -0.94158,-2.02484c0.4324,-0.67579 1.55503,-0.86489 2.50747,-0.42239c0.95243,0.4425 1.37399,1.34904 0.94159,2.02482z" stroke-width="NaN"/><path d="M253.3898,216.85216c-0.41512,0.64876 -1.43793,0.8558 -2.28455,0.46247c-0.84662,-0.39333 -1.19641,-1.23811 -0.7813,-1.88686c0.41512,-0.64876 1.43793,-0.85581 2.28455,-0.46248c0.84662,0.39333 1.19641,1.23812 0.7813,1.88687z" stroke-width="0"/><path d="M260.80714,214.58373c-0.4497,0.70281 -1.47197,0.96698 -2.2833,0.59004c-0.81133,-0.37694 -1.1045,-1.25227 -0.6548,-1.95508c0.4497,-0.70281 1.47198,-0.96699 2.28331,-0.59004c0.81133,0.37694 1.10449,1.25227 0.65478,1.95509z" stroke-width="0"/></g></g></g></svg>