<svg version="1.1" xmlns="http://www.w3.org/2000/svg" xmlns:xlink="http://www.w3.org/1999/xlink" width="67.95836" height="120.18459" viewBox="0,0,67.95836,120.18459"><defs><linearGradient x1="220.77165" y1="176.46534" x2="232.73442" y2="181.292" gradientUnits="userSpaceOnUse" id="color-1"><stop offset="0" stop-color="#bebebe"/><stop offset="1" stop-color="#737373"/></linearGradient></defs><g transform="translate(-200.23237,-123.84984)"><g data-paper-data="{&quot;isPaintingLayer&quot;:true}" stroke-miterlimit="10" stroke-dasharray="" stroke-dashoffset="0" style="mix-blend-mode: normal"><g><g stroke-width="1.2"><path d="M241.24808,191.06582l3.82649,35.7578c0,0 6.25751,2.04113 5.01849,10.93788c-0.07064,0.50719 -0.46503,2.98602 -3.16541,3.08895c-2.58641,0.09859 -7.44437,-2.1491 -9.21755,-2.98561c-0.82356,-0.38852 -2.01416,-1.50492 -2.66963,-3.08332c-0.65994,-1.58922 -0.32409,-3.58842 -0.18498,-4.72505c0.05665,-0.46296 -2.70698,-37.11422 -2.70698,-37.11422" fill="#ffffff" fill-rule="evenodd" stroke="#9b9b9b" stroke-linecap="round" stroke-linejoin="round"/><path d="M241.88956,190.28728c0.49811,3.4781 3.17544,22.84005 3.17544,22.84005c0,0 1.56019,6.40479 1.61354,8.13435c0.06143,1.99192 0.23884,3.43451 0.23884,3.43451l-0.73008,-1.71822c0,0 0.47416,1.1891 0.63907,1.87018c0.51377,2.12172 0.90919,3.72495 0.90919,3.72495c0,0 -6.30443,-2.11392 -9.13535,0.14353c-2.83093,2.25746 -2.2556,7.92824 -2.2556,7.92824c0,0 -4.59886,-2.15768 -4.53097,-5.91165c0.01673,-0.92545 1.07679,-3.43616 1.07679,-3.43616c0,0 -0.55857,0.02193 -0.49987,-0.60751c0.01394,-0.14956 -1.10581,-32.40488 -1.00812,-33.10628c0,0 10.39251,-4.09648 10.50714,-3.29597z" fill="#9b9b9b" fill-rule="nonzero" stroke="#767676" stroke-linecap="butt" stroke-linejoin="miter"/></g><g><g fill="none" fill-rule="nonzero" stroke="none" stroke-width="1" stroke-linecap="butt" stroke-linejoin="miter" font-family="sans-serif" font-weight="normal" font-size="12" text-anchor="start"/><path d="M230.2402,201.5255c-1.4401,-0.34788 -3.14006,-1.1142 -3.94935,-2.29781c-1.04404,-1.52689 -1.0158,-3.636 -1.33001,-5.26186c5.91673,1.52603 12.97065,0.24161 18.15192,-2.6162c-0.13363,1.11904 0.20057,6.10667 -1.91962,7.87192c-1.41073,1.17457 -5.7876,2.9636 -6.90335,3.21913c-2.16543,0.49596 -3.72358,-0.83647 -4.04956,-0.9152z" fill="#9b9b9b" fill-rule="evenodd" stroke="#767676" stroke-width="1.2" stroke-linecap="round" stroke-linejoin="round"/></g><g stroke-width="1.2"><g fill-rule="evenodd" stroke-linecap="round" stroke-linejoin="round"><path d="M233.64637,199.03938c0,0 -2.84309,37.1711 -3.36189,37.29378c-1.48883,0.35207 -9.64778,-2.80064 -9.64778,-2.80064l5.24455,-37.37208" data-paper-data="{&quot;index&quot;:null}" fill="#ffab19" stroke="#001026"/><path d="M234.90299,198.44014c0,0 -0.66415,7.86031 -0.86031,12.028c-0.18814,3.99744 -0.29363,12.48883 -0.29363,12.48883c0,0 0.79756,6.17005 0.01781,7.69158c-0.36114,0.70474 -0.64573,-3.4835 -0.64573,-3.4835c0,0 0.31769,4.7216 0.34897,5.13778c0.21826,2.90368 -0.77779,6.71679 -3.38789,7.07905c-2.86571,0.39773 -7.61663,0.84695 -10.06577,-1.45031c-1.04207,-0.97745 -2.45361,-3.85474 -2.0737,-6.91983c0.42843,-3.45663 2.7292,-7.07781 2.7292,-7.07781l-2.11413,3.9473c0,0 -0.02204,-1.97095 0.32196,-3.41675c0.38631,-1.62362 1.88374,-5.85353 1.88374,-5.85353l4.53936,-23.80519" data-paper-data="{&quot;index&quot;:null}" fill="#9b9b9b" stroke="#767676"/></g><path d="M233.09103,236.3431c-0.07762,2.28139 -0.71084,4.93202 -2.08526,6.30842c-1.37951,1.3815 -9.67044,0.83401 -10.95217,-0.85436c-1.21722,-1.60341 -1.71304,-4.5669 -1.63728,-6.7935c0.15554,-4.57122 3.56667,-7.97711 7.61899,-7.60722c4.05229,0.36988 7.21127,4.37546 7.05572,8.9467z" fill="#ffffff" fill-rule="nonzero" stroke="#9b9b9b" stroke-linecap="butt" stroke-linejoin="miter"/></g><g fill="none" fill-rule="nonzero" stroke="none" stroke-width="1" stroke-linecap="butt" stroke-linejoin="miter" font-family="sans-serif" font-weight="normal" font-size="12" text-anchor="start"/></g><path d="M216.96594,196.01174c1.19295,-1.67619 17.41984,-17.29331 17.41984,-17.29331l19.17352,15.68678" fill="none" fill-rule="nonzero" stroke="#000000" stroke-width="6" stroke-linecap="round" stroke-linejoin="miter"/><path d="M224.24648,192.86162c0,0 3.17788,-6.1786 2.57338,-7.94684c-0.14785,-0.43249 -2.60747,7.18261 -3.13834,6.80087c-2.53154,-1.8204 -8.44362,-3.00602 -8.44362,-3.00602c0,0 8.69551,-6.86273 12.35166,-9.94846c1.0095,-0.852 5.57577,-1.15253 5.85566,-1.41038c0.36148,-0.33302 17.00452,7.96528 17.00452,7.96528c0,0 -4.60501,3.64468 -4.3965,6.78232c0.00148,0.02229 -4.61583,-8.75421 -4.5926,-8.40469c0.13916,2.09397 1.47873,7.66561 1.47873,7.66561c0,0 -5.53532,1.62661 -8.33355,1.8986c-3.08477,0.29984 -10.35936,-0.39627 -10.35936,-0.39627z" fill="#ffffff" fill-rule="nonzero" stroke="#9b9b9b" stroke-width="2.5" stroke-linecap="butt" stroke-linejoin="miter"/><path d="M243.51895,186.10515c0,0 -14.65604,-5.35375 -16.78298,-7.37047c-0.98842,-0.93721 2.98357,-1.0524 2.98357,-1.0524c0,0 -1.72642,0.51005 1.11745,0.89118c1.69981,0.22781 5.79097,1.01549 7.22914,0.94264c4.59687,-0.23286 6.16677,0.65984 6.16677,0.65984z" fill="#767676" fill-rule="nonzero" stroke="#191919" stroke-width="1.5" stroke-linecap="butt" stroke-linejoin="miter"/><path d="M219.68124,139.55265c0.34607,4.30829 -3.39138,8.1236 -8.34783,8.52173c-4.95645,0.39813 -9.25498,-2.77169 -9.60104,-7.07998c-0.34607,-4.30829 3.39138,-8.1236 8.34783,-8.52173c4.95645,-0.39813 9.25498,2.77169 9.60104,7.07998z" fill="#000000" fill-rule="nonzero" stroke="#191919" stroke-width="3" stroke-linecap="butt" stroke-linejoin="miter"/><g stroke-linejoin="miter"><g data-paper-data="{&quot;index&quot;:null}" stroke-linecap="butt"><path d="M265.94072,159.05481c-3.11075,12.96386 -17.41313,21.1516 -31.94528,18.28786c-14.53213,-2.86375 -23.79099,-15.69455 -20.68021,-28.65843c3.11075,-12.96386 17.41313,-21.1516 31.94528,-18.28786c14.53213,2.86375 23.79099,15.69455 20.68021,28.65843z" fill="none" fill-rule="nonzero" stroke="#000000" stroke-width="4.5"/><g><g fill-rule="nonzero"><path d="M227.67075,135.6303l0.00995,0.01014" data-paper-data="{&quot;index&quot;:null}" fill="#ffab19" stroke="#000000" stroke-width="5"/><g data-paper-data="{&quot;index&quot;:null}" fill="none" stroke="none" stroke-width="1" font-family="sans-serif" font-weight="normal" font-size="12" text-anchor="start"/></g><path d="M227.67075,135.6303l0.00995,0.01014" data-paper-data="{&quot;index&quot;:null}" fill="#ffab19" fill-rule="nonzero" stroke="#000000" stroke-width="5"/><path d="M239.04421,154.98889" fill="#001026" fill-rule="evenodd" stroke="#000000" stroke-width="5"/><g data-paper-data="{&quot;index&quot;:null}" fill="none" fill-rule="nonzero" stroke="none" stroke-width="1" font-family="sans-serif" font-weight="normal" font-size="12" text-anchor="start"/><g data-paper-data="{&quot;index&quot;:null}" fill="none" fill-rule="nonzero" stroke="none" stroke-width="1" font-family="sans-serif" font-weight="normal" font-size="12" text-anchor="start"/></g></g><path d="M254.79589,137.25313l-38.66045,11.71372l-3.54817,13.46723c0,0 -6.0199,-19.19935 1.69729,-25.02734c2.94307,-2.2226 17.8839,-14.85634 28.50033,-11.49012c14.95325,4.74132 19.49297,13.20148 19.49297,13.20148z" fill="#000000" fill-rule="nonzero" stroke="#191919" stroke-width="3" stroke-linecap="round"/></g><g fill-rule="nonzero" stroke-linejoin="miter"><path d="M242.55322,153.05972c0,0 1.61562,3.39612 0.23175,7.5366c-0.13822,0.41356 -1.80686,2.93019 -3.19927,3.00018c-2.0635,0.10372 -4.07361,-2.41053 -4.08595,-2.75006c-0.0468,-1.2886 0.2559,-2.65688 -0.34532,-5.25282c-0.43548,-1.88037 7.39879,-2.53391 7.39879,-2.53391z" data-paper-data="{&quot;index&quot;:null}" fill="#000000" stroke="none" stroke-width="0" stroke-linecap="butt"/><path d="M233.42198,154.01531l8.12711,-0.82002" fill="none" stroke="#000000" stroke-width="2.5" stroke-linecap="round"/></g><g fill-rule="nonzero" stroke-linejoin="miter"><path d="M259.60049,151.2262c0,0 1.61562,3.39612 0.23175,7.5366c-0.13822,0.41356 -1.80686,2.93019 -3.19927,3.00018c-2.0635,0.10372 -4.07361,-2.41053 -4.08595,-2.75006c-0.0468,-1.2886 0.2559,-2.65688 -0.34532,-5.25282c-0.43548,-1.88037 7.39879,-2.53391 7.39879,-2.53391z" data-paper-data="{&quot;index&quot;:null}" fill="#000000" stroke="none" stroke-width="0" stroke-linecap="butt"/><path d="M258.59635,151.36178l-8.12711,0.82002" fill="none" stroke="#000000" stroke-width="2.5" stroke-linecap="round"/></g><path d="M238.99618,166.26297c0.11325,9.00606 -5.12017,10.34815 -7.11353,11.37091c-1.99336,1.02276 -6.73595,-1.20023 -6.8492,-10.20629c-0.00601,-0.4779 13.96095,-1.30655 13.96273,-1.16462z" fill="#ff0000" fill-rule="nonzero" stroke="#000000" stroke-width="1.5" stroke-linecap="butt" stroke-linejoin="miter"/><g fill-rule="nonzero" stroke-linecap="butt" stroke-linejoin="miter"><g data-paper-data="{&quot;index&quot;:null}" stroke="none" stroke-width="1"><path d="M220.62378,182.39619c-0.16141,-0.15621 -0.1424,-0.30545 -0.08884,-0.47425c0.10624,-0.25791 0.26362,-0.48541 0.38698,-0.73313c-0.02488,-0.075 -0.04974,-0.15 -0.08338,-0.21013c-0.65452,-1.31242 -0.67332,-2.60794 -0.46003,-3.9059c0.04626,-0.2735 0.07546,-0.5572 0.21581,-0.79478c0.02634,-0.04454 0.04435,-0.11411 0.02774,-0.16413c-0.09123,-0.27501 0.0228,-0.46808 0.12857,-0.68615c0.08819,-0.18835 0.21052,-0.35643 0.3158,-0.53463c0.0614,-0.10395 0.15694,-0.18761 0.30322,-0.20099c0.14625,-0.01334 0.26764,-0.10171 0.3802,-0.17523c0.59029,-0.49177 1.2737,-0.86798 2.03319,-1.13874c0.43143,-0.14476 0.87895,-0.19971 1.34352,-0.24447c1.36795,-0.12963 2.71403,0.12908 4.03094,0.67146c0.58994,0.25053 1.1531,0.58546 1.68116,0.97976c0.40029,0.29828 0.70507,0.68024 0.98403,1.06687c0.88756,1.23027 1.27539,2.56464 1.28443,3.95471c0.00539,0.26411 -0.0579,0.52745 -0.12122,0.79082c-0.0365,0.17895 -0.04719,0.35322 0.07079,0.54382c0.10969,0.16559 0.09902,0.33984 0.04544,0.50863c-0.10624,0.25791 -0.24659,0.49552 -0.38698,0.73313c-0.04387,0.07427 -0.11309,0.11338 -0.18233,0.15247c-0.27638,0.11657 -0.45919,0.30889 -0.61659,0.53638c-0.31533,0.4948 -0.78376,0.85835 -1.23514,1.23207c-0.17356,0.13761 -0.3641,0.26509 -0.58005,0.35743c-0.69122,0.31135 -1.382,0.58285 -2.1737,0.67391c-0.13158,0.22274 -0.28902,0.45022 -0.42935,0.68785c-0.05264,0.08912 -0.11405,0.19306 -0.25152,0.19154c-0.1204,0.00865 -0.15601,0.10792 -0.2086,0.19702c-0.36794,0.58388 -0.71884,1.17791 -1.08679,1.76179c-0.79783,1.31156 -1.60436,2.63801 -2.4363,3.92927c-0.8144,1.26157 -1.57755,2.55361 -2.35783,3.83547c-0.12281,0.20792 -0.27099,0.38066 -0.39377,0.58857c-0.59651,1.00986 -1.19305,2.01971 -1.80662,3.01943c-0.10526,0.17821 -0.17642,0.3767 -0.3753,0.47914c-0.06923,0.03913 -0.09602,0.12348 -0.1399,0.19774c-0.43859,0.74258 -0.90306,1.48981 -1.34168,2.23236c-0.01754,0.0297 -0.04388,0.07423 -0.0614,0.10395c-0.12328,0.24778 -0.31293,0.29552 -0.61325,0.25739c-1.00382,-0.13543 -1.89263,-0.54363 -2.66649,-1.22457c-0.19553,-0.1765 -0.3735,-0.38268 -0.51689,-0.60843c-0.1097,-0.1656 -0.1078,-0.325 -0.03716,-0.48364c0.212,-0.47597 0.40689,-0.96209 0.62764,-1.45292c0.15887,-0.34703 0.36063,-0.68861 0.46829,-1.06606c0.23336,-0.82448 0.68027,-1.54203 0.96478,-2.33605c0.16857,-0.44156 0.29428,-0.88861 0.47992,-1.32005c0.2032,-0.46111 0.36351,-0.92769 0.54083,-1.3841c0.32794,-0.82844 0.69879,-1.65144 1.00963,-2.49002c0.38296,-1.11676 0.83418,-2.19303 1.28541,-3.2692c0.15059,-0.37204 0.3011,-0.74402 0.45169,-1.11605c0.24753,-0.57525 0.50386,-1.16529 0.7514,-1.7405c0.14131,-0.31734 0.23974,-0.64009 0.38102,-0.95741c0.13305,-0.34236 0.29968,-0.62446 0.45856,-0.9715zM221.1732,182.442c0.15214,0.2109 0.32182,0.3921 0.53488,0.5389c0.36476,0.39753 0.80796,0.70127 1.25118,1.00499c0.55391,0.38963 1.15995,0.72998 1.74896,1.0602c0.67432,0.38096 1.38515,0.58298 2.12186,0.78031c0.08581,0.01089 0.17161,0.02179 0.30029,0.03813c0.07019,-0.11879 0.14033,-0.23762 0.21051,-0.35641c0.01754,-0.0297 0.01803,-0.06955 0.02727,-0.12425c-0.11944,-0.07106 -0.24768,-0.12725 -0.38469,-0.16859c-0.2311,-0.07722 -0.42757,-0.17404 -0.65866,-0.25128c-0.56458,-0.21538 -1.06734,-0.57453 -1.60559,-0.83445c-0.28183,-0.14752 -0.58114,-0.26539 -0.84542,-0.44261c-0.57099,-0.39977 -1.18579,-0.7253 -1.72163,-1.18445c-0.13605,-0.12107 -0.28916,-0.25221 -0.42521,-0.3733c-0.01561,-0.12972 -0.16971,-0.18118 -0.23748,-0.26166c-0.07607,-0.10545 -0.15217,-0.21091 -0.34863,-0.30766c0.00539,0.26411 -0.15983,0.42673 -0.19684,0.64552c0.07656,0.06562 0.09219,0.1953 0.2292,0.23664zM221.55748,183.35284c-0.31354,-0.36711 -0.40716,-0.44281 -0.64656,-0.54508c-0.08819,0.18835 -0.16763,0.36188 -0.25584,0.55024c-0.0614,0.10395 -0.03705,0.2188 0.03907,0.32428c0.05074,0.07033 0.13603,0.12104 0.18676,0.19134c0.19456,0.25622 0.45838,0.47328 0.74017,0.62081c0.07563,0.14528 0.21209,0.2265 0.34864,0.3077c0.75914,0.47155 1.49251,0.94781 2.29552,1.34514c0.35886,0.17329 0.72648,0.33174 1.08579,0.46515c0.2911,0.09285 0.59921,0.19582 0.90927,0.1394c0.11404,-0.19308 0.22803,-0.38613 0.34211,-0.57921c-0.15405,-0.0515 -0.29108,-0.09286 -0.41097,-0.12404c-0.54799,-0.16539 -1.07845,-0.36044 -1.57383,-0.61494c-0.64064,-0.32083 -1.23745,-0.7159 -1.84304,-1.09612c-0.29013,-0.17254 -0.51055,-0.42402 -0.8094,-0.58171c-0.09219,-0.19529 -0.25406,-0.31165 -0.40763,-0.40299zM213.91005,201.14034c0.18627,0.23119 0.41639,0.38814 0.66406,0.51536c0.00828,0.02498 0.03366,0.06016 0.05075,0.07031c0.41833,0.22874 0.85421,0.42777 1.3086,0.51739c0.26574,0.05771 0.52266,0.13023 0.78977,0.06834c0.49126,-0.83166 0.98245,-1.6633 1.50008,-2.5395c-0.50604,-0.08024 -0.95953,-0.24954 -1.40413,-0.43372c-0.39348,-0.15373 -0.70845,-0.40127 -1.08436,-0.58471c-0.13652,-0.08117 -0.24723,-0.16707 -0.38375,-0.24827c-0.16089,-0.19604 -0.35644,-0.37253 -0.60362,-0.53962c-0.26317,0.44555 -0.37227,0.94255 -0.58376,1.37869c-0.2032,0.46112 -0.38934,0.93241 -0.58374,1.37867c0.09218,0.19529 0.21114,0.3062 0.33015,0.41709zM215.24664,197.90162c0.07564,0.14527 0.20336,0.24136 0.33986,0.32251c0.10142,0.14062 0.26381,0.21712 0.4086,0.3233c0.46907,0.29902 0.98199,0.52381 1.49536,0.70872c0.30811,0.10298 0.63381,0.17624 0.96042,0.16981c0.03511,-0.0594 0.08724,-0.10865 0.12231,-0.16808c0.42988,-0.72771 0.85093,-1.4405 1.29782,-2.15806c0.47322,-0.76209 0.93766,-1.50935 1.4109,-2.27143c0.68375,-1.11854 1.37584,-2.21201 2.05957,-3.33056c0.77978,-1.24202 1.49957,-2.49965 2.31349,-3.72136c0.13989,-0.19775 0.25436,-0.43069 0.38598,-0.65344c-0.22279,-0.05222 -0.44606,-0.0646 -0.65133,-0.14655c-0.67623,-0.22156 -1.31689,-0.5424 -1.94002,-0.8929c-0.54606,-0.32477 -1.08339,-0.6644 -1.6207,-1.00405c-0.20432,-0.16165 -0.4003,-0.29828 -0.60462,-0.45993c-0.08386,-0.17029 -0.25502,-0.23194 -0.374,-0.34284c-0.13605,-0.12107 -0.23747,-0.26164 -0.4169,-0.34828c-0.12186,0.12822 -0.15792,0.26734 -0.20224,0.38142c-0.32985,0.98787 -0.805,1.90935 -1.18603,2.86675c-0.24802,0.6151 -0.49606,1.23016 -0.72697,1.8554c-0.32794,0.82844 -0.63003,1.65216 -0.94917,2.46575c-0.25724,0.66978 -0.51454,1.33956 -0.78889,1.99918c-0.28362,0.71433 -0.5755,1.40365 -0.87614,2.10785c-0.26556,0.64477 -0.53989,1.30443 -0.79716,1.9742c0.1448,0.10617 0.19457,0.25619 0.33985,0.32253zM232.70117,181.39124c-0.45435,-0.08962 -0.84786,-0.24338 -1.25006,-0.38223c-0.4193,-0.14903 -0.8303,-0.27302 -1.2408,-0.43692c-0.39348,-0.15375 -0.78647,-0.34734 -1.17113,-0.51594c-0.40177,-0.17875 -0.80352,-0.35747 -1.21354,-0.56117c-0.37589,-0.18344 -0.76011,-0.39189 -1.13603,-0.57533c-0.38419,-0.20844 -0.73333,-0.47627 -1.15263,-0.6253c-0.3057,-0.3022 -0.71624,-0.4661 -1.06587,-0.69408c-0.35785,-0.25298 -0.75041,-0.48643 -1.10829,-0.73941c-0.34079,-0.24283 -0.68991,-0.51069 -1.02197,-0.76836c-0.34912,-0.26786 -0.64606,-0.58496 -1.02148,-0.80819c-0.24467,0.33613 -0.30607,0.44007 -0.32746,0.78858c0.16089,0.19604 0.32184,0.39212 0.53442,0.57871c0.26379,0.2171 0.52755,0.43418 0.79966,0.67629c0.51879,0.44905 1.02934,0.87306 1.62662,1.22829c0.40957,0.24359 0.82792,0.4723 1.20239,0.77532c0.07656,0.06562 0.17895,0.12648 0.29885,0.15767c0.2311,0.07721 0.44418,0.22406 0.64896,0.3458c0.75087,0.44658 1.55437,0.80403 2.3496,1.13647c1.04292,0.45971 2.11308,0.79515 3.20957,1.086c0.21402,0.06707 0.42806,0.13418 0.64349,0.08168c0.16574,-0.20246 0.28026,-0.4354 0.39573,-0.74797zM226.85077,175.52376c-0.25054,0.11188 -0.43287,0.26434 -0.63222,0.40666c-0.18183,0.11259 -0.30416,0.28067 -0.34117,0.49949c-0.09938,0.40245 -0.25869,0.78935 -0.48633,1.1356c-0.01754,0.0297 -0.02683,0.08438 -0.03559,0.09924c0.05901,0.09527 0.12728,0.13586 0.23894,0.14208c0.02582,-0.00468 0.06044,-0.02425 0.06923,-0.03912c0.3056,-0.40024 0.64531,-0.78013 1.01918,-1.13978c0.05217,-0.04925 0.12185,-0.12821 0.1228,-0.20792c0.07211,-0.27821 0.14419,-0.55641 0.04515,-0.89629zM224.50223,177.15724c0.28803,-0.37053 0.60146,-0.70588 0.92317,-1.01625c0.10427,-0.09851 0.14865,-0.21261 0.16761,-0.36188c0.01992,-0.22893 -0.01179,-0.44852 -0.03475,-0.68293c0.00096,-0.0797 0.0107,-0.17423 -0.10926,-0.20545c-0.23447,0.20173 -0.47721,0.37847 -0.67754,0.60044c-0.07831,0.79629 -0.07833,0.79626 -0.48232,1.51924c0.02487,0.075 0.08438,0.13045 0.21308,0.14679zM227.83177,181.12416c-0.22617,0.22672 -0.43528,0.46362 -0.64437,0.70048c-0.05217,0.04925 -0.1043,0.09851 -0.12232,0.16805c-0.02091,0.30863 -0.05884,0.60718 0.03187,0.92204c0.31005,-0.05642 0.49283,-0.24873 0.71805,-0.39576c0.11258,-0.07349 0.14815,-0.17278 0.15836,-0.30718c0.00385,-0.3188 0.04182,-0.61734 0.10563,-0.92048c0.00878,-0.01485 -0.01655,-0.05 -0.03316,-0.09998c-0.05996,-0.0156 -0.13705,-0.04136 -0.21404,-0.06708zM230.29002,177.50897c-0.36221,0.10568 -0.5962,0.26755 -0.84722,0.41927c-0.08678,0.0688 -0.11354,0.1532 -0.14034,0.23761c-0.10812,0.41733 -0.26752,0.80419 -0.50388,1.16533c-0.02633,0.04454 -0.03559,0.09924 -0.06187,0.1438c0.17895,0.1265 0.22184,0.13196 0.29201,0.01314c0.22809,-0.38616 0.53273,-0.70665 0.90513,-0.94673c0.22522,-0.14701 0.31342,-0.33538 0.34214,-0.57919c-0.00684,-0.14458 -0.00539,-0.26413 0.01407,-0.45321zM226.50714,178.3697c0.08533,0.05072 0.13748,0.00144 0.17258,-0.05794c0.24563,-0.4158 0.61897,-0.73561 0.99238,-1.05539c0.29536,-0.26583 0.42889,-0.64799 0.3659,-1.12694c-0.19839,0.06261 -0.3032,0.20098 -0.46747,0.28389c-0.33733,0.18067 -0.50398,0.46283 -0.6112,0.80046c-0.12472,0.36731 -0.23241,0.74479 -0.45951,1.05121c-0.00922,0.0547 -0.00097,0.07973 0.00733,0.10472zM229.08681,176.81344c-0.20766,0.1173 -0.36319,0.18535 -0.50161,0.26357c-0.23348,0.12205 -0.35583,0.2901 -0.41039,0.53858c-0.06429,0.34306 -0.20559,0.66039 -0.36394,0.96754c-0.04435,0.11413 -0.11453,0.23291 -0.17592,0.33685c0.07656,0.06562 0.11991,0.03121 0.13747,0.00149c0.3397,-0.37995 0.69649,-0.7497 1.11281,-1.06403c0.06092,-0.0641 0.11307,-0.11336 0.13987,-0.19775c0.03749,-0.25866 0.09205,-0.50716 0.06175,-0.84626zM228.99458,181.61505c-0.09841,0.32277 -0.30752,0.55962 -0.49956,0.80664c-0.04386,0.07425 -0.13015,0.10321 -0.13988,0.19775c-0.01898,0.14928 0.04545,0.50867 0.15421,0.75399c0.20721,-0.07746 0.34657,-0.23538 0.51137,-0.35813c0.13015,-0.10323 0.18326,-0.23216 0.16811,-0.40171c-0.01369,-0.28908 0.00672,-0.55791 0.09589,-0.82598c0.0088,-0.01485 -0.00783,-0.06485 -0.01611,-0.08983c-0.0595,-0.05545 -0.12776,-0.09606 -0.27401,-0.08267zM222.57944,179.12422c-0.0204,0.2688 -0.18663,0.51113 -0.14709,0.79554c0.12823,0.05619 0.2233,0.0124 0.32665,-0.00641c0.18964,-0.04779 0.37877,-0.05567 0.56059,-0.16828c0.05553,-0.32821 0.26508,-0.60494 0.34643,-0.93783c-0.05901,-0.09527 -0.14432,-0.14605 -0.24721,-0.16707c-0.25152,0.19159 -0.5284,0.34801 -0.8394,0.48412zM225.7221,180.0501c-0.12186,0.12822 -0.24372,0.25641 -0.39043,0.30962c-0.35389,0.13065 -0.48595,0.39332 -0.49855,0.72696c-0.00145,0.11953 -0.0541,0.20866 -0.00435,0.35867c0.2584,-0.04704 0.47435,-0.13933 0.69027,-0.23169c0.06046,-0.02425 0.09552,-0.08367 0.12232,-0.16806c0.0633,-0.26338 0.13492,-0.50173 0.19826,-0.76507c0.02634,-0.04454 0.02726,-0.12427 -0.11756,-0.23046zM224.64702,179.41073c-0.26125,0.28613 -0.5391,0.52222 -0.9013,0.62792c-0.07749,0.01411 -0.09552,0.08366 -0.1306,0.14307c-0.06188,0.14381 -0.10671,0.29779 -0.08326,0.4923c0.36175,-0.06582 0.63815,-0.18242 0.9233,-0.31383c0.09504,-0.0438 0.15599,-0.10788 0.19155,-0.20717c0.06242,-0.18363 0.1418,-0.3572 0.20416,-0.54084c0.0088,-0.01485 -0.00782,-0.06487 -0.01611,-0.08985c-0.05119,-0.03045 -0.1024,-0.0609 -0.18771,-0.11161zM231.15716,179.00804c0.01945,-0.18909 0.04773,-0.39307 0.06719,-0.58219c-0.00828,-0.02498 -0.01659,-0.05002 -0.03317,-0.09999c-0.26668,0.02199 -0.47435,0.13934 -0.6391,0.26207c-0.15248,0.53144 -0.28742,1.03313 -0.58569,1.53808c0.37927,-0.09552 0.40014,-0.4042 0.56538,-0.56679c0.19156,-0.20717 0.40843,-0.37917 0.62533,-0.5512zM226.82234,175.02521c-0.06539,-0.27969 -0.09667,-0.53913 -0.27414,-0.78514c-0.12966,0.06334 -0.25885,0.08687 -0.36268,0.14556c-0.10381,0.05869 -0.2247,0.10716 -0.28609,0.21115c-0.02773,0.16409 0.03908,0.32426 0.063,0.47896c0.02396,0.15469 0.00493,0.30398 0.09758,0.4594c0.25982,-0.1666 0.49378,-0.32842 0.76238,-0.50985zM223.39256,176.53742c0.33141,-0.40493 0.60191,-0.74579 0.87241,-1.08657c0.01754,-0.0297 0.06096,-0.0641 0.04435,-0.11411c-0.02297,-0.2344 0.00574,-0.47822 -0.15468,-0.71409c-0.19108,0.1673 -0.37339,0.31979 -0.53862,0.48242c0.02008,0.47352 -0.07975,0.91581 -0.22347,1.43239zM225.94629,182.13005c0.215,-0.01262 0.33685,-0.14083 0.47529,-0.21902c0.16429,-0.0829 0.27735,-0.19625 0.30557,-0.40022c0.04627,-0.27349 0.09252,-0.54702 0.26702,-0.76437c-0.10194,-0.10076 -0.17895,-0.1265 -0.23158,-0.03739c-0.14863,0.2126 -0.30608,0.44007 -0.52249,0.57224c-0.3032,0.20098 -0.2983,0.50498 -0.2938,0.84878zM224.44991,180.79857c-0.37098,0.12053 -0.67272,0.20196 -0.95741,0.29351c-0.0614,0.10395 -0.04531,0.19382 -0.04625,0.27349c0.0161,0.08985 -0.00239,0.19922 0.0995,0.29998c0.25793,-0.00716 0.51625,-0.05418 0.76634,-0.12616c0.06283,-0.22349 0.09985,-0.44231 0.13783,-0.74082zM226.6992,183.11966c-0.02198,-0.31409 -0.0445,-0.58837 -0.05818,-0.87744c-0.2335,0.12202 -0.45824,0.22921 -0.68295,0.33635c0.00539,0.26411 -0.01455,0.49307 0.11131,0.74847c0.23252,-0.0423 0.42264,-0.12994 0.62982,-0.20739zM227.92222,175.03713c-0.25741,-0.0327 -0.42265,0.12994 -0.61277,0.21752c-0.06046,0.02425 -0.08725,0.10864 -0.07942,0.17352c0.01465,0.20941 0.02102,0.39381 0.04443,0.58836c-0.00878,0.01485 0.02538,0.03516 0.0595,0.05547c0.24229,-0.13684 0.47619,-0.29876 0.7185,-0.43561c0.00241,-0.19923 -0.06394,-0.39923 -0.1303,-0.59924zM230.26129,177.05039c0.02822,-0.20396 0.04771,-0.39305 -0.07858,-0.60866c-0.21548,0.05249 -0.46509,0.08464 -0.65569,0.2121c-0.01022,0.1344 -0.05454,0.2485 -0.03892,0.3782c-0.00146,0.11952 -0.08872,0.22821 0.03858,0.3641c0.25056,-0.11187 0.5011,-0.22374 0.73465,-0.34576zM227.2208,183.32953c-0.01069,0.17425 0.09905,0.33985 0.19998,0.52029c0.24181,-0.09698 0.49138,-0.12921 0.68248,-0.29648c-0.06635,-0.20002 -0.05518,-0.41409 -0.17272,-0.64456c-0.24229,0.13684 -0.46749,0.28387 -0.70975,0.42074zM230.19295,182.00671c-0.17497,0.25716 -0.29042,0.5698 -0.49956,0.80666c-0.16572,0.20247 -0.11639,0.3923 0.01818,0.6329c0.21592,-0.09231 0.34657,-0.23538 0.50302,-0.38315c-0.0815,-0.36953 -0.00017,-0.70248 -0.02167,-1.05642zM222.55975,175.76116c0.07703,0.02576 0.10333,-0.0188 0.12966,-0.06334c0.13111,-0.1829 0.25392,-0.39083 0.4021,-0.56359c0.23492,-0.24158 0.15199,-0.49157 0.02664,-0.78688c-0.09556,0.08368 -0.17351,0.13762 -0.23443,0.20172c-0.15644,0.14779 -0.27002,0.30096 -0.21294,0.55568c0.02395,0.15469 -0.02092,0.30867 -0.05693,0.4478c-0.05217,0.04925 -0.13013,0.10321 -0.05408,0.20864zM221.58393,179.01381c0.1204,-0.00865 0.20671,-0.03761 0.28421,-0.05171c0.24081,-0.0173 0.371,-0.12054 0.44211,-0.31905c0.05362,-0.16878 0.16718,-0.32201 0.23782,-0.48068c0.02635,-0.04455 0.0697,-0.07896 -0.04099,-0.16487c-0.20818,0.15715 -0.45043,0.29406 -0.71805,0.39576c-0.06046,0.02425 -0.10427,0.09849 -0.13939,0.15788c-0.03605,0.13908 -0.06334,0.26338 -0.06571,0.46261zM225.50605,182.28964c0.01947,-0.18909 0.06477,-0.3829 0.02422,-0.58762c-0.26714,0.06189 -0.5338,0.08389 -0.76731,0.20588c0.01467,0.20941 -0.02187,0.38835 0.11321,0.58912c0.2155,-0.05247 0.43927,-0.07992 0.62982,-0.20741zM228.43536,176.66682c0.26712,-0.0619 0.4748,-0.17921 0.64829,-0.31682c-0.01465,-0.2094 -0.02106,-0.39379 -0.0957,-0.61881c-0.18917,0.00791 -0.34467,0.07599 -0.49187,0.16905c-0.01164,0.25394 -0.04035,0.49777 -0.0608,0.76656zM223.58376,182.0695c0.04099,0.16489 0.04831,0.26955 0.09857,0.37969c0.02488,0.075 0.05851,0.13514 0.0922,0.1953c0.21449,0.02724 0.4295,0.01462 0.61963,-0.07298c0.00241,-0.19923 0.00477,-0.39849 -0.10448,-0.60395c-0.23252,0.0423 -0.44753,0.05493 -0.70589,0.10195zM221.80932,177.422c-0.29299,0.0666 -0.49966,0.10418 -0.74098,0.16134c-0.05217,0.04925 -0.09651,0.16332 -0.09794,0.2829c-0.0185,0.10938 -0.11402,0.19305 -0.05551,0.32821c0.17991,0.04679 0.32615,0.03343 0.4729,-0.01977c0.12329,-0.24778 0.25491,-0.47052 0.42157,-0.75267zM226.92804,174.10469c0.04149,0.12502 0.08295,0.25004 0.12437,0.37503c0.04149,0.12503 0.09173,0.23515 0.13318,0.36014c0.21594,-0.09229 0.4056,-0.14006 0.53621,-0.28311c0.00144,-0.11953 -0.0834,-0.21014 -0.14238,-0.30544c-0.05901,-0.09527 -0.09173,-0.23515 -0.21992,-0.29134c-0.16383,0.04308 -0.31003,0.05641 -0.43144,0.14478zM225.63014,183.40698c-0.04881,-0.22969 -0.02884,-0.45867 -0.16349,-0.69928c-0.18963,0.04779 -0.3622,0.10568 -0.55186,0.15343c0.0488,0.22969 0.07221,0.42427 0.23318,0.62031c0.16331,-0.00322 0.3091,0.0233 0.48215,-0.07447zM224.70068,174.94743c0.26031,-0.2064 0.48598,-0.39326 0.71163,-0.58012c-0.01561,-0.12972 -0.01416,-0.24927 -0.11609,-0.35c-0.28424,0.05173 -0.49233,0.20887 -0.71754,0.3559c0.01562,0.12973 0.03124,0.25941 0.07269,0.3844c-0.01805,0.06956 0.00734,0.10469 0.04926,0.18984zM223.04882,180.82822c-0.00593,-0.22428 0.09937,-0.40248 0.03303,-0.60249c-0.27544,0.03689 -0.52503,0.06906 -0.76686,0.16607c0.05807,0.17503 -0.02969,0.3235 0.08834,0.5141c0.21448,0.02722 0.39588,-0.04553 0.64548,-0.07768zM231.19576,177.22486c-0.1721,0.01806 -0.33587,0.06113 -0.47433,0.13936c-0.00285,0.23913 -0.02282,0.46805 -0.04323,0.73686c0.19886,-0.10245 0.37145,-0.16037 0.59571,-0.22766c0.00286,-0.23912 0.01406,-0.45322 -0.07814,-0.64854zM221.47628,179.39128c-0.0458,0.23366 -0.09107,0.42748 0.00938,0.64778c0.18037,0.00693 0.33491,0.0186 0.47338,-0.05962c0.03701,-0.21881 0.09105,-0.42742 0.12855,-0.68611c-0.215,0.01262 -0.41293,0.03539 -0.61133,0.09799zM229.52342,176.23027c0.22472,-0.10716 0.46511,-0.08466 0.59573,-0.22772c-0.01465,-0.2094 -0.09856,-0.3797 -0.20829,-0.54532c-0.19793,0.02278 -0.38709,0.03066 -0.53479,0.16355c0.04926,0.18985 0.08153,0.36955 0.14736,0.6094zM227.00697,183.96494c-0.05806,-0.17502 -0.08198,-0.32968 -0.20049,-0.48044c-0.21592,0.09231 -0.46508,0.08462 -0.6474,0.23709c0.04099,0.16488 0.1083,0.28517 0.25311,0.39137c0.2067,-0.03761 0.4051,-0.1002 0.59472,-0.14801zM224.07368,174.21326c-0.0322,-0.17971 -0.08244,-0.28981 -0.17558,-0.40549c-0.18964,0.04779 -0.37977,0.13536 -0.48499,0.31358c0.04977,0.15001 0.0995,0.29996 0.14048,0.46485c0.23304,-0.08215 0.35535,-0.25021 0.5201,-0.37299zM230.55814,183.80919c-0.0585,-0.13514 -0.10878,-0.24532 -0.20237,-0.32104c-0.1901,0.08759 -0.34608,0.19556 -0.47671,0.33861c0.03266,0.13983 0.08292,0.25 0.18484,0.35074c0.20721,-0.07746 0.32951,-0.24553 0.49425,-0.36831zM223.98476,183.03041c-0.00289,0.23909 0.12487,0.33514 0.28723,0.41164c0.11944,0.07105 0.25646,0.11239 0.37785,0.02402c-0.0322,-0.17971 -0.07319,-0.34454 -0.18291,-0.51016c-0.1721,0.01806 -0.32712,0.04628 -0.48214,0.07447zM231.95041,179.49985c0.02775,-0.16409 0.09793,-0.28289 0.02234,-0.42818c-0.49043,0.04949 -0.57182,0.38239 -0.58534,0.79573c0.1906,-0.12746 0.37246,-0.24009 0.56301,-0.36754zM222.59942,181.745c0.18868,0.03197 0.33491,0.01859 0.51626,-0.05418c-0.07563,-0.14528 -0.00497,-0.30397 -0.1064,-0.44455c-0.11118,-0.04608 -0.18037,-0.00695 -0.27495,-0.003c-0.10331,0.01881 -0.20622,-0.00224 -0.26764,0.10171c0.01562,0.12973 0.03126,0.25944 0.13269,0.40003zM226.93468,178.54372c0.13507,0.20073 0.25502,0.23196 0.35101,0.10843c0.13111,-0.1829 0.2281,-0.38612 0.31628,-0.57449c0.03509,-0.05937 0.06185,-0.14382 -0.02298,-0.23441c-0.24323,0.21657 -0.4523,0.45342 -0.64435,0.70044zM227.96213,184.57313c-0.01851,0.10939 0.02343,0.19456 0.11705,0.27033c0.24962,-0.03216 0.52459,-0.02916 0.74979,-0.17617c-0.15215,-0.21089 -0.3233,-0.27258 -0.53046,-0.1951c-0.10334,0.01881 -0.23209,0.00247 -0.33638,0.10095zM229.30915,179.75518c0.23888,0.14208 0.30766,0.14278 0.3866,0.00918c0.10574,-0.21807 0.22027,-0.45096 0.25775,-0.70963c-0.29443,0.18613 -0.56301,0.36755 -0.64436,0.70045zM230.96594,182.76741c-0.08724,0.10863 -0.14863,0.21265 -0.22711,0.30641c-0.13992,0.19775 -0.13987,0.19776 0.12342,0.45473c0.09556,-0.08368 0.21693,-0.17203 0.26906,-0.22127c-0.06632,-0.20003 -0.10732,-0.36484 -0.16538,-0.53984zM229.43106,174.63009c-0.14627,0.01334 -0.31739,-0.04826 -0.4139,0.11508c0.05851,0.13515 0.1429,0.26561 0.20972,0.42574c0.17212,-0.01806 0.35248,-0.01107 0.47384,-0.09946c-0.07565,-0.14529 -0.12535,-0.29533 -0.26969,-0.44137zM229.23184,183.3215c-0.19933,0.14234 -0.4158,0.27446 -0.61515,0.4168c-0.0097,0.09454 0.00635,0.18437 0.12628,0.21557c0.23252,-0.0423 0.44853,-0.13462 0.61373,-0.29724c-0.01561,-0.12972 -0.0488,-0.22969 -0.12491,-0.33516zM231.62787,177.74277c0.12823,0.05619 0.24866,0.04756 0.36955,-0.00097c0.00096,-0.07971 0.00191,-0.1594 0.00285,-0.23911c-0.00731,-0.10469 0.00238,-0.19926 -0.08247,-0.28984c-0.10238,-0.0609 -0.20523,-0.08197 -0.31737,-0.04827c0.00639,0.18443 0.02107,0.39382 0.0274,0.57819zM228.4415,175.44634c0.17212,-0.01806 0.30178,-0.08143 0.42315,-0.16978c-0.08386,-0.17029 -0.15073,-0.33043 -0.2263,-0.47571c-0.16286,-0.03661 -0.28374,0.01188 -0.35345,0.09083c0.04926,0.18984 0.09857,0.37969 0.15657,0.55471zM232.03846,178.60904c0.00144,-0.11953 0.00288,-0.23909 -0.01272,-0.36883c-0.00829,-0.02497 -0.04244,-0.0453 -0.06783,-0.08047c-0.09458,0.00395 -0.2145,-0.02724 -0.33588,0.06113c-0.01896,0.14929 -0.07252,0.31806 -0.02328,0.50791c0.18035,0.00692 0.30125,-0.04161 0.4397,-0.1198zM232.18864,180.42419c0.11355,-0.15321 0.31883,-0.07129 0.40654,-0.21977c0.0019,-0.15937 0.06383,-0.30317 -0.00254,-0.50319c-0.16331,0.00322 -0.3096,0.01658 -0.33731,0.18068c-0.02776,0.1641 -0.12376,0.28759 -0.06669,0.5423zM229.32037,184.53807c0.12966,-0.06336 0.27639,-0.11658 0.39727,-0.16506c0.02584,-0.00469 0.02634,-0.04457 0.04384,-0.07427c-0.06779,-0.08045 -0.10922,-0.20546 -0.28915,-0.25221c-0.15547,0.06808 -0.31979,0.15095 -0.50113,0.22375c0.08436,0.13044 0.178,0.20619 0.34912,0.26786zM228.38575,174.36964c-0.04974,-0.15 -0.09074,-0.31486 -0.13221,-0.43983c-0.1799,-0.0468 -0.32617,-0.03345 -0.45534,-0.00991c-0.04434,0.11414 0.06634,0.19997 0.10829,0.28516c0.04198,0.08517 0.07512,0.18514 0.20337,0.24135c0.08581,0.01089 0.18039,0.00693 0.27594,-0.07672zM221.47257,180.41254c0.02396,0.15469 0.04832,0.26958 0.07272,0.38441c-0.0005,0.03985 0.04194,0.08518 0.05025,0.11017c0.11944,0.07105 0.23988,0.06241 0.36076,0.01387c-0.01516,-0.16956 -0.01324,-0.32897 -0.07122,-0.50395c-0.1287,-0.01632 -0.24913,-0.00768 -0.41245,-0.00448zM231.43538,183.02653c0.18233,-0.15246 0.36459,-0.30493 0.43624,-0.54328c-0.17989,-0.04679 -0.32524,-0.11315 -0.4807,-0.04509c-0.06383,0.30319 -0.06381,0.30321 0.04447,0.58835zM222.76665,182.12542c0.12343,0.45474 0.14047,0.46483 0.53542,0.499c-0.04099,-0.16489 -0.10781,-0.32497 -0.14876,-0.48986c-0.12823,-0.05619 -0.24862,-0.04754 -0.3866,-0.00921zM231.13237,176.78581c-0.01515,-0.16955 -0.04785,-0.30941 -0.14928,-0.45003c-0.04291,-0.00545 -0.11166,-0.00621 -0.1804,-0.00696c-0.05169,0.00941 -0.11215,0.03366 -0.16378,0.04305c0.01517,0.16954 0.00448,0.34382 0.09713,0.49927c0.12868,0.01633 0.26668,-0.02199 0.39632,-0.08539zM220.86093,179.1056c0.06872,0.00072 0.16333,-0.00324 0.20672,-0.03762c0.14772,-0.13291 0.20125,-0.30169 0.1783,-0.53613c-0.13748,-0.00152 -0.29153,-0.05298 -0.39539,0.00569c-0.01947,0.18909 -0.09888,0.36261 0.01036,0.56805zM225.12894,173.63681c-0.00827,-0.02497 -0.01658,-0.04999 -0.03317,-0.09999c-0.29205,-0.01312 -0.55919,0.04874 -0.82631,0.11063c-0.01021,0.13439 0.03174,0.21953 0.15946,0.31558c0.22472,-0.10716 0.46647,-0.20419 0.70002,-0.32621zM228.68728,178.58265c-0.23398,0.16187 -0.4762,0.29874 -0.60828,0.56135c-0.0088,0.01485 0.04197,0.08514 0.07608,0.10544c0.08534,0.05071 0.18868,0.03192 0.2325,-0.04235c0.16525,-0.1626 0.24516,-0.37599 0.2997,-0.62445zM230.87625,175.93108c-0.03265,-0.13985 -0.06538,-0.27971 -0.14974,-0.41017c-0.11944,-0.07106 -0.22233,-0.09209 -0.36904,-0.0389c0.06683,0.16017 0.12487,0.33516 0.20045,0.48044c0.1199,0.03118 0.21449,0.02722 0.31834,-0.03142zM225.22029,183.90572c0.23014,0.15693 0.42613,0.29362 0.69232,0.31144c0.02774,-0.16409 -0.0566,-0.29455 -0.1668,-0.4203c-0.18915,0.00792 -0.35247,0.01111 -0.52553,0.1089zM220.69484,177.20068c0.20624,0.00224 0.23204,-0.00243 0.2584,-0.047c0.10479,-0.13833 0.09842,-0.32277 0.08326,-0.4923c-0.00782,-0.06482 -0.08439,-0.13044 -0.18822,-0.07178c0.02343,0.19456 -0.15889,0.34704 -0.15343,0.61114zM225.7501,174.14672c0.24181,-0.09698 0.49189,-0.16903 0.65805,-0.41137c-0.30029,-0.03812 -0.52507,0.06904 -0.7322,0.14652c-0.02682,0.08439 0.00686,0.14453 0.07418,0.26484zM222.01186,181.2952c-0.11164,-0.00619 -0.21451,-0.02723 -0.32614,-0.03342c0.00636,0.18443 0.04736,0.34927 0.26139,0.41634c0.05997,0.0156 0.11991,0.03117 0.1721,-0.01807c0.0185,-0.10938 -0.03174,-0.21956 -0.10733,-0.36484zM230.54025,180.28671c0.15361,0.09132 0.23937,0.10226 0.29248,-0.02669c0.04435,-0.11413 0.08869,-0.22823 0.11595,-0.35249c0.00922,-0.05469 0.00146,-0.11957 -0.07559,-0.14531c-0.15646,0.14776 -0.25295,0.31113 -0.33285,0.52448zM224.23094,176.13299c-0.18233,0.15247 -0.33047,0.32525 -0.39332,0.54874c-0.00878,0.01487 0.04197,0.08513 0.05901,0.09527c0.03411,0.02028 0.09458,-0.00395 0.11213,-0.03367c0.09698,-0.2032 0.23638,-0.36114 0.22219,-0.61043zM223.11365,176.15081c0.03653,-0.17894 0.13305,-0.34235 0.12718,-0.56658c-0.19934,0.14232 -0.32998,0.28539 -0.33142,0.40494c-0.0185,0.10938 0.04974,0.15001 0.20427,0.16163zM226.98082,184.71195c0.2311,0.07722 0.47004,0.21932 0.69476,0.11216c-0.23699,-0.30147 -0.4617,-0.1943 -0.69476,-0.11216zM228.3384,181.86701c0.0341,0.02028 0.06003,0.01562 0.09412,0.0359c0.07064,-0.15865 0.21785,-0.25173 0.21146,-0.43613c-0.0936,-0.07576 -0.15359,-0.09134 -0.24865,-0.04753c-0.01021,0.13439 -0.0292,0.28364 -0.05693,0.44779zM226.36316,177.48132c-0.17399,0.17747 -0.30462,0.32054 -0.39285,0.50889c-0.01754,0.0297 -0.00097,0.07969 0.05022,0.11014c0.01709,0.01015 0.05997,0.0156 0.08581,0.01089c0.18233,-0.15246 0.28756,-0.33067 0.25679,-0.62992zM221.04577,179.45633c-0.11992,-0.03117 -0.18864,-0.03194 -0.18084,0.03292c-0.01021,0.13439 -0.00334,0.27896 0.0035,0.42352c0.0161,0.08984 0.06729,0.12029 0.15357,0.09134c0.04533,-0.19379 0.07306,-0.35793 0.02378,-0.54776zM230.15604,175.08133c0.09458,-0.00395 0.18039,0.00693 0.27497,0.00299c0.02584,-0.00467 0.04337,-0.03441 0.08678,-0.0688c-0.20473,-0.1218 -0.36615,-0.27796 -0.6231,-0.35052c0.06683,0.16017 0.11706,0.2703 0.26139,0.41633zM224.03264,179.0453c-0.07066,0.15865 -0.13255,0.30248 -0.22075,0.49084c0.25839,-0.04704 0.38853,-0.15022 0.45916,-0.30888c-0.05901,-0.09529 -0.10142,-0.1406 -0.23844,-0.18197zM229.61032,181.86083c0.00684,0.14458 -0.12376,0.28758 0.0113,0.48835c0.26171,-0.32599 0.30557,-0.40021 0.23779,-0.48069c-0.08534,-0.05071 -0.15408,-0.05151 -0.24912,-0.00768zM225.32167,176.90211c-0.33638,0.10095 -0.44159,0.27918 -0.50495,0.54254c0.34418,-0.03614 0.33044,-0.32523 0.50495,-0.54254zM231.85751,180.08675c-0.31053,0.09626 -0.40704,0.25965 -0.47817,0.45815c-0.00878,0.01485 0.01658,0.04999 0.05071,0.07029c0.05118,0.03047 0.10287,0.02104 0.1204,-0.00866c0.10481,-0.13833 0.17544,-0.29698 0.30703,-0.51975zM230.56111,182.12531c-0.02775,0.16409 -0.09841,0.32277 0.01083,0.52816c0.13893,-0.11807 0.2008,-0.26187 0.25392,-0.39081c-0.07607,-0.10545 -0.15308,-0.13117 -0.26475,-0.13738zM232.59645,179.38235c-0.04051,-0.20472 0.05599,-0.36807 -0.07957,-0.52897c-0.17399,0.17747 -0.17399,0.17746 -0.10911,0.49701c0.04291,0.00545 0.08581,0.01088 0.18867,0.03194zM227.62378,184.13103c0.26522,0.09752 0.46364,0.03492 0.65376,-0.05269c0.00144,-0.11953 -0.06683,-0.16017 -0.14432,-0.14605c-0.15548,0.06809 -0.32809,0.12599 -0.5094,0.19876zM231.50241,176.74495c0.11118,0.04606 0.20526,0.08195 0.30906,0.02329c-0.02439,-0.11483 -0.04878,-0.22972 -0.14238,-0.30542c-0.09409,-0.03591 -0.16284,-0.03662 -0.23209,0.00247c-0.00971,0.09454 0.01516,0.16955 0.0654,0.2797zM226.20343,180.75781c0.12137,-0.08834 0.20817,-0.15717 0.22665,-0.26658c0.0005,-0.03985 -0.02487,-0.07501 -0.05025,-0.11016c-0.05118,-0.03047 -0.13702,-0.04136 -0.14626,0.01333c-0.05265,0.08912 -0.11405,0.19308 -0.03014,0.36341zM229.1009,174.21297c-0.12728,-0.13591 -0.30767,-0.14283 -0.46173,-0.1943c0.09073,0.31486 0.12489,0.33514 0.46173,0.1943zM222.1668,175.56759c0.19985,-0.18218 0.19985,-0.18216 0.0989,-0.36264c-0.08678,0.0688 -0.18231,0.15249 -0.0989,0.36264zM227.48121,180.97587c-0.04198,-0.08517 -0.09315,-0.11559 -0.12774,-0.09605c-0.15548,0.06809 -0.16475,0.12277 -0.0901,0.34778c0.1126,-0.07348 0.16527,-0.16261 0.2179,-0.25172zM232.50402,180.63183c-0.12919,0.02354 -0.24131,0.05719 -0.26859,0.1814c0.29935,0.1178 0.33393,0.0983 0.26859,-0.1814zM222.11546,174.83471c-0.16383,0.04308 -0.25107,0.15169 -0.3295,0.2455c-0.0351,0.05938 -0.01021,0.13442 0.12728,0.13592c0.07844,-0.09381 0.16573,-0.20247 0.20225,-0.38141zM232.46456,178.20016c-0.12186,0.12822 -0.11455,0.23291 0.00445,0.34382c0,0 0.04291,0.00544 0.05167,-0.00942c0.06969,-0.07897 0.00243,-0.19923 -0.05611,-0.33444zM225.13021,179.95898c0.11992,0.03117 0.18917,-0.00791 0.20717,-0.07746c0.01754,-0.0297 0.00096,-0.07971 -0.02438,-0.11486c-0.02538,-0.03515 -0.09407,-0.0359 -0.11161,-0.00618c-0.04338,0.03441 -0.07847,0.09379 -0.07116,0.1985zM231.20392,175.84502c0.00684,0.14457 0.04878,0.22971 0.22042,0.25147c-0.01517,-0.16954 -0.06585,-0.23986 -0.22042,-0.25147z" fill="#767676"/><path d="M221.83767,185.06467c0.53729,0.33963 1.07463,0.67929 1.62073,1.00405c0.61436,0.36538 1.26377,0.67134 1.94001,0.8929c0.21402,0.06708 0.41145,0.08419 0.65131,0.14657c-0.14037,0.23764 -0.24607,0.45566 -0.38596,0.65342c-0.80514,1.20688 -1.53374,2.47932 -2.31349,3.72135c-0.70084,1.10835 -1.3758,2.21204 -2.05957,3.33056c-0.47321,0.76211 -0.9377,1.50934 -1.41092,2.27142c-0.44692,0.71755 -0.8509,1.44051 -1.29778,2.15808c-0.03511,0.0594 -0.0702,0.11882 -0.12234,0.16806c-0.3354,0.0213 -0.63525,-0.05673 -0.96043,-0.16983c-0.51341,-0.18494 -1.02631,-0.40971 -1.49535,-0.70872c-0.15361,-0.09132 -0.31595,-0.16782 -0.40858,-0.32328c0.17115,0.06164 0.31546,0.20766 0.54703,0.24507c0.02093,-0.30862 0.22122,-0.53067 0.34453,-0.77844c0.00878,-0.01485 0.01754,-0.02969 0.0005,-0.03984c0.10035,-0.48215 0.35477,-0.91283 0.51506,-1.37942c0.0536,-0.16879 0.05598,-0.36807 0.17781,-0.49627c0.2096,-0.27671 0.22265,-0.65023 0.43226,-0.92698c0.00878,-0.01485 0.00924,-0.05471 0.02681,-0.08441c0.11545,-0.31258 0.20515,-0.62049 0.35473,-0.91281c0.19299,-0.32672 0.23193,-0.70496 0.45903,-1.01137c0.01164,-0.25394 0.15984,-0.4267 0.26558,-0.64475c0.01754,-0.0297 0.02631,-0.04459 0.04387,-0.07425c0.03893,-0.37822 0.29139,-0.64948 0.39859,-0.98711c0.10718,-0.33761 0.32553,-0.62918 0.44977,-0.95665c0.15059,-0.37203 0.24113,-0.75962 0.50291,-1.0856c0.01754,-0.0297 0.04388,-0.07426 0.04436,-0.11411c-0.00593,-0.22428 0.15058,-0.37201 0.23879,-0.56036c0.05265,-0.08912 0.13109,-0.18289 0.1496,-0.29231c0.01072,-0.17424 0.09794,-0.2829 0.1769,-0.41658c0.04386,-0.07426 0.10481,-0.13838 0.10573,-0.21806c0.01164,-0.25394 0.16858,-0.44156 0.28262,-0.63462c0.04386,-0.07426 0.10477,-0.13835 0.10575,-0.21806c0.0112,-0.21407 0.12473,-0.36732 0.22126,-0.53067c0.1579,-0.26735 0.19636,-0.60567 0.37132,-0.86282c0.04337,-0.03441 0.01852,-0.10938 0.02774,-0.1641z" fill="#87d7dc"/><path d="M221.83765,185.0647c-0.00926,0.05469 0.01564,0.12971 -0.01069,0.17427c-0.17495,0.25718 -0.23048,0.58537 -0.37131,0.86283c-0.09652,0.16335 -0.21008,0.31659 -0.22125,0.53066c-0.00096,0.07971 -0.06189,0.14382 -0.10571,0.21805c-0.11401,0.19307 -0.25394,0.39081 -0.28268,0.63462c-0.00096,0.0797 -0.07895,0.13368 -0.10572,0.21807c-0.07894,0.13364 -0.14914,0.25248 -0.1769,0.41658c-0.0185,0.10938 -0.097,0.20323 -0.14963,0.29233c-0.08819,0.18835 -0.24465,0.33614 -0.23876,0.56037c-0.0005,0.03985 -0.0268,0.0844 -0.04434,0.11411c-0.25296,0.31113 -0.35234,0.71361 -0.50289,1.08562c-0.13305,0.34235 -0.35138,0.63387 -0.44981,0.95663c-0.10717,0.33759 -0.35965,0.60889 -0.39857,0.9871c0.00827,0.02499 -0.02634,0.04456 -0.04389,0.07426c-0.11401,0.19307 -0.2539,0.39082 -0.26557,0.64479c-0.2442,0.29627 -0.28309,0.6745 -0.45905,1.01135c-0.16668,0.28216 -0.23925,0.60022 -0.35476,0.91282c-0.01754,0.0297 -0.00922,0.05474 -0.02679,0.08442c-0.2096,0.27671 -0.22265,0.65022 -0.43225,0.92698c-0.11355,0.15321 -0.10721,0.33761 -0.17783,0.49627c-0.17736,0.45641 -0.41469,0.89726 -0.51505,1.37941c-0.00878,0.01485 -0.00046,0.03987 -0.00046,0.03987c-0.12329,0.24779 -0.32364,0.46981 -0.34452,0.77845c-0.2145,-0.02723 -0.35007,-0.18815 -0.54703,-0.24508c-0.13651,-0.08117 -0.27302,-0.16241 -0.33985,-0.32258c0.05265,-0.08912 0.13109,-0.18289 0.14958,-0.2923c0.06476,-0.38289 0.26609,-0.68462 0.41617,-1.01682c0.15007,-0.33215 0.21483,-0.71507 0.45901,-1.01133c0.01164,-0.25394 0.15981,-0.42673 0.26556,-0.64478c0.01754,-0.0297 0.04386,-0.07425 0.04434,-0.11411c-0.00637,-0.18442 0.11548,-0.31258 0.17738,-0.45643c0.04386,-0.07426 0.0877,-0.14853 0.10574,-0.21806c0.10766,-0.37748 0.24113,-0.75963 0.44291,-1.10122c0.02635,-0.04455 0.07851,-0.0938 0.06188,-0.1438c0.00241,-0.19922 0.10716,-0.33761 0.19489,-0.48612c0.11355,-0.15321 0.08181,-0.37279 0.20417,-0.54083c0.15743,-0.22747 0.20367,-0.50098 0.3099,-0.75888c0.15886,-0.34704 0.24069,-0.71976 0.44247,-1.06133c0.03511,-0.0594 0.09602,-0.12351 0.08819,-0.18837c0.00195,-0.1594 0.09791,-0.28291 0.15981,-0.4267c0.07018,-0.1188 0.12328,-0.24774 0.15061,-0.37202c0.0458,-0.23366 0.12567,-0.44702 0.24848,-0.65496c0.16715,-0.322 0.23191,-0.70494 0.47608,-1.00119c0.01754,-0.0297 0.02682,-0.08437 0.04436,-0.11412c0.13305,-0.34235 0.24894,-0.69479 0.41615,-1.01676c0.19299,-0.32672 0.24946,-0.73464 0.4766,-1.04105c0.02635,-0.04455 0.01849,-0.1094 0.02774,-0.1641c0.0799,-0.21336 0.18566,-0.43142 0.35088,-0.59402c0.0941,0.03592 0.16235,0.07646 0.23939,0.10225c0.21261,0.18666 0.39982,0.33813 0.61292,0.48494z" fill="#b0eef2"/><path d="M232.70116,181.39127c-0.11547,0.31257 -0.23002,0.54551 -0.42986,0.72769c-0.20672,0.0376 -0.42073,-0.02945 -0.64351,-0.08168c-1.0877,-0.30573 -2.16665,-0.62633 -3.20956,-1.08602c-0.78644,-0.34733 -1.58997,-0.70478 -2.3496,-1.13647c-0.20476,-0.12179 -0.41788,-0.26857 -0.64896,-0.34585c-0.0941,-0.03592 -0.1965,-0.09681 -0.29886,-0.15768c-0.37448,-0.30299 -0.80159,-0.51687 -1.2024,-0.77531c-0.57146,-0.35991 -1.10784,-0.77924 -1.62662,-1.22828c-0.25501,-0.23193 -0.51882,-0.44904 -0.79969,-0.67626c-0.22134,-0.1718 -0.37351,-0.38267 -0.53443,-0.57873c0.03847,-0.33837 0.08278,-0.45245 0.32746,-0.78857c0.36664,0.23809 0.6724,0.54036 1.02148,0.80819c0.33204,0.25769 0.68114,0.52551 1.02198,0.76836c0.35785,0.25298 0.74164,0.50128 1.10827,0.7394c0.34079,0.24283 0.75135,0.40668 1.06589,0.69411c0.41931,0.14904 0.7684,0.41687 1.15263,0.62532c0.36714,0.1983 0.76011,0.39184 1.13604,0.5753c0.39299,0.19359 0.79472,0.37229 1.21355,0.56122c0.38469,0.16859 0.77766,0.36217 1.17115,0.51589c0.41051,0.16387 0.82152,0.28792 1.24082,0.43695c0.43637,0.15918 0.82981,0.31291 1.28421,0.40253z" fill="url(#color-1)"/><path d="M221.23297,184.60476c-0.07702,-0.02575 -0.1453,-0.06635 -0.23938,-0.10223c-0.16523,0.16263 -0.27925,0.35566 -0.35089,0.59403c-0.00927,0.0547 -0.00145,0.11955 -0.02775,0.16409c-0.22713,0.3064 -0.30067,0.70421 -0.47659,1.04106c-0.18422,0.31187 -0.28312,0.67448 -0.41618,1.01676c-0.01754,0.0297 -0.02681,0.08441 -0.04434,0.11411c-0.24421,0.29626 -0.28314,0.67446 -0.47612,1.00119c-0.11401,0.19307 -0.20272,0.42129 -0.24847,0.65495c-0.03604,0.13906 -0.08914,0.26806 -0.15058,0.37202c-0.07894,0.13364 -0.16618,0.24231 -0.15981,0.42673c0.0078,0.06482 -0.05313,0.12896 -0.08823,0.18836c-0.19299,0.32672 -0.28355,0.71433 -0.44244,1.06134c-0.10625,0.2579 -0.15246,0.53142 -0.3099,0.75887c-0.11355,0.15321 -0.08182,0.37277 -0.20417,0.54083c-0.10479,0.13835 -0.21834,0.29155 -0.19493,0.48612c-0.00927,0.0547 -0.03557,0.09924 -0.06186,0.14379c-0.20176,0.34155 -0.32652,0.70884 -0.44291,1.10121c-0.02682,0.08439 -0.08769,0.14851 -0.10574,0.21803c-0.07894,0.13364 -0.1837,0.27204 -0.17733,0.45642c-0.0005,0.03985 -0.02679,0.0844 -0.04434,0.1141c-0.11401,0.19307 -0.25392,0.39083 -0.26557,0.64478c-0.24419,0.29627 -0.30896,0.67919 -0.45901,1.01133c-0.15007,0.33215 -0.36013,0.64872 -0.41615,1.01676c-0.01851,0.10939 -0.097,0.2032 -0.1496,0.29232c-0.16237,-0.0765 -0.21211,-0.22647 -0.32282,-0.31238c0.2831,-0.67447 0.53161,-1.32942 0.79718,-1.97418c0.28361,-0.71433 0.57548,-1.40366 0.8761,-2.10784c0.27434,-0.65964 0.5316,-1.32943 0.78889,-1.9992c0.32794,-0.82844 0.63002,-1.65218 0.94916,-2.46577c0.24803,-0.6151 0.49609,-1.23014 0.727,-1.85538c0.38104,-0.9574 0.83912,-1.88907 1.186,-2.86675c0.0531,-0.12895 0.07209,-0.2782 0.20224,-0.3814c0.15361,0.09132 0.28084,0.22724 0.41691,0.34829c0.0678,0.08044 0.23891,0.14207 0.33159,0.29754z" fill="#87d7dc"/><path d="M215.71728,198.78354c0.37591,0.18343 0.69969,0.41612 1.08437,0.58468c0.44466,0.18419 0.89809,0.35349 1.40413,0.43374c-0.50879,0.86136 -1.00881,1.70785 -1.50004,2.5395c-0.28421,0.05174 -0.54115,-0.02083 -0.7898,-0.06836c-0.47145,-0.09977 -0.88149,-0.30351 -1.3086,-0.51739c-0.01709,-0.01015 -0.04241,-0.04528 -0.05074,-0.0703c0.20621,0.00225 0.22519,-0.147 0.26123,-0.28613c0.09011,-0.34779 0.19729,-0.68537 0.38982,-0.97224c0.03511,-0.0594 0.07017,-0.11881 0.08817,-0.18835c0.06429,-0.34308 0.25679,-0.62992 0.37227,-0.94255c0.06242,-0.18363 0.09835,-0.32274 0.04911,-0.5126z" fill="#61afb4"/><path d="M222.14371,182.47737c0.54464,0.44433 1.15068,0.78468 1.72165,1.18444c0.26425,0.17724 0.55487,0.30992 0.84547,0.44262c0.52951,0.2748 1.04096,0.6191 1.60557,0.83445c0.22233,0.0921 0.44464,0.1842 0.65869,0.2513c0.13702,0.04136 0.26521,0.09751 0.38469,0.16858c-0.00922,0.05469 -0.00974,0.09454 -0.0273,0.12427c-0.07019,0.11879 -0.14033,0.23761 -0.2105,0.35643c-0.11163,-0.00618 -0.19744,-0.01712 -0.30031,-0.03813c-0.71958,-0.18714 -1.45631,-0.38446 -2.12187,-0.78029c-0.58902,-0.33021 -1.19501,-0.67058 -1.74896,-1.0602c-0.44326,-0.30374 -0.89522,-0.59261 -1.25119,-1.00498c0.10286,0.02101 0.17895,0.12648 0.29982,0.07796c0.13062,-0.14306 0.29586,-0.30567 0.14419,-0.55641z" fill="#767676"/><path d="M221.96553,183.71592c0.30766,0.14285 0.52805,0.39434 0.80938,0.58172c0.6056,0.38024 1.21115,0.76048 1.84305,1.09612c0.51242,0.26463 1.04291,0.45968 1.57385,0.61492c0.13702,0.04136 0.27398,0.08267 0.411,0.12403c-0.12281,0.20792 -0.22805,0.38616 -0.34212,0.5792c-0.31005,0.05642 -0.6099,-0.02162 -0.90927,-0.1394c-0.35934,-0.13341 -0.73569,-0.27701 -1.08577,-0.46514c-0.80301,-0.39734 -1.53635,-0.8736 -2.29554,-1.34515c-0.13651,-0.08119 -0.27306,-0.1624 -0.34865,-0.30769c0.04386,-0.07426 0.10476,-0.13837 0.10573,-0.21806c0.01947,-0.1891 0.1418,-0.3572 0.23826,-0.52052z" fill="#767676"/><path d="M215.71728,198.78354c0.04099,0.16489 0.02198,0.31409 -0.04866,0.47276c-0.11547,0.31258 -0.30801,0.59948 -0.37226,0.94253c-0.01803,0.06956 -0.0531,0.12899 -0.08821,0.18839c-0.1842,0.3119 -0.28263,0.63461 -0.38982,0.97223c-0.02729,0.12427 -0.05501,0.28838 -0.26125,0.28613c-0.26476,-0.1374 -0.48612,-0.30916 -0.66411,-0.51536c0.07161,-0.23839 0.12619,-0.48688 0.2831,-0.67449c0.01754,-0.0297 0.02681,-0.08439 0.04434,-0.11411c0.12424,-0.32745 0.25727,-0.66978 0.39858,-0.98711c0.06188,-0.1438 0.13209,-0.2626 0.17691,-0.41658c0.04533,-0.19378 0.13351,-0.38218 0.31534,-0.49479c0.09409,0.03591 0.16236,0.07649 0.23937,0.10225c0.11944,0.07105 0.24723,0.1671 0.36666,0.23811z" fill="#87d7dc"/><path d="M226.85077,175.52376c0.082,0.32971 0.02698,0.61802 -0.04515,0.89629c-0.01803,0.06956 -0.07067,0.15866 -0.12281,0.20792c-0.3909,0.34948 -0.71359,0.73955 -1.01917,1.13977c-0.00878,0.01485 -0.04338,0.0344 -0.06922,0.03912c-0.09458,0.00395 -0.17992,-0.04677 -0.23892,-0.14207c0.01754,-0.0297 0.018,-0.06958 0.03557,-0.09927c0.22762,-0.34623 0.40402,-0.72299 0.48633,-1.1356c0.05408,-0.20865 0.15059,-0.37204 0.34118,-0.4995c0.21643,-0.13215 0.38165,-0.29477 0.63224,-0.40666z" fill="#cce5e6"/><path d="M224.50223,177.15724c-0.1287,-0.01632 -0.18818,-0.07177 -0.21307,-0.14678c0.38696,-0.73314 0.38693,-0.73314 0.48232,-1.51925c0.18327,-0.23218 0.45184,-0.41359 0.67754,-0.60043c0.13702,0.04136 0.10141,0.14058 0.10923,0.20544c0.02297,0.2344 0.05469,0.45396 0.03474,0.68293c-0.01898,0.14928 -0.06337,0.26335 -0.16763,0.36184c-0.32172,0.3104 -0.63508,0.64576 -0.92315,1.01626z" fill="#cce5e6"/><path d="M215.33357,198.53527c-0.07703,-0.02576 -0.14532,-0.06636 -0.23938,-0.10225c-0.18183,0.11261 -0.27002,0.30095 -0.31533,0.4948c-0.04481,0.15398 -0.11497,0.27277 -0.17692,0.41659c-0.14131,0.31733 -0.27434,0.65962 -0.39859,0.98709c-0.01754,0.0297 -0.0268,0.08442 -0.04436,0.11411c-0.14863,0.21261 -0.19444,0.44625 -0.28313,0.67445c-0.11898,-0.11087 -0.2209,-0.21167 -0.30478,-0.38197c0.19443,-0.44627 0.36351,-0.92772 0.58376,-1.3787c0.19443,-0.44627 0.3206,-0.93313 0.58375,-1.37867c0.26425,0.17723 0.43396,0.35841 0.59491,0.55444z" fill="#60adb2"/><path d="M227.83177,181.12416c0.07702,0.02575 0.13703,0.04137 0.21403,0.0671c0.0166,0.05001 0.02487,0.07499 0.03316,0.09998c-0.08085,0.29306 -0.10175,0.60174 -0.10562,0.9205c-0.01021,0.1344 -0.04579,0.23369 -0.15838,0.30718c-0.20814,0.15716 -0.39089,0.34948 -0.71802,0.39575c-0.09072,-0.31485 -0.06985,-0.62351 -0.03185,-0.92201c0.00922,-0.05469 0.0702,-0.11878 0.12232,-0.16805c0.20905,-0.23686 0.41822,-0.47377 0.64438,-0.70048z" fill="#cce5e6"/><path d="M230.2901,177.50898c-0.01944,0.18909 -0.02092,0.30867 -0.03114,0.44308c-0.02873,0.24382 -0.11691,0.43215 -0.34211,0.5792c-0.36412,0.26505 -0.68581,0.5755 -0.90512,0.94674c-0.07019,0.1188 -0.09602,0.12348 -0.29205,-0.01312c0.02633,-0.04456 0.03555,-0.09926 0.0619,-0.14382c0.23637,-0.36112 0.39571,-0.74797 0.50385,-1.1653c0.0356,-0.09925 0.06238,-0.18365 0.14034,-0.23765c0.26811,-0.14159 0.50209,-0.30342 0.86431,-0.40907z" fill="#cae2e3"/><path d="M226.50713,178.36972c-0.00827,-0.02497 -0.00782,-0.0649 0.00097,-0.07971c0.23588,-0.32125 0.36061,-0.68857 0.45953,-1.05121c0.10717,-0.33759 0.27386,-0.6198 0.61119,-0.80043c0.16429,-0.0829 0.27781,-0.23614 0.46748,-0.28387c0.08884,0.47425 -0.05347,0.87126 -0.36591,1.12694c-0.37338,0.31978 -0.75503,0.61455 -0.99238,1.0554c-0.04337,0.03441 -0.07849,0.09379 -0.18087,0.03292z" fill="#c9e1e2"/><path d="M229.08681,176.81344c0.03029,0.3391 -0.02425,0.5876 -0.08759,0.85095c-0.02682,0.08439 -0.07067,0.15864 -0.13989,0.19777c-0.39922,0.32449 -0.77305,0.6841 -1.11279,1.06401c-0.01754,0.0297 -0.0609,0.06411 -0.13747,-0.0015c0.0614,-0.10395 0.13158,-0.22275 0.17593,-0.33686c0.15839,-0.30715 0.29968,-0.62447 0.36394,-0.96755c0.05453,-0.24852 0.18566,-0.43141 0.41039,-0.53857c0.16429,-0.0829 0.31976,-0.151 0.52744,-0.26831z" fill="#c9e1e2"/><path d="M228.99458,181.61505c0.14628,-0.01333 0.2316,0.03741 0.31691,0.08814c0.00829,0.02497 0.00783,0.06488 0.01608,0.08984c-0.10624,0.25791 -0.13541,0.54159 -0.09584,0.82597c0.01514,0.16955 -0.03798,0.2985 -0.16813,0.40171c-0.16473,0.12276 -0.32119,0.27055 -0.51132,0.35817c-0.10875,-0.24528 -0.19028,-0.61488 -0.15421,-0.75398c0.00971,-0.09454 0.07893,-0.13366 0.1399,-0.19776c0.13207,-0.2626 0.35822,-0.48935 0.45664,-0.81206z" fill="#cae3e4"/><path d="M222.57942,179.12425c0.31098,-0.13612 0.57083,-0.30266 0.82236,-0.49425c0.1199,0.03118 0.18823,0.07179 0.24723,0.16708c-0.07255,0.31803 -0.29095,0.60961 -0.34645,0.93783c-0.18183,0.11259 -0.37097,0.12052 -0.56059,0.16832c-0.10331,0.01881 -0.19836,0.06261 -0.32662,0.00642c-0.02247,-0.27426 0.13495,-0.50171 0.16414,-0.78537z" fill="#c8e0e1"/><path d="M225.7221,180.05013c0.14481,0.10618 0.12678,0.17574 0.10877,0.24528c-0.06331,0.26338 -0.11788,0.51185 -0.19825,0.76507c-0.01803,0.06957 -0.0531,0.12898 -0.12231,0.16809c-0.21594,0.09229 -0.44896,0.17446 -0.69026,0.23166c-0.03266,-0.13983 0.00288,-0.23912 0.00433,-0.35867c0.00433,-0.35864 0.13638,-0.62126 0.49856,-0.72696c0.17259,-0.05791 0.29444,-0.18612 0.3992,-0.32449z" fill="#cbe4e5"/><path d="M224.64702,179.41073c0.08534,0.05071 0.13652,0.08117 0.18772,0.11161c-0.0005,0.03985 0.02486,0.07502 0.0161,0.08984c-0.06242,0.18363 -0.14179,0.35719 -0.20415,0.54084c-0.0356,0.09926 -0.09652,0.16336 -0.19158,0.20716c-0.28516,0.13142 -0.57866,0.23783 -0.9233,0.31383c-0.04053,-0.20471 0.02138,-0.34849 0.08326,-0.49229c0.03509,-0.05937 0.07021,-0.1188 0.13059,-0.14307c0.36221,-0.10568 0.64006,-0.3418 0.90132,-0.62792z" fill="#c8e0e1"/><path d="M221.96554,183.71592c-0.09652,0.16335 -0.21886,0.33143 -0.23,0.54556c-0.00096,0.0797 -0.0619,0.14377 -0.10574,0.21804c-0.29887,-0.15769 -0.5456,-0.36462 -0.74016,-0.62084c0.15695,-0.18761 0.2115,-0.4361 0.28262,-0.63461c0.16331,-0.00322 0.25646,0.11239 0.37637,0.14356c0.16237,0.0765 0.32424,0.19286 0.4169,0.34828z" fill="#85d5d9"/><path d="M231.15716,179.00804c-0.21692,0.17202 -0.43379,0.34406 -0.64245,0.54105c-0.17401,0.17746 -0.17784,0.49627 -0.56542,0.56676c0.29823,-0.50492 0.44196,-1.02151 0.58569,-1.53807c0.18183,-0.11259 0.38947,-0.22994 0.63909,-0.26207c0.0166,0.05001 0.02488,0.075 0.03317,0.09998c-0.0024,0.19923 -0.02185,0.38838 -0.05008,0.59228z" fill="#c6dede"/><path d="M226.82234,175.02521c-0.26861,0.18143 -0.50252,0.34327 -0.77114,0.52472c-0.08386,-0.17029 -0.0649,-0.31956 -0.0976,-0.4594c-0.02396,-0.15469 -0.09073,-0.31488 -0.06298,-0.47895c0.0614,-0.10395 0.18229,-0.15248 0.2861,-0.21113c0.10382,-0.05866 0.22474,-0.10714 0.3627,-0.14553c0.18627,0.23119 0.2175,0.4906 0.28291,0.77033z" fill="#cae3e3"/><path d="M223.39256,176.53742c0.1437,-0.51658 0.24354,-0.9589 0.23222,-1.44723c0.18233,-0.15247 0.34754,-0.31506 0.53862,-0.48238c0.15168,0.25075 0.13174,0.47971 0.15468,0.71407c-0.0005,0.03985 -0.02682,0.08441 -0.04436,0.11409c-0.27049,0.34081 -0.54099,0.68167 -0.88117,1.10142z" fill="#cae3e4"/><path d="M225.9463,182.13003c-0.03029,-0.3391 -0.03525,-0.64306 0.29379,-0.84872c0.22522,-0.14703 0.37388,-0.35965 0.52251,-0.57225c0.05264,-0.08912 0.14671,-0.05323 0.23159,0.03738c-0.17445,0.21732 -0.22075,0.49085 -0.267,0.76436c-0.02823,0.20395 -0.14128,0.31732 -0.30558,0.40024c-0.13844,0.0782 -0.25154,0.19155 -0.47533,0.21902z" fill="#c8e0e1"/><path d="M222.14372,182.47735c0.1429,0.2656 -0.01357,0.41333 -0.13592,0.5814c-0.12087,0.04849 -0.20572,-0.04207 -0.2998,-0.07796c-0.21306,-0.14678 -0.38275,-0.328 -0.53493,-0.53891c0.11355,-0.15321 0.1418,-0.35715 0.31483,-0.45492c0.0941,0.03592 0.14531,0.06636 0.21355,0.10694c0.15313,0.1312 0.30623,0.26235 0.44227,0.38343z" fill="#767676"/><path d="M224.44992,180.79856c-0.0292,0.28366 -0.07497,0.51731 -0.10367,0.76113c-0.25009,0.072 -0.50843,0.11906 -0.76636,0.12618c-0.10194,-0.10075 -0.0834,-0.21015 -0.09952,-0.29998c-0.0161,-0.08985 -0.03221,-0.17968 0.04628,-0.27349c0.24181,-0.09698 0.5523,-0.19327 0.92329,-0.31383z" fill="#c7dfe0"/><path d="M226.6992,183.11966c-0.20721,0.07746 -0.39729,0.16504 -0.6469,0.19725c-0.12585,-0.25545 -0.10589,-0.48439 -0.1113,-0.74849c0.22472,-0.10716 0.44943,-0.21435 0.68297,-0.33637c0.04783,0.3094 0.05324,0.57355 0.07524,0.88763z" fill="#c8e0e1"/><path d="M227.92223,175.03713c0.06632,0.20003 0.13265,0.4 0.1215,0.61411c-0.22522,0.14703 -0.46747,0.28388 -0.7185,0.43559c-0.03411,-0.02028 -0.06824,-0.0406 -0.05946,-0.05545c-0.02343,-0.19456 -0.0381,-0.40393 -0.04448,-0.58834c0.00096,-0.07971 0.01897,-0.14929 0.0794,-0.17352c0.20766,-0.1173 0.36412,-0.26507 0.62157,-0.23241z" fill="#c4dcdd"/><path d="M230.26129,177.05039c-0.25056,0.11187 -0.48405,0.23387 -0.73464,0.34575c-0.11017,-0.12575 -0.04,-0.24453 -0.03856,-0.36411c0.00144,-0.11953 0.02871,-0.24382 0.03891,-0.37821c0.19059,-0.12746 0.43143,-0.14471 0.65569,-0.21208c0.12629,0.21556 0.10683,0.4047 0.07857,0.60864z" fill="#c8e0e1"/><path d="M227.2208,183.32953c0.24229,-0.13684 0.45875,-0.26903 0.70977,-0.42073c0.1005,0.22028 0.08928,0.43441 0.17271,0.64457c-0.19109,0.16729 -0.44069,0.19948 -0.68247,0.29647c-0.11801,-0.19059 -0.21068,-0.34604 -0.19996,-0.52028z" fill="#c6ddde"/><path d="M230.19296,182.00669c0.02153,0.35397 -0.0598,0.68687 0.03045,1.04158c-0.15645,0.14778 -0.28711,0.29084 -0.50305,0.38314c-0.14336,-0.22575 -0.1839,-0.43047 -0.01818,-0.6329c0.20908,-0.23685 0.33286,-0.52448 0.49077,-0.79181z" fill="#b9cfd0"/><path d="M222.55975,175.76116c-0.07607,-0.10545 0.01896,-0.14929 0.037,-0.2188c0.04484,-0.15396 0.10668,-0.29774 0.05693,-0.44779c-0.04002,-0.24456 0.07349,-0.39776 0.21293,-0.55567c0.06096,-0.0641 0.13892,-0.11808 0.23446,-0.20173c0.12538,0.29531 0.20827,0.54532 -0.02663,0.78687c-0.16522,0.16264 -0.271,0.38069 -0.4021,0.56359c-0.02634,0.04454 -0.05263,0.08911 -0.1126,0.07351z" fill="#c0d8d8"/><path d="M221.58397,179.01383c-0.00637,-0.18442 0.02968,-0.32349 0.09984,-0.44231c0.03509,-0.05937 0.07893,-0.13369 0.13937,-0.15793c0.26764,-0.10172 0.49283,-0.24874 0.71804,-0.39575c0.11943,0.07107 0.0673,0.12028 0.04099,0.16488c-0.08773,0.14851 -0.1842,0.31189 -0.23781,0.48069c-0.07991,0.21335 -0.21005,0.31657 -0.44212,0.31905c-0.11164,-0.00619 -0.18916,0.00791 -0.31831,0.03141z" fill="#c1d9d9"/><path d="M225.50605,182.28964c-0.19886,0.10245 -0.40561,0.14005 -0.62983,0.20738c-0.13508,-0.20073 -0.08975,-0.39452 -0.11322,-0.58911c0.2335,-0.12202 0.50014,-0.14405 0.76731,-0.2059c0.03172,0.21956 -0.0048,0.39853 -0.02424,0.58764z" fill="#c3dbdc"/><path d="M228.43535,176.66684c0.0204,-0.26883 0.04916,-0.51265 0.0608,-0.76659c0.1472,-0.0931 0.28565,-0.17126 0.49187,-0.16905c0.08341,0.21017 0.08099,0.4094 0.0957,0.61882c-0.18233,0.15246 -0.38114,0.25493 -0.6483,0.31679z" fill="#c3dadb"/><path d="M223.58376,182.0695c0.24962,-0.03216 0.47336,-0.05961 0.69711,-0.08709c0.10926,0.20545 0.10685,0.4047 0.10446,0.60393c-0.19839,0.06263 -0.39631,0.0854 -0.61957,0.07297c-0.03364,-0.06015 -0.07558,-0.14532 -0.09218,-0.19529c-0.03268,-0.13984 -0.04003,-0.24455 -0.08978,-0.39456z" fill="#c4dbdc"/><path d="M221.80935,177.42202c-0.1667,0.28218 -0.2983,0.50496 -0.43859,0.74258c-0.14673,0.05322 -0.293,0.06655 -0.47287,0.01975c-0.05849,-0.13514 0.03701,-0.21881 0.05553,-0.32821c0.0185,-0.10938 0.05408,-0.20865 0.09791,-0.28293c0.25841,-0.04705 0.46511,-0.08466 0.75807,-0.15121z" fill="#c2d9da"/><path d="M226.92802,174.1047c0.13844,-0.0782 0.27638,-0.11661 0.41386,-0.11508c0.14528,0.06636 0.16091,0.1961 0.21992,0.29135c0.05902,0.09525 0.15261,0.17103 0.1424,0.30543c-0.12186,0.12822 -0.32026,0.19081 -0.53622,0.28318c-0.04149,-0.12502 -0.08295,-0.25004 -0.13316,-0.36017c-0.03266,-0.13983 -0.0654,-0.27969 -0.10686,-0.40471z" fill="#c5ddde"/><path d="M225.63014,183.40698c-0.17307,0.09777 -0.3359,0.06114 -0.49091,0.08935c-0.14383,-0.18591 -0.18436,-0.39062 -0.2332,-0.62032c0.18962,-0.04778 0.3793,-0.09551 0.55189,-0.15343c0.14335,0.22575 0.12344,0.45473 0.17223,0.68439z" fill="#c3dbdc"/><path d="M224.70068,174.94743c-0.04198,-0.08517 -0.05856,-0.13512 -0.07516,-0.18511c-0.02439,-0.11483 -0.04004,-0.24456 -0.07271,-0.38441c0.24229,-0.13684 0.43335,-0.30418 0.71757,-0.35591c0.10194,0.10075 0.10927,0.20546 0.1161,0.35001c-0.19984,0.18216 -0.43431,0.38386 -0.6858,0.57547z" fill="#c7dfe0"/><path d="M223.04872,180.82819c-0.24082,0.01731 -0.43092,0.1049 -0.66251,0.06753c-0.10093,-0.18047 -0.02154,-0.35394 -0.08835,-0.5141c0.26765,-0.10171 0.50845,-0.11905 0.76684,-0.16606c0.0917,0.23518 -0.00479,0.3985 -0.01593,0.61264z" fill="#c7dee0"/><path d="M221.55748,183.35281c-0.11992,-0.03117 -0.21306,-0.1468 -0.37638,-0.14355c-0.07991,0.21335 -0.15154,0.45169 -0.28263,0.63461c-0.0595,-0.05545 -0.13604,-0.12106 -0.18677,-0.19132c-0.07607,-0.10545 -0.10045,-0.22029 -0.03906,-0.32428c0.08818,-0.18834 0.1676,-0.36186 0.25585,-0.55023c0.22187,0.13193 0.31548,0.20769 0.62902,0.57479z" fill="#61acb1"/><path d="M231.27397,177.8734c-0.20721,0.07746 -0.37971,0.13535 -0.60399,0.20268c0.01164,-0.25395 0.01452,-0.49303 0.04322,-0.73686c0.15547,-0.06808 0.30225,-0.12126 0.47433,-0.13935c0.0917,0.23516 0.0893,0.43439 0.08643,0.6735z" fill="#c2dada"/><path d="M221.47628,179.39128c0.20721,-0.07746 0.39634,-0.08537 0.62014,-0.11281c-0.05453,0.24852 -0.09156,0.46733 -0.12858,0.68616c-0.1472,0.09309 -0.29299,0.06657 -0.47336,0.05962c-0.09219,-0.19529 -0.04688,-0.38914 -0.01818,-0.6329z" fill="#c1d9d9"/><path d="M229.52342,176.23026c-0.06585,-0.23986 -0.09807,-0.41955 -0.14734,-0.60942c0.13893,-0.11807 0.33685,-0.14082 0.53479,-0.16357c0.1097,0.16559 0.19359,0.33589 0.20827,0.54532c-0.15646,0.14776 -0.37101,0.12052 -0.59571,0.22771z" fill="#c6dedf"/><path d="M227.00697,183.96494c-0.19839,0.06262 -0.40512,0.10022 -0.59473,0.148c-0.14481,-0.10618 -0.21212,-0.22647 -0.25312,-0.39136c0.18233,-0.15246 0.43143,-0.14472 0.6474,-0.23709c0.11852,0.15074 0.1424,0.30542 0.20047,0.48044z" fill="#c0d7d7"/><path d="M224.07373,174.21327c-0.16474,0.12276 -0.2871,0.2908 -0.52839,0.34802c-0.04099,-0.16489 -0.09072,-0.3149 -0.14049,-0.46486c0.10528,-0.17818 0.27831,-0.27595 0.485,-0.31355c0.11019,0.12575 0.15165,0.25073 0.1839,0.43042z" fill="#c3dadb"/><path d="M221.7185,182.10406c-0.06827,-0.04061 -0.14531,-0.06634 -0.2136,-0.10693c-0.17308,0.09778 -0.2013,0.30169 -0.31483,0.45492c-0.12823,-0.05619 -0.14385,-0.18591 -0.25452,-0.27178c0.04578,-0.23366 0.20222,-0.38145 0.19681,-0.64554c0.1794,0.08665 0.25548,0.19206 0.34866,0.3077c0.0678,0.08044 0.20479,0.12182 0.23745,0.26164z" fill="#767676"/><path d="M230.55814,183.80919c-0.16474,0.12276 -0.28713,0.29084 -0.50257,0.3433c-0.10194,-0.10075 -0.13509,-0.20079 -0.18487,-0.35075c0.13063,-0.14307 0.29539,-0.26583 0.47672,-0.33861c0.10194,0.10076 0.14385,0.18591 0.21067,0.34604z" fill="#bdd3d4"/><path d="M223.98475,183.03039c0.17212,-0.01806 0.32712,-0.04625 0.48212,-0.07447c0.10971,0.1656 0.15072,0.33046 0.18293,0.51014c-0.12137,0.08834 -0.25841,0.04705 -0.37784,-0.02401c-0.1536,-0.09131 -0.30717,-0.18265 -0.28724,-0.41164z" fill="#bdd4d5"/><path d="M231.9505,179.4999c-0.19059,0.12745 -0.37243,0.24008 -0.56299,0.36753c0.01354,-0.41334 0.09493,-0.74625 0.58535,-0.79573c0.05849,0.13514 0.00539,0.26411 -0.02235,0.42818z" fill="#bbd2d3"/><path d="M222.59942,181.74498c-0.1014,-0.1406 -0.11705,-0.27031 -0.13264,-0.40002c0.0614,-0.10395 0.1643,-0.08291 0.26765,-0.1017c0.0775,-0.01411 0.16377,-0.04306 0.27495,0.003c0.1014,0.1406 0.01373,0.28908 0.10638,0.44453c-0.18134,0.07279 -0.34464,0.07599 -0.51625,0.05423z" fill="#c3dadb"/><path d="M226.93468,178.54372c0.19207,-0.247 0.38406,-0.49402 0.64437,-0.70044c0.09359,0.07574 0.06685,0.16018 0.02295,0.23439c-0.09698,0.2032 -0.21098,0.39623 -0.31625,0.57446c-0.07894,0.13364 -0.19891,0.10248 -0.35103,-0.10843z" fill="#b1c6c7"/><path d="M227.96213,184.57313c0.10427,-0.09851 0.23301,-0.08219 0.34512,-0.11583c0.20721,-0.07747 0.36955,-0.00098 0.53048,0.19511c-0.22522,0.14701 -0.50896,0.15887 -0.74976,0.1762c-0.11069,-0.08589 -0.14435,-0.14606 -0.12585,-0.25545z" fill="#bbd2d3"/><path d="M229.30915,179.75518c0.09841,-0.32277 0.36699,-0.50417 0.62728,-0.71062c-0.0204,0.26882 -0.15202,0.49157 -0.25775,0.70963c-0.06188,0.14381 -0.13064,0.1431 -0.36953,0.00097z" fill="#bad1d2"/><path d="M230.96593,182.76743c0.04926,0.18986 0.11609,0.35001 0.16537,0.53983c-0.06094,0.06411 -0.17354,0.13762 -0.26907,0.22127c-0.26331,-0.25694 -0.25454,-0.27178 -0.12344,-0.45473c0.06143,-0.10394 0.1399,-0.19777 0.22713,-0.30641z" fill="#b5cbcc"/><path d="M229.43106,174.63009c0.14432,0.14605 0.20289,0.28121 0.2614,0.41633c-0.13015,0.10323 -0.30176,0.0814 -0.47385,0.09948c-0.07563,-0.14528 -0.13408,-0.28043 -0.2097,-0.42573c0.09601,-0.12351 0.26712,-0.0619 0.42219,-0.09008z" fill="#c0d7d8"/><path d="M229.23184,183.3215c0.08481,0.09061 0.10927,0.20544 0.12491,0.33515c-0.16525,0.1626 -0.38118,0.25495 -0.61373,0.29723c-0.12823,-0.05619 -0.13603,-0.12104 -0.12629,-0.21556c0.19933,-0.14234 0.39871,-0.28464 0.61516,-0.4168z" fill="#bdd4d4"/><path d="M231.62788,177.74275c-0.02343,-0.19456 -0.02105,-0.39379 -0.04448,-0.58836c0.11213,-0.03365 0.21501,-0.01262 0.31739,0.04825c0.08482,0.09059 0.07513,0.18513 0.08246,0.28982c-0.00096,0.07971 -0.00192,0.1594 -0.00287,0.23911c-0.10385,0.05867 -0.2072,0.07748 -0.3525,0.01112z" fill="#b6cccc"/><path d="M228.4415,175.44634c-0.04925,-0.18985 -0.09025,-0.3547 -0.15661,-0.55472c0.06969,-0.07895 0.17354,-0.13765 0.35346,-0.09084c0.07564,0.14529 0.14242,0.30544 0.22631,0.47572c-0.13844,0.0782 -0.25105,0.15173 -0.42314,0.16978z" fill="#c1d9d9"/><path d="M232.03846,178.60903c-0.13844,0.0782 -0.25934,0.12674 -0.42265,0.12993c-0.04926,-0.18986 0.00435,-0.35867 0.02332,-0.50791c0.10427,-0.09851 0.22423,-0.0673 0.33587,-0.06112c0.04241,0.0453 0.07655,0.06559 0.0678,0.08043c-0.00147,0.11953 -0.00288,0.23909 -0.00434,0.35867z" fill="#b7cdce"/><path d="M232.18865,180.4242c-0.04001,-0.24457 0.03892,-0.37822 0.08373,-0.53217c0.03652,-0.17896 0.17401,-0.17746 0.33732,-0.18068c0.04926,0.18986 0.00445,0.3438 0.00252,0.50322c-0.12186,0.1282 -0.31883,0.07127 -0.42362,0.20964z" fill="#b6cccc"/><path d="M229.7264,184.35811c-0.15549,0.06807 -0.27637,0.11658 -0.40605,0.17995c-0.16237,-0.0765 -0.26476,-0.1374 -0.34035,-0.28268c0.18135,-0.07277 0.34562,-0.15568 0.50111,-0.22375c0.1799,0.04676 0.19549,0.17649 0.28914,0.25221c-0.01754,0.0297 -0.01802,0.06958 -0.04385,0.07428z" fill="#c2dada"/><path d="M228.38576,174.36962c-0.1126,0.07348 -0.19011,0.08762 -0.29299,0.0666c-0.11118,-0.04606 -0.14432,-0.14604 -0.20335,-0.24133c-0.04197,-0.08516 -0.15264,-0.17104 -0.10829,-0.28515c0.13796,-0.03834 0.28419,-0.05172 0.45535,0.00993c0.06683,0.16015 0.09951,0.30001 0.14928,0.45002z" fill="#bbd2d3"/><path d="M221.47257,180.41254c0.1633,-0.00321 0.28374,-0.01187 0.42122,-0.01039c0.05807,0.17501 0.0561,0.3344 0.07128,0.50398c-0.12087,0.0485 -0.24132,0.0572 -0.36075,-0.01391c-0.02538,-0.03515 -0.0507,-0.0703 -0.05025,-0.11017c-0.03317,-0.09998 -0.05755,-0.21488 -0.08149,-0.36957z" fill="#bbd2d3"/><path d="M231.43538,183.02653c-0.1083,-0.28516 -0.1083,-0.28517 -0.04446,-0.58834c0.15551,-0.06806 0.3008,-0.0017 0.48068,0.0451c-0.07162,0.23838 -0.27097,0.38068 -0.43622,0.54328z" fill="#adc2c3"/><path d="M222.76673,182.12545c0.12087,-0.0485 0.25842,-0.04701 0.3866,0.0092c0.05807,0.17501 0.10784,0.32495 0.14877,0.48981c-0.37784,-0.02401 -0.3949,-0.03414 -0.53543,-0.49899z" fill="#b5cbcc"/><path d="M231.13236,176.78582c-0.14673,0.05324 -0.25887,0.08685 -0.42219,0.09006c-0.09264,-0.15541 -0.06488,-0.31956 -0.09711,-0.49927c0.06046,-0.02425 0.1121,-0.03363 0.16377,-0.04307c0.05169,-0.00941 0.11163,0.00618 0.18039,0.00693c0.12727,0.1359 0.15995,0.27572 0.17512,0.44532z" fill="#bbd1d2"/><path d="M220.86095,179.1056c-0.10925,-0.20545 -0.02105,-0.39379 -0.03621,-0.56335c0.12966,-0.06334 0.25792,-0.00717 0.39542,-0.00566c0.02299,0.23439 -0.03063,0.40321 -0.17834,0.53611c-0.02634,0.04455 -0.11211,0.03366 -0.18084,0.03293z" fill="#b6cccd"/><path d="M225.12894,173.63677c-0.2335,0.12202 -0.4753,0.21902 -0.70001,0.32617c-0.11069,-0.08591 -0.15263,-0.17102 -0.1595,-0.31558c0.26712,-0.0619 0.53428,-0.12374 0.82631,-0.11063c0.01659,0.05003 0.02488,0.07501 0.03318,0.09998z" fill="#acc1c2"/><path d="M228.68728,178.58265c-0.06285,0.22351 -0.14276,0.43688 -0.29093,0.60961c-0.06096,0.0641 -0.14721,0.09307 -0.23252,0.04234c-0.03409,-0.02029 -0.08482,-0.0906 -0.07606,-0.10546c0.11452,-0.2329 0.36554,-0.38464 0.59951,-0.5465z" fill="#a7bbbb"/><path d="M230.87625,175.93108c-0.08678,0.06881 -0.19839,0.06262 -0.3271,0.04627c-0.06683,-0.16015 -0.13365,-0.32031 -0.20047,-0.48045c0.13844,-0.0782 0.24959,-0.03215 0.36904,0.03888c0.07607,0.10545 0.12585,0.25544 0.15852,0.39532z" fill="#b7cdcd"/><path d="M225.2203,183.90571c0.17308,-0.09778 0.33638,-0.10095 0.51676,-0.09404c0.11019,0.12575 0.17751,0.24605 0.16681,0.4203c-0.25741,-0.0327 -0.45342,-0.16934 -0.68357,-0.32625z" fill="#b7cece"/><path d="M220.69484,177.20068c-0.01419,-0.24925 0.16811,-0.40171 0.17047,-0.60097c0.12087,-0.04849 0.18038,0.00695 0.18821,0.07181c0.01516,0.16956 0.00446,0.34383 -0.08328,0.4923c-0.04338,0.03442 -0.05217,0.04925 -0.27546,0.03688z" fill="#b4cacb"/><path d="M225.75009,174.1467c-0.07607,-0.10543 -0.10094,-0.18044 -0.09126,-0.27499c0.20721,-0.07747 0.42314,-0.16976 0.73223,-0.14649c-0.13207,0.2626 -0.37338,0.31975 -0.64099,0.4215z" fill="#b2c8c9"/><path d="M222.01186,181.2952c0.07563,0.14528 0.12584,0.25545 0.10732,0.36484c-0.05215,0.04926 -0.11214,0.03368 -0.17212,0.01807c-0.23985,-0.06238 -0.26378,-0.21711 -0.26138,-0.41633c0.10286,0.02101 0.21454,0.02722 0.32616,0.03342z" fill="#b5cbcb"/><path d="M230.54025,180.28671c0.09697,-0.2032 0.19345,-0.36656 0.34991,-0.5143c0.09408,0.03591 0.10191,0.10074 0.0756,0.14529c-0.04435,0.11413 -0.07163,0.2384 -0.11596,0.35248c-0.07019,0.1188 -0.15597,0.10788 -0.30954,0.01653z" fill="#91a3a3"/><path d="M224.23094,176.13301c0.01419,0.24925 -0.11691,0.43216 -0.2222,0.61036c-0.01754,0.0297 -0.06923,0.03911 -0.11213,0.03364c-0.03411,-0.02028 -0.0678,-0.08044 -0.05903,-0.09531c0.07162,-0.23838 0.21978,-0.41112 0.39331,-0.54873z" fill="#767676"/><path d="M223.11365,176.15082c-0.15455,-0.01163 -0.23987,-0.06239 -0.23014,-0.15695c0.02729,-0.12427 0.14914,-0.25245 0.33142,-0.40492c0.03176,0.21958 -0.06475,0.3829 -0.10128,0.56185z" fill="#93a5a6"/><path d="M226.98082,184.71195c0.23303,-0.08215 0.45774,-0.18934 0.69476,0.11216c-0.24181,0.09697 -0.46363,-0.03493 -0.69476,-0.11216z" fill="#9aadad"/><path d="M228.33842,181.86697c0.01898,-0.14927 0.04672,-0.31335 0.05696,-0.44778c0.09506,-0.04379 0.15503,-0.02822 0.24865,0.04756c0.00638,0.18444 -0.14959,0.29235 -0.21147,0.43615c-0.03411,-0.02028 -0.05118,-0.03047 -0.09412,-0.03591z" fill="#c5dddd"/><path d="M226.36315,177.48133c0.03955,0.28439 -0.07452,0.47747 -0.25679,0.62994c-0.00878,0.01485 -0.0517,0.00942 -0.08583,-0.01089c-0.05997,-0.0156 -0.06781,-0.08044 -0.05024,-0.11014c0.07939,-0.17352 0.23591,-0.32128 0.39284,-0.50891z" fill="#aec2c3"/><path d="M221.04579,179.45633c0.04926,0.18986 0.01276,0.36879 -0.01503,0.53292c-0.09505,0.04381 -0.15457,-0.01165 -0.15362,-0.09134c-0.00685,-0.14458 -0.02246,-0.27426 -0.00346,-0.4235c-0.01659,-0.05003 0.06091,-0.0641 0.17209,-0.01806z" fill="#767676"/><path d="M230.15604,175.08133c-0.12728,-0.13592 -0.19457,-0.25617 -0.26138,-0.41634c0.25694,0.07253 0.41834,0.22872 0.6231,0.35052c-0.04339,0.03441 -0.06096,0.0641 -0.08677,0.06878c-0.09458,0.00395 -0.18036,-0.00694 -0.27493,-0.00296z" fill="#a9bebf"/><path d="M224.03264,179.0453c0.13702,0.04136 0.19647,0.09677 0.23844,0.18197c-0.07068,0.15864 -0.20082,0.26184 -0.4592,0.30888c0.07114,-0.19853 0.1501,-0.33216 0.22073,-0.49084z" fill="#b9cfd0"/><path d="M229.61032,181.86082c0.09505,-0.04379 0.1721,-0.01803 0.24912,0.00769c0.06778,0.08046 0.02394,0.15469 -0.23782,0.48068c-0.15215,-0.21089 -0.00447,-0.34383 -0.0113,-0.48838z" fill="#869797"/><path d="M225.32167,176.90211c-0.19156,0.20717 -0.16079,0.50643 -0.50495,0.54254c0.0633,-0.26338 0.18562,-0.43141 0.50495,-0.54254z" fill="#93a4a5"/><path d="M231.85751,180.08675c-0.13158,0.22274 -0.21932,0.37127 -0.30703,0.51978c-0.01754,0.0297 -0.06923,0.03912 -0.1204,0.00865c-0.01709,-0.01015 -0.04241,-0.04531 -0.05073,-0.07031c0.0711,-0.19852 0.16764,-0.36191 0.47814,-0.45814z" fill="#94a5a6"/><path d="M230.56111,182.12531c0.13747,0.00152 0.19744,0.01707 0.24769,0.12722c-0.0531,0.12895 -0.115,0.27277 -0.25393,0.39083c-0.10922,-0.20547 -0.02151,-0.35393 0.00622,-0.51803z" fill="#abbfc0"/><path d="M232.59645,179.38235c-0.10286,-0.02103 -0.14577,-0.02648 -0.17993,-0.04681c-0.06491,-0.31956 -0.06489,-0.31952 0.1091,-0.49697c0.11801,0.19059 0.03033,0.33909 0.07079,0.54377z" fill="#acc0c1"/><path d="M227.62378,184.13103c0.17259,-0.05791 0.33684,-0.14083 0.52648,-0.18859c0.0775,-0.01411 0.14577,0.02652 0.14432,0.14604c-0.20721,0.07746 -0.40558,0.14007 -0.67079,0.04253z" fill="#9fb2b2"/><path d="M231.50241,176.74495c-0.05024,-0.11019 -0.07509,-0.18517 -0.06538,-0.27969c0.06923,-0.03913 0.13796,-0.03838 0.23206,-0.00248c0.0936,0.07576 0.11799,0.19059 0.14239,0.30543c-0.08678,0.06881 -0.19791,0.02276 -0.30905,-0.02329z" fill="#aec2c3"/><path d="M226.20345,180.75779c-0.09265,-0.1554 -0.03124,-0.25943 0.0131,-0.37352c0.02634,-0.04454 0.09502,-0.04378 0.14624,-0.01334c0.03411,0.02028 0.06781,0.08046 0.05025,0.11015c-0.00144,0.11953 -0.08822,0.18838 -0.20959,0.2767z" fill="#91a2a3"/><path d="M229.1009,174.21297c-0.33686,0.14082 -0.36267,0.14557 -0.46173,-0.1943c0.15406,0.05151 0.31738,0.04827 0.46173,0.1943z" fill="#869696"/><path d="M222.1668,175.56759c-0.0834,-0.21016 0.0204,-0.2688 0.0989,-0.36264c0.1097,0.1656 0.1097,0.1656 -0.0989,0.36264z" fill="#555f5f"/><path d="M227.4812,180.97588c-0.04386,0.07427 -0.10526,0.17819 -0.21787,0.25173c-0.07464,-0.22501 -0.03954,-0.28439 0.09009,-0.34776c0.03462,-0.01954 0.08583,0.01089 0.12774,0.09605z" fill="#93a5a6"/><path d="M232.50402,180.63183c0.06539,0.2797 0.03081,0.29927 -0.26859,0.1814c0.02729,-0.12428 0.13937,-0.15793 0.26859,-0.1814z" fill="#8b9b9c"/><path d="M222.11546,174.83471c-0.03653,0.17896 -0.12376,0.28758 -0.21104,0.39627c-0.1287,-0.01632 -0.16236,-0.07652 -0.12725,-0.13591c0.07017,-0.11881 0.15742,-0.22746 0.33825,-0.26037z" fill="#767676"/><path d="M232.46456,178.20016c0.05849,0.13514 0.13459,0.24061 0.04737,0.34926c-0.0088,0.01485 -0.0346,0.01957 -0.05168,0.00943c-0.13605,-0.12107 -0.11755,-0.23047 0.00433,-0.35867z" fill="#5f6a6b"/><path d="M225.13021,179.95899c-0.0161,-0.08985 0.01898,-0.14928 0.07116,-0.19852c0.03462,-0.01954 0.08628,-0.02896 0.11163,0.0062c0.02538,0.03515 0.04197,0.08516 0.02438,0.11485c-0.03509,0.05937 -0.08725,0.10864 -0.20718,0.07745z" fill="#636e6f"/><path d="M231.20392,175.84502c0.14577,0.02651 0.22233,0.09208 0.22042,0.25147c-0.1716,-0.0218 -0.21357,-0.10692 -0.22042,-0.25147z" fill="#4a5354"/></g><g data-paper-data="{&quot;index&quot;:null}" fill="#000000" stroke="#000000" stroke-width="1.2"><path d="M207.2148,191.36652c0.49589,-1.8084 3.44117,-3.31964 4.84531,-5.09561c1.51178,-1.91208 1.43311,-3.92288 2.99693,-4.40478c1.09231,-0.33658 2.50197,0.56615 3.17729,1.12564c1.64219,1.36047 0.89188,5.09612 -1.67583,8.34378c-2.56771,3.24767 -5.9805,4.77755 -7.62267,3.41708c-0.74415,-0.6165 -2.13194,-1.88755 -1.72104,-3.38609z"/><path d="M208.76838,195.42033c0.71469,-2.51344 5.14114,-6.42777 5.14114,-6.42777c0,0 1.39717,-3.66695 1.45138,-3.73291c3.45347,-4.20444 6.33461,-1.89572 9.56821,0.78319c1.53899,1.27498 3.43689,3.82821 3.22135,5.86156c-0.24444,2.30606 -2.38775,4.03652 -4.27298,6.42095c-3.54751,4.48689 -8.51066,6.68697 -11.79502,3.96602c-1.44575,-1.19775 -4.26861,-3.51405 -3.31407,-6.87105z"/></g></g></g></g></svg>