<svg version="1.1" xmlns="http://www.w3.org/2000/svg" xmlns:xlink="http://www.w3.org/1999/xlink" width="76.47609" height="113.7277" viewBox="0,0,76.47609,113.7277"><defs><linearGradient x1="232.68762" y1="223.5092" x2="256.64092" y2="223.5092" gradientUnits="userSpaceOnUse" id="color-1"><stop offset="0" stop-color="#bebebe"/><stop offset="1" stop-color="#737373"/></linearGradient><linearGradient x1="232.68762" y1="223.5092" x2="256.64092" y2="223.5092" gradientUnits="userSpaceOnUse" id="color-2"><stop offset="0" stop-color="#bebebe"/><stop offset="1" stop-color="#737373"/></linearGradient><linearGradient x1="233.0168" y1="223.03754" x2="254.21689" y2="223.03754" gradientUnits="userSpaceOnUse" id="color-3"><stop offset="0" stop-color="#ffd166"/><stop offset="1" stop-color="#ac880b"/></linearGradient><linearGradient x1="223.23969" y1="209.08641" x2="243.9771" y2="209.08641" gradientUnits="userSpaceOnUse" id="color-4"><stop offset="0" stop-color="#ffd166"/><stop offset="1" stop-color="#ac880b"/></linearGradient><linearGradient x1="223.18285" y1="209.1691" x2="244.3536" y2="209.1691" gradientUnits="userSpaceOnUse" id="color-5"><stop offset="0" stop-color="#ffd166"/><stop offset="1" stop-color="#ac880b"/></linearGradient><linearGradient x1="212.90776" y1="225.35204" x2="233.5502" y2="225.35204" gradientUnits="userSpaceOnUse" id="color-6"><stop offset="0" stop-color="#ffd166"/><stop offset="1" stop-color="#ac880b"/></linearGradient><linearGradient x1="213.82307" y1="237.71844" x2="230.00772" y2="237.71844" gradientUnits="userSpaceOnUse" id="color-7"><stop offset="0" stop-color="#bebebe"/><stop offset="1" stop-color="#737373"/></linearGradient><linearGradient x1="213.82307" y1="237.71844" x2="230.00772" y2="237.71844" gradientUnits="userSpaceOnUse" id="color-8"><stop offset="0" stop-color="#bebebe"/><stop offset="1" stop-color="#737373"/></linearGradient><linearGradient x1="219.67006" y1="195.57374" x2="237.07526" y2="196.2024" gradientUnits="userSpaceOnUse" id="color-9"><stop offset="0" stop-color="#bebebe"/><stop offset="1" stop-color="#737373"/></linearGradient><linearGradient x1="217.00725" y1="199.12791" x2="247.4575" y2="200.22774" gradientUnits="userSpaceOnUse" id="color-10"><stop offset="0" stop-color="#bebebe"/><stop offset="1" stop-color="#737373"/></linearGradient><linearGradient x1="219.89116" y1="196.77798" x2="231.27393" y2="203.80092" gradientUnits="userSpaceOnUse" id="color-11"><stop offset="0" stop-color="#bb951b"/><stop offset="1" stop-color="#d6ad39"/></linearGradient><linearGradient x1="224.79311" y1="187.79167" x2="235.47767" y2="194.38385" gradientUnits="userSpaceOnUse" id="color-12"><stop offset="0" stop-color="#bebebe"/><stop offset="1" stop-color="#737373"/></linearGradient><linearGradient x1="224.65492" y1="194.45359" x2="229.75472" y2="197.60006" gradientUnits="userSpaceOnUse" id="color-13"><stop offset="0" stop-color="#bb951b"/><stop offset="1" stop-color="#d6ad39"/></linearGradient><linearGradient x1="224.46209" y1="195.71127" x2="228.82389" y2="198.40239" gradientUnits="userSpaceOnUse" id="color-14"><stop offset="0" stop-color="#bb951b"/><stop offset="1" stop-color="#d6ad39"/></linearGradient><linearGradient x1="224.33318" y1="193.65829" x2="225.21787" y2="194.20412" gradientUnits="userSpaceOnUse" id="color-15"><stop offset="0" stop-color="#bb951b"/><stop offset="1" stop-color="#d6ad39"/></linearGradient><linearGradient x1="224.06816" y1="193.14759" x2="224.93286" y2="193.68109" gradientUnits="userSpaceOnUse" id="color-16"><stop offset="0" stop-color="#bb951b"/><stop offset="1" stop-color="#d6ad39"/></linearGradient></defs><g transform="translate(-209.0404,-129.74955)"><g data-paper-data="{&quot;isPaintingLayer&quot;:true}" stroke-miterlimit="10" stroke-dasharray="" stroke-dashoffset="0" style="mix-blend-mode: normal"><path d="M235.21124,155.56088l-0.00607,-0.01264" data-paper-data="{&quot;index&quot;:null}" fill="#ffab19" fill-rule="nonzero" stroke="#001026" stroke-width="1.2" stroke-linecap="butt" stroke-linejoin="miter"/><g><g><g stroke-width="1.2"><path d="M243.05432,206.17306c0,0 6.88414,11.88238 7.90498,16.40543c0.69656,3.08623 -2.2386,8.10007 -2.2386,8.10007c0,0 7.43183,-0.1841 7.91355,6.59485c0.02746,0.38647 0.10564,2.28836 -2.94962,3.08525c-2.92631,0.76325 -8.94049,0.43373 -11.13913,0.30178c-1.02116,-0.06129 -2.6155,-0.55189 -3.69838,-1.52044c-1.09028,-0.97519 -1.13308,-2.51386 -1.21649,-3.3748c-0.01107,-0.11424 3.11583,-10.035 2.88633,-11.32339c-0.11544,-0.64804 -7.82934,-16.42467 -7.82934,-16.42467" fill="url(#color-1)" fill-rule="evenodd" stroke="url(#color-2)" stroke-linecap="round" stroke-linejoin="round"/><path d="M233.04698,213.61503c-0.49369,-6.94731 5.19212,-7.51203 8.16677,-7.68096c1.29349,-0.07346 8.53875,7.92801 11.39341,14.63168c0.74801,1.75656 0.52489,6.23419 0.46067,8.36689c-0.02257,0.74937 -0.78075,-0.214 -0.78075,-0.214c0,0 0.83234,0.78011 1.19522,1.49202c0.37455,0.73483 0.73459,1.89827 0.73459,1.89827l-2.22483,-0.86389c0,0 -7.63401,0.1543 -10.37945,2.54751c-2.74544,2.39321 -0.88284,6.34898 -0.88284,6.34898c0,0 -5.69978,-0.3336 -6.42142,-3.0723c-0.17791,-0.67516 0.49567,-2.77823 0.49567,-2.77823c0,0 -0.63185,0.16531 -0.69893,-0.30656c-0.02176,-0.15304 2.72001,-5.28401 4.22917,-7.99818c0.86282,-1.55177 0.87085,-1.38976 0.87085,-1.38976c0,0 -6.08701,-9.98047 -6.15815,-10.98146z" fill="url(#color-3)" fill-rule="nonzero" stroke="#caa551" stroke-linecap="butt" stroke-linejoin="miter"/></g><path d="M223.23976,207.51516c-0.01054,-0.20429 1.28232,0.39801 4.21188,0.46762c3.86484,0.09184 9.78371,-0.31902 11.44806,-0.52924c4.31594,-0.54512 5.0463,-1.99608 5.07425,-1.45455c0.1034,2.00397 -2.33784,5.71602 -7.27524,5.91963c-2.16975,0.08947 -6.60769,0.76054 -9.12081,0.05501c-3.20561,-0.89995 -4.28017,-3.33517 -4.33814,-4.45848z" fill="url(#color-4)" fill-rule="nonzero" stroke="#caa551" stroke-width="1.2" stroke-linecap="butt" stroke-linejoin="miter"/><g fill-rule="nonzero" stroke-linecap="butt" stroke-linejoin="miter"><g fill="none" stroke="none" stroke-width="1" font-family="sans-serif" font-weight="normal" font-size="12" text-anchor="start"/><path d="M223.27072,204.97522c0,0 8.95818,2.48856 13.17475,3.04156c4.21656,0.553 7.90813,-0.27655 7.90813,-0.27655c0,0 -0.29533,1.94397 -2.49418,3.57718c-1.70204,1.2642 -4.7539,2.39938 -8.37259,1.94238c-3.29672,-0.41634 -6.86446,-1.53169 -8.46744,-3.04633c-2.42964,-2.29577 -1.74867,-5.23823 -1.74867,-5.23823z" fill="url(#color-5)" stroke="#caa551" stroke-width="1.2"/></g><g stroke-width="1.2"><path d="M231.66634,211.18366c0,0 -3.38545,28.91177 -4.00322,29.0072c-1.77286,0.27385 -11.48825,-2.17835 -11.48825,-2.17835l6.24502,-29.06811" data-paper-data="{&quot;index&quot;:null}" fill="#ffab19" fill-rule="evenodd" stroke="#001026" stroke-linecap="round" stroke-linejoin="round"/><path d="M233.16258,210.71757c0,0 0.56459,7.93066 0.331,11.17232c-0.14328,1.98844 -2.19663,8.7568 -2.19663,8.7568c0,0 0.84744,4.69608 0.51274,5.12268c-0.43004,0.54814 -1.76944,-2.28444 -1.76944,-2.28444c0,0 1.37882,3.24744 1.41607,3.57113c0.25989,2.25849 -0.92617,5.22433 -4.03417,5.5061c-3.41239,0.30936 -9.06963,0.65877 -11.98598,-1.12805c-2.64023,-1.61763 -2.73384,-5.28805 -2.37935,-6.79521c0.24893,-1.0584 2.00621,-1.62861 2.36202,-2.9298c0.23659,-0.8652 -2.62924,3.06733 -2.11129,1.9139c0.15059,-0.33534 2.265,-5.6166 2.265,-5.6166c0,0 0.3138,-4.90567 0.9055,-6.72229c2.37605,-7.29486 5.25302,-13.39339 5.25302,-13.39339" data-paper-data="{&quot;index&quot;:null}" fill="url(#color-6)" fill-rule="evenodd" stroke="#caa551" stroke-linecap="round" stroke-linejoin="round"/><path d="M230.00167,238.38832c-0.08554,1.62338 -0.7833,3.50951 -2.29779,4.48893c-1.52012,0.98303 -10.65604,0.59347 -12.0684,-0.60794c-1.34127,-1.14094 -1.88764,-3.24972 -1.80416,-4.83411c0.17139,-3.25277 3.93018,-5.67632 8.39551,-5.41312c4.4653,0.2632 7.94623,3.11348 7.77482,6.36627z" fill="url(#color-7)" fill-rule="nonzero" stroke="url(#color-8)" stroke-linecap="butt" stroke-linejoin="miter"/></g></g><g fill="#004fd9" fill-rule="nonzero" stroke="#001026" stroke-width="1.2" stroke-linecap="butt" stroke-linejoin="miter" font-family="&quot;Helvetica Neue&quot;, Helvetica, Arial, sans-serif" font-weight="400" font-size="16" text-anchor="start"/></g><path d="M217.77199,208.37576c1.3331,-1.52817 18.65326,-15.17962 18.65326,-15.17962c0,0 11.29217,2.22994 15.60747,3.41329c1.53954,0.42217 5.62489,1.36619 7.69965,2.78326c2.45273,1.67522 2.79264,3.82144 2.79264,3.82144" fill="none" fill-rule="nonzero" stroke="#000000" stroke-width="6" stroke-linecap="round" stroke-linejoin="miter"/><path d="M237.10548,195.3658c-0.08894,2.46249 -3.27011,4.34644 -7.10537,4.20792c-2.04318,-0.0738 -5.75624,1.47644 -7.95862,0.18624c-1.93169,-1.13164 -2.51748,-5.07622 -2.27949,-5.73144c0.74241,-2.04381 7.56059,-2.71674 9.83524,-2.63458c3.83525,0.13852 7.59719,1.50937 7.50824,3.97186z" fill="url(#color-9)" fill-rule="nonzero" stroke="#737373" stroke-width="1" stroke-linecap="butt" stroke-linejoin="miter"/><path d="M225.10646,206.08193c0,0 3.74517,-5.7729 3.36596,-7.59874c-0.09275,-0.44658 -3.31212,6.83568 -3.77771,6.39557c-2.22024,-2.09876 -7.75234,-3.95484 -7.75234,-3.95484c0,0 12.65819,-6.01029 16.51165,-8.656c1.06398,-0.73051 5.76466,-0.01611 6.0621,-0.24013c0.38415,-0.28933 17.72706,1.54877 17.72706,1.54877c0,0 -4.03114,3.53797 -4.18648,6.67867c-0.0011,0.02231 -10.3966,-1.65503 -10.4139,-1.30516c-0.10367,2.09601 0.54952,7.78431 0.54952,7.78431c0,0 -5.48934,0.98068 -8.20203,0.9298c-2.99047,-0.05609 -9.88386,-1.58225 -9.88386,-1.58225z" fill="url(#color-10)" fill-rule="nonzero" stroke="#737373" stroke-width="2.5" stroke-linecap="butt" stroke-linejoin="miter"/><g stroke-linejoin="miter"><g data-paper-data="{&quot;index&quot;:null}" stroke-linecap="butt"><path d="M268.89432,177.2838c-4.44892,12.52074 -19.08357,19.01303 -32.68744,14.50095c-13.60385,-4.51209 -21.02537,-18.31992 -16.57644,-30.84066c4.44893,-12.52074 19.08357,-19.01302 32.68744,-14.50095c13.60385,4.51209 21.02539,18.31992 16.57644,30.84067z" fill="none" fill-rule="nonzero" stroke="#000000" stroke-width="4.5"/><g><g fill-rule="nonzero"><path d="M234.86687,149.62405l0.0084,0.01121" data-paper-data="{&quot;index&quot;:null}" fill="#ffab19" stroke="#000000" stroke-width="5"/><g data-paper-data="{&quot;index&quot;:null}" fill="none" stroke="none" stroke-width="1" font-family="sans-serif" font-weight="normal" font-size="12" text-anchor="start"/></g><path d="M234.86687,149.62405l0.0084,0.01121" data-paper-data="{&quot;index&quot;:null}" fill="#ffab19" fill-rule="nonzero" stroke="#000000" stroke-width="5"/><path d="M243.57617,170.15888" fill="#001026" fill-rule="evenodd" stroke="#000000" stroke-width="5"/><g data-paper-data="{&quot;index&quot;:null}" fill="none" fill-rule="nonzero" stroke="none" stroke-width="1" font-family="sans-serif" font-weight="normal" font-size="12" text-anchor="start"/><g data-paper-data="{&quot;index&quot;:null}" fill="none" fill-rule="nonzero" stroke="none" stroke-width="1" font-family="sans-serif" font-weight="normal" font-size="12" text-anchor="start"/></g></g><path d="M260.68068,154.34836l-38.37928,7.20003l-4.92514,12.97057l-3.9463,-34.96476c0,0 50.64409,-7.08637 61.58542,-8.314c3.9751,-0.44601 8.12895,0.49196 8.12895,0.49196l-15.50385,25.32721z" fill="#000000" fill-rule="nonzero" stroke="#191919" stroke-width="3" stroke-linecap="round"/><path d="M226.81651,157.35996l21.21924,10.76468l-1.79149,5.90253" fill="none" fill-rule="nonzero" stroke="#000000" stroke-width="5" stroke-linecap="round"/><path d="M253.10121,175.58807l1.9142,-5.86771l18.47057,-12.11125" fill="none" fill-rule="nonzero" stroke="#000000" stroke-width="5" stroke-linecap="round"/></g><path d="M235.25656,185.86542c0,1.42162 -1.41437,2.57408 -3.15909,2.57408c-1.74472,0 -3.15909,-1.15245 -3.15909,-2.57408c0,-1.42162 1.41437,-2.57408 3.15909,-2.57408c1.74472,0 3.15909,1.15245 3.15909,2.57408z" fill="#ff0000" fill-rule="nonzero" stroke="#000000" stroke-width="3" stroke-linecap="butt" stroke-linejoin="miter"/><g fill-rule="nonzero" stroke-linecap="butt" stroke-linejoin="miter"><g data-paper-data="{&quot;index&quot;:null}" stroke="none" stroke-width="1"><path d="M223.76578,193.63053c-0.13055,-0.17897 -0.09012,-0.32357 -0.01384,-0.48222c0.13983,-0.23872 0.32389,-0.43956 0.47853,-0.6656c-0.01252,-0.07791 -0.025,-0.15581 -0.0481,-0.22037c-0.42792,-1.39674 -0.25222,-2.67994 0.14511,-3.93023c0.08497,-0.26325 0.15523,-0.53917 0.32455,-0.75259c0.03178,-0.04001 0.05935,-0.10602 0.05098,-0.15798c-0.04588,-0.28568 0.09169,-0.45913 0.22512,-0.65854c0.11224,-0.17272 0.25399,-0.32019 0.38099,-0.48027c0.07408,-0.09338 0.17766,-0.16151 0.31914,-0.15245c0.14144,0.00909 0.27039,-0.05975 0.3887,-0.11526c0.6363,-0.3961 1.34411,-0.66382 2.10871,-0.81573c0.43299,-0.07736 0.86787,-0.06351 1.31753,-0.03698c1.32363,0.08024 2.56841,0.54096 3.74295,1.27755c0.52504,0.33746 1.01192,0.75422 1.45647,1.22434c0.33709,0.35576 0.5706,0.77967 0.77878,1.20426c0.66237,1.35104 0.83275,2.72885 0.63361,4.10402c-0.03432,0.26183 -0.13403,0.51246 -0.23376,0.7631c-0.06155,0.17129 -0.09779,0.34189 -0.01378,0.54823c0.07984,0.18037 0.04363,0.35094 -0.03267,0.5096c-0.13983,0.23872 -0.30916,0.45216 -0.47853,0.6656c-0.05292,0.06671 -0.12477,0.09483 -0.19663,0.12292c-0.28094,0.0731 -0.48397,0.23533 -0.66805,0.43618c-0.37459,0.44098 -0.87555,0.72892 -1.36177,1.02952c-0.18605,0.10957 -0.38677,0.20652 -0.60647,0.26489c-0.70557,0.20243 -1.40476,0.36553 -2.17322,0.33494c-0.15874,0.20009 -0.34286,0.40092 -0.51216,0.6144c-0.06351,0.08005 -0.13759,0.17343 -0.26844,0.15099c-0.11609,-0.00978 -0.16488,0.0829 -0.22834,0.16294c-0.43806,0.52099 -0.8614,1.05463 -1.29949,1.57562c-0.9567,1.17469 -1.92392,2.36276 -2.9101,3.51219c-0.96504,1.12276 -1.88575,2.28343 -2.82128,3.43142c-0.14816,0.18678 -0.31527,0.33492 -0.4634,0.5217c-0.71966,0.90718 -1.43935,1.81434 -2.17375,2.70891c-0.12699,0.16009 -0.2245,0.34543 -0.42944,0.41637c-0.07185,0.02812 -0.11,0.10741 -0.16293,0.17412c-0.52916,0.66708 -1.08369,1.33481 -1.61285,2.00186c-0.02116,0.02668 -0.05292,0.06668 -0.07408,0.09338c-0.15456,0.22611 -0.34252,0.24441 -0.62317,0.16098c-0.93686,-0.28673 -1.72329,-0.82553 -2.35936,-1.61637c-0.16004,-0.20422 -0.29893,-0.43508 -0.4019,-0.68003c-0.07985,-0.18037 -0.0542,-0.3376 0.03685,-0.48363c0.27325,-0.43811 0.53172,-0.88885 0.81556,-1.34031c0.20334,-0.31878 0.44675,-0.62561 0.6058,-0.98225c0.34572,-0.77928 0.87905,-1.42037 1.26898,-2.16174c0.22671,-0.41072 0.41338,-0.83338 0.65485,-1.23148c0.26264,-0.42477 0.48524,-0.86146 0.72251,-1.28552c0.43649,-0.76879 0.91307,-1.52567 1.33477,-2.30707c0.53203,-1.04534 1.12309,-2.04029 1.71414,-3.03514c0.19918,-0.34474 0.39828,-0.68943 0.59746,-1.03417c0.32198,-0.53081 0.65455,-1.07491 0.97653,-1.60566c0.18215,-0.29209 0.32424,-0.59608 0.50637,-0.88816c0.17802,-0.31809 0.37905,-0.57151 0.5824,-0.89029zM224.28278,193.75948c0.11354,0.2316 0.24823,0.43653 0.42943,0.61406c0.28836,0.44843 0.66555,0.81611 1.04275,1.18378c0.46989,0.46943 0.99685,0.89812 1.50909,1.31418c0.58598,0.47921 1.23355,0.78713 1.90647,1.09435c0.08019,0.02383 0.16036,0.04766 0.28062,0.08342c0.08468,-0.10671 0.16931,-0.21347 0.25396,-0.32018c0.02116,-0.02668 0.02758,-0.06599 0.04457,-0.11864c-0.10325,-0.08841 -0.21712,-0.16347 -0.34158,-0.2252c-0.20879,-0.11151 -0.38166,-0.23713 -0.59044,-0.34866c-0.50611,-0.29885 -0.93179,-0.73037 -1.40615,-1.06922c-0.24666,-0.18872 -0.51443,-0.35079 -0.73991,-0.56618c-0.48468,-0.48206 -1.0222,-0.89741 -1.46448,-1.43281c-0.11162,-0.14037 -0.23801,-0.29329 -0.34963,-0.43369c0.00449,-0.13057 -0.13473,-0.20492 -0.18733,-0.29476c-0.05677,-0.1158 -0.11356,-0.23162 -0.28642,-0.35716c-0.03432,0.26183 -0.21616,0.39738 -0.28415,0.60798c0.06319,0.0765 0.05872,0.20705 0.18317,0.26878zM224.51305,194.71819c-0.24408,-0.41057 -0.32202,-0.49965 -0.535,-0.63717c-0.11224,0.17272 -0.21391,0.33211 -0.32617,0.50482c-0.07408,0.09338 -0.06803,0.2106 -0.01121,0.32643c0.03788,0.07724 0.1116,0.14034 0.14947,0.21753c0.14721,0.28286 0.36631,0.53757 0.61293,0.72628c0.0504,0.1551 0.16836,0.25616 0.28642,0.3572c0.65333,0.58165 1.28138,1.16403 1.98763,1.67902c0.31626,0.22592 0.6431,0.43851 0.96573,0.62508c0.26367,0.1361 0.54205,0.28479 0.8461,0.27626c0.13759,-0.17344 0.27512,-0.34687 0.41274,-0.52031c-0.13917,-0.07436 -0.26365,-0.13611 -0.3733,-0.18519c-0.49776,-0.24692 -0.97439,-0.52048 -1.40867,-0.84744c-0.56288,-0.41465 -1.07286,-0.896 -1.59343,-1.36399c-0.25084,-0.21472 -0.42342,-0.4968 -0.68479,-0.69817c-0.05873,-0.20704 -0.19565,-0.3467 -0.32842,-0.46035zM214.56332,211.13258c0.14305,0.25685 0.33901,0.44702 0.55613,0.61048c0.00417,0.02595 0.02311,0.06457 0.03788,0.07722c0.36467,0.28977 0.75052,0.55286 1.17036,0.71064c0.24476,0.09751 0.47886,0.20831 0.7428,0.18783c0.59268,-0.7471 1.18529,-1.49418 1.80979,-2.28128c-0.47049,-0.15637 -0.87757,-0.39276 -1.27395,-0.6425c-0.35218,-0.21186 -0.6155,-0.50448 -0.94651,-0.74302c-0.11803,-0.10102 -0.21075,-0.20276 -0.32878,-0.3038c-0.1241,-0.21825 -0.28417,-0.42247 -0.49487,-0.62524c-0.31751,0.40024 -0.4958,0.87481 -0.76263,1.27363c-0.26265,0.42478 -0.51057,0.86219 -0.76261,1.27361c0.05871,0.20703 0.15555,0.33478 0.25244,0.46249zM216.3217,208.13536c0.05041,0.15509 0.15781,0.2695 0.27584,0.3705c0.07569,0.15443 0.21909,0.25476 0.34126,0.38175c0.40255,0.36696 0.858,0.66725 1.31985,0.92818c0.27838,0.1487 0.57797,0.2707 0.89033,0.3141c0.04234,-0.05336 0.09941,-0.0941 0.14173,-0.14748c0.51863,-0.65371 1.0266,-1.29403 1.55993,-1.93511c0.56508,-0.68108 1.11956,-1.34885 1.68467,-2.02993c0.81907,-1.00129 1.64238,-1.97654 2.46143,-2.97785c0.9291,-1.1087 1.80334,-2.24198 2.76195,-3.32541c0.16293,-0.17412 0.30689,-0.3869 0.46568,-0.587c-0.2046,-0.08554 -0.41565,-0.13178 -0.59911,-0.24404c-0.61164,-0.32197 -1.17452,-0.73662 -1.71627,-1.17792c-0.47211,-0.40412 -0.93366,-0.82164 -1.39521,-1.23914c-0.17064,-0.19089 -0.3371,-0.35575 -0.50774,-0.54663c-0.05451,-0.18106 -0.20848,-0.26806 -0.30535,-0.39579c-0.11162,-0.14037 -0.1873,-0.29475 -0.34544,-0.4077c-0.13534,0.10816 -0.19052,0.24015 -0.24983,0.34615c-0.46213,0.92606 -1.05288,1.76439 -1.55925,2.65253c-0.32841,0.57012 -0.65682,1.14021 -0.97042,1.72295c-0.43649,0.76879 -0.84761,1.53684 -1.27348,2.29229c-0.34537,0.62276 -0.69079,1.24551 -1.05094,1.85562c-0.37717,0.66277 -0.75848,1.29954 -1.15037,1.94971c-0.34956,0.59677 -0.70969,1.20692 -1.05508,1.82966c0.12219,0.12698 0.14722,0.28282 0.27582,0.37052zM235.43116,194.47686c-0.41981,-0.15777 -0.77202,-0.36966 -1.13475,-0.56814c-0.37751,-0.21114 -0.75086,-0.39629 -1.11775,-0.62079c-0.35218,-0.21188 -0.69795,-0.46307 -1.03951,-0.68828c-0.35636,-0.23786 -0.71268,-0.47565 -1.07318,-0.73943c-0.33097,-0.23854 -0.66616,-0.50307 -0.99716,-0.74161c-0.33516,-0.26451 -0.628,-0.58238 -1.00551,-0.79353c-0.24631,-0.34522 -0.61325,-0.56975 -0.91253,-0.8483c-0.30338,-0.30452 -0.64279,-0.59502 -0.94619,-0.89955c-0.28863,-0.29189 -0.58147,-0.60978 -0.85957,-0.91501c-0.29283,-0.31789 -0.52856,-0.67652 -0.85315,-0.95431c-0.28352,0.29493 -0.35758,0.3883 -0.43006,0.72948c0.1241,0.21825 0.24826,0.43654 0.42306,0.65333c0.21908,0.25474 0.43811,0.50945 0.66137,0.79017c0.42754,0.52282 0.85095,1.0196 1.36733,1.46165c0.3541,0.30312 0.7188,0.59287 1.03054,0.94938c0.06319,0.0765 0.15171,0.15225 0.26137,0.20135c0.2088,0.1115 0.39001,0.28909 0.56708,0.4406c0.64918,0.55571 1.36185,1.03136 2.07038,1.48103c0.92567,0.61317 1.89589,1.10769 2.89785,1.56213c0.19403,0.09888 0.38808,0.1978 0.60133,0.17873c0.18829,-0.17484 0.33228,-0.38761 0.4891,-0.67894zM230.72998,187.78704c-0.2556,0.0724 -0.45224,0.19531 -0.66358,0.3056c-0.19019,0.08357 -0.33194,0.23107 -0.39993,0.44169c-0.1549,0.38261 -0.36462,0.7407 -0.6334,1.04822c-0.02116,0.02668 -0.0382,0.07932 -0.04877,0.09266c0.04202,0.10315 0.10105,0.15365 0.20659,0.17681c0.02532,-0.00069 0.06124,-0.01476 0.07185,-0.02812c0.35119,-0.34901 0.73187,-0.67271 1.14207,-0.9712c0.0571,-0.04073 0.13533,-0.10815 0.14816,-0.18679c0.11034,-0.26398 0.22063,-0.52793 0.17699,-0.87892zM228.24665,189.04368c0.32999,-0.32231 0.67894,-0.60601 1.03206,-0.86374c0.11414,-0.08148 0.17351,-0.18747 0.21389,-0.33211c0.05321,-0.22323 0.05579,-0.44505 0.06894,-0.68023c0.01281,-0.07863 0.03624,-0.17057 -0.07346,-0.21968c-0.2537,0.16366 -0.51155,0.30135 -0.73573,0.49021c-0.19367,0.77504 -0.19369,0.77501 -0.68693,1.42798c0.0125,0.07792 0.06095,0.14177 0.18122,0.17751zM230.82834,193.47125c-0.24954,0.18962 -0.4843,0.39188 -0.71906,0.59412c-0.05711,0.04074 -0.11415,0.08148 -0.14173,0.14745c-0.06607,0.30182 -0.14685,0.59112 -0.10741,0.9161c0.30406,-0.00853 0.50707,-0.17077 0.74377,-0.28177c0.11832,-0.05548 0.16708,-0.14819 0.1969,-0.27946c0.05131,-0.31447 0.13212,-0.60374 0.23827,-0.89361c0.0106,-0.01334 -0.0083,-0.05192 -0.01666,-0.10385c-0.05484,-0.02455 -0.12449,-0.06175 -0.19404,-0.0989zM233.71243,190.27281c-0.36113,0.04926 -0.60843,0.17361 -0.87043,0.28532c-0.09302,0.05478 -0.13115,0.13411 -0.16932,0.21346c-0.16546,0.39596 -0.37525,0.75403 -0.65457,1.07493c-0.03176,0.04001 -0.04877,0.09266 -0.08048,0.13268c0.15171,0.15226 0.19179,0.16421 0.27645,0.05746c0.27518,-0.34689 0.61354,-0.61724 1.00448,-0.79779c0.2367,-0.11099 0.34895,-0.28372 0.41277,-0.5203c0.01507,-0.14393 0.03433,-0.26185 0.08114,-0.44575zM229.97701,190.5473c0.07378,0.06313 0.13086,0.02237 0.17321,-0.03099c0.29633,-0.3735 0.7001,-0.63271 1.10392,-0.89187c0.32135,-0.21773 0.50577,-0.57507 0.51729,-1.05802c-0.19852,0.03166 -0.31912,0.15244 -0.48815,0.20936c-0.34863,0.12718 -0.54968,0.38065 -0.70238,0.69799c-0.17381,0.34401 -0.33288,0.70067 -0.59522,0.96892c-0.01696,0.05266 -0.01286,0.07864 -0.00865,0.1046zM232.66918,189.40217c-0.21553,0.08429 -0.37398,0.12786 -0.51764,0.18408c-0.24086,0.08505 -0.38263,0.2325 -0.47179,0.46976c-0.11257,0.32925 -0.29472,0.62134 -0.49159,0.90079c-0.05935,0.10603 -0.144,0.21274 -0.21807,0.30612c0.06319,0.0765 0.10967,0.04911 0.13084,0.02242c0.38066,-0.32376 0.77612,-0.63484 1.22002,-0.88208c0.06767,-0.05408 0.12474,-0.09482 0.1629,-0.17414c0.0744,-0.24991 0.16355,-0.4872 0.18535,-0.82693zM231.86365,194.1335c-0.14207,0.304 -0.37683,0.50623 -0.59686,0.7211c-0.05291,0.06671 -0.13952,0.08218 -0.16291,0.17413c-0.04041,0.14464 -0.03269,0.50963 0.03433,0.76865c0.20915,-0.04499 0.36561,-0.17984 0.54109,-0.27606c0.13952,-0.0822 0.20942,-0.20154 0.22031,-0.3714c0.03014,-0.28778 0.0898,-0.55035 0.21487,-0.80169c0.01061,-0.01334 0.00221,-0.06527 -0.00194,-0.09123c-0.04844,-0.06386 -0.10744,-0.1144 -0.2489,-0.12344zM226.1194,190.69475c-0.05963,0.26254 -0.25433,0.47672 -0.25913,0.76381c0.11386,0.07507 0.21105,0.04627 0.3124,0.04342c0.18795,-0.01834 0.36944,0.00267 0.55963,-0.08093c0.102,-0.3159 0.34316,-0.55748 0.47046,-0.87409c-0.04202,-0.10315 -0.11578,-0.16633 -0.21073,-0.20277c-0.26844,0.15104 -0.55581,0.26346 -0.87268,0.3506zM228.97738,192.08846c-0.13534,0.10816 -0.27068,0.21629 -0.41852,0.24652c-0.35696,0.07522 -0.52211,0.31469 -0.58398,0.64251c-0.01924,0.11791 -0.08276,0.19797 -0.05775,0.3538c0.25339,-0.00713 0.4731,-0.06544 0.69277,-0.12383c0.06126,-0.01476 0.10358,-0.06815 0.14173,-0.14746c0.09972,-0.25065 0.20362,-0.4753 0.30336,-0.7259c0.03178,-0.04001 0.04457,-0.11866 -0.07765,-0.24567zM228.0479,191.29282c-0.29185,0.243 -0.59205,0.43399 -0.95318,0.48328c-0.076,0.00215 -0.10357,0.06814 -0.1459,0.1215c-0.0805,0.13269 -0.14625,0.27804 -0.15296,0.47385c0.35474,-0.00995 0.63569,-0.08309 0.9272,-0.16953c0.09717,-0.02881 0.16486,-0.08285 0.21361,-0.17558c0.08694,-0.17198 0.18858,-0.33141 0.27548,-0.5034c0.01061,-0.01334 0.00225,-0.06531 -0.00192,-0.09126c-0.04425,-0.03789 -0.08854,-0.07578 -0.16229,-0.13888zM234.31517,191.8864c0.04679,-0.18391 0.10426,-0.38119 0.15107,-0.56513c-0.00417,-0.02595 -0.00835,-0.05196 -0.01668,-0.10387c-0.25754,-0.01889 -0.4731,0.06545 -0.64853,0.16165c-0.22481,0.50199 -0.42845,0.97726 -0.7883,1.43086c0.3759,-0.03663 0.44193,-0.33852 0.62378,-0.47404c0.21359,-0.17558 0.44609,-0.31252 0.6786,-0.4495zM230.77737,187.28999c-0.02053,-0.28638 -0.01162,-0.54754 -0.14406,-0.81769c-0.13309,0.04286 -0.25978,0.04642 -0.36755,0.08861c-0.10775,0.04218 -0.23026,0.07167 -0.30434,0.1651c-0.05095,0.15795 -0.01118,0.32641 -0.01151,0.48294c-0.00028,0.15652 -0.04073,0.30116 0.02437,0.46889c0.27261,-0.12507 0.51988,-0.24937 0.8031,-0.38777zM227.28125,188.2621c0.3765,-0.34971 0.68535,-0.64538 0.99419,-0.94097c0.02116,-0.02668 0.06771,-0.05406 0.05934,-0.10601c0.01313,-0.23515 0.07695,-0.47174 -0.04076,-0.72929c-0.2072,0.13624 -0.4038,0.25917 -0.58565,0.39473c-0.05161,0.47104 -0.21291,0.89293 -0.42714,1.38156zM228.88031,194.17818c0.20687,0.02028 0.34222,-0.08787 0.48589,-0.14406c0.16902,-0.05689 0.29376,-0.15172 0.35117,-0.349c0.08498,-0.26324 0.16996,-0.52652 0.36882,-0.71475c-0.08213,-0.11511 -0.15171,-0.15226 -0.21522,-0.07221c-0.17349,0.18747 -0.35759,0.38829 -0.58368,0.48595c-0.31912,0.15244 -0.35988,0.45363 -0.40697,0.79409zM227.65256,192.63438c-0.37171,0.06261 -0.67159,0.09712 -0.95671,0.14425c-0.07408,0.09338 -0.07216,0.18464 -0.08497,0.26324c0.00192,0.09125 -0.03206,0.19652 0.05003,0.31162c0.247,0.03221 0.50032,0.02508 0.74953,-0.00796c0.09331,-0.2113 0.16131,-0.42192 0.24214,-0.71114zM229.45028,195.27088c0.02598,-0.31375 0.04549,-0.58825 0.07565,-0.87603c-0.24087,0.08503 -0.47116,0.15672 -0.70143,0.22839c-0.03432,0.26183 -0.08756,0.48507 -0.00572,0.75665c0.22801,-0.00638 0.42238,-0.06404 0.6315,-0.10903zM231.82427,187.4693c-0.24054,-0.07152 -0.4224,0.06405 -0.61675,0.12165c-0.06126,0.01476 -0.09943,0.09408 -0.10165,0.15939c-0.01732,0.20919 -0.03881,0.39239 -0.04557,0.58822c-0.0106,0.01334 0.01895,0.03861 0.04845,0.06388c0.25146,-0.09833 0.49867,-0.22274 0.75015,-0.32107c0.03207,-0.19653 -0.0013,-0.4043 -0.03468,-0.61207zM233.75359,189.81523c0.05738,-0.19727 0.10423,-0.38119 0.01604,-0.6135c-0.2133,0.01906 -0.45609,0.01281 -0.65687,0.10975c-0.02983,0.13127 -0.08915,0.23728 -0.09363,0.36784c-0.01925,0.1179 -0.11869,0.21202 -0.01763,0.36571c0.25561,-0.07239 0.51121,-0.14479 0.75213,-0.22981zM229.91621,195.55774c-0.03623,0.17058 0.04365,0.35096 0.11292,0.54465c0.24504,-0.05901 0.48782,-0.05285 0.69501,-0.18906c-0.03337,-0.20779 0.00928,-0.41764 -0.06834,-0.66331c-0.25146,0.09833 -0.48816,0.20934 -0.73959,0.3077zM232.94771,194.7031c-0.20525,0.22751 -0.36205,0.5189 -0.59686,0.72114c-0.18827,0.17486 -0.16962,0.36998 -0.07726,0.62825c0.21966,-0.05835 0.36562,-0.17983 0.53688,-0.30204c-0.02248,-0.37761 0.10483,-0.69428 0.13721,-1.04734zM226.60323,187.36809c0.06959,0.03718 0.10132,-0.00286 0.13308,-0.04286c0.15233,-0.1608 0.30051,-0.34757 0.46762,-0.49574c0.26009,-0.20297 0.21837,-0.46267 0.14299,-0.77361c-0.10361,0.06814 -0.18599,0.10959 -0.25366,0.16366c-0.17123,0.12223 -0.30242,0.2563 -0.28608,0.51674c-0.00029,0.15652 -0.06608,0.30186 -0.12119,0.43388c-0.05711,0.04074 -0.1395,0.08219 -0.08275,0.19798zM225.18672,190.43401c0.11609,0.00978 0.20271,-0.00568 0.27871,-0.00782c0.23218,0.01959 0.37174,-0.06262 0.46921,-0.24797c0.07635,-0.15864 0.20753,-0.29277 0.2986,-0.43882c0.03179,-0.04001 0.07825,-0.06742 -0.01445,-0.16918c-0.22196,0.1236 -0.47339,0.22201 -0.74376,0.28176c-0.06126,0.01476 -0.11414,0.08145 -0.1565,0.13481c-0.05515,0.13196 -0.09976,0.25064 -0.1318,0.44718zM228.43671,194.26884c0.04682,-0.1839 0.11897,-0.36854 0.11091,-0.57705c-0.26395,0.02048 -0.52148,0.0016 -0.76236,0.0866c-0.01731,0.20919 -0.0789,0.38047 0.01989,0.59946c0.2133,-0.01904 0.43077,-0.01207 0.63151,-0.10905zM232.06996,189.15805c0.26393,-0.02049 0.47949,-0.10479 0.66547,-0.21437c0.01732,-0.20918 0.03877,-0.39238 0.00125,-0.62613c-0.18154,-0.02099 -0.33998,0.0226 -0.49424,0.09215c-0.04906,0.2492 -0.11286,0.48579 -0.17254,0.74832zM226.63679,193.7585c0.01444,0.1692 0.00579,0.27375 0.03725,0.39026c0.01252,0.07791 0.0356,0.14248 0.05874,0.20707c0.20044,0.05958 0.40732,0.07986 0.60169,0.02225c0.03207,-0.19653 0.0641,-0.3931 -0.00937,-0.6128c-0.22801,0.00638 -0.43491,-0.01387 -0.68827,-0.00676zM225.63951,188.89517c-0.28931,0.02119 -0.49196,0.02685 -0.7306,0.04659c-0.0571,0.04073 -0.11642,0.14671 -0.13565,0.26468c-0.03398,0.10528 -0.13756,0.17343 -0.10198,0.31591c0.16454,0.07364 0.30598,0.08271 0.45383,0.05248c0.15457,-0.2261 0.31336,-0.42618 0.51442,-0.67964zM231.01572,186.39635c0.02087,0.12988 0.04173,0.25975 0.06253,0.38959c0.02087,0.12989 0.05231,0.24636 0.07315,0.3762c0.21967,-0.05832 0.40766,-0.07665 0.55357,-0.19813c0.01924,-0.11791 -0.04811,-0.22038 -0.09011,-0.32355c-0.04202,-0.10315 -0.05232,-0.24636 -0.16615,-0.32142c-0.16263,0.01762 -0.30405,0.00854 -0.433,0.07738zM228.38803,195.39201c-0.0122,-0.23444 0.04104,-0.4577 -0.05138,-0.71599c-0.18795,0.01834 -0.36112,0.04928 -0.54909,0.06759c0.01219,0.23443 0.00544,0.4303 0.12962,0.64855c0.15619,0.02169 0.29124,0.07011 0.47084,-0.00017zM228.76611,186.88997c0.27903,-0.16433 0.52213,-0.31463 0.7652,-0.46494c0.00449,-0.13057 0.02375,-0.24851 -0.05838,-0.36359c-0.27874,0.00784 -0.50063,0.13145 -0.73732,0.24245c-0.00449,0.13058 -0.00899,0.26113 0.01185,0.39097c-0.0276,0.06599 -0.00865,0.10458 0.0186,0.19511zM226.31225,192.45028c0.02786,-0.22255 0.15491,-0.38263 0.12153,-0.59041c-0.26812,-0.00549 -0.51091,-0.01173 -0.75599,0.04732c0.0292,0.18183 -0.07665,0.31519 0.00739,0.52154c0.20043,0.05957 0.38425,0.01529 0.62704,0.02154zM234.61848,190.13c-0.16678,-0.00835 -0.32937,0.00925 -0.47308,0.06548c-0.03845,0.23588 -0.0917,0.4591 -0.15133,0.72164c0.20489,-0.07097 0.37812,-0.10192 0.60201,-0.13427c0.03846,-0.23588 0.08114,-0.44577 0.02242,-0.65284zM225.02767,190.79067c-0.07859,0.22394 -0.15072,0.40859 -0.08787,0.64162c0.17094,0.03431 0.31655,0.0694 0.46026,0.01318c0.06799,-0.21061 0.15068,-0.40855 0.2251,-0.6585c-0.20687,-0.02028 -0.39899,-0.02792 -0.59752,0.00373zM233.17261,188.89234c0.23027,-0.07169 0.4561,-0.01282 0.60203,-0.13432c0.01732,-0.20918 -0.03723,-0.39027 -0.1171,-0.57066c-0.19211,-0.00764 -0.37364,-0.02865 -0.53432,0.08019c0.0186,0.19512 0.02249,0.37763 0.04942,0.62471zM229.61738,196.15313c-0.0292,-0.18182 -0.02889,-0.3383 -0.11935,-0.50535c-0.21966,0.05835 -0.45607,0.01279 -0.6527,0.13571c0.01443,0.16919 0.06063,0.29834 0.18284,0.42534c0.2027,-0.00568 0.40122,-0.03732 0.58916,-0.05569zM228.278,186.0689c-0.00385,-0.18251 -0.03529,-0.29898 -0.1068,-0.42748c-0.18795,0.01834 -0.38232,0.07594 -0.50928,0.23605c0.02503,0.15582 0.05005,0.31161 0.06447,0.4808c0.23447,-0.04569 0.3762,-0.19315 0.55163,-0.28941zM233.02652,196.5401c-0.03557,-0.14246 -0.06705,-0.25901 -0.14497,-0.3481c-0.19433,0.0576 -0.35919,0.14056 -0.50512,0.26202c0.01024,0.14318 0.0417,0.25969 0.12382,0.37479c0.20915,-0.04499 0.35085,-0.19246 0.52627,-0.28871zM226.87552,194.76924c-0.03848,0.23585 0.06897,0.35024 0.21233,0.45058c0.10325,0.0884 0.22771,0.15014 0.35665,0.08129c-0.00385,-0.18251 -0.01828,-0.35165 -0.09815,-0.53204c-0.16678,-0.00835 -0.31879,-0.00408 -0.47083,0.00017zM234.998,192.49328c0.05098,-0.15795 0.13564,-0.26467 0.0853,-0.41977c-0.47499,-0.02578 -0.60234,0.29082 -0.67701,0.69726c0.20077,-0.09694 0.39099,-0.18055 0.59172,-0.27748zM225.74676,193.28788c0.17512,0.06033 0.31655,0.06939 0.50034,0.02509c-0.0504,-0.1551 0.04069,-0.30118 -0.035,-0.45557c-0.09912,-0.06247 -0.17094,-0.03433 -0.26171,-0.04485c-0.10132,0.00286 -0.19628,-0.03361 -0.27038,0.05976c-0.00449,0.13058 -0.00897,0.26116 0.06672,0.41554zM230.35865,190.7844c0.09878,0.21895 0.20848,0.26808 0.31846,0.16062c0.15234,-0.16079 0.27518,-0.34687 0.38741,-0.51959c0.04233,-0.05333 0.08047,-0.13271 0.01313,-0.23516c-0.26426,0.17699 -0.49901,0.37921 -0.71903,0.59409zM230.43719,196.89968c-0.034,0.10529 -0.00672,0.19585 0.07121,0.28499c0.24282,0.00623 0.50452,0.05109 0.74121,-0.0599c-0.11355,-0.2316 -0.26752,-0.31863 -0.47661,-0.27361c-0.10134,0.00286 -0.22165,-0.03293 -0.3358,0.04853zM232.44154,192.34333c0.20652,0.1768 0.27199,0.18796 0.36722,0.06795c0.13341,-0.19941 0.27742,-0.41212 0.35181,-0.66206c-0.30853,0.13911 -0.59173,0.27749 -0.71905,0.5941zM233.57103,195.57261c-0.09942,0.09408 -0.17351,0.18751 -0.26235,0.26823c-0.16296,0.17412 -0.16291,0.17416 0.04972,0.46821c0.10361,-0.06814 0.23253,-0.13696 0.28959,-0.1777c-0.03334,-0.20779 -0.04781,-0.37691 -0.07701,-0.55872zM233.3237,187.29683c-0.14146,-0.0091 -0.29542,-0.09605 -0.41184,0.05069c0.03559,0.14248 0.09656,0.28426 0.13633,0.45269c0.16681,0.00836 0.33773,0.04273 0.46666,-0.02614c-0.05041,-0.15511 -0.0754,-0.31095 -0.19118,-0.47727zM231.83484,195.8561c-0.21132,0.11031 -0.43745,0.20792 -0.6488,0.31823c-0.02338,0.09195 -0.02151,0.18317 0.08818,0.23227c0.22801,-0.00638 0.44776,-0.06473 0.62958,-0.20029c0.00449,-0.13057 -0.01221,-0.23443 -0.06901,-0.35025zM234.95307,190.70764c0.11386,0.07507 0.22996,0.08487 0.35248,0.05532c0.01283,-0.07863 0.02566,-0.15723 0.03846,-0.23587c0.00868,-0.10458 0.03205,-0.19656 -0.03533,-0.299c-0.08852,-0.07577 -0.18341,-0.11227 -0.29538,-0.09605c-0.02147,0.18324 -0.03876,0.39242 -0.06028,0.57559zM232.25823,187.95281c0.16681,0.00836 0.2999,-0.03451 0.42882,-0.10333c-0.05451,-0.18106 -0.09434,-0.34952 -0.14468,-0.50461c-0.14981,-0.06098 -0.27231,-0.03148 -0.35056,0.03593c0.01859,0.19512 0.03724,0.39027 0.06638,0.57207zM235.21508,191.62631c0.01924,-0.11791 0.03847,-0.23585 0.04299,-0.36645c-0.00417,-0.02594 -0.03368,-0.05123 -0.05264,-0.08986c-0.09076,-0.0105 -0.20045,-0.05959 -0.32939,0.00926c-0.04039,0.14466 -0.11668,0.30329 -0.09811,0.49842c0.17093,0.03431 0.29345,0.00475 0.43714,-0.05143zM235.087,193.44307c0.13117,-0.13413 0.31464,-0.02188 0.42046,-0.15527c0.02563,-0.15722 0.10617,-0.28991 0.07278,-0.49769c-0.15619,-0.02169 -0.29766,-0.03076 -0.34861,0.12719c-0.051,0.15795 -0.16097,0.26537 -0.14463,0.52578zM231.73744,197.0719c0.13309,-0.04287 0.28095,-0.07313 0.40344,-0.10264c0.02533,-0.0007 0.03177,-0.04003 0.0529,-0.06671c-0.05261,-0.08983 -0.07343,-0.21968 -0.238,-0.29329c-0.1584,0.04361 -0.32746,0.10048 -0.51124,0.1448c0.06093,0.14177 0.1389,0.23087 0.29283,0.31789zM232.36597,186.88023c-0.02501,-0.15582 -0.03947,-0.32499 -0.06032,-0.45481c-0.16454,-0.07364 -0.30598,-0.08274 -0.43265,-0.07915c-0.05934,0.10605 0.03337,0.20773 0.06063,0.29831c0.0273,0.09056 0.04395,0.19441 0.15783,0.2695c0.08019,0.02383 0.17097,0.03433 0.27457,-0.03379zM224.87151,191.7994c-0.00028,0.15652 0.00579,0.27379 0.01189,0.39098c-0.00644,0.03931 0.02726,0.09058 0.03144,0.11653c0.10325,0.0884 0.21938,0.09821 0.34189,0.06866c0.01089,-0.16988 0.03654,-0.32713 0.00741,-0.50889c-0.12028,-0.03573 -0.23637,-0.04554 -0.39257,-0.06724zM233.97989,195.9002c0.19663,-0.1229 0.39319,-0.24582 0.49712,-0.47046c-0.16453,-0.07363 -0.29318,-0.16136 -0.45158,-0.11777c-0.10617,0.28992 -0.10616,0.28993 -0.04554,0.58823zM225.84937,193.68931c0.04973,0.46822 0.06447,0.48078 0.43593,0.5747c-0.01444,-0.1692 -0.05422,-0.33759 -0.06862,-0.50678c-0.11386,-0.07507 -0.22995,-0.08485 -0.36723,-0.06798zM234.62364,189.68643c0.01089,-0.16987 0.00062,-0.31308 -0.07506,-0.4675c-0.0401,-0.01191 -0.10553,-0.02314 -0.17096,-0.03434c-0.05068,0.00143 -0.11195,0.01619 -0.16258,0.0176c-0.01088,0.16987 -0.04713,0.34048 0.01798,0.50822c0.12025,0.03573 0.25755,0.01888 0.39064,-0.02403zM224.48367,190.4146c0.06542,0.01118 0.1562,0.02168 0.20272,-0.00568c0.16071,-0.10886 0.23697,-0.2675 0.25013,-0.50269c-0.13086,-0.02244 -0.27005,-0.09677 -0.37783,-0.0546c-0.04682,0.1839 -0.14847,0.3433 -0.07501,0.56297zM229.3703,185.65992c-0.00415,-0.02595 -0.00834,-0.05194 -0.01668,-0.10387c-0.27649,-0.05745 -0.54045,-0.037 -0.80437,-0.01653c-0.02982,0.13126 -0.00254,0.22179 0.10488,0.33617c0.23027,-0.07169 0.47527,-0.13075 0.71618,-0.21577zM232.02384,191.08981c-0.24728,0.12434 -0.49868,0.22271 -0.66386,0.46213c-0.01061,0.01334 0.02731,0.09053 0.05678,0.11579c0.07379,0.06313 0.17513,0.06029 0.228,-0.00644c0.18185,-0.13554 0.28992,-0.33424 0.37905,-0.57149zM234.50719,188.80269c-0.01023,-0.14319 -0.02053,-0.2864 -0.08147,-0.42817c-0.10325,-0.08841 -0.19822,-0.12488 -0.34605,-0.09465c0.03979,0.16846 0.06897,0.35026 0.11932,0.50535c0.10966,0.04908 0.20043,0.05957 0.30822,0.01744zM227.92273,195.82248c0.19598,0.19015 0.36241,0.35508 0.61354,0.41324c0.05097,-0.15795 -0.00994,-0.29972 -0.09623,-0.44079c-0.18152,-0.02098 -0.33773,-0.0427 -0.51735,0.02759zM224.60999,188.5067c0.19629,0.03363 0.22161,0.03294 0.2534,-0.00709c0.12058,-0.12074 0.14208,-0.304 0.15295,-0.47385c0.00224,-0.06525 -0.06097,-0.14176 -0.16872,-0.0996c-0.00673,0.19584 -0.20336,0.31878 -0.23762,0.58061zM229.88632,186.25848c0.24504,-0.05901 0.49425,-0.09214 0.6889,-0.30633c-0.2806,-0.08342 -0.51094,-0.01173 -0.72001,0.03329c-0.03818,0.07933 -0.01505,0.14387 0.03116,0.27302zM225.2538,192.75387c-0.10551,-0.02311 -0.20046,-0.05959 -0.30597,-0.0827c-0.02149,0.18324 -0.00702,0.35238 0.18702,0.45128c0.05485,0.02455 0.10966,0.04908 0.16678,0.00835c0.03398,-0.10528 0.00255,-0.22182 -0.04779,-0.37691zM233.53589,193.05614c0.1328,0.11365 0.21294,0.13752 0.28286,0.01816c0.05935,-0.10603 0.11867,-0.21204 0.16324,-0.3307c0.01695,-0.05264 0.01925,-0.11795 -0.05034,-0.15512c-0.17127,0.12221 -0.28768,0.26896 -0.39575,0.46765zM228.14105,187.9901c-0.19663,0.12291 -0.36369,0.27111 -0.45701,0.48241c-0.01061,0.01334 0.02729,0.09053 0.04202,0.10315c0.02949,0.02525 0.09076,0.0105 0.11194,-0.0162c0.12285,-0.18605 0.27936,-0.32091 0.30308,-0.56943zM227.0731,187.83753c0.06158,-0.17128 0.17802,-0.31807 0.20593,-0.54057c-0.21133,0.1103 -0.35727,0.23179 -0.37651,0.34972c-0.03398,0.10528 0.025,0.15582 0.17061,0.19085zM229.48082,196.88741c0.20879,0.11151 0.41537,0.28834 0.64564,0.21666c-0.18091,-0.33403 -0.41117,-0.26234 -0.64564,-0.21666zM231.20036,194.28256c0.02949,0.02524 0.05489,0.02458 0.08437,0.04982c0.09105,-0.14603 0.24533,-0.2156 0.26679,-0.39882c-0.07792,-0.08913 -0.13278,-0.11365 -0.22996,-0.08485c-0.02982,0.13126 -0.07024,0.27587 -0.1212,0.43388zM229.9725,189.64739c-0.19242,0.14888 -0.33835,0.2704 -0.4506,0.44309c-0.02116,0.02668 -0.01283,0.07861 0.03143,0.1165c0.01477,0.01264 0.05483,0.02456 0.0802,0.02384c0.19663,-0.1229 0.32358,-0.28299 0.33897,-0.58344zM224.60748,190.78939c-0.10968,-0.04908 -0.17509,-0.0603 -0.17734,0.00499c-0.02982,0.13126 -0.04487,0.27518 -0.05995,0.41909c0.00192,0.09125 0.04618,0.12914 0.13278,0.11366c0.07219,-0.18463 0.12312,-0.34261 0.10452,-0.53772zM233.9475,187.85321c0.09076,0.0105 0.17097,0.03433 0.26173,0.04485c0.02533,-0.00069 0.04648,-0.02741 0.09301,-0.05478c-0.17701,-0.15156 -0.30756,-0.33047 -0.5417,-0.44131c0.03979,0.16846 0.07122,0.28496 0.187,0.45126zM227.51673,190.83809c-0.09109,0.14603 -0.17158,0.27874 -0.28383,0.45146c0.2534,-0.00714 0.39289,-0.08927 0.48395,-0.23532c-0.04202,-0.10315 -0.0757,-0.15442 -0.20015,-0.21616zM232.414,194.47019c-0.01507,0.14393 -0.16098,0.26536 -0.06221,0.48435c0.29826,-0.28231 0.35117,-0.34898 0.29856,-0.43884c-0.07379,-0.06313 -0.13921,-0.07437 -0.23638,-0.04553zM229.06606,188.91633c-0.33581,0.04853 -0.46276,0.20865 -0.56253,0.45928c0.33355,0.01671 0.36367,-0.27109 0.56253,-0.45928zM234.82171,193.05915c-0.31047,0.04783 -0.4269,0.19461 -0.52437,0.37995c-0.0106,0.01334 0.00834,0.05193 0.03785,0.07719c0.04425,0.0379 0.09494,0.03646 0.1161,0.00977c0.1206,-0.12074 0.21167,-0.26678 0.3704,-0.4669zM233.28101,194.87638c-0.05098,0.15795 -0.14208,0.304 -0.06861,0.52362c0.1501,-0.09553 0.23059,-0.22822 0.30051,-0.34756c-0.05677,-0.1158 -0.12635,-0.15295 -0.2319,-0.1761zM235.63153,192.47555c-0.00804,-0.20849 0.10838,-0.35524 0.00317,-0.53491c-0.19242,0.14888 -0.19242,0.14889 -0.17831,0.47457c0.0401,0.01191 0.0802,0.02383 0.17512,0.0603zM230.18067,196.41124c0.23831,0.13677 0.43684,0.10512 0.63119,0.04751c0.01924,-0.11791 -0.03979,-0.16846 -0.11577,-0.16633c-0.15842,0.04361 -0.33163,0.07455 -0.51538,0.11885zM234.98257,189.7024c0.09912,0.06246 0.18346,0.11226 0.29119,0.0701c-0.00609,-0.11721 -0.01218,-0.23447 -0.09011,-0.32352c-0.08434,-0.04981 -0.14978,-0.061 -0.22164,-0.03291c-0.02339,0.09196 -0.01089,0.16988 0.02056,0.28639zM229.33055,192.86118c0.12892,-0.06882 0.22197,-0.12363 0.25594,-0.22893c0.00644,-0.03931 -0.0125,-0.07791 -0.03144,-0.11652c-0.04425,-0.0379 -0.12445,-0.06175 -0.14144,-0.00911c-0.06352,0.08006 -0.13761,0.17343 -0.08306,0.35456zM233.07124,186.8343c-0.10105,-0.1537 -0.27199,-0.18802 -0.41119,-0.26235c0.03945,0.325 0.06898,0.35023 0.41119,0.26235zM226.25749,187.11692c0.21776,-0.1496 0.21777,-0.14959 0.14849,-0.34332c-0.09302,0.05478 -0.19661,0.12293 -0.14849,0.34332zM230.51625,193.27131c-0.0273,-0.09056 -0.07153,-0.12844 -0.10743,-0.11438c-0.15842,0.04361 -0.17543,0.09625 -0.13789,0.32998c0.11834,-0.05546 0.18188,-0.13554 0.24538,-0.21559zM235.35666,193.69631c-0.1267,0.00359 -0.23862,0.01977 -0.28319,0.13836c0.26782,0.16201 0.30369,0.14801 0.28319,-0.13836zM226.31807,186.38482c-0.16263,0.01762 -0.26205,0.11168 -0.35085,0.19244c-0.04234,0.05334 -0.02982,0.13129 0.10104,0.15371c0.08881,-0.08076 0.18827,-0.17485 0.24983,-0.34614zM235.68246,191.28712c-0.13534,0.10816 -0.14404,0.21274 -0.04715,0.34047c0,0 0.0401,0.01191 0.05066,-0.00145c0.07825,-0.06743 0.0321,-0.19654 -0.00351,-0.33907zM228.42667,191.90824c0.10968,0.04908 0.18155,0.021 0.20911,-0.04499c0.02116,-0.02668 0.01281,-0.07862 -0.00609,-0.11722c-0.01894,-0.0386 -0.08433,-0.04981 -0.10549,-0.02311c-0.04651,0.0274 -0.08883,0.08075 -0.09751,0.18534zM234.83247,188.76756c-0.01507,0.14392 0.01218,0.23445 0.17258,0.28211c0.01088,-0.16987 -0.02694,-0.24708 -0.17258,-0.28211z" fill="url(#color-11)"/><path d="M224.52436,196.45265c0.46153,0.41748 0.92309,0.83501 1.39523,1.23915c0.53116,0.45468 1.1046,0.85594 1.71625,1.17792c0.19403,0.0989 0.37971,0.14587 0.59909,0.24406c-0.16934,0.21347 -0.3027,0.41286 -0.46564,0.58698c-0.94803,1.07011 -1.83286,2.21668 -2.76194,3.3254c-0.83387,0.98863 -1.64235,1.97657 -2.46144,2.97785c-0.56509,0.68111 -1.11963,1.34884 -1.68471,2.02992c-0.53335,0.64109 -1.02656,1.29405 -1.55988,1.93514c-0.04234,0.05336 -0.08469,0.10672 -0.14177,0.14746c-0.32298,-0.03004 -0.5972,-0.15283 -0.89035,-0.31413c-0.46187,-0.26096 -0.9173,-0.56122 -1.31982,-0.92817c-0.1328,-0.11365 -0.27615,-0.21398 -0.34125,-0.38173c0.15398,0.08698 0.26974,0.25327 0.48495,0.32552c0.06608,-0.30181 0.29023,-0.49076 0.44483,-0.71685c0.0106,-0.01334 0.02115,-0.02666 0.00643,-0.03929c0.16772,-0.46122 0.47468,-0.8481 0.69725,-1.28481c0.07632,-0.15865 0.10837,-0.35523 0.24369,-0.46337c0.24121,-0.24154 0.30948,-0.60871 0.55068,-0.85029c0.0106,-0.01334 0.01698,-0.05266 0.03816,-0.07933c0.15679,-0.29134 0.28833,-0.58199 0.47464,-0.8481c0.23281,-0.2935 0.32648,-0.66138 0.5888,-0.9296c0.04906,-0.2492 0.21618,-0.39736 0.34959,-0.59675c0.02116,-0.02668 0.03176,-0.04004 0.05291,-0.06669c0.09364,-0.36786 0.37489,-0.5975 0.52756,-0.91484c0.15266,-0.31733 0.4044,-0.57223 0.57181,-0.87694c0.19918,-0.34474 0.34343,-0.71399 0.64174,-0.99629c0.02116,-0.02668 0.05293,-0.06671 0.05935,-0.10602c0.02786,-0.22255 0.19916,-0.34473 0.31142,-0.51743c0.06352,-0.08006 0.15232,-0.16078 0.18633,-0.2661c0.03626,-0.17056 0.13565,-0.26467 0.23092,-0.38475c0.05292,-0.06671 0.12061,-0.1208 0.13339,-0.1994c0.04906,-0.2492 0.22671,-0.41071 0.36429,-0.58414c0.05292,-0.06671 0.12057,-0.12078 0.13342,-0.1994c0.04268,-0.20986 0.17381,-0.34402 0.29026,-0.49075c0.19052,-0.24016 0.27773,-0.56867 0.48299,-0.79615c0.0465,-0.02741 0.034,-0.10529 0.05097,-0.15797z" fill="#87d7dc"/><path d="M224.52434,196.45267c-0.01701,0.05264 -0.00447,0.13057 -0.03623,0.1706c-0.20524,0.22752 -0.30722,0.54341 -0.48296,0.79618c-0.11642,0.14675 -0.24761,0.28087 -0.29027,0.49074c-0.01283,0.07863 -0.0805,0.13271 -0.13338,0.19941c-0.13755,0.17344 -0.30051,0.34754 -0.36435,0.58412c-0.01281,0.07863 -0.09526,0.12009 -0.1334,0.19941c-0.09524,0.12005 -0.17992,0.2268 -0.23092,0.38475c-0.03398,0.10528 -0.12285,0.18607 -0.18635,0.26612c-0.11224,0.17272 -0.2835,0.29494 -0.3114,0.51745c-0.00644,0.03931 -0.03818,0.07934 -0.05933,0.10602c-0.28769,0.26896 -0.44258,0.65159 -0.64172,0.99631c-0.17801,0.31807 -0.42975,0.57293 -0.57184,0.87692c-0.15264,0.31732 -0.43391,0.54698 -0.52755,0.91484c0.00415,0.02596 -0.03178,0.04002 -0.05294,0.06671c-0.13755,0.17344 -0.30047,0.34757 -0.34956,0.5968c-0.27712,0.25561 -0.37073,0.62348 -0.58884,0.92959c-0.20109,0.25347 -0.3178,0.55675 -0.47465,0.8481c-0.02116,0.02668 -0.01698,0.05269 -0.03816,0.07934c-0.24121,0.24154 -0.30945,0.6087 -0.55066,0.85028c-0.13116,0.13413 -0.15268,0.31734 -0.24371,0.46338c-0.23732,0.42405 -0.52948,0.82359 -0.69723,1.2848c-0.0106,0.01334 -0.00639,0.03933 -0.00639,0.03933c-0.15457,0.22611 -0.37879,0.41502 -0.44484,0.71686c-0.20044,-0.05958 -0.30566,-0.23926 -0.48494,-0.32554c-0.11802,-0.10101 -0.23603,-0.20209 -0.27582,-0.37057c0.06352,-0.08006 0.15232,-0.16078 0.18631,-0.26609c0.11896,-0.36855 0.35601,-0.63608 0.54875,-0.94152c0.19273,-0.30539 0.3117,-0.67398 0.58879,-0.92957c0.04906,-0.2492 0.21614,-0.39739 0.34956,-0.59678c0.02116,-0.02668 0.05291,-0.06671 0.05934,-0.10603c0.02149,-0.18323 0.15683,-0.29133 0.23736,-0.42407c0.05292,-0.06671 0.10581,-0.13342 0.13341,-0.19939c0.15906,-0.35666 0.34342,-0.714 0.58687,-1.02085c0.03179,-0.04001 0.08886,-0.08075 0.08048,-0.13269c0.03207,-0.19651 0.15263,-0.31734 0.25847,-0.45075c0.13116,-0.13413 0.13371,-0.35596 0.27549,-0.5034c0.18409,-0.20083 0.26906,-0.46409 0.40888,-0.7028c0.20333,-0.31878 0.33705,-0.67467 0.58048,-0.9815c0.04234,-0.05336 0.11002,-0.10744 0.11225,-0.17273c0.02567,-0.15724 0.13562,-0.26469 0.21613,-0.39737c0.08468,-0.10673 0.15457,-0.22607 0.1992,-0.34473c0.07859,-0.22394 0.18662,-0.42264 0.33479,-0.60943c0.20748,-0.29277 0.32647,-0.66137 0.60354,-0.91697c0.02116,-0.02668 0.03818,-0.0793 0.05935,-0.10603c0.17801,-0.31807 0.34119,-0.64873 0.54873,-0.94146c0.23281,-0.2935 0.34764,-0.68804 0.60999,-0.95628c0.03179,-0.04001 0.03399,-0.1053 0.05097,-0.15795c0.10807,-0.19869 0.2415,-0.39808 0.42334,-0.53361c0.08435,0.04982 0.14336,0.1003 0.21295,0.13752c0.17481,0.21685 0.33069,0.39506 0.51192,0.57261z" fill="#b0eef2"/><path d="M235.43114,194.47688c-0.15682,0.29133 -0.30083,0.50409 -0.5186,0.65368c-0.20272,0.00567 -0.39676,-0.09317 -0.60134,-0.17873c-0.99138,-0.46782 -1.97218,-0.949 -2.89785,-1.56216c-0.69793,-0.46304 -1.41064,-0.9387 -2.07039,-1.48104c-0.17703,-0.15155 -0.35828,-0.32906 -0.56706,-0.44063c-0.08435,-0.04982 -0.17289,-0.12561 -0.26138,-0.20136c-0.31178,-0.35648 -0.68703,-0.63291 -1.03055,-0.94936c-0.49107,-0.44273 -0.9398,-0.93885 -1.36733,-1.46165c-0.20848,-0.26806 -0.42756,-0.5228 -0.6614,-0.79013c-0.18536,-0.20351 -0.29893,-0.43508 -0.42306,-0.65336c0.08724,-0.32854 0.14654,-0.43455 0.43006,-0.72947c0.31401,0.29116 0.56034,0.63645 0.85314,0.95431c0.27809,0.30525 0.57091,0.62309 0.85959,0.91502c0.30339,0.30453 0.63218,0.60836 0.94616,0.89953c0.28863,0.29189 0.65561,0.51635 0.91254,0.84832c0.37751,0.21115 0.67033,0.52903 1.00551,0.79355c0.32041,0.25189 0.66618,0.50302 0.99719,0.74159c0.34576,0.25117 0.70208,0.48898 1.07318,0.73949c0.34159,0.2252 0.68733,0.47637 1.03954,0.68822c0.36691,0.22447 0.74025,0.40967 1.11776,0.62082c0.39227,0.22377 0.74443,0.43563 1.16428,0.59341z" fill="url(#color-12)"/><path d="M224.01655,195.90602c-0.06959,-0.03718 -0.12863,-0.0877 -0.21296,-0.13748c-0.18185,0.13557 -0.3194,0.30895 -0.42332,0.53361c-0.01702,0.05264 -0.01925,0.11794 -0.05099,0.15795c-0.26236,0.26823 -0.39192,0.65016 -0.60999,0.95628c-0.22224,0.28016 -0.37072,0.62347 -0.54875,0.94147c-0.02116,0.02668 -0.03817,0.07934 -0.05931,0.10601c-0.27713,0.25559 -0.37076,0.62342 -0.60357,0.91694c-0.13755,0.17344 -0.25625,0.38548 -0.33479,0.60943c-0.05515,0.13195 -0.12504,0.25134 -0.19916,0.34473c-0.09524,0.12005 -0.19466,0.21417 -0.21615,0.39739c-0.00225,0.06525 -0.06994,0.11935 -0.11227,0.17272c-0.23281,0.2935 -0.37711,0.66278 -0.58046,0.98152c-0.13985,0.2387 -0.2248,0.50198 -0.4089,0.70279c-0.13116,0.13413 -0.13371,0.35593 -0.27549,0.50339c-0.12059,0.12078 -0.25174,0.25488 -0.2585,0.45074c-0.01702,0.05264 -0.04873,0.09267 -0.08047,0.13269c-0.24341,0.30682 -0.41726,0.6508 -0.58687,1.02085c-0.03818,0.07933 -0.1058,0.13341 -0.1334,0.19937c-0.09524,0.12005 -0.21579,0.24087 -0.23728,0.42407c-0.00644,0.03931 -0.03816,0.07933 -0.05933,0.10601c-0.13755,0.17344 -0.30051,0.34757 -0.34957,0.59678c-0.27711,0.25561 -0.39607,0.62418 -0.58878,0.92957c-0.19273,0.30539 -0.44031,0.58626 -0.54873,0.94147c-0.034,0.10529 -0.12285,0.18605 -0.18633,0.26612c-0.14337,-0.10033 -0.16839,-0.25614 -0.26111,-0.35789c0.37071,-0.62346 0.70555,-1.23289 1.05511,-1.82964c0.37716,-0.66277 0.75846,-1.29958 1.15033,-1.94972c0.36016,-0.61014 0.70552,-1.23288 1.05094,-1.85563c0.43649,-0.76879 0.84761,-1.53687 1.27348,-2.29232c0.32842,-0.57011 0.65684,-1.14019 0.97044,-1.72293c0.50638,-0.88816 1.08237,-1.73913 1.55923,-2.65254c0.0699,-0.11935 0.11031,-0.26397 0.24982,-0.34614c0.1328,0.11365 0.23381,0.26736 0.34544,0.40771c0.05262,0.08983 0.20656,0.17679 0.27169,0.34456z" fill="#87d7dc"/><path d="M216.63864,209.07865c0.331,0.23854 0.60493,0.51781 0.94652,0.74299c0.39642,0.24976 0.80346,0.48615 1.27393,0.64252c-0.61383,0.77377 -1.21707,1.53419 -1.80973,2.28128c-0.27872,0.00786 -0.51286,-0.10302 -0.74282,-0.18786c-0.43458,-0.17041 -0.7951,-0.4342 -1.17037,-0.71063c-0.01477,-0.01264 -0.03366,-0.05121 -0.03787,-0.0772c0.19628,0.03363 0.23668,-0.11098 0.29183,-0.243c0.13789,-0.32999 0.29053,-0.6473 0.51696,-0.90149c0.04234,-0.05336 0.08467,-0.10672 0.11222,-0.17271c0.11257,-0.32927 0.33898,-0.58344 0.4958,-0.87482c0.08694,-0.17198 0.14201,-0.30398 0.12344,-0.49911z" fill="#61afb4"/><path d="M225.20283,193.94226c0.45289,0.52208 0.97984,0.95075 1.46448,1.43279c0.22545,0.21541 0.48273,0.39081 0.73998,0.56622c0.4638,0.35223 0.89997,0.77039 1.40611,1.06921c0.19822,0.12489 0.39642,0.24976 0.59046,0.34867c0.12446,0.06175 0.2383,0.13676 0.3416,0.2252c-0.01695,0.05264 -0.02343,0.09196 -0.04461,0.11865c-0.08468,0.10671 -0.16931,0.21346 -0.25396,0.3202c-0.10551,-0.0231 -0.1857,-0.04699 -0.28063,-0.08342c-0.65812,-0.29454 -1.33106,-0.60178 -1.90649,-1.09434c-0.51226,-0.41606 -1.03916,-0.84473 -1.5091,-1.31417c-0.37723,-0.36769 -0.76499,-0.72203 -1.04276,-1.18379c0.09492,0.03643 0.15172,0.15225 0.27422,0.12271c0.14592,-0.12149 0.32777,-0.25702 0.22063,-0.52793z" fill="url(#color-13)"/><path d="M224.84784,195.13917c0.27199,0.18804 0.44454,0.47015 0.68476,0.69818c0.52059,0.46803 1.04112,0.93604 1.59345,1.364c0.44902,0.33958 0.92566,0.61314 1.40868,0.84743c0.12446,0.06175 0.24887,0.12344 0.37333,0.18517c-0.14816,0.18678 -0.27514,0.3469 -0.41275,0.5203c-0.30406,0.00853 -0.57827,-0.11426 -0.84611,-0.27625c-0.32267,-0.18658 -0.66004,-0.38581 -0.96572,-0.62506c-0.70625,-0.51499 -1.33427,-1.09738 -1.98764,-1.67904c-0.11802,-0.10102 -0.23607,-0.20208 -0.28644,-0.35718c0.05292,-0.06671 0.12055,-0.1208 0.13338,-0.1994c0.04682,-0.18392 0.18859,-0.33142 0.30497,-0.47814z" fill="url(#color-14)"/><path d="M216.63863,209.07863c0.01444,0.1692 -0.02598,0.31377 -0.11705,0.45982c-0.15682,0.29134 -0.38327,0.54555 -0.49579,0.87479c-0.02759,0.066 -0.06992,0.11939 -0.11226,0.17274c-0.22224,0.28019 -0.3643,0.58414 -0.51695,0.90147c-0.04459,0.11865 -0.09555,0.27662 -0.29185,0.24299c-0.23189,-0.17612 -0.41729,-0.37958 -0.55618,-0.61047c0.10391,-0.22469 0.19308,-0.46195 0.37072,-0.62348c0.02116,-0.02668 0.03818,-0.07932 0.05934,-0.10601c0.16739,-0.30469 0.34539,-0.62276 0.52755,-0.91485c0.08048,-0.13269 0.16518,-0.23941 0.23093,-0.38475c0.07218,-0.18461 0.18442,-0.35737 0.37461,-0.44097c0.08434,0.04981 0.14335,0.10032 0.21294,0.13752c0.10325,0.0884 0.21075,0.20278 0.31401,0.29116z" fill="#87d7dc"/><path d="M230.72998,187.78704c0.02891,0.33834 -0.06664,0.61489 -0.177,0.87892c-0.02758,0.06599 -0.09111,0.14604 -0.14817,0.18677c-0.42494,0.28586 -0.79089,0.62221 -1.14206,0.9712c-0.0106,0.01334 -0.0465,0.02739 -0.07185,0.02812c-0.09076,-0.0105 -0.16455,-0.07362 -0.20657,-0.1768c0.02116,-0.02668 0.02757,-0.06602 0.04875,-0.09269c0.26878,-0.3075 0.49328,-0.65298 0.63341,-1.04821c0.08275,-0.19797 0.19917,-0.34475 0.39993,-0.44168c0.2261,-0.09764 0.40794,-0.2332 0.66359,-0.30561z" fill="#cce5e6"/><path d="M228.24665,189.04368c-0.12028,-0.03573 -0.1687,-0.09959 -0.18123,-0.1775c0.47852,-0.66561 0.47849,-0.66563 0.68692,-1.428c0.20944,-0.20155 0.49261,-0.33992 0.73574,-0.4902c0.12446,0.06175 0.07569,0.15438 0.07344,0.21967c-0.01313,0.23515 -0.0157,0.45697 -0.06894,0.68022c-0.04041,0.14464 -0.09976,0.25062 -0.2139,0.33208c-0.35313,0.25775 -0.70204,0.54146 -1.03206,0.86375z" fill="#cce5e6"/><path d="M216.30989,208.77483c-0.06959,-0.03718 -0.12864,-0.08772 -0.21295,-0.13751c-0.19019,0.08359 -0.30242,0.2563 -0.3746,0.44098c-0.06574,0.14535 -0.15039,0.25206 -0.23094,0.38476c-0.18216,0.29208 -0.36015,0.61011 -0.52755,0.91482c-0.02116,0.02668 -0.03817,0.07935 -0.05936,0.10603c-0.17349,0.18748 -0.25208,0.4114 -0.37074,0.62342c-0.09688,-0.12769 -0.17898,-0.24283 -0.23351,-0.42391c0.25208,-0.41142 0.48523,-0.86149 0.76263,-1.27364c0.25208,-0.41142 0.44513,-0.87337 0.76262,-1.27361c0.22545,0.2154 0.36018,0.42031 0.48435,0.63854z" fill="#60adb2"/><path d="M230.82834,193.47125c0.06959,0.03718 0.12447,0.06175 0.19405,0.09891c0.00836,0.05195 0.0125,0.0779 0.01666,0.10385c-0.12088,0.27732 -0.18694,0.57921 -0.23827,0.89363c-0.02982,0.13127 -0.07857,0.22397 -0.19691,0.27946c-0.22195,0.12362 -0.42493,0.28585 -0.74375,0.28175c-0.03943,-0.32497 0.02659,-0.62685 0.10743,-0.91606c0.01695,-0.05264 0.08468,-0.10671 0.14175,-0.14745c0.23471,-0.20225 0.46955,-0.40453 0.71908,-0.59412z" fill="#cce5e6"/><path d="M233.71251,190.27285c-0.04679,0.18391 -0.06607,0.30186 -0.0959,0.43315c-0.06382,0.23658 -0.17605,0.40929 -0.41275,0.52031c-0.38679,0.20648 -0.73989,0.4643 -1.00446,0.79779c-0.08468,0.10672 -0.10999,0.1074 -0.2765,-0.05745c0.03177,-0.04003 0.04872,-0.09267 0.08051,-0.1327c0.27934,-0.3209 0.48907,-0.67894 0.65455,-1.07491c0.04878,-0.09267 0.08693,-0.17201 0.16933,-0.2135c0.27679,-0.09911 0.52406,-0.22339 0.88521,-0.27263z" fill="#cae2e3"/><path d="M229.97699,190.54731c-0.00415,-0.02595 0.00225,-0.06534 0.01283,-0.07864c0.27291,-0.28157 0.44673,-0.62558 0.59524,-0.96891c0.15264,-0.31732 0.35375,-0.57082 0.70237,-0.69796c0.16902,-0.05689 0.30016,-0.19106 0.48814,-0.20935c0.01384,0.48222 -0.18118,0.85292 -0.51728,1.05801c-0.40379,0.25916 -0.81172,0.49235 -1.1039,0.8919c-0.0465,0.02741 -0.08886,0.08073 -0.17738,0.00499z" fill="#c9e1e2"/><path d="M232.66918,189.40217c-0.02179,0.33975 -0.11094,0.57702 -0.21069,0.82764c-0.03818,0.07933 -0.09109,0.14602 -0.16293,0.17414c-0.42913,0.25988 -0.83929,0.55835 -1.22,0.88206c-0.02116,0.02668 -0.06764,0.05408 -0.13084,-0.02243c0.07408,-0.09338 0.15873,-0.20009 0.21808,-0.30611c0.19691,-0.27943 0.37906,-0.57152 0.49161,-0.90079c0.08912,-0.23731 0.24149,-0.39807 0.47177,-0.46976c0.16902,-0.05689 0.32745,-0.10053 0.54299,-0.18484z" fill="#c9e1e2"/><path d="M231.86365,194.1335c0.14146,0.0091 0.21523,0.07225 0.28898,0.13538c0.00417,0.02594 -0.00222,0.0653 0.00191,0.09124c-0.13983,0.23872 -0.21005,0.5146 -0.21482,0.80168c-0.0109,0.16986 -0.08083,0.28923 -0.22034,0.37141c-0.17541,0.09624 -0.34667,0.21846 -0.54104,0.2761c-0.06704,-0.25898 -0.08952,-0.63666 -0.03434,-0.76864c0.02339,-0.09196 0.09524,-0.12007 0.16294,-0.17413c0.16517,-0.23941 0.41468,-0.42906 0.55675,-0.733z" fill="#cae3e4"/><path d="M226.11937,190.69478c0.31685,-0.08716 0.58948,-0.21217 0.85793,-0.36321c0.10966,0.04908 0.16874,0.09963 0.21075,0.20278c-0.1167,0.30326 -0.36851,0.55816 -0.47048,0.87407c-0.19019,0.08357 -0.37171,0.06261 -0.55964,0.08096c-0.10132,0.00286 -0.19848,0.03167 -0.31239,-0.04341c0.01956,-0.27447 0.20363,-0.47527 0.27387,-0.75117z" fill="#c8e0e1"/><path d="M228.97738,192.08847c0.1222,0.12698 0.09463,0.193 0.06706,0.25898c-0.09974,0.25066 -0.18888,0.4879 -0.30335,0.72591c-0.02758,0.066 -0.06991,0.11936 -0.14175,0.14748c-0.21967,0.05832 -0.45413,0.10404 -0.69276,0.12382c-0.01024,-0.14318 0.03849,-0.23589 0.05774,-0.35381c0.05774,-0.35378 0.22287,-0.59322 0.58399,-0.6425c0.17321,-0.03095 0.30854,-0.1391 0.42911,-0.2599z" fill="#cbe4e5"/><path d="M228.0479,191.29282c0.07379,0.06313 0.11803,0.10101 0.16231,0.13889c-0.00644,0.03931 0.0125,0.07792 0.00191,0.09125c-0.08694,0.17198 -0.18857,0.33141 -0.27548,0.5034c-0.04878,0.09268 -0.11644,0.14676 -0.21361,0.17556c-0.29152,0.08646 -0.58727,0.14691 -0.92723,0.16952c-0.00805,-0.20848 0.07248,-0.34116 0.15296,-0.47385c0.04233,-0.05333 0.08469,-0.10671 0.14589,-0.12149c0.36113,-0.04926 0.66134,-0.24032 0.9532,-0.48329z" fill="#c8e0e1"/><path d="M224.84784,195.13917c-0.11642,0.14675 -0.2582,0.29422 -0.30082,0.50414c-0.01281,0.07863 -0.08049,0.13265 -0.13339,0.19938c-0.26138,-0.20137 -0.46571,-0.44346 -0.61292,-0.7263c0.17768,-0.1615 0.26681,-0.39878 0.36429,-0.58413c0.15619,0.02169 0.22772,0.15014 0.3374,0.19921c0.14337,0.10033 0.28033,0.23998 0.34546,0.4077z" fill="#85d5d9"/><path d="M234.31517,191.8864c-0.23253,0.13697 -0.46502,0.27395 -0.69341,0.43686c-0.19243,0.14888 -0.24373,0.46337 -0.62381,0.47401c0.3598,-0.45358 0.57405,-0.94222 0.78829,-1.43085c0.19019,-0.08357 0.40571,-0.16793 0.64851,-0.16167c0.00836,0.05195 0.01252,0.07793 0.01668,0.10385c-0.03206,0.19653 -0.07887,0.38052 -0.13625,0.57772z" fill="#c6dede"/><path d="M230.77737,187.28999c-0.28323,0.1384 -0.53043,0.26271 -0.81366,0.40112c-0.05451,-0.18106 -0.01412,-0.32571 -0.0244,-0.46889c0.00028,-0.15652 -0.03945,-0.325 0.01154,-0.48292c0.07408,-0.09338 0.19658,-0.12293 0.30434,-0.16509c0.10775,-0.04216 0.23029,-0.07165 0.36757,-0.08859c0.14305,0.25685 0.13406,0.51799 0.15462,0.80439z" fill="#cae3e3"/><path d="M227.28125,188.2621c0.21422,-0.48864 0.37551,-0.91057 0.43769,-1.39491c0.19663,-0.12291 0.37845,-0.25844 0.58564,-0.39469c0.10714,0.27092 0.05392,0.49416 0.04076,0.72927c-0.00644,0.03931 -0.03818,0.07934 -0.05934,0.106c-0.30883,0.29563 -0.61769,0.59129 -1.00476,0.95432z" fill="#cae3e4"/><path d="M228.88032,194.17816c0.02179,-0.33975 0.06251,-0.64091 0.40696,-0.79404c0.2367,-0.111 0.41021,-0.29848 0.5837,-0.48595c0.06351,-0.08005 0.14784,-0.03027 0.21522,0.07221c-0.19881,0.18821 -0.28384,0.45147 -0.36881,0.71474c-0.05739,0.19726 -0.18212,0.29208 -0.35117,0.34901c-0.14368,0.0562 -0.26846,0.151 -0.48594,0.14407z" fill="#c8e0e1"/><path d="M225.20284,193.94224c0.09655,0.28426 -0.07472,0.40641 -0.21649,0.55388c-0.12248,0.02952 -0.18985,-0.0729 -0.2742,-0.12269c-0.18121,-0.1775 -0.31591,-0.38245 -0.4295,-0.61407c0.13116,-0.13413 0.18858,-0.33136 0.36817,-0.40164c0.08435,0.04982 0.12863,0.08771 0.18764,0.13821c0.12639,0.15298 0.25277,0.30593 0.36437,0.4463z" fill="url(#color-15)"/><path d="M227.65257,192.63437c-0.07023,0.27588 -0.14878,0.49984 -0.21259,0.73643c-0.2492,0.03306 -0.50256,0.04021 -0.74954,0.00797c-0.08213,-0.1151 -0.0481,-0.22038 -0.05004,-0.31162c-0.00192,-0.09125 -0.00387,-0.18249 0.08499,-0.26325c0.24504,-0.05901 0.55546,-0.10689 0.92721,-0.16952z" fill="#c7dfe0"/><path d="M229.45028,195.27088c-0.20915,0.04499 -0.40347,0.10261 -0.64627,0.09642c-0.08183,-0.27163 -0.02858,-0.49484 0.00574,-0.75668c0.23027,-0.07169 0.46054,-0.14338 0.70144,-0.2284c-0.00064,0.31305 -0.03494,0.57493 -0.06091,0.88868z" fill="#c8e0e1"/><path d="M231.82428,187.4693c0.03334,0.20779 0.06669,0.41552 0.02407,0.62543c-0.2367,0.111 -0.48812,0.20935 -0.75015,0.32106c-0.02949,-0.02525 -0.059,-0.05052 -0.0484,-0.06386c0.00672,-0.19585 0.02405,-0.40501 0.04551,-0.58822c0.01283,-0.07863 0.04041,-0.14464 0.10164,-0.15939c0.21553,-0.08429 0.38679,-0.20651 0.62735,-0.13503z" fill="#c4dcdd"/><path d="M233.75359,189.81523c-0.25561,0.07239 -0.49648,0.1574 -0.75211,0.2298c-0.08624,-0.14105 -0.0016,-0.24776 0.01764,-0.36571c0.01924,-0.11791 0.06382,-0.2366 0.09363,-0.36786c0.20077,-0.09695 0.43297,-0.0773 0.65687,-0.10972c0.0882,0.23227 0.04138,0.41622 -0.01604,0.61347z" fill="#c8e0e1"/><path d="M229.91621,195.55774c0.25146,-0.09833 0.47761,-0.19602 0.73961,-0.3077c0.0629,0.233 0.02021,0.44293 0.06834,0.66333c-0.2072,0.13622 -0.45,0.13002 -0.69502,0.18904c-0.08404,-0.20633 -0.14915,-0.37408 -0.11289,-0.54465z" fill="#c6ddde"/><path d="M232.94773,194.70308c-0.03238,0.3531 -0.15967,0.66972 -0.12664,1.03401c-0.17124,0.12222 -0.3172,0.24371 -0.53689,0.30204c-0.10296,-0.24493 -0.11101,-0.45344 0.07725,-0.62826c0.23474,-0.20223 0.39574,-0.46763 0.58626,-0.70778z" fill="#b9cfd0"/><path d="M226.60323,187.36809c-0.05677,-0.1158 0.04037,-0.14466 0.06797,-0.2106c0.06576,-0.14532 0.14621,-0.27802 0.1212,-0.43388c-0.00161,-0.24779 0.12952,-0.3819 0.28606,-0.51673c0.06769,-0.05407 0.15011,-0.09553 0.25369,-0.16366c0.07541,0.31095 0.11709,0.57066 -0.14298,0.7736c-0.18184,0.13557 -0.31528,0.33495 -0.46761,0.49573c-0.03178,0.04001 -0.0635,0.08006 -0.11834,0.05551z" fill="#c0d8d8"/><path d="M225.18676,190.43404c0.02149,-0.18323 0.07663,-0.31519 0.16128,-0.42193c0.04233,-0.05333 0.09525,-0.12011 0.15649,-0.13485c0.27039,-0.05976 0.50706,-0.17076 0.74376,-0.28175c0.10325,0.08843 0.04619,0.12912 0.01443,0.16919c-0.10584,0.13342 -0.22224,0.28018 -0.29857,0.43884c-0.10807,0.19868 -0.24759,0.28087 -0.46922,0.24797c-0.10551,-0.02311 -0.18153,-0.02099 -0.30817,-0.01744z" fill="#c1d9d9"/><path d="M228.43671,194.26884c-0.20489,0.07097 -0.40766,0.07664 -0.63151,0.10901c-0.09879,-0.21895 -0.02661,-0.40356 -0.01991,-0.59945c0.24087,-0.08503 0.49839,-0.06619 0.76236,-0.08662c-0.00256,0.22182 -0.06412,0.39314 -0.11093,0.57707z" fill="#c3dbdc"/><path d="M232.06996,189.15808c0.05963,-0.26258 0.12348,-0.49916 0.17253,-0.74836c0.15427,-0.06958 0.29794,-0.12573 0.49423,-0.09215c0.0481,0.22041 0.01606,0.41694 -0.00122,0.62616c-0.19663,0.1229 -0.4015,0.19389 -0.66547,0.21434z" fill="#c3dadb"/><path d="M226.63679,193.7585c0.24282,0.00623 0.46024,0.01318 0.67768,0.02011c0.07346,0.21967 0.04139,0.41624 0.00932,0.61276c-0.19852,0.03168 -0.39062,0.02403 -0.60163,-0.02225c-0.02309,-0.06456 -0.05033,-0.15513 -0.05871,-0.20704c-0.01026,-0.14318 -0.00161,-0.24778 -0.02663,-0.40362z" fill="#c4dbdc"/><path d="M225.63954,188.8952c-0.20111,0.25349 -0.35988,0.45362 -0.52914,0.66708c-0.14786,0.03026 -0.2893,0.02115 -0.4538,-0.05249c-0.03557,-0.14246 0.06799,-0.21061 0.10201,-0.31591c0.03398,-0.10528 0.08273,-0.19797 0.13563,-0.2647c0.25341,-0.00715 0.45611,-0.01283 0.74538,-0.03398z" fill="#c2d9da"/><path d="M231.0157,186.39636c0.14368,-0.0562 0.28092,-0.07315 0.4118,-0.0507c0.12861,0.08771 0.12411,0.2183 0.16615,0.32143c0.04203,0.10313 0.11995,0.19227 0.09012,0.32354c-0.13534,0.10816 -0.33387,0.1398 -0.55358,0.19819c-0.02087,-0.12988 -0.04171,-0.25974 -0.07312,-0.37624c-0.01024,-0.14318 -0.02057,-0.28638 -0.04142,-0.41625z" fill="#c5ddde"/><path d="M228.38803,195.39201c-0.17962,0.07027 -0.32941,0.00925 -0.48142,0.01353c-0.10936,-0.20564 -0.1174,-0.41413 -0.12964,-0.64856c0.18794,-0.01834 0.37591,-0.03663 0.54913,-0.06759c0.10295,0.24493 0.04973,0.46821 0.06193,0.70262z" fill="#c3dbdc"/><path d="M228.76611,186.88997c-0.0273,-0.09056 -0.03563,-0.14246 -0.04399,-0.19439c-0.00609,-0.11721 -0.00161,-0.2478 -0.01188,-0.39098c0.25146,-0.09833 0.45864,-0.23462 0.73736,-0.24245c0.08213,0.1151 0.07348,0.21968 0.05838,0.36359c-0.21776,0.14959 -0.47146,0.31321 -0.73987,0.46428z" fill="#c7dfe0"/><path d="M226.31218,192.45024c-0.23219,-0.01958 -0.42654,0.03804 -0.64176,-0.03418c-0.06926,-0.19373 0.03235,-0.35307 -0.0074,-0.52152c0.27039,-0.05975 0.50257,-0.04021 0.75596,-0.04731c0.0523,0.2464 -0.06412,0.3931 -0.10675,0.60303z" fill="#c7dee0"/><path d="M224.51306,194.71817c-0.10968,-0.04908 -0.1812,-0.17753 -0.3374,-0.1992c-0.10807,0.19868 -0.21199,0.42332 -0.36431,0.58413c-0.04844,-0.06386 -0.11162,-0.14036 -0.1495,-0.21752c-0.05677,-0.1158 -0.06285,-0.23301 0.01122,-0.32644c0.11222,-0.17271 0.21388,-0.33208 0.32617,-0.50481c0.19182,0.16418 0.26975,0.2533 0.51384,0.66386z" fill="#61acb1"/><path d="M234.59611,190.78285c-0.20915,0.04499 -0.38227,0.07593 -0.60617,0.10831c0.04905,-0.2492 0.08753,-0.48505 0.15134,-0.72165c0.1584,-0.04361 0.30631,-0.0738 0.47307,-0.06546c0.05229,0.24638 0.02022,0.4429 -0.01824,0.67877z" fill="#c2dada"/><path d="M225.02767,190.79067c0.20915,-0.04499 0.39064,-0.02401 0.60813,-0.01703c-0.08912,0.23731 -0.15713,0.44791 -0.22513,0.65854c-0.15427,0.06957 -0.2893,0.02118 -0.46024,-0.01318c-0.05873,-0.20704 0.01345,-0.39173 0.07725,-0.62826z" fill="#c1d9d9"/><path d="M233.17262,188.89232c-0.02693,-0.24708 -0.03082,-0.42957 -0.04941,-0.62471c0.1501,-0.09553 0.34222,-0.08787 0.53436,-0.0802c0.07985,0.18036 0.13438,0.36143 0.11707,0.57064c-0.17127,0.12221 -0.37175,0.0626 -0.60201,0.13432z" fill="#c6dedf"/><path d="M229.61738,196.15313c-0.19851,0.03167 -0.40123,0.03735 -0.58917,0.05569c-0.1222,-0.12698 -0.16839,-0.25614 -0.18284,-0.42533c0.19663,-0.1229 0.43297,-0.07732 0.65269,-0.13571c0.09047,0.16703 0.09014,0.32354 0.11934,0.50535z" fill="#c0d7d7"/><path d="M228.27804,186.06891c-0.17542,0.09623 -0.3172,0.24367 -0.5558,0.26347c-0.01444,-0.1692 -0.03943,-0.32504 -0.06448,-0.48081c0.12701,-0.16006 0.3066,-0.23033 0.50928,-0.23601c0.08628,0.14106 0.10713,0.27089 0.11101,0.45338z" fill="#c3dadb"/><path d="M224.8532,193.50857c-0.05901,-0.05053 -0.12862,-0.0877 -0.18767,-0.13822c-0.17963,0.07027 -0.23701,0.2675 -0.36817,0.40165c-0.11386,-0.07507 -0.10936,-0.20565 -0.20206,-0.30737c0.07858,-0.22394 0.24981,-0.34617 0.28412,-0.60799c0.15811,0.11296 0.21488,0.22871 0.28644,0.35719c0.05263,0.08982 0.17704,0.15159 0.18729,0.29474z" fill="url(#color-16)"/><path d="M233.02652,196.5401c-0.17542,0.09623 -0.31722,0.2437 -0.53047,0.26272c-0.08213,-0.1151 -0.0988,-0.21901 -0.12386,-0.3748c0.14594,-0.1215 0.32137,-0.21773 0.50513,-0.26203c0.08213,0.11511 0.10937,0.20564 0.14915,0.37408z" fill="#bdd3d4"/><path d="M226.87551,194.76922c0.16681,0.00836 0.31882,0.00411 0.47081,-0.00016c0.07986,0.18038 0.09432,0.34955 0.09818,0.53203c-0.12892,0.06882 -0.25343,0.00714 -0.35667,-0.08128c-0.1328,-0.11364 -0.26556,-0.22729 -0.21233,-0.45057z" fill="#bdd4d5"/><path d="M234.99808,192.49333c-0.20077,0.09692 -0.39097,0.18055 -0.5917,0.27749c0.07469,-0.40643 0.20205,-0.72305 0.67703,-0.69726c0.03557,0.14246 -0.03432,0.26183 -0.08531,0.41976z" fill="#bbd2d3"/><path d="M225.74678,193.28786c-0.07567,-0.1544 -0.07121,-0.28498 -0.06669,-0.41554c0.07408,-0.09338 0.16905,-0.05691 0.27039,-0.05974c0.076,-0.00213 0.16257,-0.01762 0.2617,0.04484c0.07567,0.1544 -0.0301,0.28779 0.035,0.45553c-0.18378,0.04432 -0.33995,0.0226 -0.50032,-0.02504z" fill="#c3dadb"/><path d="M230.35865,190.7844c0.22004,-0.21485 0.44002,-0.42974 0.71905,-0.5941c0.0779,0.08911 0.03981,0.16849 -0.01315,0.23514c-0.12285,0.18605 -0.26037,0.35947 -0.38738,0.51957c-0.09524,0.12005 -0.20496,0.07098 -0.31849,-0.16062z" fill="#b1c6c7"/><path d="M230.43719,196.89968c0.11414,-0.08148 0.23444,-0.04574 0.34636,-0.06191c0.20914,-0.04501 0.3525,0.05532 0.47663,0.27363c-0.2367,0.11099 -0.509,0.07948 -0.74119,0.05993c-0.0927,-0.10174 -0.11581,-0.16633 -0.08182,-0.27162z" fill="#bbd2d3"/><path d="M232.44154,192.34333c0.14207,-0.304 0.42525,-0.44237 0.70428,-0.60675c-0.05963,0.26257 -0.21841,0.46265 -0.3518,0.66206c-0.0805,0.13269 -0.14595,0.12152 -0.35247,-0.05532z" fill="#bad1d2"/><path d="M233.57102,195.57263c0.0186,0.19514 0.05837,0.3636 0.077,0.5587c-0.06768,0.05408 -0.18604,0.10957 -0.28961,0.1777c-0.21266,-0.29404 -0.20208,-0.30738 -0.04973,-0.46821c0.0741,-0.09337 0.16295,-0.17414 0.26236,-0.26823z" fill="#b5cbcc"/><path d="M233.3237,187.29683c0.11577,0.16633 0.15141,0.30882 0.187,0.45127c-0.13952,0.0822 -0.29988,0.03448 -0.46666,0.02614c-0.0504,-0.1551 -0.08593,-0.29756 -0.13631,-0.45267c0.11,-0.10743 0.26393,-0.02048 0.416,-0.02473z" fill="#c0d7d8"/><path d="M231.83484,195.8561c0.06733,0.10245 0.0735,0.21967 0.06901,0.35025c-0.18185,0.13554 -0.40153,0.19391 -0.62958,0.20028c-0.11386,-0.07507 -0.11162,-0.14034 -0.0882,-0.23228c0.21132,-0.11031 0.4227,-0.22057 0.64882,-0.31821z" fill="#bdd4d4"/><path d="M234.95308,190.70763c0.00672,-0.19585 0.03878,-0.39239 0.04552,-0.58825c0.11194,-0.01618 0.20687,0.02028 0.29541,0.09603c0.06733,0.10244 0.04397,0.19441 0.03531,0.29898c-0.01283,0.07863 -0.02565,0.15724 -0.03847,0.23588c-0.10779,0.04217 -0.20914,0.04501 -0.33776,-0.0427z" fill="#b6cccc"/><path d="M232.25823,187.95281c-0.01859,-0.19513 -0.03304,-0.36428 -0.06641,-0.57207c0.07824,-0.06742 0.18601,-0.1096 0.35056,-0.03594c0.05041,0.15511 0.09015,0.32356 0.14468,0.50461c-0.14368,0.0562 -0.26205,0.11172 -0.42881,0.10334z" fill="#c1d9d9"/><path d="M235.21508,191.62629c-0.14368,0.0562 -0.26619,0.08575 -0.42238,0.06403c-0.0186,-0.19514 0.05775,-0.35381 0.09814,-0.49841c0.11414,-0.08148 0.22384,-0.03236 0.32936,-0.00925c0.03367,0.05123 0.06319,0.07648 0.05263,0.08982c-0.01926,0.1179 -0.03848,0.23585 -0.05775,0.35381z" fill="#b7cdce"/><path d="M235.08701,193.44308c-0.0016,-0.2478 0.09361,-0.36786 0.15935,-0.51318c0.06157,-0.1713 0.19244,-0.14888 0.34862,-0.1272c0.0186,0.19514 -0.04714,0.34045 -0.0728,0.49771c-0.13534,0.10814 -0.31464,0.02188 -0.43522,0.14265z" fill="#b6cccc"/><path d="M232.15146,196.95589c-0.15842,0.04359 -0.28092,0.07312 -0.41404,0.116c-0.14337,-0.10033 -0.23188,-0.17612 -0.28225,-0.33121c0.18378,-0.0443 0.35279,-0.10122 0.51121,-0.14481c0.16454,0.0736 0.16001,0.2042 0.23799,0.29329c-0.02116,0.02668 -0.02758,0.06602 -0.05291,0.06673z" fill="#c2dada"/><path d="M232.36598,186.88021c-0.11834,0.05546 -0.19435,0.05764 -0.2893,0.02119c-0.09912,-0.06246 -0.11576,-0.1663 -0.15782,-0.26947c-0.02728,-0.09056 -0.11998,-0.1923 -0.06064,-0.29832c0.13726,-0.01687 0.2787,-0.00784 0.43268,0.07916c0.03978,0.16845 0.05005,0.31166 0.07507,0.46748z" fill="#bbd2d3"/><path d="M224.87151,191.7994c0.15618,0.0217 0.27231,0.03149 0.40316,0.05389c0.02921,0.1818 0.00351,0.33903 -0.00736,0.50894c-0.12249,0.02953 -0.23863,0.01976 -0.34187,-0.0687c-0.01894,-0.0386 -0.03784,-0.07718 -0.03144,-0.11652c-0.01668,-0.10385 -0.02276,-0.22114 -0.02246,-0.37766z" fill="#bbd2d3"/><path d="M233.97989,195.9002c-0.06064,-0.29832 -0.06064,-0.29833 0.04554,-0.58822c0.15843,-0.04358 0.28706,0.04413 0.45156,0.11778c-0.10391,0.22467 -0.31526,0.33494 -0.4971,0.47047z" fill="#adc2c3"/><path d="M225.84944,193.68936c0.12249,-0.02953 0.25342,-0.00709 0.36722,0.06798c0.02921,0.1818 0.05426,0.33757 0.06865,0.50672c-0.35666,-0.08128 -0.37141,-0.09389 -0.43593,-0.5747z" fill="#b5cbcc"/><path d="M234.62363,189.68643c-0.14786,0.03027 -0.25979,0.04641 -0.41599,0.0247c-0.0651,-0.16769 -0.01412,-0.3257 -0.01797,-0.50821c0.06126,-0.01476 0.1119,-0.01616 0.16258,-0.01762c0.05068,-0.00143 0.10553,0.0231 0.17097,0.03432c0.10104,0.15369 0.11128,0.29685 0.1004,0.46677z" fill="#bbd1d2"/><path d="M224.48369,190.41461c-0.07345,-0.21968 0.03879,-0.39238 0.04967,-0.56226c0.13309,-0.04286 0.24698,0.0322 0.37786,0.05463c-0.01311,0.23515 -0.08947,0.39382 -0.25015,0.50267c-0.03177,0.04002 -0.11193,0.01619 -0.17735,0.00499z" fill="#b6cccd"/><path d="M229.3703,185.65989c-0.24087,0.08503 -0.48591,0.14406 -0.71616,0.21574c-0.09269,-0.10176 -0.11997,-0.19226 -0.10492,-0.33617c0.26393,-0.02049 0.52789,-0.04091 0.80437,0.01653c0.00834,0.05197 0.01253,0.07792 0.01669,0.10386z" fill="#acc1c2"/><path d="M232.02384,191.08981c-0.09333,0.21133 -0.20139,0.41001 -0.36849,0.55815c-0.06769,0.05407 -0.15426,0.06956 -0.22801,0.00644c-0.02947,-0.02524 -0.06734,-0.10245 -0.05678,-0.11581c0.14399,-0.21273 0.40601,-0.32446 0.65328,-0.44879z" fill="#a7bbbb"/><path d="M234.50719,188.80269c-0.09302,0.05479 -0.19853,0.03167 -0.3188,-0.00409c-0.03978,-0.16845 -0.07955,-0.33691 -0.11934,-0.50534c0.14368,-0.0562 0.2428,0.00624 0.34605,0.09463c0.05677,0.1158 0.08182,0.27161 0.09206,0.41483z" fill="#b7cdcd"/><path d="M227.92273,195.82247c0.17963,-0.07027 0.33581,-0.04853 0.50678,-0.01423c0.08628,0.14106 0.13247,0.2702 0.09623,0.44078c-0.24054,-0.07152 -0.40701,-0.23642 -0.60299,-0.42655z" fill="#b7cece"/><path d="M224.60999,188.5067c0.02371,-0.24849 0.22032,-0.37141 0.25236,-0.56798c0.12248,-0.02952 0.17094,0.03436 0.16871,0.09965c-0.01089,0.16988 -0.04712,0.34049 -0.15297,0.47385c-0.04651,0.02741 -0.05711,0.04073 -0.26815,-0.00552z" fill="#b4cacb"/><path d="M229.88633,186.25846c-0.05677,-0.11578 -0.06929,-0.19371 -0.04592,-0.28567c0.20914,-0.04501 0.42881,-0.10333 0.72004,-0.03325c-0.16517,0.23941 -0.40378,0.25914 -0.67414,0.31893z" fill="#b2c8c9"/><path d="M225.2538,192.75387c0.0504,0.1551 0.08179,0.27162 0.04779,0.37691c-0.05709,0.04074 -0.11196,0.01621 -0.16681,-0.00836c-0.21936,-0.09817 -0.21905,-0.25474 -0.18699,-0.45126c0.09492,0.03643 0.20047,0.05957 0.30597,0.08271z" fill="#b5cbcb"/><path d="M233.53589,193.05614c0.12283,-0.18606 0.23923,-0.3328 0.41049,-0.45498c0.08434,0.04981 0.08211,0.11508 0.05036,0.15511c-0.05935,0.10603 -0.10393,0.22469 -0.16325,0.33068c-0.08468,0.10672 -0.16483,0.08286 -0.2976,-0.03081z" fill="#91a3a3"/><path d="M228.14104,187.99012c-0.02371,0.24849 -0.17604,0.40931 -0.30306,0.56938c-0.02116,0.02668 -0.07185,0.02811 -0.11194,0.01617c-0.02949,-0.02525 -0.05264,-0.08982 -0.04203,-0.10319c0.10391,-0.22467 0.27099,-0.37283 0.45701,-0.48241z" fill="#99abac"/><path d="M227.0731,187.83755c-0.14562,-0.03503 -0.21937,-0.09821 -0.19596,-0.19017c0.04459,-0.11865 0.17992,-0.22678 0.37651,-0.34971c-0.00253,0.22185 -0.11897,0.36855 -0.18053,0.53984z" fill="#93a5a6"/><path d="M229.48082,196.88741c0.23445,-0.04568 0.46473,-0.11741 0.64564,0.21666c-0.24504,0.05901 -0.43683,-0.10513 -0.64564,-0.21666z" fill="#9aadad"/><path d="M231.20039,194.28253c0.04041,-0.14462 0.09138,-0.30256 0.12124,-0.43386c0.09718,-0.0288 0.15203,-0.00428 0.22996,0.08487c-0.02148,0.18326 -0.18633,0.26614 -0.26682,0.39884c-0.02949,-0.02525 -0.04425,-0.03791 -0.08437,-0.04982z" fill="#c5dddd"/><path d="M229.97249,189.64741c-0.0048,0.28708 -0.14242,0.46053 -0.33899,0.58344c-0.0106,0.01334 -0.05069,0.00143 -0.0802,-0.02383c-0.05485,-0.02455 -0.05263,-0.08983 -0.03143,-0.1165c0.10163,-0.15939 0.27294,-0.28158 0.4506,-0.44312z" fill="#aec2c3"/><path d="M224.6075,190.78939c0.0186,0.19514 -0.04296,0.36642 -0.09397,0.52439c-0.09717,0.02882 -0.14563,-0.03506 -0.13281,-0.11367c0.01506,-0.14392 0.01958,-0.27447 0.05999,-0.41906c-0.00834,-0.05197 0.06766,-0.05408 0.16678,0.00836z" fill="#9caeaf"/><path d="M233.9475,187.85321c-0.10103,-0.15372 -0.14722,-0.28281 -0.18699,-0.45127c0.23414,0.1108 0.36469,0.28976 0.54172,0.44133c-0.04652,0.02741 -0.06771,0.05406 -0.09301,0.05476c-0.09076,-0.0105 -0.17094,-0.03432 -0.2617,-0.0448z" fill="#a9bebf"/><path d="M227.51673,190.83809c0.12446,0.06175 0.17285,0.12556 0.20013,0.21615c-0.09111,0.14602 -0.23059,0.22818 -0.48397,0.23531c0.0975,-0.18536 0.19275,-0.3054 0.28382,-0.45146z" fill="#b9cfd0"/><path d="M232.414,194.47018c0.09717,-0.0288 0.16679,0.0084 0.23637,0.04554c0.05261,0.08984 -0.00029,0.15652 -0.2986,0.43882c-0.11355,-0.2316 0.04713,-0.34047 0.06221,-0.48437z" fill="#869797"/><path d="M229.06606,188.91633c-0.21359,0.17558 -0.22899,0.47601 -0.56253,0.45928c0.09972,-0.25065 0.24147,-0.39808 0.56253,-0.45928z" fill="#93a4a5"/><path d="M234.82171,193.05915c-0.15874,0.20009 -0.2646,0.33351 -0.37042,0.46692c-0.02116,0.02668 -0.07185,0.02812 -0.1161,-0.00978c-0.01477,-0.01264 -0.03366,-0.05123 -0.03785,-0.07721c0.09746,-0.18535 0.21391,-0.33215 0.52433,-0.37996z" fill="#94a5a6"/><path d="M233.28101,194.87638c0.13084,0.02245 0.18569,0.04694 0.21715,0.16347c-0.0699,0.11935 -0.15041,0.25206 -0.30052,0.34758c-0.07343,-0.21971 0.03239,-0.35306 0.08334,-0.51103z" fill="#abbfc0"/><path d="M235.63153,192.47555c-0.09492,-0.03645 -0.13503,-0.04838 -0.16457,-0.07367c-0.01414,-0.3257 -0.01412,-0.32567 0.1783,-0.47454c0.08404,0.20633 -0.02176,0.33973 -0.01377,0.54818z" fill="#acc0c1"/><path d="M230.18067,196.41124c0.17321,-0.03095 0.34219,-0.08788 0.53015,-0.10619c0.076,-0.00213 0.13502,0.04842 0.11577,0.1663c-0.20915,0.04499 -0.40763,0.07666 -0.64593,-0.06013z" fill="#9fb2b2"/><path d="M234.98257,189.7024c-0.03143,-0.11655 -0.04393,-0.19443 -0.02054,-0.28636c0.07185,-0.02812 0.13728,-0.01693 0.22163,0.03289c0.07792,0.08913 0.08401,0.20633 0.09012,0.32355c-0.09302,0.05479 -0.1921,-0.00764 -0.29118,-0.07009z" fill="#aec2c3"/><path d="M229.33057,192.86116c-0.0651,-0.16769 0.00899,-0.26114 0.06831,-0.36715c0.03178,-0.04001 0.09715,-0.0288 0.14142,0.00909c0.02949,0.02525 0.05263,0.08984 0.03144,0.11651c-0.01924,0.11791 -0.11226,0.17273 -0.24119,0.24155z" fill="#91a2a3"/><path d="M233.07124,186.8343c-0.34223,0.08786 -0.36754,0.08863 -0.41119,-0.26235c0.13918,0.07437 0.29539,0.09604 0.41119,0.26235z" fill="#869696"/><path d="M226.25749,187.11692c-0.0481,-0.2204 0.05962,-0.26254 0.14849,-0.34332c0.07985,0.18037 0.07984,0.18037 -0.14849,0.34332z" fill="#555f5f"/><path d="M230.51624,193.27131c-0.05292,0.06671 -0.12699,0.16007 -0.24534,0.21559c-0.03753,-0.23373 0.00481,-0.28707 0.13787,-0.32996c0.03593,-0.01404 0.08021,0.02384 0.10744,0.11437z" fill="#93a5a6"/><path d="M235.35666,193.69631c0.02054,0.28639 -0.01535,0.30046 -0.28319,0.13836c0.04459,-0.11867 0.15648,-0.13485 0.28319,-0.13836z" fill="#8b9b9c"/><path d="M226.31807,186.38482c-0.06158,0.1713 -0.16099,0.26537 -0.26044,0.35949c-0.12028,-0.03573 -0.14337,-0.10035 -0.10101,-0.1537c0.08467,-0.10673 0.18409,-0.20083 0.36142,-0.2058z" fill="#9aacad"/><path d="M235.68246,191.28712c0.03557,0.14246 0.09235,0.25829 -0.00704,0.35238c-0.01061,0.01334 -0.03592,0.01408 -0.05068,0.00145c-0.11162,-0.14037 -0.07762,-0.24568 0.05774,-0.3538z" fill="#5f6a6b"/><path d="M228.42666,191.90825c-0.00192,-0.09125 0.04042,-0.14464 0.09753,-0.18536c0.03593,-0.01404 0.08658,-0.01548 0.1055,0.02313c0.01894,0.0386 0.02729,0.09056 0.00608,0.11722c-0.04233,0.05333 -0.09942,0.09408 -0.20912,0.04499z" fill="#636e6f"/><path d="M234.83247,188.76756c0.13503,0.04841 0.19821,0.12487 0.17258,0.28211c-0.16036,-0.04768 -0.18766,-0.13819 -0.17258,-0.28211z" fill="#4a5354"/></g><g data-paper-data="{&quot;index&quot;:null}" fill="#000000" stroke="#000000" stroke-width="1.2"><path d="M209.6404,200.45348c0.74307,-1.71168 3.7771,-2.75663 5.3813,-4.29794c1.72716,-1.65943 1.95266,-3.65865 3.51569,-3.89672c1.09178,-0.16627 2.30089,0.94058 2.86115,1.59638c1.36242,1.59465 0.08877,5.17228 -2.84478,7.99081c-2.93353,2.81854 -6.4161,3.81071 -7.77851,2.21604c-0.61738,-0.72261 -1.75061,-2.19016 -1.13487,-3.60856z"/><path d="M210.51583,204.69644c1.05705,-2.37515 5.86243,-5.56944 5.86243,-5.56944c0,0 1.88016,-3.41119 1.9417,-3.46813c3.92105,-3.62919 6.32305,-0.90869 9.00575,2.23135c1.27681,1.49444 2.70479,4.30684 2.19539,6.28355c-0.57771,2.24182 -2.87985,3.62555 -5.03367,5.69493c-4.05293,3.89402 -9.11383,5.3124 -11.83867,2.12307c-1.19946,-1.40393 -3.54474,-4.12303 -2.13294,-7.29533z"/></g></g></g></g></svg>