<svg version="1.1" xmlns="http://www.w3.org/2000/svg" xmlns:xlink="http://www.w3.org/1999/xlink" width="125.0155" height="127.46197" viewBox="0,0,125.0155,127.46197"><defs><linearGradient x1="205.97324" y1="225.47164" x2="211.32817" y2="247.2596" gradientUnits="userSpaceOnUse" id="color-1"><stop offset="0" stop-color="#000000"/><stop offset="1" stop-color="#000000" stop-opacity="0"/></linearGradient></defs><g transform="translate(-169.08915,-122.81786)"><g stroke-miterlimit="10"><path d="M247.22232,169.2239l-12.64062,9.63928" fill="none" fill-rule="nonzero" stroke="#000000" stroke-width="6" stroke-linecap="round" stroke-linejoin="miter"/><path d="M249.22553,200.01215c0,0 -3.90405,6.82975 -5.02346,6.88677c-2.02689,0.10327 -16.98171,-4.45416 -16.98171,-4.45416c0,0 4.77957,-11.2659 5.01759,-14.09613c0.0399,-0.47454 0.45195,-12.66819 0.45195,-12.66819" fill="none" fill-rule="nonzero" stroke="#000000" stroke-width="6" stroke-linecap="round" stroke-linejoin="miter"/><g><g><g stroke="#001026" stroke-width="1.2"><path d="M251.9768,174.06362l10.42525,-23.98379c0,0 -5.91622,-3.87939 -2.22985,-9.95054c0.21016,-0.34612 1.28809,-2.01896 4.10722,-1.06823c2.70014,0.91061 7.11386,4.40989 8.72054,5.699c0.74623,0.59873 1.67504,1.8722 1.92578,3.28199c0.25245,1.41944 -0.6353,2.76187 -1.08643,3.54481c-0.18374,0.31889 -12.81144,26.43999 -12.81144,26.43999" fill="#bf0000" fill-rule="evenodd" stroke-linecap="round" stroke-linejoin="round"/><path d="M264.10151,173.03399c-3.77793,6.22194 -8.47491,3.66514 -10.85655,2.21902c-1.03563,-0.62883 -1.86358,1.13865 0.04546,-4.32941c0.42045,-1.20428 2.58448,-5.89633 3.90878,-10.18779c0.90683,-2.93863 1.12301,-5.86971 1.29608,-6.64796c0.40895,-1.83882 1.42675,-3.14402 1.42675,-3.14402l0.29005,1.54098c0,0 -0.16858,-1.05461 -0.15488,-1.61812c0.04265,-1.75547 0.06742,-3.08468 0.06742,-3.08468c0,0 5.94505,3.95076 9.4817,3.36679c3.53664,-0.58397 4.4753,-4.97257 4.4753,-4.97257c0,0 4.17024,3.33464 3.08501,6.06925c-0.26753,0.67416 -2.04216,2.11745 -2.04216,2.11745c0,0 0.58331,0.19618 0.35244,0.63672c-0.11768,0.22458 -2.6927,3.07909 -4.95668,6.65426c-2.98037,4.70645 -5.87434,10.48361 -6.41866,11.38008z" fill="#000000" fill-rule="nonzero" stroke-linecap="butt" stroke-linejoin="miter"/></g><path d="M269.3745,182.02744c-0.09798,0.19006 -0.83151,-0.95849 -3.16899,-2.38715c-3.08372,-1.88478 -8.09393,-4.27142 -9.55214,-4.85671c-3.78137,-1.51774 -5.12973,-0.5431 -4.87001,-1.04694c0.96112,-1.86454 4.87474,-4.09108 8.9816,-1.97409c1.80478,0.9303 5.75066,2.39076 7.41913,4.20171c2.12822,2.30995 1.72914,5.01805 1.1904,6.0632z" fill="#004fd9" fill-rule="nonzero" stroke="#001026" stroke-width="1.2" stroke-linecap="butt" stroke-linejoin="miter"/><g fill-rule="nonzero" stroke-linecap="butt" stroke-linejoin="miter"><g fill="none" stroke="none" stroke-width="1" font-family="sans-serif" font-weight="normal" font-size="12" text-anchor="start"/><path d="M269.11692,183.4515c0,0 -6.85676,-5.46638 -10.31909,-7.43696c-3.46232,-1.97059 -6.99255,-2.41598 -6.99255,-2.41598c0,0 0.99562,-1.79355 3.53104,-2.638c1.96257,-0.65364 5.05175,-0.72321 8.02982,0.95082c2.7131,1.5251 5.39672,3.8232 6.2175,5.84313c1.24404,3.06163 -0.46672,5.69698 -0.46672,5.69698z" fill="#000000" stroke="#001026" stroke-width="1.2"/></g><g stroke="#001026" stroke-width="1.2"><path d="M263.40785,174.16953c0,0 18.00802,-24.51751 18.59299,-24.2961c1.6787,0.63537 8.81691,7.70001 8.81691,7.70001l-20.56691,23.23403" fill="#ffab19" fill-rule="evenodd" stroke-linecap="round" stroke-linejoin="round"/><path d="M261.86858,173.84632c0,0 3.87297,-5.14718 5.76558,-7.9689c1.8153,-2.70645 5.36787,-8.63009 5.36787,-8.63009c0,0 1.67956,-4.82306 3.10102,-5.43296c0.65837,-0.28249 -0.74662,2.83901 -0.74662,2.83901c0,0 1.58716,-3.51716 1.72367,-3.82911c0.95246,-2.17655 3.52644,-4.2736 6.36594,-2.97999c3.1176,1.4203 8.20088,3.92312 9.79576,6.9961c0.67859,1.30751 0.96784,4.17363 -0.66716,6.10899c-1.84383,2.18258 -5.68596,3.37003 -5.68596,3.37003l3.78182,-1.5281c0,0 -0.77661,1.40256 -1.71783,2.21766c-1.057,0.91537 -4.31724,3.00868 -4.31724,3.00868l-14.33726,14.08819" fill="#000000" fill-rule="evenodd" stroke-linecap="round" stroke-linejoin="round"/><path d="M279.03501,150.34171c0.92056,-1.42875 2.50852,-2.79054 4.33128,-2.92344c1.8295,-0.13339 9.54121,4.77294 10.13836,6.56577c0.56709,1.70259 -0.05911,3.88623 -0.95757,5.28066c-1.84453,2.8628 -6.36461,3.1861 -10.09586,0.72207c-3.73123,-2.46401 -5.26072,-6.78226 -3.41616,-9.64507z" fill="#ff0000" fill-rule="nonzero" stroke-linecap="butt" stroke-linejoin="miter"/></g></g><g fill="#000000" fill-rule="nonzero" stroke="#001026" stroke-width="1.2" stroke-linecap="butt" stroke-linejoin="miter"><path d="M273.72219,172.82053c0,0 2.75516,1.05579 3.39687,1.72824c0.19753,0.20701 0.36661,1.38242 0.13624,2.53439c-0.28754,1.43778 -1.0882,2.95343 -1.97119,3.82592c-2.27182,2.24474 -7.74934,2.96734 -9.23012,1.41563c-0.64176,-0.67249 -1.41603,-4.00443 -1.41441,-4.01075"/></g></g><g fill-rule="nonzero" stroke-linecap="butt" stroke-linejoin="miter"><g stroke="none" stroke-width="1"><path d="M247.80547,176.4484c-0.0024,0.21201 -0.12562,0.29445 -0.28739,0.36547c-0.26422,0.09158 -0.54174,0.12823 -0.81043,0.20141c-0.03788,0.06532 -0.07579,0.1306 -0.0966,0.19245c-0.50996,1.29475 -1.4514,2.13787 -2.55671,2.82163c-0.23381,0.14318 -0.46326,0.3047 -0.73633,0.35958c-0.05121,0.01027 -0.11504,0.04236 -0.1403,0.08593c-0.13893,0.23947 -0.36081,0.2841 -0.59535,0.35051c-0.20037,0.05954 -0.40963,0.08239 -0.61444,0.12358c-0.11946,0.02403 -0.24783,0.01139 -0.35983,-0.08145c-0.11195,-0.09286 -0.26183,-0.12041 -0.3946,-0.15134c-0.77455,-0.0942 -1.52898,-0.32703 -2.25882,-0.68015c-0.40793,-0.20639 -0.76091,-0.48149 -1.11831,-0.77494c-1.05075,-0.86546 -1.8001,-1.9646 -2.32007,-3.22525c-0.22736,-0.5696 -0.37383,-1.17468 -0.45204,-1.79347c-0.05975,-0.46867 0.00886,-0.92474 0.09896,-1.36591c0.2867,-1.40369 0.99908,-2.52762 2.017,-3.42456c0.19082,-0.17296 0.42907,-0.29782 0.66734,-0.42265c0.15735,-0.08935 0.29323,-0.19359 0.35126,-0.39754c0.04542,-0.18216 0.18126,-0.28641 0.34305,-0.35742c0.26422,-0.09158 0.53731,-0.14651 0.81041,-0.20142c0.08536,-0.01717 0.16252,0.00578 0.23967,0.02874c0.27888,0.11695 0.54823,0.12047 0.82577,0.08386c0.58477,-0.0984 1.17977,-0.00652 1.77032,0.06699c0.22258,0.03216 0.44957,0.08262 0.6684,0.17319c0.71209,0.2798 1.39452,0.58481 2.01445,1.07542c0.25601,-0.05149 0.53355,-0.08807 0.80663,-0.14303c0.10243,-0.0206 0.22189,-0.04462 0.31677,0.05167c0.09044,0.07794 0.18846,0.03903 0.29084,0.01842c0.68715,-0.11899 1.36987,-0.2563 2.05704,-0.37528c1.52352,-0.28716 3.06407,-0.57782 4.59645,-0.82834c1.49826,-0.24364 2.98316,-0.54233 4.47253,-0.82263c0.23896,-0.04807 0.46971,-0.05601 0.70865,-0.10408c1.16063,-0.23343 2.32127,-0.46686 3.48633,-0.68197c0.2048,-0.04119 0.40076,-0.11904 0.61512,-0.04678c0.07719,0.02293 0.15804,-0.01255 0.24339,-0.02969c0.85342,-0.17167 1.72832,-0.32839 2.58174,-0.50005c0.03414,-0.00686 0.08534,-0.01714 0.11946,-0.02403c0.26865,-0.07328 0.43628,0.02763 0.61789,0.2603c0.60118,0.78282 0.92107,1.66067 0.95972,2.63355c0.00649,0.24866 -0.02115,0.50418 -0.08735,0.74825c-0.04542,0.18218 -0.16418,0.283 -0.3304,0.33566c-0.49874,0.15797 -0.99301,0.33431 -1.50884,0.49574c-0.36664,0.1122 -0.7592,0.19116 -1.1125,0.35837c-0.77043,0.36645 -1.61122,0.51634 -2.39495,0.82783c-0.44307,0.16604 -0.86023,0.36532 -1.30777,0.51303c-0.48165,0.15455 -0.93739,0.34235 -1.39749,0.51184c-0.83941,0.30342 -1.70477,0.57361 -2.53973,0.89537c-1.09028,0.45001 -2.19839,0.82673 -3.30641,1.20342c-0.37929,0.13397 -0.75846,0.26794 -1.13774,0.4019c-0.5967,0.19696 -1.21045,0.39729 -1.80713,0.59418c-0.3325,0.10534 -0.63904,0.24389 -0.97151,0.34925c-0.34515,0.12712 -0.6694,0.19233 -1.03605,0.30453zM247.45555,176.03807c0.04916,-0.24063 0.06419,-0.47438 0.02357,-0.71617c0.0382,-0.50764 -0.04749,-1.00956 -0.13322,-1.51149c-0.09971,-0.63374 -0.27213,-1.27203 -0.44012,-1.89202c-0.19018,-0.71166 -0.53771,-1.334 -0.90675,-1.97125c-0.05189,-0.06648 -0.10378,-0.13295 -0.1816,-0.23265c-0.13653,0.02743 -0.27308,0.05496 -0.40961,0.08241c-0.03414,0.00686 -0.06384,0.03205 -0.1106,0.0607c0.03106,0.12835 0.0792,0.25327 0.1444,0.37476c0.10448,0.20973 0.17034,0.40799 0.27479,0.61771c0.23556,0.52947 0.32201,1.10821 0.50634,1.64797c0.08812,0.28993 0.21027,0.573 0.26423,0.8698c0.10416,0.65206 0.29362,1.28694 0.32949,1.95268c0.00581,0.1719 0.01608,0.3621 0.02187,0.53402c-0.08468,0.09394 -0.01499,0.23376 -0.02695,0.33232c-0.02458,0.12031 -0.04914,0.24064 0.01677,0.43886c0.19082,-0.17296 0.42603,-0.1626 0.61309,-0.27712c-0.00512,-0.09512 0.07951,-0.18904 0.01431,-0.31054zM247.85834,175.18797c-0.05156,0.45263 -0.04196,0.56604 0.04987,0.79757c0.20037,-0.05954 0.3837,-0.11565 0.58407,-0.17516c0.11946,-0.02403 0.18708,-0.1145 0.21165,-0.23485c0.01639,-0.08026 -0.00582,-0.17188 0.01057,-0.25209c0.05293,-0.29908 0.02865,-0.62109 -0.05943,-0.91102c0.05424,-0.14552 0.01879,-0.29218 -0.01674,-0.4389c-0.18266,-0.82852 -0.34385,-1.64219 -0.61183,-2.45357c-0.1229,-0.35986 -0.26288,-0.71631 -0.41549,-1.05092c-0.13487,-0.26134 -0.27415,-0.54097 -0.53223,-0.71979c-0.2219,0.04463 -0.44375,0.08929 -0.66566,0.13389c0.06961,0.13982 0.13485,0.26134 0.19558,0.36445c0.26079,0.48594 0.48751,0.97874 0.64592,1.48529c0.21096,0.64979 0.33663,1.31676 0.47936,1.98026c0.07546,0.31173 0.04409,0.62568 0.1366,0.93395c-0.07951,0.18904 -0.05221,0.37585 -0.01228,0.54085zM266.30475,169.09355c0.04027,-0.2773 -0.00477,-0.53742 -0.08399,-0.79068c0.01263,-0.02174 0.02083,-0.06189 0.01637,-0.08024c-0.12358,-0.43663 -0.2813,-0.86639 -0.53258,-1.23889c-0.14305,-0.22124 -0.26902,-0.44585 -0.50113,-0.59142c-0.95583,0.19223 -1.9116,0.38451 -2.91867,0.58701c0.29424,0.40229 0.48617,0.82522 0.66092,1.25151c0.16149,0.37134 0.19904,0.74834 0.32639,1.12653c0.03552,0.14667 0.04954,0.27847 0.08505,0.42516c-0.03209,0.23717 -0.02559,0.48586 0.0239,0.76431c0.51206,-0.10299 0.95446,-0.34581 1.42347,-0.4786c0.48166,-0.15456 0.9589,-0.32747 1.42347,-0.4786c0.07952,-0.18904 0.07818,-0.34261 0.07678,-0.49616zM262.98505,170.24196c0.05422,-0.14554 0.03584,-0.29566 0.00031,-0.4423c0.0328,-0.16043 -0.02423,-0.32203 -0.0471,-0.49047c-0.10724,-0.51686 -0.29976,-1.01652 -0.522,-1.49097c-0.13927,-0.27962 -0.31274,-0.55241 -0.54554,-0.77476c-0.06828,0.01372 -0.14098,0.00913 -0.20926,0.02288c-0.83639,0.16819 -1.6556,0.33296 -2.49638,0.48287c-0.89197,0.16018 -1.76689,0.31693 -2.65887,0.47709c-1.30163,0.24258 -2.5906,0.46333 -3.89222,0.70593c-1.45967,0.25512 -2.88895,0.56183 -4.3575,0.78025c-0.24338,0.0297 -0.49496,0.09959 -0.75101,0.15104c0.11709,0.18794 0.26389,0.35068 0.34684,0.54552c0.30897,0.61086 0.51994,1.26064 0.69681,1.91729c0.14202,0.58673 0.26698,1.1769 0.39194,1.76712c0.02357,0.24525 0.05976,0.46869 0.08332,0.71393c-0.06692,0.16726 0.00719,0.32544 0.00857,0.47899c0.00581,0.1719 -0.02696,0.3323 0.0345,0.51224c0.17955,0.00234 0.30725,-0.0618 0.42226,-0.10415c0.95822,-0.40425 1.96898,-0.66522 2.94049,-1.01444c0.62641,-0.22215 1.25282,-0.44425 1.87475,-0.68475c0.83941,-0.30342 1.65729,-0.62174 2.47963,-0.92174c0.67314,-0.25078 1.34633,-0.50152 2.02392,-0.73395c0.72438,-0.26103 1.43611,-0.50033 2.16493,-0.74307c0.66052,-0.229 1.33812,-0.46144 2.01129,-0.7122c-0.02288,-0.16843 0.05289,-0.29907 0.00033,-0.4423zM238.63133,168.7179c0.25124,0.37247 0.41274,0.74383 0.59129,1.11169c0.183,0.38624 0.37863,0.75066 0.54453,1.14032c0.16149,0.37134 0.29327,0.76788 0.43765,1.14264c0.14885,0.39312 0.29772,0.78619 0.43394,1.20102c0.12732,0.37818 0.24203,0.77816 0.36938,1.15634c0.1147,0.39994 0.16116,0.81365 0.34415,1.19987c-0.00919,0.40561 0.15671,0.79529 0.23289,1.18379c0.06348,0.41023 0.16561,0.83199 0.22911,1.24223c0.05905,0.3919 0.10549,0.8056 0.1475,1.20094c0.04643,0.41372 0.02014,0.82278 0.11781,1.22614c0.41853,-0.04571 0.53797,-0.06973 0.80971,-0.27822c0.03209,-0.23717 0.06419,-0.4744 0.05322,-0.74137c-0.02425,-0.32201 -0.04847,-0.64401 -0.06009,-0.98779c-0.03141,-0.64745 -0.07551,-1.27313 -0.23084,-1.91489c-0.10653,-0.44007 -0.23013,-0.8767 -0.26836,-1.33051c-0.00512,-0.09512 -0.03176,-0.20513 -0.09251,-0.30824c-0.10448,-0.20972 -0.14509,-0.45155 -0.19838,-0.67155c-0.19529,-0.80679 -0.49298,-1.59297 -0.80334,-2.35739c-0.38955,-1.01771 -0.88968,-1.97467 -1.44106,-2.92133c-0.10003,-0.19138 -0.20004,-0.38278 -0.38917,-0.49853c-0.26491,0.01481 -0.51652,0.08464 -0.82746,0.20485zM238.39339,176.53403c0.2574,0.10203 0.49704,0.13077 0.74111,0.17781c0.20994,0.05394 0.41919,0.03107 0.60627,-0.08347c0.36593,-0.18897 0.76226,-0.32639 1.17634,-0.39041c0.03414,-0.00686 0.08092,-0.03547 0.09796,-0.0389c0.02898,-0.10197 0.01123,-0.17529 -0.06214,-0.25671c-0.02148,-0.01491 -0.06009,-0.02638 -0.07717,-0.02294c-0.50831,0.04454 -1.02545,0.05242 -1.55151,0.02361c-0.07271,-0.00462 -0.17955,-0.00234 -0.23896,0.04808c-0.25535,0.12826 -0.51066,0.25654 -0.69193,0.54297zM241.23695,177.11584c-0.47415,0.0377 -0.9401,0.03525 -1.39344,0.01103c-0.14539,-0.00919 -0.26045,0.03316 -0.38367,0.11565c-0.1826,0.13286 -0.32224,0.29557 -0.47894,0.46167c-0.0594,0.05042 -0.13585,0.10423 -0.07508,0.20738c0.31236,0.03332 0.61211,0.0884 0.91555,0.08507c0.64141,-0.45591 0.6414,-0.45587 1.45621,-0.63899c0.0379,-0.0653 0.0372,-0.1421 -0.04063,-0.2418zM241.83484,172.26543c0.32499,0.01155 0.64555,0.00477 0.9661,-0.00201c0.07271,0.00462 0.14542,0.0092 0.20924,-0.02286c0.24201,-0.18325 0.48847,-0.34824 0.65711,-0.61288c-0.25807,-0.17883 -0.52741,-0.18233 -0.79301,-0.2443c-0.13277,-0.03099 -0.23075,0.00796 -0.33692,0.08701c-0.23759,0.2016 -0.48407,0.36657 -0.752,0.51654c-0.01708,0.00343 -0.02529,0.0435 -0.05051,0.08705c0.03038,0.05156 0.06523,0.12153 0.10004,0.1914zM237.4545,172.87729c0.33079,0.18345 0.61346,0.24197 0.90053,0.31881c0.11129,0.01609 0.19217,-0.01942 0.27307,-0.05492c0.38299,-0.19242 0.77936,-0.32978 1.21049,-0.39728c0.0512,-0.01028 0.09796,-0.0389 0.14916,-0.04923c-0.03174,-0.20514 -0.05769,-0.23837 -0.19423,-0.2109c-0.44381,0.08928 -0.89269,0.08338 -1.32963,-0.021c-0.26558,-0.06196 -0.46598,-0.00244 -0.66568,0.13388c-0.10175,0.09738 -0.19084,0.17297 -0.34376,0.28063zM240.7303,174.94881c-0.02221,-0.09166 -0.09494,-0.09625 -0.16321,-0.08254c-0.4779,0.0961 -0.97423,0.04212 -1.47062,-0.0119c-0.40211,-0.03448 -0.77694,0.11782 -1.08585,0.46837c0.18468,0.09745 0.35982,0.08145 0.53561,0.14223c0.36868,0.11813 0.69297,0.0529 1.0166,-0.08908c0.35774,-0.14887 0.71108,-0.31605 1.09545,-0.35494c0.04674,-0.02865 0.05942,-0.05041 0.07203,-0.07219zM237.78224,174.15727c0.23144,0.06883 0.39018,0.13307 0.54448,0.17893c0.25296,0.0837 0.46222,0.06086 0.68341,-0.06052c0.29766,-0.17524 0.63015,-0.28058 0.96705,-0.36757c0.11506,-0.04236 0.25159,-0.06983 0.37104,-0.09386c-0.00512,-0.09512 -0.06074,-0.10314 -0.09489,-0.09627c-0.51718,0.00792 -1.03876,-0.00259 -1.56108,-0.08984c-0.08978,-0.00118 -0.16248,-0.00576 -0.24338,0.02972c-0.21677,0.13973 -0.43795,0.26113 -0.66666,0.4994zM241.38456,171.14461c0.30656,-0.13859 0.62707,-0.14535 0.9432,-0.17046c0.08534,-0.01716 0.16694,0.02411 0.24338,-0.02971c0.12325,-0.08249 0.34307,-0.35742 0.44787,-0.59003c-0.20176,-0.09406 -0.41544,-0.0895 -0.62097,-0.1251c-0.16695,-0.02412 -0.29904,0.02169 -0.41337,0.14083c-0.20344,0.19471 -0.41577,0.35282 -0.67556,0.46275c-0.01708,0.00341 -0.04232,0.04698 -0.05493,0.06872c0.00069,0.0768 0.01842,0.15013 0.13042,0.24296zM244.02897,177.18883c0.21231,-0.15808 0.50693,-0.19809 0.68887,-0.40775c-0.04813,-0.1249 -0.1468,-0.16278 -0.23282,-0.22238c-0.16763,-0.10089 -0.3055,-0.22696 -0.51546,-0.28089c-0.28061,0.17179 -0.63084,0.20381 -0.93293,0.3607c-0.02898,0.10197 -0.00684,0.19365 0.04952,0.27847c0.31681,0.05165 0.62541,0.1434 0.94288,0.27183zM242.51663,174.41644c0.17955,0.00234 0.35911,0.00469 0.50077,0.07233c0.34339,0.16167 0.62914,0.08496 0.88379,-0.12009c0.08909,-0.07558 0.19152,-0.09617 0.26732,-0.22679c-0.21509,-0.14903 -0.4339,-0.23964 -0.65273,-0.33017c-0.06009,-0.02638 -0.12835,-0.01262 -0.20923,0.02286c-0.23829,0.12486 -0.4639,0.22791 -0.70216,0.35273c-0.05121,0.01027 -0.11061,0.06072 -0.08771,0.22918zM242.79629,175.57163c0.39326,-0.00219 0.76123,0.0392 1.09203,0.22263c0.06451,0.0447 0.12835,0.01263 0.19662,-0.00111c0.14918,-0.04924 0.29393,-0.1168 0.42088,-0.25771c-0.3011,-0.20867 -0.58003,-0.3256 -0.87599,-0.43912c-0.09865,-0.03785 -0.18843,-0.03904 -0.28641,-0.00008c-0.1789,0.07438 -0.3622,0.13055 -0.54107,0.20498c-0.01708,0.00341 -0.04233,0.04698 -0.05496,0.06874c0.01331,0.05501 0.02664,0.11003 0.04884,0.20166zM237.95352,171.31552c-0.1529,0.10768 -0.32295,0.21876 -0.47589,0.32644c-0.01263,0.02174 -0.02527,0.04354 -0.0505,0.08706c0.20243,0.17082 0.4339,0.23964 0.63939,0.27523c0.49807,-0.23478 0.96194,-0.46267 1.54227,-0.5794c-0.33525,-0.20178 -0.57723,-0.01847 -0.81244,-0.02886c-0.28641,-0.00008 -0.5646,-0.04025 -0.84281,-0.08042zM238.04591,176.87318c-0.16043,0.22455 -0.32974,0.41246 -0.38707,0.69316c0.13722,0.04934 0.24476,0.12384 0.36051,0.15821c0.11572,0.0344 0.23587,0.08715 0.35536,0.06308c0.14027,-0.08591 0.21164,-0.23485 0.3089,-0.35056c0.09726,-0.11572 0.22053,-0.19818 0.27036,-0.36202c-0.30418,-0.0734 -0.58679,-0.13196 -0.90804,-0.20196zM241.55516,178.28247c-0.52977,0.02965 -0.96982,0.0605 -1.40981,0.09128c-0.03414,0.00686 -0.08979,-0.0012 -0.11504,0.04236c-0.15666,0.16611 -0.35637,0.30242 -0.41815,0.5648c0.25671,0.02529 0.49637,0.054 0.73159,0.06437c0.33488,-0.31731 0.73047,-0.53148 1.21147,-0.76283zM243.89264,172.92828c-0.15943,-0.14101 -0.33899,-0.14333 -0.49328,-0.18921c-0.17581,-0.06079 -0.33828,-0.06657 -0.50827,0.04454c-0.23382,0.14316 -0.46767,0.28634 -0.74964,0.30461c-0.00307,0.13523 0.03174,0.20514 0.13416,0.18454c0.26043,-0.03317 0.53798,-0.06974 0.7865,-0.00435c0.35982,0.08145 0.58038,-0.11671 0.83055,-0.34012zM243.95653,174.81905c0.34786,0.18 0.61858,0.33706 0.88481,0.47579c0.11946,-0.02403 0.17446,-0.09276 0.23381,-0.14316c0.05496,-0.06874 0.14846,-0.12599 0.15155,-0.26118c-0.18539,-0.17426 -0.40042,-0.32325 -0.6281,-0.45054c-0.20855,0.09964 -0.39564,0.21417 -0.64209,0.37911zM244.09603,171.77215c-0.21607,0.2165 -0.40244,0.40785 -0.60589,0.60255c0.25297,0.08371 0.48887,0.17088 0.72474,0.25803c0.19082,-0.17296 0.37346,-0.30584 0.47376,-0.55676c-0.19353,-0.13412 -0.39087,-0.2098 -0.59262,-0.30382zM237.28665,176.1029c0.15566,0.19944 0.39087,0.2098 0.58817,0.28551c0.06009,0.02638 0.14098,-0.0091 0.18332,-0.05611c0.14406,-0.14435 0.27549,-0.26691 0.40248,-0.40779c0.01708,-0.00343 0.00817,-0.04013 -0.00068,-0.07681c-0.27003,-0.08033 -0.55266,-0.13877 -0.82269,-0.21908c-0.14847,0.12598 -0.24953,0.30014 -0.35055,0.4743zM237.13668,173.19109c-0.16997,0.11111 -0.32292,0.21875 -0.3936,0.44448c0.18915,0.11579 0.38713,0.26825 0.61415,0.31875c0.10617,-0.07902 0.2212,-0.1214 0.30584,-0.21533c0.0891,-0.07557 0.2301,-0.08471 0.24133,-0.26004c-0.25739,-0.10206 -0.51477,-0.20409 -0.76778,-0.28785zM243.88645,171.27601c0.13585,-0.10424 0.18125,-0.28643 0.24371,-0.47203c-0.24031,-0.10553 -0.43834,-0.25793 -0.69503,-0.28325c-0.10105,0.17417 -0.26658,0.30359 -0.35431,0.53275c0.27003,0.08033 0.5356,0.14227 0.80563,0.22254zM240.8363,170.06272c0.31167,-0.04346 0.62265,-0.16372 0.94321,-0.17046c0.2649,-0.01484 0.37033,-0.17065 0.45364,-0.41813c-0.2188,-0.09057 -0.41544,-0.0895 -0.63356,-0.10329c-0.21536,0.29328 -0.51749,0.45023 -0.76325,0.69193zM241.56475,179.35731c-0.03482,-0.06993 -0.08601,-0.0596 -0.13722,-0.04934c-0.22631,0.02629 -0.46528,0.07435 -0.69605,0.0823c-0.34204,-0.0081 -0.46834,0.20958 -0.5984,0.48573c0.12838,0.01263 0.22255,0.03212 0.31233,0.03331c0.21813,0.01378 0.41031,-0.00561 0.55813,-0.20839c0.09726,-0.11571 0.24204,-0.18326 0.36969,-0.24744c0.07271,0.00462 0.16692,0.02411 0.1915,-0.09618zM244.64278,177.94984c-0.09044,-0.07794 -0.17205,-0.11923 -0.23656,-0.16393c-0.18091,-0.1559 -0.34787,-0.18002 -0.54381,-0.10215c-0.16179,0.07097 -0.35401,0.0904 -0.52024,0.14307c-0.05122,0.01027 -0.10685,0.00226 -0.09286,0.13406c0.26115,0.04366 0.5312,0.1239 0.79302,0.24431c0.06009,0.02638 0.14538,0.00921 0.21367,-0.00451c0.12764,-0.06412 0.2383,-0.12483 0.38675,-0.25084zM244.31764,173.1313c-0.15292,0.10766 -0.32734,0.20043 -0.4499,0.35971c0.23215,0.14558 0.43457,0.31639 0.68752,0.40011c0.14404,-0.14435 0.30141,-0.23366 0.35502,-0.45597c-0.18914,-0.11579 -0.36562,-0.25339 -0.59263,-0.30383zM238.1291,174.70288c-0.23215,-0.14557 -0.46359,-0.21439 -0.68615,-0.24653c-0.14405,0.14433 -0.27545,0.26691 -0.38915,0.46284c0.13793,0.1261 0.29668,0.1903 0.46804,0.23274c0.19524,-0.15463 0.39494,-0.29096 0.60728,-0.44902zM245.49779,174.60524c0.09286,-0.13407 0.16487,-0.2062 0.21093,-0.31163c0.03788,-0.06532 0.05872,-0.12718 0.07952,-0.18907c-0.12972,-0.16619 -0.28914,-0.30719 -0.48646,-0.38288c-0.14847,0.12598 -0.29695,0.25202 -0.37205,0.45943c0.19353,0.13412 0.35298,0.27511 0.56804,0.42414zM243.31251,178.8135c0.25366,0.16048 0.42567,0.27971 0.63631,0.41042c0.07271,0.00462 0.18773,-0.03773 0.27684,-0.11336c0.09351,-0.05727 0.22188,-0.04464 0.2806,-0.17181c-0.09116,-0.15473 -0.20312,-0.24757 -0.3448,-0.31524c-0.26866,0.07327 -0.5247,0.12473 -0.84897,0.18996zM237.29383,177.38974c0.06316,-0.10888 0.12631,-0.21772 0.18947,-0.32652c0.06314,-0.10889 0.10921,-0.21427 0.17236,-0.3231c-0.21879,-0.09059 -0.38644,-0.19149 -0.58306,-0.19042c-0.08909,0.0756 -0.0966,0.19248 -0.12563,0.29444c-0.02898,0.10197 -0.10921,0.21427 -0.06109,0.33915c0.14614,0.086 0.25807,0.17883 0.40795,0.20638zM245.05427,172.32932c-0.13516,0.18102 -0.31783,0.31389 -0.40107,0.56142c0.16763,0.10085 0.3308,0.18344 0.49841,0.28433c0.13516,-0.18101 0.26217,-0.32193 0.29423,-0.55912c-0.11641,-0.11118 -0.19868,-0.22925 -0.39157,-0.28661zM239.47015,178.39417c-0.33385,-0.04825 -0.62913,-0.08499 -0.92438,-0.12173c-0.08468,0.09394 -0.17379,0.16953 -0.17682,0.30475c0.23659,0.16393 0.4977,0.20757 0.76329,0.2695c0.08468,-0.09396 0.16933,-0.18787 0.23247,-0.2967c0.06385,-0.03206 0.07201,-0.07217 0.10547,-0.15579zM244.95674,175.77154c-0.16112,0.1478 -0.36596,0.18899 -0.46699,0.36315c0.2195,0.16736 0.41751,0.31981 0.65786,0.42533c0.08842,-0.15241 0.25909,-0.18669 0.31712,-0.39066c-0.12971,-0.16617 -0.31,-0.24533 -0.50797,-0.3978zM236.61267,172.4313c0.13348,0.10775 0.27958,0.19372 0.4339,0.23961c0.17818,-0.15123 0.36081,-0.28407 0.57312,-0.44217c-0.21435,-0.07224 -0.37755,-0.1548 -0.58373,-0.26719c-0.1782,0.15123 -0.34376,0.28065 -0.42329,0.46973zM244.99609,177.78264c0.20415,-0.11796 0.37857,-0.21075 0.47074,-0.42155c-0.12085,-0.12951 -0.22016,-0.24415 -0.37449,-0.29004c-0.18706,0.11452 -0.37854,0.21073 -0.59531,0.35047c0.15943,0.14101 0.31442,0.26364 0.49909,0.3611zM237.04766,174.22815c-0.23587,-0.08715 -0.38716,-0.26826 -0.58378,-0.26717c-0.14405,0.14433 -0.21095,0.31163 -0.25636,0.49383c0.15499,0.12264 0.29289,0.24875 0.49395,0.26602c0.10547,-0.1558 0.21536,-0.29331 0.34612,-0.49264zM244.50395,171.01715c-0.08841,0.1524 -0.18568,0.26808 -0.21401,0.44685c0.2188,0.09057 0.38711,0.26826 0.62677,0.29699c0.09287,-0.13406 0.1345,-0.25781 0.11162,-0.42627c-0.17205,-0.11922 -0.35672,-0.21669 -0.52434,-0.31755zM239.36705,179.29938c-0.10993,0.13748 -0.15596,0.24286 -0.17616,0.38154c0.16763,0.10089 0.36493,0.17659 0.56973,0.13536c0.07577,-0.13062 0.15154,-0.2612 0.24441,-0.39527c-0.22325,-0.10894 -0.4325,-0.08606 -0.63801,-0.12164zM241.90942,168.65462c-0.05871,0.12715 -0.1048,0.2326 -0.09523,0.34602c0.19727,0.07568 0.38575,0.11467 0.58238,0.11359c0.08023,-0.11224 0.1263,-0.21767 0.12936,-0.35289c-0.20176,-0.09406 -0.41101,-0.07115 -0.6165,-0.10673zM245.92579,173.71154c0.17818,-0.15119 0.15974,-0.30132 0.10274,-0.46292c-0.03104,-0.12834 -0.09628,-0.24985 -0.24614,-0.27738c-0.10993,0.13748 -0.20277,0.27151 -0.24816,0.4537c0.13348,0.10775 0.26251,0.19717 0.39155,0.2866zM237.76196,170.45035c-0.14028,0.0859 -0.2768,0.11335 -0.33109,0.25886c0.37893,0.30835 0.68105,0.15149 0.99506,-0.10399c-0.22699,-0.0505 -0.43698,-0.10442 -0.66396,-0.1549zM245.94605,175.4957c-0.1082,-0.15131 -0.22017,-0.24414 -0.40043,-0.32326c-0.05424,0.14552 -0.22051,0.19821 -0.25326,0.35861c0.0437,0.10661 0.12083,0.12952 0.18978,0.19258c0.086,0.05958 0.14235,0.14442 0.26183,0.12041c0.08468,-0.09396 0.16933,-0.18791 0.20208,-0.34832zM240.55996,174.54085c0.05358,-0.22227 -0.00716,-0.32545 -0.16521,-0.31286c-0.22631,0.02628 -0.44378,0.08924 -0.64415,0.14879c-0.06826,0.0137 -0.14917,0.04927 -0.15669,0.16611c0.32942,0.02987 0.64994,0.02309 0.96605,-0.00201zM244.28509,169.96516c0.09353,-0.05726 0.12699,-0.14092 0.11745,-0.25438c-0.19801,-0.15248 -0.38781,-0.34506 -0.6534,-0.40702c-0.04914,0.24064 0.02492,0.39883 0.22667,0.49282c0.08602,0.0596 0.16389,0.15936 0.30929,0.16856zM239.7945,172.11818c-0.06213,-0.25667 -0.10964,-0.30483 -0.2632,-0.27395c-0.23452,0.0664 -0.48611,0.13621 -0.70285,0.27596c0.34274,0.0849 0.66397,0.15489 0.96607,-0.00202zM240.85704,169.03937c0.14096,-0.00911 0.26048,-0.03319 0.38436,-0.03885c0.2434,-0.02969 0.24339,-0.02974 0.24886,-0.37695c-0.12838,-0.01263 -0.27825,-0.04019 -0.35091,-0.04477c-0.10106,0.17415 -0.19387,0.3082 -0.28228,0.46057zM235.9331,175.31753c0.11196,0.09287 0.18608,0.25101 0.37382,0.21325c0.05872,-0.12718 0.09591,-0.26927 0.16725,-0.41821c-0.13349,-0.10776 -0.25429,-0.2373 -0.40417,-0.26483c-0.05423,0.14555 -0.13006,0.27614 -0.13689,0.4698zM242.47622,169.88673c0.24407,0.04702 0.49259,0.11246 0.73667,0.15947c0.07643,-0.05385 0.13142,-0.12255 0.07066,-0.22568c-0.19353,-0.13412 -0.41239,-0.22474 -0.64759,-0.23511c-0.08468,0.09394 -0.13516,0.18101 -0.15973,0.30135zM236.69255,171.79987c-0.04813,-0.1249 -0.13859,-0.20289 -0.25877,-0.25561c-0.05942,0.0504 -0.11878,0.1008 -0.17818,0.15122c-0.07204,0.07214 -0.14848,0.12603 -0.15596,0.24289c0.02662,0.11003 0.08292,0.19481 0.18606,0.251c0.13143,-0.1226 0.27546,-0.26694 0.4069,-0.38946zM237.22553,175.48063c-0.13349,-0.10776 -0.27073,-0.15708 -0.42057,-0.18463c-0.06692,0.16726 -0.13823,0.31623 -0.1925,0.46172c0.08675,0.13639 0.20689,0.18914 0.31375,0.18688c0.10549,-0.15579 0.21094,-0.31163 0.2994,-0.464zM237.04412,170.96009c-0.08909,0.0756 -0.17818,0.15119 -0.26287,0.24513c-0.01261,0.02174 -0.00375,0.05846 -0.01193,0.09859c0.06894,0.06305 0.1297,0.16619 0.27959,0.19373c0.12323,-0.08251 0.28501,-0.15351 0.39049,-0.3093c-0.12086,-0.1295 -0.24101,-0.18223 -0.39531,-0.22812zM238.27669,169.69295c-0.19219,0.01943 -0.27517,-0.1754 -0.44583,-0.14107c-0.11875,0.10079 -0.26797,0.15 -0.36899,0.32417c0.11641,0.11118 0.22841,0.20404 0.36867,0.11811c0.14029,-0.0859 0.29832,-0.09845 0.44615,-0.30123zM243.3108,169.04583c-0.13722,-0.04931 -0.27891,-0.11695 -0.39904,-0.16971c-0.0215,-0.01491 -0.05122,0.01029 -0.08534,0.01718c-0.01193,0.09855 -0.07511,0.20738 0.01608,0.3621c0.15872,0.06419 0.33454,0.12502 0.51481,0.20411c0.03722,-0.14207 0.02763,-0.25554 -0.04643,-0.41372zM236.47115,176.2092c-0.07579,0.1306 -0.16863,0.26465 -0.23176,0.37349c0.09115,0.15472 0.20312,0.24761 0.31066,0.3221c0.11507,-0.04238 0.10101,-0.17413 0.13449,-0.25781c0.03344,-0.08367 0.08397,-0.17072 0.03582,-0.29565c-0.05189,-0.06648 -0.12087,-0.12952 -0.24923,-0.14218zM245.75116,177.13087c0.09726,-0.11572 0.16489,-0.20623 0.23246,-0.29672c0.02971,-0.0252 0.03346,-0.08365 0.04609,-0.10543c-0.03104,-0.12834 -0.12152,-0.20632 -0.24171,-0.25903c-0.11434,0.11915 -0.23314,0.21997 -0.32158,0.37228c0.07784,0.0997 0.16831,0.17767 0.28471,0.28885zM240.72014,168.5478c-0.23966,-0.02875 -0.47927,-0.05742 -0.70492,0.04561c0.09115,0.1547 0.14374,0.29801 0.30246,0.36221c0.26797,-0.15 0.26798,-0.15002 0.40245,-0.40782zM246.10958,175.13601c0.24886,-0.37696 0.2444,-0.39525 -0.00623,-0.69099c-0.09286,0.13407 -0.16417,0.28298 -0.25706,0.41702c0.04813,0.1249 0.1386,0.20284 0.26319,0.27396zM236.33344,172.75657c-0.11435,0.11914 -0.19456,0.23144 -0.22735,0.39186c0.02595,0.03324 0.07339,0.0814 0.12085,0.12954c0.04303,0.0298 0.10312,0.0562 0.14609,0.08597c0.11434,-0.11916 0.25021,-0.22341 0.30005,-0.38726c-0.07783,-0.0997 -0.20243,-0.17082 -0.33967,-0.2201zM245.21529,178.39235c-0.04745,-0.04812 -0.11643,-0.11116 -0.17207,-0.11923c-0.20109,-0.01726 -0.36281,0.05376 -0.51954,0.21989c0.09488,0.0963 0.16454,0.23609 0.28029,0.2705c0.15292,-0.10766 0.33623,-0.16377 0.41132,-0.37115zM238.20539,178.93699c-0.01263,0.02174 -0.02526,0.04353 -0.0505,0.08706c0.19428,0.21091 0.42638,0.35651 0.65852,0.50208c0.10615,-0.07903 0.13959,-0.16267 0.12117,-0.31279c-0.23587,-0.08715 -0.47619,-0.19261 -0.72918,-0.27636zM239.3648,173.30067c0.28266,0.05852 0.55266,0.13878 0.83837,0.0621c0.01708,-0.00341 0.03342,-0.08364 0.02456,-0.1203c-0.02222,-0.09166 -0.10822,-0.15128 -0.19355,-0.13406c-0.23521,-0.01039 -0.44822,0.07093 -0.66939,0.1923zM235.88253,173.48185c-0.08024,0.11226 -0.16045,0.22455 -0.19766,0.36663c0.03106,0.12835 0.08739,0.21316 0.22904,0.28082c0.07134,-0.14896 0.15977,-0.30133 0.21402,-0.44682c-0.06074,-0.10312 -0.12972,-0.16617 -0.24545,-0.20058zM245.70797,172.29399c-0.04508,-0.26013 -0.08123,-0.4836 -0.25397,-0.67959c-0.14028,0.0859 -0.17751,0.22797 -0.19321,0.38497c0.13793,0.12608 0.25432,0.23728 0.44722,0.29462zM243.92769,179.72809c-0.14237,-0.14444 -0.16382,-0.15934 -0.21507,-0.14905c-0.17511,0.01597 -0.30655,0.13857 -0.42088,0.25771c-0.04232,0.04695 -0.03717,0.14209 0.07854,0.1765c0.12699,-0.1409 0.36665,-0.11219 0.55743,-0.28519zM238.14735,178.17955c-0.24031,-0.10553 -0.46804,-0.23276 -0.76262,-0.1927c0.1816,0.23265 0.41752,0.31983 0.61926,0.41382c0.08091,-0.03548 0.1017,-0.09736 0.14333,-0.22112zM246.02492,176.19129c0.0734,0.08138 0.12973,0.16617 0.20312,0.24756c0.13145,-0.12259 0.22428,-0.25663 0.12424,-0.44802c-0.03037,-0.05159 -0.06076,-0.10312 -0.13348,-0.10775c-0.09352,0.05726 -0.13962,0.16269 -0.19387,0.3082zM239.32646,170.92398c-0.03997,-0.16503 -0.09181,-0.23149 -0.22391,-0.18569c-0.11506,0.04236 -0.2301,0.08474 -0.34069,0.14546c-0.04673,0.02865 -0.08912,0.07561 -0.05429,0.14552c0.21812,0.01381 0.40588,-0.02396 0.61888,-0.10527zM240.67172,177.96025c0.23967,0.02874 0.47042,0.02074 0.67899,-0.07888c0.01709,-0.00344 0.03341,-0.08366 0.02898,-0.10197c-0.00886,-0.03664 -0.06894,-0.06305 -0.1031,-0.05617c-0.21744,0.06295 -0.43117,0.0675 -0.60493,0.23704zM241.46507,178.72359c-0.15737,0.08933 -0.34515,0.12711 -0.50627,0.27485c0.24407,0.04703 0.44071,0.04594 0.52978,-0.02966c0.09352,-0.05726 0.0758,-0.13062 -0.02356,-0.24521zM245.0726,170.55663c-0.10448,-0.20973 -0.16664,-0.46646 -0.40251,-0.55359c-0.05664,0.35749 0.17923,0.44463 0.40251,0.55359zM242.02841,171.43816c-0.00887,-0.03664 -0.0304,-0.05163 -0.03927,-0.08828c-0.16622,0.05268 -0.3376,0.01023 -0.46902,0.13281c0.00954,0.11345 0.03996,0.16502 0.13861,0.20285c0.10615,-0.07903 0.22938,-0.1615 0.3697,-0.24744zM240.17626,175.61786c0.25227,0.00694 0.44889,0.00584 0.64928,-0.05367c0.03414,-0.00686 0.05939,-0.05038 0.04608,-0.10539c-0.00444,-0.01836 -0.03038,-0.05157 -0.0519,-0.06648c-0.23966,-0.02875 -0.44445,0.01248 -0.64345,0.22556zM245.34465,178.03947c0.06076,0.10313 0.10819,0.15127 0.15055,0.10431c0.10615,-0.07903 0.20787,-0.17642 0.30962,-0.27379c0.05496,-0.06874 0.04166,-0.12373 -0.03995,-0.165c-0.17445,0.09274 -0.31475,0.17868 -0.42021,0.33448zM235.75932,174.52569c-0.06894,-0.06305 -0.12087,-0.12952 -0.18981,-0.19259c-0.02148,-0.01492 -0.05565,-0.00802 -0.11129,-0.01609c0.05323,0.22001 0.05088,0.43199 0.17684,0.65665c0.07134,-0.14896 0.11742,-0.25437 0.12423,-0.44802zM242.95605,176.23172c0.16623,-0.05266 0.31544,-0.10191 0.51582,-0.16143c-0.21509,-0.14902 -0.38199,-0.17315 -0.54823,-0.12047c-0.029,0.10198 -0.03277,0.16042 0.03242,0.28192zM241.13569,170.56018c0.10175,-0.09738 0.29832,-0.09844 0.35192,-0.32075c-0.42295,0.0274 -0.50826,0.04454 -0.52024,0.14311c0.02222,0.09166 0.06965,0.13983 0.16831,0.17767zM240.47675,176.71115c0.30927,0.16855 0.51408,0.12731 0.75236,0.00251c-0.26697,-0.2155 -0.47038,-0.02073 -0.75236,-0.00251zM238.25928,170.13872c0.28777,0.15364 0.47556,0.11589 0.67148,0.038c0.01708,-0.00343 0.02525,-0.04354 0.01638,-0.0802c-0.01331,-0.05502 -0.05634,-0.08481 -0.09045,-0.07793c-0.1751,0.01596 -0.34133,0.06863 -0.59736,0.12015zM240.6666,169.73145c0.14028,-0.0859 0.30656,-0.13859 0.38161,-0.34592c-0.18401,-0.02067 -0.33317,0.02856 -0.46527,0.07434c-0.02458,0.12031 0.01024,0.19019 0.08365,0.2716zM237.22427,170.07772c-0.12256,0.15927 -0.3103,0.19701 -0.3342,0.39411c0.25227,0.00694 0.25225,0.00694 0.4424,-0.2428c-0.02595,-0.03324 -0.05189,-0.06648 -0.1082,-0.15129zM244.19561,170.48301c-0.11335,-0.2464 -0.29803,-0.34387 -0.49534,-0.41954c-0.08909,0.0756 -0.07134,0.14896 -0.00684,0.19365c0.15874,0.06417 0.32194,0.14676 0.50216,0.22587zM236.04495,172.52618c-0.0437,-0.10661 -0.08294,-0.19483 -0.19867,-0.22922c-0.06758,0.09049 -0.1352,0.18102 -0.12563,0.29442c0.03924,0.08824 0.08673,0.13638 0.16389,0.15934c0.07644,-0.05386 0.11434,-0.11915 0.16042,-0.22455zM242.70198,173.62923c-0.14985,-0.02755 -0.26118,-0.04363 -0.3547,0.01365c-0.02971,0.0252 -0.0379,0.0653 -0.04609,0.10542c0.01331,0.05502 0.0652,0.1215 0.11195,0.09287c0.10243,-0.0206 0.22189,-0.04463 0.28881,-0.21194zM235.85631,175.81371c-0.01125,0.17533 0.10961,0.30485 0.17925,0.44466c0.16864,-0.26467 0.15972,-0.30133 -0.17925,-0.44466zM241.69651,179.75383c-0.27378,-0.02184 -0.27377,-0.02185 -0.33625,0.16378c0.11129,0.01609 0.23967,0.02871 0.33625,-0.16378zM241.97038,172.60352c-0.03344,0.08367 -0.02013,0.13865 0.01843,0.15011c0.15874,0.06417 0.2055,0.03558 0.31916,-0.16036c-0.13277,-0.03099 -0.23523,-0.0104 -0.33764,0.01021zM238.20945,169.3412c0.10755,0.0745 0.21065,0.13067 0.32123,0.07001c-0.12224,-0.28307 -0.16076,-0.29453 -0.32123,-0.07001zM241.19237,180.25898c0.14614,0.086 0.28708,0.07688 0.41097,0.07118c0.06826,-0.01371 0.10618,-0.07905 0.01126,-0.17533c-0.12389,0.00571 -0.26493,0.01481 -0.42226,0.10414zM236.44529,170.92661c0.17955,0.00234 0.25159,-0.06981 0.25022,-0.22338c0,0 -0.02595,-0.03324 -0.04303,-0.0298c-0.10686,0.00228 -0.14849,0.12597 -0.20724,0.25317zM242.86281,174.88524c-0.06076,-0.10313 -0.13793,-0.1261 -0.20173,-0.09403c-0.03414,0.00686 -0.0594,0.05042 -0.0676,0.0905c-0.00817,0.04011 0.03925,0.08823 0.07339,0.08135c0.05565,0.00805 0.1239,-0.00568 0.19595,-0.07784zM235.59031,173.3098c0.10174,-0.09737 0.1352,-0.18102 0.03138,-0.31397c-0.11434,0.11916 -0.13074,0.19935 -0.03138,0.31397z" fill="#000000"/><path d="M248.92399,173.89689c-0.12494,-0.59018 -0.24991,-1.18039 -0.39195,-1.76713c-0.15979,-0.66011 -0.38784,-1.30645 -0.69681,-1.91731c-0.10004,-0.19139 -0.22528,-0.33924 -0.3468,-0.54553c0.27312,-0.05494 0.50757,-0.12134 0.75097,-0.15105c1.45149,-0.21502 2.89783,-0.52512 4.35748,-0.78025c1.30606,-0.2242 2.5906,-0.46336 3.89222,-0.70593c0.89197,-0.16018 1.76692,-0.31691 2.65888,-0.47706c0.8408,-0.14988 1.6556,-0.33298 2.49636,-0.48289c0.06828,-0.01372 0.13656,-0.02745 0.20926,-0.02286c0.2499,0.21892 0.40178,0.47683 0.54554,0.77476c0.22224,0.47449 0.41479,0.97414 0.52199,1.49097c0.03997,0.16503 0.09697,0.3266 0.04711,0.49045c-0.0741,-0.15817 -0.06728,-0.35179 -0.20142,-0.53633c-0.24201,0.18324 -0.54547,0.18662 -0.81415,0.25989c-0.01708,0.00343 -0.03412,0.00685 -0.02971,0.02519c-0.42533,0.23934 -0.92031,0.3389 -1.37605,0.52672c-0.16179,0.07099 -0.31029,0.19702 -0.48983,0.19469c-0.35025,0.03196 -0.63459,0.26224 -0.98486,0.29423c-0.01708,0.00343 -0.04676,0.02864 -0.08093,0.03549c-0.31093,0.12024 -0.60045,0.25533 -0.92029,0.33891c-0.37549,0.07553 -0.68139,0.29087 -1.06573,0.32973c-0.19524,0.15463 -0.42602,0.16256 -0.66053,0.22896c-0.03414,0.00686 -0.05123,0.01031 -0.08533,0.01715c-0.30587,0.21535 -0.68204,0.21411 -1.00567,0.35611c-0.3236,0.14199 -0.69092,0.17743 -1.01896,0.3011c-0.37927,0.13395 -0.72808,0.31951 -1.15107,0.34686c-0.03414,0.00686 -0.08536,0.01715 -0.11506,0.04236c-0.16112,0.1478 -0.37925,0.13395 -0.57965,0.19347c-0.10243,0.0206 -0.2263,0.02628 -0.31986,0.08357c-0.13587,0.1042 -0.27684,0.11336 -0.43047,0.14425c-0.08535,0.01716 -0.17514,0.01598 -0.23451,0.06641c-0.19524,0.15463 -0.44308,0.16603 -0.66495,0.21066c-0.08535,0.01716 -0.17511,0.01602 -0.23452,0.06639c-0.16556,0.1294 -0.35774,0.14887 -0.54552,0.18661c-0.30725,0.06182 -0.58338,0.25192 -0.89504,0.29538c-0.05565,-0.00802 -0.09354,0.05724 -0.14028,0.08591z" fill="#87d7dc"/><path d="M248.92402,173.89688c0.04676,-0.02862 0.08466,-0.09395 0.13587,-0.10425c0.31166,-0.04348 0.59225,-0.21526 0.89504,-0.29539c0.18774,-0.03776 0.37996,-0.05719 0.5455,-0.18661c0.05942,-0.0504 0.14919,-0.04925 0.23448,-0.06642c0.22188,-0.04465 0.46528,-0.07433 0.665,-0.21063c0.0594,-0.05042 0.15363,-0.03091 0.23451,-0.06642c0.1536,-0.0309 0.29017,-0.05836 0.43047,-0.14425c0.09352,-0.05726 0.21749,-0.06296 0.31987,-0.08357c0.20037,-0.05954 0.41852,-0.04573 0.57963,-0.1935c0.02971,-0.0252 0.08091,-0.03549 0.11504,-0.04237c0.40588,-0.02396 0.77185,-0.21293 1.15108,-0.34689c0.34515,-0.12711 0.71241,-0.16251 1.01897,-0.30106c0.32358,-0.142 0.69979,-0.14076 1.00564,-0.35609c0.01265,-0.02174 0.05122,-0.01029 0.08536,-0.01717c0.22188,-0.04465 0.46526,-0.07436 0.66055,-0.229c0.38883,-0.0205 0.69466,-0.23588 1.06573,-0.3297c0.32429,-0.06522 0.60932,-0.2187 0.9203,-0.33889c0.03414,-0.00686 0.04677,-0.02868 0.08091,-0.03552c0.35025,-0.03196 0.63457,-0.26224 0.98485,-0.29423c0.19218,-0.01943 0.32363,-0.14199 0.48983,-0.19469c0.46015,-0.16946 0.95071,-0.28736 1.37603,-0.52671c0.01708,-0.00343 0.02969,-0.02523 0.02969,-0.02523c0.26867,-0.07328 0.57215,-0.07661 0.81416,-0.25991c0.12972,0.16618 0.10582,0.36329 0.20141,0.53635c0.03552,0.14667 0.07099,0.29336 -0.00037,0.44233c-0.10243,0.0206 -0.2263,0.02628 -0.31982,0.08357c-0.32734,0.20044 -0.69026,0.25416 -1.03982,0.36295c-0.34952,0.10875 -0.67689,0.30921 -1.06571,0.32972c-0.19524,0.15463 -0.42602,0.16261 -0.66053,0.229c-0.03414,0.00686 -0.08534,0.01716 -0.11504,0.04237c-0.13145,0.12259 -0.31097,0.12022 -0.46018,0.16946c-0.08535,0.01716 -0.17067,0.03436 -0.2345,0.0664c-0.35332,0.16722 -0.72809,0.31953 -1.12069,0.39847c-0.05122,0.01027 -0.12395,0.00567 -0.14917,0.04923c-0.14846,0.12598 -0.32359,0.14201 -0.49428,0.17634c-0.19218,0.01943 -0.3318,0.18214 -0.54105,0.20495c-0.27753,0.03659 -0.51136,0.17978 -0.77557,0.27136c-0.36664,0.1122 -0.69842,0.29429 -1.09099,0.37322c-0.06828,0.01372 -0.15807,0.01256 -0.20038,0.05955c-0.11881,0.10078 -0.27681,0.11339 -0.426,0.16258c-0.13654,0.02745 -0.26864,0.07325 -0.37927,0.13394c-0.20415,0.11796 -0.41714,0.19928 -0.6561,0.24737c-0.35398,0.09042 -0.68135,0.29088 -1.07015,0.3114c-0.03414,0.00686 -0.08091,0.03545 -0.11506,0.04236c-0.34515,0.12711 -0.68578,0.27256 -1.03978,0.36294c-0.37549,0.07553 -0.7155,0.29774 -1.09988,0.33657c-0.05122,0.01027 -0.09351,0.05728 -0.14028,0.08591c-0.213,0.0813 -0.44752,0.1477 -0.68272,0.13731c-0.03926,-0.08825 -0.05703,-0.16157 -0.09183,-0.23149c-0.01093,-0.26701 -0.03006,-0.4939 -0.07069,-0.7357z" fill="#b0eef2"/><path d="M238.63135,168.7179c0.31094,-0.12022 0.56257,-0.19004 0.83635,-0.16819c0.17206,0.11924 0.2721,0.3106 0.38917,0.49854c0.53427,0.95011 1.05147,1.90364 1.44105,2.92132c0.29326,0.76786 0.591,1.55404 0.80335,2.35737c0.05324,0.22002 0.0939,0.46183 0.19835,0.67158c0.03926,0.08825 0.06587,0.19828 0.09251,0.30825c0.03825,0.4538 0.17891,0.88699 0.26837,1.3305c0.13386,0.62686 0.19943,1.26746 0.23085,1.91488c0.00718,0.32543 0.03144,0.64747 0.06014,0.98779c0.02798,0.26355 -0.02115,0.50418 -0.05323,0.74139c-0.27619,0.19013 -0.39119,0.2325 -0.80971,0.2782c-0.08059,-0.40679 -0.07139,-0.81245 -0.11781,-1.22614c-0.042,-0.39535 -0.08845,-0.80901 -0.1475,-1.20095c-0.06348,-0.41024 -0.14853,-0.83543 -0.22909,-1.24222c-0.05905,-0.3919 -0.22503,-0.78156 -0.23288,-1.18383c-0.18299,-0.38625 -0.22941,-0.79991 -0.34415,-1.19987c-0.11027,-0.38162 -0.24206,-0.77813 -0.36942,-1.15635c-0.13178,-0.39653 -0.28065,-0.78959 -0.4339,-1.20106c-0.14442,-0.37476 -0.27618,-0.77127 -0.4377,-1.14262c-0.16593,-0.38965 -0.36153,-0.7541 -0.54452,-1.14035c-0.18744,-0.40456 -0.3489,-0.77588 -0.60017,-1.14839z" fill="#d1eaeb"/><path d="M249.00737,174.61082c0.03482,0.06991 0.05258,0.14326 0.09185,0.23148c0.23522,0.01037 0.45707,-0.03425 0.68272,-0.13731c0.04677,-0.02862 0.0891,-0.0756 0.14028,-0.0859c0.38435,-0.03884 0.72884,-0.24275 1.09987,-0.33658c0.35844,-0.0721 0.69466,-0.23584 1.03981,-0.36291c0.03414,-0.00686 0.08092,-0.03549 0.11504,-0.04237c0.38882,-0.0205 0.69467,-0.23583 1.07017,-0.31136c0.22188,-0.04465 0.45195,-0.12937 0.65609,-0.24737c0.12763,-0.06411 0.25976,-0.10994 0.37925,-0.13396c0.1536,-0.0309 0.29458,-0.04002 0.42601,-0.1626c0.04232,-0.04694 0.13212,-0.04579 0.20039,-0.05951c0.37549,-0.07553 0.72433,-0.26109 1.09098,-0.37325c0.26423,-0.09158 0.49803,-0.23479 0.77558,-0.27136c0.19218,-0.01943 0.33179,-0.1821 0.54105,-0.20495c0.17512,-0.01599 0.3673,-0.03542 0.4943,-0.17631c0.04677,-0.02862 0.09795,-0.03893 0.14914,-0.04926c0.39256,-0.07895 0.7503,-0.22777 1.12068,-0.39847c0.08091,-0.03548 0.17067,-0.03435 0.23449,-0.06637c0.1536,-0.0309 0.32873,-0.04692 0.46013,-0.16948c0.02971,-0.0252 0.0809,-0.0355 0.11504,-0.04235c0.22188,-0.04465 0.46528,-0.07435 0.66054,-0.22899c0.38882,-0.02051 0.71617,-0.22096 1.0657,-0.32972c0.34952,-0.10875 0.72946,-0.16594 1.03977,-0.36293c0.09353,-0.05726 0.21746,-0.06293 0.31986,-0.08357c0.05701,0.1616 -0.01875,0.29219 -0.00473,0.42398c-0.69464,0.23586 -1.35078,0.48319 -2.0113,0.71217c-0.72438,0.26105 -1.4361,0.50036 -2.16489,0.7431c-0.67762,0.23243 -1.35078,0.48321 -2.02393,0.73396c-0.83941,0.30342 -1.65729,0.62176 -2.47964,0.92176c-0.62641,0.22213 -1.25282,0.44423 -1.87475,0.68472c-0.9715,0.34924 -1.97787,0.62856 -2.94048,1.01447c-0.13209,0.04579 -0.25532,0.12828 -0.42224,0.10416c-0.03997,-0.16503 -0.02869,-0.34033 -0.03452,-0.51225c0.01193,-0.09854 -0.06215,-0.25669 -0.01232,-0.42058z" fill="#87d7dc"/><path d="M263.30622,169.35052c-0.12735,-0.37819 -0.18199,-0.75178 -0.32642,-1.1265c-0.17479,-0.42634 -0.36668,-0.84923 -0.66092,-1.25152c0.98996,-0.19911 1.96283,-0.39479 2.91865,-0.58704c0.23658,0.16391 0.36252,0.38857 0.50115,0.59144c0.25571,0.39083 0.39191,0.80569 0.53258,1.23889c0.00444,0.01836 -0.00376,0.05843 -0.01636,0.08021c-0.14235,-0.14443 -0.26556,-0.06195 -0.39324,0.0022c-0.31918,0.16035 -0.64276,0.30236 -0.98857,0.35265c-0.06828,0.01372 -0.13655,0.02747 -0.20036,0.05954c-0.29768,0.17526 -0.64345,0.22556 -0.95446,0.34581c-0.1789,0.07438 -0.30648,0.1386 -0.41199,0.29439z" fill="#61afb4"/><path d="M246.8039,175.34242c-0.05293,-0.66234 -0.22534,-1.30064 -0.32951,-1.95269c-0.05393,-0.2968 -0.15912,-0.58332 -0.26427,-0.86984c-0.16728,-0.54322 -0.27073,-1.11847 -0.50634,-1.64795c-0.08738,-0.21318 -0.17478,-0.42634 -0.2748,-0.61774c-0.06521,-0.1215 -0.11335,-0.24637 -0.14442,-0.37476c0.04673,-0.02865 0.07647,-0.05383 0.11062,-0.06069c0.13653,-0.02743 0.27307,-0.05494 0.40961,-0.08242c0.07341,0.08137 0.12527,0.14788 0.1816,0.23266c0.36459,0.61886 0.73365,1.25613 0.90676,1.97126c0.16799,0.62001 0.3404,1.25826 0.44012,1.89203c0.08572,0.50196 0.18848,1.00044 0.13321,1.5115c-0.05635,-0.08479 -0.03176,-0.20513 -0.15191,-0.25784c-0.19662,0.00109 -0.43184,-0.00929 -0.51066,0.25654z" fill="#61aeb3"/><path d="M247.84092,174.67238c-0.10959,-0.30485 -0.07817,-0.6188 -0.13657,-0.93395c-0.14274,-0.66354 -0.28542,-1.32706 -0.47936,-1.98028c-0.16284,-0.52486 -0.38957,-1.01769 -0.64593,-1.48529c-0.06521,-0.1215 -0.1304,-0.24294 -0.19563,-0.36444c0.23896,-0.04807 0.44378,-0.08931 0.66567,-0.1339c0.25807,0.17883 0.40997,0.43673 0.53223,0.71979c0.15263,0.33464 0.30963,0.68761 0.41547,1.05091c0.26797,0.81139 0.42915,1.62505 0.61183,2.45359c0.0355,0.14667 0.07103,0.29339 0.01675,0.4389c-0.08535,0.01716 -0.17511,0.01603 -0.23451,0.06641c-0.15293,0.10766 -0.3622,0.13055 -0.54991,0.16831z" fill="#61aeb3"/><path d="M263.30623,169.35053c0.09286,-0.13407 0.21607,-0.2165 0.38232,-0.26917c0.31096,-0.12021 0.6568,-0.17054 0.95442,-0.3458c0.06385,-0.03207 0.13212,-0.04582 0.2004,-0.05954c0.35844,-0.07211 0.66495,-0.21066 0.98855,-0.35266c0.11063,-0.06069 0.25089,-0.14663 0.39326,-0.00219c0.08364,0.27161 0.11165,0.53516 0.08401,0.7907c-0.22565,0.10309 -0.44686,0.22446 -0.69467,0.23588c-0.03414,0.00686 -0.08091,0.03549 -0.11504,0.04237c-0.32802,0.12367 -0.67316,0.25078 -1.00566,0.3561c-0.14917,0.04923 -0.28573,0.07667 -0.43047,0.14425c-0.17444,0.09274 -0.37483,0.15231 -0.58476,0.09837c-0.03924,-0.08824 -0.057,-0.16158 -0.09181,-0.23149c-0.03104,-0.12834 -0.04952,-0.27849 -0.08059,-0.4068z" fill="#87d7dc"/><path d="M238.39341,176.53407c0.18569,-0.26812 0.43654,-0.4147 0.69193,-0.54297c0.06383,-0.03207 0.16625,-0.05266 0.23896,-0.04807c0.53047,0.04713 1.04323,0.02095 1.55149,-0.02362c0.01708,-0.00343 0.05563,0.00804 0.07717,0.02293c0.06894,0.06305 0.09119,0.15473 0.06216,0.25669c-0.03414,0.00686 -0.06384,0.03209 -0.09797,0.03895c-0.41405,0.06401 -0.81484,0.18309 -1.17634,0.3904c-0.19151,0.09619 -0.37929,0.13397 -0.60627,0.08348c-0.2485,-0.06541 -0.4837,-0.07576 -0.74113,-0.17783z" fill="#cce5e6"/><path d="M241.23695,177.11584c0.07784,0.0997 0.07852,0.17649 0.04063,0.24179c-0.8104,0.20144 -0.81039,0.20145 -1.45623,0.63901c-0.29906,0.02169 -0.62025,-0.04829 -0.91552,-0.08508c-0.06521,-0.1215 0.03277,-0.16039 0.0751,-0.20737c0.15666,-0.16611 0.2963,-0.32879 0.47894,-0.46166c0.12325,-0.08249 0.23829,-0.12481 0.38367,-0.11563c0.45336,0.02419 0.91928,0.02661 1.39344,-0.01104z" fill="#cce5e6"/><path d="M263.39124,169.77566c0.03482,0.06993 0.05258,0.14328 0.09182,0.23148c0.20994,0.05393 0.41031,-0.00561 0.58477,-0.0984c0.14475,-0.06759 0.28127,-0.09504 0.43048,-0.14424c0.33249,-0.10533 0.67759,-0.23243 1.00564,-0.3561c0.03414,-0.00686 0.08092,-0.03551 0.11506,-0.04236c0.26045,-0.03317 0.46459,-0.1511 0.69465,-0.23583c0.00139,0.15354 -0.00171,0.2888 -0.06861,0.45606c-0.4646,0.15112 -0.9374,0.34238 -1.42349,0.4786c-0.4646,0.15112 -0.91142,0.37558 -1.42347,0.47858c-0.05394,-0.29679 -0.03894,-0.53055 -0.00689,-0.76775z" fill="#60adb2"/><path d="M241.83484,172.26543c-0.03482,-0.06991 -0.06519,-0.12152 -0.10002,-0.1914c0.02525,-0.04356 0.0379,-0.06528 0.05051,-0.08705c0.27239,-0.1317 0.51443,-0.31499 0.752,-0.51656c0.10617,-0.07902 0.20415,-0.11799 0.33692,-0.087c0.26116,0.04362 0.53048,0.0471 0.793,0.2443c-0.16863,0.26464 -0.41065,0.44794 -0.65711,0.61286c-0.04673,0.02865 -0.13656,0.02742 -0.20924,0.02286c-0.3205,0.00682 -0.64112,0.01358 -0.9661,0.00201z" fill="#cce5e6"/><path d="M237.45448,172.87725c0.1529,-0.10767 0.24204,-0.18326 0.34821,-0.2623c0.19971,-0.13631 0.40006,-0.19582 0.66566,-0.13389c0.44956,0.08265 0.90293,0.10679 1.32962,0.02099c0.13655,-0.02744 0.15804,-0.01255 0.19428,0.21091c-0.05121,0.01029 -0.09796,0.03895 -0.1492,0.04923c-0.43114,0.06748 -0.82744,0.20487 -1.21046,0.39728c-0.09799,0.03891 -0.17887,0.07443 -0.2731,0.05496c-0.29155,-0.09518 -0.57419,-0.15373 -0.90496,-0.33719z" fill="#cae2e3"/><path d="M240.73031,174.9488c-0.01263,0.02174 -0.04235,0.04701 -0.05942,0.0504c-0.4014,0.04228 -0.75917,0.19115 -1.09544,0.35492c-0.32358,0.142 -0.64792,0.20724 -1.01657,0.08907c-0.17581,-0.06079 -0.36798,-0.04133 -0.5356,-0.14225c0.28739,-0.36547 0.67931,-0.52118 1.08586,-0.46837c0.49636,0.05401 0.98005,0.12977 1.47062,0.01187c0.05565,0.00802 0.12393,-0.00568 0.15056,0.10432z" fill="#c9e1e2"/><path d="M237.78224,174.15727c0.22871,-0.23828 0.44988,-0.35968 0.68816,-0.4845c0.08091,-0.03548 0.16624,-0.05265 0.2434,-0.02971c0.51787,0.06891 1.04389,0.0977 1.56104,0.08984c0.03414,-0.00686 0.08976,0.00115 0.09489,0.09628c-0.11946,0.02403 -0.256,0.05149 -0.37106,0.09385c-0.33691,0.08697 -0.6694,0.19233 -0.96705,0.36757c-0.22119,0.12145 -0.44752,0.14768 -0.68341,0.06053c-0.17581,-0.06079 -0.33455,-0.12498 -0.56601,-0.19382z" fill="#c9e1e2"/><path d="M241.38456,171.14461c-0.11197,-0.09288 -0.13416,-0.18456 -0.15636,-0.27622c0.01261,-0.02174 0.04234,-0.047 0.05495,-0.06872c0.26422,-0.09158 0.49361,-0.25312 0.67553,-0.46278c0.11435,-0.11914 0.24646,-0.16492 0.4134,-0.1408c0.20548,0.03556 0.42363,0.04936 0.62096,0.12505c-0.10479,0.23257 -0.32019,0.52591 -0.44786,0.59003c-0.07644,0.05386 -0.15361,0.03092 -0.2434,0.02971c-0.28571,0.07667 -0.61071,0.06516 -0.91722,0.20368z" fill="#cae3e4"/><path d="M244.029,177.18882c-0.31747,-0.12841 -0.62162,-0.20189 -0.93843,-0.25353c-0.06074,-0.10312 -0.07854,-0.17652 -0.04953,-0.27849c0.28501,-0.15347 0.65233,-0.18885 0.93293,-0.36066c0.20994,0.05394 0.34786,0.18 0.51548,0.28088c0.086,0.05958 0.18466,0.09743 0.2328,0.22236c-0.18639,0.19132 -0.46389,0.22788 -0.69329,0.3894z" fill="#c8e0e1"/><path d="M242.51665,174.41643c-0.02288,-0.16844 0.04096,-0.20051 0.10478,-0.23259c0.23828,-0.12486 0.45945,-0.24623 0.70216,-0.35276c0.06384,-0.03208 0.13211,-0.0458 0.20928,-0.02288c0.21879,0.09059 0.44206,0.19953 0.65271,0.3302c-0.08022,0.11225 -0.1782,0.15121 -0.26731,0.22681c-0.26728,0.22679 -0.55299,0.3035 -0.88378,0.1201c-0.16319,-0.08257 -0.34274,-0.0849 -0.51787,-0.06887z" fill="#cbe4e5"/><path d="M242.79629,175.57163c-0.02222,-0.09166 -0.03552,-0.14667 -0.04885,-0.20168c0.02971,-0.0252 0.03792,-0.06529 0.05496,-0.06874c0.1789,-0.07438 0.36219,-0.13056 0.54107,-0.20498c0.09799,-0.03892 0.18776,-0.03775 0.28642,0.0001c0.29596,0.11352 0.57932,0.24885 0.87597,0.43913c-0.12253,0.15925 -0.2717,0.20847 -0.42088,0.2577c-0.06826,0.0137 -0.13656,0.02745 -0.1966,0.00111c-0.3308,-0.18344 -0.69881,-0.22481 -1.09205,-0.22264z" fill="#c8e0e1"/><path d="M247.8409,174.67238c0.18774,-0.03776 0.39703,-0.06062 0.56258,-0.19007c0.0594,-0.05042 0.14916,-0.04919 0.23449,-0.06638c0.09252,0.30826 0.11234,0.61194 0.05941,0.91101c-0.24783,0.01137 -0.46901,0.13276 -0.66494,0.21066c-0.11641,-0.11118 -0.09628,-0.24985 -0.15704,-0.35296c-0.05701,-0.1616 -0.08431,-0.34841 -0.03451,-0.51224z" fill="#85d5d9"/><path d="M237.95352,171.31552c0.27823,0.04018 0.55642,0.08035 0.84727,0.09879c0.25227,0.00696 0.48985,-0.19466 0.81244,0.02892c-0.58028,0.11673 -1.0613,0.34806 -1.54226,0.57939c-0.20994,-0.05394 -0.44138,-0.12272 -0.63938,-0.27522c0.02525,-0.04356 0.0379,-0.06531 0.0505,-0.08706c0.14848,-0.126 0.30143,-0.2337 0.47138,-0.34478z" fill="#c6dede"/><path d="M238.04591,176.87318c0.32126,0.07 0.60385,0.1285 0.92512,0.19849c-0.06692,0.16726 -0.19014,0.24978 -0.27034,0.36203c-0.09726,0.11572 -0.16865,0.26466 -0.30894,0.35055c-0.11946,0.02403 -0.23964,-0.02871 -0.35535,-0.06309c-0.11571,-0.03439 -0.23588,-0.08718 -0.36051,-0.15824c0.04027,-0.2773 0.2096,-0.46515 0.37003,-0.68974z" fill="#cae3e3"/><path d="M241.55516,178.28247c-0.48097,0.23136 -0.87662,0.44553 -1.2285,0.76628c-0.23967,-0.02874 -0.47483,-0.03911 -0.73155,-0.06439c0.07884,-0.26584 0.26146,-0.39871 0.41813,-0.5648c0.02971,-0.0252 0.08094,-0.03549 0.11504,-0.04235c0.44001,-0.03081 0.88004,-0.06165 1.42689,-0.09472z" fill="#cae3e4"/><path d="M243.89261,172.92831c-0.22869,0.23828 -0.44921,0.43648 -0.83051,0.3401c-0.26559,-0.06196 -0.52606,-0.0288 -0.78652,0.00435c-0.10243,0.0206 -0.14168,-0.06762 -0.13419,-0.18454c0.28194,-0.01828 0.51582,-0.16143 0.74964,-0.30462c0.16998,-0.11111 0.33247,-0.10535 0.50828,-0.04456c0.15428,0.04588 0.31679,0.05168 0.49331,0.18926z" fill="#c8e0e1"/><path d="M246.80387,175.34243c0.09591,-0.26927 0.31403,-0.25541 0.52329,-0.27829c0.12013,0.05273 0.11267,0.1696 0.15192,0.25782c0.04061,0.24178 0.0256,0.47555 -0.02355,0.71622c-0.19218,0.01943 -0.36217,0.13052 -0.55505,0.0732c-0.03926,-0.08825 -0.05258,-0.14327 -0.07034,-0.2166c-0.01027,-0.19023 -0.02054,-0.38045 -0.02631,-0.55234z" fill="#85d4d9"/><path d="M243.9565,174.81905c0.22939,-0.1615 0.43352,-0.27949 0.6332,-0.4158c0.22769,0.12726 0.44276,0.27626 0.62813,0.45055c-0.00305,0.13524 -0.09661,0.19248 -0.15154,0.26122c-0.05496,0.06874 -0.1099,0.13745 -0.23382,0.14315c-0.24031,-0.10553 -0.52807,-0.25911 -0.87597,-0.43913z" fill="#c7dfe0"/><path d="M244.09603,171.77215c0.20176,0.09406 0.39905,0.16973 0.59707,0.32217c-0.10034,0.25094 -0.28296,0.38379 -0.47378,0.55676c-0.23588,-0.08716 -0.47178,-0.17429 -0.72475,-0.25804c0.19458,-0.23141 0.38543,-0.40442 0.60147,-0.62091z" fill="#c8e0e1"/><path d="M237.28663,176.10289c0.10106,-0.17415 0.2021,-0.34827 0.36765,-0.47773c0.26559,0.06196 0.5356,0.14225 0.82268,0.2191c0.00886,0.03664 0.01774,0.07333 0.00067,0.07676c-0.12699,0.14092 -0.27102,0.28524 -0.40244,0.40781c-0.05942,0.0504 -0.12323,0.0825 -0.1833,0.05612c-0.23144,-0.06883 -0.44957,-0.08264 -0.60528,-0.28207z" fill="#c4dcdd"/><path d="M237.13668,173.19109c0.25739,0.10206 0.51034,0.1858 0.76776,0.28787c-0.01572,0.15697 -0.15224,0.18442 -0.24136,0.26003c-0.08909,0.0756 -0.19971,0.13633 -0.30584,0.21535c-0.22699,-0.0505 -0.4079,-0.20643 -0.61415,-0.31878c0.07064,-0.22569 0.22359,-0.33338 0.39359,-0.44446z" fill="#c8e0e1"/><path d="M243.88645,171.27601c-0.27003,-0.08033 -0.51857,-0.14571 -0.80564,-0.22257c0.09213,-0.21082 0.25775,-0.34025 0.35434,-0.53276c0.2567,0.02531 0.45471,0.17776 0.69501,0.28325c-0.05803,0.20394 -0.10785,0.36779 -0.24372,0.47201z" fill="#c6ddde"/><path d="M240.83628,170.06272c0.24578,-0.24174 0.54785,-0.39864 0.74618,-0.68849c0.21813,0.01379 0.41479,0.01272 0.63358,0.10331c-0.06623,0.24404 -0.18877,0.40334 -0.45364,0.41813c-0.32052,0.0068 -0.61888,0.10525 -0.92612,0.16706z" fill="#b9cfd0"/><path d="M241.56475,179.35731c-0.02458,0.12031 -0.12324,0.08252 -0.18704,0.11454c-0.14474,0.06757 -0.29387,0.1168 -0.3697,0.24744c-0.15226,0.18445 -0.34441,0.2039 -0.55813,0.20839c-0.0898,-0.00119 -0.184,-0.02067 -0.31235,-0.03332c0.13002,-0.27615 0.25636,-0.49383 0.59839,-0.48571c0.23521,0.01036 0.46973,-0.056 0.69604,-0.0823c0.05121,-0.01027 0.10242,-0.0206 0.1328,0.03098z" fill="#c0d8d8"/><path d="M244.64278,177.9498c-0.13145,0.12259 -0.25907,0.1867 -0.39562,0.21418c-0.06826,0.0137 -0.15362,0.03094 -0.21368,0.00455c-0.26184,-0.12041 -0.52741,-0.18234 -0.79302,-0.2443c-0.03104,-0.12834 0.04164,-0.12374 0.09287,-0.13406c0.17069,-0.03433 0.35844,-0.07211 0.52023,-0.14311c0.21302,-0.0813 0.37993,-0.05718 0.54381,0.10214c0.0734,0.08138 0.13792,0.12609 0.24542,0.2006z" fill="#c1d9d9"/><path d="M244.31764,173.1313c0.21435,0.07224 0.38643,0.1915 0.59262,0.30385c-0.05358,0.22228 -0.22802,0.31502 -0.355,0.45596c-0.25297,-0.08371 -0.45539,-0.2545 -0.68753,-0.40012c0.13963,-0.16267 0.29701,-0.25202 0.44992,-0.35972z" fill="#c3dbdc"/><path d="M238.12912,174.70288c-0.21232,0.15812 -0.41205,0.29439 -0.6073,0.44903c-0.1714,-0.04242 -0.32566,-0.08834 -0.46804,-0.23274c0.09661,-0.19249 0.24509,-0.31848 0.38912,-0.46287c0.23966,0.02875 0.45399,0.10095 0.68613,0.24656z" fill="#c3dadb"/><path d="M245.49779,174.60524c-0.19801,-0.15248 -0.37448,-0.29002 -0.55096,-0.42757c0.07508,-0.20738 0.22357,-0.33339 0.37205,-0.45939c0.18469,0.09744 0.33966,0.22009 0.48642,0.38284c-0.02084,0.06187 -0.05429,0.14551 -0.07952,0.18904c-0.08022,0.11227 -0.15222,0.18444 -0.22804,0.31506z" fill="#c4dbdc"/><path d="M243.31251,178.81347c0.32433,-0.06523 0.58036,-0.11671 0.85341,-0.17169c0.14169,0.06765 0.25364,0.16053 0.34476,0.31521c-0.05873,0.12714 -0.18707,0.11453 -0.28061,0.17179c-0.09351,0.05727 -0.19151,0.09619 -0.27684,0.11339c-0.21512,-0.14904 -0.38716,-0.26826 -0.64077,-0.42875z" fill="#c2d9da"/><path d="M237.29386,177.38973c-0.15428,-0.04588 -0.2789,-0.11691 -0.3738,-0.21323c-0.05257,-0.14325 0.03212,-0.23721 0.06109,-0.33916c0.02897,-0.10194 0.01944,-0.21541 0.12559,-0.29443c0.17956,0.00233 0.36423,0.0998 0.5831,0.19038c-0.06316,0.10888 -0.1263,0.21773 -0.1724,0.3231c-0.08022,0.11225 -0.16042,0.22455 -0.22358,0.3334z" fill="#c5ddde"/><path d="M245.05427,172.32932c0.19291,0.05736 0.2796,0.19374 0.40864,0.28315c-0.03655,0.21885 -0.15907,0.37812 -0.29422,0.55915c-0.16761,-0.10087 -0.33523,-0.2018 -0.49844,-0.28436c0.06623,-0.24404 0.24885,-0.37695 0.38402,-0.55794z" fill="#c3dbdc"/><path d="M239.47015,178.39417c-0.03344,0.08367 -0.05867,0.12717 -0.08391,0.17071c-0.06758,0.09049 -0.15225,0.18445 -0.23246,0.29672c-0.27003,-0.08033 -0.52672,-0.10557 -0.76331,-0.26951c0.00305,-0.13524 0.07508,-0.20741 0.17682,-0.30477c0.27377,0.02185 0.58612,0.0552 0.90292,0.10679z" fill="#c7dfe0"/><path d="M244.9568,175.77162c0.18093,0.15589 0.37821,0.23159 0.51238,0.41611c-0.06248,0.18562 -0.24575,0.24172 -0.3171,0.39067c-0.26184,-0.12043 -0.44277,-0.27628 -0.65783,-0.42532c0.10924,-0.21427 0.29697,-0.25201 0.46252,-0.3815z" fill="#c7dee0"/><path d="M247.85831,175.18797c0.06076,0.10313 0.0406,0.2418 0.15704,0.35296c0.21302,-0.0813 0.43865,-0.18434 0.66495,-0.21066c0.00069,0.0768 0.0058,0.17189 -0.01055,0.25209c-0.02458,0.12031 -0.09217,0.2108 -0.21166,0.23488c-0.20035,0.05954 -0.38366,0.11565 -0.58408,0.17515c-0.05771,-0.23838 -0.06726,-0.35182 -0.01573,-0.80444z" fill="#61acb1"/><path d="M237.03593,171.96156c0.20176,0.09406 0.36489,0.17657 0.57111,0.28895c-0.19525,0.15464 -0.37341,0.30583 -0.57312,0.44217c-0.15872,-0.06419 -0.30039,-0.13188 -0.4339,-0.23962c0.10924,-0.21427 0.25771,-0.34024 0.4359,-0.49147z" fill="#c2dada"/><path d="M244.99609,177.78264c-0.20176,-0.09406 -0.33967,-0.22012 -0.51616,-0.3577c0.22119,-0.12143 0.40827,-0.23595 0.59536,-0.35049c0.17138,0.04242 0.25365,0.16051 0.37448,0.29002c-0.07951,0.18904 -0.25399,0.28186 -0.45364,0.41813z" fill="#c1d9d9"/><path d="M237.04763,174.22816c-0.13075,0.19935 -0.24066,0.33681 -0.34615,0.49265c-0.184,-0.02067 -0.33899,-0.14333 -0.49397,-0.26603c0.04541,-0.18216 0.11231,-0.34944 0.25636,-0.4938c0.21812,0.01381 0.34786,0.18004 0.58376,0.26716z" fill="#c6dedf"/><path d="M244.50395,171.01715c0.18468,0.09744 0.35674,0.21669 0.52435,0.31757c0.02288,0.16844 -0.01875,0.29219 -0.11162,0.42627c-0.23966,-0.02875 -0.40791,-0.20642 -0.62676,-0.29699c0.0283,-0.17878 0.12562,-0.29444 0.21401,-0.44684z" fill="#c0d7d7"/><path d="M239.36703,179.29934c0.2055,0.03557 0.41476,0.01274 0.62541,0.1434c-0.09286,0.13407 -0.16866,0.26467 -0.24442,0.39527c-0.20481,0.04117 -0.39766,-0.01617 -0.5697,-0.13539c0.01571,-0.15696 0.07885,-0.2658 0.18872,-0.40328z" fill="#c3dadb"/><path d="M246.82575,175.87646c0.01775,0.07334 0.0526,0.14327 0.07037,0.21662c0.19291,0.05736 0.36286,-0.05372 0.55505,-0.0732c0.04813,0.1249 -0.03654,0.21888 -0.02252,0.35064c-0.20413,0.11796 -0.42226,0.10418 -0.61306,0.27715c-0.06142,-0.17992 -0.03688,-0.30021 -0.01676,-0.4389c0.01191,-0.09856 -0.05323,-0.22006 0.02696,-0.33228z" fill="#5aa0a4"/><path d="M241.90942,168.65462c0.20547,0.03558 0.41479,0.01273 0.6039,0.12852c-0.00305,0.13524 -0.05361,0.22231 -0.12934,0.35293c-0.19665,0.00109 -0.40213,-0.03449 -0.58239,-0.11358c0.00307,-0.13523 0.03653,-0.21886 0.10787,-0.3678z" fill="#bdd3d4"/><path d="M245.92579,173.71156c-0.13349,-0.10776 -0.26252,-0.19719 -0.39154,-0.28659c0.04542,-0.18218 0.13825,-0.31625 0.24814,-0.45373c0.14985,0.02755 0.21512,0.14904 0.24616,0.27737c0.03998,0.16501 0.07991,0.33001 -0.10273,0.46292z" fill="#bdd4d5"/><path d="M237.76197,170.4503c0.22698,0.0505 0.43697,0.10441 0.66394,0.15486c-0.31403,0.25544 -0.61614,0.41232 -0.99506,0.10397c0.05873,-0.12714 0.19082,-0.17296 0.33111,-0.25887z" fill="#bbd2d3"/><path d="M245.94604,175.49571c-0.03277,0.16039 -0.11744,0.25436 -0.20211,0.34828c-0.11946,0.02403 -0.17581,-0.0608 -0.26182,-0.12043c-0.0645,-0.0447 -0.14607,-0.08597 -0.18978,-0.19258c0.03277,-0.16039 0.20341,-0.19475 0.25326,-0.35861c0.18026,0.07909 0.29666,0.19028 0.40045,0.32321z" fill="#c3dadb"/><path d="M240.55996,174.54085c-0.31611,0.02508 -0.63219,0.05024 -0.96606,0.002c-0.00954,-0.11343 0.07135,-0.14899 0.15669,-0.1661c0.21744,-0.06295 0.43929,-0.10759 0.64411,-0.14878c0.1536,-0.0309 0.21441,0.07225 0.16523,0.31286z" fill="#b1c6c7"/><path d="M244.28509,169.96516c-0.14539,-0.00919 -0.22325,-0.10892 -0.32634,-0.16509c-0.20177,-0.09404 -0.25878,-0.25561 -0.2267,-0.49284c0.26558,0.06196 0.47245,0.25111 0.65339,0.40699c0.014,0.13179 -0.00681,0.19368 -0.10034,0.25094z" fill="#bbd2d3"/><path d="M239.7945,172.11818c-0.30656,0.13859 -0.62774,0.06857 -0.96163,0.02036c0.21232,-0.15811 0.46836,-0.20954 0.70285,-0.27596c0.14918,-0.04924 0.19666,-0.0011 0.25876,0.2556z" fill="#bad1d2"/><path d="M240.85706,169.03937c0.10549,-0.15579 0.17684,-0.30475 0.28228,-0.46056c0.08979,0.00118 0.22259,0.03216 0.35093,0.04479c-0.00545,0.34722 -0.02252,0.35065 -0.24885,0.37695c-0.11947,0.02401 -0.24341,0.02971 -0.38437,0.03883z" fill="#b5cbcc"/><path d="M235.9331,175.31753c0.00684,-0.19365 0.06551,-0.32086 0.12423,-0.44802c0.16695,0.02412 0.2707,0.15709 0.4042,0.26481c-0.05424,0.14552 -0.113,0.27265 -0.16726,0.41819c-0.15804,0.01255 -0.23215,-0.14557 -0.3612,-0.23502z" fill="#c0d7d8"/><path d="M242.47622,169.88673c0.00753,-0.11686 0.07508,-0.2074 0.15973,-0.30137c0.23521,0.01039 0.45402,0.10095 0.64758,0.23509c0.04813,0.1249 0.0058,0.17189 -0.07064,0.22569c-0.24407,-0.04702 -0.48817,-0.09409 -0.73667,-0.15949z" fill="#bdd4d4"/><path d="M236.69251,171.79983c-0.12699,0.14092 -0.27545,0.26691 -0.40243,0.40783c-0.10309,-0.05619 -0.15943,-0.14101 -0.18607,-0.251c0.00752,-0.11686 0.08394,-0.17071 0.15596,-0.24286c0.05942,-0.0504 0.11878,-0.1008 0.17819,-0.15121c0.11575,0.0344 0.20177,0.09402 0.25434,0.2373z" fill="#b6cccc"/><path d="M237.22553,175.48063c-0.10549,0.15579 -0.19831,0.28984 -0.29938,0.46402c-0.10683,0.00227 -0.22259,-0.03214 -0.31374,-0.18688c0.05422,-0.14553 0.12559,-0.29447 0.19248,-0.46173c0.15428,0.04588 0.28711,0.07684 0.42058,0.18462z" fill="#c1d9d9"/><path d="M237.0441,170.96009c0.15428,0.04588 0.27449,0.09862 0.39087,0.20981c-0.10549,0.15579 -0.26732,0.22679 -0.39052,0.30927c-0.14539,-0.00919 -0.20618,-0.11235 -0.27958,-0.19373c0.00375,-0.05844 -0.00512,-0.09512 0.01191,-0.09856c0.0891,-0.07557 0.17818,-0.15119 0.26732,-0.22679z" fill="#b7cdce"/><path d="M238.2767,169.69295c-0.15227,0.18444 -0.30585,0.21535 -0.45059,0.28293c-0.15736,0.08935 -0.25228,-0.00694 -0.36869,-0.11811c0.10549,-0.15579 0.25022,-0.22338 0.36902,-0.32419c0.17955,0.00235 0.27516,0.17541 0.45028,0.15941z" fill="#b6cccc"/><path d="M242.89468,168.8796c0.15873,0.06421 0.27889,0.11694 0.41612,0.16626c0.05701,0.1616 0.08364,0.27161 0.02937,0.41711c-0.18026,-0.07912 -0.35606,-0.1399 -0.51479,-0.20409c-0.09118,-0.1547 -0.00648,-0.24863 -0.01608,-0.36209c0.03414,-0.00686 0.06385,-0.03207 0.08536,-0.01719z" fill="#c2dada"/><path d="M236.47112,176.20921c0.13277,0.03099 0.1973,0.07569 0.25366,0.16048c0.0437,0.10661 -0.00683,0.19365 -0.03581,0.29563c-0.03344,0.08366 -0.01944,0.21542 -0.13448,0.25779c-0.12457,-0.07109 -0.23656,-0.16392 -0.31065,-0.3221c0.07134,-0.14896 0.15156,-0.26123 0.22734,-0.39185z" fill="#bbd2d3"/><path d="M245.75116,177.13087c-0.11641,-0.11119 -0.20688,-0.18914 -0.30178,-0.2854c0.0884,-0.15241 0.20721,-0.25318 0.32157,-0.37235c0.12015,0.05274 0.21065,0.13069 0.24167,0.25905c-0.00817,0.04011 -0.0164,0.08021 -0.04609,0.10543c-0.0505,0.08706 -0.11815,0.1776 -0.2154,0.2933z" fill="#bbd2d3"/><path d="M240.72014,168.5478c-0.13449,0.2578 -0.13449,0.25782 -0.40245,0.40782c-0.15874,-0.06422 -0.2113,-0.20748 -0.30244,-0.3622c0.22567,-0.10309 0.4697,-0.05603 0.70491,-0.04564z" fill="#adc2c3"/><path d="M246.10954,175.13592c-0.12015,-0.05274 -0.21508,-0.14906 -0.26319,-0.27395c0.0884,-0.15241 0.16413,-0.28299 0.25701,-0.41701c0.24616,0.27738 0.25061,0.29569 0.00623,0.69099z" fill="#b5cbcc"/><path d="M236.33346,172.75658c0.14169,0.06763 0.24477,0.12385 0.36116,0.23505c-0.04983,0.16382 -0.19014,0.24974 -0.30007,0.38723c-0.06009,-0.02638 -0.10307,-0.05617 -0.1461,-0.08597c-0.04303,-0.0298 -0.07341,-0.08137 -0.12087,-0.12952c0.01125,-0.17533 0.09146,-0.28757 0.20583,-0.40675z" fill="#bbd1d2"/><path d="M245.21528,178.39235c-0.0751,0.20739 -0.27546,0.26691 -0.38979,0.38607c-0.13722,-0.04934 -0.1854,-0.17424 -0.28029,-0.27055c0.15666,-0.16611 0.31849,-0.2371 0.51955,-0.21984c0.05121,-0.01027 0.1031,0.05618 0.15055,0.10431z" fill="#b6cccd"/><path d="M238.20538,178.937c0.25297,0.08371 0.49327,0.18923 0.72915,0.27638c0.01399,0.1318 -0.01942,0.2154 -0.12115,0.3128c-0.23215,-0.14557 -0.46425,-0.29118 -0.65852,-0.50208c0.02527,-0.04356 0.0379,-0.06531 0.0505,-0.08707z" fill="#acc1c2"/><path d="M239.3648,173.30067c0.20858,-0.09965 0.4216,-0.18094 0.65234,-0.18887c0.0898,0.00119 0.17137,0.04244 0.19356,0.13411c0.00886,0.03664 -0.00753,0.11688 -0.02459,0.12031c-0.25157,0.06982 -0.53867,-0.00702 -0.82131,-0.06553z" fill="#a7bbbb"/><path d="M235.88253,173.48185c0.1113,0.01608 0.18469,0.09744 0.26251,0.19716c-0.07134,0.14896 -0.14269,0.29789 -0.21402,0.44685c-0.15428,-0.04588 -0.19798,-0.15246 -0.22905,-0.2808c0.02458,-0.12031 0.10032,-0.25093 0.18058,-0.36321z" fill="#b7cdcd"/><path d="M245.70796,172.294c-0.19291,-0.05736 -0.30927,-0.16855 -0.43013,-0.29806c0.01571,-0.15696 0.05733,-0.28074 0.1932,-0.38495c0.15566,0.19943 0.19185,0.4229 0.23695,0.68302z" fill="#b7cece"/><path d="M243.92769,179.72809c-0.17374,0.16955 -0.41337,0.14082 -0.56185,0.26685c-0.12013,-0.05273 -0.12084,-0.12954 -0.07852,-0.17651c0.11434,-0.11915 0.25023,-0.22341 0.42089,-0.25769c0.05566,0.00803 0.07271,0.00462 0.21951,0.16736z" fill="#b4cacb"/><path d="M238.14733,178.17955c-0.02458,0.12029 -0.06245,0.18562 -0.13889,0.23947c-0.20177,-0.09404 -0.42057,-0.18461 -0.61926,-0.41386c0.28571,-0.07667 0.49634,0.05401 0.75817,0.1744z" fill="#b2c8c9"/><path d="M246.02492,176.19129c0.05424,-0.14552 0.10034,-0.25094 0.19387,-0.3082c0.07271,0.0046 0.10312,0.05618 0.13349,0.10776c0.12153,0.20628 0.02422,0.32201 -0.12424,0.44799c-0.05635,-0.08479 -0.12974,-0.16619 -0.20314,-0.24757z" fill="#b5cbcb"/><path d="M239.32646,170.92398c-0.21745,0.06296 -0.40517,0.10073 -0.62329,0.08691c-0.03924,-0.08825 0.00306,-0.13521 0.05425,-0.14552c0.11506,-0.04236 0.22567,-0.10307 0.34069,-0.14543c0.13655,-0.02744 0.18842,0.03903 0.22833,0.20403z" fill="#91a3a3"/><path d="M240.67173,177.96023c0.17374,-0.16955 0.40007,-0.19584 0.6049,-0.23702c0.03414,-0.00686 0.07717,0.02294 0.10309,0.05618c0.00886,0.03664 -0.01191,0.09854 -0.02901,0.10199c-0.22567,0.10309 -0.4564,0.11103 -0.67898,0.07888z" fill="#99abac"/><path d="M241.46507,178.72358c0.09935,0.11462 0.12152,0.2063 0.04506,0.26015c-0.11063,0.06069 -0.29015,0.05834 -0.52979,0.02964c0.13961,-0.16271 0.32734,-0.20044 0.48471,-0.28976z" fill="#93a5a6"/><path d="M245.0726,170.55663c-0.22325,-0.10894 -0.45915,-0.19608 -0.40251,-0.55359c0.2403,0.10553 0.29801,0.34386 0.40251,0.55359z" fill="#9aadad"/><path d="M242.02838,171.43819c-0.12325,0.08249 -0.26351,0.16837 -0.36972,0.24741c-0.09865,-0.03785 -0.12904,-0.08942 -0.1386,-0.20287c0.13144,-0.1226 0.31987,-0.08359 0.46905,-0.13283c0.00886,0.03664 0.01331,0.05502 0.03927,0.08828z" fill="#c5dddd"/><path d="M240.17629,175.61784c0.18194,-0.20965 0.40386,-0.25425 0.64347,-0.22557c0.01708,-0.00343 0.04305,0.02981 0.05192,0.06648c0.03037,0.05159 -0.01191,0.09854 -0.04607,0.1054c-0.18329,0.05613 -0.40146,0.04228 -0.64931,0.05368z" fill="#aec2c3"/><path d="M245.34463,178.03944c0.10549,-0.15579 0.26283,-0.24515 0.40315,-0.33105c0.09865,0.03784 0.09935,0.11465 0.03997,0.16503c-0.10173,0.09738 -0.18639,0.1913 -0.30963,0.27375c-0.02527,0.04356 -0.08976,-0.00115 -0.13348,-0.10776z" fill="#9caeaf"/><path d="M235.75932,174.52569c-0.01126,0.17533 -0.05289,0.29904 -0.12424,0.44801c-0.12598,-0.22463 -0.1236,-0.43661 -0.17684,-0.65665c0.05566,0.00804 0.0898,0.00119 0.11126,0.0161c0.06894,0.06305 0.12083,0.1295 0.18981,0.19254z" fill="#a9bebf"/><path d="M242.95605,176.23172c-0.06521,-0.1215 -0.06589,-0.19823 -0.03241,-0.28193c0.16625,-0.05263 0.33316,-0.02852 0.54824,0.12049c-0.19595,0.07787 -0.34956,0.10875 -0.5158,0.16146z" fill="#b9cfd0"/><path d="M241.13567,170.56018c-0.09864,-0.03785 -0.13347,-0.10778 -0.16829,-0.17767c0.01195,-0.09855 0.09726,-0.11571 0.52024,-0.14307c-0.04914,0.24064 -0.25021,0.22339 -0.35195,0.32075z" fill="#869797"/><path d="M240.47675,176.71115c0.28641,0.00008 0.48543,-0.21301 0.75236,0.00251c-0.23829,0.12486 -0.4475,0.14773 -0.75236,-0.00251z" fill="#93a4a5"/><path d="M238.25928,170.13872c0.256,-0.05149 0.42671,-0.0858 0.59738,-0.12015c0.03414,-0.00686 0.07717,0.02294 0.09044,0.07794c0.00444,0.01836 -0.00377,0.05845 -0.01637,0.08022c-0.19592,0.07789 -0.38373,0.11566 -0.67145,-0.03799z" fill="#94a5a6"/><path d="M240.6666,169.73145c-0.09488,-0.09632 -0.12529,-0.14782 -0.07922,-0.25325c0.13209,-0.04579 0.28129,-0.09504 0.46529,-0.07436c-0.07513,0.20738 -0.24576,0.24169 -0.38604,0.3276z" fill="#abbfc0"/><path d="M237.22427,170.07772c0.05634,0.08481 0.08227,0.11805 0.09117,0.15475c-0.19012,0.24976 -0.19011,0.24972 -0.44237,0.24277c0.05803,-0.20394 0.22868,-0.2383 0.35123,-0.3975z" fill="#acc0c1"/><path d="M244.19561,170.48301c-0.16319,-0.08257 -0.33899,-0.14333 -0.5066,-0.24423c-0.0645,-0.0447 -0.08225,-0.11807 0.00683,-0.19365c0.20176,0.09406 0.38643,0.19147 0.49975,0.43788z" fill="#9fb2b2"/><path d="M236.04495,172.52618c-0.0461,0.10544 -0.08399,0.17071 -0.16042,0.22454c-0.07718,-0.02292 -0.12461,-0.07106 -0.16387,-0.15932c-0.00954,-0.11345 0.05803,-0.20394 0.12562,-0.29444c0.1113,0.01608 0.15498,0.12265 0.19865,0.22922z" fill="#aec2c3"/><path d="M242.70196,173.62925c-0.04981,0.16381 -0.16934,0.18789 -0.28435,0.23025c-0.05121,0.01027 -0.09862,-0.03783 -0.11195,-0.09285c-0.00886,-0.03664 0.01192,-0.09858 0.04607,-0.10542c0.08909,-0.0756 0.20041,-0.05953 0.35024,-0.03197z" fill="#91a2a3"/><path d="M235.85631,175.81371c0.339,0.14335 0.36052,0.1582 0.17925,0.44466c-0.06963,-0.13983 -0.18606,-0.25101 -0.17925,-0.44466z" fill="#869696"/><path d="M241.69651,179.75383c-0.09662,0.19248 -0.21231,0.15808 -0.33625,0.16378c0.04542,-0.18218 0.04542,-0.18218 0.33625,-0.16378z" fill="#555f5f"/><path d="M241.97039,172.60352c0.08534,-0.01717 0.20479,-0.04119 0.33762,-0.01022c-0.11368,0.19592 -0.18194,0.20963 -0.31915,0.16036c-0.03858,-0.01147 -0.05192,-0.06649 -0.01843,-0.15013z" fill="#93a5a6"/><path d="M238.20945,169.3412c0.16043,-0.22456 0.199,-0.21311 0.32123,0.07001c-0.11062,0.0607 -0.2137,0.00455 -0.32123,-0.07001z" fill="#8b9b9c"/><path d="M241.19237,180.25898c0.15737,-0.08934 0.29832,-0.09844 0.43936,-0.10756c0.07784,0.0997 0.057,0.1616 -0.01128,0.17531c-0.13654,0.02746 -0.27753,0.03658 -0.42805,-0.0677z" fill="#9aacad"/><path d="M236.44529,170.92661c0.05873,-0.12714 0.0833,-0.24749 0.22428,-0.25663c0.01708,-0.00341 0.03858,0.01146 0.04303,0.0298c0.00581,0.1719 -0.08775,0.22917 -0.26731,0.22681z" fill="#5f6a6b"/><path d="M242.86283,174.88524c-0.05496,0.06874 -0.12325,0.08249 -0.19597,0.07785c-0.03858,-0.01147 -0.08157,-0.04128 -0.07338,-0.08138c0.00817,-0.04011 0.03344,-0.08366 0.0676,-0.09049c0.06826,-0.0137 0.14097,-0.00911 0.20174,0.09404z" fill="#636e6f"/><path d="M235.59031,173.3098c-0.08226,-0.11806 -0.0874,-0.21315 0.03138,-0.31397c0.10377,0.13296 0.07036,0.21659 -0.03138,0.31397z" fill="#4a5354"/></g><g fill="#000000" stroke="#000000" stroke-width="1.2"><path d="M263.7785,179.99844c-1.67875,0.81487 -4.84895,-0.25906 -7.13804,-0.09474c-2.46454,0.17688 -3.89121,1.51982 -5.33828,0.74426c-1.01077,-0.54173 -1.32997,-2.09759 -1.3893,-2.92434c-0.14432,-2.01038 3.13212,-3.8837 7.31811,-4.18417c4.18599,-0.30047 7.69639,1.08568 7.8407,3.09604c0.0654,0.911 0.09796,2.68768 -1.29314,3.36294z"/><path d="M265.68057,176.32375c-2.35103,1.1149 -8.32618,0.5537 -8.32618,0.5537c0,0 -3.67754,1.38076 -3.76399,1.38544c-5.50947,0.29935 -5.82027,-3.1777 -6.1044,-7.13633c-0.13525,-1.88404 0.42072,-4.83599 2.06945,-5.98938c1.86985,-1.30809 4.64156,-0.9307 7.71492,-1.1513c5.78326,-0.41511 10.87011,1.61662 11.15873,5.63737c0.12704,1.76992 0.39155,5.2114 -2.74851,6.70049z"/></g></g><path d="M208.8149,185.92088c1.5154,-1.68292 6.56361,0.64952 11.27549,5.20968c4.71189,4.56016 7.30315,9.62118 5.78776,11.3041c-1.5154,1.68292 -6.56361,-0.64952 -11.27549,-5.20968c-4.71189,-4.56016 -7.30315,-9.62118 -5.78776,-11.3041z" fill="none" fill-rule="nonzero" stroke="#000000" stroke-width="4.5" stroke-linecap="butt" stroke-linejoin="miter"/><g fill="#ff0000" fill-rule="nonzero" stroke="none" stroke-linecap="butt" stroke-linejoin="miter"><path d="M265.311,157.2062c0.43404,-1.12077 1.63199,-1.82861 2.67572,-1.58099c1.04371,0.24761 1.53796,1.35691 1.10392,2.47767c-0.43404,1.12077 -1.63199,1.82861 -2.67572,1.58101c-1.04371,-0.24761 -1.53796,-1.35692 -1.10393,-2.47768z" stroke-width="NaN"/><path d="M264.48879,152.22505c0.39932,-1.03112 1.47512,-1.68859 2.40286,-1.46848c0.92775,0.22009 1.35615,1.2344 0.95681,2.26552c-0.39932,1.03112 -1.47513,1.68857 -2.40288,1.46847c-0.92775,-0.22009 -1.35613,-1.2344 -0.9568,-2.26551z" stroke-width="0"/><path d="M268.98312,149.30285c0.41668,-1.07593 1.50656,-1.76976 2.4343,-1.54965c0.92775,0.22009 1.34206,1.27075 0.92537,2.34671c-0.41668,1.07593 -1.50655,1.76976 -2.4343,1.54965c-0.92775,-0.22009 -1.34206,-1.27075 -0.92537,-2.34669z" stroke-width="0"/><path d="M258.40399,162.20785c0.64682,0.43906 0.67953,1.50773 0.07306,2.38697c-0.60648,0.87926 -1.62247,1.2361 -2.26928,0.79704c-0.64682,-0.43906 -0.67953,-1.50773 -0.07306,-2.38699c0.60648,-0.87926 1.62246,-1.23608 2.26927,-0.79703z" stroke-width="NaN"/><path d="M262.39784,161.80232c0.59507,0.40393 0.64047,1.36493 0.10139,2.14649c-0.53908,0.78155 -1.4585,1.08767 -2.05357,0.68373c-0.59507,-0.40393 -0.64046,-1.36495 -0.10137,-2.14649c0.53908,-0.78155 1.4585,-1.08767 2.05357,-0.68373z" stroke-width="0"/><path d="M261.42851,158.7204c0.6727,0.45661 0.79921,1.43394 0.28259,2.18292c-0.51663,0.74899 -1.48076,0.98599 -2.15345,0.52937c-0.6727,-0.45661 -0.79921,-1.43394 -0.28258,-2.18293c0.51663,-0.74899 1.48074,-0.98599 2.15343,-0.52937z" stroke-width="0"/><path d="M273.32323,164.17865c0.71473,-0.9927 1.97876,-1.29963 2.82331,-0.6856c0.84454,0.61405 0.94977,1.91658 0.23504,2.90927c-0.71473,0.9927 -1.97875,1.29964 -2.8233,0.68559c-0.84454,-0.61405 -0.94978,-1.91658 -0.23505,-2.90927z" stroke-width="NaN"/><path d="M274.07967,158.81378c0.65755,-0.91326 1.79916,-1.21115 2.54985,-0.66532c0.75069,0.54582 0.82621,1.72865 0.16865,2.64192c-0.65755,0.91326 -1.79915,1.21115 -2.54987,0.66534c-0.75069,-0.54582 -0.82621,-1.72865 -0.16866,-2.64193z" stroke-width="0"/><path d="M266.17386,167.56266c0.43855,0.6718 0.14986,1.77306 -0.6448,2.45968c-0.79466,0.68663 -1.79436,0.69862 -2.23291,0.02681c-0.43855,-0.6718 -0.14985,-1.77305 0.6448,-2.45968c0.79466,-0.68663 1.79435,-0.69863 2.2329,-0.02683z" stroke-width="NaN"/><path d="M268.89199,172.74811c0.421,0.64496 0.18966,1.66254 -0.51669,2.2729c-0.70636,0.61035 -1.62026,0.5823 -2.04127,-0.06266c-0.421,-0.64496 -0.18967,-1.66256 0.51668,-2.27289c0.70636,-0.61035 1.62027,-0.58229 2.04127,0.06266z" stroke-width="0"/><path d="M269.87034,165.05359c0.45608,0.69869 0.27705,1.73925 -0.39987,2.32416c-0.67693,0.58491 -1.59542,0.49268 -2.0515,-0.206c-0.45608,-0.69869 -0.27705,-1.73926 0.39987,-2.32417c0.67693,-0.58491 1.59541,-0.49267 2.05152,0.20602z" stroke-width="0"/></g><path d="M196.42551,136.7248c20.81629,-18.02242 52.71872,-15.2754 71.25606,6.13563c18.53734,21.41102 16.68992,53.37816 -4.12638,71.40059c-20.81629,18.02242 -52.71872,15.2754 -71.25606,-6.13563c-18.53734,-21.41102 -16.68992,-53.37816 4.12638,-71.40059z" fill="#000000" fill-rule="nonzero" stroke="#7d7d7d" stroke-width="4" stroke-linecap="butt" stroke-linejoin="miter"/><path d="M182.5765,161.16339c1.72828,-9.36635 9.98748,-15.69381 18.4474,-14.13278c8.45993,1.56104 13.917,10.41944 12.18872,19.78579c-1.72828,9.36635 -9.98748,15.69381 -18.4474,14.13278c-8.45993,-1.56104 -13.917,-10.41944 -12.18872,-19.78579z" fill="#888888" fill-rule="nonzero" stroke="none" stroke-width="0" stroke-linecap="butt" stroke-linejoin="miter"/><g stroke-linejoin="miter"><path d="M190.48594,179.05353c13.06228,-3.21037 26.37112,5.25316 29.72611,18.90385c3.35498,13.65067 -4.51434,27.31927 -17.57662,30.52964c-13.06228,3.21037 -26.37112,-5.25316 -29.72611,-18.90385c-3.35498,-13.65067 4.51434,-27.31927 17.57662,-30.52964z" fill="none" fill-rule="nonzero" stroke="#000000" stroke-width="4.5" stroke-linecap="butt"/><g stroke-linecap="butt"><g fill-rule="nonzero"><path d="M184.88049,222.17634l0.00513,-0.01305" fill="#ffab19" stroke="#000000" stroke-width="5"/><g fill="none" stroke="none" stroke-width="1" font-family="sans-serif" font-weight="normal" font-size="12" text-anchor="start"/></g><path d="M184.88049,222.17634l0.00513,-0.01305" fill="#ffab19" fill-rule="nonzero" stroke="#000000" stroke-width="5"/><path d="M197.8178,203.76114" fill="#001026" fill-rule="evenodd" stroke="#000000" stroke-width="5"/><g fill="none" fill-rule="nonzero" stroke="none" stroke-width="1" font-family="sans-serif" font-weight="normal" font-size="12" text-anchor="start"/><g fill="none" fill-rule="nonzero" stroke="none" stroke-width="1" font-family="sans-serif" font-weight="normal" font-size="12" text-anchor="start"/></g><path d="M222.44286,203.37381l6.80137,28.65245c0,0 0.24432,2.41586 -0.71389,2.29431c-2.19722,-0.27872 -12.20351,-3.93289 -12.20351,-3.93289l-1.06925,12.29616c0,0 -0.36949,2.28354 -1.36075,2.85606c-0.92212,0.53259 -12.7319,-8.29714 -12.7319,-8.29714c0,0 -1.53225,8.8896 -2.92152,11.53707c-0.54553,1.0396 -10.97124,-9.32635 -16.66095,-16.85428c-2.78414,-3.68363 -6.83274,-8.64455 -8.66142,-13.02525c-3.03209,-7.26352 -2.23811,-13.63525 -2.23811,-13.63525" fill="none" fill-rule="nonzero" stroke="#000000" stroke-width="3" stroke-linecap="round"/><path d="M229.69047,233.8419c0,0 -1.23676,0.84991 -3.40721,0.11728c-2.71854,-0.91765 -7.15001,-5.32783 -9.04849,-3.15815c-2.4593,2.81059 0.99447,14.94661 -3.11197,14.35686c-3.37188,-0.48427 -10.89052,-8.18258 -12.90208,-7.68818c-2.00712,0.49328 0.30408,4.62905 -1.74228,7.82948c-2.91033,4.55173 -3.34494,2.80683 -3.34494,2.80683c0,0 -10.05386,-9.59845 -13.78943,-14.54574c-3.5048,-4.64167 -7.97582,-14.27967 -7.97582,-14.27967c0,0 16.91419,11.22206 25.23904,11.37109c9.22824,0.16519 23.09527,-21.3251 23.09527,-21.3251z" fill="url(#color-1)" fill-rule="nonzero" stroke="none" stroke-width="0" stroke-linecap="butt"/></g><path d="M195.10897,207.21011c2.10831,-2.25152 6.13232,-1.90906 8.9879,0.76488c2.85558,2.67394 3.46136,6.66682 1.35306,8.91833c-2.10831,2.25152 -6.13232,1.90906 -8.9879,-0.76488c-2.85558,-2.67394 -3.46136,-6.66682 -1.35306,-8.91833z" fill="none" fill-rule="nonzero" stroke="#000000" stroke-width="4.5" stroke-linecap="butt" stroke-linejoin="miter"/><path d="M214.52468,213.05175c0,0 -2.14997,-1.37818 -2.58728,-4.37227c-0.40535,-2.7751 0.05198,-12.98517 0.05198,-12.98517" fill="none" fill-rule="nonzero" stroke="#000000" stroke-width="3" stroke-linecap="round" stroke-linejoin="miter"/></g></g></svg>