<svg version="1.1" xmlns="http://www.w3.org/2000/svg" xmlns:xlink="http://www.w3.org/1999/xlink" width="86.76956" height="124.03438" viewBox="0,0,86.76956,124.03438"><defs><linearGradient x1="215.94456" y1="190.35452" x2="216.04383" y2="193.29634" gradientUnits="userSpaceOnUse" id="color-1"><stop offset="0" stop-color="#737373"/><stop offset="1" stop-color="#000000"/></linearGradient></defs><g transform="translate(-184.30441,-120.99631)"><g data-paper-data="{&quot;isPaintingLayer&quot;:true}" stroke-miterlimit="10" stroke-dasharray="" stroke-dashoffset="0" style="mix-blend-mode: normal"><g fill="none" fill-rule="nonzero" stroke="none" stroke-width="1" stroke-linecap="butt" stroke-linejoin="miter" font-family="sans-serif" font-weight="normal" font-size="12" text-anchor="start"><g><g data-paper-data="{&quot;index&quot;:null}"/></g><g data-paper-data="{&quot;index&quot;:null}"/><g data-paper-data="{&quot;index&quot;:null}"/></g><g fill="none" fill-rule="nonzero" stroke="none" stroke-width="1" stroke-linecap="butt" stroke-linejoin="miter" font-family="sans-serif" font-weight="normal" font-size="12" text-anchor="start"><g><g/><g><g/></g><g/></g><g/></g><path d="" fill="#2b1900" fill-rule="nonzero" stroke="#150c00" stroke-width="3" stroke-linecap="butt" stroke-linejoin="miter"/><path d="M227.60987,193.88196c0.08533,2.52871 -3.03567,4.5183 -6.97098,4.44387c-2.09648,-0.03965 -5.78577,1.61687 -8.13233,0.33169c-2.05814,-1.12723 -2.9402,-5.165 -2.74354,-5.84162c0.61348,-2.11058 7.5437,-2.92159 9.87769,-2.87745c3.9353,0.07442 7.88384,1.4148 7.96917,3.9435z" fill="#ffffff" fill-rule="nonzero" stroke="#737373" stroke-width="1" stroke-linecap="butt" stroke-linejoin="miter"/><path d="M232.29597,206.26471l0.47584,-16.1895" fill="none" fill-rule="nonzero" stroke="#000000" stroke-width="6" stroke-linecap="round" stroke-linejoin="miter"/><path d="M212.29155,209.11811c0,0 5.30136,-7.47727 5.98592,-8.36646c1.23952,-1.61006 14.67488,-9.8535 14.67488,-9.8535c0,0 6.20457,7.26655 8.33172,9.38185c2.00763,1.99643 7.0922,3.03072 7.0922,3.03072" fill="none" fill-rule="nonzero" stroke="#000000" stroke-width="6" stroke-linecap="round" stroke-linejoin="miter"/><g><g><g stroke="#262626" stroke-width="1.2"><path d="M241.71905,205.1175l3.92671,26.60677c0,0 7.33739,0.55992 7.40802,7.8108c0.00403,0.41338 -0.03134,2.44191 -3.03659,2.97895c-2.87843,0.51437 -8.68334,-0.44513 -10.80482,-0.80811c-0.98533,-0.16859 -2.50063,-0.85136 -3.49276,-1.9901c-0.99888,-1.14655 -0.95048,-2.78558 -0.98098,-3.70872c-0.01243,-0.37599 -3.16645,-29.98088 -3.16645,-29.98088" fill="#ffffff" fill-rule="evenodd" stroke-linecap="round" stroke-linejoin="round"/><path d="M231.59329,212.00997c-0.07239,-7.43097 5.46676,-7.45479 8.35728,-7.33286c1.25691,0.05302 1.02013,-1.93714 2.32781,3.89857c0.28798,1.28525 0.94643,6.55175 2.12608,11.04609c0.80778,3.07755 2.22029,5.80825 2.49337,6.59025c0.64519,1.84769 0.46178,3.51747 0.46178,3.51747l-1.09851,-1.23682c0,0 0.72542,0.86119 1.02154,1.37245c0.92252,1.59269 1.62766,2.79496 1.62766,2.79496c0,0 -7.40182,-0.60962 -10.20027,1.65478c-2.79845,2.2644 -1.2257,6.6558 -1.2257,6.6558c0,0 -5.50022,-0.93198 -6.03912,-3.91474c-0.13286,-0.73533 0.64224,-2.90141 0.64224,-2.90141c0,0 -0.62154,0.1116 -0.65895,-0.39652c-0.01908,-0.25902 0.68978,-4.08273 0.73031,-8.39849c0.05335,-5.68139 -0.55507,-12.27884 -0.56551,-13.34952z" fill="#000000" fill-rule="nonzero" stroke-linecap="butt" stroke-linejoin="miter"/></g><path d="M222.02594,206.55461c-0.01758,-0.21842 1.25727,0.44868 4.09933,0.57673c3.7494,0.16895 9.47161,-0.16146 11.07726,-0.35552c4.16368,-0.50322 4.8193,-2.03981 4.86591,-1.46081c0.17246,2.14264 -2.05995,6.06328 -6.83832,6.19028c-2.09986,0.05581 -6.37726,0.69133 -8.8386,-0.10842c-3.13957,-1.02013 -4.26889,-3.64124 -4.36557,-4.84228z" fill="#004fd9" fill-rule="nonzero" stroke="#001026" stroke-width="1.2" stroke-linecap="butt" stroke-linejoin="miter"/><g fill-rule="nonzero" stroke-linecap="butt" stroke-linejoin="miter"><g fill="none" stroke="none" stroke-width="1" font-family="sans-serif" font-weight="normal" font-size="12" text-anchor="start"/><path d="M221.47416,205.15277c0,0 9.0345,1.51761 13.16459,1.57694c4.13008,0.05933 7.48586,-1.28031 7.48586,-1.28031c0,0 0.10322,2.09608 -1.67011,4.10064c-1.37268,1.55165 -4.05798,3.13517 -7.59896,3.10287c-3.22593,-0.02942 -6.84866,-0.76544 -8.677,-2.16974c-2.7712,-2.12851 -2.70439,-5.33042 -2.70439,-5.33042z" fill="#000000" stroke="#262626" stroke-width="1.2"/></g><g stroke-width="1.2"><path d="M231.58374,210.65171c0,0 -2.46622,30.81863 -3.103,30.90847c-1.82741,0.25779 -11.98418,-2.55217 -11.98418,-2.55217l5.42406,-30.9296" data-paper-data="{&quot;index&quot;:null}" fill="#ffab19" fill-rule="evenodd" stroke="#001026" stroke-linecap="round" stroke-linejoin="round"/><path d="M233.1175,210.18308c0,0 -0.5992,6.51552 -0.72441,9.97383c-0.12009,3.31704 -0.01218,10.36997 -0.01218,10.36997c0,0 1.1572,5.14524 0.23764,6.39126c-0.4259,0.57711 -0.89452,-2.90946 -0.89452,-2.90946c0,0 0.52442,3.93053 0.5747,4.27704c0.35074,2.41773 -0.77149,5.56273 -3.98226,5.80283c-3.52522,0.26359 -9.37541,0.52598 -12.46212,-1.43995c-1.31335,-0.83647 -3.13591,-3.26012 -2.75304,-5.798c0.43178,-2.86206 3.16947,-5.81719 3.16947,-5.81719l-2.49823,3.23042c0,0 -0.08246,-1.63815 0.3015,-2.83142c0.43119,-1.34003 2.16046,-4.81967 2.16046,-4.81967l4.93423,-19.6735" data-paper-data="{&quot;index&quot;:null}" fill="#000000" fill-rule="evenodd" stroke="#262626" stroke-linecap="round" stroke-linejoin="round"/><path d="M230.83923,239.68044c-0.03013,1.7325 -0.68524,3.73368 -2.21945,4.75025c-1.53991,1.02033 -11.0218,0.42513 -12.52879,-0.88595c-1.43114,-1.24509 -2.07338,-3.5085 -2.04397,-5.1994c0.06037,-3.47141 3.86835,-5.9867 8.50541,-5.61802c4.63703,0.36867 8.34718,3.48169 8.28679,6.95313z" fill="#ffffff" fill-rule="nonzero" stroke="#262626" stroke-linecap="butt" stroke-linejoin="miter"/></g></g><g fill="none" fill-rule="nonzero" stroke="none" stroke-width="1" stroke-linecap="butt" stroke-linejoin="miter" font-family="sans-serif" font-weight="normal" font-size="12" text-anchor="start"/></g><g fill-rule="nonzero" stroke-linecap="butt" stroke-linejoin="miter"><g data-paper-data="{&quot;index&quot;:null}" stroke="none" stroke-width="1"><path d="M253.22052,191.08069c-0.20454,-0.09016 -0.23874,-0.23942 -0.24757,-0.41995c0.00922,-0.28473 0.07663,-0.55909 0.10533,-0.84035c-0.04923,-0.06247 -0.09845,-0.12494 -0.15066,-0.17002c-1.06545,-1.01316 -1.53332,-2.24197 -1.78603,-3.55774c-0.05203,-0.27773 -0.12347,-0.55897 -0.07541,-0.83675c0.00904,-0.05208 0.00163,-0.125 -0.03124,-0.16665c-0.18052,-0.22904 -0.1415,-0.45477 -0.11887,-0.70132c0.0166,-0.2118 0.07204,-0.41671 0.10809,-0.62506c0.02103,-0.12153 0.08086,-0.23617 0.21235,-0.30225c0.13149,-0.06604 0.21374,-0.19459 0.29296,-0.30574c0.37846,-0.68427 0.88377,-1.29225 1.49656,-1.82738c0.35123,-0.29536 0.74866,-0.51093 1.16552,-0.72299c1.22817,-0.62237 2.57101,-0.86635 3.98529,-0.82916c0.6362,0.02389 1.2768,0.13802 1.90537,0.32159c0.47627,0.13856 0.89274,0.39176 1.28679,0.65883c1.25378,0.84985 2.07868,1.98118 2.57031,3.30374c0.09683,0.24994 0.12948,0.52419 0.16209,0.79847c0.02823,0.184 0.07886,0.35412 0.25494,0.49289c0.15967,0.11796 0.21032,0.28804 0.21913,0.46857c-0.00922,0.28473 -0.05727,0.56253 -0.10533,0.84034c-0.01502,0.08684 -0.06584,0.14938 -0.1167,0.2119c-0.21672,0.21195 -0.32001,0.46202 -0.38743,0.73639c-0.12148,0.5869 -0.4311,1.10445 -0.72131,1.62546c-0.11369,0.19453 -0.24675,0.38558 -0.41564,0.55238c-0.53512,0.54897 -1.08369,1.05978 -1.78892,1.43527c-0.04503,0.26043 -0.11249,0.53479 -0.16049,0.8126c-0.01802,0.1042 -0.03903,0.22572 -0.16752,0.2744c-0.10906,0.05214 -0.10768,0.15981 -0.12568,0.26396c-0.13949,0.69106 -0.25959,1.38556 -0.39908,2.07662c-0.28664,1.54185 -0.57622,3.10106 -0.90166,4.63598c-0.31946,1.5002 -0.5806,3.01078 -0.86124,4.5179c-0.04202,0.24309 -0.1199,0.46187 -0.1619,0.70494c-0.20415,1.18067 -0.40832,2.36137 -0.63187,3.53859c-0.03602,0.20834 -0.03324,0.42362 -0.18275,0.59384c-0.05084,0.06256 -0.04644,0.15279 -0.06147,0.23961c-0.15009,0.86817 -0.32263,1.75021 -0.47274,2.61837c-0.00601,0.03472 -0.01504,0.08681 -0.02103,0.12153c-0.02861,0.28128 -0.18853,0.39597 -0.48131,0.46908c-0.9814,0.2368 -1.95059,0.1715 -2.90758,-0.19586c-0.24334,-0.09706 -0.48067,-0.22883 -0.69262,-0.39186c-0.15968,-0.11796 -0.21333,-0.27068 -0.20273,-0.44775c0.03186,-0.53127 0.04426,-1.06598 0.0791,-1.61463c0.02723,-0.38892 0.09628,-0.78827 0.06526,-1.18754c-0.06941,-0.87145 0.0971,-1.71881 0.08588,-2.57987c0.00338,-0.48263 -0.03501,-0.95484 -0.0122,-1.43403c0.02883,-0.51389 0.01584,-1.01737 0.02222,-1.51733c0.01726,-0.90973 0.0763,-1.8299 0.07411,-2.74307c-0.03177,-1.2048 0.01406,-2.39584 0.05992,-3.58681c0.01082,-0.40975 0.0216,-0.81942 0.03244,-1.22917c0.03041,-0.63893 0.06387,-1.29515 0.09431,-1.93404c0.02121,-0.35419 0.00062,-0.69793 0.02181,-1.05209c0.00482,-0.37504 0.06184,-0.70488 0.08908,-1.09382zM253.74781,190.92407c0.21493,0.14569 0.43586,0.25666 0.68519,0.319c0.4777,0.24618 0.99581,0.3743 1.51393,0.50239c0.65102,0.16968 1.33341,0.27337 1.99643,0.37359c0.76007,0.11752 1.49192,0.05104 2.24622,-0.02932c0.08366,-0.02089 0.16729,-0.04178 0.29276,-0.07312c0.02404,-0.13889 0.048,-0.2778 0.07203,-0.41669c0.00601,-0.03472 -0.00739,-0.07291 -0.0178,-0.12844c-0.13588,-0.02423 -0.27476,-0.03107 -0.41666,-0.02056c-0.24195,0.0106 -0.45848,-0.01012 -0.70041,0.00046c-0.60036,0.00041 -1.19317,-0.15886 -1.78451,-0.21053c-0.31359,-0.03795 -0.63317,-0.04126 -0.94076,-0.11394c-0.67043,-0.17314 -1.35583,-0.25947 -2.0142,-0.50206c-0.16871,-0.06587 -0.35682,-0.13514 -0.52554,-0.20103c-0.05962,-0.11804 -0.22094,-0.11094 -0.31201,-0.16299c-0.10744,-0.07285 -0.21495,-0.14569 -0.43145,-0.16635c0.09683,0.24994 -0.00041,0.46528 0.04119,0.68746c0.09406,0.03468 0.15369,0.15265 0.2956,0.14215zM254.42218,191.65276c-0.41946,-0.23584 -0.53291,-0.27393 -0.79129,-0.28418c-0.0166,0.2118 -0.03021,0.40629 -0.04684,0.61809c-0.02103,0.12153 0.04158,0.22219 0.14909,0.29505c0.07167,0.04858 0.1687,0.06585 0.24034,0.11442c0.27017,0.17345 0.59118,0.28431 0.90475,0.32229c0.1209,0.111 0.27614,0.13871 0.43147,0.16638c0.87052,0.173 1.71868,0.35989 2.60421,0.44611c0.39425,0.03446 0.79152,0.05156 1.17232,0.0478c0.30323,-0.01757 0.6258,-0.03168 0.89477,-0.19854c0.03902,-0.22574 0.07801,-0.45144 0.11708,-0.67717c-0.16127,0.00704 -0.30322,0.01755 -0.42564,0.03152c-0.56755,0.04203 -1.12909,0.04939 -1.67864,-0.01273c-0.70781,-0.07244 -1.40066,-0.23168 -2.09649,-0.37354c-0.33003,-0.0588 -0.62261,-0.2183 -0.95559,-0.25974c-0.15369,-0.15265 -0.34481,-0.20461 -0.51949,-0.23576zM253.48778,211.40658c0.25375,0.15261 0.52249,0.2184 0.79725,0.24945c0.01639,0.02081 0.05224,0.0451 0.07167,0.04856c0.46888,0.06566 0.94379,0.09658 1.39786,0.0164c0.26742,-0.04185 0.53174,-0.06633 0.75884,-0.22275c0.16813,-0.97234 0.33621,-1.94464 0.51341,-2.96908c-0.49889,0.10796 -0.97986,0.11182 -1.45768,0.09823c-0.41968,-0.00318 -0.7989,-0.12445 -1.21255,-0.16236c-0.15529,-0.02766 -0.28818,-0.06922 -0.44348,-0.09688c-0.21791,-0.12832 -0.46128,-0.22537 -0.74943,-0.29462c-0.09006,0.5209 -0.01882,1.03474 -0.06406,1.52782c-0.02883,0.5139 -0.03824,1.03129 -0.06405,1.5278c0.15368,0.15265 0.30297,0.21509 0.45228,0.27745zM253.60592,207.83019c0.12091,0.11099 0.27319,0.15606 0.42845,0.18371c0.14328,0.09715 0.32102,0.11091 0.4927,0.1594c0.54056,0.1142 1.0961,0.1416 1.6382,0.13081c0.32258,-0.01411 0.6512,-0.06298 0.95297,-0.18818c0.01203,-0.06946 0.04343,-0.13543 0.0554,-0.2049c0.14715,-0.85082 0.29124,-1.68418 0.45774,-2.53153c0.17552,-0.89941 0.34804,-1.78147 0.52357,-2.68089c0.24756,-1.31615 0.5116,-2.61142 0.75915,-3.92757c0.29402,-1.46893 0.52677,-2.93089 0.85964,-4.3929c0.06145,-0.23961 0.08702,-0.50352 0.13209,-0.76398c-0.22552,0.03142 -0.43764,0.10101 -0.65718,0.09767c-0.70644,0.03522 -1.41426,-0.03722 -2.1161,-0.14435c-0.62116,-0.11068 -1.23935,-0.23873 -1.85755,-0.36679c-0.24636,-0.07969 -0.47629,-0.13856 -0.72264,-0.21825c-0.13727,-0.13185 -0.318,-0.12825 -0.4673,-0.19064c-0.16871,-0.06587 -0.31199,-0.16298 -0.50912,-0.1802c-0.06885,0.16672 -0.05404,0.31256 -0.05564,0.43752c0.0364,1.06249 -0.0855,2.11463 -0.10734,3.16671c-0.01702,0.67711 -0.03407,1.3542 -0.03163,2.03473c-0.01726,0.90973 -0.01205,1.80553 -0.02627,2.69788c-0.00659,0.73262 -0.01323,1.46527 -0.03928,2.19444c-0.01565,0.78473 -0.0477,1.54861 -0.08271,2.3299c-0.02302,0.71181 -0.04904,1.44098 -0.05566,2.17361c0.17168,0.04847 0.27017,0.17341 0.42845,0.18373zM264.11243,185.71902c-0.45405,0.08017 -0.87377,0.07699 -1.2964,0.09118c-0.44208,0.01072 -0.86772,0.0423 -1.30679,0.03564c-0.41968,-0.00319 -0.85277,-0.04456 -1.26942,-0.06513c-0.4361,-0.02401 -0.87214,-0.048 -1.32461,-0.09281c-0.41363,-0.03792 -0.84372,-0.09666 -1.25739,-0.13458c-0.43005,-0.05874 -0.84813,-0.18691 -1.29021,-0.17618c-0.38961,-0.17678 -0.82869,-0.18344 -1.23336,-0.27342c-0.42103,-0.11084 -0.86756,-0.19037 -1.2886,-0.30118c-0.40163,-0.10737 -0.8197,-0.23557 -1.21833,-0.36028c-0.41807,-0.12821 -0.80468,-0.32239 -1.23172,-0.39845c-0.11089,0.4098 -0.1319,0.53132 -0.03064,0.87153c0.21791,0.12832 0.43587,0.25666 0.69861,0.35714c0.321,0.11089 0.64198,0.22178 0.9794,0.35351c0.63899,0.23916 1.26158,0.45744 1.941,0.57851c0.46589,0.08302 0.9348,0.14864 1.38868,0.30114c0.09406,0.03468 0.21053,0.0554 0.33296,0.04143c0.24194,-0.01061 0.4913,0.05176 0.72425,0.09323c0.85414,0.1522 1.72626,0.2002 2.582,0.22736c1.13052,0.05825 2.2432,-0.01196 3.36488,-0.13431c0.22252,-0.01406 0.44506,-0.02809 0.62734,-0.15669c0.08388,-0.25353 0.10949,-0.51745 0.10832,-0.85768zM256.62732,182.25554c-0.1943,0.19805 -0.31101,0.40994 -0.44708,0.61837c-0.1301,0.17369 -0.18553,0.3786 -0.1439,0.60078c0.04743,0.42009 0.03362,0.8472 -0.05787,1.26044c-0.00601,0.03472 0.00436,0.09027 0.00136,0.10762c0.08804,0.06936 0.16569,0.08318 0.27178,0.04842c0.02241,-0.01388 0.04783,-0.04517 0.05084,-0.06255c0.14531,-0.49316 0.32942,-0.97937 0.55239,-1.4587c0.03144,-0.06598 0.06884,-0.16671 0.04201,-0.24309c-0.0296,-0.29165 -0.05923,-0.58327 -0.26955,-0.87134zM255.00926,184.66979c0.13928,-0.45842 0.31443,-0.89255 0.50597,-1.30587c0.06281,-0.13198 0.06444,-0.25698 0.03021,-0.40627c-0.06105,-0.22562 -0.16691,-0.42349 -0.26974,-0.63871c-0.02681,-0.07638 -0.05061,-0.17008 -0.17311,-0.15612c-0.14811,0.27788 -0.3126,0.53496 -0.42189,0.81972c0.20392,0.78805 0.2039,0.78803 0.07921,1.6249c0.04921,0.06247 0.12389,0.09365 0.24935,0.06233zM259.48731,187.23956c-0.1317,0.29871 -0.24397,0.60089 -0.35626,0.90305c-0.03144,0.06599 -0.06284,0.13199 -0.05544,0.20488c0.08782,0.302 0.15631,0.60058 0.3502,0.86782c0.26897,-0.16684 0.37223,-0.41691 0.53075,-0.63926c0.07925,-0.11114 0.07784,-0.2188 0.04063,-0.35071c-0.10725,-0.30547 -0.17569,-0.60406 -0.22168,-0.91647c0.00301,-0.01737 -0.03278,-0.04166 -0.06561,-0.08326c-0.06124,0.00698 -0.14194,0.01051 -0.22254,0.01405zM260.51859,182.89516c-0.3004,0.23284 -0.4619,0.47254 -0.64281,0.70877c-0.05685,0.09726 -0.05243,0.18752 -0.04802,0.27779c0.04445,0.43747 0.03056,0.86458 -0.06388,1.29519c-0.00902,0.05208 0.00136,0.10762 -0.0076,0.15971c0.21053,0.05542 0.25236,0.04498 0.27636,-0.09393c0.07805,-0.45148 0.25019,-0.86824 0.51335,-1.23299c0.1585,-0.22233 0.17513,-0.43415 0.11711,-0.67717c-0.05663,-0.1354 -0.09683,-0.24996 -0.14447,-0.43741zM257.29683,185.09528c0.09705,0.01727 0.12847,-0.04875 0.1405,-0.11819c0.08407,-0.48615 0.3204,-0.92728 0.55679,-1.36843c0.18251,-0.36123 0.17392,-0.77442 -0.05121,-1.20827c-0.1629,0.13205 -0.21234,0.30224 -0.33641,0.44121c-0.25116,0.29531 -0.3082,0.62519 -0.29061,0.98631c0.0116,0.39581 0.0426,0.79512 -0.06225,1.17018c0.01044,0.05553 0.0268,0.0764 0.04322,0.09721zM259.15685,182.67042c-0.15251,0.18759 -0.2736,0.3092 -0.37524,0.43427c-0.17488,0.20153 -0.23035,0.40642 -0.19475,0.66332c0.05942,0.35065 0.03822,0.70483 -0.00239,1.05553c-0.00162,0.12502 -0.02563,0.26391 -0.04665,0.38543c0.09406,0.03468 0.12245,-0.01395 0.12847,-0.04869c0.1841,-0.48626 0.38765,-0.96899 0.66586,-1.42058c0.03442,-0.08335 0.06583,-0.14935 0.06143,-0.23961c-0.05502,-0.26038 -0.09064,-0.51729 -0.23672,-0.82967zM260.74027,187.28384c0.02061,0.34374 -0.09169,0.64588 -0.18455,0.95152c-0.01501,0.08682 -0.08525,0.14589 -0.06144,0.23961c0.03423,0.14931 0.21914,0.4686 0.40565,0.66294c0.16593,-0.14942 0.24076,-0.35086 0.35146,-0.52804c0.08525,-0.1459 0.08986,-0.28825 0.01682,-0.44445c-0.11323,-0.27073 -0.1877,-0.5346 -0.19789,-0.82279c0.00302,-0.01737 -0.02984,-0.059 -0.04622,-0.07981c-0.07466,-0.0312 -0.1523,-0.04506 -0.28378,0.02105zM253.90332,187.2469c0.07445,0.26381 0.00397,0.55556 0.13966,0.81241c0.13887,0.00686 0.21215,-0.06958 0.30181,-0.12521c0.15991,-0.11471 0.33318,-0.19119 0.46329,-0.36489c-0.0624,-0.33329 0.03643,-0.67363 -0.00359,-1.02081c-0.08804,-0.06936 -0.18509,-0.08668 -0.28817,-0.06923c-0.16751,0.27444 -0.37084,0.52458 -0.61299,0.76779zM257.15032,186.98426c-0.06885,0.16672 -0.1377,0.33341 -0.25576,0.43764c-0.28398,0.25364 -0.31558,0.55231 -0.21132,0.87513c0.04019,0.11454 0.02218,0.21873 0.12064,0.34369c0.22417,-0.13907 0.39308,-0.30583 0.56193,-0.47265c0.04784,-0.04517 0.05982,-0.11463 0.05542,-0.20488c-0.03263,-0.2743 -0.04883,-0.52774 -0.08143,-0.80201c0.00904,-0.05208 -0.01781,-0.12846 -0.18954,-0.17696zM255.92736,186.76637c-0.1437,0.36815 -0.32023,0.69464 -0.62062,0.9275c-0.06723,0.04171 -0.05983,0.11463 -0.07183,0.18407c-0.0076,0.15973 0.00419,0.32294 0.09365,0.49992c0.31381,-0.19466 0.53055,-0.40665 0.75028,-0.63595c0.07324,-0.07644 0.10768,-0.15978 0.10628,-0.26743c-0.00575,-0.19791 0.00781,-0.39238 0.00201,-0.59028c0.00302,-0.01737 -0.02983,-0.05903 -0.04622,-0.07983c-0.05824,-0.01038 -0.11648,-0.02076 -0.21351,-0.03802zM261.84682,184.00884c-0.04765,-0.18745 -0.09223,-0.3923 -0.13984,-0.57979c-0.01639,-0.02081 -0.03283,-0.04167 -0.06562,-0.08327c-0.24057,0.11821 -0.39308,0.30583 -0.50375,0.48297c0.04283,0.56248 0.09164,1.09019 -0.01045,1.68055c0.31981,-0.22938 0.23192,-0.53141 0.32919,-0.74673c0.10628,-0.26743 0.24834,-0.51057 0.39043,-0.75372zM256.42755,181.79039c-0.15809,-0.24294 -0.2774,-0.47897 -0.52812,-0.64893c-0.09868,0.10768 -0.21073,0.17722 -0.28696,0.27106c-0.07623,0.09382 -0.17189,0.18413 -0.19289,0.30569c0.03124,0.16662 0.14909,0.29503 0.22515,0.43386c0.07607,0.1388 0.11026,0.28813 0.25054,0.4026c0.1839,-0.25362 0.34543,-0.49327 0.53235,-0.76425zM253.76088,184.48316c0.1677,-0.50704 0.30097,-0.93078 0.43428,-1.35443c0.00601,-0.03472 0.03446,-0.08336 0.00163,-0.125c-0.10286,-0.21519 -0.1609,-0.45821 -0.39221,-0.62471c-0.11969,0.22924 -0.23636,0.44115 -0.33363,0.65651c0.1833,0.44433 0.24413,0.90258 0.28994,1.44769zM258.08206,188.88639c0.19574,-0.09042 0.26456,-0.25713 0.36625,-0.38218c0.12409,-0.13897 0.18994,-0.28832 0.14529,-0.49313c-0.05202,-0.27773 -0.10405,-0.55548 -0.0172,-0.8264c-0.1299,-0.05894 -0.21053,-0.05542 -0.22855,0.04877c-0.06442,0.25697 -0.13191,0.53133 -0.28739,0.7363c-0.21234,0.30224 -0.1021,0.59039 0.0216,0.91667zM256.22636,188.16197c-0.30339,0.2502 -0.55594,0.4379 -0.78909,0.62899c-0.02103,0.12153 0.0252,0.20139 0.05203,0.27772c0.04622,0.07983 0.06704,0.19088 0.19689,0.24984c0.23759,-0.10086 0.46167,-0.23989 0.66944,-0.39973c-0.01921,-0.23607 -0.06083,-0.45827 -0.12926,-0.75685zM259.12688,189.55578c-0.12966,-0.29156 -0.24595,-0.54496 -0.35918,-0.81569c-0.17491,0.20152 -0.34683,0.38569 -0.51873,0.56981c0.09683,0.24994 0.15787,0.47559 0.36381,0.67331c0.20172,-0.12512 0.34821,-0.27802 0.51413,-0.42743zM257.45542,181.40077c-0.25095,0.06265 -0.34822,0.27802 -0.49473,0.43088c-0.04784,0.04517 -0.04344,0.13542 -0.0136,0.19445c0.08645,0.19441 0.15646,0.36795 0.24589,0.54498c-0.00301,0.01737 0.03586,0.02428 0.07466,0.03121c0.17794,-0.21886 0.33937,-0.45857 0.51733,-0.67743c-0.06703,-0.1909 -0.1983,-0.35749 -0.3296,-0.52405zM260.33239,182.46823c-0.04465,-0.20481 -0.09223,-0.39228 -0.28474,-0.55189c-0.18232,0.12863 -0.40346,0.25029 -0.53656,0.44135c0.03721,0.13192 0.03563,0.25692 0.09525,0.37491c0.04019,0.11454 -0.00324,0.25 0.16248,0.33321c0.19432,-0.19804 0.38863,-0.3961 0.56359,-0.59762zM259.68531,189.5658c0.05063,0.17009 0.21033,0.28804 0.36701,0.42334c0.19135,-0.18066 0.41245,-0.30238 0.53216,-0.5316c-0.13128,-0.1666 -0.19531,-0.37485 -0.38483,-0.5518c-0.17794,0.21886 -0.33644,0.4412 -0.51434,0.66007zM261.99183,187.2205c-0.07345,0.30908 -0.07223,0.64936 -0.18455,0.95153c-0.08386,0.25353 0.02805,0.41662 0.23695,0.59704c0.16888,-0.16677 0.24076,-0.35086 0.33499,-0.54883c-0.20432,-0.32274 -0.24436,-0.66996 -0.38743,-0.99971zM252.71586,184.04638c0.08066,-0.00351 0.08964,-0.05561 0.09868,-0.10768c0.05845,-0.22224 0.10048,-0.46534 0.17833,-0.68416c0.13468,-0.31607 -0.02942,-0.52428 -0.24877,-0.76025c-0.05985,0.11466 -0.11364,0.19452 -0.14808,0.27787c-0.09424,0.19799 -0.1467,0.38549 -0.00503,0.60764c0.07605,0.1388 0.08782,0.30203 0.10269,0.44786c-0.03144,0.06599 -0.08525,0.14588 0.02219,0.21872zM252.93835,187.50453c0.10906,-0.05214 0.17933,-0.11124 0.24656,-0.15294c0.21813,-0.1043 0.30341,-0.25021 0.3006,-0.46548c-0.00878,-0.18053 0.04367,-0.36809 0.05426,-0.54517c0.00904,-0.05209 0.03743,-0.10072 -0.09547,-0.14231c-0.13912,0.22577 -0.31701,0.44469 -0.53076,0.63926c-0.04784,0.04517 -0.06282,0.13196 -0.07486,0.20141c0.0148,0.14579 0.0326,0.27431 0.09965,0.4652zM257.72777,189.1991c-0.04762,-0.18745 -0.07283,-0.38881 -0.18173,-0.56932c-0.22713,0.15643 -0.46768,0.27462 -0.6426,0.47612c0.08647,0.19439 0.11465,0.37837 0.31018,0.52063c0.18234,-0.12862 0.38107,-0.23637 0.51413,-0.42745zM258.49958,182.76809c0.22712,-0.15643 0.37963,-0.34403 0.49327,-0.53854c-0.08645,-0.19439 -0.15649,-0.36792 -0.30419,-0.55534c-0.17333,0.07652 -0.29439,0.19814 -0.39905,0.34056c0.07744,0.24645 0.13549,0.48948 0.2099,0.75332zM255.86203,189.68997c0.09548,0.14232 0.13867,0.23948 0.22374,0.32621c0.04923,0.06247 0.10144,0.10757 0.15372,0.15267c0.20912,-0.05222 0.40486,-0.14263 0.55136,-0.29552c-0.06703,-0.1909 -0.13407,-0.38182 -0.30721,-0.53797c-0.20172,0.12512 -0.39745,0.21556 -0.62158,0.35458zM252.59476,185.90408c-0.24956,0.17033 -0.42885,0.28153 -0.6336,0.42403c-0.03144,0.06598 -0.03305,0.19095 0.00719,0.30553c0.02081,0.11107 -0.03902,0.22571 0.06243,0.33329c0.18372,-0.02097 0.3152,-0.08703 0.43328,-0.19127c0.02862,-0.28128 0.07369,-0.54172 0.13073,-0.8716zM256.20588,180.87385c0.08208,0.10413 0.16412,0.20824 0.24612,0.31236c0.08209,0.10413 0.16713,0.19083 0.24915,0.29495c0.1689,-0.16676 0.32882,-0.28147 0.40067,-0.46553c-0.04021,-0.11454 -0.15068,-0.17002 -0.23872,-0.23942c-0.08804,-0.06936 -0.16713,-0.19083 -0.30597,-0.1977c-0.13752,0.10082 -0.26896,0.16684 -0.35123,0.29539zM258.23171,190.21959c-0.12528,-0.20129 -0.1863,-0.42698 -0.39528,-0.60738c-0.15989,0.11471 -0.30039,0.23284 -0.4603,0.34753c0.12527,0.20129 0.2147,0.37833 0.43266,0.50663c0.15089,-0.06261 0.29581,-0.09047 0.42288,-0.24681zM254.42573,182.4897c0.17053,-0.29176 0.31561,-0.55227 0.46068,-0.81277c-0.05962,-0.11804 -0.09983,-0.2326 -0.22972,-0.29151c-0.24657,0.15296 -0.38565,0.37871 -0.54413,0.60105c0.05963,0.11804 0.11925,0.23603 0.20129,0.34014c0.00738,0.07292 0.04321,0.09718 0.11185,0.1631zM254.93257,188.70105c-0.08348,-0.21176 -0.04744,-0.42012 -0.17871,-0.58669c-0.24355,0.13559 -0.46467,0.25727 -0.65603,0.43798c0.1149,0.14577 0.08482,0.31937 0.26095,0.45815c0.2091,-0.05223 0.35264,-0.18776 0.57379,-0.30941zM261.26287,182.29396c-0.1539,0.07997 -0.29136,0.18077 -0.39305,0.30585c0.08047,0.22912 0.14148,0.45475 0.21593,0.71857c0.14947,-0.17021 0.28998,-0.28839 0.47532,-0.43433c-0.08045,-0.22913 -0.14448,-0.43741 -0.29818,-0.59009zM252.96936,187.90382c0.03861,0.23957 0.06384,0.44092 0.23393,0.61442c0.17029,-0.05916 0.3182,-0.10436 0.41988,-0.22944c-0.04162,-0.22218 -0.06384,-0.44088 -0.11887,-0.70128c-0.19574,0.09042 -0.37203,0.1843 -0.53494,0.31635zM259.36054,181.95502c0.1719,-0.18414 0.40347,-0.25031 0.47532,-0.43438c-0.08645,-0.19439 -0.22373,-0.32623 -0.38344,-0.44418c-0.17631,0.09388 -0.34963,0.17038 -0.44091,0.35097c0.11186,0.16311 0.20434,0.32275 0.34901,0.52753zM259.70717,190.2498c-0.11489,-0.14576 -0.19091,-0.28457 -0.35362,-0.38516c-0.16888,0.16677 -0.40346,0.25027 -0.52015,0.46216c0.09547,0.14232 0.19993,0.23252 0.37164,0.281c0.17932,-0.11124 0.34222,-0.24327 0.50209,-0.35799zM253.58684,182.01805c-0.09246,-0.15967 -0.17749,-0.24635 -0.30438,-0.32274c-0.15991,0.11471 -0.30642,0.26755 -0.3424,0.47591c0.09847,0.12494 0.19689,0.24983 0.29237,0.39216c0.18833,-0.16332 0.24377,-0.36821 0.35443,-0.54537zM262.95831,188.80656c-0.10142,-0.10756 -0.18653,-0.19433 -0.29996,-0.23243c-0.14648,0.15284 -0.25414,0.31269 -0.32598,0.49676c0.07901,0.12146 0.16409,0.20821 0.29396,0.26715c0.16593,-0.14942 0.22134,-0.35433 0.33199,-0.53147zM256.56927,190.46029c0.08043,0.2291 0.23273,0.27414 0.41045,0.28792c0.13586,0.02423 0.27778,0.01369 0.36004,-0.11484c-0.09246,-0.15967 -0.18789,-0.30195 -0.3476,-0.4199c-0.1539,0.07997 -0.28837,0.1634 -0.42287,0.24681zM262.75614,184.18872c-0.03122,-0.16663 -0.0072,-0.30551 -0.12806,-0.41654c-0.43927,0.226 -0.39929,0.5732 -0.26819,0.97237c0.13309,-0.19105 0.26321,-0.36478 0.39626,-0.55582zM254.83303,189.73932c0.18673,-0.03829 0.3182,-0.10438 0.46168,-0.23989c-0.1209,-0.111 -0.1103,-0.28812 -0.25357,-0.38523c-0.11949,-0.00341 -0.17029,0.05913 -0.25696,0.09737c-0.08962,0.0556 -0.19272,0.07305 -0.21374,0.19459c0.05963,0.11804 0.11929,0.23605 0.26257,0.33316zM257.75527,185.10538c0.1955,0.14221 0.318,0.12826 0.36439,-0.02454c0.05846,-0.22224 0.07808,-0.45145 0.09468,-0.66325c0.01203,-0.06942 0.00757,-0.15973 -0.10286,-0.2152c-0.1511,0.29524 -0.26337,0.59737 -0.35625,0.90301zM260.80764,190.48166c0.0208,0.11108 0.08946,0.17702 0.20293,0.21517c0.22117,-0.12168 0.47814,-0.21907 0.63663,-0.4414c-0.21494,-0.14568 -0.39568,-0.14212 -0.56156,0.00731c-0.08965,0.05561 -0.21517,0.08697 -0.278,0.21894zM260.3865,185.39521c0.27173,0.04843 0.336,0.02401 0.36303,-0.13219c0.02261,-0.24655 0.04825,-0.51043 -0.00679,-0.77081c-0.20934,0.28487 -0.39626,0.55583 -0.35625,0.90302zM262.97571,187.66424c-0.04344,0.13541 -0.06442,0.25701 -0.10487,0.37505c-0.06149,0.23962 -0.06143,0.23962 0.27296,0.38872c0.05985,-0.11466 0.14211,-0.24317 0.1735,-0.30915c-0.13128,-0.16661 -0.22673,-0.30886 -0.34161,-0.45461zM258.71825,180.46243c-0.13151,0.06605 -0.31221,0.06968 -0.34524,0.26067c0.10144,0.10757 0.22534,0.20123 0.3432,0.32961c0.15392,-0.07997 0.32422,-0.13907 0.40645,-0.26762c-0.12092,-0.111 -0.21935,-0.23598 -0.40445,-0.32266zM261.55432,188.82494c-0.13604,0.20843 -0.29161,0.41338 -0.42766,0.62181c0.02383,0.0937 0.07001,0.17354 0.19247,0.15958c0.20172,-0.12512 0.37068,-0.29192 0.4679,-0.50726c-0.05962,-0.11804 -0.12527,-0.20128 -0.23277,-0.27413zM261.84506,182.63041c0.13887,0.00686 0.24799,-0.04529 0.34362,-0.13565c-0.02681,-0.07639 -0.05363,-0.15273 -0.08046,-0.22911c-0.04319,-0.09719 -0.06707,-0.19092 -0.17752,-0.24637c-0.11646,-0.02076 -0.21951,-0.00335 -0.31219,0.06967c0.07007,0.17358 0.15651,0.36794 0.2265,0.54149zM258.08101,181.60175c0.15392,-0.07997 0.25258,-0.18768 0.33484,-0.3162c-0.13727,-0.13185 -0.25515,-0.26022 -0.37601,-0.37124c-0.16432,0.02445 -0.25997,0.11478 -0.29741,0.2155c0.11185,0.16311 0.22373,0.32622 0.33858,0.47201zM262.52841,183.30696c-0.04021,-0.11454 -0.08043,-0.2291 -0.14006,-0.34714c-0.01639,-0.0208 -0.05526,-0.02773 -0.09109,-0.05203c-0.08667,0.03824 -0.20912,0.05221 -0.29137,0.18077c0.03424,0.14931 0.04306,0.32982 0.15491,0.49294c0.17027,-0.05916 0.26593,-0.14951 0.36761,-0.27458zM263.29916,184.9835c0.05244,-0.18753 0.27198,-0.18423 0.30199,-0.35784c-0.05363,-0.1527 -0.04598,-0.31245 -0.17729,-0.47901c-0.15089,0.06261 -0.2824,0.12869 -0.25114,0.29531c0.03122,0.16664 -0.01522,0.31942 0.12645,0.54156zM262.05964,189.95304c0.09866,-0.10769 0.21672,-0.21197 0.31239,-0.30228c0.02242,-0.01389 0.00902,-0.0521 0.015,-0.08683c-0.09105,-0.05202 -0.17308,-0.15614 -0.35682,-0.13514c-0.12104,0.12162 -0.24517,0.26057 -0.38866,0.39612c0.12386,0.09365 0.23736,0.13177 0.41807,0.12821zM257.65478,180.59512c-0.09845,-0.12494 -0.19391,-0.26723 -0.27596,-0.37131c-0.18372,0.02096 -0.31523,0.08701 -0.42728,0.15655c-0.0016,0.12503 0.13128,0.16655 0.19993,0.2325c0.06867,0.06592 0.13429,0.14921 0.27319,0.15605c0.08366,-0.02089 0.17031,-0.05916 0.23016,-0.17379zM253.32095,188.87924c0.07607,0.1388 0.13869,0.23951 0.20131,0.34013c0.01339,0.03819 0.06864,0.06594 0.08506,0.08676c0.13586,0.02423 0.24497,-0.02792 0.34061,-0.1183c-0.07306,-0.15619 -0.12669,-0.30894 -0.24149,-0.4547c-0.12547,0.03135 -0.23456,0.0835 -0.38545,0.1461zM263.50276,187.74024c0.1167,-0.21189 0.23335,-0.42376 0.21717,-0.67722c-0.18371,0.02097 -0.34205,0.01066 -0.4631,0.13224c0.04598,0.31246 0.046,0.31247 0.24592,0.54496zM255.12094,190.0412c0.27297,0.38873 0.29236,0.39215 0.67182,0.28074c-0.09548,-0.14232 -0.21332,-0.27066 -0.30875,-0.41299c-0.13887,-0.00686 -0.24793,0.0453 -0.36304,0.13217zM261.05121,181.89831c-0.07305,-0.15619 -0.15211,-0.27767 -0.29539,-0.37482c-0.04183,0.01045 -0.10609,0.03479 -0.17033,0.05914c-0.04483,0.02782 -0.09269,0.07299 -0.13748,0.10077c0.07307,0.15619 0.1237,0.32631 0.26397,0.4408c0.12546,-0.03134 0.24057,-0.11821 0.33919,-0.22594zM252.29732,187.85566c0.06422,-0.02436 0.15089,-0.06263 0.17933,-0.11125c0.09127,-0.18062 0.08244,-0.36111 -0.02042,-0.57637c-0.1285,0.04868 -0.28977,0.05575 -0.36604,0.14957c0.04762,0.18745 0.03401,0.38191 0.20712,0.53803zM254.36871,181.0835c-0.01638,-0.02081 -0.03282,-0.04165 -0.06562,-0.08327c-0.27639,0.09396 -0.50353,0.25036 -0.73064,0.40676c0.03722,0.13191 0.10586,0.19782 0.25814,0.24287c0.1719,-0.18414 0.36318,-0.36482 0.53814,-0.56635zM259.40007,184.50356c-0.16149,0.2397 -0.33938,0.45856 -0.37102,0.75718c-0.00302,0.01737 0.06865,0.06589 0.10745,0.07283c0.09705,0.01726 0.18671,-0.03834 0.20168,-0.12515c0.09728,-0.21534 0.09747,-0.44799 0.06186,-0.70487zM260.51565,181.17643c-0.07902,-0.12149 -0.15809,-0.24296 -0.28196,-0.33662c-0.13588,-0.02423 -0.23894,-0.00678 -0.35702,0.09743c0.11788,0.1284 0.23273,0.27416 0.3536,0.38517c0.12244,-0.01397 0.2091,-0.05224 0.28537,-0.14604zM258.02356,190.84471c0.26876,0.06578 0.4987,0.12468 0.75265,0.04465c-0.03123,-0.16662 -0.15507,-0.26031 -0.30137,-0.34008c-0.17331,0.07652 -0.32421,0.1391 -0.45129,0.29547zM251.48049,186.09931c0.19274,-0.07305 0.21513,-0.08691 0.22417,-0.13903c0.04945,-0.17015 -0.02059,-0.34374 -0.09365,-0.49992c-0.0298,-0.05899 -0.1239,-0.09363 -0.20014,0.00015c0.08945,0.17702 -0.02725,0.38893 0.06964,0.63883zM255.12413,181.3434c0.19135,-0.18066 0.39907,-0.34056 0.46948,-0.63227c-0.29275,0.07312 -0.4647,0.25728 -0.63058,0.40669c0.00437,0.09027 0.05663,0.13535 0.16111,0.22555zM254.1298,189.52452c-0.10607,0.0348 -0.20912,0.05224 -0.31519,0.08703c0.07005,0.17359 0.1655,0.31587 0.38804,0.30181c0.06125,-0.00698 0.12244,-0.01398 0.1539,-0.07997c-0.0208,-0.11107 -0.10587,-0.19785 -0.22673,-0.30886zM261.71714,185.45334c0.17472,0.0311 0.25835,0.01026 0.26295,-0.1321c0.00162,-0.12503 0.0032,-0.25001 -0.01461,-0.37848c-0.01044,-0.05552 -0.04021,-0.11458 -0.12087,-0.11104c-0.09426,0.19798 -0.12727,0.38897 -0.12748,0.62161zM254.40066,183.79176c-0.1167,0.2119 -0.19452,0.43071 -0.17533,0.66679c-0.00301,0.01738 0.06866,0.06589 0.08804,0.06936c0.03879,0.00692 0.08667,-0.03824 0.09266,-0.07299c0.01963,-0.22917 0.09448,-0.43064 -0.00539,-0.66322zM253.36686,184.2161c-0.02821,-0.184 0.00482,-0.37503 -0.0786,-0.58677c-0.13606,0.20841 -0.20793,0.39251 -0.1677,0.50705c0.0208,0.11107 0.09845,0.12495 0.24632,0.07969zM259.94253,190.97183c0.24195,-0.0106 0.51375,0.03783 0.68564,-0.14632c-0.32538,-0.20114 -0.49727,-0.017 -0.68564,0.14632zM260.2171,187.76338c0.03879,0.00691 0.06131,-0.00699 0.10008,-0.00007c0.01059,-0.17707 0.11525,-0.31953 0.04521,-0.49307c-0.11345,-0.03813 -0.17471,-0.03112 -0.24795,0.04531c0.03722,0.13191 0.07143,0.28118 0.10268,0.44786zM256.85399,184.30044c-0.10026,0.23271 -0.1721,0.41679 -0.18874,0.6286c-0.00601,0.03472 0.0268,0.07637 0.08503,0.08674c0.01944,0.00346 0.06124,-0.00699 0.08366,-0.02091c0.1167,-0.21189 0.15269,-0.42023 0.02002,-0.69444zM252.59128,188.12281c-0.12245,0.01398 -0.18669,0.03831 -0.15689,0.09733c0.03722,0.13191 0.09386,0.26729 0.15049,0.40268c0.04621,0.07983 0.10443,0.09021 0.17469,0.03112c-0.02518,-0.20138 -0.05643,-0.36803 -0.16828,-0.53112zM259.54992,180.62851c0.08667,-0.03824 0.17031,-0.05916 0.25697,-0.09739c0.02242,-0.01388 0.02841,-0.04864 0.05685,-0.09726c-0.2329,-0.04152 -0.43743,-0.13162 -0.70183,-0.10715c0.11788,0.1284 0.20293,0.21514 0.38803,0.3018zM255.22852,186.64182c-0.01061,0.17708 -0.01822,0.33684 -0.03483,0.54864c0.22416,-0.13907 0.30941,-0.28493 0.32,-0.46201c-0.08804,-0.06937 -0.14328,-0.09713 -0.28518,-0.08663zM261.39883,187.29379c0.05663,0.1354 -0.01523,0.31942 0.1803,0.46166c0.13027,-0.40634 0.14529,-0.49312 0.05423,-0.54518c-0.09705,-0.01726 -0.16132,0.00706 -0.23456,0.0835zM255.68324,184.12768c-0.27799,0.21892 -0.31398,0.42728 -0.28138,0.70157c0.30778,-0.15995 0.1945,-0.43067 0.28138,-0.70157zM262.87369,184.78238c-0.25557,0.20502 -0.28861,0.39606 -0.2858,0.61132c-0.00301,0.01737 0.03283,0.04164 0.07163,0.04855c0.05824,0.01039 0.10307,-0.01744 0.10906,-0.05215c0.04946,-0.17015 0.06005,-0.34723 0.10509,-0.60768zM262.37574,187.19938c0.03122,0.16663 0.02061,0.34374 0.19368,0.49982c0.08825,-0.16326 0.09585,-0.32298 0.10048,-0.46533c-0.10744,-0.07285 -0.18808,-0.06931 -0.29417,-0.0345zM263.31656,183.84111c-0.10888,-0.18049 -0.07584,-0.37148 -0.25795,-0.47552c-0.10026,0.23271 -0.10026,0.2327 0.07122,0.51382c0.04183,-0.01045 0.08366,-0.02089 0.18672,-0.03832zM260.33903,190.18336c0.28077,-0.00368 0.44368,-0.13572 0.59017,-0.2886c-0.04021,-0.11454 -0.11788,-0.1284 -0.18509,-0.08668c-0.12104,0.12163 -0.26157,0.23978 -0.40504,0.3753zM261.38143,181.72444c0.11949,0.0034 0.21953,0.00333 0.29576,-0.09046c-0.06262,-0.10063 -0.12526,-0.20132 -0.2387,-0.2394c-0.10006,0.00006 -0.16429,0.02444 -0.21516,0.08698c0.02383,0.09371 0.07306,0.15619 0.15811,0.24293zM257.84435,187.48379c0.08226,-0.1285 0.13911,-0.2258 0.11829,-0.3369c-0.01339,-0.03819 -0.04921,-0.06247 -0.08505,-0.08676c-0.05824,-0.01039 -0.14191,0.01049 -0.1315,0.06603c-0.01802,0.10421 -0.03903,0.22573 0.09827,0.3576zM258.26595,180.18495c-0.16571,-0.08322 -0.33602,-0.02406 -0.4973,-0.01699c0.19391,0.26724 0.23275,0.27412 0.4973,0.01699zM252.28281,184.00501c0.12268,-0.24662 0.12268,-0.24661 -0.03401,-0.38193c-0.05685,0.09726 -0.11668,0.21191 0.03401,0.38193zM259.10947,187.22593c-0.06867,-0.06592 -0.12688,-0.07629 -0.15228,-0.04505c-0.12104,0.12163 -0.11066,0.17716 0.03703,0.36456c0.07926,-0.11114 0.0973,-0.21536 0.1153,-0.31954zM263.66492,185.06657c-0.11207,0.06955 -0.20472,0.14252 -0.18694,0.27094c0.31958,0.00323 0.34498,-0.02799 0.18694,-0.27094zM251.98027,183.32471c-0.13752,0.10082 -0.18094,0.23622 -0.22134,0.35428c-0.01203,0.06944 0.03722,0.13194 0.16571,0.08323c0.04041,-0.11807 0.08387,-0.25355 0.05565,-0.43752zM262.78287,182.76163c-0.06885,0.16672 -0.02564,0.26392 0.12367,0.32631c0,0 0.04183,-0.01045 0.04482,-0.02782c0.03741,-0.10073 -0.067,-0.19091 -0.16848,-0.29853zM256.56774,187.11314c0.12245,-0.01398 0.17333,-0.07652 0.1659,-0.14941c0.00601,-0.03472 -0.02681,-0.07638 -0.06262,-0.10065c-0.03585,-0.02428 -0.10004,0.00006 -0.10604,0.0348c-0.02843,0.04864 -0.04044,0.11806 0.00277,0.21527zM260.79072,180.9749c0.05663,0.13539 0.12526,0.20131 0.29259,0.1595c-0.07307,-0.15619 -0.14469,-0.20477 -0.29259,-0.1595z" fill="#000000"/><path d="M255.27803,193.18334c0.61816,0.12806 1.23638,0.25612 1.85757,0.36678c0.69886,0.12452 1.40966,0.17957 2.1161,0.14436c0.22253,-0.01405 0.41223,-0.0697 0.65717,-0.09765c-0.04804,0.27783 -0.07062,0.52433 -0.13208,0.76395c-0.32985,1.44466 -0.56564,2.92395 -0.85964,4.39289c-0.26701,1.31266 -0.51158,2.61143 -0.75915,3.92757c-0.17552,0.89942 -0.34806,1.78148 -0.5236,2.68088c-0.16652,0.84734 -0.29121,1.6842 -0.45771,2.53153c-0.01203,0.06946 -0.02404,0.13892 -0.05545,0.2049c-0.30478,0.14259 -0.61098,0.17749 -0.95298,0.18817c-0.54215,0.01079 -1.09767,-0.01661 -1.63819,-0.13081c-0.17472,-0.0311 -0.35241,-0.04488 -0.49269,-0.15939c0.18073,-0.00361 0.36581,0.08305 0.59436,0.03431c-0.08781,-0.302 0.02143,-0.58679 0.05005,-0.86808c0.00301,-0.01737 0.00601,-0.03471 -0.01339,-0.03818c-0.07421,-0.49645 0.01286,-0.99999 -0.00015,-1.50347c-0.0088,-0.18053 -0.07585,-0.37147 -0.00702,-0.53817c0.09889,-0.34033 -0.01881,-0.70136 0.08007,-1.04175c0.00301,-0.01737 -0.01041,-0.05554 -0.00438,-0.09028c-0.00121,-0.34024 -0.02478,-0.66663 0.01284,-0.99997c0.06605,-0.38198 -0.0292,-0.75694 0.07566,-1.13199c-0.07744,-0.24645 0.00044,-0.46526 0.02305,-0.7118c0.00601,-0.03472 0.009,-0.05211 0.01502,-0.08681c-0.09525,-0.37493 0.04543,-0.72572 0.02784,-1.08683c-0.0176,-0.36108 0.08425,-0.7188 0.08606,-1.07644c0.01083,-0.40974 -0.03964,-0.81244 0.0907,-1.2188c0.00601,-0.03472 0.01503,-0.08683 0.00162,-0.12501c-0.08348,-0.21176 0.01082,-0.40972 0.02746,-0.62154c0.01802,-0.10421 0.05843,-0.22223 0.03763,-0.33334c-0.0506,-0.1701 -0.00719,-0.30553 0.01983,-0.46183c0.01502,-0.08683 0.04945,-0.1702 0.0226,-0.24654c-0.07744,-0.24645 0.00339,-0.48263 0.04243,-0.70833c0.01502,-0.08683 0.04942,-0.17016 0.02262,-0.24655c-0.064,-0.20827 -0.0116,-0.39582 0.02145,-0.58682c0.05403,-0.31257 -0.0278,-0.64927 0.04566,-0.95833c0.02841,-0.04864 -0.02078,-0.11108 -0.03123,-0.16663z" fill="#87d7dc"/><path d="M255.27803,193.18337c0.01039,0.05553 0.05964,0.11802 0.05063,0.17011c-0.07343,0.30909 -0.01103,0.64235 -0.04564,0.95835c-0.03303,0.19099 -0.08547,0.37855 -0.02145,0.58681c0.02681,0.07639 -0.0076,0.15974 -0.02258,0.24653c-0.039,0.22572 -0.1005,0.46533 -0.04248,0.70835c0.02681,0.07638 -0.02701,0.15629 -0.02259,0.24655c-0.02701,0.15626 -0.05104,0.29518 -0.01983,0.46183c0.0208,0.11107 -0.01963,0.22921 -0.03765,0.33337c-0.0166,0.2118 -0.11087,0.4098 -0.02743,0.62154c0.01339,0.03819 0.00439,0.09027 -0.00161,0.125c-0.12728,0.38898 -0.07988,0.80911 -0.09069,1.21882c-0.00482,0.37503 -0.10668,0.7327 -0.08611,1.07644c0.01761,0.36107 -0.12307,0.71189 -0.02783,1.08681c0.01638,0.02082 -0.00903,0.0521 -0.01503,0.08684c-0.039,0.22572 -0.10046,0.46533 -0.02302,0.71183c-0.1243,0.37162 -0.02902,0.74655 -0.07569,1.13198c-0.05705,0.3299 -0.01402,0.65972 -0.01286,0.99998c-0.00601,0.03472 0.01045,0.05557 0.00442,0.09028c-0.09889,0.34033 0.01881,0.70135 -0.08007,1.04174c-0.05242,0.18753 0.01758,0.3611 0.00701,0.53818c-0.00641,0.5 -0.07406,1.007 0.00015,1.50345c-0.00301,0.01737 0.01342,0.03819 0.01342,0.03819c-0.02861,0.28129 -0.13791,0.56609 -0.05005,0.86809c-0.20912,0.05223 -0.39124,-0.05183 -0.59436,-0.03433c-0.15528,-0.02766 -0.31056,-0.05537 -0.42846,-0.18378c0.01802,-0.10421 0.05843,-0.22223 0.03762,-0.33332c-0.07284,-0.38881 0.00966,-0.75001 0.03388,-1.12157c0.02422,-0.37152 -0.04864,-0.76035 0.07566,-1.13196c-0.07744,-0.24645 0.00038,-0.46528 0.02302,-0.71182c0.00601,-0.03472 0.01501,-0.08682 0.00161,-0.12501c-0.07005,-0.17358 -0.00118,-0.34025 0.00642,-0.50002c0.01502,-0.08683 0.02999,-0.17363 0.02261,-0.24654c-0.03101,-0.3993 -0.03965,-0.81245 0.02943,-1.21182c0.00904,-0.05209 0.04046,-0.11809 0.0076,-0.15972c-0.06702,-0.19089 -0.01762,-0.36108 0.0124,-0.53472c0.05242,-0.18753 -0.05345,-0.38539 0.00203,-0.59027c0.06745,-0.27436 0.01541,-0.55209 0.02463,-0.83682c0.02722,-0.38892 -0.02619,-0.77427 0.04289,-1.17361c0.01203,-0.06946 0.04645,-0.15282 0.0166,-0.21182c-0.0536,-0.15275 -0.00722,-0.30552 0.00041,-0.46524c0.02403,-0.1389 0.02862,-0.28124 0.01084,-0.40974c-0.03861,-0.23957 -0.03842,-0.47219 0.00358,-0.71529c0.04365,-0.36807 -0.02921,-0.75692 0.09506,-1.1285c0.00601,-0.03472 -0.00436,-0.09026 0.00162,-0.12502c0.00482,-0.37503 -0.00982,-0.75345 0.03388,-1.12152c0.06605,-0.38198 -0.0232,-0.79166 0.0817,-1.16671c0.00904,-0.05209 -0.02082,-0.11108 -0.03123,-0.16663c0.0002,-0.23263 0.02282,-0.47918 0.12009,-0.69451c0.10007,-0.00006 0.1777,0.01373 0.25836,0.01025c0.26277,0.10052 0.4897,0.17674 0.73906,0.23908z" fill="#b0eef2"/><path d="M264.11243,185.71904c0.00119,0.34023 -0.02446,0.60417 -0.14714,0.85079c-0.17934,0.11124 -0.40185,0.1253 -0.62736,0.15669c-1.11869,0.10494 -2.23438,0.19251 -3.36488,0.13429c-0.85274,-0.04456 -1.7249,-0.09254 -2.582,-0.22735c-0.23292,-0.04151 -0.4823,-0.10383 -0.72426,-0.09327c-0.10007,0.00006 -0.21654,-0.02071 -0.33297,-0.04144c-0.4539,-0.15247 -0.92576,-0.20075 -1.38868,-0.30112c-0.65702,-0.13494 -1.30203,-0.33935 -1.941,-0.5785c-0.31799,-0.12824 -0.63901,-0.23915 -0.97941,-0.35347c-0.26573,-0.08317 -0.48067,-0.22882 -0.69862,-0.35715c-0.08183,-0.33676 -0.08023,-0.46173 0.03065,-0.87153c0.42404,0.09342 0.8137,0.27025 1.23172,0.39845c0.39864,0.12472 0.81667,0.2529 1.21834,0.36028c0.42104,0.11084 0.86455,0.20774 1.28858,0.30119c0.40163,0.10737 0.84071,0.11397 1.23339,0.27344c0.4421,-0.01072 0.86012,0.11747 1.29021,0.17619c0.41066,0.05528 0.84372,0.09662 1.2574,0.13454c0.43308,0.04137 0.86911,0.06536 1.32463,0.09285c0.41666,0.02055 0.84971,0.06192 1.26941,0.06508c0.43906,0.00663 0.86473,-0.0249 1.30682,-0.03562c0.4615,-0.00727 0.88114,-0.00409 1.33524,-0.08426z" fill="#d1eaeb"/><path d="M254.55536,192.96515c-0.08065,0.00351 -0.15831,-0.0103 -0.25835,-0.01023c-0.09726,0.21536 -0.13628,0.44105 -0.12009,0.69452c0.01039,0.05554 0.04021,0.11456 0.03122,0.16663c-0.10488,0.37505 -0.03503,0.78131 -0.08169,1.16672c-0.06306,0.36463 -0.02904,0.74653 -0.0339,1.12153c-0.00601,0.03472 0.0044,0.09028 -0.00161,0.125c-0.12432,0.37161 -0.02907,0.74652 -0.0951,1.12851c-0.039,0.22572 -0.04222,0.47572 -0.00358,0.71528c0.0148,0.14577 0.01021,0.28817 -0.01082,0.40973c-0.02701,0.15626 -0.07044,0.29171 -0.00039,0.46527c0.02979,0.05899 -0.00462,0.14238 -0.01664,0.21182c-0.06605,0.38198 -0.01559,0.7847 -0.04285,1.17361c-0.00924,0.28473 0.04284,0.56246 -0.02464,0.83681c-0.05242,0.18753 0.05343,0.38537 -0.00203,0.59027c-0.04944,0.17017 -0.10187,0.3577 -0.01244,0.53473c0.01039,0.05554 0.0014,0.10763 -0.00758,0.15971c-0.06907,0.39933 -0.0575,0.79514 -0.02944,1.21181c0.00437,0.09027 -0.02999,0.17361 -0.02262,0.24651c-0.02701,0.15626 -0.07642,0.32645 -0.00639,0.5c0.01339,0.03819 0.00441,0.09027 -0.00161,0.12499c-0.039,0.22572 -0.10048,0.46534 -0.02304,0.71182c-0.12429,0.37161 -0.05146,0.76045 -0.07565,1.13196c-0.02422,0.37152 -0.10967,0.75004 -0.03388,1.12151c0.0208,0.11108 -0.01964,0.22918 -0.03763,0.33335c-0.17772,-0.01377 -0.27616,-0.13868 -0.40906,-0.18025c0.02902,-0.74652 0.03266,-1.46182 0.0557,-2.17361c0.01564,-0.78472 0.04766,-1.54862 0.08266,-2.32987c0.02603,-0.72919 0.03264,-1.46182 0.03927,-2.19445c0.01726,-0.90973 0.01204,-1.80554 0.02626,-2.69789c0.01703,-0.67711 0.0341,-1.35418 0.03167,-2.03472c0.02182,-1.05209 0.12431,-2.10773 0.1073,-3.16671c0.0046,-0.14235 -0.02962,-0.29163 0.05564,-0.43751c0.17472,0.0311 0.3404,0.11434 0.50913,0.18021c0.09106,0.05201 0.27175,0.04841 0.41208,0.1629z" fill="#87d7dc"/><path d="M254.35058,208.49979c0.41365,0.0379 0.79591,0.14181 1.21254,0.16233c0.47791,0.01357 0.9588,0.00973 1.45769,-0.09822c-0.17411,1.00706 -0.34524,1.99674 -0.51337,2.96907c-0.24656,0.15296 -0.51091,0.17741 -0.75888,0.22274c-0.47349,0.07672 -0.92597,0.03189 -1.39786,-0.0164c-0.01944,-0.00346 -0.05522,-0.02773 -0.07165,-0.04855c0.19272,-0.07304 0.15848,-0.22231 0.14368,-0.36815c-0.03702,-0.36457 -0.05464,-0.72564 0.02484,-1.06944c0.01203,-0.06946 0.02401,-0.13891 0.01659,-0.2118c-0.05944,-0.35067 0.02002,-0.69444 0.01882,-1.03474c-0.00575,-0.19791 -0.02065,-0.34368 -0.13249,-0.50683z" fill="#61afb4"/><path d="M254.66348,190.60399c0.6614,0.22523 1.3438,0.32892 2.01421,0.50205c0.30757,0.07271 0.62419,0.0933 0.94081,0.11393c0.58837,0.06906 1.18411,0.21098 1.78449,0.21054c0.23896,0.00679 0.4779,0.01358 0.70044,-0.00046c0.14191,-0.0105 0.28076,-0.00369 0.41667,0.02054c0.01044,0.05552 0.0238,0.09372 0.01779,0.12847c-0.02404,0.13889 -0.04801,0.27779 -0.07202,0.4167c-0.10606,0.03481 -0.18973,0.05565 -0.29278,0.07312c-0.73483,0.08384 -1.48913,0.16424 -2.24623,0.02933c-0.66302,-0.10021 -1.34538,-0.20391 -1.99644,-0.37359c-0.51816,-0.12811 -1.03926,-0.23886 -1.51394,-0.50239c0.10306,-0.01746 0.21053,0.0554 0.30617,-0.03494c0.07185,-0.18407 0.16912,-0.39942 -0.05923,-0.58328z" fill="#61aeb3"/><path d="M254.92821,191.8503c0.33602,0.02408 0.62857,0.1836 0.95557,0.25975c0.69586,0.14187 1.39167,0.28378 2.0965,0.37354c0.56893,0.06559 1.13051,0.05822 1.67865,0.01272c0.14191,-0.0105 0.28376,-0.02104 0.42565,-0.03155c-0.04202,0.24309 -0.07801,0.45147 -0.11709,0.67717c-0.26897,0.16684 -0.57518,0.20175 -0.89477,0.19854c-0.38084,0.00376 -0.78106,0.004 -1.17231,-0.04781c-0.88555,-0.08623 -1.73368,-0.27312 -2.60423,-0.44611c-0.15528,-0.02767 -0.31061,-0.05534 -0.43148,-0.16637c0.01502,-0.08683 0.0494,-0.17018 0.0226,-0.24654c-0.04762,-0.18746 0.00781,-0.39239 0.04082,-0.58334z" fill="#61aeb3"/><path d="M254.35056,208.49979c0.09548,0.14232 0.12966,0.29156 0.11906,0.46866c0.00119,0.34025 -0.07828,0.68409 -0.01882,1.03472c0.00739,0.07292 -0.00459,0.14239 -0.01661,0.21184c-0.06304,0.36464 -0.04244,0.70833 -0.02484,1.06943c0.0178,0.12847 0.04904,0.29511 -0.1437,0.36815c-0.29418,-0.03453 -0.55995,-0.11765 -0.79728,-0.24943c-0.01623,-0.25348 -0.05181,-0.51039 0.02902,-0.74654c0.00601,-0.03472 -0.00438,-0.09027 0.00161,-0.12501c0.00181,-0.35762 0.00661,-0.73264 0.02782,-1.08682c0.0076,-0.15972 0.03165,-0.29862 0.01984,-0.46183c-0.02518,-0.20137 -0.0086,-0.4132 0.12149,-0.58689c0.10006,-0.00006 0.1777,0.01376 0.25835,0.01026c0.13586,0.02423 0.28819,0.06924 0.42404,0.09343z" fill="#87d7dc"/><path d="M256.62727,182.25554c0.19095,0.28459 0.23995,0.57964 0.26955,0.87134c0.0074,0.07291 -0.01062,0.1771 -0.04202,0.24309c-0.24235,0.47586 -0.40709,0.96556 -0.55239,1.45869c-0.00301,0.01737 -0.02841,0.04862 -0.05083,0.06255c-0.08667,0.03824 -0.18373,0.02099 -0.27176,-0.0484c0.00601,-0.03472 -0.00744,-0.07293 -0.00141,-0.10765c0.0915,-0.41322 0.12472,-0.83688 0.05788,-1.26043c-0.0222,-0.21873 0.01082,-0.40975 0.1439,-0.6008c0.15551,-0.20495 0.25275,-0.42029 0.4471,-0.61838z" fill="#cce5e6"/><path d="M255.00926,184.66979c-0.12547,0.03135 -0.20011,0.00014 -0.24934,-0.06232c0.10531,-0.84034 0.10528,-0.84033 -0.07921,-1.62491c0.08986,-0.28827 0.27677,-0.55921 0.42189,-0.8197c0.14191,-0.0105 0.14326,0.09711 0.17308,0.15612c0.10286,0.21519 0.20872,0.41306 0.26973,0.63872c0.03423,0.14931 0.03258,0.2743 -0.03023,0.40624c-0.19154,0.41335 -0.36664,0.84745 -0.50595,1.30587z" fill="#cce5e6"/><path d="M253.90712,208.40288c-0.08066,0.00351 -0.15833,-0.01031 -0.25835,-0.01025c-0.13008,0.1737 -0.1467,0.38549 -0.12148,0.5869c0.01182,0.1632 -0.01219,0.30209 -0.01984,0.46184c-0.02122,0.35419 -0.02603,0.72917 -0.02784,1.08681c-0.00601,0.03472 0.00441,0.09029 -0.00162,0.12501c-0.06443,0.25698 -0.02585,0.49653 -0.02906,0.74652c-0.14929,-0.06238 -0.27919,-0.12135 -0.41647,-0.2532c0.02583,-0.49654 0.01582,-1.0174 0.06404,-1.52783c0.02583,-0.49654 -0.02598,-1.00691 0.06406,-1.5278c0.30756,0.07271 0.52851,0.18365 0.74646,0.31194z" fill="#60adb2"/><path d="M259.48731,187.23956c0.08065,-0.00352 0.14192,-0.01049 0.22254,-0.01404c0.03284,0.04165 0.0492,0.06246 0.06561,0.08326c0.02662,0.309 0.11446,0.61103 0.22169,0.91648c0.03722,0.13192 0.03863,0.23959 -0.04064,0.35071c-0.13909,0.22578 -0.24233,0.47586 -0.53074,0.63925c-0.19389,-0.26723 -0.28177,-0.56924 -0.35018,-0.86781c-0.01044,-0.05552 0.02406,-0.1389 0.05544,-0.20488c0.11223,-0.30213 0.22456,-0.60436 0.35626,-0.90305z" fill="#cce5e6"/><path d="M260.51865,182.89516c0.04765,0.18744 0.08782,0.30203 0.12505,0.43395c0.05802,0.24303 0.04141,0.45482 -0.11709,0.67716c-0.24678,0.38555 -0.43826,0.79894 -0.51334,1.23299c-0.02404,0.1389 -0.04644,0.15279 -0.27639,0.09396c0.00902,-0.05209 -0.00142,-0.10764 0.00761,-0.15975c0.09447,-0.43061 0.10829,-0.85768 0.06386,-1.29516c-0.00136,-0.10764 -0.00579,-0.19791 0.04801,-0.27783c0.20032,-0.2328 0.36185,-0.47245 0.66226,-0.70529z" fill="#cae2e3"/><path d="M257.29683,185.0953c-0.01638,-0.02081 -0.02985,-0.05905 -0.02681,-0.07639c0.10786,-0.3924 0.09627,-0.78823 0.06229,-1.17018c-0.01761,-0.36107 0.03943,-0.691 0.29061,-0.98628c0.12409,-0.13897 0.17649,-0.32651 0.33643,-0.44119c0.24757,0.41995 0.25312,0.85051 0.0512,1.20827c-0.23636,0.44114 -0.48911,0.86143 -0.55677,1.36844c-0.02841,0.04864 -0.04045,0.11807 -0.15691,0.09734z" fill="#c9e1e2"/><path d="M259.15685,182.67042c0.14608,0.3124 0.1817,0.56929 0.2143,0.84357c0.00437,0.09027 -0.01062,0.17708 -0.06145,0.23963c-0.25877,0.45505 -0.48171,0.93434 -0.66584,1.42055c-0.00601,0.03472 -0.0344,0.08334 -0.12848,0.04869c0.02103,-0.12153 0.04503,-0.26042 0.04666,-0.38544c0.04065,-0.3507 0.06184,-0.70489 0.00239,-1.05554c-0.03565,-0.25693 0.02283,-0.47917 0.19475,-0.66331c0.12409,-0.13897 0.24513,-0.26062 0.39765,-0.44821z" fill="#c9e1e2"/><path d="M260.74027,187.28384c0.13152,-0.06604 0.22857,-0.04876 0.32561,-0.03148c0.01639,0.0208 0.02985,0.05903 0.0462,0.07983c-0.00922,0.28473 0.06224,0.56593 0.19792,0.82276c0.07303,0.15619 0.06842,0.29855 -0.01684,0.44446c-0.11064,0.17715 -0.2049,0.37514 -0.35141,0.52805c-0.1865,-0.19431 -0.39086,-0.51709 -0.40566,-0.66293c-0.02383,-0.09371 0.02699,-0.15627 0.06147,-0.23962c0.03164,-0.29861 0.1633,-0.59735 0.14273,-0.94102z" fill="#cae3e4"/><path d="M253.90332,187.24693c0.24213,-0.24321 0.42609,-0.4968 0.5936,-0.77123c0.12244,-0.01397 0.20015,-0.00014 0.28819,0.06923c0.04302,0.3298 -0.05888,0.6875 0.00356,1.0208c-0.1301,0.17369 -0.30339,0.2502 -0.46328,0.36492c-0.08962,0.0556 -0.16287,0.13203 -0.30177,0.1252c-0.11627,-0.25339 -0.0488,-0.52773 -0.12024,-0.80893z" fill="#c8e0e1"/><path d="M257.15032,186.98428c0.17169,0.04848 0.1791,0.1214 0.18651,0.19431c0.03263,0.27431 0.06822,0.53118 0.08144,0.80201c0.00741,0.07292 -0.00459,0.14237 -0.05542,0.20492c-0.1689,0.16676 -0.35724,0.33008 -0.56194,0.47262c-0.07902,-0.12146 -0.08044,-0.22913 -0.12066,-0.34368c-0.12064,-0.34365 -0.08904,-0.64228 0.21132,-0.87514c0.14052,-0.11816 0.20935,-0.28487 0.25875,-0.45505z" fill="#cbe4e5"/><path d="M255.92736,186.76637c0.09705,0.01726 0.15529,0.02765 0.21353,0.03802c0.01339,0.03819 0.0492,0.06248 0.04621,0.07983c0.00575,0.19791 -0.0078,0.39238 -0.00201,0.59028c0.00136,0.10765 -0.03304,0.191 -0.1063,0.26743c-0.21972,0.22932 -0.4559,0.43781 -0.75029,0.63594c-0.10889,-0.18047 -0.10125,-0.34019 -0.09364,-0.49991c0.01203,-0.06942 0.02405,-0.13891 0.07182,-0.18406c0.3004,-0.23285 0.47692,-0.55936 0.62064,-0.92751z" fill="#c8e0e1"/><path d="M254.92821,191.85028c-0.03303,0.19099 -0.08849,0.3959 -0.02442,0.60421c0.02681,0.07638 -0.00764,0.1597 -0.02262,0.24653c-0.33298,-0.04144 -0.63458,-0.14885 -0.90474,-0.32231c0.08087,-0.23617 0.04524,-0.49305 0.04243,-0.70832c0.15089,-0.06261 0.27778,0.01369 0.40022,-0.0003c0.17772,0.01377 0.36884,0.06573 0.50913,0.18019z" fill="#85d5d9"/><path d="M261.84682,184.00884c-0.1421,0.24316 -0.28415,0.48631 -0.40987,0.75027c-0.10028,0.23271 0.00699,0.53818 -0.32925,0.74672c0.10206,-0.59032 0.05627,-1.13545 0.01045,-1.68054c0.1301,-0.17369 0.28257,-0.36131 0.50374,-0.48297c0.03284,0.04165 0.04922,0.06247 0.06562,0.08326c0.06704,0.1909 0.11467,0.3784 0.15929,0.58318z" fill="#c6dede"/><path d="M256.42755,181.79039c-0.18693,0.27099 -0.3484,0.51063 -0.53533,0.78162c-0.13727,-0.13185 -0.17151,-0.28114 -0.25056,-0.40259c-0.07607,-0.1388 -0.19391,-0.26725 -0.22513,-0.43386c0.02103,-0.12153 0.11667,-0.21189 0.19289,-0.30568c0.07623,-0.09381 0.17193,-0.18413 0.287,-0.27104c0.25375,0.15261 0.373,0.38864 0.53111,0.63159z" fill="#cae3e3"/><path d="M253.76088,184.48316c-0.04583,-0.54511 -0.10666,-1.00339 -0.28697,-1.46504c0.1167,-0.2119 0.21395,-0.42722 0.33364,-0.65647c0.22835,0.18386 0.28939,0.40951 0.39221,0.62469c0.01339,0.03819 0.00438,0.09029 -0.00163,0.125c-0.13329,0.42368 -0.26657,0.84741 -0.43727,1.37179z" fill="#cae3e4"/><path d="M258.08206,188.88636c-0.14608,-0.31239 -0.25637,-0.60051 -0.02159,-0.91662c0.1585,-0.22234 0.22296,-0.47933 0.28739,-0.73631c0.01802,-0.1042 0.11805,-0.10427 0.22855,-0.04879c-0.08683,0.27088 -0.03483,0.54864 0.01721,0.82639c0.04464,0.20481 -0.0212,0.35417 -0.14529,0.49315c-0.10167,0.12505 -0.16755,0.27441 -0.36628,0.38219z" fill="#c8e0e1"/><path d="M254.66348,190.60397c0.22534,0.20123 0.13105,0.39918 0.07562,0.6041c-0.09564,0.09032 -0.20611,0.03488 -0.30615,0.03495c-0.24933,-0.06233 -0.47028,-0.1733 -0.68524,-0.31899c0.05242,-0.18753 0.00783,-0.39235 0.13488,-0.54869c0.10007,-0.00006 0.15832,0.01031 0.23594,0.02413c0.18813,0.06931 0.37623,0.13858 0.54494,0.20447z" fill="#85d4d9"/><path d="M256.22636,188.16196c0.07143,0.28119 0.11007,0.52074 0.16811,0.76376c-0.20773,0.15985 -0.43185,0.29892 -0.66945,0.39975c-0.1299,-0.05893 -0.15068,-0.17003 -0.19691,-0.24984c-0.04622,-0.07983 -0.09245,-0.15964 -0.052,-0.27773c0.19135,-0.18066 0.44688,-0.3857 0.75028,-0.63594z" fill="#c7dfe0"/><path d="M259.12688,189.55578c-0.16593,0.14942 -0.31241,0.30227 -0.53355,0.42398c-0.20594,-0.19777 -0.26696,-0.4234 -0.36381,-0.67333c0.17191,-0.18414 0.3438,-0.36831 0.51874,-0.56982c0.15208,0.27767 0.24894,0.52766 0.3786,0.81918z" fill="#c8e0e1"/><path d="M257.45542,181.40076c0.13128,0.16661 0.26252,0.33315 0.32658,0.54144c-0.1585,0.22234 -0.33642,0.4412 -0.51734,0.67741c-0.03879,-0.00692 -0.07763,-0.01384 -0.07462,-0.03121c-0.08946,-0.17702 -0.17587,-0.37138 -0.24593,-0.54495c-0.02681,-0.07639 -0.03424,-0.1493 0.01358,-0.19445c0.15251,-0.18759 0.24678,-0.38557 0.49774,-0.44829z" fill="#c4dcdd"/><path d="M260.33239,182.46823c-0.19432,0.19804 -0.36925,0.39954 -0.56359,0.59761c-0.14626,-0.07977 -0.12224,-0.21865 -0.16247,-0.33322c-0.04021,-0.11454 -0.05804,-0.24302 -0.09526,-0.37492c0.13308,-0.19105 0.35125,-0.29531 0.53658,-0.44133c0.19249,0.15957 0.24012,0.34706 0.28472,0.55187z" fill="#c8e0e1"/><path d="M259.68531,189.5658c0.17794,-0.21886 0.33344,-0.42386 0.51437,-0.66007c0.17012,0.17347 0.23412,0.38179 0.38483,0.55182c-0.11971,0.22923 -0.34084,0.35093 -0.53216,0.53159c-0.1761,-0.13876 -0.31638,-0.25324 -0.36699,-0.42334z" fill="#c6ddde"/><path d="M261.99183,187.22048c0.14309,0.32977 0.18313,0.67695 0.39043,0.98235c-0.09425,0.19799 -0.16613,0.38208 -0.33503,0.54884c-0.21191,-0.16304 -0.32081,-0.34353 -0.23695,-0.59704c0.11227,-0.30213 0.12749,-0.6216 0.18153,-0.93416z" fill="#b9cfd0"/><path d="M252.71586,184.04638c-0.10744,-0.07285 -0.03425,-0.1493 -0.04164,-0.22217c-0.0118,-0.16319 -0.00421,-0.32288 -0.10268,-0.44786c-0.12226,-0.21867 -0.06987,-0.40618 0.00502,-0.60763c0.03445,-0.08336 0.08824,-0.16326 0.1481,-0.27788c0.21937,0.23595 0.38343,0.44419 0.24876,0.76023c-0.09725,0.21536 -0.1199,0.46189 -0.17833,0.68414c-0.00904,0.05208 -0.01802,0.10419 -0.07925,0.11117z" fill="#c0d8d8"/><path d="M252.93839,187.50453c-0.07005,-0.17358 -0.08483,-0.31937 -0.06084,-0.45826c0.01203,-0.06942 0.02698,-0.15629 0.07483,-0.20144c0.21375,-0.19459 0.37224,-0.41691 0.53076,-0.63925c0.13586,0.02424 0.10444,0.0902 0.09547,0.14232c-0.03002,0.17363 -0.06304,0.36464 -0.05424,0.54518c-0.00021,0.23263 -0.08547,0.37852 -0.30061,0.4655c-0.10607,0.0348 -0.17331,0.07651 -0.28535,0.14602z" fill="#c1d9d9"/><path d="M257.72777,189.1991c-0.14947,0.17021 -0.32884,0.28146 -0.51414,0.42742c-0.19552,-0.14221 -0.22068,-0.34357 -0.31018,-0.52062c0.17491,-0.20152 0.41544,-0.31974 0.6426,-0.47613c0.10585,0.19785 0.13406,0.38188 0.18172,0.56934z" fill="#c3dbdc"/><path d="M258.49958,182.76811c-0.07447,-0.26384 -0.13247,-0.50688 -0.20991,-0.75334c0.10465,-0.14247 0.20634,-0.26749 0.39905,-0.34056c0.1507,0.17005 0.21771,0.36095 0.30421,0.55535c-0.1167,0.21189 -0.26615,0.3821 -0.49329,0.53852z" fill="#c3dadb"/><path d="M255.86203,189.68997c0.22117,-0.12168 0.41986,-0.22944 0.61857,-0.33722c0.17311,0.15612 0.24013,0.34705 0.30717,0.53796c-0.1629,0.13206 -0.33919,0.22594 -0.55131,0.29549c-0.05223,-0.04511 -0.12086,-0.11105 -0.15368,-0.15265c-0.07903,-0.12146 -0.12226,-0.21864 -0.22072,-0.34361z" fill="#c4dbdc"/><path d="M252.59478,185.90409c-0.05706,0.32993 -0.1021,0.59038 -0.15008,0.86816c-0.11809,0.10426 -0.24959,0.1703 -0.43325,0.19124c-0.10142,-0.10757 -0.04162,-0.22219 -0.0624,-0.33329c-0.02081,-0.11107 -0.0222,-0.21873 -0.00722,-0.30556c0.22417,-0.13908 0.40347,-0.25031 0.65302,-0.42059z" fill="#c2d9da"/><path d="M256.20588,180.87387c0.10167,-0.12505 0.2167,-0.21198 0.34521,-0.26066c0.15829,0.01031 0.21794,0.12837 0.30597,0.19771c0.08803,0.06934 0.2015,0.10748 0.23872,0.23939c-0.06884,0.16672 -0.23175,0.29876 -0.40064,0.46559c-0.08208,-0.10413 -0.16413,-0.20823 -0.24915,-0.29498c-0.07902,-0.12146 -0.1581,-0.24293 -0.24015,-0.34706z" fill="#c5ddde"/><path d="M258.23171,190.21959c-0.12709,0.15636 -0.29139,0.18078 -0.42586,0.26419c-0.19851,-0.12488 -0.30739,-0.30535 -0.43269,-0.50663c0.15989,-0.1147 0.31982,-0.22938 0.46033,-0.34754c0.2119,0.16305 0.27297,0.38872 0.39822,0.58999z" fill="#c3dbdc"/><path d="M254.42573,182.4897c-0.06867,-0.06592 -0.10148,-0.10753 -0.13431,-0.14916c-0.06262,-0.10063 -0.12227,-0.21867 -0.20131,-0.34014c0.17794,-0.21886 0.29759,-0.44812 0.54415,-0.60107c0.1299,0.05893 0.17313,0.15612 0.22974,0.29151c-0.12268,0.24661 -0.27079,0.52447 -0.43826,0.79891z" fill="#c7dfe0"/><path d="M254.93248,188.70106c-0.21813,0.10431 -0.36462,0.25716 -0.59316,0.30594c-0.15669,-0.13533 -0.14309,-0.32974 -0.26096,-0.45813c0.21376,-0.19459 0.43186,-0.29893 0.65602,-0.43796c0.16712,0.19087 0.13406,0.38184 0.19814,0.59014z" fill="#c7dee0"/><path d="M254.42218,191.65274c-0.12245,0.01398 -0.24933,-0.06235 -0.40023,0.0003c-0.00021,0.23263 0.01597,0.48607 -0.04244,0.70833c-0.07466,-0.0312 -0.1687,-0.06587 -0.24034,-0.11439c-0.10744,-0.07285 -0.17007,-0.17349 -0.14909,-0.29506c0.0166,-0.21179 0.0302,-0.40624 0.04685,-0.61808c0.25237,0.04496 0.36583,0.08308 0.78528,0.31891z" fill="#61acb1"/><path d="M261.56107,182.88402c-0.16593,0.14942 -0.30638,0.26753 -0.49173,0.41352c-0.07744,-0.24646 -0.15789,-0.47555 -0.21593,-0.71857c0.12104,-0.12162 0.23916,-0.22585 0.39305,-0.30583c0.16711,0.19086 0.23412,0.38176 0.31457,0.61087z" fill="#c2dada"/><path d="M252.96936,187.90382c0.16593,-0.14942 0.33921,-0.22593 0.53798,-0.33369c0.03564,0.25693 0.07724,0.47912 0.11886,0.70133c-0.10465,0.14246 -0.24957,0.17031 -0.41986,0.22944c-0.15369,-0.15265 -0.17892,-0.35407 -0.23695,-0.59704z" fill="#c1d9d9"/><path d="M259.36054,181.955c-0.14468,-0.20478 -0.23712,-0.36441 -0.34899,-0.52756c0.08825,-0.16325 0.26457,-0.25713 0.44091,-0.35099c0.15967,0.11795 0.29695,0.24979 0.38342,0.44418c-0.09426,0.19798 -0.30343,0.2502 -0.47532,0.43437z" fill="#c6dedf"/><path d="M259.70717,190.2498c-0.16289,0.13205 -0.34223,0.24329 -0.50211,0.35799c-0.17169,-0.04848 -0.27616,-0.13868 -0.37164,-0.281c0.1167,-0.21189 0.35125,-0.29532 0.52015,-0.46215c0.16272,0.10057 0.23873,0.2394 0.35362,0.38516z" fill="#c0d7d7"/><path d="M253.5869,182.01804c-0.11065,0.17715 -0.16613,0.38205 -0.37083,0.52458c-0.09548,-0.14232 -0.19392,-0.26727 -0.29238,-0.39217c0.03604,-0.20833 0.16312,-0.36467 0.34242,-0.47589c0.14627,0.07977 0.22831,0.18385 0.32079,0.34348z" fill="#c3dadb"/><path d="M254.13794,190.40295c-0.07766,-0.01384 -0.15832,-0.01029 -0.23599,-0.02411c-0.12709,0.15637 -0.08249,0.36114 -0.13488,0.54869c-0.13887,-0.00686 -0.19853,-0.12488 -0.3314,-0.16643c-0.03862,-0.23956 0.05561,-0.43754 -0.04123,-0.68746c0.19711,0.01725 0.30455,0.09005 0.43149,0.16637c0.09107,0.052 0.23296,0.04153 0.31198,0.16298z" fill="#5aa0a4"/><path d="M262.95831,188.80656c-0.11065,0.17714 -0.16614,0.38209 -0.34843,0.51067c-0.1299,-0.05893 -0.19554,-0.14226 -0.29401,-0.26715c0.07186,-0.18409 0.18252,-0.36124 0.326,-0.49677c0.1299,0.05894 0.19853,0.12487 0.31637,0.25325z" fill="#bdd3d4"/><path d="M256.56927,190.46028c0.15392,-0.07997 0.28839,-0.16338 0.42285,-0.2468c0.15968,0.11796 0.25516,0.26025 0.34762,0.41988c-0.08226,0.1285 -0.22417,0.13908 -0.36003,0.11486c-0.17471,-0.03109 -0.34939,-0.06222 -0.41045,-0.28791z" fill="#bdd4d5"/><path d="M262.75619,184.18874c-0.13308,0.19104 -0.26319,0.36477 -0.39624,0.55581c-0.13107,-0.39918 -0.17106,-0.74638 0.2682,-0.97237c0.10142,0.10757 0.09683,0.24994 0.12805,0.41655z" fill="#bbd2d3"/><path d="M254.83303,189.7393c-0.14326,-0.09713 -0.20292,-0.21516 -0.26252,-0.33317c0.02103,-0.12153 0.1241,-0.13898 0.21376,-0.19457c0.06723,-0.0417 0.13747,-0.10077 0.25696,-0.09737c0.14326,0.09713 0.11328,0.27073 0.25356,0.38522c-0.14349,0.13553 -0.29436,0.19814 -0.46165,0.23993z" fill="#c3dadb"/><path d="M257.75527,185.10538c0.09291,-0.3056 0.18573,-0.61122 0.35626,-0.90301c0.11344,0.03812 0.1179,0.12841 0.10284,0.2152c-0.01963,0.22917 -0.05862,0.45485 -0.09467,0.66322c-0.02701,0.15626 -0.14951,0.17026 -0.36441,0.02456z" fill="#b1c6c7"/><path d="M260.80764,190.48166c0.06281,-0.13198 0.18831,-0.16333 0.28097,-0.2363c0.16592,-0.14944 0.34363,-0.13566 0.56159,-0.00732c-0.1585,0.22233 -0.4185,0.33708 -0.6366,0.4414c-0.13289,-0.04157 -0.18513,-0.08667 -0.20594,-0.19777z" fill="#bbd2d3"/><path d="M260.3865,185.39521c-0.02061,-0.34374 0.1663,-0.61467 0.33682,-0.90648c0.07446,0.26384 0.02938,0.52428 0.00679,0.77081c-0.0076,0.15973 -0.07185,0.18411 -0.34361,0.13565z" fill="#bad1d2"/><path d="M262.97571,187.66426c0.11186,0.16312 0.22972,0.29152 0.34159,0.4546c-0.03443,0.08336 -0.11367,0.19453 -0.17352,0.30914c-0.33442,-0.14907 -0.33141,-0.16643 -0.27297,-0.38872c0.02104,-0.12153 0.06146,-0.23963 0.10488,-0.37506z" fill="#b5cbcc"/><path d="M258.71825,180.46243c0.18509,0.08668 0.28661,0.19423 0.38803,0.3018c-0.08525,0.1459 -0.25258,0.18765 -0.40645,0.26764c-0.1209,-0.111 -0.22229,-0.21858 -0.34318,-0.32961c0.04643,-0.1528 0.22712,-0.15643 0.36163,-0.23984z" fill="#c0d7d8"/><path d="M261.55432,188.82494c0.11043,0.05549 0.17313,0.15611 0.23277,0.27414c-0.09728,0.21534 -0.26617,0.38213 -0.4679,0.50725c-0.13887,-0.00686 -0.1687,-0.06586 -0.19249,-0.15957c0.13604,-0.20843 0.27218,-0.41687 0.42768,-0.62181z" fill="#bdd4d4"/><path d="M261.8451,182.63039c-0.08946,-0.17702 -0.15648,-0.36792 -0.24594,-0.54496c0.09268,-0.07297 0.19574,-0.09042 0.3122,-0.06969c0.11043,0.05548 0.13429,0.14919 0.1775,0.24636c0.02681,0.07639 0.05363,0.15273 0.08045,0.22912c-0.07625,0.09383 -0.16591,0.14944 -0.32424,0.13912z" fill="#b6cccc"/><path d="M258.08101,181.60175c-0.11185,-0.16312 -0.20731,-0.3054 -0.33861,-0.472c0.03741,-0.10071 0.11366,-0.19455 0.2974,-0.21551c0.12091,0.111 0.23875,0.23939 0.37601,0.37124c-0.10167,0.12505 -0.1809,0.23625 -0.33483,0.31621z" fill="#c1d9d9"/><path d="M262.52841,183.30694c-0.10167,0.12505 -0.19732,0.21543 -0.34822,0.27801c-0.11186,-0.16312 -0.12064,-0.34369 -0.15487,-0.49295c0.06281,-0.13198 0.18531,-0.14596 0.29136,-0.18076c0.05523,0.02774 0.09405,0.03467 0.09107,0.052c0.04019,0.11455 0.08043,0.2291 0.12064,0.34369z" fill="#b7cdce"/><path d="M263.29916,184.98351c-0.12225,-0.21868 -0.09526,-0.37493 -0.10707,-0.53812c-0.02823,-0.18402 0.10027,-0.23271 0.25114,-0.29532c0.11186,0.16312 0.12366,0.3263 0.17729,0.47905c-0.06885,0.16671 -0.27198,0.18422 -0.3214,0.35439z" fill="#b6cccc"/><path d="M262.375,189.63337c-0.12106,0.12162 -0.21671,0.21195 -0.31538,0.31966c-0.17772,-0.01377 -0.29418,-0.03453 -0.41505,-0.14554c0.1435,-0.13552 0.26757,-0.2745 0.38863,-0.39611c0.1837,-0.02099 0.24331,0.09706 0.35681,0.13515c-0.00601,0.03472 0.00742,0.07293 -0.01498,0.08684z" fill="#c2dada"/><path d="M257.65478,180.5951c-0.07926,0.11114 -0.14648,0.15287 -0.24956,0.17033c-0.11949,-0.0034 -0.18509,-0.08667 -0.27318,-0.15604c-0.06866,-0.06592 -0.20152,-0.10749 -0.19992,-0.2325c0.11508,-0.08686 0.24655,-0.15293 0.42729,-0.15654c0.11788,0.12839 0.19692,0.24987 0.29539,0.37481z" fill="#bbd2d3"/><path d="M253.32095,188.87924c0.15089,-0.0626 0.25997,-0.11477 0.38844,-0.16347c0.1149,0.14576 0.16848,0.2985 0.24155,0.45472c-0.09564,0.09033 -0.20474,0.14253 -0.34061,0.11826c-0.03585,-0.02428 -0.07162,-0.04857 -0.08506,-0.08676c-0.06562,-0.08326 -0.12827,-0.18397 -0.20432,-0.32278z" fill="#bbd2d3"/><path d="M263.50276,187.74024c-0.19993,-0.23251 -0.19994,-0.23251 -0.24592,-0.54495c0.12109,-0.12162 0.27938,-0.11129 0.46308,-0.13223c0.01622,0.25348 -0.11987,0.46188 -0.21715,0.67722z" fill="#adc2c3"/><path d="M255.12103,190.0412c0.09564,-0.09033 0.22418,-0.13904 0.36303,-0.13218c0.1149,0.14576 0.21336,0.27063 0.30875,0.41295c-0.36003,0.11485 -0.37943,0.11141 -0.67182,-0.28074z" fill="#b5cbcc"/><path d="M261.05121,181.89832c-0.11808,0.10428 -0.21075,0.17721 -0.36165,0.23981c-0.14026,-0.11446 -0.17148,-0.28114 -0.26395,-0.4408c0.04784,-0.04517 0.09265,-0.07295 0.13747,-0.10079c0.04483,-0.02782 0.10606,-0.03481 0.17031,-0.05916c0.1657,0.08322 0.24472,0.20467 0.3178,0.3609z" fill="#bbd1d2"/><path d="M252.29733,187.85566c-0.17311,-0.15613 -0.15648,-0.36793 -0.22955,-0.52412c0.09868,-0.10768 0.23757,-0.10088 0.36607,-0.14957c0.10287,0.21518 0.11165,0.39575 0.02038,0.57636c-0.00903,0.05208 -0.09266,0.07298 -0.15689,0.09733z" fill="#b6cccd"/><path d="M254.36871,181.08348c-0.17491,0.20152 -0.36626,0.38218 -0.53815,0.56632c-0.13289,-0.04158 -0.2015,-0.10747 -0.25815,-0.24285c0.22712,-0.15643 0.45427,-0.31281 0.73064,-0.40676c0.03284,0.04167 0.04922,0.06247 0.06563,0.08326z" fill="#acc1c2"/><path d="M259.40007,184.50356c0.01921,0.2361 0.01901,0.46874 -0.05886,0.68751c-0.03445,0.08336 -0.10466,0.14243 -0.20171,0.12515c-0.03878,-0.00692 -0.11044,-0.05549 -0.10745,-0.07286c0.02562,-0.2639 0.20652,-0.50013 0.36802,-0.73982z" fill="#a7bbbb"/><path d="M260.51565,181.17643c-0.05685,0.09727 -0.1629,0.13206 -0.28837,0.16339c-0.11788,-0.12839 -0.23574,-0.25678 -0.35362,-0.38517c0.10167,-0.12505 0.22115,-0.12166 0.35701,-0.09745c0.10744,0.07285 0.20594,0.19776 0.28497,0.31926z" fill="#b7cdcd"/><path d="M258.02356,190.8447c0.12709,-0.15637 0.27799,-0.21892 0.44828,-0.2781c0.14627,0.07977 0.25075,0.16997 0.30137,0.34007c-0.25095,0.06266 -0.48091,0.00379 -0.74966,-0.06196z" fill="#b7cece"/><path d="M251.48049,186.09931c-0.09986,-0.23257 0.01682,-0.44444 -0.05024,-0.63535c0.09564,-0.09032 0.1703,-0.05913 0.20014,-0.00012c0.07306,0.15619 0.12368,0.32632 0.09363,0.49992c-0.02842,0.04864 -0.03144,0.06598 -0.24356,0.13559z" fill="#b4cacb"/><path d="M255.12413,181.34339c-0.10744,-0.07283 -0.1567,-0.1353 -0.18053,-0.22901c0.16592,-0.14944 0.33483,-0.3162 0.63061,-0.40669c-0.03164,0.29861 -0.23636,0.44111 -0.45009,0.63572z" fill="#b2c8c9"/><path d="M254.1298,189.52452c0.1209,0.111 0.20593,0.19777 0.22673,0.30886c-0.03142,0.06599 -0.09267,0.07301 -0.15392,0.07998c-0.24493,0.02794 -0.32099,-0.11091 -0.38801,-0.3018c0.10306,-0.01746 0.20914,-0.05225 0.3152,-0.08704z" fill="#b5cbcb"/><path d="M261.71714,185.45334c0.01962,-0.22918 0.05262,-0.42014 0.14689,-0.61811c0.10006,-0.00005 0.12988,0.05893 0.12088,0.11101c-0.00162,0.12502 0.01621,0.25349 0.01459,0.37847c-0.02404,0.1389 -0.10766,0.15977 -0.28236,0.12862z" fill="#91a3a3"/><path d="M254.40066,183.79178c0.09986,0.23257 0.04142,0.45483 0.00537,0.66317c-0.00601,0.03472 -0.05084,0.06255 -0.09267,0.07297c-0.03879,-0.00692 -0.09106,-0.052 -0.08806,-0.06939c-0.01622,-0.25348 0.06164,-0.47226 0.17533,-0.66678z" fill="#99abac"/><path d="M253.36687,184.21611c-0.14789,0.04525 -0.24494,0.02793 -0.26876,-0.0658c-0.0178,-0.12847 0.05105,-0.29515 0.16771,-0.50704c0.10589,0.19785 0.07285,0.38881 0.10105,0.57281z" fill="#93a5a6"/><path d="M259.94253,190.97183c0.18833,-0.1633 0.36023,-0.34747 0.68564,-0.14632c-0.19135,0.18065 -0.44368,0.13571 -0.68564,0.14632z" fill="#9aadad"/><path d="M260.2171,187.76334c-0.03423,-0.1493 -0.06543,-0.31591 -0.10264,-0.44786c0.07326,-0.07644 0.13449,-0.08344 0.24796,-0.04529c0.07007,0.17359 -0.03761,0.33337 -0.04521,0.49309c-0.03879,-0.00692 -0.05824,-0.01039 -0.10008,0.00007z" fill="#c5dddd"/><path d="M256.85399,184.30046c0.13568,0.25684 0.09662,0.48259 -0.02001,0.69446c-0.00301,0.01737 -0.04484,0.02783 -0.08367,0.0209c-0.06125,0.00698 -0.09106,-0.052 -0.08504,-0.08674c0.01357,-0.19444 0.10788,-0.39245 0.18874,-0.62862z" fill="#aec2c3"/><path d="M252.5913,188.12281c0.11186,0.16312 0.14008,0.3471 0.17128,0.51378c-0.07324,0.07645 -0.14791,0.04524 -0.17473,-0.03111c-0.05664,-0.1354 -0.11624,-0.25339 -0.15045,-0.40268c-0.03284,-0.04167 0.03441,-0.08334 0.1539,-0.07996z" fill="#9caeaf"/><path d="M259.54992,180.62851c-0.16571,-0.08323 -0.27014,-0.1734 -0.38802,-0.30181c0.26437,-0.0245 0.46888,0.06564 0.70183,0.10715c-0.02843,0.04866 -0.03445,0.08336 -0.05685,0.09723c-0.08667,0.03824 -0.17028,0.05914 -0.25693,0.09741z" fill="#a9bebf"/><path d="M255.22852,186.64182c0.14191,-0.0105 0.2165,0.02067 0.28519,0.08664c-0.01063,0.17708 -0.09588,0.32295 -0.32003,0.46203c-0.0028,-0.21529 0.02424,-0.37154 0.03482,-0.54863z" fill="#b9cfd0"/><path d="M261.39883,187.29377c0.07325,-0.07643 0.15392,-0.07994 0.23455,-0.08349c0.09105,0.05203 0.07605,0.1388 -0.05426,0.54517c-0.21494,-0.14568 -0.12368,-0.32631 -0.1803,-0.46168z" fill="#869797"/><path d="M255.68324,184.12768c-0.10628,0.26743 0.0264,0.54166 -0.28138,0.70157c-0.03263,-0.2743 0.02278,-0.47917 0.28138,-0.70157z" fill="#93a4a5"/><path d="M262.87369,184.78238c-0.04503,0.26042 -0.07507,0.43407 -0.10509,0.6077c-0.00601,0.03472 -0.05084,0.06255 -0.10906,0.05214c-0.01944,-0.00346 -0.05524,-0.02775 -0.07165,-0.04856c-0.00283,-0.21526 0.03022,-0.40632 0.28578,-0.6113z" fill="#94a5a6"/><path d="M262.37574,187.19938c0.1285,-0.04867 0.18969,-0.05569 0.27476,0.03105c-0.0046,0.14235 -0.0122,0.3021 -0.10048,0.46535c-0.17309,-0.15616 -0.14306,-0.32974 -0.1743,-0.49637z" fill="#abbfc0"/><path d="M263.31656,183.84111c-0.10306,0.01745 -0.14488,0.02788 -0.18374,0.02096c-0.17151,-0.28113 -0.17148,-0.2811 -0.07121,-0.51379c0.1761,0.13876 0.14611,0.31237 0.25492,0.49284z" fill="#acc0c1"/><path d="M260.33903,190.18336c0.14052,-0.11816 0.26456,-0.25713 0.42447,-0.37182c0.06723,-0.0417 0.14489,-0.02785 0.18509,0.08667c-0.16593,0.14942 -0.32881,0.28147 -0.60957,0.28513z" fill="#9fb2b2"/><path d="M261.38143,181.72444c-0.08507,-0.08678 -0.13427,-0.14924 -0.15809,-0.24293c0.05083,-0.06256 0.11507,-0.0869 0.21514,-0.08697c0.11345,0.03813 0.17608,0.13877 0.23873,0.23942c-0.05685,0.09727 -0.17631,0.09386 -0.29575,0.09045z" fill="#aec2c3"/><path d="M257.84435,187.48376c-0.14026,-0.11445 -0.11926,-0.23604 -0.11767,-0.36103c0.00904,-0.05208 0.07323,-0.07642 0.13148,-0.06605c0.03879,0.00692 0.09108,0.05202 0.08505,0.08674c0.04021,0.11454 -0.01662,0.21184 -0.09888,0.34033z" fill="#91a2a3"/><path d="M258.26595,180.18495c-0.26458,0.25713 -0.28696,0.27107 -0.4973,-0.01699c0.1613,-0.00704 0.3122,-0.06967 0.4973,0.01699z" fill="#869696"/><path d="M252.28281,184.00501c-0.15068,-0.17005 -0.07445,-0.26381 -0.03401,-0.38193c0.15968,0.11796 0.15968,0.11796 0.03401,0.38193z" fill="#555f5f"/><path d="M259.10947,187.22594c-0.01501,0.08683 -0.03602,0.20833 -0.11527,0.31953c-0.14768,-0.18741 -0.13567,-0.25684 -0.03704,-0.36454c0.02542,-0.03128 0.08368,-0.0209 0.15229,0.04505z" fill="#93a5a6"/><path d="M263.66492,185.06657c0.1581,0.24294 0.13271,0.27422 -0.18694,0.27094c-0.0178,-0.12848 0.07481,-0.20145 0.18694,-0.27094z" fill="#8b9b9c"/><path d="M251.98027,183.32471c0.02821,0.18401 -0.01523,0.31942 -0.05867,0.4549c-0.12547,0.03135 -0.17771,-0.01378 -0.16568,-0.08324c0.02402,-0.1389 0.06745,-0.27435 0.22432,-0.37167z" fill="#9aacad"/><path d="M262.78287,182.76163c0.10142,0.10757 0.20892,0.18042 0.1655,0.31587c-0.00302,0.01737 -0.02541,0.03129 -0.04482,0.02783c-0.16871,-0.06587 -0.18953,-0.17698 -0.12066,-0.34368z" fill="#5f6a6b"/><path d="M256.56774,187.11315c-0.04622,-0.07983 -0.03423,-0.14931 -0.00278,-0.21529c0.02542,-0.03128 0.07024,-0.05907 0.10607,-0.03478c0.03585,0.02428 0.06866,0.06592 0.06261,0.10065c-0.01203,0.06942 -0.04344,0.13542 -0.16591,0.14941z" fill="#636e6f"/><path d="M260.79072,180.9749c0.14489,-0.02786 0.23894,0.00676 0.29259,0.1595c-0.16729,0.04177 -0.23595,-0.02411 -0.29259,-0.1595z" fill="#4a5354"/></g><g data-paper-data="{&quot;index&quot;:null}" fill="#000000" stroke="#000000" stroke-width="1.2"><path d="M243.85831,204.52523c-0.16712,-1.90564 2.04889,-4.42086 2.73843,-6.6267c0.7424,-2.3749 -0.02985,-4.26413 1.25818,-5.29389c0.89967,-0.71927 2.52557,-0.37216 3.34864,-0.08473c2.00145,0.69891 2.60175,4.53552 1.3408,8.56928c-1.26092,4.03376 -3.9056,6.7372 -5.90702,6.03827c-0.90695,-0.31671 -2.64051,-1.02308 -2.77901,-2.60221z"/><path d="M246.7136,207.82538c-0.20856,-2.6579 2.55066,-8.00517 2.55066,-8.00517c0,0 0.02568,-4.00692 0.0532,-4.0896c1.75274,-5.26925 5.23701,-4.1176 9.17804,-2.74135c1.87566,0.65499 4.52978,2.39833 5.03602,4.41633c0.57415,2.28865 -0.81919,4.72055 -1.74498,7.68215c-1.74209,5.57296 -5.59681,9.48085 -9.59967,8.08301c-1.76204,-0.61532 -5.1947,-1.79546 -5.47325,-5.34538z"/></g></g><path d="M222.55826,205.05004c0,0 3.41973,-5.99059 2.90084,-7.85766c-0.12691,-0.45667 -2.9004,7.07362 -3.40844,6.63017c-2.42273,-2.11464 -8.21777,-3.92172 -8.21777,-3.92172c0,0 5.29398,-6.47909 9.04852,-9.26231c1.03667,-0.76848 3.71116,-0.09485 3.99956,-0.33001c0.37246,-0.30372 9.6746,0.46294 10.03571,0.65561c4.31961,2.30481 8.09232,7.49675 8.09232,7.49675c0,0 -2.351,2.72503 -2.28504,5.95092c0.00047,0.02292 -2.45816,-5.18234 -2.45081,-4.82298c0.04401,2.15287 0.84277,5.81137 0.84277,5.81137c0,0 -5.54811,1.10338 -8.3282,1.09909c-3.06477,-0.00474 -10.22946,-1.4492 -10.22946,-1.4492z" fill="#ffffff" fill-rule="nonzero" stroke="#737373" stroke-width="2.5" stroke-linecap="butt" stroke-linejoin="miter"/><path d="M219.00541,193.26725c0,0 -6.05879,0.43204 -7.46411,0.3857c-0.6138,-0.02023 -1.07226,-0.45294 -1.05105,-0.93438c0.02259,-0.51271 0.5462,-1.07542 0.5462,-1.07542" fill="none" fill-rule="nonzero" stroke="#737373" stroke-width="1" stroke-linecap="round" stroke-linejoin="miter"/><path d="M213.14001,191.87828l0.13244,-0.08721c0.08989,-0.03501 0.17979,-0.07003 0.26968,-0.10504c1.193,-0.16584 6.74761,-1.77925 5.00035,0.59551c-1.02004,0.19301 -5.84946,0.79185 -5.71403,-0.23831c0,0 0.06678,-0.2383 0.31155,-0.16496z" fill="#000000" fill-rule="nonzero" stroke="none" stroke-width="0.5" stroke-linecap="butt" stroke-linejoin="miter"/><path d="M220.98083,190.48771c0,0 -2.10544,1.99026 -2.5641,2.35716c-0.24858,0.19884 -3.4578,0.24475 -3.90082,0.26497c-1.9563,0.08927 -3.50148,0.25445 -3.51547,-0.16012c-0.00475,-0.14076 -0.04219,-0.78715 0.43543,-1.03746c1.24759,-0.65384 4.20764,-1.25 6.04453,-1.38826c2.51473,-0.18928 3.50042,-0.03628 3.50042,-0.03628z" fill="url(#color-1)" fill-rule="nonzero" stroke="#737373" stroke-width="0" stroke-linecap="butt" stroke-linejoin="miter"/><g stroke-linejoin="miter"><g stroke-linecap="butt"><path d="M255.81863,169.45194c-1.4752,13.55543 -14.43418,22.63898 -28.94471,20.28872c-14.51052,-2.35027 -25.07773,-15.24435 -23.60254,-28.79977c1.4752,-13.55543 14.43417,-22.639 28.94471,-20.28873c14.51052,2.35027 25.07773,15.24435 23.60255,28.79979z" fill="none" fill-rule="nonzero" stroke="#000000" stroke-width="4.5"/><g><g fill-rule="nonzero"><path d="M215.70847,146.82628l-0.01093,-0.01007" data-paper-data="{&quot;index&quot;:null}" fill="#ffab19" stroke="#000000" stroke-width="5"/><g data-paper-data="{&quot;index&quot;:null}" fill="none" stroke="none" stroke-width="1" font-family="sans-serif" font-weight="normal" font-size="12" text-anchor="start"/></g><path d="M215.70847,146.82628l-0.01093,-0.01007" data-paper-data="{&quot;index&quot;:null}" fill="#ffab19" fill-rule="nonzero" stroke="#000000" stroke-width="5"/><path d="M229.11031,166.38018" fill="#001026" fill-rule="evenodd" stroke="#000000" stroke-width="5"/><g data-paper-data="{&quot;index&quot;:null}" fill="none" fill-rule="nonzero" stroke="none" stroke-width="1" font-family="sans-serif" font-weight="normal" font-size="12" text-anchor="start"/><g data-paper-data="{&quot;index&quot;:null}" fill="none" fill-rule="nonzero" stroke="none" stroke-width="1" font-family="sans-serif" font-weight="normal" font-size="12" text-anchor="start"/></g></g><path d="M208.26265,159.12621l25.16797,7.13117l-0.28575,4.60995" fill="none" fill-rule="nonzero" stroke="#000000" stroke-width="4.5" stroke-linecap="round"/><path d="M240.77982,172.05237l0.31252,-5.04215l20.87616,-4.37333" fill="none" fill-rule="nonzero" stroke="#000000" stroke-width="4.5" stroke-linecap="round"/><path d="M200.41032,148.42988l-3.8092,-5.34006l-1.95251,-6.24993l10.04045,4.92614l1.90752,-0.12672l-0.68374,-3.53767l-2.5602,-2.71387l7.28802,3.62331l-3.0547,-4.86585l-1.03603,-7.31842l5.47366,5.84127l3.90822,1.83781l-1.93402,-5.31808l5.83667,4.88408l-0.4435,-5.30148l1.01747,-4.00024l5.52174,5.48849l2.64506,1.39736l1.61071,2.51476l1.64497,-7.45021l2.23791,6.93011l2.5832,-7.86211l3.17892,7.65414l2.92503,-4.12695l0.25127,7.79531l4.30686,-3.17002l1.28033,-4.54205l2.22941,7.45504l-1.2916,3.93105l6.63547,-3.14994l3.39401,-0.40024l-5.66618,3.4351l1.88775,-0.21277l-2.33723,4.43747l6.44046,-2.8748l-5.42604,5.60396l10.21025,-1.63954l-6.8051,5.78295l5.14329,-1.21556l-5.70294,4.39886l2.69309,1.04459l-10.46394,-1.11335l-40.10142,3.31834l-10.8707,3.63285l4.13827,-3.99468l-7.90701,-0.69827l5.35528,-2.54053l-9.82289,-3.97929l7.29666,-0.83425l2.79491,-1.32176l2.35173,0.68279" fill="#ffffff" fill-rule="nonzero" stroke="#e2e2e2" stroke-width="3" stroke-linecap="round"/></g><path d="M237.60553,182.72612c0.06503,1.92694 -5.24323,3.38766 -11.85633,3.26259c-6.6131,-0.12506 -15.44344,-8.66401 -15.50846,-10.59095c-0.06503,-1.92694 27.29976,5.4014 27.36479,7.32835z" fill="#ff0000" fill-rule="nonzero" stroke="#000000" stroke-width="3" stroke-linecap="butt" stroke-linejoin="miter"/></g></g></svg>