<svg version="1.1" xmlns="http://www.w3.org/2000/svg" xmlns:xlink="http://www.w3.org/1999/xlink" width="90.23801" height="111.73421" viewBox="0,0,90.23801,111.73421"><defs><linearGradient x1="208.03297" y1="171.40923" x2="185.68184" y2="173.36305" gradientUnits="userSpaceOnUse" id="color-1"><stop offset="0" stop-color="#000000"/><stop offset="1" stop-color="#000000" stop-opacity="0"/></linearGradient></defs><g transform="translate(-184.63101,-138.13115)"><g data-paper-data="{&quot;isPaintingLayer&quot;:true}" stroke-miterlimit="10" stroke-dasharray="" stroke-dashoffset="0" style="mix-blend-mode: normal"><path d="M234.58807,205.4013l0.98643,-15.86593" fill="none" fill-rule="nonzero" stroke="#000000" stroke-width="6" stroke-linecap="round" stroke-linejoin="miter"/><path d="M217.63914,208.26109c0.76273,-0.97734 5.34399,-8.44842 9.8837,-13.33686c2.89208,-3.11424 7.99911,-3.78616 7.99911,-3.78616c0,0 6.35362,5.27408 9.24559,6.61526c1.81613,0.84225 5.03497,-0.14324 5.03497,-0.14324" fill="none" fill-rule="nonzero" stroke="#000000" stroke-width="6" stroke-linecap="round" stroke-linejoin="miter"/><path d="M243.71914,204.10309l2.92297,25.98777c0,0 7.06267,0.41252 6.89471,7.51322c-0.00958,0.40481 -0.10976,2.39235 -3.02746,2.97403c-2.79456,0.55712 -8.36532,-0.27515 -10.40081,-0.59138c-0.94539,-0.14688 -2.3855,-0.78756 -3.30585,-1.88454c-0.92663,-1.1045 -0.82654,-2.71079 -0.82591,-3.6144c0.00025,-0.36804 -2.07942,-29.30669 -2.07942,-29.30669" fill="#000000" fill-rule="evenodd" stroke="#001026" stroke-width="1.2" stroke-linecap="round" stroke-linejoin="round"/><path d="M233.75788,209.71142c0,0 -3.38365,30.23157 -4.0011,30.33136c-1.77192,0.28635 -11.48215,-2.27779 -11.48215,-2.27779l6.24171,-30.39505" data-paper-data="{&quot;index&quot;:null}" fill="#000000" fill-rule="evenodd" stroke="#001026" stroke-width="1.2" stroke-linecap="round" stroke-linejoin="round"/><path d="M232.09405,238.15795c-0.02471,0.4906 -0.78326,4.37077 -2.69077,7.11812c-1.4878,2.14285 -4.06623,3.2049 -4.98327,3.98929c-1.09796,0.93914 -4.37918,-1.08183 -5.95259,-4.45725c-1.25725,-2.69714 -0.97219,-6.71096 -0.93513,-7.44681c0.1713,-3.40126 1.92809,0.46456 6.39105,0.73978c4.46293,0.27521 8.34201,-3.3444 8.17069,0.05688z" fill="#92ff66" fill-rule="nonzero" stroke="#001026" stroke-width="1.2" stroke-linecap="butt" stroke-linejoin="miter"/><g data-paper-data="{&quot;index&quot;:null}" fill="#000000" fill-rule="nonzero" stroke="#000000" stroke-width="1.2" stroke-linecap="butt" stroke-linejoin="miter"><path d="M259.53616,204.82148c-1.39652,0.63085 -3.97454,-0.32259 -5.85733,-0.2396c-2.0271,0.08933 -3.22867,1.15938 -4.39897,0.48993c-0.81744,-0.46761 -1.04419,-1.75203 -1.07416,-2.43204c-0.07289,-1.65355 2.65915,-3.11704 6.10215,-3.26879c3.44301,-0.15176 6.29321,1.0657 6.36609,2.71924c0.03303,0.7493 0.01947,2.20849 -1.13776,2.73126z"/><path d="M261.18084,201.84813c-1.95519,0.8619 -6.84736,0.26575 -6.84736,0.26575c0,0 -3.05012,1.05006 -3.1212,1.05195c-4.52941,0.12082 -4.70571,-2.74047 -4.84921,-5.99647c-0.06831,-1.54964 0.455,-3.96023 1.83456,-4.86965c1.56458,-1.03139 3.83127,-0.65876 6.35913,-0.77017c4.75678,-0.20964 8.88642,1.5735 9.03218,4.8806c0.06416,1.45577 0.20327,4.28681 -2.40811,5.43798z"/></g><path d="M220.90155,216.53361c0,0 7.23416,-25.13095 9.1924,-26.70396c0.57497,-0.46186 10.92189,-0.0389 10.92189,-0.0389l7.91429,36.8z" fill="#92ff66" fill-rule="nonzero" stroke="#000000" stroke-width="1" stroke-linecap="butt" stroke-linejoin="miter"/><path d="M236.49383,240.2161c-1.60575,-1.19302 -2.25986,-3.39806 -2.15991,-5.05479c0.03057,-0.50678 7.68604,-0.66832 11.11866,-2.06752c2.71266,-1.10573 1.28615,-3.62809 1.82152,-3.22762c0.11104,0.08306 2.41338,0.33854 5.06018,2.71517c1.71769,1.54236 4.07661,5.4665 4.38914,5.75655c0.5514,0.51174 0.17694,2.66529 -3.97455,3.1422c-5.47186,0.62859 -15.2936,-0.54968 -16.25503,-1.26399z" fill="#92ff66" fill-rule="nonzero" stroke="#001026" stroke-width="1.2" stroke-linecap="butt" stroke-linejoin="miter"/><path d="M244.72256,204.98139l-0.15355,-6l23.8,-0.4v6.6" fill="none" fill-rule="nonzero" stroke="#000000" stroke-width="1" stroke-linecap="round" stroke-linejoin="miter"/><path d="M239.96902,219.98139v-15.8h34.4v15.8z" fill="#92ff66" fill-rule="nonzero" stroke="#000000" stroke-width="1" stroke-linecap="butt" stroke-linejoin="miter"/><path d="M254.53569,211.62584c0,3.52848 -2.91761,6.38889 -6.51667,6.38889c-3.59905,0 -6.51667,-2.86041 -6.51667,-6.38889c0,-3.52848 2.91761,-6.38889 6.51667,-6.38889c3.59905,0 6.51667,2.86041 6.51667,6.38889z" fill="#8e8888" fill-rule="nonzero" stroke="#000000" stroke-width="1" stroke-linecap="butt" stroke-linejoin="miter"/><path d="M272.43568,211.37931c0,3.48054 -2.70867,6.30208 -6.05,6.30208c-3.34133,0 -6.05,-2.82154 -6.05,-6.30208c0,-3.48054 2.70867,-6.30208 6.05,-6.30208c3.34133,0 6.05,2.82154 6.05,6.30208z" fill="#8e8888" fill-rule="nonzero" stroke="#000000" stroke-width="1" stroke-linecap="butt" stroke-linejoin="miter"/><path d="M261.36902,215.88139c0,0.71797 -1.79086,1.3 -4,1.3c-2.20914,0 -4,-0.58203 -4,-1.3c0,-0.71797 1.79086,-1.3 4,-1.3c2.20914,0 4,0.58203 4,1.3z" fill="#8e8888" fill-rule="nonzero" stroke="#000000" stroke-width="1" stroke-linecap="butt" stroke-linejoin="miter"/><path d="M229.95578,226.08155c0,0 -2.49763,1.0461 -3.50879,0.77033c-1.07959,-0.29444 -2.77692,-2.48462 -2.77692,-2.48462" fill="none" fill-rule="nonzero" stroke="#001026" stroke-width="1" stroke-linecap="round" stroke-linejoin="miter"/><path d="M244.67007,225.36726c0,0 -2.58743,1.64272 -3.85496,1.74213c-1.14948,0.09015 -3.43075,-1.1707 -3.43075,-1.1707" fill="none" fill-rule="nonzero" stroke="#001026" stroke-width="1" stroke-linecap="round" stroke-linejoin="miter"/><g fill-rule="nonzero" stroke-linejoin="miter"><path d="M256.27576,163.21596c1.17136,13.39992 -9.23117,25.25504 -23.23469,26.47915c-14.00352,1.22411 -26.30518,-8.64632 -27.47653,-22.04624c-1.17136,-13.39992 9.23117,-25.25504 23.23469,-26.47915c14.00352,-1.22411 26.30518,8.64632 27.47653,22.04624z" fill="none" stroke="#000000" stroke-width="4.5" stroke-linecap="butt"/><path d="M227.34682,191.0698l-29.35618,2.33157c0,0 -2.42478,-0.12867 -2.15787,-1.05694c0.61204,-2.12857 5.75603,-11.45695 5.75603,-11.45695l-11.9872,-2.94039c0,0 -2.19998,-0.71496 -2.61388,-1.78221c-0.38504,-0.99283 10.1497,-11.31049 10.1497,-11.31049c0,0 -8.54993,-2.87604 -10.95331,-4.6545c-0.94375,-0.69836 10.89703,-9.41294 19.20776,-13.88222c4.06668,-2.18694 9.58927,-5.42775 14.19842,-6.56373c7.64229,-1.88353 13.81716,-0.12279 13.81716,-0.12279" fill="none" stroke="#000000" stroke-width="3" stroke-linecap="round"/><path d="M196.12806,193.56417c0,0 -0.6504,-1.35237 0.40609,-3.38496c1.32329,-2.54586 6.3603,-6.24938 4.5071,-8.45785c-2.40064,-2.86085 -14.92254,-1.30707 -13.71064,-5.27468c0.99511,-3.25788 9.7544,-9.50841 9.57401,-11.57196c-0.17999,-2.05899 -4.62099,-0.40868 -7.47015,-2.92118c-4.05213,-3.5733 -2.26127,-3.73545 -2.26127,-3.73545c0,0 11.02537,-8.46471 16.48655,-11.39826c5.12381,-2.75232 15.33298,-5.69404 15.33298,-5.69404c0,0 -13.68082,14.99531 -15.10345,23.19907c-1.577,9.094 17.53519,26.08962 17.53519,26.08962z" data-paper-data="{&quot;index&quot;:null}" fill="url(#color-1)" stroke="none" stroke-width="0" stroke-linecap="butt"/><path d="M233.28402,181.37566c0.1314,0.9863 -3.86711,6.06377 -5.22116,6.24416c-1.34738,0.1795 -6.10089,-5.40784 -6.23301,-6.39962c-0.13979,-1.04928 11.31438,-0.89382 11.45417,0.15546z" fill="#ff0000" stroke="#000000" stroke-width="2.5" stroke-linecap="butt"/><path d="M229.05633,167.31077c0.36466,2.73724 -0.60201,5.12437 -2.97429,5.44041c-2.37227,0.31604 -2.93893,-1.86683 -3.30359,-4.60407c-0.36466,-2.73724 -0.38924,-4.99232 1.98305,-5.30836c2.37227,-0.31604 3.93017,1.73478 4.29483,4.47201z" fill="#070606" stroke="#000000" stroke-width="5" stroke-linecap="butt"/><path d="M243.07693,165.27479c0.32819,2.46352 -0.5201,4.60905 -2.70989,4.90077c-2.18979,0.29173 -3.05256,-1.45771 -3.38075,-3.92123c-0.32819,-2.46352 0.00247,-4.70823 2.19226,-4.99995c2.18979,-0.29173 3.57019,1.5569 3.89838,4.02041z" fill="#070606" stroke="#000000" stroke-width="5" stroke-linecap="butt"/><path d="M222.77454,163.7003l-4.29538,0.57223" fill="none" stroke="#000000" stroke-width="5" stroke-linecap="round"/><path d="M240.40769,161.01492l6.34389,-0.34072" fill="none" stroke="#000000" stroke-width="5" stroke-linecap="round"/></g></g></g></svg>