<svg version="1.1" xmlns="http://www.w3.org/2000/svg" xmlns:xlink="http://www.w3.org/1999/xlink" width="68.20616" height="109.13839" viewBox="0,0,68.20616,109.13839"><defs><linearGradient x1="201.83515" y1="160.25019" x2="244.28523" y2="162.08776" gradientUnits="userSpaceOnUse" id="color-1"><stop offset="0" stop-color="#000000"/><stop offset="1" stop-color="#000000" stop-opacity="0"/></linearGradient><linearGradient x1="202.09869" y1="182.62973" x2="221.40759" y2="183.46556" gradientUnits="userSpaceOnUse" id="color-2"><stop offset="0" stop-color="#000000"/><stop offset="1" stop-color="#000000" stop-opacity="0"/></linearGradient><linearGradient x1="235.51948" y1="163.98143" x2="224.25783" y2="189.54879" gradientUnits="userSpaceOnUse" id="color-3"><stop offset="0" stop-color="#2a0000" stop-opacity="0"/><stop offset="1" stop-color="#2a0000"/></linearGradient><linearGradient x1="258.244" y1="174.48626" x2="247.26726" y2="199.4068" gradientUnits="userSpaceOnUse" id="color-4"><stop offset="0" stop-color="#2a0000" stop-opacity="0"/><stop offset="1" stop-color="#2a0000"/></linearGradient></defs><g transform="translate(-200.40426,-134.32238)"><g data-paper-data="{&quot;isPaintingLayer&quot;:true}" stroke-miterlimit="10" stroke-dasharray="" stroke-dashoffset="0" style="mix-blend-mode: normal"><g stroke-width="1.2"><path d="M244.04391,204.70964l3.09783,25.587c0,0 7.48518,0.40616 7.30717,7.39735c-0.01015,0.39857 -0.11633,2.35546 -3.20857,2.92817c-2.96174,0.54853 -8.86576,-0.27091 -11.02302,-0.58226c-1.00195,-0.14461 -2.52821,-0.77541 -3.50362,-1.85548c-0.98206,-1.08747 -0.87599,-2.66899 -0.87532,-3.55866c0.00026,-0.36236 -2.20382,-28.85474 -2.20382,-28.85474" fill="#784200" fill-rule="evenodd" stroke="#4d2a00" stroke-linecap="round" stroke-linejoin="round"/><path d="M233.44963,211.54116c0.18243,-7.16484 5.84856,-7.28883 8.80072,-7.22396c1.28371,0.02821 1.11023,-1.88671 2.24626,3.71719c0.25019,1.2342 0.74187,6.30101 1.79326,10.61368c0.71996,2.95314 2.0704,5.56077 2.3227,6.30993c0.59611,1.77009 0.35089,3.3837 0.35089,3.3837l-1.08084,-1.17271c0,0 0.71222,0.81727 0.99744,1.30491c0.88857,1.51912 1.56826,2.66567 1.56826,2.66567c0,0 -7.54937,-0.45291 -10.48972,1.78183c-2.94034,2.23474 -1.48334,6.44096 -1.48334,6.44096c0,0 -5.59332,-0.79845 -6.04156,-3.66509c-0.11051,-0.7067 0.75701,-2.80973 0.75701,-2.80973c0,0 -0.63955,0.11896 -0.66027,-0.37037c-0.01057,-0.24944 0.84641,-3.94981 1.0368,-8.11252c0.25065,-5.4799 -0.14392,-11.83115 -0.11764,-12.86348z" fill="#ff8d00" fill-rule="nonzero" stroke="#c46c00" stroke-linecap="butt" stroke-linejoin="miter"/></g><path d="M223.85265,206.45469c-0.01044,-0.21032 1.27042,0.40976 4.17279,0.48142c3.82897,0.09455 9.69292,-0.32845 11.34183,-0.54487c4.27589,-0.56122 4.99947,-2.05501 5.02715,-1.49749c0.10244,2.06313 -2.31614,5.88478 -7.20772,6.09439c-2.14962,0.09212 -6.54637,0.783 -9.03617,0.05663c-3.17587,-0.92652 -4.24045,-3.43363 -4.29788,-4.5901z" fill="#004fd9" fill-rule="nonzero" stroke="#001026" stroke-width="1.2" stroke-linecap="butt" stroke-linejoin="miter"/><g fill-rule="nonzero" stroke-linecap="butt" stroke-linejoin="miter"><g fill="none" stroke="none" stroke-width="1" font-family="sans-serif" font-weight="normal" font-size="12" text-anchor="start"/><path d="M223.33669,205.11287c0,0 9.1879,1.29877 13.41002,1.28066c4.2221,-0.01811 7.70056,-1.3712 7.70056,-1.3712c0,0 0.03324,2.0195 -1.84968,3.98496c-1.45749,1.52139 -4.25861,3.09744 -7.87914,3.13088c-3.29839,0.03046 -6.97824,-0.61325 -8.79974,-1.93417c-2.76086,-2.00212 -2.582,-5.09115 -2.582,-5.09115z" fill="#ff8d00" stroke="#c46c00" stroke-width="1.2"/></g><g stroke-width="1.2"><path d="M233.48675,210.23148c0,0 -3.58607,29.76535 -4.24046,29.8636c-1.87792,0.28193 -12.16905,-2.24266 -12.16905,-2.24266l6.61511,-29.92631" data-paper-data="{&quot;index&quot;:null}" fill="#ffab19" fill-rule="evenodd" stroke="#001026" stroke-linecap="round" stroke-linejoin="round"/><path d="M235.07161,209.75159c0,0 -0.83772,6.29426 -1.08515,9.63162c-0.23732,3.20103 -0.37037,10.00064 -0.37037,10.00064c0,0 1.00597,4.94077 0.02246,6.15917c-0.45552,0.56432 -0.81447,-2.78947 -0.81447,-2.78947c0,0 0.40071,3.7809 0.44017,4.11415c0.27529,2.32517 -0.98106,5.37857 -4.27324,5.66866c-3.61461,0.31849 -9.6071,0.67822 -12.69627,-1.16136c-1.31439,-0.78271 -3.09481,-3.08675 -2.61562,-5.54117c0.54039,-2.76795 3.44243,-5.66769 3.44243,-5.66769l-2.66662,3.16086c0,0 -0.0278,-1.57827 0.40609,-2.73602c0.48726,-1.30015 2.37602,-4.68731 2.37602,-4.68731l5.72563,-19.0624" data-paper-data="{&quot;index&quot;:null}" fill="#ff8d00" fill-rule="evenodd" stroke="#c46c00" stroke-linecap="round" stroke-linejoin="round"/><path d="M231.72337,238.23932c-0.0906,1.67131 -0.82971,3.61313 -2.43396,4.62145c-1.6102,1.01206 -11.28752,0.61099 -12.78358,-0.62589c-1.42076,-1.17462 -1.9995,-3.34566 -1.91107,-4.97684c0.18155,-3.34881 4.16308,-5.84391 8.89303,-5.57293c4.72992,0.27097 8.41713,3.20539 8.23556,6.55422z" fill="#784200" fill-rule="nonzero" stroke="#4d2a00" stroke-linecap="butt" stroke-linejoin="miter"/></g><path d="M235.8127,191.82099l6.40099,-5.82617c0,0 4.75812,3.04716 7.44955,3.81079c2.5708,0.7294 8.35375,0.673 8.35375,0.673l3.52555,3.67329c0,0 -8.26061,2.2606 -12.45529,1.88059c-4.37439,-0.39629 -13.27456,-4.21151 -13.27456,-4.21151z" fill="#000000" fill-rule="nonzero" stroke="#000000" stroke-width="0.5" stroke-linecap="butt" stroke-linejoin="miter"/><path d="M223.38816,204.90111l2.24825,-16.7277l13.93032,1.40519l4.87746,15.19115c0,0 -3.0519,1.78255 -6.39483,1.80341c-3.64892,0.02276 -14.66119,-1.67206 -14.66119,-1.67206z" fill="#000000" fill-rule="nonzero" stroke="#000000" stroke-width="0.5" stroke-linecap="butt" stroke-linejoin="miter"/><path d="M208.86035,186.06671l2.72009,-7.83729l19.7037,7.40483l-2.43316,7.09761z" fill="#000000" fill-rule="nonzero" stroke="#000000" stroke-width="0.5" stroke-linecap="butt" stroke-linejoin="miter"/><path d="M205.08683,183.25939c0.59028,-1.77024 3.57388,-3.28737 5.05602,-5.03956c1.59576,-1.88648 1.63217,-3.84544 3.19818,-4.33854c1.09385,-0.34441 2.42981,0.51455 3.06265,1.04985c1.53886,1.30168 0.58916,4.95441 -2.12119,8.15858c-2.71034,3.20418 -6.15503,4.74646 -7.69387,3.44477c-0.69733,-0.58986 -1.99093,-1.80816 -1.50179,-3.27509z" fill="#000000" fill-rule="nonzero" stroke="#000000" stroke-width="1.2" stroke-linecap="butt" stroke-linejoin="miter"/><path d="M206.38607,187.18789c0.84549,-2.46079 5.42252,-6.34258 5.42252,-6.34258c0,0 1.58232,-3.59542 1.63939,-3.66053c3.63605,-4.15006 6.34035,-1.94252 9.37048,0.62064c1.44215,1.21988 3.16512,3.68045 2.83795,5.6658c-0.37104,2.25161 -2.57793,3.97046 -4.56789,6.32297c-3.74458,4.4268 -8.75269,6.64554 -11.83038,4.04217c-1.35478,-1.14599 -4.00129,-3.36179 -2.87205,-6.64846z" fill="#000000" fill-rule="nonzero" stroke="#000000" stroke-width="1.2" stroke-linecap="butt" stroke-linejoin="miter"/><path d="M263.70335,165.63966c-1.18898,13.39837 -13.50361,23.25262 -27.50551,22.01008c-14.00189,-1.24254 -24.38882,-13.11132 -23.19984,-26.50969c1.18897,-13.39837 13.50361,-23.25261 27.50551,-22.01007c14.00189,1.24254 24.38882,13.11132 23.19984,26.50969z" fill="none" fill-rule="nonzero" stroke="#000000" stroke-width="4.5" stroke-linecap="butt" stroke-linejoin="miter"/><path d="M228.36388,141.10206c0,0 -9.6188,4.49202 -13.77392,12.57461c-2.8688,5.58043 -1.04125,14.98456 -0.17937,17.18696c2.90452,7.42201 8.15611,12.60734 5.78448,10.28745c-2.63623,-2.57872 -3.05982,-6.57042 -5.17623,-7.4772c-1.23937,-0.53101 -6.21429,1.28172 -11.50848,-6.39162c-1.77008,-2.56555 -3.54271,-14.86824 3.29887,-21.55683c1.69506,-1.65717 14.82011,-8.88808 19.34726,-9.90305c11.68156,-2.61895 18.26121,1.78699 18.26121,1.78699" fill="url(#color-1)" fill-rule="nonzero" stroke="#000000" stroke-width="3" stroke-linecap="round" stroke-linejoin="miter"/><path d="M221.45373,182.39948c-0.02758,0.63712 -0.5889,8.39498 -6.04152,10.98246c-3.58032,1.69901 -12.77931,-1.00483 -12.99717,-1.7855c-1.96813,-7.05227 2.13199,-19.7409 6.89274,-19.53482c3.59739,0.15572 4.39434,0.32504 6.75148,2.65602c1.63349,1.61535 5.522,4.73559 5.39447,7.68183z" fill="url(#color-2)" fill-rule="nonzero" stroke="#000000" stroke-width="3" stroke-linecap="butt" stroke-linejoin="miter"/><g fill-rule="nonzero" stroke-linecap="butt" stroke-linejoin="miter"><g data-paper-data="{&quot;index&quot;:null}" stroke="none" stroke-width="1"><path d="M256.9612,184.59932c-0.20493,-0.05439 -0.25457,-0.19409 -0.28369,-0.36836c-0.0239,-0.27862 0.00874,-0.55663 0.00378,-0.83506c-0.054,-0.05276 -0.10801,-0.10555 -0.16284,-0.14091c-1.12985,-0.81232 -1.71595,-1.93199 -2.10732,-3.17137c-0.08137,-0.26182 -0.18159,-0.52389 -0.16775,-0.80207c0.00263,-0.05216 -0.0128,-0.12192 -0.04884,-0.15712c-0.19801,-0.19349 -0.18679,-0.41953 -0.19354,-0.66319c-0.00851,-0.20885 0.02073,-0.41732 0.03111,-0.62597c0.00606,-0.12171 0.04982,-0.24304 0.16733,-0.32882c0.11751,-0.08571 0.18102,-0.22424 0.24364,-0.34534c0.28153,-0.7277 0.69252,-1.40183 1.21407,-2.0226c0.30026,-0.34476 0.65362,-0.61937 1.02586,-0.89374c1.09702,-0.80603 2.34651,-1.26247 3.69626,-1.45691c0.60798,-0.08051 1.23052,-0.0739 1.84957,0.00225c0.46899,0.05718 0.89424,0.2357 1.29976,0.43138c1.29029,0.62266 2.20484,1.58923 2.82431,2.79626c0.1208,0.22746 0.18332,0.48906 0.24582,0.7507c0.04796,0.17446 0.11565,0.33179 0.29909,0.43814c0.16543,0.08877 0.23314,0.24604 0.26222,0.42031c0.0239,0.27862 0.01006,0.55683 -0.00379,0.83505c-0.00432,0.08696 -0.0455,0.15613 -0.08671,0.22527c-0.18187,0.24163 -0.25143,0.50185 -0.28409,0.77989c-0.04823,0.59102 -0.2834,1.14524 -0.49971,1.69965c-0.08585,0.20787 -0.1905,0.41552 -0.33204,0.6054c-0.44611,0.62156 -0.90937,1.20819 -1.53721,1.68865c-0.01296,0.26082 -0.04566,0.53883 -0.05946,0.81705c-0.00519,0.10434 -0.01125,0.22606 -0.12789,0.29439c-0.09776,0.06854 -0.08412,0.1731 -0.08928,0.27741c-0.05341,0.69532 -0.08799,1.39086 -0.14141,2.08619c-0.0958,1.54738 -0.19237,3.11213 -0.32588,4.65911c-0.13178,1.5122 -0.20691,3.02499 -0.30097,4.53759c-0.01208,0.24345 -0.06107,0.46907 -0.07314,0.7125c-0.05876,1.18241 -0.11752,2.36485 -0.19513,3.54706c-0.01037,0.20864 0.01698,0.41772 -0.10572,0.60776c-0.04119,0.06918 -0.02666,0.15627 -0.03098,0.24323c-0.04317,0.86944 -0.10613,1.75605 -0.14933,2.62548c-0.00174,0.03477 -0.00435,0.08693 -0.00604,0.12171c0.00505,0.27842 -0.13393,0.41613 -0.40409,0.53504c-0.90649,0.39051 -1.836,0.48503 -2.78859,0.28355c-0.24264,-0.05479 -0.48354,-0.14433 -0.70388,-0.26844c-0.16544,-0.08877 -0.234,-0.22866 -0.24423,-0.40272c-0.03065,-0.52227 -0.08019,-1.04472 -0.11,-1.58437c-0.01871,-0.38297 0.00115,-0.7829 -0.07417,-1.16644c-0.16603,-0.83684 -0.10482,-1.6887 -0.2143,-2.52491c-0.05214,-0.47028 -0.14287,-0.92361 -0.17613,-1.39371c-0.03154,-0.50486 -0.10166,-0.99275 -0.15295,-1.48039c-0.08797,-0.88822 -0.13736,-1.79344 -0.24423,-2.68185c-0.16846,-1.16741 -0.26151,-2.3341 -0.35452,-3.50069c-0.03671,-0.40057 -0.07346,-0.80103 -0.11017,-1.2016c-0.04438,-0.6268 -0.08784,-1.27095 -0.13217,-1.89772c-0.02046,-0.34819 -0.07949,-0.67937 -0.09997,-1.02752c-0.03845,-0.3658 -0.02203,-0.69612 -0.04074,-1.0791zM257.44489,184.36089c0.22119,0.10675 0.4441,0.17872 0.68845,0.19873c0.48271,0.1617 0.9903,0.2019 1.49792,0.24207c0.63881,0.05897 1.2999,0.04861 1.94216,0.03802c0.73657,-0.00957 1.4252,-0.19363 2.13357,-0.39486c0.07718,-0.03399 0.15435,-0.06794 0.27013,-0.11891c0.00693,-0.1391 0.01378,-0.2782 0.02071,-0.4173c0.00174,-0.03477 -0.0154,-0.06975 -0.03167,-0.12211c-0.13204,-0.00142 -0.26497,0.01457 -0.39875,0.04795c-0.22896,0.04977 -0.43734,0.06491 -0.66628,0.11467c-0.57112,0.09831 -1.15335,0.03997 -1.72185,0.08612c-0.30269,0.01421 -0.6071,0.06311 -0.90807,0.04253c-0.65766,-0.05917 -1.31963,-0.03142 -1.9738,-0.16016c-0.16806,-0.0366 -0.35495,-0.07333 -0.52303,-0.10996c-0.07027,-0.10517 -0.22293,-0.07194 -0.31553,-0.10774c-0.11058,-0.05337 -0.22121,-0.10674 -0.42954,-0.09154c0.1208,0.22746 0.053,0.45291 0.11806,0.66237c0.09347,0.01841 0.16373,0.12351 0.29752,0.09014zM258.17003,184.96012c-0.4261,-0.16114 -0.53841,-0.1797 -0.78539,-0.14754c0.00851,0.20885 0.01788,0.40034 0.02635,0.6092c-0.00605,0.12171 0.06505,0.20948 0.17569,0.26286c0.07377,0.03559 0.16806,0.03658 0.24179,0.07216c0.27691,0.12476 0.59503,0.1803 0.8977,0.16612c0.12776,0.08831 0.27862,0.08998 0.42957,0.09157c0.848,0.02641 1.67634,0.06999 2.52868,0.00948c0.37903,-0.03076 0.75893,-0.0789 1.12079,-0.14466c0.28645,-0.06656 0.59172,-0.13289 0.82846,-0.33916c0.01123,-0.22607 0.02242,-0.45209 0.03368,-0.67817c-0.15262,0.03315 -0.28645,0.06654 -0.40131,0.1001c-0.53512,0.13345 -1.06848,0.2322 -1.59843,0.26136c-0.6817,0.04493 -1.3591,0.00293 -2.03735,-0.02167c-0.32072,-0.00341 -0.61735,-0.11093 -0.9389,-0.09696c-0.16372,-0.12351 -0.35151,-0.14292 -0.52128,-0.14473zM259.54755,204.33832c0.25891,0.10714 0.52214,0.12735 0.78709,0.11276c0.01799,0.01758 0.05488,0.03538 0.07376,0.03558c0.45361,-0.01257 0.90895,-0.05993 1.33174,-0.212c0.2496,-0.08434 0.49826,-0.15128 0.69639,-0.34055c0.0484,-0.97377 0.09673,-1.94749 0.14777,-2.97344c-0.46224,0.18643 -0.91935,0.26862 -1.3755,0.33333c-0.39963,0.06535 -0.7743,0.00916 -1.17218,0.03973c-0.1509,-0.00158 -0.28211,-0.02037 -0.43303,-0.02197c-0.22203,-0.08936 -0.46468,-0.14412 -0.74676,-0.16453c-0.02592,0.52167 0.10081,1.01015 0.11434,1.49743c0.03153,0.50486 0.08194,1.00996 0.11435,1.49742c0.16372,0.12351 0.31291,0.15992 0.4621,0.19627zM259.2496,200.83826c0.12776,0.0883 0.27779,0.10734 0.42868,0.10892c0.14746,0.07118 0.31813,0.05559 0.48701,0.07479c0.52736,0.02299 1.05901,-0.04093 1.57351,-0.13985c0.30526,-0.06634 0.6123,-0.16749 0.88502,-0.33856c0.00347,-0.06956 0.02577,-0.1389 0.0292,-0.20847c0.04236,-0.85207 0.08383,-1.68666 0.14501,-2.5385c0.06379,-0.90399 0.1267,-1.79061 0.19052,-2.69461c0.08451,-1.32134 0.18708,-2.62505 0.27159,-3.94639c0.11118,-1.47762 0.16488,-2.93845 0.3138,-4.41567c0.03097,-0.24324 0.02502,-0.50425 0.03801,-0.7651c-0.21095,0.06735 -0.40474,0.16967 -0.61399,0.20224c-0.66802,0.14948 -1.34974,0.19441 -2.02971,0.2046c-0.60363,-0.00642 -1.20643,-0.03023 -1.80925,-0.05405c-0.24353,-0.03738 -0.469,-0.05718 -0.71253,-0.09456c-0.14571,-0.10594 -0.31723,-0.07298 -0.46642,-0.10934c-0.16806,-0.0366 -0.3155,-0.10774 -0.50502,-0.09236c-0.04637,0.17349 -0.01556,0.31302 -0.00273,0.43491c0.15654,1.02815 0.16128,2.07205 0.26121,3.09957c0.06151,0.66179 0.12296,1.32354 0.20336,1.9855c0.08797,0.88822 0.19569,1.75922 0.28455,2.63005c0.07778,0.71411 0.15553,1.42826 0.21441,2.14218c0.07514,0.76631 0.13231,1.51499 0.18863,2.28111c0.05976,0.69653 0.11868,1.41047 0.19643,2.1246c0.16888,0.01918 0.27693,0.12472 0.42869,0.10894zM266.70801,177.60469c-0.42276,0.15207 -0.82241,0.21743 -1.22285,0.30016c-0.41935,0.08253 -0.82067,0.18267 -1.23913,0.24779c-0.39963,0.06533 -0.81638,0.0957 -1.21512,0.14363c-0.41764,0.04775 -0.83521,0.09552 -1.2708,0.12569c-0.39787,0.03054 -0.81377,0.04352 -1.21165,0.07407c-0.41587,0.01296 -0.8283,-0.04359 -1.24765,0.03893c-0.39093,-0.10853 -0.80942,-0.04339 -1.20473,-0.06497c-0.41327,-0.03921 -0.84718,-0.0438 -1.26046,-0.08299c-0.3944,-0.03899 -0.80684,-0.09559 -1.20039,-0.15195c-0.41244,-0.05661 -0.80252,-0.18255 -1.2175,-0.18693c-0.05848,0.41692 -0.06453,0.53863 0.07084,0.85323c0.22203,0.08936 0.4441,0.17872 0.70558,0.23367c0.31811,0.05558 0.63619,0.11116 0.9723,0.18434c0.63533,0.12856 1.2527,0.23947 1.91294,0.24651c0.45276,0.00482 0.90637,-0.00778 1.35566,0.06661c0.09347,0.01841 0.20666,0.01958 0.32153,-0.01399c0.22895,-0.04977 0.47333,-0.02973 0.69969,-0.02736c0.83003,0.00883 1.66524,-0.08667 2.48247,-0.19978c1.0822,-0.12768 2.13269,-0.37747 3.18577,-0.67947c0.21008,-0.04998 0.42019,-0.09991 0.57884,-0.25482c0.0507,-0.26043 0.04479,-0.52148 0.00464,-0.85242zM259.18969,175.45447c-0.16212,0.22444 -0.24883,0.4497 -0.35437,0.67474c-0.10384,0.19027 -0.13306,0.39873 -0.06797,0.6082c0.09331,0.40113 0.12918,0.81908 0.08955,1.2362c-0.00174,0.03477 0.01451,0.08714 0.01366,0.10451c0.09172,0.05314 0.16716,0.05394 0.26412,0.0028c0.01973,-0.01717 0.04032,-0.05176 0.0412,-0.06917c0.08166,-0.50368 0.20103,-1.0069 0.35814,-1.50978c0.02234,-0.06934 0.04636,-0.17348 0.01208,-0.24345c-0.06163,-0.27902 -0.12325,-0.55802 -0.35641,-0.80409zM257.92734,178.06806c0.0799,-0.46888 0.19671,-0.91996 0.33152,-1.35347c0.04461,-0.1387 0.03183,-0.26062 -0.01787,-0.40033c-0.08396,-0.20963 -0.20737,-0.38496 -0.32991,-0.57765c-0.03428,-0.06995 -0.06765,-0.15727 -0.18259,-0.12371c-0.10902,0.29461 -0.23602,0.57165 -0.30732,0.86662c0.28441,0.73373 0.2844,0.73371 0.26179,1.56854c0.05399,0.05278 0.12861,0.07094 0.24437,0.02zM262.48237,179.83886c-0.09101,0.3122 -0.16316,0.62461 -0.23532,0.937c-0.02234,0.06935 -0.04464,0.13871 -0.02923,0.20845c0.1182,0.2796 0.21761,0.55903 0.43274,0.7875c0.23673,-0.20625 0.30628,-0.46647 0.43158,-0.70874c0.06264,-0.12109 0.04894,-0.22563 -0.0016,-0.34796c-0.13708,-0.27981 -0.23645,-0.55927 -0.31604,-0.85582c0.00087,-0.01739 -0.03597,-0.0352 -0.07199,-0.07034c-0.05746,0.01678 -0.13382,0.03337 -0.2101,0.04996zM262.96503,175.44239c-0.25907,0.27561 -0.38523,0.53525 -0.53021,0.79467c-0.04293,0.10393 -0.02836,0.19105 -0.01381,0.2782c0.09246,0.41853 0.12827,0.83649 0.08783,1.27099c-0.00261,0.05216 0.01365,0.10453 0.01109,0.15668c0.20665,0.01961 0.24523,0.00261 0.25213,-0.13649c0.02245,-0.45213 0.13841,-0.88583 0.3469,-1.28375c0.12529,-0.24223 0.11681,-0.45111 0.0337,-0.67817c-0.0694,-0.12255 -0.12081,-0.22748 -0.18763,-0.40216zM260.15244,178.10912c0.09432,0.00098 0.11661,-0.06839 0.12009,-0.13795c0.02421,-0.48686 0.19843,-0.95475 0.3727,-1.42266c0.13218,-0.38133 0.07661,-0.78207 -0.18734,-1.16763c-0.13981,0.15508 -0.16734,0.32878 -0.26943,0.48427c-0.20506,0.32838 -0.22146,0.65875 -0.16331,1.00734c0.05645,0.38333 0.13175,0.76693 0.07504,1.14905c0.0163,0.05234 0.03427,0.06998 0.05229,0.08756zM261.64377,175.44575c-0.12356,0.20746 -0.22482,0.34556 -0.30716,0.48387c-0.14326,0.22467 -0.17251,0.43311 -0.10916,0.67734c0.09676,0.33159 0.11723,0.67976 0.11883,1.0277c0.0128,0.12194 0.00588,0.26103 -0.00016,0.38273c0.09347,0.01841 0.11491,-0.03354 0.11664,-0.06834c0.11934,-0.50328 0.25761,-1.00631 0.47048,-1.4912c0.02318,-0.08674 0.04548,-0.15608 0.03095,-0.24322c-0.08222,-0.24445 -0.14558,-0.48869 -0.32039,-0.76889zM263.67946,179.67761c0.05905,0.33119 -0.01311,0.64358 -0.0664,0.95618c-0.00432,0.08694 -0.06438,0.1559 -0.03096,0.24322c0.0497,0.13974 0.26223,0.42034 0.46196,0.57906c0.14071,-0.1725 0.18878,-0.38074 0.27378,-0.57123c0.06437,-0.15591 0.05242,-0.2952 -0.03499,-0.43531c-0.13879,-0.24503 -0.2399,-0.48968 -0.28266,-0.76852c0.00088,-0.0174 -0.03516,-0.05256 -0.05313,-0.07014c-0.07461,-0.01819 -0.15006,-0.01902 -0.26755,0.06676zM257.17092,180.75665c0.1011,0.24463 0.06752,0.54006 0.22608,0.76792c0.13291,-0.01598 0.19384,-0.10231 0.27275,-0.17107c0.13896,-0.13773 0.29505,-0.24041 0.39887,-0.43068c-0.09761,-0.3142 -0.04264,-0.66158 -0.12053,-0.99295c-0.09172,-0.05314 -0.18603,-0.05418 -0.2821,-0.02038c-0.12787,0.29442 -0.29262,0.57104 -0.49508,0.84723zM260.2298,179.9715c-0.04637,0.17349 -0.09274,0.34695 -0.19312,0.46765c-0.24106,0.29317 -0.23685,0.58902 -0.10063,0.88621c0.05139,0.10492 0.04619,0.20927 0.1542,0.31482c0.19729,-0.17191 0.33886,-0.36175 0.48036,-0.55164c0.04032,-0.05177 0.04376,-0.12132 0.02923,-0.20845c-0.06252,-0.26164 -0.10701,-0.50566 -0.16948,-0.76729c0.00263,-0.05216 -0.03169,-0.12213 -0.20062,-0.14131zM259.04135,179.95888c-0.09447,0.38175 -0.22495,0.7283 -0.484,1.00392c-0.05917,0.05156 -0.04377,0.12132 -0.04721,0.19086c0.0111,0.1567 0.04105,0.31362 0.14645,0.47128c0.27621,-0.24063 0.45807,-0.4823 0.6408,-0.7413c0.06091,-0.08633 0.08412,-0.17307 0.07042,-0.27761c-0.02817,-0.19168 -0.03759,-0.38316 -0.06581,-0.57483c0.00088,-0.0174 -0.03514,-0.05258 -0.05313,-0.07015c-0.05659,-0.00062 -0.11321,-0.00121 -0.20749,-0.00219zM264.35642,176.3097c-0.06682,-0.17467 -0.13275,-0.36677 -0.19957,-0.54148c-0.01799,-0.01758 -0.036,-0.0352 -0.07199,-0.07034c-0.21531,0.15427 -0.33885,0.36176 -0.42383,0.55221c0.10528,0.54046 0.21225,1.0461 0.18286,1.63733c0.27793,-0.27541 0.15967,-0.55502 0.22751,-0.78046c0.07042,-0.27762 0.17768,-0.53743 0.28496,-0.79725zM258.94627,175.03434c-0.17827,-0.21067 -0.31885,-0.42093 -0.57688,-0.54545c-0.08152,0.12089 -0.18015,0.20685 -0.24191,0.31061c-0.06176,0.10374 -0.1424,0.20724 -0.14843,0.32898c0.04884,0.15707 0.1757,0.26283 0.26397,0.38555c0.08829,0.1227 0.13794,0.26245 0.28452,0.35097c0.14585,-0.27684 0.27203,-0.53641 0.41878,-0.83063zM256.71832,178.09001c0.10137,-0.52084 0.17953,-0.95498 0.25775,-1.38906c0.00174,-0.03477 0.02322,-0.08675 -0.0128,-0.12191c-0.12255,-0.19267 -0.20563,-0.41973 -0.44481,-0.54406c-0.08756,0.24263 -0.17425,0.4679 -0.24206,0.69337c0.22537,0.40256 0.33581,0.83863 0.44193,1.3617zM261.33443,181.67083c0.17584,-0.11993 0.2222,-0.2934 0.30458,-0.43169c0.10211,-0.15548 0.14761,-0.31158 0.08164,-0.50365c-0.08136,-0.26181 -0.16273,-0.52367 -0.11118,-0.80151c-0.13034,-0.03618 -0.20664,-0.01959 -0.21184,0.08474c-0.03181,0.26061 -0.06453,0.53864 -0.18893,0.76348c-0.16733,0.3288 -0.0294,0.59126 0.12573,0.88865zM259.48593,181.26841c-0.25992,0.293 -0.47865,0.51685 -0.67853,0.74087c-0.00606,0.12171 0.04708,0.19189 0.08136,0.26181c0.05313,0.07015 0.08568,0.17485 0.21598,0.21105c0.21446,-0.13691 0.41169,-0.30877 0.591,-0.49821c-0.04536,-0.22663 -0.11045,-0.43611 -0.2098,-0.71553zM262.40522,182.15195c-0.1568,-0.26262 -0.29651,-0.49028 -0.43529,-0.73531c-0.14328,0.22467 -0.28572,0.43194 -0.42813,0.63918c0.1208,0.22746 0.20476,0.43713 0.42336,0.59598c0.17755,-0.15468 0.29936,-0.32738 0.44006,-0.49986zM259.87944,174.4875c-0.23156,0.1019 -0.29937,0.32738 -0.42121,0.50004c-0.04032,0.05177 -0.02581,0.13889 0.00937,0.19147c0.10454,0.17511 0.19108,0.3326 0.29647,0.49031c-0.00087,0.01739 0.03689,0.01778 0.07462,0.0182c0.14418,-0.24203 0.27024,-0.50166 0.41443,-0.74369c-0.08567,-0.17487 -0.22967,-0.3156 -0.37368,-0.4563zM262.73891,175.05725c-0.06597,-0.19206 -0.13275,-0.36676 -0.3342,-0.4907c-0.15869,0.15492 -0.35512,0.30939 -0.45982,0.51706c0.05053,0.12232 0.06338,0.24424 0.13364,0.34936c0.05137,0.10492 0.0256,0.24384 0.1928,0.2978c0.16214,-0.22444 0.32427,-0.44889 0.4676,-0.67356zM262.93763,182.07063c0.06768,0.15729 0.23314,0.24604 0.39771,0.35218c0.16131,-0.20704 0.35769,-0.36157 0.44528,-0.60417c-0.14401,-0.14073 -0.22881,-0.33297 -0.42942,-0.4743c-0.14418,0.24203 -0.26946,0.48427 -0.41358,0.72629zM264.86287,179.41187c-0.03442,0.31279 0.00578,0.64377 -0.06641,0.95618c-0.05068,0.26043 0.07449,0.4009 0.29392,0.54244c0.14153,-0.18985 0.18877,-0.38075 0.25573,-0.58879c-0.23141,-0.2808 -0.30935,-0.61221 -0.48327,-0.90981zM255.67403,177.83533c0.07633,-0.01657 0.07889,-0.06874 0.08152,-0.12089c0.0301,-0.22583 0.0422,-0.4693 0.09116,-0.69495c0.09185,-0.32958 -0.08814,-0.50546 -0.32389,-0.69935c-0.04379,0.12136 -0.08581,0.20785 -0.109,0.29458c-0.06693,0.20807 -0.09532,0.39912 0.06494,0.59223c0.08829,0.1227 0.11821,0.27964 0.14907,0.41914c-0.02234,0.06935 -0.06437,0.15589 0.0462,0.20925zM256.28246,181.16476c0.09776,-0.06854 0.15784,-0.13751 0.217,-0.18907c0.19555,-0.13709 0.25994,-0.293 0.23257,-0.50206c-0.02906,-0.17428 -0.0007,-0.36537 -0.01094,-0.53944c0.00262,-0.05217 0.02405,-0.10413 -0.10714,-0.12294c-0.10645,0.24244 -0.25056,0.4845 -0.43159,0.70874c-0.04032,0.05177 -0.04462,0.13867 -0.04811,0.20824c0.03081,0.13949 0.06248,0.26166 0.14818,0.4365zM261.03328,182.03297c-0.06681,-0.17469 -0.11389,-0.36654 -0.2382,-0.52446c-0.19814,0.18929 -0.41343,0.34356 -0.55672,0.5682c0.10455,0.1751 0.15249,0.34956 0.35482,0.45612c0.1587,-0.15492 0.33541,-0.29219 0.44006,-0.49986zM261.02966,175.64799c0.19812,-0.18929 0.32169,-0.39675 0.40749,-0.60459c-0.10454,-0.17509 -0.19111,-0.33256 -0.35311,-0.49088c-0.15612,0.10274 -0.25733,0.24085 -0.34056,0.39654c0.10195,0.22723 0.18505,0.4543 0.28612,0.69896zM259.31463,182.81499c0.10715,0.12295 0.1594,0.21046 0.25028,0.281c0.05401,0.05277 0.10886,0.08816 0.16375,0.12353c0.19295,-0.08493 0.36879,-0.20486 0.49063,-0.37754c-0.08567,-0.17487 -0.17136,-0.34974 -0.35399,-0.47348c-0.17755,0.15468 -0.35338,0.27461 -0.55064,0.44648zM255.77197,179.66311c-0.21787,0.20647 -0.37569,0.34395 -0.55412,0.51603c-0.02234,0.06934 -0.00953,0.19124 0.0419,0.2962c0.03254,0.10471 -0.01123,0.22604 0.09764,0.31419c0.17238,-0.05037 0.28988,-0.1361 0.39026,-0.25682c-0.00505,-0.27842 0.00796,-0.53925 0.02436,-0.86962zM258.63025,174.17844c0.09003,0.08795 0.18003,0.17592 0.26999,0.26385c0.09005,0.08796 0.18089,0.15848 0.27088,0.24643c0.14155,-0.18984 0.28053,-0.32757 0.32777,-0.51842c-0.0514,-0.10491 -0.16287,-0.14089 -0.25457,-0.19408c-0.09172,-0.05314 -0.18089,-0.15849 -0.31377,-0.14252c-0.11925,0.12054 -0.23673,0.20625 -0.30025,0.34477zM261.62977,182.94398c-0.14229,-0.17547 -0.22623,-0.38518 -0.44573,-0.52667c-0.13894,0.13773 -0.25905,0.27562 -0.39803,0.41333c0.14228,0.17547 0.24767,0.3332 0.46974,0.42253c0.13636,-0.08554 0.27104,-0.1363 0.37399,-0.30918zM257.12209,176.04141c0.12876,-0.31178 0.2369,-0.58898 0.34502,-0.86616c-0.07027,-0.10516 -0.12166,-0.21009 -0.25199,-0.24625c-0.21702,0.18909 -0.32343,0.43148 -0.4487,0.67372c0.07028,0.10515 0.14053,0.21028 0.23052,0.29822c0.01539,0.06978 0.05226,0.08753 0.12511,0.1405zM258.31694,182.00407c-0.10372,-0.19247 -0.09333,-0.40117 -0.23733,-0.54188c-0.21613,0.17169 -0.41254,0.32618 -0.57388,0.53326c0.12603,0.12314 0.11735,0.297 0.30082,0.40335c0.19293,-0.08493 0.31395,-0.24026 0.51037,-0.39472zM263.60411,174.73589c-0.13723,0.10293 -0.25645,0.22346 -0.33883,0.36178c0.10284,0.20986 0.18677,0.41952 0.28787,0.66415c0.12267,-0.19004 0.24277,-0.32797 0.40236,-0.50024c-0.10283,-0.20988 -0.18763,-0.40216 -0.35138,-0.52568zM256.35778,181.54832c0.06421,0.22686 0.11132,0.41873 0.29304,0.55985c0.15523,-0.08535 0.29074,-0.15346 0.37313,-0.29179c-0.06508,-0.20947 -0.11131,-0.41868 -0.19354,-0.66314c-0.17584,0.11993 -0.33278,0.24004 -0.47261,0.39513zM261.75545,174.71626c0.1424,-0.20724 0.35512,-0.3094 0.40236,-0.50029c-0.10454,-0.17509 -0.25028,-0.28104 -0.41574,-0.36978c-0.15696,0.12012 -0.31307,0.22283 -0.37918,0.41349c0.12512,0.14051 0.23142,0.2808 0.39255,0.45651zM263.03692,182.73279c-0.12601,-0.12313 -0.21427,-0.24583 -0.38061,-0.31719c-0.14153,0.18985 -0.35513,0.30937 -0.44182,0.53465c0.10715,0.12294 0.21689,0.1937 0.3858,0.21288c0.15782,-0.1375 0.29765,-0.29258 0.43658,-0.43031zM256.26994,175.71917c-0.10628,-0.14033 -0.19712,-0.21083 -0.3266,-0.26447c-0.13896,0.13773 -0.26081,0.31038 -0.27113,0.51903c0.10802,0.10554 0.21597,0.21104 0.32312,0.334c0.16043,-0.18967 0.18966,-0.39812 0.27461,-0.58859zM265.96431,180.79792c-0.10884,-0.08814 -0.19975,-0.15871 -0.31205,-0.1773c-0.12182,0.17264 -0.2059,0.34578 -0.25313,0.53664c0.0891,0.10534 0.17999,0.17589 0.31031,0.21207c0.14071,-0.1725 0.16992,-0.38095 0.25486,-0.57141zM260.07586,183.44937c0.10281,0.20986 0.25286,0.22886 0.4235,0.21329c0.13204,0.00142 0.26583,-0.03198 0.32933,-0.17049c-0.10628,-0.14033 -0.21339,-0.26323 -0.37885,-0.35199c-0.13723,0.10293 -0.2556,0.20606 -0.37398,0.30918zM265.24213,176.33648c-0.04881,-0.15709 -0.0419,-0.29618 -0.16962,-0.38452c-0.39197,0.2916 -0.3141,0.62299 -0.14358,0.99012c0.10471,-0.20765 0.20855,-0.39795 0.31321,-0.60558zM258.34136,183.03083c0.17325,-0.06773 0.29073,-0.15349 0.41169,-0.30878c-0.12775,-0.08831 -0.13799,-0.26242 -0.28543,-0.33357c-0.11408,0.01617 -0.15522,0.08532 -0.23329,0.13667c-0.07888,0.06873 -0.17497,0.10253 -0.18102,0.22424c0.07028,0.10515 0.14057,0.21029 0.28802,0.28143zM260.58974,178.04419c0.2023,0.10653 0.31724,0.07298 0.34385,-0.08331c0.03011,-0.22583 0.02248,-0.45211 0.01397,-0.66096c0.00348,-0.06953 -0.01112,-0.1567 -0.12255,-0.19268c-0.10986,0.31199 -0.182,0.62435 -0.2353,0.93697zM264.11045,182.77898c0.03253,0.10473 0.10541,0.15771 0.21774,0.17633c0.19644,-0.15448 0.42974,-0.2912 0.55502,-0.53344c-0.22119,-0.10673 -0.39274,-0.07379 -0.5334,0.0987c-0.0789,0.06875 -0.19473,0.11973 -0.23936,0.25843zM263.1262,177.89717c0.26408,0.00282 0.32241,-0.03142 0.3302,-0.18786c-0.00678,-0.24364 -0.01265,-0.50466 -0.09489,-0.7491c-0.16647,0.3114 -0.31321,0.60561 -0.23531,0.93698zM265.84979,179.68328c-0.0258,0.13888 -0.03179,0.26065 -0.05674,0.38212c-0.031,0.24324 -0.03096,0.24323 0.30428,0.33382c0.04379,-0.12136 0.10729,-0.25985 0.12958,-0.32918c-0.14399,-0.14074 -0.25113,-0.26363 -0.37714,-0.38675zM260.97318,173.36829c-0.11752,0.08573 -0.28902,0.11873 -0.29853,0.31c0.10885,0.08815 0.23746,0.15911 0.36432,0.26483c0.13725,-0.10293 0.29248,-0.18823 0.35597,-0.32676c-0.12778,-0.08831 -0.23575,-0.1939 -0.4218,-0.24807zM264.63072,181.04477c-0.10552,0.22504 -0.22998,0.44988 -0.3355,0.67494c0.03343,0.08731 0.08652,0.15748 0.20142,0.12391c0.17755,-0.15467 0.31914,-0.34456 0.38694,-0.57001c-0.07027,-0.10517 -0.14227,-0.17547 -0.2529,-0.22884zM264.1966,174.96839c0.13291,-0.01598 0.23072,-0.08453 0.31133,-0.18806c-0.03427,-0.06998 -0.06855,-0.13991 -0.10284,-0.20987c-0.05224,-0.08754 -0.0857,-0.17488 -0.19715,-0.21084c-0.11319,-0.00122 -0.20921,0.03254 -0.289,0.11872c0.08656,0.15752 0.19112,0.33259 0.27761,0.49008zM260.49765,174.58108c0.13725,-0.10293 0.21874,-0.22387 0.28226,-0.36236c-0.14571,-0.10594 -0.27258,-0.21165 -0.40029,-0.29999c-0.15352,0.05059 -0.23415,0.15411 -0.25821,0.25823c0.12511,0.14051 0.25028,0.28102 0.37626,0.40419zM264.92431,175.51543c-0.0514,-0.10491 -0.1028,-0.20984 -0.17308,-0.31502c-0.01798,-0.01756 -0.05575,-0.01797 -0.09264,-0.03578c-0.07806,0.05135 -0.19295,0.08491 -0.25646,0.22344c0.04971,0.13973 0.0788,0.31399 0.20393,0.45451c0.1552,-0.08535 0.23584,-0.18889 0.31822,-0.32719zM265.84993,177.02145c0.02837,-0.19107 0.23761,-0.22366 0.24624,-0.39752c-0.06854,-0.13988 -0.07959,-0.29661 -0.22362,-0.43731c-0.13636,0.08554 -0.2539,0.17131 -0.20504,0.32837c0.04881,0.15709 0.02218,0.31335 0.18243,0.50646zM265.24089,182.06031c0.0815,-0.1209 0.18186,-0.24166 0.26251,-0.34515c0.01974,-0.01718 0.0026,-0.05217 0.0043,-0.08695c-0.0926,-0.03577 -0.18258,-0.12375 -0.35496,-0.07333c-0.1012,0.1381 -0.20335,0.2936 -0.3243,0.44891c0.12858,0.07095 0.24092,0.08954 0.41244,0.0566zM259.97667,173.67086c-0.108,-0.10555 -0.21514,-0.22846 -0.30514,-0.31639c-0.17237,0.05036 -0.28991,0.13608 -0.38852,0.22204c0.01283,0.12194 0.14399,0.14071 0.21688,0.19368c0.0729,0.05297 0.14487,0.12331 0.2778,0.10733c0.07718,-0.03399 0.15524,-0.08535 0.19903,-0.20667zM256.80417,182.44032c0.08829,0.1227 0.15942,0.21048 0.23054,0.29821c0.01712,0.03499 0.07287,0.05299 0.09088,0.07057c0.13203,0.00141 0.22983,-0.06713 0.31046,-0.17069c-0.08741,-0.1401 -0.15597,-0.28003 -0.28189,-0.40317c-0.11576,0.05097 -0.21357,0.11952 -0.34992,0.20506zM266.35991,179.67132c0.08672,-0.22525 0.17337,-0.45049 0.12889,-0.69454c-0.17236,0.05036 -0.32418,0.06615 -0.42539,0.20424c0.07959,0.29661 0.07962,0.29661 0.29649,0.49029zM258.64989,183.27767c0.30429,0.33382 0.32312,0.33399 0.67135,0.16368c-0.10715,-0.12294 -0.23399,-0.22863 -0.34111,-0.35159c-0.13291,0.01598 -0.23068,0.08452 -0.33021,0.18784zM263.35737,174.38533c-0.0874,-0.1401 -0.17657,-0.24544 -0.32403,-0.31662c-0.03859,0.017 -0.09693,0.05115 -0.15525,0.08533c-0.03947,0.03439 -0.07981,0.08615 -0.11922,0.1205c0.08743,0.14009 0.15513,0.29741 0.30172,0.38597c0.11576,-0.05096 0.2153,-0.15427 0.29677,-0.27521zM255.71291,181.61105c0.0583,-0.03418 0.13636,-0.08557 0.15784,-0.13752c0.06612,-0.19069 0.037,-0.36491 -0.08556,-0.55763c-0.11666,0.06834 -0.26926,0.10151 -0.33106,0.20527c0.0668,0.17468 0.07618,0.36615 0.25878,0.48987zM256.90651,174.68209c-0.01797,-0.01758 -0.03599,-0.03519 -0.07199,-0.07035c-0.25216,0.13652 -0.45031,0.32577 -0.64843,0.51505c0.05054,0.12232 0.12341,0.17526 0.27344,0.19427c0.1424,-0.20724 0.30365,-0.41429 0.44699,-0.63896zM262.08546,177.19021c-0.12614,0.25963 -0.27025,0.50164 -0.26609,0.79745c-0.00088,0.0174 0.07287,0.05293 0.11059,0.05336c0.09431,0.00097 0.17322,-0.06776 0.1775,-0.1547c0.06784,-0.22545 0.04133,-0.45191 -0.02201,-0.69612zM262.76506,173.77009c-0.08912,-0.10535 -0.17828,-0.21069 -0.30686,-0.28165c-0.13204,-0.00142 -0.2281,0.03237 -0.32847,0.15306c0.12687,0.10574 0.25286,0.22888 0.38058,0.31721c0.11487,-0.03356 0.19294,-0.08494 0.25474,-0.18866zM261.5035,183.58634c0.26324,0.02019 0.48873,0.04003 0.72116,-0.07928c-0.04883,-0.15707 -0.17738,-0.22805 -0.32571,-0.28184c-0.1561,0.10274 -0.29248,0.18825 -0.39544,0.36117zM254.73431,180.03485c0.17498,-0.10253 0.19469,-0.11967 0.1973,-0.17188c0.02752,-0.17366 -0.05904,-0.3312 -0.14644,-0.47128c-0.03511,-0.05254 -0.12861,-0.07093 -0.19039,0.03279c0.1054,0.15771 0.0187,0.38297 0.13957,0.6104zM257.65499,174.81185c0.16131,-0.20704 0.34058,-0.39654 0.37409,-0.69194c-0.27012,0.1189 -0.41257,0.32619 -0.55323,0.49865c0.01452,0.08715 0.06941,0.12249 0.17915,0.19325zM257.6477,182.93645c-0.09691,0.05117 -0.19296,0.08494 -0.28987,0.1361c0.08655,0.15753 0.1937,0.28044 0.40379,0.23047c0.05746,-0.01677 0.11488,-0.03358 0.13722,-0.10293c-0.03254,-0.10472 -0.12342,-0.1753 -0.25114,-0.26363zM264.39879,177.73673c0.16978,0.00179 0.24694,-0.03215 0.23499,-0.17145c-0.01281,-0.12194 -0.02564,-0.24385 -0.05733,-0.36598c-0.01629,-0.05233 -0.0514,-0.10494 -0.12773,-0.08835c-0.06695,0.20805 -0.07645,0.39933 -0.04995,0.62578zM257.24764,177.31276c-0.08671,0.22527 -0.13563,0.45092 -0.09029,0.67756c-0.00087,0.01742 0.07287,0.05294 0.09171,0.05315c0.03769,0.00041 0.07806,-0.05135 0.07977,-0.08615c-0.00762,-0.22625 0.04047,-0.43453 -0.08122,-0.64462zM256.31284,177.89434c-0.04795,-0.17449 -0.03844,-0.36579 -0.14209,-0.55826c-0.10554,0.22504 -0.15278,0.41592 -0.10137,0.52085c0.03254,0.10472 0.10799,0.10555 0.24348,0.03738zM263.34367,183.39712c0.22896,-0.04977 0.49309,-0.04697 0.63549,-0.25422c-0.33263,-0.14269 -0.47503,0.06455 -0.63549,0.25422zM263.23676,180.22967c0.0377,0.0004 0.05752,-0.01681 0.09521,-0.01639c-0.01023,-0.17407 0.07298,-0.32977 -0.01356,-0.48727c-0.11232,-0.01861 -0.16978,-0.0018 -0.23069,0.08454c0.05054,0.12232 0.10022,0.26203 0.14906,0.41915zM259.63995,177.40774c-0.06868,0.24284 -0.11591,0.43372 -0.10744,0.64258c-0.00174,0.03477 0.03425,0.06996 0.09086,0.07055c0.01889,0.00019 0.05745,-0.01678 0.07718,-0.03399c0.08671,-0.22526 0.09706,-0.4339 -0.06063,-0.67914zM256.02324,181.82311c-0.1149,0.03358 -0.17322,0.06773 -0.13808,0.12031c0.05054,0.12232 0.11996,0.24484 0.18936,0.36738c0.05311,0.07016 0.1097,0.07077 0.16976,0.0018c-0.04706,-0.19188 -0.09592,-0.34899 -0.22104,-0.48948zM261.78344,173.39431c0.07806,-0.05135 0.15524,-0.08535 0.2333,-0.1367c0.01974,-0.01717 0.02145,-0.05197 0.04293,-0.10393c-0.22634,-0.00243 -0.43125,-0.05677 -0.67997,0.01016c0.12687,0.10574 0.21774,0.17628 0.40379,0.23045zM258.3622,179.95163c0.01022,0.17408 0.02131,0.33081 0.02981,0.53967c0.19728,-0.17192 0.26167,-0.32777 0.25142,-0.50185c-0.09173,-0.05315 -0.14745,-0.07117 -0.28126,-0.03781zM264.30712,179.57991c0.0694,0.12255 0.02217,0.31336 0.22449,0.41992c0.07731,-0.41672 0.08165,-0.50364 -0.01096,-0.53945c-0.09432,-0.00098 -0.15267,0.03318 -0.21357,0.11952zM258.50635,177.43053c-0.23935,0.2584 -0.24967,0.46706 -0.1872,0.7287c0.27446,-0.20588 0.13561,-0.45087 0.1872,-0.7287zM265.42208,176.8951c-0.21961,0.24123 -0.22912,0.43253 -0.20175,0.64159c-0.00087,0.01739 0.036,0.03516 0.07372,0.03558c0.05659,0.00062 0.09605,-0.03378 0.09776,-0.06854c0.02753,-0.17366 0.01729,-0.34773 0.03025,-0.60857zM265.22567,179.32872c0.04881,0.15709 0.05905,0.33119 0.2416,0.45488c0.06524,-0.1733 0.05414,-0.32999 0.04221,-0.46929c-0.11058,-0.05337 -0.18688,-0.03677 -0.28383,0.01439zM265.73541,175.90677c-0.12429,-0.15791 -0.11476,-0.34918 -0.29996,-0.42073c-0.06868,0.24284 -0.06869,0.24283 0.12671,0.48847c0.03859,-0.01699 0.07718,-0.03398 0.17323,-0.06774zM263.63042,182.56507c0.26668,-0.04937 0.40652,-0.20444 0.52834,-0.37713c-0.0514,-0.10491 -0.12688,-0.10575 -0.18603,-0.05419c-0.10119,0.13811 -0.22135,0.27603 -0.34227,0.43131zM263.65157,174.16225c0.11408,-0.01618 0.20924,-0.03257 0.27099,-0.13629c-0.07112,-0.08773 -0.14227,-0.17552 -0.25456,-0.19408c-0.09518,0.01637 -0.1535,0.05058 -0.19471,0.11975c0.03343,0.08732 0.08741,0.1401 0.17829,0.21065zM260.94737,180.3445c0.06351,-0.13849 0.10644,-0.24246 0.07387,-0.34718c-0.01712,-0.03499 -0.05399,-0.05278 -0.09087,-0.07057c-0.05659,-0.00062 -0.1338,0.03336 -0.11753,0.08571c-0.00518,0.10435 -0.01124,0.22606 0.13452,0.33201zM260.51104,173.172c-0.1672,-0.05396 -0.32242,0.03139 -0.47505,0.06457c0.21514,0.22847 0.25288,0.22884 0.47505,-0.06457zM255.25732,177.86568c0.08841,-0.26003 0.08841,-0.26002 -0.07618,-0.36617c-0.04292,0.10394 -0.08668,0.22527 0.07618,0.36617zM262.12135,179.88721c-0.0729,-0.05297 -0.12946,-0.05356 -0.15004,-0.01901c-0.10119,0.13811 -0.08496,0.19048 0.07706,0.34878c0.06265,-0.12109 0.06786,-0.22547 0.07303,-0.32979zM266.20742,177.04265c-0.09863,0.08597 -0.1784,0.17211 -0.14676,0.29418c0.30441,-0.04898 0.32499,-0.0835 0.14676,-0.29418zM254.89143,177.25291c-0.11925,0.12054 -0.14503,0.25941 -0.16992,0.38091c-0.00348,0.06954 0.05055,0.12235 0.1672,0.05397c0.02489,-0.12151 0.0507,-0.26044 0.00275,-0.43491zM265.10383,174.94317c-0.04637,0.17349 0.0059,0.26105 0.15509,0.29742c0,0 0.03859,-0.017 0.03944,-0.03438c0.02403,-0.10415 -0.08563,-0.17488 -0.19453,-0.26308zM259.69034,180.19194c0.1149,-0.03358 0.15612,-0.10275 0.14069,-0.17247c0.00174,-0.03477 -0.03427,-0.06996 -0.07113,-0.08776c-0.03689,-0.01778 -0.09517,0.01637 -0.09689,0.05117c-0.02147,0.05198 -0.02492,0.12151 0.02733,0.20907zM263.00362,173.52908c0.06941,0.12253 0.14226,0.17551 0.29664,0.10753c-0.08743,-0.14009 -0.16113,-0.1757 -0.29664,-0.10753z" fill="#000000"/><path d="M259.15987,186.31023c0.60278,0.02383 1.2056,0.04764 1.80926,0.05404c0.67915,0.00723 1.36168,-0.05512 2.0297,-0.2046c0.21009,-0.04996 0.38418,-0.13507 0.61399,-0.20222c-0.01383,0.27824 -0.00702,0.52183 -0.03801,0.76506c-0.14804,1.45984 -0.20264,2.93805 -0.31381,4.41566c-0.10341,1.32112 -0.18706,2.62506 -0.27159,3.94639c-0.06378,0.904 -0.12674,1.79063 -0.19055,2.6946c-0.0612,0.85185 -0.08381,1.68666 -0.14498,2.5385c-0.00347,0.06956 -0.00693,0.13912 -0.02925,0.20847c-0.2736,0.18849 -0.56089,0.27239 -0.88501,0.33856c-0.51453,0.09892 -1.04619,0.16284 -1.5735,0.13984c-0.16978,-0.00179 -0.3404,0.0138 -0.48699,-0.07477c0.17152,-0.03299 0.35754,0.02116 0.56938,-0.06354c-0.11819,-0.2796 -0.04694,-0.57459 -0.05199,-0.85303c0.00087,-0.01739 0.00173,-0.03476 -0.01712,-0.03497c-0.12756,-0.47108 -0.1025,-0.97537 -0.17265,-1.46327c-0.02908,-0.17427 -0.11477,-0.34917 -0.06842,-0.52264c0.05503,-0.34737 -0.09836,-0.67956 -0.04335,-1.02697c0.00087,-0.01739 -0.01628,-0.05236 -0.01453,-0.08715c-0.04019,-0.33095 -0.10006,-0.64477 -0.10252,-0.97534c0.019,-0.38254 -0.11463,-0.73194 -0.0579,-1.11406c-0.10195,-0.22723 -0.05297,-0.45289 -0.05974,-0.69653c0.00174,-0.03477 0.00258,-0.05218 0.00433,-0.08693c-0.13363,-0.34937 -0.04004,-0.71374 -0.09821,-1.06232c-0.05817,-0.34856 -0.00232,-0.71333 -0.04163,-1.0617c-0.03669,-0.40056 -0.13091,-0.78425 -0.05354,-1.20101c0.00174,-0.03477 0.00434,-0.08696 -0.01281,-0.12193c-0.10372,-0.19247 -0.0367,-0.40054 -0.04518,-0.60939c0.00518,-0.10436 0.03009,-0.22582 -0.00246,-0.33058c-0.06765,-0.1573 -0.04189,-0.2962 -0.03411,-0.45272c0.00433,-0.08695 0.02752,-0.17371 -0.00679,-0.24362c-0.10195,-0.22723 -0.05213,-0.47028 -0.0409,-0.69632c0.00433,-0.08695 0.02748,-0.17367 -0.00676,-0.24364c-0.08478,-0.19227 -0.05647,-0.38335 -0.04693,-0.57463c0.01554,-0.31303 -0.10093,-0.62739 -0.06651,-0.94016c0.02146,-0.05197 -0.03252,-0.10472 -0.04882,-0.15708z" fill="#87d7dc"/><path d="M259.15987,186.31025c0.01626,0.05236 0.07028,0.10513 0.06768,0.1573c-0.0344,0.3128 0.06321,0.62699 0.06653,0.94018c-0.00952,0.19127 -0.03787,0.38237 0.04692,0.57463c0.03427,0.06998 0.01109,0.15671 0.0068,0.24362c-0.0112,0.22605 -0.04222,0.46928 0.04085,0.69635c0.03428,0.06995 -0.00776,0.15652 0.0068,0.24365c-0.00778,0.15648 -0.01469,0.29562 0.03412,0.45271c0.03254,0.10472 0.00763,0.22627 0.00245,0.3306c0.00851,0.20885 -0.05846,0.41692 0.04522,0.60939c0.01712,0.03499 0.01454,0.08715 0.01282,0.12192c-0.07646,0.39934 0.01684,0.8005 0.05357,1.20102c0.03845,0.36579 -0.01742,0.73051 0.04158,1.06171c0.05818,0.34854 -0.03541,0.71292 0.09822,1.0623c0.01798,0.01759 -0.00262,0.05218 -0.00433,0.08697c-0.0112,0.22606 -0.04219,0.46927 0.05977,0.69656c-0.07562,0.38195 0.05804,0.73133 0.05787,1.11407c-0.01642,0.33038 0.06236,0.64436 0.1025,0.97535c-0.00174,0.03477 0.01631,0.0524 0.01456,0.08715c-0.05503,0.34737 0.09836,0.67954 0.04335,1.02695c-0.02836,0.19107 0.05816,0.34858 0.0684,0.52265c0.05127,0.48767 0.04508,0.99216 0.17264,1.46323c-0.00087,0.01739 0.01715,0.03498 0.01715,0.03498c0.00506,0.27843 -0.06626,0.57345 0.05199,0.85305c-0.19295,0.08494 -0.37815,0.01335 -0.56938,0.06351c-0.1509,-0.00159 -0.30181,-0.00325 -0.4287,-0.10899c0.00518,-0.10436 0.0301,-0.22582 -0.00247,-0.33055c-0.11391,-0.36654 -0.07686,-0.73154 -0.09646,-1.09711c-0.01959,-0.36553 -0.1335,-0.73209 -0.0579,-1.11404c-0.10195,-0.22723 -0.05301,-0.45291 -0.05976,-0.69655c0.00174,-0.03477 0.00431,-0.08694 -0.01282,-0.12192c-0.08655,-0.15752 -0.04015,-0.33096 -0.05124,-0.4877c0.00433,-0.08695 0.00861,-0.17389 -0.00678,-0.24363c-0.07532,-0.38356 -0.13093,-0.78426 -0.11104,-1.18423c0.00262,-0.05217 0.02493,-0.12153 -0.0111,-0.15669c-0.08565,-0.17485 -0.05819,-0.34855 -0.04955,-0.52245c0.02836,-0.19107 -0.09506,-0.36639 -0.06579,-0.57482c0.03269,-0.27802 -0.04868,-0.53984 -0.07258,-0.81846c-0.01873,-0.38297 -0.11375,-0.7493 -0.09386,-1.14924c0.00347,-0.06956 0.02665,-0.1563 -0.00851,-0.20887c-0.06852,-0.13992 -0.04192,-0.29617 -0.05298,-0.45286c0.00692,-0.1391 -0.00504,-0.27839 -0.03669,-0.40056c-0.06421,-0.22686 -0.09072,-0.4533 -0.07866,-0.69676c-0.00071,-0.36535 -0.11464,-0.73193 -0.03904,-1.11385c0.00174,-0.03477 -0.01451,-0.08714 -0.0128,-0.12194c-0.03845,-0.36579 -0.09578,-0.7317 -0.09645,-1.09706c0.019,-0.38254 -0.11291,-0.76671 -0.05615,-1.14884c0.00262,-0.05217 -0.03256,-0.10472 -0.04883,-0.15709c-0.02649,-0.22644 -0.03326,-0.4701 0.03457,-0.69553c0.09519,-0.01639 0.17063,-0.01562 0.24695,-0.03216c0.26153,0.05498 0.48614,0.09216 0.73052,0.11216z" fill="#b0eef2"/><path d="M266.70801,177.60471c0.04017,0.33094 0.04606,0.59202 -0.04236,0.85205c-0.15784,0.13751 -0.36792,0.18748 -0.57886,0.25483c-1.05221,0.28457 -2.10357,0.55174 -3.18576,0.67944c-0.81636,0.0957 -1.6516,0.19124 -2.48247,0.19981c-0.22635,-0.00242 -0.47076,-0.0224 -0.69974,0.02733c-0.09519,0.01639 -0.20839,0.01516 -0.32153,0.01397c-0.44931,-0.07437 -0.90375,-0.0444 -1.35566,-0.0666c-0.64054,-0.02419 -1.27762,-0.11795 -1.91294,-0.24649c-0.31722,-0.07296 -0.63535,-0.12854 -0.9723,-0.1843c-0.26235,-0.0376 -0.48354,-0.14432 -0.70561,-0.23367c-0.11649,-0.31442 -0.1293,-0.4363 -0.07084,-0.85323c0.41412,0.02177 0.80511,0.13033 1.21751,0.18692c0.39355,0.05638 0.80596,0.11296 1.2004,0.15195c0.41327,0.03921 0.84632,0.06119 1.26044,0.083c0.3944,0.03899 0.81288,-0.02619 1.20477,0.06499c0.41936,-0.08253 0.83174,-0.02593 1.24765,-0.03892c0.39702,-0.01317 0.81375,-0.04356 1.21166,-0.07412c0.41675,-0.03036 0.83434,-0.07812 1.27084,-0.12565c0.39875,-0.04795 0.81548,-0.07831 1.21511,-0.14368c0.41846,-0.06514 0.8198,-0.16525 1.23916,-0.24778c0.43821,-0.08233 0.83779,-0.14767 1.2606,-0.29975z" fill="#d1eaeb"/><path d="M258.44731,186.21571c-0.07632,0.01658 -0.1518,0.01579 -0.24695,0.03218c-0.06782,0.22546 -0.07905,0.45147 -0.03456,0.69553c0.01626,0.05236 0.0514,0.10494 0.04882,0.15709c-0.05674,0.38214 0.05632,0.76614 0.05616,1.14886c-0.01814,0.36517 0.05803,0.73131 0.09643,1.09707c-0.00174,0.03477 0.01454,0.08715 0.01282,0.12192c-0.07563,0.38195 0.058,0.7313 0.03901,1.11386c-0.0112,0.22605 0.01442,0.46989 0.07867,0.69674c0.0308,0.13947 0.04277,0.27881 0.03671,0.40055c-0.00778,0.15648 -0.03354,0.29539 0.05299,0.45291c0.0351,0.05255 0.01194,0.13932 0.00847,0.20888c-0.019,0.38254 0.0752,0.76627 0.09389,1.14923c0.02389,0.27862 0.10529,0.54043 0.07258,0.81845c-0.02836,0.19107 0.09504,0.36636 0.06579,0.57483c-0.02751,0.17368 -0.05587,0.36475 0.04952,0.52246c0.01626,0.05236 0.01368,0.10452 0.01111,0.15668c-0.01989,0.39992 0.03653,0.78326 0.11104,1.18421c0.01452,0.08714 -0.00862,0.17386 0.00676,0.24359c-0.00778,0.15648 -0.03525,0.33019 0.05128,0.48768c0.01712,0.03499 0.01454,0.08715 0.01281,0.12191c-0.0112,0.22606 -0.04219,0.46929 0.05976,0.69654c-0.07561,0.38194 0.03829,0.74853 0.05789,1.11404c0.01959,0.36553 -0.01829,0.74789 0.09645,1.09706c0.03253,0.10472 0.0076,0.22625 0.00246,0.33058c-0.17066,0.01558 -0.27863,-0.08995 -0.40983,-0.10873c-0.05804,-0.73129 -0.13665,-1.42806 -0.19639,-2.12459c-0.07515,-0.7663 -0.13234,-1.515 -0.18866,-2.28108c-0.05889,-0.71395 -0.13668,-1.42806 -0.21442,-2.14219c-0.08797,-0.88822 -0.1957,-1.75924 -0.28456,-2.63007c-0.06149,-0.66178 -0.12294,-1.32354 -0.20333,-1.98549c-0.09995,-1.02752 -0.12356,-2.07166 -0.26124,-3.09955c-0.01194,-0.1393 -0.06165,-0.279 0.00274,-0.4349c0.16978,0.00179 0.33695,0.05577 0.50504,0.09235c0.0926,0.03576 0.26409,0.0028 0.41072,0.09135z" fill="#87d7dc"/><path d="M260.03485,201.36852c0.39788,-0.03057 0.77346,0.00822 1.17217,-0.03975c0.45621,-0.06473 0.91327,-0.1469 1.3755,-0.33331c-0.05011,1.00853 -0.09935,1.99967 -0.14773,2.97343c-0.217,0.18908 -0.46571,0.256 -0.6964,0.34055c-0.44166,0.15189 -0.87727,0.18204 -1.33174,0.212c-0.0189,-0.0002 -0.0557,-0.01799 -0.07374,-0.03557c0.17497,-0.10251 0.12528,-0.24221 0.09445,-0.38175c-0.07705,-0.34878 -0.13523,-0.69734 -0.09906,-1.04491c0.00347,-0.06956 0.0069,-0.13911 -0.00852,-0.20885c-0.09678,-0.33161 -0.06062,-0.67914 -0.10081,-1.01015c-0.02817,-0.19168 -0.05908,-0.33113 -0.18419,-0.47167z" fill="#61afb4"/><path d="M258.27926,183.90003c0.65505,0.11135 1.31614,0.10099 1.97382,0.16015c0.30094,0.0206 0.60455,-0.01099 0.9081,-0.04254c0.56767,-0.02874 1.15071,0.01224 1.72183,-0.0861c0.22811,-0.03235 0.45621,-0.06472 0.66631,-0.11467c0.1338,-0.03337 0.26668,-0.04938 0.39875,-0.04796c0.0163,0.05234 0.0334,0.08734 0.03166,0.12215c-0.00693,0.1391 -0.0138,0.2782 -0.02071,0.41731c-0.0969,0.05118 -0.17411,0.08511 -0.27014,0.11891c-0.68945,0.20144 -1.39783,0.40271 -2.13358,0.39488c-0.64227,0.01059 -1.30333,0.02095 -1.94217,-0.03802c-0.50764,-0.04018 -1.01609,-0.06299 -1.49792,-0.24208c0.09604,-0.0338 0.20665,0.01959 0.28725,-0.08393c0.04723,-0.19087 0.11506,-0.41633 -0.12326,-0.55804z" fill="#61aeb3"/><path d="M258.6741,185.06987c0.32244,-0.03137 0.61905,0.07618 0.93888,0.09698c0.67828,0.02459 1.35651,0.04924 2.03734,0.02166c0.54878,-0.02895 1.0822,-0.12769 1.59845,-0.26137c0.1338,-0.03337 0.26753,-0.06676 0.40132,-0.10013c-0.01209,0.24345 -0.02243,0.45211 -0.03369,0.67817c-0.23673,0.20625 -0.52406,0.29017 -0.82846,0.33916c-0.36189,0.06577 -0.74261,0.13128 -1.12076,0.14465c-0.85234,0.06049 -1.68067,0.01691 -2.52871,-0.00948c-0.1509,-0.0016 -0.30184,-0.00321 -0.42957,-0.09155c0.00433,-0.08695 0.02747,-0.17369 -0.00678,-0.24363c-0.06681,-0.17469 -0.0376,-0.38317 -0.02809,-0.57441z" fill="#61aeb3"/><path d="M260.03483,201.36852c0.10715,0.12295 0.15681,0.26264 0.16705,0.43673c0.04018,0.33096 0.00401,0.67856 0.1008,1.01013c0.0154,0.06977 0.01197,0.13933 0.0085,0.20889c-0.01813,0.36518 0.04089,0.69632 0.09907,1.04489c0.03167,0.12214 0.08051,0.27922 -0.09447,0.38175c-0.28384,0.01437 -0.5462,-0.02319 -0.78711,-0.11274c-0.04451,-0.24407 -0.10785,-0.4883 -0.05804,-0.73132c0.00174,-0.03477 -0.01452,-0.08713 -0.01281,-0.12192c-0.03932,-0.34835 -0.07777,-0.71414 -0.09822,-1.06231c-0.0111,-0.1567 -0.00415,-0.29581 -0.03411,-0.45271c-0.04705,-0.19188 -0.05559,-0.40075 0.04825,-0.59101c0.09518,-0.01637 0.17063,-0.0156 0.24695,-0.03215c0.13204,0.00142 0.28213,0.0204 0.41413,0.02178z" fill="#87d7dc"/><path d="M259.18967,175.45448c0.2143,0.24584 0.29478,0.52501 0.35642,0.80409c0.01541,0.06976 0.0102,0.17409 -0.0121,0.24345c-0.17596,0.50265 -0.27651,1.00614 -0.35815,1.50978c-0.00087,0.01739 -0.02145,0.05195 -0.04118,0.06917c-0.07806,0.05135 -0.17237,0.05039 -0.26409,-0.00278c0.00174,-0.03477 -0.01544,-0.06977 -0.0137,-0.10454c0.03964,-0.41709 0.02263,-0.83485 -0.08955,-1.23618c-0.04622,-0.20926 -0.03671,-0.40057 0.06798,-0.60821c0.12443,-0.22483 0.19223,-0.45028 0.35439,-0.67477z" fill="#cce5e6"/><path d="M257.92734,178.06806c-0.11576,0.05098 -0.19036,0.03278 -0.24436,-0.01998c0.00377,-0.83505 0.00374,-0.83504 -0.26179,-1.56856c0.05241,-0.29522 0.19915,-0.58938 0.30732,-0.8666c0.13379,-0.03337 0.14743,0.07116 0.18258,0.12373c0.12255,0.19267 0.24596,0.36798 0.32989,0.57765c0.0497,0.13974 0.06246,0.26165 0.01784,0.40031c-0.13479,0.43354 -0.25156,0.8846 -0.33151,1.35347z" fill="#cce5e6"/><path d="M259.60186,201.34652c-0.07633,0.01657 -0.15182,0.01579 -0.24695,0.03216c-0.10383,0.19026 -0.09532,0.39911 -0.04823,0.59102c0.02997,0.15691 0.02305,0.296 0.03411,0.45273c0.02045,0.34818 0.05889,0.71392 0.09821,1.0623c-0.00174,0.03477 0.01454,0.08716 0.01279,0.12193c-0.03181,0.26062 0.03238,0.48747 0.05802,0.7313c-0.14917,-0.03636 -0.27953,-0.07257 -0.42525,-0.17851c-0.03239,-0.48747 -0.10169,-0.99279 -0.11437,-1.49745c-0.03239,-0.48747 -0.14024,-0.97575 -0.11433,-1.49741c0.30094,0.0206 0.52387,0.09254 0.74593,0.18186z" fill="#60adb2"/><path d="M262.48237,179.83886c0.07632,-0.01659 0.13381,-0.03336 0.21011,-0.04996c0.03601,0.03518 0.05398,0.05277 0.07198,0.07034c0.06077,0.29639 0.17901,0.57604 0.31607,0.85583c0.05054,0.12233 0.06423,0.22689 0.00158,0.34798c-0.10643,0.24244 -0.17595,0.50265 -0.43157,0.70871c-0.21511,-0.22847 -0.33336,-0.50808 -0.43271,-0.7875c-0.0163,-0.05234 0.00694,-0.13911 0.02922,-0.20844c0.07211,-0.31236 0.1443,-0.62483 0.23532,-0.937z" fill="#cce5e6"/><path d="M262.96509,175.44239c0.06683,0.17466 0.1182,0.27963 0.16876,0.40196c0.08309,0.22708 0.09159,0.4359 -0.03368,0.67815c-0.19053,0.41549 -0.32527,0.84905 -0.34689,1.28375c-0.00693,0.13911 -0.02665,0.15627 -0.25216,0.13652c0.0026,-0.05217 -0.01372,-0.10453 -0.0111,-0.15672c0.04046,-0.43451 0.00463,-0.85242 -0.08783,-1.27095c-0.01366,-0.10455 -0.02822,-0.19167 0.01379,-0.27823c0.16386,-0.25924 0.29003,-0.51885 0.54912,-0.79444z" fill="#cae2e3"/><path d="M260.15245,178.10914c-0.01797,-0.01758 -0.03517,-0.05259 -0.03428,-0.06996c0.05759,-0.3995 0.00115,-0.78286 -0.075,-1.14906c-0.05818,-0.34854 -0.04177,-0.67898 0.16332,-1.00731c0.10211,-0.15548 0.13043,-0.34655 0.26944,-0.48426c0.2837,0.36835 0.33839,0.7865 0.18734,1.16763c-0.17425,0.46789 -0.36648,0.91817 -0.37268,1.42266c-0.02145,0.05198 -0.02494,0.12152 -0.13811,0.12033z" fill="#c9e1e2"/><path d="M261.64377,175.44575c0.17482,0.28023 0.23819,0.52444 0.30067,0.78606c0.01452,0.08715 0.0102,0.17409 -0.03098,0.24325c-0.19398,0.48509 -0.35106,0.98792 -0.47046,1.49117c-0.00174,0.03477 -0.02316,0.08673 -0.11664,0.06834c0.00606,-0.12171 0.01296,-0.26081 0.00014,-0.38275c-0.00157,-0.34796 -0.02204,-0.69612 -0.11882,-1.02771c-0.0634,-0.24424 -0.03325,-0.47009 0.10917,-0.67734c0.10211,-0.15548 0.2033,-0.29361 0.32688,-0.50107z" fill="#c9e1e2"/><path d="M263.67946,179.67761c0.11754,-0.08572 0.21186,-0.08473 0.30616,-0.08373c0.01798,0.01756 0.03516,0.05257 0.05311,0.07015c0.0239,0.27862 0.12414,0.54066 0.28269,0.76849c0.08739,0.14011 0.09935,0.27942 0.03497,0.43532c-0.08494,0.19046 -0.1519,0.39854 -0.27373,0.57124c-0.19972,-0.1587 -0.43117,-0.43953 -0.46197,-0.57905c-0.03343,-0.08732 0.00775,-0.1565 0.03098,-0.24324c-0.00415,-0.29579 0.08683,-0.60801 0.02782,-0.93915z" fill="#cae3e4"/><path d="M257.17093,180.75667c0.20245,-0.2762 0.34836,-0.553 0.47623,-0.84742c0.11487,-0.03356 0.1904,-0.03277 0.28212,0.02039c0.07877,0.31397 0.02285,0.67874 0.12051,0.99293c-0.10384,0.19027 -0.25992,0.29299 -0.39886,0.43072c-0.07888,0.06873 -0.13979,0.15506 -0.27272,0.17106c-0.13968,-0.22766 -0.10698,-0.50566 -0.20721,-0.76769z" fill="#c8e0e1"/><path d="M260.2298,179.97152c0.1689,0.01918 0.18432,0.08895 0.19973,0.1587c0.06251,0.26166 0.12586,0.50585 0.1695,0.76728c0.01542,0.06976 0.01197,0.13932 -0.02922,0.20849c-0.14155,0.18984 -0.30199,0.37951 -0.48037,0.55162c-0.08911,-0.10533 -0.10281,-0.20988 -0.15421,-0.31482c-0.1542,-0.31479 -0.15841,-0.61058 0.10063,-0.88621c0.12013,-0.13791 0.16649,-0.3114 0.19397,-0.48508z" fill="#cbe4e5"/><path d="M259.04135,179.95888c0.09431,0.00097 0.1509,0.00158 0.2075,0.00218c0.01712,0.03499 0.05398,0.05279 0.05312,0.07016c0.02817,0.19168 0.0376,0.38316 0.06582,0.57483c0.01366,0.10455 -0.00953,0.19128 -0.07044,0.27762c-0.18271,0.25902 -0.38349,0.50045 -0.64081,0.74129c-0.12429,-0.15789 -0.13536,-0.31459 -0.14645,-0.47128c0.00348,-0.06953 0.00695,-0.13911 0.0472,-0.19085c0.25906,-0.27562 0.38954,-0.62218 0.48402,-1.00393z" fill="#c8e0e1"/><path d="M258.6741,185.06985c-0.00952,0.19127 -0.03876,0.39976 0.04609,0.59204c0.03428,0.06995 0.01105,0.15668 0.00675,0.24362c-0.32154,0.01397 -0.62079,-0.04139 -0.8977,-0.16614c0.04983,-0.24304 -0.01353,-0.48726 -0.0409,-0.69632c0.13635,-0.08555 0.26584,-0.03196 0.38072,-0.06555c0.17066,-0.01558 0.35844,0.00382 0.50503,0.09234z" fill="#85d5d9"/><path d="M264.35642,176.3097c-0.10728,0.25983 -0.21454,0.51966 -0.30385,0.79707c-0.06869,0.24284 0.0684,0.52266 -0.22755,0.78046c0.02936,-0.59118 -0.07676,-1.11428 -0.18288,-1.63733c0.10384,-0.19027 0.22738,-0.39773 0.42382,-0.55221c0.03601,0.03518 0.054,0.05278 0.07198,0.07034c0.08567,0.17487 0.15253,0.34958 0.21846,0.54161z" fill="#c6dede"/><path d="M258.94627,175.03434c-0.14675,0.29422 -0.27287,0.5538 -0.41961,0.84803c-0.14571,-0.10594 -0.19542,-0.24566 -0.28455,-0.35097c-0.08829,-0.1227 -0.21515,-0.22848 -0.26395,-0.38555c0.00606,-0.12171 0.08668,-0.22526 0.14843,-0.32897c0.06175,-0.10372 0.14245,-0.20724 0.24193,-0.3106c0.25891,0.10714 0.39944,0.31742 0.57773,0.5281z" fill="#cae3e3"/><path d="M256.71832,178.09001c-0.10614,-0.52306 -0.2166,-0.95919 -0.4411,-1.37908c0.08671,-0.22527 0.15452,-0.45069 0.24208,-0.69333c0.23833,0.14171 0.3223,0.35137 0.4448,0.54402c0.01712,0.03499 0.01452,0.08717 0.01279,0.12193c-0.07819,0.43409 -0.15637,0.86822 -0.2586,1.40644z" fill="#cae3e4"/><path d="M261.33444,181.6708c-0.17482,-0.28021 -0.31279,-0.54264 -0.12571,-0.8886c0.1253,-0.24225 0.15712,-0.50287 0.18893,-0.76349c0.00519,-0.10434 0.10035,-0.12073 0.21184,-0.08476c-0.05153,0.2778 0.02982,0.53966 0.11118,0.80149c0.06596,0.19205 0.02046,0.34817 -0.08164,0.50367c-0.08237,0.1383 -0.12791,0.29441 -0.30461,0.43171z" fill="#c8e0e1"/><path d="M258.27926,183.90001c0.23747,0.1591 0.17047,0.36714 0.14126,0.57562c-0.08063,0.10351 -0.19208,0.06757 -0.28724,0.08395c-0.24436,-0.02 -0.46728,-0.09198 -0.68851,-0.19871c0.02836,-0.19107 -0.03756,-0.38314 0.06538,-0.55603c0.09519,-0.01637 0.1518,-0.01577 0.22723,-0.01499c0.18693,0.03677 0.37383,0.07352 0.54188,0.11013z" fill="#85d4d9"/><path d="M259.48593,181.2684c0.10022,0.26203 0.16446,0.48889 0.24757,0.71594c-0.1793,0.18946 -0.37655,0.36134 -0.59101,0.49823c-0.13034,-0.03617 -0.16285,-0.14092 -0.21599,-0.21104c-0.05313,-0.07015 -0.10627,-0.1403 -0.08134,-0.26182c0.16131,-0.20704 0.38088,-0.44827 0.64081,-0.74129z" fill="#c7dfe0"/><path d="M262.40522,182.15195c-0.14071,0.1725 -0.26253,0.34513 -0.45894,0.49965c-0.21861,-0.1589 -0.30253,-0.36854 -0.42335,-0.596c0.14242,-0.20725 0.28481,-0.41453 0.42813,-0.63919c0.17654,0.24545 0.29738,0.47296 0.45417,0.73554z" fill="#c8e0e1"/><path d="M259.87944,174.4875c0.14399,0.14074 0.28797,0.28143 0.37281,0.47371c-0.1253,0.24225 -0.26943,0.48427 -0.41444,0.74368c-0.03769,-0.00041 -0.07543,-0.00082 -0.07457,-0.0182c-0.10541,-0.1577 -0.20994,-0.33277 -0.2965,-0.49027c-0.03427,-0.06997 -0.04972,-0.13974 -0.00939,-0.19148c0.12356,-0.20746 0.19053,-0.41551 0.42209,-0.51747z" fill="#c4dcdd"/><path d="M262.73891,175.05725c-0.16214,0.22444 -0.30544,0.44908 -0.4676,0.67355c-0.14829,-0.05378 -0.14138,-0.19288 -0.19279,-0.29782c-0.0514,-0.10491 -0.08311,-0.22706 -0.13364,-0.34937c0.1047,-0.20764 0.30029,-0.3447 0.45985,-0.51704c0.20143,0.12391 0.26827,0.29862 0.33419,0.4907z" fill="#c8e0e1"/><path d="M262.93763,182.07063c0.14418,-0.24203 0.2686,-0.46691 0.41361,-0.72631c0.18173,0.14109 0.26653,0.33341 0.42942,0.47433c-0.08758,0.24263 -0.28399,0.39714 -0.44529,0.60416c-0.18346,-0.10632 -0.33004,-0.19487 -0.3977,-0.35217z" fill="#c6ddde"/><path d="M264.86286,179.41185c0.17396,0.29762 0.25189,0.62898 0.48414,0.89243c-0.06694,0.20806 -0.11421,0.39895 -0.25576,0.58881c-0.2203,-0.12413 -0.34461,-0.28204 -0.29391,-0.54245c0.07213,-0.31237 0.04996,-0.62577 0.06551,-0.93879z" fill="#b9cfd0"/><path d="M255.67403,177.83533c-0.11058,-0.05337 -0.04972,-0.13971 -0.06509,-0.20944c-0.02995,-0.15691 -0.04105,-0.31355 -0.14906,-0.41914c-0.1414,-0.19289 -0.11308,-0.38393 -0.06495,-0.59221c0.02321,-0.08676 0.06522,-0.17331 0.10901,-0.29461c0.23576,0.19387 0.41573,0.36979 0.32388,0.69935c-0.06781,0.22546 -0.06106,0.46909 -0.09116,0.69494c-0.00263,0.05216 -0.00519,0.10434 -0.06265,0.12112z" fill="#c0d8d8"/><path d="M256.2825,181.16475c-0.08655,-0.15752 -0.11735,-0.297 -0.11046,-0.4361c0.00348,-0.06953 0.00774,-0.15651 0.04807,-0.20826c0.18103,-0.22425 0.30629,-0.46648 0.43159,-0.70873c0.13203,0.00144 0.10971,0.07075 0.10714,0.12295c-0.00864,0.1739 -0.01814,0.36517 0.01096,0.53945c0.02649,0.22645 -0.03788,0.38235 -0.23257,0.50208c-0.09691,0.05117 -0.1561,0.10274 -0.25471,0.18865z" fill="#c1d9d9"/><path d="M261.03328,182.03297c-0.12266,0.19004 -0.28054,0.32756 -0.44008,0.49984c-0.20232,-0.10653 -0.24936,-0.2984 -0.35482,-0.45611c0.14328,-0.22466 0.35854,-0.37893 0.55672,-0.5682c0.1234,0.1753 0.17137,0.3498 0.23821,0.52449z" fill="#c3dbdc"/><path d="M261.02966,175.64801c-0.10112,-0.24465 -0.18417,-0.47173 -0.28613,-0.69897c0.08321,-0.15573 0.16561,-0.29399 0.34056,-0.39654c0.16288,0.14093 0.24853,0.3158 0.35313,0.4909c-0.08671,0.22526 -0.20936,0.41529 -0.40752,0.60457z" fill="#c3dadb"/><path d="M259.31463,182.81499c0.19644,-0.15448 0.37311,-0.29179 0.54979,-0.42908c0.18259,0.12372 0.26827,0.29861 0.35395,0.47347c-0.13981,0.1551 -0.29676,0.27521 -0.49058,0.3775c-0.05486,-0.0354 -0.12773,-0.08837 -0.16372,-0.12351c-0.08913,-0.10533 -0.14141,-0.19286 -0.24941,-0.29843z" fill="#c4dbdc"/><path d="M255.77201,179.66312c-0.01643,0.33041 -0.0294,0.59125 -0.04317,0.86944c-0.10038,0.12074 -0.2179,0.20646 -0.39023,0.25679c-0.10884,-0.08815 -0.06508,-0.20946 -0.09761,-0.31421c-0.03254,-0.10471 -0.04621,-0.20927 -0.04193,-0.29621c0.1973,-0.17192 0.35513,-0.30941 0.573,-0.51584z" fill="#c2d9da"/><path d="M258.63026,174.17846c0.08237,-0.1383 0.18183,-0.24165 0.29851,-0.30999c0.15177,-0.01577 0.22207,0.0894 0.31377,0.14252c0.09171,0.05313 0.20404,0.07174 0.25457,0.19406c-0.04636,0.17349 -0.18619,0.32857 -0.32773,0.51849c-0.09003,-0.08795 -0.18004,-0.17591 -0.27088,-0.24647c-0.08911,-0.10533 -0.17828,-0.21064 -0.26828,-0.29861z" fill="#c5ddde"/><path d="M261.62977,182.94398c-0.10297,0.1729 -0.25648,0.22347 -0.37483,0.32659c-0.20318,-0.08916 -0.32746,-0.24706 -0.46977,-0.42253c0.13895,-0.13771 0.27794,-0.27542 0.39806,-0.41333c0.2203,0.12414 0.30429,0.3338 0.44654,0.50927z" fill="#c3dbdc"/><path d="M257.12209,176.04141c-0.0729,-0.05297 -0.10887,-0.0881 -0.14488,-0.12326c-0.07112,-0.08773 -0.14142,-0.1929 -0.23055,-0.29823c0.14418,-0.24203 0.2317,-0.48467 0.44872,-0.67374c0.13034,0.03618 0.18261,0.12372 0.252,0.24625c-0.08842,0.26002 -0.19743,0.55462 -0.32527,0.84903z" fill="#c7dfe0"/><path d="M258.31686,182.0041c-0.19554,0.1371 -0.31737,0.30976 -0.5292,0.39449c-0.16459,-0.10616 -0.17396,-0.29759 -0.30082,-0.40333c0.18104,-0.22425 0.37655,-0.36137 0.57385,-0.53324c0.18089,0.15852 0.17135,0.34977 0.2562,0.54205z" fill="#c7dee0"/><path d="M258.17003,184.96011c-0.1149,0.03358 -0.24435,-0.02002 -0.38073,0.06554c0.02649,0.22645 0.07098,0.47048 0.04089,0.69632c-0.07461,-0.01819 -0.16805,-0.03659 -0.24178,-0.07214c-0.11058,-0.05337 -0.1817,-0.14112 -0.17569,-0.26286c-0.00851,-0.20884 -0.01788,-0.4003 -0.02635,-0.6092c0.24524,0.0026 0.35757,0.0212 0.78368,0.18231z" fill="#61acb1"/><path d="M263.95552,175.26156c-0.14071,0.1725 -0.26077,0.31035 -0.42035,0.48265c-0.10196,-0.22725 -0.20476,-0.43709 -0.28787,-0.66414c0.1012,-0.1381 0.20161,-0.25882 0.33883,-0.36176c0.18088,0.15851 0.26654,0.33338 0.36937,0.54323z" fill="#c2dada"/><path d="M256.35778,181.54832c0.14071,-0.1725 0.29679,-0.27522 0.47352,-0.41251c0.06339,0.24424 0.12845,0.45372 0.19353,0.6632c-0.0832,0.15571 -0.21788,0.20646 -0.3731,0.29178c-0.16372,-0.12351 -0.21085,-0.31543 -0.29392,-0.54243z" fill="#c1d9d9"/><path d="M261.75545,174.71623c-0.16114,-0.1757 -0.2674,-0.31601 -0.39254,-0.45654c0.06523,-0.17328 0.2222,-0.2934 0.37918,-0.41351c0.16543,0.08875 0.31117,0.19469 0.41572,0.36978c-0.06695,0.20805 -0.25995,0.29299 -0.40234,0.50027z" fill="#c6dedf"/><path d="M263.03692,182.73279c-0.13981,0.15508 -0.29768,0.29259 -0.43662,0.4303c-0.1689,-0.01918 -0.27863,-0.08994 -0.38579,-0.21289c0.08671,-0.22526 0.30026,-0.34471 0.44182,-0.53462c0.16635,0.07134 0.25457,0.19408 0.3806,0.3172z" fill="#c0d7d7"/><path d="M256.26998,175.71915c-0.08495,0.19046 -0.11421,0.39893 -0.2926,0.57104c-0.10715,-0.12294 -0.21514,-0.2285 -0.32314,-0.33401c0.01039,-0.20863 0.11334,-0.38152 0.27116,-0.51901c0.14831,0.05378 0.2383,0.14171 0.34459,0.282z" fill="#c3dadb"/><path d="M257.75622,183.79008c-0.07547,-0.00081 -0.15179,0.01579 -0.22726,0.01501c-0.10298,0.17291 -0.03704,0.36493 -0.06538,0.55601c-0.13291,0.01598 -0.20319,-0.08916 -0.33437,-0.10794c-0.06422,-0.22685 0.0027,-0.43492 -0.1181,-0.66236c0.1895,-0.01537 0.30007,0.03797 0.42959,0.09155c0.09261,0.03575 0.22638,0.00243 0.31549,0.10774z" fill="#5aa0a4"/><path d="M265.96431,180.79792c-0.08495,0.19045 -0.11423,0.39896 -0.27289,0.55384c-0.13034,-0.03618 -0.20234,-0.10656 -0.31035,-0.21205c0.04723,-0.19089 0.13218,-0.38135 0.25313,-0.53666c0.13034,0.03618 0.2032,0.08916 0.33005,0.19488z" fill="#bdd3d4"/><path d="M260.07586,183.44936c0.13725,-0.10293 0.25563,-0.20603 0.37396,-0.30917c0.16545,0.08877 0.2726,0.21169 0.37887,0.35197c-0.06351,0.13849 -0.19731,0.17192 -0.32932,0.17051c-0.16978,-0.00178 -0.33953,-0.00359 -0.42352,-0.21327z" fill="#bdd4d5"/><path d="M265.24219,176.3365c-0.1047,0.20764 -0.20852,0.39794 -0.31319,0.60558c-0.17051,-0.36714 -0.24837,-0.69854 0.14358,-0.99013c0.10884,0.08815 0.1208,0.22747 0.16961,0.38454z" fill="#bbd2d3"/><path d="M258.34136,183.03081c-0.14744,-0.07116 -0.21773,-0.1763 -0.28797,-0.28145c0.00605,-0.12171 0.10212,-0.1555 0.18103,-0.22424c0.05918,-0.05155 0.11921,-0.1205 0.23327,-0.13667c0.14744,0.07116 0.13883,0.24503 0.28542,0.33357c-0.12095,0.15531 -0.25731,0.24084 -0.41166,0.3088z" fill="#c3dadb"/><path d="M260.58974,178.04419c0.05333,-0.31259 0.10657,-0.62517 0.23531,-0.93697c0.1123,0.01861 0.1269,0.10575 0.12253,0.19268c0.00761,0.22624 -0.00359,0.45225 -0.01396,0.66093c-0.00778,0.15648 -0.1227,0.19009 -0.34386,0.08334z" fill="#b1c6c7"/><path d="M264.11045,182.77898c0.04461,-0.1387 0.16041,-0.18967 0.24019,-0.27581c0.14071,-0.1725 0.31134,-0.18806 0.53342,-0.09871c-0.12529,0.24223 -0.35946,0.39632 -0.55499,0.53343c-0.13119,-0.0188 -0.18607,-0.05418 -0.21861,-0.1589z" fill="#bbd2d3"/><path d="M263.1262,177.89717c-0.05905,-0.33119 0.08769,-0.62535 0.21642,-0.93717c0.10112,0.24465 0.08812,0.50547 0.09491,0.7491c0.0111,0.1567 -0.04724,0.19091 -0.31134,0.18806z" fill="#bad1d2"/><path d="M265.84979,179.68331c0.12513,0.14052 0.252,0.24626 0.37713,0.38674c-0.02319,0.08676 -0.08583,0.20787 -0.1296,0.32918c-0.33525,-0.09055 -0.33438,-0.10794 -0.30429,-0.33381c0.00607,-0.12171 0.03098,-0.24324 0.05674,-0.38214z" fill="#b5cbcc"/><path d="M260.97318,173.36829c0.18603,0.05419 0.29494,0.1423 0.40377,0.23046c-0.06437,0.15591 -0.21876,0.22383 -0.35596,0.32677c-0.12775,-0.08831 -0.23655,-0.17649 -0.3643,-0.26484c0.02663,-0.15628 0.19812,-0.18928 0.31653,-0.29242z" fill="#c0d7d8"/><path d="M264.63072,181.04477c0.11143,0.036 0.18261,0.12371 0.2529,0.22884c-0.06784,0.22544 -0.20936,0.41534 -0.38694,0.57002c-0.13291,0.01598 -0.16804,-0.03659 -0.20143,-0.12391c0.10552,-0.22505 0.2111,-0.45012 0.33553,-0.67495z" fill="#bdd4d4"/><path d="M264.19662,174.96836c-0.10541,-0.1577 -0.19108,-0.33257 -0.29649,-0.49028c0.07979,-0.08613 0.17584,-0.11993 0.289,-0.11874c0.11143,0.03599 0.14487,0.12329 0.19713,0.21083c0.03427,0.06997 0.06855,0.1399 0.10283,0.20986c-0.06178,0.10376 -0.1407,0.1725 -0.2925,0.18829z" fill="#b6cccc"/><path d="M260.49765,174.58108c-0.12512,-0.14052 -0.23227,-0.26343 -0.37629,-0.40417c0.02403,-0.10412 0.08582,-0.20789 0.2582,-0.25824c0.12777,0.08831 0.25458,0.19406 0.40031,0.29999c-0.08237,0.1383 -0.145,0.25944 -0.28226,0.36237z" fill="#c1d9d9"/><path d="M264.92431,175.51542c-0.08237,0.13829 -0.16302,0.24186 -0.29939,0.32736c-0.12513,-0.14052 -0.1542,-0.31484 -0.20389,-0.45452c0.04461,-0.13869 0.15956,-0.17227 0.25646,-0.22344c0.05572,0.01799 0.09345,0.0184 0.09261,0.03575c0.05137,0.10493 0.1028,0.20985 0.15421,0.31483z" fill="#b7cdce"/><path d="M265.84994,177.02146c-0.1414,-0.1929 -0.13363,-0.34937 -0.16359,-0.50627c-0.04797,-0.1745 0.06868,-0.24284 0.20503,-0.32839c0.12513,0.14052 0.15508,0.29741 0.22363,0.43733c-0.04638,0.17348 -0.23761,0.22366 -0.2651,0.39734z" fill="#b6cccc"/><path d="M265.50423,181.69775c-0.10122,0.13811 -0.18185,0.24163 -0.26336,0.36256c-0.17066,0.01558 -0.28385,0.01437 -0.41157,-0.07396c0.12096,-0.15531 0.22307,-0.3108 0.32428,-0.44889c0.17235,-0.05038 0.24261,0.05478 0.35495,0.07334c-0.00174,0.03477 0.01543,0.06978 -0.0043,0.08696z" fill="#c2dada"/><path d="M259.97667,173.67084c-0.06265,0.12109 -0.12182,0.17268 -0.21787,0.20648c-0.11408,0.01618 -0.18604,-0.05417 -0.27779,-0.10733c-0.07289,-0.05296 -0.20405,-0.07174 -0.21687,-0.19367c0.0995,-0.10331 0.217,-0.18906 0.38853,-0.22204c0.12687,0.10574 0.216,0.21107 0.32402,0.31661z" fill="#bbd2d3"/><path d="M256.80417,182.44032c0.13636,-0.08553 0.23416,-0.1541 0.35078,-0.22246c0.12603,0.12313 0.19453,0.26305 0.28197,0.40318c-0.08062,0.10352 -0.17843,0.17212 -0.31047,0.17065c-0.03689,-0.01778 -0.0737,-0.03559 -0.09087,-0.07056c-0.07198,-0.07034 -0.14315,-0.15814 -0.23143,-0.28083z" fill="#bbd2d3"/><path d="M266.35991,179.67132c-0.21688,-0.19369 -0.2169,-0.19368 -0.29649,-0.49027c0.10123,-0.13811 0.25302,-0.15388 0.42539,-0.20422c0.04449,0.24406 -0.06105,0.46909 -0.12888,0.69453z" fill="#adc2c3"/><path d="M258.64997,183.27767c0.08062,-0.10352 0.19732,-0.17188 0.3302,-0.18786c0.12603,0.12313 0.23403,0.22861 0.34111,0.35156c-0.32933,0.1705 -0.34819,0.17031 -0.67135,-0.16368z" fill="#b5cbcc"/><path d="M263.35736,174.38534c-0.10037,0.12074 -0.18017,0.20684 -0.31654,0.29238c-0.14656,-0.08852 -0.1954,-0.24565 -0.30169,-0.38597c0.04032,-0.05177 0.07977,-0.08611 0.11921,-0.12051c0.03947,-0.03439 0.0969,-0.05118 0.15525,-0.08536c0.16719,0.05397 0.25629,0.15929 0.34375,0.29943z" fill="#bbd1d2"/><path d="M255.71291,181.61105c-0.1826,-0.12373 -0.19108,-0.33259 -0.27851,-0.47268c0.08152,-0.1209 0.21443,-0.13694 0.33111,-0.20528c0.12255,0.19265 0.15162,0.36698 0.08552,0.55763c-0.00261,0.05216 -0.07977,0.08613 -0.13808,0.1203z" fill="#b6cccd"/><path d="M256.90651,174.68207c-0.14328,0.22466 -0.30459,0.4317 -0.44698,0.63894c-0.1312,-0.0188 -0.20405,-0.07173 -0.27346,-0.19426c0.19812,-0.18929 0.39628,-0.37853 0.64842,-0.51505c0.03602,0.03518 0.054,0.05278 0.072,0.07033z" fill="#acc1c2"/><path d="M262.08546,177.19021c0.04537,0.22666 0.07186,0.45313 0.02287,0.67875c-0.02321,0.08676 -0.08322,0.15569 -0.17753,0.15469c-0.03768,-0.00041 -0.11145,-0.036 -0.11059,-0.05338c-0.0059,-0.26103 0.1391,-0.52045 0.26524,-0.78007z" fill="#a7bbbb"/><path d="M262.76506,173.77009c-0.04291,0.10395 -0.13982,0.1551 -0.2556,0.20604c-0.12687,-0.10574 -0.25373,-0.21147 -0.3806,-0.3172c0.08237,-0.1383 0.19642,-0.15447 0.32846,-0.15307c0.11058,0.05337 0.21861,0.15888 0.30773,0.26426z" fill="#b7cdcd"/><path d="M261.50351,183.58634c0.10297,-0.17292 0.23935,-0.2584 0.39456,-0.34376c0.14831,0.05378 0.25806,0.12453 0.32573,0.28182c-0.23156,0.10192 -0.45708,0.08212 -0.7203,0.06195z" fill="#b7cece"/><path d="M254.73431,180.03485c-0.12169,-0.21006 -0.03499,-0.4353 -0.1207,-0.61018c0.08063,-0.10351 0.15524,-0.08531 0.19039,-0.03275c0.08741,0.1401 0.1551,0.29743 0.14644,0.47128c-0.02147,0.05198 -0.02234,0.06935 -0.21615,0.17169z" fill="#b4cacb"/><path d="M257.65499,174.81184c-0.11057,-0.05336 -0.16459,-0.10614 -0.19802,-0.19346c0.14071,-0.1725 0.28226,-0.36235 0.55326,-0.49866c0.00415,0.29579 -0.17426,0.46786 -0.35526,0.69213z" fill="#b2c8c9"/><path d="M257.6477,182.93645c0.12776,0.08831 0.2186,0.15889 0.25115,0.26362c-0.02231,0.06935 -0.07978,0.08618 -0.13725,0.10295c-0.2298,0.06715 -0.3181,-0.05561 -0.40376,-0.23047c0.09604,-0.0338 0.19297,-0.08496 0.28987,-0.13611z" fill="#b5cbcb"/><path d="M264.39879,177.73673c-0.00763,-0.22624 0.00185,-0.41749 0.06882,-0.62555c0.09518,-0.01637 0.13032,0.03618 0.12774,0.08833c0.01281,0.12194 0.04451,0.24408 0.05732,0.36598c-0.00693,0.13911 -0.0841,0.17306 -0.25386,0.17122z" fill="#91a3a3"/><path d="M257.24764,177.31277c0.12169,0.21006 0.09158,0.43591 0.0812,0.64458c-0.00174,0.03477 -0.04119,0.06916 -0.07978,0.08613c-0.03769,-0.00041 -0.0926,-0.03575 -0.09174,-0.05316c-0.04449,-0.24406 0.00446,-0.46969 0.0903,-0.67755z" fill="#99abac"/><path d="M256.31286,177.89434c-0.13551,0.06815 -0.22983,0.06713 -0.26324,-0.02021c-0.03167,-0.12214 0.0147,-0.2956 0.10137,-0.52084c0.12345,0.17529 0.11392,0.36653 0.16185,0.54103z" fill="#93a5a6"/><path d="M263.34367,183.39712c0.16043,-0.18965 0.30283,-0.39693 0.63549,-0.25422c-0.16132,0.20703 -0.40652,0.20443 -0.63549,0.25422z" fill="#9aadad"/><path d="M263.23676,180.22962c-0.04969,-0.13973 -0.09849,-0.2968 -0.14903,-0.41915c0.06093,-0.08633 0.11837,-0.10313 0.23069,-0.08452c0.08657,0.15753 0.00248,0.3306 0.01356,0.48729c-0.03769,-0.00041 -0.0566,-0.00061 -0.0952,0.01639z" fill="#c5dddd"/><path d="M259.63996,177.40776c0.15855,0.22784 0.14729,0.45394 0.06062,0.67916c-0.00087,0.01739 -0.03948,0.03439 -0.0772,0.03399c-0.05746,0.01677 -0.0926,-0.03575 -0.09085,-0.07055c-0.0094,-0.19146 0.0576,-0.39955 0.10742,-0.64259z" fill="#aec2c3"/><path d="M256.02324,181.82311c0.12513,0.14052 0.17309,0.31499 0.22189,0.47212c-0.0609,0.08634 -0.13553,0.06814 -0.1698,-0.0018c-0.06941,-0.12254 -0.13965,-0.22767 -0.18932,-0.36737c-0.03602,-0.03518 0.02317,-0.08672 0.13723,-0.10292z" fill="#9caeaf"/><path d="M261.78344,173.39431c-0.1672,-0.05397 -0.27689,-0.12472 -0.40377,-0.23046c0.24869,-0.06694 0.4536,-0.0126 0.67997,-0.01018c-0.02147,0.05199 -0.02321,0.08676 -0.04293,0.1039c-0.07806,0.05135 -0.15522,0.08533 -0.23325,0.13671z" fill="#a9bebf"/><path d="M258.3622,179.95163c0.1338,-0.03337 0.20833,-0.01518 0.28125,0.03783c0.01021,0.17407 -0.05416,0.32996 -0.25144,0.50187c-0.02737,-0.20907 -0.01957,-0.36556 -0.02982,-0.53965z" fill="#b9cfd0"/><path d="M264.30712,179.57989c0.06092,-0.08633 0.13726,-0.10291 0.21356,-0.1195c0.0926,0.03577 0.08829,0.1227 0.01094,0.53944c-0.22119,-0.10673 -0.1551,-0.29742 -0.22449,-0.41994z" fill="#869797"/><path d="M258.50635,177.43053c-0.07042,0.27762 0.08726,0.52287 -0.1872,0.7287c-0.06252,-0.26164 -0.0333,-0.47007 0.1872,-0.7287z" fill="#93a4a5"/><path d="M265.42208,176.8951c-0.01296,0.2608 -0.02162,0.43472 -0.03025,0.6086c-0.00174,0.03477 -0.04118,0.06917 -0.09776,0.06853c-0.01889,-0.00019 -0.05573,-0.018 -0.07374,-0.03559c-0.02739,-0.20905 -0.01788,-0.40038 0.20173,-0.64156z" fill="#94a5a6"/><path d="M265.22567,179.32872c0.11667,-0.06834 0.17407,-0.08515 0.26496,-0.01459c0.01194,0.1393 0.02306,0.29601 -0.04219,0.4693c-0.18258,-0.12376 -0.17392,-0.2976 -0.22276,-0.45467z" fill="#abbfc0"/><path d="M265.73541,175.90677c-0.09604,0.03379 -0.13464,0.05076 -0.1724,0.05036c-0.19542,-0.24565 -0.19539,-0.24562 -0.1267,-0.48845c0.18346,0.10633 0.17484,0.28019 0.29907,0.43808z" fill="#acc0c1"/><path d="M263.63042,182.56507c0.12012,-0.13792 0.22219,-0.2934 0.36114,-0.43111c0.05918,-0.05155 0.13467,-0.05073 0.18604,0.05418c-0.14071,0.1725 -0.28052,0.32757 -0.5472,0.37691z" fill="#9fb2b2"/><path d="M263.65157,174.16225c-0.09089,-0.07058 -0.14486,-0.12335 -0.17827,-0.21066c0.04118,-0.06917 0.0995,-0.10334 0.1947,-0.11973c0.11232,0.01861 0.18345,0.10634 0.25457,0.19408c-0.04291,0.10395 -0.15696,0.12011 -0.27098,0.13628z" fill="#aec2c3"/><path d="M260.94737,180.34447c-0.14656,-0.08852 -0.14055,-0.21028 -0.15336,-0.33218c0.00263,-0.05216 0.06091,-0.08631 0.11751,-0.08573c0.03769,0.00041 0.09262,0.03576 0.09087,0.07055c0.0514,0.10491 0.00849,0.2089 -0.05502,0.34737z" fill="#91a2a3"/><path d="M260.51104,173.172c-0.2222,0.29341 -0.2419,0.31062 -0.47505,0.06457c0.15264,-0.03315 0.28901,-0.11871 0.47505,-0.06457z" fill="#869696"/><path d="M255.25732,177.86568c-0.16287,-0.14093 -0.1011,-0.24462 -0.07618,-0.36617c0.16544,0.08876 0.16544,0.08876 0.07618,0.36617z" fill="#555f5f"/><path d="M262.12136,179.88722c-0.00431,0.08696 -0.01038,0.20864 -0.07301,0.32979c-0.162,-0.15831 -0.15853,-0.22785 -0.07707,-0.34876c0.02059,-0.03458 0.0772,-0.034 0.15005,0.01901z" fill="#93a5a6"/><path d="M266.20742,177.04265c0.17828,0.21066 0.15772,0.24525 -0.14676,0.29418c-0.03167,-0.12215 0.04806,-0.20826 0.14676,-0.29418z" fill="#8b9b9c"/><path d="M254.89143,177.25291c0.04794,0.17449 0.02217,0.31336 -0.00363,0.45231c-0.11576,0.05098 -0.17065,0.01557 -0.16717,-0.05399c0.0069,-0.1391 0.0327,-0.27802 0.17076,-0.39832z" fill="#9aacad"/><path d="M265.10383,174.94317c0.10884,0.08815 0.21946,0.14153 0.19369,0.28043c-0.00088,0.0174 -0.02059,0.03459 -0.03945,0.0344c-0.16806,-0.03659 -0.20061,-0.14133 -0.15422,-0.31481z" fill="#5f6a6b"/><path d="M259.69035,180.19195c-0.05313,-0.07015 -0.0497,-0.13974 -0.02734,-0.20909c0.02059,-0.03458 0.06005,-0.06895 0.09691,-0.05115c0.03688,0.01777 0.07289,0.05296 0.07113,0.08775c-0.00348,0.06953 -0.02579,0.13889 -0.1407,0.17247z" fill="#636e6f"/><path d="M263.00362,173.52908c0.13466,-0.05074 0.22809,-0.03238 0.29664,0.10753c-0.15436,0.06793 -0.22724,0.015 -0.29664,-0.10753z" fill="#4a5354"/></g><g data-paper-data="{&quot;index&quot;:null}" fill="#000000" stroke="#000000" stroke-width="1.2"><path d="M249.59707,199.2113c-0.37762,-1.82745 1.44197,-4.63683 1.84489,-6.89617c0.43379,-2.4325 -0.51765,-4.14529 0.58956,-5.35757c0.77338,-0.84677 2.35998,-0.77407 3.17599,-0.62856c1.98425,0.35383 2.99555,3.98999 2.25878,8.12157c-0.73676,4.13157 -2.9426,7.19405 -4.92683,6.8402c-0.89915,-0.16034 -2.62943,-0.56511 -2.94236,-2.07945z"/><path d="M252.69208,201.95759c-0.50337,-2.55283 1.50809,-8.20717 1.50809,-8.20717c0,0 -0.43531,-3.90401 -0.41862,-3.98896c1.06289,-5.41425 4.5098,-4.8616 8.41697,-4.16484c1.85955,0.33161 4.58455,1.59551 5.29771,3.477c0.8088,2.13384 -0.23772,4.72797 -0.77867,7.76138c-1.01792,5.7081 -4.23672,10.14017 -8.20521,9.43248c-1.74691,-0.31152 -5.14796,-0.90031 -5.82026,-4.30991z"/></g></g><path d="M234.31794,155.38759l9.50026,12.54034" fill="none" fill-rule="nonzero" stroke="#000000" stroke-width="4.5" stroke-linecap="round" stroke-linejoin="miter"/><path d="M246.28827,158.99769l-13.49037,8.93024" fill="none" fill-rule="nonzero" stroke="#000000" stroke-width="4.5" stroke-linecap="round" stroke-linejoin="miter"/><path d="M250.65839,159.3777l6.84019,9.31026" fill="none" fill-rule="nonzero" stroke="#000000" stroke-width="4.5" stroke-linecap="round" stroke-linejoin="miter"/><path d="M258.82861,159.75771l-8.93024,8.17022" fill="none" fill-rule="nonzero" stroke="#000000" stroke-width="4.5" stroke-linecap="round" stroke-linejoin="miter"/><path d="M224.4617,189.63858c-0.98527,-0.43398 -3.92488,-8.00395 -3.81035,-15.02772c0.08878,-5.44535 2.9295,-10.65826 4.12224,-11.35451c0.84126,-0.49108 5.46489,-3.10277 6.87149,-0.48882c1.65594,3.07732 1.9889,9.23263 1.9889,9.23263c0,0 8.1831,-5.51774 10.2126,-3.70647c0.98421,0.8784 -0.79905,7.7752 -5.22158,12.60914c-5.136,5.61378 -13.16995,9.17328 -14.16328,8.73574z" fill="url(#color-3)" fill-rule="nonzero" stroke="#cb0000" stroke-width="4.5" stroke-linecap="butt" stroke-linejoin="miter"/><path d="M247.46597,199.49431c-0.96035,-0.423 -3.82558,-7.80146 -3.71396,-14.64752c0.08653,-5.30758 2.85539,-10.38861 4.01796,-11.06725c0.81997,-0.47865 5.32664,-3.02427 6.69764,-0.47646c1.61405,2.99947 1.93858,8.99906 1.93858,8.99906c0,0 7.97607,-5.37815 9.95423,-3.6127c0.95933,0.85617 -0.77883,7.57849 -5.08947,12.29013c-5.00606,5.47174 -12.83676,8.94121 -13.80498,8.51474z" fill="url(#color-4)" fill-rule="nonzero" stroke="#cb0000" stroke-width="4.5" stroke-linecap="butt" stroke-linejoin="miter"/></g></g></svg>