<svg version="1.1" xmlns="http://www.w3.org/2000/svg" xmlns:xlink="http://www.w3.org/1999/xlink" width="90.35445" height="105.35613" viewBox="0,0,90.35445,105.35613"><defs><linearGradient x1="209.47723" y1="165.03237" x2="188.67686" y2="156.62195" gradientUnits="userSpaceOnUse" id="color-1"><stop offset="0" stop-color="#000000"/><stop offset="1" stop-color="#000000" stop-opacity="0"/></linearGradient></defs><g transform="translate(-187.47178,-139.97837)"><g data-paper-data="{&quot;isPaintingLayer&quot;:true}" stroke-miterlimit="10" stroke-dasharray="" stroke-dashoffset="0" style="mix-blend-mode: normal"><g stroke-linejoin="miter"><path d="M256.17867,179.64306c-5.0422,12.4702 -19.69418,18.30767 -32.72611,13.03832c-13.03191,-5.26933 -19.50888,-19.65007 -14.46667,-32.12027c5.0422,-12.4702 19.69418,-18.30767 32.72611,-13.03832c13.03191,5.26933 19.50888,19.65007 14.46667,32.12027z" fill="none" fill-rule="nonzero" stroke="#000000" stroke-width="4.5" stroke-linecap="butt"/><g stroke-linecap="butt"><g fill-rule="nonzero"><path d="M224.49454,149.8586l0.00758,0.01181" data-paper-data="{&quot;index&quot;:null}" fill="#ffab19" stroke="#000000" stroke-width="5"/><g data-paper-data="{&quot;index&quot;:null}" fill="none" stroke="none" stroke-width="1" font-family="sans-serif" font-weight="normal" font-size="12" text-anchor="start"/></g><path d="M224.49454,149.8586l0.00758,0.01181" data-paper-data="{&quot;index&quot;:null}" fill="#ffab19" fill-rule="nonzero" stroke="#000000" stroke-width="5"/><path d="M231.8539,171.12675" fill="#001026" fill-rule="evenodd" stroke="#000000" stroke-width="5"/><g data-paper-data="{&quot;index&quot;:null}" fill="none" fill-rule="nonzero" stroke="none" stroke-width="1" font-family="sans-serif" font-weight="normal" font-size="12" text-anchor="start"/><g data-paper-data="{&quot;index&quot;:null}" fill="none" fill-rule="nonzero" stroke="none" stroke-width="1" font-family="sans-serif" font-weight="normal" font-size="12" text-anchor="start"/></g><path d="M217.75512,191.31999l-27.21284,-11.25532c0,0 -2.10184,-1.21588 -1.44245,-1.92167c1.512,-1.61841 10.3315,-7.593 10.3315,-7.593l-9.34419,-8.06382c0,0 -1.63528,-1.63612 -1.51932,-2.77495c0.10787,-1.0594 14.17937,-5.46706 14.17937,-5.46706c0,0 -6.31108,-6.4454 -7.64458,-9.12139c-0.52364,-1.0508 13.9834,-3.43711 23.41735,-3.64441c4.6163,-0.10145 11.00834,-0.48055 15.63063,0.60071c7.66408,1.7928 12.36571,6.16589 12.36571,6.16589" fill="none" fill-rule="nonzero" stroke="#000000" stroke-width="3" stroke-linecap="round"/><path d="M188.80892,179.36382c0,0 0.03475,-1.50025 1.89912,-2.83129c2.33519,-1.66717 8.50477,-2.67907 7.85672,-5.48828c-0.83947,-3.63907 -12.70112,-7.94179 -9.81946,-10.92621c2.36618,-2.45055 13.00876,-4.04109 13.78523,-5.96147c0.77478,-1.91613 -3.93131,-2.46279 -5.3286,-5.99521c-1.98725,-5.02385 -0.31809,-4.35496 -0.31809,-4.35496c0,0 13.66707,-2.53401 19.86485,-2.66728c5.8149,-0.12503 16.24646,1.8908 16.24646,1.8908c0,0 -18.99884,7.14623 -23.99215,13.80898c-5.53516,7.38578 3.77339,31.20758 3.77339,31.20758z" data-paper-data="{&quot;index&quot;:null}" fill="url(#color-1)" fill-rule="nonzero" stroke="none" stroke-width="0" stroke-linecap="butt"/></g><path d="M232.08167,195.87191l10.92179,8.354" fill="none" fill-rule="nonzero" stroke="#000000" stroke-width="6" stroke-linecap="round" stroke-linejoin="miter"/><path d="M233.92527,211.62646c0,0 -5.65427,-5.46958 -5.43313,-6.56841c0.40042,-1.98962 4.30585,-9.86507 4.30585,-9.86507c0,0 13.94044,1.9224 16.62426,2.85189c0.44999,0.15584 12.16434,3.566 12.16434,3.566" fill="none" fill-rule="nonzero" stroke="#000000" stroke-width="6" stroke-linecap="round" stroke-linejoin="miter"/><g><g><g stroke="#001026" stroke-width="1.2"><path d="M250.58766,198.97791l14.24604,21.93076c0,0 6.50032,-2.79239 9.52842,3.63246c0.17263,0.36628 0.97268,2.18845 -1.37606,4.01458c-2.24962,1.74905 -7.6037,3.4983 -9.56544,4.12661c-0.91114,0.29182 -2.4857,0.3635 -3.79973,-0.2055c-1.323,-0.57291 -1.95248,-2.05411 -2.35637,-2.86243c-0.16451,-0.32923 -14.97728,-25.27622 -14.97728,-25.27622" fill="#bf0000" fill-rule="evenodd" stroke-linecap="round" stroke-linejoin="round"/><path d="M244.75438,209.65693c-3.10332,-6.58443 1.62114,-9.09007 4.14154,-10.27796c1.09596,-0.51654 0.07904,-2.18247 3.58518,2.42741c0.77219,1.01528 3.49048,5.4095 6.33821,8.88238c1.95002,2.3781 4.27492,4.1761 4.82838,4.74996c1.30768,1.3559 1.83434,2.92502 1.83434,2.92502l-1.44509,-0.60863c0,0 0.97248,0.44148 1.43483,0.76391c1.44034,1.00445 2.53508,1.75872 2.53508,1.75872c0,0 -6.57572,2.77704 -8.04071,6.04854c-1.46499,3.27149 1.67658,6.4764 1.67658,6.4764c0,0 -5.08238,1.63709 -6.76381,-0.77719c-0.41452,-0.59518 -0.63862,-2.87162 -0.63862,-2.87162c0,0 -0.48554,0.37815 -0.72548,-0.05753c-0.12231,-0.22209 -1.08149,-3.94484 -2.81327,-7.80599c-2.27975,-5.08291 -5.50005,-10.68471 -5.94719,-11.63342z" fill="#000000" fill-rule="nonzero" stroke-linecap="butt" stroke-linejoin="miter"/></g><path d="M234.34449,209.09038c-0.10442,-0.18661 1.25821,-0.16439 3.73968,-1.32509c3.2737,-1.53125 8.02914,-4.392 9.32202,-5.28495c3.35267,-2.3156 3.28409,-3.97791 3.56091,-3.48324c1.02437,1.83056 0.72105,6.32298 -3.31095,8.57926c-1.77187,0.99153 -5.16757,3.47593 -7.59858,3.86775c-3.10086,0.49979 -5.13888,-1.32765 -5.71309,-2.35375z" fill="#004fd9" fill-rule="nonzero" stroke="#001026" stroke-width="1.2" stroke-linecap="butt" stroke-linejoin="miter"/><g fill-rule="nonzero" stroke-linecap="butt" stroke-linejoin="miter"><g fill="none" stroke="none" stroke-width="1" font-family="sans-serif" font-weight="normal" font-size="12" text-anchor="start"/><path d="M233.29914,208.08959c0,0 8.34278,-2.70082 11.89699,-4.50042c3.55419,-1.7996 5.87402,-4.49762 5.87402,-4.49762c0,0 0.94614,1.82015 0.25095,4.40049c-0.53812,1.99734 -2.18509,4.61179 -5.22473,6.17125c-2.76919,1.4207 -6.16672,2.3902 -8.30414,1.95979c-3.23969,-0.65239 -4.49309,-3.5335 -4.49309,-3.5335z" fill="#000000" stroke="#001026" stroke-width="1.2"/></g><g stroke="#001026" stroke-width="1.2"><path d="M244.1903,208.45176c0,0 10.506,28.54856 9.99853,28.91418c-1.45633,1.04918 -11.28725,3.10259 -11.28725,3.10259l-8.02341,-29.97404" data-paper-data="{&quot;index&quot;:null}" fill="#ffab19" fill-rule="evenodd" stroke-linecap="round" stroke-linejoin="round"/><path d="M245.30937,207.34655c0,0 2.15464,6.07049 3.46308,9.20611c1.255,3.00752 4.23394,9.23938 4.23394,9.23938c0,0 3.09495,4.06254 2.819,5.58451c-0.1278,0.70493 -1.95535,-2.18952 -1.95535,-2.18952c0,0 2.05695,3.26473 2.24175,3.55073c1.28933,1.99554 1.61741,5.29937 -1.02851,6.95325c-2.90506,1.81585 -7.79772,4.67343 -11.24052,4.30733c-1.46486,-0.15577 -4.01455,-1.49644 -4.72604,-3.92802c-0.80239,-2.74219 0.32796,-6.60148 0.32796,-6.60148l-0.81301,3.99704c0,0 -0.74096,-1.42171 -0.90119,-2.65646c-0.17994,-1.38664 -0.12614,-5.26068 -0.12614,-5.26068l-3.83502,-19.73136" data-paper-data="{&quot;index&quot;:null}" fill="#000000" fill-rule="evenodd" stroke-linecap="round" stroke-linejoin="round"/><path d="M255.43523,234.63427c0.68336,1.55622 0.9425,3.632 0.04731,5.22534c-0.89852,1.59924 -9.24614,5.32208 -11.07075,4.83054c-1.73277,-0.46679 -3.20808,-2.19419 -3.87502,-3.71303c-1.36924,-3.11819 0.85589,-7.06589 4.97,-8.81742c4.11408,-1.75152 8.55922,-0.64361 9.92845,2.4746z" fill="#ff0000" fill-rule="nonzero" stroke-linecap="butt" stroke-linejoin="miter"/></g></g><g fill="#000000" fill-rule="nonzero" stroke="#001026" stroke-width="1.2" stroke-linecap="butt" stroke-linejoin="miter"><path d="M239.62251,217.79738c0,0 -2.40104,1.71479 -3.31597,1.87877c-0.28165,0.05047 -1.35513,-0.45726 -2.1886,-1.28517c-1.04027,-1.03331 -1.86226,-2.53751 -2.10247,-3.75538c-0.61801,-3.13337 1.80259,-8.09988 3.91382,-8.47827c0.91499,-0.164 4.12082,1.02932 4.12519,1.03414"/></g></g><g data-paper-data="{&quot;index&quot;:null}" fill-rule="nonzero" stroke="none" stroke-width="1" stroke-linecap="butt" stroke-linejoin="miter"><path d="M265.79503,187.89785c-0.17213,-0.1238 -0.16879,-0.27202 -0.13394,-0.44523c0.07688,-0.26886 0.20638,-0.51704 0.30088,-0.77899c-0.03168,-0.06854 -0.06333,-0.13709 -0.10199,-0.18965c-0.76655,-1.16139 -0.91555,-2.41637 -0.83995,-3.71388c0.01719,-0.27363 0.01685,-0.55422 0.12885,-0.80924c0.02103,-0.04781 0.03145,-0.11849 0.01031,-0.1642c-0.11615,-0.25132 -0.02516,-0.45855 0.05528,-0.68864c0.06642,-0.19819 0.16797,-0.38258 0.25197,-0.57386c0.04899,-0.11157 0.1331,-0.20937 0.27344,-0.24767c0.14033,-0.03826 0.249,-0.14509 0.35063,-0.23596c0.5222,-0.57976 1.14628,-1.06337 1.85469,-1.45774c0.40333,-0.21524 0.83132,-0.34602 1.27686,-0.46989c1.31212,-0.36258 2.64227,-0.3442 3.97277,-0.04529c0.5968,0.14126 1.17617,0.3691 1.72753,0.6607c0.41789,0.22044 0.75171,0.53867 1.06098,0.86592c0.98401,1.04129 1.49445,2.27016 1.64352,3.61866c0.0319,0.25556 -0.00284,0.52229 -0.0376,0.78902c-0.0173,0.18012 -0.01007,0.35122 0.12348,0.51592c0.12298,0.14184 0.13023,0.31292 0.09536,0.48613c-0.07688,0.26886 -0.18887,0.52392 -0.30088,0.77898c-0.03501,0.07972 -0.09812,0.12969 -0.16125,0.17963c-0.25597,0.16103 -0.41365,0.37944 -0.54317,0.6276c-0.25552,0.53511 -0.67263,0.96926 -1.07216,1.41031c-0.15424,0.16367 -0.32598,0.32045 -0.52585,0.44749c-0.63819,0.42197 -1.27998,0.80519 -2.03775,1.0306c-0.10498,0.23911 -0.23453,0.48727 -0.3465,0.74234c-0.04201,0.09566 -0.091,0.20724 -0.22433,0.22956c-0.11575,0.02922 -0.14023,0.1318 -0.1822,0.22743c-0.2975,0.63074 -0.57747,1.26837 -0.87499,1.89911c-0.64051,1.41185 -1.28793,2.83965 -1.96352,4.2377c-0.66161,1.36616 -1.27047,2.75304 -1.89697,4.133c-0.09798,0.22319 -0.22409,0.41659 -0.32206,0.63977c-0.47592,1.08399 -0.95189,2.16799 -1.44536,3.24508c-0.08398,0.19128 -0.13288,0.39638 -0.3152,0.53028c-0.06313,0.04998 -0.08055,0.13655 -0.11557,0.21626c-0.34992,0.79709 -0.72445,1.60316 -1.07441,2.40023c-0.014,0.03188 -0.03501,0.07969 -0.04899,0.11157c-0.09442,0.26197 -0.27332,0.34116 -0.56811,0.35609c-0.98613,0.04214 -1.88837,-0.20052 -2.70677,-0.72798c-0.20724,-0.1376 -0.40046,-0.30704 -0.56216,-0.50147c-0.123,-0.14186 -0.13725,-0.297 -0.08483,-0.46329c0.15733,-0.49894 0.29705,-1.00479 0.46137,-1.51969c0.11888,-0.36453 0.27985,-0.73118 0.34604,-1.1164c0.14283,-0.8411 0.50334,-1.61534 0.69881,-2.43573c0.11873,-0.45801 0.19538,-0.91395 0.33167,-1.36508c0.15031,-0.48299 0.25851,-0.96389 0.38421,-1.43783c0.23407,-0.86133 0.51024,-1.7248 0.72673,-2.59303c0.25826,-1.15088 0.58674,-2.27423 0.91522,-3.39749c0.10832,-0.38738 0.21658,-0.77469 0.32491,-1.16207c0.18172,-0.60152 0.37047,-1.21891 0.55223,-1.82039c0.10486,-0.33264 0.16763,-0.66315 0.27247,-0.99577c0.09432,-0.35551 0.22728,-0.65834 0.34616,-1.0229zM266.33191,187.84728c0.16868,0.17851 0.35134,0.32514 0.57256,0.43085c0.39349,0.32298 0.85351,0.54129 1.31354,0.75957c0.57594,0.28258 1.1974,0.50829 1.80133,0.72708c0.6917,0.25332 1.40072,0.32654 2.13433,0.39074c0.08423,-0.00427 0.16844,-0.00853 0.29476,-0.01494c0.05601,-0.12751 0.11194,-0.25506 0.16795,-0.38258c0.014,-0.03188 0.01045,-0.07068 0.01389,-0.12539c-0.12288,-0.04834 -0.25279,-0.08073 -0.38969,-0.09718c-0.23169,-0.03502 -0.43178,-0.09506 -0.66343,-0.1301c-0.56867,-0.11149 -1.09199,-0.37332 -1.63965,-0.53264c-0.28791,-0.0945 -0.58978,-0.15721 -0.86368,-0.2836c-0.5935,-0.28948 -1.22195,-0.49926 -1.78741,-0.85249c-0.14402,-0.09403 -0.30558,-0.19492 -0.4496,-0.28898c-0.02823,-0.12329 -0.18269,-0.1466 -0.25648,-0.21303c-0.08433,-0.08926 -0.1687,-0.17851 -0.3688,-0.23849c0.0319,0.25556 -0.11175,0.4421 -0.12552,0.66099c0.08078,0.05048 0.10902,0.1737 0.24592,0.19018zM266.79618,188.66543c-0.3408,-0.3023 -0.43914,-0.35962 -0.68138,-0.41752c-0.06642,0.19819 -0.12585,0.38047 -0.1923,0.57867c-0.04899,0.11157 -0.01381,0.21891 0.07057,0.30818c0.05626,0.05953 0.144,0.09402 0.20024,0.15353c0.21434,0.21519 0.49183,0.38035 0.77972,0.47489c0.08793,0.12801 0.22832,0.18328 0.36881,0.23853c0.78303,0.32665 1.54156,0.66231 2.35957,0.90927c0.36514,0.10622 0.73728,0.19651 1.09882,0.2639c0.29139,0.03982 0.60026,0.08651 0.89493,-0.02194c0.09098,-0.20726 0.18193,-0.41447 0.27295,-0.62172c-0.15443,-0.02337 -0.29137,-0.03983 -0.41065,-0.04938c-0.54757,-0.06582 -1.08114,-0.16348 -1.58673,-0.32493c-0.65301,-0.20075 -1.27106,-0.4812 -1.8961,-0.74569c-0.29848,-0.11739 -0.53739,-0.32348 -0.84284,-0.42493c-0.10902,-0.17371 -0.27758,-0.25871 -0.43558,-0.32086zM261.18327,207.26402c0.2038,0.19231 0.44257,0.30493 0.69535,0.38564c0.01054,0.02283 0.03869,0.0526 0.05626,0.05951c0.42836,0.14977 0.87069,0.26767 1.31994,0.27609c0.26327,0.01006 0.51947,0.03605 0.772,-0.07026c0.39195,-0.89272 0.78386,-1.7854 1.19686,-2.72593c-0.49832,0.00962 -0.95475,-0.07635 -1.40403,-0.1783c-0.39671,-0.08123 -0.72681,-0.26715 -1.10951,-0.38026c-0.14045,-0.05522 -0.25636,-0.11949 -0.39683,-0.17472c-0.17566,-0.16255 -0.38291,-0.30014 -0.63924,-0.41965c-0.20997,0.47825 -0.26548,0.97984 -0.42635,1.44c-0.15031,0.483 -0.28305,0.97294 -0.42634,1.43999c0.10901,0.17371 0.23546,0.26087 0.36194,0.34796zM262.15114,203.88728c0.08794,0.12801 0.22136,0.19923 0.3618,0.25443c0.11244,0.11903 0.27748,0.16523 0.42846,0.2433c0.48461,0.20926 1.00417,0.33884 1.52017,0.42961c0.30888,0.04671 0.6318,0.06151 0.94756,-0.00123c0.02802,-0.06376 0.07355,-0.12062 0.10152,-0.1844c0.343,-0.78114 0.67892,-1.54626 1.03941,-2.3205c0.3815,-0.82202 0.756,-1.62813 1.13751,-2.45016c0.54947,-1.20465 1.10954,-2.38638 1.659,-3.59103c0.63003,-1.34118 1.20038,-2.68715 1.86554,-4.01451c0.11555,-0.21625 0.20292,-0.4623 0.30795,-0.70141c-0.22109,-0.01218 -0.43864,0.01443 -0.64577,-0.02965c-0.67747,-0.09817 -1.33049,-0.29894 -1.96953,-0.53153c-0.56179,-0.22094 -1.1166,-0.45783 -1.67142,-0.69474c-0.21425,-0.12165 -0.4179,-0.22043 -0.63214,-0.34208c-0.09843,-0.15088 -0.27047,-0.18114 -0.39693,-0.26825c-0.14402,-0.09403 -0.25646,-0.21303 -0.43903,-0.26612c-0.1051,0.1456 -0.12599,0.28697 -0.15742,0.40543c-0.21982,1.0165 -0.5871,1.99367 -0.85959,2.98943c-0.17817,0.64031 -0.35638,1.28059 -0.51695,1.92777c-0.23407,0.86133 -0.44356,1.7136 -0.6706,2.55899c-0.18159,0.695 -0.36324,1.39003 -0.56243,2.07814c-0.20264,0.74283 -0.41582,1.46281 -0.63599,2.19877c-0.19218,0.67216 -0.39133,1.36028 -0.57295,2.05529c0.15098,0.07806 0.21435,0.21516 0.36179,0.25445zM277.39363,184.83226c-0.4492,-0.00844 -0.84593,-0.08967 -1.24959,-0.15495c-0.42125,-0.07219 -0.83191,-0.12151 -1.24614,-0.20967c-0.3967,-0.08124 -0.79694,-0.20127 -1.18662,-0.29846c-0.40727,-0.1041 -0.8145,-0.20815 -1.23228,-0.33505c-0.38266,-0.11312 -0.77591,-0.24911 -1.15861,-0.36222c-0.39322,-0.13596 -0.75849,-0.33567 -1.17973,-0.40787c-0.32667,-0.24061 -0.74092,-0.32878 -1.10264,-0.4897c-0.37221,-0.18379 -0.77606,-0.34258 -1.14829,-0.52636c-0.35467,-0.17688 -0.71992,-0.37663 -1.06761,-0.56943c-0.36525,-0.19975 -0.68493,-0.45634 -1.07116,-0.6082c-0.2031,0.36878 -0.25209,0.48034 -0.23762,0.82253c0.17566,0.16255 0.35136,0.32514 0.57614,0.46959c0.27747,0.16521 0.5549,0.33041 0.84294,0.51847c0.54791,0.34635 1.08532,0.66982 1.69978,0.9115c0.42137,0.16571 0.84973,0.31548 1.24308,0.54498c0.08078,0.05048 0.18612,0.09188 0.30543,0.10143c0.23167,0.03501 0.45291,0.14075 0.66358,0.22357c0.77249,0.30381 1.58697,0.51198 2.39091,0.69726c1.05674,0.26604 2.12732,0.40667 3.21891,0.49944c0.21411,0.02811 0.42822,0.05625 0.63163,-0.032c0.14011,-0.2253 0.22755,-0.47135 0.30786,-0.7949zM271.13373,180.14591c-0.23143,0.15202 -0.39266,0.33164 -0.57141,0.50434c-0.16478,0.14081 -0.26632,0.32521 -0.28008,0.54413c-0.05565,0.40806 -0.17093,0.81139 -0.35649,1.18706c-0.014,0.03188 -0.01747,0.0866 -0.02445,0.10253c0.06678,0.08232 0.13702,0.10993 0.24581,0.09667c0.02454,-0.00901 0.05612,-0.03402 0.06311,-0.04998c0.25565,-0.4416 0.5464,-0.86933 0.87228,-1.28331c0.04557,-0.05684 0.1051,-0.1456 0.09798,-0.22319c0.04177,-0.28268 0.08351,-0.56534 -0.04675,-0.8783zM269.02349,182.13868c0.24163,-0.4097 0.5114,-0.78963 0.79174,-1.14672c0.09107,-0.11371 0.12254,-0.2322 0.12585,-0.38045c-0.00381,-0.2258 -0.05671,-0.43357 -0.1026,-0.65727c-0.00712,-0.07758 -0.00723,-0.17106 -0.12658,-0.18062c-0.20678,0.23648 -0.4241,0.45013 -0.59576,0.70039c0.00451,0.78691 0.0045,0.78688 -0.31388,1.55895c0.03166,0.06855 0.09492,0.1121 0.22123,0.10571zM272.64943,185.41534c-0.19622,0.25932 -0.37488,0.52558 -0.55353,0.79181c-0.04557,0.05685 -0.0911,0.11371 -0.10154,0.18437c0.01089,0.30337 0.0043,0.59988 0.12396,0.88998c0.29466,-0.10843 0.4523,-0.32684 0.65564,-0.5086c0.10165,-0.09085 0.12608,-0.19342 0.12241,-0.32573c-0.02846,-0.31028 -0.02182,-0.60681 0.00941,-0.91227c0.00701,-0.01595 -0.02107,-0.04569 -0.04221,-0.09136c-0.05966,-0.00477 -0.13694,-0.01646 -0.21413,-0.02812zM274.66591,181.47892c-0.34022,0.1653 -0.55055,0.36301 -0.77841,0.55379c-0.07713,0.08184 -0.09454,0.16843 -0.11198,0.25504c-0.06261,0.42401 -0.17798,0.82734 -0.37049,1.21895c-0.02101,0.04781 -0.02446,0.10253 -0.04543,0.15036c0.18613,0.09189 0.22823,0.08976 0.28422,-0.03777c0.18198,-0.41451 0.44476,-0.77849 0.78127,-1.07609c0.20333,-0.18174 0.26977,-0.37995 0.27299,-0.62173c-0.02123,-0.13923 -0.03188,-0.25558 -0.03213,-0.4426zM271.08813,182.96935c0.08778,0.03449 0.13333,-0.02239 0.16134,-0.08615c0.19598,-0.44633 0.52537,-0.82152 0.85484,-1.1967c0.2593,-0.30927 0.35007,-0.70354 0.2407,-1.1578c-0.18588,0.09514 -0.27345,0.24766 -0.42421,0.3566c-0.30854,0.23384 -0.44151,0.53672 -0.51128,0.88316c-0.08375,0.37832 -0.14998,0.76358 -0.33904,1.10047c-0.00341,0.05471 0.0071,0.0776 0.01768,0.10044zM273.43006,181.01158c-0.18933,0.14986 -0.33313,0.24285 -0.45932,0.34277c-0.21386,0.15893 -0.31542,0.3433 -0.3432,0.59408c-0.02764,0.34431 -0.1325,0.67695 -0.25491,1.00265c-0.03145,0.1185 -0.08743,0.24602 -0.13642,0.35759c0.08078,0.05048 0.11932,0.00957 0.13332,-0.02232c0.29073,-0.42779 0.59905,-0.84862 0.97061,-1.22593c0.05255,-0.0728 0.09809,-0.12966 0.11553,-0.21627c0.01021,-0.2577 0.03798,-0.50849 -0.0256,-0.83257zM273.82546,185.69095c-0.06275,0.33051 -0.24141,0.59672 -0.40251,0.86987c-0.03499,0.0797 -0.11567,0.12275 -0.11555,0.21625c-0.00332,0.14828 0.09537,0.48617 0.2255,0.7056c0.19292,-0.11108 0.31199,-0.28856 0.45924,-0.43631c0.11567,-0.12277 0.1541,-0.25719 0.1223,-0.41923c-0.04244,-0.27839 -0.04981,-0.54302 0.00951,-0.8188c0.00703,-0.01594 -0.01413,-0.06162 -0.02468,-0.08445c-0.06324,-0.04357 -0.13345,-0.0712 -0.27379,-0.03289zM267.35928,184.38169c0.00738,0.2646 -0.12921,0.5287 -0.06218,0.79808c0.12989,0.03239 0.21757,-0.02659 0.31579,-0.06275c0.1789,-0.07922 0.36131,-0.1196 0.52609,-0.26043c0.02067,-0.32837 0.19572,-0.63339 0.24093,-0.97079c-0.06678,-0.08232 -0.15454,-0.11688 -0.25635,-0.1195c-0.22432,0.22959 -0.47677,0.42942 -0.7643,0.61542zM270.49726,184.73723c-0.1051,0.1456 -0.2102,0.29119 -0.34698,0.36825c-0.32966,0.18812 -0.43107,0.46607 -0.4096,0.79229c0.01065,0.11634 -0.03135,0.21201 0.03199,0.34911c0.24557,-0.09039 0.44547,-0.21739 0.64531,-0.34445c0.05612,-0.03402 0.08409,-0.09778 0.10153,-0.18437c0.03474,-0.26675 0.08007,-0.51063 0.11483,-0.77735c0.02103,-0.04781 0.01388,-0.12541 -0.13714,-0.20349zM269.39117,184.30225c-0.2242,0.32309 -0.46953,0.60047 -0.80975,0.76578c-0.07365,0.02712 -0.0841,0.09778 -0.11209,0.16154c-0.04543,0.15038 -0.07333,0.30769 -0.03096,0.49255c0.3438,-0.12651 0.59979,-0.28758 0.86277,-0.46455c0.08766,-0.05899 0.14023,-0.13177 0.16465,-0.23433c0.04193,-0.18915 0.10131,-0.37144 0.14318,-0.5606c0.00703,-0.01594 -0.01413,-0.06164 -0.02469,-0.08447c-0.05266,-0.02072 -0.10534,-0.04144 -0.1931,-0.07592zM275.65729,182.78479c-0.00025,-0.18702 0.00656,-0.39 0.00633,-0.57705c-0.01054,-0.02283 -0.02111,-0.04571 -0.04222,-0.09137c-0.25612,0.0675 -0.44547,0.21739 -0.59268,0.36509c-0.09407,0.54253 -0.17414,1.05313 -0.41211,1.59514c0.35778,-0.1584 0.34683,-0.46178 0.4905,-0.6483c0.16465,-0.23433 0.3574,-0.43893 0.55016,-0.64353zM271.05587,179.66661c-0.09157,-0.26033 -0.14807,-0.50688 -0.34484,-0.71513c-0.11922,0.08394 -0.242,0.12915 -0.33665,0.20413c-0.09465,0.07495 -0.20686,0.14296 -0.25584,0.25456c-0.0103,0.16416 0.07058,0.30816 0.10938,0.45426c0.03881,0.14609 0.03546,0.29436 0.14091,0.42929c0.23487,-0.20676 0.44521,-0.4044 0.6871,-0.62708zM267.88587,181.7287c0.28019,-0.4506 0.50781,-0.82845 0.73547,-1.20623c0.014,-0.03188 0.05259,-0.0728 0.03145,-0.11849c-0.04591,-0.22367 -0.04271,-0.46544 -0.22193,-0.66678c-0.16823,0.19555 -0.32943,0.37519 -0.47309,0.56173c0.06725,0.45641 0.01517,0.90324 -0.07189,1.42982zM270.92441,186.71851c0.20702,-0.04945 0.3121,-0.19505 0.43833,-0.29495c0.15078,-0.10895 0.24888,-0.2386 0.25563,-0.44156c0.0172,-0.27363 0.03441,-0.54729 0.1815,-0.78856c-0.10892,-0.08023 -0.18613,-0.09189 -0.22812,0.00375c-0.12251,0.2322 -0.25209,0.48036 -0.44841,0.64616c-0.27344,0.24766 -0.238,0.54204 -0.19894,0.87517zM269.34033,185.68424c-0.34721,0.18124 -0.63132,0.31254 -0.89785,0.4507c-0.04899,0.11157 -0.02434,0.19608 -0.0172,0.27362c0.02468,0.08447 0.0178,0.19389 0.12666,0.27411c0.24914,-0.05158 0.49466,-0.14194 0.72967,-0.25511c0.03831,-0.22792 0.05207,-0.44685 0.05873,-0.74334zM271.75369,187.54937c-0.053,-0.30124 -0.10251,-0.56372 -0.14494,-0.84211c-0.21388,0.15891 -0.42079,0.3019 -0.62766,0.44483c0.0319,0.25556 0.03568,0.4814 0.1834,0.70767c0.22098,-0.08131 0.39632,-0.19932 0.58921,-0.31039zM272.12259,179.48789c-0.25266,0.01278 -0.39633,0.19931 -0.57166,0.31728c-0.05612,0.03402 -0.07356,0.12061 -0.05943,0.18226c0.03534,0.20085 0.06013,0.37883 0.10244,0.56372c-0.00701,0.01595 0.02814,0.02975 0.06325,0.04358c0.22091,-0.17483 0.43116,-0.37255 0.65207,-0.54739c-0.01777,-0.19391 -0.10224,-0.37669 -0.18671,-0.55946zM274.59175,181.03848c0.00674,-0.20296 0.00654,-0.38998 -0.13756,-0.57755c-0.20346,0.08826 -0.442,0.16266 -0.61379,0.31944c0.00366,0.13229 -0.02776,0.2508 0.00047,0.37404c0.01064,0.11634 -0.06291,0.23698 0.07413,0.34693c0.23143,-0.15199 0.46285,-0.304 0.67679,-0.46292zM272.28017,187.66297c0.00724,0.17108 0.13026,0.31293 0.24625,0.47071c0.22447,-0.13603 0.46299,-0.21049 0.63123,-0.40602c-0.08447,-0.18277 -0.09526,-0.39263 -0.23239,-0.59612c-0.22091,0.17483 -0.42422,0.35657 -0.64508,0.53143zM275.02592,185.86399c-0.14355,0.28004 -0.22381,0.60365 -0.40252,0.86987c-0.14009,0.22532 -0.07315,0.40114 0.0815,0.61154c0.19986,-0.12701 0.31199,-0.28855 0.44862,-0.45914c-0.11626,-0.34479 -0.07108,-0.68224 -0.12765,-1.02226zM267.00072,181.11887c0.07723,0.01169 0.0982,-0.03615 0.11923,-0.08394c0.10854,-0.20031 0.20653,-0.42351 0.33264,-0.61693c0.20319,-0.27527 0.09761,-0.50373 -0.05363,-0.76885c-0.08412,0.0978 -0.15419,0.16367 -0.20674,0.23647c-0.13664,0.17059 -0.2312,0.33901 -0.15019,0.57653c0.03881,0.14609 0.01089,0.3034 -0.00994,0.44475c-0.04557,0.05685 -0.11564,0.12276 -0.03134,0.21199zM266.38373,184.4467c0.11575,-0.02922 0.19645,-0.07229 0.27011,-0.0994c0.23154,-0.05846 0.34724,-0.18125 0.3961,-0.38635c0.0349,-0.1732 0.12945,-0.34167 0.18186,-0.50798c0.02103,-0.04782 0.05956,-0.08874 -0.05634,-0.15303c-0.1858,0.18864 -0.40667,0.36354 -0.65566,0.50861c-0.05612,0.03402 -0.09109,0.11369 -0.1191,0.17745c-0.02089,0.14131 -0.03477,0.26676 -0.01697,0.46066zM270.51403,186.94965c-0.00023,-0.18702 0.02409,-0.38308 -0.03584,-0.57491c-0.25256,0.10633 -0.50865,0.17383 -0.72254,0.33273c0.03536,0.20084 0.01802,0.38095 0.16915,0.55256c0.20346,-0.08825 0.41748,-0.1536 0.58921,-0.3104zM272.78419,180.98188c0.25254,-0.10633 0.44187,-0.25619 0.59605,-0.41986c-0.03534,-0.20084 -0.06015,-0.37881 -0.15516,-0.58444c-0.18247,0.04042 -0.32623,0.13343 -0.45943,0.24928c0.01435,0.24865 0.01115,0.49042 0.01848,0.75502zM268.62958,187.06846c0.05635,0.15304 0.07401,0.25341 0.13383,0.3517c0.03168,0.06854 0.07033,0.12113 0.10904,0.17373c0.21054,-0.01066 0.41757,-0.0601 0.59289,-0.17809c-0.01777,-0.19391 -0.0356,-0.38783 -0.16218,-0.56849c-0.22098,0.08131 -0.428,0.13079 -0.67355,0.22114zM266.4414,182.86171c-0.27712,0.11537 -0.47353,0.18763 -0.70154,0.2849c-0.04557,0.05684 -0.077,0.17532 -0.06631,0.29171c-0.00687,0.10944 -0.09098,0.20724 -0.02064,0.32838c0.17901,0.01432 0.31934,-0.02398 0.45612,-0.10103c0.09443,-0.26198 0.19945,-0.50109 0.33241,-0.80394zM271.06531,178.75427c0.05282,0.11425 0.10558,0.22849 0.15833,0.3427c0.05282,0.11425 0.11261,0.21251 0.16537,0.32673c0.19986,-0.12699 0.37878,-0.20621 0.49088,-0.36774c-0.01067,-0.11634 -0.10201,-0.18966 -0.16876,-0.27202c-0.06678,-0.08232 -0.11261,-0.2125 -0.24245,-0.2449c-0.15437,0.07019 -0.29467,0.10843 -0.40333,0.21526zM270.74705,188.01339c-0.07047,-0.21463 -0.07424,-0.44049 -0.22898,-0.65087c-0.17887,0.07922 -0.34022,0.16531 -0.51912,0.2445c0.07047,0.21464 0.1128,0.39955 0.2885,0.56211c0.15789,-0.03138 0.30179,-0.03086 0.45957,-0.15575zM268.99265,179.95814c0.23133,-0.2455 0.43109,-0.46603 0.63083,-0.68654c-0.02823,-0.12329 -0.03887,-0.23965 -0.14779,-0.31985c-0.27013,0.09941 -0.45587,0.28804 -0.65919,0.4698c0.02823,0.12329 0.05644,0.24653 0.10923,0.36075c-0.01046,0.07068 0.01767,0.10041 0.06688,0.17584zM267.98602,185.95545c-0.02837,-0.21679 0.05564,-0.40809 -0.02884,-0.59086c-0.2631,0.08347 -0.50166,0.15789 -0.72613,0.29397c0.07392,0.15994 0.0039,0.31931 0.13747,0.48403c0.21053,-0.01066 0.37891,-0.11273 0.61747,-0.18713zM275.51468,181.04625c-0.16489,0.04732 -0.3192,0.11749 -0.44543,0.21742c0.02137,0.23273 0.02514,0.45854 0.03251,0.72313c0.1823,-0.13392 0.34365,-0.22002 0.55411,-0.32418c-0.02136,-0.23273 -0.03213,-0.44261 -0.14117,-0.61635zM266.31754,184.83196c-0.02078,0.23487 -0.04507,0.43093 0.07448,0.62751c0.17545,-0.02449 0.32632,-0.03987 0.45257,-0.1398c0.01378,-0.2189 0.04507,-0.43089 0.05527,-0.6886c-0.20702,0.04945 -0.39644,0.10582 -0.58232,0.20094zM273.79419,180.36967c0.20687,-0.14296 0.44203,-0.16269 0.55413,-0.32424c-0.03534,-0.20084 -0.1338,-0.35172 -0.25684,-0.49357c-0.18944,0.05636 -0.3719,0.09674 -0.50156,0.25137c0.06689,0.17585 0.11628,0.34481 0.20427,0.56636zM272.13717,188.31708c-0.07391,-0.15993 -0.11269,-0.30602 -0.24272,-0.43194c-0.19986,0.12701 -0.44201,0.16265 -0.60323,0.34228c0.05634,0.15304 0.13369,0.25822 0.28472,0.33631c0.19644,-0.07229 0.38232,-0.16741 0.5612,-0.24665zM268.31108,179.35356c-0.04935,-0.16897 -0.10913,-0.26719 -0.21102,-0.36342c-0.1789,0.07922 -0.35423,0.19717 -0.43818,0.38847c0.06335,0.13709 0.12668,0.2741 0.18303,0.42717c0.21745,-0.1201 0.31897,-0.30449 0.46619,-0.45224zM275.56163,187.5514c-0.07032,-0.12112 -0.13014,-0.21944 -0.22845,-0.27679c-0.1753,0.11795 -0.31552,0.2498 -0.42764,0.41134c0.04575,0.13016 0.10557,0.22844 0.21447,0.30867c0.19292,-0.11108 0.29442,-0.29547 0.44163,-0.44321zM269.11502,187.93233c0.02135,0.23271 0.15479,0.30389 0.3198,0.3501c0.12288,0.04835 0.25979,0.06479 0.36845,-0.04204c-0.04935,-0.16897 -0.10566,-0.32197 -0.22868,-0.46383c-0.16489,0.04732 -0.31221,0.10153 -0.45956,0.15574zM276.47539,183.12522c0.01031,-0.16417 0.0663,-0.29168 -0.02159,-0.41972c-0.4701,0.13292 -0.51534,0.4703 -0.48672,0.8741c0.17178,-0.15676 0.33657,-0.29761 0.50832,-0.45436zM267.64324,186.92359c0.18601,-0.0016 0.32633,-0.0399 0.49467,-0.14194c-0.08793,-0.12801 -0.03549,-0.29436 -0.14794,-0.41334c-0.11236,-0.02551 -0.17544,0.02445 -0.26666,0.04465c-0.09819,0.03614 -0.19999,0.0335 -0.249,0.14509c0.02823,0.12329 0.05647,0.24656 0.16893,0.36555zM271.51989,183.0644c0.15111,0.17158 0.27046,0.18115 0.35099,0.04458c0.10856,-0.2003 0.18199,-0.41446 0.2484,-0.61266c0.02801,-0.06373 0.0454,-0.15038 -0.04591,-0.22368c-0.21375,0.25242 -0.3924,0.51863 -0.5535,0.79176zM273.12387,188.7425c-0.00689,0.10945 0.04234,0.1849 0.14069,0.24229c0.23858,-0.07442 0.50525,-0.11908 0.70857,-0.30084c-0.16869,-0.17851 -0.34072,-0.2088 -0.53358,-0.0977c-0.09821,0.03615 -0.22459,0.04255 -0.31568,0.15626zM273.94245,183.83018c0.24576,0.09666 0.31248,0.08544 0.37545,-0.05797c0.08042,-0.23008 0.16787,-0.4761 0.17807,-0.7338c-0.26644,0.23171 -0.50833,0.45437 -0.55353,0.79178zM275.8515,186.46904c-0.07355,0.1206 -0.12252,0.23225 -0.18908,0.33687c-0.11559,0.21626 -0.11553,0.21627 0.16547,0.42029c0.08412,-0.0978 0.19279,-0.20461 0.23829,-0.26146c-0.08445,-0.18279 -0.1408,-0.33577 -0.21471,-0.4957zM273.54315,178.83151c-0.14035,0.03826 -0.31235,0.00804 -0.38935,0.18338c0.07033,0.12114 0.16525,0.23324 0.24614,0.37721c0.1649,-0.04731 0.34033,-0.07174 0.44899,-0.17859c-0.08794,-0.12803 -0.15125,-0.26513 -0.30581,-0.38201zM274.22756,187.30719c-0.17873,0.17273 -0.3751,0.33852 -0.55384,0.51124c0.00014,0.09349 0.02476,0.17797 0.14409,0.18751c0.22098,-0.08131 0.42091,-0.20835 0.56456,-0.39487c-0.02823,-0.12329 -0.07046,-0.21463 -0.15483,-0.3039zM275.98553,181.4745c0.12989,0.03239 0.2457,0.00317 0.3579,-0.06488c-0.00711,-0.07758 -0.01424,-0.15514 -0.02137,-0.23272c-0.01764,-0.10041 -0.0178,-0.19393 -0.10914,-0.26723c-0.10534,-0.04144 -0.20709,-0.04409 -0.31233,0.00803c0.02481,0.17801 0.06017,0.37884 0.08491,0.5568zM272.66695,179.79546c0.1649,-0.04731 0.28413,-0.13129 0.39279,-0.23808c-0.09843,-0.15088 -0.17937,-0.29485 -0.26725,-0.42288c-0.16147,-0.00739 -0.27368,0.06063 -0.33324,0.14937c0.06689,0.17585 0.13381,0.35171 0.20768,0.51167zM276.47076,182.24481c-0.01067,-0.11634 -0.02135,-0.2327 -0.04956,-0.356c-0.01054,-0.02283 -0.0457,-0.03665 -0.07382,-0.06642c-0.09123,0.02018 -0.21054,0.01064 -0.31921,0.11748c-0.0033,0.14828 -0.03816,0.32146 0.02873,0.49733c0.17542,-0.02449 0.28763,-0.09254 0.41387,-0.19244zM276.79947,183.9817c0.09454,-0.16844 0.30167,-0.1244 0.37165,-0.2838c-0.01424,-0.1551 0.03124,-0.3055 -0.05325,-0.48826c-0.15789,0.03138 -0.29825,0.06967 -0.30853,0.23384c-0.01031,0.16418 -0.09085,0.30072 -0.00986,0.53823zM274.43613,188.47346c0.11921,-0.08396 0.25599,-0.16105 0.3682,-0.22905c0.02456,-0.00902 0.02101,-0.04783 0.03498,-0.07971c-0.07379,-0.06641 -0.12655,-0.18065 -0.30558,-0.19492c-0.14374,0.09302 -0.29456,0.20194 -0.46288,0.30401c0.09488,0.1121 0.19325,0.16947 0.36525,0.19975zM272.50421,178.75942c-0.06333,-0.13709 -0.11969,-0.2901 -0.17248,-0.4043c-0.17901,-0.01432 -0.31936,0.02393 -0.44212,0.06914c-0.03143,0.11852 0.08446,0.18274 0.1337,0.25822c0.04926,0.07545 0.09147,0.16681 0.22138,0.19921c0.08423,-0.00427 0.17545,-0.02448 0.25958,-0.12226zM266.41704,185.82444c0.03881,0.14609 0.07403,0.25346 0.10925,0.36076c0.00354,0.03878 0.04924,0.07547 0.0598,0.09831c0.12288,0.04835 0.23867,0.0191 0.35088,-0.04895c-0.03179,-0.16205 -0.04604,-0.31721 -0.11987,-0.47712c-0.12633,0.00642 -0.24213,0.03563 -0.40001,0.06701zM276.33248,186.63947c0.16125,-0.17962 0.32242,-0.35924 0.36776,-0.60312c-0.17899,-0.01431 -0.32649,-0.05362 -0.47024,0.03938c-0.03123,0.30552 -0.03122,0.30551 0.10248,0.56371zM267.84365,187.26412c0.16548,0.42029 0.18301,0.42715 0.56907,0.392c-0.05635,-0.15304 -0.13724,-0.29697 -0.19356,-0.45002c-0.12989,-0.03239 -0.24565,-0.00314 -0.37545,0.05795zM275.40894,180.63084c-0.03179,-0.16205 -0.0776,-0.29223 -0.19004,-0.41124c-0.04212,0.00214 -0.10879,0.01329 -0.17546,0.02445c-0.04911,0.01809 -0.10525,0.05209 -0.15431,0.07015c0.03181,0.16205 0.03906,0.33316 0.1445,0.4681c0.12631,-0.00641 0.25612,-0.0675 0.37532,-0.1515zM265.69261,184.66095c0.06665,-0.01119 0.15789,-0.0314 0.19646,-0.07229c0.12968,-0.15465 0.1645,-0.32782 0.11861,-0.55155c-0.13335,0.02231 -0.28777,-0.00102 -0.38245,0.07393c0.00023,0.18702 -0.0592,0.36928 0.06738,0.54991zM269.27522,178.61115c-0.01054,-0.02283 -0.02112,-0.04569 -0.04222,-0.09136c-0.28424,0.03779 -0.5368,0.14408 -0.78932,0.25039c0.00368,0.13228 0.0529,0.20772 0.18634,0.27891c0.20687,-0.14296 0.43128,-0.27902 0.64521,-0.43794zM273.22165,182.79896c-0.21032,0.19769 -0.43116,0.37254 -0.5326,0.65044c-0.00703,0.01594 0.04924,0.07541 0.08433,0.08923c0.08778,0.03449 0.186,-0.00163 0.22095,-0.08135c0.14366,-0.18652 0.19953,-0.40758 0.2273,-0.65833zM275.0745,179.84502c-0.04576,-0.13018 -0.09157,-0.26035 -0.18646,-0.37245c-0.12288,-0.04834 -0.22467,-0.05098 -0.36144,0.02607c0.08091,0.14399 0.15479,0.30392 0.24268,0.43194c0.1193,0.00954 0.21053,-0.01067 0.30522,-0.0856zM270.40031,188.56865c0.23879,0.11259 0.44245,0.21143 0.70211,0.18269c0.01031,-0.16417 -0.08456,-0.27629 -0.20403,-0.37935c-0.18244,0.04042 -0.34033,0.07177 -0.49811,0.19669zM265.33938,182.83959c0.20002,-0.03351 0.22454,-0.0425 0.24557,-0.09035c0.08756,-0.15249 0.06277,-0.33051 0.03096,-0.49254c-0.01411,-0.06161 -0.09493,-0.11208 -0.18958,-0.03716c0.04234,0.1849 -0.1189,0.36454 -0.08695,0.62009zM269.92845,178.99893c0.22447,-0.13603 0.45946,-0.24928 0.59596,-0.51338c-0.29475,0.01493 -0.50169,0.1579 -0.69453,0.26898c-0.01746,0.0866 0.02123,0.13917 0.09859,0.24437zM267.02866,186.58842c-0.10878,0.01331 -0.21056,0.01067 -0.31933,0.02397c0.02479,0.17802 0.08114,0.33103 0.29526,0.35914c0.05968,0.00478 0.11931,0.00953 0.16489,-0.04732c0.00689,-0.10943 -0.05291,-0.20776 -0.14081,-0.33577zM275.18872,184.13338c0.15803,0.06213 0.24221,0.05789 0.28065,-0.07654c0.03146,-0.11852 0.06287,-0.23701 0.07674,-0.36241c0.00342,-0.05471 -0.01067,-0.11637 -0.0879,-0.12805c-0.13665,0.17058 -0.21363,0.34593 -0.2695,0.56698zM268.65727,181.19086c-0.16125,0.17962 -0.28731,0.37307 -0.32564,0.601c-0.007,0.01596 0.04926,0.07542 0.06678,0.08232c0.03508,0.01381 0.09122,-0.02018 0.10522,-0.05209c0.07344,-0.21413 0.19255,-0.39165 0.15364,-0.63129zM267.57664,181.40146c0.01733,-0.18012 0.09432,-0.3555 0.066,-0.57227c-0.17875,0.17271 -0.29086,0.33427 -0.28018,0.45061c-0.00689,0.10943 0.06333,0.13709 0.21421,0.12163zM272.18726,189.0471c0.23169,0.03502 0.4775,0.13169 0.68437,-0.01128c-0.26002,-0.25179 -0.46688,-0.10883 -0.68437,0.01128zM273.21521,186.04918c0.03508,0.01379 0.05973,0.00478 0.09481,0.01858c0.05241,-0.1663 0.18563,-0.28217 0.16084,-0.46016c-0.09832,-0.05738 -0.15801,-0.06214 -0.24566,-0.00314c0.00368,0.13228 0.00036,0.28053 -0.00995,0.44475zM270.85897,182.13148c-0.15065,0.20246 -0.26275,0.36401 -0.32919,0.56221c-0.014,0.03188 0.0071,0.07756 0.05978,0.09828c0.01758,0.00691 0.05967,0.00477 0.08424,-0.00428c0.16125,-0.17962 0.2452,-0.3709 0.18518,-0.65621zM265.90706,184.96961c-0.11931,-0.00953 -0.18597,0.00161 -0.17188,0.06327c0.00368,0.13228 0.02492,0.2715 0.04614,0.41072c0.02467,0.08447 0.07731,0.10519 0.15799,0.06214c0.02434,-0.19607 0.03464,-0.36026 -0.03225,-0.5361zM274.29103,179.14432c0.09123,-0.02018 0.17545,-0.02448 0.26668,-0.04466c0.02456,-0.00902 0.03855,-0.04093 0.07713,-0.08184c-0.21064,-0.08286 -0.38278,-0.2066 -0.63904,-0.23262c0.08091,0.14399 0.14069,0.24227 0.29525,0.35913zM268.75915,184.05365c-0.05244,0.1663 -0.09787,0.31672 -0.16431,0.5149c0.24556,-0.09038 0.36122,-0.21311 0.41363,-0.37942c-0.06678,-0.08234 -0.11245,-0.11901 -0.24935,-0.13548zM274.44676,185.82312c0.02123,0.13923 -0.09087,0.30071 0.06027,0.47233c0.22064,-0.36189 0.25562,-0.44155 0.18183,-0.50799c-0.08778,-0.03449 -0.15447,-0.02335 -0.24213,0.03564zM269.79155,181.74912c-0.31567,0.15624 -0.39961,0.34754 -0.43441,0.61428c0.32979,-0.09465 0.28727,-0.37303 0.43441,-0.61428zM276.44464,183.71129c-0.29111,0.14721 -0.36811,0.3226 -0.41697,0.52769c-0.00701,0.01595 0.02112,0.04568 0.05622,0.0595c0.05267,0.02073 0.10178,0.00263 0.11577,-0.02924c0.08756,-0.15247 0.13999,-0.31879 0.24496,-0.55792zM275.39456,185.91548c-0.01031,0.16417 -0.06275,0.33051 0.06381,0.51109c0.12266,-0.1387 0.16808,-0.28908 0.20653,-0.4235c-0.08433,-0.08926 -0.16154,-0.10092 -0.27035,-0.08761zM277.08935,182.89932c-0.05991,-0.19182 0.01708,-0.36716 -0.13048,-0.49998c-0.15065,0.20246 -0.15064,0.20247 -0.05552,0.50159c0.04212,-0.00214 0.08423,-0.00426 0.186,-0.00161zM272.75149,188.37165c0.26679,0.04883 0.45268,-0.04629 0.62801,-0.16429c-0.01067,-0.11634 -0.08091,-0.144 -0.15454,-0.11688c-0.14375,0.09303 -0.30512,0.17913 -0.47342,0.28117zM275.76329,180.52714c0.11236,0.02551 0.20712,0.04408 0.30175,-0.03086c-0.03523,-0.1073 -0.07045,-0.21467 -0.16876,-0.272c-0.09477,-0.0186 -0.16145,-0.0074 -0.22459,0.04255c0.00015,0.0935 0.0318,0.16205 0.09159,0.26033zM271.03499,185.34129c0.10866,-0.1068 0.1858,-0.18866 0.19267,-0.29812c-0.00354,-0.03878 -0.03166,-0.06855 -0.05979,-0.09831c-0.05267,-0.02073 -0.13691,-0.01647 -0.14034,0.03824c-0.042,0.09567 -0.09099,0.20725 0.00748,0.35815zM273.1812,178.4835c-0.13702,-0.10997 -0.31248,-0.08548 -0.46692,-0.10882c0.11969,0.2901 0.15483,0.30388 0.46692,0.10882zM266.60048,180.99884c0.17521,-0.2115 0.17521,-0.2115 0.05919,-0.36929c-0.07713,0.08184 -0.16123,0.17964 -0.05919,0.36929zM272.29485,185.33198c-0.04926,-0.07545 -0.1019,-0.09615 -0.13344,-0.07119c-0.14375,0.09303 -0.14721,0.14774 -0.05218,0.35336c0.10167,-0.09085 0.14368,-0.18653 0.18567,-0.28218zM277.12595,184.12881c-0.12277,0.04521 -0.22799,0.09731 -0.24189,0.22266c0.3019,0.06262 0.33342,0.03769 0.24189,-0.22266zM266.47679,180.29595c-0.15437,0.07019 -0.2279,0.19077 -0.29442,0.29545c-0.02801,0.06374 0.00368,0.13231 0.13702,0.10997c0.06653,-0.10468 0.14012,-0.22532 0.15744,-0.40542zM276.84229,181.77396c-0.1051,0.1456 -0.08745,0.24603 0.03902,0.33316c0,0 0.04212,-0.00214 0.04911,-0.01808c0.05954,-0.08876 -0.01776,-0.19392 -0.08811,-0.3151zM269.91467,184.75112c0.11931,0.00953 0.18247,-0.04042 0.19288,-0.11106c0.014,-0.03188 -0.00712,-0.07758 -0.03523,-0.10733c-0.02814,-0.02974 -0.09475,-0.01858 -0.10875,0.01332c-0.03857,0.04092 -0.06656,0.10467 -0.0489,0.2051zM275.38325,179.70474c0.02123,0.13922 0.07045,0.21466 0.23892,0.20611c-0.03181,-0.16205 -0.08802,-0.22156 -0.23892,-0.20611z" fill="#000000"/><path d="M267.24037,190.27951c0.55478,0.2369 1.10963,0.47381 1.67144,0.69474c0.63205,0.24857 1.29207,0.43336 1.96953,0.53154c0.21411,0.02812 0.40709,0.01059 0.64575,0.02967c-0.11199,0.25509 -0.19237,0.48512 -0.30793,0.70138c-0.65814,1.31143 -1.23552,2.67332 -1.86555,4.01451c-0.56706,1.19771 -1.10952,2.38639 -1.659,3.59102c-0.38149,0.82203 -0.75604,1.62814 -1.13755,2.45014c-0.36052,0.77423 -0.6789,1.54629 -1.03938,2.3205c-0.02802,0.06376 -0.056,0.12754 -0.10154,0.18438c-0.32277,0.07871 -0.62112,0.05481 -0.94756,0.00123c-0.51603,-0.09079 -1.0356,-0.22035 -1.52016,-0.42961c-0.15803,-0.06213 -0.32302,-0.10833 -0.42846,-0.2433c0.17203,0.03025 0.32657,0.1471 0.55469,0.14338c-0.01088,-0.30337 0.16073,-0.55366 0.25518,-0.81565c0.00701,-0.01595 0.014,-0.03186 -0.00354,-0.03877c0.04854,-0.48564 0.25153,-0.94792 0.35971,-1.42883c0.03487,-0.1732 0.01708,-0.36716 0.12216,-0.51275c0.17512,-0.305 0.15006,-0.67004 0.32517,-0.97509c0.00701,-0.01595 0.00342,-0.05472 0.01747,-0.08661c0.08028,-0.32357 0.1361,-0.63814 0.25151,-0.94791c0.15397,-0.35071 0.15351,-0.7248 0.34259,-1.06167c-0.01435,-0.24865 0.11178,-0.44206 0.19221,-0.67214c0.014,-0.03188 0.021,-0.04785 0.035,-0.0797c-0.00047,-0.37407 0.21672,-0.68121 0.28649,-1.02767c0.06975,-0.34644 0.25184,-0.66739 0.33914,-1.00694c0.10833,-0.38737 0.15691,-0.77946 0.37761,-1.14135c0.014,-0.03188 0.03501,-0.07972 0.03144,-0.1185c-0.02837,-0.21679 0.10832,-0.38735 0.17477,-0.58555c0.042,-0.09567 0.10854,-0.20031 0.11542,-0.30979c-0.00721,-0.17108 0.06631,-0.29171 0.12931,-0.43519c0.03501,-0.07971 0.08757,-0.15252 0.08042,-0.23008c-0.01435,-0.24865 0.11874,-0.45802 0.20972,-0.66524c0.03501,-0.07971 0.08752,-0.1525 0.08043,-0.23007c-0.01076,-0.20986 0.08374,-0.37833 0.16076,-0.55369c0.12599,-0.28698 0.12908,-0.6222 0.2726,-0.90223c0.03854,-0.04093 0.00691,-0.10943 0.0103,-0.16418z" fill="#87d7dc"/><path d="M267.24037,190.27952c-0.00344,0.05471 0.02825,0.12328 0.00724,0.1711c-0.14353,0.28004 -0.16418,0.6084 -0.2726,0.90224c-0.077,0.17534 -0.17155,0.34382 -0.16076,0.55367c0.00711,0.07758 -0.04542,0.15039 -0.08038,0.23006c-0.09096,0.20725 -0.20656,0.4235 -0.20979,0.66527c0.00712,0.07758 -0.06299,0.14349 -0.08041,0.23009c-0.06297,0.14346 -0.11899,0.27102 -0.12931,0.43519c-0.00689,0.10943 -0.07345,0.21417 -0.11544,0.30981c-0.06642,0.19819 -0.20308,0.3688 -0.17473,0.58555c0.00354,0.03878 -0.01745,0.08661 -0.03143,0.11849c-0.21364,0.34595 -0.26929,0.75403 -0.37759,1.14138c-0.09433,0.3555 -0.27641,0.67642 -0.3392,1.00692c-0.06974,0.34642 -0.28695,0.65359 -0.28647,1.02765c0.01053,0.02284 -0.02101,0.04783 -0.03501,0.07972c-0.09096,0.20725 -0.20651,0.4235 -0.19218,0.67219c-0.20668,0.32999 -0.20616,0.70407 -0.34261,1.06166c-0.13299,0.30288 -0.17118,0.62435 -0.25153,0.94791c-0.014,0.03188 -0.0034,0.05475 -0.01743,0.08662c-0.17512,0.305 -0.15006,0.67003 -0.32517,0.97507c-0.09454,0.16844 -0.06977,0.34644 -0.12217,0.51275c-0.12574,0.47397 -0.31116,0.94318 -0.35971,1.42881c-0.00701,0.01595 0.00358,0.03879 0.00358,0.03879c-0.09442,0.26199 -0.26611,0.51226 -0.25517,0.81566c-0.21055,0.01066 -0.35812,-0.12217 -0.55468,-0.14339c-0.14044,-0.05522 -0.28088,-0.1105 -0.36179,-0.2545c0.042,-0.09567 0.10854,-0.2003 0.1154,-0.30976c0.02408,-0.38307 0.18866,-0.71096 0.30051,-1.05955c0.11185,-0.34856 0.13593,-0.73164 0.34258,-1.06163c-0.01435,-0.24865 0.11173,-0.4421 0.19217,-0.67217c0.014,-0.03188 0.03499,-0.0797 0.03143,-0.1185c-0.02478,-0.17801 0.08032,-0.32358 0.12577,-0.47398c0.03501,-0.07971 0.06996,-0.15942 0.08042,-0.23007c0.0662,-0.38523 0.1569,-0.77949 0.31791,-1.14615c0.02103,-0.04782 0.06659,-0.10468 0.04543,-0.15037c-0.01779,-0.19389 0.06973,-0.34643 0.13972,-0.50585c0.09454,-0.16844 0.04163,-0.37622 0.14319,-0.56058c0.12955,-0.24815 0.14675,-0.5218 0.22361,-0.79066c0.11887,-0.36453 0.16051,-0.74069 0.32151,-1.10733c0.02802,-0.06376 0.08056,-0.13657 0.06642,-0.19821c-0.01419,-0.15515 0.06628,-0.2917 0.11174,-0.44206c0.05601,-0.12752 0.09443,-0.26194 0.10835,-0.38737c0.02078,-0.23487 0.07662,-0.4559 0.17458,-0.6791c0.12942,-0.34166 0.1535,-0.72477 0.36013,-1.05476c0.014,-0.03188 0.01748,-0.08659 0.03145,-0.1185c0.09433,-0.3555 0.17103,-0.71786 0.3005,-1.05951c0.15397,-0.35071 0.1675,-0.75666 0.35661,-1.09355c0.02103,-0.04782 0.00687,-0.10945 0.01031,-0.16418c0.05587,-0.22104 0.1363,-0.45112 0.27995,-0.63763c0.09478,0.0186 0.165,0.04617 0.24223,0.05788c0.22481,0.1445 0.42148,0.25922 0.64272,0.36492z" fill="#b0eef2"/><path d="M277.39363,184.83229c-0.08031,0.32354 -0.16776,0.56961 -0.34297,0.78111c-0.19646,0.07228 -0.41057,0.04419 -0.63164,0.032c-1.08458,-0.10875 -2.16217,-0.23344 -3.2189,-0.49946c-0.79694,-0.20126 -1.61144,-0.40939 -2.3909,-0.69725c-0.21066,-0.08286 -0.43192,-0.18855 -0.66361,-0.22361c-0.09478,-0.0186 -0.20013,-0.06003 -0.30544,-0.10143c-0.39337,-0.22948 -0.82871,-0.36331 -1.24309,-0.54496c-0.58995,-0.25069 -1.15188,-0.56515 -1.69978,-0.91149c-0.27045,-0.18114 -0.54795,-0.34635 -0.84296,-0.51843c-0.23176,-0.12856 -0.40046,-0.30704 -0.57615,-0.46962c0.00311,-0.33528 0.03453,-0.45375 0.23762,-0.82253c0.37922,0.16781 0.70593,0.40847 1.07116,0.6082c0.34768,0.19282 0.71292,0.39254 1.06761,0.56943c0.37223,0.1838 0.76907,0.35853 1.14828,0.52638c0.35467,0.17688 0.76893,0.26497 1.10267,0.48971c0.42126,0.0722 0.78647,0.27193 1.17973,0.40788c0.37568,0.12906 0.77593,0.24907 1.15863,0.36218c0.40024,0.12002 0.80747,0.22409 1.23228,0.3351c0.38968,0.09717 0.78991,0.21721 1.18663,0.29841c0.41424,0.08812 0.82491,0.13749 1.24617,0.20969c0.4388,0.07908 0.83546,0.16033 1.28472,0.16876z" fill="#d1eaeb"/><path d="M266.60819,189.93746c-0.07722,-0.01168 -0.14747,-0.0393 -0.24222,-0.05786c-0.14366,0.18654 -0.23463,0.39373 -0.27996,0.63764c-0.00345,0.05472 0.01067,0.11637 -0.01031,0.16418c-0.1891,0.33687 -0.22018,0.73596 -0.3566,1.09354c-0.14698,0.33477 -0.20619,0.70404 -0.30053,1.05952c-0.014,0.03188 -0.01746,0.08662 -0.03144,0.11849c-0.20666,0.32998 -0.20619,0.70403 -0.36016,1.05474c-0.09096,0.20725 -0.15385,0.44422 -0.17459,0.67909c-0.02087,0.14129 -0.0593,0.27577 -0.10832,0.38737c-0.06297,0.14346 -0.13653,0.26408 -0.11175,0.44209c0.01409,0.0616 -0.03846,0.13444 -0.06646,0.19819c-0.15397,0.35071 -0.20258,0.74282 -0.32148,1.10733c-0.07689,0.26887 -0.09405,0.54251 -0.22362,0.79066c-0.09454,0.16844 -0.04164,0.37619 -0.14319,0.56058c-0.08754,0.1525 -0.18209,0.32095 -0.13977,0.50585c-0.00345,0.05472 -0.02443,0.10254 -0.04541,0.15036c-0.16097,0.36663 -0.24476,0.74492 -0.31791,1.14613c-0.01746,0.0866 -0.06997,0.15941 -0.08043,0.23004c-0.06297,0.14346 -0.1505,0.29599 -0.12572,0.47397c0.00354,0.03878 -0.01744,0.08661 -0.03144,0.11848c-0.09096,0.20725 -0.20653,0.42351 -0.19218,0.67218c-0.20665,0.32999 -0.23073,0.71309 -0.34257,1.06163c-0.11185,0.34856 -0.28339,0.69235 -0.3005,1.05949c-0.00689,0.10945 -0.07345,0.21413 -0.11541,0.3098c-0.16502,-0.04621 -0.22835,-0.18326 -0.34427,-0.24752c0.20616,-0.70403 0.38081,-1.38314 0.57299,-2.05529c0.20263,-0.74284 0.41579,-1.46283 0.63594,-2.19875c0.19918,-0.68813 0.38079,-1.38314 0.56242,-2.07815c0.23407,-0.86133 0.44354,-1.71362 0.67059,-2.55901c0.17818,-0.6403 0.35641,-1.28057 0.51699,-1.92776c0.27248,-0.99577 0.62221,-1.97987 0.85956,-2.98943c0.03843,-0.13442 0.04174,-0.28267 0.15741,-0.40542c0.15803,0.06213 0.29501,0.1721 0.43905,0.26613c0.0738,0.06639 0.24578,0.09665 0.35128,0.23161z" fill="#87d7dc"/><path d="M262.69612,204.66239c0.38268,0.1131 0.71983,0.28308 1.10949,0.38023c0.44936,0.10196 0.90571,0.18793 1.40403,0.17832c-0.40594,0.9246 -0.80488,1.83323 -1.19682,2.72594c-0.27011,0.09942 -0.52634,0.0734 -0.77202,0.07025c-0.46679,-0.01532 -0.88459,-0.14227 -1.31995,-0.27608c-0.01758,-0.00691 -0.04565,-0.03665 -0.05623,-0.05949c0.2,-0.03349 0.20331,-0.18173 0.22418,-0.32309c0.05219,-0.35336 0.12193,-0.69979 0.27949,-1.0117c0.02802,-0.06376 0.05599,-0.12753 0.06641,-0.19819c0.02764,-0.34433 0.18517,-0.65621 0.26548,-0.97983c0.04193,-0.18915 0.0627,-0.33047 -0.00417,-0.50635z" fill="#61afb4"/><path d="M267.27572,187.71374c0.57247,0.3373 1.19392,0.56301 1.78742,0.85247c0.27389,0.12642 0.56882,0.20499 0.86373,0.28359c0.5407,0.17527 1.07093,0.42118 1.63963,0.53264c0.22467,0.05098 0.44935,0.10198 0.66346,0.1301c0.13691,0.01646 0.26677,0.04882 0.3897,0.09718c-0.00342,0.05471 0.00012,0.0935 -0.01391,0.12541c-0.05601,0.12751 -0.11196,0.25505 -0.16794,0.38259c-0.10877,0.01332 -0.193,0.01754 -0.29478,0.01493c-0.71599,-0.05727 -1.44961,-0.12143 -2.13434,-0.39073c-0.60393,-0.21881 -1.22537,-0.44451 -1.80133,-0.7271c-0.46006,-0.2183 -0.92707,-0.42067 -1.31356,-0.75959c0.10177,0.00261 0.18612,0.09188 0.29832,0.02385c0.11209,-0.16154 0.25576,-0.34807 0.08351,-0.56535z" fill="#61aeb3"/><path d="M267.22812,188.94749c0.31247,0.0855 0.55135,0.29162 0.84282,0.42493c0.62506,0.2645 1.25006,0.52903 1.8961,0.74568c0.52312,0.16836 1.05674,0.26602 1.58674,0.32492c0.13691,0.01646 0.27377,0.03289 0.41067,0.04934c-0.09798,0.22319 -0.18194,0.41451 -0.27297,0.62172c-0.29466,0.10843 -0.59302,0.08455 -0.89493,0.02194c-0.36158,-0.0674 -0.74068,-0.14174 -1.09881,-0.2639c-0.81802,-0.24697 -1.57654,-0.58265 -2.35959,-0.90928c-0.14044,-0.05523 -0.28092,-0.11047 -0.36882,-0.23851c0.03501,-0.07971 0.08752,-0.15252 0.08041,-0.23007c-0.00023,-0.18703 0.1013,-0.37145 0.17827,-0.54677z" fill="#61aeb3"/><path d="M262.69611,204.66239c0.05635,0.15304 0.05301,0.30124 0.00058,0.46757c-0.08031,0.32357 -0.23788,0.63553 -0.26548,0.97982c-0.01045,0.07068 -0.03842,0.13446 -0.06644,0.19823c-0.14697,0.33478 -0.20973,0.66524 -0.27949,1.01168c-0.01389,0.12542 -0.02418,0.2896 -0.22419,0.3231c-0.27035,-0.08764 -0.50214,-0.21617 -0.69538,-0.38563c0.0453,-0.24391 0.07309,-0.4947 0.20617,-0.70406c0.014,-0.03188 0.01745,-0.08661 0.03143,-0.1185c0.08731,-0.33952 0.18161,-0.69502 0.28648,-1.02765c0.04543,-0.15037 0.10146,-0.2779 0.12933,-0.43519c0.02435,-0.19606 0.09075,-0.39428 0.25553,-0.5351c0.09477,0.0186 0.16499,0.0462 0.24221,0.05788c0.12288,0.04835 0.25638,0.11952 0.37924,0.16781z" fill="#87d7dc"/><path d="M271.1337,180.14589c0.11272,0.30605 0.08852,0.59557 0.04674,0.87831c-0.01045,0.07067 -0.05244,0.16633 -0.09798,0.22319c-0.34341,0.40705 -0.61664,0.84173 -0.87226,1.2833c-0.00701,0.01595 -0.03854,0.04092 -0.06311,0.04998c-0.09123,0.02018 -0.17902,-0.01429 -0.24579,-0.09664c0.014,-0.03188 0.01042,-0.0707 0.02443,-0.10256c0.18556,-0.37564 0.31842,-0.77208 0.35649,-1.18706c0.03133,-0.21201 0.10832,-0.38737 0.28008,-0.54414c0.19633,-0.16578 0.33997,-0.35233 0.57144,-0.50434z" fill="#cce5e6"/><path d="M269.02349,182.13868c-0.12633,0.00642 -0.18956,-0.03715 -0.22124,-0.10569c0.30086,-0.77899 0.30082,-0.77899 0.31389,-1.55897c0.15411,-0.25722 0.39596,-0.47986 0.59575,-0.70037c0.13691,0.01646 0.11242,0.11898 0.12655,0.18063c0.04591,0.22367 0.09881,0.43144 0.10259,0.65726c-0.00332,0.14828 -0.03478,0.26674 -0.12586,0.38043c-0.28033,0.35712 -0.55007,0.73704 -0.79173,1.14672z" fill="#cce5e6"/><path d="M262.29934,204.48767c-0.07723,-0.01169 -0.14747,-0.03931 -0.24221,-0.05787c-0.16478,0.14083 -0.23119,0.33901 -0.25552,0.53511c-0.02787,0.1573 -0.08385,0.28481 -0.12933,0.4352c-0.10487,0.33265 -0.19918,0.68811 -0.28649,1.02765c-0.014,0.03188 -0.01744,0.08663 -0.03144,0.1185c-0.12253,0.23221 -0.14332,0.46704 -0.20619,0.70402c-0.12646,-0.0871 -0.23537,-0.16736 -0.33382,-0.31823c0.1433,-0.46706 0.25849,-0.96392 0.42634,-1.44001c0.1433,-0.46706 0.2164,-0.96173 0.42635,-1.43998c0.27389,0.12642 0.45658,0.27302 0.63228,0.43556z" fill="#60adb2"/><path d="M272.64943,185.41534c0.07722,0.01167 0.13691,0.01648 0.21412,0.02814c0.02114,0.04569 0.03165,0.06853 0.04221,0.09135c-0.04874,0.29861 -0.03783,0.60202 -0.00939,0.91227c0.00367,0.1323 -0.02076,0.23488 -0.12242,0.32573c-0.18578,0.18865 -0.3434,0.40706 -0.65564,0.5086c-0.11967,-0.29009 -0.1306,-0.59348 -0.12394,-0.88996c0.00342,-0.05471 0.05603,-0.12752 0.10154,-0.18437c0.1786,-0.26622 0.35731,-0.5325 0.55353,-0.79181z" fill="#cce5e6"/><path d="M274.66595,181.47892c0.00025,0.187 0.01089,0.3034 0.01457,0.4357c-0.00321,0.24178 -0.06964,0.43994 -0.27295,0.62171c-0.32598,0.32042 -0.60628,0.67757 -0.78126,1.07608c-0.05601,0.12751 -0.08055,0.13655 -0.28424,0.03779c0.02101,-0.04782 0.02442,-0.10256 0.04545,-0.15039c0.19254,-0.39162 0.30783,-0.7949 0.37048,-1.21893c0.02447,-0.10255 0.0419,-0.18916 0.11196,-0.25509c0.24543,-0.18391 0.45578,-0.38157 0.796,-0.54685z" fill="#cae2e3"/><path d="M271.08813,182.96938c-0.01054,-0.02283 -0.01414,-0.06168 -0.00711,-0.07758c0.19607,-0.3528 0.27984,-0.73113 0.33905,-1.10046c0.06974,-0.34642 0.20274,-0.64934 0.51128,-0.88314c0.15078,-0.10895 0.24529,-0.2774 0.42422,-0.35657c0.13394,0.44523 0.03616,0.85544 -0.24071,1.15781c-0.32944,0.37518 -0.6694,0.7275 -0.85483,1.19672c-0.03854,0.04093 -0.06656,0.10468 -0.1719,0.06327z" fill="#c9e1e2"/><path d="M273.43006,181.01158c0.06358,0.32411 0.03583,0.57487 0.00105,0.8416c-0.01746,0.0866 -0.05245,0.16631 -0.11556,0.21628c-0.35399,0.38422 -0.67984,0.79816 -0.9706,1.22591c-0.014,0.03188 -0.05253,0.07279 -0.13333,0.02233c0.04899,-0.11157 0.10497,-0.2391 0.13644,-0.35761c0.12243,-0.32571 0.22728,-0.65835 0.25491,-1.00265c0.02772,-0.25081 0.13631,-0.45112 0.34319,-0.59408c0.15078,-0.10895 0.29453,-0.20198 0.48389,-0.35184z" fill="#c9e1e2"/><path d="M273.82546,185.69095c0.14036,-0.03825 0.22814,-0.00375 0.3159,0.03077c0.01054,0.02283 0.01413,0.06166 0.02465,0.08447c-0.07688,0.26886 -0.0765,0.54943 -0.00947,0.81878c0.03179,0.16205 -0.00666,0.29648 -0.12233,0.41924c-0.1472,0.14773 -0.28384,0.31833 -0.45918,0.43633c-0.13012,-0.2194 -0.24641,-0.56426 -0.22551,-0.7056c-0.00015,-0.0935 0.06297,-0.14347 0.11556,-0.21626c0.10143,-0.27788 0.29762,-0.53725 0.36039,-0.8677z" fill="#cae3e4"/><path d="M267.35928,184.38174c0.28753,-0.18601 0.52245,-0.39272 0.74677,-0.62231c0.1193,0.00954 0.18959,0.03715 0.25637,0.1195c-0.03819,0.32144 -0.22032,0.64238 -0.24095,0.97077c-0.16478,0.14081 -0.34721,0.18124 -0.52609,0.26046c-0.09819,0.03614 -0.18585,0.09513 -0.31576,0.06275c-0.04946,-0.26248 0.08009,-0.51062 0.07972,-0.79117z" fill="#c8e0e1"/><path d="M270.49726,184.73724c0.151,0.07808 0.14057,0.14874 0.13012,0.21941c-0.03475,0.26677 -0.06252,0.51752 -0.11482,0.77735c-0.01044,0.07068 -0.03843,0.13444 -0.10154,0.18442c-0.19986,0.12699 -0.41733,0.24711 -0.64531,0.34441c-0.04576,-0.13016 -0.02135,-0.23272 -0.03201,-0.3491c-0.032,-0.34907 0.06939,-0.62697 0.4096,-0.79229c0.16136,-0.0861 0.26645,-0.23171 0.35396,-0.38424z" fill="#cbe4e5"/><path d="M269.39117,184.30225c0.08778,0.03449 0.14044,0.05521 0.19313,0.07593c0.00354,0.03878 0.03164,0.06854 0.02467,0.08447c-0.04193,0.18915 -0.10129,0.37144 -0.14318,0.5606c-0.02447,0.10255 -0.077,0.17536 -0.16467,0.23435c-0.26298,0.17698 -0.53656,0.33109 -0.86277,0.46453c-0.05991,-0.1918 -0.01447,-0.34216 0.03096,-0.49254c0.02801,-0.06373 0.05603,-0.12752 0.11207,-0.16154c0.34022,-0.16531 0.58555,-0.4427 0.80976,-0.76577z" fill="#c8e0e1"/><path d="M267.22813,188.94746c-0.077,0.17534 -0.17856,0.35976 -0.16773,0.56965c0.00712,0.07758 -0.04545,0.15034 -0.08043,0.23006c-0.30545,-0.10143 -0.56535,-0.25973 -0.7797,-0.47491c0.13311,-0.20935 0.16086,-0.46014 0.20972,-0.66523c0.15789,-0.03138 0.25979,0.06479 0.3791,0.07431c0.16502,0.04621 0.33357,0.1312 0.43904,0.26612z" fill="#85d5d9"/><path d="M275.65729,182.78479c-0.19277,0.2046 -0.38551,0.40921 -0.56774,0.63663c-0.15067,0.20246 -0.12219,0.51275 -0.49054,0.64827c0.23795,-0.54198 0.32504,-1.06857 0.41213,-1.59513c0.16478,-0.14081 0.35408,-0.29071 0.59267,-0.36511c0.02114,0.04569 0.03167,0.06854 0.04223,0.09135c0.01779,0.19392 0.01805,0.38098 0.01128,0.58391z" fill="#c6dede"/><path d="M271.05587,179.66661c-0.2419,0.22269 -0.45218,0.42033 -0.69408,0.64303c-0.09843,-0.15088 -0.09515,-0.29913 -0.14092,-0.42927c-0.03881,-0.14609 -0.11968,-0.29012 -0.10935,-0.45427c0.04899,-0.11157 0.1612,-0.17961 0.25584,-0.25456c0.09464,-0.07494 0.2069,-0.14294 0.33668,-0.20409c0.2038,0.19231 0.26022,0.43885 0.35183,0.69921z" fill="#cae3e3"/><path d="M267.88587,181.7287c0.08706,-0.52658 0.13913,-0.97344 0.07887,-1.44575c0.16125,-0.17962 0.30487,-0.36613 0.4731,-0.56169c0.17226,0.21729 0.17606,0.44311 0.22194,0.66676c0.00354,0.03878 -0.01746,0.08663 -0.03146,0.11848c-0.22764,0.3778 -0.45528,0.75564 -0.74245,1.22217z" fill="#cae3e4"/><path d="M270.92442,186.71846c-0.06358,-0.3241 -0.09907,-0.61846 0.19893,-0.87512c0.20333,-0.18176 0.32588,-0.41397 0.44842,-0.64617c0.04201,-0.09566 0.13676,-0.07709 0.22813,-0.00377c-0.14706,0.24124 -0.16431,0.5149 -0.1815,0.78855c-0.00675,0.20296 -0.10484,0.33263 -0.25562,0.44159c-0.12622,0.0999 -0.22435,0.22956 -0.43836,0.29495z" fill="#c8e0e1"/><path d="M267.27572,187.7137c0.16525,0.23324 0.02857,0.40378 -0.07297,0.58817c-0.11219,0.06801 -0.20354,-0.00527 -0.2983,-0.02383c-0.22122,-0.1057 -0.4039,-0.25234 -0.57263,-0.43085c0.09454,-0.16844 0.10131,-0.3714 0.25907,-0.4963c0.09478,0.0186 0.14746,0.0393 0.21768,0.06691c0.16158,0.10092 0.32315,0.20182 0.46715,0.29588z" fill="#85d4d9"/><path d="M269.34035,185.68424c0.00035,0.28054 -0.0204,0.51539 -0.02359,0.75715c-0.235,0.1132 -0.48054,0.20359 -0.72969,0.25513c-0.10892,-0.08023 -0.10201,-0.18966 -0.12669,-0.27412c-0.02468,-0.08447 -0.04933,-0.16894 0.01722,-0.27362c0.22447,-0.13603 0.51553,-0.28326 0.86276,-0.46454z" fill="#c7dfe0"/><path d="M271.75369,187.54937c-0.19292,0.11108 -0.36822,0.22904 -0.60678,0.3035c-0.1477,-0.22633 -0.15148,-0.45212 -0.18338,-0.70769c0.20688,-0.14296 0.41375,-0.28594 0.62766,-0.44484c0.07756,0.29222 0.10948,0.54784 0.1625,0.84905z" fill="#c8e0e1"/><path d="M272.12259,179.48788c0.08445,0.18279 0.16889,0.36554 0.17969,0.57542c-0.20333,0.18176 -0.4242,0.35659 -0.65208,0.54737c-0.03508,-0.01381 -0.0702,-0.02761 -0.0632,-0.04357c-0.04234,-0.1849 -0.07768,-0.38572 -0.10249,-0.56371c-0.00711,-0.07758 0.0033,-0.14827 0.05941,-0.18225c0.18933,-0.14986 0.32598,-0.32045 0.57867,-0.33327z" fill="#c4dcdd"/><path d="M274.59175,181.03848c-0.23143,0.15199 -0.44532,0.31089 -0.67679,0.46291c-0.11942,-0.10306 -0.06344,-0.23057 -0.07412,-0.34695c-0.01067,-0.11634 0.0032,-0.24177 -0.00049,-0.37405c0.17178,-0.15676 0.40334,-0.21518 0.61381,-0.31941c0.14411,0.1875 0.14434,0.37456 0.13756,0.57752z" fill="#c8e0e1"/><path d="M272.28017,187.66297c0.22091,-0.17483 0.41725,-0.34066 0.64511,-0.53142c0.11958,0.19655 0.13034,0.40646 0.23239,0.59613c-0.16823,0.19554 -0.40678,0.26999 -0.63122,0.40602c-0.13356,-0.16468 -0.23902,-0.29962 -0.24623,-0.4707z" fill="#c6ddde"/><path d="M275.02594,185.86395c0.05658,0.34006 0.01141,0.67744 0.13464,1.00632c-0.13665,0.17058 -0.24878,0.33215 -0.44864,0.45915c-0.16166,-0.19443 -0.2216,-0.38627 -0.08151,-0.61154c0.17863,-0.26621 0.2695,-0.56697 0.3955,-0.85393z" fill="#b9cfd0"/><path d="M267.00072,181.11887c-0.08433,-0.08926 0.00329,-0.14828 0.01375,-0.2189c0.02788,-0.15727 0.07328,-0.30763 0.00995,-0.44475c-0.06345,-0.23059 0.03105,-0.39903 0.15019,-0.57653c0.05259,-0.0728 0.12265,-0.13872 0.20677,-0.23648c0.15128,0.26511 0.25682,0.49359 0.05363,0.76883c-0.14365,0.18653 -0.2241,0.4166 -0.33265,0.61693c-0.02103,0.04781 -0.04201,0.09565 -0.10167,0.09087z" fill="#c0d8d8"/><path d="M266.38378,184.44673c-0.02478,-0.17801 -0.00391,-0.31931 0.05206,-0.44685c0.02801,-0.06373 0.06296,-0.1435 0.11908,-0.17749c0.24901,-0.14508 0.45231,-0.32685 0.65565,-0.5086c0.12288,0.04835 0.07733,0.10519 0.05634,0.15304c-0.07,0.15942 -0.14696,0.33478 -0.18184,0.50799c-0.05588,0.22104 -0.17153,0.3438 -0.39612,0.38636c-0.10878,0.01331 -0.18244,0.04041 -0.30519,0.08557z" fill="#c1d9d9"/><path d="M270.51403,186.94965c-0.1823,0.13392 -0.3788,0.20621 -0.58922,0.31039c-0.15112,-0.17158 -0.12678,-0.36765 -0.16915,-0.55257c0.21388,-0.15891 0.46997,-0.22644 0.72255,-0.33273c0.05289,0.20775 0.03557,0.38789 0.03584,0.57493z" fill="#c3dbdc"/><path d="M272.78419,180.98193c-0.00738,-0.26462 -0.00414,-0.50639 -0.01848,-0.75505c0.1332,-0.11589 0.25944,-0.21574 0.45943,-0.24928c0.10201,0.18969 0.11979,0.38361 0.15519,0.58446c-0.16125,0.17962 -0.34351,0.31352 -0.59608,0.41984z" fill="#c3dadb"/><path d="M268.62958,187.06846c0.23858,-0.07442 0.45255,-0.1398 0.66654,-0.20519c0.12658,0.18063 0.14436,0.37456 0.16215,0.56847c-0.18587,0.09515 -0.37531,0.15151 -0.59284,0.17807c-0.03866,-0.0526 -0.08788,-0.12806 -0.10901,-0.17371c-0.04579,-0.13017 -0.06347,-0.23057 -0.1268,-0.36768z" fill="#c4dbdc"/><path d="M266.44142,182.86172c-0.13301,0.30291 -0.238,0.54202 -0.34992,0.79708c-0.13678,0.07708 -0.27713,0.11534 -0.45609,0.10101c-0.07031,-0.12113 0.01377,-0.21891 0.02066,-0.32838c0.00687,-0.10944 0.03133,-0.212 0.06629,-0.29172c0.24559,-0.0904 0.44203,-0.16269 0.71911,-0.27801z" fill="#c2d9da"/><path d="M271.0653,178.75431c0.12622,-0.0999 0.25596,-0.16107 0.38932,-0.18338c0.14745,0.0393 0.17567,0.16262 0.24246,0.24491c0.06678,0.08229 0.16512,0.13969 0.16879,0.27199c-0.10509,0.14561 -0.29098,0.24073 -0.49088,0.3678c-0.05282,-0.11426 -0.1056,-0.22849 -0.16536,-0.32676c-0.04576,-0.13016 -0.09159,-0.26033 -0.14438,-0.37457z" fill="#c5ddde"/><path d="M270.74705,188.01339c-0.1578,0.12491 -0.31924,0.11749 -0.46656,0.17172c-0.15812,-0.15568 -0.21803,-0.34748 -0.28853,-0.56212c0.17888,-0.07922 0.35779,-0.1584 0.51915,-0.24451c0.16165,0.19445 0.16548,0.42028 0.23594,0.6349z" fill="#c3dbdc"/><path d="M268.99265,179.95814c-0.04926,-0.07545 -0.07036,-0.1211 -0.09148,-0.16678c-0.03523,-0.1073 -0.06348,-0.23059 -0.10925,-0.36076c0.22091,-0.17483 0.38909,-0.37041 0.65922,-0.46981c0.10892,0.08023 0.12658,0.18063 0.14781,0.31985c-0.17521,0.2115 -0.38198,0.44795 -0.60627,0.67756z" fill="#c7dfe0"/><path d="M267.98592,185.95544c-0.23154,0.05847 -0.40687,0.17643 -0.63498,0.18021c-0.11599,-0.15781 -0.0566,-0.34003 -0.1375,-0.484c0.24902,-0.14507 0.48055,-0.2036 0.72611,-0.29396c0.11258,0.21254 0.03558,0.38785 0.04642,0.59775z" fill="#c7dee0"/><path d="M266.79616,188.66543c-0.11931,-0.00953 -0.22122,-0.10573 -0.37911,-0.07431c-0.05588,0.22104 -0.10121,0.46491 -0.20974,0.66525c-0.06324,-0.04357 -0.14401,-0.09403 -0.20024,-0.15349c-0.08433,-0.08926 -0.11955,-0.19657 -0.07058,-0.30819c0.06641,-0.19817 0.12583,-0.38044 0.19231,-0.57866c0.22825,0.08976 0.32658,0.14713 0.66739,0.4494z" fill="#61acb1"/><path d="M275.65587,181.66261c-0.19292,0.11108 -0.3542,0.19715 -0.56467,0.30134c-0.01436,-0.24866 -0.03571,-0.48135 -0.03251,-0.72312c0.14374,-0.09302 0.28055,-0.17006 0.44544,-0.21739c0.11257,0.21253 0.13036,0.40643 0.15172,0.63915z" fill="#c2dada"/><path d="M266.31754,184.83196c0.19292,-0.11108 0.37532,-0.15149 0.58936,-0.21686c-0.02774,0.2508 -0.04152,0.46972 -0.0553,0.68865c-0.1332,0.11588 -0.27713,0.11534 -0.45255,0.1398c-0.10902,-0.17371 -0.08471,-0.36983 -0.08151,-0.61154z" fill="#c1d9d9"/><path d="M273.7942,180.36964c-0.08801,-0.22157 -0.13734,-0.3905 -0.20425,-0.56639c0.12266,-0.1387 0.31212,-0.19505 0.50157,-0.25139c0.12297,0.14184 0.22144,0.29272 0.25681,0.49357c-0.13665,0.17058 -0.34725,0.18122 -0.5541,0.32422z" fill="#c6dedf"/><path d="M272.13717,188.31708c-0.18586,0.09515 -0.38234,0.16743 -0.56122,0.24662c-0.151,-0.07808 -0.22836,-0.18326 -0.28472,-0.33631c0.16125,-0.17962 0.40334,-0.21519 0.60322,-0.34226c0.13004,0.1259 0.16878,0.27201 0.24271,0.43193z" fill="#c0d7d7"/><path d="M268.31113,179.35357c-0.1472,0.14773 -0.24878,0.33212 -0.47676,0.42943c-0.05635,-0.15304 -0.11969,-0.29013 -0.18302,-0.42718c0.084,-0.19127 0.24176,-0.31615 0.43819,-0.38844c0.11944,0.10306 0.17222,0.21728 0.22159,0.3862z" fill="#c3dadb"/><path d="M266.8261,187.42474c-0.07022,-0.02763 -0.14747,-0.03929 -0.21772,-0.06689c-0.1578,0.12491 -0.16457,0.32783 -0.25907,0.4963c-0.12989,-0.03239 -0.15812,-0.15568 -0.27401,-0.21992c0.02077,-0.23485 0.15739,-0.40544 0.12549,-0.66099c0.18255,0.05312 0.26688,0.14234 0.36883,0.23851c0.07382,0.06639 0.21069,0.08289 0.25645,0.21301z" fill="#5aa0a4"/><path d="M275.56163,187.5514c-0.14719,0.14772 -0.24878,0.33214 -0.45221,0.42037c-0.10892,-0.08023 -0.15114,-0.17162 -0.21451,-0.30866c0.11212,-0.16156 0.25932,-0.30928 0.42764,-0.41135c0.10892,0.08023 0.15813,0.15566 0.23902,0.29963z" fill="#bdd3d4"/><path d="M269.11501,187.93232c0.1649,-0.04731 0.31224,-0.10152 0.45954,-0.15574c0.123,0.14186 0.17937,0.29488 0.22872,0.46381c-0.10866,0.1068 -0.24559,0.0904 -0.36845,0.04206c-0.15803,-0.06211 -0.316,-0.12425 -0.31983,-0.3501z" fill="#bdd4d5"/><path d="M276.47544,183.12523c-0.17177,0.15675 -0.33655,0.29761 -0.50829,0.45436c-0.0286,-0.40378 0.01663,-0.74119 0.48673,-0.8741c0.07031,0.12113 0.03189,0.25557 0.02157,0.41973z" fill="#bbd2d3"/><path d="M267.64324,186.92358c-0.11244,-0.119 -0.14068,-0.24229 -0.16888,-0.36555c0.04899,-0.11157 0.1508,-0.10894 0.24901,-0.14507c0.07366,-0.02711 0.1543,-0.07014 0.26666,-0.04465c0.11244,0.119 0.04248,0.27838 0.14794,0.41333c-0.16832,0.10206 -0.3262,0.13344 -0.49464,0.142z" fill="#c3dadb"/><path d="M271.51989,183.0644c0.16114,-0.27311 0.32219,-0.54624 0.55352,-0.79176c0.09831,0.05738 0.08093,0.144 0.04588,0.22368c-0.07344,0.21413 -0.16439,0.42133 -0.24839,0.61264c-0.06297,0.14346 -0.18235,0.13394 -0.351,-0.04458z" fill="#b1c6c7"/><path d="M273.12387,188.7425c0.09107,-0.11371 0.21743,-0.12011 0.32264,-0.17221c0.1929,-0.1111 0.3579,-0.06489 0.53361,0.0977c-0.20333,0.18174 -0.477,0.24234 -0.70854,0.30085c-0.1159,-0.06428 -0.15458,-0.11687 -0.14771,-0.22633z" fill="#bbd2d3"/><path d="M273.94245,183.83018c0.06275,-0.33051 0.30462,-0.55315 0.53594,-0.79869c0.00738,0.26462 -0.09766,0.50371 -0.17806,0.73379c-0.04543,0.15038 -0.11212,0.16158 -0.35789,0.06488z" fill="#bad1d2"/><path d="M275.85149,186.46905c0.06688,0.17586 0.14778,0.31985 0.2147,0.49569c-0.05256,0.0728 -0.15422,0.16369 -0.23832,0.26146c-0.28103,-0.20399 -0.27403,-0.21994 -0.16548,-0.42029c0.04901,-0.11158 0.11557,-0.21628 0.1891,-0.33688z" fill="#b5cbcc"/><path d="M273.54315,178.83151c0.15454,0.11688 0.22494,0.23801 0.29525,0.35913c-0.11567,0.12277 -0.28413,0.13126 -0.449,0.1786c-0.08793,-0.12801 -0.15821,-0.24916 -0.24613,-0.3772c0.08054,-0.13655 0.25253,-0.10633 0.39991,-0.16054z" fill="#c0d7d8"/><path d="M274.22756,187.30719c0.09131,0.07333 0.1266,0.18062 0.15484,0.30391c-0.14366,0.18652 -0.34353,0.31355 -0.56454,0.39487c-0.12989,-0.03239 -0.144,-0.09403 -0.14411,-0.18751c0.17873,-0.17273 0.35754,-0.34544 0.55387,-0.51122z" fill="#bdd4d4"/><path d="M275.98558,181.4745c-0.04234,-0.1849 -0.06015,-0.37881 -0.10249,-0.56372c0.10523,-0.05208 0.20702,-0.04945 0.31234,-0.00805c0.09132,0.07331 0.09148,0.1668 0.10913,0.2672c0.00711,0.07758 0.01424,0.15514 0.02136,0.23273c-0.09467,0.07495 -0.1929,0.11109 -0.34037,0.07179z" fill="#b6cccc"/><path d="M272.66695,179.79546c-0.06687,-0.17587 -0.12323,-0.32886 -0.20771,-0.51166c0.05953,-0.08874 0.15421,-0.1637 0.33324,-0.14938c0.08794,0.12802 0.16881,0.272 0.26725,0.42288c-0.12622,0.0999 -0.22787,0.1908 -0.39279,0.2381z" fill="#c1d9d9"/><path d="M276.47078,182.24481c-0.12622,0.0999 -0.23845,0.16796 -0.39632,0.1993c-0.06688,-0.17586 -0.03199,-0.3491 -0.02869,-0.49733c0.09107,-0.11371 0.21042,-0.10418 0.31921,-0.11748c0.04567,0.03665 0.08078,0.05047 0.07381,0.06639c0.01065,0.11635 0.02135,0.23271 0.03199,0.34911z" fill="#b7cdce"/><path d="M276.79945,183.98171c-0.06344,-0.2306 -0.00047,-0.37406 0.02741,-0.53135c0.01731,-0.18014 0.15065,-0.20246 0.30852,-0.23385c0.06688,0.17586 0.03902,0.33314 0.05325,0.4883c-0.10511,0.14559 -0.30167,0.1244 -0.38921,0.2769z" fill="#b6cccc"/><path d="M274.81131,188.22843c-0.14376,0.09301 -0.25597,0.16103 -0.3752,0.245c-0.16502,-0.04621 -0.27035,-0.08764 -0.35824,-0.21566c0.16834,-0.10205 0.31911,-0.211 0.46285,-0.30401c0.17899,0.01428 0.2072,0.13759 0.30557,0.19492c-0.014,0.03188 -0.01045,0.07069 -0.03499,0.07973z" fill="#c2dada"/><path d="M272.50423,178.75938c-0.10167,0.09085 -0.17532,0.11799 -0.27712,0.11538c-0.11236,-0.02551 -0.15456,-0.11687 -0.22136,-0.1992c-0.04926,-0.07546 -0.16512,-0.1397 -0.13369,-0.2582c0.12977,-0.06109 0.27009,-0.09939 0.44212,-0.06914c0.08092,0.14398 0.12669,0.27415 0.19004,0.41124z" fill="#bbd2d3"/><path d="M266.41704,185.82444c0.15789,-0.03137 0.27368,-0.06062 0.40699,-0.08297c0.07392,0.15992 0.08812,0.31507 0.11993,0.47716c-0.1122,0.06803 -0.22801,0.09731 -0.35088,0.04891c-0.02814,-0.02974 -0.05621,-0.05951 -0.0598,-0.09831c-0.04222,-0.09135 -0.07746,-0.19874 -0.11626,-0.34482z" fill="#bbd2d3"/><path d="M276.33248,186.63947c-0.13369,-0.25821 -0.13371,-0.25823 -0.10248,-0.56372c0.14378,-0.09302 0.29123,-0.05369 0.47022,-0.03936c-0.04532,0.24392 -0.22407,0.4166 -0.36774,0.60312z" fill="#adc2c3"/><path d="M267.84374,187.26416c0.1122,-0.06803 0.24559,-0.09037 0.37544,-0.05796c0.07392,0.15992 0.13729,0.29695 0.19358,0.44998c-0.36846,0.04205 -0.38601,0.03517 -0.56907,-0.392z" fill="#b5cbcc"/><path d="M275.40893,180.63085c-0.13678,0.07709 -0.24201,0.12914 -0.3999,0.16051c-0.10543,-0.13491 -0.09511,-0.29913 -0.14447,-0.46811c0.05612,-0.03402 0.1052,-0.05206 0.15431,-0.07017c0.04911,-0.01809 0.10877,-0.01332 0.17546,-0.02449c0.13701,0.10996 0.18278,0.2401 0.2146,0.4022z" fill="#bbd1d2"/><path d="M265.69261,184.66095c-0.12658,-0.18064 -0.06014,-0.37882 -0.09196,-0.54086c0.11922,-0.08394 0.24914,-0.05159 0.3825,-0.07391c0.04593,0.22367 0.01102,0.3969 -0.11864,0.55153c-0.02102,0.04782 -0.10522,0.05208 -0.17188,0.06327z" fill="#b6cccd"/><path d="M269.27522,178.61113c-0.21388,0.15891 -0.43833,0.29495 -0.6452,0.43792c-0.1159,-0.06429 -0.16513,-0.13969 -0.18637,-0.2789c0.25254,-0.10633 0.50509,-0.21262 0.78932,-0.25039c0.02113,0.04572 0.03167,0.06855 0.04224,0.09137z" fill="#acc1c2"/><path d="M273.22165,182.79896c-0.03832,0.22796 -0.09419,0.44902 -0.22031,0.6424c-0.05259,0.0728 -0.13322,0.11586 -0.22099,0.08134c-0.03507,-0.0138 -0.09131,-0.07332 -0.08432,-0.08927c0.08743,-0.24601 0.31529,-0.4368 0.5256,-0.63449z" fill="#a7bbbb"/><path d="M275.0745,179.84502c-0.07712,0.08184 -0.18587,0.09515 -0.31221,0.10153c-0.08092,-0.14398 -0.16178,-0.28796 -0.24271,-0.43194c0.12622,-0.0999 0.23855,-0.0744 0.36143,-0.02608c0.08433,0.08926 0.14771,0.22631 0.19347,0.35651z" fill="#b7cdcd"/><path d="M270.4003,188.56864c0.1578,-0.12491 0.31567,-0.15624 0.49111,-0.18073c0.11944,0.10306 0.1968,0.20825 0.20403,0.37934c-0.25266,0.01279 -0.45635,-0.08603 -0.69515,-0.19859z" fill="#b7cece"/><path d="M265.33938,182.83959c-0.03891,-0.23962 0.1223,-0.41923 0.10449,-0.61317c0.11219,-0.06801 0.17545,-0.02446 0.18957,0.03718c0.03179,0.16205 0.03903,0.33316 -0.03098,0.49254c-0.03855,0.04093 -0.04556,0.05684 -0.26311,0.08347z" fill="#b4cacb"/><path d="M269.92845,178.9989c-0.08433,-0.08923 -0.11601,-0.15778 -0.11616,-0.25128c0.1929,-0.1111 0.39277,-0.2381 0.69455,-0.26898c-0.10143,0.27788 -0.32943,0.37516 -0.57842,0.52026z" fill="#b2c8c9"/><path d="M267.02866,186.58842c0.08793,0.12801 0.14769,0.22631 0.14081,0.33577c-0.04555,0.05686 -0.10523,0.05211 -0.16491,0.04733c-0.23865,-0.01908 -0.27745,-0.16522 -0.29524,-0.35912c0.10177,0.00261 0.21057,-0.01068 0.31934,-0.02398z" fill="#b5cbcb"/><path d="M275.18872,184.13338c0.07343,-0.21413 0.1504,-0.38946 0.28706,-0.56003c0.09477,0.0186 0.1089,0.08021 0.08791,0.12802c-0.03145,0.1185 -0.04533,0.24393 -0.07676,0.36239c-0.05601,0.12751 -0.14021,0.13177 -0.2982,0.0696z" fill="#91a3a3"/><path d="M268.65728,181.19086c0.03891,0.23962 -0.06964,0.43996 -0.15364,0.63124c-0.014,0.03188 -0.06312,0.04997 -0.10522,0.05208c-0.03508,-0.01381 -0.0738,-0.06638 -0.0668,-0.08235c0.04532,-0.24392 0.17142,-0.43732 0.32563,-0.601z" fill="#99abac"/><path d="M267.57665,181.40146c-0.15089,0.01544 -0.23866,-0.0191 -0.23879,-0.11262c0.01389,-0.12542 0.119,-0.27097 0.28019,-0.4506c0.05293,0.20776 -0.02407,0.38307 -0.0414,0.56319z" fill="#93a5a6"/><path d="M272.18726,189.0471c0.21745,-0.12009 0.42432,-0.26308 0.68437,-0.01128c-0.22447,0.13602 -0.45267,0.04629 -0.68437,0.01128z" fill="#9aadad"/><path d="M273.21523,186.04912c0.00331,-0.14827 0.01363,-0.31241 0.00998,-0.44475c0.08768,-0.05899 0.14733,-0.05423 0.24568,0.00315c0.02481,0.17802 -0.11541,0.30981 -0.16084,0.46018c-0.03508,-0.01381 -0.05266,-0.02073 -0.09481,-0.01859z" fill="#c5dddd"/><path d="M270.85897,182.13149c0.06702,0.26937 -0.024,0.47662 -0.18518,0.65623c-0.00701,0.01595 -0.04913,0.01809 -0.08423,0.00428c-0.05968,-0.00478 -0.0738,-0.06638 -0.05978,-0.09828c0.05938,-0.18225 0.1961,-0.35286 0.3292,-0.56223z" fill="#aec2c3"/><path d="M265.90708,184.96961c0.06688,0.17586 0.04959,0.35596 0.03925,0.52018c-0.08765,0.059 -0.15092,0.01542 -0.15803,-0.06214c-0.02123,-0.13922 -0.04944,-0.26247 -0.04611,-0.41071c-0.02113,-0.04572 0.05253,-0.07279 0.16489,-0.04731z" fill="#9caeaf"/><path d="M274.29103,179.14432c-0.13702,-0.10997 -0.21433,-0.21513 -0.29525,-0.35914c0.25622,0.02599 0.42836,0.14975 0.63903,0.23262c-0.03857,0.04093 -0.05258,0.07281 -0.07711,0.08182c-0.09123,0.02018 -0.17542,0.02446 -0.26665,0.04469z" fill="#a9bebf"/><path d="M268.75915,184.05365c0.13691,0.01646 0.20009,0.06 0.24936,0.13549c-0.05246,0.1663 -0.16812,0.28905 -0.41367,0.37944c0.04888,-0.20512 0.11189,-0.34857 0.16429,-0.5149z" fill="#b9cfd0"/><path d="M274.44678,185.82311c0.08767,-0.05898 0.1649,-0.04728 0.24212,-0.03563c0.07378,0.06641 0.03881,0.14609 -0.18186,0.50798c-0.16869,-0.17851 -0.03903,-0.33315 -0.06026,-0.47236z" fill="#869797"/><path d="M269.79155,181.74912c-0.16465,0.23433 -0.10463,0.51968 -0.43441,0.61428c0.03474,-0.26675 0.13627,-0.45112 0.43441,-0.61428z" fill="#93a4a5"/><path d="M276.44464,183.71129c-0.10498,0.23909 -0.17499,0.39852 -0.24497,0.55793c-0.014,0.03188 -0.06312,0.04998 -0.11575,0.02922c-0.01758,-0.00691 -0.04566,-0.03667 -0.05624,-0.0595c0.04884,-0.2051 0.12586,-0.3805 0.41694,-0.52768z" fill="#94a5a6"/><path d="M275.39456,185.91548c0.13335,-0.0223 0.19298,-0.01758 0.25279,0.0807c-0.03843,0.13442 -0.08387,0.28482 -0.20654,0.42352c-0.12655,-0.18066 -0.05657,-0.34002 -0.04627,-0.5042z" fill="#abbfc0"/><path d="M277.08935,182.89932c-0.10178,-0.00262 -0.14389,-0.00051 -0.17903,-0.01432c-0.09515,-0.29913 -0.09512,-0.29909 0.05553,-0.50154c0.13356,0.16468 0.06361,0.32408 0.12347,0.51587z" fill="#acc0c1"/><path d="M272.75149,188.37165c0.16136,-0.0861 0.31211,-0.19505 0.491,-0.27425c0.07366,-0.02711 0.14389,0.00054 0.15455,0.11686c-0.19292,0.11108 -0.37876,0.20622 -0.64554,0.15736z" fill="#9fb2b2"/><path d="M275.76329,180.52714c-0.0598,-0.09832 -0.09144,-0.16684 -0.09158,-0.26032c0.06311,-0.04998 0.12977,-0.06115 0.22456,-0.04256c0.09832,0.05738 0.13354,0.1647 0.16877,0.27202c-0.07712,0.08184 -0.18944,0.05634 -0.30175,0.03085z" fill="#aec2c3"/><path d="M271.03499,185.34125c-0.10543,-0.13491 -0.05645,-0.24654 -0.02502,-0.36503c0.02103,-0.04781 0.08764,-0.05898 0.14031,-0.03826c0.03508,0.01381 0.07382,0.06641 0.0598,0.09828c0.01067,0.11634 -0.06644,0.19823 -0.17511,0.305z" fill="#91a2a3"/><path d="M273.1812,178.4835c-0.31212,0.19505 -0.33665,0.20414 -0.46692,-0.10882c0.15445,0.02337 0.31235,-0.00803 0.46692,0.10882z" fill="#869696"/><path d="M266.60048,180.99884c-0.10201,-0.18968 -0.00737,-0.26459 0.05919,-0.36929c0.123,0.14186 0.123,0.14186 -0.05919,0.36929z" fill="#555f5f"/><path d="M272.29485,185.33199c-0.03499,0.07971 -0.08398,0.19127 -0.18565,0.28217c-0.09501,-0.20562 -0.067,-0.26936 0.05217,-0.35333c0.03157,-0.02498 0.08424,-0.00428 0.13344,0.07119z" fill="#93a5a6"/><path d="M277.12595,184.12881c0.09158,0.26033 0.06005,0.28534 -0.24189,0.22266c0.0139,-0.12543 0.11908,-0.1775 0.24189,-0.22266z" fill="#8b9b9c"/><path d="M266.47679,180.29595c-0.01733,0.18013 -0.09087,0.30071 -0.16445,0.42138c-0.12633,0.00642 -0.16501,-0.04621 -0.13698,-0.10998c0.05599,-0.12752 0.12955,-0.24815 0.3014,-0.31141z" fill="#9aacad"/><path d="M276.84229,181.77396c0.07031,0.12113 0.15467,0.2104 0.08114,0.33103c-0.00703,0.01594 -0.03155,0.02499 -0.04912,0.01809c-0.14402,-0.09403 -0.13713,-0.2035 -0.03201,-0.3491z" fill="#5f6a6b"/><path d="M269.91467,184.75112c-0.02468,-0.08447 0.00332,-0.14828 0.0489,-0.20512c0.03157,-0.02498 0.08065,-0.04304 0.10877,-0.01329c0.02814,0.02974 0.04926,0.07545 0.03522,0.10733c-0.02801,0.06373 -0.07355,0.1206 -0.19289,0.11106z" fill="#636e6f"/><path d="M275.38325,179.70474c0.14389,0.00053 0.22467,0.05096 0.23892,0.20611c-0.16845,0.00851 -0.21769,-0.06689 -0.23892,-0.20611z" fill="#4a5354"/></g><g data-paper-data="{&quot;index&quot;:null}" fill="#000000" fill-rule="nonzero" stroke="#000000" stroke-width="1.2" stroke-linecap="butt" stroke-linejoin="miter"><path d="M253.51706,202.13132c-0.37511,-1.82797 1.44835,-4.63483 1.85435,-6.89362c0.43714,-2.4319 -0.51194,-4.146 0.59692,-5.35676c0.77454,-0.84571 2.36104,-0.77085 3.17685,-0.6242c1.98377,0.35656 2.99005,3.99411 2.24759,8.12467c-0.74244,4.13056 -2.95247,7.19 -4.93622,6.83343c-0.89894,-0.16157 -2.62865,-0.56873 -2.9395,-2.08349z"/><path d="M256.6083,204.88185c-0.49986,-2.55353 1.51936,-8.20508 1.51936,-8.20508c0,0 -0.42994,-3.9046 -0.41312,-3.98954c1.07034,-5.41279 4.51646,-4.85541 8.42266,-4.15328c1.8591,0.33415 4.58236,1.6018 5.29293,3.48428c0.80588,2.13494 -0.24422,4.72763 -0.78933,7.76031c-1.02576,5.70669 -4.25064,10.13434 -8.21815,9.4212c-1.74649,-0.31392 -5.14671,-0.90739 -5.81433,-4.3179z"/></g><path d="M213.87196,163.46978l16.89679,7.17317l-18.49083,1.43464" fill="none" fill-rule="nonzero" stroke="#000000" stroke-width="4.5" stroke-linecap="round" stroke-linejoin="miter"/><path d="M261.71785,168.17625l-16.09977,-1.27523l9.24541,-9.56422" fill="none" fill-rule="nonzero" stroke="#000000" stroke-width="4.5" stroke-linecap="round" stroke-linejoin="miter"/><path d="M238.28551,177.89985l-13.70872,2.86927" fill="none" fill-rule="nonzero" stroke="#000000" stroke-width="4.5" stroke-linecap="round" stroke-linejoin="miter"/><g fill="#ff0000" fill-rule="nonzero" stroke="none" stroke-linecap="butt" stroke-linejoin="miter"><path d="M255.09584,217.07723c0.95354,0.73162 1.29604,2.08027 0.76499,3.01228c-0.53105,0.93201 -1.73456,1.09445 -2.6881,0.36283c-0.95354,-0.73162 -1.29605,-2.08026 -0.765,-3.01228c0.53105,-0.93201 1.73457,-1.09446 2.68811,-0.36283z" stroke-width="NaN"/><path d="M260.10725,217.68857c0.87726,0.67309 1.20578,1.89034 0.73372,2.71879c-0.47205,0.82845 -1.56588,0.95441 -2.44314,0.2813c-0.87726,-0.67309 -1.20576,-1.89035 -0.73371,-2.71881c0.47205,-0.82845 1.56587,-0.95439 2.44313,-0.2813z" stroke-width="0"/><path d="M261.64806,222.82317c0.9154,0.70236 1.27484,1.94334 0.80278,2.77178c-0.47205,0.82845 -1.5968,0.93067 -2.51221,0.2283c-0.9154,-0.70236 -1.27483,-1.94333 -0.80278,-2.77178c0.47205,-0.82845 1.5968,-0.93067 2.51219,-0.22831z" stroke-width="0"/><path d="M252.23773,209.04265c-0.60319,0.49729 -1.63796,0.22825 -2.31125,-0.60096c-0.67328,-0.82921 -0.73011,-1.90454 -0.12691,-2.40183c0.60319,-0.49729 1.63797,-0.22825 2.31126,0.60096c0.67328,0.82921 0.7301,1.90454 0.1269,2.40183z" stroke-width="NaN"/><path d="M251.50409,212.98943c-0.55493,0.45751 -1.48995,0.23091 -2.08842,-0.50616c-0.59847,-0.73707 -0.63377,-1.70547 -0.07883,-2.16298c0.55493,-0.45751 1.48995,-0.23089 2.08843,0.50617c0.59847,0.73707 0.63377,1.70546 0.07882,2.16297z" stroke-width="0"/><path d="M254.73421,212.92563c-0.62731,0.5172 -1.6008,0.36384 -2.17433,-0.34251c-0.57353,-0.70635 -0.52993,-1.69823 0.09739,-2.21542c0.62731,-0.5172 1.6008,-0.36383 2.17433,0.34252c0.57353,0.70635 0.52993,1.69821 -0.09738,2.21541z" stroke-width="0"/><path d="M246.15207,222.8061c0.75172,0.96498 0.69092,2.26433 -0.1358,2.90219c-0.82672,0.63785 -2.10629,0.37264 -2.85801,-0.59234c-0.75172,-0.96498 -0.69092,-2.26432 0.13579,-2.90217c0.82672,-0.63785 2.1063,-0.37266 2.85801,0.59233z" stroke-width="NaN"/><path d="M251.0879,225.04029c0.69158,0.88779 0.6565,2.06709 -0.07836,2.63407c-0.73485,0.56697 -1.89121,0.3069 -2.58278,-0.58088c-0.69158,-0.88779 -0.6565,-2.0671 0.07835,-2.63407c0.73485,-0.56697 1.89121,-0.3069 2.5828,0.58089z" stroke-width="0"/><path d="M244.91449,214.99371c-0.76801,0.23199 -1.74368,-0.35466 -2.17921,-1.31029c-0.43553,-0.95564 -0.16599,-1.91839 0.60202,-2.15038c0.76801,-0.23199 1.74367,0.35466 2.1792,1.3103c0.43553,0.95564 0.166,1.91839 -0.60201,2.15037z" stroke-width="NaN"/><path d="M239.17402,216.1444c-0.7373,0.2227 -1.64881,-0.28539 -2.03596,-1.13485c-0.38715,-0.84946 -0.10329,-1.71862 0.634,-1.94132c0.7373,-0.2227 1.64882,0.28538 2.03597,1.13484c0.38715,0.84946 0.10328,1.71863 -0.63401,1.94133z" stroke-width="0"/><path d="M246.28315,219.24649c-0.79873,0.24126 -1.74699,-0.22309 -2.118,-1.03715c-0.37101,-0.81406 -0.02428,-1.66958 0.77445,-1.91084c0.79873,-0.24126 1.747,0.22309 2.11801,1.03715c0.37101,0.81406 0.02427,1.66958 -0.77447,1.91084z" stroke-width="0"/></g></g></g></svg>