<svg version="1.1" xmlns="http://www.w3.org/2000/svg" xmlns:xlink="http://www.w3.org/1999/xlink" width="41.05281" height="44.08283" viewBox="0,0,41.05281,44.08283"><g transform="translate(-219.74746,-159.40149)"><g data-paper-data="{&quot;isPaintingLayer&quot;:true}" fill="#ff6666" fill-rule="nonzero" stroke="none" stroke-width="0" stroke-linecap="butt" stroke-linejoin="miter" stroke-miterlimit="10" stroke-dasharray="" stroke-dashoffset="0" style="mix-blend-mode: normal"><path d="M249.75418,164.50438c-1.15748,2.46591 -3.96554,4.85226 -3.96554,4.85226c0,0 0.20509,-3.58163 1.36257,-6.04754c1.15748,-2.46591 2.6785,-4.19734 3.39729,-3.86727c0.71879,0.33007 0.36317,2.59666 -0.79431,5.06256z"/><path d="M256.82279,190.00429c-1.92925,-0.88057 -3.62865,-2.78952 -3.62865,-2.78952c0,0 2.60826,-0.12733 4.53751,0.75325c1.92925,0.88057 3.28975,2.05026 3.03879,2.61256c-0.25098,0.5623 -2.0184,0.30429 -3.94765,-0.57629z"/><path d="M223.73176,170.37807c1.9303,0.88894 3.59782,3.01249 3.59782,3.01249c0,0 -2.58517,-0.08612 -4.51546,-0.97505c-1.9303,-0.88894 -3.28968,-2.06566 -3.03628,-2.62827c0.25341,-0.56262 2.02363,-0.2981 3.95393,0.59084z"/><path d="M229.48994,199.13557c0.92686,-2.12121 3.53792,-4.42524 3.53792,-4.42524c0,0 -0.37255,3.25987 -1.29941,5.38109c-0.92686,2.12121 -2.17933,3.62681 -2.79747,3.36287c-0.61815,-0.26395 -0.36789,-2.1975 0.55897,-4.31871z"/><path d="M234.12645,182.38731c0,0 -0.87079,0.77809 -1.28584,0.82407c-0.41505,0.04598 -0.77609,-0.13852 -0.80639,-0.41207c-0.0303,-0.27356 0.2816,-0.53259 0.69665,-0.57857c0.41505,-0.04598 1.39557,0.16658 1.39557,0.16658z"/><path d="M246.25618,179.2349c0,0 0.73251,-0.70671 1.12481,-0.82296c0.39229,-0.11624 0.77241,-0.00088 0.84903,0.25768c0.07661,0.25856 -0.17929,0.56239 -0.57158,0.67863c-0.39229,0.11624 -1.40225,-0.11336 -1.40225,-0.11336z"/></g></g></svg>