<svg version="1.1" xmlns="http://www.w3.org/2000/svg" xmlns:xlink="http://www.w3.org/1999/xlink" width="128.97093" height="122.03936" viewBox="0,0,128.97093,122.03936"><defs><linearGradient x1="180.7808" y1="204.93865" x2="202.25299" y2="198.43207" gradientUnits="userSpaceOnUse" id="color-1"><stop offset="0" stop-color="#000000"/><stop offset="1" stop-color="#000000" stop-opacity="0"/></linearGradient></defs><g transform="translate(-76.99633,-120.73472)"><g stroke-miterlimit="10"><path d="M122.41807,166.74065l10.29817,12.10986" fill="none" fill-rule="nonzero" stroke="#000000" stroke-width="6" stroke-linecap="round" stroke-linejoin="miter"/><path d="M153.05613,163.10219c0,0 7.02779,3.53514 7.14429,4.64993c0.21097,2.01852 -3.54434,17.19464 -3.54434,17.19464c0,0 -11.50424,-4.1734 -14.34312,-4.2605c-0.47599,-0.01459 -12.67429,0.2227 -12.67429,0.2227" fill="none" fill-rule="nonzero" stroke="#000000" stroke-width="6" stroke-linecap="round" stroke-linejoin="miter"/><g><g><g stroke="#001026" stroke-width="1.2"><path d="M126.99798,161.73541l-24.50449,-9.13442c0,0 -3.55912,6.11424 -9.81781,2.75611c-0.35681,-0.19145 -2.08463,-1.17885 -1.28524,-4.04457c0.76566,-2.74476 4.02516,-7.33841 5.22695,-9.0114c0.55818,-0.77703 1.78043,-1.77228 3.17489,-2.09767c1.40399,-0.32761 2.79176,0.48745 3.59759,0.8963c0.32822,0.16652 27.08417,11.38655 27.08417,11.38655" fill="#bf0000" fill-rule="evenodd" stroke-linecap="round" stroke-linejoin="round"/><path d="M125.32471,149.68265c6.41413,3.44154 4.11086,8.2679 2.7935,10.7231c-0.57284,1.06762 1.23618,1.80036 -4.3257,0.18495c-1.22495,-0.35578 -6.02549,-2.26711 -10.38132,-3.3612c-2.98272,-0.7492 -5.92114,-0.80913 -6.7075,-0.94054c-1.85797,-0.31053 -3.21548,-1.25745 -3.21548,-1.25745l1.52337,-0.37163c0,0 -1.04414,0.22445 -1.60759,0.24076c-1.75525,0.05081 -3.0839,0.0968 -3.0839,0.0968c0,0 3.62886,-6.14683 2.85755,-9.6474c-0.77131,-3.50056 -5.20364,-4.20439 -5.20364,-4.20439c0,0 3.10804,-4.34176 5.89652,-3.40355c0.68744,0.23129 2.22311,1.92661 2.22311,1.92661c0,0 0.16487,-0.59292 0.61707,-0.38582c0.23053,0.10556 3.21799,2.52506 6.90855,4.59562c4.85836,2.72574 10.78131,5.30824 11.70547,5.80409z" fill="#000000" fill-rule="nonzero" stroke-linecap="butt" stroke-linejoin="miter"/></g><path d="M134.02487,143.93863c0.195,0.08773 -0.91289,0.88133 -2.21516,3.2915c-1.71804,3.17963 -3.83473,8.30973 -4.34161,9.79701c-1.3144,3.85676 -0.2694,5.15136 -0.78635,4.91882c-1.91304,-0.86056 -4.34465,-4.65017 -2.44916,-8.86385c0.83296,-1.85172 2.08141,-5.86972 3.80102,-7.63217c2.19344,-2.24811 4.91894,-1.99368 5.99128,-1.51131z" fill="#004fd9" fill-rule="nonzero" stroke="#001026" stroke-width="1.2" stroke-linecap="butt" stroke-linejoin="miter"/><g fill-rule="nonzero" stroke-linecap="butt" stroke-linejoin="miter"><g fill="none" stroke="none" stroke-width="1" font-family="sans-serif" font-weight="normal" font-size="12" text-anchor="start"/><path d="M135.46062,144.12008c0,0 -5.09383,7.13789 -6.8774,10.70015c-1.78359,3.56227 -2.04051,7.11119 -2.04051,7.11119c0,0 -1.84398,-0.89879 -2.82213,-3.38569c-0.75714,-1.92501 -0.99096,-5.00612 0.52225,-8.06903c1.37859,-2.7904 3.53065,-5.5925 5.50405,-6.51958c2.99111,-1.40518 5.71375,0.16296 5.71375,0.16296z" fill="#000000" stroke="#001026" stroke-width="1.2"/></g><g stroke="#001026" stroke-width="1.2"><path d="M126.49554,150.31491c0,0 -25.44091,-16.67806 -25.25093,-17.27398c0.54515,-1.71013 7.22,-9.2141 7.22,-9.2141l24.29539,19.30161" fill="#ffab19" fill-rule="evenodd" stroke-linecap="round" stroke-linejoin="round"/><path d="M126.25469,151.8692c0,0 -5.34595,-3.59363 -8.26437,-5.33343c-2.79919,-1.66873 -8.90346,-4.90111 -8.90346,-4.90111c0,0 -4.90559,-1.42057 -5.59025,-2.80757c-0.31712,-0.64241 2.87471,0.59452 2.87471,0.59452c0,0 -3.59662,-1.39778 -3.91539,-1.5175c-2.22414,-0.83531 -4.45517,-3.29407 -3.31447,-6.19838c1.25242,-3.18875 3.48124,-8.398 6.46501,-10.15412c1.26955,-0.7472 4.11623,-1.18853 6.13583,0.34119c2.27758,1.72509 3.66778,5.49861 3.66778,5.49861l-1.72715,-3.69515c0,0 1.44189,0.70088 2.30591,1.59741c0.97031,1.0068 3.23412,4.15105 3.23412,4.15105l14.83105,13.56739" fill="#000000" fill-rule="evenodd" stroke-linecap="round" stroke-linejoin="round"/><path d="M101.87002,135.97765c-1.47571,-0.84324 -2.92005,-2.3565 -3.14974,-4.1696c-0.23054,-1.81981 4.25853,-9.78164 6.01706,-10.47333c1.67,-0.65687 3.88387,-0.14773 5.32412,0.67525c2.95688,1.68961 3.52022,6.18608 1.2582,10.04314c-2.262,3.85704 -6.49275,5.61412 -9.44966,3.92449z" fill="#ff0000" fill-rule="nonzero" stroke-linecap="butt" stroke-linejoin="miter"/></g></g><g fill="#000000" fill-rule="nonzero" stroke="#001026" stroke-width="1.2" stroke-linecap="butt" stroke-linejoin="miter"><path d="M124.59968,140.08696c0,0 0.9077,-2.80743 1.54506,-3.48401c0.19621,-0.20826 1.36095,-0.43964 2.52355,-0.27088c1.45104,0.21063 3.00715,0.92952 3.92538,1.76484c2.36243,2.14917 3.37544,7.58049 1.90472,9.14173c-0.63739,0.67663 -3.92342,1.62708 -3.92982,1.6258"/></g></g><g fill-rule="nonzero" stroke-linecap="butt" stroke-linejoin="miter"><g stroke="none" stroke-width="1"><path d="M129.60131,165.77395c0.21184,-0.00888 0.30072,0.10977 0.38024,0.26754c0.10551,0.25897 0.15687,0.53415 0.24424,0.79857c0.06724,0.03435 0.13445,0.06873 0.19731,0.08622c1.32005,0.44035 2.21207,1.3356 2.95367,2.40296c0.15542,0.22586 0.32891,0.44639 0.39825,0.71615c0.01297,0.05059 0.04842,0.11262 0.09327,0.13553c0.24653,0.12599 0.30289,0.34518 0.38169,0.57586c0.07011,0.19691 0.10407,0.40467 0.15609,0.607c0.03035,0.11801 0.02456,0.24687 -0.06219,0.36365c-0.08677,0.11673 -0.10631,0.26786 -0.13013,0.40209c-0.05286,0.77847 -0.24522,1.54421 -0.55901,2.29181c-0.18439,0.41834 -0.44033,0.78545 -0.71434,1.15795c-0.80833,1.09531 -1.86604,1.90207 -3.09724,2.48839c-0.5567,0.25734 -1.15313,0.4358 -1.76688,0.54682c-0.46483,0.0846 -0.9239,0.04035 -1.36924,-0.02615c-1.41695,-0.21161 -2.57719,-0.86319 -3.52703,-1.83194c-0.18287,-0.18135 -0.32023,-0.41262 -0.45755,-0.64391c-0.0976,-0.15237 -0.20891,-0.28251 -0.41567,-0.32961c-0.18432,-0.03566 -0.29565,-0.16576 -0.37516,-0.32355c-0.10551,-0.25897 -0.17489,-0.52876 -0.24425,-0.79855c-0.02168,-0.08433 -0.00288,-0.1626 0.01595,-0.24086c0.10195,-0.28471 0.09113,-0.55386 0.03981,-0.82906c-0.12938,-0.5787 -0.06928,-1.17775 -0.02729,-1.77137c0.02027,-0.22398 0.05858,-0.45333 0.13738,-0.67667c0.24152,-0.72597 0.50978,-1.42366 0.96672,-2.06881c-0.06504,-0.25291 -0.11633,-0.52811 -0.18575,-0.79788c-0.02602,-0.10119 -0.05636,-0.2192 0.03474,-0.31907c0.07301,-0.09446 0.02895,-0.19027 0.00292,-0.29141c-0.15538,-0.67984 -0.32882,-1.3543 -0.48419,-2.03416c-0.36781,-1.50608 -0.74003,-3.02899 -1.07172,-4.54587c-0.32301,-1.48317 -0.70028,-2.95008 -1.05942,-4.42243c-0.06072,-0.23606 -0.08092,-0.46607 -0.14164,-0.7021c-0.29485,-1.14656 -0.5897,-2.29314 -0.8665,-3.44511c-0.05203,-0.20232 -0.14019,-0.39386 -0.07945,-0.61176c0.01879,-0.0783 -0.02095,-0.15715 -0.0426,-0.24147c-0.21684,-0.84307 -0.41988,-1.7084 -0.6367,-2.55148c-0.00866,-0.03373 -0.02166,-0.08431 -0.03035,-0.11801c-0.08747,-0.26437 0.00438,-0.43713 0.22706,-0.63087c0.74973,-0.64198 1.60931,-1.00813 2.57876,-1.09848c0.24796,-0.01971 0.50459,-0.00571 0.75184,0.04742c0.18434,0.03566 0.29133,0.14889 0.35277,0.31208c0.18428,0.48963 0.38667,0.97381 0.57531,1.48032c0.13155,0.36015 0.23128,0.74796 0.41705,1.09186c0.40692,0.74984 0.60134,1.58147 0.95408,2.34751c0.18937,0.43361 0.41057,0.83957 0.58188,1.27862c0.17995,0.47274 0.39174,0.91785 0.58547,1.36828c0.34765,0.82208 0.6635,1.67184 1.02923,2.48849c0.50738,1.06479 0.94252,2.15129 1.37763,3.2377c0.15396,0.37162 0.30792,0.74313 0.46186,1.11474c0.22843,0.58538 0.46113,1.18759 0.68949,1.77296c0.12289,0.32642 0.27755,0.62516 0.40044,0.95155c0.14531,0.3379 0.22767,0.65822 0.35922,1.01838zM129.21018,166.1452c-0.2429,-0.03629 -0.47713,-0.03886 -0.7164,0.01457c-0.50895,-0.01113 -1.0056,0.10114 -1.50227,0.21345c-0.62753,0.13329 -1.25575,0.33942 -1.86593,0.54016c-0.70054,0.22778 -1.3035,0.60792 -1.92022,1.01035c-0.06362,0.05536 -0.12724,0.1107 -0.22266,0.19372c0.03465,0.13487 0.06941,0.26977 0.10408,0.40465c0.00866,0.03373 0.0354,0.06205 0.0665,0.10721c0.12651,-0.03784 0.2487,-0.09256 0.36655,-0.16413c0.20387,-0.11549 0.39835,-0.19181 0.60221,-0.30727c0.51619,-0.2634 1.08951,-0.38051 1.6187,-0.5933c0.28483,-0.10342 0.561,-0.24046 0.85451,-0.31013c0.64559,-0.13871 1.26949,-0.36167 1.93239,-0.43291c0.17134,-0.01495 0.36073,-0.03532 0.5321,-0.05025c0.09831,0.07956 0.23423,0.00253 0.33328,0.00923c0.12144,0.01814 0.24291,0.03627 0.43734,-0.0401c-0.18287,-0.18135 -0.18503,-0.41678 -0.30935,-0.59747c-0.09471,0.01017 -0.193,-0.06934 -0.31086,0.00223zM128.33985,165.78821c0.45473,0.0274 0.56747,0.01179 0.79378,-0.09223c-0.07011,-0.19691 -0.1359,-0.37701 -0.20599,-0.57393c-0.03035,-0.11801 -0.1243,-0.18072 -0.24577,-0.19885c-0.08102,-0.0121 -0.17132,0.01496 -0.25229,0.00286c-0.30147,-0.03694 -0.62173,0.00444 -0.90657,0.10782c-0.1482,-0.04642 -0.29277,-0.00322 -0.43738,0.04007c-0.81763,0.22648 -1.62157,0.43073 -2.41754,0.74151c-0.35281,0.14188 -0.70131,0.30062 -1.02733,0.47081c-0.25379,0.14858 -0.52562,0.30255 -0.69045,0.56977c0.05638,0.21921 0.11278,0.43837 0.16911,0.65759c0.13592,-0.07695 0.25379,-0.14857 0.35353,-0.2147c0.47138,-0.28627 0.95141,-0.53889 1.44882,-0.72403c0.63764,-0.24523 1.29698,-0.40621 1.95196,-0.58404c0.30727,-0.09194 0.62245,-0.07732 0.92536,-0.18609c0.193,0.06934 0.3781,0.03214 0.54074,-0.01651zM121.27263,147.69218c-0.27905,-0.02545 -0.5364,0.03336 -0.78509,0.12594c-0.02239,-0.01145 -0.06292,-0.01751 -0.081,-0.01207c-0.42943,0.14664 -0.8502,0.32699 -1.2088,0.59774c-0.21332,0.15462 -0.4309,0.29236 -0.56392,0.53188c0.24281,0.94425 0.48568,1.88843 0.74146,2.88331c0.38606,-0.31523 0.79818,-0.52939 1.21457,-0.72657c0.36223,-0.18102 0.73669,-0.23857 1.10757,-0.38586c0.14457,-0.04328 0.27544,-0.06429 0.42003,-0.10755c0.23854,0.01943 0.48654,-0.00029 0.76195,-0.06453c-0.13009,-0.50586 -0.39611,-0.93471 -0.55366,-1.39599c-0.17997,-0.47275 -0.37802,-0.94011 -0.55366,-1.39599c-0.193,-0.06935 -0.34628,-0.05984 -0.49954,-0.05027zM122.59603,150.94608c-0.14821,-0.0464 -0.29714,-0.02006 -0.44169,0.02322c-0.16195,-0.02422 -0.32029,0.04133 -0.48727,0.07312c-0.51042,0.13459 -0.99913,0.35342 -1.46109,0.60059c-0.27182,0.15395 -0.53499,0.34169 -0.74464,0.58599c0.01733,0.06745 0.01662,0.14029 0.03399,0.20775c0.21245,0.82626 0.42057,1.63553 0.615,2.46715c0.20741,0.88218 0.41049,1.74752 0.61787,2.62972c0.31149,1.28688 0.60051,2.56228 0.91202,3.84914c0.33242,1.44403 0.71475,2.85496 1.01098,4.30982c0.0426,0.24146 0.12578,0.48896 0.19078,0.74191c0.18144,-0.12692 0.33614,-0.28217 0.52629,-0.37537c0.59356,-0.34104 1.23119,-0.58628 1.87751,-0.79783c0.57834,-0.17304 1.16103,-0.32922 1.74376,-0.48541c0.24365,-0.03658 0.46485,-0.08461 0.70849,-0.12119c0.17058,0.05793 0.3246,-0.02449 0.47786,-0.03404c0.17134,-0.01495 0.33326,0.00924 0.50968,-0.0617c-0.00721,-0.17942 -0.07806,-0.30353 -0.12647,-0.41612c-0.45466,-0.93536 -0.76903,-1.9308 -1.16945,-2.88235c-0.25516,-0.61371 -0.51028,-1.22741 -0.78353,-1.83567c-0.34765,-0.82208 -0.70904,-1.62186 -1.05236,-2.42708c-0.28624,-0.65885 -0.57244,-1.31774 -0.84059,-1.98201c-0.2992,-0.70947 -0.57602,-1.40746 -0.8572,-2.12233c-0.26382,-0.6474 -0.53198,-1.31168 -0.8182,-1.97055c-0.16697,0.03181 -0.30147,-0.0369 -0.44169,0.0232zM122.36987,175.34639c0.35857,-0.2707 0.72082,-0.45173 1.07865,-0.6496c0.37596,-0.20329 0.72945,-0.41803 1.10973,-0.60443c0.36223,-0.18102 0.75119,-0.33371 1.11774,-0.49782c0.38464,-0.16955 0.76924,-0.33913 1.17623,-0.49723c0.37087,-0.14726 0.76418,-0.28308 1.13505,-0.43038c0.39327,-0.13581 0.80392,-0.20422 1.17986,-0.4075c0.40552,-0.0124 0.78582,-0.1988 1.16972,-0.29555c0.40627,-0.08521 0.822,-0.20964 1.22828,-0.29488c0.3882,-0.07982 0.79884,-0.14821 1.1914,-0.21119c0.41067,-0.06838 0.82055,-0.06389 1.21813,-0.18288c-0.06792,-0.4155 -0.09825,-0.53349 -0.3209,-0.79376c-0.23854,-0.01943 -0.47714,-0.03886 -0.74315,-0.0137c-0.32026,0.04135 -0.64052,0.08266 -0.98319,0.11256c-0.64486,0.06581 -1.26731,0.14314 -1.8999,0.33239c-0.43378,0.1298 -0.86322,0.27645 -1.31435,0.33877c-0.09471,0.01017 -0.20315,0.04263 -0.30288,0.10878c-0.20387,0.11549 -0.44319,0.16891 -0.66005,0.23383c-0.79526,0.23794 -1.56449,0.57704 -2.31131,0.92763c-0.99554,0.44315 -1.92453,0.99348 -2.84052,1.59445c-0.18579,0.11007 -0.37159,0.22012 -0.47712,0.41514c0.02888,0.26375 0.112,0.51128 0.24859,0.81539zM130.18759,175.16814c0.08819,-0.26247 0.10414,-0.50329 0.13813,-0.74952c0.0427,-0.21251 0.00873,-0.42025 -0.11561,-0.60097c-0.20817,-0.35536 -0.36649,-0.74382 -0.45245,-1.1539c-0.00866,-0.03373 -0.03972,-0.07892 -0.04406,-0.09575c-0.10337,-0.02352 -0.17564,-0.00188 -0.25304,0.07571c-0.01375,0.02224 -0.02314,0.06141 -0.0188,0.07828c0.07153,0.50522 0.10691,1.02121 0.10612,1.54805c-0.00075,0.07285 0.00721,0.17942 0.06073,0.23607c0.14166,0.24816 0.28335,0.49629 0.57901,0.66206zM130.61728,172.29765c0.06287,0.47147 0.08522,0.93689 0.08515,1.39088c-0.00144,0.14567 0.04697,0.25832 0.1359,0.37697c0.14239,0.17528 0.3123,0.30606 0.4865,0.4537c0.05351,0.05664 0.11131,0.13011 0.21109,0.06394c0.01666,-0.31369 0.05571,-0.61595 0.03623,-0.91878c-0.48939,-0.61624 -0.48936,-0.61624 -0.71556,-1.42015c-0.06723,-0.03437 -0.14388,-0.02958 -0.2393,0.05344zM125.74193,171.95867c-0.00576,-0.32515 -0.02958,-0.64489 -0.05341,-0.96462c0.00075,-0.07285 0.00145,-0.1457 -0.03396,-0.20773c-0.19587,-0.23192 -0.37374,-0.46925 -0.64697,-0.62357c-0.16484,0.26722 -0.15401,0.53637 -0.20176,0.80489c-0.02388,0.13423 0.02023,0.23 0.10481,0.33181c0.21396,0.22653 0.3918,0.46388 0.55582,0.72345c0.00434,0.01688 0.04479,0.02294 0.08961,0.04581c0.04987,-0.03309 0.11789,-0.0716 0.18581,-0.11009zM126.58598,176.30026c0.16559,-0.34008 0.20898,-0.62547 0.27044,-0.91622c0.01014,-0.11198 -0.02962,-0.19087 -0.06937,-0.26976c-0.21252,-0.37221 -0.37077,-0.76071 -0.46112,-1.18764c-0.01299,-0.05058 -0.04406,-0.09575 -0.0571,-0.14633c-0.20316,0.04261 -0.23496,0.07029 -0.20027,0.20518c0.11276,0.43843 0.13076,0.88699 0.04977,1.32887c-0.04774,0.2685 0.02236,0.46545 0.16911,0.65762c0.10265,0.09642 0.18288,0.18137 0.29852,0.32834zM128.48028,172.91888c-0.09034,0.02706 -0.09106,0.09992 -0.07374,0.16737c0.12139,0.47211 0.09389,0.97061 0.06636,1.46917c-0.01304,0.40337 0.15899,0.76957 0.52548,1.05939c0.08748,-0.18961 0.06219,-0.36364 0.11353,-0.54242c0.09835,-0.37444 0.01595,-0.6948 -0.14304,-1.01042c-0.16769,-0.34932 -0.35344,-0.69326 -0.41272,-1.07501c-0.03109,-0.04515 -0.0535,-0.05665 -0.07592,-0.06808zM127.84671,175.90488c0.05642,-0.23477 0.11213,-0.39671 0.1497,-0.55323c0.07012,-0.25705 0.03619,-0.4648 -0.0968,-0.67923c-0.19083,-0.28792 -0.31371,-0.61433 -0.4185,-0.94612c-0.04842,-0.11264 -0.08311,-0.24752 -0.11346,-0.36552c-0.09471,0.01017 -0.09976,0.06615 -0.09108,0.09988c0.03543,0.51603 0.05268,1.03743 -0.00665,1.56365c0.0036,0.08972 0.00289,0.16256 0.04263,0.24145c0.15106,0.20903 0.28406,0.42344 0.53416,0.63914zM124.64666,172.46795c-0.1547,-0.29875 -0.17851,-0.61844 -0.2204,-0.93279c-0.02168,-0.0843 0.0152,-0.16798 -0.04262,-0.24145c-0.08893,-0.11869 -0.37517,-0.32356 -0.61302,-0.41584c-0.08319,0.20648 -0.06727,0.41961 -0.09188,0.62674c-0.01521,0.168 0.03757,0.29746 0.16262,0.40529c0.20526,0.19279 0.37444,0.39641 0.49804,0.64998c0.00431,0.01688 0.04916,0.03976 0.07154,0.0512c0.07665,-0.00477 0.14894,-0.02638 0.23568,-0.14316zM130.54163,169.5057c-0.16915,-0.2036 -0.22478,-0.49568 -0.44382,-0.6662c-0.12217,0.05471 -0.15474,0.15525 -0.20968,0.24432c-0.09183,0.17276 -0.21039,0.31714 -0.25307,0.52967c0.18647,0.27107 0.23708,0.6191 0.40983,0.91242c0.10337,0.02352 0.19374,-0.00347 0.27544,-0.06426c0.03472,-0.31911 0.10992,-0.63215 0.22128,-0.956zM127.85362,171.1634c-0.00721,-0.17942 -0.01442,-0.35885 0.04558,-0.5039c0.14317,-0.35151 0.05137,-0.63277 -0.16694,-0.87614c-0.08021,-0.08495 -0.10622,-0.18613 -0.2407,-0.25487c-0.13738,0.22271 -0.21622,0.44604 -0.29497,0.66937c-0.02314,0.06141 -0.00577,0.12884 0.03396,0.20772c0.13736,0.23131 0.25227,0.45111 0.38958,0.6824c0.01297,0.05059 0.06652,0.10723 0.23352,0.07539zM128.9923,170.82268c-0.02311,-0.39259 -0.00135,-0.76224 0.16421,-1.10233c0.0412,-0.06679 0.00578,-0.12884 -0.01157,-0.19628c-0.05711,-0.14635 -0.13227,-0.2873 -0.27974,-0.40658c-0.19236,0.31177 -0.29428,0.59653 -0.39189,0.89812c-0.03255,0.10052 -0.02896,0.19025 0.01516,0.28601c0.08379,0.17469 0.14964,0.35474 0.23348,0.5294c0.00431,0.01688 0.04916,0.03977 0.07156,0.05123c0.05422,-0.01622 0.10846,-0.03245 0.19877,-0.0595zM124.99988,175.88503c0.11566,0.14695 0.23563,0.31085 0.3513,0.45785c0.02239,0.01145 0.04483,0.02292 0.08962,0.04579c0.15981,-0.21123 0.21622,-0.44604 0.24083,-0.65313c-0.26095,-0.48488 -0.51319,-0.93596 -0.66063,-1.50926c-0.18366,0.34551 0.01226,0.5774 0.01441,0.81282c0.01516,0.28601 -0.01015,0.56594 -0.03547,0.8459zM130.54475,175.49708c0.23277,0.14825 0.42942,0.30732 0.71277,0.34964c0.04197,-0.13965 0.11064,-0.251 0.1388,-0.36842c0.02819,-0.11739 0.07448,-0.24017 0.04409,-0.35821c-0.09325,-0.1355 -0.24578,-0.19885 -0.3665,-0.28981c-0.12073,-0.09096 -0.20963,-0.20967 -0.37589,-0.25071c-0.05712,0.30765 -0.10055,0.59298 -0.15336,0.9175zM131.76533,171.91782c0.05779,0.52744 0.11201,0.96522 0.16616,1.40295c0.00866,0.03373 0.00358,0.08973 0.04842,0.11262c0.17422,0.1476 0.32095,0.33977 0.58625,0.38751c0.0116,-0.25769 0.02751,-0.49854 0.02535,-0.73398c-0.33468,-0.31752 -0.56959,-0.70116 -0.82621,-1.16917zM126.29436,169.86853c-0.13233,0.1667 -0.12509,0.34613 -0.1627,0.50265c-0.05135,0.1788 -0.04848,0.34135 0.07152,0.50518c0.1554,0.22587 0.31082,0.45178 0.34407,0.73238c0.1352,-0.00413 0.20316,-0.04261 0.17714,-0.14379c-0.04698,-0.25829 -0.09827,-0.53351 -0.04619,-0.78516c0.06219,-0.36364 -0.14742,-0.57335 -0.38383,-0.81127zM128.17905,169.70412c0.16124,-0.35694 0.30367,-0.63564 0.42804,-0.90887c-0.03035,-0.11801 -0.10191,-0.16927 -0.1554,-0.22586c-0.07156,-0.05123 -0.13371,-0.14155 -0.26887,-0.13744c-0.16415,0.1944 -0.30149,0.41705 -0.41648,0.65118c0.11059,0.20295 0.23492,0.38369 0.41274,0.62101zM125.12905,169.72693c0.22768,0.20424 0.42869,0.38017 0.63393,0.57297c0.07013,-0.25707 0.14463,-0.49727 0.21911,-0.73744c-0.18287,-0.18135 -0.32528,-0.35666 -0.58118,-0.44346c-0.12363,0.20039 -0.18871,0.40148 -0.27185,0.60794zM129.81596,176.29625c0.19087,-0.16605 0.18871,-0.40148 0.25381,-0.60253c0.02314,-0.06141 -0.01659,-0.1403 -0.06579,-0.18007c-0.15181,-0.13618 -0.28119,-0.2609 -0.42862,-0.38021c-0.00434,-0.01688 -0.04051,-0.00603 -0.07666,0.00477c-0.06585,0.27392 -0.10917,0.55926 -0.175,0.83318c0.1337,0.14156 0.31299,0.2332 0.49228,0.32482zM126.91625,176.60093c0.11999,0.16382 0.23563,0.31083 0.46479,0.36939c0.10556,-0.19504 0.24728,-0.40085 0.28562,-0.63024c-0.08455,-0.10182 -0.133,-0.21443 -0.2313,-0.29395c-0.08021,-0.08495 -0.09683,-0.22527 -0.27252,-0.22715c-0.08822,0.26246 -0.17642,0.5249 -0.24659,0.782zM124.64476,169.96261c-0.11132,-0.13011 -0.29567,-0.16575 -0.48433,-0.21826c-0.09259,0.24558 -0.23424,0.45145 -0.24587,0.70912c0.1793,0.09164 0.31734,0.25005 0.55084,0.32546c0.06585,-0.27392 0.11357,-0.54241 0.17936,-0.81633zM123.59548,173.073c-0.05998,-0.30892 -0.19662,-0.61306 -0.2204,-0.93281c-0.02892,-0.26373 -0.19011,-0.36072 -0.44168,-0.43075c-0.0788,0.22331 -0.06727,0.41961 -0.06944,0.63816c0.30433,0.19945 0.47712,0.4928 0.73156,0.72535zM132.83814,171.85106c-0.06798,0.03849 -0.05494,0.08906 -0.04197,0.13965c0.03829,0.2246 0.099,0.46066 0.11921,0.69069c0.01011,0.34199 0.2342,0.45653 0.51688,0.57171c0.00578,-0.12887 0.02024,-0.22394 0.01664,-0.31366c0.00216,-0.21856 -0.02743,-0.40943 -0.23779,-0.54625c-0.12072,-0.09097 -0.19587,-0.23195 -0.26675,-0.356c0.00075,-0.07285 0.0152,-0.16797 -0.10624,-0.18611zM131.2689,168.85227c-0.07301,0.09446 -0.10991,0.17815 -0.15111,0.24495c-0.14606,0.18895 -0.16126,0.35696 -0.07308,0.54847c0.07947,0.15778 0.1091,0.3487 0.17055,0.51189c0.01298,0.0506 0.00794,0.10658 0.13881,0.0856c0.02971,-0.2631 0.09547,-0.53704 0.20177,-0.80489c0.02314,-0.06141 0.00146,-0.14567 -0.01587,-0.21313c-0.07082,-0.12405 -0.13733,-0.23132 -0.27106,-0.37286zM126.47448,169.43332c0.11564,0.14698 0.21756,0.31621 0.38313,0.43012c0.13303,-0.23957 0.29282,-0.45079 0.36297,-0.70783c-0.15181,-0.13616 -0.24937,-0.28855 -0.47421,-0.33026c-0.10556,0.19503 -0.23358,0.37858 -0.27187,0.60796zM128.3731,175.52948c-0.13301,0.23956 -0.18942,0.47434 -0.20967,0.6983c0.15179,0.13617 0.28119,0.26085 0.48289,0.36397c0.11858,-0.14444 0.17425,-0.30639 0.20751,-0.47976c-0.1648,-0.18674 -0.31156,-0.3789 -0.4807,-0.58253zM127.88355,168.17642c-0.13882,-0.0856 -0.21468,-0.15367 -0.32241,-0.19405c-0.06724,-0.03435 -0.13012,-0.05187 -0.19303,-0.06935c-0.15906,0.13838 -0.29137,0.30507 -0.35645,0.50615c0.1337,0.14156 0.26746,0.28312 0.47857,0.34708c0.12363,-0.20039 0.25594,-0.36712 0.39332,-0.5898zM132.20211,170.13471c0.14676,-0.26184 0.25666,-0.43995 0.37598,-0.65724c0.00075,-0.07285 -0.04767,-0.18546 -0.12793,-0.27042c-0.06217,-0.09033 -0.05638,-0.21919 -0.18649,-0.27106c-0.14966,0.09926 -0.23641,0.216 -0.29644,0.36108c0.08746,0.26438 0.15247,0.51732 0.23486,0.83766zM131.10059,176.22062c-0.11209,-0.05727 -0.22414,-0.11454 -0.33614,-0.17184c-0.1121,-0.05726 -0.21978,-0.09765 -0.33181,-0.15493c-0.07882,0.2233 -0.17066,0.39608 -0.15913,0.59236c0.08023,0.08495 0.19735,0.08623 0.30071,0.10979c0.10337,0.02352 0.21978,0.09765 0.34192,0.04296c0.0781,-0.15051 0.16484,-0.26722 0.18438,-0.41835zM125.63445,168.74041c0.18795,0.12533 0.33036,0.30068 0.58196,0.37063c0.09179,-0.17276 0.16558,-0.3401 0.25741,-0.51283c-0.18794,-0.12534 -0.33543,-0.24467 -0.57398,-0.26407c-0.10483,0.12216 -0.21836,0.21059 -0.26537,0.40626zM131.98781,173.99393c-0.03042,0.33595 -0.0514,0.63276 -0.07238,0.92954c0.09831,0.07956 0.17853,0.16453 0.31372,0.16035c0.1511,-0.24498 0.1808,-0.50804 0.22851,-0.77655c-0.09833,-0.07956 -0.19661,-0.15909 -0.30864,-0.21636c-0.03541,-0.06206 -0.0759,-0.06807 -0.16118,-0.09703zM129.07698,168.65465c0.15616,0.15302 0.20819,0.35538 0.38748,0.44701c0.15545,-0.22809 0.29715,-0.43394 0.38973,-0.67956c-0.1569,-0.08018 -0.20021,-0.24879 -0.40698,-0.29588c-0.15903,0.13837 -0.22849,0.32262 -0.37021,0.52842zM126.18542,177.16463c0.1005,-0.13902 0.17857,-0.28949 0.21619,-0.44603c-0.1605,-0.16988 -0.30287,-0.34519 -0.47203,-0.54878c-0.06073,0.21789 -0.13449,0.38526 -0.23575,0.59712c0.1605,0.1699 0.29855,0.32834 0.49159,0.3977zM131.08313,168.50836c-0.12866,-0.19758 -0.2306,-0.36683 -0.446,-0.44764c-0.1229,0.12757 -0.23209,0.23283 -0.26971,0.38939c0.12431,0.1807 0.23057,0.36679 0.38164,0.57582c0.13233,-0.1667 0.24654,-0.328 0.33404,-0.51759zM127.95658,176.63465c-0.07448,0.24017 -0.24728,0.40088 -0.23573,0.59717c0.15179,0.13617 0.32241,0.19407 0.50677,0.22972c0.11422,-0.1613 0.23281,-0.30571 0.23936,-0.5074c-0.16119,-0.09703 -0.30435,-0.19945 -0.51035,-0.31942zM124.35341,169.35976c0.15689,0.08017 0.27758,0.17115 0.4576,0.18993c0.0788,-0.22331 0.24729,-0.40083 0.26322,-0.64168c-0.13881,-0.08561 -0.2646,-0.12059 -0.4316,-0.08879c-0.10989,0.17815 -0.1974,0.36774 -0.2892,0.5405zM132.89723,174.04873c0.14314,0.10246 0.25082,0.14281 0.39037,0.15561c0.09183,-0.17276 0.15693,-0.37381 0.10485,-0.57613c-0.13447,-0.06871 -0.26889,-0.13743 -0.40771,-0.22303c-0.09691,0.22873 -0.06293,0.43647 -0.08752,0.64358zM122.13227,172.07631c0.13009,0.05186 0.23785,0.09227 0.3506,0.07668c0.06508,-0.20101 0.09398,-0.39131 0.08244,-0.5876c-0.11635,-0.07414 -0.22408,-0.11454 -0.35927,-0.11041c-0.08319,0.20648 -0.04918,0.41421 -0.07377,0.6213zM126.96833,167.79658c-0.16045,-0.16988 -0.30939,-0.14349 -0.46774,-0.07797c-0.12651,0.03782 -0.24437,0.10943 -0.26389,0.26055c0.14314,0.10246 0.28191,0.18804 0.46626,0.22367c0.1005,-0.13902 0.18292,-0.27263 0.26536,-0.40624zM124.14612,176.12236c0.09324,0.13551 0.12792,0.27038 0.27611,0.31685c0.28775,-0.3948 0.11504,-0.68814 -0.15678,-0.98812c-0.03835,0.22935 -0.08102,0.44192 -0.11935,0.67127zM128.74889,167.68142c-0.14533,0.1161 -0.23208,0.23285 -0.30149,0.41706c0.1482,0.04642 0.20966,0.20965 0.37157,0.23382c0.10414,-0.04931 0.12291,-0.12755 0.18221,-0.19976c0.05492,-0.08905 0.13664,-0.14984 0.10631,-0.26786c-0.09833,-0.07956 -0.19665,-0.15909 -0.35858,-0.18326zM128.08196,173.11068c-0.22481,-0.04168 -0.3246,0.02446 -0.30363,0.18162c0.03829,0.22459 0.11272,0.4384 0.18286,0.63532c0.01731,0.06744 0.05714,0.14634 0.17421,0.14763c0.0123,-0.33055 -0.01153,-0.65025 -0.05341,-0.96457zM123.31456,169.63429c-0.06215,-0.09035 -0.14748,-0.11931 -0.26027,-0.10375c-0.14173,0.20584 -0.32394,0.40562 -0.37168,0.67414c0.24291,0.03627 0.39694,-0.04611 0.48006,-0.25257c0.05494,-0.08907 0.15041,-0.17214 0.15187,-0.31782zM125.70345,174.00396c-0.253,0.0757 -0.29857,0.1257 -0.25956,0.2774c0.07878,0.23066 0.16187,0.47818 0.31297,0.68717c0.06654,-0.34678 0.11935,-0.67127 -0.05342,-0.96459zM122.57247,173.10674c-0.0166,-0.14027 -0.04701,-0.25834 -0.05925,-0.38175c-0.04259,-0.24147 -0.04265,-0.24146 -0.38965,-0.22845c-0.00578,0.12887 -0.02533,0.27999 -0.02604,0.3528c0.17928,0.09166 0.31808,0.1772 0.47494,0.25738zM129.10371,177.68967c0.08679,-0.11674 0.24075,-0.19917 0.19306,-0.38464c-0.13012,-0.05187 -0.27399,-0.08145 -0.42652,-0.14476c-0.10051,0.13903 -0.22343,0.26655 -0.24295,0.41769c0.14823,0.04641 0.28266,0.11518 0.47642,0.1117zM123.33248,171.44477c0.03396,-0.24623 0.08609,-0.49788 0.12005,-0.74411c-0.05784,-0.07345 -0.12937,-0.12471 -0.22913,-0.05855c-0.12363,0.20039 -0.20248,0.42376 -0.20032,0.65918c0.09831,0.07956 0.18794,0.12534 0.30943,0.14347zM125.55063,177.11845c-0.12217,0.05471 -0.19523,0.14918 -0.24148,0.272c0.05349,0.05666 0.10698,0.11325 0.16049,0.16988c0.07587,0.0681 0.13375,0.14156 0.25084,0.14282c0.10846,-0.03243 0.19013,-0.09317 0.24074,-0.19915c-0.12942,-0.12472 -0.28121,-0.26087 -0.41056,-0.3856zM129.19782,176.39039c-0.10051,0.13903 -0.14245,0.2787 -0.16199,0.4298c0.17058,0.05793 0.32314,0.12121 0.47131,0.16766c0.13158,-0.09388 0.17786,-0.21666 0.16992,-0.32325c-0.16119,-0.09705 -0.32241,-0.19406 -0.47927,-0.27429zM124.69334,176.81206c0.08023,0.08495 0.16045,0.16988 0.25877,0.24945c0.02238,0.01143 0.05858,0.00064 0.09908,0.00667c0.05929,-0.0722 0.15905,-0.13835 0.17858,-0.2895c-0.08895,-0.11867 -0.16846,-0.27644 -0.32964,-0.37348c-0.12288,0.12758 -0.16914,0.25036 -0.20676,0.40689zM123.36241,175.64865c0.02963,0.19089 -0.16051,0.28411 -0.11715,0.4527c0.10696,0.11321 0.16404,0.25961 0.34334,0.35122c0.10483,-0.12216 0.1916,-0.23895 0.09833,-0.37443c-0.09324,-0.13553 -0.11418,-0.29266 -0.32454,-0.42949zM122.44837,170.65611c-0.04194,0.13965 -0.10194,0.28474 -0.14824,0.4075c-0.01375,0.02226 0.01301,0.0506 0.0217,0.0843c0.09905,0.00667 0.21108,0.06397 0.36073,-0.03532c0.05565,-0.16191 0.10704,-0.34072 0.17643,-0.52494c-0.14385,-0.02961 -0.25665,-0.01399 -0.41067,0.06838zM129.9655,177.10494c0.13445,0.06873 0.27325,0.15431 0.38529,0.21155c0.14966,-0.09925 0.23645,-0.21601 0.30511,-0.32736c-0.04845,-0.11265 -0.17925,-0.0916 -0.26461,-0.12058c-0.08533,-0.02894 -0.17495,-0.07477 -0.29713,-0.02004c-0.06362,0.05536 -0.1229,0.12759 -0.12871,0.25644zM130.39212,167.78904c-0.12073,-0.09096 -0.21471,-0.15369 -0.30866,-0.21634c-0.02675,-0.02833 -0.08531,-0.02897 -0.10773,-0.04042c-0.12651,0.03782 -0.19957,0.13233 -0.2458,0.25514c0.12506,0.10784 0.23207,0.22111 0.38886,0.30132c0.09542,-0.08303 0.16846,-0.17752 0.27329,-0.29968zM122.08888,173.2696c-0.01596,0.24086 -0.03184,0.48164 0.08305,0.7015c0.14963,-0.09926 0.28994,-0.15939 0.3456,-0.3213c-0.16404,-0.25961 -0.16406,-0.25961 -0.42865,-0.38018zM128.38101,167.53726c-0.38967,-0.22845 -0.40769,-0.22303 -0.68968,0.04299c0.13882,0.0856 0.29131,0.14888 0.43011,0.23451c0.12217,-0.05471 0.19517,-0.14919 0.25957,-0.27739zM126.52508,177.42615c0.12506,0.10785 0.24146,0.18197 0.40341,0.20618c0.03181,-0.02768 0.07738,-0.07762 0.12292,-0.12757c0.02747,-0.04455 0.05064,-0.10597 0.07807,-0.15045c-0.12508,-0.10784 -0.23641,-0.23797 -0.40268,-0.27902c-0.09541,0.08302 -0.15981,0.21123 -0.20172,0.3509zM131.68031,168.25703c-0.04553,0.04994 -0.10481,0.12217 -0.1099,0.17817c-0.00654,0.20172 0.07299,0.35944 0.24722,0.5071c0.09111,-0.09987 0.227,-0.17687 0.25521,-0.29429c-0.11564,-0.14698 -0.18143,-0.32704 -0.39251,-0.39099zM132.59715,175.22802c0.02239,0.01145 0.04481,0.02291 0.08962,0.04579c0.20027,-0.20522 0.33332,-0.44474 0.46633,-0.68429c-0.08456,-0.1018 -0.16987,-0.13074 -0.3188,-0.10436c-0.07448,0.24017 -0.16701,0.48576 -0.23717,0.74285zM126.90713,174.37014c0.0434,-0.28537 0.10918,-0.55927 0.0174,-0.84049c-0.00431,-0.01688 -0.0853,-0.02892 -0.12143,-0.01813c-0.09035,0.02707 -0.14531,0.11612 -0.12357,0.20041c0.00214,0.23543 0.09468,0.44381 0.22764,0.65821zM127.27333,177.83783c0.11637,0.07415 0.23276,0.14828 0.37663,0.17787c0.12651,-0.03784 0.20821,-0.09861 0.26824,-0.24366c-0.15254,-0.06331 -0.3094,-0.14351 -0.45757,-0.18994c-0.09974,0.06614 -0.15903,0.13838 -0.18723,0.25577zM125.56439,168.08951c-0.25737,0.05885 -0.47859,0.10684 -0.66512,0.28977c0.09324,0.13551 0.23709,0.16513 0.3947,0.17245c0.11856,-0.14444 0.22342,-0.26658 0.2704,-0.46226zM133.08267,169.47173c-0.13666,0.14985 -0.1504,0.17207 -0.13739,0.22269c0.02526,0.17401 0.15468,0.29874 0.27974,0.40658c0.04914,0.03976 0.14387,0.02956 0.17207,-0.08782c-0.14745,-0.11931 -0.13154,-0.36016 -0.31444,-0.54147zM131.84387,175.32628c-0.09259,0.24558 -0.20753,0.47976 -0.15185,0.7718c0.22266,-0.19372 0.29717,-0.43395 0.38029,-0.6404c-0.03973,-0.0789 -0.10264,-0.09638 -0.22843,-0.13136zM129.4393,167.56565c0.07735,-0.07763 0.15903,-0.13839 0.2364,-0.21601c-0.12941,-0.12474 -0.2682,-0.21031 -0.454,-0.10023c-0.0499,0.03307 -0.09974,0.06616 -0.1005,0.13902c0.06215,0.09034 0.16988,0.13077 0.31808,0.1772zM124.53584,174.53487c-0.16267,0.04869 -0.22628,0.104 -0.17352,0.23347c0.04842,0.11264 0.09686,0.22526 0.16339,0.33247c0.03109,0.04514 0.08025,0.08497 0.14821,0.04647c0.00219,-0.21854 -0.04552,-0.40403 -0.13805,-0.6124zM131.49057,172.81716c0.01595,-0.24086 -0.00432,-0.47086 -0.1149,-0.67383c-0.00434,-0.01688 -0.08532,-0.02891 -0.10337,-0.02352c-0.03612,0.0108 -0.05929,0.0722 -0.05061,0.10594c0.07443,0.21378 0.09034,0.42697 0.26889,0.59146zM132.21062,171.98431c0.09757,0.15239 0.14529,0.3379 0.3014,0.49092c0.03398,-0.24623 0.02243,-0.44253 -0.05781,-0.52745c-0.06215,-0.09034 -0.13446,-0.06874 -0.24361,0.03657zM123.86329,168.81642c-0.20387,0.11549 -0.45694,0.19122 -0.53139,0.4314c0.35999,0.03754 0.43446,-0.20264 0.53139,-0.4314zM124.90554,171.80939c-0.03611,0.01081 -0.04994,0.0331 -0.08607,0.04391c0.06145,0.16318 0.02818,0.33657 0.15758,0.46129c0.11278,-0.01556 0.16266,-0.04869 0.19519,-0.14921c-0.08456,-0.1018 -0.17347,-0.22046 -0.26676,-0.35601zM129.17786,173.43654c-0.00649,-0.25228 -0.01805,-0.44857 -0.08814,-0.6455c-0.00866,-0.03373 -0.05347,-0.05662 -0.1077,-0.04041c-0.0181,0.00541 -0.04988,0.03308 -0.06363,0.05536c-0.01596,0.24086 0.0361,0.44316 0.25948,0.63054zM131.32106,168.14662c0.09975,-0.06617 0.1453,-0.11609 0.09615,-0.15589c-0.08456,-0.1018 -0.18723,-0.19819 -0.28988,-0.29461c-0.07156,-0.05123 -0.12577,-0.03502 -0.16264,0.04868c0.10189,0.16927 0.19517,0.3048 0.35636,0.40182zM128.32224,177.90533c-0.05929,0.0722 -0.1229,0.12759 -0.18221,0.19979c-0.01376,0.02224 -0.00505,0.056 -0.01014,0.11198c0.21687,-0.06486 0.42867,-0.07379 0.64631,-0.21153c-0.15254,-0.06331 -0.26026,-0.10372 -0.45399,-0.10022zM129.64295,170.62802c-0.06143,-0.16319 -0.11855,-0.30957 -0.18865,-0.5065c-0.13737,0.22271 -0.15258,0.39066 -0.09113,0.55386c0.10338,0.02354 0.16193,0.02418 0.27979,-0.04737zM124.07629,172.74756c-0.10265,-0.09642 -0.11417,-0.29266 -0.33902,-0.33436c0.04987,0.42089 0.07152,0.50517 0.17059,0.51189c0.09035,-0.02707 0.13593,-0.07699 0.16846,-0.17752zM130.25361,173.0783c0.15186,-0.3178 0.09978,-0.52013 -0.03752,-0.75143c-0.20099,0.27805 0.00432,0.47082 0.03752,0.75143zM123.80848,175.64232c0.13811,-0.29554 0.09043,-0.48105 0.00222,-0.67255c-0.00434,-0.01688 -0.04482,-0.0229 -0.08096,-0.01209c-0.05423,0.01621 -0.08169,0.06077 -0.07301,0.09447c0.02526,0.17401 0.08669,0.33719 0.15177,0.59012zM123.2737,173.26008c-0.09324,-0.13551 -0.1547,-0.29875 -0.36573,-0.36266c-0.01085,0.18485 0.04624,0.33118 0.09899,0.46065c0.12144,0.01814 0.18938,-0.02035 0.26676,-0.09799zM123.80263,176.67911c0.16557,0.11392 0.21324,0.29939 0.41134,0.31276c-0.00649,-0.25228 -0.00649,-0.25227 -0.26599,-0.42885c-0.03181,0.02768 -0.06362,0.05536 -0.14532,0.1161zM123.83643,169.69609c-0.24002,0.1263 -0.32752,0.31591 -0.39259,0.51696c0.08023,0.08495 0.15254,0.06331 0.19374,-0.00347c0.05563,-0.16193 0.12942,-0.32929 0.19883,-0.51347zM126.31037,177.72649c-0.10414,0.04931 -0.19014,0.09318 -0.21833,0.21059c0.09396,0.06267 0.18796,0.12538 0.30068,0.10979c0.08603,-0.04388 0.13157,-0.09386 0.1504,-0.17214c-0.05785,-0.07347 -0.12506,-0.10784 -0.23277,-0.14825zM127.05767,171.0202c-0.01954,0.1511 -0.02967,0.26313 0.0325,0.35347c0.02675,0.02833 0.06723,0.03437 0.10773,0.04041c0.05423,-0.01621 0.11786,-0.07157 0.08678,-0.11673c-0.02602,-0.10119 -0.05637,-0.2192 -0.227,-0.27712zM129.60328,177.73996c0.17568,0.00191 0.29859,-0.12567 0.4345,-0.20265c-0.27326,-0.15432 -0.3094,-0.14346 -0.4345,0.20265zM133.22709,171.69839c-0.00724,0.27456 -0.00725,0.27454 0.18144,0.32706c0.01014,-0.11198 0.01591,-0.24086 -0.18144,-0.32706zM126.07234,171.80534c0.08533,0.02894 0.13953,0.01273 0.14891,-0.02639c0.05563,-0.16193 0.0246,-0.20711 -0.17712,-0.31017c-0.02388,0.13423 0.00213,0.23545 0.02816,0.33662zM123.01474,175.73451c0.06867,-0.11136 0.11928,-0.21731 0.05282,-0.3245c-0.27616,0.13712 -0.28556,0.1762 -0.05282,0.3245zM133.75834,172.17494c0.0781,-0.15051 0.06149,-0.29076 0.04921,-0.41418c-0.01732,-0.06743 -0.08458,-0.10182 -0.17568,-0.00191c0.01229,0.12341 0.02888,0.26377 0.12646,0.41612zM124.69176,177.41182c-0.00721,-0.17942 -0.08309,-0.24752 -0.23638,-0.23798c0,0 -0.03181,0.02768 -0.02747,0.04455c0.00796,0.10658 0.13369,0.14157 0.26384,0.19348zM128.30334,170.79277c-0.09975,0.06617 -0.11858,0.14444 -0.08316,0.20644c0.00866,0.03373 0.05351,0.05664 0.09397,0.06269c0.04049,0.00603 0.08601,-0.04389 0.07733,-0.07761c0.00507,-0.056 -0.01226,-0.12343 -0.08815,-0.19153zM127.11706,178.13879c-0.10265,-0.09642 -0.18796,-0.12538 -0.3152,-0.01463c0.12508,0.10784 0.20603,0.11995 0.3152,0.01463z" fill="#000000"/><path d="M126.9939,164.79277c-0.58269,0.15617 -1.16542,0.31235 -1.74378,0.48541c-0.65068,0.19468 -1.28396,0.4568 -1.87752,0.79783c-0.18579,0.11008 -0.32677,0.24301 -0.52631,0.37533c-0.0694,-0.26981 -0.14818,-0.5004 -0.19079,-0.74187c-0.29194,-1.43799 -0.67856,-2.86578 -1.01099,-4.3098c-0.29337,-1.29228 -0.60053,-2.56228 -0.91202,-3.84914c-0.20741,-0.88218 -0.41047,-1.74756 -0.61785,-2.62973c-0.1944,-0.83164 -0.4206,-1.63554 -0.61503,-2.46713c-0.01733,-0.06745 -0.03468,-0.13491 -0.03396,-0.20774c0.20532,-0.26119 0.45478,-0.42657 0.74464,-0.58599c0.46199,-0.24717 0.95069,-0.46603 1.46109,-0.60058c0.16267,-0.04869 0.32098,-0.11421 0.48725,-0.07314c-0.154,0.08241 -0.34771,0.0859 -0.52485,0.22967c0.19586,0.23191 0.21538,0.53477 0.30284,0.79917c0.00434,0.01688 0.00865,0.03371 0.02674,0.02833c0.26163,0.41199 0.38738,0.90098 0.59918,1.34608c0.07949,0.15779 0.21325,0.29937 0.22047,0.47878c0.05055,0.34805 0.29563,0.61974 0.34622,0.96781c0.00434,0.01688 0.03108,0.04517 0.03975,0.07892c0.13661,0.30409 0.28692,0.58602 0.3874,0.90095c0.0954,0.37094 0.32671,0.66495 0.38596,1.04667c0.1648,0.18674 0.185,0.41676 0.26378,0.64741c0.00866,0.03373 0.01302,0.05061 0.02167,0.0843c0.23132,0.29398 0.2501,0.66969 0.40911,0.9853c0.15901,0.31558 0.21394,0.6805 0.35489,1.00149c0.15394,0.37161 0.3578,0.71005 0.40761,1.13099c0.00866,0.03373 0.02167,0.08433 0.04842,0.11264c0.15616,0.15302 0.15394,0.37159 0.22404,0.56854c0.02602,0.10119 0.03828,0.22458 0.10047,0.31496c0.11129,0.13013 0.12793,0.27042 0.16694,0.42219c0.02168,0.08431 0.02527,0.17404 0.07879,0.23064c0.1648,0.18674 0.18937,0.43362 0.24574,0.6528c0.02168,0.08431 0.02531,0.17401 0.07877,0.23065c0.13802,0.15844 0.16769,0.34932 0.21537,0.53482c0.07808,0.30353 0.28261,0.56915 0.34259,0.87805c-0.00505,0.056 0.06213,0.09036 0.09325,0.13551z" fill="#87d7dc"/><path d="M126.99389,164.79273c-0.03107,-0.04517 -0.09832,-0.07954 -0.11134,-0.13013c-0.06,-0.3089 -0.24646,-0.57995 -0.34259,-0.87806c-0.0477,-0.18546 -0.07732,-0.37638 -0.21537,-0.5348c-0.05349,-0.05666 -0.05711,-0.14636 -0.0788,-0.23061c-0.05639,-0.21919 -0.09898,-0.46067 -0.24571,-0.65285c-0.05351,-0.05664 -0.03904,-0.15177 -0.0788,-0.23064c-0.03903,-0.15174 -0.07372,-0.28666 -0.16694,-0.42219c-0.06215,-0.09034 -0.07445,-0.21384 -0.10047,-0.31498c-0.07011,-0.19691 -0.06794,-0.41549 -0.22407,-0.56852c-0.02675,-0.02833 -0.03974,-0.07891 -0.04843,-0.11262c-0.04552,-0.40403 -0.25369,-0.75943 -0.40764,-1.131c-0.14529,-0.3379 -0.20018,-0.70275 -0.35485,-1.00151c-0.15902,-0.31557 -0.1778,-0.69131 -0.40909,-0.98527c-0.02238,-0.01148 -0.01301,-0.0506 -0.02168,-0.08433c-0.05639,-0.21919 -0.09901,-0.46064 -0.26382,-0.64743c-0.04116,-0.38719 -0.2725,-0.68113 -0.38594,-1.04668c-0.08238,-0.32037 -0.25081,-0.59682 -0.38738,-0.90096c-0.00866,-0.03373 -0.03113,-0.04517 -0.03977,-0.0789c-0.05055,-0.34805 -0.29563,-0.61972 -0.34621,-0.9678c-0.02962,-0.19087 -0.15901,-0.31562 -0.22047,-0.47878c-0.1937,-0.45048 -0.33753,-0.93408 -0.59917,-1.34606c-0.00434,-0.01688 -0.02677,-0.02831 -0.02677,-0.02831c-0.08747,-0.26439 -0.10694,-0.56726 -0.30286,-0.79918c0.15904,-0.13837 0.35715,-0.125 0.52487,-0.22967c0.14457,-0.04328 0.28916,-0.0865 0.44173,-0.02317c0.02602,0.10119 0.03828,0.22458 0.10047,0.31493c0.21757,0.31621 0.29053,0.67576 0.41776,1.01903c0.12719,0.34324 0.34478,0.65948 0.38595,1.04665c0.1648,0.18674 0.18504,0.41677 0.26382,0.64741c0.00866,0.03373 0.02168,0.0843 0.04843,0.11262c0.12941,0.12474 0.1366,0.30413 0.19371,0.45051c0.02168,0.08431 0.04339,0.1686 0.07878,0.23063c0.18578,0.34393 0.35781,0.71006 0.45753,1.0979c0.01298,0.0506 0.01226,0.12347 0.05709,0.14634c0.1337,0.14154 0.15902,0.31557 0.20239,0.48419c0.02962,0.19087 0.19954,0.32164 0.23344,0.52938c0.0513,0.27519 0.20673,0.50106 0.31224,0.76003c0.13155,0.36015 0.33104,0.68177 0.43073,1.06959c0.01733,0.06745 0.02095,0.15717 0.07013,0.19693c0.10696,0.11328 0.12795,0.27039 0.18501,0.41675c0.03468,0.13489 0.08744,0.26436 0.15393,0.3716c0.12866,0.19758 0.22119,0.40595 0.28193,0.64201c0.10913,0.34867 0.32672,0.6649 0.3679,1.05206c0.00866,0.03373 0.03971,0.07891 0.04842,0.11264c0.14529,0.3379 0.30866,0.6703 0.41774,1.019c0.0954,0.37094 0.33539,0.69865 0.39461,1.08041c0.01298,0.0506 0.06217,0.09033 0.09325,0.13551c0.09252,0.20838 0.1713,0.43903 0.17344,0.67445c-0.08603,0.0439 -0.15831,0.06554 -0.22628,0.10401c-0.26605,0.02512 -0.4916,0.0563 -0.7309,0.10973z" fill="#b0eef2"/><path d="M122.36987,175.34637c-0.13659,-0.3041 -0.2197,-0.55167 -0.21245,-0.82622c0.10991,-0.17816 0.29568,-0.28824 0.47713,-0.41514c0.92034,-0.58407 1.845,-1.15127 2.84051,-1.59443c0.75117,-0.3337 1.5204,-0.67284 2.31129,-0.92764c0.21687,-0.06487 0.45618,-0.11834 0.66007,-0.2338c0.08603,-0.0439 0.1945,-0.07633 0.30289,-0.10878c0.45112,-0.06234 0.87622,-0.22584 1.31434,-0.33878c0.61885,-0.16703 1.25505,-0.26658 1.89988,-0.3324c0.32458,-0.02449 0.64489,-0.06585 0.98319,-0.11261c0.26168,-0.04196 0.50459,-0.00571 0.74317,0.01371c0.20456,0.26569 0.25298,0.37827 0.32089,0.79377c-0.40193,0.10212 -0.8075,0.11452 -1.21813,0.18288c-0.39256,0.06298 -0.80316,0.13137 -1.1914,0.21119c-0.40628,0.08522 -0.82634,0.19277 -1.22827,0.29486c-0.3882,0.07982 -0.76848,0.2663 -1.16976,0.29553c-0.37596,0.20328 -0.78657,0.27164 -1.17986,0.4075c-0.37521,0.13042 -0.76415,0.28311 -1.13506,0.43042c-0.38895,0.15269 -0.77353,0.32226 -1.17628,0.49719c-0.36655,0.16416 -0.75549,0.31682 -1.11771,0.49787c-0.38027,0.18642 -0.7338,0.40114 -1.10976,0.60442c-0.39401,0.2087 -0.75622,0.38969 -1.11484,0.66042z" fill="#d1eaeb"/><path d="M127.70238,164.67151c0.06796,-0.03849 0.14026,-0.06013 0.22626,-0.10403c-0.00216,-0.23544 -0.05852,-0.4546 -0.17344,-0.67445c-0.03106,-0.04518 -0.08023,-0.08495 -0.09324,-0.13551c-0.05923,-0.38174 -0.28118,-0.71489 -0.39462,-1.08041c-0.09107,-0.3541 -0.27247,-0.68113 -0.41771,-1.01903c-0.00866,-0.03373 -0.03975,-0.07892 -0.04843,-0.11262c-0.04115,-0.38718 -0.27246,-0.68114 -0.36786,-1.05209c-0.05639,-0.21919 -0.15324,-0.44442 -0.28193,-0.642c-0.0708,-0.12404 -0.1236,-0.25355 -0.15395,-0.37158c-0.03903,-0.15174 -0.05564,-0.29203 -0.18504,-0.41675c-0.04912,-0.03976 -0.05275,-0.1295 -0.07008,-0.19694c-0.0954,-0.37094 -0.29926,-0.70941 -0.43077,-1.06957c-0.10551,-0.25898 -0.26095,-0.48483 -0.31224,-0.76005c-0.02962,-0.19087 -0.19949,-0.32163 -0.23344,-0.52938c-0.02528,-0.17402 -0.05491,-0.36489 -0.20236,-0.48422c-0.03106,-0.04518 -0.04408,-0.09574 -0.05712,-0.14631c-0.09973,-0.3878 -0.26737,-0.73712 -0.45753,-1.09789c-0.03973,-0.0789 -0.04338,-0.1686 -0.07875,-0.23063c-0.03903,-0.15174 -0.06435,-0.32577 -0.19372,-0.45046c-0.02675,-0.02833 -0.03975,-0.07889 -0.0484,-0.11263c-0.05639,-0.21919 -0.099,-0.46066 -0.26381,-0.64743c-0.04117,-0.38718 -0.25875,-0.7034 -0.38595,-1.04665c-0.12719,-0.34324 -0.20451,-0.7196 -0.41774,-1.01898c-0.06215,-0.09035 -0.07441,-0.2138 -0.10047,-0.31496c0.15833,-0.06553 0.29277,0.00318 0.42363,-0.01784c0.27248,0.6811 0.55437,1.32316 0.81817,1.97056c0.29922,0.70947 0.57606,1.40744 0.85723,2.12229c0.26815,0.6643 0.55439,1.32316 0.8406,1.98201c0.34765,0.82208 0.70905,1.62186 1.05238,2.42709c0.25514,0.6137 0.51026,1.22741 0.78349,1.83567c0.40044,0.95154 0.7329,1.94163 1.16948,2.88234c0.05275,0.12947 0.14168,0.24813 0.12647,0.4161c-0.16267,0.04869 -0.33832,0.04675 -0.50969,0.06172c-0.09904,-0.00667 -0.25302,0.07571 -0.41933,0.03468z" fill="#87d7dc"/><path d="M121.68877,150.67279c-0.37088,0.14729 -0.74103,0.22174 -1.10754,0.3859c-0.41644,0.19723 -0.82852,0.41134 -1.21459,0.72657c-0.2515,-0.97797 -0.49866,-1.93905 -0.74149,-2.88328c0.15109,-0.24496 0.36873,-0.38269 0.56393,-0.53191c0.37667,-0.27614 0.7837,-0.43422 1.2088,-0.59774c0.0181,-0.00541 0.05855,0.00064 0.08097,0.01207c-0.13665,0.14983 -0.04773,0.26849 0.02312,0.39257c0.1771,0.3102 0.33613,0.62576 0.40475,0.9684c0.01733,0.06745 0.0347,0.1349 0.07011,0.19691c0.19085,0.28793 0.25948,0.63054 0.39611,0.93471c0.08379,0.17469 0.15471,0.29867 0.31589,0.39574z" fill="#61afb4"/><path d="M128.55019,166.83293c-0.65859,0.0881 -1.2868,0.29422 -1.93239,0.43294c-0.29351,0.06964 -0.57403,0.18993 -0.85455,0.31018c-0.53356,0.19595 -1.10248,0.32985 -1.61867,0.5933c-0.20823,0.0986 -0.41644,0.19722 -0.60224,0.30728c-0.11785,0.07158 -0.23999,0.1263 -0.36655,0.16416c-0.03109,-0.04514 -0.05782,-0.0735 -0.06649,-0.10724c-0.03465,-0.13487 -0.06939,-0.26976 -0.1041,-0.40464c0.07735,-0.07763 0.141,-0.13297 0.22268,-0.19372c0.59859,-0.397 1.21531,-0.79944 1.92022,-1.01036c0.6102,-0.20074 1.23836,-0.40686 1.86593,-0.54016c0.49669,-0.11231 0.98899,-0.24144 1.50227,-0.21344c-0.08167,0.06078 -0.20315,0.04263 -0.24939,0.16542c0.01155,0.19628 0.01369,0.43172 0.28335,0.49629z" fill="#61aeb3"/><path d="M127.82592,165.83304c-0.29859,0.12566 -0.61377,0.11098 -0.92536,0.18607c-0.655,0.17785 -1.31,0.35562 -1.95197,0.58404c-0.51545,0.19053 -0.99552,0.44317 -1.44882,0.72404c-0.11785,0.07158 -0.23565,0.14314 -0.35351,0.21474c-0.06072,-0.23606 -0.1128,-0.4384 -0.16913,-0.65761c0.16484,-0.26722 0.4143,-0.43263 0.69045,-0.56977c0.32605,-0.17021 0.67016,-0.34577 1.02732,-0.4708c0.79598,-0.31076 1.59992,-0.515 2.41756,-0.74151c0.14458,-0.04325 0.2892,-0.08654 0.43739,-0.04008c0.02168,0.08431 0.02533,0.17401 0.07879,0.23064c0.11565,0.14699 0.14964,0.35474 0.19733,0.54017z" fill="#61aeb3"/><path d="M121.68878,150.67278c-0.13882,-0.0856 -0.22768,-0.20424 -0.28913,-0.36746c-0.13659,-0.30412 -0.20524,-0.6468 -0.39609,-0.93466c-0.03542,-0.06205 -0.05278,-0.1295 -0.07012,-0.19695c-0.09108,-0.3541 -0.24574,-0.6528 -0.40476,-0.96839c-0.06649,-0.10724 -0.15976,-0.24273 -0.02311,-0.39259c0.26678,-0.09797 0.52846,-0.13996 0.78511,-0.12596c0.11495,0.21985 0.24792,0.43428 0.27251,0.68114c0.00866,0.03373 0.03974,0.07891 0.04843,0.11262c0.14095,0.32097 0.28624,0.65886 0.4091,0.98529c0.05709,0.14634 0.09176,0.28124 0.16694,0.42219c0.10189,0.16926 0.17204,0.36619 0.12934,0.57869c-0.08603,0.04388 -0.15831,0.06551 -0.22628,0.104c-0.12651,0.03782 -0.27546,0.06427 -0.40194,0.10211z" fill="#87d7dc"/><path d="M130.18763,175.16811c-0.27762,-0.17117 -0.43734,-0.41386 -0.57901,-0.66206c-0.03542,-0.06204 -0.06143,-0.16322 -0.06072,-0.23606c0.01884,-0.53223 -0.03459,-1.04287 -0.10613,-1.54804c-0.00434,-0.01688 0.00506,-0.05598 0.01879,-0.07828c0.05929,-0.0722 0.14966,-0.0993 0.25302,-0.07573c0.00866,0.03373 0.03544,0.06204 0.04411,0.09576c0.08595,0.41005 0.22619,0.80394 0.45244,1.15391c0.10624,0.18612 0.15396,0.37162 0.11562,0.60097c-0.05209,0.25163 -0.04992,0.48705 -0.13814,0.74954z" fill="#cce5e6"/><path d="M130.61728,172.29765c0.09542,-0.08303 0.17206,-0.0878 0.23928,-0.05343c0.24427,0.79854 0.24428,0.79852 0.71558,1.42017c0.03757,0.29748 -0.01522,0.62194 -0.03625,0.91875c-0.11785,0.07158 -0.16191,-0.02419 -0.21107,-0.06396c-0.17422,-0.1476 -0.34409,-0.27839 -0.48649,-0.45369c-0.08893,-0.11869 -0.13731,-0.23131 -0.13588,-0.37697c0.00003,-0.45401 -0.02234,-0.9194 -0.08516,-1.39088z" fill="#cce5e6"/><path d="M122.10878,150.56528c0.06798,-0.03849 0.14028,-0.06013 0.22627,-0.104c0.04268,-0.21251 -0.02743,-0.40943 -0.12938,-0.5787c-0.0752,-0.14094 -0.10987,-0.27582 -0.16694,-0.4222c-0.12287,-0.32641 -0.26815,-0.66426 -0.4091,-0.98527c-0.00866,-0.03373 -0.03977,-0.07891 -0.04842,-0.11264c-0.04698,-0.25831 -0.1756,-0.45589 -0.27245,-0.68112c0.15325,-0.00956 0.28848,-0.01366 0.45907,0.04424c0.17563,0.45591 0.39177,0.91785 0.55365,1.39601c0.17563,0.45591 0.42353,0.89015 0.55363,1.39599c-0.2935,0.06966 -0.52773,0.06711 -0.7663,0.04773z" fill="#60adb2"/><path d="M125.74193,171.95867c-0.06796,0.03849 -0.11788,0.07157 -0.1858,0.11006c-0.04484,-0.02289 -0.0672,-0.03437 -0.08961,-0.04581c-0.146,-0.265 -0.34191,-0.49694 -0.55584,-0.72345c-0.08455,-0.10182 -0.12868,-0.19758 -0.1048,-0.33181c0.02966,-0.26311 0.01881,-0.53223 0.20176,-0.80488c0.27323,0.15431 0.46916,0.38623 0.64695,0.62358c0.03109,0.04514 0.03465,0.1349 0.03396,0.20773c0.02386,0.31968 0.04767,0.63949 0.05341,0.96462z" fill="#cce5e6"/><path d="M126.58595,176.30028c-0.11565,-0.14696 -0.19587,-0.23195 -0.28045,-0.33376c-0.14675,-0.19217 -0.21683,-0.38908 -0.16911,-0.65759c0.05861,-0.45332 0.0586,-0.90733 -0.04979,-1.32885c-0.03467,-0.13489 -0.02095,-0.15715 0.20027,-0.20522c0.013,0.05059 0.04411,0.09575 0.05709,0.14637c0.09033,0.42694 0.2486,0.81537 0.46112,1.18761c0.04407,0.09578 0.08383,0.17466 0.06941,0.26979c-0.07953,0.29621 -0.12296,0.58155 -0.28856,0.92162z" fill="#cae2e3"/><path d="M128.48027,172.91887c0.02239,0.01145 0.0492,0.03979 0.05349,0.05666c0.06357,0.39858 0.23127,0.74793 0.4127,1.075c0.15902,0.31557 0.24142,0.63597 0.14303,1.01039c-0.05135,0.1788 -0.02169,0.36966 -0.11355,0.54241c-0.38024,-0.26754 -0.55659,-0.65062 -0.52548,-1.0594c0.02752,-0.49853 0.07745,-0.98557 -0.06639,-1.46916c0.00505,-0.056 -0.01227,-0.12345 0.09616,-0.15589z" fill="#c9e1e2"/><path d="M127.84671,175.90488c-0.25011,-0.21571 -0.38311,-0.43011 -0.52043,-0.66141c-0.03973,-0.0789 -0.06143,-0.1632 -0.04262,-0.24148c0.04126,-0.5208 0.04202,-1.04761 0.00666,-1.5636c-0.00866,-0.03373 -0.00363,-0.08969 0.0911,-0.09988c0.03035,0.11801 0.06504,0.25289 0.11346,0.36554c0.10477,0.33181 0.22767,0.65822 0.4185,0.94612c0.13305,0.21441 0.17128,0.43903 0.09681,0.67922c-0.05135,0.1788 -0.107,0.34073 -0.16344,0.57552z" fill="#c9e1e2"/><path d="M124.64666,172.46795c-0.08679,0.11675 -0.17716,0.14379 -0.26751,0.17084c-0.02238,-0.01143 -0.04919,-0.03978 -0.07155,-0.05121c-0.10551,-0.25897 -0.27903,-0.47945 -0.49807,-0.64995c-0.12506,-0.10785 -0.1778,-0.23733 -0.1626,-0.40533c0.02458,-0.20708 0.02675,-0.42565 0.09184,-0.62673c0.23781,0.09226 0.5422,0.29175 0.61303,0.41583c0.05785,0.07347 0.03905,0.15174 0.04262,0.24148c0.09176,0.28123 0.09756,0.60638 0.25219,0.90508z" fill="#cae3e4"/><path d="M130.54161,169.50567c-0.11134,0.32385 -0.16854,0.63148 -0.20324,0.95059c-0.09974,0.06614 -0.17209,0.08782 -0.27546,0.06427c-0.16842,-0.27645 -0.22329,-0.64136 -0.40979,-0.91242c0.0427,-0.21251 0.16124,-0.35694 0.25306,-0.52969c0.05492,-0.08905 0.08747,-0.18958 0.20965,-0.2443c0.20096,0.17595 0.25224,0.45111 0.42573,0.67159z" fill="#c8e0e1"/><path d="M127.85361,171.16338c-0.16698,0.03181 -0.20241,-0.03023 -0.23783,-0.09225c-0.13736,-0.23131 -0.27032,-0.4457 -0.38962,-0.6824c-0.03543,-0.06205 -0.05276,-0.12948 -0.03398,-0.20777c0.07882,-0.2233 0.17573,-0.45205 0.29501,-0.66935c0.11636,0.07414 0.16048,0.1699 0.24071,0.25486c0.24069,0.25483 0.3325,0.53606 0.16695,0.87614c-0.07377,0.16735 -0.06654,0.34678 -0.04122,0.5208z" fill="#cbe4e5"/><path d="M128.9923,170.82268c-0.09035,0.02707 -0.14457,0.04328 -0.19879,0.05951c-0.02675,-0.02833 -0.06721,-0.03439 -0.07156,-0.05123c-0.08379,-0.17469 -0.14965,-0.35473 -0.23348,-0.5294c-0.04408,-0.09578 -0.04768,-0.18549 -0.01514,-0.28602c0.09761,-0.30158 0.21768,-0.59174 0.3919,-0.8981c0.16554,0.11389 0.22263,0.26022 0.27973,0.40657c0.01731,0.06744 0.03468,0.13491 0.01157,0.19626c-0.16558,0.3401 -0.18731,0.70978 -0.16422,1.10235z" fill="#c8e0e1"/><path d="M127.82592,165.83305c-0.0477,-0.18546 -0.08166,-0.39324 -0.21973,-0.55167c-0.05351,-0.05664 -0.05706,-0.14634 -0.07876,-0.23063c0.3029,-0.10879 0.6051,-0.14474 0.90656,-0.1078c0.02454,0.24687 0.15752,0.46129 0.24574,0.65279c-0.10483,0.12216 -0.24437,0.10943 -0.34411,0.1756c-0.15833,0.06553 -0.34343,0.10273 -0.50968,0.06172z" fill="#85d5d9"/><path d="M124.99988,175.88503c0.02532,-0.27997 0.05063,-0.55991 0.05357,-0.85133c-0.00647,-0.25228 -0.22045,-0.4788 -0.01435,-0.81282c0.14744,0.57325 0.40403,1.04128 0.66062,1.50925c-0.0427,0.21251 -0.09906,0.44729 -0.24081,0.65312c-0.04484,-0.02289 -0.06724,-0.03437 -0.08962,-0.04579c-0.13372,-0.14157 -0.2494,-0.28857 -0.36937,-0.45237z" fill="#c6dede"/><path d="M130.54475,175.49708c0.0528,-0.32453 0.09619,-0.60983 0.14899,-0.93437c0.17058,0.05793 0.25954,0.17658 0.3759,0.2507c0.12073,0.09096 0.27326,0.15433 0.36649,0.28985c0.03035,0.11801 -0.01592,0.24083 -0.04409,0.35821c-0.02819,0.11738 -0.07451,0.24018 -0.13884,0.36842c-0.27905,-0.02545 -0.47564,-0.18456 -0.70845,-0.3328z" fill="#cae3e3"/><path d="M131.76533,171.91782c0.25662,0.46798 0.49154,0.85168 0.83056,1.18599c-0.01595,0.24086 -0.01379,0.47624 -0.02538,0.73394c-0.26966,-0.06458 -0.41206,-0.23988 -0.58625,-0.38749c-0.02675,-0.02833 -0.03975,-0.07894 -0.0484,-0.11263c-0.05418,-0.43775 -0.10839,-0.87551 -0.17051,-1.41983z" fill="#cae3e4"/><path d="M126.29439,169.86855c0.25011,0.21569 0.45976,0.42535 0.3838,0.81124c-0.04774,0.26852 -0.00077,0.52685 0.04619,0.78518c0.02602,0.10119 -0.05998,0.14508 -0.17714,0.14382c-0.03326,-0.28057 -0.18865,-0.5065 -0.34407,-0.73237c-0.11999,-0.16383 -0.12289,-0.32639 -0.07153,-0.50519c0.0376,-0.1565 0.03476,-0.31909 0.16274,-0.50268z" fill="#c8e0e1"/><path d="M128.5502,166.83297c-0.27399,-0.08145 -0.27175,-0.29999 -0.30573,-0.50775c0.04626,-0.12277 0.16337,-0.12154 0.24937,-0.16542c0.23927,-0.05342 0.47351,-0.05087 0.71646,-0.01459c0.02962,0.19087 0.1496,0.35471 0.10263,0.55036c-0.08603,0.0439 -0.14027,0.06013 -0.21255,0.08176c-0.18942,0.02037 -0.37881,0.04075 -0.55016,0.05566z" fill="#85d4d9"/><path d="M128.17906,169.70415c-0.17348,-0.22047 -0.30216,-0.41804 -0.4489,-0.61018c0.11496,-0.23414 0.25232,-0.45683 0.41649,-0.65121c0.13521,-0.00415 0.19735,0.08623 0.26891,0.13743c0.07156,0.05123 0.1431,0.10243 0.15538,0.22587c-0.09259,0.24558 -0.23065,0.54111 -0.3919,0.8981z" fill="#c7dfe0"/><path d="M125.12905,169.72693c0.08319,-0.20648 0.14826,-0.40751 0.28995,-0.61337c0.25592,0.08685 0.39831,0.26214 0.58118,0.44348c-0.07449,0.24018 -0.14894,0.48038 -0.21911,0.73745c-0.24144,-0.18199 -0.42435,-0.36336 -0.65203,-0.56758z" fill="#c8e0e1"/><path d="M129.81594,176.29627c-0.17928,-0.09166 -0.35853,-0.18328 -0.49661,-0.34171c0.04774,-0.26852 0.11355,-0.54241 0.17502,-0.83318c0.03612,-0.0108 0.07228,-0.02162 0.07661,-0.00475c0.14748,0.11931 0.29925,0.25546 0.42865,0.38017c0.05349,0.05666 0.08894,0.11867 0.06579,0.18005c-0.05642,0.23477 -0.05861,0.45333 -0.24947,0.61943z" fill="#c4dcdd"/><path d="M126.91625,176.60093c0.08822,-0.26246 0.15838,-0.5195 0.24661,-0.78199c0.15759,0.00734 0.19225,0.14221 0.27251,0.22718c0.08023,0.08495 0.14676,0.19217 0.23131,0.29395c-0.03835,0.22935 -0.18443,0.41831 -0.28565,0.63024c-0.22913,-0.05853 -0.3448,-0.20554 -0.46477,-0.36938z" fill="#c8e0e1"/><path d="M124.64476,169.96261c-0.06585,0.27392 -0.11791,0.52559 -0.1794,0.81634c-0.21542,-0.08078 -0.35348,-0.23928 -0.55086,-0.32549c0.01161,-0.25768 0.15332,-0.46352 0.24587,-0.70909c0.20674,0.0471 0.37301,0.08813 0.48432,0.21826z" fill="#c6ddde"/><path d="M123.59547,173.07302c-0.25447,-0.23257 -0.42722,-0.52586 -0.72721,-0.70849c0.00216,-0.21856 -0.00937,-0.41489 0.06945,-0.63818c0.24722,0.05315 0.41282,0.16704 0.44168,0.43075c0.02385,0.31971 0.13803,0.6124 0.2161,0.91591z" fill="#b9cfd0"/><path d="M132.83814,171.85106c0.12144,0.01814 0.08896,0.11867 0.12432,0.18068c0.07517,0.14094 0.13227,0.28724 0.26676,0.35601c0.19229,0.14223 0.22193,0.33307 0.23779,0.54625c0.00358,0.08974 -0.01085,0.18485 -0.01665,0.31368c-0.28268,-0.11514 -0.50677,-0.22972 -0.51686,-0.5717c-0.00217,-0.23543 -0.08091,-0.46609 -0.11922,-0.69068c-0.01297,-0.05059 -0.02602,-0.10119 0.02387,-0.13426z" fill="#c0d8d8"/><path d="M131.26886,168.85227c0.12941,0.12474 0.20022,0.24877 0.23492,0.38366c0.01731,0.06744 0.03907,0.15176 0.01591,0.21313c-0.10631,0.26787 -0.15402,0.53636 -0.20176,0.80489c-0.12651,0.03782 -0.12578,-0.035 -0.13881,-0.08561c-0.04337,-0.16862 -0.09108,-0.3541 -0.17059,-0.51188c-0.09252,-0.20839 -0.07731,-0.37635 0.07306,-0.54847c0.07735,-0.07763 0.11858,-0.14443 0.18726,-0.25574z" fill="#c1d9d9"/><path d="M126.47448,169.43332c0.06073,-0.21789 0.17067,-0.39607 0.27189,-0.60795c0.22481,0.04168 0.3267,0.21094 0.4742,0.33024c-0.07013,0.25707 -0.22991,0.46829 -0.36298,0.70784c-0.16987,-0.13077 -0.26747,-0.28318 -0.38314,-0.43014z" fill="#c3dbdc"/><path d="M128.3731,175.52946c0.16919,0.20361 0.3159,0.39581 0.48071,0.58255c-0.03324,0.17341 -0.07089,0.3299 -0.20751,0.47976c-0.19735,-0.08623 -0.33107,-0.2278 -0.48292,-0.36394c0.01596,-0.24086 0.07665,-0.45872 0.2097,-0.69827z" fill="#c3dadb"/><path d="M127.88355,168.17642c-0.14173,0.20584 -0.26969,0.38938 -0.39765,0.57293c-0.21109,-0.06394 -0.34481,-0.20551 -0.47853,-0.34708c0.08748,-0.18961 0.2017,-0.35088 0.35641,-0.5061c0.0629,0.01752 0.14819,0.04647 0.193,0.06935c0.11637,0.07413 0.19228,0.14219 0.32674,0.21095z" fill="#c4dbdc"/><path d="M132.20208,170.13471c-0.0824,-0.3204 -0.14742,-0.57333 -0.21685,-0.84307c0.06002,-0.14509 0.14681,-0.26182 0.29642,-0.36104c0.13008,0.05188 0.12432,0.18071 0.18647,0.27107c0.06217,0.09033 0.10624,0.18612 0.12796,0.27041c-0.13739,0.22274 -0.24728,0.40088 -0.39405,0.66268z" fill="#c2d9da"/><path d="M131.10058,176.22058c-0.0376,0.1565 -0.1019,0.28473 -0.19304,0.38462c-0.14025,0.06012 -0.23858,-0.01945 -0.34193,-0.04296c-0.10334,-0.02351 -0.21614,-0.00795 -0.3007,-0.10975c-0.00723,-0.17943 0.08028,-0.36903 0.15909,-0.5924c0.11209,0.05727 0.22414,0.11454 0.33181,0.15496c0.11636,0.07414 0.23277,0.14825 0.34482,0.20553z" fill="#c5ddde"/><path d="M125.63445,168.74041c0.04702,-0.19569 0.17859,-0.28952 0.26101,-0.42312c0.22049,0.02485 0.38605,0.13873 0.57401,0.26405c-0.09181,0.17273 -0.18367,0.34549 -0.25744,0.51286c-0.24722,-0.05315 -0.38966,-0.22844 -0.57758,-0.35379z" fill="#c3dbdc"/><path d="M131.98781,173.99393c0.08533,0.02894 0.13011,0.05182 0.17493,0.07471c0.09396,0.06267 0.19228,0.14222 0.30866,0.21634c-0.06585,0.27392 -0.0774,0.53159 -0.22852,0.77657c-0.13521,0.00415 -0.21111,-0.06394 -0.31375,-0.16035c0.00725,-0.27454 0.02393,-0.58822 0.0586,-0.90733z" fill="#c7dfe0"/><path d="M129.07706,168.65459c0.14605,-0.18897 0.21114,-0.39 0.38826,-0.53379c0.18868,0.05252 0.25446,0.23254 0.40699,0.29587c-0.10633,0.26788 -0.25234,0.45684 -0.38972,0.67953c-0.21978,-0.09769 -0.26746,-0.28315 -0.40556,-0.44157z" fill="#c7dee0"/><path d="M128.33986,165.78824c0.09975,-0.06617 0.2393,-0.05341 0.34411,-0.1756c-0.09252,-0.20839 -0.20741,-0.42822 -0.24574,-0.6528c0.07665,-0.00477 0.17134,-0.01494 0.25229,-0.00288c0.12144,0.01814 0.21541,0.08082 0.24581,0.19887c0.07011,0.1969 0.1359,0.37696 0.20597,0.57393c-0.23497,0.07031 -0.34774,0.08589 -0.80246,0.05851z" fill="#61acb1"/><path d="M125.69382,176.76696c0.08319,-0.20648 0.15691,-0.37377 0.25816,-0.58567c0.16481,0.18674 0.32527,0.35661 0.47203,0.54878c-0.05565,0.16191 -0.11572,0.30698 -0.2162,0.44603c-0.21978,-0.09769 -0.35347,-0.23924 -0.51396,-0.40914z" fill="#c2dada"/><path d="M131.08313,168.50836c-0.08319,0.20648 -0.20174,0.3509 -0.32973,0.53446c-0.13302,-0.21441 -0.25734,-0.39514 -0.38167,-0.57587c0.03324,-0.17339 0.14679,-0.26183 0.26969,-0.38938c0.193,0.06934 0.29497,0.23863 0.44168,0.43075z" fill="#c1d9d9"/><path d="M127.95659,176.63468c0.20602,0.11995 0.34914,0.22239 0.51037,0.31944c-0.01085,0.18485 -0.12509,0.34613 -0.23937,0.50742c-0.18432,-0.03566 -0.35491,-0.09356 -0.50674,-0.22973c0.00219,-0.21854 0.16127,-0.35694 0.23573,-0.59715z" fill="#c6dedf"/><path d="M124.35341,169.35976c0.08748,-0.1896 0.19741,-0.36776 0.28922,-0.54051c0.16698,-0.03181 0.29277,0.00318 0.4316,0.08879c-0.01596,0.24086 -0.18443,0.41831 -0.26323,0.64168c-0.18003,-0.01875 -0.3007,-0.10978 -0.45759,-0.18993z" fill="#c0d7d7"/><path d="M132.89719,174.04875c0.02458,-0.2071 -0.00934,-0.41485 0.10992,-0.63215c0.13882,0.0856 0.27327,0.15433 0.40772,0.22304c0.05201,0.20233 0.00501,0.39796 -0.10488,0.5761c-0.15758,-0.00734 -0.26962,-0.06459 -0.41275,-0.167z" fill="#c3dadb"/><path d="M129.08231,166.78271c0.07229,-0.02162 0.14026,-0.06015 0.21257,-0.0818c0.04702,-0.19569 -0.07295,-0.35949 -0.10263,-0.55036c0.12217,-0.05471 0.22052,0.02485 0.35134,0.00383c0.12865,0.19757 0.1265,0.41612 0.30938,0.59745c-0.17639,0.07091 -0.29782,0.0528 -0.43738,0.04009c-0.09906,-0.00665 -0.21692,0.06486 -0.33325,-0.00924z" fill="#5aa0a4"/><path d="M122.13227,172.07631c0.0246,-0.20707 -0.00936,-0.41488 0.09621,-0.60988c0.13521,-0.00415 0.22485,0.04171 0.35931,0.11038c0.01155,0.19631 -0.01304,0.40339 -0.08244,0.58761c-0.1352,0.00413 -0.22049,-0.02483 -0.37302,-0.08814z" fill="#bdd3d4"/><path d="M126.96836,167.79658c-0.10051,0.13903 -0.18295,0.27263 -0.26535,0.40624c-0.18434,-0.03566 -0.32316,-0.12123 -0.46629,-0.22364c0.01954,-0.1511 0.13739,-0.22274 0.26388,-0.26057c0.16265,-0.04871 0.3253,-0.09736 0.46773,0.07795z" fill="#bdd4d5"/><path d="M124.14607,176.12235c0.03836,-0.22935 0.08101,-0.44191 0.11932,-0.67124c0.27178,0.3 0.44452,0.59333 0.15677,0.98812c-0.13008,-0.05188 -0.18287,-0.18135 -0.27612,-0.31687z" fill="#bbd2d3"/><path d="M128.74891,167.68143c0.16191,0.02419 0.26025,0.10374 0.35854,0.18329c0.03035,0.11801 -0.05136,0.1788 -0.10633,0.26786c-0.04121,0.06678 -0.07808,0.15044 -0.18221,0.19976c-0.16191,-0.02419 -0.2053,-0.19275 -0.37157,-0.23382c0.06939,-0.18421 0.17422,-0.30637 0.30145,-0.41708z" fill="#c3dadb"/><path d="M128.08196,173.11068c0.04186,0.31433 0.08381,0.62862 0.0534,0.96459c-0.11276,0.01556 -0.15257,-0.06332 -0.17421,-0.14763c-0.07443,-0.21378 -0.13081,-0.43294 -0.18283,-0.63528c-0.03903,-0.15174 0.06075,-0.21795 0.30363,-0.18164z" fill="#b1c6c7"/><path d="M123.31456,169.63429c-0.00144,0.14567 -0.09689,0.22873 -0.14749,0.33466c-0.08317,0.20648 -0.24148,0.27201 -0.48008,0.2526c0.04774,-0.2685 0.22562,-0.48514 0.37165,-0.67412c0.13086,-0.02099 0.19377,-0.0035 0.25592,0.08685z" fill="#bbd2d3"/><path d="M125.70345,174.00396c0.1547,0.29875 0.10187,0.62321 0.0715,0.95918c-0.16918,-0.20361 -0.23416,-0.45655 -0.31297,-0.68717c-0.05711,-0.14635 -0.01156,-0.19632 0.24147,-0.272z" fill="#bad1d2"/><path d="M122.57246,173.10671c-0.16119,-0.09705 -0.31372,-0.16037 -0.47493,-0.25738c-0.0036,-0.08972 0.02028,-0.22399 0.02605,-0.35281c0.34701,-0.01303 0.35135,0.00383 0.38966,0.22844c0.03033,0.11803 0.04262,0.24148 0.05923,0.38176z" fill="#b5cbcc"/><path d="M129.10371,177.68967c-0.19374,0.00347 -0.32389,-0.04835 -0.45399,-0.10022c0.01521,-0.168 0.14247,-0.27868 0.24293,-0.41771c0.1482,0.04642 0.27828,0.09833 0.4265,0.14477c0.02095,0.15715 -0.13301,0.23956 -0.21547,0.37319z" fill="#c0d7d8"/><path d="M123.33248,171.44477c-0.11709,-0.0013 -0.2111,-0.06394 -0.30944,-0.14347c-0.00214,-0.23543 0.07665,-0.45874 0.2003,-0.65917c0.12217,-0.05471 0.17134,-0.01494 0.22913,0.05853c-0.03396,0.24623 -0.06798,0.49249 -0.12007,0.74411z" fill="#bdd4d4"/><path d="M125.55059,177.11849c0.14748,0.11931 0.28119,0.26085 0.42867,0.38016c-0.05062,0.10593 -0.13233,0.1667 -0.24075,0.19916c-0.11709,-0.00129 -0.17494,-0.07473 -0.25082,-0.14281c-0.05349,-0.05666 -0.10698,-0.11325 -0.16048,-0.16989c0.02819,-0.11741 0.08315,-0.20649 0.22343,-0.26661z" fill="#b6cccc"/><path d="M129.19782,176.39039c0.16119,0.09705 0.29998,0.18261 0.47929,0.27427c0.00795,0.10656 -0.02025,0.22398 -0.16992,0.32324c-0.14821,-0.0464 -0.30073,-0.10975 -0.47132,-0.16764c0.0376,-0.1565 0.06145,-0.29079 0.16198,-0.42981z" fill="#c1d9d9"/><path d="M124.69333,176.81208c0.0376,-0.1565 0.08388,-0.27934 0.18872,-0.40148c0.16119,0.09705 0.2407,0.25487 0.32961,0.37351c-0.00144,0.14567 -0.10122,0.21186 -0.17858,0.28949c-0.05855,-0.00063 -0.09471,0.01017 -0.09906,-0.00665c-0.08021,-0.08495 -0.16045,-0.16988 -0.2407,-0.25487z" fill="#b7cdce"/><path d="M123.36241,175.64865c0.19228,0.14224 0.23132,0.29396 0.3065,0.4349c0.09759,0.15238 0.00649,0.25229 -0.09833,0.37446c-0.16119,-0.09705 -0.23638,-0.23798 -0.34337,-0.35125c-0.0072,-0.17942 0.16052,-0.2841 0.13523,-0.45812z" fill="#b6cccc"/><path d="M122.30452,171.08048c0.05567,-0.16192 0.10193,-0.28472 0.14388,-0.42438c0.15833,-0.06553 0.26678,-0.09797 0.41496,-0.05152c-0.06942,0.18422 -0.12076,0.363 -0.17641,0.52492c-0.14963,0.09928 -0.24793,0.0197 -0.36072,0.03532c-0.00866,-0.03373 -0.03542,-0.06205 -0.02171,-0.08432z" fill="#c2dada"/><path d="M129.9655,177.10497c0.02388,-0.13423 0.06509,-0.20104 0.14676,-0.26184c0.10414,-0.04931 0.19374,-0.00348 0.29712,0.02003c0.08531,0.02894 0.21615,0.00795 0.26457,0.12057c-0.06436,0.12817 -0.1511,0.24495 -0.30512,0.32735c-0.15254,-0.06331 -0.26892,-0.13745 -0.40339,-0.20617z" fill="#bbd2d3"/><path d="M130.39212,167.78904c-0.10484,0.12217 -0.17787,0.21665 -0.26894,0.31653c-0.15689,-0.08017 -0.26385,-0.19345 -0.38893,-0.3013c0.04627,-0.12278 0.1193,-0.2173 0.24582,-0.25511c0.04049,0.00603 0.08097,0.01211 0.10773,0.04042c0.08962,0.04579 0.18364,0.10854 0.30435,0.19949z" fill="#bbd2d3"/><path d="M122.08888,173.2696c0.26459,0.12058 0.26461,0.12058 0.42865,0.38018c-0.05568,0.16194 -0.19594,0.22204 -0.34559,0.32128c-0.11496,-0.21986 -0.08094,-0.46606 -0.08309,-0.70148z" fill="#adc2c3"/><path d="M128.38092,167.53731c-0.04627,0.12278 -0.13741,0.22271 -0.25957,0.27739c-0.15689,-0.08017 -0.29133,-0.14884 -0.43009,-0.23446c0.26389,-0.26057 0.28193,-0.26599 0.68968,-0.04299z" fill="#b5cbcc"/><path d="M126.52509,177.42613c0.05999,-0.14509 0.11065,-0.25102 0.2155,-0.37315c0.16624,0.04104 0.2595,0.17658 0.40265,0.27905c-0.02314,0.06141 -0.05061,0.10592 -0.07807,0.15047c-0.02747,0.04455 -0.07735,0.07763 -0.1229,0.12759c-0.17568,-0.00191 -0.29203,-0.07603 -0.41712,-0.1839z" fill="#bbd1d2"/><path d="M131.68032,168.25704c0.2111,0.06396 0.28119,0.26087 0.40627,0.36869c-0.04197,0.13965 -0.16413,0.19441 -0.25525,0.29428c-0.17422,-0.1476 -0.25371,-0.30542 -0.24717,-0.50712c-0.01297,-0.05059 0.05061,-0.10595 0.09615,-0.15589z" fill="#b6cccd"/><path d="M132.59717,175.22803c0.07013,-0.25707 0.16271,-0.50264 0.23719,-0.74282c0.13087,-0.02098 0.21613,0.00794 0.3188,0.10433c-0.13301,0.23956 -0.26607,0.47908 -0.46633,0.68429c-0.04484,-0.02291 -0.06724,-0.03437 -0.08963,-0.0458z" fill="#acc1c2"/><path d="M126.90713,174.37014c-0.11061,-0.20299 -0.20311,-0.41138 -0.22331,-0.64137c-0.00358,-0.08974 0.03326,-0.17339 0.12362,-0.20042c0.03612,-0.0108 0.11711,0.0013 0.12145,0.01816c0.0831,0.2475 0.02165,0.53828 -0.02174,0.82363z" fill="#a7bbbb"/><path d="M127.27333,177.83783c0.01014,-0.112 0.08748,-0.18961 0.18292,-0.27263c0.15254,0.06331 0.30506,0.12664 0.4576,0.18995c-0.0376,0.1565 -0.14171,0.20581 -0.26822,0.24366c-0.12144,-0.01814 -0.25591,-0.08683 -0.3723,-0.161z" fill="#b7cdcd"/><path d="M125.56439,168.08952c-0.04702,0.19569 -0.15186,0.3178 -0.27475,0.44538c-0.15758,-0.00734 -0.28339,-0.04231 -0.39468,-0.17245c0.19086,-0.16606 0.41209,-0.21408 0.66945,-0.27295z" fill="#b7cece"/><path d="M133.08267,169.47173c0.17856,0.16447 0.16262,0.40529 0.29637,0.54685c-0.04626,0.12277 -0.12293,0.12756 -0.17208,0.0878c-0.12506,-0.10784 -0.23641,-0.23799 -0.27972,-0.40659c0.00506,-0.05601 0.00075,-0.07285 0.15545,-0.22811z" fill="#b4cacb"/><path d="M131.84387,175.32631c0.12143,0.01815 0.18868,0.05248 0.24652,0.12595c-0.08317,0.20648 -0.16197,0.4298 -0.38033,0.6404c-0.09176,-0.28123 0.02753,-0.49851 0.13381,-0.76637z" fill="#b2c8c9"/><path d="M129.4393,167.56565c-0.1482,-0.04642 -0.25592,-0.08685 -0.31808,-0.1772c0.00072,-0.07285 0.05061,-0.10596 0.10051,-0.13903c0.19952,-0.13233 0.32027,-0.04132 0.45397,0.10022c-0.08167,0.06078 -0.15905,0.1384 -0.23641,0.21602z" fill="#b5cbcb"/><path d="M124.53584,174.53487c0.07444,0.21379 0.12214,0.39924 0.11995,0.61778c-0.08604,0.04388 -0.13518,0.00413 -0.1482,-0.04643c-0.04842,-0.11264 -0.11493,-0.21987 -0.16335,-0.33247c-0.03467,-0.13489 0.02895,-0.19023 0.19159,-0.23886z" fill="#91a3a3"/><path d="M131.49055,172.81714c-0.17856,-0.16447 -0.21685,-0.38909 -0.26887,-0.59143c-0.00866,-0.03373 0.0188,-0.07828 0.05062,-0.10593c0.03612,-0.0108 0.09903,0.00665 0.10339,0.02354c0.11496,0.21986 0.13515,0.44984 0.1149,0.67382z" fill="#99abac"/><path d="M132.21062,171.98431c0.10918,-0.10531 0.19954,-0.13233 0.25738,-0.05884c0.06649,0.10724 0.0737,0.28663 0.05779,0.52746c-0.1699,-0.13076 -0.21757,-0.31621 -0.31513,-0.46861z" fill="#93a5a6"/><path d="M123.86329,168.81642c-0.09691,0.22873 -0.17137,0.46893 -0.53139,0.4314c0.0926,-0.24557 0.32752,-0.31588 0.53139,-0.4314z" fill="#9aadad"/><path d="M124.90557,171.80942c0.08893,0.11869 0.18216,0.25418 0.26673,0.35603c-0.03255,0.10052 -0.08242,0.13361 -0.19521,0.14919c-0.12942,-0.12473 -0.10049,-0.31496 -0.1576,-0.46132c0.03612,-0.0108 0.05423,-0.01621 0.08607,-0.04391z" fill="#c5dddd"/><path d="M129.17784,173.43652c-0.21904,-0.17053 -0.27537,-0.38976 -0.25949,-0.63056c-0.00434,-0.01688 0.02748,-0.04458 0.06362,-0.05538c0.0499,-0.03307 0.09903,0.00665 0.1077,0.0404c0.0658,0.18005 0.06358,0.39865 0.08816,0.64553z" fill="#aec2c3"/><path d="M131.32103,168.14665c-0.16119,-0.09705 -0.25879,-0.24942 -0.35203,-0.38497c0.03254,-0.10052 0.1092,-0.10531 0.16267,-0.04869c0.10266,0.0964 0.20095,0.17595 0.28984,0.29462c0.04484,0.02291 0.00363,0.08969 -0.1005,0.13902z" fill="#9caeaf"/><path d="M128.32224,177.90533c0.17568,0.00191 0.30143,0.0369 0.45399,0.10023c-0.21761,0.13776 -0.42941,0.14666 -0.64631,0.21153c0.00507,-0.05601 -0.00358,-0.08974 0.01016,-0.11196c0.05929,-0.0722 0.12288,-0.12755 0.18216,-0.19979z" fill="#a9bebf"/><path d="M129.64295,170.62802c-0.11785,0.07158 -0.19444,0.07635 -0.2798,0.04737c-0.06141,-0.16321 -0.0462,-0.33117 0.09115,-0.55388c0.08818,0.19153 0.12719,0.34327 0.18868,0.50648z" fill="#b9cfd0"/><path d="M124.0763,172.74757c-0.03255,0.10052 -0.10053,0.13902 -0.16846,0.17751c-0.09905,-0.00669 -0.12072,-0.09097 -0.17055,-0.51189c0.24291,0.03627 0.23638,0.23797 0.33902,0.33439z" fill="#869797"/><path d="M130.25361,173.0783c-0.01516,-0.28601 -0.23854,-0.47341 -0.03752,-0.75143c0.13736,0.23131 0.17133,0.439 0.03752,0.75143z" fill="#93a4a5"/><path d="M123.80848,175.64232c-0.06504,-0.25289 -0.10839,-0.42154 -0.15176,-0.59014c-0.00866,-0.03373 0.0188,-0.07828 0.07301,-0.09446c0.0181,-0.00541 0.05857,0.00065 0.08098,0.01208c0.08821,0.1915 0.13591,0.37703 -0.00221,0.67252z" fill="#94a5a6"/><path d="M123.2737,173.26008c-0.09114,0.09987 -0.14094,0.13298 -0.24868,0.09258c-0.05275,-0.12947 -0.10988,-0.27583 -0.09901,-0.46068c0.21108,0.06398 0.25442,0.23255 0.34767,0.36806z" fill="#abbfc0"/><path d="M123.80263,176.67911c0.08169,-0.06077 0.1135,-0.08844 0.14968,-0.09927c0.25952,0.17656 0.25948,0.17656 0.26596,0.42883c-0.20674,-0.0471 -0.25013,-0.21568 -0.41563,-0.32958z" fill="#acc0c1"/><path d="M123.83643,169.69609c-0.07377,0.16735 -0.12509,0.34613 -0.21693,0.51887c-0.04121,0.06678 -0.11353,0.08842 -0.19374,0.00348c0.08319,-0.20648 0.17064,-0.39607 0.41067,-0.52233z" fill="#9fb2b2"/><path d="M126.31037,177.72649c0.10774,0.04042 0.17494,0.07478 0.23276,0.14825c-0.01879,0.07829 -0.06433,0.12822 -0.15038,0.17212c-0.11278,0.01556 -0.20674,-0.0471 -0.3007,-0.10978c0.01014,-0.112 0.11423,-0.16129 0.21833,-0.21056z" fill="#aec2c3"/><path d="M127.05769,171.02022c0.16622,0.04102 0.19663,0.1591 0.24505,0.2717c0.01297,0.05059 -0.03253,0.10049 -0.08676,0.11674c-0.03612,0.0108 -0.09908,-0.00666 -0.10772,-0.0404c-0.08023,-0.08495 -0.07011,-0.19696 -0.05055,-0.34804z" fill="#91a2a3"/><path d="M129.60328,177.73996c0.12511,-0.34615 0.1388,-0.36842 0.4345,-0.20265c-0.13593,0.07697 -0.24075,0.19915 -0.4345,0.20265z" fill="#869696"/><path d="M133.22709,171.69839c0.19735,0.08624 0.16915,0.2036 0.18144,0.32706c-0.18434,-0.03566 -0.18434,-0.03566 -0.18144,-0.32706z" fill="#555f5f"/><path d="M126.07233,171.80533c-0.02169,-0.08431 -0.05202,-0.20231 -0.02817,-0.3366c0.20169,0.1031 0.21901,0.17053 0.17711,0.31017c-0.0094,0.03914 -0.06363,0.05539 -0.14894,0.02639z" fill="#93a5a6"/><path d="M123.01474,175.73451c-0.23278,-0.14826 -0.2234,-0.18738 0.05282,-0.3245c0.0665,0.10723 0.01591,0.21316 -0.05282,0.3245z" fill="#8b9b9c"/><path d="M133.75834,172.17494c-0.09758,-0.1524 -0.11417,-0.29266 -0.13079,-0.43301c0.09542,-0.08303 0.15834,-0.06551 0.17566,0.00193c0.03468,0.13488 0.05129,0.27519 -0.04483,0.43105z" fill="#9aacad"/><path d="M124.69176,177.41182c-0.13008,-0.05188 -0.25157,-0.07001 -0.2682,-0.21031c-0.00431,-0.01688 0.00938,-0.03913 0.02747,-0.04455c0.17134,-0.01495 0.23352,0.07543 0.24071,0.25486z" fill="#5f6a6b"/><path d="M128.30334,170.79275c0.07156,0.05123 0.08893,0.11869 0.08816,0.19155c-0.0094,0.03914 -0.03688,0.08365 -0.07737,0.07761c-0.04049,-0.00603 -0.08531,-0.02894 -0.09396,-0.06268c-0.01731,-0.06744 -0.0166,-0.14028 0.08318,-0.20646z" fill="#636e6f"/><path d="M127.11706,178.13879c-0.11352,0.08843 -0.2082,0.09862 -0.3152,-0.01463c0.12725,-0.1107 0.21254,-0.08178 0.3152,0.01463z" fill="#4a5354"/></g><g fill="#000000" stroke="#000000" stroke-width="1.2"><path d="M132.29648,149.63466c0.90304,1.63301 -0.00071,4.85587 0.28518,7.13297c0.30776,2.45164 1.7247,3.80483 1.02723,5.29112c-0.48718,1.03816 -2.02385,1.43969 -2.84628,1.54292c-1.99985,0.25108 -4.04485,-2.92105 -4.5676,-7.08512c-0.52276,-4.16408 0.67466,-7.74325 2.67449,-7.99432c0.90623,-0.11378 2.67866,-0.24082 3.42697,1.11239z"/><path d="M128.52579,147.9308c1.23841,2.28838 0.99591,8.28493 0.99591,8.28493c0,0 1.57447,3.59887 1.58374,3.68494c0.59206,5.48574 -2.86354,5.9811 -6.80144,6.47545c-1.87418,0.23531 -4.85153,-0.16282 -6.091,-1.74785c-1.40572,-1.7976 -1.17634,-4.58547 -1.56015,-7.64274c-0.72223,-5.75298 1.03599,-10.94073 5.03568,-11.44286c1.76065,-0.22103 5.18319,-0.66827 6.83724,2.38812z"/></g></g><path d="M141.13487,204.20531c-1.76116,-1.42372 0.29938,-6.58887 4.60239,-11.5367c4.303,-4.94784 9.21899,-7.8047 10.98016,-6.381c1.76116,1.42372 -0.29938,6.58887 -4.60239,11.5367c-4.303,4.94784 -9.21899,7.8047 -10.98016,6.381z" fill="none" fill-rule="nonzero" stroke="#000000" stroke-width="4.5" stroke-linecap="butt" stroke-linejoin="miter"/><g fill="#ff0000" fill-rule="nonzero" stroke="none" stroke-linecap="butt" stroke-linejoin="miter"><path d="M109.45498,149.31699c-1.14228,-0.3738 -1.91285,-1.53238 -1.72112,-2.58781c0.19173,-1.05541 1.27316,-1.60798 2.41543,-1.23418c1.14228,0.3738 1.91285,1.53238 1.72113,2.58781c-0.19173,1.05541 -1.27317,1.60798 -2.41543,1.23419z" stroke-width="NaN"/><path d="M104.52463,150.40305c-1.05091,-0.34389 -1.76468,-1.38319 -1.59425,-2.32132c0.17042,-0.93814 1.1605,-1.4199 2.21141,-1.07599c1.05091,0.34389 1.76466,1.3832 1.59424,2.32134c-0.17042,0.93814 -1.1605,1.41989 -2.21139,1.07598z" stroke-width="0"/><path d="M101.36746,146.07057c-1.09658,-0.35885 -1.84741,-1.41027 -1.67697,-2.3484c0.17042,-0.93814 1.19754,-1.40777 2.29415,-1.04891c1.09658,0.35885 1.84741,1.41026 1.67697,2.3484c-0.17042,0.93814 -1.19754,1.40777 -2.29413,1.04892z" stroke-width="0"/><path d="M114.81704,155.9481c0.40402,-0.66926 1.46944,-0.75879 2.3797,-0.19996c0.91028,0.55884 1.32067,1.55441 0.91665,2.22366c-0.40402,0.66926 -1.46944,0.75879 -2.37973,0.19996c-0.91028,-0.55884 -1.32065,-1.5544 -0.91663,-2.22365z" stroke-width="NaN"/><path d="M114.19959,151.98149c0.3717,-0.61572 1.32892,-0.71218 2.13805,-0.21545c0.80912,0.49674 1.16373,1.39856 0.79202,2.01429c-0.3717,0.61572 -1.32894,0.71217 -2.13806,0.21543c-0.80912,-0.49674 -1.16373,-1.39856 -0.79202,-2.01429z" stroke-width="0"/><path d="M111.1736,153.11342c0.42017,-0.69604 1.38939,-0.87437 2.16479,-0.39833c0.77542,0.47605 1.06337,1.4262 0.64319,2.12224c-0.42017,0.69604 -1.38939,0.87437 -2.16481,0.39832c-0.77542,-0.47605 -1.06338,-1.42618 -0.64319,-2.12221z" stroke-width="0"/><path d="M115.99127,140.94515c-1.02932,-0.6609 -1.40307,-1.90682 -0.83484,-2.78283c0.56824,-0.87602 1.86333,-1.0504 2.89264,-0.3895c1.02932,0.6609 1.40308,1.9068 0.83483,2.78283c-0.56824,0.87602 -1.86333,1.05041 -2.89265,0.38951z" stroke-width="NaN"/><path d="M110.59375,140.47521c-0.94695,-0.60802 -1.30516,-1.73217 -0.80005,-2.51084c0.50511,-0.77867 1.68224,-0.91701 2.62921,-0.30897c0.94695,0.60802 1.30515,1.73216 0.80006,2.51086c-0.50511,0.77867 -1.68224,0.91701 -2.62922,0.30899z" stroke-width="0"/><path d="M119.75086,147.90434c0.64751,-0.47367 1.76257,-0.24398 2.49051,0.51302c0.72794,0.757 0.7931,1.75465 0.14557,2.22832c-0.64751,0.47367 -1.76257,0.24397 -2.49051,-0.51302c-0.72794,-0.757 -0.79311,-1.75464 -0.14559,-2.22831z" stroke-width="NaN"/><path d="M124.78435,144.91417c0.62165,-0.45471 1.65009,-0.27784 2.29718,0.39503c0.64706,0.67288 0.66768,1.58698 0.04603,2.04171c-0.62165,0.45471 -1.65011,0.27786 -2.29716,-0.39502c-0.64706,-0.67288 -0.66767,-1.58699 -0.04603,-2.04171z" stroke-width="0"/><path d="M117.04868,144.34659c0.67343,-0.49261 1.72204,-0.3692 2.34214,0.27564c0.6201,0.64486 0.57687,1.56694 -0.09655,2.05956c-0.67343,0.49261 -1.72205,0.36919 -2.34215,-0.27564c-0.6201,-0.64486 -0.57686,-1.56694 0.09658,-2.05958z" stroke-width="0"/></g><path d="M92.66765,219.19463c-19.10443,-19.82792 -18.05867,-51.83132 2.33576,-71.48158c20.39442,-19.65026 52.41457,-19.50627 71.519,0.32167c19.10443,19.82792 18.05867,51.83132 -2.33576,71.48158c-20.39442,19.65026 -52.41457,19.50627 -71.519,-0.32167z" fill="#000000" fill-rule="nonzero" stroke="#7d7d7d" stroke-width="4" stroke-linecap="butt" stroke-linejoin="miter"/><path d="M117.80846,231.72377c-9.44504,-1.22749 -16.20297,-9.13834 -15.09426,-17.66933c1.10872,-8.531 9.66423,-14.45166 19.10927,-13.22416c9.44504,1.22749 16.20297,9.13834 15.09426,17.66933c-1.10872,8.531 -9.66423,14.45166 -19.10927,13.22416z" fill="#888888" fill-rule="nonzero" stroke="none" stroke-width="0" stroke-linecap="butt" stroke-linejoin="miter"/><g stroke-linejoin="miter"><path d="M135.25244,222.87368c-3.9008,-12.87298 3.84265,-26.61326 17.29549,-30.68979c13.45283,-4.07651 27.52076,3.05443 31.42157,15.92739c3.9008,12.87298 -3.84265,26.61326 -17.29549,30.68979c-13.45283,4.07651 -27.52076,-3.05443 -31.42157,-15.92739z" fill="none" fill-rule="nonzero" stroke="#000000" stroke-width="4.5" stroke-linecap="butt"/><g stroke-linecap="butt"><g fill-rule="nonzero"><path d="M178.61241,226.17684l-0.0133,-0.00443" fill="#ffab19" stroke="#000000" stroke-width="5"/><g fill="none" stroke="none" stroke-width="1" font-family="sans-serif" font-weight="normal" font-size="12" text-anchor="start"/></g><path d="M178.61241,226.17684l-0.0133,-0.00443" fill="#ffab19" fill-rule="nonzero" stroke="#000000" stroke-width="5"/><path d="M159.53496,214.23764" fill="#001026" fill-rule="evenodd" stroke="#000000" stroke-width="5"/><g fill="none" fill-rule="nonzero" stroke="none" stroke-width="1" font-family="sans-serif" font-weight="normal" font-size="12" text-anchor="start"/><g fill="none" fill-rule="nonzero" stroke="none" stroke-width="1" font-family="sans-serif" font-weight="normal" font-size="12" text-anchor="start"/></g><path d="M157.838,189.66806l28.25,-8.31619c0,0 2.39944,-0.37251 2.32904,0.59081c-0.16142,2.20894 -3.27803,12.39548 -3.27803,12.39548l12.33563,0.41351c0,0 2.29997,0.24747 2.92441,1.20686c0.5809,0.89248 -7.60798,13.15532 -7.60798,13.15532c0,0 8.95853,1.0571 11.67617,2.30355c1.06715,0.48944 -8.72942,11.45191 -15.94396,17.53408c-3.53029,2.97619 -8.26877,7.28299 -12.54596,9.34216c-7.09191,3.41425 -13.49686,2.9604 -13.49686,2.9604" fill="none" fill-rule="nonzero" stroke="#000000" stroke-width="3" stroke-linecap="round"/><path d="M187.87733,180.80966c0,0 0.91451,1.18979 0.29839,3.39615c-0.77171,2.76351 -4.93987,7.42335 -2.67225,9.2037c2.93746,2.30628 14.87253,-1.7883 14.50209,2.34371c-0.30418,3.39287 -7.59156,11.31045 -6.99084,13.29286c0.59937,1.97803 4.60632,-0.54993 7.91109,1.32324c4.70012,2.66403 2.98082,3.19086 2.98082,3.19086c0,0 -9.04994,10.5503 -13.79147,14.54381c-4.44863,3.74679 -13.83509,8.72427 -13.83509,8.72427c0,0 10.30624,-17.48731 10.01214,-25.80829c-0.32603,-9.22396 -22.52368,-21.92796 -22.52368,-21.92796z" fill="url(#color-1)" fill-rule="nonzero" stroke="none" stroke-width="0" stroke-linecap="butt"/></g><path d="M163.12317,216.75913c-2.36051,-1.98553 -2.23262,-6.02206 0.2856,-9.01587c2.51822,-2.9938 6.47322,-3.81117 8.8337,-1.82564c2.36051,1.98553 2.23262,6.02206 -0.2856,9.01587c-2.51822,2.9938 -6.47322,3.81117 -8.8337,1.82564z" fill="none" fill-rule="nonzero" stroke="#000000" stroke-width="4.5" stroke-linecap="butt" stroke-linejoin="miter"/><path d="M167.92352,197.06012c0,0 -1.26183,2.22025 -4.22842,2.81625c-2.7496,0.55243 -12.96955,0.63897 -12.96955,0.63897" fill="none" fill-rule="nonzero" stroke="#000000" stroke-width="3" stroke-linecap="round" stroke-linejoin="miter"/></g></g></svg>