<svg version="1.1" xmlns="http://www.w3.org/2000/svg" xmlns:xlink="http://www.w3.org/1999/xlink" width="81.51823" height="114.35917" viewBox="0,0,81.51823,114.35917"><defs><linearGradient x1="214.92492" y1="165.51292" x2="192.65549" y2="162.78113" gradientUnits="userSpaceOnUse" id="color-1"><stop offset="0" stop-color="#000000"/><stop offset="1" stop-color="#000000" stop-opacity="0"/></linearGradient><linearGradient x1="241.57168" y1="163.62901" x2="241.41821" y2="165.62311" gradientUnits="userSpaceOnUse" id="color-2"><stop offset="0" stop-color="#008cff"/><stop offset="1" stop-color="#008cff" stop-opacity="0"/></linearGradient><linearGradient x1="252.56927" y1="157.19429" x2="251.43392" y2="171.94604" gradientUnits="userSpaceOnUse" id="color-3"><stop offset="0" stop-color="#008cff"/><stop offset="1" stop-color="#008cff" stop-opacity="0"/></linearGradient><linearGradient x1="231.75663" y1="155.73993" x2="230.62128" y2="170.49167" gradientUnits="userSpaceOnUse" id="color-4"><stop offset="0" stop-color="#008cff"/><stop offset="1" stop-color="#008cff" stop-opacity="0"/></linearGradient></defs><g transform="translate(-193.35087,-135.44896)"><g data-paper-data="{&quot;isPaintingLayer&quot;:true}" fill-rule="nonzero" stroke-linejoin="miter" stroke-miterlimit="10" stroke-dasharray="" stroke-dashoffset="0" style="mix-blend-mode: normal"><path d="M235.09478,233.99296l1.18081,-19.73759l10.14361,-1.55174l1.32337,21.21377c0,0 -5.76547,4.16344 -7.31203,4.08354c-1.47978,-0.07645 -5.33575,-4.00798 -5.33575,-4.00798z" fill="#000000" stroke="#0f0f0f" stroke-width="1" stroke-linecap="butt"/><path d="M219.19799,234.67214l4.68965,-20.78012l10.4719,0.35773l-2.70394,22.60869c0,0 -6.41679,3.06588 -7.92417,2.71084c-1.44229,-0.33971 -4.53345,-4.89713 -4.53345,-4.89713z" fill="#000000" stroke="#0f0f0f" stroke-width="1" stroke-linecap="butt"/><path d="M235.57459,189.53539l-0.98643,15.86593" fill="none" stroke="#000000" stroke-width="6" stroke-linecap="round"/><path d="M218.63921,212.06111c0.22281,-0.2855 4.6742,-0.01737 4.81741,-2.0119c0.1184,-1.64894 -4.03715,-5.4141 -4.14393,-7.25265c-0.09399,-1.61845 1.86598,-6.18398 5.55047,-8.49682c4.39821,-2.76086 10.65885,-3.16166 10.65885,-3.16166c0,0 6.35362,5.27408 9.24559,6.61526c1.81613,0.84225 5.03497,-0.14324 5.03497,-0.14324" fill="none" stroke="#000000" stroke-width="6" stroke-linecap="round"/><path d="M229.47477,244.41895c-0.76847,1.10681 -3.57421,4.79831 -6.00213,4.78916c-2.27266,-0.00857 -4.17301,-3.62515 -4.93373,-5.25712c-1.25725,-2.69714 0.38265,-9.80773 0.41971,-10.54358c0.01207,-0.23972 0.75914,2.57842 2.13407,4.13501c1.02386,1.15914 4.82042,1.47369 6.07253,1.00228c2.038,-0.76728 5.31772,-3.52365 5.29063,-2.98579c0,0 -1.07356,6.1127 -2.98107,8.86005z" fill="#000000" stroke="#001026" stroke-width="1.2" stroke-linecap="butt"/><path d="M245.68567,194.05921c0,0.25467 -1.49235,0.15139 -1.6382,0.90773c-0.16899,0.87627 -0.3786,2.52054 -0.06525,3.74764c0.31453,1.23173 1.15195,2.04464 0.93679,2.04464c-0.93888,0 -2.96667,-1.9182 -2.96667,-4.36667c0,-2.44846 -1.80555,-4.96667 -0.86667,-4.96667c0.16151,0 4.6,2.41951 4.6,2.63333z" fill="#000000" stroke="#0f0f0f" stroke-width="1" stroke-linecap="butt"/><g data-paper-data="{&quot;index&quot;:null}" fill="#000000" stroke="#000000" stroke-width="1.2" stroke-linecap="butt"><path d="M259.53623,204.8215c-1.39652,0.63085 -3.97454,-0.32259 -5.85733,-0.2396c-2.0271,0.08933 -3.22867,1.15938 -4.39897,0.48993c-0.81744,-0.46761 -1.04419,-1.75203 -1.07416,-2.43204c-0.07289,-1.65355 2.65915,-3.11704 6.10215,-3.26879c3.44301,-0.15176 6.29321,1.0657 6.36609,2.71924c0.03303,0.7493 0.01947,2.20849 -1.13776,2.73126z"/><path d="M261.18084,201.84815c-1.95519,0.8619 -6.84736,0.26575 -6.84736,0.26575c0,0 -3.05012,1.05006 -3.1212,1.05195c-4.52941,0.12082 -4.70571,-2.74047 -4.84921,-5.99647c-0.06831,-1.54964 0.455,-3.96023 1.83456,-4.86965c1.56458,-1.03139 3.83127,-0.65876 6.35913,-0.77017c4.75678,-0.20964 8.88642,1.5735 9.03218,4.8806c0.06416,1.45577 0.20327,4.28681 -2.40811,5.43798z"/></g><path d="M222.40164,215.0003c0,0 5.73416,-23.59762 7.6924,-25.17063c0.57497,-0.46186 10.92189,-0.0389 10.92189,-0.0389l5.51429,25.76667z" fill="#000000" stroke="#0f0f0f" stroke-width="1" stroke-linecap="butt"/><path d="M236.49391,240.21612c-1.60575,-1.19302 -1.83129,-4.68377 -1.73134,-6.3405c0.00959,-0.15892 3.31828,0.99327 6.37668,0.84736c0.80439,-0.03838 3.92856,-0.11872 5.18572,-0.89899c1.56114,-0.96894 1.22408,-2.65582 1.52064,-2.43399c0.11104,0.08306 9.05915,4.57512 9.09463,6.96862c0.00573,0.38655 -0.58721,1.52622 -1.62181,2.23772c-0.90442,0.62197 -2.24067,0.846 -2.56948,0.88377c-5.47186,0.62859 -15.2936,-0.54968 -16.25503,-1.26399z" fill="#000000" stroke="#001026" stroke-width="1.2" stroke-linecap="butt"/><path d="M244.72263,204.98141l-0.15355,-6l23.8,-0.4v6.6" fill="none" stroke="#000000" stroke-width="1" stroke-linecap="round"/><path d="M239.9691,219.98141v-15.8h34.4v15.8z" fill="#62ffff" stroke="#000000" stroke-width="1" stroke-linecap="butt"/><path d="M253.14687,211.64546c0,3.30287 -2.73107,5.98039 -6.1,5.98039c-3.36893,0 -6.1,-2.67752 -6.1,-5.98039c0,-3.30287 2.73107,-5.98039 6.1,-5.98039c3.36893,0 6.1,2.67752 6.1,5.98039z" fill="#8e8888" stroke="#000000" stroke-width="1" stroke-linecap="butt"/><path d="M272.88016,211.59345c0,3.20887 -2.49725,5.81019 -5.57778,5.81019c-3.08053,0 -5.57778,-2.60131 -5.57778,-5.81019c0,-3.20887 2.49725,-5.81019 5.57778,-5.81019c3.08053,0 5.57778,2.60131 5.57778,5.81019z" fill="#8e8888" stroke="#000000" stroke-width="1" stroke-linecap="butt"/><path d="M261.36906,215.88141c0,0.71797 -1.79086,1.3 -4,1.3c-2.20914,0 -4,-0.58203 -4,-1.3c0,-0.71797 1.79086,-1.3 4,-1.3c2.20914,0 4,0.58203 4,1.3z" fill="#8e8888" stroke="#000000" stroke-width="1" stroke-linecap="butt"/><path d="M224.28436,199.72068c0,0 0.51399,-0.87233 0.18708,-1.93674c-0.39077,-1.27231 -1.68638,-2.81907 -2.45428,-3.47849c-0.7767,-0.66697 -2.95965,0.94856 -2.95965,0.94856l8.41677,-5.66667c0,0 2.32766,-0.31819 2.76347,0.08887c0.39232,0.36644 -0.26535,2.24447 -0.26535,2.24447z" fill="#000000" stroke="#0f0f0f" stroke-width="1" stroke-linecap="butt"/><path d="M224.13198,231.65727c0,1.00595 -0.70355,1.82143 -1.57143,1.82143c-0.86788,0 -1.57143,-0.81548 -1.57143,-1.82143c0,-1.00595 0.70355,-1.82143 1.57143,-1.82143c0.86788,0 1.57143,0.81548 1.57143,1.82143z" fill="#ff0000" stroke="#0f0f0f" stroke-width="0" stroke-linecap="butt"/><path d="M228.37484,225.97156c0,1.00594 -0.70355,1.82143 -1.57143,1.82143c-0.86787,0 -1.57143,-0.81548 -1.57143,-1.82143c0,-1.00594 0.70355,-1.82143 1.57143,-1.82143c0.86787,0 1.57143,0.81548 1.57143,1.82143z" fill="#ff0000" stroke="#0f0f0f" stroke-width="0" stroke-linecap="butt"/><path d="M226.98912,219.30013c0,1.00594 -0.70355,1.82143 -1.57143,1.82143c-0.86787,0 -1.57143,-0.81548 -1.57143,-1.82143c0,-1.00594 0.70355,-1.82143 1.57143,-1.82143c0.86787,0 1.57143,0.81548 1.57143,1.82143z" fill="#ff0000" stroke="#0f0f0f" stroke-width="0" stroke-linecap="butt"/><path d="M230.91768,231.65727c0,1.00594 -0.70355,1.82143 -1.57143,1.82143c-0.86787,0 -1.57143,-0.81548 -1.57143,-1.82143c0,-1.00594 0.70355,-1.82143 1.57143,-1.82143c0.86787,0 1.57143,0.81548 1.57143,1.82143z" fill="#ff0000" stroke="#0f0f0f" stroke-width="0" stroke-linecap="butt"/><path d="M232.7034,220.30013c0,1.00594 -0.70355,1.82143 -1.57143,1.82143c-0.86787,0 -1.57143,-0.81548 -1.57143,-1.82143c0,-1.00594 0.70355,-1.82143 1.57143,-1.82143c0.86787,0 1.57143,0.81548 1.57143,1.82143z" fill="#ff0000" stroke="#0f0f0f" stroke-width="0" stroke-linecap="butt"/><path d="M241.18455,225.92098c0,0.99411 -0.76112,1.8 -1.7,1.8c-0.93888,0 -1.7,-0.80589 -1.7,-1.8c0,-0.99411 0.76112,-1.8 1.7,-1.8c0.93888,0 1.7,0.80589 1.7,1.8z" fill="#ff0000" stroke="none" stroke-width="0" stroke-linecap="butt"/><path d="M245.58455,223.37098c0,0.91127 -0.76112,1.65 -1.7,1.65c-0.93888,0 -1.7,-0.73873 -1.7,-1.65c0,-0.91127 0.76112,-1.65 1.7,-1.65c0.93888,0 1.7,0.73873 1.7,1.65z" fill="#ff0000" stroke="none" stroke-width="0" stroke-linecap="butt"/><path d="M241.88454,231.12098c0,0.88366 -0.73873,1.6 -1.65,1.6c-0.91127,0 -1.65,-0.71634 -1.65,-1.6c0,-0.88366 0.73873,-1.6 1.65,-1.6c0.91127,0 1.65,0.71634 1.65,1.6z" fill="#ff0000" stroke="none" stroke-width="0" stroke-linecap="butt"/><path d="M239.78454,218.92098c0,0.71797 -0.55964,1.3 -1.25,1.3c-0.69036,0 -1.25,-0.58203 -1.25,-1.3c0,-0.71797 0.55964,-1.3 1.25,-1.3c0.69036,0 1.25,0.58203 1.25,1.3z" fill="#ff0000" stroke="none" stroke-width="0" stroke-linecap="butt"/><g><path d="M263.8173,167.51987c-1.63776,13.35094 -14.27603,22.78654 -28.22837,21.07499c-13.95233,-1.71154 -23.93526,-13.92209 -22.29749,-27.27303c1.63776,-13.35094 14.27603,-22.78654 28.22837,-21.07499c13.95233,1.71154 23.93526,13.92209 22.29749,27.27303z" fill="none" stroke="#000000" stroke-width="4.5" stroke-linecap="butt"/><path d="M229.73338,188.7567l-29.20015,-3.81746c0,0 -2.34515,-0.62957 -1.89124,-1.48214c1.04086,-1.955 8.01042,-10.01133 8.01042,-10.01133l-11.1149,-5.36635c0,0 -2.00347,-1.15637 -2.18664,-2.28632c-0.1704,-1.05116 12.27782,-8.95537 12.27782,-8.95537c0,0 -7.76598,-4.58938 -9.7475,-6.8283c-0.77809,-0.87917 12.61468,-6.94397 21.67252,-9.58937c4.43226,-1.29447 10.5076,-3.31737 15.25219,-3.4711c7.86685,-0.25491 13.54126,2.75013 13.54126,2.75013" fill="none" stroke="#000000" stroke-width="3" stroke-linecap="round"/><path d="M198.67744,184.71159c0,0 -0.35529,-1.45798 1.10039,-3.22676c1.82327,-2.21544 7.51975,-4.79183 6.16573,-7.33709c-1.75399,-3.29713 -14.3255,-4.37842 -12.31584,-8.00774c1.65016,-2.9801 11.5168,-7.27471 11.76901,-9.33072c0.25166,-2.05147 -4.43529,-1.35968 -6.70038,-4.40923c-3.22145,-4.3371 -1.43597,-4.1237 -1.43597,-4.1237c0,0 12.54324,-5.98976 18.49468,-7.72487c5.58378,-1.62792 16.18133,-2.38471 16.18133,-2.38471c0,0 -16.49737,11.82629 -19.59314,19.55557c-3.4317,8.56803 11.73308,29.1631 11.73308,29.1631z" data-paper-data="{&quot;index&quot;:null}" fill="url(#color-1)" stroke="none" stroke-width="0" stroke-linecap="butt"/><path d="M238.82756,156.4974c0,0 2.22037,-0.36106 3.31876,-0.2926c1.18038,0.07358 3.53527,0.71982 3.53527,0.71982" fill="url(#color-2)" stroke="#705021" stroke-width="2" stroke-linecap="round"/><g stroke="#705021" stroke-width="2" stroke-linecap="butt"><path d="M257.99267,172.16215c-0.21807,0.12856 -12.96751,-0.58596 -13.16087,-0.78923c-0.43218,-0.45431 0.20674,-14.16892 0.54467,-14.54057c0.23185,-0.25499 14.11441,0.87137 14.27877,1.0293c0.41381,0.39762 -1.02356,13.9238 -1.66256,14.3005z" fill="url(#color-3)"/><path d="M224.65198,155.31511c0.1866,-0.13092 14.07801,0.88033 14.26811,1.1678c0.27707,0.41898 -1.19017,14.06984 -1.68677,14.45267c-0.22219,0.17128 -12.93081,-1.07356 -13.12664,-1.23397c-0.57384,-0.47004 0.07553,-14.05688 0.54531,-14.3865z" data-paper-data="{&quot;index&quot;:null}" fill="url(#color-4)"/></g><g><path d="M236.83784,159.59045c0,0 1.06486,3.60692 -0.94924,7.48017c-0.20117,0.38687 -2.2427,2.61171 -3.62894,2.46318c-2.05435,-0.22012 -3.64671,-3.01769 -3.60582,-3.35497c0.15522,-1.28007 0.66809,-2.58421 0.48006,-5.24222c-0.13619,-1.92533 7.70394,-1.34616 7.70394,-1.34616z" data-paper-data="{&quot;index&quot;:null}" fill="#000000" stroke="none" stroke-width="0" stroke-linecap="butt"/><path d="M235.82485,159.56739l-8.15538,-0.46051" fill="none" stroke="#000000" stroke-width="2.5" stroke-linecap="round"/></g><g data-paper-data="{&quot;index&quot;:null}"><path d="M256.39538,160.89508c0,0 1.06487,3.60692 -0.94923,7.48018c-0.20117,0.38687 -2.2427,2.61171 -3.62894,2.46318c-2.05435,-0.22012 -3.64671,-3.01769 -3.60582,-3.35497c0.15522,-1.28007 0.66808,-2.5842 0.48006,-5.24222c-0.13619,-1.92533 7.70393,-1.34616 7.70393,-1.34616z" data-paper-data="{&quot;index&quot;:null}" fill="#000000" stroke="none" stroke-width="0" stroke-linecap="butt"/><path d="M247.22703,160.41151l8.15537,0.46052" fill="none" stroke="#000000" stroke-width="2.5" stroke-linecap="round"/></g><path d="M235.20256,179.47556c0,0 -7.00793,0.37801 -8.98945,-0.33281c-2.05032,-0.7355 -3.11308,-4.00871 -3.11308,-4.00871" fill="none" stroke="#000000" stroke-width="2.5" stroke-linecap="round"/></g></g></g></svg>