<svg version="1.1" xmlns="http://www.w3.org/2000/svg" xmlns:xlink="http://www.w3.org/1999/xlink" width="841.66365" height="382.92942" viewBox="0,0,841.66365,382.92942"><g transform="translate(126.60714,-21.64707)"><g data-paper-data="{&quot;isPaintingLayer&quot;:true}" fill-rule="nonzero" stroke-linejoin="miter" stroke-miterlimit="10" stroke-dasharray="" stroke-dashoffset="0" style="mix-blend-mode: normal"><path d="M-126.60714,404.57649v-135.95831h841.66365v135.95831z" fill="#975e3c" stroke="none" stroke-width="0" stroke-linecap="butt"/><path d="M268.37552,268.15157v-144.95301h162.07912v144.95301z" fill="#b78c49" stroke="#000000" stroke-width="2" stroke-linecap="butt"/><path d="M241.1218,124.34044l113.51389,-101.33883l107.66266,100.69745z" fill="#b78c49" stroke="#000000" stroke-width="2" stroke-linecap="butt"/><path d="M269.51968,136.31321v-10.77527h159.38755v10.77527z" fill="#916f3a" stroke="none" stroke-width="0" stroke-linecap="butt"/><path d="M322.99144,268.6221v-72.47651h49.73547v72.47651z" fill="#765b2f" stroke="#000000" stroke-width="2.5" stroke-linecap="butt"/><path d="M371.55666,232.06315c0,3.8965 -3.14362,7.05524 -7.02148,7.05524c-3.87786,0 -7.02148,-3.15873 -7.02148,-7.05524c0,-3.8965 3.14362,-7.05524 7.02148,-7.05524c3.87786,0 7.02148,3.15873 7.02148,7.05524z" fill="#feff2f" stroke="#000000" stroke-width="2.5" stroke-linecap="butt"/><path d="M277.15236,191.56622v-50.02803h49.15035v50.02803z" fill="#fff87d" stroke="none" stroke-width="0" stroke-linecap="butt"/><path d="M314.53321,160.7147c-0.03074,-0.03764 -0.06207,-0.07452 -0.09397,-0.1106c-0.05744,-0.37634 -0.10478,-0.75963 -0.14582,-1.14737c0.16983,0.38614 0.23394,0.81131 0.2398,1.25797z" fill="#fffddc" stroke="none" stroke-width="NaN" stroke-linecap="butt"/><path d="M299.07733,142.04815l3.22287,48.48287" fill="none" stroke="#000000" stroke-width="4.5" stroke-linecap="round"/><path d="M277.16181,172.19717l49.63221,-6.5187" fill="none" stroke="#000000" stroke-width="4.5" stroke-linecap="round"/><path d="M273.02427,144.65995l54.43787,-3.51556l3.22329,46.48353l-56.22859,5.46865z" fill="none" stroke="#000000" stroke-width="7" stroke-linecap="round"/><path d="M22.98108,269.29302c0,0 10.65045,-23.21798 -9.89926,-49.29124c-13.96203,-17.71488 -61.70836,-38.90133 -61.783,-46.66374c-0.05349,-5.56303 44.69642,19.14874 59.38035,18.35682c19.87872,-1.07207 11.30191,-26.40184 11.30191,-26.40184c0,0 -26.20038,-17.25713 -19.98584,-17.4051c1.84376,-0.0439 32.44836,-11.65541 40.6463,-64.0803c1.55182,-9.92375 4.57169,40.96759 14.08442,39.99362c14.12755,-1.44646 36.54775,-50.9791 40.96413,-47.37766c14.60099,11.90669 -33.70901,87.86945 -33.70901,87.86945c0,0 -5.45048,27.94848 6.86561,27.32883c14.06718,-0.70775 46.13439,-29.54751 46.13439,-21.32883c0,9.2443 -24.70826,26.17333 -37.67903,48.1891c-2.60567,4.42271 -17.90147,25.87026 -11.53776,29.22245c6.85945,3.61333 35.48516,-10.88415 34.29593,-6.3906c-3.43119,12.96486 -38.07914,27.97906 -38.07914,27.97906z" fill="#2c1616" stroke="none" stroke-width="0" stroke-linecap="butt"/><path d="M10.52759,268.79301c0.11849,-2.09664 0.46282,-4.19096 1.05319,-6.19897c0.87494,-2.97593 3.23932,-7.36558 6.44359,-8.61073c2.37399,-0.92251 7.26062,0.39639 9.33618,0.78941c4.59,0.86914 9.57547,2.44014 14.23028,2.7628c3.20676,0.22228 3.6413,-3.02652 6.07592,-4.36914c6.36479,-3.51001 11.69451,1.57463 14.49397,6.92244c5.76065,-1.03811 11.48603,-2.59889 17.12139,-4.19611c3.25771,-0.92333 6.64218,-1.71657 10.09942,-1.06742c4.05677,0.76172 7.59089,3.77056 8.99227,7.74326c0.36868,1.04516 0.0587,2.21584 0.07499,3.324c0.00672,0.4574 -0.41793,1.17353 -0.00594,1.37235c0.59677,0.288 1.28377,-0.54049 1.93868,-0.43961c1.36301,0.20995 2.74047,0.61652 3.91387,1.34109c4.96212,3.06409 4.33745,9.15448 4.18567,14.12663c-0.0416,1.36284 0.44222,2.90637 -0.24674,4.08297c-0.96939,1.6555 -2.90027,2.51196 -4.35041,3.76794c-4.48428,6.09655 -11.47068,7.80952 -18.89501,7.64907c-1.32273,-0.02859 -2.7226,0.26578 -3.96455,-0.19029c-0.88502,-0.325 -1.13945,-1.61484 -2,-2c-1.41339,-0.63261 -3.11195,-0.07491 -4.64284,0.15802c-3.31714,0.50471 -4.49511,3.13276 -7.08613,4.65891c-1.65179,0.97293 -5.88222,1.77849 -7.61536,2.27367c-3.33903,0.95401 -6.87661,2.53933 -10.29851,3.06742c-2.5593,0.39497 -5.14234,-0.62023 -7.70591,-0.98645c-2.52333,-0.36048 -5.08857,-0.52035 -7.56191,-1.13656c-2.40966,-1.20133 -5.11587,-1.80133 -7.41677,-3.19972c-1.73821,-1.05641 -2.84809,-3.08016 -4.72725,-3.85871c-2.04566,-0.84753 -4.20605,-1.44781 -6.38907,-1.81857c-4.9943,-0.84821 -10.43991,0.33665 -15.29409,1.01355c-5.01497,0.69933 -9.90707,-0.21189 -14.70591,-1.01355c-4.52779,-0.75638 -11.55192,-0.23748 -13.90924,-5.51101c-0.67816,-1.51711 0.14201,-7.09872 0.28159,-8.41848c1.23793,-0.55495 2.56791,-0.93862 3.71378,-1.66485c0.90465,-0.57335 1.36177,-1.78885 2.35762,-2.18307c1.83872,-0.72788 4.10666,-0.01829 5.85833,-0.93609c3.00064,-1.57221 5.9779,-3.72102 9.08699,-5.0405c4.77667,-2.02718 9.93998,-2.21371 15.01138,-2.21371zM13.05321,272.79231c-0.71428,1.0007 -2.07213,1.0007 -2.07213,1.0007h-3c-4.34443,0 -8.89956,0.01416 -12.98862,1.78629c-3.05825,1.32539 -5.9015,3.51086 -8.91301,4.9595c-1.16988,0.56275 -2.41878,1.00035 -3.69792,1.22193c-0.8043,0.13933 -1.68742,-0.46508 -2.44375,-0.15802c-0.75644,0.3071 -0.92637,1.4247 -1.64238,1.81693c-0.67551,0.37004 -1.52415,0.22343 -2.28622,0.33515c0.35122,1.14486 -0.04493,2.42937 0.28159,3.58152c0.26543,0.93658 3.22835,1.51221 3.38927,1.55641c2.17483,0.59728 4.47668,0.56261 6.70149,0.93258c4.35444,0.72411 8.7159,1.65751 13.29409,0.98645c5.31219,-0.77865 11.2471,-1.88257 16.70591,-0.98645c2.60427,0.42752 5.19497,1.1193 7.61093,2.18143c2.0459,0.89944 3.36823,2.97189 5.27275,4.14129c2.03218,1.24778 4.45158,1.73128 6.58323,2.80028c2.10003,0.5274 4.29461,0.55723 6.43809,0.86344c2.46603,0.35229 3.89195,1.45547 6.29409,1.01355c3.2421,-0.59645 6.5199,-2.02356 9.70149,-2.93258c2.11981,-0.60566 4.50732,-0.57043 6.38464,-1.72633c3.17826,-1.95691 4.80153,-4.61448 8.91387,-5.34109c0.70615,-0.12477 6.94482,0.0064 7.35716,0.15802c0.88488,0.32537 1.13973,1.61421 2,2c1.48735,0.66701 3.26894,0.00684 4.88625,-0.19677c5.57188,-0.70148 9.16377,-1.54677 12.44551,-6.0975c1.15276,-0.82634 2.6216,-1.33373 3.45828,-2.47901c0.38006,-0.52024 -0.2199,-1.27331 -0.24674,-1.91703c-0.10892,-2.61202 1.20918,-8.16796 -1.81433,-9.87337c-1.81308,-1.02267 -4.54976,0.23583 -6.14745,-1.09852c-3.75649,-3.13735 -0.3457,-8.14928 -4.85255,-10.90148c-2.82512,-1.72522 -7.15913,-0.54106 -9.9867,0.27367c-6.82834,1.9675 -13.755,4.26041 -20.87861,3.80389c-1.29379,-1.70044 -4.9471,-7.70419 -7.82036,-7.70419c-2.56975,0 -3.80671,3.71548 -5.79789,4.69201c-1.38827,0.68085 -2.97212,1.03898 -4.51832,1.04995c-4.7625,0.0338 -10.54788,-1.95134 -15.23988,-2.85056c-2.15307,-0.41264 -4.47081,-1.94202 -6.4872,-1.08171c-1.74887,0.74617 -3.11121,3.76822 -3.55641,5.38927c-0.56188,2.04592 -0.91505,4.17941 -0.9003,6.30103c0,0 0,2.45168 -2.42787,2.4993z" fill="#723939" stroke="none" stroke-width="0.5" stroke-linecap="butt"/><path d="M15.43389,270.27648c-0.01475,-2.12162 0.34333,-4.26527 0.90521,-6.31119c0.44519,-1.62105 1.81469,-4.65199 3.56356,-5.39816c2.01639,-0.86032 4.34046,0.66378 6.49353,1.07642c4.692,0.89922 10.51145,2.87552 15.27395,2.84172c1.5462,-0.01097 3.1417,-0.36643 4.52997,-1.04728c1.99118,-0.97654 3.23517,-4.68885 5.80492,-4.68885c2.87325,0 6.54312,6.01834 7.83691,7.71878c7.12362,0.45653 14.05542,-1.82746 20.88376,-3.79495c2.82757,-0.81473 7.16291,-1.99561 9.98803,-0.27039c4.50685,2.7522 1.09861,7.77449 4.85511,10.91184c1.59768,1.33436 4.33456,0.07738 6.14763,1.10005c3.02351,1.70542 1.7056,7.26924 1.81452,9.88126c0.02684,0.64372 0.6267,1.39827 0.24664,1.91851c-0.83668,1.14527 -2.30576,1.65493 -3.45852,2.48126c-3.28174,4.55073 -6.8752,5.40355 -12.44708,6.10503c-1.6173,0.20361 -3.49441,0.83422 -4.98176,0.16721c-0.86027,-0.38579 -1.01966,-1.64485 -1.90455,-1.97023c-0.41235,-0.15162 -6.65185,-0.28021 -7.358,-0.15544c-4.11234,0.72661 -5.74175,3.39609 -8.92001,5.353c-1.87732,1.1559 -4.27109,1.128 -6.3909,1.73366c-3.18158,0.90902 -6.47578,2.34667 -9.71787,2.94311c-2.40213,0.44192 -3.84079,-0.6581 -6.30682,-1.01039c-2.14348,-0.30621 -4.35361,-0.33673 -6.45364,-0.86413c-2.13166,-1.069 -4.56735,-1.55894 -6.59953,-2.80673c-1.90452,-1.1694 -3.23917,-3.25259 -5.28507,-4.15203c-2.41596,-1.06213 -5.01341,-1.76463 -7.61768,-2.19214c-5.45882,-0.89612 -11.39633,0.20093 -16.70852,0.97958c-4.57818,0.67106 -8.94069,-0.26654 -13.29514,-0.99065c-2.2248,-0.36997 -4.52699,-0.33712 -6.70182,-0.9344c-0.16092,-0.04419 -3.12408,-0.62144 -3.38951,-1.55802c-0.32652,-1.15215 0.06933,-2.43944 -0.28189,-3.5843c0.76207,-0.11172 1.61071,0.03476 2.28621,-0.33528c0.71601,-0.39223 0.88586,-1.51123 1.6423,-1.81833c0.75633,-0.30706 1.63945,0.29758 2.44376,0.15825c1.27914,-0.22158 2.52801,-0.66014 3.69788,-1.22289c3.01151,-1.44864 5.85486,-3.63931 8.91311,-4.9647c4.08906,-1.77212 8.64467,-1.79048 12.9891,-1.79048l3.00013,-0.00079c0,0 1.35832,-0.00239 2.07261,-1.00309c2.42787,-0.04762 2.42946,-2.50482 2.42946,-2.50482z" data-paper-data="{&quot;noHover&quot;:false,&quot;origItem&quot;:[&quot;Path&quot;,{&quot;applyMatrix&quot;:true,&quot;segments&quot;:[[[13.05321,272.79231],[2.42787,-0.04762],[-0.71428,1.0007]],[10.98108,273.79301],[[7.98108,273.79301],[0,0],[-4.34443,0]],[[-5.00754,275.5793],[4.08906,-1.77212],[-3.05825,1.32539]],[[-13.92054,280.5388],[3.01151,-1.44864],[-1.16988,0.56275]],[[-17.61847,281.76073],[1.27914,-0.22158],[-0.8043,0.13933]],[[-20.06221,281.60271],[0.75633,-0.30706],[-0.75644,0.3071]],[[-21.70459,283.41964],[0.71601,-0.39223],[-0.67551,0.37004]],[[-23.99082,283.75479],[0.76207,-0.11172],[0.35122,1.14486]],[[-23.70922,287.3363],[-0.32652,-1.15215],[0.26543,0.93658]],[[-20.31995,288.89271],[-0.16092,-0.04419],[2.17483,0.59728]],[[-13.61847,289.82529],[-2.2248,-0.36997],[4.35444,0.72411]],[[-0.32438,290.81174],[-4.57818,0.67106],[5.31219,-0.77865]],[[16.38153,289.82529],[-5.45882,-0.89612],[2.60427,0.42752]],[[23.99246,292.00673],[-2.41596,-1.06213],[2.0459,0.89944]],[[29.26521,296.14802],[-1.90452,-1.1694],[2.03218,1.24778]],[[35.84844,298.9483],[-2.13166,-1.069],[2.10003,0.5274]],[[42.28654,299.81174],[-2.14348,-0.30621],[2.46603,0.35229]],[[48.58062,300.82529],[-2.40213,0.44192],[3.2421,-0.59645]],[[58.28211,297.89271],[-3.18158,0.90902],[2.11981,-0.60566]],[[64.66675,296.16639],[-1.87732,1.1559],[3.17826,-1.95691]],[[73.58062,290.82529],[-4.11234,0.72661],[0.70615,-0.12477]],[[80.93779,290.98331],[-0.41235,-0.15162],[0.88488,0.32537]],[[82.93779,292.98331],[-0.86027,-0.38579],[1.48735,0.66701]],[[87.82403,292.78654],[-1.6173,0.20361],[5.57188,-0.70148]],[[100.26954,286.68905],[-3.28174,4.55073],[1.15276,-0.82634]],[[103.72782,284.21004],[-0.83668,1.14527],[0.38006,-0.52024]],[[103.48108,282.29301],[0.02684,0.64372],[-0.10892,-2.61202]],[[101.66675,272.41964],[3.02351,1.70542],[-1.81308,-1.02267]],[[95.5193,271.32112],[1.59768,1.33436],[-3.75649,-3.13735]],[[90.66675,260.41964],[4.50685,2.7522],[-2.82512,-1.72522]],[[80.68005,260.69331],[2.82757,-0.81473],[-6.82834,1.9675]],[[59.80143,264.4972],[7.12362,0.45653],[-1.29379,-1.70044]],[[51.98108,256.79301],[2.87325,0],[-2.56975,0]],[[46.18319,261.48503],[1.99118,-0.97654],[-1.38827,0.68085]],[[41.66487,262.53498],[1.5462,-0.01097],[-4.7625,0.0338]],[[26.42499,259.68442],[4.692,0.89922],[-2.15307,-0.41264]],[[19.93779,258.60271],[2.01639,-0.86032],[-1.74887,0.74617]],[[16.38138,263.99198],[0.44519,-1.62105],[-0.56188,2.04592]],[[15.48108,270.29301],[-0.01475,-2.12162],[0,0]]],&quot;closed&quot;:true}]}" fill="#723939" stroke="none" stroke-width="0.5" stroke-linecap="butt"/></g></g></svg>