<svg version="1.1" xmlns="http://www.w3.org/2000/svg" xmlns:xlink="http://www.w3.org/1999/xlink" width="57.44193" height="107.54555" viewBox="0,0,57.44193,107.54555"><g transform="translate(-211.40445,-135.62137)"><g stroke-miterlimit="10"><path d="M234.36662,205.98784l1.04544,-20.62125" fill="none" fill-rule="nonzero" stroke="#ffffff" stroke-width="6" stroke-linecap="round"/><path d="M216.81978,206.6573c1.32333,-1.98156 18.74854,-19.92896 18.74854,-19.92896l17.85596,21.60016" fill="none" fill-rule="nonzero" stroke="#ffffff" stroke-width="6" stroke-linecap="round"/><g stroke-linecap="butt"><path d="M266.59638,169.2258c-4.13875,12.67317 -19.05078,19.68947 -33.30698,15.67137c-14.25618,-4.01811 -22.45798,-17.54905 -18.31921,-30.22223c4.13875,-12.67317 19.05078,-19.68947 33.30698,-15.67137c14.25618,4.01811 22.45798,17.54905 18.31921,30.22223z" fill="none" fill-rule="nonzero" stroke="#ffffff" stroke-width="4.5"/><g><g fill-rule="nonzero"><path d="M230.32481,142.81232l0.00911,0.0109" fill="#ffab19" stroke="#ffffff" stroke-width="5"/><g fill="none" stroke="none" stroke-width="1" font-family="sans-serif" font-weight="normal" font-size="12" text-anchor="start"/></g><path d="M230.32481,142.81232l0.00911,0.0109" fill="#ffab19" fill-rule="nonzero" stroke="#ffffff" stroke-width="5"/><path d="M240.11176,163.0194" fill="#001026" fill-rule="evenodd" stroke="#ffffff" stroke-width="5"/><g fill="none" fill-rule="nonzero" stroke="none" stroke-width="1" font-family="sans-serif" font-weight="normal" font-size="12" text-anchor="start"/><g fill="none" fill-rule="nonzero" stroke="none" stroke-width="1" font-family="sans-serif" font-weight="normal" font-size="12" text-anchor="start"/></g></g><path d="M255.15445,240.16692h-7.75l-12.625,-34.07143" fill="none" fill-rule="nonzero" stroke="#ffffff" stroke-width="6" stroke-linecap="round"/><path d="M234.02945,205.7562l-14,29.87258l-5.625,0.91314" fill="none" fill-rule="nonzero" stroke="#ffffff" stroke-width="6" stroke-linecap="round"/></g></g></svg>