<svg version="1.1" xmlns="http://www.w3.org/2000/svg" xmlns:xlink="http://www.w3.org/1999/xlink" width="140.00586" height="108.4284" viewBox="0,0,140.00586,108.4284"><g transform="translate(-167.30771,-102.5627)"><g data-paper-data="{&quot;isPaintingLayer&quot;:true}" fill-rule="nonzero" stroke="none" stroke-width="1" stroke-linecap="butt" stroke-linejoin="miter" stroke-miterlimit="10" stroke-dasharray="" stroke-dashoffset="0" style="mix-blend-mode: normal"><path d="M269.56498,140.00357l0.828,0.075l0.121,1.298l-0.998,-0.05z" fill="#ffffff"/><path d="M272.84998,143.14857l1.41,-0.15l0.316,1.397l-1.556,0.125z" fill="#ffffff"/><path d="M220.44198,102.56757c3.697,3.562 4.605,6.646 10.163,7.282c3.662,0.418 18.782,0.18 22.366,0.808c6.508,1.141 14.816,6.003 18.055,11.994c1.773,-0.198 10.65,-1.918 11.369,-1.808c1.688,0.258 3.564,2.811 3.896,4.426c-3.42,0.947 -6.879,1.75 -10.257,2.856c-0.209,0.881 -0.01,1.406 0.408,1.729c8.205,0.692 18.345,6.11 19.688,8.876c-1.558,0.399 -11.812,0.761 -14.525,0.817c0.215,1.804 -0.004,3.588 -0.229,5.378c-2.703,-1.173 -4.814,-3.471 -7.705,-4.236c-0.734,-0.195 -1.613,-0.4 -2.402,-0.536c0,0 0.289,1.313 -0.049,1.572c-0.572,0.438 -2.238,0.2 -2.383,-0.1c-0.146,-0.3 0.047,-1.697 0.047,-1.697c-1.904,-0.041 -4.033,0.256 -5.652,1.237c1.762,2.855 5.465,3.476 8.961,3.395c0.162,-0.004 0.031,-1.894 0.148,-2.065c0.119,-0.171 1.994,-0.396 2.233,-0.171c0.244,0.224 0.604,2.021 0.732,2.005c0.565,-0.066 1.106,-0.139 1.608,-0.212c3.703,2.582 7.058,6.657 10.648,9.387c-5.838,1.596 -20.047,-1.299 -25.127,-4.009l-0.234,1.285c3.463,1.809 16.014,8.212 15.922,8.612c-0.41,0.289 -1.078,1.039 -1.303,1.525c3.012,2.096 4.016,0.019 7.008,1.619c2.035,-1.76 4.236,-2.836 6.543,-0.81c2.312,-1.884 4.68,-0.68 7.146,-1.381c2.84,-0.805 5.729,-3.269 8.586,-0.57c0.66,0.621 1.146,1.597 1.207,2.522c0.107,1.702 -2.203,3.812 -3.574,4.474c-3.562,1.721 -8.162,-1.268 -11.139,3.045c-1.199,0.549 -2.611,0.989 -3.896,0.478c-1.277,1.398 -2.381,0.899 -2.09,2.952c0.123,0.868 -0.703,1.418 -2.99,1.865c-0.291,1.049 -1.961,2.149 -4.156,1.229c-0.623,-0.264 -1.307,-0.743 -1.438,-1.477c-0.885,0.27 -1.881,0.914 -2.785,0.332c-1.49,-0.212 -0.742,-2.382 -2.783,-0.809c2.478,1.962 6.525,1.494 7.006,5.521c0.437,3.628 -0.1,7.396 -1.205,10.854c1.371,0.38 5.693,1.055 6.449,1.81c-0.33,2.756 -1.723,5.454 -4.129,6.854c-2.811,-0.913 -5.473,-2.786 -8.354,-3.76c-3.857,-1.305 -7.479,-3.237 -11.232,-4.809c0.715,5.125 -1.598,10.098 -5.893,12.803c0.811,1.715 1.812,3.381 3.201,4.665c-0.484,2.171 -7.729,3.037 -9.559,2.522c-0.341,-0.811 0.096,-1.602 0.229,-2.381c0.42,-2.428 -1.521,-5.926 -2.462,-8.139c-0.745,-1.769 -2.534,-2.643 -3.663,-4.096c-1.248,0.387 -4.132,1.715 -4.132,1.715c-0.629,-0.265 -0.979,-1.261 -1.252,-1.855c-2.232,-4.844 -4.236,-8.659 -8.91,-11.52c-1.957,1.01 -3.246,1.189 -5.337,0.57c-2.833,-0.837 -5.224,3.259 -8.122,1.236c-0.595,0.142 -1.322,0.113 -1.578,0.812c-1.037,2.819 -1.124,4.358 -4.084,5.949c-1.51,0.811 -3.407,0.928 -5.012,0.333c-1.114,1.336 -2.724,2.134 -4.455,1.949c-4.16,6.785 -13.059,12.717 -21.069,12.472c-2.666,-0.082 -6.836,0.028 -8.678,-2.188c-1.383,-1.666 1.349,-2.473 -1.021,-3.904c-2.977,-1.799 0.893,-5.25 -0.325,-6.854c-0.791,-1.043 -1.95,-2.375 -1.438,-3.854c0.609,-1.766 2.321,-1.912 1.532,-4.331c-0.478,-1.466 -1.078,-2.856 -0.093,-4.236c0.963,-1.351 3.182,-1.573 2.459,-3.664c-0.496,-1.438 -0.442,-2.864 0.558,-4.094c0.776,-0.954 2.233,-0.995 2.784,-2.094c-0.511,-1.833 0.335,-6.224 2.877,-5.142c4.99,2.122 4.263,13.5 17.959,12.804c1.588,-1.39 4.457,-2.662 6.312,-0.902c3.125,-1.979 6.164,-2.363 9.142,0.095c2.373,-2.435 4.189,0.552 6.358,-0.901c-8.183,-3.444 -5.804,-8.309 -2.877,-14.944c-5.272,-2.325 -16.707,-2.761 -16.707,-2.761c5.821,-5.228 16.576,-8.164 24.039,-10.851c-3.761,-2.595 -6.582,-8.139 -11.694,-7.854c-0.338,-0.25 -0.269,-0.725 -0.093,-1.046c12.384,-5.347 9.951,2.451 20.141,1.713c-1.612,-2.778 -4.081,-5.282 -4.362,-8.663c0.415,-0.479 11.042,-2.693 12.481,-3.57c-0.542,-1.845 -0.687,-3.822 -1.529,-5.568c-1.335,-0.145 -2.722,0.516 -4.037,0.096c-0.689,-1.479 0.163,-2.381 0.139,-3.665c-0.01,-0.559 -0.696,-0.712 -1.114,-0.809c-3.903,-0.915 -9.452,-1.632 -10.488,-8.568c0.242,-3.312 -1.212,-6.045 -1.346,-9.137c-0.008,-0.389 0.251,-0.458 0.567,-0.432z" fill="#272525"/><path d="M268.00998,123.12757c-9.217,1.74 -17.988,4.67 -27.06,6.949c-0.442,-1.569 -1.354,-6.61 -1.899,-7.521c-0.355,-0.592 -2.583,0.996 -3.991,0.905c-1.514,-1.693 1.579,-2.588 1.207,-3.903c-4.058,-2.484 -11.454,1.487 -13.133,-9.138c8.355,6.366 31.998,-2.167 43.299,10.28c0.579,0.642 1.191,1.647 1.577,2.428z" fill="#5b76df"/><path d="M283.13698,124.50857c-4.469,1.63 -30.896,9.033 -49.423,19.276c-1.734,-2.525 -3.242,-5.221 -4.362,-8.091c12.41,-4.161 47.053,-12.368 51.373,-12.708c1.658,-0.131 1.873,0.054 2.412,1.523z" fill="#5b76df"/><path d="M273.79698,129.60557c0,-0.4098 0.32414,-0.742 0.724,-0.742c0.39986,0 0.724,0.33221 0.724,0.742c0,0.4098 -0.32414,0.742 -0.724,0.742c-0.39986,0 -0.724,-0.3322 -0.724,-0.742z" fill="#272525"/><path d="M274.69198,129.64857l-2.84,-0.25c0.744,0.048 2.979,-1.749 2.84,0.25z" fill="#ffffff"/><path d="M269.75998,130.14757c0,0 15.895,2.736 22.289,6.784c-4.812,0.716 -9.844,0.318 -14.666,-0.096c1.252,-0.823 3.666,-2.427 3.666,-2.427c-3.181,0.32 -6.394,0.969 -9.234,2.523c0.375,1.419 7.021,2.241 7.982,2.426c0.146,1.062 0.362,2.113 0.371,3.189c-5.127,-2.952 -11.285,-6.011 -18.519,-2.285c2.332,6.718 8.53,7.477 14.385,5.236c2.603,1.976 4.82,4.419 7.103,6.758c-9.205,-0.959 -16.42,-2.454 -24.363,-7.567c1.609,-3.062 1.377,-6.811 0.418,-10.043l1.578,-0.81c1.721,6.019 10.346,4.091 8.678,-2.046c-0.131,-0.479 -0.33,-0.867 -0.418,-1.38z" fill="#9ed400"/><path d="M266.74198,135.53757c-2.021,1.321 -2.948,-0.55 -3.979,-2.462c1.379,-1.033 3.111,-1.287 4.598,-2.094c1.133,2.16 0.688,3.701 -0.619,4.556z" fill="#ffffff"/><path d="M241.27698,161.06157c0.054,-4.118 0.24,-6.334 3.808,-8.567c3.584,-2.245 6.5,-8.283 6.866,-12.471c-0.819,-1.176 -1.141,1.273 -1.299,1.713c-1.244,3.482 -8.629,15.16 -21.718,13.042c-2.234,-0.362 -4.549,0.068 -6.497,1.237c4.193,-5.405 8.5,-3.988 13.736,-5.474c2.916,-0.828 6.647,-4.961 7.796,-7.759l-0.143,-0.952c4.516,-1.72 8.59,-4.423 13.041,-6.282c0.947,2.798 0.109,6.53 -1.111,9.139c-2.826,6.034 -13.357,10.241 -14.479,16.374z" fill="#ffffff"/><path d="M266.10798,133.04157c0,-0.71687 0.56771,-1.298 1.268,-1.298c0.70029,0 1.268,0.58113 1.268,1.298c0,0.71687 -0.5677,1.298 -1.268,1.298c-0.70029,0 -1.268,-0.58113 -1.268,-1.298z" fill="#272525"/><path d="M221.78698,143.92757c2.645,0.999 6.126,0.999 8.818,0c1.206,0.762 1.763,2.332 3.202,2.854c2.599,-1.762 5.43,-2.999 8.26,-4.141c-1.764,3.332 -5.057,5.95 -8.492,7.092c-11.406,1.773 -14.422,-7.608 -20.698,-8.234c6.177,-1.47 5.94,1.619 8.91,2.429z" fill="#ffffff"/><path d="M260.44498,148.82957c0.14,1.667 -0.744,3.142 -0.883,4.807c-1.81,-1.237 -3.666,-2.333 -5.568,-3.332l3.109,-3.189z" fill="#5b76df"/><path d="M253.20598,151.54157c5.391,3.686 10.846,7.297 16.567,10.423c-0.537,0.477 -4.192,3.563 -4.549,3.666c-0.896,0.256 -13.308,-9.907 -14.943,-11.233h-0.557v0.714c2.389,2.353 4.991,4.459 7.471,6.71c-0.172,1.792 -0.36,3.633 -1.11,5.284c-10.047,2.428 -23.158,0.186 -32.952,-2.856c-5.599,-1.739 -10.815,-4.612 -16.707,-5.044c5.565,-3.138 11.483,-5.546 17.356,-7.996c-3.353,2.269 -5.638,5.814 -5.429,10.043c3.134,-3.057 9.025,-4.95 14.015,-4.093c2.692,0.461 5.979,-0.967 8.446,-1.952c-1.781,3.268 -1.711,7.778 0,11.328c1.092,-1.939 1.349,-4.362 2.599,-6.188c2.461,-3.588 6.438,-6.697 9.793,-9.376z" fill="#5b76df"/><path d="M275.01598,160.10957c-0.418,0.476 -0.742,0.809 -1.346,1.143c-4.037,-2.142 -8.213,-4.189 -12.252,-6.473l0.465,-1.952c4.411,2.38 8.725,4.95 13.133,7.282z" fill="#5b76df"/><path d="M305.08798,162.20357c-0.141,1.285 -0.881,2.428 -2.088,2.856c-3.062,0.237 -7.01,-0.333 -9.604,1.809c-0.931,1.189 -2.646,1.047 -3.761,1.047c0.648,-1.428 1.394,-2.855 1.3,-4.569c2.784,-2.047 6.45,0.238 9.144,-1.951c1.529,-0.715 4.034,-0.715 5.009,0.808z" fill="#a16520"/><path d="M287.96498,167.34357c-2.297,0.013 -1.834,-1.994 -0.697,-3.236c-1.791,-0.023 -1.379,1.433 -2.229,1.285c0.045,-0.664 -0.031,-1.35 -0.324,-1.951c0.951,-0.565 1.771,-1.265 2.854,-0.755c2.576,1.214 2.121,2.301 0.396,4.657z" fill="#9ed400"/><path d="M278.12798,163.34557c0.141,0.333 -0.278,0.856 -0.65,0.999c-1.021,-0.047 -1.947,-0.666 -2.691,-1.236c0.787,-1.381 2.319,0 3.341,0.237z" fill="#9ed400"/><path d="M280.81698,165.96257c-0.08,2.351 1.703,6.216 4.223,6.521c0.084,0.537 -0.48,0.897 -0.787,1.237c-1.731,0.183 -2.336,-1.075 -3.436,-2.047c-0.389,-0.346 -1.119,0.027 -1.02,0.57c0.125,0.688 1.707,2.021 2.227,2.522c-1.611,1.805 -3.373,-1.135 -3.666,-2.522c0,0 -1.246,2.43 -2.645,1.715c-1.437,-2.933 0.42,-5.418 -1.902,-6.286l-4.92,-1.855c1.346,-0.536 2.572,-1.938 3.301,-2.137c1.85,0.475 4.348,1.8 6.166,2.374c0.502,-1.774 1.791,-2.526 3.342,-2.713c0.385,0.219 1.273,0.186 1.438,0.667c0.406,1.192 -1.794,1.158 -2.321,1.954z" fill="#9ed400"/><path d="M265.13298,168.58157c0.692,-0.048 1.16,-0.762 1.762,-1.143c0.928,0.286 1.904,0.523 2.785,0.904c-1.578,2.713 -4.641,-0.047 -6.775,1.475c-0.463,0.049 -0.836,0.334 -1.252,0.478c-1.996,-0.571 -3.574,0.523 -5.338,0.809c-0.465,0.667 -1.299,-0.285 -1.902,-0.571c0.881,-0.523 3.342,0.191 3.666,-1.476c0.51,-1.808 0.371,-3.902 1.021,-5.615c1.994,1.521 4.175,3.426 6.033,5.139z" fill="#ffffff"/><path d="M250.28098,171.10357c4.873,2 8.91,5.9 12.81,9.805c1.348,1.571 2.785,3.284 3.807,5.047c-2.184,1.144 -4.548,1.902 -6.773,2.854c-0.977,-2.951 -7.055,-7.14 -7.609,-7.093c0.511,3.027 -0.364,6.82 -1.301,9.379c-3.479,2.094 -7.52,2.808 -11.276,4.234c-2.273,-5.048 -5.8,-10.613 -10.905,-13.041c-3.527,-2.285 -13.97,-6.16 -13.865,-8.425c0.166,-3.571 1.66,-6.095 3.192,-9.046c6.119,1.526 21.034,6.852 31.92,6.286z" fill="#5b76df"/><path d="M287.40798,168.58157c0.14,0.762 -0.559,1.618 -1.254,2.048c-1.438,0 -2.319,-1.811 -3.108,-2.857c0.092,-0.381 0.513,-0.428 0.789,-0.665c1.439,0.093 2.319,0.903 3.573,1.474z" fill="#9ed400"/><path d="M273.11298,171.91457c-1.021,0.143 -2.319,-0.523 -3.34,0.666c-1.394,0.476 -2.832,-0.144 -3.897,1.236c-1.672,0.809 -3.574,0.189 -5.199,0.715c-1.021,0.143 -1.482,-1.096 -2.228,-1.477c1.854,-0.762 4.13,-1.999 6.312,-1.143c2.137,-0.856 4.733,-0.522 6.594,-2.096c0.604,-0.237 1.391,0.049 1.992,-0.189z" fill="#a16520"/><path d="M193.85098,182.86057c-2.098,3.774 0.832,9.5 3.898,11.757c0.061,0.467 -0.666,0.913 -0.928,1.283c-2.612,3.691 -7.164,8.046 -11.556,9.139c-2.932,0.729 -8.617,1.295 -11.37,-0.144c-2.491,-1.3 -0.355,-1.592 -0.789,-3.426c-0.526,-2.228 -3.807,-0.812 -2.552,-3.284c0.681,-1.342 2.856,-2.404 1.996,-4.236c-0.657,-1.397 -2.892,-1.025 -2.784,-2.617c3.609,-3.514 -0.181,-5.242 0.696,-6.854c0.622,-1.143 2.974,-0.872 3.991,-2.855c1.062,-2.068 -2.938,-4.482 0.232,-5.713c0.754,-0.291 1.322,-0.424 1.995,-0.951c1.2,-0.938 -0.544,-5.455 2.228,-3.521c1.048,0.732 2.151,4.287 3.341,5.617c1.748,1.952 3.666,3.653 5.894,4.997c1.887,1.136 3.65,0.701 5.708,0.808z" fill="#e7c45e"/><path d="M268.65798,175.67157c0.765,2.572 3.681,4.72 2.229,7.664c-0.569,1.152 -0.495,2.369 -0.975,3.521l-1.021,-0.096c0.879,-2.556 -4.701,-8.604 -6.545,-10.188c1.578,-0.524 3.41,-1.081 5.014,-0.334c0.421,-0.215 0.805,-0.546 1.298,-0.567z" fill="#ffffff"/><path d="M280.56598,179.85157c0.997,2.246 1.168,3.716 2.143,5.987c1.138,2.646 3.113,3.821 3.113,6.688c0,2.496 -1.391,3.843 -3.213,5.489c-1.317,1.196 -4.574,0.799 -4.379,-0.997c0.219,-1.894 2.043,-4.616 0.291,-5.24c-1.778,-0.625 -2.434,-0.197 -4.09,-0.646c0.393,-4.443 2.117,-6.514 0.878,-10.381c-0.804,-2.494 -2.556,-3.219 -4.478,-4.99c2.821,-2.894 8.125,0.474 9.735,4.09z" fill="#7e4094"/><path d="M279.98198,191.73057c0.389,0.5 -0.438,1.773 -0.584,2.396c-0.344,1.297 -0.584,2.496 -1.461,3.494c-0.367,0.424 -0.83,-0.375 -1.268,-0.699l1.362,-4.491c0.561,0.1 1.606,-1.147 1.951,-0.7z" fill="#272525"/><path d="M282.48798,193.61757c-0.325,1.359 -1.588,2.59 -2.553,3.521c-5.606,-2.234 -10.949,-5.092 -16.476,-7.52c2.476,-1.136 5.109,-1.871 7.562,-0.24c2.107,-1.235 1.609,-3.912 1.9,-5.948c0.401,-2.812 0.115,-4.244 -1.482,-6.615c1.062,0.623 3.438,3.324 3.57,4.57c0.051,0.442 -1.619,7.603 -1.762,9.231c0.328,0.456 2.688,1.215 2.688,1.215c0.037,-0.219 0,-0.873 0.17,-1.498c-0.17,-0.279 -0.982,-0.319 -0.953,-0.511c0.479,-2.741 1.33,-7.704 1.205,-8.915c-0.154,-1.519 -2.568,-3.839 -3.666,-4.81c1.195,0.846 4.139,1.856 4.688,3.235c1.263,3.153 -1.608,11.188 -1.434,12.443c0.11,0.736 4.991,1.155 6.543,1.842z" fill="#9e73bf"/><path d="M176.91098,176.24457c2.63,4.666 10.153,9.906 15.593,8.899c0.422,0.39 0.088,1.001 -0.139,1.381c-4.63,2.519 -15.837,-4.991 -15.778,-10.28z" fill="#272525"/><path d="M208.88598,180.66957c-3.189,-0.183 -4.522,4.555 -2.692,6.996c1.242,1.653 3.51,0.719 5.105,0.334c-2.27,8.418 -16.689,1.07 -9.467,-6.379c1.614,-1.663 5.131,-2.363 7.054,-0.951z" fill="#e7c45e"/><path d="M226.33598,182.95557c-1.555,1.279 -3.388,-0.483 -5.198,0c-2.779,0.746 -2.641,2.043 -5.94,1.381c-2.398,-0.479 -4.387,4.304 -7.425,1.951c-1.842,-5.235 3.621,-2.089 4.873,-5.141c1.302,-0.709 2.275,0.848 3.806,0.096c4.178,-2.054 6.246,-1.186 9.884,1.713z" fill="#a16520"/><path d="M199.74398,181.05057c-1.372,2.611 -2.281,6.281 -0.464,8.9c0.796,1.146 1.993,1.812 3.017,2.713c-3.481,2.84 -10.199,-6.203 -3.898,-11.279c0.607,-0.333 0.806,-0.527 1.345,-0.334z" fill="#dc511b"/><path d="M178.90698,186.95357c3.852,0.856 8.214,0.713 12.159,1.047c0.325,0.334 0.974,0.19 1.114,0.812c-0.418,1.146 -1.856,0.619 -2.785,0.903c-6.265,0.617 -12.854,0 -17.495,-4.332v-0.477c2.32,0.715 4.456,1.903 7.007,2.047z" fill="#272525"/><path d="M254.96898,195.18757c-0.883,1.999 -2.603,3.426 -4.316,4.807c0,0 1.996,2.284 2.088,3.664l-2.459,1c-0.65,-3.38 -2.691,-6.615 -5.43,-8.996c1.16,-0.234 2.135,-0.733 2.816,-1.035c0.973,0.998 3.17,3.514 3.959,1.273c1.809,-3.188 2.088,-6.947 2.364,-10.757c1.534,3 1.767,6.664 0.978,10.044z" fill="#9e73bf"/><path d="M253.85398,201.70757l-0.787,-1.379c3.01,-2.259 5.244,-5.589 4.688,-9.564c-0.291,-2.062 -1.521,-3.749 -2.319,-5.617c6.022,5.863 5.147,11.957 -1.582,16.56z" fill="#7e4094"/><path d="M173.33798,195.18757c0,0 9.929,-1.075 14.247,-2.617c1.334,-0.479 4.468,-3.05 5.894,-1.619c0.614,0.616 -0.121,1.062 -0.557,1.381c-4.395,3.226 -14.863,6.542 -19.584,2.855z" fill="#272525"/><path d="M250.51398,194.85357c-0.512,-0.047 -0.883,-0.523 -1.348,-0.809c0.465,-0.334 1.067,-0.287 1.577,-0.432z" fill="#ffffff"/><path d="M195.38098,194.28357c-0.864,4.663 -14.76,11.029 -19.352,10.854l-0.232,-0.479c2.799,-1.716 5.857,-2.498 8.678,-4.33c1.545,-1.004 8.586,-6.334 9.467,-6.521c0.448,-0.097 1.194,0.012 1.439,0.476z" fill="#272525"/><path d="M255.43198,207.89457c-1.406,0.932 -3.064,0.996 -4.688,0.904c0.132,-1 -0.864,-2.443 0.648,-2.76c0.862,-0.185 1.807,-0.692 2.688,-0.572c0.376,0.489 1.274,1.787 1.352,2.428z" fill="#7e4094"/></g></g></svg>