<svg version="1.1" xmlns="http://www.w3.org/2000/svg" xmlns:xlink="http://www.w3.org/1999/xlink" width="82.71385" height="123.44466" viewBox="0,0,82.71385,123.44466"><defs><linearGradient x1="219.28023" y1="189.40236" x2="219.28023" y2="192.31392" gradientUnits="userSpaceOnUse" id="color-1"><stop offset="0" stop-color="#737373"/><stop offset="1" stop-color="#000000"/></linearGradient><linearGradient x1="226.31658" y1="164.6473" x2="227.60843" y2="164.6473" gradientUnits="userSpaceOnUse" id="color-2"><stop offset="0" stop-color="#d0c9ff"/><stop offset="1" stop-color="#d0c9ff" stop-opacity="0"/></linearGradient><linearGradient x1="223.50217" y1="164.60116" x2="230.60739" y2="164.60116" gradientUnits="userSpaceOnUse" id="color-3"><stop offset="0" stop-color="#d0c9ff"/><stop offset="1" stop-color="#d0c9ff" stop-opacity="0"/></linearGradient><linearGradient x1="227.79299" y1="165.66233" x2="229.08484" y2="165.66233" gradientUnits="userSpaceOnUse" id="color-4"><stop offset="0" stop-color="#d0c9ff" stop-opacity="0"/><stop offset="1" stop-color="#d0c9ff"/></linearGradient><linearGradient x1="224.97858" y1="165.61618" x2="232.0838" y2="165.61618" gradientUnits="userSpaceOnUse" id="color-5"><stop offset="0" stop-color="#d0c9ff" stop-opacity="0"/><stop offset="1" stop-color="#d0c9ff"/></linearGradient></defs><g transform="translate(-193.84688,-119.87441)"><g data-paper-data="{&quot;isPaintingLayer&quot;:true}" stroke-miterlimit="10" stroke-dasharray="" stroke-dashoffset="0" style="mix-blend-mode: normal"><g fill="none" fill-rule="nonzero" stroke="none" stroke-width="1" stroke-linecap="butt" stroke-linejoin="miter" font-family="sans-serif" font-weight="normal" font-size="12" text-anchor="start"><g><g data-paper-data="{&quot;index&quot;:null}"/></g><g data-paper-data="{&quot;index&quot;:null}"/><g data-paper-data="{&quot;index&quot;:null}"/></g><g fill="none" fill-rule="nonzero" stroke="none" stroke-width="1" stroke-linecap="butt" stroke-linejoin="miter" font-family="sans-serif" font-weight="normal" font-size="12" text-anchor="start"><g><g/><g><g/></g><g/></g><g/></g><path d="" fill="#2b1900" fill-rule="nonzero" stroke="#150c00" stroke-width="3" stroke-linecap="butt" stroke-linejoin="miter"/><path d="M230.29656,192.67727c0,2.5027 -3.04182,4.53153 -6.79411,4.53153c-1.99898,0 -5.57228,1.70962 -7.76975,0.4808c-1.92739,-1.0778 -2.63896,-5.06007 -2.42954,-5.73384c0.65328,-2.10169 7.29153,-3.03467 9.51697,-3.03467c3.75229,0 7.47643,1.25349 7.47643,3.75618z" fill="#ffffff" fill-rule="nonzero" stroke="#737373" stroke-width="1" stroke-linecap="butt" stroke-linejoin="miter"/><path d="M234.36889,204.85271l0.97525,-16.04212" fill="none" fill-rule="nonzero" stroke="#000000" stroke-width="6" stroke-linecap="round" stroke-linejoin="miter"/><path d="M218.99076,206.65322c0,0 1.69878,-6.30437 2.38055,-7.1978c1.23447,-1.61773 14.31859,-10.03321 14.31859,-10.03321c0,0 5.68584,7.08019 7.64725,9.13523c1.8512,1.93956 6.66911,2.86863 6.66911,2.86863" fill="none" fill-rule="nonzero" stroke="#000000" stroke-width="6" stroke-linecap="round" stroke-linejoin="miter"/><g><g><g stroke="#262626" stroke-width="1.2"><path d="M243.39642,203.54009l2.88983,26.27636c0,0 6.98259,0.4171 6.81653,7.59665c-0.00947,0.40931 -0.10852,2.41892 -2.99313,3.00706c-2.76287,0.56331 -8.27047,-0.27821 -10.28288,-0.59795c-0.93467,-0.14851 -2.35845,-0.79631 -3.26837,-1.90547c-0.91612,-1.11677 -0.81717,-2.74089 -0.81655,-3.65454c0.00025,-0.37213 -2.05584,-29.63214 -2.05584,-29.63214" fill="#ffffff" fill-rule="evenodd" stroke-linecap="round" stroke-linejoin="round"/><path d="M233.51348,210.55566c0.17018,-7.35787 5.45586,-7.48521 8.20979,-7.41859c1.19752,0.02897 1.03568,-1.93754 2.09544,3.81734c0.23339,1.26745 0.69205,6.47077 1.67285,10.89963c0.67162,3.03271 1.93138,5.71059 2.16674,6.47993c0.55608,1.81777 0.32733,3.47486 0.32733,3.47486l-1.00827,-1.20431c0,0 0.6644,0.83929 0.93047,1.34007c0.8289,1.56004 1.46296,2.73749 1.46296,2.73749c0,0 -7.04247,-0.46511 -9.78538,1.82984c-2.74291,2.29495 -1.38374,6.6145 -1.38374,6.6145c0,0 -5.21776,-0.81997 -5.6359,-3.76384c-0.10309,-0.72574 0.70618,-2.88543 0.70618,-2.88543c0,0 -0.59661,0.12216 -0.61594,-0.38035c-0.00986,-0.25616 0.78957,-4.05623 0.96719,-8.33109c0.23382,-5.62754 -0.13426,-12.1499 -0.10974,-13.21005z" fill="#000000" fill-rule="nonzero" stroke-linecap="butt" stroke-linejoin="miter"/></g><path d="M224.5609,205.33215c-0.00974,-0.21598 1.18512,0.4208 3.89261,0.49439c3.57187,0.0971 9.04209,-0.33729 10.58028,-0.55955c3.98878,-0.57634 4.66378,-2.11038 4.68961,-1.53784c0.09556,2.11872 -2.16062,6.04332 -6.72376,6.25859c-2.00528,0.0946 -6.10681,0.80409 -8.42943,0.05816c-2.96262,-0.95148 -3.95572,-3.52614 -4.0093,-4.71377z" fill="#004fd9" fill-rule="nonzero" stroke="#001026" stroke-width="1.2" stroke-linecap="butt" stroke-linejoin="miter"/><g fill-rule="nonzero" stroke-linecap="butt" stroke-linejoin="miter"><g fill="none" stroke="none" stroke-width="1" font-family="sans-serif" font-weight="normal" font-size="12" text-anchor="start"/><path d="M224.07958,203.95418c0,0 8.57098,1.33376 12.5096,1.31516c3.93861,-0.01859 7.1835,-1.40815 7.1835,-1.40815c0,0 0.031,2.07391 -1.72548,4.09233c-1.35963,1.56238 -3.97267,3.1809 -7.35009,3.21523c-3.07692,0.03128 -6.50968,-0.62978 -8.20888,-1.98628c-2.57548,-2.05606 -2.40864,-5.22831 -2.40864,-5.22831z" fill="#000000" stroke="#262626" stroke-width="1.2"/></g><g stroke-width="1.2"><path d="M233.54811,209.2107c0,0 -3.34528,30.56729 -3.95573,30.66819c-1.75183,0.28953 -11.35196,-2.30308 -11.35196,-2.30308l6.17094,-30.73259" data-paper-data="{&quot;index&quot;:null}" fill="#ffab19" fill-rule="evenodd" stroke="#001026" stroke-linecap="round" stroke-linejoin="round"/><path d="M235.02656,208.71787c0,0 -0.78147,6.46384 -1.01229,9.89111c-0.22138,3.28727 -0.3455,10.27008 -0.3455,10.27008c0,0 0.93843,5.07389 0.02095,6.32511c-0.42494,0.57952 -0.75979,-2.86462 -0.75979,-2.86462c0,0 0.3738,3.88276 0.41061,4.22499c0.2568,2.38782 -0.91518,5.52348 -3.98631,5.82139c-3.37191,0.32707 -8.96203,0.69649 -11.84378,-1.19265c-1.22614,-0.8038 -2.88701,-3.16992 -2.44,-5.69046c0.50411,-2.84252 3.21129,-5.82039 3.21129,-5.82039l-2.48757,3.24602c0,0 -0.02593,-1.62079 0.37883,-2.80973c0.45455,-1.33517 2.21648,-4.8136 2.21648,-4.8136l5.34118,-19.57598" data-paper-data="{&quot;index&quot;:null}" fill="#000000" fill-rule="evenodd" stroke="#262626" stroke-linecap="round" stroke-linejoin="round"/><path d="M231.90314,237.97312c-0.08452,1.71634 -0.774,3.71047 -2.27053,4.74596c-1.50208,1.03932 -10.52962,0.62745 -11.92522,-0.64275c-1.32536,-1.20627 -1.86525,-3.4358 -1.78275,-5.11092c0.16936,-3.43903 3.88355,-6.00135 8.29591,-5.72308c4.41233,0.27827 7.85196,3.29175 7.68258,6.7308z" fill="#ffffff" fill-rule="nonzero" stroke="#262626" stroke-linecap="butt" stroke-linejoin="miter"/></g></g><g fill="none" fill-rule="nonzero" stroke="none" stroke-width="1" stroke-linecap="butt" stroke-linejoin="miter" font-family="sans-serif" font-weight="normal" font-size="12" text-anchor="start"/></g><path d="M225.11723,203.83214c0,0 3.45565,-5.9968 3.02069,-7.83613c-0.10639,-0.44988 -2.99502,7.05965 -3.46547,6.63c-2.24345,-2.04885 -7.71433,-3.72995 -7.71433,-3.72995c0,0 5.25961,-6.51569 8.93143,-9.34236c1.01383,-0.78048 3.54388,-0.16344 3.82661,-0.40173c0.36514,-0.30776 9.21566,0.27728 9.55399,0.46133c4.04714,2.20166 7.47953,7.27282 7.47953,7.27282c0,0 -2.33083,2.74275 -2.37176,5.93626c-0.00029,0.02269 -2.17849,-5.08627 -2.18304,-4.73052c-0.02732,2.13126 0.61698,5.73948 0.61698,5.73948c0,0 -5.32899,1.19664 -7.98134,1.24445c-2.92395,0.0527 -9.71329,-1.24363 -9.71329,-1.24363z" fill="#ffffff" fill-rule="nonzero" stroke="#737373" stroke-width="2.5" stroke-linecap="butt" stroke-linejoin="miter"/><path d="M222.10681,192.22964c0,0 -5.79461,0.54134 -7.13395,0.52177c-0.58498,-0.00854 -1.00847,-0.42849 -0.97273,-0.90567c0.03807,-0.50818 0.55576,-1.07527 0.55576,-1.07527" fill="none" fill-rule="nonzero" stroke="#737373" stroke-width="1" stroke-linecap="round" stroke-linejoin="miter"/><path d="M216.55534,190.96393l0.12917,-0.08885c0.08689,-0.03636 0.1738,-0.07272 0.26069,-0.10908c1.14358,-0.18658 6.4952,-1.88845 4.75168,0.49611c-0.97944,0.21025 -5.60648,0.89376 -5.44409,-0.12899c0,0 0.07138,-0.23725 0.30256,-0.1692z" fill="#000000" fill-rule="nonzero" stroke="none" stroke-width="0.5" stroke-linecap="butt" stroke-linejoin="miter"/><path d="M224.08106,189.43994c0,0 -2.07289,2.01048 -2.52231,2.38243c-0.24358,0.20158 -3.30698,0.30715 -3.73031,0.33547c-1.86939,0.12505 -3.34897,0.31757 -3.34897,-0.09273c0,-0.13931 -0.01491,-0.77876 0.44885,-1.0356c1.21138,-0.67089 4.05477,-1.31674 5.8118,-1.48806c2.40541,-0.23455 3.34093,-0.10149 3.34093,-0.10149z" fill="url(#color-1)" fill-rule="nonzero" stroke="#737373" stroke-width="0" stroke-linecap="butt" stroke-linejoin="miter"/><g stroke-linejoin="miter"><g stroke-linecap="butt"><path d="M262.17086,166.55726c-1.24713,13.53598 -13.47557,23.39823 -27.31298,22.02796c-13.83741,-1.37027 -24.04385,-13.45417 -22.79671,-26.99015c1.24713,-13.53598 13.47557,-23.39824 27.31298,-22.02797c13.83741,1.37027 24.04385,13.45417 22.79672,26.99016z" fill="none" fill-rule="nonzero" stroke="#000000" stroke-width="4.5"/><g><g fill-rule="nonzero"><path d="M223.72416,146.77047l0.01052,0.00926" data-paper-data="{&quot;index&quot;:null}" fill="#ffab19" stroke="#000000" stroke-width="5"/><g data-paper-data="{&quot;index&quot;:null}" fill="none" stroke="none" stroke-width="1" font-family="sans-serif" font-weight="normal" font-size="12" text-anchor="start"/></g><path d="M223.72416,146.77047l0.01052,0.00926" data-paper-data="{&quot;index&quot;:null}" fill="#ffab19" fill-rule="nonzero" stroke="#000000" stroke-width="5"/><path d="M236.716,165.27847" fill="#001026" fill-rule="evenodd" stroke="#000000" stroke-width="5"/><g data-paper-data="{&quot;index&quot;:null}" fill="none" fill-rule="nonzero" stroke="none" stroke-width="1" font-family="sans-serif" font-weight="normal" font-size="12" text-anchor="start"/><g data-paper-data="{&quot;index&quot;:null}" fill="none" fill-rule="nonzero" stroke="none" stroke-width="1" font-family="sans-serif" font-weight="normal" font-size="12" text-anchor="start"/></g></g><path d="M236.02414,182.08978c0,0 -11.53429,-2.12681 -14.05054,-3.64894c-2.09901,-1.26974 -2.61077,-5.07874 -2.61077,-5.07874" fill="none" fill-rule="nonzero" stroke="#000000" stroke-width="3" stroke-linecap="round"/><path d="M218.00402,162.80986l22.82237,4.86112l-0.2186,1.78907" fill="none" fill-rule="nonzero" stroke="#000000" stroke-width="4.5" stroke-linecap="round"/><path d="M247.88796,170.1299l-0.36091,-1.0193l20.41803,-9.71631" fill="none" fill-rule="nonzero" stroke="#000000" stroke-width="4.5" stroke-linecap="round"/><path d="M209.19342,149.38129l-3.68716,-5.04204l-1.9306,-6.06685l9.61288,4.21956l1.814,-0.25178l-0.6917,-3.46192l-2.46805,-2.52112l6.97821,3.11002l-2.96357,-4.62181l-1.07073,-7.18673l5.27709,5.42882l3.74087,1.56345l-1.90222,-5.14428l5.61151,4.4559l-0.48344,-5.22638l0.92208,-4.03301l5.31875,5.07592l2.53357,1.21036l1.56207,2.38653l1.47936,-7.4947l2.2101,6.72227l2.36755,-7.9651l3.11407,7.37782l2.7361,-4.28479l0.32937,7.71141l4.06232,-3.42752l1.16597,-4.58752l2.20808,7.24324l-1.18378,3.98254l6.27876,-3.5616l3.22557,-0.62125l-5.35297,3.78021l1.79418,-0.33579l-2.17308,4.55374l6.09636,-3.27595l-5.09931,5.91447l9.69849,-2.30067l-6.40975,6.18312l4.881,-1.54524l-5.37679,4.73808l2.57521,0.85747l-9.97181,-0.41167l-38.12764,5.94195l-10.30401,4.32047l3.89231,-4.23391l-7.53348,-0.16928l5.06742,-2.87279l-9.39486,-3.29526l6.93484,-1.30964l2.64473,-1.4952l2.24614,0.52135" fill="#ffffff" fill-rule="nonzero" stroke="#e2e2e2" stroke-width="3" stroke-linecap="round"/></g><g data-paper-data="{&quot;index&quot;:null}" fill-rule="nonzero" stroke="none" stroke-width="1" stroke-linecap="butt" stroke-linejoin="miter"><path d="M266.10038,182.46199c0.21036,0.00315 0.29373,0.12761 0.36623,0.29086c0.09422,0.26656 0.13408,0.54633 0.21011,0.81732c0.06528,0.0384 0.13053,0.07681 0.19215,0.098c1.29097,0.5183 2.13937,1.46988 2.83175,2.58601c0.14501,0.2361 0.30817,0.46784 0.36609,0.74321c0.01083,0.05164 0.04348,0.11607 0.08703,0.14166c0.23934,0.14081 0.28644,0.36456 0.35527,0.60112c0.06162,0.20211 0.08695,0.41306 0.1304,0.61958c0.02535,0.12046 0.01444,0.24977 -0.07624,0.36231c-0.0907,0.1125 -0.11613,0.26342 -0.14514,0.39712c-0.08361,0.78019 -0.305,1.5396 -0.64607,2.27384c-0.19957,0.41036 -0.46801,0.7651 -0.7546,1.12423c-0.84525,1.05585 -1.92615,1.80718 -3.17019,2.32682c-0.56219,0.22714 -1.1606,0.37268 -1.7735,0.44937c-0.46421,0.0586 -0.91755,-0.0121 -1.35634,-0.1044c-1.39621,-0.29373 -2.52027,-1.0154 -3.423,-2.04423c-0.17402,-0.1929 -0.30091,-0.43338 -0.42778,-0.6739c-0.09064,-0.15887 -0.19578,-0.29613 -0.39884,-0.35532c-0.18129,-0.04639 -0.28644,-0.18363 -0.35894,-0.3469c-0.09422,-0.26656 -0.15217,-0.54192 -0.21012,-0.81731c-0.01812,-0.08607 0.00365,-0.16374 0.02546,-0.24141c0.11247,-0.28062 0.11255,-0.55203 0.0727,-0.83182c-0.10505,-0.5896 -0.02146,-1.18884 0.04398,-1.78368c0.02908,-0.22418 0.07627,-0.45274 0.16334,-0.67294c0.26853,-0.71659 0.56246,-1.40321 1.0413,-2.02622c-0.05434,-0.25816 -0.09415,-0.53795 -0.15215,-0.81331c-0.02174,-0.10329 -0.04709,-0.22373 0.04725,-0.31903c0.07618,-0.09087 0.03632,-0.18977 0.01458,-0.29302c-0.12678,-0.69284 -0.27166,-1.38127 -0.39843,-2.07411c-0.30424,-1.5362 -0.61217,-3.08956 -0.88015,-4.63457c-0.26073,-1.51059 -0.57593,-3.00791 -0.87293,-4.50968c-0.05072,-0.24096 -0.06152,-0.47352 -0.11225,-0.71444c-0.24634,-1.17033 -0.49264,-2.34069 -0.72086,-3.51542c-0.04346,-0.20651 -0.12319,-0.40423 -0.05422,-0.62c0.02177,-0.0777 -0.01445,-0.15929 -0.03255,-0.24537c-0.18115,-0.86055 -0.34775,-1.74272 -0.52888,-2.60329c-0.00724,-0.03442 -0.01809,-0.08605 -0.02535,-0.12046c-0.07612,-0.27097 0.02186,-0.43952 0.25039,-0.62174c0.76896,-0.60311 1.63578,-0.92244 2.60048,-0.95805c0.24661,-0.00568 0.50044,0.02303 0.74343,0.09058c0.18131,0.04639 0.28283,0.16641 0.3372,0.33408c0.16306,0.50312 0.34428,1.00179 0.51098,1.52211c0.11596,0.36984 0.19929,0.76568 0.36965,1.12226c0.37334,0.77761 0.53272,1.62537 0.85169,2.41617c0.17037,0.44703 0.37335,0.86809 0.52557,1.31957c0.15944,0.48588 0.35153,0.94575 0.52552,1.40997c0.31167,0.8469 0.5907,1.71982 0.92054,2.56229c0.46028,1.10019 0.84812,2.21808 1.23588,3.33592c0.13773,0.38265 0.27545,0.7652 0.41316,1.14785c0.20299,0.60197 0.40951,1.2211 0.61244,1.82303c0.10873,0.33541 0.25008,0.64479 0.35882,0.98016c0.13049,0.34824 0.1993,0.67521 0.31527,1.04505zM265.69776,182.81317c-0.23935,-0.05036 -0.47144,-0.06629 -0.71078,-0.02621c-0.50409,-0.04024 -1.00094,0.04439 -1.49781,0.12906c-0.62743,0.09831 -1.25848,0.26983 -1.87142,0.437c-0.70361,0.1892 -1.31657,0.53726 -1.94411,0.90695c-0.06531,0.05207 -0.13058,0.10413 -0.2285,0.18221c0.02895,0.13768 0.05799,0.27536 0.08695,0.41303c0.00724,0.03442 0.03263,0.06444 0.0616,0.11164c0.12694,-0.03085 0.25025,-0.07894 0.36997,-0.14423c0.20674,-0.10457 0.4026,-0.17024 0.60933,-0.27477c0.52228,-0.23555 1.09532,-0.32067 1.62847,-0.50459c0.28652,-0.08779 0.56579,-0.20992 0.85954,-0.26328c0.64557,-0.10272 1.27301,-0.29147 1.93302,-0.32533c0.17046,-0.00526 0.35903,-0.01497 0.52949,-0.0202c0.09427,0.08565 0.23209,0.0159 0.33003,0.02831c0.11966,0.02518 0.23937,0.05035 0.43517,-0.01538c-0.17402,-0.1929 -0.16672,-0.42986 -0.28269,-0.61874c-0.09431,0.00482 -0.18856,-0.08078 -0.30827,-0.0155zM264.84927,182.40439c0.44968,0.0535 0.56209,0.04422 0.79062,-0.04751c-0.06162,-0.20211 -0.11962,-0.38705 -0.1812,-0.58916c-0.02535,-0.12046 -0.11597,-0.1889 -0.23569,-0.21407c-0.07981,-0.01679 -0.17045,0.00528 -0.25023,-0.01152c-0.29738,-0.05436 -0.61653,-0.031 -0.90304,0.05676c-0.14506,-0.05515 -0.29011,-0.01994 -0.43521,0.01537c-0.81964,0.18122 -1.62481,0.34086 -2.42635,0.60812c-0.35545,0.12262 -0.7073,0.26242 -1.03731,0.41506c-0.25756,0.135 -0.53319,0.27439 -0.70732,0.53385c0.04711,0.22376 0.09421,0.44746 0.1413,0.67123c0.13781,-0.06967 0.25756,-0.13499 0.35907,-0.19585c0.47878,-0.26112 0.96478,-0.48787 1.46531,-0.64578c0.64194,-0.21036 1.30204,-0.33469 1.95847,-0.47625c0.3083,-0.07497 0.62017,-0.04228 0.92482,-0.13443c0.18856,0.08078 0.37352,0.0539 0.53671,0.01423zM258.56884,163.79552c-0.27561,-0.04154 -0.53309,0.00296 -0.78333,0.08192c-0.02174,-0.01279 -0.06166,-0.02119 -0.07982,-0.01677c-0.43159,0.12304 -0.85595,0.2805 -1.22229,0.53242c-0.21768,0.14339 -0.43891,0.26954 -0.58036,0.50295c0.20287,0.96383 0.40576,1.92759 0.61943,2.94309c0.39536,-0.29512 0.81251,-0.48709 1.23319,-0.66171c0.36634,-0.16146 0.73988,-0.198 1.11345,-0.32504c0.14506,-0.03528 0.27564,-0.04897 0.42071,-0.08425c0.2357,0.03316 0.48234,0.02745 0.75794,-0.02146c-0.10868,-0.51634 -0.3552,-0.96296 -0.49289,-1.43605c-0.15946,-0.4859 -0.33705,-0.96738 -0.49289,-1.43602c-0.18854,-0.08078 -0.34089,-0.07997 -0.49321,-0.07908zM259.7503,167.14463c-0.14508,-0.05513 -0.29376,-0.03712 -0.4388,-0.00184c-0.15957,-0.03359 -0.31919,0.02331 -0.48598,0.0458c-0.5114,0.10628 -1.00465,0.29861 -1.47251,0.5209c-0.27564,0.1394 -0.54405,0.31325 -0.76169,0.54707c0.01448,0.06886 0.01085,0.14209 0.02537,0.21093c0.17748,0.84338 0.35136,1.66945 0.51076,2.5172c0.17024,0.89936 0.33686,1.78153 0.50709,2.68092c0.2572,1.31245 0.49257,2.61208 0.74978,3.92451c0.27164,1.47175 0.59409,2.91305 0.82943,4.39361c0.03256,0.24535 0.10508,0.49909 0.1594,0.75729c0.18496,-0.11735 0.34455,-0.26471 0.53679,-0.34764c0.60208,-0.30924 1.24404,-0.51962 1.89325,-0.69559c0.58027,-0.14109 1.16418,-0.265 1.74813,-0.38888c0.24301,-0.02291 0.46422,-0.0586 0.70721,-0.08151c0.16679,0.06799 0.32276,-0.00612 0.47509,-0.00698c0.17046,-0.00526 0.33,0.02831 0.50773,-0.03301c0.00005,-0.18093 -0.06521,-0.30981 -0.10869,-0.42585c-0.4132,-0.96696 -0.68496,-1.98638 -1.04376,-2.96653c-0.22834,-0.63196 -0.45663,-1.26396 -0.70314,-1.89149c-0.31167,-0.8469 -0.63788,-1.67215 -0.94594,-2.50182c-0.25734,-0.67916 -0.51466,-1.35836 -0.75383,-2.04197c-0.26818,-0.73084 -0.5146,-1.44884 -0.76468,-2.18409c-0.23557,-0.66639 -0.47479,-1.34997 -0.73211,-2.02915c-0.16679,0.02249 -0.29736,-0.05432 -0.43881,-0.00185zM258.54773,191.68001c0.36632,-0.2519 0.7327,-0.41335 1.09536,-0.59202c0.38084,-0.18307 0.73989,-0.37896 1.12436,-0.54479c0.36635,-0.16145 0.75808,-0.29288 1.12801,-0.43709c0.38811,-0.14864 0.77617,-0.2973 1.18598,-0.43315c0.37355,-0.12701 0.7689,-0.24123 1.14249,-0.36825c0.39532,-0.11421 0.80515,-0.1596 1.186,-0.34268c0.40252,0.01065 0.78698,-0.15521 1.17144,-0.23062c0.40616,-0.06256 0.8233,-0.16402 1.22948,-0.22662c0.38803,-0.05816 0.79787,-0.10353 1.18954,-0.14453c0.40983,-0.04536 0.81599,-0.01748 1.2149,-0.11451c-0.05067,-0.42189 -0.07601,-0.54234 -0.28629,-0.81687c-0.2357,-0.03316 -0.47146,-0.06628 -0.73616,-0.05617c-0.31915,0.02333 -0.63827,0.04664 -0.97919,0.05717c-0.64193,0.02944 -1.26208,0.07172 -1.89677,0.22605c-0.43523,0.10582 -0.86683,0.22891 -1.31656,0.26586c-0.09431,0.00482 -0.2031,0.0313 -0.30461,0.09216c-0.20673,0.10457 -0.44612,0.14466 -0.66372,0.1976c-0.79791,0.19401 -1.57406,0.4913 -2.32848,0.80144c-1.00469,0.38904 -1.9477,0.88973 -2.87984,1.44209c-0.18859,0.10015 -0.37722,0.20028 -0.48964,0.39044c0.01805,0.267 0.09054,0.52075 0.21374,0.83449zM266.3049,191.94658c0.09796,-0.25902 0.12343,-0.5004 0.16699,-0.74619c0.05085,-0.21136 0.02548,-0.42231 -0.09053,-0.6112c-0.19211,-0.36939 -0.33347,-0.76923 -0.40226,-1.18671c-0.00724,-0.03442 -0.03623,-0.08165 -0.03984,-0.09885c-0.10153,-0.02957 -0.17405,-0.01191 -0.25389,0.06175c-0.01452,0.0216 -0.02539,0.06045 -0.02177,0.07768c0.05064,0.51236 0.06501,1.03349 0.04314,1.5635c-0.00367,0.07325 -0.00005,0.18092 0.05073,0.24096c0.13048,0.25775 0.261,0.51544 0.54746,0.6991zM266.84597,189.08319c0.04341,0.4779 0.0469,0.94743 0.02865,1.40417c-0.00726,0.14649 0.03621,0.26257 0.11962,0.38703c0.13414,0.18446 0.29731,0.32571 0.46408,0.48419c0.05075,0.06002 0.1051,0.13725 0.20669,0.07638c0.02909,-0.31465 0.07992,-0.6165 0.07276,-0.92229c-0.46044,-0.64789 -0.46041,-0.64787 -0.65242,-1.46958c-0.06526,-0.03842 -0.14144,-0.03796 -0.23937,0.04012zM262.02643,188.46409c0.00734,-0.32745 -0.00348,-0.6505 -0.01427,-0.97352c0.00366,-0.07325 0.00727,-0.14651 -0.02534,-0.21092c-0.18487,-0.24451 -0.35169,-0.49341 -0.61636,-0.66426c-0.17414,0.25945 -0.17419,0.53082 -0.2323,0.79825c-0.02906,0.13368 0.01084,0.23257 0.0906,0.3398c0.20302,0.24009 0.36981,0.48904 0.522,0.75954c0.00362,0.01721 0.04349,0.02563 0.08699,0.05119c0.05078,-0.03043 0.11974,-0.0653 0.18861,-0.10015zM262.68908,192.88015c0.17779,-0.33271 0.23227,-0.61733 0.30485,-0.90636c0.01454,-0.11208 -0.02171,-0.19371 -0.05797,-0.27536c-0.19577,-0.3866 -0.33705,-0.78649 -0.40951,-1.22115c-0.01085,-0.05163 -0.03983,-0.09885 -0.05073,-0.15046c-0.20311,0.03129 -0.23575,0.05732 -0.20676,0.195c0.0942,0.44751 0.09407,0.89982 -0.00395,1.33975c-0.0581,0.26742 0.0035,0.46954 0.14127,0.67125c0.09789,0.10286 0.17402,0.19291 0.28279,0.34737zM264.70256,189.58631c-0.09066,0.02206 -0.09428,0.09536 -0.07981,0.16419c0.10141,0.4819 0.05417,0.98186 0.00689,1.48186c-0.02911,0.40508 0.12675,0.7833 0.47844,1.09579c0.09432,-0.18577 0.07623,-0.36229 0.13431,-0.53924c0.11252,-0.37111 0.04368,-0.69811 -0.1013,-1.02471c-0.15223,-0.36099 -0.32259,-0.71761 -0.36604,-1.10505c-0.02903,-0.04719 -0.05077,-0.06006 -0.07252,-0.07284zM263.95475,192.55429c0.06535,-0.23298 0.12704,-0.39273 0.17057,-0.54805c0.07982,-0.25462 0.05451,-0.46556 -0.06873,-0.68886c-0.17763,-0.30054 -0.28636,-0.63595 -0.37695,-0.97573c-0.04348,-0.11609 -0.07247,-0.25375 -0.09782,-0.37421c-0.09431,0.00482 -0.10155,0.06085 -0.0943,0.0953c0.01441,0.52118 0.01064,1.04672 -0.0693,1.57274c-0.00001,0.09046 -0.00365,0.16371 0.03258,0.24535c0.14137,0.21892 0.26464,0.44221 0.50393,0.67349zM260.92022,188.91399c-0.14137,-0.30937 -0.15214,-0.63238 -0.18109,-0.95103c-0.01811,-0.08606 0.02179,-0.16813 -0.03258,-0.24535c-0.0834,-0.12449 -0.35896,-0.34692 -0.59104,-0.45333c-0.09073,0.203 -0.0835,0.41834 -0.11622,0.62532c-0.02179,0.16813 0.02531,0.30139 0.14495,0.41703c0.19575,0.20567 0.35531,0.42019 0.46766,0.68234c0.00362,0.01723 0.04715,0.0428 0.06889,0.0556c0.07618,-0.00043 0.14869,-0.01805 0.23939,-0.1306zM266.88292,186.27c-0.15952,-0.21446 -0.20296,-0.51152 -0.41325,-0.69557c-0.12331,0.04806 -0.15962,0.14735 -0.21766,0.23385c-0.09796,0.16857 -0.22129,0.30707 -0.27211,0.51844c0.17399,0.28335 0.2102,0.63637 0.3697,0.94133c0.10153,0.02957 0.1922,0.00754 0.27563,-0.04896c0.04722,-0.31906 0.13433,-0.62971 0.25772,-0.94919zM264.15172,187.78444c0.00005,-0.18093 0.00009,-0.36183 0.06542,-0.50436c0.15602,-0.34548 0.07628,-0.63369 -0.13036,-0.89097c-0.07611,-0.09004 -0.09784,-0.19331 -0.2284,-0.27014c-0.14513,0.21624 -0.23222,0.4364 -0.31926,0.65661c-0.02541,0.06044 -0.01089,0.1293 0.02534,0.21092c0.12689,0.24054 0.23201,0.46824 0.35886,0.70876c0.01083,0.05164 0.06164,0.11167 0.22847,0.08918zM265.29417,187.5066c-0.00717,-0.39628 0.02923,-0.76694 0.20699,-1.09966c0.04354,-0.06486 0.01089,-0.12928 -0.0036,-0.19813c-0.05074,-0.15049 -0.11962,-0.29659 -0.26102,-0.42501c-0.20317,0.3027 -0.31565,0.58338 -0.42452,0.8812c-0.03629,0.09929 -0.03634,0.18973 0.00356,0.2886c0.07608,0.18052 0.13411,0.36542 0.21022,0.5459c0.00362,0.01723 0.04716,0.04284 0.06888,0.05562c0.05441,-0.01322 0.10882,-0.02646 0.19945,-0.04853zM261.13335,192.37194c0.10878,0.15445 0.22114,0.32618 0.32989,0.48067c0.02174,0.01279 0.04353,0.02561 0.08701,0.05119c0.16689,-0.2034 0.23222,-0.43641 0.26492,-0.64335c-0.23924,-0.50267 -0.47122,-0.97091 -0.59438,-1.5561c-0.19594,0.33711 -0.011,0.5816 -0.01832,0.81856c0.00355,0.2886 -0.03275,0.56879 -0.06908,0.84901zM266.64577,192.29792c0.22481,0.16243 0.41338,0.33366 0.69259,0.39242c0.0472,-0.13809 0.11974,-0.24622 0.15237,-0.36272c0.03264,-0.11649 0.08348,-0.23738 0.05809,-0.35787c-0.08702,-0.14164 -0.23569,-0.21406 -0.35171,-0.31247c-0.11605,-0.09839 -0.19942,-0.22291 -0.36258,-0.27367c-0.06896,0.30627 -0.12345,0.59086 -0.18881,0.91432zM267.99931,188.76655c0.03614,0.53395 0.07234,0.97746 0.10846,1.42094c0.00724,0.03442 -0.00006,0.09048 0.04348,0.11607c0.16678,0.15844 0.30455,0.36014 0.56564,0.42329c0.02184,-0.25859 0.04726,-0.5 0.05457,-0.73698c-0.31907,-0.33855 -0.53655,-0.73789 -0.77218,-1.22338zM262.65789,186.39277c-0.13785,0.16017 -0.13788,0.34108 -0.18145,0.4964c-0.05808,0.17694 -0.06174,0.34066 0.05066,0.51232c0.14499,0.23611 0.29002,0.47224 0.31172,0.75646c0.1342,0.00355 0.2031,-0.03128 0.18136,-0.13457c-0.03622,-0.26256 -0.07602,-0.54236 -0.01432,-0.79255c0.07624,-0.3623 -0.12316,-0.58523 -0.34797,-0.8381zM264.53283,186.33488c0.17416,-0.3499 0.32652,-0.62216 0.46078,-0.88997c-0.02535,-0.12046 -0.09424,-0.1761 -0.14499,-0.23609c-0.06889,-0.05561 -0.12687,-0.15002 -0.26105,-0.15361c-0.17053,0.18622 -0.3156,0.40238 -0.43899,0.63138c0.10149,0.21049 0.21751,0.39939 0.38427,0.64832zM261.50833,186.18385c0.21753,0.21847 0.40971,0.40693 0.60547,0.6126c0.07983,-0.25462 0.16331,-0.49204 0.24678,-0.72941c-0.17402,-0.1929 -0.30817,-0.37736 -0.55836,-0.4793c-0.1306,0.19456 -0.20318,0.39316 -0.29391,0.59613zM265.89124,193.06036c0.19588,-0.15616 0.20318,-0.39316 0.27577,-0.59173c0.02541,-0.06044 -0.01083,-0.14208 -0.05799,-0.1849c-0.14503,-0.14567 -0.26828,-0.27851 -0.40967,-0.40698c-0.00362,-0.01721 -0.03992,-0.00837 -0.07617,0.00042c-0.07626,0.27182 -0.13064,0.55643 -0.2069,0.82827c0.12688,0.15004 0.30092,0.25246 0.475,0.35486zM263.00442,193.20148c0.1124,0.17166 0.22113,0.32614 0.44596,0.39814c0.11245,-0.1902 0.2612,-0.38918 0.30842,-0.61776c-0.07975,-0.10725 -0.12326,-0.22331 -0.21751,-0.30892c-0.0761,-0.09003 -0.08695,-0.23214 -0.26105,-0.24407c-0.09799,0.25901 -0.19594,0.51801 -0.27581,0.77266zM261.01878,186.39334c-0.10514,-0.13725 -0.28645,-0.18363 -0.47138,-0.2472c-0.10164,0.2418 -0.25033,0.44082 -0.27219,0.6994c0.17407,0.10243 0.30456,0.26967 0.53302,0.35885c0.07626,-0.27182 0.13436,-0.53925 0.21054,-0.81106zM259.85387,189.46274c-0.04707,-0.31421 -0.17033,-0.62798 -0.18111,-0.95104c-0.01807,-0.26699 -0.17401,-0.37376 -0.42058,-0.45855c-0.08707,0.22017 -0.08351,0.41832 -0.09442,0.63807c0.29369,0.21802 0.45323,0.523 0.69613,0.77149zM269.06551,188.76058c-0.06893,0.03484 -0.05803,0.08647 -0.04719,0.1381c0.02895,0.22813 0.07967,0.4691 0.0905,0.70168c-0.00368,0.34465 0.21387,0.47266 0.48947,0.60466c0.01091,-0.12934 0.02904,-0.22416 0.02907,-0.31463c0.01091,-0.21975 -0.01078,-0.41346 -0.21382,-0.56313c-0.11603,-0.0984 -0.18489,-0.24454 -0.25019,-0.37339c0.00366,-0.07325 0.02179,-0.16812 -0.09785,-0.1933zM267.63009,185.65409c-0.07618,0.09087 -0.1161,0.17296 -0.15962,0.23781c-0.15236,0.18177 -0.17418,0.34993 -0.09443,0.54763c0.07246,0.16328 0.09419,0.35704 0.14856,0.52473c0.01085,0.05164 0.0036,0.10767 0.13418,0.09403c0.03998,-0.263 0.11618,-0.53485 0.23231,-0.79827c0.02541,-0.06044 0.00727,-0.14647 -0.00719,-0.21533c-0.06524,-0.12885 -0.12686,-0.24055 -0.25377,-0.39058zM262.85388,185.9652c0.10875,0.15447 0.20299,0.33053 0.36257,0.45459c0.14147,-0.23343 0.30835,-0.43682 0.38821,-0.69143c-0.14504,-0.14565 -0.23564,-0.30453 -0.45687,-0.35931c-0.11248,0.1902 -0.24673,0.36756 -0.29389,0.59615zM264.49163,192.20662c-0.14146,0.23343 -0.20679,0.46642 -0.23584,0.69057c0.14503,0.14566 0.26832,0.27847 0.46413,0.39371c0.12335,-0.13856 0.18502,-0.29831 0.22496,-0.47082c-0.15589,-0.19727 -0.29367,-0.39898 -0.45316,-0.61349zM264.30116,184.78105c-0.13418,-0.09404 -0.20667,-0.16685 -0.31184,-0.21361c-0.06528,-0.0384 -0.1269,-0.05961 -0.18858,-0.08079c-0.16322,0.13013 -0.30109,0.29032 -0.37367,0.4889c0.12688,0.15004 0.25378,0.30008 0.46052,0.37648c0.1306,-0.19456 0.26845,-0.35475 0.41356,-0.57094zM268.5038,186.99751c0.156,-0.25505 0.27208,-0.42798 0.39908,-0.63978c0.00367,-0.07325 -0.03981,-0.18929 -0.11597,-0.27935c-0.058,-0.09442 -0.04709,-0.22373 -0.17402,-0.28334c-0.15234,0.09134 -0.24303,0.20383 -0.30836,0.34636c0.0761,0.27098 0.13041,0.52916 0.19923,0.85615zM267.1678,193.05751c-0.10882,-0.06401 -0.2176,-0.12803 -0.32634,-0.19206c-0.10883,-0.06401 -0.21395,-0.11076 -0.32272,-0.1748c-0.08711,0.22016 -0.18506,0.38874 -0.18149,0.58686c0.07612,0.09003 0.19217,0.098 0.29369,0.12761c0.10153,0.02957 0.21397,0.11077 0.33726,0.06273c0.08345,-0.14696 0.17414,-0.25945 0.19956,-0.41039zM262.04892,185.22016c0.1813,0.13681 0.31545,0.32136 0.56208,0.40609c0.09793,-0.16856 0.17777,-0.33271 0.27572,-0.50126c-0.18129,-0.13683 -0.32268,-0.26528 -0.55841,-0.2984c-0.10882,0.11692 -0.22492,0.19942 -0.27935,0.39358zM268.13659,190.86796c-0.04363,0.33625 -0.07632,0.63365 -0.10902,0.93105c0.09427,0.08565 0.17038,0.1757 0.30457,0.17923c0.15963,-0.23784 0.19959,-0.50081 0.25766,-0.76822c-0.09429,-0.08565 -0.18853,-0.17127 -0.2973,-0.23528c-0.03261,-0.06445 -0.0725,-0.07282 -0.15589,-0.10682zM265.46509,185.33026c0.14868,0.16285 0.19214,0.36941 0.36619,0.4718c0.16324,-0.22061 0.31197,-0.4196 0.41361,-0.66146c-0.15233,-0.08961 -0.18851,-0.26171 -0.39159,-0.32088c-0.1632,0.13014 -0.23945,0.31152 -0.3882,0.51049zM262.25732,193.7269c0.10521,-0.13415 0.18862,-0.28107 0.23219,-0.43642c-0.1523,-0.18007 -0.2864,-0.36456 -0.44592,-0.57904c-0.06894,0.21574 -0.14878,0.37991 -0.25765,0.58729c0.15229,0.18009 0.2828,0.34737 0.47138,0.42815zM267.45972,185.29749c-0.11962,-0.2061 -0.21389,-0.38219 -0.42421,-0.47579c-0.12695,0.12134 -0.23941,0.22101 -0.28298,0.37636c0.116,0.18889 0.21386,0.38215 0.35526,0.60108c0.13785,-0.16017 0.25756,-0.31593 0.3519,-0.50168zM264.03439,193.29475c-0.08346,0.23739 -0.26121,0.3892 -0.25763,0.58734c0.14503,0.14566 0.31184,0.21363 0.49317,0.26c0.1197,-0.15576 0.24306,-0.29431 0.25763,-0.49684c-0.15591,-0.10682 -0.29372,-0.21802 -0.49314,-0.35046zM260.75415,185.77022c0.15231,0.08961 0.26832,0.18802 0.44604,0.21718c0.08707,-0.22017 0.26122,-0.38916 0.28666,-0.63056c-0.13418,-0.09404 -0.25748,-0.13642 -0.42431,-0.11392c-0.1161,0.17296 -0.21044,0.35872 -0.30835,0.52728zM269.03596,190.97493c0.13779,0.11124 0.24291,0.15799 0.38076,0.17882c0.09796,-0.16857 0.17056,-0.36712 0.12706,-0.57363c-0.13054,-0.07681 -0.26105,-0.15361 -0.39523,-0.24764c-0.10523,0.2246 -0.0799,0.43554 -0.11259,0.64249zM258.44331,188.37657c0.12689,0.05961 0.23209,0.1064 0.34449,0.09715c0.07259,-0.19853 0.10887,-0.38832 0.10528,-0.58646c-0.11238,-0.08122 -0.21755,-0.12801 -0.35173,-0.13157c-0.09073,0.203 -0.06538,0.41392 -0.09806,0.62087zM263.4091,184.34669c-0.15226,-0.18007 -0.30096,-0.162 -0.46056,-0.10511c-0.12693,0.03084 -0.24665,0.09616 -0.27206,0.24708c0.13779,0.11124 0.27194,0.20526 0.45325,0.25162c0.10521,-0.13415 0.19228,-0.26386 0.27935,-0.39358zM260.27748,192.562c0.08701,0.14166 0.11599,0.27933 0.26103,0.33451c0.3011,-0.38079 0.14161,-0.68577 -0.1158,-1.00306c-0.04722,0.22857 -0.09805,0.43999 -0.14523,0.66853zM265.17885,184.33241c-0.14874,0.1085 -0.23941,0.22104 -0.31561,0.40239c0.14506,0.05515 0.19944,0.22286 0.359,0.25643c0.1052,-0.04366 0.12695,-0.12131 0.18863,-0.19057c0.05802,-0.08645 0.14146,-0.14295 0.11613,-0.26343c-0.09429,-0.08565 -0.18858,-0.17128 -0.34813,-0.20482zM264.3,189.75656c-0.22118,-0.05476 -0.32278,0.0061 -0.30828,0.16539c0.02893,0.22813 0.09417,0.4475 0.1558,0.64961c0.01446,0.06884 0.05076,0.15048 0.16678,0.15846c0.02547,-0.33184 0.01467,-0.65485 -0.01427,-0.97349zM259.71326,185.98715c-0.05799,-0.09444 -0.1414,-0.12845 -0.25385,-0.11923c-0.14876,0.19901 -0.33741,0.38961 -0.3955,0.65702c0.23935,0.05036 0.39535,-0.02374 0.48604,-0.22671c0.05804,-0.08646 0.15601,-0.16461 0.16329,-0.31108zM261.90626,190.51959c-0.25385,0.06172 -0.30102,0.10944 -0.26843,0.26428c0.06886,0.23654 0.14131,0.4903 0.28271,0.70919c0.07988,-0.34508 0.14522,-0.66855 -0.01426,-0.97349zM258.83837,189.43833c-0.01083,-0.14206 -0.03623,-0.2626 -0.04342,-0.38744c-0.03254,-0.24538 -0.03258,-0.24535 -0.37712,-0.25207c-0.01091,0.12934 -0.03635,0.28023 -0.03996,0.35346c0.17407,0.10245 0.3082,0.19643 0.4605,0.28603zM265.12929,194.42158c0.09072,-0.11251 0.24668,-0.18664 0.20683,-0.37597c-0.1269,-0.0596 -0.26835,-0.09757 -0.41701,-0.16997c-0.10522,0.13414 -0.23219,0.25544 -0.25759,0.40636c0.14508,0.05514 0.27562,0.13202 0.46781,0.13955zM259.65843,187.80964c0.04353,-0.24578 0.10531,-0.49599 0.14886,-0.74177c-0.05438,-0.07719 -0.12324,-0.13284 -0.22479,-0.07198c-0.1306,0.19456 -0.21773,0.41479 -0.22501,0.65175c0.09427,0.08565 0.18129,0.1368 0.30099,0.16198zM261.62988,193.64423c-0.12331,0.04806 -0.19952,0.13896 -0.25029,0.25987c0.05077,0.06004 0.10152,0.12004 0.15228,0.18007c0.07247,0.07284 0.1269,0.15006 0.24294,0.158c0.10881,-0.02645 0.19223,-0.08287 0.24665,-0.18661c-0.1233,-0.13286 -0.26832,-0.2785 -0.39154,-0.41135zM265.27469,193.1198c-0.10522,0.13414 -0.15239,0.27226 -0.17782,0.42317c0.16679,0.06799 0.31547,0.14038 0.4605,0.19556c0.1342,-0.08695 0.18501,-0.20784 0.18141,-0.31553c-0.1559,-0.10681 -0.31184,-0.21363 -0.46412,-0.30328zM260.79229,193.28711c0.07612,0.09003 0.15225,0.18007 0.24654,0.26573c0.02173,0.01279 0.05805,0.00397 0.09796,0.01237c0.06169,-0.06927 0.16321,-0.13012 0.18863,-0.28107c-0.08342,-0.12448 -0.15591,-0.28773 -0.31182,-0.39456c-0.12693,0.12134 -0.17772,0.24224 -0.2213,0.39757zM259.51955,192.04073c0.02172,0.19372 -0.17051,0.27668 -0.13428,0.44877c0.1015,0.12001 0.1522,0.27053 0.32628,0.37292c0.10882,-0.11692 0.19954,-0.22947 0.11249,-0.37109c-0.08702,-0.14166 -0.10147,-0.30094 -0.30451,-0.4506zM258.81362,186.96578c-0.04718,0.1381 -0.11247,0.28064 -0.16328,0.40151c-0.01452,0.02161 0.01088,0.05166 0.01814,0.08606c0.09791,0.01237 0.20667,0.0764 0.35902,-0.01497c0.06166,-0.15973 0.11977,-0.33668 0.19596,-0.51806c-0.14141,-0.03797 -0.25386,-0.02872 -0.40983,0.04537zM266.00707,193.88247c0.13054,0.07682 0.2647,0.17083 0.37347,0.23482c0.15234,-0.09132 0.24306,-0.20383 0.31558,-0.31194c-0.0435,-0.11609 -0.17404,-0.10239 -0.25746,-0.13641c-0.08343,-0.03398 -0.17042,-0.08519 -0.29376,-0.03709c-0.06531,0.05207 -0.12696,0.12134 -0.13789,0.25064zM266.80351,184.53439c-0.11605,-0.09839 -0.20669,-0.16686 -0.29732,-0.23526c-0.02537,-0.03002 -0.08342,-0.03401 -0.10519,-0.04681c-0.12693,0.03084 -0.20314,0.12175 -0.2539,0.24268c0.11965,0.11562 0.22119,0.23567 0.37342,0.32533c0.09793,-0.0781 0.17413,-0.169 0.28294,-0.28591zM258.35244,189.5746c-0.02547,0.24138 -0.05089,0.48275 0.05422,0.71048c0.15233,-0.09133 0.29382,-0.14383 0.3555,-0.30354c-0.15221,-0.27055 -0.15224,-0.27055 -0.40968,-0.40694zM264.81993,184.16639c-0.37713,-0.25206 -0.39522,-0.24764 -0.68543,0.0039c0.13418,0.09404 0.28283,0.1664 0.41698,0.26047c0.12331,-0.04806 0.19947,-0.13897 0.26845,-0.26428zM262.58357,194.00938c0.11965,0.11563 0.23208,0.19685 0.39164,0.23045c0.03266,-0.02603 0.07982,-0.07368 0.12698,-0.12134c0.02902,-0.04325 0.05444,-0.10371 0.08343,-0.14691c-0.11967,-0.11561 -0.22482,-0.25289 -0.38799,-0.30368c-0.09792,0.0781 -0.16688,0.2034 -0.21403,0.34152zM268.06183,185.07871c-0.04714,0.04766 -0.10881,0.11695 -0.11611,0.17298c-0.01456,0.20256 0.05793,0.36577 0.22475,0.52427c0.09434,-0.09529 0.23213,-0.16498 0.26481,-0.2815c-0.10875,-0.15447 -0.16674,-0.33938 -0.37344,-0.41575zM268.69118,192.14427c0.02174,0.0128 0.04352,0.0256 0.08701,0.05119c0.20676,-0.19504 0.34827,-0.42845 0.48973,-0.66185c-0.07975,-0.10724 -0.16316,-0.14121 -0.31184,-0.12318c-0.08346,0.23739 -0.18503,0.47917 -0.26491,0.73381zM263.08483,190.95663c0.05446,-0.28462 0.13066,-0.55642 0.05094,-0.84458c-0.00362,-0.01723 -0.0834,-0.03396 -0.11966,-0.02517c-0.09065,0.02207 -0.1487,0.10854 -0.13056,0.19457c-0.00733,0.23696 0.07605,0.4519 0.19928,0.67519zM263.30884,194.46625c0.11239,0.08125 0.22481,0.16244 0.36623,0.20042c0.12694,-0.03085 0.21036,-0.08733 0.27568,-0.22982c-0.1487,-0.0724 -0.30096,-0.16203 -0.446,-0.2172c-0.10153,0.06086 -0.16319,0.13015 -0.19588,0.24664zM262.00556,184.56134c-0.25749,0.04453 -0.47873,0.0802 -0.67098,0.25359c0.08701,0.14164 0.22842,0.17966 0.38437,0.19602c0.12333,-0.13856 0.23216,-0.25547 0.2866,-0.44965zM269.40331,186.38076c-0.14148,0.14295 -0.15598,0.16453 -0.14514,0.21621c0.01807,0.1765 0.14135,0.30939 0.26099,0.425c0.04712,0.04281 0.14145,0.03794 0.1741,-0.07854c-0.14141,-0.12844 -0.11595,-0.36985 -0.29001,-0.56268zM267.94049,192.20015c-0.10164,0.2418 -0.22497,0.47082 -0.18149,0.7678c0.22849,-0.1822 0.31198,-0.41964 0.40268,-0.62258c-0.03623,-0.08165 -0.09788,-0.10282 -0.2212,-0.14519zM265.86793,184.25531c0.0798,-0.07369 0.16321,-0.13016 0.24301,-0.20383c-0.12329,-0.13288 -0.25744,-0.22688 -0.44604,-0.12673c-0.05078,0.03044 -0.10154,0.06087 -0.10521,0.13414c0.05799,0.09443 0.16318,0.14124 0.30821,0.19642zM260.72748,190.98711c-0.16321,0.03972 -0.22849,0.09173 -0.18137,0.225c0.04349,0.1161 0.087,0.23214 0.14864,0.3438c0.02901,0.04718 0.07614,0.09006 0.14506,0.05519c0.01092,-0.21975 -0.02894,-0.40908 -0.1123,-0.624zM267.69085,189.65567c0.02546,-0.24141 0.01461,-0.47397 -0.08686,-0.68448c-0.00362,-0.01724 -0.08341,-0.03396 -0.10152,-0.02957c-0.03624,0.0088 -0.0617,0.06927 -0.05442,0.10371c0.06521,0.21934 0.07243,0.43472 0.24286,0.61038zM268.43807,188.85883c0.09063,0.15889 0.13049,0.34824 0.2791,0.5111c0.04356,-0.24577 0.03998,-0.44393 -0.03616,-0.53397c-0.05799,-0.09443 -0.13054,-0.07682 -0.24296,0.0229zM260.29005,185.19561c-0.20674,0.10457 -0.46063,0.1663 -0.54409,0.40368c0.35536,0.0583 0.43883,-0.17908 0.54409,-0.40368zM261.20327,188.2662c-0.03624,0.00881 -0.05085,0.03047 -0.08706,0.03926c0.05437,0.16767 0.01446,0.34024 0.13771,0.47308c0.11243,-0.00922 0.16321,-0.03969 0.19949,-0.13898c-0.07975,-0.10724 -0.16313,-0.2317 -0.25017,-0.37338zM265.37334,190.14689c0.00368,-0.25418 0.0001,-0.45232 -0.06149,-0.65445c-0.00724,-0.03442 -0.05075,-0.06002 -0.10515,-0.04679c-0.01816,0.00442 -0.05078,0.03045 -0.06529,0.05207c-0.02547,0.24138 0.01804,0.4479 0.23196,0.64916zM267.71009,184.94715c0.10154,-0.06087 0.1487,-0.10851 0.10157,-0.15135c-0.07975,-0.10724 -0.17766,-0.21007 -0.27554,-0.31292c-0.06888,-0.05562 -0.12328,-0.04241 -0.16318,0.03968c0.09422,0.17611 0.18126,0.31778 0.33716,0.42458zM264.34595,194.59398c-0.06169,0.06927 -0.12696,0.12136 -0.18865,0.19059c-0.01452,0.02161 -0.00726,0.05604 -0.01455,0.11209c0.21759,-0.05289 0.42791,-0.04978 0.6492,-0.17596c-0.1487,-0.0724 -0.25385,-0.1192 -0.44604,-0.12673zM265.94703,187.34789c-0.05435,-0.16769 -0.10511,-0.31822 -0.16672,-0.52033c-0.14511,0.21624 -0.16693,0.38433 -0.11256,0.55202c0.10153,0.02958 0.15957,0.03358 0.27927,-0.03172zM260.34357,189.16277c-0.09789,-0.10286 -0.10146,-0.30095 -0.32267,-0.35573c0.03256,0.42629 0.05063,0.5123 0.14857,0.52471c0.09065,-0.02207 0.13785,-0.0697 0.17412,-0.16899zM266.45415,189.84785c0.16329,-0.31105 0.11977,-0.51758 -0.00707,-0.75812c-0.2104,0.26829 -0.0146,0.47391 0.00707,0.75812zM259.96201,192.0598c0.14878,-0.28945 0.10892,-0.47882 0.02917,-0.67651c-0.00362,-0.01721 -0.04352,-0.0256 -0.07977,-0.01678c-0.0544,0.01321 -0.08343,0.05648 -0.07618,0.09088c0.01805,0.1765 0.07244,0.34417 0.12678,0.60236zM259.52738,189.63262c-0.08701,-0.14166 -0.14137,-0.30938 -0.34802,-0.38573c-0.01817,0.18534 0.03258,0.33583 0.07966,0.4691c0.11966,0.02518 0.18856,-0.00966 0.26837,-0.08336zM259.91464,193.10255c0.15956,0.12404 0.1994,0.31336 0.39523,0.3381c0.00368,-0.25418 0.00368,-0.25418 -0.24649,-0.44663c-0.03266,0.02603 -0.06529,0.05207 -0.14872,0.10854zM260.22816,186.07908c-0.24299,0.11337 -0.33734,0.29915 -0.40993,0.49771c0.07612,0.09003 0.1487,0.0724 0.19219,0.00755c0.06164,-0.15973 0.14152,-0.32389 0.21769,-0.50525zM262.35865,194.2993c-0.10519,0.04366 -0.19222,0.08292 -0.22488,0.19941c0.09064,0.06842 0.18129,0.13685 0.29368,0.12758c0.08705,-0.03925 0.1342,-0.08693 0.15599,-0.1646c-0.05439,-0.07721 -0.11966,-0.11562 -0.22482,-0.16242zM263.3684,187.59497c-0.02544,0.15089 -0.03998,0.26304 0.01804,0.35746c0.02537,0.03002 0.06526,0.03842 0.10517,0.0468c0.0544,-0.01321 0.11971,-0.06527 0.09072,-0.11249c-0.02174,-0.10329 -0.04709,-0.22375 -0.21393,-0.29175zM265.62253,194.50066c0.17408,0.01194 0.30103,-0.10941 0.43884,-0.1791c-0.26471,-0.17084 -0.30097,-0.16198 -0.43884,0.1791zM269.4572,188.62915c-0.01819,0.27582 -0.0182,0.27581 0.16675,0.3394c0.01454,-0.11208 0.02544,-0.24142 -0.16675,-0.3394zM262.36012,188.32867c0.08343,0.03398 0.1378,0.02076 0.14867,-0.01805c0.06164,-0.15973 0.03269,-0.20696 -0.16314,-0.32216c-0.02905,0.13369 -0.00734,0.23701 0.01442,0.34027zM259.17143,192.10728c0.07255,-0.10813 0.12696,-0.21181 0.06538,-0.32343c-0.27925,0.12221 -0.29015,0.16099 -0.06538,0.32343zM269.96475,189.1389c0.08345,-0.14696 0.07263,-0.28902 0.06539,-0.41389c-0.01447,-0.06884 -0.07976,-0.10726 -0.17409,-0.01194c0.00725,0.12487 0.01806,0.26699 0.10869,0.42585zM260.76668,193.8904c0.00005,-0.18093 -0.07246,-0.25377 -0.2248,-0.25291c0,0 -0.03265,0.02604 -0.02901,0.04325c0.00363,0.10767 0.12685,0.15006 0.25381,0.20969zM264.6124,187.43721c-0.10154,0.06087 -0.12335,0.13856 -0.09072,0.20297c0.00724,0.03442 0.05075,0.06002 0.09064,0.06842c0.03991,0.00838 0.08703,-0.03924 0.07977,-0.07367c0.00727,-0.05605 -0.00721,-0.12488 -0.07972,-0.19773zM263.14183,194.76012c-0.09789,-0.10286 -0.18129,-0.13684 -0.31187,-0.03268c0.11967,0.11561 0.19943,0.13243 0.31187,0.03268z" fill="#000000"/><path d="M263.55489,181.32611c-0.5839,0.12387 -1.16786,0.24777 -1.74814,0.3889c-0.65284,0.15876 -1.29116,0.38634 -1.89325,0.69559c-0.18861,0.10014 -0.33369,0.22584 -0.53679,0.34759c-0.05797,-0.2754 -0.12684,-0.51188 -0.15939,-0.75724c-0.23175,-1.46336 -0.55777,-2.92187 -0.82943,-4.39361c-0.23902,-1.31685 -0.49261,-2.61207 -0.74978,-3.92451c-0.17025,-0.89937 -0.33683,-1.78156 -0.50706,-2.68091c-0.15937,-0.84776 -0.35138,-1.66944 -0.51077,-2.51718c-0.01448,-0.06886 -0.02897,-0.13771 -0.02534,-0.21095c0.21401,-0.25106 0.46795,-0.40324 0.76169,-0.54706c0.4679,-0.22233 0.96114,-0.41463 1.4725,-0.52088c0.16321,-0.03972 0.32277,-0.0966 0.48597,-0.04579c-0.15597,0.07412 -0.34815,0.06659 -0.52953,0.20113c0.18486,0.2445 0.19208,0.5503 0.26818,0.8213c0.00362,0.01721 0.00724,0.03441 0.02537,0.03001c0.24285,0.42941 0.3479,0.92855 0.54002,1.38842c0.07248,0.16327 0.1994,0.31335 0.19936,0.49425c0.03616,0.35303 0.26823,0.64034 0.30442,0.99343c0.00362,0.01721 0.02901,0.04723 0.03624,0.08167c0.12322,0.31375 0.26094,0.60593 0.34791,0.92851c0.0797,0.37863 0.29723,0.6876 0.34067,1.07504c0.15589,0.19727 0.16669,0.42985 0.23554,0.66638c0.00724,0.03442 0.0109,0.05165 0.01811,0.08605c0.21752,0.30895 0.22107,0.688 0.36605,1.01461c0.14498,0.32656 0.18479,0.69682 0.31166,1.02781c0.13771,0.38265 0.32624,0.73477 0.35874,1.1611c0.00724,0.03442 0.01811,0.08607 0.04349,0.11608c0.14868,0.16285 0.13771,0.38263 0.1993,0.58476c0.02174,0.10329 0.02894,0.22811 0.08696,0.32258c0.10511,0.13726 0.11598,0.27935 0.14858,0.43427c0.01811,0.08607 0.01809,0.17655 0.06886,0.23653c0.15589,0.19727 0.17035,0.44704 0.21744,0.67076c0.01811,0.08607 0.0181,0.1765 0.06886,0.23655c0.13048,0.16728 0.15223,0.361 0.19206,0.55034c0.06523,0.30982 0.25735,0.58872 0.30441,0.9029c-0.00725,0.05604 0.05797,0.09444 0.08701,0.14166z" fill="#87d7dc"/><path d="M263.55488,181.32609c-0.02899,-0.04722 -0.09429,-0.08562 -0.10514,-0.13727c-0.0471,-0.31421 -0.22107,-0.59755 -0.30441,-0.90292c-0.03982,-0.18932 -0.06156,-0.38307 -0.19206,-0.55033c-0.05077,-0.06004 -0.05074,-0.15051 -0.06888,-0.23652c-0.04712,-0.22373 -0.07964,-0.4691 -0.21739,-0.67081c-0.05075,-0.06002 -0.03262,-0.15492 -0.06888,-0.23653c-0.03261,-0.15489 -0.06159,-0.2926 -0.14858,-0.43428c-0.05799,-0.09443 -0.06522,-0.21937 -0.08695,-0.32261c-0.06162,-0.20211 -0.05069,-0.42188 -0.19932,-0.58474c-0.02537,-0.03002 -0.03625,-0.08165 -0.04348,-0.11606c-0.02893,-0.40909 -0.22104,-0.7785 -0.35877,-1.1611c-0.13049,-0.34823 -0.17026,-0.71844 -0.31161,-1.02784c-0.14499,-0.32654 -0.14853,-0.70565 -0.36607,-1.01458c-0.02173,-0.01282 -0.01086,-0.05165 -0.01811,-0.08607c-0.04712,-0.22373 -0.07968,-0.4691 -0.23557,-0.66641c-0.02528,-0.39189 -0.24283,-0.70082 -0.34063,-1.07503c-0.06884,-0.327 -0.2247,-0.61476 -0.3479,-0.92854c-0.00724,-0.03442 -0.02905,-0.04723 -0.03627,-0.08164c-0.03616,-0.35303 -0.26822,-0.64033 -0.30441,-0.99341c-0.02172,-0.19372 -0.14497,-0.32659 -0.19935,-0.49427c-0.17397,-0.46428 -0.29716,-0.95899 -0.54001,-1.38839c-0.00362,-0.01721 -0.0254,-0.03001 -0.0254,-0.03001c-0.07612,-0.27098 -0.08328,-0.57682 -0.26819,-0.8213c0.16322,-0.13014 0.35907,-0.10539 0.52953,-0.20111c0.14506,-0.03528 0.29013,-0.07052 0.43884,0.00189c0.02174,0.10329 0.02895,0.22813 0.08696,0.32256c0.20301,0.33054 0.26091,0.69643 0.37328,1.04905c0.11234,0.35259 0.31535,0.68314 0.34065,1.07501c0.15589,0.19727 0.16675,0.42984 0.23558,0.66639c0.00724,0.03442 0.01813,0.08605 0.04351,0.11607c0.12329,0.13286 0.12321,0.31376 0.17396,0.46429c0.01811,0.08607 0.03625,0.17211 0.06886,0.23654c0.17038,0.35661 0.32625,0.73478 0.40956,1.13065c0.01085,0.05164 0.0072,0.1249 0.05073,0.15048c0.12686,0.15004 0.145,0.32654 0.18122,0.49868c0.02172,0.19372 0.18491,0.33498 0.2102,0.54592c0.03983,0.2798 0.18484,0.5159 0.27907,0.78246c0.11597,0.36985 0.30083,0.70478 0.38413,1.10063c0.01448,0.06886 0.01446,0.15932 0.06162,0.20213c0.10149,0.12007 0.116,0.27931 0.16672,0.42981c0.02896,0.13769 0.07608,0.27095 0.1377,0.38265c0.11962,0.2061 0.203,0.42103 0.25374,0.66198c0.0942,0.35701 0.29723,0.68758 0.32252,1.07941c0.00724,0.03442 0.03621,0.08165 0.04347,0.11609c0.13049,0.34823 0.27911,0.69197 0.37326,1.049c0.0797,0.37863 0.30446,0.72202 0.34787,1.10948c0.01085,0.05164 0.058,0.09442 0.08701,0.14165c0.08336,0.21491 0.15221,0.45147 0.14489,0.68843c-0.08706,0.03925 -0.15956,0.05692 -0.22849,0.09173c-0.26476,0.0101 -0.4896,0.0286 -0.72898,0.06871z" fill="#b0eef2"/><path d="M258.54772,191.68001c-0.12321,-0.31373 -0.19567,-0.56755 -0.17746,-0.84335c0.11612,-0.17298 0.30469,-0.27312 0.48965,-0.39045c0.93579,-0.53512 1.87518,-1.053 2.87985,-1.44207c0.75805,-0.29288 1.53422,-0.59021 2.32848,-0.80144c0.2176,-0.05291 0.45699,-0.09304 0.66374,-0.19755c0.08706,-0.03925 0.19588,-0.0657 0.30464,-0.09216c0.44972,-0.03698 0.87767,-0.17724 1.31654,-0.26589c0.62018,-0.13274 1.25488,-0.19664 1.89677,-0.22606c0.32275,-0.00613 0.64193,-0.02945 0.9792,-0.05721c0.2611,-0.02728 0.50044,0.02304 0.73617,0.05618c0.19213,0.27896 0.23562,0.39498 0.2863,0.81686c-0.40253,0.07982 -0.80511,0.06915 -1.2149,0.11451c-0.39167,0.04097 -0.80148,0.08634 -1.18956,0.14452c-0.40617,0.06257 -0.82692,0.1468 -1.22946,0.2266c-0.38803,0.05816 -0.77249,0.22406 -1.17147,0.23061c-0.38086,0.18307 -0.79065,0.22843 -1.18599,0.34266c-0.3772,0.10981 -0.76888,0.24127 -1.14248,0.36829c-0.39172,0.13144 -0.77976,0.28008 -1.18602,0.43311c-0.36996,0.14423 -0.76165,0.27565 -1.12799,0.43714c-0.38444,0.16587 -0.74352,0.36171 -1.12439,0.5448c-0.39897,0.18749 -0.76529,0.34892 -1.13165,0.60083z" fill="#d1eaeb"/><path d="M264.2621,181.24454c0.06892,-0.03484 0.14146,-0.0525 0.22848,-0.09175c0.0073,-0.23698 -0.03978,-0.46069 -0.14488,-0.68843c-0.02898,-0.04722 -0.07613,-0.09005 -0.08701,-0.14166c-0.04342,-0.38744 -0.25008,-0.73527 -0.34788,-1.10947c-0.07607,-0.36143 -0.2428,-0.70081 -0.37325,-1.04902c-0.00724,-0.03442 -0.03624,-0.08166 -0.04348,-0.11606c-0.02527,-0.39189 -0.24279,-0.70081 -0.3225,-1.07945c-0.04712,-0.22373 -0.1341,-0.45586 -0.25374,-0.66196c-0.06522,-0.12883 -0.11236,-0.26213 -0.13771,-0.38263c-0.03261,-0.15489 -0.04345,-0.29699 -0.16673,-0.42984c-0.04712,-0.04279 -0.04709,-0.1333 -0.06158,-0.20214c-0.0797,-0.37863 -0.26822,-0.73079 -0.38416,-1.10063c-0.09421,-0.26656 -0.23926,-0.50266 -0.27905,-0.78245c-0.02172,-0.19372 -0.18489,-0.33496 -0.2102,-0.54592c-0.01808,-0.17652 -0.0398,-0.37024 -0.18118,-0.4987c-0.02898,-0.04722 -0.03987,-0.09885 -0.05075,-0.15047c-0.08329,-0.39584 -0.23551,-0.75684 -0.40956,-1.13065c-0.03623,-0.08165 -0.03624,-0.17209 -0.06882,-0.23652c-0.03261,-0.15489 -0.05073,-0.33142 -0.17398,-0.46426c-0.02537,-0.03002 -0.03625,-0.08163 -0.04348,-0.11606c-0.04712,-0.22373 -0.07968,-0.46911 -0.23557,-0.66641c-0.02529,-0.39187 -0.22831,-0.72244 -0.34066,-1.07502c-0.11234,-0.35259 -0.17389,-0.73563 -0.37326,-1.049c-0.05799,-0.09444 -0.0652,-0.21936 -0.08695,-0.3226c0.1596,-0.0569 0.2901,0.01991 0.42067,0.00623c0.24281,0.70079 0.49654,1.3628 0.73208,2.02917c0.26817,0.73082 0.51461,1.44884 0.7647,2.18404c0.23919,0.68362 0.49655,1.36278 0.75386,2.04197c0.31167,0.8469 0.63789,1.67216 0.94596,2.50182c0.22833,0.63198 0.45661,1.26395 0.70311,1.89149c0.35881,0.98015 0.6487,1.9952 1.04377,2.96652c0.0471,0.13326 0.1305,0.25772 0.10869,0.42584c-0.16321,0.03972 -0.33727,0.02774 -0.50776,0.03301c-0.09792,-0.01236 -0.25385,0.06174 -0.41708,0.01097z" fill="#87d7dc"/><path d="M258.86186,166.81794c-0.37357,0.12703 -0.7435,0.18081 -1.11343,0.32505c-0.42075,0.17468 -0.83782,0.36658 -1.2332,0.6617c-0.21012,-0.99824 -0.4166,-1.97924 -0.61947,-2.94306c0.15962,-0.23784 0.3809,-0.36398 0.5804,-0.50296c0.38449,-0.25632 0.79431,-0.39215 1.22229,-0.5324c0.01816,-0.00442 0.05801,0.00398 0.07979,0.01677c-0.14146,0.14293 -0.05808,0.26737 0.00717,0.39626c0.16314,0.32218 0.30812,0.64873 0.36242,0.99738c0.01448,0.06886 0.02898,0.13768 0.06162,0.2021c0.17765,0.30056 0.23195,0.64916 0.3552,0.96296c0.07608,0.18052 0.14137,0.30932 0.2973,0.41617z" fill="#61afb4"/><path d="M265.01591,183.46746c-0.65642,0.05108 -1.28748,0.22261 -1.93304,0.32533c-0.29375,0.05333 -0.57666,0.15834 -0.85959,0.26331c-0.5368,0.1667 -1.10616,0.26898 -1.62844,0.50456c-0.21036,0.08733 -0.42074,0.17465 -0.60935,0.27479c-0.11971,0.06528 -0.24299,0.11339 -0.36996,0.14426c-0.02901,-0.04718 -0.05438,-0.07724 -0.06162,-0.11169c-0.02895,-0.13768 -0.05797,-0.27535 -0.08696,-0.41303c0.07979,-0.07369 0.14512,-0.12572 0.22852,-0.18222c0.60933,-0.36526 1.23684,-0.73498 1.94411,-0.90696c0.61295,-0.16716 1.24396,-0.33869 1.87142,-0.437c0.4969,-0.08465 0.99013,-0.1865 1.49782,-0.12906c-0.08341,0.05649 -0.2031,0.0313 -0.25387,0.15221c0.00358,0.19813 -0.00373,0.43511 0.26099,0.51546z" fill="#61aeb3"/><path d="M264.33799,182.42017c-0.30104,0.10938 -0.61289,0.07665 -0.9248,0.13443c-0.65647,0.14156 -1.31293,0.28306 -1.95849,0.47625c-0.51863,0.16229 -1.00468,0.38907 -1.46532,0.6458c-0.11971,0.06528 -0.23936,0.13058 -0.35906,0.19587c-0.05072,-0.24096 -0.09424,-0.44749 -0.14129,-0.67123c0.17414,-0.25945 0.42807,-0.41163 0.70732,-0.53385c0.33004,-0.15266 0.67824,-0.30963 1.0373,-0.41505c0.80155,-0.26724 1.60671,-0.42688 2.42637,-0.60812c0.14505,-0.03528 0.29016,-0.07056 0.4352,-0.01537c0.01811,0.08607 0.01812,0.17652 0.06887,0.23654c0.10877,0.15448 0.13412,0.36543 0.17395,0.5547z" fill="#61aeb3"/><path d="M258.86187,166.81794c-0.13418,-0.09404 -0.21752,-0.21849 -0.27189,-0.38618c-0.12321,-0.31375 -0.17753,-0.66242 -0.35519,-0.96295c-0.03263,-0.06444 -0.04714,-0.13329 -0.06163,-0.20215c-0.0761,-0.36143 -0.21742,-0.67078 -0.36241,-0.99735c-0.06162,-0.11167 -0.14865,-0.25332 -0.00717,-0.39628c0.26839,-0.08335 0.52951,-0.11069 0.78336,-0.08196c0.10515,0.22773 0.22836,0.45105 0.24282,0.70081c0.00724,0.03442 0.03624,0.08166 0.04348,0.11608c0.12685,0.33097 0.25733,0.6792 0.36607,1.01458c0.05074,0.15049 0.0797,0.28817 0.14858,0.43428c0.09422,0.17609 0.15585,0.37822 0.10503,0.58959c-0.08705,0.03925 -0.15957,0.05691 -0.22849,0.09173c-0.12693,0.03084 -0.27565,0.04894 -0.40255,0.0798z" fill="#87d7dc"/><path d="M266.30495,191.94657c-0.26834,-0.18803 -0.41695,-0.44132 -0.54747,-0.69911c-0.03263,-0.06443 -0.05435,-0.16771 -0.05072,-0.24096c0.04001,-0.53438 0.00752,-1.05117 -0.04313,-1.56349c-0.00362,-0.01721 0.00726,-0.05603 0.02177,-0.07768c0.06169,-0.06927 0.15233,-0.09135 0.25387,-0.06176c0.00724,0.03442 0.03266,0.06444 0.03988,0.09886c0.06876,0.41745 0.19199,0.82172 0.40226,1.18669c0.09787,0.19331 0.13772,0.38266 0.09052,0.61121c-0.06173,0.25019 -0.06901,0.48715 -0.16701,0.74621z" fill="#cce5e6"/><path d="M266.84597,189.08319c0.09793,-0.0781 0.17408,-0.07851 0.23935,-0.04011c0.21013,0.81731 0.21016,0.81729 0.65243,1.46959c0.02531,0.30142 -0.04004,0.62483 -0.07278,0.92225c-0.11971,0.06528 -0.15955,-0.03357 -0.20668,-0.07637c-0.16678,-0.15844 -0.32995,-0.2997 -0.46407,-0.4842c-0.0834,-0.12449 -0.12686,-0.24057 -0.11958,-0.38701c0.01824,-0.45677 0.01472,-0.92624 -0.02866,-1.40417z" fill="#cce5e6"/><path d="M259.28256,166.73373c0.06893,-0.03484 0.14149,-0.0525 0.2285,-0.09174c0.05083,-0.21137 -0.01078,-0.41346 -0.10505,-0.58959c-0.06889,-0.14608 -0.09787,-0.28377 -0.14857,-0.43428c-0.10872,-0.3354 -0.23919,-0.6836 -0.36605,-1.01459c-0.00724,-0.03442 -0.03626,-0.08166 -0.04348,-0.11608c-0.03621,-0.26257 -0.15581,-0.46866 -0.24278,-0.70079c0.15231,-0.00087 0.28652,0.00271 0.45333,0.0707c0.15583,0.46867 0.3516,0.94578 0.49291,1.43605c0.15583,0.46867 0.38418,0.91971 0.49287,1.43604c-0.29376,0.05332 -0.52585,0.03742 -0.76158,0.00431z" fill="#60adb2"/><path d="M262.02643,188.46409c-0.06891,0.03485 -0.11973,0.06528 -0.18862,0.10014c-0.04352,-0.0256 -0.06524,-0.03842 -0.08699,-0.0512c-0.13412,-0.27494 -0.31903,-0.51945 -0.52203,-0.75953c-0.07976,-0.10725 -0.11964,-0.20613 -0.09059,-0.3398c0.03996,-0.26299 0.04,-0.53439 0.2323,-0.79825c0.26468,0.17084 0.44959,0.41532 0.61636,0.66426c0.02901,0.04718 0.02895,0.1377 0.02533,0.21092c0.01083,0.32299 0.02161,0.64611 0.01427,0.97354z" fill="#cce5e6"/><path d="M262.68903,192.88016c-0.10876,-0.15445 -0.18488,-0.24454 -0.26465,-0.35177c-0.13776,-0.20171 -0.19936,-0.40381 -0.14129,-0.67123c0.07629,-0.45272 0.09447,-0.90949 0.00393,-1.33975c-0.02895,-0.13769 -0.01445,-0.15929 0.20677,-0.19504c0.01086,0.05164 0.03988,0.09885 0.05074,0.15052c0.07242,0.43468 0.21376,0.83448 0.40951,1.2211c0.03986,0.09887 0.07612,0.1805 0.05799,0.27538c-0.09071,0.29346 -0.14523,0.57806 -0.32303,0.91075z" fill="#cae2e3"/><path d="M264.70255,189.58629c0.02174,0.0128 0.04719,0.04285 0.05077,0.06004c0.04706,0.40463 0.19927,0.76565 0.36601,1.10508c0.14499,0.32654 0.21381,0.65358 0.10127,1.02467c-0.05808,0.17694 -0.03633,0.37066 -0.13433,0.53922c-0.36623,-0.29085 -0.52568,-0.68631 -0.47844,-1.0958c0.04726,-0.49999 0.11628,-0.98712 -0.0069,-1.48185c0.00725,-0.05604 -0.00721,-0.12488 0.10157,-0.15136z" fill="#c9e1e2"/><path d="M263.95475,192.55429c-0.2393,-0.23128 -0.36255,-0.45457 -0.48942,-0.6951c-0.03623,-0.08165 -0.05433,-0.16771 -0.03258,-0.24537c0.06179,-0.5216 0.08366,-1.05158 0.06929,-1.57273c-0.00724,-0.03442 0.00001,-0.09044 0.09431,-0.09529c0.02535,0.12046 0.05434,0.25814 0.09781,0.37423c0.09056,0.3398 0.1993,0.67521 0.37696,0.97574c0.12328,0.22331 0.1522,0.45146 0.06873,0.68885c-0.05808,0.17694 -0.11972,0.33669 -0.18508,0.56968z" fill="#c9e1e2"/><path d="M260.92022,188.91399c-0.09072,0.11251 -0.18139,0.13457 -0.27203,0.15661c-0.02173,-0.01279 -0.04717,-0.04281 -0.06887,-0.05562c-0.09422,-0.26656 -0.25739,-0.49827 -0.46768,-0.68229c-0.11963,-0.11563 -0.16675,-0.24893 -0.14495,-0.41706c0.03267,-0.20694 0.04358,-0.4267 0.11617,-0.62531c0.23206,0.1064 0.52581,0.32444 0.59105,0.45333c0.05439,0.07721 0.03262,0.15491 0.03255,0.24537c0.07969,0.28817 0.07241,0.61563 0.21371,0.92495z" fill="#cae3e4"/><path d="M266.8829,186.26997c-0.12336,0.31946 -0.19238,0.62571 -0.2396,0.94476c-0.10153,0.06086 -0.17413,0.07854 -0.27564,0.04896c-0.15587,-0.28772 -0.19563,-0.65799 -0.36965,-0.94133c0.05085,-0.21136 0.17416,-0.3499 0.27209,-0.51847c0.05802,-0.08645 0.09431,-0.18573 0.21764,-0.23383c0.19216,0.18848 0.23196,0.46825 0.39513,0.69995z" fill="#c8e0e1"/><path d="M264.15171,187.78441c-0.16682,0.02248 -0.19945,-0.04196 -0.23208,-0.10638c-0.12689,-0.24055 -0.2501,-0.46382 -0.35886,-0.70876c-0.03263,-0.06444 -0.04712,-0.13329 -0.02536,-0.21095c0.08711,-0.22016 0.19234,-0.44476 0.31928,-0.65658c0.11237,0.08122 0.15228,0.1801 0.22841,0.27012c0.22838,0.2701 0.30814,0.55826 0.13038,0.89097c-0.07985,0.16416 -0.07988,0.34508 -0.06176,0.52159z" fill="#cbe4e5"/><path d="M265.29417,187.5066c-0.09065,0.02207 -0.14506,0.0353 -0.19946,0.04854c-0.02537,-0.03002 -0.06526,-0.03843 -0.06888,-0.05562c-0.07608,-0.18052 -0.13412,-0.36543 -0.21022,-0.54591c-0.03986,-0.09888 -0.03983,-0.18933 -0.00353,-0.28861c0.10884,-0.29784 0.2395,-0.58291 0.42453,-0.8812c0.15955,0.12401 0.21027,0.2745 0.261,0.42499c0.01446,0.06884 0.02897,0.13771 0.0036,0.19812c-0.17779,0.33271 -0.21415,0.70339 -0.20701,1.09968z" fill="#c8e0e1"/><path d="M264.338,182.42018c-0.03982,-0.18932 -0.06519,-0.40029 -0.19573,-0.56755c-0.05075,-0.06002 -0.0507,-0.15047 -0.06884,-0.23653c0.30464,-0.09218 0.60565,-0.11108 0.90304,-0.05675c0.01443,0.24978 0.13768,0.47305 0.21742,0.67076c-0.10882,0.11692 -0.24663,0.09616 -0.34815,0.15704c-0.1596,0.0569 -0.34457,0.08377 -0.50774,0.03302z" fill="#85d5d9"/><path d="M261.13335,192.37194c0.03633,-0.28023 0.07264,-0.56043 0.08725,-0.85343c0.0037,-0.25419 -0.19934,-0.49429 0.01836,-0.81857c0.12316,0.58515 0.35877,1.07065 0.59437,1.55609c-0.05085,0.21136 -0.11614,0.44436 -0.26492,0.64335c-0.04352,-0.0256 -0.06526,-0.03842 -0.087,-0.05118c-0.12688,-0.15003 -0.23567,-0.30453 -0.34803,-0.47618z" fill="#c6dede"/><path d="M266.64577,192.29792c0.06535,-0.32348 0.1198,-0.60805 0.18517,-0.93153c0.16679,0.06799 0.2502,0.19244 0.36259,0.27365c0.11605,0.09839 0.2647,0.17085 0.3517,0.3125c0.02535,0.12046 -0.02543,0.24138 -0.05808,0.35786c-0.03264,0.11649 -0.08349,0.23739 -0.1524,0.36273c-0.27561,-0.04154 -0.46414,-0.21281 -0.68897,-0.37525z" fill="#cae3e3"/><path d="M267.99931,188.76655c0.23564,0.48546 0.45314,0.88487 0.77582,1.24056c-0.02546,0.24141 -0.03277,0.47834 -0.05459,0.73695c-0.26473,-0.08035 -0.39889,-0.26483 -0.56563,-0.42327c-0.02537,-0.03002 -0.03625,-0.08168 -0.04347,-0.11608c-0.03615,-0.44349 -0.07233,-0.88701 -0.11209,-1.43815z" fill="#cae3e4"/><path d="M262.6579,186.3928c0.2393,0.23127 0.43873,0.45415 0.34795,0.83805c-0.05809,0.26742 -0.02189,0.53001 0.01432,0.79257c0.02174,0.10329 -0.06529,0.14252 -0.18137,0.13457c-0.02171,-0.28418 -0.1667,-0.52032 -0.31172,-0.75643c-0.11238,-0.17167 -0.10873,-0.3354 -0.05066,-0.51235c0.04356,-0.15531 0.04726,-0.31904 0.18149,-0.49643z" fill="#c8e0e1"/><path d="M265.01591,183.46747c-0.26835,-0.09757 -0.25737,-0.31732 -0.28273,-0.52826c0.05078,-0.12087 0.16682,-0.11294 0.25385,-0.1522c0.23935,-0.0401 0.47147,-0.02415 0.71084,0.02618c0.02172,0.19372 0.13408,0.36541 0.07966,0.55956c-0.08706,0.03925 -0.14148,0.05249 -0.21398,0.07013c-0.18861,0.00968 -0.37715,0.01939 -0.54761,0.02464z" fill="#85d4d9"/><path d="M264.53282,186.33489c-0.16313,-0.2317 -0.28277,-0.4378 -0.42054,-0.6395c0.12337,-0.22901 0.26845,-0.44522 0.43899,-0.6314c0.1342,0.00354 0.19218,0.098 0.26107,0.1536c0.06889,0.05561 0.13776,0.11122 0.14498,0.23611c-0.10164,0.2418 -0.25036,0.53125 -0.42452,0.88119z" fill="#c7dfe0"/><path d="M261.50833,186.18385c0.09073,-0.203 0.16331,-0.40151 0.31203,-0.60055c0.25023,0.10196 0.38434,0.28643 0.55838,0.47931c-0.08346,0.23739 -0.16691,0.4748 -0.24678,0.72942c-0.23205,-0.19685 -0.40611,-0.38977 -0.62363,-0.60822z" fill="#c8e0e1"/><path d="M265.89124,193.06036c-0.17407,-0.10245 -0.34808,-0.20484 -0.47861,-0.3721c0.05809,-0.26742 0.13431,-0.53924 0.20692,-0.82824c0.03624,-0.0088 0.07253,-0.01763 0.07614,-0.0004c0.14141,0.12844 0.28641,0.27408 0.4097,0.40694c0.05077,0.06004 0.08342,0.12445 0.05801,0.1849c-0.06535,0.23298 -0.07628,0.45274 -0.27216,0.60897z" fill="#c4dcdd"/><path d="M263.00442,193.20148c0.09799,-0.25901 0.17783,-0.51362 0.27583,-0.77267c0.15592,0.01638 0.18489,0.15404 0.26104,0.24408c0.07612,0.09003 0.13777,0.2017 0.21753,0.30893c-0.04721,0.22857 -0.19961,0.41032 -0.30845,0.61777c-0.2248,-0.07196 -0.33358,-0.22645 -0.44594,-0.39813z" fill="#c8e0e1"/><path d="M261.01878,186.39334c-0.07626,0.27182 -0.13796,0.52205 -0.21056,0.81106c-0.21033,-0.09357 -0.34082,-0.26088 -0.53303,-0.35888c0.02186,-0.25859 0.17057,-0.45761 0.27219,-0.69937c0.20307,0.05916 0.36625,0.10995 0.47137,0.24721z" fill="#c6ddde"/><path d="M259.85388,189.46276c-0.24293,-0.2485 -0.40246,-0.55342 -0.6925,-0.75427c0.01092,-0.21976 0.00736,-0.41793 0.09445,-0.63809c0.24295,0.06756 0.40253,0.1916 0.42058,0.45855c0.01081,0.323 0.11229,0.62401 0.17749,0.93382z" fill="#b9cfd0"/><path d="M269.06551,188.76058c0.11966,0.02518 0.08344,0.12446 0.11602,0.18888c0.06886,0.14609 0.11961,0.29653 0.25017,0.37338c0.18492,0.15405 0.20665,0.34774 0.21383,0.56312c-0.00004,0.09048 -0.01816,0.18534 -0.02909,0.31464c-0.27561,-0.13197 -0.49317,-0.26003 -0.48946,-0.60464c0.00729,-0.23698 -0.06153,-0.47353 -0.09048,-0.70167c-0.01083,-0.05164 -0.02173,-0.10327 0.02903,-0.13371z" fill="#c0d8d8"/><path d="M267.63005,185.65411c0.12329,0.13286 0.18852,0.26172 0.2175,0.39938c0.01446,0.06884 0.03265,0.15491 0.00722,0.21535c-0.11613,0.26344 -0.1742,0.53084 -0.23231,0.79826c-0.12693,0.03084 -0.12329,-0.04238 -0.13418,-0.09404c-0.03622,-0.17212 -0.07609,-0.36144 -0.14857,-0.52473c-0.08336,-0.21492 -0.06155,-0.38305 0.09442,-0.54765c0.0798,-0.07369 0.12333,-0.13854 0.19586,-0.24662z" fill="#c1d9d9"/><path d="M262.85388,185.9652c0.06894,-0.21574 0.18508,-0.38875 0.29391,-0.59612c0.2212,0.05475 0.31541,0.23084 0.45686,0.35929c-0.07983,0.25462 -0.24668,0.45801 -0.38821,0.69143c-0.16316,-0.14126 -0.2538,-0.30015 -0.36259,-0.4546z" fill="#c3dbdc"/><path d="M264.49164,192.20661c0.15955,0.21449 0.29729,0.41624 0.45319,0.6135c-0.03991,0.17255 -0.0835,0.32785 -0.22495,0.47082c-0.1922,-0.09803 -0.31908,-0.24805 -0.46416,-0.3937c0.02547,-0.24138 0.0944,-0.45713 0.23588,-0.69056z" fill="#c3dadb"/><path d="M264.30116,184.78105c-0.14876,0.19901 -0.28297,0.37636 -0.41718,0.55373c-0.20669,-0.07638 -0.3336,-0.22644 -0.46048,-0.37649c0.09432,-0.18577 0.21403,-0.34153 0.37364,-0.48883c0.06165,0.0212 0.14505,0.05521 0.18854,0.08078c0.11239,0.08121 0.1849,0.15403 0.31547,0.23086z" fill="#c4dbdc"/><path d="M268.50377,186.99753c-0.06883,-0.32704 -0.12316,-0.58522 -0.18115,-0.86054c0.06532,-0.14254 0.15605,-0.25505 0.30835,-0.34632c0.12689,0.0596 0.11599,0.1889 0.17397,0.28335c0.058,0.09442 0.09787,0.19331 0.11601,0.27936c-0.14513,0.21626 -0.26122,0.38919 -0.41722,0.64422z" fill="#c2d9da"/><path d="M267.16778,193.0575c-0.04356,0.15531 -0.11245,0.28065 -0.20681,0.37595c-0.14145,0.05248 -0.23574,-0.03319 -0.33724,-0.06273c-0.10151,-0.02954 -0.21395,-0.02033 -0.2937,-0.12756c0.00003,-0.18094 0.09438,-0.36669 0.18144,-0.58692c0.10882,0.06401 0.21761,0.12801 0.32273,0.17483c0.11237,0.08122 0.2248,0.16241 0.33361,0.22644z" fill="#c5ddde"/><path d="M262.04892,185.22016c0.05445,-0.19419 0.18865,-0.28109 0.27572,-0.4108c0.21757,0.03757 0.37714,0.16159 0.55846,0.2984c-0.09794,0.16856 -0.19592,0.33711 -0.27577,0.50128c-0.24293,-0.06757 -0.37713,-0.25206 -0.5584,-0.38888z" fill="#c3dbdc"/><path d="M268.13659,190.86796c0.08343,0.03398 0.12691,0.05955 0.17043,0.08513c0.09064,0.06842 0.18492,0.15405 0.29732,0.23527c-0.07626,0.27182 -0.09805,0.53041 -0.25768,0.76824c-0.1342,-0.00354 -0.20671,-0.07636 -0.3046,-0.17921c0.01819,-0.2758 0.04731,-0.59043 0.09449,-0.90949z" fill="#c7dfe0"/><path d="M265.46516,185.3302c0.15235,-0.18177 0.22495,-0.38031 0.40631,-0.51488c0.18495,0.0636 0.24292,0.24846 0.39159,0.32086c-0.11614,0.26344 -0.26846,0.44523 -0.41359,0.66144c-0.21396,-0.11082 -0.25379,-0.30013 -0.38434,-0.4674z" fill="#c7dee0"/><path d="M264.84927,182.40442c0.10154,-0.06087 0.23935,-0.04009 0.34816,-0.15705c-0.08336,-0.21492 -0.18845,-0.44264 -0.21744,-0.67078c0.07618,-0.00043 0.17047,-0.00526 0.25023,0.01149c0.11966,0.02518 0.21028,0.0936 0.23568,0.21409c0.06161,0.2021 0.11961,0.38699 0.18118,0.58916c-0.23575,0.05733 -0.34818,0.06657 -0.79785,0.01309z" fill="#61acb1"/><path d="M261.78592,193.29879c0.09073,-0.203 0.17053,-0.36709 0.27939,-0.57451c0.15589,0.19727 0.30816,0.37733 0.44594,0.57902c-0.06166,0.15973 -0.12703,0.30226 -0.23221,0.43641c-0.21395,-0.11081 -0.34083,-0.26085 -0.4931,-0.44092z" fill="#c2dada"/><path d="M267.45972,185.29749c-0.09073,0.203 -0.21405,0.34153 -0.34831,0.5189c-0.12327,-0.22331 -0.23926,-0.41222 -0.35527,-0.60112c0.03991,-0.17254 0.156,-0.25504 0.28296,-0.37636c0.18856,0.08078 0.28284,0.2569 0.4206,0.45856z" fill="#c1d9d9"/><path d="M264.03442,193.29476c0.19943,0.13244 0.33719,0.24365 0.49313,0.35051c-0.01816,0.18533 -0.1379,0.34109 -0.25763,0.49685c-0.18129,-0.04639 -0.34811,-0.11437 -0.49315,-0.26002c0.01092,-0.21975 0.17419,-0.34993 0.25763,-0.58734z" fill="#c6dedf"/><path d="M260.75415,185.77022c0.09433,-0.18576 0.21044,-0.35873 0.30837,-0.52728c0.16682,-0.02248 0.29011,0.0199 0.42431,0.11393c-0.02547,0.24138 -0.1996,0.41032 -0.28667,0.63054c-0.17772,-0.02913 -0.2937,-0.12757 -0.44601,-0.21719z" fill="#c0d7d7"/><path d="M269.03592,190.97496c0.03268,-0.20695 0.00737,-0.4179 0.13432,-0.62972c0.13418,0.09404 0.26472,0.17087 0.39524,0.24764c0.04344,0.20652 -0.01099,0.40067 -0.12708,0.57362c-0.15592,-0.01638 -0.26468,-0.08036 -0.40249,-0.19155z" fill="#c3dadb"/><path d="M265.54542,183.44726c0.07255,-0.01764 0.14146,-0.05252 0.21401,-0.07017c0.05444,-0.19419 -0.0579,-0.36583 -0.07966,-0.55956c0.12331,-0.04806 0.2176,0.03757 0.34815,0.02389c0.11963,0.2061 0.10872,0.42586 0.28274,0.61872c-0.17771,0.06128 -0.29736,0.03614 -0.43522,0.01538c-0.09792,-0.01235 -0.21762,0.05289 -0.33,-0.02831z" fill="#5aa0a4"/><path d="M258.44331,188.37657c0.03268,-0.20692 0.00735,-0.41794 0.11983,-0.60809c0.1342,0.00354 0.22124,0.0548 0.35176,0.13155c0.00357,0.19816 -0.02911,0.40511 -0.10529,0.58648c-0.1342,-0.00355 -0.2176,-0.03757 -0.36625,-0.10996z" fill="#bdd3d4"/><path d="M263.40911,184.3467c-0.10522,0.13414 -0.19229,0.26384 -0.27933,0.39356c-0.18132,-0.04639 -0.3155,-0.1404 -0.45328,-0.25161c0.02544,-0.15089 0.14512,-0.21625 0.27205,-0.24709c0.1632,-0.03972 0.32638,-0.0794 0.46057,0.10511z" fill="#bdd4d5"/><path d="M260.27744,192.562c0.04721,-0.22857 0.09803,-0.43997 0.14521,-0.66851c0.2574,0.31731 0.41687,0.62229 0.11579,1.00306c-0.12689,-0.0596 -0.174,-0.19288 -0.261,-0.33452z" fill="#bbd2d3"/><path d="M265.17886,184.33242c0.15955,0.03359 0.25384,0.11921 0.34809,0.20486c0.02535,0.12046 -0.05808,0.17696 -0.11614,0.26343c-0.04353,0.06485 -0.08344,0.1469 -0.18863,0.19057c-0.15955,-0.03359 -0.1958,-0.20565 -0.35897,-0.25642c0.07619,-0.18137 0.18499,-0.2983 0.31557,-0.40242z" fill="#c3dadb"/><path d="M264.3,189.75656c0.02889,0.31861 0.05787,0.63723 0.01426,0.97349c-0.11241,0.00923 -0.14871,-0.0724 -0.16677,-0.15846c-0.06521,-0.21934 -0.11232,-0.44302 -0.15579,-0.64957c-0.03261,-0.15489 0.06896,-0.2158 0.30829,-0.16543z" fill="#b1c6c7"/><path d="M259.71326,185.98715c-0.00726,0.14649 -0.10522,0.2246 -0.15963,0.32829c-0.09072,0.203 -0.2503,0.25988 -0.48606,0.22673c0.0581,-0.26742 0.24312,-0.47522 0.39545,-0.65701c0.13056,-0.01367 0.19224,0.00753 0.25022,0.10198z" fill="#bbd2d3"/><path d="M261.90626,190.51959c0.14137,0.30937 0.07601,0.6328 0.03242,0.96908c-0.15954,-0.2145 -0.21382,-0.47267 -0.2827,-0.70919c-0.05074,-0.15049 -0.00359,-0.19816 0.25029,-0.25986z" fill="#bad1d2"/><path d="M258.83835,189.43831c-0.15591,-0.10682 -0.30457,-0.17923 -0.46049,-0.28603c0.00003,-0.09047 0.02906,-0.22418 0.03998,-0.35346c0.34454,0.00667 0.34815,0.02389 0.37712,0.25206c0.02533,0.12047 0.03257,0.24538 0.04341,0.38745z" fill="#b5cbcc"/><path d="M265.12929,194.42158c-0.19219,-0.00755 -0.31914,-0.06712 -0.44603,-0.12672c0.02179,-0.16813 0.1524,-0.27224 0.25758,-0.40637c0.14506,0.05515 0.27192,0.11479 0.41699,0.16996c0.01447,0.1593 -0.14146,0.23344 -0.22856,0.36317z" fill="#c0d7d8"/><path d="M259.65843,187.80964c-0.11603,-0.00799 -0.20671,-0.07636 -0.301,-0.16199c0.00733,-0.23696 0.09439,-0.45717 0.225,-0.65174c0.12331,-0.04806 0.17045,-0.00526 0.22479,0.07196c-0.04353,0.24578 -0.08713,0.49158 -0.14887,0.74177z" fill="#bdd4d4"/><path d="M261.62985,193.64427c0.14141,0.12844 0.26829,0.27848 0.40971,0.40693c-0.05444,0.10368 -0.13785,0.16017 -0.24665,0.18664c-0.11603,-0.00799 -0.17043,-0.08516 -0.24292,-0.15799c-0.05077,-0.06004 -0.10152,-0.12004 -0.15228,-0.18008c0.03266,-0.11652 0.09071,-0.203 0.23218,-0.25549z" fill="#b6cccc"/><path d="M265.27469,193.1198c0.15591,0.10683 0.29007,0.20083 0.46415,0.30326c0.00362,0.10766 -0.02904,0.22419 -0.18141,0.31552c-0.14507,-0.05515 -0.29371,-0.12757 -0.46051,-0.19556c0.04356,-0.15531 0.07259,-0.28904 0.17781,-0.42317z" fill="#c1d9d9"/><path d="M260.7923,193.28712c0.04356,-0.15531 0.09434,-0.27625 0.20318,-0.39315c0.15591,0.10682 0.22839,0.27014 0.31178,0.39458c-0.00726,0.14649 -0.10884,0.20738 -0.18863,0.28106c-0.05802,-0.00399 -0.09428,0.00482 -0.09792,-0.01235c-0.0761,-0.09005 -0.15227,-0.18007 -0.22841,-0.27014z" fill="#b7cdce"/><path d="M259.51954,192.04072c0.18492,0.15407 0.21753,0.30894 0.28641,0.45502c0.09065,0.15888 -0.00368,0.25419 -0.11247,0.3711c-0.15591,-0.10682 -0.22478,-0.2529 -0.3263,-0.37296c0.00005,-0.18092 0.17052,-0.27668 0.15241,-0.45318z" fill="#b6cccc"/><path d="M258.65397,187.38453c0.06168,-0.15974 0.11247,-0.28062 0.15966,-0.41875c0.1596,-0.0569 0.26839,-0.08335 0.41342,-0.02817c-0.0762,0.18136 -0.13425,0.35831 -0.19593,0.51804c-0.15231,0.09134 -0.24659,0.00567 -0.35902,0.01495c-0.00724,-0.03442 -0.03264,-0.06444 -0.01814,-0.08606z" fill="#c2dada"/><path d="M266.00707,193.88249c0.02905,-0.13369 0.07256,-0.19856 0.156,-0.25505c0.10519,-0.04366 0.19219,0.00754 0.29375,0.03711c0.08343,0.03399 0.21396,0.02033 0.25746,0.13641c-0.06895,0.12529 -0.15961,0.23781 -0.3156,0.31194c-0.1487,-0.0724 -0.26108,-0.15363 -0.39164,-0.23043z" fill="#bbd2d3"/><path d="M266.80351,184.53439c-0.10881,0.11691 -0.18501,0.20782 -0.27931,0.30312c-0.15231,-0.0896 -0.25381,-0.20966 -0.37347,-0.32533c0.05078,-0.12088 0.12698,-0.21183 0.25393,-0.24263c0.03991,0.00838 0.07976,0.0168 0.10518,0.0468c0.087,0.05118 0.17768,0.11966 0.2937,0.21806z" fill="#bbd2d3"/><path d="M258.35244,189.5746c0.25748,0.1364 0.25749,0.1364 0.40969,0.40692c-0.06169,0.15974 -0.20315,0.21221 -0.35547,0.30351c-0.10514,-0.22774 -0.06155,-0.47351 -0.05423,-0.71048z" fill="#adc2c3"/><path d="M264.81984,184.16643c-0.05078,0.12088 -0.14515,0.21623 -0.26843,0.26427c-0.15231,-0.0896 -0.28284,-0.16636 -0.41697,-0.26042c0.27205,-0.24709 0.29017,-0.25151 0.68543,-0.00388z" fill="#b5cbcc"/><path d="M262.58356,194.00937c0.0653,-0.14255 0.11977,-0.24623 0.22858,-0.36314c0.16315,0.05077 0.25017,0.19247 0.38798,0.30369c-0.02541,0.06044 -0.05443,0.10365 -0.08343,0.14692c-0.02902,0.04325 -0.07979,0.07368 -0.12696,0.12134c-0.17407,-0.01194 -0.28645,-0.09315 -0.40615,-0.20881z" fill="#bbd1d2"/><path d="M268.06181,185.07871c0.2067,0.07638 0.26831,0.27849 0.38797,0.39411c-0.0472,0.13809 -0.17051,0.18623 -0.26485,0.28154c-0.16679,-0.15843 -0.23927,-0.32176 -0.22471,-0.52428c-0.01085,-0.05164 0.05441,-0.10369 0.10157,-0.15135z" fill="#b6cccd"/><path d="M268.69119,192.14428c0.07983,-0.25462 0.18146,-0.49641 0.26492,-0.7338c0.13057,-0.01365 0.21394,0.02032 0.31184,0.12315c-0.14146,0.23343 -0.28297,0.46682 -0.48972,0.66184c-0.04353,-0.02562 -0.06526,-0.03841 -0.08701,-0.05119z" fill="#acc1c2"/><path d="M263.08483,190.95663c-0.10151,-0.2105 -0.18487,-0.42544 -0.19567,-0.65798c0.00004,-0.09048 0.03991,-0.17254 0.13059,-0.19459c0.03623,-0.0088 0.11604,0.008 0.11968,0.02519c0.07247,0.25374 -0.00014,0.54277 -0.05458,0.82739z" fill="#a7bbbb"/><path d="M263.30884,194.46625c0.01453,-0.1121 0.09431,-0.18576 0.19225,-0.26385c0.1487,0.0724 0.29735,0.14481 0.44602,0.2172c-0.04356,0.15531 -0.14874,0.19899 -0.27566,0.22984c-0.11966,-0.02518 -0.25022,-0.10196 -0.36262,-0.18321z" fill="#b7cdcd"/><path d="M262.00557,184.56134c-0.05444,0.19419 -0.16328,0.31106 -0.29023,0.43243c-0.15592,-0.01638 -0.27924,-0.05875 -0.38437,-0.19601c0.19586,-0.15617 0.41712,-0.19188 0.67459,-0.23643z" fill="#b7cece"/><path d="M269.40331,186.38076c0.17041,0.17566 0.14496,0.41704 0.27188,0.56708c-0.05078,0.12087 -0.12697,0.12132 -0.17412,0.0785c-0.11965,-0.11562 -0.22481,-0.25291 -0.26099,-0.425c0.00726,-0.05606 0.00368,-0.07325 0.16325,-0.22063z" fill="#b4cacb"/><path d="M267.94051,192.20015c0.11964,0.02515 0.18493,0.06357 0.23933,0.14079c-0.09072,0.203 -0.17783,0.42316 -0.40271,0.62259c-0.07969,-0.28817 0.04729,-0.49996 0.16338,-0.76339z" fill="#b2c8c9"/><path d="M265.86793,184.25531c-0.14506,-0.05515 -0.25022,-0.10197 -0.30821,-0.19642c0.00365,-0.07326 0.05442,-0.10372 0.10522,-0.13416c0.2031,-0.12174 0.31915,-0.02331 0.44603,0.12672c-0.08341,0.05649 -0.16323,0.13018 -0.24302,0.20385z" fill="#b5cbcb"/><path d="M260.72748,190.98711c0.06523,0.21934 0.10508,0.40862 0.09414,0.62836c-0.08706,0.03924 -0.13419,-0.00356 -0.14507,-0.05516c-0.04348,-0.11609 -0.10513,-0.22775 -0.14861,-0.34379c-0.02895,-0.13769 0.03632,-0.18972 0.19952,-0.22939z" fill="#91a3a3"/><path d="M267.69085,189.65564c-0.17041,-0.17566 -0.19937,-0.40382 -0.24282,-0.61033c-0.00724,-0.03442 0.02177,-0.07768 0.05442,-0.10369c0.03624,-0.0088 0.09792,0.01235 0.10156,0.02958c0.10514,0.22774 0.11594,0.46029 0.08686,0.68447z" fill="#99abac"/><path d="M268.43806,188.85883c0.11245,-0.09972 0.20312,-0.12174 0.2575,-0.04451c0.06162,0.11167 0.06158,0.29256 0.03613,0.53395c-0.1632,-0.14124 -0.20302,-0.33054 -0.29362,-0.48941z" fill="#93a5a6"/><path d="M260.29005,185.19561c-0.10525,0.22459 -0.1887,0.46199 -0.54409,0.40368c0.10165,-0.24179 0.33735,-0.29912 0.54409,-0.40368z" fill="#9aadad"/><path d="M261.20327,188.26623c0.08339,0.12447 0.17039,0.26611 0.25015,0.37339c-0.0363,0.09928 -0.08707,0.12974 -0.19951,0.13896c-0.12331,-0.13287 -0.08699,-0.32261 -0.13773,-0.47309c0.03624,-0.0088 0.05441,-0.01321 0.08706,-0.03926z" fill="#c5dddd"/><path d="M265.37333,190.14686c-0.21029,-0.18406 -0.25737,-0.40783 -0.23195,-0.64918c-0.00362,-0.01721 0.02903,-0.04326 0.06529,-0.05208c0.05078,-0.03044 0.09791,0.01234 0.10515,0.04679c0.05802,0.18489 0.04705,0.40468 0.0615,0.65447z" fill="#aec2c3"/><path d="M267.71007,184.94715c-0.15591,-0.10682 -0.24655,-0.26569 -0.33355,-0.40739c0.03627,-0.09929 0.11247,-0.09971 0.16322,-0.0397c0.09791,0.10285 0.19216,0.18848 0.27552,0.31294c0.04353,0.02562 -0.00001,0.09044 -0.1052,0.13413z" fill="#9caeaf"/><path d="M264.34595,194.59398c0.17409,0.01194 0.29734,0.05432 0.44603,0.12673c-0.22125,0.12617 -0.43158,0.12305 -0.64919,0.17596c0.00726,-0.05607 0.00004,-0.09048 0.01457,-0.11207c0.06169,-0.06927 0.12693,-0.12132 0.1886,-0.19061z" fill="#a9bebf"/><path d="M265.94703,187.34789c-0.11971,0.06528 -0.19583,0.06571 -0.27928,0.03169c-0.05433,-0.16771 -0.03253,-0.3358 0.11257,-0.55204c0.07975,0.19773 0.11232,0.35262 0.1667,0.52031z" fill="#b9cfd0"/><path d="M260.34358,189.16279c-0.03629,0.09926 -0.10522,0.13412 -0.17412,0.16898c-0.09791,-0.01238 -0.11603,-0.09839 -0.14856,-0.52472c0.23935,0.05036 0.2248,0.25291 0.32268,0.35575z" fill="#869797"/><path d="M266.45415,189.84785c-0.00355,-0.2886 -0.21747,-0.48988 -0.00707,-0.75812c0.12689,0.24054 0.15224,0.45143 0.00707,0.75812z" fill="#93a4a5"/><path d="M259.96201,192.0598c-0.05434,-0.25814 -0.09054,-0.43028 -0.12677,-0.60238c-0.00724,-0.03442 0.02177,-0.07768 0.07618,-0.09087c0.01816,-0.00442 0.05804,0.004 0.07979,0.01679c0.07977,0.19769 0.11961,0.38707 -0.02916,0.67648z" fill="#94a5a6"/><path d="M259.52738,189.63262c-0.09433,0.09528 -0.14507,0.12575 -0.25024,0.07896c-0.0471,-0.13326 -0.09787,-0.28377 -0.07967,-0.46912c0.20669,0.07642 0.2429,0.24847 0.32991,0.39011z" fill="#abbfc0"/><path d="M259.91464,193.10255c0.08341,-0.05649 0.11606,-0.08251 0.15236,-0.09134c0.2502,0.19243 0.25015,0.19243 0.24647,0.4466c-0.20307,-0.05916 -0.23931,-0.23125 -0.39881,-0.3553z" fill="#acc0c1"/><path d="M260.22816,186.07908c-0.07985,0.16416 -0.13788,0.34109 -0.23584,0.50966c-0.04353,0.06485 -0.11609,0.08247 -0.1922,-0.00754c0.09073,-0.203 0.18506,-0.38874 0.42806,-0.50209z" fill="#9fb2b2"/><path d="M262.35865,194.2993c0.10519,0.04682 0.17043,0.08524 0.22479,0.16243c-0.02177,0.07768 -0.06892,0.12533 -0.15597,0.16459c-0.11243,0.00922 -0.20306,-0.05918 -0.29372,-0.1276c0.01453,-0.1121 0.11973,-0.15574 0.22489,-0.19938z" fill="#aec2c3"/><path d="M263.36841,187.595c0.16314,0.05076 0.18853,0.17129 0.23203,0.28732c0.01083,0.05164 -0.03628,0.09925 -0.09069,0.11249c-0.03624,0.0088 -0.09795,-0.01236 -0.10516,-0.04678c-0.07612,-0.09003 -0.06161,-0.20215 -0.03616,-0.35303z" fill="#91a2a3"/><path d="M265.62253,194.50066c0.13791,-0.3411 0.15237,-0.36275 0.43884,-0.1791c-0.13784,0.06968 -0.24665,0.18663 -0.43884,0.1791z" fill="#869696"/><path d="M269.4572,188.62915c0.19219,0.09802 0.1595,0.21447 0.16675,0.3394c-0.18131,-0.04639 -0.18129,-0.04639 -0.16675,-0.3394z" fill="#555f5f"/><path d="M262.36011,188.32866c-0.01812,-0.08606 -0.04346,-0.2065 -0.01443,-0.34024c0.1958,0.11522 0.21029,0.18405 0.16315,0.32214c-0.01089,0.03885 -0.06531,0.05208 -0.14869,0.01805z" fill="#93a5a6"/><path d="M259.17143,192.10728c-0.22482,-0.16243 -0.21396,-0.20126 0.06538,-0.32343c0.06162,0.11168 0.00724,0.21534 -0.06538,0.32343z" fill="#8b9b9c"/><path d="M269.96475,189.1389c-0.09063,-0.1589 -0.10146,-0.30095 -0.1123,-0.44309c0.09793,-0.0781 0.1596,-0.05689 0.17407,0.01197c0.02897,0.13769 0.03982,0.27979 -0.06174,0.4311z" fill="#9aacad"/><path d="M260.76668,193.8904c-0.12689,-0.0596 -0.24659,-0.08478 -0.25746,-0.22688c-0.00362,-0.01723 0.01088,-0.03886 0.02901,-0.04326c0.17046,-0.00526 0.22849,0.0892 0.22842,0.27012z" fill="#5f6a6b"/><path d="M264.61239,187.4372c0.06889,0.05561 0.08341,0.1245 0.07973,0.19774c-0.01089,0.03885 -0.0399,0.08207 -0.0798,0.07366c-0.03991,-0.00838 -0.08343,-0.03397 -0.09064,-0.06842c-0.01446,-0.06884 -0.01084,-0.14209 0.09072,-0.20298z" fill="#636e6f"/><path d="M263.14183,194.76012c-0.11609,0.08248 -0.21034,0.08736 -0.31187,-0.03268c0.13058,-0.10411 0.21398,-0.07017 0.31187,0.03268z" fill="#4a5354"/></g><g data-paper-data="{&quot;index&quot;:null}" fill="#000000" fill-rule="nonzero" stroke="#000000" stroke-width="1.2" stroke-linecap="butt" stroke-linejoin="miter"><path d="M242.85655,202.71348c-0.09809,-1.88411 2.09719,-4.41655 2.8261,-6.61401c0.78479,-2.36588 0.10881,-4.2224 1.37087,-5.26635c0.88154,-0.72918 2.42163,-0.41587 3.19767,-0.14663c1.88708,0.65468 2.3363,4.44301 1.00336,8.46144c-1.33292,4.01843 -3.94326,6.7453 -5.83031,6.09061c-0.85512,-0.29667 -2.48638,-0.96375 -2.56768,-2.52504z"/><path d="M245.47453,205.92829c-0.11341,-2.62833 2.69133,-7.97566 2.69133,-7.97566c0,0 0.15351,-3.96872 0.18243,-4.05111c1.84194,-5.25121 5.12922,-4.17593 8.84505,-2.88678c1.76849,0.61354 4.24465,2.29034 4.66269,4.27938c0.47411,2.2558 -0.93358,4.69032 -1.91223,7.64067c-1.84156,5.55178 -5.64518,9.49414 -9.41931,8.18476c-1.66136,-0.57638 -4.89846,-1.68084 -5.04994,-5.19127z"/></g><g fill="none" fill-rule="nonzero" stroke-width="2" stroke-linecap="round" stroke-linejoin="miter"><path d="M227.65457,159.24917l-0.09228,11.90355" stroke="#004eff"/><path d="M223.68673,165.98528l7.10521,-1.29185" stroke="#2100ff"/><g><path d="M227.00864,158.69553l-0.09228,11.90353" stroke="url(#color-2)"/><path d="M223.50217,165.24709l7.10522,-1.29186" stroke="url(#color-3)"/></g><g><path d="M228.48505,159.71056l-0.09227,11.90354" stroke="url(#color-4)"/><path d="M224.97858,166.26212l7.10522,-1.29185" stroke="url(#color-5)"/></g></g></g></g></svg>