<svg version="1.1" xmlns="http://www.w3.org/2000/svg" xmlns:xlink="http://www.w3.org/1999/xlink" width="128.64898" height="114.28124" viewBox="0,0,128.64898,114.28124"><g transform="translate(-150.32673,-132.85904)"><g data-paper-data="{&quot;isPaintingLayer&quot;:true}" fill-rule="nonzero" stroke="none" stroke-width="1" stroke-linecap="butt" stroke-linejoin="miter" stroke-miterlimit="10" stroke-dasharray="" stroke-dashoffset="0" style="mix-blend-mode: normal"><path d="M236.61307,156.94241l0.81887,-0.14373l0.45562,1.22141l-0.97645,0.21224z" fill="#ffffff"/><path d="M240.60513,159.12088l1.32196,-0.51285l0.66971,1.26608l-1.46942,0.52683z" fill="#ffffff"/><path d="M179.42117,133.62697c4.49862,2.47347 6.18016,5.21353 11.71148,4.37667c3.64415,-0.55239 18.17782,-4.72894 21.80149,-5.05825c6.58021,-0.59735 15.86931,1.92743 20.55985,6.86524c1.65985,-0.65394 9.78011,-4.63149 10.50289,-4.71299c1.69682,-0.19157 4.1742,1.78323 4.91625,3.25557c-3.05423,1.8069 -6.1837,3.48497 -9.15589,5.43439c0.02821,0.90501 0.35736,1.35986 0.84518,1.56255c8.10117,-1.47376 19.30389,1.10954 21.32234,3.42908c-1.39983,0.79185 -11.20384,3.81792 -13.80816,4.58016c0.67845,1.68533 0.93272,3.46465 1.18277,5.25132c-2.91548,-0.42676 -5.55314,-2.09405 -8.5436,-2.07789c-0.75945,0.00336 -1.66149,0.03491 -2.45864,0.10958c0,0 0.62172,1.19204 0.36304,1.53029c-0.43784,0.57212 -2.1082,0.77726 -2.32649,0.52551c-0.21925,-0.25149 -0.3976,-1.65043 -0.3976,-1.65043c-1.84869,0.45743 -3.82635,1.29987 -5.13315,2.66946c2.44616,2.29608 6.18288,1.92895 9.53653,0.93819c0.15534,-0.04615 -0.46447,-1.83643 -0.39616,-2.03204c0.07024,-0.19613 1.8215,-0.90277 2.11095,-0.74796c0.29401,0.15254 1.1106,1.79327 1.22999,1.74441c0.52818,-0.21119 1.03137,-0.42288 1.49691,-0.62439c4.2486,1.52588 8.55099,4.58384 12.72914,6.28209c-5.21899,3.06457 -19.69106,3.97894 -25.30233,2.68894l0.10954,1.30153c3.81514,0.84233 17.60239,3.74713 17.61799,4.15728c-0.32035,0.386 -0.76941,1.28437 -0.85975,1.81225c3.4547,1.2371 3.88173,-1.02996 7.18764,-0.26644c1.50503,-2.23018 3.34885,-3.84341 6.10472,-2.48985c1.74006,-2.42219 4.34024,-1.87805 6.53776,-3.19845c2.53141,-1.51842 4.67706,-4.65112 8.13954,-2.79146c0.79922,0.42719 1.52314,1.24249 1.82348,2.1195c0.54757,1.61506 -1.13157,4.25489 -2.28223,5.25181c-2.98927,2.59113 -8.21001,0.9065 -9.95797,5.84706c-1.01412,0.84294 -2.26232,1.63627 -3.63615,1.47841c-0.8678,1.68287 -2.06378,1.48935 -1.24697,3.39521c0.34531,0.8058 -0.30848,1.55234 -2.39951,2.58083c-0.00709,1.08859 -1.33206,2.58638 -3.6911,2.27124c-0.67031,-0.09222 -1.45563,-0.37607 -1.77369,-1.05043c-0.78384,0.49165 -1.5772,1.37331 -2.60178,1.04746c-1.49368,0.18429 -1.33805,-2.10573 -2.89769,-0.0545c2.90423,1.24714 6.68876,-0.26103 8.20426,3.5008c1.36887,3.38815 1.83406,7.16569 1.67002,10.79224c1.42266,0.00895 5.77101,-0.46763 6.69788,0.06385c0.40084,2.74659 -0.2396,5.71467 -2.19674,7.69417c-2.95187,-0.14759 -6.01049,-1.26078 -9.04585,-1.44898c-4.06393,-0.25296 -8.06466,-1.17252 -12.09789,-1.71036c2.028,4.76068 1.0933,10.16503 -2.3467,13.89738c1.23055,1.44384 2.63173,2.79079 4.30774,3.6677c0.09948,2.22207 -6.66828,4.94922 -8.56927,4.92977c-0.54087,-0.69387 -0.3255,-1.57152 -0.40046,-2.35823c-0.22835,-2.45346 -3.01514,-5.32352 -4.50118,-7.21416c-1.18094,-1.5132 -3.13605,-1.88991 -4.60519,-2.99783c-1.10371,0.69935 -3.54107,2.73412 -3.54107,2.73412c-0.67637,-0.09162 -1.27422,-0.96173 -1.69281,-1.46388c-3.41905,-4.09344 -6.34941,-7.25306 -11.60818,-8.79481c-1.62551,1.48582 -2.8231,1.99509 -5.00318,1.94336c-2.95326,-0.06848 -4.19218,4.50964 -7.51778,3.31325c-0.5373,0.29239 -1.24667,0.45417 -1.31133,1.19576c-0.2652,2.99196 0.05255,4.50031 -2.38953,6.8088c-1.24595,1.17704 -3.04664,1.78516 -4.75131,1.62975c-0.72664,1.58047 -2.07252,2.77107 -3.7918,3.04433c-2.24467,7.63566 -9.28671,15.68492 -17.08295,17.53928c-2.59497,0.61675 -6.59169,1.81144 -8.94827,0.15309c-1.76993,-1.24723 0.6567,-2.73939 -2.00467,-3.50214c-3.34338,-0.95954 -0.50838,-5.30108 -2.10284,-6.53154c-1.03583,-0.80036 -2.50234,-1.78365 -2.39416,-3.34502c0.1269,-1.86374 1.74144,-2.45157 0.34836,-4.58075c-0.8441,-1.2904 -1.78613,-2.47559 -1.19551,-4.06486c0.57696,-1.55553 2.66108,-2.34907 1.41733,-4.17885c-0.85417,-1.25867 -1.17427,-2.64933 -0.53001,-4.09772c0.50007,-1.12349 1.89586,-1.54339 2.14088,-2.74811c-0.97175,-1.63606 -1.30128,-6.09566 1.43503,-5.71472c5.37091,0.74588 7.63913,11.91918 20.67862,7.67222c1.17011,-1.75633 3.60761,-3.73313 5.85771,-2.51836c2.50008,-2.72611 5.33348,-3.89008 8.84985,-2.29465c1.65512,-2.97001 4.18786,-0.5606 5.90238,-2.5294c-8.79829,-1.18857 -7.77169,-6.5059 -6.67811,-13.67491c-5.69612,-0.86823 -16.84848,1.69578 -16.84848,1.69578c4.25451,-6.56621 13.87025,-12.20782 20.37312,-16.74974c-4.30798,-1.52329 -8.47834,-6.13871 -13.33871,-4.5292c-0.39154,-0.1531 -0.44892,-0.62965 -0.36281,-0.98546c10.55891,-8.39424 10.24579,-0.2315 19.88986,-3.60383c-2.28126,-2.2609 -5.31828,-4.0336 -6.47209,-7.22404c0.27558,-0.57072 9.95622,-5.48195 11.1164,-6.70417c-1.00481,-1.63956 -1.66085,-3.51016 -2.92941,-4.97584c-1.32657,0.2085 -2.49294,1.20864 -3.87198,1.14646c-1.05118,-1.24787 -0.46417,-2.341 -0.8225,-3.57422c-0.15557,-0.53701 -0.85772,-0.50564 -1.28655,-0.49016c-4.00653,0.13553 -9.55031,0.89185 -12.3609,-5.53325c-0.63093,-3.26034 -2.74792,-5.51905 -3.68438,-8.46887c-0.10926,-0.37343 0.12275,-0.50764 0.43458,-0.56503z" fill="#272525"/><path d="M230.70681,141.0574c-8.44325,4.0856 -16.14534,9.20353 -24.30793,13.7716c-0.83623,-1.39923 -3.03248,-6.0274 -3.79638,-6.76455c-0.49722,-0.47881 -2.23346,1.63571 -3.6164,1.9154c-1.90344,-1.2391 0.84871,-2.91044 0.14635,-4.08275c-4.56571,-1.33861 -10.66874,4.4253 -15.06299,-5.39306c9.72706,3.96437 30.32298,-10.44436 44.48124,-1.37882c0.72651,0.4686 1.57963,1.27901 2.15611,1.93217z" fill="#5b76df"/><path d="M245.66985,138.44189c-3.88858,2.74004 -27.46694,16.78467 -42.67787,31.50868c-2.33299,-1.98483 -4.49245,-4.19372 -6.32278,-6.67187c10.89359,-7.25614 42.19324,-24.22153 46.27472,-25.6774c1.56632,-0.55925 1.82216,-0.43678 2.72593,0.84059z" fill="#5b76df"/><path d="M237.98414,145.80022c-0.10697,-0.39559 0.11922,-0.80089 0.50521,-0.90526c0.386,-0.10438 0.78562,0.13171 0.89258,0.52729c0.10697,0.39559 -0.11922,0.80089 -0.50521,0.90526c-0.386,0.10438 -0.78561,-0.1317 -0.89258,-0.52729z" fill="#272525"/><path d="M238.85934,145.6081l-2.8068,0.5c0.73074,-0.14787 2.41917,-2.46598 2.8068,-0.5z" fill="#ffffff"/><path d="M234.22859,147.37721c0,0 16.05811,-1.50796 23.28708,0.73066c-4.45827,1.94726 -9.4197,2.87657 -14.18259,3.73562c0.99376,-1.12128 2.90538,-3.2998 2.90538,-3.2998c-2.98719,1.13925 -5.91938,2.60444 -8.25528,4.8459c0.7324,1.27192 7.36256,0.3306 8.33853,0.25834c0.41815,0.98707 0.90101,1.94525 1.19057,2.9816c-5.71981,-1.51134 -12.46281,-2.85686 -18.47341,2.62827c4.00476,5.87636 10.186,4.99117 15.25304,1.29953c3.02855,1.22803 5.80639,3.00762 8.62079,4.66959c-9.13619,1.47705 -16.49129,1.91722 -25.49357,-0.94514c0.75394,-3.37584 -0.44863,-6.9343 -2.21803,-9.80392l1.31186,-1.19383c3.23248,5.36109 11.05519,1.24853 7.84306,-4.2403c-0.25149,-0.4282 -0.54487,-0.7508 -0.76373,-1.22304z" fill="#9ed400"/><path d="M232.72218,153.36814c-1.60611,1.80275 -2.98936,0.23859 -4.48371,-1.338c1.06154,-1.35715 2.66719,-2.05445 3.89199,-3.22163c1.65755,1.78936 1.63023,3.3931 0.59172,4.55962z" fill="#ffffff"/><path d="M214.80262,184.6544c-1.0228,-3.98933 -1.4217,-6.17705 1.43972,-9.26399c2.87373,-3.1027 4.11252,-9.69254 3.37263,-13.83088c-1.09758,-0.92144 -0.76915,1.5267 -0.80682,1.99269c-0.29196,3.686 -4.37259,16.88685 -17.56067,18.25892c-2.25104,0.2337 -4.37354,1.25308 -5.94885,2.89004c2.63675,-6.31212 7.16431,-6.06851 11.83089,-8.86975c2.59877,-1.56046 5.12157,-6.52408 5.50037,-9.525l-0.38654,-0.88167c3.91046,-2.83919 7.13764,-6.51192 10.94907,-9.46832c1.64453,2.4538 1.80976,6.27515 1.31309,9.11216c-1.15296,6.56248 -10.22069,13.37255 -9.70288,19.5858z" fill="#ffffff"/><path d="M231.45863,151.12417c-0.18713,-0.69202 0.20921,-1.40119 0.88522,-1.58399c0.67601,-0.1828 1.37573,0.22999 1.56286,0.92201c0.18713,0.69202 -0.2092,1.40119 -0.88522,1.58399c-0.67601,0.1828 -1.37573,-0.22999 -1.56286,-0.92201z" fill="#272525"/><path d="M191.51582,173.20194c2.81407,0.27394 6.17438,-0.63472 8.51228,-2.30178c1.36309,0.42078 2.3106,1.79095 3.83597,1.91923c2.04896,-2.37933 4.45891,-4.31243 6.8927,-6.15355c-0.83308,3.67694 -3.32854,7.06375 -6.34635,9.0628c-10.54775,4.68886 -15.90792,-3.57963 -22.12974,-2.54569c5.57913,-3.03143 6.15667,0.01234 9.23514,0.01899z" fill="#ffffff"/><path d="M230.11313,167.84302c0.57029,1.57266 0.10196,3.22728 0.40239,4.87083c-2.07014,-0.72165 -4.14789,-1.29517 -6.24472,-1.76306l2.16878,-3.88999z" fill="#5b76df"/><path d="M223.83302,172.35061c6.16626,2.15098 12.37472,4.21286 18.71336,5.73712c-0.39387,0.60064 -3.11661,4.53372 -3.43434,4.72633c-0.79811,0.48101 -15.43266,-6.08972 -17.3571,-6.94296l-0.53769,0.14539l0.18638,0.68925c2.92038,1.64782 5.9819,3.0016 8.96351,4.5272c0.30173,1.77477 0.60081,3.60102 0.30778,5.39055c-9.06489,4.96641 -22.30657,6.22452 -32.55507,5.84454c-5.85882,-0.21719 -11.64392,-1.62904 -17.44442,-0.50807c4.55294,-4.48185 9.6372,-8.35115 14.66706,-12.24925c-2.64447,3.06557 -3.92489,7.08413 -2.61924,11.11195c2.22737,-3.76909 7.42,-7.1342 12.4607,-7.60946c2.719,-0.25768 5.51929,-2.49418 7.64364,-4.089c-0.8662,3.6196 0.37863,7.95496 2.95697,10.93526c0.548,-2.15682 0.16361,-4.5629 0.89363,-6.65188c1.4391,-4.106 4.46667,-8.14534 7.00605,-11.60722z" fill="#5b76df"/><path d="M247.12339,174.92845c-0.27926,0.56861 -0.5051,0.97464 -1.00098,1.45472c-4.45617,-1.01395 -9.02172,-1.89991 -13.51688,-3.05042l-0.06066,-2.0057c4.87933,1.14607 9.71461,2.50088 14.57851,3.6014z" fill="#5b76df"/><path d="M276.69941,169.10011c0.19931,1.27725 -0.21667,2.57379 -1.2701,3.30202c-2.89398,1.02806 -6.85389,1.50838 -8.79882,4.25323c-0.58836,1.3908 -2.28096,1.70139 -3.35731,1.99244c0.25278,-1.54764 0.60042,-3.1199 0.06228,-4.74994c2.15315,-2.70274 6.28851,-1.45391 8.31771,-4.27023c1.28935,-1.08933 3.7075,-1.74321 5.04625,-0.52752z" fill="#a16520"/><path d="M261.51176,178.53155c-2.21397,0.61214 -2.29091,-1.44614 -1.51753,-2.94187c-1.73491,0.44531 -0.95713,1.74328 -1.8163,1.82229c-0.12989,-0.65273 -0.38232,-1.2951 -0.82204,-1.79878c0.77055,-0.79365 1.37939,-1.68343 2.55797,-1.47381c2.80358,0.49949 2.6481,1.66758 1.5979,4.39217z" fill="#9ed400"/><path d="M250.9722,177.23993c0.22304,0.28465 -0.04492,0.89889 -0.36669,1.13404c-0.99787,0.22114 -2.05335,-0.13468 -2.92034,-0.49071c0.39923,-1.53855 2.2386,-0.60533 3.28703,-0.64332z" fill="#9ed400"/><path d="M254.25109,179.06429c0.53646,2.29037 3.26653,5.55596 5.77878,5.19258c0.22126,0.49646 -0.22921,0.9912 -0.43682,1.39955c-1.62322,0.6285 -2.53562,-0.42796 -3.85121,-1.07913c-0.46583,-0.23246 -1.07316,0.31816 -0.83585,0.81649c0.30026,0.63152 2.17536,1.50535 2.80811,1.85325c-1.08398,2.16294 -3.55233,-0.21519 -4.19722,-1.47762c0,0 -0.56849,2.671 -2.10563,2.34597c-2.15279,-2.45621 -1.00883,-5.33979 -3.4769,-5.57158l-5.23364,-0.50641c1.15942,-0.86877 1.97695,-2.54218 2.62873,-2.92458c1.90985,-0.02438 4.66711,0.60263 6.57192,0.68217c0.02153,-1.84353 1.06954,-2.90593 2.51795,-3.49131c0.42882,0.11091 1.27742,-0.15274 1.56225,0.26851c0.70307,1.04469 -1.42953,1.58614 -1.73048,2.49211z" fill="#9ed400"/><path d="M239.7945,185.68651c0.65548,-0.22697 0.92088,-1.03838 1.40255,-1.56331c0.97048,0.03385 1.97451,0.00786 2.92442,0.14569c-0.81511,3.03085 -4.49237,1.16608 -6.15509,3.19235c-0.43416,0.16816 -0.71983,0.54064 -1.08382,0.78824c-2.07585,-0.03018 -3.31357,1.4378 -4.94176,2.17434c-0.27477,0.76526 -1.32836,0.06396 -1.98511,-0.05472c0.71394,-0.73484 3.27599,-0.68799 3.15362,-2.38177c0.02037,-1.87844 -0.66041,-3.86356 -0.48009,-5.68684c2.3219,0.94777 4.92455,2.21741 7.16528,3.38603z" fill="#ffffff"/><path d="M226.11573,191.99791c5.22612,0.65865 10.14118,3.36966 14.9253,6.12125c1.71135,1.16466 3.54567,2.44317 4.99244,3.87827c-1.80966,1.67443 -3.89384,3.02323 -5.7932,4.52302c-1.71343,-2.59366 -8.67417,-5.05088 -9.1967,-4.8609c1.28343,2.78867 1.42886,6.67857 1.19232,9.39343c-2.81178,2.92953 -6.52631,4.67361 -9.77986,7.0306c-3.51188,-4.27966 -8.36925,-8.73107 -13.93104,-9.74232c-4.00118,-1.28512 -15.09362,-2.29982 -15.5835,-4.5137c-0.7719,-3.49053 0.01146,-6.317 0.72004,-9.56559c6.30519,-0.12416 22.09335,1.1239 32.45419,-2.26407z" fill="#5b76df"/><path d="M261.29723,179.87203c0.33405,0.69904 -0.11727,1.70782 -0.67593,2.30433c-1.38814,0.37536 -2.71133,-1.14288 -3.74601,-1.94666c-0.01064,-0.39181 0.38349,-0.54707 0.58806,-0.8479c1.41339,-0.28585 2.47431,0.26636 3.83389,0.49023z" fill="#9ed400"/><path d="M248.36785,186.82092c-0.94827,0.40456 -2.37512,0.10046 -3.05036,1.51476c-1.22142,0.82338 -2.7714,0.60023 -3.43926,2.21039c-1.40286,1.2174 -3.40076,1.11537 -4.83211,2.04732c-0.94827,0.40456 -1.71671,-0.67115 -2.5363,-0.84421c1.59082,-1.21953 3.46501,-3.00776 5.79481,-2.751c1.83947,-1.38415 4.43265,-1.73937 5.81826,-3.74458c0.52119,-0.38645 1.35556,-0.31579 1.8736,-0.70242z" fill="#a16520"/><path d="M174.7111,218.07732c-1.04013,4.1908 3.28296,8.95346 6.83181,10.33189c0.18079,0.43489 -0.40459,1.05519 -0.56092,1.48076c-1.55797,4.24485 -4.81536,9.63708 -8.76979,11.83864c-2.64006,1.46907 -7.98021,3.49941 -11.01339,2.82892c-2.74398,-0.6047 -0.75825,-1.44414 -1.65594,-3.10127c-1.08934,-2.01345 -3.88697,0.2099 -3.32075,-2.50399c0.30709,-1.47324 2.12946,-3.06616 0.82107,-4.61016c-0.99888,-1.17707 -3.05929,-0.23456 -3.3706,-1.79956c2.56661,-4.33423 -1.54305,-5.01301 -1.11724,-6.79805c0.30208,-1.26573 2.64327,-1.61808 3.10739,-3.7978c0.48537,-2.27352 -4.00608,-3.5597 -1.26732,-5.57549c0.6519,-0.47773 1.16549,-0.75438 1.67759,-1.43879c0.91355,-1.21872 -1.94907,-5.12388 1.23166,-3.98051c1.20274,0.43306 3.19547,3.57689 4.69138,4.55015c2.19693,1.42804 4.49245,2.56941 6.99403,3.28523c2.11811,0.60405 3.70644,-0.27607 5.72102,-0.70998z" fill="#e7c45e"/><path d="M245.048,191.61056c1.40985,2.28314 4.78545,3.5955 4.15227,6.81645c-0.24856,1.26059 0.14055,2.41608 -0.0221,3.65343l-1.01066,0.17384c0.18133,-2.69683 -6.78393,-7.07859 -8.97748,-8.12633c1.38651,-0.91774 3.0096,-1.93364 4.75298,-1.63123c0.35028,-0.31744 0.63457,-0.7372 1.10499,-0.88616z" fill="#ffffff"/><path d="M257.63427,192.53728c1.54871,1.90788 2.0975,3.28228 3.6315,5.22004c1.78924,2.25721 4.00248,2.87593 4.75085,5.64354c0.65154,2.40946 -0.33963,4.07286 -1.6688,6.13739c-0.95915,1.49831 -4.20686,1.96526 -4.48743,0.18062c-0.28299,-1.8855 0.76725,-4.98925 -1.0869,-5.13429c-1.8795,-0.13922 -2.40104,0.44518 -4.11683,0.44402c-0.78039,-4.39155 0.34324,-6.84077 -1.86221,-10.25028c-1.42714,-2.19766 -3.30765,-2.4402 -5.6253,-3.6481c1.96777,-3.53004 7.96704,-1.66332 10.46511,1.40706z" fill="#7e4094"/><path d="M260.17131,204.15688c0.50603,0.38112 0.03999,1.82586 0.06168,2.46537c0.00648,1.34183 0.08778,2.56191 -0.4983,3.75423c-0.2436,0.5051 -0.89911,-0.14534 -1.4065,-0.34378l0.14249,-4.69082c0.56765,-0.04991 1.25092,-1.52645 1.70064,-1.185z" fill="#272525"/><path d="M263.08299,205.32431c0.04101,1.39672 -0.85687,2.91472 -1.5454,4.06534c-5.99479,-0.6932 -11.89857,-2.05742 -17.86774,-2.95852c2.09363,-1.74293 4.44348,-3.13974 7.23718,-2.2056c1.71158,-1.74218 0.53206,-4.19637 0.28151,-6.23774c-0.34692,-2.81918 -0.99681,-4.12688 -3.15734,-5.99881c1.1878,0.32418 4.18647,2.31133 4.63914,3.47968c0.16461,0.41336 0.42175,7.76202 0.70867,9.3709c0.43566,0.35457 2.91196,0.47122 2.91196,0.47122c-0.02145,-0.22107 -0.22788,-0.84273 -0.22692,-1.49044c-0.23693,-0.22495 -1.03122,-0.05161 -1.05335,-0.24452c-0.25309,-2.771 -0.7271,-7.78408 -1.16388,-8.92046c-0.54517,-1.42614 -3.48107,-3.03557 -4.79446,-3.6863c1.3744,0.50474 4.47998,0.71124 5.36991,1.89913c2.04225,2.714 1.36817,11.21985 1.86373,12.38592c0.29831,0.68177 5.11945,-0.18785 6.79698,0.07021z" fill="#9e73bf"/><path d="M156.63142,216.11258c3.75679,3.81772 12.38678,6.91231 17.37532,4.52021c0.50917,0.26632 0.34624,0.94332 0.2263,1.3694c-3.81194,3.64024 -16.59074,-0.684 -17.91439,-5.80504z" fill="#272525"/><path d="M188.65292,212.03767c-3.12621,0.65577 -3.17622,5.57746 -0.77249,7.45615c1.63043,1.27149 3.57599,-0.22215 5.0152,-1.01015c0.00607,8.71869 -15.83109,5.38926 -10.8039,-3.68665c1.12395,-2.02665 4.33629,-3.62043 6.5612,-2.75935z" fill="#e7c45e"/><path d="M206.09465,209.68941c-1.16723,1.64056 -3.39662,0.41812 -5.01779,1.35684c-2.48792,1.44554 -2.01615,2.66155 -5.37358,2.88365c-2.4399,0.16356 -3.11142,5.29993 -6.6583,3.82152c-3.14464,-4.57268 2.95017,-2.96177 3.36209,-6.23477c1.07179,-1.02428 2.41748,0.22475 3.69911,-0.90082c3.49699,-3.07338 5.71987,-2.77529 9.98847,-0.92643z" fill="#a16520"/><path d="M179.92732,214.79182c-0.64288,2.87861 -0.56238,6.65865 1.87527,8.71256c1.06755,0.89849 2.39689,1.22894 3.62058,1.83141c-2.61898,3.65019 -11.46458,-3.32568 -6.70703,-9.87046c0.49903,-0.4799 0.64049,-0.71912 1.21118,-0.67351z" fill="#dc511b"/><path d="M161.35361,225.92928c3.9419,-0.17917 8.11534,-1.45583 12.01075,-2.16318c0.40092,0.23758 0.98983,-0.07083 1.28734,0.49306c-0.10437,1.21538 -1.63007,1.08201 -2.45273,1.59867c-5.88674,2.23097 -12.40835,3.3553 -18.01924,0.38494l-0.12451,-0.46046c2.4262,0.08462 4.79825,0.67387 7.2984,0.14698z" fill="#272525"/><path d="M236.92789,214.02321c-0.33058,2.16019 -1.61846,3.98669 -2.91159,5.76696c0,0 2.523,1.68379 2.97203,2.99194l-2.11272,1.60721c-1.50975,-3.09315 -4.32443,-5.68322 -7.58998,-7.26671c1.0587,-0.52868 1.86964,-1.26489 2.4482,-1.73418c1.19978,0.70942 3.97736,2.5647 4.15404,0.19544c0.91411,-3.54968 0.20222,-7.25118 -0.52588,-11.00114c2.26391,2.49557 3.44525,5.97172 3.5659,9.44049z" fill="#9e73bf"/><path d="M237.55348,220.60821l-1.11968,-1.12576c2.31597,-2.96639 3.60329,-6.76408 2.02896,-10.45614c-0.81916,-1.91455 -2.44688,-3.22199 -3.70482,-4.81693c7.34365,4.0878 8.08971,10.19892 2.79553,16.39882z" fill="#7e4094"/><path d="M158.12702,235.33149c0,0 9.30415,-3.62951 13.06994,-6.24519c1.16272,-0.81061 3.51695,-4.11055 5.26705,-3.10139c0.75351,0.43437 0.16041,1.05677 -0.1772,1.47852c-3.40054,4.26139 -12.64003,10.19491 -18.15978,7.86806z" fill="#272525"/><path d="M232.54016,214.86369c-0.50652,0.08828 -0.98891,-0.27438 -1.51244,-0.42908c0.36169,-0.4438 0.95509,-0.55557 1.40956,-0.82867z" fill="#ffffff"/><path d="M179.16982,228.70491c0.38315,4.72687 -11.36935,14.49946 -15.84783,15.52918l-0.34899,-0.40183c2.25403,-2.38713 5.00188,-3.94026 7.24687,-6.44511c1.22936,-1.37249 6.63495,-8.35562 7.43659,-8.76611c0.40715,-0.21058 1.15574,-0.30009 1.51336,0.08387z" fill="#272525"/><path d="M240.69177,226.1688c-1.11397,1.2667 -2.69778,1.76127 -4.2895,2.09638c-0.13361,-0.99979 -1.47175,-2.13277 -0.09491,-2.83346c0.78382,-0.4036 1.56372,-1.13969 2.4455,-1.25382c0.49061,0.3739 1.69629,1.39249 1.93891,1.99091z" fill="#7e4094"/></g></g></svg>