<svg version="1.1" xmlns="http://www.w3.org/2000/svg" xmlns:xlink="http://www.w3.org/1999/xlink" width="81.16547" height="122.84987" viewBox="0,0,81.16547,122.84987"><defs><linearGradient x1="219.89593" y1="189.40233" x2="219.89593" y2="192.31389" gradientUnits="userSpaceOnUse" id="color-1"><stop offset="0" stop-color="#737373"/><stop offset="1" stop-color="#000000"/></linearGradient></defs><g transform="translate(-192.53285,-120.46917)"><g data-paper-data="{&quot;isPaintingLayer&quot;:true}" stroke-miterlimit="10" stroke-dasharray="" stroke-dashoffset="0" style="mix-blend-mode: normal"><g fill="none" fill-rule="nonzero" stroke="none" stroke-width="1" stroke-linecap="butt" stroke-linejoin="miter" font-family="sans-serif" font-weight="normal" font-size="12" text-anchor="start"><g><g data-paper-data="{&quot;index&quot;:null}"/></g><g data-paper-data="{&quot;index&quot;:null}"/><g data-paper-data="{&quot;index&quot;:null}"/></g><g fill="none" fill-rule="nonzero" stroke="none" stroke-width="1" stroke-linecap="butt" stroke-linejoin="miter" font-family="sans-serif" font-weight="normal" font-size="12" text-anchor="start"><g><g/><g><g/></g><g/></g><g/></g><path d="" fill="#2b1900" fill-rule="nonzero" stroke="#150c00" stroke-width="3" stroke-linecap="butt" stroke-linejoin="miter"/><path d="M230.68497,192.67724c0,2.5027 -2.97906,4.53153 -6.65393,4.53153c-1.95774,0 -5.45731,1.70962 -7.60945,0.4808c-1.88762,-1.0778 -2.58451,-5.06007 -2.37941,-5.73384c0.6398,-2.10169 7.14109,-3.03467 9.32062,-3.03467c3.67487,0 7.32218,1.25349 7.32218,3.75618z" fill="#ffffff" fill-rule="nonzero" stroke="#737373" stroke-width="1" stroke-linecap="butt" stroke-linejoin="miter"/><path d="M234.67328,204.85268l0.95513,-16.04212" fill="none" fill-rule="nonzero" stroke="#000000" stroke-width="6" stroke-linecap="round" stroke-linejoin="miter"/><path d="M215.89083,208.05319c0,0 5.18946,-7.50437 5.85716,-8.3978c1.209,-1.61773 14.02317,-10.03321 14.02317,-10.03321c0,0 5.56853,7.08019 7.48947,9.13523c1.81301,1.93956 6.53151,2.86863 6.53151,2.86863" fill="none" fill-rule="nonzero" stroke="#000000" stroke-width="6" stroke-linecap="round" stroke-linejoin="miter"/><g><g><g stroke="#262626" stroke-width="1.2"><path d="M243.51455,203.54006l2.83021,26.27636c0,0 6.83853,0.4171 6.67589,7.59665c-0.00927,0.40931 -0.10628,2.41892 -2.93138,3.00706c-2.70587,0.56331 -8.09983,-0.27821 -10.07073,-0.59795c-0.91539,-0.14851 -2.30979,-0.79631 -3.20094,-1.90547c-0.89722,-1.11677 -0.80031,-2.74089 -0.7997,-3.65454c0.00024,-0.37213 -2.01342,-29.63214 -2.01342,-29.63214" fill="#ffffff" fill-rule="evenodd" stroke-linecap="round" stroke-linejoin="round"/><path d="M233.83552,210.55563c0.16667,-7.35787 5.3433,-7.48521 8.04041,-7.41859c1.17281,0.02897 1.01431,-1.93754 2.05221,3.81734c0.22857,1.26745 0.67777,6.47077 1.63834,10.89963c0.65776,3.03271 1.89153,5.71059 2.12204,6.47993c0.54461,1.81777 0.32058,3.47486 0.32058,3.47486l-0.98747,-1.20431c0,0 0.65069,0.83929 0.91127,1.34007c0.8118,1.56004 1.43278,2.73749 1.43278,2.73749c0,0 -6.89717,-0.46511 -9.58349,1.82984c-2.68632,2.29495 -1.35519,6.6145 -1.35519,6.6145c0,0 -5.11011,-0.81997 -5.51962,-3.76384c-0.10096,-0.72574 0.69161,-2.88543 0.69161,-2.88543c0,0 -0.5843,0.12216 -0.60323,-0.38035c-0.00966,-0.25616 0.77328,-4.05623 0.94724,-8.33109c0.229,-5.62754 -0.13149,-12.1499 -0.10748,-13.21005z" fill="#000000" fill-rule="nonzero" stroke-linecap="butt" stroke-linejoin="miter"/></g><path d="M225.06765,205.33212c-0.00954,-0.21598 1.16067,0.4208 3.8123,0.49439c3.49818,0.0971 8.85553,-0.33729 10.36199,-0.55955c3.90648,-0.57634 4.56756,-2.11038 4.59285,-1.53784c0.09359,2.11872 -2.11604,6.04332 -6.58504,6.25859c-1.96391,0.0946 -5.98082,0.80409 -8.25552,0.05816c-2.9015,-0.95148 -3.87411,-3.52614 -3.92658,-4.71377z" fill="#004fd9" fill-rule="nonzero" stroke="#001026" stroke-width="1.2" stroke-linecap="butt" stroke-linejoin="miter"/><g fill-rule="nonzero" stroke-linecap="butt" stroke-linejoin="miter"><g fill="none" stroke="none" stroke-width="1" font-family="sans-serif" font-weight="normal" font-size="12" text-anchor="start"/><path d="M224.59626,203.95415c0,0 8.39414,1.33376 12.2515,1.31516c3.85735,-0.01859 7.03529,-1.40815 7.03529,-1.40815c0,0 0.03036,2.07391 -1.68988,4.09233c-1.33158,1.56238 -3.89071,3.1809 -7.19844,3.21523c-3.01344,0.03128 -6.37537,-0.62978 -8.03952,-1.98628c-2.52234,-2.05606 -2.35895,-5.22831 -2.35895,-5.22831z" fill="#000000" stroke="#262626" stroke-width="1.2"/></g><g stroke-width="1.2"><path d="M233.86943,209.21067c0,0 -3.27626,30.56729 -3.87412,30.66819c-1.71569,0.28953 -11.11775,-2.30308 -11.11775,-2.30308l6.04362,-30.73259" data-paper-data="{&quot;index&quot;:null}" fill="#ffab19" fill-rule="evenodd" stroke="#001026" stroke-linecap="round" stroke-linejoin="round"/><path d="M235.31738,208.71784c0,0 -0.76535,6.46384 -0.9914,9.89111c-0.21681,3.28727 -0.33837,10.27008 -0.33837,10.27008c0,0 0.91907,5.07389 0.02052,6.32511c-0.41617,0.57952 -0.74411,-2.86462 -0.74411,-2.86462c0,0 0.36609,3.88276 0.40214,4.22499c0.2515,2.38782 -0.8963,5.52348 -3.90407,5.82139c-3.30234,0.32707 -8.77713,0.69649 -11.59942,-1.19265c-1.20084,-0.8038 -2.82745,-3.16992 -2.38966,-5.69046c0.49371,-2.84252 3.14504,-5.82039 3.14504,-5.82039l-2.43625,3.24602c0,0 -0.0254,-1.62079 0.37101,-2.80973c0.44517,-1.33517 2.17075,-4.8136 2.17075,-4.8136l5.23098,-19.57598" data-paper-data="{&quot;index&quot;:null}" fill="#000000" fill-rule="evenodd" stroke="#262626" stroke-linecap="round" stroke-linejoin="round"/><path d="M232.2584,237.97309c-0.08278,1.71634 -0.75803,3.71047 -2.22368,4.74596c-1.47109,1.03932 -10.31237,0.62745 -11.67918,-0.64275c-1.29802,-1.20627 -1.82677,-3.4358 -1.74597,-5.11092c0.16587,-3.43903 3.80343,-6.00135 8.12475,-5.72308c4.3213,0.27827 7.68996,3.29175 7.52407,6.7308z" fill="#ffffff" fill-rule="nonzero" stroke="#262626" stroke-linecap="butt" stroke-linejoin="miter"/></g></g><g fill="none" fill-rule="nonzero" stroke="none" stroke-width="1" stroke-linecap="butt" stroke-linejoin="miter" font-family="sans-serif" font-weight="normal" font-size="12" text-anchor="start"/></g><g fill-rule="nonzero" stroke-linecap="butt" stroke-linejoin="miter"><g data-paper-data="{&quot;index&quot;:null}" stroke="none" stroke-width="1"><path d="M254.70433,189.42336c-0.18828,-0.08546 -0.21553,-0.23264 -0.21809,-0.41126c0.01759,-0.28215 0.08923,-0.55513 0.12492,-0.83421c-0.04403,-0.06094 -0.08805,-0.12189 -0.13542,-0.16556c-0.96363,-0.98342 -1.36207,-2.19161 -1.55671,-3.48994c-0.03986,-0.27407 -0.09775,-0.55126 -0.04408,-0.82726c0.01009,-0.05175 0.00546,-0.12382 -0.02394,-0.16446c-0.16146,-0.22345 -0.11788,-0.44773 -0.08896,-0.69232c0.02219,-0.21007 0.08046,-0.41404 0.12071,-0.62105c0.02348,-0.12075 0.083,-0.2354 0.20795,-0.30331c0.12495,-0.06787 0.20586,-0.19671 0.28339,-0.30828c0.37522,-0.68475 0.86656,-1.29633 1.45603,-1.83777c0.33751,-0.29909 0.71567,-0.52002 1.11188,-0.73784c1.16725,-0.63936 2.42971,-0.90614 3.75007,-0.89579c0.59372,0.01174 1.18871,0.11277 1.77027,0.2828c0.44067,0.1283 0.82184,0.37126 1.18162,0.62837c1.14476,0.81816 1.87988,1.92312 2.29757,3.22371c0.0826,0.24571 0.10446,0.5167 0.12628,0.78773c0.02058,0.18169 0.06252,0.34922 0.22268,0.48336c0.14548,0.11383 0.18744,0.28132 0.18998,0.45994c-0.01759,0.28215 -0.07125,0.55817 -0.12492,0.8342c-0.01677,0.08628 -0.06623,0.14917 -0.11573,0.21204c-0.20919,0.21396 -0.31359,0.46355 -0.38524,0.73654c-0.13202,0.58351 -0.43765,1.10186 -0.72526,1.62328c-0.11237,0.19478 -0.24273,0.38648 -0.4058,0.55483c-0.51734,0.55369 -1.04604,1.06984 -1.71686,1.45492c-0.05029,0.25876 -0.12198,0.53173 -0.17559,0.80776c-0.02012,0.10353 -0.04359,0.22427 -0.16519,0.27489c-0.10355,0.05368 -0.10566,0.16028 -0.12576,0.26377c-0.15213,0.687 -0.28626,1.37705 -0.43839,2.06405c-0.31646,1.53233 -0.63621,3.08191 -0.98871,4.60811c-0.34581,1.4917 -0.63746,2.99259 -0.94722,4.49041c-0.04693,0.24153 -0.1266,0.45966 -0.17351,0.70117c-0.22799,1.1731 -0.456,2.34622 -0.70201,3.51626c-0.04023,0.207 -0.04442,0.42015 -0.18949,0.59153c-0.04948,0.06291 -0.04821,0.15218 -0.06499,0.23845c-0.16762,0.8626 -0.35666,1.73936 -0.5243,2.60195c-0.00671,0.0345 -0.01679,0.08625 -0.02348,0.12075c-0.0356,0.2791 -0.18865,0.39568 -0.46454,0.47357c-0.9245,0.25289 -1.82807,0.20638 -2.71072,-0.13951c-0.22432,-0.09157 -0.44193,-0.21762 -0.63484,-0.37511c-0.14549,-0.11383 -0.1908,-0.26407 -0.17532,-0.43963c0.04652,-0.52674 0.07497,-1.05652 0.12483,-1.60052c0.03771,-0.38568 0.11482,-0.78246 0.09843,-1.1773c-0.03738,-0.86174 0.14493,-1.70403 0.1616,-2.55657c0.01838,-0.47803 -0.00261,-0.94497 0.03382,-1.41996c0.04314,-0.50947 0.04688,-1.00784 0.06861,-1.5031c0.04481,-0.90127 0.129,-1.81366 0.15575,-2.71798c0.0083,-1.19257 0.08868,-2.37297 0.16909,-3.5533c0.02303,-0.406 0.04602,-0.81191 0.06907,-1.21791c0.04856,-0.63333 0.10052,-1.28384 0.14911,-1.91713c0.03099,-0.35117 0.02259,-0.6912 0.05355,-1.04234c0.01633,-0.37151 0.08001,-0.69923 0.11773,-1.08493zM255.20198,189.25838c0.19624,0.14026 0.39918,0.24602 0.63019,0.30309c0.43861,0.23486 0.9187,0.35204 1.3988,0.46919c0.60297,0.15585 1.23734,0.24576 1.85372,0.33259c0.70652,0.10215 1.39247,0.02261 2.09983,-0.07111c0.07883,-0.02226 0.15764,-0.04451 0.27587,-0.0779c0.02684,-0.138 0.05361,-0.27602 0.08045,-0.41402c0.00671,-0.0345 -0.00461,-0.07207 -0.01258,-0.12687c-0.1262,-0.02145 -0.25576,-0.02562 -0.38869,-0.01256c-0.22642,0.01503 -0.42809,-0.00144 -0.65449,0.01357c-0.561,0.01165 -1.10991,-0.13498 -1.66084,-0.17508c-0.29183,-0.03171 -0.59034,-0.029 -0.87547,-0.09522c-0.621,-0.15891 -1.25873,-0.23157 -1.86627,-0.45949c-0.15557,-0.06207 -0.32916,-0.12715 -0.48473,-0.18925c-0.05199,-0.11578 -0.20295,-0.10573 -0.28641,-0.15557c-0.0981,-0.07013 -0.19626,-0.14026 -0.39791,-0.15666c0.0826,0.24571 -0.01505,0.4608 0.01681,0.68005c0.0868,0.03258 0.1388,0.1483 0.27173,0.13524zM255.80915,189.9674c-0.38451,-0.22571 -0.48932,-0.2613 -0.73043,-0.26662c-0.02219,0.21007 -0.04104,0.40293 -0.06326,0.613c-0.02348,0.12075 0.03185,0.21927 0.13001,0.28941c0.06544,0.04677 0.15556,0.06205 0.22097,0.10881c0.24698,0.16672 0.54344,0.27049 0.83525,0.30223c0.10947,0.10766 0.25366,0.1322 0.39793,0.15669c0.80797,0.15503 1.59462,0.32423 2.41935,0.39303c0.36731,0.02674 0.73798,0.03624 1.09393,0.02538c0.2839,-0.02308 0.58576,-0.04309 0.84235,-0.21338c0.04358,-0.22429 0.08713,-0.44854 0.13075,-0.67283c-0.15092,0.00999 -0.28389,0.02306 -0.39872,0.03919c-0.53165,0.05225 -1.0566,0.07006 -1.56815,0.01883c-0.65911,-0.05848 -1.3015,-0.20321 -1.94722,-0.33067c-0.30653,-0.05205 -0.57489,-0.20453 -0.88473,-0.23934c-0.1388,-0.1483 -0.31574,-0.19618 -0.47799,-0.22375zM254.31314,209.54802c0.2323,0.14638 0.48134,0.20651 0.7371,0.23211c0.01466,0.0203 0.04739,0.04369 0.06544,0.04675c0.43606,0.05624 0.87885,0.07797 1.30567,-0.00994c0.2512,-0.04645 0.49896,-0.07565 0.7161,-0.23481c0.18776,-0.9661 0.37548,-1.93216 0.57336,-2.95003c-0.46958,0.11626 -0.91912,0.12909 -1.36518,0.12458c-0.39206,0.00471 -0.74258,-0.10829 -1.12791,-0.13808c-0.14423,-0.02448 -0.2671,-0.06315 -0.41134,-0.08764c-0.19957,-0.123 -0.42392,-0.21456 -0.69099,-0.27774c-0.10058,0.51756 -0.05021,1.0251 -0.10803,1.51427c-0.04314,0.50948 -0.06825,1.02205 -0.10802,1.51425c0.13879,0.1483 0.27632,0.20734 0.41387,0.2663zM254.53631,206.00394c0.10948,0.10765 0.25035,0.14944 0.39456,0.17391c0.13082,0.09353 0.29647,0.10383 0.45536,0.14863c0.50151,0.10297 1.01975,0.1197 1.52664,0.09887c0.30187,-0.02002 0.61048,-0.07457 0.89641,-0.20421c0.01343,-0.06901 0.04485,-0.13494 0.05823,-0.20396c0.16433,-0.84536 0.32525,-1.67338 0.50755,-2.51566c0.19237,-0.89401 0.38139,-1.77079 0.57377,-2.66481c0.27283,-1.30808 0.56039,-2.59579 0.83321,-3.90387c0.32106,-1.46026 0.58464,-2.91246 0.94178,-4.36659c0.06498,-0.23845 0.09719,-0.50029 0.14752,-0.75908c-0.21172,0.03534 -0.41212,0.10823 -0.61716,0.10904c-0.66122,0.04811 -1.32034,-0.01037 -1.97277,-0.10332c-0.57693,-0.09798 -1.15054,-0.21321 -1.72416,-0.32846c-0.22769,-0.07431 -0.44068,-0.1283 -0.66837,-0.20261c-0.12411,-0.12801 -0.2931,-0.12106 -0.43064,-0.18005c-0.15557,-0.06207 -0.28639,-0.15556 -0.47005,-0.16893c-0.06959,0.1664 -0.06035,0.31055 -0.06579,0.43434c0.00051,1.05155 -0.14657,2.09582 -0.20015,3.13815c-0.03725,0.67089 -0.07454,1.34176 -0.09372,2.01568c-0.04481,0.90127 -0.06819,1.78832 -0.10962,2.67233c-0.02926,0.72567 -0.05857,1.45137 -0.1059,2.17399c-0.03937,0.77745 -0.0934,1.53455 -0.15075,2.30896c-0.04396,0.70537 -0.09126,1.42799 -0.12055,2.15367c0.15889,0.04479 0.24698,0.16668 0.39456,0.17393zM265.05099,183.90946c-0.4268,0.0879 -0.81889,0.09261 -1.21425,0.11458c-0.41343,0.0189 -0.81215,0.05814 -1.22221,0.05977c-0.39206,0.0047 -0.79544,-0.02816 -1.18411,-0.04073c-0.40674,-0.01561 -0.81343,-0.0312 -1.23481,-0.06711c-0.38531,-0.02981 -0.78534,-0.07993 -1.17068,-0.10973c-0.39999,-0.05012 -0.78661,-0.16922 -1.20004,-0.15032c-0.35848,-0.16778 -0.76856,-0.16615 -1.14385,-0.24768c-0.38992,-0.10188 -0.80466,-0.17228 -1.19459,-0.27414c-0.3719,-0.09881 -0.75851,-0.21794 -1.12707,-0.33398c-0.38661,-0.11914 -0.74174,-0.30421 -1.13838,-0.37153c-0.11654,0.40792 -0.14,0.52866 -0.05611,0.86369c0.19957,0.123 0.39919,0.24602 0.64153,0.34061c0.29645,0.10381 0.59288,0.20762 0.90402,0.33175c0.58954,0.22488 1.16442,0.4294 1.79546,0.53657c0.43272,0.07349 0.86881,0.1297 1.28811,0.27222c0.0868,0.03258 0.19498,0.05092 0.30982,0.03479c0.22641,-0.01504 0.45745,0.04206 0.67381,0.07877c0.79332,0.13473 1.60673,0.16594 2.4055,0.17681c1.05454,0.03651 2.09646,-0.05386 3.14844,-0.19603c0.20837,-0.01809 0.41676,-0.03615 0.59114,-0.16693c0.08637,-0.25265 0.11863,-0.51451 0.12826,-0.85143zM258.16598,180.61961c-0.1878,0.19978 -0.30354,0.41181 -0.43726,0.62077c-0.12704,0.17445 -0.1853,0.37842 -0.15341,0.59768c0.03107,0.41515 0.0047,0.83839 -0.09382,1.24936c-0.00671,0.0345 0.00123,0.08932 -0.00212,0.10656c0.08008,0.06704 0.1522,0.07927 0.25243,0.04286c0.02138,-0.01417 0.04612,-0.04563 0.04948,-0.0629c0.15133,-0.49112 0.3387,-0.97608 0.56216,-1.45496c0.03146,-0.06593 0.06958,-0.16639 0.04692,-0.24153c-0.01846,-0.28828 -0.03695,-0.57653 -0.2244,-0.85788zM256.57791,183.04085c0.1446,-0.4566 0.32195,-0.88982 0.51396,-1.30274c0.06285,-0.13188 0.06832,-0.25571 0.04104,-0.40291c-0.04993,-0.2223 -0.14261,-0.41628 -0.23191,-0.62749c-0.02264,-0.07514 -0.04193,-0.16749 -0.15683,-0.15137c-0.14716,0.27797 -0.30897,0.53565 -0.42007,0.81971c0.1657,0.77662 0.16568,0.7766 0.02278,1.60773c0.04401,0.06095 0.11281,0.09043 0.23103,0.05706zM260.68125,185.50194c-0.13248,0.29829 -0.24692,0.59966 -0.36137,0.901c-0.03146,0.06594 -0.06288,0.13189 -0.05826,0.20394c0.07254,0.29744 0.12712,0.59185 0.29987,0.85288c0.25659,-0.17027 0.36096,-0.41986 0.5161,-0.64303c0.07756,-0.11155 0.07963,-0.21815 0.04902,-0.34809c-0.09058,-0.30051 -0.14512,-0.59494 -0.17824,-0.90347c0.00336,-0.01726 -0.02932,-0.04064 -0.05868,-0.08123c-0.05744,0.00806 -0.13296,0.01307 -0.20839,0.01808zM261.78189,181.18017c-0.28804,0.23622 -0.44651,0.47663 -0.623,0.71397c-0.05619,0.09739 -0.0549,0.18669 -0.05363,0.27601c0.02774,0.43241 0.00129,0.85566 -0.10053,1.28388c-0.01007,0.05175 -0.00212,0.10656 -0.01214,0.15831c0.19498,0.05094 0.23439,0.03982 0.2612,-0.0982c0.08717,-0.44858 0.26116,-0.86454 0.51856,-1.2307c0.15512,-0.22315 0.17733,-0.43324 0.13078,-0.67283c-0.04865,-0.13303 -0.0826,-0.24573 -0.1212,-0.43048zM258.70204,183.41939c0.09014,0.01529 0.12158,-0.05069 0.13501,-0.11968c0.09389,-0.48303 0.32863,-0.92433 0.56342,-1.36565c0.18193,-0.36116 0.18693,-0.7702 -0.00975,-1.19565c-0.15638,0.13383 -0.20794,0.3033 -0.32826,0.44325c-0.244,0.29716 -0.3077,0.62493 -0.30265,0.98223c-0.00164,0.39177 0.01473,0.78665 -0.09507,1.16005c0.008,0.0548 0.02263,0.07516 0.03732,0.09546zM260.51654,180.98311c-0.14842,0.18864 -0.26541,0.31134 -0.36432,0.43711c-0.16977,0.20286 -0.22806,0.40681 -0.20289,0.66056c0.04447,0.34615 0.01349,0.69731 -0.03552,1.04538c-0.00546,0.12384 -0.03227,0.26184 -0.05574,0.38258c0.0868,0.03258 0.11486,-0.01611 0.12158,-0.05063c0.18736,-0.48501 0.39278,-0.9669 0.66699,-1.41934c0.03479,-0.08319 0.06622,-0.14914 0.06496,-0.23845c-0.0432,-0.25684 -0.06838,-0.5106 -0.19503,-0.81723zM261.85064,185.52233c0.00842,0.34004 -0.10604,0.64136 -0.20245,0.94579c-0.01676,0.08626 -0.08426,0.14608 -0.06497,0.23845c0.02728,0.14723 0.18999,0.45997 0.35814,0.64894c0.15976,-0.15109 0.23603,-0.35198 0.34506,-0.52952c0.08426,-0.14609 0.09306,-0.28715 0.02973,-0.44047c-0.09727,-0.266 -0.15853,-0.52592 -0.15897,-0.81114c0.00337,-0.01726 -0.02602,-0.05787 -0.04067,-0.07817c-0.06878,-0.0295 -0.14089,-0.04177 -0.26583,0.02616zM255.46324,185.61379c0.06125,0.25987 -0.01381,0.55012 0.10488,0.80195c0.12955,0.00419 0.20043,-0.07288 0.28596,-0.12965c0.15304,-0.1166 0.31736,-0.19558 0.44441,-0.37004c-0.0478,-0.3289 0.05528,-0.66781 0.02883,-1.01089c-0.08008,-0.06704 -0.17022,-0.08238 -0.26709,-0.06316c-0.16518,0.27493 -0.36306,0.52646 -0.597,0.77186zM258.50558,185.29288c-0.06959,0.1664 -0.13918,0.33277 -0.25279,0.43821c-0.27335,0.25651 -0.3123,0.55289 -0.22506,0.87064c0.03394,0.11268 0.01383,0.2162 0.10189,0.33811c0.21385,-0.14193 0.37694,-0.31024 0.53998,-0.47861c0.04613,-0.04563 0.05951,-0.11464 0.05825,-0.20394c-0.02184,-0.27104 -0.02899,-0.52173 -0.0508,-0.79274c0.01009,-0.05175 -0.01259,-0.12689 -0.17153,-0.1717zM257.36969,185.1c-0.14588,0.36729 -0.32113,0.69393 -0.60916,0.93017c-0.06414,0.04257 -0.05952,0.11464 -0.07292,0.18364c-0.01214,0.15833 -0.00627,0.31974 0.07174,0.49334c0.29937,-0.19866 0.50858,-0.41266 0.72113,-0.64386c0.07085,-0.07707 0.10566,-0.16025 0.10774,-0.26684c0.00087,-0.19589 0.01967,-0.38874 0.02049,-0.58462c0.00337,-0.01726 -0.02601,-0.0579 -0.04067,-0.07819c-0.05409,-0.00919 -0.10819,-0.01838 -0.19831,-0.03365zM262.98789,182.25822c-0.03861,-0.18475 -0.07381,-0.38679 -0.11239,-0.57157c-0.01466,-0.0203 -0.02936,-0.04065 -0.05869,-0.08124c-0.22852,0.12157 -0.37694,0.31024 -0.48594,0.48774c0.02228,0.55625 0.05125,1.07795 -0.06276,1.66452c0.30607,-0.23316 0.23347,-0.53062 0.33115,-0.74569c0.10774,-0.26684 0.24815,-0.51029 0.38859,-0.75376zM257.99398,180.16269c-0.14006,-0.23763 -0.2441,-0.46915 -0.47302,-0.63277c-0.0956,0.10849 -0.2025,0.17946 -0.27669,0.27382c-0.07419,0.09434 -0.16642,0.18557 -0.18988,0.30635c0.02394,0.16443 0.13001,0.28939 0.1967,0.42545c0.0667,0.13604 0.09394,0.28328 0.22141,0.39402c0.17984,-0.25462 0.33833,-0.49498 0.52154,-0.76684zM255.41729,182.8794c0.17269,-0.50529 0.31058,-0.92743 0.44851,-1.34949c0.00671,-0.0345 0.03483,-0.0832 0.00546,-0.12382c-0.08933,-0.21119 -0.1359,-0.45077 -0.34679,-0.61133c-0.11907,0.22927 -0.23477,0.44132 -0.33245,0.65642c0.15727,0.43661 0.19966,0.88929 0.22528,1.42828zM259.31623,187.15919c0.18575,-0.09321 0.25532,-0.2596 0.35428,-0.38535c0.12033,-0.13995 0.18657,-0.28909 0.15131,-0.49109c-0.03985,-0.27407 -0.07971,-0.54817 0.00999,-0.8181c-0.11952,-0.05594 -0.19498,-0.05094 -0.2151,0.05258c-0.0683,0.2557 -0.14001,0.52867 -0.29176,0.73457c-0.20794,0.3033 -0.11402,0.5866 -0.00872,0.90742zM257.60508,186.47652c-0.29138,0.25347 -0.53329,0.44408 -0.75717,0.6377c-0.02348,0.12075 0.0172,0.19897 0.03986,0.27406c0.04067,0.07819 0.05662,0.18778 0.1761,0.24374c0.22519,-0.10434 0.43896,-0.24622 0.63814,-0.40841c-0.01051,-0.23343 -0.04239,-0.45271 -0.09692,-0.74712zM260.27142,187.80255c-0.11196,-0.28632 -0.21264,-0.53509 -0.3099,-0.80109c-0.16979,0.20285 -0.33625,0.38846 -0.50268,0.57402c0.0826,0.24571 0.13252,0.46804 0.31872,0.66c0.19244,-0.12769 0.33414,-0.28186 0.49389,-0.43293zM258.96673,179.75758c-0.23647,0.06675 -0.33415,0.28186 -0.47587,0.43599c-0.04613,0.04563 -0.04486,0.13493 -0.01884,0.19283c0.07465,0.19091 0.1346,0.36147 0.21258,0.53511c-0.00336,0.01726 0.03274,0.02337 0.06878,0.02951c0.17317,-0.22008 0.33157,-0.4605 0.50476,-0.68058c-0.05661,-0.1878 -0.17402,-0.35032 -0.29146,-0.51282zM261.62136,180.76085c-0.03526,-0.202 -0.07381,-0.38677 -0.24866,-0.54123c-0.17442,0.1308 -0.38489,0.25543 -0.51529,0.44714c0.03061,0.12995 0.02519,0.25377 0.07718,0.36951c0.03394,0.11268 -0.01091,0.24765 0.14132,0.32695c0.18782,-0.19977 0.37563,-0.39955 0.54547,-0.60241zM260.79291,187.80202c0.04195,0.1675 0.18745,0.28132 0.32959,0.41238c0.1845,-0.1825 0.39494,-0.30719 0.51402,-0.53643c-0.11742,-0.16253 -0.17068,-0.36757 -0.34219,-0.53927c-0.17317,0.22008 -0.32829,0.44324 -0.50142,0.66333zM263.02212,185.43616c-0.07838,0.30747 -0.08797,0.64444 -0.20245,0.9458c-0.08635,0.25265 0.01307,0.41207 0.20258,0.58684c0.16306,-0.16832 0.23603,-0.35198 0.33033,-0.54981c-0.18074,-0.3158 -0.20721,-0.65892 -0.3305,-0.9828zM254.45458,182.46641c0.07548,-0.00499 0.08551,-0.05675 0.0956,-0.10849c0.06162,-0.22119 0.10856,-0.46273 0.18821,-0.68089c0.13581,-0.31554 -0.01096,-0.51867 -0.20848,-0.74825c-0.05954,0.11467 -0.11232,0.19477 -0.14713,0.27796c-0.0943,0.19784 -0.14923,0.38452 -0.02386,0.60187c0.06669,0.13604 0.07254,0.29747 0.08183,0.44161c-0.03146,0.06594 -0.08426,0.14607 0.01384,0.21619zM254.55343,185.88701c0.10355,-0.05368 0.17108,-0.11352 0.23521,-0.15608c0.20711,-0.10738 0.2914,-0.25348 0.29556,-0.46662c-0.00251,-0.17862 0.05241,-0.36535 0.06789,-0.54092c0.01009,-0.05176 0.03815,-0.10045 -0.08472,-0.13915c-0.13712,0.2262 -0.31024,0.44633 -0.51611,0.64303c-0.04613,0.04563 -0.06286,0.13186 -0.0763,0.20087c0.00923,0.14411 0.02181,0.27105 0.07845,0.45884zM258.97532,187.47552c-0.03859,-0.18475 -0.05579,-0.38369 -0.15186,-0.56042c-0.21717,0.15917 -0.44567,0.28073 -0.61547,0.48356c0.07467,0.19089 0.0952,0.37257 0.27342,0.50979c0.17444,-0.13079 0.36353,-0.24122 0.49389,-0.43295zM259.89929,181.09214c0.21716,-0.15917 0.36558,-0.34782 0.4779,-0.54258c-0.07465,-0.19089 -0.13463,-0.36144 -0.26673,-0.54428c-0.16438,0.07903 -0.28133,0.20174 -0.38362,0.34475c0.06459,0.24262 0.11117,0.48222 0.17238,0.74212zM257.21646,187.99659c0.08473,0.13916 0.12202,0.23457 0.19878,0.31887c0.04403,0.06094 0.0914,0.10463 0.13882,0.14832c0.19705,-0.05563 0.38281,-0.14884 0.52452,-0.30299c-0.05661,-0.1878 -0.11324,-0.37562 -0.2701,-0.52702c-0.19244,0.12769 -0.37818,0.22092 -0.592,0.3628zM254.28284,184.30845c-0.23856,0.17336 -0.4096,0.28684 -0.60542,0.4318c-0.03146,0.06593 -0.0369,0.18973 -0.00292,0.30245c0.01594,0.10961 -0.04358,0.22426 0.04783,0.3289c0.17233,-0.02421 0.29727,-0.09209 0.4109,-0.19754c0.03561,-0.2791 0.08594,-0.53787 0.14964,-0.86563zM257.81575,179.25915c0.07341,0.10159 0.14679,0.20316 0.22013,0.30473c0.07342,0.10159 0.15015,0.18586 0.22351,0.28744c0.16308,-0.16831 0.31613,-0.28491 0.38907,-0.46854c-0.03396,-0.11268 -0.13544,-0.16556 -0.21551,-0.23264c-0.08008,-0.06704 -0.15015,-0.18586 -0.27967,-0.19006c-0.13168,0.10242 -0.25658,0.17027 -0.33751,0.29912zM259.41403,188.47672c-0.11072,-0.197 -0.16062,-0.41937 -0.3502,-0.59411c-0.15302,0.1166 -0.28803,0.23622 -0.44107,0.3528c0.11071,0.197 0.18869,0.37066 0.38831,0.49364c0.14297,-0.06483 0.27926,-0.09514 0.40293,-0.25235zM256.1014,180.89274c0.16855,-0.29214 0.31233,-0.55285 0.4561,-0.81355c-0.05199,-0.11578 -0.08595,-0.22848 -0.20546,-0.28439c-0.23522,0.1561 -0.3723,0.38228 -0.5274,0.60544c0.052,0.11578 0.10399,0.23152 0.17736,0.33309c0.0046,0.07208 0.03731,0.09543 0.09937,0.15943zM256.37914,187.03463c-0.07133,-0.20815 -0.03108,-0.41518 -0.14849,-0.57768c-0.23185,0.13884 -0.44231,0.26349 -0.62682,0.44604c0.10277,0.14221 0.06919,0.3147 0.22939,0.44884c0.19703,-0.05564 0.33543,-0.19255 0.54592,-0.31717zM262.49631,180.57084c-0.14633,0.08208 -0.27795,0.18448 -0.37692,0.31026c0.06797,0.2254 0.11786,0.44771 0.17911,0.70759c0.14503,-0.17137 0.28006,-0.29104 0.45784,-0.43904c-0.06795,-0.22541 -0.12121,-0.43048 -0.26002,-0.57881zM254.56982,186.28186c0.02852,0.23653 0.04575,0.43547 0.19921,0.60411c0.16099,-0.06178 0.30062,-0.10931 0.39958,-0.23509c-0.03188,-0.21926 -0.04575,-0.43543 -0.08896,-0.69228c-0.18575,0.09321 -0.35344,0.18949 -0.50983,0.32331zM260.72943,180.2708c0.16643,-0.18558 0.3849,-0.25545 0.45784,-0.43909c-0.07465,-0.19089 -0.19877,-0.31889 -0.34429,-0.43271c-0.16771,0.09628 -0.33207,0.17528 -0.42306,0.35584c0.09938,0.15944 0.18076,0.31581 0.30949,0.5159zM260.79177,188.47901c-0.10276,-0.1422 -0.16942,-0.27825 -0.31828,-0.37482c-0.16306,0.16832 -0.38489,0.25541 -0.50061,0.46744c0.08472,0.13916 0.17949,0.22653 0.33841,0.27133c0.17107,-0.11352 0.32745,-0.24733 0.48045,-0.36394zM255.3324,180.44135c-0.08136,-0.1564 -0.15808,-0.24065 -0.27424,-0.31392c-0.15304,0.1166 -0.29476,0.27071 -0.33495,0.47773c0.08807,0.12189 0.1761,0.24373 0.26083,0.3829c0.18113,-0.16527 0.23939,-0.36922 0.34838,-0.54674zM263.8752,186.98881c-0.09138,-0.10462 -0.16817,-0.18896 -0.27296,-0.22457c-0.14169,0.15411 -0.24733,0.31443 -0.32027,0.49807c0.07,0.11881 0.14676,0.20313 0.26626,0.25907c0.15976,-0.15109 0.218,-0.35505 0.32698,-0.53256zM257.85303,188.74623c0.06793,0.22538 0.20882,0.26713 0.37445,0.27745c0.12619,0.02145 0.25913,0.00836 0.34005,-0.12047c-0.08136,-0.1564 -0.16605,-0.29552 -0.31156,-0.40934c-0.14633,0.08208 -0.27461,0.16722 -0.40292,0.25235zM263.8319,182.41934c-0.02392,-0.16444 0.00291,-0.30243 -0.10653,-0.41012c-0.41759,0.23205 -0.39118,0.57514 -0.28126,0.96801c0.13039,-0.1917 0.25745,-0.36619 0.3878,-0.55788zM256.25339,188.06474c0.17569,-0.04142 0.30062,-0.10933 0.43897,-0.24622c-0.10947,-0.10766 -0.09398,-0.28327 -0.22479,-0.37676c-0.11155,-0.00114 -0.16099,0.06175 -0.24318,0.10124c-0.0855,0.05674 -0.18238,0.07595 -0.20586,0.19671c0.052,0.11578 0.10402,0.23154 0.23484,0.32503zM259.1301,183.42081c0.17819,0.13718 0.2931,0.12107 0.34127,-0.03113c0.06163,-0.22119 0.08719,-0.44855 0.10938,-0.65862c0.01343,-0.06898 0.01211,-0.15833 -0.08933,-0.2112c-0.1505,0.29522 -0.26493,0.59654 -0.36136,0.90096zM261.81276,188.68802c0.01593,0.10962 0.07801,0.17364 0.18284,0.20929c0.2105,-0.12465 0.45369,-0.22591 0.6088,-0.44906c-0.19625,-0.14025 -0.36525,-0.13334 -0.52496,0.01776c-0.08552,0.05675 -0.2038,0.09016 -0.26667,0.22203zM261.57963,183.65856c0.25238,0.04287 0.31321,0.01749 0.34339,-0.13771c0.0289,-0.24459 0.06118,-0.50641 0.01796,-0.76324c-0.20459,0.28604 -0.3878,0.55789 -0.36136,0.90097zM263.92748,185.85719c-0.04486,0.13492 -0.0683,0.25574 -0.10982,0.37339c-0.06501,0.23846 -0.06496,0.23846 0.2428,0.37986c0.05954,-0.11467 0.14046,-0.24348 0.17187,-0.30941c-0.11742,-0.16254 -0.20212,-0.30163 -0.30487,-0.44382zM260.17633,178.80465c-0.12497,0.06788 -0.29393,0.07485 -0.33082,0.26462c0.0914,0.10463 0.20422,0.19507 0.3103,0.32c0.14635,-0.08208 0.30734,-0.1438 0.38823,-0.27265c-0.10949,-0.10766 -0.19752,-0.22959 -0.36775,-0.31197zM262.56271,187.03331c-0.13369,0.20897 -0.28552,0.41485 -0.41922,0.62382c0.01931,0.09235 0.05995,0.17055 0.17482,0.15443c0.19244,-0.12769 0.35557,-0.29604 0.45321,-0.51113c-0.05199,-0.11578 -0.11071,-0.19699 -0.20886,-0.26712zM263.02971,180.89313c0.12955,0.00419 0.23315,-0.0495 0.32536,-0.14078c-0.02264,-0.07515 -0.0453,-0.15025 -0.06796,-0.22539c-0.03729,-0.09544 -0.05665,-0.18782 -0.15811,-0.24067c-0.10817,-0.01838 -0.20501,0.00079 -0.29391,0.07484c0.06,0.17059 0.13464,0.36146 0.19457,0.53202zM259.54495,179.9449c0.14635,-0.08208 0.24193,-0.1906 0.32285,-0.31942c-0.12411,-0.12801 -0.23021,-0.25293 -0.33964,-0.36061c-0.15431,0.02729 -0.24654,0.11854 -0.2847,0.21899c0.09937,0.15944 0.19877,0.31888 0.30149,0.46111zM263.64691,181.55036c-0.03396,-0.11268 -0.06793,-0.22538 -0.11993,-0.34117c-0.01466,-0.02029 -0.05076,-0.02643 -0.08348,-0.04982c-0.08219,0.03949 -0.19705,0.05562 -0.27796,0.18448c0.02729,0.14723 0.02984,0.32583 0.12921,0.48528c0.16097,-0.06178 0.2532,-0.15305 0.35216,-0.27881zM264.31425,183.19627c0.05491,-0.1867 0.25995,-0.18755 0.29347,-0.36004c-0.0453,-0.15022 -0.03311,-0.30857 -0.15056,-0.47107c-0.14297,0.06483 -0.26794,0.13274 -0.24398,0.29716c0.02392,0.16445 -0.02429,0.31662 0.10108,0.53396zM262.99932,188.14105c0.09559,-0.1085 0.20919,-0.21398 0.30143,-0.30521c0.02139,-0.01418 0.01007,-0.05177 0.01675,-0.08627c-0.08344,-0.04981 -0.15681,-0.15139 -0.32916,-0.12715c-0.11694,0.12271 -0.23731,0.26265 -0.37566,0.39957c0.11278,0.09043 0.21764,0.12605 0.38661,0.11914zM259.17842,178.95597c-0.08805,-0.12189 -0.17277,-0.26102 -0.24615,-0.36256c-0.17233,0.0242 -0.2973,0.09207 -0.40419,0.16304c-0.00544,0.12385 0.11742,0.16248 0.17949,0.22651c0.06209,0.064 0.12078,0.14525 0.25035,0.14943c0.07883,-0.02226 0.16101,-0.06178 0.22055,-0.17642zM254.86759,187.24128c0.0667,0.13604 0.12204,0.2346 0.17738,0.33308c0.01131,0.03757 0.06206,0.06402 0.07675,0.08433c0.12619,0.02145 0.22978,-0.03224 0.322,-0.12354c-0.06334,-0.15331 -0.10864,-0.30358 -0.21131,-0.44579c-0.11823,0.0334 -0.22181,0.08709 -0.36478,0.15191zM264.41757,185.92259c0.11573,-0.21203 0.23141,-0.42404 0.22428,-0.67475c-0.17232,0.02421 -0.31995,0.01696 -0.4369,0.13964c0.03311,0.30858 0.03313,0.30859 0.21261,0.53509zM256.5129,188.35831c0.24281,0.37986 0.26082,0.38289 0.61891,0.26545c-0.08473,-0.13916 -0.1908,-0.26405 -0.27548,-0.40322c-0.12955,-0.00419 -0.2331,0.04951 -0.3434,0.13769zM262.31101,180.18297c-0.06333,-0.15331 -0.13338,-0.27214 -0.2642,-0.36567c-0.03942,0.01113 -0.10023,0.03644 -0.16102,0.06176c-0.04277,0.02839 -0.08891,0.07402 -0.13164,0.10237c0.06335,0.15331 0.1053,0.32084 0.23276,0.4316c0.11822,-0.03339 0.22852,-0.12157 0.32407,-0.23011zM253.94337,186.24676c0.06078,-0.02533 0.14297,-0.06485 0.17108,-0.11353c0.09098,-0.18059 0.08842,-0.35917 -0.00091,-0.57042c-0.12161,0.05062 -0.27252,0.06064 -0.34675,0.15498c0.03859,0.18475 0.01974,0.37759 0.17657,0.52896zM256.09246,179.50118c-0.01465,-0.0203 -0.02935,-0.04063 -0.05869,-0.08124c-0.26123,0.09823 -0.4784,0.25737 -0.69555,0.41652c0.03062,0.12994 0.09268,0.19393 0.23355,0.23569c0.16643,-0.18558 0.35087,-0.3681 0.52071,-0.57096zM260.686,182.79399c-0.15846,0.24041 -0.33158,0.46049 -0.37056,0.75682c-0.00337,0.01726 0.06207,0.06397 0.09811,0.07011c0.09014,0.01528 0.17567,-0.04147 0.1924,-0.12772c0.09769,-0.21508 0.1052,-0.44549 0.08003,-0.69922zM261.83333,179.47809c-0.07001,-0.11884 -0.14006,-0.23765 -0.25285,-0.32809c-0.1262,-0.02145 -0.22306,-0.00224 -0.33668,0.10318c0.1061,0.12495 0.20882,0.26715 0.31826,0.37483c0.11485,-0.01613 0.19703,-0.05565 0.27126,-0.14997zM259.19982,189.0997c0.24906,0.06011 0.46206,0.11414 0.70188,0.03012c-0.02393,-0.16443 -0.13669,-0.25489 -0.27088,-0.33115c-0.16436,0.07903 -0.30733,0.14383 -0.43101,0.30107zM253.23549,184.52266c0.1824,-0.07595 0.20376,-0.0901 0.21385,-0.14189c0.05157,-0.16943 -0.0084,-0.34004 -0.07174,-0.49334c-0.02599,-0.05786 -0.11282,-0.09041 -0.18702,0.0039c0.078,0.17364 -0.03773,0.38569 0.04493,0.63136zM256.79014,179.74442c0.1845,-0.1825 0.38364,-0.34475 0.45863,-0.63496c-0.27586,0.0779 -0.44234,0.2635 -0.60205,0.41457c0.00124,0.08932 0.04865,0.13298 0.14343,0.22036zM255.60305,187.86518c-0.10021,0.03645 -0.19705,0.05565 -0.29726,0.09209c0.05998,0.1706 0.14469,0.30972 0.35307,0.29163c0.05745,-0.00806 0.11485,-0.01614 0.14633,-0.08208c-0.01593,-0.10961 -0.09269,-0.19396 -0.20212,-0.30163zM262.82117,183.69121c0.16228,0.02753 0.24108,0.00532 0.24987,-0.13575c0.00546,-0.12385 0.01087,-0.24766 -0.00172,-0.37455c-0.008,-0.05479 -0.03396,-0.11272 -0.10944,-0.1077c-0.09432,0.19783 -0.13119,0.3876 -0.13872,0.618zM256.03691,182.1827c-0.11573,0.21204 -0.19534,0.43019 -0.18486,0.66364c-0.00336,0.01727 0.06208,0.06397 0.08008,0.06704c0.03603,0.00613 0.08219,-0.03949 0.08888,-0.07402c0.02557,-0.22733 0.10186,-0.42825 0.01588,-0.65672zM255.05753,182.6223c-0.02056,-0.1817 0.01633,-0.3715 -0.05494,-0.57963c-0.13371,0.20895 -0.20667,0.39261 -0.17269,0.5053c0.01593,0.10961 0.08805,0.1219 0.22765,0.07431zM260.98893,189.18966c0.22642,-0.01503 0.47886,0.02784 0.64529,-0.15775c-0.2977,-0.1931 -0.46412,-0.00752 -0.64529,0.15775zM261.34666,186.00704c0.03603,0.00612 0.05751,-0.00807 0.09352,-0.00194c0.01548,-0.17556 0.11777,-0.3186 0.05779,-0.48916c-0.10481,-0.03564 -0.16227,-0.02755 -0.23312,0.04952c0.03062,0.12994 0.05788,0.27713 0.08182,0.44161zM258.31331,182.64052c-0.10102,0.23234 -0.17396,0.41599 -0.19618,0.62607c-0.00671,0.0345 0.02263,0.07513 0.07672,0.08431c0.01806,0.00306 0.05744,-0.00807 0.07883,-0.02227c0.11573,-0.21203 0.15593,-0.41903 0.0406,-0.68811zM254.20963,186.50582c-0.11486,0.01614 -0.17565,0.04144 -0.14967,0.09933c0.03062,0.12994 0.07928,0.26295 0.12792,0.39597c0.04066,0.07819 0.09474,0.08738 0.16225,0.02755c-0.01718,-0.19896 -0.04112,-0.36342 -0.1405,-0.52284zM260.94822,178.95355c0.08219,-0.03949 0.16101,-0.06178 0.24319,-0.10126c0.02139,-0.01417 0.02808,-0.0487 0.05619,-0.09739c-0.21632,-0.03676 -0.40459,-0.12216 -0.65242,-0.09297c0.1061,0.12495 0.18284,0.20926 0.35307,0.29162zM256.72061,184.98974c-0.0155,0.17557 -0.02765,0.33393 -0.04985,0.544c0.21384,-0.14193 0.2981,-0.28797 0.31358,-0.46354c-0.08008,-0.06705 -0.13082,-0.09351 -0.26375,-0.08045zM262.4657,185.51985c0.04865,0.13303 -0.0243,0.31662 0.15392,0.45383c0.13454,-0.40486 0.15131,-0.49108 0.06786,-0.54093c-0.09014,-0.01528 -0.15096,0.01001 -0.22181,0.08709zM257.22479,182.49135c-0.26666,0.22201 -0.30686,0.42904 -0.28505,0.70007c0.29264,-0.16417 0.19532,-0.43015 0.28505,-0.70007zM263.92302,183.00506c-0.24527,0.20783 -0.28217,0.39764 -0.28633,0.61077c-0.00336,0.01726 0.02936,0.04062 0.0654,0.04674c0.05409,0.0092 0.09686,-0.0192 0.10355,-0.05369c0.05158,-0.16943 0.06706,-0.345 0.11736,-0.60378zM263.38152,185.40806c0.02392,0.16444 0.00842,0.34004 0.16522,0.49137c0.08761,-0.16334 0.09975,-0.32166 0.10856,-0.46272c-0.0981,-0.07013 -0.17356,-0.06512 -0.27379,-0.02866zM264.36653,182.06459c-0.09605,-0.17671 -0.05915,-0.36647 -0.22604,-0.4661c-0.10102,0.23234 -0.10102,0.23233 0.05035,0.50753c0.03942,-0.01113 0.07883,-0.02226 0.17568,-0.04145zM261.38429,188.40137c0.26247,-0.0089 0.41886,-0.14272 0.56057,-0.29687c-0.03396,-0.11268 -0.1061,-0.12495 -0.17022,-0.08238c-0.11694,0.12272 -0.25198,0.24236 -0.39031,0.37926zM262.62505,180.00459c0.11155,0.00113 0.20503,-0.00081 0.27922,-0.09513c-0.05534,-0.09849 -0.1107,-0.19703 -0.2155,-0.23262c-0.0935,0.00193 -0.15429,0.02728 -0.20379,0.09017c0.01931,0.09236 0.06334,0.15331 0.14008,0.23762zM259.13834,185.77459c0.08092,-0.1288 0.13711,-0.22623 0.12116,-0.33586c-0.01131,-0.03757 -0.04401,-0.06095 -0.07674,-0.08433c-0.05409,-0.0092 -0.13293,0.01305 -0.12496,0.06786c-0.02012,0.10354 -0.04359,0.22428 0.08055,0.35231zM259.76244,178.53832c-0.15222,-0.07931 -0.31322,-0.01753 -0.46415,-0.00751c0.17277,0.26103 0.20884,0.26711 0.46415,0.00751zM254.05123,182.43355c0.12241,-0.24654 0.12241,-0.24653 -0.01974,-0.37761c-0.05619,0.09739 -0.11571,0.21205 0.01974,0.37761zM260.32862,185.49552c-0.06209,-0.064 -0.11615,-0.07318 -0.14087,-0.04176c-0.11694,0.12272 -0.10899,0.17752 0.02311,0.36035c0.07757,-0.11155 0.09771,-0.2151 0.11781,-0.31861zM264.6534,183.27169c-0.10691,0.07098 -0.19579,0.14498 -0.18322,0.27183c0.29852,-0.00279 0.32324,-0.03418 0.18322,-0.27183zM253.78999,181.76549c-0.13168,0.10242 -0.17652,0.23733 -0.218,0.35501c-0.01343,0.06899 0.03062,0.12997 0.15222,0.07932c0.04148,-0.11769 0.08636,-0.25267 0.0658,-0.43434zM263.90188,181.00552c-0.06959,0.1664 -0.03228,0.26185 0.10527,0.32084c0,0 0.03942,-0.01113 0.04276,-0.02839c0.03813,-0.10046 -0.05659,-0.18781 -0.14802,-0.29249zM257.95714,185.43142c0.11486,-0.01614 0.16438,-0.07903 0.15973,-0.15107c0.00671,-0.0345 -0.02264,-0.07514 -0.05534,-0.09851c-0.03273,-0.02337 -0.09348,0.00193 -0.10018,0.03645c-0.0281,0.0487 -0.04151,0.11768 -0.0042,0.21314zM262.09672,179.27335c0.04865,0.13302 0.1107,0.19702 0.26837,0.15248c-0.06335,-0.15331 -0.12874,-0.20008 -0.26837,-0.15248z" fill="#000000"/><path d="M256.5606,191.46718c0.57358,0.11525 1.14722,0.23049 1.72418,0.32845c0.6491,0.11023 1.31155,0.15144 1.97277,0.10333c0.20838,-0.01808 0.38739,-0.07675 0.61715,-0.10902c-0.05365,0.27605 -0.08252,0.52059 -0.14751,0.75905c-0.35377,1.43689 -0.62074,2.90632 -0.94178,4.36658c-0.29089,1.30499 -0.56037,2.5958 -0.83321,3.90387c-0.19237,0.89402 -0.38141,1.7708 -0.5738,2.6648c-0.18232,0.84228 -0.32522,1.67339 -0.50752,2.51566c-0.01343,0.06901 -0.02684,0.13803 -0.05827,0.20396c-0.28929,0.14692 -0.57651,0.18722 -0.89641,0.2042c-0.50693,0.02084 -1.02516,0.00411 -1.52663,-0.09887c-0.16228,-0.02753 -0.32788,-0.03785 -0.45535,-0.14862c0.16899,-0.00696 0.3392,0.0754 0.5543,0.02285c-0.07253,-0.29744 0.03853,-0.58153 0.07414,-0.86064c0.00336,-0.01726 0.00671,-0.03449 -0.01131,-0.03756c-0.05369,-0.49027 0.04355,-0.99058 0.04727,-1.48895c-0.00253,-0.17862 -0.05916,-0.36646 0.01041,-0.53284c0.10314,-0.3389 0.00454,-0.69424 0.10767,-1.03319c0.00336,-0.01726 -0.00798,-0.05481 -0.00125,-0.08933c0.0096,-0.33693 -0.00213,-0.65973 0.04353,-0.99056c0.07376,-0.37953 -0.00342,-0.74909 0.10639,-1.12248c-0.06459,-0.24262 0.01508,-0.46078 0.04398,-0.70536c0.00671,-0.0345 0.01005,-0.05178 0.01677,-0.08625c-0.07718,-0.36953 0.06533,-0.71956 0.06028,-1.07686c-0.00506,-0.35726 0.10139,-0.71344 0.11436,-1.06766c0.02304,-0.40599 -0.01142,-0.80385 0.12318,-1.20873c0.00671,-0.0345 0.01678,-0.08627 0.00546,-0.12383c-0.07133,-0.20815 0.02303,-0.40597 0.04526,-0.61605c0.02012,-0.10354 0.06161,-0.22118 0.04567,-0.33083c-0.04192,-0.16751 0.00292,-0.30245 0.03309,-0.45774c0.01677,-0.08627 0.05157,-0.16948 0.02889,-0.24458c-0.06459,-0.24262 0.01839,-0.47803 0.06198,-0.70229c0.01677,-0.08627 0.05154,-0.16944 0.02891,-0.24459c-0.05324,-0.20506 0.00164,-0.39178 0.03855,-0.58156c0.06034,-0.31056 -0.0055,-0.64248 0.07288,-0.94993c0.02808,-0.0487 -0.01591,-0.10962 -0.02393,-0.16444z" fill="#87d7dc"/><path d="M256.5606,191.46721c0.00796,0.0548 0.05201,0.11576 0.04195,0.16752c-0.07836,0.30748 -0.03056,0.63636 -0.07287,0.94995c-0.03689,0.18976 -0.0918,0.3765 -0.03855,0.58155c0.02264,0.07515 -0.01214,0.15834 -0.02887,0.24457c-0.04356,0.22427 -0.10858,0.46272 -0.06203,0.70231c0.02264,0.07514 -0.03017,0.15529 -0.02888,0.24459c-0.03017,0.15526 -0.057,0.29329 -0.03309,0.45774c0.01593,0.10961 -0.02557,0.22736 -0.04569,0.33086c-0.02219,0.21007 -0.11652,0.40792 -0.04523,0.61605c0.01131,0.03757 0.00126,0.08932 -0.00545,0.12382c-0.1312,0.38761 -0.10015,0.80279 -0.12317,1.20875c-0.01633,0.3715 -0.12279,0.72762 -0.11441,1.06766c0.00507,0.35725 -0.13745,0.70732 -0.06027,1.07684c0.01465,0.02031 -0.01008,0.05177 -0.01678,0.08628c-0.04356,0.22427 -0.10854,0.46272 -0.04396,0.70539c-0.12787,0.37036 -0.05066,0.73989 -0.10642,1.12247c-0.06371,0.32778 -0.0339,0.65361 -0.04355,0.99057c-0.00671,0.0345 0.00801,0.05484 0.00128,0.08933c-0.10314,0.3389 -0.00454,0.69423 -0.10767,1.03318c-0.0549,0.1867 0.00504,0.35728 -0.01042,0.53285c-0.02176,0.49529 -0.10096,0.99867 -0.04727,1.48893c-0.00336,0.01726 0.01134,0.03757 0.01134,0.03757c-0.0356,0.27911 -0.14672,0.56321 -0.07414,0.86065c-0.19705,0.05564 -0.36395,-0.044 -0.5543,-0.02287c-0.14422,-0.02448 -0.28845,-0.04902 -0.39457,-0.17398c0.02012,-0.10354 0.06161,-0.22118 0.04566,-0.33081c-0.0558,-0.38369 0.03268,-0.74295 0.06702,-1.11138c0.03435,-0.36839 -0.02147,-0.7521 0.10639,-1.12245c-0.06459,-0.24262 0.01503,-0.4608 0.04396,-0.70538c0.00671,-0.0345 0.01676,-0.08626 0.00545,-0.12383c-0.05998,-0.17059 0.00963,-0.33694 0.02177,-0.49531c0.01677,-0.08627 0.0335,-0.17252 0.0289,-0.24458c-0.01639,-0.39486 -0.01143,-0.80386 0.06571,-1.20067c0.01009,-0.05176 0.04153,-0.11771 0.01214,-0.15832c-0.05661,-0.18779 -0.00508,-0.35726 0.02845,-0.52979c0.0549,-0.1867 -0.03779,-0.38067 0.02051,-0.58461c0.07168,-0.27297 0.03181,-0.54705 0.0494,-0.8292c0.0377,-0.38568 -0.00006,-0.7663 0.07708,-1.16308c0.01343,-0.06901 0.04822,-0.15221 0.02219,-0.21009c-0.04527,-0.15027 0.00289,-0.30244 0.01505,-0.46076c0.02683,-0.13801 0.03561,-0.27906 0.02305,-0.40599c-0.02852,-0.23653 -0.02101,-0.46691 0.0259,-0.70845c0.05239,-0.36533 -0.00343,-0.74907 0.12441,-1.11939c0.00671,-0.0345 -0.00123,-0.08931 0.00546,-0.12384c0.01633,-0.3715 0.01458,-0.74599 0.06702,-1.11133c0.07376,-0.37953 0.00328,-0.78358 0.11313,-1.15698c0.01009,-0.05176 -0.01595,-0.10962 -0.02393,-0.16444c0.00752,-0.23039 0.03643,-0.47498 0.13411,-0.69005c0.09351,-0.00193 0.16561,0.01027 0.24109,0.00531c0.24237,0.09463 0.45201,0.16586 0.68305,0.22293z" fill="#b0eef2"/><path d="M265.05099,183.90948c-0.00962,0.33692 -0.04191,0.5988 -0.16432,0.84533c-0.17109,0.11352 -0.37945,0.13162 -0.59116,0.16693c-1.04863,0.12488 -2.09391,0.2325 -3.14844,0.19601c-0.79541,-0.02816 -1.60886,-0.05934 -2.4055,-0.1768c-0.21634,-0.03675 -0.4474,-0.09379 -0.67382,-0.07881c-0.09351,0.00193 -0.20169,-0.01645 -0.30983,-0.0348c-0.41932,-0.1425 -0.85872,-0.18147 -1.28811,-0.2722c-0.60968,-0.12133 -1.20594,-0.31169 -1.79546,-0.53656c-0.29309,-0.12105 -0.58956,-0.22487 -0.90403,-0.33171c-0.24568,-0.07739 -0.44193,-0.21761 -0.64154,-0.34062c-0.06584,-0.33198 -0.06041,-0.45577 0.05612,-0.86369c0.39328,0.08458 0.75181,0.2524 1.13838,0.37153c0.36856,0.11605 0.75514,0.23516 1.12708,0.33398c0.38993,0.10188 0.8013,0.18954 1.19457,0.27415c0.3719,0.09881 0.78198,0.09712 1.14388,0.2477c0.41344,-0.0189 0.80001,0.10023 1.20004,0.15033c0.38198,0.04706 0.78534,0.07989 1.17069,0.10969c0.40337,0.03286 0.81005,0.04845 1.23483,0.06715c0.38869,0.01255 0.79203,0.04541 1.18411,0.04068c0.41006,-0.00166 0.8088,-0.04085 1.22224,-0.05975c0.43146,-0.01584 0.82348,-0.02055 1.25033,-0.10845z" fill="#d1eaeb"/><path d="M255.89221,191.26463c-0.07547,0.00499 -0.1476,-0.00724 -0.24108,-0.00529c-0.09767,0.2151 -0.14125,0.43934 -0.13411,0.69006c0.00796,0.05481 0.03396,0.1127 0.02392,0.16444c-0.10983,0.37339 -0.05737,0.77442 -0.11312,1.15699c-0.07042,0.36229 -0.05068,0.73987 -0.06704,1.11134c-0.00671,0.0345 0.00126,0.08933 -0.00545,0.12382c-0.12788,0.37035 -0.0507,0.73986 -0.12445,1.1194c-0.04356,0.22427 -0.05445,0.47192 -0.0259,0.70844c0.00923,0.14409 0.00045,0.2852 -0.02303,0.40598c-0.03017,0.15526 -0.07502,0.29021 -0.01504,0.46079c0.02598,0.05786 -0.00881,0.14109 -0.02223,0.21009c-0.07376,0.37953 -0.03931,0.77742 -0.07705,1.16308c-0.01761,0.28215 0.02229,0.55623 -0.04941,0.82919c-0.0549,0.1867 0.03777,0.38065 -0.02051,0.58461c-0.05156,0.16945 -0.10647,0.35615 -0.02849,0.5298c0.00796,0.05481 -0.00209,0.10656 -0.01212,0.15831c-0.07713,0.39677 -0.0788,0.78854 -0.06572,1.20066c0.00124,0.08932 -0.0335,0.1725 -0.02891,0.24455c-0.03017,0.15526 -0.0817,0.32473 -0.02174,0.49529c0.01131,0.03757 0.00127,0.08932 -0.00545,0.12381c-0.04356,0.22427 -0.10856,0.46273 -0.04397,0.70538c-0.12786,0.37035 -0.07206,0.75407 -0.10638,1.12245c-0.03435,0.36839 -0.12613,0.74485 -0.06702,1.11132c0.01593,0.10962 -0.02558,0.22734 -0.04567,0.33084c-0.16563,-0.01031 -0.25368,-0.13217 -0.37655,-0.17085c0.05066,-0.73986 0.07661,-1.44832 0.12059,-2.15367c0.03936,-0.77744 0.09337,-1.53456 0.15071,-2.30893c0.04732,-0.72264 0.07659,-1.44832 0.10589,-2.174c0.04481,-0.90127 0.06818,-1.78833 0.10961,-2.67234c0.03726,-0.67089 0.07456,-1.34175 0.09375,-2.01567c0.05356,-1.04234 0.18262,-2.08971 0.20012,-3.13815c0.00879,-0.14106 -0.01848,-0.28826 0.06579,-0.43433c0.16228,0.02753 0.31447,0.10686 0.47006,0.16893c0.08345,0.0498 0.2524,0.04285 0.37992,0.15361z" fill="#87d7dc"/><path d="M255.21101,206.65313c0.38533,0.02979 0.73924,0.12553 1.1279,0.13805c0.44614,0.00449 0.89561,-0.00832 1.36519,-0.12457c-0.19445,1.0006 -0.38556,1.98393 -0.57332,2.95002c-0.23521,0.1561 -0.483,0.18527 -0.71613,0.2348c-0.44486,0.08485 -0.86625,0.04892 -1.30567,0.00994c-0.01806,-0.00306 -0.05072,-0.02643 -0.06542,-0.04674c0.18238,-0.07594 0.1551,-0.22313 0.14587,-0.36729c-0.0231,-0.36036 -0.02818,-0.71761 0.05693,-1.05958c0.01343,-0.06901 0.02682,-0.13802 0.02218,-0.21007c-0.04448,-0.34617 0.0406,-0.68811 0.05021,-1.0251c0.00087,-0.19589 -0.00846,-0.33998 -0.10782,-0.49946z" fill="#61afb4"/><path d="M256.06769,188.92424c0.61092,0.21067 1.2453,0.30058 1.86628,0.45948c0.28511,0.06625 0.58031,0.08071 0.87552,0.09521c0.54761,0.05737 1.0998,0.18677 1.66082,0.17509c0.22307,0.00225 0.44613,0.0045 0.65452,-0.01357c0.13293,-0.01306 0.26246,-0.00891 0.3887,0.01254c0.008,0.05479 0.01928,0.09237 0.01257,0.1269c-0.02684,0.138 -0.05362,0.27601 -0.08044,0.41403c-0.1002,0.03646 -0.17904,0.05867 -0.27588,0.0779c-0.68928,0.09679 -1.39665,0.19054 -2.09984,0.07112c-0.61638,-0.08683 -1.25072,-0.17674 -1.85373,-0.33259c-0.48014,-0.11717 -0.96357,-0.21709 -1.39881,-0.46919c0.09685,-0.01922 0.19498,0.05092 0.28719,-0.04034c0.07294,-0.18364 0.17062,-0.39873 -0.03695,-0.57654z" fill="#61aeb3"/><path d="M256.27576,190.15356c0.31322,0.01755 0.58156,0.17006 0.88471,0.23935c0.64575,0.12747 1.29145,0.25498 1.94723,0.33067c0.52955,0.0543 1.05453,0.03649 1.56816,-0.01884c0.13293,-0.01306 0.26581,-0.02615 0.39873,-0.03922c-0.04693,0.24153 -0.08713,0.44857 -0.13076,0.67283c-0.25659,0.17027 -0.54382,0.21057 -0.84235,0.21338c-0.35598,0.01086 -0.72996,0.01859 -1.09392,-0.02539c-0.82475,-0.06881 -1.61137,-0.23801 -2.41937,-0.39303c-0.14422,-0.02449 -0.28849,-0.04899 -0.39794,-0.15668c0.01677,-0.08627 0.05153,-0.16946 0.02889,-0.24458c-0.03859,-0.18476 0.01967,-0.38875 0.05654,-0.57847z" fill="#61aeb3"/><path d="M255.211,206.65313c0.08473,0.13916 0.11196,0.28632 0.09647,0.46191c-0.00962,0.33694 -0.09472,0.67895 -0.05021,1.02508c0.00461,0.07208 -0.00878,0.1411 -0.0222,0.21011c-0.0704,0.3623 -0.06199,0.70229 -0.05693,1.05957c0.01258,0.1269 0.03652,0.29134 -0.14588,0.36729c-0.2738,-0.02869 -0.51952,-0.10603 -0.73713,-0.23209c-0.00717,-0.25073 -0.03232,-0.50449 0.05066,-0.73988c0.00671,-0.0345 -0.00125,-0.08932 0.00545,-0.12383c0.01297,-0.3542 0.02928,-0.72569 0.06027,-1.07685c0.01214,-0.15832 0.03899,-0.29633 0.0331,-0.45774c-0.01718,-0.19895 0.00499,-0.40905 0.13203,-0.5835c0.0935,-0.00193 0.16561,0.0103 0.24108,0.00532c0.12619,0.02145 0.26711,0.06317 0.39328,0.08459z" fill="#87d7dc"/><path d="M258.16594,180.61961c0.16945,0.27827 0.20594,0.56955 0.2244,0.85788c0.00462,0.07207 -0.01551,0.17559 -0.04693,0.24153c-0.24146,0.4758 -0.41084,0.96386 -0.56216,1.45495c-0.00336,0.01726 -0.02808,0.04868 -0.04947,0.0629c-0.08219,0.03949 -0.17234,0.02423 -0.25241,-0.04284c0.00671,-0.0345 -0.00465,-0.07209 0.00208,-0.10658c0.09853,-0.41094 0.14293,-0.83114 0.09383,-1.24935c-0.01385,-0.2162 0.02303,-0.406 0.15341,-0.59769c0.15177,-0.20588 0.24943,-0.42097 0.43728,-0.62078z" fill="#cce5e6"/><path d="M256.57791,183.04085c-0.11823,0.0334 -0.18699,0.00389 -0.23102,-0.05705c0.1249,-0.8342 0.12487,-0.83419 -0.02278,-1.60774c0.09306,-0.28717 0.27625,-0.55899 0.42007,-0.81969c0.13293,-0.01306 0.1308,0.09349 0.15681,0.15137c0.08933,0.21119 0.18201,0.40516 0.2319,0.6275c0.02728,0.14723 0.02179,0.27104 -0.04106,0.40288c-0.19201,0.41295 -0.36932,0.84614 -0.51395,1.30274z" fill="#cce5e6"/><path d="M254.79969,206.56546c-0.07548,0.00499 -0.14762,-0.00725 -0.24108,-0.00531c-0.12703,0.17446 -0.14923,0.38452 -0.13202,0.58351c0.0059,0.1614 -0.02092,0.2994 -0.0331,0.45775c-0.031,0.35117 -0.04732,0.72262 -0.06028,1.07684c-0.00671,0.0345 0.00127,0.08934 -0.00546,0.12383c-0.06831,0.25571 -0.03981,0.49222 -0.05069,0.73986c-0.13753,-0.05898 -0.25705,-0.11495 -0.38117,-0.24296c0.03979,-0.49223 0.04686,-1.00787 0.10802,-1.51428c0.03979,-0.49223 0.00747,-0.9967 0.10803,-1.51425c0.2851,0.06625 0.48806,0.17198 0.68767,0.29495z" fill="#60adb2"/><path d="M260.68125,185.50194c0.07547,-0.005 0.13294,-0.01305 0.20839,-0.01807c0.02937,0.04063 0.044,0.06094 0.05868,0.08123c0.01513,0.30552 0.08769,0.60299 0.17825,0.90348c0.03062,0.12995 0.02854,0.23655 -0.04903,0.34809c-0.13709,0.22621 -0.24144,0.4758 -0.51609,0.64302c-0.17275,-0.26102 -0.24534,-0.55847 -0.29985,-0.85287c-0.008,-0.05479 0.02686,-0.13801 0.05826,-0.20394c0.1144,-0.30132 0.22889,-0.60273 0.36137,-0.901z" fill="#cce5e6"/><path d="M261.78194,181.18017c0.03861,0.18474 0.07254,0.29747 0.10317,0.42742c0.04655,0.2396 0.02435,0.44965 -0.13076,0.67282c-0.24275,0.38645 -0.43471,0.79943 -0.51855,1.2307c-0.02684,0.13801 -0.04821,0.15218 -0.26123,0.09823c0.01007,-0.05176 0.00207,-0.10657 0.01215,-0.15835c0.10185,-0.42822 0.12823,-0.85143 0.10051,-1.28385c0.00212,-0.10658 0.00083,-0.19589 0.05362,-0.27605c0.19452,-0.2343 0.35302,-0.47467 0.64107,-0.71088z" fill="#cae2e3"/><path d="M258.70204,183.41941c-0.01465,-0.0203 -0.02603,-0.05792 -0.02264,-0.07515c0.11316,-0.39063 0.11481,-0.78242 0.0951,-1.16005c-0.00507,-0.35725 0.05863,-0.68507 0.30265,-0.9822c0.12033,-0.13995 0.17521,-0.32666 0.32828,-0.44323c0.21809,0.41126 0.2097,0.83756 0.00974,1.19565c-0.23477,0.44131 -0.4842,0.86227 -0.56341,1.36566c-0.02808,0.0487 -0.04152,0.11769 -0.14969,0.09934z" fill="#c9e1e2"/><path d="M260.51654,180.98311c0.12665,0.30665 0.15183,0.56039 0.17365,0.83141c0.00124,0.08932 -0.01551,0.17557 -0.06498,0.23847c-0.25615,0.4555 -0.47958,0.93434 -0.66697,1.41931c-0.00671,0.0345 -0.03477,0.08318 -0.12159,0.05063c0.02348,-0.12075 0.05029,-0.25875 0.05575,-0.38259c0.04904,-0.34808 0.08001,-0.69924 0.03552,-1.04539c-0.02521,-0.25378 0.03644,-0.47497 0.20289,-0.66055c0.12033,-0.13995 0.23727,-0.26269 0.3857,-0.45133z" fill="#c9e1e2"/><path d="M261.85064,185.52233c0.12498,-0.06787 0.21512,-0.05257 0.30525,-0.03727c0.01466,0.02029 0.02603,0.0579 0.04065,0.07819c-0.01759,0.28215 0.04031,0.5593 0.159,0.81111c0.06332,0.15331 0.05452,0.29439 -0.02975,0.44048c-0.10897,0.17751 -0.20329,0.37536 -0.34501,0.52953c-0.16814,-0.18894 -0.34892,-0.50478 -0.35815,-0.64893c-0.01931,-0.09236 0.03015,-0.15527 0.06499,-0.23846c0.03898,-0.29632 0.17143,-0.59464 0.16304,-0.93461z" fill="#cae3e4"/><path d="M255.46324,185.61382c0.23392,-0.2454 0.41381,-0.49998 0.57899,-0.7749c0.11485,-0.01613 0.18703,-0.00389 0.26711,0.06316c0.0298,0.32581 -0.0767,0.68197 -0.02886,1.01088c-0.12704,0.17445 -0.29138,0.25347 -0.4444,0.37007c-0.0855,0.05674 -0.15635,0.13381 -0.28593,0.12964c-0.10065,-0.24877 -0.02896,-0.52172 -0.08685,-0.79887z" fill="#c8e0e1"/><path d="M258.50558,185.2929c0.1589,0.0448 0.16353,0.11687 0.16815,0.18894c0.02184,0.27105 0.047,0.52477 0.05081,0.79274c0.00462,0.07208 -0.00878,0.14108 -0.05825,0.20398c-0.16308,0.16831 -0.34422,0.33358 -0.53999,0.47858c-0.07001,-0.11881 -0.06794,-0.22541 -0.10191,-0.3381c-0.10189,-0.33807 -0.06295,-0.63441 0.22506,-0.87065c0.13503,-0.11965 0.2046,-0.28604 0.25613,-0.4555z" fill="#cbe4e5"/><path d="M257.36969,185.1c0.09014,0.01528 0.14423,0.02447 0.19833,0.03365c0.01131,0.03757 0.044,0.06096 0.04066,0.07819c-0.00087,0.19589 -0.01966,0.38874 -0.02049,0.58462c-0.00212,0.10659 -0.0369,0.18977 -0.10776,0.26684c-0.21254,0.23122 -0.43981,0.44212 -0.72114,0.64385c-0.09606,-0.17669 -0.08388,-0.33501 -0.07174,-0.49333c0.01343,-0.06898 0.02685,-0.13802 0.07291,-0.18363c0.28804,-0.23623 0.46328,-0.56289 0.60918,-0.93018z" fill="#c8e0e1"/><path d="M256.27576,190.15354c-0.03689,0.18976 -0.09517,0.39374 -0.04187,0.59883c0.02264,0.07514 -0.01217,0.1583 -0.02891,0.24457c-0.30984,-0.0348 -0.58827,-0.13553 -0.83524,-0.30225c0.08301,-0.2354 0.05782,-0.48914 0.06198,-0.70228c0.14297,-0.06483 0.25913,0.00836 0.37398,-0.00779c0.16563,0.01031 0.34258,0.05819 0.47006,0.16892z" fill="#85d5d9"/><path d="M262.98789,182.25822c-0.14045,0.24347 -0.28085,0.48694 -0.40665,0.7507c-0.10104,0.23234 -0.01044,0.53285 -0.3312,0.74568c0.11398,-0.58653 0.08838,-1.12554 0.06276,-1.66451c0.12704,-0.17445 0.27543,-0.36311 0.48593,-0.48774c0.02937,0.04063 0.04402,0.06095 0.05869,0.08123c0.05662,0.1878 0.09522,0.3726 0.13045,0.57457z" fill="#c6dede"/><path d="M257.99398,180.16269c-0.18322,0.27187 -0.34165,0.51223 -0.52487,0.7841c-0.12411,-0.12801 -0.1514,-0.27521 -0.22143,-0.39401c-0.0667,-0.13604 -0.17277,-0.26104 -0.19668,-0.42546c0.02348,-0.12075 0.1157,-0.21203 0.18988,-0.30634c0.07419,-0.09433 0.16646,-0.18557 0.27672,-0.2738c0.2323,0.14638 0.33628,0.3779 0.47636,0.61555z" fill="#cae3e3"/><path d="M255.41729,182.8794c-0.02564,-0.53899 -0.06803,-0.99171 -0.22195,-1.44552c0.11573,-0.21204 0.21339,-0.4271 0.33246,-0.65638c0.20758,0.17781 0.2575,0.40014 0.34679,0.61131c0.01131,0.03757 0.00125,0.08934 -0.00546,0.12382c-0.13791,0.42209 -0.27581,0.84422 -0.45185,1.36674z" fill="#cae3e4"/><path d="M259.31623,187.15916c-0.12665,-0.30664 -0.22062,-0.58991 0.00873,-0.90737c0.15512,-0.22316 0.22345,-0.47888 0.29176,-0.73458c0.02012,-0.10353 0.1136,-0.10547 0.2151,-0.0526c-0.08968,0.26989 -0.04985,0.544 -0.00998,0.81809c0.03525,0.202 -0.03098,0.35115 -0.15131,0.49111c-0.09895,0.12575 -0.16521,0.2749 -0.35431,0.38536z" fill="#c8e0e1"/><path d="M256.06769,188.92422c0.20422,0.19507 0.10987,0.39287 0.05161,0.59685c-0.09222,0.09124 -0.19369,0.0384 -0.28717,0.04035c-0.23101,-0.05706 -0.43397,-0.16282 -0.63024,-0.30308c0.0549,-0.1867 0.01969,-0.38871 0.14334,-0.54592c0.09351,-0.00193 0.14761,0.00725 0.21971,0.01948c0.17361,0.06512 0.34719,0.1302 0.50275,0.19229z" fill="#85d4d9"/><path d="M257.60508,186.47651c0.05788,0.27714 0.08643,0.51365 0.133,0.75324c-0.19915,0.1622 -0.41295,0.30412 -0.63815,0.40843c-0.11952,-0.05593 -0.13544,-0.16557 -0.17612,-0.24374c-0.04067,-0.07819 -0.08135,-0.15637 -0.03983,-0.27407c0.1845,-0.1825 0.42973,-0.39035 0.72113,-0.64385z" fill="#c7dfe0"/><path d="M260.27142,187.80255c-0.15976,0.15109 -0.30145,0.3052 -0.51193,0.42988c-0.1862,-0.192 -0.2361,-0.41431 -0.31872,-0.66002c0.16644,-0.18558 0.33287,-0.37119 0.50269,-0.57403c0.13335,0.27214 0.21598,0.5179 0.32794,0.80418z" fill="#c8e0e1"/><path d="M258.96673,179.75757c0.11742,0.16254 0.2348,0.32502 0.28809,0.5301c-0.15512,0.22316 -0.32827,0.44324 -0.50477,0.68056c-0.03603,-0.00613 -0.0721,-0.01225 -0.06874,-0.02951c-0.07801,-0.17364 -0.15263,-0.3645 -0.21262,-0.53508c-0.02264,-0.07515 -0.02729,-0.14722 0.01882,-0.19283c0.14842,-0.18864 0.24275,-0.38647 0.47923,-0.45328z" fill="#c4dcdd"/><path d="M261.62136,180.76085c-0.18782,0.19977 -0.35763,0.4026 -0.54547,0.6024c-0.13415,-0.07626 -0.10733,-0.21425 -0.14131,-0.32696c-0.03396,-0.11268 -0.04657,-0.23959 -0.07719,-0.36952c0.13038,-0.1917 0.33753,-0.29904 0.51531,-0.44712c0.17483,0.15442 0.21343,0.33921 0.24865,0.54121z" fill="#c8e0e1"/><path d="M260.79291,187.80202c0.17317,-0.22008 0.32494,-0.42601 0.50145,-0.66333c0.15349,0.16861 0.20673,0.37372 0.34219,0.53929c-0.11909,0.22926 -0.32955,0.35393 -0.51402,0.53642c-0.16018,-0.13412 -0.28765,-0.24487 -0.32957,-0.41238z" fill="#c6ddde"/><path d="M263.02212,185.43614c0.12331,0.32391 0.14977,0.66698 0.33385,0.96555c-0.09431,0.19784 -0.16728,0.3815 -0.33036,0.54982c-0.19287,-0.1575 -0.28894,-0.33421 -0.20258,-0.58684c0.11443,-0.30132 0.13873,-0.61799 0.19908,-0.92854z" fill="#b9cfd0"/><path d="M254.45458,182.46641c-0.0981,-0.07013 -0.0273,-0.14722 -0.0319,-0.21925c-0.00588,-0.16139 0.00625,-0.31968 -0.08182,-0.44161c-0.10735,-0.21427 -0.05248,-0.40095 0.02385,-0.60186c0.03482,-0.0832 0.0876,-0.16334 0.14715,-0.27797c0.19754,0.22956 0.34428,0.43272 0.20847,0.74823c-0.09766,0.2151 -0.1266,0.45968 -0.18821,0.68088c-0.01009,0.05175 -0.02012,0.10352 -0.07756,0.11158z" fill="#c0d8d8"/><path d="M254.55347,185.88701c-0.05998,-0.17059 -0.0692,-0.3147 -0.0424,-0.4527c0.01343,-0.06898 0.03014,-0.15529 0.07627,-0.2009c0.20587,-0.19671 0.36097,-0.41986 0.51611,-0.64302c0.12619,0.02146 0.09475,0.08737 0.08472,0.13916c-0.03353,0.17252 -0.0704,0.3623 -0.06787,0.54093c-0.00753,0.23039 -0.0918,0.37647 -0.29557,0.46664c-0.10021,0.03645 -0.16436,0.07902 -0.27124,0.14995z" fill="#c1d9d9"/><path d="M258.97532,187.47552c-0.14503,0.17137 -0.31615,0.2849 -0.4939,0.43292c-0.17821,-0.13718 -0.19537,-0.33612 -0.27342,-0.50978c0.16979,-0.20285 0.39828,-0.32443 0.61547,-0.48357c0.09267,0.19396 0.11323,0.37568 0.15185,0.56044z" fill="#c3dbdc"/><path d="M259.89929,181.09216c-0.06127,-0.2599 -0.1078,-0.49951 -0.17239,-0.74214c0.10228,-0.14305 0.20124,-0.26877 0.38362,-0.34475c0.13545,0.16559 0.19205,0.35339 0.26675,0.54429c-0.11573,0.21203 -0.26074,0.3834 -0.47792,0.54256z" fill="#c3dadb"/><path d="M257.21646,187.99659c0.2105,-0.12465 0.39956,-0.23509 0.58864,-0.34555c0.15683,0.15137 0.21344,0.3392 0.27006,0.52701c-0.15638,0.13384 -0.32407,0.23011 -0.52447,0.30296c-0.04738,-0.0437 -0.10943,-0.10771 -0.13879,-0.1483c-0.07002,-0.11881 -0.10735,-0.21424 -0.19541,-0.33616z" fill="#c4dbdc"/><path d="M254.28286,184.30846c-0.06372,0.32781 -0.11402,0.58659 -0.16761,0.86259c-0.11363,0.10547 -0.23859,0.17333 -0.41087,0.19751c-0.09138,-0.10463 -0.03188,-0.21927 -0.0478,-0.3289c-0.01594,-0.10961 -0.01385,-0.2162 0.00289,-0.30247c0.21385,-0.14194 0.3849,-0.25545 0.62346,-0.42876z" fill="#c2d9da"/><path d="M257.81575,179.25917c0.09895,-0.12575 0.20917,-0.21399 0.33079,-0.26461c0.14758,0.00725 0.1996,0.12305 0.27967,0.19007c0.08007,0.06702 0.1849,0.10267 0.21552,0.23261c-0.06958,0.1664 -0.22597,0.30022 -0.38905,0.4686c-0.07341,-0.10159 -0.1468,-0.20315 -0.22351,-0.28747c-0.07001,-0.11881 -0.14007,-0.23762 -0.21346,-0.33921z" fill="#c5ddde"/><path d="M259.41403,188.47672c-0.12369,0.15723 -0.27798,0.18449 -0.40626,0.26962c-0.18155,-0.11996 -0.2776,-0.29665 -0.38834,-0.49364c0.15302,-0.11659 0.30608,-0.23316 0.4411,-0.35281c0.19286,0.15751 0.24281,0.37985 0.3535,0.57684z" fill="#c3dbdc"/><path d="M256.1014,180.89274c-0.06209,-0.064 -0.09143,-0.10459 -0.1208,-0.1452c-0.05534,-0.09849 -0.10736,-0.21427 -0.17738,-0.33309c0.17317,-0.22008 0.2922,-0.44937 0.52742,-0.60546c0.11952,0.05593 0.15685,0.15137 0.20548,0.28439c-0.12241,0.24653 -0.26957,0.52448 -0.43471,0.79941z" fill="#c7dfe0"/><path d="M256.37905,187.03464c-0.20711,0.10739 -0.34882,0.26151 -0.56391,0.3141c-0.14215,-0.13109 -0.12331,-0.32388 -0.2294,-0.44882c0.20588,-0.19671 0.41296,-0.30413 0.62681,-0.44602c0.15014,0.1859 0.11323,0.37564 0.16654,0.58073z" fill="#c7dee0"/><path d="M255.80915,189.96738c-0.11486,0.01614 -0.23101,-0.05708 -0.37399,0.00779c-0.00753,0.23039 -0.0004,0.48108 -0.06199,0.70229c-0.06878,-0.0295 -0.15556,-0.06207 -0.22097,-0.10878c-0.0981,-0.07013 -0.15345,-0.16863 -0.13001,-0.28942c0.02219,-0.21006 0.04103,-0.40288 0.06327,-0.61299c0.2344,0.0398 0.33922,0.07543 0.72372,0.30112z" fill="#61acb1"/><path d="M262.75635,181.14962c-0.15976,0.15109 -0.29472,0.27069 -0.47252,0.41874c-0.06459,-0.24263 -0.13254,-0.468 -0.17911,-0.70759c0.11694,-0.12271 0.2306,-0.22815 0.37692,-0.31024c0.15013,0.18589 0.20673,0.37369 0.27468,0.59908z" fill="#c2dada"/><path d="M254.56982,186.28186c0.15976,-0.15109 0.32409,-0.2301 0.51322,-0.34054c0.0252,0.25378 0.05707,0.47305 0.08895,0.69233c-0.10228,0.14304 -0.23857,0.17334 -0.39956,0.23509c-0.1388,-0.1483 -0.15602,-0.3473 -0.20258,-0.58684z" fill="#c1d9d9"/><path d="M260.72943,180.27078c-0.12873,-0.20009 -0.21008,-0.35645 -0.30947,-0.51593c0.08761,-0.16333 0.25533,-0.2596 0.42306,-0.35586c0.14548,0.11382 0.2696,0.24182 0.34427,0.43271c-0.09432,0.19783 -0.29142,0.25347 -0.45784,0.43908z" fill="#c6dedf"/><path d="M260.79177,188.47901c-0.15637,0.13383 -0.32746,0.24735 -0.48047,0.36394c-0.1589,-0.0448 -0.25368,-0.13217 -0.33841,-0.27133c0.11573,-0.21203 0.33753,-0.29905 0.50061,-0.46743c0.14888,0.09655 0.21552,0.23262 0.31828,0.37482z" fill="#c0d7d7"/><path d="M255.33245,180.44134c-0.10898,0.17751 -0.16728,0.38147 -0.36305,0.52646c-0.08473,-0.13916 -0.17277,-0.26106 -0.26084,-0.38291c0.04025,-0.20699 0.16392,-0.3642 0.33497,-0.47771c0.13416,0.07626 0.20754,0.1778 0.28892,0.33416z" fill="#c3dadb"/><path d="M255.58296,188.73498c-0.07213,-0.01225 -0.14761,-0.00723 -0.21975,-0.01946c-0.12369,0.15724 -0.08847,0.3592 -0.14334,0.54592c-0.12955,-0.00419 -0.18157,-0.11996 -0.30442,-0.15862c-0.02853,-0.23652 0.06576,-0.43436 -0.01685,-0.68005c0.18364,0.01339 0.28174,0.08348 0.39795,0.15668c0.08346,0.04979 0.21637,0.03677 0.28638,0.15556z" fill="#5aa0a4"/><path d="M263.8752,186.98881c-0.10898,0.1775 -0.16729,0.38151 -0.34168,0.51227c-0.11952,-0.05593 -0.17823,-0.13722 -0.2663,-0.25906c0.07295,-0.18366 0.18194,-0.36117 0.32028,-0.49808c0.11952,0.05594 0.18157,0.11995 0.28764,0.24488z" fill="#bdd3d4"/><path d="M257.85303,188.74622c0.14635,-0.08208 0.27463,-0.1672 0.4029,-0.25234c0.14549,0.11383 0.23022,0.25296 0.31158,0.40932c-0.08092,0.1288 -0.21385,0.14194 -0.34004,0.12049c-0.16227,-0.02752 -0.32451,-0.05508 -0.37445,-0.27744z" fill="#bdd4d5"/><path d="M263.83195,182.41936c-0.13038,0.19169 -0.25743,0.36618 -0.38778,0.55787c-0.10989,-0.39287 -0.13631,-0.73597 0.28127,-0.96801c0.09138,0.10463 0.0826,0.24571 0.10652,0.41013z" fill="#bbd2d3"/><path d="M256.25339,188.06472c-0.1308,-0.09351 -0.18283,-0.20928 -0.2348,-0.32504c0.02348,-0.12075 0.12034,-0.13996 0.20588,-0.1967c0.06414,-0.04256 0.13163,-0.10237 0.24318,-0.10124c0.1308,0.09351 0.09731,0.26599 0.22478,0.37675c-0.13835,0.13691 -0.2813,0.20174 -0.43894,0.24626z" fill="#c3dadb"/><path d="M259.1301,183.42081c0.09645,-0.30439 0.19282,-0.6088 0.36137,-0.90096c0.1048,0.03563 0.10612,0.12496 0.08931,0.2112c-0.02557,0.22733 -0.06912,0.45156 -0.10937,0.65859c-0.03017,0.15526 -0.14507,0.17142 -0.34129,0.03115z" fill="#b1c6c7"/><path d="M261.81276,188.68802c0.06285,-0.13188 0.18111,-0.16528 0.26999,-0.23928c0.15975,-0.1511 0.32537,-0.14079 0.52499,-0.01777c-0.15512,0.22315 -0.40168,0.34166 -0.60877,0.44906c-0.12286,-0.03868 -0.17026,-0.08237 -0.1862,-0.192z" fill="#bbd2d3"/><path d="M261.57963,183.65856c-0.00842,-0.34004 0.17478,-0.61185 0.34331,-0.90404c0.06126,0.2599 0.01092,0.51867 -0.01796,0.76324c-0.01214,0.15833 -0.07294,0.18368 -0.32535,0.14078z" fill="#bad1d2"/><path d="M263.92748,185.85721c0.09938,0.15945 0.20546,0.2844 0.30485,0.44381c-0.0348,0.0832 -0.11235,0.19478 -0.17189,0.30941c-0.30779,-0.14137 -0.30443,-0.15862 -0.24281,-0.37985c0.02349,-0.12075 0.06499,-0.23847 0.10983,-0.3734z" fill="#b5cbcc"/><path d="M260.17633,178.80465c0.17022,0.08238 0.26169,0.18699 0.35307,0.29162c-0.08426,0.14609 -0.24193,0.19057 -0.38823,0.27267c-0.10947,-0.10766 -0.20082,-0.21231 -0.31028,-0.32c0.0482,-0.15219 0.21716,-0.15917 0.34548,-0.2443z" fill="#c0d7d8"/><path d="M262.56271,187.03331c0.10144,0.05289 0.15685,0.15136 0.20886,0.26713c-0.09769,0.21508 -0.26076,0.38343 -0.45321,0.51112c-0.12955,-0.00419 -0.15556,-0.06206 -0.17483,-0.15442c0.13369,-0.20897 0.26747,-0.41794 0.41924,-0.62382z" fill="#bdd4d4"/><path d="M263.02975,180.89311c-0.07801,-0.17364 -0.13462,-0.36144 -0.21263,-0.53509c0.0889,-0.074 0.18575,-0.09321 0.29392,-0.07486c0.10144,0.05288 0.12078,0.14523 0.15809,0.24066c0.02264,0.07515 0.0453,0.15025 0.06795,0.2254c-0.07421,0.09435 -0.15974,0.1511 -0.30736,0.14385z" fill="#b6cccc"/><path d="M259.54495,179.9449c-0.09937,-0.15945 -0.18408,-0.29857 -0.30152,-0.4611c0.03813,-0.10044 0.11234,-0.1948 0.28469,-0.219c0.10948,0.10766 0.21554,0.23261 0.33964,0.36061c-0.09895,0.12575 -0.17649,0.23736 -0.32284,0.31943z" fill="#c1d9d9"/><path d="M263.64691,181.55034c-0.09895,0.12575 -0.19117,0.21705 -0.33415,0.28185c-0.09938,-0.15945 -0.10189,-0.33811 -0.12917,-0.48529c0.06285,-0.13188 0.17776,-0.14802 0.27795,-0.18447c0.05073,0.02644 0.08679,0.03257 0.08346,0.04979c0.03394,0.11269 0.06793,0.22538 0.10189,0.33811z" fill="#b7cdce"/><path d="M264.31425,183.19628c-0.10734,-0.21428 -0.07719,-0.36953 -0.08308,-0.53092c-0.02058,-0.18171 0.10103,-0.23234 0.24398,-0.29717c0.09938,0.15945 0.10526,0.32083 0.15056,0.4711c-0.06959,0.16639 -0.25995,0.18754 -0.3115,0.35699z" fill="#b6cccc"/><path d="M263.30408,187.81856c-0.11696,0.12271 -0.20918,0.21396 -0.30478,0.32248c-0.16563,-0.01031 -0.2738,-0.02869 -0.38324,-0.13636c0.13836,-0.1369 0.25868,-0.27686 0.37563,-0.39956c0.17231,-0.02423 0.22429,0.09157 0.32915,0.12716c-0.00671,0.0345 0.00463,0.07209 -0.01674,0.08628z" fill="#c2dada"/><path d="M259.17842,178.95595c-0.07757,0.11155 -0.14169,0.15414 -0.23856,0.17336c-0.11155,-0.00113 -0.17022,-0.08237 -0.25034,-0.14942c-0.06208,-0.064 -0.18491,-0.10268 -0.17948,-0.22651c0.11027,-0.08818 0.2352,-0.15607 0.4042,-0.16303c0.1061,0.12494 0.17613,0.24377 0.2642,0.36566z" fill="#bbd2d3"/><path d="M254.86759,187.24128c0.14297,-0.06482 0.24654,-0.11853 0.36812,-0.16917c0.10277,0.1422 0.14802,0.29246 0.21137,0.44581c-0.09222,0.09125 -0.19581,0.14499 -0.322,0.1235c-0.03273,-0.02337 -0.06539,-0.04676 -0.07675,-0.08433c-0.05869,-0.08123 -0.11406,-0.17979 -0.18074,-0.31584z" fill="#bbd2d3"/><path d="M264.41757,185.92259c-0.17949,-0.22652 -0.1795,-0.22652 -0.21261,-0.53508c0.11698,-0.12271 0.26457,-0.11545 0.43688,-0.13963c0.00716,0.25073 -0.12657,0.45967 -0.22426,0.67475z" fill="#adc2c3"/><path d="M256.51298,188.35831c0.09222,-0.09125 0.21386,-0.1419 0.34339,-0.1377c0.10277,0.1422 0.19083,0.26402 0.27548,0.40318c-0.34004,0.12048 -0.35806,0.11744 -0.61891,-0.26545z" fill="#b5cbcc"/><path d="M262.31101,180.18298c-0.11362,0.10548 -0.20252,0.17945 -0.34549,0.24427c-0.12745,-0.11073 -0.15137,-0.27521 -0.23274,-0.4316c0.04613,-0.04563 0.08887,-0.07398 0.13163,-0.10239c0.04277,-0.02839 0.1002,-0.03646 0.16101,-0.06178c0.15221,0.07931 0.22222,0.19811 0.28558,0.35146z" fill="#bbd1d2"/><path d="M253.94338,186.24676c-0.15683,-0.15138 -0.13462,-0.36145 -0.19797,-0.51476c0.0956,-0.10849 0.22517,-0.10436 0.34678,-0.15498c0.08934,0.21118 0.09185,0.38984 0.00087,0.57041c-0.01008,0.05175 -0.08888,0.07401 -0.14967,0.09933z" fill="#b6cccd"/><path d="M256.09246,179.50116c-0.16979,0.20285 -0.35429,0.38535 -0.52071,0.57093c-0.12286,-0.03869 -0.1849,-0.10266 -0.23356,-0.23567c0.21716,-0.15917 0.43434,-0.3183 0.69555,-0.41652c0.02937,0.04065 0.04402,0.06095 0.0587,0.08123z" fill="#acc1c2"/><path d="M260.686,182.79399c0.01051,0.23346 0.00298,0.46386 -0.07668,0.68198c-0.03482,0.0832 -0.10229,0.14302 -0.19243,0.12772c-0.03602,-0.00613 -0.10145,-0.05289 -0.09811,-0.07014c0.03226,-0.26183 0.20875,-0.49917 0.36721,-0.73957z" fill="#a7bbbb"/><path d="M261.83333,179.47809c-0.05619,0.0974 -0.15638,0.13384 -0.27461,0.16721c-0.1061,-0.12494 -0.21218,-0.24989 -0.31828,-0.37483c0.09895,-0.12575 0.21048,-0.12463 0.33667,-0.1032c0.0981,0.07013 0.1862,0.19199 0.25621,0.31084z" fill="#b7cdcd"/><path d="M259.19982,189.09969c0.12369,-0.15724 0.26666,-0.22201 0.42765,-0.28381c0.13416,0.07626 0.22895,0.16363 0.27088,0.33114c-0.23647,0.06676 -0.44949,0.01276 -0.69854,-0.04732z" fill="#b7cece"/><path d="M253.23549,184.52266c-0.08598,-0.22845 0.02973,-0.44046 -0.02691,-0.62828c0.09222,-0.09124 0.161,-0.06175 0.18702,-0.00387c0.06334,0.15331 0.10528,0.32085 0.07173,0.49334c-0.02809,0.0487 -0.03146,0.06593 -0.23186,0.13884z" fill="#b4cacb"/><path d="M256.79014,179.74441c-0.0981,-0.07011 -0.14216,-0.13106 -0.16147,-0.22342c0.15975,-0.1511 0.32284,-0.31942 0.60208,-0.41457c-0.03898,0.29632 -0.23477,0.44128 -0.44062,0.63801z" fill="#b2c8c9"/><path d="M255.60305,187.86518c0.10947,0.10766 0.18619,0.192 0.20212,0.30163c-0.03144,0.06594 -0.08889,0.07404 -0.14635,0.08209c-0.22975,0.03226 -0.29644,-0.10383 -0.35305,-0.29162c0.09685,-0.01922 0.19707,-0.05566 0.29727,-0.0921z" fill="#b5cbcb"/><path d="M262.82117,183.69121c0.02556,-0.22733 0.06242,-0.41707 0.15675,-0.61489c0.0935,-0.00192 0.1195,0.05593 0.10945,0.10767c-0.00546,0.12384 0.00715,0.25074 0.0017,0.37454c-0.02684,0.13801 -0.10564,0.16024 -0.2679,0.13267z" fill="#91a3a3"/><path d="M256.03691,182.18272c0.08598,0.22845 0.02436,0.44966 -0.01589,0.65667c-0.00671,0.0345 -0.04948,0.0629 -0.08889,0.074c-0.03603,-0.00613 -0.08345,-0.04979 -0.0801,-0.06707c-0.00716,-0.25073 0.07249,-0.46886 0.18486,-0.66363z" fill="#99abac"/><path d="M255.05754,182.62231c-0.13962,0.04758 -0.22976,0.03225 -0.24906,-0.06013c-0.01258,-0.1269 0.05701,-0.29326 0.1727,-0.50529c0.09271,0.19396 0.05581,0.38369 0.07636,0.56539z" fill="#93a5a6"/><path d="M260.98893,189.18966c0.18113,-0.16525 0.34756,-0.35086 0.64529,-0.15775c-0.1845,0.18249 -0.41886,0.14271 -0.64529,0.15775z" fill="#9aadad"/><path d="M261.34666,186.007c-0.02728,-0.14722 -0.05118,-0.31163 -0.08179,-0.44161c0.07087,-0.07707 0.1283,-0.08515 0.23313,-0.0495c0.06,0.1706 -0.04566,0.33086 -0.05779,0.48918c-0.03603,-0.00613 -0.05409,-0.0092 -0.09352,0.00194z" fill="#c5dddd"/><path d="M258.31331,182.64054c0.11868,0.25182 0.07507,0.47612 -0.0406,0.68813c-0.00336,0.01726 -0.04278,0.0284 -0.07884,0.02227c-0.05745,0.00806 -0.08345,-0.04979 -0.07673,-0.08431c0.01881,-0.19282 0.11318,-0.39068 0.19618,-0.62609z" fill="#aec2c3"/><path d="M254.20965,186.50582c0.09938,0.15945 0.11995,0.34113 0.14385,0.50561c-0.07085,0.07708 -0.13964,0.04757 -0.16229,-0.02754c-0.04866,-0.13303 -0.10063,-0.24877 -0.12789,-0.39597c-0.02937,-0.04065 0.03478,-0.08318 0.14633,-0.08207z" fill="#9caeaf"/><path d="M260.94822,178.95355c-0.15222,-0.07932 -0.24696,-0.16667 -0.35306,-0.29163c0.2478,-0.02921 0.43606,0.05622 0.65242,0.09297c-0.0281,0.04872 -0.03482,0.0832 -0.05619,0.09736c-0.08219,0.03949 -0.16098,0.06176 -0.24315,0.10128z" fill="#a9bebf"/><path d="M256.72061,184.98974c0.13293,-0.01306 0.20165,0.01642 0.26375,0.08046c-0.01552,0.17557 -0.09978,0.32163 -0.31361,0.46356c0.00417,-0.21316 0.03437,-0.36841 0.04984,-0.54399z" fill="#b9cfd0"/><path d="M262.4657,185.51983c0.07086,-0.07706 0.14635,-0.08205 0.2218,-0.08708c0.08344,0.04982 0.06669,0.13604 -0.06789,0.54092c-0.19625,-0.14025 -0.10528,-0.32084 -0.15392,-0.45385z" fill="#869797"/><path d="M257.22479,182.49135c-0.10774,0.26684 0.00759,0.53594 -0.28505,0.70007c-0.02184,-0.27104 0.0364,-0.47497 0.28505,-0.70007z" fill="#93a4a5"/><path d="M263.92302,183.00506c-0.05029,0.25875 -0.08383,0.43129 -0.11736,0.6038c-0.00671,0.0345 -0.04948,0.0629 -0.10355,0.05368c-0.01806,-0.00306 -0.05074,-0.02645 -0.06542,-0.04675c0.00414,-0.21313 0.04105,-0.40296 0.28631,-0.61075z" fill="#94a5a6"/><path d="M263.38152,185.40806c0.12161,-0.05061 0.17901,-0.05871 0.25576,0.0256c-0.00879,0.14106 -0.02093,0.29941 -0.10856,0.46274c-0.15681,-0.15141 -0.12328,-0.32388 -0.14722,-0.48831z" fill="#abbfc0"/><path d="M264.36653,182.06459c-0.09685,0.01921 -0.13626,0.03032 -0.17235,0.0242c-0.1514,-0.2752 -0.15137,-0.27517 -0.05034,-0.5075c0.16018,0.13412 0.12668,0.30662 0.22266,0.48331z" fill="#acc0c1"/><path d="M261.38429,188.40137c0.13503,-0.11965 0.25532,-0.2596 0.40836,-0.37618c0.06414,-0.04256 0.13627,-0.03029 0.17022,0.08237c-0.15976,0.15109 -0.31612,0.28491 -0.57858,0.29379z" fill="#9fb2b2"/><path d="M262.62505,180.00459c-0.07675,-0.08435 -0.12076,-0.14528 -0.14006,-0.23762c0.04947,-0.06291 0.11026,-0.08822 0.20377,-0.09016c0.10481,0.03564 0.16016,0.13413 0.21552,0.23264c-0.05619,0.0974 -0.16771,0.09626 -0.27921,0.09512z" fill="#aec2c3"/><path d="M259.13834,185.77456c-0.12745,-0.11072 -0.104,-0.23153 -0.09857,-0.35534c0.01009,-0.05175 0.07084,-0.07705 0.12494,-0.06787c0.03603,0.00613 0.08347,0.04981 0.07674,0.08431c0.03396,0.11268 -0.02221,0.21011 -0.10313,0.3389z" fill="#91a2a3"/><path d="M259.76244,178.53832c-0.25534,0.2596 -0.27669,0.27383 -0.46415,-0.00751c0.15094,-0.00999 0.29392,-0.07484 0.46415,0.00751z" fill="#869696"/><path d="M254.05123,182.43355c-0.13544,-0.16559 -0.06125,-0.25987 -0.01974,-0.37761c0.14549,0.11383 0.14549,0.11383 0.01974,0.37761z" fill="#555f5f"/><path d="M260.32862,185.49553c-0.01676,0.08627 -0.04023,0.20699 -0.11779,0.3186c-0.13209,-0.18283 -0.11867,-0.25182 -0.02312,-0.36033c0.02474,-0.03145 0.07885,-0.02227 0.14088,0.04176z" fill="#93a5a6"/><path d="M264.6534,183.27169c0.14007,0.23763 0.11536,0.26909 -0.18322,0.27183c-0.01258,-0.12691 0.07626,-0.20091 0.18322,-0.27183z" fill="#8b9b9c"/><path d="M253.78999,181.76549c0.02056,0.18171 -0.0243,0.31662 -0.06917,0.45161c-0.11823,0.0334 -0.16562,-0.01032 -0.15219,-0.07933c0.02682,-0.13801 0.07168,-0.27296 0.22133,-0.37228z" fill="#9aacad"/><path d="M263.90188,181.00552c0.09138,0.10463 0.18953,0.17477 0.14469,0.30972c-0.00337,0.01726 -0.02473,0.03146 -0.04276,0.0284c-0.15557,-0.06207 -0.17152,-0.17172 -0.10191,-0.3381z" fill="#5f6a6b"/><path d="M257.95714,185.43143c-0.04067,-0.07819 -0.02728,-0.14723 0.00419,-0.21316c0.02474,-0.03145 0.0675,-0.05982 0.10021,-0.03643c0.03273,0.02337 0.06208,0.064 0.05533,0.09851c-0.01343,0.06898 -0.04486,0.13493 -0.15974,0.15107z" fill="#636e6f"/><path d="M262.09672,179.27335c0.13627,-0.0303 0.22306,0.00222 0.26837,0.15248c-0.15764,0.0445 -0.21972,-0.01946 -0.26837,-0.15248z" fill="#4a5354"/></g><g data-paper-data="{&quot;index&quot;:null}" fill="#000000" stroke="#000000" stroke-width="1.2"><path d="M245.53218,202.91345c-0.09607,-1.88411 2.05392,-4.41655 2.76779,-6.61401c0.7686,-2.36588 0.10657,-4.2224 1.34259,-5.26635c0.86335,-0.72918 2.37167,-0.41587 3.1317,-0.14663c1.84815,0.65468 2.2881,4.44301 0.98266,8.46144c-1.30542,4.01843 -3.8619,6.7453 -5.71002,6.09061c-0.83748,-0.29667 -2.43508,-0.96375 -2.5147,-2.52504z"/><path d="M248.09615,206.12826c-0.11107,-2.62833 2.6358,-7.97566 2.6358,-7.97566c0,0 0.15034,-3.96872 0.17867,-4.05111c1.80394,-5.25121 5.02339,-4.17593 8.66256,-2.88678c1.732,0.61354 4.15708,2.29034 4.56649,4.27938c0.46433,2.2558 -0.91432,4.69032 -1.87278,7.64067c-1.80357,5.55178 -5.52871,9.49414 -9.22497,8.18476c-1.62708,-0.57638 -4.7974,-1.68084 -4.94575,-5.19127z"/></g></g><path d="M225.6125,203.83211c0,0 3.38435,-5.9968 2.95837,-7.83613c-0.10419,-0.44988 -2.93323,7.05965 -3.39397,6.63c-2.19716,-2.04885 -7.55517,-3.72995 -7.55517,-3.72995c0,0 5.15109,-6.51569 8.74716,-9.34236c0.99291,-0.78048 3.47076,-0.16344 3.74766,-0.40173c0.35761,-0.30776 9.02552,0.27728 9.35687,0.46133c3.96364,2.20166 7.32521,7.27282 7.32521,7.27282c0,0 -2.28274,2.74275 -2.32283,5.93626c-0.00028,0.02269 -2.13354,-5.08627 -2.138,-4.73052c-0.02676,2.13126 0.60425,5.73948 0.60425,5.73948c0,0 -5.21904,1.19664 -7.81667,1.24445c-2.86362,0.0527 -9.51289,-1.24363 -9.51289,-1.24363z" fill="#ffffff" fill-rule="nonzero" stroke="#737373" stroke-width="2.5" stroke-linecap="butt" stroke-linejoin="miter"/><path d="M222.66419,192.22961c0,0 -5.67506,0.54134 -6.98676,0.52177c-0.57291,-0.00854 -0.98766,-0.42849 -0.95266,-0.90567c0.03728,-0.50818 0.54429,-1.07527 0.54429,-1.07527" fill="none" fill-rule="nonzero" stroke="#737373" stroke-width="1" stroke-linecap="round" stroke-linejoin="miter"/><path d="M217.22726,190.9639l0.1265,-0.08885c0.0851,-0.03636 0.17021,-0.07272 0.25531,-0.10908c1.11999,-0.18658 6.36119,-1.88845 4.65364,0.49611c-0.95923,0.21025 -5.49081,0.89376 -5.33177,-0.12899c0,0 0.06991,-0.23725 0.29632,-0.1692z" fill="#000000" fill-rule="nonzero" stroke="none" stroke-width="0.5" stroke-linecap="butt" stroke-linejoin="miter"/><path d="M224.59771,189.43991c0,0 -2.03012,2.01048 -2.47027,2.38243c-0.23855,0.20158 -3.23875,0.30715 -3.65335,0.33547c-1.83082,0.12505 -3.27987,0.31757 -3.27987,-0.09273c0,-0.13931 -0.0146,-0.77876 0.43959,-1.0356c1.18639,-0.67089 3.97111,-1.31674 5.69189,-1.48806c2.35578,-0.23455 3.272,-0.10149 3.272,-0.10149z" fill="url(#color-1)" fill-rule="nonzero" stroke="#737373" stroke-width="0" stroke-linecap="butt" stroke-linejoin="miter"/><g stroke-linejoin="miter"><g stroke-linecap="butt"><path d="M260.42912,165.66194c-0.25015,13.57056 -11.50353,24.17062 -25.13515,23.67594c-13.63161,-0.49469 -24.47941,-11.89679 -24.22928,-25.46734c0.25015,-13.57056 11.50352,-24.17064 25.13515,-23.67595c13.63161,0.49469 24.47941,11.89679 24.22928,25.46736z" fill="none" fill-rule="nonzero" stroke="#000000" stroke-width="4.5"/><g><g fill-rule="nonzero"><path d="M221.4096,148.35981l0.01096,0.00857" data-paper-data="{&quot;index&quot;:null}" fill="#ffab19" stroke="#000000" stroke-width="5"/><g data-paper-data="{&quot;index&quot;:null}" fill="none" stroke="none" stroke-width="1" font-family="sans-serif" font-weight="normal" font-size="12" text-anchor="start"/></g><path d="M221.4096,148.35981l0.01096,0.00857" data-paper-data="{&quot;index&quot;:null}" fill="#ffab19" fill-rule="nonzero" stroke="#000000" stroke-width="5"/><path d="M235.4418,165.98981" fill="#001026" fill-rule="evenodd" stroke="#000000" stroke-width="5"/><g data-paper-data="{&quot;index&quot;:null}" fill="none" fill-rule="nonzero" stroke="none" stroke-width="1" font-family="sans-serif" font-weight="normal" font-size="12" text-anchor="start"/><g data-paper-data="{&quot;index&quot;:null}" fill="none" fill-rule="nonzero" stroke="none" stroke-width="1" font-family="sans-serif" font-weight="normal" font-size="12" text-anchor="start"/></g></g><path d="M215.53768,161.45058l23.89502,3.8743l0.11491,4.58793" fill="none" fill-rule="nonzero" stroke="#000000" stroke-width="4.5" stroke-linecap="round"/><path d="M246.71586,170.12216l-0.1257,-5.01806l18.97324,-6.9454" fill="none" fill-rule="nonzero" stroke="#000000" stroke-width="4.5" stroke-linecap="round"/><path d="M207.38505,151.87694l-3.96733,-4.79354l-2.32276,-5.9256l9.70398,3.60068l1.75612,-0.36517l-0.92447,-3.40713l-2.59442,-2.35755l7.0477,2.66061l-3.22954,-4.42023l-1.56199,-7.09599l5.55004,5.07898l3.77069,1.32288l-2.22893,-5.00781l5.80742,4.08816l-0.8472,-5.17898l0.61293,-4.07796l5.56552,4.72459l2.56462,1.04692l1.69871,2.28044l0.91002,-7.5635l2.64308,6.56131l1.745,-8.08829l3.57414,7.15782l2.36908,-4.44313l0.8745,7.66564l3.72757,-3.67213l0.81175,-4.64604l2.67842,7.08071l-0.8725,4.04414l5.88573,-3.94533l3.11022,-0.82231l-4.9646,4.10493l1.73072,-0.44765l-1.79915,4.67577l5.72779,-3.64912l-4.56365,6.21629l9.32067,-2.90379l-5.82605,6.56657l4.66309,-1.84751l-4.9193,5.06119l2.58006,0.69255l-9.78226,0.21744l-36.8645,8.323l-9.7682,4.95513l3.50354,-4.4652l-7.38013,0.30554l4.75034,-3.18249l-9.42454,-2.69311l6.68871,-1.74197l2.47953,-1.65684l2.23414,0.37825" fill="#ffffff" fill-rule="nonzero" stroke="#e2e2e2" stroke-width="3" stroke-linecap="round"/></g><path d="M246.06894,181.1944c0,1.90712 -5.25367,2.46322 -11.42912,2.46322c-6.17545,0 -8.15677,-3.92865 -8.15677,-5.83577c0,-1.90712 19.58588,1.46542 19.58588,3.37255z" fill="#ff0000" fill-rule="nonzero" stroke="#000000" stroke-width="3" stroke-linecap="butt" stroke-linejoin="miter"/></g></g></svg>