<svg version="1.1" xmlns="http://www.w3.org/2000/svg" xmlns:xlink="http://www.w3.org/1999/xlink" width="123.1352" height="70.43237" viewBox="0,0,123.1352,70.43237"><defs><linearGradient x1="197.225" y1="205.09771" x2="176.96098" y2="214.72891" gradientUnits="userSpaceOnUse" id="color-1"><stop offset="0" stop-color="#000000"/><stop offset="1" stop-color="#000000" stop-opacity="0"/></linearGradient></defs><g transform="translate(-172.82485,-164.69288)"><g data-paper-data="{&quot;isPaintingLayer&quot;:true}" stroke-miterlimit="10" stroke-dasharray="" stroke-dashoffset="0" style="mix-blend-mode: normal"><g stroke-linejoin="miter"><path d="M239.57534,180.58353c5.77408,12.14865 0.16285,26.88875 -12.53306,32.92292c-12.69588,6.03417 -27.66877,1.07741 -33.44285,-11.07124c-5.77408,-12.14865 -0.16285,-26.88875 12.53306,-32.92292c12.69588,-6.03417 27.66877,-1.07741 33.44285,11.07124z" fill="none" fill-rule="nonzero" stroke="#000000" stroke-width="4.5" stroke-linecap="butt"/><g stroke-linecap="butt"><g fill-rule="nonzero"><path d="M196.20689,183.77339l0.01383,0.00241" data-paper-data="{&quot;index&quot;:null}" fill="#ffab19" stroke="#000000" stroke-width="5"/><g data-paper-data="{&quot;index&quot;:null}" fill="none" stroke="none" stroke-width="1" font-family="sans-serif" font-weight="normal" font-size="12" text-anchor="start"/></g><path d="M196.20689,183.77339l0.01383,0.00241" data-paper-data="{&quot;index&quot;:null}" fill="#ffab19" fill-rule="nonzero" stroke="#000000" stroke-width="5"/><path d="M216.8494,192.73892" fill="#001026" fill-rule="evenodd" stroke="#000000" stroke-width="5"/><g data-paper-data="{&quot;index&quot;:null}" fill="none" fill-rule="nonzero" stroke="none" stroke-width="1" font-family="sans-serif" font-weight="normal" font-size="12" text-anchor="start"/><g data-paper-data="{&quot;index&quot;:null}" fill="none" fill-rule="nonzero" stroke="none" stroke-width="1" font-family="sans-serif" font-weight="normal" font-size="12" text-anchor="start"/></g><path d="M222.1858,216.78192l-26.6968,12.42986c0,0 -2.31723,0.72564 -2.39105,-0.23742c-0.16928,-2.20833 1.39583,-12.7454 1.39583,-12.7454l-12.2597,1.42784c0,0 -2.31116,0.09775 -3.07151,-0.75797c-0.70731,-0.79603 5.56437,-14.14147 5.56437,-14.14147c0,0 -9.01608,0.28858 -11.88901,-0.53932c-1.12814,-0.32509 6.92693,-12.62406 13.15543,-19.71265c3.04777,-3.46866 7.09217,-8.433 11.0151,-11.10608c6.50448,-4.43215 12.9056,-4.93705 12.9056,-4.93705" fill="none" fill-rule="nonzero" stroke="#000000" stroke-width="3" stroke-linecap="round"/><path d="M193.80033,230.01438c0,0 -1.08147,-1.04037 -0.80075,-3.31386c0.35162,-2.84762 3.77947,-8.07615 1.27206,-9.49901c-3.2481,-1.8432 -14.44047,3.98286 -14.68941,-0.15825c-0.2044,-3.40033 5.82283,-12.31474 4.93363,-14.18559c-0.88722,-1.86673 -4.47308,1.22968 -8.01994,-0.13053c-5.0444,-1.9345 -3.42271,-2.71144 -3.42271,-2.71144c0,0 7.37812,-11.78021 11.47218,-16.43519c3.84115,-4.36741 12.38184,-10.68703 12.38184,-10.68703c0,0 -7.58754,18.82694 -6.05774,27.01139c1.69582,9.07259 25.53762,18.3298 25.53762,18.3298z" data-paper-data="{&quot;index&quot;:null}" fill="url(#color-1)" fill-rule="nonzero" stroke="none" stroke-width="0" stroke-linecap="butt"/></g><path d="M235.22898,209.30894l13.54053,-2.39351" fill="none" fill-rule="nonzero" stroke="#000000" stroke-width="6" stroke-linecap="round" stroke-linejoin="miter"/><path d="M248.07967,218.60756c0,0 -7.85309,0.46487 -8.51283,-0.44126c-1.19457,-1.64071 -4.3534,-9.84418 -4.3534,-9.84418c0,0 10.84531,-8.96721 13.34525,-10.31521c0.41916,-0.22602 10.8545,-6.54732 10.8545,-6.54732" fill="none" fill-rule="nonzero" stroke="#000000" stroke-width="6" stroke-linecap="round" stroke-linejoin="miter"/><g><g><g stroke="#001026" stroke-width="1.2"><path d="M250.0342,197.77967l25.78874,4.34149c0,0 2.34018,-6.67646 9.1205,-4.56093c0.38654,0.12061 2.26978,0.76388 2.02608,3.729c-0.23343,2.83998 -2.56659,7.96661 -3.43076,9.83649c-0.40137,0.86847 -1.41362,2.07666 -2.72152,2.65961c-1.31685,0.58691 -2.83358,0.04864 -3.70213,-0.20063c-0.35376,-0.10153 -28.74739,-6.0658 -28.74739,-6.0658" fill="#bf0000" fill-rule="evenodd" stroke-linecap="round" stroke-linejoin="round"/><path d="M253.95394,209.2994c-6.94873,-2.16807 -5.59855,-7.3426 -4.76865,-10.00244c0.36087,-1.1566 -1.55399,-1.53445 4.2129,-0.99867c1.2701,0.118 6.34523,1.08818 10.82933,1.33983c3.07054,0.17232 5.9674,-0.32386 6.76443,-0.34334c1.88318,-0.046 3.39512,0.62746 3.39512,0.62746l-1.42574,0.65267c0,0 0.98295,-0.41764 1.53317,-0.54008c1.71406,-0.38144 3.01009,-0.67755 3.01009,-0.67755c0,0 -2.40249,6.72161 -0.98387,10.01348c1.41862,3.29186 5.9041,3.14583 5.9041,3.14583c0,0 -2.23199,4.85066 -5.14751,4.45604c-0.71875,-0.09728 -2.547,-1.47202 -2.547,-1.47202c0,0 -0.0499,0.6134 -0.53309,0.49542c-0.24631,-0.06014 -3.63701,-1.87177 -7.65225,-3.20797c-5.28575,-1.75901 -11.58986,-3.17626 -12.59106,-3.48864z" fill="#000000" fill-rule="nonzero" stroke-linecap="butt" stroke-linejoin="miter"/></g><path d="M246.49534,216.58337c-0.20807,-0.04932 0.72998,-1.0379 1.55358,-3.65068c1.08654,-3.44692 2.19613,-8.88447 2.41296,-10.44071c0.56226,-4.03562 -0.70846,-5.10951 -0.15688,-4.9788c2.04115,0.48372 5.14478,3.74583 4.07932,8.24168c-0.46821,1.97571 -0.93526,6.1572 -2.29102,8.21274c-1.72933,2.62193 -4.45382,2.8869 -5.59797,2.61576z" fill="#004fd9" fill-rule="nonzero" stroke="#001026" stroke-width="1.2" stroke-linecap="butt" stroke-linejoin="miter"/><g fill-rule="nonzero" stroke-linecap="butt" stroke-linejoin="miter"><g fill="none" stroke="none" stroke-width="1" font-family="sans-serif" font-weight="normal" font-size="12" text-anchor="start"/><path d="M245.05116,216.67636c0,0 3.65388,-7.97155 4.73251,-11.80659c1.07862,-3.83502 0.6606,-7.3686 0.6606,-7.3686c0,0 1.98057,0.5343 3.41083,2.79169c1.10711,1.74735 1.91871,4.72883 1.01126,8.02244c-0.82671,3.00056 -2.41076,6.15871 -4.17353,7.44185c-2.67185,1.94484 -5.64168,0.91921 -5.64168,0.91921z" fill="#000000" stroke="#001026" stroke-width="1.2"/></g><g stroke="#001026" stroke-width="1.2"><path d="M252.68475,208.89968c0,0 28.13316,11.57246 28.05919,12.19353c-0.21232,1.7823 -5.34962,10.41199 -5.34962,10.41199l-27.50382,-14.36516" data-paper-data="{&quot;index&quot;:null}" fill="#ffab19" fill-rule="evenodd" stroke-linecap="round" stroke-linejoin="round"/><path d="M252.62768,207.32788c0,0 5.9285,2.51916 9.12301,3.67641c3.06401,1.10996 9.66893,3.13116 9.66893,3.13116c0,0 5.08562,0.46841 6.01994,1.70112c0.43276,0.57095 -2.93526,-0.04083 -2.93526,-0.04083c0,0 3.7959,0.69328 4.13155,0.75062c2.34188,0.40017 4.99716,2.39326 4.42558,5.46075c-0.62758,3.36791 -1.83231,8.90438 -4.43069,11.19247c-1.10557,0.97355 -3.81764,1.94463 -6.08982,0.82393c-2.56244,-1.26385 -4.64034,-4.70684 -4.64034,-4.70684l2.39401,3.30243c0,0 -1.54832,-0.41592 -2.56613,-1.13309c-1.14301,-0.8054 -3.95996,-3.46545 -3.95996,-3.46545l-17.12674,-10.52182" data-paper-data="{&quot;index&quot;:null}" fill="#000000" fill-rule="evenodd" stroke-linecap="round" stroke-linejoin="round"/><path d="M279.57507,218.3275c1.60843,0.54932 3.31258,1.76253 3.88061,3.49961c0.57012,1.74352 -2.33428,10.40994 -3.9305,11.42133c-1.51586,0.96049 -3.78605,0.87868 -5.35584,0.34255c-3.2228,-1.10068 -4.6253,-5.4098 -3.13254,-9.62471c1.49275,-4.21488 5.31547,-6.73945 8.53828,-5.63875z" fill="#ff0000" fill-rule="nonzero" stroke-linecap="butt" stroke-linejoin="miter"/></g></g><g fill="#000000" fill-rule="nonzero" stroke="#001026" stroke-width="1.2" stroke-linecap="butt" stroke-linejoin="miter"><path d="M256.47838,218.58543c0,0 -0.36109,2.92833 -0.85918,3.71312c-0.15334,0.24158 -1.2534,0.6888 -2.42695,0.74267c-1.46471,0.06725 -3.12859,-0.34478 -4.18807,-0.99163c-2.72584,-1.66425 -4.74651,-6.80647 -3.59715,-8.6174c0.49811,-0.78485 3.54547,-2.33886 3.55198,-2.33882"/></g></g><g data-paper-data="{&quot;index&quot;:null}" fill-rule="nonzero" stroke="none" stroke-width="1" stroke-linecap="butt" stroke-linejoin="miter"><path d="M283.64601,221.00726c0.03171,-0.20964 0.16518,-0.27423 0.33523,-0.32217c0.27435,-0.05414 0.55426,-0.05201 0.83049,-0.08732c0.04657,-0.05944 0.09314,-0.11887 0.12231,-0.17724c0.68425,-1.21171 1.7333,-1.91644 2.92262,-2.44065c0.25139,-0.10944 0.50097,-0.23764 0.779,-0.25421c0.05214,-0.00308 0.1198,-0.02602 0.15085,-0.06567c0.17074,-0.21795 0.39667,-0.23143 0.63813,-0.26473c0.20668,-0.03124 0.41708,-0.02491 0.62563,-0.03734c0.12164,-0.00726 0.24702,0.02302 0.34509,0.13047c0.09803,0.10746 0.24265,0.15548 0.36985,0.20451c0.75406,0.20049 1.46901,0.53549 2.14296,0.98622c0.37544,0.26086 0.68694,0.58218 1.00031,0.92226c0.92088,1.00256 1.51089,2.19484 1.85137,3.5153c0.14633,0.59557 0.20767,1.21509 0.19948,1.83877c-0.0057,0.47243 -0.13676,0.91463 -0.28704,1.33908c-0.47821,1.35051 -1.33927,2.36503 -2.47155,3.11244c-0.21292,0.14489 -0.46616,0.23557 -0.71941,0.32622c-0.1682,0.06671 -0.31718,0.15114 -0.40291,0.34509c-0.07018,0.17411 -0.21914,0.25856 -0.38921,0.30649c-0.27435,0.05414 -0.55241,0.07074 -0.83048,0.08731c-0.08692,0.00519 -0.16016,-0.02821 -0.23339,-0.06163c-0.26001,-0.15442 -0.52628,-0.1952 -0.8062,-0.19735c-0.59276,0.01652 -1.16932,-0.15681 -1.74401,-0.31135c-0.21599,-0.06267 -0.43382,-0.14405 -0.63801,-0.26403c-0.6665,-0.37565 -1.30017,-0.77218 -1.84624,-1.34387c-0.26068,0.01556 -0.54061,0.01338 -0.81868,0.03c-0.10429,0.00622 -0.22594,0.01349 -0.30659,-0.09501c-0.07877,-0.0897 -0.18123,-0.06473 -0.28548,-0.05848c-0.697,0.02275 -1.39216,0.06423 -2.08918,0.08696c-1.5486,0.07354 -3.11455,0.1482 -4.66687,0.18422c-1.51755,0.03393 -3.0295,0.12425 -4.54334,0.19572c-0.24331,0.01454 -0.47293,-0.00955 -0.71624,0.00501c-1.18176,0.07056 -2.36355,0.1411 -3.54717,0.1929c-0.20853,0.01246 -0.41337,0.06243 -0.61567,-0.03881c-0.07326,-0.03341 -0.15825,-0.00944 -0.24516,-0.00428c-0.86896,0.05192 -1.75714,0.08603 -2.6261,0.13792c-0.03477,0.00207 -0.0869,0.00516 -0.12164,0.00726c-0.27621,0.03539 -0.42825,-0.08775 -0.57592,-0.34331c-0.48706,-0.85849 -0.68239,-1.77214 -0.586,-2.74101c0.028,-0.24718 0.09072,-0.4964 0.19006,-0.72896c0.07019,-0.17415 0.20177,-0.25756 0.37368,-0.28671c0.5158,-0.08742 1.02972,-0.19367 1.56292,-0.28214c0.37864,-0.06037 0.77836,-0.08424 1.1514,-0.20094c0.81373,-0.25631 1.66718,-0.28839 2.48648,-0.48841c0.46178,-0.10312 0.90252,-0.24274 1.36618,-0.3271c0.49841,-0.0864 0.97575,-0.20931 1.45488,-0.31349c0.87333,-0.18433 1.76775,-0.33215 2.63922,-0.53528c1.14207,-0.29479 2.29164,-0.51451 3.44115,-0.73422c0.39416,-0.08018 0.78824,-0.1604 1.18242,-0.24057c0.61822,-0.11248 1.25378,-0.22593 1.87198,-0.33836c0.34386,-0.05831 0.66664,-0.1531 1.01049,-0.21142c0.35942,-0.07811 0.68956,-0.09784 1.06823,-0.15822zM283.93579,221.46206c-0.08199,0.23151 -0.12921,0.46093 -0.12246,0.70602c-0.10809,0.49746 -0.09268,1.00641 -0.07725,1.51537c0.01105,0.64144 0.09346,1.29746 0.17404,1.93473c0.08986,0.73113 0.34791,1.39556 0.6252,2.07778c0.0422,0.07303 0.08439,0.14603 0.14767,0.25554c0.13902,-0.00828 0.27804,-0.01664 0.41707,-0.02492c0.03477,-0.00207 0.06767,-0.02291 0.11793,-0.0448c-0.013,-0.13141 -0.04338,-0.2618 -0.09115,-0.39114c-0.07445,-0.22218 -0.11223,-0.42764 -0.18664,-0.64979c-0.16001,-0.55696 -0.16553,-1.14211 -0.27339,-1.70217c-0.04713,-0.29933 -0.12894,-0.59659 -0.14132,-0.898c-0.01291,-0.66021 -0.11269,-1.31518 -0.05607,-1.9795c0.01804,-0.17105 0.03419,-0.36084 0.05224,-0.5319c0.09687,-0.08133 0.04719,-0.22944 0.07268,-0.3254c0.041,-0.11574 0.08197,-0.23152 0.04413,-0.43696c-0.21292,0.14489 -0.44443,0.10207 -0.64553,0.1896c-0.00811,0.09491 -0.1049,0.17623 -0.05716,0.30558zM283.41923,222.24826c0.1137,-0.44113 0.11989,-0.5548 0.061,-0.7968c-0.20668,0.03124 -0.39601,0.06143 -0.60271,0.09264c-0.12164,0.00726 -0.20114,0.08751 -0.24213,0.20331c-0.02734,0.07721 -0.01804,0.17102 -0.04536,0.24821c-0.09382,0.28887 -0.11432,0.61114 -0.06722,0.91047c-0.07385,0.13662 -0.05904,0.28677 -0.04416,0.437c0.06623,0.84584 0.11326,1.67399 0.26636,2.51463c0.07191,0.37342 0.1612,0.74581 0.26604,1.09831c0.09739,0.27751 0.19664,0.5737 0.4275,0.78653c0.22594,-0.0135 0.45183,-0.02702 0.67779,-0.04049c-0.04959,-0.1481 -0.09737,-0.27749 -0.14324,-0.38801c-0.19104,-0.51737 -0.34735,-1.03679 -0.43415,-1.56038c-0.119,-0.67273 -0.15115,-1.35068 -0.20067,-2.02756c-0.03159,-0.31918 0.04294,-0.62577 -0.00601,-0.94388c0.10491,-0.17621 0.10372,-0.36499 0.087,-0.53396zM264.30686,225.73105c-0.07826,0.26906 -0.06964,0.53292 -0.02624,0.7947c-0.01551,0.01979 -0.02917,0.05841 -0.02733,0.0772c0.06197,0.44954 0.15868,0.89698 0.35598,1.30066c0.11107,0.23891 0.20472,0.47878 0.41446,0.65509c0.97324,-0.05811 1.94643,-0.11623 2.97182,-0.17741c-0.23573,-0.43914 -0.3673,-0.88457 -0.48136,-1.33093c-0.10855,-0.39013 -0.09354,-0.76868 -0.16734,-1.16087c-0.01487,-0.15017 -0.01052,-0.28264 -0.02539,-0.43284c0.0646,-0.23045 0.09258,-0.47763 0.0821,-0.76026c-0.52138,0.03114 -0.99312,0.2104 -1.47603,0.277c-0.49841,0.0864 -0.99499,0.1916 -1.47601,0.27698c-0.10492,0.17621 -0.12486,0.32849 -0.1447,0.48077zM267.75354,225.05314c-0.07385,0.13663 -0.07641,0.28785 -0.06151,0.43801c-0.05468,0.15433 -0.02057,0.3223 -0.02123,0.49226c0.03467,0.52672 0.15619,1.04822 0.31063,1.54887c0.09923,0.29621 0.23328,0.59037 0.43307,0.84281c0.06953,-0.00413 0.14089,0.01048 0.2104,0.00629c0.85161,-0.0508 1.68573,-0.10062 2.53919,-0.13271c0.90556,-0.03518 1.79374,-0.06934 2.69931,-0.10452c1.32268,-0.06011 2.6298,-0.10034 3.95248,-0.16046c1.48092,-0.05065 2.93891,-0.15661 4.42355,-0.16969c0.24515,0.00426 0.50397,-0.03013 0.76466,-0.04566c-0.08995,-0.20234 -0.2128,-0.38383 -0.26799,-0.58828c-0.22146,-0.64773 -0.34046,-1.32048 -0.42476,-1.99528c-0.05946,-0.60075 -0.10154,-1.20253 -0.1436,-1.80435c0.0106,-0.24615 0.00568,-0.47245 0.0163,-0.71859c0.08942,-0.15639 0.03792,-0.3233 0.05781,-0.47557c0.01804,-0.17105 0.0727,-0.32537 0.03673,-0.51207c-0.1775,-0.02717 -0.31285,0.01868 -0.43262,0.04471c-1.00494,0.26774 -2.04211,0.38631 -3.05259,0.59772c-0.65113,0.13331 -1.30223,0.26659 -1.95145,0.41871c-0.87333,0.18433 -1.72739,0.3864 -2.58332,0.5697c-0.70136,0.15521 -1.40278,0.31037 -2.10604,0.44678c-0.75353,0.15828 -1.49153,0.29674 -2.24694,0.43629c-0.68586,0.13537 -1.38911,0.27182 -2.0905,0.42699c-0.00065,0.16997 -0.09379,0.28886 -0.06154,0.43801zM291.66199,229.93305c-0.19726,-0.40366 -0.30583,-0.7938 -0.43174,-1.18283c-0.12778,-0.40784 -0.2711,-0.79583 -0.38146,-1.20471c-0.10853,-0.39012 -0.18415,-0.80108 -0.2753,-1.19221c-0.09301,-0.40994 -0.18604,-0.81983 -0.26355,-1.24953c-0.07376,-0.39215 -0.13199,-0.80416 -0.20578,-1.19635c-0.05824,-0.41196 -0.04702,-0.82812 -0.17479,-1.23594c0.06524,-0.40044 -0.04513,-0.80934 -0.0668,-1.20464c-0.0061,-0.41507 -0.04888,-0.8469 -0.05499,-1.26198c-0.00424,-0.39631 0.00702,-0.81246 0.02012,-1.20981c0.01129,-0.41615 0.09393,-0.81766 0.05302,-1.23065c-0.42081,-0.01265 -0.54246,-0.0054 -0.84042,0.16347c-0.0646,0.23045 -0.12921,0.46096 -0.15531,0.72687c-0.02055,0.32227 -0.04111,0.64451 -0.07719,0.98661c-0.05849,0.64556 -0.10141,1.27134 -0.0364,1.92841c0.0446,0.45059 0.10658,0.9001 0.08163,1.35483c-0.00811,0.09491 0.00306,0.20755 0.04895,0.31809c0.07445,0.22216 0.0812,0.46727 0.10352,0.69253c0.08175,0.82605 0.26777,1.64587 0.46935,2.44588c0.24495,1.06182 0.60783,2.0788 1.02288,3.09265c0.07259,0.20338 0.14515,0.40677 0.31642,0.54759c0.2644,0.022 0.52325,-0.01235 0.84783,-0.08837zM292.97936,222.22507c-0.2408,-0.13668 -0.47418,-0.19831 -0.70938,-0.27867c-0.20045,-0.08248 -0.41087,-0.08878 -0.61198,-0.00123c-0.38856,0.1365 -0.80009,0.21775 -1.21905,0.22386c-0.03477,0.00207 -0.08504,0.02393 -0.10241,0.02498c-0.04283,0.09696 -0.03538,0.17207 0.02602,0.26285c0.01921,0.01773 0.05587,0.03444 0.07325,0.0334c0.50958,0.02622 1.02284,0.09001 1.53986,0.19134c0.07136,0.01465 0.1775,0.02718 0.24331,-0.01453c0.27064,-0.09169 0.54125,-0.1834 0.76043,-0.44201zM290.2437,221.25532c0.47481,0.02828 0.93594,0.0952 1.38157,0.18193c0.14272,0.02922 0.26253,0.00322 0.39599,-0.06142c0.19924,-0.10633 0.36005,-0.24813 0.53823,-0.39095c0.0658,-0.04171 0.14896,-0.08442 0.10305,-0.195c-0.30474,-0.07624 -0.59397,-0.17226 -0.89497,-0.21096c-0.69833,0.36274 -0.69831,0.36271 -1.53063,0.4313c-0.04658,0.05943 -0.0565,0.13558 0.00676,0.24509zM288.98028,225.9763c-0.32026,-0.05643 -0.63868,-0.09408 -0.95709,-0.13171c-0.07138,-0.01464 -0.14274,-0.02924 -0.21039,-0.00632c-0.26505,0.14799 -0.53196,0.27729 -0.73561,0.51604c0.23083,0.21284 0.4971,0.25358 0.75157,0.3517c0.1272,0.04905 0.22963,0.02404 0.34572,-0.03954c0.26319,-0.16678 0.53014,-0.29605 0.81626,-0.4075c0.01739,-0.00104 0.03106,-0.03957 0.06207,-0.07921c-0.02295,-0.05528 -0.04778,-0.1294 -0.07259,-0.20342zM293.40314,225.97656c-0.30222,-0.22746 -0.57407,-0.32453 -0.84775,-0.44037c-0.10801,-0.03134 -0.193,-0.00736 -0.27804,0.0166c-0.40594,0.13758 -0.81751,0.21874 -1.25381,0.22593c-0.05213,0.00309 -0.10241,0.02496 -0.15454,0.02811c0.00307,0.20756 0.02415,0.24406 0.16318,0.23576c0.45189,-0.027 0.89564,0.04096 1.31392,0.20481c0.25445,0.09812 0.46115,0.0669 0.67782,-0.04046c0.11425,-0.08236 0.21296,-0.14489 0.37929,-0.23037zM290.44557,223.47162c0.00931,0.09386 0.08071,0.10846 0.15022,0.10433c0.4866,-0.02903 0.97069,0.0931 1.45481,0.21531c0.39347,0.08981 0.78578,-0.00914 1.14023,-0.31357c-0.16942,-0.12208 -0.34509,-0.13048 -0.51078,-0.215c-0.34879,-0.16802 -0.67898,-0.14829 -1.01913,-0.05246c-0.3749,0.09792 -0.74799,0.2146 -1.13403,0.19991c-0.05025,0.02191 -0.06583,0.0417 -0.08135,0.06153zM293.2557,224.66355c-0.2197,-0.1002 -0.36801,-0.18579 -0.51447,-0.25256c-0.23895,-0.1179 -0.44935,-0.12423 -0.68522,-0.03465c-0.31905,0.13236 -0.66292,0.19067 -1.00861,0.23019c-0.11981,0.02603 -0.25882,0.03434 -0.38046,0.0416c-0.00811,0.09491 0.04588,0.11056 0.08064,0.10848c0.51329,0.06375 1.0284,0.14633 1.53361,0.30502c0.08875,0.01359 0.16011,0.0282 0.24516,0.00425c0.23402,-0.10839 0.46989,-0.19802 0.72936,-0.40234zM289.2711,227.14865c-0.32278,0.09482 -0.64115,0.05716 -0.95772,0.03829c-0.08688,0.00519 -0.16198,-0.04699 -0.24515,-0.00426c-0.13349,0.06465 -0.38924,0.30652 -0.52522,0.52236c0.18682,0.12108 0.39906,0.14614 0.5977,0.20985c0.16201,0.04699 0.29915,0.01991 0.42889,-0.08226c0.22843,-0.16468 0.46062,-0.29187 0.73311,-0.3648c0.0174,-0.00102 0.0484,-0.04066 0.06391,-0.06046c0.00995,-0.07615 0.00253,-0.15123 -0.09555,-0.25868zM287.48865,220.79661c-0.23214,0.1272 -0.52947,0.12602 -0.73868,0.30848c0.03038,0.13037 0.12285,0.18153 0.19981,0.25247c0.15207,0.12311 0.27116,0.26705 0.47162,0.34953c0.30169,-0.1313 0.65298,-0.11454 0.97389,-0.22811c0.04283,-0.09696 0.03359,-0.19083 -0.0105,-0.28264c-0.3066,-0.09499 -0.59956,-0.22859 -0.89618,-0.39971zM288.60274,223.75163c-0.1775,-0.02717 -0.35499,-0.05434 -0.48594,-0.14095c-0.31772,-0.20766 -0.61135,-0.1712 -0.89191,-0.00337c-0.0987,0.06251 -0.20298,0.06874 -0.29613,0.18762c0.1924,0.17737 0.39657,0.29738 0.60075,0.41733c0.05587,0.03444 0.12536,0.03027 0.21038,0.00631c0.25326,-0.09068 0.49099,-0.16151 0.74422,-0.25217c0.05214,-0.00308 0.11795,-0.04481 0.1186,-0.21483zM288.48564,222.56886c-0.38976,-0.05227 -0.74849,-0.14417 -1.05072,-0.37162c-0.05772,-0.05319 -0.12536,-0.03027 -0.19487,-0.02612c-0.15455,0.02812 -0.30728,0.075 -0.45251,0.19699c0.26933,0.24832 0.52938,0.40273 0.80678,0.55613c0.09247,0.05114 0.18121,0.06474 0.28363,0.03972c0.18746,-0.04891 0.37677,-0.07915 0.56423,-0.12812c0.0174,-0.00102 0.04843,-0.04068 0.06393,-0.06049c-0.00556,-0.05632 -0.01114,-0.11265 -0.02046,-0.20648zM292.69279,227.45424c0.16634,-0.08547 0.35011,-0.17194 0.51648,-0.25742c0.01551,-0.01979 0.03106,-0.03964 0.06208,-0.07923c-0.17683,-0.19719 -0.39657,-0.29739 -0.59513,-0.36108c-0.52576,0.1636 -1.01672,0.32511 -1.60761,0.36039c0.30408,0.24623 0.56911,0.09817 0.80062,0.14102c0.28362,0.03972 0.5536,0.11801 0.82358,0.19631zM293.37046,221.93728c0.18995,-0.20018 0.38365,-0.36286 0.4793,-0.63294c-0.12907,-0.06785 -0.22527,-0.15651 -0.33516,-0.20657c-0.10985,-0.05007 -0.22155,-0.11895 -0.3432,-0.11167c-0.15081,0.06567 -0.2421,0.2033 -0.35444,0.30444c-0.11233,0.10114 -0.24583,0.16575 -0.31785,0.32112c0.2911,0.11479 0.56289,0.2119 0.87136,0.32569zM290.09001,220.05588c0.52878,0.04397 0.96886,0.07431 1.40889,0.10471c0.03477,-0.00207 0.08877,0.01362 0.11979,-0.02603c0.17815,-0.14282 0.3948,-0.2502 0.4923,-0.5015c-0.25074,-0.06058 -0.48412,-0.12217 -0.71563,-0.16499c-0.37557,0.26792 -0.79701,0.42527 -1.30539,0.58783zM287.03404,225.03502c0.13838,0.16171 0.31587,0.18887 0.46234,0.25568c0.16572,0.08453 0.32582,0.11275 0.50954,0.02623c0.25138,-0.10943 0.50279,-0.21886 0.7846,-0.19794c0.02176,-0.13352 -0.00308,-0.20755 -0.10733,-0.20133c-0.26252,-0.00318 -0.54246,-0.0054 -0.77952,-0.10453c-0.34508,-0.13048 -0.59094,0.03527 -0.86964,0.22189zM287.23244,223.15363c-0.3196,-0.22642 -0.56598,-0.41942 -0.81045,-0.59367c-0.12164,0.00726 -0.18561,0.06772 -0.25138,0.10942c-0.06393,0.06047 -0.16445,0.10423 -0.18623,0.23769c0.15949,0.19823 0.35183,0.37557 0.55969,0.53315c0.22032,-0.06981 0.42145,-0.15735 0.68838,-0.28659zM286.67257,226.15188c0.24396,-0.1845 0.455,-0.34822 0.68345,-0.5129c-0.23894,-0.11792 -0.46053,-0.2369 -0.68206,-0.35586c-0.21292,0.14489 -0.4122,0.25122 -0.54624,0.48584c0.1731,0.15962 0.35807,0.26188 0.54486,0.38292zM294.01581,222.80525c-0.12656,-0.21906 -0.35806,-0.2619 -0.54299,-0.36417c-0.05587,-0.03444 -0.14089,-0.01048 -0.18931,0.0302c-0.16266,0.12301 -0.30977,0.22622 -0.45504,0.34817c-0.01739,0.00104 -0.01366,0.03861 -0.00995,0.07616c0.25631,0.11692 0.52815,0.21392 0.78447,0.33084c0.16448,-0.10421 0.28866,-0.26273 0.41283,-0.42123zM293.76133,225.70977c0.18372,-0.08653 0.35008,-0.17196 0.45134,-0.38572c-0.1713,-0.14086 -0.34627,-0.31926 -0.56413,-0.40068c-0.11608,0.06356 -0.23588,0.08962 -0.3327,0.17094c-0.0987,0.0625 -0.23961,0.05204 -0.275,0.22413c0.24077,0.1367 0.48157,0.27338 0.72055,0.39135zM286.81146,226.67226c-0.14897,0.08443 -0.21914,0.25859 -0.3067,0.43376c0.22341,0.13777 0.39841,0.31613 0.64914,0.37673c0.12416,-0.1585 0.30604,-0.26379 0.42464,-0.4786c-0.25631,-0.11692 -0.51076,-0.21502 -0.76707,-0.33188zM289.66435,228.296c-0.31469,-0.00011 -0.63931,0.07598 -0.95772,0.03829c-0.26441,-0.02196 -0.39038,0.11776 -0.50715,0.35132c0.20415,0.11998 0.39906,0.14615 0.61318,0.18998c0.25388,-0.26067 0.57482,-0.37429 0.85168,-0.57963zM290.22927,218.99005c0.0248,0.07407 0.07694,0.07092 0.12906,0.06785c0.22776,0.00528 0.4711,-0.00924 0.70074,0.01482c0.33763,0.05535 0.49284,-0.14276 0.65987,-0.39823c-0.1254,-0.03029 -0.21596,-0.06263 -0.30471,-0.07621c-0.21412,-0.04385 -0.40713,-0.05123 -0.5816,0.12915c-0.11233,0.10114 -0.26508,0.148 -0.40038,0.1939c-0.07138,-0.01464 -0.16198,-0.04696 -0.20296,0.06876zM286.98606,219.95796c0.07877,0.0897 0.15391,0.1419 0.21162,0.1951c0.15759,0.17944 0.31962,0.22643 0.52444,0.17642c0.17007,-0.0479 0.36312,-0.04053 0.53504,-0.0697c0.05215,-0.00309 0.10613,0.01256 0.11051,-0.11991c-0.25259,-0.07937 -0.50895,-0.19623 -0.75158,-0.35171c-0.05587,-0.03444 -0.14271,-0.02924 -0.21223,-0.0251c-0.1353,0.04583 -0.25328,0.09066 -0.41774,0.19489zM286.6412,224.77515c0.16635,-0.08546 0.35195,-0.15319 0.49537,-0.29398c-0.20977,-0.17632 -0.38658,-0.37348 -0.62552,-0.49142c-0.16264,0.12303 -0.33085,0.1897 -0.4147,0.40245c0.1713,0.14086 0.32703,0.30156 0.54488,0.38293zM292.98769,224.07516c0.20977,0.17629 0.42946,0.27649 0.64542,0.33911c0.16265,-0.12301 0.30974,-0.22621 0.44944,-0.40452c-0.11915,-0.14398 -0.26746,-0.22954 -0.4313,-0.29528c-0.21477,0.12612 -0.43142,0.23349 -0.66358,0.36063zM285.67641,223.15204c-0.11052,0.11992 -0.19181,0.18139 -0.25202,0.27945c-0.04657,0.05944 -0.07575,0.11782 -0.10492,0.17624c0.10547,0.18253 0.24385,0.34426 0.42878,0.44652c0.16448,-0.10421 0.32896,-0.20848 0.43205,-0.4035c-0.1731,-0.15962 -0.31152,-0.32132 -0.50388,-0.49869zM288.42309,219.28674c-0.22901,-0.19405 -0.38287,-0.33592 -0.57339,-0.49453c-0.07136,-0.01465 -0.19114,0.01139 -0.28986,0.07397c-0.10054,0.04377 -0.22593,0.0135 -0.30168,0.13133c0.06886,0.16586 0.16693,0.27329 0.29785,0.35991c0.27622,-0.03538 0.53691,-0.05091 0.86708,-0.07063zM294.18679,221.52977c-0.07761,0.0991 -0.15524,0.19812 -0.23285,0.29714c-0.07761,0.0991 -0.13781,0.19711 -0.21541,0.29614c0.20414,0.11999 0.35621,0.24312 0.55109,0.26926c0.09868,-0.06253 0.1223,-0.17725 0.16518,-0.2742c0.04283,-0.09696 0.13781,-0.1971 0.10745,-0.32744c-0.13284,-0.1054 -0.23086,-0.21283 -0.37546,-0.26085zM285.80068,225.46745c0.1589,-0.16057 0.35822,-0.26688 0.47492,-0.50051c-0.15205,-0.12309 -0.30223,-0.22745 -0.45427,-0.35058c-0.15891,0.16057 -0.3042,0.28254 -0.36879,0.51302c0.09991,0.12623 0.16506,0.25454 0.34814,0.33804zM292.17044,220.23382c0.32396,0.09399 0.61132,0.17124 0.89863,0.24849c0.09687,-0.08133 0.19558,-0.14384 0.21731,-0.27734c-0.21162,-0.19511 -0.46419,-0.27443 -0.71865,-0.37254c-0.09687,0.08133 -0.19368,0.16262 -0.27128,0.26168c-0.06768,0.02291 -0.08132,0.06151 -0.12602,0.13969zM286.37367,222.07186c0.18002,-0.12408 0.3886,-0.1365 0.51275,-0.29502c-0.19424,-0.19612 -0.36922,-0.37453 -0.59268,-0.51228c-0.10866,0.1387 -0.28242,0.14903 -0.36814,0.34301c0.10546,0.18251 0.27307,0.28586 0.44804,0.46427zM294.17515,226.53477c-0.11728,-0.12519 -0.25009,-0.23054 -0.39658,-0.29734c-0.1974,0.12512 -0.39665,0.23141 -0.62879,0.35859c0.2023,0.10121 0.35249,0.20556 0.54114,0.3454c0.1974,-0.1251 0.3793,-0.23036 0.48423,-0.40661zM286.61301,220.07467c-0.21851,0.08858 -0.4041,0.15634 -0.52456,0.35235c0.10178,0.145 0.18425,0.27227 0.33074,0.33907c0.20111,-0.08753 0.40406,-0.15632 0.63808,-0.26472c-0.13838,-0.16171 -0.2749,-0.30462 -0.44431,-0.4267zM293.99304,224.69501c0.22155,0.11895 0.34631,0.31927 0.54119,0.3454c0.16265,-0.12301 0.25206,-0.27943 0.32222,-0.45361c-0.13652,-0.14292 -0.25565,-0.28691 -0.45238,-0.33182c-0.12601,0.1397 -0.25388,0.26067 -0.41096,0.43999zM286.16408,226.84318c0.10865,-0.13869 0.22099,-0.23981 0.2738,-0.41294c-0.20415,-0.11998 -0.34627,-0.31927 -0.57964,-0.38087c-0.11052,0.11992 -0.16889,0.23671 -0.16954,0.40673c0.15389,0.14188 0.32329,0.26396 0.47537,0.38705zM292.39781,219.35158c0.12789,-0.12095 0.18807,-0.21893 0.22727,-0.35348c-0.15207,-0.12311 -0.33698,-0.22539 -0.54552,-0.21291c-0.09314,0.11887 -0.18621,0.2377 -0.29677,0.35764c0.20601,0.13879 0.41643,0.14509 0.61504,0.20877zM288.40669,229.54205c0.07574,-0.1178 0.13598,-0.21586 0.14221,-0.32951c-0.1849,-0.10226 -0.36617,-0.16695 -0.56106,-0.1931c-0.09499,0.10005 -0.15519,0.1981 -0.17695,0.3316c0.18682,0.12108 0.3972,0.12736 0.5958,0.19101zM285.12881,223.97792c-0.19739,0.12509 -0.19991,0.2763 -0.16581,0.44424c0.01298,0.13141 0.06077,0.26076 0.20538,0.30878c0.12789,-0.12095 0.2384,-0.24083 0.30858,-0.41498c-0.11728,-0.12519 -0.2327,-0.23159 -0.34812,-0.33803zM292.76276,228.33758c0.15082,-0.06566 0.28983,-0.07396 0.36373,-0.21056c-0.33261,-0.35781 -0.65352,-0.24428 -0.99987,-0.03472c0.21784,0.08142 0.41831,0.16389 0.63612,0.24529zM285.35569,222.20813c0.08621,0.16483 0.18429,0.27224 0.35185,0.37557c0.07385,-0.13662 0.24581,-0.16577 0.30044,-0.32009c-0.02851,-0.11164 -0.10174,-0.14501 -0.1613,-0.21699c-0.07693,-0.07092 -0.12099,-0.16272 -0.24266,-0.15547c-0.09687,0.08133 -0.1937,0.16266 -0.24835,0.31699zM290.55782,223.89922c-0.08383,0.21272 -0.03794,0.3233 0.12033,0.33272c0.22777,0.00531 0.45184,-0.02696 0.65853,-0.0582c0.06949,-0.00412 0.15455,-0.02814 0.17816,-0.14283c-0.3221,-0.07518 -0.64049,-0.11283 -0.95703,-0.13171zM286.23525,227.91532c-0.10056,0.04376 -0.14526,0.12197 -0.15151,0.23568c0.175,0.17841 0.33631,0.39541 0.59077,0.49351c0.08198,-0.23152 0.03051,-0.39845 -0.15628,-0.51945c-0.07696,-0.07092 -0.14026,-0.18049 -0.28298,-0.20973zM290.9806,226.40451c0.026,0.26281 0.06641,0.31707 0.22275,0.30774c0.24144,-0.03331 0.50028,-0.06762 0.7343,-0.17603c-0.32769,-0.13151 -0.63615,-0.2453 -0.95707,-0.13171zM289.50217,229.30663c-0.14087,-0.01048 -0.26256,-0.00316 -0.38602,-0.01472c-0.24517,-0.00428 -0.24516,-0.00424 -0.29865,0.33887c0.1254,0.03029 0.27,0.07831 0.34135,0.0929c0.1242,-0.15849 0.23466,-0.27839 0.34331,-0.41708zM295.24762,223.77038c-0.09803,-0.10748 -0.14954,-0.27433 -0.34071,-0.26294c-0.07575,0.11782 -0.13227,0.2534 -0.22354,0.39103c0.11728,0.12519 0.219,0.27021 0.36363,0.31821c0.07386,-0.13663 0.16703,-0.25548 0.2006,-0.44633zM288.01587,228.24334c-0.23522,-0.08033 -0.4723,-0.17954 -0.70752,-0.25989c-0.08314,0.04274 -0.14711,0.10318 -0.10121,0.21374c0.1731,0.15962 0.37732,0.27964 0.60882,0.32247c0.09687,-0.08133 0.1589,-0.16056 0.1999,-0.27635zM294.00865,227.14907c0.03038,0.13037 0.10918,0.22013 0.2209,0.28896c0.06581,-0.04169 0.1316,-0.0834 0.19739,-0.12511c0.08133,-0.06147 0.16448,-0.10426 0.18809,-0.21897c-0.01115,-0.11265 -0.05516,-0.20441 -0.14952,-0.27433c-0.14712,0.10324 -0.30975,0.22625 -0.45686,0.3294zM293.99021,223.42996c0.11728,0.12519 0.24639,0.19303 0.39097,0.24106c0.08942,-0.15639 0.18066,-0.29405 0.25454,-0.43064c-0.06703,-0.14708 -0.17872,-0.21595 -0.28486,-0.22851c-0.12601,0.1397 -0.25203,0.27943 -0.36073,0.41811zM293.54424,227.9321c0.09868,-0.06253 0.19738,-0.12508 0.29427,-0.2064c0.01551,-0.01979 0.01179,-0.05739 0.02546,-0.09598c-0.05955,-0.07201 -0.10546,-0.18253 -0.25008,-0.23056c-0.13348,0.06466 -0.3035,0.11258 -0.42955,0.25229c0.10177,0.14497 0.21348,0.21381 0.35994,0.28063zM292.14817,229.01648c0.19302,0.00736 0.24824,0.2118 0.42201,0.20142c0.13156,-0.08338 0.28615,-0.11147 0.4103,-0.26999c-0.09991,-0.12623 -0.19798,-0.2337 -0.34878,-0.168c-0.15083,0.06567 -0.30907,0.05623 -0.48354,0.23659zM287.07293,228.96064c0.12907,0.06782 0.26004,0.15443 0.37172,0.2233c0.01923,0.01775 0.05215,-0.0031 0.08688,-0.0052c0.02547,-0.09595 0.1031,-0.19499 0.03419,-0.36084c-0.14832,-0.08553 -0.31402,-0.17012 -0.48159,-0.27339c-0.05651,0.13555 -0.06275,0.24926 -0.01129,0.41615zM294.83817,222.8128c0.09314,-0.11887 0.20364,-0.23877 0.28121,-0.33783c-0.06886,-0.16586 -0.16688,-0.27334 -0.26308,-0.36199c-0.11982,0.02605 -0.12415,0.15848 -0.16889,0.23671c-0.04469,0.07824 -0.10676,0.15746 -0.07638,0.28786c0.0422,0.07303 0.10177,0.145 0.22716,0.1753zM285.77501,220.61567c-0.11233,0.10114 -0.19184,0.18143 -0.27129,0.2617c-0.0329,0.02083 -0.04472,0.07823 -0.06024,0.09805c0.01298,0.13141 0.09181,0.22115 0.20352,0.28998c0.12975,-0.10217 0.26134,-0.18559 0.37001,-0.3242c-0.06331,-0.10952 -0.1421,-0.19927 -0.242,-0.32548zM289.56973,229.81243c0.23338,0.06164 0.46671,0.12321 0.70445,0.05238c-0.06886,-0.16584 -0.10111,-0.31503 -0.24941,-0.40058c-0.28617,0.11148 -0.28615,0.11148 -0.45501,0.34819zM285.14396,222.54174c-0.29865,0.33888 -0.29675,0.35762 -0.08948,0.68519c0.11052,-0.11992 0.20175,-0.25753 0.3123,-0.37743c-0.03038,-0.13037 -0.10919,-0.22007 -0.22274,-0.30775zM294.4967,226.25128c0.12975,-0.10217 0.22472,-0.20228 0.27939,-0.35661c-0.02111,-0.03651 -0.06142,-0.09078 -0.10175,-0.14503c-0.03849,-0.03546 -0.09434,-0.06993 -0.13279,-0.10536c-0.12973,0.10219 -0.27872,0.18664 -0.35075,0.342c0.06329,0.10951 0.17683,0.19719 0.30594,0.26498zM286.48032,219.4405c0.04035,0.05422 0.09993,0.12621 0.15391,0.1419c0.19677,0.04492 0.36677,-0.00303 0.54497,-0.14587c-0.08065,-0.10852 -0.13028,-0.25659 -0.24015,-0.30669c-0.16635,0.08546 -0.35567,0.11565 -0.45873,0.31066zM293.49813,219.87126c0.01551,-0.01979 0.03104,-0.03963 0.06207,-0.07923c-0.16321,-0.23576 -0.37295,-0.41209 -0.58268,-0.58838c-0.11605,0.06358 -0.16077,0.14177 -0.1633,0.293c0.22155,0.11895 0.44495,0.25667 0.68392,0.37463zM291.56982,225.29287c-0.27183,-0.09707 -0.52813,-0.21392 -0.82172,-0.17753c-0.0174,0.00102 -0.04467,0.0782 -0.04097,0.11574c0.00931,0.09386 0.08624,0.16481 0.17313,0.15957c0.2315,0.04284 0.45372,-0.00821 0.68956,-0.0978zM295.04365,225.59538c0.09501,-0.10007 0.18999,-0.20019 0.2465,-0.33575c-0.013,-0.13141 -0.05705,-0.2232 -0.18797,-0.30981c-0.09127,0.13765 -0.19994,0.27632 -0.27382,0.41291c0.04589,0.11053 0.10547,0.18252 0.21533,0.23263zM285.14838,225.41198c0.00865,0.26385 0.0135,0.49018 0.15746,0.7082c0.15082,-0.06566 0.20737,-0.20121 0.24463,-0.35453c-0.11914,-0.14395 -0.21903,-0.27019 -0.40213,-0.35368zM287.94038,218.29581c0.12101,0.16275 0.14018,0.18048 0.19236,0.17738c0.17565,0.00842 0.32278,-0.0948 0.4525,-0.19698c0.0484,-0.04064 0.05648,-0.13559 -0.05335,-0.18568c-0.14526,0.12197 -0.37866,0.06036 -0.59154,0.20529zM293.45079,220.62945c0.22341,0.13777 0.43132,0.2953 0.72861,0.29639c-0.14766,-0.25554 -0.36924,-0.37454 -0.55602,-0.49554c-0.08504,0.02393 -0.11418,0.08233 -0.17255,0.19914zM285.37386,221.50832c-0.06143,-0.09076 -0.10548,-0.18255 -0.16691,-0.27329c-0.14715,0.10321 -0.25764,0.22312 -0.18505,0.42651c0.02294,0.0553 0.0459,0.11054 0.11727,0.12519c0.10053,-0.04375 0.1608,-0.1418 0.23467,-0.2784zM291.27887,227.65198c0.01675,0.16898 0.05889,0.24197 0.19606,0.2149c0.11983,-0.02603 0.23962,-0.05209 0.35755,-0.09691c0.05025,-0.02189 0.09869,-0.06255 0.07389,-0.13661c-0.21413,-0.04386 -0.40527,-0.03244 -0.62749,0.0186zM290.92037,220.49726c-0.23338,-0.06164 -0.46302,-0.08564 -0.68336,-0.01585c-0.01739,0.00104 -0.04467,0.07823 -0.04283,0.09697c0.00371,0.03752 0.05955,0.07199 0.09433,0.0699c0.22407,-0.03225 0.43636,-0.00717 0.63192,-0.15104zM290.24028,219.63146c0.16821,-0.06669 0.35941,-0.07811 0.53944,-0.20213c-0.23521,-0.08036 -0.43011,-0.1065 -0.52879,-0.04396c-0.10053,0.04375 -0.09315,0.11886 -0.01061,0.2461zM285.53717,227.22056c0.07445,0.22218 0.10047,0.48503 0.32203,0.60397c0.10557,-0.34622 -0.11598,-0.46516 -0.32203,-0.60397zM288.67406,226.76881c0.00372,0.03751 0.02298,0.05534 0.02668,0.09285c0.1719,-0.02916 0.33576,0.03659 0.48289,-0.06662c0.00625,-0.11367 -0.01673,-0.16897 -0.10919,-0.22009c-0.11605,0.06358 -0.24953,0.12821 -0.40039,0.1939zM291.08686,222.88568c-0.24888,-0.04178 -0.44377,-0.06791 -0.65046,-0.03669c-0.03477,0.00207 -0.06579,0.04167 -0.06022,0.09801c0.00186,0.0188 0.02295,0.05528 0.04221,0.07302c0.23338,0.06164 0.4419,0.04916 0.66848,-0.13432zM286.30337,219.77208c-0.04591,-0.11053 -0.0862,-0.16479 -0.13467,-0.12414c-0.11605,0.06358 -0.23029,0.14594 -0.34452,0.2283c-0.06394,0.06046 -0.05838,0.11677 0.01672,0.16894c0.18561,-0.06772 0.33645,-0.1334 0.46246,-0.2731zM295.31013,224.57863c0.05955,0.07201 0.10177,0.145 0.16133,0.217c0.01923,0.01775 0.054,0.01565 0.108,0.03134c-0.02228,-0.22526 0.00939,-0.43488 -0.08427,-0.67482c-0.09127,0.13765 -0.15149,0.23567 -0.18505,0.42651zM288.4188,221.89301c-0.17192,0.02913 -0.32652,0.05727 -0.53319,0.08849c0.19239,0.17736 0.35434,0.22435 0.52626,0.19518c0.04285,-0.09698 0.05467,-0.15434 0.00692,-0.28369zM289.43667,227.7619c-0.11425,0.08236 -0.30907,0.05621 -0.39292,0.26896c0.42268,0.0314 0.50953,0.02622 0.53503,-0.06975c-0.00931,-0.09386 -0.04964,-0.14812 -0.1421,-0.19925zM290.94058,221.76133c-0.28296,-0.20974 -0.49149,-0.19725 -0.74477,-0.10661c0.23458,0.25038 0.46297,0.08563 0.74477,0.10661zM292.22708,228.57738c-0.26372,-0.19199 -0.45494,-0.18057 -0.65975,-0.13056c-0.01739,0.00104 -0.03102,0.03963 -0.02733,0.07717c0.00556,0.05632 0.04405,0.09178 0.07881,0.0897c0.17561,0.00843 0.34756,-0.02073 0.60825,-0.03631zM289.78657,228.64758c-0.15082,0.06566 -0.32278,0.09483 -0.42581,0.28978c0.17938,0.04594 0.33392,0.01781 0.47109,-0.00924c0.041,-0.11574 0.01618,-0.18979 -0.04527,-0.28056zM293.24369,228.78105c0.14341,-0.14077 0.33458,-0.15216 0.38553,-0.34405c-0.24888,-0.04178 -0.24888,-0.04178 -0.47175,0.17924c0.02111,0.03651 0.04218,0.07303 0.08622,0.16482zM286.39555,227.41483c0.07817,0.25971 0.24756,0.38181 0.43251,0.48407c0.09868,-0.06253 0.09129,-0.13767 0.03358,-0.19083c-0.14833,-0.08553 -0.29852,-0.18991 -0.46607,-0.29318zM294.75053,226.51938c0.02851,0.11164 0.05519,0.20444 0.16503,0.2545c0.07944,-0.08027 0.15894,-0.16056 0.16515,-0.2742c-0.02665,-0.09283 -0.06701,-0.14707 -0.14026,-0.18049c-0.08315,0.04276 -0.12973,0.10217 -0.18995,0.20019zM288.31022,224.50561c0.14459,0.04802 0.25263,0.07936 0.35318,0.03558c0.0329,-0.02083 0.04657,-0.05942 0.06024,-0.09803c-0.00556,-0.05632 -0.04776,-0.12937 -0.09801,-0.10748c-0.1043,0.00622 -0.22594,0.01349 -0.31537,0.16992zM295.39234,223.28959c0.03542,-0.17209 -0.06637,-0.31709 -0.11599,-0.46519c-0.20364,0.23878 -0.19989,0.27633 0.11599,0.46519zM290.15364,218.5791c0.26811,0.05953 0.26813,0.05953 0.35568,-0.11567c-0.10801,-0.03134 -0.23339,-0.06161 -0.35568,0.11567zM288.89283,225.6227c0.04469,-0.07824 0.03913,-0.13453 0.00253,-0.15122c-0.14833,-0.08553 -0.1986,-0.06367 -0.33829,0.11464c0.1272,0.04908 0.23152,0.04284 0.3358,0.03661zM292.16605,229.37411c-0.0962,-0.08866 -0.19054,-0.15856 -0.30845,-0.11379c0.08189,0.29726 0.11845,0.31395 0.30845,0.11379zM290.72287,218.14859c-0.13284,-0.1054 -0.27368,-0.11588 -0.39718,-0.12737c-0.06949,0.00412 -0.11608,0.0636 -0.03542,0.17209c0.1235,0.01149 0.26443,0.02199 0.43262,-0.04469zM294.13266,228.04815c-0.1775,-0.02717 -0.25885,0.03433 -0.27874,0.18661c0,0 0.02111,0.03651 0.03848,0.03547c0.10614,0.01253 0.1645,-0.10421 0.24029,-0.22207zM288.32476,223.23944c0.04591,0.11053 0.11916,0.14397 0.18678,0.12104c0.03477,-0.00207 0.0658,-0.04171 0.07947,-0.08028c0.01365,-0.0386 -0.02666,-0.0928 -0.06143,-0.09072c-0.054,-0.01568 -0.1235,-0.01152 -0.20484,0.04998zM295.30926,225.80623c-0.11423,0.08236 -0.15894,0.16056 -0.07453,0.3066c0.12973,-0.10219 0.15707,-0.17933 0.07453,-0.3066z" fill="#000000"/><path d="M282.18513,223.3794c0.04206,0.60178 0.08414,1.20363 0.14361,1.80438c0.06689,0.67587 0.2033,1.34756 0.42475,1.99529c0.07258,0.20339 0.17615,0.36717 0.26797,0.58827c-0.2781,0.0166 -0.51947,0.04993 -0.76464,0.04566c-1.46727,0.01207 -2.94261,0.11901 -4.42354,0.16966c-1.32452,0.04129 -2.62978,0.10037 -3.95246,0.16046c-0.90556,0.0352 -1.79379,0.06931 -2.69932,0.10447c-0.85345,0.03206 -1.68576,0.10065 -2.53917,0.13275c-0.06953,0.00413 -0.13905,0.0083 -0.2104,-0.00632c-0.21719,-0.2514 -0.33194,-0.52784 -0.43306,-0.84281c-0.15444,-0.50068 -0.27597,-1.02218 -0.31062,-1.54886c-0.01675,-0.16898 -0.05084,-0.33689 0.02123,-0.49226c0.05149,0.1669 0.01795,0.35772 0.12525,0.55906c0.26505,-0.14798 0.56605,-0.10935 0.84229,-0.14471c0.01739,-0.00104 0.03474,-0.00206 0.0329,-0.02082c0.45437,-0.17819 0.95835,-0.20825 1.4357,-0.3312c0.17005,-0.04792 0.33457,-0.15218 0.51206,-0.12503c0.35129,0.01682 0.66477,-0.17189 1.01611,-0.1551c0.01739,-0.00104 0.05026,-0.0219 0.08505,-0.02393c0.32459,-0.07606 0.63001,-0.16978 0.95834,-0.20827c0.38234,-0.02284 0.71509,-0.19378 1.10112,-0.17906c0.21477,-0.12612 0.4444,-0.10204 0.68586,-0.13534c0.03477,-0.00207 0.05216,-0.00312 0.08689,-0.00518c0.33273,-0.17094 0.70511,-0.11766 1.04528,-0.2135c0.34015,-0.09585 0.70882,-0.08009 1.05083,-0.15717c0.39416,-0.08017 0.76529,-0.21567 1.188,-0.18422c0.03477,-0.00207 0.08692,-0.00518 0.1198,-0.02603c0.18002,-0.12408 0.39414,-0.08017 0.60084,-0.11138c0.1043,-0.00622 0.22777,0.00528 0.32834,-0.0385c0.14898,-0.0844 0.28986,-0.07396 0.44629,-0.08329c0.0869,-0.00518 0.17566,0.00842 0.24144,-0.0333c0.21477,-0.12612 0.46179,-0.10313 0.68771,-0.11661c0.0869,-0.00518 0.17563,0.00838 0.24144,-0.03329c0.18188,-0.10525 0.3749,-0.09795 0.56609,-0.10933c0.31286,-0.01869 0.61264,-0.16875 0.9273,-0.16867c0.054,0.01564 0.10054,-0.04373 0.15082,-0.06568z" fill="#87d7dc"/><path d="M282.1851,223.37942c-0.05027,0.02188 -0.09685,0.08135 -0.14898,0.08445c-0.31467,-0.00008 -0.61635,0.13122 -0.92731,0.16868c-0.19116,0.0114 -0.38422,0.00405 -0.56608,0.10931c-0.06581,0.04169 -0.15456,0.02813 -0.24141,0.03334c-0.22593,0.01352 -0.47111,0.00921 -0.68776,0.11655c-0.0658,0.04171 -0.15643,0.00935 -0.24145,0.03333c-0.1564,0.00935 -0.29546,0.01764 -0.44629,0.08329c-0.10053,0.04375 -0.22411,0.03226 -0.32837,0.03849c-0.20668,0.03124 -0.42083,-0.01263 -0.60082,0.11142c-0.0329,0.02083 -0.08504,0.02395 -0.11979,0.02604c-0.4053,-0.03245 -0.79389,0.10406 -1.18801,0.18424c-0.35941,0.0781 -0.72805,0.06234 -1.05084,0.15712c-0.34013,0.09585 -0.71254,0.04256 -1.04525,0.21351c-0.01552,0.01978 -0.05215,0.0031 -0.08691,0.00518c-0.22593,0.01352 -0.47108,0.00926 -0.68589,0.13539c-0.38793,-0.03352 -0.72063,0.13747 -1.10111,0.17904c-0.3302,0.0197 -0.63374,0.13226 -0.95835,0.20825c-0.03477,0.00207 -0.05028,0.02194 -0.08504,0.02398c-0.35129,-0.01682 -0.66477,0.17188 -1.0161,0.15509c-0.19302,-0.00736 -0.34015,0.09584 -0.51206,0.12502c-0.47918,0.10415 -0.98132,0.15302 -1.43569,0.33119c-0.01739,0.00104 -0.03289,0.02087 -0.03289,0.02087c-0.27623,0.0354 -0.57724,-0.00332 -0.8423,0.14472c-0.10548,-0.18255 -0.05452,-0.37443 -0.12524,-0.55905c-0.01487,-0.15017 -0.02969,-0.30037 0.06159,-0.43803c0.1043,-0.00622 0.22776,0.00529 0.32831,-0.0385c0.35193,-0.15319 0.71879,-0.15619 1.08004,-0.21555c0.36122,-0.05935 0.71316,-0.21255 1.10107,-0.17906c0.21477,-0.12612 0.44442,-0.10209 0.68587,-0.13538c0.03477,-0.00207 0.08688,-0.00519 0.1198,-0.02605c0.14714,-0.10321 0.32461,-0.07603 0.4792,-0.10414c0.0869,-0.00518 0.17379,-0.0104 0.24144,-0.03331c0.37305,-0.11669 0.7653,-0.2157 1.16505,-0.23955c0.05215,-0.00309 0.12353,0.01155 0.15455,-0.02811c0.16447,-0.10422 0.34013,-0.09587 0.51392,-0.10625c0.19302,0.00736 0.35383,-0.13446 0.56422,-0.12811c0.27992,0.00218 0.53132,-0.10726 0.80566,-0.16141c0.37863,-0.06038 0.73242,-0.19479 1.13214,-0.21864c0.06953,-0.00413 0.15827,0.00944 0.2067,-0.03124c0.13162,-0.08336 0.28984,-0.07399 0.44439,-0.10208c0.13904,-0.00829 0.2762,-0.03536 0.39418,-0.08015c0.21851,-0.08858 0.4407,-0.13964 0.68401,-0.1542c0.36308,-0.04057 0.71505,-0.19379 1.10296,-0.16031c0.03477,-0.00207 0.08504,-0.02392 0.11981,-0.02603c0.35941,-0.0781 0.71689,-0.17503 1.08001,-0.21554c0.38234,-0.02284 0.74982,-0.19585 1.13587,-0.18112c0.05215,-0.00309 0.10054,-0.04379 0.15083,-0.06567c0.2222,-0.05103 0.46366,-0.08434 0.69515,-0.0415c0.02666,0.09284 0.03412,0.1679 0.0589,0.24198c-0.02613,0.26597 -0.03858,0.49331 -0.03179,0.73841z" fill="#b0eef2"/><path d="M291.66197,229.93306c-0.32458,0.07601 -0.58347,0.11034 -0.85158,0.05081c-0.15389,-0.14191 -0.22649,-0.34528 -0.31642,-0.54761c-0.39763,-1.01489 -0.7779,-2.03085 -1.02286,-3.09265c-0.18418,-0.80107 -0.37024,-1.62089 -0.46936,-2.44586c-0.02228,-0.22527 -0.02907,-0.47038 -0.10349,-0.69259c-0.02666,-0.09284 -0.03781,-0.20549 -0.04897,-0.3181c0.02492,-0.45474 -0.05442,-0.90321 -0.08165,-1.35484c-0.04582,-0.63937 -0.0221,-1.28285 0.03639,-1.9284c0.03793,-0.32329 0.05848,-0.64559 0.07716,-0.98661c0.00878,-0.26488 0.09071,-0.49641 0.15533,-0.72689c0.29983,-0.15008 0.4196,-0.17612 0.84042,-0.16348c0.02351,0.41402 -0.04174,0.81453 -0.05302,1.23065c-0.01312,0.39735 -0.02438,0.81348 -0.02013,1.20981c0.0061,0.41508 0.0315,0.84795 0.05496,1.26198c0.00424,0.39631 0.11469,0.80517 0.0668,1.20467c0.12777,0.40786 0.11649,0.82396 0.17477,1.23595c0.05639,0.3932 0.13204,0.80415 0.20583,1.19634c0.07564,0.41094 0.16865,0.82084 0.26351,1.24955c0.09116,0.39113 0.16677,0.80208 0.27535,1.19219c0.11041,0.40886 0.25369,0.79688 0.38146,1.20474c0.12966,0.4266 0.23816,0.81669 0.43546,1.22039z" fill="#d1eaeb"/><path d="M282.20137,222.66081c-0.0248,-0.07405 -0.03224,-0.14918 -0.05892,-0.24196c-0.23152,-0.04283 -0.4574,-0.02934 -0.69515,0.0415c-0.05027,0.02188 -0.09872,0.06256 -0.15084,0.06567c-0.38604,-0.01474 -0.7554,0.13952 -1.13585,0.18112c-0.36497,0.02179 -0.72063,0.13744 -1.08003,0.21552c-0.03477,0.00207 -0.08506,0.02394 -0.1198,0.02604c-0.3879,-0.03352 -0.72062,0.13743 -1.10295,0.16027c-0.22593,0.01352 -0.46552,0.06558 -0.68402,0.15419c-0.13527,0.04584 -0.27248,0.07293 -0.39416,0.08018c-0.1564,0.00935 -0.29727,-0.00114 -0.44442,0.10207c-0.0484,0.04062 -0.13719,0.02705 -0.20671,0.03119c-0.38234,0.02284 -0.7535,0.15833 -1.13212,0.21867c-0.27436,0.05413 -0.52574,0.16361 -0.80567,0.16141c-0.19302,-0.00736 -0.35381,0.13443 -0.56421,0.12811c-0.17564,-0.00839 -0.36867,-0.01577 -0.51394,0.1062c-0.05027,0.02188 -0.1024,0.02501 -0.15453,0.02813c-0.3997,0.02386 -0.77459,0.12174 -1.16504,0.23953c-0.08504,0.02393 -0.17378,0.0104 -0.24141,0.03328c-0.1564,0.00935 -0.33206,0.00098 -0.47917,0.10417c-0.0329,0.02083 -0.08503,0.02396 -0.11978,0.02603c-0.22593,0.01352 -0.4711,0.00924 -0.68589,0.13538c-0.38791,-0.0335 -0.73986,0.11971 -1.10107,0.17906c-0.36122,0.05935 -0.7454,0.0634 -1.07998,0.21553c-0.10056,0.04376 -0.22407,0.03224 -0.32834,0.03851c-0.0341,-0.16795 0.05901,-0.28679 0.06335,-0.41926c0.7206,-0.13746 1.40466,-0.2916 2.09051,-0.42697c0.75353,-0.15829 1.49153,-0.29679 2.2469,-0.43633c0.70327,-0.13641 1.40465,-0.2916 2.10604,-0.44678c0.87333,-0.18433 1.72739,-0.38642 2.58333,-0.56972c0.65112,-0.13331 1.30224,-0.26656 1.95148,-0.41866c1.01049,-0.21143 2.04582,-0.34877 3.05258,-0.59775c0.13716,-0.02707 0.27061,-0.0917 0.43261,-0.04471c0.01675,0.16898 -0.01869,0.34102 -0.03672,0.51209c-0.02545,0.09595 0.02602,0.26282 -0.046,0.41825z" fill="#87d7dc"/><path d="M267.3121,225.89154c0.07378,0.39216 0.0762,0.76974 0.16736,1.16084c0.1141,0.44644 0.24562,0.89179 0.48134,1.33094c-1.00799,0.06019 -1.99859,0.11933 -2.97181,0.17745c-0.21161,-0.19509 -0.30526,-0.43502 -0.41446,-0.65512c-0.19916,-0.42244 -0.27663,-0.85218 -0.35601,-1.30067c-0.00186,-0.0188 0.01181,-0.05733 0.02731,-0.07717c0.12099,0.16274 0.25444,0.09812 0.38977,0.05225c0.33829,-0.11464 0.67844,-0.21049 1.02787,-0.21245c0.06953,-0.00413 0.13903,-0.0083 0.20667,-0.03124c0.31906,-0.13237 0.66848,-0.13434 0.99312,-0.21039c0.18746,-0.04891 0.32271,-0.09484 0.44877,-0.23453z" fill="#61afb4"/><path d="M284.4849,222.24121c-0.03924,0.66329 0.04317,1.3193 0.05609,1.9795c0.01234,0.30141 0.07686,0.59972 0.14134,0.89804c0.0905,0.56114 0.11334,1.14519 0.27339,1.70216c0.05705,0.22321 0.11408,0.44643 0.18666,0.64982c0.04776,0.12936 0.07816,0.25969 0.09116,0.39115c-0.05025,0.02189 -0.08317,0.04273 -0.11795,0.04479c-0.13902,0.00828 -0.27805,0.01662 -0.41709,0.02493c-0.06144,-0.09074 -0.10359,-0.16379 -0.14767,-0.25556c-0.27542,-0.66337 -0.55276,-1.34557 -0.62521,-2.07778c-0.08057,-0.63727 -0.16297,-1.29327 -0.17402,-1.93473c-0.01543,-0.50899 -0.0482,-1.01691 0.07726,-1.51541c0.04407,0.09177 0.00305,0.20754 0.11476,0.27639c0.19487,0.02612 0.42639,0.06896 0.54125,-0.1834z" fill="#61aeb3"/><path d="M283.3651,222.76128c0.06635,0.31708 -0.0082,0.62367 0.00602,0.94386c0.04953,0.67691 0.09901,1.35378 0.20068,2.02755c0.08862,0.54234 0.24496,1.06183 0.43415,1.5604c0.04776,0.12936 0.09553,0.25865 0.1433,0.388c-0.24331,0.01454 -0.45187,0.02703 -0.6778,0.04047c-0.23083,-0.21284 -0.3456,-0.48927 -0.4275,-0.78653c-0.10484,-0.35254 -0.2115,-0.72385 -0.26603,-1.09829c-0.15309,-0.84066 -0.20012,-1.66881 -0.26637,-2.51466c-0.01487,-0.15017 -0.02974,-0.30038 0.04415,-0.43699c0.0869,-0.00518 0.17565,0.00836 0.24143,-0.03331c0.16636,-0.08547 0.37678,-0.07917 0.56792,-0.09059z" fill="#61aeb3"/><path d="M267.3121,225.89154c-0.11052,0.11992 -0.24395,0.18451 -0.41589,0.21367c-0.32461,0.07603 -0.6741,0.07799 -0.99312,0.21038c-0.06767,0.02292 -0.13719,0.0271 -0.20672,0.03123c-0.36496,0.0218 -0.68771,0.1166 -1.02786,0.21243c-0.11797,0.04481 -0.26878,0.1105 -0.38977,-0.05224c-0.04524,-0.28058 -0.03652,-0.54548 0.02622,-0.79472c0.23775,-0.07087 0.47363,-0.16047 0.72064,-0.13746c0.03477,-0.00207 0.08505,-0.02395 0.1198,-0.02605c0.34199,-0.07707 0.70139,-0.1552 1.04525,-0.2135c0.15455,-0.02811 0.2936,-0.03638 0.4463,-0.08328c0.1856,-0.0677 0.39229,-0.09896 0.59275,-0.0165c0.02665,0.09283 0.0341,0.16791 0.0589,0.24196c0.01298,0.13141 0.01049,0.28268 0.02351,0.41404z" fill="#87d7dc"/><path d="M292.97938,222.22504c-0.22101,0.23985 -0.48973,0.35028 -0.76043,0.442c-0.06766,0.02292 -0.17195,0.02915 -0.24332,0.01454c-0.51885,-0.12009 -1.03028,-0.16511 -1.53983,-0.19134c-0.01739,0.00104 -0.05398,-0.01566 -0.07325,-0.0334c-0.05955,-0.07201 -0.06889,-0.16586 -0.02603,-0.26281c0.03477,-0.00207 0.06768,-0.02295 0.10242,-0.025c0.41893,-0.00609 0.83236,-0.06857 1.21906,-0.22386c0.20299,-0.06877 0.39415,-0.08017 0.61199,0.00123c0.23705,0.09917 0.46858,0.14197 0.70939,0.27869z" fill="#cce5e6"/><path d="M290.2437,221.25532c-0.06331,-0.10952 -0.05335,-0.18565 -0.00678,-0.24509c0.83049,-0.08733 0.83047,-0.08737 1.53064,-0.43131c0.29919,0.0199 0.6076,0.13366 0.89494,0.21096c0.04776,0.12936 -0.05464,0.1543 -0.10307,0.19499c-0.17815,0.14282 -0.33895,0.28462 -0.53822,0.39093c-0.13349,0.06465 -0.25327,0.09065 -0.39598,0.06141c-0.44565,-0.08671 -0.90676,-0.1536 -1.38156,-0.18192z" fill="#cce5e6"/><path d="M267.28674,225.45875c-0.0248,-0.07407 -0.03225,-0.14918 -0.05891,-0.24197c-0.20047,-0.08245 -0.40713,-0.05123 -0.59276,0.01652c-0.15271,0.0469 -0.29172,0.0552 -0.44631,0.08328c-0.34388,0.0583 -0.70325,0.13641 -1.04526,0.21348c-0.03477,0.00207 -0.08506,0.02397 -0.11981,0.02603c-0.26254,-0.0032 -0.48103,0.08535 -0.72061,0.13742c0.01987,-0.15226 0.04166,-0.28578 0.13106,-0.44218c0.48103,-0.08537 0.97577,-0.20935 1.47603,-0.277c0.48103,-0.08537 0.95464,-0.24582 1.47601,-0.27697c0.01234,0.30141 -0.03486,0.53084 -0.09943,0.76132z" fill="#60adb2"/><path d="M288.98028,225.9763c0.02481,0.07406 0.04775,0.12936 0.07256,0.2034c-0.03102,0.03965 -0.04656,0.05942 -0.06206,0.07921c-0.288,0.09276 -0.55306,0.24077 -0.81624,0.40752c-0.11608,0.06358 -0.21851,0.0886 -0.34572,0.03953c-0.2526,-0.07936 -0.51885,-0.12008 -0.75157,-0.3517c0.20364,-0.23876 0.46868,-0.38678 0.7356,-0.51601c0.05025,-0.02189 0.13904,-0.00827 0.21039,0.00632c0.31837,0.0376 0.63685,0.07527 0.95709,0.1317z" fill="#cce5e6"/><path d="M293.40315,225.9766c-0.16632,0.08547 -0.26507,0.14801 -0.38115,0.2116c-0.21667,0.10737 -0.42332,0.13856 -0.67778,0.04048c-0.43379,-0.14407 -0.87946,-0.23073 -1.31391,-0.20481c-0.13902,0.00828 -0.15826,-0.00944 -0.16321,-0.23576c0.05214,-0.0031 0.10243,-0.02503 0.15457,-0.02811c0.43634,-0.00716 0.84782,-0.08839 1.25379,-0.22593c0.10243,-0.02497 0.18747,-0.04894 0.27809,-0.01664c0.27556,0.13461 0.54738,0.23173 0.84959,0.45919z" fill="#cae2e3"/><path d="M290.44557,223.47162c0.01551,-0.01979 0.04846,-0.0407 0.06581,-0.04169c0.40339,0.01369 0.77831,-0.08423 1.13403,-0.19989c0.34013,-0.09585 0.67036,-0.11557 1.0191,0.05246c0.16572,0.08453 0.35872,0.09187 0.51076,0.21503c-0.33522,0.32218 -0.74489,0.42215 -1.14024,0.31357c-0.48411,-0.12218 -0.95267,-0.26415 -1.45483,-0.21529c-0.054,-0.01564 -0.12352,-0.01153 -0.13469,-0.12416z" fill="#c9e1e2"/><path d="M293.2557,224.66355c-0.25949,0.20434 -0.49533,0.29396 -0.74858,0.3846c-0.08504,0.02393 -0.17193,0.02913 -0.24519,-0.00426c-0.50335,-0.13991 -1.02031,-0.24123 -1.53358,-0.30502c-0.03477,0.00207 -0.08874,-0.01357 -0.08066,-0.10849c0.12164,-0.00726 0.26066,-0.01557 0.38049,-0.04158c0.34572,-0.03951 0.68957,-0.09783 1.00861,-0.2302c0.23587,-0.08967 0.46367,-0.08433 0.68521,0.03463c0.16572,0.08453 0.31404,0.17007 0.53374,0.27029z" fill="#c9e1e2"/><path d="M289.2711,227.14865c0.09803,0.10749 0.10734,0.20135 0.11663,0.2952c-0.01551,0.01979 -0.04844,0.04068 -0.06395,0.06045c-0.27435,0.05414 -0.52389,0.18238 -0.73306,0.36483c-0.12975,0.10217 -0.26693,0.12922 -0.42892,0.08224c-0.19859,-0.06367 -0.41272,-0.10751 -0.59769,-0.20978c0.13596,-0.21583 0.38989,-0.47654 0.52522,-0.52237c0.08315,-0.04276 0.1564,-0.00936 0.24516,0.00426c0.29357,-0.0364 0.61385,0.01998 0.93659,-0.07479z" fill="#cae3e4"/><path d="M287.48863,220.79663c0.29663,0.17112 0.58771,0.28598 0.89431,0.38097c0.04589,0.11053 0.05336,0.18567 0.0105,0.28266c-0.3035,0.11255 -0.67218,0.09676 -0.97386,0.2281c-0.20045,-0.08248 -0.3196,-0.22642 -0.47166,-0.34951c-0.07693,-0.07092 -0.16939,-0.12203 -0.1998,-0.25242c0.21106,-0.16368 0.49099,-0.16149 0.74052,-0.28972z" fill="#c8e0e1"/><path d="M288.60272,223.75164c-0.00066,0.16999 -0.06829,0.19292 -0.13596,0.21583c-0.25329,0.09069 -0.48913,0.18028 -0.74423,0.25218c-0.06767,0.02293 -0.13717,0.02709 -0.21043,-0.00629c-0.20414,-0.11999 -0.41018,-0.2588 -0.60072,-0.41735c0.09499,-0.10006 0.19741,-0.1251 0.29612,-0.18763c0.2961,-0.18762 0.58966,-0.22406 0.8919,0.00338c0.15019,0.10437 0.32769,0.13152 0.50334,0.13988z" fill="#cbe4e5"/><path d="M288.48564,222.56886c0.00931,0.09386 0.01487,0.15017 0.02046,0.20652c-0.0329,0.02083 -0.04658,0.0594 -0.06394,0.06047c-0.18746,0.04891 -0.37677,0.07917 -0.56423,0.12812c-0.10243,0.02497 -0.19118,0.0114 -0.28365,-0.03974c-0.2774,-0.15338 -0.53929,-0.32662 -0.80678,-0.55613c0.14341,-0.14076 0.29795,-0.16886 0.45251,-0.19698c0.06949,-0.00412 0.13903,-0.00826 0.19486,0.02611c0.30223,0.22745 0.66095,0.31936 1.05071,0.37164z" fill="#c8e0e1"/><path d="M283.36512,222.76127c-0.19116,0.0114 -0.4016,0.00507 -0.58348,0.1104c-0.0658,0.04171 -0.15453,0.02809 -0.24142,0.03329c-0.04896,-0.3181 -0.02655,-0.62158 0.06725,-0.91046c0.24702,0.02303 0.48288,-0.06659 0.68769,-0.11659c0.09991,0.12623 0.06076,0.26076 0.10667,0.37129c0.0341,0.16795 0.03529,0.3567 -0.03671,0.51208z" fill="#85d5d9"/><path d="M292.69279,227.45424c-0.26998,-0.0783 -0.53996,-0.15658 -0.82545,-0.2151c-0.24888,-0.04181 -0.51207,0.12498 -0.80062,-0.14108c0.59087,-0.03528 1.09926,-0.19783 1.60762,-0.36035c0.20045,0.08248 0.42017,0.18262 0.59515,0.36106c-0.03102,0.03965 -0.04658,0.05943 -0.06206,0.07923c-0.16449,0.10424 -0.33086,0.18973 -0.51457,0.27623z" fill="#c6dede"/><path d="M293.37046,221.93728c-0.30849,-0.11379 -0.58026,-0.21084 -0.88874,-0.32462c0.08942,-0.15639 0.22286,-0.22106 0.31783,-0.32112c0.11233,-0.10114 0.20366,-0.23878 0.35448,-0.30442c0.12164,-0.00726 0.23335,0.06161 0.3432,0.11167c0.10984,0.05007 0.22154,0.11899 0.33514,0.20662c-0.07826,0.26906 -0.27198,0.43168 -0.46195,0.6319z" fill="#cae3e3"/><path d="M290.09001,220.05588c0.50836,-0.16257 0.92983,-0.31994 1.32274,-0.58888c0.23338,0.06164 0.46485,0.10444 0.71559,0.16502c-0.11487,0.25238 -0.31412,0.35871 -0.49227,0.5015c-0.0329,0.02083 -0.08507,0.02395 -0.11979,0.026c-0.44003,-0.03039 -0.88011,-0.06074 -1.42625,-0.10366z" fill="#cae3e4"/><path d="M287.03406,225.03501c0.25947,-0.20434 0.50529,-0.37012 0.86957,-0.22188c0.25447,0.09811 0.51701,0.10134 0.77955,0.10454c0.10429,-0.00622 0.13095,0.08658 0.10735,0.20133c-0.28176,-0.02092 -0.53319,0.08849 -0.78459,0.19793c-0.18373,0.08651 -0.34384,0.05833 -0.50956,-0.02621c-0.14646,-0.0668 -0.3066,-0.09503 -0.46235,-0.2557z" fill="#c8e0e1"/><path d="M284.48491,222.24121c-0.13226,0.2534 -0.34636,0.20949 -0.55677,0.20318c-0.11167,-0.06884 -0.0881,-0.18356 -0.11479,-0.27636c-0.00677,-0.24509 0.04047,-0.47453 0.12243,-0.70608c0.19302,0.00736 0.37675,-0.07913 0.55983,0.00434c0.02666,0.09284 0.03225,0.14916 0.03968,0.22425c-0.01616,0.18981 -0.03231,0.37962 -0.05039,0.55067z" fill="#85d4d9"/><path d="M287.23245,223.15364c-0.24953,0.1282 -0.46803,0.21679 -0.68466,0.32417c-0.20788,-0.15756 -0.40026,-0.33489 -0.55972,-0.53315c0.02176,-0.13352 0.12229,-0.17726 0.18623,-0.23772c0.06393,-0.06047 0.12789,-0.12092 0.25139,-0.10941c0.22341,0.13777 0.48713,0.32972 0.80677,0.55613z" fill="#c7dfe0"/><path d="M286.67257,226.15188c-0.18682,-0.12108 -0.37172,-0.22332 -0.54675,-0.4017c0.13411,-0.23464 0.33336,-0.34093 0.54628,-0.48583c0.22154,0.11896 0.44311,0.2379 0.68206,0.35586c-0.22473,0.20225 -0.4377,0.34718 -0.68162,0.53169z" fill="#c8e0e1"/><path d="M294.01581,222.80523c-0.1242,0.15849 -0.24835,0.31696 -0.43023,0.42225c-0.25447,-0.09811 -0.51077,-0.215 -0.78445,-0.33085c-0.00371,-0.03752 -0.00743,-0.07507 0.00996,-0.07611c0.14526,-0.12197 0.30789,-0.24499 0.455,-0.3482c0.06581,-0.04169 0.13347,-0.06466 0.18929,-0.03021c0.2197,0.1002 0.43382,0.14405 0.56043,0.36312z" fill="#c4dcdd"/><path d="M293.76133,225.70977c-0.24077,-0.1367 -0.47972,-0.25462 -0.72055,-0.39134c0.03728,-0.15327 0.17629,-0.16157 0.27501,-0.22413c0.09868,-0.06253 0.21665,-0.10737 0.33271,-0.17095c0.21784,0.08142 0.37539,0.2609 0.56411,0.40071c-0.10119,0.21374 -0.26758,0.29922 -0.45131,0.38571z" fill="#c8e0e1"/><path d="M286.81146,226.67226c0.25631,0.11692 0.49342,0.21608 0.76708,0.33192c-0.12042,0.19603 -0.30234,0.30129 -0.42464,0.4786c-0.25073,-0.0606 -0.42574,-0.23897 -0.64913,-0.37673c0.08568,-0.19395 0.15771,-0.34933 0.30669,-0.43374z" fill="#c6ddde"/><path d="M289.66438,228.29601c-0.27687,0.20538 -0.59775,0.31897 -0.83429,0.57858c-0.21413,-0.04386 -0.40904,-0.07 -0.61319,-0.19c0.09936,-0.23252 0.24277,-0.37333 0.50715,-0.35133c0.31837,0.03763 0.6275,-0.0186 0.94034,-0.03727z" fill="#b9cfd0"/><path d="M290.22927,218.99005c0.041,-0.11574 0.13347,-0.06467 0.2011,-0.08756c0.15269,-0.04688 0.30721,-0.07502 0.40038,-0.1939c0.17631,-0.16159 0.36931,-0.15426 0.58161,-0.12914c0.08877,0.01362 0.17938,0.04592 0.30474,0.07623c-0.167,0.25551 -0.32224,0.4536 -0.65985,0.39822c-0.2315,-0.04282 -0.47295,-0.00955 -0.70074,-0.01483c-0.05214,0.00308 -0.10427,0.00622 -0.12722,-0.04906z" fill="#c0d8d8"/><path d="M286.98608,219.95801c0.14714,-0.10321 0.28241,-0.14904 0.42144,-0.15736c0.06949,-0.00412 0.15644,-0.00938 0.21227,0.02507c0.24265,0.1555 0.4971,0.25357 0.75157,0.3517c0.01298,0.13141 -0.05837,0.11677 -0.11053,0.11992c-0.1738,0.01037 -0.36496,0.02181 -0.53503,0.06973c-0.22221,0.05103 -0.38419,0.00405 -0.52445,-0.17643c-0.06143,-0.09076 -0.11914,-0.14397 -0.21529,-0.23263z" fill="#c1d9d9"/><path d="M286.6412,224.77515c-0.2023,-0.10121 -0.35621,-0.24315 -0.54486,-0.38294c0.08382,-0.21272 0.26942,-0.28044 0.4147,-0.40245c0.23894,0.11792 0.41579,0.31506 0.62554,0.49142c-0.1608,0.14178 -0.32902,0.20848 -0.49538,0.29398z" fill="#c3dbdc"/><path d="M292.98767,224.07518c0.23216,-0.1272 0.44883,-0.23453 0.66361,-0.36066c0.16387,0.06572 0.31029,0.13257 0.43132,0.29528c-0.12233,0.17727 -0.28683,0.2815 -0.44945,0.40456c-0.23338,-0.06164 -0.43565,-0.16282 -0.64541,-0.33914z" fill="#c3dadb"/><path d="M285.67641,223.15204c0.175,0.17841 0.33073,0.33906 0.48648,0.49971c-0.10307,0.19501 -0.26757,0.29924 -0.43205,0.40347c-0.16943,-0.12206 -0.30594,-0.26498 -0.42874,-0.44648c0.02919,-0.05839 0.07391,-0.13659 0.10492,-0.17622c0.09498,-0.1001 0.17629,-0.1616 0.26946,-0.28048z" fill="#c4dbdc"/><path d="M288.42307,219.28677c-0.33024,0.0197 -0.59093,0.03526 -0.86896,0.05192c-0.13096,-0.0866 -0.22899,-0.19409 -0.29782,-0.3599c0.07576,-0.11779 0.20112,-0.08754 0.3017,-0.13131c0.10054,-0.04377 0.20296,-0.06876 0.28986,-0.07398c0.19242,0.17738 0.34631,0.31926 0.57527,0.5133z" fill="#c2d9da"/><path d="M294.18676,221.52977c0.14646,0.0668 0.26005,0.15439 0.34069,0.26291c0.03224,0.14915 -0.06465,0.23049 -0.10745,0.32744c-0.0428,0.09695 -0.04906,0.21065 -0.16514,0.27422c-0.17751,-0.02716 -0.3469,-0.14926 -0.55113,-0.26924c0.07761,-0.0991 0.15521,-0.19815 0.21544,-0.29613c0.09499,-0.10006 0.18996,-0.2002 0.26757,-0.29926z" fill="#c5ddde"/><path d="M285.80068,225.46745c-0.18311,-0.08351 -0.25011,-0.23057 -0.36553,-0.33698c0.06648,-0.21171 0.20987,-0.35247 0.36878,-0.51306c0.15206,0.1231 0.30409,0.24624 0.45429,0.3506c-0.09938,0.23252 -0.29862,0.33888 -0.45752,0.49943z" fill="#c3dbdc"/><path d="M292.17044,220.23382c0.04469,-0.07824 0.07571,-0.11783 0.10674,-0.15746c0.07944,-0.08027 0.1763,-0.16162 0.27129,-0.2617c0.25631,0.11692 0.50705,0.17745 0.71868,0.37256c-0.02176,0.13352 -0.10307,0.19502 -0.2173,0.27738c-0.26811,-0.05953 -0.57283,-0.13579 -0.87944,-0.23073z" fill="#c7dfe0"/><path d="M286.37363,222.07176c-0.1576,-0.17943 -0.34251,-0.28169 -0.44987,-0.483c0.08758,-0.17518 0.27684,-0.20539 0.3681,-0.34302c0.24264,0.15551 0.40029,0.33489 0.59265,0.51226c-0.13785,0.19708 -0.32899,0.20847 -0.51087,0.31381z" fill="#c7dee0"/><path d="M283.41923,222.24823c-0.04591,-0.11053 -0.00674,-0.2451 -0.10668,-0.3713c-0.22221,0.05103 -0.45993,0.12186 -0.68772,0.11659c0.00995,-0.07615 0.01805,-0.17105 0.04533,-0.24819c0.041,-0.11574 0.12045,-0.19602 0.24213,-0.20332c0.20666,-0.03123 0.39597,-0.06144 0.6027,-0.09263c0.02416,0.24407 0.01793,0.35775 -0.09575,0.79888z" fill="#61acb1"/><path d="M293.69094,226.94141c-0.18682,-0.12108 -0.33693,-0.22539 -0.52562,-0.36521c0.21477,-0.12614 0.41215,-0.25122 0.62879,-0.35859c0.14832,0.08553 0.27926,0.17218 0.39655,0.29736c-0.13785,0.19708 -0.30231,0.3013 -0.49971,0.42641z" fill="#c2dada"/><path d="M286.61301,220.07467c0.18682,0.12108 0.30592,0.265 0.46169,0.4257c-0.23587,0.08965 -0.43699,0.17717 -0.63814,0.26472c-0.16386,-0.06573 -0.22899,-0.19407 -0.33074,-0.33906c0.10491,-0.17621 0.29055,-0.24399 0.50714,-0.35133z" fill="#c1d9d9"/><path d="M293.99306,224.695c0.15709,-0.17934 0.28495,-0.30025 0.411,-0.43999c0.17938,0.04594 0.31589,0.18888 0.45239,0.33182c-0.07018,0.17412 -0.15958,0.33053 -0.32223,0.45358c-0.21413,-0.04386 -0.3196,-0.22646 -0.54117,-0.34537z" fill="#c6dedf"/><path d="M286.16408,226.84318c-0.16942,-0.12205 -0.32332,-0.26398 -0.47534,-0.38709c0.00066,-0.16999 0.059,-0.28679 0.16954,-0.40672c0.23338,0.06164 0.3754,0.26089 0.57962,0.38087c-0.05277,0.17314 -0.16516,0.27423 -0.2738,0.41293z" fill="#c0d7d7"/><path d="M292.39783,219.35163c-0.19859,-0.06367 -0.40902,-0.07002 -0.59956,-0.22858c0.11052,-0.11992 0.20366,-0.23879 0.29678,-0.35763c0.20853,-0.01243 0.39161,0.07105 0.54549,0.21293c-0.03728,0.15329 -0.11487,0.25233 -0.24271,0.37328z" fill="#c3dadb"/><path d="M284.53715,221.70928c-0.00742,-0.0751 -0.03226,-0.14917 -0.03972,-0.22427c-0.18311,-0.08351 -0.36681,0.00297 -0.55982,-0.00434c-0.03038,-0.13037 0.06647,-0.21171 0.07082,-0.34414c0.21849,-0.08857 0.4326,-0.04474 0.64552,-0.18964c0.03594,0.18669 -0.00502,0.30243 -0.04415,0.437c-0.02544,0.09596 0.02226,0.22531 -0.07269,0.32536z" fill="#5aa0a4"/><path d="M288.40669,229.54205c-0.19858,-0.06367 -0.40904,-0.07001 -0.5803,-0.21085c0.02176,-0.13352 0.08386,-0.21276 0.17694,-0.33163c0.19491,0.02615 0.39349,0.08981 0.56106,0.1931c-0.02176,0.13352 -0.06646,0.2117 -0.15773,0.34933z" fill="#bdd3d4"/><path d="M285.12883,223.97791c0.11728,0.12519 0.2327,0.23162 0.34811,0.33801c-0.07019,0.17415 -0.18069,0.29407 -0.30855,0.41501c-0.14459,-0.04802 -0.19242,-0.17738 -0.2054,-0.30876c-0.01676,-0.16897 -0.03347,-0.3379 0.16581,-0.44426z" fill="#bdd4d5"/><path d="M292.76274,228.33764c-0.21782,-0.08143 -0.4183,-0.16388 -0.63611,-0.24527c0.34634,-0.20953 0.66727,-0.32309 0.99987,0.03474c-0.07576,0.11779 -0.21293,0.14489 -0.36374,0.21054z" fill="#bbd2d3"/><path d="M285.35571,222.20812c0.05466,-0.15432 0.15152,-0.23567 0.24838,-0.31695c0.12164,-0.00726 0.16571,0.08455 0.24264,0.15549c0.0577,0.0532 0.13276,0.10536 0.1613,0.21698c-0.05466,0.15432 -0.22841,0.16471 -0.30045,0.3201c-0.16758,-0.10329 -0.26747,-0.22951 -0.35188,-0.37552z" fill="#c3dadb"/><path d="M290.55782,223.89922c0.31654,0.01891 0.63305,0.03775 0.95703,0.13172c-0.00625,0.11366 -0.09128,0.13768 -0.17817,0.1428c-0.22407,0.03225 -0.44995,0.04575 -0.65851,0.05819c-0.1564,0.00935 -0.20234,-0.10123 -0.12034,-0.33272z" fill="#b1c6c7"/><path d="M286.23525,227.91532c0.14272,0.02922 0.20602,0.13877 0.30036,0.20866c0.18683,0.12105 0.22091,0.28897 0.15629,0.51948c-0.25445,-0.09812 -0.43314,-0.31408 -0.59078,-0.49349c0.00439,-0.13246 0.03356,-0.19087 0.13412,-0.23465z" fill="#bbd2d3"/><path d="M290.9806,226.40451c0.32278,-0.09482 0.6312,0.01897 0.95519,0.11292c-0.23216,0.1272 -0.49284,0.14271 -0.73428,0.17603c-0.15455,0.02812 -0.19493,-0.02613 -0.2209,-0.28896z" fill="#bad1d2"/><path d="M289.50218,229.30663c-0.12603,0.13969 -0.21731,0.27734 -0.34332,0.41706c-0.08875,-0.01359 -0.216,-0.06263 -0.34135,-0.09292c0.05344,-0.34311 0.07083,-0.34416 0.29865,-0.33888c0.12165,-0.00725 0.24518,0.00427 0.38604,0.01473z" fill="#b5cbcc"/><path d="M295.24762,223.77038c-0.03358,0.19083 -0.10929,0.3087 -0.18504,0.4265c-0.16201,-0.04699 -0.24635,-0.19305 -0.36366,-0.31821c0.07385,-0.13662 0.14966,-0.25439 0.22353,-0.39101c0.15825,0.00943 0.20976,0.17629 0.3252,0.28275z" fill="#c0d7d8"/><path d="M288.01587,228.24334c-0.02364,0.1147 -0.10305,0.19502 -0.1999,0.27636c-0.2315,-0.04284 -0.43568,-0.16282 -0.60881,-0.32246c-0.03038,-0.13037 0.01804,-0.17103 0.10119,-0.21374c0.23522,0.08033 0.47045,0.16075 0.70751,0.25991z" fill="#bdd4d4"/><path d="M294.00867,227.14911c0.14526,-0.12197 0.30974,-0.22623 0.45501,-0.3482c0.09432,0.06992 0.13839,0.16171 0.14955,0.27433c-0.02362,0.1147 -0.10676,0.15746 -0.18807,0.21894c-0.06581,0.04169 -0.13159,0.08339 -0.19741,0.1251c-0.10986,-0.05008 -0.18681,-0.12105 -0.21906,-0.27021z" fill="#b6cccc"/><path d="M293.99021,223.42996c0.12605,-0.13968 0.23653,-0.2596 0.36072,-0.41812c0.10612,0.01253 0.216,0.06262 0.28487,0.2285c-0.07385,0.13663 -0.16515,0.27425 -0.25456,0.43064c-0.14646,-0.0668 -0.27369,-0.11583 -0.39097,-0.24106z" fill="#c1d9d9"/><path d="M293.54425,227.93212c-0.14646,-0.0668 -0.25819,-0.13566 -0.35805,-0.26189c0.12603,-0.13969 0.29612,-0.18762 0.42957,-0.25225c0.14272,0.02922 0.18865,0.13979 0.25008,0.23056c-0.0118,0.05736 -0.00809,0.0949 -0.02544,0.09596c-0.09871,0.06252 -0.19738,0.12509 -0.29614,0.18762z" fill="#b7cdce"/><path d="M292.14815,229.01646c0.17632,-0.16158 0.33272,-0.17094 0.48543,-0.21782c0.16823,-0.06672 0.24887,0.04179 0.34877,0.168c-0.12603,0.13969 -0.27872,0.18659 -0.41034,0.27c-0.17749,-0.02718 -0.24824,-0.21179 -0.42388,-0.22018z" fill="#b6cccc"/><path d="M287.46205,229.18287c-0.14832,-0.08556 -0.26001,-0.15442 -0.38911,-0.22226c-0.0341,-0.16795 -0.04525,-0.28058 0.02864,-0.41717c0.16757,0.1033 0.33327,0.18784 0.48159,0.27337c0.06888,0.16582 -0.028,0.24714 -0.03418,0.36083c-0.03477,0.00207 -0.06768,0.02294 -0.08692,0.00521z" fill="#c2dada"/><path d="M294.83819,222.81281c-0.1272,-0.04908 -0.18494,-0.10225 -0.22902,-0.19405c-0.02851,-0.11164 0.03355,-0.19083 0.07638,-0.28782c0.04471,-0.07824 0.04907,-0.21067 0.16886,-0.23671c0.11353,0.08765 0.21159,0.19509 0.26309,0.36199c-0.09126,0.13766 -0.18625,0.23774 -0.27939,0.35661z" fill="#bbd2d3"/><path d="M285.77501,220.61567c0.0999,0.12623 0.17872,0.21596 0.25939,0.32442c-0.10864,0.1387 -0.24026,0.22206 -0.37002,0.32426c-0.1117,-0.06886 -0.19056,-0.15859 -0.20349,-0.29001c0.01365,-0.0386 0.02734,-0.07715 0.06024,-0.09804c0.06206,-0.07922 0.14157,-0.15954 0.2539,-0.26067z" fill="#bbd2d3"/><path d="M289.56973,229.81243c0.16888,-0.2367 0.16888,-0.23672 0.45501,-0.34819c0.14834,0.08557 0.18055,0.23473 0.24939,0.40057c-0.23776,0.07086 -0.47294,-0.00951 -0.70445,-0.05236z" fill="#adc2c3"/><path d="M285.14398,222.54183c0.1117,0.06886 0.19239,0.17739 0.22274,0.30774c-0.10864,0.1387 -0.20171,0.25757 -0.31225,0.37743c-0.20539,-0.30878 -0.20728,-0.32754 0.08948,-0.6852z" fill="#b5cbcc"/><path d="M294.49668,226.25127c-0.13097,-0.0866 -0.22527,-0.15653 -0.32517,-0.28276c0.07201,-0.15534 0.22288,-0.22102 0.35078,-0.34199c0.05587,0.03444 0.0943,0.0699 0.13281,0.10535c0.03849,0.03546 0.06144,0.09074 0.10179,0.145c-0.03542,0.17207 -0.13037,0.27214 -0.26015,0.37436z" fill="#bbd1d2"/><path d="M286.48032,219.4405c0.10308,-0.19501 0.30975,-0.22623 0.43947,-0.32841c0.12907,0.06785 0.15949,0.19823 0.24016,0.30676c-0.17814,0.14285 -0.34824,0.19074 -0.54497,0.14583c-0.05215,0.00309 -0.09431,-0.0699 -0.13466,-0.12414z" fill="#b6cccd"/><path d="M293.49816,219.87124c-0.23894,-0.11792 -0.46235,-0.25567 -0.6839,-0.37462c0.00438,-0.13247 0.04905,-0.21065 0.16327,-0.29302c0.20977,0.17629 0.4195,0.35263 0.58269,0.58838c-0.03106,0.03966 -0.04658,0.05944 -0.06207,0.07925z" fill="#acc1c2"/><path d="M291.56982,225.29287c-0.22037,0.06982 -0.44259,0.12086 -0.6722,0.09677c-0.08877,-0.01362 -0.16385,-0.06575 -0.17313,-0.1596c-0.0037,-0.03751 0.02364,-0.11469 0.04102,-0.11574c0.25882,-0.03433 0.53249,0.0815 0.80433,0.17856z" fill="#a7bbbb"/><path d="M295.04365,225.59538c-0.108,-0.03133 -0.16942,-0.12205 -0.23269,-0.2316c0.09126,-0.13766 0.18255,-0.27526 0.27379,-0.41294c0.14646,0.0668 0.17497,0.1784 0.18798,0.30979c-0.041,0.11574 -0.13409,0.23464 -0.22911,0.33471z" fill="#b7cdcd"/><path d="M285.14839,225.41196c0.18311,0.08351 0.28295,0.20974 0.38472,0.35473c-0.03728,0.15329 -0.09563,0.2701 -0.24461,0.35453c-0.12657,-0.21905 -0.13146,-0.44539 -0.14015,-0.70925z" fill="#b7cece"/><path d="M287.94038,218.29581c0.19554,-0.14387 0.42889,-0.08226 0.59338,-0.18652c0.11167,0.06884 0.10176,0.145 0.05333,0.18567c-0.12975,0.10217 -0.27873,0.18662 -0.4525,0.19696c-0.054,-0.01565 -0.07136,-0.01463 -0.19424,-0.19613z" fill="#b4cacb"/><path d="M293.45079,220.62943c0.04097,-0.11573 0.08755,-0.17518 0.1707,-0.21794c0.18683,0.12105 0.39097,0.24104 0.55603,0.49557c-0.29357,0.0364 -0.48409,-0.12218 -0.72673,-0.27765z" fill="#b2c8c9"/><path d="M285.37386,221.50832c-0.07385,0.13662 -0.13409,0.23462 -0.23466,0.2784c-0.07138,-0.01462 -0.09435,-0.06991 -0.1173,-0.12521c-0.09182,-0.22111 0.02057,-0.32226 0.18504,-0.42649c0.04407,0.09177 0.10549,0.18255 0.16692,0.2733z" fill="#b5cbcb"/><path d="M291.27887,227.65198c0.22405,-0.03226 0.4152,-0.04368 0.62932,0.0002c0.02665,0.09283 -0.02175,0.13348 -0.07387,0.1366c-0.11981,0.02603 -0.23776,0.07085 -0.35753,0.09688c-0.13902,0.00828 -0.1812,-0.06473 -0.19789,-0.23368z" fill="#91a3a3"/><path d="M290.92035,220.49729c-0.19554,0.14387 -0.42332,0.13859 -0.63187,0.15101c-0.03477,0.00207 -0.07325,-0.03341 -0.09432,-0.06991c-0.00371,-0.03752 0.02544,-0.09594 0.04284,-0.097c0.23776,-0.07086 0.46738,-0.04678 0.68337,0.01585z" fill="#99abac"/><path d="M290.24028,219.63149c-0.08253,-0.12726 -0.09179,-0.22113 -0.00861,-0.26388c0.11797,-0.04481 0.29542,-0.01761 0.52879,0.04396c-0.16079,0.14182 -0.35192,0.1532 -0.52014,0.21989z" fill="#93a5a6"/><path d="M285.53717,227.22056c0.20601,0.13879 0.42758,0.25773 0.32203,0.60397c-0.22339,-0.13778 -0.24757,-0.38179 -0.32203,-0.60397z" fill="#9aadad"/><path d="M288.67411,226.7688c0.13347,-0.06465 0.28427,-0.13029 0.40039,-0.19387c0.09247,0.05115 0.11543,0.10641 0.1092,0.2201c-0.14713,0.10324 -0.32835,0.03852 -0.4829,0.06663c-0.00371,-0.03752 -0.00555,-0.05633 -0.02668,-0.09287z" fill="#c5dddd"/><path d="M291.08686,222.88569c-0.2092,0.18245 -0.43516,0.19592 -0.66849,0.13434c-0.01739,0.00104 -0.0385,-0.03549 -0.04221,-0.07302c-0.02294,-0.0553 0.02543,-0.09595 0.06022,-0.09801c0.18928,-0.03023 0.40346,0.01368 0.65048,0.03669z" fill="#aec2c3"/><path d="M286.30338,219.7721c-0.12603,0.13969 -0.29422,0.20641 -0.4451,0.27207c-0.09246,-0.05112 -0.08253,-0.1273 -0.01673,-0.16898c0.11423,-0.08236 0.21108,-0.16367 0.34454,-0.22828c0.03106,-0.03966 0.08874,0.01358 0.11728,0.1252z" fill="#9caeaf"/><path d="M295.31013,224.57863c0.03542,-0.17209 0.09377,-0.28883 0.18505,-0.42651c0.09366,0.23989 0.06199,0.44953 0.08427,0.67481c-0.05401,-0.01567 -0.08878,-0.01361 -0.10797,-0.03133c-0.05955,-0.07201 -0.10174,-0.14498 -0.16133,-0.21696z" fill="#a9bebf"/><path d="M288.4188,221.89301c0.04776,0.12936 0.03782,0.20545 -0.00692,0.28371c-0.17193,0.02912 -0.33392,-0.01786 -0.52631,-0.19521c0.20485,-0.05 0.36126,-0.05931 0.53319,-0.0885z" fill="#b9cfd0"/><path d="M289.43673,227.76191c0.09246,0.05115 0.11725,0.12521 0.14209,0.19925c-0.02548,0.09594 -0.11234,0.10114 -0.53504,0.06971c0.08198,-0.23152 0.27873,-0.18661 0.39295,-0.26897z" fill="#869797"/><path d="M290.94058,221.76133c-0.28362,-0.03972 -0.51024,0.14378 -0.74477,-0.10661c0.25326,-0.09068 0.46365,-0.08437 0.74477,0.10661z" fill="#93a4a5"/><path d="M292.22708,228.57738c-0.26066,0.01556 -0.43448,0.02593 -0.60825,0.03631c-0.03477,0.00207 -0.07327,-0.0334 -0.07878,-0.0897c-0.00186,-0.0188 0.01182,-0.05735 0.02731,-0.07717c0.20481,-0.05004 0.39604,-0.06145 0.65973,0.13053z" fill="#94a5a6"/><path d="M289.78657,228.64758c0.08064,0.10852 0.10362,0.16375 0.04341,0.26179c-0.13716,0.02707 -0.29173,0.05519 -0.4711,0.00924c0.1031,-0.19499 0.27685,-0.20535 0.42767,-0.27104z" fill="#abbfc0"/><path d="M293.24369,228.78105c-0.04407,-0.09178 -0.06513,-0.1283 -0.06886,-0.16587c0.22286,-0.22106 0.22284,-0.221 0.4717,-0.17921c-0.08568,0.19395 -0.25945,0.20436 -0.40286,0.34506z" fill="#acc0c1"/><path d="M286.39555,227.41483c0.15019,0.10437 0.31589,0.18888 0.46793,0.31199c0.0577,0.0532 0.06511,0.12831 -0.03355,0.19083c-0.18682,-0.12108 -0.35622,-0.24311 -0.43434,-0.50283z" fill="#9fb2b2"/><path d="M294.75053,226.51938c0.06025,-0.09804 0.10681,-0.15745 0.18995,-0.20019c0.07325,0.03339 0.11359,0.08763 0.14025,0.18047c-0.00625,0.11367 -0.08571,0.19393 -0.16517,0.27422c-0.108,-0.03133 -0.13651,-0.14292 -0.16501,-0.2545z" fill="#aec2c3"/><path d="M288.31027,224.50559c0.07201,-0.15534 0.19369,-0.16264 0.31348,-0.18868c0.05214,-0.00308 0.09245,0.05112 0.09802,0.10745c0.00371,0.03752 -0.02546,0.09598 -0.06021,0.09803c-0.09868,0.06253 -0.20672,0.03123 -0.35129,-0.01682z" fill="#91a2a3"/><path d="M295.39234,223.28959c-0.31589,-0.18888 -0.33515,-0.20657 -0.11599,-0.46519c0.04962,0.14812 0.14954,0.27434 0.11599,0.46519z" fill="#869696"/><path d="M290.15364,218.5791c0.12232,-0.17726 0.23214,-0.12717 0.35568,-0.11567c-0.07019,0.17415 -0.07019,0.17414 -0.35568,0.11567z" fill="#555f5f"/><path d="M288.89282,225.62271c-0.0869,0.00519 -0.20853,0.01245 -0.33578,-0.03661c0.1397,-0.1783 0.2092,-0.18243 0.33827,-0.11464c0.03663,0.01671 0.04221,0.07302 -0.00253,0.15121z" fill="#93a5a6"/><path d="M292.16605,229.37411c-0.18996,0.20019 -0.2266,0.18352 -0.30845,-0.11379c0.11797,-0.04481 0.21227,0.02508 0.30845,0.11379z" fill="#8b9b9c"/><path d="M290.72287,218.14859c-0.16823,0.06669 -0.30908,0.0562 -0.45002,0.04572c-0.06331,-0.10952 -0.0341,-0.16794 0.03544,-0.17205c0.13902,-0.0083 0.27993,0.00218 0.41458,0.1263z" fill="#9aacad"/><path d="M294.13266,228.04815c-0.07576,0.11779 -0.11675,0.23359 -0.25764,0.22313c-0.0174,0.00102 -0.03662,-0.01669 -0.03849,-0.03547c0.01804,-0.17105 0.11861,-0.21482 0.29612,-0.18763z" fill="#5f6a6b"/><path d="M288.32476,223.23944c0.06393,-0.06047 0.13349,-0.06465 0.20486,-0.04999c0.03663,0.01671 0.07507,0.05216 0.06141,0.09075c-0.01365,0.0386 -0.0447,0.07824 -0.07947,0.08027c-0.06949,0.00412 -0.14088,-0.01048 -0.18678,-0.12104z" fill="#636e6f"/><path d="M295.30926,225.80623c0.06512,0.12831 0.05707,0.22319 -0.07453,0.3066c-0.08437,-0.14604 -0.0397,-0.22424 0.07453,-0.3066z" fill="#4a5354"/></g><g data-paper-data="{&quot;index&quot;:null}" fill="#000000" fill-rule="nonzero" stroke="#000000" stroke-width="1.2" stroke-linecap="butt" stroke-linejoin="miter"><path d="M254.33825,197.75507c-1.60008,-0.96017 -2.43401,-4.20178 -3.82305,-6.02867c-1.49548,-1.96692 -3.39993,-2.42732 -3.54165,-4.063c-0.09899,-1.14251 1.02927,-2.26038 1.6891,-2.76205c1.60445,-1.21992 4.96427,0.49938 7.50434,3.84016c2.54008,3.34077 3.29857,7.03794 1.69413,8.25784c-0.72705,0.55281 -2.19692,1.55138 -3.52285,0.75574z"/><path d="M258.45502,197.33877c-2.21886,-1.35906 -5.01557,-6.66902 -5.01557,-6.66902c0,0 -3.16666,-2.32443 -3.21785,-2.39428c-3.26269,-4.44958 -0.52119,-6.61073 2.63813,-9.01284c1.50362,-1.14326 4.27931,-2.29157 6.14644,-1.5416c2.11755,0.85053 3.31684,3.37767 5.18178,5.83049c3.50931,4.61554 4.58907,9.98565 1.38017,12.42546c-1.41255,1.074 -4.14959,3.17693 -7.11311,1.36176z"/></g><path d="M226.18838,192.58324c0,0 -5.62893,8.13854 -7.61475,10.38095c-1.19436,1.34869 -3.18567,1.81502 -3.18567,1.81502" fill="none" fill-rule="nonzero" stroke="#000000" stroke-width="4.5" stroke-linecap="round" stroke-linejoin="miter"/><path d="M201.06654,198.34791l1.26645,-9.6567l13.29775,5.38242" fill="none" fill-rule="nonzero" stroke="#000000" stroke-width="4.5" stroke-linecap="round" stroke-linejoin="miter"/><path d="M219.43009,187.10814l-12.98114,-4.74919l10.92315,-10.76484" fill="none" fill-rule="nonzero" stroke="#000000" stroke-width="4.5" stroke-linecap="round" stroke-linejoin="miter"/><g fill="#ff0000" fill-rule="nonzero" stroke="none" stroke-linecap="butt" stroke-linejoin="miter"><path d="M266.08932,207.20351c1.20014,-0.06461 2.33756,0.7369 2.5405,1.79022c0.20294,1.05331 -0.60546,1.95957 -1.8056,2.02418c-1.20014,0.06461 -2.33757,-0.73689 -2.54051,-1.79021c-0.20294,-1.05331 0.60547,-1.95959 1.80561,-2.02419z" stroke-width="NaN"/><path d="M270.2932,204.4079c1.10413,-0.05944 2.14546,0.65136 2.32583,1.58765c0.18038,0.93628 -0.56846,1.74348 -1.6726,1.80291c-1.10413,0.05944 -2.14546,-0.65138 -2.32585,-1.58767c-0.18038,-0.93628 0.56846,-1.74347 1.67259,-1.80291z" stroke-width="0"/><path d="M274.80351,207.30537c1.15214,-0.06203 2.23239,0.64669 2.41276,1.58297c0.18038,0.93628 -0.60738,1.74558 -1.75953,1.80759c-1.15214,0.06203 -2.23238,-0.6467 -2.41276,-1.58298c-0.18038,-0.93628 0.60738,-1.74556 1.75951,-1.80758z" stroke-width="0"/><path d="M258.69208,202.9604c-0.13464,0.77007 -1.09556,1.23884 -2.14633,1.04703c-1.05077,-0.19182 -1.79343,-0.97158 -1.65878,-1.74165c0.13464,-0.77007 1.09557,-1.23885 2.14634,-1.04704c1.05077,0.19182 1.79343,0.97159 1.65877,1.74166z" stroke-width="NaN"/><path d="M260.70225,206.43523c-0.12387,0.70846 -0.98142,1.14459 -1.91543,0.97409c-0.93401,-0.1705 -1.59076,-0.88305 -1.46689,-1.59152c0.12387,-0.70846 0.98143,-1.14457 1.91544,-0.97408c0.93401,0.1705 1.59076,0.88304 1.46688,1.59151z" stroke-width="0"/><path d="M263.11405,204.28558c-0.14001,0.80088 -0.97915,1.31766 -1.87423,1.15426c-0.89508,-0.1634 -1.50718,-0.9451 -1.36716,-1.74598c0.14001,-0.80088 0.97915,-1.31765 1.87423,-1.15425c0.89508,0.1634 1.50718,0.94508 1.36717,1.74596z" stroke-width="0"/><path d="M263.02311,217.37254c1.19865,0.24391 1.9977,1.27033 1.78474,2.29257c-0.21297,1.02223 -1.35734,1.65317 -2.55599,1.40925c-1.19865,-0.24391 -1.99769,-1.27033 -1.78472,-2.29255c0.21297,-1.02223 1.35733,-1.65319 2.55598,-1.40926z" stroke-width="NaN"/><path d="M268.22524,215.85867c1.10276,0.22441 1.84326,1.14292 1.65395,2.05157c-0.18931,0.90864 -1.23674,1.46333 -2.3395,1.23892c-1.10276,-0.22441 -1.84327,-1.14293 -1.65396,-2.05156c0.18931,-0.90864 1.23675,-1.46332 2.33952,-1.23892z" stroke-width="0"/><path d="M257.0012,212.24403c-0.4324,0.67578 -1.55504,0.8649 -2.50747,0.4224c-0.95244,-0.44251 -1.37399,-1.34905 -0.94159,-2.02484c0.4324,-0.67578 1.55504,-0.8649 2.50747,-0.42239c0.95243,0.44251 1.37399,1.34904 0.94158,2.02482z" stroke-width="NaN"/><path d="M253.3898,216.85216c-0.41512,0.64875 -1.43793,0.85579 -2.28454,0.46247c-0.84662,-0.39333 -1.19641,-1.23812 -0.7813,-1.88686c0.41512,-0.64875 1.43793,-0.85581 2.28455,-0.46248c0.84662,0.39333 1.1964,1.23813 0.7813,1.88688z" stroke-width="0"/><path d="M260.80714,214.58373c-0.4497,0.70281 -1.47197,0.96697 -2.2833,0.59004c-0.81133,-0.37694 -1.10451,-1.25226 -0.65481,-1.95507c0.4497,-0.70281 1.47198,-0.96698 2.28331,-0.59005c0.81133,0.37694 1.10449,1.25227 0.65479,1.95509z" stroke-width="0"/></g></g></g></svg>