<svg version="1.1" xmlns="http://www.w3.org/2000/svg" xmlns:xlink="http://www.w3.org/1999/xlink" width="85.69118" height="115.70489" viewBox="0,0,85.69118,115.70489"><defs><linearGradient x1="212.20057" y1="164.82906" x2="189.8496" y2="162.87344" gradientUnits="userSpaceOnUse" id="color-1"><stop offset="0" stop-color="#000000"/><stop offset="1" stop-color="#000000" stop-opacity="0"/></linearGradient></defs><g transform="translate(-189.17786,-134.16048)"><g data-paper-data="{&quot;isPaintingLayer&quot;:true}" stroke-miterlimit="10" stroke-dasharray="" stroke-dashoffset="0" style="mix-blend-mode: normal"><path d="M235.57452,189.53538l-0.98643,15.86593" fill="none" fill-rule="nonzero" stroke="#000000" stroke-width="6" stroke-linecap="round" stroke-linejoin="miter"/><path d="M213.56275,221.50938c0.57355,-0.73492 6.96564,-24.79174 15.6623,-30.86665c2.8686,-2.00381 6.29691,0.49534 6.29691,0.49534c0,0 6.35362,5.27408 9.24559,6.61526c1.81613,0.84225 5.03497,-0.14324 5.03497,-0.14324" fill="none" fill-rule="nonzero" stroke="#000000" stroke-width="6" stroke-linecap="round" stroke-linejoin="miter"/><path d="M243.71915,204.1031l2.92297,25.98777c0,0 7.06267,0.41252 6.89471,7.51322c-0.00958,0.40481 -0.10976,2.39235 -3.02746,2.97403c-2.79456,0.55712 -8.36532,-0.27515 -10.40081,-0.59138c-0.94539,-0.14688 -2.3855,-0.78756 -3.30585,-1.88454c-0.92663,-1.1045 -0.82654,-2.71079 -0.82591,-3.6144c0.00025,-0.36804 -2.07942,-29.30669 -2.07942,-29.30669" fill="#000000" fill-rule="evenodd" stroke="#001026" stroke-width="1.2" stroke-linecap="round" stroke-linejoin="round"/><path d="M233.75789,209.71143c0,0 -3.38365,30.23157 -4.0011,30.33136c-1.77192,0.28635 -11.48215,-2.27779 -11.48215,-2.27779l6.24171,-30.39505" data-paper-data="{&quot;index&quot;:null}" fill="#000000" fill-rule="evenodd" stroke="#001026" stroke-width="1.2" stroke-linecap="round" stroke-linejoin="round"/><path d="M232.09406,238.15796c-0.02471,0.4906 -0.78326,4.37077 -2.69077,7.11812c-1.4878,2.14285 -4.06623,3.2049 -4.98327,3.98929c-1.09796,0.93914 -4.37918,-1.08183 -5.95259,-4.45725c-1.25725,-2.69714 -0.97219,-6.71096 -0.93513,-7.44681c0.1713,-3.40126 1.92809,0.46456 6.39105,0.73978c4.46293,0.27521 8.34201,-3.3444 8.17069,0.05688z" fill="#92ff66" fill-rule="nonzero" stroke="#001026" stroke-width="1.2" stroke-linecap="butt" stroke-linejoin="miter"/><g data-paper-data="{&quot;index&quot;:null}" fill="#000000" fill-rule="nonzero" stroke="#000000" stroke-width="1.2" stroke-linecap="butt" stroke-linejoin="miter"><path d="M259.53617,204.82149c-1.39652,0.63085 -3.97454,-0.32259 -5.85733,-0.2396c-2.0271,0.08933 -3.22867,1.15938 -4.39897,0.48993c-0.81744,-0.46761 -1.04419,-1.75203 -1.07416,-2.43204c-0.07289,-1.65355 2.65915,-3.11704 6.10215,-3.26879c3.44301,-0.15176 6.29321,1.0657 6.36609,2.71924c0.03303,0.7493 0.01947,2.20849 -1.13776,2.73126z"/><path d="M261.18084,201.84814c-1.95519,0.8619 -6.84736,0.26575 -6.84736,0.26575c0,0 -3.05012,1.05006 -3.1212,1.05195c-4.52941,0.12082 -4.70571,-2.74047 -4.84921,-5.99647c-0.06831,-1.54964 0.455,-3.96023 1.83456,-4.86965c1.56458,-1.03139 3.83127,-0.65876 6.35913,-0.77017c4.75678,-0.20964 8.88642,1.5735 9.03218,4.8806c0.06416,1.45577 0.20327,4.28681 -2.40811,5.43798z"/></g><path d="M220.90157,215.87092c0,0 7.23416,-26.78691 9.1924,-28.46357c0.57497,-0.49229 10.92189,-0.04146 10.92189,-0.04146l7.91429,39.22487z" fill="#92ff66" fill-rule="nonzero" stroke="#000000" stroke-width="1" stroke-linecap="butt" stroke-linejoin="miter"/><path d="M236.49384,240.21611c-1.60575,-1.19302 -2.25986,-3.39806 -2.15991,-5.05479c0.03057,-0.50678 7.68604,-0.66832 11.11866,-2.06752c2.71266,-1.10573 1.28615,-3.62809 1.82152,-3.22762c0.11104,0.08306 2.41338,0.33854 5.06018,2.71517c1.71769,1.54236 4.07661,5.4665 4.38914,5.75655c0.5514,0.51174 0.17694,2.66529 -3.97455,3.1422c-5.47186,0.62859 -15.2936,-0.54968 -16.25503,-1.26399z" fill="#92ff66" fill-rule="nonzero" stroke="#001026" stroke-width="1.2" stroke-linecap="butt" stroke-linejoin="miter"/><path d="M244.72257,204.9814l-0.15355,-6l23.8,-0.4v6.6" fill="none" fill-rule="nonzero" stroke="#000000" stroke-width="1" stroke-linecap="round" stroke-linejoin="miter"/><path d="M239.96903,219.9814v-15.8h34.4v15.8z" fill="#92ff66" fill-rule="nonzero" stroke="#000000" stroke-width="1" stroke-linecap="butt" stroke-linejoin="miter"/><path d="M252.36903,212.1814c0,2.76142 -2.28335,5 -5.1,5c-2.81665,0 -5.1,-2.23858 -5.1,-5c0,-2.76142 2.28335,-5 5.1,-5c2.81665,0 5.1,2.23858 5.1,5z" fill="#8e8888" fill-rule="nonzero" stroke="#000000" stroke-width="1" stroke-linecap="butt" stroke-linejoin="miter"/><path d="M271.76903,212.1814c0,2.76142 -2.14903,5 -4.8,5c-2.65097,0 -4.8,-2.23858 -4.8,-5c0,-2.76142 2.14903,-5 4.8,-5c2.65097,0 4.8,2.23858 4.8,5z" fill="#8e8888" fill-rule="nonzero" stroke="#000000" stroke-width="1" stroke-linecap="butt" stroke-linejoin="miter"/><path d="M261.36903,215.8814c0,0.71797 -1.79086,1.3 -4,1.3c-2.20914,0 -4,-0.58203 -4,-1.3c0,-0.71797 1.79086,-1.3 4,-1.3c2.20914,0 4,0.58203 4,1.3z" fill="#8e8888" fill-rule="nonzero" stroke="#000000" stroke-width="1" stroke-linecap="butt" stroke-linejoin="miter"/><path d="M229.95579,226.08156c0,0 -2.49763,1.0461 -3.50879,0.77033c-1.07959,-0.29444 -2.77692,-2.48462 -2.77692,-2.48462" fill="none" fill-rule="nonzero" stroke="#001026" stroke-width="1" stroke-linecap="round" stroke-linejoin="miter"/><path d="M244.67008,225.36727c0,0 -2.58743,1.64272 -3.85496,1.74213c-1.14948,0.09015 -3.43075,-1.1707 -3.43075,-1.1707" fill="none" fill-rule="nonzero" stroke="#001026" stroke-width="1" stroke-linecap="round" stroke-linejoin="miter"/><path d="M261.13321,165.13432c-1.17243,13.39983 -13.47489,23.26927 -27.47832,22.04401c-14.00341,-1.22525 -24.40498,-13.0812 -23.23255,-26.48103c1.17243,-13.39983 13.47489,-23.26927 27.47832,-22.04401c14.00341,1.22525 24.40498,13.0812 23.23255,26.48103z" fill="none" fill-rule="nonzero" stroke="#000000" stroke-width="4.5" stroke-linecap="butt" stroke-linejoin="miter"/><path d="M227.80847,187.54374l-29.31526,-2.79958c0,0 -2.36564,-0.54762 -1.94165,-1.41546c0.97224,-1.99002 7.65738,-10.28388 7.65738,-10.28388l-11.29482,-4.97653c0,0 -2.04248,-1.08599 -2.26484,-2.20889c-0.20685,-1.04459 11.95893,-9.37697 11.95893,-9.37697c0,0 -7.9209,-4.31651 -9.97909,-6.48515c-0.80819,-0.85158 12.36553,-7.3785 21.32589,-10.33733c4.38456,-1.44784 10.38587,-3.68081 15.12224,-3.99947c7.85323,-0.52836 13.62872,2.2775 13.62872,2.2775" fill="none" fill-rule="nonzero" stroke="#000000" stroke-width="3" stroke-linecap="round" stroke-linejoin="miter"/><path d="M196.63065,184.58118c0,0 -0.40578,-1.44474 0.9875,-3.26308c1.74512,-2.27751 7.34854,-5.05047 5.90682,-7.5471c-1.8676,-3.23413 -14.46912,-3.87754 -12.5869,-7.57455c1.54551,-3.03569 11.25682,-7.67086 11.43737,-9.7344c0.18016,-2.05898 -4.4799,-1.2046 -6.84968,-4.17352c-3.37034,-4.22244 -1.57852,-4.07126 -1.57852,-4.07126c0,0 12.32734,-6.42239 18.21482,-8.36343c5.52378,-1.82113 16.0886,-2.94605 16.0886,-2.94605c0,0 -16.07607,12.39291 -18.90115,20.22518c-3.13162,8.68221 12.74027,28.73738 12.74027,28.73738z" data-paper-data="{&quot;index&quot;:null}" fill="url(#color-1)" fill-rule="nonzero" stroke="none" stroke-width="0" stroke-linecap="butt" stroke-linejoin="miter"/><path d="M235.81771,169.19841c-2.37563,0.77869 -3.15432,-1.59694 -3.15432,-1.59694l-0.3385,-1.39661c-0.83733,-1.17971 -1.15403,-2.93312 -2.44517,-3.58564c-0.86283,-0.43605 -1.77692,0.81734 -2.51986,1.43595c-1.9279,1.60529 -3.02111,3.24197 -4.21959,5.42628c0,0 -1.21099,2.18712 -3.39811,0.97612c-2.18712,-1.21099 -0.97612,-3.39811 -0.97612,-3.39811c2.23795,-4.01069 7.0791,-11.01534 12.80371,-9.14596c1.57934,0.51573 3.83776,4.0057 4.82738,5.39018l1.01753,2.74041c0,0 0.77869,2.37563 -1.59694,3.15432z" fill="#000000" fill-rule="nonzero" stroke="none" stroke-width="0.5" stroke-linecap="butt" stroke-linejoin="miter"/><path d="M253.16172,171.8485c-2.49779,-0.10504 -2.39275,-2.60283 -2.39275,-2.60283l0.04932,-0.0172c-0.28923,-2.02534 -0.07633,-2.20664 -1.16595,-3.87793c-0.28492,-0.43701 -0.6836,-0.78829 -1.02057,-1.18655c-0.15496,-0.18314 -0.29031,-0.73188 -0.45514,-0.55754c-1.92598,2.0372 -3.16676,4.63451 -4.93033,6.81382c0,0 -1.57266,1.94339 -3.51604,0.37073c-1.94339,-1.57266 -0.37073,-3.51604 -0.37073,-3.51604c0.99194,-1.22578 6.37142,-8.0646 7.44261,-8.47588c5.47011,-2.10027 8.38716,6.24833 8.95591,9.65566l0.0065,1.001c0,0 -0.10504,2.49779 -2.60283,2.39275z" fill="#000000" fill-rule="nonzero" stroke="none" stroke-width="0.5" stroke-linecap="butt" stroke-linejoin="miter"/><path d="M233.35023,180.89036c-0.07394,1.75845 -1.75738,3.11569 -3.76006,3.03146c-2.00268,-0.08421 -3.56623,-1.57798 -3.49228,-3.33643c0.07394,-1.75845 1.75738,-3.11569 3.76006,-3.03146c2.00268,0.08421 3.56623,1.57798 3.49228,3.33643z" fill="#ff0000" fill-rule="nonzero" stroke="#000000" stroke-width="2.5" stroke-linecap="butt" stroke-linejoin="miter"/></g></g></svg>