<svg version="1.1" xmlns="http://www.w3.org/2000/svg" xmlns:xlink="http://www.w3.org/1999/xlink" width="74.4239" height="108.67083" viewBox="0,0,74.4239,108.67083"><defs><linearGradient x1="226.8017" y1="166.13284" x2="204.3883" y2="165.11799" gradientUnits="userSpaceOnUse" id="color-1"><stop offset="0" stop-color="#000000"/><stop offset="1" stop-color="#000000" stop-opacity="0"/></linearGradient></defs><g transform="translate(-205.31275,-134.78096)"><g data-paper-data="{&quot;isPaintingLayer&quot;:true}" stroke-miterlimit="10" stroke-dasharray="" stroke-dashoffset="0" style="mix-blend-mode: normal"><g stroke-linejoin="miter"><path d="M275.70396,164.38199c-0.60842,13.43725 -12.48536,23.81485 -26.5279,23.17902c-14.04253,-0.63583 -24.93303,-12.04431 -24.3246,-25.48156c0.60842,-13.43725 12.48536,-23.81485 26.5279,-23.17902c14.04253,0.63583 24.93303,12.04431 24.3246,25.48156z" fill="none" fill-rule="nonzero" stroke="#000000" stroke-width="4.5" stroke-linecap="butt"/><g><g fill-rule="nonzero" stroke-linecap="butt"><path d="M235.91851,146.82877l0.01107,0.00861" data-paper-data="{&quot;index&quot;:null}" fill="#ffab19" stroke="#000000" stroke-width="5"/><g data-paper-data="{&quot;index&quot;:null}" fill="none" stroke="none" stroke-width="1" font-family="sans-serif" font-weight="normal" font-size="12" text-anchor="start"/></g><path d="M235.91851,146.82877l0.01107,0.00861" data-paper-data="{&quot;index&quot;:null}" fill="#ffab19" fill-rule="nonzero" stroke="#000000" stroke-width="5" stroke-linecap="butt"/><path d="M249.93152,164.43926" fill="#001026" fill-rule="evenodd" stroke="#000000" stroke-width="5" stroke-linecap="butt"/><g data-paper-data="{&quot;index&quot;:null}" fill="none" fill-rule="nonzero" stroke="none" stroke-width="1" stroke-linecap="butt" font-family="sans-serif" font-weight="normal" font-size="12" text-anchor="start"/><g data-paper-data="{&quot;index&quot;:null}" fill="none" fill-rule="nonzero" stroke="none" stroke-width="1" stroke-linecap="butt" font-family="sans-serif" font-weight="normal" font-size="12" text-anchor="start"/><path d="M277.23665,143.42044c-1.66311,2.05277 -13.93003,16.54614 -13.93003,16.54614" fill="none" fill-rule="nonzero" stroke="#000000" stroke-width="5" stroke-linecap="round"/><path d="M230.99054,152.78789c0,0 -1.15879,-0.49601 -0.59827,-0.34455c2.89887,0.78336 28.43813,7.86772 28.43813,7.86772" fill="none" fill-rule="nonzero" stroke="#000000" stroke-width="5" stroke-linecap="round"/></g><path d="M256.63645,159.40256l-0.8149,12.83042" fill="none" fill-rule="nonzero" stroke="#000000" stroke-width="4.5" stroke-linecap="round"/><path d="M264.26884,171.67967l0.84661,-13.53084" fill="none" fill-rule="nonzero" stroke="#000000" stroke-width="4.5" stroke-linecap="round"/><path d="M243.35015,188.17171l-29.40699,-1.56546c0,0 -2.38655,-0.44775 -1.9994,-1.33264c0.88777,-2.02911 7.21856,-10.59651 7.21856,-10.59651l-11.49393,-4.4976c0,0 -2.0863,-0.99922 -2.35564,-2.11178c-0.25056,-1.03498 11.55441,-9.87113 11.55441,-9.87113c0,0 -8.09526,-3.97991 -10.24274,-6.06017c-0.84326,-0.81687 12.04462,-7.89151 20.87275,-11.22418c4.31986,-1.63077 10.22205,-4.11391 14.94085,-4.63128c7.82409,-0.85784 13.71237,1.7029 13.71237,1.7029" fill="none" fill-rule="nonzero" stroke="#000000" stroke-width="3" stroke-linecap="round"/><path d="M212.07539,186.52167c0,0 -0.46612,-1.42642 0.84953,-3.30169c1.64789,-2.34882 7.12986,-5.35475 5.58452,-7.7886c-2.00183,-3.15281 -14.61925,-3.26621 -12.89402,-7.03904c1.41661,-3.09794 10.9246,-8.13703 11.01829,-10.20633c0.09349,-2.06473 -4.52655,-1.01532 -7.01898,-3.88206c-3.54477,-4.07711 -1.74818,-4.00135 -1.74818,-4.00135c0,0 12.04662,-6.93463 17.84736,-9.12132c5.44239,-2.0516 15.95062,-3.61939 15.95062,-3.61939c0,0 -15.54121,13.05738 -18.03472,21.00143c-2.76409,8.80611 13.93638,28.17674 13.93638,28.17674z" data-paper-data="{&quot;index&quot;:null}" fill="url(#color-1)" fill-rule="nonzero" stroke="none" stroke-width="0" stroke-linecap="butt"/></g><path d="M248.89811,205.4013l0.98643,-15.86593" fill="none" fill-rule="nonzero" stroke="#000000" stroke-width="6" stroke-linecap="round" stroke-linejoin="miter"/><path d="M237.4676,208.56666c0,0 -2.60802,-7.42195 -1.91843,-8.30557c1.24863,-1.59996 14.48281,-9.92302 14.48281,-9.92302c0,0 5.75105,7.00243 7.73496,9.0349c1.87243,1.91826 6.7456,2.83712 6.7456,2.83712" fill="none" fill-rule="nonzero" stroke="#000000" stroke-width="6" stroke-linecap="round" stroke-linejoin="miter"/><g><g><g stroke="#001026" stroke-width="1.2"><path d="M258.02917,204.10309l2.92297,25.98777c0,0 7.06267,0.41252 6.89471,7.51322c-0.00958,0.40481 -0.10976,2.39235 -3.02746,2.97403c-2.79456,0.55712 -8.36532,-0.27515 -10.40081,-0.59138c-0.94539,-0.14688 -2.3855,-0.78756 -3.30585,-1.88454c-0.92663,-1.1045 -0.82654,-2.71079 -0.82591,-3.6144c0.00025,-0.36804 -2.07942,-29.30669 -2.07942,-29.30669" fill="#bf0000" fill-rule="evenodd" stroke-linecap="round" stroke-linejoin="round"/><path d="M248.03289,211.04161c0.17213,-7.27706 5.51843,-7.403 8.30395,-7.33711c1.21125,0.02865 1.04756,-1.91626 2.11947,3.77541c0.23607,1.25353 0.69999,6.3997 1.69204,10.77992c0.67932,2.9994 1.95353,5.64787 2.19159,6.40876c0.56246,1.79781 0.33108,3.4367 0.33108,3.4367l-1.01983,-1.19108c0,0 0.67202,0.83007 0.94114,1.32535c0.83841,1.54291 1.47974,2.70742 1.47974,2.70742c0,0 -7.12324,-0.46 -9.89761,1.80974c-2.77437,2.26974 -1.39961,6.54185 -1.39961,6.54185c0,0 -5.2776,-0.81096 -5.70054,-3.7225c-0.10427,-0.71777 0.71428,-2.85374 0.71428,-2.85374c0,0 -0.60345,0.12082 -0.623,-0.37617c-0.00997,-0.25335 0.79863,-4.01168 0.97828,-8.23959c0.2365,-5.56573 -0.1358,-12.01646 -0.111,-13.06496z" fill="#000000" fill-rule="nonzero" stroke-linecap="butt" stroke-linejoin="miter"/></g><path d="M238.97763,205.87547c-0.00985,-0.21361 1.19871,0.41618 3.93725,0.48896c3.61284,0.09603 9.14579,-0.33359 10.70162,-0.5534c4.03453,-0.57001 4.71727,-2.0872 4.74339,-1.52095c0.09666,2.09545 -2.1854,5.97695 -6.80087,6.18985c-2.02828,0.09356 -6.17685,0.79526 -8.52611,0.05752c-2.9966,-0.94103 -4.00109,-3.48741 -4.05528,-4.662z" fill="#004fd9" fill-rule="nonzero" stroke="#001026" stroke-width="1.2" stroke-linecap="butt" stroke-linejoin="miter"/><g fill-rule="nonzero" stroke-linecap="butt" stroke-linejoin="miter"><g fill="none" stroke="none" stroke-width="1" font-family="sans-serif" font-weight="normal" font-size="12" text-anchor="start"/><path d="M238.49079,204.51264c0,0 8.66928,1.31911 12.65307,1.30072c3.98378,-0.01839 7.26589,-1.39268 7.26589,-1.39268c0,0 0.03136,2.05113 -1.74527,4.04738c-1.37522,1.54522 -4.01823,3.14596 -7.43439,3.17992c-3.11221,0.03094 -6.58434,-0.62286 -8.30303,-1.96446c-2.60502,-2.03348 -2.43626,-5.17089 -2.43626,-5.17089z" fill="#000000" stroke="#001026" stroke-width="1.2"/></g><g stroke="#001026" stroke-width="1.2"><path d="M248.06791,209.71142c0,0 -3.38365,30.23157 -4.0011,30.33136c-1.77192,0.28635 -11.48215,-2.27779 -11.48215,-2.27779l6.24171,-30.39505" data-paper-data="{&quot;index&quot;:null}" fill="#ffab19" fill-rule="evenodd" stroke-linecap="round" stroke-linejoin="round"/><path d="M249.56332,209.22401c0,0 -0.79043,6.39285 -1.0239,9.78248c-0.22392,3.25117 -0.34946,10.15728 -0.34946,10.15728c0,0 0.94919,5.01816 0.02119,6.25564c-0.42981,0.57316 -0.7685,-2.83316 -0.7685,-2.83316c0,0 0.37809,3.84012 0.41532,4.17859c0.25975,2.36159 -0.92568,5.46282 -4.03203,5.75745c-3.41058,0.32348 -9.06481,0.68884 -11.97961,-1.17955c-1.2402,-0.79497 -2.92012,-3.1351 -2.46798,-5.62796c0.50989,-2.8113 3.24812,-5.75646 3.24812,-5.75646l-2.5161,3.21037c0,0 -0.02623,-1.60299 0.38317,-2.77887c0.45976,-1.32051 2.2419,-4.76073 2.2419,-4.76073l5.40244,-19.36098" data-paper-data="{&quot;index&quot;:null}" fill="#000000" fill-rule="evenodd" stroke-linecap="round" stroke-linejoin="round"/><path d="M246.40408,238.15795c-0.08549,1.69749 -0.78288,3.66972 -2.29657,4.69384c-1.51931,1.02791 -10.65038,0.62056 -12.06199,-0.63569c-1.34056,-1.19302 -1.88664,-3.39806 -1.8032,-5.05479c0.1713,-3.40126 3.92809,-5.93544 8.39105,-5.66022c4.46293,0.27521 7.94201,3.2556 7.77069,6.65688z" fill="#ff0000" fill-rule="nonzero" stroke-linecap="butt" stroke-linejoin="miter"/></g></g><g fill="#000000" fill-rule="nonzero" stroke="#001026" stroke-width="1.2" stroke-linecap="butt" stroke-linejoin="miter"><path d="M239.80011,216.02401c0,0 -2.91464,0.45871 -3.8062,0.19582c-0.27445,-0.08094 -1.00713,-1.01546 -1.38187,-2.12887c-0.46772,-1.38965 -0.52949,-3.10267 -0.19917,-4.29925c0.84987,-3.07858 5.23747,-6.43633 7.29477,-5.8297c0.89162,0.2629 3.22424,2.76495 3.22599,2.77122"/></g></g><path d="M250.04154,181.08349c0,0 -11.75265,-1.50271 -14.36744,-2.87593c-2.18121,-1.14551 -2.88139,-4.88198 -2.88139,-4.88198" fill="none" fill-rule="nonzero" stroke="#000000" stroke-width="3" stroke-linecap="round" stroke-linejoin="miter"/><g fill-rule="nonzero" stroke-linecap="butt" stroke-linejoin="miter"><g data-paper-data="{&quot;index&quot;:null}" stroke="none" stroke-width="1"><path d="M265.63272,208.97948c-0.13636,-0.07063 -0.27268,-0.14133 -0.40252,-0.30008c0.08389,-0.48128 0.15447,-0.98395 0.24334,-1.48192c0.10219,-0.47664 0.09469,-0.98123 0.24335,-1.48195c0.26924,0.08659 0.49204,0.19724 0.6866,0.33661c0.14625,0.03727 0.26928,0.08658 0.41552,0.12385c0.39381,0.06448 0.74454,0.20775 1.14827,0.23885c0.4585,0.04511 0.92208,0.07345 1.4153,0.00173c-0.29243,0.98472 -0.56988,1.91933 -0.84739,2.85397c-0.23729,0.137 -0.49472,0.14318 -0.75719,0.16604c-0.44678,0.04769 -0.90038,-0.01409 -1.34407,-0.10924c-0.0183,-0.00467 -0.04994,-0.03069 -0.06325,-0.05202c-0.26088,-0.04854 -0.51183,-0.13048 -0.73802,-0.29586zM269.2224,180.39772c-0.12763,0.16496 -0.20536,0.36057 -0.40612,0.50687c-0.07501,-0.14482 -0.15492,-0.27288 -0.23489,-0.40099c0.05942,-0.20028 0.21868,-0.33918 0.38629,-0.44009c0.11311,0.08277 0.18468,0.17276 0.25472,0.33426zM270.08636,179.54084c-0.19244,0.18436 -0.39811,0.34737 -0.58553,0.51502c-0.14127,-0.05398 -0.19953,-0.12268 -0.21968,-0.25348c0.23729,-0.137 0.4746,-0.27397 0.75191,-0.34693c0.02665,0.04269 0.03999,0.06405 0.05329,0.08539zM267.52004,181.56161c0.00529,0.18085 -0.05267,0.30973 -0.10561,0.42189c-0.12952,0.03881 -0.16951,-0.02529 -0.14967,-0.09202c0.05294,-0.11215 0.11086,-0.24097 0.25525,-0.32987z" fill="#000000"/><path d="M266.80908,206.20938c0.39381,0.06448 0.74953,0.19106 1.14827,0.23883c0.45857,0.0451 0.92209,0.07346 1.41532,0.00174c-0.2874,0.96802 -0.56985,1.91933 -0.84735,2.85396c-0.25559,0.13234 -0.51306,0.13849 -0.75722,0.16603c-0.46505,0.04304 -0.89542,-0.03078 -1.34407,-0.10924c-0.01831,-0.00466 -0.04986,-0.03066 -0.06323,-0.05202c0.19426,-0.05819 0.17905,-0.20567 0.18213,-0.34854c0.00769,-0.35712 0.03366,-0.70953 0.15107,-1.03866c0.01984,-0.06676 0.03964,-0.13353 0.04116,-0.20493c-0.01554,-0.34508 0.10185,-0.67419 0.14116,-1.00531c0.018,-0.19291 0.02098,-0.33571 -0.06731,-0.50187z" fill="#61afb4"/><path d="M266.80908,206.20938c0.07501,0.14481 0.09018,0.29228 0.05892,0.46386c-0.03931,0.33106 -0.15672,0.66023 -0.14115,1.00529c-0.00155,0.07143 -0.02134,0.1382 -0.04119,0.20496c-0.10405,0.35051 -0.1251,0.68622 -0.15108,1.03864c0.00186,0.12617 0.01213,0.29034 -0.18214,0.34855c-0.27917,-0.05322 -0.52519,-0.15183 -0.73805,-0.29584c0.01452,-0.24766 0.01079,-0.49994 0.11671,-0.72428c0.00991,-0.03337 0.00652,-0.08811 0.01641,-0.12149c0.04427,-0.34776 0.09347,-0.71225 0.15602,-1.05537c0.02631,-0.15486 0.06598,-0.28838 0.07402,-0.44793c-0.0003,-0.19756 0.04085,-0.40252 0.18677,-0.5628c0.09635,0.00662 0.16948,0.02525 0.24754,0.02722c0.12795,0.03263 0.26928,0.08659 0.39721,0.11918z" fill="#87d7dc"/><path d="M266.39359,206.08551c-0.07808,-0.00196 -0.15123,-0.0206 -0.24755,-0.02721c-0.14592,0.16028 -0.18708,0.36521 -0.18676,0.56281c-0.00803,0.15954 -0.04766,0.29305 -0.07403,0.44794c-0.06255,0.34313 -0.11177,0.70757 -0.15603,1.05536c-0.00991,0.03337 -0.00649,0.08813 -0.01642,0.1215c-0.09259,0.24569 -0.08393,0.48128 -0.11674,0.72425c-0.13634,-0.07064 -0.25441,-0.13668 -0.37091,-0.2741c0.08392,-0.48129 0.1362,-0.98864 0.24334,-1.48195c0.08392,-0.48129 0.09471,-0.98122 0.24334,-1.48193c0.28751,0.09126 0.48708,0.21392 0.68168,0.35326z" fill="#60adb2"/></g><g data-paper-data="{&quot;index&quot;:null}" fill="#000000" stroke="#000000" stroke-width="1.2"><path d="M268.60082,195.41824c1.72823,0.76233 5.48539,0.20151 5.73293,2.19835c0.04399,0.35488 -1.73,0.0713 -3.16814,0.41411c-1.38734,0.33068 -2.43991,1.29422 -2.43991,1.29422c0,0 11.02661,3.0076 10.16589,4.9588c-0.58328,1.32228 -12.10131,-1.13318 -12.10131,-1.13318c0,0 11.05488,3.75824 10.35973,4.86184c-0.24725,0.39252 -2.62859,0.26656 -4.97746,-0.48001c-2.09908,-0.66718 -5.27531,-1.66279 -5.27531,-1.66279c0,0 8.57432,3.86676 8.53474,4.8867c-0.04623,1.1914 -9.7305,-2.01072 -10.37984,-2.29715c-0.75858,-0.33462 -4.95388,-2.92036 -4.44033,-6.09149c0.58557,-3.6158 6.05444,-7.80275 7.989,-6.94938z"/></g></g><g fill="#ff0000" fill-rule="nonzero" stroke="none" stroke-linecap="butt" stroke-linejoin="miter"><path d="M253.57101,220.99244c0.36529,1.10834 -0.30897,2.32666 -1.50599,2.72116c-1.19701,0.39451 -2.46351,-0.18418 -2.8288,-1.29253c-0.36529,-1.10835 0.30897,-2.32665 1.50599,-2.72116c1.19701,-0.39451 2.46351,0.18418 2.8288,1.29252z" stroke-width="NaN"/><path d="M257.88949,224.3748c0.33606,1.01968 -0.25405,2.13057 -1.31807,2.48124c-1.06402,0.35067 -2.199,-0.19166 -2.53507,-1.21134c-0.33606,-1.01968 0.25406,-2.13057 1.31808,-2.48125c1.06402,-0.35067 2.19899,0.19167 2.53505,1.21134z" stroke-width="0"/><path d="M255.54798,229.15118c0.35067,1.06402 -0.2276,2.21084 -1.29162,2.56151c-1.06402,0.35067 -2.21084,-0.2276 -2.56151,-1.29162c-0.35067,-1.06402 0.2276,-2.21085 1.29161,-2.56152c1.06402,-0.35067 2.21085,0.22761 2.56152,1.29162z" stroke-width="0"/></g><g fill="#ff0000" fill-rule="nonzero" stroke="none" stroke-linecap="butt" stroke-linejoin="miter"><path d="M256.80932,213.25785c-0.94325,0.0241 -1.72901,-0.78218 -1.75504,-1.80089c-0.02604,-1.01871 0.71752,-1.86408 1.66077,-1.88818c0.94325,-0.0241 1.729,0.78219 1.75504,1.8009c0.02604,1.01871 -0.71751,1.86407 -1.66076,1.88817z" stroke-width="NaN"/><path d="M253.1831,215.8115c-0.86778,0.02218 -1.59003,-0.69391 -1.61318,-1.59943c-0.02314,-0.90552 0.66159,-1.65757 1.52938,-1.67974c0.86778,-0.02218 1.59002,0.69392 1.61317,1.59943c0.02314,0.90552 -0.66159,1.65757 -1.52937,1.67974z" stroke-width="0"/><path d="M256.30621,217.64579c-0.98098,0.02507 -1.79419,-0.6581 -1.81637,-1.52588c-0.02218,-0.86778 0.75509,-1.59159 1.73606,-1.61666c0.98098,-0.02507 1.7942,0.6581 1.81637,1.52589c0.02218,0.86778 -0.75509,1.59158 -1.73607,1.61665z" stroke-width="0"/></g><g fill="#ff0000" fill-rule="nonzero" stroke="none" stroke-linecap="butt" stroke-linejoin="miter"><path d="M240.80507,220.10745c0,1.16699 -1.02172,2.11302 -2.28206,2.11302c-1.26035,0 -2.28207,-0.94603 -2.28207,-2.11302c0,-1.16699 1.02172,-2.11302 2.28207,-2.11302c1.26035,0 2.28206,0.94603 2.28206,2.11302z" stroke-width="NaN"/><path d="M243.84782,224.67158c0,1.07363 -0.90819,1.94398 -2.0285,1.94398c-1.12031,0 -2.0285,-0.87035 -2.0285,-1.94398c0,-1.07363 0.9082,-1.94398 2.0285,-1.94398c1.12031,0 2.0285,0.87035 2.0285,1.94398z" stroke-width="0"/><path d="M240.1289,228.47502c0,1.12031 -0.90819,2.0285 -2.0285,2.0285c-1.12031,0 -2.0285,-0.90819 -2.0285,-2.0285c0,-1.12031 0.90819,-2.0285 2.0285,-2.0285c1.12031,0 2.0285,0.9082 2.0285,2.0285z" stroke-width="0"/></g><g fill="#ff0000" fill-rule="nonzero" stroke="none" stroke-linecap="butt" stroke-linejoin="miter"><path d="M245.42165,213.48513c-0.90339,-0.27236 -1.39729,-1.28408 -1.10314,-2.25975c0.29414,-0.97566 1.26495,-1.54581 2.16834,-1.27345c0.90339,0.27236 1.39728,1.28408 1.10314,2.25975c-0.29414,0.97566 -1.26494,1.54581 -2.16834,1.27345z" stroke-width="NaN"/><path d="M239.10193,211.00884c-0.86726,-0.26146 -1.35835,-1.17647 -1.09689,-2.04373c0.26146,-0.86726 1.17647,-1.35835 2.04372,-1.09689c0.86726,0.26146 1.35835,1.17647 1.09689,2.04373c-0.26146,0.86726 -1.17647,1.35835 -2.04373,1.09689z" stroke-width="0"/><path d="M243.57033,217.49509c-0.93953,-0.28325 -1.49804,-1.18663 -1.24747,-2.01775c0.25057,-0.83112 1.21533,-1.27526 2.15486,-0.99201c0.93953,0.28325 1.49805,1.18664 1.24748,2.01776c-0.25057,0.83112 -1.21534,1.27525 -2.15487,0.992z" stroke-width="0"/></g></g></g></svg>