<svg version="1.1" xmlns="http://www.w3.org/2000/svg" xmlns:xlink="http://www.w3.org/1999/xlink" width="27.91941" height="23.82716" viewBox="0,0,27.91941,23.82716"><g transform="translate(-226.0403,-168.08642)"><g data-paper-data="{&quot;isPaintingLayer&quot;:true}" fill="#9b7547" fill-rule="nonzero" stroke="#7d5e39" stroke-width="0.5" stroke-linecap="butt" stroke-linejoin="miter" stroke-miterlimit="10" stroke-dasharray="" stroke-dashoffset="0" style="mix-blend-mode: normal"><path d="M242.43935,170.3915c0.64124,-0.27301 6.10212,-0.29817 6.72507,-0.15678c0.39753,0.09023 0.32395,2.54655 -0.03493,2.62696c-0.21038,0.04714 -0.98788,0.10931 -1.94569,0.15959c-1.28302,-1.29187 -2.93488,-2.21696 -4.78444,-2.60413c0.01268,-0.01107 0.026,-0.01968 0.04,-0.02564z"/><path d="M251.81298,170.04018c0,0.83963 -0.82148,1.52028 -1.83483,1.52028c-1.01334,0 -1.83482,-0.68065 -1.83482,-1.52028c0,-0.83963 0.82147,-1.52028 1.83482,-1.52028c1.01334,0 1.83483,0.68065 1.83483,1.52028z"/><path d="M251.78081,173.10101c0,0.83963 -0.82147,1.52028 -1.83482,1.52028c-1.01334,0 -1.83482,-0.68065 -1.83482,-1.52028c0,-0.83963 0.82147,-1.52029 1.83482,-1.52029c1.01334,0 1.83482,0.68066 1.83482,1.52029z"/><path d="M243.72497,169.88291c0,0.30154 -0.098,0.58293 -0.26749,0.8208c-0.94713,-0.31667 -1.96074,-0.48821 -3.0144,-0.48821c-0.06325,0 -0.12636,0.00062 -0.18931,0.00185c-0.02696,-0.1077 -0.04118,-0.21961 -0.04118,-0.33444c0,-0.85411 0.78628,-1.54649 1.75619,-1.54649c0.96991,0 1.75619,0.69239 1.75619,1.54649z"/><path d=""/><path d=""/><path d=""/><path d=""/><path d=""/><path d=""/><path d="M231.23232,175.81316c0.09788,-0.04167 0.30807,-0.07757 0.5962,-0.10798c-0.35305,0.7571 -0.60924,1.56846 -0.75261,2.41814c-0.1322,-0.6432 -0.16462,-2.17347 0.15641,-2.31015z"/><path d=""/><path d=""/><path d="M230.76175,176.85107c-0.96991,0 -1.75619,-0.6924 -1.75619,-1.5465c0,-0.85411 0.78628,-1.54649 1.75619,-1.54649c0.72422,0 1.34606,0.38603 1.61462,0.93718c-0.39607,0.63507 -0.71923,1.32031 -0.95777,2.04401c-0.20291,0.07211 -0.42462,0.1118 -0.65686,0.1118z"/><path d="M230.65691,180.20617c-1.01334,0 -1.83483,-0.70412 -1.83483,-1.57271c0,-0.86858 0.82148,-1.57271 1.83483,-1.57271c0.22306,0 0.43681,0.03412 0.63456,0.09659c-0.22703,0.81389 -0.3484,1.67185 -0.3484,2.55815c0,0.15762 0.00384,0.31435 0.01143,0.47009c-0.09686,0.01354 -0.19626,0.02058 -0.29759,0.02058z"/><path d="M251.06114,178.07027c0.39753,0.09023 0.32395,2.54655 -0.03493,2.62696c-0.14749,0.03305 -0.57373,0.07348 -1.14542,0.11203c0.04114,-0.35889 0.06228,-0.72385 0.06228,-1.09376c0,-0.58725 -0.05328,-1.16205 -0.15528,-1.71983c0.63444,0.01297 1.11339,0.03829 1.27335,0.0746z"/><path d="M253.7097,177.87573c0,0.83963 -0.82148,1.52028 -1.83483,1.52028c-1.01334,0 -1.83482,-0.68065 -1.83482,-1.52028c0,-0.83963 0.82147,-1.52028 1.83482,-1.52028c1.01334,0 1.83483,0.68065 1.83483,1.52028z"/><path d="M253.67754,180.93656c0,0.83963 -0.82147,1.52028 -1.83482,1.52028c-1.01334,0 -1.83482,-0.68065 -1.83482,-1.52028c0,-0.83963 0.82147,-1.52029 1.83482,-1.52029c1.01334,0 1.83482,0.68066 1.83482,1.52029z"/><path d=""/><path d=""/><path d="M228.88605,186.59473c-0.20522,-0.10654 -0.35063,-2.41897 0.04746,-2.58846c0.28907,-0.12307 1.55759,-0.19578 2.92081,-0.22556c0.50889,1.07325 1.21302,2.03591 2.06651,2.84211c-1.88136,0.10614 -4.64827,0.17256 -5.03479,-0.02809z"/><path d=""/><path d="M236.21405,188.22463c-0.65148,-0.06634 -1.19731,-0.41561 -1.45296,-0.89493c0.45459,0.33978 0.94063,0.63981 1.45296,0.89493z"/><path d="M230.21914,183.49768c0,0.85411 -0.78627,1.5465 -1.75619,1.5465c-0.96991,0 -1.75619,-0.6924 -1.75619,-1.5465c0,-0.85411 0.78628,-1.54649 1.75619,-1.54649c0.96991,0 1.75619,0.69239 1.75619,1.54649z"/><path d="M230.19292,186.82657c0,0.86858 -0.82147,1.57271 -1.83482,1.57271c-1.01334,0 -1.83483,-0.70412 -1.83483,-1.57271c0,-0.86858 0.82148,-1.57271 1.83483,-1.57271c1.01334,0 1.83482,0.70412 1.83482,1.57271z"/><path d="M242.97961,189.00861c-0.02353,-0.01222 -0.04628,-0.05344 -0.06751,-0.11712c1.74824,-0.46924 3.29738,-1.42479 4.49352,-2.71273c1.13448,-0.00005 2.10478,0.02974 2.34653,0.08461c0.39753,0.09023 0.32395,2.54655 -0.03493,2.62696c-0.62066,0.13906 -6.17758,0.409 -6.7376,0.11828z"/><path d="M252.4007,186.06884c0,0.83963 -0.82148,1.52028 -1.83483,1.52028c-1.01334,0 -1.83482,-0.68065 -1.83482,-1.52028c0,-0.83963 0.82147,-1.52028 1.83482,-1.52028c1.01334,0 1.83483,0.68065 1.83483,1.52028z"/><path d="M252.36854,189.12966c0,0.83963 -0.82147,1.52028 -1.83482,1.52028c-1.01334,0 -1.83482,-0.68065 -1.83482,-1.52028c0,-0.83963 0.82147,-1.52029 1.83482,-1.52029c1.01334,0 1.83482,0.68066 1.83482,1.52029z"/><path d=""/><path d="M244.28648,189.24046c0,0.86858 -0.82147,1.57271 -1.83482,1.57271c-1.01334,0 -1.83483,-0.70412 -1.83483,-1.57271c0,-0.00886 0.00009,-0.01769 0.00026,-0.02652c1.22107,-0.02193 2.3859,-0.27425 3.45286,-0.71532c0.13817,0.22099 0.21654,0.47357 0.21654,0.74184z"/><path d="M234.20174,170.46822c0.48642,-0.20709 3.74607,-0.27157 5.56367,-0.22892c-2.20374,0.15532 -4.2,1.06228 -5.734,2.46608c-0.12017,-0.67884 -0.13912,-2.10542 0.17032,-2.23716z"/><path d="M243.57537,170.1169c0,0.2054 -0.04916,0.40129 -0.13827,0.58002c-0.94129,-0.31233 -1.94791,-0.48142 -2.99403,-0.48142c-0.17864,0 -0.35613,0.00493 -0.53234,0.01466c-0.00332,-0.0374 -0.00502,-0.07517 -0.00502,-0.11327c0,-0.83963 0.82147,-1.52028 1.83482,-1.52028c1.01334,0 1.83483,0.68065 1.83483,1.52028z"/><path d=""/><path d="M235.48736,169.95963c0,0.85411 -0.78627,1.5465 -1.75619,1.5465c-0.96991,0 -1.75619,-0.6924 -1.75619,-1.5465c0,-0.85411 0.78628,-1.54649 1.75619,-1.54649c0.96991,0 1.75619,0.69239 1.75619,1.54649z"/><path d="M231.79149,173.28853c0,-0.86858 0.82148,-1.57271 1.83483,-1.57271c0.44407,0 0.8513,0.13522 1.16869,0.36025c-0.90635,0.6712 -1.68905,1.49985 -2.3077,2.44553c-0.42392,-0.28808 -0.69582,-0.73335 -0.69582,-1.23307z"/><path d="M248.93144,189.76527c-0.62295,0.14139 -6.08383,0.11623 -6.72507,-0.15678c-0.10729,-0.04568 -0.1751,-0.24702 -0.21291,-0.51888c1.73474,-0.28475 3.31129,-1.03941 4.59462,-2.12894c1.11965,0.05273 2.07204,0.12467 2.30842,0.17763c0.35889,0.08042 0.43247,2.53673 0.03493,2.62696z" data-paper-data="{&quot;index&quot;:null}"/><path d="M249.74517,191.4801c-1.01335,0 -1.83482,-0.68065 -1.83482,-1.52028c0,-0.83963 0.82148,-1.52028 1.83482,-1.52028c1.01335,0 1.83483,0.68065 1.83483,1.52028c0,0.83963 -0.82149,1.52028 -1.83483,1.52028z" data-paper-data="{&quot;index&quot;:null}"/><path d="M249.71301,188.41928c-1.01335,0 -1.83482,-0.68066 -1.83482,-1.52029c0,-0.83963 0.82148,-1.52028 1.83482,-1.52028c1.01335,0 1.83482,0.68065 1.83482,1.52028c0,0.83963 -0.82148,1.52029 -1.83482,1.52029z" data-paper-data="{&quot;index&quot;:null}"/><path d="M241.7358,191.66358c-0.96992,0 -1.75619,-0.69238 -1.75619,-1.54649c0,-0.33683 0.12229,-0.64852 0.32991,-0.9025c0.04445,0.00061 0.08897,0.00092 0.13356,0.00092c0.82654,0 1.62842,-0.10555 2.3929,-0.30392c0.40003,0.28346 0.65602,0.71816 0.65602,1.2055c0,0.8541 -0.78628,1.54649 -1.75619,1.54649z" data-paper-data="{&quot;index&quot;:null}"/><path d="" data-paper-data="{&quot;index&quot;:null}"/><path d="" data-paper-data="{&quot;index&quot;:null}"/><path d="" data-paper-data="{&quot;index&quot;:null}"/><path d="" data-paper-data="{&quot;index&quot;:null}"/><path d="" data-paper-data="{&quot;index&quot;:null}"/><path d="" data-paper-data="{&quot;index&quot;:null}"/><path d="M230.99935,184.18684c-0.39809,-0.16949 -0.25269,-2.48192 -0.04747,-2.58846c0.03611,-0.01874 0.09298,-0.03516 0.16797,-0.04943c0.19452,0.99487 0.54432,1.93415 1.02313,2.79159c-0.56691,-0.03797 -0.99128,-0.08884 -1.14362,-0.1537z" data-paper-data="{&quot;index&quot;:null}"/><path d="" data-paper-data="{&quot;index&quot;:null}"/><path d="" data-paper-data="{&quot;index&quot;:null}"/><path d="M230.52878,186.24192c-0.96992,0 -1.75619,-0.69238 -1.75619,-1.54649c0,-0.8541 0.78628,-1.5465 1.75619,-1.5465c0.48599,0 0.92587,0.17383 1.24383,0.45474c0.15067,0.33547 0.32024,0.66061 0.50735,0.97407c0.00332,0.03885 0.00501,0.07809 0.00501,0.11769c0,0.8541 -0.78628,1.54649 -1.75619,1.54649z" data-paper-data="{&quot;index&quot;:null}"/><path d="M230.42393,182.93924c-1.01335,0 -1.83483,-0.70413 -1.83483,-1.57271c0,-0.86859 0.82149,-1.57271 1.83483,-1.57271c0.18068,0 0.35527,0.02239 0.52018,0.0641c0.01451,0.98745 0.17968,1.93841 0.47354,2.83092c-0.28637,0.15844 -0.62752,0.2504 -0.99372,0.2504z" data-paper-data="{&quot;index&quot;:null}"/><path d="M250.82816,181.92973c-0.15046,0.03415 -0.58317,0.05859 -1.16203,0.07216c0.18094,-0.73234 0.27694,-1.49815 0.27694,-2.28638c0,-0.16931 -0.00443,-0.33758 -0.01318,-0.50471c0.42832,0.03221 0.74127,0.06462 0.86333,0.09197c0.35889,0.08042 0.43247,2.53673 0.03493,2.62696z" data-paper-data="{&quot;index&quot;:null}"/><path d="M251.6419,183.64455c-1.01335,0 -1.83482,-0.68065 -1.83482,-1.52028c0,-0.83963 0.82148,-1.52028 1.83482,-1.52028c1.01335,0 1.83483,0.68065 1.83483,1.52028c0,0.83963 -0.82149,1.52028 -1.83483,1.52028z" data-paper-data="{&quot;index&quot;:null}"/><path d="M251.60974,180.58373c-0.739,0 -1.37595,-0.36199 -1.66668,-0.88364c-0.00061,-0.38305 -0.02389,-0.76079 -0.06857,-1.13194c0.24793,-0.59645 0.93119,-1.02498 1.73525,-1.02498c1.01335,0 1.83482,0.68065 1.83482,1.52028c0,0.83963 -0.82148,1.52029 -1.83482,1.52029z" data-paper-data="{&quot;index&quot;:null}"/><path d="" data-paper-data="{&quot;index&quot;:null}"/><path d="" data-paper-data="{&quot;index&quot;:null}"/><path d="M228.70054,175.99373c-0.39809,-0.16949 -0.25269,-2.48192 -0.04746,-2.58846c0.36601,-0.19001 2.86649,-0.14053 4.72831,-0.04462c-0.74987,0.83274 -1.35456,1.7988 -1.77418,2.85833c-1.35784,-0.02998 -2.61859,-0.1026 -2.90666,-0.22525z" data-paper-data="{&quot;index&quot;:null}"/><path d="" data-paper-data="{&quot;index&quot;:null}"/><path d="" data-paper-data="{&quot;index&quot;:null}"/><path d="M228.22997,178.04881c-0.96992,0 -1.75619,-0.69238 -1.75619,-1.54649c0,-0.8541 0.78628,-1.5465 1.75619,-1.5465c0.96992,0 1.75619,0.69239 1.75619,1.5465c0,0.8541 -0.78628,1.54649 -1.75619,1.54649z" data-paper-data="{&quot;index&quot;:null}"/><path d="M228.12513,174.74613c-1.01335,0 -1.83483,-0.70413 -1.83483,-1.57271c0,-0.86859 0.82149,-1.57271 1.83483,-1.57271c1.01335,0 1.83482,0.70413 1.83482,1.57271c0,0.86859 -0.82147,1.57271 -1.83482,1.57271z" data-paper-data="{&quot;index&quot;:null}"/><path d="M249.51917,173.73662c-0.18864,0.04282 -0.8209,0.07036 -1.62863,0.08037c-1.03444,-1.30433 -2.40427,-2.3306 -3.97917,-2.94848c1.82113,-0.04348 5.10422,0.13615 5.57287,0.24115c0.35889,0.08042 0.43247,2.53673 0.03493,2.62696z" data-paper-data="{&quot;index&quot;:null}"/><path d="M250.3329,175.45145c-1.01335,0 -1.83482,-0.68065 -1.83482,-1.52028c0,-0.83963 0.82148,-1.52028 1.83482,-1.52028c1.01335,0 1.83483,0.68065 1.83483,1.52028c0,0.83963 -0.82149,1.52028 -1.83483,1.52028z" data-paper-data="{&quot;index&quot;:null}"/><path d="M250.30074,172.39062c-1.01335,0 -1.83482,-0.68066 -1.83482,-1.52029c0,-0.83963 0.82148,-1.52028 1.83482,-1.52028c1.01335,0 1.83482,0.68065 1.83482,1.52028c0,0.83963 -0.82148,1.52029 -1.83482,1.52029z" data-paper-data="{&quot;index&quot;:null}"/><path d="" data-paper-data="{&quot;index&quot;:null}"/><path d="M242.21868,169.18683c1.01335,0 1.83482,0.70413 1.83482,1.57271c0,0.05474 -0.00326,0.10882 -0.00963,0.16212c-1.09497,-0.44883 -2.29234,-0.69909 -3.54734,-0.70601c0.25824,-0.60055 0.93185,-1.02882 1.72215,-1.02882z" data-paper-data="{&quot;index&quot;:null}"/><path d="M240.69382,189.68855c-0.62295,0.14139 -6.08383,0.11623 -6.72507,-0.15678c-0.39809,-0.16949 -0.25268,-2.48192 -0.04746,-2.58846c0.05216,-0.02708 0.14768,-0.04929 0.27852,-0.0672c1.66957,1.4569 3.85336,2.33939 6.24326,2.33939c0.15807,0 0.31523,-0.00386 0.4714,-0.01149c-0.04258,0.26934 -0.11497,0.46055 -0.22065,0.48454z" data-paper-data="{&quot;index&quot;:null}"/><path d="M241.50756,191.40338c-1.01335,0 -1.83482,-0.68065 -1.83482,-1.52028c0,-0.24629 0.07068,-0.47889 0.19615,-0.68466c0.18995,0.01132 0.38139,0.01707 0.57418,0.01707c0.85014,0 1.6742,-0.11167 2.45832,-0.32114c0.27492,0.26582 0.441,0.61121 0.441,0.98873c0,0.83963 -0.82149,1.52028 -1.83483,1.52028z" data-paper-data="{&quot;index&quot;:null}"/><path d="" data-paper-data="{&quot;index&quot;:null}"/><path d="M233.49819,191.58686c-0.96992,0 -1.75619,-0.69238 -1.75619,-1.54649c0,-0.8541 0.78628,-1.5465 1.75619,-1.5465c0.96992,0 1.75619,0.69239 1.75619,1.5465c0,0.8541 -0.78628,1.54649 -1.75619,1.54649z" data-paper-data="{&quot;index&quot;:null}"/><path d="M233.39335,188.28418c-1.01335,0 -1.83483,-0.70413 -1.83483,-1.57271c0,-0.66468 0.48106,-1.23304 1.16102,-1.46327c0.62386,0.86936 1.39087,1.62905 2.26654,2.24461c-0.31641,0.47285 -0.91117,0.79137 -1.59273,0.79137z" data-paper-data="{&quot;index&quot;:null}"/></g></g></svg>