<svg version="1.1" xmlns="http://www.w3.org/2000/svg" xmlns:xlink="http://www.w3.org/1999/xlink" width="102.02163" height="109.0204" viewBox="0,0,102.02163,109.0204"><defs><linearGradient x1="117.97937" y1="231.27407" x2="99.56542" y2="244.09269" gradientUnits="userSpaceOnUse" id="color-1"><stop offset="0" stop-color="#000000"/><stop offset="1" stop-color="#000000" stop-opacity="0"/></linearGradient></defs><g transform="translate(-93.13322,-180.08168)"><g data-paper-data="{&quot;isPaintingLayer&quot;:true}" stroke-miterlimit="10" stroke-dasharray="" stroke-dashoffset="0" style="mix-blend-mode: normal"><g stroke-linejoin="miter"><path d="M155.74524,200.15758c7.685,11.0395 4.56252,26.49933 -6.97427,34.53051c-11.53678,8.03117 -27.11911,5.59244 -34.80411,-5.44707c-7.685,-11.0395 -4.56252,-26.49933 6.97427,-34.53051c11.53678,-8.03117 27.11911,-5.59244 34.80411,5.44707z" fill="none" fill-rule="nonzero" stroke="#000000" stroke-width="4.5" stroke-linecap="butt"/><g><g fill-rule="nonzero" stroke-linecap="butt"><path d="M113.48407,210.4041l0.01402,0.00011" data-paper-data="{&quot;index&quot;:null}" fill="#ffab19" stroke="#000000" stroke-width="5"/><g data-paper-data="{&quot;index&quot;:null}" fill="none" stroke="none" stroke-width="1" font-family="sans-serif" font-weight="normal" font-size="12" text-anchor="start"/></g><path d="M113.48407,210.4041l0.01402,0.00011" data-paper-data="{&quot;index&quot;:null}" fill="#ffab19" fill-rule="nonzero" stroke="#000000" stroke-width="5" stroke-linecap="butt"/><path d="M135.3158,215.86937" fill="#001026" fill-rule="evenodd" stroke="#000000" stroke-width="5" stroke-linecap="butt"/><g data-paper-data="{&quot;index&quot;:null}" fill="none" fill-rule="nonzero" stroke="none" stroke-width="1" stroke-linecap="butt" font-family="sans-serif" font-weight="normal" font-size="12" text-anchor="start"/><g data-paper-data="{&quot;index&quot;:null}" fill="none" fill-rule="nonzero" stroke="none" stroke-width="1" stroke-linecap="butt" font-family="sans-serif" font-weight="normal" font-size="12" text-anchor="start"/><path d="M144.22034,182.58168c-0.07275,2.64093 -1.00304,21.60589 -1.00304,21.60589" fill="none" fill-rule="nonzero" stroke="#000000" stroke-width="5" stroke-linecap="round"/><path d="M113.19345,218.13143c0,0 -1.22163,0.31055 -0.68449,0.09008c2.77799,-1.14012 27.36346,-11.03945 27.36346,-11.03945" fill="none" fill-rule="nonzero" stroke="#000000" stroke-width="5" stroke-linecap="round"/></g><path d="M137.5781,207.79432l7.15217,10.68317" fill="none" fill-rule="nonzero" stroke="#000000" stroke-width="4.5" stroke-linecap="round"/><path d="M151.10139,212.90328l-7.55276,-11.25861" fill="none" fill-rule="nonzero" stroke="#000000" stroke-width="4.5" stroke-linecap="round"/><path d="M144.51622,238.71441l-24.30181,16.63262c0,0 -2.16718,1.09519 -2.39767,0.15721c-0.52852,-2.15083 -0.70951,-12.80196 -0.70951,-12.80196l-11.86055,3.41557c0,0 -2.26399,0.47479 -3.15415,-0.24491c-0.82809,-0.6695 3.17425,-14.86162 3.17425,-14.86162c0,0 -8.8472,1.76068 -11.81691,1.41427c-1.16613,-0.13603 4.76685,-13.58771 9.75086,-21.60034c2.43883,-3.92081 5.61595,-9.48028 9.04835,-12.7595c5.69116,-5.43719 11.92326,-6.98319 11.92326,-6.98319" fill="none" fill-rule="nonzero" stroke="#000000" stroke-width="3" stroke-linecap="round"/><path d="M118.67992,256.41522c0,0 -1.2372,-0.84929 -1.33245,-3.13806c-0.1193,-2.86675 2.40637,-8.5859 -0.30015,-9.57909c-3.50602,-1.2866 -13.59364,6.29312 -14.51714,2.24865c-0.75831,-3.321 3.72826,-13.10184 2.54479,-14.80189c-1.18085,-1.6963 -4.21143,1.94535 -7.93311,1.18413c-5.29303,-1.08261 -3.82042,-2.11455 -3.82042,-2.11455c0,0 5.35009,-12.82913 8.62687,-18.09155c3.07435,-4.93731 10.46525,-12.56983 10.46525,-12.56983c0,0 -4.40309,19.81508 -1.55407,27.63867c3.15819,8.67258 28.1938,13.90183 28.1938,13.90183z" data-paper-data="{&quot;index&quot;:null}" fill="url(#color-1)" fill-rule="nonzero" stroke="none" stroke-width="0" stroke-linecap="butt"/></g><path d="M159.39486,249.02288l-8.86117,-13.19774" fill="none" fill-rule="nonzero" stroke="#000000" stroke-width="6" stroke-linecap="round" stroke-linejoin="miter"/><path d="M130.09624,255.20527c0.01003,-1.07763 10.576,0.16806 16.33496,-4.41721c5.08649,-4.04986 5.45022,-14.05292 5.45022,-14.05292c0,0 8.82312,2.06429 11.63388,2.47219c2.65283,0.38497 7.08086,-1.84768 7.08086,-1.84768" fill="none" fill-rule="nonzero" stroke="#000000" stroke-width="6" stroke-linecap="round" stroke-linejoin="miter"/><g><g><g stroke="#001026" stroke-width="1.2"><path d="M165.85611,242.44155l18.11814,18.85844c0,0 5.85877,-3.96563 10.04171,1.77468c0.23847,0.32726 1.36708,1.96633 -0.59608,4.20179c-1.88033,2.1411 -6.80962,4.86655 -8.6181,5.85277c-0.83996,0.45804 -2.37291,0.82472 -3.77052,0.51314c-1.40717,-0.31374 -2.30411,-1.65004 -2.85288,-2.36792c-0.22352,-0.29239 -19.46581,-22.00655 -19.46581,-22.00655" fill="#bf0000" fill-rule="evenodd" stroke-linecap="round" stroke-linejoin="round"/><path d="M162.13642,254.02744c-4.28683,-5.88288 -0.11823,-9.23274 2.13362,-10.87365c0.97919,-0.71353 -0.33304,-2.15836 3.97789,1.70945c0.94944,0.85185 4.446,4.65609 7.89634,7.5311c2.36265,1.9687 4.98435,3.29711 5.63589,3.75658c1.53945,1.08563 2.35196,2.52761 2.35196,2.52761l-1.5338,-0.32584c0,0 1.03818,0.25061 1.55294,0.48028c1.60362,0.71548 2.82073,1.2503 2.82073,1.2503c0,0 -5.93573,3.96475 -6.75897,7.45347c-0.82324,3.48871 2.86526,6.04525 2.86526,6.04525c0,0 -4.68356,2.56417 -6.78923,0.50939c-0.51911,-0.50655 -1.16754,-2.70016 -1.16754,-2.70016c0,0 -0.40572,0.46275 -0.72335,0.08001c-0.16192,-0.19511 -1.80444,-3.67089 -4.23181,-7.1372c-3.19546,-4.56315 -7.41229,-9.45896 -8.02994,-10.30658z" fill="#000000" fill-rule="nonzero" stroke-linecap="butt" stroke-linejoin="miter"/></g><path d="M151.80588,255.42976c-0.13767,-0.16362 1.2048,-0.3982 3.42354,-2.00509c2.9271,-2.11989 7.05931,-5.82434 8.16107,-6.94462c2.85707,-2.90508 2.47693,-4.52481 2.84188,-4.09106c1.35051,1.6051 1.89792,6.07435 -1.6375,9.04901c-1.55366,1.30722 -4.42123,4.38619 -6.73508,5.22844c-2.95143,1.07433 -5.2969,-0.33699 -6.05393,-1.23671z" fill="#004fd9" fill-rule="nonzero" stroke="#001026" stroke-width="1.2" stroke-linecap="butt" stroke-linejoin="miter"/><g fill-rule="nonzero" stroke-linecap="butt" stroke-linejoin="miter"><g fill="none" stroke="none" stroke-width="1" font-family="sans-serif" font-weight="normal" font-size="12" text-anchor="start"/><path d="M150.59088,254.64356c0,0 7.68557,-4.22238 10.83767,-6.65861c3.15208,-2.43623 4.92281,-5.52256 4.92281,-5.52256c0,0 1.27172,1.60961 1.07448,4.27467c-0.15268,2.06292 -1.27829,4.94057 -3.9702,7.04412c-2.4524,1.91639 -5.60682,3.50785 -7.78704,3.48732c-3.30457,-0.03114 -5.07771,-2.62494 -5.07771,-2.62494z" fill="#000000" stroke="#001026" stroke-width="1.2"/></g><g stroke="#001026" stroke-width="1.2"><path d="M161.35565,252.94993c0,0 15.69014,26.06178 15.26052,26.51635c-1.23291,1.30447 -10.50184,5.17101 -10.50184,5.17101l-13.52011,-27.92892" data-paper-data="{&quot;index&quot;:null}" fill="#ffab19" fill-rule="evenodd" stroke-linecap="round" stroke-linejoin="round"/><path d="M162.24677,251.65389c0,0 3.2584,5.55663 5.13347,8.39004c1.79849,2.71766 5.89683,8.27767 5.89683,8.27767c0,0 3.80409,3.40761 3.81944,4.95432c0.00712,0.71638 -2.33242,-1.78248 -2.33242,-1.78248c0,0 2.63451,2.81936 2.86982,3.06549c1.64179,1.71729 2.58567,4.90037 0.29821,7.02257c-2.51149,2.33005 -6.77906,6.0572 -10.22925,6.34545c-1.46801,0.12264 -4.22442,-0.71433 -5.38074,-2.96859c-1.30404,-2.54223 -0.92005,-6.54527 -0.92005,-6.54527l-0.04638,4.07861c0,0 -0.99524,-1.25688 -1.38494,-2.43944c-0.43763,-1.32801 -1.11376,-5.14298 -1.11376,-5.14298l-7.47924,-18.6573" data-paper-data="{&quot;index&quot;:null}" fill="#000000" fill-rule="evenodd" stroke-linecap="round" stroke-linejoin="round"/><path d="M177.32631,276.54889c0.96397,1.39983 1.60908,3.38978 1.02969,5.12309c-0.58155,1.73974 -8.07957,6.9668 -9.96407,6.82737c-1.78965,-0.13242 -3.56365,-1.55135 -4.50447,-2.91757c-1.93151,-2.80485 -0.48894,-7.10072 3.22212,-9.59509c3.71102,-2.49436 8.28523,-2.24266 10.21673,0.56223z" fill="#ff0000" fill-rule="nonzero" stroke-linecap="butt" stroke-linejoin="miter"/></g></g><g fill="#000000" fill-rule="nonzero" stroke="#001026" stroke-width="1.2" stroke-linecap="butt" stroke-linejoin="miter"><path d="M158.62795,262.9881c0,0 -2.03549,2.13596 -2.90323,2.46917c-0.26713,0.10256 -1.41697,-0.19411 -2.39133,-0.8504c-1.21612,-0.81912 -2.30645,-2.14178 -2.77154,-3.29268c-1.19655,-2.96111 0.24629,-8.29438 2.2486,-9.06327c0.86779,-0.33323 4.2409,0.23555 4.24609,0.23947"/></g></g><g fill-rule="nonzero" stroke-linecap="butt" stroke-linejoin="miter"><g data-paper-data="{&quot;index&quot;:null}" stroke="none" stroke-width="1"><path d="M166.54554,224.33062c-0.20578,0.05109 -0.3166,-0.04738 -0.42608,-0.18606c-0.1552,-0.23263 -0.26057,-0.49197 -0.39909,-0.73354c-0.07275,-0.02021 -0.14549,-0.04044 -0.21059,-0.045c-1.38146,-0.16734 -2.43456,-0.86601 -3.37473,-1.7634c-0.19746,-0.19021 -0.41157,-0.37155 -0.5335,-0.62197c-0.02284,-0.04697 -0.06997,-0.10066 -0.1185,-0.11412c-0.26675,-0.07412 -0.36584,-0.2776 -0.48917,-0.48785c-0.10809,-0.1789 -0.18293,-0.37567 -0.27439,-0.5635c-0.05334,-0.10956 -0.07345,-0.23697 -0.01181,-0.36875c0.06166,-0.13174 0.05055,-0.28372 0.04707,-0.42001c-0.10397,-0.7733 -0.0687,-1.56205 0.08917,-2.35732c0.09697,-0.44677 0.27426,-0.85767 0.46822,-1.27747c0.57283,-1.2349 1.44775,-2.23697 2.53675,-3.05776c0.49395,-0.36351 1.04261,-0.65771 1.62175,-0.88928c0.43851,-0.1759 0.89715,-0.22439 1.34677,-0.24835c1.43065,-0.07617 2.69778,0.33008 3.82223,1.08922c0.21546,0.1411 0.3963,0.3402 0.57714,0.53934c0.1261,0.12976 0.26122,0.23499 0.47321,0.23979c0.18773,-0.00193 0.32284,0.10325 0.4323,0.24194c0.1552,0.23263 0.27714,0.48307 0.39908,0.73353c0.03812,0.07828 0.03536,0.15872 0.03257,0.23918c-0.04292,0.29936 0.02152,0.5609 0.12688,0.82027c0.24253,0.54113 0.30352,1.14007 0.38115,1.7301c0.02494,0.22352 0.0333,0.45589 0.00078,0.69047c-0.09138,0.75961 -0.21464,1.49687 -0.53325,2.22041c0.11433,0.23478 0.21964,0.49416 0.34162,0.74459c0.04574,0.09394 0.09908,0.20349 0.0298,0.31958c-0.05264,0.10716 0.00971,0.19221 0.05545,0.28609c0.28826,0.63501 0.59313,1.26113 0.88139,1.89615c0.66171,1.40204 1.33109,2.81967 1.95956,4.23953c0.61322,1.38855 1.27637,2.75032 1.92284,4.12104c0.10672,0.21914 0.17253,0.44045 0.27925,0.65957c0.5183,1.06439 1.03659,2.12879 1.53826,3.20209c0.09146,0.18782 0.21617,0.35785 0.20023,0.5835c-0.00275,0.08047 0.05195,0.14978 0.09006,0.22806c0.38114,0.78265 0.75321,1.58986 1.13431,2.3725c0.01524,0.03131 0.03808,0.07827 0.05334,0.10956c0.13859,0.24152 0.08318,0.42916 -0.09624,0.66354c-0.60612,0.779 -1.37506,1.30972 -2.30684,1.59221c-0.23901,0.06893 -0.49325,0.10654 -0.74611,0.10397c-0.18774,0.00193 -0.31522,-0.0876 -0.40807,-0.23519c-0.27852,-0.44286 -0.5737,-0.87677 -0.85985,-1.33528c-0.20095,-0.32655 -0.37626,-0.68656 -0.62707,-0.98634c-0.54874,-0.65327 -0.9056,-1.42918 -1.40448,-2.10916c-0.27231,-0.38695 -0.57025,-0.74045 -0.82594,-1.13635c-0.27091,-0.42718 -0.56746,-0.82091 -0.84739,-1.22348c-0.5051,-0.7359 -0.98458,-1.50528 -1.50632,-2.23225c-0.71016,-0.94175 -1.35389,-1.9192 -1.99756,-2.8966c-0.22519,-0.33329 -0.45037,-0.66649 -0.67556,-0.9998c-0.34093,-0.52784 -0.6894,-1.07133 -1.03028,-1.59916c-0.18571,-0.29523 -0.39702,-0.557 -0.58273,-0.85218c-0.20997,-0.302 -0.35475,-0.59935 -0.55571,-0.92592zM166.85446,223.88863c0.24525,-0.01305 0.47526,-0.05739 0.69901,-0.15761c0.50089,-0.09092 0.96503,-0.30029 1.42918,-0.5097c0.58816,-0.25614 1.16245,-0.58381 1.72012,-0.90256c0.6408,-0.36332 1.1555,-0.85643 1.67925,-1.37411c0.05125,-0.06697 0.10252,-0.13392 0.1794,-0.23436c-0.06095,-0.12522 -0.12198,-0.25042 -0.18294,-0.37563c-0.01524,-0.03131 -0.04711,-0.0537 -0.0866,-0.09173c-0.11639,0.06239 -0.22514,0.14045 -0.3263,0.23416c-0.17664,0.15394 -0.35192,0.26763 -0.52856,0.42154c-0.45305,0.36134 -0.99135,0.5908 -1.46726,0.90517c-0.25839,0.15831 -0.50155,0.34784 -0.77518,0.47484c-0.60479,0.26507 -1.17146,0.60837 -1.8067,0.81079c-0.16489,0.04892 -0.34636,0.10678 -0.51128,0.15569c-0.11224,-0.05828 -0.23,0.04439 -0.3284,0.05764c-0.12261,0.00651 -0.24527,0.01306 -0.42049,0.12678c0.21546,0.1411 0.26468,0.37132 0.42263,0.5235c0.09077,-0.02891 0.20298,0.02933 0.30413,-0.06438zM167.77864,224.06426c-0.45102,0.06414 -0.55837,0.102 -0.75929,0.24918c0.10809,0.1789 0.20858,0.34218 0.31666,0.52111c0.05334,0.10956 0.15794,0.15221 0.2806,0.14566c0.08179,-0.00435 0.16487,-0.04893 0.24663,-0.05328c0.30276,-0.02412 0.60827,-0.12874 0.86666,-0.28702c0.1545,0.01582 0.2875,-0.05542 0.42053,-0.12677c0.75579,-0.38549 1.50261,-0.74646 2.2203,-1.21021c0.31729,-0.2096 0.62698,-0.43484 0.91236,-0.66684c0.21894,-0.19636 0.45445,-0.40157 0.56249,-0.6964c-0.09911,-0.2035 -0.1982,-0.40695 -0.29728,-0.61047c-0.11776,0.10259 -0.21894,0.19633 -0.30342,0.28109c-0.40457,0.3748 -0.82436,0.71835 -1.27466,0.99926c-0.57567,0.36787 -1.18948,0.65749 -1.79564,0.96278c-0.28267,0.15157 -0.5944,0.2003 -0.86942,0.36747c-0.20298,-0.02933 -0.37687,0.04416 -0.5265,0.12437zM178.32358,240.38041c0.2785,-0.03089 0.51888,-0.14002 0.74401,-0.28047c0.02423,0.00674 0.06513,0.00455 0.08178,-0.00437c0.39141,-0.2296 0.76758,-0.4905 1.06476,-0.8275c0.17807,-0.19418 0.36369,-0.37265 0.44609,-0.63397c-0.42683,-0.87657 -0.85368,-1.75308 -1.30336,-2.67665c-0.31519,0.3861 -0.67612,0.67839 -1.04464,0.95489c-0.31868,0.24984 -0.67406,0.38115 -1.00797,0.59967c-0.133,0.07132 -0.25701,0.1181 -0.39002,0.18941c-0.23761,0.02869 -0.47663,0.09764 -0.73363,0.21568c0.22867,0.46959 0.5751,0.83655 0.82177,1.25701c0.27091,0.42719 0.55848,0.84547 0.82177,1.25698c0.20297,0.02933 0.35126,-0.01065 0.49951,-0.05069zM176.3759,237.45709c0.1545,0.01581 0.29514,-0.0398 0.42811,-0.11113c0.16351,-0.00868 0.30555,-0.10458 0.46278,-0.16914c0.47317,-0.23398 0.90823,-0.54619 1.31138,-0.88078c0.23551,-0.20523 0.4558,-0.44182 0.61234,-0.72313c-0.03047,-0.06262 -0.04434,-0.13413 -0.07487,-0.19673c-0.37347,-0.76704 -0.7393,-1.51832 -1.09618,-2.29422c-0.37972,-0.82285 -0.75182,-1.63006 -1.13154,-2.45293c-0.56267,-1.19853 -1.10101,-2.39032 -1.66369,-3.58885c-0.61461,-1.34832 -1.27151,-2.65424 -1.85285,-4.02039c-0.09007,-0.22805 -0.22107,-0.45391 -0.33537,-0.68873c-0.15238,0.16067 -0.2729,0.34372 -0.44056,0.47308c-0.51332,0.45289 -1.089,0.82076 -1.67991,1.15735c-0.53202,0.28525 -1.07169,0.55487 -1.61138,0.82448c-0.23139,0.0846 -0.43851,0.1759 -0.66991,0.26049c-0.17873,-0.02262 -0.31313,0.08893 -0.46139,0.12895c-0.16489,0.04892 -0.32837,0.05762 -0.48702,0.16243c0.04297,0.17436 0.13721,0.28176 0.20717,0.38239c0.6326,0.82548 1.13979,1.7379 1.7225,2.59009c0.37279,0.55024 0.74553,1.10049 1.13496,1.64178c0.5051,0.7359 1.0192,1.44721 1.5167,2.16744c0.41227,0.58825 0.82453,1.17656 1.22014,1.77375c0.43512,0.63526 0.84598,1.26375 1.2645,1.90791c0.38802,0.58153 0.78367,1.17871 1.19592,1.76699c0.15723,-0.06457 0.30274,-0.02415 0.42813,-0.11111zM171.71552,213.50489c-0.29716,0.33697 -0.61586,0.58682 -0.92688,0.85228c-0.32768,0.27438 -0.63106,0.55552 -0.96635,0.81423c-0.31868,0.24983 -0.66924,0.47726 -0.99553,0.71139c-0.34294,0.24309 -0.68582,0.48617 -1.05297,0.7225c-0.3339,0.21849 -0.69208,0.43026 -1.026,0.64878c-0.35815,0.21175 -0.74681,0.36094 -1.07448,0.63533c-0.39485,0.09329 -0.73016,0.35202 -1.08694,0.52361c-0.381,0.16478 -0.76344,0.36986 -1.14445,0.53467c-0.36439,0.15588 -0.75305,0.30503 -1.12506,0.44529c-0.38867,0.14915 -0.79117,0.22676 -1.15691,0.4229c0.14968,0.39351 0.20301,0.50306 0.47323,0.71349c0.23761,-0.02869 0.47527,-0.05741 0.73086,-0.13526c0.30552,-0.10459 0.61102,-0.20916 0.9408,-0.30701c0.61865,-0.19351 1.21305,-0.39381 1.79498,-0.7058c0.39905,-0.21395 0.79045,-0.44357 1.21999,-0.59489c0.09077,-0.02891 0.19051,-0.08242 0.275,-0.16719c0.17663,-0.15395 0.40043,-0.25416 0.59992,-0.36116c0.73157,-0.39223 1.41739,-0.87838 2.07896,-1.37131c0.88675,-0.63336 1.68685,-1.35845 2.46406,-2.13053c0.16,-0.14502 0.32004,-0.29003 0.38441,-0.50221c-0.08107,-0.25263 -0.21204,-0.47853 -0.4067,-0.74916zM164.09154,215.24369c-0.0339,0.2748 -0.00133,0.51396 0.01462,0.76201c0.00069,0.21675 0.07555,0.4135 0.23352,0.56568c0.27506,0.30653 0.5079,0.65544 0.67416,1.04005c0.01524,0.03131 0.05471,0.06937 0.06233,0.08501c0.10598,0.00237 0.17248,-0.0333 0.23278,-0.12481c0.00902,-0.02455 0.01038,-0.06479 0.00276,-0.08046c-0.17116,-0.48069 -0.30905,-0.97917 -0.41371,-1.49552c-0.01384,-0.07153 -0.04297,-0.17435 -0.10673,-0.21913c-0.18845,-0.2148 -0.37691,-0.42957 -0.69978,-0.53283zM164.24486,218.14212c-0.15593,-0.44936 -0.27094,-0.90091 -0.36172,-1.34572c-0.02775,-0.14302 -0.0977,-0.2437 -0.20857,-0.34217c-0.17458,-0.14323 -0.36721,-0.23739 -0.56743,-0.34718c-0.06374,-0.04478 -0.13508,-0.10521 -0.21961,-0.02042c0.04644,0.31068 0.06865,0.61463 0.14832,0.90745c0.60279,0.50586 0.60275,0.50587 0.98524,1.24827c0.07274,0.02023 0.14689,0.0002 0.22377,-0.10024zM169.08945,217.49879c0.07069,0.31742 0.15802,0.62593 0.24533,0.93443c0.01385,0.07154 0.02773,0.14305 0.07483,0.19673c0.2383,0.18804 0.46007,0.38498 0.75866,0.48152c0.10805,-0.2948 0.04359,-0.55633 0.03664,-0.82898c-0.00346,-0.13629 -0.06585,-0.22131 -0.16908,-0.30413c-0.25495,-0.17913 -0.47669,-0.37611 -0.68933,-0.59761c-0.00762,-0.01567 -0.04848,-0.01351 -0.09696,-0.02695c-0.04225,0.04239 -0.10118,0.09374 -0.16002,0.14503zM167.39382,213.41386c-0.0942,0.36634 -0.07962,0.65463 -0.08166,0.95181c0.01247,0.11175 0.06721,0.18107 0.12196,0.25043c0.2827,0.32217 0.51548,0.67115 0.68942,1.07137c0.02286,0.04696 0.06233,0.08501 0.08521,0.13194c0.19052,-0.08241 0.21615,-0.11588 0.15516,-0.2411c-0.19819,-0.407 -0.30559,-0.84289 -0.31464,-1.29203c-0.00694,-0.27263 -0.11503,-0.45156 -0.29725,-0.61048c-0.11987,-0.07393 -0.21547,-0.14111 -0.35819,-0.26197zM166.21437,217.10586c0.08312,-0.04458 0.06923,-0.11613 0.03876,-0.17875c-0.2134,-0.43827 -0.2862,-0.9322 -0.35898,-1.42617c-0.06793,-0.39784 -0.30974,-0.7222 -0.72682,-0.93284c-0.04777,0.20327 0.01182,0.36874 -0.00272,0.55417c-0.02144,0.38655 0.12338,0.68394 0.34232,0.96136c0.23418,0.30869 0.485,0.60853 0.61946,0.97068c0.0395,0.03801 0.06375,0.04481 0.088,0.05153zM166.23769,214.05348c-0.00831,0.24132 -0.03048,0.41113 -0.03599,0.57199c-0.01727,0.26589 0.05755,0.46265 0.23075,0.64613c0.24458,0.24392 0.43028,0.53914 0.59934,0.84326c0.06998,0.10067 0.13095,0.22588 0.1843,0.33543c0.09077,-0.02891 0.08451,-0.08476 0.06926,-0.11608c-0.13794,-0.49851 -0.2592,-1.0059 -0.30633,-1.53336c-0.02149,-0.08717 -0.03536,-0.15869 -0.09009,-0.22804c-0.18984,-0.17458 -0.36305,-0.35806 -0.65125,-0.51934zM170.06068,216.78066c0.21134,0.26176 0.29863,0.57024 0.40258,0.86984c0.03811,0.07827 0.01872,0.16763 0.09008,0.22805c0.11088,0.0985 0.43233,0.24195 0.68383,0.28479c0.04018,-0.21895 -0.01805,-0.42459 -0.03537,-0.63246c-0.01873,-0.16764 -0.09632,-0.28393 -0.24042,-0.36457c-0.23968,-0.14783 -0.44619,-0.31348 -0.61801,-0.5372c-0.00761,-0.01567 -0.05613,-0.0291 -0.08035,-0.03585c-0.07414,0.02001 -0.14065,0.05565 -0.20227,0.18743zM164.87761,220.86247c0.20646,0.16563 0.31941,0.44069 0.56814,0.56394c0.10876,-0.07805 0.12055,-0.18307 0.15656,-0.28134c0.0554,-0.18764 0.14268,-0.35284 0.14197,-0.56959c-0.23694,-0.22828 -0.35616,-0.55915 -0.5841,-0.81197c-0.10598,-0.00237 -0.18912,0.04216 -0.25701,0.11808c0.02983,0.3196 0.01878,0.64137 -0.02554,0.98095zM167.17959,218.70048c0.04297,0.17436 0.08593,0.34871 0.05615,0.50284c-0.06996,0.37305 0.07628,0.63026 0.33886,0.82503c0.09558,0.06717 0.14132,0.16111 0.28683,0.20156c0.09003,-0.24571 0.12259,-0.48027 0.15509,-0.71485c0.01039,-0.06479 -0.02012,-0.12738 -0.07484,-0.19673c-0.18086,-0.19914 -0.33743,-0.39152 -0.51825,-0.59066c-0.02284,-0.04697 -0.08662,-0.09174 -0.24389,-0.02715zM166.13212,219.26212c0.10119,0.38003 0.15384,0.74656 0.05967,1.11289c-0.02701,0.0737 0.02012,0.1274 0.0506,0.18999c0.08523,0.13196 0.18709,0.25503 0.35542,0.34239c0.12608,-0.34396 0.16898,-0.64335 0.20428,-0.95835c0.01176,-0.105 -0.00969,-0.19218 -0.07208,-0.27719c-0.11706,-0.15439 -0.21758,-0.31762 -0.33467,-0.47197c-0.00761,-0.01567 -0.05613,-0.02914 -0.08037,-0.03586c-0.04988,0.02674 -0.09977,0.05349 -0.18285,0.09807zM169.03094,213.50334c-0.14273,-0.12085 -0.29306,-0.25742 -0.4358,-0.3783c-0.02423,-0.00674 -0.04851,-0.01349 -0.09698,-0.02695c-0.11432,0.23893 -0.12259,0.48027 -0.10528,0.6881c0.35269,0.42284 0.69008,0.81436 0.94924,1.34657c0.11082,-0.37525 -0.12754,-0.56327 -0.17674,-0.7935c-0.07208,-0.27719 -0.10328,-0.55653 -0.13449,-0.8359zM163.6758,214.99285c-0.25772,-0.09869 -0.48223,-0.21519 -0.76832,-0.19997c-0.01317,0.14522 -0.05817,0.26807 -0.06228,0.38874c-0.00413,0.12066 -0.02491,0.25021 0.02846,0.35978c0.11848,0.1141 0.28059,0.14564 0.41708,0.21063c0.13649,0.06496 0.24734,0.16349 0.41844,0.17044c-0.00559,-0.31286 -0.02013,-0.60111 -0.03332,-0.92963zM163.19602,218.74396c-0.16216,-0.50522 -0.30287,-0.9233 -0.44351,-1.34135c-0.01524,-0.03131 -0.02146,-0.08721 -0.06997,-0.10066c-0.20022,-0.10977 -0.38244,-0.26868 -0.65192,-0.26237c0.04019,0.2548 0.07279,0.49397 0.12201,0.7242c0.39145,0.24415 0.69837,0.57302 1.04342,0.98021zM168.96637,219.6572c0.09629,-0.18982 0.0533,-0.36416 0.05886,-0.52503c0.01455,-0.18544 -0.02081,-0.34415 -0.17115,-0.48065c-0.19745,-0.19021 -0.39492,-0.38045 -0.48364,-0.64874c-0.13165,0.0311 -0.19052,0.08241 -0.14478,0.17632c0.09771,0.24368 0.20302,0.50307 0.20235,0.76003c0.01182,0.36874 0.25916,0.53225 0.53838,0.71808zM167.15271,220.19534c-0.08657,0.38198 -0.17036,0.68354 -0.23754,0.97615c0.05334,0.10956 0.13372,0.14546 0.19746,0.1902c0.08037,0.03586 0.15932,0.11193 0.29095,0.08086c0.12195,-0.22331 0.21195,-0.46894 0.27778,-0.72135c-0.14895,-0.17673 -0.30693,-0.32891 -0.52864,-0.52588zM170.13647,219.56279c-0.26395,-0.15457 -0.49607,-0.28672 -0.73575,-0.43456c-0.01729,0.2659 -0.0422,0.51615 -0.06713,0.76637c0.21546,0.1411 0.39006,0.28437 0.65815,0.31823c0.08104,-0.22109 0.10457,-0.43111 0.14473,-0.65005zM164.22997,214.06402c-0.15379,0.20088 -0.10457,0.43113 -0.12812,0.64113c-0.01039,0.06479 0.04432,0.13414 0.10047,0.16326c0.17598,0.10306 0.3277,0.19936 0.49603,0.28677c0.00762,0.01567 0.0409,-0.0022 0.07415,-0.02001c0.0097,-0.28155 -0.00495,-0.5698 0.00477,-0.85136c-0.15933,-0.11194 -0.35332,-0.16586 -0.54732,-0.21975zM167.01008,213.18534c-0.15036,-0.1365 -0.29305,-0.2574 -0.5293,-0.26893c-0.06439,0.21221 -0.16208,0.44223 -0.15375,0.67465c0.10322,0.08284 0.17322,0.18347 0.28544,0.24173c0.09557,0.06718 0.13994,0.20134 0.31245,0.16804c0.03392,-0.2748 0.06783,-0.54959 0.08516,-0.81552zM170.56381,219.23497c0.1351,0.10521 0.32285,0.10325 0.5182,0.11694c0.04158,-0.25915 0.13919,-0.48919 0.09903,-0.74397c-0.194,-0.05391 -0.36095,-0.1815 -0.60482,-0.20867c-0.0097,0.28155 -0.00275,0.55418 -0.01241,0.8357zM170.96957,215.97754c0.12057,0.29067 0.31529,0.56131 0.40258,0.86985c0.08109,0.25263 0.25845,0.31539 0.51893,0.33367c0.03253,-0.23456 -0.01805,-0.42459 -0.05965,-0.63916c-0.33808,-0.13453 -0.56607,-0.38737 -0.86189,-0.56433zM162.15825,219.02401c0.05889,-0.05131 0.036,-0.09825 0.01317,-0.14522c-0.08244,-0.21239 -0.18916,-0.43155 -0.255,-0.65287c-0.07833,-0.33305 -0.32081,-0.40044 -0.6208,-0.45673c0.02011,0.12743 0.02498,0.22348 0.04646,0.31065c0.04161,0.21456 0.10879,0.39566 0.34227,0.48764c0.13649,0.06497 0.23832,0.18806 0.3326,0.29543c0.01385,0.07154 0.01872,0.16761 0.14132,0.1611zM164.29576,221.64821c0.05264,-0.10716 0.07204,-0.19655 0.09904,-0.27023c0.10529,-0.21435 0.08657,-0.382 -0.03816,-0.552c-0.10944,-0.1387 -0.17667,-0.31982 -0.26953,-0.46741c-0.02284,-0.04698 -0.02911,-0.10284 -0.15312,-0.05609c0.02354,0.26373 0.01391,0.54529 -0.03665,0.82899c-0.01039,0.06479 0.02772,0.14301 0.05819,0.20565c0.09421,0.10738 0.18084,0.19916 0.34018,0.31108zM168.87699,220.11964c-0.14271,-0.12086 -0.27643,-0.26629 -0.46146,-0.34477c-0.0824,0.26134 -0.1967,0.50026 -0.21402,0.76614c0.17599,0.10303 0.30206,0.23283 0.5307,0.2287c0.06442,-0.21221 0.15311,-0.41766 0.14473,-0.65005zM165.79705,214.52661c0.08238,-0.26133 0.09069,-0.50266 0.06572,-0.72612c-0.17598,-0.10305 -0.32771,-0.19932 -0.54595,-0.25998c-0.08728,0.16525 -0.10943,0.33504 -0.10733,0.51157c0.19883,0.14999 0.38107,0.3089 0.58752,0.47458zM167.74788,221.63305c0.15313,0.0561 0.24109,0.10761 0.35472,0.12562c0.07275,0.02021 0.13785,0.02478 0.203,0.02933c0.12815,-0.16739 0.22444,-0.35722 0.24799,-0.56723c-0.15933,-0.11194 -0.31869,-0.22388 -0.53834,-0.24431c-0.08104,0.22109 -0.17732,0.41091 -0.26736,0.65656zM163.12484,220.57841c-0.09141,0.28591 -0.16345,0.4824 -0.23688,0.71918c0.01384,0.07153 0.08381,0.17217 0.17945,0.23935c0.07898,0.07607 0.09909,0.20348 0.23696,0.22827c0.12677,-0.1272 0.18842,-0.25894 0.21821,-0.41309c-0.13859,-0.24154 -0.25289,-0.47635 -0.3977,-0.77373zM162.98643,214.39518c0.12128,0.03369 0.24251,0.06739 0.36372,0.10111c0.12128,0.03368 0.23487,0.05169 0.3561,0.08541c0.03255,-0.23455 0.08796,-0.4222 0.03738,-0.61221c-0.0956,-0.06716 -0.2106,-0.04498 -0.31659,-0.0474c-0.10598,-0.00237 -0.23487,-0.05169 -0.34361,0.02633c-0.04641,0.1631 -0.10804,0.29479 -0.09696,0.44678zM169.83867,220.63047c-0.20924,-0.0852 -0.38384,-0.2285 -0.64436,-0.2467c-0.05538,0.18763 -0.09419,0.36634 -0.1496,0.55396c0.20923,0.0852 0.37758,0.17262 0.61522,0.14388c0.07826,-0.14067 0.17181,-0.25003 0.17872,-0.45113zM162.56267,216.75431c-0.03742,-0.33524 -0.07624,-0.63025 -0.11507,-0.92523c-0.11224,-0.05828 -0.20784,-0.12547 -0.33947,-0.09435c-0.09905,0.27027 -0.07549,0.53393 -0.06852,0.80656c0.11225,0.05828 0.22447,0.11654 0.3457,0.15023c0.04711,0.05372 0.08798,0.05151 0.17733,0.06282zM166.4829,221.40327c-0.18363,-0.11868 -0.27508,-0.30654 -0.46908,-0.36044c-0.10665,0.25458 -0.20431,0.48461 -0.24588,0.7438c0.16977,0.04717 0.24594,0.2037 0.45796,0.20847c0.12813,-0.16739 0.15931,-0.3618 0.25701,-0.5918zM167.61336,212.48683c-0.07065,0.15632 -0.11704,0.31937 -0.12257,0.48028c0.19125,0.13434 0.36581,0.2776 0.57228,0.44324c0.01591,-0.22564 0.0547,-0.40438 0.11151,-0.63222c-0.19123,-0.13436 -0.3582,-0.26197 -0.56122,-0.2913zM164.54659,221.94798c0.16559,0.16785 0.29933,0.31326 0.52655,0.34936c0.09489,-0.14959 0.18081,-0.27457 0.18635,-0.43548c-0.15796,-0.15218 -0.2993,-0.31323 -0.48915,-0.48781c-0.09629,0.18982 -0.17593,0.3707 -0.22372,0.57397zM165.98403,213.36045c0.02492,-0.25023 0.16207,-0.44224 0.11148,-0.63226c-0.17598,-0.10305 -0.35472,-0.12564 -0.54249,-0.12368c-0.07965,0.18089 -0.16695,0.34612 -0.133,0.54503c0.17735,0.06282 0.3381,0.13453 0.56395,0.21085zM170.96989,219.76734c-0.16976,-0.04717 -0.30621,-0.11215 -0.48635,-0.09453c-0.03253,0.23456 -0.16209,0.44221 -0.12951,0.68137c0.15313,0.0561 0.28337,0.06521 0.44063,0.00063c0.07204,-0.19653 0.11984,-0.3998 0.1752,-0.58743zM161.66068,216.8826c-0.16074,-0.07175 -0.27431,-0.08975 -0.41362,-0.07436c-0.0554,0.18764 -0.07896,0.39764 0.01252,0.58545c0.1455,0.04042 0.29094,0.08085 0.44408,0.13695c0.04919,-0.2435 -0.02566,-0.44023 -0.04301,-0.64808zM172.60259,216.66131c-0.13784,-0.02479 -0.2515,-0.04281 -0.35885,-0.00499c-0.02355,0.20998 -0.0138,0.4022 0.03679,0.5922c0.12883,0.04937 0.24248,0.06739 0.3741,0.03629c0.04018,-0.21895 -0.03469,-0.41568 -0.05203,-0.62351zM168.72058,221.82212c0.1912,0.13434 0.33185,0.07869 0.47387,-0.01719c0.11638,-0.06238 0.21753,-0.15612 0.20643,-0.30809c-0.16074,-0.07175 -0.31383,-0.12783 -0.50159,-0.12586c-0.07065,0.15632 -0.12468,0.30373 -0.17871,0.45113zM169.81994,213.10001c-0.11848,-0.11412 -0.17944,-0.23933 -0.33392,-0.2552c-0.20294,0.4444 0.02497,0.69725 0.35131,0.93677c-0.00831,-0.23241 -0.00903,-0.4492 -0.01737,-0.68157zM166.99907,222.29118c0.11917,-0.14283 0.1808,-0.27459 0.21196,-0.46895c-0.1545,-0.01582 -0.24737,-0.16346 -0.41085,-0.15475c-0.09217,0.06913 -0.0949,0.14956 -0.13856,0.23218c-0.03599,0.09824 -0.1039,0.17415 -0.05055,0.28372c0.11225,0.05828 0.22451,0.11653 0.38799,0.10782zM166.56625,216.83824c0.2286,-0.00414 0.31314,-0.08892 0.26116,-0.2387c-0.08243,-0.21239 -0.19816,-0.40699 -0.30626,-0.58589c-0.03045,-0.0626 -0.08526,-0.13194 -0.20023,-0.10978c0.05407,0.32633 0.14138,0.63479 0.24531,0.93439zM171.9328,219.29051c0.07897,0.07609 0.16835,0.08739 0.27576,0.04958c0.09768,-0.23003 0.23623,-0.46223 0.22929,-0.73486c-0.24526,0.01306 -0.37969,0.12458 -0.41983,0.34351c-0.03601,0.09826 -0.11292,0.19875 -0.08521,0.34178zM168.71794,215.48715c0.23275,-0.12478 0.26737,-0.18289 0.1988,-0.32372c-0.12334,-0.21022 -0.25427,-0.4361 -0.44412,-0.61066c0.00419,0.35307 0.01738,0.68158 0.24532,0.9344zM171.96513,215.7398c0.04433,0.13411 0.09774,0.24371 0.13442,0.36217c0.09005,0.22808 0.09009,0.22805 0.42748,0.14588c-0.02011,-0.12743 -0.0312,-0.27939 -0.04508,-0.35088c-0.194,-0.05393 -0.34709,-0.10998 -0.51683,-0.15715zM164.64901,212.55629c-0.06167,0.13176 -0.19604,0.24331 -0.11221,0.41549c0.13785,0.02478 0.28475,0.02499 0.44685,0.0565c0.07066,-0.15633 0.16558,-0.30587 0.15446,-0.45785c-0.15451,-0.01581 -0.3,-0.0563 -0.48913,-0.01411zM171.55303,217.52023c0.01599,0.24803 0.01527,0.50503 0.03125,0.75309c0.07137,0.0604 0.1517,0.0963 0.2362,0.01152c0.08104,-0.22109 0.11361,-0.4557 0.06437,-0.68592c-0.11224,-0.05828 -0.20922,-0.0852 -0.33187,-0.07865zM168.24454,212.40506c0.10876,-0.07805 0.16143,-0.18525 0.18218,-0.31481c-0.06374,-0.04479 -0.12748,-0.08956 -0.19123,-0.13433c-0.08796,-0.05153 -0.15937,-0.11194 -0.27435,-0.08975c-0.09976,0.05348 -0.16765,0.12932 -0.19603,0.24328c0.15176,0.09631 0.32773,0.19933 0.47941,0.29566zM164.81676,213.84812c0.07066,-0.15633 0.08381,-0.30156 0.07272,-0.45352c-0.17873,-0.02262 -0.34085,-0.0541 -0.49532,-0.06997c-0.11014,0.11831 -0.13092,0.24787 -0.10182,0.3507c0.17734,0.06283 0.35472,0.12564 0.52446,0.17284zM169.1458,212.53373c-0.0956,-0.06716 -0.1912,-0.13434 -0.30346,-0.19264c-0.02422,-0.00674 -0.05751,0.01111 -0.09841,0.01329c-0.04366,0.08262 -0.12815,0.16738 -0.11704,0.31937c0.11089,0.09848 0.22036,0.23714 0.39771,0.29999c0.09487,-0.14957 0.11563,-0.27915 0.12117,-0.44003zM170.68259,213.40733c-0.06721,-0.1811 0.10043,-0.31048 0.0242,-0.46699c-0.12745,-0.08954 -0.21267,-0.22153 -0.40667,-0.27542c-0.07826,0.14067 -0.13993,0.27245 -0.02142,0.38654c0.11848,0.11413 0.17044,0.26389 0.40391,0.35588zM172.57703,218.11604c0.01316,-0.14522 0.04291,-0.29937 0.0637,-0.42893c0.00902,-0.02456 -0.02286,-0.04697 -0.03812,-0.07826c-0.09837,0.01327 -0.21961,-0.02045 -0.34636,0.10678c-0.02213,0.16978 -0.0367,0.35525 -0.06784,0.54962c0.14686,0.00021 0.25426,-0.03764 0.38867,-0.14915zM163.92163,213.30161c-0.14549,-0.04044 -0.2986,-0.09651 -0.41983,-0.1302c-0.12678,0.12719 -0.18845,0.25895 -0.23343,0.38179c0.07001,0.10067 0.19397,0.05389 0.28336,0.06519c0.0894,0.01128 0.18636,0.03824 0.29513,-0.03981c0.05125,-0.06697 0.0949,-0.1496 0.07481,-0.277zM165.36756,222.5145c0.13649,0.06496 0.24112,0.10762 0.34571,0.15021c0.03186,0.02241 0.08939,0.01132 0.11364,0.01803c0.11638,-0.06238 0.16905,-0.16958 0.18979,-0.29916c-0.1441,-0.08064 -0.27161,-0.17021 -0.44129,-0.21743c-0.07687,0.10045 -0.12954,0.20764 -0.20781,0.34829zM172.40637,215.48349c-0.03256,-0.23917 -0.06516,-0.47828 -0.22173,-0.6707c-0.12676,0.12719 -0.25219,0.21418 -0.27433,0.38395c0.21267,0.22154 0.2127,0.22154 0.49605,0.28673zM167.38837,222.3588c0.42749,0.14588 0.44407,0.13695 0.66713,-0.18009c-0.15313,-0.0561 -0.31521,-0.08758 -0.46832,-0.14371c-0.10876,0.07805 -0.16139,0.18522 -0.19883,0.32371zM167.22822,212.29856c-0.1441,-0.08065 -0.27299,-0.12998 -0.43649,-0.1213c-0.02564,0.03349 -0.06028,0.09154 -0.09492,0.14959c-0.018,0.04914 -0.02841,0.11394 -0.0464,0.16304c0.14411,0.08063 0.27924,0.18585 0.45036,0.19281c0.07687,-0.10044 0.11432,-0.23893 0.12743,-0.38416zM164.01175,222.31371c0.03462,-0.05805 0.07825,-0.14069 0.07204,-0.19656c-0.03395,-0.19894 -0.14343,-0.33758 -0.34368,-0.4474c-0.0693,0.11609 -0.18703,0.2187 -0.19118,0.3394c0.14271,0.12086 0.24319,0.28413 0.46281,0.30454zM161.71874,215.66711c-0.02422,-0.00675 -0.0485,-0.01348 -0.09698,-0.02695c-0.15517,0.24114 -0.23759,0.50245 -0.31998,0.76377c0.10322,0.08282 0.19259,0.09411 0.33322,0.03847c0.02492,-0.25023 0.06643,-0.50935 0.08376,-0.77528zM167.46535,215.36921c0.01458,0.28828 0.00492,0.5698 0.15111,0.82698c0.00761,0.01567 0.08936,0.01127 0.12261,-0.00654c0.08311,-0.04459 0.11913,-0.14284 0.08099,-0.22108c-0.0492,-0.23024 -0.18155,-0.4159 -0.35473,-0.59935zM166.41274,212.04489c-0.12886,-0.04938 -0.25773,-0.0987 -0.4046,-0.09892c-0.11639,0.06239 -0.18427,0.13827 -0.21406,0.2924c0.16213,0.03152 0.33186,0.0787 0.48634,0.09456c0.08449,-0.08476 0.12812,-0.1674 0.13229,-0.28807zM170.03755,221.25419c0.24039,-0.10915 0.44754,-0.20044 0.59369,-0.41699c-0.11847,-0.11411 -0.26533,-0.11435 -0.42123,-0.09c-0.08726,0.16524 -0.16555,0.30589 -0.17246,0.50702zM162.39473,221.40415c0.10392,-0.17415 0.11293,-0.19867 0.09007,-0.24568c-0.05957,-0.16543 -0.21132,-0.26177 -0.35542,-0.34239c-0.05609,-0.02912 -0.14687,-0.00017 -0.15102,0.12048c0.16834,0.0874 0.20093,0.32657 0.41643,0.46761zM162.43712,215.42013c0.04158,-0.25915 0.10735,-0.51158 -0.00564,-0.78657c-0.17939,0.23436 -0.20433,0.48464 -0.24448,0.70353c0.05472,0.06937 0.11984,0.07389 0.25009,0.08301zM166.34578,222.54274c-0.06026,0.09154 -0.12814,0.16741 -0.18841,0.25894c0.15175,0.09632 0.30486,0.1524 0.46487,0.00737c0.04226,-0.04239 0.08449,-0.08478 0.07065,-0.15632c-0.07897,-0.07608 -0.19262,-0.09413 -0.34709,-0.10998zM169.75572,214.73336c0.14963,-0.08026 0.2009,-0.14717 0.12329,-0.26348c-0.06999,-0.10068 -0.13998,-0.20132 -0.22659,-0.29306c-0.0395,-0.038 -0.09563,-0.0672 -0.1545,-0.01588c0.04159,0.21458 0.12544,0.38675 0.25779,0.57241zM163.2853,217.80783c0.03257,0.23918 0.09843,0.46048 0.24739,0.63721c0.00763,0.01567 0.08937,0.01127 0.10598,0.00237c0.03323,-0.01781 0.04366,-0.08262 0.02838,-0.11393c-0.1157,-0.19458 -0.17393,-0.40026 -0.38179,-0.52571zM162.74643,218.7679c-0.12609,-0.12979 -0.20996,-0.30199 -0.39352,-0.4207c0.01596,0.24805 0.06656,0.43807 0.16216,0.50523c0.07897,0.07608 0.14549,0.04045 0.23136,-0.08457zM171.55881,220.20164c0.17664,-0.15394 0.40943,-0.27876 0.43434,-0.52899c-0.36023,0.03525 -0.38514,0.28547 -0.43434,0.52899zM169.9388,217.47771c0.03322,-0.01782 0.04231,-0.04244 0.07552,-0.06024c-0.09285,-0.14759 -0.09496,-0.32414 -0.24669,-0.42043c-0.10738,0.03781 -0.14964,0.08024 -0.1614,0.18524c0.10322,0.08282 0.21408,0.1813 0.33259,0.29544zM165.42732,216.73825c0.05684,0.24588 0.10744,0.43589 0.2155,0.61482c0.01524,0.03131 0.06372,0.04479 0.1136,0.01804c0.01665,-0.00893 0.04225,-0.0424 0.05125,-0.06698c-0.03256,-0.23917 -0.12404,-0.42697 -0.38038,-0.56588zM164.38585,222.34999c-0.0845,0.08479 -0.11914,0.14281 -0.06302,0.17197c0.10322,0.08282 0.2231,0.15672 0.34295,0.23066c0.08036,0.03587 0.13023,0.00914 0.14963,-0.08022c-0.13369,-0.14546 -0.25221,-0.25958 -0.42955,-0.32239zM165.37153,212.18864c0.04366,-0.08262 0.0949,-0.1496 0.13855,-0.2322c0.00903,-0.02455 -0.00625,-0.05588 -0.01247,-0.11175c-0.1995,0.10694 -0.40523,0.15807 -0.59092,0.33657c0.16213,0.03152 0.27575,0.04955 0.46486,0.00736zM165.53354,219.58301c0.09284,0.14761 0.17808,0.2796 0.28618,0.45851c0.09003,-0.2457 0.07133,-0.41329 -0.02152,-0.56089c-0.10598,-0.00238 -0.1635,0.00869 -0.26467,0.1024zM170.56358,216.39258c0.11987,0.07393 0.17043,0.2639 0.39906,0.25977c-0.13307,-0.4024 -0.17115,-0.48064 -0.26956,-0.4674c-0.08311,0.04459 -0.11778,0.10263 -0.12954,0.20764zM164.445,217.30447c-0.08521,0.34175 0.0063,0.52957 0.18711,0.72874c0.14129,-0.31265 -0.09844,-0.46043 -0.18711,-0.72874zM170.24679,213.50278c-0.07618,0.31719 0.00767,0.48941 0.13238,0.6594c0.00762,0.01567 0.04849,0.01347 0.08173,-0.00436c0.04989,-0.02673 0.06788,-0.07588 0.05264,-0.10717c-0.05957,-0.16543 -0.15241,-0.31303 -0.26675,-0.54783zM171.24739,215.72985c0.11848,0.11412 0.21134,0.26176 0.43089,0.28216c-0.02635,-0.18328 -0.11158,-0.31523 -0.18916,-0.43154c-0.12261,0.00651 -0.18148,0.05783 -0.24176,0.14937zM170.04509,212.48579c-0.18499,-0.07848 -0.26883,-0.25066 -0.46558,-0.22413c0.05684,0.24588 0.05684,0.24587 0.34642,0.36697c0.02564,-0.03349 0.05125,-0.06697 0.11915,-0.14284zM171.40912,219.33438c0.20989,-0.17176 0.25769,-0.37504 0.28123,-0.58506c-0.0956,-0.06716 -0.16213,-0.03152 -0.18912,0.04216c-0.02211,0.16979 -0.06093,0.34852 -0.09207,0.54286zM167.37852,211.96132c0.09216,-0.06914 0.16765,-0.12936 0.17178,-0.25001c-0.1046,-0.0426 -0.20923,-0.08523 -0.31657,-0.0474c-0.07552,0.06021 -0.11013,0.11828 -0.11291,0.19875c0.07137,0.06041 0.1441,0.08064 0.25773,0.09867zM167.98809,218.68153c-0.01108,-0.15195 -0.02356,-0.26374 -0.10256,-0.33982c-0.03186,-0.02241 -0.07274,-0.02023 -0.11363,-0.01804c-0.04989,0.02673 -0.10116,0.0937 -0.06168,0.13174c0.04575,0.09395 0.0991,0.2035 0.27786,0.2261zM164.14948,212.60697c-0.17251,0.03328 -0.2674,0.18287 -0.38516,0.28549c0.29861,0.09652 0.33185,0.07865 0.38516,-0.28549zM161.80773,219.25143c-0.04783,-0.27045 -0.04783,-0.27044 -0.2432,-0.28415c0.01247,0.11175 0.0326,0.23917 0.2432,0.28415zM168.79641,217.71512c-0.0894,-0.01128 -0.13925,0.01545 -0.14063,0.05564c-0.02211,0.16979 0.01734,0.20783 0.23559,0.26848c-0.00345,-0.13629 -0.04919,-0.23026 -0.09494,-0.32416zM171.00605,213.25364c-0.045,0.12286 -0.07339,0.23677 0.01316,0.3285c0.24313,-0.18961 0.24453,-0.22977 -0.01316,-0.3285zM161.19185,218.89079c-0.04641,0.1631 -0.00208,0.2972 0.03466,0.41565c0.03046,0.0626 0.10324,0.08284 0.17252,-0.03328c-0.03674,-0.11847 -0.08108,-0.25264 -0.20716,-0.38241zM169.02734,211.94579c0.04297,0.17436 0.13095,0.22589 0.27921,0.18588c0,0 0.02564,-0.03349 0.01799,-0.04914c-0.02912,-0.10283 -0.15932,-0.11197 -0.29722,-0.13677zM166.81311,219.15359c0.0845,-0.08479 0.08728,-0.16525 0.04016,-0.21892c-0.01524,-0.03131 -0.06374,-0.04478 -0.10462,-0.04262c-0.04089,0.00219 -0.0755,0.0602 -0.06024,0.09152c0.00624,0.05589 0.03671,0.11848 0.12469,0.17002zM166.50563,211.71875c0.11986,0.07392 0.20923,0.08523 0.31175,-0.04873c-0.14411,-0.08063 -0.22586,-0.0763 -0.31175,0.04873z" fill="#000000"/><path d="M169.29653,224.7703c0.53965,-0.26958 1.07936,-0.53921 1.61139,-0.82449c0.59857,-0.32093 1.1666,-0.70446 1.67992,-1.15735c0.16002,-0.14501 0.27154,-0.30348 0.44056,-0.47306c0.12197,0.25047 0.2453,0.46064 0.33537,0.6887c0.57374,1.3505 1.23821,2.67208 1.85284,4.02039c0.546,1.20745 1.10105,2.39031 1.66369,3.58885c0.37973,0.82285 0.7518,1.63009 1.1315,2.45293c0.35686,0.77592 0.73933,1.51831 1.0962,2.2942c0.03047,0.06262 0.06097,0.12524 0.07484,0.19675c-0.1489,0.29699 -0.36022,0.50896 -0.61235,0.72312c-0.40319,0.33462 -0.83824,0.64682 -1.31137,0.88077c-0.14963,0.08026 -0.29164,0.17612 -0.46276,0.16915c0.1344,-0.11155 0.3235,-0.15374 0.4683,-0.33005c-0.2383,-0.18805 -0.31802,-0.48087 -0.45661,-0.72242c-0.00762,-0.01567 -0.01523,-0.0313 -0.03186,-0.0224c-0.33878,-0.35131 -0.55981,-0.80526 -0.85638,-1.19897c-0.10946,-0.13869 -0.26884,-0.25065 -0.31181,-0.42498c-0.11917,-0.33089 -0.41366,-0.54805 -0.53285,-0.87898c-0.00762,-0.01567 -0.03949,-0.03804 -0.05473,-0.06937c-0.1947,-0.27062 -0.39836,-0.51676 -0.55982,-0.80523c-0.16768,-0.34435 -0.45315,-0.58612 -0.58758,-0.94829c-0.19883,-0.14999 -0.26465,-0.37133 -0.38798,-0.58155c-0.01524,-0.03131 -0.02288,-0.04697 -0.0381,-0.07826c-0.28545,-0.24175 -0.37901,-0.6061 -0.59796,-0.88352c-0.21894,-0.27739 -0.34576,-0.62393 -0.54808,-0.91024c-0.22518,-0.3333 -0.49263,-0.62411 -0.62566,-1.02656c-0.01524,-0.03131 -0.0381,-0.07828 -0.06997,-0.10067c-0.18363,-0.11868 -0.22517,-0.33328 -0.33325,-0.51221c-0.04575,-0.09395 -0.08245,-0.21238 -0.16145,-0.28848c-0.13508,-0.10523 -0.17945,-0.23935 -0.24805,-0.38025c-0.03811,-0.07828 -0.0596,-0.16547 -0.12335,-0.21021c-0.19883,-0.14999 -0.27231,-0.38695 -0.37138,-0.59044c-0.03811,-0.07828 -0.0596,-0.16542 -0.12333,-0.21023c-0.16693,-0.12761 -0.2342,-0.3087 -0.31802,-0.4809c-0.13722,-0.28177 -0.39077,-0.50109 -0.51132,-0.79175c-0.00625,-0.05588 -0.07895,-0.07609 -0.11848,-0.11411z" fill="#87d7dc"/><path d="M169.29656,224.77032c0.03947,0.03804 0.11225,0.05825 0.13512,0.10523c0.12059,0.29066 0.35752,0.51893 0.51135,0.79176c0.08383,0.17218 0.15107,0.3533 0.31801,0.4809c0.06374,0.04479 0.08523,0.13197 0.12335,0.21018c0.0991,0.20347 0.18914,0.43155 0.37135,0.59049c0.06374,0.04478 0.06862,0.14089 0.12336,0.21021c0.0686,0.14087 0.12958,0.26611 0.24805,0.38025c0.07897,0.07608 0.11571,0.19461 0.16145,0.28851c0.10809,0.1789 0.14969,0.39349 0.33328,0.51218c0.03186,0.02241 0.05473,0.06936 0.06998,0.10066c0.12543,0.38676 0.40051,0.69332 0.62569,1.02657c0.20996,0.30199 0.33674,0.6485 0.54804,0.91027c0.21894,0.27737 0.31251,0.64176 0.59796,0.88349c0.02423,0.00675 0.02286,0.04699 0.03811,0.07829c0.0991,0.20347 0.18917,0.43152 0.38802,0.58155c0.1178,0.37113 0.40327,0.61285 0.58755,0.94831c0.14481,0.2974 0.36515,0.53457 0.55981,0.80525c0.01524,0.03131 0.03954,0.03804 0.05475,0.06935c0.11917,0.33089 0.41364,0.54805 0.53284,0.87897c0.06722,0.18108 0.21893,0.27741 0.3118,0.425c0.27992,0.40262 0.5176,0.84765 0.85637,1.19896c0.00762,0.01567 0.03189,0.02239 0.03189,0.02239c0.1386,0.24153 0.21828,0.53441 0.45662,0.72243c-0.12815,0.1674 -0.32492,0.19393 -0.46831,0.33003c-0.13299,0.07132 -0.26602,0.14259 -0.42817,0.11108c-0.04575,-0.09395 -0.08245,-0.21238 -0.16145,-0.28846c-0.27644,-0.26629 -0.41986,-0.60396 -0.6132,-0.91485c-0.19331,-0.31086 -0.46976,-0.57715 -0.58756,-0.94827c-0.19883,-0.14999 -0.2647,-0.37131 -0.38802,-0.58154c-0.01524,-0.03131 -0.03811,-0.07827 -0.06998,-0.10066c-0.15174,-0.09632 -0.19468,-0.27065 -0.27992,-0.40264c-0.03811,-0.07828 -0.07625,-0.15652 -0.12334,-0.21021c-0.25083,-0.2998 -0.49265,-0.62411 -0.66795,-0.98415c-0.02284,-0.04698 -0.03672,-0.11851 -0.08522,-0.13195c-0.15932,-0.11193 -0.21895,-0.27737 -0.29518,-0.43391c-0.06722,-0.18108 -0.25985,-0.27522 -0.33465,-0.47198c-0.10533,-0.25936 -0.3028,-0.44958 -0.45799,-0.68219c-0.20096,-0.32654 -0.46074,-0.60175 -0.63604,-0.96178c-0.03047,-0.06262 -0.05196,-0.1498 -0.10811,-0.17891c-0.12746,-0.08959 -0.17945,-0.23932 -0.26466,-0.37129c-0.06097,-0.12522 -0.13857,-0.24151 -0.22517,-0.3333c-0.16559,-0.16785 -0.29794,-0.35348 -0.40468,-0.57261c-0.17668,-0.31979 -0.45315,-0.5861 -0.57094,-0.95718c-0.01524,-0.03131 -0.0547,-0.06936 -0.06997,-0.10068c-0.20996,-0.30199 -0.43653,-0.595 -0.61317,-0.91481c-0.16768,-0.34435 -0.46839,-0.61741 -0.6028,-0.97961c-0.02284,-0.04698 -0.07899,-0.07608 -0.11848,-0.11411c-0.13234,-0.18565 -0.25567,-0.39588 -0.30487,-0.6261c0.07552,-0.06022 0.14199,-0.0959 0.20089,-0.14718c0.25565,-0.07785 0.47039,-0.15352 0.69417,-0.25375z" fill="#b0eef2"/><path d="M171.71554,213.5049c0.19466,0.27062 0.32563,0.49655 0.37346,0.76701c-0.07205,0.19655 -0.23204,0.34158 -0.38443,0.50222c-0.78486,0.7564 -1.57735,1.49713 -2.46408,2.13051c-0.66921,0.47724 -1.35504,0.96343 -2.07896,1.37132c-0.19951,0.10695 -0.42328,0.20722 -0.59995,0.36114c-0.07552,0.06022 -0.17529,0.1137 -0.27501,0.16718c-0.42954,0.15134 -0.81331,0.39659 -1.21997,0.5949c-0.57292,0.28747 -1.17634,0.51231 -1.79497,0.70581c-0.31312,0.08894 -0.61867,0.19353 -0.94078,0.30704c-0.248,0.09346 -0.49325,0.10655 -0.73088,0.13526c-0.25358,-0.21937 -0.32354,-0.32 -0.47322,-0.7135c0.37336,-0.18048 0.76827,-0.27376 1.15691,-0.4229c0.37201,-0.14024 0.76064,-0.2894 1.12506,-0.4453c0.38101,-0.16479 0.77106,-0.3542 1.14444,-0.53465c0.36439,-0.15588 0.69965,-0.41466 1.08698,-0.5236c0.32768,-0.2744 0.71632,-0.42353 1.07448,-0.63532c0.34154,-0.20285 0.69205,-0.43029 1.02598,-0.64881c0.35054,-0.22743 0.69343,-0.4705 1.053,-0.72248c0.32629,-0.23417 0.67682,-0.46157 0.9955,-0.71143c0.33528,-0.25873 0.63871,-0.53984 0.96639,-0.81424c0.3443,-0.28331 0.66296,-0.53311 0.96015,-0.87012z" fill="#d1eaeb"/><path d="M168.62664,225.03085c-0.05888,0.0513 -0.1254,0.08698 -0.20088,0.14719c0.04922,0.23024 0.1483,0.43369 0.30488,0.62611c0.03948,0.03805 0.09561,0.06718 0.11848,0.11412c0.13441,0.36218 0.41853,0.64417 0.60282,0.97961c0.16006,0.32872 0.40324,0.61284 0.61315,0.91484c0.01524,0.03131 0.05474,0.06937 0.06998,0.10066c0.11778,0.37112 0.40322,0.61285 0.57093,0.95722c0.0991,0.20347 0.23906,0.40479 0.40467,0.57261c0.09419,0.10737 0.17183,0.22369 0.22519,0.33329c0.0686,0.14087 0.11295,0.275 0.26469,0.37131c0.05608,0.02913 0.0776,0.11633 0.10807,0.17894c0.16768,0.34435 0.43514,0.63519 0.63606,0.96175c0.15518,0.23263 0.35268,0.42283 0.45799,0.6822c0.06722,0.18108 0.25982,0.27522 0.33465,0.47198c0.05959,0.16544 0.1268,0.34653 0.29515,0.43394c0.03948,0.03805 0.06236,0.08499 0.08523,0.13193c0.17528,0.36 0.40945,0.66872 0.66794,0.98415c0.05472,0.06937 0.07623,0.1565 0.12331,0.2102c0.0686,0.14087 0.12822,0.30631 0.27994,0.4026c0.03186,0.02241 0.05474,0.06934 0.06997,0.10065c0.0991,0.20347 0.18916,0.43155 0.38801,0.58155c0.1178,0.37111 0.39425,0.63742 0.58757,0.94826c0.19331,0.31086 0.34436,0.66413 0.61316,0.9148c0.07897,0.07609 0.1157,0.19459 0.16145,0.28849c-0.14203,0.09589 -0.28749,0.05546 -0.41151,0.10223c-0.40326,-0.61282 -0.8079,-1.18548 -1.19589,-1.76702c-0.43511,-0.63524 -0.84601,-1.26373 -1.26451,-1.90786c-0.39564,-0.5972 -0.80792,-1.18547 -1.22016,-1.77375c-0.5051,-0.7359 -1.01922,-1.44721 -1.51671,-2.16744c-0.37278,-0.55025 -0.74551,-1.1005 -1.13493,-1.64179c-0.58272,-0.8522 -1.10656,-1.75573 -1.72253,-2.59007c-0.07759,-0.1163 -0.18846,-0.21477 -0.20716,-0.3824c0.14963,-0.08026 0.32212,-0.1135 0.48703,-0.16243c0.09838,-0.01329 0.23275,-0.12481 0.40391,-0.11788z" fill="#87d7dc"/><path d="M177.31948,237.54332c0.3339,-0.21852 0.68169,-0.36551 1.00794,-0.59968c0.36856,-0.27656 0.72945,-0.5688 1.04465,-0.95489c0.44209,0.90786 0.87654,1.80007 1.30338,2.67663c-0.09903,0.27025 -0.28471,0.44873 -0.44612,0.63398c-0.3138,0.34591 -0.68097,0.58225 -1.06476,0.8275c-0.01665,0.00893 -0.05748,0.01109 -0.08175,0.00436c0.1039,-0.17414 -0.00695,-0.2726 -0.1012,-0.38001c-0.23559,-0.26849 -0.45453,-0.54586 -0.59032,-0.86785c-0.03047,-0.06262 -0.06098,-0.12522 -0.1081,-0.17889c-0.24459,-0.24393 -0.38038,-0.56588 -0.5751,-0.83655c-0.11706,-0.15439 -0.21134,-0.26168 -0.38868,-0.32455z" fill="#61afb4"/><path d="M167.36352,223.08273c0.62764,-0.21809 1.20193,-0.54574 1.80671,-0.81081c0.27364,-0.12697 0.52442,-0.30094 0.77521,-0.47488c0.48357,-0.29874 1.01419,-0.54378 1.46725,-0.90515c0.18429,-0.13827 0.36856,-0.27654 0.52858,-0.42156c0.10116,-0.09371 0.20987,-0.17176 0.32629,-0.23418c0.0395,0.038 0.07135,0.06043 0.0866,0.09177c0.06095,0.12522 0.12197,0.25042 0.18295,0.37563c-0.06025,0.09153 -0.11155,0.15848 -0.17941,0.23437c-0.50706,0.50874 -1.03079,1.02645 -1.67924,1.37412c-0.55768,0.31877 -1.13192,0.6464 -1.72013,0.90258c-0.46417,0.20941 -0.9207,0.43444 -1.42919,0.5097c0.06787,-0.0759 0.19051,-0.08242 0.21125,-0.21198c-0.05059,-0.19 -0.09979,-0.42024 -0.37691,-0.42958z" fill="#61aeb3"/><path d="M168.27321,223.91752c0.26741,-0.18286 0.57916,-0.23155 0.86942,-0.36746c0.60619,-0.30529 1.21236,-0.61053 1.79565,-0.96278c0.46691,-0.28981 0.88672,-0.63337 1.27466,-0.99928c0.10116,-0.09371 0.20226,-0.18741 0.3034,-0.28112c0.10672,0.21914 0.19822,0.40697 0.29727,0.61047c-0.10805,0.2948 -0.31938,0.50678 -0.56249,0.6964c-0.28539,0.23201 -0.58744,0.47287 -0.91234,0.66682c-0.71771,0.46374 -1.46452,0.82469 -2.22032,1.21022c-0.13299,0.07131 -0.26603,0.14264 -0.42053,0.12677c-0.03811,-0.07828 -0.05962,-0.16543 -0.12335,-0.21021c-0.14272,-0.12086 -0.21759,-0.31763 -0.30141,-0.48977z" fill="#61aeb3"/><path d="M177.31948,237.54334c0.15313,0.0561 0.26395,0.15457 0.35681,0.30218c0.19468,0.27064 0.3305,0.59266 0.5751,0.83653c0.04712,0.05371 0.07763,0.11631 0.10811,0.17894c0.16009,0.32871 0.37137,0.59044 0.59032,0.86784c0.08661,0.09177 0.2051,0.20586 0.10119,0.38003c-0.24179,0.14937 -0.48978,0.24288 -0.74402,0.2805c-0.15662,-0.1924 -0.3298,-0.37589 -0.40326,-0.61284c-0.01524,-0.03131 -0.05473,-0.06936 -0.06998,-0.10066c-0.20231,-0.2863 -0.41227,-0.58828 -0.59797,-0.8835c-0.08522,-0.13195 -0.14618,-0.25719 -0.24804,-0.38025c-0.13369,-0.14545 -0.24182,-0.32437 -0.24252,-0.54112c0.07552,-0.06021 0.142,-0.09588 0.2009,-0.14717c0.11638,-0.06238 0.25703,-0.11808 0.37337,-0.18047z" fill="#87d7dc"/><path d="M164.09151,215.24372c0.30625,0.11215 0.51129,0.31798 0.69978,0.53283c0.04712,0.0537 0.09284,0.14763 0.10672,0.21914c0.08803,0.52524 0.24255,1.01485 0.41371,1.49551c0.00762,0.01567 0.00624,0.05586 -0.00276,0.08045c-0.04366,0.08262 -0.12676,0.12722 -0.23275,0.12482c-0.01524,-0.03131 -0.04715,-0.0537 -0.06238,-0.085c-0.16626,-0.38458 -0.38247,-0.74243 -0.67415,-1.04004c-0.14134,-0.16109 -0.22519,-0.33329 -0.23352,-0.56569c0.00069,-0.25697 -0.04855,-0.48718 -0.01461,-0.76202z" fill="#cce5e6"/><path d="M164.24486,218.14212c-0.07687,0.10045 -0.15101,0.12045 -0.22375,0.10024c-0.39909,-0.73352 -0.39911,-0.73349 -0.98525,-1.24828c-0.09633,-0.28394 -0.10952,-0.61241 -0.14831,-0.90744c0.10116,-0.09371 0.16347,-0.0087 0.2196,0.02043c0.20022,0.10977 0.39284,0.20392 0.56743,0.34719c0.11088,0.0985 0.18082,0.19917 0.20854,0.34217c0.0908,0.44484 0.20583,0.89634 0.36172,1.34572z" fill="#cce5e6"/><path d="M176.92948,237.7327c-0.05889,0.05131 -0.12542,0.08698 -0.20089,0.14718c0.0007,0.21676 0.10879,0.39566 0.24253,0.54113c0.10187,0.12305 0.16284,0.24826 0.24805,0.38026c0.1857,0.29523 0.39563,0.59719 0.59795,0.8835c0.01524,0.03131 0.05475,0.06936 0.06997,0.10067c0.09771,0.2437 0.26326,0.41155 0.40323,0.61284c-0.14824,0.04003 -0.27991,0.0711 -0.45864,0.0485c-0.26329,-0.41153 -0.56749,-0.82092 -0.82179,-1.25701c-0.26329,-0.41153 -0.59307,-0.78741 -0.82176,-1.25699c0.27363,-0.12697 0.50364,-0.17134 0.74126,-0.20009z" fill="#60adb2"/><path d="M169.08945,217.49879c0.05888,-0.05131 0.10117,-0.09371 0.16003,-0.14502c0.04851,0.01347 0.07272,0.02023 0.09696,0.02695c0.19608,0.23042 0.43443,0.41848 0.68935,0.59761c0.10323,0.08283 0.16561,0.16785 0.16908,0.30414c0.02357,0.26372 0.08805,0.52523 -0.03664,0.82898c-0.29859,-0.09653 -0.53694,-0.28456 -0.75864,-0.48152c-0.0395,-0.038 -0.06094,-0.12524 -0.07483,-0.19673c-0.08733,-0.30846 -0.17466,-0.61703 -0.24533,-0.93443z" fill="#cce5e6"/><path d="M167.39386,213.41383c0.14272,0.12084 0.23832,0.18806 0.34158,0.2709c0.18222,0.15893 0.29029,0.33783 0.29727,0.61046c0.03327,0.45588 0.12412,0.90072 0.31465,1.29203c0.06096,0.12522 0.05195,0.14978 -0.15517,0.24114c-0.02286,-0.04696 -0.06238,-0.08499 -0.08523,-0.13199c-0.17392,-0.40023 -0.40672,-0.74914 -0.68941,-1.07133c-0.06234,-0.08503 -0.11709,-0.15436 -0.12199,-0.25045c0.01866,-0.30612 0.00413,-0.59439 0.09834,-0.96072z" fill="#cae2e3"/><path d="M166.21438,217.10588c-0.02422,-0.00675 -0.05617,-0.02914 -0.06374,-0.04479c-0.14205,-0.37781 -0.37624,-0.68652 -0.61944,-0.97071c-0.21894,-0.27737 -0.36377,-0.57481 -0.3423,-0.96133c0.01455,-0.18544 -0.05271,-0.36652 0.00274,-0.55417c0.42608,0.18606 0.67551,0.52609 0.72681,0.93285c0.07278,0.49396 0.12132,0.98114 0.35899,1.42618c0.00625,0.05588 0.03671,0.11849 -0.06303,0.17198z" fill="#c9e1e2"/><path d="M166.23769,214.05348c0.28821,0.16131 0.46142,0.34476 0.64224,0.54391c0.05472,0.06937 0.09283,0.14761 0.09008,0.22807c0.06379,0.51853 0.16844,1.03483 0.30632,1.53333c0.01524,0.03131 0.02149,0.08716 -0.06927,0.11609c-0.05334,-0.10956 -0.11431,-0.23477 -0.1843,-0.33545c-0.16905,-0.30414 -0.35476,-0.59936 -0.59935,-0.84327c-0.17325,-0.18347 -0.25566,-0.39588 -0.23074,-0.64612c0.01455,-0.18544 0.03665,-0.35525 0.04497,-0.59658z" fill="#c9e1e2"/><path d="M170.06068,216.78066c0.06168,-0.13175 0.14481,-0.17634 0.22791,-0.2209c0.02422,0.00674 0.05615,0.02913 0.08035,0.03588c0.1552,0.23263 0.3693,0.41393 0.61803,0.53716c0.1441,0.08065 0.2217,0.19696 0.24041,0.36459c0.01735,0.20782 0.05895,0.4224 0.03542,0.63244c-0.25147,-0.04282 -0.58961,-0.17736 -0.68383,-0.28478c-0.07137,-0.06041 -0.06862,-0.14086 -0.09006,-0.22806c-0.14619,-0.25718 -0.21691,-0.5746 -0.42819,-0.83631z" fill="#cae3e4"/><path d="M164.87763,220.86249c0.0443,-0.33956 0.03877,-0.65243 0.00895,-0.97203c0.08449,-0.08476 0.15104,-0.12048 0.25703,-0.11809c0.22032,0.23715 0.34709,0.58372 0.58407,0.81198c0.00069,0.21675 -0.08657,0.38198 -0.14195,0.56961c-0.03599,0.09824 -0.04777,0.20324 -0.15654,0.28131c-0.2321,-0.13217 -0.33741,-0.39153 -0.5515,-0.57284z" fill="#c8e0e1"/><path d="M167.1796,218.7005c0.15724,-0.06458 0.20436,-0.01088 0.25148,0.04281c0.18086,0.19915 0.35403,0.38261 0.51827,0.59065c0.04713,0.05371 0.07762,0.1163 0.07486,0.19676c-0.03255,0.23455 -0.08173,0.47807 -0.1551,0.71484c-0.12884,-0.04936 -0.19123,-0.13436 -0.28684,-0.20154c-0.2868,-0.20152 -0.43303,-0.45868 -0.33886,-0.82504c0.0388,-0.17873 -0.00418,-0.35308 -0.0638,-0.51851z" fill="#cbe4e5"/><path d="M166.13212,219.26212c0.08311,-0.04459 0.13299,-0.07133 0.18287,-0.09808c0.03186,0.02241 0.07274,0.02025 0.08036,0.03587c0.11706,0.15439 0.21759,0.31762 0.33467,0.47197c0.06235,0.08504 0.08383,0.1722 0.07206,0.2772c-0.03529,0.31501 -0.09488,0.62332 -0.2043,0.95835c-0.18499,-0.07845 -0.27019,-0.21043 -0.35542,-0.34238c-0.03045,-0.0626 -0.06096,-0.12525 -0.0506,-0.18998c0.09418,-0.36635 0.04152,-0.7329 -0.05966,-1.11292z" fill="#c8e0e1"/><path d="M168.27319,223.91751c0.08383,0.17218 0.15868,0.36896 0.32568,0.49655c0.06374,0.04478 0.08518,0.13196 0.12332,0.21021c-0.27502,0.16719 -0.5639,0.26288 -0.86666,0.287c-0.07344,-0.23697 -0.24666,-0.42044 -0.37138,-0.59043c0.07826,-0.14067 0.21753,-0.15612 0.30201,-0.24089c0.14203,-0.09589 0.31592,-0.16937 0.48702,-0.16244z" fill="#85d5d9"/><path d="M169.03094,213.50334c0.0312,0.27938 0.06242,0.55872 0.11784,0.84484c0.05683,0.2459 0.31179,0.42501 0.17669,0.79352c-0.25915,-0.53217 -0.6042,-0.93939 -0.94923,-1.34656c-0.00069,-0.21675 0.00757,-0.45807 0.10527,-0.68809c0.04851,0.01347 0.07275,0.02022 0.09697,0.02694c0.15933,0.11194 0.3021,0.23283 0.45241,0.36932z" fill="#c6dede"/><path d="M163.6758,214.99285c0.01319,0.32853 0.02777,0.61674 0.04096,0.94528c-0.17873,-0.02262 -0.28962,-0.12108 -0.41845,-0.17041c-0.13649,-0.06496 -0.29861,-0.09653 -0.41706,-0.21065c-0.05334,-0.10956 -0.03259,-0.23915 -0.02846,-0.35978c0.00413,-0.12065 0.02495,-0.25024 0.06233,-0.38874c0.2785,-0.03089 0.50296,0.08566 0.76072,0.18434z" fill="#cae3e3"/><path d="M163.19602,218.74396c-0.34506,-0.40718 -0.652,-0.7361 -1.05106,-0.99584c-0.03257,-0.23918 -0.08178,-0.46938 -0.12197,-0.72417c0.27713,0.00932 0.45173,0.15258 0.65191,0.26236c0.03186,0.02241 0.05473,0.06938 0.06996,0.10066c0.14066,0.41805 0.28136,0.83613 0.45113,1.35699z" fill="#cae3e4"/><path d="M168.96636,219.65717c-0.28821,-0.1613 -0.53557,-0.32477 -0.53835,-0.71805c-0.00695,-0.27263 -0.10465,-0.51636 -0.20236,-0.76004c-0.04574,-0.09394 0.02975,-0.15414 0.14477,-0.17634c0.08872,0.26825 0.28618,0.45851 0.48364,0.64872c0.15035,0.1365 0.18571,0.29521 0.17117,0.48067c-0.00554,0.16087 0.02979,0.3196 -0.05887,0.52506z" fill="#c8e0e1"/><path d="M167.36351,223.08272c0.28475,0.02499 0.32629,0.23955 0.40114,0.43631c-0.02077,0.12954 -0.13575,0.15176 -0.21123,0.21197c-0.22375,0.10023 -0.45377,0.14458 -0.69905,0.15765c-0.06722,-0.18108 -0.21755,-0.31762 -0.21065,-0.5187c0.07552,-0.06022 0.12541,-0.08698 0.19189,-0.12263c0.18152,-0.05786 0.363,-0.11572 0.5279,-0.16462z" fill="#85d4d9"/><path d="M167.1527,220.19534c0.21409,0.18131 0.37968,0.34912 0.56191,0.50804c-0.0658,0.25241 -0.15581,0.49808 -0.27778,0.72137c-0.13164,0.03111 -0.21061,-0.04499 -0.29096,-0.08085c-0.08037,-0.03586 -0.16072,-0.07173 -0.19743,-0.19022c0.04158,-0.25915 0.11773,-0.57633 0.20429,-0.95835z" fill="#c7dfe0"/><path d="M170.13647,219.56279c-0.04018,0.21895 -0.06372,0.42893 -0.16137,0.65898c-0.26812,-0.03389 -0.44269,-0.17715 -0.65817,-0.31824c0.02493,-0.25023 0.04982,-0.50047 0.06713,-0.76639c0.27297,0.13 0.48848,0.27112 0.7524,0.42566z" fill="#c8e0e1"/><path d="M164.22996,214.06401c0.194,0.05393 0.38796,0.10783 0.55494,0.23544c0.00695,0.27263 -0.00273,0.55417 -0.00479,0.85135c-0.03323,0.01781 -0.06649,0.03564 -0.07412,0.01998c-0.16835,-0.08739 -0.34431,-0.19042 -0.49605,-0.28672c-0.06374,-0.04479 -0.11089,-0.09847 -0.10049,-0.16325c0.00831,-0.24132 -0.03328,-0.4559 0.12049,-0.65683z" fill="#c4dcdd"/><path d="M167.01008,213.18534c-0.03392,0.2748 -0.05124,0.54069 -0.08516,0.81551c-0.15586,0.02434 -0.21683,-0.10087 -0.31245,-0.16806c-0.0956,-0.06716 -0.18223,-0.15892 -0.28545,-0.24173c-0.00832,-0.2324 0.09701,-0.44674 0.15378,-0.67464c0.23621,0.01151 0.37896,0.13239 0.52928,0.26892z" fill="#c8e0e1"/><path d="M170.56381,219.23497c0.0097,-0.28155 0.01037,-0.53856 0.01243,-0.83572c0.22724,0.03605 0.39421,0.16371 0.60484,0.20869c0.04017,0.2548 -0.05747,0.48483 -0.09904,0.74396c-0.212,-0.00477 -0.38311,-0.01171 -0.51818,-0.11695z" fill="#c6ddde"/><path d="M170.96956,215.97752c0.29586,0.17696 0.52381,0.42976 0.85426,0.54868c0.04161,0.21458 0.09218,0.40461 0.05963,0.63918c-0.25285,-0.0026 -0.43787,-0.08107 -0.51893,-0.33367c-0.08731,-0.30847 -0.25776,-0.57241 -0.39498,-0.85418z" fill="#b9cfd0"/><path d="M162.15825,219.02401c-0.12261,0.00651 -0.1109,-0.09847 -0.15797,-0.15216c-0.10184,-0.12305 -0.18706,-0.25497 -0.33259,-0.29544c-0.21685,-0.10088 -0.28409,-0.28193 -0.34228,-0.48762c-0.02147,-0.0872 -0.02635,-0.18328 -0.04645,-0.31067c0.3,0.05627 0.54248,0.12369 0.62079,0.45672c0.04923,0.23023 0.17254,0.44047 0.255,0.65286c0.02284,0.04697 0.04574,0.09393 0.00347,0.13631z" fill="#c0d8d8"/><path d="M164.29579,221.64818c-0.15174,-0.09632 -0.24595,-0.20369 -0.30693,-0.32889c-0.03045,-0.0626 -0.06864,-0.14087 -0.05823,-0.20565c0.05056,-0.28373 0.0436,-0.55634 0.03665,-0.82898c0.11638,-0.06238 0.13023,0.00913 0.15313,0.0561c0.07623,0.15654 0.16009,0.32871 0.26955,0.4674c0.13233,0.18566 0.15106,0.35328 0.03815,0.55201c-0.06026,0.09154 -0.08728,0.16524 -0.13228,0.28803z" fill="#c1d9d9"/><path d="M168.87699,220.11964c-0.01591,0.22564 -0.08798,0.42221 -0.14475,0.65004c-0.22861,0.00415 -0.36229,-0.14131 -0.5307,-0.22869c0.01729,-0.2659 0.13157,-0.50482 0.21401,-0.76615c0.1926,0.09415 0.31872,0.22393 0.46146,0.34479z" fill="#c3dbdc"/><path d="M165.79706,214.52663c-0.2065,-0.16564 -0.3887,-0.3246 -0.58754,-0.47459c-0.00213,-0.17654 0.00345,-0.33741 0.10733,-0.51157c0.21063,0.045 0.36996,0.15696 0.54597,0.25997c0.03256,0.23917 0.01668,0.46478 -0.06574,0.72612z" fill="#c3dadb"/><path d="M167.74788,221.63305c0.09768,-0.23003 0.18633,-0.43546 0.27498,-0.64091c0.21961,0.02042 0.37896,0.13237 0.5383,0.24433c-0.04777,0.20328 -0.12742,0.38416 -0.24796,0.56717c-0.06512,-0.00458 -0.1545,-0.01589 -0.20297,-0.02933c-0.12885,-0.04934 -0.21684,-0.10085 -0.36235,-0.14132z" fill="#c4dbdc"/><path d="M163.12486,220.5784c0.14482,0.29744 0.25915,0.53225 0.38114,0.78263c-0.02978,0.15416 -0.09145,0.28591 -0.2182,0.41305c-0.13784,-0.0248 -0.15796,-0.15218 -0.23694,-0.22828c-0.07898,-0.07607 -0.14134,-0.16109 -0.17948,-0.23934c0.09004,-0.24572 0.16207,-0.44224 0.25351,-0.72811z" fill="#c2d9da"/><path d="M162.98645,214.39518c0.00554,-0.16087 0.04289,-0.29937 0.11218,-0.41547c0.12538,-0.08696 0.23766,-0.02867 0.34362,-0.02632c0.10595,0.00236 0.21336,-0.03546 0.31659,0.04738c0.04298,0.17436 -0.00482,0.37763 -0.03733,0.61224c-0.12128,-0.03369 -0.24252,-0.06738 -0.35612,-0.08543c-0.12884,-0.04936 -0.25772,-0.09867 -0.37898,-0.13237z" fill="#c5ddde"/><path d="M169.83867,220.63047c-0.00692,0.20113 -0.11705,0.3194 -0.17107,0.46679c-0.221,0.01977 -0.40599,-0.05869 -0.61524,-0.14387c0.05538,-0.18762 0.11083,-0.37525 0.14962,-0.554c0.25285,0.00262 0.42748,0.14587 0.63668,0.23108z" fill="#c3dbdc"/><path d="M162.56267,216.75431c-0.0894,-0.01128 -0.13786,-0.02473 -0.18636,-0.0382c-0.1046,-0.0426 -0.21686,-0.10087 -0.34572,-0.15022c0.0097,-0.28155 -0.03053,-0.53634 0.06851,-0.80659c0.13164,-0.03111 0.21963,0.02041 0.33949,0.09433c0.04783,0.27044 0.09425,0.58112 0.12412,0.9007z" fill="#c7dfe0"/><path d="M166.48283,221.40333c-0.10528,0.21436 -0.12883,0.42435 -0.27361,0.60069c-0.19538,-0.01371 -0.29583,-0.17694 -0.45795,-0.20845c0.05057,-0.28373 0.15581,-0.49809 0.24587,-0.74377c0.23489,0.05173 0.31869,0.2239 0.48571,0.3515z" fill="#c7dee0"/><path d="M167.77863,224.06424c-0.0845,0.08479 -0.22377,0.10021 -0.30202,0.2409c0.13233,0.18566 0.2889,0.37805 0.37137,0.59044c-0.07414,0.02001 -0.16488,0.04891 -0.24661,0.0533c-0.12261,0.00651 -0.22722,-0.0361 -0.28062,-0.14566c-0.10808,-0.17889 -0.20857,-0.34215 -0.31664,-0.52111c0.21615,-0.1159 0.32353,-0.15373 0.77453,-0.21788z" fill="#61acb1"/><path d="M168.17457,212.77811c-0.04018,0.21895 -0.07895,0.3976 -0.13575,0.62548c-0.19884,-0.15 -0.39005,-0.28432 -0.57228,-0.44324c0.02213,-0.16978 0.05195,-0.32393 0.12258,-0.48026c0.23488,0.05174 0.39419,0.16368 0.58543,0.29802z" fill="#c2dada"/><path d="M164.54659,221.94798c0.04018,-0.21895 0.12745,-0.38416 0.21614,-0.58963c0.17324,0.18347 0.33119,0.33566 0.48917,0.48786c0.00212,0.17654 -0.09143,0.2859 -0.18633,0.43546c-0.20298,-0.02933 -0.33675,-0.17478 -0.51893,-0.33367z" fill="#c1d9d9"/><path d="M165.98402,213.36043c-0.22586,-0.07631 -0.38658,-0.14804 -0.56396,-0.21088c-0.02634,-0.18327 0.05331,-0.36416 0.13299,-0.54505c0.18772,-0.00194 0.36647,0.02065 0.54247,0.12368c0.04159,0.21458 -0.08659,0.382 -0.11148,0.63225z" fill="#c6dedf"/><path d="M170.96989,219.76734c-0.04777,0.20326 -0.11984,0.39982 -0.17522,0.58744c-0.15724,0.06458 -0.28749,0.05546 -0.44063,-0.00063c-0.03256,-0.23917 0.09701,-0.44675 0.12952,-0.68136c0.18013,-0.01764 0.31659,0.04739 0.48634,0.09454z" fill="#c0d7d7"/><path d="M161.66071,216.88257c0.01734,0.20782 0.09216,0.40459 0.01879,0.64136c-0.15313,-0.0561 -0.29863,-0.09655 -0.4441,-0.13695c-0.09144,-0.18782 -0.08453,-0.38892 -0.0125,-0.58544c0.15586,-0.02434 0.27709,0.00934 0.43783,0.08104z" fill="#c3dadb"/><path d="M166.85222,223.23843c-0.06651,0.03565 -0.1254,0.087 -0.1919,0.12267c-0.00691,0.20113 0.14339,0.33763 0.21065,0.5187c-0.10876,0.07805 -0.22101,0.01978 -0.345,0.06654c-0.16558,-0.16784 -0.20721,-0.3824 -0.42266,-0.52348c0.15864,-0.10478 0.28124,-0.11133 0.42053,-0.12679c0.09838,-0.0133 0.19954,-0.10696 0.32836,-0.05762z" fill="#5aa0a4"/><path d="M172.60259,216.66131c0.01733,0.20781 0.09218,0.40463 0.02778,0.6168c-0.13164,0.03111 -0.22865,0.00413 -0.37413,-0.03625c-0.05059,-0.19003 -0.06793,-0.39785 -0.03679,-0.59222c0.13165,-0.0311 0.22101,-0.01979 0.3831,0.01173z" fill="#bdd3d4"/><path d="M168.72058,221.82211c0.07066,-0.15633 0.1247,-0.30372 0.1787,-0.45111c0.18774,-0.00195 0.34087,0.05412 0.50159,0.12584c0.01108,0.15195 -0.09004,0.24572 -0.20641,0.30809c-0.14962,0.08026 -0.29924,0.16047 -0.47387,0.01721z" fill="#bdd4d5"/><path d="M169.81999,213.09999c0.00832,0.23239 0.00904,0.44917 0.01738,0.68154c-0.32632,-0.23954 -0.55425,-0.49239 -0.3513,-0.93677c0.13784,0.0248 0.21546,0.1411 0.33392,0.25522z" fill="#bbd2d3"/><path d="M166.99906,222.29116c-0.16348,0.00868 -0.27574,-0.04957 -0.38797,-0.10785c-0.05334,-0.10956 0.01455,-0.18546 0.05058,-0.28373c0.02701,-0.07369 0.04639,-0.16304 0.13856,-0.23218c0.16348,-0.00868 0.23971,0.1478 0.41083,0.15474c-0.03114,0.19437 -0.1094,0.33503 -0.21191,0.46896z" fill="#c3dadb"/><path d="M166.56625,216.83824c-0.1039,-0.2996 -0.20788,-0.59915 -0.24531,-0.9344c0.10737,-0.03782 0.16216,0.03151 0.20021,0.10979c0.1157,0.19458 0.21479,0.39801 0.30626,0.58586c0.0686,0.14087 -0.01591,0.2257 -0.26115,0.23873z" fill="#b1c6c7"/><path d="M171.9328,219.29051c-0.02775,-0.14302 0.04916,-0.24349 0.07755,-0.3574c0.04017,-0.21896 0.18218,-0.31482 0.41984,-0.34354c0.00694,0.27263 -0.12399,0.52048 -0.22925,0.73483c-0.12402,0.04675 -0.18915,0.0422 -0.26812,-0.03389z" fill="#bbd2d3"/><path d="M168.71794,215.48715c-0.21134,-0.26176 -0.22451,-0.59023 -0.26197,-0.92549c0.20649,0.16564 0.32078,0.40045 0.44412,0.61066c0.08523,0.13196 0.05061,0.19004 -0.18217,0.31481z" fill="#bad1d2"/><path d="M171.96514,215.73982c0.17735,0.06283 0.33948,0.09436 0.51681,0.15716c0.02148,0.08719 0.02496,0.2235 0.04506,0.35089c-0.33739,0.08221 -0.34501,0.06655 -0.42748,-0.14587c-0.05333,-0.10957 -0.09007,-0.22807 -0.13442,-0.36219z" fill="#b5cbcc"/><path d="M164.64901,212.55629c0.18912,-0.04216 0.32702,-0.01743 0.46486,0.00736c0.01873,0.16764 -0.08383,0.30154 -0.15444,0.45786c-0.1545,-0.01582 -0.29232,-0.04066 -0.44683,-0.05651c-0.05197,-0.14978 0.08238,-0.26133 0.13645,-0.40875z" fill="#c0d7d8"/><path d="M171.55303,217.52023c0.11499,-0.02215 0.21963,0.0204 0.33189,0.07866c0.0492,0.23024 0.01668,0.46482 -0.06438,0.68592c-0.10876,0.07805 -0.16488,0.04892 -0.23621,-0.01151c-0.01599,-0.24803 -0.03193,-0.49612 -0.03123,-0.75309z" fill="#bdd4d4"/><path d="M168.24457,212.40501c-0.16835,-0.08739 -0.3277,-0.19933 -0.49606,-0.28672c0.02841,-0.11392 0.09629,-0.18982 0.19603,-0.24332c0.11498,-0.02216 0.18635,0.03823 0.27433,0.08975c0.06374,0.04479 0.12748,0.08956 0.19123,0.13435c-0.00414,0.12068 -0.04016,0.21895 -0.16557,0.30592z" fill="#b6cccc"/><path d="M164.81676,213.84812c-0.17734,-0.06284 -0.33046,-0.11891 -0.52447,-0.17282c-0.02912,-0.10281 -0.02498,-0.22351 0.1018,-0.3507c0.15451,0.01582 0.3166,0.04736 0.49533,0.06997c-0.00554,0.16087 -0.00204,0.2972 -0.07271,0.45353z" fill="#c1d9d9"/><path d="M169.14579,212.53371c-0.00554,0.16087 -0.02628,0.29048 -0.10457,0.43112c-0.17735,-0.06283 -0.28683,-0.20156 -0.39768,-0.30001c-0.02775,-0.14302 0.05678,-0.22784 0.11705,-0.31937c0.0575,-0.01108 0.09076,-0.02892 0.09838,-0.0133c0.09558,0.06719 0.1912,0.13434 0.28683,0.20156z" fill="#b7cdce"/><path d="M170.68259,213.40734c-0.21685,-0.10089 -0.28545,-0.24173 -0.38732,-0.36479c-0.12611,-0.12978 -0.05683,-0.24588 0.02142,-0.38655c0.17735,0.06283 0.2792,0.18587 0.40669,0.27545c0.04296,0.17435 -0.10043,0.31047 -0.04083,0.47591z" fill="#b6cccc"/><path d="M172.63308,217.67145c-0.02215,0.16979 -0.04291,0.29935 -0.05606,0.44459c-0.14203,0.09589 -0.24179,0.14937 -0.39625,0.13351c0.03116,-0.19437 0.04569,-0.37982 0.06783,-0.5496c0.12674,-0.1272 0.23899,-0.06891 0.34637,-0.10678c0.01524,0.03131 0.04713,0.05371 0.03814,0.07826z" fill="#c2dada"/><path d="M163.92163,213.30159c0.00345,0.13629 -0.02353,0.21001 -0.09141,0.28591c-0.09216,0.06914 -0.18912,0.04217 -0.29512,0.03982c-0.0894,-0.01129 -0.21338,0.03546 -0.28336,-0.06521c0.03742,-0.13847 0.09904,-0.27022 0.23345,-0.38178c0.16212,0.03151 0.29098,0.08086 0.43649,0.12129z" fill="#bbd2d3"/><path d="M165.36756,222.5145c0.07826,-0.14066 0.13092,-0.24786 0.20017,-0.36395c0.16977,0.04716 0.29721,0.13675 0.44135,0.2174c-0.02077,0.12955 -0.07341,0.23679 -0.18982,0.29913c-0.04089,0.00219 -0.08175,0.00433 -0.11364,-0.01803c-0.09697,-0.02694 -0.20163,-0.06959 -0.3381,-0.13456z" fill="#bbd2d3"/><path d="M172.40637,215.48349c-0.28337,-0.0652 -0.28338,-0.0652 -0.49604,-0.28672c0.02216,-0.16981 0.14756,-0.25676 0.27432,-0.38392c0.15661,0.19241 0.17255,0.44044 0.22174,0.67068z" fill="#adc2c3"/><path d="M167.38845,222.35875c0.02077,-0.12955 0.09007,-0.2457 0.19881,-0.32371c0.16977,0.04716 0.31522,0.08754 0.4683,0.14367c-0.20642,0.30809 -0.22302,0.31701 -0.66713,0.18009z" fill="#b5cbcc"/><path d="M167.22823,212.29857c-0.02975,0.15416 -0.0582,0.26807 -0.13647,0.40873c-0.17108,-0.00695 -0.28959,-0.1211 -0.45034,-0.19283c0.01039,-0.06479 0.02839,-0.11389 0.04638,-0.16305c0.018,-0.04914 0.06025,-0.09153 0.0949,-0.1496c0.1725,-0.03327 0.30133,0.01607 0.44549,0.09672z" fill="#bbd1d2"/><path d="M164.01176,222.31371c-0.21962,-0.02042 -0.3277,-0.19934 -0.47182,-0.27996c0.01317,-0.14522 0.12191,-0.22332 0.19121,-0.33942c0.20023,0.10975 0.30969,0.24848 0.34365,0.44741c0.02285,0.04697 -0.02839,0.11392 -0.06302,0.17197z" fill="#b6cccd"/><path d="M161.71873,215.6671c-0.01729,0.2659 -0.05887,0.52505 -0.08378,0.77526c-0.12402,0.04674 -0.21335,0.03547 -0.33322,-0.03844c0.08238,-0.26133 0.16483,-0.52264 0.31998,-0.76377c0.04852,0.01349 0.07275,0.02022 0.09698,0.02694z" fill="#acc1c2"/><path d="M167.46535,215.36921c0.14897,0.17675 0.28131,0.36241 0.34712,0.58372c0.02147,0.0872 0.0021,0.17654 -0.08101,0.2211c-0.03322,0.0178 -0.115,0.02216 -0.12263,0.00651c-0.13095,-0.22587 -0.12891,-0.52306 -0.14349,-0.81133z" fill="#a7bbbb"/><path d="M166.41274,212.04489c0.01248,0.11176 -0.04777,0.20328 -0.12467,0.30371c-0.16212,-0.03151 -0.32424,-0.06304 -0.48635,-0.09454c0.00554,-0.16087 0.09767,-0.23001 0.21404,-0.2924c0.12261,-0.00651 0.26811,0.03388 0.39699,0.08326z" fill="#b7cdcd"/><path d="M170.03754,221.25418c0.00691,-0.20113 0.08521,-0.34175 0.18008,-0.49136c0.15586,-0.02434 0.28612,-0.01523 0.42121,0.08999c-0.15378,0.20089 -0.36094,0.29221 -0.60129,0.40138z" fill="#b7cece"/><path d="M162.39473,221.40415c-0.20786,-0.12543 -0.24042,-0.36456 -0.3998,-0.47649c0.02077,-0.12954 0.09491,-0.14957 0.15104,-0.12045c0.1441,0.08064 0.27923,0.18588 0.35541,0.3424c0.00624,0.05589 0.01384,0.07153 -0.10667,0.2546z" fill="#b4cacb"/><path d="M162.43712,215.42012c-0.12261,0.00653 -0.19536,-0.01368 -0.26674,-0.07409c0.04017,-0.21896 0.07272,-0.45352 0.2445,-0.70355c0.14619,0.25718 0.07276,0.49393 0.02223,0.77766z" fill="#b2c8c9"/><path d="M166.34578,222.54274c0.1545,0.01582 0.26811,0.03389 0.34709,0.10998c0.01386,0.07152 -0.02838,0.11395 -0.07066,0.15634c-0.16901,0.16957 -0.30552,0.10457 -0.46485,-0.00738c0.06787,-0.0759 0.12815,-0.16744 0.18841,-0.25895z" fill="#b5cbcb"/><path d="M169.75572,214.73336c-0.11571,-0.19457 -0.19955,-0.36672 -0.24112,-0.58129c0.07552,-0.0602 0.13162,-0.0311 0.1545,0.01585c0.06998,0.10067 0.15661,0.19243 0.22658,0.29307c0.06096,0.12522 0.0097,0.19217 -0.13993,0.27237z" fill="#91a3a3"/><path d="M163.28531,217.80784c0.20786,0.12543 0.29031,0.33783 0.38175,0.52567c0.01524,0.03131 -0.00276,0.08046 -0.0284,0.11392c-0.03323,0.01781 -0.09837,0.01329 -0.106,-0.00238c-0.15661,-0.19241 -0.22242,-0.41372 -0.24738,-0.63721z" fill="#99abac"/><path d="M162.74645,218.7679c-0.08589,0.12502 -0.16903,0.16957 -0.2404,0.10914c-0.08661,-0.09177 -0.12955,-0.26609 -0.16215,-0.50524c0.19263,0.09412 0.27645,0.26628 0.40253,0.39607z" fill="#93a5a6"/><path d="M171.55881,220.20164c0.04919,-0.24349 0.07408,-0.49374 0.43434,-0.52899c-0.04159,0.25915 -0.2577,0.37503 -0.43434,0.52899z" fill="#9aadad"/><path d="M169.93878,217.47767c-0.11087,-0.09849 -0.22932,-0.2126 -0.33257,-0.29546c0.01178,-0.10501 0.05402,-0.1474 0.16142,-0.18523c0.15176,0.09632 0.16148,0.28849 0.2467,0.42045c-0.03323,0.01781 -0.04989,0.02673 -0.07552,0.06024z" fill="#c5dddd"/><path d="M165.42733,216.73827c0.24872,0.12325 0.3478,0.32677 0.3804,0.56589c0.00762,0.01567 -0.01801,0.04916 -0.05126,0.06699c-0.04226,0.04239 -0.09837,0.01329 -0.11361,-0.01804c-0.10049,-0.16323 -0.14206,-0.37786 -0.21552,-0.61484z" fill="#aec2c3"/><path d="M164.38587,222.34998c0.17735,0.06283 0.30345,0.19259 0.42193,0.30676c-0.01176,0.105 -0.08592,0.12503 -0.14964,0.08025c-0.11988,-0.07393 -0.23209,-0.13219 -0.34293,-0.23067c-0.04852,-0.01349 -0.02148,-0.08716 0.07065,-0.15632z" fill="#9caeaf"/><path d="M165.37153,212.18864c-0.17252,0.03328 -0.30272,0.02415 -0.46486,-0.00738c0.18565,-0.17851 0.3914,-0.22961 0.59092,-0.33657c0.00625,0.0559 0.02147,0.0872 0.01245,0.11173c-0.04366,0.08262 -0.09489,0.14957 -0.13851,0.23219z" fill="#a9bebf"/><path d="M165.53354,219.58301c0.10116,-0.09371 0.17524,-0.1137 0.26467,-0.10239c0.09282,0.14762 0.11153,0.31522 0.02151,0.56093c-0.12472,-0.17002 -0.1933,-0.31089 -0.28618,-0.45849z" fill="#b9cfd0"/><path d="M170.56357,216.39257c0.01178,-0.105 0.07069,-0.15631 0.12954,-0.20763c0.09838,-0.01326 0.13649,0.06497 0.26953,0.46741c-0.24526,0.01306 -0.27922,-0.18587 -0.39907,-0.25979z" fill="#869797"/><path d="M164.445,217.30447c0.07208,0.27719 0.32843,0.41612 0.18711,0.72874c-0.18086,-0.19914 -0.25569,-0.39586 -0.18711,-0.72874z" fill="#93a4a5"/><path d="M170.24679,213.50278c0.11431,0.23477 0.19054,0.39133 0.26677,0.54784c0.01524,0.03131 -0.00276,0.08046 -0.05264,0.10716c-0.01665,0.00893 -0.05751,0.01108 -0.08176,0.00436c-0.12474,-0.16998 -0.2086,-0.34221 -0.13239,-0.65937z" fill="#94a5a6"/><path d="M171.24739,215.72985c0.0693,-0.11608 0.1115,-0.15849 0.22514,-0.14047c0.07759,0.1163 0.16284,0.24827 0.18918,0.43155c-0.21963,-0.02046 -0.29581,-0.17695 -0.4143,-0.29106z" fill="#abbfc0"/><path d="M170.04509,212.48579c-0.06787,0.07589 -0.09352,0.10936 -0.12679,0.1272c-0.2896,-0.12107 -0.28957,-0.12107 -0.34639,-0.36694c0.212,0.00477 0.28822,0.16127 0.47316,0.23976z" fill="#acc0c1"/><path d="M171.40912,219.33438c0.0388,-0.17873 0.0533,-0.36416 0.10872,-0.55178c0.02701,-0.07369 0.09354,-0.10933 0.18912,-0.04217c-0.04018,0.21895 -0.08796,0.4222 -0.29785,0.59394z" fill="#9fb2b2"/><path d="M167.37852,211.96132c-0.11365,-0.01805 -0.18636,-0.03828 -0.25771,-0.09868c0.00274,-0.08045 0.03738,-0.1385 0.1129,-0.19873c0.10738,-0.03781 0.21198,0.00479 0.3166,0.0474c0.01248,0.11176 -0.07966,0.18087 -0.17178,0.24998z" fill="#aec2c3"/><path d="M167.98807,218.68151c-0.17107,-0.00694 -0.22449,-0.11654 -0.29446,-0.21717c-0.02284,-0.04697 0.01177,-0.10497 0.06165,-0.13172c0.03323,-0.01781 0.0984,-0.01329 0.11361,0.01803c0.0956,0.06716 0.1081,0.17895 0.11917,0.33089z" fill="#91a2a3"/><path d="M164.14948,212.60697c-0.05332,0.36417 -0.06228,0.38875 -0.38516,0.28549c0.11778,-0.10261 0.19603,-0.2433 0.38516,-0.28549z" fill="#869696"/><path d="M161.80773,219.25143c-0.21062,-0.04501 -0.20646,-0.16563 -0.2432,-0.28415c0.18774,-0.00193 0.18774,-0.00193 0.2432,0.28415z" fill="#555f5f"/><path d="M168.79642,217.71513c0.03812,0.07827 0.09146,0.18781 0.09494,0.32415c-0.21824,-0.06065 -0.24871,-0.12325 -0.23559,-0.26846c0.00138,-0.04023 0.05127,-0.06699 0.14064,-0.05566z" fill="#93a5a6"/><path d="M171.00605,213.25364c0.25773,0.09868 0.25637,0.13889 0.01316,0.3285c-0.08661,-0.09177 -0.05824,-0.20565 -0.01316,-0.3285z" fill="#8b9b9c"/><path d="M161.19185,218.89079c0.1261,0.12979 0.17043,0.2639 0.21478,0.39809c-0.07687,0.10045 -0.14203,0.09587 -0.1725,0.03324c-0.06097,-0.12522 -0.10531,-0.25936 -0.04231,-0.4313z" fill="#9aacad"/><path d="M169.02734,211.94579c0.13784,0.0248 0.2605,0.01827 0.30486,0.1524c0.00761,0.01567 -0.00137,0.04023 -0.01799,0.04915c-0.16489,0.04892 -0.24389,-0.02717 -0.28684,-0.20154z" fill="#5f6a6b"/><path d="M166.81312,219.1536c-0.08037,-0.03586 -0.11088,-0.0985 -0.12472,-0.17003c0.00138,-0.04023 0.01939,-0.08935 0.06027,-0.09152c0.04089,-0.00219 0.0894,0.01129 0.10461,0.04262c0.03045,0.0626 0.04433,0.13412 -0.04017,0.21892z" fill="#636e6f"/><path d="M166.50563,211.71875c0.09353,-0.10934 0.18426,-0.13829 0.31175,-0.04873c-0.10252,0.13391 -0.19188,0.12265 -0.31175,0.04873z" fill="#4a5354"/></g><g data-paper-data="{&quot;index&quot;:null}" fill="#000000" stroke="#000000" stroke-width="1.2"><path d="M167.13397,240.68282c-1.21149,-1.41932 -0.97086,-4.75782 -1.70655,-6.93168c-0.79206,-2.34048 -2.45109,-3.38282 -2.06509,-4.97861c0.26963,-1.11464 1.6949,-1.81551 2.48003,-2.08121c1.90919,-0.64612 4.54749,2.05271 5.89282,6.02799c1.34533,3.97527 0.88824,7.72167 -1.02093,8.36778c-0.86514,0.29279 -2.57633,0.77188 -3.58026,-0.40424z"/><path d="M171.16932,241.59781c-1.67122,-1.99433 -2.6334,-7.91815 -2.6334,-7.91815c0,0 -2.26268,-3.21108 -2.28899,-3.29357c-1.67765,-5.25636 1.60895,-6.43309 5.36832,-7.70534c1.7892,-0.60552 4.786,-0.81115 6.31755,0.49384c1.73695,1.48 2.06999,4.25739 3.05774,7.17605c1.85866,5.49217 1.17395,10.92679 -2.64442,12.21901c-1.68082,0.56883 -4.94468,1.69179 -7.17679,-0.97186z"/></g></g><path d="M145.5207,229.01861c0,0 -10.24548,5.95088 -13.15646,6.44995c-2.42828,0.41632 -5.25553,-2.12495 -5.25553,-2.12495" fill="none" fill-rule="nonzero" stroke="#000000" stroke-width="3" stroke-linecap="round" stroke-linejoin="miter"/><g fill="#ff0000" fill-rule="nonzero" stroke="none" stroke-linecap="butt" stroke-linejoin="miter"><path d="M172.58271,258.56229c0.96377,0.65801 1.16898,2.03526 0.4583,3.07614c-0.71066,1.04089 -2.06807,1.35125 -3.03186,0.69323c-0.96379,-0.65802 -1.16896,-2.03526 -0.4583,-3.07614c0.71066,-1.04089 2.06807,-1.35125 3.03186,-0.69323z" stroke-width="NaN"/><path d="M178.06777,258.62293c0.88667,0.60538 1.09339,1.84618 0.46167,2.77141c-0.6317,0.92523 -1.86259,1.18452 -2.74927,0.57914c-0.88667,-0.60538 -1.09338,-1.84618 -0.46167,-2.77143c0.6317,-0.92523 1.86259,-1.18451 2.74926,-0.57913z" stroke-width="0"/><path d="M179.11195,263.83889c0.92523,0.6317 1.16319,1.89384 0.53147,2.81907c-0.6317,0.92523 -1.89384,1.16319 -2.81907,0.53147c-0.92523,-0.6317 -1.16319,-1.89385 -0.53148,-2.81907c0.6317,-0.92523 1.89385,-1.16318 2.81908,-0.53147z" stroke-width="0"/></g><g fill="#ff0000" fill-rule="nonzero" stroke="none" stroke-linecap="butt" stroke-linejoin="miter"><path d="M170.45242,250.45227c-0.73432,0.59251 -1.84837,0.42993 -2.48827,-0.36314c-0.63992,-0.79307 -0.56339,-1.91631 0.17094,-2.50882c0.73432,-0.59251 1.84836,-0.42992 2.48828,0.36314c0.63992,0.79307 0.56339,1.91629 -0.17095,2.5088z" stroke-width="NaN"/><path d="M169.12535,254.68424c-0.67557,0.54511 -1.68435,0.41555 -2.25317,-0.2894c-0.56881,-0.70495 -0.48226,-1.71833 0.19332,-2.26344c0.67557,-0.54511 1.68435,-0.41552 2.25316,0.2894c0.56881,0.70495 0.48226,1.71833 -0.19331,2.26343z" stroke-width="0"/><path d="M172.72023,254.24229c-0.76369,0.61622 -1.8247,0.56808 -2.3698,-0.10749c-0.54511,-0.67557 -0.36791,-1.72277 0.39577,-2.33899c0.76369,-0.61622 1.82471,-0.56808 2.36981,0.1075c0.54511,0.67557 0.3679,1.72277 -0.39579,2.33899z" stroke-width="0"/></g><g fill="#ff0000" fill-rule="nonzero" stroke="none" stroke-linecap="butt" stroke-linejoin="miter"><path d="M161.90813,265.61962c0.70938,0.92663 0.47316,2.29889 -0.52759,3.06501c-1.00076,0.76613 -2.38711,0.63602 -3.09649,-0.29061c-0.70938,-0.92663 -0.47316,-2.29889 0.5276,-3.06502c1.00076,-0.76613 2.3871,-0.63601 3.09648,0.29062z" stroke-width="NaN"/><path d="M167.09859,267.3941c0.65263,0.8525 0.46056,2.09565 -0.42902,2.77666c-0.88957,0.681 -2.13976,0.54197 -2.79239,-0.31053c-0.65263,-0.8525 -0.46055,-2.09566 0.42902,-2.77666c0.88957,-0.681 2.13976,-0.54197 2.79239,0.31053z" stroke-width="0"/><path d="M166.45763,272.6748c0.681,0.88957 0.51193,2.16276 -0.37764,2.84376c-0.88957,0.681 -2.16276,0.51193 -2.84376,-0.37764c-0.681,-0.88957 -0.51193,-2.16276 0.37764,-2.84376c0.88957,-0.681 2.16277,-0.51192 2.84376,0.37764z" stroke-width="0"/></g><g fill="#ff0000" fill-rule="nonzero" stroke="none" stroke-linecap="butt" stroke-linejoin="miter"><path d="M161.54834,257.55498c-0.88288,0.33288 -1.89005,-0.17024 -2.24956,-1.12376c-0.35951,-0.95351 0.06477,-1.99636 0.94765,-2.32924c0.88288,-0.33288 1.89004,0.17024 2.24956,1.12376c0.35951,0.95351 -0.06476,1.99635 -0.94765,2.32924z" stroke-width="NaN"/><path d="M155.025,259.43029c-0.84757,0.31958 -1.79372,-0.10846 -2.11329,-0.95602c-0.31958,-0.84757 0.10846,-1.79372 0.95601,-2.11329c0.84757,-0.31958 1.79372,0.10846 2.11329,0.95602c0.31958,0.84757 -0.10846,1.79372 -0.95602,2.11329z" stroke-width="0"/><path d="M162.51588,261.86439c-0.9182,0.3462 -1.91082,-0.03161 -2.21707,-0.84387c-0.30625,-0.81225 0.18982,-1.75137 1.10802,-2.09757c0.9182,-0.3462 1.91083,0.03161 2.21708,0.84387c0.30625,0.81225 -0.18983,1.75136 -1.10803,2.09757z" stroke-width="0"/></g></g></g></svg>