<svg version="1.1" xmlns="http://www.w3.org/2000/svg" xmlns:xlink="http://www.w3.org/1999/xlink" width="122.22596" height="131.15163" viewBox="0,0,122.22596,131.15163"><defs><linearGradient x1="227.75326" y1="153.57453" x2="205.41316" y2="155.65071" gradientUnits="userSpaceOnUse" id="color-1"><stop offset="0" stop-color="#000000"/><stop offset="1" stop-color="#000000" stop-opacity="0"/></linearGradient></defs><g transform="translate(-204.28963,-120.15799)"><g stroke-miterlimit="10"><path d="M277.28734,202.68328l-7.66533,-13.92636" fill="none" fill-rule="nonzero" stroke="#000000" stroke-width="6" stroke-linecap="round" stroke-linejoin="miter"/><path d="M246.54112,200.11443c0,0 -6.17779,-4.87053 -6.06876,-5.98607c0.19741,-2.0199 6.91491,-16.13698 6.91491,-16.13698c0,0 10.43584,6.39203 13.19982,7.0457c0.46343,0.1096 12.4623,2.31916 12.4623,2.31916" fill="none" fill-rule="nonzero" stroke="#000000" stroke-width="6" stroke-linecap="round" stroke-linejoin="miter"/><g><g><g stroke="#001026" stroke-width="1.2"><path d="M271.79812,206.67031l22.17973,13.85524c0,0 4.71113,-5.27794 10.17082,-0.73482c0.31126,0.25901 1.80643,1.57232 0.44952,4.21999c-1.29965,2.53592 -5.4128,6.38403 -6.9252,7.78255c-0.70244,0.64955 -2.09919,1.37996 -3.53056,1.4196c-1.44117,0.0399 -2.63765,-1.03649 -3.34533,-1.59838c-0.28823,-0.22885 -24.25632,-16.57821 -24.25632,-16.57821" fill="#bf0000" fill-rule="evenodd" stroke-linecap="round" stroke-linejoin="round"/><path d="M271.02459,218.81405c-5.59529,-4.65596 -2.37243,-8.92351 -0.59021,-11.06528c0.77497,-0.93132 -0.85074,-2.01139 4.27515,0.68478c1.12892,0.59381 5.44963,3.42749 9.49826,5.37147c2.77235,1.33116 5.63929,1.97813 6.38342,2.26432c1.75819,0.67621 2.89865,1.87572 2.89865,1.87572l-1.56692,0.05913c0,0 1.06795,-0.01088 1.62324,0.08595c1.72989,0.30161 3.04084,0.52255 3.04084,0.52255c0,0 -4.78597,5.29591 -4.73108,8.88002c0.05489,3.58411 4.25658,5.16103 4.25658,5.16103c0,0 -3.91432,3.63164 -6.45853,2.15418c-0.62722,-0.36423 -1.79239,-2.33267 -1.79239,-2.33267c0,0 -0.28023,0.54792 -0.68182,0.25447c-0.20472,-0.14958 -2.64734,-3.11817 -5.84867,-5.88566c-4.21432,-3.64319 -9.50035,-7.35916 -10.30653,-8.03z" fill="#000000" fill-rule="nonzero" stroke-linecap="butt" stroke-linejoin="miter"/></g><path d="M261.35062,222.70004c-0.1735,-0.12499 1.07085,-0.68073 2.82927,-2.78141c2.31982,-2.77132 5.42069,-7.3738 6.21505,-8.7295c2.05991,-3.51555 1.29523,-4.99314 1.75516,-4.66181c1.70203,1.22612 3.32573,5.42581 0.62506,9.17472c-1.18681,1.64747 -3.21438,5.33419 -5.25202,6.71671c-2.59911,1.76347 -5.21849,0.96856 -6.17255,0.28128z" fill="#004fd9" fill-rule="nonzero" stroke="#001026" stroke-width="1.2" stroke-linecap="butt" stroke-linejoin="miter"/><g fill-rule="nonzero" stroke-linecap="butt" stroke-linejoin="miter"><g fill="none" stroke="none" stroke-width="1" font-family="sans-serif" font-weight="normal" font-size="12" text-anchor="start"/><path d="M259.98026,222.23482c0,0 6.41969,-5.97362 8.88031,-9.10671c2.46063,-3.13307 3.42285,-6.55872 3.42285,-6.55872c0,0 1.62672,1.24975 2.08719,3.88212c0.35642,2.03762 -0.0313,5.10316 -2.12708,7.80113c-1.90931,2.45792 -4.57878,4.77245 -6.69783,5.2857c-3.21186,0.77791 -5.56545,-1.30353 -5.56545,-1.30353z" fill="#000000" stroke="#001026" stroke-width="1.2"/></g><g stroke="#001026" stroke-width="1.2"><path d="M270.00403,217.96019c0,0 21.58696,21.43362 21.28154,21.97944c-0.87648,1.56637 -8.91847,7.58215 -8.91847,7.58215l-19.93941,-23.77473" fill="#ffab19" fill-rule="evenodd" stroke-linecap="round" stroke-linejoin="round"/><path d="M270.55117,216.48558c0,0 4.51829,4.59112 7.02933,6.87996c2.40846,2.19534 7.74203,6.58433 7.74203,6.58433c0,0 4.52189,2.3739 4.91502,3.86989c0.18209,0.69289 -2.69749,-1.15799 -2.69749,-1.15799c0,0 3.24398,2.08952 3.53233,2.27063c2.01189,1.26367 3.70551,4.11929 2.00647,6.73644c-1.86544,2.87347 -5.09201,7.53105 -8.36696,8.65427c-1.39344,0.47791 -4.27084,0.34041 -5.94332,-1.56265c-1.88612,-2.14614 -2.49272,-6.12156 -2.49272,-6.12156l0.95242,3.96612c0,0 -1.27238,-0.97536 -1.93944,-2.0267c-0.7491,-1.18067 -2.33761,-4.71447 -2.33761,-4.71447l-11.81465,-16.26186" fill="#000000" fill-rule="evenodd" stroke-linecap="round" stroke-linejoin="round"/><path d="M291.26073,236.93716c1.27702,1.1216 2.38917,2.89337 2.25124,4.71576c-0.13845,1.82913 -6.13058,8.73107 -7.99198,9.05671c-1.7677,0.30925 -3.83482,-0.63279 -5.08117,-1.72746c-2.55877,-2.24736 -2.21051,-6.76558 0.77789,-10.09171c2.98838,-3.32612 7.48525,-4.20064 10.04402,-1.95325z" fill="#ff0000" fill-rule="nonzero" stroke-linecap="butt" stroke-linejoin="miter"/></g></g><g fill="#000000" fill-rule="nonzero" stroke="#001026" stroke-width="1.2" stroke-linecap="butt" stroke-linejoin="miter"><path d="M269.8139,228.36063c0,0 -1.45137,2.56887 -2.21127,3.10416c-0.23393,0.16477 -1.42142,0.15829 -2.52669,-0.2398c-1.3795,-0.49686 -2.76018,-1.51272 -3.49259,-2.51496c-1.88434,-2.57861 -1.78951,-8.10278 -0.03601,-9.33798c0.75995,-0.53533 4.16973,-0.80868 4.17574,-0.80615"/></g></g><g fill-rule="nonzero" stroke-linecap="butt" stroke-linejoin="miter"><g stroke="none" stroke-width="1"><path d="M270.05599,202.19235c-0.20933,-0.03371 -0.27265,-0.16775 -0.31899,-0.33825c-0.05153,-0.27485 -0.04676,-0.55474 -0.07943,-0.83129c-0.059,-0.04712 -0.11797,-0.09426 -0.17606,-0.12398c-1.20517,-0.69571 -1.8999,-1.75141 -2.41281,-2.94563c-0.10705,-0.2524 -0.2329,-0.5032 -0.24682,-0.78138c-0.00259,-0.05217 -0.02489,-0.12004 -0.06425,-0.15146c-0.21631,-0.17279 -0.22766,-0.39884 -0.25867,-0.64061c-0.02927,-0.20697 -0.02095,-0.41731 -0.03141,-0.62596c-0.00611,-0.1217 0.02536,-0.24679 0.13374,-0.34384c0.10838,-0.097 0.15778,-0.24116 0.208,-0.3679c0.20763,-0.75213 0.5494,-1.46386 1.00651,-2.1335c0.26441,-0.37295 0.58865,-0.6814 0.9317,-0.99151c1.01125,-0.91131 2.20906,-1.48999 3.53271,-1.81795c0.59694,-0.14068 1.21703,-0.19613 1.84058,-0.18203c0.47236,0.01017 0.91328,0.14543 1.33628,0.29973c1.34591,0.491 2.35222,1.36165 3.08887,2.50095c0.14286,0.21429 0.23114,0.46837 0.31939,0.72247c0.06512,0.16882 0.14813,0.31862 0.34126,0.40616c0.17345,0.07184 0.25648,0.22159 0.30279,0.3921c0.05153,0.27485 0.06549,0.55306 0.07944,0.83128c0.00436,0.08696 -0.02973,0.15988 -0.06384,0.23279c-0.15688,0.25854 -0.20017,0.52441 -0.20498,0.80431c0.0109,0.59289 -0.1679,1.16778 -0.32789,1.74098c-0.06471,0.21538 -0.14815,0.43243 -0.27007,0.63547c-0.38196,0.66292 -0.78448,1.29278 -1.36132,1.8334c0.01309,0.26081 0.00825,0.54071 0.02225,0.81891c0.00524,0.10435 0.01134,0.22605 -0.09792,0.30566c-0.09045,0.07793 -0.06645,0.18062 -0.0612,0.28492c0.01614,0.69719 0.05103,1.39271 0.06715,2.08991c0.05885,1.54923 0.11865,3.11582 0.13995,4.6684c0.01954,1.51781 0.09551,3.03055 0.15262,4.54499c0.01223,0.24344 -0.01403,0.47283 -0.00179,0.71625c0.05935,1.18238 0.11868,2.36478 0.15925,3.54884c0.01048,0.20864 0.05851,0.41395 -0.04464,0.61528c-0.03409,0.07295 -0.01095,0.15816 -0.0066,0.24511c0.04367,0.86942 0.06937,1.75788 0.11301,2.62729c0.00174,0.03478 0.00434,0.08694 0.00611,0.1217c0.03277,0.27653 -0.0918,0.4274 -0.34876,0.57264c-0.86307,0.47889 -1.77855,0.66553 -2.74646,0.55998c-0.24689,-0.03033 -0.49551,-0.09543 -0.72712,-0.19697c-0.17346,-0.07184 -0.25562,-0.2042 -0.28315,-0.37638c-0.08253,-0.51661 -0.18389,-1.03152 -0.26731,-1.56553c-0.05678,-0.3792 -0.07686,-0.77912 -0.19002,-1.15325c-0.24857,-0.81613 -0.27256,-1.66984 -0.4648,-2.491c-0.09874,-0.46274 -0.23418,-0.90478 -0.31413,-1.36923c-0.08167,-0.4992 -0.20006,-0.97769 -0.29969,-1.45779c-0.17603,-0.87504 -0.31537,-1.77082 -0.51021,-2.64417c-0.28394,-1.14482 -0.49276,-2.29643 -0.70156,-3.44796c-0.07644,-0.39492 -0.15291,-0.78973 -0.22934,-1.18465c-0.10661,-0.61926 -0.21403,-1.25587 -0.32059,-1.8751c-0.05505,-0.34441 -0.14677,-0.66807 -0.20184,-1.01245c-0.07471,-0.36015 -0.09129,-0.69047 -0.14807,-1.06968zM270.51352,201.90691c0.23072,0.08418 0.45969,0.13359 0.70482,0.12915c0.49642,0.1128 1.00549,0.10223 1.51458,0.09162c0.64151,-0.00496 1.29828,-0.08115 1.93628,-0.15567c0.73195,-0.08292 1.39881,-0.33466 2.08361,-0.60547c0.07342,-0.0415 0.14683,-0.08299 0.25693,-0.14523c-0.00695,-0.13909 -0.014,-0.2782 -0.02097,-0.41729c-0.00174,-0.03478 -0.02227,-0.06788 -0.04369,-0.11835c-0.13153,0.01175 -0.2622,0.0409 -0.39199,0.08743c-0.22287,0.07234 -0.42868,0.10817 -0.65154,0.18048c-0.55847,0.15472 -1.14363,0.15469 -1.7047,0.25724c-0.29977,0.0443 -0.59778,0.12328 -0.8993,0.13279c-0.6603,0.00665 -1.3162,0.10021 -1.97994,0.03729c-0.17087,-0.01966 -0.3605,-0.0376 -0.53139,-0.05729c-0.0804,-0.09763 -0.22898,-0.04937 -0.32469,-0.07577c-0.11535,-0.04209 -0.23074,-0.08417 -0.43652,-0.04828c0.14286,0.21429 0.09785,0.44539 0.18347,0.64731c0.09483,0.009 0.17522,0.10657 0.30502,0.06005zM271.29477,202.43091c-0.44004,-0.11788 -0.55363,-0.12515 -0.79618,-0.06855c0.02927,0.20697 0.05768,0.39657 0.08692,0.60355c0.00611,0.1217 0.08559,0.20195 0.201,0.24404c0.07695,0.02807 0.17085,0.01965 0.24776,0.04771c0.28797,0.09655 0.61003,0.12012 0.9098,0.07585c0.13591,0.07515 0.2862,0.06176 0.43655,0.04831c0.84642,-0.05821 1.67498,-0.09738 2.51705,-0.24251c0.37407,-0.06837 0.74729,-0.15413 1.10078,-0.25562c0.27841,-0.09476 0.57554,-0.19119 0.79054,-0.42002c-0.01135,-0.22606 -0.02273,-0.45207 -0.03405,-0.67814c-0.14857,0.04819 -0.2784,0.09475 -0.38935,0.13958c-0.51915,0.18612 -1.04004,0.33751 -1.56444,0.41932c-0.67383,0.11262 -1.35205,0.13833 -2.02936,0.18144c-0.31946,0.02857 -0.62533,-0.04886 -0.94389,-0.00293c-0.17522,-0.10657 -0.364,-0.10718 -0.5331,-0.09207zM274.59615,221.57544c0.2683,0.08081 0.53223,0.0747 0.79441,0.03378c0.01964,0.0157 0.05813,0.02974 0.07694,0.02805c0.4501,-0.0577 0.89845,-0.15018 1.30399,-0.34364c0.23995,-0.10879 0.48071,-0.20017 0.65898,-0.40823c-0.04887,-0.97375 -0.09778,-1.94744 -0.14922,-2.97337c-0.44136,0.23156 -0.88801,0.35888 -1.33544,0.46871c-0.39113,0.10484 -0.76954,0.08626 -1.1624,0.15633c-0.15031,0.01346 -0.28273,0.00784 -0.43306,0.02128c-0.22982,-0.06679 -0.47674,-0.09711 -0.75945,-0.08931c0.02619,0.52166 0.20095,0.99508 0.26298,1.47858c0.08168,0.49921 0.18216,0.99677 0.26298,1.47857c0.17521,0.10658 0.32729,0.12796 0.47937,0.14926zM273.95096,218.12247c0.13593,0.07513 0.28711,0.07914 0.4374,0.06567c0.15382,0.05614 0.32208,0.02363 0.49204,0.0259c0.52703,-0.02967 1.04966,-0.14624 1.55174,-0.29593c0.29713,-0.09642 0.59256,-0.22767 0.84688,-0.42505c-0.00347,-0.06956 0.01181,-0.14078 0.00829,-0.21034c-0.04274,-0.85206 -0.08463,-1.68662 -0.10863,-2.54033c-0.0266,-0.90585 -0.05233,-1.79433 -0.07891,-2.70018c-0.04756,-1.32319 -0.07539,-2.63063 -0.12296,-3.95381c-0.0366,-1.48134 -0.12871,-2.94026 -0.12771,-4.42496c0.00659,-0.2451 -0.02535,-0.50424 -0.0384,-0.76508c-0.20318,0.08803 -0.38583,0.20916 -0.59079,0.26241c-0.64981,0.2153 -1.32364,0.32793 -1.99922,0.40581c-0.60128,0.05375 -1.20344,0.09012 -1.80564,0.12648c-0.24604,-0.01293 -0.47237,-0.01016 -0.7184,-0.0231c-0.15554,-0.0909 -0.32293,-0.04099 -0.475,-0.06231c-0.17087,-0.01966 -0.32467,-0.07577 -0.51171,-0.04158c-0.02885,0.17724 0.01571,0.31301 0.0406,0.43302c0.2582,1.00744 0.36693,2.04567 0.56874,3.05812c0.12713,0.65236 0.25422,1.30472 0.40017,1.95536c0.17603,0.87504 0.36999,1.73098 0.54517,2.58862c0.14854,0.70281 0.29705,1.40566 0.42678,2.11017c0.15112,0.755 0.28259,1.49428 0.41496,2.25097c0.12887,0.68711 0.25862,1.39162 0.40714,2.09445c0.16996,0.00226 0.28797,0.09651 0.4374,0.06569zM279.05741,194.2614c-0.40551,0.19343 -0.79666,0.29828 -1.18687,0.42051c-0.40904,0.12391 -0.79837,0.26354 -1.20827,0.37003c-0.39113,0.10483 -0.80279,0.17657 -1.19477,0.26398c-0.4108,0.08912 -0.82155,0.17826 -1.25196,0.25168c-0.39284,0.07004 -0.80538,0.12437 -1.19824,0.19443c-0.4125,0.05433 -0.82853,0.03915 -1.23756,0.16305c-0.3998,-0.06903 -0.80972,0.03746 -1.2052,0.05538c-0.41511,0.00216 -0.84733,0.04083 -1.26245,0.04301c-0.39632,0.00049 -0.81235,-0.01473 -1.20955,-0.0316c-0.41603,-0.01522 -0.81672,-0.10168 -1.23008,-0.06469c-0.01664,0.42068 -0.01054,0.54237 0.1555,0.84193c0.22982,0.06679 0.4597,0.13359 0.72536,0.1622c0.32206,0.02361 0.6441,0.04723 0.98583,0.08655c0.64498,0.06462 1.27031,0.11347 1.92798,0.05469c0.45098,-0.04032 0.90109,-0.09804 1.35556,-0.06878c0.09483,0.009 0.20757,-0.0011 0.31853,-0.04594c0.22286,-0.07234 0.46803,-0.07676 0.69349,-0.09695c0.82679,-0.07391 1.64833,-0.25215 2.45022,-0.44613c1.0641,-0.23487 2.08447,-0.58808 3.10222,-0.9935c0.20406,-0.07065 0.40814,-0.14128 0.55057,-0.31122c0.0245,-0.26419 -0.00738,-0.52335 -0.08032,-0.84865zM271.36227,192.87096c-0.13895,0.23949 -0.20279,0.47226 -0.28539,0.7067c-0.08437,0.19966 -0.09267,0.41 -0.00704,0.61195c0.13281,0.38984 0.21015,0.80212 0.21228,1.22112c0.00174,0.03478 0.02312,0.08527 0.024,0.10264c0.09656,0.04374 0.17171,0.03701 0.26308,-0.02352c0.01792,-0.01904 0.03497,-0.05553 0.03409,-0.07293c0.03107,-0.50931 0.09971,-1.02193 0.20594,-1.53797c0.01532,-0.07123 0.02885,-0.17723 -0.01224,-0.24344c-0.08912,-0.2715 -0.17825,-0.54296 -0.43476,-0.76458zM270.36661,195.59732c0.03279,-0.47452 0.10407,-0.93499 0.19502,-1.37977c0.03057,-0.14244 0.0057,-0.26249 -0.05767,-0.39655c-0.10442,-0.20023 -0.2447,-0.36238 -0.38582,-0.54191c-0.04108,-0.0662 -0.083,-0.14976 -0.19401,-0.10491c-0.07912,0.30401 -0.17789,0.59232 -0.21944,0.89293c0.35611,0.70174 0.35608,0.70172 0.41677,1.53466c0.05898,0.04714 0.13504,0.05779 0.24515,-0.00445zM275.0754,196.90547c-0.05946,0.31971 -0.10012,0.63776 -0.14078,0.95579c-0.01532,0.07123 -0.03059,0.14246 -0.00832,0.21032c0.14547,0.26644 0.27223,0.53457 0.50904,0.74047c0.21501,-0.22881 0.25827,-0.49467 0.35881,-0.7482c0.05027,-0.12673 0.02622,-0.22939 -0.03626,-0.34608c-0.16427,-0.26477 -0.291,-0.53293 -0.39974,-0.82008c-0.00087,-0.0174 -0.03929,-0.03144 -0.07863,-0.06282c-0.05549,0.02242 -0.12983,0.04655 -0.20408,0.07065zM275.11761,192.4828c-0.23032,0.30005 -0.32997,0.57097 -0.44839,0.84353c-0.03236,0.10769 -0.00919,0.19293 0.01397,0.27819c0.13371,0.40722 0.21098,0.81954 0.21402,1.25591c0.0026,0.05216 0.024,0.10264 0.02665,0.15479c0.20758,-0.00108 0.24428,-0.02183 0.23729,-0.16093c-0.02271,-0.45213 0.04946,-0.89521 0.21727,-1.31192c0.10053,-0.25351 0.07128,-0.4605 -0.03403,-0.67816c-0.08127,-0.11502 -0.14287,-0.21431 -0.22675,-0.38146zM272.58472,195.41648c0.09394,-0.00842 0.10922,-0.07968 0.10575,-0.14922c-0.02442,-0.48685 0.10231,-0.96976 0.2291,-1.45271c0.09353,-0.3926 -0.0017,-0.78582 -0.30275,-1.14315c-0.12367,0.16825 -0.13374,0.34383 -0.21983,0.50871c-0.17132,0.34718 -0.15473,0.67754 -0.06213,1.0186c0.09437,0.37581 0.2075,0.74998 0.18915,1.13587c0.02143,0.05046 0.04107,0.06622 0.06075,0.08191zM273.80325,192.61778c-0.10228,0.21873 -0.18927,0.36624 -0.25743,0.51206c-0.12016,0.23781 -0.1285,0.44815 -0.04114,0.68485c0.12932,0.32029 0.18437,0.6647 0.22062,1.01075c0.02489,0.12005 0.03188,0.25915 0.03799,0.38084c0.09483,0.009 0.11098,-0.04483 0.10924,-0.07962c0.06861,-0.51267 0.15607,-1.02697 0.31956,-1.53066c0.01443,-0.08862 0.02971,-0.15985 0.00657,-0.2451c-0.10617,-0.23504 -0.19354,-0.47174 -0.3954,-0.73314zM276.25045,196.62577c0.09176,0.32367 0.05108,0.64167 0.0292,0.95804c0.00436,0.08694 -0.04852,0.16154 -0.00658,0.2451c0.06337,0.13409 0.3028,0.39212 0.51736,0.53015c0.12284,-0.18565 0.14991,-0.39765 0.2155,-0.59567c0.04852,-0.16155 0.02275,-0.29896 -0.07819,-0.42965c-0.16251,-0.22999 -0.2875,-0.46335 -0.35783,-0.73653c-0.00085,-0.0174 -0.04021,-0.04879 -0.05985,-0.06449c-0.07606,-0.01067 -0.1512,-0.00397 -0.25957,0.09308zM269.8818,198.34789c0.12497,0.23334 0.12099,0.53064 0.30146,0.74157c0.13065,-0.02914 0.18269,-0.12113 0.25435,-0.1974c0.12455,-0.15088 0.26962,-0.26861 0.35398,-0.46829c-0.12843,-0.30292 -0.10834,-0.65403 -0.21887,-0.97599c-0.09656,-0.04374 -0.19051,-0.03538 -0.28273,0.00783c-0.0979,0.3057 -0.23426,0.59735 -0.40819,0.89235zM272.84725,197.26188c-0.02885,0.17724 -0.05771,0.35447 -0.14555,0.48458c-0.21065,0.31573 -0.177,0.60968 -0.01184,0.89183c0.06158,0.09928 0.06681,0.20363 0.1848,0.2979c0.17918,-0.19071 0.30113,-0.39372 0.42301,-0.59677c0.03497,-0.05553 0.03145,-0.12507 0.00831,-0.21032c-0.08827,-0.25412 -0.15685,-0.49249 -0.24509,-0.74658c-0.00259,-0.05217 -0.0437,-0.11837 -0.2137,-0.12062zM271.66342,197.36774c-0.05595,0.38926 -0.15127,0.74708 -0.38157,1.04714c-0.05374,0.0572 -0.03146,0.12508 -0.02796,0.19462c0.02665,0.15482 0.07208,0.30797 0.19268,0.45435c0.25087,-0.26696 0.40775,-0.52554 0.56376,-0.80147c0.05201,-0.09197 0.06646,-0.18059 0.04241,-0.28325c-0.04713,-0.18793 -0.07559,-0.37752 -0.12276,-0.56542c-0.00085,-0.0174 -0.04021,-0.04881 -0.05986,-0.06451c-0.05637,0.00504 -0.11276,0.01008 -0.20666,0.0185zM276.58848,193.20715c-0.0839,-0.16714 -0.16863,-0.35173 -0.25252,-0.51891c-0.01964,-0.0157 -0.03933,-0.03143 -0.07864,-0.06282c-0.19886,0.17496 -0.30113,0.39372 -0.3667,0.59169c0.1586,0.52729 0.31543,1.01976 0.34511,1.61096c0.24911,-0.30174 0.10357,-0.56816 0.14861,-0.79925c0.04241,-0.28325 0.12325,-0.55245 0.2041,-0.82167zM271.0782,192.47718c-0.19837,-0.19185 -0.3592,-0.38707 -0.62835,-0.48526c-0.06907,0.12842 -0.15865,0.22377 -0.20975,0.33317c-0.05112,0.10937 -0.12105,0.2204 -0.11491,0.34213c0.06424,0.15142 0.201,0.24402 0.30106,0.35732c0.10008,0.11329 0.16341,0.24739 0.31809,0.32089c0.11755,-0.28999 0.21723,-0.56085 0.33393,-0.86823zM269.16577,195.73962c0.04897,-0.52834 0.08349,-0.96811 0.11807,-1.40782c-0.00174,-0.03478 0.01446,-0.08863 -0.02489,-0.12004c-0.14114,-0.17949 -0.24644,-0.39715 -0.4968,-0.49703c-0.06295,0.25015 -0.12676,0.48294 -0.17178,0.71404c0.26434,0.3781 0.4177,0.801 0.57542,1.3109zM274.11571,198.8427c0.16302,-0.13684 0.19185,-0.31408 0.26004,-0.4599c0.08611,-0.16489 0.11583,-0.32473 0.03106,-0.50927c-0.10704,-0.25241 -0.21408,-0.50485 -0.19048,-0.78643c-0.1333,-0.02302 -0.20758,0.00108 -0.20234,0.10542c-0.00568,0.26248 -0.01054,0.54238 -0.11193,0.77851c-0.13374,0.34383 0.02966,0.59125 0.21364,0.8717zM272.23627,198.62646c-0.22943,0.31744 -0.42477,0.56197 -0.60133,0.80479c0.00611,0.1217 0.06596,0.18625 0.10704,0.25239c0.05986,0.06451 0.10267,0.16544 0.23592,0.18848c0.19975,-0.1576 0.37888,-0.34825 0.53842,-0.55462c-0.06772,-0.22098 -0.15335,-0.42294 -0.28005,-0.69107zM275.22909,199.21473c-0.18219,-0.2457 -0.34389,-0.45829 -0.50639,-0.68828c-0.12018,0.23782 -0.24125,0.45825 -0.36231,0.67865c0.14286,0.21429 0.24729,0.41456 0.48063,0.55084c0.16125,-0.17159 0.26526,-0.35557 0.38807,-0.54121zM271.95223,191.84009c-0.22025,0.12447 -0.26526,0.35557 -0.3693,0.53952c-0.03497,0.05553 -0.01183,0.14077 0.0284,0.18959c0.12147,0.16382 0.22327,0.31191 0.34383,0.45833c0.00087,0.0174 0.03848,0.01401 0.07606,0.01068c0.11935,-0.25519 0.21892,-0.52608 0.33826,-0.78128c-0.10265,-0.16546 -0.25997,-0.29114 -0.41729,-0.4168zM274.85423,192.12209c-0.08477,-0.18452 -0.16863,-0.3517 -0.38143,-0.45497c-0.14247,0.16996 -0.32252,0.34323 -0.40601,0.5603c0.06246,0.11668 0.08738,0.23671 0.16777,0.33431c0.06157,0.09929 0.04977,0.24009 0.22152,0.27711c0.13897,-0.23948 0.27793,-0.47896 0.39816,-0.7168zM275.75076,199.08077c0.08302,0.14976 0.2565,0.22159 0.43083,0.3108c0.13988,-0.22208 0.31988,-0.39541 0.38286,-0.64554c-0.15732,-0.12567 -0.26086,-0.30852 -0.47454,-0.42915c-0.11935,0.25519 -0.21986,0.5087 -0.33916,0.7639zM277.40149,196.24342c-0.00308,0.31467 0.06991,0.64 0.02919,0.95805c-0.02448,0.26419 0.11405,0.39148 0.3465,0.51045c0.12191,-0.20301 0.14991,-0.39765 0.19579,-0.61134c-0.25824,-0.25634 -0.3688,-0.57834 -0.57153,-0.85713zM268.10131,195.59026c0.0743,-0.0241 0.07165,-0.07626 0.06907,-0.12842c0.00745,-0.22771 -0.00477,-0.47116 0.02147,-0.70057c0.05856,-0.33709 -0.13807,-0.49417 -0.39196,-0.66361c-0.03147,0.12511 -0.06466,0.21536 -0.0791,0.30398c-0.04587,0.2137 -0.05509,0.40663 0.12362,0.5828c0.10007,0.11329 0.14548,0.26647 0.19009,0.4022c-0.01532,0.07123 -0.04851,0.16153 0.06682,0.20361zM269.03843,198.8425c0.09045,-0.07793 0.14335,-0.15254 0.19709,-0.20974c0.18092,-0.15588 0.22945,-0.31745 0.18139,-0.52274c-0.04628,-0.17051 -0.03709,-0.36348 -0.06462,-0.53567c-0.00259,-0.05218 0.01356,-0.10601 -0.11886,-0.11165c-0.08177,0.25183 -0.20104,0.50706 -0.35882,0.74821c-0.03497,0.05553 -0.03059,0.14243 -0.02712,0.21199c0.04455,0.13572 0.08825,0.25413 0.19093,0.41958zM273.85212,199.23304c-0.08388,-0.16715 -0.14985,-0.35337 -0.28927,-0.49812c-0.17829,0.20809 -0.37714,0.38304 -0.49733,0.62084c0.12148,0.1638 0.18655,0.33263 0.3985,0.4185c0.14248,-0.16995 0.30464,-0.32416 0.38807,-0.54122zM273.21237,192.88019c0.17828,-0.20808 0.28055,-0.42682 0.34522,-0.64218c-0.12146,-0.1638 -0.22328,-0.31187 -0.40025,-0.45327c-0.1451,0.11778 -0.23206,0.26529 -0.29936,0.4285c0.12408,0.21595 0.2294,0.4336 0.35434,0.66697zM272.21995,200.1824c0.11887,0.11166 0.17957,0.19353 0.27704,0.25467c0.059,0.04712 0.1171,0.07687 0.17524,0.10659c0.18353,-0.10373 0.34655,-0.24057 0.45057,-0.42454c-0.10265,-0.16546 -0.20536,-0.33093 -0.3994,-0.43586c-0.16125,0.17159 -0.32426,0.30845 -0.50343,0.49912zM268.38086,197.39919c-0.19621,0.22716 -0.33955,0.37966 -0.49995,0.56867c-0.01532,0.07123 0.00957,0.19124 0.0712,0.29055c0.04282,0.10095 0.01135,0.22604 0.12846,0.30291c0.1665,-0.06729 0.27487,-0.16431 0.36273,-0.29443c-0.03276,-0.27654 -0.04582,-0.53737 -0.06241,-0.86772zM270.67846,191.65702c0.09835,0.07855 0.19666,0.1571 0.29493,0.23565c0.09836,0.07854 0.19578,0.13967 0.29408,0.21822c0.12193,-0.203 0.2465,-0.35389 0.27449,-0.54851c-0.0616,-0.09928 -0.17609,-0.12398 -0.27264,-0.16776c-0.09656,-0.04374 -0.19578,-0.13967 -0.3264,-0.11054c-0.10665,0.13183 -0.21501,0.22881 -0.2644,0.37297zM274.53642,200.0801c-0.15906,-0.16043 -0.26347,-0.36073 -0.49598,-0.47964c-0.12452,0.15088 -0.23031,0.30005 -0.35487,0.45092c0.15905,0.16043 0.27964,0.30687 0.5095,0.37363c0.12716,-0.0987 0.2561,-0.16262 0.34133,-0.34491zM269.36343,193.66099c0.09705,-0.32305 0.17703,-0.60966 0.257,-0.89624c-0.0804,-0.09763 -0.14199,-0.19693 -0.27528,-0.21992c-0.1971,0.20976 -0.27884,0.46156 -0.37935,0.71508c0.08041,0.09763 0.16078,0.19523 0.25909,0.27377c0.02227,0.06789 0.06073,0.08189 0.13849,0.12734zM271.14641,199.47493c-0.12237,-0.18119 -0.13283,-0.38987 -0.29015,-0.51553c-0.19796,0.19236 -0.378,0.36566 -0.51788,0.58778c0.13767,0.10997 0.14635,0.28383 0.33951,0.37137c0.18351,-0.10373 0.28844,-0.27034 0.4685,-0.44361zM275.68312,191.71612c-0.12629,0.11609 -0.23291,0.24789 -0.3011,0.39373c0.12324,0.19857 0.22763,0.39883 0.35261,0.63217c0.10313,-0.20132 0.2089,-0.35053 0.35052,-0.53784c-0.12323,-0.19859 -0.22677,-0.38146 -0.40202,-0.48806zM269.15159,199.21664c0.08649,0.21934 0.15249,0.40556 0.34736,0.52787c0.14595,-0.10039 0.27401,-0.18166 0.3422,-0.32751c-0.08562,-0.20193 -0.15248,-0.40552 -0.25865,-0.64057c-0.16302,0.13684 -0.30721,0.27201 -0.43089,0.44025zM273.84171,191.88078c0.12105,-0.2204 0.32253,-0.34326 0.35051,-0.53789c-0.12146,-0.1638 -0.27703,-0.25469 -0.45052,-0.32652c-0.1442,0.13516 -0.28931,0.25292 -0.3361,0.44921c0.1385,0.12734 0.25826,0.25634 0.43608,0.41512zM275.91552,199.72975c-0.13766,-0.10996 -0.2377,-0.22326 -0.41032,-0.2777c-0.12191,0.20301 -0.32253,0.34322 -0.38635,0.576c0.11886,0.11166 0.2351,0.17112 0.40509,0.17339c0.14334,-0.15254 0.26703,-0.32078 0.39155,-0.47166zM268.48339,193.42525c-0.11972,-0.12904 -0.21714,-0.19014 -0.35132,-0.23061c-0.12455,0.15088 -0.22859,0.33482 -0.21807,0.54346c0.11799,0.09425 0.23593,0.18847 0.35481,0.30014c0.14073,-0.2047 0.14904,-0.41503 0.2146,-0.61303zM278.63554,197.51284c-0.11708,-0.07685 -0.21456,-0.13802 -0.32815,-0.14532c-0.10401,0.18392 -0.17042,0.36457 -0.19841,0.5592c0.09915,0.09594 0.19662,0.15708 0.3299,0.1801c0.12284,-0.18565 0.13111,-0.39598 0.19667,-0.59396zM273.04058,200.73778c0.1232,0.19857 0.2744,0.20252 0.44265,0.17003c0.13152,-0.01174 0.26133,-0.05829 0.31071,-0.20245c-0.11972,-0.12904 -0.23856,-0.24067 -0.41205,-0.31249c-0.12629,0.11609 -0.2338,0.23049 -0.34132,0.3449zM277.47246,193.14555c-0.06422,-0.15144 -0.0712,-0.29052 -0.20709,-0.36571c-0.36097,0.3292 -0.25047,0.65118 -0.04421,0.9995c0.08349,-0.21704 0.16785,-0.41675 0.25132,-0.63378zM271.27302,200.49414c0.16564,-0.08465 0.274,-0.18168 0.37889,-0.34826c-0.13591,-0.07515 -0.16345,-0.24738 -0.31725,-0.30348c-0.1119,0.02746 -0.14596,0.10036 -0.21851,0.15924c-0.07164,0.07625 -0.16387,0.11944 -0.15778,0.24116c0.08041,0.09763 0.16082,0.19524 0.31463,0.25134zM273.01338,195.3083c0.21191,0.08584 0.32293,0.04101 0.33384,-0.11716c0.00746,-0.22771 -0.02268,-0.4521 -0.05196,-0.65907c-0.00346,-0.06953 -0.02668,-0.15481 -0.14113,-0.17951c-0.07823,0.32139 -0.11889,0.63939 -0.14078,0.95574zM276.9883,199.66875c0.04281,0.10097 0.1206,0.14642 0.23423,0.15375c0.18007,-0.1733 0.39859,-0.33256 0.49911,-0.58607c-0.23073,-0.08416 -0.39813,-0.0343 -0.52091,0.15135c-0.07166,0.07626 -0.18183,0.13854 -0.21242,0.28098zM275.52257,194.90929c0.26303,-0.02351 0.31768,-0.06339 0.30984,-0.21982c-0.03101,-0.24175 -0.06288,-0.5009 -0.16906,-0.73592c-0.13462,0.32643 -0.25131,0.63379 -0.14078,0.95576zM278.41054,196.41516c-0.01182,0.14076 -0.00567,0.26252 -0.01838,0.38588c-0.00661,0.24512 -0.00656,0.24511 0.33603,0.30184c0.03147,-0.12511 0.08087,-0.26925 0.09614,-0.34044c-0.1573,-0.12569 -0.27616,-0.23729 -0.4138,-0.34725zM272.92901,190.61747c-0.1084,0.09701 -0.27575,0.14694 -0.26616,0.3382c0.1171,0.07687 0.25213,0.13465 0.3889,0.22722c0.12631,-0.1161 0.27227,-0.21643 0.32165,-0.36059c-0.13594,-0.07515 -0.25389,-0.16944 -0.44441,-0.20482zM277.3332,197.89134c-0.08257,0.23444 -0.18402,0.47056 -0.26659,0.70501c0.04196,0.08355 0.10178,0.14808 0.21276,0.10324c0.16125,-0.17159 0.28322,-0.37465 0.32823,-0.60573c-0.0804,-0.09763 -0.15905,-0.16042 -0.27444,-0.20251zM276.29581,191.88844c0.13065,-0.02914 0.22115,-0.10709 0.29105,-0.21815c-0.04107,-0.06621 -0.08214,-0.13237 -0.12323,-0.19857c-0.0607,-0.08191 -0.1027,-0.16547 -0.21717,-0.19015c-0.11275,0.01007 -0.20493,0.05322 -0.27574,0.14692c0.10183,0.1481 0.2233,0.31189 0.32505,0.45998zM272.5767,191.8716c0.12631,-0.1161 0.19536,-0.24454 0.24476,-0.38867c-0.15554,-0.0909 -0.29233,-0.18344 -0.4282,-0.25862c-0.14771,0.06564 -0.21763,0.17667 -0.2312,0.28268c0.13849,0.12735 0.27703,0.25468 0.41466,0.36468zM277.07441,192.36026c-0.0616,-0.09928 -0.1232,-0.19857 -0.2036,-0.29621c-0.01964,-0.01569 -0.05726,-0.01234 -0.09574,-0.02637c-0.07255,0.05887 -0.18353,0.10372 -0.23292,0.24789c0.06339,0.13408 0.1097,0.30457 0.2482,0.43192c0.14593,-0.10039 0.21584,-0.21144 0.28404,-0.35726zM278.14548,193.76656c0.00919,-0.19295 0.21414,-0.24623 0.20541,-0.42009c-0.08213,-0.13234 -0.10875,-0.28719 -0.26608,-0.41285c-0.12716,0.0987 -0.23556,0.19575 -0.1713,0.34717c0.06423,0.15144 0.05329,0.30959 0.23198,0.48577zM278.04152,198.84102c0.06905,-0.12842 0.15688,-0.25856 0.22681,-0.36958c0.01793,-0.01906 -0.00261,-0.05218 -0.00438,-0.08695c-0.0957,-0.02637 -0.194,-0.10493 -0.3605,-0.0376c-0.08694,0.1475 -0.17309,0.31239 -0.27795,0.47899c0.13501,0.0578 0.24865,0.06509 0.41603,0.01522zM271.96761,191.01783c-0.11797,-0.09426 -0.23683,-0.20589 -0.33514,-0.28441c-0.1665,0.06728 -0.27491,0.1643 -0.36447,0.25965c0.02491,0.12006 0.15729,0.12564 0.2351,0.17111c0.07781,0.04544 0.15644,0.10827 0.28711,0.07912c0.07342,-0.0415 0.14597,-0.1004 0.17745,-0.22548zM269.68461,200.05974c0.10008,0.11329 0.1796,0.19356 0.25911,0.27376c0.02053,0.03311 0.07779,0.04546 0.09746,0.06116c0.13152,-0.01174 0.22201,-0.0897 0.29191,-0.20077c-0.10094,-0.1307 -0.1831,-0.26309 -0.32067,-0.37307c-0.11011,0.06225 -0.20059,0.1402 -0.32776,0.2389zM278.91695,196.35242c0.06385,-0.23278 0.12762,-0.46552 0.05906,-0.70392c-0.16648,0.06729 -0.31598,0.09812 -0.40293,0.24561c0.10875,0.2872 0.10877,0.2872 0.34386,0.4583zM271.6046,200.70903c0.33604,0.30184 0.35479,0.30013 0.68432,0.09596c-0.11887,-0.11166 -0.25561,-0.20419 -0.37445,-0.31586c-0.13065,0.02914 -0.2211,0.1071 -0.30985,0.21981zM275.40268,191.39189c-0.10093,-0.1307 -0.20014,-0.22663 -0.35396,-0.28276c-0.03671,0.02075 -0.09135,0.06056 -0.14598,0.10038c-0.03583,0.03815 -0.07082,0.09368 -0.10662,0.13178c0.10095,0.1307 0.18398,0.28048 0.33866,0.35399c0.1101,-0.06224 0.19886,-0.17496 0.26788,-0.30341zM268.51617,199.34332c0.0546,-0.03982 0.12715,-0.09872 0.14335,-0.15256c0.04679,-0.19633 0.00045,-0.36677 -0.14069,-0.54633c-0.10927,0.07961 -0.25782,0.12784 -0.30896,0.23723c0.08388,0.16715 0.11228,0.35674 0.30629,0.46166zM269.01348,192.32991c-0.01964,-0.0157 -0.03932,-0.03141 -0.07864,-0.06282c-0.2373,0.16097 -0.41561,0.36902 -0.59388,0.57709c0.06248,0.11666 0.14025,0.1621 0.29144,0.16607c0.12105,-0.2204 0.26087,-0.44249 0.38109,-0.68033zM274.41657,194.30955c-0.09965,0.2709 -0.21893,0.52608 -0.18532,0.81999c0.00085,0.0174 0.07778,0.04541 0.11535,0.04207c0.09394,-0.00843 0.16561,-0.08468 0.1612,-0.17161c0.04504,-0.23109 -0.00391,-0.45378 -0.09126,-0.69046zM274.752,190.83874c-0.09917,-0.09595 -0.19838,-0.19187 -0.3334,-0.24967c-0.13153,0.01175 -0.22374,0.05493 -0.31158,0.18502c0.13678,0.09257 0.27441,0.20254 0.41029,0.27771c0.11096,-0.04484 0.18351,-0.10374 0.23466,-0.21311zM274.47476,200.73184c0.26394,-0.00614 0.4903,-0.00887 0.70966,-0.15075c-0.06423,-0.15143 -0.19923,-0.20925 -0.35219,-0.24798c-0.14508,0.11778 -0.27226,0.21646 -0.35748,0.39877zM267.38539,197.87246c0.16389,-0.11946 0.1818,-0.13848 0.1792,-0.19068c0.01008,-0.17555 -0.09174,-0.32367 -0.19268,-0.45435c-0.04018,-0.04879 -0.13504,-0.05776 -0.18617,0.0516c0.12058,0.14642 0.05677,0.37921 0.19968,0.59346zM269.77118,192.38444c0.13988,-0.22208 0.29938,-0.4285 0.30329,-0.72577c-0.25693,0.14523 -0.37802,0.36567 -0.5008,0.5513c0.02313,0.08526 0.08126,0.11497 0.19751,0.17444zM270.57341,200.46934c-0.09133,0.06057 -0.18352,0.10375 -0.27486,0.1643c0.10182,0.14812 0.22067,0.25974 0.42474,0.18909c0.05551,-0.02242 0.11097,-0.04485 0.12629,-0.11609c-0.04281,-0.10095 -0.14027,-0.16213 -0.27616,-0.23729zM276.77282,194.62287c0.16913,-0.01514 0.24252,-0.05659 0.21674,-0.19401c-0.02489,-0.12006 -0.04981,-0.24009 -0.09351,-0.35845c-0.02143,-0.05045 -0.06161,-0.09931 -0.1359,-0.0752c-0.0459,0.21369 -0.03629,0.40496 0.01265,0.62765zM269.61501,194.9135c-0.06384,0.23279 -0.09004,0.46219 -0.02233,0.68319c0.00087,0.01741 0.0778,0.04541 0.09656,0.04374c0.03755,-0.00334 0.07255,-0.05887 0.07079,-0.09367c-0.03012,-0.22436 -0.00303,-0.43641 -0.14504,-0.63332zM268.7428,195.58533c-0.06509,-0.16884 -0.0747,-0.36014 -0.19701,-0.54133c-0.08259,0.23443 -0.11057,0.42908 -0.04896,0.52835c0.04281,0.10095 0.11798,0.09427 0.246,0.01294zM276.28694,200.36021c0.22287,-0.07234 0.48596,-0.09587 0.607,-0.31628c-0.34519,-0.10884 -0.46624,0.11156 -0.607,0.31628zM275.86498,197.21916c0.03755,-0.00336 0.05556,-0.02244 0.09311,-0.02579c-0.02753,-0.17218 0.03977,-0.33541 -0.06204,-0.4835c-0.11361,-0.00733 -0.16911,0.01513 -0.22111,0.10711c0.06248,0.11666 0.12583,0.25073 0.19008,0.40221zM272.0049,194.76966c-0.04414,0.24848 -0.07212,0.4431 -0.04287,0.65008c0.00174,0.03478 0.04105,0.06619 0.09743,0.06115c0.01882,-0.00168 0.05549,-0.02243 0.07342,-0.04151c0.06385,-0.23278 0.05334,-0.44141 -0.12799,-0.66972zM268.84606,199.52341c-0.11097,0.04486 -0.1656,0.08465 -0.12541,0.13348c0.06248,0.11666 0.14376,0.23166 0.22502,0.34668c0.05986,0.06451 0.11621,0.05949 0.1691,-0.01512c-0.06594,-0.18624 -0.1302,-0.3377 -0.26871,-0.46502zM273.73783,190.56263c0.07255,-0.05887 0.14597,-0.1004 0.21852,-0.15926c0.01793,-0.01904 0.01616,-0.05385 0.03236,-0.10769c-0.22546,0.02013 -0.43476,-0.01352 -0.67558,0.07786c0.13678,0.09257 0.23422,0.15372 0.42473,0.18908zM270.98697,197.42819c0.02751,0.17219 0.05417,0.32704 0.08343,0.53401c0.17917,-0.1907 0.2277,-0.35221 0.20017,-0.5244c-0.09657,-0.04375 -0.15382,-0.05612 -0.28362,-0.0096zM276.86526,196.466c0.08127,0.11502 0.05327,0.30959 0.26522,0.39546c0.03541,-0.42235 0.03106,-0.50926 -0.06466,-0.53567c-0.09394,0.00843 -0.14859,0.04822 -0.20059,0.1402zM270.87921,194.90527c-0.21241,0.28096 -0.20189,0.48962 -0.11367,0.74373c0.25259,-0.23219 0.09002,-0.46215 0.11367,-0.74373zM277.70717,193.68346c-0.19448,0.2619 -0.18489,0.45321 -0.13682,0.65849c0.00087,0.0174 0.03933,0.03141 0.0769,0.02805c0.05638,-0.00503 0.0922,-0.04318 0.09045,-0.07794c0.01009,-0.17554 -0.01744,-0.34773 -0.03054,-0.60856zM277.7542,196.12454c0.06422,0.15144 0.09176,0.32367 0.28572,0.42854c0.04764,-0.17893 0.02099,-0.33373 -0.00477,-0.47115c-0.11535,-0.04209 -0.18962,-0.01798 -0.28098,0.0426zM277.92046,192.66883c-0.1394,-0.14475 -0.14899,-0.33601 -0.34039,-0.38877c-0.04414,0.24848 -0.04414,0.24846 0.17476,0.47343c0.03671,-0.02075 0.07342,-0.0415 0.16562,-0.08466zM276.48936,199.50372c0.26044,-0.07569 0.38413,-0.24394 0.48814,-0.4279c-0.0616,-0.09928 -0.13678,-0.09257 -0.19051,-0.03538c-0.08693,0.14751 -0.19273,0.29671 -0.2976,0.46327zM275.67318,191.14062c0.1119,-0.02746 0.20495,-0.05324 0.25606,-0.16261c-0.07951,-0.08021 -0.15905,-0.16047 -0.27262,-0.16776c-0.09307,0.02577 -0.1477,0.06562 -0.18181,0.13854c0.04197,0.08356 0.10094,0.1307 0.19838,0.19184zM273.59842,197.56153c0.04939,-0.14413 0.08175,-0.25186 0.03892,-0.35282c-0.02053,-0.03311 -0.05898,-0.04714 -0.09745,-0.06117c-0.05638,0.00503 -0.12981,0.04653 -0.1084,0.09699c0.00524,0.10435 0.01135,0.22605 0.16693,0.31696zM272.44962,190.4682c-0.17174,-0.03704 -0.3177,0.06336 -0.46627,0.11157c0.23684,0.2059 0.27442,0.2025 0.46627,-0.11157zM267.68967,195.66198c0.06206,-0.26755 0.06207,-0.26754 -0.11229,-0.35676c-0.03236,0.10769 -0.06382,0.23279 0.11229,0.35676zM274.72099,196.98955c-0.07781,-0.04544 -0.13415,-0.0404 -0.15119,-0.00396c-0.08693,0.14751 -0.06556,0.19799 0.11143,0.33936c0.05028,-0.12673 0.04505,-0.23111 0.0398,-0.33544zM278.5033,193.75204c-0.08957,0.09536 -0.16037,0.18902 -0.11672,0.30735c0.29802,-0.07907 0.31505,-0.11546 0.11672,-0.30735zM267.26457,195.08871c-0.10665,0.13183 -0.11847,0.27257 -0.13113,0.39594c0.00347,0.06954 0.06248,0.11669 0.17174,0.03705c0.01266,-0.12338 0.0245,-0.2642 -0.04059,-0.43301zM277.19602,191.77295c-0.02885,0.17724 0.03187,0.25915 0.18395,0.28049c0,0 0.03671,-0.02075 0.03583,-0.03815c0.01354,-0.10602 -0.10264,-0.16548 -0.21977,-0.24238zM272.33244,197.53498c0.11097,-0.04486 0.1451,-0.11778 0.12281,-0.18562c-0.00174,-0.03478 -0.04108,-0.0662 -0.07952,-0.08023c-0.03847,-0.01401 -0.09306,0.02578 -0.0913,0.06056c-0.01618,0.05385 -0.0127,0.12338 0.04803,0.2053zM274.96535,190.57516c0.08127,0.11501 0.15905,0.16046 0.30589,0.07743c-0.10095,-0.1307 -0.17784,-0.15877 -0.30589,-0.07743z" fill="#000000"/><path d="M272.41418,203.67567c0.60216,-0.03635 1.20436,-0.07272 1.80565,-0.12649c0.67648,-0.06048 1.34942,-0.19051 1.99923,-0.40581c0.20407,-0.07065 0.36881,-0.17268 0.59079,-0.26238c0.01397,0.27824 0.045,0.51993 0.03841,0.76505c-0.00185,1.46732 0.0911,2.94361 0.12771,4.42495c0.02872,1.32485 0.07541,2.63063 0.12296,3.95381c0.0266,0.90585 0.0523,1.79435 0.07888,2.70018c0.02398,0.85371 0.08466,1.68663 0.10866,2.54031c0.00347,0.06956 0.00697,0.13912 -0.00832,0.21034c-0.25345,0.21481 -0.53097,0.32691 -0.84688,0.42505c-0.50212,0.14968 -1.02475,0.26627 -1.55174,0.29592c-0.16913,0.01514 -0.33734,0.04764 -0.49203,-0.02589c0.16738,-0.04991 0.35787,-0.01455 0.56021,-0.11995c-0.14546,-0.26644 -0.10396,-0.56706 -0.13672,-0.84362c-0.00087,-0.0174 -0.00174,-0.03476 -0.02052,-0.0331c-0.17386,-0.45603 -0.19917,-0.96029 -0.31758,-1.43878c-0.0463,-0.1705 -0.149,-0.336 -0.12016,-0.51322c0.02015,-0.35112 -0.16558,-0.66637 -0.14545,-1.01753c-0.00087,-0.0174 -0.02142,-0.05048 -0.02314,-0.08528c-0.07297,-0.32529 -0.16379,-0.63159 -0.19918,-0.96027c-0.01921,-0.38253 -0.18698,-0.71689 -0.16861,-1.10276c-0.12408,-0.21595 -0.09782,-0.44537 -0.12883,-0.68711c-0.00174,-0.03478 -0.00263,-0.05219 -0.00435,-0.08693c-0.16778,-0.33433 -0.11096,-0.70619 -0.20357,-1.04725c-0.09261,-0.34103 -0.07337,-0.70955 -0.14721,-1.05227c-0.07643,-0.39491 -0.2084,-0.76731 -0.17294,-1.18969c-0.00174,-0.03478 -0.00435,-0.08695 -0.02489,-0.12005c-0.12237,-0.18119 -0.07643,-0.39488 -0.10568,-0.60187c-0.00524,-0.10435 0.00745,-0.2277 -0.03538,-0.32869c-0.08298,-0.14978 -0.0712,-0.29055 -0.07906,-0.44706c-0.00436,-0.08695 0.01007,-0.17558 -0.03102,-0.24175c-0.12408,-0.21595 -0.09873,-0.46275 -0.11008,-0.68878c-0.00436,-0.08695 0.01004,-0.17555 -0.03101,-0.24176c-0.10352,-0.18287 -0.09437,-0.37582 -0.10394,-0.5671c-0.01573,-0.31301 -0.16294,-0.6142 -0.15986,-0.92886c0.01616,-0.05385 -0.04279,-0.10097 -0.06424,-0.15144z" fill="#87d7dc"/><path d="M272.41419,203.6757c0.02139,0.05047 0.08041,0.09761 0.08302,0.14978c-0.00306,0.31467 0.12537,0.61756 0.15987,0.92887c0.00959,0.19126 0.00041,0.38424 0.10394,0.56709c0.04107,0.06621 0.02666,0.15483 0.03104,0.24172c0.01137,0.22604 0.00475,0.47116 0.11003,0.68882c0.04108,0.0662 0.00787,0.15651 0.03104,0.24175c0.00786,0.15648 0.01484,0.29561 0.07906,0.44706c0.04281,0.10095 0.03013,0.2244 0.03537,0.32871c0.02927,0.20697 -0.01662,0.42068 0.10571,0.60186c0.02053,0.03311 0.02315,0.08526 0.0249,0.12004c-0.03629,0.40497 0.09652,0.79484 0.17297,1.18971c0.0747,0.36014 0.05544,0.72861 0.14716,1.05228c0.09262,0.34101 0.0358,0.71291 0.20357,1.04722c0.01963,0.01572 0.00261,0.05218 0.00436,0.08696c0.01137,0.22604 0.00478,0.47114 0.12887,0.68714c-0.03719,0.38759 0.13063,0.7219 0.16858,1.10276c0.01658,0.33037 0.12625,0.63495 0.19916,0.96028c0.00174,0.03478 0.02145,0.05049 0.02317,0.08527c-0.02015,0.35112 0.16558,0.66636 0.14545,1.01752c-0.00918,0.19294 0.0926,0.34105 0.12016,0.51323c0.0996,0.48014 0.14371,0.98274 0.31757,1.43876c0.00087,0.0174 0.02056,0.0331 0.02056,0.0331c0.03277,0.27654 -0.00879,0.57719 0.13673,0.84363c-0.18353,0.10374 -0.37494,0.05097 -0.56022,0.11993c-0.15031,0.01345 -0.30063,0.02685 -0.43742,-0.06574c-0.00524,-0.10435 0.00745,-0.2277 -0.03539,-0.32866c-0.14986,-0.35337 -0.14936,-0.72024 -0.20529,-1.08204c-0.05591,-0.36176 -0.20578,-0.71515 -0.1686,-1.10273c-0.12408,-0.21595 -0.09787,-0.44537 -0.12887,-0.68712c-0.00174,-0.03478 -0.00436,-0.08694 -0.0249,-0.12004c-0.10181,-0.14812 -0.07294,-0.32532 -0.09959,-0.48017c-0.00436,-0.08695 -0.00876,-0.17388 -0.03101,-0.24174c-0.11316,-0.37415 -0.20842,-0.76732 -0.22848,-1.16727c-0.00259,-0.05218 0.01271,-0.12342 -0.02665,-0.15481c-0.10266,-0.16545 -0.09263,-0.34102 -0.10136,-0.51491c0.00918,-0.19294 -0.1311,-0.35508 -0.12274,-0.5654c0.00483,-0.27989 -0.10223,-0.53232 -0.15377,-0.80716c-0.05679,-0.37919 -0.18784,-0.73424 -0.20789,-1.13416c-0.00347,-0.06956 0.01094,-0.15819 -0.02928,-0.20698c-0.08211,-0.1324 -0.07123,-0.29053 -0.09784,-0.44535c-0.00697,-0.1391 -0.03275,-0.27651 -0.07642,-0.3949c-0.08649,-0.21934 -0.13544,-0.44201 -0.14769,-0.68545c-0.03711,-0.36346 -0.18699,-0.71686 -0.14983,-1.10442c-0.00174,-0.03478 -0.02311,-0.08526 -0.02489,-0.12005c-0.0747,-0.36014 -0.16821,-0.71853 -0.20529,-1.082c-0.01921,-0.38253 -0.18873,-0.75165 -0.17033,-1.13754c-0.00259,-0.05218 -0.04283,-0.10095 -0.06424,-0.15144c-0.04893,-0.22268 -0.07994,-0.46443 -0.03491,-0.69551c0.09308,-0.02578 0.16822,-0.03253 0.24252,-0.05661c0.2657,0.02865 0.49291,0.04326 0.73807,0.03881z" fill="#b0eef2"/><path d="M279.05741,194.26142c0.07294,0.32529 0.10481,0.58448 0.04274,0.85203c-0.14336,0.15255 -0.34741,0.22321 -0.55058,0.31122c-1.01863,0.38799 -2.03813,0.7586 -3.10221,0.99349c-0.80277,0.17656 -1.62432,0.35484 -2.45021,0.44614c-0.22547,0.02014 -0.47064,0.02462 -0.69352,0.09692c-0.09308,0.02578 -0.20584,0.03585 -0.31854,0.04594c-0.45447,-0.02924 -0.90369,0.04586 -1.35555,0.0688c-0.63976,0.03975 -1.28301,0.00993 -1.92797,-0.05468c-0.32292,-0.04099 -0.645,-0.0646 -0.98583,-0.0865c-0.26479,-0.01128 -0.49552,-0.09542 -0.72538,-0.16221c-0.14723,-0.30125 -0.17213,-0.42125 -0.15549,-0.84193c0.41423,-0.01959 0.81408,0.04946 1.23008,0.06469c0.39721,0.01689 0.8132,0.03209 1.20956,0.0316c0.41512,-0.00216 0.84821,-0.02343 1.26244,-0.04299c0.39632,-0.00049 0.80623,-0.10705 1.20525,-0.05537c0.40905,-0.1239 0.82503,-0.10868 1.23756,-0.16304c0.39373,-0.05266 0.80536,-0.12441 1.19824,-0.19447c0.41165,-0.07173 0.8224,-0.16087 1.25199,-0.25164c0.39199,-0.08744 0.80362,-0.15916 1.19476,-0.26403c0.40989,-0.10652 0.79925,-0.24611 1.2083,-0.37001c0.42782,-0.12559 0.81892,-0.23041 1.22447,-0.42387z" fill="#d1eaeb"/><path d="M271.69577,203.65262c-0.07429,0.0241 -0.14946,0.03083 -0.24251,0.05663c-0.04502,0.2311 -0.03367,0.45711 0.03491,0.69552c0.0214,0.05048 0.0616,0.09929 0.06422,0.15144c-0.01839,0.38587 0.13237,0.75671 0.17034,1.13754c0.01833,0.36515 0.13059,0.72189 0.20525,1.08202c0.00174,0.03478 0.02315,0.08528 0.0249,0.12004c-0.03719,0.38758 0.13058,0.72189 0.14979,1.10443c0.01137,0.22604 0.06116,0.46611 0.14769,0.68544c0.04454,0.1357 0.07035,0.27316 0.07644,0.39489c0.00786,0.15648 -0.00395,0.29726 0.09786,0.44537c0.04017,0.04879 0.02576,0.13744 0.02924,0.20699c0.01921,0.38253 0.15117,0.75496 0.20792,1.13416c0.05152,0.27486 0.15861,0.52726 0.15376,0.80716c-0.00918,0.19294 0.13107,0.35506 0.12274,0.5654c-0.01006,0.17556 -0.01925,0.3685 0.10133,0.51493c0.0214,0.05048 0.02403,0.10263 0.02667,0.15478c0.02007,0.39991 0.11439,0.77572 0.22847,1.16726c0.02313,0.08526 0.00875,0.17387 0.03099,0.24172c0.00786,0.15648 -0.00217,0.33205 0.09962,0.48013c0.02053,0.03311 0.02316,0.08526 0.02489,0.12003c0.01137,0.22604 0.00477,0.47116 0.12886,0.68713c-0.03717,0.38758 0.11269,0.74097 0.16861,1.10272c0.05591,0.36176 0.05632,0.74598 0.20528,1.08199c0.04281,0.10097 0.03011,0.22437 0.03538,0.3287c-0.16825,0.0325 -0.28621,-0.06173 -0.41863,-0.06734c-0.13062,-0.72187 -0.27826,-1.40735 -0.40711,-2.09446c-0.15113,-0.755 -0.28263,-1.49428 -0.415,-2.25093c-0.12974,-0.70453 -0.27828,-1.40735 -0.42679,-2.11018c-0.17603,-0.87504 -0.37001,-1.73098 -0.54519,-2.58863c-0.12712,-0.65236 -0.2542,-1.30471 -0.40014,-1.95536c-0.20183,-1.01245 -0.32936,-2.04904 -0.56877,-3.05812c-0.02577,-0.13741 -0.08914,-0.27147 -0.04061,-0.433c0.16913,-0.01514 0.34083,0.02192 0.51172,0.04157c0.0957,0.02636 0.26305,-0.02353 0.41778,0.04997z" fill="#87d7dc"/><path d="M274.78514,218.57186c0.39285,-0.07006 0.77042,-0.06889 1.16237,-0.15635c0.44749,-0.10986 0.89409,-0.23715 1.33545,-0.4687c0.05063,1.00851 0.10038,1.99962 0.14926,2.97336c-0.19708,0.20976 -0.43788,0.30112 -0.65901,0.40824c-0.42432,0.19514 -0.85476,0.26854 -1.30399,0.34364c-0.01882,0.00168 -0.05723,-0.01235 -0.07692,-0.02804c0.16388,-0.11944 0.10052,-0.25349 0.05594,-0.38925c-0.11142,-0.33938 -0.20405,-0.68039 -0.20268,-1.02984c-0.00347,-0.06956 -0.00699,-0.13911 -0.02928,-0.20696c-0.12934,-0.32031 -0.12799,-0.66972 -0.20095,-0.99508c-0.04713,-0.18793 -0.09178,-0.3236 -0.23027,-0.45098z" fill="#61afb4"/><path d="M271.29784,201.36522c0.66289,0.04554 1.31966,-0.03065 1.97995,-0.03731c0.30151,-0.00948 0.60043,-0.07117 0.89934,-0.13282c0.56198,-0.08516 1.1462,-0.10247 1.70468,-0.25723c0.22375,-0.05492 0.44749,-0.10985 0.65157,-0.18049c0.1298,-0.04654 0.26042,-0.0757 0.39199,-0.08745c0.02143,0.05045 0.04194,0.08358 0.04367,0.11838c0.00695,0.13909 0.01398,0.27819 0.02098,0.41729c-0.09132,0.06058 -0.16477,0.10204 -0.25695,0.14523c-0.66595,0.26913 -1.35076,0.53996 -2.08362,0.60548c-0.63802,0.07452 -1.29475,0.15071 -1.9363,0.15567c-0.50912,0.0106 -1.01732,0.03856 -1.51459,-0.09163c0.09219,-0.0432 0.20757,-0.0011 0.27746,-0.11214c0.02798,-0.19462 0.07301,-0.42572 -0.17825,-0.54297z" fill="#61aeb3"/><path d="M271.80727,202.48988c0.3177,-0.06333 0.62356,0.01413 0.94387,0.00295c0.67735,-0.04311 1.35467,-0.08616 2.02937,-0.18144c0.54316,-0.08348 1.06409,-0.23489 1.56444,-0.41933c0.1298,-0.04654 0.25955,-0.09307 0.38935,-0.13962c0.01223,0.24344 0.02274,0.4521 0.03405,0.67815c-0.21501,0.22881 -0.49253,0.34093 -0.79054,0.42002c-0.35353,0.1015 -0.72582,0.20461 -1.10077,0.2556c-0.84208,0.14512 -1.67063,0.18428 -2.51707,0.24251c-0.15031,0.01344 -0.30067,0.02689 -0.43656,-0.0483c-0.00436,-0.08695 0.01003,-0.17556 -0.03102,-0.24175c-0.08388,-0.16716 -0.07559,-0.37752 -0.08519,-0.56875z" fill="#61aeb3"/><path d="M274.78513,218.57186c0.11887,0.11166 0.18219,0.2457 0.20971,0.4179c0.07294,0.32531 0.0716,0.67479 0.20095,0.99505c0.02228,0.06789 0.0258,0.13744 0.02927,0.207c0.01835,0.36516 0.11007,0.68878 0.20269,1.02982c0.04368,0.11838 0.10794,0.26981 -0.05595,0.38926c-0.28099,0.04258 -0.54579,0.03134 -0.79443,-0.03376c-0.06861,-0.23841 -0.15596,-0.47513 -0.13062,-0.7219c-0.00174,-0.03478 -0.02314,-0.08527 -0.0249,-0.12004c-0.07383,-0.3427 -0.14854,-0.70283 -0.20357,-1.04724c-0.02665,-0.15481 -0.0336,-0.29392 -0.07905,-0.44706c-0.06594,-0.18623 -0.09524,-0.39322 -0.01088,-0.59288c0.09307,-0.02577 0.16823,-0.0325 0.24252,-0.05659c0.13152,-0.01174 0.28275,-0.00782 0.41424,-0.01959z" fill="#87d7dc"/><path d="M271.36222,192.87098c0.23773,0.22327 0.34563,0.49303 0.43476,0.76458c0.02228,0.06787 0.02751,0.17221 0.01223,0.24344c-0.12501,0.51768 -0.17489,1.02868 -0.20593,1.53795c0.00087,0.0174 -0.01617,0.05383 -0.03408,0.07293c-0.07255,0.05887 -0.1665,0.06732 -0.26306,0.02354c-0.00174,-0.03478 -0.02231,-0.06789 -0.02404,-0.10265c-0.00211,-0.41897 -0.06066,-0.83295 -0.21227,-1.22112c-0.06683,-0.20362 -0.07644,-0.39492 0.00703,-0.61195c0.10141,-0.2361 0.14641,-0.46719 0.28541,-0.70671z" fill="#cce5e6"/><path d="M270.36661,195.59732c-0.11011,0.06225 -0.18615,0.05158 -0.24514,0.00446c-0.07946,-0.83127 -0.07948,-0.83126 -0.41678,-1.53467c0.02274,-0.29898 0.13943,-0.6063 0.21945,-0.8929c0.1298,-0.04654 0.15378,0.05611 0.19399,0.10492c0.14114,0.17949 0.28139,0.34164 0.38581,0.54191c0.06337,0.13409 0.08823,0.25412 0.05765,0.39654c-0.09093,0.44481 -0.16218,0.90526 -0.19501,1.37977z" fill="#cce5e6"/><path d="M274.35211,218.59311c-0.0743,0.0241 -0.14948,0.03083 -0.24251,0.0566c-0.08436,0.19967 -0.05509,0.40663 0.0109,0.59289c0.04545,0.15315 0.05243,0.29223 0.07904,0.44707c0.05504,0.34441 0.12974,0.7045 0.20357,1.04723c0.00174,0.03478 0.02316,0.08528 0.02489,0.12005c-0.00568,0.26249 0.08078,0.48182 0.13059,0.72188c-0.15206,-0.02132 -0.28537,-0.04437 -0.44092,-0.13526c-0.0808,-0.48183 -0.20009,-0.97771 -0.26298,-1.47859c-0.0808,-0.48183 -0.23676,-0.95692 -0.26296,-1.47857c0.3015,-0.00948 0.53048,0.03989 0.76034,0.10664z" fill="#60adb2"/><path d="M275.0754,196.90547c0.07428,-0.02411 0.12982,-0.04652 0.20408,-0.07064c0.03935,0.03141 0.05896,0.04713 0.07863,0.06282c0.09,0.28886 0.23551,0.55534 0.39975,0.82008c0.06247,0.11668 0.08652,0.21935 0.03625,0.34608c-0.08174,0.25184 -0.12499,0.51769 -0.35881,0.74819c-0.23681,-0.20589 -0.38233,-0.47234 -0.50902,-0.74047c-0.02143,-0.05045 -0.00694,-0.13911 0.00832,-0.21032c0.04062,-0.31799 0.08132,-0.63609 0.14078,-0.95579z" fill="#cce5e6"/><path d="M275.11766,192.48278c0.08389,0.16713 0.14548,0.26647 0.20796,0.38315c0.1053,0.21767 0.13455,0.42461 0.03405,0.67814c-0.14818,0.43241 -0.23906,0.87723 -0.21726,1.31192c0.00696,0.1391 -0.01095,0.15816 -0.2373,0.16097c-0.00261,-0.05217 -0.02405,-0.10264 -0.02664,-0.15484c-0.00303,-0.43638 -0.08034,-0.84863 -0.21403,-1.25588c-0.024,-0.10266 -0.04717,-0.18791 -0.014,-0.27823c0.13722,-0.27428 0.2369,-0.54516 0.46723,-0.8452z" fill="#cae2e3"/><path d="M272.58473,195.4165c-0.01964,-0.0157 -0.04024,-0.04883 -0.04107,-0.06621c0.0175,-0.40325 -0.07686,-0.77908 -0.18913,-1.13587c-0.09262,-0.34101 -0.10921,-0.67143 0.06214,-1.01857c0.08611,-0.16489 0.09526,-0.35783 0.21985,-0.5087c0.31899,0.33825 0.41507,0.74887 0.30275,1.14316c-0.12677,0.48293 -0.27318,0.95011 -0.22908,1.45272c-0.01616,0.05385 -0.0127,0.1234 -0.12543,0.13349z" fill="#c9e1e2"/><path d="M273.80325,192.61778c0.20186,0.26142 0.28924,0.4981 0.37748,0.7522c0.02313,0.08526 0.0275,0.17219 -0.00658,0.24512c-0.14468,0.502 -0.2509,1.01799 -0.31955,1.53062c0.00174,0.03478 -0.01441,0.0886 -0.10925,0.07962c-0.00611,-0.1217 -0.01309,-0.2608 -0.03798,-0.38086c-0.03623,-0.34607 -0.09129,-0.69047 -0.22062,-1.01076c-0.08742,-0.23671 -0.07993,-0.46443 0.04113,-0.68485c0.08611,-0.16489 0.17304,-0.31241 0.27534,-0.53115z" fill="#c9e1e2"/><path d="M276.25045,196.62577c0.10841,-0.09701 0.20236,-0.10542 0.29629,-0.11382c0.01964,0.01569 0.04023,0.04882 0.05984,0.06451c0.05153,0.27485 0.17739,0.5256 0.35786,0.7365c0.10093,0.1307 0.12669,0.26813 0.07816,0.42967c-0.06554,0.19797 -0.11142,0.41169 -0.21544,0.59566c-0.21453,-0.13801 -0.47282,-0.39439 -0.51737,-0.53014c-0.04197,-0.08356 -0.00788,-0.15649 0.00659,-0.24512c-0.03361,-0.2939 0.02581,-0.61364 -0.0659,-0.93725z" fill="#cae3e4"/><path d="M269.88181,198.34792c0.17392,-0.295 0.29153,-0.58496 0.38943,-0.89065c0.11096,-0.04484 0.18619,-0.05159 0.28275,-0.00783c0.10966,0.30456 0.09037,0.67307 0.21883,0.97599c-0.08437,0.19966 -0.22943,0.31744 -0.35397,0.46831c-0.07164,0.07625 -0.12365,0.16823 -0.25432,0.19739c-0.16167,-0.21262 -0.15683,-0.49248 -0.28267,-0.74323z" fill="#c8e0e1"/><path d="M272.84726,197.2619c0.16997,0.00227 0.19226,0.07014 0.21455,0.13801c0.08828,0.25412 0.17563,0.4908 0.24511,0.74658c0.02229,0.06788 0.02578,0.13743 -0.0083,0.21036c-0.12193,0.203 -0.26267,0.40772 -0.42303,0.59674c-0.09916,-0.09593 -0.12322,-0.19859 -0.18482,-0.29789c-0.18479,-0.29786 -0.21845,-0.59177 0.01183,-0.89183c0.10578,-0.1492 0.13462,-0.32643 0.14465,-0.502z" fill="#cbe4e5"/><path d="M271.66342,197.36774c0.09394,-0.00843 0.15031,-0.01346 0.20669,-0.01851c0.02053,0.03311 0.05897,0.04715 0.05986,0.06451c0.04713,0.18793 0.0756,0.37751 0.12276,0.56542c0.02401,0.10267 0.00959,0.19128 -0.04243,0.28326c-0.15601,0.27593 -0.33173,0.53618 -0.56377,0.80146c-0.1394,-0.14472 -0.16603,-0.29953 -0.19267,-0.45434c-0.00346,-0.06953 -0.00696,-0.13911 0.02795,-0.1946c0.23031,-0.30006 0.32561,-0.65791 0.38158,-1.04715z" fill="#c8e0e1"/><path d="M271.80727,202.48986c0.00959,0.19126 0.00128,0.40163 0.10485,0.58449c0.04108,0.0662 0.02661,0.15479 0.031,0.24173c-0.31855,0.04594 -0.62182,0.02067 -0.90979,-0.07588c0.02538,-0.24679 -0.062,-0.48348 -0.11007,-0.68877c0.12716,-0.0987 0.26133,-0.05829 0.37229,-0.10315c0.16825,-0.0325 0.35704,-0.0319 0.51171,0.04157z" fill="#85d5d9"/><path d="M276.58848,193.20715c-0.08086,0.26923 -0.16169,0.53844 -0.22292,0.82337c-0.04417,0.24848 0.12013,0.51324 -0.14866,0.79924c-0.02969,-0.59116 -0.18739,-1.10108 -0.3451,-1.61095c0.08437,-0.19966 0.1866,-0.4184 0.36669,-0.59169c0.03935,0.03141 0.05899,0.04713 0.07864,0.06281c0.10267,0.16547 0.18659,0.33265 0.27133,0.51716z" fill="#c6dede"/><path d="M271.0782,192.47718c-0.11671,0.30739 -0.21633,0.57823 -0.33303,0.88562c-0.15554,-0.0909 -0.21893,-0.22496 -0.3181,-0.32087c-0.10008,-0.11329 -0.23683,-0.20591 -0.30104,-0.35735c-0.00611,-0.1217 0.06381,-0.23276 0.11491,-0.34212c0.05111,-0.10936 0.12109,-0.2204 0.20978,-0.33316c0.2683,0.08081 0.42907,0.27604 0.62748,0.4679z" fill="#cae3e3"/><path d="M269.16577,195.73962c-0.15774,-0.50988 -0.31109,-0.93283 -0.57631,-1.32826c0.06384,-0.23279 0.10885,-0.46384 0.1718,-0.714c0.25127,0.11726 0.3557,0.31751 0.4968,0.49701c0.02053,0.03311 0.02314,0.08529 0.02488,0.12004c-0.03455,0.43973 -0.06909,0.87949 -0.11719,1.42521z" fill="#cae3e4"/><path d="M274.11569,198.84267c-0.20187,-0.2614 -0.3653,-0.50878 -0.21362,-0.87165c0.10053,-0.25352 0.10623,-0.51603 0.11193,-0.77852c-0.00524,-0.10435 0.08782,-0.13013 0.20234,-0.10544c-0.02359,0.28155 0.08343,0.53401 0.19049,0.78643c0.08477,0.18453 0.05506,0.34439 -0.03105,0.50929c-0.06818,0.14581 -0.09793,0.30567 -0.26008,0.45992z" fill="#c8e0e1"/><path d="M271.29784,201.3652c0.25213,0.13465 0.2062,0.34833 0.1979,0.55867c-0.06991,0.11102 -0.18439,0.08636 -0.27744,0.11215c-0.24513,0.00444 -0.47411,-0.04496 -0.70488,-0.12913c0.00918,-0.19294 -0.07556,-0.37749 0.00964,-0.55977c0.09308,-0.02578 0.14947,-0.03083 0.22461,-0.03755c0.18966,0.01796 0.3793,0.03591 0.55016,0.0556z" fill="#85d4d9"/><path d="M272.23628,198.62644c0.12583,0.25074 0.21235,0.47006 0.31766,0.6877c-0.15952,0.20638 -0.33866,0.39707 -0.53843,0.55464c-0.1333,-0.02301 -0.17609,-0.12399 -0.23595,-0.18848c-0.05986,-0.06451 -0.1197,-0.12901 -0.10702,-0.25241c0.13988,-0.22208 0.33431,-0.48398 0.56376,-0.80145z" fill="#c7dfe0"/><path d="M275.22909,199.21473c-0.12284,0.18565 -0.22684,0.36958 -0.40687,0.5429c-0.23336,-0.13632 -0.33776,-0.33657 -0.48063,-0.55086c0.12106,-0.22041 0.2421,-0.44084 0.36231,-0.67866c0.20011,0.22664 0.34302,0.44097 0.5252,0.68663z" fill="#c8e0e1"/><path d="M271.95224,191.84007c0.1573,0.12569 0.31458,0.25135 0.41815,0.43421c-0.10053,0.25352 -0.21984,0.5087 -0.33828,0.78127c-0.03755,0.00334 -0.07514,0.00671 -0.07602,-0.01068c-0.1206,-0.14642 -0.24205,-0.3102 -0.34386,-0.45829c-0.04107,-0.06621 -0.06338,-0.13407 -0.02841,-0.18958c0.10228,-0.21873 0.14817,-0.43243 0.36842,-0.55695z" fill="#c4dcdd"/><path d="M274.85423,192.12209c-0.13897,0.23948 -0.25918,0.47728 -0.39817,0.71679c-0.15292,-0.03874 -0.15989,-0.17783 -0.22151,-0.27713c-0.0616,-0.09928 -0.10532,-0.21766 -0.16779,-0.33431c0.08349,-0.21704 0.26444,-0.37291 0.40604,-0.56029c0.21277,0.10322 0.29667,0.2704 0.38141,0.45495z" fill="#c8e0e1"/><path d="M275.75076,199.08077c0.11935,-0.25519 0.22074,-0.49135 0.33918,-0.7639c0.19489,0.12228 0.29842,0.3052 0.47455,0.42918c-0.06297,0.25014 -0.24301,0.42345 -0.38286,0.64552c-0.19313,-0.08753 -0.34782,-0.16102 -0.43081,-0.3108z" fill="#c6ddde"/><path d="M277.40149,196.2434c0.20276,0.27881 0.3133,0.60075 0.57065,0.83974c-0.04588,0.2137 -0.07388,0.40835 -0.19581,0.61136c-0.23157,-0.10156 -0.37101,-0.2463 -0.3465,-0.51045c0.04065,-0.318 -0.01264,-0.62764 -0.02835,-0.94064z" fill="#b9cfd0"/><path d="M268.10131,195.59026c-0.11535,-0.04209 -0.0634,-0.13408 -0.08564,-0.20191c-0.04543,-0.15314 -0.07209,-0.30791 -0.19008,-0.40221c-0.15992,-0.17784 -0.15076,-0.37076 -0.12362,-0.5828c0.01445,-0.08864 0.04763,-0.17893 0.07911,-0.304c0.25391,0.16941 0.45052,0.32653 0.39194,0.6636c-0.04501,0.23109 -0.01403,0.47285 -0.02147,0.70056c0.00259,0.05217 0.00523,0.10434 -0.05026,0.12676z" fill="#c0d8d8"/><path d="M269.03847,198.8425c-0.10181,-0.14812 -0.14636,-0.28382 -0.15336,-0.42292c-0.00346,-0.06953 -0.0079,-0.1565 0.02708,-0.21201c0.15779,-0.24117 0.25828,-0.49467 0.35882,-0.7482c0.13152,-0.01173 0.11622,0.05947 0.11886,0.11166c0.00873,0.17389 0.01835,0.36516 0.06465,0.53567c0.04892,0.22269 0.00041,0.38421 -0.18139,0.52275c-0.09133,0.06057 -0.14509,0.11777 -0.23466,0.21308z" fill="#c1d9d9"/><path d="M273.85212,199.23304c-0.10313,0.20132 -0.24651,0.35389 -0.38809,0.54121c-0.21192,-0.08584 -0.27786,-0.27207 -0.39849,-0.41849c0.12018,-0.23782 0.319,-0.41278 0.49733,-0.62085c0.14025,0.16214 0.20536,0.33099 0.28928,0.49814z" fill="#c3dbdc"/><path d="M273.21237,192.88021c-0.125,-0.23336 -0.23026,-0.45103 -0.35435,-0.66699c0.06728,-0.16324 0.1355,-0.30903 0.29936,-0.4285c0.1761,0.124 0.27876,0.28947 0.40028,0.45326c-0.06385,0.23278 -0.16693,0.43409 -0.34525,0.64216z" fill="#c3dadb"/><path d="M272.21995,200.1824c0.18007,-0.1733 0.34218,-0.32751 0.5043,-0.48172c0.19401,0.10491 0.29669,0.27039 0.39936,0.43586c-0.12366,0.16826 -0.26787,0.30341 -0.45052,0.4245c-0.05811,-0.02975 -0.13589,-0.0752 -0.17521,-0.10658c-0.09918,-0.09593 -0.15992,-0.17781 -0.2779,-0.2721z" fill="#c4dbdc"/><path d="M268.38088,197.3992c0.01658,0.33041 0.02966,0.59124 0.04368,0.86941c-0.08785,0.13014 -0.19625,0.22714 -0.3627,0.29439c-0.11707,-0.07687 -0.08562,-0.20194 -0.12843,-0.30292c-0.04282,-0.10095 -0.06683,-0.20362 -0.07123,-0.29056c0.17919,-0.19073 0.32253,-0.34326 0.51874,-0.57037z" fill="#c2d9da"/><path d="M270.67846,191.65704c0.06818,-0.14581 0.15685,-0.25856 0.26613,-0.33818c0.14945,-0.03082 0.22986,0.06683 0.32641,0.11055c0.09654,0.04372 0.21017,0.05106 0.27264,0.16773c-0.02884,0.17724 -0.15253,0.34548 -0.27446,0.54856c-0.09835,-0.07855 -0.19667,-0.15709 -0.29408,-0.21825c-0.09916,-0.09593 -0.19838,-0.19184 -0.2967,-0.27039z" fill="#c5ddde"/><path d="M274.53642,200.0801c-0.08524,0.18231 -0.23294,0.2479 -0.34043,0.36231c-0.21105,-0.06849 -0.35046,-0.21321 -0.50953,-0.37362c0.12453,-0.15087 0.24912,-0.30173 0.3549,-0.45094c0.23157,0.10157 0.33603,0.30183 0.49506,0.46225z" fill="#c3dbdc"/><path d="M269.36343,193.66099c-0.07781,-0.04544 -0.11711,-0.07682 -0.15644,-0.10822c-0.07951,-0.08021 -0.15993,-0.17784 -0.25911,-0.27376c0.11935,-0.25519 0.18225,-0.50534 0.37936,-0.7151c0.1333,0.02301 0.19403,0.10491 0.2753,0.21992c-0.06207,0.26754 -0.14121,0.57153 -0.23906,0.87722z" fill="#c7dfe0"/><path d="M271.14633,199.47497c-0.18092,0.1559 -0.28494,0.33983 -0.48726,0.44526c-0.17435,-0.08923 -0.20275,-0.27877 -0.33952,-0.37135c0.1578,-0.24117 0.33868,-0.39708 0.51787,-0.58776c0.19577,0.13971 0.20535,0.33095 0.30895,0.51382z" fill="#c7dee0"/><path d="M271.29477,202.43089c-0.11097,0.04486 -0.24514,0.00442 -0.37229,0.10316c0.04892,0.22269 0.11749,0.46107 0.11007,0.68878c-0.07606,-0.01067 -0.17086,-0.01967 -0.24776,-0.04769c-0.11535,-0.04209 -0.19486,-0.12231 -0.20101,-0.24405c-0.02927,-0.20695 -0.05768,-0.39654 -0.08691,-0.60355c0.24429,-0.02185 0.3579,-0.01453 0.79793,0.10332z" fill="#61acb1"/><path d="M276.08514,192.20416c-0.12284,0.18565 -0.22856,0.33479 -0.37018,0.52214c-0.12409,-0.21596 -0.24729,-0.41451 -0.35261,-0.63217c0.08694,-0.1475 0.17482,-0.27761 0.30111,-0.39372c0.19577,0.1397 0.29842,0.30516 0.42165,0.50374z" fill="#c2dada"/><path d="M269.15159,199.21664c0.12284,-0.18565 0.2679,-0.30341 0.43006,-0.45763c0.08741,0.23671 0.17302,0.43866 0.25865,0.64062c-0.06728,0.16323 -0.19623,0.22714 -0.34218,0.32751c-0.17522,-0.10657 -0.24123,-0.29285 -0.3465,-0.51045z" fill="#c1d9d9"/><path d="M273.8417,191.88076c-0.17784,-0.15878 -0.29755,-0.28779 -0.43608,-0.41516c0.04764,-0.17892 0.19186,-0.31408 0.3361,-0.44923c0.17344,0.07183 0.32901,0.16271 0.4505,0.32652c-0.0459,0.21369 -0.22947,0.31744 -0.3505,0.53787z" fill="#c6dedf"/><path d="M275.91552,199.72975c-0.12366,0.16825 -0.26703,0.3208 -0.39157,0.47166c-0.16997,-0.00227 -0.28621,-0.06173 -0.40509,-0.17339c0.06385,-0.23278 0.26444,-0.37292 0.38635,-0.57599c0.17263,0.05441 0.27264,0.16775 0.41031,0.2777z" fill="#c0d7d7"/><path d="M268.48344,193.42524c-0.06555,0.19798 -0.07389,0.40832 -0.23425,0.59735c-0.11887,-0.11166 -0.23684,-0.20593 -0.35481,-0.30015c-0.01045,-0.20864 0.07476,-0.39091 0.2181,-0.54344c0.15292,0.03873 0.25123,0.11726 0.37097,0.24625z" fill="#c3dadb"/><path d="M270.76643,201.30791c-0.07516,0.00672 -0.14947,0.03085 -0.22464,0.03758c-0.08524,0.18231 -0.0005,0.36682 -0.00964,0.55977c-0.13065,0.02914 -0.21107,-0.06848 -0.34346,-0.07409c-0.0865,-0.21932 -0.04064,-0.43302 -0.18351,-0.64729c0.18702,-0.03416 0.30236,0.00789 0.43656,0.04829c0.09571,0.02635 0.22551,-0.02013 0.32465,0.07577z" fill="#5aa0a4"/><path d="M278.63554,197.51284c-0.06555,0.19796 -0.07389,0.40836 -0.21635,0.57827c-0.1333,-0.02301 -0.21195,-0.08587 -0.32994,-0.18008c0.02798,-0.19465 0.09354,-0.39262 0.19841,-0.55921c0.1333,0.02302 0.21106,0.06847 0.34782,0.16104z" fill="#bdd3d4"/><path d="M273.04057,200.73778c0.12631,-0.1161 0.23382,-0.23049 0.3413,-0.34489c0.17347,0.07184 0.29235,0.18347 0.41207,0.31247c-0.04939,0.14413 -0.17919,0.19073 -0.3107,0.20247c-0.16911,0.01516 -0.3382,0.03026 -0.44266,-0.17001z" fill="#bdd4d5"/><path d="M277.47251,193.14556c-0.08349,0.21703 -0.16784,0.41674 -0.25129,0.63376c-0.20623,-0.34833 -0.31674,-0.67031 0.04422,-0.9995c0.11707,0.07687 0.14286,0.21429 0.20709,0.36573z" fill="#bbd2d3"/><path d="M271.27301,200.49413c-0.15379,-0.05612 -0.23421,-0.15374 -0.31459,-0.25136c-0.00611,-0.1217 0.08612,-0.1649 0.1578,-0.24115c0.05374,-0.05719 0.10661,-0.13177 0.21851,-0.15924c0.15379,0.05612 0.16255,0.22996 0.31724,0.30347c-0.10487,0.16659 -0.23203,0.26529 -0.37884,0.34829z" fill="#c3dadb"/><path d="M273.01338,195.3083c0.02191,-0.31634 0.04374,-0.63267 0.14079,-0.95575c0.11359,0.00733 0.13681,0.09258 0.14112,0.17952c0.03012,0.22436 0.04149,0.45036 0.05196,0.65903c0.00786,0.15648 -0.10315,0.20138 -0.33385,0.11718z" fill="#b1c6c7"/><path d="M276.9883,199.66875c0.03057,-0.14244 0.14072,-0.20471 0.21151,-0.29836c0.12282,-0.18566 0.29105,-0.21816 0.52093,-0.15137c-0.10053,0.25351 -0.31818,0.43016 -0.49908,0.58606c-0.13241,-0.00563 -0.19054,-0.03536 -0.23336,-0.13632z" fill="#bbd2d3"/><path d="M275.52257,194.90929c-0.09176,-0.32367 0.02495,-0.63098 0.12197,-0.95408c0.12499,0.23336 0.13803,0.49418 0.16906,0.73592c0.02665,0.15482 -0.02797,0.19466 -0.29104,0.21814z" fill="#bad1d2"/><path d="M278.41054,196.41518c0.1385,0.12736 0.27527,0.21994 0.41378,0.34725c-0.01443,0.08863 -0.0647,0.21539 -0.09616,0.34045c-0.3426,-0.0567 -0.34347,-0.07409 -0.33603,-0.30183c-0.00609,-0.12171 0.00659,-0.24513 0.0184,-0.38589z" fill="#b5cbcc"/><path d="M272.92901,190.61747c0.19051,0.03538 0.30766,0.11221 0.42473,0.18908c-0.04852,0.16155 -0.19537,0.24451 -0.32164,0.36062c-0.13591,-0.07515 -0.25296,-0.15205 -0.38888,-0.22722c0.01094,-0.15816 0.17828,-0.20808 0.28582,-0.3225z" fill="#c0d7d8"/><path d="M277.3332,197.89134c0.11447,0.02472 0.19403,0.1049 0.27445,0.20252c-0.04504,0.23109 -0.16694,0.43412 -0.32822,0.60572c-0.13065,0.02914 -0.17086,-0.01966 -0.21277,-0.10322c0.08257,-0.23444 0.1652,-0.4689 0.26661,-0.70501z" fill="#bdd4d4"/><path d="M276.29585,191.88841c-0.1206,-0.14642 -0.22328,-0.31187 -0.34388,-0.45829c0.07081,-0.09366 0.16302,-0.13684 0.27574,-0.14694c0.11446,0.02471 0.15643,0.10825 0.21715,0.19014c0.04107,0.06621 0.08214,0.13237 0.12322,0.19858c-0.05113,0.10939 -0.12281,0.18566 -0.27228,0.21648z" fill="#b6cccc"/><path d="M272.5767,191.8716c-0.13849,-0.12736 -0.25735,-0.23897 -0.41468,-0.36467c0.01354,-0.106 0.06468,-0.2154 0.23119,-0.28268c0.13592,0.07514 0.27267,0.16773 0.42821,0.25861c-0.06818,0.14581 -0.11843,0.2726 -0.24475,0.38868z" fill="#c1d9d9"/><path d="M277.07441,192.36024c-0.06818,0.14581 -0.1381,0.2569 -0.26527,0.35557c-0.1385,-0.12736 -0.1848,-0.2979 -0.24817,-0.43194c0.03057,-0.14244 0.14158,-0.18731 0.23292,-0.24788c0.05724,0.01235 0.09483,0.009 0.09571,0.02635c0.06157,0.09929 0.1232,0.19857 0.1848,0.2979z" fill="#b7cdce"/><path d="M278.14547,193.76657c-0.15991,-0.17785 -0.16778,-0.33432 -0.21323,-0.48746c-0.06512,-0.16884 0.04415,-0.24848 0.1713,-0.34718c0.1385,0.12736 0.18394,0.28049 0.26609,0.41288c-0.02886,0.17723 -0.21414,0.24622 -0.2242,0.42177z" fill="#b6cccc"/><path d="M278.26742,198.45404c-0.08696,0.1475 -0.15687,0.25854 -0.22593,0.38698c-0.16825,0.0325 -0.28099,0.04258 -0.41687,-0.03259c0.10489,-0.16658 0.19099,-0.33148 0.27793,-0.47897c0.16647,-0.06731 0.24686,0.03034 0.36049,0.03761c0.00174,0.03478 0.02229,0.06789 0.00439,0.08696z" fill="#c2dada"/><path d="M271.96761,191.0178c-0.05028,0.12673 -0.10401,0.18395 -0.19621,0.22716c-0.1119,0.02746 -0.19051,-0.03537 -0.28709,-0.07911c-0.0778,-0.04544 -0.21018,-0.05106 -0.23509,-0.1711c0.08872,-0.1127 0.19708,-0.20973 0.36447,-0.25964c0.13678,0.09257 0.23596,0.1885 0.35395,0.28276z" fill="#bbd2d3"/><path d="M269.68461,200.05974c0.12717,-0.0987 0.21764,-0.17666 0.32687,-0.25629c0.13767,0.10995 0.21977,0.24235 0.32074,0.37307c-0.06991,0.11104 -0.16039,0.18903 -0.29192,0.20073c-0.03847,-0.01401 -0.0769,-0.02807 -0.09746,-0.06116c-0.07864,-0.06281 -0.15819,-0.14309 -0.25824,-0.25638z" fill="#bbd2d3"/><path d="M278.91695,196.35242c-0.23509,-0.17111 -0.23511,-0.17112 -0.34386,-0.4583c0.08698,-0.14751 0.23643,-0.17832 0.40292,-0.24559c0.06861,0.23842 -0.014,0.47283 -0.05904,0.70392z" fill="#adc2c3"/><path d="M271.60469,200.70901c0.06991,-0.11104 0.17921,-0.19069 0.30984,-0.21981c0.13767,0.10995 0.25563,0.20415 0.37444,0.31582c-0.31071,0.20246 -0.32948,0.20416 -0.68432,-0.09596z" fill="#b5cbcc"/><path d="M275.40267,191.39191c-0.08783,0.13014 -0.15866,0.22377 -0.28584,0.32246c-0.15465,-0.07349 -0.2189,-0.22496 -0.33864,-0.354c0.03497,-0.05553 0.07079,-0.09363 0.10661,-0.13179c0.03583,-0.03815 0.09132,-0.06058 0.14597,-0.1004c0.17174,0.03704 0.27089,0.13295 0.37187,0.26368z" fill="#bbd1d2"/><path d="M268.51618,199.34331c-0.19402,-0.10492 -0.22327,-0.31188 -0.32423,-0.44257c0.06907,-0.12842 0.19973,-0.15761 0.309,-0.23723c0.14114,0.17949 0.18743,0.35003 0.14065,0.54633c0.00259,0.05216 -0.0708,0.09366 -0.12541,0.13348z" fill="#b6cccd"/><path d="M269.01347,192.32989c-0.12018,0.23782 -0.26006,0.45989 -0.3811,0.6803c-0.13242,-0.00564 -0.21017,-0.05104 -0.29146,-0.16605c0.17828,-0.20808 0.35659,-0.41613 0.59388,-0.57709c0.03935,0.03143 0.05899,0.04713 0.07865,0.06281z" fill="#acc1c2"/><path d="M274.41657,194.30955c0.06773,0.22101 0.11665,0.44371 0.09039,0.67308c-0.01445,0.08864 -0.0673,0.16321 -0.16124,0.17162c-0.03754,0.00335 -0.11448,-0.02472 -0.11535,-0.0421c-0.03188,-0.25913 0.08655,-0.53172 0.18619,-0.8026z" fill="#a7bbbb"/><path d="M274.752,190.83874c-0.03235,0.1077 -0.12366,0.16826 -0.23379,0.23049c-0.13678,-0.09257 -0.27353,-0.18515 -0.41031,-0.27771c0.06818,-0.14581 0.18005,-0.17328 0.31157,-0.18504c0.11535,0.04209 0.23335,0.13631 0.33253,0.23228z" fill="#b7cdcd"/><path d="M274.47475,200.73183c0.08524,-0.18231 0.21241,-0.28096 0.35835,-0.38136c0.15292,0.03873 0.26918,0.09819 0.35218,0.24797c-0.22024,0.12448 -0.44661,0.12724 -0.71054,0.13341z" fill="#b7cece"/><path d="M267.38539,197.87246c-0.14201,-0.19689 -0.07818,-0.42964 -0.18089,-0.59512c0.06991,-0.11102 0.14597,-0.10037 0.18618,-0.05157c0.10094,0.1307 0.18397,0.28049 0.19266,0.45435c-0.01617,0.05386 -0.01532,0.07123 -0.19796,0.19237z" fill="#b4cacb"/><path d="M269.77118,192.38443c-0.11534,-0.04208 -0.17435,-0.0892 -0.21631,-0.17276c0.12282,-0.18566 0.24474,-0.38867 0.50083,-0.5513c0.03361,0.2939 -0.12677,0.4829 -0.28453,0.72407z" fill="#b2c8c9"/><path d="M270.57341,200.46934c0.13591,0.07515 0.23335,0.13633 0.27616,0.23729c-0.01529,0.07123 -0.0708,0.09369 -0.12631,0.1161c-0.22198,0.08971 -0.32205,-0.02363 -0.42471,-0.18908c0.09219,-0.0432 0.18354,-0.10376 0.27487,-0.16432z" fill="#b5cbcb"/><path d="M276.77282,194.62287c-0.03013,-0.22436 -0.03974,-0.4156 0.00616,-0.62929c0.09308,-0.02576 0.13328,0.02301 0.1359,0.07516c0.02489,0.12005 0.06859,0.23843 0.09348,0.35844c0.00696,0.1391 -0.06644,0.18058 -0.23554,0.19567z" fill="#91a3a3"/><path d="M269.61502,194.91352c0.14201,0.19689 0.13456,0.42462 0.14502,0.63328c0.00174,0.03478 -0.03409,0.07293 -0.0708,0.09365c-0.03755,0.00334 -0.0957,-0.02635 -0.09658,-0.04376c-0.06861,-0.23842 -0.04236,-0.4678 0.02233,-0.68318z" fill="#99abac"/><path d="M268.74281,195.58533c-0.12804,0.08132 -0.22199,0.0897 -0.26395,0.00612c-0.04368,-0.11838 -0.01482,-0.29558 0.04898,-0.52835c0.14029,0.16212 0.14986,0.35336 0.21495,0.52221z" fill="#93a5a6"/><path d="M276.28694,200.36021c0.14074,-0.2047 0.26178,-0.42513 0.607,-0.31628c-0.13989,0.22207 -0.38413,0.24392 -0.607,0.31628z" fill="#9aadad"/><path d="M275.86496,197.21913c-0.06337,-0.13409 -0.12758,-0.2855 -0.19005,-0.40222c0.05202,-0.09198 0.10751,-0.11441 0.22113,-0.1071c0.10183,0.14811 0.0354,0.32871 0.06205,0.48352c-0.03755,0.00334 -0.05638,0.00503 -0.09311,0.02579z" fill="#c5dddd"/><path d="M272.00491,194.76968c0.18046,0.21092 0.19178,0.437 0.12799,0.66974c0.00087,0.0174 -0.03584,0.03817 -0.07342,0.04152c-0.05551,0.02242 -0.0957,-0.02635 -0.09744,-0.06114c-0.02843,-0.18957 0.01751,-0.4033 0.04287,-0.65011z" fill="#aec2c3"/><path d="M268.84609,199.52339c0.1385,0.12736 0.20361,0.29617 0.26783,0.44765c-0.052,0.09198 -0.12807,0.08131 -0.16913,0.01514c-0.08128,-0.11501 -0.16165,-0.21262 -0.22499,-0.34668c-0.03935,-0.03143 0.01441,-0.0886 0.1263,-0.11609z" fill="#9caeaf"/><path d="M273.73783,190.56263c-0.17174,-0.03705 -0.28794,-0.0965 -0.42473,-0.18909c0.24078,-0.0914 0.45009,-0.05772 0.67558,-0.07786c-0.01618,0.05386 -0.01445,0.08864 -0.03237,0.10766c-0.07255,0.05887 -0.14594,0.10037 -0.21848,0.15927z" fill="#a9bebf"/><path d="M270.98697,197.42819c0.1298,-0.04654 0.20579,-0.03587 0.28362,0.00961c0.02749,0.1722 -0.02102,0.33372 -0.20019,0.52442c-0.04806,-0.20531 -0.05589,-0.36179 -0.08345,-0.534z" fill="#b9cfd0"/><path d="M276.86525,196.46598c0.05201,-0.09196 0.12632,-0.11607 0.20059,-0.14019c0.0957,0.02638 0.10007,0.11329 0.06462,0.53567c-0.23073,-0.08416 -0.18396,-0.28048 -0.26522,-0.39549z" fill="#869797"/><path d="M270.87921,194.90527c-0.04241,0.28325 0.13893,0.51158 -0.11367,0.74373c-0.08827,-0.25412 -0.07997,-0.46442 0.11367,-0.74373z" fill="#93a4a5"/><path d="M277.70717,193.68346c0.01309,0.2608 0.0218,0.4347 0.03054,0.60857c0.00174,0.03478 -0.03409,0.07293 -0.09045,0.07793c-0.01882,0.00168 -0.05725,-0.01236 -0.07692,-0.02805c-0.04808,-0.20528 -0.05768,-0.39661 0.1368,-0.65847z" fill="#94a5a6"/><path d="M277.7542,196.12454c0.10928,-0.07961 0.16472,-0.10207 0.26218,-0.04092c0.02577,0.13741 0.05242,0.29225 0.00478,0.47117c-0.194,-0.10495 -0.20272,-0.27878 -0.26696,-0.43022z" fill="#abbfc0"/><path d="M277.92046,192.66883c-0.0922,0.04319 -0.12891,0.06392 -0.16652,0.06729c-0.21892,-0.22495 -0.21888,-0.22492 -0.17473,-0.47339c0.19313,0.08753 0.20189,0.26138 0.34123,0.40612z" fill="#acc0c1"/><path d="M276.48936,199.50372c0.10578,-0.1492 0.19185,-0.31408 0.31641,-0.46494c0.05374,-0.05719 0.12893,-0.0639 0.19051,0.03537c-0.12284,0.18565 -0.24648,0.35389 -0.50693,0.42955z" fill="#9fb2b2"/><path d="M275.67318,191.14062c-0.09747,-0.06118 -0.15642,-0.1083 -0.19837,-0.19184c0.03408,-0.07294 0.0887,-0.11274 0.18179,-0.13853c0.11361,0.00733 0.19312,0.08754 0.27265,0.16776c-0.03235,0.1077 -0.14421,0.13515 -0.25606,0.1626z" fill="#aec2c3"/><path d="M273.59841,197.5615c-0.15465,-0.07347 -0.1608,-0.19524 -0.1857,-0.31526c-0.00259,-0.05217 0.05199,-0.09195 0.10837,-0.097c0.03755,-0.00334 0.09573,0.02636 0.09745,0.06114c0.0616,0.09928 0.02926,0.20701 -0.02014,0.35112z" fill="#91a2a3"/><path d="M272.44962,190.4682c-0.19187,0.31409 -0.20974,0.33318 -0.46627,0.11157c0.14858,-0.0482 0.27575,-0.14692 0.46627,-0.11157z" fill="#869696"/><path d="M267.68967,195.66198c-0.17609,-0.12401 -0.12497,-0.23334 -0.11229,-0.35676c0.17346,0.07184 0.17346,0.07184 0.11229,0.35676z" fill="#555f5f"/><path d="M274.72099,196.98956c0.00437,0.08694 0.01047,0.20863 -0.03979,0.33542c-0.17697,-0.14138 -0.18044,-0.21092 -0.11143,-0.33934c0.01705,-0.03646 0.07343,-0.04152 0.1512,0.00396z" fill="#93a5a6"/><path d="M278.5033,193.75204c0.19838,0.19185 0.18136,0.22831 -0.11672,0.30735c-0.04369,-0.11838 0.02708,-0.21202 0.11672,-0.30735z" fill="#8b9b9c"/><path d="M267.26457,195.08871c0.0651,0.16885 0.05327,0.30959 0.04145,0.45043c-0.11011,0.06225 -0.16825,0.03249 -0.17172,-0.03707c-0.00698,-0.1391 0.00484,-0.27989 0.13022,-0.41335z" fill="#9aacad"/><path d="M277.19602,191.77295c0.11707,0.07687 0.23246,0.11896 0.22067,0.25974c0.00085,0.0174 -0.01704,0.03647 -0.03583,0.03815c-0.17087,-0.01966 -0.21369,-0.12065 -0.18482,-0.29789z" fill="#5f6a6b"/><path d="M272.33244,197.53499c-0.05986,-0.06451 -0.06337,-0.13409 -0.04804,-0.20532c0.01705,-0.03646 0.05288,-0.07458 0.09133,-0.06055c0.03847,0.01401 0.0778,0.04544 0.07951,0.08023c0.00346,0.06953 -0.01182,0.14077 -0.12282,0.18563z" fill="#636e6f"/><path d="M274.96535,190.57516c0.12892,-0.06391 0.22373,-0.05494 0.30589,0.07743c-0.14683,0.08298 -0.22461,0.03757 -0.30589,-0.07743z" fill="#4a5354"/></g><g fill="#000000" stroke="#000000" stroke-width="1.2"><path d="M264.18435,217.46534c-0.55782,-1.78074 0.97282,-4.75742 1.1486,-7.04566c0.18928,-2.46362 -0.92807,-4.07309 0.05283,-5.38965c0.68516,-0.91961 2.27111,-1.00537 3.09755,-0.94187c2.00964,0.15437 3.37817,3.67168 3.05671,7.85611c-0.32145,4.18443 -2.21117,7.45143 -4.22079,7.29705c-0.91066,-0.06995 -2.67265,-0.30032 -3.13491,-1.77594z"/><path d="M267.53759,219.88959c-0.75521,-2.48998 0.68287,-8.31658 0.68287,-8.31658c0,0 -0.82211,-3.84121 -0.81396,-3.92741c0.51816,-5.49321 4.00296,-5.28674 7.96011,-4.98273c1.88334,0.14467 4.72071,1.13079 5.61778,2.93187c1.01739,2.04263 0.23452,4.72813 -0.00149,7.80035c-0.44413,5.78111 -3.20532,10.51184 -7.22457,10.20307c-1.76926,-0.13592 -5.21204,-0.38292 -6.22072,-3.70857z"/></g></g><path d="M266.44977,162.23002c1.44049,1.74747 -1.6124,6.39554 -6.81883,10.38176c-5.20643,3.98622 -10.59483,5.80108 -12.03532,4.05362c-1.44049,-1.74747 1.6124,-6.39554 6.81883,-10.38176c5.20643,-3.98622 10.59483,-5.80108 12.03532,-4.05362z" fill="none" fill-rule="nonzero" stroke="#000000" stroke-width="4.5" stroke-linecap="butt" stroke-linejoin="miter"/><g fill="#ff0000" fill-rule="nonzero" stroke="none" stroke-linecap="butt" stroke-linejoin="miter"><path d="M286.49983,222.34938c1.04432,0.59491 1.56735,1.88432 1.1682,2.87999c-0.39913,0.99566 -1.5693,1.32054 -2.61361,0.72563c-1.04432,-0.59491 -1.56735,-1.88432 -1.16821,-2.87999c0.39913,-0.99566 1.56931,-1.32054 2.61362,-0.72564z" stroke-width="NaN"/><path d="M291.5478,222.27234c0.96078,0.54732 1.45205,1.70847 1.09725,2.59349c-0.35479,0.88504 -1.42127,1.15883 -2.38205,0.61149c-0.96078,-0.54732 -1.45203,-1.70848 -1.09724,-2.59351c0.35479,-0.88504 1.42126,-1.15881 2.38204,-0.61149z" stroke-width="0"/><path d="M293.77371,227.14918c1.00254,0.57111 1.52768,1.75156 1.17288,2.63658c-0.35479,0.88504 -1.45513,1.13952 -2.45769,0.5684c-1.00254,-0.57111 -1.52768,-1.75155 -1.17288,-2.63658c0.35479,-0.88504 1.45513,-1.13952 2.45768,-0.5684z" stroke-width="0"/><path d="M282.57386,214.77904c-0.52983,0.57483 -1.5916,0.44925 -2.37156,-0.2805c-0.77997,-0.72976 -0.98275,-1.78733 -0.45292,-2.36215c0.52983,-0.57483 1.59161,-0.44925 2.37158,0.28051c0.77997,0.72976 0.98273,1.78732 0.45291,2.36215z" stroke-width="NaN"/><path d="M282.3847,218.78897c-0.48744,0.52884 -1.4446,0.43172 -2.13791,-0.21695c-0.6933,-0.64867 -0.86018,-1.60323 -0.37274,-2.13207c0.48744,-0.52884 1.44461,-0.43171 2.13791,0.21696c0.6933,0.64867 0.86018,1.60323 0.37274,2.13207z" stroke-width="0"/><path d="M285.57603,218.28575c-0.55101,0.59783 -1.53631,0.57851 -2.20072,-0.04312c-0.66441,-0.62164 -0.75633,-1.61021 -0.20531,-2.20803c0.55101,-0.59783 1.53631,-0.57851 2.20072,0.04313c0.66441,0.62164 0.75633,1.6102 0.20532,2.20802z" stroke-width="0"/><path d="M278.41985,229.2432c0.87617,0.85359 0.99293,2.1491 0.26082,2.89363c-0.73212,0.74452 -2.03589,0.6561 -2.91206,-0.19749c-0.87617,-0.85359 -0.99294,-2.14909 -0.26082,-2.89362c0.73212,-0.74452 2.0359,-0.65611 2.91206,0.19748z" stroke-width="NaN"/><path d="M283.61402,230.78418c0.80606,0.7853 0.93196,1.95839 0.28119,2.62018c-0.65077,0.66179 -1.83177,0.56167 -2.63784,-0.22363c-0.80606,-0.7853 -0.93197,-1.95839 -0.2812,-2.62019c0.65077,-0.66179 1.83177,-0.56167 2.63785,0.22363z" stroke-width="0"/><path d="M276.12957,221.67223c-0.72924,0.33445 -1.77574,-0.11382 -2.33738,-1.00122c-0.56165,-0.88741 -0.42577,-1.8779 0.30347,-2.21235c0.72924,-0.33445 1.77573,0.11382 2.33738,1.00122c0.56165,0.88741 0.42578,1.87789 -0.30346,2.21234z" stroke-width="NaN"/><path d="M270.59936,223.59418c-0.70009,0.32106 -1.67232,-0.05812 -2.17158,-0.84692c-0.49926,-0.7888 -0.33645,-1.68853 0.36364,-2.0096c0.70009,-0.32106 1.67233,0.05811 2.17158,0.84691c0.49926,0.7888 0.33644,1.68853 -0.36364,2.0096z" stroke-width="0"/><path d="M278.0648,225.69892c-0.75842,0.34781 -1.7611,0.01697 -2.23954,-0.73896c-0.47845,-0.75593 -0.25149,-1.65071 0.50692,-1.99853c0.75842,-0.34781 1.76111,-0.01697 2.23955,0.73896c0.47845,0.75593 0.25148,1.6507 -0.50694,1.99854z" stroke-width="0"/></g><path d="M316.93662,157.24715c14.74818,23.25117 7.31659,54.39732 -16.59888,69.56687c-23.91547,15.16954 -55.25857,8.61812 -70.00675,-14.63306c-14.74818,-23.25117 -7.31659,-54.39732 16.59888,-69.56687c23.91547,-15.16954 55.25857,-8.61812 70.00675,14.63306z" fill="#000000" fill-rule="nonzero" stroke="#7d7d7d" stroke-width="4" stroke-linecap="butt" stroke-linejoin="miter"/><path d="M294.81307,139.93854c9.00809,3.09352 14.04548,12.19713 11.25133,20.33346c-2.79415,8.13634 -12.36176,12.22434 -21.36984,9.13082c-9.00809,-3.09352 -14.04548,-12.19713 -11.25133,-20.33346c2.79415,-8.13634 12.36176,-12.22434 21.36984,-9.13082z" fill="#888888" fill-rule="nonzero" stroke="none" stroke-width="0" stroke-linecap="butt" stroke-linejoin="miter"/><g stroke-linejoin="miter"><path d="M275.95047,145.11722c1.2447,13.3933 -9.09275,25.3052 -23.08937,26.60598c-13.9966,1.30077 -26.35213,-8.50216 -27.59683,-21.89546c-1.2447,-13.3933 9.09275,-25.3052 23.08937,-26.60598c13.9966,-1.30077 26.35213,8.50216 27.59683,21.89546z" fill="none" fill-rule="nonzero" stroke="#000000" stroke-width="4.5" stroke-linecap="butt"/><g stroke-linecap="butt"><g fill-rule="nonzero"><path d="M234.12958,133.20038l0.01215,0.00701" fill="#ffab19" stroke="#000000" stroke-width="5"/><g fill="none" stroke="none" stroke-width="1" font-family="sans-serif" font-weight="normal" font-size="12" text-anchor="start"/></g><path d="M234.12958,133.20038l0.01215,0.00701" fill="#ffab19" fill-rule="nonzero" stroke="#000000" stroke-width="5"/><path d="M250.43062,148.71714" fill="#001026" fill-rule="evenodd" stroke="#000000" stroke-width="5"/><g fill="none" fill-rule="nonzero" stroke="none" stroke-width="1" font-family="sans-serif" font-weight="normal" font-size="12" text-anchor="start"/><g fill="none" fill-rule="nonzero" stroke="none" stroke-width="1" font-family="sans-serif" font-weight="normal" font-size="12" text-anchor="start"/></g><path d="M247.17447,173.12904l-29.34297,2.49227c0,0 -2.42544,-0.11539 -2.16362,-1.04511c0.60037,-2.1319 5.69321,-11.48829 5.69321,-11.48829l-12.00312,-2.87471c0,0 -2.20386,-0.70291 -2.6236,-1.76789c-0.39047,-0.9907 10.08762,-11.3659 10.08762,-11.3659c0,0 -8.56555,-2.82918 -10.97863,-4.59445c-0.94756,-0.69318 10.84533,-9.47247 19.13146,-13.98718c4.05464,-2.20918 9.55941,-5.48017 14.16226,-6.64137c7.63186,-1.92535 13.81628,-0.19844 13.81628,-0.19844" fill="none" fill-rule="nonzero" stroke="#000000" stroke-width="3" stroke-linecap="round"/><path d="M215.96984,175.79433c0,0 -0.6578,-1.34879 0.38755,-3.38713c1.30933,-2.55307 6.32599,-6.28412 4.46071,-8.4824c-2.41628,-2.84766 -14.92946,-1.22534 -13.73931,-5.19953c0.97726,-3.26328 9.70219,-9.56167 9.5105,-11.6242c-0.19125,-2.05798 -4.62316,-0.38337 -7.48603,-2.88023c-4.07164,-3.55106 -2.28168,-3.72301 -2.28168,-3.72301c0,0 10.97887,-8.52495 16.4239,-11.48836c5.10866,-2.78034 15.30158,-5.77791 15.30158,-5.77791c0,0 -13.59851,15.07 -14.9762,23.28142c-1.52718,9.1025 17.67778,25.99322 17.67778,25.99322z" fill="url(#color-1)" fill-rule="nonzero" stroke="none" stroke-width="0" stroke-linecap="butt"/></g><path d="M247.41985,145.52834c1.91522,2.4179 0.98183,6.34712 -2.08476,8.77617c-3.0666,2.42905 -7.10516,2.4381 -9.02036,0.0202c-1.91522,-2.4179 -0.98183,-6.34712 2.08476,-8.77617c3.0666,-2.42905 7.10516,-2.4381 9.02036,-0.0202z" fill="none" fill-rule="nonzero" stroke="#000000" stroke-width="4.5" stroke-linecap="butt" stroke-linejoin="miter"/><path d="M238.77299,163.86755c0,0 1.68079,-1.92268 4.70662,-1.91271c2.80453,0.00923 12.8349,1.97043 12.8349,1.97043" fill="none" fill-rule="nonzero" stroke="#000000" stroke-width="3" stroke-linecap="round" stroke-linejoin="miter"/></g></g></svg>