<svg version="1.1" xmlns="http://www.w3.org/2000/svg" xmlns:xlink="http://www.w3.org/1999/xlink" width="72.66828" height="113.7607" viewBox="0,0,72.66828,113.7607"><defs><linearGradient x1="212.75957" y1="167.3313" x2="190.35494" y2="166.13833" gradientUnits="userSpaceOnUse" id="color-1"><stop offset="0" stop-color="#000000"/><stop offset="1" stop-color="#000000" stop-opacity="0"/></linearGradient></defs><g transform="translate(-191.25592,-136.10466)"><g data-paper-data="{&quot;isPaintingLayer&quot;:true}" stroke-miterlimit="10" stroke-dasharray="" stroke-dashoffset="0" style="mix-blend-mode: normal"><path d="M234.58807,205.4013l0.98643,-15.86593" fill="none" fill-rule="nonzero" stroke="#000000" stroke-width="6" stroke-linecap="round" stroke-linejoin="miter"/><path d="M209.97247,210.59442c0.76273,-0.97734 25.54948,-19.45635 25.54948,-19.45635c0,0 18.68695,20.27408 21.57892,21.61526" fill="none" fill-rule="nonzero" stroke="#000000" stroke-width="6" stroke-linecap="round" stroke-linejoin="miter"/><path d="M243.71914,204.1031l2.92297,25.98777c0,0 7.06267,0.41252 6.89471,7.51322c-0.00958,0.40481 -0.10976,2.39235 -3.02746,2.97403c-2.79456,0.55712 -8.36532,-0.27515 -10.40081,-0.59138c-0.94539,-0.14688 -2.3855,-0.78756 -3.30585,-1.88454c-0.92663,-1.1045 -0.82654,-2.71079 -0.82591,-3.6144c0.00025,-0.36804 -2.07942,-29.30669 -2.07942,-29.30669" fill="#000000" fill-rule="evenodd" stroke="#001026" stroke-width="1.2" stroke-linecap="round" stroke-linejoin="round"/><path d="M233.75788,209.71143c0,0 -3.38365,30.23157 -4.0011,30.33136c-1.77192,0.28635 -11.48215,-2.27779 -11.48215,-2.27779l6.24171,-30.39505" data-paper-data="{&quot;index&quot;:null}" fill="#000000" fill-rule="evenodd" stroke="#001026" stroke-width="1.2" stroke-linecap="round" stroke-linejoin="round"/><path d="M232.09405,238.15796c-0.02471,0.4906 -0.78326,4.37077 -2.69077,7.11812c-1.4878,2.14285 -4.06623,3.2049 -4.98327,3.98929c-1.09796,0.93914 -4.37918,-1.08183 -5.95259,-4.45725c-1.25725,-2.69714 -0.97219,-6.71096 -0.93513,-7.44681c0.1713,-3.40126 1.92809,0.46456 6.39105,0.73978c4.46293,0.27521 8.34201,-3.3444 8.17069,0.05688z" fill="#004eff" fill-rule="nonzero" stroke="#001026" stroke-width="1.2" stroke-linecap="butt" stroke-linejoin="miter"/><path d="M220.90155,216.53362c0,0 7.23416,-25.13095 9.1924,-26.70396c0.57497,-0.46186 10.92189,-0.0389 10.92189,-0.0389l6.55182,28.17098z" fill="#f2c311" fill-rule="nonzero" stroke="#000000" stroke-width="1" stroke-linecap="butt" stroke-linejoin="miter"/><path d="M236.49383,240.21611c-1.60575,-1.19302 -2.25986,-3.39806 -2.15991,-5.05479c0.03057,-0.50678 7.68604,-0.66832 11.11866,-2.06752c2.71266,-1.10573 1.28615,-3.62809 1.82152,-3.22762c0.11104,0.08306 2.41338,0.33854 5.06018,2.71517c1.71769,1.54236 4.07661,5.4665 4.38914,5.75655c0.5514,0.51174 0.17694,2.66529 -3.97455,3.1422c-5.47186,0.62859 -15.2936,-0.54968 -16.25503,-1.26399z" fill="#004eff" fill-rule="nonzero" stroke="#001026" stroke-width="1.2" stroke-linecap="butt" stroke-linejoin="miter"/><path d="M229.95578,226.08156c0,0 -2.49763,1.0461 -3.50879,0.77033c-1.07959,-0.29444 -2.77692,-2.48462 -2.77692,-2.48462" fill="none" fill-rule="nonzero" stroke="#001026" stroke-width="1" stroke-linecap="round" stroke-linejoin="miter"/><path d="M244.67007,225.36727c0,0 -2.58743,1.64272 -3.85496,1.74213c-1.14948,0.09015 -3.43075,-1.1707 -3.43075,-1.1707" fill="none" fill-rule="nonzero" stroke="#001026" stroke-width="1" stroke-linecap="round" stroke-linejoin="miter"/><g fill-rule="nonzero" stroke-linejoin="miter"><path d="M261.6742,165.9692c-0.7152,13.43199 -12.67426,23.71486 -26.7113,22.96743c-14.03703,-0.74743 -24.8365,-12.24211 -24.12129,-25.6741c0.7152,-13.43199 12.67426,-23.71486 26.7113,-22.96743c14.03703,0.74743 24.8365,12.24211 24.12129,25.6741z" fill="none" stroke="#000000" stroke-width="4.5" stroke-linecap="butt"/><path d="M229.13232,189.50101l-29.39362,-1.79915c0,0 -2.38292,-0.4667 -1.98874,-1.3485c0.90387,-2.02199 7.30256,-10.53879 7.30256,-10.53879l-11.45782,-4.58882c0,0 -2.07829,-1.01576 -2.33878,-2.13043c-0.24233,-1.03694 11.63251,-9.77897 11.63251,-9.77897c0,0 -8.06337,-4.04413 -10.19424,-6.14139c-0.83674,-0.82355 12.10697,-7.79552 20.96131,-11.05792c4.33268,-1.59638 10.25443,-4.03253 14.97718,-4.51238c7.83067,-0.79562 13.6984,1.81184 13.6984,1.81184" fill="none" stroke="#000000" stroke-width="3" stroke-linecap="round"/><path d="M197.87166,187.60243c0,0 -0.45477,-1.43008 0.87575,-3.29483c1.66651,-2.33565 7.17219,-5.2979 5.64626,-7.74396c-1.97671,-3.16862 -14.59283,-3.3823 -12.83767,-7.1413c1.44119,-3.08658 10.98894,-8.04994 11.09907,-10.11843c0.10989,-2.06392 -4.51834,-1.05127 -6.9879,-3.93773c-3.51226,-4.10515 -1.71632,-4.01512 -1.71632,-4.01512c0,0 12.10136,-6.83866 17.9193,-8.97917c5.45853,-2.00827 15.97888,-3.49249 15.97888,-3.49249c0,0 -15.6445,12.93344 -18.20108,20.85742c-2.834,8.78386 13.71197,28.28662 13.71197,28.28662z" data-paper-data="{&quot;index&quot;:null}" fill="url(#color-1)" stroke="none" stroke-width="0" stroke-linecap="butt"/><path d="M234.14959,166.21494c-0.02195,2.76134 -1.31314,4.98971 -3.7063,4.9707c-2.39316,-0.01902 -2.64879,-2.25971 -2.62684,-5.02104c0.02195,-2.76134 0.31316,-4.99767 2.70634,-4.97865c2.39316,0.01902 3.64876,2.26766 3.62681,5.02899z" fill="#070606" stroke="#000000" stroke-width="5" stroke-linecap="butt"/><path d="M248.31714,166.16088c-0.01976,2.48521 -1.15992,4.49093 -3.36899,4.47337c-2.20907,-0.01755 -2.81855,-1.87051 -2.7988,-4.35572c0.01976,-2.48521 0.66126,-4.66156 2.87033,-4.644c2.20907,0.01755 3.31721,2.04115 3.29746,4.52635z" fill="#070606" stroke="#000000" stroke-width="5" stroke-linecap="butt"/></g><path d="M225.48616,155.54867l7.66667,6.33333" fill="none" fill-rule="nonzero" stroke="#000000" stroke-width="5" stroke-linecap="round" stroke-linejoin="miter"/><path d="M242.15283,160.882l11.33333,-1.33333" fill="none" fill-rule="nonzero" stroke="#000000" stroke-width="5" stroke-linecap="round" stroke-linejoin="miter"/><path d="M228.15283,180.54867l-7.33333,-4.66667" fill="none" fill-rule="nonzero" stroke="#000000" stroke-width="2.5" stroke-linecap="round" stroke-linejoin="miter"/></g></g></svg>