<svg version="1.1" xmlns="http://www.w3.org/2000/svg" xmlns:xlink="http://www.w3.org/1999/xlink" width="72.85466" height="104.43422" viewBox="0,0,72.85466,104.43422"><defs><linearGradient x1="222.97968" y1="211.25015" x2="244.93398" y2="211.25015" gradientUnits="userSpaceOnUse" id="color-1"><stop offset="0" stop-color="#ffd166"/><stop offset="1" stop-color="#ac880b"/></linearGradient><linearGradient x1="203.1707" y1="165.00591" x2="245.62079" y2="166.84348" gradientUnits="userSpaceOnUse" id="color-2"><stop offset="0" stop-color="#000000"/><stop offset="1" stop-color="#000000" stop-opacity="0"/></linearGradient><linearGradient x1="263.06284" y1="154.86215" x2="261.88518" y2="182.06757" gradientUnits="userSpaceOnUse" id="color-3"><stop offset="0" stop-color="#2a0000" stop-opacity="0"/><stop offset="1" stop-color="#2a0000"/></linearGradient><linearGradient x1="238.07488" y1="153.32671" x2="236.86665" y2="181.23827" gradientUnits="userSpaceOnUse" id="color-4"><stop offset="0" stop-color="#2a0000" stop-opacity="0"/><stop offset="1" stop-color="#2a0000"/></linearGradient><linearGradient x1="202.73052" y1="186.9163" x2="222.03942" y2="187.75213" gradientUnits="userSpaceOnUse" id="color-5"><stop offset="0" stop-color="#000000"/><stop offset="1" stop-color="#000000" stop-opacity="0"/></linearGradient></defs><g transform="translate(-201.54687,-139.0781)"><g data-paper-data="{&quot;isPaintingLayer&quot;:true}" stroke-miterlimit="10" stroke-dasharray="" stroke-dashoffset="0" style="mix-blend-mode: normal"><g stroke-width="1.2"><path d="M243.95707,208.52034c0,0 7.28812,11.13384 8.36886,15.37196c0.73744,2.89181 -2.36997,7.5898 -2.36997,7.5898c0,0 7.86795,-0.1725 8.37794,6.1794c0.02907,0.36212 0.11184,2.1442 -3.12271,2.89089c-3.09803,0.71517 -9.46514,0.40641 -11.7928,0.28277c-1.08108,-0.05743 -2.76898,-0.51712 -3.91541,-1.42466c-1.15426,-0.91376 -1.19957,-2.3555 -1.28788,-3.1622c-0.01172,-0.10704 3.29867,-9.40284 3.05571,-10.61006c-0.12221,-0.60722 -8.28878,-15.38998 -8.28878,-15.38998" fill="#784200" fill-rule="evenodd" stroke="#4d2a00" stroke-linecap="round" stroke-linejoin="round"/><path d="M233.36244,215.4935c-0.52266,-6.50966 5.49681,-7.0388 8.64601,-7.19709c1.36939,-0.06883 9.03982,7.42858 12.062,13.70994c0.7919,1.6459 0.55569,5.84146 0.4877,7.83981c-0.02389,0.70216 -0.82657,-0.20052 -0.82657,-0.20052c0,0 0.88118,0.73097 1.26536,1.39803c0.39653,0.68854 0.7777,1.77869 0.7777,1.77869l-2.35539,-0.80947c0,0 -8.08199,0.14458 -10.98854,2.38703c-2.90655,2.24245 -0.93465,5.94902 -0.93465,5.94902c0,0 -6.03426,-0.31258 -6.79824,-2.87876c-0.18835,-0.63263 0.52476,-2.60321 0.52476,-2.60321c0,0 -0.66893,0.1549 -0.73994,-0.28725c-0.02304,-0.1434 2.87963,-4.95114 4.47735,-7.49433c0.91345,-1.45401 0.92195,-1.30221 0.92195,-1.30221c0,0 -6.44421,-9.35174 -6.51952,-10.28967z" fill="#ff8d00" fill-rule="nonzero" stroke="#c46c00" stroke-linecap="butt" stroke-linejoin="miter"/></g><path d="M222.97972,209.77789c-0.01116,-0.19142 1.35757,0.37294 4.45904,0.43816c4.09164,0.08605 10.35784,-0.29892 12.11986,-0.4959c4.56921,-0.51078 5.34243,-1.87034 5.37202,-1.36292c0.10947,1.87773 -2.47503,5.35593 -7.70217,5.54672c-2.29708,0.08383 -6.99544,0.71263 -9.65604,0.05154c-3.39372,-0.84326 -4.53134,-3.12507 -4.59271,-4.17761z" fill="url(#color-1)" fill-rule="nonzero" stroke="#c46c00" stroke-width="1.2" stroke-linecap="butt" stroke-linejoin="miter"/><g fill-rule="nonzero" stroke-linecap="butt" stroke-linejoin="miter"><g fill="none" stroke="none" stroke-width="1" font-family="sans-serif" font-weight="normal" font-size="12" text-anchor="start"/><path d="M223.0125,207.39795c0,0 9.48387,2.33179 13.94787,2.84995c4.464,0.51816 8.3722,-0.25913 8.3722,-0.25913c0,0 -0.31266,1.82151 -2.64054,3.35183c-1.80192,1.18456 -5.03287,2.24823 -8.86391,1.82002c-3.49018,-0.39011 -7.26728,-1.4352 -8.96433,-2.85442c-2.57222,-2.15115 -1.85129,-4.90824 -1.85129,-4.90824z" fill="#ff8d00" stroke="#c46c00" stroke-width="1.2"/></g><g stroke-width="1.2"><path d="M231.90084,213.21529c0,0 -3.58412,27.09045 -4.23814,27.17987c-1.8769,0.2566 -12.16241,-2.04112 -12.16241,-2.04112l6.61149,-27.23694" data-paper-data="{&quot;index&quot;:null}" fill="#ffab19" fill-rule="evenodd" stroke="#001026" stroke-linecap="round" stroke-linejoin="round"/><path d="M233.48483,212.77858c0,0 0.59772,7.43106 0.35042,10.46851c-0.15169,1.86318 -2.32553,8.20516 -2.32553,8.20516c0,0 0.89717,4.40025 0.54283,4.79997c-0.45528,0.51361 -1.87327,-2.14053 -1.87327,-2.14053c0,0 1.45973,3.04286 1.49917,3.34616c0.27514,2.11621 -0.98052,4.89522 -4.2709,5.15924c-3.61264,0.28987 -9.60186,0.61727 -12.68934,-1.05699c-2.79516,-1.51573 -2.89427,-4.95492 -2.51898,-6.36714c0.26354,-0.99173 2.12394,-1.52601 2.50063,-2.74523c0.25047,-0.8107 -2.78353,2.8741 -2.23519,1.79333c0.15943,-0.31421 2.39792,-5.26278 2.39792,-5.26278c0,0 0.33221,-4.59663 0.95864,-6.29881c2.51548,-6.83531 5.56128,-12.54966 5.56128,-12.54966" data-paper-data="{&quot;index&quot;:null}" fill="#ff8d00" fill-rule="evenodd" stroke="#c46c00" stroke-linecap="round" stroke-linejoin="round"/><path d="M230.13848,238.70618c-0.09056,1.52111 -0.82927,3.28843 -2.43263,4.20615c-1.60932,0.9211 -11.28136,0.55608 -12.7766,-0.56964c-1.41998,-1.06907 -1.99841,-3.045 -1.91003,-4.52958c0.18145,-3.04786 4.16081,-5.31874 8.88818,-5.07212c4.72733,0.24662 8.41253,2.91734 8.23106,5.96522z" fill="#784200" fill-rule="nonzero" stroke="#4d2a00" stroke-linecap="butt" stroke-linejoin="miter"/></g><path d="M235.50623,200.09535l6.40099,-5.82617c0,0 4.75812,3.04716 7.44955,3.81079c2.5708,0.7294 8.35375,0.673 8.35375,0.673l3.52555,3.67329c0,0 -8.2606,2.2606 -12.45529,1.88059c-4.37439,-0.39629 -13.27456,-4.21151 -13.27456,-4.21151z" fill="#000000" fill-rule="nonzero" stroke="#000000" stroke-width="0.5" stroke-linecap="butt" stroke-linejoin="miter"/><path d="M224.72372,209.65683l2.24825,-16.72771l13.93031,1.40519l4.87746,15.19115c0,0 -3.0519,1.78255 -6.39483,1.80341c-3.64892,0.02276 -14.66119,-1.67206 -14.66119,-1.67206z" fill="#000000" fill-rule="nonzero" stroke="#000000" stroke-width="0.5" stroke-linecap="butt" stroke-linejoin="miter"/><path d="M215.66869,213.12133l-5.82331,-5.90856l15.36245,-14.38967l5.28708,5.32382z" fill="#000000" fill-rule="nonzero" stroke="#000000" stroke-width="0.5" stroke-linecap="butt" stroke-linejoin="miter"/><path d="M211.48092,215.26216c-1.32601,-1.31297 -1.36555,-4.65991 -2.28056,-6.76459c-0.98512,-2.26601 -2.72554,-3.16588 -2.47442,-4.78836c0.17542,-1.13329 1.53705,-1.95095 2.2972,-2.28142c1.84842,-0.8036 4.70329,1.66501 6.37652,5.51378c1.67324,3.84876 1.53122,7.62028 -0.31721,8.42386c-0.83761,0.36415 -2.5027,0.98475 -3.60152,-0.10325z" fill="#000000" fill-rule="nonzero" stroke="#000000" stroke-width="1.2" stroke-linecap="butt" stroke-linejoin="miter"/><path d="M215.57866,215.83629c-1.83222,-1.84751 -3.28669,-7.67005 -3.28669,-7.67005c0,0 -2.52343,-3.01049 -2.55654,-3.09049c-2.11158,-5.09756 1.06504,-6.54516 4.70478,-8.1275c1.73226,-0.7531 4.70134,-1.20876 6.33671,-0.03649c1.8547,1.32949 2.41896,4.06927 3.64745,6.89505c2.31168,5.31739 2.08409,10.79024 -1.61275,12.39742c-1.62733,0.70747 -4.78578,2.09959 -7.23293,-0.36795z" fill="#000000" fill-rule="nonzero" stroke="#000000" stroke-width="1.2" stroke-linecap="butt" stroke-linejoin="miter"/><path d="M265.03891,170.39538c-1.18898,13.39837 -13.5036,23.25262 -27.50551,22.01008c-14.00189,-1.24254 -24.38882,-13.11132 -23.19984,-26.50969c1.18897,-13.39837 13.5036,-23.25261 27.50551,-22.01007c14.00189,1.24254 24.38882,13.11132 23.19983,26.50969z" fill="none" fill-rule="nonzero" stroke="#000000" stroke-width="4.5" stroke-linecap="butt" stroke-linejoin="miter"/><path d="M229.69943,145.85778c0,0 -9.61881,4.49202 -13.77392,12.57461c-2.8688,5.58043 -1.04125,14.98456 -0.17936,17.18696c2.90452,7.42201 8.15611,12.60734 5.78447,10.28745c-2.63623,-2.57872 -3.05982,-6.57042 -5.17622,-7.4772c-1.23937,-0.53101 -6.21429,1.28172 -11.50848,-6.39162c-1.77008,-2.56555 -3.54272,-14.86823 3.29887,-21.55683c1.69506,-1.65717 14.82011,-8.88809 19.34726,-9.90305c11.68156,-2.61895 18.26121,1.78699 18.26121,1.78699" fill="url(#color-2)" fill-rule="nonzero" stroke="#000000" stroke-width="3" stroke-linecap="round" stroke-linejoin="miter"/><path d="M262.1021,182.07695c-1.0484,-0.04538 -6.39747,-5.87964 -8.77958,-12.29888c-1.84679,-4.97667 -1.1121,-10.71633 -0.27533,-11.77083c0.59017,-0.74374 3.86476,-4.75215 6.06739,-2.87614c2.5931,2.20857 5.07419,7.68074 5.07419,7.68074c0,0 5.47853,-7.90746 7.96276,-6.98089c1.20475,0.44935 2.02642,7.34396 -0.27894,13.29933c-2.67728,6.91612 -8.71349,12.99241 -9.77048,12.94666z" fill="url(#color-3)" fill-rule="nonzero" stroke="#cb0000" stroke-width="4.5" stroke-linecap="butt" stroke-linejoin="miter"/><path d="M237.08921,181.2479c-1.07561,-0.04656 -6.56352,-6.03225 -9.00746,-12.61812c-1.89472,-5.10585 -1.14097,-10.99448 -0.28249,-12.07634c0.6055,-0.76305 3.96508,-4.87549 6.22488,-2.95079c2.6604,2.2659 5.20589,7.88009 5.20589,7.88009c0,0 5.62073,-8.1127 8.16944,-7.16208c1.23601,0.46102 2.07901,7.53458 -0.28618,13.64454c-2.74677,7.09565 -8.93966,13.32963 -10.02407,13.28269z" fill="url(#color-4)" fill-rule="nonzero" stroke="#cb0000" stroke-width="4.5" stroke-linecap="butt" stroke-linejoin="miter"/><path d="M222.08556,186.68605c-0.02758,0.63712 -0.5889,8.39498 -6.04152,10.98246c-3.58032,1.69901 -12.77931,-1.00483 -12.99717,-1.7855c-1.96813,-7.05227 2.13199,-19.7409 6.89274,-19.53482c3.59739,0.15572 4.39434,0.32504 6.75148,2.65602c1.63349,1.61535 5.522,4.73559 5.39447,7.68183z" fill="url(#color-5)" fill-rule="nonzero" stroke="#000000" stroke-width="3" stroke-linecap="butt" stroke-linejoin="miter"/><path d="M243.44959,184.68512c-0.24114,0.00806 -3.59173,2.10475 -7.05567,2.76801c-3.19482,0.61172 -8.92503,2.19586 -10.15222,1.99619c-1.16975,-0.19034 -4.15429,-1.90858 -5.92923,-3.49203c-2.51275,-2.24167 -1.29593,-6.97669 -1.39413,-7.54024c-0.27663,-1.58768 27.82363,6.15798 24.53126,6.26807z" fill="#ff0000" fill-rule="nonzero" stroke="#000000" stroke-width="2" stroke-linecap="butt" stroke-linejoin="miter"/><g fill-rule="nonzero" stroke-linecap="butt" stroke-linejoin="miter"><g data-paper-data="{&quot;index&quot;:null}" stroke="none" stroke-width="1"><path d="M251.20185,194.74812c-0.1559,0.14371 -0.30042,0.11059 -0.46308,0.0416c-0.2479,-0.1294 -0.46493,-0.30619 -0.70251,-0.45147c-0.07351,0.01723 -0.14703,0.03447 -0.2063,0.06175c-1.29189,0.51718 -2.55118,0.4106 -3.80693,0.07546c-0.26458,-0.0719 -0.53948,-0.12803 -0.76675,-0.28905c-0.0426,-0.03022 -0.10974,-0.05465 -0.15877,-0.04314c-0.26954,0.06319 -0.45423,-0.06762 -0.66343,-0.19272c-0.18078,-0.10494 -0.34096,-0.24151 -0.51143,-0.36228c-0.09943,-0.07045 -0.17831,-0.17251 -0.18759,-0.3177c-0.00923,-0.14515 -0.09202,-0.2731 -0.16057,-0.39094c-0.46282,-0.62817 -0.81096,-1.33681 -1.05471,-2.11008c-0.12968,-0.4384 -0.17168,-0.88394 -0.20334,-1.34529c-0.09114,-1.35825 0.19452,-2.65746 0.75505,-3.90061c0.25845,-0.55616 0.59823,-1.07785 0.9948,-1.55926c0.3,-0.36498 0.67891,-0.62794 1.06169,-0.86503c1.218,-0.75435 2.52444,-1.00707 3.87535,-0.88175c0.25675,0.02018 0.51103,0.10787 0.76533,0.1956c0.17294,0.05319 0.34201,0.08054 0.53022,-0.01713c0.1637,-0.09192 0.33274,-0.06461 0.49538,0.00441c0.2479,0.1294 0.47519,0.29043 0.70249,0.45147c0.07105,0.05033 0.1073,0.1222 0.14351,0.19409c0.10623,0.28315 0.28843,0.48154 0.50548,0.65835c0.47275,0.35797 0.8141,0.8539 1.16573,1.33401c0.12929,0.18402 0.24831,0.38378 0.33252,0.60513c0.28492,0.71005 0.53116,1.41582 0.59948,2.20345c0.2131,0.15095 0.4301,0.32778 0.65743,0.48878c0.08524,0.06039 0.18469,0.13084 0.17972,0.26593c0.00534,0.11927 0.10089,0.16389 0.18612,0.22424c0.55797,0.41833 1.12623,0.82089 1.6842,1.23923c1.25408,0.9115 2.52242,1.83297 3.75592,2.77607c1.2051,0.92297 2.44109,1.79845 3.66676,2.68981c0.19891,0.14088 0.36296,0.30334 0.56187,0.4442c0.96605,0.68432 1.93212,1.36866 2.88788,2.06878c0.17046,0.12076 0.36154,0.20992 0.45601,0.41546c0.03625,0.0719 0.11754,0.10638 0.18858,0.15671c0.71036,0.50316 1.4246,1.03223 2.13493,1.53541c0.02841,0.02013 0.07101,0.05033 0.09944,0.07044c0.23761,0.1452 0.27919,0.33638 0.23449,0.62815c-0.15716,0.97443 -0.57639,1.80939 -1.25775,2.50493c-0.17647,0.1753 -0.38135,0.33048 -0.60434,0.44975c-0.16371,0.09193 -0.31853,0.07467 -0.47088,-0.01014c-0.45709,-0.25451 -0.92447,-0.49317 -1.39577,-0.75772c-0.33315,-0.1898 -0.65991,-0.42124 -1.02393,-0.5636c-0.79516,-0.30916 -1.48102,-0.81809 -2.24529,-1.17463c-0.42476,-0.20846 -0.85593,-0.37528 -1.27042,-0.59957c-0.44288,-0.24441 -0.89216,-0.44717 -1.3311,-0.66567c-0.79661,-0.4026 -1.58685,-0.84687 -2.39376,-1.23363c-1.07537,-0.48456 -2.10965,-1.03237 -3.14383,-1.58015c-0.35766,-0.18406 -0.71526,-0.36803 -1.07292,-0.5521c-0.55265,-0.29904 -1.11944,-0.60817 -1.67205,-0.90723c-0.30475,-0.16965 -0.61586,-0.29764 -0.92058,-0.46726c-0.32927,-0.16393 -0.59914,-0.35511 -0.9323,-0.54492zM251.26034,194.21203c0.20881,-0.12931 0.38919,-0.27874 0.53725,-0.47416c0.39556,-0.32045 0.70196,-0.72713 1.00835,-1.13383c0.39269,-0.5073 0.73883,-1.07062 1.07468,-1.61818c0.38733,-0.62658 0.60171,-1.30637 0.81221,-2.01205c0.01275,-0.08336 0.02553,-0.1667 0.04469,-0.29174c-0.11363,-0.08052 -0.22732,-0.16098 -0.34096,-0.2415c-0.0284,-0.02013 -0.06711,-0.02445 -0.12003,-0.03883c-0.07208,0.11065 -0.12995,0.23137 -0.17361,0.36216c-0.08092,0.2199 -0.18,0.40383 -0.26093,0.62369c-0.22365,0.53462 -0.58542,0.99453 -0.85168,1.49894c-0.15051,0.263 -0.27266,0.54609 -0.45159,0.78896c-0.40297,0.5231 -0.73492,1.09649 -1.19471,1.5793c-0.1211,0.12214 -0.25242,0.26011 -0.37355,0.38225c-0.12645,0.00283 -0.18037,0.14946 -0.26028,0.20837c-0.1044,0.06465 -0.20881,0.12933 -0.30782,0.31326c0.25675,0.02018 0.41057,0.19842 0.62221,0.25597c0.06571,-0.06897 0.1921,-0.07183 0.23576,-0.20263zM252.15519,193.92191c-0.36469,0.273 -0.44064,0.35778 -0.54609,0.58343c0.18078,0.10494 0.34737,0.19983 0.52813,0.3048c0.09944,0.07045 0.21166,0.05757 0.31608,-0.00711c0.06963,-0.04313 0.12108,-0.12215 0.19068,-0.16526c0.25392,-0.16665 0.47154,-0.40523 0.62207,-0.66821c0.14309,-0.06038 0.22548,-0.18677 0.30786,-0.31327c0.47752,-0.70128 0.95895,-1.37674 1.36546,-2.12834c0.17752,-0.3363 0.34085,-0.68266 0.47961,-1.02326c0.09762,-0.2774 0.20553,-0.57056 0.15859,-0.88103c-0.18471,-0.13083 -0.36939,-0.26161 -0.55409,-0.39247c-0.05396,0.14656 -0.09763,0.27739 -0.13098,0.39232c-0.17467,0.52311 -0.37768,1.02613 -0.63757,1.48889c-0.32805,0.59927 -0.72713,1.14824 -1.11198,1.70727c-0.17505,0.26876 -0.425,0.46131 -0.58582,0.74009c-0.19209,0.07183 -0.30928,0.21984 -0.40195,0.3621zM269.24395,203.16241c0.22938,-0.16092 0.38774,-0.37216 0.51767,-0.60353c0.02449,-0.00573 0.05931,-0.02731 0.06961,-0.04313c0.2329,-0.38945 0.43739,-0.79905 0.53605,-1.23739c0.06284,-0.25586 0.13985,-0.50159 0.08652,-0.77035c-0.79558,-0.56357 -1.59116,-1.12708 -2.42935,-1.72089c-0.09085,0.49007 -0.2669,0.91985 -0.45718,1.33944c-0.1594,0.37224 -0.40793,0.65819 -0.59574,1.01029c-0.08234,0.12646 -0.16863,0.22708 -0.25099,0.35356c-0.19458,0.13935 -0.37104,0.31468 -0.53969,0.54172c0.42622,0.30192 0.90637,0.45722 1.32475,0.70738c0.44288,0.24442 0.89608,0.47304 1.32475,0.70738c0.19209,-0.07183 0.3029,-0.17816 0.41367,-0.28451zM266.13101,201.53487c0.14308,-0.06039 0.23969,-0.17675 0.32202,-0.3032c0.13922,-0.0862 0.21768,-0.23856 0.32454,-0.37074c0.3025,-0.43259 0.53397,-0.91546 0.72671,-1.40264c0.1079,-0.29316 0.18739,-0.6065 0.18946,-0.92843c-0.05683,-0.04028 -0.10336,-0.09631 -0.16021,-0.13655c-0.69615,-0.49316 -1.37802,-0.97617 -2.06387,-1.48508c-0.72845,-0.5391 -1.4427,-1.06814 -2.17115,-1.60727c-1.06944,-0.78063 -2.11431,-1.56703 -3.18375,-2.34765c-1.18697,-0.88702 -2.39065,-1.71654 -3.55701,-2.6352c-0.18859,-0.1567 -0.41201,-0.2918 -0.62511,-0.44279c-0.05642,0.21413 -0.07412,0.43256 -0.15897,0.62658c-0.23249,0.64385 -0.56055,1.24313 -0.91698,1.82229c-0.32946,0.50583 -0.67315,1.00162 -1.01685,1.49743c-0.16227,0.18539 -0.30002,0.365 -0.46229,0.5504c-0.16761,0.06607 -0.23187,0.22847 -0.34264,0.33482c-0.1211,0.12214 -0.26027,0.20835 -0.34903,0.3765c0.12149,0.13225 0.25574,0.18116 0.36546,0.23577c0.95148,0.41986 1.83475,0.97626 2.75531,1.44355c0.59136,0.30337 1.18268,0.60677 1.78433,0.89429c0.79661,0.4026 1.5893,0.77929 2.37171,1.17181c0.64425,0.31773 1.2885,0.63551 1.92244,0.96908c0.68687,0.34798 1.34922,0.70166 2.02582,1.06542c0.61974,0.3235 1.25372,0.65705 1.89796,0.97481c0.10685,-0.13219 0.25389,-0.16669 0.32205,-0.3032zM250.53286,182.7699c-0.09865,0.43831 -0.25805,0.81059 -0.40321,1.19285c-0.15548,0.39811 -0.28644,0.79046 -0.45614,1.17847c-0.15941,0.37223 -0.35751,0.74016 -0.53113,1.10229c-0.18391,0.37799 -0.36777,0.75594 -0.57615,1.13964c-0.18782,0.35208 -0.40013,0.70993 -0.58795,1.06203c-0.21231,0.35782 -0.48143,0.67542 -0.63693,1.07353c-0.30142,0.27157 -0.47112,0.6596 -0.70154,0.98155c-0.25493,0.32763 -0.49175,0.69125 -0.74667,1.01889c-0.24462,0.31182 -0.51379,0.62941 -0.7726,0.93119c-0.26916,0.31759 -0.58483,0.57909 -0.8113,0.92685c0.32037,0.27315 0.4198,0.34359 0.7579,0.39827c0.19458,-0.13935 0.38919,-0.27874 0.57592,-0.46985c0.21766,-0.23855 0.43531,-0.47708 0.67748,-0.72137c0.44952,-0.46702 0.87451,-0.92834 1.23489,-1.4816c0.24712,-0.3794 0.48,-0.76887 0.78395,-1.10801c0.06571,-0.06897 0.12745,-0.16384 0.16081,-0.27878c0.08092,-0.21989 0.22901,-0.41531 0.35253,-0.60502c0.45303,-0.69555 0.82083,-1.45148 1.1641,-2.2017c0.47323,-0.98159 0.82641,-2.00198 1.13693,-3.05257c0.07061,-0.20407 0.14128,-0.40815 0.09575,-0.62516c-0.19251,-0.18258 -0.41592,-0.31773 -0.71669,-0.46151zM244.68271,187.95877c0.10233,0.25726 0.24583,0.45134 0.37904,0.6612c0.10478,0.18975 0.26498,0.3263 0.47665,0.38384c0.38852,0.13661 0.7604,0.33071 1.09105,0.58807c0.0284,0.02013 0.08131,0.03454 0.09551,0.04458c0.09408,-0.04886 0.13524,-0.11208 0.14415,-0.22133c-0.00389,-0.02587 -0.02203,-0.0618 -0.03625,-0.07189c-0.38111,-0.33928 -0.7416,-0.71014 -1.08153,-1.11265c-0.0465,-0.05607 -0.12148,-0.13224 -0.19891,-0.14088c-0.26849,-0.09779 -0.53696,-0.19557 -0.86974,-0.13095zM246.21012,190.42684c-0.3527,-0.31912 -0.67056,-0.65982 -0.96395,-1.00627c-0.09307,-0.11209 -0.2028,-0.16676 -0.34735,-0.19983c-0.22194,-0.0417 -0.43612,-0.0317 -0.66447,-0.03176c-0.07742,-0.00863 -0.16901,-0.02735 -0.20239,0.08764c0.19003,0.25014 0.3556,0.50601 0.56618,0.72451c0.77173,0.15393 0.7717,0.15393 1.46391,0.62116c0.07351,-0.01721 0.12889,-0.07042 0.14806,-0.19544zM250.14938,187.5344c0.21454,0.24438 0.43939,0.47297 0.66422,0.70154c0.04651,0.05607 0.09306,0.11212 0.16017,0.13656c0.29935,0.05037 0.58847,0.11651 0.89672,0.05766c-0.04693,-0.31045 -0.22914,-0.50883 -0.36628,-0.74459c-0.06853,-0.11785 -0.16409,-0.16242 -0.29443,-0.18545c-0.30966,-0.03456 -0.59878,-0.10074 -0.89171,-0.19278c-0.01421,-0.01007 -0.04901,0.01145 -0.09799,0.02298c-0.01668,0.05749 -0.04369,0.13082 -0.07064,0.20407zM246.69921,184.76705c0.09346,0.36652 0.24479,0.61235 0.38583,0.87394c0.06464,0.09202 0.14596,0.12649 0.2273,0.161c0.40275,0.14667 0.7746,0.34083 1.11948,0.60819c0.04261,0.0302 0.09552,0.04459 0.13814,0.07475c0.12748,-0.16382 0.13385,-0.20549 0.0202,-0.28599c-0.36941,-0.26166 -0.67307,-0.59231 -0.89687,-0.98183c-0.13711,-0.23574 -0.3179,-0.34071 -0.55408,-0.39249c-0.14065,-0.00723 -0.25677,-0.02019 -0.44002,-0.05759zM247.43925,188.57158c0.05146,-0.07905 0.0049,-0.1351 -0.05192,-0.17538c-0.39776,-0.28179 -0.69899,-0.67995 -1.00021,-1.07816c-0.25077,-0.31623 -0.6187,-0.48447 -1.08569,-0.46875c0.05579,0.20121 0.18756,0.31768 0.26394,0.48728c0.16697,0.34929 0.4369,0.54048 0.76222,0.67855c0.35372,0.15815 0.71778,0.30055 1.00973,0.55352c0.05291,0.01435 0.07744,0.00866 0.10195,0.00289zM245.99276,185.88359c0.1087,0.21562 0.17085,0.37518 0.24335,0.5189c0.11264,0.24148 0.27281,0.37805 0.51287,0.45571c0.3317,0.09636 0.63644,0.266 0.93086,0.45144c0.10975,0.05466 0.22339,0.13516 0.32282,0.2056c0.06571,-0.06897 0.03338,-0.11496 0.00496,-0.1351c-0.36055,-0.37087 -0.71073,-0.75755 -1.00555,-1.19745c-0.06073,-0.06612 -0.10727,-0.12217 -0.18859,-0.15669c-0.25038,-0.06186 -0.49045,-0.13951 -0.82071,-0.14245zM250.65597,186.43787c0.31113,0.12797 0.53594,0.35655 0.77108,0.56933c0.07103,0.05031 0.09698,0.138 0.18858,0.15669c0.14458,0.03308 0.49541,0.00441 0.73654,-0.0789c-0.07,-0.21132 -0.21989,-0.36366 -0.33497,-0.53764c-0.09699,-0.138 -0.22092,-0.20269 -0.38605,-0.20416c-0.28124,-0.01444 -0.54192,-0.06047 -0.80013,-0.17408c-0.01421,-0.01008 -0.06321,0.00145 -0.08769,0.00717c-0.0554,0.05318 -0.09661,0.1164 -0.08731,0.26157zM248.0724,192.50833c0.26066,0.04603 0.49189,0.23295 0.76925,0.22149c0.05786,-0.12071 0.01774,-0.21847 0.00209,-0.32196c-0.0416,-0.19117 -0.04445,-0.37799 -0.14924,-0.56773c-0.31749,-0.08632 -0.58106,-0.31918 -0.90245,-0.43134c-0.09408,0.04886 -0.14558,0.12786 -0.16863,0.22706c0.17976,0.26594 0.32469,0.55343 0.44903,0.87251zM249.05206,189.50609c0.12148,0.13225 0.24294,0.2645 0.29089,0.41398c0.11793,0.36076 0.3698,0.51603 0.69367,0.56064c0.11611,0.01297 0.20136,0.07336 0.34839,0.0389c-0.03913,-0.25874 -0.1233,-0.48009 -0.20755,-0.70141c-0.02203,-0.06181 -0.07886,-0.10205 -0.16018,-0.13656c-0.2543,-0.08771 -0.48406,-0.18117 -0.73834,-0.26891c-0.0426,-0.03022 -0.12005,-0.03883 -0.22692,0.0934zM248.40342,190.502c0.27137,0.28463 0.4937,0.58076 0.58718,0.94728c0.01173,0.0776 0.07886,0.10206 0.13568,0.14229c0.13817,0.07476 0.28663,0.13372 0.47624,0.12944c-0.05474,-0.36221 -0.16101,-0.64538 -0.28143,-0.93858c-0.04014,-0.09773 -0.10086,-0.16388 -0.19642,-0.20844c-0.17684,-0.07913 -0.34346,-0.17397 -0.52031,-0.25306c-0.01421,-0.01008 -0.06322,0.00142 -0.08771,0.00717c-0.0309,0.04742 -0.0618,0.09486 -0.11323,0.17388zM248.17789,184.05873c-0.18324,-0.03739 -0.38071,-0.08489 -0.56397,-0.1223c-0.02449,0.00573 -0.04903,0.01148 -0.09799,0.02297c0.01458,0.26447 0.12331,0.48009 0.23837,0.65402c0.5125,0.20131 0.99653,0.3825 1.47958,0.72468c-0.08317,-0.38234 -0.38256,-0.43266 -0.53633,-0.61092c-0.19642,-0.20845 -0.35804,-0.43841 -0.51966,-0.6684zM244.19757,187.9386c-0.27344,0.03731 -0.52631,0.04305 -0.76988,0.19389c0.05823,0.13368 0.07781,0.26303 0.13219,0.37083c0.05437,0.1078 0.0984,0.23139 0.19788,0.30183c0.15874,0.04312 0.31607,-0.00714 0.46699,-0.01574c0.15091,-0.00862 0.29547,0.02451 0.44885,-0.05164c-0.15527,-0.27167 -0.30653,-0.51747 -0.47599,-0.79922zM245.5796,191.45867c-0.38501,-0.36513 -0.70934,-0.66412 -1.03358,-0.96314c-0.0284,-0.02013 -0.06072,-0.06615 -0.10973,-0.05464c-0.22834,-0.00003 -0.46451,-0.05183 -0.6978,0.08322c0.1577,0.20412 0.30122,0.3982 0.45505,0.57645c0.46062,0.02597 0.88782,0.16687 1.38609,0.35813zM251.07876,189.48636c-0.00679,-0.21274 -0.12826,-0.34498 -0.20071,-0.48872c-0.07637,-0.16962 -0.18364,-0.2918 -0.3811,-0.33925c-0.26457,-0.0719 -0.52917,-0.14382 -0.73591,-0.33647c-0.1005,0.09054 -0.12746,0.16382 -0.04223,0.22421c0.2028,0.16673 0.4198,0.3436 0.54272,0.56925c0.18758,0.31768 0.48306,0.34221 0.81724,0.37097zM249.74692,190.8299c0.10768,0.37658 0.17911,0.68129 0.26082,0.97019c0.09943,0.07045 0.18717,0.0633 0.26456,0.0719c0.08771,-0.00716 0.19351,0.02157 0.29401,-0.06892c-0.00038,-0.25444 -0.0395,-0.51309 -0.10308,-0.76608c-0.21555,-0.08339 -0.42723,-0.14093 -0.71632,-0.20711zM252.0595,188.84122c-0.30575,-0.00869 -0.57282,-0.01302 -0.85405,-0.02748c0.11264,0.24149 0.21105,0.47293 0.30944,0.70433c0.25675,0.02018 0.47872,0.06191 0.7301,-0.03724c-0.03519,-0.23283 -0.1155,-0.42831 -0.18549,-0.63961zM244.23716,186.85774c-0.03833,0.25007 0.1155,0.42833 0.19577,0.62381c0.02203,0.06181 0.10332,0.09633 0.16657,0.09488c0.20386,0.00581 0.38319,0.01734 0.57282,0.01308c0.01421,0.01007 0.03481,-0.02158 0.05542,-0.05318c-0.1268,-0.25157 -0.27818,-0.4973 -0.40497,-0.74888c-0.19352,-0.0216 -0.38956,0.02435 -0.58558,0.07031zM246.25289,184.75107c-0.19745,-0.04745 -0.3807,-0.08489 -0.59341,0.01854c0.04551,0.21705 0.0704,0.4657 0.1894,0.66551c0.13033,0.02303 0.24008,0.07764 0.36649,0.0748c0.1161,0.01298 0.21947,0.10931 0.35475,-0.0028c-0.10232,-0.25728 -0.20465,-0.51456 -0.31726,-0.75609zM252.27671,188.34837c0.16904,0.02733 0.33274,-0.06462 0.51063,-0.14649c-0.08808,-0.24724 -0.11304,-0.49588 -0.2707,-0.70001c-0.19604,0.04595 -0.40375,0.01431 -0.63068,0.10769c0.1268,0.25157 0.26392,0.4873 0.39075,0.73882zM251.06704,185.29677c0.24542,0.19696 0.54625,0.34072 0.77107,0.56933c0.19251,0.18257 0.37823,0.15237 0.61544,0.04322c-0.0842,-0.22133 -0.21989,-0.36366 -0.35948,-0.53184c-0.36113,0.0445 -0.68258,-0.06765 -1.02703,-0.08067zM244.80413,192.20301c0.02699,-0.0733 -0.01565,-0.10346 -0.05823,-0.13367c-0.17437,-0.14663 -0.37329,-0.28753 -0.53739,-0.44997c-0.22876,-0.25442 -0.47377,-0.19698 -0.76391,-0.10217c0.07888,0.10209 0.12929,0.18397 0.19002,0.2501c0.13961,0.16816 0.28557,0.29468 0.53452,0.26314c0.15091,-0.00862 0.29938,0.05039 0.43364,0.09923c0.04651,0.05607 0.09697,0.13799 0.20135,0.07335zM247.93977,193.47701c-0.00534,-0.11927 -0.03128,-0.20699 -0.04303,-0.28457c-0.01068,-0.23857 -0.10766,-0.3766 -0.29874,-0.46573c-0.16263,-0.06904 -0.30864,-0.19555 -0.46099,-0.28036c-0.04261,-0.03022 -0.07494,-0.0762 -0.16124,0.0244c0.14739,0.21996 0.27427,0.47149 0.36627,0.7446c0.02203,0.06181 0.09304,0.11209 0.14986,0.15238c0.13422,0.04889 0.2543,0.08774 0.44782,0.10931zM251.22263,189.93485c-0.18324,-0.03741 -0.37039,-0.10068 -0.57036,-0.08057c0.05334,0.26878 0.06791,0.53324 0.18052,0.77472c0.20386,0.00579 0.37678,0.059 0.5753,-0.0545c-0.0455,-0.21706 -0.06646,-0.43984 -0.1855,-0.63961zM245.83373,186.51028c-0.05335,-0.26877 -0.16204,-0.4844 -0.29134,-0.66836c-0.20384,-0.00579 -0.38317,-0.01729 -0.60371,0.0344c0.00287,0.18687 0.06506,0.34641 0.15174,0.5002c0.24644,0.03597 0.48263,0.08776 0.7433,0.13382zM250.9598,191.80466c0.16126,-0.0244 0.26313,-0.0215 0.37143,-0.06031c0.07351,-0.01723 0.13282,-0.04452 0.19213,-0.07184c0.03193,-0.20838 0.02514,-0.42112 -0.05515,-0.61661c-0.19352,-0.0216 -0.38706,-0.04317 -0.5895,0.04448c0.03519,0.23283 0.04198,0.44556 0.08109,0.70425zM246.39879,193.10158c0.05724,0.29466 0.08851,0.5016 0.13791,0.74452c0.0465,0.05607 0.15623,0.1107 0.27239,0.12366c0.10582,0.02875 0.18467,0.13082 0.3175,0.08629c0.05004,-0.17247 0.04078,-0.31763 -0.00718,-0.46713c-0.23761,-0.1452 -0.45069,-0.2962 -0.72061,-0.48738zM243.30581,187.74576c0.12253,-0.02874 0.24506,-0.05745 0.36755,-0.08614c0.12255,-0.02875 0.23081,-0.06754 0.35333,-0.09625c-0.08418,-0.22134 -0.12577,-0.41253 -0.26143,-0.55484c-0.11611,-0.01295 -0.2063,0.06178 -0.3004,0.11059c-0.09408,0.04886 -0.23082,0.06754 -0.28868,0.18822c0.03769,0.16532 0.04693,0.31044 0.1297,0.4384zM252.31146,189.92064c-0.22443,0.02585 -0.44642,-0.01591 -0.68363,0.09333c0.04162,0.19116 0.09347,0.36652 0.13505,0.5577c0.22442,-0.02584 0.41407,-0.03009 0.60865,-0.16949c0.00103,-0.16097 0.03051,-0.30184 -0.06008,-0.48151zM244.06797,190.01827c-0.19393,-0.276 -0.36974,-0.51606 -0.54556,-0.75607c-0.12644,0.00284 -0.24256,-0.01014 -0.34303,0.08041c0.04304,0.2846 0.19041,0.5045 0.32754,0.74024c0.12644,-0.00285 0.25285,-0.00569 0.37536,-0.0344c0.06714,0.02447 0.1019,0.0029 0.18569,-0.03013zM249.74005,192.21109c-0.21807,-0.01582 -0.38856,-0.13662 -0.58459,-0.09065c0.02883,0.27452 0.05373,0.52316 0.14184,0.77044c0.17155,-0.04022 0.31358,0.06043 0.5018,-0.03728c0.03191,-0.20836 -0.03417,-0.39385 -0.05904,-0.64249zM246.44622,183.84859c0.01317,0.17104 0.05086,0.33632 0.12333,0.48008c0.23227,0.02589 0.45421,0.06763 0.71487,0.11366c-0.09448,-0.20551 -0.14638,-0.38089 -0.20605,-0.608c-0.23227,-0.02591 -0.44002,-0.05759 -0.63215,0.01425zM248.30381,193.61936c0.22586,0.06761 0.41304,0.13086 0.62965,0.0533c0.01132,-0.17678 0.0266,-0.32767 -0.04588,-0.47144c-0.21166,-0.05754 -0.41299,-0.13084 -0.66338,-0.1927c0.00679,0.21274 0.02388,0.40962 0.07966,0.61085zM245.43725,185.39776c-0.09841,-0.2314 -0.0704,-0.46571 -0.2061,-0.60804c-0.20384,-0.00579 -0.37147,0.06029 -0.53517,0.15225c0.01709,0.19691 0.01994,0.38376 0.14531,0.54189c0.18571,-0.03014 0.36115,-0.04451 0.59589,-0.08613zM252.88867,188.62006c-0.17153,0.04022 -0.32244,0.04881 -0.47194,0.15084c0.0842,0.22133 0.07038,0.4657 0.2139,0.65977c0.16125,-0.0244 0.27985,-0.079 0.38671,-0.21121c-0.03128,-0.20696 -0.08706,-0.40819 -0.12868,-0.59934zM243.33864,190.56424c-0.17544,0.01433 -0.28369,0.05313 -0.39846,0.13357c0.0416,0.19117 0.12185,0.38667 0.29235,0.50738c0.14703,-0.03447 0.29399,-0.06892 0.45525,-0.09332c-0.07389,-0.23718 -0.23407,-0.37373 -0.34917,-0.54766zM252.82773,185.11156c-0.13279,0.04451 -0.24113,0.08333 -0.3171,0.16809c0.08026,0.19546 0.1812,0.35934 0.31687,0.50165c0.13671,-0.01862 0.24502,-0.05743 0.34551,-0.14796c-0.07,-0.21132 -0.23019,-0.34786 -0.34528,-0.52177zM251.90367,191.50297c0.23225,0.02592 0.32883,-0.09048 0.4073,-0.24281c0.07208,-0.11064 0.11572,-0.24145 0.03295,-0.36938c-0.17544,0.01433 -0.33664,0.03872 -0.50035,0.13068c0.01317,0.17104 0.03664,0.32627 0.06009,0.4815zM248.67596,183.32585c-0.15874,-0.04315 -0.27237,-0.12364 -0.41547,-0.06331c0.0356,0.48723 0.35699,0.59944 0.75828,0.65266c-0.11898,-0.19982 -0.22379,-0.38959 -0.34279,-0.58935zM250.61943,192.74168c0.03587,-0.18253 0.02657,-0.32769 -0.03951,-0.5131c-0.14309,0.06038 -0.29547,-0.02445 -0.43465,0.06175c-0.0476,0.10493 -0.01135,0.17676 -0.00993,0.27019c0.01564,0.10345 -0.00742,0.20266 0.09202,0.27311c0.12644,-0.00285 0.25288,-0.00571 0.39206,-0.09192zM247.61922,188.16778c0.19848,-0.1135 0.23187,-0.22848 0.1143,-0.33483c-0.17436,-0.14664 -0.36937,-0.26167 -0.55015,-0.3666c-0.05679,-0.04027 -0.13818,-0.07474 -0.22835,-0.00003c0.20425,0.26018 0.42906,0.48872 0.6642,0.70151zM253.50393,187.73913c0.10583,0.02877 0.18965,-0.00427 0.26566,-0.08905c-0.02489,-0.24866 -0.01499,-0.51889 -0.15211,-0.75463c-0.20879,0.12932 -0.27309,0.29173 -0.20308,0.50301c0.01565,0.10347 -0.00352,0.22857 0.08954,0.34068zM248.85681,185.94886c0.14415,-0.22128 0.14657,-0.28888 0.01877,-0.37944c-0.20919,-0.12508 -0.43257,-0.26024 -0.68295,-0.32208c0.17336,0.30761 0.3428,0.58936 0.66421,0.70153zM251.82584,184.60981c0.10333,0.09632 0.20284,0.16675 0.29193,0.25301c0.18857,0.15673 0.18859,0.15669 0.44499,-0.07752c-0.07888,-0.10209 -0.16164,-0.23001 -0.20817,-0.28603c-0.19604,0.04593 -0.35724,0.07036 -0.52875,0.11057zM243.88004,185.33414c0.00924,0.14517 -0.05498,0.30758 0.10129,0.41828c0.1328,-0.04451 0.26172,-0.11493 0.41902,-0.1652c-0.01316,-0.17105 -0.0018,-0.34781 -0.0846,-0.47575c-0.1431,0.0604 -0.29015,0.09482 -0.43572,0.2227zM252.32009,186.36922c0.13322,0.20984 0.25611,0.43554 0.38934,0.64538c0.0916,0.01866 0.17931,0.01154 0.21267,-0.10342c-0.03518,-0.23283 -0.11938,-0.45423 -0.2732,-0.63246c-0.12645,0.00283 -0.22442,0.02584 -0.32883,0.09052zM246.96044,183.47353c0.05786,-0.12071 0.05254,-0.24003 0.00847,-0.36362c-0.07744,-0.00865 -0.15485,-0.01727 -0.23228,-0.0259c-0.1019,-0.00292 -0.19355,-0.02158 -0.28372,0.05315c-0.06179,0.09484 -0.08486,0.19398 -0.05498,0.30756c0.17937,0.01153 0.3832,0.0173 0.5625,0.02887zM244.64798,186.38639c-0.01316,-0.17105 -0.07145,-0.30473 -0.15419,-0.43266c-0.16761,0.06607 -0.32489,0.11635 -0.46798,0.17668c-0.03973,0.15668 0.00432,0.28028 0.07925,0.35648c0.18571,-0.03012 0.37145,-0.0603 0.543,-0.10047zM247.81263,183.15323c-0.11611,-0.01295 -0.23223,-0.02591 -0.3587,-0.02309c-0.02447,0.00574 -0.04509,0.03739 -0.07991,0.05895c0.00142,0.09343 -0.03194,0.20837 0.05084,0.33632c0.14458,0.03306 0.30722,0.10207 0.49294,0.07194c0.0113,-0.17676 -0.03276,-0.30038 -0.10522,-0.44412zM249.58015,183.18076c-0.14597,-0.12651 -0.06114,-0.32054 -0.2032,-0.42115c-0.15481,-0.01726 -0.29297,-0.09208 -0.489,-0.04609c-0.00103,0.16097 0.00823,0.30617 0.16698,0.34927c0.15874,0.04315 0.27628,0.14951 0.52523,0.11796zM253.50445,186.39959c-0.05826,-0.13367 -0.10626,-0.28316 -0.15028,-0.40677c-0.00389,-0.02588 -0.04262,-0.0302 -0.07105,-0.05031c-0.07989,0.05892 -0.20242,0.08761 -0.25242,0.26011c0.06219,0.15952 0.13854,0.32918 0.20466,0.5146c0.12888,-0.07039 0.20487,-0.1552 0.26916,-0.31759zM243.60036,186.33731c-0.14703,0.03446 -0.30824,0.05886 -0.43074,0.08759c-0.05005,0.17246 -0.04082,0.31764 -0.02123,0.44699c0.10977,0.05463 0.19601,-0.04595 0.27983,-0.07901c0.08382,-0.03307 0.1818,-0.05603 0.23968,-0.17676c0.01275,-0.08336 0.01133,-0.17679 -0.06752,-0.27886zM249.29603,193.72159c0.15091,-0.00862 0.26317,-0.02151 0.37536,-0.03442c0.03871,0.00433 0.08382,-0.03304 0.10833,-0.03879c0.07207,-0.11064 0.06674,-0.22995 0.02265,-0.35356c-0.16513,-0.00146 -0.31999,-0.01873 -0.49147,0.0214c-0.01915,0.12503 -0.01381,0.24435 -0.01484,0.40531zM252.08959,184.173c-0.14349,-0.19409 -0.28701,-0.38811 -0.51679,-0.48159c-0.05004,0.17246 -0.11822,0.30903 -0.05605,0.46855c0.29297,0.09207 0.29299,0.09205 0.57281,0.01305zM250.99332,192.61389c0.445,-0.07753 0.45524,-0.09332 0.49849,-0.47855c-0.16125,0.0244 -0.3185,0.07468 -0.47975,0.09905c-0.05786,0.12071 -0.05252,0.23999 -0.01879,0.37944zM246.01799,183.86858c-0.16512,-0.00147 -0.30187,0.01722 -0.44108,0.10342c-0.00637,0.04168 -0.00887,0.10923 -0.01135,0.17679c0.00783,0.05176 0.02985,0.11358 0.03766,0.16528c0.16513,0.00144 0.3342,0.02877 0.48761,-0.04736c0.01915,-0.12502 -0.01458,-0.26447 -0.07288,-0.39812zM248.01056,194.19711c0.00246,-0.06753 0.00101,-0.16098 -0.03129,-0.20699c-0.12538,-0.15815 -0.28801,-0.22711 -0.5164,-0.22717c-0.00496,0.13511 -0.05891,0.28167 -0.00454,0.38951c0.18323,0.03741 0.34982,0.13228 0.55222,0.04465zM242.80539,189.47044c-0.02448,0.00573 -0.049,0.01148 -0.09799,0.02297c-0.02018,0.28603 0.03312,0.55481 0.08646,0.82357c0.13033,0.02302 0.21412,-0.01004 0.3107,-0.12641c-0.09841,-0.2314 -0.18653,-0.47859 -0.29914,-0.72013zM247.70167,186.44741c0.15133,0.24579 0.27815,0.49731 0.52996,0.65259c0.01421,0.01008 0.08378,-0.03306 0.10439,-0.06465c0.05145,-0.07905 0.03582,-0.18252 -0.03524,-0.2328c-0.1538,-0.17826 -0.35909,-0.27747 -0.59912,-0.35513zM245.18095,184.03804c-0.13673,0.01863 -0.27346,0.03731 -0.40235,0.1077c-0.07208,0.11065 -0.09514,0.20982 -0.04719,0.3593c0.15732,-0.05028 0.32885,-0.09047 0.47194,-0.15081c0.03335,-0.11494 0.03191,-0.20838 -0.02242,-0.3162zM252.78563,190.37201c0.15834,-0.21126 0.29613,-0.39085 0.32024,-0.65099c-0.15874,-0.04313 -0.28763,0.02723 -0.41264,0.1235c0.00288,0.18685 0.00182,0.34782 0.09243,0.52752zM246.15539,194.1766c0.00743,-0.20267 0.00355,-0.2285 -0.0391,-0.25873c-0.13174,-0.11644 -0.31112,-0.12798 -0.47623,-0.12944c-0.06318,0.00142 -0.12889,0.07044 -0.07454,0.17824c0.18964,-0.00427 0.33315,0.18981 0.58992,0.20992zM243.31667,188.90861c-0.08808,-0.24724 -0.15173,-0.50021 -0.38297,-0.68707c-0.04469,0.29173 0.05373,0.52319 0.12373,0.73445c0.08132,0.03453 0.1406,0.00719 0.25921,-0.0474zM250.16743,193.27625c-0.00885,0.10923 -0.03192,0.2084 -0.04078,0.31762c0.17937,0.01154 0.34059,-0.01288 0.41121,-0.21695c0.01669,-0.05749 0.03334,-0.11495 -0.01317,-0.17103c-0.10582,-0.02876 -0.21416,0.01003 -0.35724,0.07037zM249.40461,184.78906c0.09265,-0.14228 0.10544,-0.2256 -0.01851,-0.29029c-0.10976,-0.05465 -0.2195,-0.10928 -0.33955,-0.1481c-0.0529,-0.01435 -0.11614,-0.01297 -0.14311,0.06033c0.1396,0.16817 0.29587,0.27886 0.50115,0.37807zM245.20799,190.59484c0.14351,0.19409 0.30763,0.35649 0.52319,0.43991c0.01423,0.01009 0.08378,-0.03306 0.09407,-0.04885c0.02058,-0.03158 -0.00142,-0.09343 -0.02986,-0.11355c-0.19497,-0.11503 -0.34489,-0.26741 -0.58747,-0.27752zM245.19684,191.69573c-0.17296,-0.05321 -0.32925,-0.16393 -0.54728,-0.17981c0.13321,0.20985 0.26889,0.35217 0.38502,0.36513c0.10582,0.02876 0.14703,-0.03445 0.16225,-0.18535zM253.61384,188.71789c0.08092,-0.2199 0.22508,-0.44123 0.12666,-0.67263c-0.29896,0.20404 -0.20055,0.43543 -0.12666,0.67263zM250.88408,187.10773c0.02058,-0.03159 0.0167,-0.05756 0.03728,-0.08912c-0.15236,-0.08481 -0.23905,-0.23861 -0.41839,-0.25014c-0.076,0.08477 -0.09267,0.14228 -0.05251,0.24001c0.13033,0.02302 0.27487,0.05611 0.43365,0.09924zM246.57238,188.62745c0.16801,0.18831 0.30371,0.33062 0.48447,0.4356c0.0284,0.02013 0.07741,0.00866 0.1083,-0.03878c0.0103,-0.01584 0.01669,-0.05748 0.01276,-0.08336c-0.1435,-0.19409 -0.31398,-0.31482 -0.60554,-0.31343zM248.35606,194.04913c-0.03335,0.11497 -0.03584,0.1825 0.02738,0.18108c0.13033,0.02302 0.27097,0.03023 0.41161,0.03745c0.0877,-0.00715 0.11859,-0.05456 0.09265,-0.14226c-0.18715,-0.0633 -0.34593,-0.10643 -0.53163,-0.07627zM244.33696,184.66449c-0.00142,-0.09343 0.01132,-0.17679 0.00991,-0.27022c-0.00388,-0.02587 -0.03233,-0.04599 -0.06464,-0.09201c-0.12356,0.18965 -0.2794,0.33336 -0.35645,0.57914c0.15732,-0.05028 0.26562,-0.08908 0.41119,-0.21696zM248.03272,191.0711c0.15236,0.08483 0.29054,0.1596 0.47132,0.26455c-0.03914,-0.25874 -0.13607,-0.39672 -0.28843,-0.48152c-0.09409,0.04886 -0.1392,0.08619 -0.18289,0.217zM250.91048,185.85586c0.14065,0.00723 0.27628,0.14952 0.4748,0.03603c-0.31008,-0.28894 -0.38109,-0.33925 -0.46102,-0.28034c-0.05146,0.07905 -0.05397,0.14661 -0.01381,0.24435zM245.98306,189.5961c0.08952,0.34065 0.26002,0.46138 0.51431,0.54913c-0.02636,-0.34208 -0.30759,-0.35646 -0.51431,-0.54913zM249.24386,183.47391c0.08563,0.31478 0.24192,0.4255 0.433,0.51464c0.01421,0.01007 0.049,-0.0115 0.06959,-0.0431c0.0309,-0.04742 0.02306,-0.09918 -0.00535,-0.11928c-0.13174,-0.11646 -0.2841,-0.20125 -0.49721,-0.35222zM251.19165,184.94604c0.15874,0.04315 0.31113,0.12797 0.51347,0.04035c-0.11119,-0.14807 -0.24935,-0.22283 -0.37328,-0.28753c-0.1044,0.06465 -0.13135,0.13793 -0.14022,0.24719zM248.57821,182.67899c-0.19995,0.02009 -0.35621,-0.09062 -0.516,0.02721c0.16801,0.18831 0.168,0.1883 0.48014,0.15532c0.00638,-0.04168 0.01277,-0.08335 0.03585,-0.18252zM253.06577,188.0293c0.10151,-0.2515 0.04574,-0.45272 -0.03456,-0.64821c-0.11611,-0.01295 -0.15733,0.05028 -0.14559,0.12786c0.0622,0.15951 0.11406,0.33493 0.18016,0.52031zM245.98772,183.50061c0.04759,-0.10493 0.08485,-0.19402 0.03049,-0.3018c-0.1122,0.0129 -0.22446,0.02581 -0.3004,0.11059c-0.03728,0.08909 -0.03973,0.15666 -0.00349,0.22856c0.09161,0.01867 0.16513,0.00146 0.27343,-0.03734zM249.75196,189.10091c-0.08274,-0.12793 -0.14742,-0.21996 -0.25326,-0.24871c-0.03871,-0.00433 -0.07351,0.01722 -0.10832,0.03878c-0.0309,0.04742 -0.04369,0.13079 0.00922,0.14516c0.08525,0.06039 0.18469,0.13084 0.35233,0.06474zM243.46634,185.61867c-0.13529,0.1121 -0.1466,0.28888 -0.20054,0.43546c0.30826,-0.05886 0.32882,-0.09051 0.20054,-0.43546zM244.60604,192.57088c-0.17192,-0.21418 -0.17191,-0.21418 -0.34983,-0.13229c0.06465,0.09201 0.14353,0.19406 0.34983,0.13229zM249.99637,187.86495c-0.08382,0.03307 -0.11469,0.08047 -0.09659,0.11639c0.0622,0.15951 0.1151,0.17393 0.33563,0.12222c-0.06853,-0.11786 -0.1538,-0.17829 -0.23904,-0.23866zM249.78994,182.89053c0.01958,0.12937 0.04944,0.24291 0.16942,0.28175c0.12209,-0.28313 0.10401,-0.31902 -0.16942,-0.28175zM243.89263,192.55063c0.03769,0.16532 0.14101,0.26162 0.23015,0.34785c0.0568,0.04027 0.13036,0.02303 0.13529,-0.11209c-0.08916,-0.08623 -0.19251,-0.18259 -0.36545,-0.23579zM247.42618,182.69457c0.12149,0.13225 0.22341,0.13516 0.33419,0.02881c0,0 0.00637,-0.04169 -0.00784,-0.05174c-0.07496,-0.07619 -0.19351,-0.02163 -0.32638,0.0229zM248.94845,190.07956c0.03335,-0.11497 -0.00288,-0.18687 -0.06999,-0.21128c-0.0284,-0.02013 -0.07742,-0.00865 -0.11222,0.0129c-0.03481,0.02158 -0.03728,0.08908 -0.00884,0.10921c0.03233,0.04602 0.08913,0.08625 0.19107,0.08917zM245.10568,183.70738c0.14064,0.00722 0.22445,-0.02581 0.24997,-0.19255c-0.16513,-0.00144 -0.23474,0.04163 -0.24997,0.19255z" fill="#000000"/><path d="M253.82563,193.81157c0.34369,-0.49577 0.6874,-0.99159 1.01685,-1.49745c0.37068,-0.56912 0.68448,-1.17843 0.91698,-1.82228c0.07063,-0.20407 0.09228,-0.39664 0.159,-0.62658c0.22733,0.16103 0.43649,0.28605 0.62507,0.44278c1.15218,0.90858 2.37004,1.74819 3.55701,2.63519c1.05911,0.79646 2.11433,1.56701 3.18375,2.34766c0.72846,0.5391 1.4427,1.06818 2.17113,1.60729c0.68585,0.50893 1.37804,0.97615 2.06389,1.48505c0.05683,0.04028 0.11365,0.08053 0.16018,0.13658c0.01216,0.33202 -0.07129,0.61945 -0.18946,0.92843c-0.19276,0.48721 -0.42424,0.97008 -0.72672,1.40263c-0.09265,0.14228 -0.17109,0.29461 -0.32451,0.37073c0.06425,-0.16242 0.20979,-0.2903 0.25205,-0.5145c-0.29934,-0.05038 -0.50998,-0.26886 -0.74761,-0.41406c-0.01421,-0.01007 -0.0284,-0.02012 -0.0387,-0.00433c-0.46593,-0.14526 -0.87794,-0.43713 -1.32723,-0.63986c-0.16264,-0.06902 -0.3562,-0.09061 -0.47768,-0.22284c-0.26353,-0.2329 -0.62614,-0.28182 -0.88971,-0.51473c-0.01421,-0.01007 -0.05292,-0.01437 -0.08133,-0.03453c-0.30079,-0.14375 -0.5977,-0.26171 -0.87792,-0.43709c-0.31255,-0.22138 -0.67907,-0.29622 -0.97101,-0.54921c-0.24644,-0.03597 -0.41054,-0.19843 -0.61973,-0.32351c-0.02841,-0.02013 -0.04264,-0.03019 -0.07101,-0.05031c-0.3665,-0.07481 -0.62367,-0.34937 -0.94899,-0.48742c-0.32531,-0.13804 -0.60307,-0.38098 -0.91809,-0.53482c-0.35764,-0.18407 -0.73194,-0.31056 -1.04203,-0.59956c-0.02841,-0.02013 -0.07104,-0.05034 -0.10975,-0.05464c-0.21807,-0.01582 -0.35763,-0.18406 -0.53839,-0.28902c-0.08526,-0.06039 -0.17437,-0.14661 -0.28022,-0.17538c-0.16902,-0.02737 -0.27239,-0.12367 -0.40027,-0.21425c-0.07104,-0.05033 -0.13178,-0.11646 -0.20919,-0.12505c-0.24644,-0.03597 -0.42476,-0.20847 -0.60944,-0.33929c-0.07104,-0.05033 -0.13178,-0.11642 -0.20919,-0.12509c-0.20773,-0.03169 -0.35374,-0.15815 -0.51,-0.26888c-0.25575,-0.18115 -0.58351,-0.25165 -0.82892,-0.44859c-0.03233,-0.04601 -0.10581,-0.02878 -0.15874,-0.04313z" fill="#87d7dc"/><path d="M253.82565,193.81158c0.0529,0.01439 0.12643,-0.00286 0.16905,0.02734c0.24544,0.19694 0.56292,0.28325 0.82894,0.44858c0.15626,0.11071 0.30227,0.23722 0.51,0.26888c0.07744,0.00865 0.13817,0.07477 0.20918,0.12505c0.1847,0.1308 0.37327,0.28754 0.60943,0.33936c0.07742,0.00863 0.12789,0.09058 0.20921,0.12506c0.12785,0.09056 0.24152,0.17108 0.40026,0.21424c0.10582,0.02876 0.195,0.11504 0.28024,0.17541c0.18077,0.10494 0.32038,0.27314 0.53842,0.28899c0.03871,0.00433 0.08133,0.03451 0.10974,0.05463c0.29588,0.27889 0.68441,0.41552 1.04205,0.59954c0.32925,0.16393 0.60698,0.40686 0.91808,0.53487c0.32529,0.13801 0.58248,0.41259 0.94898,0.4874c0.02449,-0.00573 0.04262,0.03022 0.07105,0.05034c0.18471,0.1308 0.37327,0.28751 0.61976,0.3235c0.28166,0.26884 0.64818,0.34363 0.971,0.54924c0.26993,0.19121 0.57712,0.2933 0.87792,0.43712c0.02841,0.02013 0.05296,0.01437 0.08134,0.0345c0.26353,0.2329 0.62613,0.28181 0.8897,0.51471c0.14598,0.1265 0.32531,0.13806 0.47768,0.22286c0.43897,0.21854 0.86128,0.49459 1.3272,0.63985c0.01421,0.01007 0.03872,0.00431 0.03872,0.00431c0.23763,0.1452 0.44825,0.36374 0.74762,0.41408c-0.03192,0.20839 -0.19173,0.32621 -0.25207,0.51448c-0.08235,0.12645 -0.16476,0.25289 -0.32209,0.30319c-0.08526,-0.06039 -0.17437,-0.14662 -0.28021,-0.17536c-0.37039,-0.10066 -0.65846,-0.32787 -0.97741,-0.50758c-0.31892,-0.1797 -0.68933,-0.28037 -0.97098,-0.54919c-0.24644,-0.03597 -0.41057,-0.19842 -0.61975,-0.32351c-0.02841,-0.02013 -0.07104,-0.05031 -0.10975,-0.05463c-0.17936,-0.01154 -0.30078,-0.14379 -0.43898,-0.21858c-0.07104,-0.05033 -0.14208,-0.10061 -0.20919,-0.12507c-0.36404,-0.14236 -0.73196,-0.31055 -1.05874,-0.54204c-0.04261,-0.03022 -0.08915,-0.08627 -0.13815,-0.07475c-0.19351,-0.0216 -0.32531,-0.13802 -0.46739,-0.23866c-0.14598,-0.1265 -0.36015,-0.11648 -0.52029,-0.25307c-0.21702,-0.17683 -0.48159,-0.24872 -0.72949,-0.37813c-0.33317,-0.18979 -0.69324,-0.30628 -1.01999,-0.53775c-0.05683,-0.04028 -0.11757,-0.10639 -0.18079,-0.10494c-0.15483,-0.0173 -0.27239,-0.12363 -0.41052,-0.19841c-0.11365,-0.08051 -0.23758,-0.14519 -0.35764,-0.18407c-0.22586,-0.06761 -0.43115,-0.1668 -0.63007,-0.30767c-0.30862,-0.19553 -0.67907,-0.2962 -0.96071,-0.565c-0.02841,-0.02013 -0.08132,-0.03454 -0.10975,-0.05466c-0.32925,-0.16393 -0.66875,-0.31198 -0.97736,-0.50755c-0.31255,-0.22138 -0.70748,-0.31633 -0.99941,-0.56936c-0.04261,-0.03022 -0.10583,-0.02874 -0.15874,-0.04313c-0.20527,-0.09921 -0.41448,-0.2243 -0.56826,-0.40255c0.03727,-0.0891 0.07842,-0.15234 0.10543,-0.22562c0.18678,-0.19114 0.33873,-0.36067 0.4868,-0.55612z" fill="#b0eef2"/><path d="M250.53288,182.76991c0.30077,0.14377 0.52421,0.27895 0.69613,0.49313c0.03128,0.20699 -0.03933,0.41106 -0.09575,0.62518c-0.32477,1.04051 -0.66374,2.07096 -1.13695,3.05255c-0.35751,0.74013 -0.72527,1.49611 -1.16407,2.20171c-0.12355,0.18967 -0.27161,0.38515 -0.35258,0.60503c-0.03727,0.0891 -0.09908,0.18395 -0.16082,0.27877c-0.30394,0.33916 -0.52262,0.73865 -0.78394,1.10801c-0.36426,0.52744 -0.78538,1.01461 -1.23488,1.48162c-0.23185,0.22847 -0.44952,0.46704 -0.67744,0.72138c-0.17256,0.20115 -0.38134,0.33048 -0.57594,0.46988c-0.32781,-0.0705 -0.43752,-0.12512 -0.7579,-0.39827c0.24068,-0.3377 0.54217,-0.60931 0.81129,-0.92686c0.25884,-0.30177 0.52796,-0.61935 0.7726,-0.9312c0.25493,-0.32763 0.50596,-0.68119 0.74666,-1.01887c0.24462,-0.31182 0.41428,-0.69988 0.70158,-0.98157c0.1555,-0.39811 0.42463,-0.71565 0.63693,-1.07353c0.20202,-0.34204 0.40009,-0.70995 0.58791,-1.06206c0.1981,-0.36791 0.38199,-0.74586 0.57621,-1.13965c0.17361,-0.36216 0.3717,-0.73005 0.53108,-1.10231c0.16968,-0.38802 0.30067,-0.78037 0.45615,-1.17849c0.16577,-0.41391 0.32516,-0.78611 0.42382,-1.22447z" fill="#d1eaeb"/><path d="M253.36337,194.36201c-0.02698,0.07329 -0.06817,0.13655 -0.10541,0.22563c0.15382,0.17825 0.33847,0.30906 0.56826,0.40254c0.05291,0.01439 0.11613,0.01297 0.15875,0.04315c0.29194,0.25302 0.67662,0.36377 0.99944,0.56936c0.29835,0.21134 0.64815,0.34363 0.97736,0.50758c0.02841,0.02013 0.08133,0.03451 0.10974,0.05463c0.28165,0.26885 0.64813,0.34365 0.9607,0.56504c0.1847,0.1308 0.40418,0.24008 0.63007,0.30765c0.13421,0.04889 0.25819,0.11358 0.35764,0.18405c0.12785,0.09056 0.23122,0.18688 0.41057,0.19843c0.06318,-0.00141 0.12395,0.06472 0.18078,0.10498c0.31255,0.22138 0.68687,0.3479 1.02,0.53772c0.2479,0.12942 0.51248,0.20128 0.72948,0.37813c0.14598,0.1265 0.36012,0.11649 0.5203,0.25307c0.13176,0.11645 0.27774,0.24295 0.46738,0.23869c0.05291,0.01439 0.09553,0.04456 0.13815,0.07473c0.32673,0.23146 0.68045,0.38965 1.05872,0.54203c0.08131,0.03453 0.14206,0.10061 0.20915,0.12506c0.12785,0.09056 0.25965,0.20699 0.43898,0.21853c0.03871,0.00433 0.08134,0.03451 0.10973,0.05464c0.18471,0.1308 0.37329,0.28752 0.61975,0.3235c0.28166,0.26882 0.65208,0.36952 0.97099,0.5492c0.31892,0.1797 0.62117,0.41691 0.97737,0.50755c0.10582,0.02877 0.19496,0.11504 0.28022,0.17539c-0.07847,0.15234 -0.22546,0.18679 -0.31174,0.28741c-0.64814,-0.34361 -1.2782,-0.65133 -1.89793,-0.97484c-0.68687,-0.34796 -1.34924,-0.70164 -2.02582,-1.06537c-0.63396,-0.33358 -1.27822,-0.65131 -1.92246,-0.96908c-0.79661,-0.4026 -1.58931,-0.77929 -2.37174,-1.17181c-0.59136,-0.30338 -1.18266,-0.60678 -1.7843,-0.89431c-0.92057,-0.46727 -1.81418,-1.00787 -2.75532,-1.44351c-0.12393,-0.0647 -0.26848,-0.09777 -0.36545,-0.23578c0.09265,-0.14228 0.22794,-0.25435 0.34903,-0.37652c0.07988,-0.05893 0.14413,-0.22131 0.29756,-0.29748z" fill="#87d7dc"/><path d="M266.99994,201.15701c0.18781,-0.3521 0.42215,-0.64815 0.59571,-1.01029c0.19029,-0.41965 0.36633,-0.84938 0.45719,-1.33943c0.824,0.58368 1.63377,1.15729 2.42936,1.72084c0.04303,0.28458 -0.03402,0.53035 -0.08653,0.77036c-0.10895,0.45416 -0.31735,0.83786 -0.53605,1.23739c-0.01031,0.01584 -0.04508,0.03733 -0.0696,0.04312c0.00743,-0.20265 -0.1371,-0.23572 -0.27137,-0.28462c-0.33563,-0.12222 -0.66093,-0.26025 -0.93476,-0.47736c-0.05683,-0.04028 -0.11366,-0.0805 -0.18078,-0.10492c-0.33173,-0.09636 -0.60553,-0.31343 -0.90637,-0.45722c-0.17685,-0.07913 -0.31109,-0.12792 -0.49683,-0.0978z" fill="#61afb4"/><path d="M251.31944,193.26068c0.44559,-0.49289 0.79174,-1.05621 1.19471,-1.57932c0.17893,-0.24284 0.31526,-0.51595 0.4516,-0.789c0.2805,-0.49437 0.62805,-0.96427 0.85168,-1.49892c0.09517,-0.20982 0.1903,-0.41965 0.26094,-0.62372c0.04368,-0.1308 0.1015,-0.2515 0.1736,-0.36218c0.05291,0.01435 0.09161,0.01871 0.12005,0.03886c0.11363,0.08052 0.22731,0.16099 0.34097,0.2415c-0.00884,0.10923 -0.02166,0.19258 -0.0447,0.29175c-0.20016,0.68982 -0.41063,1.39553 -0.8122,2.01207c-0.33586,0.54756 -0.68198,1.11086 -1.07468,1.61819c-0.30641,0.40672 -0.59861,0.82345 -1.00836,1.13384c0.02304,-0.09918 0.12746,-0.16383 0.08339,-0.28741c-0.13568,-0.14231 -0.28949,-0.32057 -0.53698,-0.19558z" fill="#61aeb3"/><path d="M252.51838,193.55555c0.14663,-0.28888 0.39659,-0.4814 0.58583,-0.74007c0.38486,-0.55906 0.76976,-1.11804 1.11198,-1.70727c0.27017,-0.47854 0.47322,-0.98159 0.63757,-1.48891c0.04368,-0.1308 0.08729,-0.26155 0.13096,-0.39235c0.1989,0.14088 0.36941,0.26163 0.55408,0.39248c0.04693,0.31045 -0.03651,0.59791 -0.15858,0.88103c-0.13878,0.34063 -0.28789,0.697 -0.47961,1.02323c-0.40652,0.75159 -0.88796,1.42705 -1.36548,2.12837c-0.08236,0.12645 -0.16474,0.25294 -0.30784,0.31328c-0.07104,-0.05033 -0.13179,-0.11642 -0.20919,-0.12506c-0.18324,-0.03741 -0.34347,-0.17398 -0.49971,-0.28466z" fill="#61aeb3"/><path d="M266.99992,201.15703c0.16125,-0.0244 0.30577,0.00869 0.45814,0.09351c0.30079,0.14377 0.57465,0.36089 0.90636,0.45721c0.06714,0.02446 0.12398,0.0647 0.1808,0.10497c0.29837,0.21133 0.60944,0.3393 0.93475,0.47734c0.12005,0.03885 0.2788,0.08196 0.27137,0.28463c-0.14025,0.24719 -0.31278,0.44838 -0.51765,0.60356c-0.22981,-0.09347 -0.46987,-0.17114 -0.64817,-0.34362c-0.02841,-0.02013 -0.08131,-0.03452 -0.10974,-0.05464c-0.31501,-0.15383 -0.64426,-0.31775 -0.94899,-0.48741c-0.13816,-0.07476 -0.2518,-0.15529 -0.40026,-0.21425c-0.18714,-0.06331 -0.36795,-0.16824 -0.47274,-0.35798c0.03728,-0.08909 0.07844,-0.15233 0.10544,-0.22561c0.07208,-0.11064 0.16866,-0.22708 0.24069,-0.33771z" fill="#87d7dc"/><path d="M244.6827,187.95879c0.32245,-0.04883 0.60119,0.03313 0.86974,0.13094c0.06713,0.02444 0.15236,0.08485 0.1989,0.1409c0.32962,0.4183 0.70044,0.7734 1.08153,1.11265c0.01421,0.01007 0.03232,0.04598 0.03626,0.07188c0.00142,0.09343 -0.05003,0.17248 -0.14411,0.22132c-0.0284,-0.02013 -0.06716,-0.02442 -0.09555,-0.04456c-0.33062,-0.25735 -0.69221,-0.46726 -1.09103,-0.58807c-0.20137,-0.07334 -0.35766,-0.18407 -0.47665,-0.38386c-0.12288,-0.22567 -0.27671,-0.4039 -0.37905,-0.66123z" fill="#cce5e6"/><path d="M246.21012,190.42684c-0.01914,0.12503 -0.07453,0.1782 -0.14804,0.19544c-0.70251,-0.45146 -0.70251,-0.45142 -1.46392,-0.62117c-0.22094,-0.20271 -0.39035,-0.48442 -0.56616,-0.7245c0.04367,-0.1308 0.13918,-0.08619 0.2024,-0.08762c0.22834,0.00003 0.4425,-0.00998 0.66446,0.03177c0.14458,0.03308 0.25428,0.08777 0.34732,0.19985c0.29342,0.34646 0.61129,0.68712 0.96395,1.00627z" fill="#cce5e6"/><path d="M266.74893,201.51052c-0.02699,0.0733 -0.06817,0.13657 -0.10543,0.22562c0.10478,0.18974 0.28556,0.29467 0.47275,0.35797c0.14847,0.05894 0.26211,0.13945 0.40028,0.21426c0.30473,0.16966 0.63395,0.33356 0.94898,0.48741c0.02841,0.02013 0.08134,0.03453 0.10974,0.05466c0.20281,0.16674 0.42865,0.23436 0.64813,0.34363c-0.11076,0.10634 -0.21128,0.19688 -0.37889,0.26295c-0.42867,-0.23436 -0.8922,-0.44716 -1.32478,-0.70738c-0.42867,-0.23436 -0.89851,-0.40549 -1.32473,-0.70738c0.17894,-0.24284 0.3593,-0.3923 0.55387,-0.53171z" fill="#60adb2"/><path d="M250.14938,187.5344c0.02697,-0.07329 0.04369,-0.1308 0.07064,-0.20408c0.04901,-0.0115 0.0735,-0.01721 0.09798,-0.02296c0.28269,0.10784 0.5821,0.1582 0.89173,0.19277c0.13034,0.02303 0.2259,0.06761 0.29443,0.18546c0.14741,0.21994 0.32963,0.41828 0.36626,0.74457c-0.30823,0.05884 -0.60762,0.0085 -0.89669,-0.05768c-0.05291,-0.01435 -0.11365,-0.08053 -0.16018,-0.13655c-0.22483,-0.22851 -0.4497,-0.45716 -0.66422,-0.70154z" fill="#cce5e6"/><path d="M246.69925,184.767c0.18323,0.03738 0.29938,0.05039 0.42973,0.07341c0.23619,0.0518 0.41693,0.15673 0.55406,0.39246c0.24827,0.38379 0.54173,0.73022 0.89687,0.98182c0.11364,0.08052 0.11754,0.10637 -0.02018,0.28603c-0.04262,-0.0302 -0.09556,-0.04454 -0.13818,-0.07477c-0.34487,-0.26739 -0.71669,-0.46151 -1.11944,-0.60818c-0.09554,-0.04459 -0.17686,-0.07908 -0.22734,-0.16099c-0.13075,-0.27741 -0.28205,-0.52323 -0.37549,-0.88977z" fill="#cae2e3"/><path d="M247.43927,188.57158c-0.02448,0.00573 -0.06325,0.00144 -0.07743,-0.00863c-0.30614,-0.26305 -0.65988,-0.42123 -1.00972,-0.55357c-0.3253,-0.13801 -0.59527,-0.32925 -0.76219,-0.67854c-0.07637,-0.16962 -0.22236,-0.29608 -0.26393,-0.48729c0.46308,-0.04162 0.84522,0.13671 1.0857,0.46876c0.30122,0.39819 0.57791,0.80209 1.00023,1.07814c0.03234,0.04601 0.08914,0.08628 0.02738,0.18112z" fill="#c9e1e2"/><path d="M245.99276,185.88359c0.33027,0.00294 0.57033,0.08058 0.8246,0.16831c0.08132,0.03453 0.15236,0.08485 0.1886,0.15672c0.30514,0.42407 0.64504,0.82653 1.00554,1.19742c0.0284,0.02013 0.06074,0.0661 -0.00496,0.1351c-0.09943,-0.07045 -0.21309,-0.15095 -0.32285,-0.20559c-0.29441,-0.18546 -0.59914,-0.3551 -0.93085,-0.45145c-0.24009,-0.07763 -0.41447,-0.2243 -0.51287,-0.45572c-0.07637,-0.16962 -0.13858,-0.32915 -0.24727,-0.54477z" fill="#c9e1e2"/><path d="M250.65597,186.43787c-0.00922,-0.14518 0.04225,-0.22423 0.09372,-0.30325c0.02447,-0.00574 0.06322,-0.00144 0.08769,-0.00715c0.2479,0.1294 0.52279,0.1855 0.80012,0.17404c0.16512,0.00148 0.28908,0.06617 0.38605,0.20418c0.11509,0.17391 0.25471,0.3421 0.335,0.5376c-0.24111,0.08331 -0.60229,0.12782 -0.73654,0.07891c-0.09161,-0.01867 -0.12788,-0.09055 -0.18859,-0.15671c-0.25179,-0.15528 -0.46636,-0.39965 -0.77742,-0.52763z" fill="#cae3e4"/><path d="M248.07242,192.50834c-0.12435,-0.31907 -0.27956,-0.59077 -0.45931,-0.85671c0.03335,-0.11494 0.07456,-0.17823 0.16865,-0.22708c0.30718,0.10209 0.58491,0.34508 0.90242,0.43136c0.10478,0.18975 0.10766,0.37658 0.14927,0.56773c0.01564,0.10345 0.05578,0.20118 -0.00208,0.32192c-0.26706,-0.00437 -0.48406,-0.18119 -0.75894,-0.23729z" fill="#c8e0e1"/><path d="M249.05207,189.5061c0.10685,-0.1322 0.174,-0.10776 0.24111,-0.08331c0.25431,0.08773 0.49435,0.16537 0.73834,0.26889c0.06714,0.02444 0.12397,0.0647 0.16021,0.13657c0.08418,0.22134 0.15808,0.45851 0.20752,0.70141c-0.13671,0.01863 -0.23227,-0.02593 -0.3484,-0.03889c-0.34837,-0.03889 -0.60018,-0.19413 -0.69367,-0.56064c-0.05187,-0.17539 -0.17335,-0.30763 -0.30514,-0.42405z" fill="#cbe4e5"/><path d="M248.40342,190.502c0.05145,-0.07905 0.08234,-0.12647 0.11323,-0.17389c0.03871,0.00433 0.07351,-0.0172 0.0877,-0.00716c0.17684,0.07913 0.34346,0.17397 0.52031,0.25305c0.09554,0.0446 0.15627,0.11073 0.19641,0.20846c0.12045,0.2932 0.21636,0.5922 0.28142,0.93859c-0.19994,0.0201 -0.33808,-0.05468 -0.47623,-0.12944c-0.05679,-0.04027 -0.11364,-0.08054 -0.13568,-0.14228c-0.09347,-0.36652 -0.31582,-0.66266 -0.58717,-0.9473z" fill="#c8e0e1"/><path d="M252.51836,193.55554c0.15626,0.11071 0.31647,0.2473 0.52425,0.27893c0.07742,0.00863 0.13812,0.07479 0.20916,0.12509c-0.16082,0.27878 -0.36817,0.50153 -0.62208,0.66819c-0.1783,-0.17252 -0.41836,-0.25016 -0.60944,-0.33929c0.00102,-0.16097 0.11575,-0.24144 0.14908,-0.35639c0.07847,-0.15234 0.19564,-0.30036 0.34902,-0.37652z" fill="#85d5d9"/><path d="M248.17789,184.05873c0.16162,0.23 0.32326,0.45997 0.50937,0.68424c0.16801,0.18832 0.47768,0.22286 0.53631,0.61095c-0.48301,-0.34213 -0.98131,-0.53341 -1.47958,-0.72466c-0.10478,-0.18975 -0.2135,-0.40535 -0.23838,-0.65402c0.04901,-0.0115 0.07352,-0.01722 0.09799,-0.02297c0.19352,0.02159 0.37682,0.05898 0.57423,0.10644z" fill="#c6dede"/><path d="M244.19757,187.9386c0.16945,0.28176 0.32076,0.52751 0.49022,0.80927c-0.16761,0.06607 -0.31217,0.033 -0.44887,0.05167c-0.15091,0.00862 -0.30827,0.05886 -0.46698,0.01572c-0.09943,-0.07045 -0.14352,-0.19406 -0.19787,-0.30183c-0.05436,-0.10778 -0.09838,-0.23144 -0.13217,-0.37086c0.22939,-0.16092 0.48224,-0.1666 0.7557,-0.20394z" fill="#cae3e3"/><path d="M245.5796,191.45867c-0.49829,-0.19124 -0.92553,-0.33217 -1.40032,-0.36818c-0.14351,-0.19409 -0.29729,-0.37231 -0.455,-0.57643c0.2475,-0.125 0.46947,-0.0833 0.69777,-0.08323c0.03871,0.00433 0.08133,0.03455 0.10974,0.05466c0.32426,0.299 0.64857,0.59801 1.04778,0.97319z" fill="#cae3e4"/><path d="M251.07874,189.48634c-0.33026,-0.00294 -0.62574,-0.0274 -0.81719,-0.37096c-0.13712,-0.23576 -0.33992,-0.40251 -0.54272,-0.56926c-0.08524,-0.06039 -0.048,-0.14948 0.04221,-0.22423c0.20672,0.1926 0.47132,0.26454 0.7359,0.33646c0.19744,0.04745 0.30473,0.16965 0.38111,0.33927c0.07246,0.14373 0.17972,0.26596 0.20071,0.48875z" fill="#c8e0e1"/><path d="M251.31942,193.26067c0.26172,-0.11494 0.40127,0.05327 0.56148,0.18983c0.04405,0.12359 -0.04611,0.19833 -0.08336,0.28741c-0.14805,0.19543 -0.32845,0.34486 -0.53726,0.47421c-0.14597,-0.1265 -0.34341,-0.17399 -0.43402,-0.35365c0.03728,-0.0891 0.06818,-0.13654 0.10934,-0.19976c0.13137,-0.13798 0.26271,-0.27593 0.38381,-0.39807z" fill="#85d4d9"/><path d="M249.74691,190.82989c0.27487,0.05611 0.50076,0.12369 0.73694,0.17547c0.06359,0.25298 0.10272,0.51167 0.10308,0.7661c-0.10049,0.09055 -0.20631,0.06175 -0.294,0.06894c-0.08771,0.00716 -0.17542,0.01434 -0.26457,-0.07193c-0.08808,-0.24724 -0.17374,-0.56198 -0.28142,-0.93859z" fill="#c7dfe0"/><path d="M252.0595,188.84122c0.07,0.21132 0.15026,0.40677 0.17519,0.65543c-0.25142,0.09914 -0.47334,0.0574 -0.73011,0.03723c-0.0984,-0.23142 -0.19684,-0.46282 -0.30945,-0.70434c0.30185,-0.01718 0.55867,0.00299 0.86438,0.01167z" fill="#c8e0e1"/><path d="M244.23716,186.85773c0.19604,-0.04593 0.39203,-0.09188 0.5998,-0.06024c0.13712,0.23576 0.26394,0.48728 0.40496,0.74889c-0.02058,0.03158 -0.04118,0.06321 -0.05539,0.05315c-0.18964,0.00428 -0.39346,-0.00152 -0.5728,-0.01304c-0.07743,-0.00865 -0.14459,-0.03306 -0.16659,-0.09486c-0.1087,-0.21562 -0.24828,-0.3838 -0.20999,-0.6339z" fill="#c4dcdd"/><path d="M246.25289,184.75107c0.10232,0.25728 0.21492,0.49877 0.31725,0.75609c-0.12498,0.09625 -0.23862,0.01574 -0.35476,0.00278c-0.11611,-0.01295 -0.23618,-0.05178 -0.3665,-0.0748c-0.11898,-0.1998 -0.12962,-0.4384 -0.18937,-0.66553c0.21267,-0.10342 0.39596,-0.06603 0.5934,-0.01854z" fill="#c8e0e1"/><path d="M252.27671,188.34837c-0.1268,-0.25157 -0.24974,-0.47726 -0.39074,-0.73886c0.2166,-0.07758 0.42437,-0.04589 0.63071,-0.10767c0.15769,0.20414 0.18261,0.4528 0.27069,0.70002c-0.18819,0.0977 -0.34159,0.17385 -0.51062,0.14648z" fill="#c6ddde"/><path d="M251.06702,185.29677c0.34449,0.013 0.66589,0.12514 1.01284,0.07061c0.1396,0.16817 0.27528,0.31053 0.35948,0.53188c-0.22298,0.11923 -0.42296,0.13934 -0.61544,-0.04323c-0.22482,-0.22854 -0.50114,-0.37808 -0.75689,-0.55924z" fill="#b9cfd0"/><path d="M244.80413,192.20301c-0.1044,0.06465 -0.14457,-0.03305 -0.21164,-0.05751c-0.14846,-0.05897 -0.28658,-0.13368 -0.43365,-0.09924c-0.23864,0.01576 -0.38462,-0.11069 -0.53451,-0.26312c-0.06073,-0.06616 -0.1112,-0.14806 -0.19004,-0.25013c0.29012,-0.09483 0.53517,-0.15224 0.7639,0.10217c0.15382,0.17824 0.36299,0.30334 0.53738,0.44997c0.0426,0.03022 0.08525,0.06039 0.06856,0.11787z" fill="#c0d8d8"/><path d="M247.93979,193.47697c-0.17936,-0.01154 -0.31358,-0.06043 -0.42723,-0.14092c-0.05679,-0.04027 -0.12789,-0.09054 -0.1499,-0.15236c-0.09202,-0.27311 -0.22914,-0.50883 -0.36626,-0.74459c0.07209,-0.11062 0.11858,-0.05458 0.16124,-0.02439c0.14208,0.10064 0.29836,0.21133 0.46102,0.28034c0.20528,0.09922 0.30226,0.23721 0.29875,0.46574c-0.00885,0.10923 0.00288,0.18685 0.02243,0.31617z" fill="#c1d9d9"/><path d="M251.22263,189.93485c0.09449,0.2055 0.12575,0.41254 0.18547,0.63962c-0.19849,0.11351 -0.38562,0.0502 -0.57529,0.05451c-0.11263,-0.24149 -0.12723,-0.50592 -0.18053,-0.77473c0.21415,-0.01001 0.38711,0.0432 0.57038,0.08059z" fill="#c3dbdc"/><path d="M245.83374,186.51029c-0.26069,-0.04602 -0.49687,-0.09785 -0.74332,-0.13382c-0.08672,-0.15381 -0.15913,-0.29755 -0.15174,-0.5002c0.20633,-0.06177 0.39986,-0.04015 0.60374,-0.0344c0.1435,0.19409 0.23799,0.39957 0.2913,0.66836z" fill="#c3dadb"/><path d="M250.9598,191.80466c-0.02489,-0.24866 -0.04588,-0.47143 -0.06687,-0.69419c0.2024,-0.08764 0.39595,-0.06604 0.58947,-0.04445c0.0558,0.20122 0.07289,0.39811 0.05514,0.61655c-0.05931,0.02728 -0.14312,0.06033 -0.19209,0.07183c-0.13672,0.01865 -0.23863,0.01577 -0.38568,0.05022z" fill="#c4dbdc"/><path d="M246.39883,193.10156c0.26994,0.19124 0.48306,0.34221 0.71037,0.50316c0.04798,0.14951 0.05721,0.29467 0.00717,0.46708c-0.1328,0.0445 -0.21166,-0.05754 -0.31749,-0.08632c-0.10582,-0.02875 -0.20137,-0.07335 -0.27242,-0.12364c-0.03913,-0.25876 -0.0704,-0.46572 -0.12761,-0.76035z" fill="#c2d9da"/><path d="M243.30583,187.74576c-0.07246,-0.14373 -0.10627,-0.28314 -0.10129,-0.41826c0.06816,-0.13651 0.19464,-0.13937 0.28869,-0.18821c0.09405,-0.04886 0.17006,-0.13363 0.30039,-0.1106c0.12149,0.13225 0.17726,0.33347 0.26151,0.55485c-0.12253,0.02874 -0.24506,0.05747 -0.35336,0.09623c-0.13671,0.01863 -0.27342,0.03734 -0.39596,0.06605z" fill="#c5ddde"/><path d="M252.31146,189.92064c0.0906,0.1797 0.05085,0.33635 0.07432,0.49157c-0.18429,0.12356 -0.38423,0.14365 -0.60867,0.16951c-0.0416,-0.19116 -0.08317,-0.38234 -0.13504,-0.55773c0.22299,-0.11923 0.44498,-0.07753 0.66938,-0.10335z" fill="#c3dbdc"/><path d="M244.06797,190.01827c-0.08382,0.03307 -0.13278,0.04456 -0.18177,0.05606c-0.1122,0.0129 -0.23866,0.01576 -0.37537,0.03441c-0.1268,-0.25157 -0.28453,-0.45566 -0.32754,-0.74026c0.1005,-0.09054 0.2024,-0.08765 0.34304,-0.08042c0.17192,0.21418 0.36194,0.46431 0.54171,0.73021z" fill="#c7dfe0"/><path d="M249.74003,192.21117c0.01069,0.23857 0.09096,0.43405 0.04874,0.65825c-0.17792,0.08187 -0.34446,-0.01299 -0.50177,0.03728c-0.09202,-0.27312 -0.10274,-0.51168 -0.14183,-0.7704c0.23084,-0.06752 0.38708,0.04319 0.59486,0.07483z" fill="#c7dee0"/><path d="M252.15518,193.92191c-0.03335,0.11497 -0.14807,0.19541 -0.14908,0.3564c0.20528,0.09922 0.43505,0.19268 0.60943,0.3393c-0.0554,0.05318 -0.12108,0.12214 -0.19065,0.16526c-0.1044,0.06465 -0.21661,0.07754 -0.31609,0.00711c-0.18077,-0.10494 -0.34733,-0.19981 -0.52812,-0.30481c0.13385,-0.20551 0.20985,-0.2903 0.57451,-0.56331z" fill="#61acb1"/><path d="M247.07837,183.8343c0.07,0.21132 0.12185,0.38661 0.18156,0.61374c-0.24647,-0.03598 -0.47869,-0.06188 -0.71487,-0.11365c-0.06219,-0.15952 -0.11014,-0.30904 -0.12332,-0.48007c0.23084,-0.06751 0.42435,-0.04592 0.65661,-0.02002z" fill="#c2dada"/><path d="M248.30381,193.61936c-0.07,-0.21132 -0.07288,-0.39814 -0.09384,-0.62095c0.24009,0.07763 0.45175,0.13519 0.66343,0.19274c0.08671,0.15379 0.05723,0.29466 0.04588,0.47142c-0.19209,0.07183 -0.37931,0.00857 -0.61542,-0.04321z" fill="#c1d9d9"/><path d="M245.43722,185.39774c-0.23474,0.04163 -0.41016,0.05596 -0.5959,0.0861c-0.11118,-0.14806 -0.12826,-0.34497 -0.14532,-0.54189c0.16369,-0.09193 0.3313,-0.15802 0.53515,-0.15223c0.1396,0.16817 0.10765,0.3766 0.20609,0.60801z" fill="#c6dedf"/><path d="M252.88867,188.62006c0.05579,0.20121 0.08706,0.40822 0.12866,0.59937c-0.10685,0.1322 -0.22546,0.1868 -0.38672,0.21121c-0.1435,-0.19409 -0.12964,-0.43838 -0.21388,-0.65975c0.14948,-0.10205 0.3004,-0.11059 0.47194,-0.15083z" fill="#c0d7d7"/><path d="M243.33865,190.5642c0.11508,0.17392 0.27526,0.31051 0.32471,0.55341c-0.16125,0.0244 -0.30828,0.05885 -0.45526,0.09332c-0.17045,-0.12076 -0.26105,-0.30043 -0.29232,-0.50739c0.12499,-0.09626 0.24749,-0.12498 0.42291,-0.13935z" fill="#c3dadb"/><path d="M250.94589,193.64294c-0.04119,0.06324 -0.06816,0.13654 -0.10933,0.19979c0.0906,0.17971 0.288,0.22715 0.43401,0.35364c-0.05786,0.12071 -0.1843,0.12357 -0.27057,0.22416c-0.22586,-0.0676 -0.36549,-0.23576 -0.62223,-0.25593c0.08876,-0.16813 0.19313,-0.23279 0.30786,-0.3133c0.07987,-0.05894 0.12358,-0.18969 0.26027,-0.20834z" fill="#5aa0a4"/><path d="M252.82773,185.11156c0.11508,0.17391 0.27529,0.31055 0.32078,0.52756c-0.1005,0.09054 -0.19852,0.11351 -0.34551,0.148c-0.13569,-0.14232 -0.25078,-0.31624 -0.31689,-0.50166c0.1005,-0.09054 0.18431,-0.12358 0.3416,-0.17384z" fill="#bdd3d4"/><path d="M251.90366,191.50297c-0.01316,-0.17105 -0.0366,-0.32628 -0.06009,-0.48148c0.16371,-0.09194 0.32494,-0.11635 0.50035,-0.1307c0.08274,0.12793 0.03912,0.25876 -0.03294,0.36938c-0.09264,0.14229 -0.1853,0.28454 -0.4073,0.24284z" fill="#bdd4d5"/><path d="M248.676,183.3258c0.11898,0.1998 0.2238,0.38956 0.3428,0.58933c-0.40129,-0.05324 -0.72269,-0.16544 -0.75829,-0.65266c0.1328,-0.0445 0.25676,0.0202 0.41548,0.06333z" fill="#bbd2d3"/><path d="M250.61941,192.74167c-0.13918,0.0862 -0.26563,0.08906 -0.39205,0.09187c-0.09944,-0.07045 -0.07638,-0.16963 -0.09201,-0.27312c-0.01173,-0.0776 -0.03767,-0.16526 0.00992,-0.27018c0.13918,-0.0862 0.28126,0.0144 0.43465,-0.06174c0.06611,0.18542 0.06507,0.34638 0.03955,0.51309z" fill="#c3dadb"/><path d="M247.61922,188.16778c-0.23511,-0.2128 -0.47024,-0.42552 -0.66419,-0.70152c0.07599,-0.08476 0.15734,-0.0503 0.22834,0.00006c0.19496,0.11503 0.37963,0.24581 0.55013,0.36659c0.12785,0.09056 0.09452,0.20556 -0.11428,0.33485z" fill="#b1c6c7"/><path d="M253.50393,187.73913c-0.09307,-0.11209 -0.07391,-0.23715 -0.10376,-0.3507c-0.07,-0.21132 0.00846,-0.36363 0.20307,-0.50304c0.13711,0.23574 0.14141,0.51602 0.15212,0.75459c-0.08629,0.10059 -0.1456,0.1279 -0.25142,0.09914z" fill="#bbd2d3"/><path d="M248.85681,185.94886c-0.31113,-0.12797 -0.48053,-0.40969 -0.67451,-0.68569c0.26069,0.04602 0.47377,0.19701 0.68296,0.32206c0.13817,0.07476 0.13571,0.14234 -0.00847,0.36363z" fill="#bad1d2"/><path d="M251.82586,184.60983c0.18572,-0.03014 0.34305,-0.08041 0.52875,-0.11057c0.06075,0.06614 0.12931,0.184 0.20816,0.28606c-0.25637,0.23424 -0.27058,0.22417 -0.44498,0.07753c-0.09943,-0.07046 -0.18859,-0.15671 -0.29195,-0.25302z" fill="#b5cbcc"/><path d="M243.88004,185.33414c0.14559,-0.12787 0.27839,-0.17245 0.41119,-0.21695c0.09699,0.138 0.0714,0.30472 0.08461,0.47574c-0.14309,0.06038 -0.27589,0.10484 -0.419,0.16519c-0.11756,-0.10636 -0.05334,-0.26876 -0.07679,-0.42403z" fill="#c0d7d8"/><path d="M252.32009,186.36922c0.09019,-0.07469 0.2024,-0.08766 0.32884,-0.09052c0.15378,0.17826 0.23802,0.3996 0.2732,0.63246c-0.05786,0.12071 -0.12108,0.12214 -0.21268,0.10343c-0.13323,-0.20984 -0.26644,-0.41974 -0.38933,-0.64542z" fill="#bdd4d4"/><path d="M246.96043,183.4735c-0.18964,0.00428 -0.38316,-0.01732 -0.57281,-0.01305c-0.02984,-0.11355 -0.00679,-0.21274 0.05496,-0.30757c0.09018,-0.07469 0.18179,-0.05604 0.2837,-0.05314c0.07743,0.00865 0.15483,0.01726 0.23226,0.0259c0.05437,0.10782 0.07001,0.21131 0.00183,0.34786z" fill="#b6cccc"/><path d="M244.64798,186.38639c-0.18572,0.03013 -0.34694,0.05455 -0.54299,0.1005c-0.07495,-0.07617 -0.12932,-0.18401 -0.07927,-0.35647c0.14309,-0.06039 0.3004,-0.11062 0.468,-0.1767c0.07246,0.14373 0.14105,0.26162 0.1542,0.43267z" fill="#c1d9d9"/><path d="M247.81262,183.15322c0.07245,0.14373 0.11655,0.26737 0.11548,0.42833c-0.18572,0.03014 -0.34841,-0.03892 -0.49293,-0.07198c-0.09306,-0.11209 -0.05969,-0.22709 -0.05084,-0.33632c0.0451,-0.03735 0.06569,-0.06897 0.07988,-0.05894c0.11611,0.01299 0.23224,0.02592 0.3484,0.0389z" fill="#b7cdce"/><path d="M249.58016,183.18076c-0.23865,0.01575 -0.3665,-0.0748 -0.51496,-0.13376c-0.17298,-0.0532 -0.16801,-0.18831 -0.16699,-0.34927c0.18572,-0.03014 0.33417,0.02882 0.48902,0.0461c0.12147,0.13225 0.06115,0.32053 0.19293,0.43696z" fill="#b6cccc"/><path d="M253.33993,185.98278c0.06218,0.15954 0.10624,0.28314 0.16451,0.41682c-0.07847,0.15234 -0.14025,0.24719 -0.28334,0.30753c-0.06609,-0.18543 -0.14246,-0.35505 -0.20464,-0.51457c0.05002,-0.17246 0.17646,-0.17528 0.25243,-0.2601c0.0284,0.02013 0.06715,0.02444 0.07106,0.05031z" fill="#c2dada"/><path d="M243.60034,186.3373c0.06853,0.11786 0.0803,0.19547 0.05725,0.29466c-0.04759,0.10493 -0.14558,0.12787 -0.23968,0.17675c-0.08381,0.03306 -0.17006,0.13365 -0.27981,0.07901c-0.03375,-0.13941 -0.04302,-0.28457 0.02124,-0.447c0.15732,-0.05028 0.29403,-0.06894 0.44106,-0.10341z" fill="#bbd2d3"/><path d="M249.29603,193.72159c0.00104,-0.16097 -0.00431,-0.28028 0.00062,-0.41537c0.17154,-0.04023 0.32636,-0.02292 0.49153,-0.02146c0.04405,0.12359 0.04943,0.24294 -0.02269,0.35355c-0.03481,0.02158 -0.06959,0.04308 -0.10832,0.03879c-0.09798,0.02298 -0.21026,0.03588 -0.36117,0.04449z" fill="#bbd2d3"/><path d="M252.08959,184.173c-0.27984,0.079 -0.27984,0.07902 -0.5728,-0.01305c-0.06217,-0.15955 0.006,-0.29608 0.05606,-0.46852c0.2298,0.09348 0.363,0.30333 0.51679,0.48158z" fill="#adc2c3"/><path d="M250.99336,192.61381c-0.04405,-0.12359 -0.03909,-0.25875 0.01877,-0.37944c0.17154,-0.04023 0.3185,-0.07473 0.47973,-0.09906c-0.03295,0.36938 -0.04322,0.38519 -0.49849,0.47855z" fill="#b5cbcc"/><path d="M246.018,183.86859c0.04799,0.1495 0.07779,0.26304 0.07675,0.42402c-0.15337,0.07613 -0.31215,0.03298 -0.48759,0.04734c-0.02203,-0.06181 -0.02983,-0.11353 -0.03768,-0.16527c-0.00783,-0.05176 0.00884,-0.10923 0.01132,-0.17681c0.13529,-0.11209 0.27198,-0.13072 0.43716,-0.12928z" fill="#bbd1d2"/><path d="M248.01056,194.19711c-0.20241,0.08764 -0.38318,-0.01732 -0.54831,-0.01877c-0.05824,-0.13368 -0.00042,-0.25442 0.00456,-0.38955c0.22833,0.00002 0.39101,0.06908 0.51638,0.2272c0.04261,0.0302 0.02984,0.11354 0.02738,0.18108z" fill="#b6cccd"/><path d="M242.80537,189.47043c0.11263,0.24149 0.20071,0.48873 0.29912,0.72012c-0.0863,0.10059 -0.17006,0.13364 -0.3107,0.12643c-0.05335,-0.26877 -0.10663,-0.53754 -0.08645,-0.82356c0.04902,-0.0115 0.07351,-0.01722 0.09799,-0.02299z" fill="#acc1c2"/><path d="M247.70167,186.44741c0.21559,0.0834 0.42088,0.18263 0.58493,0.34508c0.06073,0.06616 0.08668,0.15378 0.03521,0.23282c-0.02058,0.03157 -0.0902,0.0747 -0.10441,0.06465c-0.2234,-0.13514 -0.36443,-0.39675 -0.51575,-0.64254z" fill="#a7bbbb"/><path d="M245.18095,184.03804c0.06466,0.09201 0.05579,0.20122 0.03662,0.32625c-0.15732,0.05028 -0.31463,0.10055 -0.47194,0.15083c-0.07246,-0.14373 -0.02488,-0.24864 0.04718,-0.3593c0.1044,-0.06465 0.25141,-0.09915 0.38815,-0.11777z" fill="#b7cdcd"/><path d="M252.78563,190.372c-0.09061,-0.17971 -0.08952,-0.34065 -0.07823,-0.51743c0.12499,-0.09626 0.24359,-0.15087 0.41263,-0.12353c-0.03832,0.25008 -0.17609,0.42972 -0.3344,0.64097z" fill="#b7cece"/><path d="M246.15539,194.1766c-0.24255,-0.0101 -0.38604,-0.20416 -0.5796,-0.22573c-0.04405,-0.12359 0.01135,-0.17677 0.07457,-0.17821c0.16513,0.00146 0.3342,0.02881 0.47623,0.12945c0.03233,0.04602 0.04652,0.05608 0.02882,0.27454z" fill="#b4cacb"/><path d="M243.31666,188.9086c-0.10438,0.06465 -0.1779,0.08188 -0.26952,0.06321c-0.07,-0.21132 -0.15419,-0.43266 -0.12371,-0.73448c0.25179,0.15528 0.30119,0.39819 0.39323,0.67128z" fill="#b2c8c9"/><path d="M250.16743,193.27625c0.14309,-0.06038 0.2514,-0.09913 0.35724,-0.07037c0.04653,0.05605 0.02989,0.11357 0.01318,0.17106c-0.06671,0.22993 -0.21769,0.23853 -0.41119,0.21693c0.02304,-0.09918 0.03191,-0.20842 0.04077,-0.31763z" fill="#b5cbcb"/><path d="M249.40461,184.78906c-0.19497,-0.11502 -0.35124,-0.22567 -0.49083,-0.39387c0.03728,-0.08909 0.10048,-0.09053 0.14309,-0.06036c0.10976,0.05465 0.22983,0.09348 0.33955,0.14811c0.11364,0.08052 0.10086,0.16386 0.00818,0.3061z" fill="#91a3a3"/><path d="M245.208,190.59485c0.24255,0.0101 0.41694,0.15675 0.58742,0.27752c0.0284,0.02013 0.03624,0.07187 0.02983,0.11354c-0.02058,0.03158 -0.07987,0.05893 -0.0941,0.04887c-0.2298,-0.09348 -0.39389,-0.2559 -0.52318,-0.43991z" fill="#99abac"/><path d="M245.19686,191.69572c-0.01524,0.15091 -0.06674,0.22994 -0.15836,0.21124c-0.12005,-0.03885 -0.2415,-0.17109 -0.38501,-0.36513c0.21417,-0.01005 0.3704,0.10065 0.54335,0.15389z" fill="#93a5a6"/><path d="M253.61384,188.71789c-0.07388,-0.23717 -0.17232,-0.46858 0.12666,-0.67263c0.08807,0.24724 -0.04576,0.45272 -0.12666,0.67263z" fill="#9aadad"/><path d="M250.88404,187.1077c-0.14457,-0.03308 -0.30328,-0.07623 -0.43364,-0.09927c-0.04013,-0.09775 -0.02346,-0.15523 0.05253,-0.24001c0.17938,0.01153 0.28026,0.17539 0.4184,0.25015c-0.02059,0.03158 -0.0309,0.04742 -0.03728,0.08912z" fill="#c5dddd"/><path d="M246.57241,188.62745c0.27734,-0.01146 0.46205,0.11942 0.60555,0.31345c0.01421,0.01007 0.00782,0.05177 -0.01277,0.08338c-0.01669,0.05749 -0.07987,0.05893 -0.10829,0.03878c-0.16657,-0.09485 -0.30617,-0.26308 -0.48449,-0.43559z" fill="#aec2c3"/><path d="M248.35606,194.04913c0.18572,-0.03014 0.35868,0.02307 0.51745,0.06624c0.04015,0.09774 -0.01527,0.15093 -0.09268,0.14229c-0.14065,-0.00722 -0.26705,-0.00439 -0.41158,-0.03748c-0.04902,0.0115 -0.06073,-0.06611 -0.01317,-0.17103z" fill="#9caeaf"/><path d="M244.33696,184.66449c-0.1353,0.1121 -0.25386,0.16665 -0.41119,0.21694c0.07702,-0.24576 0.23288,-0.38947 0.35644,-0.57915c0.03234,0.04602 0.06074,0.06616 0.06462,0.09199c0.00142,0.09343 -0.01133,0.17676 -0.00987,0.27017z" fill="#a9bebf"/><path d="M248.03272,191.0711c0.04368,-0.1308 0.09903,-0.18392 0.1829,-0.21698c0.15234,0.08483 0.2493,0.22283 0.28844,0.48156c-0.19108,-0.08915 -0.31892,-0.17973 -0.47131,-0.26454z" fill="#b9cfd0"/><path d="M250.91046,185.85585c-0.04013,-0.09774 -0.01315,-0.17105 0.01382,-0.24433c0.07989,-0.05892 0.15091,-0.00862 0.46099,0.28036c-0.20879,0.12932 -0.33419,-0.02881 -0.47481,-0.03603z" fill="#869797"/><path d="M245.98306,189.5961c0.19642,0.20845 0.48799,0.20707 0.51431,0.54913c-0.2543,-0.08771 -0.41447,-0.22425 -0.51431,-0.54913z" fill="#93a4a5"/><path d="M249.24386,183.47391c0.21308,0.15094 0.35516,0.25161 0.49723,0.35224c0.0284,0.02013 0.03625,0.07188 0.00534,0.11927c-0.0103,0.01584 -0.0451,0.03735 -0.06961,0.04311c-0.19108,-0.08911 -0.34739,-0.19985 -0.43299,-0.5146z" fill="#94a5a6"/><path d="M251.19165,184.94604c0.00498,-0.13512 0.02161,-0.19257 0.12993,-0.23138c0.12393,0.0647 0.26211,0.13945 0.37329,0.28753c-0.20243,0.0876 -0.34444,-0.01302 -0.50319,-0.05614z" fill="#abbfc0"/><path d="M248.57821,182.67899c-0.02305,0.09916 -0.02945,0.14084 -0.05006,0.17248c-0.31216,0.033 -0.31212,0.03299 -0.48012,-0.15532c0.1882,-0.0977 0.33025,0.0029 0.53016,-0.01714z" fill="#acc0c1"/><path d="M253.06577,188.0293c-0.05188,-0.17539 -0.12826,-0.34496 -0.16986,-0.53612c-0.01173,-0.0776 0.0295,-0.14085 0.14558,-0.12787c0.07,0.21132 0.12577,0.41252 0.02424,0.66401z" fill="#9fb2b2"/><path d="M245.98772,183.50061c-0.10834,0.03879 -0.18184,0.056 -0.27343,0.03732c-0.03626,-0.07188 -0.03377,-0.13942 0.00351,-0.22853c0.076,-0.08477 0.1882,-0.09769 0.3004,-0.1106c0.06466,0.09201 0.01708,0.19691 -0.03049,0.30179z" fill="#aec2c3"/><path d="M249.75193,189.1009c-0.15336,0.07613 -0.25286,0.0057 -0.36259,-0.04894c-0.0426,-0.03022 -0.04012,-0.09772 -0.00924,-0.14516c0.02059,-0.03158 0.07989,-0.05894 0.1083,-0.03879c0.11611,0.01295 0.1808,0.10498 0.26353,0.2329z" fill="#91a2a3"/><path d="M243.46634,185.61867c0.12826,0.34498 0.13221,0.37084 -0.20054,0.43546c0.05397,-0.14658 0.05499,-0.30757 0.20054,-0.43546z" fill="#869696"/><path d="M244.60604,192.57088c-0.20633,0.06176 -0.26066,-0.04602 -0.34983,-0.13229c0.1637,-0.09193 0.1637,-0.09194 0.34983,0.13229z" fill="#555f5f"/><path d="M249.99638,187.86495c0.07105,0.05032 0.17046,0.12076 0.23905,0.23863c-0.22053,0.05169 -0.27734,0.01144 -0.33561,-0.1222c-0.01812,-0.03593 0.01275,-0.08338 0.09659,-0.11639z" fill="#93a5a6"/><path d="M249.78994,182.89053c0.27344,-0.03733 0.29159,-0.00141 0.16942,0.28175c-0.12006,-0.03886 -0.14991,-0.15235 -0.16942,-0.28175z" fill="#8b9b9c"/><path d="M243.89263,192.55063c0.17295,0.05322 0.27628,0.14951 0.37966,0.24588c-0.01914,0.12503 -0.07847,0.15233 -0.13529,0.11206c-0.11365,-0.0805 -0.21701,-0.17684 -0.24439,-0.3579z" fill="#9aacad"/><path d="M247.42618,182.69457c0.1328,-0.0445 0.23722,-0.10918 0.34058,-0.01287c0.01421,0.01008 0.01813,0.03594 0.00785,0.05175c-0.12109,0.12214 -0.22693,0.09338 -0.3484,-0.03888z" fill="#5f6a6b"/><path d="M248.94846,190.07956c-0.08771,0.00716 -0.14458,-0.03308 -0.19108,-0.08917c-0.01812,-0.03593 -0.02594,-0.08767 0.00887,-0.10922c0.0348,-0.02158 0.08381,-0.03307 0.11222,-0.0129c0.05679,0.04027 0.10334,0.09632 0.06999,0.21129z" fill="#636e6f"/><path d="M245.10568,183.70738c0.02948,-0.14085 0.09512,-0.20983 0.24997,-0.19255c-0.02555,0.1667 -0.10933,0.19977 -0.24997,0.19255z" fill="#4a5354"/></g><g data-paper-data="{&quot;index&quot;:null}" fill="#000000" stroke="#000000" stroke-width="1.2"><path d="M259.57665,208.80525c-1.74453,-0.66243 -3.13797,-3.70575 -4.82787,-5.25856c-1.81941,-1.67182 -3.77524,-1.78856 -4.20366,-3.37349c-0.29925,-1.10706 0.61381,-2.40664 1.17463,-3.01699c1.36372,-1.48415 4.97441,-0.3854 8.06468,2.45415c3.09027,2.83954 4.48992,6.34459 3.12619,7.82872c-0.61796,0.67254 -1.88832,1.91506 -3.33395,1.36615z"/><path d="M263.55515,207.66829c-2.42403,-0.94574 -6.11476,-5.67818 -6.11476,-5.67818c0,0 -3.52747,-1.7285 -3.59018,-1.78819c-3.99738,-3.80326 -1.68073,-6.41472 1.00459,-9.33713c1.27803,-1.39088 3.80722,-3.01145 5.77746,-2.6031c2.23449,0.46312 3.86134,2.73865 6.13022,4.82346c4.26944,3.92306 6.28082,9.01799 3.55336,11.98628c-1.20061,1.30663 -3.52313,3.85999 -6.7607,2.59685z"/></g></g></g></g></svg>