<svg version="1.1" xmlns="http://www.w3.org/2000/svg" xmlns:xlink="http://www.w3.org/1999/xlink" width="83.16106" height="103.34972" viewBox="0,0,83.16106,103.34972"><defs><linearGradient x1="219.05351" y1="209.08986" x2="237.10091" y2="209.08986" gradientUnits="userSpaceOnUse" id="color-1"><stop offset="0" stop-color="#bebebe"/><stop offset="1" stop-color="#737373"/></linearGradient><linearGradient x1="249.54712" y1="222.26189" x2="275.14437" y2="202.36918" gradientUnits="userSpaceOnUse" id="color-2"><stop offset="0" stop-color="#bebebe"/><stop offset="1" stop-color="#737373"/></linearGradient><linearGradient x1="249.54712" y1="222.26189" x2="275.14437" y2="202.36918" gradientUnits="userSpaceOnUse" id="color-3"><stop offset="0" stop-color="#bebebe"/><stop offset="1" stop-color="#737373"/></linearGradient><linearGradient x1="249.70692" y1="221.74148" x2="272.36197" y2="204.13527" gradientUnits="userSpaceOnUse" id="color-4"><stop offset="0" stop-color="#ffd166"/><stop offset="1" stop-color="#ac880b"/></linearGradient><linearGradient x1="233.5803" y1="222.55426" x2="255.74094" y2="205.33229" gradientUnits="userSpaceOnUse" id="color-5"><stop offset="0" stop-color="#ffd166"/><stop offset="1" stop-color="#ac880b"/></linearGradient><linearGradient x1="233.55321" y1="222.64478" x2="256.17693" y2="205.06293" gradientUnits="userSpaceOnUse" id="color-6"><stop offset="0" stop-color="#ffd166"/><stop offset="1" stop-color="#ac880b"/></linearGradient><linearGradient x1="229.15983" y1="239.65381" x2="251.21899" y2="222.51071" gradientUnits="userSpaceOnUse" id="color-7"><stop offset="0" stop-color="#ffd166"/><stop offset="1" stop-color="#ac880b"/></linearGradient><linearGradient x1="235.17143" y1="245.37056" x2="252.46685" y2="231.92955" gradientUnits="userSpaceOnUse" id="color-8"><stop offset="0" stop-color="#bebebe"/><stop offset="1" stop-color="#737373"/></linearGradient><linearGradient x1="235.17143" y1="245.37056" x2="252.46685" y2="231.92955" gradientUnits="userSpaceOnUse" id="color-9"><stop offset="0" stop-color="#bebebe"/><stop offset="1" stop-color="#737373"/></linearGradient><linearGradient x1="223.1921" y1="211.89568" x2="254.76589" y2="211.89568" gradientUnits="userSpaceOnUse" id="color-10"><stop offset="0" stop-color="#bebebe"/><stop offset="1" stop-color="#737373"/></linearGradient><linearGradient x1="267.71583" y1="196.93923" x2="281.35741" y2="195.2748" gradientUnits="userSpaceOnUse" id="color-11"><stop offset="0" stop-color="#bb951b"/><stop offset="1" stop-color="#d6ad39"/></linearGradient><linearGradient x1="266.22252" y1="186.73647" x2="279.02736" y2="185.17414" gradientUnits="userSpaceOnUse" id="color-12"><stop offset="0" stop-color="#bebebe"/><stop offset="1" stop-color="#737373"/></linearGradient><linearGradient x1="270.19599" y1="192.08556" x2="276.30779" y2="191.33983" gradientUnits="userSpaceOnUse" id="color-13"><stop offset="0" stop-color="#bb951b"/><stop offset="1" stop-color="#d6ad39"/></linearGradient><linearGradient x1="270.80941" y1="193.20102" x2="276.03675" y2="192.56321" gradientUnits="userSpaceOnUse" id="color-14"><stop offset="0" stop-color="#bb951b"/><stop offset="1" stop-color="#d6ad39"/></linearGradient><linearGradient x1="269.4443" y1="191.66126" x2="270.50453" y2="191.53188" gradientUnits="userSpaceOnUse" id="color-15"><stop offset="0" stop-color="#bb951b"/><stop offset="1" stop-color="#d6ad39"/></linearGradient><linearGradient x1="268.91372" y1="191.4258" x2="269.94997" y2="191.29935" gradientUnits="userSpaceOnUse" id="color-16"><stop offset="0" stop-color="#bb951b"/><stop offset="1" stop-color="#d6ad39"/></linearGradient></defs><g transform="translate(-198.17858,-143.69994)"><g data-paper-data="{&quot;isPaintingLayer&quot;:true}" stroke-miterlimit="10" stroke-dasharray="" stroke-dashoffset="0" style="mix-blend-mode: normal"><path d="M240.34751,206.17719c0,0 11.77698,1.82089 16.28993,2.8477c3.51344,0.79939 14.31233,3.39849 14.31233,3.39849" fill="none" fill-rule="nonzero" stroke="#000000" stroke-width="6" stroke-linecap="round" stroke-linejoin="miter"/><path d="M237.10091,208.25272c0,2.4641 -3.22379,4.46165 -7.20056,4.46165c-2.11857,0 -5.90563,1.68326 -8.23456,0.47339c-2.04269,-1.06118 -8.27066,-5.13844 -8.04871,-5.80182c0.69236,-2.06928 13.20156,-2.83147 15.56014,-2.83147c2.24413,0 4.47876,0.39301 5.99997,1.17828c1.17449,0.60628 1.92372,1.44639 1.92372,2.51997z" fill="url(#color-1)" fill-rule="nonzero" stroke="#737373" stroke-width="1" stroke-linecap="butt" stroke-linejoin="miter"/><g><g><g stroke-width="1.2"><path d="M253.56902,204.57278c0,0 12.19305,0.50626 15.12495,2.02741c2.00054,1.03793 0.90472,6.10151 0.90472,6.10151c0,0 7.86695,-6.2684 11.14096,-3.11799c0.18665,0.17961 1.04431,1.1108 -1.89628,4.06549c-2.81648,2.82998 -9.37755,7.65205 -11.78079,9.40887c-1.11619,0.81596 -3.01964,1.88306 -4.57106,2.27509c-1.56203,0.3947 -2.23405,-0.37563 -2.67361,-0.75727c-0.05833,-0.05063 -0.75485,-7.84346 -1.52451,-8.32765c-0.38714,-0.24354 -15.05196,-2.10029 -15.05196,-2.10029" fill="url(#color-2)" fill-rule="evenodd" stroke="url(#color-3)" stroke-linecap="round" stroke-linejoin="round"/><path d="M245.90395,216.78139c-3.35532,-3.22864 2.49085,-8.24636 5.6009,-10.80522c1.35237,-1.11268 12.35169,-2.93897 18.13085,-1.79866c1.51432,0.29879 3.0984,2.82924 3.89784,3.99957c0.28089,0.41123 -0.92143,0.53632 -0.92143,0.53632c0,0 1.20699,-0.28266 1.88454,-0.21116c0.69935,0.07381 1.55766,0.38416 1.55766,0.38416l-2.72915,1.39521c0,0 -8.09514,6.42069 -10.05491,9.95416c-1.95975,3.53347 1.64079,4.05845 1.64079,4.05845c0,0 -6.22675,4.55882 -8.11265,3.72375c-0.46492,-0.20586 -0.60112,-1.86675 -0.60112,-1.86675c0,0 -0.60793,0.61132 -0.87169,0.41989c-0.08555,-0.06209 0.75595,-5.0264 1.26394,-7.70128c0.29042,-1.52929 0.36495,-1.4511 0.36495,-1.4511c0,0 -10.56709,-0.17213 -11.05054,-0.63732z" fill="url(#color-4)" fill-rule="nonzero" stroke="#caa551" stroke-linecap="butt" stroke-linejoin="miter"/></g><path d="M232.94083,221.73127c-0.09441,-0.09825 1.53233,-0.85648 4.69129,-3.25296c4.16747,-3.16156 10.32533,-8.29225 12.01833,-9.78456c4.39027,-3.8698 4.58017,-5.23629 4.83045,-4.97588c0.92616,0.96371 -0.17171,4.93529 -5.36509,9.14233c-2.28224,1.84879 -6.75163,5.88588 -9.72439,7.60345c-3.79192,2.19084 -5.93143,1.8078 -6.45059,1.26761z" fill="url(#color-5)" fill-rule="nonzero" stroke="#caa551" stroke-width="1.2" stroke-linecap="butt" stroke-linejoin="miter"/><g fill-rule="nonzero" stroke-linecap="butt" stroke-linejoin="miter"><g fill="none" stroke="none" stroke-width="1" font-family="sans-serif" font-weight="normal" font-size="12" text-anchor="start"/><path d="M231.94009,220.37527c0,0 10.5859,-6.13619 15.31695,-9.34833c4.73103,-3.21213 8.33831,-6.71238 8.33831,-6.71238c0,0 0.47566,1.26341 -1.20935,3.94491c-1.30429,2.07564 -4.10355,5.20469 -8.1566,7.97059c-3.69243,2.5198 -7.95902,4.89856 -10.28852,5.43651c-3.53083,0.81535 -4.00078,-1.29127 -4.00078,-1.29127z" fill="url(#color-6)" stroke="#caa551" stroke-width="1.2"/></g><g stroke-width="1.2"><path d="M243.43892,216.65455c0,0 8.15008,17.95404 7.52876,18.51707c-1.78306,1.61575 -13.16335,8.39983 -13.16335,8.39983l-5.15789,-20.41074" data-paper-data="{&quot;index&quot;:null}" fill="#ffab19" fill-rule="evenodd" stroke="#001026" stroke-linecap="round" stroke-linejoin="round"/><path d="M244.84814,215.16783c0,0 3.83133,3.68479 4.90115,5.5766c0.65624,1.16044 1.21687,6.41062 1.21687,6.41062c0,0 2.81704,1.75578 2.63301,2.25718c-0.23645,0.64423 -2.82072,0.27301 -2.82072,0.27301c0,0 2.79525,0.55577 2.9668,0.69437c1.19699,0.96705 1.13671,3.5054 -2.06991,6.23411c-3.52067,2.99594 -9.42395,7.87716 -13.26773,9.36328c-3.47985,1.34543 -5.07384,-0.49921 -5.30848,-1.58298c-0.16478,-0.76107 1.48101,-2.5191 1.33161,-3.49609c-0.09933,-0.64963 -1.5612,3.79003 -1.47717,2.75578c0.02443,-0.30068 0.13434,-4.82271 0.13434,-4.82271c0,0 -1.6614,-2.82995 -1.76851,-4.2728c-0.43009,-5.79393 0.16206,-11.37728 0.16206,-11.37728" data-paper-data="{&quot;index&quot;:null}" fill="url(#color-7)" fill-rule="evenodd" stroke="#caa551" stroke-linecap="round" stroke-linejoin="round"/><path d="M252.73304,232.28543c0.56935,0.92129 0.59141,2.48861 -0.62837,4.25932c-1.22432,1.77728 -11.14582,9.16045 -13.14412,9.70415c-1.89772,0.51633 -3.33991,-0.13439 -3.8956,-1.03355c-1.14081,-1.84597 1.88949,-6.2369 6.76841,-9.8074c4.8789,-3.57048 9.75887,-4.96849 10.89966,-3.1225z" fill="url(#color-8)" fill-rule="nonzero" stroke="url(#color-9)" stroke-linecap="butt" stroke-linejoin="miter"/></g></g><g fill="none" fill-rule="nonzero" stroke="none" stroke-width="1" stroke-linecap="butt" stroke-linejoin="miter" font-family="sans-serif" font-weight="normal" font-size="12" text-anchor="start"/></g><path d="M229.98532,211.02481c0,0 1.47718,11.49996 -0.84439,16.27667" fill="none" fill-rule="nonzero" stroke="#000000" stroke-width="6" stroke-linecap="round" stroke-linejoin="miter"/><path d="M231.83932,218.55283c0,0 3.66238,-5.90432 3.2014,-7.71528c-0.11275,-0.44294 -3.17419,6.95078 -3.67279,6.52776c-2.37766,-2.01725 -11.61652,-3.67243 -11.61652,-3.67243c0,0 7.80951,-5.83168 11.70099,-8.61476c1.07448,-0.76844 10.4984,-1.01518 10.79804,-1.24979c0.38698,-0.30301 12.83304,1.66881 12.83304,1.66881c0,0 3.45281,2.60146 3.40943,5.74572c-0.00031,0.02234 -8.75581,-0.80047 -8.76064,-0.45021c-0.02895,2.09839 -1.6421,7.603 -1.6421,7.603c0,0 -3.14547,1.33459 -5.95649,1.38166c-3.09887,0.05189 -10.29437,-1.22445 -10.29437,-1.22445z" fill="url(#color-10)" fill-rule="nonzero" stroke="#737373" stroke-width="2.5" stroke-linecap="butt" stroke-linejoin="miter"/><g data-paper-data="{&quot;index&quot;:null}" fill-rule="nonzero" stroke="none" stroke-width="1" stroke-linecap="butt" stroke-linejoin="miter"><path d="M268.96202,191.99879c-0.21684,-0.05865 -0.27238,-0.19845 -0.30716,-0.3721c-0.03179,-0.27712 -0.00408,-0.55237 -0.01594,-0.82884c-0.05806,-0.0536 -0.1161,-0.10722 -0.17462,-0.14358c-1.2077,-0.83204 -1.85082,-1.95681 -2.29201,-3.19599c-0.09181,-0.26174 -0.20348,-0.52418 -0.19557,-0.8c0.00151,-0.05172 -0.01638,-0.12132 -0.05511,-0.15705c-0.21287,-0.19656 -0.20647,-0.42071 -0.21938,-0.66273c-0.01392,-0.2075 0.01184,-0.41379 0.01779,-0.62067c0.00346,-0.12068 0.04659,-0.24012 0.16814,-0.32259c0.12155,-0.08242 0.18504,-0.21847 0.24799,-0.33727c0.27875,-0.71595 0.69489,-1.37579 1.22864,-1.98016c0.30757,-0.33539 0.67268,-0.59996 1.05762,-0.86386c1.13455,-0.77517 2.43781,-1.19987 3.85275,-1.3622c0.63752,-0.0661 1.2924,-0.04538 1.94531,0.04429c0.49462,0.06743 0.94615,0.25429 1.37732,0.45775c1.37192,0.64741 2.35683,1.62768 3.03715,2.83993c0.13248,0.22853 0.20448,0.48963 0.27646,0.75078c0.05461,0.17427 0.12956,0.33197 0.32502,0.44172c0.17611,0.09188 0.25106,0.24954 0.2858,0.42318c0.03179,0.27712 0.02387,0.55297 0.01595,0.82885c-0.00248,0.08621 -0.04414,0.15395 -0.08583,0.22164c-0.1855,0.23571 -0.25246,0.49245 -0.28019,0.7677c-0.03663,0.5856 -0.27076,1.13038 -0.48504,1.67581c-0.08533,0.2044 -0.19044,0.40813 -0.33477,0.5934c-0.45436,0.60686 -0.92761,1.17863 -1.57648,1.6413c-0.00742,0.2586 -0.03517,0.53385 -0.04304,0.80971c-0.00297,0.10347 -0.00643,0.22414 -0.12748,0.28931c-0.1012,0.06582 -0.08434,0.16991 -0.08727,0.27334c-0.03958,0.689 -0.05937,1.37865 -0.09896,2.06767c-0.06385,1.53384 -0.12809,3.0849 -0.2316,4.61747c-0.10252,1.4981 -0.14544,2.99808 -0.2083,4.49743c-0.00691,0.24139 -0.05304,0.46424 -0.05993,0.7056c-0.03357,1.1724 -0.0672,2.3448 -0.12061,3.51658c-0.00592,0.20688 0.02782,0.41504 -0.0967,0.6009c-0.04166,0.06773 -0.02431,0.15452 -0.02679,0.24074c-0.02466,0.86207 -0.06972,1.74075 -0.09442,2.60281c-0.00099,0.03448 -0.00249,0.08619 -0.00345,0.12068c0.01196,0.2765 -0.13092,0.41001 -0.41222,0.52192c-0.94408,0.36704 -1.91944,0.43972 -2.92614,0.21808c-0.25651,-0.05989 -0.512,-0.15425 -0.74671,-0.28248c-0.17611,-0.09188 -0.25155,-0.2323 -0.26646,-0.40532c-0.04471,-0.51912 -0.10927,-1.03887 -0.15349,-1.57523c-0.02882,-0.38058 -0.01747,-0.77714 -0.10583,-1.15956c-0.19458,-0.83449 -0.15053,-1.67867 -0.28562,-2.51125c-0.06606,-0.46801 -0.17228,-0.92007 -0.21849,-1.38748c-0.04521,-0.50187 -0.13061,-0.98777 -0.19619,-1.47301c-0.11372,-0.8837 -0.18725,-1.78339 -0.32085,-2.6677c-0.20503,-1.16266 -0.33072,-2.3229 -0.45638,-3.48306c-0.04816,-0.39846 -0.09638,-0.79682 -0.14454,-1.19529c-0.06163,-0.62321 -0.1227,-1.26361 -0.18429,-1.88679c-0.02983,-0.34609 -0.0998,-0.67619 -0.12966,-1.02224c-0.04917,-0.364 -0.03978,-0.69151 -0.0686,-1.0721zM269.46503,191.7731c0.23517,0.11098 0.47133,0.1875 0.72882,0.21292c0.51153,0.17147 1.04635,0.22294 1.5812,0.27436c0.67327,0.07307 1.36832,0.0778 2.04357,0.0819c0.77446,0.00724 1.49431,-0.15981 2.23454,-0.34346c0.08036,-0.03198 0.16073,-0.06394 0.28127,-0.1119c0.00398,-0.13792 0.00786,-0.27585 0.01183,-0.41377c0.00099,-0.03448 -0.01786,-0.06959 -0.03623,-0.12193c-0.13891,-0.00441 -0.27833,0.00844 -0.41823,0.03852c-0.23963,0.0442 -0.4584,0.0545 -0.69801,0.09868c-0.59832,0.08461 -1.21208,0.01346 -1.8089,0.04635c-0.31802,0.00722 -0.637,0.04886 -0.95403,0.02159c-0.69311,-0.07368 -1.38867,-0.0612 -2.07975,-0.20386c-0.17764,-0.04015 -0.37508,-0.08086 -0.55272,-0.12104c-0.07641,-0.10599 -0.23618,-0.07648 -0.33443,-0.11414c-0.11759,-0.05549 -0.2352,-0.11099 -0.45394,-0.10063c0.13248,0.22853 0.06653,0.45078 0.13997,0.66019c0.09873,0.0204 0.17515,0.12633 0.31507,0.09624zM270.24196,192.38441c-0.45199,-0.16964 -0.57054,-0.19061 -0.82955,-0.1643c0.01392,0.2075 0.02834,0.39783 0.04225,0.60534c-0.00346,0.12068 0.07342,0.20943 0.19106,0.26492c0.07843,0.03702 0.1776,0.04013 0.25601,0.07711c0.29422,0.13013 0.63013,0.1925 0.94812,0.18532c0.13646,0.09058 0.29518,0.09565 0.45397,0.10065c0.89252,0.04549 1.76476,0.10757 2.65977,0.06689c0.3979,-0.02192 0.79629,-0.06107 1.17531,-0.11812c0.29969,-0.05955 0.61917,-0.11846 0.86324,-0.31782c0.0064,-0.22415 0.0128,-0.44826 0.01925,-0.67243c-0.15974,0.02945 -0.29968,0.05954 -0.41971,0.09024c-0.55962,0.12032 -1.11824,0.20621 -1.6749,0.22311c-0.71589,0.02911 -1.42935,-0.028 -2.14328,-0.06782c-0.3374,-0.01067 -0.65195,-0.12414 -0.9898,-0.11759c-0.17514,-0.12633 -0.3731,-0.14987 -0.55169,-0.15553zM272.1531,211.65164c0.27486,0.11223 0.55219,0.13829 0.8305,0.12984c0.01932,0.01785 0.05856,0.03637 0.07843,0.03698c0.47678,-0.00216 0.95455,-0.03881 1.39559,-0.18018c0.26049,-0.07804 0.52042,-0.13884 0.72427,-0.32222c0.02766,-0.96553 0.05527,-1.93099 0.08447,-2.94825c-0.48172,0.17455 -0.9605,0.24575 -1.43872,0.29962c-0.41875,0.05578 -0.81415,-0.00851 -1.23189,0.01278c-0.15875,-0.00501 -0.29719,-0.02663 -0.45596,-0.03166c-0.23564,-0.09375 -0.49217,-0.15362 -0.78933,-0.1803c-0.01481,0.51725 0.13013,1.00502 0.15599,1.48904c0.04521,0.50188 0.11027,1.0044 0.156,1.489c0.17514,0.12633 0.33292,0.16585 0.49071,0.20534zM271.75624,208.1705c0.13646,0.09056 0.29474,0.11285 0.45345,0.11785c0.15679,0.07401 0.33592,0.06243 0.514,0.08531c0.55518,0.0348 1.11284,-0.01657 1.65159,-0.10307c0.31948,-0.05892 0.63999,-0.15234 0.92273,-0.31595c0.00198,-0.06897 0.02378,-0.1373 0.02574,-0.20627c0.02424,-0.84486 0.04793,-1.67238 0.09196,-2.51657c0.04552,-0.89591 0.09055,-1.77457 0.13609,-2.67048c0.05735,-1.30971 0.13416,-2.60152 0.1915,-3.91123c0.08168,-1.46424 0.10329,-2.91312 0.22468,-4.37609c0.02678,-0.24074 0.01427,-0.5 0.02173,-0.75862c-0.22024,0.06206 -0.42165,0.15923 -0.64094,0.18681c-0.69902,0.1332 -1.41494,0.16231 -2.12986,0.15696c-0.63502,-0.02008 -1.26959,-0.05744 -1.90416,-0.09479c-0.25702,-0.04266 -0.49464,-0.06742 -0.75165,-0.11007c-0.15577,-0.10847 -0.33539,-0.07964 -0.49317,-0.11913c-0.17764,-0.04015 -0.3344,-0.11413 -0.53335,-0.10316c-0.04462,0.17116 -0.00889,0.31036 0.0075,0.43164c0.18919,1.02416 0.21904,2.06051 0.34868,3.08274c0.08047,0.65831 0.1609,1.31663 0.26125,1.97554c0.11372,0.8837 0.24778,1.75075 0.36201,2.61719c0.09886,0.71064 0.19766,1.42133 0.27661,2.13134c0.09732,0.76239 0.1753,1.50688 0.25281,2.26864c0.07948,0.69277 0.15846,1.40281 0.25727,2.11347c0.17809,0.02288 0.29423,0.1301 0.45347,0.11789zM279.04627,185.27708c-0.44101,0.14133 -0.85979,0.19712 -1.27898,0.27015c-0.43907,0.0724 -0.85877,0.16269 -1.29732,0.2178c-0.41875,0.05578 -0.85636,0.07645 -1.27457,0.11495c-0.43811,0.0379 -0.87617,0.07582 -1.33356,0.09588c-0.41771,0.02128 -0.85483,0.02469 -1.27258,0.04599c-0.43707,0.00341 -0.87221,-0.06211 -1.31128,0.01028c-0.41375,-0.11661 -0.85235,-0.06148 -1.26861,-0.09188c-0.43557,-0.04831 -0.89207,-0.06274 -1.32766,-0.11104c-0.41573,-0.04768 -0.85086,-0.11324 -1.26614,-0.17813c-0.43512,-0.06555 -0.8484,-0.19945 -1.28495,-0.21322c-0.05154,0.41253 -0.05501,0.53321 0.09486,0.84858c0.23564,0.09375 0.47136,0.18751 0.74768,0.24799c0.33589,0.0624 0.67175,0.1248 1.02702,0.20508c0.67129,0.14206 1.32324,0.26619 2.01781,0.28818c0.47629,0.01508 0.95308,0.01288 1.42739,0.09696c0.09873,0.0204 0.2178,0.02415 0.33783,-0.00657c0.2396,-0.04421 0.49713,-0.01876 0.73525,-0.01126c0.87319,0.02764 1.74935,-0.04819 2.60617,-0.14191c1.13515,-0.10215 2.23404,-0.32622 3.33439,-0.60207c0.21976,-0.04483 0.43954,-0.08963 0.60271,-0.23979c0.04712,-0.25737 0.03467,-0.51664 -0.01546,-0.84606zM271.08762,182.97175c-0.16516,0.21911 -0.251,0.44075 -0.35662,0.66174c-0.10469,0.1865 -0.13043,0.39278 -0.05698,0.60219c0.10771,0.40031 0.15542,0.81598 0.12367,1.22914c-0.00099,0.03448 0.01734,0.08684 0.01686,0.10408c0.09773,0.05484 0.17711,0.05733 0.27785,0.00877c0.02033,-0.01658 0.04117,-0.05046 0.04167,-0.06771c0.07386,-0.49812 0.18743,-0.99494 0.34066,-1.49056c0.02184,-0.06834 0.04462,-0.17115 0.0069,-0.2414c-0.07146,-0.27838 -0.14296,-0.55671 -0.39405,-0.80629zM269.82232,185.53745c0.07286,-0.46362 0.18495,-0.90874 0.31637,-1.336c0.04359,-0.13666 0.02726,-0.25799 -0.02835,-0.39779c-0.09331,-0.21 -0.22727,-0.38685 -0.36076,-0.58091c-0.03771,-0.07023 -0.07491,-0.15766 -0.195,-0.12696c-0.10762,0.28997 -0.2346,0.56208 -0.30255,0.85326c0.31664,0.73481 0.31662,0.7348 0.31277,1.56297c0.05805,0.05362 0.13696,0.07335 0.2575,0.02539zM274.6553,187.39878c-0.08828,0.30783 -0.15672,0.61632 -0.22514,0.92477c-0.02185,0.06835 -0.04362,0.13667 -0.02576,0.20626c0.13099,0.28024 0.24222,0.55987 0.47391,0.79156c0.24407,-0.19935 0.31101,-0.45609 0.437,-0.69372c0.06299,-0.11877 0.04609,-0.22289 -0.00999,-0.34546c-0.15084,-0.28088 -0.26203,-0.56053 -0.35282,-0.85672c0.00049,-0.01724 -0.03866,-0.03574 -0.07737,-0.07146c-0.06002,0.01535 -0.13995,0.03009 -0.21978,0.04483zM275.05802,183.04557c-0.2659,0.2677 -0.39238,0.52255 -0.53869,0.77677c-0.04267,0.10219 -0.02528,0.189 -0.0079,0.27585c0.10724,0.41756 0.15487,0.83326 0.1227,1.26366c-0.00149,0.05172 0.01685,0.10407 0.0154,0.15577c0.2178,0.02415 0.258,0.00818 0.26193,-0.12975c0.01283,-0.44831 0.12443,-0.87617 0.33423,-1.26643c0.12599,-0.23761 0.11207,-0.44513 0.01927,-0.67242c-0.07593,-0.12324 -0.13248,-0.22857 -0.20692,-0.40347zM272.16354,185.62878c0.09922,0.00311 0.12102,-0.06524 0.12301,-0.13419c0.01385,-0.48273 0.1859,-0.94323 0.35803,-1.40375c0.12993,-0.37553 0.06191,-0.77459 -0.22489,-1.1633c-0.14335,0.15077 -0.16815,0.32257 -0.27182,0.47459c-0.20784,0.3213 -0.2172,0.64887 -0.14772,0.99622c0.06851,0.3818 0.15687,0.76428 0.10633,1.14232c0.01839,0.05234 0.03771,0.07026 0.05707,0.0881zM273.66851,183.01887c-0.125,0.20311 -0.22821,0.3379 -0.31152,0.47333c-0.14531,0.21976 -0.1711,0.42601 -0.09866,0.66989c0.10968,0.33136 0.1395,0.67743 0.1495,1.02286c0.01639,0.12135 0.01243,0.25925 0.00898,0.37991c0.09873,0.0204 0.12003,-0.03068 0.12102,-0.06518c0.11352,-0.49687 0.24694,-0.99307 0.45926,-1.46956c0.02231,-0.08557 0.04412,-0.15393 0.02675,-0.24075c-0.09231,-0.24452 -0.16476,-0.48841 -0.3553,-0.77052zM275.91046,187.26595c0.07,0.3301 0.00154,0.63854 -0.04703,0.94764c-0.00247,0.0862 -0.06399,0.15329 -0.02676,0.24073c0.05561,0.13984 0.28584,0.42321 0.49968,0.58531c0.14389,-0.16803 0.18946,-0.37364 0.27432,-0.5608c0.06398,-0.1533 0.0481,-0.29184 -0.04719,-0.43291c-0.15181,-0.2464 -0.26398,-0.49154 -0.31562,-0.76928c0.00052,-0.01726 -0.03824,-0.05297 -0.05755,-0.07083c-0.07891,-0.01975 -0.15826,-0.02227 -0.2798,0.06019zM269.09091,188.18909c0.11217,0.24512 0.08389,0.53763 0.25608,0.76741c0.13941,-0.01285 0.20144,-0.09717 0.28278,-0.16362c0.14286,-0.13356 0.30457,-0.23194 0.40924,-0.41845c-0.11016,-0.31411 -0.06061,-0.65769 -0.15046,-0.98839c-0.09773,-0.05484 -0.19696,-0.05802 -0.29717,-0.02665c-0.12745,0.28935 -0.29413,0.56019 -0.50048,0.82976zM272.2893,187.47926c-0.04462,0.17116 -0.08928,0.34231 -0.19194,0.45984c-0.24654,0.28554 -0.23506,0.5793 -0.0847,0.8774c0.05655,0.10531 0.05359,0.20878 0.16971,0.31602c0.2034,-0.16616 0.34775,-0.3514 0.49206,-0.53668c0.04119,-0.05047 0.04312,-0.11944 0.02576,-0.20626c-0.072,-0.26114 -0.12462,-0.50438 -0.19655,-0.76549c0.00151,-0.05172 -0.03625,-0.12196 -0.21437,-0.14485zM271.0391,187.43971c-0.09024,0.3768 -0.21923,0.71783 -0.4851,0.98555c-0.061,0.04983 -0.04312,0.11943 -0.04508,0.18839c0.0154,0.1558 0.05064,0.31224 0.16526,0.47115c0.28476,-0.2326 0.47027,-0.46834 0.65627,-0.72129c0.062,-0.08432 0.08434,-0.16987 0.06743,-0.27397c-0.0342,-0.19091 -0.04868,-0.38121 -0.08293,-0.57211c0.00052,-0.01726 -0.03822,-0.053 -0.05756,-0.07085c-0.05953,-0.00188 -0.11908,-0.00377 -0.21828,-0.00689zM276.5421,183.93814c-0.07444,-0.1749 -0.14836,-0.36711 -0.22281,-0.54205c-0.01932,-0.01785 -0.03872,-0.03576 -0.0774,-0.07146c-0.22276,0.14825 -0.34776,0.35141 -0.43259,0.53852c0.12362,0.53888 0.2482,1.04325 0.2314,1.62947c0.28573,-0.26707 0.1547,-0.54731 0.22065,-0.76955c0.06743,-0.27398 0.17406,-0.52945 0.28068,-0.78492zM270.82158,182.54915c-0.19252,-0.21317 -0.34541,-0.42509 -0.61973,-0.55456c-0.08284,0.11816 -0.18453,0.20125 -0.24702,0.30283c-0.06248,0.10157 -0.14481,0.20249 -0.14825,0.3232c0.05511,0.15703 0.19106,0.26489 0.28681,0.38871c0.0958,0.1238 0.15135,0.26366 0.30762,0.35488c0.1468,-0.27149 0.27331,-0.5263 0.42063,-0.81502zM268.55126,185.53174c0.09419,-0.5147 0.16605,-0.94389 0.23795,-1.37299c0.00099,-0.03448 0.02235,-0.08559 -0.01638,-0.12132c-0.13349,-0.19404 -0.2263,-0.42134 -0.4808,-0.55016c-0.08631,0.23886 -0.1721,0.46051 -0.23807,0.68278c0.24662,0.40472 0.3732,0.84011 0.4973,1.36176zM273.49165,189.19122c0.18207,-0.11505 0.22668,-0.28619 0.31002,-0.42159c0.10368,-0.15203 0.14781,-0.30592 0.07385,-0.49809c-0.09181,-0.26174 -0.18363,-0.52352 -0.13604,-0.79816c-0.13795,-0.03888 -0.21781,-0.02415 -0.22077,0.0793c-0.02724,0.25797 -0.05501,0.53321 -0.18049,0.75358c-0.16814,0.32256 -0.01682,0.58626 0.15344,0.885zM271.53791,188.74972c-0.26639,0.28494 -0.49108,0.50217 -0.69596,0.72001c-0.00346,0.12068 0.05408,0.19155 0.09181,0.26173c0.05756,0.07085 0.09428,0.17552 0.23219,0.21442c0.22229,-0.13105 0.42564,-0.29715 0.6097,-0.48112c-0.05311,-0.226 -0.12658,-0.43542 -0.23772,-0.71505zM274.62931,189.69313c-0.17117,-0.26427 -0.32355,-0.49342 -0.47536,-0.73981c-0.14533,0.21974 -0.29019,0.42227 -0.43503,0.62473c0.13248,0.22853 0.22578,0.43859 0.45947,0.60124c0.18304,-0.1495 0.30706,-0.31817 0.45092,-0.48618zM271.78998,182.02755c-0.24111,0.0959 -0.30706,0.31817 -0.43109,0.4868c-0.04119,0.05047 -0.02381,0.13728 0.01443,0.19028c0.11412,0.17619 0.20889,0.3345 0.32349,0.49347c-0.00049,0.01724 0.03923,0.01848 0.07891,0.01976c0.14586,-0.23696 0.27225,-0.49183 0.41813,-0.7288c-0.09426,-0.17553 -0.24909,-0.31849 -0.40392,-0.46143zM274.81106,182.65812c-0.07396,-0.19216 -0.14837,-0.36708 -0.3632,-0.4947c-0.1632,0.15016 -0.36612,0.29905 -0.47127,0.5028c0.05606,0.12257 0.07246,0.24388 0.14887,0.34984c0.05653,0.1053 0.03274,0.24264 0.2099,0.3c0.16519,-0.21911 0.33033,-0.43821 0.47573,-0.65797zM275.18732,189.6245c0.07493,0.15768 0.25108,0.24953 0.4267,0.35863c0.16472,-0.20184 0.36756,-0.35078 0.4539,-0.58962c-0.15482,-0.14297 -0.2486,-0.33573 -0.46296,-0.48058c-0.14586,0.23696 -0.27184,0.47459 -0.41766,0.71157zM277.14874,187.02904c-0.02873,0.30971 0.02145,0.63918 -0.04702,0.94765c-0.0471,0.25736 0.0879,0.39966 0.32207,0.54514c0.14432,-0.18524 0.18947,-0.37365 0.25492,-0.57866c-0.25009,-0.28399 -0.33996,-0.61475 -0.52999,-0.91412zM267.44689,185.2552c0.07987,-0.01471 0.08133,-0.06644 0.08284,-0.11816c0.02626,-0.2235 0.03319,-0.46489 0.0793,-0.68777c0.08875,-0.32507 -0.10477,-0.50375 -0.35732,-0.70158c-0.04316,0.11946 -0.08529,0.20439 -0.10761,0.28995c-0.06543,0.20502 -0.09074,0.39401 0.08244,0.58935c0.0958,0.1238 0.131,0.28027 0.16679,0.41947c-0.02185,0.06835 -0.06398,0.15328 0.05358,0.20877zM268.16622,188.57402c0.1012,-0.06582 0.16273,-0.13291 0.22373,-0.18274c0.20239,-0.13163 0.2664,-0.28496 0.23261,-0.49312c-0.03472,-0.17365 -0.00946,-0.3627 -0.02438,-0.53573c0.00151,-0.05173 0.02281,-0.10282 -0.11561,-0.12446c-0.10618,0.23823 -0.25198,0.47524 -0.43701,0.69372c-0.04119,0.05047 -0.04362,0.13664 -0.04562,0.2056c0.03573,0.13916 0.07197,0.26116 0.16627,0.43668zM273.18354,189.54385c-0.07443,-0.1749 -0.12853,-0.36645 -0.26306,-0.52601c-0.20387,0.18339 -0.4266,0.33164 -0.57197,0.55137c0.11413,0.17617 0.16871,0.35047 0.38406,0.46084c0.16323,-0.15016 0.34581,-0.28243 0.45091,-0.48619zM273.02742,183.20567c0.20385,-0.18338 0.32887,-0.38651 0.41415,-0.59088c-0.11412,-0.17619 -0.20892,-0.33446 -0.38309,-0.4953c-0.16174,0.09842 -0.2649,0.23324 -0.34873,0.38587c0.11266,0.22788 0.20548,0.45518 0.31761,0.70032zM271.39463,190.28104c0.11564,0.12448 0.17266,0.21254 0.26993,0.28463c0.05806,0.0536 0.11658,0.08998 0.17516,0.12633c0.2009,-0.07993 0.38298,-0.19496 0.50701,-0.3636c-0.09426,-0.17553 -0.18858,-0.35107 -0.3836,-0.47805c-0.18304,0.1495 -0.36511,0.26456 -0.56849,0.43068zM267.59348,187.07181c-0.2242,0.20002 -0.38692,0.33288 -0.57049,0.49963c-0.02184,0.06834 -0.00546,0.18963 0.05113,0.29497c0.03672,0.10469 -0.00642,0.22412 0.11018,0.31412c0.18009,-0.04608 0.30162,-0.12852 0.40432,-0.24606c-0.01196,-0.27649 -0.0045,-0.53511 0.00489,-0.86267zM270.46882,181.69237c0.09679,0.08934 0.19354,0.17872 0.29027,0.26806c0.09681,0.08935 0.19403,0.16145 0.29077,0.25079c0.14435,-0.18523 0.28724,-0.31879 0.33236,-0.50717c-0.05656,-0.10531 -0.17466,-0.14357 -0.27237,-0.19845c-0.09773,-0.05484 -0.19402,-0.16143 -0.3334,-0.14859c-0.12254,0.11695 -0.24406,0.19935 -0.30757,0.33543zM273.83263,190.46174c-0.15382,-0.17741 -0.24712,-0.38749 -0.48136,-0.53293c-0.14285,0.13356 -0.26587,0.26769 -0.40877,0.40124c0.15382,0.17741 0.26843,0.3364 0.50413,0.4301c0.14137,-0.08182 0.2818,-0.12914 0.38596,-0.29842zM268.92705,183.50738c0.12798,-0.30657 0.2351,-0.57928 0.3422,-0.85196c-0.07641,-0.10599 -0.13298,-0.21132 -0.27091,-0.25017c-0.22374,0.18276 -0.32986,0.42097 -0.45584,0.65859c0.07641,0.10599 0.15282,0.21193 0.24957,0.30128c0.01786,0.06961 0.05705,0.08807 0.13495,0.14232zM270.326,189.45342c-0.11368,-0.19342 -0.10771,-0.40033 -0.26253,-0.54328c-0.22322,0.16551 -0.42611,0.3144 -0.59085,0.51631c0.13549,0.1251 0.1305,0.29749 0.32601,0.40722c0.20089,-0.07993 0.32446,-0.23135 0.52736,-0.38022zM275.71332,182.35879c-0.14189,0.09906 -0.2644,0.21598 -0.34774,0.35143c0.11317,0.21066 0.20644,0.42068 0.31861,0.66582c0.12448,-0.18587 0.24752,-0.32003 0.41125,-0.48743c-0.11316,-0.21067 -0.20693,-0.40347 -0.3821,-0.52982zM268.2546,188.95646c0.07294,0.22665 0.12707,0.41818 0.32155,0.56241c0.16123,-0.08119 0.30212,-0.14573 0.38547,-0.28116c-0.07344,-0.20942 -0.12707,-0.41814 -0.21938,-0.66268c-0.18207,0.11505 -0.34429,0.23072 -0.48764,0.38148zM273.76853,182.29726c0.14484,-0.20249 0.36612,-0.29908 0.41123,-0.48748c-0.11412,-0.17619 -0.26993,-0.28465 -0.44608,-0.37652c-0.1622,0.11568 -0.32395,0.21408 -0.38895,0.40184c0.13495,0.14233 0.25011,0.284 0.42376,0.46209zM275.30756,190.28407c-0.13547,-0.1251 -0.23123,-0.24889 -0.40788,-0.32351c-0.14432,0.18524 -0.36611,0.29904 -0.45193,0.52068c0.11563,0.12447 0.23273,0.1972 0.41084,0.22009c0.16271,-0.1329 0.30607,-0.28365 0.44891,-0.41721zM268.02315,183.16813c-0.11512,-0.14172 -0.21235,-0.21376 -0.34981,-0.26996c-0.14286,0.13356 -0.26691,0.30218 -0.27278,0.50906c0.11611,0.10722 0.23218,0.21441 0.34781,0.3389c0.16422,-0.18463 0.18998,-0.39087 0.27477,-0.57805zM278.34028,188.42997c-0.11656,-0.08997 -0.21387,-0.16208 -0.3324,-0.18309c-0.12401,0.16861 -0.20829,0.33855 -0.25344,0.52694c0.09621,0.10658 0.1935,0.17869 0.33143,0.21756c0.14389,-0.16803 0.16962,-0.37428 0.25441,-0.56143zM272.2104,190.92807c0.11313,0.21064 0.27141,0.23292 0.45051,0.22134c0.13891,0.00441 0.27883,-0.02569 0.34231,-0.16174c-0.11512,-0.14172 -0.23071,-0.26615 -0.40687,-0.35802c-0.14189,0.09906 -0.26392,0.19875 -0.38595,0.29841zM277.47427,183.98486c-0.05509,-0.15704 -0.05113,-0.29496 -0.18757,-0.38556c-0.4053,0.28055 -0.3155,0.61128 -0.12738,0.97959c0.10516,-0.20374 0.20984,-0.3903 0.31496,-0.59402zM270.37615,190.4732c0.1806,-0.06328 0.3021,-0.14574 0.42563,-0.29715c-0.13646,-0.09058 -0.1514,-0.26364 -0.30816,-0.33761c-0.1196,0.01345 -0.16122,0.08117 -0.2421,0.13038c-0.08133,0.06644 -0.18158,0.0978 -0.18505,0.21848c0.07641,0.10599 0.15285,0.21195 0.30964,0.28593zM272.62192,185.57427c0.21531,0.11035 0.3354,0.07965 0.35966,-0.07489c0.02628,-0.2235 0.01285,-0.44827 -0.00107,-0.65581c0.002,-0.06894 -0.01544,-0.1558 -0.1335,-0.19404c-0.10811,0.30721 -0.17653,0.61563 -0.22513,0.92473zM276.43773,190.35433c0.03671,0.10469 0.11463,0.15894 0.23322,0.17997c0.20291,-0.1489 0.44502,-0.27929 0.57101,-0.51689c-0.23518,-0.11097 -0.41481,-0.08218 -0.55864,0.08584c-0.08134,0.06646 -0.20195,0.11443 -0.24557,0.25109zM275.28611,185.48598c0.2778,0.0088 0.33834,-0.02386 0.34281,-0.17897c-0.01294,-0.24201 -0.02536,-0.50124 -0.11769,-0.74576c-0.16766,0.30533 -0.31497,0.59403 -0.22513,0.92474zM278.19325,187.3209c-0.0238,0.13727 -0.02722,0.25802 -0.05055,0.37804c-0.0268,0.24076 -0.02676,0.24075 0.32799,0.3383c0.04316,-0.11946 0.10665,-0.2555 0.12845,-0.32381c-0.15481,-0.14299 -0.27042,-0.26741 -0.40589,-0.39249zM272.91364,180.94144c-0.12157,0.08244 -0.30113,0.11129 -0.30658,0.30093c0.11658,0.08997 0.25354,0.16334 0.38948,0.27117c0.14191,-0.09906 0.30313,-0.1802 0.3666,-0.31627c-0.1365,-0.09057 -0.25256,-0.19784 -0.44953,-0.25584zM276.94353,188.64468c-0.10559,0.22099 -0.23115,0.44135 -0.33677,0.66236c0.03724,0.08743 0.09475,0.15829 0.21479,0.12758c0.18304,-0.1495 0.32743,-0.33479 0.39337,-0.55703c-0.07641,-0.10599 -0.15383,-0.17741 -0.27145,-0.2329zM276.34202,182.60305c0.13941,-0.01285 0.24065,-0.07865 0.32297,-0.17961c-0.03771,-0.07023 -0.07544,-0.14043 -0.11318,-0.21065c-0.05703,-0.08808 -0.0943,-0.17554 -0.21238,-0.21377c-0.11906,-0.00377 -0.21928,0.02753 -0.30113,0.11126c0.09481,0.15832 0.20896,0.33449 0.30367,0.4928zM272.44243,182.13451c0.14191,-0.09906 0.22474,-0.21725 0.28822,-0.35328c-0.15577,-0.10847 -0.29176,-0.21629 -0.42817,-0.30689c-0.16025,0.04674 -0.24259,0.14764 -0.26541,0.25046c0.13493,0.14232 0.26993,0.28464 0.40535,0.40977zM277.12041,183.16261c-0.05656,-0.10531 -0.11312,-0.21064 -0.18953,-0.31664c-0.01932,-0.01784 -0.05907,-0.01913 -0.09829,-0.03762c-0.08087,0.0492 -0.20092,0.07993 -0.26441,0.21598c0.05562,0.13984 0.09039,0.31345 0.22532,0.45579c0.1612,-0.0812 0.24353,-0.18214 0.32689,-0.31754zM278.12988,184.67861c0.02526,-0.18902 0.24457,-0.21662 0.2495,-0.38901c-0.07543,-0.14041 -0.0908,-0.29623 -0.24564,-0.43918c-0.14137,0.08182 -0.26294,0.16427 -0.20781,0.3213c0.05509,0.15705 0.0308,0.31156 0.20396,0.50689zM277.60953,189.66663c0.08283,-0.11818 0.1855,-0.23574 0.26785,-0.33664c0.02035,-0.01662 0.0015,-0.05174 0.00245,-0.08621c-0.09825,-0.03762 -0.19499,-0.12699 -0.37507,-0.08086c-0.10314,0.1348 -0.20687,0.2868 -0.33038,0.43824c0.13693,0.07337 0.25553,0.09436 0.43512,0.06555zM271.87279,181.21913c-0.11609,-0.10722 -0.23172,-0.23168 -0.32846,-0.32099c-0.18009,0.04606 -0.30165,0.12851 -0.40332,0.21159c0.0164,0.12135 0.15481,0.14292 0.23272,0.19719c0.07794,0.05424 0.1553,0.1257 0.29474,0.11286c0.08036,-0.03198 0.16125,-0.08119 0.2044,-0.20062zM268.74536,189.85208c0.0958,0.1238 0.17268,0.21258 0.24959,0.30127c0.01884,0.03513 0.0779,0.05426 0.09726,0.07211c0.13891,0.00441 0.24015,-0.06142 0.32246,-0.16238c-0.0953,-0.14106 -0.17073,-0.28151 -0.3061,-0.40661c-0.12054,0.04797 -0.22176,0.11379 -0.36315,0.19559zM278.72944,187.32061c0.08583,-0.22163 0.17159,-0.44324 0.119,-0.68651c-0.18008,0.04607 -0.33938,0.05829 -0.44253,0.19306c0.0908,0.29623 0.09082,0.29624 0.32352,0.49343zM270.70653,190.72524c0.32799,0.3383 0.3478,0.33887 0.70999,0.17773c-0.11564,-0.12448 -0.25156,-0.23228 -0.36716,-0.35678c-0.13941,0.01285 -0.24059,0.07867 -0.34281,0.17896zM275.44545,182.00519c-0.09528,-0.14105 -0.19155,-0.24765 -0.34834,-0.32166c-0.04019,0.01599 -0.10073,0.04859 -0.16126,0.08118c-0.04069,0.03323 -0.08186,0.08372 -0.12251,0.11689c0.0953,0.14105 0.17025,0.29875 0.32653,0.38998c0.12053,-0.04796 0.22276,-0.14825 0.30555,-0.26645zM267.57784,189.00408c0.0605,-0.03261 0.14137,-0.08183 0.16273,-0.13291c0.06498,-0.18777 0.0302,-0.36139 -0.10329,-0.55548c-0.12106,0.06518 -0.28078,0.09465 -0.3433,0.19625c0.07443,0.1749 0.08886,0.3652 0.28386,0.49216zM268.66788,182.15315c-0.01932,-0.01785 -0.0387,-0.03573 -0.0774,-0.07146c-0.26196,0.12979 -0.46584,0.31315 -0.66969,0.49652c0.05607,0.12256 0.13398,0.17678 0.29222,0.19906c0.14484,-0.20249 0.30949,-0.40436 0.45487,-0.62412zM274.17465,184.76058c-0.12649,0.25486 -0.27228,0.49181 -0.26085,0.78555c-0.00052,0.01726 0.07792,0.05421 0.11759,0.05548c0.09922,0.0031 0.18058,-0.06333 0.18301,-0.14953c0.06597,-0.22225 0.03269,-0.44766 -0.03976,-0.6915zM274.80782,181.381c-0.09623,-0.10662 -0.19252,-0.21319 -0.32947,-0.28655c-0.13891,-0.00441 -0.23914,0.02693 -0.34181,0.14446c0.13597,0.10784 0.27141,0.23295 0.40785,0.32354c0.12002,-0.0307 0.20089,-0.07993 0.26341,-0.18148zM273.71518,191.09651c0.27733,0.02603 0.51498,0.05085 0.75658,-0.06232c-0.05509,-0.15703 -0.19202,-0.23042 -0.34931,-0.28717c-0.16172,0.09843 -0.3031,0.18023 -0.40727,0.34954zM266.51102,187.41721c0.18159,-0.09779 0.20192,-0.11436 0.20343,-0.16612c0.0248,-0.17175 -0.06998,-0.33011 -0.16526,-0.47116c-0.03819,-0.05295 -0.13697,-0.07334 -0.19945,0.02822c0.11462,0.15895 0.02881,0.38059 0.16134,0.6091zM269.4582,182.29896c0.16472,-0.20184 0.34873,-0.38589 0.37694,-0.67835c-0.28125,0.11191 -0.42614,0.31441 -0.56996,0.48242c0.01734,0.08684 0.07592,0.12317 0.19303,0.19591zM269.64432,190.36372c-0.10071,0.04859 -0.20091,0.07994 -0.30161,0.12851c0.09479,0.15833 0.21039,0.28277 0.43017,0.23794c0.06004,-0.01534 0.12002,-0.03071 0.14189,-0.09906c-0.03672,-0.10469 -0.13399,-0.17682 -0.27042,-0.2674zM276.62071,185.35567c0.17862,0.00562 0.25896,-0.0263 0.24306,-0.16485c-0.01639,-0.12135 -0.03278,-0.24264 -0.06902,-0.36459c-0.0184,-0.05233 -0.05657,-0.10536 -0.13645,-0.09061c-0.06546,0.20501 -0.07088,0.39466 -0.03761,0.62004zM269.08942,184.77224c-0.08583,0.22164 -0.13189,0.44451 -0.0788,0.67052c-0.0005,0.01726 0.07791,0.05421 0.09772,0.05484c0.03967,0.00125 0.08086,-0.04921 0.08185,-0.08371c-0.01341,-0.22476 0.0322,-0.43041 -0.10082,-0.64173zM268.12016,185.32829c-0.0546,-0.17429 -0.04916,-0.36398 -0.16276,-0.5574c-0.10562,0.22099 -0.15076,0.40939 -0.09418,0.51472c0.03672,0.10469 0.1161,0.10724 0.25697,0.04266zM275.64602,190.95051c0.23963,-0.0442 0.51749,-0.03543 0.66231,-0.23791c-0.35325,-0.1492 -0.49807,0.05329 -0.66231,0.23791zM275.45804,187.80387c0.03966,0.00125 0.06009,-0.01536 0.09974,-0.0141c-0.01491,-0.17301 0.0689,-0.32569 -0.02589,-0.48399c-0.11856,-0.02103 -0.1786,-0.00566 -0.2406,0.07867c0.05607,0.12256 0.11165,0.26237 0.16679,0.41945zM271.60778,184.92091c-0.06644,0.23949 -0.11156,0.4279 -0.09766,0.63542c-0.00099,0.03448 0.03771,0.07022 0.09724,0.0721c0.01986,0.00063 0.06003,-0.01535 0.08036,-0.03198c0.08583,-0.22163 0.09172,-0.4285 -0.07997,-0.67553zM267.90929,189.22165c-0.12003,0.03072 -0.18057,0.06329 -0.14236,0.11629c0.05607,0.12256 0.13202,0.24577 0.20793,0.36898c0.05755,0.07085 0.11708,0.07273 0.17859,0.00565c-0.05407,-0.19154 -0.10919,-0.3486 -0.24415,-0.49092zM273.76644,180.98567c0.08087,-0.0492 0.16125,-0.0812 0.24211,-0.13039c0.02035,-0.01659 0.02131,-0.0511 0.04267,-0.10219c-0.23811,-0.00756 -0.45493,-0.06616 -0.7149,-0.00538c0.13597,0.10784 0.23321,0.17995 0.43018,0.23793zM270.32461,187.41707c0.0149,0.17305 0.03031,0.32886 0.04422,0.53638c0.2034,-0.16616 0.26739,-0.31941 0.25245,-0.49245c-0.09774,-0.05486 -0.15678,-0.074 -0.29671,-0.04393zM276.56827,187.18321c0.07593,0.12324 0.03079,0.31157 0.24612,0.42195c0.07136,-0.4119 0.07384,-0.49809 -0.02441,-0.53575c-0.09922,-0.0031 -0.15976,0.02946 -0.22177,0.11378zM270.41607,184.91776c-0.24557,0.25107 -0.25144,0.45795 -0.1795,0.71911c0.28376,-0.19812 0.13189,-0.4445 0.1795,-0.71911zM277.67683,184.54347c-0.22523,0.23447 -0.23065,0.42415 -0.19688,0.63228c-0.00049,0.01724 0.0387,0.03574 0.07838,0.03699c0.05954,0.0019 0.10021,-0.03135 0.10118,-0.06582c0.02481,-0.17176 0.0099,-0.34479 0.01729,-0.60341zM277.52835,186.95476c0.05509,0.15704 0.07001,0.3301 0.26496,0.45702c0.06448,-0.17054 0.04906,-0.32634 0.03319,-0.46488c-0.11759,-0.05549 -0.19743,-0.04076 -0.29817,0.00784zM277.98285,183.56951c-0.13448,-0.15957 -0.12905,-0.34923 -0.32553,-0.42447c-0.06644,0.23949 -0.06644,0.23949 0.14491,0.48777c0.04019,-0.01599 0.08036,-0.03198 0.18059,-0.06331zM275.92777,190.13107c0.27931,-0.04295 0.42268,-0.19371 0.54668,-0.36236c-0.05656,-0.10531 -0.13597,-0.10784 -0.19697,-0.05801c-0.10314,0.13481 -0.2262,0.26897 -0.34969,0.42037zM275.74957,181.79044c0.1196,-0.01346 0.21929,-0.02757 0.28176,-0.12912c-0.07691,-0.08871 -0.1538,-0.17747 -0.27235,-0.19844c-0.09972,0.01409 -0.16025,0.04672 -0.20194,0.11444c0.03724,0.08745 0.09529,0.14107 0.19255,0.21316zM273.05293,187.86583c0.06349,-0.13603 0.10617,-0.23827 0.06942,-0.34296c-0.01884,-0.03513 -0.05805,-0.05361 -0.09726,-0.0721c-0.05954,-0.0019 -0.13993,0.03007 -0.12156,0.08241c-0.00297,0.10348 -0.00643,0.22415 0.1494,0.33264zM272.42293,180.73607c-0.17714,-0.05737 -0.33837,0.02382 -0.49811,0.0533c0.23172,0.2317 0.27143,0.23289 0.49811,-0.0533zM267.00934,185.27586c0.08679,-0.2561 0.08679,-0.25609 -0.08886,-0.36522c-0.04267,0.10219 -0.0858,0.22164 0.08886,0.36522zM274.27672,187.43858c-0.07794,-0.05424 -0.13745,-0.05612 -0.15827,-0.02227c-0.10314,0.13481 -0.08481,0.18715 0.08937,0.34797c0.06301,-0.11876 0.06599,-0.22226 0.06893,-0.32571zM278.50637,184.70779c-0.10168,0.08309 -0.18353,0.16679 -0.14732,0.28868c0.31898,-0.0417 0.33982,-0.07549 0.14732,-0.28868zM266.60988,184.65928c-0.12254,0.11695 -0.14636,0.25421 -0.16963,0.37425c-0.002,0.06895 0.0561,0.1226 0.17715,0.05739c0.02328,-0.12005 0.0471,-0.25738 -0.00749,-0.43165zM277.29557,182.59864c-0.04462,0.17116 0.0124,0.25926 0.17022,0.29877c0,0 0.04019,-0.01599 0.04067,-0.03323c0.02278,-0.10283 -0.09426,-0.17555 -0.21089,-0.26556zM271.7272,187.68582c0.12003,-0.03072 0.16175,-0.09843 0.14386,-0.16802c0.00099,-0.03448 -0.03773,-0.07023 -0.07691,-0.08873c-0.03922,-0.01849 -0.09969,0.01409 -0.10066,0.04859c-0.02133,0.0511 -0.0233,0.12004 0.03375,0.20815zM275.053,181.14719c0.07592,0.12322 0.15381,0.17746 0.31456,0.11347c-0.0953,-0.14105 -0.17366,-0.17807 -0.31456,-0.11347z" fill="url(#color-11)"/><path d="M271.31525,193.7471c0.63454,0.03734 1.26914,0.07471 1.90418,0.09477c0.71445,0.0226 1.43082,-0.02375 2.12986,-0.15695c0.21978,-0.04482 0.40082,-0.12534 0.64094,-0.18677c-0.0079,0.27588 0.00506,0.51784 -0.02173,0.75859c-0.12088,1.44574 -0.14304,2.91186 -0.2247,4.3761c-0.07726,1.30908 -0.1341,2.60153 -0.19149,3.91124c-0.04552,0.89592 -0.09058,1.77458 -0.13612,2.67049c-0.04406,0.84421 -0.0479,1.67237 -0.09193,2.51657c-0.00198,0.06897 -0.00395,0.13794 -0.02578,0.20627c-0.28325,0.18089 -0.58342,0.25763 -0.92274,0.31594c-0.53881,0.0865 -1.09643,0.13788 -1.65158,0.10305c-0.17862,-0.00562 -0.35771,0.00596 -0.51397,-0.08531c0.17962,-0.02884 0.37655,0.02915 0.59731,-0.05013c-0.13097,-0.28023 -0.06307,-0.57147 -0.07501,-0.84797c0.00049,-0.01724 0.001,-0.03446 -0.01883,-0.03511c-0.14541,-0.47053 -0.13106,-0.97054 -0.21648,-1.45643c-0.03474,-0.17365 -0.12906,-0.34922 -0.08444,-0.52035c0.0496,-0.34357 -0.11967,-0.67681 -0.07009,-1.0204c0.00049,-0.01724 -0.01837,-0.05236 -0.01736,-0.08684c-0.05016,-0.32942 -0.12061,-0.64231 -0.1311,-0.97051c0.01087,-0.3793 -0.13802,-0.72918 -0.08747,-1.1072c-0.11266,-0.22788 -0.0665,-0.45078 -0.07944,-0.69278c0.00099,-0.03448 0.00146,-0.05174 0.00248,-0.08619c-0.14889,-0.34986 -0.05915,-0.7094 -0.12864,-1.05676c-0.0695,-0.34733 -0.01944,-0.70813 -0.06911,-1.05484c-0.04816,-0.39845 -0.15641,-0.78148 -0.08499,-1.1934c0.00099,-0.03448 0.00249,-0.08622 -0.01638,-0.12133c-0.11368,-0.19342 -0.04818,-0.39843 -0.06207,-0.60595c0.00297,-0.10348 0.02627,-0.22348 -0.01046,-0.3282c-0.0749,-0.15768 -0.05113,-0.29497 -0.04669,-0.45016c0.00247,-0.0862 0.0248,-0.17182 -0.01294,-0.24199c-0.11266,-0.22788 -0.06606,-0.468 -0.05964,-0.69213c0.00247,-0.0862 0.02477,-0.17177 -0.01292,-0.24201c-0.09375,-0.19278 -0.06853,-0.38182 -0.06306,-0.57148c0.00887,-0.31037 -0.12113,-0.62508 -0.09239,-0.93476c0.02132,-0.0511 -0.03668,-0.1047 -0.05509,-0.15705z" fill="#87d7dc"/><path d="M271.31525,193.74713c0.01836,0.05236 0.07643,0.10596 0.07494,0.15769c-0.02871,0.30972 0.08143,0.62381 0.0924,0.93479c-0.00545,0.18965 -0.03071,0.3787 0.06305,0.57147c0.03771,0.07023 0.0154,0.1558 0.01296,0.24197c-0.0064,0.22412 -0.03322,0.46488 0.05958,0.69216c0.03771,0.07023 -0.00444,0.15519 0.01296,0.242c-0.00444,0.15516 -0.00841,0.29312 0.04669,0.45016c0.03672,0.10469 0.01342,0.22479 0.01045,0.32823c0.01392,0.2075 -0.05153,0.41253 0.06209,0.60594c0.01884,0.03513 0.01737,0.08683 0.01639,0.12131c-0.0709,0.39467 0.03683,0.79501 0.08501,1.19342c0.04916,0.36399 -0.00091,0.72474 0.06906,1.05485c0.06952,0.34731 -0.02024,0.70688 0.12865,1.05672c0.01932,0.01788 -0.0015,0.05174 -0.00249,0.08623c-0.0064,0.22412 -0.03317,0.46488 0.07947,0.69279c-0.07042,0.37742 0.0785,0.72728 0.08745,1.10721c-0.0094,0.32758 0.08095,0.64105 0.13107,0.97053c-0.00099,0.03448 0.0184,0.05237 0.01739,0.08684c-0.0496,0.34357 0.11966,0.67679 0.07009,1.0204c-0.02526,0.18901 0.06949,0.34736 0.08443,0.52036c0.06554,0.48526 0.07108,0.98589 0.21648,1.45642c-0.00049,0.01724 0.01889,0.03512 0.01889,0.03512c0.01196,0.2765 -0.05599,0.56774 0.07502,0.84798c-0.2009,0.07993 -0.3974,0.00467 -0.59733,0.05012c-0.15875,-0.00501 -0.31751,-0.01008 -0.45349,-0.11794c0.00297,-0.10348 0.02626,-0.22349 -0.01047,-0.32818c-0.12853,-0.36645 -0.09828,-0.7279 -0.12762,-1.09124c-0.02932,-0.36329 -0.15789,-0.72976 -0.08748,-1.10717c-0.11266,-0.22788 -0.06655,-0.45079 -0.07948,-0.69279c0.00099,-0.03448 0.00247,-0.0862 -0.01639,-0.12132c-0.09479,-0.15832 -0.05014,-0.32943 -0.06554,-0.48528c0.00247,-0.0862 0.00491,-0.17242 -0.01293,-0.242c-0.08837,-0.38245 -0.15641,-0.78148 -0.14504,-1.17806c0.00151,-0.05173 0.02333,-0.12006 -0.01541,-0.15578c-0.09426,-0.17552 -0.06953,-0.34732 -0.06459,-0.51974c0.02526,-0.18901 -0.10872,-0.36584 -0.08291,-0.5721c0.02775,-0.27524 -0.06408,-0.53699 -0.09587,-0.8141c-0.02885,-0.38058 -0.13752,-0.74639 -0.12613,-1.14293c0.00198,-0.06897 0.0243,-0.15456 -0.01392,-0.20754c-0.0754,-0.14046 -0.05116,-0.29496 -0.06655,-0.45077c0.00396,-0.13792 -0.01193,-0.27647 -0.04814,-0.39845c-0.07294,-0.22665 -0.10624,-0.45202 -0.09935,-0.69342c-0.00947,-0.36268 -0.13802,-0.72915 -0.06764,-1.10655c0.00099,-0.03448 -0.01734,-0.08683 -0.01637,-0.12134c-0.04916,-0.36399 -0.1182,-0.72852 -0.12761,-1.09119c0.01087,-0.3793 -0.13705,-0.76365 -0.08647,-1.14169c0.00151,-0.05173 -0.03673,-0.10467 -0.05509,-0.15704c-0.03327,-0.22538 -0.04619,-0.4674 0.01976,-0.68964c0.09973,-0.01408 0.17908,-0.01161 0.25898,-0.02631c0.27636,0.06053 0.51349,0.10254 0.77101,0.12794z" fill="#b0eef2"/><path d="M279.04625,185.2771c0.05014,0.32941 0.06257,0.58871 -0.02421,0.84482c-0.16273,0.13291 -0.38249,0.17776 -0.60273,0.23979c-1.09986,0.25857 -2.19925,0.49988 -3.33441,0.60204c-0.85632,0.07645 -1.73248,0.15227 -2.60616,0.14189c-0.23813,-0.00754 -0.49565,-0.03293 -0.73528,0.01123c-0.09973,0.01408 -0.21881,0.01033 -0.33784,0.00657c-0.47432,-0.08404 -0.95157,-0.06463 -1.42739,-0.09694c-0.67426,-0.03857 -1.34656,-0.14613 -2.01781,-0.28817c-0.33538,-0.07963 -0.67129,-0.14205 -1.02702,-0.20505c-0.27681,-0.0433 -0.51202,-0.15424 -0.7477,-0.248c-0.13002,-0.31475 -0.14641,-0.43604 -0.09485,-0.84857c0.43607,0.03103 0.84988,0.14767 1.28496,0.21322c0.41526,0.06492 0.85035,0.13045 1.26614,0.17812c0.43558,0.0483 0.89158,0.07999 1.32765,0.11104c0.41573,0.04768 0.85431,-0.00752 1.26863,0.09189c0.43908,-0.0724 0.87417,-0.00683 1.31128,-0.01027c0.41724,-0.00405 0.85482,-0.02475 1.27258,-0.04602c0.43759,-0.02068 0.87563,-0.05858 1.3336,-0.09584c0.41824,-0.03853 0.85581,-0.05918 1.27456,-0.11499c0.43855,-0.05516 0.85828,-0.1454 1.29736,-0.21779c0.45891,-0.07176 0.87763,-0.12754 1.31869,-0.2689z" fill="url(#color-12)"/><path d="M270.56356,193.63709c-0.07987,0.01471 -0.15928,0.01223 -0.25897,0.02633c-0.06594,0.22227 -0.07237,0.44635 -0.01976,0.68964c0.01835,0.05237 0.05656,0.10533 0.05509,0.15704c-0.05057,0.37804 0.07751,0.76177 0.08647,1.14169c-0.01038,0.36206 0.07848,0.72726 0.12759,1.09121c-0.00099,0.03448 0.01737,0.08685 0.01639,0.12132c-0.07043,0.37742 0.07844,0.72726 0.0676,1.10657c-0.0064,0.22412 0.02636,0.46677 0.09935,0.6934c0.03571,0.13915 0.05164,0.27774 0.04816,0.39845c-0.00444,0.15516 -0.02823,0.29247 0.06655,0.45078c0.03819,0.05296 0.01588,0.13857 0.0139,0.20753c-0.01087,0.3793 0.09735,0.76236 0.12617,1.14292c0.03177,0.27712 0.12362,0.53887 0.09586,0.81409c-0.02526,0.18901 0.1087,0.36582 0.08292,0.5721c-0.02479,0.17177 -0.05006,0.3608 0.06455,0.51977c0.01835,0.05237 0.01688,0.10407 0.01542,0.15577c-0.01137,0.39652 0.05711,0.77833 0.14504,1.17804c0.01734,0.08684 -0.00491,0.17239 0.01293,0.24198c-0.00444,0.15516 -0.02918,0.32695 0.06558,0.48526c0.01884,0.03513 0.01738,0.08683 0.01639,0.1213c-0.0064,0.22412 -0.03319,0.46488 0.07947,0.69278c-0.07041,0.37742 0.05815,0.7439 0.08748,1.10719c0.02932,0.36329 -0.0014,0.74196 0.12761,1.09119c0.03671,0.10469 0.0134,0.22477 0.01046,0.32823c-0.17912,0.01158 -0.29519,-0.09562 -0.43364,-0.11724c-0.07849,-0.72726 -0.1778,-1.4207 -0.25727,-2.11346c-0.09733,-0.76238 -0.17532,-1.50688 -0.25284,-2.26861c-0.07898,-0.71005 -0.17782,-1.42069 -0.27661,-2.13135c-0.11372,-0.8837 -0.2478,-1.75078 -0.36204,-2.61722c-0.08047,-0.65832 -0.16087,-1.3166 -0.26121,-1.97554c-0.12963,-1.02226 -0.17938,-2.05925 -0.3487,-3.08273c-0.0159,-0.13853 -0.07148,-0.27837 -0.0075,-0.43163c0.17862,0.00562 0.35572,0.06303 0.53336,0.10316c0.09825,0.03761 0.27783,0.00878 0.43415,0.10001z" fill="#87d7dc"/><path d="M272.59478,208.71471c0.41773,-0.02129 0.81367,0.02574 1.23188,-0.0128c0.47828,-0.05389 0.95701,-0.12506 1.43872,-0.2996c-0.02864,1 -0.05678,1.98272 -0.08443,2.94823c-0.22372,0.18277 -0.4837,0.24354 -0.72431,0.32221c-0.46087,0.14074 -0.91831,0.16076 -1.39559,0.18018c-0.01986,-0.00063 -0.05903,-0.01912 -0.07843,-0.03698c0.18157,-0.09778 0.12598,-0.23758 0.09023,-0.37679c-0.08936,-0.34796 -0.15886,-0.69528 -0.12912,-1.03949c0.00198,-0.06897 0.00394,-0.13793 -0.01394,-0.2075c-0.10969,-0.33137 -0.07997,-0.67553 -0.13013,-1.00501c-0.0342,-0.19091 -0.07004,-0.33004 -0.20497,-0.4724z" fill="#61afb4"/><path d="M270.33158,191.33461c0.69161,0.12544 1.38667,0.13016 2.07977,0.20384c0.31702,0.02729 0.63555,0.00285 0.95409,-0.02158c0.59636,-0.01563 1.21053,0.0383 1.80886,-0.04633c0.23914,-0.02695 0.47825,-0.05388 0.69806,-0.09869c0.13994,-0.03008 0.27928,-0.04294 0.41824,-0.03853c0.0184,0.05233 0.0372,0.08746 0.03621,0.12196c-0.00398,0.13792 -0.00788,0.27584 -0.01181,0.41377c-0.10069,0.0486 -0.18108,0.08054 -0.28127,0.11191c-0.72033,0.18429 -1.46055,0.36795 -2.23456,0.34347c-0.67525,-0.00409 -1.37027,-0.00884 -2.04357,-0.08188c-0.53488,-0.05142 -1.07018,-0.08564 -1.58122,-0.27435c0.10019,-0.03136 0.2178,0.02414 0.30013,-0.0768c0.04511,-0.18839 0.11108,-0.41064 -0.14296,-0.55673z" fill="url(#color-13)"/><path d="M270.77473,192.5048c0.33837,-0.0238 0.65291,0.0897 0.98977,0.1176c0.71396,0.03985 1.4279,0.07972 2.1433,0.06781c0.57649,-0.01627 1.13513,-0.10216 1.67491,-0.22312c0.13994,-0.03008 0.27978,-0.06017 0.4197,-0.09026c-0.00691,0.24139 -0.01279,0.44828 -0.01925,0.67242c-0.24407,0.19935 -0.54426,0.27611 -0.86323,0.31783c-0.37903,0.05706 -0.7779,0.11343 -1.1753,0.11811c-0.895,0.04068 -1.76722,-0.02141 -2.65978,-0.06689c-0.15875,-0.00501 -0.31754,-0.01004 -0.45398,-0.10064c0.00247,-0.0862 0.02475,-0.17178 -0.01295,-0.24198c-0.07444,-0.17493 -0.04869,-0.38123 -0.04325,-0.57083z" fill="url(#color-14)"/><path d="M272.59478,208.71472c0.11564,0.12448 0.17117,0.26427 0.1861,0.43731c0.05015,0.32943 0.02042,0.67369 0.13012,1.00501c0.01785,0.0696 0.01592,0.13857 0.01392,0.20754c-0.01035,0.36208 0.05962,0.69214 0.12912,1.03948c0.03623,0.12196 0.09134,0.27901 -0.09025,0.3768c-0.29818,0.00781 -0.57502,-0.03543 -0.83054,-0.1298c-0.05264,-0.24329 -0.12507,-0.48716 -0.07849,-0.72728c0.00099,-0.03448 -0.01736,-0.08683 -0.01639,-0.12132c-0.04965,-0.34669 -0.09882,-0.71065 -0.12864,-1.05674c-0.0154,-0.15579 -0.01142,-0.29372 -0.04667,-0.45018c-0.05407,-0.19153 -0.06803,-0.39908 0.03663,-0.58559c0.09972,-0.01409 0.1791,-0.01158 0.25897,-0.0263c0.13891,0.00441 0.2972,0.02666 0.43608,0.03103z" fill="#87d7dc"/><path d="M271.08762,182.97175c0.23125,0.2489 0.32257,0.52785 0.39405,0.8063c0.01786,0.06959 0.01488,0.17306 -0.00692,0.24139c-0.17307,0.49497 -0.2668,0.99246 -0.34065,1.49054c-0.00049,0.01724 -0.02132,0.05108 -0.04165,0.06772c-0.08087,0.0492 -0.18009,0.0461 -0.27783,-0.00877c0.00099,-0.03448 -0.01791,-0.0696 -0.01689,-0.10408c0.03174,-0.41313 0.00388,-0.82821 -0.12367,-1.22915c-0.05359,-0.20878 -0.04816,-0.39845 0.05697,-0.6022c0.12551,-0.22036 0.19144,-0.44261 0.35665,-0.66175z" fill="#cce5e6"/><path d="M269.82232,185.53745c-0.12054,0.04797 -0.19943,0.02821 -0.2575,-0.02538c-0.01598,-0.82884 -0.01599,-0.82882 -0.31277,-1.56299c0.04809,-0.29187 0.19539,-0.58056 0.30257,-0.85326c0.13994,-0.03008 0.15675,0.07398 0.19497,0.12697c0.13349,0.19404 0.26745,0.37087 0.36075,0.58091c0.05561,0.13984 0.07193,0.26114 0.02833,0.39778c-0.13144,0.42729 -0.24347,0.87238 -0.31637,1.336z" fill="#cce5e6"/><path d="M272.13885,208.68304c-0.07987,0.01471 -0.15929,0.0122 -0.25897,0.0263c-0.10467,0.18652 -0.09075,0.39402 -0.03663,0.5856c0.03526,0.15645 0.03131,0.29434 0.04666,0.45018c0.02983,0.34609 0.07897,0.71002 0.12862,1.05673c-0.00099,0.03448 0.01739,0.08685 0.01638,0.12133c-0.02725,0.25798 0.04568,0.48462 0.07844,0.72725c-0.15776,-0.03948 -0.29572,-0.07841 -0.45153,-0.18688c-0.0457,-0.48462 -0.13062,-0.98781 -0.15599,-1.48905c-0.0457,-0.48462 -0.17079,-0.97177 -0.15599,-1.48901c0.317,0.0273 0.55319,0.10377 0.78888,0.19749z" fill="#60adb2"/><path d="M274.6553,187.39878c0.07987,-0.01471 0.13994,-0.03007 0.21978,-0.04481c0.03872,0.03574 0.05803,0.05362 0.07738,0.07147c0.071,0.29561 0.20203,0.57586 0.35284,0.85672c0.05608,0.12257 0.07297,0.22667 0.00997,0.34546c-0.10614,0.23823 -0.17306,0.49497 -0.437,0.6937c-0.2317,-0.23168 -0.36275,-0.51192 -0.47387,-0.79156c-0.0184,-0.05233 0.00399,-0.13792 0.02577,-0.20625c0.06839,-0.30842 0.13686,-0.61696 0.22514,-0.92477z" fill="#cce5e6"/><path d="M275.05811,183.04557c0.07445,0.17489 0.131,0.28027 0.18707,0.40284c0.0928,0.22729 0.10673,0.4348 -0.01925,0.67242c-0.19047,0.40811 -0.32185,0.83544 -0.33422,1.26644c-0.00396,0.13792 -0.02429,0.15451 -0.26196,0.12978c0.00149,-0.05173 -0.0169,-0.10407 -0.01539,-0.15582c0.03219,-0.4304 -0.01549,-0.84606 -0.1227,-1.26362c-0.01686,-0.10408 -0.03423,-0.19091 0.00788,-0.27589c0.16616,-0.25361 0.29266,-0.50843 0.55858,-0.77611z" fill="#cae2e3"/><path d="M272.16353,185.6288c-0.01932,-0.01785 -0.03825,-0.05301 -0.03771,-0.07022c0.05104,-0.39526 -0.01747,-0.7771 -0.10631,-1.14233c-0.06952,-0.34731 -0.06013,-0.67494 0.14774,-0.9962c0.10368,-0.15203 0.12891,-0.34104 0.27184,-0.47457c0.30716,0.3721 0.37467,0.7884 0.22488,1.1633c-0.1721,0.4605 -0.36354,0.9031 -0.35802,1.40375c-0.02132,0.0511 -0.02333,0.12005 -0.14238,0.1163z" fill="#c9e1e2"/><path d="M273.66851,183.01887c0.19054,0.28213 0.26301,0.52599 0.33497,0.78714c0.01734,0.08684 0.01489,0.17303 -0.02676,0.24076c-0.19244,0.47711 -0.34567,0.97269 -0.45924,1.46953c-0.00099,0.03448 -0.02229,0.08557 -0.12104,0.06518c0.00346,-0.12068 0.00743,-0.25859 -0.00896,-0.37992c-0.00995,-0.34544 -0.03978,-0.69152 -0.1495,-1.02287c-0.0725,-0.24389 -0.04619,-0.46738 0.09865,-0.66988c0.10368,-0.15203 0.20682,-0.28685 0.33184,-0.48998z" fill="#c9e1e2"/><path d="M275.91046,187.26595c0.12158,-0.08244 0.2208,-0.07929 0.31999,-0.07616c0.01932,0.01784 0.03824,0.05299 0.05754,0.07085c0.03179,0.27712 0.14345,0.53951 0.31565,0.76927c0.09526,0.14106 0.11116,0.27962 0.04717,0.43292c-0.08479,0.18713 -0.15025,0.39216 -0.27426,0.56081c-0.21383,-0.16207 -0.46398,-0.44612 -0.49969,-0.58531c-0.03724,-0.08745 0.00442,-0.15516 0.02678,-0.24076c-0.01144,-0.29371 0.0768,-0.60157 0.00685,-0.93163z" fill="#cae3e4"/><path d="M269.0909,188.18913c0.20632,-0.26957 0.35321,-0.54102 0.48066,-0.83038c0.12002,-0.0307 0.19948,-0.02822 0.29721,0.02665c0.09033,0.31344 0.04024,0.67427 0.15043,0.98839c-0.10469,0.1865 -0.26639,0.28494 -0.40922,0.4185c-0.08133,0.06644 -0.14333,0.15075 -0.28276,0.1636c-0.15234,-0.22917 -0.12458,-0.50438 -0.23624,-0.76677z" fill="#c8e0e1"/><path d="M272.2893,187.47926c0.1781,0.02288 0.19598,0.09249 0.21386,0.16207c0.072,0.26115 0.14443,0.50499 0.19657,0.7655c0.01788,0.06961 0.0159,0.13856 -0.02575,0.20628c-0.14435,0.18523 -0.30855,0.36986 -0.49207,0.53664c-0.09621,-0.10658 -0.11316,-0.21068 -0.16971,-0.316c-0.16969,-0.31598 -0.18117,-0.60971 0.0847,-0.87742c0.12304,-0.13417 0.16766,-0.30532 0.19243,-0.47711z" fill="#cbe4e5"/><path d="M271.0391,187.43971c0.09922,0.0031 0.15876,0.00499 0.21829,0.00688c0.01884,0.03513 0.05804,0.05363 0.05755,0.07084c0.0342,0.19091 0.04869,0.38121 0.08294,0.57211c0.01686,0.10409 -0.00546,0.18967 -0.06747,0.27399c-0.18601,0.25296 -0.39141,0.48805 -0.65629,0.72129c-0.1345,-0.15956 -0.14985,-0.31534 -0.16525,-0.47114c0.002,-0.06894 0.00397,-0.13795 0.04509,-0.18838c0.2659,-0.2677 0.39486,-0.60876 0.48512,-0.98556z" fill="#c8e0e1"/><path d="M270.77474,192.50479c-0.00545,0.18965 -0.03123,0.39594 0.06261,0.58873c0.03771,0.07023 0.01536,0.15575 0.01292,0.24197c-0.33785,0.00656 -0.6539,-0.05519 -0.94812,-0.18533c0.04661,-0.24013 -0.02585,-0.48399 -0.05962,-0.69213c0.14137,-0.08182 0.27882,-0.02568 0.39886,-0.05641c0.17912,-0.01158 0.37708,0.01193 0.53337,0.10314z" fill="#85d5d9"/><path d="M276.5421,183.93814c-0.10665,0.25549 -0.21324,0.51096 -0.30057,0.78431c-0.06646,0.2395 0.08441,0.52036 -0.22071,0.76955c0.01678,-0.58617 -0.10733,-1.10784 -0.2314,-1.62947c0.10469,-0.1865 0.22965,-0.38964 0.43257,-0.53851c0.03872,0.03574 0.05806,0.05361 0.07739,0.07145c0.09427,0.17552 0.16875,0.35049 0.24268,0.54261z" fill="#c6dede"/><path d="M270.82158,182.54915c-0.14733,0.28872 -0.27376,0.54352 -0.42109,0.83227c-0.15577,-0.10847 -0.21139,-0.24829 -0.30764,-0.35486c-0.0958,-0.1238 -0.23173,-0.23171 -0.2868,-0.38873c0.00346,-0.12068 0.08578,-0.22162 0.14827,-0.32318c0.06249,-0.10155 0.14486,-0.20247 0.24704,-0.30281c0.27486,0.11223 0.42768,0.32417 0.62023,0.53735z" fill="#cae3e3"/><path d="M268.55126,185.53174c-0.12412,-0.52164 -0.25069,-0.95706 -0.49682,-1.37898c0.08583,-0.22164 0.15176,-0.44386 0.23807,-0.68273c0.25405,0.1461 0.34735,0.35612 0.4808,0.55014c0.01884,0.03513 0.01736,0.08685 0.01637,0.12131c-0.07187,0.42913 -0.14375,0.85831 -0.23843,1.39023z" fill="#cae3e4"/><path d="M273.49165,189.1912c-0.19054,-0.28213 -0.34191,-0.54578 -0.15341,-0.88493c0.12601,-0.23763 0.15326,-0.49563 0.1805,-0.7536c0.00297,-0.10347 0.10266,-0.11756 0.22078,-0.0793c-0.04756,0.2746 0.04423,0.53639 0.13605,0.79814c0.07396,0.19216 0.02984,0.34606 -0.07385,0.49812c-0.08333,0.13541 -0.1275,0.28933 -0.31007,0.42163z" fill="#c8e0e1"/><path d="M270.33158,191.33459c0.25354,0.16332 0.18806,0.36832 0.16228,0.57461c-0.08233,0.10091 -0.2004,0.06269 -0.3001,0.07679c-0.25748,-0.02539 -0.49365,-0.10191 -0.72887,-0.2129c0.02526,-0.18901 -0.04865,-0.38118 0.0555,-0.55045c0.09973,-0.01408 0.15928,-0.01221 0.23863,-0.0097c0.19747,0.04075 0.39494,0.08148 0.57256,0.12165z" fill="url(#color-15)"/><path d="M271.53791,188.74971c0.11166,0.26239 0.18462,0.48902 0.27745,0.71631c-0.18406,0.184 -0.38739,0.35014 -0.6097,0.48115c-0.13797,-0.03887 -0.17465,-0.14358 -0.23221,-0.21442c-0.05756,-0.07085 -0.1151,-0.14166 -0.09179,-0.26174c0.16472,-0.20184 0.38989,-0.43632 0.65627,-0.72129z" fill="#c7dfe0"/><path d="M274.62931,189.69313c-0.14389,0.16803 -0.26788,0.33663 -0.47075,0.48556c-0.23372,-0.1627 -0.32699,-0.37272 -0.45948,-0.60126c0.14484,-0.20249 0.28967,-0.405 0.43504,-0.62475c0.19152,0.24766 0.32404,0.47623 0.49522,0.74047z" fill="#c8e0e1"/><path d="M271.78999,182.02755c0.15481,0.14299 0.30958,0.28593 0.40339,0.47872c-0.12601,0.23763 -0.27181,0.47458 -0.41812,0.72879c-0.03967,-0.00125 -0.07936,-0.00251 -0.07887,-0.01977c-0.11462,-0.15895 -0.22874,-0.3351 -0.32352,-0.49341c-0.03771,-0.07023 -0.05561,-0.13984 -0.01445,-0.19028c0.125,-0.20311 0.19047,-0.40811 0.43158,-0.50408z" fill="#c4dcdd"/><path d="M274.81106,182.65812c-0.16519,0.21911 -0.31054,0.43883 -0.47573,0.65796c-0.15724,-0.05677 -0.15329,-0.19467 -0.20988,-0.30002c-0.05656,-0.10531 -0.09281,-0.22729 -0.14889,-0.34984c0.10516,-0.20375 0.3076,-0.33534 0.47128,-0.50278c0.21481,0.12756 0.28927,0.30252 0.36318,0.49468z" fill="#c8e0e1"/><path d="M275.18732,189.6245c0.14586,-0.23696 0.27136,-0.45738 0.41767,-0.71157c0.19451,0.14419 0.28827,0.33702 0.46296,0.48059c-0.08633,0.23886 -0.28922,0.38777 -0.45391,0.58961c-0.19549,-0.10972 -0.35176,-0.20095 -0.42668,-0.35864z" fill="#c6ddde"/><path d="M277.14875,187.02902c0.19007,0.29939 0.27992,0.63008 0.53048,0.89688c-0.06544,0.20502 -0.1106,0.39344 -0.25494,0.57868c-0.23467,-0.12823 -0.36918,-0.28778 -0.32206,-0.54513c0.06842,-0.30842 0.03762,-0.62005 0.04651,-0.93041z" fill="#b9cfd0"/><path d="M267.44689,185.2552c-0.11759,-0.05549 -0.05563,-0.13983 -0.07346,-0.20938c-0.03524,-0.15643 -0.05066,-0.31219 -0.16678,-0.41945c-0.15332,-0.19468 -0.12808,-0.38369 -0.08243,-0.58934c0.02234,-0.0856 0.06447,-0.17054 0.10762,-0.28997c0.25259,0.19781 0.44607,0.37653 0.35733,0.70157c-0.06594,0.22225 -0.05304,0.46427 -0.07931,0.68776c-0.00151,0.05172 -0.00297,0.10345 -0.06299,0.11881z" fill="#c0d8d8"/><path d="M268.16627,188.57402c-0.09479,-0.15832 -0.13051,-0.29748 -0.12658,-0.43541c0.002,-0.06894 0.00441,-0.15519 0.04559,-0.20564c0.18505,-0.21848 0.31102,-0.45609 0.43701,-0.69369c0.13891,0.00442 0.11708,0.07272 0.11563,0.12448c-0.00495,0.17242 -0.01036,0.36208 0.02439,0.53574c0.03327,0.22538 -0.03071,0.37868 -0.23262,0.49311c-0.10071,0.04859 -0.16173,0.09843 -0.2634,0.18146z" fill="#c1d9d9"/><path d="M273.18354,189.54385c-0.12448,0.18587 -0.28725,0.31878 -0.45092,0.48616c-0.21532,-0.11033 -0.2694,-0.30187 -0.38406,-0.46082c0.14533,-0.21974 0.36805,-0.368 0.57197,-0.55138c0.13396,0.17682 0.18858,0.35113 0.26305,0.52605z" fill="#c3dbdc"/><path d="M273.02742,183.20568c-0.11218,-0.24516 -0.20496,-0.47246 -0.31761,-0.70034c0.0838,-0.15268 0.16716,-0.28805 0.34872,-0.38589c0.17467,0.14361 0.26893,0.31913 0.38311,0.49531c-0.08583,0.22163 -0.21027,0.40749 -0.41417,0.59087z" fill="#c3dadb"/><path d="M271.39463,190.28104c0.20291,-0.1489 0.38545,-0.28116 0.56799,-0.41343c0.195,0.12696 0.28929,0.30253 0.38356,0.47805c-0.14335,0.15078 -0.30554,0.26645 -0.50696,0.36356c-0.05854,-0.03637 -0.13646,-0.09063 -0.17515,-0.12632c-0.09625,-0.10659 -0.15333,-0.19467 -0.26944,-0.3019z" fill="#c4dbdc"/><path d="M267.59353,187.07181c-0.00939,0.32761 -0.01681,0.58625 -0.02464,0.86207c-0.10268,0.11756 -0.22425,0.19999 -0.40431,0.24604c-0.11656,-0.08999 -0.07346,-0.2094 -0.11016,-0.31411c-0.03672,-0.10469 -0.0536,-0.20879 -0.05117,-0.295c0.2034,-0.16618 0.36612,-0.29907 0.59033,-0.49904z" fill="#c2d9da"/><path d="M270.46882,181.6924c0.08333,-0.13541 0.18549,-0.23575 0.30656,-0.30093c0.15925,-0.0122 0.23569,0.09379 0.33342,0.14861c0.09774,0.05482 0.2163,0.07586 0.27236,0.19843c-0.04462,0.17116 -0.18799,0.32192 -0.33232,0.50723c-0.09679,-0.08934 -0.19356,-0.17871 -0.29077,-0.25081c-0.09621,-0.10658 -0.19254,-0.21316 -0.2893,-0.30253z" fill="#c5ddde"/><path d="M273.83263,190.46174c-0.10417,0.1693 -0.26443,0.21599 -0.38644,0.31567c-0.2158,-0.09312 -0.35031,-0.2527 -0.50415,-0.43011c0.14285,-0.13354 0.28576,-0.26708 0.4088,-0.40125c0.23465,0.12823 0.32801,0.33828 0.48181,0.51568z" fill="#c3dbdc"/><path d="M268.92705,183.50738c-0.07794,-0.05424 -0.11661,-0.08994 -0.15533,-0.12566c-0.07691,-0.08871 -0.15334,-0.19468 -0.24958,-0.30127c0.14586,-0.23696 0.23212,-0.47586 0.45586,-0.65862c0.13797,0.03887 0.19502,0.12696 0.27093,0.25017c-0.08679,0.25609 -0.19444,0.54605 -0.32186,0.83541z" fill="#c7dfe0"/><path d="M270.3259,189.45343c-0.2024,0.13163 -0.3264,0.30027 -0.54717,0.37957c-0.17563,-0.10913 -0.19007,-0.29936 -0.326,-0.40722c0.18505,-0.21848 0.38741,-0.35014 0.59083,-0.51627c0.19403,0.16147 0.18857,0.35108 0.2824,0.54388z" fill="#c7dee0"/><path d="M270.24197,192.38439c-0.12003,0.03072 -0.25747,-0.02542 -0.39887,0.05642c0.03327,0.22538 0.08586,0.46863 0.05962,0.69213c-0.07891,-0.01975 -0.17763,-0.04014 -0.25601,-0.07709c-0.11759,-0.05549 -0.19448,-0.1442 -0.19105,-0.26492c-0.01393,-0.20749 -0.02835,-0.39778 -0.04224,-0.60533c0.25799,0.00815 0.37658,0.02917 0.82858,0.1988z" fill="#61acb1"/><path d="M276.09549,182.88858c-0.14389,0.16803 -0.26686,0.30212 -0.4306,0.46955c-0.11266,-0.22789 -0.22578,-0.43853 -0.3186,-0.66582c0.10314,-0.1348 0.20587,-0.25233 0.34774,-0.35139c0.19401,0.16145 0.28828,0.33699 0.40144,0.54765z" fill="#c2dada"/><path d="M268.2546,188.95646c0.14389,-0.16803 0.30559,-0.26644 0.48819,-0.39871c0.0725,0.24389 0.14594,0.4533 0.21938,0.66273c-0.0838,0.15268 -0.22423,0.19999 -0.38546,0.28115c-0.17514,-0.12633 -0.22927,-0.3179 -0.32206,-0.54514z" fill="#c1d9d9"/><path d="M273.76854,182.29725c-0.17367,-0.17808 -0.28877,-0.31976 -0.42374,-0.4621c0.06448,-0.17054 0.2267,-0.28619 0.38894,-0.40186c0.17611,0.09187 0.33192,0.20033 0.44607,0.37652c-0.06546,0.20501 -0.26643,0.28495 -0.41123,0.48746z" fill="#c6dedf"/><path d="M275.30756,190.28407c-0.14335,0.15077 -0.3061,0.28367 -0.44895,0.41723c-0.1781,-0.02288 -0.29519,-0.09561 -0.41084,-0.22009c0.08583,-0.22163 0.30759,-0.33536 0.45193,-0.52067c0.17665,0.0746 0.27237,0.19843 0.40786,0.32351z" fill="#c0d7d7"/><path d="M268.02318,183.16811c-0.08479,0.18713 -0.11061,0.39341 -0.2941,0.56019c-0.11564,-0.12448 -0.23173,-0.23172 -0.34783,-0.3389c0.00595,-0.20687 0.1101,-0.37615 0.27281,-0.50904c0.15726,0.05676 0.25401,0.14608 0.36915,0.28775z" fill="#c3dadb"/><path d="M269.77884,191.21357c-0.07939,-0.00252 -0.15928,0.01222 -0.23867,0.00974c-0.10418,0.1693 -0.03025,0.36142 -0.0555,0.55045c-0.13941,0.01285 -0.21582,-0.09313 -0.35422,-0.11476c-0.07295,-0.22664 -0.00752,-0.43166 -0.14002,-0.66018c0.19894,-0.01094 0.3165,0.0445 0.454,0.10064c0.09825,0.0376 0.23816,0.00756 0.33438,0.11414z" fill="url(#color-16)"/><path d="M278.34028,188.42997c-0.08479,0.18713 -0.1106,0.39344 -0.27379,0.54357c-0.13797,-0.03887 -0.21536,-0.11039 -0.33146,-0.21756c0.04512,-0.1884 0.12994,-0.37555 0.25343,-0.52696c0.13795,0.03888 0.21584,0.09312 0.35177,0.20096z" fill="#bdd3d4"/><path d="M272.2104,190.92807c0.14191,-0.09906 0.26393,-0.19872 0.38593,-0.29839c0.17613,0.09187 0.29177,0.21633 0.40688,0.35799c-0.06349,0.13603 -0.20342,0.16618 -0.34231,0.16176c-0.17861,-0.00562 -0.35718,-0.01127 -0.45051,-0.22134z" fill="#bdd4d5"/><path d="M277.47439,183.98487c-0.10516,0.20373 -0.20982,0.39027 -0.31496,0.594c-0.1881,-0.36831 -0.2779,-0.69905 0.12739,-0.9796c0.11656,0.08999 0.13248,0.22853 0.18757,0.38556z" fill="#bbd2d3"/><path d="M270.37614,190.47317c-0.15677,-0.074 -0.23321,-0.17996 -0.3096,-0.28595c0.00346,-0.12068 0.1037,-0.15203 0.18506,-0.21847c0.06101,-0.04984 0.1225,-0.1169 0.2421,-0.13038c0.15677,0.074 0.15186,0.24638 0.30814,0.3376c-0.12351,0.15143 -0.26486,0.23322 -0.42558,0.29718z" fill="#c3dadb"/><path d="M272.62192,185.57427c0.04861,-0.30909 0.09716,-0.61815 0.22514,-0.92473c0.11854,0.02102 0.13599,0.10785 0.13346,0.19404c0.01341,0.22476 0.00702,0.44885 0.00108,0.65577c-0.00444,0.15516 -0.12452,0.1859 -0.35968,0.07491z" fill="#b1c6c7"/><path d="M276.43773,190.35433c0.04359,-0.13666 0.16419,-0.18465 0.24603,-0.26832c0.14389,-0.16803 0.32296,-0.1796 0.55867,-0.08585c-0.12599,0.23761 -0.36861,0.38525 -0.57097,0.51689c-0.13843,-0.02162 -0.197,-0.05802 -0.23372,-0.16271z" fill="#bbd2d3"/><path d="M275.28611,185.48598c-0.07,-0.3301 0.07731,-0.61879 0.20527,-0.92538c0.11218,0.24516 0.10473,0.50377 0.11768,0.74577c0.0154,0.1558 -0.04511,0.18844 -0.32296,0.1796z" fill="#bad1d2"/><path d="M278.19325,187.32092c0.13495,0.14234 0.2709,0.25019 0.40586,0.39248c-0.02233,0.08559 -0.08531,0.20439 -0.12846,0.32382c-0.35475,-0.09751 -0.35424,-0.11475 -0.32801,-0.33828c0.00349,-0.12069 0.02679,-0.24076 0.05057,-0.37805z" fill="#b5cbcc"/><path d="M272.91364,180.94144c0.19697,0.05801 0.3136,0.14796 0.43017,0.23793c-0.06398,0.1533 -0.22473,0.21722 -0.3666,0.31628c-0.13646,-0.09058 -0.253,-0.18057 -0.38946,-0.27117c0.02429,-0.15454 0.20385,-0.18338 0.32593,-0.28307z" fill="#c0d7d8"/><path d="M276.94353,188.64468c0.11806,0.03826 0.19502,0.12695 0.27146,0.23291c-0.06597,0.22225 -0.21029,0.40753 -0.39337,0.55703c-0.13941,0.01285 -0.17761,-0.04014 -0.21481,-0.12758c0.10559,-0.22099 0.21127,-0.44199 0.33679,-0.66235z" fill="#bdd4d4"/><path d="M276.34204,182.60303c-0.11462,-0.15895 -0.20891,-0.33445 -0.32353,-0.49342c0.08186,-0.08369 0.18207,-0.11505 0.30113,-0.11131c0.11805,0.03826 0.15531,0.12569 0.21236,0.21377c0.03771,0.07023 0.07543,0.14043 0.11315,0.21067c-0.0625,0.10158 -0.14387,0.16804 -0.30314,0.18024z" fill="#b6cccc"/><path d="M272.44243,182.13451c-0.13495,-0.14234 -0.25056,-0.26678 -0.4054,-0.40974c0.02281,-0.10282 0.08529,-0.20441 0.2654,-0.25048c0.13648,0.09056 0.27239,0.19844 0.42818,0.30689c-0.08333,0.13541 -0.14632,0.25423 -0.28821,0.35327z" fill="#c1d9d9"/><path d="M277.12041,183.1626c-0.08333,0.13541 -0.16568,0.23638 -0.30707,0.31815c-0.13495,-0.14234 -0.1697,-0.31602 -0.22528,-0.45582c0.04359,-0.13666 0.16368,-0.16737 0.26439,-0.21597c0.05903,0.01914 0.09874,0.02038 0.09827,0.0376c0.05653,0.10531 0.11312,0.21064 0.1697,0.31602z" fill="#b7cdce"/><path d="M278.12991,184.67863c-0.15333,-0.1947 -0.14889,-0.34984 -0.18415,-0.50627c-0.05461,-0.1743 0.06645,-0.2395 0.20782,-0.32131c0.13495,0.14234 0.17019,0.29875 0.24563,0.43921c-0.04464,0.17115 -0.24457,0.21661 -0.26935,0.38839z" fill="#b6cccc"/><path d="M277.87784,189.31273c-0.10316,0.1348 -0.1855,0.23572 -0.26834,0.35391c-0.17912,0.01158 -0.29818,0.0078 -0.43462,-0.08279c0.12352,-0.15141 0.22718,-0.30343 0.33034,-0.43822c0.18006,-0.0461 0.25648,0.0599 0.37506,0.08086c-0.00099,0.03448 0.01787,0.06961 -0.00245,0.08623z" fill="#c2dada"/><path d="M271.8728,181.21911c-0.06301,0.11876 -0.124,0.16865 -0.22421,0.20001c-0.1196,0.01346 -0.19696,-0.05801 -0.29472,-0.11286c-0.07792,-0.05423 -0.21632,-0.07586 -0.23271,-0.19719c0.10219,-0.10029 0.22372,-0.18274 0.40334,-0.21158c0.13596,0.10783 0.23222,0.21443 0.34833,0.32165z" fill="#bbd2d3"/><path d="M268.74536,189.85208c0.14137,-0.08181 0.24259,-0.14764 0.36362,-0.21284c0.13548,0.12509 0.21087,0.26554 0.30619,0.40661c-0.08234,0.10092 -0.18355,0.16679 -0.32246,0.16233c-0.03922,-0.01849 -0.07837,-0.037 -0.09727,-0.07211c-0.07739,-0.07145 -0.15432,-0.16022 -0.25009,-0.28404z" fill="#bbd2d3"/><path d="M278.72944,187.32061c-0.23272,-0.19719 -0.23274,-0.1972 -0.32351,-0.49341c0.10318,-0.13481 0.26244,-0.147 0.44251,-0.19305c0.05263,0.24328 -0.05302,0.46426 -0.11899,0.68651z" fill="#adc2c3"/><path d="M270.70662,190.72523c0.08234,-0.10092 0.20343,-0.16613 0.3428,-0.17896c0.13548,0.12509 0.25158,0.23223 0.36714,0.35672c-0.34231,0.16175 -0.36214,0.16115 -0.70999,-0.17774z" fill="#b5cbcc"/><path d="M275.44544,182.0052c-0.10267,0.11758 -0.18456,0.20123 -0.32595,0.28305c-0.15625,-0.09119 -0.21137,-0.2483 -0.32649,-0.38999c0.04119,-0.05047 0.08185,-0.08366 0.1225,-0.11692c0.04069,-0.03323 0.10069,-0.0486 0.16123,-0.0812c0.17712,0.05737 0.27337,0.16395 0.36867,0.30504z" fill="#bbd1d2"/><path d="M267.57787,189.00409c-0.19499,-0.12697 -0.20892,-0.33448 -0.3042,-0.47554c0.08284,-0.11816 0.22226,-0.13104 0.34334,-0.19624c0.13351,0.19402 0.16823,0.36772 0.10325,0.55548c-0.0015,0.05173 -0.08184,0.0837 -0.14236,0.11629z" fill="#b6cccd"/><path d="M268.66787,182.15312c-0.14533,0.21974 -0.31004,0.42161 -0.45487,0.62409c-0.13844,-0.02165 -0.21631,-0.07584 -0.29224,-0.19904c0.20385,-0.18338 0.40775,-0.36675 0.66969,-0.49653c0.03873,0.03576 0.05805,0.05362 0.0774,0.07146z" fill="#acc1c2"/><path d="M274.17465,184.76058c0.05311,0.22602 0.08638,0.45142 0.04026,0.67427c-0.02234,0.0856 -0.08382,0.15266 -0.18301,0.14953c-0.03965,-0.00126 -0.11806,-0.03826 -0.11759,-0.05551c-0.01243,-0.25924 0.13386,-0.51345 0.26034,-0.76831z" fill="#a7bbbb"/><path d="M274.80782,181.381c-0.04266,0.1022 -0.14335,0.15078 -0.26391,0.19874c-0.13596,-0.10783 -0.27191,-0.2157 -0.40786,-0.32354c0.08333,-0.13541 0.2029,-0.14888 0.3418,-0.1445c0.11759,0.05549 0.2337,0.16269 0.32996,0.26932z" fill="#b7cdcd"/><path d="M273.71519,191.0965c0.10418,-0.1693 0.24557,-0.25107 0.40679,-0.33228c0.15726,0.05676 0.27438,0.12948 0.3493,0.28717c-0.24111,0.0959 -0.47876,0.07112 -0.75608,0.04512z" fill="#b7cece"/><path d="M266.51102,187.41721c-0.13299,-0.21129 -0.04719,-0.4329 -0.14149,-0.60844c0.08233,-0.10091 0.16123,-0.08118 0.19946,-0.02819c0.0953,0.14106 0.17023,0.29877 0.16525,0.47116c-0.02132,0.05111 -0.02183,0.06834 -0.22324,0.16552z" fill="#b4cacb"/><path d="M269.45819,182.29895c-0.11757,-0.05549 -0.17563,-0.1091 -0.21289,-0.19654c0.14389,-0.16803 0.28822,-0.35326 0.57,-0.48242c0.01144,0.29371 -0.17211,0.46046 -0.35712,0.67898z" fill="#b2c8c9"/><path d="M269.64432,190.36372c0.13646,0.09058 0.23371,0.16271 0.27042,0.26741c-0.02182,0.06834 -0.08186,0.08373 -0.14191,0.09908c-0.24009,0.06143 -0.33589,-0.06242 -0.43016,-0.23794c0.10019,-0.03136 0.20094,-0.07994 0.30163,-0.12851z" fill="#b5cbcb"/><path d="M276.62071,185.35567c-0.01343,-0.22475 -0.00802,-0.41439 0.05746,-0.61938c0.09972,-0.01408 0.13792,0.03887 0.13646,0.0906c0.01639,0.12135 0.05262,0.2433 0.069,0.36459c-0.00396,0.13792 -0.08432,0.16987 -0.26292,0.16419z" fill="#91a3a3"/><path d="M269.08942,184.77226c0.13299,0.21129 0.10673,0.4348 0.10077,0.64169c-0.00099,0.03448 -0.04167,0.06771 -0.08186,0.08369c-0.03967,-0.00125 -0.09826,-0.0376 -0.09777,-0.05487c-0.05263,-0.24328 -0.0065,-0.46614 0.07879,-0.67051z" fill="#99abac"/><path d="M268.12015,185.3283c-0.14088,0.06459 -0.24011,0.06141 -0.27734,-0.02606c-0.03623,-0.12196 0.00842,-0.29309 0.0942,-0.51471c0.13403,0.17682 0.12855,0.36644 0.18314,0.54074z" fill="#93a5a6"/><path d="M275.64602,190.95051c0.16422,-0.18463 0.30903,-0.38714 0.66231,-0.23791c-0.16474,0.20183 -0.42267,0.1937 -0.66231,0.23791z" fill="#9aadad"/><path d="M275.45802,187.80383c-0.05559,-0.13982 -0.11068,-0.29685 -0.16675,-0.41946c0.06202,-0.08432 0.12203,-0.09968 0.24063,-0.07865c0.09481,0.15833 0.01049,0.32823 0.02589,0.48402c-0.03967,-0.00125 -0.05954,-0.00191 -0.09975,0.0141z" fill="#c5dddd"/><path d="M271.60778,184.92093c0.17218,0.22978 0.16574,0.45394 0.07996,0.67554c-0.00049,0.01724 -0.04069,0.03326 -0.08038,0.03199c-0.06004,0.01534 -0.09826,-0.0376 -0.09725,-0.0721c-0.01445,-0.19028 0.05106,-0.39531 0.09765,-0.63542z" fill="#aec2c3"/><path d="M267.9093,189.22164c0.13495,0.14234 0.18956,0.31661 0.24464,0.4737c-0.062,0.08433 -0.14092,0.06456 -0.17863,-0.00564c-0.07592,-0.12322 -0.15233,-0.22918 -0.20789,-0.36899c-0.03873,-0.03576 0.0223,-0.08556 0.14188,-0.09905z" fill="#9caeaf"/><path d="M273.76644,180.98567c-0.17714,-0.05739 -0.2942,-0.1301 -0.43016,-0.23795c0.25995,-0.0608 0.47677,-0.00218 0.7149,0.00537c-0.02134,0.05111 -0.02234,0.0856 -0.04266,0.10218c-0.08087,0.0492 -0.16122,0.08117 -0.24207,0.13041z" fill="#a9bebf"/><path d="M270.32461,187.41707c0.13994,-0.03008 0.21876,-0.01035 0.29672,0.04393c0.01488,0.17304 -0.0491,0.32632 -0.25249,0.49248c-0.03377,-0.20817 -0.0293,-0.36332 -0.04424,-0.53637z" fill="#b9cfd0"/><path d="M276.56825,187.18319c0.062,-0.08431 0.14191,-0.09902 0.22177,-0.11378c0.09825,0.03762 0.09579,0.1238 0.02438,0.53574c-0.23518,-0.11097 -0.17022,-0.29876 -0.24613,-0.42197z" fill="#869797"/><path d="M270.41607,184.91776c-0.06743,0.27398 0.10425,0.52102 -0.1795,0.71911c-0.072,-0.26114 -0.04622,-0.46737 0.1795,-0.71911z" fill="#93a4a5"/><path d="M277.67683,184.54347c-0.00742,0.2586 -0.01236,0.43103 -0.01729,0.60343c-0.00099,0.03448 -0.04166,0.06772 -0.10119,0.0658c-0.01986,-0.00063 -0.05904,-0.01914 -0.07842,-0.037c-0.03379,-0.20814 -0.02835,-0.39784 0.19685,-0.63226z" fill="#94a5a6"/><path d="M277.52835,186.95476c0.12106,-0.06517 0.18105,-0.08057 0.27832,-0.00847c0.0159,0.13853 0.0313,0.29436 -0.03319,0.46489c-0.19498,-0.127 -0.19004,-0.29936 -0.24515,-0.45639z" fill="#abbfc0"/><path d="M277.98285,183.56951c-0.10021,0.03136 -0.1404,0.04733 -0.18012,0.04607c-0.21139,-0.24829 -0.21135,-0.24827 -0.1449,-0.48774c0.19549,0.10972 0.19057,0.28211 0.325,0.44167z" fill="#acc0c1"/><path d="M275.92777,190.13107c0.12304,-0.13417 0.22669,-0.2862 0.36956,-0.41973c0.06101,-0.04984 0.1404,-0.0473 0.19695,0.05801c-0.14389,0.16803 -0.28722,0.31878 -0.56652,0.36171z" fill="#9fb2b2"/><path d="M275.74957,181.79044c-0.09728,-0.07214 -0.15529,-0.12574 -0.19253,-0.21317c0.04166,-0.06773 0.10219,-0.10032 0.20191,-0.11442c0.11856,0.02103 0.19547,0.10974 0.27238,0.19844c-0.04266,0.1022 -0.16222,0.11566 -0.28175,0.12911z" fill="#aec2c3"/><path d="M273.05291,187.86579c-0.15626,-0.09118 -0.15283,-0.21194 -0.16922,-0.33324c0.00151,-0.05172 0.06199,-0.08428 0.12155,-0.08241c0.03967,0.00125 0.09826,0.03761 0.09726,0.07209c0.05656,0.10531 0.01392,0.20754 -0.04959,0.34356z" fill="#91a2a3"/><path d="M272.42293,180.73607c-0.22671,0.2862 -0.247,0.30285 -0.49811,0.0533c0.15976,-0.02944 0.30113,-0.11129 0.49811,-0.0533z" fill="#869696"/><path d="M267.00934,185.27586c-0.17465,-0.1436 -0.11218,-0.24512 -0.08886,-0.36522c0.17611,0.09188 0.17611,0.09187 0.08886,0.36522z" fill="#555f5f"/><path d="M274.27672,187.43859c-0.00246,0.08622 -0.00593,0.20687 -0.06893,0.3257c-0.17417,-0.16082 -0.17216,-0.22977 -0.08937,-0.34795c0.02085,-0.03385 0.08038,-0.03198 0.15826,0.02227z" fill="#93a5a6"/><path d="M278.50637,184.70779c0.19253,0.21318 0.17172,0.24703 -0.14732,0.28868c-0.03623,-0.12197 0.04558,-0.20563 0.14732,-0.28868z" fill="#8b9b9c"/><path d="M266.60988,184.65928c0.05459,0.1743 0.03079,0.31155 0.00698,0.4489c-0.12054,0.04797 -0.17911,0.01157 -0.17712,-0.0574c0.00394,-0.13793 0.02775,-0.27523 0.1701,-0.39149z" fill="#9aacad"/><path d="M277.29557,182.59864c0.11656,0.08999 0.23419,0.14549 0.21041,0.28278c-0.00052,0.01726 -0.02083,0.03387 -0.04068,0.03324c-0.17764,-0.04015 -0.21437,-0.14486 -0.16971,-0.316z" fill="#5f6a6b"/><path d="M271.7272,187.68583c-0.05756,-0.07085 -0.0556,-0.13984 -0.03375,-0.20817c0.02085,-0.03385 0.06152,-0.06707 0.10071,-0.04857c0.03922,0.01849 0.07793,0.05424 0.07689,0.08873c-0.002,0.06894 -0.0238,0.13729 -0.14387,0.16801z" fill="#636e6f"/><path d="M275.053,181.14719c0.14041,-0.0473 0.23913,-0.02696 0.31456,0.11347c-0.16073,0.06393 -0.23864,0.00973 -0.31456,-0.11347z" fill="#4a5354"/></g><g data-paper-data="{&quot;index&quot;:null}" fill="#000000" fill-rule="nonzero" stroke="#000000" stroke-width="1.2" stroke-linecap="butt" stroke-linejoin="miter"><path d="M262.88853,222.1964c-1.27016,-1.37946 -0.9894,-4.67789 -1.7504,-6.81017c-0.8193,-2.2957 -2.56576,-3.2954 -2.14497,-4.87676c0.29394,-1.10455 1.80684,-1.8209 2.63932,-2.09671c2.02429,-0.67073 4.79344,1.94649 6.18504,5.84571c1.3916,3.89922 0.87872,7.6039 -1.14556,8.27461c-0.9173,0.30394 -2.73088,0.80642 -3.78342,-0.33666z"/><path d="M267.0349,222.7932c-1.75186,-1.93886 -2.72291,-7.76745 -2.72291,-7.76745c0,0 -2.36783,-3.1292 -2.39501,-3.21015c-1.73301,-5.15756 1.75225,-6.37579 5.73828,-7.6965c1.89708,-0.62858 5.06822,-0.88355 6.67776,0.37753c1.82542,1.43021 2.15583,4.165 3.17753,7.02782c1.9226,5.38708 1.15569,10.76156 -2.8929,12.10302c-1.78218,0.59049 -5.24295,1.75528 -7.58276,-0.83429z"/></g><g stroke-linejoin="miter"><g data-paper-data="{&quot;index&quot;:null}" stroke-linecap="butt"><path d="M262.49138,191.31851c-6.31492,11.74139 -22.23279,16.0097 -35.55359,9.53356c-13.32079,-6.47615 -19.00017,-21.24438 -12.68523,-32.98578c6.31492,-11.74139 22.23279,-16.0097 35.55359,-9.53356c13.32079,6.47615 19.00017,21.24438 12.68523,32.98578z" fill="none" fill-rule="nonzero" stroke="#000000" stroke-width="4.5"/><g><g fill-rule="nonzero"><path d="M231.46317,158.90634l0.00704,0.01234" data-paper-data="{&quot;index&quot;:null}" fill="#ffab19" stroke="#000000" stroke-width="5"/><g data-paper-data="{&quot;index&quot;:null}" fill="none" stroke="none" stroke-width="1" font-family="sans-serif" font-weight="normal" font-size="12" text-anchor="start"/></g><path d="M231.46317,158.90634l0.00704,0.01234" data-paper-data="{&quot;index&quot;:null}" fill="#ffab19" fill-rule="nonzero" stroke="#000000" stroke-width="5"/><path d="M237.52195,180.52581" fill="#001026" fill-rule="evenodd" stroke="#000000" stroke-width="5"/><g data-paper-data="{&quot;index&quot;:null}" fill="none" fill-rule="nonzero" stroke="none" stroke-width="1" font-family="sans-serif" font-weight="normal" font-size="12" text-anchor="start"/><g data-paper-data="{&quot;index&quot;:null}" fill="none" fill-rule="nonzero" stroke="none" stroke-width="1" font-family="sans-serif" font-weight="normal" font-size="12" text-anchor="start"/></g></g><path d="M257.27687,167.3951l-40.36953,1.46388l-6.86627,12.11652l-9.87074,-35.70054l46.3028,1.71988l17.56241,24.11218z" fill="#000000" fill-rule="nonzero" stroke="#191919" stroke-width="3" stroke-linecap="round"/></g><path d="M240.41046,191.84879c0,3.97323 -4.55133,7.19417 -10.16568,7.19417c-5.61435,0 -10.16568,-3.22094 -10.16568,-7.19417c0,-3.97323 4.55133,-7.19417 10.16568,-7.19417c5.61435,0 10.16568,3.22094 10.16568,7.19417z" fill="#ff0000" fill-rule="nonzero" stroke="#000000" stroke-width="3" stroke-linecap="butt" stroke-linejoin="miter"/><path d="M239.47209,174.25435c0,3.67092 -3.85113,6.64679 -8.60173,6.64679c-4.7506,0 -8.60173,-2.97587 -8.60173,-6.64679c0,-3.67092 3.85113,-6.64679 8.60173,-6.64679c4.7506,0 8.60173,2.97587 8.60173,6.64679z" fill="#ffffff" fill-rule="nonzero" stroke="#000000" stroke-width="3" stroke-linecap="butt" stroke-linejoin="miter"/><path d="M257.77031,176.99126c0,5.0961 -3.01088,9.22731 -6.72499,9.22731c-3.71411,0 -6.72499,-4.13121 -6.72499,-9.22731c0,-5.0961 3.01088,-9.22731 6.72499,-9.22731c3.71411,0 6.72499,4.13121 6.72499,9.22731z" fill="#ffffff" fill-rule="nonzero" stroke="#000000" stroke-width="3" stroke-linecap="butt" stroke-linejoin="miter"/></g></g></svg>