<svg version="1.1" xmlns="http://www.w3.org/2000/svg" xmlns:xlink="http://www.w3.org/1999/xlink" width="41.05282" height="44.08282" viewBox="0,0,41.05282,44.08282"><g transform="translate(-219.74745,-159.40148)"><g data-paper-data="{&quot;isPaintingLayer&quot;:true}" fill="#ff6666" fill-rule="nonzero" stroke="none" stroke-width="0" stroke-linecap="butt" stroke-linejoin="miter" stroke-miterlimit="10" stroke-dasharray="" stroke-dashoffset="0" style="mix-blend-mode: normal"><path d="M249.02466,167.69739c-1.88174,4.00889 -6.44689,7.88843 -6.44689,7.88843c0,0 0.33342,-5.82275 2.21516,-9.83163c1.88174,-4.00889 4.3545,-6.82372 5.52306,-6.28712c1.16856,0.5366 0.59041,4.22145 -1.29133,8.23033z"/><path d="M252.95075,189.15358c-3.80736,-1.73781 -7.16111,-5.5051 -7.16111,-5.5051c0,0 5.14739,-0.25128 8.95475,1.48653c3.80736,1.73781 6.49231,4.04617 5.99702,5.15587c-0.4953,1.1097 -3.9833,0.60051 -7.79066,-1.13731z"/><path d="M227.69531,171.25983c3.85053,1.77324 7.17689,6.00928 7.17689,6.00928c0,0 -5.15688,-0.17178 -9.0074,-1.94502c-3.85053,-1.77324 -6.56221,-4.12055 -6.05674,-5.24286c0.50549,-1.12232 4.03672,-0.59464 7.88725,1.1786z"/><path d="M230.25143,195.44862c1.71267,-3.91962 6.53746,-8.17706 6.53746,-8.17706c0,0 -0.68841,6.02366 -2.40108,9.94328c-1.71267,3.91962 -4.02701,6.70171 -5.16924,6.21398c-1.14223,-0.48773 -0.6798,-4.06058 1.03287,-7.9802z"/><path d="M236.40983,181.48117c0,0 -1.8202,1.62644 -2.68779,1.72255c-0.86759,0.09611 -1.62225,-0.28954 -1.6856,-0.86135c-0.06334,-0.57182 0.58863,-1.11328 1.45621,-1.20939c0.86759,-0.09611 2.91717,0.34819 2.91717,0.34819z"/><path d="M243.72332,179.87129c0,0 1.66608,-1.60738 2.55833,-1.87178c0.89225,-0.26439 1.75683,-0.002 1.93109,0.58608c0.17426,0.58807 -0.40779,1.27914 -1.30005,1.54353c-0.89225,0.26439 -3.18937,-0.25784 -3.18937,-0.25784z"/></g></g></svg>