<svg version="1.1" xmlns="http://www.w3.org/2000/svg" xmlns:xlink="http://www.w3.org/1999/xlink" width="83.72261" height="109.16702" viewBox="0,0,83.72261,109.16702"><defs><linearGradient x1="212.63544" y1="155.88691" x2="190.22204" y2="154.87206" gradientUnits="userSpaceOnUse" id="color-1"><stop offset="0" stop-color="#000000"/><stop offset="1" stop-color="#000000" stop-opacity="0"/></linearGradient><linearGradient x1="239.05906" y1="151.96374" x2="239.05906" y2="153.96374" gradientUnits="userSpaceOnUse" id="color-2"><stop offset="0" stop-color="#008cff"/><stop offset="1" stop-color="#008cff" stop-opacity="0"/></linearGradient><linearGradient x1="249.53045" y1="144.70407" x2="249.53045" y2="159.49944" gradientUnits="userSpaceOnUse" id="color-3"><stop offset="0" stop-color="#008cff"/><stop offset="1" stop-color="#008cff" stop-opacity="0"/></linearGradient><linearGradient x1="228.66757" y1="144.8511" x2="228.66757" y2="159.64647" gradientUnits="userSpaceOnUse" id="color-4"><stop offset="0" stop-color="#008cff"/><stop offset="1" stop-color="#008cff" stop-opacity="0"/></linearGradient></defs><g transform="translate(-191.14649,-124.53503)"><g data-paper-data="{&quot;isPaintingLayer&quot;:true}" fill-rule="nonzero" stroke-linejoin="miter" stroke-miterlimit="10" stroke-dasharray="" stroke-dashoffset="0" style="mix-blend-mode: normal"><path d="M239.7583,223.71923l-4.25773,-19.30903l9.33349,-4.26458l7.06999,20.04471c0,0 -4.4083,5.58048 -5.91783,5.92624c-1.44435,0.33083 -6.22791,-2.39736 -6.22791,-2.39736z" fill="#000000" stroke="#0f0f0f" stroke-width="1" stroke-linecap="butt"/><path d="M212.08399,217.82712l12.59922,-17.17748l9.45744,4.51059l-11.50914,19.64698c0,0 -7.10728,0.24775 -8.34739,-0.67981c-1.18656,-0.88751 -2.20015,-6.30027 -2.20015,-6.30027z" fill="#000000" stroke="#0f0f0f" stroke-width="1" stroke-linecap="butt"/><path d="M261.53765,154.13606c-0.60842,13.43725 -12.48536,23.81485 -26.5279,23.17902c-14.04253,-0.63583 -24.93303,-12.04431 -24.3246,-25.48156c0.60842,-13.43725 12.48536,-23.81485 26.5279,-23.17902c14.04253,0.63583 24.93303,12.04431 24.3246,25.48156z" fill="none" stroke="#000000" stroke-width="4.5" stroke-linecap="butt"/><path d="M229.18389,177.92578l-29.40699,-1.56546c0,0 -2.38655,-0.44775 -1.9994,-1.33264c0.88777,-2.02911 7.21856,-10.59651 7.21856,-10.59651l-11.49393,-4.4976c0,0 -2.0863,-0.99922 -2.35564,-2.11178c-0.25056,-1.03498 11.55441,-9.87113 11.55441,-9.87113c0,0 -8.09526,-3.97991 -10.24274,-6.06017c-0.84326,-0.81687 12.04462,-7.89151 20.87275,-11.22418c4.31986,-1.63077 10.22205,-4.11391 14.94085,-4.63128c7.82409,-0.85784 13.71237,1.7029 13.71237,1.7029" fill="none" stroke="#000000" stroke-width="3" stroke-linecap="round"/><path d="M197.90913,176.27574c0,0 -0.46612,-1.42642 0.84953,-3.30169c1.64789,-2.34882 7.12986,-5.35475 5.58452,-7.7886c-2.00183,-3.15281 -14.61925,-3.26621 -12.89402,-7.03904c1.41661,-3.09794 10.9246,-8.13703 11.01829,-10.20633c0.09349,-2.06473 -4.52655,-1.01532 -7.01898,-3.88206c-3.54477,-4.07711 -1.74818,-4.00135 -1.74818,-4.00135c0,0 12.04662,-6.93463 17.84736,-9.12132c5.44239,-2.0516 15.95062,-3.61939 15.95062,-3.61939c0,0 -15.54121,13.05738 -18.03472,21.00143c-2.76409,8.80611 13.93638,28.17674 13.93638,28.17674z" data-paper-data="{&quot;index&quot;:null}" fill="url(#color-1)" stroke="none" stroke-width="0" stroke-linecap="butt"/><path d="M234.58816,195.15537l0.98643,-15.86593" fill="none" stroke="#000000" stroke-width="6" stroke-linecap="round"/><path d="M204.23953,176.06188c0.22281,-0.2855 31.28248,4.83025 31.28248,4.83025c0,0 6.35362,5.27408 9.24559,6.61526c1.81613,0.84225 5.03497,-0.14324 5.03497,-0.14324" fill="none" stroke="#000000" stroke-width="6" stroke-linecap="round"/><path d="M217.61242,230.8674c-1.14659,0.70775 -5.19325,2.97136 -7.41544,1.99322c-2.08008,-0.91559 -2.37775,-4.99019 -2.42333,-6.79018c-0.07533,-2.97482 4.26815,-8.8386 4.59604,-9.4984c0.10681,-0.21495 -0.3339,2.66703 0.30487,4.64323c0.47567,1.47161 3.8306,3.27638 5.16679,3.34432c2.17484,0.11059 6.28253,-1.1064 6.04286,-0.62413c0,0 -3.42571,5.17515 -6.27179,6.93195z" fill="#000000" stroke="#001026" stroke-width="1.2" stroke-linecap="butt"/><path d="M245.68567,183.81326c0,0.25467 -1.49235,0.15139 -1.6382,0.90773c-0.16899,0.87627 -0.3786,2.52054 -0.06525,3.74764c0.31453,1.23173 1.15195,2.04464 0.93679,2.04464c-0.93888,0 -2.96667,-1.9182 -2.96667,-4.36667c0,-2.44846 -1.80555,-4.96667 -0.86667,-4.96667c0.16151,0 4.6,2.41951 4.6,2.63333z" fill="#000000" stroke="#0f0f0f" stroke-width="1" stroke-linecap="butt"/><g data-paper-data="{&quot;index&quot;:null}" fill="#000000" stroke="#000000" stroke-width="1.2" stroke-linecap="butt"><path d="M259.53621,194.57555c-1.39652,0.63085 -3.97454,-0.32259 -5.85733,-0.2396c-2.0271,0.08933 -3.22867,1.15938 -4.39897,0.48993c-0.81744,-0.46761 -1.04419,-1.75203 -1.07416,-2.43204c-0.07289,-1.65355 2.65915,-3.11704 6.10215,-3.26879c3.44301,-0.15176 6.29321,1.0657 6.36609,2.71924c0.03303,0.7493 0.01947,2.20849 -1.13776,2.73126z"/><path d="M261.18084,191.6022c-1.95519,0.8619 -6.84736,0.26575 -6.84736,0.26575c0,0 -3.05012,1.05006 -3.1212,1.05195c-4.52941,0.12082 -4.70571,-2.74047 -4.84921,-5.99647c-0.06831,-1.54964 0.455,-3.96023 1.83456,-4.86965c1.56458,-1.03139 3.83127,-0.65876 6.35913,-0.77017c4.75678,-0.20964 8.88642,1.5735 9.03218,4.8806c0.06416,1.45577 0.20327,4.28681 -2.40811,5.43798z"/></g><path d="M222.40164,204.75435c0,0 5.73416,-23.59762 7.6924,-25.17063c0.57497,-0.46186 10.92189,-0.0389 10.92189,-0.0389l5.51429,25.76667z" fill="#000000" stroke="#0f0f0f" stroke-width="1" stroke-linecap="butt"/><path d="M242.80475,229.32319c-1.87064,-0.70882 -3.0415,-4.00507 -3.39808,-5.62606c-0.0342,-0.15549 3.46341,0.04869 6.36553,-0.92742c0.76329,-0.25673 3.74659,-1.18774 4.74268,-2.28185c1.23694,-1.35867 0.45175,-2.88923 0.79764,-2.75689c0.12951,0.04956 9.96457,1.92543 10.65276,4.21814c0.11114,0.37027 -0.1478,1.62859 -0.94859,2.59573c-0.70003,0.84544 -1.9242,1.4261 -2.23018,1.55228c-5.09182,2.09993 -14.86171,3.65045 -15.98175,3.22606z" fill="#000000" stroke="#001026" stroke-width="1.2" stroke-linecap="butt"/><path d="M244.72263,194.73546l-0.15355,-6l23.8,-0.4v6.6" fill="none" stroke="#000000" stroke-width="1" stroke-linecap="round"/><path d="M239.9691,209.73546v-15.8h34.4v15.8z" fill="#62ffff" stroke="#000000" stroke-width="1" stroke-linecap="butt"/><path d="M252.3691,201.93546c0,2.76142 -2.28335,5 -5.1,5c-2.81665,0 -5.1,-2.23858 -5.1,-5c0,-2.76142 2.28335,-5 5.1,-5c2.81665,0 5.1,2.23858 5.1,5z" fill="#8e8888" stroke="#000000" stroke-width="1" stroke-linecap="butt"/><path d="M271.76905,201.93546c0,2.76142 -2.14903,5 -4.8,5c-2.65097,0 -4.8,-2.23858 -4.8,-5c0,-2.76142 2.14903,-5 4.8,-5c2.65097,0 4.8,2.23858 4.8,5z" fill="#8e8888" stroke="#000000" stroke-width="1" stroke-linecap="butt"/><path d="M261.36906,205.63546c0,0.71797 -1.79086,1.3 -4,1.3c-2.20914,0 -4,-0.58203 -4,-1.3c0,-0.71797 1.79086,-1.3 4,-1.3c2.20914,0 4,0.58203 4,1.3z" fill="#8e8888" stroke="#000000" stroke-width="1" stroke-linecap="butt"/><path d="M235.77576,145.06374c0,0 2.18612,-0.53038 3.28652,-0.54641c1.18255,-0.01722 3.58008,0.44641 3.58008,0.44641" fill="url(#color-2)" stroke="#705021" stroke-width="2" stroke-linecap="round"/><g stroke="#705021" stroke-width="2" stroke-linecap="butt"><path d="M256.08642,159.21162c-0.20756,0.14491 -12.97424,0.41086 -13.18263,0.22303c-0.46577,-0.41981 -0.88115,-14.14301 -0.57274,-14.53949c0.2116,-0.27203 14.13966,-0.2143 14.31565,-0.06945c0.4431,0.36469 0.04793,13.96129 -0.56028,14.38591z" fill="url(#color-3)"/><path d="M221.55127,144.97273c0.176,-0.14485 14.10405,-0.20257 14.31565,0.06946c0.3084,0.39648 -0.10698,14.11968 -0.57274,14.53949c-0.20839,0.18783 -12.97506,-0.07812 -13.18263,-0.22303c-0.60822,-0.42462 -1.00338,-14.02123 -0.56028,-14.38592z" data-paper-data="{&quot;index&quot;:null}" fill="url(#color-4)"/></g><path d="M220.82255,181.85252c0,0 2.50682,-0.12935 2.17991,-1.19376c-0.03627,-0.11808 -1.35593,-3.9176 -1.35593,-3.9176l5.73073,2.60024c0,0 2.32766,-0.31819 2.76347,0.08887c0.39232,0.36644 -0.26535,2.24447 -0.26535,2.24447c0,0 -1.08558,3.4342 -2.15775,4.43309c-1.03872,0.96773 -6.89507,-4.2553 -6.89507,-4.2553z" fill="#000000" stroke="#0f0f0f" stroke-width="1" stroke-linecap="butt"/><path d="M217.81151,217.03388c-0.40179,0.92223 -1.3725,1.38882 -2.16815,1.04218c-0.79565,-0.34664 -1.11493,-1.37526 -0.71313,-2.29749c0.40179,-0.92223 1.3725,-1.38882 2.16815,-1.04218c0.79565,0.34664 1.11493,1.37526 0.71313,2.29749z" fill="#ff0000" stroke="#0f0f0f" stroke-width="0" stroke-linecap="butt"/><path d="M223.9722,213.51605c-0.40179,0.92222 -1.3725,1.38882 -2.16815,1.04218c-0.79564,-0.34664 -1.11493,-1.37526 -0.71313,-2.29749c0.40179,-0.92222 1.3725,-1.38882 2.16815,-1.04218c0.79564,0.34664 1.11493,1.37526 0.71313,2.29749z" fill="#ff0000" stroke="#0f0f0f" stroke-width="0" stroke-linecap="butt"/><path d="M225.36648,206.84641c-0.40179,0.92222 -1.3725,1.38882 -2.16815,1.04218c-0.79564,-0.34664 -1.11493,-1.37526 -0.71313,-2.29749c0.40179,-0.92222 1.3725,-1.38882 2.16815,-1.04218c0.79564,0.34664 1.11493,1.37526 0.71313,2.29749z" fill="#ff0000" stroke="#0f0f0f" stroke-width="0" stroke-linecap="butt"/><path d="M224.03244,219.74419c-0.40179,0.92222 -1.3725,1.38882 -2.16815,1.04218c-0.79564,-0.34664 -1.11493,-1.37526 -0.71313,-2.29749c0.40179,-0.92222 1.3725,-1.38882 2.16815,-1.04218c0.79564,0.34664 1.11493,1.37526 0.71313,2.29749z" fill="#ff0000" stroke="#0f0f0f" stroke-width="0" stroke-linecap="butt"/><path d="M230.20575,210.04554c-0.40179,0.92222 -1.3725,1.38882 -2.16815,1.04218c-0.79564,-0.34664 -1.11493,-1.37526 -0.71313,-2.29749c0.40179,-0.92222 1.3725,-1.38882 2.16815,-1.04218c0.79564,0.34664 1.11493,1.37526 0.71313,2.29749z" fill="#ff0000" stroke="#0f0f0f" stroke-width="0" stroke-linecap="butt"/><path d="M243.41049,214.29035c0.27166,0.95627 -0.24027,1.93948 -1.14342,2.19604c-0.90314,0.25656 -1.85552,-0.31067 -2.12717,-1.26694c-0.27166,-0.95627 0.24027,-1.93948 1.14342,-2.19604c0.90314,-0.25656 1.85552,0.31067 2.12717,1.26694z" fill="#ff0000" stroke="none" stroke-width="0" stroke-linecap="butt"/><path d="M246.94619,210.63504c0.24902,0.87659 -0.28126,1.79519 -1.18441,2.05175c-0.90314,0.25656 -1.83717,-0.24606 -2.08618,-1.12265c-0.24902,-0.87659 0.28126,-1.79519 1.18441,-2.05175c0.90314,-0.25656 1.83717,0.24606 2.08618,1.12265z" fill="#ff0000" stroke="none" stroke-width="0" stroke-linecap="butt"/><path d="M245.50482,219.10115c0.24147,0.85003 -0.27339,1.74097 -1.14997,1.98999c-0.87659,0.24902 -1.78295,-0.23819 -2.02442,-1.08821c-0.24147,-0.85003 0.27339,-1.74097 1.14997,-1.98999c0.87659,-0.24902 1.78295,0.23819 2.02442,1.08821z" fill="#ff0000" stroke="none" stroke-width="0" stroke-linecap="butt"/><path d="M240.825,208.57098c0,0.71797 -0.55964,1.3 -1.25,1.3c-0.69036,0 -1.25,-0.58203 -1.25,-1.3c0,-0.71797 0.55964,-1.3 1.25,-1.3c0.69036,0 1.25,0.58203 1.25,1.3z" fill="#ff0000" stroke="none" stroke-width="0" stroke-linecap="butt"/><g fill="#000000" stroke="none" stroke-width="1" stroke-linecap="butt" font-family="&quot;Helvetica Neue&quot;, Helvetica, Arial, sans-serif" font-weight="400" font-size="16" text-anchor="start"/><path d="M229.03332,167.23956c0,0 -6.42581,-0.21161 -8.06304,-0.95226c-1.3381,-0.60533 -1.04523,-3.16815 -1.04523,-3.16815" fill="none" stroke="#000000" stroke-width="1.5" stroke-linecap="round"/><path d="M225.97056,147.1047l6.92292,5.81526l-5.81526,3.87684" fill="none" stroke="#000000" stroke-width="2.5" stroke-linecap="round"/><path d="M251.44692,155.96604l-6.09217,-3.323l7.19984,-6.36909" fill="none" stroke="#000000" stroke-width="2.5" stroke-linecap="round"/></g></g></svg>