<svg version="1.1" xmlns="http://www.w3.org/2000/svg" xmlns:xlink="http://www.w3.org/1999/xlink" width="73.31241" height="131.93323" viewBox="0,0,73.31241,131.93323"><defs><linearGradient x1="231.56714" y1="217.9118" x2="252.40764" y2="217.9118" gradientUnits="userSpaceOnUse" id="color-1"><stop offset="0" stop-color="#bebebe"/><stop offset="1" stop-color="#737373"/></linearGradient><linearGradient x1="231.56714" y1="217.9118" x2="252.40764" y2="217.9118" gradientUnits="userSpaceOnUse" id="color-2"><stop offset="0" stop-color="#bebebe"/><stop offset="1" stop-color="#737373"/></linearGradient><linearGradient x1="230.67841" y1="215.54711" x2="249.50727" y2="215.54711" gradientUnits="userSpaceOnUse" id="color-3"><stop offset="0" stop-color="#ffd166"/><stop offset="1" stop-color="#ac880b"/></linearGradient><linearGradient x1="223.29438" y1="200.2531" x2="244.18663" y2="200.2531" gradientUnits="userSpaceOnUse" id="color-4"><stop offset="0" stop-color="#ffd166"/><stop offset="1" stop-color="#ac880b"/></linearGradient><linearGradient x1="215.14385" y1="219.11535" x2="234.73735" y2="219.11535" gradientUnits="userSpaceOnUse" id="color-5"><stop offset="0" stop-color="#ffd166"/><stop offset="1" stop-color="#ac880b"/></linearGradient><linearGradient x1="215.75329" y1="235.9723" x2="232.65834" y2="235.9723" gradientUnits="userSpaceOnUse" id="color-6"><stop offset="0" stop-color="#bebebe"/><stop offset="1" stop-color="#737373"/></linearGradient><linearGradient x1="215.75329" y1="235.9723" x2="232.65834" y2="235.9723" gradientUnits="userSpaceOnUse" id="color-7"><stop offset="0" stop-color="#bebebe"/><stop offset="1" stop-color="#737373"/></linearGradient><linearGradient x1="219.4127" y1="186.93585" x2="236.80948" y2="186.10612" gradientUnits="userSpaceOnUse" id="color-8"><stop offset="0" stop-color="#bebebe"/><stop offset="1" stop-color="#737373"/></linearGradient><linearGradient x1="217.05658" y1="190.70035" x2="247.49209" y2="189.24873" gradientUnits="userSpaceOnUse" id="color-9"><stop offset="0" stop-color="#bebebe"/><stop offset="1" stop-color="#737373"/></linearGradient><linearGradient x1="219.73378" y1="188.11738" x2="231.66421" y2="194.16336" gradientUnits="userSpaceOnUse" id="color-10"><stop offset="0" stop-color="#bb951b"/><stop offset="1" stop-color="#d6ad39"/></linearGradient><linearGradient x1="223.86671" y1="178.75246" x2="235.06534" y2="184.4276" gradientUnits="userSpaceOnUse" id="color-11"><stop offset="0" stop-color="#bebebe"/><stop offset="1" stop-color="#737373"/></linearGradient><linearGradient x1="224.28637" y1="185.40258" x2="229.63154" y2="188.11135" gradientUnits="userSpaceOnUse" id="color-12"><stop offset="0" stop-color="#bb951b"/><stop offset="1" stop-color="#d6ad39"/></linearGradient><linearGradient x1="224.19944" y1="186.67198" x2="228.77109" y2="188.98874" gradientUnits="userSpaceOnUse" id="color-13"><stop offset="0" stop-color="#bb951b"/><stop offset="1" stop-color="#d6ad39"/></linearGradient><linearGradient x1="223.89922" y1="184.63698" x2="224.82648" y2="185.10688" gradientUnits="userSpaceOnUse" id="color-14"><stop offset="0" stop-color="#bb951b"/><stop offset="1" stop-color="#d6ad39"/></linearGradient><linearGradient x1="223.5924" y1="184.15025" x2="224.4987" y2="184.60953" gradientUnits="userSpaceOnUse" id="color-15"><stop offset="0" stop-color="#bb951b"/><stop offset="1" stop-color="#d6ad39"/></linearGradient></defs><g transform="translate(-206.74571,-112.10106)"><g data-paper-data="{&quot;isPaintingLayer&quot;:true}" stroke-miterlimit="10" stroke-dasharray="" stroke-dashoffset="0" style="mix-blend-mode: normal"><g stroke-width="1.2"><g><path d="M242.04045,194.78673l4.40416,33.21705c0,0 7.20218,1.89612 5.77612,10.1607c-0.08131,0.47115 -0.53524,2.77385 -3.64329,2.86947c-2.97687,0.09158 -8.56822,-1.9964 -10.60909,-2.77348c-0.94789,-0.36093 -2.31822,-1.39799 -3.07266,-2.86423c-0.75958,-1.4763 -0.37301,-3.33344 -0.21291,-4.3893c0.06521,-0.43007 -3.11564,-34.4771 -3.11564,-34.4771" fill="url(#color-1)" fill-rule="evenodd" stroke="url(#color-2)" stroke-linecap="round" stroke-linejoin="round"/><path d="M242.77872,194.06348c0.57331,3.23096 3.65482,21.21716 3.65482,21.21716c0,0 1.79572,5.9497 1.85713,7.55635c0.07071,1.85039 0.2749,3.19046 0.2749,3.19046l-0.8403,-1.59614c0,0 0.54573,1.1046 0.73555,1.7373c0.59133,1.97097 1.04645,3.46028 1.04645,3.46028c0,0 -7.25618,-1.96371 -10.51449,0.13334c-3.2583,2.09706 -2.59612,7.36489 -2.59612,7.36489c0,0 -5.29314,-2.00437 -5.21499,-5.49161c0.01925,-0.85969 1.23934,-3.19201 1.23934,-3.19201c0,0 -0.6429,0.02037 -0.57534,-0.56435c0.01605,-0.13893 -1.27274,-30.10237 -1.16031,-30.75395c0,0 11.96144,-3.8054 12.09337,-3.06177z" fill="url(#color-3)" fill-rule="nonzero" stroke="#caa551" stroke-linecap="butt" stroke-linejoin="miter"/></g><g fill-rule="evenodd" stroke-linecap="round" stroke-linejoin="round"><g fill="#ffab19" stroke="#001026" font-family="&quot;Helvetica Neue&quot;, Helvetica, Arial, sans-serif" font-weight="400" font-size="16" text-anchor="start"/><path d="M229.37077,204.50319c-1.65751,-0.32316 -3.61409,-1.03503 -4.54557,-2.13453c-1.20166,-1.41841 -1.16917,-3.37764 -1.53082,-4.88799c6.80996,1.4176 14.92879,0.22445 20.89225,-2.43031c-0.1538,1.03952 0.23084,5.67276 -2.20942,7.31258c-1.62371,1.09112 -6.66132,2.75302 -7.94552,2.9904c-2.49235,0.46073 -4.28572,-0.77703 -4.66091,-0.85016z" fill="url(#color-4)" stroke="#caa551"/></g><g><g fill-rule="evenodd" stroke-linecap="round" stroke-linejoin="round"><path d="M233.29125,202.19373c0,0 -3.2723,34.52993 -3.86943,34.6439c-1.71359,0.32706 -11.10426,-2.60164 -11.10426,-2.60164l6.03629,-34.71663" data-paper-data="{&quot;index&quot;:null}" fill="#ffab19" stroke="#001026"/><path d="M234.73735,201.63707c0,0 -0.76441,7.3018 -0.99019,11.17336c-0.21655,3.71341 -0.33797,11.60145 -0.33797,11.60145c0,0 0.91795,5.73165 0.0205,7.14507c-0.41568,0.65465 -0.74321,-3.23598 -0.74321,-3.23598c0,0 0.36566,4.3861 0.40166,4.77271c0.2512,2.69735 -0.89522,6.23954 -3.89934,6.57605c-3.29833,0.36948 -8.76649,0.78677 -11.58536,-1.34726c-1.19939,-0.908 -2.82402,-3.58085 -2.38675,-6.42814c0.49311,-3.21102 3.14122,-6.57491 3.14122,-6.57491l-2.4333,3.66683c0,0 -0.02536,-1.83092 0.37057,-3.17398c0.44462,-1.50826 2.16811,-5.4376 2.16811,-5.4376l5.22466,-22.11374" data-paper-data="{&quot;index&quot;:null}" fill="url(#color-5)" stroke="#caa551"/></g><path d="M232.65202,236.84683c-0.08934,2.11928 -0.81816,4.58157 -2.40007,5.86018c-1.58777,1.28333 -11.13035,0.77475 -12.60558,-0.79367c-1.40098,-1.48947 -1.97166,-4.2424 -1.88446,-6.3108c0.17901,-4.24642 4.10511,-7.41029 8.76921,-7.0667c4.66406,0.34359 8.29992,4.06454 8.12089,8.31099z" fill="url(#color-6)" fill-rule="nonzero" stroke="url(#color-7)" stroke-linecap="butt" stroke-linejoin="miter"/></g><g fill="#004fd9" fill-rule="nonzero" stroke="#001026" stroke-linecap="butt" stroke-linejoin="miter" font-family="&quot;Helvetica Neue&quot;, Helvetica, Arial, sans-serif" font-weight="400" font-size="16" text-anchor="start"/></g><path d="M218.59236,199.85179c1.20057,-1.63434 17.31786,-16.68701 17.31786,-16.68701c0,0 11.43915,1.27737 15.83833,2.09553c1.58997,0.2957 5.47464,0.54663 8.32672,1.92624c3.29144,1.59214 5.47213,4.31725 5.47213,4.31725" fill="none" fill-rule="nonzero" stroke="#000000" stroke-width="6" stroke-linecap="round" stroke-linejoin="miter"/><path d="M216.91473,170.31166l7.93357,-0.45422l-1.21408,0.96778" fill="none" fill-rule="nonzero" stroke="#000000" stroke-width="1" stroke-linecap="round" stroke-linejoin="miter"/><path d="M236.7696,185.26993c0.11739,2.4613 -2.89501,4.6048 -6.72841,4.78763c-2.04219,0.0974 -5.61253,1.95286 -7.91513,0.85144c-2.0196,-0.96606 -2.93335,-4.8478 -2.75101,-5.52063c0.56882,-2.09876 7.30679,-3.33976 9.58033,-3.4482c3.83339,-0.18283 7.69683,0.86846 7.81423,3.32975z" fill="url(#color-8)" fill-rule="nonzero" stroke="#737373" stroke-width="1" stroke-linecap="butt" stroke-linejoin="miter"/><path d="M225.70921,196.95238c0,0 3.24906,-6.066 2.71842,-7.85371c-0.12979,-0.43725 -2.72861,7.08882 -3.22939,6.68921c-2.38805,-1.90565 -8.05604,-3.29237 -8.05604,-3.29237c0,0 12.11097,-7.04826 15.72956,-10.00709c0.99913,-0.81697 5.7431,-0.49835 6.02075,-0.74647c0.3586,-0.32046 17.79448,0.06021 17.79448,0.06021c0,0 -3.72101,3.86284 -3.61303,7.00552c0.00076,0.02233 -10.49862,-0.7794 -10.48659,-0.42932c0.07206,2.09734 1.19887,7.71104 1.19887,7.71104c0,0 -5.38805,1.43651 -8.09549,1.61277c-2.98467,0.1943 -9.98158,-0.74977 -9.98158,-0.74977z" fill="url(#color-9)" fill-rule="nonzero" stroke="#737373" stroke-width="2.5" stroke-linecap="butt" stroke-linejoin="miter"/><g stroke-linejoin="miter"><g data-paper-data="{&quot;index&quot;:null}" stroke-linecap="butt"><path d="M266.93416,164.59172c-3.38578,12.84906 -17.42595,20.54298 -31.35963,17.18488c-13.93365,-3.35811 -22.48438,-16.49661 -19.09859,-29.34568c3.38578,-12.84906 17.42595,-20.54298 31.35963,-17.18488c13.93365,3.35811 22.48439,16.49661 19.09859,29.34568z" fill="none" fill-rule="nonzero" stroke="#000000" stroke-width="4.5"/><g><g fill-rule="nonzero"><path d="M230.71188,139.87584l0.0093,0.01047" data-paper-data="{&quot;index&quot;:null}" fill="#ffab19" stroke="#000000" stroke-width="5"/><g data-paper-data="{&quot;index&quot;:null}" fill="none" stroke="none" stroke-width="1" font-family="sans-serif" font-weight="normal" font-size="12" text-anchor="start"/></g><path d="M230.71188,139.87584l0.0093,0.01047" data-paper-data="{&quot;index&quot;:null}" fill="#ffab19" fill-rule="nonzero" stroke="#000000" stroke-width="5"/><path d="M241.10867,159.61001" fill="#001026" fill-rule="evenodd" stroke="#000000" stroke-width="5"/><g data-paper-data="{&quot;index&quot;:null}" fill="none" fill-rule="nonzero" stroke="none" stroke-width="1" font-family="sans-serif" font-weight="normal" font-size="12" text-anchor="start"/><g data-paper-data="{&quot;index&quot;:null}" fill="none" fill-rule="nonzero" stroke="none" stroke-width="1" font-family="sans-serif" font-weight="normal" font-size="12" text-anchor="start"/></g></g><path d="M241.62609,171.18912c-0.41366,1.93211 -9.03227,5.5979 -13.1119,4.80184c-4.07962,-0.79605 -5.73624,-6.39599 -5.32258,-8.3281c0.0535,-0.24992 18.48439,3.29314 18.43447,3.52624z" fill="#ff0000" fill-rule="nonzero" stroke="#000000" stroke-width="3" stroke-linecap="butt"/><path d="M256.83044,142.42388l-37.64233,10.38577l-3.8227,13.33716l-6.85777,-34.51201c0,0 56.1982,-11.49854 64.84101,-13.41887c2.16966,-0.48207 3.83747,-1.84066 3.83747,-1.84066c0,0 -1.66497,5.45834 -3.05652,8.42927c-2.41405,5.15397 -10.13693,19.73857 -10.13693,19.73857z" fill="#000000" fill-rule="nonzero" stroke="#191919" stroke-width="3" stroke-linecap="round"/><path d="M223.33696,148.25815l22.04547,8.95164l-1.29137,6.03172" fill="none" fill-rule="nonzero" stroke="#000000" stroke-width="5" stroke-linecap="round"/><path d="M251.05456,164.22326l1.41658,-6.00729l17.39253,-13.61411" fill="none" fill-rule="nonzero" stroke="#000000" stroke-width="5" stroke-linecap="round"/></g><g fill-rule="nonzero" stroke-linecap="butt" stroke-linejoin="miter"><g data-paper-data="{&quot;index&quot;:null}" stroke="none" stroke-width="1"><path d="M223.33149,184.65679c-0.14506,-0.16742 -0.11687,-0.31489 -0.05413,-0.47938c0.11937,-0.24958 0.28598,-0.46512 0.42116,-0.7033c-0.01899,-0.07659 -0.03795,-0.15318 -0.06637,-0.21557c-0.54327,-1.35604 -0.47555,-2.64944 -0.18422,-3.92858c0.06266,-0.26943 0.10958,-0.55028 0.26044,-0.77711c0.02832,-0.04253 0.05027,-0.11061 0.03758,-0.16169c-0.06962,-0.28084 0.05296,-0.46519 0.16924,-0.67506c0.09739,-0.18151 0.22631,-0.34032 0.33948,-0.51046c0.06601,-0.09925 0.16353,-0.1758 0.30527,-0.17862c0.1417,-0.00277 0.26444,-0.08216 0.37769,-0.14738c0.60093,-0.44795 1.28387,-0.77394 2.03308,-0.98929c0.42499,-0.11332 0.85951,-0.13589 1.30981,-0.14708c1.32571,-0.03078 2.60466,0.32417 3.83672,0.95992c0.55143,0.29235 1.07147,0.66692 1.55379,1.09819c0.36567,0.32631 0.63383,0.72919 0.8768,1.13488c0.77309,1.29089 1.05814,2.64962 0.97475,4.03663c-0.0123,0.26379 -0.09068,0.52187 -0.16909,0.77998c-0.04701,0.17584 -0.06885,0.34888 0.03214,0.54746c0.09465,0.17306 0.07284,0.34606 0.01007,0.51055c-0.11937,0.24958 -0.27025,0.47644 -0.42116,0.7033c-0.04716,0.07091 -0.1164,0.10493 -0.18566,0.13893c-0.27384,0.09636 -0.46258,0.275 -0.62921,0.49054c-0.33638,0.47077 -0.81149,0.79962 -1.27086,1.13984c-0.17623,0.12475 -0.36813,0.23816 -0.58218,0.3147c-0.68616,0.26075 -1.36925,0.48178 -2.13758,0.51558c-0.14144,0.21267 -0.30811,0.4282 -0.45895,0.6551c-0.05659,0.08508 -0.1226,0.18433 -0.25486,0.17292c-0.1165,-0.00004 -0.15737,0.0964 -0.21391,0.18147c-0.39294,0.55582 -0.77015,1.123 -1.16311,1.67882c-0.85507,1.25061 -1.7195,2.51543 -2.60605,3.74334c-0.86772,1.19956 -1.6881,2.4332 -2.5243,3.65543c-0.13201,0.19851 -0.28615,0.36013 -0.41813,0.55864c-0.64124,0.96421 -1.28251,1.9284 -1.9395,2.88127c-0.11315,0.17015 -0.19482,0.363 -0.3931,0.45084c-0.06925,0.03404 -0.10063,0.11625 -0.14779,0.18714c-0.47149,0.70901 -0.96821,1.4208 -1.43971,2.12978c-0.01886,0.02835 -0.04716,0.07088 -0.06601,0.09925c-0.1351,0.23825 -0.32088,0.27221 -0.60751,0.21255c-0.95757,-0.20735 -1.78631,-0.67846 -2.48631,-1.4133c-0.17657,-0.19011 -0.33428,-0.40855 -0.45739,-0.64402c-0.09466,-0.17306 -0.08225,-0.33189 -0.00374,-0.48502c0.23564,-0.45944 0.45549,-0.93022 0.70057,-1.40384c0.17596,-0.33467 0.39285,-0.6608 0.5215,-1.02949c0.2793,-0.80547 0.75714,-1.48893 1.08367,-2.26033c0.19155,-0.42824 0.34221,-0.86505 0.54953,-1.28196c0.22618,-0.44525 0.41146,-0.89903 0.61242,-1.34146c0.37063,-0.80261 0.78223,-1.59671 1.13707,-2.41066c0.44271,-1.08619 0.94846,-2.1271 1.4542,-3.16791c0.16964,-0.3602 0.3392,-0.72034 0.50884,-1.08054c0.27644,-0.55589 0.56233,-1.1259 0.83877,-1.68173c0.15708,-0.30631 0.27323,-0.62111 0.43029,-0.92741c0.15078,-0.33187 0.32991,-0.60122 0.50588,-0.93589zM223.85747,184.74204c0.13252,0.22129 0.28389,0.41424 0.4793,0.57598c0.32487,0.42273 0.73149,0.75757 1.13813,1.09239c0.50752,0.42847 1.0685,0.81157 1.61375,1.18331c0.62402,0.4285 1.29508,0.68116 1.99135,0.93101c0.0819,0.01704 0.16379,0.03409 0.28662,0.05965c0.07545,-0.11341 0.15085,-0.22689 0.22628,-0.34031c0.01886,-0.02835 0.02196,-0.06806 0.03449,-0.12195c-0.11029,-0.07947 -0.23005,-0.14473 -0.35923,-0.19584c-0.21739,-0.09365 -0.40016,-0.20437 -0.61754,-0.29804c-0.52934,-0.25545 -0.98963,-0.64985 -1.49068,-0.94783c-0.26158,-0.16742 -0.54198,-0.30652 -0.78469,-0.5023c-0.52331,-0.43982 -1.0937,-0.80874 -1.57922,-1.30526c-0.12297,-0.13054 -0.26171,-0.27235 -0.38468,-0.40292c-0.00644,-0.13049 -0.1514,-0.19293 -0.21134,-0.27806c-0.06626,-0.11065 -0.13254,-0.22131 -0.3153,-0.33195c-0.0123,0.26379 -0.18215,0.41408 -0.23229,0.62962c0.06937,0.07095 0.07584,0.20141 0.20501,0.25251zM224.16713,185.67812c-0.27757,-0.38871 -0.3627,-0.47096 -0.58643,-0.59018c-0.09739,0.18151 -0.18537,0.34885 -0.28279,0.53034c-0.06601,0.09925 -0.05017,0.21554 0.01614,0.32622c0.04421,0.0738 0.12295,0.13051 0.16714,0.20427c0.17037,0.26955 0.41001,0.50503 0.67155,0.67245c0.06319,0.15034 0.1892,0.24117 0.3153,0.33199c0.6997,0.52495 1.37427,1.05274 2.12114,1.50684c0.33405,0.19867 0.67752,0.38317 1.01464,0.54209c0.27413,0.11356 0.56398,0.23844 0.86626,0.2045c0.1226,-0.18435 0.24513,-0.36868 0.36776,-0.55302c-0.14491,-0.06246 -0.27412,-0.11357 -0.38748,-0.1533c-0.51667,-0.20441 -1.01452,-0.43713 -1.47463,-0.72661c-0.5956,-0.3661 -1.14406,-0.8031 -1.70197,-1.2259c-0.26793,-0.19297 -0.46349,-0.45964 -0.7408,-0.63843c-0.07584,-0.20141 -0.22397,-0.32911 -0.36579,-0.43126zM215.62559,202.86741c0.16404,0.24398 0.37522,0.41709 0.60525,0.5618c0.00632,0.02551 0.02843,0.06242 0.04421,0.07379c0.38763,0.25825 0.79415,0.48813 1.22571,0.61023c0.25206,0.07669 0.4946,0.16752 0.7559,0.12503c0.5281,-0.79406 1.05613,-1.58811 1.61258,-2.4247c-0.48193,-0.11646 -0.90736,-0.31796 -1.32324,-0.53367c-0.36867,-0.18165 -0.65555,-0.45121 -1.00535,-0.66122c-0.12607,-0.0908 -0.22697,-0.18442 -0.35304,-0.27523c-0.14193,-0.2071 -0.31852,-0.39721 -0.54545,-0.58164c-0.2829,0.4254 -0.42087,0.91323 -0.6534,1.33297c-0.22619,0.44526 -0.43665,0.90189 -0.65338,1.33295c0.07582,0.2014 0.18301,0.3206 0.29025,0.43975zM217.12704,199.73358c0.06321,0.15033 0.17981,0.25535 0.30587,0.34612c0.08835,0.14755 0.23963,0.23554 0.37201,0.35186c0.43184,0.33199 0.91082,0.59312 1.39287,0.8145c0.28985,0.12488 0.59859,0.2214 0.91349,0.23851c0.03772,-0.05671 0.09119,-0.10208 0.1289,-0.15882c0.46212,-0.6948 0.91473,-1.37538 1.39256,-2.05884c0.50611,-0.72598 1.00279,-1.43779 1.50893,-2.16376c0.73243,-1.06631 1.47125,-2.10702 2.20366,-3.17335c0.83309,-1.18255 1.60944,-2.38499 2.47405,-3.54483c0.14779,-0.18714 0.27344,-0.41121 0.41493,-0.6239c-0.21105,-0.06812 -0.42521,-0.09655 -0.61742,-0.19306c-0.63643,-0.26967 -1.23203,-0.63577 -1.8088,-1.0302c-0.50427,-0.36321 -0.99913,-0.74064 -1.49399,-1.11806c-0.18601,-0.17594 -0.36568,-0.32631 -0.55169,-0.50224c-0.06947,-0.17587 -0.23018,-0.24968 -0.3374,-0.36886c-0.12297,-0.13054 -0.21131,-0.27804 -0.37834,-0.37737c-0.12582,0.1191 -0.16976,0.25525 -0.21999,0.36584c-0.38303,0.96148 -0.90158,1.84629 -1.33186,2.77368c-0.27955,0.59559 -0.55913,1.19116 -0.82286,1.79809c-0.37063,0.80261 -0.71606,1.60237 -1.07723,2.3908c-0.29206,0.64947 -0.58416,1.29893 -0.892,1.93704c-0.3204,0.692 -0.6471,1.35845 -0.98322,2.03913c-0.2984,0.62392 -0.60622,1.26206 -0.8983,1.91152c0.13238,0.11632 0.17037,0.26951 0.30586,0.34614zM235.02677,184.52418c-0.43154,-0.1221 -0.80024,-0.30377 -1.17831,-0.47121c-0.39386,-0.17882 -0.78138,-0.33208 -1.16577,-0.5251c-0.36867,-0.18167 -0.73425,-0.40305 -1.09344,-0.5989c-0.37501,-0.20721 -0.74998,-0.41436 -1.13129,-0.64705c-0.34977,-0.21002 -0.70591,-0.44558 -1.05571,-0.65559c-0.35612,-0.23554 -0.67453,-0.52779 -1.06838,-0.70662c-0.27433,-0.32341 -0.65876,-0.51644 -0.9803,-0.76898c-0.3278,-0.27807 -0.69032,-0.53915 -1.01814,-0.81723c-0.31204,-0.26672 -0.63045,-0.559 -0.9331,-0.83989c-0.31841,-0.29228 -0.58331,-0.62992 -0.93,-0.87958c-0.25785,0.31761 -0.32384,0.41685 -0.36752,0.7629c0.14193,0.2071 0.28391,0.41424 0.47623,0.61565c0.23962,0.23551 0.4792,0.47101 0.72516,0.73206c0.46978,0.48521 0.93327,0.94483 1.48483,1.34213c0.37822,0.27243 0.76588,0.53066 1.10636,0.85983c0.06937,0.07095 0.16392,0.13903 0.2773,0.17877c0.2174,0.09364 0.41283,0.25544 0.60195,0.39161c0.69339,0.49945 1.44336,0.9138 2.18703,1.30262c0.97373,0.53358 1.98192,0.94518 3.01839,1.3142c0.20162,0.0823 0.40327,0.16464 0.61418,0.1278c0.173,-0.18998 0.29868,-0.41405 0.43058,-0.71748zM229.78237,178.25113c-0.24865,0.09353 -0.43431,0.23246 -0.63568,0.36004c-0.18253,0.09919 -0.31144,0.25803 -0.36158,0.47359c-0.12235,0.39423 -0.30137,0.76861 -0.54349,1.09754c-0.01886,0.02835 -0.03143,0.08223 -0.04084,0.09642c0.05051,0.09927 0.11355,0.14465 0.22065,0.15891c0.02518,-0.0028 0.05979,-0.01983 0.06925,-0.03403c0.32077,-0.37717 0.67302,-0.73158 1.05681,-1.06334c0.05349,-0.04536 0.12581,-0.11909 0.13201,-0.19852c0.08787,-0.27229 0.17569,-0.54455 0.10284,-0.89065zM227.41289,179.71114c0.30187,-0.34879 0.62586,-0.66069 0.95618,-0.94706c0.10692,-0.09074 0.15722,-0.20133 0.18535,-0.34884c0.03435,-0.22689 0.01836,-0.44816 0.01179,-0.68361c0.00619,-0.07943 0.02184,-0.173 -0.09158,-0.21277c-0.23912,0.18431 -0.48455,0.34309 -0.69214,0.55005c-0.12815,0.78852 -0.12816,0.78849 -0.56504,1.48044c0.01897,0.0766 0.0726,0.13618 0.19544,0.16173zM230.35596,183.90719c-0.2328,0.20983 -0.44982,0.43103 -0.66684,0.6522c-0.0535,0.04537 -0.10694,0.09074 -0.1289,0.15879c-0.04058,0.30629 -0.09687,0.60133 -0.03039,0.92187c0.30228,-0.03394 0.491,-0.21259 0.71759,-0.34301c0.11326,-0.06518 0.15409,-0.16164 0.17282,-0.29495c0.02482,-0.31766 0.08114,-0.61267 0.16267,-0.91041c0.00945,-0.01418 -0.01262,-0.05105 -0.02529,-0.10209c-0.0567,-0.01988 -0.12922,-0.05112 -0.20164,-0.08232zM232.96234,180.47867c-0.35575,0.07931 -0.59178,0.2239 -0.84351,0.35714c-0.08811,0.06237 -0.11947,0.14462 -0.15086,0.22687c-0.13175,0.40842 -0.31085,0.78278 -0.56235,1.12593c-0.0283,0.04253 -0.04084,0.09642 -0.0691,0.13895c0.16392,0.13904 0.20486,0.14758 0.28029,0.03413c0.24519,-0.3687 0.55975,-0.6664 0.93421,-0.87902c0.22658,-0.1304 0.32399,-0.31192 0.36779,-0.55301c0.00298,-0.14469 0.01231,-0.26381 0.04356,-0.45098zM229.26298,181.06471c0.0788,0.05673 0.13228,0.01134 0.17001,-0.04537c0.26405,-0.39699 0.6447,-0.68907 1.02542,-0.98111c0.30201,-0.24384 0.45588,-0.61538 0.42695,-1.09759c-0.19518,0.04815 -0.30525,0.17861 -0.46892,0.24946c-0.33677,0.1559 -0.5159,0.42531 -0.64151,0.75431c-0.14442,0.35735 -0.2731,0.72607 -0.51207,1.01532c-0.0125,0.0539 -0.00623,0.07945 0.00013,0.10496zM231.84991,179.69836c-0.20771,0.10203 -0.36197,0.1587 -0.50043,0.22675c-0.2329,0.1049 -0.36183,0.2637 -0.43083,0.50759c-0.08463,0.33751 -0.2417,0.64382 -0.41451,0.93875c-0.05027,0.11063 -0.1257,0.22404 -0.1917,0.32329c0.06937,0.07095 0.11339,0.03976 0.13225,0.01139c0.35224,-0.35447 0.72029,-0.69755 1.14195,-0.98106c0.0629,-0.05955 0.11637,-0.10492 0.14776,-0.18716c0.05323,-0.25527 0.12222,-0.49918 0.11551,-0.83955zM231.44305,184.4805c-0.11613,0.31482 -0.33316,0.53598 -0.53443,0.76851c-0.04715,0.0709 -0.13215,0.09356 -0.14777,0.18714c-0.02817,0.14752 0.01007,0.51058 0.09853,0.76308c0.20465,-0.06233 0.34928,-0.2098 0.51609,-0.32036c0.13215,-0.09358 0.19183,-0.21835 0.18847,-0.38853c0.00595,-0.28929 0.04343,-0.55594 0.14704,-0.81686c0.00946,-0.01418 -0.00325,-0.06523 -0.00956,-0.09075c-0.05362,-0.05958 -0.11663,-0.105 -0.25835,-0.10218zM225.43123,181.53439c-0.03746,0.26661 -0.21356,0.49633 -0.19432,0.78282c0.11974,0.06528 0.21418,0.02845 0.31493,0.01713c0.18576,-0.034 0.36837,-0.02825 0.5509,-0.12747c0.07521,-0.32333 0.29531,-0.58423 0.39568,-0.91038c-0.05051,-0.09927 -0.12928,-0.15606 -0.22695,-0.18443c-0.25486,0.17297 -0.53182,0.30904 -0.84029,0.42238zM228.3958,182.68411c-0.12582,0.1191 -0.25164,0.23818 -0.39643,0.28067c-0.34941,0.10483 -0.49396,0.35727 -0.52818,0.68912c-0.00931,0.11911 -0.06591,0.2042 -0.02795,0.3574c0.25191,-0.0283 0.46596,-0.1048 0.67997,-0.18136c0.05981,-0.01983 0.09752,-0.07657 0.1289,-0.1588c0.0784,-0.25812 0.16314,-0.49067 0.24156,-0.74874c0.02832,-0.04253 0.03449,-0.12197 -0.09793,-0.23831zM227.40301,181.96902c-0.2705,0.26656 -0.55367,0.48199 -0.9094,0.56133c-0.07555,0.0085 -0.09751,0.07656 -0.13522,0.13328c-0.06912,0.13896 -0.12248,0.2893 -0.11278,0.48498c0.35266,-0.0396 0.62651,-0.13598 0.90977,-0.24651c0.09442,-0.03684 0.15736,-0.09636 0.19817,-0.19283c0.07225,-0.17864 0.16019,-0.34602 0.2324,-0.52469c0.00946,-0.01418 -0.00322,-0.06527 -0.00955,-0.09078c-0.04727,-0.03406 -0.09457,-0.06811 -0.17334,-0.12482zM233.69797,182.03617c0.03124,-0.18718 0.072,-0.38858 0.10326,-0.57579c-0.00632,-0.02551 -0.01267,-0.05108 -0.02531,-0.10211c-0.25822,0.00273 -0.46597,0.10481 -0.63273,0.21535c-0.18202,0.51904 -0.34518,1.00968 -0.66582,1.49179c0.37151,-0.06796 0.41206,-0.37431 0.58193,-0.52457c0.19816,-0.19283 0.41838,-0.34875 0.63861,-0.5047zM229.78801,177.75187c-0.04442,-0.28366 -0.05738,-0.54464 -0.21197,-0.80277c-0.12904,0.05384 -0.25499,0.068 -0.35885,0.11905c-0.10385,0.05105 -0.22345,0.09069 -0.28946,0.18999c-0.03756,0.16165 0.01617,0.3262 0.02894,0.48221c0.01282,0.156 -0.01539,0.30352 0.06351,0.4652c0.26119,-0.14744 0.49719,-0.29199 0.76784,-0.4536zM226.38548,179.01307c0.34592,-0.37998 0.62895,-0.70045 0.91198,-1.02085c0.01886,-0.02835 0.06295,-0.05954 0.05026,-0.11061c-0.00659,-0.23542 0.03721,-0.47652 -0.10163,-0.72332c-0.19507,0.1531 -0.3807,0.29205 -0.55057,0.44235c-0.01203,0.4737 -0.13746,0.90761 -0.31005,1.41245zM228.4739,184.77462c0.20784,0.0029 0.33366,-0.1162 0.47214,-0.18421c0.16366,-0.07084 0.28003,-0.17576 0.32074,-0.37715c0.06267,-0.26942 0.12532,-0.53889 0.30773,-0.7431c-0.09147,-0.10783 -0.16392,-0.13904 -0.2205,-0.05396c-0.1572,0.20133 -0.32386,0.41685 -0.54098,0.53309c-0.30525,0.17861 -0.32066,0.48214 -0.3391,0.82535zM227.1213,183.33896c-0.36517,0.09349 -0.66111,0.15297 -0.94129,0.22379c-0.06601,0.09925 -0.05645,0.19004 -0.06265,0.26943c0.00955,0.09077 -0.0155,0.19851 0.07593,0.30634c0.24883,0.01143 0.50067,-0.01686 0.74623,-0.07064c0.0753,-0.21837 0.12544,-0.43394 0.18179,-0.72891zM229.13329,185.81581c-0.00036,-0.31483 -0.00388,-0.58999 0.00209,-0.87929c-0.23291,0.10489 -0.45639,0.19559 -0.67986,0.28627c-0.0123,0.26379 -0.04668,0.4907 0.0576,0.75448c0.22668,-0.02544 0.41555,-0.09916 0.62016,-0.16149zM230.84624,177.84296c-0.24569,-0.05114 -0.41556,0.09916 -0.6044,0.17282c-0.05981,0.01983 -0.09122,0.10206 -0.08797,0.16733c0.00024,0.20991 -0.00584,0.39427 0.00381,0.58998c-0.00945,0.01418 0.02211,0.03689 0.05362,0.0596c0.24235,-0.11903 0.47829,-0.26368 0.72066,-0.38271c0.01552,-0.19852 -0.03512,-0.40277 -0.08577,-0.60702zM232.96507,180.01925c0.04067,-0.20139 0.07197,-0.38857 -0.03535,-0.61269c-0.21096,0.03683 -0.45342,0.05093 -0.64538,0.16432c-0.01874,0.1333 -0.06898,0.2439 -0.06253,0.37438c-0.00932,0.1191 -0.10054,0.22121 0.01303,0.3659c0.24866,-0.09352 0.4973,-0.18705 0.73026,-0.29193zM229.62159,186.06267c-0.02183,0.17301 0.07286,0.34607 0.15809,0.53329c0.23924,-0.07931 0.48169,-0.09348 0.67676,-0.24655c-0.05064,-0.20427 -0.0257,-0.41695 -0.1236,-0.65527c-0.24235,0.11903 -0.46894,0.24944 -0.71125,0.3685zM232.57096,184.95741c-0.1855,0.24388 -0.31737,0.54737 -0.53443,0.76854c-0.17297,0.19 -0.13807,0.38287 -0.02442,0.63251c0.21401,-0.07652 0.34929,-0.20979 0.50972,-0.3459c-0.054,-0.3744 0.04637,-0.70061 0.04911,-1.05515zM225.63504,178.17891c0.07246,0.03123 0.10073,-0.01132 0.12903,-0.05384c0.13835,-0.17298 0.27038,-0.37149 0.4245,-0.53313c0.24219,-0.22401 0.1789,-0.47932 0.07776,-0.78286c-0.09755,0.07657 -0.17618,0.12476 -0.23908,0.18431c-0.16041,0.13613 -0.27991,0.2807 -0.24184,0.53886c0.01281,0.156 -0.04059,0.30633 -0.08447,0.4425c-0.0535,0.04537 -0.13213,0.09357 -0.0659,0.2042zM224.48001,181.3526c0.1165,0.00004 0.20152,-0.02263 0.27707,-0.03112c0.23301,0.00009 0.3652,-0.0935 0.44682,-0.28636c0.06281,-0.16447 0.1823,-0.30912 0.26083,-0.46227c0.02833,-0.04253 0.07233,-0.07372 -0.02856,-0.16737c-0.21084,0.14174 -0.45316,0.26083 -0.71757,0.343c-0.05981,0.01983 -0.10692,0.09072 -0.14467,0.14743c-0.04392,0.13611 -0.07844,0.25811 -0.09392,0.45664zM228.03944,184.90208c0.03127,-0.18717 0.08772,-0.37721 0.06224,-0.58431c-0.26131,0.04249 -0.51952,0.04523 -0.75243,0.15009c0.00025,0.20991 -0.04679,0.38574 0.06998,0.59569c0.21097,-0.03681 0.42825,-0.04807 0.62017,-0.16151zM231.23236,179.50523c0.26129,-0.0425 0.46904,-0.14454 0.6452,-0.26929c-0.00024,-0.2099 0.00581,-0.39425 -0.05114,-0.62404c-0.18266,-0.00573 -0.33689,0.05097 -0.4848,0.13318c-0.02804,0.25243 -0.07182,0.49353 -0.10932,0.76013zM226.20314,184.54412c0.02855,0.1674 0.02867,0.2723 0.06977,0.38577c0.01899,0.07659 0.0474,0.139 0.07585,0.20143c0.20472,0.04261 0.41258,0.04551 0.60144,-0.02817c0.01552,-0.19852 0.03099,-0.39709 -0.0606,-0.60987c-0.22668,0.02544 -0.43454,0.02257 -0.68642,0.05085zM224.80246,179.78128c-0.28652,0.04532 -0.488,0.06792 -0.72415,0.10755c-0.05349,0.04536 -0.10374,0.15594 -0.11303,0.2751c-0.02505,0.10776 -0.12257,0.18433 -0.07519,0.32334c0.17012,0.05962 0.31182,0.05682 0.45663,0.01433c0.13511,-0.23824 0.2766,-0.4509 0.45576,-0.7203zM229.95076,176.84142c0.03167,0.12768 0.06331,0.25534 0.0949,0.38298c0.03167,0.12769 0.07274,0.24112 0.10437,0.36877c0.21402,-0.07649 0.39982,-0.11048 0.53506,-0.24375c0.00931,-0.11911 -0.06639,-0.21558 -0.11686,-0.31488c-0.05051,-0.09927 -0.07275,-0.24113 -0.19246,-0.30639c-0.16059,0.03117 -0.30227,0.03395 -0.425,0.11334zM228.08491,186.02538c-0.03178,-0.2326 0.00261,-0.45953 -0.1111,-0.70918c-0.18575,0.034 -0.35574,0.07932 -0.54152,0.11329c0.03177,0.23259 0.04142,0.42833 0.18342,0.63543c0.15746,0.00855 0.29608,0.0455 0.46918,-0.03956zM227.75033,177.52152c0.26431,-0.1871 0.49397,-0.35722 0.72362,-0.52733c-0.00644,-0.13049 0.00288,-0.24963 -0.08859,-0.35743c-0.2771,0.03113 -0.48788,0.17287 -0.71445,0.30328c0.00644,0.1305 0.01289,0.26097 0.04452,0.38861c-0.02198,0.06807 0.00013,0.10493 0.03486,0.19287zM225.77029,183.26764c0.00914,-0.2241 0.12236,-0.39426 0.07171,-0.59851c-0.26765,0.01696 -0.5101,0.03106 -0.74938,0.11041c0.04432,0.17874 -0.05002,0.3205 0.051,0.51909c0.20471,0.0426 0.38419,-0.01691 0.62664,-0.031zM233.85326,180.26056c-0.16689,0.00563 -0.32745,0.03678 -0.46594,0.10484c-0.01858,0.23828 -0.05297,0.46516 -0.09042,0.73177c0.19824,-0.08786 0.36827,-0.1332 0.58866,-0.18416c0.01859,-0.23828 0.04355,-0.451 -0.03228,-0.65243zM224.35136,181.72131c-0.05957,0.22973 -0.116,0.41977 -0.03388,0.64672c0.17321,0.01989 0.32125,0.04267 0.45974,-0.02537c0.05014,-0.21556 0.11598,-0.41972 0.16922,-0.67502c-0.20784,-0.0029 -0.39993,0.00556 -0.59512,0.0537zM232.30892,179.1482c0.22346,-0.0907 0.45343,-0.05093 0.58868,-0.18421c-0.00024,-0.2099 -0.06975,-0.38579 -0.16443,-0.55886c-0.19208,0.00846 -0.37474,0.00271 -0.52574,0.12461c0.03486,0.19288 0.05401,0.37443 0.10152,0.61839zM229.37362,186.68098c-0.04432,-0.17873 -0.05709,-0.3347 -0.16121,-0.49359c-0.21401,0.07652 -0.45341,0.05091 -0.63906,0.18984c0.02854,0.16739 0.08538,0.29221 0.21778,0.40855c0.20151,-0.02263 0.39669,-0.07076 0.58243,-0.10479zM227.19525,176.74417c-0.0191,-0.18155 -0.06018,-0.29498 -0.14219,-0.41705c-0.18576,0.034 -0.37463,0.10766 -0.48775,0.27783c0.03798,0.15318 0.07594,0.30633 0.10447,0.47372c0.22983,-0.06515 0.35873,-0.22394 0.52549,-0.33454zM232.80319,186.78137c-0.04737,-0.13899 -0.08849,-0.25249 -0.17358,-0.33475c-0.18884,0.07366 -0.34617,0.17011 -0.48142,0.30337c0.02218,0.14181 0.06327,0.2553 0.15473,0.36311c0.20465,-0.06233 0.33352,-0.22114 0.50027,-0.33173zM226.52559,185.53134c-0.01861,0.23824 0.09803,0.34324 0.24929,0.43123c0.11029,0.07946 0.23948,0.13056 0.36221,0.05116c-0.0191,-0.18155 -0.04764,-0.34889 -0.14232,-0.52196c-0.16689,0.00563 -0.31802,0.02261 -0.46917,0.03957zM234.42918,182.5838c0.03759,-0.16165 0.11302,-0.27509 0.04988,-0.42543c-0.47548,0.01405 -0.57591,0.34019 -0.61631,0.75145c0.19196,-0.11339 0.37452,-0.21263 0.56643,-0.32602zM225.27685,184.14961c0.17955,0.04547 0.32125,0.04265 0.50069,-0.01686c-0.06319,-0.15034 0.01536,-0.30353 -0.07299,-0.45103c-0.104,-0.05396 -0.17322,-0.01991 -0.26455,-0.02279c-0.10073,0.01132 -0.1984,-0.01708 -0.26443,0.08217c0.00644,0.1305 0.01291,0.26099 0.10126,0.4085zM229.66312,181.26905c0.11675,0.20992 0.23018,0.2497 0.33078,0.13341c0.13836,-0.17297 0.2452,-0.36867 0.34258,-0.55018c0.03772,-0.05668 0.06908,-0.13898 -0.00659,-0.23543c-0.24853,0.19848 -0.46554,0.41964 -0.66681,0.65217zM230.25301,187.35632c-0.02506,0.10777 0.00969,0.19573 0.0948,0.27803c0.24248,-0.01411 0.50703,0.00869 0.7336,-0.12171c-0.13253,-0.22129 -0.29324,-0.29513 -0.49783,-0.23278c-0.10074,0.01132 -0.22363,-0.01426 -0.33056,0.07646zM231.86913,182.64825c0.22059,0.1589 0.28677,0.16456 0.37161,0.037c0.11625,-0.20987 0.24196,-0.43389 0.29518,-0.68918c-0.29581,0.16443 -0.56644,0.32603 -0.66683,0.65218zM233.26484,185.77172c-0.0912,0.10206 -0.15721,0.20137 -0.23898,0.28923c-0.14782,0.18714 -0.14777,0.18717 0.08872,0.46241c0.09755,-0.07657 0.22026,-0.15594 0.27371,-0.20131c-0.05061,-0.20427 -0.07917,-0.37159 -0.12349,-0.55031zM232.32599,177.54564c-0.14172,0.00276 -0.30242,-0.07099 -0.40615,0.08497c0.04739,0.139 0.12,0.27519 0.17372,0.43969c0.16692,-0.00562 0.34012,0.01433 0.46283,-0.06508c-0.06321,-0.15035 -0.10115,-0.30356 -0.23044,-0.4596zM231.55845,186.19947c-0.20135,0.1276 -0.41852,0.2438 -0.6199,0.37139c-0.01561,0.09358 -0.00611,0.18433 0.10731,0.22408c0.22668,-0.02544 0.44077,-0.10196 0.61062,-0.25226c-0.00644,-0.13049 -0.03178,-0.23259 -0.09806,-0.34325zM234.23501,180.80818c0.11974,0.06528 0.23626,0.06534 0.35588,0.02563c0.00621,-0.07943 0.01242,-0.15883 0.01859,-0.23827c-0.0001,-0.10493 0.01549,-0.19855 -0.06022,-0.295c-0.09454,-0.0681 -0.19217,-0.09652 -0.30238,-0.071c-0.00606,0.1844 -0.00579,0.39428 -0.01192,0.57861zM231.31913,178.28846c0.16692,-0.00562 0.29596,-0.05948 0.41867,-0.13884c-0.06947,-0.17587 -0.12325,-0.3404 -0.18639,-0.49074c-0.15439,-0.04824 -0.27399,-0.00859 -0.34633,0.06513c0.03485,0.19288 0.06976,0.38578 0.11401,0.56451zM234.57296,181.7017c0.00931,-0.11911 0.0186,-0.23824 0.01218,-0.36876c-0.00632,-0.0255 -0.03785,-0.04823 -0.05997,-0.08514c-0.09132,-0.00287 -0.20473,-0.04261 -0.32746,0.03678c-0.02814,0.14753 -0.0909,0.31199 -0.05606,0.50488c0.17319,0.01989 0.29282,-0.01981 0.43131,-0.08782zM234.59733,183.52281c0.11949,-0.14463 0.31171,-0.04813 0.40599,-0.18991c0.01239,-0.15881 0.08155,-0.29777 0.03089,-0.50203c-0.15746,-0.00855 -0.29919,-0.00575 -0.33674,0.15591c-0.0376,0.16166 -0.13821,0.27791 -0.10014,0.53604zM231.56312,187.41916c0.12904,-0.05385 0.27385,-0.09638 0.39344,-0.13603c0.02518,-0.00281 0.02832,-0.04255 0.04714,-0.07091c-0.05994,-0.08511 -0.09156,-0.21277 -0.26171,-0.27235c-0.1542,0.05671 -0.31791,0.12752 -0.49733,0.18707c0.07258,0.13618 0.15774,0.21844 0.31841,0.29227zM231.33677,177.21063c-0.03796,-0.15319 -0.06652,-0.32055 -0.09816,-0.44817c-0.17012,-0.05962 -0.31183,-0.05685 -0.43776,-0.04267c-0.05026,0.11065 0.05064,0.20422 0.08538,0.29219c0.03478,0.08796 0.06006,0.19005 0.17982,0.25534c0.0819,0.01704 0.17325,0.01991 0.27078,-0.05664zM224.28014,182.73957c0.01282,0.156 0.02868,0.27234 0.04455,0.38862c-0.00312,0.0397 0.03474,0.08797 0.04108,0.11349c0.11029,0.07946 0.22683,0.07951 0.34643,0.03981c-0.00336,-0.17019 0.00903,-0.32904 -0.0352,-0.50773c-0.12285,-0.02555 -0.23935,-0.0256 -0.39682,-0.03415zM233.69968,186.06395c0.18566,-0.13892 0.37124,-0.27785 0.45601,-0.5104c-0.17011,-0.05961 -0.30565,-0.13627 -0.45985,-0.07958c-0.08154,0.29778 -0.08154,0.2978 0.00383,0.58998zM225.41269,184.54105c0.08873,0.46242 0.10447,0.4737 0.48248,0.53621c-0.02855,-0.1674 -0.08227,-0.33187 -0.11078,-0.49926c-0.11974,-0.06528 -0.23624,-0.06531 -0.37163,-0.03702zM233.8213,179.81811c-0.00336,-0.17018 -0.02557,-0.31204 -0.11391,-0.45958c-0.04095,-0.00852 -0.1071,-0.01423 -0.17324,-0.01992c-0.05039,0.00567 -0.11021,0.0255 -0.16054,0.03114c0.00337,0.17018 -0.01847,0.34323 0.06044,0.50493c0.12282,0.02555 0.25822,-0.00274 0.38725,-0.05663zM223.7778,181.39208c0.06613,0.00567 0.15747,0.00854 0.20153,-0.02263c0.15103,-0.12192 0.21376,-0.28639 0.20719,-0.52185c-0.13228,-0.01141 -0.27719,-0.07384 -0.38107,-0.0228c-0.03127,0.18717 -0.11923,0.35452 -0.02765,0.56728zM228.2495,176.24523c-0.00631,-0.02551 -0.01266,-0.05105 -0.02531,-0.10211c-0.28032,-0.03411 -0.54165,0.00834 -0.80293,0.05083c-0.01873,0.13329 0.01602,0.22123 0.13263,0.32622c0.22346,-0.0907 0.46266,-0.17005 0.69562,-0.27493zM231.34803,181.43408c-0.23601,0.14459 -0.47829,0.26366 -0.62286,0.51605c-0.00946,0.01418 0.03478,0.08792 0.06627,0.11063c0.07881,0.05673 0.17956,0.04543 0.22666,-0.02549c0.16987,-0.15027 0.26094,-0.35733 0.32991,-0.6012zM233.63131,178.94721c-0.02217,-0.14183 -0.04441,-0.28368 -0.117,-0.41985c-0.11029,-0.07947 -0.20796,-0.10785 -0.35275,-0.06537c0.05375,0.16455 0.09803,0.34326 0.16118,0.49359c0.11338,0.03973 0.20471,0.0426 0.3086,-0.00841zM227.65725,186.49328c0.2112,0.17308 0.39085,0.32352 0.64597,0.36045c0.03758,-0.16165 -0.03498,-0.29783 -0.13276,-0.43119c-0.18264,-0.00573 -0.34012,-0.0143 -0.51323,0.07077zM223.74405,179.4803c0.19842,0.01709 0.22358,0.01428 0.25192,-0.02826c0.11005,-0.13041 0.11614,-0.31482 0.11277,-0.48498c-0.00322,-0.06521 -0.07262,-0.13616 -0.17647,-0.08514c0.00968,0.19572 -0.17598,0.33467 -0.1882,0.59846zM228.81379,176.79852c0.23924,-0.07931 0.48481,-0.13317 0.66085,-0.3629c-0.2866,-0.05964 -0.51013,0.03106 -0.7147,0.09341c-0.03141,0.08224 -0.00296,0.14463 0.05389,0.26946zM224.74094,183.65871c-0.10708,-0.0142 -0.20474,-0.0426 -0.31182,-0.05681c-0.00608,0.1844 0.02248,0.35174 0.22412,0.43405c0.05671,0.01988 0.11338,0.03973 0.16689,-0.00563c0.02505,-0.10776 -0.01602,-0.22126 -0.07916,-0.37159zM233.01929,183.26701c0.14185,0.10214 0.2237,0.11922 0.28339,-0.00557c0.05027,-0.11063 0.10051,-0.22123 0.135,-0.3432c0.01249,-0.05388 0.00931,-0.11914 -0.06315,-0.15036c-0.16044,0.13611 -0.26416,0.29209 -0.35523,0.49912zM227.21951,178.67009c-0.18566,0.13893 -0.33974,0.30059 -0.41505,0.51895c-0.00945,0.01419 0.03477,0.08792 0.05051,0.09927c0.0315,0.0227 0.09132,0.00287 0.11019,-0.02551c0.10685,-0.19567 0.25154,-0.34315 0.25438,-0.59279zM226.14254,178.6074c0.04703,-0.17583 0.15078,-0.33185 0.15998,-0.5559c-0.20136,0.12759 -0.33662,0.26086 -0.34593,0.37999c-0.02505,0.10776 0.03795,0.15319 0.18598,0.17591zM229.29897,187.42411c0.21739,0.09365 0.43804,0.25258 0.6615,0.16188c-0.20822,-0.31772 -0.43168,-0.22702 -0.6615,-0.16188zM230.79455,184.68453c0.0315,0.02269 0.05676,0.0199 0.08825,0.04258c0.07851,-0.15313 0.22643,-0.23536 0.23249,-0.41974c-0.08511,-0.0823 -0.14183,-0.10215 -0.23626,-0.06531c-0.01873,0.13329 -0.04691,0.28078 -0.08448,0.4425zM229.1832,180.16834c-0.17929,0.16446 -0.31453,0.29775 -0.41195,0.47924c-0.01886,0.02835 -0.00621,0.07941 0.04106,0.11346c0.01578,0.01136 0.05669,0.01988 0.08191,0.01705c0.18566,-0.13892 0.29877,-0.30907 0.28897,-0.60975zM223.93254,181.75519c-0.1134,-0.03973 -0.17952,-0.04544 -0.1763,0.01981c-0.01873,0.13329 -0.02169,0.27797 -0.02468,0.42264c0.00955,0.09077 0.05682,0.12481 0.14183,0.10215c0.05649,-0.19002 0.09403,-0.35171 0.05917,-0.54458zM232.99416,178.04788c0.09132,0.00287 0.17325,0.01991 0.26456,0.02279c0.02519,-0.0028 0.04403,-0.0312 0.08811,-0.06237c-0.18906,-0.13622 -0.33413,-0.30359 -0.57673,-0.39444c0.05375,0.16455 0.09481,0.27801 0.2241,0.43404zM226.83566,181.56033c-0.07855,0.15314 -0.14766,0.29213 -0.24506,0.47363c0.25191,-0.02831 0.38404,-0.12183 0.46256,-0.27499c-0.05051,-0.09928 -0.08835,-0.14754 -0.21753,-0.19866zM232.01963,184.76996c-0.00298,0.14469 -0.13822,0.2779 -0.02147,0.48786c0.27359,-0.30627 0.32074,-0.37714 0.2608,-0.46228c-0.07881,-0.05673 -0.14494,-0.06247 -0.23936,-0.0256zM228.21877,179.51568c-0.33057,0.07646 -0.44368,0.24664 -0.52214,0.50474c0.33378,-0.01125 0.33972,-0.30057 0.52214,-0.50474zM234.30085,183.16243c-0.30538,0.07364 -0.40912,0.22964 -0.49075,0.42249c-0.00945,0.01418 0.01266,0.05105 0.04417,0.07375c0.04727,0.03407 0.09765,0.02839 0.1165,0.00003c0.11007,-0.13041 0.18861,-0.28356 0.33004,-0.49626zM232.91759,185.10219c-0.03759,0.16165 -0.11614,0.31482 -0.02456,0.52753c0.14159,-0.10775 0.2107,-0.24672 0.27038,-0.37148c-0.06626,-0.11065 -0.13871,-0.14184 -0.24581,-0.15608zM235.05901,182.51312c-0.02545,-0.20709 0.07827,-0.36306 -0.04159,-0.53329c-0.17929,0.16446 -0.17929,0.16446 -0.13798,0.48782c0.04095,0.00852 0.0819,0.01704 0.17955,0.04544zM229.95653,186.89106c0.24892,0.11635 0.4441,0.06821 0.63296,-0.00547c0.00931,-0.11911 -0.05375,-0.16455 -0.12928,-0.15606c-0.15422,0.05671 -0.32424,0.10203 -0.50364,0.16155zM234.1803,179.804c0.104,0.05395 0.19221,0.09651 0.29603,0.04549c-0.01587,-0.11629 -0.03175,-0.23262 -0.11686,-0.31485c-0.08821,-0.04259 -0.15435,-0.04825 -0.22362,-0.01425c-0.01562,0.09359 0.00336,0.17019 0.04444,0.28366zM228.81238,183.42457c0.12271,-0.07937 0.21086,-0.14177 0.23589,-0.24954c0.00312,-0.0397 -0.01897,-0.07659 -0.04108,-0.11348c-0.04727,-0.03407 -0.12918,-0.05112 -0.14171,0.00275c-0.0566,0.08509 -0.12261,0.18434 -0.0531,0.36027zM232.03572,177.10586c-0.11355,-0.1447 -0.28677,-0.16461 -0.4317,-0.22703c0.0665,0.32056 0.09804,0.34324 0.4317,0.22703zM225.2695,177.95756c0.20448,-0.16729 0.20449,-0.16728 0.11924,-0.35454c-0.08811,0.06237 -0.18564,0.13895 -0.11924,0.35454zM230.02823,183.73406c-0.03478,-0.08796 -0.08203,-0.122 -0.11662,-0.10499c-0.15422,0.05671 -0.16676,0.11058 -0.1098,0.34036c0.11328,-0.06517 0.1699,-0.15027 0.22648,-0.23536zM234.88723,183.7526c-0.12596,0.01418 -0.23613,0.03967 -0.27062,0.16158c0.28043,0.13904 0.315,0.12208 0.27062,-0.16158zM225.26862,177.22296c-0.16059,0.03117 -0.25179,0.13322 -0.33351,0.22112c-0.03772,0.05669 -0.01874,0.13332 0.11354,0.14472c0.08174,-0.0879 0.17299,-0.18999 0.22,-0.36583zM235.01032,181.3246c-0.12582,0.1191 -0.12573,0.22404 -0.01849,0.34322c0,0 0.04096,0.00852 0.05037,-0.00568c0.07233,-0.07374 0.01554,-0.19854 -0.03187,-0.33759zM227.83194,182.5506c0.1134,0.03973 0.18267,0.00573 0.20461,-0.06233c0.01886,-0.02835 0.00619,-0.07942 -0.01587,-0.1163c-0.0221,-0.03688 -0.0882,-0.04258 -0.10706,-0.01421c-0.04405,0.03119 -0.08177,0.0879 -0.08167,0.19285zM233.95251,178.88498c-0.00298,0.14468 0.03175,0.23261 0.19558,0.26668c-0.00337,-0.17018 -0.04752,-0.24396 -0.19558,-0.26668z" fill="url(#color-10)"/><path d="M224.32352,187.40555c0.49484,0.3774 0.98972,0.75486 1.49401,1.11807c0.56733,0.40865 1.17234,0.76053 1.80878,1.03021c0.20162,0.08232 0.39059,0.11359 0.61741,0.19308c-0.15089,0.2269 -0.2671,0.43673 -0.4149,0.62388c-0.85517,1.14567 -1.64098,2.36225 -2.47404,3.54481c-0.74823,1.05492 -1.47122,2.10705 -2.20367,3.17335c-0.50612,0.726 -1.00285,1.43778 -1.50897,2.16375c-0.47784,0.68346 -0.91469,1.3754 -1.39251,2.05886c-0.03772,0.05671 -0.07546,0.11343 -0.12893,0.1588c-0.32436,-0.00291 -0.6079,-0.10233 -0.91351,-0.23853c-0.48209,-0.2214 -0.96104,-0.48251 -1.39284,-0.8145c-0.14185,-0.10214 -0.29309,-0.19012 -0.37199,-0.35184c0.16072,0.0738 0.28999,0.22982 0.51049,0.2838c0.0406,-0.30628 0.24816,-0.51332 0.38329,-0.75155c0.00945,-0.01418 0.01885,-0.02834 0.00312,-0.03969c0.12855,-0.47363 0.40205,-0.88484 0.5873,-1.33864c0.06279,-0.16448 0.07827,-0.36305 0.20407,-0.48214c0.22015,-0.26087 0.25746,-0.63246 0.4776,-0.89338c0.00945,-0.01418 0.01252,-0.0539 0.0314,-0.08225c0.13186,-0.30344 0.23862,-0.60407 0.40201,-0.88484c0.20744,-0.31195 0.27001,-0.68637 0.50896,-0.97561c0.02804,-0.25243 0.18218,-0.41405 0.29844,-0.62391c0.01886,-0.02835 0.02829,-0.04257 0.04715,-0.07089c0.06253,-0.3744 0.32359,-0.62677 0.44918,-0.95577c0.12557,-0.32899 0.35511,-0.60405 0.49643,-0.92171c0.16964,-0.36019 0.2825,-0.74022 0.55614,-1.04648c0.01886,-0.02835 0.04717,-0.0709 0.05027,-0.11061c0.00914,-0.2241 0.16962,-0.36018 0.26704,-0.54167c0.0566,-0.08509 0.13834,-0.17296 0.16341,-0.28075c0.02186,-0.173 0.11303,-0.2751 0.19792,-0.40273c0.04716,-0.07091 0.11008,-0.13046 0.11623,-0.20986c0.02804,-0.25243 0.19156,-0.42824 0.31414,-0.61257c0.04716,-0.07091 0.11004,-0.13044 0.11626,-0.20986c0.02497,-0.21269 0.14442,-0.35736 0.24819,-0.51332c0.16975,-0.25526 0.22918,-0.58991 0.41468,-0.83377c0.04404,-0.0312 0.02507,-0.10776 0.03758,-0.16167z" fill="#87d7dc"/><path d="M224.3235,187.40557c-0.01255,0.05388 0.00647,0.13049 -0.02183,0.17304c-0.18549,0.24389 -0.26068,0.5672 -0.41466,0.83379c-0.10374,0.15597 -0.22324,0.30061 -0.24819,0.51331c-0.00621,0.07943 -0.06912,0.13898 -0.11622,0.20987c-0.12256,0.18434 -0.27038,0.37146 -0.3142,0.61255c-0.00619,0.07943 -0.08488,0.12764 -0.11624,0.20987c-0.08486,0.1276 -0.16032,0.24106 -0.19792,0.40273c-0.02505,0.10776 -0.10686,0.19569 -0.16344,0.28078c-0.09739,0.18151 -0.25783,0.31762 -0.26702,0.54169c-0.00312,0.0397 -0.0314,0.08225 -0.05025,0.11061c-0.26417,0.29209 -0.38651,0.68633 -0.55612,1.0465c-0.15078,0.33185 -0.38031,0.60688 -0.49647,0.92169c-0.12555,0.32897 -0.38662,0.58136 -0.44916,0.95576c0.00631,0.02552 -0.02832,0.04254 -0.04718,0.07091c-0.12256,0.18434 -0.27034,0.37149 -0.2984,0.62395c-0.25476,0.27789 -0.31726,0.65231 -0.509,0.97559c-0.17918,0.2694 -0.27011,0.58139 -0.40203,0.88484c-0.01886,0.02835 -0.01251,0.05393 -0.03139,0.08226c-0.22015,0.26087 -0.25744,0.63245 -0.47759,0.89337c-0.11948,0.14463 -0.12559,0.329 -0.20408,0.48214c-0.20101,0.44242 -0.45872,0.86501 -0.58729,1.33863c-0.00945,0.01418 -0.00308,0.03973 -0.00308,0.03973c-0.13511,0.23825 -0.34274,0.44525 -0.3833,0.75156c-0.20472,-0.04261 -0.32461,-0.21286 -0.51048,-0.28382c-0.12606,-0.09079 -0.25211,-0.18164 -0.30586,-0.34619c0.0566,-0.08509 0.13834,-0.17296 0.16339,-0.28074c0.08771,-0.37721 0.30155,-0.66363 0.46806,-0.98413c0.1665,-0.32045 0.25422,-0.69769 0.50896,-0.97558c0.02804,-0.25243 0.18214,-0.41409 0.2984,-0.62393c0.01886,-0.02835 0.04715,-0.0709 0.05026,-0.11062c0.00608,-0.18439 0.1319,-0.30343 0.20104,-0.44244c0.04716,-0.07091 0.09427,-0.14181 0.11625,-0.20986c0.12866,-0.36872 0.28249,-0.74023 0.4994,-1.06637c0.02833,-0.04253 0.0818,-0.0879 0.0691,-0.13896c0.01552,-0.1985 0.12555,-0.32899 0.21985,-0.4708c0.11948,-0.14463 0.10347,-0.36589 0.23241,-0.52468c0.16664,-0.21552 0.22929,-0.48497 0.34864,-0.73454c0.17595,-0.33467 0.27942,-0.70051 0.49633,-1.02663c0.03772,-0.05671 0.10065,-0.11627 0.0974,-0.18152c0.01243,-0.15883 0.113,-0.27511 0.18213,-0.41406c0.07545,-0.11343 0.13512,-0.23821 0.16965,-0.36019c0.05957,-0.22973 0.15061,-0.43677 0.28263,-0.63531c0.18226,-0.3091 0.26999,-0.68636 0.5247,-0.96424c0.01886,-0.02835 0.03142,-0.08222 0.05028,-0.11062c0.15078,-0.33185 0.28572,-0.67501 0.46804,-0.98408c0.20744,-0.31195 0.28886,-0.71471 0.52785,-1.00396c0.02833,-0.04253 0.02505,-0.10778 0.03758,-0.16166c0.09107,-0.20703 0.20734,-0.41689 0.37721,-0.56716c0.08822,0.0426 0.15125,0.08795 0.22371,0.11922c0.19235,0.20147 0.36258,0.36601 0.55803,0.52777z" fill="#b0eef2"/><path d="M235.02676,184.5242c-0.13189,0.30343 -0.2576,0.52749 -0.46209,0.69478c-0.20153,0.02262 -0.40316,-0.05965 -0.61419,-0.12779c-1.02704,-0.38324 -2.04466,-0.78067 -3.01839,-1.31423c-0.73422,-0.40303 -1.48423,-0.81739 -2.18704,-1.30263c-0.18909,-0.13621 -0.38456,-0.29794 -0.60194,-0.39165c-0.08822,-0.0426 -0.18279,-0.11071 -0.27731,-0.17878c-0.34051,-0.32915 -0.73758,-0.57321 -1.10637,-0.85981c-0.52639,-0.4001 -1.01506,-0.85693 -1.48483,-1.34213c-0.23018,-0.24968 -0.4698,-0.48519 -0.72519,-0.73202c-0.20174,-0.18728 -0.33428,-0.40855 -0.47624,-0.61567c0.05945,-0.33469 0.10967,-0.44528 0.36752,-0.76289c0.33726,0.26386 0.61163,0.58733 0.92999,0.87958c0.30265,0.28091 0.62103,0.57314 0.93312,0.8399c0.32781,0.27808 0.68086,0.55334 1.01811,0.81721c0.31204,0.26672 0.69651,0.45969 0.98032,0.769c0.39386,0.17883 0.71224,0.47109 1.06838,0.70664c0.34037,0.2242 0.70593,0.44552 1.05573,0.65557c0.36556,0.22137 0.74054,0.42853 1.13129,0.64711c0.35923,0.19584 0.72478,0.41719 1.09347,0.59884c0.3844,0.19299 0.77192,0.3463 1.16578,0.52513c0.40962,0.19017 0.77827,0.37182 1.20984,0.49392z" fill="url(#color-11)"/><path d="M223.77175,186.90333c-0.07246,-0.03123 -0.13551,-0.07663 -0.22371,-0.11919c-0.16987,0.1503 -0.29243,0.33459 -0.3772,0.56716c-0.01256,0.05388 -0.00932,0.11913 -0.03759,0.16165c-0.23899,0.28923 -0.33615,0.68068 -0.52785,1.00397c-0.19803,0.29777 -0.31726,0.6523 -0.46806,0.98408c-0.01886,0.02835 -0.0314,0.08226 -0.05024,0.11061c-0.25477,0.27788 -0.3173,0.65226 -0.52474,0.96422c-0.12256,0.18434 -0.22309,0.40557 -0.28262,0.63531c-0.04392,0.1361 -0.10358,0.26092 -0.16962,0.36018c-0.08486,0.1276 -0.17606,0.2297 -0.18214,0.41408c0.00321,0.06521 -0.05971,0.12479 -0.09742,0.18151c-0.20744,0.31195 -0.32034,0.69201 -0.4963,1.02664c-0.11939,0.24956 -0.18201,0.51903 -0.34866,0.73453c-0.11948,0.14463 -0.10347,0.36587 -0.23241,0.52468c-0.11006,0.13044 -0.22954,0.27505 -0.21988,0.47079c-0.01256,0.05388 -0.0408,0.09642 -0.06908,0.13896c-0.21689,0.3261 -0.36135,0.68343 -0.4994,1.06637c-0.03141,0.08224 -0.09427,0.14179 -0.11626,0.20983c-0.08486,0.1276 -0.19489,0.25809 -0.20097,0.44244c-0.00312,0.0397 -0.03139,0.08225 -0.05025,0.1106c-0.12256,0.18434 -0.27038,0.37149 -0.29841,0.62394c-0.25475,0.27789 -0.34246,0.65513 -0.50894,0.97557c-0.1665,0.32045 -0.38972,0.62105 -0.46804,0.98409c-0.02506,0.10777 -0.10685,0.19567 -0.16341,0.28077c-0.15126,-0.08798 -0.18923,-0.24115 -0.29014,-0.33479c0.31725,-0.65228 0.59993,-1.28759 0.89833,-1.9115c0.32039,-0.692 0.64708,-1.35848 0.98317,-2.03912c0.30785,-0.63813 0.5999,-1.28758 0.892,-1.93705c0.37063,-0.80261 0.71606,-1.60239 1.07723,-2.39082c0.27956,-0.59559 0.55914,-1.19114 0.82288,-1.79807c0.4303,-0.92741 0.93307,-1.82359 1.33184,-2.77369c0.05966,-0.12477 0.08784,-0.27227 0.21998,-0.36583c0.14185,0.10214 0.25536,0.24685 0.37835,0.37738c0.05995,0.08511 0.22062,0.15889 0.29956,0.32062z" fill="#87d7dc"/><path d="M217.52179,200.64704c0.34979,0.21001 0.64614,0.46539 1.00536,0.66119c0.41593,0.21572 0.84131,0.41722 1.32322,0.53369c-0.54694,0.82241 -1.08446,1.63064 -1.61253,2.4247c-0.27708,0.03115 -0.51968,-0.05975 -0.75593,-0.12505c-0.44732,-0.13345 -0.82864,-0.36616 -1.22572,-0.61023c-0.01578,-0.01136 -0.03783,-0.04821 -0.04419,-0.07376c0.1984,0.01709 0.22657,-0.13039 0.27048,-0.26656c0.1098,-0.34037 0.23535,-0.66933 0.43972,-0.94158c0.03772,-0.05671 0.07544,-0.11343 0.09738,-0.1815c0.08463,-0.33753 0.28898,-0.60975 0.42087,-0.91323c0.07225,-0.17864 0.11608,-0.31479 0.08125,-0.50769z" fill="#61afb4"/><path d="M224.78957,184.8472c0.49498,0.48236 1.05595,0.86544 1.57923,1.30525c0.24268,0.19579 0.51373,0.34905 0.78475,0.50232c0.49164,0.31219 0.96127,0.69239 1.49064,0.94782c0.20797,0.10786 0.41593,0.21572 0.61757,0.29805c0.12919,0.05111 0.24891,0.11634 0.35924,0.19584c-0.01249,0.05388 -0.01565,0.09359 -0.03453,0.12196c-0.07545,0.11341 -0.15085,0.22687 -0.22627,0.34033c-0.10708,-0.01419 -0.18898,-0.03129 -0.28663,-0.05965c-0.68045,-0.23845 -1.37674,-0.48831 -1.99136,-0.931c-0.54527,-0.37175 -1.1062,-0.75483 -1.61376,-1.1833c-0.40666,-0.33485 -0.82271,-0.6555 -1.13815,-1.0924c0.09764,0.02836 0.16392,0.13903 0.28352,0.09935c0.13524,-0.13327 0.30512,-0.28355 0.17569,-0.54454z" fill="url(#color-12)"/><path d="M224.53597,186.06961c0.28677,0.16463 0.48232,0.43131 0.74078,0.63844c0.55793,0.42283 1.11578,0.84565 1.70198,1.2259c0.47585,0.30082 0.97371,0.53355 1.47464,0.7266c0.12919,0.05111 0.25833,0.10218 0.38751,0.15328c-0.13201,0.19851 -0.24515,0.36871 -0.36777,0.55301c-0.30228,0.03394 -0.5858,-0.06548 -0.86626,-0.20449c-0.33714,-0.15893 -0.69001,-0.32924 -1.01463,-0.54208c-0.74686,-0.45409 -1.4214,-0.9819 -2.12115,-1.50686c-0.12606,-0.0908 -0.25216,-0.18162 -0.31532,-0.33196c0.04716,-0.07091 0.11003,-0.13046 0.11623,-0.20986c0.03127,-0.18719 0.1602,-0.34603 0.2639,-0.50197z" fill="url(#color-13)"/><path d="M217.52178,200.64703c0.02855,0.1674 0.00036,0.31484 -0.07817,0.468c-0.13189,0.30344 -0.33628,0.5757 -0.42086,0.91321c-0.02197,0.06808 -0.05969,0.12483 -0.09741,0.18153c-0.19802,0.2978 -0.31415,0.61256 -0.43972,0.94156c-0.03451,0.12196 -0.07207,0.28365 -0.2705,0.26656c-0.24581,-0.1561 -0.44759,-0.34334 -0.6053,-0.5618c0.08474,-0.2326 0.15375,-0.47649 0.31726,-0.65231c0.01886,-0.02835 0.03141,-0.08224 0.05026,-0.11061c0.14132,-0.31762 0.29207,-0.64947 0.44916,-0.95577c0.0691,-0.13896 0.14457,-0.25238 0.19793,-0.40272c0.05648,-0.19 0.15387,-0.37155 0.3364,-0.47077c0.08821,0.04259 0.15124,0.08797 0.22369,0.11922c0.11029,0.07946 0.22697,0.18445 0.33726,0.26387z" fill="#87d7dc"/><path d="M229.78237,178.25113c0.05711,0.33473 -0.01496,0.6183 -0.10285,0.89064c-0.02196,0.06807 -0.07856,0.15316 -0.13202,0.19852c-0.39953,0.32041 -0.73606,0.6862 -1.0568,1.06334c-0.00945,0.01418 -0.04404,0.03118 -0.06925,0.03404c-0.09132,-0.00287 -0.17013,-0.0596 -0.22064,-0.1589c0.01886,-0.02835 0.02195,-0.0681 0.04083,-0.09644c0.24211,-0.32891 0.43691,-0.69196 0.54349,-1.09753c0.0659,-0.2042 0.16963,-0.3602 0.36158,-0.47359c0.21714,-0.11622 0.387,-0.26651 0.6357,-0.36005z" fill="#cce5e6"/><path d="M227.41289,179.71114c-0.12285,-0.02555 -0.17645,-0.08513 -0.19545,-0.16172c0.42115,-0.70331 0.42113,-0.70332 0.56504,-1.48046c0.19184,-0.21837 0.46244,-0.37994 0.69214,-0.55004c0.12919,0.05111 0.08834,0.14751 0.09156,0.21276c0.00659,0.23542 0.02258,0.45668 -0.01179,0.6836c-0.02817,0.14752 -0.07844,0.25809 -0.18536,0.34881c-0.33032,0.28639 -0.65428,0.5983 -0.95618,0.94707z" fill="#cce5e6"/><path d="M217.16878,200.37179c-0.07246,-0.03123 -0.13553,-0.07664 -0.2237,-0.11921c-0.18253,0.09921 -0.27992,0.2807 -0.33639,0.47077c-0.05335,0.15034 -0.12877,0.26375 -0.19794,0.40273c-0.15709,0.3063 -0.30784,0.6381 -0.44916,0.95575c-0.01886,0.02835 -0.0314,0.08227 -0.05028,0.11062c-0.1572,0.20134 -0.21678,0.43105 -0.31729,0.65226c-0.10723,-0.11914 -0.19867,-0.227 -0.26816,-0.40289c0.21678,-0.43107 0.41145,-0.89906 0.6534,-1.33297c0.21678,-0.43107 0.3705,-0.90755 0.65339,-1.33295c0.24268,0.19578 0.39409,0.38871 0.53607,0.59579z" fill="#60adb2"/><path d="M230.35596,183.90719c0.07246,0.03123 0.12919,0.05112 0.20164,0.08233c0.01268,0.05107 0.01897,0.07658 0.02529,0.10209c-0.09725,0.28646 -0.13782,0.59281 -0.16267,0.91043c-0.01873,0.1333 -0.05955,0.22976 -0.17283,0.29495c-0.21083,0.14175 -0.39952,0.32041 -0.71757,0.34299c-0.06649,-0.32054 -0.02595,-0.62688 0.03041,-0.92184c0.01249,-0.05388 0.07546,-0.11341 0.12892,-0.15879c0.21697,-0.22118 0.43406,-0.44239 0.66685,-0.6522z" fill="#cce5e6"/><path d="M232.96243,180.4787c-0.03124,0.18718 -0.04058,0.30633 -0.05932,0.43966c-0.0438,0.24109 -0.14119,0.42259 -0.36777,0.55302c-0.36815,0.23812 -0.69845,0.52457 -0.93419,0.87902c-0.07545,0.11342 -0.10063,0.11624 -0.28033,-0.03411c0.02831,-0.04255 0.0408,-0.09642 0.06913,-0.13897c0.25151,-0.34314 0.43055,-0.71748 0.56232,-1.12591c0.04085,-0.09643 0.07223,-0.17867 0.15087,-0.22692c0.26753,-0.12191 0.50353,-0.26645 0.85929,-0.34574z" fill="#cae2e3"/><path d="M229.26296,181.06472c-0.00631,-0.02551 -0.00322,-0.06529 0.00621,-0.07944c0.2484,-0.30341 0.39283,-0.66076 0.51209,-1.01531c0.12555,-0.32897 0.30475,-0.59842 0.6415,-0.75428c0.16366,-0.07084 0.28313,-0.2155 0.46892,-0.24945c0.05413,0.47938 -0.10919,0.86508 -0.42696,1.09758c-0.38069,0.29204 -0.76768,0.55854 -1.02541,0.98113c-0.04404,0.0312 -0.0818,0.08788 -0.17634,0.01981z" fill="#c9e1e2"/><path d="M231.84991,179.69836c0.00671,0.34039 -0.06227,0.58429 -0.14071,0.84237c-0.03141,0.08224 -0.07855,0.15313 -0.14779,0.18716c-0.40588,0.29487 -0.78963,0.62661 -1.14192,0.98104c-0.01886,0.02835 -0.06288,0.05955 -0.13226,-0.0114c0.06601,-0.09925 0.14144,-0.21267 0.19171,-0.32328c0.17285,-0.29492 0.32991,-0.60123 0.41452,-0.93876c0.06896,-0.24393 0.20734,-0.41688 0.43082,-0.50758c0.16366,-0.07084 0.31789,-0.12757 0.52562,-0.22962z" fill="#c9e1e2"/><path d="M231.44305,184.4805c0.14172,-0.00276 0.22051,0.05399 0.29929,0.11073c0.00632,0.0255 0.00325,0.06526 0.00954,0.09076c-0.11937,0.24958 -0.16626,0.53037 -0.14699,0.81685c0.00335,0.17018 -0.05635,0.29498 -0.18849,0.38854c-0.16674,0.11058 -0.32717,0.2467 -0.51604,0.3204c-0.08847,-0.25246 -0.14248,-0.62694 -0.09854,-0.76307c0.01562,-0.09359 0.08486,-0.12762 0.1478,-0.18715c0.14456,-0.25238 0.37734,-0.46225 0.49347,-0.77701z" fill="#cae3e4"/><path d="M225.43121,181.53443c0.30844,-0.11336 0.56966,-0.26075 0.82453,-0.43371c0.11338,0.03973 0.17648,0.08516 0.22697,0.18444c-0.09092,0.31196 -0.32052,0.58703 -0.3957,0.91037c-0.18253,0.09919 -0.36517,0.09349 -0.55091,0.1275c-0.10073,0.01132 -0.19514,0.04816 -0.31492,-0.01712c-0.00347,-0.27515 0.16316,-0.49064 0.21007,-0.77145z" fill="#c8e0e1"/><path d="M228.3958,182.68412c0.13239,0.11631 0.11044,0.18441 0.08849,0.25246c-0.07841,0.25813 -0.1474,0.50199 -0.24155,0.74875c-0.02196,0.06808 -0.05968,0.1248 -0.12892,0.15882c-0.21402,0.07649 -0.44382,0.14167 -0.67996,0.18134c-0.02218,-0.14181 0.01862,-0.23828 0.02794,-0.3574c0.02794,-0.35737 0.17246,-0.60979 0.52819,-0.68912c0.17001,-0.04533 0.29582,-0.16442 0.40586,-0.29488z" fill="#cbe4e5"/><path d="M227.40301,181.96902c0.07881,0.05673 0.12607,0.09078 0.17335,0.12482c-0.00312,0.0397 0.01897,0.0766 0.00955,0.09077c-0.07225,0.17864 -0.16018,0.34602 -0.2324,0.52469c-0.04085,0.09644 -0.10376,0.15598 -0.19818,0.19281c-0.28327,0.11054 -0.57292,0.19553 -0.90979,0.2465c-0.02546,-0.20708 0.04367,-0.34602 0.11277,-0.48498c0.03772,-0.05668 0.07547,-0.11342 0.13521,-0.13327c0.35575,-0.07931 0.63891,-0.2948 0.90943,-0.56134z" fill="#c8e0e1"/><path d="M224.53597,186.06961c-0.10374,0.15597 -0.23268,0.31479 -0.25758,0.52754c-0.00619,0.07943 -0.06912,0.13892 -0.11624,0.20985c-0.27731,-0.17879 -0.50118,-0.40294 -0.67154,-0.67248c0.16355,-0.1758 0.23252,-0.41969 0.31414,-0.61255c0.15746,0.00855 0.23948,0.13056 0.35288,0.17028c0.15126,0.08798 0.29943,0.21568 0.37836,0.37736z" fill="#85d5d9"/><path d="M233.69797,182.03617c-0.22025,0.15594 -0.44047,0.3119 -0.65443,0.49335c-0.1793,0.16446 -0.2041,0.48213 -0.58196,0.52453c0.3206,-0.48209 0.4932,-0.98695 0.66582,-1.49178c0.18253,-0.09919 0.39023,-0.20128 0.63271,-0.21536c0.01268,0.05107 0.01899,0.0766 0.02531,0.10209c-0.01551,0.19852 -0.04675,0.38578 -0.08744,0.58709z" fill="#c6dede"/><path d="M229.78801,177.75187c-0.27066,0.16161 -0.50659,0.30617 -0.77725,0.46779c-0.06947,-0.17587 -0.04132,-0.32339 -0.06354,-0.4652c-0.01282,-0.156 -0.0665,-0.32057 -0.02891,-0.4822c0.06601,-0.09925 0.18561,-0.13894 0.28946,-0.18997c0.10385,-0.05103 0.22348,-0.09067 0.35887,-0.11903c0.16404,0.24398 0.17693,0.50495 0.22137,0.78864z" fill="#cae3e3"/><path d="M226.38548,179.01307c0.17258,-0.50486 0.29801,-0.93879 0.31946,-1.42664c0.18566,-0.13893 0.35551,-0.28919 0.55057,-0.4423c0.12943,0.261 0.09507,0.48791 0.10163,0.7233c-0.00312,0.0397 -0.03141,0.08226 -0.05027,0.11059c-0.28302,0.32043 -0.56606,0.6409 -0.9214,1.03503z" fill="#cae3e4"/><path d="M228.47391,184.7746c-0.00671,-0.34039 0.00866,-0.64388 0.3391,-0.8253c0.22658,-0.13041 0.3838,-0.33176 0.541,-0.53309c0.05659,-0.08508 0.14479,-0.04253 0.22051,0.05396c-0.18237,0.20418 -0.24507,0.47363 -0.30772,0.74309c-0.04068,0.20138 -0.15704,0.30629 -0.32074,0.37717c-0.13848,0.06802 -0.25488,0.17293 -0.47218,0.18421z" fill="#c8e0e1"/><path d="M224.78958,184.84718c0.12,0.27519 -0.04045,0.41124 -0.16938,0.57006c-0.11958,0.03966 -0.19529,-0.05676 -0.2835,-0.09933c-0.19543,-0.16172 -0.3468,-0.35468 -0.47936,-0.57599c0.11948,-0.14463 0.1602,-0.34597 0.33327,-0.43104c0.08822,0.0426 0.13552,0.07664 0.19854,0.12203c0.13875,0.14187 0.27748,0.2837 0.40044,0.41425z" fill="url(#color-14)"/><path d="M227.12131,183.33895c-0.04691,0.28079 -0.10644,0.51053 -0.15023,0.75163c-0.24557,0.0538 -0.49743,0.08212 -0.74624,0.07065c-0.09147,-0.10782 -0.06638,-0.21558 -0.07594,-0.30634c-0.00955,-0.09077 -0.01912,-0.18153 0.06268,-0.26943c0.23924,-0.07931 0.54457,-0.15299 0.90977,-0.2465z" fill="#c7dfe0"/><path d="M229.13329,185.81581c-0.20465,0.06233 -0.39347,0.136 -0.63594,0.15015c-0.10427,-0.26383 -0.06988,-0.49072 -0.05759,-0.7545c0.22346,-0.0907 0.44694,-0.18141 0.67987,-0.28628c0.02555,0.31201 0.01328,0.57584 0.01365,0.89066z" fill="#c8e0e1"/><path d="M230.84625,177.84296c0.05061,0.20427 0.10123,0.40848 0.07631,0.62122c-0.22658,0.13041 -0.4689,0.24945 -0.72066,0.3827c-0.0315,-0.0227 -0.06301,-0.0454 -0.05357,-0.05959c-0.00969,-0.19573 -0.00992,-0.4056 -0.00386,-0.58997c0.00621,-0.07943 0.02816,-0.14752 0.08795,-0.16734c0.20771,-0.10203 0.36815,-0.23814 0.61386,-0.18704z" fill="#c4dcdd"/><path d="M232.96507,180.01925c-0.24866,0.09352 -0.48157,0.19839 -0.73024,0.29192c-0.09774,-0.13334 -0.02232,-0.24676 -0.01302,-0.36591c0.00931,-0.11911 0.04379,-0.24111 0.06252,-0.3744c0.19196,-0.1134 0.42499,-0.11326 0.64539,-0.16429c0.10733,0.22407 0.07606,0.4113 0.03535,0.61266z" fill="#c8e0e1"/><path d="M229.62159,186.06267c0.24235,-0.11903 0.45953,-0.23529 0.71127,-0.3685c0.08217,0.22692 0.05719,0.43968 0.1236,0.65529c-0.19508,0.15308 -0.43754,0.16721 -0.67676,0.24653c-0.101,-0.19857 -0.17993,-0.36029 -0.15807,-0.5333z" fill="#c6ddde"/><path d="M232.57098,184.95739c-0.00272,0.35457 -0.10308,0.68073 -0.03968,1.04098c-0.16042,0.13612 -0.2957,0.26939 -0.50974,0.3459c-0.12309,-0.23546 -0.14855,-0.44257 0.02441,-0.63252c0.21699,-0.22116 0.35523,-0.4991 0.52499,-0.75435z" fill="#b9cfd0"/><path d="M225.63504,178.17891c-0.06626,-0.11065 0.02813,-0.14753 0.05012,-0.21555c0.05337,-0.15031 0.12244,-0.28927 0.08448,-0.4425c-0.02234,-0.24679 0.09711,-0.3914 0.24182,-0.53885c0.06293,-0.05955 0.14159,-0.10776 0.23911,-0.18431c0.10117,0.30355 0.16442,0.55886 -0.07775,0.78284c-0.16986,0.1503 -0.28616,0.36015 -0.42449,0.53312c-0.02832,0.04253 -0.05658,0.08509 -0.11328,0.06521z" fill="#c0d8d8"/><path d="M224.48005,181.35262c0.00608,-0.18439 0.05,-0.3205 0.12542,-0.43394c0.03772,-0.05668 0.08486,-0.12766 0.14466,-0.14747c0.26444,-0.08217 0.491,-0.21258 0.71758,-0.34299c0.11029,0.07948 0.05683,0.1248 0.02854,0.16739c-0.0943,0.1418 -0.19802,0.29779 -0.26081,0.46228c-0.09107,0.20702 -0.22322,0.3006 -0.44683,0.28636c-0.10708,-0.0142 -0.18265,-0.00573 -0.30855,0.00841z" fill="#c1d9d9"/><path d="M228.03944,184.90208c-0.19824,0.08786 -0.39982,0.11047 -0.62017,0.16147c-0.11676,-0.20992 -0.06028,-0.39992 -0.07,-0.59568c0.23291,-0.10489 0.49111,-0.10766 0.75244,-0.1501c0.01601,0.22126 -0.03101,0.39713 -0.06226,0.58433z" fill="#c3dbdc"/><path d="M231.23237,179.50526c0.03745,-0.26665 0.08128,-0.50774 0.10932,-0.76017c0.14791,-0.08225 0.28638,-0.15022 0.48479,-0.13318c0.06638,0.21561 0.05088,0.41414 0.05117,0.62406c-0.18566,0.13892 -0.38387,0.22681 -0.6452,0.26926z" fill="#c3dadb"/><path d="M226.20314,184.54412c0.24248,-0.01411 0.45972,-0.02537 0.67698,-0.03666c0.09158,0.21276 0.07607,0.41131 0.06056,0.60984c-0.19518,0.04817 -0.38724,0.05663 -0.60138,0.02816c-0.02841,-0.06241 -0.06314,-0.15037 -0.07582,-0.20141c-0.0222,-0.14182 -0.02234,-0.24678 -0.06031,-0.39997z" fill="#c4dbdc"/><path d="M224.8025,179.7813c-0.1792,0.26942 -0.32066,0.48213 -0.47148,0.70901c-0.14481,0.04252 -0.28652,0.04528 -0.4566,-0.01434c-0.04737,-0.13899 0.05014,-0.21555 0.07522,-0.32333c0.02505,-0.10776 0.06588,-0.2042 0.113,-0.27513c0.25193,-0.02832 0.45344,-0.05094 0.73993,-0.09622z" fill="#c2d9da"/><path d="M229.95074,176.84143c0.13848,-0.06802 0.27382,-0.09639 0.40611,-0.08497c0.1355,0.07664 0.14194,0.20715 0.19246,0.3064c0.05052,0.09925 0.13561,0.18157 0.11687,0.31487c-0.12582,0.1191 -0.321,0.16723 -0.53505,0.24381c-0.03167,-0.12768 -0.0633,-0.25533 -0.10435,-0.3688c-0.02218,-0.14181 -0.04445,-0.28365 -0.07609,-0.41132z" fill="#c5ddde"/><path d="M228.08491,186.02538c-0.17311,0.08505 -0.32749,0.03678 -0.4786,0.05376c-0.12618,-0.19577 -0.15163,-0.40285 -0.18344,-0.63544c0.18574,-0.034 0.37152,-0.06795 0.54155,-0.11329c0.12308,0.23546 0.08873,0.46241 0.1205,0.69497z" fill="#c3dbdc"/><path d="M227.75033,177.52152c-0.03478,-0.08796 -0.04742,-0.13898 -0.0601,-0.19003c-0.01587,-0.11629 -0.02234,-0.2468 -0.04455,-0.38862c0.24235,-0.11903 0.4374,-0.27217 0.71449,-0.30328c0.09147,0.10782 0.0916,0.21277 0.0886,0.35742c-0.20448,0.16728 -0.44361,0.35155 -0.69843,0.52455z" fill="#c7dfe0"/><path d="M225.7702,183.2676c-0.23302,-0.00008 -0.42186,0.07359 -0.64237,0.01964c-0.08523,-0.18725 0.0027,-0.35454 -0.05101,-0.51908c0.26444,-0.08216 0.49744,-0.08212 0.74935,-0.1104c0.07273,0.24116 -0.031,0.39709 -0.05592,0.60985z" fill="#c7dee0"/><path d="M224.16714,185.6781c-0.1134,-0.03973 -0.19542,-0.16174 -0.35288,-0.17027c-0.09107,0.20702 -0.17583,0.43958 -0.31415,0.61256c-0.05362,-0.05958 -0.12297,-0.13053 -0.16717,-0.20425c-0.06626,-0.11065 -0.08212,-0.22694 -0.01613,-0.32623c0.09738,-0.1815 0.18534,-0.34882 0.28279,-0.53033c0.20488,0.14756 0.29,0.22985 0.56758,0.61854z" fill="#61acb1"/><path d="M233.88559,180.91299c-0.20465,0.06233 -0.37458,0.10765 -0.59498,0.15865c0.02803,-0.25243 0.04664,-0.49067 0.09043,-0.73178c0.1542,-0.05671 0.29907,-0.09917 0.46594,-0.10482c0.07272,0.24114 0.0572,0.43965 0.03861,0.67792z" fill="#c2dada"/><path d="M224.35136,181.72131c0.20465,-0.06233 0.38726,-0.0566 0.60457,-0.06785c-0.06896,0.24393 -0.1191,0.45949 -0.16925,0.67507c-0.14791,0.08224 -0.28652,0.0453 -0.45973,0.02537c-0.07584,-0.20141 -0.01936,-0.39148 0.02442,-0.63252z" fill="#c1d9d9"/><path d="M232.30893,179.14818c-0.04751,-0.24396 -0.06665,-0.42549 -0.1015,-0.61839c0.14159,-0.10775 0.33366,-0.1162 0.52577,-0.12463c0.09466,0.17305 0.16414,0.34893 0.1644,0.55885c-0.16044,0.13611 -0.3652,0.09348 -0.58865,0.18421z" fill="#c6dedf"/><path d="M229.37362,186.68098c-0.19517,0.04816 -0.3967,0.07079 -0.58244,0.10479c-0.13239,-0.11631 -0.18923,-0.24115 -0.21779,-0.40855c0.18566,-0.13892 0.42499,-0.11327 0.63905,-0.18984c0.10413,0.15888 0.11688,0.31487 0.1612,0.49359z" fill="#c0d7d7"/><path d="M227.19529,176.74417c-0.16675,0.11057 -0.2957,0.26935 -0.53181,0.30905c-0.02855,-0.1674 -0.06649,-0.3206 -0.10448,-0.47373c0.11317,-0.17012 0.28625,-0.25518 0.48775,-0.27779c0.09777,0.13335 0.12942,0.26098 0.14856,0.4425z" fill="#c3dadb"/><path d="M224.40489,184.44428c-0.06304,-0.04542 -0.13551,-0.07663 -0.19858,-0.12203c-0.17312,0.08505 -0.2138,0.28639 -0.33327,0.43104c-0.11974,-0.06528 -0.12619,-0.19578 -0.22706,-0.28939c0.05956,-0.22973 0.21997,-0.36585 0.23226,-0.62963c0.167,0.09934 0.23327,0.20994 0.31532,0.33197c0.05996,0.0851 0.18911,0.13625 0.2113,0.27804z" fill="url(#color-15)"/><path d="M232.80319,186.78137c-0.16675,0.11057 -0.29572,0.26938 -0.50664,0.30618c-0.09147,-0.10782 -0.11678,-0.20998 -0.15478,-0.36312c0.13526,-0.13329 0.30203,-0.24386 0.48143,-0.30338c0.09147,0.10783 0.12619,0.19577 0.17992,0.36029z" fill="#bdd3d4"/><path d="M226.52558,185.53132c0.16692,-0.00562 0.31805,-0.02258 0.46915,-0.03956c0.09467,0.17307 0.12323,0.34044 0.14235,0.52195c-0.12271,0.07937 -0.25194,0.02831 -0.36222,-0.05115c-0.14185,-0.10213 -0.28364,-0.20428 -0.24929,-0.43122z" fill="#bdd4d5"/><path d="M234.42926,182.58384c-0.19196,0.11338 -0.3745,0.21262 -0.56641,0.32601c0.04042,-0.41125 0.14085,-0.73742 0.61632,-0.75146c0.04737,0.13899 -0.0123,0.26379 -0.04989,0.42543z" fill="#bbd2d3"/><path d="M225.27687,184.14959c-0.08833,-0.14753 -0.0948,-0.27802 -0.10122,-0.4085c0.06601,-0.09925 0.16369,-0.07086 0.26444,-0.08215c0.07555,-0.00848 0.16053,-0.03115 0.26454,0.02279c0.08833,0.14753 -0.00591,0.2893 0.07299,0.451c-0.17943,0.05955 -0.33687,0.05097 -0.50066,0.01691z" fill="#c3dadb"/><path d="M229.66312,181.26905c0.20129,-0.2325 0.40252,-0.46504 0.66683,-0.65217c0.08509,0.08228 0.05376,0.16457 0.00657,0.23541c-0.10685,0.19567 -0.22939,0.37999 -0.34256,0.55015c-0.08486,0.1276 -0.19831,0.08788 -0.33081,-0.13341z" fill="#b1c6c7"/><path d="M230.25301,187.35632c0.10692,-0.09074 0.2298,-0.06519 0.33997,-0.09067c0.20464,-0.06235 0.3559,0.02563 0.49786,0.23279c-0.22658,0.1304 -0.50057,0.12179 -0.73357,0.12174c-0.10089,-0.09363 -0.12932,-0.15606 -0.10426,-0.26382z" fill="#bbd2d3"/><path d="M231.86913,182.64825c0.11613,-0.31482 0.38674,-0.4764 0.65105,-0.66355c-0.03746,0.26664 -0.17894,0.4793 -0.29517,0.68917c-0.06912,0.13896 -0.13526,0.13331 -0.35587,-0.02564z" fill="#bad1d2"/><path d="M233.26483,185.77174c0.03486,0.1929 0.08859,0.35744 0.12348,0.55029c-0.06291,0.05955 -0.17622,0.12476 -0.27373,0.20131c-0.23651,-0.27521 -0.22708,-0.28939 -0.08873,-0.46241c0.06603,-0.09924 0.14781,-0.18716 0.239,-0.28923z" fill="#b5cbcc"/><path d="M232.32599,177.54564c0.12928,0.15606 0.17672,0.29507 0.2241,0.43404c-0.13215,0.09358 -0.29595,0.05945 -0.46284,0.06509c-0.06319,-0.15034 -0.11052,-0.28933 -0.1737,-0.43968c0.10063,-0.11626 0.26129,-0.0425 0.41248,-0.05945z" fill="#c0d7d8"/><path d="M231.55845,186.19947c0.07566,0.09646 0.09162,0.21276 0.09806,0.34325c-0.16987,0.15027 -0.3839,0.22683 -0.61062,0.25225c-0.11974,-0.06528 -0.12297,-0.13051 -0.10732,-0.22408c0.20135,-0.1276 0.40276,-0.25517 0.61992,-0.37139z" fill="#bdd4d4"/><path d="M234.23502,180.80816c-0.00969,-0.19573 0.00581,-0.39425 -0.00385,-0.58999c0.1102,-0.02549 0.20784,0.00289 0.3024,0.07097c0.07566,0.09645 0.06008,0.19005 0.0602,0.29499c-0.00621,0.07943 -0.0124,0.15883 -0.0186,0.23827c-0.10389,0.05104 -0.20464,0.06235 -0.34015,-0.01429z" fill="#b6cccc"/><path d="M231.31913,178.28846c-0.03485,-0.19289 -0.0634,-0.36024 -0.11404,-0.56451c0.07232,-0.07373 0.1762,-0.12478 0.34633,-0.06514c0.0632,0.15035 0.1169,0.31488 0.18639,0.49074c-0.13848,0.06802 -0.25178,0.13325 -0.41866,0.13885z" fill="#c1d9d9"/><path d="M234.57296,181.70168c-0.13848,0.06802 -0.25809,0.10773 -0.41555,0.09915c-0.03486,-0.1929 0.02795,-0.3574 0.05609,-0.50488c0.10692,-0.09074 0.22035,-0.05098 0.32744,-0.03678c0.03783,0.04823 0.06937,0.07094 0.05996,0.08511c-0.00933,0.1191 -0.01861,0.23824 -0.02795,0.3574z" fill="#b7cdce"/><path d="M234.59734,183.52282c-0.02232,-0.2468 0.06251,-0.3744 0.11586,-0.52472c0.04702,-0.17585 0.17931,-0.16446 0.33675,-0.15592c0.03486,0.1929 -0.01849,0.3432 -0.03091,0.50206c-0.12582,0.11908 -0.31171,0.04812 -0.42176,0.17857z" fill="#b6cccc"/><path d="M231.96598,187.26891c-0.15422,0.05669 -0.27382,0.09636 -0.40288,0.15023c-0.15126,-0.08798 -0.24581,-0.1561 -0.30898,-0.30643c0.17943,-0.05952 0.34309,-0.13038 0.4973,-0.18707c0.17012,0.05958 0.17654,0.1901 0.26169,0.27235c-0.01886,0.02835 -0.02196,0.06809 -0.04714,0.07093z" fill="#c2dada"/><path d="M231.33677,177.21061c-0.11328,0.06517 -0.18884,0.0737 -0.28652,0.04532c-0.104,-0.05395 -0.12927,-0.15604 -0.17981,-0.25532c-0.03476,-0.08796 -0.13564,-0.18158 -0.08539,-0.29219c0.13537,-0.0283 0.27706,-0.03112 0.43778,0.04268c0.05374,0.16454 0.07594,0.30638 0.11392,0.45956z" fill="#bbd2d3"/><path d="M224.28014,182.73957c0.15745,0.00856 0.27398,0.0086 0.40625,0.01997c0.04432,0.17872 0.03187,0.33755 0.03524,0.50777c-0.11959,0.03967 -0.23614,0.03965 -0.34641,-0.03985c-0.0221,-0.03688 -0.04416,-0.07375 -0.04108,-0.11348c-0.02531,-0.10209 -0.04118,-0.21846 -0.05398,-0.37445z" fill="#bbd2d3"/><path d="M233.69968,186.06395c-0.08539,-0.29219 -0.08539,-0.2922 -0.00384,-0.58997c0.15423,-0.05668 0.28975,0.01996 0.45983,0.07958c-0.08475,0.23258 -0.28613,0.36014 -0.45599,0.51041z" fill="#adc2c3"/><path d="M225.41276,184.54109c0.11959,-0.03967 0.25194,-0.02827 0.37163,0.03702c0.04432,0.17872 0.08231,0.33186 0.1108,0.49921c-0.36221,-0.05115 -0.37797,-0.06248 -0.48248,-0.53621z" fill="#b5cbcc"/><path d="M233.82129,179.81811c-0.14481,0.04253 -0.255,0.06799 -0.41247,0.05942c-0.0789,-0.16165 -0.04131,-0.32338 -0.06042,-0.50492c0.05981,-0.01983 0.11016,-0.02547 0.16054,-0.03116c0.05039,-0.00567 0.10709,0.01419 0.17324,0.0199c0.11354,0.14471 0.13573,0.2865 0.13911,0.45673z" fill="#bbd1d2"/><path d="M223.77782,181.39209c-0.09157,-0.21277 0.00582,-0.39426 0.00245,-0.56445c0.12904,-0.05384 0.24881,0.01142 0.38111,0.02282c0.0066,0.23542 -0.05621,0.39992 -0.20722,0.52183c-0.02831,0.04254 -0.11018,0.0255 -0.17631,0.01981z" fill="#b6cccd"/><path d="M228.2495,176.2452c-0.23291,0.10489 -0.47215,0.18421 -0.6956,0.2749c-0.10089,-0.09365 -0.13563,-0.18155 -0.13267,-0.32622c0.26129,-0.0425 0.52262,-0.08493 0.80293,-0.05083c0.01266,0.05109 0.019,0.0766 0.02532,0.1021z" fill="#acc1c2"/><path d="M231.34803,181.43408c-0.07532,0.2184 -0.16638,0.42543 -0.3205,0.58703c-0.06293,0.05955 -0.1479,0.08222 -0.22667,0.02549c-0.03148,-0.02269 -0.07567,-0.09646 -0.06627,-0.11066c0.12569,-0.22403 0.37745,-0.35729 0.61345,-0.50187z" fill="#a7bbbb"/><path d="M233.63131,178.94721c-0.08811,0.06238 -0.19518,0.04817 -0.31802,0.0226c-0.05374,-0.16454 -0.10746,-0.32907 -0.1612,-0.49359c0.13848,-0.06802 0.24246,-0.0141 0.35275,0.06535c0.06626,0.11065 0.10426,0.26381 0.12644,0.40568z" fill="#b7cdcd"/><path d="M227.65725,186.49327c0.17312,-0.08505 0.33057,-0.07646 0.50381,-0.05659c0.09777,0.13335 0.15462,0.25818 0.13277,0.43118c-0.24569,-0.05114 -0.42536,-0.20154 -0.63657,-0.3746z" fill="#b7cece"/><path d="M223.74405,179.4803c0.00283,-0.24961 0.18847,-0.38853 0.20395,-0.58709c0.11958,-0.03966 0.17322,0.01993 0.17646,0.08518c0.00336,0.17019 -0.01847,0.34323 -0.11279,0.48498c-0.04405,0.0312 -0.0535,0.04536 -0.26767,0.01694z" fill="#b4cacb"/><path d="M228.8138,176.7985c-0.06626,-0.11063 -0.08525,-0.18723 -0.06966,-0.28083c0.20464,-0.06235 0.41866,-0.13884 0.71473,-0.09338c-0.14456,0.25238 -0.38069,0.29201 -0.64509,0.37421z" fill="#b2c8c9"/><path d="M224.74094,183.65871c0.06319,0.15034 0.10423,0.26382 0.07915,0.37159c-0.05348,0.04538 -0.11021,0.02552 -0.16692,0.00563c-0.2268,-0.07948 -0.23959,-0.23552 -0.22409,-0.43404c0.09764,0.02836 0.20475,0.04259 0.31182,0.05682z" fill="#b5cbcb"/><path d="M233.01929,183.26701c0.10683,-0.19568 0.21055,-0.35165 0.37099,-0.48773c0.08821,0.04259 0.09145,0.10781 0.06316,0.15035c-0.05027,0.11063 -0.08476,0.2326 -0.135,0.34318c-0.07545,0.11342 -0.15733,0.09635 -0.29914,-0.00581z" fill="#91a3a3"/><path d="M227.2195,178.67011c-0.00283,0.24961 -0.14118,0.4226 -0.25436,0.59273c-0.01886,0.02835 -0.06925,0.03402 -0.11019,0.02548c-0.0315,-0.0227 -0.05996,-0.0851 -0.05052,-0.09931c0.08475,-0.23258 0.23885,-0.3942 0.41505,-0.51895z" fill="#99abac"/><path d="M226.14254,178.60742c-0.14804,-0.02272 -0.22682,-0.0795 -0.21119,-0.17311c0.03451,-0.12196 0.16032,-0.24104 0.34593,-0.37998c0.01604,0.22128 -0.08772,0.37722 -0.13473,0.55306z" fill="#93a5a6"/><path d="M229.29897,187.42411c0.22981,-0.06514 0.45328,-0.15588 0.6615,0.16188c-0.23924,0.0793 -0.44409,-0.06821 -0.6615,-0.16188z" fill="#9aadad"/><path d="M230.79458,184.6845c0.02817,-0.1475 0.06575,-0.30915 0.08452,-0.44249c0.09443,-0.03683 0.15114,-0.01698 0.23626,0.06534c-0.00607,0.18441 -0.16341,0.28079 -0.23252,0.41976c-0.0315,-0.0227 -0.04727,-0.03407 -0.08825,-0.04258z" fill="#c5dddd"/><path d="M229.18319,180.16836c0.01924,0.28648 -0.10339,0.47083 -0.28898,0.60976c-0.00945,0.01418 -0.0504,0.00567 -0.08191,-0.01704c-0.05671,-0.01988 -0.05996,-0.08511 -0.04107,-0.11346c0.08794,-0.16734 0.24843,-0.30343 0.41195,-0.47926z" fill="#aec2c3"/><path d="M223.93256,181.75519c0.03486,0.1929 -0.01216,0.36873 -0.04977,0.53041c-0.09442,0.03685 -0.14806,-0.02275 -0.14186,-0.10216c0.00297,-0.14468 -0.00345,-0.27515 0.02472,-0.42262c-0.01266,-0.05109 0.06289,-0.05954 0.16689,-0.00562z" fill="#9caeaf"/><path d="M232.99416,178.04788c-0.11354,-0.14473 -0.17036,-0.2695 -0.22409,-0.43405c0.24258,0.09083 0.38765,0.25823 0.57675,0.39445c-0.04406,0.0312 -0.06295,0.05954 -0.0881,0.06235c-0.09132,-0.00287 -0.1732,-0.0199 -0.26452,-0.02274z" fill="#a9bebf"/><path d="M226.83566,181.56033c0.12919,0.05111 0.18276,0.11066 0.21752,0.19865c-0.07857,0.15313 -0.2107,0.24668 -0.46259,0.27498c0.08164,-0.19287 0.16652,-0.32046 0.24505,-0.47362z" fill="#b9cfd0"/><path d="M232.01963,184.76995c0.09442,-0.03683 0.1669,-0.00559 0.23935,0.02561c0.05994,0.08512 0.01281,0.156 -0.26083,0.46226c-0.13253,-0.22129 0.01848,-0.34322 0.02147,-0.48788z" fill="#869797"/><path d="M228.21877,179.51568c-0.19816,0.19283 -0.18836,0.4935 -0.52214,0.50474c0.0784,-0.25812 0.20731,-0.41689 0.52214,-0.50474z" fill="#93a4a5"/><path d="M234.30085,183.16243c-0.14144,0.21267 -0.23577,0.35447 -0.33005,0.49628c-0.01886,0.02835 -0.06925,0.03403 -0.1165,-0.00004c-0.01578,-0.01136 -0.03783,-0.04823 -0.04418,-0.07377c0.08161,-0.19286 0.18538,-0.34888 0.49071,-0.4225z" fill="#94a5a6"/><path d="M232.91759,185.10219c0.13226,0.01142 0.18897,0.03124 0.23007,0.14472c-0.05966,0.12477 -0.1288,0.26377 -0.27039,0.3715c-0.09155,-0.21279 0.00273,-0.35453 0.04029,-0.51621z" fill="#abbfc0"/><path d="M235.05901,182.51312c-0.09764,-0.02838 -0.13861,-0.03692 -0.17015,-0.05964c-0.04133,-0.32338 -0.04132,-0.32334 0.13797,-0.48779c0.101,0.19857 0.00674,0.34036 0.03215,0.54741z" fill="#acc0c1"/><path d="M229.95653,186.89106c0.17001,-0.04533 0.33364,-0.11621 0.51941,-0.15018c0.07555,-0.00848 0.1386,0.03695 0.12928,0.15604c-0.20465,0.06233 -0.39979,0.11049 -0.6487,-0.00588z" fill="#9fb2b2"/><path d="M234.1803,179.804c-0.04107,-0.11351 -0.06004,-0.19008 -0.04442,-0.28365c0.06925,-0.03404 0.13537,-0.02835 0.2236,0.01423c0.08511,0.0823 0.10098,0.19857 0.11687,0.31487c-0.08811,0.06238 -0.19207,0.00846 -0.29602,-0.04548z" fill="#aec2c3"/><path d="M228.8124,183.42455c-0.0789,-0.16165 -0.01289,-0.26098 0.03735,-0.37158c0.02832,-0.04253 0.09439,-0.03682 0.14169,-0.00277c0.0315,0.0227 0.05996,0.08513 0.04108,0.11347c-0.00931,0.11911 -0.09741,0.18152 -0.22013,0.26087z" fill="#91a2a3"/><path d="M232.03572,177.10586c-0.33367,0.11619 -0.35884,0.11906 -0.4317,-0.22703c0.14492,0.06247 0.30239,0.07099 0.4317,0.22703z" fill="#869696"/><path d="M225.2695,177.95756c-0.06638,-0.2156 0.03745,-0.26661 0.11924,-0.35454c0.09466,0.17306 0.09465,0.17306 -0.11924,0.35454z" fill="#555f5f"/><path d="M230.02822,183.73406c-0.04715,0.07091 -0.11315,0.17013 -0.22644,0.23537c-0.05695,-0.22978 -0.01923,-0.28647 0.10978,-0.34035c0.03463,-0.017 0.08193,0.01705 0.11663,0.10498z" fill="#93a5a6"/><path d="M234.88723,183.7526c0.04443,0.28367 0.00985,0.30069 -0.27062,0.16158c0.03451,-0.12198 0.14465,-0.14748 0.27062,-0.16158z" fill="#8b9b9c"/><path d="M225.26862,177.22296c-0.04703,0.17585 -0.13822,0.2779 -0.22945,0.38001c-0.12285,-0.02555 -0.15126,-0.08799 -0.11351,-0.14471c0.07544,-0.11343 0.16664,-0.21552 0.34294,-0.23533z" fill="#9aacad"/><path d="M235.01032,181.3246c0.04737,0.13899 0.11364,0.24966 0.02247,0.35174c-0.00946,0.01418 -0.03462,0.01704 -0.05038,0.00569c-0.12297,-0.13054 -0.09791,-0.23833 0.02794,-0.3574z" fill="#5f6a6b"/><path d="M227.83193,182.55061c-0.00955,-0.09077 0.02817,-0.14752 0.08167,-0.19287c0.03463,-0.017 0.08499,-0.02266 0.10707,0.01423c0.0221,0.03688 0.03477,0.08795 0.01587,0.1163c-0.03772,0.05668 -0.0912,0.10207 -0.20462,0.06233z" fill="#636e6f"/><path d="M233.95251,178.88498c0.13861,0.03694 0.20796,0.10784 0.19558,0.26668c-0.16378,-0.0341 -0.19856,-0.12201 -0.19558,-0.26668z" fill="#4a5354"/></g><g data-paper-data="{&quot;index&quot;:null}" fill="#000000" stroke="#000000" stroke-width="1.2"><path d="M209.82647,192.63762c0.59726,-1.76785 3.53322,-3.06297 5.00284,-4.73309c1.58226,-1.79811 1.63972,-3.80919 3.17735,-4.17719c1.07403,-0.25703 2.37151,0.74478 2.98468,1.35141c1.49106,1.47507 0.5212,5.14672 -2.16626,8.2008c-2.68743,3.05409 -6.07479,4.33415 -7.56583,2.85906c-0.67567,-0.66843 -1.92771,-2.03601 -1.43281,-3.50097z"/><path d="M211.05381,196.79246c0.85463,-2.45525 5.37591,-6.04039 5.37591,-6.04039c0,0 1.58817,-3.55653 1.64473,-3.61843c3.60367,-3.94452 6.22485,-1.43453 9.16086,1.47006c1.39736,1.38238 3.05563,4.06545 2.7134,6.07785c-0.38812,2.28229 -2.56643,3.85378 -4.53956,6.0961c-3.71293,4.21946 -8.63742,6.05627 -11.61954,3.1061c-1.31271,-1.29866 -3.87726,-3.81201 -2.73582,-7.09131z"/></g></g></g></g></svg>