<svg version="1.1" xmlns="http://www.w3.org/2000/svg" xmlns:xlink="http://www.w3.org/1999/xlink" width="72.44728" height="130.87225" viewBox="0,0,72.44728,130.87225"><defs><linearGradient x1="212.4823" y1="147.33553" x2="266.50483" y2="147.94387" gradientUnits="userSpaceOnUse" id="color-1"><stop offset="0" stop-color="#66ff81" stop-opacity="0"/><stop offset="1" stop-color="#66ff81"/></linearGradient><linearGradient x1="233.90981" y1="220.69093" x2="253.75632" y2="220.69093" gradientUnits="userSpaceOnUse" id="color-2"><stop offset="0" stop-color="#2a801c"/><stop offset="1" stop-color="#62f67a"/></linearGradient><linearGradient x1="233.90981" y1="220.69093" x2="253.75632" y2="220.69093" gradientUnits="userSpaceOnUse" id="color-3"><stop offset="0" stop-color="#2a801c"/><stop offset="1" stop-color="#62f67a"/></linearGradient><linearGradient x1="234.44262" y1="207.04401" x2="254.32061" y2="207.04401" gradientUnits="userSpaceOnUse" id="color-4"><stop offset="0" stop-color="#2a801c"/><stop offset="1" stop-color="#62f67a"/></linearGradient><linearGradient x1="234.44262" y1="207.04401" x2="254.32061" y2="207.04401" gradientUnits="userSpaceOnUse" id="color-5"><stop offset="0" stop-color="#2a801c"/><stop offset="1" stop-color="#62f67a"/></linearGradient><linearGradient x1="216.06438" y1="224.31606" x2="244.21352" y2="224.31606" gradientUnits="userSpaceOnUse" id="color-6"><stop offset="0" stop-color="#2a801c"/><stop offset="1" stop-color="#62f67a"/></linearGradient><linearGradient x1="216.06438" y1="224.31606" x2="244.21352" y2="224.31606" gradientUnits="userSpaceOnUse" id="color-7"><stop offset="0" stop-color="#2a801c"/><stop offset="1" stop-color="#62f67a"/></linearGradient></defs><g transform="translate(-208.96675,-112.74046)"><g data-paper-data="{&quot;isPaintingLayer&quot;:true}" stroke-miterlimit="10" stroke-dasharray="" stroke-dashoffset="0" style="mix-blend-mode: normal"><path d="M248.11636,192.40441l-2.65577,12.96525" fill="none" fill-rule="nonzero" stroke="#66ff81" stroke-width="7" stroke-linecap="round" stroke-linejoin="miter"/><path d="M253.24371,192.61252l21.53554,1.56066" fill="none" fill-rule="nonzero" stroke="#66ff81" stroke-width="7" stroke-linecap="round" stroke-linejoin="miter"/><path d="M245.8895,191.12016l-15.32041,11.87133" fill="none" fill-rule="nonzero" stroke="#66ff81" stroke-width="7" stroke-linecap="round" stroke-linejoin="miter"/><g stroke-linejoin="miter"><g data-paper-data="{&quot;index&quot;:null}" stroke-linecap="butt"><path d="M276.86315,171.55697c-2.78672,13.15918 -16.19395,21.46596 -29.9459,18.5537c-13.75194,-2.91227 -22.641,-15.94072 -19.85426,-29.0999c2.78672,-13.15918 16.19395,-21.46596 29.9459,-18.55369c13.75194,2.91227 22.641,15.94072 19.85426,29.0999z" fill="none" fill-rule="nonzero" stroke="#66ff81" stroke-width="4.5"/><g><g fill-rule="nonzero"><path d="M240.47364,147.77437l-0.00953,-0.01029" data-paper-data="{&quot;index&quot;:null}" fill="#ffab19" stroke="#000000" stroke-width="5"/><g data-paper-data="{&quot;index&quot;:null}" fill="none" stroke="none" stroke-width="1" font-family="sans-serif" font-weight="normal" font-size="12" text-anchor="start"/></g><path d="M240.47364,147.77437l-0.00953,-0.01029" data-paper-data="{&quot;index&quot;:null}" fill="#ffab19" fill-rule="nonzero" stroke="#000000" stroke-width="5"/><path d="M251.42489,167.41998" fill="#001026" fill-rule="evenodd" stroke="#000000" stroke-width="5"/><g data-paper-data="{&quot;index&quot;:null}" fill="none" fill-rule="nonzero" stroke="none" stroke-width="1" font-family="sans-serif" font-weight="normal" font-size="12" text-anchor="start"/><g data-paper-data="{&quot;index&quot;:null}" fill="none" fill-rule="nonzero" stroke="none" stroke-width="1" font-family="sans-serif" font-weight="normal" font-size="12" text-anchor="start"/></g></g><path d="M226.5526,173.38462c0,0 -1.05923,-1.66897 -1.79923,-4.3144c-2.27084,-8.11798 -13.49938,-53.34244 -13.49938,-53.34244l50.54458,28.0918c0,0 -17.32349,-4.46971 -24.20847,0.93451c-2.66395,2.09101 -8.51804,9.68434 -9.96612,14.19785c-2.04318,6.36836 -1.07134,14.43267 -1.07134,14.43267z" fill="url(#color-1)" fill-rule="nonzero" stroke="#66ff81" stroke-width="3" stroke-linecap="round"/><path d="M233.59793,156.5324l21.90571,8.29994l-1.01696,6.16671" fill="none" fill-rule="nonzero" stroke="#66ff81" stroke-width="5" stroke-linecap="round"/><path d="M261.33108,171.74771l1.14028,-6.14638l16.44266,-14.43358" fill="none" fill-rule="nonzero" stroke="#66ff81" stroke-width="5" stroke-linecap="round"/></g><path d="M250.33704,185.77088c0,0.12385 -18.51768,-0.90238 -18.51768,-1.94923c0,-4.26126 7.92752,-9.82737 11.69538,-9.82737c3.76785,0 6.8223,7.51533 6.8223,11.7766z" fill="#ff0000" fill-rule="nonzero" stroke="#66ff81" stroke-width="3" stroke-linecap="butt" stroke-linejoin="miter"/><g stroke-width="1.2"><path d="M254.0416,202.90842l-4.85665,26.62774c0,0 6.80669,0.26862 4.53133,7.5654c-0.12972,0.41599 -0.81877,2.45959 -3.85426,3.12108c-2.90737,0.63357 -8.12556,-0.09892 -10.02861,-0.37903c-0.88387,-0.1301 -2.10636,-0.75651 -2.68328,-1.86301c-0.58084,-1.11408 -0.0052,-2.76609 0.26401,-3.6942c0.10963,-0.37802 6.67076,-30.0551 6.67076,-30.0551" fill="#44ff00" fill-rule="evenodd" stroke="#44ff00" stroke-linecap="round" stroke-linejoin="round"/><path d="M242.17179,210.25444c2.33186,-7.47801 7.61463,-7.72475 10.32796,-7.71824c1.17986,0.00284 1.59735,-1.99118 0.95727,3.83117c-0.14098,1.28231 -1.21544,6.55773 -1.54406,11.03485c-0.22503,3.06575 0.23791,5.75801 0.24531,6.53429c0.01746,1.83417 -0.69667,3.52255 -0.69667,3.52255l-0.64655,-1.20096c0,0 0.41262,0.83781 0.52944,1.3406c0.36397,1.56631 0.64705,2.74829 0.64705,2.74829c0,0 -6.85199,-0.31606 -10.24862,2.0761c-3.39662,2.39216 -3.31763,6.74984 -3.31763,6.74984c0,0 -4.93688,-0.71706 -4.48643,-3.69821c0.11104,-0.73493 1.54901,-2.94674 1.54901,-2.94674c0,0 -0.62797,0.13735 -0.49942,-0.37268c0.06552,-0.26 1.97594,-4.13792 3.40888,-8.48433c1.88635,-5.72173 3.43845,-12.33907 3.77444,-13.41652z" fill="url(#color-2)" fill-rule="nonzero" stroke="url(#color-3)" stroke-linecap="butt" stroke-linejoin="miter"/></g><path d="M234.82303,205.14712c0.05383,-0.21919 1.05237,0.40115 3.71756,0.41577c3.51607,0.01931 9.07224,-0.54344 10.66402,-0.80337c4.12777,-0.67404 5.24857,-2.24734 5.10589,-1.66631c-0.52801,2.1501 -3.92067,6.18688 -8.51226,6.50689c-2.01779,0.14063 -6.29658,0.95243 -8.3822,0.24629c-2.66031,-0.90073 -2.88895,-3.49406 -2.593,-4.69928z" fill="#004fd9" fill-rule="nonzero" stroke="#001026" stroke-width="1.2" stroke-linecap="butt" stroke-linejoin="miter"/><g stroke-width="1.2"><g fill="#ffab19" fill-rule="evenodd" stroke="#001026" stroke-linecap="round" stroke-linejoin="round" font-family="&quot;Helvetica Neue&quot;, Helvetica, Arial, sans-serif" font-weight="400" font-size="16" text-anchor="start"/><path d="M234.7505,203.75807c0,0 8.11348,1.16451 12.0275,1.05815c3.91402,-0.10636 7.54261,-1.58995 7.54261,-1.58995c0,0 -0.57889,2.10601 -2.91531,4.19536c-1.80854,1.61729 -4.87743,3.31943 -8.23916,3.42932c-3.06264,0.10011 -6.27487,-0.49517 -7.56233,-1.83539c-1.95141,-2.03139 -0.8533,-5.25751 -0.8533,-5.25751z" fill="url(#color-4)" fill-rule="nonzero" stroke="url(#color-5)" stroke-linecap="butt" stroke-linejoin="miter"/></g><g stroke-width="1.2"><path d="M242.6015,208.88741c0,0 -12.30557,31.12499 -12.94102,31.24104c-1.82358,0.33301 -10.58828,-2.0874 -10.58828,-2.0874l15.15825,-31.35565" data-paper-data="{&quot;index&quot;:null}" fill="#ffab19" fill-rule="evenodd" stroke="#001026" stroke-linecap="round" stroke-linejoin="round"/><path d="M244.21352,208.354c0,0 -2.67567,6.58342 -3.91224,10.07002c-1.18605,3.34418 -3.36193,10.44017 -3.36193,10.44017c0,0 -0.5603,5.13329 -1.8386,6.42467c-0.59205,0.59812 -1.02509,-2.41461 -1.02509,-2.41461c0,0 0.34275,3.45743 0.27867,3.80425c-0.4471,2.41987 -2.53193,5.63116 -5.66718,6.00198c-3.44232,0.40713 -9.09837,0.90654 -11.40277,-0.94848c-2.08623,-1.67937 -1.03726,-5.61927 -0.22123,-7.24571c0.57305,-1.14216 2.47346,-1.79314 3.22677,-3.1984c0.5009,-0.9344 -3.53153,3.35196 -2.66516,2.10183c0.99114,-1.43015 5.20253,-7.81665 5.20253,-7.81665l11.05513,-20.00419" data-paper-data="{&quot;index&quot;:null}" fill="url(#color-6)" fill-rule="evenodd" stroke="url(#color-7)" stroke-linecap="round" stroke-linejoin="round"/><path d="M232.51384,238.14126c-0.58842,1.74536 -1.85886,3.78635 -3.64836,4.87145c-1.79615,1.08912 -10.6337,0.87123 -11.64525,-0.38807c-0.96064,-1.19591 -0.84101,-3.44871 -0.26671,-5.15216c1.17903,-3.49719 5.61811,-6.18251 9.91499,-5.99783c4.29684,0.18467 6.82436,3.16943 5.6453,6.66663z" fill="#44ff00" fill-rule="nonzero" stroke="#44ff00" stroke-linecap="butt" stroke-linejoin="miter"/></g></g></g></svg>