<svg version="1.1" xmlns="http://www.w3.org/2000/svg" xmlns:xlink="http://www.w3.org/1999/xlink" width="30.40289" height="29.87845" viewBox="0,0,30.40289,29.87845"><defs><linearGradient x1="248.00877" y1="179.48138" x2="254.70146" y2="179.48138" gradientUnits="userSpaceOnUse" id="color-1"><stop offset="0" stop-color="#bbc031"/><stop offset="1" stop-color="#fffc42"/></linearGradient><linearGradient x1="239.42673" y1="191.81517" x2="240.9823" y2="191.81517" gradientUnits="userSpaceOnUse" id="color-2"><stop offset="0" stop-color="#bbc031"/><stop offset="1" stop-color="#fffc42"/></linearGradient><linearGradient x1="225.29857" y1="180.51862" x2="231.79482" y2="180.51862" gradientUnits="userSpaceOnUse" id="color-3"><stop offset="0" stop-color="#bbc031"/><stop offset="1" stop-color="#fffc42"/></linearGradient><linearGradient x1="239.01773" y1="169.05715" x2="240.5733" y2="169.05715" gradientUnits="userSpaceOnUse" id="color-4"><stop offset="0" stop-color="#bbc031"/><stop offset="1" stop-color="#fffc42"/></linearGradient><linearGradient x1="246.86995" y1="187.68335" x2="251.87926" y2="187.68335" gradientUnits="userSpaceOnUse" id="color-5"><stop offset="0" stop-color="#bbc031"/><stop offset="1" stop-color="#fffc42"/></linearGradient><linearGradient x1="230.78284" y1="189.08399" x2="235.28433" y2="189.08399" gradientUnits="userSpaceOnUse" id="color-6"><stop offset="0" stop-color="#bbc031"/><stop offset="1" stop-color="#fffc42"/></linearGradient><linearGradient x1="228.31788" y1="173.20359" x2="233.4191" y2="173.20359" gradientUnits="userSpaceOnUse" id="color-7"><stop offset="0" stop-color="#bbc031"/><stop offset="1" stop-color="#fffc42"/></linearGradient><linearGradient x1="244.97048" y1="171.7319" x2="249.41431" y2="171.7319" gradientUnits="userSpaceOnUse" id="color-8"><stop offset="0" stop-color="#bbc031"/><stop offset="1" stop-color="#fffc42"/></linearGradient></defs><g transform="translate(-224.79856,-165.0608)"><g data-paper-data="{&quot;isPaintingLayer&quot;:true}" fill="#cbce35" fill-rule="nonzero" stroke-width="1" stroke-linecap="butt" stroke-linejoin="miter" stroke-miterlimit="10" stroke-dasharray="" stroke-dashoffset="0" style="mix-blend-mode: normal"><path d="M254.70146,179.48138c0,0.42953 -0.32764,0.77773 -0.73181,0.77773c-0.40417,0 -5.96088,-0.44935 -5.96088,-0.44935c0,0 5.55671,-1.10611 5.96088,-1.10611c0.40417,0 0.73181,0.3482 0.73181,0.77773z" stroke="url(#color-1)"/><path d="M240.17766,194.43925c-0.42937,-0.0065 -0.76536,-0.26847 -0.75045,-0.58511c0.01491,-0.31664 0.66909,-4.66316 0.66909,-4.66316c0,0 0.90072,4.37008 0.88582,4.68672c-0.01491,0.31664 -0.37508,0.56805 -0.80445,0.56155z" stroke="url(#color-2)"/><path d="M225.29857,180.51862c0,-0.42953 0.31802,-0.77773 0.71033,-0.77773c0.39231,0 5.78592,0.44935 5.78592,0.44935c0,0 -5.39361,1.10611 -5.78592,1.10611c-0.39231,0 -0.71033,-0.3482 -0.71033,-0.77773z" data-paper-data="{&quot;index&quot;:null}" stroke="url(#color-3)"/><path d="M239.82237,165.5608c0.42937,0.00867 0.76537,0.35771 0.75046,0.77961c-0.01491,0.4219 -0.66909,6.21327 -0.66909,6.21327c0,0 -0.90072,-5.82278 -0.88582,-6.24467c0.01491,-0.4219 0.37508,-0.75689 0.80445,-0.74821z" data-paper-data="{&quot;index&quot;:null}" stroke="url(#color-4)"/><path d="M251.78158,189.50378c-0.1843,0.22161 -0.56725,0.20705 -0.85536,-0.03254c-0.2881,-0.23959 -4.05628,-3.76545 -4.05628,-3.76545c0,0 4.43559,2.72331 4.72368,2.9629c0.2881,0.23959 0.37225,0.61347 0.18795,0.83508z" stroke="url(#color-5)"/><path d="M230.94582,191.68141c-0.23927,-0.21003 -0.21189,-0.63246 0.06116,-0.9435c0.27305,-0.31105 4.27735,-4.36779 4.27735,-4.36779c0,0 -3.13784,4.81735 -3.41088,5.1284c-0.27305,0.31105 -0.68836,0.39294 -0.92763,0.1829z" stroke="url(#color-6)"/><path d="M228.41736,171.34977c0.18768,-0.22568 0.57766,-0.21085 0.87105,0.03314c0.29339,0.24399 4.1307,3.83453 4.1307,3.83453c0,0 -4.51697,-2.77328 -4.81035,-3.01726c-0.29339,-0.24399 -0.37908,-0.62472 -0.1914,-0.85041z" data-paper-data="{&quot;index&quot;:null}" stroke="url(#color-7)"/><path d="M249.25343,169.16775c0.2362,0.20734 0.20917,0.62436 -0.06038,0.93142c-0.26956,0.30706 -4.22257,4.31185 -4.22257,4.31185c0,0 3.09765,-4.75565 3.3672,-5.06272c0.26956,-0.30706 0.67954,-0.38791 0.91575,-0.18056z" data-paper-data="{&quot;index&quot;:null}" stroke="url(#color-8)"/></g></g></svg>