<svg version="1.1" xmlns="http://www.w3.org/2000/svg" xmlns:xlink="http://www.w3.org/1999/xlink" width="106.42939" height="135.27337" viewBox="0,0,106.42939,135.27337"><defs><linearGradient x1="194.69937" y1="232.75594" x2="211.75412" y2="247.33421" gradientUnits="userSpaceOnUse" id="color-1"><stop offset="0" stop-color="#000000"/><stop offset="1" stop-color="#000000" stop-opacity="0"/></linearGradient></defs><g transform="translate(-131.85419,-122.42549)"><g stroke-miterlimit="10"><path d="M195.41285,163.00792l-4.64875,15.20165" fill="none" fill-rule="nonzero" stroke="#000000" stroke-width="6" stroke-linecap="round" stroke-linejoin="miter"/><path d="M214.99262,186.85245c0,0 0.81069,7.82495 -0.06548,8.52399c-1.58644,1.26576 -16.39324,6.28329 -16.39324,6.28329c0,0 -2.68609,-11.93942 -4.143,-14.3775c-0.24429,-0.40878 -7.01954,-10.55525 -7.01954,-10.55525" fill="none" fill-rule="nonzero" stroke="#000000" stroke-width="6" stroke-linecap="round" stroke-linejoin="miter"/><g><g><g stroke="#001026" stroke-width="1.2"><path d="M202.09742,164.16745l-5.51519,-25.56346c0,0 -7.06841,0.29805 -7.61362,-6.78368c-0.03108,-0.40373 -0.13078,-2.39129 2.71386,-3.26272c2.72458,-0.83464 8.35072,-0.5654 10.40766,-0.45496c0.95536,0.05129 2.45248,0.54429 3.47822,1.54341c1.03275,1.00596 1.0943,2.6142 1.18432,3.51332c0.03667,0.36621 5.00882,28.95026 5.00882,28.95026" fill="#bf0000" fill-rule="evenodd" stroke-linecap="round" stroke-linejoin="round"/><path d="M211.34725,156.26116c0.55874,7.25762 -4.74796,7.91923 -7.52604,8.1331c-1.20802,0.093 -0.85005,2.01168 -2.48751,-3.54375c-0.36063,-1.22353 -1.33845,-6.29721 -2.76489,-10.5558c-0.97677,-2.91613 -2.51023,-5.42341 -2.82342,-6.15658c-0.73997,-1.73232 -0.67415,-3.38615 -0.67415,-3.38615l1.13417,1.08278c0,0 -0.75189,-0.75847 -1.06934,-1.22426c-0.98895,-1.45102 -1.74388,-2.54533 -1.74388,-2.54533c0,0 7.13345,-0.25688 9.66614,-2.79349c2.53268,-2.5366 0.7363,-6.64926 0.7363,-6.64926c0,0 5.33233,0.27745 6.04521,3.13186c0.17575,0.70369 -0.4244,2.911 -0.4244,2.911c0,0 0.58828,-0.18074 0.65759,0.31177c0.03535,0.25107 -0.39218,4.07156 -0.1468,8.29616c0.32302,5.56138 1.34055,11.94223 1.42106,12.98792z" fill="#000000" fill-rule="nonzero" stroke-linecap="butt" stroke-linejoin="miter"/></g><path d="M220.87506,160.49286c0.03122,0.21154 -1.23441,-0.29384 -3.96643,-0.09153c-3.60423,0.26688 -9.06619,1.24937 -10.59213,1.62414c-3.95699,0.97186 -4.4841,2.54988 -4.56689,1.98912c-0.30638,-2.07519 1.5748,-6.16604 6.14564,-6.84086c2.00867,-0.29657 6.06591,-1.41089 8.47733,-0.91253c3.07589,0.63567 4.33075,3.06845 4.50249,4.23167z" fill="#004fd9" fill-rule="nonzero" stroke="#001026" stroke-width="1.2" stroke-linecap="butt" stroke-linejoin="miter"/><g fill-rule="nonzero" stroke-linecap="butt" stroke-linejoin="miter"><g fill="none" stroke="none" stroke-width="1" font-family="sans-serif" font-weight="normal" font-size="12" text-anchor="start"/><path d="M221.49616,161.79997c0,0 -8.75788,-0.44281 -12.71972,-0.02487c-3.96185,0.41793 -7.08953,2.11454 -7.08953,2.11454c0,0 -0.23695,-2.03763 1.33045,-4.20205c1.21327,-1.67538 3.68238,-3.53317 7.07789,-3.90966c3.09341,-0.34298 6.61361,-0.04079 8.45822,1.12163c2.79588,1.7619 2.94269,4.90041 2.94269,4.90041z" fill="#000000" stroke="#001026" stroke-width="1.2"/></g><g stroke="#001026" stroke-width="1.2"><path d="M211.44583,157.58814c0,0 0.33389,-30.41851 0.93823,-30.57972c1.73427,-0.46266 11.65272,1.11448 11.65272,1.11448l-3.16114,30.86787" fill="#ffab19" fill-rule="evenodd" stroke-linecap="round" stroke-linejoin="round"/><path d="M210.00686,158.2231c0,0 0.14515,-6.4399 0.0374,-9.83585c-0.10334,-3.25722 -0.67123,-10.1411 -0.67123,-10.1411c0,0 -1.4478,-4.89762 -0.64862,-6.22195c0.37015,-0.61339 1.04884,2.74178 1.04884,2.74178c0,0 -0.76141,-3.78282 -0.8324,-4.11585c-0.49534,-2.32361 0.37301,-5.52814 3.43413,-6.13289c3.36092,-0.66398 8.94999,-1.59469 12.03751,-0.02814c1.31369,0.66655 3.21989,2.82635 3.02009,5.352c-0.2253,2.84826 -2.65428,6.05327 -2.65428,6.05327l2.18135,-3.44658c0,0 0.1869,1.59228 -0.10248,2.80329c-0.32497,1.35998 -1.75302,4.96162 -1.75302,4.96162l-3.43299,19.80527" fill="#000000" fill-rule="evenodd" stroke-linecap="round" stroke-linejoin="round"/><path d="M210.24765,129.1182c-0.08522,-1.6975 0.4108,-3.72975 1.81413,-4.90055c1.40852,-1.17513 10.5344,-1.68583 12.06491,-0.57751c1.45347,1.05253 2.218,3.19167 2.30117,4.84839c0.17076,3.40129 -3.31287,6.29956 -7.78091,6.47342c-4.46802,0.17387 -8.22852,-2.44247 -8.39927,-5.84379z" fill="#ff0000" fill-rule="nonzero" stroke-linecap="butt" stroke-linejoin="miter"/></g></g><g fill="#000000" fill-rule="nonzero" stroke="#001026" stroke-width="1.2" stroke-linecap="butt" stroke-linejoin="miter"><path d="M219.03868,150.47801c0,0 2.85393,-0.74878 3.76736,-0.57665c0.28118,0.053 1.10391,0.90932 1.58846,1.97952c0.60476,1.33572 0.83806,3.03391 0.62945,4.25759c-0.53675,3.14832 -4.56539,6.92926 -6.67317,6.53207c-0.91349,-0.17213 -3.48534,-2.42755 -3.48771,-2.43363"/></g></g><g fill-rule="nonzero" stroke-linecap="butt" stroke-linejoin="miter"><g stroke="none" stroke-width="1"><path d="M200.09914,168.53712c0.12167,0.17364 0.06964,0.31246 -0.02038,0.46448c-0.16125,0.22846 -0.36534,0.42006 -0.54096,0.63618c0.00731,0.07515 0.01458,0.15029 0.03374,0.21267c0.34066,1.34922 0.06745,2.58312 -0.43182,3.78311c-0.10646,0.25265 -0.19869,0.51766 -0.38853,0.72147c-0.03562,0.0382 -0.06876,0.10149 -0.06388,0.15162c0.02677,0.27556 -0.12747,0.44119 -0.27929,0.6319c-0.12806,0.1652 -0.28475,0.30579 -0.42712,0.45867c-0.08304,0.08918 -0.1947,0.15376 -0.33982,0.14364c-0.14509,-0.01016 -0.28292,0.05485 -0.40882,0.10714c-0.68418,0.3751 -1.43284,0.62585 -2.23167,0.76454c-0.45175,0.07019 -0.89892,0.05251 -1.36038,0.02251c-1.35828,-0.09042 -2.60795,-0.54643 -3.76546,-1.2674c-0.51684,-0.33018 -0.98865,-0.73634 -1.413,-1.19345c-0.32182,-0.34591 -0.53201,-0.75643 -0.71605,-1.16738c-0.58556,-1.30754 -0.66217,-2.63601 -0.35821,-3.95823c0.05417,-0.25178 0.17492,-0.49214 0.29571,-0.73248c0.07573,-0.16434 0.12534,-0.32825 0.05356,-0.52778c-0.06932,-0.17447 -0.01975,-0.33837 0.07029,-0.4904c0.16125,-0.22846 0.35109,-0.43233 0.54094,-0.63618c0.05934,-0.06372 0.1354,-0.09007 0.21147,-0.1164c0.29476,-0.0676 0.51563,-0.2218 0.71976,-0.41337c0.41769,-0.42092 0.95465,-0.69321 1.47728,-0.97783c0.19958,-0.10366 0.41341,-0.19502 0.644,-0.24904c0.74166,-0.1879 1.47391,-0.33803 2.26362,-0.30093c0.17796,-0.19111 0.38211,-0.38266 0.57191,-0.58654c0.0712,-0.07646 0.15425,-0.16563 0.28747,-0.14273c0.11892,0.01058 0.17586,-0.07818 0.24702,-0.15462c0.48886,-0.49734 0.96345,-1.00698 1.45233,-1.50432c1.07028,-1.12164 2.15235,-2.25606 3.25119,-3.3531c1.07513,-1.07156 2.10731,-2.18005 3.15385,-3.2762c0.1661,-0.17839 0.34894,-0.31939 0.51502,-0.49776c0.80679,-0.86639 1.61359,-1.73279 2.43467,-2.58689c0.14236,-0.15288 0.25617,-0.33039 0.47245,-0.39668c0.07608,-0.02638 0.12107,-0.10235 0.18042,-0.16604c0.59322,-0.63709 1.21262,-1.27455 1.80585,-1.91163c0.02374,-0.02548 0.05934,-0.06369 0.08304,-0.08918c0.17552,-0.21618 0.37055,-0.23194 0.65376,-0.14882c0.94486,0.28543 1.71661,0.81207 2.31528,1.57991c0.15026,0.19823 0.2768,0.42193 0.36533,0.65882c0.06933,0.17449 0.03163,0.32564 -0.0727,0.46535c-0.31307,0.41915 -0.61179,0.85061 -0.93673,1.28253c-0.23244,0.30494 -0.50532,0.59798 -0.69484,0.93983c-0.41223,0.74694 -1.00789,1.35897 -1.46297,2.06901c-0.26314,0.39324 -0.48584,0.79838 -0.7633,1.17934c-0.30118,0.4064 -0.56192,0.82471 -0.83688,1.23069c-0.50502,0.73595 -1.0505,1.46004 -1.54121,2.2083c-0.62335,1.00132 -1.30393,1.9535 -1.98445,2.9056c-0.23002,0.33 -0.45994,0.65993 -0.68996,0.98991c-0.36992,0.50794 -0.75172,1.02856 -1.12166,1.53644c-0.2087,0.27946 -0.37695,0.57076 -0.58562,0.85021c-0.20628,0.30453 -0.43168,0.54657 -0.66413,0.85151zM199.57561,168.4078c-0.10037,-0.22415 -0.22446,-0.42282 -0.39844,-0.59556c-0.26497,-0.43468 -0.62725,-0.79248 -0.98957,-1.15027c-0.45053,-0.45671 -0.96279,-0.87473 -1.46078,-1.28046c-0.56947,-0.46727 -1.21468,-0.77022 -1.88607,-1.07274c-0.08092,-0.02375 -0.16183,-0.0475 -0.28319,-0.08312c-0.09492,0.10189 -0.18981,0.20388 -0.28472,0.30579c-0.02374,0.02548 -0.03318,0.06326 -0.05446,0.1138c0.10007,0.08616 0.21202,0.15958 0.33583,0.22026c0.20717,0.10946 0.37628,0.23213 0.58342,0.3416c0.5001,0.29279 0.90779,0.71256 1.37227,1.04358c0.24064,0.18416 0.50494,0.3429 0.72183,0.55256c0.46483,0.469 0.98894,0.87431 1.40627,1.39425c0.10495,0.13626 0.2242,0.2848 0.32915,0.42109c-0.01402,0.12569 0.12413,0.19865 0.17188,0.28569c0.05018,0.11207 0.10039,0.22415 0.26952,0.34675c0.05417,-0.25178 0.2513,-0.38051 0.33649,-0.58262c-0.05962,-0.07429 -0.04563,-0.19994 -0.16945,-0.26063zM199.40715,167.48231c0.22204,0.39778 0.29596,0.48432 0.50557,0.61887c0.12806,-0.1652 0.24429,-0.31769 0.37237,-0.48287c0.08304,-0.08918 0.08522,-0.20211 0.03501,-0.3142c-0.03348,-0.07476 -0.10495,-0.13624 -0.1384,-0.21096c-0.13139,-0.27384 -0.33888,-0.52128 -0.57949,-0.70547c-0.04079,-0.14985 -0.1551,-0.24833 -0.26952,-0.3468c-0.6315,-0.56659 -1.23689,-1.13363 -1.92771,-1.63654c-0.30968,-0.22069 -0.63124,-0.42865 -0.95033,-0.61151c-0.26195,-0.13367 -0.53816,-0.27963 -0.85209,-0.27442c-0.15425,0.16565 -0.30844,0.33129 -0.46272,0.49691c0.13808,0.073 0.26194,0.13368 0.3714,0.18204c0.49521,0.24272 0.96675,0.51087 1.39081,0.83003c0.55027,0.40488 1.04127,0.87346 1.54411,1.32927c0.24307,0.20925 0.40065,0.4826 0.65555,0.6791c0.04563,0.19994 0.17674,0.33579 0.30539,0.44655zM210.83954,151.77523c-0.12898,-0.24876 -0.31724,-0.43382 -0.52927,-0.59338c-0.00242,-0.02503 -0.01917,-0.06243 -0.03349,-0.07473c-0.35499,-0.28266 -0.73371,-0.53984 -1.15506,-0.69594c-0.24522,-0.09633 -0.47852,-0.20535 -0.75197,-0.18827c-0.66444,0.7135 -1.32879,1.42702 -2.02887,2.17874c0.47361,0.15525 0.87615,0.38693 1.26668,0.63136c0.34772,0.20752 0.59805,0.4919 0.92203,0.72489c0.11438,0.09844 0.20262,0.19734 0.317,0.29581c0.11222,0.21139 0.26251,0.40964 0.46508,0.60699c0.35595,-0.38225 0.57377,-0.83748 0.87737,-1.21883c0.30118,-0.40642 0.58807,-0.82516 0.87737,-1.21883c-0.04562,-0.19994 -0.13626,-0.32392 -0.22693,-0.44785zM208.81222,154.64389c-0.04081,-0.14985 -0.14328,-0.26109 -0.25765,-0.35951c-0.0669,-0.14946 -0.20746,-0.24749 -0.32425,-0.371c-0.3885,-0.35737 -0.83625,-0.65104 -1.29345,-0.9069c-0.27619,-0.14596 -0.57618,-0.26643 -0.89496,-0.31132c-0.04747,0.05096 -0.10921,0.08962 -0.15666,0.14061c-0.58142,0.62433 -1.15087,1.23586 -1.74652,1.8479c-0.63124,0.65023 -1.25063,1.28773 -1.8819,1.93795c-0.91601,0.95604 -1.83446,1.88697 -2.75044,2.84302c-1.03709,1.05838 -2.0194,2.14096 -3.08511,3.1747c-0.18041,0.16604 -0.34404,0.36951 -0.52206,0.56061c0.20471,0.08441 0.41886,0.13102 0.59986,0.24094c0.6072,0.31611 1.15747,0.72098 1.68405,1.15132c0.4575,0.39385 0.90314,0.80045 1.34881,1.20708c0.16215,0.1855 0.32184,0.34592 0.48398,0.53142c0.04316,0.1749 0.1956,0.2602 0.28626,0.38414c0.10495,0.13626 0.17186,0.28568 0.32671,0.39603c0.14723,-0.10279 0.21358,-0.22936 0.28232,-0.33083c0.54275,-0.88715 1.21173,-1.68852 1.79736,-2.53871c0.37937,-0.54573 0.75876,-1.09142 1.12379,-1.64945c0.50502,-0.73595 0.98386,-1.47146 1.47701,-2.19468c0.40064,-0.59624 0.80134,-1.19247 1.21629,-1.7764c0.43629,-0.63444 0.87497,-1.24385 1.32553,-1.86603c0.40308,-0.57118 0.81804,-1.15512 1.21871,-1.75136c-0.1168,-0.12349 -0.13142,-0.27381 -0.25763,-0.35952zM188.13843,167.60617c0.42129,0.1561 0.76903,0.36363 1.12858,0.55837c0.37388,0.20708 0.7453,0.38907 1.10729,0.60889c0.34772,0.20752 0.686,0.45283 1.02181,0.6731c0.35015,0.23258 0.70029,0.46511 1.05284,0.72269c0.32395,0.233 0.65036,0.49106 0.97434,0.72404c0.32638,0.25803 0.60536,0.56704 0.97922,0.77411c0.22904,0.33488 0.59104,0.55472 0.87946,0.82592c0.29077,0.29626 0.61967,0.57935 0.91046,0.8756c0.27649,0.28395 0.55544,0.59296 0.82009,0.88965c0.27896,0.30904 0.49612,0.65669 0.81066,0.92743c0.31336,-0.28118 0.39639,-0.37033 0.49559,-0.69816c-0.11222,-0.21139 -0.22447,-0.42283 -0.38905,-0.63333c-0.20746,-0.24746 -0.41489,-0.49494 -0.62479,-0.76745c-0.40304,-0.50768 -0.8037,-0.99027 -1.30409,-1.42107c-0.34315,-0.2954 -0.69816,-0.57805 -0.99383,-0.92444c-0.05962,-0.07429 -0.14541,-0.14813 -0.25489,-0.19647c-0.20717,-0.10946 -0.38117,-0.28224 -0.55274,-0.4299c-0.62909,-0.54157 -1.32935,-1.00669 -2.02721,-1.44674c-0.90989,-0.59965 -1.87419,-1.08547 -2.87413,-1.53304c-0.19286,-0.09715 -0.38571,-0.19433 -0.60685,-0.17809c-0.20658,0.1665 -0.37027,0.36994 -0.55279,0.64891zM192.50264,174.09479c0.26861,-0.0672 0.48005,-0.18358 0.70576,-0.28768c0.20201,-0.07859 0.35867,-0.21918 0.44387,-0.42132c0.1871,-0.36689 0.42895,-0.70963 0.72802,-1.00309c0.02374,-0.02548 0.04506,-0.076 0.0569,-0.08872c-0.03591,-0.09974 -0.09309,-0.14895 -0.20017,-0.17232c-0.02614,0.00041 -0.0642,0.01361 -0.07607,0.02636c-0.38698,0.33258 -0.80252,0.64052 -1.24669,0.92385c-0.06176,0.03864 -0.14723,0.10279 -0.1661,0.1784c-0.13266,0.25309 -0.26528,0.50618 -0.24553,0.84457zM195.15201,172.9094c-0.36322,0.3071 -0.74319,0.5768 -1.12561,0.82146c-0.12347,0.07731 -0.19226,0.17881 -0.24426,0.31767c-0.07088,0.21441 -0.08945,0.42802 -0.1199,0.65433c-0.01886,0.0756 -0.04959,0.16389 0.05993,0.21226c0.27319,-0.15506 0.54883,-0.2851 0.7934,-0.46474c0.25525,-0.74438 0.25526,-0.74435 0.81045,-1.36822c-0.00729,-0.07515 -0.05264,-0.13713 -0.174,-0.17275zM192.80951,168.62027c0.27076,-0.18012 0.52723,-0.37254 0.78369,-0.56496c0.06176,-0.03864 0.1235,-0.07732 0.15666,-0.14058c0.08976,-0.28999 0.19378,-0.56774 0.17648,-0.88106c-0.31393,0.0052 -0.53479,0.1594 -0.7867,0.26393c-0.12593,0.05224 -0.18282,0.14102 -0.22298,0.26714c-0.07547,0.30232 -0.17952,0.58006 -0.30974,0.85813c-0.01188,0.01275 0.00482,0.05009 0.00972,0.10017c0.05475,0.02417 0.12386,0.0607 0.19288,0.09716zM189.60766,171.67149c0.3757,-0.04384 0.63947,-0.16113 0.91749,-0.26609c0.09979,-0.05182 0.1448,-0.12783 0.18982,-0.20384c0.19895,-0.37964 0.44087,-0.72235 0.75176,-1.02858c0.0356,-0.03821 0.0569,-0.08872 0.09247,-0.12697c-0.1454,-0.14815 -0.18586,-0.16001 -0.28077,-0.05808c-0.3085,0.33131 -0.67661,0.58826 -1.09245,0.75823c-0.25189,0.10452 -0.37999,0.26973 -0.46274,0.49692c-0.02588,0.13844 -0.05418,0.2518 -0.11564,0.42843zM193.47683,171.44432c-0.07149,-0.06151 -0.13325,-0.02284 -0.18072,0.02811c-0.33221,0.35673 -0.76691,0.60228 -1.20168,0.84784c-0.34678,0.20645 -0.56249,0.54874 -0.60905,1.01366c0.20686,-0.02852 0.33981,-0.14364 0.51807,-0.19676c0.3684,-0.119 0.59382,-0.36109 0.77395,-0.66514c0.20383,-0.32954 0.3934,-0.67139 0.68299,-0.9271c0.02127,-0.05053 0.01888,-0.0756 0.01642,-0.10065zM190.62027,172.52025c0.22816,-0.07903 0.39458,-0.1194 0.54667,-0.17212c0.25431,-0.0795 0.411,-0.22007 0.51992,-0.44766c0.13964,-0.31593 0.34833,-0.59538 0.57131,-0.86249c0.06878,-0.1015 0.16368,-0.20343 0.24671,-0.2926c-0.05962,-0.07429 -0.10949,-0.04837 -0.13322,-0.02288c-0.41554,0.308 -0.84541,0.60359 -1.32062,0.83727c-0.07363,0.05139 -0.13536,0.09006 -0.18039,0.16606c-0.09463,0.23991 -0.20353,0.46751 -0.2504,0.79444zM191.79016,167.97226c0.16824,-0.29134 0.42468,-0.48372 0.66687,-0.68845c0.05932,-0.0637 0.14968,-0.07775 0.1804,-0.16605c0.05203,-0.13888 0.0703,-0.49041 0.01981,-0.74049c-0.21876,0.04123 -0.38969,0.16953 -0.57742,0.26045c-0.1497,0.07775 -0.23029,0.19199 -0.25371,0.35544c-0.05174,0.27681 -0.13205,0.52907 -0.279,0.76985c-0.01189,0.01273 -0.00699,0.06284 -0.00456,0.08786c0.04534,0.06199 0.1025,0.11123 0.24762,0.12134zM197.46283,171.3407c0.08031,-0.25222 0.29633,-0.45652 0.32189,-0.73293c-0.11193,-0.07341 -0.21418,-0.04665 -0.31881,-0.04491c-0.19501,0.01578 -0.38053,-0.00625 -0.58255,0.07236c-0.1278,0.30318 -0.39366,0.53341 -0.5476,0.83702c0.03591,0.09974 0.10736,0.16131 0.2026,0.19736c0.2875,-0.14277 0.5917,-0.24817 0.9245,-0.32895zM194.61764,169.97022c0.14723,-0.10279 0.29448,-0.20558 0.449,-0.23323c0.37324,-0.06889 0.56066,-0.29782 0.64797,-0.61289c0.02831,-0.11335 0.09952,-0.1898 0.08493,-0.34012c-0.26164,0.00434 -0.49224,0.05832 -0.7228,0.11237c-0.0642,0.01361 -0.11163,0.06459 -0.15665,0.14057c-0.12078,0.24038 -0.24398,0.45565 -0.36477,0.69598c-0.03562,0.0382 -0.05446,0.11383 0.06238,0.23733zM195.51842,170.74564c0.31821,-0.23109 0.64129,-0.41202 1.01699,-0.45589c0.07847,-0.0013 0.11164,-0.06458 0.15909,-0.11555c0.09248,-0.12699 0.17069,-0.26628 0.19166,-0.45478c-0.36629,0.00604 -0.66107,0.07369 -0.96771,0.15404c-0.10221,0.02677 -0.17585,0.07816 -0.23273,0.16694c-0.10197,0.16474 -0.21813,0.31726 -0.32005,0.48202c-0.01189,0.01273 -0.007,0.06285 -0.00457,0.08789c0.04289,0.03693 0.0858,0.07386 0.15726,0.13535zM189.10242,170.11172c-0.06143,0.17663 -0.13481,0.36603 -0.19627,0.54269c0.00242,0.02503 0.00486,0.05011 0.00974,0.10017c0.26406,0.02074 0.49224,-0.05832 0.67993,-0.14922c0.26774,-0.48116 0.51171,-0.93677 0.91511,-1.36999c-0.39002,0.03155 -0.47972,0.32157 -0.67686,0.45028c-0.23273,0.16694 -0.48215,0.29651 -0.7316,0.4261zM192.4181,174.57293c0.0006,0.27597 -0.02738,0.52735 0.08972,0.78882c0.14025,-0.03993 0.27105,-0.04211 0.38513,-0.08168c0.11407,-0.03953 0.24244,-0.06673 0.32548,-0.15596c0.06386,-0.15158 0.035,-0.3142 0.04654,-0.46491c0.01154,-0.15072 0.0636,-0.28959 0.00855,-0.45175c-0.28992,0.11773 -0.55366,0.23495 -0.85546,0.3654zM196.09078,173.67163c-0.4131,0.33299 -0.75261,0.61464 -1.09211,0.8962c-0.02374,0.02548 -0.07365,0.05138 -0.06876,0.10149c-0.03041,0.2263 -0.11318,0.45348 -0.01038,0.70267c0.2233,-0.12914 0.43474,-0.24556 0.63188,-0.37429c0.08704,-0.45305 0.28354,-0.85771 0.53941,-1.32613zM194.86778,167.95889c-0.21174,-0.0216 -0.35897,0.08122 -0.51107,0.13391c-0.17828,0.05313 -0.31364,0.14317 -0.38695,0.33255c-0.10648,0.25264 -0.21298,0.50532 -0.4314,0.68458c0.07636,0.11165 0.1454,0.14815 0.2166,0.07169c0.19223,-0.1788 0.39639,-0.37035 0.63642,-0.46214c0.33981,-0.14364 0.40345,-0.43323 0.47642,-0.7606zM196.02218,169.45771c0.38756,-0.0566 0.69908,-0.08686 0.99625,-0.12939c0.08304,-0.08918 0.08764,-0.17708 0.10647,-0.25264c0.00457,-0.08789 0.04715,-0.18892 -0.02917,-0.30055c-0.25222,-0.03347 -0.51379,-0.02913 -0.77298,0.00022c-0.11133,0.20255 -0.19654,0.40469 -0.30058,0.68239zM194.35889,166.90105c-0.0493,0.30187 -0.08913,0.566 -0.14089,0.8428c0.25433,-0.0795 0.4968,-0.14623 0.73924,-0.21296c0.05417,-0.25178 0.12507,-0.46623 0.06024,-0.72856c-0.23543,0.00389 -0.43988,0.05747 -0.6586,0.09873zM191.35213,174.38987c0.24275,0.07126 0.43988,-0.05747 0.64431,-0.11101c0.0642,-0.01361 0.10923,-0.0896 0.11621,-0.15248c0.03287,-0.20127 0.06818,-0.37748 0.0892,-0.56597c0.01188,-0.01275 -0.01676,-0.03737 -0.04534,-0.062c-0.26621,0.09219 -0.5299,0.20951 -0.7961,0.30172c-0.04716,0.18892 -0.02771,0.38933 -0.00823,0.58973zM189.53244,172.11174c-0.0733,0.18937 -0.13479,0.36601 -0.06059,0.5906c0.22118,-0.01622 0.47092,-0.0078 0.6848,-0.09915c0.04018,-0.1261 0.10892,-0.22761 0.12291,-0.35327c0.02832,-0.11335 0.13754,-0.20299 0.04443,-0.35198c-0.26862,0.06717 -0.53721,0.13435 -0.79159,0.21383zM193.89933,166.62018c0.04958,-0.1639 -0.01977,-0.33838 -0.07724,-0.52559c-0.25676,0.05439 -0.50651,0.04605 -0.72981,0.17515c0.01946,0.20042 -0.03955,0.40208 0.0228,0.6394c0.26621,-0.09219 0.51808,-0.19672 0.78426,-0.28896zM190.71391,167.41302c0.22786,-0.21704 0.41038,-0.49607 0.66688,-0.68846c0.20655,-0.16652 0.20135,-0.35457 0.12473,-0.60421c-0.23057,0.054 -0.38969,0.16953 -0.57494,0.28551c-0.00395,0.36384 -0.15789,0.66751 -0.21661,1.00717zM196.7253,174.53925c-0.06906,-0.03651 -0.10463,0.00173 -0.14025,0.03993c-0.16853,0.15332 -0.33464,0.3317 -0.51749,0.47272c-0.2826,0.19286 -0.25828,0.44335 -0.20292,0.74353c0.11166,-0.0646 0.19953,-0.10367 0.27316,-0.15506c0.18525,-0.11599 0.33007,-0.24381 0.33192,-0.49474c0.01155,-0.15072 0.08978,-0.29001 0.15606,-0.41658c0.06176,-0.03864 0.14967,-0.07774 0.09949,-0.1898zM198.40523,171.60104c-0.11892,-0.01058 -0.2093,0.00346 -0.28777,0.00476c-0.23788,-0.02117 -0.38758,0.05659 -0.50136,0.2341c-0.09006,0.15199 -0.23489,0.27986 -0.33922,0.41958c-0.03562,0.03821 -0.08549,0.06414 0.00273,0.16306c0.23762,-0.1168 0.5038,-0.20908 0.78671,-0.26392c0.0642,-0.01361 0.12348,-0.07729 0.17096,-0.12825c0.06631,-0.12652 0.12081,-0.24036 0.16794,-0.42929zM195.33144,167.87601c-0.06146,0.17663 -0.14906,0.3537 -0.15576,0.55456c0.27349,-0.01709 0.53753,0.00364 0.79185,-0.07583c0.03285,-0.20126 0.10862,-0.36558 0.02255,-0.57744c-0.22117,0.01622 -0.44478,0.00733 -0.65862,0.09872zM191.2202,172.76126c-0.27348,0.0171 -0.50163,0.09614 -0.70118,0.19981c-0.03287,0.20125 -0.06814,0.37745 -0.04627,0.60292c0.18558,0.02202 0.35199,-0.01839 0.51595,-0.08383c0.06845,-0.23947 0.1512,-0.46666 0.23154,-0.71889zM197.14964,168.38532c-0.00273,-0.16307 0.01371,-0.26365 -0.01035,-0.37616c-0.00731,-0.07515 -0.02645,-0.13756 -0.04564,-0.19997c-0.20229,-0.05938 -0.41402,-0.08097 -0.61846,-0.0274c-0.04716,0.18892 -0.09429,0.37789 -0.03437,0.59018c0.23543,-0.00389 0.44718,0.01768 0.70879,0.01336zM197.8281,173.07835c0.29965,-0.01753 0.50891,-0.02097 0.75625,-0.0376c0.06176,-0.03864 0.13051,-0.14012 0.15881,-0.25352c0.04257,-0.10105 0.15423,-0.16564 0.12778,-0.30319c-0.16428,-0.07255 -0.30937,-0.08269 -0.46393,-0.05505c-0.17554,0.21618 -0.35354,0.40728 -0.57894,0.64935zM192.1083,175.43112c-0.01218,-0.12528 -0.02434,-0.25053 -0.03646,-0.37575c-0.0122,-0.12528 -0.03622,-0.23775 -0.04837,-0.36299c-0.23057,0.05398 -0.4256,0.06976 -0.58471,0.18528c-0.0283,0.11337 0.03375,0.2127 0.06962,0.31246c0.03591,0.09974 0.03622,0.23775 0.14813,0.31115c0.16887,-0.01535 0.31393,-0.0052 0.45176,-0.07021zM195.46225,166.79496c-0.00425,0.22587 -0.07518,0.44033 0.00153,0.68996c0.19499,-0.01581 0.37571,-0.04386 0.5707,-0.05963c0.00426,-0.22586 0.02527,-0.41441 -0.08698,-0.6258c-0.1594,-0.02245 -0.29508,-0.0704 -0.48523,-0.00452zM194.46204,174.97813c-0.29936,0.15547 -0.56067,0.29779 -0.82195,0.4401c-0.01402,0.12569 -0.04234,0.23906 0.03405,0.35068c0.28779,-0.00478 0.52537,-0.12157 0.77725,-0.22612c0.01401,-0.12571 0.02802,-0.25136 0.01586,-0.37659c0.03318,-0.06328 0.01642,-0.10062 -0.00516,-0.18806zM197.39015,169.64831c-0.04471,0.21402 -0.18711,0.36692 -0.16764,0.56732c0.27591,0.00798 0.52567,0.01637 0.78246,-0.03805c-0.01704,-0.17538 0.10163,-0.30274 0.02984,-0.50228c-0.20227,-0.05936 -0.3949,-0.01855 -0.64463,-0.02698zM188.6637,171.80003c0.17127,0.00971 0.34009,-0.00564 0.49222,-0.05834c0.05657,-0.22676 0.12749,-0.44117 0.20778,-0.6934c-0.21626,0.0663 -0.39699,0.09439 -0.63002,0.1233c-0.05659,0.22677 -0.11563,0.42845 -0.06999,0.62843zM198.59477,171.25919c0.09707,-0.21487 0.18467,-0.39196 0.13663,-0.61695c-0.1737,-0.03475 -0.32122,-0.06998 -0.47336,-0.01727c-0.08519,0.20211 -0.18465,0.39192 -0.27928,0.63184c0.21174,0.0216 0.40916,0.03085 0.61602,0.00235zM190.06482,173.00616c-0.24244,0.06673 -0.47095,0.00781 -0.63005,0.12335c-0.03287,0.20125 0.01033,0.37617 0.07968,0.55067c0.19743,0.00926 0.38299,0.0313 0.5564,-0.0719c-0.00516,-0.18807 0.00393,-0.36386 -0.00606,-0.60204zM194.25005,166.04983c0.01704,0.17536 0.00547,0.32606 0.08669,0.48781c0.23057,-0.054 0.47091,-0.00778 0.68236,-0.12419c-0.00272,-0.16306 -0.04106,-0.28787 -0.15787,-0.41139c-0.20929,0.00347 -0.41615,0.03196 -0.61114,0.04776zM194.9061,175.77365c-0.00914,0.17579 0.01491,0.28824 0.07936,0.41268c0.19501,-0.01578 0.39944,-0.06932 0.54178,-0.22224c-0.01461,-0.1503 -0.02919,-0.30056 -0.03192,-0.46363c-0.24489,0.04167 -0.40155,0.18227 -0.58925,0.2732zM190.76467,165.64334c0.02644,0.13753 0.05049,0.25007 0.1244,0.33664c0.20439,-0.05354 0.38025,-0.13177 0.53936,-0.2473c-0.00027,-0.13797 -0.02431,-0.25048 -0.10067,-0.36212c-0.21876,0.04123 -0.37539,0.18185 -0.56308,0.27277zM196.97624,167.4097c0.0566,-0.22672 -0.04592,-0.33794 -0.18646,-0.43599c-0.10005,-0.08617 -0.2239,-0.14684 -0.3617,-0.08182c-0.00914,0.17579 -0.00642,0.33881 0.06294,0.51329c0.17127,0.00971 0.32823,0.00711 0.48521,0.00453zM188.44232,169.52055c-0.06388,0.15158 -0.15878,0.25349 -0.11804,0.40336c0.48764,0.02955 0.64162,-0.27404 0.74776,-0.66469c-0.21385,0.09133 -0.41589,0.16997 -0.62973,0.26131zM198.03303,168.84735c-0.17613,-0.05983 -0.32122,-0.06996 -0.5138,-0.02913c0.04079,0.14985 -0.06357,0.2896 0.00335,0.43901c0.09767,0.06113 0.17369,0.03477 0.26647,0.04579c0.10461,-0.00174 0.19986,0.03432 0.28292,-0.05485c0.01401,-0.12571 0.028,-0.25139 -0.03893,-0.40081zM193.10057,171.21221c-0.08607,-0.21182 -0.19558,-0.26022 -0.31664,-0.15784c-0.16853,0.15331 -0.30849,0.33126 -0.43655,0.49648c-0.04747,0.05093 -0.09246,0.12701 -0.03044,0.22631c0.28504,-0.16782 0.54148,-0.36022 0.78365,-0.56493zM193.45884,165.3228c0.0426,-0.10105 0.021,-0.18853 -0.05291,-0.27514c-0.24977,-0.00842 -0.51626,-0.0542 -0.76816,0.05033c0.10039,0.22415 0.2528,0.30948 0.47151,0.2682c0.10464,-0.00174 0.22607,0.0339 0.34956,-0.0434zM191.06607,169.69035c-0.20014,-0.17229 -0.26682,-0.18372 -0.37356,-0.06909c-0.15181,0.19069 -0.3155,0.3941 -0.41009,0.63402c0.32795,-0.13088 0.62973,-0.26132 0.78366,-0.56495zM190.13405,166.56955c0.1092,-0.08959 0.19226,-0.17885 0.2896,-0.25568c0.18043,-0.16604 0.18039,-0.16608 -0.01762,-0.45134c-0.11166,0.0646 -0.24949,0.12959 -0.31119,0.16824c0.01944,0.20041 0.02221,0.36343 0.03923,0.53877zM189.79455,174.54107c0.14511,0.01017 0.29753,0.09542 0.42804,-0.04473c-0.02645,-0.13756 -0.07909,-0.27468 -0.10798,-0.43728c-0.17128,-0.00971 -0.34495,-0.04451 -0.48277,0.02052c0.04081,0.14987 0.05535,0.30017 0.16273,0.46149zM191.94357,166.31382c0.2257,-0.10412 0.46576,-0.19586 0.69146,-0.29999c0.03069,-0.08831 0.03531,-0.17619 -0.07419,-0.22455c-0.23543,0.00389 -0.46607,0.05788 -0.6632,0.1866c-0.01402,0.12569 -0.00426,0.22586 0.04595,0.33796zM188.36042,171.24047c-0.11193,-0.07341 -0.23089,-0.08402 -0.35927,-0.05677c-0.01889,0.07559 -0.03772,0.15115 -0.05658,0.22675c-0.01646,0.10061 -0.04714,0.18896 0.01492,0.28826c0.08578,0.07387 0.18096,0.10992 0.29751,0.09542c0.03529,-0.17624 0.06814,-0.37748 0.10348,-0.55366zM190.93963,173.91997c-0.17128,-0.00971 -0.31153,0.03025 -0.44933,0.09524c0.04316,0.1749 0.07209,0.33751 0.11284,0.48735c0.15,0.06022 0.27836,0.03302 0.36386,-0.03112c-0.00514,-0.18808 -0.01034,-0.37617 -0.02732,-0.55153zM188.15637,170.35323c-0.0283,0.11337 -0.0566,0.22672 -0.07062,0.35242c0.00243,0.02501 0.03104,0.04968 0.04779,0.08705c0.09277,0.01102 0.20227,0.05939 0.3401,-0.00564c0.052,-0.13889 0.14203,-0.2909 0.13689,-0.47897c-0.1737,-0.03473 -0.30205,-0.00751 -0.45417,0.04518zM188.41886,168.6051c-0.14481,0.12785 -0.32582,0.01795 -0.44445,0.14535c-0.0377,0.15112 -0.13024,0.27811 -0.11075,0.47851c0.1594,0.02245 0.30454,0.03258 0.36838,-0.11901c0.06389,-0.15159 0.18495,-0.25393 0.18681,-0.50487zM192.13127,165.14403c-0.14023,0.03995 -0.29478,0.06762 -0.42314,0.0948c-0.02616,0.00042 -0.03561,0.03823 -0.05931,0.06372c0.04777,0.08702 0.0599,0.21227 0.2242,0.2848c0.16637,-0.0404 0.34468,-0.0935 0.53725,-0.13436c-0.0526,-0.13712 -0.12656,-0.22371 -0.27896,-0.30904zM190.75159,174.95174c0.01458,0.15029 0.01732,0.31333 0.0295,0.43856c0.16427,0.07255 0.3094,0.08272 0.4402,0.08053c0.06877,-0.10153 -0.01947,-0.20036 -0.04107,-0.28787c-0.02162,-0.08747 -0.03133,-0.18766 -0.14329,-0.26107c-0.08092,-0.02375 -0.17372,-0.03474 -0.28538,0.02982zM198.82815,170.28942c0.01154,-0.15072 0.01371,-0.26369 0.01584,-0.3766c0.00944,-0.0378 -0.02159,-0.08747 -0.02403,-0.11253c-0.10005,-0.08617 -0.21903,-0.09676 -0.3474,-0.0695c-0.02342,0.16347 -0.06114,0.31465 -0.04418,0.48995c0.12137,0.03561 0.24033,0.0462 0.39973,0.06865zM189.7362,166.25002c-0.21147,0.11639 -0.42284,0.23281 -0.54609,0.44809c0.16426,0.07253 0.29054,0.15829 0.45692,0.1179c0.13024,-0.27811 0.13023,-0.27813 0.08916,-0.56598zM197.95615,168.45979c-0.01763,-0.45135 -0.03191,-0.46361 -0.40797,-0.55773c0.00273,0.16307 0.03163,0.32562 0.03432,0.48868c0.11193,0.07341 0.23087,0.08397 0.37356,0.0691zM188.62652,172.22709c-0.02343,0.16347 -0.02311,0.30147 0.04379,0.45092c0.04046,0.01187 0.10709,0.02334 0.17371,0.03477c0.05233,-0.00088 0.11655,-0.01447 0.16881,-0.01534c0.02341,-0.16348 0.073,-0.3274 0.01795,-0.48957c-0.12136,-0.03561 -0.26406,-0.02074 -0.40429,0.01925zM199.12836,171.62671c-0.06661,-0.01143 -0.1594,-0.02242 -0.20931,0.00347c-0.17343,0.10323 -0.2634,0.25523 -0.29386,0.48158c0.13323,0.02291 0.27134,0.09586 0.38544,0.05632c0.06146,-0.17663 0.17766,-0.3291 0.11774,-0.54136zM193.75105,176.15659c0.00242,0.02503 0.00486,0.05009 0.00974,0.10017c0.28081,0.05806 0.55427,0.04101 0.82774,0.02392c0.04016,-0.1261 0.01855,-0.21355 -0.08395,-0.32477c-0.24244,0.06673 -0.49917,0.12118 -0.75353,0.20066zM191.40647,170.90157c0.26376,-0.11727 0.52991,-0.20951 0.71731,-0.4384c0.01189,-0.01273 -0.02162,-0.08744 -0.05019,-0.11205c-0.0715,-0.06151 -0.17613,-0.0598 -0.23541,0.00395c-0.19714,0.12871 -0.32278,0.31898 -0.43169,0.54654zM188.6831,173.07924c0.00027,0.13799 0.00058,0.27598 0.0532,0.41311c0.10007,0.08616 0.19529,0.12222 0.34982,0.09459c-0.0289,-0.16261 -0.0459,-0.33796 -0.08667,-0.48779c-0.10947,-0.04836 -0.20228,-0.05936 -0.31636,-0.01983zM195.97272,166.38509c-0.1883,-0.18505 -0.34797,-0.34552 -0.60259,-0.40402c-0.06388,0.15158 -0.01128,0.28871 0.06751,0.42541c0.18557,0.022 0.34497,0.04448 0.53511,-0.02142zM198.86117,173.46266c-0.19988,-0.03433 -0.226,-0.03393 -0.26163,0.00432c-0.13295,0.11508 -0.16824,0.29132 -0.19166,0.45478c-0.007,0.06282 0.05265,0.13711 0.16672,0.09759c0.02101,-0.18851 0.23245,-0.30493 0.28657,-0.55672zM193.26224,175.57509c-0.25676,0.05439 -0.51596,0.08381 -0.73192,0.28813c0.28319,0.08312 0.52569,0.01638 0.74439,-0.02489c0.04504,-0.076 0.02585,-0.1384 -0.01249,-0.26321zM198.5027,169.36647c0.10708,0.02331 0.20229,0.05935 0.30937,0.08268c0.03531,-0.17624 0.03257,-0.33926 -0.1603,-0.43642c-0.05475,-0.0242 -0.10949,-0.04835 -0.17127,-0.00971c-0.04259,0.10105 -0.01857,0.21358 0.02221,0.36343zM189.9895,168.99308c-0.1287,-0.11077 -0.20957,-0.13453 -0.29018,-0.0203c-0.06878,0.1015 -0.13752,0.20301 -0.19196,0.31683c-0.02126,0.05052 -0.02831,0.11339 0.04075,0.14988c0.18525,-0.11596 0.31577,-0.25613 0.4414,-0.44639zM195.18518,173.92499c0.21147,-0.1164 0.39427,-0.25745 0.50562,-0.46c0.01188,-0.01276 -0.02164,-0.08745 -0.03591,-0.09974c-0.02856,-0.0246 -0.09277,-0.01102 -0.11651,0.01448c-0.13994,0.17793 -0.31093,0.30625 -0.35323,0.5453zM196.2748,174.08253c-0.07576,0.16433 -0.20629,0.30452 -0.25103,0.51849c0.22571,-0.10411 0.38482,-0.21965 0.4131,-0.33301c0.04259,-0.10105 -0.01458,-0.15031 -0.16212,-0.18547zM194.4435,165.34412c-0.20717,-0.10946 -0.40737,-0.28179 -0.6498,-0.21504c0.16243,0.32345 0.40487,0.25671 0.6498,0.21504zM192.4844,167.83532c-0.02857,-0.02459 -0.0548,-0.02422 -0.08338,-0.04882c-0.10432,0.13972 -0.2683,0.20516 -0.30359,0.38138c0.0739,0.0866 0.12869,0.11076 0.23089,0.08397c0.04016,-0.1261 0.09218,-0.26495 0.15607,-0.41659zM193.41684,172.31091c0.20899,-0.14146 0.36809,-0.257 0.49618,-0.42219c0.02374,-0.02548 0.01887,-0.07556 -0.02402,-0.11249c-0.01431,-0.01233 -0.05475,-0.02418 -0.08093,-0.02375c-0.21147,0.11639 -0.3538,0.26929 -0.39122,0.55844zM199.0277,171.2646c0.1095,0.04835 0.1761,0.05981 0.18313,-0.00304c0.04016,-0.1261 0.06601,-0.26453 0.09189,-0.40297c0.00457,-0.08789 -0.0383,-0.12481 -0.12867,-0.11075c-0.08765,0.17706 -0.15152,0.32869 -0.14635,0.51675zM189.19166,173.9991c-0.09277,-0.01102 -0.17372,-0.03474 -0.2665,-0.04578c-0.02615,0.0004 -0.04989,0.02593 -0.09979,0.05182c0.17153,0.1477 0.29322,0.32128 0.52655,0.43035c-0.0289,-0.16261 -0.05293,-0.27512 -0.16031,-0.43641zM196.0331,171.18874c0.10434,-0.13971 0.19684,-0.26672 0.32493,-0.43192c-0.26163,0.00435 -0.41129,0.08207 -0.51563,0.2218c0.0359,0.09976 0.06692,0.14943 0.19072,0.21013zM191.2472,167.64258c0.02588,-0.13844 0.18496,-0.25392 0.09888,-0.46578c-0.32763,0.26888 -0.38694,0.33255 -0.3392,0.41961c0.0715,0.06151 0.13812,0.07299 0.24033,0.0462zM194.29845,173.02389c0.34953,-0.0434 0.49188,-0.19633 0.61269,-0.43666c-0.34254,-0.01941 -0.39423,0.25743 -0.61269,0.43666zM188.66464,168.9774c0.32337,-0.04298 0.45392,-0.18314 0.56767,-0.36066c0.01188,-0.01275 -0.00487,-0.0501 -0.03346,-0.07471c-0.04289,-0.03694 -0.09522,-0.03605 -0.11892,-0.01057c-0.13295,0.11507 -0.23728,0.25478 -0.41524,0.44593zM190.38288,167.24284c0.06388,-0.15158 0.16824,-0.29134 0.10832,-0.50354c-0.16154,0.0905 -0.25402,0.21747 -0.33464,0.33169c0.05018,0.11207 0.11922,0.14854 0.22633,0.17187zM187.78822,169.53134c-0.0067,0.20086 -0.13722,0.34099 -0.0417,0.51505c0.20899,-0.14146 0.20898,-0.14145 0.21783,-0.45521c-0.04046,-0.01187 -0.08092,-0.02375 -0.17612,-0.05982zM193.6881,165.79568c-0.23576,-0.13408 -0.44263,-0.10558 -0.64705,-0.05201c-0.0283,0.11337 0.0289,0.16261 0.10736,0.16131c0.16638,-0.04043 0.34712,-0.06849 0.53966,-0.10931zM188.25781,172.20814c-0.09767,-0.06113 -0.18098,-0.10992 -0.29506,-0.07038c-0.00214,0.11292 -0.00429,0.2259 0.06961,0.31244c0.08333,0.04881 0.14998,0.06022 0.22606,0.03389c0.0307,-0.08833 0.02342,-0.16347 -0.00061,-0.27597zM194.3092,169.22261c-0.1378,0.06499 -0.23762,0.11685 -0.2802,0.21791c-0.00944,0.0378 0.00729,0.07515 0.02403,0.11252c0.04289,0.03694 0.12381,0.06069 0.1451,0.01017c0.0712,-0.07646 0.15424,-0.16564 0.11105,-0.34058zM190.02148,174.98895c0.09309,0.149 0.2668,0.18375 0.4049,0.25673c-0.01732,-0.31335 -0.04595,-0.33793 -0.4049,-0.25673zM197.06355,174.78456c-0.23516,0.1419 -0.23515,0.14188 -0.17767,0.32912c0.09979,-0.05182 0.21145,-0.11643 0.17767,-0.32912zM193.11676,168.81591c0.02162,0.08747 0.06449,0.12438 0.1025,0.1112c0.16638,-0.04043 0.1877,-0.09092 0.16578,-0.31638c-0.12593,0.05224 -0.19717,0.12871 -0.26835,0.20517zM188.15913,168.35854c0.13081,-0.00219 0.24733,-0.01667 0.30179,-0.13043c-0.26436,-0.15869 -0.30234,-0.14554 -0.30179,0.13043zM196.94853,175.4889c0.16887,-0.01535 0.27805,-0.10494 0.37538,-0.18181c0.04746,-0.05094 0.04017,-0.12613 -0.09309,-0.149c-0.09732,0.07688 -0.2066,0.16651 -0.28232,0.33082zM187.65035,170.6752c0.14723,-0.10279 0.16369,-0.20341 0.07303,-0.32738c0,0 -0.04046,-0.01187 -0.05233,0.00088c-0.08548,0.06416 -0.04718,0.18892 -0.02074,0.32652zM195.17223,170.14922c-0.1095,-0.04835 -0.18558,-0.02202 -0.21871,0.04124c-0.02374,0.02548 -0.01886,0.0756 -0.00215,0.11294c0.01675,0.03735 0.08333,0.04879 0.10706,0.0233c0.0499,-0.02591 0.09735,-0.07686 0.1138,-0.17749zM188.34538,173.10985c0.02588,-0.13843 0.00429,-0.2259 -0.15758,-0.27337c-0.02341,0.16348 0.01003,0.23819 0.15758,0.27337z" fill="#000000"/><path d="M199.52007,165.81206c-0.44563,-0.40661 -0.8913,-0.81324 -1.34882,-1.20709c-0.51472,-0.44311 -1.07686,-0.83522 -1.68406,-1.15133c-0.19287,-0.09715 -0.38083,-0.14424 -0.59984,-0.24098c0.18985,-0.20389 0.3416,-0.39454 0.52202,-0.5606c1.05382,-1.02103 2.04802,-2.11631 3.08509,-3.17469c0.93032,-0.94369 1.83444,-1.88699 2.75044,-2.84302c0.63124,-0.65023 1.25067,-1.28774 1.88192,-1.93794c0.59568,-0.61203 1.15086,-1.23588 1.74649,-1.84791c0.04747,-0.05096 0.09494,-0.10193 0.15667,-0.14059c0.33067,0.03214 0.60444,0.15311 0.89496,0.31132c0.45722,0.25589 0.90499,0.54954 1.29344,0.90691c0.1287,0.11077 0.26922,0.20879 0.32425,0.37098c-0.15243,-0.08529 -0.25978,-0.24657 -0.47636,-0.31827c-0.08976,0.28998 -0.33433,0.46967 -0.50988,0.68586c-0.01188,0.01275 -0.02373,0.02546 -0.00945,0.03779c-0.20598,0.44245 -0.55006,0.81195 -0.81079,1.23027c-0.09005,0.15201 -0.1372,0.34099 -0.28442,0.44378c-0.26591,0.23019 -0.36264,0.58307 -0.62854,0.8133c-0.01188,0.01275 -0.02129,0.05053 -0.04505,0.07602c-0.18249,0.27898 -0.33893,0.55755 -0.55003,0.81195c-0.26101,0.28031 -0.38396,0.63362 -0.67354,0.88929c-0.06845,0.23947 -0.25131,0.38047 -0.40311,0.57116c-0.02374,0.02548 -0.03561,0.03825 -0.05932,0.06369c-0.12292,0.3533 -0.42925,0.57164 -0.60937,0.8757c-0.1801,0.30404 -0.45785,0.54701 -0.65224,0.83876c-0.23002,0.32997 -0.40519,0.68411 -0.73289,0.95297c-0.02374,0.02548 -0.05935,0.06371 -0.06878,0.1015c-0.04471,0.21402 -0.23,0.32996 -0.3581,0.49517c-0.0712,0.07646 -0.16852,0.1533 -0.21113,0.2544c-0.04962,0.16388 -0.15881,0.25352 -0.26561,0.36819c-0.05933,0.06371 -0.13297,0.1151 -0.15179,0.19069c-0.06845,0.23947 -0.26315,0.39324 -0.41738,0.55887c-0.05933,0.06371 -0.13292,0.11512 -0.15181,0.19068c-0.05905,0.20166 -0.20383,0.32954 -0.33437,0.46969c-0.21357,0.22938 -0.32705,0.54483 -0.5549,0.76186c-0.04989,0.02593 -0.04262,0.10104 -0.06387,0.15159z" fill="#87d7dc"/><path d="M199.52009,165.81203c0.0213,-0.05052 0.014,-0.12569 0.04959,-0.16392c0.22784,-0.21705 0.35563,-0.52021 0.5549,-0.76187c0.1305,-0.14015 0.27534,-0.26801 0.33436,-0.46968c0.01889,-0.07559 0.09249,-0.127 0.15176,-0.19068c0.15422,-0.16565 0.33466,-0.33169 0.41743,-0.55887c0.01886,-0.0756 0.10679,-0.11469 0.15179,-0.1907c0.10677,-0.11467 0.20171,-0.21661 0.26561,-0.36819c0.04259,-0.10105 0.13998,-0.17797 0.21114,-0.25441c0.12806,-0.1652 0.31334,-0.28119 0.35807,-0.49518c0.00944,-0.0378 0.04504,-0.07601 0.06875,-0.1015c0.31577,-0.25613 0.5029,-0.62304 0.73288,-0.953c0.20629,-0.30452 0.48401,-0.54742 0.65227,-0.83874c0.18008,-0.30404 0.48644,-0.5224 0.60936,-0.87567c-0.0024,-0.02504 0.03561,-0.03823 0.05934,-0.06372c0.15422,-0.16565 0.33462,-0.3317 0.40311,-0.5712c0.30393,-0.24338 0.42681,-0.59668 0.67356,-0.88927c0.22543,-0.24208 0.36749,-0.53296 0.55005,-0.81194c0.02374,-0.02548 0.02127,-0.05057 0.04502,-0.07603c0.26591,-0.23019 0.36262,-0.58306 0.62854,-0.81329c0.1448,-0.12784 0.18013,-0.30406 0.28442,-0.44378c0.27502,-0.40598 0.60481,-0.7878 0.81078,-1.23025c0.01188,-0.01275 0.00941,-0.03781 0.00941,-0.03781c0.17554,-0.21619 0.42015,-0.39585 0.50988,-0.68588c0.20228,0.05937 0.2978,0.23344 0.47637,0.31829c0.11438,0.09844 0.22873,0.19693 0.25762,0.35957c-0.0712,0.07646 -0.16852,0.1533 -0.2111,0.25438c-0.14906,0.35371 -0.41257,0.60897 -0.63312,0.90117c-0.22054,0.29215 -0.36961,0.64589 -0.67353,0.88927c-0.06845,0.23947 -0.25129,0.38051 -0.40309,0.57119c-0.02374,0.02548 -0.05932,0.0637 -0.06875,0.1015c-0.03531,0.17624 -0.18253,0.27899 -0.27504,0.406c-0.05933,0.06371 -0.11862,0.12743 -0.15179,0.19068c-0.18954,0.34187 -0.40519,0.68413 -0.67811,0.97718c-0.03562,0.03821 -0.09739,0.07688 -0.09248,0.12697c-0.04715,0.18891 -0.18008,0.30405 -0.29873,0.43147c-0.1448,0.12784 -0.16335,0.34144 -0.32005,0.48198c-0.20413,0.19155 -0.3106,0.44422 -0.47185,0.67268c-0.23244,0.30494 -0.3958,0.64633 -0.66871,0.93935c-0.04747,0.05096 -0.12109,0.10237 -0.12807,0.16522c-0.03776,0.15115 -0.15877,0.25352 -0.25129,0.38048c-0.09492,0.10192 -0.17553,0.21615 -0.23002,0.32996c-0.09707,0.21487 -0.22269,0.40513 -0.38878,0.58353c-0.23485,0.27986 -0.38392,0.6336 -0.68782,0.87698c-0.02374,0.02548 -0.04506,0.07598 -0.06878,0.1015c-0.20629,0.30452 -0.3982,0.6213 -0.6331,0.90114c-0.26101,0.28031 -0.40767,0.65909 -0.6973,0.91476c-0.03562,0.03821 -0.04257,0.10106 -0.06387,0.15159c-0.12564,0.19025 -0.27745,0.38094 -0.47458,0.50964c-0.08335,-0.0488 -0.14054,-0.09801 -0.20958,-0.13452c-0.16457,-0.21055 -0.31241,-0.38372 -0.48641,-0.55647z" fill="#b0eef2"/><path d="M188.13844,167.60616c0.18251,-0.27897 0.34623,-0.48242 0.58139,-0.62431c0.20931,-0.00346 0.40216,0.09367 0.60686,0.1781c0.98805,0.46035 1.96422,0.93343 2.87411,1.53304c0.68598,0.45282 1.38628,0.91791 2.02721,1.44672c0.17154,0.1477 0.34557,0.32044 0.55273,0.42994c0.08335,0.0488 0.16913,0.12268 0.25489,0.19648c0.29568,0.34637 0.66254,0.61628 0.99383,0.92442c0.47427,0.43121 0.90106,0.91341 1.30409,1.42105c0.19559,0.26019 0.40308,0.50768 0.62483,0.76742c0.1764,0.19779 0.2768,0.42193 0.38905,0.63335c-0.11352,0.31551 -0.18224,0.41698 -0.4956,0.69815c-0.30267,-0.28349 -0.53173,-0.61841 -0.81066,-0.92743c-0.26465,-0.2967 -0.54358,-0.60567 -0.82009,-0.88965c-0.29078,-0.29627 -0.6078,-0.5921 -0.91044,-0.87561c-0.27649,-0.28395 -0.63854,-0.50373 -0.87947,-0.82596c-0.37388,-0.20709 -0.65279,-0.51609 -0.97922,-0.77411c-0.3121,-0.24573 -0.65037,-0.49102 -0.97438,-0.72402c-0.33827,-0.2453 -0.6884,-0.47782 -1.05283,-0.72275c-0.33585,-0.22025 -0.67409,-0.46555 -1.02184,-0.67305c-0.362,-0.2198 -0.73342,-0.40183 -1.1073,-0.60892c-0.38817,-0.21937 -0.73586,-0.42689 -1.1572,-0.58301z" fill="#d1eaeb"/><path d="M200.0041,166.34344c0.06905,0.03649 0.12625,0.08573 0.20959,0.1345c0.19714,-0.12873 0.35136,-0.29434 0.47458,-0.50964c0.02131,-0.05052 0.0283,-0.11337 0.06388,-0.15158c0.2896,-0.25566 0.45057,-0.62219 0.69729,-0.91476c0.24916,-0.26758 0.42683,-0.59665 0.63314,-0.90113c0.02374,-0.02548 0.04505,-0.07602 0.06875,-0.1015c0.30393,-0.24337 0.42684,-0.59665 0.68786,-0.87696c0.15422,-0.16565 0.29173,-0.36863 0.38877,-0.58353c0.06631,-0.1265 0.14693,-0.24078 0.22999,-0.32997c0.10677,-0.11467 0.21598,-0.20428 0.25128,-0.3805c0.00701,-0.06281 0.08064,-0.11424 0.1281,-0.16519c0.26101,-0.28031 0.43621,-0.63446 0.66868,-0.93937c0.16126,-0.22847 0.2677,-0.48114 0.47186,-0.67269c0.1448,-0.12784 0.16337,-0.3414 0.32005,-0.48198c0.13295,-0.1151 0.27774,-0.24294 0.29877,-0.43146c0.02131,-0.05052 0.05688,-0.08874 0.09244,-0.12698c0.27288,-0.29304 0.47674,-0.62254 0.6781,-0.97718c0.04504,-0.076 0.11862,-0.12742 0.1518,-0.19065c0.10677,-0.11467 0.2397,-0.2298 0.27499,-0.40598c0.00944,-0.0378 0.04502,-0.07601 0.06877,-0.10148c0.15422,-0.16565 0.33464,-0.3317 0.40311,-0.57119c0.30392,-0.24338 0.45298,-0.5971 0.67353,-0.88927c0.22054,-0.29215 0.49586,-0.56015 0.63309,-0.90113c0.0426,-0.10105 0.13997,-0.17792 0.21113,-0.2544c0.14054,0.09804 0.15514,0.24831 0.24338,0.3472c-0.4268,0.59665 -0.81564,1.18017 -1.21873,1.75134c-0.43628,0.63446 -0.87494,1.24387 -1.32548,1.86603c-0.41498,0.58394 -0.81563,1.18019 -1.21629,1.77641c-0.50502,0.73595 -0.98385,1.47147 -1.47701,2.1947c-0.37938,0.54571 -0.75877,1.0914 -1.12381,1.64942c-0.58561,0.8502 -1.24033,1.66392 -1.79734,2.53873c-0.08061,0.11422 -0.13262,0.25309 -0.2823,0.33082c-0.1287,-0.11077 -0.22175,-0.25976 -0.32673,-0.39603c-0.04777,-0.08701 -0.20016,-0.1723 -0.25525,-0.3345z" fill="#87d7dc"/><path d="M208.55335,153.73241c-0.32398,-0.23299 -0.58621,-0.50463 -0.92204,-0.72484c-0.3906,-0.24444 -0.79307,-0.47611 -1.26669,-0.63137c0.68815,-0.739 1.36442,-1.46524 2.02883,-2.17875c0.28777,-0.00479 0.52109,0.10429 0.752,0.18827c0.43563,0.16841 0.78818,0.42603 1.15506,0.69594c0.01431,0.01233 0.03102,0.04966 0.03348,0.0747c-0.19986,-0.03433 -0.25187,0.10452 -0.31819,0.23108c-0.16581,0.31638 -0.34588,0.62043 -0.59749,0.86292c-0.04747,0.05096 -0.09492,0.10194 -0.12806,0.1652c-0.13964,0.31596 -0.39122,0.55844 -0.57377,0.83748c-0.10197,0.16474 -0.16817,0.29131 -0.16305,0.47939z" fill="#61afb4"/><path d="M198.64058,168.22262c-0.42921,-0.50723 -0.94146,-0.92525 -1.40629,-1.39424c-0.21687,-0.20968 -0.4694,-0.38111 -0.72189,-0.55257c-0.45265,-0.34378 -0.87211,-0.75079 -1.37226,-1.04356c-0.19529,-0.12224 -0.39059,-0.24445 -0.58345,-0.34162c-0.12382,-0.06068 -0.23574,-0.13406 -0.33585,-0.22025c0.02126,-0.05052 0.03074,-0.08832 0.05448,-0.11381c0.09492,-0.10189 0.18981,-0.20386 0.28471,-0.3058c0.10708,0.0233 0.188,0.04709 0.2832,0.08313c0.65705,0.29018 1.32846,0.5927 1.88608,1.07274c0.498,0.40575 1.01022,0.82373 1.46078,1.28047c0.36233,0.35781 0.73647,0.70286 0.98956,1.15028c-0.09522,-0.03603 -0.14541,-0.14813 -0.27376,-0.12089c-0.1591,0.11553 -0.35625,0.24425 -0.26528,0.50618z" fill="#61aeb3"/><path d="M199.09236,167.0736c-0.26679,-0.18376 -0.42432,-0.45714 -0.65553,-0.67911c-0.50287,-0.45583 -1.00567,-0.91169 -1.54412,-1.32928c-0.43833,-0.33145 -0.9099,-0.59962 -1.39082,-0.83002c-0.12382,-0.06068 -0.24759,-0.12133 -0.37143,-0.182c0.1661,-0.17839 0.30845,-0.33132 0.46272,-0.49693c0.31393,-0.0052 0.58772,0.11575 0.85209,0.27442c0.31912,0.18287 0.65248,0.37808 0.95031,0.61151c0.69081,0.50293 1.2962,1.06997 1.92772,1.63656c0.11436,0.09846 0.22878,0.19694 0.26953,0.3468c-0.05933,0.06371 -0.13291,0.11513 -0.15179,0.19069c-0.06147,0.17664 -0.21813,0.31726 -0.34861,0.45738z" fill="#61aeb3"/><path d="M208.55336,153.73241c-0.00273,-0.16307 0.0493,-0.30187 0.15365,-0.4416c0.18253,-0.27898 0.43415,-0.52152 0.57374,-0.83744c0.03317,-0.06328 0.08062,-0.11426 0.12809,-0.16522c0.24915,-0.26759 0.41738,-0.55887 0.59747,-0.86292c0.05449,-0.11381 0.11833,-0.26541 0.31821,-0.23109c0.22632,0.17189 0.40275,0.36967 0.5293,0.59338c-0.12321,0.21533 -0.23215,0.44291 -0.42682,0.59669c-0.02374,0.02548 -0.04504,0.07601 -0.06875,0.1015c-0.19437,0.29174 -0.40065,0.59625 -0.60937,0.87569c-0.09248,0.12697 -0.18742,0.22889 -0.26561,0.36819c-0.08764,0.17706 -0.2157,0.3423 -0.4177,0.42088c-0.08333,-0.04881 -0.14052,-0.09803 -0.20957,-0.13453c-0.10005,-0.08617 -0.20262,-0.19737 -0.30267,-0.2835z" fill="#87d7dc"/><path d="M192.50268,174.09481c-0.00548,-0.3261 0.11284,-0.59145 0.24553,-0.84457c0.03316,-0.06327 0.10436,-0.13972 0.1661,-0.17839c0.45844,-0.27102 0.85974,-0.59128 1.24667,-0.92385c0.01188,-0.01275 0.04988,-0.02591 0.07606,-0.02637c0.09277,0.01102 0.16431,0.07253 0.20017,0.17229c-0.02374,0.02548 -0.03315,0.06329 -0.05688,0.08877c-0.29905,0.29343 -0.55522,0.62387 -0.72803,1.00308c-0.0995,0.18981 -0.23002,0.33 -0.44386,0.42133c-0.24002,0.09176 -0.43714,0.22049 -0.70579,0.28768z" fill="#cce5e6"/><path d="M195.15201,172.9094c0.12137,0.03561 0.1667,0.0976 0.17399,0.17274c-0.54092,0.63619 -0.5409,0.63619 -0.81045,1.36825c-0.23031,0.192 -0.53205,0.32243 -0.79338,0.46471c-0.12382,-0.06068 -0.0669,-0.14941 -0.0599,-0.21226c0.03041,-0.2263 0.049,-0.43988 0.1199,-0.65432c0.05203,-0.13888 0.12081,-0.24034 0.24427,-0.31765c0.38242,-0.2447 0.76235,-0.51441 1.1256,-0.82147z" fill="#cce5e6"/><path d="M208.87031,154.02822c0.06906,0.03651 0.12626,0.08574 0.20957,0.13452c0.202,-0.0786 0.33007,-0.24381 0.41769,-0.42092c0.07818,-0.13931 0.17309,-0.24122 0.26562,-0.36819c0.2087,-0.27944 0.41495,-0.58392 0.60935,-0.87568c0.02374,-0.02548 0.04503,-0.07603 0.06878,-0.1015c0.19225,-0.17881 0.28933,-0.39365 0.42683,-0.59663c0.09066,0.12393 0.16701,0.23562 0.21019,0.41051c-0.28933,0.39368 -0.56191,0.82474 -0.87739,1.21884c-0.28933,0.39368 -0.52145,0.83656 -0.87738,1.21881c-0.21688,-0.20966 -0.34099,-0.40832 -0.45327,-0.61971z" fill="#60adb2"/><path d="M192.80951,168.62027c-0.06905,-0.03649 -0.12382,-0.06071 -0.19286,-0.09717c-0.00489,-0.05011 -0.00727,-0.07513 -0.00972,-0.10017c0.1445,-0.26582 0.23426,-0.55586 0.30973,-0.85814c0.04018,-0.1261 0.09705,-0.21489 0.22299,-0.26713c0.2376,-0.11684 0.45843,-0.27105 0.78669,-0.26392c0.01731,0.31332 -0.07242,0.60336 -0.17649,0.88105c-0.02126,0.05052 -0.09495,0.1019 -0.15666,0.14058c-0.2564,0.19242 -0.51293,0.38486 -0.78369,0.56496z" fill="#cce5e6"/><path d="M189.60762,171.67147c0.06144,-0.17663 0.08978,-0.29001 0.12994,-0.41613c0.08276,-0.22719 0.21083,-0.39236 0.46272,-0.49691c0.41342,-0.19499 0.79581,-0.43973 1.09243,-0.75824c0.09493,-0.10191 0.12107,-0.10235 0.28081,0.05806c-0.0356,0.03822 -0.05687,0.08876 -0.09251,0.12699c-0.31091,0.30622 -0.55276,0.64891 -0.75174,1.02856c-0.05692,0.08875 -0.10192,0.16476 -0.18982,0.20389c-0.29236,0.09268 -0.55611,0.20991 -0.93181,0.25374z" fill="#cae2e3"/><path d="M193.47683,171.4443c0.00242,0.02503 -0.00699,0.06289 -0.01889,0.07559c-0.30145,0.2684 -0.5053,0.59796 -0.68299,0.92708c-0.18008,0.30404 -0.40553,0.54616 -0.77393,0.66511c-0.17828,0.05313 -0.32305,0.18099 -0.51807,0.19674c0.02038,-0.46448 0.24798,-0.81951 0.60906,-1.01366c0.43474,-0.24555 0.87187,-0.46603 1.20166,-0.84786c0.04989,-0.02593 0.09737,-0.07688 0.18314,-0.00304z" fill="#c9e1e2"/><path d="M190.62027,172.52025c0.04687,-0.32694 0.15576,-0.55453 0.27656,-0.79487c0.04504,-0.076 0.10435,-0.13971 0.18042,-0.16606c0.4609,-0.24598 0.90503,-0.52931 1.32058,-0.83724c0.02374,-0.02548 0.07359,-0.0514 0.13323,0.02289c-0.08304,0.08918 -0.17795,0.1911 -0.24673,0.29261c-0.223,0.2671 -0.43168,0.54657 -0.57131,0.86249c-0.10888,0.22764 -0.27746,0.38092 -0.51991,0.44767c-0.17828,0.05313 -0.34467,0.09354 -0.57285,0.17257z" fill="#c9e1e2"/><path d="M191.79016,167.97226c-0.14512,-0.01017 -0.21661,-0.07171 -0.28809,-0.13323c-0.00243,-0.02501 0.00699,-0.06287 0.00457,-0.08787c0.16125,-0.22846 0.25342,-0.49346 0.27896,-0.76986c0.02343,-0.16347 0.10406,-0.27769 0.25375,-0.35544c0.18767,-0.09092 0.37294,-0.20691 0.57739,-0.26048c0.05048,0.25004 0.04653,0.61395 -0.0198,0.74049c-0.0307,0.08833 -0.10676,0.11469 -0.18042,0.16606c-0.18741,0.22888 -0.45815,0.40904 -0.62639,0.70029z" fill="#cae3e4"/><path d="M197.46285,171.34067c-0.33279,0.08079 -0.62273,0.19844 -0.91022,0.34122c-0.10947,-0.04836 -0.16673,-0.09761 -0.20262,-0.19737c0.14206,-0.29087 0.41984,-0.53379 0.54762,-0.83699c0.20201,-0.07859 0.38756,-0.0566 0.58256,-0.07238c0.10461,-0.00174 0.20683,-0.02852 0.31878,0.0449c-0.03987,0.26411 -0.24399,0.45562 -0.33618,0.7206z" fill="#c8e0e1"/><path d="M194.61765,169.9702c-0.1168,-0.1235 -0.08364,-0.18678 -0.0505,-0.25005c0.12078,-0.24038 0.22969,-0.46794 0.36475,-0.69601c0.03316,-0.06329 0.08062,-0.11424 0.15668,-0.14062c0.23057,-0.05398 0.47548,-0.09566 0.7228,-0.11233c0.00028,0.13797 -0.0566,0.22675 -0.08491,0.34013c-0.0849,0.34009 -0.27228,0.56901 -0.64796,0.61289c-0.18072,0.02807 -0.32795,0.13088 -0.46088,0.24601z" fill="#cbe4e5"/><path d="M195.51842,170.74564c-0.0715,-0.06151 -0.11438,-0.09844 -0.15728,-0.13536c0.00944,-0.0378 -0.00726,-0.07515 0.00457,-0.08789c0.10197,-0.16474 0.21812,-0.31726 0.32005,-0.48202c0.05691,-0.08876 0.13053,-0.14015 0.23275,-0.16693c0.30663,-0.08035 0.61575,-0.13563 0.9677,-0.15402c-0.00669,0.20082 -0.09917,0.32779 -0.19166,0.45477c-0.04747,0.05093 -0.09494,0.10193 -0.15907,0.11554c-0.37571,0.04386 -0.6988,0.22483 -1.01701,0.45589z" fill="#c8e0e1"/><path d="M199.09235,167.07361c0.1305,-0.14015 0.2872,-0.28075 0.34622,-0.48245c0.01886,-0.0756 0.0925,-0.12694 0.1518,-0.19066c0.25491,0.19648 0.44808,0.43164 0.57947,0.70547c-0.19471,0.15374 -0.30362,0.38133 -0.41737,0.55886c-0.1594,-0.02245 -0.2239,-0.14684 -0.33339,-0.19518c-0.14054,-0.09804 -0.27165,-0.23389 -0.32672,-0.39602z" fill="#85d5d9"/><path d="M189.10242,170.11172c0.24946,-0.12959 0.49889,-0.25917 0.74593,-0.41378c0.209,-0.14144 0.28445,-0.44377 0.67689,-0.45023c-0.40336,0.43319 -0.65926,0.9016 -0.91511,1.36998c-0.20201,0.07859 -0.43014,0.15767 -0.67991,0.14923c-0.00489,-0.05011 -0.00729,-0.07516 -0.00974,-0.10017c0.04716,-0.18894 0.10862,-0.36562 0.18191,-0.55496z" fill="#c6dede"/><path d="M192.4181,174.57293c0.30181,-0.13046 0.5655,-0.24771 0.86731,-0.37817c0.04316,0.1749 -0.00883,0.31379 -0.00853,0.45175c-0.01154,0.15072 0.01731,0.31335 -0.04658,0.46493c-0.08304,0.08918 -0.21143,0.11641 -0.32548,0.15595c-0.11406,0.03953 -0.24246,0.06671 -0.38515,0.08165c-0.12898,-0.24876 -0.10094,-0.50011 -0.10157,-0.77611z" fill="#cae3e3"/><path d="M196.09078,173.67163c-0.25584,0.46841 -0.45239,0.8731 -0.55123,1.33886c-0.21147,0.1164 -0.40856,0.2451 -0.63186,0.37425c-0.09096,-0.26194 -0.02007,-0.47637 0.01036,-0.70266c0.00944,-0.0378 0.04506,-0.07603 0.06877,-0.10148c0.3395,-0.2816 0.679,-0.56323 1.10398,-0.90896z" fill="#cae3e4"/><path d="M194.86778,167.95893c-0.04685,0.32693 -0.11043,0.61653 -0.4764,0.76056c-0.2519,0.10453 -0.44417,0.28334 -0.63644,0.46215c-0.0712,0.07646 -0.15453,0.02768 -0.21662,-0.07168c0.21839,-0.17925 0.32493,-0.43192 0.43139,-0.68458c0.07331,-0.18938 0.20867,-0.27945 0.38695,-0.33257c0.15209,-0.05269 0.2875,-0.14273 0.51112,-0.13389z" fill="#c8e0e1"/><path d="M198.64056,168.22265c-0.07909,-0.27468 0.10619,-0.3906 0.26286,-0.53121c0.12834,-0.02721 0.19043,0.07209 0.27375,0.12087c0.17397,0.17274 0.29809,0.37141 0.39849,0.59559c-0.1448,0.12784 -0.21812,0.31721 -0.40824,0.38311c-0.08335,-0.0488 -0.12626,-0.08573 -0.18344,-0.13495c-0.11926,-0.14856 -0.23852,-0.2971 -0.34344,-0.43338z" fill="#85d4d9"/><path d="M196.02216,169.45773c0.09219,-0.26496 0.18923,-0.47984 0.27197,-0.70701c0.25918,-0.02938 0.52079,-0.03373 0.77301,-0.00023c0.07638,0.11165 0.03375,0.2127 0.0292,0.30058c-0.00457,0.08789 -0.00914,0.17575 -0.10649,0.25263c-0.25676,0.05439 -0.58009,0.09741 -0.9677,0.15402z" fill="#c7dfe0"/><path d="M194.35889,166.90105c0.21876,-0.04123 0.42316,-0.09479 0.67292,-0.08641c0.0648,0.26237 -0.00609,0.47679 -0.06026,0.72857c-0.24245,0.06673 -0.4849,0.1335 -0.73925,0.21296c0.02314,-0.30146 0.07731,-0.55329 0.12659,-0.85514z" fill="#c8e0e1"/><path d="M191.3521,174.38987c-0.01944,-0.20041 -0.03889,-0.40078 0.02012,-0.60248c0.2519,-0.10453 0.51807,-0.19674 0.79611,-0.3017c0.02856,0.0246 0.05717,0.04923 0.0453,0.06197c-0.021,0.18853 -0.05386,0.38976 -0.08915,0.56597c-0.01889,0.07559 -0.05201,0.13888 -0.11619,0.15247c-0.22816,0.07903 -0.41342,0.195 -0.65621,0.12378z" fill="#c4dcdd"/><path d="M189.53244,172.11174c0.26862,-0.06717 0.52294,-0.14663 0.79159,-0.21381c0.07876,0.13669 -0.01615,0.23859 -0.04446,0.35199c-0.0283,0.11337 -0.08275,0.2272 -0.1229,0.35328c-0.21385,0.09133 -0.45175,0.07014 -0.68482,0.09913c-0.07421,-0.22454 -0.01274,-0.40121 0.06059,-0.59058z" fill="#c8e0e1"/><path d="M193.89933,166.62018c-0.26621,0.09219 -0.50625,0.184 -0.78429,0.28894c-0.04808,-0.22499 0.011,-0.42671 -0.02278,-0.63943c0.2233,-0.12912 0.47306,-0.12072 0.72979,-0.17514c0.07177,0.19952 0.12684,0.36168 0.07723,0.52558z" fill="#c6ddde"/><path d="M190.71389,167.41303c0.05872,-0.3397 0.21263,-0.6433 0.20475,-0.99442c0.18525,-0.11599 0.3444,-0.23153 0.57496,-0.28551c0.08849,0.23688 0.08183,0.43775 -0.12473,0.60421c-0.25643,0.19242 -0.44141,0.44637 -0.65497,0.67573z" fill="#b9cfd0"/><path d="M196.7253,174.53925c0.05018,0.11207 -0.052,0.1389 -0.08517,0.20211c-0.07819,0.13929 -0.17064,0.26624 -0.15607,0.41659c-0.01615,0.23863 -0.16091,0.36647 -0.33192,0.49474c-0.07365,0.05139 -0.16154,0.0905 -0.27318,0.15506c-0.05539,-0.30016 -0.07968,-0.55067 0.20292,-0.74351c0.19713,-0.12873 0.34896,-0.31939 0.51748,-0.47272c0.03562,-0.0382 0.0712,-0.07646 0.12595,-0.05227z" fill="#c0d8d8"/><path d="M198.40521,171.60101c-0.03531,0.17624 -0.10161,0.30274 -0.19652,0.40468c-0.04747,0.05093 -0.10676,0.11471 -0.17094,0.12829c-0.28293,0.05485 -0.53479,0.15939 -0.7867,0.26393c-0.10005,-0.08617 -0.03832,-0.12481 -0.00272,-0.16306c0.11865,-0.12742 0.24915,-0.26759 0.33919,-0.41961c0.12565,-0.19026 0.27532,-0.26799 0.50135,-0.23411c0.10708,0.02331 0.18557,0.02202 0.31635,0.01987z" fill="#c1d9d9"/><path d="M195.33144,167.87601c0.21626,-0.0663 0.4256,-0.06975 0.65862,-0.0987c0.08608,0.21182 -0.00156,0.38888 -0.02254,0.57742c-0.25433,0.0795 -0.51836,0.05878 -0.79186,0.07583c0.01858,-0.21357 0.09434,-0.37793 0.15577,-0.55458z" fill="#c3dbdc"/><path d="M191.22022,172.76125c-0.08029,0.25226 -0.1631,0.47943 -0.23155,0.71891c-0.16398,0.06548 -0.31608,0.11812 -0.51595,0.08383c-0.03375,-0.21271 0.01341,-0.40165 0.04623,-0.60293c0.21147,-0.11639 0.42769,-0.18271 0.70118,-0.19977z" fill="#c3dadb"/><path d="M197.14964,168.38532c-0.24977,-0.00842 -0.47334,-0.01726 -0.69692,-0.0261c-0.05993,-0.21226 -0.01277,-0.40121 0.03439,-0.59015c0.20686,-0.02853 0.40427,-0.01925 0.6184,0.02739c0.01915,0.06242 0.04074,0.14987 0.04562,0.19994c0.00029,0.13798 -0.01612,0.2386 -0.00155,0.38892z" fill="#c4dbdc"/><path d="M197.82808,173.07833c0.22545,-0.24211 0.40344,-0.43322 0.59321,-0.6371c0.15456,-0.02766 0.29966,-0.01748 0.46388,0.05505c0.02642,0.13753 -0.0852,0.20212 -0.1278,0.30318c-0.04257,0.10105 -0.0995,0.18981 -0.15879,0.25354c-0.26167,0.00435 -0.47095,0.00781 -0.77057,0.02531z" fill="#c2d9da"/><path d="M192.10832,175.43109c-0.15209,0.05269 -0.29475,0.06765 -0.42801,0.04473c-0.12624,-0.08572 -0.11222,-0.21144 -0.14813,-0.31116c-0.0359,-0.09971 -0.10981,-0.18634 -0.06965,-0.31243c0.14723,-0.10281 0.3541,-0.1313 0.58472,-0.18533c0.01218,0.12528 0.02435,0.25053 0.04834,0.36301c0.00028,0.13797 0.00061,0.27597 0.01276,0.40122z" fill="#c5ddde"/><path d="M195.46225,166.79496c0.19017,-0.06588 0.34012,-0.00564 0.49708,-0.00824c0.09792,0.19911 0.09125,0.39994 0.08701,0.62581c-0.19498,0.01578 -0.39001,0.03153 -0.57074,0.05962c-0.08849,-0.23688 -0.01763,-0.45134 -0.01335,-0.67719z" fill="#c3dbdc"/><path d="M194.46204,174.97813c0.02162,0.08747 0.02649,0.13752 0.03137,0.18761c-0.00214,0.11292 -0.01614,0.23862 -0.01584,0.3766c-0.26621,0.09219 -0.48947,0.22136 -0.77727,0.22613c-0.07638,-0.11165 -0.05994,-0.21228 -0.03406,-0.3507c0.23515,-0.14188 0.50835,-0.29692 0.79581,-0.43973z" fill="#c7dfe0"/><path d="M197.39024,169.64834c0.23789,0.02115 0.4423,-0.03239 0.65889,0.03929c0.05747,0.18723 -0.0587,0.33967 -0.02982,0.50228c-0.28294,0.05484 -0.52081,0.03372 -0.78243,0.03804c-0.03619,-0.23777 0.09432,-0.3779 0.15331,-0.57962z" fill="#c7dee0"/><path d="M199.40713,167.48233c0.1095,0.04835 0.17398,0.17277 0.33339,0.19518c0.12565,-0.19026 0.24888,-0.40553 0.41738,-0.55887c0.04534,0.06199 0.10494,0.13626 0.13842,0.21095c0.05018,0.11207 0.04804,0.225 -0.035,0.31424c-0.12805,0.16519 -0.24425,0.31766 -0.37238,0.48286c-0.18588,-0.16001 -0.25979,-0.2466 -0.48184,-0.64436z" fill="#61acb1"/><path d="M188.73366,171.17161c0.21876,-0.04123 0.3994,-0.06932 0.63246,-0.09826c-0.06845,0.23948 -0.12503,0.46619 -0.20778,0.6934c-0.16637,0.0404 -0.32094,0.06801 -0.49222,0.05833c-0.03619,-0.23777 0.01097,-0.42668 0.06756,-0.65344z" fill="#c2dada"/><path d="M198.59477,171.25919c-0.21876,0.04123 -0.4043,0.01923 -0.6279,0.01037c0.10889,-0.22762 0.1941,-0.42975 0.27931,-0.63189c0.16396,-0.06547 0.29966,-0.0175 0.47334,0.01726c0.04563,0.19994 -0.04199,0.37708 -0.12473,0.60421z" fill="#c1d9d9"/><path d="M190.0648,173.00619c0.01002,0.23819 0.00088,0.41395 0.00605,0.60207c-0.16154,0.0905 -0.35897,0.08122 -0.55642,0.0719c-0.06932,-0.17447 -0.11251,-0.34937 -0.07966,-0.55065c0.18525,-0.11596 0.38758,-0.05657 0.63003,-0.12334z" fill="#c6dedf"/><path d="M194.25005,166.04983c0.20685,-0.02852 0.41617,-0.03197 0.61116,-0.04775c0.1168,0.1235 0.15514,0.24831 0.15787,0.41139c-0.21147,0.11639 -0.45175,0.07015 -0.68236,0.12418c-0.08125,-0.16174 -0.06963,-0.31245 -0.08669,-0.4878z" fill="#c0d7d7"/><path d="M194.90606,175.77363c0.18769,-0.09093 0.34438,-0.23149 0.5917,-0.24817c0.00273,0.16307 0.01731,0.31336 0.03191,0.46364c-0.14238,0.15287 -0.33249,0.21874 -0.54177,0.2222c-0.07876,-0.13668 -0.09093,-0.26191 -0.08183,-0.43767z" fill="#c3dadb"/><path d="M198.96972,168.64374c0.05718,0.04923 0.12627,0.08572 0.18348,0.13495c0.19017,-0.06588 0.26347,-0.25522 0.40824,-0.38311c0.11193,0.07341 0.09794,0.19913 0.18616,0.29799c-0.09706,0.21486 -0.2823,0.33085 -0.33645,0.58263c-0.15481,-0.11035 -0.20501,-0.22239 -0.26953,-0.34679c-0.04779,-0.08702 -0.17156,-0.14774 -0.17185,-0.28567z" fill="#5aa0a4"/><path d="M190.76467,165.64334c0.18767,-0.0909 0.3444,-0.23152 0.56555,-0.24772c0.07638,0.11165 0.08607,0.21187 0.10071,0.36214c-0.15912,0.11555 -0.3468,0.20646 -0.53937,0.24731c-0.07636,-0.11165 -0.09794,-0.1991 -0.12683,-0.3617z" fill="#bdd3d4"/><path d="M196.97625,167.40972c-0.17128,-0.00971 -0.32825,-0.00713 -0.4852,-0.00452c-0.06933,-0.17449 -0.07209,-0.33754 -0.06298,-0.5133c0.1378,-0.06499 0.26167,-0.00435 0.36171,0.0818c0.1287,0.11074 0.25735,0.22151 0.18647,0.43598z" fill="#bdd4d5"/><path d="M188.4423,169.5205c0.21385,-0.09132 0.41588,-0.16997 0.62969,-0.26133c-0.10618,0.39063 -0.26014,0.69424 -0.74777,0.66468c-0.02642,-0.13753 0.05417,-0.25178 0.11805,-0.40338z" fill="#bbd2d3"/><path d="M198.03303,168.84737c0.0669,0.14941 0.05291,0.27512 0.03888,0.40079c-0.08304,0.08918 -0.17828,0.05312 -0.28293,0.05483c-0.07846,0.00129 -0.1688,0.01533 -0.26647,-0.04579c-0.0669,-0.14941 0.05169,-0.27682 -0.00335,-0.43901c0.19256,-0.04085 0.35196,-0.0184 0.51379,0.02908z" fill="#c3dadb"/><path d="M193.10057,171.21221c-0.24219,0.2047 -0.4843,0.40944 -0.78367,0.56493c-0.07389,-0.08659 -0.02891,-0.16264 0.03044,-0.22631c0.13994,-0.17793 0.29415,-0.34355 0.43653,-0.49644c0.10677,-0.11467 0.21632,-0.06632 0.31666,0.15783z" fill="#b1c6c7"/><path d="M193.45884,165.3228c-0.12347,0.07731 -0.24488,0.04169 -0.36138,0.05617c-0.21875,0.04125 -0.35928,-0.05677 -0.47154,-0.2682c0.25189,-0.10452 0.53024,-0.07148 0.76813,-0.05034c0.08822,0.0989 0.1074,0.16132 0.0648,0.26237z" fill="#bbd2d3"/><path d="M191.06607,169.69035c-0.16824,0.29134 -0.47,0.42174 -0.76936,0.57726c0.0803,-0.25225 0.25832,-0.44333 0.41009,-0.63402c0.09248,-0.12699 0.15913,-0.11556 0.35926,0.05677z" fill="#bad1d2"/><path d="M190.13407,166.56953c-0.00514,-0.18808 -0.03403,-0.35069 -0.03922,-0.53876c0.07363,-0.0514 0.19959,-0.10366 0.31121,-0.16824c0.19803,0.28526 0.18617,0.298 0.01763,0.45134c-0.08306,0.08917 -0.18042,0.16607 -0.28962,0.25567z" fill="#b5cbcc"/><path d="M189.79455,174.54107c-0.10736,-0.16131 -0.13387,-0.29887 -0.16031,-0.43641c0.1497,-0.07775 0.31152,-0.03022 0.48278,-0.02055c0.04079,0.14985 0.06718,0.28739 0.10796,0.43727c-0.12107,0.10235 -0.27348,0.0171 -0.43048,0.01968z" fill="#c0d7d8"/><path d="M191.94357,166.31382c-0.06202,-0.09933 -0.05994,-0.21227 -0.04596,-0.33797c0.19714,-0.12871 0.42771,-0.18272 0.66318,-0.18661c0.11193,0.07341 0.10494,0.13626 0.07421,0.22454c-0.2257,0.10412 -0.45146,0.20821 -0.69147,0.29997z" fill="#bdd4d4"/><path d="M188.36036,171.24046c-0.021,0.18853 -0.06814,0.37745 -0.08913,0.56598c-0.11651,0.01446 -0.21174,-0.0216 -0.29752,-0.09542c-0.06203,-0.09932 -0.03135,-0.18763 -0.01491,-0.28824c0.01889,-0.07559 0.03772,-0.15115 0.05659,-0.22675c0.11409,-0.03955 0.21874,-0.04127 0.345,0.04448z" fill="#b6cccc"/><path d="M190.93963,173.91997c0.00514,0.18808 0.00789,0.3511 0.02735,0.55154c-0.08547,0.06414 -0.19957,0.10368 -0.36385,0.03112c-0.04081,-0.14984 -0.06967,-0.31246 -0.11286,-0.48735c0.15209,-0.05269 0.27805,-0.10499 0.44933,-0.09525z" fill="#c1d9d9"/><path d="M188.15635,170.35324c0.15209,-0.05269 0.2805,-0.07993 0.43988,-0.05746c0.00514,0.18808 -0.08493,0.34012 -0.13693,0.47896c-0.12347,0.07731 -0.23301,0.02895 -0.34009,0.00563c-0.03103,-0.04966 -0.05962,-0.07429 -0.04779,-0.08702c0.02832,-0.11335 0.0566,-0.22672 0.08493,-0.34012z" fill="#b7cdce"/><path d="M188.41886,168.60509c-0.01616,0.23863 -0.12291,0.35329 -0.20109,0.49259c-0.07574,0.16434 -0.209,0.14146 -0.3684,0.11903c-0.00514,-0.18808 0.07303,-0.32738 0.11076,-0.47855c0.14724,-0.10278 0.32582,-0.01794 0.45876,-0.13305z" fill="#b6cccc"/><path d="M191.69629,165.25162c0.16639,-0.04039 0.29476,-0.06762 0.435,-0.10757c0.14054,0.09804 0.22632,0.17189 0.26707,0.32174c-0.19258,0.04083 -0.37084,0.09396 -0.53722,0.13437c-0.16428,-0.07251 -0.15024,-0.19821 -0.22419,-0.28479c0.02374,-0.02548 0.03317,-0.06328 0.05932,-0.06374z" fill="#c2dada"/><path d="M190.75157,174.95176c0.12593,-0.05224 0.20442,-0.05355 0.29965,-0.01753c0.09767,0.06113 0.10737,0.16131 0.14329,0.26105c0.02161,0.08746 0.10982,0.18634 0.04106,0.28784c-0.14265,0.01488 -0.28776,0.00477 -0.44019,-0.08054c-0.0289,-0.16261 -0.02919,-0.3006 -0.04379,-0.4509z" fill="#bbd2d3"/><path d="M198.82815,170.28942c-0.15941,-0.02245 -0.27836,-0.03303 -0.41158,-0.0559c-0.01705,-0.17536 0.02071,-0.32651 0.04413,-0.49c0.12836,-0.02721 0.24734,-0.01665 0.34738,0.06954c0.01675,0.03735 0.03345,0.07473 0.02403,0.11253c0.00974,0.10017 0.00757,0.21318 -0.00397,0.36388z" fill="#bbd2d3"/><path d="M189.7362,166.25002c0.04106,0.28786 0.04107,0.28787 -0.08916,0.56598c-0.16641,0.04039 -0.29264,-0.04535 -0.4569,-0.1179c0.12322,-0.21534 0.34892,-0.3194 0.54606,-0.44811z" fill="#adc2c3"/><path d="M197.95606,168.45974c-0.12836,0.02721 -0.26165,0.00431 -0.37356,-0.0691c-0.01705,-0.17536 -0.03167,-0.32561 -0.03436,-0.48864c0.36172,0.08181 0.37601,0.09409 0.40797,0.55773z" fill="#b5cbcc"/><path d="M188.62654,172.22709c0.15454,-0.02768 0.27107,-0.04211 0.43046,-0.01963c0.05504,0.16214 -0.00885,0.31376 -0.01799,0.48956c-0.0642,0.01361 -0.11649,0.01447 -0.16882,0.01535c-0.05233,0.00088 -0.10708,-0.0233 -0.17372,-0.03474c-0.09309,-0.149 -0.09338,-0.28695 -0.06995,-0.45046z" fill="#bbd1d2"/><path d="M199.12836,171.62672c0.05992,0.21228 -0.06815,0.37746 -0.09155,0.54093c-0.14025,0.03993 -0.25222,-0.03345 -0.38546,-0.05636c0.03041,-0.2263 0.12049,-0.37833 0.2939,-0.48154c0.03562,-0.0382 0.11652,-0.01448 0.18313,-0.00304z" fill="#b6cccd"/><path d="M193.75105,176.15661c0.25433,-0.0795 0.51107,-0.13389 0.75352,-0.20063c0.08822,0.09892 0.10982,0.18632 0.08397,0.32476c-0.27348,0.0171 -0.54694,0.03414 -0.82774,-0.02392c-0.00487,-0.05012 -0.00729,-0.07516 -0.00974,-0.10018z" fill="#acc1c2"/><path d="M191.40647,170.90157c0.11135,-0.20258 0.23701,-0.39283 0.41984,-0.53381c0.07365,-0.05139 0.16397,-0.06545 0.23545,-0.00391c0.02856,0.0246 0.06203,0.09934 0.05017,0.11208c-0.16367,0.20341 -0.44171,0.30839 -0.70545,0.42566z" fill="#a7bbbb"/><path d="M188.6831,173.07924c0.0998,-0.05183 0.20686,-0.02853 0.32823,0.00711c0.0289,0.16261 0.05777,0.32521 0.08668,0.48782c-0.15209,0.05269 -0.24974,-0.00842 -0.34981,-0.09457c-0.05018,-0.11207 -0.06481,-0.26235 -0.06508,-0.40037z" fill="#b7cdcd"/><path d="M195.97272,166.3851c-0.19017,0.06588 -0.34953,0.0434 -0.52324,0.00866c-0.07876,-0.13668 -0.11712,-0.2615 -0.0675,-0.42539c0.24275,0.07125 0.40245,0.2317 0.59076,0.41673z" fill="#b7cece"/><path d="M198.86117,173.46266c-0.04228,0.23905 -0.25371,0.35544 -0.30085,0.5444c-0.12834,0.02721 -0.1737,-0.03478 -0.16671,-0.09761c0.02342,-0.16347 0.07302,-0.32741 0.19168,-0.45477c0.0499,-0.02593 0.06176,-0.03864 0.27592,0.00797z" fill="#b4cacb"/><path d="M193.26222,175.5751c0.05017,0.11206 0.0575,0.18721 0.0268,0.27553c-0.21875,0.04125 -0.44932,0.09525 -0.74441,0.02486c0.18741,-0.22888 0.43472,-0.24553 0.71763,-0.3004z" fill="#b2c8c9"/><path d="M198.5027,169.36647c-0.04079,-0.14985 -0.0648,-0.26237 -0.02221,-0.36343c0.06175,-0.03866 0.11653,-0.01449 0.17128,0.00971c0.21901,0.09672 0.20744,0.24748 0.16029,0.43639c-0.09522,-0.03603 -0.20231,-0.05936 -0.30939,-0.08268z" fill="#b5cbcb"/><path d="M189.9895,168.99308c-0.13995,0.17794 -0.27043,0.31808 -0.45569,0.43404c-0.08334,-0.04881 -0.07635,-0.11163 -0.04078,-0.14985c0.06878,-0.1015 0.12324,-0.21532 0.19198,-0.3168c0.09493,-0.10191 0.17583,-0.07816 0.30446,0.03262z" fill="#91a3a3"/><path d="M195.18518,173.92496c0.04228,-0.23905 0.21083,-0.39238 0.35322,-0.54527c0.02374,-0.02548 0.07607,-0.02636 0.11651,-0.01447c0.02856,0.0246 0.04778,0.087 0.0359,0.09977c-0.12322,0.21534 -0.30604,0.35632 -0.50561,0.45999z" fill="#99abac"/><path d="M196.2748,174.08253c0.14755,0.03519 0.21902,0.09674 0.1883,0.18507c-0.05449,0.11381 -0.2017,0.21658 -0.41312,0.333c0.01855,-0.21359 0.14906,-0.35371 0.22483,-0.51803z" fill="#93a5a6"/><path d="M194.4435,165.34412c-0.24489,0.04167 -0.48735,0.10843 -0.6498,-0.21504c0.25675,-0.05438 0.44261,0.10559 0.6498,0.21504z" fill="#9aadad"/><path d="M192.48439,167.83536c-0.05203,0.13888 -0.1159,0.29044 -0.1561,0.41658c-0.10221,0.02677 -0.15697,0.0026 -0.23089,-0.084c0.0353,-0.17624 0.21112,-0.25442 0.30361,-0.38141c0.02856,0.0246 0.04289,0.03694 0.08338,0.04882z" fill="#c5dddd"/><path d="M193.41685,172.31088c0.02556,-0.27641 0.17985,-0.44204 0.39123,-0.55846c0.01188,-0.01275 0.05236,-0.00088 0.08094,0.02373c0.05475,0.0242 0.04778,0.087 0.02403,0.11249c-0.11618,0.15248 -0.3015,0.26844 -0.4962,0.42222z" fill="#aec2c3"/><path d="M199.02766,171.26459c-0.00514,-0.18808 0.07058,-0.35242 0.13449,-0.50402c0.10221,-0.02678 0.14756,0.03521 0.1287,0.11077c-0.02586,0.13843 -0.03988,0.2641 -0.09192,0.40294c0.00487,0.05012 -0.07359,0.0514 -0.17127,-0.00971z" fill="#9caeaf"/><path d="M189.19166,173.9991c0.09309,0.149 0.1314,0.27378 0.1603,0.43641c-0.23333,-0.10903 -0.355,-0.28263 -0.52655,-0.43035c0.04991,-0.02592 0.07365,-0.05139 0.09978,-0.05179c0.09277,0.01102 0.17367,0.03475 0.26647,0.04574z" fill="#a9bebf"/><path d="M196.0331,171.18874c-0.12382,-0.06068 -0.16912,-0.12262 -0.19072,-0.21014c0.10437,-0.1397 0.25403,-0.21743 0.51565,-0.22179c-0.11379,0.17752 -0.22057,0.29217 -0.32489,0.43193z" fill="#b9cfd0"/><path d="M191.24719,167.64259c-0.10221,0.02677 -0.17128,-0.00974 -0.24032,-0.04621c-0.04776,-0.08703 0.01155,-0.15072 0.33922,-0.41958c0.10039,0.22415 -0.07302,0.32738 -0.0989,0.4658z" fill="#869797"/><path d="M194.29845,173.02389c0.23273,-0.16694 0.27016,-0.4561 0.61269,-0.43666c-0.12078,0.24038 -0.27741,0.38095 -0.61269,0.43666z" fill="#93a4a5"/><path d="M188.66464,168.9774c0.17795,-0.1911 0.29663,-0.31852 0.41526,-0.44594c0.02374,-0.02548 0.07607,-0.02636 0.11892,0.01058c0.01431,0.01233 0.03102,0.04968 0.03348,0.07472c-0.11375,0.17752 -0.2443,0.31771 -0.56764,0.36065z" fill="#94a5a6"/><path d="M190.38288,167.24284c-0.13324,-0.02293 -0.18798,-0.04703 -0.21203,-0.15955c0.08061,-0.11422 0.1731,-0.24123 0.33465,-0.33172c0.05989,0.21228 -0.05873,0.33965 -0.1226,0.49124z" fill="#abbfc0"/><path d="M187.78822,169.53134c0.09522,0.03605 0.13567,0.04793 0.1643,0.07256c-0.00882,0.31376 -0.00884,0.31373 -0.21783,0.45517c-0.07177,-0.19952 0.04683,-0.32694 0.05356,-0.52773z" fill="#acc0c1"/><path d="M193.6881,165.79568c-0.18072,0.02807 -0.35897,0.08122 -0.55397,0.09698c-0.07846,0.00129 -0.13567,-0.04796 -0.10737,-0.16131c0.21876,-0.04123 0.42558,-0.06977 0.66132,0.06434z" fill="#9fb2b2"/><path d="M188.25781,172.20814c0.02403,0.11254 0.03131,0.18766 0.0006,0.27596c-0.07607,0.02638 -0.14267,0.01493 -0.22603,-0.03388c-0.0739,-0.0866 -0.07177,-0.19952 -0.06963,-0.31245c0.0998,-0.05183 0.19742,0.00927 0.29504,0.07039z" fill="#aec2c3"/><path d="M194.3092,169.22264c0.05505,0.16212 -0.02802,0.25138 -0.09675,0.35286c-0.03562,0.0382 -0.10218,0.02677 -0.14509,-0.01015c-0.02856,-0.0246 -0.0478,-0.08704 -0.02404,-0.11251c0.0283,-0.11337 0.1281,-0.16522 0.2659,-0.23019z" fill="#91a2a3"/><path d="M190.02148,174.98895c0.35899,-0.08121 0.38513,-0.08169 0.4049,0.25673c-0.1381,-0.073 -0.29752,-0.09543 -0.4049,-0.25673z" fill="#869696"/><path d="M197.06355,174.78456c0.03374,0.21271 -0.08031,0.25222 -0.17767,0.32912c-0.06933,-0.17449 -0.06933,-0.17449 0.17767,-0.32912z" fill="#555f5f"/><path d="M193.11677,168.8159c0.05932,-0.06371 0.14236,-0.15287 0.26833,-0.20517c0.02188,0.22545 -0.02558,0.27639 -0.16578,0.31637c-0.03803,0.01318 -0.08095,-0.02374 -0.10251,-0.11122z" fill="#93a5a6"/><path d="M188.15913,168.35854c-0.0006,-0.27598 0.03741,-0.28917 0.30179,-0.13043c-0.05447,0.11381 -0.17096,0.1283 -0.30179,0.13043z" fill="#8b9b9c"/><path d="M196.94853,175.4889c0.07576,-0.16434 0.18496,-0.25392 0.29422,-0.34357c0.12137,0.03561 0.14053,0.09805 0.09306,0.149c-0.09491,0.10192 -0.20414,0.19154 -0.38723,0.19459z" fill="#9aacad"/><path d="M187.65035,170.6752c-0.02642,-0.13753 -0.07664,-0.24963 0.03257,-0.33926c0.01189,-0.01273 0.03802,-0.01319 0.05233,-0.00088c0.10495,0.13626 0.06234,0.23735 -0.08491,0.34013z" fill="#5f6a6b"/><path d="M195.17225,170.14921c-0.00457,0.08789 -0.05203,0.13888 -0.11381,0.17751c-0.03803,0.01318 -0.09034,0.01403 -0.10707,-0.02333c-0.01675,-0.03735 -0.02161,-0.08746 0.00215,-0.11293c0.04747,-0.05093 0.10921,-0.0896 0.21873,-0.04123z" fill="#636e6f"/><path d="M188.34538,173.10985c-0.13567,-0.04795 -0.19529,-0.1222 -0.15758,-0.27337c0.16183,0.04751 0.18345,0.13493 0.15758,0.27337z" fill="#4a5354"/></g><g fill="#000000" stroke="#000000" stroke-width="1.2"><path d="M215.14574,162.10747c-0.88868,1.64087 -4.09038,2.61692 -5.85423,4.08516c-1.89907,1.58075 -2.27505,3.50364 -3.90288,3.71735c-1.13703,0.14927 -2.30356,-0.9286 -2.83383,-1.56567c-1.28948,-1.54909 0.28,-4.98146 3.50553,-7.66637c3.22553,-2.68492 6.88565,-3.60568 8.17511,-2.0566c0.58433,0.70197 1.64675,2.12637 0.91034,3.48609z"/><path d="M214.54831,158.01304c-1.2599,2.27662 -6.44139,5.30475 -6.44139,5.30475c0,0 -2.18255,3.26608 -2.25005,3.32029c-4.30138,3.45572 -6.58132,0.81216 -9.12039,-2.23818c-1.20845,-1.45174 -2.47803,-4.17411 -1.81112,-6.07249c0.75634,-2.15299 3.22815,-3.46256 5.59634,-5.43383c4.45631,-3.70941 9.77359,-5.02491 12.35253,-1.92672c1.13523,1.36382 3.35682,4.00547 1.67409,7.04616z"/></g></g><path d="M173.94626,198.96769c0.24983,-2.25083 5.71105,-3.29951 12.198,-2.34226c6.48696,0.95724 11.54315,3.55791 11.29334,5.80874c-0.24983,2.25083 -5.71105,3.29951 -12.198,2.34226c-6.48696,-0.95724 -11.54315,-3.55791 -11.29334,-5.80874z" fill="none" fill-rule="nonzero" stroke="#000000" stroke-width="4.5" stroke-linecap="butt" stroke-linejoin="miter"/><g fill="#ff0000" fill-rule="nonzero" stroke="none" stroke-linecap="butt" stroke-linejoin="miter"><path d="M203.1008,142.69731c-0.30089,-1.16361 0.25959,-2.43717 1.25191,-2.8446c0.9923,-0.40742 2.04065,0.20559 2.34154,1.36919c0.30089,1.16361 -0.25959,2.43717 -1.2519,2.84461c-0.9923,0.40742 -2.04066,-0.2056 -2.34155,-1.36919z" stroke-width="NaN"/><path d="M199.52837,139.13001c-0.27683,-1.07053 0.2138,-2.23195 1.09584,-2.59409c0.88204,-0.36216 1.82151,0.21208 2.09832,1.28262c0.27683,1.07053 -0.21382,2.23194 -1.09586,2.59409c-0.88204,0.36216 -1.8215,-0.21209 -2.09831,-1.28261z" stroke-width="0"/><path d="M201.47568,134.1354c-0.28885,-1.11706 0.19201,-2.31623 1.07405,-2.67836c0.88204,-0.36216 1.83126,0.24982 2.12012,1.36691c0.28885,1.11706 -0.192,2.31622 -1.07405,2.67836c-0.88204,0.36216 -1.83126,-0.24982 -2.12011,-1.36689z" stroke-width="0"/><path d="M200.40592,150.7881c0.78149,-0.02046 1.4312,0.82866 1.45118,1.89659c0.01998,1.06795 -0.59735,1.95026 -1.37883,1.97072c-0.78149,0.02046 -1.4312,-0.82866 -1.45119,-1.89661c-0.01998,-1.06795 0.59735,-1.95024 1.37883,-1.9707z" stroke-width="NaN"/><path d="M203.41409,148.12987c0.71897,-0.01882 1.3162,0.73543 1.33397,1.6847c0.01776,0.94927 -0.55068,1.73407 -1.26966,1.75289c-0.71897,0.01882 -1.3162,-0.73545 -1.33395,-1.68472c-0.01776,-0.94927 0.55068,-1.73407 1.26966,-1.75289z" stroke-width="0"/><path d="M200.82955,146.1913c0.81275,-0.02129 1.4854,0.69893 1.50242,1.60864c0.01702,0.90973 -0.62806,1.66444 -1.44081,1.68572c-0.81275,0.02129 -1.4854,-0.69893 -1.50242,-1.60866c-0.01702,-0.90973 0.62804,-1.66443 1.44079,-1.68571z" stroke-width="0"/><path d="M213.67556,143.68992c0.00182,-1.22323 0.84976,-2.20963 1.89391,-2.20323c1.04416,0.00641 1.88914,1.00324 1.88732,2.22646c-0.00182,1.22323 -0.84974,2.20963 -1.89391,2.20322c-1.04416,-0.00641 -1.88915,-1.00323 -1.88733,-2.22646z" stroke-width="NaN"/><path d="M211.16189,138.89039c0.00168,-1.12535 0.75544,-2.03302 1.68357,-2.02731c0.92813,0.00571 1.67918,0.92261 1.67749,2.04798c-0.00168,1.12535 -0.75543,2.03301 -1.68358,2.02733c-0.92813,-0.00571 -1.67918,-0.92261 -1.67751,-2.04798z" stroke-width="0"/><path d="M209.84055,150.60784c0.748,0.29006 1.1556,1.35306 0.91038,2.37424c-0.24522,1.02118 -1.05039,1.61384 -1.7984,1.32377c-0.748,-0.29006 -1.15559,-1.35306 -0.91038,-2.37424c0.24522,-1.02118 1.05038,-1.61384 1.79838,-1.32378z" stroke-width="NaN"/><path d="M215.07237,153.23562c0.71809,0.27849 1.12349,1.24007 0.90555,2.1478c-0.21796,0.90772 -0.97678,1.41782 -1.69488,1.13934c-0.71809,-0.27849 -1.12351,-1.24008 -0.90555,-2.14778c0.21796,-0.90772 0.97679,-1.41782 1.69488,-1.13934z" stroke-width="0"/><path d="M211.38058,146.41407c0.77792,0.30168 1.23922,1.25143 1.03034,2.12132c-0.20889,0.8699 -1.00885,1.33053 -1.78677,1.02886c-0.77792,-0.30168 -1.23922,-1.25144 -1.03035,-2.12133c0.20889,-0.8699 1.00885,-1.33052 1.7868,-1.02885z" stroke-width="0"/></g><path d="M135.19524,166.2246c6.40258,-26.77933 33.92209,-43.14966 61.46654,-36.56415c27.54444,6.5855 44.68334,33.63303 38.28075,60.41238c-6.40258,26.77933 -33.92209,43.14966 -61.46654,36.56415c-27.54444,-6.5855 -44.68334,-33.63303 -38.28075,-60.41238z" fill="#000000" fill-rule="nonzero" stroke="#7d7d7d" stroke-width="4" stroke-linecap="butt" stroke-linejoin="miter"/><path d="M138.19413,194.15391c-4.05737,-8.61703 -1.03703,-18.57337 6.74609,-22.23808c7.78313,-3.66471 17.38175,0.34994 21.43912,8.96698c4.05737,8.61703 1.03703,18.57337 -6.74609,22.23808c-7.78313,3.66471 -17.38175,-0.34994 -21.43912,-8.96698z" fill="#888888" fill-rule="nonzero" stroke="none" stroke-width="0" stroke-linecap="butt" stroke-linejoin="miter"/><g stroke-linejoin="miter"><path d="M155.0514,204.07606c8.73995,-10.22463 24.48715,-11.10906 35.17236,-1.97542c10.68519,9.13364 12.26214,24.82663 3.5222,35.05126c-8.73995,10.22463 -24.48715,11.10906 -35.17236,1.97542c-10.68519,-9.13364 -12.26214,-24.82663 -3.5222,-35.05126z" fill="none" fill-rule="nonzero" stroke="#000000" stroke-width="4.5" stroke-linecap="butt"/><g stroke-linecap="butt"><g fill-rule="nonzero"><path d="M175.64202,242.37781l-0.00344,-0.01359" fill="#ffab19" stroke="#000000" stroke-width="5"/><g fill="none" stroke="none" stroke-width="1" font-family="sans-serif" font-weight="normal" font-size="12" text-anchor="start"/></g><path d="M175.64202,242.37781l-0.00344,-0.01359" fill="#ffab19" fill-rule="nonzero" stroke="#000000" stroke-width="5"/><path d="M175.41464,219.87354" fill="#001026" fill-rule="evenodd" stroke="#000000" stroke-width="5"/><g fill="none" fill-rule="nonzero" stroke="none" stroke-width="1" font-family="sans-serif" font-weight="normal" font-size="12" text-anchor="start"/><g fill="none" fill-rule="nonzero" stroke="none" stroke-width="1" font-family="sans-serif" font-weight="normal" font-size="12" text-anchor="start"/></g><path d="M195.19436,205.20022l22.23247,19.31163c0,0 1.60715,1.8202 0.75782,2.28018c-1.94756,1.05475 -12.20745,3.92065 -12.20745,3.92065l6.30112,10.61295c0,0 1.03134,2.07061 0.55986,3.11372c-0.43859,0.97036 -15.18147,0.68321 -15.18147,0.68321c0,0 3.93864,8.11541 4.3537,11.07631c0.16299,1.16267 -14.35122,-1.17956 -23.36305,-3.97768c-4.40975,-1.3692 -10.59152,-3.03878 -14.6315,-5.5314c-6.69858,-4.13295 -9.76885,-9.77235 -9.76885,-9.77235" fill="none" fill-rule="nonzero" stroke="#000000" stroke-width="3" stroke-linecap="round"/><path d="M218.84804,225.72669c0,0 -0.50918,1.41162 -2.69966,2.08199c-2.74363,0.83965 -8.91533,-0.15926 -9.19254,2.71039c-0.35912,3.71734 9.52315,11.56286 5.84317,13.47817c-3.02171,1.57269 -13.61872,-0.29742 -14.96465,1.27716c-1.34297,1.57108 2.94619,3.58337 3.14986,7.37663c0.2897,5.39484 -1.08081,4.23069 -1.08081,4.23069c0,0 -13.76459,-1.93553 -19.68412,-3.77656c-5.55384,-1.72731 -14.80596,-6.95027 -14.80596,-6.95027c0,0 20.28469,-0.74564 27.13475,-5.47871c7.59341,-5.2467 6.32828,-30.7913 6.32828,-30.7913z" fill="url(#color-1)" fill-rule="nonzero" stroke="none" stroke-width="0" stroke-linecap="butt"/></g><path d="M175.22503,224.25501c0.39996,-3.05849 3.86878,-5.12663 7.74783,-4.61937c3.87904,0.50726 6.6994,3.39788 6.29943,6.45635c-0.39996,3.05849 -3.86878,5.12663 -7.74783,4.61937c-3.87904,-0.50726 -6.6994,-3.39788 -6.29943,-6.45635z" fill="none" fill-rule="nonzero" stroke="#000000" stroke-width="4.5" stroke-linecap="butt" stroke-linejoin="miter"/><path d="M194.40469,217.67967c0,0 -2.55025,0.13399 -4.65136,-2.04344c-1.94745,-2.01815 -7.52931,-10.57955 -7.52931,-10.57955" fill="none" fill-rule="nonzero" stroke="#000000" stroke-width="3" stroke-linecap="round" stroke-linejoin="miter"/></g></g></svg>